<?xml version="1.0" encoding="utf-8"?>
<svg version="1.1" id="Layer_1"
xmlns="http://www.w3.org/2000/svg"
xmlns:xlink="http://www.w3.org/1999/xlink"


xml:space="preserve">
q-19 9.2 -28.85 28.25q-9.55 18.5 -13.6 38.9q-4.05 20.35 -2.2 40.95q1.95 21.55 11.95 40.5q9.95 18.85 30.05 24.65q21.4 6.05 41.5 -4.45q21.15 -11 20.15 -34.5q-0.15 -2.9 -0.8 -5.5q-12.55 28.95 -3.05 55.95q0.55 1.6 1.8 3q4.45 -25.2 9.3 -50.3q2.4 -12.6 -2.8 -23.9q-3.85 2.35 -4.4 6.55q-0.25 1.9 0.4 3.95q-7.9 13.65 -23.35 19.2q-11.95 4.35 -24.6 2.95q-16.85 -1.65 -26.15 -15.4q-8.7 -12.85 -13.1 -27.65q-4.4 -14.65 -4.65 -29.9q-0.25 -17.95 6.05 -34.55q6.8 -17.85 21.85 -30q18.85 -15.2 42.5 -12.5q18.7 2.25 33.3 14.3q-6.35 -22.15 -28.9 -29.7q-20.85 -6.95 -40.55 2.7q2.8 39.35 0.95 79.55q-1.95 43.5 -28.55 76.3q-7.3 9 -18.65 10.25q-13.8 1.45 -26.65 -2.5q-21.4 -6.6 -25.7 -31.1q-7.45 -42.15 -5.45 -86.45q0.5 -11.2 2.2 -22.2q2.5 -15.85 0.3 -30.25q-5.25 3.2 -5.7 10.2q-2.5 39.3 -3.5 79.55q-1.15 46.2 20.9 85.85q3.6 6.5 10.2 9.35q31.8 13.7 54.15 -9.15q22.65 -23.15 28.75 -54.3q11.75 -59.9 -1.35 -118q-2 1.05 -1.9 2.9<g id="20" transform="matrix(1, 0, 0, 1, -145.15, 0)">
<path style="fill:#000000;fill-opacity:1" d="M372.5,179Q395.05 186.55 401.4 208.7L398.45 214.75L395.95 206.5Q381.35 194.45 362.65 192.2Q339 189.5 320.15 204.7Q305.1 216.85 298.3 234.7Q292 251.3 292.25 269.25Q292.5 284.5 296.9 299.15Q301.3 313.95 310 326.8Q319.3 340.55 336.15 342.2Q348.8 343.6 360.75 339.25Q376.2 333.7 384.1 320.05L382.75 309.85L360.45 309.25Q359.8 307.2 360.05 305.3Q360.6 301.1 364.45 298.75L401.95 296Q407.15 307.3 404.75 319.9Q399.9 345 395.45 370.2Q394.2 368.8 393.65 367.2Q384.15 340.2 396.7 311.25L390.15 310.5Q390.8 313.1 390.95 316Q391.95 339.5 370.8 350.5Q350.7 361 329.3 354.95Q309.2 349.15 299.25 330.3Q289.25 311.35 287.3 289.8Q285.45 269.2 289.5 248.85Q293.55 228.45 303.1 209.95Q312.95 190.9 331.95 181.7Q351.65 172.05 372.5 179M258.95,182.5Q272.05 240.6 260.3 300.5Q254.2 331.65 231.55 354.8Q209.2 377.65 177.4 363.95Q170.8 361.1 167.2 354.6Q145.15 314.95 146.3 268.75Q147.3 228.5 149.8 189.2Q150.25 182.2 155.5 179Q157.7 193.4 155.2 209.25Q153.5 220.25 153 231.45Q151 275.75 158.45 317.9Q162.75 342.4 184.15 349Q197 352.95 210.8 351.5Q222.15 350.25 229.45 341.25Q256.05 308.45 258 264.95Q259.85 224.75 257.05 185.4Q256.95 183.55 258.95 182.5" />
</g>
</svg>
