<?xml version="1.0" encoding="utf-8"?>
<svg version="1.1" id="Layer_1"
xmlns="http://www.w3.org/2000/svg"
xmlns:xlink="http://www.w3.org/1999/xlink"


xml:space="preserve">
q-1.85 5.4 0.5 10.5q-4 39.35 -4.85 80.95q-0.3 14.45 -1.75 29.05q-3.05 30.6 0.2 59.4q1.15 -0.35 1.25 -0.95q5.7 -27.5 7.2 -56q2.95 -56.65 -1 -112.4q4.05 -7.35 -0.65 -14.15q4.95 -8.1 -2.1 -14.35q-8.55 45.9 -5.55 93.2q1.65 -31.85 -1.85 -62.65q-7.9 57.6 -9.15 117.65q-0.15 12.2 4.6 21.4q8.7 -35.35 6.5 -72.75q24.45 0.85 48.3 -4.55q-3.75 40.75 1.05 78.75q8 -39.55 7.3 -80.75q-2.7 25.65 -1.3 52.4q3.75 69.8 -44.65 117.45q-13.15 2.75 -24.25 -4.8q-26.85 -18.3 -24.9 -53q1.6 -27.6 3.95 -54.6q2.6 -30.35 0.75 -59.3q-4.8 6.65 -5.65 16.7q-3.95 45.3 -5.05 90.8q-0.6 26.3 8.2 50.4q12.8 35 50.2 29.55q4.4 -3.95 8.25 -8.65q32.2 -39.35 37.45 -89.7q3.05 -29.3 4.3 -59.05q0.7 -17.35 -6.25 -29.55q-1 0.6 -1.05 1.35<g id="11" transform="matrix(1, 0, 0, 1, -150.2, 0)">
<path style="fill:#000000;fill-opacity:1" d="M380.1,194.65L379.45 195.5L324.65 197.35Q328.6 253.1 325.65 309.75Q324.15 338.25 318.45 365.75Q318.35 366.35 317.2 366.7Q313.95 337.9 317 307.3Q318.45 292.7 318.75 278.25Q319.6 236.65 323.6 197.3L278.7 194.75Q276.35 189.65 278.2 184.25L278.45 183.5L379.45 180.5Q384.15 187.3 380.1 194.65M416.55,291.6Q417.25 332.8 409.25 372.35Q404.45 334.35 408.2 293.6Q384.35 299 359.9 298.15Q362.1 335.55 353.4 370.9Q348.65 361.7 348.8 349.5L348.9 345.55L349.05 341.4Q350.3 281.35 358.2 223.75Q361.7 254.55 360.05 286.4L408.65 277.95Q405.65 230.65 414.2 184.75L416.95 276.25Q424 282.5 419.05 290.6L416.55 291.6M252.95,178.5Q259.9 190.7 259.2 208.05Q257.95 237.8 254.9 267.1Q249.65 317.45 217.45 356.8Q213.6 361.5 209.2 365.45Q171.8 370.9 159 335.9Q150.2 311.8 150.8 285.5Q151.9 240 155.85 194.7Q156.7 184.65 161.5 178Q163.35 206.95 160.75 237.3Q158.4 264.3 156.8 291.9Q154.85 326.6 181.7 344.9Q192.8 352.45 205.95 349.7Q254.35 302.05 250.6 232.25Q249.2 205.5 251.9 179.85Q251.95 179.1 252.95 178.5" />
</g>
</svg>
