<?xml version="1.0" encoding="utf-8"?>
<svg version="1.1" id="Layer_1"
xmlns="http://www.w3.org/2000/svg"
xmlns:xlink="http://www.w3.org/1999/xlink"


xml:space="preserve">
q-21.85 30.55 -56.25 41.35q2.35 -55.5 -0.05 -110.75q7.45 -1.55 14.25 0.3q9.55 2.65 17.5 8.65q27.4 20.6 34.5 54.85q6.3 30.6 -12.1 56.4q-5.5 -1.3 -9.25 2.15q-0.25 1.1 -0.35 2.25q-2.6 5.5 -2.5 12.6q0.9 59.1 -2.15 117.75q-3.45 60.2 -15.1 118.85q-3.3 16.7 2.95 29.9q7.2 -21.7 10.25 -46.1q7.3 -58.55 10.1 -117.85q8.25 -0.1 16 -4.1q6.8 27.8 16.45 54.8q5.7 15.95 9.85 32.25q14.5 57.1 24.55 114.6q2.8 15.95 10.3 27.45q0.75 -0.75 0.85 -1.55q2.1 -22.05 -3.75 -44.4q-15.05 -57.1 -29.5 -114.55q-7.3 -28.9 -15.65 -57.45q-2.9 -9.95 -6.45 -18.6q8.15 -5.3 15.4 -11.95q49.05 -45 30.95 -108.1q-13.7 -47.65 -61.35 -56.85q-2.75 54.85 0.8 110.95q3.7 59.1 0.15 118.55q-3.65 61.75 -28.1 118.45q-12.15 28.15 -41.5 26.5q-6 -3.95 -8.7 -10.55q-13.6 -32.85 -12.8 -69.45q1.3 -59.2 -1.7 -117.75q-3.05 -59.6 -1.05 -119.2q0.5 -14.95 1.9 -29.85q1.55 -16.65 -2.65 -29.15q-4.8 41.2 -5.25 83.25q-0.6 58.75 1.25 117q1.85 59.55 0.55 119.2q-0.95 43.55 27.7 73.5q12.4 1.3 20.95 -7.25q26.05 -25.9 35.7 -61.55q15.5 -57.35 16.15 -117.35q0.65 -59.65 -2 -119.3q-0.7 -15.05 -0.2 -29.9q1 -30.7 -4.1 -59.3q-2.45 0.15 -2.6 2.75q4.85 -2.2 10.05 -3.3q15.75 -3.1 22.25 10q6.95 10.65 12.45 22.15q5.35 11.25 9.9 22.7q21.65 55.35 30.95 113.95q3.4 21.5 4.6 43.35q3.25 59.85 -17.75 116q-8.3 22.2 -22.95 39.8q-10.65 12.8 -26.85 16.75q-25.25 6.15 -40.45 -13.35q-31.1 -39.85 -37.35 -91.3q-3.55 -28.9 -4.35 -58.55q-1.55 -59.5 4.85 -118.45q6.4 -58.85 51.7 -95.3q-40.85 13.05 -58.35 53.55q-17.3 40.05 -19.15 83.4q-2.55 59.45 -0.45 119.3q2.1 59.8 25.55 114.8q6.75 15.85 19.4 27.35q33.7 30.65 66.95 -0.25q17.1 -15.85 25.95 -38.15q22 -55.35 23.05 -115.25q1.05 -59.7 -13.85 -116.85q-15 -57.75 -38.5 -111.85q-7.85 -18.15 -25.35 -23.05q-1.9 1.8 -2 4.5q-0.7 35 -2.05 70.1q-0.7 17.3 5.65 29.6q4.1 -8.95 3.45 -20.35q-1.75 -31.45 -0.55 -62.85q29.7 2.45 59.55 -4.95q0.45 51.05 0 101.8q0.3 1.7 2 2q0.75 -0.65 0.85 -1.35q4.7 -39.55 3.65 -80.15q-1.5 -59.75 -2.25 -118.5q-4.95 38.3 -4.45 79.5q-28.05 5.6 -56.35 7.4q1.05 -48.45 -1.35 -95.9q-4.95 24.95 -5.15 53q-0.35 0.9 -0.4 2q-0.05 1.4 0.3 2.8<g id="19" transform="matrix(1, 0, 0, 1, -32.65, 0)">
<path style="fill:#000000;fill-opacity:1" d="M500.8,140.05Q493.7 105.8 466.3 85.2Q458.35 79.2 448.8 76.55Q442 74.7 434.55 76.25Q436.95 131.5 434.6 187L432.45 237.8Q466.85 227 488.7 196.45Q507.1 170.65 500.8 140.05M441.95,66Q489.6 75.2 503.3 122.85Q521.4 185.95 472.35 230.95Q465.1 237.6 456.95 242.9Q460.5 251.55 463.4 261.5Q471.75 290.05 479.05 318.95Q493.5 376.4 508.55 433.5Q514.4 455.85 512.3 477.9Q512.2 478.7 511.45 479.45Q503.95 467.95 501.15 452Q491.1 394.5 476.6 337.4Q472.45 321.1 466.75 305.15Q457.1 278.15 450.3 250.35L449.7 247.15L447.8 248.15Q440.05 252.15 431.8 252.25L429.3 305.5Q426.5 364.8 419.2 423.35Q416.15 447.75 408.95 469.45Q402.7 456.25 406 439.55Q417.65 380.9 421.1 320.7L427.6 202.25Q430.65 143.6 429.75 84.5Q429.65 77.4 432.25 71.9L432.35 70.5Q432.45 69.35 432.7 68.25Q436.45 64.8 441.95 66.1L441.95 66M402.45,70Q407.55 98.6 406.55 129.3Q406.05 144.15 406.75 159.2Q409.4 218.85 408.75 278.5Q408.1 338.5 392.6 395.85Q382.95 431.5 356.9 457.4Q348.35 465.95 335.95 464.65L330.45 464.2Q301.8 434.25 302.75 390.7Q304.05 331.05 302.2 271.5Q300.35 213.25 300.95 154.5Q301.4 112.45 306.2 71.25Q310.4 83.75 308.85 100.4Q307.45 115.3 306.95 130.25Q304.95 189.85 308 249.45Q311 308 309.7 367.2Q308.9 403.8 322.5 436.65Q325.2 443.25 331.2 447.2Q360.55 448.85 372.7 420.7Q397.15 364 400.8 302.25Q404.35 242.8 400.65 183.7Q397.1 127.6 399.85 72.75Q400 70.15 402.45 70M196.95,89.5Q151.65 125.95 145.25 184.8Q138.85 243.75 140.4 303.25Q141.2 332.9 144.75 361.8Q151 413.25 182.1 453.1Q197.3 472.6 222.55 466.45Q238.75 462.5 249.4 449.7Q264.05 432.1 272.35 409.9Q293.35 353.75 290.1 293.9Q288.9 272.05 285.5 250.55Q276.2 191.95 254.55 136.6Q250 125.15 244.65 113.9Q239.15 102.4 232.2 91.75L231.95 92.5L231.75 93.25L231.45 94.75L231.2 95.5Q224.7 82.4 208.95 85.5Q203.75 86.6 198.9 88.8L196.95 89.5M215.7,67.25L218.95 64.75Q236.45 69.65 244.3 87.8Q267.8 141.9 282.8 199.65Q297.7 256.8 296.65 316.5Q295.6 376.4 273.6 431.75Q264.75 454.05 247.65 469.9Q214.4 500.8 180.7 470.15Q168.05 458.65 161.3 442.8Q137.85 387.8 135.75 328Q133.65 268.15 136.2 208.7Q138.05 165.35 155.35 125.3Q172.85 84.8 213.7 71.75Q213.8 69.05 215.7 67.25M35.1,162.5Q35.15 161.4 35.5 160.5L36.1 116.25Q36.3 88.2 41.25 63.25Q43.65 110.7 42.6 159.15Q70.9 157.35 98.95 151.75L101.85 152.2L101.75 145.25Q101.25 104.05 106.2 65.75Q106.95 124.5 108.45 184.25Q109.5 224.85 104.8 264.4Q104.7 265.1 103.95 265.75Q102.25 265.45 101.95 263.75Q102.4 213 101.95 161.95Q72.1 169.35 42.4 166.9L41.9 181.8Q40.7 213.2 42.45 244.65Q43.1 256.05 39 265Q32.65 252.7 33.35 235.4Q34.7 200.3 35.4 165.3Q35.05 163.9 35.1 162.5" />
</g>
</svg>
