<?xml version="1.0" encoding="utf-8"?>
<svg version="1.1" id="Layer_1"
xmlns="http://www.w3.org/2000/svg"
xmlns:xlink="http://www.w3.org/1999/xlink"


xml:space="preserve">
q25.95 -41.45 73.85 -34q21.15 3.3 34.8 18.95q7.65 8.8 15.65 14.25q1.65 -7.25 -2.55 -13.8q-23.15 -36.2 -68.45 -35.45q-23.5 4.15 -41.25 20.75q-11.7 10.95 -19.05 25.1q-19.65 38.15 -25.6 80.35q-8.25 58.65 -6.4 118.3q1.7 53.5 28.9 98.75q19.1 31.7 57.6 24.4q27.75 -5.3 51.1 -22.1q11.4 -8.2 19.7 -19.45q9.95 -13.5 2 -23.4q-0.85 0.75 -1.25 1.7q-2.55 6.9 -7.55 11.75q-39.3 38.45 -93.7 35.05q-31.85 -20.1 -41.65 -57.6q-9.4 -35.95 -10.15 -73.6q-0.45 -21.9 1.05 -43.45q2.5 -3.65 1.95 -8.25q-0.3 -2.4 -1.45 -4.5q-5.25 -1.25 -10.7 -1.9q2.7 -30.4 9.25 -60.1q6.7 -30.15 22.85 -56q30 -39.05 78.75 -30q9.1 5.35 13.65 14.65q4 8.2 8.6 13.6q1.9 -3.1 1.3 -6.75q-5.9 -37.45 -45.05 -38.5q-12.15 0.75 -23.2 7q-45.45 25.75 -62.45 76q-19.45 57.5 -21.8 118.45q-0.55 14.95 -2.05 29.85q-4.5 43.85 13.15 83.55q11.45 25.7 32.65 45.15q35.7 32.75 76.95 8.5q6.95 -4.1 14.35 -7.15q24 -9.9 23.4 -33.15q-0.25 -0.75 -0.7 -1.35q-3.95 9.7 -12.95 15.75q-18.45 12.4 -38.9 20.4q-12.45 4.85 -25.4 0.8q-23.1 -7.2 -40.6 -24.55q-24.75 -24.55 -29.75 -58.55q-4.3 -29.25 -2.95 -59.15q2.45 -53.95 14.75 -105.9q8.45 -35.8 31.05 -65.25q-4.95 25.75 -6.75 53.15q-3.9 59.1 -7.25 118.4q-3.35 59.1 -4.7 118.55q-0.25 11.3 -1.85 22.3q-2.35 16.95 4.1 29.45q5.05 -29.5 5.35 -60.75q0.6 -59.4 3.3 -118.5q2.75 -59.45 9.35 -118.35q2.6 -23.15 -1.05 -44.35<g id="178" transform="matrix(1, 0, 0, 1, -77.05, 0)">
<path style="fill:#000000;fill-opacity:1" d="M340.8,187.3Q334.25 217 331.55 247.4L372.95 244.25Q378.4 244.9 383.65 246.15L385.2 246.75Q386.35 248.85 386.65 251.25Q387.2 255.85 384.7 259.5L330.7 257.8Q329.2 279.35 329.65 301.25Q330.4 338.9 339.8 374.85Q349.6 412.35 381.45 432.45Q435.85 435.85 475.15 397.4Q480.15 392.55 482.7 385.65Q483.1 384.7 483.95 383.95Q491.9 393.85 481.95 407.35Q473.65 418.6 462.25 426.8Q438.9 443.6 411.15 448.9Q372.65 456.2 353.55 424.5Q326.35 379.25 324.65 325.75Q322.8 266.1 331.05 207.45Q337 165.25 356.65 127.1Q364 112.95 375.7 102Q393.45 85.4 416.95 81.25Q462.25 80.5 485.4 116.7Q489.6 123.25 487.95 130.5Q479.95 125.05 472.3 116.25Q458.65 100.6 437.5 97.3Q389.6 89.85 363.65 131.3Q347.5 157.15 340.8 187.3M164.65,194.25Q152.35 246.2 149.9 300.15Q148.55 330.05 152.85 359.3Q157.85 393.3 182.6 417.85Q200.1 435.2 223.2 442.4Q236.15 446.45 248.6 441.6Q269.05 433.6 287.5 421.2Q296.5 415.15 300.45 405.45L301.45 405.6L302.5 405.95L303 406.35Q303.45 406.95 303.7 407.7L305.45 407.8L306.95 407.45L306.95 408.05L305.95 409L305.2 409.45L303.95 410.2Q304.55 433.45 280.55 443.35Q273.15 446.4 266.2 450.5Q224.95 474.75 189.25 442Q168.05 422.55 156.6 396.85Q138.95 357.15 143.45 313.3Q144.95 298.4 145.5 283.45Q147.85 222.5 167.3 165Q184.3 114.75 229.75 89Q240.8 82.75 252.95 82Q292.1 83.05 298 120.5Q298.6 124.15 296.7 127.25Q292.1 121.85 288.1 113.65Q283.55 104.35 274.45 99Q225.7 89.95 195.7 129Q173.1 158.45 164.65 194.25M100.45,87.5Q104.1 108.7 101.5 131.85Q94.9 190.75 92.15 250.2Q89.45 309.3 88.85 368.7Q88.55 399.95 83.5 429.45Q77.05 416.95 79.4 400Q81 389 81.25 377.7Q82.6 318.25 85.95 259.15Q89.3 199.85 93.2 140.75Q95 113.35 99.95 87.6L100.45 87.5" />
</g>
</svg>
