<?xml version="1.0" encoding="utf-8"?>
<svg version="1.1" id="Layer_1"
xmlns="http://www.w3.org/2000/svg"
xmlns:xlink="http://www.w3.org/1999/xlink"


xml:space="preserve">
q4.1 -22.7 -15.8 -38q-18.95 -14.6 -39.1 -4q-40.3 21.15 -53.25 67q-19.9 70.6 -21.05 144.25q-0.75 47.85 5.9 95.4q2.75 19.55 10.35 37.75q5 12 11.95 22.85q5.25 8.25 11.6 15.85q3.3 2.2 7.15 3.1q6.95 0.15 13.55 -1.5q7.75 -1.8 14.3 -6.4q15.3 -10.7 27.65 -25.15q16 -18.85 9.95 -42.45q-7.9 16.9 -19.4 32q-8 10.5 -19.9 15.95q-17.05 7.6 -35.9 4.5q-25.35 -22.75 -34.95 -55.65q-11.55 -39.75 -13.65 -81.15q-1.2 -24.35 0.15 -48.8q2.1 -1.75 2.45 -4.45q0.6 -5.05 -2.25 -9.4q-37.2 -1.9 -74.25 6.4q2.35 -65.6 24.9 -126.5q7.95 -21.4 24.7 -37.25q17.45 -15.8 39.8 -9.3q19.55 5.75 29.25 24.25q-1.2 2.05 -1.15 4.5q0 1.55 0.65 3q-2.05 5.65 -2.4 12.75q-2.9 59.1 -5.4 118.55q-2.45 59.25 -5.75 118.5q-3.25 59.35 -8.25 118.5q-2.5 13.15 2.5 23q7.6 -20.1 8.95 -43.9q6.45 -0.35 12.75 -2.25q10.7 -3.15 20 -8.2q0.35 1.9 1.3 4.05q24 53.6 44.85 108.7q20.9 55.15 46.6 106.7q1.25 -0.8 1.55 -2.3q2.3 -10.65 -1.8 -20.95q-22.6 -47.35 -41.6 -97.2q-20.05 -52.7 -45.25 -102.3q18.75 -11.9 31.45 -32.15q35 -56 3.1 -112.5q-19.35 -34.25 -57.95 -39.3q-0.55 0.1 -1.05 0.5q23.75 43.1 -3 84.4q-22.15 40.2 -67.55 48.05q2.35 -56.4 1.95 -111.7q44.15 2.35 65.7 41.5q-0.2 59.75 -1.4 119.25q-1.05 59.35 -2.8 118.45q-1.3 -0.2 -2 -1.9q-0.4 0.4 -0.35 0.6q0.75 2.3 0.6 4.6q-1 12.4 5.7 17.3q5.15 -48.95 4.75 -99q-0.45 -59.7 0.8 -119.2q1.25 -59.65 3.9 -119.2q1.35 -30.25 -2.2 -59.3q-4.65 7.45 -4.7 18.75<g id="181" transform="matrix(1, 0, 0, 1, -91.5, 0)">
<path style="fill:#000000;fill-opacity:1" d="M437.3,109.75Q427.6 91.25 408.05 85.5Q385.7 79 368.25 94.8Q351.5 110.65 343.55 132.05Q321 192.95 318.65 258.55Q355.7 250.25 392.9 252.15Q395.75 256.5 395.15 261.55Q394.8 264.25 392.7 266L387.5 266.45L385.45 265.25L318 269.6Q316.65 294.05 317.85 318.4Q319.95 359.8 331.5 399.55Q341.1 432.45 366.45 455.2L369.25 455.65Q388.1 458.75 405.15 451.15Q417.05 445.7 425.05 435.2Q436.55 420.1 444.45 403.2L444.55 400.85L446.15 400.2L448.95 397.2Q455 420.8 439 439.65Q426.65 454.1 411.35 464.8Q404.8 469.4 397.05 471.2Q390.45 472.85 383.5 472.7L377.4 472.3L368.9 470.75Q365.05 469.85 361.75 467.65L359.1 465.3L350.3 455.35Q343.95 447.75 338.7 439.5Q331.75 428.65 326.75 416.65Q319.15 398.45 316.4 378.9Q309.75 331.35 310.5 283.5Q311.65 209.85 331.55 139.25Q344.5 93.4 384.8 72.25Q404.95 61.65 423.9 76.25Q443.8 91.55 439.7 114.25L437.3 109.75M176,65.25L186.95 64.25Q225.55 69.3 244.9 103.55Q276.8 160.05 241.8 216.05Q229.1 236.3 210.35 248.2Q235.55 297.8 255.6 350.5Q274.6 400.35 297.2 447.7Q301.3 458 299 468.65Q298.7 470.15 297.45 470.95Q271.75 419.4 250.85 364.25Q230 309.15 206 255.55Q205.05 253.4 204.7 251.5Q195.4 256.55 184.7 259.7Q178.4 261.6 171.95 261.95L169.6 304.3L162.9 422.8Q161.55 446.6 153.95 466.7Q148.95 456.85 151.45 443.7L152.4 442.4L152.7 441.7Q157.7 382.55 160.95 323.2Q164.25 263.95 166.7 204.7Q169.2 145.25 172.1 86.15Q172.45 79.05 174.5 73.4L174.45 73.25Q173.8 71.8 173.8 70.25Q173.75 67.8 174.95 65.75Q175.45 65.35 176 65.25M177.5,74.1Q177.9 129.4 175.55 185.8L172.65 248.05Q218.05 240.2 240.2 200Q266.95 158.7 243.2 115.6Q221.65 76.45 177.5 74.1M105.45,66.5Q109 95.55 107.65 125.8Q105 185.35 103.75 245Q102.5 304.5 102.95 364.2Q103.35 414.25 98.2 463.2Q91.5 458.3 92.5 445.9Q92.65 443.6 91.9 441.3Q91.85 441.1 92.25 440.7Q92.95 442.4 94.25 442.6L94.25 442.2Q96 383.1 97.05 323.75L99.35 204.5Q100.55 145 100.75 85.25Q100.8 73.95 105.45 66.5" />
</g>
</svg>
