<?xml version="1.0" encoding="utf-8"?>
<svg version="1.1" id="Layer_1"
xmlns="http://www.w3.org/2000/svg"
xmlns:xlink="http://www.w3.org/1999/xlink"


xml:space="preserve">
q22.15 -3.15 39.9 7.8q-25.1 -5.9 -51.45 1q-9.8 2.55 -15.3 10.85q-15.65 23.5 -21.05 52.15q-8.7 45.85 -12.35 92.5q20.15 -4.05 41.45 -4.65q0.25 0 0.55 0.3q1 2.75 -0.1 5.45q-1.8 22.95 -3.3 46.1q-3.3 49.05 5.2 96.75q6.6 37.15 39.9 52.6q2.85 1.3 6.05 1.9q29.65 5.4 50 -13.05q3.2 -8.95 5.8 -18.4q0.7 -2.55 3 -3q2.35 15.45 -6.45 30.9q-14.25 24.95 -45.8 21.65q-41.6 -4.35 -53.9 -45.5q-13.8 -46.1 -11.55 -95.35q1.6 -35.25 4.65 -70.1q2.25 -22.1 5.5 -43.95q4.35 -29.25 12.25 -57.75q7.3 -26.55 30.8 -39.45q6.1 -3.3 12.7 -4.3q10.9 -2.6 23.05 -0.85q38.2 10.4 59 45.7q25 42.45 26.5 91.9q1.45 48.6 -6.95 96.05q-8.45 48 -32.95 90q-10.75 18.45 -22.25 36.5q-12.05 18.85 -30.25 31.15q-8.3 5.6 -17.15 2.9q-1.3 -1.85 -1.4 -4.25q-0.05 -2.15 0.7 -4.1q-1.85 -7.8 -1.5 -17.15q1.75 -48.5 4.85 -96.6q3.15 -48.2 1.2 -96.6q-1.35 -29.7 -0.25 -59.4q0.3 -7.1 1.85 -13.2q-0.55 -1.5 -0.4 -3.1q-17.8 -5.55 -36.65 -5.5q-1.2 45.05 1.2 90.9q2.6 48.25 3.55 96.6q0.95 48.5 -1.8 96.6q-2.75 46.75 -2.25 93.4q24.3 -5.05 38.55 -27.9q13.4 -21.6 26.15 -43.7q25.6 -44.4 32.8 -95.25q6.7 -47.05 2.35 -94.9q-4.4 -48.4 -34.55 -85.75q-10.6 -13.15 -24.85 -21.65q0.25 48.45 -0.8 96.6q-0.05 4.25 -2.35 7.35q-4.1 -7.55 -2.55 -18.35q2.55 -17.8 2.65 -35.9q0.25 -48.3 -0.6 -96.6q-0.85 -48.65 -0.95 -97.2q0 -25.9 3.25 -49.75q1 48.05 0.9 96.65<g id="176" transform="matrix(1, 0, 0, 1, -84.2, 0)">
<path style="fill:#000000;fill-opacity:1" d="M355.5,84.2Q377.65 81.05 395.4 92L396.05 92.55L396.2 93.15L396.4 94.4L396.45 95L396.4 96.2L396.25 96.85Q371.15 90.95 344.8 97.85Q335 100.4 329.5 108.7Q313.85 132.2 308.45 160.85Q299.75 206.7 296.1 253.35Q316.25 249.3 337.55 248.7L346.75 249.2Q347 249.2 347.3 249.5L347.65 250.15Q348.65 252.9 347.55 255.6L347.3 256.2L295.75 257.8Q293.95 280.75 292.45 303.9Q289.15 352.95 297.65 400.65Q304.25 437.8 337.55 453.25Q340.4 454.55 343.6 455.15Q373.25 460.55 393.6 442.1L396 436Q399.2 427.05 401.8 417.6Q402.5 415.05 404.8 414.6Q407.15 430.05 398.35 445.5Q384.1 470.45 352.55 467.15Q310.95 462.8 298.65 421.65Q284.85 375.55 287.1 326.3Q288.7 291.05 291.75 256.2L291.75 254.8L291.9 254.2L294.25 229.65Q296.5 207.55 299.75 185.7Q304.1 156.45 312 127.95Q319.3 101.4 342.8 88.5Q348.9 85.2 355.5 84.2M163.85,83.6Q174.75 81 186.9 82.75Q225.1 93.15 245.9 128.45Q270.9 170.9 272.4 220.35Q273.85 268.95 265.45 316.4Q257 364.4 232.5 406.4Q221.75 424.85 210.25 442.9Q198.2 461.75 180 474.05Q171.7 479.65 162.85 476.95Q161.55 475.1 161.45 472.7Q161.4 470.55 162.15 468.6Q160.3 460.8 160.65 451.45Q162.4 402.95 165.5 354.85Q168.65 306.65 166.7 258.25L162.55 161.7Q161.2 132 162.3 102.3Q162.6 95.2 164.15 89.1L163.65 89.1Q163.1 87.6 163.25 86L163.6 84.2L163.85 83.6M202.2,94.6Q184.4 89.05 165.55 89.1Q164.35 134.15 166.75 180Q169.35 228.25 170.3 276.6Q171.25 325.1 168.5 373.2Q165.75 419.95 166.25 466.6Q190.55 461.55 204.8 438.7Q218.2 417.1 230.95 395Q256.55 350.6 263.75 299.75Q270.45 252.7 266.1 204.85Q261.7 156.45 231.55 119.1Q220.95 105.95 206.7 97.45L205.5 96.35L205.45 96.2L203.4 95.8L202.4 94.8L202.2 94.6M92.4,176.95L92.4 274.15L92.85 371.4Q93.1 419.85 92.05 468Q92 472.25 89.7 475.35Q85.6 467.8 87.15 457Q89.7 439.2 89.8 421.1Q90.05 372.8 89.2 324.5Q88.35 275.85 88.25 227.3L88.25 130.05Q88.25 104.15 91.5 80.3Q92.5 128.35 92.4 176.95" />
</g>
</svg>
