<?xml version="1.0" encoding="utf-8"?>
<svg version="1.1" id="Layer_1"
xmlns="http://www.w3.org/2000/svg"
xmlns:xlink="http://www.w3.org/1999/xlink"


xml:space="preserve">
q-4.25 -30.15 -37.75 -26.6q-10.8 4.9 -18.55 14.05q-35.1 41.55 -39.8 96.05q-5.05 58.7 -4.4 117.9q0.45 40.15 21.8 73.15q7.2 11.15 20.95 6.5q35.35 -11.95 64.5 -35.7q1.4 -2.4 1.8 -5.2q0.9 -6.05 -3.1 -10.2q-0.45 -0.45 -1.2 -0.6q-24.5 20.9 -53.85 34.55q-20.3 9.35 -29.2 -8.75q-14.7 -29.9 -15.5 -63.75q-0.45 -18.45 -0.4 -36.75q0.05 -13.1 0.85 -26.05q28.65 2.7 55.35 -8.7q2.75 -6.45 -1.2 -11.95q-26.15 9.6 -53.9 12.3q3.05 -37 12.45 -72.65q10.05 -38.2 41.95 -59.9q9.75 -0.15 18.9 2.2q13.4 3.4 19.35 15.3q0.85 -2.25 0.5 -4.4q-2.75 59.25 -6.4 118.55q-3.65 59.35 -9.25 118.45q-1.55 16.85 3.9 29.3q3.6 -7.9 3.9 -17.25q1.3 -43.2 3.65 -86.35q6 -16.65 14.4 -32.45q10.8 -20.25 22.2 -40.3q13.75 38 26.45 76.3q9.65 34.4 17.9 69.7q3.6 15.6 12.55 26.6q4.65 -4.2 2.55 -10.25q-12 -35.15 -21.8 -71.25q-14.55 -53.5 -36.4 -104.5q16.1 -28.1 33.5 -55.75q15.45 -24.65 31.3 -48.9q9.65 -14.75 5.35 -27.05q-23.9 41.1 -50 82.45q-31.75 50.3 -59.5 102.1q1.9 -29.6 5.2 -59.05q6.55 -59.45 1.1 -118.65q-1.45 -0.1 -1.55 1.5q-1.4 22.75 -2.45 45.65q-2.65 22.6 -3.25 47.2q-1.4 59.3 -2.35 119.25q-0.9 59.6 -4.45 119.15q-1 16.55 4.05 29.8q0.9 -0.6 0.95 -1.3q3.35 -38.05 4.4 -76.4q0.85 -29.7 0.9 -59.25q0.1 -59.95 3.75 -119.25q1.85 -30.65 -3.5 -59.25<g id="183" transform="matrix(1, 0, 0, 1, -98.9, 0)">
<path style="fill:#000000;fill-opacity:1" d="M395.2,131.5Q389.25 119.6 375.85 116.2Q366.7 113.85 356.95 114Q325.05 135.7 315 173.9Q305.6 209.55 302.55 246.55Q330.3 243.85 356.45 234.25Q360.4 239.75 357.65 246.2L357.2 247Q330.5 258.4 301.85 255.7Q301.05 268.65 301 281.75Q300.95 300.05 301.4 318.5Q302.2 352.35 316.9 382.25Q325.8 400.35 346.1 391Q375.45 377.35 399.95 356.45Q400.7 356.6 401.15 357.05Q405.15 361.2 404.25 367.25Q403.85 370.05 402.45 372.45Q373.3 396.2 337.95 408.15Q324.2 412.8 317 401.65Q295.65 368.65 295.2 328.5Q294.55 269.3 299.6 210.6Q304.3 156.1 339.4 114.55Q347.15 105.4 357.95 100.5Q391.45 96.95 395.7 127.1Q396.05 129.25 395.2 131.5M186.65,99.5Q186.75 97.9 188.2 98Q193.65 157.2 187.1 216.65Q183.8 246.1 181.9 275.7L181.45 283.05Q209.2 231.25 240.95 180.95Q267.05 139.6 290.95 98.5Q295.25 110.8 285.6 125.55Q269.75 149.8 254.3 174.45Q236.9 202.1 220.8 230.2Q242.65 281.2 257.2 334.7Q267 370.8 279 405.95Q281.1 412 276.45 416.2Q267.5 405.2 263.9 389.6Q255.65 354.3 246 319.9L243.75 312.55Q231.05 274.25 217.3 236.25Q205.9 256.3 195.1 276.55Q186.7 292.35 180.7 309L180 307.85Q177.65 351 176.35 394.2Q176.05 403.55 172.45 411.45Q167 399 168.55 382.15Q174.15 323.05 177.8 263.7Q181.45 204.4 184.2 145.15Q185.25 122.25 186.65 99.5M110.45,95.75Q115.8 124.35 113.95 155Q110.3 214.3 110.2 274.25Q110.15 303.8 109.3 333.5Q108.25 371.85 104.9 409.9Q104.85 410.6 103.95 411.2Q98.9 397.95 99.9 381.4Q103.45 321.85 104.35 262.25Q105.3 202.3 106.7 143Q107.3 118.4 109.95 95.8L110.45 95.75" />
</g>
</svg>
