<?xml version="1.0" encoding="utf-8"?>
<svg version="1.1" id="Layer_1"
xmlns="http://www.w3.org/2000/svg"
xmlns:xlink="http://www.w3.org/1999/xlink"


xml:space="preserve">
q27.75 57.4 -1.8 115.15q-4.15 8.05 -11.6 13.05q-12.65 8.4 -28.5 10.85q1.55 -23.2 2.45 -46.5q2.1 -53.2 4.7 -105.15q19.7 -3.6 34.15 11.15q-0.6 -22.75 -12.75 -41.5q-12.6 -19.45 -34.7 -19.25q-1.75 4.9 -2.55 9.85q-8.35 52.95 -9.35 107.05q-0.45 24.05 -2.15 48.1q-2.55 2.9 -2.7 7.2q-3.3 81.35 -18.3 161.95q-2.9 15.45 3.55 29.55q2.6 -3 3.15 -7q12.2 -89.85 19.75 -180.35q5.35 31.4 14.15 62.35q22.6 79.5 55.5 154.9q2.35 -3.35 2.4 -7.6q0.1 -17.45 -8.65 -34.05q-15.2 -28.75 -23.65 -60.05q-15.9 -58.85 -36.25 -116.1q7.3 -4.45 13.15 -10.7q16.55 -17.75 22.65 -41.3q1.9 -7.35 2.8 -14.95q2.55 -21.15 1.95 -42.35q-28.95 5.25 -31.6 34.7q-4.9 54.95 5.15 108.6q2.25 12.15 10.7 20.4q13.25 12.9 27.65 2.8q24.6 -17.3 17.5 -40.7q-1.65 7.2 -5.1 13.85q-9.7 18.7 -29.6 17.05q-4.1 -0.3 -6.15 -3.7q-16.35 -27.8 -19.9 -61.3q-4.5 -43.35 4.75 -84.85q13.65 -16.35 34.75 -12.5q0.4 -0.4 0.4 -0.8q1.4 -18.3 -17.65 -17.7q-14.05 -3 -28.65 -1.85q-2.8 14.5 -6.9 28.55q-4.85 16.75 0.6 28.75q2.75 -7.7 4.15 -15.8q3.9 -22.85 8.1 -45.7q4.65 33.7 10.85 66.75q2.7 -21.1 -1.5 -44.25q-2.25 -12.5 -4.2 -25q0.7 -2.45 -0.7 -4.75q-6.5 -43.3 -9.35 -87q26.85 23.4 36.6 56.5q16.95 57.6 6.55 116.9q-6.4 36.7 -23.9 69.25q-22 40.9 -60 65.85q-3.7 2.4 -7.85 2.75q-48.75 3.95 -84.15 -31.55q-7.7 -7.7 -13.5 -16.7q-22.4 -34.6 -22.3 -77.05q0.2 -59.65 10.8 -117.6q10.6 -57.8 60.75 -89.4q4.5 -0.9 8.75 -2.5q33.25 -2.15 58.75 15.75q1.4 -1.9 1.5 -4.25q0.05 -1.95 -0.5 -3.75q1 -0.5 2.25 -0.6q13 7.5 24 17.05q-33.35 -39.25 -85.2 -41.9q-41.5 5.7 -66.9 39.6q-15.55 20.8 -22.6 45.65q-13.25 46.65 -15.5 95.45q-2.25 49 5.4 96.7q1.65 10.05 6.35 18.95q24.8 46.95 74.7 68.1q28.85 12.25 53.1 -5.35q59.55 -43.2 76.9 -113.7q13.75 -55.95 8.3 -114.45q-3.15 -33.9 -17.75 -63.7q-6.75 -13.55 -16.8 -25.35<g id="37" transform="matrix(1, 0, 0, 1, -17.2, 0)">
<path style="fill:#000000;fill-opacity:1" d="M350.7,115Q336.25 100.25 316.55 103.85Q313.95 155.8 311.85 209Q310.95 232.3 309.4 255.5Q325.25 253.05 337.9 244.65Q345.35 239.65 349.5 231.6Q379.05 173.85 351.3 116.45L350.7 115M368,197.95Q367.1 205.55 365.2 212.9Q359.1 236.45 342.55 254.2Q336.7 260.45 329.4 264.9Q349.75 322.15 365.65 381Q374.1 412.3 389.3 441.05Q398.05 457.65 397.95 475.1Q397.9 479.35 395.55 482.7Q362.65 407.3 340.05 327.8Q331.25 296.85 325.9 265.45L308.6 267.6Q301.05 358.1 288.85 447.95Q288.3 451.95 285.7 454.95Q279.25 440.85 282.15 425.4Q297.15 344.8 300.45 263.45Q300.6 259.15 303.15 256.25Q304.85 232.2 305.3 208.15Q306.3 154.05 314.65 101.1Q315.45 96.15 317.2 91.25L317 95.5L322.5 94.85Q344.6 94.65 357.2 114.1Q369.35 132.85 369.95 155.6Q370.55 176.8 368 197.95M432.6,284.45Q432.6 284.85 432.2 285.25L430.9 284.2L425.95 276.5Q404.85 272.65 391.2 289Q381.95 330.5 386.45 373.85Q390 407.35 406.35 435.15Q408.4 438.55 412.5 438.85Q432.4 440.5 442.1 421.8Q445.55 415.15 447.2 407.95Q454.3 431.35 429.7 448.65Q415.3 458.75 402.05 445.85Q393.6 437.6 391.35 425.45L388.5 410.05Q378.45 356.4 383.35 301.45Q386 272 414.95 266.75Q434 266.15 432.6 284.45M386.2,359.45L386.95 352.7L399.3 351.1Q413.9 349.95 427.95 352.95L428.2 362.7L386.7 360.95L386.2 359.45M280.2,94.75L280.8 100.3L281.2 97.75Q284.05 141.45 290.55 184.75Q291.95 187.05 291.25 189.5Q293.2 202 295.45 214.5Q299.65 237.65 296.95 258.75Q290.75 225.7 286.1 192L265.95 193.75Q261.75 216.6 257.85 239.45Q256.45 247.55 253.7 255.25Q248.25 243.25 253.1 226.5Q257.2 212.45 260 197.95L279.65 95.1L280.2 94.75M168.45,109.75Q167.2 109.85 166.2 110.35L166.45 110.75Q167 112.55 166.95 114.5Q166.85 116.85 165.45 118.75Q139.95 100.85 106.7 103Q102.45 104.6 97.95 105.5L95.45 105.75Q45.3 137.35 34.7 195.15Q24.1 253.1 23.9 312.75Q23.8 355.2 46.2 389.8Q52 398.8 59.7 406.5Q95.1 442 143.85 438.05Q148 437.7 151.7 435.3Q189.7 410.35 211.7 369.45Q229.2 336.9 235.6 300.2Q246 240.9 229.05 183.3Q219.3 150.2 192.45 126.8Q181.45 117.25 168.45 109.75M226.45,153.25Q241.05 183.05 244.2 216.95Q249.65 275.45 235.9 331.4Q218.55 401.9 159 445.1Q134.75 462.7 105.9 450.45Q56 429.3 31.2 382.35Q26.5 373.45 24.85 363.4Q17.2 315.7 19.45 266.7Q21.7 217.9 34.95 171.25Q42 146.4 57.55 125.6Q82.95 91.7 124.45 86Q176.3 88.65 209.65 127.9Q219.7 139.7 226.45 153.25M279.1,124.9L267.1 187.3L285.05 184.3L279.1 124.9" />
</g>
</svg>
