<?xml version="1.0" encoding="utf-8"?>
<svg version="1.1" id="Layer_1"
xmlns="http://www.w3.org/2000/svg"
xmlns:xlink="http://www.w3.org/1999/xlink"


xml:space="preserve">
q-3.8 20.25 -4.55 41.2q-20.8 -0.15 -40.05 2.7q0.85 -45.75 -1.55 -91.15q-1.8 7.2 -1.9 15.75q-0.4 59.05 -5.3 118.3q-2.5 30.7 1.2 58.65q5.15 -36.1 6.7 -74.15q19.2 4.35 39.85 1.05q-0.55 16.7 5.2 29.25q1.95 -34.95 3.05 -71.25q0.8 -1.15 1 -2.55q0.5 -2.95 -0.8 -5.55q1.1 -46.25 1 -91.95q-1 -0.25 -1.15 0.75q-3 -25.85 -27.55 -16q-19.25 7.65 -24.85 28.3q-5.7 21 6.7 38.7q12.55 17.3 16.1 38.4q4.25 25.3 -21.4 30.55q-21.15 4.3 -38 -9.95q-6.3 26.55 26.2 31.1q13.75 2.1 25.85 -4.45q10.9 -5.95 14.65 -18.3q4.95 -16.3 -0.3 -32.5q-11.75 -36.05 -35.85 -66.3q-21.25 -26.65 5.25 -48.9q13.2 -11.15 27.65 -1.75q3.55 2.35 6.05 5.75q19.9 11.8 19.2 35.25q-0.75 24.35 -24.25 30.35q-22.45 5.6 -39.7 -8.5q-17.45 -14.3 -12.75 -36.7q4.75 -22.5 27.4 -24.75q14.8 -1.6 29.45 2.1q-12.25 16.95 -14.1 38.25q-2 22.95 15.7 37.55q17.4 14.45 39.55 9.25q22.4 -5.35 30.15 -27.2q7.6 -21.55 -3.3 -41.75q-10.25 -19.05 -32.35 -24.9q-21.3 -5.6 -35.65 8.8<g id="54" transform="matrix(1, 0, 0, 1, -173.85, 0)">
<path style="fill:#000000;fill-opacity:1" d="M407.2,182.25Q407.3 227.95 406.2 274.2Q407.5 276.8 407 279.75Q406.8 281.15 406 282.3L405.5 300.7Q404.4 337 402.45 371.95Q396.7 359.4 397.25 342.7L399.4 283.9Q378.75 287.2 359.55 282.85L358.9 302.8Q357.35 340.85 352.2 376.95Q348.5 349 351 318.3Q355.9 259.05 356.3 200Q356.4 191.45 358.2 184.25Q360.6 229.65 359.75 275.4Q379 272.55 399.8 272.7L401.5 224.2Q402.25 203.25 406.05 183Q406.2 182 407.2 182.25M332.4,199.25Q317.95 189.85 304.75 201Q278.25 223.25 299.5 249.9Q323.6 280.15 335.35 316.2Q340.6 332.4 335.65 348.7Q331.9 361.05 321 367Q308.9 373.55 295.15 371.45Q262.65 366.9 268.95 340.35L272.45 347.2Q289.3 361.45 310.45 357.15Q336.1 351.9 331.85 326.6Q328.3 305.5 315.75 288.2L292.75 256Q280.35 238.3 286.05 217.3Q291.65 196.65 310.9 189Q335.45 179.15 338.45 205Q335.95 201.6 332.4 199.25M208.25,283.6Q185.6 285.85 180.85 308.35Q176.15 330.75 193.6 345.05Q210.85 359.15 233.3 353.55Q256.8 347.55 257.55 323.2Q258.25 299.75 238.35 287.95L237.7 285.7Q223.05 282 208.25 283.6M225.6,271.05Q247.7 276.9 257.95 295.95Q268.85 316.15 261.25 337.7Q253.5 359.55 231.1 364.9Q208.95 370.1 191.55 355.65Q173.85 341.05 175.85 318.1Q177.7 296.8 189.95 279.85Q204.3 265.45 225.6 271.05" />
</g>
</svg>
