<?xml version="1.0" encoding="utf-8"?>
<svg version="1.1" id="Layer_1"
xmlns="http://www.w3.org/2000/svg"
xmlns:xlink="http://www.w3.org/1999/xlink"


xml:space="preserve">
q-4.3 25.75 -5.55 52.3q-26.6 0.1 -51.75 6.45q-0.65 -28.5 0.45 -56.9q0.5 -13 -3.7 -22.05q-3.95 40.35 -2.65 82.75q0.85 30.2 -2.85 59.75q-2.1 16.85 4 29.5q5.7 -42.5 4.9 -86.6q25.2 2.5 51.4 -1.75q0.6 2.6 3 2q1.35 -1.6 1.6 -3.8q3.05 -25.25 4.8 -50.85q4.05 -59.4 2.35 -118.6q-0.75 0.1 -0.8 0.35q6.3 -7.1 0.65 -12.35q-29.6 33.05 -60.15 64.8q-3.45 3.6 -7.45 5.95q-5 2.95 -7.95 6.35q0.15 -37.9 0.8 -75.1q-7.65 40.85 -7.1 84.7q0.1 10.15 -1.45 20q-2.7 16.6 2.3 30q5.5 -6.7 5.5 -16.25q16.8 -14.55 32.25 -30.55q0.25 3.55 2.15 7.55q13.6 28.55 31.5 55.3q8.85 13.15 18.9 21.7q2.5 -4.6 -0.1 -8.75q-24.85 -39.7 -47.65 -80.85q18.85 -20.05 35.5 -42.35q27.35 -32.45 66.5 -15.75q1.55 -2.8 0.1 -5.35q-10.15 -17.85 -33.85 -13.65q-36.55 9.4 -47.25 44.4q-17.15 55.95 1.3 111.15q9.4 28.25 39.75 22.25q11.6 -2.3 22.3 -7.25q24.45 -11.25 24.9 -34.8q-8.45 4.55 -16.75 11.7q-21.45 18.6 -48.85 15.05q-5.9 -0.75 -8.8 -5.8q-28.6 -49.7 -8.55 -105.8q3.25 -9.1 9.2 -16.15q51.05 41.3 38.6 104.35q-2.95 14.9 -11.75 27.05q-17.35 24.1 -47.45 17.25q-23.95 -5.45 -32.35 -27.55q-6.8 -17.9 -10.05 -36.65q-10 -57.15 30.85 -95.55q17.75 -0.6 32.15 11.1q0.95 17.75 1.45 35.25q1.25 44.3 39.05 64.7q12.75 6.85 26.8 3.45q32.85 -7.9 42.75 -39.4q6.55 -20.9 7.65 -42.9q1.55 -31.2 -12.9 -57.85q-20.65 -38.1 -61.1 -51q-46.95 29.8 -43.7 87.75q4.35 12.4 7.15 25.1q3.6 16.25 11.75 27.15q1.55 -1.55 1.2 -3.65q-4.25 -27.15 -13.35 -53.85q3.15 -7.05 -2.2 -10.75q-11.1 -33.5 -20.55 -66.95q-17.75 38.6 -28.7 81.9q-3.65 14.45 -9.8 27.9q-7 15.35 -3.7 28.4q3.7 -4.85 5.6 -11.1q7.65 -25.05 15.65 -49.8q18.05 5.1 37.3 2.5q-8.5 0.45 -14.95 3.25q9.4 -28.95 19.25 -57.5q5.05 26.85 12.9 52.8q2.8 39.5 -2.2 78.6q-1.8 14.05 -11.65 23.5q-23.65 22.65 -45.2 -0.15q-5.7 -27.1 -4.5 -55.45q1.2 -28.65 0 -55.5q-4.45 4.95 -4.85 12.7q-2.6 48.85 3.3 96.6q3.75 30.1 35.8 27.65q15.2 -3.85 22.95 -17.7q14.5 -25.85 15.35 -55.55q0.9 -31.1 -7.3 -57.7q-1.85 0.95 -1.7 3<g id="57" transform="matrix(1, 0, 0, 1, -71.6, 0)">
<path style="fill:#000000;fill-opacity:1" d="M399.45,100.5Q401.15 159.7 397.1 219.1Q395.35 244.7 392.3 269.95Q392.05 272.15 390.7 273.75Q388.3 274.35 387.7 271.75L391.75 182.4Q365.55 186.65 340.35 184.15Q341.15 228.25 335.45 270.75Q329.35 258.1 331.45 241.25Q335.15 211.7 334.3 181.5Q333 139.1 336.95 98.75Q341.15 107.8 340.65 120.8Q339.55 149.2 340.2 177.7Q365.35 171.35 391.95 171.25L392.25 171.45L393.1 153.15Q394.35 126.6 398.65 100.85Q398.7 100.6 399.45 100.5M389.95,302.5L388.95 303.2L387.95 303.75Q371.3 326.05 352.45 346.1Q375.25 387.25 400.1 426.95Q402.7 431.1 400.2 435.7Q390.15 427.15 381.3 414Q363.4 387.25 349.8 358.7Q347.9 354.7 347.65 351.15Q332.2 367.15 315.4 381.7L315.45 409.95Q315.45 419.5 309.95 426.2Q304.95 412.8 307.65 396.2Q309.2 386.35 309.1 376.2Q308.55 332.35 316.2 291.5Q315.55 328.7 315.4 366.6Q318.35 363.2 323.35 360.25Q327.35 357.9 330.8 354.3Q361.35 322.55 390.95 289.5Q396.6 294.75 390.3 301.85L389.95 302.5M223,150.65Q202.95 206.75 231.55 256.45Q234.45 261.5 240.35 262.25Q267.75 265.8 289.2 247.2Q297.5 240.05 305.95 235.5Q305.5 259.05 281.05 270.3Q270.35 275.25 258.75 277.55Q228.4 283.55 219 255.3Q200.55 200.1 217.7 144.15Q228.4 109.15 264.95 99.75Q288.65 95.55 298.8 113.4Q300.25 115.95 298.7 118.75Q259.55 102.05 232.2 134.5Q226.25 141.55 223 150.65M112.45,110.25Q71.6 148.65 81.6 205.8Q84.85 224.55 91.65 242.45Q100.05 264.55 124 270Q154.1 276.85 171.45 252.75Q180.25 240.6 183.2 225.7Q195.65 162.65 144.6 121.35Q130.2 109.65 112.45 110.25M119.95,94.25Q160.4 107.15 181.05 145.25Q195.5 171.9 193.95 203.1Q192.85 225.1 186.3 246Q176.4 277.5 143.55 285.4Q129.5 288.8 116.75 281.95Q78.95 261.55 77.7 217.25Q77.2 199.75 76.25 182Q73 124.05 119.95 94.25M149.8,376.05Q130.55 378.65 112.5 373.55Q104.5 398.3 96.85 423.35Q94.95 429.6 91.25 434.45Q87.95 421.4 94.95 406.05Q101.1 392.6 104.75 378.15Q115.7 334.85 133.45 296.25Q142.9 329.7 154 363.2L160.95 361.95Q166.3 365.65 163.15 372.7L162.7 373.45L157.85 374.65L159.55 379.7Q168.65 406.4 172.9 433.55Q173.25 435.65 171.7 437.2Q163.55 426.3 159.95 410.05Q157.15 397.35 152.8 384.95L149.8 376.05M146.1,364.3Q138.25 338.35 133.2 311.5Q123.35 340.05 113.95 369Q120.4 366.2 128.9 365.75L146.1 364.3M267.45,297Q275.65 323.6 274.75 354.7Q273.9 384.4 259.4 410.25Q251.65 424.1 236.45 427.95Q204.4 430.4 200.65 400.3Q194.75 352.55 197.35 303.7Q197.75 295.95 202.2 291Q203.4 317.85 202.2 346.5Q201 374.85 206.7 401.95Q228.25 424.75 251.9 402.1Q261.75 392.65 263.55 378.6Q268.55 339.5 265.75 300Q265.6 297.95 267.45 297" />
</g>
</svg>
