<?xml version="1.0" encoding="utf-8"?>
<svg version="1.1" id="Layer_1"
xmlns="http://www.w3.org/2000/svg"
xmlns:xlink="http://www.w3.org/1999/xlink"


xml:space="preserve">
q3.85 141.85 -8.6 282.75q-2.65 29.6 7.5 53.85q45.05 -14.65 75.3 -51.65q3.55 -6.2 6.5 -12.75q3.7 -8.25 6.4 -17q2.2 -7.1 3.6 -14.3q4.25 -22.1 4.2 -44.65q-0.1 -61.2 -31.65 -112.9q-7.45 -12.2 -18.3 -21.5q-15 -12.75 -33.65 -19.35q-9.2 -3.25 -18.5 -4.95q-1.2 -0.75 -2.1 -0.25q-0.3 0.05 -0.3 0.65q37.35 50.3 36.05 113.8q-0.8 39.2 -21.4 71.55q-9.9 15.55 -22.3 29.15q-23.75 25.95 -57.35 35q7.1 -45.7 7.3 -92.95q0.25 -44.65 1.8 -89.2q1.85 -53.65 -3.75 -105.7q37.05 7.85 59.65 38.35q2.6 36.9 -2.5 73.25q-2 14.35 5.05 22q3.45 -11.6 3.85 -24.75q1.85 -60 -1.85 -118.5q-6.4 21.8 -4.55 48q16.15 -32.35 48.7 -46.75q8.15 3.95 16.65 7.05q7.65 2.8 14.05 7.8q13.4 10.5 22.5 24.9q17.8 28 23.85 60.15q11.05 58.95 -0.95 117.65q-12.75 62.35 -71.8 87.15q-6.8 2.85 -13.8 0.9q-33.15 -9.2 -45.35 -41.3q-11.65 -30.75 -16.8 -63.1q-9.4 -59.35 2.85 -118.2q4.7 -22.4 14.85 -42.75q-14.35 57.7 -9.75 117.1q2.3 29.9 5.95 59.5q5.9 48.3 42.6 79q4.8 4 10.9 5.55q30.9 7.95 56.4 -14.75q40.8 -36.4 49.2 -91.45q9 -59 -1 -117.7q-7.6 -44.65 -34.4 -82.25q-21.25 -29.75 -59.6 -32.85q-47.45 26 -60.3 77.85q-14.35 -7.95 -29.55 -5.55q-0.9 0.1 -1.7 0.55q-2.1 60.8 -7.1 122.4q-0.9 10.9 -2.4 21.8q-1.15 7.4 5.1 17.4q40.95 0.9 57.45 -36.15q4.15 -9.25 6.55 -19.2q1.45 -6.1 2.25 -12.4q1.15 -9 1.15 -17.95q-0.1 -29.35 -18.6 -51.35q-5.9 -7 -13.6 -12q-5 21.75 -23.6 34.8q-14.2 10.05 -31.5 11.75q7.05 -63.9 6.15 -128.25q36.55 6.45 47.2 41.3q6.1 20.1 1.75 40.4<g id="50" transform="matrix(1, 0, 0, 1, -47.3, 0)">
<path style="fill:#000000;fill-opacity:1" d="M333.85,106.6Q334.75 106.1 335.95 106.85Q345.25 108.55 354.45 111.8Q373.1 118.4 388.1 131.15Q398.95 140.45 406.4 152.65Q437.95 204.35 438.05 265.55Q438.1 288.1 433.85 310.2Q432.45 317.4 430.25 324.5Q427.55 333.25 423.85 341.5Q420.9 348.05 417.35 354.25L413.7 360.4L411.75 363.45L409.7 366.4L407.55 369.3L403 375.05Q372.75 412.05 327.7 426.7L328.35 433.4Q318.2 409.15 320.85 379.55L324.2 400.7Q336.65 259.8 332.8 117.95L331.3 116.9L331.9 108.05L333.55 107.25Q333.55 106.65 333.85 106.6M336,118.6Q341.6 170.65 339.75 224.3Q338.2 268.85 337.95 313.5Q337.75 360.75 330.65 406.45Q364.25 397.4 388 371.45Q400.4 357.85 410.3 342.3Q430.9 309.95 431.7 270.75Q433 207.25 395.65 156.95Q373.05 126.45 336 118.6M263.45,108Q267.15 166.5 265.3 226.5Q264.9 239.65 261.45 251.25Q254.4 243.6 256.4 229.25Q261.5 192.9 258.9 156Q257.05 129.8 263.45 108M62.4,197.75Q50.15 256.6 59.55 315.95Q64.7 348.3 76.35 379.05Q88.55 411.15 121.7 420.35Q128.7 422.3 135.5 419.45Q194.55 394.65 207.3 332.3Q219.3 273.6 208.25 214.65Q202.2 182.5 184.4 154.5Q175.3 140.1 161.9 129.6Q155.5 124.6 147.85 121.8Q139.35 118.7 131.2 114.75L130.8 113.95L130.05 111.7L129.45 109.5L129.4 109.2L126.45 108.3L125.95 108.25Q93.4 122.65 77.25 155Q67.1 175.35 62.4 197.75M121.95,95.75Q160.3 98.85 181.55 128.6Q208.35 166.2 215.95 210.85Q225.95 269.55 216.95 328.55Q208.55 383.6 167.75 420Q142.25 442.7 111.35 434.75Q105.25 433.2 100.45 429.2Q63.75 398.5 57.85 350.2Q54.2 320.6 51.9 290.7Q47.3 231.3 61.65 173.6Q74.5 121.75 121.95 95.75M279.8,287.75Q298.3 309.75 298.4 339.1Q298.4 348.05 297.25 357.05Q296.45 363.35 295 369.45Q292.6 379.4 288.45 388.65Q271.95 425.7 231 424.8L229.7 430.7L228.4 428.8Q222.15 418.8 223.3 411.4L225.45 414.95Q226.95 404.05 227.85 393.15Q232.85 331.55 234.95 270.75Q235.75 270.3 236.65 270.2Q251.85 267.8 266.2 275.75Q273.9 280.75 279.8 287.75M287.2,321.6Q276.55 286.75 240 280.3Q240.9 344.65 233.85 408.55Q251.15 406.85 265.35 396.8Q283.95 383.75 288.95 362Q293.3 341.7 287.2 321.6" />
</g>
</svg>
