<?xml version="1.0" encoding="utf-8"?>
<svg version="1.1" id="Layer_1"
xmlns="http://www.w3.org/2000/svg"
xmlns:xlink="http://www.w3.org/1999/xlink"


xml:space="preserve">
q-9.8 11.5 -17.45 24.8q-27.05 46.95 -50.65 95.55q-19.8 -56.4 -50.6 -106.6q-6.7 4.3 -2.25 12.25q27.1 51.7 45.2 108.35q-25.2 52.85 -56.4 102.1q-6.8 8.9 -12.5 17.5q0.05 3.7 -1.1 7.15q-8.95 8.7 -1.75 18.75q7.8 -1.3 9.75 -9.25q32.15 -49.5 57.1 -103q2.55 6.6 5.55 13.05q25.2 53.95 41.9 106.85q2 6.45 6.85 10.75q3.8 -2.75 2.75 -7.8q-6 -28.15 -18.2 -54.55q-18.15 -39.35 -33.55 -80q21.65 -44.75 47.05 -87.9q5.6 -9.55 12.5 -18.15q10.7 -13.35 6.95 -27.3q-1.75 -0.3 -2.9 1.05q-10.6 -8.5 -24.15 -9.3q-6.35 1.05 -12.4 4.35q-29.85 16.45 -42.75 48.55q-22.65 56.3 -24.2 116.85q-0.35 14.85 0.75 29.35q3.55 46 40.1 75.15q33.35 26.55 66.15 -1.55q49.1 -42 58.8 -107.15q8.7 -58.8 -18.75 -111.15q-6.45 -12.3 -14.55 -23.9q-10.8 -15.45 -26.15 -23.25q5.35 2 9.6 5.6q0.55 0.1 1.05 0.5q27.15 23.45 41.85 56.85q24.85 56.6 2.7 114.4q-17.6 45.85 -60.05 69.3q-13.4 7.35 -28.15 1.85q-42.6 -15.9 -51.05 -60q-5 -26.1 -2.6 -53q3.85 -44.15 18.75 -86.8q15 -43 57.3 -53.85q2.55 -0.45 4.9 0.4<g id="52" transform="matrix(1, 0, 0, 1, -84.25, 0)">
<path style="fill:#000000;fill-opacity:1" d="M392.45,125Q396.2 138.95 385.5 152.3Q378.6 160.9 373 170.45Q347.6 213.6 325.95 258.35Q341.35 299 359.5 338.35Q371.7 364.75 377.7 392.9Q378.75 397.95 374.95 400.7Q370.1 396.4 368.1 389.95L367.45 390.7Q350.75 337.8 325.55 283.85Q322.55 277.4 320 270.8L317.9 275.2Q292.95 328.7 260.8 378.2L252.2 391.2Q250.25 399.15 242.45 400.45Q235.25 390.4 244.2 381.7Q245.35 378.25 245.3 374.55L247.6 372.4L246.8 376.75L246.7 378.2Q252.4 369.6 259.2 360.7Q290.4 311.45 315.6 258.6L314.9 256.45Q296.8 199.8 269.7 148.1L262.2 134.25Q257.75 126.3 264.45 122Q295.25 172.2 315.05 228.6L321.45 246.4Q345.05 197.8 372.1 150.85Q379.75 137.55 389.55 126.05Q390.7 124.7 392.45 125M190.95,122.5Q206.3 130.3 217.1 145.75Q225.2 157.35 231.65 169.65Q259.1 222 250.4 280.8Q240.7 345.95 191.6 387.95Q158.8 416.05 125.45 389.5Q88.9 360.35 85.35 314.35Q84.25 299.85 84.6 285Q86.15 224.45 108.8 168.15Q121.7 136.05 151.55 119.6Q157.6 116.3 163.95 115.25Q177.5 116.05 188.1 124.55L188.7 124.75L189.25 124L190 123.25L190.95 122.5M168.95,128.75Q126.65 139.6 111.65 182.6Q96.75 225.25 92.9 269.4Q90.5 296.3 95.5 322.4Q103.95 366.5 146.55 382.4Q161.3 387.9 174.7 380.55Q217.15 357.1 234.75 311.25Q256.9 253.45 232.05 196.85Q217.35 163.45 190.2 140L189.8 139.2L187.95 135.5Q187.45 135.1 186.9 135L183.45 134.75Q179.2 131.15 173.85 129.15Q171.5 128.3 168.95 128.75" />
</g>
</svg>
