<?xml version="1.0" encoding="utf-8"?>
<svg version="1.1" id="Layer_1"
xmlns="http://www.w3.org/2000/svg"
xmlns:xlink="http://www.w3.org/1999/xlink"


xml:space="preserve">
q-6.75 74.65 -2 149.35q0.45 7.2 1.3 14.45q7 -53.9 4.1 -108.2q-1.45 -27.8 -2.45 -55.6q3.6 -5.15 0.85 -11q-7.3 8.9 -0.6 16.95q6.85 -9.2 0.35 -16.65q3.4 34.7 -13.4 60.45q-4.4 6.8 -13.35 7.5q-7.2 0.25 -8.3 -6.35q4.35 37.1 31.7 11.5q4.75 -4.45 6.3 -11.8q5.6 -26.15 1.9 -52.7q8.5 7.75 18.8 12.85q2.8 1.4 5.2 3.4q29.8 7.15 51.9 -12.1q25.95 -22.7 13.7 -54.05q-15.95 -40.8 -61.1 -36.85q-18.9 6.65 -27.25 25q-14.1 30.85 -1.25 61.75q20.8 13.1 18.2 35.55q-1.25 10.95 -8.85 19.4q-14.75 16.5 -37.05 16.35q-23.1 -0.2 -35.1 -19.55q-11.65 -18.65 -1.6 -39.25q10.05 -20.55 32.9 -23.8q16.35 -2 30.5 5.3<g id="53" transform="matrix(1, 0, 0, 1, -146.65, 0)">
<path style="fill:#000000;fill-opacity:1" d="M392.3,189.25Q395.05 195.1 391.45 200.25L323.6 202.9Q324.6 230.7 326.05 258.5Q328.95 312.8 321.95 366.7Q321.1 359.45 320.65 352.25Q315.9 277.55 322.65 202.9L259.7 200.75L259.7 193.25L391.45 187.75L392.3 189.25M383.95,235Q390.45 242.45 383.6 251.65L382.95 252.25Q376.25 244.2 383.55 235.3L383.95 235M384.85,284.95Q388.55 311.5 382.95 337.65Q381.4 345 376.65 349.45Q349.3 375.05 344.95 337.95L348.45 339.2L349.15 342.05Q350.25 348.65 357.45 348.4Q366.4 347.7 370.8 340.9Q387.6 315.15 384.2 280.45L384.85 284.95M160.75,294.7Q169.1 276.35 188 269.7Q233.15 265.75 249.1 306.55Q261.35 337.9 235.4 360.6Q213.3 379.85 183.5 372.7Q181.1 370.7 178.3 369.3Q168 364.2 159.5 356.45Q146.65 325.55 160.75 294.7M225.2,284.7Q211.05 277.4 194.7 279.4Q171.85 282.65 161.8 303.2Q151.75 323.8 163.4 342.45Q175.4 361.8 198.5 362Q220.8 362.15 235.55 345.65Q243.15 337.2 244.4 326.25Q247 303.8 226.2 290.7L225.2 284.7" />
</g>
</svg>
