<?xml version="1.0" encoding="utf-8"?>
<svg version="1.1" id="Layer_1"
xmlns="http://www.w3.org/2000/svg"
xmlns:xlink="http://www.w3.org/1999/xlink"


xml:space="preserve">
q5.35 -9.15 4.05 -19.7q-31.15 42.05 -61.9 84.4q-11.95 16.5 -26.2 30.95q6.55 -59.3 1 -118.55q-0.05 -0.8 -0.9 -1.55q-1.35 45 -6.55 90.3q-5.4 46.95 -4.65 93.55q0.1 5 2.7 9.6q11.65 38.95 26.05 76.7q5.15 13.45 12.3 26.15q5.65 -8.8 1.2 -20.7q-16.7 -44.45 -34.5 -88.85q13.8 -16.75 24.65 -35.4q1.65 35.45 -3.55 69.75q-35.75 26.3 -68.95 0.75q-8.3 -26.55 -2.1 -54.55q3.05 -13.9 -1.15 -23.95q-0.85 0.3 -1.1 1.4q-6.2 24.55 -6.9 50.85q-0.5 17.05 7.25 31.45q15.05 28.15 49.25 20.55q36.65 -8.15 34.05 -45.25q-1.05 -14.6 0 -29.1q1.05 -14.25 -6.1 -23.4q-0.75 0.75 -0.7 1.5<g id="75" transform="matrix(1, 0, 0, 1, -170.5, 0)">
<path style="fill:#000000;fill-opacity:1" d="M365.5,238.1L347.15 263.4Q364.95 307.8 381.65 352.25Q386.1 364.15 380.45 372.95Q373.3 360.25 368.15 346.8Q353.75 309.05 342.1 270.1L304 317.65L297.7 371.7Q295.1 367.1 295 362.1Q294.25 315.5 299.65 268.55Q304.85 223.25 306.2 178.25Q307.05 179 307.1 179.8Q312.65 239.05 306.1 298.35Q320.35 283.9 332.3 267.4Q363.05 225.05 394.2 183Q395.5 193.55 390.15 202.7Q379.3 221.35 365.5 238.1M255.45,273.7Q262.6 282.85 261.55 297.1Q260.5 311.6 261.55 326.2Q264.15 363.3 227.5 371.45Q193.3 379.05 178.25 350.9Q170.5 336.5 171 319.45Q171.7 293.15 177.9 268.6Q178.15 267.5 179 267.2Q183.2 277.25 180.15 291.15Q173.95 319.15 182.25 345.7Q215.45 371.25 251.2 344.95Q256.4 310.65 254.75 275.2Q254.7 274.45 255.45 273.7" />
</g>
</svg>
