<?xml version="1.0" encoding="utf-8"?>
<svg version="1.1" id="Layer_1"
xmlns="http://www.w3.org/2000/svg"
xmlns:xlink="http://www.w3.org/1999/xlink"


xml:space="preserve">
q-41.45 4.2 -80.3 -5.4q-3.55 3.95 -2.65 10.65q7.95 58.85 -0.1 118.2q-4.1 30.5 -1 59.35q0.9 -0.35 1 -0.85q5.9 -34.4 9.1 -69.5q0.85 -9.35 1.3 -18.65q22.55 1.55 44.6 0.25q3 -6.3 -0.3 -12.6q-0.35 -0.4 -0.8 -0.55q0.7 -37.8 -5.45 -74.75q36.9 9.8 76.85 6q1.05 -0.75 1.5 -2q-0.15 -2.45 -1.4 -4.5q-0.35 -0.4 -0.7 -0.35q15.4 16.4 36.55 9.9q13.6 -4.1 21.35 -16.65q10.75 -17.5 12.9 -37.85q1.65 -16.05 -3.75 -31.15q-0.75 18.35 -4.05 36.4q-3.4 18.5 -16.35 30.5q-14.05 13.05 -32.25 7.75q-9.1 -2.6 -16.3 -8.65q-4.55 19.7 -8.45 40.4q-4.55 24.1 10.35 39.85<g id="64" transform="matrix(1, 0, 0, 1, -169.5, 0)">
<path style="fill:#000000;fill-opacity:1" d="M399.2,186.75Q400.45 188.8 400.6 191.25L400.6 194.2L400.5 195L400.4 195.7L400.15 197.2L399.95 198Q399.5 199.25 398.45 200Q358.5 203.8 321.6 194L319.75 193.4Q325.9 230.35 325.2 268.15L366.95 264L369.4 264.45Q369.85 264.6 370.2 265Q373.5 271.3 370.5 277.6L369.45 279.2Q347.4 280.5 324.85 278.95Q324.4 288.25 323.55 297.6Q320.35 332.7 314.45 367.1Q314.35 367.6 313.45 367.95Q310.35 339.1 314.45 308.6Q322.5 249.25 314.55 190.4Q313.65 183.7 317.2 179.75L317.5 181.1L317.5 181.05L318.2 181Q357.05 190.6 398.5 186.4Q398.85 186.35 399.2 186.75M174.05,308.1Q177.95 287.4 182.5 267.7L182.5 338.2Q189.7 344.25 198.8 346.85Q217 352.15 231.05 339.1Q244 327.1 247.4 308.6Q250.7 290.55 251.45 272.2Q256.85 287.3 255.2 303.35Q253.05 323.7 242.3 341.2Q234.55 353.75 220.95 357.85Q199.8 364.35 184.4 347.95Q169.5 332.2 174.05 308.1" />
</g>
</svg>
