<?xml version="1.0" encoding="utf-8"?>
<svg version="1.1" id="Layer_1"
xmlns="http://www.w3.org/2000/svg"
xmlns:xlink="http://www.w3.org/1999/xlink"


xml:space="preserve">
q-26.7 55.05 -43.95 113.4q-2.3 8.4 -2.95 16.4q-4.2 -27.7 -10.65 -55.55q-13.35 -57.95 -43.7 -108.7q-1 -0.15 -1.15 0.8q-2.1 14.05 7.4 25.45q12.65 25.1 20.45 52.65q15.4 54.5 28 108.3q0.9 -0.6 1.1 -1.4q4.9 -20.75 9.3 -41.6q12.15 -57.65 37.05 -111.25q3.25 -7 7.1 -13.45q7.1 -12 2.45 -21.25q-2.55 2.45 -4.45 6.25q5.55 39.45 -16 70.35q-20.65 7.05 -42.7 1.5q-4 -1 -6.9 -3.55q-15.65 -13.5 -9.4 -36.3q7.1 -26 4.75 -50.85q-11.3 35.95 -11.7 74.95q-0.15 16.3 14.2 24.15q11.5 6.35 24.8 8.3q28.5 4.1 40.25 -20.3q8.1 -16.95 9.7 -35.5q2.45 -28.5 -3.75 -54.85q-5.1 8.9 -3.25 22.1<g id="63" transform="matrix(1, 0, 0, 1, -168.15, 0)">
<path style="fill:#000000;fill-opacity:1" d="M408.95,180.25Q413.6 189.5 406.5 201.5Q402.65 207.95 399.4 214.95Q374.5 268.55 362.35 326.2Q357.95 347.05 353.05 367.8Q352.85 368.6 351.95 369.2L351.2 366.35L349.95 367.2Q337.35 313.4 321.95 258.9Q314.15 231.35 301.5 206.25Q292 194.85 294.1 180.8Q294.25 179.85 295.25 180Q325.6 230.75 338.95 288.7Q345.4 316.55 349.6 344.25Q350.25 336.25 352.55 327.85L360.55 299.9Q377.8 241.55 404.5 186.5Q406.4 182.7 408.95 180.25M253.5,265Q259.7 291.35 257.25 319.85Q255.65 338.4 247.55 355.35Q235.8 379.75 207.3 375.65Q194 373.7 182.5 367.35Q168.15 359.5 168.3 343.2Q168.7 304.2 180 268.25Q182.35 293.1 175.25 319.1Q169 341.9 184.65 355.4Q187.55 357.95 191.55 358.95Q213.6 364.5 234.25 357.45Q255.8 326.55 250.25 287.1Q248.4 273.9 253.5 265" />
</g>
</svg>
