<?xml version="1.0" encoding="utf-8"?>
<svg version="1.1" id="Layer_1"
xmlns="http://www.w3.org/2000/svg"
xmlns:xlink="http://www.w3.org/1999/xlink"


xml:space="preserve">
q-3.75 59.15 -2.1 119.35q0.8 29.7 0.95 59.2q0.15 32.45 23.75 50.05q2.7 2.05 6.05 1.7q38.6 -4.05 57.25 -39.5q7.6 -14.5 -1.9 -22.75q-1.05 1 -1.75 2.25q-1.15 2.65 -3 4.9q-7.2 11.7 -17.15 21.6q-18.05 17.9 -39.65 9.15q-4.35 -1.75 -5.75 -5.95q-12.5 -37.85 -13.15 -79q-0.4 -25.25 0.05 -50.35q23.25 -2.75 47.15 -1.15q3.65 -6.95 0.3 -14q-6.35 0.85 -11.6 2.8q0.75 -27.45 2.6 -54.7q2.15 -32.4 16.75 -61.05q13.65 -26.8 42.5 -25.9q5.7 0.15 10.2 3.4q9.6 6.85 17.3 12.85q0.9 -1.4 0.65 -2.9q-5.1 -30.6 -39.65 -28.85q-18.8 5.65 -29.8 22.5q-21.9 33.45 -24.45 73.9q-16.15 -50.6 -38.1 -97.95q36.45 -26.5 38.1 -72.05q1.9 -53.55 -37.4 -88.45q-10.4 -3.6 -21.65 -2.9q-0.95 0.3 -1.4 1.5q-1.05 2.9 -0.7 6q-4.55 18.5 -5.5 39.9q-2.7 59.3 -6.4 118.6q-3.7 59.05 -9.55 117.7q-5.75 22.05 2 42.5q1.75 0.1 1.95 -1.6q4.7 -39.75 6.85 -80.1q1.2 -22.25 2.55 -44.35q0.8 -13.15 1.75 -26.3q13.9 1.7 26.25 -6.05q4.05 13.65 9.05 27.15q20.3 55.2 38.65 111.25q5.25 16.05 14.45 26.25q1.15 -0.85 1.4 -2.25q2.65 -16.45 -6.4 -31.5q1.05 -3.15 0.5 -6q-0.85 1 -0.85 2.25q0 2.5 -1.15 3.75q-6.4 -17.65 -12.1 -35.5q-1 6 -1.55 12.05q-0.25 -4.45 -0.95 -8.85q-3.3 0.6 -4.2 4.25q-12.15 48.85 -27.4 96.55q-18.3 57.2 -30.85 115.3q-9.25 42.85 -22.35 84.9q-5.15 16.5 1.85 28.2q9.15 -28 15.55 -57.65q9.25 -43.2 20.85 -85.85q33.8 -6.05 68.2 -6.1q4.25 21.7 5.65 43.75q3.95 60.5 21.65 115.9q1.95 -0.1 2.45 -1.9q3.35 -11.8 -0.05 -23.7q-10.6 -37.4 -15.15 -76q-6.85 -58.55 -17.85 -116.5q-11 -57.95 -17.9 -116.1q3.7 53.55 15.7 106.25q2.8 12.2 5.15 24.6q-23.45 -0.35 -46.3 5q8.4 20.35 7.15 42.45q-1.2 21.1 -13.85 38.3q-12.65 17.35 -33 24.1q-7.65 2.6 -15.6 3.55q8.75 -72.35 7 -145.15q16.8 12.4 24.75 31.75<g id="91" transform="matrix(1, 0, 0, 1, -85.5, 0)">
<path style="fill:#000000;fill-opacity:1" d="M374.15,121.25Q385.15 104.4 403.95 98.75Q438.5 97 443.6 127.6Q443.85 129.1 442.95 130.5Q435.25 124.5 425.65 117.65Q421.15 114.4 415.45 114.25Q386.6 113.35 372.95 140.15Q358.35 168.8 356.2 201.2Q354.35 228.45 353.6 255.9Q358.85 253.95 365.2 253.1L378.95 251L398.95 251.65L400.45 251.75L401.5 253.35Q404.85 260.4 401.2 267.35L400.45 268.25Q376.55 266.65 353.3 269.4Q352.85 294.5 353.25 319.75Q353.9 360.9 366.4 398.75Q367.8 402.95 372.15 404.7Q393.75 413.45 411.8 395.55Q421.75 385.65 428.95 373.95L428.95 373.45L427.55 372.35L427.5 372.3Q429.35 370.05 430.5 367.4L430.95 367.45L431.2 366.95L431.5 366.25L431.95 365.45Q432.65 364.2 433.7 363.2Q443.2 371.45 435.6 385.95Q416.95 421.4 378.35 425.45Q375 425.8 372.3 423.75Q348.7 406.15 348.55 373.7Q348.4 344.2 347.6 314.5Q345.95 254.3 349.7 195.15Q352.25 154.7 374.15 121.25M339.95,395.45Q341.1 394.2 341.1 391.7Q341.1 390.45 341.95 389.45Q342.5 392.3 341.45 395.45L340.95 396.95Q350 412 347.35 428.45Q347.1 429.85 345.95 430.7Q336.75 420.5 331.5 404.45Q313.15 348.4 292.85 293.2Q287.85 279.7 283.8 266.05Q271.45 273.8 257.55 272.1Q256.6 285.25 255.8 298.4Q254.45 320.5 253.25 342.75Q251.1 383.1 246.4 422.85Q246.2 424.55 244.45 424.45Q236.7 404 242.45 381.95Q248.3 323.3 252 264.25Q255.7 204.95 258.4 145.65Q259.35 124.25 263.9 105.75L263.85 105.5Q263.5 102.4 264.55 99.5Q265 98.3 265.95 98Q277.2 97.3 287.6 100.9L290.45 101.5Q329.75 136.4 327.85 189.95Q326.2 235.5 289.75 262Q311.7 309.35 327.85 359.95Q333.55 377.8 339.95 395.45M178.45,91.75Q185.35 149.9 196.35 207.85Q207.35 265.8 214.2 324.35Q218.75 362.95 229.35 400.35Q232.75 412.25 229.4 424.05Q228.9 425.85 226.95 425.95Q209.25 370.55 205.3 310.05Q203.9 288 199.65 266.3L199.6 265.9L199.45 266Q165.05 266.05 131.25 272.1L128.9 280.7Q117.3 323.35 108.05 366.55Q101.65 396.2 92.5 424.2Q85.5 412.5 90.65 396Q103.75 353.95 113 311.1Q125.55 253 143.85 195.8Q159.1 148.1 171.25 99.25Q172.15 95.6 175.45 95Q176.15 99.4 176.4 103.85Q176.95 97.8 177.95 91.8L178.45 91.75M170.55,138.2L135.1 258.15L150.15 254.6Q173 249.25 196.45 249.6Q194.1 237.2 191.3 225Q179.3 172.3 175.6 118.75L170.55 138.2M289.45,114.75L265.9 109.75Q267.65 182.55 258.9 254.9Q266.85 253.95 274.5 251.35Q294.85 244.6 307.5 227.25Q320.15 210.05 321.35 188.95Q322.6 166.85 314.2 146.5Q306.25 127.15 289.45 114.75" />
</g>
</svg>
