<?xml version="1.0" encoding="utf-8"?>
<svg version="1.1" id="Layer_1"
xmlns="http://www.w3.org/2000/svg"
xmlns:xlink="http://www.w3.org/1999/xlink"


xml:space="preserve">
q-13.15 50.1 -39.35 94.1q-7.8 13.05 -6.15 28.1q28.4 2.3 56.75 -1.75q21.2 -46.4 38.7 -94.3q4.4 -12.05 3.8 -24.9q-19.05 -0.9 -37.8 3.15q20.55 3.05 41.25 0.5q7.95 -24.65 32.15 -21.7q6.25 0.65 11.65 2.8q2.75 -15 -13.95 -13.9q-36.2 2.3 -41.8 42.5q-4.55 32.55 5.25 63.4q3.9 12.3 12.4 22.1q22.3 4.4 36.7 -12.85q4.5 -5.4 0.2 -10.8q-6.45 9.9 -19.2 9.8q-5.95 -0.05 -11.55 -2.15q-11.05 -20.5 -11.35 -43.95q1.7 -2.4 2.05 -5.4q0.4 -3.35 -1.15 -6.25q-18.35 11 -20.8 32.65q-2.4 21.25 9.85 38.95q11.2 16.1 25.9 29.85q15.75 14.7 24.95 33.65q10.1 20.85 -6.55 37.6q-14.35 14.45 -34.7 14.1q-20.3 -0.3 -39.45 -7.2q-4 7.2 -1.15 14.95q21.6 12.25 46.65 8.65q18.55 -2.45 31.45 -16.05q9.7 -10.25 14.3 -23.6q4.95 -14.2 1.55 -29.2q-3.4 -15.1 -13.15 -27.2q-7.7 -9.55 -17.75 -16.2q-43.9 -28.95 -26.95 -70.85q5.35 -13.15 20.25 -11.75q14.3 1.15 27 8.05q9.4 5.15 16.4 13.4q2.3 -20.95 -20 -32.2q-20.1 -10.1 -38.45 0.85q-8.9 14.85 -15.95 33.3q-15.95 41.75 -28.35 84.8q-16.4 56.8 -32.1 114q-11.65 42.5 -29.1 83.05q-9.25 21.6 -5.45 41.8q5.75 -3.85 8.25 -11.4q18.35 -55.65 33.7 -112.85q6.3 -23.55 12.1 -46.9q46.15 0.7 89.8 7.75q7.5 28.6 11.65 57.8q4.15 28.9 12.05 57q5.4 19.15 -1.3 36.45q-4.75 1.35 -0.25 2.75q0.65 5.6 5 8.5q2.45 -0.75 2.6 -3.5q1.5 -25.05 -3.6 -49.8q-8.9 -43.2 -18.35 -86.3q-11.1 -50.65 -22.75 -101q-13.35 -57.65 -22.4 -115.35q4.2 -8 6.3 -15.85q2.75 31.05 9.1 61.55q9.35 44.6 20.35 88.8q-17.75 -3.75 -36.05 -4.65q13.55 -52.95 33.85 -103.75q5.7 -14.2 12.8 -27.75q-5.4 18.45 -6.55 38.35q-1.05 18.15 -2.75 36.15q-0.9 11.4 0.45 22.5q13.55 2.45 25.5 -4.6q4.15 -2.45 7.5 -5.7q3.25 -3.2 5.1 -7.1q15.05 -31.6 13.65 -66.5q-1.6 -39.55 -35.65 -49.85q-4.4 -1.35 -8.75 -0.4q16.15 11.65 20.15 31.1q4.65 22.45 1.1 45.4q-2.8 18.25 -18.85 26.6q-9.15 4.8 -19.65 4.85<g id="87" transform="matrix(1, 0, 0, 1, -47.7, 0)">
<path style="fill:#000000;fill-opacity:1" d="M343.95,305Q323.25 307.55 302.7 304.5L302.7 297.75L307.65 296.65Q326.4 292.6 345.45 293.5L352.95 297L356.45 296.25Q357.05 309.1 352.65 321.15Q335.15 369.05 313.95 415.45L361.8 416.8L365.2 413.7L361.7 418.95L360.2 427.95Q331.85 432 303.45 429.7Q301.8 414.65 309.6 401.6Q335.8 357.6 348.95 307.5L343.95 305M375.15,359L405.45 354.7L406.35 356.3Q407.9 359.2 407.5 362.55Q407.15 365.55 405.45 367.95L374.85 369.25Q375.15 392.7 386.2 413.2Q391.8 415.3 397.75 415.35Q410.5 415.45 416.95 405.55L412.45 403.7L417.85 402.85L419.7 403.9L423.35 403.55Q427.65 408.95 423.15 414.35Q408.75 431.6 386.45 427.2Q377.95 417.4 374.05 405.1Q364.25 374.25 368.8 341.7Q374.4 301.5 410.6 299.2Q427.3 298.1 424.55 313.1Q419.15 310.95 412.9 310.3Q388.7 307.35 380.75 332L375.15 359M305.7,80.05Q328 91.3 325.7 112.25Q318.7 104 309.3 98.85Q296.6 91.95 282.3 90.8Q267.4 89.4 262.05 102.55Q245.1 144.45 289 173.4Q299.05 180.05 306.75 189.6Q316.5 201.7 319.9 216.8Q323.3 231.8 318.35 246Q313.75 259.35 304.05 269.6Q291.15 283.2 272.6 285.65Q247.55 289.25 225.95 277L225.3 275.45Q222.45 267.7 226.45 260.5Q245.6 267.4 265.9 267.7Q286.25 268.05 300.6 253.6Q317.25 236.85 307.15 216Q297.95 197.05 282.2 182.35Q267.5 168.6 256.3 152.5Q244.05 134.8 246.45 113.55Q248.9 91.9 267.25 80.9Q285.6 69.95 305.7 80.05M164.45,76Q173.5 133.7 186.85 191.35Q198.5 241.7 209.6 292.35Q219.05 335.45 227.95 378.65Q233.05 403.4 231.55 428.45Q231.4 431.2 228.95 431.95Q224.6 429.05 223.95 423.45L220.2 427.95L219.95 428.2Q215.45 426.8 220.2 425.45Q226.9 408.15 221.5 389Q213.6 360.9 209.45 332Q205.3 302.8 197.8 274.2L195.35 264.8Q151.7 257.75 105.55 257.05Q99.75 280.4 93.45 303.95Q78.1 361.15 59.75 416.8Q57.25 424.35 51.5 428.2Q47.7 408 56.95 386.4Q74.4 345.85 86.05 303.35Q101.75 246.15 118.15 189.35Q130.55 146.3 146.5 104.55Q153.55 86.1 162.45 71.25L163.25 76.75L164.45 76M142.45,140.9Q122.15 191.7 108.6 244.65L154.95 243Q173.25 243.9 191 247.65Q180 203.45 170.65 158.85Q164.3 128.35 161.55 97.3Q159.45 105.15 155.25 113.15Q148.15 126.7 142.45 140.9M262.9,296.15Q296.95 306.45 298.55 346Q299.95 380.9 284.9 412.5Q283.05 416.4 279.8 419.6Q276.45 422.85 272.3 425.3Q260.35 432.35 246.8 429.9L244.95 437.2L243.25 429.15L242.05 428.2Q240.7 417.1 241.6 405.7L244.9 367.25Q246.6 349.25 247.65 331.1Q248.8 311.2 254.2 292.75L254.15 295.75Q258.5 294.8 262.9 296.15M253.9,305.8L249.05 415.35L255.1 413.1L252.2 415.45Q262.7 415.4 271.85 410.6Q287.9 402.25 290.7 384Q294.25 361.05 289.6 338.6Q285.6 319.15 269.45 307.5L253.9 305.8" />
</g>
</svg>
