<?xml version="1.0" encoding="utf-8"?>
<svg version="1.1" id="Layer_1"
xmlns="http://www.w3.org/2000/svg"
xmlns:xlink="http://www.w3.org/1999/xlink"


xml:space="preserve">
q-0.05 -28.9 1.3 -58q2.8 -60.2 1.55 -119.15q-4 33.05 -4.8 67.45q43.8 5.6 87.75 1.25q4.05 -7.4 -0.65 -14.2q-1.85 1 -2.2 3.75q-0.5 3.6 0.95 6.7q0.35 0.4 0.8 0.55q1.2 0.45 2.45 0.7q5.5 9.7 10.4 19.7q-25.7 15.4 -22.35 46.25q3.1 28.15 31.4 22.7q12.6 -2.4 16.85 -8.8q4.3 13.3 11.35 21.35q2 -3.45 1 -7.3q-14.6 -56.6 -44.7 -105.15q-8.3 5.15 -18.35 5.55q-24.8 2 -15.75 -24.55q4.3 -12.55 17.8 -15.8<g id="94" transform="matrix(1, 0, 0, 1, -176.25, 0)">
<path style="fill:#000000;fill-opacity:1" d="M399.1,369.65L398.45 370.45Q354.5 374.8 310.7 369.2L310.25 367.8L308.7 368.2L311.15 249Q311.95 214.6 315.95 181.55L316.45 181.5Q317.7 240.45 314.9 300.65Q313.55 329.75 313.6 358.65L398.45 355.45Q403.15 362.25 399.1 369.65M195.5,261.5Q225.6 310.05 240.2 366.65Q241.2 370.5 239.2 373.95Q232.15 365.9 227.85 352.6Q223.6 359 211 361.4Q182.7 366.85 179.6 338.7Q176.25 307.85 201.95 292.45L204.4 292.65Q199.5 282.65 194 272.95Q192.75 272.7 191.55 272.25Q191.1 272.1 190.75 271.7Q189.3 268.6 189.8 265Q190.15 262.25 192 261.25L195.5 261.5M211.3,307.5L207.7 305.7Q194.2 308.95 189.9 321.5Q180.85 348.05 205.65 346.05Q215.7 345.65 224 340.5L211.3 307.5" />
</g>
</svg>
