<?xml version="1.0" encoding="utf-8"?>
<svg version="1.1" id="Layer_1"
xmlns="http://www.w3.org/2000/svg"
xmlns:xlink="http://www.w3.org/1999/xlink"


xml:space="preserve">
q-17.2 21.3 -40.75 8.75q-10.55 -5.65 -11.9 -18.3q-1.9 -18 7.95 -33.35q12.9 -20.15 37.2 -19.3q-2.55 -25.9 -27.55 -15.65q-19.95 8.15 -28.15 28.2q-7.85 19.2 -5 39.8q3.55 26 28.25 26.7q24.55 1.15 34.45 -19.75q2.8 -5.85 0.05 -10.2q-11.15 17.65 -18.4 37.5q-6.6 18.1 -17.7 33.95q-12.3 17.65 -22.95 36.25q-4.25 7.5 -5.7 16q2.65 -53.4 -1.1 -106.75q-5.25 69.15 -6.15 139.05q-0.65 48.45 -6.55 96.25q-3.05 24.95 2.95 48.85q0.4 1.5 1.3 2.9q5.65 -47.7 7.55 -95.7q1.15 -29.65 3.25 -57.9q13.25 -11.5 19.95 -29.1q1.6 -4.15 3.75 -8.1q5.3 35.25 15.85 69.2q12.2 39.05 19 79.2q3.2 18.85 4.7 36.6q-1.25 -32.7 -9.25 -64.7q21.1 -36 34.9 -74.9q2.85 -8 2.3 -16.5q0.95 7.95 0.15 16.15q-4.25 8.1 -4.6 17.25q-0.3 8.25 2.75 14.15q-2.55 23.05 -0.65 46.1q7.25 -43.35 7 -87.5q-7.55 7.65 -6 21q-14.1 -20.2 -35.8 -11.65q-0.75 0.25 -1.45 0.65q-14.5 93.9 -16.6 188.2q-0.05 3.25 1.05 6.55q7.75 -50.45 10.7 -101.4q1 0.95 1.9 2.45q2.05 3.45 4.65 3.75q-8.3 -55.6 -28.65 -108.3q23.05 -16 27.4 -43.95q1.95 -12.4 -1.4 -24.3q-2.1 -7.4 -5.25 -13.95q22.95 2.4 28.9 25.2q5.7 21.7 -10.05 38.95q-11.85 13.05 -29.5 17.6q6.6 -40.5 5.35 -81.55q-0.8 -0.15 -1.05 0.45q-6.65 14.6 -11.45 30.65q-17 57.25 -31.2 115.4q-0.4 1.7 -0.45 3.5q-13.8 57.2 -30.6 113.5q-4.1 13.7 4 19.9q3.55 -11.35 6.75 -23.1q15.55 -57 28.8 -114.7q6.5 -28.2 13.35 -56.4q34.05 4.5 69.85 2.55q6.65 57.9 12.2 115.9q-2.6 -5.6 -2.7 -11.95q-0.55 7.05 1 13.45q4.15 10.25 10 17q4.1 -5.55 2.75 -12.75q-7.9 -42.65 -11.8 -86.1q-5.25 -59.05 -12.85 -117.8q-3.75 -29.2 -8.3 -58.3q-8.6 -54.85 -16.05 -109.45q-0.05 -4.85 -1 -9.55q14.3 -56.35 32.2 -111.5q-22.05 0.15 -43.3 3.2q2.7 -23.85 -21.6 -27.75q-1.7 31.5 25.05 53.8q5.9 4.85 7.95 12.7q-17.75 16.7 -37 -2.65q-0.55 30.95 30.95 20.65q15.35 -4.9 13.1 -21q-2.4 -17.45 -17.05 -27.9q-12.7 -9 -18 -24q14.9 -11.1 24.3 5.55q1.9 3.45 4.45 6.45q-3.3 22.8 -3.5 44.4q1.95 -0.3 2.4 -2.5q6.7 -32.7 10.1 -65.75q5.45 19 13.15 33.75q1.1 -1.3 1.4 -3q6.5 -34 11.35 -68.25q1.05 -1.65 3.75 -0.5q-2.5 -1.55 -3.5 -2.75q1.85 -6.5 -1.5 -12q-2.2 -0.05 -2.6 2.25q-5.25 31.9 -10.15 63.25q-2.85 0.45 -3.35 3.8<g id="93" transform="matrix(1, 0, 0, 1, -49.15, 0)">
<path style="fill:#000000;fill-opacity:1" d="M332.95,132.25L335 130.1Q337.75 134.45 334.95 140.3Q325.05 161.2 300.5 160.05Q275.8 159.35 272.25 133.35Q269.4 112.75 277.25 93.55Q285.45 73.5 305.4 65.35Q330.4 55.1 332.95 81L321.95 72.5Q297.65 71.65 284.75 91.8Q274.9 107.15 276.8 125.15Q278.15 137.8 288.7 143.45Q312.25 156 329.45 134.7L326.8 132.8L332.95 132.25M353.9,183Q340.1 221.9 319 257.9L352.4 391.15Q360.4 423.15 361.65 455.85L355.45 447.7L354.7 450.05Q353.2 432.3 350 413.45Q343.2 373.3 331 334.25Q320.45 300.3 315.15 265.05Q313 269 311.4 273.15Q304.7 290.75 291.45 302.25Q289.35 330.5 288.2 360.15Q286.3 408.15 280.65 455.85Q279.75 454.45 279.35 452.95Q273.35 429.05 276.4 404.1Q282.3 356.3 282.95 307.85Q283.85 237.95 289.1 168.8L290.35 183.45Q294.1 236.8 291.45 290.2Q292.9 281.7 297.15 274.2Q307.8 255.6 320.1 237.95Q331.2 222.1 337.8 204Q345.05 184.15 356.2 166.5Q356.75 175 353.9 183M398.2,363.45L398.35 375.95Q398.6 420.1 391.35 463.45L390.6 457.75Q388.7 434.7 391.25 411.65L374.25 411.35L370.75 460.85Q367.7 454.95 368 446.7L370.6 377.2Q370.95 368.05 375.2 359.95L374.55 403.45L392.35 400.6Q393.15 392.4 392.2 384.45Q390.65 371.1 398.2 363.45M256.45,89.95Q259.8 101.85 257.85 114.25Q253.5 142.2 230.45 158.2Q250.8 210.9 259.1 266.5Q256.5 266.2 254.45 262.75Q253.55 261.25 252.55 260.3L251.75 260L252.95 257.25L227.85 159.7L211.15 165.35Q208.2 216.3 200.45 266.75Q199.35 263.45 199.4 260.2Q201.5 165.9 216 72L214.45 71.75L213.95 65Q214.65 64.6 215.4 64.35Q237.1 55.8 251.2 76Q254.35 82.55 256.45 89.95M217.7,72.2Q218.95 113.25 212.35 153.75Q230 149.2 241.85 136.15Q257.6 118.9 251.9 97.2Q245.95 74.4 223 72L217.7 72.2M156.45,67.3Q163.9 121.9 172.5 176.75Q177.05 205.85 180.8 235.05Q188.4 293.8 193.65 352.85Q197.55 396.3 205.45 438.95Q206.8 446.15 202.7 451.7Q196.85 444.95 192.7 434.7Q191.15 428.3 191.7 421.25L191.95 420.45Q192.05 426.8 194.65 432.4L194.95 432.7Q189.4 374.7 182.75 316.8L176 260.55Q140.2 262.5 106.15 258Q99.3 286.2 92.8 314.4Q79.55 372.1 64 429.1Q60.8 440.85 57.25 452.2Q49.15 446 53.25 432.3Q70.05 376 83.85 318.8L100 252.5Q100.05 250.7 100.45 249L100.85 248.95L111.75 204.25Q125.95 146.1 142.95 88.85Q147.75 72.8 154.4 58.2Q154.65 57.6 155.45 57.75Q156.4 62.45 156.45 67.3M151.95,244.5L174.1 245.75L168.1 199.95L152.75 88.3Q134.85 143.45 120.55 199.8L108.65 247.7Q129.9 244.65 151.95 244.5M243.75,281.05Q234.35 264.4 219.45 275.5Q224.75 290.5 237.45 299.5Q252.1 309.95 254.5 327.4Q256.75 343.5 241.4 348.4Q209.9 358.7 210.45 327.75L212.45 329.85Q231.7 349.2 249.45 332.5Q247.4 324.65 241.5 319.8Q214.75 297.5 216.45 266L224.95 259.5L226.6 259.75Q250.9 263.65 248.2 287.5Q245.65 284.5 243.75 281.05M226.45,363.45L248.35 431.65L248.7 432.2Q253.6 400.85 258.85 368.95Q259.25 366.65 261.45 366.7Q264.8 372.2 262.95 378.7L262.7 379.45Q263.7 380.65 266.2 382.2Q263.5 381.05 262.45 382.7Q257.6 416.95 251.1 450.95Q250.8 452.65 249.7 453.95Q242 439.2 236.55 420.2L225.95 384.45Q222.55 417.5 215.85 450.2Q215.4 452.4 213.45 452.7Q213.65 431.1 216.95 408.3L223.1 367.25Q223.6 363.9 226.45 363.45" />
</g>
</svg>
