<?xml version="1.0" encoding="utf-8"?>
<svg version="1.1" id="Layer_1"
xmlns="http://www.w3.org/2000/svg"
xmlns:xlink="http://www.w3.org/1999/xlink"


xml:space="preserve">
q-45.7 -1 -90 10q-6.6 55.65 -7.85 111.8q-0.3 14.7 -2.1 29.45q-2 16.4 4.25 29.6q4.75 -27.45 4.25 -55.45q-0.1 -6.75 0.4 -13.4q3.8 -51 2.2 -102.1q3.2 -5.4 0.3 -11.1q-7.1 40.95 -6.15 83.45q-20.5 1.3 -40.75 4.6q-0.55 -28.25 -1.85 -56.1q-5.8 45.65 -5.2 94.45q0.2 15 -1.2 29.9q-1.6 16.95 3.65 29.35q1.25 -0.8 1.5 -2.3q2.95 -16.1 3.2 -32.95q0.35 -26.05 0.05 -51.8q20.45 2.75 41.2 0q1.3 29.15 -2.35 57.8q-2.2 16.9 4.4 29.5q2.85 -3.05 3 -7.45q2.15 -59.65 2.25 -119.25q0.05 -30.6 -1.25 -59.25q-17.65 8.8 -22.1 28.95q-3.85 17.5 7.85 30.75q8.35 9.4 20.45 6.35q21.5 -5.4 20.65 -20.4q1.8 1.75 4 1.25q1.2 -1.2 1.65 -2.95q1.4 -5.5 -1.15 -10.55q-25.1 -46.9 -57.5 -87.95q-3.25 2.45 -0.95 6.3q-21.6 17.35 -34.6 -4.75q3.85 -20.4 22.2 -24.95<g id="83" transform="matrix(1, 0, 0, 1, -183.8, 0)">
<path style="fill:#000000;fill-opacity:1" d="M366.1,194.9L325.35 198Q326.95 249.1 323.15 300.1Q322.65 306.75 322.75 313.5Q323.25 341.5 318.5 368.95Q312.25 355.75 314.25 339.35Q316.05 324.6 316.35 309.9Q317.6 253.75 324.2 198.1L275.35 200.95L275.45 192.25Q319.75 181.25 365.45 182.25L366.4 183.8Q369.3 189.5 366.1 194.9M419.45,183.25Q420.75 211.9 420.7 242.5Q420.6 302.1 418.45 361.75Q418.3 366.15 415.45 369.2Q408.85 356.6 411.05 339.7Q414.7 311.05 413.4 281.9Q392.65 284.65 372.2 281.9Q372.5 307.65 372.15 333.7Q371.9 350.55 368.95 366.65Q368.7 368.15 367.45 368.95Q362.2 356.55 363.8 339.6Q365.2 324.7 365 309.7Q364.4 260.9 370.2 215.25Q371.5 243.1 372.05 271.35Q392.3 268.05 412.8 266.75Q411.85 224.25 418.95 183.3L419.45 183.25M199,264.75Q231.4 305.8 256.5 352.7L256.95 353.45L259.2 354.95Q261.75 360 260.35 365.5Q259.9 367.25 258.7 368.45Q256.5 368.95 254.7 367.2L240.65 342.95Q241.5 357.95 220 363.35Q207.9 366.4 199.55 357Q187.85 343.75 191.7 326.25Q196.15 306.1 213.8 297.3L198.05 271.05Q195.75 267.2 199 264.75M237.15,336.95L220 307.8Q201.65 312.35 197.8 332.75L196.75 337.2Q209.75 359.3 231.35 341.95L237.15 336.95" />
</g>
</svg>
