<?xml version="1.0" encoding="utf-8"?>
<svg version="1.1" id="Layer_1"
xmlns="http://www.w3.org/2000/svg"
xmlns:xlink="http://www.w3.org/1999/xlink"


xml:space="preserve">
q-3.45 0.9 -5.2 4.1q-24.1 43.6 -26.65 94.35q-0.75 14.9 -2.2 29.9q-3.95 39.85 17.55 71.4q5.2 1.25 9.75 -1.35q21.25 -12.35 16.25 -31.9q2.15 1.35 5.4 2.35q-0.4 2.75 -2.2 4.9q-4.7 5.8 -11.05 10.1q-8.75 -13.1 -10.4 -29q-2.4 -23.95 -1.7 -48q0.6 0.95 1.55 1.7q14 5.05 27.75 1.5q1.45 -2.45 1.5 -5.25q-0.15 -2.4 -1.4 -4.5q-0.35 -0.4 -0.7 -0.35q-13.9 2 -27.55 -1.15q3.55 -45.1 24.7 -83.85q4.25 -1.35 8.55 0.45q2.65 2.5 3.9 5.85q1 2.55 3.35 1.4q2.7 -3.5 1.45 -7.7q-1.85 -6.45 -7.2 -11.05q9.85 -3.8 18.6 1.05q13.8 7.6 23.65 16.95q1.4 -2.45 0.7 -5.05q-7.75 -28.9 -39.95 -29.95q-15.75 7.15 -20.1 24.15q-11 43.2 14.4 78.85q34.2 48.05 38.9 107.15q2.05 25.45 -16.05 43.2q-19.9 19.6 -42.9 4.65q-0.05 -1.55 -0.45 -3.05q-0.9 -3.25 -3.5 -4.95q-3.45 3.25 -3.65 8.2q-0.65 17.25 15.65 21.65q33.35 9 49 -22.25q13.45 -26.85 10 -57.55q-6.6 -58.4 -42.15 -105.25q-23.75 -31.25 -10.1 -68.55q2.7 -4.1 6.7 -6.85q-9.1 50.7 -8.4 102.35q19 2.3 24.9 -16.7q1.4 -4.45 1.95 -9.1q0.5 -4.25 -0.2 -8.45q-1.45 -8.45 -7.7 -14.4q-2.95 -2.75 -4.8 -6.25q0.65 22.8 -20.9 24.4q1.5 -18.85 1.5 -37.75q12 2.9 19.4 13.35q-5.5 36.7 -8.1 73.95q-0.6 8.35 -4.55 15.3q-0.6 4.1 2.6 6.65q7.3 2 12.9 -3.2q1.2 26.95 19.15 46.9q20.75 -20.9 3.5 -43.9q-5.65 -7.55 -14.75 -6.65q12.3 23.55 -13.65 30.55q17.4 -73.75 36.3 -147q-1.4 -0.2 -2 1.1q-10.85 22.65 -16.6 47.6q-13.2 57.55 -27.75 114.6q-14.65 57.4 -28.7 115.2q-7.1 29.4 -19.5 57.1q-7.55 16.8 0.85 28.1q17.4 -44.6 29.25 -91q35.7 3.65 73.35 2.25q11.15 57.85 20.3 116.05q-2.95 0.2 -3.25 1.75q2.5 0.75 4 2q1 11.65 7 20q3.2 -1.8 2.65 -5.65q-6.1 -45.45 -14.65 -90.7q-2.9 -14.75 -4.9 -29.6q-7.55 -55.35 -19.95 -109.05q-0.35 -3.6 -1.4 -7.2q14.25 -1.3 24.8 9.4q2.15 2.15 3.95 4.6q2.45 -16.95 -15.35 -23.95q-5.65 -2.25 -11.65 -2.55q-10.2 9.6 -6.05 23.15q18.85 10.45 32.85 27.45q2.75 3.3 4.6 7.1q-20.3 19.35 -38.65 -2q-8.35 14.6 7.4 28.7q13.45 12 28.95 2.85q11.6 -6.9 8.5 -21.6q-4.8 -22.55 -27.55 -29.3q3.75 2.6 7.25 5.6q-28.35 12.6 -27.4 34.9q0.05 1.15 1.2 2.3q3.7 -5.65 -0.6 -10.4q-16.15 -17.7 -34.85 -32.9q15.6 -7 24.35 -20.85q2.7 -4.35 2.5 -9.55q-0.1 -3.35 -1.15 -6.55q-1.9 0.15 -2.4 2q-0.5 2 0 3.9q4.6 13.85 16.8 22.3<g id="88" transform="matrix(1, 0, 0, 1, -21.35, 0)">
<path style="fill:#000000;fill-opacity:1" d="M360.95,74.1L363.45 74.5Q368.8 79.1 370.65 85.55Q371.9 89.75 369.2 93.25Q366.85 94.4 365.85 91.85Q364.6 88.5 361.95 86Q357.65 84.2 353.4 85.55L351.2 86Q330.05 124.75 326.5 169.85L326.95 169.5Q340.6 172.65 354.5 170.65Q354.85 170.6 355.2 171Q356.45 173.1 356.6 175.5L356.7 177.75Q356.65 180.55 355.2 183Q341.45 186.55 327.45 181.5Q326.5 180.75 325.9 179.8L325.85 181.25Q325.15 205.3 327.55 229.25Q329.2 245.15 337.95 258.25L343.95 257.95L345.45 257.5Q351.8 253.2 356.5 247.4Q358.3 245.25 358.7 242.5L358.85 242.1Q355.6 241.1 353.45 239.75L359 239.6L363.45 239.75Q368.45 259.3 347.2 271.65Q342.65 274.25 337.45 273Q315.95 241.45 319.9 201.6Q321.35 186.6 322.1 171.7Q324.65 120.95 348.75 77.35Q350.5 74.15 353.95 73.25L360.95 74.1M267.35,83.6Q263.35 86.35 260.65 90.45L259.95 91.25Q246.3 128.55 270.05 159.8Q305.6 206.65 312.2 265.05Q315.65 295.75 302.2 322.6Q286.55 353.85 253.2 344.85Q236.9 340.45 237.55 323.2Q237.75 318.25 241.2 315L242.25 315.25Q244.85 316.95 245.75 320.2Q246.15 321.7 246.2 323.25Q269.2 338.2 289.1 318.6Q307.2 300.85 305.15 275.4Q300.45 216.3 266.25 168.25Q240.85 132.6 251.85 89.4Q256.2 72.4 271.95 65.25Q304.15 66.3 311.9 95.2Q312.6 97.8 311.2 100.25Q301.35 90.9 287.55 83.3Q278.8 78.45 268.95 82.25L267.35 83.6M188.7,72.8Q194.95 78.75 196.4 87.2Q197.1 91.4 196.6 95.65Q196.05 100.3 194.65 104.75Q188.75 123.75 169.75 121.45L162.85 165.75Q162.15 114.1 171.25 63.4L183.9 66.55Q185.75 70.05 188.7 72.8M172.3,72.65Q172.3 91.55 170.8 110.4Q192.35 108.8 191.7 86Q184.3 75.55 172.3 72.65M197.7,172.9Q214.95 195.9 194.2 216.8L211.1 265.75L210.75 266.25Q192.8 246.3 191.6 219.35Q186 224.55 178.7 222.55L171.95 268L171.05 267.4Q167.85 264.85 168.45 260.75L167 258.25L167.05 258Q171 251.05 171.6 242.7Q174.2 205.45 179.7 168.75L180.75 167.7L181.2 165.5L181.2 167.35L182.95 166.25Q192.05 165.35 197.7 172.9M187.95,176.25L181.2 176.15L179.65 211.65L181.8 211.3Q207.75 204.3 195.45 180.75L187.95 176.25M117.55,98.3Q98.65 171.55 81.25 245.3L148.7 241.5L123.55 82.85L120.3 91.25L118.75 94.7L117.55 98.3M124.85,69.2Q137.25 122.9 144.8 178.25Q146.8 193.1 149.7 207.85L171.95 323.35Q180.5 368.6 186.6 414.05Q187.15 417.9 183.95 419.7Q177.95 411.35 176.95 399.7Q175.45 398.45 172.95 397.7Q173.25 396.15 176.2 395.95Q167.05 337.75 155.9 279.9L151.9 258.8Q114.25 260.2 78.55 256.55L59 334.7Q47.15 381.1 29.75 425.7Q21.35 414.4 28.9 397.6Q41.3 369.9 48.4 340.5Q62.45 282.7 77.1 225.3Q91.65 168.25 104.85 110.7Q110.6 85.75 121.45 63.1Q122.05 61.8 123.45 62Q124.5 65.6 124.85 69.2M196.45,288L203.15 289.85Q225.9 296.6 230.7 319.15Q233.8 333.85 222.2 340.75Q206.7 349.9 193.25 337.9Q177.5 323.8 185.85 309.2L187.2 320.5L189.3 323.25Q207.65 344.6 227.95 325.25Q226.1 321.45 223.35 318.15Q209.35 301.15 190.5 290.7L189.9 288.9Q185.75 275.35 195.95 265.75Q201.95 266.05 207.6 268.3Q225.4 275.3 222.95 292.25Q221.15 289.8 219 287.65Q208.45 276.95 194.2 278.25L194.2 284.25L196.45 288M219.1,360.35Q218.6 358.45 219.1 356.45Q219.6 354.6 221.5 354.45L253.05 379.6L287.45 349.95Q288.5 353.15 288.6 356.5Q288.8 361.7 286.1 366.05Q277.35 379.9 261.75 386.9Q280.45 402.1 296.6 419.8Q300.9 424.55 297.2 430.2L251.15 394.9L216.95 425.45Q215.8 424.3 215.75 423.15Q214.8 400.85 243.15 388.25Q239.65 385.25 235.9 382.65Q223.7 374.2 219.1 360.35" />
</g>
</svg>
