<?xml version="1.0" encoding="utf-8"?>
<svg version="1.1" id="Layer_1"
xmlns="http://www.w3.org/2000/svg"
xmlns:xlink="http://www.w3.org/1999/xlink"


xml:space="preserve">
q1.05 27.55 4.6 55.45q7.4 58.15 17.2 116.2q9.85 58.3 16.3 117.15q1.9 17.3 10.7 28.05q1.45 -1.55 1.25 -3.65q-5.5 -51.45 -14 -102.85q-9.6 -58.1 -18.2 -116.35q-7.6 -51.8 -15.7 -102.95q1.6 -9.85 -0.35 -18.4q-10.75 23.5 -17.1 50.05q-13.7 57.45 -23.9 115.6q-1.35 7.7 -5 14.4q-1.2 2.2 -2.1 4.35q-0.8 -7 -2.4 -13.9q-6.5 -28.45 -11.45 -57.25q-9.25 -53.85 -17.45 -107.55q0.2 -6.75 -0.1 -13.45q-0.8 -0.15 -1.05 0.4q-5.9 14.5 -8.8 30.8q-5 28.75 -9.7 57.55q-9.5 58.3 -17.5 116.85q-8 58.45 -20.65 116.05q-1.65 7.55 -4.5 14.5q-5.65 13.85 3.2 21.55q10.55 -32.3 15.5 -66.8q8.45 -58.5 15.8 -117.1q7.35 -58.55 21.6 -115.8q2.45 -9.85 3.95 -19.6q3.9 19.5 7.2 39.2q6.2 36.4 10.2 73.15q3.3 30.65 13.55 58.1q0.45 -0.2 0.85 -0.45q0.75 1.9 1.9 3.7q6.2 -10.1 8.75 -21.9q10.85 -50.05 21.1 -100.2q5.95 -29.25 15.15 -57.4q-0.5 0 -0.55 0.2q-4.15 8.9 -6.8 18.85q-15.6 58.2 -33.55 115.8q-13.35 42.95 -23.85 86q-10.35 42.2 -22.35 83.95q-8.4 29.05 -7.85 57.4q1.9 2 4 0q10.55 -46 20.7 -92.2q6.7 -30.45 14.8 -60.7q2.6 1.2 4.45 3.7q31.4 6.4 62.9 4.5q1 14.25 8.75 20.9q2.55 -4.45 1.9 -9.7q-7.45 -58.65 -11.8 -117.8q-4.35 -59.1 -8.4 -118.4q-4.05 -59.6 -9.45 -117.8q-0.55 0.65 -0.65 1.7q-5.1 52.1 -12.65 104.05q-1.9 13.05 3.15 20.95q1.85 -5 2.55 -10.45q3.55 -27.75 5.75 -55.4q3.5 -0.95 6.6 -2.2q0.25 7.15 3.35 14.15q12.4 27.95 24.95 54.1q0.5 -0.75 0.4 -1.45q-4.9 -33.85 -23.4 -63.8q-0.5 -2.2 -1.55 -4.05q15.25 -8.15 17.85 -26.35q4.4 -29.95 -25.75 -32.35q-2.2 0.5 -4.4 1.6q1.6 -22.9 2.3 -45.7q19.15 -2.2 27.15 14.85q-2.4 26.95 -29.45 30.85q4.55 -21.6 11.8 -44.05q-3.65 44.95 -4.05 89.4q19.6 2.7 38.75 -2.75q4.2 -6.05 0 -12q-18.3 3.85 -35.25 3.25q5.75 -42.65 3.95 -84.75q-3.05 2.7 -3.45 7.6<g id="80" transform="matrix(1, 0, 0, 1, -75.95, 0)">
<path style="fill:#000000;fill-opacity:1" d="M377.7,126.75Q368.5 154.9 362.55 184.15Q352.3 234.3 341.45 284.35Q338.9 296.15 332.7 306.25Q331.55 304.45 330.8 302.55Q330.4 302.8 329.95 303Q319.7 275.55 316.4 244.9Q312.4 208.15 306.2 171.75Q302.9 152.05 299 132.55L298.3 128.65Q296.8 138.4 294.35 148.25Q280.1 205.5 272.75 264.05Q265.4 322.65 256.95 381.15Q252 415.65 241.45 447.95Q232.6 440.25 238.25 426.4Q241.1 419.45 242.75 411.9Q255.4 354.3 263.4 295.85Q271.4 237.3 280.9 179Q285.6 150.2 290.6 121.45Q293.5 105.15 299.4 90.65Q299.65 90.1 300.45 90.25Q300.75 96.95 300.55 103.7Q308.75 157.4 318 211.25Q322.95 240.05 329.45 268.5Q331.05 275.4 331.85 282.4Q332.75 280.25 333.95 278.05Q337.6 271.35 338.95 263.65Q349.15 205.5 362.85 148.05Q369.2 121.5 379.95 98Q381.9 106.55 380.3 116.4Q388.4 167.55 396 219.35Q404.6 277.6 414.2 335.7Q422.7 387.1 428.2 438.55Q428.4 440.65 426.95 442.2Q418.15 431.45 416.25 414.15Q409.8 355.3 399.95 297Q390.15 238.95 382.75 180.8Q379.2 152.9 378.15 125.35L377.7 126.75M173.45,84.75Q178.85 142.95 182.9 202.55Q186.95 261.85 191.3 320.95Q195.65 380.1 203.1 438.75Q203.75 444 201.2 448.45Q193.45 441.8 192.45 427.55L183.95 309.7L183.35 301.25Q151.85 303.15 120.45 296.75Q118.6 294.25 116 293.05Q107.9 323.3 101.2 353.75Q91.05 399.95 80.5 445.95Q78.4 447.95 76.5 445.95Q75.95 417.6 84.35 388.55Q96.35 346.8 106.7 304.6Q117.2 261.55 130.55 218.6Q148.5 161 164.1 102.8Q166.75 92.85 170.9 83.95Q170.95 83.75 171.45 83.75L172 86.8L173.45 84.75M209.55,88.45Q211.75 87.35 213.95 86.85L213.95 86.75Q244.1 89.15 239.7 119.1Q237.1 137.3 221.85 145.45Q222.9 147.3 223.4 149.5L223.45 150.25Q241.95 180.2 246.85 214.05Q246.95 214.75 246.45 215.5Q233.9 189.35 221.5 161.4Q218.4 154.4 218.15 147.25Q215.05 148.5 211.55 149.45L207 150.15Q204.8 177.8 201.25 205.55Q200.55 211 198.7 216Q193.65 208.1 195.55 195.05Q203.1 143.1 208.2 91Q208.3 89.95 208.85 89.3L208.95 89L209.55 88.45M237.2,109.75Q229.2 92.7 210.05 94.9Q209.35 117.7 207.75 140.6Q234.8 136.7 237.2 109.75M167.85,126.9L149.45 183.05L131.25 239.5Q124 261.95 119.45 283.55L182.5 288.9L170.45 117.9L167.85 126.9M213.2,223.75Q215 265.85 209.25 308.5L209.2 309.25Q226.15 309.85 244.45 306Q248.65 311.95 244.45 318Q225.3 323.45 205.7 320.75Q206.1 276.3 209.75 231.35Q210.15 226.45 213.2 223.75" />
</g>
</svg>
