<?xml version="1.0" encoding="utf-8"?>
<svg version="1.1" id="Layer_1"
xmlns="http://www.w3.org/2000/svg"
xmlns:xlink="http://www.w3.org/1999/xlink"


xml:space="preserve">
q-5.7 21.45 -21.2 37q-15.85 15.8 -37.8 19.3q-3.55 0.55 -7 1.7q3.1 -84.05 0.25 -168q20.4 7.2 32.95 25.45q12.55 18.2 13.65 40.25q1.05 21.2 -4.5 41.95q-14.65 -38.6 -57 -38.75q-4.25 0.1 -8.9 0.95q-0.85 0.15 -1.6 0.8q-0.85 1.35 -0.9 3q0.05 1.2 0.55 2.25q-3.1 27.05 -3.3 55.25q-0.4 58.85 -0.1 117.65q-7.5 5.65 -3.2 17.85q-0.05 51.8 -2.15 103.45q-1.2 30.05 -4.75 59.75q-2 16.85 4.15 29.95q0.9 -0.6 1.1 -1.4q3.95 -15.95 4.65 -32.8q2.55 -59.35 2 -119.25q-0.2 -20.25 -0.15 -40.5q41.6 -8.2 60.6 -46.3q28 -56.2 5.8 -114.45q0.05 25.4 1.85 51.1q4.1 59.25 7.25 118.4q-34.2 0.45 -67.15 7.5q4.55 -15.15 9.25 -30.25q17.75 -56.95 36 -113q4.7 -14.5 12.45 -27.35q3.45 -5.75 4.95 -11.45q-14.5 19.4 -21.85 44.6q-7.1 24.35 -15.8 47.75q-21 56.35 -36.15 114.35q-14.85 56.55 -31.1 112.85q-4.05 14.15 -9.35 27.85q-8.3 21.6 -4.95 41.8q1.1 -0.35 1.3 -1q16.75 -52.35 31.3 -105.6q10 -36.7 20.9 -73.25q2.75 49.95 5.8 99.95q1.8 29.7 2.75 59.35q0.55 16.95 8.35 29.15q0.65 -0.75 0.75 -1.55q2.05 -18 0.15 -36.8q-5.95 -59.05 -9.4 -118.4q-3.45 -59.35 -6.55 -118.55q-3.05 -59.45 -11.2 -117.65q-8.2 35.45 -18.9 70.5q-4.8 15.55 -4.85 30.3q17 -47.15 29.5 -96.75q0.6 38.45 -2.2 76.4q-1.1 14.85 3.95 24.6q15.8 -49.7 26.75 -100.25q0.65 33.2 3.4 66.05q0.95 11.35 1 22.45q2.35 0.2 6.5 2q2.05 -6.15 1.3 -12.85q-6.95 -58.7 -9.05 -117.65q-13.95 51.2 -28.25 105q1.95 -51.55 -0.05 -102q-6 9.95 -9 22.95q0.3 -25.3 -25.85 -22.75q-25.35 2.05 -24 26.85q1.25 22.35 20.55 34.55q19.2 12.05 20.55 33.2q1.6 24.9 -23.95 26.85q-24.1 2.35 -31.6 -20.9q-8.75 23.1 19.2 31.95q15.2 4.75 28.45 -3.35q12.4 -7.5 15.1 -22.1q4.45 -24.05 -13.65 -42q-14.7 -14.5 -26.15 -30.5q-6.15 -8.6 0.2 -17.15q6.65 -9 18.15 -9.65q15.7 1.7 22.6 14.55q-2.7 3.55 -3.4 9.45q-5.6 48.45 -8.1 96.8q24.3 3.8 49 1.75q2.3 2.5 5.25 1.25q2.35 -5.35 -0.2 -10.5q-25.65 0.75 -50.25 -3.5<g id="79" transform="matrix(1, 0, 0, 1, -52.9, 0)">
<path style="fill:#000000;fill-opacity:1" d="M371.2,150.8Q370.1 128.75 357.55 110.55Q345 92.3 324.6 85.1L300.95 82.75Q303.8 166.7 300.7 250.75Q304.15 249.6 307.7 249.05Q329.65 245.55 345.5 229.75Q361 214.2 366.7 192.75Q372.25 172 371.2 150.8M361.15,223.7Q342.15 261.8 300.55 270Q300.5 290.25 300.7 310.5Q301.25 370.4 298.7 429.75Q298 446.6 294.05 462.55Q293.85 463.35 292.95 463.95Q286.8 450.85 288.8 434Q292.35 404.3 293.55 374.25Q295.65 322.6 295.7 270.8L292.45 271.25Q288.15 259.05 295.65 253.4Q295.35 194.6 295.75 135.75Q295.95 107.55 299.05 80.5Q298.55 79.45 298.5 78.25L298.55 75.25Q298.6 73.6 299.45 72.25Q300.2 71.6 301.05 71.45Q305.7 70.6 309.95 70.5Q352.3 70.65 366.95 109.25Q389.15 167.5 361.15 223.7M170.5,91.15Q162.75 104 158.05 118.5Q139.8 174.55 122.05 231.5Q117.35 246.6 112.8 261.75Q145.75 254.7 179.95 254.25L183.4 254.7L184.7 255.25L184.9 255.55L184.55 249.2Q181.4 190.05 177.3 130.8Q175.5 105.1 175.45 79.7Q173.95 85.4 170.5 91.15M176.2,63.25Q184.35 121.45 187.4 180.9Q190.5 240.1 193.95 299.45Q197.4 358.8 203.35 417.85Q205.25 436.65 203.2 454.65Q203.1 455.45 202.45 456.2Q194.65 444 194.1 427.05Q193.15 397.4 191.35 367.7Q188.3 317.7 185.55 267.75L185.45 268L109.75 271.85Q98.85 308.4 88.85 345.1Q74.3 398.35 57.55 450.7Q57.35 451.35 56.25 451.7Q52.9 431.5 61.2 409.9Q66.5 396.2 70.55 382.05Q86.8 325.75 101.65 269.2Q116.8 211.2 137.8 154.85Q146.5 131.45 153.6 107.1Q160.95 81.9 175.45 62.5L175.65 63.3L176.2 63.25M236.2,72.25Q238.2 122.7 236.25 174.25L236.2 175.5Q250.5 121.7 264.45 70.5Q266.55 129.45 273.5 188.15Q274.25 194.85 272.2 201Q268.05 199.2 265.7 199L265.85 188.5Q265.8 177.4 264.85 166.05Q262.1 133.2 261.45 100Q250.5 150.55 234.7 200.25Q229.65 190.5 230.75 175.65Q233.55 137.7 232.95 99.25Q220.45 148.85 203.45 196Q203.5 181.25 208.3 165.7Q219 130.65 227.2 95.2Q230.2 82.2 236.2 72.25M265.55,228.3Q258.65 215.45 242.95 213.75Q231.45 214.4 224.8 223.4Q218.45 231.95 224.6 240.55Q236.05 256.55 250.75 271.05Q268.85 289 264.4 313.05Q261.7 327.65 249.3 335.15Q236.05 343.25 220.85 338.5Q192.9 329.65 201.65 306.55Q209.15 329.8 233.25 327.45Q258.8 325.5 257.2 300.6Q255.85 279.45 236.65 267.4Q217.35 255.2 216.1 232.85Q214.75 208.05 240.1 206Q266.25 203.45 265.95 228.75L265.55 228.3M225.85,355.6L226.2 356.2L217.05 447L216.95 448.45Q241.55 452.7 267.2 451.95Q269.75 457.1 267.4 462.45L266.95 463.2Q264 464.45 261.7 461.95Q237 464 212.7 460.2Q215.2 411.85 220.8 363.4Q221.5 357.5 224.2 353.95L225.85 355.6" />
</g>
</svg>
