<?xml version="1.0" encoding="utf-8"?>
<svg version="1.1" id="Layer_1"
xmlns="http://www.w3.org/2000/svg"
xmlns:xlink="http://www.w3.org/1999/xlink"


xml:space="preserve">
q-6.8 11.8 -12.75 24q-25.95 53.1 -53.1 105.05q-3.45 6.65 -8.1 12.2q-9.35 11.2 -12.25 23.65q2.3 -59.2 -0.65 -117.75q-1.65 0.05 -1.75 2q-1 23.2 -1.45 46.5q-1.1 59.1 -2.8 118.5q-1.75 59.6 -4.4 119.2q-1.35 30 -4.25 59.9q-1.7 17.55 5.4 29.6q5.5 -11.75 1.65 -25.2q1.7 -11.4 2 -23.25q1.4 -59.35 4 -118.5q1 -0.05 1.3 -0.55q12.5 -21.6 24.25 -43.65q0.15 27.9 5.05 55.7q10.2 58 20.9 115.9q3.15 16.2 9.4 28.7q1.8 -0.65 2.05 -2.5q2.25 -17.95 -3 -35.55q-16.9 -56.6 -25.65 -114.95q-8.35 -55.6 -17.85 -110.4q20.3 -39.15 39.35 -79.1q3.2 -6.7 7.4 -12.6q8.2 -11.6 2.7 -21.1q-5.5 50.75 -4 100.65q-13.25 -52.95 -24.9 -106q-0.5 -4.5 -1.35 -8.7q-0.95 0.6 -0.8 2.2q-2.5 22.4 -3.1 45.85q-0.75 28.7 -4.65 56.75q-1.85 13.25 2.55 21.75q4.6 -12.5 4.7 -26.25q0.4 -38.4 3.15 -76.7q1.9 12.55 4.65 24.95q5.85 26.25 11.2 52.6q3.25 16.2 9.3 27.9q2.85 -3.25 2.9 -8q0.45 -60.05 2.6 -118.5q-2.4 3.35 -3 8.8q-0.75 59.65 -5.1 118.45q-4.45 59.5 -8.45 119.2q-1.1 16.95 5.5 29.3q2.2 -2.55 2.35 -6q1.4 -59.45 5.45 -118.55q4.1 -59.3 5.35 -119.15q1.2 -60.05 -3 -118.5q-3.8 11.8 -3.4 26.25q1.25 43.1 0.7 86.25q-5.6 28.25 -4.05 56.6q0.2 4.15 1.7 6.5q4.7 36.65 18.45 69.4q-3.5 -36.1 -16.65 -69.9q13.1 -2.75 17.4 -14.25q3.8 -10.2 -0.1 -20.4q-4.1 -10.8 -14.5 -16.1q-4.85 -2.5 -9.95 -4q11.3 4.55 15.65 16.8q-11.65 17.45 -33.3 18.25q-1.2 18.25 -2 36.6q-0.8 18.15 1.05 33.65q7.3 2.15 14.95 2.7q9.05 0.5 18 0.2q3.1 -29.95 4.15 -60.15q0.6 -18.05 0.35 -36.15q-3.6 18 -4.9 37.25<g id="111" transform="matrix(1, 0, 0, 1, -87, 0)">
<path style="fill:#000000;fill-opacity:1" d="M307.9,85.9L307.95 85.75Q313.45 95.25 305.25 106.85Q301.05 112.75 297.85 119.45Q278.8 159.4 258.5 198.55Q268 253.35 276.35 308.95Q285.1 367.3 302 423.9Q307.25 441.5 305 459.45Q304.75 461.3 302.95 461.95Q296.7 449.45 293.55 433.25L282.3 374.25Q271.6 316.35 261.4 258.35Q256.5 230.55 256.35 202.65L244.55 225.05Q232.8 247.1 220.3 268.7Q220 269.2 219 269.25L217.95 293.7Q215.35 352.85 213.95 412.2Q213.65 424.05 211.95 435.45Q215.8 448.9 210.3 460.65L209.95 460.95Q202.85 448.9 204.55 431.35Q207.45 401.45 208.8 371.45Q211.45 311.85 213.2 252.25Q214.9 192.85 216 133.75Q216.45 110.45 217.45 87.25Q217.55 85.3 219.2 85.25L220.2 86L220.95 86.75Q223.9 145.3 221.6 204.5L219.75 251.9Q222.65 239.45 232 228.25Q236.65 222.7 240.1 216.05Q267.25 164.1 293.2 111Q299.15 98.8 305.95 87L307.9 85.9M181.2,89.5Q179.05 147.95 178.6 208Q178.55 212.75 175.7 216L174.7 220Q168.65 208.3 165.4 192.1Q160.05 165.75 154.2 139.5Q151.45 127.1 149.55 114.55Q146.8 152.85 146.4 191.25Q146.3 205 141.7 217.5Q137.3 209 139.15 195.75Q143.05 167.7 143.8 139Q144.4 115.55 146.9 93.15L146.65 90.5Q146.5 88.9 147.45 88.3L147.95 84.25Q148.8 88.45 149.3 92.95Q160.95 146 174.2 198.95Q172.7 149.05 178.2 98.3Q178.8 92.85 181.2 89.5M102.8,106.25Q102.4 91.8 106.2 80Q110.4 138.45 109.2 198.5Q107.95 258.35 103.85 317.65Q99.8 376.75 98.4 436.2L97.8 453.45Q97.65 456.9 95.45 459.45Q88.85 447.1 89.95 430.15Q93.95 370.45 98.4 310.95Q102.75 252.15 103.5 192.5Q104.05 149.35 102.8 106.25M139.85,235.7L139.95 233.5L144.2 228.75L151.95 226.25Q157.05 227.75 161.9 230.25Q172.3 235.55 176.4 246.35Q180.3 256.55 176.5 266.75Q172.2 278.25 159.1 281Q172.25 314.8 175.75 350.9Q162 318.15 157.3 281.5L143.5 283.15L136.3 345.95Q134.8 343.6 134.6 339.45Q133.05 311.1 138.65 282.85L137.7 275.25L139.25 275.3L142.9 237.45L140.75 237.7L139.85 235.7M144.4,236.9L143.9 275.25Q165.55 274.45 177.2 257L176.35 254.55Q172 242.3 160.7 237.75L153.95 234L144.4 236.9M142.2,352.2Q142.45 370.3 141.85 388.35Q140.8 418.55 137.7 448.5L187.6 451.2L187.95 460.45Q179 460.75 169.95 460.25L151.85 458.65Q144.2 458.1 136.9 455.95L136.35 459.7Q134.5 444.2 135.3 426.05Q136.1 407.7 137.3 389.45Q138.6 370.2 142.2 352.2" />
</g>
</svg>
