<?xml version="1.0" encoding="utf-8"?>
<svg version="1.1" id="Layer_1"
xmlns="http://www.w3.org/2000/svg"
xmlns:xlink="http://www.w3.org/1999/xlink"


xml:space="preserve">
q-0.7 15.05 -3.85 29.65q-2.95 13.6 3.8 21.85q1.35 -1.55 1.7 -3.75q4.4 -26.95 5.8 -54.65q2.85 -57.85 1.1 -114.7q1.6 -1.55 2.05 -3.75q0.95 -4.75 -1.3 -9q-0.35 -0.4 -0.8 -0.5q-45.45 2.35 -90 11.75q-1.05 1.7 -1.1 3.75q-0.1 2.35 0.85 4.5q-0.5 1.25 -0.55 2.9q1.95 36.5 1.1 72.85q-19.7 2.05 -38.95 1.95q-0.05 -32.4 -3.35 -64.3q-1.95 40.05 -3.4 80.95q-1.05 29.8 -6.15 58.95q-2.3 13.15 3.15 22.05q6.15 -21.2 8 -44.15q1.7 -21.45 2.05 -42.65q19.05 4.4 38.5 1.75q-0.65 15.55 -1.8 31.15q-1 13.1 -3.75 25.85q-3.7 16.95 2 29.55q1.4 -0.85 1.65 -2.35q5.2 -30.75 7 -62.05q0.65 -11.75 0.95 -23.5q2.95 -6.4 -0.05 -12.05q0.35 -41.55 -4.05 -82.6q-3.15 3.15 -2.8 9q-5.55 6.15 -4.5 14.5q8.3 -3.2 6.55 -13.6q-0.45 -2.55 -2 -4.75q-1.85 1.85 -4.05 3.35q-2.8 2 -6.4 2q-6.1 -6.05 -7.2 -15.4q-1.7 -14.05 1.35 -27.9q3.6 -16.4 2.1 -33.2q-6.6 20.2 -9.9 41.9q-3.25 21.55 8.15 39.3q9.15 14.3 21.65 -1.6q5.7 -7.25 1.6 -15.85<g id="101" transform="matrix(1, 0, 0, 1, -195.3, 0)">
<path style="fill:#000000;fill-opacity:1" d="M330.45,193.55L279.7 196Q278.75 193.85 278.85 191.5Q278.9 189.45 279.95 187.75Q324.5 178.35 369.95 176L376.4 176.5Q376.85 176.6 377.2 177Q379.45 181.25 378.5 186Q378.05 188.2 376.45 189.75L333.3 193.35Q335.05 250.2 332.2 308.05Q330.8 335.75 326.4 362.7Q326.05 364.9 324.7 366.45Q317.95 358.2 320.9 344.6Q324.05 330 324.75 314.95L329.9 196.45Q329.95 194.8 330.45 193.55M420.2,186Q424.6 227.05 424.25 268.6Q427.25 274.25 424.3 280.65L424.05 281.05Q423.75 292.8 423.1 304.55Q421.3 335.85 416.1 366.6Q415.85 368.1 414.45 368.95Q408.75 356.35 412.45 339.4Q415.2 326.65 416.2 313.55Q417.35 297.95 418 282.4Q398.55 285.05 379.5 280.65Q379.15 301.85 377.45 323.3Q375.6 346.25 369.45 367.45Q364 358.55 366.3 345.4Q371.4 316.25 372.45 286.45Q373.9 245.55 375.85 205.5L376.2 205.5Q379.5 237.4 379.55 269.8Q398.8 269.9 418.5 267.85Q419.35 231.5 417.4 195Q417.05 189.15 420.2 186M217.45,234.5Q219 236.7 219.45 239.25Q221.2 249.65 212.9 252.85L210.7 250.75L210.45 248.75Q209.4 240.4 214.95 234.25L217.45 234.5M229.95,338.2Q234.05 346.8 228.35 354.05Q215.85 369.95 206.7 355.65Q195.3 337.9 198.55 316.35Q201.85 294.65 208.45 274.45Q209.95 291.25 206.35 307.65Q203.3 321.5 205 335.55Q206.1 344.9 212.2 350.95Q215.8 350.95 218.6 348.95Q220.8 347.45 222.65 345.6L229.95 338.2" />
</g>
</svg>
