<?xml version="1.0" encoding="utf-8"?>
<svg version="1.1" id="Layer_1"
xmlns="http://www.w3.org/2000/svg"
xmlns:xlink="http://www.w3.org/1999/xlink"


xml:space="preserve">
q-17 -6 -34.7 -8.75q-8.6 13.65 -8.2 32.5q1.25 59.7 0 119.25q-1.25 59.75 -3.95 119.25q-0.7 15 -2.95 29.7q-2.65 17.45 4.35 29.25q32.35 -9.2 65.6 -15.1q23.85 -4.25 37.95 -23.75q25.8 -35.6 21.1 -80.95q-6 -58.4 -24.05 -114.85q-15.35 -47.95 -55.6 -75.05q18.3 9.85 30.2 27.25q12.45 18.1 20.25 38.75q7.05 18.65 12.1 37.9q3.75 14.35 6.45 28.85q3.45 18.25 5.95 36.6q2.8 20.5 0.3 40.95q-2.7 21.7 -17.2 38.05q-13.05 14.7 -33.2 19.45q-16.95 4 -33.5 8.85q-16.8 4.75 -33.6 8.9q-4.75 23.65 -5.05 48.6q-0.65 59.7 -1.95 119.25q-1.3 59.95 -5.15 119.25q-0.7 11.15 -2.25 22.2q-2.5 17.4 4.45 29.25q4.4 -19.85 5.05 -41.25q1.75 -59.3 3.05 -119.2q1.3 -59.65 3.55 -119.25q1.15 -30.55 -0.9 -59.25q-0.75 0.1 -0.8 0.4<g id="104" transform="matrix(1, 0, 0, 1, -109.75, 0)">
<path style="fill:#000000;fill-opacity:1" d="M238.45,111.5Q278.7 138.6 294.05 186.55Q312.1 243 318.1 301.4Q322.8 346.75 297 382.35Q282.9 401.85 259.05 406.1Q225.8 412 193.45 421.2L192.2 419.55L190.7 425.7Q183.7 413.9 186.35 396.45Q188.6 381.75 189.3 366.75Q192 307.25 193.25 247.5Q194.5 187.95 193.25 128.25Q192.85 109.4 201.45 95.75L201.8 102.15Q219.5 104.9 236.5 110.9L238.45 111.5M201.8,110.9L194.2 408.05Q211 403.9 227.8 399.15Q244.35 394.3 261.3 390.3Q281.45 385.55 294.5 370.85Q309 354.5 311.7 332.8Q314.2 312.35 311.4 291.85Q308.9 273.5 305.45 255.25Q302.75 240.75 299 226.4Q293.95 207.15 286.9 188.5Q279.1 167.85 266.65 149.75Q254.75 132.35 236.45 122.5L201.8 110.9M127.45,90Q129.5 118.7 128.35 149.25Q126.1 208.85 124.8 268.5Q123.5 328.4 121.75 387.7Q121.1 409.1 116.7 428.95Q109.75 417.1 112.25 399.7Q113.8 388.65 114.5 377.5Q118.35 318.2 119.65 258.25Q120.95 198.7 121.6 139Q121.9 114.05 126.65 90.4Q126.7 90.1 127.45 90" />
</g>
</svg>
