<?xml version="1.0" encoding="utf-8"?>
<svg version="1.1" id="Layer_1"
xmlns="http://www.w3.org/2000/svg"
xmlns:xlink="http://www.w3.org/1999/xlink"


xml:space="preserve">
q0.7 -40.8 -41.4 -44.75q-10.6 1.8 -17.3 9.6q-28.1 32.8 -35.35 76.05q-9.65 58.05 -6.9 117.05q1.9 39.95 20.25 75.35q5.95 11.5 17 18.3q40.6 25.1 75.05 -9.5q0.75 -2.65 1.85 -5.2q0.8 -1.85 0.25 -3.8q-5.85 -0.75 -11.25 4.05q-21.15 18.85 -48 11.75q-24.4 -6.45 -33.55 -30.1q-18.95 -48.8 -17.5 -102.15q1.4 -51.95 16.3 -100.6q8.25 -28.8 36.5 -36.55q12.85 -3.5 24.5 2.5q18.3 9.45 22.8 29.5q1.95 54.2 0.45 108.2q-32.85 -1.85 -66 -1.45q2.35 -59.9 1.05 -118.55q-6.05 18.15 -6.55 39.25q-1.25 59.1 -3.85 118.45q-2.6 59.55 -6.3 119.2q-1.05 17.4 5.2 29.05q3.35 -33.95 5.1 -68.95q-2.1 58.75 -6.6 117.1q-1.3 16.5 3.75 29.8q5.05 -27.45 5.85 -57.5q1.2 -45.55 2.05 -91.1q0.3 -1.45 0.2 -3q-0.15 -1.85 -0.75 -3.6q0.95 -60 -1.1 -118.5q-5 12 -4.45 27q-7.6 21.15 -8.5 45.65q-2.15 59.05 -2.95 118.6q-0.65 52 -7.85 103.05q-3.1 -18.2 -7.15 -36.35q-12.9 -57.55 -27 -115q-13.25 -53.9 -30.15 -106.35q-0.95 -0.25 -1.1 0.75q-0.85 6.55 -0.05 13.15q-3.5 16.9 -4.6 35.6q-1.55 26.2 -1.7 52.5q-0.3 60.1 -5.85 119.2q-1.4 14.9 -3.45 29.8q-4.1 30.55 -1 59.45q0.9 -0.35 1 -0.85q6.4 -35.5 8.35 -71.85q1.6 -29.75 2.25 -59.25q1.3 -59.95 6.5 -119.15q1.4 -15.75 1.85 -31.2q15.55 54.45 29.7 109.35q14.8 57.3 23.9 115.4q2.85 17.9 7.75 34.35q-0.9 12.85 3.2 23.7q1.8 -2.65 3.05 -5.6q1.4 -1.15 1.2 -2.9q6.2 -58.95 7.05 -118.55q0.85 -59.9 4.8 -119.25q2.05 -30.65 1.75 -59.25q-3.55 59.2 -6.5 118.4q-2.95 59.35 -9.4 118.35q-1.5 13.65 4.55 21.65q5.65 -22.7 6.8 -47.15q2.4 -44.75 1 -88.6q-3.45 1.5 -3.5 6.25q-0.35 24.5 -1.85 48.8<g id="108" transform="matrix(1, 0, 0, 1, -82.7, 0)">
<path style="fill:#000000;fill-opacity:1" d="M366.95,142.75Q362.45 122.7 344.15 113.25Q332.5 107.25 319.65 110.75Q291.4 118.5 283.15 147.3L279.95 158.15Q265.05 206.8 263.65 258.75Q262.2 312.1 281.15 360.9Q290.3 384.55 314.7 391Q341.55 398.1 362.7 379.25Q368.1 374.45 373.95 375.2L374.3 376.7Q374.85 378.65 374.05 380.5Q372.95 383.05 372.2 385.7Q337.75 420.3 297.15 395.2Q286.1 388.4 280.15 376.9Q261.8 341.5 259.9 301.55Q257.15 242.55 266.8 184.5Q274.05 141.25 302.15 108.45Q308.85 100.65 319.45 98.85L325.95 97.5Q368.05 101.45 367.35 142.25L366.95 142.75M478.2,106.25Q480.25 164.75 479.3 224.75L479 243.65Q479.6 245.4 479.75 247.25Q479.85 248.8 479.55 250.25L479.4 250.95L478.85 252.85Q478 298.4 476.8 343.95Q476 374 470.95 401.45Q465.9 388.15 467.2 371.65Q471.7 313.3 473.8 254.55L441.95 253.55L407.6 253.3L403.8 334.25Q402.05 369.25 398.7 403.2Q392.45 391.55 393.5 374.15Q397.2 314.5 399.8 254.95Q402.4 195.6 403.65 136.5Q404.15 115.4 410.2 97.25Q411.5 155.9 409.15 215.8L408.2 240Q441.35 239.6 474.2 241.45Q475.7 187.45 473.75 133.25Q473.2 118.25 478.2 106.25M237.45,155.5Q233.5 214.85 232.65 274.75Q231.8 334.35 225.6 393.3L224.9 397.8L225.65 404.55Q225.85 406.3 224.45 407.45L223 403.85Q221.75 406.8 219.95 409.45Q215.85 398.6 216.75 385.75Q211.85 369.3 209 351.4Q199.9 293.3 185.1 236Q170.95 181.1 155.4 126.65Q154.95 142.1 153.55 157.85Q148.35 217.05 147.05 277Q146.4 306.5 144.8 336.25Q142.85 372.6 136.45 408.1Q136.35 408.6 135.45 408.95Q132.35 380.05 136.45 349.5Q138.5 334.6 139.9 319.7Q145.45 260.6 145.75 200.5Q145.9 174.2 147.45 148Q148.55 129.3 152.05 112.4Q151.25 105.8 152.1 99.25Q152.25 98.25 153.2 98.5L154.45 102.3L155.45 98.5L155.6 105.85Q172.5 158.3 185.75 212.2Q199.85 269.65 212.75 327.2Q216.8 345.35 219.9 363.55Q227.1 312.5 227.75 260.5Q228.55 200.95 230.7 141.9Q231.6 117.4 239.2 96.25Q239.5 124.85 237.45 155.5M101.95,100.75Q102 96 105.45 94.5Q106.85 138.35 104.45 183.1L101.4 242.25L95.55 360.8Q94.4 385.25 88.75 407.95Q82.7 399.95 84.2 386.3Q90.65 327.3 93.6 267.95Q96.55 208.75 100.1 149.55Q101.6 125.25 101.95 100.75" />
</g>
</svg>
