<?xml version="1.0" encoding="utf-8"?>
<svg version="1.1" id="Layer_1"
xmlns="http://www.w3.org/2000/svg"
xmlns:xlink="http://www.w3.org/1999/xlink"


xml:space="preserve">
q7.65 7.7 15 12.25q-3.15 -34.75 -41.85 -32.75q-43.05 5.1 -57.05 44.35q-18.6 52.05 -27.6 106.6q-9.65 58.25 -6.5 118q3.25 61.1 39.2 110.85q6.75 9.35 18.15 10.9q22.65 3.1 43.35 -9.85q12.85 -8.05 18 -18.45q-3.55 18.05 1.45 33.05q5.45 -11.3 6.25 -25.2q0.75 -13.05 2.25 -26.1q3 -26.35 0 -51.2q-21.85 5.95 -43.5 6q-0.85 3 0.1 5.95q17.75 7.1 33.5 -2.25q-1.3 13.85 -2.2 27.75q-3.3 0.7 -5.55 3.2q-1.75 1.95 -2.3 4.5q-0.25 0.4 -0.15 0.6q0.55 1.15 -0.1 2.1q-14.35 22.9 -43.85 27.6q-9.5 1.55 -16.65 -4.3q-27.8 -22.55 -36.95 -57.6q-15.2 -57.95 -6.7 -117.9q8.15 -57.75 21.75 -114.55q4.35 -18.3 13.95 -34.5q20 -33.8 61.9 -30.05q7.4 0.7 12.3 5.65q-21.05 -1.5 -37.6 12.85q-15.6 13.4 -23.1 32.55q-7.35 18.8 -10.5 38.75q-3.2 19.9 -2.65 39.8q0.65 22.65 14.55 39.45q13.6 16.6 34.8 20.3q22.75 3.9 37.15 -14.75q4.35 -5.7 5.8 -12.4q-4.45 23.6 2.2 45.65q9.1 -38.6 0.9 -78.55q-19.65 -9.3 -35.4 1.05q16.2 -2.25 32.25 3.6q-5.95 27.55 -35.95 27.5q-15.95 -0.05 -28.75 -9.85q-7.4 -5.65 -11.25 -13.95q-3.45 -7.3 -5.1 -15.25q-2.15 -10.6 -1.9 -21.3q0.95 -36.4 21.25 -66.25q14.75 -21.7 40.2 -25.7q17.85 -3.05 30.75 10.05q-0.05 -24.35 -24.4 -25.45q6.75 -32.75 -35.8 -44.8q-25.25 -7.1 -44.7 8.7q-16.1 13 -25.35 31.75q-15.7 31.85 -21.65 67.4q-7.3 43.65 -7.95 87.9q-0.25 14.85 -0.25 29.75q0 22.15 1.35 44.4q0.9 14.7 2.15 29.4q0.5 5.55 1.35 11.05q0.85 5.4 2.1 10.75q1.35 5.9 3.05 11.7q2.65 9.1 6.4 17.85q7.5 17.5 18.05 33.5q8.8 13.5 22.75 20.85q18.65 9.85 38.75 1.5q20.2 -8.45 34.2 -25.4q12.15 -14.7 7.45 -33.05q-26.2 49.75 -74.9 39.35q-8.75 -1.85 -15.65 -8.3q-14.05 -13.15 -22 -30.45q-8.05 -17.5 -12.25 -36.35q-6.1 -27.3 -7.45 -55.35q-0.5 -10.9 -0.35 -21.5q0.1 -10.2 0.35 -20.35q36.7 0.6 72.7 -6.05q3.25 -6.65 -0.35 -13.05q-2.4 -88.7 41.75 -161.35q11.3 -18.55 33.45 -19.95q17.65 -0.05 34.25 6.2q10.25 3.8 15.6 13.35q-14.4 0.15 -27.95 5.05q-0.2 1.45 0 2.9q0.15 1.35 0.7 2.6q-0.7 37.95 -6.25 75.25q-1.65 11.1 3.4 18.95q5.9 -13.9 6.55 -30.55q8.35 33.3 21.75 65.85q8.5 20.75 22 38.75q-3.45 -34.8 -22.05 -70.1q-9.6 -18.15 -17.7 -37q13.35 -9.8 20.35 -24.85q9.85 -21.25 1.3 -42.9q28.05 -9.15 38.4 15.5q-6.55 40.5 -45.9 49.15q1.6 -32 3.6 -63.85<g id="128" transform="matrix(1, 0, 0, 1, -47.85, 0)">
<path style="fill:#000000;fill-opacity:1" d="M416.4,81.1Q374.5 77.35 354.5 111.15Q344.9 127.35 340.55 145.65Q326.95 202.45 318.8 260.2Q310.3 320.15 325.5 378.1Q334.65 413.15 362.45 435.7Q369.6 441.55 379.1 440Q408.6 435.3 422.95 412.4Q423.6 411.45 423.05 410.3Q422.95 410.1 423.2 409.7L423.6 409.65Q424.15 407.1 425.9 405.15Q428.15 402.65 431.45 401.95L432.5 407.1L433 400.45Q433.9 386.55 435.2 372.7L431.95 371.95Q416.2 381.3 398.45 374.2L395.7 371.2Q394.75 368.25 395.6 365.25L395.95 364.45Q417.6 364.4 439.45 358.45Q442.45 383.3 439.45 409.65Q437.95 422.7 437.2 435.75Q436.4 449.65 430.95 460.95Q425.95 445.95 429.5 427.9Q424.35 438.3 411.5 446.35Q390.8 459.3 368.15 456.2Q356.75 454.65 350 445.3Q314.05 395.55 310.8 334.45Q307.65 274.7 317.3 216.45Q326.3 161.9 344.9 109.85Q358.9 70.6 401.95 65.5Q440.65 63.5 443.8 98.25L443.7 99Q436.35 94.45 428.7 86.75Q423.8 81.8 416.4 81.1M294.7,95.25Q281.8 82.15 263.95 85.2Q238.5 89.2 223.75 110.9Q203.45 140.75 202.5 177.15Q202.25 187.85 204.4 198.45Q206.05 206.4 209.5 213.7Q213.35 222 220.75 227.65Q233.55 237.45 249.5 237.5Q279.5 237.55 285.45 210L288.45 216.95L289.2 205.75Q273.15 199.9 256.95 202.15L256.45 194.5Q272.2 184.15 291.85 193.45Q300.05 233.4 290.95 272Q284.3 249.95 288.75 226.35Q287.3 233.05 282.95 238.75Q268.55 257.4 245.8 253.5Q224.6 249.8 211 233.2Q197.1 216.4 196.45 193.75Q195.9 173.85 199.1 153.95Q202.25 134 209.6 115.2Q217.1 96.05 232.7 82.65Q249.25 68.3 270.3 69.8Q294.65 70.9 294.7 95.25M163.5,77.9Q146.9 71.65 129.25 71.7Q107.1 73.1 95.8 91.65Q51.65 164.3 54.05 253L125.85 244.2Q129.45 250.6 126.2 257.25Q90.2 263.9 53.5 263.3L53.2 273.5Q52.95 283.65 52.85 293.85Q52.7 304.45 53.2 315.35Q54.55 343.4 60.65 370.7Q64.85 389.55 72.9 407.05Q80.85 424.35 94.9 437.5Q101.8 443.95 110.55 445.8Q159.25 456.2 185.45 406.45Q190.15 424.8 178 439.5Q164 456.45 143.8 464.9Q123.7 473.25 105.05 463.4Q91.1 456.05 82.3 442.55Q71.75 426.55 64.25 409.05Q60.5 400.3 57.85 391.2Q56.15 385.4 54.8 379.5Q53.55 374.15 52.7 368.75Q51.85 363.25 51.35 357.7Q50.1 343 49.2 328.3Q47.85 306.05 47.85 283.9Q47.85 269 48.1 254.15Q48.75 209.9 56.05 166.25Q62 130.7 77.7 98.85Q86.95 80.1 103.05 67.1Q122.5 51.3 147.75 58.4Q190.3 70.45 183.55 103.2L180.45 93L179.1 91.25Q173.75 81.7 163.5 77.9M262.4,280.3L263.05 281.1L264.6 284.35Q273.15 306 263.3 327.25Q256.3 342.3 242.95 352.1Q251.05 370.95 260.65 389.1Q279.25 424.4 282.7 459.2Q269.2 441.2 260.7 420.45Q247.3 387.9 238.95 354.6L217.95 361.25L215.6 425.35Q214.95 442 209.05 455.9Q204 448.05 205.65 436.95Q211.2 399.65 211.9 361.7L211.05 360.45Q210.5 359.2 210.35 357.85Q210.15 356.4 210.35 354.95L211.2 350.45L212.6 350.25L216.9 284.5L214.8 283.1L214.7 277L218.5 275.55Q232.05 270.65 246.45 270.5L262.4 280.3M222.15,285.3Q220.15 317.15 218.55 349.15Q257.9 340.5 264.45 300Q254.1 275.35 226.05 284.5L222.15 285.3" />
</g>
</svg>
