<?xml version="1.0" encoding="utf-8"?>
<svg version="1.1" id="Layer_1"
xmlns="http://www.w3.org/2000/svg"
xmlns:xlink="http://www.w3.org/1999/xlink"


xml:space="preserve">
q-19.7 7.45 -28.65 26.6q-4.65 9.9 -6.2 20.7q-0.1 17.15 8 32.1q3.85 7.15 9.05 13.4q18.7 5.1 37 -1.4q15.1 -5.35 17.2 -21q-15.8 12.6 -35.9 14.95q-9.05 0.95 -18.1 -0.45q-10.95 -9.55 -12.3 -24.25q1.05 -1.8 1.3 -3.75q0.3 -2.25 -0.2 -4.55q-0.55 -2.4 -1.85 -4.45q-28.35 -0.65 -56.15 5.4q3.05 -18.05 17.7 -29.05q21.75 -16.15 40.45 4.15q-4.55 -2.3 -8.9 -4.9q-5.1 -3.1 -10.9 -2.2<g id="113" transform="matrix(1, 0, 0, 1, -233.45, 0)">
<path style="fill:#000000;fill-opacity:1" d="M282.3,268.3Q286.65 270.9 291.2 273.2L300.45 285.95L296.45 287.95Q277.75 267.65 256 283.8Q241.35 294.8 238.3 312.85Q266.1 306.8 294.45 307.45Q295.75 309.5 296.3 311.9Q296.8 314.2 296.5 316.45Q296.25 318.4 295.2 320.2L238.5 321.95L239.65 331.45Q241 346.15 251.95 355.7Q261 357.1 270.05 356.15Q290.15 353.8 305.95 341.2L305.65 345.3Q303.55 360.95 288.45 366.3Q270.15 372.8 251.45 367.7Q246.25 361.45 242.4 354.3Q234.3 339.35 234.4 322.2L233.45 313.95L235.1 313.55Q236.65 302.75 241.3 292.85Q250.25 273.7 269.95 266.25L271.4 266.1Q277.2 265.2 282.3 268.3" />
</g>
</svg>
