<?xml version="1.0" encoding="utf-8"?>
<svg version="1.1" id="Layer_1"
xmlns="http://www.w3.org/2000/svg"
xmlns:xlink="http://www.w3.org/1999/xlink"


xml:space="preserve">
q-24.15 -1.4 -49.35 -0.9q-28.4 1.8 -54.55 9.3q-0.6 1.45 -0.5 3.05q0.05 0.95 0.5 1.85q-2 13.75 -2.2 28.35q-0.65 48.5 -4 96.55q-3.35 48.2 -6 96.65q-1.4 25.15 2.3 48.15q3.7 -8.6 3.25 -18.75q-0.65 -0.75 -0.95 -1.5q0.55 -31.9 2.95 -63.55q3.65 -47.85 4.6 -96.05q0.85 -44.85 1 -89.35q31.85 -1.8 63.6 -0.35q0.65 -1.5 0.8 -3.05q0.2 -1.9 -0.55 -3.7q-0.3 -0.3 -0.6 -0.3q1.6 36.55 2.7 73.25q-17.4 -0.55 -34.1 2.25q-1.25 -48.3 -1.6 -96.05q-1.9 3.85 -2.05 9.6q-1.05 38.95 0.85 77.7q0.7 35.85 -0.5 71.7q-0.85 24.15 -2.3 48.2q-1.5 25.2 1.8 48.2q3.7 -8.05 4.05 -17.55q0.7 -45.9 0.95 -91.75q0.05 -12.35 -0.3 -24.45q0.8 29.85 -0.6 59.85q-2.25 48.95 -0.95 96.7q1.3 -2.6 1.45 -5.5q1.75 -48.3 0.45 -96.65q1.5 -1.1 1.4 -3.05q-0.05 -1.25 -0.55 -2.4q-3.35 39.5 -1.55 80.75q0.1 48.45 -1.85 96.65q-0.65 16.05 -1.15 32.15q-15.75 -0.15 -30.75 4.05q0.55 -33.2 0.7 -66.2q0.25 -48.75 1.7 -96.6q-0.5 1 -0.35 2.2q-2 48.55 -2.35 97.2q-0.3 42.3 -2.45 84.35q-2.5 48.35 -2.5 97.25q0.05 12.25 -1.4 24.3q-1.6 13.95 3.25 23.8q2.05 -3.6 2.05 -7.95q-0.15 -48.45 1.45 -96.6q24.25 -0.9 48.8 -0.6q-0.95 28.3 -1.55 56.7q-1 48.3 -4.65 96.5q-1.05 13.7 3.25 23.95q3.05 -3.2 1.85 -7.3q2.45 -48.05 2.85 -96.65q0.5 -34.3 1.4 -68.55q1.3 -48.75 1.35 -96.6q-4.2 15.6 -4.2 33.6q1.8 48.35 2.05 97.2q0.25 48.2 1.4 96.65q0.85 36.3 -3 72q-1.4 13.25 2.4 24.4q3.9 -19.95 3.7 -41.4q-0.35 -48.4 -1.6 -97.2q-1.25 -48.05 -1.65 -96.65q-0.4 -48.55 -1.9 -96.6q-2.2 20.05 -1.4 41.6q13.2 -16.9 29.1 -5.15q5.45 4 7.35 9.4q2.05 -18.9 -15.7 -23.95q-2.55 -0.8 -5.15 -1.25q-27.95 23.7 -36.4 60.5q-18.15 79 -11.3 160.3q3.3 39.55 16.8 76.35q3.4 9.35 9.6 16.95q27.1 -0.1 35.3 -29.15q2.85 -10.2 2 -20.6q-3.4 30.25 -29 38.25q-3.65 1.1 -7.5 0.7q-24.85 -35.6 -26.3 -82.3q-0.75 -24.05 -2.6 -48.1q-5.65 -72.75 21.35 -139.25q3.65 -9.1 8.25 -17.8q-2.6 -10.1 -10.8 -16.2q-8.45 2.75 -16.05 7.65q-10.6 6.85 -17.15 17.55q-23.3 38.1 -26.45 82.6q-2.05 28.95 -2.65 58.2q-0.75 2.6 0.6 4.9q-0.4 48.4 7.5 95.35q1.05 6.25 1.7 12.4q3.15 31.35 31.05 42q10 3.8 20.3 1.25q13.4 -3.25 19.35 -16.6q6.85 -15.35 8.1 -30.45q-7.25 7.9 -10.6 18.95q-6.3 20.85 -27.7 18.95q-26.3 -2.35 -32.55 -26.65q-12.2 -47.3 -12.95 -96.65q-0.2 -13.6 -0.05 -27.1q27 -1.45 53.65 -6.55q1.75 -3.6 -0.5 -6.7q-26.95 4.55 -53.55 7.95q0.6 -31.35 3.25 -62.3q3 -35.2 20.05 -66.2q14.65 -26.6 44.1 -28.85q4.15 2.35 5.35 7.05q1.6 6.3 5.9 9.65q0.7 -3.95 -0.45 -8.45q-0.35 1.2 -0.3 2.45q0.1 1.4 1.1 2.45q14.45 0.35 28.75 -1.65q-1.5 41.45 -2.55 83.2q-0.25 10.45 3.95 16.9q1.75 -4.35 1.5 -9.2q-0.8 -14 0.15 -28q2.4 -35.75 -1.45 -70.45q-0.3 -0.3 -0.65 -0.35<g id="137" transform="matrix(1, 0, 0, 1, -44.7, 0)">
<path style="fill:#000000;fill-opacity:1" d="M460.85,85.2L461.1 85.8Q461.85 87.6 461.65 89.5Q461.5 91.05 460.85 92.55Q429.1 91.1 397.25 92.9Q397.1 137.4 396.25 182.25L394.4 278.85Q393.45 327.05 389.8 374.9Q387.4 406.55 386.85 438.45Q387.15 439.2 387.8 439.95L388.1 440.5Q388.55 450.65 384.85 459.25Q381.15 436.25 382.55 411.1Q385.2 362.65 388.55 314.45Q391.9 266.4 392.55 217.9L393.85 121.3Q394.05 106.7 396.05 92.95L365.25 95.45L315.95 100.9L315.55 100.3Q315.1 99.4 315.05 98.45Q314.95 96.85 315.55 95.4Q341.7 87.9 370.1 86.1L410.9 84Q436.1 83.5 460.25 84.9Q460.55 84.9 460.85 85.2M350.8,114.55L354 211.15L355.8 269.15L356.5 269.45L356.95 270.15Q357.45 271.3 357.5 272.55Q357.6 274.5 356.1 275.6L355.95 275.6L356.85 307.8Q358.15 356.15 356.4 404.45L354.7 442.35Q354.55 445.25 353.25 447.85L351 448.45Q349.7 400.7 351.95 351.75Q353.35 321.75 352.55 291.9L352.15 275.5L305.15 273.15L306 305.15Q306.35 317.25 306.3 329.6Q306.05 375.45 305.35 421.35L306.55 423.55Q306.2 433.05 302.5 441.1Q299.2 418.1 300.7 392.9Q302.15 368.85 303 344.7Q304.2 308.85 303.5 273L302.7 272.95L302.55 272.3L302.5 271.7L302.5 271.1L302.7 269.9L303.45 269.8L302.75 248L300.65 199.8Q298.75 161.05 299.8 122.1Q299.95 116.35 301.85 112.5Q302.2 160.25 303.45 208.55L305.05 269.5Q321.75 266.7 339.15 267.25L351.95 268.55Q350.85 231.85 349.25 195.3Q347.45 154.05 350.8 114.55M474.7,105.4Q474.65 153.25 473.35 202Q472.45 236.25 471.95 270.55L471.9 274.15L471.6 298.6Q471.2 347.2 468.75 395.25L466.15 445.4Q467.35 449.5 464.3 452.7Q460 442.45 461.05 428.75Q464.7 380.55 465.7 332.25Q466.3 303.85 467.25 275.55Q442.7 275.25 418.45 276.15L417.95 301.9L416.65 350.2Q415.05 398.35 415.2 446.8Q415.2 451.15 413.15 454.75Q408.3 444.9 409.9 430.95Q411.35 418.9 411.3 406.65Q411.3 357.75 413.8 309.4Q415.95 267.35 416.25 225.05Q416.6 176.4 418.6 127.85L419.05 112.5L420.3 110.3Q420.15 109.1 420.65 108.1L420.9 108.05Q419.45 155.9 419.2 204.65Q419.05 237.65 418.5 270.85Q433.5 266.65 449.25 266.8L467.5 267.8Q468 251.7 468.65 235.65Q470.6 187.45 470.5 139Q470.5 121 474.7 105.4M170.6,103.35Q172.1 151.4 172.5 199.95Q172.9 248.55 174.15 296.6Q175.4 345.4 175.75 393.8Q175.95 415.25 172.05 435.2Q168.25 424.05 169.65 410.8Q173.5 375.1 172.65 338.8Q171.5 290.35 171.25 242.15Q171 193.3 169.2 144.95Q168.4 123.4 170.6 103.35M224.8,150.45Q197.8 216.95 203.45 289.7Q205.3 313.75 206.05 337.8Q207.5 384.5 232.35 420.1Q236.2 420.5 239.85 419.4Q265.45 411.4 268.85 381.15Q269.7 391.55 266.85 401.75Q258.65 430.8 231.55 430.9L227.35 425.8Q221.15 418.2 217.75 408.85Q204.25 372.05 200.95 332.5Q194.1 251.2 212.25 172.2Q220.7 135.4 248.65 111.7Q251.25 112.15 253.8 112.95Q271.55 118 269.5 136.9Q267.6 131.5 262.15 127.5Q246.25 115.75 233.05 132.65Q228.45 141.35 224.8 150.45M129.65,131.05Q125.35 127.7 123.75 121.4Q122.55 116.7 118.4 114.35Q88.95 116.6 74.3 143.2Q57.25 174.2 54.25 209.4Q51.6 240.35 51 271.7Q77.6 268.3 104.55 263.75Q106.8 266.85 105.05 270.45L104.55 271.1Q77.9 276.2 50.9 277.65Q50.75 291.15 50.95 304.75Q51.7 354.1 63.9 401.4Q70.15 425.7 96.45 428.05Q117.85 429.95 124.15 409.1Q127.5 398.05 134.75 390.15Q133.5 405.25 126.65 420.6Q120.7 433.95 107.3 437.2Q97 439.75 87 435.95Q59.1 425.3 55.95 393.95Q55.3 387.8 54.25 381.55Q46.35 334.6 46.75 286.2L46.85 277.85L46.05 277.85Q44.7 275.55 45.45 272.95L45.65 272.35L46.95 272.2Q47.55 242.95 49.6 214Q52.75 169.5 76.05 131.4Q82.6 120.7 93.2 113.85Q100.8 108.95 109.25 106.2L118.4 106.4Q126.6 112.5 129.2 122.6Q130.35 127.1 129.65 131.05M274.9,330.25Q275.25 330.3 275.55 330.6Q279.4 365.3 277 401.05Q276.05 415.05 276.85 429.05Q277.1 433.9 275.35 438.25Q271.15 431.8 271.4 421.35Q272.45 379.6 273.95 338.15Q259.65 340.15 245.2 339.8Q244.2 338.75 244.1 337.35Q244.05 336.1 244.4 334.9L272.3 329.8L274.9 330.25" />
</g>
</svg>
