<?xml version="1.0" encoding="utf-8"?>
<svg version="1.1" id="Layer_1"
xmlns="http://www.w3.org/2000/svg"
xmlns:xlink="http://www.w3.org/1999/xlink"


xml:space="preserve">
q43.55 25.2 56.9 75.1q15.45 57.85 12.95 118.05q-2 47.4 -29.2 85.4q-9.4 13.15 -23.15 22.25q-17.4 10.95 -36.85 8.2q3.35 -58.35 6.05 -116.9q2.75 -59.2 5 -118.5q2.05 -55.3 3.4 -109.1q14.85 4.45 30.9 6.1q6.25 0.65 11.55 3.75q-3.75 -59.7 -25.15 -114.95q-23.55 -60.7 -89.55 -62.95q-0.9 -1.65 -2.8 -1.55q-0.65 0.2 -1.15 1.05q-1.3 2 -1.15 4.45q-6.5 48.25 -7.7 97.85q-1.35 59.3 -4.25 118.5q-2.95 59.8 -7.5 119.2q-0.4 5.6 -1.85 10.85q-3.8 14.15 4.35 21.9q3.8 1.45 8 1.2q27.65 -1.65 49.55 -20.95q5.1 -2.2 10.2 -4.95q32.05 -17.3 46.9 -49.2q25.15 -54.05 21.35 -115.15q-0.55 12.3 -1.6 24.6q-3.65 42.8 -4.5 86.4q-1.2 59.6 -4.45 119.15q-1.65 30.65 1.55 59.3q2.05 1.3 2.2 -0.8q3.15 -33.35 3.95 -68.15q1.25 -59.15 3.15 -118.55q0.45 -14.95 2.05 -29.8q4 -37.5 -0.85 -73.65q-1.45 -0.1 -1.5 1.5q-9.55 18.9 -15.75 41q-16.25 57.6 -34.15 114.8q-4.6 14.65 -8.95 29.35q-0.5 1.05 -0.55 2.2q-0.1 1.4 0.2 2.65q-11.55 39.25 -21.4 78.7q-7.2 28.8 -18.2 56.35q-8.85 22.2 -6.75 43.3q4.1 -1.85 5.3 -6.85q5.85 -24.8 12.85 -49.25q16.1 -56.4 31.35 -113.75q41.9 7.45 85.05 3.05q10.75 57.85 18 116.3q3.8 30.55 13.15 56.95q1.75 -1.4 1.65 -3.7q-1.35 -24.6 -5.9 -49.05q-8.05 -43.2 -15.8 -86.5q-10.45 -58.15 -19.9 -116.45q-9.35 -57.45 -21.8 -113.4<g id="140" transform="matrix(1, 0, 0, 1, -55.4, 0)">
<path style="fill:#000000;fill-opacity:1" d="M330.6,106.1Q314.55 104.45 299.7 100L299 99.15Q297.65 152.95 295.6 208.25Q293.35 267.55 290.6 326.75Q287.9 385.3 284.55 443.65Q304 446.4 321.4 435.45L359.65 410.65Q373.4 401.55 382.8 388.4Q410 350.4 412 303Q414.5 242.8 399.05 184.95Q385.7 135.05 342.15 109.85Q336.85 106.75 330.6 106.1M397.05,382.55Q382.2 414.45 350.15 431.75Q345.05 434.5 339.95 436.7Q318.05 456 290.4 457.65Q286.2 457.9 282.4 456.45L280.7 460.95Q272.55 453.2 276.35 439.05Q277.8 433.8 278.2 428.2Q282.75 368.8 285.7 309Q288.6 249.8 289.95 190.5Q291.15 140.9 297.65 92.65L297.65 92.5Q297.5 90.05 298.8 88.05Q299.3 87.2 299.95 87Q301.85 86.9 302.75 88.55L303.7 89.5Q369.7 91.75 393.25 152.45Q414.65 207.7 418.4 267.4Q422.2 328.5 397.05 382.55M254.2,96.25Q259.05 132.4 255.05 169.9Q253.45 184.75 253 199.7Q251.1 259.1 249.85 318.25Q249.05 353.05 245.9 386.4Q245.75 388.5 243.7 387.2Q240.5 358.55 242.15 327.9Q245.4 268.35 246.6 208.75Q247.45 165.15 251.1 122.35Q252.15 110.05 252.7 97.75Q252.75 96.15 254.2 96.25M164.7,88.85Q177.15 144.8 186.5 202.25Q195.95 260.55 206.4 318.7Q214.15 362 222.2 405.2Q226.75 429.65 228.1 454.25Q228.2 456.55 226.45 457.95Q217.1 431.55 213.3 401Q206.05 342.55 195.3 284.7L194 277.5Q150.85 281.9 108.95 274.45L107 281.6Q91.75 338.95 75.65 395.35Q68.65 419.8 62.8 444.6Q61.6 449.6 57.5 451.45Q55.4 430.35 64.25 408.15Q75.25 380.6 82.45 351.8Q92.3 312.35 103.85 273.1Q103.55 271.85 103.65 270.45Q103.7 269.3 104.2 268.25L105.35 268.15Q109.7 253.45 114.3 238.8Q132.2 181.6 148.45 124Q154.65 101.9 164.2 83L164.7 88.85M163.8,101.55L110.85 267.55L191.55 264L163.8 101.55" />
</g>
</svg>
