<?xml version="1.0" encoding="utf-8"?>
<svg version="1.1" id="Layer_1"
xmlns="http://www.w3.org/2000/svg"
xmlns:xlink="http://www.w3.org/1999/xlink"


xml:space="preserve">
q-17.7 -7.5 -36.65 -9.6q-10.95 -1.15 -21.85 -0.4q-16.5 9.3 -29.55 23.05q-15.75 16.6 -24.85 37.75q-13.2 30.7 -16.95 63.85q-6 53.25 -8.7 106.9q-1.25 25 1.1 49.65q0.9 9.3 3.75 18.1q2.85 6.45 6.7 12.15q12.4 18.3 31.3 29.85q19.85 12.05 43.15 8.4q21.35 -3.45 39.45 -15.65q16.9 -11.4 31.35 -25.65q6.45 -6.25 5.6 -15.35q-0.35 -3.65 -1.6 -7.05q-21.7 23.65 -48.7 40.55q-14.45 9.05 -31.5 9.5q-17.6 0.45 -33.45 -7.4q-10.45 -5.2 -18.85 -13.2q-8.2 -7.9 -13.6 -18.1q-4.5 -8.5 -7.15 -17.8q-2.75 -13.5 -2.25 -27.25q29.55 7.3 59.9 6.35q0.95 -1.3 1.15 -2.75q0.5 -3.15 0.3 -6.3q-0.1 -1.4 -0.85 -2.55q3.45 -50.2 23.15 -96.35q10.45 -24.5 29.25 -43.35q12.35 -12.35 30.25 -13.85q11.7 -0.5 23.3 1.2q8.85 1.5 16.85 4.65q1.3 0.3 2.35 1.05q2.4 -1.65 0.85 -5.45q-2.4 -5.7 -7.5 -10.2q-11.3 57.25 -29.1 113.4q-8.85 27.95 -17 56.2q-16.3 56.75 -30.55 114.5q-7 28.45 -15.8 56.4q-7.15 22.65 -3.95 42.95q3.5 -5.85 5.15 -13.15q13.25 -57.35 28.95 -114.4q6.9 -25.1 13.4 -50.25q12.95 0.8 25.45 -4.4q31.65 -7.4 64.15 -10.05q13.15 58.2 29.35 116.05q8.45 30.1 20.75 56.55q2.3 -2.05 1.95 -5.15q-1.95 -18.1 -7.75 -35.65q-18.6 -56.15 -33.15 -113.8q3 -6.2 -0.7 -11.95q-7.85 -32.5 -15.15 -65.1q-12.95 -57.85 -27.95 -114.6q-0.95 -0.15 -0.9 0.7q10.2 42 19.9 83.95q-42.5 3.8 -83.6 14.65q14 -57.3 31.8 -114.1q7.7 -24.45 8.75 -48.6q3.3 31.85 11.3 63.6<g id="131" transform="matrix(1, 0, 0, 1, -81.8, 0)">
<path style="fill:#000000;fill-opacity:1" d="M423.2,86.5Q428.3 91 430.7 96.7Q432.25 100.5 429.85 102.15Q428.8 101.4 427.5 101.1L426.65 100.55L424.6 98.8L422.85 97.7L415.6 94.45Q407.6 91.3 398.75 89.8Q387.15 88.1 375.45 88.6Q357.55 90.1 345.2 102.45Q326.4 121.3 315.95 145.8Q296.25 191.95 292.8 242.15L350.95 243.75L352.8 245.65Q353.55 246.8 353.65 248.2Q353.85 251.35 353.35 254.5Q353.15 255.95 352.2 257.25Q321.85 258.2 292.3 250.9L289.65 324.6Q289.15 338.35 291.9 351.85L292.9 356.35L294.05 360.8L295.2 365.25Q297.85 374.55 302.35 383.05Q307.75 393.25 315.95 401.15Q324.35 409.15 334.8 414.35Q350.65 422.2 368.25 421.75Q385.3 421.3 399.75 412.25Q426.75 395.35 448.45 371.7Q449.7 375.1 450.05 378.75Q450.9 387.85 444.45 394.1Q430 408.35 413.1 419.75Q395 431.95 373.65 435.4Q350.35 439.05 330.5 427Q311.6 415.45 299.2 397.15Q295.35 391.45 292.5 385L291.15 381.65L289.9 378.45L288.75 375.05Q285.9 366.25 285 356.95Q282.65 332.3 283.9 307.3Q286.6 253.65 292.6 200.4Q296.35 167.25 309.55 136.55Q318.65 115.4 334.4 98.8Q347.45 85.05 363.95 75.75Q374.85 75 385.8 76.15Q404.75 78.25 422.45 85.75L423.2 86.5M181.3,65.7Q181.25 64.85 182.2 65Q197.2 121.75 210.15 179.6Q217.45 212.2 225.3 244.7L227.45 244.5Q231.15 250.25 228.15 256.45L228.15 256.5L237.5 294.35Q252.05 352 270.65 408.15Q276.45 425.7 278.4 443.8Q278.75 446.9 276.45 448.95Q264.15 422.5 255.7 392.4Q239.5 334.55 226.35 276.35L222.1 257.7Q189.6 260.35 157.95 267.75Q145.45 272.95 132.5 272.15Q126 297.3 119.1 322.4Q103.4 379.45 90.15 436.8Q88.5 444.1 85 449.95Q81.8 429.65 88.95 407Q97.75 379.05 104.75 350.6Q119 292.85 135.3 236.1Q143.45 207.85 152.3 179.9Q170.1 123.75 181.4 66.5L181.3 65.7M193.35,137.1Q185.35 105.35 182.05 73.5Q181 97.65 173.3 122.1Q155.5 178.9 141.5 236.2L135.65 259.85Q176.75 249 219.25 245.2Q209.55 203.25 199.35 161.25L193.35 137.1" />
</g>
</svg>
