<?xml version="1.0" encoding="utf-8"?>
<svg version="1.1" id="Layer_1"
xmlns="http://www.w3.org/2000/svg"
xmlns:xlink="http://www.w3.org/1999/xlink"


xml:space="preserve">
q-15.5 13 -24.6 31.1q-9.1 18.2 -13.3 38.05q-4.35 20.65 -2.35 41.75q2.1 22 14.15 40.5q11.3 17.3 30.65 24.45q20.1 7.55 40.45 0.75q14.1 -4.75 24.9 -14.85q-1.5 10.6 2.95 20.15q9.25 -32.4 6.65 -65.65q-12.5 0.3 -23.5 6.25q0.45 19.9 -16.75 28.9q-15.4 8 -32.85 8.45q-16.05 0.4 -30.35 -6.95q-16.85 -8.8 -23.95 -27.2q-7.8 -20.15 -6.05 -41.75q2.3 -27.95 16.4 -52.25q14.2 -24.5 40.75 -31.95q20.05 -5.8 38.8 4.15q-5.85 -21.5 -30 -26.8q-21.85 -4.7 -38.7 9.4q-3.25 4.1 -5.45 9.5q-22.2 54.8 -40 111.2q-4.4 13.9 -10.7 26.85q-10.25 21 -9.3 41.9q7.8 -13.9 12.55 -30.5q8.7 -30.25 19.1 -59.75q4.25 14.2 6 28.6q3.85 30.95 17.55 56.05q4.6 -9.2 0.9 -19.4q-9.9 -27.05 -16.75 -55.15q1.75 -3.1 1.25 -6.6q-0.2 -1.25 -1.1 -2.2q-10.85 -42.4 -23.1 -84.45q-21.9 0.05 -43.4 4.65<g id="146" transform="matrix(1, 0, 0, 1, -139.55, 0)">
<path style="fill:#000000;fill-opacity:1" d="M372.45,180.95Q396.6 186.25 402.45 207.75L397.2 202.05L395.45 201.5L393.95 199.25Q375.2 189.3 355.15 195.1Q328.6 202.55 314.4 227.05Q300.3 251.35 298 279.3Q296.25 300.9 304.05 321.05Q311.15 339.45 328 348.25Q342.3 355.6 358.35 355.2Q375.8 354.75 391.2 346.75Q408.4 337.75 407.95 317.85L389.95 316.9L389.95 312.7Q400.95 306.75 413.45 306.45Q416.05 339.7 406.8 372.1L406.6 372.25Q402.15 362.7 403.65 352.1Q392.85 362.2 378.75 366.95Q358.4 373.75 338.3 366.2Q318.95 359.05 307.65 341.75Q295.6 323.25 293.5 301.25Q291.5 280.15 295.85 259.5Q300.05 239.65 309.15 221.45Q318.25 203.35 333.75 190.35Q350.6 176.25 372.45 180.95M207.2,181.25Q219.45 223.3 230.3 265.7L232.15 266.2L232.95 266.75Q233.85 267.7 234.05 268.95Q234.55 272.45 232.8 275.55L237.6 294.9Q244.45 323 254.35 350.05Q258.05 360.25 253.45 369.45Q239.75 344.35 235.9 313.4Q234.15 299 229.9 284.8L227.35 276.1L172.15 278.2Q161.75 307.7 153.05 337.95Q148.3 354.55 140.5 368.45Q139.55 347.55 149.8 326.55Q156.1 313.6 160.5 299.7Q178.3 243.3 200.5 188.5Q202.7 183.1 205.95 179L207.05 181.35L207.2 181.25M180.75,269.45Q202.25 264.85 224.15 264.8L207.2 193.6L174.8 270.8L180.75 269.45" />
</g>
</svg>
