<?xml version="1.0" encoding="utf-8"?>
<svg version="1.1" id="Layer_1"
xmlns="http://www.w3.org/2000/svg"
xmlns:xlink="http://www.w3.org/1999/xlink"


xml:space="preserve">
q-21.15 0.5 -41.9 -3.75q-16.1 -3.15 -32.5 -1.55q-6.45 60.25 -10.6 120.65q-2.05 29.55 -5.1 58.8q-10.6 96.8 -15.35 193.55q-0.25 5.05 1.95 10q5.05 -43.45 8.25 -87.15q2.6 -35.8 6.25 -71.55q3 -29.45 6.8 -58.75q13 -99.6 14.8 -200q0.25 -13.65 0 -27.3q1.2 -1.6 1.55 -3.8q0.05 -2.3 -0.25 -4.5q14.45 -1.55 28.4 2.15q7.65 2 14.6 6.1q1.15 -1.85 0.5 -4.2q-0.6 -2.3 -2.3 -4.05q-2 -1.2 -3.6 -2.65q-14.15 -4.85 -29.25 -5.15q-17.35 10.95 -23.15 30.8q-6.05 20.5 -5.65 42q0.4 20.75 7.35 40.35q8.1 22.8 31.8 21.2q20.5 -1.85 31.5 -21.8q5.85 -10.65 3.6 -21.35q-6.9 2.3 -10.35 10.7q-4.7 11.5 -14.35 19.3q-10 0.95 -18.7 -4q-8.4 -4.7 -13.5 -12.75q-6.25 -9.9 -8.1 -21.55q-1.55 -9.9 -1.75 -19.9q0.95 -1.55 1.15 -3.2q-0.1 -1.3 -0.55 -2.5q-21.7 -2.05 -42.45 4.1q1.55 -16.95 11.05 -31.2q5.75 -8.7 13.65 -15.4q-13.85 -6.05 -29 -6.5q-28.35 21.3 -34.45 56.35q-5.85 33.4 0.15 66.15q2.95 16.15 11.8 30.25q21 -1.9 34.9 -19.65q6.3 -7.95 4.3 -17.8q-3.95 22 -0.1 42.25q5.45 -26.9 3.85 -54.25q-12.8 17.9 -32.35 20.25q-11.9 -26.65 -9.5 -57.15q2.35 -29.55 16.3 -55.05q5.65 -10.3 16.2 -14.85q10.95 -4.65 22.75 -2.5q-4.65 34.45 -6.2 70.4q-15.15 0.3 -30.1 -0.75q-0.55 -0.15 -1 0q1.7 -39.4 -1 -79q-2.05 55.85 -7 112.75q-1.3 15.05 -4.25 29.7q-2.75 13.4 2.75 21.8q4.3 -22.4 6.65 -45.65q1.6 -15.95 2.45 -31.95q14.75 5 30.85 4q-1.55 21.9 -4.9 43.6q-2.6 17.05 2.95 29.25q3.85 -19.9 5.3 -40.45q1.2 -1.25 1.55 -3q-0.35 -0.4 -0.7 -0.35q1.7 -37.5 1.65 -75.1q-0.5 0.1 -0.5 0.3q-4.9 5.75 -5.05 15.5q-0.9 59.5 -5.6 118.5q-1.25 14.85 -3.05 29.75q-1.65 14 5.45 21.2q2.75 -2.95 2.9 -7.2q2.2 -59.4 7.4 -118.45q5.2 -59.05 9.35 -118.5q2.1 -30.65 -1.65 -59.3q-9.1 -2.1 -18.5 -2.15q-41.25 14.05 -43.25 57.95q-1.1 24.4 -4 48.65q-3.75 30.9 15.45 53q5.5 6.3 13.8 6.05q32.4 -0.9 56.2 -24.9q0.8 -1.85 1 -3.75q0.2 -2.7 -0.35 -5.3q-0.6 -2.45 -2.9 -2.2q-10.7 11.65 -24.8 19.9q-16.55 9.7 -34.45 3.5q-8.65 -2.95 -12.1 -11.35q-9.1 -21.95 -5.8 -46.6q25.6 3.45 51.05 -3.65q1.5 1.8 3.7 0.8q2.15 -3.95 0.85 -8.3q-0.35 -1.2 -1.1 -2.2q-0.6 -0.4 -1.25 -0.45q-21.85 8 -44.75 7.3q0.35 -6.4 0.3 -12.8q-0.15 -30.4 23.8 -47.9q25.1 -18.35 45.6 1.4q2.6 -7.2 -3.5 -12.95q-0.85 26.85 6.3 53.95q2.55 9.65 4.1 19.6q4 26.1 8.45 52.15q-26.95 0.25 -52.8 3.25q11.25 -35.55 23.05 -70.65q9.65 -28.65 8.75 -57.05q-2.15 -0.1 -2.65 2.2q-12.75 58.15 -32.45 115q-0.65 2.45 -0.55 4.95q-15.25 47.7 -23.75 96.6q-1.5 8.6 -4.2 16.75q-5.25 15.8 0 28.7q9.55 -24.45 12.6 -52.15q3.05 -27.4 11 -53.65q4.9 -16.15 9.95 -32.2q28.75 4.1 58.45 1.1q4.3 24.7 8.95 49.35q5.55 29.2 8 58.7q1.15 13.95 10.25 20.1q3.2 -5.6 1.75 -12.05q-9.25 -40.75 -16.15 -82.4q-3.1 -19.05 -5.95 -38.15q0.8 -4.25 -1.3 -7.55q-8.2 -58.55 -24.35 -115.35q-0.85 -0.15 -0.85 0.25q-5.05 -9 -14.4 -13.55q-2.6 -1.3 -5.4 -2.25q-10.35 -1.25 -18.3 5.1q-10.8 65.45 -14.85 132.35q14 -30.85 12.7 -66.65q12.95 3.55 25.95 -0.75q3.65 39.3 26.1 68.65q-7.15 -35.85 -22.5 -70q15.15 -7.4 17.95 -24.35q0.5 -5.3 -0.45 -10.7q-0.85 -4.85 -3.25 -9.1q28.45 -13.4 41.25 13.2q0.6 23.4 -25 30q-9.15 2.2 -18.35 0.85<g id="139" transform="matrix(1, 0, 0, 1, -13.75, 0)">
<path style="fill:#000000;fill-opacity:1" d="M413.75,49.25Q414.05 51.45 414 53.75L413.75 56.7Q413.4 58.9 412.2 60.5L354.8 56.2Q355.05 69.85 354.8 83.5Q353 183.9 340 283.5Q336.2 312.8 333.2 342.25Q329.55 378 326.95 413.8Q323.75 457.5 318.7 500.95L317.25 497.95Q315.05 493 315.3 487.95Q320.05 391.2 330.65 294.4L336.9 235.6Q339.95 206.35 342 176.8Q346.15 116.4 352.6 56.15L280.45 57L280.45 45L299.35 43.1L337.05 39.45Q353.45 37.85 369.55 41Q390.3 45.25 411.45 44.75L412.4 45.75L413.05 46.85L413.75 49.25M367.05,383.1Q357.55 397.35 356 414.3Q376.75 408.15 398.45 410.2L399.7 412.75Q400.15 413.95 400.25 415.25L400.2 417.9Q400 419.55 399.05 421.1L356.45 424.2L355.65 423Q355.85 433 357.4 442.9Q359.25 454.55 365.5 464.45Q370.6 472.5 379 477.2Q387.7 482.15 397.7 481.2L401.7 478Q411.35 470.2 416.05 458.7Q419.5 450.3 426.4 448Q428.65 458.7 422.8 469.35Q411.8 489.3 391.3 491.15Q367.6 492.75 359.5 469.95Q352.55 450.35 352.15 429.6Q351.75 408.1 357.8 387.6Q363.6 367.75 380.95 356.8L384.95 356.3Q400.05 356.6 414.2 361.45L415.35 362.55Q416.95 364 418.95 365.2L421.9 367.7Q423.6 369.45 424.2 371.75Q424.85 374.1 423.7 375.95Q416.75 371.85 409.1 369.85Q395.15 366.15 380.7 367.7Q372.8 374.4 367.05 383.1M245.7,70.25L240.75 69.15Q228.95 67 218 71.65Q207.45 76.2 201.8 86.5Q187.85 112 185.5 141.55Q183.1 172.05 195 198.7Q214.55 196.35 227.35 178.45L228.7 174L230.4 172.95L207.95 169.75L208.2 163.75L240.2 161Q241.8 188.35 236.35 215.25Q232.5 195 236.45 173L233.65 173.05Q235.65 182.9 229.35 190.85Q215.45 208.6 194.45 210.5Q185.6 196.4 182.65 180.25Q176.65 147.5 182.5 114.1Q188.6 79.05 216.95 57.75Q232.1 58.2 245.95 64.25L245.7 70.25M306.2,66.25Q306.25 103.85 304.55 141.35L308.5 141.15Q308.85 141.1 309.2 141.5L309.9 143.75L310.15 145.25L310.2 146L310.15 147.5L310 148.25Q309.65 150 308.45 151.25L304.05 151.9L302 184.8Q300.55 205.35 296.7 225.25Q291.15 213.05 293.75 196Q297.1 174.3 298.65 152.4Q282.55 153.4 267.8 148.4Q266.95 164.4 265.35 180.35Q263 203.6 258.7 226Q253.2 217.6 255.95 204.2Q258.9 189.55 260.2 174.5Q265.15 117.6 267.2 61.75Q269.9 101.35 268.2 140.75Q268.65 140.6 269.2 140.75Q284.15 141.8 299.3 141.5L299.5 136.95Q301.05 101 305.7 66.55Q305.7 66.35 306.2 66.25M166.1,111.3Q161.95 170.75 156.75 229.8Q151.55 288.85 149.35 348.25Q149.2 352.5 146.45 355.45Q139.35 348.25 141 334.25Q142.8 319.35 144.05 304.5L153.8 186Q158.5 127 159.4 67.5Q159.55 57.75 164.45 52Q168.2 80.65 166.1 111.3M109.2,51.5L114.45 56.55Q120.55 62.3 117.95 69.5Q97.45 49.75 72.35 68.1Q48.4 85.6 48.55 116Q48.6 122.4 48.25 128.8Q71.15 129.5 93 121.5L101.45 122.05Q102.1 122.1 102.7 122.5Q103.45 123.5 103.8 124.7Q105.1 129.05 102.95 133L102.4 133.55Q100.2 134.55 98.7 132.75Q73.25 139.85 47.65 136.4L46.8 143.7Q43.5 168.35 52.6 190.3Q56.05 198.7 64.7 201.65Q82.6 207.85 99.15 198.15Q113.25 189.9 123.95 178.25Q126.25 178 126.85 180.45Q127.4 183.05 127.2 185.75Q127 187.65 126.2 189.5Q102.4 213.5 70 214.4Q61.7 214.65 56.2 208.35Q37 186.25 40.75 155.35Q43.65 131.1 44.75 106.7Q46.75 62.8 88 48.75Q97.4 48.8 106.5 50.9L109.2 51.5M90.5,222.75Q106.65 279.55 114.85 338.1L116.65 350.45Q118.75 353.75 117.95 358L117.85 358.6Q120.7 377.7 123.8 396.75Q130.7 438.4 139.95 479.15Q141.4 485.6 138.2 491.2Q129.1 485.05 127.95 471.1Q125.5 441.6 119.95 412.4Q115.3 387.75 111 363.05Q81.3 366.05 52.55 361.95Q47.5 378 42.6 394.15Q34.65 420.4 31.6 447.8Q28.55 475.5 19 499.95Q13.75 487.05 19 471.25Q21.7 463.1 23.2 454.5Q31.7 405.6 46.95 357.9Q46.85 355.4 47.5 352.95L48.6 352.8L52.4 341.45Q72.1 284.6 84.85 226.45Q85.35 224.15 87.5 224.25Q88.4 252.65 78.75 281.3Q66.95 316.4 55.7 351.95Q81.55 348.95 108.5 348.7Q104.05 322.65 100.05 296.55Q98.5 286.6 95.95 276.95Q88.8 249.85 89.65 223Q89.65 222.6 90.5 222.75M258,246.65Q258.95 252.05 258.45 257.35L257.65 263.35Q254.85 280.3 239.7 287.7Q255.05 321.85 262.2 357.7Q239.75 328.35 236.1 289.05Q223.1 293.35 210.15 289.8Q211.45 325.6 197.45 356.45Q201.5 289.55 212.3 224.1L213.85 226.9L214.65 226.1Q222.6 219.75 232.95 221L234.95 221.75Q237.75 222.7 240.35 224Q249.7 228.55 254.75 237.55Q257.15 241.8 258 246.65M229.3,279.2Q254.9 272.6 254.3 249.2Q241.5 222.6 213.05 236L210.95 280.05Q220.15 281.4 229.3 279.2" />
</g>
</svg>
