<?xml version="1.0" encoding="utf-8"?>
<svg version="1.1" id="Layer_1"
xmlns="http://www.w3.org/2000/svg"
xmlns:xlink="http://www.w3.org/1999/xlink"


xml:space="preserve">
q2.95 -6.35 -1.8 -11.6q-23.35 -25.8 -57.55 -27.1q-4.9 0.15 -9.9 1.6q-11.55 3.45 -21 10.5q-20.85 15.7 -28.5 41.7q-13.9 47.45 0.95 95.45q14.65 47.2 42.45 88.3q25.85 38.25 43.6 81.55q8.85 21.6 16.3 43.5q15.7 46.35 1.35 93.55q-5.45 17.95 -14.15 34.45q-15 28.45 -46.15 26.45q-9.5 -0.65 -17.25 -5.85q-18 -12.15 -16.4 -35.9q0.6 -8.95 -4.5 -12.2q-1.05 13.25 1.15 27.05q1.35 8.25 5.1 15.8q13.95 27.8 47.8 22.75q22.95 -10.55 35.2 -32.95q23.5 -42.95 20.7 -92.4q-0.85 -14.25 -4.35 -27.75q-11.25 -43.05 -31.35 -83.65q-22.65 -45.6 -50.3 -88.2q-27.2 -41.85 -32.95 -91.35q-2.45 -20.9 2.1 -41.4q7.15 -32.1 31.2 -52.7q33.05 -17.4 64.6 1.05q6.35 6.4 13.8 11.8q-4.6 29.45 -35.35 36.8q1.1 -40.75 4.25 -80.95q23.75 7.9 30.3 32.35q1.6 5.9 0.65 11.75q10.35 35.95 26.9 67.9q2.05 -2.35 1.25 -5.4q-2.15 -7.85 -4.95 -15.8q-10.75 -30.5 -24 -58.3q-5.7 7.15 -9.7 15.4q-11.5 24 -24.75 45.3q-8.45 -31.4 -21 -61.15q-0.5 -0.15 -0.7 0.25q-16.55 34.95 -27.85 71.3q1.55 0.55 2.85 -1.2q12.8 -30.55 25.9 -59.95q9.45 31.7 19.4 62.1q1.5 -0.85 2.35 -2.4q16.45 -30.95 33.7 -59.35q-2.2 18.4 -14.5 30.95q-11.85 12 -28.55 15.05q-11.15 1.9 -21.75 -0.65q4.45 -53.05 1.8 -106.5q15.35 -3.8 30.3 0.65q15.7 4.9 23.1 19.7q7.65 14.3 10.25 30.4q2.65 16.25 0.7 32.6q11.75 -2.8 21.55 4.55q-0.5 -15.85 -16.8 -15.35q-18.8 0.65 -26.5 17.35q-13.8 30.1 10.75 51.75q5.95 5.3 14.7 4.7q12.8 -1.5 22.6 -10.1q3.6 -3.15 6.3 -6.75q-22.55 18 -43.5 5.7q-12.1 -7.1 -11 -21.05q18.95 4.3 36.8 -3.8q-17.25 0.7 -36.15 4.6q3.7 -17.65 21.65 -22q-9.9 -14.1 -27.2 -16.4q-9.55 -1.5 -19.2 0.1q13.45 1.85 27.2 -0.25q4.35 -1.5 8.15 -3.95q26.1 -16.85 29.3 -49.6q4.15 -42.6 -20.25 -77.4q-19.7 -41.75 -33.3 -86.15q21.05 -12.8 21.35 -39.55q0.4 -36.45 -33.7 -46.45q-0.9 -1.05 -2.25 -1.45q-0.6 0.3 -0.8 1.05q-1.8 0.85 -2.15 3.45q-2.6 17.75 -3.05 36.2q-1.2 48.25 -3.85 96.55q-1.35 24.9 -1.15 48.35q1.65 -0.35 1.85 -2.5q4.6 -41.6 5.3 -83.7q3.05 -0.55 6.1 -1.6q5.7 -1.95 10.45 -4.5q-0.55 3.75 0.7 8.2q13 45.9 33.35 89q5.05 -4.6 1.45 -12.3q-6.85 20.2 -6.15 44q1.45 48.45 4 96.6q2.55 48.1 3.4 96.65q0.85 48.25 -0.6 96.6q-1.4 48.4 -2.35 96.6q-0.95 48.15 -0.35 96.05q0.55 1.3 1.85 1.6q0.6 -0.5 0.65 -1.05q2.6 -45.6 2.95 -91.7q0.4 -48.25 1.45 -96.6q1.1 -48.5 0.3 -97.25q-0.75 -48.3 -3.2 -96.55q-2.4 -48.2 -2.3 -96.65q0.05 -24.8 0.35 -48.3q-21 -4.1 -42.35 0.45q1.3 -23.35 18.7 -38.8q-13.35 -13.8 -28.65 -2.2q-13.55 10.25 -16.15 27.1q-2.6 17.15 0.45 34.15q3.25 18 18.95 24.9q17.05 7.55 31.8 -3.75q6.15 -4.65 6.85 -12.55q-22.45 17.85 -44.15 1.8q-12.8 -9.4 -12.6 -25.65q-3.8 22 -1.85 44.3q-5.05 46.6 -1.9 93.6q20.4 3.6 41.1 2.85q-1.65 18.85 -0.2 37.55q0.25 3.5 2 5.25q-1.05 -0.05 -1.35 1.15q-2.5 10.45 -4.55 21.25q-8.95 47.05 -22.35 93.85q-13.25 46.15 -22.15 93.4q-6.7 35.25 -16.25 69.8q-5.1 18.25 -5.25 35.85q1 0 1.15 -0.4q8.65 -20 12.65 -41.8q8.7 -47.25 19.35 -94.1q7.35 -32.2 15.7 -64.25q15.3 2.75 29.9 -3.9q25.05 -11.5 53.35 -9.6q11.1 46.15 19.3 93q8.3 47.5 21 93.05q2.2 0.3 2 -1.75q-1.75 -22.1 -7.25 -44.35q-11.45 -46.7 -20.65 -93.75q-9.1 -46.7 -21.25 -93q-12.15 -46.4 -23 -93q-10.85 -46.6 -21.35 -92.6q-30.05 -3.05 -55.65 10.7q-10.3 3.15 -20.85 4.35q6.45 -23.55 10.85 -47.35q3.25 -17.55 7.1 -35.05q9.45 -42.65 15.55 -85.55q0.6 15.45 4.65 31.65q-1.75 37.75 -1.8 75.25q29.85 -5.15 60.75 -8.75q1 1.3 2.25 0.4q2.45 -4.85 0.2 -9.75q-30.2 2.65 -60.35 6.9q3.7 -36.25 1.6 -72.15q-2.45 3.45 -2.7 8.7<g id="141" transform="matrix(1, 0, 0, 1, -37.3, 0)">
<path style="fill:#000000;fill-opacity:1" d="M505.3,31Q473.75 12.55 440.7 29.95Q416.65 50.55 409.5 82.65Q404.95 103.15 407.4 124.05Q413.15 173.55 440.35 215.4Q468 258 490.65 303.6Q510.75 344.2 522 387.25Q525.5 400.75 526.35 415Q529.15 464.45 505.65 507.4Q493.4 529.8 470.45 540.35Q436.6 545.4 422.65 517.6Q418.9 510.05 417.55 501.8Q415.35 488 416.4 474.75Q421.5 478 420.9 486.95Q419.3 510.7 437.3 522.85Q445.05 528.05 454.55 528.7Q485.7 530.7 500.7 502.25Q509.4 485.75 514.85 467.8Q529.2 420.6 513.5 374.25Q506.05 352.35 497.2 330.75Q479.45 287.45 453.6 249.2Q425.8 208.1 411.15 160.9Q396.3 112.9 410.2 65.45Q417.85 39.45 438.7 23.75Q448.15 16.7 459.7 13.25Q464.7 11.8 469.6 11.65Q503.8 12.95 527.15 38.75Q531.9 44 528.95 50.35L519.1 42.8Q511.65 37.4 505.3 31M331.2,53.45Q324.65 29 300.9 21.1L300.75 21.05Q297.6 61.25 296.5 102Q327.25 94.65 331.85 65.2Q332.8 59.35 331.2 53.45M365.45,211.8Q348.2 240.2 331.75 271.15Q330.9 272.7 329.4 273.55Q319.45 243.15 310 211.45L309.4 210.15Q296.3 239.55 283.5 270.1Q282.2 271.85 280.65 271.3Q291.95 234.95 308.5 200Q308.7 199.6 309.2 199.75Q321.75 229.5 330.2 260.9L330.4 261.5Q343.65 240.2 355.15 216.2Q359.15 207.95 364.85 200.8Q378.1 228.6 388.85 259.1Q391.65 267.05 393.8 274.9Q394.6 277.95 392.55 280.3Q376 248.35 365.65 212.4L365.45 211.8M352.3,348.25Q349.7 332.15 342.05 317.85Q334.65 303.05 318.95 298.15Q304 293.7 288.65 297.5L290 319.7Q292.65 373.15 288.2 426.2Q298.8 428.75 309.95 426.85Q326.65 423.8 338.5 411.8Q350.8 399.25 353 380.85Q354.95 364.5 352.3 348.25M373.2,389.25Q392.1 385.35 409.35 384.65L409.3 389.95Q391.45 398.05 372.5 393.75Q371.4 407.7 383.5 414.8Q404.45 427.1 427 409.1L427.45 413.4Q424.75 417 421.15 420.15Q411.35 428.75 398.55 430.25Q389.8 430.85 383.85 425.55Q359.3 403.9 373.1 373.8Q380.8 357.1 399.6 356.45Q415.9 355.95 416.4 371.8Q406.6 364.45 394.85 367.25Q376.9 371.6 373.2 389.25M360,380.5Q356.8 413.25 330.7 430.1Q326.9 432.55 322.55 434.05L318.2 435.35L316.05 435.9L313.8 436.35Q300.05 438.45 286.6 436.6L283.95 434.15L285.55 292.1L286.8 287.6L293.35 286.8Q303 285.2 312.55 286.7Q329.85 289 339.75 303.1Q364.15 337.9 360 380.5M346.9,202.6Q326.55 159.5 313.55 113.6Q312.3 109.15 312.85 105.4Q308.1 107.95 302.4 109.9Q299.35 110.95 296.3 111.5L296.2 115.8Q295.5 157.9 290.9 199.5Q290.7 201.65 289.05 202Q288.85 178.55 290.2 153.65Q292.85 105.35 294.05 57.1Q294.5 38.65 297.1 20.9Q297.45 18.3 299.25 17.45L299.25 17.35Q299.45 16.6 300.05 16.3Q301.4 16.7 302.3 17.75L302.7 18.15Q336.8 28.15 336.4 64.6Q336.1 91.35 315.05 104.15Q328.65 148.55 348.35 190.3Q351.95 198 346.9 202.6M255.85,62.8Q255.75 111.25 258.15 159.45Q260.6 207.7 261.35 256Q262.15 304.75 261.05 353.25Q260 401.6 259.6 449.85Q259.25 495.95 256.65 541.55Q256.6 542.1 256 542.6Q254.7 542.3 254.15 541Q253.55 493.1 254.5 444.95Q255.45 396.75 256.85 348.35Q258.3 300 257.45 251.75Q256.6 203.2 254.05 155.1Q251.5 106.95 250.05 58.5Q249.35 34.7 256.2 14.5Q255.9 38 255.85 62.8M179.15,75L136.7 74.6Q136.5 90.85 149.3 100.25Q171 116.3 193.45 98.45Q192.75 106.35 186.6 111Q171.85 122.3 154.8 114.75Q139.1 107.85 135.85 89.85Q132.8 72.85 135.4 55.7Q138 38.85 151.55 28.6Q166.85 17 180.2 30.8L155.5 31.8Q138.1 47.25 136.8 70.6Q158.15 66.05 179.15 70.15L179.15 75M89,66.75L87.8 68.75L86.65 111.7Q84.9 109.95 84.65 106.45Q83.2 87.75 84.85 68.9Q64.15 69.65 43.75 66.05L42.05 108.55L41.9 108.85Q38.75 61.85 43.8 15.25L43.85 62.45L84.75 63.45Q82.8 41.15 86.6 19.15L87.75 63.5L88.25 63.5L88.55 63.6L88.75 63.85L89.1 65L89.15 65.65L89 66.75M127.4,119.65Q137.9 165.65 148.75 212.25Q159.6 258.85 171.75 305.25Q183.9 351.55 193 398.25Q202.2 445.3 213.65 492Q219.15 514.25 220.9 536.35Q221.1 538.4 218.9 538.1Q206.2 492.55 197.9 445.05Q189.7 398.2 178.6 352.05L169.9 316.05L169.75 316.35L169.4 316.95Q141.1 315.05 116.05 326.55Q101.45 333.2 86.15 330.45Q77.8 362.5 70.45 394.7Q59.8 441.55 51.1 488.8Q47.1 510.6 38.45 530.6Q38.3 531 37.3 531Q37.45 513.4 42.55 495.15Q52.1 460.6 58.8 425.35Q67.7 378.1 80.95 331.95Q94.35 285.15 103.3 238.1L121.4 143.7Q123.45 132.9 125.95 122.45Q126.25 121.25 127.3 121.3L127.4 119.65M127.3,133.8Q121.2 176.7 111.75 219.35Q107.9 236.85 104.65 254.4Q100.25 278.2 93.8 301.75L87.55 325.15Q98.1 323.95 108.4 320.8L110.9 320.05L112.5 319.6Q138.1 305.85 168.15 308.9L155.6 258.95L131.95 165.45Q127.9 149.25 127.3 133.8M316.55,448.45Q318.65 484.35 314.95 520.6L314.9 521.2Q345.05 516.95 375.25 514.3Q377.5 519.2 375.05 524.05Q373.8 524.95 372.8 523.65Q341.9 527.25 312.05 532.4Q312.1 494.9 313.85 457.15Q314.1 451.9 316.55 448.45" />
</g>
</svg>
