<?xml version="1.0" encoding="utf-8"?>
<svg version="1.1" id="Layer_1"
xmlns="http://www.w3.org/2000/svg"
xmlns:xlink="http://www.w3.org/1999/xlink"


xml:space="preserve">
q-26.5 18.8 -32.5 51.7q-5.1 27.95 -0.4 55.7q2.2 13.25 10.4 24q22.5 -0.35 34.9 -18.7q3.9 -5.75 3.85 -12.7q-15.3 17.5 -38.15 21.65q-17.35 -24.05 -13 -55.6q18.7 3.75 37.25 -1.7q4.45 -29.45 22.65 -53q14.95 -6.4 25.6 5.25q-1.2 -15.95 -17.25 -17.7q-10.5 -30.4 -44.7 -30.55q-3.55 1.4 -6.2 4.55q-14.05 16.85 -18.55 39.45q-9.95 49.8 14 95.65q25.1 47.95 55.55 93.1q7.1 10.55 10.9 22.8q12.4 40.05 18.35 81.45q6.9 48.5 -13.05 91.7q-15.55 33.6 -50.3 41.35q-24.2 5.45 -37.3 -13.2q-5.75 -8.2 -12.15 -15.65q-13.05 -15.2 -5.05 -30.9q0.05 -0.95 -0.45 -1.75q-8.4 3.5 -7.2 12.85q3 23.35 18.8 42.4q4.75 5.7 10.5 10.25q21.8 17.05 49.65 5.6q21.1 -13.1 33.65 -34.95q22 -38.4 18.7 -83.75q-3.2 -44 -13.15 -86.8q-2.7 -11.45 -7.8 -22q-16.8 -34.6 -37.55 -67.1q-18.25 -28.5 -33.15 -58.85q-1.65 -6.15 -3.85 -12.3q-6.2 -17.55 -6.9 -36.05q-0.95 -26.45 8.7 -51.1q2.85 -7.15 9.6 -10.6q18.25 -9.3 34.6 4.8q8.15 7 14.7 13.75q0.3 -0.9 0.05 -1.65q1.55 -3.25 -0.15 -6.5q-5.2 -9.75 -15.85 -7.25q-27.55 6.3 -36.4 35.2q-13.3 43.15 20.35 66.7q6.9 4.8 15.35 2.75q12.5 -3.25 21.8 -12.15q7.7 -7.25 10.05 -17.5q-6.1 3.6 -11.25 8.7q-9.9 10 -24 10.05q-19.65 0.1 -24.45 -19.8q-2.8 -11.5 -1.7 -23.35q20 3.85 39.5 -1.75q2.15 -10.3 7.55 -19.4q7.15 -11.95 20.35 -16.6q10.95 -3.7 21 3.85q-17.15 -19.7 -22.6 -43.25q8.25 -7.35 10.8 -18q5.95 -24.65 -20.65 -27.85q-3.65 0.45 -3.8 3.85q-4.65 17.7 -7.3 36.55q-0.7 1.15 -0.9 2.45q-0.5 3.55 2.3 5.05q-0.55 4.25 -0.95 8.6q-0.95 9.8 -3.4 19.2q-3.5 13.45 0.3 23.65q2.2 -2 2.6 -4.9q3.1 -22.4 5.7 -44.8q9.5 3.05 17.5 -2.1q7.05 30.15 26 53.4q2.05 -4.85 -0.3 -9.65q-9.4 43.95 -17.5 89.85q-7.65 43.05 -18.15 85.6q-0.75 1.4 -0.65 3.05q-12 47 -23.3 93.9q-5.75 23.75 -7.05 47.3q0.9 0 1.05 -0.3q5.75 -14.75 8.95 -30.85q9.35 -46.9 20.85 -93.55q27.25 -6 55.15 -5.1q10.3 48.3 23.1 95.05q1.5 -0.5 1.25 -2.15q-6.3 -45.9 -17.45 -91.35q-11.45 -46.55 -21.3 -93.55q-4.95 -23.55 -9.1 -47.2q-8.25 -47.2 -11.9 -95.15q-1.65 22.75 0.8 47.1q4.7 47.2 14.65 93.6q-23.45 1.15 -46.35 6.75q7.8 -33.95 14.25 -68.1q8.85 -47.05 16 -94q1.9 -5.9 0.5 -11.6q13.3 46.1 22.95 93.55q1.5 7.35 5.25 10.25q7.8 -34.45 16.7 -69.1q1.35 -5.1 3.05 -9.95q6.45 -18 4.1 -35.3q-3 2.05 -4 6.6q-7.15 -24.15 -11.55 -48.95q-4.5 -25.3 -14.95 -45.85q-1.65 2.95 -0.7 6.25q-10.35 -31.85 -46.45 -27.8q-17.5 1.85 -32.8 11.25q-13.6 8.35 -18.8 24.35q-6.35 19.5 -11.75 39.35q-12.75 46.6 -14.2 95.05q-1.4 48.8 2.3 96.7q1.85 24.1 4.3 48.1q4.8 46.7 16.25 92.4q6.75 26.85 28.15 42.95q21.45 16.1 46 6q17.65 -7.25 20.9 -27.7q1.45 -1.2 1.9 -3.05q0.3 -1.15 0.1 -2.45q-0.7 -0.6 -1.5 -0.9q-1.3 1.65 -1.6 3.65q-2.75 17.65 -17.95 24.05q-10.15 4.25 -21.1 1.6q-36.4 -8.8 -46.6 -44.45q-13.5 -47.15 -17.35 -95.85q-3.75 -48.25 -6.3 -96.55q23.4 3.95 46.4 -2.35q1.35 -3.75 -1 -6.7q-23.1 4.6 -45.75 5.75q-1.75 -43.8 4.4 -86.5q2.55 -17.8 7.3 -35.1q8.6 -31.3 22.4 -60.3q14.65 -11.1 33.8 -13.9q34.55 -4.95 47.9 24.25q2.25 -1.8 1.2 -5.05q16.15 13.9 -1.1 27.75q-7.85 6.25 -18.25 5.1q-3.05 -3.6 -8.15 -4.9q-4.1 -1.2 -8.25 -0.45q-3.85 0.75 -6.75 3.55q-9.9 12.6 -15.1 28.2q-3.7 11.2 -5.95 22.55q-0.3 0.05 -0.5 0.25q-1.15 12.35 -0.95 24.9q0.25 14.3 6.4 27.35q5.05 10.8 16.7 9.9q19.8 -2 31.3 -18.1q3.45 -4.9 4.75 -10.5q-9.6 8.25 -21.1 15q-9.25 5.35 -20 4.9q-7.15 -6 -9.35 -15q-4.2 -16.95 -1.6 -34.25q1.25 -1.8 1.3 -3.9q1.25 -22.45 14.85 -39.15q2.9 -3.55 6.35 -6.65q5.3 -1.4 10.65 -0.45q-1.8 2.5 -1.8 6.75q-0.45 48.65 -0.2 96.6q28.3 -6.6 58.1 -3.85q2.45 -4.85 0.2 -9.8q-29.4 -3.8 -55.25 2.65q2.5 -48.3 -0.05 -96.6<g id="159" transform="matrix(1, 0, 0, 1, -27.85, 0)">
<path style="fill:#000000;fill-opacity:1" d="M512,48.95L510.7 47.85Q500.05 36.2 485.1 42.6Q466.9 66.15 462.45 95.6L497.55 93.95L498.95 100.7Q480.4 106.15 461.7 102.4Q457.35 133.95 474.7 158Q497.55 153.85 512.85 136.35Q512.9 143.3 509 149.05Q496.6 167.4 474.1 167.75L469.95 162.4Q461.75 151.65 459.55 138.4Q454.85 110.65 459.95 82.7Q465.95 49.8 492.45 31L494.75 31.25Q510.8 33 512 48.95M449.85,58.1Q443.3 51.35 435.15 44.35Q418.8 30.25 400.55 39.55Q393.8 43 390.95 50.15Q381.3 74.8 382.25 101.25Q382.95 119.75 389.15 137.3Q391.35 143.45 393 149.6Q407.9 179.95 426.15 208.45Q446.9 240.95 463.7 275.55Q468.8 286.1 471.5 297.55Q481.45 340.35 484.65 384.35Q487.95 429.7 465.95 468.1Q453.4 489.95 432.3 503.05Q404.45 514.5 382.65 497.45Q376.9 492.9 372.15 487.2Q356.35 468.15 353.35 444.8Q352.15 435.45 360.55 431.95L361.1 432.6Q361.6 433.4 361.55 434.35L361.4 436.2Q353.4 451.9 366.45 467.1Q372.85 474.55 378.6 482.75Q391.7 501.4 415.9 495.95Q450.65 488.2 466.2 454.6Q486.15 411.4 479.25 362.9Q473.3 321.5 460.9 281.45Q457.1 269.2 450 258.65Q419.55 213.5 394.45 165.55Q370.5 119.7 380.45 69.9Q384.95 47.3 399 30.45Q401.65 27.3 405.2 25.9Q439.4 26.05 449.9 56.45Q450.15 57.2 449.85 58.1M337.75,166.95Q324.55 171.6 317.4 183.55Q312 192.65 309.85 202.95L349.75 197.85L351.6 198.15L354.05 200.6L354.05 205.45L348.45 207.25Q328.95 212.85 308.95 209Q307.85 220.85 310.65 232.35Q315.45 252.25 335.1 252.15Q349.2 252.1 359.1 242.1Q364.25 237 370.35 233.4L374.45 229.3L373.9 232.05Q371.55 242.3 363.85 249.55Q354.55 258.45 342.05 261.7Q333.6 263.75 326.7 258.95Q293.05 235.4 306.35 192.25Q315.2 163.35 342.75 157.05Q353.4 154.55 358.6 164.3Q360.3 167.55 358.75 170.8Q348.7 163.25 337.75 166.95M340.6,356.9Q342.95 361.7 340.9 366.55L340 367.7Q321.05 344.45 314 314.3Q306 319.45 296.5 316.4Q293.9 338.8 290.8 361.2Q290.4 364.1 288.2 366.1Q284.4 355.9 287.9 342.45Q290.35 333.05 291.3 323.25Q291.7 318.9 292.25 314.65L291.45 314.25Q288.65 312.75 289.15 309.2Q289.35 307.9 290.05 306.75L293.15 307.5Q295.8 288.65 300.45 270.95L297.8 270.5Q297.95 267.1 301.6 266.65L301.85 265.8L301.8 266.65L307.35 266Q333.95 269.2 328 293.85Q325.45 304.5 317.2 311.85L316.8 312.2L317.1 312.5L317.55 313.1Q323 336.65 340.15 356.35L340.6 356.9M197.8,45.45L197.5 46.05Q190.35 93 181.5 140.05Q175.05 174.2 167.25 208.15Q190.15 202.55 213.6 201.4L219.8 202.35L214.6 178Q204.65 131.6 199.95 84.4Q197.5 60.05 199.15 37.3Q202.8 85.25 211.05 132.45Q215.2 156.1 220.15 179.65Q230 226.65 241.45 273.2Q252.6 318.65 258.9 364.55Q259.15 366.2 257.65 366.7Q244.85 319.95 234.55 271.65L221.45 210.05Q193.55 209.15 166.3 215.15L165.6 215.3L161.1 233.85Q149.6 280.5 140.25 327.4Q137.05 343.5 131.3 358.25Q131.15 358.55 130.25 358.55Q131.55 335 137.3 311.25Q148.6 264.35 160.6 217.35L161.85 212.55L161.8 212.4Q161.7 210.75 162.45 209.35L162.65 209.3Q173.15 166.75 180.8 123.7Q188.9 77.8 198.3 33.85Q199.7 39.55 197.8 45.45M236.05,161.65Q246.5 182.2 251 207.5Q255.4 232.3 262.55 256.45L283.4 163.95Q284.4 159.4 287.4 157.35Q289.75 174.65 283.3 192.65Q281.6 197.5 280.25 202.6Q271.35 237.25 263.55 271.7Q259.8 268.8 258.3 261.45Q248.65 214 235.35 167.9Q234.4 164.6 236.05 161.65M152.05,62.4Q138.7 33.2 104.15 38.15Q85 40.95 70.35 52.05L67.65 53.8Q53.85 82.8 45.25 114.1Q40.5 131.4 37.95 149.2Q31.8 191.9 33.55 235.7Q56.2 234.55 79.3 229.95Q81.65 232.9 80.3 236.65L80.1 237.25Q57.1 243.55 33.7 239.6L33.8 241.5Q36.35 289.8 40.1 338.05Q43.95 386.75 57.45 433.9Q67.65 469.55 104.05 478.35Q115 481 125.15 476.75Q140.35 470.35 143.1 452.7Q143.4 450.7 144.7 449.05L145.2 448.6L146.25 448.55Q147.05 448.85 147.75 449.45L148.4 450.05L148.7 450.7L149.15 452.5Q149.35 453.8 149.05 454.95Q148.6 456.8 147.15 458Q143.9 478.45 126.25 485.7Q101.7 495.8 80.25 479.7Q58.85 463.6 52.1 436.75Q40.65 391.05 35.85 344.35Q33.4 320.35 31.55 296.25Q27.85 248.35 29.25 199.55Q30.7 151.1 43.45 104.5Q48.85 84.65 55.2 65.15Q60.4 49.15 74 40.8Q89.3 31.4 106.8 29.55Q142.9 25.5 153.25 57.35Q154.3 60.6 152.05 62.4M301.35,271.1L297.45 308.1Q307.85 309.25 315.7 303Q332.95 289.15 316.8 275.25L301.35 271.1M206.05,387.1Q202.6 390.2 199.7 393.75Q186.1 410.45 184.85 432.9L214 426.2L214.6 427.35L215.05 428.35L215.35 429.45L215.45 430.4L215.5 431.5Q215.45 433.6 214.2 435.4L184.1 438.3Q181.5 455.6 185.7 472.55Q187.9 481.55 195.05 487.55Q205.8 488 215.05 482.65Q226.55 475.9 236.15 467.65L238.4 468.15Q237.1 473.75 233.65 478.65Q222.15 494.75 202.35 496.75Q190.7 497.65 185.65 486.85Q179.5 473.8 179.25 459.5Q179.05 446.95 180.2 434.6L180.5 434.05Q180.7 433.85 181 433.8Q183.25 422.45 186.95 411.25Q192.15 395.65 202.05 383.05Q204.95 380.25 208.8 379.5Q212.95 378.75 217.05 379.95Q222.15 381.25 225.2 384.85L224.5 389.3L222.15 389.35L220.75 388.1L220.1 387.65L216.7 386.65Q211.35 385.7 206.05 387.1M270.7,381.55L271.1 382.2Q273.65 430.5 271.15 478.8L271.1 481.85Q296.95 475.4 326.35 479.2Q328.6 484.15 326.15 489Q296.35 486.25 268.05 492.85Q267.8 444.9 268.25 396.25L268.25 387.1Q268.25 382.85 270.05 380.35L270.7 381.55" />
</g>
</svg>
