<?xml version="1.0" encoding="utf-8"?>
<svg version="1.1" id="Layer_1"
xmlns="http://www.w3.org/2000/svg"
xmlns:xlink="http://www.w3.org/1999/xlink"


xml:space="preserve">
q-9.95 16.1 -27.65 25.6q-15.8 8.45 -33.35 5.5q-15 -2.35 -26.25 -12.15q-11.65 -10.1 -16.4 -24.65q-3.95 -12 -3.95 -24.65q0 -6.45 0.4 -12.9q29.65 5.15 58.3 -4q1.7 -2.8 1.3 -5.8q-0.3 -2.65 -1.8 -4.7q-27.95 6.9 -56.7 6.1q5.2 -34.65 32.95 -54.25q19.95 -14.1 44.05 -9.35q18.35 3.65 31.45 17q-0.8 -22.4 -26.05 -28.8q-20.75 -5.15 -40.8 3.45q-19.3 8.25 -30.6 25.85q-10.65 16.55 -14.1 36.15q-3.6 20.15 -4.15 40.8q-0.55 22.6 13.2 40.25q13.15 16.85 33.6 23.3q21.9 6.85 42.45 -3.4q20.7 -10.35 26.7 -31.75q1.5 -5.35 -2.6 -7.6<g id="149" transform="matrix(1, 0, 0, 1, -212.95, 0)">
<path style="fill:#000000;fill-opacity:1" d="M329.45,320.85Q323.45 342.25 302.75 352.6Q282.2 362.85 260.3 356Q239.85 349.55 226.7 332.7Q212.95 315.05 213.5 292.45Q214.05 271.8 217.65 251.65Q221.1 232.05 231.75 215.5Q243.05 197.9 262.35 189.65Q282.4 181.05 303.15 186.2Q328.4 192.6 329.2 215Q316.1 201.65 297.75 198Q273.65 193.25 253.7 207.35Q225.95 226.95 220.75 261.6Q249.5 262.4 277.45 255.5Q278.95 257.55 279.25 260.2Q279.65 263.2 277.95 266Q249.3 275.15 219.65 270Q219.25 276.45 219.25 282.9Q219.25 295.55 223.2 307.55Q227.95 322.1 239.6 332.2Q250.85 342 265.85 344.35Q283.4 347.3 299.2 338.85Q316.9 329.35 326.85 313.25Q330.95 315.5 329.45 320.85" />
</g>
</svg>
