<?xml version="1.0" encoding="utf-8"?>
<svg version="1.1" id="Layer_1"
xmlns="http://www.w3.org/2000/svg"
xmlns:xlink="http://www.w3.org/1999/xlink"


xml:space="preserve">
q0.15 -40.65 -1.4 -80.75q-5.65 12.85 -5.15 29.25q0.75 25.65 0.4 51.2q-6.25 -0.25 -12.5 -0.2q-10.4 -1 -20.4 0.9q0.85 -25.55 2.2 -51.1q0.9 -16.3 -2.3 -30.05q-5.05 10.6 -5 25q0.1 59.85 -2.4 119.25q-0.65 15 -2.65 29.8q-1.8 13.55 4.3 21.65q4.35 -37.7 4.95 -76.5q0.2 -12.85 0.55 -25.65q16.75 1.35 33 0.35q-0.7 26.95 -2.6 53.85q-0.8 11.15 -2.3 22.25q-2.2 16.9 4.15 29.45q5.55 -39.5 6.6 -81q2.25 -4.2 1.2 -8.95q-0.35 -0.4 -0.75 -0.45q0.4 -32 -34.5 -31.25q-18.1 8 -18.75 29.5q-0.4 13.25 5.7 24.1q5.75 10.55 9.75 21.5q10.25 27.95 -2.15 53q-24.7 10.95 -50.05 -0.2q-9.9 -4.4 -10.2 -15.55q-0.45 -15.85 -5.5 -27.75q-6.45 13.75 -3.55 30.1q1.7 9.45 7.4 16.9q17.55 22.8 48.95 17.7q17.1 -2.8 21.15 -19.8q8.2 -34.05 -3.3 -68.1q-8.35 -24.8 -25.25 -43.55q-15.6 -17.4 -8.05 -38.9q5.95 -16.95 26.65 -10.05q8.35 4.2 12.2 12.5q1.7 3.8 4.55 6q-14.15 15.65 -21.35 36.1q-7.3 20.65 -8.85 42.25q-1.55 21.55 2.45 42.8q4.05 21.75 16.05 40.2q13 20 37.5 17.65q20.85 -1.7 39.55 -11q22.5 -11.2 20.9 -34.55q-0.05 -1.1 -0.7 -2.15q-4.95 9.2 -13.5 16.1q-8.6 6.95 -18.8 11.25q-13.65 5.85 -28.6 6.15q-22 -21.7 -28.55 -51.7q-3 -13.65 -2.5 -27.6q30.2 -4.65 60.75 -3.9q1.75 -2.7 1.85 -5.8q-28 -3.75 -55.05 4.95q1.85 -28.45 17.6 -51.55q7.1 -10.35 19.2 -14.5q15.2 -5.25 31.4 -5.1q24.3 0.25 45.25 13.05q1.55 -10.55 -11 -16.6q-17.4 -8.35 -36.85 -10.2q-17.45 -1.5 -32.9 6.2q-4.1 2.15 -8.05 4.75<g id="162" transform="matrix(1, 0, 0, 1, -142.65, 0)">
<path style="fill:#000000;fill-opacity:1" d="M417.45,260.55Q417.85 260.6 418.2 261L419.25 263.2L419.4 264Q420.45 268.75 418.2 272.95L416.5 273.15L416.05 298.2Q415 339.7 409.45 379.2Q403.1 366.65 405.3 349.75Q406.8 338.65 407.6 327.5Q409.5 300.6 410.2 273.65Q393.95 274.65 377.2 273.3Q376.85 286.1 376.65 298.95Q376.05 337.75 371.7 375.45Q365.6 367.35 367.4 353.8Q369.4 339 370.05 324Q372.55 264.6 372.45 204.75Q372.4 190.35 377.45 179.75Q380.65 193.5 379.75 209.8Q378.4 235.35 377.55 260.9Q387.55 259 397.95 260Q404.2 259.95 410.45 260.2Q410.8 234.65 410.05 209Q409.55 192.6 415.2 179.75Q416.75 219.85 416.6 260.5L417.45 260.55M363.2,208.75Q360.35 206.55 358.65 202.75Q354.8 194.45 346.45 190.25Q325.75 183.35 319.8 200.3Q312.25 221.8 327.85 239.2Q344.75 257.95 353.1 282.75Q364.6 316.8 356.4 350.85Q352.35 367.85 335.25 370.65Q303.85 375.75 286.3 352.95Q280.6 345.5 278.9 336.05Q276 319.7 282.45 305.95Q287.5 317.85 287.95 333.7Q288.25 344.85 298.15 349.25Q323.5 360.4 348.2 349.45Q360.6 324.4 350.35 296.45Q346.35 285.5 340.6 274.95L315.9 230.35Q309.8 219.5 310.2 206.25Q310.85 184.75 328.95 176.75Q363.85 176 363.45 208L363.2 208.75M182.45,184.15Q197.9 176.45 215.35 177.95Q234.8 179.8 252.2 188.15Q264.75 194.2 263.2 204.75Q242.25 191.95 217.95 191.7Q201.75 191.55 186.55 196.8Q174.45 200.95 167.35 211.3Q151.6 234.4 149.75 262.85L154.5 261.4Q181.55 252.7 209.55 256.45L210.5 258.35L211.35 261.05L211.55 263.7Q211.45 266.8 209.7 269.5Q179.15 268.75 148.95 273.4Q148.45 287.35 151.45 301Q158 331 180 352.7L196.1 353.7Q211.05 353.4 224.7 347.55Q234.9 343.25 243.5 336.3Q252.05 329.4 257 320.2L259.95 320.2Q260.6 321.25 260.65 322.35Q262.25 345.7 239.75 356.9Q221.05 366.2 200.2 367.9Q175.7 370.25 162.7 350.25Q150.7 331.8 146.65 310.05Q142.65 288.8 144.2 267.25Q145.75 245.65 153.05 225Q160.25 204.55 174.4 188.9Q178.35 186.3 182.45 184.15" />
</g>
</svg>
