<?xml version="1.0" encoding="utf-8"?>
<svg version="1.1" id="Layer_1"
xmlns="http://www.w3.org/2000/svg"
xmlns:xlink="http://www.w3.org/1999/xlink"


xml:space="preserve">
q-13.3 144 -18.55 288.1q-0.05 1.65 0.6 3.05q10.4 -73.45 11.6 -147.8q13.6 10.45 28.45 -0.25q7.25 85.15 41.3 160.4q28.3 -17.2 32.25 -50.35q-3.65 -19.05 -14.85 -34.65q-6.15 -8.6 -14 -15.85q-11.25 -8.25 -24.35 -5.8q12.2 16.3 15.7 36.25q3.85 22 -5 42q-9.2 20.9 -29.9 30.4q-11.85 5.45 -22.25 -2.15q22.7 1.1 36.4 19.3q-5.05 -26.55 -36.25 -23q-19.05 2.6 -31 18.35q-36.1 47.45 -45.45 105.65q-9.35 58.6 9.1 114.25q9.65 29.05 31.85 50.2q29.2 27.8 64.95 4q10.7 -7.15 21.2 -14.75q15.05 -10.95 15.6 -26q-9.4 6.9 -17.9 15.35q-25 24.95 -60.1 24q-3.35 -0.05 -6 -1.85q-45.75 -30.4 -55.2 -85.3q-4.5 -26.1 -3 -51.55q54.35 2.7 106.7 -4.1q-0.25 -4.55 -4.75 -4.25q-6.55 0.7 -13.3 0.05q-34.7 -3.3 -66.4 2.4q2.3 -28.5 12.15 -56.25q8.95 -25.35 21.3 -49.35q16.45 -31.9 51.15 -32.1q25.9 -0.2 25.75 22.35q2.45 -3.9 1.5 -9q-14.25 46.4 -26.65 93.45q-0.85 2.75 0.5 5.25q-3.15 12.35 -8.15 23.95q-12.3 28.25 -12.3 57.65q11.1 -31.45 20 -65.4q4.05 -15.45 8.35 -30.75q22 1.5 47.15 -0.6q4.55 32.35 10.85 64.4q2.9 14.7 4.55 29.55q3.5 30.3 11.65 58.05q2.15 -1 2.1 -3.5q-0.3 -11.9 -2.45 -23.5q-2.45 -13.6 -5.5 -27.05q-11.1 -49.3 -18.3 -99.1q4.8 -2.95 0.15 -10.05q-3.8 -29.25 -5.1 -58.8q-1.35 -31.2 -12.3 -57.8q6.3 37.75 10 76.4q2 20.7 4.75 41.35q-24.3 3.7 -49.8 5q10.9 -38.3 23.55 -75.95q8.2 -24.4 10.4 -48.3<g id="163" transform="matrix(1, 0, 0, 1, -42.15, 0)">
<path style="fill:#000000;fill-opacity:1" d="M336.35,104.2Q349.45 101.75 360.7 110Q368.55 117.25 374.7 125.85Q385.9 141.45 389.55 160.5L390.45 165.55L390.75 168.15L391.15 173.4L391.3 176.1L391.3 178.8L391.15 184.25L390.9 189.05L390.65 191.4Q386.7 224.55 358.4 241.75L397.95 403.2Q363.9 327.95 356.65 242.8Q341.8 253.5 328.2 243.05Q327 317.4 316.6 390.85L316.25 391.15Q315.6 389.75 315.65 388.1Q320.9 244 334.2 100L335.25 104.45L336.35 104.2M334.3,109.05L329.25 234.85Q339.65 242.45 351.5 237Q372.2 227.5 381.4 206.6Q390.25 186.6 386.4 164.6Q382.9 144.65 370.7 128.35Q357 110.15 334.3 109.05M162.7,123.5Q162.85 100.95 136.95 101.15Q102.25 101.35 85.8 133.25Q73.45 157.25 64.5 182.6Q54.65 210.35 52.35 238.85Q84.05 233.15 118.75 236.45Q125.5 237.1 132.05 236.4L153.45 234.85L153.95 234.75Q158.45 234.45 158.7 239L158.7 239.75Q106.35 246.55 52 243.85Q50.5 269.3 55 295.4Q64.45 350.3 110.2 380.7Q112.85 382.5 116.2 382.55Q151.3 383.5 176.3 358.55Q184.8 350.1 194.2 343.2Q193.65 358.25 178.6 369.2Q168.1 376.8 157.4 383.95Q121.65 407.75 92.45 379.95Q70.25 358.8 60.6 329.75Q42.15 274.1 51.5 215.5Q60.85 157.3 96.95 109.85Q108.9 94.1 127.95 91.5Q159.15 87.95 164.2 114.5Q165.15 119.6 162.7 123.5M245,106.35Q255.95 132.95 257.3 164.15Q258.6 193.7 262.4 222.95L263.45 230.5L264.95 230.25Q269.6 237.35 264.8 240.3Q272 290.1 283.1 339.4Q286.15 352.85 288.6 366.45Q290.75 378.05 291.05 389.95Q291.1 392.45 288.95 393.45Q280.8 365.7 277.3 335.4Q275.65 320.55 272.75 305.85Q266.45 273.8 261.9 241.45L256.45 242.2L255.95 242Q230.8 244.1 208.8 242.6Q204.5 257.9 200.45 273.35Q191.55 307.3 180.45 338.75Q180.45 309.35 192.75 281.1Q197.75 269.5 200.9 257.15L204.75 242.3L204.45 242.25Q203.1 239.75 203.95 237L204.2 236.25L206.35 236.2Q218.75 189.15 233 142.75L245.2 102.5L245 106.35M244.75,111.95L244.6 111.75Q242.4 135.65 234.2 160.05Q221.55 197.7 210.65 236Q236.15 234.7 260.45 231Q257.7 210.35 255.7 189.65Q252 151 245.7 113.25L244.75 111.95" />
</g>
</svg>
