<?xml version="1.0" encoding="utf-8"?>
<svg version="1.1" id="Layer_1"
xmlns="http://www.w3.org/2000/svg"
xmlns:xlink="http://www.w3.org/1999/xlink"


xml:space="preserve">
q38.7 2.95 56.15 38.15q10.3 20.8 16.8 43.2q16.45 56.7 15.05 116.65q-1.4 59.65 -11.5 117.9q-8.7 50.1 -34.1 94.15q-10.85 18.75 -29.8 28.85q-18.7 9.95 -34.55 -6.5q-26.8 -27.8 -31.25 -68q-1.45 -12.9 -3.55 -25.65q-9.45 -58.1 -8.85 -117.75q0.65 -59.8 11.55 -118q11.05 -58.9 51.4 -100.7q1.2 -1.25 2.65 -2.3q-23.55 -36.35 -67.25 -25.75q-19.45 22.05 -19 53.25q0.6 38.1 15.1 73.85q22.4 55.25 36.8 113.85q13.7 55.85 15.65 113.75q2.05 61 -16.9 117.9q-11.9 35.65 -45 53.1q-10.35 5.45 -21.8 7.05q-25.5 3.55 -37.9 -19q-4.1 -7.45 -5.45 -16.05q-0.65 -1.8 -1.9 -3.4q-0.05 -2.65 0.4 -5.25q0.45 -2.55 2.6 -3.75q6.75 6.1 10.25 16.7q4.1 12.35 16.25 16.35q18.3 6.15 35.3 -4.2q14 -8.5 25.3 -20.45q15.8 -16.7 21.35 -38.75q14.25 -56.3 10.4 -114.7q-3.8 -58 -21.05 -113.35q-10.9 -34.9 -6.85 -71.65q2.45 -22 15 -39.5q7.45 -10.4 20.35 -11.1q43 -1.75 56.55 37.55q1.3 3.8 -1.3 6.7q0.15 7.8 4.9 14.15q8.4 -2.25 12.75 -9.65q2.85 4.45 1 9.3q-5.95 15.65 -23.5 13.2q-9.1 -12.3 -9.6 -27.45q-0.75 -23.6 17.1 -37.8q7.65 0 12.35 5.65q5.15 6.2 1.9 13.6q-5.85 0.05 -11 2.85q-6.2 3.35 -8.8 10.05q12.2 26.85 12.25 56.25q-0.4 -0.05 -0.5 -0.2q-9.5 -16.8 -12.5 -40.3q-7 21.7 -20.75 40.25q3.6 -29.15 18.75 -57.15q3.8 22.15 0 44.25q17.9 -2.9 35 3q-0.15 -11.45 -1.3 -22.75q-1.95 -18.5 5.8 -34q7.05 58.15 11.15 117.65q4.05 58.8 7.55 117.85q0.55 8.95 0.55 17.95q10.1 -57.7 13.25 -117q0.35 -6.8 3.25 -12.7q7.1 11.95 9.75 28.95q6.85 44.3 15.25 88.5q4.6 -57.4 8.2 -116.45q3.55 -59.15 9.45 -117.85q0.3 -3.15 1.85 -5.9q2.35 -1.5 4.5 1.25q-5.7 58.3 -9.95 117.75q-4.25 58.95 -6.95 117.8q-0.9 20.1 -6.35 38.9q-5.8 -11.95 -7.4 -28.8q-3.05 -31.9 -8.7 -63.4q-3.45 -19.25 -8.15 -38q-2.85 59.35 -12.85 117.65q-2 11.65 -8.9 17.05q-2.95 -58.75 -7.8 -117.6q-4.85 -58.5 -7.8 -117.85q-1.2 -23.6 -0.25 -45.75q-4.35 -20.6 -2.65 -38.85q1.1 -41 7.8 -81.1q0.25 34.75 -0.7 69.5q-0.7 26.15 -4.05 50.5q-6.8 -18.25 -9.15 -37.65q-2.35 -19.05 -6.35 -37.85q-0.4 58.15 -7.15 116.95q-0.5 4.4 -3.6 6.05q-1.65 -28.75 1.3 -58.7q3.35 -33.45 9.45 -64.3q11.05 -58.2 13.2 -117.75q2.2 -60.3 -16.3 -116.35q-6.4 -19.3 -15.75 -37.15q-15.85 -30.3 -50.75 -30.2q-20.9 22.2 -32.1 52.5q-15.35 41.5 -21.05 85.6q-7.6 59.25 -1.7 118.7q5.85 59.15 22.95 115.85q7.75 25.8 34.65 33.55q41.15 -32.25 50.55 -85.15q4 -13.55 -10 -17q-38.1 58.6 -4.7 111.7q2.15 3.4 7.55 1.15q6.15 -2.65 10.5 -7.9q7.85 -9.5 5.15 -21.7q-24.2 24.05 -25.7 -12.6q-0.35 -8.75 0.35 -17.45q3.1 -5.45 0 -10.75q-0.55 0.2 -0.75 0.6q-19.35 43.1 -10.3 89.1q5.85 0.8 11.25 -1q6.05 -2.1 8.6 -7.65q17.95 -38.8 12.9 -80.85q18.6 3.15 18.35 23.75q-0.55 47.3 -22.55 88.3q-5.7 10.65 -18.3 7.95q-11.8 -17.8 -9.15 -41.4q2.35 -21.15 5.8 -42.05q3.85 -23.1 22.5 -34.25q4.5 -1.8 9.1 -1.3q42.8 0.2 60.7 36.65q26.2 53.2 32.75 112.7q6.8 59.05 1.95 118.6q-3.6 44.45 -7.7 88.5q-5.65 60.65 -43.8 106.7q-5.7 6.85 -14.45 9.65q-23.6 7.4 -45.5 16.05q-4.35 -7.15 -2.15 -18.5q1.4 -7.25 1.9 -14.7q4.25 -59.3 3.85 -119.3q-0.35 -59.6 -1.65 -119.2q-1.3 -59.35 -2.05 -119.25q-0.8 -59.5 -2.85 -119.2q-0.45 -12.85 1.75 -24.1q-0.45 -1 -0.5 -2.2q-0.1 -1.55 0.15 -3.05q0.15 -1.1 0.7 -2.2q1.3 -1.2 3 -2.05q1.6 21.5 1.65 44.05q0.35 59.95 1.85 119.25q1.5 59.6 2.2 119.2q0.75 60.05 -2.05 119.35q-0.55 11.3 -1.9 22.35q25.75 -10.2 51.4 -21.5q6.6 -2.9 10.3 -9.3q30.05 -51.35 34.5 -111.75q4.3 -58.65 4.8 -117.85q0.45 -60 -8.9 -118.75q-4.55 -28.7 -11.95 -56.8q-10.15 -38.4 -35.4 -67.95q-22.8 -10.8 -46.95 -9.55q13.55 16.1 12 37.9q-1.6 21.9 -10.75 42q16.85 41.55 18.25 86.2q-15.85 -41.75 -23.6 -86.25q1.25 41.25 -7.9 81.45q-6.2 -22.25 -1.8 -46.9q4.35 -24.55 3 -49.8q-2.25 -41 5.55 -81.05q17.3 -11.4 17.65 -32.5q0.4 -21.75 -9.9 -39.75q3.95 32.15 -1.25 65.7q-4.15 -12.7 -1.95 -26.15q-1.85 -11.65 -0.9 -24.95q5.4 4.9 6.4 12.2q3.3 24.85 -3.4 49.2q-8.35 30.35 -37.7 40.25q-35.4 11.95 -43.05 -28.8q-7 -37.1 1.25 -73.85q4.5 8.8 2.6 23q-3.55 26.1 6.3 49.35q10.3 24.25 33.6 15.65q20.6 -7.55 28.1 -28.4q8.7 -24.4 2.45 -44.75q13.4 0.6 24.55 -6.3q-9.2 -10.55 -23.4 -8.7q-0.15 7.55 -1.15 15q9.7 12.05 9.95 30.8q0.95 -28.8 7.2 -56.65q18 -6.2 31.5 7q4.45 14.3 -7.45 21.4q-17.4 2.05 -34.5 -1.25q0.7 -12.35 0.35 -24.65q-0.65 -20.65 10.15 -36.35q15 -1.45 29.25 3q1.05 1.6 1.3 3.7q0.45 3.55 -1.3 6.8q4.75 5.5 1.75 11.8q-0.3 0.35 -0.6 0.3q-0.95 0.2 -1.9 0q4.85 -0.95 9.7 0.25q-1.2 3.95 -0.85 8.1q0.4 5.4 4 9.3q13 0 23.8 -7.8q4.45 13.45 -10.4 19.05q-7.7 3 -16.15 2.4q-13.45 -20.55 -3.75 -43.35q4.4 -10.4 13.25 -17.65q17.75 1.85 24.6 18.25q9.55 22.75 -8.4 39q-8.75 7.9 -20.35 6.4q-4.05 -26.65 0.6 -53.95q27.75 -1.8 18.1 -28.25q-4.5 -12.2 -17.7 -13.3<g id="1637" transform="matrix(1, 0, 0, 1, 5, 5)">
<path style="fill:#000000;fill-opacity:1" d="M272.95,-5Q311.65 -2.05 329.1 33.15Q339.4 53.95 345.9 76.35Q362.35 133.05 360.95 193Q359.55 252.65 349.45 310.9Q340.75 361 315.35 405.05Q304.5 423.8 285.55 433.9Q266.85 443.85 251 427.4Q224.2 399.6 219.75 359.4Q218.3 346.5 216.2 333.75Q206.75 275.65 207.35 216Q208 156.2 218.9 98Q229.95 39.1 270.3 -2.7Q271.5 -3.95 272.95 -5M543.2,45.75Q519.65 9.4 475.95 20Q456.5 42.05 456.95 73.25Q457.55 111.35 472.05 147.1Q494.45 202.35 508.85 260.95Q522.55 316.8 524.5 374.7Q526.55 435.7 507.6 492.6Q495.7 528.25 462.6 545.7Q452.25 551.15 440.8 552.75Q415.3 556.3 402.9 533.75Q398.8 526.3 397.45 517.7L396.45 518.45L396.2 518.65Q395.55 516.85 394.3 515.25L395.7 512.2L395.55 511.45L395.45 509.2Q395.4 506.55 395.85 503.95Q396.3 501.4 398.45 500.2Q405.2 506.3 408.7 516.9Q412.8 529.25 424.95 533.25Q443.25 539.4 460.25 529.05Q474.25 520.55 485.55 508.6Q501.35 491.9 506.9 469.85Q521.15 413.55 517.3 355.15Q513.5 297.15 496.25 241.8L459.45 123.75Q448.55 88.85 452.6 52.1Q455.05 30.1 467.6 12.6Q475.05 2.2 487.95 1.5Q530.95 -0.25 544.5 39.05Q545.8 42.85 543.2 45.75M514.4,186.65L526.85 188L527.2 198.75L512.25 197.5L512.3 199.85Q512.45 207.65 517.2 214L527.2 213.65Q535.6 211.4 539.95 204Q542.8 208.45 540.95 213.3Q535 228.95 517.45 226.5Q508.35 214.2 507.85 199.05Q507.1 175.45 524.95 161.25Q532.6 161.25 537.3 166.9Q542.45 173.1 539.2 180.5L534.2 173.75Q528.35 173.8 523.2 176.6Q517 179.95 514.4 186.65M393.95,98.5L414.45 56.25Q426.65 83.1 426.7 112.5Q426.3 112.45 426.2 112.3Q416.7 95.5 413.7 72Q406.7 93.7 392.95 112.25L381.45 71.25L363.7 112.9Q367.3 83.75 382.45 55.75L393.95 98.5M381.2,107Q385 129.15 381.2 151.25Q399.1 148.35 416.2 154.25L416.3 163.6L376.7 163.75Q376.55 152.3 375.4 141Q373.45 122.5 381.2 107M368.2,161.25Q375.25 219.4 379.35 278.9Q383.4 337.7 386.9 396.75Q387.45 405.7 387.45 414.7Q397.55 357 400.7 297.7Q401.05 290.9 403.95 285Q411.05 296.95 413.7 313.95Q420.55 358.25 428.95 402.45Q433.55 345.05 437.15 286Q440.7 226.85 446.6 168.15Q446.9 165 448.45 162.25Q450.8 160.75 452.95 163.5Q447.25 221.8 443 281.25Q438.75 340.2 436.05 399.05Q435.15 419.15 429.7 437.95Q423.9 426 422.3 409.15Q419.25 377.25 413.6 345.75Q410.15 326.5 405.45 307.75Q402.6 367.1 392.6 425.4Q390.6 437.05 383.7 442.45Q380.75 383.7 375.9 324.85Q371.05 266.35 368.1 207Q366.9 183.4 367.85 161.25L368.2 161.25M461.1,255.6Q456.75 235 458.45 216.75L475.4 297.1Q476.5 256.1 483.2 216Q483.45 250.75 482.5 285.5Q481.8 311.65 478.45 336L476.6 331.1Q469.8 312.85 467.45 293.45Q465.1 274.4 461.1 255.6M457.2,213.5Q456.8 271.65 450.05 330.45Q449.55 334.85 446.45 336.5Q444.8 307.75 447.75 277.8Q451.1 244.35 457.2 213.5M339.8,316.2Q350.85 258 353 198.45Q355.2 138.15 336.7 82.1Q330.3 62.8 320.95 44.95Q305.1 14.65 270.2 14.75Q249.3 36.95 238.1 67.25Q222.75 108.75 217.05 152.85Q209.45 212.1 215.35 271.55Q221.2 330.7 238.3 387.4Q246.05 413.2 272.95 420.95L286.45 416.7Q327.6 384.45 337 331.55L339.8 316.2M449.7,395.7L439.7 436.95L456.7 438.7Q459.8 444 456.7 449.45L438.6 446.65Q437.9 455.35 438.25 464.1Q439.75 500.75 463.95 476.7L463.8 474.95L465.2 473.7L466.2 469.95L470.45 467.7Q473.15 479.9 465.3 489.4Q460.95 494.65 454.8 497.3Q449.4 499.55 447.25 496.15Q413.85 443.05 451.95 384.45Q465.95 387.9 461.95 401.45L457.45 394.45L454.15 393.5L449.7 395.7M186.75,67.05Q186.2 67.25 186 67.65Q166.65 110.75 175.7 156.75Q181.55 157.55 186.95 155.75Q193 153.65 195.55 148.1Q213.5 109.3 208.45 67.25L203.95 63.75L193.2 63.5L186.75 67.05M197.95,49.5Q216.55 52.65 216.3 73.25Q215.75 120.55 193.75 161.55Q188.05 172.2 175.45 169.5Q163.65 151.7 166.3 128.1Q168.65 106.95 172.1 86.05Q175.95 62.95 194.6 51.8L197.95 49.5M13.5,2.2L14.5 -0.5L14.7 1.65L14.9 1.55Q19.4 -0.25 24 0.25Q66.8 0.45 84.7 36.9Q110.9 90.1 117.45 149.6L124.15 209Q130.95 268.05 126.1 327.6Q122.5 372.05 118.4 416.1Q112.75 476.75 74.6 522.8Q68.9 529.65 60.15 532.45Q36.55 539.85 14.65 548.5L14 551.45L12.3 549.45L12.25 549.45L11.5 548.2Q7.15 541.05 9.35 529.7Q10.75 522.45 11.25 515Q15.5 455.7 15.1 395.7Q14.75 336.1 13.45 276.5Q12.15 217.15 11.4 157.25Q10.6 97.75 8.55 38.05Q8.1 25.2 10.3 13.95Q9.85 12.95 9.8 11.75L9.65 9.5Q9.55 7.95 9.8 6.45Q9.95 5.35 10.5 4.25Q11.8 3.05 13.5 2.2M15.8,14.7Q17.4 36.2 17.45 58.75L17.9 148Q18.25 207.95 19.75 267.25Q21.25 326.85 21.95 386.45Q22.7 446.5 19.9 505.8Q19.35 517.1 18 528.15Q43.75 517.95 69.4 506.65Q76 503.75 79.7 497.35Q109.75 446 114.2 385.6Q118.5 326.95 119 267.75Q119.45 207.75 110.1 149Q105.55 120.3 98.15 92.2Q88 53.8 62.75 24.25Q39.95 13.45 15.8 14.7M152.1,108.25Q165.65 124.35 164.1 146.15Q162.5 168.05 153.35 188.15Q170.2 229.7 171.6 274.35L171.7 280Q155.85 238.25 148.1 193.75L141.6 198.05Q142.85 239.3 133.7 279.5Q127.5 257.25 131.9 232.6Q136.25 208.05 134.9 182.8Q132.65 141.8 140.45 101.75L140.7 105.25L145.95 103.25L152.1 108.25M140.85,113.4L141.7 186.25Q159 174.85 159.35 153.75Q159.75 132 149.45 114L140.85 113.4M148.45,364L151.4 323.05L154.2 350.25L175.25 348.7L178.25 323.3L178.45 323.15Q182.4 355.3 177.2 388.85L176.1 386.3Q171.95 373.6 174.15 360.15L153.8 360.4L149.35 388.95Q147.5 377.3 148.45 364M307.45,436.95Q312.85 441.85 313.85 449.15Q317.15 474 310.45 498.35Q302.1 528.7 272.75 538.6Q237.35 550.55 229.7 509.8Q222.7 472.7 230.95 435.95Q235.45 444.75 233.55 458.95Q230 485.05 239.85 508.3Q250.15 532.55 273.45 523.95Q294.05 516.4 301.55 495.55Q310.25 471.15 304 450.8L307.45 436.95M136.15,515Q149.55 515.6 160.7 508.7Q151.5 498.15 137.3 500Q137.15 507.55 136.15 515M156.5,522.65Q166.2 534.7 166.45 553.45L149.15 524.55L134.25 525.3L124.85 552.4Q125.8 523.6 132.05 495.75L133.45 493.7Q151.45 487.5 164.95 500.7Q169.4 515 157.5 522.1L156.5 522.65M501.2,442.2Q483.8 444.25 466.7 440.95Q467.4 428.6 467.05 416.3Q466.4 395.65 477.2 379.95L471.95 428.7Q486.95 427.25 501.2 431.7Q502.25 433.3 502.5 435.4Q502.95 438.95 501.2 442.2M536.75,493.7Q541.5 499.2 538.5 505.5Q538.2 505.85 537.9 505.8Q536.95 506 536 505.8L533.45 501.7L521.2 501.7L515.15 508.45L519.1 507.7Q523.95 506.75 528.8 507.95L529.5 517.05L509.05 521.8Q507.85 525.75 508.2 529.9Q508.6 535.3 512.2 539.2Q525.2 539.2 536 531.4L538 530Q542.45 543.45 527.6 549.05Q519.9 552.05 511.45 551.45Q498 530.9 507.7 508.1Q512.1 497.7 520.95 490.45L535.2 491.95L536.75 493.7M337.7,444.7L337.7 437.2L340.45 436.05L342.2 431.7L342.6 435.55Q360.35 437.4 367.2 453.8Q376.75 476.55 358.8 492.8Q350.05 500.7 338.45 499.2Q334.4 472.55 339.05 445.25L337.7 444.7M342.95,487Q370.7 485.2 361.05 458.75Q356.55 446.55 343.35 445.45L341.3 485.75L342.95 487" />
</g>
</svg>
