<?xml version="1.0" encoding="utf-8"?>
<svg version="1.1" id="Layer_1"
xmlns="http://www.w3.org/2000/svg"
xmlns:xlink="http://www.w3.org/1999/xlink"


xml:space="preserve">
q-20.8 -5.1 -42.15 -3.05q-0.8 70.3 -5.4 140.2q-0.55 8.75 -0.6 17.6q-0.1 10.45 4.15 17.7q5.1 -24.3 5.85 -49.9q1.1 -35.6 0.9 -71.2q-0.15 -27.1 -1 -54.25q1.25 -1.35 1.55 -3.1q-1.1 -0.1 -1.4 1q-1.35 5.65 -1.3 11.25q-13.15 1.8 -25.55 5.45q0.35 -34.3 -0.95 -68.15q-0.75 0.1 -0.8 0.35q-6.05 36.95 -5.95 75.6q0.1 29.75 -3.85 59.1q-2.35 17.45 3.85 29.15q5.15 -22.15 6.2 -45.7q1 -21 1.35 -41.75q13.35 1.8 25.8 -1.3q0.05 15 -1.65 29.8q-2 17.45 4.2 29.2q5.05 -33.85 4.6 -69.75q-0.75 -59.7 -3.35 -118.45q-5.25 34.75 -4.65 71.95q1 59.9 0.75 119.2q0.75 2.8 3.25 1.5q4.05 -36.1 3.75 -73.5q-0.5 -60.45 -2.75 -119.2q-3.3 37.2 -4.4 75.7q-1.5 51.55 -2.3 102.95q-1.6 2.2 -1.7 5q-0.2 4.4 1.5 8.2q0.25 1.75 2 2q14.3 6.9 30.1 1.6q33.1 -11.1 42.35 -46.3q15.55 -59.05 -8.1 -115.35q-13.5 -32.1 -48.75 -31.15q-4.2 -0.7 -8.45 0.9q42.85 -4 57.85 34.25q7.25 18.45 8.6 38.4q2.6 38.4 -16.65 71.25q-18.55 31.6 -54.85 21.15q3.7 -29.4 4.75 -60.3q1.8 -53.9 -1 -107.05<g id="1795" transform="matrix(1, 0, 0, 1, -138.35, 0)">
<path style="fill:#000000;fill-opacity:1" d="M401,196.15Q400.7 197.9 399.45 199.25L359.5 199.65Q360.35 226.8 360.5 253.9Q360.7 289.5 359.6 325.1Q358.85 350.7 353.75 375Q349.5 367.75 349.6 357.3Q349.65 348.45 350.2 339.7Q354.8 269.8 355.6 199.5L313.7 195.5L314 188.45L323.65 187.1L358.05 184.45Q379.4 182.4 400.2 187.5L400.45 188.2L401.15 190.9L401.35 193.5L401 196.15M424.6,184.8L424.95 185.5Q427.55 244.25 428.3 303.95Q428.75 339.85 423.7 373.7Q417.5 361.95 419.5 344.5Q421.2 329.7 421.15 314.7L421.05 281.2Q408.6 284.3 395.25 282.5Q394.9 303.25 393.9 324.25Q392.85 347.8 387.7 369.95Q381.5 358.25 383.85 340.8Q387.8 311.45 387.7 281.7Q387.6 243.05 393.65 206.1Q393.7 205.85 394.45 205.75Q395.75 239.6 395.4 273.9Q407.8 270.25 420.95 268.45L420.5 195.5Q420.45 189.9 421.8 184.25Q422.1 183.15 423.2 183.25L424.6 184.8M282.2,179.75Q284.45 238.5 284.95 298.95Q285.25 336.35 281.2 372.45Q278.7 373.75 277.95 370.95Q278.2 311.65 277.2 251.75Q276.6 214.55 281.85 179.8L282.2 179.75M148.5,179.5L149.55 178.9Q153.8 177.3 158 178Q193.25 177.05 206.75 209.15Q230.4 265.45 214.85 324.5Q205.6 359.7 172.5 370.8Q156.7 376.1 142.4 369.2L142 371.7Q140.25 371.45 140 369.7L140.05 367.4Q138.35 363.6 138.55 359.2Q138.65 356.4 140.25 354.2Q141.05 302.8 142.55 251.25Q143.65 212.75 146.95 175.55L147.5 175.5L147.9 181.75L148.5 179.5M148.75,188.35L148.2 186.95Q151 240.1 149.2 294Q148.15 324.9 144.45 354.3Q180.75 364.75 199.3 333.15Q218.55 300.3 215.95 261.9Q214.6 241.95 207.35 223.5Q192.35 185.25 149.5 189.25L148.75 188.35" />
</g>
</svg>
