<?xml version="1.0" encoding="utf-8"?>
<svg version="1.1" id="Layer_1"
xmlns="http://www.w3.org/2000/svg"
xmlns:xlink="http://www.w3.org/1999/xlink"


xml:space="preserve">
q-4 20.7 -2 42.1q5.7 60.5 -5.45 119.05q-4.5 23.65 -17.55 43.5q-14.25 21.65 -38 18.05q-8.05 -17.25 -8.85 -36.7q-1.85 -44.15 -1.5 -88.5q0.45 -59.9 -5.9 -118.5q-3.8 8.6 -3.2 19.75q1.65 31.45 2.7 63.05q2.05 59.45 0.35 119.2q-0.9 33.1 16.4 59.2q6.6 1.7 13.5 1.5q10.35 -4.55 17.8 -12.6q31.3 -33.8 35.6 -81.4q5.35 -59.25 1.25 -119.2q-0.5 -7.4 1.35 -14.65q4.45 -17.7 -5 -29.35q-2.25 3.95 -3.5 8q0 0.35 0.15 0.7q1.15 3.3 1.85 6.8q-10.5 -3.35 -19.55 2.6q-4 45.55 -2.25 91.35q1.35 36.3 -2.3 72.45q-2.95 29.4 -7.2 58.7q0.95 22.8 -2.8 45.5q-1 6 0.85 11.7q1.15 3.65 3.2 7q14.7 -57.7 15.55 -117.8q0.1 -6.3 0.45 -12.55q14.25 56.55 33.5 111.7q3.55 10.2 10.35 18.7q5.65 -28.15 -6.9 -56.5q16.1 -7.2 24.75 -22.65q5.3 -9.4 7.85 -19.85q3.35 -13.65 2.65 -27.7q-0.4 -8.2 -2.25 -16q-5.4 -13.25 -15.45 -23.35q-5.9 -5.95 -12.55 -10.7q21.9 -6.35 35.6 17.05q11.45 19.45 9.95 42.1q-1.5 23.2 -19.1 37.95q-11.45 9.65 -26.25 11.8q2.8 -53.9 -2.45 -107.65q13.3 19.9 18.55 44.55q12.55 58.9 -0.95 117.7q-7.2 31.4 -27.1 55.2q-19.15 22.9 -41.35 4q-2.95 -2.5 -4.05 -6q-9.7 -29.8 -11.8 -61.75q-4 -60.1 9.65 -117.65q8.1 -34.25 39.3 -50.4q7.35 -1.05 12 4.5q0.6 2.45 2.05 4.45q-5.35 -37.35 -39.3 -49q-27.8 12.25 -39.9 41.8q-14.2 34.8 -16.1 72.85q-3.05 59.9 4.35 118.75q2.75 21.8 21 33.75q22.15 14.5 40 -6.65q22.9 -27.25 31.15 -63.25q13.45 -58.55 3.5 -118.1q-2.5 -15.15 -4.7 -30.15q-4.3 10.5 -4.65 23.75q-1.55 59.6 -2.95 119.25q-1.35 58.85 -3.1 117.45q-0.65 -3.55 -2.3 -6.75q-0.35 3.2 -0.45 6.75q-0.35 12.75 6.45 19.25q1 -0.85 1.15 -2.25q26.7 1.6 48.95 -15.5q33.35 -27.55 43.65 -70.6q13.9 -57.9 5.9 -117.6q-3.1 -23.4 -14.15 -44.35q-18.5 -35.15 -57.9 -38.4q-4.45 -1.2 -8.75 -0.05q-3.35 0.85 -6.5 2.05q-1.5 0.6 -2.95 1.3q-0.9 1.35 -0.95 3q11.25 16.9 15.8 37.15q13.2 59.1 -2.25 117.3q-17.8 67.25 -85.7 77.5q3 -45.35 2.95 -90.95q-0.1 -59.9 2.3 -119.3q0.6 -15.1 3.5 -29.7q1.9 -9.6 2 -18.65q23.25 -1.1 43.45 10.1q11 6.1 17.95 16.55<g id="1641" transform="matrix(1, 0, 0, 1, -66.2, 0)">
<path style="fill:#000000;fill-opacity:1" d="M395.6,134.95Q395.45 134.6 395.45 134.25Q396.7 130.2 398.95 126.25Q408.4 137.9 403.95 155.6Q402.1 162.85 402.6 170.25Q406.7 230.2 401.35 289.45Q397.05 337.05 365.75 370.85Q358.3 378.9 347.95 383.45Q341.05 383.65 334.45 381.95Q317.15 355.85 318.05 322.75Q319.75 263 317.7 203.55Q316.65 171.95 315 140.5Q314.4 129.35 318.2 120.75Q324.55 179.35 324.1 239.25Q323.75 283.6 325.6 327.75Q326.4 347.2 334.45 364.45Q358.2 368.05 372.45 346.4Q385.5 326.55 390 302.9Q401.15 244.35 395.45 183.85Q393.45 162.45 397.45 141.75Q396.75 138.25 395.6 134.95M464,131.95Q474.05 142.05 479.45 155.3L482.05 162.5L483.45 167.45Q485.3 175.25 485.7 183.45Q486.4 197.5 483.05 211.15Q480.5 221.6 475.2 231Q466.55 246.45 450.45 253.65L484.05 328.95Q496.6 357.3 490.95 385.45Q484.15 376.95 480.6 366.75Q461.35 311.6 447.1 255.05L433.7 255.6Q433.35 261.85 433.25 268.15Q432.4 328.25 417.7 385.95Q415.65 382.6 414.5 378.95Q412.65 373.25 413.65 367.25Q417.4 344.55 416.45 321.75L418.45 341.5Q422.7 312.2 425.65 282.8Q429.3 246.65 427.95 210.35Q426.2 164.55 430.2 119L430.85 124.65L431.9 123.85Q440.95 117.9 451.45 121.25Q458.1 126 464 131.95M431.9,134.9Q437.15 188.65 434.35 242.55Q449.15 240.4 460.6 230.75Q478.2 216 479.7 192.8Q481.2 170.15 469.75 150.7Q456.05 127.3 434.15 133.65L431.9 134.9M264,138.45Q262.55 136.45 261.95 134Q257.3 128.45 249.95 129.5Q218.75 145.65 210.65 179.9Q197 237.45 201 297.55Q203.1 329.5 212.8 359.3Q213.9 362.8 216.85 365.3Q239.05 384.2 258.2 361.3Q278.1 337.5 285.3 306.1Q298.8 247.3 286.25 188.4Q281 163.75 267.7 143.85L264 138.45M294.95,196.15Q304.9 255.7 291.45 314.25Q283.2 350.25 260.3 377.5Q242.45 398.65 220.3 384.15Q202.05 372.2 199.3 350.4Q191.9 291.55 194.95 231.65Q196.85 193.6 211.05 158.8Q223.15 129.25 250.95 117Q284.9 128.65 290.25 166Q292.45 181 294.95 196.15M80.05,115L80.05 112.75Q80.1 111.1 81 109.75Q82.45 109.05 83.95 108.45L85.5 106L85.7 107.75Q88.85 106.55 92.2 105.7Q96.5 104.55 100.95 105.75Q140.35 109 158.85 144.15Q169.9 165.1 173 188.5Q181 248.2 167.1 306.1Q156.8 349.15 123.45 376.7Q101.2 393.8 74.5 392.2L74.25 392.05L74.15 393.2Q74 394.6 73 395.45Q66.2 388.95 66.55 376.2Q66.65 372.65 67 369.45Q68.65 372.65 69.3 376.2L69.5 376.45Q71.25 317.85 72.6 259Q74 199.35 75.55 139.75Q75.9 126.5 80.2 116L80.05 115M129.6,127.7Q109.4 116.5 86.15 117.6Q86.05 126.65 84.15 136.25Q81.25 150.85 80.65 165.95Q78.25 225.35 78.35 285.25Q78.4 330.85 75.4 376.2Q143.3 365.95 161.1 298.7Q176.55 240.5 163.35 181.4Q158.8 161.15 147.55 144.25Q140.6 133.8 129.6 127.7" />
</g>
</svg>
