<?xml version="1.0" encoding="utf-8"?>
<svg version="1.1" id="Layer_1"
xmlns="http://www.w3.org/2000/svg"
xmlns:xlink="http://www.w3.org/1999/xlink"


xml:space="preserve">
q-17.4 8.25 -26.9 26.2q-10.25 19.5 -14.55 41.4q-3.75 18.95 -4.7 38q-1.05 20.25 3.8 39.8q4.85 19.4 15.9 35.75q11.65 17.3 34.9 13.65q20.9 -3.2 35.75 -18.3q-1.85 12.9 4.9 21.85q8.9 -29.2 4.05 -57.65q-15.6 0 -30.25 5.5q5.85 6.4 14.95 2.75q5.85 -2.35 12.1 -0.75q-7.15 23.2 -32.55 28.8q-16.7 3.7 -33.45 -0.3q-23 -28.85 -21.95 -66.85q0.95 -33.05 12.95 -63.85q4.1 -10.6 9.95 -20.35q3.8 -6.3 10.55 -8.85q6.9 -2.6 13.7 0.05q24.05 9.35 43.8 26.4q-0.95 -13.55 -11.95 -23.65q-14.15 -12.95 -32.8 -17.6q-3.4 6.85 -3.4 16.5q0.1 59.65 -1.3 119.2q-0.3 11.3 -2 22.25q-2.65 16.85 3.95 29.5q4.7 -32.8 4.75 -67.5q0.1 -59.45 -0.25 -118.45q22.3 -18.7 1.5 -38.5q-2.5 2.85 -1.45 6.95q-6.05 0.35 -11.6 1.6q-0.45 1.45 -0.45 3q-0.05 1.95 0.7 3.75q-4.6 51 -2.35 103.85q1 22.75 -0.55 44.95q-1.15 16.7 3.95 29.3q17.25 8.5 35.65 4.1q5.75 -1.4 9.1 -6.3q32.6 -47.85 22.8 -106.65q-8.45 -50.8 -54.9 -70.55q29.35 2.3 44.35 27.9q8.65 14.75 13.75 31.2q6.45 20.95 3.65 42.8q-2.5 19.45 -10.85 37.45q-8.45 18.15 -27.3 18.35q-11.8 0.15 -22.3 -5.75<g id="1804" transform="matrix(1, 0, 0, 1, -139.85, 0)">
<path style="fill:#000000;fill-opacity:1" d="M402.75,197.85Q413.75 207.95 414.7 221.5Q394.95 204.45 370.9 195.1Q364.1 192.45 357.2 195.05Q350.45 197.6 346.65 203.9Q340.8 213.65 336.7 224.25Q324.7 255.05 323.75 288.1Q322.7 326.1 345.7 354.95Q362.45 358.95 379.15 355.25Q404.55 349.65 411.7 326.45Q405.45 324.85 399.6 327.2Q390.5 330.85 384.65 324.45L385.2 319.7Q399.85 314.2 415.45 314.2L416.1 319.2Q420.95 347.65 412.05 376.85Q405.3 367.9 407.15 355Q392.3 370.1 371.4 373.3Q348.15 376.95 336.5 359.65Q325.45 343.3 320.6 323.9Q315.75 304.35 316.8 284.1Q317.75 265.05 321.5 246.1Q325.8 224.2 336.05 204.7Q345.55 186.75 362.95 178.5L369.95 180.25Q388.6 184.9 402.75 197.85M271.2,182.5L271.95 183.25Q272.3 242.25 272.2 301.7Q272.15 336.4 267.45 369.2Q260.85 356.55 263.5 339.7Q265.2 328.75 265.5 317.45Q266.9 257.9 266.8 198.25Q266.8 188.6 270.2 181.75L271.2 182.5M291,183.55Q311.8 203.35 289.5 222.05L287.15 220.35L296.2 201.5L293.45 194.75L290.2 192.5L289.55 190.5Q288.5 186.4 291 183.55M159.5,182.25Q205.95 202 214.4 252.8Q224.2 311.6 191.6 359.45Q188.25 364.35 182.5 365.75Q164.1 370.15 146.85 361.65L145.5 370.45Q140.4 357.85 141.55 341.15Q143.1 318.95 142.1 296.2Q139.85 243.35 144.45 192.35L143.75 192.25Q143 190.45 143.05 188.5Q143.05 186.95 143.5 185.5L143.75 184.75L145.2 184.4L145.7 179.25L146 179L147.4 183.85Q152.95 182.6 159 182.25L159.5 182.25M149.55,344.8Q160.05 350.7 171.85 350.55Q190.7 350.35 199.15 332.2Q207.5 314.2 210 294.75Q212.8 272.9 206.35 251.95Q201.25 235.5 192.6 220.75Q177.6 195.15 148.25 192.85L146.25 206.25L149.55 344.8" />
</g>
</svg>
