<?xml version="1.0" encoding="utf-8"?>
<svg version="1.1" id="Layer_1"
xmlns="http://www.w3.org/2000/svg"
xmlns:xlink="http://www.w3.org/1999/xlink"


xml:space="preserve">
q3 -6.2 -0.7 -11.95q-51.15 -0.6 -101 2q-2.1 5.45 1 9.75q-0.35 1.65 -0.45 3.45q-1.45 22.7 -2.75 45.7q-3.25 59.3 -3.95 118.55q0.75 2.8 3.25 1.5q3.75 -29.65 5.1 -59.95q2.45 -55.05 2.85 -109.15q26.25 0.3 52.55 -1.1q3.05 -15 0.2 -30.25q-7.75 15 -0.3 30.3q0.95 37.45 -6.25 73.5q-8 3 -13.75 -1.75q0.95 -7 -4 -7.5q-2.75 10 -0.4 20.2q7.6 5.25 16.9 3.8q1.5 -0.25 2 -1.15q11.3 -20.55 10.8 -45.65q-0.5 -26.95 -1.45 -52.5q-3.65 3.9 -3.5 10.25q-4.3 58.95 -5.05 118.45q-0.3 22.65 -3.7 44.8q-2.55 16.8 3.65 29.45q4.1 -17.8 5 -37.45q1.95 -60 0.55 -118.5q-1.8 -0.3 -1.9 1.5q-6.2 19 -5.4 41.5q2.05 60.05 -4.05 119.05q-0.9 8.55 0.1 15.85q0 2.7 0.55 5.3q0.4 1.75 1.85 2.75q16.85 2.85 33.05 -1.65q13.2 -3.65 21.9 -14q21.4 -25.45 21.85 -59.65q0.4 -29.75 -9.35 -57.15q-15.6 -43.8 -61.65 -51.3q6.65 18.2 6.5 37.45q-0.2 21.95 -11.4 40.7q-10.95 18.4 -32.15 24.3q-13 3.5 -26.55 3.25q6.15 -79.75 3.5 -159.8q21.2 3.9 36.8 18.65q15.85 15 23.3 35.45<g id="1801" transform="matrix(1, 0, 0, 1, -137.9, 0)">
<path style="fill:#000000;fill-opacity:1" d="M419.7,201.25Q393.4 202.65 367.15 202.35Q366.75 256.45 364.3 311.5Q362.95 341.8 359.2 371.45Q356.7 372.75 355.95 369.95Q356.65 310.7 359.9 251.4Q361.2 228.4 362.65 205.7Q362.75 203.9 363.1 202.25L319.45 200.25Q316.35 195.95 318.45 190.5Q368.3 187.9 419.45 188.5Q423.15 194.25 420.15 200.45L419.7 201.25M417.9,254.55Q410.45 239.25 418.2 224.25Q421.05 239.5 418 254.5L417.9 254.55M418.2,271.45Q419.15 297 419.65 323.95Q420.15 349.05 408.85 369.6Q408.35 370.5 406.85 370.75Q397.55 372.2 389.95 366.95Q387.6 356.75 390.35 346.75L390.7 345.95Q395.65 346.45 394.7 353.45Q400.45 358.2 408.45 355.2Q415.65 319.15 414.7 281.7Q414.55 275.35 418.2 271.45M282.45,180.25Q283.85 238.75 281.9 298.75L280.45 337Q279.55 356.65 275.45 374.45Q269.25 361.8 271.8 345Q275.2 322.85 275.5 300.2Q276.25 240.7 280.55 181.75Q280.65 179.95 282.45 180.25M148.9,183.15L149 183Q195.05 190.5 210.65 234.3Q220.4 261.7 220 291.45Q219.55 325.65 198.15 351.1Q189.45 361.45 176.25 365.1Q160.05 369.6 143.2 366.75L142.75 369.95L141.2 366.25Q139.75 365.25 139.35 363.5Q138.8 360.9 138.8 358.2L138.9 356.65Q137.9 349.35 138.8 340.8Q144.9 281.8 142.85 221.75Q142.05 199.25 148.25 180.25L148.3 183.6L148.9 183.15M185.2,211.25Q169.6 196.5 148.4 192.6Q151.05 272.65 144.9 352.4Q158.45 352.65 171.45 349.15Q192.65 343.25 203.6 324.85Q214.8 306.1 215 284.15Q215.15 264.9 208.5 246.7Q201.05 226.25 185.2 211.25" />
</g>
</svg>
