<?xml version="1.0" encoding="utf-8"?>
<svg version="1.1" id="Layer_1"
xmlns="http://www.w3.org/2000/svg"
xmlns:xlink="http://www.w3.org/1999/xlink"


xml:space="preserve">
q0 1.8 -4.55 14.25q-18.1 50.55 -27 89.1q-8.95 37.3 -16.8 66.55q-10.65 -17.7 -18.8 -46.2q-3.95 -13.95 -7.65 -23.9q-3.25 13.3 -9.4 42.75q-6.1 26.25 -13.6 42.75q-4.6 -19.3 -12.55 -63.1q-7.7 -42.2 -12.95 -63.65q-16.25 -53.25 -16.25 -61.45q0 -1.5 0.15 -2.7q0.5 -0.45 1.1 -0.6q43 120.55 60.5 242.25q5.9 -16.85 11.3 -45.35q6.95 -36.25 9.45 -46.15q6.15 16.35 16.4 49.25q11 35.35 16.35 50.25q5.5 -22.3 13.8 -61.4q9.35 -44.3 13.45 -61.75q17 -72.9 39.75 -123.1q-2.45 -0.3 -5.55 0.1q2.25 -0.95 7.75 -4.7q2 3.6 2 7.1q-1.65 7.1 -4.35 12.25q-8.35 15.75 -27.45 15.75q-27.9 0 -38.75 -18.5q-5.75 -9.8 -5.75 -22.5q0 -28.4 10.85 -48.9q9.05 -17.05 23.9 -26.1q12.75 -7.8 23.9 -6.85q10.85 0.95 10.85 8.95q0 1.7 -0.35 2.3q-0.3 0.4 -1.15 0.6q-2.5 -2 -3.8 -2.6q-1.9 -0.9 -9.7 -0.9q-30.45 0 -43.95 35.25q-1.9 4.95 -3.3 10q-1 2.55 -4.15 3.85q-4.75 1.9 -15.35 1.9q-2.1 9.75 -2.5 20q0 3.3 1.75 8.15q2.2 6 6.05 11q10.65 13.75 29.2 13.75q19.75 0 28.7 -12.25q2.6 -3.6 5 -9.45q2.2 -5.35 3.05 -6.3q-9.3 -14.3 -19 -20.75q-5.3 -4.15 -7.35 -5.25q-7.1 -3.95 -10.55 -4.9q-2.9 -0.85 -5.05 0.1q-2.55 1.5 -4.55 2.4q-3.65 1.6 -9.1 1.9q-3.15 0.15 -4.05 -0.75q-14.5 8.25 -22.3 19.55q-6.3 9.1 -9.25 22q-0.6 2.4 -3.8 22.7q-2.15 13.55 -5.9 21.75q-3.35 17.4 -4.15 44.15q-1 4 -1 9.75q0 25.75 5.95 47.15q10.4 37.1 35.05 35.85q35.15 -5.6 55.6 -79.65q7.35 -26.6 11.5 -57.85q3.4 -25.35 3.4 -41.5q0 -9.25 -4.55 -47.65q-4.2 -35.35 -4.95 -38.45q-2.7 -14.25 -4.55 -21.8q-3.35 -13.35 -8.95 -21.7q-3.8 36.25 -10.5 66.4q-21.35 95.75 -63.55 95.75q-11.05 -1.65 -18 -6.2q-7.35 -4.85 -12.45 -14.4q-5.05 -9.35 -9.25 -25.8q-5 -41.1 -5 -49.1q0 -10.15 1 -14.65q0.3 -71.25 9.1 -112.15q14.35 -66.35 51.4 -69.95q50.5 -10.35 72.4 68.7q7.5 27.15 10.85 62.55q2.25 23.65 2.25 44.5q-2.3 5.75 -2.3 12.3q0 2.9 2.25 8.45q2.85 7 7.55 12.9q13.6 17 35.95 17q40.2 0 56 -18.75q8 -9.5 8 -20.25q0 -14.9 -9.95 -23.6q-9.25 -8.1 -38.8 -20.4q-7.35 -3.1 -27.65 5.05q-18.65 7.5 -24.85 13.7q0 -6.6 2.2 -14.2q2.95 -10 9 -17.85q16.8 -21.85 52.3 -21.45q13.9 0.15 23.6 7.2q2.4 1.75 8.4 7.05q5.6 4.9 9.75 7.75q5.8 5.65 8.7 15.35q2.3 7.75 2.3 16.15q-1.15 12.95 -7.45 24.8q-12.45 23.45 -38.3 23.45q-44.5 0 -61.7 -22.7q-8.8 -11.6 -8.8 -25.55q28.6 4.4 39 13.15q7.85 6.7 7.85 19.6q0 3.45 -2.3 8.6q-2.7 6.05 -7.3 11.15q-5.5 6.05 -12.4 9.4q-7.65 -6.45 -31.85 -34.75q-19.25 -22.55 -24.9 -32.4q-7.05 2.4 -15.35 2.4q-7.1 52.95 -8.45 66.15q-1.15 -1.15 -1.8 -2.7q0 -1.6 5.75 -51.25q-0.15 -0.8 -0.15 -2.15q0 -1.7 0.25 -2.2q3.85 -36.7 3.85 -55.05q0 -2.1 0.85 -3.25q0 25 -2.85 49.35q10.4 -0.6 18.7 -2.9q8.35 -2.55 14.5 -6.95q10.4 -7.45 10.4 -15.7q0 -11.15 -22.3 -20.35q-3.85 -1.6 -15.35 -5.55q0 -17.05 0.15 -21.1q0.4 -12.55 2.1 -19q0.95 2.9 1.35 7.15q1.6 6 2.45 14.95q0.8 7.75 0.8 14.65q-1.1 8.15 -1.7 9.2q-3.55 -7 -3.75 -19.75q0.45 -14.45 0.25 -20.75q-2.05 33.5 -2.9 37.55q-1.5 -2.7 -1.5 -7.9q1.6 -37.4 1.6 -60.35q0.35 -5.65 1.9 -6.15q1 7.35 1.8 20.15q-3.75 -4.75 -7.05 -8.1q-9.8 -9.85 -21.1 -13.05q-12.4 -3.4 -25.95 -8.55q-5.8 -2.2 -9.95 -4.1q-3.65 30.3 -6.4 67.5q-1.85 24.7 -4.35 67.5q-1.05 6.15 -0.95 21.25q0.15 13.45 -2.05 21.35q-2.55 10.1 -2.85 26.1q14.6 -1.45 30 -6.65q9.9 -3.25 13.85 -5.25q4.85 -2.45 13.65 -9q9.45 -7.05 18.9 -17.25q8.8 -9.55 14.1 -18q9.1 -14.25 17.45 -34.5q9.55 -24.6 16 -67.85q6 -40.2 6 -72.25q0 -29.7 -6.55 -59.6q-6.3 -28.95 -19.45 -61.15q-6.95 -20.15 -10.85 -30.15q-6.9 -17.55 -17.65 -30.6q9.1 12.2 16 30.15q3.15 8.15 10.5 32.1q16.15 52.8 19 65q6.75 28.7 6.75 59.85q0 36.7 -4.8 73.25q-5.7 43.2 -16.45 70.25q-4.5 11.25 -13.35 35.05q-8.4 21.3 -17.15 36.2q-3.65 6.1 -10.5 14.9q-9.5 12.25 -19.7 22.2q-29.8 28.9 -55.55 28.9q-12.15 0 -14.95 -3.45q-0.95 -1.15 -0.85 -2.7q0 -3.5 0.3 -4.85q1.35 -38.25 3 -48q0.5 -3 1 -4.5q2.2 -7.4 2.05 -21.7q-0.1 -15.85 0.95 -21.65q4.5 -76 11.25 -135.75q0.15 -5.8 0.45 -8.75q-5.5 -3.15 -5.5 -5.3q0 -7.75 26.55 1.05q13.4 4.5 27.95 10.95q13.2 6.1 20.9 14.8q4.55 5.15 11.85 16.2<g id="1627" transform="matrix(1, 0, 0, 1, -12.1, 0)">
<path style="fill:#000000;fill-opacity:1" d="M530.35,32.6Q530.35 34.4 525.8 46.85L514.6 77.4Q496.5 127.95 487.6 166.5L472.15 232.7Q463.2 270 455.35 299.25Q444.7 281.55 436.55 253.05L430 229.4Q426.05 215.45 422.35 205.5Q419.1 218.8 412.95 248.25Q406.85 274.5 399.35 291Q394.75 271.7 386.8 227.9Q379.1 185.7 373.85 164.25L354.35 99.7Q338.1 46.45 338.1 38.25Q338.1 36.75 338.25 35.55L338.6 33L339 32.6Q339.5 32.15 340.1 32Q383.1 152.55 400.6 274.25Q406.5 257.4 411.9 228.9Q418.85 192.65 421.35 182.75Q427.5 199.1 437.75 232Q448.75 267.35 454.1 282.25Q459.6 259.95 467.9 220.85Q477.25 176.55 481.35 159.1Q498.35 86.2 521.1 36L521.35 35.5Q518.9 35.2 515.8 35.6L511.35 36.25Q513.6 35.3 519.1 31.55L528.35 25.5Q530.35 29.1 530.35 32.6M328.1,116.25L328.55 116.35L329.35 117L327.65 125.5Q326 132.6 323.3 137.75Q314.95 153.5 295.85 153.5Q267.95 153.5 257.1 135Q251.35 125.2 251.35 112.5Q251.35 84.1 262.2 63.6Q271.25 46.55 286.1 37.5Q298.85 29.7 310 30.65Q320.85 31.6 320.85 39.6Q320.85 41.3 320.5 41.9Q320.2 42.3 319.35 42.5Q316.85 40.5 315.55 39.9Q313.65 39 305.85 39Q275.4 39 261.9 74.25Q260 79.2 258.6 84.25L290.2 83L302.85 82.5L303.35 86.25Q302.35 88.8 299.2 90.1Q294.45 92 283.85 92L257.85 91.75L256.85 91.35Q254.75 101.1 254.35 111.35Q254.35 114.65 256.1 119.5Q258.3 125.5 262.15 130.5Q272.8 144.25 291.35 144.25Q311.1 144.25 320.05 132Q322.65 128.4 325.05 122.55Q327.25 117.2 328.1 116.25M331.35,215.75Q322.05 201.45 312.35 195L306.2 190.25Q300.9 186.1 298.85 185Q291.75 181.05 288.3 180.1Q285.4 179.25 283.25 180.2Q280.7 181.7 278.7 182.6Q275.05 184.2 269.6 184.5Q266.45 184.65 265.55 183.75L264.85 181.75Q250.35 190 242.55 201.3Q236.25 210.4 233.3 223.3Q232.7 225.7 229.5 246Q227.35 259.55 223.6 267.75Q220.25 285.15 219.45 311.9L218.35 356.1L218.35 431.85Q217.35 435.85 217.35 441.6Q217.35 467.35 223.3 488.75Q233.7 525.85 258.35 524.6L283.85 524.35Q319 518.75 339.45 444.7Q346.8 418.1 350.95 386.85Q354.35 361.5 354.35 345.35Q354.35 336.1 349.8 297.7Q345.6 262.35 344.85 259.25Q342.15 245 340.3 237.45Q336.95 224.1 331.35 215.75M359.35,345.25L356.9 376.7Q353.1 412.95 346.4 443.1Q325.05 538.85 282.85 538.85L257.05 537.5Q246 535.85 239.05 531.3Q231.7 526.45 226.6 516.9Q221.55 507.55 217.35 491.1Q212.35 450 212.35 442Q212.35 431.85 213.35 427.35L213.35 351.6Q213.65 280.35 222.45 239.45Q236.8 173.1 273.85 169.5Q324.35 159.15 346.25 238.2Q353.75 265.35 357.1 300.75Q359.35 324.4 359.35 345.25M418.85,336.85L412.65 350.45Q410.35 356.2 410.35 362.75Q410.35 365.65 412.6 371.2Q415.45 378.2 420.15 384.1Q433.75 401.1 456.1 401.1Q496.3 401.1 512.1 382.35Q520.1 372.85 520.1 362.1Q520.1 347.2 510.15 338.5Q500.9 330.4 471.35 318.1Q464 315 443.7 323.15Q425.05 330.65 418.85 336.85M407.35,362.1Q407.35 355.5 409.55 347.9Q412.5 337.9 418.55 330.05Q435.35 308.2 470.85 308.6Q484.75 308.75 494.45 315.8Q496.85 317.55 502.85 322.85Q508.45 327.75 512.6 330.6Q518.4 336.25 521.3 345.95Q523.6 353.7 523.6 362.1Q522.45 375.05 516.15 386.9Q503.7 410.35 477.85 410.35Q433.35 410.35 416.15 387.65Q407.35 376.05 407.35 362.1M169.25,23.5Q197.85 27.9 208.25 36.65Q216.1 43.35 216.1 56.25Q216.1 59.7 213.8 64.85Q211.1 70.9 206.5 76Q201 82.05 194.1 85.4L219.5 116.4L247.35 150.35L247.1 152.8L246.1 154.5Q238.45 148.05 214.25 119.75Q195 97.2 189.35 87.35Q182.3 89.75 174 89.75L167.45 89.6Q160.35 142.55 159 155.75Q157.85 154.6 157.2 153.05L156.75 151.35Q156.75 149.75 162.5 100.1L163.9 87.9Q163.75 87.1 163.75 85.75Q163.75 84.05 164 83.55L164.4 83.05Q168.25 46.35 168.25 28Q168.25 25.9 169.1 24.75L169.15 24.25L169.25 23.5M171.25,32.75Q171.25 57.75 168.4 82.1Q178.8 81.5 187.1 79.2L187.25 78.5L188.5 78.5L188.7 78.75Q197.05 76.2 203.2 71.8Q213.6 64.35 213.6 56.1Q213.6 44.95 191.3 35.75Q187.45 34.15 175.95 30.2L171.1 28.35L171.25 32.75M178.05,187.9L178.75 201.5L178.4 214.75L186.05 214.1L195 214.5L202.1 214.9L202 208.1Q202 191.05 202.15 187Q202.55 174.45 204.25 168Q205.2 170.9 205.6 175.15L206 182.25L206 240Q207.6 246 208.45 254.95Q209.25 262.7 209.25 269.6L208.2 279.55Q207.1 287.7 206.5 288.75Q202.95 281.75 202.75 269Q203.2 254.55 203 248.25L202.35 225.25L185 225.25L177.9 224.9L176.65 246.45Q174.6 279.95 173.75 284L172.5 284.25Q171 281.55 171 276.35L172.65 242.6Q174.25 205.2 174.25 182.25L174.35 173.9Q174.7 168.25 176.25 167.75Q177.25 175.1 178.05 187.9M100.65,64.65Q96.9 59.9 93.6 56.55Q83.8 46.7 72.5 43.5Q60.1 40.1 46.55 34.95Q40.75 32.75 36.6 30.85L36.25 33.95L35 41.25L35 93.75Q31.35 124.05 28.6 161.25Q26.75 185.95 24.25 228.75L24.25 282Q23.2 288.15 23.3 303.25Q23.45 316.7 21.25 324.6L21.25 389.1L20.25 392.85L20.25 474.6Q17.7 484.7 17.4 500.7L17 519Q31.6 517.55 47 512.35Q56.9 509.1 60.85 507.1Q65.7 504.65 74.5 498.1Q83.95 491.05 93.4 480.85Q102.2 471.3 107.5 462.85Q116.6 448.6 124.95 428.35L138.5 393.1Q148.05 368.5 154.5 325.25Q160.5 285.05 160.5 253Q160.5 223.3 153.95 193.4Q147.65 164.45 134.5 132.25Q127.55 112.1 123.65 102.1Q116.75 84.55 106 71.5L100.65 64.65M113.25,66Q122.35 78.2 129.25 96.15Q132.4 104.3 139.75 128.25Q155.9 181.05 158.75 193.25Q165.5 221.95 165.5 253.1Q165.5 289.8 160.7 326.35Q155 369.55 144.25 396.6Q139.75 407.85 130.9 431.65Q122.5 452.95 113.75 467.85Q110.1 473.95 103.25 482.75Q93.75 495 83.55 504.95Q53.75 533.85 28 533.85Q15.85 533.85 13.05 530.4Q12.1 529.25 12.2 527.7L12.5 525.85Q12.5 522.35 12.8 521L12.75 516.6Q14.1 478.35 15.75 468.6L15.75 389.1Q16.25 386.1 16.75 384.6L16.75 320.85Q18.95 313.45 18.8 299.15Q18.7 283.3 19.75 277.5L19.75 225Q24.25 149 31 89.25L31 37.5Q31.15 31.7 31.45 28.75L31.5 28.3Q26 25.15 26 23Q26 15.25 52.55 24.05Q65.95 28.55 80.5 35Q93.7 41.1 101.4 49.8Q105.95 54.95 113.25 66" />
</g>
</svg>
