<?xml version="1.0" encoding="utf-8"?>
<svg version="1.1" id="Layer_1"
xmlns="http://www.w3.org/2000/svg"
xmlns:xlink="http://www.w3.org/1999/xlink"


xml:space="preserve">
q0.95 41 0.65 81.75q-0.45 59.6 -2.45 119.25q-0.5 15 -1.9 29.85q-4.25 44.9 -1.1 88.6q26.8 2.25 53.5 -0.5q11.45 -5.5 23.5 -4.75q4.25 -7.9 -0.25 -15.75q-7.15 -3.05 -15.2 -0.3q-8 2.8 -16.2 3.75q-20.55 2.35 -40.85 1.8q3.25 -52.4 4.3 -105.7q1.2 -59.75 -1.45 -118.5q-5.45 18.15 -4.95 39.75q-11.45 -58.15 -22.3 -115.85q-0.6 0.6 -1.1 1.35q-7.95 20.35 -12.2 43.6q-10.6 57.6 -19.5 115.5q-9.1 58.8 -21.4 117.1q-6.3 29.55 -16.85 57.85q-6.4 17.05 0.45 28.9q15.1 -42.05 24.05 -86.95q8.45 -42.1 15.3 -84.5q29.85 3 59.05 -3.85q8.25 57.6 15.55 115.3q-4.05 -8.7 -6.35 -17.95q-0.55 3.65 0.9 7.55q4.05 11.1 6.05 22.75q1.9 11.15 8.05 16.7q1.95 -2.2 1.7 -5.2q-3.45 -36.45 -7.6 -72.95q-6.7 -58.85 -17.95 -116.9q-4.65 37.85 -5.2 77.2q-0.8 59.55 -0.2 119.25q0.6 60.2 -5.1 119.25q-0.9 9.3 -2.7 18.4q-3.3 16.7 2.2 30.05q6.45 -9.5 6.95 -22.2q1.7 -59.5 2.45 -119.2q0.2 -18.85 0.75 -37.5q1.65 -59.85 -0.85 -118.5q-8.75 -1.85 -15.5 1.9q-0.4 1.8 -0.2 3.75q-1.85 16.3 -1.95 34.85q-0.35 59.35 -2.05 118.5q-1.7 59.55 -5.8 118.55q-2.05 30 -5.65 59.8q-1.3 10.9 0.4 20.45q-0.15 2.45 0.35 4.9q0.35 2 1.4 3.75q10.1 4.4 20.5 -0.75q16.55 -8.15 33.1 -17.45q37.25 -20.9 53.25 -59.2q22.9 -55 20.15 -115.55q-2.75 -59.5 -21.85 -115.4q-19.35 -56.45 -77.4 -62.6q18.65 56.6 19.45 116.8q0.4 30.15 -5.45 59.55q-8.4 42.25 -42 68.7q-24.2 20.25 -53.4 23.4q2.55 -56.75 -1.9 -112.35q42.05 -1.9 67.65 28.55q13.45 15 19.95 34.7<g id="1806" transform="matrix(1, 0, 0, 1, -51.8, 0)">
<path style="fill:#000000;fill-opacity:1" d="M391.2,90.75Q393.85 149.5 392.65 209.25L390.25 328.5Q389.2 381.8 385.95 434.2Q406.25 434.75 426.8 432.4Q435 431.45 443 428.65Q451.05 425.9 458.2 428.95Q462.7 436.8 458.45 444.7Q446.4 443.95 434.95 449.45Q408.25 452.2 381.45 449.95Q378.3 406.25 382.55 361.35Q383.95 346.5 384.45 331.5Q386.45 271.85 386.9 212.25Q387.2 171.5 386.25 130.5Q385.75 108.9 391.2 90.75M341.1,262.4Q352.35 320.45 359.05 379.3Q363.2 415.8 366.65 452.25Q366.9 455.25 364.95 457.45Q358.8 451.9 356.9 440.75Q354.9 429.1 350.85 418Q349.4 414.1 349.95 410.45Q352.25 419.7 356.3 428.4L356.45 428.45Q349.15 370.75 340.9 313.15L335.1 274.65Q305.9 281.5 276.05 278.5Q269.2 320.9 260.75 363Q251.8 407.9 236.7 449.95Q229.85 438.1 236.25 421.05Q246.8 392.75 253.1 363.2Q265.4 304.9 274.5 246.1Q283.4 188.2 294 130.6Q298.25 107.35 306.2 87L306.35 89.85Q306.85 89.1 307.45 88.5Q318.3 146.2 329.75 204.35L341.1 262.4M213.45,87.5Q215.95 146.15 214.3 206Q213.75 224.65 213.55 243.5Q212.8 303.2 211.1 362.7L208.9 429.5Q208.4 442.2 201.95 451.7Q196.45 438.35 199.75 421.65Q201.55 412.55 202.45 403.25Q208.15 344.2 207.55 284Q206.95 224.3 207.75 164.75Q208.3 125.4 212.95 87.55L213.45 87.5M84,79Q142.05 85.15 161.4 141.6Q180.5 197.5 183.25 257Q186 317.55 163.1 372.55Q147.1 410.85 109.85 431.75Q93.3 441.05 76.75 449.2Q66.35 454.35 56.25 449.95L56 450.2L55.85 449.75L55.25 449.45Q54.2 447.7 53.85 445.7Q53.35 443.25 53.5 440.8Q51.8 431.25 53.1 420.35Q56.7 390.55 58.75 360.55Q62.85 301.55 64.55 242Q66.25 182.85 66.6 123.5Q66.7 104.95 68.55 88.65L68.3 87.75L68 86.25Q67.8 84.3 68.2 82.5L68.5 81Q75.25 77.25 84 79.1L84 79M137.45,117.75Q111.85 87.3 69.8 89.2Q74.25 144.8 71.7 201.55L66 320.7L60.6 433.35Q89.8 430.2 114 409.95L129.4 397.5Q163 371.05 171.4 328.8Q177.25 299.4 176.85 269.25Q176.05 209.05 157.4 152.45Q150.9 132.75 137.45 117.75M277.5,269.55L333.2 263.1L305.75 109L277.5 269.55" />
</g>
</svg>
