<?xml version="1.0" encoding="utf-8"?>
<svg version="1.1" id="Layer_1"
xmlns="http://www.w3.org/2000/svg"
xmlns:xlink="http://www.w3.org/1999/xlink"


xml:space="preserve">
q-8.35 47.3 -12.75 96q-5.4 59.6 -14.1 118.7q-8.6 58.45 -16.15 115.5q-3.95 -59.15 -6.15 -118.55q-1.7 -44.6 -8.25 -88.35q-4.45 -29.4 -3.55 -59.35q0.9 -30.75 -8.45 -58.5q-8.35 47.1 -15.35 95.55q-2.2 15.05 -3.4 30.2q-4.65 59.5 -12.9 118.3q-8.25 59.15 -6.1 116.3q2.65 -22.85 4.5 -46.4q4.65 -59.5 10.9 -118.75q3.1 -29.5 7.2 -58.8q8.15 -58.6 16.65 -116.5q1.2 42.2 6.45 83.75q7.5 58.85 9.05 118.75q1.5 59.15 6.1 117.75q1.25 15.85 5.4 28.45q2.85 -21.85 5.05 -44.3q5.8 -59.55 15.2 -118.5q9.35 -58.5 15.4 -117.55q3.05 -29.7 8.3 -59.1q2.9 -16.2 -1.95 -28.75q-3.2 1 -4.05 5q-12.7 58.5 -21.9 117.45q-9.05 58.3 -20 116.35q-10.7 56.95 -14.8 114.9q-9.3 -49.5 -16 -99.75q-3.85 -29.35 -5.95 -58.85q-2.15 -30.5 -11.3 -56.85q-4.9 39.55 -8.7 80.15q-5.4 57.55 -9.55 115.3q-1.6 -43.85 -5.4 -87.3q-5.55 -58.1 -13.2 -115.65q-1.75 4.05 0.25 8.25q1.15 18.35 3.35 36.7q6.9 58.2 10.45 117q3.45 58.3 8.6 116.3q1.25 14.55 0.95 29.2q-0.7 30.05 3.4 57.5q9.2 -48.5 12.9 -99.35q4.2 -57.8 9.1 -115.6q3.55 37.95 9.05 75.6q8.55 58.35 16.6 116.25q2.3 16.25 7.1 28.1q6.25 -54.2 12.85 -108.55q5.3 -43.85 12.8 -87.45q10 -58.1 21.15 -116.1q2.8 -14.55 7.35 -28.65q7.2 -22.35 5.6 -43.95q-7.55 -6.7 -16.85 -10.75q-7.6 -3.3 -15.75 -4.45q-1.55 -0.2 -3.1 0.45q-1.55 0.6 -2.65 1.7q-11 10.4 -16.15 24.95q-14.6 41.6 -19.6 85.5q-3.9 34.3 -3.85 69.1q-19.2 -39.55 -27 -83.65q43.85 -30.6 18.75 -81.05q-2.85 -5.65 -6.75 -10.7q-9.5 -2.75 -17.1 2.55q3.5 -3.85 8.7 -3.55q4 0.25 7.8 1.55q27.35 50.85 -16.05 81.6q-9 41.25 -9.2 83.85q-7.4 42.1 -4.2 84.2q9.6 -42.5 9.65 -86.25q6.45 50.8 20.3 99.15q7.95 27.8 5.7 57.7q-3.75 49.35 12.25 95.15q9.15 26.15 33.9 34.75q12.4 4.3 22.95 -4.25q10.45 -8.45 16.95 -20.1q5.9 -12 10.15 -24.55q3.45 -12.9 5.2 -26.15q5.85 -44.1 6.65 -88.7q0.45 -33.45 -2.2 -66.75q-3.35 -42.55 -14.15 -83.5q-2 -7.55 -6 -14.4q-5 -8.6 -12.45 -15.2q16.9 27.45 21.75 60.35q8.65 58.8 5.85 118.7q-2.85 59.5 -15.5 117.1q-7.7 34.95 -38.05 51q-5.4 2.85 -11.2 0.2q-30 -13.6 -36.55 -46.65q-3.8 -19.4 -4.15 -39.7q-1.05 -59.7 -0.4 -119.2q0.65 -59.8 15.95 -117.1q2.05 -7.6 3.45 -15.2q4.2 -23.05 22.65 -33.7q6.6 -0.5 13 1.25q0.8 1.85 0.35 4.5q-0.25 1.55 0.4 3q5.45 2.3 10.75 5q3.65 0.55 5.15 3.95q3.35 7.55 3.6 15.05q0.8 -2.9 0.55 -6q-0.25 -2.6 0.45 -5q1.15 1.1 1.95 2.45q13.05 9 30.35 15.25q25.8 9.3 38.1 33.7q25.65 51 34.25 107.95q8.75 58.3 -4.5 115.7q-11.65 50.6 -54.55 78.6q-21.9 7.15 -43.8 13.05q5.75 -57.4 5.55 -116q-0.3 -59.3 -1.8 -118.5q0.25 2.2 1.25 0.5q-0.75 -3.5 -2.15 -7.5q-3 24.75 -1.8 51.75q2.7 59.3 1.6 119.25q-1.1 59.55 -1.8 119.2q-0.35 30.35 -5.95 59.75q-1.5 7.85 -0.4 13.95q-0.95 1.7 -1.2 3.55q-0.35 3.25 1.05 6q20.4 -2.4 40.85 -11.05q42.75 -18.1 58.15 -62q19.6 -56 15.45 -116.05q-4.05 -59.3 -22.25 -116.15q-19.95 -62.2 -84.95 -71.45q-1.9 0.05 -0.9 0.75<g id="1634" transform="matrix(1, 0, 0, 1, -30.35, 0)">
<path style="fill:#000000;fill-opacity:1" d="M525.4,98Q520.15 127.4 517.1 157.1Q511.05 216.15 501.7 274.65Q492.3 333.6 486.5 393.15Q484.3 415.6 481.45 437.45Q477.3 424.85 476.05 409Q471.45 350.4 469.95 291.25Q468.4 231.35 460.9 172.5Q455.65 130.95 454.45 88.75Q445.95 146.65 437.8 205.25Q433.7 234.55 430.6 264.05Q424.35 323.3 419.7 382.8Q417.85 406.35 415.2 429.2Q413.05 372.05 421.3 312.9Q429.55 254.1 434.2 194.6Q435.4 179.45 437.6 164.4Q444.6 115.95 452.95 68.85L453.45 68.75Q462.8 96.5 461.9 127.25Q461 157.2 465.45 186.6Q472 230.35 473.7 274.95Q475.9 334.35 479.85 393.5L480.45 399.45Q488 342.4 496.6 283.95Q505.3 224.85 510.7 165.25Q515.1 116.55 523.45 69.25Q528.3 81.8 525.4 98M434.85,96.45Q430.3 110.55 427.5 125.1Q416.35 183.1 406.35 241.2Q398.85 284.8 393.55 328.65Q386.95 383 380.7 437.2Q375.9 425.35 373.6 409.1Q365.55 351.2 357 292.85Q351.5 255.2 347.95 217.25Q343.05 275.05 338.85 332.85Q335.15 383.7 325.95 432.2Q321.85 404.75 322.55 374.7Q322.85 360.05 321.6 345.5Q316.45 287.5 313 229.2Q309.45 170.4 302.55 112.2Q300.35 93.85 299.2 75.5Q297.2 71.3 298.95 67.25Q306.6 124.8 312.15 182.9L322.8 298.9Q326.6 342.35 328.2 386.2Q332.35 328.45 337.75 270.9Q341.55 230.3 346.45 190.75Q355.6 217.1 357.75 247.6Q359.85 277.1 363.7 306.45Q370.4 356.7 379.7 406.2Q383.8 348.25 394.5 291.3Q405.45 233.25 414.5 174.95Q423.7 116 436.4 57.5Q437.25 53.5 440.45 52.5Q442.05 74.1 434.85 96.45M279.9,94.85Q283.9 101.7 285.9 109.25Q296.7 150.2 300.05 192.75Q302.7 226.05 302.25 259.5L302.15 266.95Q301.35 311.55 295.5 355.65Q293.75 368.9 290.3 381.8L286.45 394.45Q282.2 407 276.3 419L272.75 425.8Q266.25 437.45 255.8 445.9Q245.25 454.45 232.85 450.15Q208.1 441.55 198.95 415.4Q182.95 369.6 186.7 320.25Q188.95 290.35 181 262.55Q167.15 214.2 160.7 163.4L158.9 164.25Q158.85 208 149.25 250.5Q146.05 208.4 153.45 166.3L142.15 167.75L141.75 161.75L154.05 159.6Q154.25 117 163.25 75.75L159.2 157.85Q202.6 127.1 175.25 76.25Q171.45 74.95 167.45 74.7Q162.25 74.4 158.75 78.25L158.65 79.95L156 74.5L157.4 73.3Q165 68 174.5 70.75Q178.4 75.8 181.25 81.45Q206.35 131.9 162.5 162.5Q170.3 206.6 189.5 246.15Q189.45 211.35 193.35 177.05Q198.35 133.15 212.95 91.55Q218.1 77 229.1 66.6Q230.2 65.5 231.75 64.9Q233.3 64.25 234.85 64.45Q243 65.6 250.6 68.9Q259.9 72.95 267.45 79.65Q274.9 86.25 279.9 94.85M268.2,92.5Q267.5 94.9 267.75 97.5Q268 100.6 267.2 103.5Q266.95 96 263.6 88.45Q262.1 85.05 258.45 84.5Q253.15 81.8 247.7 79.5Q247.05 78.05 247.3 76.5Q247.75 73.85 246.95 72Q240.55 70.25 233.95 70.75Q215.5 81.4 211.3 104.45Q209.9 112.05 207.85 119.65Q192.55 176.95 191.9 236.75Q191.25 296.25 192.3 355.95Q192.65 376.25 196.45 395.65Q203 428.7 233 442.3Q238.8 444.95 244.2 442.1Q274.55 426.05 282.25 391.1Q294.9 333.5 297.75 274Q300.55 214.1 291.9 155.3Q287.05 122.4 270.15 94.95Q269.35 93.6 268.2 92.5M39,70Q104 79.25 123.95 141.45Q142.15 198.3 146.2 257.6Q150.35 317.65 130.75 373.65Q115.35 417.55 72.6 435.65Q52.15 444.3 31.75 446.7Q30.35 443.95 30.7 440.7Q30.95 438.85 31.9 437.15Q30.8 431.05 32.3 423.2Q37.9 393.8 38.25 363.45Q38.95 303.8 40.05 244.25Q41.15 184.3 38.45 125Q37.25 98 40.25 73.25Q41.65 77.25 42.4 80.75L42.5 81.5Q41.5 83.2 41.25 81L41.25 81.25Q42.75 140.45 43.05 199.75L43.5 319Q43.7 377.6 37.95 435Q59.85 429.1 81.75 421.95Q124.65 393.95 136.3 343.35Q149.55 285.95 140.8 227.65Q132.2 170.7 106.55 119.7Q94.25 95.3 68.45 86Q51.15 79.75 38.1 70.75Q37.1 70.05 39 70" />
</g>
</svg>
