<?xml version="1.0" encoding="utf-8"?>
<svg version="1.1" id="Layer_1"
xmlns="http://www.w3.org/2000/svg"
xmlns:xlink="http://www.w3.org/1999/xlink"


xml:space="preserve">
q-2.9 6.9 -2.95 16.5q-0.15 59.2 -4.05 118.35q-2 30.5 2.25 59.35q7.25 -11.45 3.5 -26.25q1.7 -24.2 2.85 -48.7q15.85 3.5 32.3 1.5q34.05 -4.1 35.35 -36.95q0.75 -18.1 -7.65 -33.75q-14.95 -28 -48.55 -31.5q-3.6 0.25 -7.15 2.3q26.85 -5.55 46.3 15.25q13 13.95 10.5 32.95q-3.1 23.85 -29.7 27.9q-15.55 2.55 -30.2 -3.45q-4.85 32.15 -4.4 65.7q0.85 59.2 -0.25 118.45q0.75 2.8 3.25 1.5q3.95 -33.3 4.25 -67.5q0.55 -59.9 -2 -118.45q-0.8 -0.15 -0.85 0.3q-1.55 10.55 5.9 18.75q0 1.25 -0.65 2.4q-2.1 3.7 -0.1 7.35q12.15 -15.25 -4.8 -28.8q-0.8 -0.25 -0.9 0.5q-1.25 -0.3 -1.35 0.75q-2.6 34.9 -3.25 70.5q-5.25 8.35 0.6 16.05q9.75 10.25 25.55 6.15q30.35 -7.8 41.55 -38.1q21.7 -58.6 -2.3 -115.55q-15.1 -35.9 -51.3 -43.65q-0.65 0.3 -1.25 0.7q20.65 -3.15 36.95 12.75q14.9 14.6 22.1 34.5q7.5 20.75 7 42.9q-0.5 22.15 -8.5 42.8q-8.25 21.5 -28.8 30.65q-16.4 7.2 -32.1 -1.4q8.4 -74 4.1 -148.55<g id="1791" transform="matrix(1, 0, 0, 1, -136, 0)">
<path style="fill:#000000;fill-opacity:1" d="M362.95,178.25Q396.55 181.75 411.5 209.75Q419.9 225.4 419.15 243.5Q417.85 276.35 383.8 280.45Q367.35 282.45 351.5 278.95L350.8 297Q349.65 321.5 347.95 345.7Q351.7 360.5 344.45 371.95Q340.2 343.1 342.2 312.6Q346.1 253.45 346.25 194.25Q346.3 184.65 349.2 177.75L350.2 178.5L350.95 179.25L351.15 183.4L355.8 180.55Q359.35 178.5 362.95 178.25M351.95,194.25L351.9 264.15Q366.55 270.15 382.1 267.6Q408.7 263.55 411.8 239.7Q414.3 220.7 401.3 206.75Q381.85 185.95 355 191.5L351.95 194.25M280.45,182.5Q283 241.05 282.45 300.95Q282.15 335.15 278.2 368.45Q275.7 369.75 274.95 366.95Q276.05 307.7 275.2 248.5Q274.75 214.95 279.6 182.8Q279.65 182.35 280.45 182.5M306.2,181.75Q323.15 195.3 311 210.55L310.45 210.75Q308.45 207.1 310.55 203.4Q311.2 202.25 311.2 201Q303.75 192.8 305.3 182.25Q305.4 181.5 306.2 181.75M148.75,181Q149.35 180.6 150 180.3L157 177Q193.2 184.75 208.3 220.65Q232.3 277.6 210.6 336.2Q199.4 366.5 169.05 374.3Q153.25 378.4 143.5 368.15L142.9 371.55L141.75 371.7L141.85 366.25Q136 358.55 141.25 350.2L142.15 350.85L143.9 252.5Q144.55 216.9 147.15 182Q147.25 180.95 148.5 181.25L148.55 181.65L148.75 181M145.75,353.15Q161.45 361.75 177.85 354.55Q198.4 345.4 206.65 323.9Q214.65 303.25 215.15 281.1Q215.65 258.95 208.15 238.2Q200.95 218.3 186.05 203.7Q169.75 187.8 149.1 190.95L149.85 204.6Q154.15 279.15 145.75 353.15" />
</g>
</svg>
