<?xml version="1.0" encoding="utf-8"?>
<svg version="1.1" id="Layer_1"
xmlns="http://www.w3.org/2000/svg"
xmlns:xlink="http://www.w3.org/1999/xlink"


xml:space="preserve">
q-1.9 27.7 6.35 55.6q8.25 27.75 12.6 56.6q4.6 30.25 12.55 57.5q0.9 -0.6 0.95 -1.3q0.7 -7.4 0.85 -14.85q9.7 -53.45 18.1 -107.4q9.1 -58.5 24.35 -115.75q6 -22.45 4.25 -43.9q-0.5 0 -0.55 0.15q-11.3 33.85 -18.15 69.7q-11.1 58 -20.8 116.3q-4.1 24.75 -9.4 49.1q-0.35 0.5 -0.4 1.05q-1.45 -4.85 -2.3 -9.9q-9.9 -58.25 -19.4 -116.5q-9.55 -58.65 -25.3 -115.3q-0.5 0.1 -0.5 0.25q-11.45 6.65 -15.15 20.45q-15.3 57.6 -20.5 117.4q-3.6 41.6 11.9 78.1q2.95 2.5 6.75 3.25q11.85 -4.75 16.5 -17.3q4.45 -12.05 -3.75 -17.9q-0.9 0.95 -1.25 2.3q-1.95 8.6 -7.75 14.9q-1.35 0.25 -2.65 0.8q-3.8 -4.1 -5.1 -9.85q-7.6 -33.35 -3.6 -68.15q13.4 1.4 27 -1.5q5.45 -9.4 -2.1 -15.15q-11.8 2.85 -24.55 3.7q2.5 -35.7 20.45 -65.1q3.35 -1.45 6.25 -0.5q1.6 1.15 1.75 3q0.65 9.15 5 12.75q1.2 -0.85 1.45 -2.2q2.7 -16.35 -8.2 -27.8q-5.4 -19.05 -17.55 -34.7q-4.65 -5.95 -10.05 -11.2q-21.45 -5.2 -33.7 16.75q-10.35 18.4 -12.65 39.7q-2.2 20.6 0.35 41.2q2.5 20.5 9.45 39.75q8.65 24.05 33.8 17.65q21.55 -5.35 34.05 -24.85q12 -18.8 13.9 -40.95q1.85 -21.9 -4.1 -43.05q-4.1 7.65 -11.4 12.45q-18.5 11.9 -38.7 2.9q-9.65 -4.25 -12.25 -15.55q-8.45 -36.4 -2.75 -73.25q2.15 -13.75 11.4 -24.05q9.1 -10.25 22.45 -13.4q42.15 26.75 30.2 81.3q-2.55 11.7 -8.2 22.1q-8.45 0.25 -14.45 5.15q-4.2 2.25 -4.3 8.25q-0.75 56.15 -2.9 112.85q-2.25 3.3 -2.05 7.5q0.15 3.1 2.05 5.25q-2.55 55.75 -11.25 107.95q-3.9 9.9 0.75 23.5q2.9 -12.4 4.3 -25.4q4.1 -38.2 5.55 -76.65q9.15 -4.5 17.85 -9.7q0 5.2 2.5 11.2q22.65 54.65 38.95 111.8q4.35 15.35 11.2 26.65q2.55 -2.35 2.25 -5.95q-1.7 -21.9 -9.25 -43.1q-18.85 -52.85 -40.2 -104q42.1 -27.4 34.4 -78.45q-5.5 -36.65 -39.7 -48.45q13.6 17.9 9.1 40.5q-4.45 22.2 -21.05 37.8q-13.15 12.4 -30.3 17.4q7.75 -55 5.1 -109.95q22.6 -4.95 37.15 14.25q-0.95 0.65 -1.85 1.45q-0.65 2.4 -0.65 5q-2.25 7.5 -2.7 16.65q-2.85 59.3 -7.95 118.5q-4.6 52.7 -7.1 104.8q-2.15 3.8 -2.15 8.25q0.05 4.55 3.15 7.5q8.35 -0.15 16.2 1.7q11.35 2.65 21.1 -2.35q34.35 -17.45 44.8 -56.95q4.95 -18.5 6.5 -37.3q5 -59.75 -15 -116.45q-14.85 -42.1 -55.6 -54.9q-5.9 -0.2 -10.5 2.85q21.6 -0.35 37.2 16.45q15.55 16.75 22.95 38.55q6.2 18.25 10.15 37.05q4.25 20.05 3.95 40.55q-0.4 23.7 -7.05 46.45q-5.2 17.85 -15.15 33.45q-12.3 19.25 -35.3 23.55q-16.1 3.05 -32 -0.1q11.2 -115.9 14.35 -233.1<g id="1649" transform="matrix(1, 0, 0, 1, -51.35, 0)">
<path style="fill:#000000;fill-opacity:1" d="M333.2,117.25Q348.95 173.9 358.5 232.55Q368 290.8 377.9 349.05Q378.75 354.1 380.2 358.95L380.8 354.75Q380.85 354.2 381.2 353.7L381.55 355.75Q386.85 331.4 390.95 306.65Q400.65 248.35 411.75 190.35Q418.6 154.5 429.9 120.65Q429.95 120.5 430.45 120.5Q432.2 141.95 426.2 164.4Q410.95 221.65 401.85 280.15Q393.45 334.1 383.75 387.55Q383.6 395 382.9 402.4Q382.85 403.1 381.95 403.7Q374 376.45 369.4 346.2L351.65 229.7Q347.3 200.85 339.05 173.1Q330.8 145.2 332.7 117.5Q332.7 117.35 333.2 117.25M455.95,152.15L457.45 152.5Q468.35 163.95 465.65 180.3Q465.4 181.65 464.2 182.5Q459.85 178.9 459.2 169.75Q459.05 167.9 457.45 166.75Q454.55 165.8 451.2 167.25Q433.25 196.65 430.75 232.35L429.4 249.7Q442.15 248.85 453.95 246Q461.5 251.75 456.05 261.15L455.45 261.75Q441.85 264.65 428.45 263.25L428.2 262.6L426.75 275.95Q422.75 310.75 430.35 344.1Q431.65 349.85 435.45 353.95L438.05 354Q439.35 353.45 440.7 353.2Q446.5 346.9 448.45 338.3Q448.8 336.95 449.7 336Q457.9 341.85 453.45 353.9Q448.8 366.45 436.95 371.2Q433.15 370.45 430.2 367.95Q414.7 331.45 418.3 289.85Q423.5 230.05 438.8 172.45Q442.5 158.65 453.95 152L455.95 152.15M345.15,267.7Q343.25 289.85 331.25 308.65Q318.75 328.15 297.2 333.5Q272.05 339.9 263.4 315.85Q256.45 296.6 253.95 276.1Q251.4 255.5 253.6 234.9Q255.9 213.6 266.25 195.2Q278.5 173.25 299.95 178.45L303.95 177.5L313.45 178.75Q318.85 184 323.5 189.95Q335.65 205.6 341.05 224.65Q347 245.8 345.15 267.7M334.4,276.55Q346.35 222 304.2 195.25L300 188.6L294.95 187.75Q281.6 190.9 272.5 201.15Q263.25 211.45 261.1 225.2Q255.4 262.05 263.85 298.45Q266.45 309.75 276.1 314Q296.3 323 314.8 311.1Q322.1 306.3 326.2 298.65Q331.85 288.25 334.4 276.55M200.95,117.25Q235.15 129.05 240.65 165.7Q248.35 216.75 206.25 244.15Q227.6 295.3 246.45 348.15Q254 369.35 255.7 391.25Q256 394.85 253.45 397.2Q246.6 385.9 242.25 370.55Q225.95 313.4 203.3 258.75Q200.8 252.75 200.8 247.55Q192.1 252.75 182.95 257.25L182.55 257.25L181.3 284.9Q179.85 323.35 175.75 361.55Q174.35 374.55 171.45 386.95L168.2 387.7Q163.55 374.1 167.45 364.2Q176.15 312 178.7 256.25Q176.8 254.1 176.65 251Q176.45 246.8 178.7 243.5L179.25 243.35Q181.4 186.65 182.15 130.5Q182.25 124.5 186.45 122.25L186.5 122.5Q192.5 117.6 200.95 117.35L200.95 117.25M188.5,132.2Q191.15 187.15 183.4 242.15Q200.55 237.15 213.7 224.75Q230.3 209.15 234.75 186.95Q239.25 164.35 225.65 146.45Q211.1 127.25 188.5 132.2M75.5,115.95Q80.1 112.9 86 113.1L86 113Q126.75 125.8 141.6 167.9Q161.6 224.6 156.6 284.35Q155.05 303.15 150.1 321.65Q139.65 361.15 105.3 378.6Q95.55 383.6 84.2 380.95Q76.35 379.1 68 379.25L54.5 379.2Q51.4 376.25 51.35 371.7Q51.35 367.25 53.5 363.45L54.85 363.2Q57.35 311.1 61.95 258.4Q67.05 199.2 69.9 139.9Q70.35 130.75 72.6 123.25Q72.6 120.65 73.25 118.25L73.5 117.5Q74.4 116.7 75.35 116.05L75.5 115.75L75.5 115.95M77.25,127.25L76.6 127.6Q73.45 244.8 62.25 360.7L71 350.45L64 361.7Q79.9 364.85 96 361.8Q119 357.5 131.3 338.25Q141.25 322.65 146.45 304.8Q153.1 282.05 153.5 258.35Q153.8 237.85 149.55 217.8Q145.6 199 139.4 180.75Q132 158.95 116.45 142.2Q100.85 125.4 79.25 125.75L77.25 127.25" />
</g>
</svg>
