<?xml version="1.0" encoding="utf-8"?>
<svg version="1.1" id="Layer_1"
xmlns="http://www.w3.org/2000/svg"
xmlns:xlink="http://www.w3.org/1999/xlink"


xml:space="preserve">
q-3.15 0.55 -6.25 1.4q-0.55 2.8 0.55 5.1q23.75 -0.45 36.2 20.05q11.1 18.3 -0.1 36.75q-11.5 18.95 -34.9 22.2q4.2 -46 0.35 -91.9q-8.35 65.75 -12.1 131.75q-1.6 28.45 4.2 55.85q0.4 1.85 1.15 3.6q30.7 13.45 53.1 -8.45q13.5 -13.1 16.3 -32.05q3.2 -21.95 -4.5 -42.5q-1.75 -4.6 -4.5 -8.85q-4.85 -7.35 -11.35 -12.8q10.6 -15.85 9.2 -35.1q-1.2 -16.95 -11.2 -30.65q-8.65 -11.95 -22.4 -17.05q-5.15 -1.8 -10.5 -0.55q11.35 7.1 16.55 19.5q10.65 25.35 -5.3 47.6q-16.2 22.6 -46.7 16.2q20.2 -1.25 36.05 -13.75q-16.25 12.85 -24.25 32.9q-22.7 57 -6.8 115.95q3.75 13.95 14.05 23.5q27.8 25.75 57.85 0.8q9.8 -8.15 15.55 -19.25q28.3 -54.75 8.7 -113.85q-3.8 -11.4 -8.7 -22.05q-11.35 -24.75 -37.15 -26.75q-10.55 1.85 -19.25 8.75q30.2 27.5 33.5 71.2q1.5 19.45 -4.85 37.85q-5.45 15.75 -16.1 28.45q-10.75 12.85 -27.15 16.8q-22.15 5.1 -35.2 -14.95q-22.45 -34.55 -13.85 -77.2q4.9 -24.15 17.25 -45.3q6.55 -11.1 17.9 -17.5q12 -6.65 25.6 -7.85q-0.6 2.2 -0.55 4.5q-4.15 29.15 -4.3 60.5q-0.2 29.75 -1.5 59.9q-0.85 19.25 -0.3 37.65q-1.6 2.8 -1.8 6q-0.2 3.1 1.6 5q1 -0.5 1.1 -1.15q13.25 8.95 33.35 0.45q10.65 -4.5 16.3 -14.25q30.7 -53.15 13.35 -113.45q-12.55 -43.6 -55.35 -54.3q9.35 2.2 17.2 7.6q37.85 25.75 38.75 72.7q0.6 30.45 -15.15 55.35q-15.85 25.15 -45.9 17.35q3.3 -25.55 3.6 -52.2q0.6 -51.25 -0.55 -101.4q0.8 8.55 6.7 14.75q2.55 2.6 5.5 2.8q-4.9 -23.55 -16.7 -44.4q-15.65 16.6 -14.1 39.75q0.05 1.15 0.45 2.35<g id="1646" transform="matrix(1, 0, 0, 1, -134.25, 0)">
<path style="fill:#000000;fill-opacity:1" d="M364.2,181.65Q377.95 186.75 386.6 198.7Q396.6 212.4 397.8 229.35Q399.2 248.6 388.6 264.45Q395.1 269.9 399.95 277.25Q402.7 281.5 404.45 286.1Q412.15 306.65 408.95 328.6Q406.15 347.55 392.65 360.65Q370.25 382.55 339.55 369.1L338.45 371.45Q337.7 369.7 337.3 367.85Q331.5 340.45 333.1 312Q336.85 246 345.2 180.25Q349.05 226.15 344.85 272.15L349.65 271.25Q373.05 268 384.55 249.05Q395.75 230.6 384.65 212.3Q372.2 191.8 348.45 192.25L347.35 190.55Q346.25 188.25 346.8 185.45L347.45 182.5Q350.55 181.65 353.7 181.1Q359.05 179.85 364.2 181.65M380.25,273.15Q364.4 285.65 344.2 286.9L341.9 353.95L346.95 354.7Q377.45 361.1 393.65 338.5Q409.6 316.25 398.95 290.9Q393.75 278.5 382.4 271.4L380.25 273.15M272.95,178.75Q298.75 180.75 310.1 205.5Q315 216.15 318.8 227.55Q338.4 286.65 310.1 341.4Q304.35 352.5 294.55 360.65Q264.5 385.6 236.7 359.85Q226.4 350.3 222.65 336.35Q206.75 277.4 229.45 220.4Q237.45 200.35 253.7 187.5Q262.4 180.6 272.95 178.75M288.45,192L283.95 190.75Q270.35 191.95 258.35 198.6Q247 205 240.45 216.1Q228.1 237.25 223.2 261.4Q214.6 304.05 237.05 338.6Q250.1 358.65 272.25 353.55Q288.65 349.6 299.4 336.75Q310.05 324.05 315.5 308.3Q321.85 289.9 320.35 270.45Q317.05 226.75 286.85 199.25L288.45 197L288.45 192M148.95,183.6L149 183.5Q191.8 194.2 204.35 237.8Q221.7 298.1 191 351.25Q185.35 361 174.7 365.5Q154.6 374 141.35 365.05L140.6 369.3Q140.5 369.95 139.5 370.45L139 363.25L136.05 360.45Q134.25 358.55 134.45 355.45Q134.65 352.25 136.25 349.45L138.35 348.8Q137.8 330.4 138.65 311.15Q139.95 281 140.15 251.25Q140.3 219.9 144.45 190.75Q144.4 188.45 145 186.25L145.15 185.8L146.25 179L146.4 184.5L148.95 183.6M146.7,196.05Q147.85 246.2 147.25 297.45Q146.95 324.1 143.65 349.65Q173.7 357.45 189.55 332.3Q205.3 307.4 204.7 276.95Q203.8 230 165.95 204.25Q158.1 198.85 148.75 196.65L146.7 196.05M271.85,248.75L269.35 243.75L267.75 248.1L271.85 248.75M263.45,258.95L256.55 274.1Q256.15 272.9 256.1 271.75Q254.55 248.6 270.2 232Q282 252.85 286.9 276.4Q283.95 276.2 281.4 273.6Q275.5 267.4 274.7 258.85L263.45 258.95" />
</g>
</svg>
