<?xml version="1.0" encoding="utf-8"?>
<svg version="1.1" id="Layer_1"
xmlns="http://www.w3.org/2000/svg"
xmlns:xlink="http://www.w3.org/1999/xlink"


xml:space="preserve">
q-20.05 11.95 -18.8 36.75q0.3 6.35 1.9 12.3q8.55 32.35 18.6 64.35q8.8 27.9 -4.2 51.55q-12.4 8.05 -26.25 11.25q-1.7 -3.45 -4.7 -1.95q-1.3 2.4 -1.2 5.25q0.25 9.45 6.95 15.75q41.7 -9.45 40.7 -50.75q-0.65 -27.5 -9.95 -52.85q-7.9 -21.55 -13.4 -43.45q-6.8 -27.1 17.65 -36.15q1.25 -1.5 1.3 -3.5q0.05 -1.95 -0.8 -3.75q-1.6 58.25 -1.85 117.45q-0.1 22.65 -2.75 44.85q-2 16.55 3 29.9q4.1 -5.75 4.15 -14q0.35 -40.3 1.2 -80.65q15.65 1.85 30.9 -1.5q0 47.15 -1.5 93.9q0.6 2.65 3 2q1.75 -2.25 2 -5.25q3.05 -34.5 3.5 -69.75q0.75 -60.1 0 -118.45q-7.5 34.75 -7.15 73q-15.3 1.25 -30.6 4.5q0.85 -30.5 -4.05 -59.25q-0.6 -0.2 -0.65 0.25q-3.85 0.95 -7.75 2.95q-7.7 3.9 -13.75 10.05q-13.4 21.35 -18.25 46.6q-6.8 35.35 -7.8 71.85q-0.7 27.6 17.5 47.7q25.55 28.15 55.65 3.55q28.5 -23.3 32.5 -60.1q1.4 -12.9 1 -25.7q-1.85 -58.05 -43.6 -95.15q25.5 19.15 36.65 53.35q5.7 17.5 6.1 35.85q0.3 14.8 -4.75 28.7q-7.55 20.85 -24.2 35.85q-14.2 12.65 -31.95 7.75q-28.95 -7.75 -31.95 -37.8q-4.25 -42.35 7.2 -82.7q2.7 -9.65 7.45 -18.4q6.8 -12.45 17.25 -21.1q9.35 -4.55 18 -1.75q-4.85 47.05 -4.25 95.8q0.4 30.15 -3.1 59.8q-2 16.7 3.7 29.45q2.4 -4.5 2.7 -9.35q30.95 6.3 43.15 -20.4q25.3 -55.5 8.45 -115.1q-9.85 -31.3 -42.25 -31.5q-1 0.1 -1.8 0.6q-2.85 1.75 -2.35 5.4q4.55 -79.3 2.35 -158.75q22.3 0.45 34.65 20.55q11.5 18.6 15.45 40.35q3.8 20.65 0.65 41.6q-3.2 21.45 -14.3 40.2q-4.1 6.85 -9.1 13.05q-1.6 8.25 2.2 15.9q3.05 7.05 6.65 13.65q3.35 6.1 7.65 6.3q-7 -29.95 -20.85 -50.4<g id="1658" transform="matrix(1, 0, 0, 1, -131.8, 0)">
<path style="fill:#000000;fill-opacity:1" d="M356.45,179.5L359.05 181.35L360.95 182.75Q361.8 184.55 361.75 186.5Q361.7 188.5 360.45 190Q336 199.05 342.8 226.15Q348.3 248.05 356.2 269.6Q365.5 294.95 366.15 322.45Q367.15 363.75 325.45 373.2Q318.75 366.9 318.5 357.45Q318.4 354.6 319.7 352.2Q322.7 350.7 324.4 354.15L325.2 355.45Q339.05 352.25 351.45 344.2Q364.45 320.55 355.65 292.65Q345.6 260.65 337.05 228.3Q335.45 222.35 335.15 216Q333.9 191.2 353.95 179.25L356.45 179.5M377.2,181.5Q382.1 210.25 381.25 240.75L380.55 268.9Q395.85 265.65 411.15 264.4L411.05 253.25Q410.7 215 418.2 180.25Q418.95 238.6 418.2 298.7Q417.75 333.95 414.7 368.45Q414.45 371.45 412.7 373.7Q410.3 374.35 409.7 371.7Q411.2 324.95 411.2 277.8Q395.95 281.15 380.3 279.3Q379.45 319.65 379.1 359.95Q379.05 368.2 374.95 373.95Q369.95 360.6 371.95 344.05Q374.6 321.85 374.7 299.2Q374.95 240 376.55 181.75Q376.6 181.3 377.2 181.5M271.75,178.2L273.45 178.25Q315.2 215.35 317.05 273.4Q317.45 286.2 316.05 299.1Q312.05 335.9 283.55 359.2Q253.45 383.8 227.9 355.65Q209.7 335.55 210.4 307.95Q211.4 271.45 218.2 236.1Q223.05 210.85 236.45 189.5Q242.5 183.35 250.2 179.45Q254.1 177.45 257.95 176.5L271.75 178.2M249.9,192.3Q239.45 200.95 232.65 213.4Q227.9 222.15 225.2 231.8Q213.75 272.15 218 314.5Q221 344.55 249.95 352.3Q267.7 357.2 281.9 344.55Q298.55 329.55 306.1 308.7Q311.15 294.8 310.85 280Q310.45 261.65 304.75 244.15Q293.6 209.95 268.1 190.8L267.9 190.55Q259.25 187.75 249.9 192.3M140.75,188.25L140.1 185.95L139.85 184.5Q139.35 180.85 142.2 179.1Q143 178.6 144 178.5Q176.4 178.7 186.25 210L191.8 228.6Q208.65 288.2 183.35 343.7Q171.15 370.4 140.2 364.1Q139.9 368.95 137.5 373.45Q131.8 360.7 133.8 344Q137.3 314.35 136.9 284.2Q136.3 235.45 141.15 188.4L140.75 188.25M143.5,348.2L170 344.7Q175 338.5 179.1 331.65Q190.2 312.9 193.4 291.45Q196.55 270.5 192.75 249.85Q188.8 228.1 177.3 209.5Q164.95 189.4 142.65 188.95Q144.85 268.4 140.3 347.7L141.9 346.8L143.5 348.2M259.95,227.5Q273.8 247.95 280.8 277.9Q276.5 277.7 273.15 271.6Q269.55 265 266.5 257.95L255.15 260.1L246.7 284.7Q242.9 277.05 244.5 268.8L247.95 250.75L250.65 249.95L260.3 233.7L259.95 227.5M262.9,247.8L261.65 242.75L259.6 248.1L262.9 247.8" />
</g>
</svg>
