<?xml version="1.0" encoding="utf-8"?>
<svg version="1.1" id="Layer_1"
xmlns="http://www.w3.org/2000/svg"
xmlns:xlink="http://www.w3.org/1999/xlink"


xml:space="preserve">
q-15.05 29.05 -32.25 57.15q-1.95 0.6 -1.65 2.7q-2.25 3.25 -3.8 6.5q4.15 -52.7 3.05 -104.7q-5.25 39.35 -7.85 81.05q-2.8 44.35 -7.7 88.25q-1.85 16.55 3.3 29.9q6.15 -8.95 5.25 -20.75q-0.05 -27.55 2.4 -55.85q16.55 -27.2 33.6 -54.35q11.05 33.05 18.95 67.7q6.7 29.45 17.3 55.5q4.35 -15.8 -1.6 -32.65q-5.75 -16.1 -9.2 -32.9q-6.9 -33.4 -22.4 -62.55q5.8 -9.2 12.35 -17.55q11.15 -14.15 3.75 -25.95q-9.6 -9.75 -23.7 -8.8q-26.7 6.85 -37.8 33.8q-12.15 29.55 -17.4 60.95q-8.45 50.55 16.9 93.45q12.55 21.2 35.55 12.6q16.1 -6 27.1 -19.05q28.4 -33.65 30.05 -77.75q2 -52.75 -25.9 -96q-1 0 -1.85 0.35q-0.9 0.4 -1.75 0.95q32.7 53.2 13.85 113.5q-14 44.7 -60.15 50.4q-18.1 -10.55 -23.2 -31.4q-13.15 -54.25 6.35 -108q10.05 -27.65 36.35 -36.8q8.5 -0.45 16.75 1.25q1.35 1.75 3.1 2.6q2.65 1.25 5.15 2.65q0.35 3.4 1.8 5.8q-7.3 86.65 -6.25 174.35q-2.6 4.9 -1.9 10.6q0.4 3 3.2 4.3q-3.55 7.15 1.5 7.75q16.35 4.7 31.25 -3.55q6.35 -3.55 11.6 -8.8q2.15 -2.6 4 -5.4q12.5 -43.35 9 -89.45q-2.65 -34.9 -25.9 -61.05q-14.1 -8.8 -30.1 -5.7q-1.9 0.25 -3.7 0.85q-12.55 17.3 -19.85 37.65q-3.4 9.45 1.35 18.3q1.7 -31 -10.3 -59.8q20.9 24.75 21.6 60.1q0.6 29 -5.85 57.25q-3 13.05 -11.7 22.8q-4.45 5 -10.75 7.55q-13.8 5.8 -28.8 4.6q5.35 -79.95 2.7 -160.1q16.55 -1.45 30.75 6.95q0.9 0.6 2.05 0.85<g id="1661" transform="matrix(1, 0, 0, 1, -135.9, 0)">
<path style="fill:#000000;fill-opacity:1" d="M408,177.8L408.95 177.25Q416.35 189.05 405.2 203.2Q398.65 211.55 392.85 220.75L379.25 242.35Q394.75 271.5 401.65 304.9Q405.1 321.7 410.85 337.8Q416.8 354.65 412.45 370.45Q401.85 344.4 395.15 314.95Q387.25 280.3 376.2 247.25Q359.15 274.4 342.6 301.6Q340.15 329.9 340.2 357.45Q341.1 369.25 334.95 378.2Q329.8 364.85 331.65 348.3Q336.55 304.4 339.35 260.05Q341.95 218.35 347.2 179Q348.3 231 344.15 283.7Q345.7 280.45 347.95 277.2L363.9 253.2L373.3 238.35Q373 236.25 374.95 235.65Q392.15 207.55 407.2 178.5L408 177.8M302.2,180.5L302.85 180.3Q303.7 179.75 304.6 179.35Q305.45 179 306.45 179Q334.35 222.25 332.35 275Q330.7 319.1 302.3 352.75Q291.3 365.8 275.2 371.8Q252.2 380.4 239.65 359.2Q214.3 316.3 222.75 265.75Q228 234.35 240.15 204.8Q251.25 177.85 277.95 171Q292.05 170.05 301.65 179.8L302.2 180.5M301.95,190Q299.45 188.6 296.8 187.35Q295.05 186.5 293.7 184.75Q285.45 183.05 276.95 183.5Q250.65 192.65 240.6 220.3Q221.1 274.05 234.25 328.3Q239.35 349.15 257.45 359.7Q303.6 354 317.6 309.3Q336.45 249 303.75 195.8Q302.3 193.4 301.95 190M150.4,182.8Q166.4 179.7 180.5 188.5Q203.75 214.65 206.4 249.55Q209.9 295.65 197.4 339L196.1 342.05L194.35 344.9Q192.5 347.7 190.35 350.3L185.75 355.4Q180.5 360.65 174.15 364.2Q159.25 372.45 142.9 367.75L141.3 374.35Q136.25 373.75 139.8 366.6Q137 365.3 136.6 362.3Q135.9 356.6 138.5 351.7L139.9 351.9Q138.85 264.2 146.15 177.55L146.7 183.65Q148.5 183.05 150.4 182.8M279.05,265.7Q291.05 294.5 289.35 325.5L278.95 290.6L265.7 295.7L257.7 315.2Q252.95 306.35 256.35 296.9Q263.65 276.55 276.2 259.25L279.05 265.7M276.3,281.9L275.15 278.25L272.65 282.35L276.3 281.9M177.7,199.15Q163.5 190.75 146.95 192.2Q149.6 272.35 144.25 352.3Q159.25 353.5 173.05 347.7Q179.35 345.15 183.8 340.15Q192.5 330.4 195.5 317.35Q201.95 289.1 201.35 260.1Q200.65 224.75 179.75 200Q178.6 199.75 177.7 199.15" />
</g>
</svg>
