<?xml version="1.0" encoding="utf-8"?>
<svg version="1.1" id="Layer_1"
xmlns="http://www.w3.org/2000/svg"
xmlns:xlink="http://www.w3.org/1999/xlink"


xml:space="preserve">
q18.55 -12.9 40.9 -11.85q12.2 1.1 23.35 6.7q-2.35 -17.65 -22.3 -21.15q-22.85 -4.1 -41.4 10.25q-30.35 23.5 -36.15 63.1q-8.9 61 -1 122.3q2.45 19.15 11.05 36.45q6.95 13.9 19.8 21.05q6.8 3.75 14.7 2.5q6.75 -0.85 13.15 -2.95q4.6 -1.55 8.8 -4q11.7 -7 19.1 -18.55q-3.35 19.2 3 33.75q9.95 -43.5 7.75 -87.95q-0.45 -9.35 -9.75 -12.55q-1.4 3.65 -0.85 7.5q0.3 2.15 1.85 3.75q-8.2 21.95 -29.6 31.25q-14.3 6.15 -27.45 -3.9q-20.8 -16 -25.2 -42.6q-6.7 -40.85 -1.65 -82.05q3.1 -25.15 10.25 -49.3q6.15 -20.5 23.65 -32.75q-4.9 -58.5 -56.15 -85.85q-6.05 -1.5 -12.6 -2.15q-1.8 1.3 -5 1.25q-33.05 18.1 -47.55 52.35q-23.55 55.65 -20.3 116.5q2.45 46.4 33.65 80.65q29.75 32.65 61.2 2.7q45.75 -43.6 50.75 -106.7q2.3 -29.45 -0.1 -58.65q11.6 6.5 18.85 17.3q30.55 45.5 23.7 102q-6.65 54.3 -46.7 91.6q-31.8 29.65 -60.05 -4.5q-24.25 -29.3 -26.05 -67.7q-1.35 -29.2 2.35 -58q8.2 -63.85 64.4 -94.05q5.95 -1.65 10.25 1.5q0.1 1.5 0.55 3q0.35 1.2 1.2 2.25q-4.6 -1.45 -9.35 -2.4q-3.75 1.2 -7.2 2.85q-0.5 1.75 -0.55 3.55q-0.65 1.95 -0.75 4.35q-3.55 59 -10.25 116.75q1.15 3.3 0.35 6.6q-3.3 13.3 4.15 20.15q1.45 -2.95 2.5 -6.05q18.25 0.55 33.7 -11.1q27.3 -20.75 43 -50.9q28.15 -53.95 16.4 -115.5q-11 -57.55 -60.9 -89.2q53.1 25.4 63.45 83.9q9.7 54.75 -18.35 100.45q-23.65 38.45 -64.25 50.35q-1.2 -0.1 -1.8 -0.8q-0.3 -35.5 2.85 -70.6q2.1 -24.2 0.25 -47.6q4.8 -0.05 9.15 2<g id="1678" transform="matrix(1, 0, 0, 1, -61.55, 0)">
<path style="fill:#000000;fill-opacity:1" d="M378.3,177.4Q371.15 201.55 368.05 226.7Q363 267.9 369.7 308.75Q374.1 335.35 394.9 351.35Q408.05 361.4 422.35 355.25Q443.75 345.95 451.95 324L455.3 328.15L457.7 297.75L433.45 298Q431.9 296.4 431.6 294.25Q431.05 290.4 432.45 286.75L452.95 281.75Q462.25 284.95 462.7 294.3Q464.9 338.75 454.95 382.25Q448.6 367.7 451.95 348.5Q444.55 360.05 432.85 367.05Q428.65 369.5 424.05 371.05Q417.65 373.15 410.9 374Q403 375.25 396.2 371.5Q383.35 364.35 376.4 350.45Q367.8 333.15 365.35 314Q357.45 252.7 366.35 191.7Q372.15 152.1 402.5 128.6Q421.05 114.25 443.9 118.35Q463.85 121.85 466.2 139.5Q455.05 133.9 442.85 132.8Q420.5 131.75 401.95 144.65Q384.45 156.9 378.3 177.4M340.7,260.75Q335.7 323.85 289.95 367.45Q258.5 397.4 228.75 364.75Q197.55 330.5 195.1 284.1Q191.85 223.25 215.4 167.6Q229.9 133.35 262.95 115.25L263.95 115Q267.15 115.05 268.95 113.75Q275.5 114.4 281.55 115.9L284.45 116.25Q335.7 143.6 340.6 202.1Q343 231.3 340.7 260.75M279.25,131Q278.8 129.5 278.7 128Q274.4 124.85 268.45 126.5Q212.25 156.7 204.05 220.55Q200.35 249.35 201.7 278.55Q203.5 316.95 227.75 346.25Q256 380.4 287.8 350.75Q327.85 313.45 334.5 259.15Q341.35 202.65 310.8 157.15Q303.55 146.35 291.95 139.85L280.45 133.25Q279.6 132.2 279.25 131M104.45,107.25Q154.35 138.9 165.35 196.45Q177.1 258 148.95 311.95Q133.25 342.1 105.95 362.85Q90.5 374.5 72.25 373.95L71.5 372.4Q70.45 375.5 69 378.45Q61.55 371.6 64.85 358.3Q65.65 355 64.5 351.7Q71.2 293.95 74.75 234.95L81.7 117.15Q81.8 114.75 82.45 112.8Q82.5 111 83 109.25L83.5 107.75Q86.95 106.1 90.7 104.9L92 104.25Q96.75 105.2 101.35 106.65L104.45 107.25M87.75,118.75Q89.6 142.15 87.5 166.35L77.05 284.6Q73.9 319.7 74.2 355.2L74.2 356.9L75 356.45L75.8 354.9L76.15 353.65Q76.75 354.35 77.95 354.45L77.75 355.45Q118.35 343.55 142 305.1Q170.05 259.4 160.35 204.65Q150 146.15 96.9 120.75Q92.55 118.7 87.75 118.75" />
</g>
</svg>
