<?xml version="1.0" encoding="utf-8"?>
<svg version="1.1" id="Layer_1"
xmlns="http://www.w3.org/2000/svg"
xmlns:xlink="http://www.w3.org/1999/xlink"


xml:space="preserve">
q-19.75 45.35 -24.55 99.25q-2.3 10.85 -5.25 21.6q-3.9 14.35 -7.05 28.75q-0.75 3.35 -1.05 6.8q-11.35 -87 -28.55 -172.9q-16.9 89.1 -26.4 179.7q-3.9 21.85 -8.3 43.45q25.25 -84.65 34.05 -173.55q3.6 -29.25 6.35 -58.65q1.55 -16.6 5.35 -32.85q7.4 90.4 30.45 169.15q21 -85 37.55 -170.9q0.2 1.85 0.75 3.65q1.65 4.95 4.6 9.35q-9.2 -134.85 -27.15 -269.45q18.7 52 15.45 108.25q-3.6 62.1 -48.9 105q-31.7 30 -74.25 17.7q-4.15 -1.2 -7.25 -4q-21.15 -19.1 -25.5 -49.15q-3.9 -26.6 -6.15 -53.4q-2.15 -25.6 -0.5 -51q3.9 -60.1 30.65 -113.5q4.2 -8.4 12.1 -13.25q19.85 -12.15 45.15 -8.1q2.15 0.7 4.5 1q3.85 0.55 7.4 2.2q0.35 0.15 0.35 0.55q21.1 17.7 35.8 41.8q4.35 7.15 7.15 14.9q-3.7 -30.35 -17.55 -57.1q-15.1 -29.05 -42.5 -42.6q-23.95 -10.05 -50.75 -7.05q-2.9 0.8 -5.75 2.55q-28.7 17.6 -37.45 51.3q-14.9 57.5 -17.45 117.4q-2.55 59.45 15 116.4q4.95 16.1 18.4 25.35q30.7 21.2 64 3.05q58.35 -31.85 71.1 -98.15q10.5 -54.7 3.7 -110.7q-0.45 1.15 -0.55 2.65q-2.95 59.55 -5.05 119.3q-2.1 59.7 -4.75 119.25q-0.85 14.15 6 21.6q18.2 1.25 31.65 -13.05q8.85 -9.45 17.95 -18.25q31.4 -30.3 44.05 -72.05q10 -33.3 8.45 -69.35q-2.65 -60.35 -30.1 -113.9q-17.65 -34.35 -54.95 -41.75q-3.05 -0.65 -5.8 -0.05q-2.95 0.65 -4.45 3.05q-0.45 1.45 -0.25 3q21 45.1 25.95 95.1q6.6 66.35 -35.55 115.25q-6.3 7.3 -12.15 15.05q-19.1 25.3 -48.2 33.2q2.45 -57.05 1 -112.8q42.45 4.1 61.35 44.75<g id="1666" transform="matrix(1, 0, 0, 1, -50.15, 0)">
<path style="fill:#000000;fill-opacity:1" d="M496,172.95Q513.95 307.55 523.15 442.4L522.8 442.7Q519.85 438.3 518.2 433.35L517.1 429.85Q516.55 428.05 516.35 426.2L485.25 129.1Q468.7 215 447.7 300L445.25 292.3L445.45 303.55Q422.4 224.8 415 134.4L414.25 138.15Q410.45 154.4 408.9 171Q406.15 200.4 402.55 229.65L400.7 244.25L399 258.9Q390.2 347.8 364.95 432.45L361.8 398.6L364.45 408.45L373.8 365.4Q378.2 343.8 382.1 321.95L384.6 307.35L386.55 292.7Q396.05 202.1 412.95 113L414.4 118L416.2 112.75Q433.4 198.65 444.75 285.65Q445.05 282.2 445.8 278.85Q448.95 264.45 452.85 250.1Q455.8 239.35 458.1 228.5L459.6 221.15L460.65 213.75Q465.45 159.85 485.2 114.5L485.55 116.1L491.25 144.5L493.8 158.7L496 172.95M332,168.3Q317.3 144.2 296.2 126.5L295.5 126.6L294.95 126.75L293.2 126.85L292.7 126.9L291.45 127L291.95 126.25L292.2 125.5Q292.2 125.1 291.85 124.95Q288.3 123.3 284.45 122.75Q282.1 122.45 279.95 121.75Q254.65 117.7 234.8 129.85Q226.9 134.7 222.7 143.1Q195.95 196.5 192.05 256.6Q190.4 282 192.55 307.6Q194.8 334.4 198.7 361Q203.05 391.05 224.2 410.15Q227.3 412.95 231.45 414.15Q274 426.45 305.7 396.45Q351 353.55 354.6 291.45Q357.85 235.2 339.15 183.2Q336.35 175.45 332 168.3M354.8,327.4Q342.05 393.7 283.7 425.55Q250.4 443.7 219.7 422.5Q206.25 413.25 201.3 397.15Q183.75 340.2 186.3 280.75Q188.85 220.85 203.75 163.35Q212.5 129.65 241.2 112.05Q244.05 110.3 246.95 109.5Q273.75 106.5 297.7 116.55L298.45 117Q325.85 130.55 340.95 159.6Q354.8 186.35 358.5 216.7Q365.3 272.7 354.8 327.4M64.25,108.5Q64.05 106.95 64.5 105.5L64.75 104.75Q66.25 102.35 69.2 101.7Q71.95 101.1 75 101.75Q112.3 109.15 129.95 143.5Q157.4 197.05 160.05 257.4Q161.6 293.45 151.6 326.75Q138.95 368.5 107.55 398.8Q98.45 407.6 89.6 417.05Q76.15 431.35 57.95 430.1L57 431.45Q50.15 424 51 409.85L54.05 350.75Q56.7 291.2 58.8 231.5Q60.9 171.75 63.85 112.2Q63.95 110.7 64.4 109.55L64.25 108.5M67.4,111.75Q68.85 167.5 66.4 224.55L61.6 343.05L58.8 415.1Q87.9 407.2 107 381.9Q112.85 374.15 119.15 366.85Q161.3 317.95 154.7 251.6Q149.75 201.6 128.75 156.5Q109.85 115.85 67.4 111.75" />
</g>
</svg>
