<?xml version="1.0" encoding="utf-8"?>
<svg version="1.1" id="Layer_1"
xmlns="http://www.w3.org/2000/svg"
xmlns:xlink="http://www.w3.org/1999/xlink"


xml:space="preserve">
q47.8 -3.6 84.35 53.85q11.65 18.3 22.35 43.45q5.55 13 11.3 27.55q10.3 20.9 17.75 61.55q7 38.1 7 66.7q0 22 -8.35 80.05q-7.4 51.1 -11.65 69.2q-6.05 25.8 -25.55 53.3q-16.8 23.75 -41.4 45.9q-21.55 19.4 -43.15 32.5q-13.1 7.95 -22.1 11.2q-2.3 -1.25 -3.45 -4.05q-2.5 -3.2 -2.5 -7.5q0 -3.5 0.2 -4.3q0.3 -1.35 1.75 -2.35q11.5 -105.4 11.5 -178.7q0 -29.65 -1 -43.9q-2.8 -41.15 -2.8 -44.8q-1 -4.9 -1.35 -9.4q-2.2 -0.8 -2.8 -3.75q0 -1.65 0.85 -3.6q1 -2.35 2.65 -3.5q-2.6 -6.15 -5.85 -10.6q-10.55 -14.75 -28.7 -14.75q-30.15 0 -43.75 32q-6.85 16.2 -7.75 34.35q0 16.85 8.7 36.8q6.65 15.3 20.7 36.8q8 12.25 24.65 36.75q13.95 21.4 20.55 36.65q21.15 48.8 24.75 79.1q1.45 12.25 1.25 30.15q0 50.2 -4.25 86.6q-4 33.65 -23.5 60.05q-8.75 11.75 -18.4 18.4q-9.8 6.8 -18.45 6.8q-25.2 0 -42.75 -16.95q-7.6 -7.35 -11.85 -16.4q-4.15 -8.9 -4.15 -17.4q0 -2.9 0.15 -3.75q0.55 -2.85 2.6 -3.75q4.35 3.55 5.5 10.3q1.4 8.05 4 11.7q3.6 5.05 12.4 11.75q11.45 8.75 19.35 8.75q33 0 51.25 -25.05q14.05 -19.35 18.6 -52.2q3 -21.8 3.7 -40.6q0.3 -8.45 0.3 -37.75q0 -65.2 -15.55 -112.85q-11.15 -34.05 -34.25 -67.95q-10.25 -14.6 -15.95 -25q-15.55 -28.7 -15.55 -61.6q-0.05 -8.15 1.15 -13.45q2.9 -12.9 19.15 -30.6q14.95 -16.3 30 -18.8q12.5 -2.1 23.95 5.45q9.35 6.15 15.9 16.9q5.75 9.45 5.75 15.45q0 3.75 -2 6.75q-3.9 -5.1 -8 -9.45q-8.1 -8.55 -13.75 -8.55q-18.2 0 -24.2 12q-2.55 5.05 -2.55 13.5q0 6.75 7.4 18.65q3 4.85 16.25 23.25q11.15 15.6 16.2 25.15q7.4 13.95 7.4 24.2q0 2.75 -1.9 8q-2.3 6.4 -6.05 11.85q-10.6 15.5 -26.8 15.5q-23.1 0 -31.25 -20.55q-2.6 -6.45 -3.55 -14.8q-1.15 -0.35 0.2 -1.05q0.9 1.5 2.25 8.3q1.6 8.05 3.1 12.25q5.6 15.95 19.15 15.95q18.2 0 30.05 -11q4.25 -3.95 6.8 -8.55q2.15 -3.85 2.15 -6.05q0 -7.05 -7.25 -19.15q-3.4 -5.65 -16 -23.5q-11.1 -15.7 -16 -24.95q-7.25 -13.7 -7.25 -23.55q0 -16.25 8.25 -25q7.1 -7.55 18.15 -7.8q10.25 -0.25 18.1 5.6q8.25 6.2 8.25 15.35q7.9 18.35 10.8 30.3q3.7 15.7 5.4 24.6q2.65 13.6 3.6 24.75q1.4 16.5 5.9 49.5q4.5 33 5.85 49.5q1 6.75 1 20.65q0 10.45 -4.4 65.95q-4.8 60.45 -7.85 77.65q-2 11.35 -5.5 35.05q-3.55 21.25 -8.25 36.2q-7.7 24.15 -32.95 48.2q-10.5 10 -20.45 16.15q-9.95 6.15 -15.6 6.15q-29.15 0 -41.05 -30.15q-4.25 -10.7 -6.45 -25.7q-0.9 -6.35 -2.25 -22.15q-1.05 -11.9 -2.4 -39.7q-1.3 -26.5 -2.6 -39.8q-4.15 -57.7 -4.65 -71.7q-0.35 -9.45 -0.35 -56.9q-0.15 -15.75 0.2 -25.8q0.95 -25.7 7.25 -64.8q2.55 -15.8 6.75 -31q4.55 -16.6 10.5 -30.35q3.2 -7.5 9.75 -16q7.45 -9.75 14.5 -14q2.9 -1.85 11.5 -4.5q11.35 -3.5 21.75 -4.25q6.5 -0.2 16.55 6q3.45 1.95 5.3 1.95q3.05 0 11.45 19.45q-0.25 1 -0.5 1.2q-0.25 -0.25 -0.05 -1q0 -2.75 -5.9 -6.65q-6.05 -4 -14.4 -6.45q-21.95 -6.4 -35.2 4.1q-8.25 5.25 -15.35 12.75q-7.05 7.5 -10.9 15q-6.1 11.9 -9.85 28.6q-2.2 9.7 -5.9 29.75q-5.45 25.2 -6.65 58.4q-0.35 9.75 -0.35 58.6q0 32.25 1.2 58.65q0.6 14.05 3.8 65.85q1.15 5.6 2.3 33.05q1.3 31.55 3.35 49.35q7.55 64.35 34.1 64.35q27.05 0 51.1 -26.7q9.2 -10.2 15.95 -22.25q6 -10.7 7.7 -18.3q8.6 -38.8 12.75 -67.5q2.95 -20.35 7.2 -76.65q3.8 -50.55 3.8 -58.35q0 -10.5 -1 -15.75q-1.55 -11.8 -5.15 -46q-3.05 -29.3 -5.7 -46.65q-8.2 -54.25 -26.15 -92.45q-0.25 0 -0.5 0.8q0.85 -1.55 2.35 -2.8q20 -2.05 30 15.85q3.4 6.1 5.2 13.8q1.3 5.55 1.3 9.1q0 7.55 -4.75 12.05q-8.05 7.6 -29.15 7.7q-1.3 20.95 -4.35 38.75q-1.45 -0.5 -2.7 -4.05q-1.05 -3.1 -1.05 -4.95q0 -8.35 1.8 -20.2q-0.25 -0.85 -0.25 -2.65q0 -3.35 2.25 -4.5q-1.5 0.4 -3 1.05q0 -1.4 0.9 -2.95q0 11.95 -0.45 23.1q13.6 -0.15 22.95 -4.7q7.5 -3.6 7.5 -6.3q0 -1.85 -1.95 -7.3q-2.5 -7.05 -6.2 -12.4q-9.35 -13.5 -22.4 -10.95q0.55 7.35 0.55 18.55q5.2 -2.1 23.65 -0.4q0.9 0.6 0.9 3.45q1.5 4.55 1.8 11.75q-1 -6 -1 -17.6q0 -9.75 0.7 -28.9q0.55 -15.9 0.9 -19.55q-2.45 -0.65 -3.05 -1.95q-0.2 -0.5 -0.2 -2.3q-0.25 -0.45 -0.2 -0.95q0.15 -1 1.8 -1.65q0 8.75 1.5 15.1q2.4 10.5 8.5 13.5q12.65 -3.55 21.55 -10.15q8.55 -6.4 8.95 -12.1q0 8.2 -4.7 16.1q-8.35 14 -27.8 14q-17.75 0 -22.45 -12.75q-1.75 -4.75 -2.05 -12.15q0 -22.1 3.25 -33.9q5.3 -19.2 21.25 -31.1q2.35 2 2.35 5.6q-0.45 0.45 -1.05 0.6q-2.45 -2.8 -5.1 -4.7q-3.05 -2.2 -4.4 -3.55q-11.95 7.8 -17.35 26.6q-3.9 13.45 -3.9 29.8q0 3.05 -4.75 36.8q7.65 -7.35 21.9 -19.15q11.7 -9.6 14.35 -12.4q0 8.4 -30.35 32.4q3.4 3.4 6.6 9.85q3.5 7.2 6.7 11.05q1.8 2.4 16.65 17.75q13.95 15.55 13.95 21.75q0 1.85 -0.4 3q-0.4 1.1 -1.35 2.25q-10.15 -11.35 -30.55 -38.2q-18.7 -24.55 -23.85 -34.6q-4.75 3.4 -8 5.75q-4.35 30.5 -6.85 45.9q-0.75 -1.15 -1 -2.05q-0.25 -0.95 -0.25 -2.8q0 -6.75 3.65 -24.6q0 -1.8 4.75 -6.8q2.15 -15 4.4 -23.45q1.25 2.8 1.25 7.15q0 -5.2 4.65 -6q4.1 -0.7 10.85 2.1q6.3 2.6 12.35 7.1q6.2 4.6 9.15 9.05q3.05 6.9 3.75 12.8q0 11.35 -5.5 23.65q-6.2 13.8 -16.8 17.15q4 10.25 10.45 28.6q13.1 37 13.1 44.45q-0.2 0 -0.7 0.4q-0.6 0.45 -1.3 0.6q-3.3 54.3 -5.45 64.9q-0.85 -1.4 -1.35 -3.8q-0.4 -2.1 -0.4 -4.2q0 -5.4 2.15 -31.6q0 -2.9 0.65 -15.1q-0.9 -1.35 -0.9 -2.7q0 -2.45 3.4 -3.85q-2.25 -1.2 -2.25 -3.5q0.55 5 0.9 12.15q0 8.65 -1.4 34.55q0.3 -0.6 1.1 -0.8q12.7 -2.8 16.25 -9.25q1.2 -2.85 1.2 -9.55q0 -25.65 -19 -29.55q-5.55 -10.05 -8.95 -15.3q-5.9 -9.15 -13.65 -15.55q-18.4 -15.2 -57.45 -23.5q2.1 20.65 3.8 46.75q1 15.75 1 48.75q0 68.35 -6.55 149.6q-5.35 66.4 -13.2 117.2q26.15 -11.2 48.7 -28.55q21.15 -16.25 35.8 -35q28.85 -37.1 39.5 -69.75q2.7 -8.65 10.55 -62.9q8.45 -58.15 8.45 -76.6q0 -30.3 -6.05 -61.65q-6.55 -33.8 -18.7 -60.6q-1.7 -3.65 -12.75 -30.65q-7.55 -18.55 -14.5 -29.95q0 1.8 -0.45 2.55q-0.25 -0.5 -39.35 -0.75q0.95 10.75 0.95 16.25q0 -0.25 1.15 -0.3q0.45 0.95 0.45 2.55q-0.65 17.25 -3.3 29.35q-1.3 -1.2 -2 -2.9q-0.5 -1.15 -0.5 -1.85q0 -7.8 1.65 -33.45q-0.25 -0.5 -0.25 -3q-0.2 -1.1 -0.05 -1.65q0.3 -0.95 2 -1.6q0.75 -15.2 0.75 -24.15q0 -1.25 -1.1 -3.75q-0.9 -2 -1.1 -3.2q-3.75 -2.35 -3.75 -4.25q0 -2.5 1.2 -3.15q2.4 -1.3 11.05 -0.1q0.8 1.2 1 1.9q-0.1 1.1 -1.7 1.1q-28.1 0 -37 -2q0.5 7.15 0.5 17.65q7.45 -2.1 30.4 -2.7q0.45 0.95 0.45 2.55q-2.5 37.05 -2.6 41.35q-2.5 -3.35 -2.5 -6.5q0 -4.8 2.7 -33.35q0.3 -0.85 1.45 -1.5q-1.6 -0.65 -1.95 -1.5q0 -2.2 6.7 -3.35q8.8 0.3 14.8 1.8q6.7 1.7 6.7 4.2<g id="1674" transform="matrix(1, 0, 0, 1, 14, 6.1)">
<path style="fill:#000000;fill-opacity:1" d="M13.25,-2.5Q61.05 -6.1 97.6 51.35Q109.25 69.65 119.95 94.8Q125.5 107.8 131.25 122.35Q141.55 143.25 149 183.9Q156 222 156 250.6Q156 272.6 147.65 330.65Q140.25 381.75 136 399.85Q129.95 425.65 110.45 453.15Q93.65 476.9 69.05 499.05Q47.5 518.45 25.9 531.55Q12.8 539.5 3.8 542.75L2.5 549.85Q0.2 548.6 -0.95 545.8L-1.5 544.3L-5 544.85L-11.5 544.6Q-14 541.4 -14 537.1Q-14 533.6 -13.8 532.8Q-13.5 531.45 -12.05 530.45L-0.45 524.75L1.85 503.25L9.75 434.95Q21.25 329.55 21.25 256.25Q21.25 226.6 20.25 212.35L20.25 168.85L20.5 168.1L20.5 126.1L16.3 66.4Q13.5 25.25 13.5 21.6Q12.5 16.7 12.15 12.2L5.5 11Q3.3 10.2 2.7 7.25L2.5 3.85Q2.5 2.2 3.35 0.25Q4.35 -2.1 6 -3.25L13.25 -2.5M544.1,43.75L541.55 37.85Q538.95 31.7 535.7 27.25Q525.15 12.5 507 12.5Q476.85 12.5 463.25 44.5Q456.4 60.7 455.5 78.85Q455.5 95.7 464.2 115.65Q470.85 130.95 484.9 152.45Q492.9 164.7 509.55 189.2Q523.5 210.6 530.1 225.85Q551.25 274.65 554.85 304.95Q556.3 317.2 556.1 335.1L555.6 371.75Q555.6 421.95 551.35 458.35Q547.35 492 527.85 518.4Q519.1 530.15 509.45 536.8Q499.65 543.6 491 543.6Q465.8 543.6 448.25 526.65Q440.65 519.3 436.4 510.25Q432.25 501.35 432.25 492.85Q432.25 489.95 432.4 489.1Q432.95 486.25 435 485.35Q439.35 488.9 440.5 495.65Q441.9 503.7 444.5 507.35Q448.1 512.4 456.9 519.1Q468.35 527.85 476.25 527.85Q509.25 527.85 527.5 502.8Q541.55 483.45 546.1 450.6Q549.1 428.8 549.8 410Q550.1 401.55 550.1 372.25Q550.1 307.05 534.55 259.4Q523.4 225.35 500.3 191.45L482 165.6Q471.75 151 466.05 140.6Q450.5 111.9 450.5 79L450.2 62.05Q450.15 53.9 451.35 48.6Q454.25 35.7 470.5 18Q485.45 1.7 500.5 -0.8Q513 -2.9 524.45 4.65Q533.8 10.8 540.35 21.55Q546.1 31 546.1 37Q546.1 40.75 544.1 43.75M437,27.25L436 28.5Q432.1 23.4 428 19.05Q419.9 10.5 414.25 10.5Q396.05 10.5 390.05 22.5Q387.5 27.55 387.5 36Q387.5 42.75 394.9 54.65Q397.9 59.5 411.15 77.9Q422.3 93.5 427.35 103.05Q434.75 117 434.75 127.25Q434.75 130 432.85 135.25Q430.55 141.65 426.8 147.1Q416.2 162.6 400 162.6Q376.9 162.6 368.75 142.05Q366.15 135.6 365.2 127.25L364.5 119.1Q363.35 118.75 364.7 118.05L367.5 116.35Q368.4 117.85 369.75 124.65Q371.35 132.7 372.85 136.9Q378.45 152.85 392 152.85Q410.2 152.85 422.05 141.85Q426.3 137.9 428.85 133.3Q431 129.45 431 127.25Q431 120.2 423.75 108.1Q420.35 102.45 407.75 84.6Q396.65 68.9 391.75 59.65Q384.5 45.95 384.5 36.1Q384.5 19.85 392.75 11.1Q399.85 3.55 410.9 3.3Q421.15 3.05 429 8.9Q437.25 15.1 437.25 24.25L437 27.25M337.45,28.7Q345.35 47.05 348.25 59Q351.95 74.7 353.65 83.6Q356.3 97.2 357.25 108.35Q358.65 124.85 363.15 157.85Q367.65 190.85 369 207.35L369 248.6Q370 255.35 370 269.25Q370 279.7 365.6 335.2Q360.8 395.65 357.75 412.85Q355.75 424.2 352.25 447.9Q348.7 469.15 344 484.1Q336.3 508.25 311.05 532.3Q300.55 542.3 290.6 548.45Q280.65 554.6 275 554.6Q245.85 554.6 233.95 524.45Q229.7 513.75 227.5 498.75Q226.6 492.4 225.25 476.6Q224.2 464.7 222.85 436.9Q221.55 410.4 220.25 397.1L220.25 348.35Q216.1 290.65 215.6 276.65Q215.25 267.2 215.25 219.75L215.05 187.7Q214.9 171.95 215.25 161.9Q216.2 136.2 222.5 97.1Q225.05 81.3 229.25 66.1Q233.8 49.5 239.75 35.75Q242.95 28.25 249.5 19.75Q256.95 10 264 5.75Q266.9 3.9 275.5 1.25Q286.85 -2.25 297.25 -3Q303.75 -3.2 313.8 3L320.7 7.3Q324.15 9.25 326 9.25Q329.05 9.25 337.45 28.7M325.5,27.05Q325.25 28.05 325 28.25Q324.75 28 324.95 27.25L325.25 24.75Q325.25 22 319.35 18.1Q313.3 14.1 304.95 11.65Q283 5.25 269.75 15.75Q261.5 21 254.4 28.5Q247.35 36 243.5 43.5Q237.4 55.4 233.65 72.1Q231.45 81.8 227.75 101.85Q222.3 127.05 221.1 160.25Q220.75 170 220.75 218.85Q220.75 251.1 221.95 277.5Q222.55 291.55 225.75 343.35L225.75 392.1Q226.9 397.7 228.05 425.15Q229.35 456.7 231.4 474.5Q238.95 538.85 265.5 538.85Q292.55 538.85 316.6 512.15Q325.8 501.95 332.55 489.9Q338.55 479.2 340.25 471.6Q348.85 432.8 353 404.1Q355.95 383.75 360.2 327.45Q364 276.9 364 269.1Q364 258.6 363 253.35L363 211.35Q361.45 199.55 357.85 165.35Q354.8 136.05 352.15 118.7Q343.95 64.45 326 26.25Q325.75 26.25 325.5 27.05M431.65,157.65Q432.5 156.1 434 154.85Q454 152.8 464 170.7Q467.4 176.8 469.2 184.5Q470.5 190.05 470.5 193.6Q470.5 201.15 465.75 205.65Q457.7 213.25 436.6 213.35Q435.3 234.3 432.25 252.1Q430.8 251.6 429.55 248.05Q428.5 244.95 428.5 243.1Q428.5 234.75 430.3 222.9L432 213.25L428.5 213.1L427.5 211.25Q427.25 210.4 427.25 208.6Q427.25 205.25 429.5 204.1L433.6 204.25L434.5 199.35L434.5 163.3Q433 163.7 431.5 164.35L430.95 163.15L430.75 160.6Q430.75 159.2 431.65 157.65M437.5,181.25Q437.5 193.2 437.05 204.35Q450.65 204.2 460 199.65Q467.5 196.05 467.5 193.35Q467.5 191.5 465.55 186.05Q463.05 179 459.35 173.65Q450 160.15 436.95 162.7Q437.5 170.05 437.5 181.25M454.35,245Q459.55 242.9 478 244.6L506.25 244.35L513.45 244.05Q514.35 244.65 514.35 247.5L514.1 249.95L513.1 251.6L509.85 252.05L506 252.85L491.7 252.65L487.6 252.6Q489.1 257.15 489.4 264.35L489.5 277.5L488.95 293.45L488.25 317.6L487.65 318L486.5 318.6Q485.5 312.6 485.5 301Q485.5 291.25 486.2 272.1Q486.75 256.2 487.1 252.55L477 252.1L456 251.85Q453.55 251.2 452.95 249.9Q452.75 249.4 452.75 247.6Q452.5 247.15 452.55 246.65Q452.7 245.65 454.35 245M385.5,384.5Q385.5 393.25 387 399.6Q389.4 410.1 395.5 413.1L408 413.1Q420.65 409.55 429.55 402.95Q438.1 396.55 438.5 390.85L439.25 390.6L439.45 390.9L439.5 392.5Q439.5 400.7 434.8 408.6Q426.45 422.6 407 422.6Q389.25 422.6 384.55 409.85Q382.8 405.1 382.5 397.7L382.5 385.1Q382.5 363 385.75 351.2Q391.05 332 407 320.1L415.25 320.35L423.9 326.15Q426.25 328.15 426.25 331.75L426.2 333.8L426 335.1L425.55 335.5Q425.1 335.95 424.5 336.1Q422.05 333.3 419.4 331.4Q416.35 329.2 415 327.85L406.75 328.1Q394.8 335.9 389.4 354.7Q385.5 368.15 385.5 384.5M458.5,329.5Q458.5 332.55 453.75 366.3Q461.4 358.95 475.65 347.15L498.75 328.25Q510.45 318.65 513.1 315.85L514.1 317.75L514.35 320.35Q514.35 328.75 484 352.75Q487.4 356.15 490.6 362.6L496.3 374.8Q499.8 382 503 385.85Q504.8 388.25 519.65 403.6Q533.6 419.15 533.6 425.35Q533.6 427.2 533.2 428.35Q532.8 429.45 531.85 430.6Q521.7 419.25 501.3 392.4Q482.6 367.85 477.45 357.8L460.35 370.45Q455.6 373.85 452.35 376.2Q448 406.7 445.5 422.1L444.8 422.5L443.5 423.1Q442.75 421.95 442.5 421.05Q442.25 420.1 442.25 418.25Q442.25 411.5 445.9 393.65L448.6 378.9L445.5 381.1L444.95 379.9L444.75 377.35Q444.75 375.55 449.5 370.55L449.5 369.85L452.85 345.8Q455 330.8 457.25 322.35Q458.5 325.15 458.5 329.5M162.5,92.85Q162.5 87.65 167.15 86.85Q171.25 86.15 178 88.95Q184.3 91.55 190.35 96.05Q196.55 100.65 199.5 105.1Q202.55 112 203.25 117.9L203.5 129.5Q203.5 140.85 198 153.15Q191.8 166.95 181.2 170.3Q185.2 180.55 191.65 198.9Q204.75 235.9 204.75 243.35L204.5 247.1Q204.3 247.1 203.8 247.5Q203.2 247.95 202.5 248.1L185.75 196.8L177.4 171.15L174 171.35L167.5 171.2L166.45 188.95Q163.15 243.25 161 253.85Q160.15 252.45 159.65 250.05Q159.25 247.95 159.25 245.85Q159.25 240.45 161.4 214.25L163.5 185.85Q163.5 182.95 164.15 170.75L162.15 168.3Q161.25 166.95 161.25 165.6Q161.25 163.15 164.65 161.75L165 155.45L166.5 127L165.5 109.4L164.75 96.35Q162.5 95.15 162.5 92.85M168.15,97.4Q168.7 102.4 169.05 109.55L169.5 126.25Q169.5 134.9 168.1 160.8L174.3 159.55L175.15 159.4Q175.45 158.8 176.25 158.6L176.5 159.1Q189.2 156.3 192.75 149.85L199.3 138.05Q200.5 135.2 200.5 128.5Q200.5 102.85 181.5 98.95L168.45 97.45L168.15 97.4M98,67.75Q92.45 57.7 89.05 52.45Q83.15 43.3 75.4 36.9Q57 21.7 17.95 13.4Q20.05 34.05 21.75 60.15L25.5 122.35L25.5 168.85L25.75 169.6L25.75 207.85Q26.75 223.6 26.75 256.6Q26.75 324.95 20.2 406.2Q14.85 472.6 7 523.4Q33.15 512.2 55.7 494.85Q76.85 478.6 91.5 459.85Q120.35 422.75 131 390.1Q133.7 381.45 141.55 327.2Q150 269.05 150 250.6Q150 220.3 143.95 188.95Q137.4 155.15 125.25 128.35Q123.55 124.7 112.5 97.7Q104.95 79.15 98 67.75M513.1,435L513.35 437.6Q513.35 439.4 512.9 440.15L511.35 441.6Q511.1 441.1 472 440.85L467.9 440.6L468.55 447.5Q469.5 458.25 469.5 463.75L469.5 470.7L488 469.35Q488 469.1 489.15 469.05L497.25 469.1L498.05 470.3Q498.5 471.25 498.5 472.85L498.25 475.1L497.25 476.6L479.65 477.9L469.5 478.55L469.3 494.75Q468.65 512 466 524.1Q464.7 522.9 464 521.2Q463.5 520.05 463.5 519.35Q463.5 511.55 465.15 485.9L465.65 478.1L464 477.85Q463.75 477.35 463.75 474.85Q463.55 473.75 463.7 473.2Q464 472.25 465.7 471.6L466 471.5Q466.75 456.3 466.75 447.35Q466.75 446.1 465.65 443.6Q464.75 441.6 464.55 440.4L463.5 440.35Q459.75 438 459.75 436.1Q459.75 433.6 460.95 432.95Q463.35 431.65 472 432.85L512.1 433.1Q512.9 434.3 513.1 435M419.7,442Q419.6 443.1 418 443.1Q389.9 443.1 381 441.1Q381.5 448.25 381.5 458.75L380.85 476.8Q388.3 474.7 411.25 474.1L412.05 475.3Q412.5 476.25 412.5 477.85L412.25 480.1L411.25 481.6L380.4 484.95L379.1 505.5Q376.6 542.55 376.5 546.85L375.95 547.3L375 548.1Q372.5 544.75 372.5 541.6Q372.5 536.8 375.2 508.25L377.45 485.3L376.95 484.15L376.75 481.6L376.8 479.35Q377.1 478.5 378.25 477.85L378.5 475.6L378.5 440.35Q376.9 439.7 376.55 438.85L376.5 437Q376.5 434.8 383.2 433.65L398 433Q406.8 433.3 412.8 434.8Q419.5 436.5 419.5 439L419.7 442" />
</g>
</svg>
