<?xml version="1.0" encoding="utf-8"?>
<svg version="1.1" id="Layer_1"
xmlns="http://www.w3.org/2000/svg"
xmlns:xlink="http://www.w3.org/1999/xlink"


xml:space="preserve">
q-2 0.2 -3.05 2.2q-27.6 52.4 -52.8 106.25q-6.25 13.3 -14.2 25.65q2.25 -39.75 3.35 -79.85q0.85 -30.4 -1.3 -59.25q-0.95 -0.15 -1.1 0.8q-6.6 45.15 -7.15 91.45q-0.65 59.6 -6.05 118.5q-1.35 15 -4.2 29.65q-3.3 17.25 4.25 30.05q0.9 -0.6 0.95 -1.3q5.5 -45.45 8.75 -91.4q5 -6.75 8.65 -14.85q8.15 -18.2 16.8 -36.15q1.05 6 2.65 12q2.1 8 3.55 16q10.3 57.35 22.35 114.45q1.3 1 1.55 2.6q-0.7 8.3 6.25 9q3.55 -6.7 2.05 -14.3q-4.35 -21.75 -8.15 -43.65q-9.5 -54.35 -25.4 -106.55q15.1 -31.05 31.65 -61.45q11.1 -20.4 10.6 -41.25q-6.7 2.05 -13 5.9q-27.1 16.75 -33.95 48.95q-6.9 32.55 -8.8 66.05q-3.4 59.45 5.25 118q2.45 16.75 15.05 27.9q21.95 19.6 49.8 3.15q30.75 -18.2 23.9 -49.7q-7.95 31.9 -44.5 40.8q-17.7 4.3 -25.65 -10.8q-13.4 -25.55 -14.5 -55.35q-1.1 -29.65 -0.8 -59.3q0.45 -44.2 14.3 -85.5q11.45 -34 47.65 -33q3.45 3.15 4.95 6.75q2 -4.9 0.35 -10.2q-3.5 -11.2 -13.85 -18.05q22 -31.75 58.75 -42.35q3.6 0.1 6.55 1.95q2.8 1.75 5.45 4.05q0 3.8 3.5 5.55q25.8 12.9 37.05 38.6q9.35 21.4 12 44.4q7.1 61.25 -22.1 114.75q-21.15 38.65 -64.65 30.9q-20.5 -3.7 -32.15 -21q-11.75 -17.55 -15.8 -38.65q-11.25 -58.65 2.25 -117.35q2.6 -11.4 9.15 -20.85q-21.45 55.5 -16.9 116.3q1.9 25.75 5.7 51.35q6.15 41.35 45.6 54.25q8.95 2.9 18.3 4.4q24.9 4 40.9 -14.65q41.75 -48.6 41.25 -113.45q-0.25 -30.1 -3.8 -59.45q-6.35 -52.35 -52.85 -76.3q-1.7 0.65 -3.2 1.7q-5.2 -7.65 -14.85 -7.45q-26.55 8.9 -47.95 28.5q-6.9 6.35 -10.25 15.05q-0.85 2.15 -0.95 4.5q-0.1 1.75 0.5 3.2q-3.7 46.45 -5.45 93.55q-2.25 59.45 -2.8 119.25q-0.15 15 -2.65 29.7q-2.95 17.35 4.35 29.5q1.6 -5.75 2.7 -11.65q0.85 3 3.05 5.4q20.45 6.85 37.95 -5.65q10.85 -7.7 19.65 -17.8q40.4 -46.15 35.3 -108.5q-4.95 -60.15 -38.55 -110.75q-4.7 -7.05 -11.1 -12.25q-16.4 -13.35 -37 -19.75q-2.6 -0.4 -4.5 1.3q42.5 43.15 52.1 103.85q9.95 63.2 -31.9 109.85q-21.2 23.65 -50.1 16.2q-1.45 -0.45 -1.75 -1.8q-0.4 0.4 -0.55 0.85q-1.45 1 -2.45 2.3q0.75 -6.85 0.85 -14q0.95 -59.5 2.45 -119.25q1.5 -56.25 3.25 -112.5q8.8 4.4 18.25 7.35q5.7 1.75 9.8 5.95<g id="1679" transform="matrix(1, 0, 0, 1, -52.2, 0)">
<path style="fill:#000000;fill-opacity:1" d="M516.6,157.5Q500.05 187.9 484.95 218.95Q500.85 271.15 510.35 325.5Q514.15 347.4 518.5 369.15Q520 376.75 516.45 383.45Q509.5 382.75 510.2 374.45L509.7 375.15Q509.45 373.55 508.15 372.55L509.15 370.45L509.45 369.7Q497.4 312.6 487.1 255.25Q485.65 247.25 483.55 239.25Q481.95 233.25 480.9 227.25Q472.25 245.2 464.1 263.4Q460.45 271.5 455.45 278.25L455.4 278.2L454.65 289Q451.4 334.95 445.9 380.4Q445.85 381.1 444.95 381.7Q437.4 368.9 440.7 351.65Q443.55 337 444.9 322Q450.3 263.1 450.95 203.5Q451.5 157.2 458.1 112.05Q458.25 111.1 459.2 111.25Q461.35 140.1 460.5 170.5Q459.4 210.6 457.15 250.35Q465.1 238 471.35 224.7Q496.55 170.85 524.15 118.45Q525.2 116.45 527.2 116.25Q527.7 137.1 516.6 157.5M403.45,108.85L406.45 109.25Q416.8 116.1 420.3 127.3Q421.95 132.6 419.95 137.5Q418.45 133.9 415 130.75L405.95 123.25Q369.75 122.25 358.3 156.25Q344.45 197.55 344 241.75Q343.7 271.4 344.8 301.05Q345.9 330.85 359.3 356.4Q367.25 371.5 384.95 367.2Q421.5 358.3 429.45 326.4L429.45 327L429.35 327.35L430.9 327.75L432.2 328.25Q439.05 359.75 408.3 377.95Q380.45 394.4 358.5 374.8Q345.9 363.65 343.45 346.9Q334.8 288.35 338.2 228.9Q340.1 195.4 347 162.85Q353.85 130.65 380.95 113.9Q387.25 110.05 393.95 108L403.45 108.85M186.05,186.95Q172.55 245.65 183.8 304.3Q187.85 325.4 199.6 342.95Q211.25 360.25 231.75 363.95Q275.25 371.7 296.4 333.05Q325.6 279.55 318.5 218.3Q315.85 195.3 306.5 173.9Q295.25 148.2 269.45 135.3Q265.95 133.55 265.95 129.75Q263.3 127.45 260.5 125.7Q257.55 123.85 253.95 123.75Q217.2 134.35 195.2 166.1Q188.65 175.55 186.05 186.95M202,140.75Q223.4 121.15 249.95 112.25Q259.6 112.05 264.8 119.7L265.45 120.5L266.75 119.95Q268.25 118.9 269.95 118.25Q316.45 142.2 322.8 194.55Q326.35 223.9 326.6 254Q327.1 318.85 285.35 367.45Q269.35 386.1 244.45 382.1Q235.1 380.6 226.15 377.7Q186.7 364.8 180.55 323.45Q176.75 297.85 174.85 272.1Q170.3 211.3 191.75 155.8Q195.1 147.1 202 140.75M71,96.2L71.5 96.25Q92.1 102.65 108.5 116Q114.9 121.2 119.6 128.25Q153.2 178.85 158.15 239Q163.25 301.35 122.85 347.5Q114.05 357.6 103.2 365.3Q85.7 377.8 65.25 370.95Q63.05 368.55 62.2 365.55Q61.1 371.45 59.5 377.2Q52.2 365.05 55.15 347.7Q57.65 333 57.8 318Q58.35 258.2 60.6 198.75Q62.35 151.65 66.05 105.2Q65.45 103.75 65.55 102Q65.65 99.65 66.5 97.5Q68.4 95.8 71 96.2M88.6,116.1Q79.15 113.15 70.35 108.75Q68.6 165 67.1 221.25Q65.6 281 64.65 340.5Q64.55 347.65 63.8 354.5Q64.8 353.2 66.25 352.2L66.45 350.8Q66.6 350.35 67 349.95L67.55 349.55Q67.85 350.9 69.3 351.35L68.5 351.95Q97.4 359.4 118.6 335.75Q160.45 289.1 150.5 225.9Q140.9 165.2 98.4 122.05Q94.3 117.85 88.6 116.1" />
</g>
</svg>
