<?xml version="1.0" encoding="utf-8"?>
<svg version="1.1" id="Layer_1"
xmlns="http://www.w3.org/2000/svg"
xmlns:xlink="http://www.w3.org/1999/xlink"


xml:space="preserve">
q2.45 -29.05 -27.1 -34.1q-4 1.85 -8.2 4.2q-2.85 1.6 -4.1 3.7q-4.15 42.05 -8.1 85.2q-1.3 14.5 -3.1 29q-1 8.3 0.1 15.5q-0.4 1.2 -0.5 2.45q-0.55 6 1.85 11.3q19 6.5 34.1 -5.5q19.35 -15.4 25.05 -40q7.1 -30.8 -17.7 -47.15q5.2 -9.05 6 -19.25q18.45 12.95 10.6 34.4q-7.05 19.2 -25.85 26.55q-9.8 3.9 -20.25 2.5q9.15 0.8 17.15 -3.65q2.7 -1.55 3.85 1.75q-4 9 -5 19.6q-5.55 58.6 -12.6 117.15q-6.5 59.55 -18.75 114.8q-6.65 19.4 -0.25 37.5q6.3 -34.35 10.5 -69.15q7.1 -58.65 16.2 -116.9q4.55 -29 8.7 -58.15q2.75 -19.15 3.75 -38.05q2.6 19.05 5.45 38.1q6.5 43.55 6.6 87.95q0 13.65 7.05 20.75q1.75 -1.9 1.55 -4.45q5.45 -11.8 7.25 -25.85q7.65 -58.3 18.1 -116.15q2.15 29.25 4.7 58.35q5.2 59 11.3 117.65q6.15 58.85 16.45 116.95q1.3 1.2 2.15 2.7q2.1 -0.5 2.25 -2.75q1.35 -22.65 -3.65 -45.2q-5.25 -23.95 -8.2 -48.4q-7.15 -58.7 -12.35 -117.8q-5.25 -59.15 -9.55 -117.05q-5.5 3.75 -6.85 11.2q-8.25 49.55 -15.4 99.45q-1.55 -17.85 -4.55 -35.45q-9.9 -58.1 -14.45 -116.3q2.5 38.45 3.65 77.25q2 60.75 -19.15 116.45q-8.8 23.05 -31.3 31q-20.75 7.3 -24.2 -12.35q-8.55 -49.7 -4.75 -100.4q3.4 -44.3 5 -89.05q2.2 -59.8 -1.6 -118.55q-3.9 39.05 -4.75 79.95q-1.2 59.8 -5.2 119.1q-4 58.95 3.65 117.05q0.75 5.75 3.75 10.5q14.55 23.6 39.6 7q20.55 -13.55 29.3 -36.8q15.6 -41.45 16.15 -86.1q0.8 -59.65 -1.35 -119.3q-1.05 -30 -0.65 -59.95q0.3 -17.5 -8.15 -29.25q-4.45 7.6 -3.25 17.25q22.1 -8.65 33.8 12.5q-6.75 25.3 -32.95 25.8q0.55 -19.25 -0.85 -38.3q-19.3 -0.05 -15 15.65q-6.95 148.35 -10.55 297.25q-0.25 10.7 0.65 21.9q0.5 6.6 3.6 12.15q34.8 10.15 66.9 -6.85q28.3 -14.95 40.7 -46.05q5.9 -14.8 9.8 -30.35q0.9 -18.35 0.85 -36.85q-0.15 -71.15 -29.3 -135.25q-7.05 -15.5 -18.25 -28.05q-7.7 -8.7 -16.5 -16.55q-17.7 -11.35 -38.45 -11.4q2.05 -25.05 -0.8 -49q37.05 -3.1 61.85 24.15q24.5 26.9 33 63.95q13.4 58.35 10.5 118.05q-2.2 46.35 -27.35 85q-2.55 3.85 -5.95 6.5q-35.1 27.2 -75.95 16.15q1.5 -57.75 0.8 -115.65q-0.65 -59.75 2.05 -119.3q0.65 -14.95 1.85 -29.85q-0.05 1.9 0.7 3.45q-2.45 50 -4.45 100.55q-1.15 29.95 -7.45 58.95q-3.1 14.2 4.7 21.8q8.05 -34.35 10.1 -70.45q4 0.05 7.8 -1.5q1.65 1.5 3.1 0.65q-0.1 -0.75 -0.5 -1q-2.1 -1.2 -2 -2.75q4.3 15.35 6.25 31.45q3.1 25.35 6.95 50.75q2.45 16.15 10.85 27.45q1.65 -3.95 2.6 -8.1q-3.2 -8.9 -5.35 -18.55q-6.2 -27.35 -9.15 -55.1q-1.75 -16.5 -7.3 -30.5q18.9 -15 19.8 -41q1.1 -31.35 -24.25 -45.8q-10.05 0.95 -18.25 8.25q-1.15 2.5 -1.25 5.2q5.2 34.9 -27.9 44.5q0.4 -31.15 -0.9 -61.85q24.9 -9.4 28.8 17.35<g id="1684" transform="matrix(1, 0, 0, 1, -62.2, 0)">
<path style="fill:#000000;fill-opacity:1" d="M508.05,147.6L505.65 151.35Q530.45 167.7 523.35 198.5Q517.65 223.1 498.3 238.5Q483.2 250.5 464.2 244Q461.8 238.7 462.35 232.7Q462.45 231.45 462.85 230.25Q461.75 223.05 462.75 214.75Q464.55 200.25 465.85 185.75Q469.8 142.6 473.95 100.55L474.45 100.5L474.65 102.15Q475.9 100.05 478.75 98.45Q482.95 96.1 486.95 94.25Q516.5 99.3 514.05 128.35Q513.25 138.55 508.05 147.6M496.45,163.25Q495.3 159.95 492.6 161.5Q484.6 165.95 475.45 165.15L472.2 195.25L476.95 179.8L469.45 227.45Q479.9 228.85 489.7 224.95Q508.5 217.6 515.55 198.4Q523.4 176.95 504.95 164L496.45 163.25M393.65,96.1L394.2 96.75Q398.75 154.95 408.65 213.05Q411.65 230.65 413.2 248.5L413.9 246.95Q421.05 197.05 429.3 147.5L435.6 110.7Q436.95 103.25 442.45 99.5L442.5 103.75L444.45 100.75Q448.75 158.65 454 217.8Q459.2 276.9 466.35 335.6Q469.3 360.05 474.55 384Q479.55 406.55 478.2 429.2Q478.05 431.45 475.95 431.95L473.9 432.95Q473.05 431.45 471.75 430.25L472.45 428.95Q462.15 370.85 456 312Q449.9 253.35 444.7 194.35Q442.15 165.25 440 136L438.8 143.25Q428.35 201.1 420.7 259.4Q418.9 273.45 413.45 285.25L413.5 286.3Q413.7 288.85 411.95 290.75Q404.9 283.65 404.9 270Q404.8 225.6 398.3 182.05Q395.45 163 392.85 143.95Q391.85 162.85 389.1 182Q384.95 211.15 380.4 240.15Q371.3 298.4 364.2 357.05Q360 391.85 353.7 426.2L350.2 426.95Q343.8 408.85 350.45 389.45Q362.7 334.2 369.2 274.65L374.25 230.95Q381.3 172.4 386.85 113.8Q387.85 103.2 391.85 94.2L392.45 94L392.55 95.3L393.65 96.1M339.3,108.95L338.95 108.25Q337.75 98.6 342.2 91Q350.65 102.75 350.35 120.25Q349.95 150.2 351 180.2Q353.15 239.85 352.35 299.5Q351.8 344.15 336.2 385.6Q327.45 408.85 306.9 422.4Q281.85 439 267.3 415.4Q264.3 410.65 263.55 404.9Q255.9 346.8 259.9 287.85Q263.9 228.55 265.1 168.75Q265.95 127.85 269.85 88.8L270.2 88.75Q274 147.5 271.8 207.3Q270.2 252.05 266.8 296.35Q263 347.05 271.55 396.75Q275 416.4 295.75 409.1Q318.25 401.15 327.05 378.1Q348.2 322.4 346.2 261.65L343.85 187.5Q342.7 148.7 340.2 110.25L339.3 108.95M476.25,149.3Q502.45 148.8 509.2 123.5Q497.5 102.35 475.4 111Q476.8 130.05 476.25 149.3M126.45,96Q135.25 103.85 142.95 112.55Q154.15 125.1 161.2 140.6Q190.35 204.7 190.5 275.85Q190.55 294.35 189.65 312.7L189.1 320L188.3 327.25L187.8 330.8L187.2 334.3L186.55 337.85L185.8 341.35L184.1 348.3Q180.2 363.85 174.3 378.65Q161.9 409.75 133.6 424.7Q101.5 441.7 66.7 431.55Q63.6 426 63.1 419.4Q62.2 408.2 62.45 397.5Q66.05 248.6 73 100.25Q68.7 84.55 88 84.6Q108.75 84.65 126.45 96M75.95,178.7Q73.25 238.25 73.9 298Q74.6 355.9 73.1 413.65Q113.95 424.7 149.05 397.5Q152.45 394.85 155 391Q180.15 352.35 182.35 306Q185.25 246.3 171.85 187.95Q163.35 150.9 138.85 124Q114.05 96.75 77 99.85Q79.85 123.8 77.8 148.85Q76.6 163.75 75.95 178.7M198.7,240Q206.9 232.7 216.95 231.75Q242.3 246.2 241.2 277.55Q240.3 303.55 221.4 318.55Q226.95 332.55 228.7 349.05Q231.65 376.8 237.85 404.15Q240 413.8 243.2 422.7Q242.25 426.85 240.6 430.8L239.45 432.45Q231.05 421.15 228.6 405Q224.75 379.6 221.65 354.25Q219.7 338.15 215.4 322.8L211.95 324.75Q211.85 326.3 213.95 327.5Q214.35 327.75 214.45 328.5Q213 329.35 211.35 327.85L210.2 327Q206.4 328.55 202.4 328.5L201.05 359.5Q199 395.6 190.95 429.95Q183.15 422.35 186.25 408.15Q192.55 379.15 193.7 349.2Q195.7 298.65 198.15 248.65Q197.4 247.1 197.45 245.2Q197.55 242.5 198.7 240M201.85,249.55Q203.15 280.25 202.75 311.4Q235.85 301.8 230.65 266.9Q226.75 240.15 201.85 249.55" />
</g>
</svg>
