<?xml version="1.0" encoding="utf-8"?>
<svg version="1.1" id="Layer_1"
xmlns="http://www.w3.org/2000/svg"
xmlns:xlink="http://www.w3.org/1999/xlink"


xml:space="preserve">
q-3.1 -2.8 -6.3 -2.8q-13.9 0 -20.4 36.3q-3.25 18.15 -3.7 36.55q0 7.75 0.3 21.2q0.7 -1.35 1.95 -2.3q2.15 1.55 2.95 3.4q0.55 1.3 0.55 3.35q0 1.8 -0.55 2.95q-0.55 1 -1.7 1.8q0.6 23.25 0.6 34.35q-0.25 8.8 0.45 15.65q2.25 21.75 13.85 21.75q9.65 0 14.9 -10.3q2.05 -4 2.75 -8.4q0.65 -4.1 -0.15 -6.55q2.4 4.25 2.95 5.8q0.55 1.7 0.55 5.2q0 0.95 -1.35 4.75q-1.65 4.7 -3.85 8.8q-6.7 12.2 -14.55 12.2q-7.15 0 -13.85 -12.3q-4.5 -8.2 -6 -14.7q0.15 -7.8 -0.3 -23.55q0 -4.9 2.15 -25.5q2.1 -20.6 2.85 -22.85q2.35 -7.3 5.95 -12.15q6.1 -8.25 15.6 -6.95q3.95 0.55 6.5 2.7q2.65 2.3 2.65 5.35q0.05 0.35 -1.45 0.35q-0.85 0 -2.25 -1.65q-4.9 -5.25 -11.45 -5.25q-25.5 0 -33.35 54q-3.9 27.15 -2.75 55.85q0 5.15 0.55 12.85q1 14.05 3.45 25.65q7.55 36.5 26 36.5q6.75 0 13.9 -5.95q3.65 -3.05 6.35 -6.3q-0.3 -0.9 -0.3 -2.55q0 -1.45 0.15 -2.35q1.05 3.6 1.8 9.1q0.7 4.85 0.7 7.05q0 9.65 -1 19.9q-1.1 10.6 -3 19.45q-1.25 -3.75 -1.25 -11.6q0 -2.65 0.3 -6.25q-6.6 8.45 -11.5 8.45q-25.85 0 -34.95 -41.75q-2.9 -13.25 -3.75 -29.4q-0.25 -11.05 0 -22.65q0.55 -22.45 3.3 -40.35q8.6 -55.75 36.2 -55.75q6.75 0 13.05 5.5q5.95 5.2 5.95 9.75q1 14.25 1 43q0 37.2 -0.45 45.2q-0.8 15.1 -4.3 37.95q28.35 2.15 39.6 -33.1q6.4 -20 6.4 -48.8q0 -21.6 -0.3 -24.8q-0.4 -4.85 -4.95 -31.45q-3.2 -18.6 -11.5 -27.75q-0.85 -0.9 -16.25 -11.15q5.45 6.05 8.6 15q1.85 5.25 3.9 15.75q4.6 23.45 5.35 32.9q0.4 4.95 0.4 27.85q-0.55 17.65 -3.9 31.65q-10.45 43.75 -45.2 43.75q-1.2 -1.25 -1.65 -3.1q0 -1.1 0.65 -4.8q0.2 -10.2 1.2 -19.5q1 -9.2 4 -26.65q-1.9 -1.85 -1.9 -2.75q0 -10.65 13.7 -2.1q5.25 3.25 10.85 8.4q5.25 4.75 7.95 8.45q-0.05 -1.6 -1 16.8q-1 19.45 -1 22.8q0 17.3 2 51.1q2 33.75 2 50.05q-0.5 11.9 -2.75 25.15q-3.1 16.1 -9.05 64.3q-5.4 43.75 -10.65 66.45q-8 34.4 -21 52q-15.55 21 -40.05 21q-21.9 0 -29.95 -67.2q-2.6 -21.45 -3.45 -47.6q-0.35 -11.15 -0.35 -24.45q0 -40.4 4.65 -111.15q4.6 -70.75 4.6 -93.95q0.9 -5.75 1.1 -17.25q0.25 -13.05 0.65 -17.25q3.7 6.8 3.85 18.7q0.05 3.9 -1.1 19.55q1.25 22.5 2.25 67.75q0 10.35 -1.85 48.9q0 9 -2.5 53.05q-2.5 44.05 -2.5 63.55q0 41.6 2.6 66.55q4.85 46.55 18.65 57.2q33.15 -1.35 48.55 -42.8q5.05 -13.6 8.05 -31.45q4.7 -29.85 7.05 -48.75q2.35 -9.75 2.85 -22.5q0 -13.35 -1.95 -39.6q-2.05 -28.2 -2.3 -39.75q-2.1 0.9 -6.6 1.6q5.5 -1.15 6.8 -5q0.45 -1.35 0.6 -4q0.1 -2.5 0.45 -3.35q3 -6.75 4.85 -3.6q1.35 2.25 1.4 6.35q7.7 7.05 7.7 18.25q0 2.5 -0.25 2.6q-0.1 0 -0.7 0.45q-2.85 -5.55 -5.6 -10.2q-5.3 -9.05 -10.4 -9.05q-31.5 0 -40.7 49.5q-3 16.05 -3.45 36.75q-0.2 10.85 0.15 22.5q0 6.2 0.85 17.65q1.4 19.05 4.45 34.85q9.45 49.5 30.95 49.5q20.15 -12.7 29.05 -22.3q8.25 -8.9 8.45 -16.5q0 1.1 -2.9 7.15q-3.65 7.65 -8.35 14.2q-14.5 20.25 -31.5 20.25q-28.75 0 -39.2 -55.75q-3.3 -17.6 -4.4 -38.9q0 -20.4 1.65 -29.05q3.6 -15.5 7.6 -38.1q3.35 -18.8 13.1 -29.15q8.5 -9 19.5 -9.6q10.3 -0.55 17.7 6.15q-0.35 1.75 -1.95 1.75q-5.75 -1.4 -12.25 -1.4q-4.75 0 -8.95 0.15q1.5 9.1 1.05 20.6q-0.65 9 -0.65 14.6q0 4.7 1.35 13.85q0.5 5.8 0.8 16.15q-0.9 35.6 -0.9 75.35q0 9.1 -2.05 27.9q-2 18.8 -3.7 25.35q-1.45 -1.3 -2.35 -5.55q-0.65 -3.1 -0.65 -4.95q1.75 -27.9 1.75 -55.4q0 -16.1 -1.85 -32.4q-1.9 -16.3 -1.9 -43q-0.3 -13.25 -0.2 -20.65q0.1 -5.2 0.45 -9.05q-9.35 1.1 -15.7 3.4q-1.7 -1.45 -2.3 -2.8q-0.45 -1.05 -0.45 -2.7q0.35 -1.25 2.4 -1.7q21.35 -2.55 28.8 -0.25q5.2 1.6 5.2 6.9q0 31.05 -3 51.75q-1 9.75 -1 29.65q0 12 -2.85 48.6q-2.8 35.8 -3.9 40.25q-1.05 -1.15 -1.7 -4.2q-0.55 -2.35 -0.55 -3.65q0 -2.5 2.5 -37.1q2.5 -34.6 2.5 -44.3q0 65.65 -9.6 116.25q-2.2 -1.35 -2.75 -3.35q-0.25 -0.8 -0.25 -3q4.35 -40.15 4.35 -72.4q-0.55 -0.95 -0.55 -3.8q0 -1.7 0.35 -3q0.6 -8 1.3 -13.05q1.55 -9.2 2.65 -25.25q2 1.35 2.45 7.85q-0.35 5.6 -2.65 19.7q-0.55 4.05 -1.15 10.15q0 -21.85 1 -33q0.85 -16.5 2.05 -26.25q3.5 2.3 3.5 4.5q2.5 5.15 3.05 13.9q0.2 2.7 0.2 13.45q0 13.9 -3.5 23.65q-5.5 15.45 -18.45 18.8q7.15 21.85 14.85 62.85q3.35 18.05 6.05 35.8q2.3 14.85 2.3 16.8q0 3 -1.75 5.6q-3.9 -9.9 -15.35 -63.15q-8.8 -41 -10.95 -57.05q-1.3 14.25 -1.85 21.9q-0.85 12.4 -0.85 22.45q0 13.1 -3.2 37.6q-2.6 19.7 -5.55 35q-1.25 -1.3 -1.85 -4.8q-0.4 -2.4 -0.4 -4.95q0 -10.7 3.8 -39.8q3.7 -28.2 3.45 -37.3q1.05 -9.35 2.7 -30.2q-0.85 -1.2 -0.85 -2.6q0 -3.25 0.5 -3.75q0.6 -0.7 4.2 -0.75q0 -1.9 0.65 -3.65q0.6 -1.75 1.35 -1.95q1 -0.65 2.55 -0.7q3.95 -0.15 10.35 3.05q5.8 2.85 11.15 7.15q5.35 4.25 6.95 7.3q13.2 -3.1 18.75 -14.35q3.5 -7.05 3.5 -18q0 -12.4 -3.7 -20.55q-7 -15.5 -25.55 -14.6q1.75 13 1.75 32q0 14.2 -0.5 20.85q0.3 -0.9 0.8 -1.4q-14.65 -14.65 -30.55 -23.1q-15.05 -8 -26.3 -8q-17.95 0 -25.2 1.5q3.25 13.55 5.35 39.5q2.35 29.15 2.35 56.25q0 15.2 -1.1 35.95q-1.25 24 -1.5 71.65q0 25.25 -6.6 95.5q-3.6 38.4 -6.25 59.7q45 1.9 80.1 -54.75q18.6 -30 31.4 -71.25q9 -28.9 14.25 -63.45q5.25 -34.45 5.25 -64.4q0 -16.95 -5.5 -64.4q-4.45 -38.4 -7.25 -55.85q-4.15 -25.8 -16.6 -48.95q-11.05 -20.45 -27.3 -36.7q45.95 0.65 76.6 33.25q25.25 26.95 39.4 74.85q16.75 56.65 16.75 141.25q0 34.3 -5 66.15q-4.4 28.1 -15.5 70.35q-6.65 25.5 -19.6 50.4q-12.05 23.2 -27.5 42.25q-15.05 18.5 -30.05 29.05q-15.35 10.8 -27.1 10.8q-3 -2.5 -4 -8.05q-2.25 -2.9 -2.25 -7.1q0 -0.8 1.15 -8.25q1.1 -7.45 1.1 -10.9q2.25 -22.55 5.05 -46.5q2.95 -29.4 2.95 -74.25q0 -29.1 2.65 -87.1q2.6 -52.95 2.6 -56.75q-1.5 -10.95 -1.55 -12.85q-4.55 0 -5.7 -2.8q0 -2.6 0.25 -3.3q0.5 -1.3 2.7 -2.1q3.7 -1.4 24.05 -3.95q-0.25 -1.9 -0.95 -3.7<g id="1693" transform="matrix(1, 0, 0, 1, -3.25, 0)">
<path style="fill:#000000;fill-opacity:1" d="M538.3,32.95L538.1 34.25L537.65 34.7L536.85 35.5L533.15 32.05Q530.05 29.25 526.85 29.25Q512.95 29.25 506.45 65.55Q503.2 83.7 502.75 102.1Q502.75 109.85 503.05 123.3Q503.75 121.95 505 121L524.1 121.25Q526.25 122.8 527.05 124.65Q527.6 125.95 527.6 128Q527.6 129.8 527.05 130.95Q526.5 131.95 525.35 132.75L523.85 131.25L505 131L503.2 128.65L503.4 136.65Q504 159.9 504 171L503.55 179.7Q503.3 188.5 504 195.35Q506.25 217.1 517.85 217.1Q527.5 217.1 532.75 206.8Q534.8 202.8 535.5 198.4Q536.15 194.3 535.35 191.85L536.1 191.6Q538.5 195.85 539.05 197.4Q539.6 199.1 539.6 202.6Q539.6 203.55 538.25 207.35Q536.6 212.05 534.4 216.15Q527.7 228.35 519.85 228.35Q512.7 228.35 506 216.05Q501.5 207.85 500 201.35L500 141.5Q500.15 133.7 499.7 117.95L499.25 102.1Q499.25 97.2 501.4 76.6Q503.5 56 504.25 53.75L507.65 41.9Q510 34.6 513.6 29.75Q519.7 21.5 529.2 22.8Q533.15 23.35 535.7 25.5Q538.35 27.8 538.35 30.85L538.3 32.95M486.25,36L486.3 36.4Q486.35 36.75 484.85 36.75Q484 36.75 482.6 35.1L479.55 31.5Q474.65 26.25 468.1 26.25Q442.6 26.25 434.75 80.25Q430.85 107.4 432 136.1Q432 141.25 432.55 148.95Q433.55 163 436 174.6Q443.55 211.1 462 211.1Q468.75 211.1 475.9 205.15Q479.55 202.1 482.25 198.85L482.7 199.1L482.75 198.4L484.25 187.5L483.95 184.25L483.25 181.35L473.65 181.75L463.5 181.6L462.8 180.4Q462.5 179.5 462.5 177.85Q462.5 176.4 462.65 175.5L463 173.35L485.25 171.85Q486.3 175.45 487.05 180.95Q487.75 185.8 487.75 188Q487.75 197.65 486.75 207.9Q485.65 218.5 483.75 227.35L482.5 227.6Q481.25 223.85 481.25 216Q481.25 213.35 481.55 209.75L478.5 213.9Q471.9 222.35 467 222.35Q441.15 222.35 432.05 180.6Q429.15 167.35 428.3 151.2L428 136.5Q427.75 125.45 428 113.85Q428.55 91.4 431.3 73.5Q439.9 17.75 467.5 17.75Q474.25 17.75 480.55 23.25Q486.5 28.45 486.5 33L486.25 36M365.75,35.5L365.75 83.5Q366.75 97.75 366.75 126.5Q366.75 163.7 366.3 171.7Q365.5 186.8 362 209.65Q390.35 211.8 401.6 176.55Q408 156.55 408 127.75Q408 106.15 407.7 102.95Q407.3 98.1 402.75 71.5Q399.55 52.9 391.25 43.75Q390.4 42.85 375 32.6L367.3 27.25L367.15 28.2L365.75 35.5M393.75,35.75Q399.2 41.8 402.35 50.75Q404.2 56 406.25 66.5Q410.85 89.95 411.6 99.4Q412 104.35 412 127.25L412.1 144.95Q411.55 162.6 408.2 176.6Q397.75 220.35 363 220.35L360.35 220L360 221.85Q358.8 220.6 358.35 218.75L357.5 217.4L357.25 214.1Q357.25 213 357.9 209.3L358.05 208.4Q358.25 198.2 359.25 188.9Q360.25 179.7 363.25 162.25L363.25 91.75L362.65 90.25L362.25 88.75L362.25 31L363.15 23.75Q361.25 21.9 361.25 21Q361.25 10.35 374.95 18.9Q380.2 22.15 385.8 27.3Q391.05 32.05 393.75 35.75M346.75,20.75Q346.7 19.15 345.75 37.55Q344.75 57 344.75 60.35Q344.75 77.65 346.75 111.45Q348.75 145.2 348.75 161.5L348.5 186.2Q348 198.1 345.75 211.35L345.75 272.1L346.75 278.1L346.75 327.6Q343.65 343.7 337.7 391.9Q332.3 435.65 327.05 458.35Q319.05 492.75 306.05 510.35Q290.5 531.35 266 531.35Q244.1 531.35 236.05 464.15Q233.45 442.7 232.6 416.55Q232.25 405.4 232.25 392.1Q232.25 351.7 236.9 280.95Q241.5 210.2 241.5 187L239.5 123L239.55 120.85L239.75 120L239.75 50.25Q240.65 44.5 240.85 33Q241.1 19.95 241.5 15.75Q245.2 22.55 245.35 34.45Q245.4 38.35 244.25 54L244.25 119.25Q245.5 141.75 246.5 187Q246.5 197.35 244.65 235.9L242.75 275.5Q242.75 284.5 240.25 328.55Q237.75 372.6 237.75 392.1Q237.75 433.7 240.35 458.65Q245.2 505.2 259 515.85L267 515.85Q300.15 514.5 315.55 473.05Q320.6 459.45 323.6 441.6L326.5 420.85L334.2 372.1Q338.9 342.25 341.25 323.35L341.25 282.1L340.25 276.85L340.25 206.35Q342.6 196.6 343.1 183.85L343.25 161.35Q343.25 148 341.3 121.75Q339.25 93.55 339 82L339 42.25L339.25 28.75Q337.15 29.65 332.65 30.35Q338.15 29.2 339.45 25.35Q339.9 24 340.05 21.35Q340.15 18.85 340.5 18Q343.5 11.25 345.35 14.4Q346.7 16.65 346.75 20.75M470.55,243.75Q478.25 250.8 478.25 262Q478.25 264.5 478 264.6Q477.9 264.6 477.3 265.05L476 265.85Q473.15 260.3 470.4 255.65Q465.1 246.6 460 246.6Q428.5 246.6 419.3 296.1Q416.3 312.15 415.85 332.85Q415.65 343.7 416 355.35L414 411.6Q414 417.8 414.85 429.25Q416.25 448.3 419.3 464.1Q428.75 513.6 450.25 513.6L459 513.35Q479.15 500.65 488.05 491.05Q496.3 482.15 496.5 474.55L496.75 484Q496.75 485.1 493.85 491.15Q490.2 498.8 485.5 505.35Q471 525.6 454 525.6Q425.25 525.6 414.8 469.85Q411.5 452.25 410.4 430.95L410 412.1L411 343.5Q411 323.1 412.65 314.45Q416.25 298.95 420.25 276.35Q423.6 257.55 433.35 247.2Q441.85 238.2 452.85 237.6Q463.15 237.05 470.55 243.75M408.95,251.35Q408.6 253.1 407 253.1L401.5 251.75Q395.75 250.35 389.25 250.35Q384.5 250.35 380.3 250.5Q381.8 259.6 381.35 271.1L380.4 285.75Q379.75 294.75 379.75 300.35Q379.75 305.05 381.1 314.2L383 328.1Q383.5 333.9 383.8 344.25L384 355.5L383.15 396.75Q382.25 432.35 382.25 472.1Q382.25 481.2 380.2 500Q378.2 518.8 376.5 525.35Q375.05 524.05 374.15 519.8Q373.5 516.7 373.5 514.85L375.25 490.25Q377 462.35 377 434.85L380 355.75Q380 339.65 378.15 323.35Q376.25 307.05 376.25 280.35Q375.95 267.1 376.05 259.7Q376.15 254.5 376.5 250.65L366.7 251.45Q357.35 252.55 351 254.85Q349.3 253.4 348.7 252.05Q348.25 251 348.25 249.35L348.35 245.35Q348.7 244.1 350.75 243.65L375 241.1Q396.35 238.55 403.8 240.85Q409 242.45 409 247.75L408.95 251.35M547.85,245.1Q547.85 276.15 544.85 296.85L544.85 340.35Q543.85 350.1 543.85 370L545.85 440.5Q545.85 452.5 543 489.1Q540.2 524.9 539.1 529.35Q538.05 528.2 537.4 525.15Q536.85 522.8 536.85 521.5Q536.85 519 539.35 484.4Q541.85 449.8 541.85 440.1L540.15 379.9L539.85 380.1L510.85 380.1L507.05 379.75L507.95 395.25L508.85 412.1Q508.85 477.75 499.25 528.35Q497.05 527 496.5 525Q496.25 524.2 496.25 522L500.65 484.15Q505 444 505 411.75L504 395.05L503 378.35L503.05 377.5L502.8 377.15Q502.25 376.2 502.25 373.35Q502.25 371.65 502.6 370.35L503.5 368.1L503.7 368.15Q504.3 360.15 505 355.1L505 287.6Q506.55 278.4 507.65 262.35L509.1 239.6Q511.1 240.95 511.55 247.45L511.6 256.1L511.5 271.65Q511.15 277.25 508.85 291.35L508.85 358.85Q508.3 362.9 507.7 369L510.85 369.6L539.85 369.6Q539.85 347.75 540.85 336.6L540.85 293.1L542.3 266.85Q543.15 250.35 544.35 240.6Q547.85 242.9 547.85 245.1M219.5,31.25Q222 36.4 222.55 45.15Q222.75 47.85 222.75 58.6Q222.75 72.5 219.25 82.25Q213.75 97.7 200.8 101.05Q207.95 122.9 215.65 163.9Q219 181.95 221.7 199.7Q224 214.55 224 216.5Q224 219.5 222.25 222.1Q218.35 212.2 206.9 158.95Q198.1 117.95 195.95 101.9L193 102L188.7 101.9Q187.4 116.15 186.85 123.8Q186 136.2 186 146.25Q186 159.35 182.8 183.85Q180.2 203.55 177.25 218.85Q176 217.55 175.4 214.05Q175 211.65 175 209.1Q175 198.4 178.8 169.3Q182.5 141.1 182.25 132Q183.3 122.65 184.95 101.8L184.5 101.75L181.85 98.85Q181 97.65 181 96.25Q181 93 181.5 92.5Q182.1 91.8 185.7 91.75L186 87.8L188.25 54.75L187.25 36.95L186.25 19.1Q186.25 17.2 186.9 15.45Q187.5 13.7 188.25 13.5L188.5 14.45Q189.5 13.8 191.05 13.75Q195 13.6 201.4 16.8Q207.2 19.65 212.55 23.95Q217.9 28.2 219.5 31.25M197,90.6Q210.2 87.5 215.75 76.25Q219.25 69.2 219.25 58.25Q219.25 45.85 215.55 37.7Q208.55 22.2 190 23.1Q191.75 36.1 191.75 55.1Q191.75 69.3 191.25 75.95L189.75 91.65L195.7 90.9Q196 90 196.5 89.5L197 90.6M113.6,54.35Q98.95 39.7 83.05 31.25Q68 23.25 56.75 23.25Q38.8 23.25 31.55 24.75Q34.8 38.3 36.9 64.25Q39.25 93.4 39.25 120.5Q39.25 135.7 38.15 156.45L36 192.35Q34.75 216.35 34.5 264L36.5 358.1Q36.5 383.35 29.9 453.6Q26.3 492 23.65 513.3L39.25 514.1Q84.25 516 119.35 459.35Q137.95 429.35 150.75 388.1Q159.75 359.2 165 324.65Q170.25 290.2 170.25 260.25Q170.25 243.3 164.75 195.85Q160.3 157.45 157.5 140Q153.35 114.2 140.9 91.05Q129.85 70.6 113.6 54.35M43,11Q88.95 11.65 119.6 44.25Q144.85 71.2 159 119.1Q175.75 175.75 175.75 260.35Q175.75 294.65 170.75 326.5Q166.35 354.6 155.25 396.85Q148.6 422.35 135.65 447.25Q123.6 470.45 108.15 489.5Q93.1 508 78.1 518.55Q62.75 529.35 51 529.35L43.7 529.15L37.75 528.6L21.55 528.35L20 536.35Q17 533.85 16 528.3L5.5 528.1Q3.25 525.2 3.25 521Q3.25 520.2 4.4 512.75Q5.5 505.3 5.5 501.85L6.25 501.6L6.75 512.85L16.45 513.1L16.5 512.6L17.25 512.35L17.35 513.15L19.65 513.2Q21.9 490.65 24.7 466.7L28.55 432.1Q31.5 402.7 31.5 357.85L29.5 264.1Q29.5 235 32.15 177Q34.75 124.05 34.75 120.25L33 68.5L31.55 57.35Q30.05 46.4 30 44.5L28 33.75L26.6 26.2L26.5 26.2L22 26.75Q17.45 26.75 16.3 23.95L16 20.85Q16 18.25 16.25 17.55Q16.75 16.25 18.95 15.45Q22.65 14.05 43 11.5L43 11M496.25,468.6L496.45 472.55Q496.2 470.65 495.5 468.85L496.25 468.6" />
</g>
</svg>
