<?xml version="1.0" encoding="utf-8"?>
<svg version="1.1" id="Layer_1"
xmlns="http://www.w3.org/2000/svg"
xmlns:xlink="http://www.w3.org/1999/xlink"


xml:space="preserve">
q-43 7.9 -87 11.75q-2.35 4.85 -0.2 9.65q24.2 0.4 47.85 -2.65q-3.05 48.1 -4.95 96.65q-0.6 15.05 -3.05 29.7q-2.3 13.6 4.15 21.8q4.25 -18.1 5.35 -37.45q3.15 -55.95 0.75 -111q19.5 -2.75 38.65 -7.8q2.1 -5.75 -1.25 -10.5q-29.75 16.7 -10.2 47.95q9.3 14.8 14.3 30.45q5.9 18.45 -13.05 22.3q-6.75 -10.45 -9 -24q-8.05 20.15 8 36q32 -0.5 29.85 -32.65q-1.4 -21.45 -16 -37.65q-17.2 -19.05 5.5 -29.5q5.25 -2.4 10.65 1.3q4.9 -15.8 -11.05 -20.3q7.4 4.95 11.15 12.7q23.6 49.25 36.05 103.55q3.35 14.75 4.75 29.5q5.45 58.75 -19.45 112q-17.1 36.55 -57.75 32.05q3.95 -34.4 4.65 -70q1.2 -59.55 2.75 -119.2q1.4 -56.05 -0.2 -110.5q9.3 4.1 18.05 9.9q-3.85 30.45 -4.1 62q-0.45 59.6 -1.7 119.2q-1.25 59.95 -7.85 119.1q-1.6 14.25 5.5 21.9q13.95 1.65 26.8 -2.1q14.6 -4.3 23.7 -16.2q29.65 -38.8 35.55 -89q2.55 -21.5 0.15 -43.45q-5.7 -51.55 -21.85 -100.5q-2.9 -8.8 -4.9 -17.75q-9.5 -42.3 -49.6 -56.4q-3 0.7 -2.95 4.25q0 1.8 0.6 3.5q-13.8 14.35 -14.05 35.85q-0.95 27.8 -3.3 55.55q-1.1 12.3 -1.8 24.6q-1 18.35 -0.1 36.65q0.9 18.3 6.4 35.45q3.8 11.8 16.15 9.35q21.95 -4.15 27.6 -27.65q2.15 -8.9 -0.95 -17.5q-3.2 13.4 -14 21.75q-12.1 -25.95 -9.55 -58.6q2.9 -37.2 6.95 -74.2q10.5 3.75 20.7 -0.3q1.9 -3.2 1.6 -6.55q-0.25 -3.2 -2.2 -5.85q3.2 -66.55 10.45 -132.75q1.25 -11.25 5.2 -22.1q9.35 2.55 16.3 9.4q2.9 -6.85 -1.2 -13.6q-3.15 -5.1 -8.05 -8.9q-6.25 13.4 -14.05 25.9q-4.1 42.8 -9.1 86.05q-3.2 27.95 1.45 55.5q2.1 -6.3 2.95 -12.75q3.25 -24.95 5.6 -48.4q0.5 -4.9 2.75 -9.6q0.3 7.7 2 15.2q7.5 32.95 18.2 63.65q-1.3 -15.95 -4.2 -31.85q-4.9 -26.65 -13.2 -52.4q8.45 -19.35 19.1 -38.25q5.4 -9.6 2.4 -18.25q4.1 -55.95 5.05 -111.3q-6.15 27.55 -7.7 57.65q-1.15 23.45 0.7 45.6q-11.85 -47.05 -28.4 -91.6q-0.6 0.4 -0.45 1.05q-2.5 42.7 -5.35 84.05q-0.1 0.35 -0.05 0.7q-3.35 10.6 3 17.25q0.4 -0.4 0.4 -0.8q4 -48.35 3.15 -96.3q11.8 47 26.2 93.6q1.15 2.45 3.5 2q1.35 -1.65 0.85 -3.6q-23.1 -9.35 -32.25 14.1q-8.5 21.7 3.15 41.45q2.55 4.25 6.1 7.9q17.95 5 28.65 -9.95q4.25 -5.9 1.85 -12.75q-15.15 20.25 -31.9 4q-12.65 -12.25 -2.85 -27.3q9.55 -14.55 25.75 -7.95q-3.05 4.55 -0.25 9q2.6 -5.15 -0.6 -9.7q-8.9 -0.45 -16.5 3.5q-3.8 3.95 -0.15 7.65q-9.3 36.3 -1.6 70.8q12.55 2.9 24.55 -1.95q-5.1 14.55 -7 37.6q-1.7 20.3 2.25 38.2q7.8 -34.35 5.25 -69.5q11.7 1.6 22.15 -3.9q2.05 -3.25 0.5 -6.65q-0.8 -1.8 -2.5 -2.6q-1.4 38.45 1.2 76.45q4 59.25 4.35 119.3q0.35 60.3 -7.4 119.25q-6.05 46.1 -24.55 88.7q-13.55 31.3 -44.75 16.5q-3.1 -2.35 -4.95 -5.8q-9.4 -17.75 -10.45 -38.35q-3 -59.25 -2.5 -118.55q0.5 -59.75 -0.7 -119.25q-0.65 -29.95 1 -59.9q3.25 -59.75 -0.15 -118.6q-4.55 13.3 -5 30.25q-1.5 59.1 -1 118.5q0.5 59.6 -0.5 119.25q-1 59.75 1.5 119.25q0.6 15.05 0.25 29.95q-0.85 34.7 20.5 59.25q10.75 8.35 24.25 3.7q8.1 -2.8 12.85 -9.65q25.5 -36.8 32.95 -82.1q9.65 -58.95 11.15 -119.4q1.5 -60.1 -2.85 -119.25q-4.35 -59.15 -1.5 -119.2q0.85 -17 -6.35 -29.3q-3.5 3.6 -2.75 9q-4.3 5.3 -5.25 12q0.9 2.5 1.5 0.75q-1.15 -4.85 2.75 -9q2.85 11.65 2.4 25q32.25 52 39.35 114.05q6.8 59.05 10.25 118.65q3.45 59.1 -2.9 117.05q-4.3 39.1 -28.55 68.85q-26.25 32.15 -70.75 30.3q-0.8 1.65 -1.95 2.4q-1.3 0.8 -2.1 2.05q3.2 -23.25 4.15 -47.2q2.25 -59.3 3 -119.35q0.75 -59.55 0.45 -119.2q-0.3 -59.5 0.7 -119.25q0.35 -22.5 2.7 -44.85q1.1 -10.7 -0.35 -20.4q22.05 1.8 41.75 10.25q3.95 4.4 7.15 9.55q-18.4 -11 -40.65 -10.9q-1.3 0.25 -2.55 0.9q-0.55 1.05 -0.6 2.25q-2.35 7.55 -2.6 16.9q-1.7 59.35 -1.8 119.25q-0.45 60.05 -4.1 119.3q-0.95 14.95 -2.85 29.8q-1.7 13.25 1.05 24.4q0.35 3.2 2.8 5.2q17.35 0.4 34.75 -2.4q36 -5.8 52.95 -35.6q27.5 -39.8 30.35 -89.95q3.4 -59 -0.3 -118.5q-3.7 -59.2 -11.5 -117.85q-7.9 -59.5 -37.7 -110.65q-4.5 -7.75 -12.15 -12.35q-3.35 7.5 -5.95 15.3q-7 20.85 -11.15 42.6q-1.25 6.45 -1.15 13.1q-0.3 16.75 0.8 33.45q0.85 13.2 6.4 23.7q-1.15 -10.1 -0.05 -20.05q1.75 -15.3 -2.1 -30.15q-2.7 24.6 -6.9 49.2q-2.25 12.9 4.4 23.2q12.8 -6.4 15.15 -20.9q2.65 -16.15 -9.9 -26.6q-0.85 10.25 -9.7 15.75q0.55 -11.35 0.35 -22.7q10 -5.2 18.4 1.7<g id="1689" transform="matrix(1, 0, 0, 1, -32.75, 0)">
<path style="fill:#000000;fill-opacity:1" d="M454.7,43.25L454.45 44Q435.3 49.05 415.8 51.8Q418.2 106.85 415.05 162.8Q413.95 182.15 409.7 200.25Q403.25 192.05 405.55 178.45Q408 163.8 408.6 148.75Q410.5 100.2 413.55 52.1Q389.9 55.15 365.7 54.75Q363.55 49.95 365.9 45.1L366.45 44.5Q410.45 40.65 453.45 32.75Q456.8 37.5 454.7 43.25M330.15,39.7Q346.1 44.2 341.2 60L338.45 54Q333.05 50.3 327.8 52.7Q305.1 63.15 322.3 82.2Q336.9 98.4 338.3 119.85Q340.45 152 308.45 152.5Q292.4 136.65 300.45 116.5Q302.7 130.05 309.45 140.5L319 139.95Q337.95 136.1 332.05 117.65Q327.05 102 317.75 87.2Q298.2 55.95 327.95 39.25L330.15 39.7M460.45,215Q462.05 269.45 460.65 325.5Q459.1 385.15 457.9 444.7Q457.2 480.3 453.25 514.7Q493.9 519.2 511 482.65Q535.9 429.4 530.45 370.65Q529.05 355.9 525.7 341.15Q513.25 286.85 489.65 237.6Q485.9 229.85 478.5 224.9Q469.75 219.1 460.45 215M458,210.5Q457.95 206.95 460.95 206.25Q501.05 220.35 510.55 262.65Q512.55 271.6 515.45 280.4Q531.6 329.35 537.3 380.9Q539.7 402.85 537.15 424.35Q531.25 474.55 501.6 513.35Q492.5 525.25 477.9 529.55Q465.05 533.3 451.1 531.65L450.45 536.2Q443.35 528.55 444.95 514.3Q451.55 455.15 452.8 395.2Q454.05 335.6 454.5 276Q454.75 244.45 458.6 214Q458 212.3 458 210.5M430.45,206Q435.35 209.8 438.5 214.9Q442.6 221.65 439.7 228.5L438.25 227.15Q431.3 220.3 421.95 217.75Q418 228.6 416.75 239.85Q409.5 306.05 406.3 372.6L425.45 371.45Q427.4 374.1 427.65 377.3Q427.95 380.65 426.05 383.85Q415.85 387.9 405.35 384.15Q401.3 421.15 398.4 458.35Q395.85 491 407.95 516.95L423.95 516.95Q434.75 508.6 437.95 495.2L437.45 492.2L442.95 486.45Q446.05 495.05 443.9 503.95Q438.25 527.45 416.3 531.6Q403.95 534.05 400.15 522.25Q394.65 505.1 393.75 486.8Q392.85 468.5 393.85 450.15Q394.55 437.85 395.65 425.55L398.35 396.1L401.1 366.55L403.65 337Q406 309.25 406.95 281.45L407.9 240.6Q408.15 219.1 421.95 204.75L430.45 206M396.45,212.25Q399.45 220.9 394.05 230.5Q383.4 249.4 374.95 268.75Q383.25 294.5 388.15 321.15Q391.05 337.05 392.35 353Q381.65 322.3 374.15 289.35Q372.45 281.85 372.15 274.15L367.75 283.45Q365.5 288.15 365 293.05Q362.65 316.5 359.4 341.45Q358.55 347.9 356.45 354.2L355.8 351.05Q351.15 323.5 354.35 295.55Q359.35 252.3 363.45 209.5L363.25 274.8Q371.05 262.3 377.3 248.9L395.2 210.75L396.45 212.25M336.55,271.4Q337.05 273.35 335.7 275Q333.35 275.45 332.2 273Q317.8 226.4 306 179.4Q306.85 227.35 302.85 275.7Q302.85 276.1 302.45 276.5Q296.1 269.85 299.45 259.25L298.65 256.2Q298.6 255.85 298.7 255.5Q301.55 214.15 304.05 171.45L301.5 161.05Q301.35 160.4 301.95 160L304.35 166.25L304.7 159.55L305.45 159.5L305.8 170.15Q322.35 214.7 334.2 261.75Q332.35 239.6 333.5 216.15Q335.05 186.05 341.2 158.5Q340.25 213.85 336.15 269.8L336.55 271.4M340.95,290.5L340.7 298.75L329.95 294Q313.75 287.4 304.2 301.95Q294.4 317 307.05 329.25Q323.8 345.5 338.95 325.25Q341.35 332.1 337.1 338Q326.4 352.95 308.45 347.95Q304.9 344.3 302.35 340.05Q290.7 320.3 299.2 298.6Q308.35 275.15 331.45 284.5L340.95 290.5M362.2,391.7Q365.4 396.25 362.8 401.4L362.2 402.2L345.45 404.2Q342.65 399.75 345.7 395.2Q353.3 391.25 362.2 391.7M324.45,372.7L299.25 370.3L298.7 396.4L322.9 393.25L322.95 401.95Q310.95 406.8 298.4 403.9L295.55 440.6Q287.85 406.1 297.15 369.8Q293.5 366.1 297.3 362.15L323.6 363.05L325.95 366.95L324.45 372.7M363.95,356.95Q365.65 357.75 366.45 359.55Q368 362.95 365.95 366.2Q355.5 371.7 343.8 370.1Q346.35 405.25 338.55 439.6Q334.6 421.7 336.3 401.4Q338.2 378.35 343.3 363.8L363.95 356.95M275.95,55.5Q272.05 59.65 273.2 64.5Q272.6 66.25 271.7 63.75L271.45 63Q272.4 56.3 276.7 51Q275.95 45.6 279.45 42Q286.65 54.3 285.8 71.3Q282.95 131.35 287.3 190.5Q291.65 249.65 290.15 309.75Q288.65 370.2 279 429.15Q271.55 474.45 246.05 511.25Q241.3 518.1 233.2 520.9Q219.7 525.55 208.95 517.2L205.2 516.7Q183.85 492.15 184.7 457.45Q185.05 442.55 184.45 427.5Q181.95 368 182.95 308.25Q183.95 248.6 183.45 189Q182.95 129.6 184.45 70.5Q184.9 53.55 189.45 40.25Q192.85 99.1 189.6 158.85Q187.95 188.8 188.6 218.75Q189.8 278.25 189.3 338Q188.8 397.3 191.8 456.55Q192.85 477.15 202.25 494.9Q204.1 498.35 207.2 500.7Q238.4 515.5 251.95 484.2Q270.45 441.6 276.5 395.5Q284.25 336.55 283.9 276.25Q283.55 216.2 279.55 156.95Q276.95 118.95 278.35 80.5Q278.8 67.15 275.95 55.5M97.45,51.75Q77.75 43.3 55.7 41.5Q57.15 51.2 56.05 61.9Q53.7 84.25 53.35 106.75Q52.35 166.5 52.65 226Q52.95 285.65 52.2 345.2Q51.45 405.25 49.2 464.55Q48.25 488.5 45.05 511.75L49 510.95Q49.8 509.7 51.1 508.9Q52.25 508.15 53.05 506.5L53.6 505.9L54.25 505.7L53.65 507.2L53.25 507.95L52.3 509.5L52 510.2Q96.5 512.05 122.75 479.9Q147 450.15 151.3 411.05Q157.65 353.1 154.2 294Q150.75 234.4 143.95 175.35Q136.85 113.3 104.6 61.3Q101.4 56.15 97.45 51.75M110.8,53.25Q140.6 104.4 148.5 163.9Q156.3 222.55 160 281.75Q163.7 341.25 160.3 400.25Q157.45 450.4 129.95 490.2Q113 520 77 525.8Q59.6 528.6 42.25 528.2Q39.8 526.2 39.45 523L39.3 519.95L39.3 519.45Q36.55 508.3 38.25 495.05Q40.15 480.2 41.1 465.25Q44.75 406 45.2 345.95L46.1 235L46.35 175Q46.45 115.1 48.15 55.75Q48.4 46.4 50.75 38.85L50.65 38.25L50.7 36L50.75 35.25L50.9 33.75Q50.95 32.55 51.5 31.5Q52.75 30.85 54.05 30.6L57.95 30.1L58 30Q80.25 29.9 98.65 40.9Q106.3 45.5 110.8 53.25M288.15,477.4Q287.05 487.35 288.2 497.45L309.45 441.45L313.9 519.85Q308.35 509.35 307.5 496.15Q306.4 479.45 306.7 462.7L285.65 516.6L282.7 470.95L266.95 515.45Q266.85 508.8 268.1 502.35Q272.25 480.6 279.25 459.75Q281.85 451.95 285.2 444.45L286.05 447.25Q289.9 462.1 288.15 477.4M336.95,440.7L347.2 438.95Q359.75 449.4 357.1 465.55Q354.75 480.05 341.95 486.45L332.45 485.7L328.2 517.6Q321.55 507.3 323.8 494.4Q328 469.8 330.7 445.2L332.75 443.45L333.2 441.95L336.95 440.7M351.95,453.95Q343.55 447.05 333.55 452.25Q333.75 463.6 333.2 474.95L341.95 474.95Q350.8 469.45 351.65 459.2L351.95 453.95" />
</g>
</svg>
