<?xml version="1.0" encoding="utf-8"?>
<svg version="1.1" id="Layer_1"
xmlns="http://www.w3.org/2000/svg"
xmlns:xlink="http://www.w3.org/1999/xlink"


xml:space="preserve">
q2.4 123.45 -10.55 246q-1.8 15.95 5.15 29.65q12.9 -82.65 13.6 -166.95q2.65 -47.25 -2.1 -94.4q4.05 -5.25 1.3 -11.95q-4.3 4.5 -1.65 10.75q0.55 1.3 1.8 2.45q-20.3 -1.6 -39.25 3.3q-0.65 1.45 -0.95 2.95q-0.7 3.95 0.85 7.55q-3.25 21.45 -3.7 44.75q-1.1 59.2 -7.7 117.75q-6.7 59.15 -6.25 118.45q1.05 1.85 3.25 1.75q4.95 -5.65 4.9 -14q-0.1 -21.65 1 -43.4q3 -58.35 8.75 -116.35q5.15 -8.75 -1.6 -15.65q-14.25 0.9 -27.65 4.6q3.95 -47.85 1.2 -95.2q16.05 0.7 33.7 0.1q4.15 1.65 7.75 0.5q0.9 -1.4 1.25 -3q1.15 -4.95 -0.5 -9.75q-2.35 -2.05 -4.9 -3.85q-4.25 54.25 -7.95 108.8q-4 59.35 -1.85 118.55q1.5 42.25 42.3 47.95q30.55 -13.5 40.6 -45.2q18.15 -57.5 22.3 -117.2q3.85 -54.65 1.6 -109.55q-0.8 -1.95 -0.6 -3.7q-0.25 -7.2 -4 -12.7q-1.45 -0.2 -2 1.1q-3.15 7.35 -2.25 15.65q1.75 37.5 0.55 75q-1.95 60.35 -15.9 118.75q-6.75 28.1 -25.2 48.7q-10 11.2 -23.6 8.75q-29.65 -5.4 -29.8 -37q-0.25 -42.8 2 -86.15q3.05 -59.35 9 -118.4q1.55 -15.35 -3.05 -27.15q-3.45 5.65 -4 12.65q-0.4 0.2 -0.7 0.45q-2.5 2.2 -2.5 5.8q0 1.2 0.25 2.3q-3 10.8 -3.3 23.7q-1.35 59.25 -5.15 118.45q-3.8 59 -5.2 118.5q-0.15 7.5 -1.6 14.7q-2.95 14.5 5.85 21.8q5.55 1.95 11.6 0.8q32.4 -16.1 57.7 -42.35q7.1 -7.35 11.65 -16.25q27.6 -53.75 24.25 -114.2q-2.9 -53.25 -30.6 -98.45q-20.8 -34 -62.5 -34.2q9.5 1.7 17.55 6.8q31.4 19.75 42 56.4q16.9 58.5 2.4 117.05q-2.7 11 -7.85 20.95q-23.9 46.4 -72.3 69.1q-2.7 -0.35 -5.1 -1.5q-0.75 -0.35 -1.1 -1.5q0.55 -1.65 1.8 -3q-2.15 1.6 -3.75 3.35q0.4 -52.75 3.7 -105.05q1.45 -23.65 -0.35 -46.3<g id="1686" transform="matrix(1, 0, 0, 1, -75.2, 0)">
<path style="fill:#000000;fill-opacity:1" d="M341.3,133.5Q338.65 127.25 342.95 122.75L406.85 125.95L407.95 128.15Q410.7 134.85 406.65 140.1L347.65 136.8Q352.4 183.95 349.75 231.2L382.2 228.5L381.2 245L349.05 242.25Q348.35 326.55 335.45 409.2Q328.5 395.5 330.3 379.55L330.9 378.25L332.55 381.95Q345.5 259.4 343.1 135.95Q341.85 134.8 341.3 133.5M477.35,125.6L477.95 126.25Q479.6 131.05 478.45 136Q478.1 137.6 477.2 139Q473.6 140.15 469.45 138.5L468.45 137.7L467.95 137.25L467.7 137Q450.05 137.6 434 136.9Q436.75 184.25 432.8 232.1Q446.2 228.4 460.45 227.5Q467.2 234.4 462.05 243.15L461.45 243.75L431.6 244.95Q425.85 302.95 422.85 361.3Q421.75 383.05 421.85 404.7Q421.9 413.05 416.95 418.7Q414.75 418.8 413.7 416.95Q413.25 357.65 419.95 298.5Q426.55 239.95 427.65 180.75Q428.1 157.45 431.35 136Q429.8 132.4 430.5 128.45Q430.8 126.95 431.45 125.5L433.2 125.05Q452.15 120.15 472.45 121.75Q475 123.55 477.35 125.6M217.45,120.25Q222.05 132.05 220.5 147.4Q214.55 206.45 211.5 265.8Q209.25 309.15 209.5 351.95Q209.65 383.55 239.3 388.95Q252.9 391.4 262.9 380.2Q281.35 359.6 288.1 331.5Q302.05 273.1 304 212.75Q305.2 175.25 303.45 137.75L302.75 136.95L302.2 136.25Q301.3 127.95 304.45 120.6Q305 119.3 306.45 119.5Q310.2 125 310.45 132.2Q310.25 133.95 311.05 135.9L310.45 136.25Q312.7 191.15 308.85 245.8Q304.7 305.5 286.55 363Q276.5 394.7 245.95 408.2Q205.15 402.5 203.65 360.25Q201.5 301.05 205.5 241.7Q209.2 187.15 213.45 132.9Q214 125.9 217.45 120.25M96.95,110.5Q138.65 110.7 159.45 144.7Q187.15 189.9 190.05 243.15Q193.4 303.6 165.8 357.35Q161.25 366.25 154.15 373.6Q128.85 399.85 96.45 415.95Q90.4 417.1 84.85 415.15L84 416.45Q75.2 409.15 78.15 394.65Q79.6 387.45 79.75 379.95Q81.15 320.45 84.95 261.45Q88.75 202.25 90.1 143Q90.4 130.1 93.4 119.3Q93.15 118.2 93.15 117Q93.15 113.4 95.65 111.2Q95.95 110.95 96.35 110.75L96.45 110.5L96.5 110.7L96.95 110.5M97.8,123.55Q99.6 146.2 98.15 169.85L90.65 288.2Q87.35 340.5 86.95 393.25Q88.55 391.5 90.7 389.9L91.8 391.2Q90.55 392.55 90 394.2Q90.35 395.35 91.1 395.7Q93.5 396.85 96.2 397.2Q144.6 374.5 168.5 328.1Q173.65 318.15 176.35 307.15Q190.85 248.6 173.95 190.1Q163.35 153.45 131.95 133.7Q123.9 128.6 114.4 126.9L97.8 123.55" />
</g>
</svg>
