<?xml version="1.0" encoding="utf-8"?>
<svg version="1.1" id="Layer_1"
xmlns="http://www.w3.org/2000/svg"
xmlns:xlink="http://www.w3.org/1999/xlink"


xml:space="preserve">
q-0.5 27.1 -2.1 54.15q-0.35 -0.4 -0.8 -0.45q3.65 -59.5 1 -118.6q-2.75 19.65 -3.8 41.45q-1.9 39.7 -2.55 79.55q-0.15 1.55 0.25 3q-0.7 59.65 -7.25 118.25q-1.55 13.65 4.25 21.7q5.65 -45.35 6.25 -92.2q0.35 -26.2 1.8 -52.25q17.65 -2.65 34.75 -1q-5 58.85 -5.65 117.85q0.75 2.8 3.25 1.5q2.45 -15.05 3.6 -30.65q4.4 -59.05 6.45 -118.6q2.1 -59.9 5.95 -117.7q-8.45 27.9 -9.05 59.25q-8.1 59.1 -12.75 118.65q-4.6 59.05 -12.8 117.45q-1.9 13.45 3.95 22.4q1.85 2.15 4.65 1.9q42.65 -4.05 85.85 -0.65q1.9 -2.2 2 -5.25q-0.15 -2.3 -1.05 -4.45q-0.35 -0.35 -0.75 -0.35q-4.9 0.2 -10 1.75q-9.35 2.6 -19 2.2q4.1 -30.75 6.25 -62.55q2.5 -36.75 6.6 -73.25q6.7 -59.1 9.55 -117.9q-1.95 3.35 -2.65 8.2q6.05 30.2 9.75 60.8q2.05 16.9 4.5 33.75q-18.85 4.05 -37.95 6.7q15.9 -57.75 23.2 -115.15q-9.05 30.25 -17.3 62.85q-14.65 57.55 -28.8 114.85q-3.65 14.6 -8.45 28.65q-7.6 22.3 -6.95 44.1q1.25 0 1.4 -0.4q9 -23.8 14.95 -49q9.05 -38.45 19.45 -76.7q21.5 0.95 41.75 -4.55q5.55 36.4 12.95 72.5q3.05 14.7 3.85 29.5q0.95 16.9 8.65 28.15q3.8 -10.6 1.05 -22.1q-12.95 -54.45 -20.2 -109.95q2 -4.9 -1.05 -9q-7.3 -56.65 -19.05 -112.25q-3.85 8.5 -1.75 19.15q-3.5 14.9 -3.7 31.4q-0.7 58.9 -5 117.6q-4.4 59.6 -9.25 118.6q1.05 2.15 3.5 1.5q2.25 1.2 4.85 1.6q4.9 -1.35 10 -1.45q37.2 -1.1 64.65 -23.9q10.2 -8.5 15.75 -20.6q16.9 -37.05 17.25 -78.75q0.45 -45.75 -17.1 -86.65q-21.05 -49.1 -73.6 -54.85q-3.2 1.7 -8.5 1.5q-0.2 0 -0.45 0.25q29.7 21.45 40.3 56.25q12.95 42.4 9.9 87.6q-2 30.55 -17.35 56.3q-7.45 12.5 -19.9 19.35q-30.7 16.95 -66.4 18.7q-2 -0.9 -3.95 -1.15q5.5 -37.2 8.2 -75.3q4.25 -58.95 6.4 -118.45q1 -26.85 -1.45 -52.55q22.85 -0.85 44.25 9.25<g id="1716" transform="matrix(1, 0, 0, 1, -73, 0)">
<path style="fill:#000000;fill-opacity:1" d="M376.2,116.5Q372.35 174.3 370.25 234.2Q368.2 293.75 363.8 352.8Q362.65 368.4 360.2 383.45Q357.7 384.75 356.95 381.95Q357.6 322.95 362.6 264.1L364.5 238.75Q347.4 237.1 329.75 239.75Q328.3 265.8 327.95 292Q327.35 338.85 321.7 384.2Q315.9 376.15 317.45 362.5Q324 303.9 324.7 244.25L324.8 239.2L324.7 239Q324.3 237.55 324.45 236L324.85 234.5Q325.5 194.65 327.4 154.95Q328.45 133.15 331.2 113.5Q333.85 172.6 330.2 232.1L330.2 232.5L349.95 227L364.15 229.3Q364.6 229.35 364.95 229.75L365.05 229.9Q366.65 202.85 367.15 175.75Q367.75 144.4 376.2 116.5M414.2,110.5Q411.35 169.3 404.65 228.4Q400.55 264.9 398.05 301.65Q395.9 333.45 391.8 364.2L391.95 363.95Q401.6 364.35 410.95 361.75L412.95 361.2Q418.05 359.65 422.95 359.45L481.45 361.85Q481.85 361.85 482.2 362.2L482.65 363Q483.55 365.15 483.7 367.45L483.7 368.2L483.7 368.95Q483.6 372 481.7 374.2Q438.5 370.8 395.85 374.85Q393.05 375.1 391.2 372.95L391 372.2L390.85 371.2L389.95 377.2Q384.1 368.25 386 354.8Q394.2 296.4 398.8 237.35Q403.45 177.8 411.55 118.7Q412.25 113.85 414.2 110.5M257.2,116.25Q268.95 171.85 276.25 228.5L279.45 227.75Q282.5 231.85 280.5 236.75L280.2 237.5L277.55 238.4Q284.8 293.9 297.75 348.35Q300.5 359.85 296.7 370.45Q289 359.2 288.05 342.3Q287.25 327.5 284.2 312.8Q276.8 276.7 271.25 240.3Q251 245.8 229.5 244.85Q219.1 283.1 210.05 321.55Q204.1 346.75 195.1 370.55Q194.95 370.95 193.7 370.95Q193.05 349.15 200.65 326.85Q205.45 312.8 209.1 298.2Q223.25 240.9 237.9 183.35Q246.15 150.75 255.2 120.5Q247.9 177.9 232 235.65L231.75 236.65Q250.85 234 269.7 229.95Q267.25 213.1 265.2 196.2Q261.5 165.6 255.45 135.4Q253.35 124.75 257.2 116.25M92.45,100.25Q97.75 100.45 100.95 98.75Q153.5 104.5 174.55 153.6Q192.1 194.5 191.65 240.25Q191.3 281.95 174.4 319Q168.85 331.1 158.65 339.6Q131.2 362.4 94 363.5Q88.9 363.6 84 364.95L82.45 364.75Q79.85 364.35 77.6 363.15L76.5 369.7Q74.05 370.35 73 368.2Q77.85 309.2 82.25 249.6Q86.55 190.9 87.25 132Q87.45 115.5 90.95 100.6L91.5 100.5L91.6 101.3L92 100.5Q92.25 100.25 92.45 100.25M92.2,107.25Q94.65 132.95 93.65 159.8Q91.5 219.3 87.25 278.25Q84.55 316.35 79.05 353.55Q81 353.8 83 354.7Q118.7 352.95 149.4 336Q161.85 329.15 169.3 316.65Q184.65 290.9 186.65 260.35Q189.7 215.15 176.75 172.75Q166.15 137.95 136.45 116.5Q115.05 106.4 92.2 107.25" />
</g>
</svg>
