<?xml version="1.0" encoding="utf-8"?>
<svg version="1.1" id="Layer_1"
xmlns="http://www.w3.org/2000/svg"
xmlns:xlink="http://www.w3.org/1999/xlink"


xml:space="preserve">
q2.15 4.45 2.15 7.2q0 1.85 -0.55 3.4q-0.75 2 -2.2 2.85q-2.85 -4.4 -10.45 -11.55q-10.3 -9.7 -16.55 -9.7q-24.5 0 -33.6 14.5q-6.5 10.45 -6.5 33.35q0 14.8 11.95 48.15q7.15 20 26.25 70.9q17.25 48.95 26.2 90.45q11.95 55.15 11.95 107q-2.85 32.1 -8.1 58.9q-16.6 85 -50.15 85q-18.5 0 -30.2 -21.25q-4.35 -7.95 -6.9 -17.3q-2.15 -8.05 -2.15 -13.45q0 -4.85 1 -6.6q1.9 -3.45 8 -2.15q-1.15 1.4 -1.15 2.3q0 1.2 1.65 7.1q2.15 7.5 4.9 13.95q8.4 19.7 18.45 19.7q13.4 0 19.4 -1.6q5.9 -1.6 8.85 -5.95q1.75 -2.55 5.15 -11.75q4.05 -10.85 8.45 -19.2q4 -7.7 7.2 -19.2q2.7 -10 4.05 -19.8q2.9 -18 2.9 -37.3q0 -46.9 -11.8 -100.45q-8.95 -40.45 -26 -89.85q-18.9 -51.75 -26 -71.9q-11.8 -33.55 -11.8 -46.45q0 -22.4 3.8 -38.3q6.45 -27.1 22.7 -30.8q24.55 -2.45 38.4 10.35q4.8 4.5 7.55 10.2q9.6 -4.1 9.6 -10.7q0 -8.5 -11.75 -14.75q6 4.2 9.3 13.75q3.5 10.05 3.5 24q0 2.85 -1.35 8.1q-1.85 7.5 -5.35 13.65q-10.45 18.5 -31.05 18.5q-6.3 0 -8.7 -3.7q-1.3 -1.95 -1.3 -4.55q0 -2.1 0.25 -2.95q0.55 -2.05 2.35 -2.05q1.25 0 2.6 0.75q-0.45 -19.4 0.25 -40.6q-3.25 -0.65 -4.4 -1.9q-0.75 -0.8 -0.6 -1.85q0 -1.3 5.15 -2.5q1.95 -26.3 6.35 -40.1q0 -2.45 0.25 -2.6q26.25 6.45 26.25 27.1q0 6.4 -4.25 13.15q1.05 -4.5 1.05 -7.1q0 -3.1 -1.85 -9.25q-1.85 -6.2 -3.4 -8.35q-2.5 -3.45 -8.8 -9.25q-6.05 5 -15.45 5q-2.05 36.9 -3.35 54.15q19.5 0 28.8 -16.45q3.05 -5.45 4.65 -12.1q-4 -4.7 -6.9 -4.7q-14.95 0 -21.25 15.5q-3.5 8.6 -3.5 18q0 4.6 2.5 9.75q3.65 7.5 10.5 7.5q9.6 0 16.75 -2.6q-2.25 -1.5 -3.5 -2.75q1.3 -0.65 1.9 -1.75q0.65 -1.15 1.25 -1.5q2.35 -1.5 15.85 -1.5q1.05 1.05 1.6 4q0.4 2.25 0.4 4.6q0 6.45 -0.2 7.85q-0.5 3.1 -3.05 8.3q-1.45 -0.9 -1.7 -3.75q-5.55 4.2 -13.55 4.2q-16.75 0 -21.25 -12.25q-1.45 -3.9 -1.5 -8.85q0 -12.55 6.35 -22.9q5.5 -9.1 13.9 -13.7q8.05 -4.45 13.9 -2.35q6.35 2.2 6.35 11.1q0 1.65 -0.5 2.65q0 3.2 -2.6 15.1q10.9 -47.1 19.75 -75.6q1.35 1.35 1.75 3.75q1.3 16.2 8.35 58.75q0 3.4 -2 5.4q-0.95 -1.5 -4.75 -2.65q0 -0.4 0.65 -0.6q-4.65 -18.3 -8.2 -47.65q-6.6 30.55 -17.1 75.35q-3.65 -15.55 -2.85 -38.25q1.6 -25.5 1.6 -38.25q-0.1 -0.65 0.2 -1.5q-0.65 -3.5 -0.85 -7.85q-0.15 -2.65 -0.15 -7.9q-11.5 45.55 -18.65 67.85q-12.35 38.6 -28.1 67.9q-1 -0.6 -1.35 -1.2q-0.4 -0.8 -0.4 -2.55q0 -1.75 11.85 -32.45q13.8 -35.75 18.15 -49.3q2.5 -7.85 5.55 -20.25q6.6 -25.05 15.25 -40.75q2.25 1.15 2.25 4.85q13.85 4.5 19.2 13.65q3.55 6.15 3.55 15.45q0 8.5 -5.25 16.9q-3 4.8 -7.15 7.85q9.85 12.3 22.55 30.8q16.85 24.6 16.85 26.95q0 3.15 -1.75 4.9q-5.8 -5.65 -24.75 -31.4q-13.65 -18.55 -18.7 -28q-5.55 2.15 -12.55 2.15q-5 0 -7.7 -0.9q-0.4 16.45 -4.05 27.95q-2 -1.65 -2 -5.75q0 -10.6 3.8 -56.85q-0.6 -0.85 -0.5 -1.95q0 -3.45 0.5 -3.75q3.7 -44.1 4.85 -51.4q0.8 1.6 1.2 4.55q7.6 0 13.6 -2q0.15 -1.9 0.9 -3q5 -2.2 8.75 -6q3.15 -3.15 4.9 -6.95q1.35 -2.95 1.35 -4.7q0 -4.75 -5.2 -11.6q-6.3 -8.25 -14.05 -8.25q-0.15 0.8 -1.5 1.45q2.4 0.35 20.6 6.9q3.6 2.45 7.85 7.9q3.55 4.55 5.9 8.85q3.2 5.9 5.55 16.9q2.2 10.2 2.2 17.6q0 3.3 -2.6 16.3q-2.5 12.75 -3.4 14.45q-3.15 6.35 -15.95 16.05q-12.7 9.7 -17.8 9.7q-1.4 -1.6 -2 -3.3q-0.5 -1.45 -0.5 -3.45q0 -1.8 0.4 -3q0.15 -12.8 1.85 -40.2q2.4 -38.45 6.05 -57q-0.7 -0.5 -0.7 -0.9q0 -2.95 0.75 -3.9q0.9 -1.1 3.4 -0.75q0 23.75 -1.45 48.25q-1.4 23.4 -3.65 39.5q26.85 -2.7 38 -19.85q7.1 -10.9 7.1 -26.25q0 -30.1 -21.1 -43.05q-5.5 -3.35 -14.55 -6.45q0 -5.8 10.15 -29.9q9.5 -22.7 12.35 -26.35q5.05 9.4 12.75 26q4.85 -18 7.65 -26.1q5.35 -15.65 11.85 -25.4q1.35 1.35 2.1 3q0.5 1.1 0.5 1.75q0 2.25 -8.65 24.85q-9.4 24.6 -11.45 34.4q-6.6 -10.45 -13.8 -27.25q-7.7 -19 -11.7 -28q-5.25 9.85 -11 23.9q-2.9 7.15 -9.5 24.6q-1.25 -0.4 -1.7 -1q-0.55 -0.75 -0.55 -2.5q0.8 1.35 0.8 2.35q0 2.75 -0.6 10.15q9.75 78.55 14.8 132.6q2.75 29.8 7.6 66.4q3.35 25.3 9.4 66.35q3.6 24.2 13.45 66.4q11.3 48.45 14.55 66.1q0.75 -3.25 0.75 -10.75q0 1.95 -0.55 4.05q-0.6 2.25 -1.7 3.85q-5 -5.65 -6.55 -16.2q-0.95 -12.15 -1.7 -17.55q-2.8 -19.45 -7.75 -33.75q-5.15 -14.9 -8.75 -33.75q-2 -10.1 -5.5 -33.75q-7.25 -44.9 -10.7 -67.85q-3.85 -25.85 -6.1 -46.6q-4.65 0 -6.85 -1.25q-11.25 59.5 -20.4 101.2q-16.4 74.65 -35.25 136.05q-2.4 -0.95 -3.05 -3.7q-0.2 -0.95 -0.2 -4.2q0 -2.5 7.05 -29.85q26.4 -106.2 36.7 -175.55q6.95 -47.1 17.65 -135.35q9.75 -80.85 15.35 -122q0 -3.5 0.45 -6.85q0.45 -3.4 1.2 -5.05q-2.3 -6.85 -6.75 -12.25q-11.25 -13.65 -32.1 -14.05q0 7.7 -1.85 28.1q-1.9 20.4 -1.9 29.25q13.6 -2.85 17.85 -4.25q26 -8.45 26 -31.75q0 -4.4 -1.85 -9.8q0 14.9 -7.85 26.9q-6.55 9.95 -17.35 14.45q18.65 38.85 18.65 43.8q0 3.4 -2 5.4q-9.15 -15.15 -26.3 -53.5q-11.15 -24.95 -14.75 -34.65q-8.4 2.45 -19 2.05q-5.1 43.1 -11.65 58.55q-1.35 -1.15 -1.8 -2.05q-0.45 -1 -0.45 -2.85q0 -6.15 3.8 -21.85q3.95 -16.3 4.2 -21.25q0.65 -14.05 1.15 -20.65q0.65 -9.15 1.65 -16.55q-0.5 -3 -0.5 -4.9q0 -0.95 1.8 -1.8q0.9 -6.6 1.8 -19.4q1 -13.85 2.4 -21.4q0.4 -4.15 -0.15 -11.25q-0.3 -7 1.05 -11.65q-0.4 -0.7 -0.4 -2.6q0 -1.8 0.45 -2.55q0.45 -0.6 1.8 -1.2q27.35 -0.3 38.65 17.85q6.75 10.9 6.75 26.3q-3 29.05 -9.35 83.8q-13.05 112.5 -21.3 157.55q3.1 -1.9 8.8 -3.65q8.9 -2.65 32.2 -6.75q-2.75 -36.4 -16.7 -155.05q-7.5 -63.45 -10.65 -92.05q40.9 4.3 64.35 61.65q8.5 20.75 14.75 49.1q8.2 29.9 11.55 72.25q2.45 31.25 2.45 74q0 41.9 -2.05 61.8q-2.85 27.7 -13.2 66.45q-7.05 26.3 -8.95 31.95q-6.3 18.65 -15.55 31.8q-2.2 3.15 -10.35 16.05q-6.55 10.45 -11.15 16.2q-1.95 2.45 -6.35 9.45q-3.3 5.2 -6.4 7.95q-9 7.75 -35.75 11.85q-4 -3.15 -4 -8.65q0 -2.65 1.75 -5.45q6.5 -82.8 5.25 -114.1q0 -15 0.15 -22.5q0.25 -12.5 1.1 -22.5q0.5 -3 1 -4.5q0.2 -7.8 -0.3 -22.95q-4.3 0.1 -8.7 0.95q-1.75 -2.1 -1.75 -5.65q0 -4.2 2.25 -6.1q5.55 -0.35 10.85 0.15q-0.75 95.25 -1.75 143.25q1 47.65 -3.15 105.75q-2.5 34.65 -8.2 88.3q35.7 -4.85 64 -53.35q10.5 -17.95 18.4 -39.3q6.05 -16.3 7.7 -25.65q3.6 -24.95 3.6 -56.05q0 -38.95 -4.55 -82.6q-5.55 -53.5 -16.35 -94.6q-13.1 -49.75 -32.35 -75q-17.7 -23.15 -39.9 -24.55q0.95 14.85 1.25 33.35q0 4 -2.3 18.55q2.6 -22.45 5.65 -23.9q0.75 1.15 1 2.05q0 16.6 -1.45 30.1q-1.75 16.6 -5.8 30.3q-0.5 -4.5 -0.5 -6.75q0 -10.45 1.45 -25.5q-1.25 -2.8 -1.25 -6.75q3.85 -44.4 10 -57.25q1.75 2.65 1.75 6q-2.45 15.85 -3.65 21.35q9.25 -1.55 17.5 0.3q11.75 2.65 19 2.95q1.75 2.1 1.75 5.6q-0.35 1.75 -1.95 1.75q-2.55 0 -13.15 -2.35q-10.1 0 -12.5 0.9q-1.2 1.15 -3.5 1.6q-1.25 -2.8 -1.25 -7.15q0 -7.6 3.45 -30.45q3.65 -23.95 5.55 -25.15q1.5 3.4 1.5 7.5<g id="1709" transform="matrix(1, 0, 0, 1, 0.5, 2.7)">
<path style="fill:#000000;fill-opacity:1" d="M539.95,20.3Q542.1 24.75 542.1 27.5Q542.1 29.35 541.55 30.9Q540.8 32.9 539.35 33.75Q536.5 29.35 528.9 22.2Q518.6 12.5 512.35 12.5Q487.85 12.5 478.75 27Q472.25 37.45 472.25 60.35Q472.25 75.15 484.2 108.5Q491.35 128.5 510.45 179.4Q527.7 228.35 536.65 269.85Q548.6 325 548.6 376.85L546.75 404.6Q543.9 436.7 538.65 463.5Q522.05 548.5 488.5 548.5Q470 548.5 458.3 527.25Q453.95 519.3 451.4 509.95Q449.25 501.9 449.25 496.5Q449.25 491.65 450.25 489.9Q452.15 486.45 458.25 487.75L456.4 489.95Q455.25 491.35 455.25 492.25Q455.25 493.45 456.9 499.35Q459.05 506.85 461.8 513.3Q470.2 533 480.25 533Q493.65 533 499.65 531.4Q505.55 529.8 508.5 525.45Q510.25 522.9 513.65 513.7Q517.7 502.85 522.1 494.5Q526.1 486.8 529.3 475.3Q532 465.3 533.35 455.5L540.2 414.8Q543.1 396.8 543.1 377.5Q543.1 330.6 531.3 277.05Q522.35 236.6 505.3 187.2Q486.4 135.45 479.3 115.3Q467.5 81.75 467.5 68.85Q467.5 46.45 471.3 30.55Q477.75 3.45 494 -0.25Q518.55 -2.7 532.4 10.1Q537.2 14.6 539.95 20.3M408.9,37.55L409 37L410.9 37.2Q420.5 33.1 420.5 26.5Q420.5 18 408.75 11.75L400.65 7.3L398.35 5.3L398.5 7.85L397 41L403 39.7L408.85 38L408.9 37.55M418.95,40.25Q424.95 44.45 428.25 54Q431.75 64.05 431.75 78Q431.75 80.85 430.4 86.1Q428.55 93.6 425.05 99.75Q414.6 118.25 394 118.25Q387.7 118.25 385.3 114.55Q384 112.6 384 110Q384 107.9 384.25 107.05Q384.8 105 386.6 105Q387.85 105 389.2 105.75Q388.75 86.35 389.45 65.15L390.15 49.6Q386.9 48.95 385.75 47.7Q385 46.9 385.15 45.85L385.5 44.85Q385.5 43.55 390.65 42.35Q392.6 16.05 397 2.25L397 2.1Q397 -0.35 397.25 -0.5Q423.5 5.95 423.5 26.6Q423.5 33 419.25 39.75L418.95 40.25M427.45,79.2Q428.5 74.7 428.5 72.1Q428.5 69 426.65 62.85Q424.8 56.65 423.25 54.5Q420.75 51.05 414.45 45.25Q408.4 50.25 399 50.25L396.5 50.25L396.3 53.5Q394.25 90.4 392.95 107.65L394 107.75Q413.5 107.75 422.8 91.3Q425.85 85.85 427.45 79.2M347.25,119.75L343.15 114.45Q339.15 109.75 336.25 109.75Q321.3 109.75 315 125.25Q311.5 133.85 311.5 143.25Q311.5 147.85 314 153Q317.65 160.5 324.5 160.5Q334.1 160.5 341.25 157.9L346.7 155.5L347.5 150.75L337.7 150.4L333 150.75Q330.75 149.25 329.5 148Q330.8 147.35 331.4 146.25Q332.05 145.1 332.65 144.75Q335 143.25 348.5 143.25Q349.55 144.3 350.1 147.25Q350.5 149.5 350.5 151.85Q350.5 158.3 350.3 159.7Q349.8 162.8 347.25 168Q345.8 167.1 345.55 164.25L344.55 165.05Q339 169.25 331 169.25Q314.25 169.25 309.75 157Q308.3 153.1 308.25 148.15L308.5 143.1Q308.5 130.55 314.85 120.2Q320.35 111.1 328.75 106.5Q336.8 102.05 342.65 104.15Q349 106.35 349 115.25Q349 116.9 348.5 117.9L347.25 119.75M362.75,169.35Q362.75 172.55 360.15 184.45L356.75 199L356.75 314.25L374.5 236.6Q385.4 189.5 394.25 161Q395.6 162.35 396 164.75L396 228.5Q397.3 244.7 404.35 287.25L411 328.6Q411 332 409 334L407.25 330.9Q406.3 329.4 402.5 328.25Q402.5 327.85 403.15 327.65L406 327Q401.35 308.7 397.8 279.35L392 231.75L392 183L391.75 182.25Q385.15 212.8 374.65 257.6L356.75 333.5L355.5 333.75Q351.85 318.2 352.65 295.5Q354.25 270 354.25 257.25L354.05 255Q353.95 254.35 354.25 253.5L354.25 212.25Q353.6 208.75 353.4 204.4Q353.25 201.75 353.25 196.5L353 196Q341.5 241.55 334.35 263.85Q322 302.45 306.25 331.75Q305.25 331.15 304.9 330.55Q304.5 329.75 304.5 328Q304.5 326.25 316.35 295.55Q330.15 259.8 334.5 246.25Q337 238.4 340.05 226L345.25 205.25Q351.85 180.2 360.5 164.5Q362.75 165.65 362.75 169.35M333.45,332.3L336 329.75L345 329.5Q358.85 334 364.2 343.15Q367.75 349.3 367.75 358.6Q367.75 367.1 362.5 375.5Q359.5 380.3 355.35 383.35Q365.2 395.65 377.9 414.15Q394.75 438.75 394.75 441.1Q394.75 444.25 393 446Q387.2 440.35 368.25 414.6Q354.6 396.05 349.55 386.6Q344 388.75 337 388.75Q332 388.75 329.3 387.85L328.75 393.75L329.05 421.05Q328.65 437.5 325 449Q323 447.35 323 443.25Q323 432.65 326.8 386.4L326.5 386Q325.9 385.15 326 384.05L326.25 383Q326.25 379.55 326.75 379.25L327.4 379.15Q331.1 335.05 332.25 327.75Q333.05 329.35 333.45 332.3M333.7,340.5L331.25 367.75L330.15 379.05L333 379Q340.6 379 346.6 377Q346.75 375.1 347.5 374L349.25 376Q354.25 373.8 358 370Q361.15 366.85 362.9 363.05Q364.25 360.1 364.25 358.35Q364.25 353.6 359.05 346.75Q352.75 338.5 345 338.5L335.2 339.05Q335.05 339.85 333.7 340.5M418.65,381.6Q421.05 381.95 439.25 388.5Q442.85 390.95 447.1 396.4Q450.65 400.95 453 405.25Q456.2 411.15 458.55 422.15Q460.75 432.35 460.75 439.75Q460.75 443.05 458.15 456.05Q455.65 468.8 454.75 470.5Q451.6 476.85 438.8 486.55Q426.1 496.25 421 496.25L408.5 496Q407.1 494.4 406.5 492.7Q406 491.25 406 489.25Q406 487.45 406.4 486.25L407.3 484.35Q407.45 471.55 409.15 444.15Q411.55 405.7 415.2 387.15Q414.5 386.65 414.5 386.25Q414.5 383.3 415.25 382.35Q416.15 381.25 418.65 381.6M418.4,388.75L416.75 397.6Q416.75 421.35 415.3 445.85Q413.9 469.25 411.65 485.35Q438.5 482.65 449.65 465.5Q456.75 454.6 456.75 439.25Q456.75 409.15 435.65 396.2Q430.15 392.85 421.1 389.75L418.4 388.75M439.75,384.25Q439.75 378.45 449.9 354.35Q459.4 331.65 462.25 328Q467.3 337.4 475 354L487.5 380.75Q492.35 362.75 495.15 354.65Q500.5 339 507 329.25Q508.35 330.6 509.1 332.25Q509.6 333.35 509.6 334Q509.6 336.25 500.95 358.85Q491.55 383.45 489.5 393.25L488.95 393.7L488 394.5Q481.4 384.05 474.2 367.25Q466.5 348.25 462.5 339.25Q457.25 349.1 451.5 363.15Q448.6 370.3 442 387.75Q440.75 387.35 440.3 386.75Q439.75 386 439.75 384.25M246.75,2.4L247.25 1.75L247.4 2.85L248.95 4.75Q249.75 6.1 249.75 7.1Q249.75 9.85 249.15 17.25L263.95 134.65Q273.7 213.2 278.75 267.25Q281.5 297.05 286.35 333.65Q289.7 358.95 295.75 400Q299.35 424.2 309.2 466.4Q320.5 514.85 323.75 532.5Q324.5 529.25 324.5 521.75L325.25 521.75L325.75 548.35Q325.75 550.3 325.2 552.4Q324.6 554.65 323.5 556.25Q318.5 550.6 316.95 540.05Q316 527.9 315.25 522.5Q312.45 503.05 307.5 488.75Q302.35 473.85 298.75 455Q296.75 444.9 293.25 421.25Q286 376.35 282.55 353.4Q278.7 327.55 276.45 306.8L252 307.25L232.25 311.75L217 315.25Q212.35 315.25 210.15 314Q198.9 373.5 189.75 415.2Q173.35 489.85 154.5 551.25Q152.1 550.3 151.45 547.55Q151.25 546.6 151.25 543.35Q151.25 540.85 158.3 513.5L175.05 447.8Q201.45 341.6 211.75 272.25Q218.7 225.15 229.4 136.9Q239.15 56.05 244.75 14.9Q244.75 11.4 245.2 8.05Q245.65 4.65 246.4 3L246.5 2.25L246.75 2.4M185.4,85.3Q183.1 78.45 178.65 73.05Q167.4 59.4 146.55 59L146.75 65.75Q146.75 73.45 144.9 93.85Q143 114.25 143 123.1L142.7 131.25L143.4 131.1Q157 128.25 161.25 126.85Q187.25 118.4 187.25 95.1Q187.25 90.7 185.4 85.3M190.75,95.1Q190.75 110 182.9 122Q176.35 131.95 165.55 136.45L185.35 177.05Q204 215.9 204 220.85Q204 224.25 202 226.25Q192.85 211.1 175.7 172.75Q164.55 147.8 160.95 138.1Q152.55 140.55 141.95 140.15L139.15 166.45Q134.05 209.55 127.5 225Q126.15 223.85 125.7 222.95Q125.25 221.95 125.25 220.1Q125.25 213.95 129.05 198.25Q133 181.95 133.25 177Q133.9 162.95 134.4 156.35Q135.05 147.2 136.05 139.8L135.75 139.75Q135.25 136.75 135.25 134.85Q135.25 133.9 137.05 133.05Q137.95 126.45 138.85 113.65Q139.85 99.8 141.25 92.25Q141.65 88.1 141.1 81L140.25 69.2Q139.95 62.2 141.3 57.55L141.15 57.35Q140.75 56.65 140.75 54.75Q140.75 52.95 141.2 52.2Q141.65 51.6 143 51L145.05 50.95L145.25 50.75L145.35 50.95Q172.7 50.65 184 68.8Q190.75 79.7 190.75 95.1M247.15,38.4Q244.15 67.45 237.8 122.2Q224.75 234.7 216.5 279.75L212 304.15Q215.1 302.25 220.8 300.5Q229.7 297.85 253 293.75L253 293.25L275.15 293.45L274.5 285.5Q271.75 249.1 257.8 130.45Q250.3 67 247.15 38.4M21.25,3L21.3 3.2Q62.2 7.5 85.65 64.85Q94.15 85.6 100.4 113.95L106.75 145Q114.95 174.9 118.3 217.25Q120.75 248.5 120.75 291.25Q120.75 333.15 118.7 353.05Q115.85 380.75 105.5 419.5Q98.45 445.8 96.55 451.45Q90.25 470.1 81 483.25Q78.8 486.4 70.65 499.3Q64.1 509.75 59.5 515.5Q57.55 517.95 53.15 524.95Q49.85 530.15 46.75 532.9Q37.75 540.65 11 544.75L8.65 544.7L8.5 546L6.95 544.65L3.5 544.5Q-0.5 541.35 -0.5 535.85Q-0.5 533.2 1.25 530.4L5 524.75L5.15 525.05L11 453.85Q17.5 371.05 16.25 339.75L16.25 230.25Q16.25 215.25 16.4 207.75Q16.65 195.25 17.5 185.25L17.5 146.25Q18 143.25 18.5 141.75L18.5 36.75Q18.7 28.95 18.2 13.8Q13.9 13.9 9.5 14.75Q7.75 12.65 7.75 9.1Q7.75 4.9 10 3Q15.55 2.65 20.85 3.15L21.25 3M23.35,47.2L23.5 92.25Q22.75 187.5 21.75 235.5L21.75 334.5Q22.75 382.15 18.6 440.25Q16.1 474.9 10.4 528.55Q46.1 523.7 74.4 475.2Q84.9 457.25 92.8 435.9Q98.85 419.6 100.5 410.25L111.65 346.65Q115.25 321.7 115.25 290.6Q115.25 251.65 110.7 208Q105.15 154.5 94.35 113.4Q81.25 63.65 62 38.4Q44.3 15.25 22.1 13.85Q23.05 28.7 23.35 47.2M346,494.75Q346 498.75 343.7 513.3L358 514L364.6 514.4Q367.2 491.95 370.25 490.5Q371 491.65 371.25 492.55L371.5 495.35Q371.5 511.95 370.05 525.45Q368.3 542.05 364.25 555.75L362.75 555.75Q362.25 551.25 362.25 549Q362.25 538.55 363.7 523.5L357.5 523.5L357 523L342.15 522.55L336.75 552.5L335.5 552.75Q334.25 549.95 334.25 546Q338.1 501.6 344.25 488.75Q346 491.4 346 494.75M392.4,514.65Q389.95 530.5 388.75 536L388.75 541.75Q398 540.2 406.25 542.05Q418 544.7 425.25 545Q427 547.1 427 550.6L426.95 554.25Q426.6 556 425 556Q422.45 556 411.85 553.65L401.5 551.25Q391.4 551.25 389 552.15Q387.8 553.3 385.5 553.75Q384.25 550.95 384.25 546.6Q384.25 539 387.7 516.15Q391.35 492.2 393.25 491Q394.75 494.4 394.75 498.5L392.4 514.65" />
</g>
</svg>
