<?xml version="1.0" encoding="utf-8"?>
<svg version="1.1" id="Layer_1"
xmlns="http://www.w3.org/2000/svg"
xmlns:xlink="http://www.w3.org/1999/xlink"


xml:space="preserve">
q8.35 20.65 4.5 42.65q-4 23 -25.2 31.15q-6.3 2.35 -13 2.4q3.5 -46.05 1.4 -92.2q-9.2 -3.9 -19 -5.05q-3.75 16.1 -3.95 34.35q-0.25 21.45 -2.75 42.6q-2.45 20.6 4.45 39.8q14.5 1.05 26.35 -6.6q4.25 -2.8 7.35 -7.15q10.95 -15.3 13.45 -33.85q3.25 -24.2 -9.2 -44.6q-6.3 -10.4 -17.35 -15.15q-9.3 5 -12.05 15.35q-6.45 23.95 -10.65 48.65q-5.05 29.8 9.2 53.5q10.95 4.9 22.3 -0.1q17.7 -7.75 9.2 -19.9q-12.65 13.5 -29.6 8.45q-1.65 -2.5 -2.5 -5.25q-5.6 -17.3 -3.05 -36.05q15.4 -2.35 30.75 -2.5q2.6 -5.15 -0.6 -9.65q-15 -0.85 -29.2 3.4q3.25 -16.95 9.65 -33q8.55 -21.4 28.55 -4.9q3.4 -5.3 -0.65 -10.35q-2 -2.5 -4.35 -4.65q-4.05 13.65 -17.3 16.25q0.7 -12.45 0.4 -24.8q7.95 0.2 14.65 4.3q0.4 1.6 1.4 2.85q29 0.5 57.9 -1.05q-2.2 8.35 -2.25 18.3q-0.25 59.95 3.2 119.25q0.9 15.05 0.95 30q0.25 59.25 -2.5 118.4q-0.7 14.9 -1.95 29.9q-1.4 16.6 4.15 29.9q5.95 -58.6 6.8 -118.45q0.45 -29.95 -0.8 -59.9q-2.5 -59.1 -1.85 -118.55q0.25 -24.9 -1.45 -48.6q4.85 -8.7 -2.15 -13.65q-1.9 5.75 0.4 11.25q-25.65 35.7 -8.5 75.7q7.35 1.25 12.7 -3.85q4 -18.9 0.65 -37.85q0.6 5.05 -2.25 2.75q-3 7.35 -10.6 6.75q-10.85 -31.85 10.5 -54.2q3.2 -9.85 -7.05 -11.8q-4.25 18.6 3.35 32.9q3.2 -22.15 3.35 -44.25q0.1 -18.75 -1.5 -37.7q-4.75 10.15 -4.1 21.5q0.85 15.15 -2.5 29.95q-15.45 -4.2 -31 -0.5q-2.65 3.3 -0.8 7.35q-4.65 63.95 -0.45 127.95q8.6 -39.25 4.5 -80.25q13.1 5.45 26.25 0q2.85 -4.9 -0.1 -9.25q-13.1 -0.15 -26.3 1.95q16.35 3.85 32.9 1.7q-3.9 31.85 -2.1 64q3.55 0.5 7 -0.65q3.55 -1.35 6.45 -3.8q18.2 -22.3 -3.6 -35.85q-4.9 -3 -9.6 -2.65q-6.65 14.8 -4.85 30.95q1.35 25.05 9 49q-0.05 -36.5 -7.3 -72.4q-0.6 -23.95 -8.3 -46.15q-13.7 22.95 5.75 37.15q10.95 7.95 9.25 21.35q-4.85 2.65 -10.7 2.8q-1.3 -2.4 -0.6 -5.25q0.7 -2.65 -0.1 -5.25q-0.7 -2.3 -2.55 -3.75q-9.3 21.75 12.65 21.65q16.65 -0.05 11.75 -19.75q-4 -16 -19.15 -23.15q5.8 3.5 8.75 9.4q3.6 -11.15 -4.55 -19.05q-4.05 -3.95 -9.3 -4.95q-7.35 28.75 -13.55 60.6q-11.4 58.1 -17 117.15q-5.6 58.9 -12.8 117.6q-3.6 29.6 -7.85 59.1q-8.55 59.35 -26.05 116.5q-1.2 -0.05 -1.05 1.35q-6.25 14.05 0.5 24.25q16.6 -41.75 25.9 -86.75q11.95 -57.95 17.7 -117.1q31.35 -6.25 62.2 -4.6q5.25 58.6 12.75 116.85q3.75 29.1 4.4 58.5q0.3 13.85 8.5 20.75q2.15 -10.7 0.7 -21.8q-7.6 -58.75 -13.8 -117.65q-6.25 -58.85 -12.85 -117.7q-6.55 -58.7 -14.15 -117.1q-7.25 -55.8 -17.3 -110.65q9.95 58.4 16.95 117.35q4.45 37.3 8.2 74.7q-24.05 0.1 -45.45 8.5q5.65 -59 19.7 -116.5q2.35 -9.5 3.6 -18.95q0.85 11.6 2.9 23.5q-2.3 13.3 0.45 26.45q0.6 2.9 1.55 5.8q5.8 -36.6 3.5 -73.5q-5.05 9.3 -5 19.65q-5.15 19.5 -5.45 40.8q-0.25 16.4 2.6 30.7q8.25 2.7 17.05 2.65q-15.8 -35.6 -57.5 -36.65q-0.3 1.1 -0.25 2.3q0.05 1.15 0.6 2.25q-7.35 52.9 -7.1 107.55q0.2 44.6 -1.2 89.25q-1.85 59.25 -1.7 119.2q0.15 59.8 -2.25 119.25q-0.6 15 -2.85 29.7q-1.95 12.25 0.8 22q-0.2 1.25 -0.25 2.55q-0.1 3.8 1.9 6.75q9.2 2.2 19.25 -0.75q27.5 -16 41.05 -45.6q24.8 -54.2 30.7 -113.15q2.2 -21.55 3.4 -43.35q3.25 -59.4 1.5 -119.35q-1.7 -59.55 -15.25 -116.95q-3.45 -14.65 -9.65 -28.65q8.6 4.85 12.65 13.55q20.3 43.85 25.05 92.9q5.7 58.95 2.45 118.6q-0.85 15.05 -0.55 30.05q1.3 60.55 -15.8 117.5q-12.45 40.3 -46.45 63.1q-7.6 -1.35 -13.85 1q3.35 -33.9 4.3 -68.25q1.6 -59.45 1.65 -119.2q0 -59.7 0.25 -119.25q0.3 -60.1 3.5 -119.25q1.5 -27.75 0.6 -54.05q13.8 4.2 26.85 9.85q3.8 1.2 7.25 3.15q-1 1.75 -0.45 3.8q-3.3 59.45 -8.05 118.45q0.4 -2.2 -1.65 -3.4q-1.4 13.3 3 23.5q3.65 -11.95 4.6 -25.45q2.65 -39.2 6.05 -78.7q4.45 0.2 8.4 -1.9q-0.05 7.35 0.55 14.65q4.55 59.5 12.4 116.6q2.9 -2.35 2.95 -6.5q0.05 -9.55 -0.55 -18.85q-3.5 -54.7 -11.75 -108.2q2.9 -2.2 5.2 -5.1q26.4 -33.2 4.4 -70.8q-0.75 -0.25 -1.3 -0.75q-7.6 -6.5 -17.7 -7.25q-4.65 3 -10.05 4.55q21.8 6.7 25.6 30.25q3.7 22.9 -15.3 35.2q-1.4 19.1 -18 17.9q-9.8 -14 -7.2 -32.8q2.55 -18.6 -2.55 -32.65q-2.25 4.4 -2.05 9.75q0.55 14.6 -0.9 29.1q-2.3 22.5 11.2 38.35q18.7 2.75 22.3 -17.15q5.65 -30.9 -0.3 -60.8q-4.7 4.1 -3.65 11.65q2.55 18.3 1.15 36.65<g id="1707" transform="matrix(1, 0, 0, 1, -17.1, 0)">
<path style="fill:#000000;fill-opacity:1" d="M428.95,52.25L404.65 44.5Q406.75 90.65 403.25 136.7Q409.95 136.65 416.25 134.3Q437.45 126.15 441.45 103.15Q445.3 81.15 436.95 60.5L428.95 52.25M440.3,55.7Q452.75 76.1 449.5 100.3Q447 118.85 436.05 134.15Q432.95 138.5 428.7 141.3Q416.85 148.95 402.35 147.9L401.7 152.25Q394.8 133.05 397.25 112.45Q399.75 91.3 400 69.85Q400.2 51.6 403.95 35.5Q413.75 36.65 422.95 40.55Q434 45.3 440.3 55.7M384.55,39.9Q388.6 44.95 385.2 50.25Q365.2 33.75 356.65 55.15Q350.25 71.2 347 88.15Q361.2 83.9 376.2 84.75Q379.4 89.25 376.8 94.4L376.2 95.25Q360.85 95.4 345.45 97.75L345.4 97.7Q342.85 116.45 348.45 133.75Q349.3 136.5 350.95 139Q367.9 144.05 380.55 130.55L380.95 130.25Q389.45 142.4 371.75 150.15Q360.4 155.15 349.45 150.25Q335.2 126.55 340.25 96.75Q344.45 72.05 350.9 48.1Q353.65 37.75 362.95 32.75L377.95 34.8L380.2 35.25Q382.55 37.4 384.55 39.9M330.6,46.85Q329.6 45.6 329.2 44Q322.5 39.9 314.55 39.7Q314.85 52.05 314.15 64.5Q327.4 61.9 331.45 48.25L330.6 46.85M347.05,164L347.7 162.5L450.95 155.75Q457.95 160.7 453.1 169.4L452.45 170.25L410.3 173.9Q412 197.6 411.75 222.5Q411.1 281.95 413.6 341.05Q414.85 371 414.4 400.95Q413.55 460.8 407.6 519.4L406.95 519.95Q401.4 506.65 402.8 490.05Q404.05 475.05 404.75 460.15Q407.5 401 407.25 341.75Q407.2 326.8 406.3 311.75Q402.85 252.45 403.1 192.5Q403.15 182.55 405.35 174.2Q376.45 175.75 347.45 175.25Q345.15 169.75 347.05 164M333.4,293.45Q343.65 295.4 340.45 305.25L334.45 303.25Q313.1 325.6 323.95 357.45L325.35 357.95Q332.95 358.55 335.95 351.2Q338.8 353.5 338.2 348.45L330.7 347.2L330.95 340.5L340.2 338.75Q343.55 357.7 339.55 376.6L336.15 365.1Q330.8 370.2 323.45 368.95Q306.3 328.95 331.95 293.25L333.4 293.45M349.1,315.75Q348.45 304.4 353.2 294.25L354.15 333.1L366.4 331.05L370.2 295.5Q371.8 314.45 371.7 333.2Q371.55 355.3 368.35 377.45L366.15 341.8L353.85 340.7L349.95 378.6Q342.35 364.3 346.6 345.7Q349.95 330.9 349.1 315.75M328.7,391.7Q312.15 393.85 295.8 390L297.3 429.4Q310.5 427.3 323.6 427.45Q326.55 431.8 323.7 436.7Q310.55 442.15 297.45 436.7Q301.55 477.7 292.95 516.95Q288.75 452.95 293.4 389L292.85 387.95Q291 383.9 293.65 380.6L294.4 380.35L295.2 379.95L296.25 381.45L297.95 382.2Q313.5 378.5 328.95 382.7L328.7 391.7M313.75,30.75Q318.45 30.4 323.35 33.4Q345.15 46.95 326.95 69.25Q324.05 71.7 320.5 73.05Q317.05 74.2 313.5 73.7L309.35 103.75Q307.55 71.6 311.45 39.75L310.95 33L313.75 30.75M264.65,35.85Q272.35 58.05 272.95 82L291.2 30.25Q298.45 66.15 298.5 102.65L288.7 49.75L272.95 98Q265.3 74.05 263.95 49L247.2 98.5L246.95 96.6Q245.15 80.45 251.8 65.65L263.45 33.25L264.65 35.85M264.45,96.5Q269.7 97.5 273.75 101.45Q281.9 109.35 278.3 120.5L275.7 115.4Q272.75 109.5 266.95 106L263.95 107L261.7 122.75Q276.85 129.9 280.85 145.9Q285.75 165.6 269.1 165.65Q247.15 165.75 256.45 144Q258.3 145.45 259 147.75Q259.8 150.35 259.1 153Q258.4 155.85 259.7 158.25L266.25 159.05Q272.1 158.9 276.95 156.25Q278.65 142.85 267.7 134.9Q248.25 120.7 261.95 97.75L264.45 96.5M223.2,35Q233.25 89.85 240.5 145.65Q248.1 204.05 254.65 262.75Q261.25 321.6 267.5 380.45Q273.7 439.35 281.3 498.1Q282.75 509.2 280.6 519.9L279.95 521.45Q271.75 514.55 271.45 500.7Q270.8 471.3 267.05 442.2Q259.55 383.95 254.3 325.35L251.6 296.15Q220.75 294.5 189.4 300.75L187.55 319.85Q181.8 379 169.85 436.95Q160.55 481.95 143.95 523.7Q137.2 513.5 143.45 499.45Q143.3 498.05 144.5 498.1L145.2 497.45Q162.7 440.3 171.25 380.95Q175.5 351.45 179.1 321.85Q186.3 263.15 191.9 204.25Q197.5 145.2 208.9 87.1Q215.1 55.25 222.45 26.5L223.2 35M222.15,66.5Q220.9 75.95 218.55 85.45Q204.5 142.95 198.85 201.95L190.5 289.5Q211.9 281.1 235.95 281L250.2 282.05Q246.45 244.65 242 207.35Q235 148.4 225.05 90Q223 78.1 222.15 66.5M310.8,136.4Q302 136.45 293.75 133.75L291.35 167Q288.5 152.7 288.75 136.3Q289.05 115 294.2 95.5L294.05 125.8L317.25 126.5L317.2 114.65Q317.15 104.3 322.2 95Q324.5 131.9 318.7 168.5Q317.75 165.6 317.15 162.7Q314.4 149.55 316.7 136.25L310.8 136.4M102.15,85.8Q115.7 143.2 117.4 202.75Q119.15 262.7 115.9 322.1Q114.7 343.9 112.5 365.45Q106.6 424.4 81.8 478.6Q68.25 508.2 40.75 524.2Q30.7 527.15 21.5 524.95Q19.5 522 19.6 518.2Q19.65 516.9 19.85 515.65Q17.1 505.9 19.05 493.65Q21.3 478.95 21.9 463.95Q24.3 404.5 24.15 344.7Q24 284.75 25.85 225.5Q27.25 180.85 27.05 136.25Q26.8 81.6 34.15 28.7L33 27.75Q32.45 26.65 32.4 25.5Q32.35 24.3 32.65 23.2L32.75 22.5L33.3 21.85L34.9 20.65L35 20.5Q76.7 21.55 92.5 57.15Q98.7 71.15 102.15 85.8M63.5,39.75Q50.45 34.1 36.65 29.9L35.45 29.45Q36.35 55.75 34.85 83.5Q31.65 142.65 31.35 202.75Q31.1 262.3 31.1 322Q31.05 381.75 29.45 441.2Q28.5 475.55 25.15 509.45Q31.4 507.1 39 508.45Q73 485.65 85.45 445.35L94.55 415.5Q111.65 358.55 110.35 298Q110.05 283 110.9 267.95Q114.15 208.3 108.45 149.35Q103.7 100.3 83.4 56.45Q79.35 47.75 70.75 42.9Q67.3 40.95 63.5 39.75M126.6,219.25L127.2 219.25L127.3 220.95L128.75 221.7L130.2 222.5Q140.3 223.25 147.9 229.75Q148.45 230.25 149.2 230.5Q171.2 268.1 144.8 301.3Q142.5 304.2 139.6 306.4Q147.85 359.9 151.35 414.6Q151.95 423.9 151.9 433.45Q151.85 437.6 148.95 439.95Q141.1 382.85 136.55 323.35Q135.95 316.05 136 308.7L135.85 308.75Q131.9 310.85 127.45 310.65L125.6 337.8Q122.2 377.3 119.55 416.5Q118.6 430 114.95 441.95Q110.55 431.75 111.95 418.45Q114 419.65 113.6 421.85L113.7 421.7Q118.45 362.7 121.75 303.25L126.2 226.2L126 225.4Q125.45 223.35 126.45 221.6L126.6 219.25M153.35,259.5Q149.55 235.95 127.75 229.25L128 299.25Q133.4 297.7 138.05 294.7Q157.05 282.4 153.35 259.5M302.8,305.15Q301.75 297.6 306.45 293.5Q312.4 323.4 306.75 354.3Q303.15 374.2 284.45 371.45Q270.95 355.6 273.25 333.1Q274.7 318.6 274.15 304Q273.95 298.65 276.2 294.25Q281.3 308.3 278.75 326.9Q276.15 345.7 285.95 359.7Q302.55 360.9 303.95 341.8Q305.35 323.45 302.8 305.15" />
</g>
</svg>
