<?xml version="1.0" encoding="utf-8"?>
<svg version="1.1" id="Layer_1"
xmlns="http://www.w3.org/2000/svg"
xmlns:xlink="http://www.w3.org/1999/xlink"


xml:space="preserve">
q-3.15 0.95 -6.15 2.05q-0.35 0.1 -0.6 0.5q-0.3 1.15 -0.3 2.35q-1.4 2.35 -1.55 5.85q-1.65 34.35 -2.75 69q-1.85 59.2 -4.55 118.5q-1.4 29.85 -3.2 59.9q-1 16.95 4.35 29.35q1.4 -1.15 1.65 -3q3.25 -22.45 3.55 -45.75q0.8 -59.2 2.85 -118.5q1.95 -56.05 2.65 -111.8q21.2 -0.75 36 15.75q38.05 42.4 19.35 97.85q-2.55 7.6 -8.25 12.95q-20.35 19.1 -48.05 17.55q-1.15 2.85 -1.1 6q0.05 2.3 0.95 4.45q19.65 5.4 37.8 -5.5q6.35 -3.8 10.05 -9.65q31.35 -49.55 11.15 -106.35q-13.65 -38.35 -53.5 -43.25q-14.15 18.8 -18.05 44.3q-8.75 24.8 -13.1 50.9q-5.35 32.25 -9.3 64.85q-1.05 8.7 2 16.9q13.1 -45.25 16.35 -93.5q0.85 -12.8 2.55 -25.5q0.55 26.45 7.35 51.8q1.25 4.7 1.15 8.7q2.05 58.95 11.8 116.5q-2.45 4.9 -0.3 9.5q-5.75 28.2 1.35 55.1q1.85 39.2 19.75 73.7q3.6 -38.2 -18.65 -74.7q17.15 -17.8 11.75 -42.2q-2.5 -11.15 -13.85 -13.85q-4.7 20.25 -20.9 27.5q1.15 -21.65 1.35 -43.15q19.85 -4.65 19.55 15.65q-20.95 70.1 -33.8 142.55q-15.75 61.7 -25 124.8q18.3 -60.55 30.2 -126.4q8.4 45.75 10.85 92.15q0.15 2.85 0.6 5.75q1.3 5.45 3.25 10.75q1.95 5.15 4.6 10q6.3 -8.6 1.65 -19.85q-3.2 -7.8 -4.8 -16.2q-0.8 -4.25 -1.3 -8.5q-1.8 -14.65 -3.45 -29.25q-6.55 -58.6 -11.5 -117.55q-3.75 -44.1 -8.35 -88.1q1.65 28.75 4.9 57.25q-12.4 -1.85 -23.35 1.15q3.05 -14.25 7.2 -28.2q1.45 35 3.5 69.85q-0.45 0.4 -0.7 1.05q-1.5 2.75 -1.9 6.55q-3.8 37.5 -4 75.9q-0.2 59.55 -5.15 118.5q-1.4 16.9 3.65 29.35q0.6 -0.75 0.65 -1.5q38.4 3.85 67.6 -18.45q5.85 -4.5 9.75 -10.2q27.95 -41 23.6 -92.15q-5 -59.35 -27.9 -114.5q-17 -40.85 -57.2 -50.9q19.35 3.1 34.45 20.1q14.45 16.3 22.2 36.95q6.95 18.65 12.3 38.2q5.3 19.5 8.05 39.7q2.75 20.1 1.05 40.2q-1.75 20.15 -8.65 39.05q-7.5 20.35 -26.3 31.3q-17.6 10.15 -37.6 13.6q-10.55 1.85 -21.45 2.5q7.95 -87.25 9.55 -174.85q0.8 -43.65 6.4 -86.75<g id="1701" transform="matrix(1, 0, 0, 1, -53.45, 0)">
<path style="fill:#000000;fill-opacity:1" d="M378.95,108Q418.8 112.9 432.45 151.25Q452.65 208.05 421.3 257.6Q417.6 263.45 411.25 267.25Q393.1 278.15 373.45 272.75L373.05 271.95Q372.15 269.8 372.1 267.5Q372.05 264.35 373.2 261.5Q400.9 263.05 421.25 243.95Q426.95 238.6 429.5 231Q448.2 175.55 410.15 133.15Q395.35 116.65 374.15 117.4Q373.45 173.15 371.5 229.2Q369.45 288.5 368.65 347.7Q368.35 371 365.1 393.45Q364.85 395.3 363.45 396.45Q358.1 384.05 359.1 367.1Q360.9 337.05 362.3 307.2Q365 247.9 366.85 188.7Q367.95 154.05 369.6 119.7Q369.75 116.2 371.15 113.85Q371.15 112.65 371.45 111.5L371.7 110.75Q371.95 110.35 372.3 110.25Q375.3 109.15 378.45 108.2L378.95 108M333.2,267.25L346.35 387.15L344 388.1L343.5 387.5Q333.75 329.95 331.7 271L315.9 331.65L314.7 329.95L313.85 331.7Q313.95 327.7 312.7 323Q305.9 297.65 305.35 271.2Q303.65 283.9 302.8 296.7Q299.55 344.95 286.45 390.2Q283.4 382 284.45 373.3Q288.4 340.7 293.75 308.45Q298.1 282.35 306.85 257.55L315.15 306.55Q319.05 281.05 333.2 262.25L333.2 267.25M187.8,122.35Q193.2 146.75 176.05 164.55Q198.3 201.05 194.7 239.25Q176.8 204.75 174.95 165.55L164.15 172.25L158.8 229.85Q151.7 202.95 157.45 174.75L156.9 173.75Q154.75 169.15 157.2 164.25L159.3 163.75L161.7 119.85L161.45 112.25L173.95 108.5Q185.3 111.2 187.8 122.35M166.15,118.6Q165.95 140.1 164.8 161.75Q181 154.5 185.7 134.25Q186 113.95 166.15 118.6M246.2,109.75Q250.8 153.75 254.55 197.85Q259.5 256.8 266.05 315.4Q267.7 330 269.5 344.65Q270 348.9 270.8 353.15Q272.4 361.55 275.6 369.35Q280.25 380.6 273.95 389.2Q271.3 384.35 269.35 379.2Q267.4 373.9 266.1 368.45L265.55 365.7L265.05 362.9Q264.6 360 264.45 357.15Q262 310.75 253.6 265L213.55 264.25Q201.65 330.1 183.35 390.65L181.45 389.05Q190.7 325.95 206.45 264.25L206.2 258.25L208.25 257.3L210.15 248.05Q223 175.6 243.95 105.5L246.2 109.75M244,127.7Q239.85 141.65 236.8 155.9L215.6 254.65Q226.55 251.65 238.95 253.5L252.4 254.8Q249.15 226.3 247.5 197.55Q245.45 162.7 244 127.7M74.65,98.1L75.25 98.75L75.35 99Q115.55 109.05 132.55 149.9Q155.45 205.05 160.45 264.4Q164.8 315.55 136.85 356.55Q132.95 362.25 127.1 366.75Q97.9 389.05 59.5 385.2L59.15 389.2Q59.1 389.95 58.5 390.7Q53.45 378.25 54.85 361.35L59.9 301.5Q64.85 242.55 65.05 183Q65.25 144.6 69.05 107.1Q69.45 103.3 70.95 100.55L71 100.35Q71.25 99.7 71.7 99.3L73.5 97.25L74.65 98.1M70.1,196.75Q68.5 284.35 60.55 371.6Q71.45 370.95 82 369.1Q102 365.65 119.6 355.5Q138.4 344.55 145.9 324.2Q152.8 305.3 154.55 285.15Q156.25 265.05 153.5 244.95Q150.75 224.75 145.45 205.25Q140.1 185.7 133.15 167.05Q125.4 146.4 110.95 130.1Q95.85 113.1 76.5 110Q70.9 153.1 70.1 196.75" />
</g>
</svg>
