<?xml version="1.0" encoding="utf-8"?>
<svg version="1.1" id="Layer_1"
xmlns="http://www.w3.org/2000/svg"
xmlns:xlink="http://www.w3.org/1999/xlink"


xml:space="preserve">
q26.5 13.45 35.4 41.1q9.6 29.7 -0.4 58.9q-13 38.1 -54.1 40.95q1.65 -53.65 2.3 -106q8.15 1.1 15.6 4.85q-0.75 0.2 -1.4 0.85q-0.4 1.45 -0.2 3q-4.55 24.75 -4.95 51.6q-0.95 59.6 -3.6 119.2q-2.65 59.3 -2.2 118.5q0.3 1.75 2 2q0.8 2.3 2.55 4.3q14.35 5.35 30.1 6.5q30.6 2.25 43.1 -23.85q7.5 -15.7 8.65 -33q4.05 -61.3 -33.8 -107q25.8 -30.65 19.4 -71.9q-2.15 -13.95 -6.95 -27.15q-13.35 -36.75 -50.65 -45.8q15.8 15 24.35 35.25q7.8 18.5 9.35 38.35q1.7 21.95 -4.2 42.95q-5.8 20.55 -29.2 24.2q-21.3 3.5 -41.35 -4.6q15.95 -0.9 30.1 -8.55q4 -2.15 7.45 -5q-7.2 -58.8 -14.15 -117.6q-7.05 -58.9 -9.6 -117.7q-0.5 0 -0.6 0.2q-6.95 11.4 -9.4 25q-10.5 57.75 -20.5 115.65q-6.55 36.7 -17.7 72.15q-5.05 16.1 0.35 29.35q4.6 -4.55 5.9 -11.5q10.7 -57.9 22.15 -115.75q8 0.75 15.4 -4.75q10.35 -3.15 20.45 -1q4.9 59.4 14.9 117.85q2.25 13.35 9.15 20.75q2.55 -2.6 1.75 -6.3q-5.85 -27.4 -9.25 -55.1q-0.35 0.4 -0.55 0.95q-6.2 38.8 -1.9 75q5.8 44.15 20.25 81.85q-2.75 -42.65 -17.85 -82.9q26.4 -23.45 13.5 -59.6q-1.65 -4.65 -3.85 -9.05q-3.6 -7.2 -8.7 -13.45q-6.95 -1.95 -13.9 -0.85q22.25 6.55 25.25 29.65q3.15 24.25 -18.45 34.7q-6.6 3.25 -14.1 2.85q9.8 33.4 6.6 68.75q-5.6 62.05 -39.9 114.5q-26.7 40.7 -74.8 38.2q0.55 -5.55 0.55 -11.35q0 -59.4 3.45 -118.5q3.5 -59.3 8.45 -118.35q1.95 -22.6 0.95 -44.35q3.45 1.65 7.5 1.45q40.2 -1.95 66.3 30q14.5 17.75 20.9 39.65q-2.5 41.85 3 84.2q3 22.95 5.1 45.95q-5.95 1.05 -10.5 4.65q-3.9 1.5 -7.6 3.3q9.6 -49.15 18.6 -98.35q3.7 -20.25 6.15 -39.8q-0.75 1.8 -0.65 3.75q-2.8 12.8 -3.6 27.35q-3.3 59.2 -5.9 118.55q-0.65 14.95 -2.6 29.7q-1.8 14.05 5.45 21.25q46.6 4 73.85 -34.3q35.05 -49.3 43 -108.4q8 -62.95 -31 -111.85q-26.05 -32.7 -67.1 -33.85q-1.05 0.8 -2.95 1<g id="1700" transform="matrix(1, 0, 0, 1, -67.25, 0)">
<path style="fill:#000000;fill-opacity:1" d="M366.05,110.75Q365.4 163.1 363.75 216.75L362.55 256.55Q403.65 253.7 416.65 215.6Q426.65 186.4 417.05 156.7Q408.15 129.05 381.65 115.6Q374.2 111.85 366.05 110.75M368.95,102.25Q406.25 111.3 419.6 148.05Q424.4 161.25 426.55 175.2Q432.95 216.45 407.15 247.1L406.5 247.85Q444.35 293.55 440.3 354.85Q439.15 372.15 431.65 387.85Q419.15 413.95 388.55 411.7Q372.8 410.55 358.45 405.2Q356.7 403.2 355.9 400.9L354.95 401.7Q353.25 401.45 352.95 399.7Q352.5 340.5 355.15 281.2Q357.8 221.6 358.75 162Q359.15 135.15 363.7 110.4L363.45 109L363.25 107.5Q363.05 105.95 363.45 104.5L363.7 103.75Q364.35 103.1 365.1 102.9L365.2 102.9L366.2 98.25L366.15 102.65L368.95 102.25M392.35,259.35Q378.2 267 362.25 267.9L358.75 390.5Q378.8 398.6 400.1 395.1Q423.5 391.45 429.3 370.9Q435.2 349.9 433.5 327.95Q431.95 308.1 424.15 289.6Q415.6 269.35 399.8 254.35Q396.35 257.2 392.35 259.35M334.2,393.9Q335 397.6 332.45 400.2Q325.55 392.8 323.3 379.45Q313.3 321 308.4 261.6L308.4 261.25Q298.3 259.1 287.95 262.25Q280.55 267.75 272.55 267L271 274.7Q259.55 332.55 248.85 390.45Q247.55 397.4 242.95 401.95Q237.55 388.7 242.6 372.6Q253.75 337.15 260.3 300.45L270.7 241.6Q280.7 183.7 291.2 125.95Q293.65 112.35 300.6 100.95Q300.7 100.75 301.2 100.75L300.95 103.45L301.2 103.5Q303.75 162.3 310.8 221.2Q317.75 280 324.95 338.8Q328.35 366.5 334.2 393.9M236,96.05L238.2 96.5Q243.3 102.75 246.9 109.95Q249.1 114.35 250.75 119Q263.65 155.15 237.25 178.6Q252.35 218.85 255.1 261.5Q240.65 223.8 234.85 179.65L216.8 182L209.15 247.6Q204.85 211.4 211.05 172.6Q211.25 172.05 211.6 171.65L212 171.6L221 104.05L218.7 103.5L219.95 95.5L222.1 95.2Q229.05 94.1 236 96.05M232,169.2Q253.6 158.75 250.45 134.5Q247.45 111.4 225.2 104.85L217.9 172.05Q225.4 172.45 232 169.2M165.35,130.95Q139.25 99 99.05 100.95Q95 101.15 91.55 99.5Q92.55 121.25 90.6 143.85Q85.65 202.9 82.15 262.2Q78.7 321.3 78.7 380.7Q78.7 386.5 78.15 392.05Q126.25 394.55 152.95 353.85Q187.25 301.4 192.85 239.35Q196.05 204 186.25 170.6Q179.85 148.7 165.35 130.95M293.05,158.7Q284.05 207.9 274.45 257.05Q278.15 255.25 282.05 253.75L284.95 253Q289.5 249.4 295.45 248.35L297.95 248L307.3 249.05Q305.2 226.05 302.2 203.1Q296.7 160.75 299.2 118.9Q296.75 138.45 293.05 158.7M89.55,87.85L90.5 84.5L90.8 88.05L97 88.25Q98.9 88.05 99.95 87.25Q141 88.4 167.05 121.1Q206.05 170 198.05 232.95L194.35 261.25Q186.4 320.35 151.35 369.65Q124.1 407.95 77.5 403.95L76.7 403.1L76.5 402.7L74.5 410.45Q67.25 403.25 69.05 389.2Q71 374.45 71.65 359.5Q74.25 300.15 77.55 240.95L84.25 122.4Q85.05 107.85 87.85 95.05L87.6 93.25Q87.5 91.3 88.25 89.5L89 88L89.55 87.85" />
</g>
</svg>
