<?xml version="1.0" encoding="utf-8"?>
<svg version="1.1" id="Layer_1"
xmlns="http://www.w3.org/2000/svg"
xmlns:xlink="http://www.w3.org/1999/xlink"


xml:space="preserve">
q-4.5 11 -4.55 25.75q-1.15 0.85 -1.5 2.2q-1.7 6.1 1.75 10.85q-0.25 11.2 -1.75 22.3q-1.85 13.6 4.15 21.7q4.85 -34.6 5.1 -70.5q6.7 -1 12.6 -3.45q0.55 3.6 2.8 7.45q16.5 28.7 29 59.2q5.95 14.5 15 24.2q4.6 -6.2 1.35 -13.65q-18.45 -42.3 -41.45 -80.6q6.5 -4.05 11.75 -10.2q27.25 -31.85 4.1 -68.25q-14.1 -17.65 -37.2 -15.55q-4.5 1.5 -7.55 5.3q-9.6 21 -32.1 25.5q-8.1 1.75 -16.25 0.6q21.65 -6.4 38.8 7.2q19.8 15.7 10 37.2q-0.75 0.1 -0.8 0.25q-2.85 54.25 -2.6 109.45q0.15 30.2 -4.25 59.8q-1.8 12.25 2.8 20.05q0.7 0.7 1.7 1.2q19.85 -0.5 38.65 -5.85q24.8 -7.05 33.75 -31q22.15 -59.4 -4.8 -116q-16.5 -34.6 -53.1 -43.35q-4 0.95 -7.35 3.45q-0.6 1.25 -0.8 2.55q30.85 -2.2 49.3 24.1q38.05 54.2 10.8 114.15q-2.6 5.7 -7.65 9.05q-25.2 16.5 -55.9 18.1q3.9 -28.4 4.5 -57.95q1.15 -55.15 -2.35 -108.9q0.45 0.85 1.3 1.45q2.9 3.4 5.35 7.2q-13.75 12 -17.8 29.75q-3.55 15.75 6.85 26.2q13.1 13.15 30.5 4.05q5.7 -2.95 9.35 -8.3q-0.35 -22.8 -16.75 -45.85q-20.2 -28.4 -39.5 -57.6q-1.9 15.75 8.95 28.2q8.2 13.65 15.7 27.8q-15.75 13.3 -33.4 7.05q-1.65 -6.9 -0.8 -14.25q2.25 -19 18.5 -20.6<g id="1713" transform="matrix(1, 0, 0, 1, -140.05, 0)">
<path style="fill:#000000;fill-opacity:1" d="M346,186.75Q349.05 182.95 353.55 181.45L356.95 180Q380.05 177.9 394.15 195.55L395.2 196.5Q418.35 232.9 391.1 264.75Q385.85 270.9 379.35 274.95Q402.35 313.25 420.8 355.55Q424.05 363 419.45 369.2Q410.4 359.5 404.45 345Q391.95 314.5 375.45 285.8Q373.2 281.95 372.65 278.35Q366.75 280.8 360.05 281.8L346.9 282.4L346.8 296.95Q346.55 332.85 341.7 367.45Q335.7 359.35 337.55 345.75Q339.05 334.65 339.3 323.45L340.2 278.05Q336.75 273.3 338.45 267.2Q338.8 265.85 339.95 265L340.4 265.1L340.9 204.25Q340.95 189.5 345.45 178.5L345.7 187.15L346 186.75M385.25,202.95Q368.1 189.35 346.45 195.75L346.9 266.25Q355.05 267.4 363.15 265.65Q385.65 261.15 395.25 240.15Q405.05 218.65 385.25 202.95M150.5,179.75Q153.85 177.25 157.85 176.3L162 176Q198.6 184.75 215.1 219.35Q242.05 275.95 219.9 335.35Q210.95 359.3 186.15 366.35Q167.35 371.7 147.5 372.2Q146.5 371.7 145.8 371L145.75 371.2L144.95 370.05L144.65 369.55Q140.05 361.75 141.85 349.5Q146.25 319.9 146.1 289.7Q145.85 234.5 148.7 180.25Q148.75 180.1 149.5 180L149.7 182.3Q149.9 181 150.5 179.75M150.2,189.55Q153.7 243.3 152.55 298.45Q151.95 328 148.05 356.4Q178.75 354.8 203.95 338.3Q209 334.95 211.6 329.25Q238.85 269.3 200.8 215.1Q182.35 188.8 151.5 191Q150.65 190.4 150.2 189.55M257.45,268.75L260.45 267.75Q279.75 296.95 299.95 325.35Q316.35 348.4 316.7 371.2L300.65 355.85Q297 361.2 291.3 364.15Q273.9 373.25 260.8 360.1Q250.4 349.65 253.95 333.9Q258 316.15 271.75 304.15Q269.3 300.35 266.4 296.95Q255.55 284.5 257.45 268.75M260.65,336.7Q259.8 344.05 261.45 350.95Q279.1 357.2 294.85 343.9Q287.35 329.75 279.15 316.1Q262.9 317.7 260.65 336.7" />
</g>
</svg>
