<?xml version="1.0" encoding="utf-8"?>
<svg version="1.1" id="Layer_1"
xmlns="http://www.w3.org/2000/svg"
xmlns:xlink="http://www.w3.org/1999/xlink"


xml:space="preserve">
q0.3 59.2 -0.05 118.5q-0.35 60.05 -4.55 119.3q-2.15 30.1 -6.75 59.7q-2.3 14.55 5.2 20.95q2.95 -4.25 3.2 -9.7q2.45 -59.4 6 -118.6q29.25 -3.2 58.7 -5.5q-1.25 59.7 -4.9 119.15q-0.65 10.45 5.95 13.55q5.75 -49.15 5.55 -99.75q-0.3 -59.6 0.2 -119.2q0.55 -60.25 1.5 -118.5q-1.25 -0.25 -1.4 0.85q-6.85 41.6 -6.35 84.65q0.35 27.7 0.25 55.45q-30.3 -1.3 -58.35 7.4q1.4 -59.75 -2.15 -118.5q-4.65 6.9 -4.6 17.5q-4.95 -27.55 -33.9 -25.5q-24.3 2 -33.5 25.4q-7.8 19.85 -4.5 41.1q3.3 21.35 10.4 41.85q6.5 18.8 15.75 36.5q9.1 17.5 17.1 35.5q8.8 19.8 12 41.2q3.25 21.4 1.75 43.2q-1.15 17.1 -10.6 31.3q-12.3 18.35 -34.3 21.25q-19.65 2.4 -30.15 -14.25q-3.3 22.65 19.25 30.45q18.3 6.25 34.75 -3.05q13.2 -7.45 20.1 -21.15q6.3 -12.5 9.75 -26.15q3.05 -11.95 3.45 -24.3q0.75 -21.4 -2.95 -42.3q-3.65 -20.65 -12.05 -40.2q-8 -18.75 -17.8 -36.7q-15.85 -29.05 -23.95 -61.2q-8 -31.9 15.55 -52.8q19.6 -17.5 39.35 -1.35q4.3 3.55 9.3 5.8q-1.55 59.15 -3.75 118.45q-2.25 59.2 -4 118.5q-1.4 -2.45 -1.65 -0.5q-1.45 12.5 4.9 20.25q5.05 -12.15 5.25 -26.25q0.75 -59.8 2.15 -119.2q0.85 -37 2.7 -73.6q3 -60 0.9 -118.4q-5.4 13.25 -5.35 30.25q0 25.4 -0.65 51q-0.9 2.15 -0.85 4.5q0.1 1.65 1 3q-2.65 55.45 -5 110.9q-1.85 44.4 -2.75 89.25q-1.15 59.35 -2.65 115.2q0.15 3.7 -0.75 7.35q-3.65 14.85 5.25 21.9q3.05 0.35 6.15 -0.1q30.15 -13.85 58.85 -30.7q20.5 -12.05 32.4 -33q20.8 -36.7 22.85 -78.7q2.9 -60.05 -7.2 -118.5q-5.35 -30.9 -24.6 -55.4q-26.1 -33.15 -69.3 -31.9q35.2 -2.8 57.85 22.55q26.6 29.75 31.05 70.55q6.5 59.25 -0.5 118.6q-6.6 55.9 -54.45 83.35q-26.9 15.45 -55.95 24.65q2.8 -46.85 3.8 -94.2q0.8 -36.95 2.1 -74.2q2.05 -59.3 2.75 -118.55q0.2 -17.25 -1 -33.45<g id="1730" transform="matrix(1, 0, 0, 1, -58.35, 0)">
<path style="fill:#000000;fill-opacity:1" d="M394.45,103.25Q398 162 396.6 221.75L395.6 255.1Q423.65 246.4 453.95 247.7Q454.05 219.95 453.7 192.25Q453.2 149.2 460.05 107.6Q460.2 106.5 461.45 106.75Q460.5 165 459.95 225.25Q459.45 284.85 459.75 344.45Q459.95 395.05 454.2 444.2Q447.6 441.1 448.25 430.65Q451.9 371.2 453.15 311.5L453.85 261.45Q424.4 263.75 395.15 266.95L392.9 310.9Q389.35 370.1 386.9 429.5Q386.65 434.95 383.7 439.2Q376.2 432.8 378.5 418.25Q383.1 388.65 385.25 358.55Q389.45 299.3 389.8 239.25Q390.15 179.95 389.85 120.75Q389.8 110.15 394.45 103.25M352.95,130.5Q347.95 128.25 343.65 124.7Q323.9 108.55 304.3 126.05Q280.75 146.95 288.75 178.85Q296.85 211 312.7 240.05Q322.5 258 330.5 276.75Q338.9 296.3 342.55 316.95Q346.25 337.85 345.5 359.25Q345.1 371.6 342.05 383.55Q338.6 397.2 332.3 409.7Q325.4 423.4 312.2 430.85Q295.75 440.15 277.45 433.9Q254.9 426.1 258.2 403.45L264.2 400.2L263.95 406.95Q274.45 423.6 294.1 421.2Q316.1 418.3 328.4 399.95Q337.85 385.75 339 368.65Q340.5 346.85 337.25 325.45Q334.05 304.05 325.25 284.25Q317.25 266.25 308.15 248.75Q298.9 231.05 292.4 212.25Q285.3 191.75 282 170.4Q278.7 149.15 286.5 129.3Q295.7 105.9 320 103.9Q348.95 101.85 353.9 129.4L352.95 130.5M221.1,124.75Q221.05 107.75 226.45 94.5Q228.55 152.9 225.55 212.9Q223.7 249.5 222.85 286.5Q221.45 345.9 220.7 405.7Q220.5 419.8 215.45 431.95Q209.1 424.2 210.55 411.7Q210.8 409.75 212.2 412.2L212.6 413.35L212.7 412.7Q214.45 353.4 216.7 294.2Q218.9 234.9 220.45 175.75Q221.1 150.15 221.1 124.75M87,86.75Q130.2 85.5 156.3 118.65Q175.55 143.15 180.9 174.05Q191 232.5 188.1 292.55Q186.05 334.55 165.25 371.25Q153.35 392.2 132.85 404.25Q104.15 421.1 74 434.95Q70.9 435.4 67.85 435.05L67.25 443.7Q58.35 436.65 62 421.8Q62.9 418.15 62.75 414.45Q64.25 358.6 65.4 299.25Q66.3 254.4 68.15 210Q70.5 154.55 73.15 99.1L72.75 99Q71.85 97.65 71.75 96L71.75 95.25L71.7 93.75Q71.65 91.4 72.55 89.25L73 88.5L86.95 86.85L87 86.75M77.45,133.25Q76.75 192.5 74.7 251.8Q73.4 289.05 72.6 326Q71.6 373.35 68.8 420.2Q97.85 411 124.75 395.55Q172.6 368.1 179.2 312.2Q186.2 252.85 179.7 193.6Q175.25 152.8 148.65 123.05Q126 97.7 90.8 100.5L76.45 99.8Q77.65 116 77.45 133.25" />
</g>
</svg>
