<?xml version="1.0" encoding="utf-8"?>
<svg version="1.1" id="Layer_1"
xmlns="http://www.w3.org/2000/svg"
xmlns:xlink="http://www.w3.org/1999/xlink"


xml:space="preserve">
q3.8 21.3 -3.3 41.6q-6.8 19.5 -24.65 29.65q-10.45 6 -22.25 7.6q3.75 -70.55 -1.5 -141.2q25.1 0.1 37.05 21.35q10.85 19.2 14.65 41q-8.8 -39.1 -46.65 -43.55q-2.6 -0.25 -5.4 0.95q-3.5 3.45 -3.45 9.75q0.55 39.85 0.05 79.5q-0.7 59.6 -2.1 119.25q-1.45 59.45 -6.75 118.2q0.1 -3.65 -1.15 -6q-3.55 14.15 1.75 26.25q2.7 -0.5 3.3 -3.3q5.9 -25.9 7.3 -53.1q3.1 -59.05 3.15 -118.55q16.2 1.3 28.3 -9.4q37.55 -33.25 27.1 -83.9q-1.4 0.9 -3.05 1.3q-0.4 0.1 -0.8 0.35q-0.75 1.1 -1.15 2.35q-0.65 1.75 -0.45 3.65q0.15 1.25 0.85 2.25q-3.4 46.15 -3.85 93.4q-0.1 15 -2.5 29.7q-2.8 17 4 29.55q3.65 -19.1 4.25 -39.75q2.35 0.55 4.85 -0.65q4.45 19.45 11.85 38.3q8.55 21.85 18.2 41.95q2.25 -0.9 1.75 -3.35q-8.5 -41.2 -28.45 -78.9q26.35 -16.9 21.4 -52.1q-4.05 -28.55 -30.7 -32.65q-0.5 0.1 -0.9 0.35q23.5 -0.1 27.75 26.1q3.65 22.5 -15.1 36.65q-5.1 3.9 -11.6 3.1q3.25 59.1 0.95 118.5q-2.35 59.8 -6.9 119.2q-1.15 14.95 -3.7 29.7q-3 17.05 3.4 30.05q1.65 -0.35 1.85 -2.05q7.1 -51.1 9.25 -103.4q2.5 -59.5 2.8 -119.25q0.35 -60 -4.65 -118.5q-4.35 21.35 -3 45.75q-0.05 1.95 0.5 3.8q-4.1 35.55 -6.45 72.15q-3.85 59.15 -7.05 118.5q-3.25 60.2 -9.65 115.5q-2.95 10 0.5 17.85q-0.1 3 0.6 5.95q0.4 1.75 1.65 2.95q3.1 0.15 5.9 -0.8q12.5 -4.15 24.15 -10q66.6 -33.55 81.75 -105.35q12.25 -58.2 4.25 -117.75q-5.9 -44.45 -29.6 -81.8q-0.6 -0.4 -1.05 -0.9q-20.45 -25.25 -52.2 -28.35q-5.55 -0.1 -10.9 2.7q-0.85 2.15 -0.85 4.5q22.75 36.35 27.65 79.35q6.9 60.6 -11.4 117.95q-3.55 11.15 -10.1 20.9q-31.8 47.4 -86.35 67.5q5 -42.95 7.4 -86.5q3.25 -59.35 8.05 -118.4q4.4 -55.05 3.05 -109.45q16.7 -2.2 32.45 4.65q7.8 4.2 14.55 10q7.7 6.6 14.7 14<g id="1719" transform="matrix(1, 0, 0, 1, -63.05, 0)">
<path style="fill:#000000;fill-opacity:1" d="M353,120.15Q341.05 98.9 315.95 98.8Q321.2 169.45 317.45 240Q329.25 238.4 339.7 232.4Q357.55 222.25 364.35 202.75Q371.45 182.45 367.65 161.15Q363.85 139.35 353 120.15M373.6,161.45Q384.05 212.1 346.5 245.35Q334.4 256.05 318.2 254.75L317.25 253.75L317.2 261.25Q317.15 320.75 314.05 379.8Q312.65 407 306.75 432.9Q306.15 435.7 303.45 436.2Q298.15 424.1 301.7 409.95Q302.95 412.3 302.85 415.95L302.95 416.95Q308.25 358.2 309.7 298.75Q311.1 239.1 311.8 179.5Q312.3 139.85 311.75 100Q311.7 93.7 315.2 90.25L315.25 90.85L315.55 90.7Q318.35 89.5 320.95 89.75Q358.8 94.2 367.6 133.3L373.6 161.45M210.95,86.25Q237.6 90.35 241.65 118.9Q246.6 154.1 220.25 171Q240.2 208.7 248.7 249.9Q249.2 252.35 246.95 253.25Q237.3 233.15 228.75 211.3Q221.35 192.45 216.9 173L213.2 174.9Q210.7 176.1 208.35 175.55L207.7 209.5Q207.1 230.15 203.45 249.25Q196.65 236.7 199.45 219.7Q201.85 205 201.95 190Q202.4 142.75 205.8 96.6L205.45 96.5Q204.75 95.5 204.6 94.25Q204.4 92.35 205.05 90.6Q205.45 89.35 206.2 88.25Q206.6 88 207 87.9Q208.65 87.5 210.05 86.6Q210.45 86.35 210.95 86.25M220.05,159.55Q238.8 145.4 235.15 122.9Q230.9 96.7 207.4 96.8L208.45 162.65Q214.95 163.45 220.05 159.55M279.2,88.25Q284.2 146.75 283.85 206.75Q283.55 266.5 281.05 326Q278.9 378.3 271.8 429.4Q271.6 431.1 269.95 431.45Q263.55 418.45 266.55 401.4Q269.1 386.65 270.25 371.7Q274.8 312.3 277.15 252.5Q279.45 193.1 276.2 134Q274.85 109.6 279.2 88.25M89.5,92.25L91.05 91.2Q96.4 88.4 101.95 88.5Q133.7 91.6 154.15 116.85Q154.6 117.35 155.2 117.75Q178.9 155.1 184.8 199.55Q192.8 259.1 180.55 317.3Q165.4 389.1 98.8 422.65Q87.15 428.5 74.65 432.65Q71.85 433.6 68.75 433.45Q67.5 432.25 67.1 430.5Q66.4 427.55 66.5 424.55Q63.05 416.7 66 406.7Q72.4 351.4 75.65 291.2Q78.85 231.85 82.7 172.7Q85.05 136.1 89.15 100.55Q88.6 98.7 88.65 96.75Q88.65 94.4 89.5 92.25M137.75,116.5Q131 110.7 123.2 106.5Q107.45 99.65 90.75 101.85Q92.1 156.25 87.7 211.3Q82.9 270.35 79.65 329.7Q77.25 373.25 72.25 416.2Q126.8 396.1 158.6 348.7Q165.15 338.95 168.7 327.8Q187 270.45 180.1 209.85Q175.2 166.85 152.45 130.5Q145.45 123.1 137.75 116.5" />
</g>
</svg>
