<?xml version="1.0" encoding="utf-8"?>
<svg version="1.1" id="Layer_1"
xmlns="http://www.w3.org/2000/svg"
xmlns:xlink="http://www.w3.org/1999/xlink"


xml:space="preserve">
q3.5 -18.9 -6.75 -37.05q-18.1 -31.85 -54.5 -32.2q-21.65 5.1 -29.9 24.15q-25.05 57.65 -2.6 116.95q5.15 13.45 10.75 26.55q20.5 47.7 42.65 94.55q24.95 52.85 39.4 109.4q14.3 56.15 8.55 114.1q-1.7 17.1 -13.6 28.85q-26.95 26.7 -58.5 7.5q-34.4 -20.95 -35.2 -60.4q-0.35 -16.55 -3.45 -31.5q-1.9 0.1 -2.95 1.8q-0.1 0.15 0.15 0.5q0.25 -0.25 0.6 -0.4q-7.5 51.35 26.15 88.3q31.2 34.25 70.65 11.1q12.7 -7.45 16.7 -20.9q16.05 -53.9 7.75 -110.5q-8.2 -56.1 -31.1 -108.35q-24.65 -56.3 -47.25 -113.65q-2.75 -7.05 -6.4 -13.5q-16.9 -30.3 -24.25 -64q-9.95 -45.7 14.25 -83.7q18.25 -12.45 40.5 -11.25q6.75 3.1 13.05 7q16.55 10.2 23.15 28.15q4.2 11.5 9.55 20.85q-1.8 11.8 -1.75 24q0.15 59.4 0.7 119.2q0.3 30.9 3.8 59q4.55 -39.05 2.9 -79.9q8.85 -17.05 15.65 -35.15q5.7 29.9 14.1 57.25q4.05 -5 2.65 -12q-11.25 -56.6 -25.7 -111.9q8.55 -27.05 20.95 -52.45q6.95 -14.2 7.95 -28.1q-7.5 11.25 -13.75 24.25q-8.45 22.05 -15.8 44.85q-7.55 23.5 -20.55 44.45q-2.6 -42.75 -0.5 -85.1q0.8 -16.55 -3.45 -29.55q-2.35 4 -0.35 8.55q-4.9 21.9 -5.45 46.15q-1.4 59.3 -2.35 118.5q-1 59.6 -1.1 119.25q-0.05 59.7 -2.6 119.2q-2.5 59.3 -4.75 118.5q-0.95 0.1 -0.7 -1.05q-2.05 6.4 4.5 14q0.9 -0.6 1 -1.35q4.2 -28.8 5.2 -58.35q1.95 -59.15 3.55 -118.55q1.6 -59.5 0.25 -119.2q-1.35 -59.8 2.05 -119.3q3.4 -60.05 1.45 -118.45q-5.25 57.6 -7.9 115.55q-0.5 11.5 2.4 22.8q0.85 3.2 2 6.4q5.65 -28.6 4.65 -58.05q22.9 -5.8 31.5 -29.45q2.85 -7.75 3.2 -15.85q0.25 -5.85 -1.05 -11.55q-3.05 -13 -10.8 -23.85q5.9 36.25 -28.7 47.3q0.45 -34.2 -0.9 -67.9q9.85 -2.75 17.85 4.25q9.9 5 11.75 16.35q-1.5 32.35 -0.75 65.25q-4.9 58.85 -5.05 118.5q-0.05 9.8 -3.55 11.75q0.15 2.3 1.35 4.5q-2.3 6.45 2.75 9.45q5.05 -15.35 5.2 -32.7q0.3 -37.65 1.95 -75.05q2.9 28.85 11.8 57.35q9.4 29.85 21.05 55.7q2.1 -3.8 0.75 -7.95q-17.3 -53.35 -31.5 -106.9q27.95 -25.4 25.5 -64.7q-1.85 -29.4 -29.5 -35.15q-3.4 0.65 -6.9 2.65q-1.2 0.7 -2.1 1.85q-0.5 0.1 -0.5 0.25q5.4 22.45 -6.1 42.35q-7.4 12.8 -19.55 21.4q4.7 -42.2 -0.1 -84.25q23.95 -6 30.15 20q-2.3 -0.65 -4.15 0q-0.7 1.8 -0.85 3.75q-3.15 14.8 -3.75 31.2q-2.2 59.2 -1.45 118.55q0.75 59.7 2.6 119.2q1.9 59.7 -0.7 119.25q-2.6 59.2 -6.3 117.75q-1.55 -6.7 -1.75 -13.5q-0.85 8.45 0.1 16.1q-0.7 -0.1 -0.6 1.4q1.4 7.65 4.75 14.45q33.15 4.85 53.5 -21.9q25.85 -34 40.8 -74.5q20.45 -55.5 25.7 -115.05q5.25 -59.25 2.95 -119.25q-2.2 -59.05 -21.65 -115.2q-17.4 -50.2 -63.3 -76.3q-11.7 -3.95 -23.8 -6q56.95 22.75 74.4 82.6q16.55 56.6 17.3 115.65q0.8 60.35 -6.1 119.35q-7.1 60.65 -33.4 115.2q-3.55 7.25 -6.65 14.45q-20.5 47.25 -69.5 47.7q4.2 -34.45 6.05 -69.95q3 -59.2 1.8 -119.25q-1.2 -59.6 -1.65 -119.25q-0.35 -44.7 0.3 -89.25q0.75 -52.15 -0.2 -102.95q9.15 2.3 17.65 5.7q-2.5 0.9 -4.9 2.05q0.25 -2.75 -1.75 -4.15q-12.15 -3.5 -22.95 1.3q-6.8 28.6 -2.35 57.15q0.4 2.75 2.2 4.95q-6.55 -1.8 -13.9 1.15q-5.9 16.2 -7.3 33.25q-0.75 9.2 -3.95 17.95q-2.1 5.85 -1.05 11.85q0.7 3.8 2.9 4.8q-3.8 19.55 -8.15 39.15q-2.7 12.05 0.25 23.5q0.95 3.7 3.5 4.5q2.8 6.75 5.95 13.25q4.4 9 10.5 16.9q0.25 -6.8 -2.6 -13.75q-4.2 -10.15 -10.05 -19.25q4.15 -4.55 6.5 -10.1q1.8 -4.25 0.95 -8.75q-0.7 -3.65 -2.75 -6.75q6.55 -15.05 10.6 -30.95q3.6 -14.15 4.6 -28.8q0.5 -6.9 0.15 -13.95q-1.35 5.65 -6.4 9.45q-2.2 1.65 -4.7 2.7q-11.35 9.3 -14.1 24.3q-3.85 21.4 -5.4 43.35q-2.05 28.65 4.55 56.1q2.05 8.4 10.45 8.15q20.05 -0.5 16 -18.65q-10.6 14.45 -23.75 4.5q-1.6 -7.45 -1.9 -15q-0.8 -29.1 17 -48.75q1.45 0.15 2.4 1.15q5.6 5.55 9.35 12.1q1.05 -0.85 1.1 -2.25q0.35 -12.35 -10.1 -19.5q-6.3 5.75 -6.05 15q0.05 3 1.5 5q12 16.8 3.8 34q-4.9 1.05 -7.7 -3.25q0.5 -2.15 0.05 -4.6q-0.5 -2.85 -3.05 -2.65q-1.55 1.9 -1.9 4.4q-1.5 9.95 5.15 16.6q5.25 2.2 10.5 0.25q3.5 -3.3 5.15 -8.1q7.6 -22 -6.65 -40.4q-0.05 -1.8 0.45 -3.8q0.75 -3.3 4.05 -2.95q2.3 1.5 3.05 3.9q1.15 3.75 3.7 3.6q1.05 -1.7 1.15 -3.75q0.35 -8.3 -6.4 -13.5<g id="1728" transform="matrix(1, 0, 0, 1, -24.15, 0)">
<path style="fill:#000000;fill-opacity:1" d="M500.65,51.9Q494.05 33.95 477.5 23.75Q471.2 19.85 464.45 16.75Q442.2 15.55 423.95 28Q399.75 66 409.7 111.7Q417.05 145.4 433.95 175.7Q437.6 182.15 440.35 189.2Q462.95 246.55 487.6 302.85Q510.5 355.1 518.7 411.2Q527 467.8 510.95 521.7Q506.95 535.15 494.25 542.6Q454.8 565.75 423.6 531.5Q389.95 494.55 397.45 443.2Q397.1 443.35 396.85 443.6L394.15 446.4L393.2 447.2Q392.95 446.85 393.05 446.7L399.5 436.75Q400.55 435.05 402.45 434.95Q405.55 449.9 405.9 466.45Q406.7 505.9 441.1 526.85Q472.65 546.05 499.6 519.35Q511.5 507.6 513.2 490.5Q518.95 432.55 504.65 376.4Q490.2 319.85 465.25 267Q443.1 220.15 422.6 172.45Q417 159.35 411.85 145.9Q389.4 86.6 414.45 28.95Q422.7 9.9 444.35 4.8L448.95 3.5Q485.35 3.85 503.45 35.7Q513.7 53.85 510.2 72.75Q504.85 63.4 500.65 51.9M325.55,275.45L325.95 274.75Q330.2 287.75 329.4 304.3Q327.3 346.65 329.9 389.4L331.1 387.3Q344.1 366.35 351.65 342.85Q359 320.05 367.45 298Q373.7 285 381.2 273.75Q380.2 287.65 373.25 301.85Q360.85 327.25 352.3 354.3L348.9 364.55Q363.35 419.85 374.6 476.45Q376 483.45 371.95 488.45Q363.55 461.1 357.85 431.2L346.5 371.15Q339.7 389.25 330.85 406.3Q332.5 447.15 327.95 486.2Q324.45 458.1 324.15 427.2Q323.6 367.4 323.45 308Q323.4 295.8 325.2 284Q323.2 279.45 325.55 275.45M253.45,6Q255.4 64.4 252 124.45Q248.6 183.95 249.95 243.75Q251.3 303.45 249.7 362.95Q248.1 422.35 246.15 481.5Q245.15 511.05 240.95 539.85Q240.85 540.6 239.95 541.2Q233.4 533.6 235.45 527.2Q235.2 528.35 236.15 528.25L236.7 527.7Q238.95 468.5 241.45 409.2Q244 349.7 244.05 290Q244.15 230.35 245.15 170.75Q246.1 111.55 247.5 52.25Q248.05 28 252.95 6.1L253.45 6M282.2,67L296.2 73.5Q303.95 84.35 307 97.35Q308.3 103.05 308.05 108.9Q307.7 117 304.85 124.75Q296.25 148.4 273.35 154.2Q274.35 183.65 268.7 212.25Q267.55 209.05 266.7 205.85Q263.8 194.55 264.3 183.05Q266.95 125.1 272.2 67.5L272.5 68.7L272.7 68.5L282.2 67M290.45,80.25Q282.45 73.25 272.6 76Q273.95 109.7 273.5 143.9Q308.1 132.85 302.2 96.6Q300.35 85.25 290.45 80.25M175.2,136.25L175.65 138.8L175.95 138Q176.85 136.85 178.05 136.15Q181.55 134.15 184.95 133.5Q212.6 139.25 214.45 168.65Q216.9 207.95 188.95 233.35Q203.15 286.9 220.45 340.25Q221.8 344.4 219.7 348.2Q208.05 322.35 198.65 292.5Q189.75 264 186.85 235.15L181.7 239.25L181 239.45L176.1 238.95Q174.45 276.35 174.15 314Q174 331.35 168.95 346.7Q163.9 343.7 166.2 337.25Q165 335.05 164.85 332.75L165.2 332.75Q168.7 330.8 168.75 321Q168.9 261.35 173.8 202.5L173.95 201.75Q173.2 168.85 174.7 136.5Q174.7 136.35 175.2 136.25M176.45,144Q181.25 186.05 176.55 228.25L180.95 227.75Q193.1 219.15 200.5 206.35Q212 186.45 206.6 164Q200.4 138 176.45 144M67.3,15.5L69.5 16Q115.4 42.1 132.8 92.3Q152.25 148.45 154.45 207.5Q156.75 267.5 151.5 326.75Q146.25 386.3 125.8 441.8Q110.85 482.3 85 516.3Q64.65 543.05 31.5 538.2L31.1 538L30.5 541.95Q27.15 535.15 25.75 527.5L24.65 527.6L24.55 527.2L24.5 525.7L24.5 524.95Q24.4 523.45 25.1 523.55Q24.15 515.9 25 507.45Q25.2 514.25 26.75 520.95L27 521.7Q30.7 463.15 33.3 403.95Q35.9 344.4 34 284.7Q32.15 225.2 31.4 165.5Q30.65 106.15 32.85 46.95Q33.45 30.55 36.6 15.75L36.65 14.25Q36.8 12.3 37.5 10.5L37.85 10.25L39.25 5L39.35 9.5Q41.2 8.85 43.5 9.5Q55.6 11.55 67.3 15.5M39.6,20.55Q40.55 71.35 39.8 123.5Q39.15 168.05 39.5 212.75Q39.95 272.4 41.15 332Q42.35 392.05 39.35 451.25Q37.5 486.75 33.3 521.2Q82.3 520.75 102.8 473.5Q105.9 466.3 109.45 459.05Q135.75 404.5 142.85 343.85Q149.75 284.85 148.95 224.5Q148.2 165.45 131.65 108.85Q114.2 49 57.25 26.25Q48.75 22.85 39.6 20.55M298.95,243.05L298.7 251.75L280 253.35L277.7 281Q275.9 278.8 275.5 276.05Q271.05 247.5 277.85 218.9L277.95 210.75L278.5 210.35Q289.3 205.55 301.45 209.05Q303.45 210.45 303.2 213.2L302.75 216.15L302.2 218.5L279.5 219.7L280.15 246.25Q282.55 245.1 285.05 244.2Q292.4 241.25 298.95 243.05M300.3,292.7Q299.3 307.35 295.7 321.5Q291.65 337.4 285.1 352.45L287.6 355.8Q289.65 358.9 290.35 362.55Q291.2 367.05 289.4 371.3Q287.05 376.85 282.9 381.4Q288.75 390.5 292.95 400.65Q295.8 407.6 295.55 414.4L295.2 414.5Q289.1 406.6 284.7 397.6Q281.55 391.1 278.75 384.35L271.6 384.55L266.8 414.85Q264.25 414.05 263.3 410.35Q260.35 398.9 263.05 386.85Q267.4 367.25 271.2 347.7L272.15 350.4L273.45 348.95L281.2 348.7L283.85 351.1L271.7 298.5L262.55 346.85Q260.35 345.85 259.65 342.05Q258.6 336.05 260.7 330.2Q263.9 321.45 264.65 312.25Q266.05 295.2 271.95 279L285.2 336.5L300.45 278.75Q300.8 285.8 300.3 292.7M271.5,356.05L272.25 374.75L273.95 376.2L275.95 376.45Q278.45 375.4 280.65 373.75Q285.7 369.95 287.05 364.3L280.95 355.7L271.5 356.05M302.2,414.7Q312.65 421.85 312.3 434.2Q312.25 435.6 311.2 436.45Q307.45 429.9 301.85 424.35Q300.9 423.35 299.45 423.2Q281.65 442.85 282.45 471.95L283.8 516.2Q284.1 523.75 285.7 531.2Q298.85 541.15 309.45 526.7Q313.5 544.85 293.45 545.35Q285.05 545.6 283 537.2Q276.4 509.75 278.45 481.1Q280 459.15 283.85 437.75Q286.6 422.75 297.95 413.45L300 414.15L302.2 414.7M272.85,494.95Q272.75 497 271.7 498.7Q269.15 498.85 268 495.1Q267.25 492.7 264.95 491.2Q261.65 490.85 260.9 494.15Q260.4 496.15 260.45 497.95Q274.7 516.35 267.1 538.35Q265.45 543.15 261.95 546.45Q256.7 548.4 251.45 546.2Q244.8 539.55 246.3 529.6Q246.65 527.1 248.2 525.2Q250.75 525 251.25 527.85Q251.7 530.3 251.2 532.45Q254 536.75 258.9 535.7L261.2 534.95Q269.4 517.75 257.4 500.95Q255.95 498.95 255.9 495.95Q255.65 486.7 261.95 480.95L266.45 481.45Q273.2 486.65 272.85 494.95M321.45,547.05L320.95 548.95L320.5 546.75L321.45 547.05M372.55,545.7L370.95 547.7L370.35 544.9L372.55 545.7" />
</g>
</svg>
