<?xml version="1.0" encoding="utf-8"?>
<svg version="1.1" id="Layer_1"
xmlns="http://www.w3.org/2000/svg"
xmlns:xlink="http://www.w3.org/1999/xlink"


xml:space="preserve">
q-5.2 59.25 -5.25 119.15q-0.1 59.9 3.1 119.25q2.5 47.35 1.85 95.2q9.65 -58.4 21.45 -117q12.1 -60 28.4 -119.45q16.2 -59 26.95 -119q0.65 -3.5 1.7 -6.75q5.45 3.35 4.85 13.6q-3.6 59.05 -5.05 118.4q-1.4 59.75 2.45 119.2q3.95 59.75 11.2 119.05q3.5 28.7 2.55 56.45q-7.1 -11.85 -7.9 -28.95q-2.85 -59.9 -8.2 -119.45q-2.65 -29.85 -3.65 -59.85q-2.05 -59.55 0.5 -119.2q1.25 -28.75 1.5 -57.75q-14.25 58.3 -29.45 117.05q-15.3 59.3 -26.5 119.3q-5.1 -11.95 -4.45 -29.05q2.3 -59.9 -0.7 -119.2q-3 -59.35 -2.05 -119.2q0.85 -53.05 3.2 -105.75q-15.8 58.75 -33.85 117.05q-18.45 59.7 -35.45 119.5q-13.55 47.55 -25.95 93.4q5.95 -44.55 19.2 -88.85q17.8 -59.55 36.35 -119.15q18.45 -59.3 33.9 -119.1q3.75 -14.55 8.05 -27.6q4.95 13.05 3.55 29.6q-2.7 58.7 -4.95 118.45q-2.25 59.5 -1.4 119.25q0.1 7.3 -4.4 11.5q0.25 -58.2 2.05 -118.45q1.75 -59.85 6.35 -119.25q0.45 -6.4 2.35 -11.5q46.4 39.15 63.9 97.85q17 57 19.95 116.35q2.95 60.75 -26.15 113.95q-17.6 32.1 -48.15 52.15q-23.15 15.2 -49.55 4.6q-36.7 -14.7 -67.95 -39.05q-0.85 -1.8 -0.8 -3.75q1.15 -1.55 2.65 -0.2q14.9 13.35 31.9 22.5q-0.2 -2.5 0.6 -5.5q3.9 -11.65 4 -27.5q0.25 -58.7 1.15 -117.7q0.9 -59.65 -2.55 -119.2q-1.55 -26.9 -4.95 -53.9q-3.4 -26.95 -2.65 -51.65q8.95 57.75 11.75 117.05q2.8 59.55 2.2 119.2q-0.65 59.85 -0.9 119.2q-0.05 12.1 -2.3 23.25q19.7 9.5 42.1 13.6q17.35 3.15 31.5 -6.45q43.45 -29.45 60.15 -78.8q19.3 -56.9 9.65 -116.25q-7.1 -43.9 -21.7 -86.15q-19 -55.1 -66.4 -88.2q-29.2 -20.35 -65.8 -20.95q-7.6 -0.1 -14.5 -2q-0.45 -1.45 -0.4 -3q0 -1.2 0.35 -2.25q31.2 4.15 61.55 12.95q15 4.4 27.15 14.65<g id="1720" transform="matrix(1, 0, 0, 1, -40.9, 0)">
<path style="fill:#000000;fill-opacity:1" d="M386.5,130.85Q381.3 190.1 381.25 250Q381.15 309.9 384.35 369.25Q386.85 416.6 386.2 464.45Q395.85 406.05 407.65 347.45Q419.75 287.45 436.05 228Q452.25 169 463 109Q463.65 105.5 464.7 102.25Q470.15 105.6 469.55 115.85Q465.95 174.9 464.5 234.25Q463.1 294 466.95 353.45Q470.9 413.2 478.15 472.5Q481.65 501.2 480.7 528.95Q473.6 517.1 472.8 500Q469.95 440.1 464.6 380.55Q461.95 350.7 460.95 320.7Q458.9 261.15 461.45 201.5Q462.7 172.75 462.95 143.75Q448.7 202.05 433.5 260.8Q418.2 320.1 407 380.1L384.7 499.2Q379.6 487.25 380.25 470.15Q382.55 410.25 379.55 350.95Q376.55 291.6 377.5 231.75Q378.35 178.7 380.7 126Q364.9 184.75 346.85 243.05Q328.4 302.75 311.4 362.55Q297.85 410.1 285.45 455.95Q291.4 411.4 304.65 367.1Q322.45 307.55 341 247.95Q359.45 188.65 374.9 128.85Q378.65 114.3 382.95 101.25Q387.9 114.3 386.5 130.85M283.2,140.25Q280.5 198.95 278.25 258.7Q276 318.2 276.85 377.95Q276.95 385.25 272.45 389.45Q272.7 331.25 274.5 271Q276.25 211.15 280.85 151.75Q281.3 145.35 283.2 140.25M149.7,81.1Q196.1 120.25 213.6 178.95Q230.6 235.95 233.55 295.3Q236.5 356.05 207.4 409.25Q189.8 441.35 159.25 461.4Q136.1 476.6 109.7 466Q73 451.3 41.75 426.95Q40.9 425.15 40.95 423.2L41 420.95L41.05 420.25L41.75 417.95Q42.9 416.4 44.4 417.75L46.75 419.45Q61.65 432.8 78.65 441.95Q78.45 439.45 79.25 436.45Q83.15 424.8 83.25 408.95Q83.5 350.25 84.4 291.25Q85.3 231.6 81.85 172.05Q80.3 145.15 76.9 118.15Q73.5 91.2 74.25 66.5Q83.2 124.25 86 183.55Q88.8 243.1 88.2 302.75Q87.55 362.6 87.3 421.95Q87.25 434.05 85 445.2Q104.7 454.7 127.1 458.8Q144.45 461.95 158.6 452.35Q202.05 422.9 218.75 373.55Q238.05 316.65 228.4 257.3Q221.3 213.4 206.7 171.15Q187.7 116.05 140.3 82.95Q111.1 62.6 74.5 62Q66.9 61.9 60 60Q59.55 58.55 59.6 57Q59.6 55.8 59.95 54.75L60.35 54.1L60.95 53.65L61 53.5Q92.2 57.65 122.55 66.45Q137.55 70.85 149.7 81.1" />
</g>
</svg>
