<?xml version="1.0" encoding="utf-8"?>
<svg version="1.1" id="Layer_1"
xmlns="http://www.w3.org/2000/svg"
xmlns:xlink="http://www.w3.org/1999/xlink"


xml:space="preserve">
q-11.25 -0.5 -22.5 -0.6q-32 -1.05 -61.5 7.25q-1.45 4.05 -0.1 8.2q21.4 -0.25 43.2 -1.2q-4.3 25.3 -5.05 52.7q-1.55 59.4 -1.9 118.45q0.3 1.7 2 2q5.45 -29.4 5.85 -62q0.65 -56.35 0.45 -111.2q3.55 -5.25 1.05 -11.05q-0.35 -0.4 -0.75 -0.4q-2.2 -39.5 -0.65 -82.2q-5.2 7.9 -5.35 17.5q-4.75 18.55 -4.7 37.5q-1 45.75 -1 90.4q5.2 -7.8 5.75 -19.85q1.1 -31.1 0.65 -62.3q-0.15 39.5 -3.85 78.85q-0.25 2.8 0.2 5.65q0.9 5.35 4.1 9.55q5.2 -34.6 5.35 -69.75q-2.25 -0.15 -2.35 2.25q-1.2 33.35 -2.05 67.5q-1.45 59.6 -5.1 118.45q0.7 2.8 3.25 1.5q21.55 0.95 42.75 -4.1q13.5 -3.2 20.55 -14.45q32.65 -52 17.85 -113.45q-13.05 -54.5 -69.4 -55.7q22.85 0.2 41.6 12.55q18.2 12 25.4 33.8q6.9 20.95 5.4 42.9q-1.4 21.15 -10.4 40.55q-9.4 20.25 -31.95 26.2q-17.1 4.45 -34.75 4.5q7.85 -79.35 4.3 -159.05q-2.4 5.8 1.2 10.65q6.5 -8.55 3 -19.2q-5.2 2.65 -4.25 8.5q2.25 -32 1.45 -63q-9.2 34.55 -6.5 73.25q0.25 3.6 3.65 3.85q24.05 1.8 22.85 -20.1q-10 4.9 -21.5 6.75<g id="1723" transform="matrix(1, 0, 0, 1, -143, 0)">
<path style="fill:#000000;fill-opacity:1" d="M381.2,184.5L381.5 185.2Q384 191 380.45 196.25L341.25 198.5Q341.45 253.35 340.8 309.7Q340.4 342.3 334.95 371.7Q333.25 371.4 332.95 369.7Q333.3 310.65 334.85 251.25Q335.6 223.85 339.9 198.55Q318.1 199.5 296.7 199.75L296.35 198.95Q295 194.8 296.45 190.75Q325.95 182.45 357.95 183.5Q369.2 183.6 380.45 184.1Q380.85 184.1 381.2 184.5M422.55,272.2L421.2 278.2L419.2 278.55L419.05 303.7Q418.9 338.85 413.7 373.45Q410.5 369.25 409.6 363.9Q409.15 361.05 409.4 358.25Q413.1 318.9 413.25 279.4L380 281.7Q380.45 312.9 379.35 344L378.95 353.65Q378.4 365.7 373.2 373.5Q373.2 328.85 374.2 283.1L374.5 253.25Q374.45 234.3 379.2 215.75L379.95 271.1L413.6 266.75L414.85 202.75Q415 193.15 420.2 185.25Q418.65 227.95 420.85 267.45L422.55 272.2M153,181.15L159 180.5Q215.35 181.7 228.4 236.2Q243.2 297.65 210.55 349.65Q203.5 360.9 190 364.1Q168.8 369.15 147.25 368.2L146.75 367.85L146.25 370.45Q143.7 371.75 143 368.95Q146.65 310.1 148.1 250.5Q148.95 216.35 150.15 183Q150.25 180.6 152.5 180.75L152.75 181.25L153 181.15M153.6,193.45Q157.15 273.15 149.3 352.5Q166.95 352.45 184.05 348Q206.6 342.05 216 321.8Q225 302.4 226.4 281.25Q227.9 259.3 221 238.35Q213.8 216.55 195.6 204.55Q176.85 192.2 154 192L153.6 193.45M273.2,252.25L274.95 253.75Q278.45 264.4 271.95 272.95Q268.35 268.1 270.75 262.3L269 261.05L268.95 260.75Q268 254.9 273.2 252.25M268.7,345.7Q280.2 343.85 290.2 338.95Q291.4 360.85 267.35 359.05Q263.95 358.8 263.7 355.2Q261 316.5 270.2 281.95Q271 312.95 268.75 344.95L268.7 345.7" />
</g>
</svg>
