<?xml version="1.0" encoding="utf-8"?>
<svg version="1.1" id="Layer_1"
xmlns="http://www.w3.org/2000/svg"
xmlns:xlink="http://www.w3.org/1999/xlink"


xml:space="preserve">
q-5.55 -0.1 -10.9 1.35q-0.1 0.75 -0.05 1.55q-5.35 44 -5.05 90.7q0.2 30.2 -3.4 59.85q-2.05 16.9 4 29.4q6.25 -35.1 6.85 -72q10.15 1.9 20.3 -0.1q28.55 -5.55 41.85 -29.35q9.25 -16.65 3.75 -35.3q-11.65 -39.55 -55.4 -40.35q0.25 -40.55 -0.85 -80.25q23.95 -0.5 43.5 11.6q30.35 18.9 13 49.15q-24.45 19.5 -55.65 19.5q-1.2 2.05 -1.2 4.5q-3.8 14.85 -3.2 32.3q2 59.7 -1.05 119.1q-0.9 17.4 5.4 29.05q30.15 9.95 55.4 -4.6q12.15 -5.2 17.75 -17.2q23.7 -50.8 6.85 -106.05q-15.7 -51.7 -69.55 -55.7q-1.65 0.9 -4 1.3q-2.9 0.45 -5.4 1.4q-0.05 -53.45 -1.85 -105.4q49.4 -4.55 71.45 40.45q4.7 12.7 6 26.3q1.1 11 2.75 21.65q-0.95 14.95 -3.8 29.35q-3.6 18.1 -19.6 27.65q-26.5 15.8 -56.75 7.95q1.85 -23.65 1.8 -47.95q-14.3 35.95 0 71.15q3.7 9.2 13.2 11.45q13.9 3.25 26.75 -3.65q19.4 -10.3 13 -30.95q-6.25 16 -23.15 18.75q-31.15 5.2 -26.25 -29.65q3.2 -5.1 0.95 -10.55q-0.7 -1.75 -1.6 -3.35q-18.3 0.5 -35.6 6.4q18.6 -13.8 38.75 0.95q-3 -23.85 -27.05 -23.7q-17.5 0.1 -24.95 18.75<g id="1737" transform="matrix(1, 0, 0, 1, -145.45, 0)">
<path style="fill:#000000;fill-opacity:1" d="M358.95,183.75Q402.7 184.55 414.35 224.1Q419.85 242.75 410.6 259.4Q397.3 283.2 368.75 288.75Q358.6 290.75 348.45 288.85L348.3 297.45Q347.7 334.35 341.45 369.45Q335.4 356.95 337.45 340.05Q341.05 310.4 340.85 280.2Q340.55 233.5 345.9 189.5Q345.85 188.7 345.95 187.95L346.15 187.15L347.2 179L347.45 185.45L348.05 185.2Q353.4 183.75 358.95 183.85L358.95 183.75M404.2,254.75Q421.55 224.5 391.2 205.6Q371.65 193.5 347.7 194Q348.8 233.7 348.55 274.25Q379.75 274.25 404.2 254.75M159,183.05Q161.35 182.65 163 181.75Q216.85 185.75 232.55 237.45Q249.4 292.7 225.7 343.5Q220.1 355.5 207.95 360.7Q182.7 375.25 152.55 365.3L151.75 372.2Q145.45 360.55 146.35 343.15Q149.4 283.75 147.4 224.05Q146.8 206.6 150.6 191.75L150.55 189.75Q150.55 187.3 151.75 185.25L152.7 184.85L153.5 182.5L153.6 184.45Q156.1 183.5 159 183.05M154.05,348.9Q184.3 356.75 210.8 340.95Q226.8 331.4 230.4 313.3Q233.25 298.9 234.2 283.95Q232.55 273.3 231.45 262.3Q230.15 248.7 225.45 236Q203.4 191 154 195.55Q155.8 247.5 155.85 300.95Q155.9 325.25 154.05 348.9M282.45,267.95Q306.5 267.8 309.5 291.65L307.3 290.25Q287.15 275.5 268.55 289.3L259.85 312.1Q277.15 306.2 295.45 305.7Q296.35 307.3 297.05 309.05Q299.3 314.5 296.1 319.6L258.55 323.7Q253.65 358.55 284.8 353.35Q301.7 350.6 307.95 334.6L310.45 334.7Q316.85 355.35 297.45 365.65Q284.6 372.55 270.7 369.3Q261.2 367.05 257.5 357.85Q243.2 322.65 257.5 286.7Q264.95 268.05 282.45 267.95" />
</g>
</svg>
