<?xml version="1.0" encoding="utf-8"?>
<svg version="1.1" id="Layer_1"
xmlns="http://www.w3.org/2000/svg"
xmlns:xlink="http://www.w3.org/1999/xlink"


xml:space="preserve">
q16.7 57.55 7.5 117.55q-9.05 58.9 -35.9 111.25q-23.15 45 -74 43.45q2.95 -24.3 3.3 -49.35q0.75 -59.8 0.1 -119.2q-0.6 -59.65 0.05 -119.25q0.4 -38 -2.2 -74.75q9.35 2.55 19.35 4.35q11.3 2.05 21.45 7.5q11.35 6.05 21.15 14.75q29.9 26.6 41.1 65.1q-0.55 0.95 -0.65 2.1q-1.05 8.5 -0.9 17.45q1.15 59.5 0.6 119.25q-0.5 59.7 0.35 119.2q0.8 54.6 -2.5 108.05q-1.4 -0.35 -2.7 0.45q-2.3 2.55 -2.4 6q-0.05 3.1 1.75 5q16.6 17.55 42.05 4.6q31.7 -16.05 48.7 -48q12 -22.6 19.25 -47.45q16.55 -56.95 17.3 -116.6q0.8 -60.5 -26.4 -113.65q-28.7 -56.15 -92.7 -60.55q-0.5 0.1 -0.55 0.35q-3.6 4.75 -4.95 11.35q-10.1 49.05 -17.6 98.5q-8.85 58.35 -22.05 116q-2.5 10.85 -5.95 21.25q-5.7 17.05 1.35 28.75q3.3 -7.45 4.9 -15.6q9.85 -49.2 17.85 -98.7q18.2 2.3 36.65 -1.75q7.35 58.4 10.35 117.6q1.65 31.65 12.2 58.45q3.05 -3.9 2.25 -8.95q-9.3 -57.75 -13.45 -116.95q-4.15 -58.95 -11.7 -117.3q-6.9 -53 -11.4 -105.95q0.35 -5.6 0.05 -11.05q-1.75 -25.8 -31.5 -26.75q-5.1 0.9 -10.05 2.95q-7.2 2.95 -12.45 8.8q-10.7 21.3 -14.65 45.2q-9.5 56.9 -13.55 114.6q-2.05 29.55 -4.8 59.05q-5.7 60.2 10.15 117.9q2.1 7.85 7.4 13.85q21.2 24.25 46.9 1.85q11.75 -10.2 21.7 -22.05q14.95 -17.85 9.35 -36.2q-5.85 6.2 -9.8 14.35q-14.5 30.25 -46.4 38.95q-8.6 2.35 -13.15 -4.6q-18.6 -28.5 -19.85 -64.15q-1.4 -40.55 0.6 -81.1q2.85 -58.45 9.35 -116.25q4.05 -36.35 19 -69.65q2 -1.65 3.7 -3.6q27.2 -11.15 45 10.75q4.45 41.15 9.4 82.25q8.75 -56.15 21.3 -111.55q-0.2 16.05 1.6 32.7q0 1.35 0.45 2.35q0.6 32 0.15 64.95q-0.6 1.45 -0.7 3.2q-0.1 2.55 0.55 5q-0.65 28.95 -4.05 57.55q-1.6 13.5 3.6 21.7q2.8 -11.55 3.15 -23.9q5.8 16.85 13.05 33.45q9.35 21.4 22.3 37.35q1.35 -1.65 0.75 -3.5q-12.05 -36.25 -32.35 -68.25q21.2 -6.45 23.95 -32.4q4.15 -38.4 -28.6 -57.85q-1.55 1.35 -2.45 3.1q-0.55 3 -0.5 6q24.65 4.3 29.85 30.35q4.7 23.65 -14.6 35.3q-6.9 4.25 -14.85 3.55q-22.65 -48.3 -69.85 -72q-5.25 -0.15 -10.5 0.05q-2.5 1.7 -1.9 5.35q0.1 1.05 0.6 1.95q-6.75 55.85 -6.9 113.05q-0.2 59.75 -1.25 119.25q-1.05 59.6 -4.15 119.15q-0.4 7.8 0.6 14.4q-1.2 2.7 -1.5 5.7q-0.25 2.7 0.45 5.3q0.6 2.3 2.5 3.65q4.25 1.05 8.05 3.35q5.35 3.2 11.2 1.65q45.5 -13.9 75.75 -49.45q7.3 -8.55 11.05 -18.9q18.95 -51.75 22.45 -107.3q3.75 -59.65 -14.1 -116.65q-4.8 -15.3 -11.55 -29.65q25.05 11.7 41.85 33.3q38.9 50 45.4 112.2q6.2 59.2 -4.65 118q-4.9 26.4 -19.5 48.05q-22.6 33.4 -60.4 48.95q-17.05 7.05 -32.1 1.65q2.05 -37.45 3.1 -75.45q1.65 -59.85 1.25 -119.2q-0.35 -59.85 2.5 -119.25q1.25 -25.6 1.85 -50.1q-21.65 -5.55 -42.55 4.15q21.25 -3.6 44.1 -3.15q2.95 -2.65 2.75 -6.8q-0.1 -2.3 -1.15 -4.5<g id="1744" transform="matrix(1, 0, 0, 1, -56.3, 0)">
<path style="fill:#000000;fill-opacity:1" d="M489.25,125.6Q479.45 116.9 468.1 110.85Q457.95 105.4 446.65 103.35Q436.65 101.55 427.3 99Q429.9 135.75 429.5 173.75Q428.85 233.35 429.45 293Q430.1 352.4 429.35 412.2Q429 437.25 426.05 461.55L427.95 462.95Q478.8 464.5 501.95 419.5Q528.8 367.15 537.85 308.25Q547.05 248.25 530.35 190.7Q519.15 152.2 489.25 125.6M424.85,90.05L425.65 85.6Q425.7 85.35 426.2 85.25L426.5 88.8Q490.5 93.2 519.2 149.35Q546.4 202.5 545.6 263Q544.85 322.65 528.3 379.6Q521.05 404.45 509.05 427.05Q492.05 459 460.35 475.05Q434.9 488 418.3 470.45Q416.5 468.55 416.55 465.45Q416.65 462 418.95 459.45Q420.25 458.65 421.65 459Q424.95 405.55 424.15 350.95Q423.3 291.45 423.8 231.75Q424.35 172 423.2 112.5Q423.05 103.55 424.1 95.05L424.1 92.25Q424.2 91.1 424.75 90.15L424.85 90.05M372.35,89.3L373.2 88.25Q373.5 93.7 373.15 99.3Q377.65 152.25 384.55 205.25Q392.1 263.6 396.25 322.55Q400.4 381.75 409.7 439.5Q410.5 444.55 407.45 448.45Q396.9 421.65 395.25 390Q392.25 330.8 384.9 272.4L382.1 249.65Q363.65 253.7 345.45 251.4Q337.45 300.9 327.6 350.1Q326 358.25 322.7 365.7Q315.65 354 321.35 336.95Q324.8 326.55 327.3 315.7Q340.5 258.05 349.35 199.7Q356.85 150.25 366.95 101.2Q368.3 94.6 371.9 89.85L372.2 87.75L372.35 89.3M333.2,102.5Q315.4 80.6 288.2 91.75L287.1 93.1L285.4 94.9Q283.7 96.85 281.7 98.5Q266.75 131.8 262.7 168.15Q256.2 225.95 253.35 284.4Q251.35 324.95 252.75 365.5Q254 401.15 272.6 429.65Q277.15 436.6 285.75 434.25Q317.65 425.55 332.15 395.3Q336.1 387.15 341.95 380.95Q347.55 399.3 332.6 417.15Q322.65 429 310.9 439.2Q285.2 461.6 264 437.35Q258.7 431.35 256.6 423.5Q240.75 365.8 246.45 305.6Q249.2 276.1 251.25 246.55Q255.3 188.85 264.8 131.95Q268.75 108.05 279.45 86.75Q284.7 80.9 291.9 77.95Q296.85 75.9 301.95 75Q331.7 75.95 333.45 101.75L333.2 102.5M369.55,121.95Q357 177.35 348.25 233.5L346.9 242.1L380.55 236.9Q375.6 195.8 371.15 154.65Q369.35 138 369.55 121.95M196.2,79Q197.1 77.25 198.65 75.9L201.45 73.25L208.45 73Q241.2 92.45 237.05 130.85Q234.3 156.8 213.1 163.25Q233.4 195.25 245.45 231.5Q246.05 233.35 244.7 235Q231.75 219.05 222.4 197.65Q215.15 181.05 209.35 164.2L201.15 165.25L199.7 214.25Q199.35 226.6 196.55 238.15L195.7 239.75Q190.5 231.55 192.1 218.05Q195.5 189.45 196.15 160.5Q195.5 158.05 195.6 155.5Q195.7 153.75 196.3 152.3Q196.75 119.35 196.15 87.35Q195.7 86.35 195.7 85Q195.65 82 196.2 79M199.95,86.15L201.5 153.3Q209.45 154 216.35 149.75Q235.65 138.1 230.95 114.45Q225.75 88.4 201.1 84.1L199.95 86.15M173.9,173.15Q191.75 230.15 188 289.8Q184.5 345.35 165.55 397.1Q161.8 407.45 154.5 416Q124.25 451.55 78.75 465.45Q72.9 467 67.55 463.8Q63.75 461.5 59.5 460.45Q57.6 459.1 57 456.8Q56.3 454.2 56.55 451.5Q56.85 448.5 58.05 445.8Q57.05 439.2 57.45 431.4Q60.55 371.85 61.6 312.25Q62.65 252.75 62.85 193Q63 135.8 69.75 79.95Q69.25 79.05 69.15 78L69 76.5Q68.4 72.85 70.9 71.15L71 71L82 71.55Q87.25 71.35 92.5 71.5Q139.7 95.2 162.35 143.5Q169.1 157.85 173.9 173.15M72.3,81.9Q71.7 106.4 70.45 132Q67.6 191.4 67.95 251.25Q68.35 310.6 66.7 370.45Q65.65 408.45 63.6 445.9Q78.65 451.3 95.7 444.25Q133.5 428.7 156.1 395.3Q170.7 373.65 175.6 347.25Q186.45 288.45 180.25 229.25Q173.75 167.05 134.85 117.05Q118.05 95.45 93 83.75L76 82.2L72.3 81.9M303.7,241.7Q303.9 245.85 300.95 248.5Q278.1 248.05 256.85 251.65L256.7 242L259.65 240.65Q280.55 230.95 302.2 236.5L302.55 237.2Q303.6 239.4 303.7 241.7" />
</g>
</svg>
