<?xml version="1.0" encoding="utf-8"?>
<svg version="1.1" id="Layer_1"
xmlns="http://www.w3.org/2000/svg"
xmlns:xlink="http://www.w3.org/1999/xlink"


xml:space="preserve">
q-51.2 -1.75 -101.5 8.25q-5.9 78.6 -4.65 157.35q0.1 7.15 0.65 14.35q4.8 -19.25 5.15 -40q0.45 -35.9 2.2 -71.65q0.9 -18.6 -1.25 -37.2q5.15 -6.5 0.3 -12.8q-6.15 11 -2.25 23.1q0.7 2.15 1.95 0.65q4.95 -11.75 0.5 -23.7q-1.25 38.3 -5.8 75.75q-7.7 4.1 -13 -0.75q-1.4 0.1 -2.55 -0.65q-2.5 -3.45 -6 -2.5q-1.2 1.25 -1.45 3.05q-2.45 19.25 19.2 18.8q4.65 -0.1 6.3 -4.05q7.95 -19.3 8.65 -41.25q0.85 -26.9 -1.95 -52.5q-3.1 0.6 -3.2 4.45q-6.15 0 -12.35 1.8q-5.4 19.8 -5 41.9q1.15 59.9 -4.15 119.1q-0.95 10.5 0.6 19.7q-0.15 1.4 0 2.95q0.25 2.65 1.75 4.6q4 -0.4 7.45 -1.8q39.85 -16.05 50.1 -59.25q2.85 -11.95 3.5 -24.1q3.1 -53.5 -35.55 -89.85q-1.5 -0.25 -2.55 -1.1q-11.45 -9.6 -25.95 -10.15q0.7 -50.85 -0.3 -100.4q24 -3.45 41.55 14.15q45.65 45.65 19.95 104q-18.7 42.45 -65.1 37.35q3.5 -27.2 3.9 -55.1q-28.9 30.95 -23.4 75.65q1.55 12.8 10.45 21.8q17.6 17.9 40.5 -1.3q15.1 -12.65 4.4 -25.15q-9 14.35 -26.2 19.2q-12.6 3.5 -16.9 -8.5q-5.05 -14.05 -4.75 -27.4q16.2 -4.05 33.35 -5.55q4.05 -7.4 -0.65 -14.2q-16.65 0.5 -31.75 7.2q3.15 -13.85 12.25 -26.95q21.6 -7.3 39.25 2.25q0.7 -1.85 0.25 -3.55q-5.35 -20.65 -30.5 -16.4q-3.95 0.5 -6.95 3.7<g id="1747" transform="matrix(1, 0, 0, 1, -139.85, 0)">
<path style="fill:#000000;fill-opacity:1" d="M423.15,197.2L364.7 197.85Q366.85 216.45 365.95 235.05Q364.2 270.8 363.75 306.7L363.4 329.15Q363.05 349.9 358.25 369.15L356.2 369.7Q355.65 362.5 355.55 355.35Q354.3 276.6 360.2 198L321.3 199.55L320.45 191Q370.75 181 421.95 182.75L423.45 184.4Q428.3 190.7 423.15 197.2M417.75,241.05Q416.5 242.55 415.8 240.4Q411.9 228.3 418.05 217.3L418.25 217.35Q422.7 229.3 417.75 241.05M418.45,269.5Q421.25 295.1 420.4 322Q419.7 343.95 411.75 363.25Q410.1 367.2 405.45 367.3Q383.8 367.75 386.25 348.5Q386.5 346.7 387.7 345.45Q391.2 344.5 393.7 347.95Q394.85 348.7 396.25 348.6L396.45 348.95Q401.75 353.8 409.45 349.7Q414 312.25 415.25 273.95Q415.35 270.1 418.45 269.5M188.95,192.65Q190 193.5 191.5 193.75Q230.15 230.1 227.05 283.6Q226.4 295.75 223.55 307.7Q213.3 350.9 173.45 366.95Q170 368.35 166 368.75L144.95 368.05L144 369.2L143.15 366.6Q141.65 364.65 141.4 362Q141.25 360.45 141.4 359.05Q139.85 349.85 140.8 339.35Q146.1 280.15 144.95 220.25Q144.55 198.15 149.95 178.35L150.5 178.25L150.65 184.3Q156.85 182.5 163 182.5Q177.5 183.05 188.95 192.65M147.35,351.8Q193.75 356.9 212.45 314.45Q238.15 256.1 192.5 210.45Q174.95 192.85 150.95 196.3Q151.95 245.85 151.25 296.7Q150.85 324.6 147.35 351.8M266.95,267Q292.1 262.75 297.45 283.4Q297.9 285.1 297.2 286.95Q279.55 277.4 257.95 284.7Q248.85 297.8 245.7 311.65Q260.8 304.95 277.45 304.45Q282.15 311.25 278.1 318.65L277.45 319.45Q260.3 320.95 244.1 325Q243.8 338.35 248.85 352.4Q253.15 364.4 265.75 360.9Q282.95 356.05 291.95 341.7Q302.65 354.2 287.55 366.85Q264.65 386.05 247.05 368.15Q238.15 359.15 236.6 346.35Q231.1 301.65 260 270.7Q263 267.5 266.95 267" />
</g>
</svg>
