<?xml version="1.0" encoding="utf-8"?>
<svg version="1.1" id="Layer_1"
xmlns="http://www.w3.org/2000/svg"
xmlns:xlink="http://www.w3.org/1999/xlink"


xml:space="preserve">
q-8 -82.6 -24.15 -161.35q-7.5 30.05 -8.6 62.7q-0.75 22 -3.4 43.9q-2.7 22.05 -5.9 43.95q-4.05 9.5 2 17.75q17.05 -60.7 21.55 -124.8q1.8 -25.35 4.85 -50.4q1.9 -15.6 3.15 -31.3q1.2 -15.65 1.9 -31.45q11.75 77.25 18.4 155.15q0.5 5.65 2.3 11q1.6 4.85 4.6 9.1q3.4 -22.1 7.4 -44.05q7.3 -39.95 14.95 -79.5q4.2 111.05 17 221.45q0.65 5.65 3.15 10.75q2.05 4.15 4.65 5.5q-7.55 -78.05 -14.2 -156.65q-1.85 -22.2 -2.2 -44.45q-0.4 -8.95 -1.35 -17.7q-0.45 -4.7 -0.6 -9.4q-16.7 9.9 -22.3 29.3q-5.4 18.55 -9.1 37.55q-3.55 18.4 -5.45 37.2q-2.15 21.7 -2.65 43.5q-0.45 21 0.95 42.15q1.5 22.55 18.4 37.7q17.4 15.55 36.8 -0.2q17.75 -14.5 20.85 -36.1q0.9 -6.2 -3.25 -11.2q-0.45 -0.25 -0.7 -0.15q-0.5 0.3 -0.55 0.95q-0.1 1.05 0.1 2.2q-7.85 22.75 -30.1 30.25q-6.15 2.15 -12 -0.65q-3.85 -1.8 -6.3 -5.1q-2.8 -3.85 -5.25 -8.15q-7.4 -12.75 -9.5 -27.4q-0.45 -3.35 -0.55 -6.7q-0.8 -29.2 0.7 -58.3q4.35 -3.45 3.1 -10.55q-0.5 -2.7 -2.65 -4.4q-2.55 -62.4 33.3 -111.75q16.25 -2.45 30.85 3.65q-10.5 -22.85 -32.55 -9.7q-7.8 24.55 -12.9 51.7q-5.15 27.4 -11.75 54.45q-14.05 57.7 -25.25 115.75q-2.8 14.7 -7.3 28.85q-4.55 14.25 4.2 20.7q5.1 -20.05 8.9 -40.45q6.55 -35.2 14.1 -70.25q23.45 -1.1 45.65 0.45q7.8 44.7 11.9 89.95q1.5 16.3 8.7 28.3q1.25 -0.8 1.2 -2.2q-2.15 -51.2 -12.45 -101.9q-6 -29.25 -10.3 -58.85q-8.6 -58.55 -13.7 -116.75q-2.85 18.3 -3.95 37.3q-3.3 59.3 -4.2 117.75q1.2 2.45 3.7 2.05q23.15 7.45 42.45 -6.8q9.05 -6.65 15.4 -16.2q22.9 -34.3 31.55 -75.45q12.45 -59.05 -1.25 -117.6q-11.7 -50.05 -59.65 -66.45q-9 -1.1 -16.45 4.5q27.8 -7.35 47.45 15.5q29.9 34.75 29.75 81.75q-0.15 60.75 -23.5 116.1q-18.25 43.2 -65.05 39.85q3.85 -41.85 4.75 -84.7q0.6 -29.55 3.7 -59.05q5.85 -55.3 2.45 -110.05q3 18.15 6.8 36.2q-6.95 -1.25 -14 -1.4q-8.8 -0.15 -17.1 2.5q1.15 19.75 3.35 39.4q2.2 19.9 5.45 39.6<g id="1756" transform="matrix(1, 0, 0, 1, -75.75, 0)">
<path style="fill:#000000;fill-opacity:1" d="M365.75,135.95L367.45 131.25L367.6 134.7L367.8 141.75Q367.95 146.45 368.4 151.15L369.65 162.85Q370.6 171.6 371 180.55L371.85 207.45Q372.2 229.7 374.05 251.9Q380.7 330.5 388.25 408.55Q385.65 407.2 383.6 403.05Q381.1 397.95 380.45 392.3Q367.65 281.9 363.45 170.85Q355.8 210.4 348.5 250.35L340.1 296.7Q336.1 318.65 332.7 340.75Q329.7 336.5 328.1 331.65Q326.3 326.3 325.8 320.65Q319.15 242.75 307.4 165.5Q306.7 181.3 305.5 196.95Q304.25 212.65 302.35 228.25Q299.3 253.3 297.5 278.65Q293 342.75 275.95 403.45Q269.9 395.2 273.95 385.7L273.75 385L273.55 383.5L273.55 381.95L278.2 353.45L282.8 324.65L289.4 280.85Q292.6 258.95 295.3 236.9Q297.95 215 298.7 193Q299.8 160.35 307.3 130.3Q323.45 209.05 331.45 291.65L364.95 133.2L365.75 135.95M467.1,147.7L466.8 150.65Q452.2 144.55 435.95 147Q400.1 196.35 402.65 258.75L434.45 258.75Q436.6 260.45 437.1 263.15Q438.35 270.25 434 273.7L401.95 269.75L401.05 286.85Q399.55 315.95 400.35 345.15Q400.45 348.5 400.9 351.85Q403 366.5 410.4 379.25Q412.85 383.55 415.65 387.4Q418.1 390.7 421.95 392.5Q427.8 395.3 433.95 393.15Q456.2 385.65 464.05 362.9L463.95 362.5Q463.75 361.35 463.85 360.3Q463.9 359.65 464.4 359.35Q464.65 359.25 465.1 359.5L467.95 355.95Q472.1 360.95 471.2 367.15Q468.1 388.75 450.35 403.25Q430.95 419 413.55 403.45Q396.65 388.3 395.15 365.75Q393.75 344.6 394.2 323.6L395.05 285.55Q395.55 263.75 397.7 242.05Q399.6 223.25 403.15 204.85Q406.85 185.85 412.25 167.3Q417.85 147.9 434.55 138Q456.6 124.85 467.1 147.7M230.2,126.25Q235.3 184.45 243.9 243Q248.2 272.6 254.2 301.85Q264.5 352.55 266.65 403.75Q266.7 405.15 265.45 405.95Q258.25 393.95 256.75 377.65Q252.65 332.4 244.85 287.7Q222.65 286.15 199.2 287.25Q191.65 322.3 185.1 357.5Q181.3 377.9 176.2 397.95Q167.45 391.5 172 377.25Q176.5 363.1 179.3 348.4Q190.5 290.35 204.55 232.65Q211.15 205.6 216.3 178.2Q221.4 151.05 229.2 126.5L229.25 128L230.2 126.25M91.5,119.5Q98.95 113.9 107.95 115Q155.9 131.4 167.6 181.45Q181.3 240 168.85 299.05Q160.2 340.2 137.3 374.5Q130.95 384.05 121.9 390.7Q102.6 404.95 79.45 397.5Q76.95 397.9 75.75 395.45Q76.65 337 79.95 277.7L86.75 159.15Q87.85 140.15 90.7 121.85L90.95 121.65L91.25 120.25L91.5 119.5M92.05,129.4Q95.45 184.15 89.6 239.45Q86.5 268.95 85.9 298.5Q85 341.35 81.15 383.2Q127.95 386.55 146.2 343.35Q169.55 288 169.7 227.25Q169.85 180.25 139.95 145.5Q120.3 122.65 92.5 130L92.05 129.4M230.65,201.1Q228.45 181.45 227.3 161.7L201.3 277.75L205.35 276.35Q213.65 273.7 222.45 273.85Q229.5 274 236.45 275.25L242.9 276.9Q239.1 258.85 236.1 240.7Q232.85 221 230.65 201.1" />
</g>
</svg>
