<?xml version="1.0" encoding="utf-8"?>
<svg version="1.1" id="Layer_1"
xmlns="http://www.w3.org/2000/svg"
xmlns:xlink="http://www.w3.org/1999/xlink"


xml:space="preserve">
q-21.3 0.9 -35.1 18.85q-11.3 14.6 -16.4 32.55q-5.95 21.2 -8.5 43q-2.55 21.65 0.3 43.35q2.8 21.6 13.6 40.25q11.3 19.6 35.35 13.5q14.7 -3.9 23.85 -15.6q5.2 -10.75 5.05 -23.05q-0.25 -17.45 -2.8 -34.7q-5.45 1.55 -10.9 0q-5.35 -1.4 -10.1 1.6q-13.3 12.8 -31.3 16.8q-10.9 2.3 -21.85 0.85q-10.25 -14.5 -12.9 -31.95q-4.65 -31.05 -0.75 -62.65q1.5 -12.3 5.5 -24q5.3 -15.55 16.2 -28.15q8.65 -9.95 20.8 -12.1q16.1 -2.85 30.15 5.9q-0.6 -8.55 -7.4 -14.65q-5.7 -5 -12.6 -8.6q-5.9 4.95 -8.15 13.5q-14.7 56.6 -30.05 113.7q-3.85 14.25 -10.2 27.45q-8.75 18.4 -6.6 36.05q5.55 -4.95 8.1 -12.8q11.8 -36.4 21.95 -73.45q22.9 5.25 44.65 1.35q2.4 13.05 10.15 18.85q3.15 -4.3 1.6 -9.6q-9.75 -33.1 -15.6 -67.05q-10 -58.6 -28.25 -113.8q-2.5 5.45 0.55 10.25q-1.2 76.65 -10.3 152.6q-0.45 0.4 -0.75 0.95q-3.05 8.65 2.2 14.95q27.8 12.45 46.9 -8.25q3.2 -4.25 5.95 -8.75q3.65 -5.85 6.4 -12.15q12.95 -29.2 9.9 -61.15q-3.65 -38.1 -28.4 -65.9q-13.3 -15 -33.5 -17.95q1.75 -52.75 1.6 -105.45q6.6 -1 13.05 1.55q35.5 14.15 45.1 52.95q12.2 49.15 -16.95 90.9q-7.4 5.9 -15.65 10.45q-3.65 2 -7.7 1.4q3.3 -23.6 4.05 -48.1<g id="1768" transform="matrix(1, 0, 0, 1, -134.6, 0)">
<path style="fill:#000000;fill-opacity:1" d="M409.05,189.6Q415.85 195.7 416.45 204.25Q402.4 195.5 386.3 198.35Q374.15 200.5 365.5 210.45Q354.6 223.05 349.3 238.6Q345.3 250.3 343.8 262.6Q339.9 294.2 344.55 325.25Q347.2 342.7 357.45 357.2Q368.4 358.65 379.3 356.35Q397.3 352.35 410.6 339.55L411.45 328.2L392.95 325.7L392.95 318.2L393.95 317.55Q398.7 314.55 404.05 315.95Q409.5 317.5 414.95 315.95Q417.5 333.2 417.75 350.65Q417.9 362.95 412.7 373.7L410 372.45L409.55 356.9Q400.4 368.6 385.7 372.5Q361.65 378.6 350.35 359Q339.55 340.35 336.75 318.75Q333.9 297.05 336.45 275.4Q339 253.6 344.95 232.4Q350.05 214.45 361.35 199.85Q375.15 181.9 396.45 181Q403.35 184.6 409.05 189.6M279.45,179.75Q297.7 234.95 307.7 293.55Q313.55 327.5 323.3 360.6Q324.85 365.9 321.7 370.2Q313.95 364.4 311.55 351.35L305.75 321.6L298.15 284.55Q276.4 288.45 253.5 283.2Q243.35 320.25 231.55 356.65Q229 364.5 223.45 369.45Q221.3 351.8 230.05 333.4Q236.4 320.2 240.25 305.95Q255.6 248.85 270.3 192.25Q272.55 183.7 278.45 178.75L278.6 180.6L279.45 179.75M158,179.75Q178.2 182.7 191.5 197.7Q216.25 225.5 219.9 263.6Q222.95 295.55 210 324.75Q207.25 331.05 203.6 336.9Q200.85 341.4 197.65 345.65L195.45 348.5L190.7 354Q171.6 374.7 143.8 362.25L142.5 369.2L139.85 360.75Q134.6 354.45 137.65 345.8Q137.95 345.25 138.4 344.85L139 344.85Q148.1 268.9 149.3 192.25Q146.25 187.45 148.75 182L149.95 181.3L150.75 177L152 180.45L158 179.75M146.4,346.1L169.9 349.8Q173.95 350.4 177.6 348.4Q185.85 343.85 193.25 337.95Q222.4 296.2 210.2 247.05Q200.6 208.25 165.1 194.1Q158.65 191.55 152.05 192.55Q152.2 245.25 150.45 298Q149.7 322.5 146.4 346.1M295.85,273.5L278 195.05L256.45 272.45L295.85 273.5" />
</g>
</svg>
