<?xml version="1.0" encoding="utf-8"?>
<svg version="1.1" id="Layer_1"
xmlns="http://www.w3.org/2000/svg"
xmlns:xlink="http://www.w3.org/1999/xlink"


xml:space="preserve">
q-4.95 47.95 -5.85 98.4q-0.55 29.7 -3.25 59.15q-1.25 14.15 5.25 21.85q-2.45 -29.65 -0.8 -60.75q2.95 -55.35 3.95 -110.55q2.45 -4.5 0.2 -9q-0.6 -0.4 -1.25 -0.45q-20 0.5 -39.8 -1.15q-16.95 -1.4 -27.95 8.8q-0.8 3.8 0.7 7.4q4.85 -13.5 1.4 -27.35q-9.05 13.4 -1.6 27.55q-3.8 -27.75 -10.35 -55.35q-5.3 -23.35 -10.25 -47q-4.35 -20.7 -8.25 -41.45q-0.35 -1.75 -1.45 -3.3q-17.65 49.45 -30.3 100.45q-3.6 14.4 -8.45 28.25q-8.05 22.9 -13.6 46.3q-1 4.35 -1.6 8.85q-0.7 5.15 0.65 8.75q14.1 -28.25 22 -59.05q7.1 45.75 23 88.6q1.4 3.7 4.05 6.65q5.4 -3.65 7.6 -9.35q7.05 -18.3 7.9 -38.3q1.05 -24.9 -0.5 -48.1q-8.2 22.9 -6.35 50.55q1.25 18.15 -9.65 30.45q-0.6 -3.05 -3.75 -3.5q-9 10.8 4 19.5q5.3 1.65 10 -0.25q-9.9 95.45 -4.95 188.95q0 -0.45 0.35 -0.85q27.7 4.2 50.85 -12.45q3.05 -2.2 5.5 -4.9q12 -22.5 14.35 -47.85q4.2 -45.45 -21 -83.15q-8.45 -12.55 -20 -22.2q-18.25 -11.5 -33.75 0.8q-0.7 0.6 -1.15 1.5q32.55 1.35 46.15 31.7q18.95 42.4 4.7 86.1q-14.8 45.45 -64.25 43.35q-1.3 -0.95 -2.7 -1.3q2.05 -26.5 3.55 -53.35q3.05 -53.2 -0.05 -105.85q-10.05 -1.5 -20.2 0<g id="1765" transform="matrix(1, 0, 0, 1, -136.9, 0)">
<path style="fill:#000000;fill-opacity:1" d="M335.9,195.15Q334.4 191.55 335.2 187.75Q346.2 177.55 363.15 178.95Q382.95 180.6 402.95 180.1L402.95 180L419.45 180.55Q420.1 180.6 420.7 181L421.15 181.75Q423.4 186.25 420.95 190.75L373.6 192.65Q372.6 247.85 369.65 303.2Q368 334.3 370.45 363.95L368 371.4L367.45 372.2Q360.95 364.5 362.2 350.35Q364.9 320.9 365.45 291.2Q366.35 240.75 371.3 192.8L336.45 196L335.9 195.15M421.85,253.3Q414.4 239.15 423.45 225.75Q426.9 239.6 422.05 253.1L421.85 253.3M325.45,372.7Q322.8 369.75 321.4 366.05Q305.5 323.2 298.4 277.45L262.9 276.7L253.75 313.05Q245.85 343.85 231.75 372.1L231.5 372.15Q230.15 368.55 230.85 363.4Q231.45 358.9 232.45 354.55Q238 331.15 246.05 308.25Q250.9 294.4 254.5 280Q267.15 229 284.8 179.55L285.95 180.85Q287.05 182.4 287.4 184.15Q291.3 204.9 295.65 225.6Q300.6 249.25 305.9 272.6L316.1 316.1Q322.65 343.7 326.45 371.45L325.45 372.7M394.45,368.2Q381.45 359.5 390.45 348.7Q393.6 349.15 394.2 352.2L403.45 353.2Q414.35 340.9 413.1 322.75Q411.25 295.1 419.45 272.2Q421 295.4 419.95 320.3Q419.1 340.3 412.05 358.6Q409.85 364.3 404.45 367.95Q399.75 369.85 394.45 368.2M148.75,183.05Q164.25 170.75 182.5 182.25Q194.05 191.9 202.5 204.45Q227.7 242.15 223.5 287.6Q221.15 312.95 209.15 335.45L204.9 342.6L201.85 346.9L200.2 348.85L198.55 350.75Q196.1 353.45 193.05 355.65Q169.9 372.3 142.2 368.1Q141.85 368.5 141.85 368.95Q136.9 275.45 146.8 180L147.6 184.55Q148.05 183.65 148.75 183.05M148.05,191.95Q151.15 244.6 148.1 297.8Q146.6 324.65 144.55 351.15Q145.95 351.5 147.25 352.45Q196.7 354.55 211.5 309.1Q225.75 265.4 206.8 223Q193.2 192.65 160.65 191.3L148.05 191.95M275.95,266.35Q286.1 264.85 296.15 266.35L284.2 190.75L265 268.1L275.95 266.35" />
</g>
</svg>
