<?xml version="1.0" encoding="utf-8"?>
<svg version="1.1" id="Layer_1"
xmlns="http://www.w3.org/2000/svg"
xmlns:xlink="http://www.w3.org/1999/xlink"


xml:space="preserve">
q-13.35 56.5 -14.35 116.65q-1 59.4 -0.7 119.25q0.35 58.9 -1.95 116.95q-1.7 -6 -2.85 -12.25q-10.6 -57.95 -24.35 -115.3q-13.85 -57.65 -25.95 -115.4q-11.65 -55.45 -20.5 -111.25q-2.9 3.45 -3.1 8.95q-2.5 59.1 -3.45 118.6q-0.95 59.7 -2.3 119.25q-1.35 59.55 -7.4 118.35q-1.45 14.15 5.35 21.6q5.65 -45.5 6.95 -92.25q1.7 -59.55 2.6 -119.2q0.45 -30 1.9 -59.95q1.9 -38.05 2.2 -75.3q10.55 57.8 23.3 115.25q12.85 57.8 24.25 115.8q11.5 58.45 25.65 114.3q2 -7.35 2.15 -14.1q4.1 -3.85 4.15 -10.25q0.5 -59.5 0.35 -119.2q-0.15 -59.85 1.55 -119.25q1.7 -59.35 7.7 -117.75q2 -3.4 0.2 -6.8q2.7 -13.3 -9.4 -18.65q-1.75 -0.8 -3.55 -1.35q-40.25 41.5 -37.7 103.45q1.35 33.4 6.4 66.1q1.6 10.55 9.25 18.15q2.15 2.15 4.85 4q27.8 -7.05 27.25 -36q-4.3 30 -28.7 22.15q-3.15 -1.1 -3.9 -5q-7.2 -37.65 -6.45 -75.9q0.2 -9.75 1.65 -19.3q1.4 -9.35 3.75 -18.75q2.3 -9.25 5.7 -18.05q5.7 -14.95 13.75 -28.95q5.4 -3 11.25 -1.35q6.25 -31.85 4.65 -63.65q-12.15 2.05 -22.25 2q-0.45 2.6 0.95 4.5q8.7 4.05 18.75 1.75q-1.25 13.85 -3.55 27.55q-2.5 15.05 1.05 27.7q-2.45 55.3 -3.3 111.05q-1.2 59.8 -5.2 117.2q-2.7 -1.2 0.75 3q-2.2 12 3.75 18.5q3.6 -7.9 3.85 -17.25q1.25 -59.65 2.65 -119.25q1.4 -60.05 0.55 -118.5q-3.4 0.9 -3.6 5.2q-16.75 27.95 -20.7 60.6q-7 57.75 -0.7 116.3q0.65 6.1 5.6 9.05q15.8 9.5 28.8 -7.5q8.6 -11.2 -0.25 -17.2q-3.9 14.2 -19.05 19.25q-5.55 1.8 -7.15 -3.1q-9.4 -28.25 -8.15 -59.45q1.2 -29.95 4.7 -59.4q3.4 -28.55 20.45 -50.75q1.6 -2.05 3.9 -1.6q11.1 2.2 18.55 9.8q-2.6 -7.85 -9.35 -12.95q-2.4 -1 -5.15 -0.65q-3.5 1.7 -4.15 6.75q-6.7 54.4 -6.45 110.25q0.2 44.75 -1.05 89.25q-1.7 59.85 -4.1 119.25q-0.6 15.05 -3.3 29.65q-2.7 14.3 5.8 21.3q9.25 0.45 18.7 -2.65q1.85 -1.95 4.15 -3.3q24.25 -10.4 40.45 -31.3q19.7 -25.4 29.15 -56.15q15.35 -49.75 14.65 -103q-0.3 -22.15 -5.4 -43.2q-11.4 -46.9 -39.15 -86.55q-17.8 -24.65 -47.2 -33.05q-6.7 -0.8 -12.9 0.3q8.5 3.2 15.75 8.6q23 17.25 37.8 41.65q22.65 37.25 26.45 80.35q1.9 21.7 2.3 43.4q1.1 61.85 -31.75 113.2q-29.4 45.9 -81.5 57.85q1.95 -26.6 2.55 -53.6q1.35 -59.6 3.5 -119.15q2.2 -59.45 2.6 -119.3q0.15 -15 1.7 -29.85q1.45 -13.8 1.55 -26.9q9.75 0.2 19.05 3.75q-2.75 25.25 -4.7 50.95q-1.6 14.8 -3.8 29.5q-4.6 30.3 -1.35 59.25q4.15 -19.65 5.65 -40.95q3.5 -2.8 6.45 -5.8q-2.5 15.15 0.85 31.8q3.75 18.55 5.75 37.35q1.5 13.85 6.1 24.05q-2.6 -46.7 -10.15 -93.05q21.3 -23.6 11.9 -57.4q-0.05 -1.95 -0.9 -3.7q-2.95 -6.2 -8.35 -10.55q-2.15 0.15 -4.35 1.65q-1.15 1.25 -2 2.85q5.5 7.9 6.75 17.1q2.7 19.75 -9.45 35.3q-5.95 7.65 -14.25 11.3q2.15 41.75 6.6 83.05q0.4 3.5 1.7 6.9q3 -19.35 0.05 -38.85q-2.65 -17.55 -4.1 -35.2q-8.6 10.85 -12.85 35.15q-2.95 16.9 -8.3 33.2q-6.95 21.05 -4.4 42.6<g id="1760" transform="matrix(1, 0, 0, 1, -26.75, 0)">
<path style="fill:#000000;fill-opacity:1" d="M456,94.3L455.7 95Q449.7 153.4 448 212.75Q446.3 272.15 446.45 332Q446.6 391.7 446.1 451.2Q446.05 457.6 441.95 461.45L441.85 461.25Q441.7 468 439.7 475.35L438.95 475.95Q424.8 420.1 413.3 361.65Q401.9 303.65 389.05 245.85Q376.3 188.4 365.75 130.6L364.6 123.75Q364.3 161 362.4 199.05Q360.95 229 360.5 259Q359.6 318.65 357.9 378.2Q356.6 424.95 350.95 470.45Q344.15 463 345.6 448.85Q351.65 390.05 353 330.5Q354.35 270.95 355.3 211.25Q356.25 151.75 358.75 92.65Q358.95 87.15 361.85 83.7L361.85 82.75L362.2 82.75L362.5 82.95L364.45 81.25L364.55 88Q373.4 143.8 385.05 199.25Q397.15 257 411 314.65Q424.75 372 435.35 429.95Q436.5 436.2 438.2 442.2L438.3 442.45L438.7 440.45Q441 382.4 440.65 323.5Q440.35 263.65 441.35 204.25Q442.35 144.1 455.7 87.6L456.2 87.5Q458 90.9 456 94.3M324.95,90.15Q319.1 88.5 313.7 91.5Q305.65 105.5 299.95 120.45Q296.55 129.25 294.25 138.5Q291.9 147.9 290.5 157.25Q289.05 166.8 288.85 176.55Q288.1 214.8 295.3 252.45Q296.05 256.35 299.2 257.45Q323.6 265.3 327.9 235.3L331.2 235.5L331.25 237.35Q331.8 266.3 304 273.35L302.75 272.7Q300.05 270.85 297.9 268.7Q290.25 261.1 288.65 250.55Q283.6 217.85 282.25 184.45Q279.7 122.5 319.95 81Q321.75 81.55 323.5 82.35Q335.6 87.7 332.9 101L326.45 90.75L324.95 90.15M330.95,282.25Q327.4 269.6 329.9 254.55Q332.2 240.85 333.45 227Q323.4 229.3 314.7 225.25Q313.3 223.35 313.75 220.75L313.95 220Q324.05 220.05 336.2 218Q337.8 249.8 331.55 281.65L330.95 282.25M262.45,79.75Q263.3 138.2 261.9 198.25Q260.5 257.85 259.25 317.5L256.55 436.7Q256.3 446.05 252.7 453.95Q246.75 447.45 248.95 435.45Q245.5 431.25 248.2 432.45Q252.2 375.05 253.4 315.25L255.55 196Q256.4 140.25 258.85 84.95Q259.05 80.65 262.45 79.75M199.1,76.65L202.2 77.5Q208.95 82.6 211.55 90.45L213.2 95.5Q205.75 87.9 194.65 85.7Q192.35 85.25 190.75 87.3Q173.7 109.5 170.3 138.05Q166.8 167.5 165.6 197.45Q164.35 228.65 173.75 256.9Q175.35 261.8 180.9 260Q196.05 254.95 199.95 240.75Q208.8 246.75 200.2 257.95Q187.2 274.95 171.4 265.45Q166.45 262.5 165.8 256.4Q159.5 197.85 166.5 140.1Q170.45 107.45 187.2 79.5L190 78.1L193.95 76Q196.7 75.65 199.1 76.65M168.25,169.5L199.15 169.5L199.15 178L168.25 178L168.25 169.5M48.6,72.3Q54.8 71.2 61.5 72Q90.9 80.4 108.7 105.05L109.7 106Q137.45 145.65 148.85 192.55Q153.95 213.6 154.25 235.75Q154.95 289 139.6 338.75Q130.15 369.5 110.45 394.9Q94.25 415.8 70 426.2L58.65 433.15Q56.35 434.5 54.5 436.45Q45.05 439.55 35.8 439.1L35.25 445.2Q26.75 438.2 29.45 423.9Q32.15 409.3 32.75 394.25Q35.15 334.85 36.85 275Q38.1 230.5 37.9 185.75Q37.65 129.9 44.35 75.5Q45 70.45 48.5 68.75L48.6 72.3M48.6,78.75Q48.5 91.85 47.05 105.65Q45.5 120.5 45.35 135.5Q44.95 195.35 42.75 254.8Q40.6 314.35 39.25 373.95Q38.65 400.95 36.7 427.55Q88.8 415.6 118.2 369.7Q151.05 318.35 149.95 256.5Q149.55 234.8 147.65 213.1Q143.85 170 121.2 132.75Q106.4 108.35 83.4 91.1Q76.15 85.7 67.65 82.5Q58.35 78.95 48.6 78.75M161.7,282.9L162.2 282.75L163 284.85L164.6 283.4Q166.8 281.9 168.95 281.75L173.2 282Q178.6 286.35 181.55 292.55Q182.4 294.3 182.45 296.25Q191.85 330.05 170.55 353.65L170.8 354.95L171.2 355.7Q178.75 402.05 181.35 448.75L180.95 449.2Q176.35 439 174.85 425.15Q172.85 406.35 169.1 387.8Q165.75 371.15 168.25 356Q165.3 359 161.8 361.8L159.95 362.95L156.85 362.55L153.6 405.75Q152.1 427.05 147.95 446.7Q144.7 417.75 149.3 387.45Q151.5 372.75 153.1 357.95L153.25 356.75L155 336.7Q156.95 311 159.7 285.75Q160.55 284.15 161.7 282.9M173.2,288.75L163 290.2L157.95 354.55Q166.25 350.9 172.2 343.25Q184.35 327.7 181.65 307.95Q180.4 298.75 174.9 290.85L173.2 288.75M191.05,352.85Q196.4 336.55 199.35 319.65Q203.6 295.35 212.2 284.5L219.9 348.85L222.6 349.2L222.95 357.7L220.75 357.7L222.65 379.9Q224.1 397.55 226.75 415.1Q229.7 434.6 226.7 453.95L224.05 447.7Q222.75 444.3 222.35 440.8Q217.9 399.5 215.75 357.75L196.2 359.05L187.2 398.7L186.65 395.45Q184.1 373.9 191.05 352.85M215,348.55L210.3 295.75L198.05 350.75L215 348.55" />
</g>
</svg>
