<?xml version="1.0" encoding="utf-8"?>
<svg version="1.1" id="Layer_1"
xmlns="http://www.w3.org/2000/svg"
xmlns:xlink="http://www.w3.org/1999/xlink"


xml:space="preserve">
q2.1 -36.8 -36.5 -40.95q-3.55 0.2 -7.15 1.9q-4.25 2 -7.15 5.2q-27.05 29.75 -20.75 72.3q5.55 37.4 17.7 73.15q19.1 56.35 33.95 113.95q14.4 55.85 18.35 113.7q1.55 22.35 -12 40.3q-18.05 23.9 -49.65 16.4q-5.55 -1.35 -7.75 -6.15q-11.15 -24.2 -12.3 -51.8q-0.35 -0.35 -0.8 -0.45q-0.45 0.2 -0.75 0.65q-0.35 0.1 -0.6 0.45q0.4 17.4 1.6 34.6q2.25 32.25 34.8 34.4q27.25 1.75 41.85 -20.85q18.95 -29.35 15.1 -64.75q-6.25 -57.5 -20.7 -113.5q-14.95 -57.75 -34.8 -113.95q-11.5 -32.5 -16.65 -66.5q-5.2 -34.1 17.05 -57.65q33 -7 42.65 24.65q-27 23.3 -31.15 60.45q-8.25 73.6 -6.05 147.9q-6.85 107.55 1.25 213.7q8.1 -106.6 0.55 -213.6q-9.05 45.2 18.85 77.1q11.8 13.4 24.85 0q2.35 -3.1 4.15 -6.3q1.9 -3.3 3.15 -7.1q0.4 -4.5 -0.7 -8.95q-0.8 -1.85 -2.05 -3.3q-0.6 23.45 -18.1 34.95q-14.2 9.25 -21 -6.9q-3.15 -7.45 -5.1 -15.5q-2.45 -10 -3.85 -20.05q-1.4 -10.3 -1.55 -20.7q2.45 -1.85 2.55 -5.4q0.15 -4.05 -2.2 -7.4q17.8 5.8 36.5 5.65q0.95 -2.6 1 -5.25q0.05 -2.45 -1.3 -4.45q-6.25 -63.95 20.85 -118.75q3.55 -7.15 9.35 -12.7q14.65 1.7 20.7 17.6q3.4 -22.2 -17.75 -28.95q0.95 46.4 -2.65 92.2q-1.3 16.8 2.75 29.3q4.75 -8.25 4.8 -18.75q0.1 -23.45 1.1 -47.2q10.85 2.75 22.25 1.35q0.6 19.6 -2.45 38.85q-2.65 17.05 3.55 28.5q2.55 -3.65 2.65 -8.25q0.55 -30.1 2.1 -60.1q1.55 -1.1 1.8 -2.95q0.4 -3.5 -1.05 -6.8q-0.35 -0.35 -0.8 -0.45q1.3 -22.7 3.15 -45.35q4.4 -5.75 -0.45 -10.5q-9.2 26.75 -9.4 56.05q-6.7 0.6 -13.4 2.5q1.45 -30.2 -3.55 -58.45q-1.45 -0.05 -1.8 1.5q-1.2 4.95 -1.05 9.75q-8.35 58.4 -18.9 116.45q-0.25 1.9 0.15 3.75q-8 43.15 -16.5 86.3q-11.55 58.55 -18.75 117.15q0.6 2.65 3 2q9.3 -38.1 15.65 -77.35q9.45 -58.2 19.65 -116.4q25.85 1.4 52.3 -1.05q4.25 32.2 7.25 64.6q3.45 36.7 10.3 72.55q5.6 29.25 9.1 58.75q1.55 13.3 8.25 20.05q1.95 -30.1 -6 -60.25q-4.8 -18.15 -6.65 -36.65q-5.85 -58.85 -15.55 -117q-8.45 -50.6 -14.4 -101.7q-6.8 -58.7 -14.35 -116.9q-24.35 29.55 -34.2 65.85q-1.15 4.3 -0.2 7.85q1.7 30.45 15.6 55q-4.15 -29.35 -14.05 -58.15q4.35 -12.85 13.05 -22.85q8.4 -10.65 7.75 -24.1q-0.3 -0.2 -0.3 -0.8q-12.55 68.95 -7.15 141.3q-0.3 7.5 -1.35 14.8q-2.25 15.4 4.05 29.25q6.65 -49.15 4.15 -99.95q9 54.4 24.25 104.7q-4.1 -53 -22.05 -106.05q11.4 -7.55 13.3 -21q0.6 -9.15 0.8 -18.6q0.35 -18.05 -8.65 -32.9q-5.05 -8.4 -14.75 -10.55q16.75 21.75 15.5 51.55q-0.65 14.9 -11.5 24.8q-6.25 5.75 -14.25 8.2q7.25 -51.5 1.7 -102.65q-2.65 24.65 -4.1 51.65q-1.45 26.95 1.85 51.6q-5.05 -2.6 -10.6 -4.1q-8.8 44 -4.95 90.6q0.35 4.35 2.35 8.2q22.6 6.1 30.4 -17q2.9 -12.35 -6.1 -21.1q-2.25 -2.2 -5.15 -3.6q8.6 22.6 -19.2 24.4q2.5 -20.5 3.5 -41.2q4.05 -20.3 6.6 -41.05q-18.8 -30.75 -53.4 -36.35q-5.6 -1.1 -10.5 0.55q-0.95 0.5 -1.65 1.2q-0.35 1.4 -0.35 2.95q-2.2 59.35 -5.05 118.6q-2.85 59.7 -8.85 118.45q-5.25 51.4 -7.85 103.4q-1.4 27.25 0.25 52.85q-1.6 3.75 -1.2 8q0.25 3.2 2.65 5.2q6.15 0.9 12.2 -1.3q16.15 -5.8 30.15 -16.85q33.3 -26.35 49.05 -65.3q22.65 -55.95 26.1 -116.3q2.55 -44.35 -2.05 -87.85q-5 -47.3 -26.75 -89.1q12 57.8 10.05 117.15q-0.85 26.2 -4.45 52q-9 65.05 -53.9 111.1q-22.75 23.4 -52.8 31.3q4 -21.15 4.15 -43.65q0.4 -59.65 5.65 -118.55q5.2 -58.95 8.85 -118.35q3.4 -55.3 3.8 -109.85q38.3 -0.1 60.1 33.5q13.45 20.7 18.55 45.35q-1.2 13.55 4.55 22.15q3.9 -4.15 3.85 -10.5q-0.45 -60.4 -5.35 -118.5q-1 -0.15 -1.2 0.65q-5.75 25.35 -2.65 51.8q3.15 27 0.8 54.4<g id="1764" transform="matrix(1, 0, 0, 1, -22.4, 0)">
<path style="fill:#000000;fill-opacity:1" d="M525.95,96.75Q516.3 65.1 483.3 72.1L477.2 73Q454.95 96.55 460.15 130.65Q465.3 164.65 476.8 197.15Q496.65 253.35 511.6 311.1Q526.05 367.1 532.3 424.6Q536.15 460 517.2 489.35Q502.6 511.95 475.35 510.2Q442.8 508.05 440.55 475.8Q439.35 458.6 438.95 441.2L438.6 440.55L437.75 439.65L437.15 439L436.45 438.2Q436.7 437.85 437.05 437.75L437.9 437.45L439.25 436.55L439.95 435.2L440.3 434.55Q440.6 434.1 441.05 433.9L442.4 433.75Q442.85 433.85 443.2 434.2Q444.35 461.8 455.5 486Q457.7 490.8 463.25 492.15Q494.85 499.65 512.9 475.75Q526.45 457.8 524.9 435.45Q520.95 377.6 506.55 321.75Q491.7 264.15 472.6 207.8Q460.45 172.05 454.9 134.65Q448.6 92.1 475.65 62.35Q478.55 59.15 482.8 57.15Q486.4 55.45 489.95 55.25Q528.55 59.4 526.45 96.2L525.95 96.75M443.65,85.7L443.4 86.1Q437.35 70.2 422.7 68.5Q416.9 74.05 413.35 81.2Q386.25 136 392.5 199.95L427.85 205.7L428.15 206.05Q429.5 208.05 429.45 210.5Q429.4 213.15 428.45 215.75Q409.75 215.9 391.95 210.1L390.45 264Q392.8 267.35 392.65 271.4Q392.55 274.95 390.1 276.8Q390.25 287.2 391.65 297.5Q393.05 307.55 395.5 317.55Q397.45 325.6 400.6 333.05Q407.4 349.2 421.6 339.95Q439.1 328.45 439.7 305L441.45 307.05Q442.7 308.5 443.5 310.35L444.3 312.9Q445.4 317.35 445 321.85L444.75 323.55L444.45 325.25L443.4 329.8L441.75 335Q440.5 338.8 438.6 342.1Q436.8 345.3 434.45 348.4L429.55 354.1Q416.5 367.5 404.7 354.1Q376.8 322.2 385.85 277L356.7 278Q364.25 385 356.15 491.6L356 491.75Q347.9 385.6 354.75 278.05L290.7 277.25L290.7 269.75L385.75 264.35Q383.55 190.05 391.8 116.45Q395.95 79.3 422.95 56L425.9 56.75Q447.05 63.5 443.65 85.7M372.4,363.7Q372.75 362.15 374.2 362.2Q379.2 390.45 377.75 420.65L385.95 420.95Q392.65 419.05 399.35 418.45Q399.55 389.15 408.75 362.4L409.45 361.95Q414.3 366.7 409.9 372.45L409.2 373.2Q407.35 395.85 406.05 418.55L407.15 418.75Q407.6 418.85 407.95 419.2Q409.4 422.5 409 426Q408.75 427.85 407.2 428.95L405.45 429.35Q403.9 459.35 403.35 489.45Q403.25 494.05 400.7 497.7Q394.5 486.25 397.15 469.2Q400.2 449.95 399.6 430.35Q388.2 431.75 377.35 429Q376.35 452.75 376.25 476.2Q376.2 486.7 371.45 494.95Q367.4 482.45 368.7 465.65Q372.3 419.85 371.35 373.45Q371.2 368.65 372.4 363.7M247.25,61.95Q254.8 120.15 261.6 178.85Q267.55 229.95 276 280.55Q285.7 338.7 291.55 397.55Q293.4 416.05 298.2 434.2Q306.15 464.35 304.2 494.45Q297.5 487.7 295.95 474.4Q292.45 444.9 286.85 415.65Q280 379.8 276.55 343.1Q273.55 310.7 269.3 278.5Q242.85 280.95 217 279.55L215 290.95Q204.8 349.15 195.35 407.35Q189 446.6 179.7 484.7Q177.3 485.35 176.7 482.7Q183.9 424.1 195.45 365.55Q203.95 322.4 211.95 279.25Q211.55 277.4 211.8 275.5L211.95 274.75L212.8 274.6L217.4 249.5Q227.95 191.45 236.3 133.05L247.2 58L247.25 61.95M313.6,84.3Q304.9 94.3 300.55 107.15Q310.45 135.95 314.6 165.3Q300.7 140.75 299 110.3L286.8 132.2Q285.85 128.65 287 124.35Q296.85 88.05 321.2 58.5L321.35 60.2Q322 73.65 313.6 84.3M168.95,58.25Q178.65 60.4 183.7 68.8Q192.7 83.65 192.35 101.7Q192.15 111.15 191.55 120.3L191.1 126.5L190.45 132.7L190.2 134.55Q188.3 148 176.9 155.55Q194.85 208.6 198.95 261.6Q183.7 211.3 174.7 156.9L163.85 159.8Q166.35 210.6 159.7 259.75Q153.4 245.9 155.65 230.5Q156.7 223.2 157 215.7L157.2 212L157.3 208.25L157.05 200.8Q151.65 128.45 164.2 59.5Q164.2 60.1 164.5 60.3L165.3 60.15L168.95 58.25M164.25,68L163.95 150.8Q171.95 148.35 178.2 142.6Q189.05 132.7 189.7 117.8Q190.95 88 174.2 66.25L164.25 68M279.95,162.5Q276.65 137.85 278.1 110.9Q279.55 83.9 282.2 59.25Q287.75 110.4 280.5 161.9L279.95 162.5M317.7,172.7Q326.7 181.45 323.8 193.8L322.3 199.05Q314.5 222.15 291.9 216.05L288.8 264.85L288.6 265.05Q286.6 261.2 286.25 256.85Q282.4 210.25 291.2 166.25L291.3 167.6L301.95 165Q307.5 166.5 312.55 169.1Q315.45 170.5 317.7 172.7M306.95,175.25L291.65 175.85L292.7 205.25L295.35 205.5Q323.15 203.7 314.55 181.1L306.95 175.25M236.4,174.95L218.05 273.7L267.8 267.3L246.5 92.7Q245.5 113.4 243 133.9Q240.45 154.65 236.4 174.95M114.2,92.75Q135.95 134.55 140.95 181.85Q145.55 225.35 143 269.7Q139.55 330.05 116.9 386Q101.15 424.95 67.85 451.3Q53.85 462.35 37.7 468.15Q31.65 470.35 25.5 469.45Q23.1 467.45 22.85 464.25Q22.45 460 24.05 456.25Q22.4 430.65 23.8 403.4Q26.4 351.4 31.65 300Q37.65 241.25 40.5 181.55Q43.35 122.3 45.55 62.95L45.6 62.5L45.5 61.25Q45.5 59.7 45.85 58.3L46.25 57.5L47.85 56.7Q48.55 56 49.5 55.5L49.5 56.05Q54.4 54.4 60 55.5Q94.6 61.1 113.4 91.85L114.2 92.75M109.55,97.7Q87.75 64.1 49.45 64.2Q49.05 118.75 45.65 174.05Q42 233.45 36.8 292.4Q31.55 351.3 31.15 410.95Q31 433.45 27 454.6Q57.05 446.7 79.8 423.3Q124.7 377.25 133.7 312.2Q137.3 286.4 138.15 260.2Q140.1 200.85 128.1 143.05Q123 118.4 109.55 97.7M320.6,415.15Q317.5 388.7 323.25 363.35Q323.45 362.55 324.45 362.7Q329.35 420.8 329.8 481.2Q329.85 487.55 325.95 491.7Q320.2 483.1 321.4 469.55Q323.75 442.15 320.6 415.15" />
</g>
</svg>
