<?xml version="1.0" encoding="utf-8"?>
<svg version="1.1" id="Layer_1"
xmlns="http://www.w3.org/2000/svg"
xmlns:xlink="http://www.w3.org/1999/xlink"


xml:space="preserve">
q3.15 59.3 3 119.25q28.15 2.45 57 6q5.7 -7.95 0 -16.5q0.3 -2.85 -0.55 -5.3q-25.55 -0.45 -51.25 -6q0.55 -14.55 0.75 -29.25q0.95 -59.7 0.8 -119.2q-0.15 -60.15 -6.55 -118.5q-3.65 21.75 -2.3 46.5q-4.05 20.95 -7.25 42q-2.95 19.5 -4.4 39.35q-1.4 18.75 0.3 37.5q1.65 18.45 6.3 36.55q5.4 21.15 15.7 40.45q11.15 20.85 34.5 17.6q22.7 -2.95 36.8 -21.05q10.65 -13.7 5.9 -29.6q-15.55 31.05 -48.75 28.1q-9.55 -1.1 -15.4 -9.25q-13.85 -19.35 -18.4 -42.7q-2.05 -10.35 -3 -20.9q-1.45 -16.4 -0.7 -32.75q3.1 -5.85 0.55 -11.95q-25.7 -1.9 -51.15 2.65q-1.9 -62 38.55 -107.25q11.4 -12.7 28.2 -8.15q6.15 1.65 11.5 4.8q-1.9 -26.6 -28.95 -17.2q-20.05 7.05 -31.45 25.05q-10.9 17.2 -14.75 37.1q1.85 27 6.7 53.5q5.75 -29.1 12.45 -57.95q6.95 -29.8 6.4 -58.8q-0.6 -0.2 -0.75 0.3q-12.25 48.85 -21.35 99.45q-10.4 58.05 -24.7 115.5q-3.65 14.65 -9.05 28.6q-8.8 22.75 -5.15 44.1q1.15 -0.35 1.4 -1.05q9.95 -26.5 16.3 -54.45q8.85 -39.15 16.95 -78.5q25.7 4.75 52.45 1.6q7.65 43.35 10.9 87.25q1.25 17.45 10.5 28.1q0.95 -0.95 0.95 -2.25q-0.6 -28 -5.45 -56.35q-9.75 -58.6 -21.35 -116.1q-3.8 1.45 -3.45 6.25q-4.5 1.2 -8.35 3.9q-4.35 7.55 -4.75 18.7q-2.25 59.15 -3.4 118.55q-1.1 59.85 -4.7 119.25q-0.7 11.35 -3.2 22.15q-3.95 17 3.1 29.55q0.85 2.9 3.2 6.4q25.15 -6.7 41.6 -26.5q18.95 -22.85 25.65 -51.7q6.35 -27.4 6.7 -55.9q0.6 -52.75 -15.95 -101.85q-17.2 -50.9 -69.55 -58.15q-5 0.1 -9.7 1.3q40.25 14 53.45 56.25q6.45 20.5 9.2 41.8q8 61.15 -13.75 117.95q-4.65 12.05 -14 20.65q-26.8 24.4 -63.1 30.25q-10.4 1.7 -14.2 5.85q3.45 -20.85 4.1 -42.75q1.75 -59.1 2.45 -118.45q0.7 -55.5 4.25 -110.35q15 -6.95 31.6 -1.2<g id="1770" transform="matrix(1, 0, 0, 1, -80.45, 0)">
<path style="fill:#000000;fill-opacity:1" d="M346.2,124.75Q352.6 183.1 352.75 243.25Q352.9 302.75 351.95 362.45Q351.75 377.15 351.2 391.7Q376.9 397.25 402.45 397.7L402.65 393.25L402.95 392.45Q403.8 394.9 403.5 397.75L403.45 398.45Q409.15 407 403.45 414.95Q374.6 411.4 346.45 408.95L346.9 290.5Q347.05 230.55 343.9 171.25Q342.55 146.5 346.2 124.75M421.55,159.85Q432.95 141.85 453 134.8Q480.05 125.4 481.95 152Q476.6 148.85 470.45 147.2Q453.65 142.65 442.25 155.35Q401.8 200.6 403.7 262.6Q429.15 258.05 454.85 259.95L455.75 261.8Q458.3 267.9 455.2 273.75L403.1 274.9L402.65 286.5Q401.9 302.85 403.35 319.25Q404.3 329.8 406.35 340.15Q410.9 363.5 424.75 382.85Q430.6 391 440.15 392.1Q473.35 395.05 488.9 364L487.1 358.3L490.95 362.2L494.65 359.75Q499.4 375.65 488.75 389.35Q474.65 407.45 451.95 410.4Q428.6 413.65 417.45 392.8Q407.15 373.5 401.75 352.35Q397.1 334.25 395.45 315.8Q393.75 297.05 395.15 278.3Q396.6 258.45 399.55 238.95Q402.75 217.9 406.8 196.95Q410.65 177.05 421.55 159.85M276.45,121.25Q288.05 178.75 297.8 237.35L317.45 353.6Q322.3 381.95 322.9 409.95Q322.9 411.25 321.95 412.2Q312.7 401.55 311.45 384.1Q308.2 340.2 300.55 296.85L297.3 278.3Q270.55 281.45 244.85 276.7Q236.75 316.05 227.9 355.2Q221.55 383.15 211.6 409.65Q211.35 410.35 210.2 410.7Q206.55 389.35 215.35 366.6Q220.75 352.65 224.4 338Q238.7 280.55 249.1 222.5Q258.2 171.9 270.45 123.05Q270.6 122.55 271.2 122.75Q271.75 151.75 264.8 181.55Q258.1 210.4 252.35 239.5L246.85 266.9L294.9 264.8L279.7 181Q274.85 154.5 273 127.5Q272.65 122.7 276.45 121.25M119.95,112.25Q172.3 119.5 189.5 170.4Q206.05 219.5 205.45 272.25Q205.1 300.75 198.75 328.15Q192.05 357 173.1 379.85Q156.65 399.65 131.5 406.35L93.5 416.7Q91.15 413.2 90.3 410.3L87.5 422.95Q80.45 410.4 84.4 393.4Q86.9 382.6 87.6 371.25Q91.2 311.85 92.3 252Q93.45 192.6 95.7 133.45Q96.1 122.3 100.45 114.75L101.9 117.45Q105.75 114.75 110.25 113.55Q114.95 112.35 119.95 112.25M102.7,129.65Q99.15 184.5 98.45 240Q97.75 299.35 96 358.45Q95.35 380.35 91.9 401.2Q95.7 397.05 106.1 395.35Q142.4 389.5 169.2 365.1Q178.55 356.5 183.2 344.45Q204.95 287.65 196.95 226.5Q194.2 205.2 187.75 184.7Q174.55 142.45 134.3 128.45Q117.7 122.7 102.7 129.65" />
</g>
</svg>
