<?xml version="1.0" encoding="utf-8"?>
<svg version="1.1" id="Layer_1"
xmlns="http://www.w3.org/2000/svg"
xmlns:xlink="http://www.w3.org/1999/xlink"


xml:space="preserve">
q-4.65 23.5 -3.65 48.8q2.35 59.55 0.95 119.25q-1.45 59.9 -1.75 119.2q-0.05 7.5 -1.4 14.75q-2.75 14.7 5.85 21.25q3.25 -10.7 3.25 -22.5q0.15 2.05 0.75 4.25q18.2 -5.65 28.95 -24.35q31.2 -54.1 15.75 -114.85q-9.35 -36.85 -43.95 -46.55q-2.85 -0.95 -4.5 1q-0.4 1.45 -0.5 3q30.55 57.05 -0.6 113.9q-4.75 8.75 -13.1 13.4q-13.25 7.35 -14.35 18.5q-0.1 -56.25 -1.95 -111.3q20.35 4.5 30.05 22.6q-4.55 -21.3 -25.8 -15.35q-32.25 44.55 -28.5 102.45q1.7 26.15 -0.45 52.45q-6.2 75.2 6.35 147.8q1.05 6.1 4.9 11.05q4.75 1.25 9.35 -0.8q26.45 -11.7 32.15 -40.05q1.05 -5.2 0.25 -9.8q-10.05 27.85 -36.95 30.1q-3.9 0.1 -6.55 -2.85q-8.95 -62.6 -5.25 -125.8q6.55 -5 2.3 -14q-6.65 -73.7 22.45 -138.8q6.25 -14 20.5 -7.1q-7.65 -58.55 -14.35 -117.35q-4.4 7.2 -5.4 17.15q-5.75 58.6 -12.85 117.05q-1.75 14.95 -4.85 29.65q-4.75 22.85 -1.7 43.75q8.45 -13.65 9.85 -32.1q3.85 -50.05 9.35 -99.9q1.35 0.9 2.9 1.5q15.2 6.25 32.15 7.05q1 -1.05 1.65 -2.3q7.35 53 12.1 106.25q-0.7 1 -0.45 2.25q-0.8 15.2 6.5 23.75q4.95 -23.4 0.45 -48.1q-4.3 -23.7 -7.45 -47.7q-1 1 -1.5 2.25q-0.5 1.4 -0.4 3.1q-5.1 41.5 -6.75 84.6q-2.2 59.5 -7.5 118.55q-5.35 59.7 -16.55 118.45q-3.25 9.8 2.75 20.75q4.8 -8.1 6.25 -17.5q9 -58.25 14.15 -117.2q6.4 0.2 11.75 -4.4q-0.25 15.75 4.35 31.8q16.2 56.65 28.8 114.3q1.7 7.7 2.45 15.2q1.75 16.4 9.65 27.3q4.85 -9.7 2 -20.55q-7.75 -29.7 -14.5 -59.95q-12.55 -56 -29.5 -110.55q27.75 -20.35 32.45 -53.65q3.8 -26.9 -1.65 -53.45q-8.2 -39.75 -47.05 -45.4q-10.3 19.35 -28.3 31.9q-6.35 4.4 -13.35 7.65q5.7 -70.55 4.1 -141.15q21.4 2.35 33.6 20.9q12.3 18.7 13.05 41.1q0.75 21 -9.1 39.6q0.5 15.5 2 30.9q-0.8 1.45 -0.85 3.6q-0.65 27.6 -3.05 55.35q-5.05 59 -8.35 118.55q-3.25 59.25 -7.35 118.55q-1.05 14.95 -3.2 29.75q-2.05 14.5 5.45 21.25q31 -13.3 54.55 -38.35q27.75 -29.45 41.5 -68.5q20 -56.8 12.3 -116.8q-2.85 -22.1 -7.2 -43.9q-12.8 -64.15 -73.65 -84.4q-1.15 0.6 -1.5 1.95q-0.45 1.8 -0.4 3.7q5.45 27.45 3.75 55.65q-1.75 30 -9.7 58.95q-19.75 72.25 -87.2 105.25q-2.2 1.05 -3.9 2.25q2.1 -16.05 2.9 -32.55q3 -59.45 6.25 -118.6q3.2 -59.45 8.1 -118.45q2.2 -26.55 0.4 -51.85q38.55 6.85 58.25 41.95q15.15 27 21.15 57.4<g id="1755" transform="matrix(1, 0, 0, 1, -47.75, 0)">
<path style="fill:#000000;fill-opacity:1" d="M349.2,95.25Q349.3 93.7 349.7 92.25Q351.35 90.3 354.2 91.25Q388.8 100.95 398.15 137.8Q413.6 198.55 382.4 252.65Q371.65 271.35 353.45 277Q352.85 274.8 352.7 272.75L352.6 330.5L352.45 397.2Q352.45 409 349.2 419.7Q340.6 413.15 343.35 398.45Q344.7 391.2 344.75 383.7Q345.05 324.4 346.5 264.5Q347.9 204.8 345.55 145.25Q344.55 119.95 349.2 96.45L349.2 95.25M350.7,99.95Q352.55 155 352.65 211.25L352.7 268.35Q353.8 257.2 367.05 249.85Q375.4 245.2 380.15 236.45Q411.3 179.6 380.75 122.55Q371.05 104.45 350.7 99.95M457.4,114.65Q443.15 107.75 436.9 121.75Q407.8 186.85 414.45 260.55L444.85 262.95L445.8 264.8Q450.05 273.8 443.5 278.8L440.45 276.75L413.95 273.4Q410.25 336.6 419.2 399.2Q421.85 402.15 425.75 402.05Q452.65 399.8 462.7 371.95L467.9 370.05Q468.7 374.65 467.65 379.85Q461.95 408.2 435.5 419.9Q430.9 421.95 426.15 420.7L425.15 420.45L424.2 419.9L422.2 418.9L421.3 418.25L420.45 417.4L418.75 415.5Q414.9 410.55 413.85 404.45Q401.3 331.85 407.5 256.65Q409.65 230.35 407.95 204.2Q404.2 146.3 436.45 101.75L439.9 100.65Q461.15 94.7 465.7 116L462.45 117.25L457.4 114.65M335.4,374.6Q339.9 399.3 334.95 422.7Q327.65 414.15 328.45 398.95Q328.2 397.7 328.9 396.7L329.2 396.2Q324.45 342.95 317.1 289.95Q316.45 291.2 315.45 292.25Q298.5 291.45 283.3 285.2Q281.75 284.6 280.4 283.7Q274.9 333.55 271.05 383.6Q269.65 402.05 261.2 415.7Q258.15 394.8 262.9 371.95Q266 357.25 267.75 342.3L281.95 224.45Q289.05 166 294.8 107.4Q295.8 97.45 300.2 90.25L300.35 93.1L313.6 209.55Q320.3 268.35 327.95 326.9Q331.1 350.9 335.4 374.6M188.95,84.25Q227.8 89.9 236 129.65Q241.45 156.2 237.65 183.1Q232.95 216.4 205.2 236.75L203.7 237.9Q220.65 292.45 233.2 348.45Q239.95 378.7 247.7 408.4Q250.55 419.25 245.7 428.95Q237.8 418.05 236.05 401.65Q235.3 394.15 233.6 386.45Q221 328.8 204.8 272.15Q200.2 256.1 200.45 240.35L194.25 245.45Q188.9 250.05 182.5 249.85L178.9 293.75Q173.75 352.7 164.75 410.95Q163.3 420.35 158.5 428.45L156.95 429.95Q150.95 419 154.2 409.2L155.45 412.1L155.7 411.95Q166.9 353.2 172.25 293.5Q177.55 234.45 179.75 174.95Q181.4 131.85 186.5 90.35L186.5 90.25Q186.4 88.55 186.9 87.15L186.95 86.8L187.05 86.8Q187.55 85.55 188.55 84.55L188.95 84.25M234.3,156.7Q233.55 134.3 221.25 115.6Q209.05 97.05 187.65 94.7Q189.25 165.3 183.55 235.85Q190.55 232.6 196.9 228.2Q214.9 215.65 225.2 196.3Q235.05 177.7 234.3 156.7M301.45,161.45Q299.95 146.05 299.45 130.55L281.6 273.05L315.35 277.8L311.4 248.8L307.8 219.75L304.5 190.65L301.45 161.45M73,83.45Q73.35 82.1 74.5 81.5L83.5 81.25Q144.35 101.5 157.15 165.65Q161.5 187.45 164.35 209.55Q172.05 269.55 152.05 326.35Q138.3 365.4 110.55 394.85Q87 419.9 56 433.2L55.55 432.6L55.25 434.2Q47.75 427.45 49.8 412.95Q51.95 398.15 53 383.2Q57.1 323.9 60.35 264.65Q63.65 205.1 68.7 146.1Q71.1 118.35 71.75 90.75Q71.8 88.6 72.6 87.15Q72.55 85.25 73 83.45M134.4,134.1Q114.7 99 76.15 92.15Q77.95 117.45 75.75 144Q70.85 203 67.65 262.45Q64.4 321.6 61.4 381.05Q60.6 397.55 58.5 413.6Q60.2 412.4 62.4 411.35Q129.85 378.35 149.6 306.1Q157.55 277.15 159.3 247.15Q161 218.95 155.55 191.5Q149.55 161.1 134.4 134.1" />
</g>
</svg>
