<?xml version="1.0" encoding="utf-8"?>
<svg version="1.1" id="Layer_1"
xmlns="http://www.w3.org/2000/svg"
xmlns:xlink="http://www.w3.org/1999/xlink"


xml:space="preserve">
q-8.65 86.85 -4.4 173.3q0.1 1.7 0.65 3.35q19.8 7.65 40.6 -1.35q4.3 -2.65 7.9 -6.05q6.2 -6.65 7.55 -15.4q5.8 -37.15 -20.35 -65.25q17.05 -17.35 13.6 -41.45q-0.95 -4.2 -2.7 -8.2q-1.6 -3.75 -3.6 -7.3q-3.35 -6.05 -8.7 -10.5q-14.45 -11.9 -32.9 -12.45q-3.5 11.7 -10 21.65q-12.8 19.6 -35.45 16.7q0.5 -36.25 -0.35 -71.75q8.95 0.9 18.05 3.65q11.3 7.8 14.25 20.65q12.75 20.95 1.35 40.35q-11.3 19.35 -34.9 17.85q-8.95 -0.2 -17.5 -2.8q21.2 -2.4 32.85 16.75q12.3 3.2 20.85 10.9q0.45 -9.15 -4.95 -16.55q-4.05 -5.55 -10.5 -7.5q-5.4 -1.75 -11.2 -1.85q-7.65 -0.1 -14.85 2.3q-19.45 8.3 -31.05 26.45q-10.75 16.65 -14.9 36.05q-4.2 19.6 -5.4 39.4q-1.2 20.5 1.85 40.65q3.35 22.05 19.7 35.8q16.4 13.75 37.7 8.55q24.4 -5.9 28.25 -28.95q0.8 -4.85 -1.1 -9.3q-10.5 14.95 -27.8 21.1q-8.85 3 -18.25 2.15q-4.75 -0.35 -9.45 -1.7q-6.6 -2.1 -11.55 -7q-7.95 -7.75 -9.7 -19q-3.6 -23.65 -2.85 -47.55q-5.6 15.25 -3.2 29.6q0.8 -1.2 1.25 -2.6q1.75 -2.35 1.9 -5.55q0.15 -2.65 -0.8 -5.25q-0.45 -1.2 -1.35 -2.25q0.8 -24.1 14.65 -43.75q8.7 -12.35 21.05 -20.7q6.05 -4.05 12.95 -6.1q7.9 -2.35 16.05 -0.35q-4.05 6 -4 15q0.15 59.35 -3.6 118.45q-1.6 16.8 4.2 29.4q14.05 4.15 29.7 1.3q3 -0.55 5.35 -2.15q33.35 -23.1 38.75 -64.85q2.55 -19.75 1.95 -39.65q-1.75 -59.85 -57 -81q-7.75 -1.45 -14.55 1.65q2.2 -76.4 1.15 -156.5q31.05 0.55 48.2 25.55q3.9 5.6 6.6 11.95q2.1 4.95 3.85 10.4q2.2 6.8 3.6 13.9q3.45 17.2 1.15 34.65q-3.8 28.8 -21.5 51.75q-4.9 6.4 -12.45 9.2q-12.45 4.3 -25.35 0.85<g id="1772" transform="matrix(1, 0, 0, 1, -135.7, 0)">
<path style="fill:#000000;fill-opacity:1" d="M349.75,183.6Q368.2 184.15 382.65 196.05Q388 200.5 391.35 206.55Q393.35 210.1 394.95 213.85Q396.7 217.85 397.65 222.05L398.4 226.5Q401.85 250.6 384.8 267.95L388.45 269L390.95 271.6Q417.1 299.7 411.3 336.85Q409.95 345.6 403.75 352.25L399.9 356.05Q396.3 359.45 392 362.1L386.35 365.1Q365.55 374.1 345.75 366.45L342.95 370.7Q342.4 369.05 342.3 367.35Q338.05 280.9 346.7 194.05L345.95 185.75L347.7 184.45L348.55 179.85L349.75 183.6M381.45,207.1L367.95 198Q358.85 195.25 349.9 194.35Q350.75 229.85 350.25 266.1Q372.9 269 385.7 249.4Q392.2 239.45 395.7 227.75Q392.75 214.9 381.45 207.1M366.35,278.2L350 278.3L348.15 350.35Q356.7 352.95 365.65 353.15Q389.25 354.65 400.55 335.3Q411.95 315.9 399.2 294.95Q387.55 275.8 366.35 278.2M283.5,195.6Q276.6 197.65 270.55 201.7Q258.2 210.05 249.5 222.4Q235.65 242.05 234.85 266.15L259.5 264.2L270.1 245.45L269.45 237.5L271.95 233.8L272.95 241.45L274.2 239.75L275.2 242L273.9 245.5L278.1 263.8L313.95 265.4Q314.85 266.45 315.3 267.65Q316.25 270.25 316.1 272.9Q315.95 276.1 314.2 278.45L281.5 278.8L287.7 309.8L276.1 278.85L261.1 279L253.45 298.95L254.1 301.2L254.3 303.25L253.95 305.35Q253.5 306.75 252.7 307.95L250.45 308.85L250.2 308.65Q247.8 294.3 253.4 279.05L234.35 279.2Q233.6 303.1 237.2 326.75Q238.95 338 246.9 345.75Q251.85 350.65 258.45 352.75Q263.15 354.1 267.9 354.45Q277.3 355.3 286.15 352.3Q303.45 346.15 313.95 331.2Q315.85 335.65 315.05 340.5Q311.2 363.55 286.8 369.45Q265.5 374.65 249.1 360.9Q232.75 347.15 229.4 325.1Q226.35 304.95 227.55 284.45Q228.75 264.65 232.95 245.05Q237.1 225.65 247.85 209Q259.45 190.85 278.9 182.55Q286.1 180.15 293.75 180.25Q299.55 180.35 304.95 182.1Q311.4 184.05 315.45 189.6Q320.85 197 320.4 206.15Q311.85 198.45 299.55 195.25Q291.4 193.25 283.5 195.6M147.45,180.15Q154.25 177.05 162 178.5Q217.25 199.65 219 259.5Q219.6 279.4 217.05 299.15Q211.65 340.9 178.3 364Q175.95 365.6 172.95 366.15Q157.3 369 143.25 364.85L141.5 370.7Q135.7 358.1 137.3 341.3L139.65 311.45Q143.4 252.35 143.25 193Q143.2 184 147.25 178L147.45 180.15M149.25,348.7L154.5 345.45L152.25 348.95Q165.15 352.4 177.6 348.1Q185.15 345.3 190.05 338.9Q207.75 315.95 211.55 287.15Q213.85 269.7 210.4 252.5Q209 245.4 206.8 238.6Q205.05 233.15 202.95 228.2Q200.25 221.85 196.35 216.25Q179.2 191.25 148.15 190.7Q149.2 270.8 147 347.2L149.25 348.7M272.75,263.85L271 253.05L266.85 264L272.75 263.85" />
</g>
</svg>
