<?xml version="1.0" encoding="utf-8"?>
<svg version="1.1" id="Layer_1"
xmlns="http://www.w3.org/2000/svg"
xmlns:xlink="http://www.w3.org/1999/xlink"


xml:space="preserve">
q-5.4 52.8 -8.5 106.2q-1.75 29.8 -7 58.9q-3.1 17.05 3.35 29.55q1.5 -1.1 1.8 -3q4.85 -31.15 7.75 -62.75q16.85 40.5 34.15 81.25q5.05 11.95 12.45 18.3q1.4 -2.45 0.6 -4.85q-16.15 -51.8 -43.7 -99.4q4.6 -3.55 7.7 -8.6q8 -13.05 16.15 -25.65q11.5 -17.65 10.4 -36.25q-0.5 0 -0.6 0.2q-26.25 46.55 -60.25 88.4q-3.65 4.45 -7.65 8.3q-4.35 4.15 -7.1 8.5q3.85 -54.05 1.6 -106.9q-0.8 -0.15 -0.85 0.3q-20.35 5.6 -32.2 24.4q-11.55 18.3 -16.35 39.4q-2.75 12.1 -5.15 24.25q-2.8 29.6 0 59.5q1.9 19.95 16.35 32.1q9.4 7.95 21.8 7.7q8.35 -0.45 16.25 -3.1q18.45 -6.25 33 -19.35q13.45 -12.1 4.85 -27.4q-15 21.35 -38.95 29.6q-14.7 4.9 -29.6 0.15q-7.3 -2.3 -10.5 -9.2q-5 -10.95 -6.6 -23.1q-2.55 -18.95 -0.1 -38.05q3 -4.75 1.5 -10.05q-30.4 -5 -59.8 1.35q5.3 -35.95 31.85 -58.2q15.2 -12.75 34.85 -9.6q11.8 1.85 21.2 7.6q-7.2 -21.75 -29.75 -24.55q-5.55 -0.55 -11.1 -0.1q-0.75 0.1 -0.8 0.3q-5.95 58.3 -5.35 117.65q0.25 22.8 -4.05 44.7q-2.85 3.6 -2.9 8.25q-0.1 4.85 3.2 7.9q2.55 2.45 5.45 4.25q0.85 2.1 2 4.1q1.1 -0.9 1.5 -2.2q5.05 2.45 11.05 3.2q11.4 1.5 20.65 -5.6q40.25 -30.9 37.55 -83.35q-1.5 -29.3 -6.8 -58.05q-7.1 -38.4 -43.7 -47.2q-7.35 0.2 -12.1 5.75q4.3 20.4 2.6 41.15q-1.75 21.15 -10.15 40.85q-8.8 20.75 -30.55 25.35q-9.65 1.95 -18.55 -1.2q5.15 -77 2.2 -155.75q22.35 -6.6 36.95 12q13.1 16.65 17.5 37.6<g id="1787" transform="matrix(1, 0, 0, 1, -132, 0)">
<path style="fill:#000000;fill-opacity:1" d="M349.45,179Q351.7 231.85 347.85 285.9Q350.6 281.55 354.95 277.4Q358.95 273.55 362.6 269.1Q396.6 227.25 422.85 180.7Q422.95 180.5 423.45 180.5Q424.55 199.1 413.05 216.75Q404.9 229.35 396.9 242.4Q393.8 247.45 389.2 251L379.1 264.7Q406.65 312.3 422.8 364.1Q423.6 366.5 422.2 368.95Q414.8 362.6 409.75 350.65Q392.45 309.9 375.6 269.4L346 308.2Q343.1 339.8 338.25 370.95Q337.95 372.85 336.45 373.95Q330 361.45 333.1 344.4Q338.35 315.3 340.1 285.5Q343.2 232.1 348.6 179.3Q348.65 178.85 349.45 179M290.05,178.85Q312.6 181.65 319.8 203.4Q310.4 197.65 298.6 195.8Q278.95 192.65 263.75 205.4Q237.2 227.65 231.9 263.6Q261.3 257.25 291.7 262.25L292 262.7L293.2 265.65Q294.7 270.95 291.7 275.7L229.7 276.85Q227.25 295.95 229.8 314.9Q231.4 327.05 236.4 338Q239.6 344.9 246.9 347.2Q261.8 351.95 276.5 347.05Q300.45 338.8 315.45 317.45Q324.05 332.75 310.6 344.85Q296.05 357.95 277.6 364.2Q269.7 366.85 261.35 367.3Q248.95 367.55 239.55 359.6Q225.1 347.45 223.2 327.5Q220.4 297.6 223.2 268L225.25 266.8Q227.65 254.65 230.4 242.55Q235.2 221.45 246.75 203.15Q258.6 184.35 278.95 178.75Q284.5 178.3 290.05 178.85M150.9,183.5Q155.65 177.95 163 177.75Q199.6 186.55 206.7 224.95Q212 253.7 213.5 283Q216.2 335.45 175.95 366.35Q166.7 373.45 155.3 371.95Q149.3 371.2 144.25 368.75Q143.85 370.05 142.75 370.95Q141.6 368.95 140.75 366.85Q137.85 365.05 135.3 362.6Q132 359.55 132.1 354.7Q132.15 350.05 135 346.45L137.4 346.15L138.55 346.45L139.3 341.65Q143.6 319.75 143.35 296.95Q142.75 237.6 148.7 179.3Q148.75 179.1 149.5 179L149.7 185.15L150.9 183.5M186.9,207.25Q172.3 188.65 149.95 195.25Q152.9 274 147.75 351Q156.65 354.15 166.3 352.2Q188.05 347.6 196.85 326.85Q205.25 307.15 207 286Q208.7 265.25 204.4 244.85Q200 223.9 186.9 207.25" />
</g>
</svg>
