<?xml version="1.0" encoding="utf-8"?>
<svg version="1.1" id="Layer_1"
xmlns="http://www.w3.org/2000/svg"
xmlns:xlink="http://www.w3.org/1999/xlink"


xml:space="preserve">
q-6.8 133.05 -20.7 264.9q1.6 3.85 4.75 6.2q8.95 -79.05 11.65 -158.7q5.25 -5.35 1.65 -11.95q-19.6 -5.55 -39.4 -0.55q25.6 7.95 51.85 2.95q16.8 -2.7 32.25 4.25q-9.6 -23.5 -32.95 -12.45q-19.85 9.45 -28.6 31.05q-7.4 18.4 -10.55 38.05q-3.1 19.45 -4.7 39.3q-1.1 14.75 -1.95 29.55q-1.1 19.1 -1.5 38.2q-0.4 21.35 -0.1 42.65q0.35 23.85 18.65 36q19.3 12.7 40.9 0.35q20.25 -11.7 15.25 -34.1q-19.9 25.6 -50.1 21.45q-17.5 -2.45 -18.25 -20.9q-2 -49.4 1.3 -98.75q21.65 4.25 41.5 -4.1q1.9 -3.9 0.85 -8q-0.65 -2.55 -2.55 -4.05q-18.95 5.55 -39 7.05q-5.1 -63.35 31.75 -108.9q3.8 -4.75 8.8 -8.85q-9 -20.75 -33.5 -17.2q-39.2 5.15 -45.25 48.55q-3.65 26.2 -7.7 52.5q-3 19.4 -4.65 39.05q-3.15 3.3 -0.95 8.4q-7.45 73.35 6.95 144.5q2.15 10.6 9.4 18.9q29.3 3.65 51.2 -15.95q14.85 -13.3 14.55 -32.8q-24.15 29.4 -61.9 29.85q-7.45 0.1 -9.8 -9.85q-15.5 -66.05 -4.9 -134.25q21.3 1.1 41.85 -4.45q5.85 -4 3.15 -10.1q-0.7 -1.65 -2.15 -2.4q4 -57.4 24.2 -111.1q12.45 -17.55 35.55 -16.95q14.25 0.35 25.65 6.65q-0.1 1.95 0.5 3.8q-3.95 13.65 -4.8 28.35q-3.4 59.25 -6.1 118.65q-1.4 29.7 -5.25 58.9q-6.55 49.55 -5.75 98.9q-1.25 1.25 -1.65 3q-1.1 4.95 0.35 9.8q0.7 2.35 2.8 3.7q1.85 1.15 2.1 -0.75q7.5 0.8 14.5 -1.5q24.1 -8 41.85 -26.6q41.85 -44 50.55 -104.9q8.65 -60.3 -12.95 -116.05q-4.15 -10.75 -7.45 -21.75q-12.7 -42.85 -51.95 -61.25q-2 0 -2.75 1.95q-1.3 0.35 -2.55 0.9q-0.65 1.8 -0.75 3.75q17.35 15.55 26.25 37.1q2.6 6.3 5.6 12.35q27.2 55.05 20.15 117.05q-7.4 65.3 -55.6 109.6q-10.6 9.7 -23.65 14.45q-16.65 6.05 -34.9 5.1q5.25 -58.95 7.75 -118.5q2.35 -56.6 9.4 -112.1q10.65 -0.75 21.65 -0.4q4.3 3.55 9.6 5.4<g id="1776" transform="matrix(1, 0, 0, 1, -46.25, 0)">
<path style="fill:#000000;fill-opacity:1" d="M399.2,127.3L449 129.4L449.95 138.5Q423.7 143.5 398.1 135.55L393.45 248.15Q413.25 243.15 432.85 248.7L433.1 249.05Q436.7 255.65 431.45 261L392.85 257.25Q390.15 336.9 381.2 415.95Q378.05 413.6 376.45 409.75L375.95 408.55L375.65 407.2L375.4 405.9L375.25 404.45L375.2 403L375.3 401.4L375.45 399.8Q389.35 267.95 396.15 134.9L396.45 126.5L397.7 126.6L398.2 124.25L399.2 127.3M326.15,144.1Q289.3 189.65 294.4 253Q314.45 251.5 333.4 245.95Q335.3 247.45 335.95 250Q337 254.1 335.1 258Q315.25 266.35 293.6 262.1L292.4 279.25Q289.1 328.6 291.1 378Q291.85 396.45 309.35 398.9Q339.55 403.05 359.45 377.45Q364.45 399.85 344.2 411.55Q322.6 423.9 303.3 411.2Q285 399.05 284.65 375.2Q284.35 353.9 284.75 332.55Q285.15 313.45 286.25 294.35Q287.1 279.55 288.2 264.8L290.4 235.45Q292 215.6 295.1 196.15Q298.25 176.5 305.65 158.1Q314.4 136.5 334.25 127.05Q357.6 116 367.2 139.5Q351.75 132.55 334.95 135.25Q329.95 139.35 326.15 144.1M262.25,127Q239.15 126.4 226.7 143.95Q206.5 197.65 202.5 255.05L244.45 248.5Q245.9 249.25 246.6 250.9Q249.3 257 243.45 261Q222.9 266.55 201.6 265.45Q191 333.65 206.5 399.7Q208.85 409.65 216.3 409.55Q254.05 409.1 278.2 379.7Q278.5 399.2 263.65 412.5Q241.75 432.1 212.45 428.45Q205.2 420.15 203.05 409.55Q188.65 338.4 196.1 265.05L195.85 264.95Q193.65 259.85 196.8 256.55Q198.45 236.9 201.45 217.5Q205.5 191.2 209.15 165Q215.2 121.6 254.4 116.45Q278.9 112.9 287.9 133.65Q276.5 127.35 262.25 127M74.45,106.5Q75.7 105.95 77 105.6L77.7 103.7Q78.45 101.75 80.45 101.75L81.9 104.65L89.95 103L101.45 103.45L102.95 103.75Q142.2 122.15 154.9 165Q158.2 176 162.35 186.75Q183.95 242.5 175.3 302.8Q166.6 363.7 124.75 407.7Q107 426.3 82.9 434.3Q75.9 436.6 68.4 435.8L54.85 434.95Q54.6 436.85 52.75 435.7L52.75 434.95L50.5 434.95Q48.4 433.6 47.7 431.25Q46.25 426.4 47.35 421.45Q47.75 419.7 49 418.45L52.3 418.85Q51.5 369.5 58.05 319.95Q61.9 290.75 63.3 261.05Q66 201.65 69.4 142.4Q70.25 127.7 74.2 114.05Q73.6 112.2 73.7 110.25Q73.8 108.3 74.45 106.5M111.3,120.9Q106 119.05 101.7 115.5Q90.7 115.15 80.05 115.9Q73 171.4 70.65 228Q68.15 287.55 62.9 346.5L56.3 419.15Q74.55 420.1 91.2 414.05Q104.25 409.3 114.85 399.6Q163.05 355.3 170.45 290Q177.5 228 150.3 172.95Q147.3 166.9 144.7 160.6Q135.8 139.05 118.45 123.5L111.3 120.9" />
</g>
</svg>
