<?xml version="1.0" encoding="utf-8"?>
<svg version="1.1" id="Layer_1"
xmlns="http://www.w3.org/2000/svg"
xmlns:xlink="http://www.w3.org/1999/xlink"


xml:space="preserve">
q0.6 53.3 5.8 108.1q5.65 58.95 10.55 117.75q-0.2 11.15 4.55 20.05q1.35 2.5 2.95 4.8q4.15 -6.65 2.75 -14.55q7.25 -52.6 17.2 -105.35q5.55 -29.15 11.9 -58.1q6.5 -29.55 8.25 -57.8q-16.55 49.8 -25.6 103.55q-5.25 -37.75 -8.3 -75.9q-4.65 -58.45 -12.2 -116.3q0 -0.4 0.15 -0.7q1.85 -3.45 -1.65 -5.05q-39.85 25.7 -46.25 77.65q-6.6 53.65 -1.4 107.55q0.4 4.05 2 8.15q3.5 8.75 10.55 14.8q1.6 1.35 3.5 2.35q16.35 -6 28.8 -18.25q24.3 -23.9 27.1 -57.15q0.45 -5.25 -2.55 -9.75q-9.85 45.2 -47.8 67.85q-6.5 3.9 -11.7 -1.1q-1.85 -1.75 -2.5 -4.2q-8 -30.35 -6.55 -61.75q0.75 -17 3.45 -33.7q23.25 4.6 45.75 -2.85q-21.35 -5.95 -43.85 0.4q1 -48.65 31.85 -80.5q7.6 -7.85 19 -7.65q4.9 4.3 5.55 10.65q6.85 -18.75 -12.8 -24.95q8.2 -37.7 -3.65 -82.1q-5.55 -20.85 -6.8 -42.7q-0.45 -7.35 -0.65 -14.75q-5.45 -55.3 -5 -110.55q-9.9 29.3 -22.2 59.05q-1 2.45 -1.1 5.1q-0.1 2.5 0.4 5.1q0.75 4.05 3.05 7.65q16.25 -36.65 27.4 -75.25q3.5 68.05 14.55 135.2q-26.85 27.1 -32.5 65.2q-8.65 58.25 -9.9 118q-0.8 38.4 21.25 69.05q4 5.55 10.55 6.25q31.4 3.5 52.8 -20.8q13.6 -15.35 10.95 -30q-0.15 0.95 -0.75 1.3q-17.3 23 -45.65 30.95q-10.6 3 -18 -4.35q-19.65 -19.4 -20.75 -47.55q-1.15 -29.55 1.2 -59q20.3 -8.3 43.45 -6.8q2.45 -2.85 6 -4.25q1.45 -3.75 -1.05 -6.75q-25.55 -4.05 -47.6 6.4q4.75 -45 18.8 -87.7q7 -21.25 28.15 -28.45q29.95 -10.15 38.9 14.75q2.65 -30.95 -31.55 -30.5q-11.95 1.75 -20.65 10.55q-3.6 6.7 -0.85 13.6q13.2 3.2 27.95 5q2.9 -0.25 5.7 -1.05q2.7 -0.7 5.3 -1.8q2.55 -0.95 5 -2.25q7.4 -3.95 12.5 -10.65q30.1 -39.75 34.65 -89.25q2.6 -27.95 -1.45 -55.7q-7.45 -51.3 -34.9 -95q-8 -12.7 -20.6 -20.65q-13 -8.05 -27.45 -7.7q-3 0.1 -5.8 1.8q29 -0.9 47.1 24.3q17.8 24.85 27.05 54.7q18.15 58.75 1.35 117.2q-4.4 15.35 -10.85 30q-9 20.4 -29.35 26.95q-25.5 8.25 -49.55 1.15q1.7 -27.3 4.2 -54.7q5.3 -59 7.15 -118.6q0.9 -29.85 3.95 -59.15q1.1 -10.7 -1.2 -19.75<g id="1775" transform="matrix(1, 0, 0, 1, -51.15, 0)">
<path style="fill:#000000;fill-opacity:1" d="M335.6,130.3Q335.45 130.6 335.45 131Q343 188.85 347.65 247.3Q350.7 285.45 355.95 323.2L371.6 231.3Q380.65 177.55 397.2 127.75Q395.45 156 388.95 185.55Q382.6 214.5 377.05 243.65Q367.1 296.4 359.85 349L362.45 364.65Q363.85 372.55 359.7 379.2Q358.1 376.9 356.75 374.4L355.45 376.2Q350.7 367.3 350.9 356.15L350.3 351.1Q345.4 292.3 339.75 233.35Q334.55 178.55 333.95 125.25Q337.45 126.85 335.6 130.3M442.65,136.55Q462.3 142.75 455.45 161.5L455.5 159.9Q454.85 153.55 449.95 149.25Q438.55 149.05 430.95 156.9Q400.1 188.75 399.1 237.4Q421.6 231.05 442.95 237L442.95 245.25Q420.45 252.7 397.2 248.1L395.1 261.35Q392.4 278.05 391.65 295.05Q390.2 326.45 398.2 356.8Q398.85 359.25 400.7 361Q405.9 366 412.4 362.1Q450.35 339.45 460.2 294.25Q463.2 298.75 462.75 304Q459.95 337.25 435.65 361.15Q423.2 373.4 406.85 379.4L404.25 379.25Q402.35 378.25 400.75 376.9Q393.7 370.85 390.2 362.1Q388.6 358 388.2 353.95Q383 300.05 389.6 246.4L393.7 213.4Q400.1 161.45 439.95 135.75L442.65 136.55M325.95,384.2Q314.9 317.05 311.4 249L283.1 253.5Q271.95 292.1 255.7 328.75Q253.4 325.15 252.65 321.1Q252.15 318.5 252.25 316Q252.35 313.35 253.35 310.9Q265.65 281.15 275.55 251.85L274.95 244.5L278.8 243.85L307.2 126.75L308.2 135.45L311.2 129.25Q310.75 184.5 316.2 239.8L317.1 239.95L317.7 240.45L316.95 246.7Q317.15 254.1 317.6 261.45Q318.85 283.3 324.4 304.15Q336.25 348.55 328.05 386.25L325.95 384.2M240.95,116.75Q275.15 116.3 272.5 147.25L272.45 148Q263.5 123.1 233.55 133.25Q212.4 140.45 205.4 161.7Q191.35 204.4 186.6 249.4Q208.65 238.95 234.2 243Q236.7 246 235.25 249.75L234.95 250.5Q231.4 251.9 228.95 254.75Q205.8 253.25 185.5 261.55Q183.15 291 184.3 320.55Q185.4 348.7 205.05 368.1Q212.45 375.45 223.05 372.45Q251.4 364.5 268.7 341.5L269.15 340.7L269.45 340L269.7 339.25L270.2 337.75L270.8 337.25L272.7 336.3Q273.3 335.95 273.45 335Q276.1 349.65 262.5 365Q241.1 389.3 209.7 385.8Q203.15 385.1 199.15 379.55Q177.1 348.9 177.9 310.5Q179.15 250.75 187.8 192.5Q193.45 154.4 220.3 127.3Q229 118.5 240.95 116.75M79.85,110.9Q94.3 110.55 107.3 118.6Q119.9 126.55 127.9 139.25Q155.35 182.95 162.8 234.25Q166.85 262 164.25 289.95Q159.7 339.45 129.6 379.2Q124.5 385.9 117.1 389.85Q114.65 391.15 112.1 392.1Q109.5 393.2 106.8 393.9Q104 394.7 101.1 394.95L95.05 395.9L90.55 396.05L86.05 396Q71.3 394.2 58.1 391L57.4 389.5L55.55 388.6L54.85 388.05L54.3 387.3L53.9 386.55Q51.15 379.65 54.75 372.95L56.55 373.7L74.05 112.7Q76.85 111 79.85 110.9M78.55,141.35Q75.5 170.65 74.6 200.5Q72.75 260.1 67.45 319.1Q64.95 346.5 63.25 373.8L63.1 375.9Q87.15 383 112.65 374.75Q133 368.2 142 347.8Q148.45 333.15 152.85 317.8Q169.65 259.35 151.5 200.6Q142.25 170.75 124.45 145.9Q106.35 120.7 77.35 121.6Q79.65 130.65 78.55 141.35M310.75,239.35L305.35 164.25L286.2 242.55L310.75 239.35" />
</g>
</svg>
