<?xml version="1.0" encoding="utf-8"?>
<svg version="1.1" id="Layer_1"
xmlns="http://www.w3.org/2000/svg"
xmlns:xlink="http://www.w3.org/1999/xlink"


xml:space="preserve">
q-12.35 19.45 -15.55 42.05q-3.15 21.95 -2.45 44.05q0.65 19.75 3.35 39.2q2.25 16 5.9 31.7q5.2 23.9 0.6 51.05q-3.35 20 -11.15 38.9q11.7 -19.35 16.2 -41.4q4 -19.8 2.6 -40q-0.45 -6.15 -1.7 -12.3q6.05 -4.4 10.25 -10.7q2.6 -4 4.15 -8.5q-4.4 2.05 -5.65 6.7q-1.25 2.7 -3.2 4.9q-1.3 0.75 -2.75 1.05q-1.05 -32.4 8.75 -67.5q-1.65 -3.7 -2.55 -7.7q-0.65 -2.8 -2.2 -5.1q-1.65 -2.35 -3.8 -4.4q-9.4 -32.65 -39 -47.65q-12.8 -6.5 -27.25 -4.6q-29.75 18.8 -28.8 54.7q1.95 -19.65 12.85 -38.25q3.85 -6.6 10.9 -7.9q-12.85 34.7 -24.95 70.05q-0.8 -4.75 -1.05 -9.4q-1.5 21.15 -9.55 40.9q0 -28.7 -5.25 -56.75q11.85 -20.95 15.5 -44.2q12.7 -9.9 14.8 -31.5q45.45 132 74 268.35q9.6 45.8 2.25 92.1q-4.7 29.7 -15.75 57.45q24.8 -44.1 25.9 -94.95q1.05 -46.55 -10.1 -91.5q-30.25 -121.65 -73.4 -239.5q36.9 -3.55 56.5 27.9q3.35 10.1 10.15 17.35q-5 -2.45 -8.65 -6.8q-3.6 -4.35 -6.25 -9.3q-2.4 -4.15 -6.4 -6.95q-2.65 -1.5 -5.55 -2.25q-7.15 4.85 -15.45 4.3q10.4 -0.25 15.75 8q-5.5 10.85 -4.55 25.75q4.55 -11.35 3.75 -22.8q8.95 -23.35 5.6 -49.1q12.4 4.9 17.45 18.4q3.25 8.7 1.4 16.8q-6.75 5.45 -15.6 5.9q9.3 3.8 16.95 -2.65q10.85 -9.25 8.4 -24.05q-3.25 -19.95 -22.85 -22.8q8.6 -19.55 12.25 -42.75q-9.15 17.55 -13 37q8.55 -8.45 10.35 -22.9q1.15 -9.05 3.7 -17.9q-3.95 3.75 -6.5 8.25q-2.95 5.2 -2.4 11.25q0.3 3.4 1 6.8q1.85 1.25 3.9 1.7q1.1 -0.15 2.15 -0.7q-2.75 -1.15 -5.6 -1.65q-2.7 1.95 -5.75 0.5q-2.6 -1.2 -3.3 -3.9q-0.75 -3.1 -0.35 -6.25q0.75 -6.15 6.05 -9.6q-25.55 9.2 -34.35 -15.65q-5.7 45 -2.75 90.75q4.25 20.7 24.9 24.45q11.35 0.5 15.75 -11.75q-13.85 29.7 -20 58.9q-4.75 -31.65 -15.2 -61.9q7.7 -9.6 11.9 -22.85q13.1 -31.45 20.15 -64.65q1.15 52.4 -3.9 104.2q15 -3.2 30 1.5q1.5 -2.7 3.25 -5.3q-14.85 -3.7 -29 -3.25q1.7 -25.2 4.05 -50.85q2.4 -26.75 -3.05 -50.6q-1.65 2.05 -1.6 4.75q24 60.85 12.3 125.6q-2.05 11.35 -6.8 21.7q-3.65 7.85 -8.85 14.8q-5.25 6.95 -12.6 11.45q-15.55 9.65 -33.5 5.6q-7.3 -7.1 -10.05 -17.1q-2.7 6.55 -6.4 12.65q-2.1 -4.85 -4.85 -9.4q-3.3 -8.85 -5.1 -18q-11.45 -59.5 3.05 -116.6q1.1 -4.3 2.65 -8.05q-19.9 33.25 -17.55 77.45q1.5 27.45 6.45 54.35q2.7 14.85 10.25 27.7q-14 22.95 -36.95 13.3q-4.5 -1.85 -8.05 -5.4q-23.75 -62.1 -22.5 -129.8q1.4 -78.3 8.5 -156q1.4 -15.4 2.1 -30.85q-13.5 92.25 -12.2 185.85q5.6 -7.6 4.8 -17.25q-6.25 74.6 18.5 146.25q10.05 10.65 24.9 11.65q19.75 1.5 30.95 -16.25q43.35 10.4 65.5 -30.45q14.7 -27.05 17.15 -58q5.25 -9.5 2.9 -20q5.25 -13.4 1 -27q1.6 -39.05 -8.2 -81q-2.9 -23.9 -25.4 -31.4q-17.25 -5.6 -34.5 -0.7q4.3 -86.75 -31.35 -163.1q-4.7 -10.05 -12 -18.5q-16.65 -10.85 -37.4 -11.55q-15.65 13.35 -20.1 33.2q6 -17 20.1 -28.2q6.1 -3.45 12.95 -0.9q2.15 0.75 3.1 2.75q43.75 56.95 45.45 132q0.55 24 1.5 48.05q-5.05 4.85 -9.4 10.05q4.25 -3.45 9.6 -5.6q1.1 59.9 -5.4 118.65q-0.8 7.35 -2.6 14.2q18.05 -57.25 15.1 -118.4q-0.85 -17.6 -1.2 -35.15q23.65 -5.7 43.7 7.25q9.5 2.1 13.55 -6.5q-4.2 -6.5 -12.25 -5.5q1.55 -6 1.7 -12.2q0.1 -5.4 -1.2 -10.55q1.25 2.95 3 5.45q2.15 2.95 5.25 4.95q0.95 -1.35 2.95 -3.4q1.6 -3.25 1.4 -7q-5.9 -2.95 -12.55 -2.4q-12.15 -2.1 -25.15 3.15q5.45 -7.05 4.45 -16.15q-0.25 -2.55 -1.15 -5.1q-5.55 14.15 -3.75 29.25q-3.05 1.95 -6.7 2.1q-2.35 0.25 -4.3 -1.15q-6.4 8.8 -3.95 19.15q-2.6 -3.7 -1.9 -8.1q0.55 -3.25 1.4 -6.4q-1.1 0.65 -2.25 1.25q-22.95 19.8 4.05 24.65q2.4 0.45 4.95 0.1q-4.1 1.15 -8.2 0.05q-7.3 -1.85 -8.6 -9.55q1.55 -2.2 4.05 -3.05q5.55 -1.65 10.6 -0.35q1.95 -3.65 2.9 -7.75q1.9 -8.4 0.05 -17q-9.3 -3.4 -20.05 -0.65q-7.95 1.9 -15.45 5.15q-17.15 -11.1 -37.75 -12q-3.2 6.55 -5.7 13.05q6.35 -7.2 17.55 -9.35q11.7 -2.15 22.75 2.2q5 1.95 8.9 5.6q2.35 6.9 8.45 11.25q-12.55 -25.45 -13.15 -53.3q-8.4 58.5 40.1 111.55q30.8 33.6 47.3 76.2q20.95 54.1 16.3 109q-1.25 14.55 3.95 27.25q1.6 4 5.35 6.1q1.4 74.6 -55.5 118q-20.5 15.6 -46.1 14.2q-50.05 -41.55 -26 -102.5q-30.35 44.3 -2.25 89.95q12.8 20.8 35.9 22.25q24.65 0.65 45.45 -13.15q14.1 -9.3 25.25 -21.85q11.65 -13.05 19.05 -29.1q4.3 -9.4 7.85 -19.4q4.3 -12.15 7.05 -24.75q3.35 -15.2 4.2 -30.8q20.75 3.85 22.1 -13.15q-9.05 5.85 -14.5 15q-17.85 -111.35 -89.5 -197.3q-7.5 -9 -12.75 -19.75q-2.95 13.8 -4.55 27.65q11.05 -5.5 22 -2q-11.3 -3.35 -21 0q3.3 -11.9 1.2 -22q-0.8 1.2 -1.2 2.85q3.55 -1.3 4.2 -5.9q5.85 -13 1.75 -26.5q13.4 3.05 18.3 13.3q-5.9 -5.8 -14.2 -5.2q30.45 -0.6 8.55 -22.3q-0.95 -17.85 -8.35 -33.85q11.35 -15.25 18.55 -33.55q-9.55 12.35 -22.95 20.85q-3.85 2.5 -8.05 4.15q7.35 -4.45 15.9 -4.65q4.9 -0.15 9.6 1.4q0 0.3 0.15 0.4q1.2 0.7 2.4 0.5q-5 18.05 -9.7 29.2q-10.95 7.25 -10.45 20.35q6.8 11.8 19 6.5q-10.05 -2.15 -15.75 -11q-0.35 -12.2 10.7 -11.9q8.45 -2.55 12.25 -10.5q-14.65 16.35 -14.15 38.5q0.5 22.95 18.6 36.35q12.85 9.65 29.3 8.15q-8.8 5.3 -19 2.9q-19.6 -4.9 -29.2 -23.1q-12.45 -23.75 1.25 -47.75q7.5 3.85 12.9 -3.45q2.2 -3.6 2.5 -7.65<g id="1817" transform="matrix(1, 0, 0, 1, 17.35, 7.25)">
<path style="fill:#000000;fill-opacity:1" d="M378.7,-6.8L379.15 -6.45Q381.3 -4.4 382.95 -2.05Q384.5 0.25 385.15 3.05Q386.05 7.05 387.7 10.75L385.2 16L382.95 11L374 -0.15L370.45 0.5Q360.65 35.6 361.7 68L364.7 63.5L385.95 64L380.95 72L361.25 69.85L365 119.7L365.95 121L370.2 141.25L374.9 143.2L370.95 123.75L375.95 115.75L382.2 143.7Q383.65 143.4 384.95 142.65L387.35 140.8Q389.3 138.6 390.55 135.9L392.55 130.45Q393.8 125.8 398.2 123.75L396.35 129.5Q394.8 134 392.2 138Q388 144.3 381.95 148.7Q383.2 154.85 383.65 161Q385.05 181.2 381.05 201Q376.55 223.05 364.85 242.4Q372.65 223.5 376 203.5Q380.6 176.35 375.4 152.45L364.7 149.75Q361.05 134.05 358.8 118.05Q356.1 98.6 355.45 78.85Q354.75 56.75 357.9 34.8Q361.1 12.2 373.45 -7.25L378.7 -6.8M539.45,58.75L538.6 58.35Q531.8 51.1 528.45 41Q508.85 9.55 471.95 13.1L443.75 89.85Q486.9 207.7 517.15 329.35Q528.3 374.3 527.25 420.85Q526.15 471.7 501.35 515.8Q512.4 488.05 517.1 458.35Q524.45 412.05 514.85 366.25Q486.3 229.9 440.85 97.9Q438.75 119.5 426.05 129.4L418.2 83.25L416.35 79.15Q412.7 102.4 400.85 123.35L391.65 32.75L390.7 31.75L391.7 -1L399.45 53.75Q404.7 81.8 404.7 110.5L418.7 52.25L431.95 115.25Q440 95.5 441.5 74.35Q441.75 79 442.55 83.75Q454.65 48.4 467.5 13.7L465.5 14.05Q458.45 15.35 454.6 21.95Q443.7 40.55 441.75 60.2Q440.8 24.3 470.55 5.5L475.2 -3.5L475 3.5Q489.45 1.6 502.25 8.1Q531.85 23.1 541.25 55.75L539.45 58.75M402.95,145.75L405.45 142.25L413.8 142.95Q416.7 143.7 419.35 145.2L420.55 145.95Q424.55 148.75 426.95 152.9L418.45 165.25Q421.1 170.2 424.7 174.55L426.55 176.7Q430.2 181.05 435.2 183.5L437.2 187L433.7 193L411.15 166.55L405.25 166L397.7 191.75L402.95 145.75M421.8,155.2Q416.45 146.95 406.05 147.2L405.8 161.35L407.5 161.55Q415.8 162.1 422.95 157.25L421.8 155.2M440.95,193.1L442.7 190.5Q462.3 193.35 465.55 213.3Q468 228.1 457.15 237.35Q449.5 243.8 440.2 240L442.95 235.5L445.75 235.7L447.1 235.65Q455.95 235.2 462.7 229.75Q464.55 221.65 461.3 212.95Q456.25 199.45 443.85 194.55L443.3 194.35Q446.65 220.1 437.7 243.45Q438.5 254.9 433.95 266.25L431.95 254.45L423.35 252.05L420.7 261.25L420.4 259.75L418.2 266Q417.25 251.1 422.75 240.25L424.2 238.5L424.1 247.45L433.35 250.35L436.55 239.45L442.5 194.35L440.95 193.1M412.75,243.75L409.75 241.95L408.7 243.75L408.4 241.85Q403.1 245.3 402.35 251.45Q401.95 254.6 402.7 257.7Q403.4 260.4 406 261.6Q409.05 263.05 411.75 261.1L413.2 258.25L405.65 253.7L407.1 252.9L408.65 252.3L411.1 252.6Q413.95 253.1 416.7 254.25L412.65 265.55L411.15 265.7Q410.1 266.25 409 266.4L406.4 266.9L403.85 266.2Q401.8 265.75 399.95 264.5Q399.25 261.1 398.95 257.7Q398.4 251.65 401.35 246.45Q403.9 241.95 407.85 238.2L402.7 202.5Q400.15 211.35 399 220.4Q397.2 234.85 388.65 243.3L404.45 192L412.2 231.25Q416.05 211.8 425.2 194.25Q421.55 217.45 412.95 237L416.55 240.55L414.15 246L412.75 243.75M359.1,251.2Q354.7 263.45 343.35 262.95Q322.7 259.2 318.45 238.5L312.7 208.5L311.7 207Q308.75 161.25 314.45 116.25L318.05 215.05L319.45 216.25L321.55 230.05L323.45 232.25L324.5 235.7Q333.3 260.55 358.85 251.35L359.1 251.2M371.6,272.6Q364.55 305.8 351.45 337.25L341.45 309L340.7 304.5L338.25 312.55Q334.05 325.8 326.35 335.4L312.4 266.25L314.5 264L315 264.6Q325.45 294.85 330.2 326.5L343.2 293L353.45 322.65Q359.6 293.45 373.45 263.75L371.6 272.6M392.2,324.5Q397.65 348.35 395.25 375.1Q392.9 400.75 391.2 425.95Q405.35 425.5 420.2 429.2Q418.45 431.8 416.95 434.5L416.7 434.95Q401.7 430.25 386.7 433.45Q391.75 381.65 390.6 329.25Q390.55 326.55 392.2 324.5M349,352.6L354.2 351Q334.15 338.05 310.5 343.75Q310.85 361.3 311.7 378.9Q314.65 440.05 296.6 497.3Q298.4 490.45 299.2 483.1Q305.7 424.35 304.6 364.45L304.1 345.75Q298.75 347.9 294.5 351.35Q298.85 346.15 303.9 341.3Q302.95 317.25 302.4 293.25Q300.7 218.2 256.95 161.25L254.95 160.75Q254 158.75 251.85 158Q245 155.45 238.9 158.9L246.45 150.75L238.95 150.5Q224.85 161.7 218.85 178.7Q223.3 158.85 238.95 145.5Q259.7 146.2 276.35 157.05L266.95 156.75Q274.25 165.2 278.95 175.25Q314.6 251.6 310.3 338.35Q327.55 333.45 344.8 339.05Q367.3 346.55 370.2 370.45L371.25 374.2Q381.05 416.15 379.45 455.2L381.45 454.2L394.4 455.45L397.3 448.8L396.45 452.2L397.4 465.35L401 465.7L403.2 452.95Q407.45 466.55 402.2 479.95L399.7 468.9L395.75 469.85L391.45 481.45L394.2 456.35L385.75 458.4Q388.1 468.9 382.85 478.4L384.8 458.6L377.85 459.75Q375.4 490.7 360.7 517.75Q338.55 558.6 295.2 548.2L294.2 546.7L292.2 546.2L283 530.2L280.85 533.45Q269.65 551.2 249.9 549.7Q235.05 548.7 225 538.05L224.2 535.85L221.2 534.45Q196.45 462.8 202.7 388.2L195.75 389.5L195.8 390.2Q196.6 399.85 191 407.45L193 389.1L178 387.45L179.5 385.55L187 383.45L203.05 384.25Q201.75 290.65 215.25 198.4L214.8 210.05Q214.1 225.5 212.7 240.9Q205.6 318.6 204.2 396.9Q202.95 464.6 226.7 526.7L235.1 535.4L236.7 535.45Q240.25 539 244.75 540.85Q267.7 550.5 281.7 527.55Q274.15 514.7 271.45 499.85Q266.5 472.95 265 445.5Q262.65 401.3 282.55 368.05Q281 371.8 279.9 376.1Q265.4 433.2 276.85 492.7Q278.65 501.85 281.95 510.7Q284.7 515.25 286.8 520.1Q290.5 514 293.2 507.45L287.65 522.1Q290.4 532.1 297.7 539.2L299.7 539.7L300.7 541.2L307.75 543.1Q325.7 547.15 341.25 537.5Q348.6 533 353.85 526.05Q359.05 519.1 362.7 511.25Q367.45 500.9 369.5 489.55Q381.2 424.8 357.2 363.95L346.45 356.2L349 352.6M288.55,24.1L290.2 22.75Q298.25 21.75 302.45 28.25L301.9 29.5Q297.85 38.1 288.35 36L287.7 43.25L284.2 50L285.5 24.7L287.2 22.75L288.55 24.1M297.7,27.5L293.7 25.5L288.05 25.9L288.6 32.85L299.6 30L297.7 27.5M270.95,24.5L238.2 25.25L242.2 -2.25Q243.5 2.9 243.4 8.3Q243.25 14.5 241.7 20.5L273.95 18.75L270.95 24.5M282.5,61.4L283.95 60L284.1 60.25L287.15 59.85Q293.8 59.3 299.7 62.25L300.05 66.15Q300.25 69.9 298.65 73.15L298.15 73.85Q296.15 75.9 295.2 77.25L305.45 91.25L308.3 93.75L305.95 98.5L304.45 97.65Q301.35 95.65 299.2 92.7Q297.45 90.2 296.2 87.25L294.2 86L290.45 78.3L284.7 78.6L278.3 97L281.95 63L282.5 61.4M245.5,50.5Q246.4 53.05 246.65 55.6Q247.65 64.7 242.2 71.75L244.5 50.6L230.45 53.5L232.95 49.75Q245.95 44.5 258.1 46.6L255.95 50.25L245.5 50.5M256.3,96.2L245.9 104.85L258.65 117.9L255.8 121.35L243.15 107.5L239.45 111.25L236.45 123.75Q234.65 108.65 240.2 94.5L239.55 110.05L242.55 106.85L242.45 104.7L245.1 104.25L254.2 94.75L256.3 96.2M285.2,73.45Q287.15 74.85 289.5 74.6Q293.15 74.45 296.2 72.5L297.2 67.5L293.2 64L284.75 63.95L285.2 73.45M222.45,70.25L229.45 71.5L231.9 74.8L230.3 77.5L226.45 75L224.45 74L220.2 75.25Q219.35 78.4 218.8 81.65Q218.1 86.05 220.7 89.75L234.25 91.75L231.95 95.25L217.2 93.5L216.25 90.65Q213.8 80.3 220.2 71.5Q221.35 70.9 222.45 70.25M180,140.5L183.85 144.2L182.65 147.1Q177.6 145.8 172.05 147.45Q169.55 148.3 168 150.5Q169.3 158.2 176.6 160.05Q180.7 161.15 184.8 160L187.4 158.3L184 165.25Q181.45 165.6 179.05 165.15Q152.05 160.3 175 140.5L180 140.5M162.35,196.45L161.95 196.5L161.7 196.25L162 195.5L163.6 193.35L164.25 192.5Q171.75 189.25 179.7 187.35Q190.45 184.6 199.75 188L197 192.5L183.35 192.45Q185.2 201.05 183.3 209.45Q182.35 213.55 180.4 217.2L181.7 192.6L163.05 196.4L162.35 196.45M126.75,48.1L125.45 48Q119.35 43.65 117 36.75L114 33.75L112 33.25L111 31.75L108.75 31.3L106.75 29L104.75 28.5L93.5 22.75Q89.6 19.1 84.6 17.15Q73.55 12.8 61.85 14.95Q50.65 17.1 44.3 24.3Q46.8 17.8 50 11.25L55.5 6.75L60.5 4.75Q81.1 5.65 98.25 16.75L109.25 23L111.25 23.5L116 28.25L118 28.75L121 32L127.75 45.45L126.75 48.1M62,128.2Q133.65 214.15 151.5 325.5Q156.95 316.35 166 310.5L175 312L176 313.5L178.25 314.75L175.65 317.95L172 318L171 316.5L163.5 316L152 328.55L155.8 379.95L173.75 379.45L177.6 373.95Q176.25 390.95 155.5 387.1Q154.65 402.7 151.3 417.9Q148.55 430.5 144.25 442.65Q140.7 452.65 136.4 462.05Q129 478.1 117.35 491.15Q106.2 503.7 92.1 513Q71.3 526.8 46.65 526.15Q23.55 524.7 10.75 503.9Q-17.35 458.25 13 413.95Q-11.05 474.9 39 516.45L47.5 517.45Q73.1 518.85 93.6 503.25Q150.5 459.85 149.1 385.25Q145.35 383.15 143.75 379.15Q138.55 366.45 139.8 351.9Q144.45 297 123.5 242.9Q107 200.3 76.2 166.7Q27.7 113.65 36.1 55.15Q36.7 83 49.25 108.45Q54.5 119.2 62 128.2M153.95,271.15L154 284.5L150.75 289.75L151.25 271.05L140 269.5L141.55 268.05L152.8 266.25L160.2 267.8L158 271.25L153.95 271.15M149.2,375.15L147.1 345.6L145.5 370.45L149.2 375.15M168.5,238.25Q170.6 248.35 167.3 260.25L167.25 261Q176.95 257.65 188.25 261L184.75 266.75Q173.8 263.25 162.75 268.75Q164.35 254.9 167.3 241.1Q167.7 239.45 168.5 238.25M191.75,356.95Q195.85 370.45 190 383.45L187.3 371.7L183.5 371.45L182.8 377.75Q182.15 382.35 178.6 383.65L182.5 357.2L183.55 368.15L189 366.9L191.75 356.95M181.9,423.75Q177 413.5 163.6 410.45L165.25 427.85L181.6 427.15L181.9 423.75M165.05,433.9L159.15 460.7L160.55 409.65L158.3 408L159.4 406.4Q167.7 405.8 173.6 411.6Q195.5 433.3 165.05 433.9M195.75,485.95L193.95 490.55Q186.75 508.85 175.4 524.1L166 497.45L151.25 523.95L142.8 486.2L144.1 484L144.15 483.85Q151.55 499.85 152.5 517.7L166.95 492.9L169.5 494.2L177.75 519.2L192 493.2L192 490.95L195.75 485.95M109.4,520.3Q100.85 520.5 93.5 524.95L97.75 519.2L109.75 514.95L124.75 516.95L100.5 542.95L134.25 547.2L130.75 552.95L88 546.7Q92.2 545.05 96.05 542.55Q109.45 534.05 119 521.7Q114.3 520.15 109.4 520.3M442.7,429.45L445.45 433.95Q441.65 441.9 433.2 444.45L451.95 459.45L448.95 464.45L427.1 446.9L420.35 463.05L420.4 459.8Q409.35 459.5 409.7 471.7Q415.4 480.55 425.45 482.7Q413.25 488 406.45 476.2Q405.95 463.1 416.9 455.85L420.75 456.4Q425.45 445.25 430.45 427.2L428.3 442.5L441.4 435.8L440.2 433.45L435.65 429.9L432.9 429.95L432.95 430.2L433.25 430.7Q432.05 430.9 430.85 430.2Q430.7 430.1 430.7 429.8L432.2 426.45L439.2 427.2L442.7 429.45M440.65,468.5Q426.95 492.5 439.4 516.25Q449 534.45 468.6 539.35Q478.8 541.75 487.6 536.45L475.7 549.2Q459.25 550.7 446.4 541.05Q428.3 527.65 427.8 504.7Q427.3 482.55 441.95 466.2L440.65 468.5M412.2,466.6L423.5 465.45L423.35 465.75Q417.95 473.05 410.45 469.2L412.2 466.6M397.2,520.45L411.7 544.95L407.7 549.95L394.45 530.7L385.7 553.7L375.45 523.45L363.45 551.7L376.7 514.95L386.9 544.25L397.2 520.45M383.4,518.35L395.7 489.95L405.95 517.2L423.95 488.7Q423.65 492.75 421.45 496.35L403.95 523.85L394.45 496.95L383.4 518.35" />
</g>
</svg>
