<?xml version="1.0" encoding="utf-8"?>
<svg version="1.1" id="Layer_1"
xmlns="http://www.w3.org/2000/svg"
xmlns:xlink="http://www.w3.org/1999/xlink"


xml:space="preserve">
q4.9 82.65 -1.85 164.4q-0.15 1.75 0.25 3.55q15.8 -69.1 6.75 -141.55q1.8 -2.05 2.05 -4.65q0.3 -3.7 -1.4 -7.05q-2.6 1.85 -2.45 5.25q0.1 2.25 0.7 4.4q-5.35 7.6 -1.25 15.05q6.2 -9.1 -0.45 -15.9q3.35 37.6 -3.8 72.7q-12.35 6.1 -19.75 -3.25q0.2 -5.95 -4.25 -7.25q-8 18.85 9.5 29.25q7.7 2.5 13.35 -2q12.85 -10.3 12.75 -28q-0.15 -43.25 -4.1 -85.45q-4.9 10 -3.7 24q-21.75 7.1 -26.05 31.85q-3.95 22.8 10.55 40.4q13.05 15.9 26.9 31.3q14.9 16.55 19.75 38.3q4.75 21.3 -15.65 33.85q-19.1 4.1 -33.2 -8.9q-15.95 -14.75 -21.75 -37.3q-1 -3.95 -3.05 -7.55q-5.9 35.75 20.3 60.65q13.25 12.6 30.55 9.25q13.65 -2.8 20.7 -14.85q8.85 -15.2 8.25 -33.1q-1 -30.2 -24.65 -48.85q-18.05 -14.25 -28 -34.7q-9.55 -19.65 2.1 -36.95q7.15 -10.65 19.8 -10.5q13.05 0.75 22.6 9.8q2.9 2.8 5.65 1.8q-3.15 -19 -22 -23.4q-6.3 -1.4 -12.8 -1.1q1.45 50.75 2.4 101.2q0.6 34.95 -26.25 55.05q-22.35 16.7 -40.9 -1.3q-2.4 -7.8 -2.8 -15.8q-3 -59.7 4.55 -118.25q2.05 -15.9 0.25 -30.15q-9.85 37.35 -10.9 77.65q-0.75 29.1 -2.75 58.35q-2.2 32.75 22.15 51.85q20.6 3.6 36.5 -11q12.05 -7.25 16.15 -21.2q14.45 -49.05 9.9 -100.85q-1.3 -14.95 -0.4 -29.8q0.85 -14.45 -5.9 -21.1q-1.55 2.35 -1.5 5.25<g id="1819" transform="matrix(1, 0, 0, 1, -132.6, 0)">
<path style="fill:#000000;fill-opacity:1" d="M331.55,187.55Q331.4 184.15 334 182.3L340.95 181.85L415.85 185.2L416.1 185.55Q417.8 188.9 417.5 192.6Q417.25 195.2 415.45 197.25L369.5 195.75L370.5 202.3L371.45 208.85L372.25 215.5L372.95 222.15L373.7 228.9Q382.75 301.35 366.95 370.45L365.75 367.05L364.8 363.5Q364.4 361.7 364.55 359.95Q371.3 278.2 366.4 195.55L332.25 191.95Q331.65 189.8 331.55 187.55M414.4,237.15L413.7 238L410.45 238.25Q406.35 230.8 411.7 223.2L412.2 222.5L413 221.8L413.95 221.25Q420.6 228.05 414.4 237.15M413.45,253.5Q417.4 295.7 417.55 338.95Q417.65 356.65 404.8 366.95Q399.15 371.45 391.45 368.95Q373.95 358.55 381.95 339.7Q386.4 341 386.2 346.95Q393.6 356.3 405.95 350.2Q413.1 315.1 409.75 277.5Q408.55 263.5 413.45 253.5M193.8,183.6Q212.65 188 215.8 207Q213.05 208 210.15 205.2Q200.6 196.15 187.55 195.4Q174.9 195.25 167.75 205.9Q156.1 223.2 165.65 242.85Q175.6 263.3 193.65 277.55Q217.3 296.2 218.3 326.4Q218.9 344.3 210.05 359.5Q203 371.55 189.35 374.35Q172.05 377.7 158.8 365.1Q132.6 340.2 138.5 304.45Q140.55 308.05 141.55 312Q147.35 334.55 163.3 349.3Q177.4 362.3 196.5 358.2Q216.9 345.65 212.15 324.35Q207.3 302.6 192.4 286.05Q178.55 270.65 165.5 254.75Q151 237.15 154.95 214.35Q159.25 189.6 181 182.5Q187.5 182.2 193.8 183.6M307.7,184Q314.45 190.65 313.6 205.1Q312.7 219.95 314 234.9Q318.55 286.7 304.1 335.75Q300 349.7 287.95 356.95Q272.05 371.55 251.45 367.95Q227.1 348.85 229.3 316.1Q231.3 286.85 232.05 257.75Q233.1 217.45 242.95 180.1L243.45 180Q245.25 194.25 243.2 210.15Q235.65 268.7 238.65 328.4Q239.05 336.4 241.45 344.2Q260 362.2 282.35 345.5Q309.2 325.4 308.6 290.45Q307.65 240 306.2 189.25Q306.15 186.35 307.7 184" />
</g>
</svg>
