<?xml version="1.0" encoding="utf-8"?>
<svg version="1.1" id="Layer_1"
xmlns="http://www.w3.org/2000/svg"
xmlns:xlink="http://www.w3.org/1999/xlink"


xml:space="preserve">
q-7.65 3.65 -12.1 11.2q-25.7 43.45 -32.7 93.4q-8.2 58.45 -6.5 117.9q0.7 23.85 14.4 42.7q6.3 8.7 16.35 4.45q22.45 -9.5 36.25 -30.1q12.6 -18.9 9.55 -37.55q-4.6 6.4 -8 14q-12.75 28.7 -40.55 40.75q-4.9 2.15 -8 -1.5q-15.4 -18.05 -15.6 -43q-0.3 -36.75 2.7 -73.25q31.15 -1.35 61.45 -13.5q1.55 -2 1.55 -4.5q0 -2.55 -1.55 -4.5q-3.55 -1.85 -7.45 -1.6q-25.35 9.8 -52.1 13.35q5.35 -48.3 23.45 -93.6q7.15 -17.95 22.9 -23.25q1.9 1.05 2.95 2.9q2.75 4.85 3.8 10.35q4.25 -16.6 -10.3 -23.45q-2.35 52.1 -6.45 104.95q-4.55 59.15 -11.15 117.95q-3.3 29.3 -5 59q-0.95 17 5.2 29.3q3.85 -6.95 3.6 -15.75q-1.75 -59.95 5.8 -118.55q1.4 0.05 2.85 0.65q15.1 -1.9 29.3 -6.4q-1.95 23.9 4.45 44.05q0.9 -0.6 0.9 -1.25q0.2 -36.6 3.3 -73.5q2.95 -35.1 5.3 -70.25q3.95 -4.85 0.65 -9.8q3.25 -59.65 3.9 -118.5q-4.2 14.1 -4.85 30.75q-2.4 59.3 -6.65 118.45q-16.55 3.1 -32.05 9.3q5.2 -45.1 8.35 -90.55q2.1 -30.4 -3.3 -59.35q-40.9 17.3 -83.5 29.25q15.3 3.15 31.9 -3.3q7.3 -2.85 14.65 -5.2q20.5 -6.45 38.45 -17q-1.75 59 -6.7 117.7q-5.1 59.9 -11.85 118.25q-4.1 15.35 1.25 29.25q0.9 -0.35 1 -0.9q5.75 -23.75 7.7 -48.5q4.6 -58.85 8.8 -117.85q4.25 -59.35 4.25 -118.45q-4.15 8.95 -4.45 20.5q-9.75 16.05 -15.2 35.5q-15.85 56.65 -32.3 113.4q-17.55 60.6 -49.5 112.3q-10.65 14.15 -2.5 25.25q20.65 -33.2 34.5 -69.8q18.25 -48.35 33.5 -97.8q17.65 -57.1 32.5 -114.35q0.05 -2.05 -1 -3.75q-10.15 -21.75 -31.15 -5.5q-16.15 12.4 -22.75 32.2q-6.6 19.85 -9.75 40.45q-2.75 17.85 -3 35.75q-0.25 14.7 -0.25 29.4q0.05 21.9 1.65 43.85q1.5 20.25 4 40.25q2.65 20.9 7.45 41.6q4.65 20.05 14.6 37.75q13 23.05 37.65 12.75q19.3 -7.95 35.1 -21.5q14.2 -12.2 10.65 -25.85q-25.9 27.15 -62.8 35.3q-35.85 -29.1 -39.2 -78.95q-2.2 -33.2 -3.65 -66.7q-1.15 -25.75 1.3 -51.5q2.1 -21.8 6.8 -42.95q1.55 -7.1 3.25 -14.15q2.3 -9.4 5.6 -18.35q1.55 -4.15 3.4 -7.8q3.4 -6.6 9.6 -11.15q11.6 -8.5 26.1 -6.5q7.15 60.25 37.6 110.8q3.5 -4.7 0.9 -10.1q-26.15 -53.6 -36.15 -112.15q-3.15 4.5 -2.35 11.45q-1 -27.55 -30.75 -26.75q-20.1 8.05 -34.1 25.6q-17.55 22.05 -9.5 48.9q12.85 42.75 32.8 83.25q13.1 26.65 26.55 53.1q13.4 26.3 15.25 55.45q3.95 61.75 -56.75 81.25q-23.95 7.75 -45.75 -0.6q-0.7 -1 0.2 -2.4q-0.5 0 -1 0.35q-5.95 6.4 -2.15 14.6q1.7 3.7 4.15 7.15q15.2 6.9 32.2 3.7q23.45 -4.45 42.25 -19q48 -37.1 34.4 -97.7q-5.7 -25.3 -17 -48.75q-6.2 -12.8 -6.95 -26.95q-1.4 -26.15 20.3 -43q8.25 -6.4 18.4 -8.25q30.6 -5.5 32.45 23.35q0.7 -4.85 0.55 -9.75<g id="1977" transform="matrix(1, 0, 0, 1, -12.05, 0)">
<path style="fill:#000000;fill-opacity:1" d="M521.25,124.45L520.95 125Q519.9 119.5 517.15 114.65Q516.1 112.8 514.2 111.75Q498.45 117.05 491.3 135Q473.2 180.3 467.85 228.6Q494.6 225.05 519.95 215.25Q523.85 215 527.4 216.85L528.2 217.5Q529.75 219.45 529.75 222Q529.75 224.5 528.2 226.5Q497.9 238.65 466.75 240Q463.75 276.5 464.05 313.25Q464.25 338.2 479.65 356.25Q482.75 359.9 487.65 357.75Q515.45 345.7 528.2 317Q531.6 309.4 536.2 303Q539.25 321.65 526.65 340.55Q512.85 361.15 490.4 370.65Q480.35 374.9 474.05 366.2Q460.35 347.35 459.65 323.5Q457.95 264.05 466.15 205.6Q473.15 155.65 498.85 112.2Q503.3 104.65 510.95 101Q525.5 107.85 521.25 124.45M402.2,93Q407.6 121.95 405.5 152.35Q402.35 197.8 397.15 242.9Q412.65 236.7 429.2 233.6L429.7 226.45Q433.95 167.3 436.35 108Q437 91.35 441.2 77.25Q440.55 136.1 437.3 195.75L435.15 232.6L439.2 232Q442.5 236.95 438.55 241.8L438.2 242.5L434.45 243.95Q432.1 279.1 429.15 314.2Q426.05 351.1 425.85 387.7Q425.85 388.35 424.95 388.95Q418.55 368.8 420.5 344.9L428.25 246.1Q414.05 250.6 398.95 252.5Q397.5 251.9 396.1 251.85L393.85 269.9Q386.3 328.5 388.05 388.45Q388.3 397.25 384.45 404.2Q378.3 391.9 379.25 374.9Q380.95 345.2 384.25 315.9Q390.85 257.1 395.4 197.95Q399.5 145.1 401.85 93L402.2 93M394.95,114.5Q377 125.05 356.5 131.5Q349.15 133.85 341.85 136.7Q325.25 143.15 309.95 140L309.95 134Q352.55 122.05 393.45 104.75L394.95 114.5M353.2,137.25Q353.2 196.35 348.95 255.7Q344.75 314.7 340.15 373.55Q338.2 398.3 332.45 422.05Q332.35 422.6 331.45 422.95Q326.1 409.05 330.2 393.7Q336.95 335.35 342.05 275.45Q347 216.75 348.75 157.75Q349.05 146.2 353.2 137.25M319.2,97.25L319.2 98Q304.35 155.25 286.7 212.35Q271.45 261.8 253.2 310.15Q239.35 346.75 218.7 379.95Q210.55 368.85 221.2 354.7Q253.15 303 270.7 242.4Q287.15 185.65 303 129Q308.45 109.55 318.2 93.5Q319.25 95.2 319.2 97.25M214,89.85Q199.5 87.85 187.9 96.35Q181.7 100.9 178.3 107.5Q176.45 111.15 174.9 115.3Q171.6 124.25 169.3 133.65Q167.6 140.7 166.05 147.8Q161.35 168.95 159.25 190.75Q156.8 216.5 157.95 242.25Q159.4 275.75 161.6 308.95Q164.95 358.8 200.8 387.9L201.85 387.7Q238.75 379.55 264.65 352.4Q268.2 366.05 254 378.25Q238.2 391.8 218.9 399.75Q194.25 410.05 181.25 387Q171.3 369.3 166.65 349.25Q161.85 328.55 159.2 307.65Q156.7 287.65 155.2 267.4Q153.6 245.45 153.55 223.55Q153.55 208.85 153.8 194.15Q154.05 176.25 156.8 158.4Q159.95 137.8 166.55 117.95Q173.15 98.15 189.3 85.75Q210.3 69.5 220.45 91.25L214 89.85M239.2,80.25Q249.2 138.8 275.35 192.4Q277.95 197.8 274.45 202.5Q244 151.95 236.85 91.7Q236.05 84.75 239.2 80.25M123.2,98.25Q121.35 69.4 90.75 74.9Q80.6 76.75 72.35 83.15Q50.65 100 52.05 126.15Q52.8 140.3 59 153.1L111.85 261.95Q123.15 285.4 128.85 310.7Q142.45 371.3 94.45 408.4Q75.65 422.95 52.2 427.4Q35.2 430.6 20 423.7Q17.55 420.25 15.85 416.55Q12.05 408.35 18 401.95Q18.5 401.6 19 401.6L19.8 401.85L21.6 402.9L22 403.45L22.15 404.25L22.2 404.95L21.7 406.3Q20.8 407.7 21.5 408.7Q43.3 417.05 67.25 409.3Q127.95 389.8 124 328.05Q122.15 298.9 108.75 272.6Q95.3 246.15 82.2 219.5Q62.25 179 49.4 136.25Q41.35 109.4 58.9 87.35Q72.9 69.8 93 61.75Q122.75 60.95 123.75 88.5Q123.9 93.4 123.2 98.25" />
</g>
</svg>
