<?xml version="1.0" encoding="utf-8"?>
<svg version="1.1" id="Layer_1"
xmlns="http://www.w3.org/2000/svg"
xmlns:xlink="http://www.w3.org/1999/xlink"


xml:space="preserve">
q-13.8 6.25 -17.95 21.55q-13.95 51.35 -19.25 104.3q-3.75 38.35 11.4 72.4q11.1 24.95 32.65 9.75q21.4 -15.1 15.35 -37.35q-3.7 14.95 -16.4 24.15q-19.65 14.25 -28.75 -8.75q-12.95 -32.65 -9 -68.5q17.55 7.8 36.95 1.65q3.1 -6.3 -0.7 -11.95q-18.8 3.5 -35.9 3.3q5.2 -53.3 14.95 -105.8q4.1 -21.95 21.55 -30.8q7.15 4.6 7.1 13.3q1.1 -2 1.15 -4.75q0.15 -7.95 -3.9 -15q-3.2 18.4 -3.55 37.5q-0.9 59.15 -2.7 118.5q-1.8 59.9 -7.3 119.25q-1.55 16.65 -0.2 32.25q-0.8 2.55 -0.6 5.2q0.15 1.95 0.95 3.75q1.25 8.05 3.3 15.85q1.75 -0.25 1.65 -1.95q-0.3 -6.6 -0.45 -13.2q10.65 1.35 21.85 -0.3q9.85 -1.4 16.85 -8.4q32.8 -32.75 27.2 -80.75q-4.8 -41.4 -36.3 -62.45q5.75 -3.45 10.35 -11.4q31.5 -54.6 11.2 -114.05q-11.35 -33.35 -43.1 -49.7q-1.5 0.35 -1.55 2.25q-0.15 2.85 1.3 5.25q-0.85 -0.15 -0.95 0.75q-3.15 36.8 -2.25 74.25q1.4 59.65 0.65 119.25q-0.7 59.55 -2.95 118.45q0.65 1.65 2.25 2q6.2 -34.45 5.8 -71.7q-0.65 -59.8 0.15 -119.25q0.85 -59.6 -2.95 -118.5q1.25 -2.35 -0.2 -4.45q16.05 57.25 -22.1 101.65q-11.25 2.35 -20.1 -1.35q0.75 -18.9 1.05 -37.9q0.95 -59.25 -0.15 -117.3q31.3 19.3 41.3 54.9q33.5 46.1 7.95 97.65q-4.5 9.1 -13.7 13.25q-17.35 7.85 -35.9 8.35q-0.4 -35.65 3 -71.3q3.25 -34.75 4.9 -69.8q7.7 3.9 14.25 3.3q10.85 6.6 19.5 18.55q-3.2 14 -2.95 30.25q0.95 59.6 -4.35 118.4q-1.75 -1 -3.6 -1.55q-2.3 2.95 -0.5 6.35q1.3 2.45 3.25 4.6q-4.25 49.5 -7.45 99.3q-0.75 11.25 -3 22.1q-3.6 17.45 2.95 29.35q2.8 -4.7 3.25 -10.45q2.7 -32.1 4.95 -64.3q5.45 0.7 10.15 -2.05q1.8 17.2 8.65 35.4q21 55.6 30.85 113.6q2.25 13.25 9.9 19.3q1.25 -11.85 -2.25 -23.65q-16.2 -52.75 -33.55 -105.05q27.4 -20.8 34.5 -57.2q5.45 -27.95 -2.15 -55.25q-9.95 -35.95 -44.25 -49.2q-0.45 0.75 -0.65 1.7q22.55 1.7 35.7 21.95q12 18.5 12.75 40.55q0.7 21.85 -5.1 42.9q-5.7 20.6 -21.85 34.25q-10.6 9.05 -24.5 11.5q6.65 -76.5 2.35 -153.3q-16.1 11.2 -24.2 30.15q-21.5 50.45 -26.9 104.4q-5.9 58.6 -3.9 117.6q1.3 37.75 21.1 69.25q7 11.15 19.35 12.1q22.9 1.75 40.7 -14.15q15.1 -13.5 14.15 -30.5q-16.75 19.4 -40.3 30.15q-7.05 3.2 -14.15 0.5q-25.95 -9.75 -30.65 -38.25q-6.65 -39.95 -7.35 -81.1q-0.95 -58.2 14.5 -113.25q11.8 -42.15 35.7 -77.25q15 -4.5 26.5 5.5q3 0.5 5 3q1.35 1.65 3.25 2.5q0.15 0.75 0.6 1.15q1.75 1.55 3.3 3.55q0.25 0.3 0.85 0.3q-7.75 -24.15 -33.15 -27.2q-12.35 1.45 -21 10.65q-30.05 31.8 -19.7 76.5q13.25 57.05 36.35 111.3q13.25 31.1 18.35 64.2q9 58.3 -45.7 86.9q-28.8 15 -49 -5.6q-0.25 0.1 -0.35 0.45q-0.4 4.7 1.6 9.2q2.45 5.6 8.05 8q31.05 13.4 58.35 -8.6q48.25 -38.9 33 -98.9q-14.5 -57.05 -36.55 -112.45q-16.15 -40.55 -17.95 -83.75q-0.45 -11.45 4.35 -21.85q14.85 -32.2 49.1 -23.6q3.3 3.2 5.8 6.9q1.05 1.55 0.7 3.6q2.5 -3.15 -0.75 -9.1<g id="1972" transform="matrix(1, 0, 0, 1, -11.6, 0)">
<path style="fill:#000000;fill-opacity:1" d="M520.2,80.25L526.15 84.8L526.95 85.5Q531 92.55 530.85 100.5Q530.8 103.25 529.7 105.25Q529.75 96.55 522.6 91.95L519.95 90.25Q502.5 99.1 498.4 121.05Q488.65 173.55 483.45 226.85L482.55 236.3Q499.65 236.5 518.45 233Q522.25 238.65 519.15 244.95L518.7 245.75Q499.3 251.9 481.75 244.1L474.3 315.35Q470.35 351.2 483.3 383.85Q492.4 406.85 512.05 392.6Q524.75 383.4 528.45 368.45Q534.5 390.7 513.1 405.8Q491.55 421 480.45 396.05Q465.3 362 469.05 323.65L480.75 205.85Q486.05 152.9 500 101.55Q504.15 86.25 517.95 80L520.2 80.25M405.1,82.75L404.7 82.5Q403.25 80.1 403.4 77.25Q403.45 75.35 404.95 75L405.2 75Q436.95 91.35 448.3 124.7Q468.6 184.15 437.1 238.75Q432.5 246.7 426.75 250.15Q458.25 271.2 463.05 312.6Q468.65 360.6 435.85 393.35Q428.85 400.35 419 401.75Q407.8 403.4 397.15 402.05Q397.3 408.65 397.6 415.25Q397.7 416.95 395.95 417.2Q393.9 409.4 392.65 401.35L386.45 399.95Q385.65 398.15 385.5 396.2Q385.3 393.55 386.1 391L386.45 390.2L391.3 390.5Q389.95 374.9 391.5 358.25Q397 298.9 398.8 239Q400.6 179.65 401.5 120.5Q401.85 101.4 405.05 83L405.1 82.75M361.4,98.2L360.95 99Q364.75 157.9 363.9 217.5Q363.1 276.95 363.75 336.75Q364.15 374 357.95 408.45Q356.35 408.1 355.7 406.45Q357.95 347.55 358.65 288Q359.4 228.4 358 168.75Q357.1 131.3 360.25 94.5Q360.35 93.6 361.2 93.75Q362.65 95.85 361.4 98.2M406.25,83.45Q407.35 141.5 406.4 200.75Q406.1 219.75 405.35 238.65Q414.2 242.35 425.45 240Q463.6 195.6 447.55 138.35Q437.55 102.75 406.25 83.45M419.1,252.7Q412.55 253.3 404.85 249.4Q403.2 284.45 399.95 319.2Q396.55 354.85 396.95 390.5Q415.5 390 432.85 382.15Q442.05 378 446.55 368.9Q472.1 317.35 438.6 271.25Q429.95 259.3 419.1 252.7M265.2,81.75L267 81.15L269.95 80.75Q304.25 94 314.2 129.95Q321.8 157.25 316.35 185.2Q309.25 221.6 281.85 242.4Q299.2 294.7 315.4 347.45L327.4 387.05Q330.9 398.85 329.65 410.7L329.2 412.2Q321.55 406.15 319.3 392.9Q309.45 334.9 288.45 279.3Q281.6 261.1 279.8 243.9L271.9 249Q267.2 251.75 261.75 251.05Q259.5 283.25 256.8 315.35L250.95 386.5Q250.5 392.25 247.7 396.95Q241.15 385.05 244.75 367.6Q247 356.75 247.75 345.5Q250.95 295.7 255.2 246.2Q253.25 244.05 251.95 241.6Q250.15 238.2 252.45 235.25Q254.3 235.8 256.05 236.8L256.9 226.9Q262.2 168.1 261.25 108.5Q261 92.25 264.2 78.25L264.55 83.45Q264.75 82.5 265.2 81.75M264.8,87.1Q269.1 163.9 262.45 240.4Q276.35 237.95 286.95 228.9Q303.1 215.25 308.8 194.65Q314.6 173.6 313.9 151.75Q313.15 129.7 301.15 111.2Q288 90.95 265.45 89.25L264.8 87.1M187.95,70.75Q213.35 73.8 221.1 97.95L221.45 98.75Q220.85 98.75 220.6 98.45Q219.05 96.45 217.3 94.9Q216.85 94.5 216.7 93.75Q214.8 92.9 213.45 91.25Q211.45 88.75 208.45 88.25Q196.95 78.25 181.95 82.75Q158.05 117.85 146.25 160Q130.8 215.05 131.75 273.25Q132.45 314.4 139.1 354.35Q143.8 382.85 169.75 392.6Q176.85 395.3 183.9 392.1Q207.45 381.35 224.2 361.95Q225.15 378.95 210.05 392.45Q192.25 408.35 169.35 406.6Q157 405.65 150 394.5Q130.2 363 128.9 325.25Q126.9 266.25 132.8 207.65Q138.2 153.7 159.7 103.25Q167.8 84.3 183.9 73.1L187.95 70.75M107.95,65.5L110.45 67.75L112.5 69.2L113.7 70L117.7 77.4Q120.95 83.35 118.45 86.5Q118.8 84.45 117.75 82.9Q115.25 79.2 111.95 76Q77.7 67.4 62.85 99.6Q58.05 110 58.5 121.45Q60.3 164.65 76.45 205.2Q98.5 260.6 113 317.65Q128.25 377.65 80 416.55Q52.7 438.55 21.65 425.15Q16.05 422.75 13.6 417.15Q11.6 412.65 12 407.95Q12.1 407.6 12.35 407.5L14.25 407.2L15.25 407.2Q35.45 427.8 64.25 412.8Q118.95 384.2 109.95 325.9Q104.85 292.8 91.6 261.7Q68.5 207.45 55.25 150.4Q44.9 105.7 74.95 73.9Q83.6 64.7 95.95 63.25L106.45 65L107.95 65.5" />
</g>
</svg>
