<?xml version="1.0" encoding="utf-8"?>
<svg version="1.1" id="Layer_1"
xmlns="http://www.w3.org/2000/svg"
xmlns:xlink="http://www.w3.org/1999/xlink"


xml:space="preserve">
q-21.6 5.85 -31.55 27.85q-8.9 19.5 -11.05 40.9q-2.2 21.65 -4.1 43.35q-1.85 20.8 2.2 41.15q4.9 24.9 28.9 28.35q22.45 3.55 39.65 -11.55q7.05 -37.45 3.65 -75.4q1.2 32.2 -29.65 39.9q-11 2.75 -21.9 0.3q-2.05 -0.55 -3.8 -1.65q-13 -7.9 -15 -23.6q-7.65 -59.9 20.25 -111.9q5.8 -10.8 18.4 -13.4q15.15 -2.8 27.2 6.65q1.3 -17.15 -14.95 -21.3q-5.8 -1.45 -11.8 -0.95q15.85 6.4 23.1 20q1.3 -2.5 0.95 -5.15q-3.75 -31.4 -37.65 -30.85q-22.75 18.95 -17.85 50.75q1.45 9.5 8.05 15.95q22.35 21.75 36.4 49.2q5.25 10.3 4.3 21.7q-2.95 35.35 -39.4 31.1q-5.95 -4.7 -11 -10.45q-2.35 -2.7 -2.35 -5.8q0.1 -12.7 -6.4 -18q-3 7.35 -2.8 15.75q0.65 22.8 21.55 35.25q21.5 6.15 34.7 -9.5q9.1 -10.8 10.85 -24.7q6.35 -50.05 -32.5 -83.55q-28.95 -24.95 -3.8 -52.7q7.3 -1.65 13.85 1q5.1 41 -20.3 70.3q-8.1 9.3 -20.4 10.35q-31.25 2.75 -33.55 -27.7q-3.15 -42.1 1.25 -83.85q3.25 -30.35 1.65 -59.35q-4.35 9.35 -5.6 21.35q-5.55 55.3 -4.6 111.85q0.25 15.3 5.2 29.4q10.5 29.9 41.25 23.1q40.65 -19.65 40.3 -66.75q-0.3 -44.45 -2.15 -88.55q-0.7 -17 -8.4 -29.15q-2.9 21.15 -0.1 44.3<g id="1822" transform="matrix(1, 0, 0, 1, -135.75, 0)">
<path style="fill:#000000;fill-opacity:1" d="M386.75,184.95Q403 189.1 401.7 206.25Q389.65 196.8 374.5 199.6Q361.9 202.2 356.1 213Q328.2 265 335.85 324.9Q337.85 340.6 350.85 348.5Q352.6 349.6 354.65 350.15Q365.55 352.6 376.55 349.85Q407.4 342.15 406.2 309.95L383.7 308.95L383.95 300.7L409.45 295.7Q412.85 333.65 405.8 371.1L400.95 352.35L399 354.05Q381.8 369.15 359.35 365.6Q335.35 362.15 330.45 337.25Q326.4 316.9 328.25 296.1Q330.15 274.4 332.35 252.75Q334.5 231.35 343.4 211.85Q353.35 189.85 374.95 184Q380.95 183.5 386.75 184.95M166.75,195.75Q141.6 223.5 170.55 248.45Q209.4 281.95 203.05 332Q201.3 345.9 192.2 356.7Q179 372.35 157.5 366.2Q136.6 353.75 135.95 330.95Q135.75 322.55 138.75 315.2Q145.25 320.5 145.15 333.2Q145.15 336.3 147.5 339Q152.55 344.75 158.5 349.45Q194.95 353.7 197.9 318.35Q198.85 306.95 193.6 296.65Q179.55 269.2 157.2 247.45Q150.6 241 149.15 231.5Q144.25 199.7 167 180.75Q200.9 180.2 204.65 211.6Q205 214.25 203.7 216.75Q196.45 203.15 180.6 196.75Q174.05 194.1 166.75 195.75M297.1,227.55Q294.3 204.4 297.2 183.25Q304.9 195.4 305.6 212.4Q307.45 256.5 307.75 300.95Q308.1 348.05 267.45 367.7Q236.7 374.5 226.2 344.6Q221.25 330.5 221 315.2Q220.05 258.65 225.6 203.35Q226.85 191.35 231.2 182Q232.8 211 229.55 241.35Q225.15 283.1 228.3 325.2Q230.6 355.65 261.85 352.9Q274.15 351.85 282.25 342.55Q307.65 313.25 302.55 272.25L297.1 227.55" />
</g>
</svg>
