<?xml version="1.0" encoding="utf-8"?>
<svg version="1.1" id="Layer_1"
xmlns="http://www.w3.org/2000/svg"
xmlns:xlink="http://www.w3.org/1999/xlink"


xml:space="preserve">
q-5.3 20.1 -6.3 41.3q-0.55 11.7 3.05 22.7q-28 0 -30.4 27.2q-1 10.9 5.85 18.45q18.8 20.8 40.55 2.35q12.65 -31.25 -16.3 -47.25q-15.3 9.4 -31.25 -0.45q-9.3 -24.85 16.5 -31.75q17.05 3.85 21.3 20.75q-0.85 -25.7 23.1 -26.7q0.1 -14.65 -15.05 -13.65q-4.55 0.55 -9 1.85q-20.05 22.2 -10 51.75q10.05 2.05 18.8 -3.05q5.7 -14.45 1.9 -29.5q0.65 5.9 8 5.5q3.8 -0.05 7.1 -1.3q-8.6 4.85 -18.55 4.5q-3.2 -3 -4 -7.3q-0.4 -2.2 -0.5 -4.45q-7.4 58.65 -17.05 117q-9.7 58.35 -17.6 117q-7.8 58.15 -16.95 116.05q-2.1 -10.95 -4.95 -21.95q-16.55 -57.5 -21.4 -116.75q-1.2 -14.65 -0.85 -29.2q0.35 -16.25 -5.1 -28.5q-7.8 50 -15 101.15q-8.15 58.15 -18.25 115.8q-3.1 -57.1 -8.95 -113.8q-6.1 -58.7 -14.5 -117.05q-1.1 10.4 0 20.9q5.95 58.35 14.05 116.95q8.05 58.3 12.95 117.05q4.9 58.3 10.5 116.3q4.95 -1.15 6.35 -8.05q6.7 -33.55 12.05 -67.45q9.15 -58.05 16.1 -116.45q3.15 36.9 11.6 72.85q13.6 58.2 24.9 116.6q0.65 2.5 3.25 2.5q2.65 -2.5 3.45 -6.4q9.55 -47.3 15.35 -95.2q7.15 -58.75 16.2 -117.2q9 -58.55 20.35 -116.65q4.45 -22.75 1.15 -43.75q-4.3 1.3 -4.9 6.15q-17.2 -10.85 -37.8 -11.4q-23.8 17.65 -30.45 48.45q-12.45 57.7 -9.45 117.8q1.45 28.55 21.9 46.5q8.5 0.5 15.8 -2.25q35.45 -13.25 44 -50.75q6.2 -27.35 10.65 -54.95q7.85 -48.9 -13.2 -92.55q-8.95 25.55 -2.65 52.45q19.45 -0.1 25.95 -18.1q6.95 -19.4 -0.95 -38.65q6.6 30.35 -14.85 45.1q-5.65 3.85 -12.55 2.5q-9.45 -14.6 -7.4 -31.8q1 -8.35 3.55 -16.3q-3.85 46.15 -43.95 68.15q-15.5 3.65 -24.5 -8.25q-10.85 -23 -10.55 -48.75q0.25 -25 1.7 -49.6q2.8 -46.5 31.35 -81.65q18.4 -3.2 29.75 8.5q21.3 22.75 18.3 56.3q-21.65 -2.85 -43 -3.35q-6.9 -0.15 -13.5 1.85q-0.3 1.8 0.3 3.75q10.85 -1.65 21.8 -1.45q10.8 0.15 21.2 2.4q-8.5 7.7 -18.9 12.15q-20.4 8.75 -23.6 29.6q-15.45 -21.3 -43.9 -15.25q-2.2 0.75 -4.65 2.15q-21.4 11.9 -28.5 36.45q-13.95 48.5 12.1 90.7q35.15 56.9 59.6 119.6q20.45 52.25 21.3 108.8q0.45 26.45 -0.1 52.5q-0.8 39.25 -31.35 59.65q-9.45 6.35 -20.6 3.8q-49.2 -11.2 -53.4 -60.45q-0.4 -4.85 1 -9.3q5.1 -16.15 -0.9 -28.2q-9.05 20.25 -6.95 43.55q4.25 48.4 49.2 67.05q5.25 2.15 10.65 1.85q41.75 -2.25 50.25 -43.15q12.15 -58.1 6.8 -118.3q-5.1 -57.75 -29.4 -110.5q-18.3 -39.75 -41.65 -76.1q-12.55 -19.5 -20.55 -41.05q-9.55 -25.8 -2.15 -53.2q10.85 -40.2 54.15 -33.8q7.65 1.15 13.1 6.7q6.2 6.25 8.75 12.25q2.35 -8.7 -2.8 -15.75q-13.3 -4.25 -28.7 -2.9q-5.2 20.7 -3.1 42.85q0.5 5.55 0.6 11.15q-12.8 8.55 -27.5 6.75q-9.65 -17.35 6.1 -32.7q2.95 3.2 6.9 5.1q-0.05 -8.7 -7.55 -13.95q-2.8 -2 -6.2 -1.65q-16.8 17.75 -10.45 42.05q1.35 5.1 3.95 9.7q22.35 3.65 33.65 -15.8q1.1 -1.9 0.1 -3.5q-3.5 67.7 0.9 134.45q0.1 1.2 0.65 2.3q5 -41 2.1 -82.7q-1 -14 -1.4 -28q1.9 -1.8 1.5 -4.5q-16.6 12.85 -18.2 34.5q-1.6 21.85 18.95 27.45q3.3 -1.65 5.8 -4.5q1.3 -1.55 1.25 -3.55q-0.05 -1.9 -0.75 -3.25q-4.85 -14.85 2.25 -28.15q2.95 -5.45 7.75 -9.3q0.55 -1.4 0.5 -2.75q-0.05 -1.7 -0.75 -3.05q-0.9 -1.8 -2.75 -1.9q-5.65 26.9 -3.8 54.45q-16.35 13.35 -25.4 34.85q8.15 -22.95 5.45 -48.6q-2.2 29.25 13.8 54.5q13.65 -18.95 11.3 -42.25q-0.65 -6.6 -5.9 -10.4q-5.05 -3.6 -11.15 -4.1q-0.35 -0.1 -0.7 0.35q-2.5 12.35 0.95 24.4q-22 8.95 -35.3 28.45q-22.05 32.25 -23.9 72.5q-1.15 25.9 -1.9 51.95q-0.3 2.6 0.35 5.1q-0.8 30.2 -1.05 60.6q-0.25 37.8 10.2 73.35q6.65 22.7 29.35 29q10.9 3 20.45 -2.7q34.65 -20.75 31.55 -61.4q-4.75 1.5 -5.55 8.3q-2.6 22.4 -19.7 36.7q-9.65 6.4 -20.8 4.9q-21.75 -2.9 -28.35 -23q-11.5 -34.95 -11.45 -72.9q0.05 -26.5 0.6 -52.9q21.7 -0.8 43.75 -5.1q3.05 -3.7 1.7 -8.3q-22.25 3.3 -43.3 8.4q0.65 -28.6 1.95 -56.95q2.75 -59.4 55.85 -83.9q0.25 0.25 0.55 0.3q3.65 0.75 6.2 2.7q1.05 2 2.45 1.9q1.9 -15.95 -13.7 -18.7q3.2 19.65 -8.75 35.85q3.75 -22.25 1.3 -44.5q5.3 15.75 13.4 29.75q0.2 0.35 0.7 0.55q0.85 -12.2 -7.3 -24.95q-4.7 -7.35 -6.8 -5.35q2.35 -17.7 -0.75 -35.25q-5.9 21.75 -2.5 45.25q3.8 22.9 -10.45 39.4q-4.9 5.7 -12 7.6q-17.9 -7.7 -12.2 -28.1q2.35 -8.35 0.45 -16.9q-10 26.1 5.75 47.2q6.8 9.05 15.35 1.45q24.05 -21.15 13.65 -51.7q-0.15 -0.4 -0.55 1.05<g id="1807" transform="matrix(1, 0, 0, 1, -4.45, 0)">
<path style="fill:#000000;fill-opacity:1" d="M444.95,77.55L449.75 50.5L450.25 78.55L451.7 85.5L448.7 85.85L443.75 121L444.1 86.3L425.15 87.25L421.7 116.5Q418.1 105.5 418.65 93.8Q419.65 72.6 424.95 52.5L425.6 81.1L444.95 77.55M382.5,48.25L382.2 49Q360.45 67.45 341.65 46.65Q334.8 39.1 335.8 28.2Q338.2 1 366.2 1Q395.15 17 382.5 48.25M381.25,30.75Q377 13.85 359.95 10Q334.15 16.9 343.45 41.75L345.3 42.9Q361.25 52.75 376.55 43.35L381.7 32.75L381.25 30.75M359.7,96.95Q360.5 101.25 363.7 104.25L366.5 104.6Q376.45 104.95 385.05 100.1L386.7 91.5Q383.4 92.75 379.6 92.8Q372.25 93.2 371.6 87.3L389.2 84.5Q393 99.55 387.3 114L384.55 110.45L382.25 111.95Q373.5 117.05 363.45 115L357.45 109Q347.4 79.45 367.45 57.25Q371.9 55.95 376.45 55.4Q391.6 54.4 391.5 69.05L385.2 66L382.3 65.8Q358.35 66.8 359.2 92.5Q359.3 94.75 359.7 96.95M474.45,115Q477.75 136 473.3 158.75Q461.95 216.85 452.95 275.4Q443.9 333.85 436.75 392.6Q430.95 440.5 421.4 487.8Q420.6 491.7 417.95 494.2Q415.35 494.2 414.7 491.7Q403.4 433.3 389.8 375.1Q381.35 339.15 378.2 302.25Q371.25 360.65 362.1 418.7Q356.75 452.6 350.05 486.15Q348.65 493.05 343.7 494.2Q338.1 436.2 333.2 377.9Q328.3 319.15 320.25 260.85Q312.15 202.25 306.2 143.9Q305.1 133.4 306.2 123L322.75 238.1Q331.15 296.45 337.25 355.15Q343.1 411.85 346.2 468.95Q356.3 411.3 364.45 353.15Q371.65 302 379.45 252Q384.9 264.25 384.55 280.5Q384.2 295.05 385.4 309.7Q390.25 368.95 406.8 426.45L413 449.25Q415.85 460.25 417.95 471.2Q427.1 413.3 434.9 355.15Q442.8 296.5 452.5 238.15Q462.15 179.8 469.55 121.15Q470.15 116.3 474.45 115M255.2,17.75Q276.25 61.4 268.4 110.3Q263.95 137.9 257.75 165.25Q249.2 202.75 213.75 216Q206.45 218.75 197.95 218.25Q177.5 200.3 176.05 171.75Q173.05 111.65 185.5 53.95Q192.15 23.15 215.95 5.5Q236.55 6.05 253.75 16.9L255.2 17.75M286.2,59.25Q283.65 67.2 282.65 75.55Q280.6 92.75 290.05 107.35Q296.95 108.7 302.6 104.85Q324.05 90.1 317.45 59.75Q325.35 79 318.4 98.4Q311.9 116.4 292.45 116.5L286.45 113.25L282.2 108Q275.9 81.1 284.85 55.55L286.2 59.25M245.45,25.5Q234.1 13.8 215.7 17L214.95 17.4L212.95 18Q184.4 53.15 181.6 99.65Q180.15 124.25 179.9 149.25Q179.6 175 190.45 198Q199.45 209.9 214.95 206.25Q255.05 184.25 258.9 138.1L263.75 81.8Q266.75 48.25 245.45 25.5M167.8,14.3L124.95 45.25L166.35 49.55L165.7 57.75L110.7 55Q113.9 34.15 134.3 25.4Q144.7 20.95 153.2 13.25Q142.8 11 132 10.85Q121.05 10.65 110.2 12.3L109.8 11.25Q109.2 9.3 109.5 7.5L109.75 6.75L110.5 5.3L111.45 4Q118.05 2 124.95 2.15Q146.3 2.65 167.95 5.5L167.8 14.3M105.7,89.25Q103.15 83.25 96.95 77Q91.5 71.45 83.85 70.3Q40.55 63.9 29.7 104.1Q22.3 131.5 31.85 157.3Q39.85 178.85 52.4 198.35Q75.75 234.7 94.05 274.45Q118.35 327.2 123.45 384.95Q128.8 445.15 116.65 503.25Q108.15 544.15 66.4 546.4Q61 546.7 55.75 544.55Q10.8 525.9 6.55 477.5Q4.45 454.2 13.5 433.95Q19.5 446 14.4 462.15Q13 466.6 13.4 471.45Q17.6 520.7 66.8 531.9Q77.95 534.45 87.4 528.1Q117.95 507.7 118.75 468.45Q119.3 442.4 118.85 415.95Q118 359.4 97.55 307.15Q73.1 244.45 37.95 187.55Q11.9 145.35 25.85 96.85Q32.95 72.3 54.35 60.4Q56.8 59 59 58.25Q87.45 52.2 102.9 73.5Q108.05 80.55 105.7 89.25M124.1,104.1Q122 81.95 127.2 61.25L127.7 105.5Q143.1 104.15 156.4 108.4L155.2 115.5L124.7 115.25Q124.6 109.65 124.1 104.1M131.1,148.45Q119.8 167.9 97.45 164.25Q94.85 159.65 93.5 154.55Q87.15 130.25 103.95 112.5Q107.35 112.15 110.15 114.15Q117.65 119.4 117.7 128.1L116.1 127.85Q112.15 125.95 109.2 122.75L104.7 122Q88.95 137.35 98.6 154.7L99.7 155Q114.4 156.8 127.2 148.25L131.2 144.95Q132.2 146.55 131.1 148.45M90,171.8L148.6 171.45L148.85 171.85L149.45 173.25L149.6 174L149.7 174.75Q150.1 177.45 148.2 179.25L123.5 179.25L124.4 207.3Q124.8 221.3 125.8 235.3Q128.7 277 123.7 318L122.65 315.85Q122.1 314.75 122 313.55Q117.6 246.8 121.1 179.1L89.05 174.35L90 171.8M148.95,322.05Q150.8 322.15 151.7 323.95Q152.4 325.3 152.45 327Q152.5 328.35 151.95 329.75L144.7 331Q139.9 334.85 136.95 340.3Q129.85 353.6 134.7 368.45L140.95 373.7L144.95 373.45L151.2 370.95L152 372.4Q152.7 373.75 152.75 375.65Q152.8 377.65 151.5 379.2Q149 382.05 145.7 383.7Q125.15 378.1 126.75 356.25Q128.35 334.6 144.95 321.75L148.95 322.05M154.1,389.95L151.95 423.05Q161 401.55 177.35 388.2L178.2 391.95L151.95 435.95L151 429.9L148.95 442.2Q147.1 414.65 152.75 387.75L154.1 389.95M161.05,373.05Q157.6 361 160.1 348.65L168.2 267.15Q168.55 266.7 168.9 266.8Q175 267.3 180.05 270.9Q185.3 274.7 185.95 281.3Q188.3 304.6 174.65 323.55L183.95 381.2Q167.95 355.95 170.15 326.7L167.4 327.35Q170.1 353 161.95 375.95L161.05 373.05M273.65,236.45L273.45 237.25Q272.05 237.35 271 235.35L268.7 231.5Q266.15 229.55 262.5 228.8Q262.2 228.75 261.95 228.5Q208.85 253 206.1 312.4Q204.8 340.75 204.15 369.35Q225.2 364.25 247.45 360.95L249.2 362.5L249.95 363.2Q251.3 367.8 248.25 371.5L247.7 372.2Q225.65 376.5 203.95 377.3Q203.4 403.7 203.35 430.2Q203.3 468.15 214.8 503.1Q221.4 523.2 243.15 526.1Q254.3 527.6 263.95 521.2Q281.05 506.9 283.65 484.5Q284.45 477.7 289.2 476.2Q292.3 516.85 257.65 537.6Q248.1 543.3 237.2 540.3Q214.5 534 207.85 511.3Q197.4 475.75 197.65 437.95Q197.9 407.55 198.7 377.35Q198.05 374.85 198.35 372.25L198.7 370.7L198.85 370.65Q199.6 344.6 200.75 318.7Q202.6 278.45 224.65 246.2Q237.95 226.7 259.95 217.75Q275.55 220.5 273.65 236.45M169.45,273.1Q171.9 295.35 168.15 317.6L171.2 317L172.45 315.35Q184.4 299.15 181.2 279.5L177.45 275L169.45 273.1M171.4,421.35Q179.55 434.1 178.7 446.3Q178.2 446.1 178 445.75Q169.9 431.75 164.6 416Q166.7 414 171.4 421.35M185.15,491.95L154.7 489.95Q151.3 466.45 157.2 444.7Q160.3 462.25 157.95 479.95L184.95 483.7L185.15 491.95M171.95,496.65Q182.35 527.2 158.3 548.35Q149.75 555.95 142.95 546.9Q127.2 525.8 137.2 499.7Q139.1 508.25 136.75 516.6Q131.05 537 148.95 544.7Q156.05 542.8 160.95 537.1Q175.2 520.6 171.4 497.7Q171.8 496.25 171.95 496.65" />
</g>
</svg>
