<?xml version="1.0" encoding="utf-8"?>
<svg version="1.1" id="Layer_1"
xmlns="http://www.w3.org/2000/svg"
xmlns:xlink="http://www.w3.org/1999/xlink"


xml:space="preserve">
q-4.7 54.25 -4.45 109.95q0.15 29.8 -3.15 59.1q-1.95 16.85 3.5 29.4q7.05 -12.8 5.75 -27q-0.5 0.15 -0.65 0.45q1.7 -28.65 2.15 -57.5q0.1 22.55 -0.35 44.8q-0.7 30.7 0.95 59.25q1.15 -0.5 1.35 -1.2q4.85 -19.15 5.2 -39.55q0.35 -21.15 0.15 -42q3.6 -6.65 -0.65 -12.65q-0.35 -41.7 -0.4 -82.55q-0.75 0.1 -0.75 0.3q-5.2 41.05 -5.75 82.95q-14.45 1.8 -28 6.35q0.25 -44.75 -0.75 -88.6q-0.6 -0.2 -0.65 0.25q3.85 -26.75 -24.15 -31.9q-19.7 5.85 -21.7 27q-1.55 16.45 7.55 29.65q21.2 30.85 34.65 66.3q7.5 19.75 0.6 39.25q-8.7 24.35 -36.85 15q-3.25 -3.25 -6.55 -6.9q-7.6 -8.4 -8.2 -19.4q-1.15 -19.8 -4 -38.2q-5.4 2.35 -6.15 8.85q-4.55 37.55 17.75 65.7q2.35 2.9 5.35 4.3q27.05 12.75 40.75 -10.1q6 -10.05 6.4 -21.8q1.9 -59.6 -36.4 -104.85q-11.95 -14.1 -6.25 -30.4q3.25 -9.15 12.9 -9.7q18.05 -1.05 23.65 17.55q-11.05 19 0.2 37.2q7.85 12.65 16.9 24.5q13.4 17.55 21.7 37.45q8.55 20.5 4.25 42.05q-5.05 25 -30.25 27.1q-23.95 2.3 -34.3 -18q-6.75 -13.25 -2.15 -29.45q5.45 -19 -4.4 -34.2q-7.45 31.6 -2 63.1q6.75 39.2 45.6 32.95q3.45 -0.6 6.75 -1.75q6.85 -2.4 12.35 -7.2q15.95 -14.05 16.15 -35.35q0.25 -31 -14.05 -58.7q-13.1 -25.45 -31.3 -47.45q-6.4 -7.8 -3.9 -17.8q2.9 -11.55 13.6 -13.75q9.3 -1.65 17.15 4.05q10.15 7.25 13.7 19.3q5.2 -19.1 -9.4 -33.8q-1.75 -1.8 -3.9 -3.15q-20.95 -13.65 -33.85 8.5q-4.5 50.75 -3.2 102.4q0.75 30.35 -3.45 59.85q-2.4 16.5 3 29.9q4.85 -7.9 5.4 -18.4q1.4 -27.55 1.8 -55.6q0.75 -60 -2.7 -118.45q-0.8 -0.15 -0.85 0.3<g id="1984" transform="matrix(1, 0, 0, 1, -130.55, 0)">
<path style="fill:#000000;fill-opacity:1" d="M379.2,180.75Q380.2 224.6 379.95 269.35Q393.5 264.8 407.95 263Q408.5 221.1 413.7 180.05Q413.7 179.85 414.45 179.75Q414.5 220.6 414.85 262.3L415.45 262.25Q419.7 268.25 416.1 274.9L415.45 275.7L414.95 275.8L415.15 298.2Q415.35 319.05 415 340.2Q414.65 360.6 409.8 379.75Q409.6 380.45 408.45 380.95Q406.8 352.4 407.5 321.7Q407.95 299.45 407.85 276.9L379.85 280.55L379.6 299.2Q379.15 328.05 377.45 356.7L379.55 352.9Q379.7 352.6 380.2 352.45Q381.5 366.65 374.45 379.45Q369 366.9 370.95 350.05Q374.25 320.75 374.1 290.95Q373.85 235.25 378.55 181Q378.6 180.55 379.2 180.75M353.45,215Q347.85 196.4 329.8 197.45Q320.15 198 316.9 207.15Q311.2 223.45 323.15 237.55Q361.45 282.8 359.55 342.4Q359.15 354.15 353.15 364.2Q339.45 387.05 312.4 374.3Q309.4 372.9 307.05 370Q284.75 341.85 289.3 304.3Q290.05 297.8 295.45 295.45Q298.3 313.85 299.45 333.65Q300.05 344.65 307.65 353.05Q310.95 356.7 314.2 359.95Q342.35 369.3 351.05 344.95Q357.95 325.45 350.45 305.7Q337 270.25 315.8 239.4Q306.7 226.2 308.25 209.75Q310.25 188.6 329.95 182.75Q357.95 187.9 354.1 214.65L353.45 215M199.9,185.3Q202.05 186.65 203.8 188.45Q218.4 203.15 213.2 222.25L212.05 217.85Q208.5 205.8 198.35 198.55Q190.5 192.85 181.2 194.5Q170.5 196.7 167.6 208.25Q165.1 218.25 171.5 226.05Q189.7 248.05 202.8 273.5Q217.1 301.2 216.85 332.2Q216.65 353.5 200.7 367.55Q195.2 372.35 188.35 374.75Q185.05 375.9 181.6 376.5Q142.75 382.75 136 343.55Q130.55 312.05 138 280.45Q147.85 295.65 142.4 314.65Q137.8 330.85 144.55 344.1Q154.9 364.4 178.85 362.1Q204.05 360 209.1 335Q213.4 313.45 204.85 292.95Q196.55 273.05 183.15 255.5Q174.1 243.65 166.25 231Q155 212.8 166.05 193.8Q178.95 171.65 199.9 185.3M270.45,179.5Q273.9 237.95 273.15 297.95Q272.75 326 271.35 353.55Q270.8 364.05 265.95 371.95Q260.55 358.55 262.95 342.05Q267.15 312.55 266.4 282.2Q265.1 230.55 269.6 179.8Q269.65 179.35 270.45 179.5" />
</g>
</svg>
