<?xml version="1.0" encoding="utf-8"?>
<svg version="1.1" id="Layer_1"
xmlns="http://www.w3.org/2000/svg"
xmlns:xlink="http://www.w3.org/1999/xlink"


xml:space="preserve">
q-2.85 37.15 -4 75.65q-0.9 29.5 -3.3 59.1q-1.9 23.15 1.25 44.35q5.95 -2.8 6.1 -10.5q1.15 -43.9 2.95 -88.2q21.55 0.2 42.45 -3.05q3.75 -7.2 -0.85 -13.4q-21.15 1.6 -41.7 4.5q1.1 -24.85 -1.55 -48.25q32.2 5.1 65 6.25q0.65 -1.4 0.9 -2.95q0.3 -1.85 0.05 -3.75q-0.3 -1.2 -1.05 -2.2q-0.45 1.45 -0.6 3q-0.15 1.5 -0.05 2.95q-6.1 57.65 -7.9 116.25q-0.7 22.75 6.5 43.65q9.65 28.15 41.05 15.55q33.7 -13.55 39.9 -49.75q4 -23.35 4.7 -47.4q0.85 -29.6 -0.7 -59.4q-0.75 -13.55 -7 -21.35q-2.5 2.85 -2.1 6.7q5.4 54.7 -0.9 108.75q-1.35 11.65 -7 21.8q-20 36 -60.25 24.95q-2.5 -3.05 -3.1 -6.8q-7.5 -48.05 -2.25 -97.45q3.2 -30.25 2.1 -59.2q-2.7 0.4 -3.05 3.7q-21.75 7.65 -28.7 30.1q-6.8 21.95 7.45 39.8q13.7 17 16.8 38.45q3.1 21.15 -12.3 34.8q-24.75 5.25 -41.05 -13.25q-4.55 -5.1 -7.2 -11.25q-3.8 19.25 8.45 35.4q9 11.95 23.7 15.15q11.7 -1.6 18 -13.7q11.85 -22.7 6.15 -47.85q-5.55 -24.4 -24.2 -41q-21.7 -19.25 -25.65 -45.6q-3 -20.2 17.35 -26.2q21.15 -6.25 33.9 10.95q1.75 -12.55 -7.45 -21.05q-9.65 -8.95 -23.3 -9.05<g id="1812" transform="matrix(1, 0, 0, 1, -135.7, 0)">
<path style="fill:#000000;fill-opacity:1" d="M343.85,184.5Q344 182.95 344.45 181.5L344.9 181.2L344.95 180.5L345.45 180.5L345.5 180.85L347 180.4L349.95 180.1L349.95 180L411.45 184.6L412.2 185Q412.95 186 413.25 187.2L413.4 188L413.65 189.5Q413.9 191.4 413.6 193.25Q413.35 194.8 412.7 196.2L411.95 197.75Q379.15 196.6 346.95 191.5Q349.6 214.9 348.5 239.75L347.75 257.25Q368.3 254.35 389.45 252.75Q394.05 258.95 390.3 266.15L389.7 266.95Q368.8 270.2 347.25 270Q345.45 314.3 344.3 358.2Q344.15 365.9 338.2 368.7Q335.05 347.5 336.95 324.35Q339.35 294.75 340.25 265.25Q341.4 226.75 344.25 189.6L344.05 188.95L343.9 188.25L343.8 187.45Q343.7 186 343.85 184.5M240.45,181.25Q241.55 210.2 238.35 240.45Q233.1 289.85 240.6 337.9Q241.2 341.65 243.7 344.7Q283.95 355.75 303.95 319.75Q309.6 309.6 310.95 297.95Q317.25 243.9 311.85 189.2Q311.45 185.35 313.95 182.5Q320.2 190.3 320.95 203.85Q322.5 233.65 321.65 263.25Q320.95 287.3 316.95 310.65Q310.75 346.85 277.05 360.4Q245.65 373 236 344.85Q228.8 323.95 229.5 301.2Q231.3 242.6 237.4 184.95Q237.75 181.65 240.45 181.25M206.3,185.55Q215.5 194.05 213.75 206.6Q201 189.4 179.85 195.65Q159.5 201.65 162.5 221.85Q166.45 248.2 188.15 267.45Q206.8 284.05 212.35 308.45Q218.05 333.6 206.2 356.3Q199.9 368.4 188.2 370L171.65 369.5Q156.95 366.3 147.95 354.35Q135.7 338.2 139.5 318.95L142.35 317.9L147.1 326.85L144.75 328.45Q147.4 334.6 151.95 339.7Q168.25 358.2 193 352.95Q208.4 339.3 205.3 318.15Q202.2 296.7 188.5 279.7L161.75 246.4Q147.5 228.55 154.3 206.6Q161.25 184.15 183 176.5Q196.65 176.6 206.3 185.55" />
</g>
</svg>
