<?xml version="1.0" encoding="utf-8"?>
<svg version="1.1" id="Layer_1"
xmlns="http://www.w3.org/2000/svg"
xmlns:xlink="http://www.w3.org/1999/xlink"


xml:space="preserve">
q-0.65 58.25 -2.9 117.8q-2.25 59.4 -1.4 119.2q0.85 59.75 3.15 119.2q2.3 59.3 9.7 117.75q1.8 14.6 -1.95 27.55q0 0.65 -0.75 1.25q-6.55 -12.05 -8.35 -28.05q-3.2 -29.1 -8.5 -57.95q-10.5 -57.8 -25.15 -114.75q-14.85 -57.9 -29 -115.65q-8.35 -34 -16.05 -67.5q-1 59.35 0.6 119.25q1.55 59.35 0.35 119.2q-0.85 46.95 -1.35 93q0 0.75 -0.65 1.5q-7.5 -11.55 -6.65 -29.1q1.3 -53.95 3.75 -107.75q0.2 -4.3 -0.15 -8.4q1 -41.8 -0.5 -83.7q-2.1 -59.4 -1.85 -119.2q0.2 -48.85 3.9 -96.8q0.1 -1.6 0.7 -2.8q-0.6 -2.65 2.1 -2.75q16.95 54.3 30.35 110.75q13.65 57.65 27.65 115.05q13.9 57.3 23.65 115.35q8.6 51.25 19.15 102.15q-4.4 -45.65 -5.9 -91.75q-1.95 -59.35 -2.55 -119.2q-0.6 -59.05 2.05 -118.45q1.9 -42.9 2.35 -86.3q0.15 -14.55 5.25 -26.25q-5.3 20.85 -11.35 41.4q-5.9 20.1 -12.85 40.05q-12.55 -33.5 -17 -68.75q-9.05 -62 -12.1 -126.5q-0.1 -1.95 0.35 -3.95q9.85 20.45 10.45 43.85q0.7 29.1 3.05 58.15q6.05 7.05 7.75 17.95q4.55 29 11 57.65q5.6 17.15 -1 37.75q-5.2 16.4 -9.4 33.05q-17.75 3.95 -27.3 19.9q-8.45 14.2 -7.45 30.7q15.95 -3.3 31.9 -0.4q1.35 3.15 0.35 6.5q15.55 7.75 30.7 0.15q10.15 -5.1 16.6 -14.2q4 11.9 -4.1 21.05q-9.5 10.75 -23.6 9.25q-27.95 -3.15 -29.85 -34.1q-0.45 -7.55 -0.4 -15.2q0.25 -39.9 31.45 -60.8q5.1 -3.4 11.2 -4.4q-6.55 -4.05 -14.2 -4.65q-8.8 3.8 -12.8 12.6q-20.65 45.65 -24.05 96.85q-3.4 51.45 -4.25 103.5q-0.95 59.35 4.3 118.4q3.2 36.45 40.55 32.85q2.95 -2.05 5.1 -4.8q20.6 -26.55 28.8 -60.2q14.1 -57.9 8.65 -118.05q-5.35 -59.15 -4.4 -118.4q0.4 -28.05 -13.4 -50.25q-2.85 0.05 -5.05 -1.4q-3.85 -2.55 -7.2 -5.6q-1.1 -0.25 -2.05 -0.85q3.55 -25.6 23.5 -40q14.2 1.2 24 10.5q1.95 0.65 4.5 2q12.55 25.25 11.65 54.75q-1.8 59.75 3.7 119.2q3.4 36.9 -3.55 73.35q-5.85 30.3 -16.8 59.15q-10.75 28.3 -40.75 17q-6.75 -7.6 -8.1 -17.45q-3.6 -27.1 -3.7 -54.55q-0.3 -55.75 -0.95 -111q1 -28.25 3.9 -56.25q2.95 -28.2 6.85 -56.45q0.75 -50.4 -12.2 -98.2q-12.55 -17.6 -34.65 -18.35q-3.3 2.75 -5.5 5.95q-18.6 27.1 -27.2 59.4q-15.25 57.25 -19.5 117.15q-4.25 59.4 1.9 118.55q2.7 25.95 15.25 48.15q11.95 21.05 32.55 3.9q26.95 -22.4 36.4 -57.75q15.5 -57.9 14.45 -118.55q-0.5 -30.05 -0.05 -60q-7.75 -10.3 -16.9 -2.5q15.5 -19.7 0.35 -39.65q1.2 19.1 -10.65 34.15q16.6 18 26.7 39.75q3.75 8.05 4.45 16.8q-23.35 -22.8 -36.1 -52.75q-4.1 2.35 -8.95 2.95q0.15 -39.75 7 -79.8q2.85 -16.5 1.65 -33.15q13.55 -11.75 27.2 4.45q6.7 8 7.15 18.3q0.85 26.8 0.8 53.4q-0.05 35.95 -6.65 70.8q-1.25 -3.15 -1.9 -6.4q-4.2 -21.3 -1.4 -43.1q4.8 -37.2 7.5 -74.7q30 -3.7 59.7 0.25q2.95 4.45 0.75 9.4q2.7 35.55 -11.45 69.2q-6.35 15.1 -9.55 31.35q-3.15 15.75 -7.85 31.15q-9.15 -21.9 -11.6 -45.85q-0.8 -7.7 -2.4 -15.35q-8.95 -16.9 -9.9 -40.1q-1.1 -26.35 -5.85 -52.25q-3.55 -19.3 -5.2 -38.85q10.9 21.2 13.35 45.5q2 20.25 4.65 40.5q1.3 10.05 2.25 20.2q8.95 7.65 9.55 24.95q0.5 14.85 4.15 29.2q1.6 6.35 2 13q10.95 -57.8 27.75 -114.2q10.35 4.15 14.75 13.25q-2.25 1.8 -6 3q2.6 0.25 6.5 1.75q6 12.85 7 26.85q4.25 58.85 4.65 118.6q0.4 59.4 -15.95 115.55q-11.65 40 -49.7 54.45q-12.8 -8.6 -16.05 -24.45q-11.95 -57.95 -8.1 -117.8q3.85 -59.3 16.65 -116.8q5.95 -28.15 25.55 -46.15q7.35 -0.8 14.25 1.5q48.15 -3 60.7 40.15q1.15 4 -1.7 6.35q-19.4 -42.4 -67.75 -29.9q-14.75 3.8 -12.7 19.95q0.2 1.45 -0.3 2.95q5.45 38.75 25.05 72.85q28.35 50.2 37.85 106.9q6.85 40.75 0.05 81.65q-5.8 34.5 -23.6 64.25q-10.3 17.25 -25.55 30.55q-31.55 27.4 -70.55 42q-34.8 10.7 -54.05 -15.35q-6.55 -8.85 -8.55 -19.75q-6.55 -35.3 2.7 -69.85q6.6 14.3 -0.25 31.8q-11.25 28.7 -5.25 58.85q1.3 6.75 1.75 13.6q12.35 27.15 45.05 19.4q46 -10.85 81.25 -43.2q14.8 -13.55 24.55 -31.05q12.35 -22.2 17.65 -47.05q11.25 -53.2 -4.25 -104.95q-13 -43.55 -35.6 -82.65q-32.7 -56.6 -56.2 -117.15q-10.65 -27.45 -3.9 -55.95q3.3 -14 18.6 -15.85q2.35 -0.25 4.1 -1q21.2 10.5 19.2 33.45q-2.15 25.3 -27.25 27.25q-3.45 0.5 -6.85 -0.05q-12.2 -33.4 -2.95 -72.1q4.55 -19.1 6.55 -38.8q7.05 -5.6 15.65 -2.7q19.3 2.45 28.2 -12q-3.95 -25.95 -29.5 -24.3q0.55 17.55 -0.1 35.15<g id="1814" transform="matrix(1, 0, 0, 1, 5.15, 0)">
<path style="fill:#000000;fill-opacity:1" d="M539.2,31Q538.55 89.25 536.3 148.8Q534.05 208.2 534.9 268Q535.75 327.75 538.05 387.2Q540.35 446.5 547.75 504.95Q549.55 519.55 545.8 532.5L545.7 538.7Q545.7 539.35 544.95 539.95Q538.4 527.9 536.6 511.9Q533.4 482.8 528.1 453.95L507.15 339.3Q496.65 281.5 482 224.55Q467.15 166.65 453 108.9Q444.65 74.9 436.95 41.4L436.1 88.5Q435.1 147.85 436.7 207.75Q438.25 267.1 437.05 326.95L434.7 446.2Q433.85 493.15 433.35 539.2Q433.35 539.95 432.7 540.7Q425.2 529.15 426.05 511.6L426.85 489.2Q428.15 435.25 430.6 381.45L431.95 356.45L432.7 342.8Q432.9 338.5 432.55 334.4Q433.55 292.6 432.05 250.7Q429.95 191.3 430.2 131.5Q430.4 82.65 434.1 34.7Q434.2 33.1 434.8 31.9L434.35 30Q433.75 27.35 436.45 27.25L437.1 29.3L437.2 29.25L437.2 29.65Q454.15 83.95 467.55 140.4Q481.2 198.05 495.2 255.45Q509.1 312.75 518.85 370.8Q527.45 422.05 538 472.95Q533.6 427.3 532.1 381.2Q530.15 321.85 529.55 262Q528.95 202.95 531.6 143.55Q533.5 100.65 533.95 57.25Q534.1 42.7 539.2 31M411.15,87.3Q405.85 108.15 399.8 128.7Q393.9 148.8 386.95 168.75Q374.4 135.25 369.95 100L351.7 162.2Q342.65 100.2 339.6 35.7Q339.5 33.75 339.95 31.75Q349.8 52.2 350.4 75.6Q351.1 104.7 353.45 133.75L367.7 73.65Q373.75 80.7 375.45 91.6Q380 120.6 386.45 149.25L421.55 16.5Q427.15 33.65 420.55 54.25Q415.35 70.65 411.15 87.3M327.35,56L318.7 48.5Q300.95 52.45 291.4 68.4Q282.95 82.6 283.95 99.1Q299.9 95.8 315.85 98.7L316.3 99.55L316.65 100.3Q318 103.45 317 106.8L316.3 108.7L282.8 110.4L287.45 134.25Q303 142 318.15 134.4Q328.3 129.3 334.75 120.2Q338.75 132.1 330.65 141.25Q321.15 152 307.05 150.5Q279.1 147.35 277.2 116.4Q276.75 108.85 276.8 101.2Q277.05 61.3 308.25 40.4Q313.35 37 319.45 36L328.95 46.5L329.7 54.75L327.35 56M392.2,182.5Q395.55 185.55 399.4 188.1Q401.6 189.55 404.45 189.5Q418.25 211.7 417.85 239.75Q416.9 299 422.25 358.15Q427.7 418.3 413.6 476.2Q405.4 509.85 384.8 536.4Q382.65 539.15 379.7 541.2Q342.35 544.8 339.15 508.35Q333.9 449.3 334.85 389.95Q335.7 337.9 339.1 286.45Q342.5 235.25 363.15 189.6Q367.15 180.8 375.95 177Q383.6 177.6 390.15 181.65Q391.1 182.25 392.2 182.5M345.35,283.95Q342.45 311.95 341.45 340.2Q342.1 395.45 342.4 451.2Q342.5 478.65 346.1 505.75Q347.45 515.6 354.2 523.2Q384.2 534.5 394.95 506.2Q405.9 477.35 411.75 447.05Q418.7 410.6 415.3 373.7Q409.8 314.25 411.6 254.5Q412.5 225 399.95 199.75Q397.4 198.4 395.45 197.75L399.7 198Q389.9 188.7 375.7 187.5Q355.75 201.9 352.2 227.5Q348.3 255.75 345.35 283.95M330.7,352.2Q331.75 412.85 316.25 470.75Q306.8 506.1 279.85 528.5Q259.25 545.65 247.3 524.6Q234.75 502.4 232.05 476.45Q225.9 417.3 230.15 357.9Q234.4 298 249.65 240.75Q258.25 208.45 276.85 181.35Q279.05 178.15 282.35 175.4L282.95 174.75Q305.05 175.5 317.6 193.1L318.45 194Q331.4 241.8 330.65 292.2Q330.2 322.15 330.7 352.2M253.45,55.55Q245.7 45.25 236.55 53.05L236.55 100.15L250.95 97.75L253.1 95.2Q268.6 75.5 253.45 55.55M267.8,69Q269 88.1 257.15 103.15L255.05 105.7Q271.65 123.7 281.75 145.45Q285.5 153.5 286.2 162.25Q262.85 139.45 250.1 109.5Q246 111.85 241.15 112.45L235.25 112.2L224.8 159.2Q224.95 119.45 231.8 79.4Q234.65 62.9 233.45 46.25Q247 34.5 260.65 50.7Q267.35 58.7 267.8 69M203.6,40.8Q204.45 67.6 204.4 94.2Q204.35 130.15 197.75 165Q196.5 161.85 195.85 158.6Q191.65 137.3 194.45 115.5Q199.25 78.3 201.95 40.8L165.35 39.95L166.5 30.5L178.15 29.45Q208.15 25.75 237.85 29.7Q240.8 34.15 238.6 39.1L238.2 39.85L237.7 40.5L203.6 40.8M248.45,175Q251.15 210.55 237 244.2Q230.65 259.3 227.45 275.55Q224.3 291.3 219.6 306.7L215.95 318.7Q206.8 296.8 204.35 272.85Q203.55 265.15 201.95 257.5L191.95 308.2Q183 291.3 182.05 268.1Q180.95 241.75 176.2 215.85Q172.65 196.55 171 177Q181.9 198.2 184.35 222.5Q186.35 242.75 189 263Q190.3 273.05 191.25 283.2L200.25 227.05Q209.2 234.7 209.8 252Q210.3 266.85 213.95 281.2Q215.55 287.55 215.95 294.2Q226.9 236.4 243.7 180L248.45 175M283.7,185.75Q264.1 203.75 258.15 231.9L251.7 261.65Q238.9 319.15 235.05 378.45Q231.2 438.3 243.15 496.25Q246.4 512.1 259.2 520.7Q297.25 506.25 308.9 466.25Q325.25 410.1 324.85 350.7Q324.45 290.95 320.2 232.1Q319.2 218.1 313.2 205.25Q309.3 203.75 306.7 203.5Q310.45 202.3 312.7 200.5Q308.3 191.4 297.95 187.25Q291.05 184.95 283.7 185.75M100,23.75Q148.15 20.75 160.7 63.9Q161.85 67.9 159 70.25Q139.6 27.85 91.25 40.35Q76.5 44.15 78.55 60.3Q78.75 61.75 78.25 63.25Q83.7 102 103.3 136.1L145.8 210.85Q174.15 261.05 183.65 317.75Q190.5 358.5 183.7 399.4Q177.9 433.9 160.1 463.65Q149.8 480.9 134.55 494.2Q103 521.6 64 536.2Q29.2 546.9 9.95 520.85Q3.4 512 1.4 501.1Q-5.15 465.8 4.1 431.25L12.5 398.95Q19.1 413.25 12.25 430.75Q1 459.45 7 489.6Q8.3 496.35 8.75 503.2Q21.1 530.35 53.8 522.6Q99.8 511.75 135.05 479.4Q149.85 465.85 159.6 448.35Q171.95 426.15 177.25 401.3Q188.5 348.1 173 296.35Q160 252.8 137.4 213.7Q104.7 157.1 81.2 96.55Q70.55 69.1 77.3 40.6Q80.6 26.6 95.9 24.75Q98.25 24.5 100 23.75M205.95,419Q227.15 429.5 225.15 452.45Q223 477.75 197.9 479.7Q194.45 480.2 191.05 479.65L184.9 531.85Q172.7 498.45 181.95 459.75Q186.5 440.65 188.5 420.95Q195.55 415.35 204.15 418.25L205.95 419M193.25,465.2Q212.55 467.65 221.45 453.2Q217.5 427.25 191.95 428.9Q192.5 446.45 191.85 464.05L193.25 465.2" />
</g>
</svg>
