<?xml version="1.0" encoding="utf-8"?>
<svg version="1.1" id="Layer_1"
xmlns="http://www.w3.org/2000/svg"
xmlns:xlink="http://www.w3.org/1999/xlink"


xml:space="preserve">
q-9.9 -19.9 -29.6 -24.3q-21.95 12.9 -27.7 39.3q-4.6 21.2 -8.1 42.4q-9.85 58.75 -9.85 119.05q0 59.2 -1.2 118.45q-0.9 42.45 23.85 75.8q11.5 15.55 25.8 1.5q11.4 -11.2 19.3 -25.15q13.15 -23.1 5.9 -45.65q-4.9 3 -5.95 8.75q-4.65 25.55 -20.3 46.75q-3.55 1.15 -6.55 3.45q-3.85 -4.25 -7.35 -9.05q-8.45 -11.55 -10.2 -25.65q-6.35 -51.5 -6.7 -104.05q-0.15 -21.9 0.3 -43.65q22.35 1.3 44.2 -1.8q4.05 -7.4 -0.65 -14.15q-23.35 -3.55 -43.85 2.5q0.85 -29.25 2.8 -58.3q3.2 -48.5 18.85 -94.55q6.9 -20.35 26.7 -19.4q3.95 4 6.85 8.7q9.05 14.75 17.15 26.3q3.3 -13.5 -3.4 -26.95q-7.9 57.95 -6.55 116.95q1.35 59.2 1.65 118.45q0.3 60 3.3 119.3q2.5 48.85 -2 97.05q-1.4 -22.7 -5.25 -45.45q-10.35 -58.15 -16.75 -117.15q-6.45 -58.8 -14.7 -117.4q-6.35 -44.85 -14.15 -88.4q0.5 -15.85 -1.6 -28.6q-2.6 0.05 -2.75 3q-0.9 16.3 1.25 32.5q-1.5 46.45 -0.3 93q1.5 59.55 -0.1 119.2q-1.65 59.4 -2.35 119.25q-0.7 59.85 -6.4 119.05q-1.65 17.05 4.65 29.45q3.25 -4.5 3.55 -10.5q3.05 -59.15 4.15 -118.5q1.1 -59.75 3.1 -119.2q2.05 -59.6 0.05 -119.3q-1.3 -37.55 -0.85 -75q6 40.45 12.35 80.75q4.65 29.3 8.05 58.75q6.75 58.65 16.2 116.8q9.4 58.3 15.15 117.1q2.9 30.15 8.25 58.35q1.65 -0.05 2.1 -1.4q0.9 -0.75 1 -1.6q4.1 -27.35 5.9 -55.4q3.7 -59.1 0.1 -118.5q-3.6 -59.2 -2.75 -119.2q0.8 -59.6 -0.35 -119.25q-0.55 -30 2.25 -59.85q1.5 -16.05 -2.15 -30.15q-1.25 -0.25 -1.35 0.8q0.7 59.75 1.65 119.25q1 59.45 -0.95 118.45q-1.95 59.7 -4.4 119.3q-2.45 59.65 -6.6 119.1q-0.95 14.15 6.15 21.6q2.9 -3.95 3.05 -9q1.65 -59.45 3.8 -119.2q2.15 -59.4 1.25 -119.15q-0.95 -59.65 0.3 -119.25q0.4 -17.1 -4.7 -29.5q-3.95 7.15 -3.85 17q-8.9 -26.45 -13.4 -53.8q-1.85 -11.45 -7.6 -16.2q-1.05 0.85 -1.35 2.2q-6.2 32.95 -13.15 65.8q-8.7 -36.9 -22.5 -72q-2.3 0 -1.7 2.25q13.05 49.15 22.95 99.25q2 1.25 2.4 -0.85q6.7 -34.5 14.6 -68.15q11.5 -38.8 20.3 -79.7q2.7 -12.5 -4.55 -17.55q-1.25 1.3 -1.6 2.9q7.1 0.9 13.3 4.55q16.8 9.95 29.3 22.15q2.4 -3 0.8 -6.7q-17.15 -38.85 -61.55 -34.05q-10.3 2.75 -15.55 12.45q-14.65 27.1 -18.15 57.7q-2.8 24.45 4.75 47.55q20.5 62.8 57.3 117.6q33.2 49.45 52.3 106.35q17.15 51.15 12.2 104.3q-4.6 49.3 -53.75 58.3q-12.45 2.25 -24.75 -1.35q-40.7 -12.05 -71.65 -42.15q-28.05 -27.25 -25.45 -67.55q0.45 -1.45 0.5 -3q0.5 -3.75 -0.2 -7.45q-0.55 -2.75 -2.85 -4.1q-0.75 -0.45 -1.75 -0.45q-9.7 23.35 -4.9 49.7q2.85 15.45 10.75 28.85q21.15 35.8 58.4 58q36.5 21.75 77 6.65q15 -5.65 24 -19q21.4 -31.95 20.1 -71.2q-1.85 -58.6 -23.6 -113.1q-10.55 -26.6 -25.2 -50.85q-31.75 -52.55 -59.75 -107.05q-10.3 -20.05 -16.1 -42.15q-9.85 -37.7 4.7 -74.8q4.05 -10.2 12.7 -16.6q9.9 -7.35 23.55 -5.6q2.3 33.1 3.55 66.25q0.55 15.45 0.7 30.9q-0.9 1.4 -1.15 3q-0.65 4.2 0.55 8.3q0.35 1.3 1.45 2q-0.25 37.2 -3.25 74.15q-1.4 17.4 4.85 29.05q3.85 -12.7 4.2 -27q0.9 -38.1 1.3 -75.85q20.25 -1.15 28.95 -21.6q14.25 -33.45 4.35 -69q-8.9 -32 -40.5 -35.25q-8.9 1.75 -8.75 10.5q0.05 2.8 1.5 5.25q18.05 39.7 -7.6 73.1q-8.1 3.3 -16.45 4.65q-0.2 -49.4 -6.35 -97.15q20.6 -2.05 30.4 19.4q-5.45 11.6 -4.4 27.6q1 14.55 -0.65 29q-2.7 23.15 1.05 44.4q20 -6.45 40 0.25q5.25 -7.3 1 -15.75q-18.55 -5.65 -36.5 -2.25q2.5 -37.4 2.45 -75q-0.65 -3.35 -2.85 -6q-16.3 54.3 0.1 107.35q4.95 15.9 19 8.65q9.2 -4.8 14.05 -13.6q0.65 10 2.95 19.6q3.75 -4.35 4.25 -11q2.4 -26.25 -3.25 -50.4q-9.55 1.5 -18.25 6.25q-3.35 5.5 0.25 10.5q7.85 -4.45 13.25 -3.25q-1.25 2.05 -1.4 4.5q-1.75 24.05 -22.85 25.5q-11.65 -21.75 -11.75 -47q-0.1 -34.55 19 -60.75q18.8 -2.55 27.5 14.5q2.4 -25.55 -24.7 -29.25q-4.35 1 -8 3.95q-3.25 2.55 -4.5 6.3q-4.65 4.7 -6.6 11.25<g id="1978" transform="matrix(1, 0, 0, 1, 2.2, 0)">
<path style="fill:#000000;fill-opacity:1" d="M548.95,82.75Q540.85 71.2 531.8 56.45Q528.9 51.75 524.95 47.75Q505.15 46.8 498.25 67.15Q482.6 113.2 479.4 161.7Q477.45 190.75 476.6 220Q497.1 213.95 520.45 217.5Q525.15 224.25 521.1 231.65L520.45 232.5Q498.6 235.6 476.25 234.3Q475.8 256.05 475.95 277.95Q476.3 330.5 482.65 382Q484.4 396.1 492.85 407.65Q496.35 412.45 500.2 416.7L502.5 417.2L508.95 417.7L511.15 416.15Q514.15 413.85 517.7 412.7Q533.35 391.5 538 365.95Q539.05 360.2 543.95 357.2Q551.2 379.75 538.05 402.85Q530.15 416.8 518.75 428Q504.45 442.05 492.95 426.5Q468.2 393.15 469.1 350.7Q470.3 291.45 470.3 232.25Q470.3 171.95 480.15 113.2Q483.65 92 488.25 70.8Q494 44.4 515.95 31.5Q535.65 35.9 545.55 55.8Q552.25 69.25 548.95 82.75M455.45,34.25Q459.1 48.35 457.6 64.4Q454.8 94.25 455.35 124.25Q456.5 183.9 455.7 243.5Q454.85 303.5 458.45 362.7Q462.05 422.1 458.35 481.2Q456.55 509.25 452.45 536.6Q452.35 537.45 451.45 538.2L450.55 536.05Q450.1 537.4 448.45 537.45Q443.1 509.25 440.2 479.1Q434.45 420.3 425.05 362Q415.6 303.85 408.85 245.2Q405.45 215.75 400.8 186.45Q394.45 146.15 388.45 105.7Q388 143.15 389.3 180.7Q391.3 240.4 389.25 300Q387.25 359.45 386.15 419.2Q385.05 478.55 382 537.7Q381.7 543.7 378.45 548.2Q372.15 535.8 373.8 518.75Q379.5 459.55 380.2 399.7Q380.9 339.85 382.55 280.45Q384.15 220.8 382.65 161.25Q381.45 114.7 382.95 68.25Q380.8 52.05 381.7 35.75Q381.85 32.8 384.45 32.75L385.1 36.15L385.95 33.75L387.3 32.3L387.95 31.75Q390.05 44.5 389.55 60.35Q397.35 103.9 403.7 148.75Q411.95 207.35 418.4 266.15Q424.8 325.15 435.15 383.3L445.25 441.35Q449.1 464.1 450.5 486.8Q455 438.6 452.5 389.75Q449.5 330.45 449.2 270.45Q448.9 211.2 447.55 152Q446.2 93 454.1 35.05Q454.2 34 455.45 34.25M293.95,25.75Q299.05 38.15 298.65 55.25Q297.4 114.85 298.35 174.5Q299.25 234.25 297.1 293.65L292.8 412.25Q290.65 472 289 531.45Q288.85 536.5 285.95 540.45Q278.85 533 279.8 518.85Q283.95 459.4 286.4 399.75Q288.85 340.15 290.8 280.45Q292.75 221.45 291.75 162Q290.8 102.5 290.1 42.75Q290 32.9 293.95 25.75M170.75,98Q178 103.05 175.3 115.55Q166.5 156.45 155 195.25L136.2 126.5L135.75 125Q127.85 158.65 121.15 193.15Q120.75 195.25 118.75 194Q108.85 143.9 95.8 94.75Q95.2 92.5 97.5 92.5Q111.3 127.6 120 164.5L120.25 165.5Q127.2 132.65 133.4 99.7Q133.7 98.35 134.75 97.5Q140.5 102.25 142.35 113.7Q146.85 141.05 155.75 167.5L169.15 100.9Q169.5 99.3 170.75 98M85.6,39.9Q76.95 46.3 72.9 56.5Q58.35 93.6 68.2 131.3Q74 153.4 84.3 173.45Q112.3 227.95 144.05 280.5Q158.7 304.75 169.25 331.35Q191 385.85 192.85 444.45Q194.15 483.7 172.75 515.65Q163.75 529 148.75 534.65Q108.25 549.75 71.75 528Q34.5 505.8 13.35 470Q5.45 456.6 2.6 441.15Q-2.2 414.8 7.5 391.45Q8.5 391.45 9.25 391.9Q11.55 393.25 12.1 396Q12.8 399.7 12.3 403.45L12.25 404.2L11.75 404.95L11.15 405.55L10.35 406.1L9.75 406.7L9.4 407.5L9.2 408.95Q9.15 410.5 8.7 411.95L8.25 413.45Q5.65 453.75 33.7 481Q64.65 511.1 105.35 523.15Q117.65 526.75 130.1 524.5Q179.25 515.5 183.85 466.2Q188.8 413.05 171.65 361.9Q152.55 305 119.35 255.55Q82.55 200.75 62.05 137.95Q54.5 114.85 57.3 90.4Q60.8 59.8 75.45 32.7Q80.7 23 91 20.25Q135.4 15.45 152.55 54.3Q154.15 58 151.75 61Q139.25 48.8 122.45 38.85Q116.25 35.2 109.15 34.3Q95.5 32.55 85.6 39.9M191.75,208.25Q190.3 205.8 190.25 203Q190.1 194.25 199 192.5Q230.6 195.75 239.5 227.75Q249.4 263.3 235.15 296.75Q226.45 317.2 206.2 318.35Q205.8 356.1 204.9 394.2Q204.55 408.5 200.7 421.2Q194.45 409.55 195.85 392.15Q198.85 355.2 199.1 318Q198 317.3 197.65 316Q196.45 311.9 197.1 307.7Q197.35 306.1 198.25 304.7L199.1 304.65Q198.95 289.2 198.4 273.75Q197.15 240.6 194.85 207.5L191.75 208.25M199.9,206.7Q206.05 254.45 206.25 303.85Q214.6 302.5 222.7 299.2Q248.35 265.8 230.3 226.1Q220.5 204.65 199.9 206.7M224.3,327.45L224.45 328.2Q224.5 365.8 222 403.2L221.95 404.7Q239.9 401.3 258.45 406.95Q262.7 415.4 257.45 422.7Q237.45 416 217.45 422.45Q213.7 401.2 216.4 378.05Q218.05 363.6 217.05 349.05Q216 333.05 221.45 321.45Q223.65 324.1 224.3 327.45M319.45,419.2Q320.7 415.45 323.95 412.9Q327.6 409.95 331.95 408.95Q359.05 412.65 356.65 438.2L356.2 438.95Q347.5 421.9 328.7 424.45Q309.6 450.65 309.7 485.2Q309.8 510.45 321.45 532.2Q342.55 530.75 344.3 506.7Q344.45 504.25 345.7 502.2L347.35 504L348.15 499.45L348.2 498.7Q342.8 497.5 334.95 501.95L332.45 501.2Q328.85 496.2 332.2 490.7Q340.9 485.95 350.45 484.45Q356.1 508.6 353.7 534.85L353.2 541.45Q352.7 548.1 348.95 552.45Q346.65 542.85 346 532.85Q341.15 541.65 331.95 546.45Q317.9 553.7 312.95 537.8Q296.55 484.75 312.85 430.45Q314.8 423.9 319.45 419.2" />
</g>
</svg>
