<?xml version="1.0" encoding="utf-8"?>
<svg version="1.1" id="Layer_1"
xmlns="http://www.w3.org/2000/svg"
xmlns:xlink="http://www.w3.org/1999/xlink"


xml:space="preserve">
q-8.45 11.8 -14.25 25.35q-15.15 35.6 -16.45 74.3q-1.3 38.4 13.6 72.55q1.9 4.45 6.25 6.2q32.8 13.2 60.05 -9.75q0.6 9 3.6 16.95q2.1 -13.45 2.75 -26.8q3.75 -9.05 0.2 -18.9q-0.35 -13.5 -2.15 -27q-15.65 -0.25 -29.75 5q-1.1 4.1 0.95 7.45q-1.3 2.05 -0.75 4.95q1.2 6.05 -2.1 10.4q-21.65 28.3 -59.8 21.9q-4.7 -3.75 -6.95 -9.3q-11.15 -27.95 -10.25 -58.95q1.25 -42.65 22.4 -79.5q1.5 -2.65 3.8 -3.95q23.5 -13.55 49.75 -1.75q0.9 0.45 1.95 0.5q1.45 -3.2 -1.2 -6.15q-15.2 -17.05 -40.55 -14.1q-2.4 0.55 -4.5 1.8q-12.1 17.2 -5.9 38.35q6 20.3 19.5 36.35q13.05 15.55 17.3 35.45q4.95 23.35 -11.1 37.9q-18.75 16.95 -35.8 -0.1q-3.75 -3.75 -6.05 -8.75q-7.95 33.25 28.15 41.8q17.35 4.2 26.7 -11q7.35 -12.05 9.25 -26.2q2.6 -19.2 -2.55 -37.85q-8.5 -30.4 -28.15 -55.25q-15.4 -19.45 1.4 -38.55q14.2 0.4 27.2 6.25q1.95 -3.4 1.35 -7.15q-0.35 -2.3 -1.65 -4.05q-19.85 -17.2 -33.85 2.7q-7.25 5.95 -11.8 14.25q-24.7 45 -23.75 97.45q0.4 22.45 7.85 43.05q10.7 29.55 44 24.8q13.05 -1.85 21.6 -11.55q25 -28.55 28.3 -67.15q5.45 -63.15 -33.2 -110.35q-1.1 -0.2 -1.95 0.5q-16.75 -2.6 -29.75 8q-17.4 21.95 -20.6 49.7q-0.3 2.75 -0.45 5.5q2.8 -1.45 3.35 -4.2q0.3 -1.4 0 -3q-2.5 -12.1 -6.35 -23.5q0 22.1 -6.2 43.15q-6.5 22.05 -25.9 32.85q-20.55 11.4 -37.25 -3.45q-15.45 -13.65 -17.4 -34.55q-2 -21.5 -0.5 -43.1q1.5 -20.9 10.75 -39.6q9.8 -19.8 28.1 -31.4q8.65 -5.55 18.95 -4.1q13.9 16.55 21.65 37.3q7.75 20.7 7.8 42.9<g id="1840" transform="matrix(1, 0, 0, 1, -132, 0)">
<path style="fill:#000000;fill-opacity:1" d="M359.45,187.7Q361.55 186.45 363.95 185.9L368.95 184.5Q394.3 181.55 409.5 198.6Q412.15 201.55 410.7 204.75L410 204.8Q408.95 204.75 408.05 204.3L407.55 203.7L407.45 203.25Q381.2 191.45 357.7 205Q355.4 206.3 353.9 208.95Q332.75 245.8 331.5 288.45Q330.6 319.45 341.75 347.4Q344 352.95 348.7 356.7Q386.85 363.1 408.5 334.8Q411.8 330.45 410.6 324.4Q410.05 321.5 411.35 319.45L411.45 310.2L385.45 311.45Q383.4 308.1 384.5 304L384.7 303.2Q398.8 297.95 414.45 298.2Q416.25 311.7 416.6 325.2Q420.15 335.05 416.4 344.1Q415.75 357.45 413.65 370.9L412.95 371.45Q409.95 363.5 409.35 354.5L404.9 358.65Q377.65 381.6 344.85 368.4Q340.5 366.65 338.6 362.2Q323.7 328.05 325 289.65Q326.3 250.95 341.45 215.35Q347.25 201.8 355.7 190L359.45 187.7M201.65,192.8Q202.95 194.55 203.3 196.85Q203.9 200.6 201.95 204Q188.95 198.15 174.75 197.75Q157.95 216.85 173.35 236.3Q193 261.15 201.5 291.55Q206.65 310.2 204.05 329.4Q202.15 343.55 194.8 355.6Q185.45 370.8 168.1 366.6Q132 358.05 139.95 324.8L145.75 329.2L146.75 332.95L145.75 334.7Q148.05 339.7 151.8 343.45Q168.85 360.5 187.6 343.55Q203.65 329 198.7 305.65Q194.45 285.75 181.4 270.2Q167.9 254.15 161.9 233.85Q155.7 212.7 167.8 195.5Q181.8 175.6 201.65 192.8M280.2,183.75L281.5 182.75Q282.35 182.05 283.45 182.25Q322.1 229.45 316.65 292.6Q313.35 331.2 288.35 359.75Q279.8 369.45 266.75 371.3Q233.45 376.05 222.75 346.5Q215.3 325.9 214.9 303.45Q213.95 251 238.65 206Q243.2 197.7 250.45 191.75Q263.45 181.15 280.2 183.75M260.2,258.5L261.45 262.35L262.3 263.25Q266.15 274.65 268.65 286.75L273.45 287.1L273.75 287.55L274.3 288.35L274.6 289.4Q274.9 291 274.6 292.4Q274.05 295.15 271.25 296.6L277.05 327.6L264.95 298.35L249.7 302L238.7 319.7Q238.85 316.95 239.15 314.2Q242.35 286.45 259.75 264.5L260.2 258.5M262.4,287.3L261.35 280.95L255.2 289.45L262.4 287.3M301.5,232.05Q293.75 211.3 279.85 194.75Q269.55 193.3 260.9 198.85Q242.6 210.45 232.8 230.25Q223.55 248.95 222.05 269.85Q220.55 291.45 222.55 312.95Q224.5 333.85 239.95 347.5Q256.65 362.35 277.2 350.95Q296.6 340.15 303.1 318.1Q309.3 297.05 309.3 274.95Q309.25 252.75 301.5 232.05" />
</g>
</svg>
