<?xml version="1.0" encoding="utf-8"?>
<svg version="1.1" id="Layer_1"
xmlns="http://www.w3.org/2000/svg"
xmlns:xlink="http://www.w3.org/1999/xlink"


xml:space="preserve">
q-12.55 34.75 -23.2 71.95q-2.5 8.75 -6.55 16.6q-8.3 16.1 -3.75 28.45q10.2 -23.65 18.25 -48.1q7.45 -1.5 14.85 -1.4q0.5 9.75 1.3 19.45q1.3 16.55 8.35 28.7q0.65 -0.65 0.6 -1.2q0.9 -1.4 1.15 -3.05q0.65 -3.65 -1.9 -5.95q-0.35 -0.4 -0.8 -0.5q-2.65 -28.85 -3.45 -56.95q-1.45 0.85 -2.05 2.5q-1.05 1.7 -1.1 3.75q-0.1 2.95 0.85 5.75q-4.9 47.8 -5.45 96.5q-0.7 59.6 -7.6 118.45q-6.95 59.55 -12.7 118.5q1.2 1.75 3.25 2q0.9 -0.6 1.05 -1.35q9.85 -52.7 15.4 -106.35q4.15 -40.2 6.25 -80.75q4.95 -3.6 9.25 -7.6q-0.65 5.4 0.3 11.5q5 31.9 10.35 63.75q9.65 57.7 18.5 115.3q-1.95 2.45 0.75 0.75q0.55 6.65 5 9.7q3.65 -9.55 1.65 -19.7q-11.45 -58.05 -21.55 -116.4q-3.75 -21.8 -5.6 -43.85q-1.15 -13.65 -5.9 -24.45q17.95 -19.05 23.55 -46.75q6.3 -31.3 2.85 -63.15q-3.6 -33.15 -35.45 -36.3q-3.3 0.9 -6.35 2.5q-9.05 23 -29.6 33.35q1.55 -54.95 2.25 -108.6q14.9 -4.95 23.6 7.95q10.95 16.3 11.7 36.6q1 27.2 -8.65 51.75q-9.75 6.95 -12.25 18.75q-6.25 29.55 -9.45 59.85q-2.25 21.7 17.45 22.65q9.55 -9.35 2.55 -18.15q-1.15 1.5 -2.7 2.15q-1.65 0.6 -1.05 2.1q0.25 0.75 0 1.05q-5.35 3.1 -9.75 -0.5q-0.65 -1.75 -1.05 -3.7q1.4 -12.3 1.35 -24.75q0 -26.75 15.15 -46.5q3.5 1.7 5.5 -0.55q0.95 -1.7 0.85 -3.75q-0.25 -3.3 -2.85 -5.25q-2.4 -0.95 -5.05 -0.85q-0.45 -3.65 1.3 -6.25q-0.8 -3.85 -3.75 -6q-7.95 42.6 -16.5 86.25q-5.25 -17.85 -6.9 -36.95q-1.2 -13.45 -6.6 -20.8q-4.3 28.8 -11 57.5q0.25 -43.25 -2.75 -85.5q-3.85 50.7 0.35 102.25q12.3 -21.8 14 -47.75q4.25 25.15 12 49.5q15.2 -41.8 18.75 -88.5q11.35 2.05 22.6 -4.35q-3.9 1.5 -7.2 4.55q-11.55 30.85 -12.65 64.45q-0.65 18.75 2.95 36.55q5.65 27.85 32.25 12.7q18.6 -10.55 15.95 -28q-3.9 0.4 -6.85 4.85q-12.6 18.8 -33.4 15.4q-8.2 -24.05 -6.4 -49.6q13.05 2.15 26.65 -3.15q2.55 -4.85 -0.65 -8.95q0.6 -5.4 1.7 -10.85q2.25 -11.2 6.15 -21.8q8.05 -21.8 28.15 -7q1.2 -2.95 0.4 -6q-0.35 -1.25 -1.2 -2.25q-10.25 -7.15 -22.45 -7.8q-19.2 37.2 -22.35 80.25q-3.75 51.7 -4.5 104.25q-0.85 59.75 3.6 118.5q1.4 18.45 13.85 30.9q7.5 7.4 17.95 4.1q43.5 -13.85 58.85 -57.55q19.7 -56.1 23.2 -115.65q3.55 -60.15 -4.15 -118.7q-5.75 -43.9 -44.95 -60.35q-7.9 3.6 -13.7 10.05q-2 2.25 -3.25 5.05q0.65 0.35 -0.15 1.55q0.8 0.7 2.2 -0.25q0.9 -0.65 1.3 -2q4.05 0.05 4.75 3.5q18 15.65 22.05 40q9.65 58.45 5.4 118.5q-4.25 59.5 -28.4 113.75q-16.3 36.55 -55.55 39.35q-1.5 0.1 -2.45 -0.9q-17.1 -17.65 -16.9 -44.5q0.35 -51.75 -0.6 -104.2q-1.1 -60.15 7.15 -118.65q4.6 -32.9 27.55 -54.6q-11.75 17.2 -11.9 38.25q-0.1 19.7 7.45 37.55q13.95 33 29.35 65.45q24.5 51.9 22.25 109.2q-0.95 24.05 -5.25 47.65q-5.85 32.3 -38.5 36.45q-30.2 3.8 -32.15 -25.6q0.3 -1.95 -1.25 -1q-0.2 0.1 -0.05 0.7q-2.15 9.4 -0.45 19.3q5.7 33.75 41.25 27.5q13 -2.25 20.1 -12.85q25.85 -38.75 26.1 -86.65q0.15 -28.55 -4.95 -56q-10.2 -54.5 -39.6 -101.3q-18.45 -29.3 -15.25 -63.1q2.85 -30.55 33.05 -29.85q4.95 2.9 8.25 7.4q10.45 14.1 15.2 29.6q4.45 -6.1 2.4 -14.15q-7.75 -30.75 -36.35 -37.35q-2.2 0.75 -4.65 2.15q-6.9 3.95 -13.1 9.1q-3.9 29.3 -6.45 59.95q-1.05 13.15 -3.65 25.95q-3.35 16.55 1.05 29.1q3.4 -6.25 4.3 -13.85q5.3 -44.65 6.6 -88.95q8.15 52.1 21.6 101.05q3.05 -3.55 3.3 -8.7q2.45 -59.75 5.95 -117.75q-6.95 32.3 -9.45 67.4q-1.35 19.05 -0.9 37.3q-11.4 -52.4 -20.65 -104.7q-2.95 4.75 -1.95 11.5<g id="1839" transform="matrix(1, 0, 0, 1, -17.1, 0)">
<path style="fill:#000000;fill-opacity:1" d="M335.2,82.25Q336 110.35 338.65 139.2L338.7 139.45L340.15 139.75Q340.6 139.85 340.95 140.25Q343.5 142.55 342.85 146.2Q342.6 147.85 341.7 149.25L339.55 149L343.55 195.55Q343.6 196.1 342.95 196.75Q335.9 184.6 334.6 168.05Q333.8 158.35 333.3 148.6Q325.9 148.5 318.45 150L317.95 149.4Q309.9 173.85 299.7 197.5Q295.15 185.15 303.45 169.05Q307.5 161.2 310 152.45Q320.65 115.25 333.2 80.5L333.15 84.75Q333.75 83.1 335.2 82.25M384.55,79.65Q387.6 78.05 390.9 77.15L390.95 77Q422.8 80.15 426.4 113.3Q429.85 145.15 423.55 176.45Q417.95 204.15 400 223.2Q404.75 234 405.9 247.65Q407.75 269.7 411.5 291.5Q421.6 349.85 433.05 407.9Q435.05 418.05 431.4 427.6L430.45 429.2Q426 426.15 425.45 419.5L425.2 419.45Q422.5 421.15 424.45 418.7L424.95 417.95Q416.1 360.35 406.45 302.65Q401.1 270.8 396.1 238.9Q395.15 232.8 395.8 227.4Q391.5 231.4 386.55 235L383.95 236.75L383.65 236.75Q381.55 277.3 377.4 317.5Q371.85 371.15 362 423.85Q361.85 424.6 360.95 425.2Q358.9 424.95 357.7 423.2Q363.45 364.25 370.4 304.7Q377.3 245.85 378 186.25Q378.55 137.55 383.45 89.75Q382.5 86.95 382.6 84Q382.65 81.95 383.7 80.25L384.55 79.65M422.65,134.95Q421.9 114.65 410.95 98.35Q402.25 85.45 387.35 90.4Q386.65 144.05 385.1 199L384.4 220.05Q404.95 209.7 414 186.7Q423.65 162.15 422.65 134.95M332.6,92.5L320.6 141.2L332.85 138.85L332.6 92.5M361,202.85L362.2 203.25Q364.8 205.2 365.05 208.5Q365.15 210.55 364.2 212.25Q362.2 214.5 358.7 212.8L356.7 212.5Q341.55 232.25 341.55 259Q341.6 271.45 340.2 283.75L340.65 286.8Q341.05 288.75 341.7 290.5Q346.1 294.1 351.45 291L356.7 284.55Q356.95 284.25 356.7 283.5Q356.1 282 357.75 281.4Q359.3 280.75 360.45 279.25Q367.45 288.05 357.9 297.4L351.7 303.25Q332 302.3 334.25 280.6Q337.45 250.3 343.7 220.75Q346.2 208.95 355.95 202Q358.6 201.9 361 202.85M334.2,218Q330.65 264.7 315.45 306.5Q307.7 282.15 303.45 257Q301.75 282.95 289.45 304.75Q285.25 253.2 289.1 202.5L289.2 202.5Q292.2 244.75 291.95 288L291.95 289Q298.65 260.3 302.95 231.5Q308.35 238.85 309.55 252.3Q311.2 271.4 316.45 289.25Q325 245.6 332.95 203Q335.9 205.15 336.7 209Q334.95 211.6 335.4 215.25L335.45 216L334.55 217.3L334.2 218M342.7,249.25L365.1 243.6L365.45 252.25Q354.2 258.65 342.85 256.6L342.7 249.25M485.4,310.55L486.2 311.25Q487.05 312.25 487.4 313.5Q488.2 316.55 487 319.5L486.7 320.25L486 320.45L481.45 319.75Q461.35 304.95 453.3 326.75Q449.4 337.35 447.15 348.55Q446.05 354 445.45 359.4L471.2 353.2Q474.4 357.3 471.85 362.15L471.45 362.7Q457.85 368 444.8 365.85Q443 391.4 451.2 415.45Q472 418.85 484.6 400.05Q487.55 395.6 491.45 395.2Q494.1 412.65 475.5 423.2Q448.9 438.35 443.25 410.5Q439.65 392.7 440.3 373.95Q441.4 340.35 452.95 309.5L455.75 307.3Q459.05 304.25 462.95 302.75Q475.15 303.4 485.4 310.55M191.2,80.7Q197 74.25 204.9 70.65L204.95 70.5L227.95 71.6L229.45 71.5Q268.65 87.95 274.4 131.85Q282.1 190.4 278.55 250.55Q275.05 310.1 255.35 366.2Q240 409.9 196.5 423.75Q186.05 427.05 178.55 419.65Q166.1 407.2 164.7 388.75Q160.25 330 161.1 270.25Q161.85 217.7 165.6 166Q168.75 122.95 187.95 85.75Q189.2 82.95 191.2 80.7M204.7,84L203.95 84.4L201.95 85Q179 106.7 174.4 139.6Q166.15 198.1 167.25 258.25Q168.2 310.7 167.85 362.45Q167.65 389.3 184.75 406.95Q185.7 407.95 187.2 407.85Q226.45 405.05 242.75 368.5Q266.9 314.25 271.15 254.75Q275.4 194.7 265.75 136.25Q261.7 111.9 243.7 96.25L226.7 88Q226 84.55 221.95 84.5Q221.55 85.85 220.65 86.5Q219.25 87.45 218.45 86.75L219.3 85.3Q220.1 84.1 219.45 83.75L204.7 84M64.35,64.4Q66.8 63 69 62.25Q97.6 68.85 105.35 99.6Q107.4 107.65 102.95 113.75Q98.2 98.25 87.75 84.15Q84.45 79.65 79.5 76.75Q49.3 76.05 46.45 106.6Q43.25 140.4 61.7 169.7Q91.1 216.5 101.3 271Q106.4 298.45 106.25 327Q106 374.9 80.15 413.65Q73.05 424.25 60.05 426.5Q24.5 432.75 18.8 399Q17.1 389.1 19.25 379.7Q19.1 379.1 19.3 379Q20.85 378.05 20.55 380L20.5 380.7L20.8 381.15L21.45 381.75L22.5 382.45Q24.45 411.85 54.65 408.05Q87.3 403.9 93.15 371.6Q97.45 348 98.4 323.95Q100.65 266.65 76.15 214.75Q60.75 182.3 46.8 149.3Q39.25 131.45 39.35 111.75Q39.5 90.7 51.25 73.5Q57.45 68.35 64.35 64.4M115.8,312.7Q114.8 305.95 117.75 301.2L118.2 298L118.2 300.5Q127.45 352.8 138.85 405.2Q138.4 386.95 139.75 367.9Q142.25 332.8 149.2 300.5Q145.7 358.5 143.25 418.25Q143 423.4 139.95 426.95L139.9 426.4L139.45 427.2Q126 378.25 117.85 326.15Q116.55 370.45 111.25 415.1Q110.35 422.7 106.95 428.95Q102.55 416.4 105.9 399.85Q108.5 387.05 109.55 373.9Q112.1 343.25 116 313.95L115.8 312.7" />
</g>
</svg>
