<?xml version="1.0" encoding="utf-8"?>
<svg version="1.1" id="Layer_1"
xmlns="http://www.w3.org/2000/svg"
xmlns:xlink="http://www.w3.org/1999/xlink"


xml:space="preserve">
q-20.7 4.15 -25.7 24.85q-11.45 47.35 -16.85 95.9q-6.4 58 -6.15 117q0.05 11.75 7.2 20.5q18.4 22.4 44.7 5.7q21.45 -13.65 14.3 -33.7q-3.65 -0.35 -5.55 3.1q-1.8 3.3 -4.55 5.05q-7.45 4.9 -7.4 7.35q-14 14.15 -36.25 4.25q-3 -3.35 -3.4 -7.6q-4.15 -47.3 -0.25 -94.65q19.35 -1.8 39.15 -6q3.85 -8.75 -2.7 -13.7q-18.05 4.3 -35.95 10.1q5.25 -48.35 15.2 -96q2.65 -12.6 14 -17.8q21.05 -9.6 37.05 5.95q3.4 -5.5 -0.05 -10.9q-4.7 -7.35 -12.2 -11.85q-1.85 0 -3.05 -1.2q10.4 31.65 11 65q0.45 23.55 -4.75 46.8q-1.55 6.95 -4.55 13.45q-10 21.85 -34.15 24.9q3.7 -77.2 2.15 -154.45q8.7 -5.2 19.05 -4.45q-0.65 1.45 -0.9 2.95q-0.55 3.5 0.9 6.7q-3.45 45.1 -4.2 91.1q-0.55 32.35 -1.65 64.7q-1.55 4.85 -0.5 9.75q0.45 1.9 2.05 3q-2.95 59.7 -3.9 119.2q-0.3 17.5 6.95 29q3.7 -6.4 3.25 -14.25q-3.45 -59.4 -1.1 -119.25q12.65 0.65 22 -8.75q23.85 -23.9 27.35 -58.3q4.45 -44.4 -4.35 -88.25q-5.55 -27.75 -32 -30.65q-4.3 1.55 -9 3.45q-0.9 0.35 -1.7 0.9q-0.5 0.1 -0.5 0.3q-16.95 25.9 -31 63.65q-3.55 9.45 -9.35 17.85q-9.1 13.1 -12.65 28.2q-1.85 7.85 2.35 14.75q-3.25 36.1 14.7 61.65q-3.05 -62.1 -18 -125.2q-3.4 -9.6 -6.15 -18.95q-11 -37.55 -48.1 -42.35q-9.85 3.75 -19.3 9.1q-19.1 10.85 -26.4 31.2q-20.05 55.7 -22.55 115q-1.6 36.85 -5.15 73.3q-6 60.75 11.75 117.7q3.95 12.65 14.6 20.15q25 17.65 48.4 -2.3q32.8 -28.05 45.2 -70.45q16.75 -57.15 22.15 -115.95q5.55 -60.2 -14.45 -116.45q-10.65 59.2 -39.7 111.25q-16.85 30.2 -51.55 27.05q-5.95 -0.55 -9.55 -4.9q-25.75 -31.05 -24 -73q1.9 -44.45 10.8 -88.1q9.05 -44.25 51.3 -57.7q4.05 -2.2 5.5 0.75q1.7 0.95 1.95 2.85q16.35 4.3 24.9 18.7q17.6 29.7 24.4 63.85q11.7 58.7 1.05 117.75q1.35 -21.55 -22.3 -21q-33.15 13.15 -36.05 49.95q-1.25 16.1 -3.7 32.05q-5.95 38.95 26.25 58q14.9 3.2 27.8 -4.9q16 -10.05 5.7 -21.85q-15.45 20.15 -39.6 7.55q-7.45 -3.85 -9.3 -11.7q-6.1 -25.9 -2.8 -53.05q2.5 -20.5 17.9 -33.5q18.8 -15.8 35.8 -0.8q11.15 13.7 16.55 29.9q3.55 -3.8 2.55 -9.45q-5.5 -30.55 -33 -44.05q-6.7 2.6 -11.75 8.25q-24.95 28.1 -22.35 66.85q0.9 13.4 5.85 25.4q22.5 54.2 43.4 109.4q17.4 44.4 5.4 89.85q-7.4 28.15 -38.65 31.7q-35.35 4.05 -38.8 -31.1q-5.8 14.95 3.65 30.4q21.2 34.6 59.35 12.75q3.7 -2.1 6.4 -5.1q26.45 -29.75 22.95 -71q-0.75 -8.55 -2.25 -16.95q-10.25 -56.55 -32.4 -110.75q-4.25 -10.4 -9.55 -20.1q-13.7 -24.95 -21.95 -52q-13.65 -44.55 18.3 -76.95q5.75 -3.4 12.9 -1.5q9 2.15 14.65 9.1q-4.95 51.9 -4.5 102.8q24.65 -0.95 48.75 4q5.3 -7.1 0.75 -15q-22.35 -4.5 -44.25 -4.25q1.65 -25.1 3.6 -50.2q2 -25.6 0.9 -49.55q-4.55 4.45 -5.25 12.2<g id="1827" transform="matrix(1, 0, 0, 1, -19.7, 0)">
<path style="fill:#000000;fill-opacity:1" d="M497.4,65.05Q498.6 66.25 500.45 66.25Q507.95 70.75 512.65 78.1Q516.1 83.5 512.7 89Q496.7 73.45 475.65 83.05Q464.3 88.25 461.65 100.85Q451.7 148.5 446.45 196.85L446 201.35Q463.9 195.55 481.95 191.25Q488.5 196.2 484.65 204.95L484.2 205.75Q464.4 209.95 445.05 211.75Q441.15 259.1 445.3 306.4Q445.7 310.65 448.7 314Q470.95 323.9 484.95 309.75Q484.9 307.3 492.35 302.4Q495.1 300.65 496.9 297.35Q498.8 293.9 502.45 294.25Q509.6 314.3 488.15 327.95Q461.85 344.65 443.45 322.25Q436.3 313.5 436.25 301.75Q436 242.75 442.4 184.75Q447.8 136.2 459.25 88.85Q464.25 68.15 484.95 64L496.45 64.25L497.4 65.05M409.7,77.25Q399.35 76.5 390.65 81.7Q392.2 158.95 388.5 236.15Q412.65 233.1 422.65 211.25Q425.65 204.75 427.2 197.8Q432.4 174.55 431.95 151Q431.35 117.65 420.95 86L409.7 77.25M390.2,68.25L390.25 69.35Q391.05 68.8 391.95 68.45Q396.65 66.55 400.95 65Q427.4 67.9 432.95 95.65Q441.75 139.5 437.3 183.9Q433.8 218.3 409.95 242.2Q400.6 251.6 387.95 250.95L385.85 305.2Q383.5 365.05 386.95 424.45Q387.4 432.3 383.7 438.7Q376.45 427.2 376.75 409.7Q377.7 350.2 380.65 290.5L382.4 250.25Q380.8 249.15 380.35 247.25Q379.3 242.35 380.85 237.5L381.2 236.75L382.9 236.7Q384 204.35 384.55 172Q385.3 126 388.75 80.9L388.45 80.4Q387 77.2 387.55 73.7Q387.8 72.2 388.45 70.75L389.6 69.8L389.7 68.55Q389.7 68.35 390.2 68.25M356.2,321Q371.15 384.1 374.2 446.2Q356.25 420.65 359.5 384.55L330.85 387.5L304.95 437.95Q300.75 431.05 302.6 423.2Q306.15 408.1 315.25 395Q321.05 386.6 324.6 377.15Q338.65 339.4 355.6 313.5L357.45 319L356.2 321M357.5,370.45L353.95 333L336.55 374.45L357.5 370.45M341.65,242.25Q336.25 301.05 319.5 358.2Q307.1 400.6 274.3 428.65Q250.9 448.6 225.9 430.95Q215.25 423.45 211.3 410.8Q193.55 353.85 199.55 293.1Q203.1 256.65 204.7 219.8Q207.2 160.5 227.25 104.8Q234.55 84.45 253.65 73.6Q263.1 68.25 272.95 64.5Q310.05 69.3 321.05 106.85Q323.8 116.2 327.2 125.8Q347.2 182.05 341.65 242.25M329.25,164.8Q322.45 130.65 304.85 100.95Q296.3 86.55 279.95 82.25L279.7 82.75Q279.45 80.85 277.75 79.9L278.2 78.75Q276.75 75.8 272.7 78Q230.45 91.45 221.4 135.7Q212.5 179.35 210.6 223.8L205.5 342.95Q203.75 384.9 229.5 415.95Q233.1 420.3 239.05 420.85Q273.75 424 290.6 393.8Q319.65 341.75 330.3 282.55Q340.95 223.5 329.25 164.8M181.95,80Q164.95 65 146.15 80.8Q130.75 93.8 128.25 114.3Q124.95 141.45 131.05 167.35Q132.9 175.2 140.35 179.05Q164.5 191.65 179.95 171.5Q190.25 183.3 174.25 193.35Q161.35 201.45 146.45 198.25Q114.25 179.2 120.2 140.25Q122.65 124.3 123.9 108.2Q126.8 71.4 159.95 58.25Q183.6 57.7 182.25 79.25L181.95 80M84.75,70.5Q77.6 68.6 71.85 72L70 72.75Q38.05 105.15 51.7 149.7Q59.95 176.75 73.65 201.7Q78.95 211.4 83.2 221.8Q105.35 276 115.6 332.55Q117.1 340.95 117.85 349.5Q121.35 390.75 94.9 420.5Q92.2 423.5 88.5 425.6Q50.35 447.45 29.15 412.85Q19.7 397.4 25.5 382.45L25.95 382.4L28.5 383.2Q31.95 418.35 67.3 414.3Q98.55 410.75 105.95 382.6Q117.95 337.15 100.55 292.75L90.15 265.65Q69.25 210.45 46.75 156.25Q41.8 144.25 40.9 130.85Q38.3 92.1 63.25 64Q68.3 58.35 75 55.75L85.5 56Q113 69.5 118.5 100.05Q119.5 105.7 115.95 109.5Q110.55 93.3 99.4 79.6Q93.75 72.65 84.75 70.5M137.45,207.75Q138.55 231.7 136.55 257.3Q134.6 282.4 132.95 307.5Q154.85 307.25 177.2 311.75Q181.75 319.65 176.45 326.75Q152.35 321.8 127.7 322.75Q127.25 271.85 132.2 219.95Q132.9 212.2 137.45 207.75" />
</g>
</svg>
