<?xml version="1.0" encoding="utf-8"?>
<svg version="1.1" id="Layer_1"
xmlns="http://www.w3.org/2000/svg"
xmlns:xlink="http://www.w3.org/1999/xlink"


xml:space="preserve">
q-1.25 0.05 -2 1q-3.15 17.35 -3.45 38q-0.65 44.15 0.1 88.5q-0.75 1 -1.1 2.2q-0.95 3.3 -0.7 6.8q0.2 2.95 1.8 5.25q-0.1 36.8 -1.25 73.4q-1.9 59.65 -8.2 118.45q-1.05 1.25 -2.5 1.6q-0.95 2.45 -1.3 4.6q-1.3 4.4 -1.1 9q0.2 4.15 3.1 6.75q1.5 -0.1 2.7 -0.85q0.4 -0.35 0.9 -0.6q31.25 7.4 52 -15.5q30.15 -32.8 37.5 -77.15q10.1 -60.55 -13.45 -116.3q-8.85 -20.85 -27.85 -28.4q20 -19.8 23.65 -51.4q2.35 -20.2 1.55 -40.55q-1.6 -39.55 -34.4 -59.4q-6.55 -2.15 -13.6 -2.15q3.5 3.65 5.9 8.2q27.25 52.75 32.45 112.15q2.6 29.5 2.65 59.4q0.05 61.9 -29.4 115.95q-21.6 39.7 -66.1 40.25q-6.7 -3.35 -12.55 -8q-13.3 -10.6 -17.5 -26.55q-15.05 -56.8 -17.4 -116q-2.4 -59.7 12.45 -117q2.85 -10.95 5.05 -22q9.85 -48.95 58.7 -58.4q1.55 -0.35 2.2 0.4q15.45 1.25 21.75 12.55q-11.35 39.05 -49.3 45.15q-0.85 -49.05 2.45 -97.6q1.7 -25.3 -1.6 -49.25q12.35 2.05 24.65 5.3q16.6 7.4 22.2 24.1q12.1 36.1 1.6 72.3q-12.95 -22.45 -40.8 -17.65q-36.35 8.85 -49 43.3q-20.5 55.8 -26.25 114.75q-5.8 59.35 2.8 117.8q1.1 7.5 1.55 14.95q2.6 44.8 30.9 76.4q5.7 5.05 12.8 7.3q32.85 10.4 55.8 -15.85q13.6 -15.5 22.85 -33.85q11.65 -23.15 18.05 -48.45q8.9 -35.05 9.85 -71.6q1.6 -60.5 -11.5 -117.95q-8.4 -36.8 -27.05 -69.15q32.85 41.6 32.45 94.45q-0.1 14.15 -2.75 28q-2.55 13.2 -7.7 25.65q-7.3 17.8 -19.3 33.05q-9.1 11.6 -22.3 16.65q-14.55 5.4 -30.55 7.25q14.1 -99.75 9.05 -200.65q-4.05 46.7 -4.15 94.5q0 3.5 -0.35 6.55q-0.7 5.75 -0.45 11.15q-16.95 -51.45 -33.25 -102.15q-4.4 0.7 -3.6 6q-0.4 5.2 1.3 11.3q1.85 20.9 -0.35 42.1q-1.95 16.95 3.45 29.4q1.9 -1.05 2.1 -3.05q2.3 -19.3 3.85 -38.85q1.9 -24.1 0.95 -47.7q12.9 45.9 27.1 91.35q1.95 1.95 4 0q1.3 -2.1 1.6 -4.5q4.4 -4.95 4.45 -12.5q0.65 -59.65 -3.2 -118.5q-7.1 2.05 -11.5 7.85q-9.9 13.05 -11.05 29.3q-3.1 42.1 20.15 76q26.05 38 40.85 82.35q15.15 42.2 17.7 87.05q2.6 44.95 -24.9 79.8q-4.85 6.15 -12.05 8.65q-28.5 9.8 -57.45 5.45q-6.6 -8.95 -9.9 -19.45q-3.3 -10.6 -9.6 -17.3q-1.65 0.7 -2.85 2q3.05 13.2 7.55 25.95q9.2 26.15 37.1 23.05q28 1.4 44 -19.35q9.7 -12.5 15.65 -26.95q11.5 -27.9 12 -57.95q1 -54.2 -16.85 -104.65q-16.7 -47.15 -45.25 -87.5q-27.45 -38.7 -8.95 -81.55q0.75 -0.4 1.45 -0.35q38.05 2.1 50.5 36.85q7.05 -14.65 -4.35 -28.6q-18.95 -23.25 -47.6 -26.65q-5.85 30.35 -0.25 59.5q4.8 -7.15 0.75 -15q-2.2 -2.35 -4 -3.5q-20.15 3.05 -39.4 0.2q-0.2 -4.6 0.4 -9.05q8 -59.1 6.1 -117.65q-6.8 18.85 -6.25 41.95q0.5 21.65 -3.5 42.5<g id="1844" transform="matrix(1, 0, 0, 1, -18.6, 0)">
<path style="fill:#000000;fill-opacity:1" d="M425.55,73.15L428.45 73.75Q461.25 93.6 462.85 133.15Q463.65 153.5 461.3 173.7Q457.65 205.3 437.65 225.1Q456.65 232.65 465.5 253.5Q489.05 309.25 478.95 369.8Q471.6 414.15 441.45 446.95Q420.7 469.85 389.45 462.45Q388.95 462.7 388.55 463.05L388.15 463.35Q386.95 464.1 385.45 464.2L385.8 463.55L386.5 462.75L387.45 461.95Q384.55 459.35 384.35 455.2Q384.15 450.6 385.45 446.2L386.4 446.05Q386.75 443.9 387.7 441.45L385.65 440.55L385.65 440.4L386.2 437.05Q387.65 436.7 388.7 435.45Q395 376.65 396.9 317Q398.05 280.4 398.15 243.6L396.45 243Q394.85 240.7 394.65 237.75Q394.4 234.25 395.35 230.95Q395.7 229.75 396.45 228.75L398.15 228.6L397.85 197.75Q397.1 153.4 397.75 109.25Q398.05 88.6 401.2 71.25L401.6 73.45L401.95 72.75Q402.7 71.8 403.95 71.75L411.95 71Q419 71 425.55 73.15M327.7,96.05Q321.4 84.75 305.95 83.5L304.55 84.1L304.15 84.4Q303.5 83.65 301.95 84Q253.1 93.45 243.25 142.4Q241.05 153.45 238.2 164.4Q223.35 221.7 225.75 281.4Q228.1 340.6 243.15 397.4Q247.35 413.35 260.65 423.95Q266.5 428.6 273.2 431.95Q317.7 431.4 339.3 391.7Q368.75 337.65 368.7 275.75Q368.65 245.85 366.05 216.35Q360.85 156.95 333.6 104.2Q331.2 99.65 327.7 96L327.7 96.05M449.65,110.6Q444.05 93.9 427.45 86.5Q415.15 83.25 402.8 81.2Q406.1 105.15 404.4 130.45Q401.1 179 401.95 228.05Q439.9 221.95 451.25 182.9Q461.75 146.7 449.65 110.6M363.8,156.8Q376.9 214.25 375.3 274.75Q374.35 311.3 365.45 346.35Q359.05 371.65 347.4 394.8Q338.15 413.15 324.55 428.65Q301.6 454.9 268.75 444.5Q261.65 442.25 255.95 437.2Q227.65 405.6 225.05 360.8Q224.6 353.35 223.5 345.85Q214.9 287.4 220.7 228.05Q226.45 169.1 246.95 113.3Q259.6 78.85 295.95 70Q323.8 65.2 336.75 87.65Q355.4 120 363.8 156.8M412.65,242.35L402.35 244.4Q407.4 345.3 393.3 445.05Q409.3 443.2 423.85 437.8Q437.05 432.75 446.15 421.15Q458.15 405.9 465.45 388.1Q470.6 375.65 473.15 362.45Q475.8 348.6 475.9 334.45Q476.3 281.6 443.45 240L424.75 236.35L412.65 242.35M197.2,68.25Q201.05 127.1 200.4 186.75Q200.35 194.3 195.95 199.25L194.3 194.7L194.05 197.5Q193.75 199.9 192.45 202Q190.4 203.95 188.45 202Q174.25 156.55 161.35 110.65Q162.3 134.25 160.4 158.35Q158.85 177.9 156.55 197.2Q156.35 199.2 154.45 200.25Q149.05 187.8 151 170.85L155.25 132.1Q157.45 110.9 155.6 90L155.6 89.95Q153.9 83.85 154.3 78.65L153.85 75.75Q153.05 70.45 157.45 69.75L158.65 78.3Q174.95 129 191.9 180.45Q191.65 175.05 192.35 169.3Q192.7 166.25 192.7 162.75Q192.8 114.95 196.85 68.25L197.2 68.25M128.6,89.9Q140 103.85 132.95 118.5L131.85 117.85L130.45 116.5Q118 81.75 79.95 79.65Q79.25 79.6 78.5 80L77.4 80.6L73 82.25Q54.5 125.1 81.95 163.8Q110.5 204.15 127.2 251.3Q145.05 301.75 144.05 355.95Q143.55 386 132.05 413.9Q126.1 428.35 116.4 440.85Q100.4 461.6 72.4 460.2L63.9 460.45Q36 463.55 26.8 437.4Q22.3 424.65 19.25 411.45L18.6 406.85L20.4 404.95Q21.6 403.65 23.25 402.95Q29.55 409.65 32.85 420.25Q36.15 430.75 42.75 439.7Q71.7 444.05 100.2 434.25Q107.4 431.75 112.25 425.6Q139.75 390.75 137.15 345.8Q134.6 300.95 119.45 258.75Q104.65 214.4 78.6 176.4Q55.35 142.5 58.45 100.4Q59.6 84.15 69.5 71.1Q73.9 65.3 81 63.25Q109.65 66.65 128.6 89.9M152.2,348.45Q151.65 325.35 158.45 306.5Q160.35 365.05 152.35 424.15Q151.75 428.6 151.95 433.2Q171.2 436.05 191.35 433L191.45 432.2Q193.25 433.35 195.45 435.7Q199.5 443.55 194.7 450.7L148.45 450.45Q142.85 421.3 148.7 390.95Q152.7 370.1 152.2 348.45" />
</g>
</svg>
