<?xml version="1.0" encoding="utf-8"?>
<svg version="1.1" id="Layer_1"
xmlns="http://www.w3.org/2000/svg"
xmlns:xlink="http://www.w3.org/1999/xlink"


xml:space="preserve">
q4.55 -7.6 0.25 -15.45q-88.7 2.15 -177.75 23.6q-15.8 134.1 -16.5 270.25q-0.05 11.35 -3.1 22.15q-0.7 3 -1 6q-0.55 5.75 0.85 11.15q1.15 4.3 3.45 8.15q18.05 -88.35 17 -181.9q-0.6 -51.5 3.85 -102.9q1.55 -18.15 0 -36.1q-0.9 19.45 -2.7 38.9q6.85 -57.5 1.3 -112.95q-8.6 54.6 -8.95 110.1q-0.05 10.9 -0.95 22.05q-1.9 22.1 -2.55 44.4q-0.65 22.35 -0.05 44.6q0.2 7.75 0.9 15.5q0.05 0.45 0.45 0.95q6.5 -49.35 7.05 -99.4q0.2 -21.05 1.45 -42.05q-3 72 -8.55 143.35q-0.05 1 0.3 1.95q14.45 -46.45 10.45 -100.55q-2.15 -28.75 -0.35 -57.6q5 -5.5 1.9 -12.95q8.8 -71.65 0.55 -143.2q-9.3 16.45 -5.95 37.75q2.85 18.15 2.45 36.65q-12.85 -34.05 -45.5 -48.5q-3 0.95 -3.2 4.35q-30.35 -4.3 -39.15 25.7q-16.9 57.3 -8.7 117q4.7 34.05 31.9 53.65q4.3 3.1 9.35 2.8q40.65 -2.45 55.6 -41.7q21.9 -57.7 0 -115.7q13.9 -5.75 24.8 4.7q11.8 7.75 20.65 19.8q36.4 49.7 15.55 108.05q-7.55 21.05 -25.05 34.75q-16.5 12.9 -33.85 2.85q-18.6 -10.75 -25.95 -31.75q-12.4 -35.45 -5.6 -73.15q2.6 -14.5 4.7 -29.1q3.55 -23.9 25.55 -32.8q-8.6 31.35 -8.6 67q0.05 44.2 -0.8 88.5q-1.1 59.6 -5.75 119.1q-1.85 23.45 3.15 44.35q60.6 -4.95 122.25 -7.75q5.65 -10.8 -1.75 -19.5q-8.4 3.85 -16.5 1q-49.3 4.55 -98 6.25q1 -38.3 2.7 -76.5q1.3 -29.65 1.4 -59.2q0.1 -52.3 2.75 -104.2q1.55 -30.45 0.15 -59.3q-22.9 44.45 0.6 90.2q7.85 15.25 17.05 29.75q15.9 25.05 30.35 50.95q14.1 25.2 16.3 53.9q3.05 39.55 -24.65 65.6q-8.25 7.75 -19.1 10.1q-50.6 11.05 -82.9 -29.35q0.1 -0.95 0.65 -2.1q-3.15 0.25 -6.3 -1.1q-3.3 5.5 -1.9 12q1.6 7.2 6.45 13q23.6 27.85 59.2 34.4q26.5 4.85 47.35 -11.7q32.8 -26.05 32.5 -68.65q-0.15 -26.45 -7.7 -51.2q-9.7 -31.95 -26.45 -61.3q-6.5 -11.4 -15.2 -21.2q-35.1 -39.45 -24.25 -89.05q16.6 -20.35 37.35 -4.15q4.65 3.6 6.2 9.1q3.2 11.3 7.85 18.75q2.55 -6.45 1.95 -13.5q-2.8 -33.75 -36.7 -37.75q-8.05 3.2 -11.85 10.6<g id="1849" transform="matrix(1, 0, 0, 1, -17.2, 0)">
<path style="fill:#000000;fill-opacity:1" d="M437.95,84.5L374.85 91.05L375.3 96.05Q376.85 114 375.3 132.15Q370.85 183.55 371.45 235.05Q372.5 328.6 354.45 416.95Q352.15 413.1 351 408.8Q349.6 403.4 350.15 397.65Q350.45 394.65 351.15 391.65L353.15 383.75Q356.2 372.95 356.25 361.6Q356.95 225.45 372.75 91.35L284.7 107.25L288.2 109.25L283.45 110L271.3 103.7L271.45 94Q360.5 72.55 449.2 70.4Q453.5 78.25 448.95 85.85L443.95 87.75L437.95 84.5M449.5,133Q446.15 111.7 455.45 95.25Q463.7 166.8 454.9 238.45L459.2 239.5L460.35 242.05Q463.45 249.5 458.45 255L453.7 255.05Q451.9 283.9 454.05 312.65Q458.05 366.75 443.6 413.2L441.95 412.4L438.4 408.75L438.2 408.9Q437.85 407.95 437.9 406.95L438.45 398.45Q444 327.1 447 255.1L394.8 256.15Q393.55 277.15 393.35 298.2Q392.8 348.25 386.3 397.6L383.3 397.55Q382.9 397.05 382.85 396.6Q382.15 388.85 381.95 381.1Q381.35 358.85 382 336.5Q382.65 314.2 384.55 292.1L387 262.55Q387.9 251.4 387.95 240.5Q388.3 185 396.9 130.4Q402.45 185.85 395.6 243.35L448.3 238.15Q450.1 218.7 451 199.25L451.95 169.65Q452.35 151.15 449.5 133M333.45,304.45Q318.5 343.7 277.85 346.15Q272.8 346.45 268.5 343.35Q241.3 323.75 236.6 289.7Q228.4 230 245.3 172.7Q254.1 142.7 284.45 147L284.75 144.75Q284.95 141.35 287.95 140.4L287.95 140.25Q320.6 154.7 333.45 188.75Q355.35 246.75 333.45 304.45M244.55,191.4Q242.45 206 239.85 220.5Q233.05 258.2 245.45 293.65Q252.8 314.65 271.4 325.4Q288.75 335.45 305.25 322.55Q322.75 308.85 330.3 287.8Q351.15 229.45 314.75 179.75Q305.9 167.7 294.1 159.95L294.9 163.3Q284 152.85 270.1 158.6Q248.1 167.5 244.55 191.4M203.3,153.8Q200.65 205.7 200.55 258Q200.45 287.55 199.15 317.2Q197.45 355.4 196.45 393.7Q245.15 392 294.45 387.45L294.45 386.3L295.45 386.35L295.45 386.45L295.45 387.2Q303.55 390.05 311.95 386.2Q319.35 394.9 313.7 405.7Q252.05 408.5 191.45 413.45Q186.45 392.55 188.3 369.1Q192.95 309.6 194.05 250Q194.9 205.7 194.85 161.5Q194.85 125.85 203.45 94.5Q204.85 123.35 203.3 153.8M104.7,82.95L111.95 80.25Q145.85 84.25 148.65 118Q149.25 125.05 146.7 131.5Q142.05 124.05 138.85 112.75Q137.3 107.25 132.65 103.65Q111.9 87.45 95.3 107.8L90.5 112.75Q79.65 162.35 114.75 201.8Q123.45 211.6 129.95 223Q146.7 252.35 156.4 284.3Q163.95 309.05 164.1 335.5Q164.4 378.1 131.6 404.15Q110.75 420.7 84.25 415.85Q48.65 409.3 25.05 381.45Q20.2 375.65 18.6 368.45Q17.2 361.95 20.5 356.45L21.75 356.3Q24.9 357.65 28.05 357.4L29.75 361.2L30.5 361.95L31.15 362.6Q30.6 363.75 30.5 364.7Q62.8 405.1 113.4 394.05Q124.25 391.7 132.5 383.95Q160.2 357.9 157.15 318.35Q154.95 289.65 140.85 264.45Q126.4 238.55 110.5 213.5Q101.3 199 93.45 183.75Q69.95 138 92.85 93.55Q96.65 86.15 104.7 82.95" />
</g>
</svg>
