<?xml version="1.0" encoding="utf-8"?>
<svg version="1.1" id="Layer_1"
xmlns="http://www.w3.org/2000/svg"
xmlns:xlink="http://www.w3.org/1999/xlink"


xml:space="preserve">
q-31.35 37.9 -37.4 90.5q-3.35 28.8 -7.95 57.75q-2.9 18.05 -3 36.35q-0.15 21.95 2.35 43.75q1.55 13.75 8.2 25.65q4.2 7.6 12.25 11.05q6.45 2.8 12.75 -0.95q23.45 -14.35 36.6 -38.55q4.85 -9 -0.85 -17.05q-12.4 37.65 -48 41.95q-27.7 -47.55 -10.2 -105.45q3.7 -5.05 2.4 -11.1q-0.6 -2.85 -2.4 -5.4q3.1 -63.05 34.25 -116.1q13.85 -1.1 19 11.15q1.3 3.05 3 0.85q0.75 -19.95 -18.3 -24.9q-5.4 7.9 -8.9 17.9q-11.95 53.95 -21.25 108.6q-9.8 57.65 -22 113.65q-5.7 -46.9 -16.4 -93q-13.45 -58 -24.9 -116.4q-3.15 -16 -8.45 -28.1q3 47.4 14.5 94.65q14.05 57.65 22.15 116.3q4.1 29.75 11.6 57.5q10.65 -22.75 15.15 -49.95q9.4 -58.5 25.5 -115.55q5.45 -19.4 0.55 -36.4q4.5 5.6 2.7 12.55q-1 -120.75 9.9 -241.6q0.1 -1.85 0.45 -3.65q0.8 -4.35 3.2 -8.05q-0.85 131.4 -10 262.45q30.25 -1.2 55.95 -9.7q-1.05 0.4 -1.85 1.1q-0.55 0.45 -1.45 0.6q-20.35 -3.5 -32.7 14.9q-17.85 26.65 -22.8 58.95q-9 58.4 -7.2 117.9q0.2 7.7 0.75 15.1q2.55 37.15 17.2 70.35q11.6 8.1 25.55 11.3q9.6 2.25 18 -2.65q38.3 -22.45 50.6 -66.05q7.6 -27.1 11.5 -54.8q8.45 -59.8 -5.7 -118.1q-10.2 -42.25 -51.45 -48.9q12.15 1.35 23.25 6.75q19.6 17.4 24.45 43.4q10.9 58.8 -0.15 118q-7.5 39.95 -32.95 71.65q-25.25 31.45 -59.6 8.65q-7.35 -11.45 -9.35 -25.3q-5.5 -38.35 -5.45 -77.4q0.05 -59.9 15.75 -116.9q8.45 -30.65 38.55 -35.6q2.7 -0.15 3.1 2.2q0.25 1.65 1.1 2.9q-17.95 18.65 -14.95 46.15q1 9.3 3.25 18.15q12.7 49.4 37.1 94.6q18.05 33.5 23.65 70.3q3.65 23.95 -8.85 43.85q-16.3 25.9 -48.3 18.2q-19.15 -4.6 -32.75 -18.6q-11.1 -11.4 -20.9 -20.6q-1.25 0.8 -0.85 2.2q10.3 40.35 53.35 51.9q20.8 5.55 37.55 -6.15q28.55 -19.95 27.8 -55.7q-0.2 -10.55 -2.2 -20.7q-10.05 -50.95 -35.75 -97.15q-23.85 -41.5 -16.95 -88.45q0.65 -4.35 3.6 -7q22.45 -20 41 4.15q3.9 7.75 6.4 15.7q2.45 7.75 5.85 12.3q0.5 -7.6 -0.6 -15.15q-5 -35.25 -38.9 -40.6q-4.8 1.55 -8 4.9<g id="1847" transform="matrix(1, 0, 0, 1, -35, 0)">
<path style="fill:#000000;fill-opacity:1" d="M524.95,127Q523.25 129.2 521.95 126.15Q516.8 113.9 502.95 115Q471.8 168.05 468.7 231.1L510.2 218.75L513.45 219.75Q515.25 222.3 515.85 225.15Q517.15 231.2 513.45 236.25L466.75 244Q449.25 301.9 476.95 349.45Q512.55 345.15 524.95 307.5L526.9 310Q532.6 318.05 527.75 327.05Q514.6 351.25 491.15 365.6Q484.85 369.35 478.4 366.55Q470.35 363.1 466.15 355.5Q459.5 343.6 457.95 329.85Q455.45 308.05 455.6 286.1Q455.7 267.8 458.6 249.75Q463.2 220.8 466.55 192Q472.6 139.4 503.95 101.5L506.65 102.1Q525.7 107.05 524.95 127M467.45,89Q472.35 106 466.9 125.4Q450.8 182.45 441.4 240.95L429.6 313.5Q425.1 340.7 414.45 363.45Q406.95 335.7 402.85 305.95Q394.75 247.3 380.7 189.65Q369.2 142.4 366.2 95Q371.5 107.1 374.65 123.1Q386.1 181.5 399.55 239.5Q410.25 285.6 415.95 332.5Q428.15 276.5 437.95 218.85Q447.25 164.2 459.2 110.25L458.65 108.4L458.2 107Q461.7 97 467.1 89.1L467.45 89M388.45,354.95Q392.95 360.55 391.15 367.5L389.7 372.2L308.45 382.2Q307.45 261.45 318.35 140.6L320.55 112.45Q320.65 110.6 321 108.8Q321.8 104.45 324.2 100.75Q323.35 232.15 314.2 363.2Q344.45 362 370.15 353.5L388.45 354.95M233.9,98.65L233.95 98.5Q275.2 105.15 285.4 147.4Q299.55 205.7 291.1 265.5Q287.2 293.2 279.6 320.3Q267.3 363.9 229 386.35Q220.6 391.25 211 389Q197.05 385.8 185.45 377.7Q170.8 344.5 168.25 307.35Q167.7 299.95 167.5 292.25Q165.7 232.75 174.7 174.35Q179.65 142.05 197.5 115.4Q209.85 97 230.2 100.5Q231.1 100.35 231.65 99.9Q232.45 99.2 233.5 98.8L233.9 98.65M232.15,113.6Q231.3 112.35 231.05 110.7Q230.65 108.35 227.95 108.5Q197.85 113.45 189.4 144.1Q173.7 201.1 173.65 261Q173.6 300.05 179.1 338.4Q181.1 352.25 188.45 363.7Q222.8 386.5 248.05 355.05Q273.5 323.35 281 283.4Q292.05 224.2 281.15 165.4Q276.3 139.4 256.7 122Q245.6 116.6 233.45 115.25L232.15 113.6M106,81.3L108.95 80.25Q142.85 85.6 147.85 120.85Q148.95 128.4 148.45 136Q145.05 131.45 142.6 123.7Q140.1 115.75 136.2 108Q117.65 83.85 95.2 103.85Q92.25 106.5 91.6 110.85Q84.7 157.8 108.55 199.3L116.15 212.65Q141.85 258.85 151.9 309.8Q153.9 319.95 154.1 330.5Q154.85 366.25 126.3 386.2Q109.55 397.9 88.75 392.35Q45.7 380.8 35.4 340.45Q35 339.05 36.25 338.25Q46.05 347.45 57.15 358.85Q70.75 372.85 89.9 377.45Q121.9 385.15 138.2 359.25Q150.7 339.35 147.05 315.4Q141.45 278.6 123.4 245.1Q99 199.9 86.3 150.5Q84.05 141.65 83.05 132.35Q80.05 104.85 98 86.2Q101.2 82.85 106 81.3" />
</g>
</svg>
