<?xml version="1.0" encoding="utf-8"?>
<svg version="1.1" id="Layer_1"
xmlns="http://www.w3.org/2000/svg"
xmlns:xlink="http://www.w3.org/1999/xlink"


xml:space="preserve">
q-36.7 5.7 -74 8.75q-2.4 5.05 -0.2 10.35q-3.9 55.5 -5.7 111.25q-0.5 14.95 -2.4 29.7q-2.25 17.25 3.4 29.75q4.75 -30.15 5.7 -62.25q1.55 -55.15 1.55 -108.75q2.3 -4.35 0.55 -9.05q-0.35 -0.4 -0.75 -0.45q-0.8 -0.15 -1.05 0.4q-7.1 16.55 0.05 30.35q4.65 -15.3 0.5 -29.9q16.45 3.35 22.05 -11.7q7.6 -20.25 7.4 -42.9q-0.2 -28.75 -1 -56.2q-6.7 21.3 -4.8 46.15q1.9 25.05 -6.2 47.3q-8.7 5.25 -18.5 3q-2.3 -2.65 -5.25 -3.75q-4.5 6.4 -1.5 14.25q3.55 2.95 7.8 3.85q2 -2.35 1.6 -5.8q-0.75 -6.7 -6.3 -10.8q-23.4 -3.25 -30.75 18.7q-6.55 19.7 1.45 38.6q8.2 19.3 20.3 36.8q12.3 17.85 14.2 39.5q2.2 24.95 -20 34.1q-23 9.35 -34.75 -12.1q-4.25 -7.8 -6.3 -17.05q-0.55 -2.35 -2.1 -4.1q-6.6 14.85 -0.6 30q5.1 12.9 17.65 18.45q12.6 5.6 25.35 0.55q16.35 -6.4 21.65 -23.7q11.8 -38.45 -12.7 -70.4q-11.6 -15.1 -18.5 -32.85q-6.85 -17.75 -1.35 -36.25q5.25 -5.7 12.55 -7.5q6.65 -1.45 13.4 -1.5q-15.75 12.2 -21 32.35q-5.15 19.95 -0.1 40.05q6.2 24.55 31.3 20.95q22.6 -3.4 30.7 -26.1q7.6 -21.25 0.9 -42.95q-3.7 -11.95 -12.8 -20.8q-7.5 -3.4 -15.6 -4.8q1.85 5.4 2.75 11.1q2.85 17.7 -6.1 32.7q-15.05 25.2 -41.4 11.2q-4.05 -8.25 -6.1 -17.2q-7 -31.2 17.1 -49.55q20.35 -1.4 33.75 11.75<g id="1855" transform="matrix(1, 0, 0, 1, -136.9, 0)">
<path style="fill:#000000;fill-opacity:1" d="M420.45,180.8Q420.85 180.85 421.2 181.25L421.5 181.95Q423.25 186.65 420.95 191L379.2 196.45Q379.2 250.05 377.65 305.2Q376.7 337.3 371.95 367.45Q366.3 354.95 368.55 337.7Q370.45 322.95 370.95 308Q372.75 252.25 376.65 196.75L335.45 200.25L334.75 199.35Q332.55 194.05 334.95 189Q372.25 185.95 408.95 180.25L420.45 180.8M415.95,237.65L415.45 238.5Q408.3 224.7 415.4 208.15Q415.65 207.6 416.45 207.75Q420.6 222.35 415.95 237.65M380.95,363.95Q377.95 356.1 382.45 349.7Q385.4 350.8 387.7 353.45Q397.5 355.7 406.2 350.45Q414.3 328.2 412.4 303.15Q410.5 278.3 417.2 257Q418 284.45 418.2 313.2Q418.4 335.85 410.8 356.1Q405.2 371.15 388.75 367.8Q384.5 366.9 380.95 363.95M187.55,193.5Q180.25 195.3 175 201Q169.5 219.5 176.35 237.25Q183.25 255 194.85 270.1Q219.35 302.05 207.55 340.5Q202.25 357.8 185.9 364.2Q173.15 369.25 160.55 363.65Q148 358.1 142.9 345.2Q136.9 330.05 143.5 315.2Q145.05 316.95 145.6 319.3Q147.65 328.55 151.9 336.35Q163.65 357.8 186.65 348.45Q208.85 339.3 206.65 314.35Q204.75 292.7 192.45 274.85Q180.35 257.35 172.15 238.05Q164.15 219.15 170.7 199.45Q178.05 177.5 201.45 180.75L203.4 182.2Q208.95 186.3 209.7 193Q210.1 196.45 208.1 198.8L200.95 192Q194.2 192.05 187.55 193.5M283.1,267.8Q291.2 269.2 298.7 272.6L302.95 270.7Q312.05 279.55 315.75 291.5Q322.45 313.2 314.85 334.45Q306.75 357.15 284.15 360.55Q259.05 364.15 252.85 339.6Q247.8 319.5 252.95 299.55Q258.2 279.4 273.95 267.2L283.1 267.8M273.7,279.2Q249.6 297.55 256.6 328.75Q258.65 337.7 262.7 345.95Q289.05 359.95 304.1 334.75Q313.05 319.75 310.2 302.05Q309.3 296.35 307.45 290.95Q294.05 277.8 273.7 279.2" />
</g>
</svg>
