<?xml version="1.0" encoding="utf-8"?>
<svg version="1.1" id="Layer_1"
xmlns="http://www.w3.org/2000/svg"
xmlns:xlink="http://www.w3.org/1999/xlink"


xml:space="preserve">
q-5.15 -10 -14.2 -17q-11.8 -7.2 -25.65 -6q-6.9 3.6 -12.2 9.65q-25.5 28.9 -31.85 68.1q-4.8 29.6 -5.95 59.95q-1.85 46.6 -1.8 93.8q0 22.2 11.2 40.6q17.1 28.15 48.4 17.9q17.4 -10.4 25.4 -28.9q-1.8 19.95 1.6 38.4q12.9 -41.8 5.45 -84.65q-15.7 5.75 -32.25 8.5q-1.9 5.45 0.5 10.5q14.95 2.35 28.25 -1q-1.5 -3.7 -5.1 -6.1q-1.95 4.75 -4.4 9.25q-6.05 7 -14.65 10.7q-21 9.1 -36.6 -6.65q-18.1 -18.25 -16.65 -45.6q2 -37.3 2.8 -74.15q1.3 -58.6 7.9 -116.1q3.9 -34.3 24.05 -61q9 -11.9 23.55 -9.1q21 4.05 31.35 21.95q4.3 -7.95 -0.3 -17q1.4 1.05 2.5 1.5q1.3 39.6 1.8 79.5q0.8 59.95 -2.15 119.2q-2.3 46.35 -18.85 89.45q-12.8 33.4 -50.3 25.55q-2.65 -2.65 -3.45 -6.05q-9.2 -38.85 -7.55 -79.95q2.35 -59.3 3.8 -118.45q1.45 -59.7 4.2 -119.2q0.5 -10.25 -5.25 -13.55q-3.4 21.3 -3.2 43.5q0.55 58.7 -2.5 117q-3.1 59.4 -3.6 119.2q-0.1 7.65 -0.75 14.85q-3 33.3 14.8 59.4q12 5.65 25.6 2.7q11.6 -2.55 19.7 -11.3q19.7 -21.4 26 -50.3q12.6 -57.85 11 -118.05q-1.6 -59.45 0.4 -119.2q1.05 -31.05 -5.7 -59.3q-2.75 0 -4 2.5q-1.6 10.05 -2.3 20.25q-3.1 0.65 -3.1 4.5q-0.05 38.7 -1.05 77.25q-0.35 12 -2 23.75q-4.35 31 1.15 60.25q29.9 0.55 58.75 -6.5q1.75 1.5 3.75 1q8.45 -9.15 1.5 -19.5q-30.25 7.6 -60.25 7.5q0.15 -11.35 0.75 -22.55q3.1 -59.5 3.25 -118.2q-0.5 -3.6 -2.45 -6.7q35.05 -6 47.2 27.25q0.95 1.6 2.8 1.7q1.7 -3.55 0.85 -7.3q-8.35 -36.75 -47.1 -41.2q-35.5 16.05 -36.75 55.2q-1 30.7 16 55.45q18.5 27 34.3 55.9q20.3 37.05 32.85 77.25q15.2 48.6 -19 85.1q-36.65 39.2 -85.4 13.6q-9.4 -4.95 -10.4 -13.95q-1.4 -11.9 -7.55 -19.6q-4.7 3.15 -4.7 9q0 5.65 1.15 10.8q2.3 10.6 8.1 19.25q6.35 9.45 16.4 14.9q30.15 16.45 60.35 2.2q32 -15.1 43.9 -48.25q18.7 -52.4 -2.7 -104.25q-9.65 -23.35 -21.3 -45.65q-21.9 -42 -49.95 -80.45q-13.8 -36.7 13.15 -63.35q2.85 -2.8 6.6 -3.4q0.3 59.45 -3 118.45q-0.6 1.5 -0.9 2.95q-5.2 -23.1 -14.45 -45.15q-21.05 -49.9 -42.8 -98.35q-1.75 1.2 -2.85 2.85q-3.15 1.95 -1.85 6.3q0.9 18.25 -0.35 36.1q-4.1 59.1 -10.85 117.6q1.6 3.85 5.25 4.25q2.7 -3.2 3.05 -7.45q4.45 -50.85 8.55 -101.95q1.2 -14.75 1.05 -29.2q14.8 45.2 32.4 89.2q11.3 28.1 23.7 53.4q3 -3.1 2.4 -7.45q1.05 1.55 2.6 2.95q2.65 -2.7 2.85 -6.75q3 -59.45 5.55 -119.15q1 -23.1 -1.4 -44.3q-7.85 15.6 -7.75 35.75<g id="1876" transform="matrix(1, 0, 0, 1, -26.3, 0)">
<path style="fill:#000000;fill-opacity:1" d="M490.95,116.25Q480.6 98.35 459.6 94.3Q445.05 91.5 436.05 103.4Q415.9 130.1 412 164.4Q405.4 221.9 404.1 280.5Q403.3 317.35 401.3 354.65Q399.85 382 417.95 400.25Q433.55 416 454.55 406.9Q463.15 403.2 469.2 396.2Q471.65 391.7 473.6 386.95L480.45 370.7Q484.05 373.1 485.55 376.8L486.7 368.7Q473.4 372.05 458.45 369.7Q456.05 364.65 457.95 359.2L458.2 358.45Q474.75 355.7 490.45 349.95Q497.9 392.8 485 434.6L484.45 434.7Q481.05 416.25 482.85 396.3Q474.85 414.8 457.45 425.2L456.95 425.35L454.45 425.45Q423.15 435.7 406.05 407.55Q394.85 389.15 394.85 366.95Q394.8 319.75 396.65 273.15L398.95 213.2Q400.1 182.85 404.9 153.25Q411.25 114.05 436.75 85.15Q442.05 79.1 448.95 75.5Q462.8 74.3 474.6 81.5L476.45 82.25Q485.5 89.25 490.65 99.25Q495.25 108.3 490.95 116.25M367.25,78L367.45 77.25Q368.7 74.75 371.45 74.75Q378.2 103 377.15 134.05Q375.15 193.8 376.75 253.25Q378.35 313.45 365.75 371.3Q359.45 400.2 339.75 421.6Q331.65 430.35 320.05 432.9Q306.45 435.85 294.45 430.2Q276.65 404.1 279.65 370.8Q280.3 363.6 280.4 355.95Q280.9 296.15 284 236.75Q287.05 178.45 286.5 119.75Q286.3 97.55 289.7 76.25Q295.45 79.55 294.95 89.8Q292.2 149.3 290.75 209Q289.3 268.15 286.95 327.45Q285.3 368.55 294.5 407.4Q295.3 410.8 297.95 413.45Q335.45 421.3 348.25 387.9Q364.8 344.8 367.1 298.45Q370.05 239.2 369.25 179.25Q368.75 139.35 367.45 99.75Q366.35 99.3 364.95 98.25Q365.65 88.05 367.25 78M186.9,79.95L187.2 80.75Q187.05 139.45 183.95 198.95Q183.35 210.15 183.2 221.5Q213.2 221.6 243.45 214Q250.4 224.35 241.95 233.5Q239.95 234 238.2 232.5Q209.35 239.55 179.45 239Q173.95 209.75 178.3 178.75Q179.95 167 180.3 155Q181.3 116.45 181.35 77.75Q181.35 73.9 184.45 73.25Q186.4 76.35 186.9 79.95M95.4,86.15Q68.45 112.8 82.25 149.5Q110.3 187.95 132.2 229.95Q143.85 252.25 153.5 275.6Q174.9 327.45 156.2 379.85Q144.3 413 112.3 428.1Q82.1 442.35 51.95 425.9Q41.9 420.45 35.55 411Q29.75 402.35 27.45 391.75Q26.3 386.6 26.3 380.95Q26.3 375.1 31 371.95Q37.15 379.65 38.55 391.55Q39.55 400.55 48.95 405.5Q97.7 431.1 134.35 391.9Q168.55 355.4 153.35 306.8Q140.8 266.6 120.5 229.55Q104.7 200.65 86.2 173.65Q69.2 148.9 70.2 118.2Q71.45 79.05 106.95 63Q145.7 67.45 154.05 104.2Q154.9 107.95 153.2 111.5L152 111.7Q150.15 111.6 149.2 110Q137.05 76.75 102 82.75Q98.25 83.35 95.4 86.15M256.45,258Q258.85 279.2 257.85 302.3Q255.3 362 252.3 421.45Q252.1 425.5 249.45 428.2Q247.9 426.8 246.85 425.25Q247.45 429.6 244.45 432.7Q232.05 407.4 220.75 379.3Q203.15 335.3 188.35 290.1Q188.5 304.55 187.3 319.3Q183.2 370.4 178.75 421.25Q178.4 425.5 175.7 428.7Q172.05 428.3 170.45 424.45Q177.2 365.95 181.3 306.85Q182.55 289 181.65 270.75L181.65 269.25L181.35 268.3Q180.05 263.95 183.2 262L183.6 262.85Q184.7 261.2 186.45 260L187.55 271.65Q209.3 320.1 230.35 370Q239.6 392.05 244.8 415.15Q245.1 413.7 245.7 412.2Q249 353.2 248.7 293.75Q248.6 273.6 256.45 258" />
</g>
</svg>
