<?xml version="1.0" encoding="utf-8"?>
<svg version="1.1" id="Layer_1"
xmlns="http://www.w3.org/2000/svg"
xmlns:xlink="http://www.w3.org/1999/xlink"


xml:space="preserve">
q-6.65 35.55 -6.4 73.4q0.3 52.35 -0.4 104.45q-5.5 -1.55 -11.2 -1.45q-25.4 -1.4 -49.4 3.35q0.55 -59.9 2.9 -119.3q0.45 -11.2 1.9 -22.25q2.6 -19.55 0.05 -36.95q-1.95 -0.1 -2.25 1.85q-7.55 43.1 -8.05 87.65q-0.6 59.7 -1.7 119.25q-1.15 60 -5.65 119.25q-1.15 14.95 -3 29.75q-3 23.4 2.65 44.45q2.65 -0.45 3.35 -3.2q2.65 -11.1 6.6 -21.65q1.65 -41.5 4 -82.95q2.85 -50.55 3.7 -101.4q30.75 2.4 60.5 -0.2q-1 59.7 0.05 119.2q0.55 30.1 -2.15 59.85q-1.55 16.85 4.15 29.9q0.85 -0.6 1 -1.35q5.35 -31.95 4.8 -65.15q-1 -59.6 -1.3 -119.2q0.15 -59.6 2.3 -119.25q1.1 -30.4 -1.3 -59.25q6.5 -16.7 -12.05 -20.45q-29.55 37.1 -28.7 89.25q0.4 25.05 -1.3 50.05q-1.7 24.9 15.5 42.95q35.6 -2.5 31.6 -32.8q-0.15 -1.05 -1.1 -1.95q-10.95 22.35 -32.7 17.7q-14.85 -66.05 6.75 -132.1q3.6 -11.1 10.2 -20.6q1.3 59.8 0.15 119.25q-0.75 39.4 -20.5 72.9q-18.6 31.5 -53.6 21.3q-4.05 -15.75 -4.95 -32.3q-2.85 -51.75 -2.95 -103.4q-0.1 -59.9 3.5 -119.2q3.6 -59.65 -1.85 -118.55q-3 41.15 -4.45 83.15q-2.05 59.55 -2.5 119.3q-0.25 30.3 -1.3 59.95q-2.2 59.5 6.85 116.95q0.75 4.9 4.45 7.7q24.15 18.55 46.25 -3.1q37.9 -37.05 39 -92.3q1.15 -59.4 0.4 -119.2q-0.2 -11.25 1.55 -22.25q2.9 -17.85 -5.5 -29.25q-5.55 17.8 -5.05 38.25q-2.3 5.6 -2.45 12.8q-0.2 11.25 -1.95 22.2q-2.8 17.45 3.5 29.3q1.15 -0.9 1.35 -2.3q4.05 -32.55 4.7 -65.95q0.75 -42.35 -0.35 -83.9q12.6 57.4 22.25 115.5q2.75 16.4 9.15 28q1.15 -0.9 1.15 -2.25q2.3 -28.75 3.95 -58.45q3.35 -59.6 3.8 -117.8q-6.85 23.65 -8.05 51.2q-2.05 47.45 -3.65 94.05q-2.25 -16.05 -6 -31.95q-13.7 -57.8 -25.3 -115.3q-0.7 0.2 -1.2 0.55q-10.9 -3.25 -22.4 -2.85q-21.75 15.65 -17.65 42.4q3.3 21.45 20.05 35.55q19.7 16.6 31.1 39.75q9.8 20.05 5.6 42.05q-2.15 11.15 -10.3 19.1q-11.6 11.3 -27.6 13.7q-27.25 3.95 -46.55 -15.25q-2.95 -2.95 -5.4 -6.35q6.05 18.1 25.05 25.55q14.85 5.9 30.7 4.1q16.65 -1.55 27.8 -13.95q12.35 -13.6 17.25 -31.35q4.4 -16.05 0.8 -32.2q-5.9 -26.75 -25 -46.1q-18.5 -18.75 -30.55 -40.85q-10.95 -20.1 8.45 -30.9q26.2 0.25 47.6 14.85q-4.1 -20.75 -27.6 -27.9q-2.2 26.25 -6.95 52.4q-0.5 2.6 -0.45 5q0.2 6.95 3.9 12.85q5.35 26.75 13.85 52.6q-2.55 -21.1 -8.95 -42q-4.5 -14.7 -10.2 -28.95q5.65 -5.3 9.45 -12.3q2.4 -4.45 4.4 -9.15q8.65 -20.05 8.9 -41.9q0.05 -6.1 -1.85 -11.95q-3.85 -12.1 -14.75 -18.35q-4.55 -2.65 -9.55 -4.2q-36.6 34.45 -33.95 88.55q1.15 22.8 0.85 45.95q-0.25 18.05 10 32.8q2.7 3.85 6.25 7.25q19.15 -8.55 25.7 -28.6q2.65 -8.15 -3 -14.2q0.65 14 -16.4 18.65q-5.45 1.5 -10.65 -0.8q-22.35 -59.85 -0.55 -123.35q4.45 -12.95 15.25 -20.65q4.95 -3.55 10.95 -2.25q1.6 4.5 4.7 8.3q0.8 0.95 2.05 0.7q3.3 -20.05 -16.3 -23.9q6.55 7.75 5.75 18.7q-2.75 37.8 -33 54q2.8 -41.65 0.9 -83q15.8 -2.25 26.35 10.3q6.1 6.05 10.15 11.3q2.15 -2.55 1.7 -5.95q-4.15 -29.8 -37.4 -30.3q-4.65 0.1 -8.35 3q-25.7 20.35 -21.5 55.55q4.35 36.05 21.85 67.45q21.7 52.45 42.2 105.35q21.95 56.6 -1.1 111.65q-6.15 14.55 -16.6 26.35q-28.15 31.7 -61.95 3.75q-5.65 -4.6 -7.45 -11.4q-3.75 -13.85 -10.6 -24.25q-7.85 30.05 16.35 52.85q19.65 18.55 45.6 11.65q5.7 -1.5 9.8 -5.5q36.95 -35.8 42.25 -88q2.2 -21.75 -1.85 -43.1q-10.85 -56.6 -35.2 -108.9q-20.2 -43.45 -33.8 -88.6q-9 -29.85 11.85 -50.35q7.2 -1.35 14 -1.15q11.85 0.4 20.05 8.6q-6.25 23.6 -7.85 50.95q-3.4 59.25 -14 117.5q-3 16.55 2.85 28.75q29.55 5.7 60.2 2.5q0.75 -1 1.15 -2.2q1.8 -5.85 -1.15 -11.3q-2.35 -0.3 -3.1 -1.5q-25.1 0.35 -50.9 3.1q5.85 -33.05 9.65 -67.05q6.6 -59 6.9 -117.05<g id="1874" transform="matrix(1, 0, 0, 1, -17.65, 0)">
<path style="fill:#000000;fill-opacity:1" d="M543.45,66.75Q545.85 95.6 544.75 126Q542.6 185.65 542.45 245.25L542.45 282.75Q542.75 342.35 543.75 401.95Q544.3 435.15 538.95 467.1Q538.8 467.85 537.95 468.45Q532.25 455.4 533.8 438.55Q536.5 408.8 535.95 378.7Q534.9 319.2 535.9 259.5L535.9 258.9Q506.15 261.5 475.4 259.1Q474.55 309.95 471.7 360.5Q469.35 401.95 467.7 443.45L472.3 435.35L472.4 440.1Q468.45 450.65 465.8 461.75Q465.1 464.5 462.45 464.95Q456.8 443.9 459.8 420.5Q461.65 405.7 462.8 390.75Q467.3 331.5 468.45 271.5Q469.55 211.95 470.15 152.25Q470.65 107.7 478.2 64.6Q478.5 62.65 480.45 62.75Q483 80.15 480.4 99.7Q478.95 110.75 478.5 121.95Q476.15 181.35 475.6 241.25L475.55 246.6Q499.55 241.85 524.95 243.25Q530.65 243.15 536.15 244.7Q536.85 192.6 536.55 140.25Q536.3 102.4 542.95 66.85L543.45 66.75M446.2,76.5Q439.6 86 436 97.1Q414.4 163.15 429.25 229.2Q451 233.85 461.95 211.5Q462.9 212.4 463.05 213.45Q467.05 243.75 431.45 246.25Q414.25 228.2 415.95 203.3Q417.65 178.3 417.25 153.25Q416.4 101.1 445.95 64Q464.5 67.75 458 84.45L455.7 80.75L449.7 76.25L446.2 76.5M343.95,60Q352.35 71.4 349.45 89.25Q347.7 100.25 347.9 111.5L349.65 230Q350.4 289.8 349.25 349.2Q348.15 404.45 310.25 441.5Q288.15 463.15 264 444.6Q260.3 441.8 259.55 436.9Q250.5 379.45 252.7 319.95Q253.75 290.3 254 260Q254.45 200.25 256.5 140.7Q257.95 98.7 260.95 57.55L261.45 57.5Q266.9 116.4 263.3 176.05Q259.7 235.35 259.8 295.25Q259.9 346.9 262.75 398.65Q263.65 415.2 267.7 430.95Q302.7 441.15 321.3 409.65Q341.05 376.15 341.8 336.75Q342.95 277.3 341.65 217.5L338.9 98.25Q338.4 77.8 343.95 60M367.45,62.5Q379.05 120 392.75 177.8Q396.5 193.7 398.75 209.75Q400.35 163.15 402.4 115.7Q403.6 88.15 410.45 64.5Q410 122.7 406.65 182.3Q405 212 402.7 240.75L401.6 240.85L401.85 247.75Q401.85 249.1 400.7 250Q394.3 238.4 391.55 222Q381.9 163.9 369.3 106.5L367.4 96.85Q368.5 138.4 367.75 180.75Q367.1 214.15 363.05 246.7Q362.85 248.1 361.7 249Q355.4 237.15 358.2 219.7Q359.95 208.75 360.15 197.5L362.15 78.25Q362.3 71.05 364.6 65.45L365.35 63.9L366.2 62.25L366.25 63.05Q366.75 62.7 367.45 62.5M436.95,286L434.3 284.1Q412.9 269.5 386.7 269.25Q367.3 280.05 378.25 300.15Q390.3 322.25 408.8 341Q427.9 360.35 433.8 387.1Q437.4 403.25 433 419.3Q428.1 437.05 415.75 450.65Q404.6 463.05 387.95 464.6Q372.1 466.4 357.25 460.5Q338.25 453.05 332.2 434.95L333.6 433.35L336.2 426.2Q338.65 429.6 341.6 432.55Q360.9 451.75 388.15 447.8Q404.15 445.4 415.75 434.1Q423.9 426.15 426.05 415Q430.25 393 420.45 372.95Q409.05 349.8 389.35 333.2Q372.6 319.1 369.3 297.65Q365.2 270.9 386.95 255.25Q398.45 254.85 409.35 258.1Q432.85 265.25 436.95 286M198.45,62.5L202.95 60.3L204.55 60.65L207.95 59.25L214.85 61.1Q219.85 62.65 224.4 65.3Q235.3 71.55 239.15 83.65Q241.05 89.5 241 95.6Q240.75 117.45 232.1 137.5Q230.1 142.2 227.7 146.65Q223.9 153.65 218.25 158.95L222.05 168.55Q227.75 182.8 232.25 197.5Q238.65 218.4 241.2 239.5L232.9 233.55L234.7 231.5L228.9 214.3Q220.4 188.45 215.05 161.7L201.8 168.8L190.7 241Q187 235.1 186.8 228.15Q186.75 225.75 187.25 223.15Q192 197 194.2 170.75L192 170.35L192.45 159L195.35 157.9L199.45 72.25L198.45 62.5M167.65,57.35Q187.25 61.2 183.95 81.25Q182.7 81.5 181.9 80.55Q178.8 76.75 177.2 72.25L172.6 71Q166.6 69.7 161.65 73.25Q150.85 80.95 146.4 93.9Q124.6 157.4 146.95 217.25Q152.15 219.55 157.6 218.05Q174.65 213.4 174 199.4L174.5 196.75L177.15 194.95L178.7 191.25L179.65 192.2Q185.3 198.25 182.65 206.4Q176.1 226.45 156.95 235L150.45 233.75L148.1 231.55Q144.55 228.15 141.85 224.3Q131.6 209.55 131.85 191.5Q132.15 168.35 131 145.55Q128.35 91.45 164.95 57L167.65 57.35M203.8,71.35Q205.7 112.7 202.9 154.35Q233.15 138.15 235.9 100.35Q236.7 89.4 230.15 81.65Q219.6 69.1 203.8 71.35M94.5,65.35Q87.7 65.15 80.5 66.5Q59.65 87 68.65 116.85Q82.25 162 102.45 205.45Q126.8 257.75 137.65 314.35Q141.7 335.7 139.5 357.45Q134.2 409.65 97.25 445.45Q93.15 449.45 87.45 450.95Q61.5 457.85 41.85 439.3Q17.65 416.5 25.5 386.45Q32.35 396.85 36.1 410.7Q37.9 417.5 43.55 422.1Q77.35 450.05 105.5 418.35Q115.95 406.55 122.1 392Q145.15 336.95 123.2 280.35Q102.7 227.45 81 175Q63.5 143.6 59.15 107.55Q54.95 72.35 80.65 52Q84.35 49.1 89 49Q122.25 49.5 126.4 79.3Q126.85 82.7 124.7 85.25Q120.65 80 114.55 73.95Q106.35 65.75 94.5 65.35M157.55,372.8Q153.75 406.8 147.9 439.85Q173.7 437.1 198.8 436.75L201.1 437.4L203.1 437.7Q203.85 438.9 206.2 439.2Q209.15 444.65 207.35 450.5Q206.95 451.7 206.2 452.7Q175.55 455.9 146 450.2L145.45 452.95Q139.6 440.75 142.6 424.2Q153.2 365.95 156.6 306.7Q158.2 279.35 164.45 255.75Q164.15 313.8 157.55 372.8" />
</g>
</svg>
