<?xml version="1.0" encoding="utf-8"?>
<svg version="1.1" id="Layer_1"
xmlns="http://www.w3.org/2000/svg"
xmlns:xlink="http://www.w3.org/1999/xlink"


xml:space="preserve">
q3.05 37.2 12.45 74.25q14.5 57.35 25.2 113.8q1.35 -0.35 1.8 -1.45q2.85 -0.2 3.7 -3.2q14.1 -49.2 23.35 -99.65q5.3 -29 12.95 -57.4q4.2 -15.6 2.25 -29.7q-5.05 2.75 -6.45 9.05q-13.1 57.55 -23.9 115.8q-2 10.85 -6.1 21q-6 14.8 -6.6 29.3q-2.05 -31.3 -9.3 -62.2q-13.6 -57.8 -28.65 -113.95q-1.25 -0.25 -1.15 0.65q-14.4 9.2 -12.75 26q3.6 36.7 32.45 62.8q14.8 13.35 21.85 32.6q8.55 23.15 -4.2 43q-4.85 7.55 -13.4 10.05q-10.2 2.9 -20.6 0.85q-15 -2.65 -22.75 -15.5q-4.4 -7.25 -5.1 -15.6q3.35 -6.35 3.4 -13.5q0.05 -3.9 -2.4 -6.75q-12.95 17.55 -4.1 37.6q14 31.9 49.2 27.85q21.6 -2.65 26.65 -25.1q5.25 -23.25 -2.1 -46.55q-7.95 -25.05 -24.4 -45.2q-12.5 -15.25 -24 -31.15q-11 -15.2 3.75 -28.4q22.9 -2.8 37.6 14.2q1.25 -17.15 -16.1 -25.35q-11.55 -5.5 -24.6 -3.9q-14.2 18.85 -38.9 15.7q-9.15 -1.15 -10 -10.2q-3.1 -34.25 -2.25 -68.2q-6.15 16.45 -6.8 36.75q-0.6 19.75 3.85 38.65q6.65 27.95 36.1 18q14.85 -5 22.05 -18.55q18.45 -34.6 4.8 -72.85q-5.9 9.2 -2.15 22.45q6.05 21.4 -6.7 38.25<g id="1865" transform="matrix(1, 0, 0, 1, -135.55, 0)">
<path style="fill:#000000;fill-opacity:1" d="M342.45,181.75Q357.5 237.9 371.1 295.7Q378.35 326.6 380.4 357.9Q381 343.4 387 328.6Q391.1 318.45 393.1 307.6Q403.9 249.35 417 191.8Q418.4 185.5 423.45 182.75Q425.4 196.85 421.2 212.45Q413.55 240.85 408.25 269.85Q399 320.3 384.9 369.5Q384.05 372.5 381.2 372.7L380.75 369Q380.3 370.1 378.95 370.45Q368.25 314 353.75 256.65Q344.35 219.6 341.3 182.4Q341.2 181.5 342.45 181.75M196.6,186.4Q213.95 194.6 212.7 211.75L211.1 209.7Q196.4 192.7 173.5 195.5Q158.75 208.7 169.75 223.9Q181.25 239.8 193.75 255.05Q210.2 275.2 218.15 300.25Q225.5 323.55 220.25 346.8Q215.2 369.25 193.6 371.9Q158.4 375.95 144.4 344.05Q135.55 324 148.5 306.45Q150.95 309.3 150.9 313.2Q150.85 320.35 147.5 326.7Q148.2 335.05 152.6 342.3Q160.35 355.15 175.35 357.8Q185.75 359.85 195.95 356.95Q204.5 354.45 209.35 346.9Q222.1 327.05 213.55 303.9Q206.5 284.65 191.7 271.3Q162.85 245.2 159.25 208.5Q157.6 191.7 172 182.5Q185.05 180.9 196.6 186.4M309.3,300.9Q305.55 287.65 311.45 278.45Q325.1 316.7 306.65 351.3Q299.45 364.85 284.6 369.85Q255.15 379.8 248.5 351.85Q244.05 332.95 244.65 313.2Q245.3 292.9 251.45 276.45Q250.6 310.4 253.7 344.65Q254.55 353.7 263.7 354.85Q288.4 358 302.6 339.15Q315.35 322.3 309.3 300.9" />
</g>
</svg>
