<?xml version="1.0" encoding="utf-8"?>
<svg version="1.1" id="Layer_1"
xmlns="http://www.w3.org/2000/svg"
xmlns:xlink="http://www.w3.org/1999/xlink"


xml:space="preserve">
q-2.85 3.35 -3.5 8.7q-3.75 31.5 -3.9 63.8q-0.1 30.1 -1.15 60.05q-2 59.55 -2.3 119.15q-0.3 59.6 0.15 119.25q0.2 26.9 -0.75 53.6q-6.25 -58.8 -14.75 -117.25q-6.35 -44 -15.4 -87.3q-10.65 -51.15 -19.6 -101.85q-0.75 0.1 -0.75 0.25q-0.15 4.15 -0.15 8.3q-2.95 6.5 -3.25 15.15q-2.05 59.25 -1.9 118.55q0.15 59.45 -0.1 119.2q-0.25 59.85 0.6 119.25q0.85 60.15 -5.6 119.2q-1.8 16.6 3.65 29.8q1.75 -0.3 2 -2q2.05 -12.45 2.8 -25.4q2.35 -40.85 3 -81.85q0.9 -59.6 0.3 -119.25q-0.55 -59.8 -0.25 -119.2q0.25 -59.75 2.1 -119.25q10.5 51.2 18.4 102.75q8.9 58.4 16.75 116.95q6.25 48.2 5 97.05q-0.4 4.45 -0.25 8.55q-0.8 13.75 6.3 20.85q3.15 -5.4 3.9 -11.9q0.7 -6.1 0.5 -12.1q2.55 -35.85 2.1 -72.4q-0.65 -59.75 0.1 -119.25q0.85 -59.6 2.25 -119.25q0.35 -15.1 2.65 -29.75q2.1 -12.9 -2.25 -22.5q-10.35 44.8 -16.55 91.25q-7.85 58.3 -14.4 116.95q-6.6 59.1 -15.7 117.75q-2.25 14.6 -5.65 28.9q-7 29.75 -5.1 58.9q1.4 0 1.85 -0.65q5.3 -7.85 6.9 -17.9q9.4 -58.45 16.65 -117.25q7.25 -58.8 14.8 -117.6q17.95 1.25 36.1 -0.45q2.35 28.5 4.35 57.1q4.15 59.5 12.1 118.4q3.95 29.45 3.35 59.35q-0.3 14.05 7.3 21.5q3.5 -29.65 -0.6 -60.75q-7.7 -58.35 -12.3 -117.1q-4.65 -59.1 -10.4 -117.75q-5.85 -59.05 -10.6 -118.3q-4.35 -54.4 -7.15 -108.65q-0.05 -5.75 -0.45 -11.4q-13.45 1.35 -26.7 3.8q4.15 -20.75 15.15 -38.95q6.05 -10.05 13.7 -18.75q10.35 -1.3 20.65 1.15q9.3 2.2 14.35 10.35q1.5 2.4 4.25 3q1.55 -2.45 0.85 -5.05q-2.65 -9.45 -10.95 -15.4q-10.2 -7.3 -22.45 -4.4q-22.9 5.7 -30.4 30.7q-33.45 111.8 -9.55 226.9q4.9 23.65 23.65 39.7q7.9 6.7 17.7 8.8q4.7 -1.5 8.45 -4.85q3.65 -3.2 6.8 -6.95q2.9 -4.25 5.1 -8.9q4.1 -1.35 5.1 -13.15q2.15 -24.85 0.6 -49.6q-0.25 -4.2 -2.65 -4.9q-2.05 0.25 -3.9 -1.75q-4.9 -5.15 -11.85 -6.8q-6.15 -1.6 -12.55 -1.25q-6.25 11.55 -16.65 19.65q-5.8 -4.05 -11.5 -8.55q-13 -10.3 -18 -26.35q-11.2 -36.05 -11.3 -74q-0.05 -36.65 3.2 -73.35q1.65 -19.55 5.5 -39q-3.65 15.95 -20.25 17.25q10.1 -5.2 19.3 1.9q-6.6 29.65 -7.9 60q-0.3 7.7 1.25 12.85q0.65 25.6 15.65 46.2q-3.7 -24.45 -12.6 -47.65q11.45 -8.05 12.8 -22.15q0.75 -7.7 -5.75 -11.85q-5.7 -3.7 -12.45 -4.35q4.35 -10.85 12.5 -19.5q17.8 -18.8 43.9 -14.8q-3.35 -23.15 -28.75 -16q-22.35 6.3 -32.6 26.65q-8.6 17.1 -12.05 35.9q-3.85 20.9 -2.3 41.9q1.6 21.45 12.7 39.5q8 13 24.3 11.75q24.35 -1.2 32.7 -22.55q1.8 -4.6 1.25 -9.65q-22.65 25.45 -51.7 13.85q-7.55 -3.05 -10.85 -11.15q-9.15 -22.4 -6.15 -47.1q2.15 -17.8 8.8 -34.55q-0.8 0.4 -1.45 1.05q-0.45 1.45 -0.65 3q-0.15 1.75 0.15 3.4q-1.75 8.5 -2 18.1q-1.4 59.35 0.9 118.5q1.2 29.45 -2.5 59q-1.75 13.6 4.35 21.7q5.5 -32.55 5.2 -66.75q32.05 -1.45 38.05 -33.1q4.15 -22.05 1.3 -44.25q-3.6 -28.7 -31.55 -29.55q-5.3 1.5 -10.7 4.05q8.7 20.75 0.65 41.5q-8.55 21.9 -32.6 23.8q23.8 -10.25 34.25 14.55q4 -21.8 -7.85 -41.5q-21.35 -35.55 -63.9 -38.25q-11.4 4 -21.5 11.6q-7.05 5.25 -10.45 13.05q-16.5 37.75 -5.65 79.5q1.55 6.05 4.25 11.4q29.4 58.45 68.95 110.85q18.2 24.1 31.2 50.9q23.7 48.9 35.35 101.45q11.55 51.9 -7.65 100.85q-19 48.45 -68.25 65.65q-21.5 7.5 -40.15 -4.6q-39.75 -25.7 -47.9 -72.25q-7 -39.8 6.55 -77.2q3.45 -2.6 4.1 -6.7q0.65 -4.25 -0.45 -8.3q-0.5 -1.8 -1.9 -3q-9.7 10.7 -12.6 26.35q-8 43.45 0.75 86.75q2.1 10.45 6.1 20.25q16.5 40.65 57.6 55.05q10.35 3.65 20.9 0.8q51.25 -13.65 74.25 -61.15q26.1 -53.95 15.65 -114.8q-9.05 -53 -30.65 -102.65q-20.1 -46.25 -50.6 -86.5q-23.2 -31.2 -26.95 -69.1q-2.9 -28.95 15.7 -48.6q16 -16.9 38.7 -10.85q37.45 9.95 48.65 45.05q3.45 10.75 7.05 18.25q-1.5 8.1 1.8 15.7q5.75 16.95 15.5 34.8q1.3 2.4 3 4.65q-0.6 -19.3 -9.95 -36.1q4.95 -2.25 7.6 -6.95q2.4 -4.2 3.55 -8.85q2.55 -10.7 -2.1 -20.45q-4.7 -9.8 -15.7 -11.75q7.1 5.65 5.5 14.25q-3.1 16.55 -21.65 15.3q6.15 -31.25 4 -63q-10.85 36.1 -7.5 75.75q2.75 -4.75 0.9 -9.7<g id="1886" transform="matrix(1, 0, 0, 1, -6.9, 4.75)">
<path style="fill:#000000;fill-opacity:1" d="M460.2,41Q457.9 55.65 457.55 70.75Q456.15 130.4 455.3 190L453.65 309.95Q452.9 369.45 453.55 429.2Q454 465.75 451.45 501.6L452.35 523.45Q452.55 529.45 451.85 535.55Q451.1 542.05 447.95 547.45Q440.85 540.35 441.65 526.6L442.15 516.4Q442 512.3 442.4 507.85L442.45 507.3Q443.7 458.45 437.45 410.25L422.05 293.55Q414.2 235 405.3 176.6Q397.4 125.05 386.9 73.85L385.2 64.65L384.9 76.25Q383.05 135.75 382.8 195.5Q382.5 254.9 383.05 314.7Q383.65 374.35 382.75 433.95Q382.1 474.95 379.75 515.8Q379 528.75 376.95 541.2Q376.7 542.9 374.95 543.2Q369.5 530 371.3 513.4Q377.75 454.35 376.9 394.2Q376.05 334.8 376.3 274.95Q376.55 215.2 376.4 155.75Q376.25 96.45 378.3 37.2Q378.6 28.55 381.55 22.05Q381.55 17.9 381.7 13.75Q381.7 13.6 382.45 13.5L383.35 18.7L384.45 17L384.9 27.4Q393.85 78.1 404.5 129.25Q413.55 172.55 419.9 216.55Q428.4 275 434.65 333.8L446.5 443.05Q447.45 416.35 447.25 389.45Q446.8 329.8 447.1 270.2Q447.4 210.6 449.4 151.05Q450.45 121.1 450.55 91Q450.7 58.7 454.45 27.2Q455.1 21.85 457.95 18.5Q462.3 28.1 460.2 41M325.9,22.65Q328.7 76.9 333.05 131.3Q337.8 190.55 343.65 249.6Q349.4 308.25 354.05 367.35Q358.65 426.1 366.35 484.45Q370.45 515.55 366.95 545.2Q359.35 537.75 359.65 523.7Q360.25 493.8 356.3 464.35Q348.35 405.45 344.2 345.95Q342.2 317.35 339.85 288.85L339.45 289.2Q321.3 290.9 303.35 289.65L303.85 290.1L304.2 290.7L302.2 289.55L294.75 288.85L294.65 289.55Q287.1 348.35 279.85 407.15Q272.6 465.95 263.2 524.4Q261.6 534.45 256.3 542.3Q255.85 542.95 254.45 542.95Q252.55 513.8 259.55 484.05Q262.95 469.75 265.2 455.15Q274.3 396.5 280.9 337.4L294 219.55Q300.55 160.9 308.4 102.6Q314.6 56.15 324.95 11.35L325.45 11.25Q325.85 16.9 325.9 22.65M338.45,272.65L331.8 198.2L323.15 56.65L296.35 276.35Q309.6 273.9 323.05 272.55L331.95 272.15L338.45 272.65M467.6,346.7Q464.35 383.4 464.4 420.05Q464.5 458 475.7 494.05Q480.7 510.1 493.7 520.4Q499.4 524.9 505.2 528.95L511.95 529.7L514.5 527.75Q524.9 519.65 531.15 508.1L538.2 495.2L537.35 490.15L511.45 481.95L512.55 473.15L513.95 472.75Q520.35 472.4 526.5 474Q533.45 475.65 538.35 480.8Q540.2 482.8 542.25 482.55Q544.65 483.25 544.9 487.45Q546.45 512.2 544.3 537.05Q543.3 548.85 539.2 550.2L538.6 518.25Q536.4 522.9 533.5 527.15L528.35 533.75Q525.2 537.5 521.55 540.7Q517.8 544.05 513.1 545.55L510.05 545.75Q500.25 543.65 492.35 536.95Q473.6 520.9 468.7 497.25Q444.8 382.15 478.25 270.35Q485.75 245.35 508.65 239.65Q520.9 236.75 531.1 244.05Q539.4 250 542.05 259.45Q542.75 262.05 541.2 264.5Q538.45 263.9 536.95 261.5Q531.9 253.35 522.6 251.15Q512.3 248.7 501.95 250Q494.3 258.7 488.25 268.75Q477.25 286.95 473.1 307.7Q469.25 327.15 467.6 346.7M263.9,16.35L261.9 38.3L264.05 38.3Q280.65 37 284.3 21.05L283.2 18.25Q274 11.15 263.9 16.35M282.4,10.6Q288.9 14.75 288.15 22.45Q286.8 36.55 275.35 44.6Q284.25 67.8 287.95 92.25Q272.95 71.65 272.3 46.05L260.8 47.35L254.55 84.1Q253 78.95 253.3 71.25Q254.6 40.9 261.2 11.25L269.95 6.25Q276.7 6.9 282.4 10.6M169.75,86.85Q166.75 111.55 175.9 133.95Q179.2 142.05 186.75 145.1Q215.8 156.7 238.45 131.25Q239 136.3 237.2 140.9Q228.85 162.25 204.5 163.45Q188.2 164.7 180.2 151.7Q169.1 133.65 167.5 112.2Q165.95 91.2 169.8 70.3Q173.25 51.5 181.85 34.4Q192.1 14.05 214.45 7.75Q239.85 0.6 243.2 23.75L234.95 18Q208.85 14 191.05 32.8Q182.9 41.45 178.55 52.3Q171.9 69.05 169.75 86.85M207.25,169.3Q212.65 166.75 217.95 165.25Q245.9 166.1 249.5 194.8Q252.35 217 248.2 239.05Q242.2 270.7 210.15 272.15L210.4 286.95L210.9 327.45Q211.2 361.65 205.7 394.2Q199.6 386.1 201.35 372.5Q205.05 342.95 203.85 313.5Q201.55 254.35 202.95 195Q203.2 185.4 204.95 176.9Q204.65 175.25 204.8 173.5Q205 171.95 205.45 170.5Q206.1 169.85 206.9 169.45L207.2 168.5L207.25 169.3M207.6,180.15L209.9 260Q233.95 258.1 242.5 236.2Q250.55 215.45 241.85 194.7Q231.4 169.9 207.6 180.15M145.7,56.75Q134.5 21.65 97.05 11.7Q74.35 5.65 58.35 22.55Q39.75 42.2 42.65 71.15Q46.4 109.05 69.6 140.25L108.9 192.55Q139.4 232.8 159.5 279.05Q181.1 328.7 190.15 381.7Q200.6 442.55 174.5 496.5Q151.5 544 100.25 557.65Q89.7 560.5 79.35 556.85Q38.25 542.45 21.75 501.8Q17.75 492 15.65 481.55Q6.9 438.25 14.9 394.8Q17.8 379.15 27.5 368.45Q28.9 369.65 29.4 371.45Q30.5 375.5 29.85 379.75Q29.2 383.85 25.75 386.45Q12.2 423.85 19.2 463.65Q27.35 510.2 67.1 535.9Q85.75 548 107.25 540.5Q156.5 523.3 175.5 474.85Q194.7 425.9 183.15 374Q171.5 321.45 147.8 272.55Q134.8 245.75 116.6 221.65Q77.05 169.25 47.65 110.8Q44.95 105.45 43.4 99.4Q32.55 57.65 49.05 19.9Q52.45 12.1 59.5 6.85Q69.6 -0.75 81 -4.75Q123.55 -2.05 144.9 33.5Q156.75 53.2 152.75 75Q149.15 67.5 145.7 56.75M239.2,310.8L245.95 307.45Q256.95 309.4 261.65 319.2Q266.3 328.95 263.75 339.65Q262.6 344.3 260.2 348.5Q257.55 353.2 252.6 355.45L255.4 360.4Q264.75 377.2 265.35 396.5Q263.65 394.25 262.35 391.85Q252.6 374 246.85 357.05L235.8 355.8L228.8 395.85L227.7 393.9Q224.4 386.3 225.9 378.2L237.95 311.95L239 310.95L239.2 310.8M236.8,347.25Q255.35 348.5 258.45 331.95Q260.05 323.35 252.95 317.7L238.95 318.55L236.8 347.25M257.9,472.65L207.7 472.95Q204.35 433.3 215.2 397.2Q217.35 428.95 211.2 460.2L258.2 461.45L258.8 462.95Q260.65 467.9 257.9 472.65" />
</g>
</svg>
