<?xml version="1.0" encoding="utf-8"?>
<svg version="1.1" id="Layer_1"
xmlns="http://www.w3.org/2000/svg"
xmlns:xlink="http://www.w3.org/1999/xlink"


xml:space="preserve">
q-15.3 44.4 -33.95 88q-9.4 22 -17.2 44.85q-15.45 45.45 -32.5 90.1q-6.05 16 -13.65 31.15q-0.45 11.55 -0.75 23.15q-1.25 48.5 -4.5 96.6q-2.75 39.9 -3.3 79.5q-0.1 6.85 1.3 9.55q2.3 5.25 -1.45 14.5q-6.75 -22.25 -4.5 -47.75q4.25 -48.15 6.2 -96.55q-4.65 -6.2 0.55 -15q1.8 -48.45 5.5 -96.6q3.6 -47.65 1.85 -96q-0.9 -25.3 -1.25 -50.8q-0.05 -4.1 2.15 -6.3q3.65 47.75 2.9 96.6q-0.8 48.45 -4.05 96.65q-2.05 29.6 -3.25 59.25q4.85 -8.1 8.4 -16.9q17.65 -43.45 32.15 -88.15q15.2 -46.8 35.9 -91.25q8.4 -18.05 14.05 -36.9q1.95 -6.4 5.85 -11.15q2.75 0.35 2.2 3.25q0.3 16.7 -5.8 34.1q-6.1 17.25 -9.4 35.1q-3.4 18.3 -10.3 35.35q-21.1 -42.15 -34.8 -88q-0.75 -2.55 -1.85 -4.95q-7.2 43.7 -16.1 87.2q-0.65 3.2 -2.45 4.95q6.5 -44.2 13.45 -88.75q1.4 -8.85 4.45 -15.2q15.2 45.25 35.25 88.6q10.4 -44.65 22.55 -88.4q0.8 -2.85 3.15 -3.5q-5 10.4 -13 13.45q6.55 3.65 6.15 10.8q-13.65 -14.35 -24.5 -32.25q-5.35 0.9 -11.8 -0.95q-3.05 20.2 -7.45 40.3q-4.05 -8.6 -0.95 -20.9q2.8 -10.9 5.05 -21.95q-2.25 -2.2 -0.65 -6.3q0.85 0 1.25 0.4q2.75 -14.55 4.55 -29.3q0.4 -3.2 1.7 -5.55q-1.75 -0.75 -3.05 -1.7q0.75 -4.15 6.95 -1.65q20.8 4.05 22.5 22.15q0.45 5.15 -1.8 9.9q-3.7 -0.4 -6.45 -1.35q-1.45 18.35 -4 36.65q6.05 2.9 12.05 0q16.4 -9.1 13.15 -24.9q-0.25 -1.3 -1.65 -2.2q18.2 -2.65 26.3 12.6q0.2 1.9 1 3.65q-1.3 -0.1 -2.3 -2.35q-2.9 -6.4 -9.3 -9.7q-35.4 -6.15 -52.4 25.4q-3.65 6.9 -5.3 14.8q-8.9 42.65 -11.85 86.25q-3.2 47.6 -2.75 95.95q0.45 49.3 10.9 96.85q4.4 19.8 18.65 33.7q7.3 7.15 17.7 8.75q16.9 2.6 28.1 -8.1q7.45 -7.15 9.1 -17.5q1.5 -9.25 5.15 -17.5q3.2 10.35 -0.4 23.75q-8.25 30.9 -40.95 26.95q-9.25 -1.15 -17.95 -4.85q-19.8 -20.4 -24.5 -48.7q-4.55 -27.75 -6.15 -55.95q-2.6 -47.5 -2.15 -95.3q0.45 -49.25 7.45 -97.45q3.95 -26.8 16.25 -49.85q11.35 -21.3 34.8 -25.15q8.85 46.8 19.7 93.7q10.85 46.8 21.1 93.7q3.15 14.8 7.45 28.55q2.75 5.5 -1.4 12.2q-4.8 -9.8 -7.65 -22.95q-10.1 -46.65 -19.45 -93.4q-7.1 -35.45 -15.3 -70.7q-10.95 -46.75 -20.05 -93.4q-1.85 -9.5 0.05 -17.15q2.55 45.65 11.4 90.2q9.3 46.95 19.55 93.85q1 1.35 1.1 3.05q9.95 46.75 19.5 93.6q8.65 42.4 13.3 85.15q0.1 1.2 -1 1.6q-10.85 -46.85 -19.6 -95.1q-8.55 -47.05 -18.25 -93.75q-9.3 -44.7 -18.05 -89.5q-41.5 2.15 -79.6 17.7q-2.05 0.85 -2.75 -0.2q-7.6 44.1 -16.6 87.95q-2.5 12.15 -5.5 24.2q-11.6 46.75 -19.5 93.6q-2.55 15.15 -3.8 30.5q-1.35 16 -7.15 29.7q-2.45 -10.95 -0.1 -23.95q8.15 -47.65 20.7 -94.9q12.5 -46.85 20.1 -94.55q3.85 -23.9 6.9 -47.95q6.1 -47.2 12.35 -94.3q6.3 -47.4 14.25 -94.15q3.7 -21.75 9.8 -41.6q0.25 0 0.45 0.3q1.1 2.85 -0.3 5.45q2.45 46.15 5.55 92.35q2.55 38.3 1.2 75.2q-3.1 -7.2 -3.2 -17.75q-0.6 -48.4 -4.4 -96.5q-2.2 -27.3 -0.7 -53.1q-0.85 -3.05 0 -6.1q38.7 -0.75 76.2 -10.8q9.6 0.1 19.15 0.5q-5.6 39.35 -12.4 79.05q-7 40.85 -12.1 82.45q-5.8 47.6 -13.8 94.8q9.35 -7.85 23.05 -12.7q26.35 -9.3 53.8 -10.8q-8.95 -45.5 -19.5 -90.75q-10.9 -46.7 -18.45 -93.95q-4.3 -26.7 -3.65 -52.6q2.45 3 5.2 5.45q3.05 4.95 4.9 10.4q0.95 2.75 -0.35 4.95q-2 -1.7 -3.3 -4.45q-4.5 -9.6 -14.45 -13.5q-32.5 -10.05 -48.85 19.4q-10.9 19.65 -13.05 42.15q-4.55 47.4 9.9 92.45q14.95 46.45 32 92.5q8.55 23.15 16.7 46.55q15.5 44.75 22.7 91q3.65 23.4 3.55 47.5q-0.25 42.45 -22.7 76.85q-3.55 5.4 -8.95 9.1q-33.7 22.9 -65.9 -0.85q-10.75 -7.95 -12.65 -21.45q-2.9 -20.6 1.1 -40.9q1.7 -8.5 3.8 -16.45q-6.7 27.1 -1.7 54.85q3.05 16.95 20.6 21.6q36.55 9.7 61.2 -17.9q8.75 -9.85 11.85 -22.95q10.95 -46.9 2.65 -94.5q-8.15 -46.8 -25.35 -91.55q-17.35 -45.15 -32.65 -91.1q-9.9 -29.7 -17.1 -59.65q-11.2 -46.7 -2.85 -94.4q4.05 -23.45 19.6 -41.15q8.6 -9.8 20.4 -13.55q14.45 -3.4 25.85 3.85q0.65 0.45 1.5 0.65q1.85 21 7 41.9q1.3 5.25 1.3 10.95q2.3 11.55 -5.75 22.7q-2.9 3.95 -4.6 8.65q-5.4 14.65 -13.9 27.35q-5.85 -8.2 -7.85 -20.6q-2.35 -4.05 -3.05 -8.55q-5.8 21.45 -12.65 42.65q-0.5 1.6 -2.05 2.4q-7.25 -28.05 -12.9 -58.15q-0.5 -2.7 -2.15 -4.85q-0.15 -2.2 0.25 -4.3q9.35 24.2 14.2 51.75q7.4 -19.35 11.4 -40.45q0.3 -1.7 1.45 -2.95q8.05 12.55 11.7 29.1q-7.9 -18.9 -8.05 -40.9q-16.7 19.25 -30.95 42.2q-6.9 -24.6 -11.25 -51.8q-4.45 24.8 -16.9 46.7q3.05 -14.5 8.05 -30.4q7.6 26.3 10.9 53.8q17.1 -21.3 30.55 -44.65q0.7 -1.55 2.25 -2.45q5.35 21.1 11.85 42.15q8.25 -20.9 15.45 -42.2q4.05 11.65 -3.55 26.05q-3.3 6.2 -5.5 12.95q-2.3 6.85 -5.6 12.75q-9.2 -17.9 -12.85 -39.1q-2.45 16.1 -6.4 32.95q-0.25 -23.65 6.5 -47.15q-0.35 25.55 -0.2 51.35q10.25 -2.8 21.4 0q1.65 3.25 -0.05 6.65q-11.35 -1.35 -22 2.45q-3.2 -28.65 -2.4 -58.7q0.1 -3.9 2.2 -5.9q0.95 0.7 1.25 1.8<g id="1895" transform="matrix(1, 0, 0, 1, 4.15, 0)">
<path style="fill:#000000;fill-opacity:1" d="M541.95,20.8L541.8 21.4L541 21.65L540.15 22Q524.85 66.4 506.2 110Q496.8 132 489 154.85Q473.55 200.3 456.5 244.95Q450.45 260.95 442.85 276.1Q442.4 287.65 442.1 299.25Q440.85 347.75 437.6 395.85Q434.85 435.75 434.3 475.35Q434.2 482.2 435.6 484.9Q437.9 490.15 434.15 499.4Q427.4 477.15 429.65 451.65Q433.9 403.5 435.85 355.1L438.65 283.5Q434 277.3 439.2 268.5L439.55 259.1Q441.35 210.65 445.05 162.5Q448.65 114.85 446.9 66.5Q446 41.2 445.65 15.7Q445.6 11.6 447.8 9.4Q451.45 57.15 450.7 106Q449.9 154.45 446.65 202.65Q444.6 232.25 443.4 261.9Q448.25 253.8 451.8 245Q469.45 201.55 483.95 156.85Q499.15 110.05 519.85 65.6Q528.25 47.55 533.9 28.7Q535.85 22.3 539.75 17.55Q542.5 17.9 541.95 20.8M364.85,9.6Q365.15 26.3 359.05 43.7Q352.95 60.95 349.65 78.8Q346.25 97.1 339.35 114.15Q318.25 72 304.55 26.15Q303.8 23.6 302.7 21.2Q295.5 64.9 286.6 108.4Q285.95 111.6 284.15 113.35Q290.65 69.15 297.6 24.6Q299 15.75 302.05 9.4Q317.25 54.65 337.3 98L339.15 101.5Q349.55 56.85 361.7 13.1Q362.5 10.25 364.85 9.6M331.75,136.2Q326.75 146.6 318.75 149.65L333.85 169.6L334.3 170.2Q340.85 173.85 340.45 181L339.8 182.85Q326.15 168.5 315.3 150.6Q309.95 151.5 303.5 149.65Q300.45 169.85 296.05 189.95L295.75 190.6Q291.7 182 294.8 169.7Q297.6 158.8 299.85 147.75Q297.6 145.55 299.2 141.45Q300.05 141.45 300.45 141.85L300.9 142.35Q303.65 127.8 305.45 113.05Q305.85 109.85 307.15 107.5Q305.4 106.75 304.1 105.8Q304.85 101.65 311.05 104.15Q331.85 108.2 333.55 126.3Q334 131.45 331.75 136.2M328.05,117.65L314.7 109.25Q311 108.85 308.25 107.9Q306.8 126.25 304.25 144.55L304.5 144.75Q310.55 147.65 316.55 144.75Q332.95 135.65 329.7 119.85Q329.45 118.55 328.05 117.65M388.1,169.8Q406.3 167.15 414.4 182.4L414.8 183.05L414.9 183.65L415 186.15Q415.2 188.05 416 189.8Q414.7 189.7 413.7 187.45Q410.8 181.05 404.4 177.75Q369 171.6 352 203.15Q348.35 210.05 346.7 217.95Q337.8 260.6 334.85 304.2Q331.65 351.8 332.1 400.15Q332.55 449.45 343 497Q347.4 516.8 361.65 530.7Q368.95 537.85 379.35 539.45Q396.25 542.05 407.45 531.35Q414.9 524.2 416.55 513.85Q418.05 504.6 421.7 496.35Q424.9 506.7 421.3 520.1Q413.05 551 380.35 547.05Q371.1 545.9 362.4 542.2Q342.6 521.8 337.9 493.5Q333.35 465.75 331.75 437.55Q329.15 390.05 329.6 342.25Q330.05 293 337.05 244.8Q341 218 353.3 194.95Q364.65 173.65 388.1 169.8M472.25,205.65Q481.1 252.45 491.95 299.35Q502.8 346.15 513.05 393.05L528.2 463Q531.35 477.8 535.65 491.55L536.05 491.05Q538.8 496.55 534.65 503.25Q529.85 493.45 527 480.3Q516.9 433.65 507.55 386.9Q500.45 351.45 492.25 316.2Q481.3 269.45 472.2 222.8Q470.35 213.3 472.25 205.65M227.65,10.2L227.7 10.6L229.3 5.5L227.95 15.4Q230.5 61.05 239.35 105.6Q248.65 152.55 258.9 199.45L271.7 258.25L272.25 258.9Q273.25 260.25 273.35 261.95L273.25 262.5L272.85 263.55L274.1 269.3L294.35 363.5Q304.3 410.25 313.85 457.1Q322.5 499.5 327.15 542.25Q327.25 543.45 326.15 543.85Q315.3 497 306.55 448.75Q298 401.7 288.3 355Q279 310.3 270.25 265.5Q228.75 267.65 190.65 283.2Q188.6 284.05 187.9 283Q180.3 327.1 171.3 370.95Q168.8 383.1 165.8 395.15Q154.2 441.9 146.3 488.75Q143.75 503.9 142.5 519.25Q141.15 535.25 135.35 548.95Q132.9 538 135.25 525L143.5 478.3Q151.65 430.65 164.2 383.4Q176.7 336.55 184.3 288.85Q188.15 264.95 191.2 240.9Q197.3 193.7 203.55 146.6Q209.85 99.2 217.8 52.45Q221.5 30.7 227.6 10.85L227.65 10.2M196.05,47.2Q196.3 47.2 196.5 47.5L196.8 48.15Q197.9 51 196.5 53.6L147.35 60.15Q149.8 106.3 152.9 152.5Q155.45 190.8 154.1 227.7Q151 220.5 150.9 209.95Q150.3 161.55 146.5 113.45Q144.3 86.15 145.8 60.35L123.85 62.95L100.9 64.2L100.7 63.6Q99.85 60.55 100.7 57.5Q139.4 56.75 176.9 46.7Q186.5 46.8 196.05 47.2M227.2,20.65Q221.6 60 214.8 99.7Q207.8 140.55 202.7 182.15Q196.9 229.75 188.9 276.95L188.15 281.35Q197.5 273.5 211.2 268.65Q237.55 259.35 265 257.85L268.8 257.95Q259.85 212.45 249.3 167.2Q238.4 120.5 230.85 73.25Q226.55 46.55 227.2 20.65M90.1,12.65L90.8 13.35Q93.25 16.35 96 18.8L98.65 20.8L99.2 21.95Q102.25 26.9 104.1 32.35Q105.05 35.1 103.75 37.3Q101.75 35.6 100.45 32.85Q95.95 23.25 86 19.35Q53.5 9.3 37.15 38.75Q26.25 58.4 24.1 80.9Q19.55 128.3 34 173.35Q48.95 219.8 66 265.85Q74.55 289 82.7 312.4Q98.2 357.15 105.4 403.4Q109.05 426.8 108.95 450.9Q108.7 493.35 86.25 527.75Q82.7 533.15 77.3 536.85Q43.6 559.75 11.4 536Q0.65 528.05 -1.25 514.55Q-4.15 493.95 -0.15 473.65Q1.55 465.15 3.65 457.2L4.05 457.1L5.25 457.35L5.85 457.85L6.1 458.45Q-0.6 485.55 4.4 513.3Q7.45 530.25 25 534.9Q61.55 544.6 86.2 517Q94.95 507.15 98.05 494.05Q109 447.15 100.7 399.55Q92.55 352.75 75.35 308Q58 262.85 42.7 216.9Q32.8 187.2 25.6 157.25Q14.4 110.55 22.75 62.85Q26.8 39.4 42.35 21.7Q50.95 11.9 62.75 8.15Q77.2 4.75 88.6 12Q89.25 12.45 90.1 12.65M159.8,223.4Q161.65 244.4 166.8 265.3Q168.1 270.55 168.1 276.25L168.35 276.2Q170.65 287.75 162.6 298.9Q159.7 302.85 158 307.55Q152.6 322.2 144.1 334.9Q138.25 326.7 136.25 314.3L136.15 313.1Q133.8 309.05 133.1 304.55Q127.3 326 120.45 347.2Q119.95 348.8 118.4 349.6Q111.15 321.55 105.5 291.45Q105 288.75 103.35 286.6Q103.2 284.4 103.6 282.3L103.75 281.7Q113.1 305.9 117.95 333.45L118.6 337.15Q126 317.8 130 296.7Q130.3 295 131.45 293.75Q139.5 306.3 143.15 322.85L143.5 324.1L166.2 279.6Q158.3 260.7 158.15 238.7L158.15 238.1Q141.45 257.35 127.2 280.3Q120.3 255.7 115.95 228.5Q111.5 253.3 99.05 275.2Q102.1 260.7 107.1 244.8L115.95 216.05Q123.55 242.35 126.85 269.85L127 270.5Q144.1 249.2 157.55 225.85Q158.25 224.3 159.8 223.4M133.3,338.8Q138.65 359.9 145.15 380.95L145.35 381.6Q153.6 360.7 160.8 339.4Q164.85 351.05 157.25 365.45Q153.95 371.65 151.75 378.4Q149.45 385.25 146.15 391.15Q136.95 373.25 133.3 352.05Q130.85 368.15 126.9 385L126.35 386.05Q126.1 362.4 132.85 338.9L133.3 338.8M118.05,391.95L118.2 392.6Q117.85 418.15 118 443.95L118 445.2Q128.25 442.4 139.4 445.2Q141.05 448.45 139.35 451.85L139 452.3Q127.65 450.95 117 454.75Q113.8 426.1 114.6 396.05Q114.7 392.15 116.8 390.15Q117.75 390.85 118.05 391.95" />
</g>
</svg>
