<?xml version="1.0" encoding="utf-8"?>
<svg version="1.1" id="Layer_1"
xmlns="http://www.w3.org/2000/svg"
xmlns:xlink="http://www.w3.org/1999/xlink"


xml:space="preserve">
q-28.8 7 -59.2 2.4q5.65 5.1 1.75 11.5q-22.85 4.45 -45.2 -1.95q7.55 112.3 -2.05 224.25q-3.65 -62.5 0.4 -126.35q2.55 -40.8 0.9 -81.95q-1.3 -64.6 2.35 -129.05q28.1 -8.1 35.75 21.55q5.25 20.25 -1.55 39.95q-5.95 17.3 -20.45 28.7q19.35 38.95 28.55 81.5q-18.75 -38.55 -30.2 -81.75q1.75 41.45 -3.75 82.5q-4.45 -59.45 -0.15 -120.95q1.8 -25.85 7.95 -50.9q-9.85 -9.9 -23.35 -5.4q4.5 -1.1 8.7 -2.85q19.15 -8 26.2 -28.4q7.55 -21.9 -2.9 -42.45q12.1 -6.75 24.45 -5.3q4.6 55.35 -1.65 110.25q-0.6 -1.15 -0.65 -2.25q-4.5 -85.25 -1 -171.95q-29.25 8.2 -58.75 4.6q-5.7 44.45 -11.25 88.95q-5.35 42.9 -14.7 84.65q-5.6 -9.4 -2.65 -24q0.85 -4.3 2.15 -7.5q0.45 2.2 0.3 4.5q8.6 -57.25 16.6 -115.45q-0.3 -2.5 1.05 -4.5q8 -58.7 17.45 -117q0.25 -1.55 1.65 -1.6q0.55 -2.15 1.25 -4.2q10.1 57.65 21.7 115.75q11.6 57.95 21.6 116.1q10 58.3 19.3 116.7q2.35 14.9 0.05 29.3q-0.15 0.75 -0.9 1.35q-1.6 -0.4 -2.25 -2q-8.3 -57.6 -17.3 -115.35q-4.8 -31.2 -10 -62.35q18.8 -3.15 28.95 10.95q1.95 -13.15 -12.85 -17.85q-36.1 -11.15 -54.5 23.7q-19.35 36.65 -21.3 78.9q-1.5 33.05 14.75 61.15q3.45 5.95 8.15 10.85q17.3 6.4 35 1.75q23.65 -6.35 30.05 -29.85q1.75 -6.45 -0.05 -12.9q-5.85 16.05 -19.95 24.9q-29.5 18.4 -49.75 -7.65q-12.9 -16.6 -12.1 -38.5q1.55 -42.6 16.3 -82.75q12.55 -19.75 35.4 -23.4q6.95 -5.15 14.65 -7.45q34.6 5.6 48 36.3q3 6.95 0 13.45q-8.4 -31.35 -43.8 -37.05q-10 -1.6 -17.75 5.55q-20.55 19.1 -14.5 48.3q6.65 32.15 26.6 58.85q6.6 8.85 12.7 18.1q31.3 47.65 47.25 102.25q17.15 58.6 -9.55 113.2q-11.1 22.6 -34.6 32.45q-6.95 2.9 -14.1 1.75q-32.2 -5.1 -41.1 -35.65q-4.3 -14.8 -3.2 -29.75q0.4 -5.2 1.35 -9.3q2.85 29.4 21.9 50.95q4.7 5.35 12 7.15q34.6 8.3 52.25 -22.85q24.3 -42.85 13.35 -90.75q-12.4 -54.6 -43.35 -102.05q-9.4 -14.45 -16.3 -30.4q-17.6 -40.6 1.7 -79.15q3 -6 8.5 -10.1q32.3 -0.9 65.5 -1.25q3 4.5 0.95 9.7q-15.9 1.95 -31.65 1.8q0.6 55.7 -1.4 112.45q-0.9 26.1 -4.45 50.95q-5.35 -12.9 -3.3 -29.4q3.65 -29.3 4.05 -59.1q0.5 -37.85 4.05 -74.9q-16.85 -0.25 -33.55 -2.8q-1.4 -3.75 -0.1 -7.5q0.1 -0.4 0.35 -0.75<g id="1884" transform="matrix(1, 0, 0, 1, -66.8, 0)">
<path style="fill:#000000;fill-opacity:1" d="M495.6,94.05Q466.8 101.05 436.4 96.45L435.7 230.75L478.95 227Q484.6 232.1 480.7 238.5Q457.85 242.95 435.5 236.55Q443.05 348.85 433.45 460.8L432.45 469.7Q428.8 407.2 432.85 343.35Q435.4 302.55 433.75 261.4L433 239.8L432.5 218.2Q431.2 153.6 434.85 89.15L436.2 87.25L436.25 88.65L494.2 86L494.9 87.15L495.6 94.05M364.25,92.7Q392.35 84.6 400 114.25Q405.25 134.5 398.45 154.2Q392.5 171.5 378 182.9Q397.35 221.85 406.55 264.4L405.65 266.65Q386.9 228.1 375.45 184.9L367.95 190L360.2 189.5Q361.95 230.95 356.45 272Q352 212.55 356.3 151.05Q358.1 125.2 364.25 100.15L363.3 96L364.25 92.7M390.65,104.7Q380.8 94.8 367.3 99.3L360.35 180.4Q364.85 179.3 369.05 177.55Q388.2 169.55 395.25 149.15Q402.8 127.25 392.35 106.7L390.65 104.7M411.2,296.5L388.85 293.35L389.45 349.5Q401.55 342.75 413.9 344.2L413.7 352.2L389.6 356.45Q394.2 411.8 387.95 466.7Q387.35 465.55 387.3 464.45Q382.8 379.2 386.3 292.5L384.6 290.9L384.95 286L387.2 284.75L411.95 288.25L411.2 296.5M340.4,288.75Q311.15 296.95 281.65 293.35Q275.95 337.8 270.4 382.3Q265.05 425.2 255.7 466.95Q250.1 457.55 253.05 442.95Q253.9 438.65 255.2 435.45Q255.65 437.65 255.5 439.95L255.45 440.7Q264.05 383.45 272.05 325.25L276.6 292.65L275.7 292.5L275.15 289.5Q274.85 287 276.2 285L277.65 285L288.1 208.35Q296.1 149.65 305.55 91.35Q305.8 89.8 307.2 89.75L306.95 93.45Q307.5 91.3 308.2 89.25Q318.3 146.9 329.9 205Q341.5 262.95 351.5 321.1Q361.5 379.4 370.8 437.8Q373.15 452.7 370.85 467.1Q370.7 467.85 369.95 468.45Q368.35 468.05 367.7 466.45Q359.4 408.85 350.4 351.1Q345.6 319.9 340.4 288.75M193.95,123.25Q179.2 163.4 177.65 206Q176.85 227.9 189.75 244.5Q210 270.55 239.5 252.15Q253.6 243.3 259.45 227.25Q261.25 233.7 259.5 240.15Q253.1 263.65 229.45 270Q211.75 274.65 194.45 268.25Q189.75 263.35 186.3 257.4Q170.05 229.3 171.55 196.25Q173.5 154 192.85 117.35Q211.25 82.5 247.35 93.65Q262.15 98.35 260.2 111.5L258.3 110.8Q248.15 96.7 229.35 99.85Q206.5 103.5 193.95 123.25M97.3,88.2Q104.25 83.05 111.95 80.75Q146.55 86.35 159.95 117.05Q162.95 124 159.95 130.5Q151.55 99.15 116.15 93.45Q106.15 91.85 98.4 99Q77.85 118.1 83.9 147.3Q90.55 179.45 110.5 206.15Q117.1 215 123.2 224.25Q154.5 271.9 170.45 326.5Q187.6 385.1 160.9 439.7Q149.8 462.3 126.3 472.15Q119.35 475.05 112.2 473.9Q80 468.8 71.1 438.25Q66.8 423.45 67.9 408.5Q68.3 403.3 69.25 399.2Q72.1 428.6 91.15 450.15Q95.85 455.5 103.15 457.3Q137.75 465.6 155.4 434.45Q179.7 391.6 168.75 343.7Q156.35 289.1 125.4 241.65L103.4 207.85Q94 193.4 87.1 177.45Q69.5 136.85 88.8 98.3Q91.8 92.3 97.3 88.2M183.95,293.75Q216.25 292.85 249.45 292.5Q252.45 297 250.4 302.2L249.95 303Q234.05 304.95 218.3 304.8Q218.9 360.5 216.9 417.25Q216 443.35 212.45 468.2Q207.1 455.3 209.15 438.8Q212.8 409.5 213.2 379.7Q213.7 341.85 217.25 304.8Q200.4 304.55 183.7 302Q182.3 298.25 183.6 294.5Q183.7 294.1 183.95 293.75M282.7,284.85L338.75 278.75L305.75 108.55L282.7 284.85" />
</g>
</svg>
