<?xml version="1.0" encoding="utf-8"?>
<svg version="1.1" id="Layer_1"
xmlns="http://www.w3.org/2000/svg"
xmlns:xlink="http://www.w3.org/1999/xlink"


xml:space="preserve">
q0 -6.3 3 -8.5q5.45 12.05 10.85 30.1q4.75 15.9 8.15 32q2.75 10.4 9 31.95q5.5 19.6 8 32.55q10.35 52.9 24 128.25q7.9 44.15 21.45 129.65q17.4 110.1 17.4 127.25q0 2.05 -0.6 4q-0.65 2.2 -1.9 3.6q-10.8 -46.35 -21.7 -127.55q-5.2 -36.3 -10.5 -63.8q-8.35 3.7 -34.9 4.25q-4 0.5 -4.4 0.75q-11.35 0.7 -28.35 3.25q-15.45 2.3 -31.55 3.35q-11.35 50.2 -30.6 120.85q-2.6 -2.05 -3.3 -7.9q-0.85 -4.25 -0.8 -7.7q0.2 -6.75 5.05 -5.3q6.2 -24.55 33.15 -120.4q17.05 -60.55 26.7 -102.55q0 -2.65 0.25 -3.65q0.45 -1.85 1.75 -3.15q3.2 -15.1 10.1 -59.85q6 -38.6 11.65 -60.9q1.25 -5.05 8.25 -30.3q5.15 -18.65 7.5 -30.45q2.25 -14.25 3.95 -21.35q-2.25 18.9 -11.8 59.05q-7.2 30.3 -14.55 56.95q-6.15 22.5 -12.4 62.1q-5.4 34.05 -8.85 52.3q48.45 -4.45 88.2 -9.95q-7.4 -37.9 -11.75 -64.4q-3.7 -22.3 -19.45 -75.95q-1.2 -0.75 -2.45 -2.45q-1 -1.35 -2.7 -1.85q-4.75 -1.4 -28.35 -0.45q0 32.95 -4.5 100.9q2.55 -1.4 6.55 -2.85q6.65 -2.45 24.35 -8.4q15.95 -6.15 24.3 -13.3q11.05 -9.5 11.05 -22.2q0 -5.65 -3.65 -17.7q-3.8 -12.45 -6.85 -15.7q-5.85 -5.9 -9.85 -8.55q3.05 3.8 6.2 10.55q9.5 20.5 9.5 40.5q0 4.9 -2.5 12.75q-3.35 10.75 -9.75 19.55q-18.6 25.7 -55.25 25.7q-7.7 103.7 -12 108.95q-3.35 -0.65 -4.7 -4.35q-0.8 -2.1 -0.8 -4.5q2.25 -11.75 2.85 -21.05q0 -10.5 2 -31.5q0.75 -10.1 3.05 -31.55q2.2 -20.65 2.95 -31.45q0.85 -11.9 1.45 -31.4q1.55 -34.05 6.25 -57.1q-0.95 -0.9 -1.4 -2.1q-0.2 -0.7 -0.05 -1.75q0.35 -2 2.2 -3.5q5.95 -4.8 24.85 -2.35q5.95 0.8 18 8.85q7.25 4.65 11.3 9.7q0 7.6 -2 12.75q-4.95 -2.85 -4.5 -6.7q1.5 -4.5 1.5 -7.15q0 -3.15 -6.1 -12.5q-7.2 -11 -17.4 -20.85q-29.3 -28.3 -63.5 -28.3q-28.7 0 -42.2 30q-6.75 15 -7.8 30.25q0 9.05 4 17.1q3.55 7.15 11.2 15.35q5.3 5.65 17.2 16.35q15.45 13.85 22.1 20.2q12.55 12 29.9 34.45q21.9 28.4 26.6 33.8q20.85 23.85 40.45 64.65q21.55 44.8 21.55 71.5q0 12.2 -7.95 44.8q-8.9 36.3 -9.3 39.55q-5.55 43.85 -44.25 65.45q-13.6 7.55 -29.75 11.4q-12 2.9 -20.75 2.9q-32.7 0 -52.55 -6.4q-18.75 -6.05 -28.45 -18.6q-8.65 -11.2 -11.75 -30q-2.25 -13.95 -2.25 -40.5q0 -4.7 2.5 -7.5q5.35 6.15 5 18.45q-0.2 6.8 -1.5 19.2q0 5.95 2.15 12.55q3.15 9.55 10.1 17.05q19.85 21.5 65.25 21.5q43.65 0 67.95 -17.7q24.25 -17.65 33.55 -56.05q7.65 -30.35 7.65 -40.95q0 -13.2 -8.6 -35.3q-10.35 -24.1 -13.9 -33.35q-5.1 -13.45 -20.8 -34.65q-18.3 -23.4 -25.7 -33.6q-14.35 -19.95 -35.5 -40.15q-17.4 -16.35 -25.05 -29.35q-9.85 -16.7 -9.85 -36.35q0 -20.95 8.65 -39.6q11.45 -24.8 34.85 -34.75q56.65 6.95 83.95 34.45q10.35 10.45 15.45 22.95q4.1 10.1 4.1 19.45q0 36.6 -6.35 93.35q2.85 -5.9 6.5 -15.35q8 -20.2 16.25 -31.55q2 3.6 2 7.15q0 1.9 -6.55 18.05q-6.85 16.85 -15.95 37.05q2.1 5.6 2.95 13.8q0.6 6.85 1.5 11.15q0.65 8.05 3 21.75q1.65 11.75 9.4 51.1q7.1 35.9 7.1 38.15q0 4.3 -2.5 7.5q-5.3 -4.2 -18.75 -85.65q-5 -30.25 -8.95 -58.25q-2.2 -15.45 -3.1 -23.55q-16.65 35.6 -27.2 51.6q-10.65 81.8 -19.7 96.5q-3 -2.8 -3 -10.5q0 -2 8.85 -48.55q9.25 -48.75 10.65 -66.2q2.7 -38.85 4.35 -58.3q2.8 -34 7.15 -55.95q1.1 1.7 1.65 8.75<g id="1879" transform="matrix(1, 0, 0, 1, -17.75, 0)">
<path style="fill:#000000;fill-opacity:1" d="M433.5,17.75Q433.5 11.45 436.5 9.25Q441.95 21.3 447.35 39.35Q452.1 55.25 455.5 71.35Q458.25 81.75 464.5 103.3Q470 122.9 472.5 135.85Q482.85 188.75 496.5 264.1Q504.4 308.25 517.95 393.75Q535.35 503.85 535.35 521Q535.35 523.05 534.75 525Q534.1 527.2 532.85 528.6Q522.05 482.25 511.15 401.05L502.5 336.9Q497.3 300.6 492 273.1L490.65 266.1Q482.3 269.8 455.75 270.35L451.4 271.1Q447.4 271.6 447 271.85Q435.65 272.55 418.65 275.1Q403.2 277.4 387.1 278.45Q375.75 328.65 356.5 399.3L322 523.85Q319.4 521.8 318.7 515.95L318.5 509.35Q317.65 505.1 317.7 501.65Q317.9 494.9 322.75 496.35Q328.95 471.8 355.9 375.95Q372.95 315.4 382.6 273.4L382.5 271.85Q382.5 269.2 382.75 268.2Q383.2 266.35 384.5 265.05L386.75 254.6Q389.95 239.5 396.85 194.75Q402.85 156.15 408.5 133.85Q409.75 128.8 416.75 103.55Q421.9 84.9 424.25 73.1L429.75 40Q432 25.75 433.7 18.65L433.5 17.75M437.85,33.1Q435.6 52 426.05 92.15Q418.85 122.45 411.5 149.1Q405.35 171.6 399.1 211.2Q393.7 245.25 390.25 263.5Q438.7 259.05 478.45 253.55L488.1 253.1L479.5 209.25Q472.1 171.35 467.75 144.85Q464.05 122.55 448.3 68.9L437.85 33.1M288.5,33.6Q287.3 32.85 286.05 31.15Q285.05 29.8 283.35 29.3Q278.6 27.9 255 28.85L254.5 28.7L254.5 29.35Q254.5 62.3 250 130.25Q252.55 128.85 256.55 127.4Q263.2 124.95 280.9 119Q296.85 112.85 305.2 105.7Q316.25 96.2 316.25 83.5Q316.25 77.85 312.6 65.8Q308.8 53.35 305.75 50.1L298.35 42.15Q292.5 36.25 288.5 33.6M305.8,32.8Q308.85 36.6 312 43.35Q321.5 63.85 321.5 83.85Q321.5 88.75 319 96.6Q315.65 107.35 309.25 116.15Q290.65 141.85 254 141.85L249.25 141.7L247 172.9Q239.3 276.6 235 281.85Q231.65 281.2 230.3 277.5Q229.5 275.4 229.5 273L231.65 262.9Q233.9 251.15 234.5 241.85Q234.5 231.35 236.5 210.35Q237.25 200.25 239.55 178.8Q241.75 158.15 242.5 147.35Q243.35 135.45 243.95 115.95L245.05 83.9Q246.6 49.85 251.3 26.8Q250.35 25.9 249.9 24.7L249.5 21.85Q249.3 21.15 249.45 20.1Q249.8 18.1 251.65 16.6Q257.6 11.8 276.5 14.25Q282.45 15.05 294.5 23.1Q301.75 27.75 305.8 32.8M196.5,86.85Q196.5 94.45 194.5 99.6Q189.55 96.75 190 92.9Q191.5 88.4 191.5 85.75Q191.5 82.6 185.4 73.25Q178.2 62.25 168 52.4Q138.7 24.1 104.5 24.1Q75.8 24.1 62.3 54.1Q55.55 69.1 54.5 84.35Q54.5 93.4 58.5 101.45Q62.05 108.6 69.7 116.8Q75 122.45 86.9 133.15Q102.35 147 109 153.35Q121.55 165.35 138.9 187.8Q160.8 216.2 165.5 221.6Q186.35 245.45 205.95 286.25Q227.5 331.05 227.5 357.75Q227.5 369.95 219.55 402.55Q210.65 438.85 210.25 442.1Q204.7 485.95 166 507.55Q152.4 515.1 136.25 518.95Q124.25 521.85 115.5 521.85Q82.8 521.85 62.95 515.45Q44.2 509.4 34.5 496.85Q25.85 485.65 22.75 466.85Q20.5 452.9 20.5 426.35Q20.5 421.65 23 418.85Q28.35 425 28 437.3Q27.8 444.1 26.5 456.5Q26.5 462.45 28.65 469.05Q31.8 478.6 38.75 486.1Q58.6 507.6 104 507.6Q147.65 507.6 171.95 489.9Q196.2 472.25 205.5 433.85L214.85 398.7Q222.5 368.35 222.5 357.75Q222.5 344.55 213.9 322.45Q203.55 298.35 200 289.1Q194.9 275.65 179.2 254.45Q160.9 231.05 153.5 220.85Q139.15 200.9 118 180.7L84.4 150.05Q67 133.7 59.35 120.7Q49.5 104 49.5 84.35Q49.5 63.4 58.15 44.75Q69.6 19.95 93 10Q149.65 16.95 176.95 44.45Q187.3 54.9 192.4 67.4Q196.5 77.5 196.5 86.85M256.15,285.85L256.5 294.35Q256.5 330.95 250.15 387.7L255.7 376.4L274.5 338.35Q277.35 332.45 281 323L287.25 306.65Q295.25 286.45 303.5 275.1Q305.5 278.7 305.5 282.25Q305.5 284.15 298.95 300.3Q292.1 317.15 283 337.35L279.85 344.4Q281.95 350 282.8 358.2L283.75 369.7Q284.35 376.55 285.25 380.85Q285.9 388.9 288.25 402.6L292 425.1Q293.65 436.85 301.4 476.2Q308.5 512.1 308.5 514.35Q308.5 518.65 306 521.85Q300.7 517.65 287.25 436.2Q282.25 405.95 278.3 377.95Q276.1 362.5 275.2 354.4Q258.55 390 248 406L246.2 420.1Q235.55 501.9 226.5 516.6Q223.5 513.8 223.5 506.1Q223.5 504.1 232.35 457.55Q241.6 408.8 243 391.35Q245.7 352.5 247.35 333.05Q250.15 299.05 254.5 277.1Q255.6 278.8 256.15 285.85" />
</g>
</svg>
