<?xml version="1.0" encoding="utf-8"?>
<svg version="1.1" id="Layer_1"
xmlns="http://www.w3.org/2000/svg"
xmlns:xlink="http://www.w3.org/1999/xlink"


xml:space="preserve">
q7.85 -29.45 6.1 -58.1q-34.9 3.55 -71 2.25q-1.1 3 0 6q35.05 3.4 67 4q-1.45 13.4 -4.35 26.55q-12.65 56.95 -27.8 113.5q-15.6 58 -32.7 115.7q-2.25 7.6 -5.9 14.3q-12 21.95 -7.75 44.15q25.95 -4.25 51 -9.5q6.25 -8.6 -1 -16.25q13.95 -40.55 25.9 -81.55q16.5 -56.6 29.65 -114.2q6.55 -28.8 14.1 -57.35q37.6 1.35 73.75 -1.25q-14.3 57.7 -30.45 115.05q-15.95 56.75 -29.75 113.9q-3.55 14.7 -9.3 28.45q-9.2 22.15 -6.2 43.45q39.35 -2.3 78.25 -2.25q5.5 -9.9 -1.25 -18q8.25 -27.35 14.85 -55.4q13.45 -57.6 29.6 -114.7q16.15 -57.2 31.35 -114.5q4 -15.15 1.7 -28.85q-39.95 4.7 -80 7q-0.85 3.8 0.45 7.5q-4.75 20.3 -6.9 42.25q-5.85 59.05 -9.35 118.6q-3.45 58.55 -8.75 116.75q-6.75 -47 -13.35 -94q-4.2 -29.6 -6.6 -59.35q-1.35 -16.9 -8.05 -28.1q-2.55 33.35 -5.6 67.35q-5.3 58.6 -13.9 116.6q-3 -22.35 -5.55 -44.8q-6.65 -59.25 -12.3 -118.55q-5.65 -59.25 -13.15 -116.1q-2 5.75 -1.6 12.05q3.7 59.4 9.75 118.4q6.1 58.9 13.15 117.7q1.85 15.05 2.15 30.05q0.4 16.45 7.55 28.5q7.5 -20.8 10.15 -43.4q6.9 -58.3 12.6 -116.3q4.4 40.3 11 80.25q4.85 29.45 6.15 59.3q0.7 16.35 8.1 28.4q5 -10.1 5.75 -21.65q3.75 -58.95 6.85 -117.9q3.1 -59.35 11.9 -117.65q4.55 -30.05 0.5 -58.5q-4.05 39.5 -2.7 79.6q2 59.55 -3.55 118.3q-5.65 59.6 -4.9 118.6q6.65 -40.3 9.7 -82.15q4.2 -58.8 3.65 -118.6q-2.1 0.35 -2.35 2.95q-23.2 3.15 -34.05 24.8q-10.55 21 -4.4 43.5q7.15 26.2 22.4 49.15q17.45 26.3 32.1 54.1q16.7 31.6 24.4 66.1q10.6 47.2 -30.85 73.8q-39.2 25.15 -69.35 -10.8q-15.25 -18.25 -14.7 -40.45q-9.05 43.1 29.75 67.9q14.5 9.25 31.35 5.35q41.95 -9.75 55.9 -49.85q9.35 -26.9 1.3 -54.4q-14 -48.05 -38.2 -92.45q-12.25 -22.55 -28.05 -42.85q-18.55 -23.75 -10.75 -50.9q8.85 -30.75 40.4 -30.5q6.25 2.25 10.7 6.85q9.2 9.5 9.55 22.4q0.25 0.65 0.8 0.9q2.75 -2.4 2.95 -6.25q1.15 -26.85 -23.45 -39.75<g id="1908" transform="matrix(1, 0, 0, 1, -32.45, 0)">
<path style="fill:#000000;fill-opacity:1" d="M506,195.45Q492.85 253.05 476.35 309.65Q464.4 350.65 450.45 391.2L493.45 381.45Q500.7 389.1 494.45 397.7Q469.4 402.95 443.45 407.2Q439.2 385 451.2 363.05Q454.85 356.35 457.1 348.75Q474.2 291.05 489.8 233.05Q504.95 176.5 517.6 119.55Q520.5 106.4 521.95 93Q490 92.4 454.95 89Q453.85 86 454.95 83L455.2 82.25Q491.3 83.55 526.2 80Q527.95 108.65 520.1 138.1Q512.55 166.65 506 195.45M341.25,88.75L341.45 88Q381.5 85.7 421.45 81Q423.75 94.7 419.75 109.85Q404.55 167.15 388.4 224.35Q372.25 281.45 358.8 339.05Q352.2 367.1 343.95 394.45L413.45 389.7Q420.2 397.8 414.7 407.7Q375.8 407.65 336.45 409.95Q333.45 388.65 342.65 366.5Q348.4 352.75 351.95 338.05Q365.75 280.9 381.7 224.15Q397.85 166.8 412.15 109.1L415.45 95Q379.3 97.6 341.7 96.25Q340.4 92.55 341.25 88.75M282.45,91.75Q286.5 120.2 281.95 150.25Q273.15 208.55 270.05 267.9Q266.95 326.85 263.2 385.8Q262.45 397.35 257.45 407.45Q250.05 395.4 249.35 379.05Q248.05 349.2 243.2 319.75Q236.6 279.8 232.2 239.5Q226.5 297.5 219.6 355.8Q216.95 378.4 209.45 399.2Q202.3 387.15 201.9 370.7Q201.6 355.7 199.75 340.65Q192.7 281.85 186.6 222.95Q180.55 163.95 176.85 104.55Q176.45 98.25 178.45 92.5Q185.95 149.35 191.6 208.6Q197.25 267.9 203.9 327.15Q206.45 349.6 209.45 371.95Q218.05 313.95 223.35 255.35Q226.4 221.35 228.95 188Q235.65 199.2 237 216.1Q239.4 245.85 243.6 275.45Q250.2 322.45 256.95 369.45Q262.25 311.25 265.7 252.7Q269.2 193.15 275.05 134.1Q277.2 112.15 281.95 91.85L282.45 91.75M319.2,90.5L320.35 209Q320.9 268.8 316.7 327.6Q313.65 369.45 307 409.75L305.7 409.95Q304.95 350.95 310.6 291.35Q316.15 232.6 314.15 173.05Q312.8 132.95 316.85 93.45Q317.1 90.85 319.2 90.5M123.45,84Q148.05 96.9 146.9 123.75Q146.7 127.6 143.95 130L143.15 130.1Q142.6 129.85 142.35 129.2L142.2 128.5L142.55 127.75L143.35 126.2L143.45 125.5Q143.1 112.6 133.9 103.1Q129.45 98.5 123.2 96.25Q91.65 96 82.8 126.75Q75 153.9 93.55 177.65Q109.35 197.95 121.6 220.5Q145.8 264.9 159.8 312.95Q167.85 340.45 158.5 367.35Q144.55 407.45 102.6 417.2Q85.75 421.1 71.25 411.85Q32.45 387.05 41.5 343.95Q40.95 366.15 56.2 384.4Q86.35 420.35 125.55 395.2Q167 368.6 156.4 321.4Q148.7 286.9 132 255.3Q117.35 227.5 99.9 201.2Q84.65 178.25 77.5 152.05Q71.35 129.55 81.9 108.55Q92.75 86.9 115.95 83.75L123.45 84" />
</g>
</svg>
