<?xml version="1.0" encoding="utf-8"?>
<svg version="1.1" id="Layer_1"
xmlns="http://www.w3.org/2000/svg"
xmlns:xlink="http://www.w3.org/1999/xlink"


xml:space="preserve">
q-0.85 0.95 -1 2.2q-0.15 1.5 0 3.05q0.1 1.55 0.75 3q1.1 1.05 2.35 1.55q-2.85 33.05 -4.05 67.9q-2 59.15 -7.7 117.8q-5.85 59.4 -13.85 118.5q-2.05 15 -6 29.5q-4.65 16.9 2 29.7q4.6 -10.8 6.05 -23.15q6.75 -58.6 13.75 -117.15q4 -1.35 8.05 -3.65q16.65 -9.25 30.35 -21.2q-0.65 4.25 0.95 9.55q9 29.85 13.7 60.6q8.95 58.35 20.85 115.25q2.45 0.2 2.35 -2.2q-1.6 -38.3 -7.45 -76.8q-8.55 -56.8 -24.6 -111.7q26 -25 40.35 -60.65q17 -42.25 2.1 -84.7q-12.8 -36.35 -50 -45.15q-14.1 0.05 -27.6 4.15q37.95 -11.85 60.05 20.1q28.6 41.3 6.55 88.7q-14.95 32.25 -39.5 57.65q-12.5 12.9 -29.05 17.95q-5.6 1.7 -9 4.25q4.3 -41.5 7.25 -83.2q3.65 -52.75 0.75 -105.05q-2.55 38.35 -4.25 77.95q-2.55 59.35 -7 118.5q-4.45 59.4 -11.5 118.4q-3.6 30.15 -2.5 59.35q1.25 0 1.6 -0.55q4.95 -8.45 5.75 -18.85q4.85 -59.8 -0.45 -118.5q7.15 59.85 23.45 115.75q5.75 -10.75 1.6 -24.15q-6 -19.45 -8.65 -39.5q-7.75 -58.8 -20.45 -116.05q-7.5 13.95 -10.45 31.85q-9.5 58.45 -25.05 115.9q-0.35 -15.7 -1.55 -31.3q-4.5 -58.65 -10.95 -116.2q-12.5 37.15 -18.6 78.6q-4.3 29.25 -9.85 58.3q-3.2 16.5 1.75 28.6q1.8 -9 3.05 -18.05q8 -58.7 21.65 -115.95q4 39.2 5.6 78.75q1.2 30.2 7.4 58.45q8.1 -13.1 11.65 -30.2q12.05 -58.4 24.6 -115.5q-6.55 -33.35 -44.75 -31.55q-32.55 11.85 -30 48.05q2.9 41.4 29.3 73.9q21.65 26.55 44.2 52.65q11 12.7 19.25 27.15q27.05 47.25 20.55 99.8q-2 16 -12.85 28.05q-24.8 27.45 -62.15 34.15q-29.5 5.3 -58.6 -0.45q-20.3 -4 -29.2 -22.1q-10.75 -21.7 -10.85 -46.5q-0.15 -21.75 13.85 -36q-4.5 2.35 -5.9 6.95q-7 23.1 -7.25 47.8q-0.25 32.15 20.05 56.05q8.1 9.55 20.4 12.15q57.5 12.25 109.55 -15.75q15.65 -8.4 22.65 -24.6q23.95 -55.5 1.85 -112.25q-21.05 -54.15 -63.55 -94.45q-35.15 -33.3 -39.15 -80.75q-0.8 -9.8 3.6 -18.5q12.3 -24.45 41.8 -15.05q23.1 7.35 19.7 27.95q4.15 -4.05 3 -9.95q-3.4 53.2 -7.45 107.2q-2.3 30.6 1.6 59.35q1.15 -0.35 1.25 -0.9q4.05 -26.85 5.8 -54.5q3.5 -55.9 0.4 -111.3q16.45 -1.75 32.8 -5.3q4.7 -7.8 -0.6 -14.9q-27.15 4.65 -54.5 8.25q-10.7 3.75 -22 5.75q-0.95 3.5 0.35 6.7q1.25 0.75 2.5 0.8<g id="1912" transform="matrix(1, 0, 0, 1, -13.6, 0)">
<path style="fill:#000000;fill-opacity:1" d="M379,100.75L379.2 98.5L379.35 100.65Q392.85 96.55 406.95 96.5Q444.15 105.3 456.95 141.65Q471.85 184.1 454.85 226.35Q440.5 262 414.5 287Q430.55 341.9 439.1 398.7Q444.95 437.2 446.55 475.5Q446.65 477.9 444.2 477.7Q432.3 420.8 423.35 362.45Q418.65 331.7 409.65 301.85Q408.05 296.55 408.7 292.3Q395 304.25 378.35 313.5Q374.3 315.8 370.3 317.15L368.25 334.65Q361.25 393.2 354.5 451.8Q353.05 464.15 348.45 474.95Q341.8 462.15 346.45 445.25Q350.4 430.75 352.45 415.75Q360.45 356.65 366.3 297.25Q372 238.6 374 179.45Q375.2 144.6 378.05 111.55Q376.8 111.05 375.7 110Q375.05 108.55 374.95 107Q374.8 105.45 374.95 103.95Q375.1 102.7 375.95 101.75L379 100.75M380.1,112.05Q383 164.35 379.35 217.1Q376.4 258.8 372.1 300.3Q375.5 297.75 381.1 296.05Q397.65 291 410.15 278.1Q434.7 252.7 449.65 220.45Q471.7 173.05 443.1 131.75Q421 99.8 383.05 111.65L380.1 112.05M333.45,99.75Q338.75 158.45 333.9 218.25L324.35 336.65L315.05 454.55Q314.25 464.95 309.3 473.4Q308.95 473.95 307.7 473.95Q306.6 444.75 310.2 414.6Q317.25 355.6 321.7 296.2Q326.15 237.05 328.7 177.7Q330.4 138.1 332.95 99.75L333.45 99.75M261.7,121.75Q249.15 178.85 237.1 237.25Q233.55 254.35 225.45 267.45Q219.25 239.2 218.05 209Q216.45 169.45 212.45 130.25Q198.8 187.5 190.8 246.2Q189.55 255.25 187.75 264.25Q182.8 252.15 186 235.65Q191.55 206.6 195.85 177.35Q201.95 135.9 214.45 98.75Q220.9 156.3 225.4 214.95Q226.6 230.55 226.95 246.25Q242.5 188.8 252 130.35Q254.95 112.45 262.45 98.5Q275.15 155.75 282.9 214.55Q285.55 234.6 291.55 254.05Q295.7 267.45 289.95 278.2Q273.65 222.3 266.5 162.45L261.7 121.75M150.75,135.75Q154.15 115.15 131.05 107.8Q101.55 98.4 89.25 122.85Q84.85 131.55 85.65 141.35Q89.65 188.8 124.8 222.1Q167.3 262.4 188.35 316.55Q210.45 373.3 186.5 428.8Q179.5 445 163.85 453.4Q111.8 481.4 54.3 469.15Q42 466.55 33.9 457Q13.6 433.1 13.85 400.95Q14.1 376.25 21.1 353.15Q22.5 348.55 27 346.2L28.2 347L29.2 347.75L30 348.45L30.75 349.2L31 349.95L31.15 350.75L31.4 351.4L32.5 352.95Q18.5 367.2 18.65 388.95Q18.75 413.75 29.5 435.45Q38.4 453.55 58.7 457.55Q87.8 463.3 117.3 458Q154.65 451.3 179.45 423.85Q190.3 411.8 192.3 395.8Q198.8 343.25 171.75 296Q163.5 281.55 152.5 268.85Q129.95 242.75 108.3 216.2Q81.9 183.7 79 142.3Q76.45 106.1 109 94.25Q147.2 92.45 153.75 125.8Q154.9 131.7 150.75 135.75M209.95,306.7Q208.65 303.5 209.6 300L209.95 299.2Q221.25 297.2 231.95 293.45Q259.3 289.85 286.45 285.2Q291.75 292.3 287.05 300.1L286.45 300.7Q270.1 304.25 253.65 306Q256.75 361.4 253.25 417.3Q251.5 444.95 247.45 471.8Q247.35 472.35 246.2 472.7Q242.3 443.95 244.6 413.35Q248.65 359.35 252.05 306.15L212.45 307.5Q211.2 307.45 209.95 306.7" />
</g>
</svg>
