<?xml version="1.0" encoding="utf-8"?>
<svg version="1.1" id="Layer_1"
xmlns="http://www.w3.org/2000/svg"
xmlns:xlink="http://www.w3.org/1999/xlink"


xml:space="preserve">
q-2.2 43.15 -5.3 86.25q-3.15 44.15 -4.15 88.55q-22.2 1.75 -44.05 6.95q0.65 -20.05 0.85 -40.2q0.6 -59.4 6 -117.75q-1.15 1.15 -2.05 2.95q-9.25 51.8 -10.4 105q-0.9 44.2 -3.15 88.4q-1.4 29.75 -5.1 59.05q-2.15 17.05 4.05 29.4q6.4 -20.95 5 -41q-0.6 -0.05 -0.55 -1.75q2.4 -59.5 7.05 -118.5q2.6 -33 3.95 -66.2q22.55 -0.35 44.1 -5.3q-1.35 41.4 -4.05 82.45q-0.75 -1.55 -0.6 0.25q0.4 3.8 -0.2 7.25q-2.6 16 3.3 28.5q2 -0.6 2.35 -2.75q5.65 -38 8.45 -76.4q4.2 -59 4 -118.55q-0.1 -18.8 0.35 -37.55q1.55 -5.05 -0.9 -9.7q1.1 -33.8 3.85 -67.3q4.95 -59.3 5.6 -118.35q-3.75 0.55 -3.95 4.7q-0.45 29.7 -1.9 59.3q-2.85 59.3 -5.2 118.45q-1.8 44.55 -4.65 89.1q-1.15 18.55 -4.85 36.4q-2.8 13.7 4.25 22.25q4.95 -8.2 5.05 -18.75q0.25 -29.4 3.5 -58.35q6.65 -58.7 6.75 -118.6q0.1 -59.5 3 -118.55q2.7 -54.45 3.95 -107.7q0.4 0.35 0.9 0.35q1.9 -3.5 1.45 -7.5q-0.1 -1.2 -0.55 -2.25q-26.65 -1.55 -53.5 -1.35q-20.1 2.45 -40.4 7.35q-6.1 1.5 -10.6 -1.35q-2.9 2.5 -2.3 6.75q1.25 1.35 2.85 1.1q33.1 -4.55 66.25 -4.35q-0.7 3.6 -0.75 7.75q-6 20.8 -8.9 42.4q-2.75 14.5 -6.6 28.75q-5.65 21.05 -7.15 42.7q-0.55 7.95 2.75 15.15q9.5 -21.95 12.35 -46q3.45 -29.2 8.6 -58.2q1.25 -2.8 1.8 -5.85q6.35 73.55 10.6 147.1q0.15 2.6 1 5.15q0.8 2.3 2 4.45q2.35 -45.95 -3.05 -92.75q-3.35 -29.15 -6.2 -58.35q-1.85 -60.25 -8.15 -120.15q-4.75 25.25 -5.2 53.25q-0.9 59.25 -1.55 118.5q-0.7 59.9 -4 119.25q-2.5 44.7 -7.25 89.05q-1.8 16.6 3.75 29.9q6.55 -25.35 7.1 -53.75q1.15 -59.5 3.8 -118.5q2.7 -59.5 3.9 -119.2q1.25 -60 -0.55 -118.5q-19.3 46.45 8.2 90.55q8.55 13.75 15.95 28.1q14.85 28.85 31.1 56.9q29 50.2 37.55 107.2q6.8 45.75 -22.1 80.75q-5.5 6.7 -13.65 9.3q-48.35 15.45 -79.55 -23.2q-5.7 -7 -6.6 -15.7q-1.35 -13.25 -0.35 -25.15q-6.95 5.4 -6.65 15q1.4 47.6 47.5 63.85q15.5 5.45 31.25 2q40.95 -8.9 50.8 -50.25q13.65 -57.1 -9.15 -112.2q-22.05 -53.35 -49 -104.65q-3.5 -6.55 -7.75 -12.35q-27.95 -38 -30.65 -83.7q-1.05 -17.95 15.4 -24q30.95 -11.4 40.95 16.1q-0.5 1.05 -0.5 2.25q0.2 1.15 0.75 2.2q4 -4.15 3.05 -10.25q-4.55 -30.4 -38 -28.75q-3.65 1.05 -7.65 2.45q-8.4 2.95 -11.65 10.75q-8.25 28.15 -16 56.3q-6.1 22.2 -5.9 43.25q10.7 -24.15 16.5 -51.55q3.95 -18.55 8.7 -36.9q1.6 9.95 7.35 13.3q2.9 -5.9 1.5 -12.6q-9.35 -44.5 -17.5 -89.3q8.85 -32.1 20.2 -63.55q8.05 -22.15 6.1 -43.35q-2.15 -0.4 -2.7 1.6q-12.45 45.95 -25.95 92.25q-8.75 -48.8 -16.6 -97.35q-4.3 8.7 -2.25 20.35<g id="1904" transform="matrix(1, 0, 0, 1, -32.3, 0)">
<path style="fill:#000000;fill-opacity:1" d="M419.95,77.75Q419.3 136.8 414.35 196.1Q411.6 229.6 410.5 263.4L411.4 263.35L412.95 263L415.4 263.7L416.2 264.25Q418.65 268.9 417.1 273.95L416.45 275.5L410.1 277.2Q409.65 295.95 409.75 314.75Q409.95 374.3 405.75 433.3Q402.95 471.7 397.3 509.7Q396.95 511.85 394.95 512.45Q389.05 499.95 391.65 483.95Q392.25 480.5 391.85 476.7Q391.7 474.9 392.45 476.45L393.45 479.45L393.7 479.2L401.95 360.65Q404.65 319.6 406 278.2Q384.45 283.15 361.9 283.5Q360.55 316.7 357.95 349.7Q353.3 408.7 350.9 468.2Q350.85 469.9 351.45 469.95Q352.85 490 346.45 510.95Q340.25 498.6 342.4 481.55Q346.1 452.25 347.5 422.5L353.4 303.15Q355.65 258.95 356.55 214.75Q357.7 161.55 366.95 109.75Q367.85 107.95 369 106.8L369.2 106.75L369.85 109.75L369.95 110.5L369.2 112.75Q363.8 171.1 363.2 230.5Q363 250.65 362.35 270.7Q384.2 265.5 406.4 263.75L406.55 257.25Q407.55 212.85 410.7 168.7Q413.8 125.6 416 82.45Q416.2 78.3 419.95 77.75M338.55,88.25Q305.4 88.05 272.3 92.6Q270.7 92.85 269.45 91.5L269.2 90.75L269.05 90L268.75 87.75L268.65 87Q268.05 82.75 270.95 80.25Q275.45 83.1 281.55 81.6Q301.85 76.7 321.95 74.25Q348.8 74.05 375.45 75.6L376.2 76L376.65 76.75L377 77.5Q377.45 78.55 377.55 79.75L377.65 80.5Q378.1 84.5 376.2 88L375.4 88.6L373.55 89.65L372.95 90.25L371.95 90.5Q371.45 90.5 371.05 90.15L370.45 89.5L342.2 88.25Q340.95 141.5 338.25 195.95Q335.35 255 335.25 314.5Q335.15 374.4 328.5 433.1Q325.25 462.05 325 491.45Q324.9 502 319.95 510.2Q312.9 501.65 315.7 487.95Q319.4 470.1 320.55 451.55L326.05 362.85Q328.9 318.3 330.7 273.75Q333.05 214.6 335.9 155.3Q337.35 125.7 337.8 96Q337.85 91.85 338.55 88.25M180.9,85.5Q187.2 145.4 189.05 205.65L209.05 89.05L211.2 82L211.2 87.25L212.95 88.75L215.9 117.95Q218.75 147.15 222.1 176.3Q227.5 223.1 225.15 269.05L223.8 267.35Q222.6 265.2 221.8 262.9Q220.95 260.35 220.8 257.75Q216.55 184.2 210.2 110.65L188.45 243.25L187.05 239.6Q186.5 242.65 185.25 245.45L184.6 245.1L178.3 124.7L176.95 133.55L170.4 171.55Q165.25 200.55 161.8 229.75Q158.95 253.8 149.45 275.75Q146.15 268.55 146.7 260.6Q148.2 238.95 153.85 217.9Q157.7 203.65 160.45 189.15L165.5 160.1L169.8 130.9Q172.7 109.3 178.7 88.5L180.45 83.75L180.9 85.5M251.75,196.5Q250.55 256.2 247.85 315.7Q245.2 374.7 244.05 434.2Q243.5 462.6 236.95 487.95Q231.4 474.65 233.2 458.05Q237.95 413.7 240.45 369Q243.75 309.65 244.45 249.75Q245.1 190.5 246 131.25Q246.45 103.25 251.2 78Q253 136.5 251.75 196.5M80.35,74.7Q84.35 73.3 88 72.25Q121.45 70.6 126 101Q126.95 107.1 122.95 111.25L122.4 110.65Q121.85 109.6 121.65 108.45L121.45 106.25Q121.45 105.05 121.95 104Q111.95 76.5 81 87.9Q64.55 93.95 65.6 111.9Q68.3 157.6 96.25 195.6Q100.5 201.4 104 207.95Q130.95 259.25 153 312.6Q175.8 367.7 162.15 424.8Q152.3 466.15 111.35 475.05Q95.6 478.5 80.1 473.05Q34 456.8 32.6 409.2Q32.3 399.6 39.25 394.2Q38.25 406.1 39.6 419.35Q40.5 428.05 46.2 435.05Q77.4 473.7 125.75 458.25Q133.9 455.65 139.4 448.95Q168.3 413.95 161.5 368.2Q152.95 311.2 123.95 261Q107.7 232.95 92.85 204.1Q85.45 189.75 76.9 176Q49.4 131.9 68.7 85.45Q71.95 77.65 80.35 74.7M267.2,276Q275.05 324.55 283.8 373.35Q297.3 327.05 309.75 281.1Q310.3 279.1 312.45 279.5Q314.4 300.7 306.35 322.85Q295 354.3 286.15 386.4L287.2 392.3Q295.35 437.1 304.7 481.6Q306.1 488.3 303.2 494.2Q297.45 490.85 295.85 480.9L282.65 399.5Q277.9 417.85 273.95 436.4Q268.15 463.8 257.45 487.95Q257.25 466.9 263.35 444.7Q271.1 416.55 279.35 388.4L280.25 385.3L276.7 364.2L264.95 296.35Q262.9 284.7 267.2 276" />
</g>
</svg>
