<?xml version="1.0" encoding="utf-8"?>
<svg version="1.1" id="Layer_1"
xmlns="http://www.w3.org/2000/svg"
xmlns:xlink="http://www.w3.org/1999/xlink"


xml:space="preserve">
q-8.15 32.3 -6.85 67.45q2.15 58.95 -0.35 118.4q-2.5 59.8 -8.8 119.2q-1.8 16.7 3 29.8q2.05 -0.6 2.4 -2.75q2.9 -17 4.15 -34.35q3.8 -51.55 5.5 -103.45q14.45 -22.6 26.75 -46.25q0.85 10 5.85 20.85q25.6 52.45 42.7 107.65q4.8 15.6 13.5 25.75q1.2 -1.25 1.45 -3q2.1 -17.4 -3.7 -33q-0.55 1.15 -0.1 2.3q1.9 4.9 0.85 9.7q-13.6 -34.8 -27.9 -70q-21.25 -52.15 -45.35 -100.7q23.8 -37.65 44.25 -77.3q6.6 -12.85 14.3 -25q10.5 -16.65 8.45 -33.2q-13.75 21.2 -25.9 44.35q-28 53.3 -61 103.3q-8.7 13.2 -12.85 27.4q1.6 -59.75 0.5 -119.25q-0.3 -15.05 1.05 -29.85q1.5 -15.75 -0.55 -30.15q-4.7 24.75 -18.75 46.85q-10.6 16.65 -29.1 22.65q-23.25 7.65 -39.15 -10.15q-13.5 -15 -17.3 -35.1q-6.9 -36.8 -6.8 -74.45q2.8 -3.25 2.55 -7.9q-0.1 -2.3 -1.05 -4.45q-31.95 -3.3 -63.7 -0.85q-2.75 -53.35 15.45 -102.8q13.4 -36.25 48.15 -51.3q17.9 -7.65 34.15 4.15q4.8 3.55 8.8 7.85q3.1 -15.55 -13.05 -23.55q-34.5 -16.95 -59.7 16.95q-47.4 63.9 -41.75 146.55q0.85 12.8 0.35 26.2q-0.75 21.35 0.55 42.7q2.3 24.75 17.65 43.7q5.1 6.3 11.95 10.7q5.05 3.3 10.9 5.05q6.85 1.95 14.1 1.2q11.25 -0.95 21.6 -5.95q13.45 -6.5 22.65 -18.55q11.25 -14.75 15.9 -32.6q4.8 -18.4 0.5 -35.8q-25.35 19.8 -11.75 53.8q11.4 28.5 40.25 44.3q7.1 3.9 11.15 11.2q5.3 9.7 7.35 20.45q-9.25 30.1 -37.8 26.5q-20 -2.35 -22.25 -23.75q-1.05 -9.85 -10.45 -11.75q-2.45 37.75 32.55 50.65q18.5 6.85 30.95 -9.95q12.05 -16.35 11.75 -36.55q-0.3 -20.45 -15.5 -34.3q-13.35 -12.05 -28.85 -22.9q-15.05 -10.6 -17.95 -28.85q-4.25 -26.7 20.25 -22.85q25.15 4.3 30.8 31q6.5 -22.4 -11.9 -37.6q-12.35 -10.2 -28.6 -9.4q30.35 4.7 60 1.75q-26.3 40.35 -47.5 83.6q-3.2 6.5 -7.65 11.95q-15.65 19.3 -12.05 40.15q45.75 9.75 92.95 6.75q4.8 -8.6 -0.6 -16.4q-2.75 1.05 -3.5 -1q-0.3 1.8 -2 2q-39.75 1.55 -78.25 -4q23.7 -43.8 47.85 -87.3q7.6 -13.7 18.05 -25.15q12.05 -13.2 6.85 -27.5q-36.5 6.6 -74 5.5q-2.35 4.85 -0.25 9.65<g id="1932" transform="matrix(1, 0, 0, 1, -82.85, 0)">
<path style="fill:#000000;fill-opacity:1" d="M359.45,82.75Q361.5 97.15 360 112.9Q358.65 127.7 358.95 142.75Q360.05 202.25 358.45 262L358.45 262.05Q362.6 247.85 371.3 234.65Q404.3 184.65 432.3 131.35Q444.45 108.2 458.2 87Q460.25 103.55 449.75 120.2Q442.05 132.35 435.45 145.2Q415 184.85 391.2 222.5Q415.3 271.05 436.55 323.2Q450.85 358.4 464.45 393.2Q465.5 388.4 463.6 383.5Q463.15 382.35 463.7 381.2Q469.5 396.8 467.4 414.2Q467.15 415.95 465.95 417.2Q457.25 407.05 452.45 391.45Q435.35 336.25 409.75 283.8L393.25 249.3Q388.25 238.45 387.4 228.45L385.7 231Q373.4 254.65 358.95 277.25L358 277.15Q356.3 329.05 352.5 380.6Q351.25 397.95 348.35 414.95Q348 417.1 345.95 417.7Q341.15 404.6 342.95 387.9Q349.25 328.5 351.75 268.7Q354.25 209.25 352.1 150.3Q350.8 115.15 358.95 82.85L359.45 82.75M324.7,332.85Q329 350.25 324.2 368.65Q319.55 386.5 308.3 401.25Q299.1 413.3 285.65 419.8Q275.3 424.8 264.05 425.75Q256.8 426.5 249.95 424.55Q244.1 422.8 239.05 419.5Q232.2 415.1 227.1 408.8Q211.75 389.85 209.45 365.1L207.9 351.05L206.25 336.95L205.1 322.85Q203.8 301.5 204.55 280.15Q205.05 266.75 204.2 253.95Q198.55 171.3 245.95 107.4Q271.15 73.5 305.65 90.45Q321.8 98.45 318.7 114Q314.7 109.7 309.9 106.15Q293.65 94.35 275.75 102Q241 117.05 227.6 153.3Q209.4 202.75 212.15 256.1Q243.9 253.65 275.85 256.95L276.95 259.15Q277.9 261.3 278 263.6Q278.25 268.25 275.45 271.5L212.2 269.05L212.4 286.95Q212.3 324.6 219.2 361.4Q223 381.5 236.5 396.5Q252.4 414.3 275.65 406.65Q294.15 400.65 304.75 384Q318.8 361.9 323.5 337.15L325.25 336.2L324.7 332.85M154.55,88.65Q172.95 103.85 166.45 126.25Q160.8 99.55 135.65 95.25Q111.15 91.4 115.4 118.1Q118.3 136.35 133.35 146.95Q148.85 157.8 162.2 169.85Q177.4 183.7 177.7 204.15Q178 224.35 165.95 240.7Q153.5 257.5 135 250.65Q100 237.75 102.45 200Q111.85 201.9 112.9 211.75Q115.15 233.15 135.15 235.5Q163.7 239.1 172.95 209Q170.9 198.25 165.6 188.55Q161.55 181.25 154.45 177.35Q125.6 161.55 114.2 133.05Q100.6 99.05 125.95 79.25Q142.2 78.45 154.55 88.65M100.95,265.1L101.45 264.5Q138.95 265.6 175.45 259Q180.65 273.3 168.6 286.5Q158.15 297.95 150.55 311.65Q126.4 355.15 102.7 398.95Q141.2 404.5 180.95 402.95Q182.65 402.75 182.95 400.95Q183.7 403 186.45 401.95Q191.85 409.75 187.05 418.35L186.45 418.95Q139.25 421.95 93.5 412.2Q89.9 391.35 105.55 372.05Q110 366.6 113.2 360.1Q134.4 316.85 160.7 276.5Q131.05 279.45 100.7 274.75Q98.6 269.95 100.95 265.1" />
</g>
</svg>
