<?xml version="1.0" encoding="utf-8"?>
<svg version="1.1" id="Layer_1"
xmlns="http://www.w3.org/2000/svg"
xmlns:xlink="http://www.w3.org/1999/xlink"


xml:space="preserve">
q-0.95 -13.8 -15.7 -17.8q-28.6 -7.75 -38.95 23.65q-9.95 30.2 2.4 59.1q5.25 12.3 18.7 14.55q21.7 3.95 35.75 -12.7q6.9 -8.1 1.8 -17.3q-12.3 13.15 -30.25 15.65q-14.35 1.85 -24.25 -8.65q1.9 -3.05 1.25 -6.75q-14.7 -4.3 -29.1 0.85q18.45 -10.5 40.35 -3.05q19.25 2.55 31.15 17.95q0.4 -23.65 -22.7 -33.6q-23.4 -4 -29.65 21.45q-5.25 21.25 7.45 39.55q12.05 17.25 24.9 34q12.1 15.8 13.8 35.7q2.1 24.35 -18.6 32.8q-20.7 8.5 -41.9 3.1q-24.65 -6.25 -20.65 -31.1q1 -6.2 1.3 -12.45q-15.15 20.75 -0.3 45.3q14.1 23.3 41.4 20.9q17.35 -1.5 31.25 -11.5q9.7 -6.95 13.5 -18.5q12.8 -39.15 -11.5 -71.2q-19.65 -25.8 -29.75 -54.8q-2.65 -7.5 3.25 -13.7q3.65 -3.8 8.1 -6.9<g id="1916" transform="matrix(1, 0, 0, 1, -143.35, 0)">
<path style="fill:#000000;fill-opacity:1" d="M371.3,285.65Q349.4 278.2 330.95 288.7L323.95 310.35L330.35 307.8Q344.75 302.65 359.45 306.95L360.65 309.15L361.45 311.45Q362.1 315.15 360.2 318.2L322.7 323.15L324.95 343.45Q334.85 353.95 349.2 352.1Q367.15 349.6 379.45 336.45Q384.55 345.65 377.65 353.75Q363.6 370.4 341.9 366.45Q328.45 364.2 323.2 351.9Q310.85 323 320.8 292.8Q331.15 261.4 359.75 269.15Q374.5 273.15 375.45 286.95L371.3 285.65M206.35,197.9Q200.45 204.1 203.1 211.6Q213.2 240.6 232.85 266.4Q257.15 298.45 244.35 337.6Q240.55 349.15 230.85 356.1Q216.95 366.1 199.6 367.6Q172.3 370 158.2 346.7Q143.35 322.15 158.5 301.4L162.15 301.95Q161.85 308.2 160.85 314.4Q156.85 339.25 181.5 345.5Q202.7 350.9 223.4 342.4Q244.1 333.95 242 309.6Q240.3 289.7 228.2 273.9Q215.35 257.15 203.3 239.9Q190.6 221.6 195.85 200.35Q202.1 174.9 225.5 178.9Q248.6 188.85 248.2 212.5L245.6 208.95Q233.7 193.55 214.45 191Q210 194.1 206.35 197.9" />
</g>
</svg>
