<?xml version="1.0" encoding="utf-8"?>
<svg version="1.1" id="Layer_1"
xmlns="http://www.w3.org/2000/svg"
xmlns:xlink="http://www.w3.org/1999/xlink"


xml:space="preserve">
q-6.9 58.7 -15.5 117.15q-8.55 58.2 -14.4 116.85q-0.95 9.75 -2.5 19.35q-8.15 -53.35 -13.85 -107.05q-1.6 -14.95 -4.25 -29.75q-10.45 -58.35 -23.75 -115.05q-0.85 15.7 2.8 34.5q4.6 23.85 9.95 47.5q11.4 50.55 16.15 102.4q5.3 58.35 12.85 114.55q3.05 -11.15 2.9 -23.15q5.25 -36.45 8.4 -73.55q3.7 -44.35 11.2 -88.25q10.05 -58.9 11.75 -117.25q-1.55 0.1 -1.75 1.75q-16.65 -12.5 -37.8 -15q-21.4 -2.35 -40.75 9.9q-18.4 11.6 -34 26.75q-15.95 15.45 -25.85 35.3q-9.4 18.75 -11.25 39.85q-0.9 33.35 15.45 62.15q10.25 17.95 27.75 29.4q14.9 9.75 31.95 15q14.35 4.35 29.3 5.2q19.6 1 38.45 -4.6q24.75 -7.25 35.8 -26.85q1.4 -2.45 -0.65 -5.1q-29.1 19.4 -63.75 24.05q-21 2.5 -41.1 -4.1q-19.35 -6.35 -34.8 -19.65q-9.85 -8.5 -17.45 -19.3q-14 -19.9 -16.1 -43.85q-0.55 -5.95 -0.75 -11.9q2.2 -4.45 1.05 -9.35q-0.45 -1.95 -1.7 -3.75q-66.85 0.65 -134.15 -3.4q7.15 -43.55 40.95 -73q22.4 -19.45 50.55 -28.4q17.8 -5.75 36.6 -1.1q8.8 2.3 17.3 5.65q-1.4 9.95 -2.05 21.95q-3.15 58.65 -8.6 116.95q-5.6 59.5 -13.75 118.6q-1.05 7.4 -2.65 14.65q-3.8 17.1 1.55 29.3q1.7 -3.15 2 -6.75q5.25 -58.65 12.5 -117.1q7.35 -58.9 12.45 -118.2q2.6 -30.35 -1.45 -59.4q-89.35 1.25 -177.5 22.4q84.55 -14.85 172.55 -20.8q-77.75 127.9 -165.05 250.05q-8.9 12.5 -18.75 24.3q-1.3 1.95 -2.4 4.05q-1 2 -1.55 4.2q-0.8 3.05 -2.6 5.35q3.35 -5.7 -0.25 -11.25q-115 2.95 -229.15 16.9q86.7 -121.7 166.75 -247.9q9.05 -14.3 16.3 -29.4q2.9 -6.1 6.05 -12.1<g id="1923" transform="matrix(1, 0, 0, 1, -33.5, 0)">
<path style="fill:#000000;fill-opacity:1" d="M502.2,86.75Q500.5 145.1 490.45 204Q482.95 247.9 479.25 292.25Q476.1 329.35 470.85 365.8Q471 377.8 467.95 388.95Q460.4 332.75 455.1 274.4Q450.35 222.55 438.95 172Q433.6 148.35 429 124.5Q425.35 105.7 426.2 90Q439.5 146.7 449.95 205.05Q452.6 219.85 454.2 234.8Q459.9 288.5 468.05 341.85Q469.6 332.25 470.55 322.5Q476.4 263.85 484.95 205.65Q493.55 147.2 500.45 88.5Q500.65 86.85 502.2 86.75M336.15,116.1Q317.35 111.45 299.55 117.2Q271.4 126.15 249 145.6Q215.2 175.05 208.05 218.6Q275.35 222.65 342.2 222Q343.45 223.8 343.9 225.75Q345.05 230.65 342.85 235.1L207.5 227.25Q207.7 233.2 208.25 239.15Q210.35 263.1 224.35 283Q231.95 293.8 241.8 302.3Q257.25 315.6 276.6 321.95Q296.7 328.55 317.7 326.05Q352.35 321.4 381.45 302Q383.5 304.65 382.1 307.1Q371.05 326.7 346.3 333.95Q327.45 339.55 307.85 338.55Q292.9 337.7 278.55 333.35Q261.5 328.1 246.6 318.35Q229.1 306.9 218.85 288.95Q202.5 260.15 203.4 226.8L200.7 226.5L201.9 218.65L203.8 218.55Q205.65 197.45 215.05 178.7Q224.95 158.85 240.9 143.4Q256.5 128.25 274.9 116.65Q294.25 104.4 315.65 106.75Q336.8 109.25 353.45 121.75Q344.95 118.4 336.15 116.1M423.65,147.15Q418.55 206.45 411.2 265.35Q403.95 323.8 398.7 382.45Q398.4 386.05 396.7 389.2Q391.35 377 395.15 359.9Q396.75 352.65 397.8 345.25Q405.95 286.15 411.55 226.65Q417 168.35 420.15 109.7Q420.8 97.7 422.2 87.75Q426.25 116.8 423.65 147.15M235.15,86.15L234.3 88.85L233.4 90.7Q230.25 96.7 227.35 102.8Q220.1 117.9 211.05 132.2Q131 258.4 44.3 380.1Q158.45 366.15 273.45 363.2Q277.05 368.75 273.7 374.45L36.7 389.95L34.5 392.7L33.5 383.2Q35.3 380.9 36.1 377.85Q36.65 375.65 37.65 373.65Q38.75 371.55 40.05 369.6L43.1 365.5Q52.95 353.7 61.85 341.2Q149.15 219.05 226.9 91.15Q138.9 97.1 54.35 111.95L54.25 103Q142.4 81.85 231.75 80.6L233.95 76.25L237.4 80.25L235.15 86.15" />
</g>
</svg>
