<?xml version="1.0" encoding="utf-8"?>
<svg version="1.1" id="Layer_1"
xmlns="http://www.w3.org/2000/svg"
xmlns:xlink="http://www.w3.org/1999/xlink"


xml:space="preserve">
q9.3 -7.7 12.7 -19.25q3.95 -12.2 -0.3 -23.8q-4.95 -13.55 -19.9 -15.6q-1.1 10 -1.05 20.1q-7.05 94.55 -1.8 189.6q0.8 14.95 0.55 29.95q-1.9 106.3 -4.9 212.6q-0.4 13.25 4.4 25.6q9.3 -84.1 5.75 -169.3q-0.6 -14.8 -0.45 -29.6q1.4 -117.2 -0.35 -234.45q2.2 -5.4 -0.55 -10.45q10.35 29 -16 40.9q4.5 -23.6 3.95 -47.5q6.15 1.1 11.25 5.05q-2.45 -14.45 -17.65 -12.3q-26.65 26.05 -13.5 61.5q18.75 11.65 33.25 -4.1q-14 10.45 -31 2.75q-11.85 -2.4 -24.15 1.55q3.4 -13.6 13.1 -23.85q-8.2 16.15 5.75 29q-3.2 4.65 -8.75 4.55q-0.65 7.15 4.5 12.2q24.55 1.3 12.1 -21.6q-2.9 -5.25 -5.1 -10.9q-15.25 6.45 -12.5 21q4.65 12.1 12.6 17.1q-0.5 -11.45 -7.35 -21.4q-4.55 -6.85 -11.8 -8.35q-20.55 -16.7 -22.55 14.65q-0.55 8.55 5.15 15.05q12.5 5.6 19.5 -3.75q-12.55 3.65 -21.95 -6.25q7.9 1.4 15.7 -3.5q-8.2 -1.45 -14.95 4.15q-11 13.05 1.8 25.45q-2.1 2.2 -0.85 5.6q0.6 1.75 2.1 3.1q10 -3.65 11.2 -13.95q0.25 -2.3 -0.2 -4.55q3.1 -4.75 -1.4 -11.4q1.9 27.95 6.3 56.95q8.85 58.65 18.05 115.8q2.8 -2.8 2.55 -7.25q2.45 -17 3.5 -34.3q3.6 -59.4 5.05 -117.85q-4.2 3.65 -4.55 10q-3.3 44.35 -3.9 88.35q-8.55 -58.8 -21.35 -116.05q-0.6 -0.15 -0.6 0.25q0.55 -27.15 -25.75 -20.6q-6.25 1.45 -10.6 7q-13.45 17.3 -17.55 38.9q-3.55 18.65 -5.9 37.55q-2.15 16.9 -3.55 34q-0.9 11.4 -1.55 22.9q-1.25 21.05 -2 42.15q-0.75 22.15 -3.25 42.55q-2.8 2.05 -2.5 6.6q0.2 3.15 2.4 5.2q-5.65 137.1 16.3 273.6q2.05 12.7 14.45 17.45q10.2 4 21.15 3.3q3.15 -0.45 6.3 -1.75q15.5 -11.55 20 -30.6q-2.1 37 -37.45 43.5q-16.5 3.05 -25.45 -10.4q-7.75 -11.55 -10.35 -25.85q-2.2 -12.05 -3.65 -24.15q-1.9 -15.45 -2.7 -31.05q-0.95 -29.95 -0.85 -60.15q0.1 -24.8 0.85 -49.65q24.75 6.95 49.8 1.3q2.35 -4.2 1.8 -9.05q-0.35 -2.8 -2.1 -4.7q-24.65 3.25 -49.05 -0.8q-4.7 -102.25 24.9 -198.35q4.8 -15.65 21.3 -17.1q6.9 -0.3 12.2 4.25q2.5 2.05 4.25 4.75q-3.55 1.6 -7.25 2.7q4.1 0.1 5.5 3.1q-6.05 19.55 -3.65 38.75q0.45 -12.05 -8.4 -20.35q3.8 -6.15 -0.15 -12.4q-10.35 18.6 0.55 35.8q6.3 9.85 17.7 2.7q-7.9 -6.75 -4.4 -17.85q3.75 -11.75 16.65 -12.15q0.65 -2.85 -1.45 -5q-0.35 -0.4 -0.95 -0.55q-5.9 30.15 -4.65 60.3q0.15 3.05 2.1 5.7q0.1 22.1 3.65 44.7q2.1 13.25 5.1 26.3q4.5 -21.7 9.6 -43.2q3 -12.75 2.65 -25.8q-11.15 18.55 -13.35 39.95q7.15 3.2 13.35 1q2.35 7.2 5.15 13.75q0.8 -22.15 -11 -41.75q-3.85 32.2 1.3 61q14.15 -1.1 18.95 -15.15q4.95 -14.35 -3.9 -26.5q-4.4 -6.05 -11.35 -9.3q0.35 16.7 -15.25 18.4q11.2 1.75 11.4 13.1q-8.25 1.9 -15 7.4q-16 13.1 -20.25 32.3q-10.55 48.05 6.5 94.85q1.9 5.2 4.45 9.9q20.15 37.2 32.05 78.4q16.1 55.9 24.7 113.65q8.9 58.7 -15.3 111.45q-5.3 11.6 -14.9 19.7q-19.9 16.85 -46.55 6.95q-2.35 -0.9 -3.7 -2.55q-12.45 -14.9 -11.7 -35.8q0.55 -17.5 -4.9 -30.8q-4.2 12.55 -3.5 27.05q0.75 14.2 2.85 28q3.1 20.7 19.4 30.95q15.8 4.85 32.65 1.45q7.45 -1.55 13.55 -5.8q15.3 -10.75 23 -28.35q8.8 -20.1 11.6 -42.05q7.5 -58.6 -2 -116.6q-9.15 -56.05 -26.5 -109.85q-10.45 -32.35 -26.4 -62.5q-13.95 -26.45 -18.05 -56.25q-3.45 -24.8 7.2 -47.1q11.95 -25.1 37.15 -25.65q1 1 2.2 1.75q5.05 3.15 9.3 7.25q0.8 2.85 3.15 3.65q0.1 -24.6 -24.5 -29.25q-6.35 15.25 -6.25 32.35q2.35 -24.25 -4.35 -47.6q-10.85 20.55 -13.5 43.45q-0.65 51.7 -2.25 101.95q20.1 -7.3 41 -2.25q3.2 -4.5 0.75 -9.75q-2 -3 -3 -2q-16.2 0.4 -30.15 3.75q4.25 -47.7 1.45 -95.25q-2.45 1.7 -2.5 5.5q-7.75 12.55 -5.1 28.5q0.95 5.55 1.35 11.25q-2.05 17.75 -3 36.4q-0.9 17.1 0.9 32.55q10.2 -0.2 14.45 -9.4q3.55 -7.8 3.7 -16.4q0.25 -13.65 -12.25 -19.65q11.6 18.75 -7.7 28.45q-2.7 16.95 0.9 31.7q3.7 -15.9 1.5 -32q-4.15 21.4 -0.4 41.45q2 13.7 11.85 21.4q-1.5 -13.75 -9.9 -25q-6 4.95 -9.1 12.7q-5.95 14.25 -3.8 31.9q0.5 4.25 0.3 8.6q-34.15 7.95 -28.2 47.6q4.15 27.9 27.9 20.25q13.2 -4.35 10.55 -15.05q-19.1 19.15 -31.9 -3.7q-7.7 -13.75 0.5 -27.9q7.75 -13.45 23.65 -15.4q5.2 -26.9 7.65 -54.65q5.2 -59.25 4.1 -117.85q-5.15 40.65 -7.6 84q-1.7 29.85 -6 59.05q-2.5 16.7 1.85 29.45<g id="1924" transform="matrix(1, 0, 0, 1, -20.3, 2)">
<path style="fill:#000000;fill-opacity:1" d="M504.85,62.95L503.75 64.85L438.55 77.85L438.9 102.85Q440.65 220.1 439.25 337.3Q439.1 352.1 439.7 366.9Q443.25 452.1 433.95 536.2Q429.15 523.85 429.55 510.6Q432.55 404.3 434.45 298Q434.7 283 433.9 268.05Q428.65 173 435.7 78.45L355.95 92.75L355.45 84L434.25 64.5Q434.2 54.4 435.3 44.4L435.65 42.15L441.95 1.25Q456.9 3.3 461.85 16.85Q466.1 28.45 462.15 40.65L461.5 42.8Q458.1 54.35 448.8 62.05L503.45 51L504.3 52.5Q507.05 57.55 504.85 62.95M454.7,13.5Q449.6 9.55 443.45 8.45Q444 32.35 439.5 55.95Q465.85 44.05 455.5 15.05L454.7 13.5M405.7,8.25Q396 18.5 392.6 32.1Q404.9 28.15 416.75 30.55L416.95 37.25L391.45 39.3L393.95 54Q410.95 61.7 424.95 51.25L425.7 57.65Q411.2 73.4 392.45 61.75Q379.3 26.3 405.95 0.25Q421.15 -1.9 423.6 12.55L418.95 9.5L405.7 8.25M374.95,38L371.45 40Q373.65 45.65 376.55 50.9Q389 73.8 364.45 72.5Q359.3 67.45 359.95 60.3L366.2 65.5L369.95 65.8Q375.5 65.9 378.7 61.25Q364.75 48.4 372.95 32.25L379.2 34.5L380.45 42L374.95 38M339.95,0.9Q347.2 2.4 351.75 9.25L367.9 -2L369.45 4.5L355.85 15.45Q362.7 25.4 363.2 36.85Q355.25 31.85 350.6 19.75L333.95 33.75Q331.2 19.2 346.45 12.75L338.95 6.25L339.95 0.9M324.95,38.5L317.7 39.25L311.5 47.35Q318.25 41.75 326.45 43.2L326.7 48.75Q318.9 53.65 311 52.25L310.45 55.5Q319.85 65.4 332.4 61.75L332.95 64.75Q325.95 74.1 313.45 68.5Q307.75 62 308.3 53.45Q310.3 22.1 330.85 38.8L327.25 39.8L324.95 38.5M354.2,30.5L355.1 31.75Q359.6 38.4 356.5 43.15L352.7 37.55L349.35 37.2L347.2 41.25L356.95 52.5Q357.4 54.75 357.15 57.05Q355.95 67.35 345.95 71L341.7 70.1Q340.2 68.75 339.6 67Q338.35 63.6 340.45 61.4L346.2 62.5L353.2 56L351.75 54.7Q338.95 42.3 349.95 29.25L354.2 30.5M341.2,370.95Q354 428.2 362.55 487L364.6 502.45Q365.2 458.45 368.5 414.1L370.65 381.2Q371 374.85 375.2 371.2Q373.75 429.65 370.15 489.05Q369.1 506.35 366.65 523.35L367.5 536.7Q367.75 541.15 364.95 543.95Q355.75 486.8 346.9 428.15Q342.5 399.15 340.6 371.2Q340.6 370.8 341.2 370.95M295.5,27.75Q293.75 25.05 291.25 23Q285.95 18.45 279.05 18.75Q262.55 20.2 257.75 35.85Q228.15 131.95 232.85 234.2Q257.25 238.25 281.9 235Q283.65 236.9 284 239.7Q284.55 244.55 282.2 248.75Q257.15 254.4 232.4 247.45Q231.65 272.3 231.55 297.1Q231.45 327.3 232.4 357.25L233.5 387.1L235.6 431.75Q236.4 447.35 238.3 462.8Q239.75 474.9 241.95 486.95Q244.55 501.25 252.3 512.8Q261.25 526.25 277.75 523.2Q313.1 516.7 315.2 479.7L312.9 469.95L316.15 475.8L318.95 474.7L320.3 479.8L320.8 482.25L321.35 487.4L321.45 489.85L321.35 492.35L320.8 497.5L319.8 502.7Q315.3 521.75 299.8 533.3L295.8 535.7L291.5 537.75Q288.35 539.05 285.2 539.5L278.35 540.35Q267.4 541.05 257.2 537.05Q244.8 532.3 242.75 519.6Q220.8 383.1 226.45 246Q224.25 243.95 224.05 240.8Q223.75 236.25 226.55 234.2Q229.05 213.8 229.8 191.65Q230.55 170.55 231.8 149.5Q232.45 138 233.35 126.6Q234.75 109.5 236.9 92.6Q239.25 73.7 242.8 55.05Q246.9 33.45 260.35 16.15Q264.7 10.6 270.95 9.15Q297.25 2.6 296.7 29.75L295.5 27.75M288.45,41.25Q287.05 38.25 282.95 38.15L280.2 37.95L279.8 45.05Q283.5 43.95 287.05 42.35L288.45 41.25M290.6,47.2L288.1 50.3Q296.95 58.6 296.5 70.65L282.3 52.6L278.95 52.4L275.3 69.5Q272.9 50.3 278.95 30.75L289.2 33L290.45 34.8Q294.4 41.05 290.6 47.2M311.95,97.45Q312.55 97.6 312.9 98Q315 100.15 314.35 103L314.2 103.75Q301.3 104.15 297.55 115.9Q294.05 127 301.95 133.75L317.1 132L316.7 138.75Q305.3 145.9 299 136.05Q288.1 118.85 298.45 100.25L303.95 97L311.95 97.45M171.25,45.45L166.7 111.5Q164.75 108.85 164.6 105.8Q163.35 75.65 169.25 45.5L142.95 43.25L142.95 36.5L188.85 35.5L188.55 43.1L171.25 45.45M180.95,138Q181.3 151.05 178.3 163.8Q173.2 185.3 168.7 207L159.7 178.5L149.95 204Q146.95 190.95 144.85 177.7Q141.3 155.1 141.2 133L150.45 191L159.8 159.9L167.45 189.75L180.95 138M269.2,131.5Q281 151.1 280.2 173.25L279.95 173.5Q277.15 166.95 274.8 159.75Q268.6 161.95 261.45 158.75L255.7 171.5Q257.9 150.1 269.05 131.55L269.2 131.5M272.4,151.8L269.7 141L264.4 152.35L272.4 151.8M318.3,172.3Q327.15 184.45 322.2 198.8Q317.4 212.85 303.25 213.95L300.25 274.5Q295.1 245.7 298.95 213.5L296.7 213L296.95 204.75L299.15 204.85L299.95 175L299.7 169L306.95 163Q313.9 166.25 318.3 172.3M307.3,173.15L303.75 173.45L303.45 204.65Q319.05 202.95 318.7 186.25Q318.5 174.9 307.3 173.15M111.5,31.5L111.2 32.25Q108.85 31.45 108.05 28.6L106.95 24Q102.7 19.9 97.65 16.75Q96.45 16 95.45 15Q70.25 15.55 58.3 40.65Q47.65 62.95 51.1 87.75Q55.2 117.55 69.15 144Q85.1 174.15 95.55 206.5Q112.9 260.3 122.05 316.35Q131.55 374.35 124.05 432.95Q121.25 454.9 112.45 475Q104.75 492.6 89.45 503.35Q83.35 507.6 75.9 509.15Q59.05 512.55 43.25 507.7Q26.95 497.45 23.85 476.75Q21.75 462.95 21 448.75Q20.3 434.25 24.5 421.7Q29.95 435 29.4 452.5Q28.65 473.4 41.1 488.3Q42.45 489.95 44.8 490.85Q71.45 500.75 91.35 483.9Q100.95 475.8 106.25 464.2Q130.45 411.45 121.55 352.75L119.45 338.75Q110.85 281 94.75 225.1Q82.85 183.9 62.7 146.7Q60.15 142 58.25 136.8Q41.2 90 51.75 41.95Q56 22.75 72 9.65Q78.75 4.15 87 2.25Q111.6 6.9 111.5 31.5M147.95,265.85Q147.85 248.75 154.2 233.5L152.45 264.25L176.35 266.4L175.7 273L147.7 274.25L147.95 265.85M148.2,313L135.45 342.45Q138.1 319.55 148.95 299L153.7 330.25L165.2 297.75Q171.9 321.1 169.55 345.35L164.2 312L152.95 344.2L148.2 313M269.2,266Q272 313.55 267.75 361.25L267.7 361.95Q281.65 358.6 297.85 358.2L297.45 357.45Q298.45 356.45 300.45 359.45L306.2 361.45Q308.65 366.7 305.45 371.2Q284.55 366.15 264.45 373.45Q266.05 323.2 266.7 271.5Q266.75 267.7 269.2 266M287.75,295.75L305.45 300.25L304.95 306.75L284.45 307Q284.05 301.3 283.1 295.75Q280.45 279.8 288.2 267.25L287.75 295.75M181.9,333.7L185.95 331.5L188.45 332.65Q200.95 338.65 200.7 352.3Q200.55 360.9 197 368.7Q192.75 377.9 182.55 378.1L179.35 409.2Q177.55 393.75 178.45 376.65Q179.4 358 181.45 340.25L181.9 333.7M183.35,339.7L183.05 369.35L184.5 368.7Q203.8 359 192.2 340.25L183.35 339.7M165.35,409.45L148.05 414.1Q150.25 430.2 146.55 446.1Q142.95 431.35 145.65 414.4L132.95 414.95L132.95 409.7L164.75 403.5L165.35 409.45M174.1,450.15Q177.2 442.4 183.2 437.45L179 452.4Q187.4 463.65 188.9 477.4Q179.05 469.7 177.05 456L172.15 462.95L170.35 478.7Q166.6 458.65 170.75 437.25L172.35 454.6L174.1 450.15M192.4,468.85Q190.25 451.2 196.2 436.95L196.7 467.7L215.45 470.15L214.05 478.5L210.95 477.2L192.7 477.45Q192.9 473.1 192.4 468.85M161.45,481.95Q145.55 483.9 137.8 497.35Q129.6 511.5 137.3 525.25Q150.1 548.1 169.2 528.95Q171.85 539.65 158.65 544Q134.9 551.65 130.75 523.75Q124.8 484.1 158.95 476.15L161.45 481.95M325.6,513.75Q329.9 484.55 331.6 454.7Q334.05 411.35 339.2 370.7Q340.3 429.3 335.1 488.55Q332.65 516.3 327.45 543.2Q323.1 530.45 325.6 513.75M334.95,541.45L334.65 544.2L334.2 544.95L334.05 541.55L334.95 541.45" />
</g>
</svg>
