<?xml version="1.0" encoding="utf-8"?>
<svg version="1.1" id="Layer_1"
xmlns="http://www.w3.org/2000/svg"
xmlns:xlink="http://www.w3.org/1999/xlink"


xml:space="preserve">
q4.2 -0.65 8 0.8q2.25 0.8 4.4 1.85q1.15 0.5 2.3 1.15q-20.75 -16.25 -31.55 10.1q-7.15 17.3 -10.4 35.9q-2.55 14.75 -3.3 29.9q-0.55 14.8 -0.65 29.65q-0.05 14.85 0.45 29.7q0.65 18.7 -0.5 37.35q-1.3 21.4 8.5 40.3q2.55 5 6.05 9.3q21.3 0.5 35.05 -18.35q3.3 -4.5 5.35 -9.8q0.95 -2.45 0.75 -4.95q-10.95 22.4 -35.5 25.5q-16.45 -48.5 -10.5 -102.2q2.9 -4.1 2.2 -9.05q-0.35 -2.7 -1.7 -5.2q-4.3 -54.8 17.85 -106.1q2.5 -5.85 8.75 -7.1q-60.3 4.2 -121.15 -1.65q34.8 6.85 70.65 6.3q-7.85 107.65 -4.75 215.95q0.4 14.9 -0.1 29.8q-0.5 14.85 -2.1 29.65q-5.65 52.2 0.55 104q6.4 -9.25 5 -20.55q-0.15 -4.15 0.05 -8.25q5.4 -119 4.65 -238.15q-9.6 47.2 -6.05 96.6q2.65 36.6 3.1 73.4q0.7 -56.75 0.9 -112.75q-1.1 0.55 -1.7 1.7q-2.5 54.7 -3.2 109.5q-1.65 59.7 -6.15 119.1q-0.8 10.5 5.75 13.6q2.65 -4.8 2.9 -10.45q2.55 -59.4 4.05 -119.25q20.45 5.35 42.5 0.65q0 15.9 -0.4 31.85q1.2 7.1 -0.25 12.2q-4.75 15.95 5.25 26q4.25 -17.55 4.25 -36.75q0 -59.5 0.95 -119.2q0.95 -59.75 -2.4 -119.3q-1.25 -22.6 0.4 -44.85q1.7 -23 -0.45 -44.35q-0.75 0.1 -0.8 0.4q-1.8 52 -5.55 104.9q-1.2 17.1 3.9 29.05q2.45 -7.5 2.9 -15.65q3.2 -59.8 -0.4 -118.55q-3.45 2.5 -4 7.7q-5.9 57.85 -14.25 115.75q-8.45 58.55 -18.45 116.9q-10.05 58.95 -24.45 116.75q0.15 -4.15 -0.3 -8.25q-0.25 2.35 -1 4.85q0.15 6.25 -1.7 12.1q-5.15 16.2 2 28.2q14.1 -50.1 24.35 -101.8q7.65 -38.5 13.7 -77.3q21.35 -1.3 42.25 -5.5q3.6 23.3 8.15 46.45q2.15 3.6 3.35 7.5q3.3 10.75 8.7 18.2q2.45 -22 -2.5 -44.45q-12.7 -57.6 -24.1 -115.75q-11.35 -57.9 -15.95 -117.1q-4.4 -56.6 -12.75 -112q-0.5 0.1 -0.55 0.35q-9.85 53.15 -19.05 106.95q-5.15 -14.6 -6.95 -29.75q-2 -16.85 -8.05 -28.75q-5.05 26.3 -10.5 51.7q-5 -51.95 -16.7 -102.7q-0.6 -0.2 -0.6 0.25q-0.25 12.35 2.25 25.45q7.85 41.65 11 83.9q0.95 13 6.85 20.65q4.95 -27.7 10.45 -52.7q4.45 30.7 14.75 57.75q9.6 -51 20.25 -101.85q3.35 -15.9 -1.25 -28.65q-8.75 14.35 -7.95 31.7q1.25 26.85 14.25 50.2q30.65 55.25 48.45 115.75q15.3 52.2 14.15 106.95q-1.05 48.4 -42.35 71.65q-14.9 8.4 -31.9 3.45q-11.6 -3.35 -13.3 -15.15q-3.3 -23.35 -8.6 -44.95q-0.9 0.75 -1.05 1.65q-5.95 35.05 9.65 66.95q2.95 6.05 9.55 7.5q39.05 8.45 63.7 -23.25q4.3 -5.55 6.6 -11.95q20.45 -55.85 12.55 -116.5q-7.25 -56.15 -30.05 -107.55q-5.95 -13.45 -14.3 -25.65q-24.7 -36.15 -29.95 -78.85q-1.55 -12.75 7.3 -21.5q23.35 -22.9 42.55 2q7.95 10.35 8.9 22.2q5.25 -4.9 3.6 -13.45q-6.15 -31.7 -37.05 -37.3q-16.3 2.35 -24.75 16.1q-0.75 11.95 -2.4 23.75q-4.1 30.05 16.3 48.25q9.75 1.4 16.7 -5.6q12.05 -12.2 3.8 -22.65q-1.45 2.4 -2.35 5.1q-2.65 7.75 -10.65 11.4q-9.45 -5.35 -10.95 -16.25q-6 -44.35 15.7 -81.25q4.15 -0.75 8 0.75q3.85 2.35 5.3 6.4q1.35 3.95 3.7 6.85q5.3 -21.85 -18.45 -24.15q-2.4 1.55 -3.8 4.55q-1 2.1 -2.7 3.7q-9.45 19.15 -10.9 40.5q0.5 -10.6 -1.45 -20.95q-2.9 12.9 -4.1 25.95q-3.4 36.15 -6.3 72.5q-1.25 16 0.4 32q2.3 -3.35 2.2 -7.35q-1 -38.15 21.35 -68.15q1.3 11.55 4.6 22.9q6.45 22.15 15.85 43.2q3.15 7.1 6.6 7.25q0.6 -1.2 0.3 -2.5q-9.2 -37.85 -26.1 -73.05q10.5 -18.55 20.25 -37.6q4 -7.8 0.95 -15.9q-9.55 17.55 -18.5 35.25q-7.6 15 -18.75 27.6q1.7 -20.15 2.7 -41.15<g id="1940" transform="matrix(1, 0, 0, 1, -20, 0)">
<path style="fill:#000000;fill-opacity:1" d="M492.75,88.8Q470.6 140.1 474.9 194.9L506.2 197Q507.55 199.5 507.9 202.2Q508.6 207.15 505.7 211.25L473.95 208.55Q468 262.25 484.45 310.75Q509 307.65 519.95 285.25L521.75 287.25L523.1 289.25L523.95 291.4L524.35 293.65Q524.55 296.15 523.6 298.6Q521.55 303.9 518.25 308.4Q504.5 327.25 483.2 326.75Q479.7 322.45 477.15 317.45Q467.35 298.55 468.65 277.15Q469.8 258.5 469.15 239.8Q468.65 224.95 468.7 210.1Q468.8 195.25 469.35 180.45L470.65 150.9Q471.4 135.75 473.95 121Q477.2 102.4 484.35 85.1Q495.15 58.75 515.9 75L516.2 85.5Q515.05 84.85 513.9 84.35Q511.75 83.3 509.5 82.5Q505.7 81.05 501.5 81.7Q495.25 82.95 492.75 88.8M430.9,74L428.45 80L378.55 81.3L379.55 190Q380.3 309.15 374.9 428.15Q374.7 432.25 374.85 436.4L375.2 440.15Q376.6 451.45 370.2 460.7Q364 408.9 369.65 356.7Q371.25 341.9 371.75 327.05Q372.25 312.15 371.85 297.25Q368.75 188.95 376.6 81.3Q340.75 81.85 305.95 75L305.5 65.65L307.95 64Q368.8 69.85 429.1 65.65L430.9 74M447.45,95.5Q449.6 116.85 447.9 139.85Q446.25 162.1 447.5 184.7Q450.85 244.25 449.9 304Q448.95 363.7 448.95 423.2Q448.95 442.4 444.7 459.95Q434.7 449.9 439.45 433.95L438.8 429.75L440.05 427.4L440.45 429.4L440.7 429.45L440.8 425.35Q442.25 420.25 441.05 413.15L443.4 311.75Q443.8 295.8 443.8 279.9Q421.75 284.6 401.3 279.25L400.15 334.5Q398.65 394.35 396.1 453.75Q395.85 459.4 393.2 464.2Q386.65 461.1 387.45 450.6Q391.95 391.2 393.6 331.5L394.95 275L395 272.9L396 212.25Q396.7 157.45 399.2 102.75Q399.8 101.6 400.9 101.05L403.2 102.5Q403 158.5 402.3 215.25L401.5 269.5L443.7 265.9Q443.25 229.1 440.6 192.5Q437.05 143.1 446.65 95.9Q446.7 95.6 447.45 95.5M340.2,329Q343.8 387.75 340.6 447.55Q340.15 455.7 337.7 463.2Q332.6 451.25 333.8 434.15Q337.55 381.25 339.35 329.25L340.2 329M264.2,64.25L264.25 64.4L264.45 64.25L265 69.35Q273.35 124.75 277.75 181.35Q282.35 240.55 293.7 298.45Q305.1 356.6 317.8 414.2Q322.75 436.65 320.3 458.65L319.45 460.2Q314.05 452.75 310.75 442Q309.55 438.1 307.4 434.5L307.8 432L312.45 436.2L289.9 319.8Q285.35 296.65 281.75 273.35Q260.85 277.55 239.5 278.85Q233.45 317.65 225.8 356.15Q215.55 407.85 201.45 457.95Q194.3 445.95 199.45 429.75Q201.3 423.9 201.15 417.65Q201.9 415.15 202.15 412.8L202.2 412.7Q202.65 416.8 202.5 420.95L202.45 421.95Q216.85 364.15 226.9 305.2Q236.9 246.85 245.35 188.3Q253.7 130.4 259.6 72.55Q260.15 67.35 263.6 64.85L263.65 64.6Q263.7 64.35 264.2 64.25M191.45,62.25Q196.05 75 192.7 90.9Q182.05 141.75 172.45 192.75Q162.15 165.7 157.7 135Q152.2 160 147.25 187.7L146.7 189.25Q140.8 181.6 139.85 168.6Q136.7 126.35 128.85 84.7Q126.35 71.6 126.6 59.25Q126.6 58.8 127.2 59L128.2 59.75L128.95 60.5Q140.65 111.25 145.65 163.2L145.95 164.75Q151.4 139.35 156.45 113.05L156.95 111.5Q163 123.4 165 140.25Q166.8 155.4 171.95 170Q181.15 116.2 191 63.05L191.45 62.25M79,54.5Q109.9 60.1 116.05 91.8Q117.7 100.35 112.45 105.25Q111.5 93.4 103.55 83.05Q84.35 58.15 61 81.05Q52.15 89.8 53.7 102.55Q58.95 145.25 83.65 181.4Q92 193.6 97.95 207.05Q120.75 258.45 128 314.6Q135.9 375.25 115.45 431.1Q113.15 437.5 108.85 443.05Q84.2 474.75 45.15 466.3Q38.55 464.85 35.6 458.8Q20 426.9 25.95 391.85Q26.1 390.95 27 390.2Q32.3 411.8 35.6 435.15Q37.3 446.95 48.9 450.3Q65.9 455.25 80.8 446.85Q122.1 423.6 123.15 375.2Q124.3 320.45 109 268.25Q91.2 207.75 60.55 152.5Q47.55 129.15 46.3 102.3Q45.5 84.95 54.25 70.6Q62.7 56.85 79 54.5M154.45,206Q156.15 204.4 157.15 202.3Q158.55 199.3 160.95 197.75Q184.7 200.05 179.4 221.9L178.95 222.5Q176.6 219.6 175.25 215.65Q173.8 211.6 169.95 209.25Q166.1 207.75 161.95 208.5Q140.25 245.4 146.25 289.75Q147.75 300.65 157.2 306L164.95 306.75Q172.95 303.1 175.6 295.35Q176.5 292.65 177.95 290.25Q186.2 300.7 174.15 312.9Q167.2 319.9 157.45 318.5Q137.05 300.3 141.15 270.25Q142.8 258.45 143.55 246.5Q145 225.15 154.45 206M144.7,391.35Q155.85 378.75 163.45 363.75Q172.4 346.05 181.95 328.5Q185 336.6 181 344.4Q171.25 363.45 160.75 382Q177.65 417.2 186.85 455.05Q187.15 456.35 186.55 457.55Q183.1 457.4 179.95 450.3Q170.55 429.25 164.1 407.1Q160.8 395.75 159.5 384.2Q137.15 414.2 138.15 452.35Q138.25 456.35 135.95 459.7Q134.3 443.7 135.55 427.7Q138.45 391.35 141.85 355.2Q143.05 342.15 145.95 329.25Q147.9 339.6 147.4 350.2Q146.4 371.2 144.7 391.35M279.75,259.65L264.35 112.55L241.45 265.95L279.75 259.65" />
</g>
</svg>
