<?xml version="1.0" encoding="utf-8"?>
<svg version="1.1" id="Layer_1"
xmlns="http://www.w3.org/2000/svg"
xmlns:xlink="http://www.w3.org/1999/xlink"


xml:space="preserve">
q-23.5 -5.85 -35.3 14.45q-11.05 18.95 -14.8 40.65q-2.05 11.85 -2.65 23.75q-0.75 14.85 -1.25 29.75q-0.55 14.85 -0.85 29.75q0 14.35 -0.5 28.7q-0.7 20.5 1.15 41q2 22.2 13.45 41.4q28.75 10.1 47.6 -16.75q15.35 -21.8 11.35 -46.65q-0.5 -3.05 -2.75 -5.2q-4.1 27.15 -26.85 47.6q-6.65 6 -15.6 8.25q-24.65 -77.25 -16.9 -161.75q4.05 -7.65 -0.75 -15q-10.75 -87.25 23.35 -163.15q1.85 -4.15 6.85 -5.5q26.55 -6.85 43.85 14.05q-0.6 -24.2 -24.15 -30.15q4.3 -22.65 3 -43.75q-7.35 11.15 -9.1 26.35q-6.75 58.75 -11.3 117.9q-4.5 59 -11.05 117.7q-4.9 44.4 -9.3 88.6q0.15 7.45 -0.75 14.5q-6.05 -25.7 -12.75 -51.2q-11.15 -42.4 -23.7 -84.65q-16.95 -56.85 -29.1 -114.85q-12.15 -57.85 -19.95 -115.75q-1.7 -0.3 -2.75 1q0.8 45.55 10.35 90.3q12.3 57.6 28.3 114.05q16.3 57.35 29.8 115.6q5.1 21.95 9.55 44.1q3.35 16.6 11.25 28.15q7.45 -34.9 10.95 -71.2q5.7 -58.85 9.95 -117.85q4.25 -59.25 11.3 -117.75q1.8 -14.9 4.55 -29.65q1.55 23.75 4.8 47.4q7.95 57.9 19 115.25q-31.65 4.8 -61.55 -1.65q13.95 -53.35 21.5 -107.85q4.05 -29.15 9.25 -58.1q2.8 -15.65 0.05 -29.55q-0.75 0.1 -0.8 0.4q-9.9 46.6 -16.4 94.3q-7.95 58.05 -24.1 114.75q-16.4 57.75 -28.95 116.05q-3.95 18.15 -9.7 35.65q-7.5 22.6 -4.05 43.8q7.7 -8.25 10.05 -20.85q6.25 -33.35 13.35 -66.4q12.1 -56.5 27.25 -112.65q31.05 12.35 65.35 5.45q10.7 58.5 25.35 116q1.05 14.85 8 30.75q1.75 -1.4 1.85 -3.75q0.6 -26.7 -5.85 -52.65q-7.05 -28.5 -13.55 -57.2q-12.7 -57.55 -21.2 -115.9q-8.6 -58.55 -20.2 -116.15q-2.25 0 -2.1 2.45q-0.35 32.2 -2.85 64.4q-1.2 15.75 4 28.35q5.2 -12.35 4.7 -27.6q-0.45 -14 0.85 -28.25q2.35 -25.65 -1.85 -50q15.85 -0.2 31.8 -3.4q3.6 -6.6 -0.65 -12.65q-37.65 5.7 -73.75 2q-1.35 4.1 0.1 8.2q1.1 1.25 2.65 1.6q17.55 4.05 35.3 4.3q-0.5 6.5 -0.6 13.1q34.55 6.6 44 36.5q3.95 -8.5 -0.6 -17.3q-17.1 -33.15 -57.35 -34.95q-4.55 2.45 -8.75 6.1q-25.45 22.3 -31.9 57.4q-4.05 21.95 7.8 39.95q10.6 16.05 22.55 31.05q20.3 25.55 33.65 55.5q12 26.95 20.8 55q15.75 50.2 -1.45 100.9q-8.1 23.9 -28.05 39.25q-28.5 22 -56.05 -0.6q-26.75 -21.95 -13.4 -53.8q-0.3 -1.25 -1.3 -2.15q-19.7 45.3 18.45 76.9q9.6 7.95 22.05 8.2q43.45 0.95 61.15 -39.15q11.65 -26.35 16.05 -54.95q6.85 -44.35 -8.75 -85.8q-14.8 -39.2 -33.05 -77.35q-7 -14.6 -17.8 -26.3q-21.05 -22.8 -33.35 -50q1.7 -12.2 4.5 -24.3q6.3 -27.15 30.5 -39.45q7.2 -0.55 14.2 0.75q4.55 -57.4 0.95 -114q-3.9 3.7 -4 10.75q-0.9 59.75 0 117.75q24.55 1.45 48.25 -0.75q3.85 -6.2 0.5 -12.75<g id="1938" transform="matrix(1, 0, 0, 1, -2.3, 0)">
<path style="fill:#000000;fill-opacity:1" d="M528.2,108.5Q510.9 87.6 484.35 94.45Q479.35 95.8 477.5 99.95Q443.4 175.85 454.15 263.1L493.45 260.75Q498.25 268.1 494.2 275.75L454.2 274.6Q446.45 359.1 471.1 436.35L479.45 437.7L481.2 439.2Q490.15 436.95 496.8 430.95Q519.55 410.5 523.65 383.35Q525.9 385.5 526.4 388.55Q530.4 413.4 515.05 435.2Q496.2 462.05 467.45 451.95L463.15 445Q451.7 425.8 449.7 403.6Q447.85 383.1 448.55 362.6Q449.05 348.25 449.05 333.9L449 305.2L448.85 276.5L448.8 246.55L449.2 216.7Q449.5 201.8 450.05 186.95Q450.55 172.05 451.3 157.2Q451.9 145.3 453.95 133.45Q457.7 111.75 468.75 92.8Q480.55 72.5 504.05 78.35Q527.6 84.3 528.2 108.5M431.9,149.4Q424.85 207.9 420.6 267.15Q416.35 326.15 410.65 385Q407.15 421.3 399.7 456.2L399.15 456.3L398.25 463.7L397.95 463.95Q390.05 452.4 386.7 435.8Q382.25 413.65 377.15 391.7Q363.65 333.45 347.35 276.1Q331.35 219.65 319.05 162.05Q309.5 117.3 308.7 71.75Q309.75 70.45 311.45 70.75Q319.25 128.65 331.4 186.5Q343.55 244.5 360.5 301.35Q373.05 343.6 384.2 386Q390.9 411.5 396.95 437.2Q397.85 430.15 397.7 422.7L397.95 421.2L398.7 426.55Q403.1 382.35 408 337.95Q414.55 279.25 419.05 220.25Q423.6 161.1 430.35 102.35Q432.1 87.15 439.45 76Q440.75 97.1 436.45 119.75Q433.7 134.5 431.9 149.4M263.45,70.75Q275.05 128.35 283.65 186.9Q292.15 245.25 304.85 302.8L315.9 352.35Q322.4 381.05 329.45 409.55Q335.9 435.5 335.3 462.2Q335.2 464.55 333.45 465.95Q326.5 450.05 325.45 435.2L326.45 438.15L326.7 438.45Q312.05 380.95 301.35 322.45L293.5 279.9L292.45 281Q258.15 287.9 227.1 275.55Q211.95 331.7 199.85 388.2Q192.75 421.25 186.5 454.6Q184.15 467.2 176.45 475.45Q173 454.25 180.5 431.65Q186.25 414.15 190.2 396Q202.75 337.7 219.15 279.95Q235.3 223.25 243.25 165.2Q249.75 117.5 259.65 70.9Q259.7 70.6 260.45 70.5Q263.2 84.4 260.4 100.05Q255.2 129 251.15 158.15Q243.6 212.65 229.65 266Q259.55 272.45 291.2 267.65L285.15 235.85Q274.1 178.5 266.15 120.6Q262.9 96.95 261.35 73.2Q261.2 70.75 263.45 70.75M180.4,85.15Q162.65 84.9 145.1 80.85Q143.55 80.5 142.45 79.25Q141 75.15 142.35 71.05L142.7 70.25Q178.8 73.95 216.45 68.25Q220.7 74.3 217.1 80.9L216.45 81.75Q200.5 84.95 184.65 85.15Q188.85 109.5 186.5 135.15Q185.2 149.4 185.65 163.4Q186.15 178.65 180.95 191Q175.75 178.4 176.95 162.65Q179.45 130.45 179.8 98.25Q179.9 91.65 180.4 85.15M81.75,77.75Q57.55 90.05 51.25 117.2Q48.45 129.3 46.75 141.5Q59.05 168.7 80.1 191.5Q90.9 203.2 97.9 217.8Q116.15 255.95 130.95 295.15Q146.55 336.6 139.7 380.95Q135.3 409.55 123.65 435.9Q105.95 476 62.5 475.05Q50.05 474.8 40.45 466.85Q2.3 435.25 22 389.95L23.1 390.85Q24.1 391.75 24.4 393L25.2 395.15L25.5 395.2L26.1 394.6L27.2 393.5Q13.85 425.35 40.6 447.3Q68.15 469.9 96.65 447.9Q116.6 432.55 124.7 408.65Q141.9 357.95 126.15 307.75Q117.35 279.7 105.35 252.75Q92 222.8 71.7 197.25Q59.75 182.25 49.15 166.2Q37.3 148.2 41.35 126.25Q47.8 91.15 73.25 68.85Q77.45 65.2 82 62.75Q122.25 64.55 139.35 97.7Q143.9 106.5 139.95 115Q130.5 85.1 95.95 78.5Q88.95 77.2 81.75 77.75M153.45,308.5L199.2 308.75Q202.55 315.3 198.7 321.5Q175 323.7 150.45 322.25Q149.55 264.25 150.45 204.5Q150.55 197.45 154.45 193.75Q158.05 250.35 153.5 307.75L153.45 308.5" />
</g>
</svg>
