<?xml version="1.0" encoding="utf-8"?>
<svg version="1.1" id="Layer_1"
xmlns="http://www.w3.org/2000/svg"
xmlns:xlink="http://www.w3.org/1999/xlink"


xml:space="preserve">
q-3.55 20.35 -1.55 41.2q10.9 5.25 22.95 4.15q5.3 -21.6 3.85 -43.75q-0.05 14.1 -5.1 29.45q-4.65 14.15 -8.15 28.6q-14.1 57.6 -23.8 115.8q-9.75 58.35 -21.2 116.3q-11.4 57.75 -23.45 115.45q-8.35 40.1 -22.05 77.85q-7.8 -8.1 -2.95 -21.35q1.7 -4.6 1.65 -9.45q15.6 -56.15 26.65 -114.15q11 -58.05 25.15 -115.75q4.5 -18.3 10.15 -36.45q1.95 -6.1 4.55 -12q1.35 -1.75 3.25 -2.3q-17.2 4.1 -20.15 -11.05q-0.85 -4.5 0.75 -9.2q6.9 -5.3 14.65 -1.95q1.5 -3.9 -2.1 -6.55q-11.95 16.85 -1 34.5q8.85 4.85 18.1 1.3q-6.95 -1.3 -12 1q-0.2 1.55 0.2 3q4.75 1.6 9.5 2q-2.6 6.5 0.25 11.75q3.6 -8.95 1.75 -17.9q19.75 38.65 30.75 82.05q3.7 14.5 10.35 28q25.2 50.9 33.45 106.05q0.3 2.1 -1.3 3.65q-10.7 -25.7 -19.6 -54.25q-2.3 -7.35 -5.5 -14.4q-24.05 -53.05 -37.9 -109.6q-4.85 -19.75 -11.55 -38q-1.05 -2.85 1.3 -3.5q-3.75 17.65 -0.05 31.3q3.5 -15.6 0.2 -31.4q10 42.1 10.05 87.4q0.05 29.85 3.75 59.35q7.2 58.8 13.65 117.75q5.85 53.45 8.5 106.55q0.05 1.35 -1.1 2.2q-7 -7.55 -7.65 -20.65q-0.3 -6.15 -1.9 -11.8q-5.5 -58.3 -11.9 -116.7q-31.25 8.7 -61.75 10.35q-9.1 43.7 -19.6 87.15q-10.35 42.9 -19.9 86.3q-6.35 28.6 -18.85 53.35q-4.7 -14.25 -0.95 -30.75q14 -49.05 26.5 -100.05q14.25 -57.95 25.3 -116.35q8.15 -42.95 16.75 -85.8q11.45 -57.3 19.1 -115.05q1.95 -14.65 6.7 -27.2q0.05 -1.1 0.75 -1.4q-11.15 -1.2 -22.75 2.55q-2.3 -2.2 1 -5.6q9.7 -10.2 21.95 -3.45q-21.75 -15.55 -27.3 12.9q-1.25 6.4 2.05 12.1q14.4 7.25 29.75 1.5q-15.1 2.8 -25.85 -5.45q10.2 2.85 20.8 -1.6q3.4 -1.35 6.9 -2.55q6.9 -2.55 13.95 -4.55q7 -2.2 14.1 -4.05q11.75 -2.95 23.55 -3.45q-5.65 50.7 -6.25 102.7q-0.3 22.25 -3.35 43.95q-1.4 9.95 1.3 17.2q0 1.85 0.55 3.6q2.7 -5.65 -0.65 -10.45q3.05 -20.65 3.55 -42.2q1.45 -59.8 1.65 -118.5q26.85 11.4 22.95 39.95q-2.35 17.15 -14.8 28.8q12.6 45 18.35 89q-12.05 -32.1 -13.1 -73.2q-6.5 6.6 -15.15 7.25q2.95 38.4 -5.25 75.45q-4.65 -6.3 -2.45 -13.8q0.9 -3.05 0.2 -6.05q18.85 -5.4 24.05 -23.65q6.2 -21.65 -12.15 -34.05q18.05 5.65 25.55 23.1q4.45 10.3 -0.3 19.4q-0.6 -0.65 -0.75 -1.35q-2.75 -2.9 -5 -6.1q-25.65 -15.9 -52.75 -6.65q-5.4 1.85 -8.95 6.35q-20.4 25.65 -9.5 58.45q14.4 43.6 33.35 85.85q9.25 20.65 16.75 42.2q18.85 54.25 7.95 110.2q-9.6 49.35 -44.4 85.6q-11.05 11.5 -27.05 10.85q-33.55 -1.3 -43.25 -34.15q-5.15 -17.3 -5 -35.55q-1.05 -0.95 -1.45 -2.35q0.05 -4.45 -0.9 -8.55q0.85 -2.35 3.05 -3.5q7.2 12.35 8.55 29.4q1.85 23.7 20.95 37.7q2.25 1.65 5.15 2.05q39.75 5.2 57.6 -29.2q26.35 -50.85 20.25 -107.7q-5.1 -47.35 -27.05 -89.6q-6.85 -13.25 -12.5 -26.85q-17.5 -42.1 -5.3 -84.6q4.75 -16.45 18.7 -26.3q5.5 -3.9 12 -4.95q15.85 -0.55 29.7 6.6q1.25 0.65 2.75 0.9q-3.65 -25.4 -26.55 -26.15q1.8 26.3 2.6 52.7q27.75 -0.55 23.95 -26.55q7.1 22.35 -8.35 38.85q-7.65 8.1 -19.1 5.9q5.95 39.45 -5.15 77.8q-2 -72.95 1.85 -145.8q23.15 -0.65 30.75 23.25q-9.05 3.6 -18.3 0.95q5.3 65.85 -0.95 125.15q-14.25 0.4 -26.1 -4.35q-0.45 23.55 -8.05 47.15q-5.95 -25.35 -14.15 -47.95q-1 39.95 6.75 77.3q12.5 -31.3 8.7 -60.95<g id="1934" transform="matrix(1, 0, 0, 1, -18.8, 5.3)">
<path style="fill:#000000;fill-opacity:1" d="M499.2,6.75Q500.65 28.9 495.35 50.5L494.95 30.65L486.3 31.95Q474.25 33.05 463.35 27.8L460.2 47.75Q458.2 26.9 461.75 6.55L463.5 23.55L495.55 23.95L499.2 6.75M480.45,44.5Q480.4 58.6 475.35 73.95Q470.7 88.1 467.2 102.55Q453.1 160.15 443.4 218.35Q433.65 276.7 422.2 334.65Q410.8 392.4 398.75 450.1Q390.4 490.2 376.7 527.95Q368.9 519.85 373.75 506.6Q375.45 502 375.4 497.15L376.45 496.95L376.8 496.45L377.15 498.95L377.45 499.45Q393.05 443.3 404.1 385.3L426.05 268.65L436.85 211.2Q447.85 153.15 462 95.45Q466.5 77.15 472.15 59Q474.1 52.9 476.7 47Q478.05 45.25 479.95 44.7L480.45 44.5M405.55,43.55Q396.3 47.1 387.45 42.25Q376.5 24.6 388.45 7.75L401.2 6.75L403.2 8.25Q406.8 10.9 405.3 14.8L403.4 15.2L402.45 14.8Q394.7 11.45 387.8 16.75Q386.2 21.45 387.05 25.95Q390 41.1 407.2 37L405.55 43.55M409.45,43.9L408.95 44.5Q406.1 39.25 408.7 32.75Q403.95 32.35 399.2 30.75Q398.8 29.3 399 27.75L399.2 27Q404.25 24.7 411.2 26Q413.05 34.95 409.45 43.9M351.2,36.75Q370.95 75.4 381.95 118.8Q385.65 133.3 392.3 146.8Q417.5 197.7 425.75 252.85Q426.05 254.95 424.45 256.5Q413.75 230.8 404.85 202.25Q402.55 194.9 399.35 187.85Q375.3 134.8 361.45 78.25Q356.6 58.5 349.9 40.25Q348.85 37.4 351.2 36.75M331.8,37.7Q328.1 24.05 331.85 6.4L332 6.3Q335.3 22.1 331.8 37.7M303.3,40.1Q313.3 82.2 313.35 127.5Q313.4 157.35 317.1 186.85L331.65 304.45Q338.85 363.25 345.3 422.2Q351.15 475.65 353.8 528.75Q353.85 530.1 352.7 530.95Q345.7 523.4 345.05 510.3Q344.75 504.15 343.15 498.5L343.4 495.95L345.45 499.2Q339.95 440.9 333.55 382.5L323.05 288.05Q291.8 296.75 261.3 298.4Q252.2 342.1 241.7 385.55Q231.35 428.45 221.8 471.85Q215.45 500.45 202.95 525.2Q198.25 510.95 202 494.45L203.1 493.8L203.45 493.55L202.85 500.7L202.95 501.45L206.4 489.6L207.45 486.45L207.35 486.3Q221.35 437.25 233.85 386.25Q248.1 328.3 259.15 269.9Q267.3 226.95 275.9 184.1Q287.35 126.8 295 69.05Q296.95 54.4 301.7 41.85L301.7 41.25Q301.75 40.15 302.45 39.85L303.2 38L303.3 40.1M266,23.5Q255.4 27.95 245.2 25.1Q255.95 33.35 271.05 30.55L270.2 36.75Q254.85 42.5 240.45 35.25Q237.15 29.55 238.4 23.15Q243.95 -5.3 265.7 10.25L265.7 14Q253.45 7.25 243.75 17.45Q240.45 20.85 242.75 23.05L242.85 23.15L242.95 20.75Q254.55 17 265.7 18.2L266 23.5M299.05,96.6L263.1 289.85Q266.5 288.5 270 287.3Q276.9 284.75 283.95 282.75Q290.95 280.55 298.05 278.7Q309.8 275.75 321.6 275.25L302.45 71.4L299.05 96.6M184.2,3.25Q184 61.95 182.55 121.75Q182.05 143.3 179 163.95L226.2 162Q229.55 166.8 226.85 172.45L226.45 173L177.85 171.1L177.7 172L177.15 171.05L175.95 171Q175.4 169.25 175.4 167.4Q172.7 160.15 174.1 150.2Q177.15 128.5 177.45 106.25Q178.05 54.25 183.7 3.55L184.2 3.25M196.2,182.75L203.95 181Q230.8 192.4 226.9 220.95Q224.55 238.1 212.1 249.75Q224.7 294.75 230.45 338.75L224.3 328.05L223.95 324Q211.9 291.9 210.85 250.8Q204.35 257.4 195.7 258.05Q198.65 296.45 190.45 333.5Q185.8 327.2 188 319.7Q188.9 316.65 188.2 313.65L189.05 312.7L194 188.25L196.2 182.75M196.2,188.65L195.8 247.95Q214.65 242.55 219.85 224.3Q226.05 202.65 207.7 190.25L196.2 188.65M107.45,29.5Q125.5 35.15 133 52.6Q137.45 62.9 132.7 72Q132.1 71.35 131.95 70.65L130.25 63.45L128.7 58L127.8 57.15Q125.05 54.25 122.8 51.05L121.2 49L120.7 48.65L118.45 48.25Q92.8 32.35 65.7 41.6Q60.3 43.45 56.75 47.95Q36.35 73.6 47.25 106.4Q61.65 150 80.6 192.25L116.75 272.8Q126 293.45 133.5 315Q152.35 369.25 141.45 425.2Q131.85 474.55 97.05 510.8Q86 522.3 70 521.65Q36.45 520.35 26.75 487.5Q21.6 470.2 21.75 451.95L21.15 451.3Q20.1 450.35 19.7 448.95L19.7 448.9Q19.75 444.45 18.8 440.35L19.95 436.95Q20.8 434.6 23 433.45Q30.2 445.8 31.55 462.85Q33.4 486.55 52.5 500.55Q54.75 502.2 57.65 502.6Q97.4 507.8 115.25 473.4Q141.6 422.55 135.5 365.7Q130.4 318.35 108.45 276.1Q101.6 262.85 95.95 249.25L49.6 137.85Q32.1 95.75 44.3 53.25Q49.05 36.8 63 26.95Q68.5 23.05 75 22Q90.85 21.45 104.7 28.6Q105.95 29.25 107.45 29.5M142.35,143.45Q138.7 118.05 115.8 117.3Q117.6 143.6 118.4 170Q146.15 169.45 142.35 143.45M146.05,133.7Q153.15 156.05 137.7 172.55Q130.05 180.65 118.6 178.45Q124.55 217.9 113.45 256.25Q111.45 183.3 115.3 110.45Q138.45 109.8 146.05 133.7M133.2,260.75L142.2 259.5L180.85 259.95L180.95 270Q171.9 273.6 162.65 270.95Q167.95 336.8 161.7 396.1L158.9 387.45L158.8 270.4Q144.55 270.8 132.7 266.05L133.2 260.75M184.3,457.8L188.2 455.75Q192 485.4 179.5 516.7L175.95 524.7L161.95 478.45L147.6 528.65Q139.85 491.3 140.85 451.35L148.95 506.7L161.55 459.5Q169.75 482.1 175.7 507.45Q183.3 483.85 183.75 460.3L183.55 460.45L184.3 457.8" />
</g>
</svg>
