<?xml version="1.0" encoding="utf-8"?>
<svg version="1.1" id="Layer_1"
xmlns="http://www.w3.org/2000/svg"
xmlns:xlink="http://www.w3.org/1999/xlink"


xml:space="preserve">
q-9.55 49.6 -18.2 99.35q-10.1 58.5 -18.2 117.3q-7.6 55.1 -17.6 109.55q-5.2 -55.05 -13.1 -109.85q-8.45 -58.4 -16.75 -116.9q-8.35 -58.75 -23.2 -115.6q-3.25 4.5 -1.65 11.5q13.65 58.25 21.8 117.6q8 58.5 16.35 116.85q8.35 57.9 11.5 116.35q0.9 16.7 7.5 28.15q0.5 -0.75 0.5 -1.5q4.75 -28.45 9.9 -56.55q-0.35 0.75 -0.55 1.55q8 -58.6 18.55 -116.6q10.5 -57.95 17.75 -116.45q1.8 -14.8 6.9 -28.8q4.5 -12.55 0.65 -21.75q-3.3 5.15 -4.7 12.4q-6.55 3.2 -11.05 9.55q-15.05 21.4 -17.6 47.55q-5.75 58.8 -9.05 117.9q-0.8 14.6 -2.6 29q-3.95 31.55 17.8 50.2q3.2 -1.7 5.9 -4.1q22.05 -19.4 27.1 -48.85q-12.3 23.3 -32.25 39.45q-2.2 -1.55 -4 -3.45q-1.45 -1.5 -1.85 -2.75q-8.7 -30.05 -6.2 -62.6q0.2 1.1 0.7 2.15q17.15 5.1 35 -1.5q1.5 -1.55 1.8 -3.7q0.55 -3.65 -1.3 -6.8q-0.4 -0.4 -0.8 -0.5q-14.65 5.1 -30 4.75q3.2 -40.3 12.4 -79.2q4.55 -19.4 21.6 -22.95q1.25 1.75 1.8 3.8q1.7 6.6 5.7 10.95q1.6 -1.3 1.4 -3.5q-1.05 -12.55 -9.15 -21.75q-9.4 17.85 -13.35 37.7q-2.9 14.8 -5.25 29.7q-3.05 19.15 -4.7 38.3q-12.9 61.1 17.8 111.05q3.2 5.2 7.85 9.35q30.6 -1.85 46.3 -30.9q7.15 -13.3 4.2 -28.3q-9.75 34.75 -42.25 43.9q-14.1 4 -18.8 -10.9q-7.5 -23.95 -10.75 -49.05q-0.85 -9.6 -0.65 -19.2q0.1 -6.55 0.35 -13.05q23.95 3 47.45 -2.9q1.8 -2.95 1 -6.45q-0.4 -1.7 -1.35 -2.85q-1.9 -72.3 39.95 -125.6q24.7 -5.75 32.5 14.5q1.35 -26 -25 -22.3q-17.3 2.2 -26.3 19.3q-0.75 59.4 -3.65 118.5q-2.2 44.9 -7 89.1q-3.3 30.35 -1 59.35q59.35 -4.8 119 -5q3.7 -5.6 0.75 -11.75q-2.65 -1 -5 -2.75q4.85 -49.2 6.8 -99q1.95 -59.95 4.75 -118.45q-7.55 39.65 -8.1 82.5q-9.9 -20.7 -34.35 -24.05q-25.95 18 -37.9 47.95q-13.3 33.45 -19.55 68.75q-10.5 59.45 5.85 116.9q4.35 15.35 14.95 26.8q21.75 23.4 51.6 7.55q28.25 -14.95 26.2 -43.95q-0.55 -1.45 -1.85 -1.45q-14.8 38.6 -58.2 35.55q-2.55 -0.2 -4.35 -1.7q-24.25 -20.05 -28.8 -53.1q-4.2 -30.95 -2.45 -61.75q27.1 -2.3 52.5 0.95q0.95 -1.2 1.3 -2.75q0.65 -3.05 -0.6 -6q-0.25 -0.4 -0.6 -0.5q-9.15 -3.3 -19.15 -2.5q-16.9 3 -34.05 4.75q1.3 -16.9 4.45 -33.7q8.95 -47.9 37.9 -86.6q3.75 -5 9.75 -6.1q23.55 -4.35 40.45 11.4q-15.55 -41.3 -62.3 -41.15q-5.3 1.35 -9.7 5.15q-31.9 27.45 -30.15 71.85q0.55 13.25 4.35 25.8q10.45 34.45 27.95 66q28.65 51.65 43.8 109.05q14.8 56.15 -0.55 111.9q-5.2 19 -19.1 32.75q-28.8 28.5 -67.7 8.15q-5.55 -2.9 -9.2 -7.8q-18.05 -24.4 -19.15 -55.4q-2.5 0.2 -2.35 3q0.85 12.8 3.45 25.7q3.1 15.15 9.9 28.95q18.65 37.55 63.4 32.45q12.8 -1.45 21.8 -10.6q30.45 -31.05 34.85 -75.4q5.5 -56.05 -11.2 -109.75q-18.15 -58.3 -48.75 -111.05q-12.75 -22 -18.95 -46.7q-10 -39.6 11.1 -74.55q12.8 -15.15 33.5 -11.35q35 6.45 48.95 36.85q1.5 -3.85 0.05 -7.6<g id="1957" transform="matrix(1, 0, 0, 1, -19, 0)">
<path style="fill:#000000;fill-opacity:1" d="M500.95,77.25Q504.8 86.45 500.3 99Q495.2 113 493.4 127.8Q486.15 186.3 475.65 244.25Q465.1 302.25 457.1 360.85L451.45 400.95L454.4 390Q454.6 389.2 454.95 388.45Q449.8 416.55 445.05 445L445.2 462.45Q445.2 463.2 444.7 463.95Q438.1 452.5 437.2 435.8Q434.05 377.35 425.7 319.45Q417.35 261.1 409.35 202.6Q401.2 143.25 387.55 85Q385.95 78 389.2 73.5Q404.05 130.35 412.4 189.1Q420.7 247.6 429.15 306Q437.05 360.8 442.25 415.85Q452.25 361.4 459.85 306.3Q467.95 247.5 478.05 189Q486.7 139.25 496.25 89.65Q497.65 82.4 500.95 77.25M526.2,125.25Q534.3 134.45 535.35 147Q535.55 149.2 533.95 150.5Q529.95 146.15 528.25 139.55Q527.7 137.5 526.45 135.75Q509.4 139.3 504.85 158.7Q495.65 197.6 492.45 237.9L491.35 252L491.95 250.75Q507.3 251.1 521.95 246L526.4 246.5Q526.8 246.6 527.2 247Q529.05 250.15 528.5 253.8Q528.2 255.95 526.7 257.5Q508.85 264.1 491.7 259Q491.2 257.95 491 256.85L487.9 297.15Q485.4 329.7 494.1 359.75Q494.5 361 495.95 362.5Q497.75 364.4 499.95 365.95L504.7 365.95Q524.65 349.8 536.95 326.5Q531.9 355.95 509.85 375.35Q507.15 377.75 503.95 379.45L499.45 379.2Q477.7 360.55 481.65 329Q483.45 314.6 484.25 300Q487.55 240.9 493.3 182.1Q495.85 155.95 510.9 134.55Q515.4 128.2 521.95 125L526.2 125.25M363.45,121.7Q389.8 118 388.45 144Q380.65 123.75 355.95 129.5Q314.1 182.8 316 255.1L362.6 249.7Q363.55 250.85 363.95 252.55Q364.75 256.05 362.95 259Q339.45 264.9 315.5 261.9Q315.25 268.4 315.15 274.95Q314.95 284.55 315.8 294.15L317.15 306.7Q320.4 331.8 327.9 355.75Q332.6 370.65 346.7 366.65Q379.2 357.5 388.95 322.75Q391.9 337.75 384.75 351.05Q369.05 380.1 338.45 381.95Q333.8 377.8 330.6 372.6Q299.9 322.65 312.8 261.55L310.95 261.25L310.95 255.25L313.2 255.2L313.85 246.7Q315.5 227.55 318.55 208.4Q320.9 193.5 323.8 178.7Q327.75 158.85 337.15 141Q346.15 123.9 363.45 121.7M198.2,110.75Q195.4 169.25 193.45 229.2L189.25 347.7Q187.3 397.5 182.45 446.7L291.7 440.2L291.65 439.1L292.15 439.25L293 439.45L293.05 439.95L293.2 440.7Q295.55 442.45 298.2 443.45Q301.15 449.6 297.45 455.2Q237.8 455.4 178.45 460.2Q176.15 431.2 179.45 400.85Q184.25 356.65 186.45 311.75Q189.35 252.65 190.1 193.25Q190.65 150.4 198.2 110.75M310.45,139Q293.55 123.25 270 127.6Q264 128.7 260.25 133.7Q231.3 172.4 222.35 220.3Q219.2 237.1 217.9 254Q235.05 252.25 251.95 249.25Q261.95 248.45 271.1 251.75Q271.45 251.85 271.7 252.25L272.15 253Q273.4 255.95 272.75 259Q272.4 260.55 271.45 261.75Q246.05 258.5 218.95 260.8L217.4 260.75Q215.65 291.55 219.85 322.5Q224.4 355.55 248.65 375.6Q250.45 377.1 253 377.3Q296.4 380.35 311.2 341.75L310 339.45L309 337.2L308.45 335.75Q309.75 335.75 310.3 337.2L310.95 338.75L311.95 339.25L313.95 340.5Q316 369.5 287.75 384.45Q257.9 400.3 236.15 376.9Q225.55 365.45 221.2 350.1Q204.85 292.65 215.35 233.2Q221.6 197.9 234.9 164.45Q246.85 134.5 272.8 116.5L275.95 114.25Q300.4 117.6 310.3 138.3L310.45 139M167.2,106.5Q153.25 76.1 118.25 69.65Q97.55 65.85 84.75 81Q63.65 115.95 73.65 155.55Q79.85 180.25 92.6 202.25Q123.2 255 141.35 313.3Q158.05 367 152.55 423.05Q148.15 467.4 117.7 498.45Q108.7 507.6 95.9 509.05Q51.15 514.15 32.5 476.6Q25.7 462.8 22.6 447.65Q20 434.75 19.15 421.95Q19 419.15 21.5 418.95L22.2 419.75L23.25 421.2L23.75 421.95L24.15 422.05L25.55 421.6L26.4 424.35L25.5 425.2Q26.6 456.2 44.65 480.6Q48.3 485.5 53.85 488.4Q92.75 508.75 121.55 480.25Q135.45 466.5 140.65 447.5Q156 391.75 141.2 335.6Q126.05 278.2 97.4 226.55Q79.9 195 69.45 160.55Q65.65 148 65.1 134.75Q63.35 90.35 95.25 62.9Q99.65 59.1 104.95 57.75Q151.7 57.6 167.25 98.9Q168.7 102.65 167.2 106.5" />
</g>
</svg>
