<?xml version="1.0" encoding="utf-8"?>
<svg version="1.1" id="Layer_1"
xmlns="http://www.w3.org/2000/svg"
xmlns:xlink="http://www.w3.org/1999/xlink"


xml:space="preserve">
q-15.55 -10.9 -32.35 -3.55q-1.8 0.8 -3.45 1.9q-3.85 97.55 0.65 198.35q4.3 95.4 2.75 190.6q-6.3 21.85 3.75 40.25q17.05 -124.95 8.35 -251.4q-0.8 -11.75 -1.25 -23.5q9.55 -1.15 16.8 -7.4q23.5 141.55 54.3 281.85q1.35 6.05 5.85 10.1q-17.25 -112.05 -41 -226.15q-7.2 -34.75 -15.8 -69.2q26.6 -27.9 30.7 -66.1q5.25 -48.55 0.6 -97.2q-4.8 -11.15 -12 -21.1q17.95 56.7 11.5 117.4q-5.4 50.3 -49.75 69.4q-2 -44.55 -1.25 -89.25q0.95 -53.35 -3.15 -105.35q8.45 -4.35 17.75 -2.15q17.55 4.15 22.9 21q-31.65 24.6 -36.95 66.35q-7.3 57.65 -5.55 117.15q0.4 13.15 8.7 22.75q16.45 19.05 35.15 0.35q14.15 -14.15 8.65 -30.6q-2 1.65 -2.8 4.1q0.1 3.45 -1.55 6.85q-10 20.5 -32.25 10.35q-3.5 -1.6 -4.15 -5.25q-7 -37.05 -5.45 -75q16.3 -2.75 33.5 -2.5q2.1 -5.2 -0.9 -9.7q-17.65 -2.25 -32.95 4.4q3.15 -39.4 20.15 -74.45q3.5 -7.2 9.9 -11.85q20.25 -14.65 30.05 8.45q3 -25.4 -23.55 -26.95q14.05 2.4 30.1 -0.1q2.55 -5.15 -0.6 -9.65q-14.05 -3.2 -26.05 0.45q18.55 -27.75 49.3 -19.5q-2.95 -15.05 -21.55 -12.75q-34.85 11.85 -38.25 48q-0.9 9.65 4.65 16.9q19.35 25.5 51.6 11.1q3.05 -3.95 2.95 -9q-0.05 -2.3 -1.7 -3.75q-30.3 15.4 -51.75 -7q-1.25 -6.15 -0.1 -11.9q1.1 20.6 4.3 40.95q3.2 20.5 7.9 41q-12.85 5.1 -19.1 17.05q-22.1 42.1 -25.3 90.65q-3.9 59.35 -4.85 119.35q-0.6 52.7 4.3 104.4q3.75 39.8 37.2 59.1q12.5 1.95 22.4 -4.95q27 -18.8 25.6 -51.3q0.6 -2.85 0.2 -5.35q-1.8 3.4 -2.65 7.3q-8.75 33.85 -43.1 35.3q-6.05 -3.15 -10.75 -8.15q-19.65 -21.05 -21.7 -51.55q-4.05 -59.15 -3.4 -119.25q3.2 -6.3 -0.85 -11.9q-20.1 2.2 -39.15 8.45q0.7 -59.25 8.5 -117.15q3.85 -28.45 20.35 -51.55q14.1 -19.65 35.95 -11.45q13.45 5.05 20.65 14.9q-1.75 -29.45 -34.6 -31.75q-2.8 23.7 -4 47.8q-7.65 -27.9 -18.55 -54.7q-1.65 0.15 -1.85 2.25q-3.05 33.2 -3.4 66.75q1.95 2.85 3 0q0.75 -2.05 0.8 -3.75q9.2 28.75 18.95 57.75q3.45 -1.8 3.55 -6.25q0.35 -22.35 3.95 -44.05q1.8 -10.65 -3 -15.2q-0.8 1.35 -1 2.95q-10.15 -43.35 -55.85 -45.4q-13.8 4.05 -23.3 15.65q-6.5 7.95 -8.85 18q-13.75 57.95 17.8 110.35q32.6 54.1 49.95 114.6q15.35 53.5 21.6 108.95q6.3 56.2 -7 110.6q-7.8 31.75 -38.45 40.05q-10.05 2.75 -17.65 -3.6q-29.45 -24.6 -28.6 -65.4q0.65 -1.45 0.75 -3q0.45 -7.65 2.2 -15.1q0.95 -3.95 0.8 -8.15q1.2 -2.15 3.05 -3.95q-1.4 0.1 -2.4 1.4q-0.6 -0.8 -1.35 -1.3q-9.6 20.15 -7.65 42.9q2.55 30.25 17.8 56.2q17.75 30.35 51.3 15.55q4.6 -2 7.4 -5.95q32 -45.15 31.8 -101.95q-0.15 -58.7 -11.25 -115.5q-11 -56.1 -31.35 -109.6q-5.2 -13.55 -12.65 -25.95q-27.15 -45.25 -40.3 -95.55q-8.95 -34.15 18.1 -55.95q4.2 -3.35 9.4 -3.7q41.75 -2.6 56.1 35.8q2.7 -3.6 1.65 -8.1q-3.9 22.5 -5.05 45.5q-0.45 9.6 2.25 18.7q0.9 3 2.65 5.65q-20.95 -0.25 -42.9 4.25q-7.5 1.55 -13.8 4.35q-5.7 21.2 1.5 40.65q17.3 -0.85 20 -19.05q1.75 -11.75 -7 -20.4q13.75 13.6 -1.5 25.25q2.7 -3.6 6.25 -6.55q-10.6 29 -8.1 61.85q0.8 10.6 5.7 19.7q8.4 3.2 15.9 -1.75q4 -2.65 5.5 -7.25q1.7 -5.35 1.35 -11.1q-0.9 -15.2 -15.7 -20.4q15.4 10.45 2.25 24.9q-6.9 -0.35 -13.05 -0.1q0.3 -11.8 0.75 -23.5q4.05 -1.7 8.3 -2.4q-5.25 39.8 -4.25 79.45q0.75 -0.5 0.85 -1.15q2.9 -18.5 3.45 -37.4q6.45 0 12.95 -1.45q-0.1 10.85 -1.2 21.35q-1.15 11.65 3.5 18.6q2.4 -37.95 0.2 -75.7q-3.3 12.9 -2.9 28q-8.9 -2.4 -13.1 4.35q0.2 -12.85 -0.65 -25.85q2.45 -5.7 0.55 -11.2q-1.15 20.25 -2.85 40.6q-1.6 18.55 -4.4 36.8q-3.2 21.15 -7.2 42.05q-3.65 18.85 -1.9 38q17.65 -48.2 16.5 -103.25q-2.1 -52.05 -16.45 -102.8q1.75 -3.95 0.6 -7.95q-0.15 -0.55 -0.5 -0.95q-11.95 -54.85 -13.9 -111.1q-11.9 14.95 -13.35 36q-1.15 16.3 -2.05 32.5q-1.95 -19.7 -2.65 -39.2q-0.6 -17.7 -8.4 -32.85q-9.15 23.1 -12.95 47.65q-2.25 14.7 -2.8 29.6q1.15 24 6.2 47.2q1.6 7.5 4.55 14.55q8.5 -21.6 13.05 -44.45q0.05 18.9 3 37.4q1.85 11.6 7.45 20.35<g id="1967" transform="matrix(1, 0, 0, 1, -11.1, 0)">
<path style="fill:#000000;fill-opacity:1" d="M437.45,28Q444.65 37.95 449.45 49.1L451.25 53.5L452.95 58L454.4 62.6L455.65 67.25L456.7 72L457.45 76.8Q462.1 125.45 456.85 174Q452.75 212.2 426.15 240.1Q434.75 274.55 441.95 309.3Q465.7 423.4 482.95 535.45Q478.45 531.4 477.1 525.35Q446.3 385.05 422.8 243.5L420.6 245.4Q413.35 251.65 403.8 252.8Q404.25 264.55 405.05 276.3Q413.75 402.75 396.7 527.7Q386.65 509.3 392.95 487.45L393.7 497.2L395.15 482.65L396.45 468.1L397.55 453.5L398.55 438.75L399.25 424.05L399.7 409.25Q401.25 314.05 396.95 218.65Q392.45 117.85 396.3 20.3L396.85 20.25L397.5 21.75L397.65 21.65Q399.3 20.55 401.1 19.75Q417.9 12.4 433.45 23.3L434.35 24.1L437.45 28M418.55,30Q409.25 27.8 400.8 32.15L398.35 33.15Q402.45 85.15 401.5 138.5Q400.75 183.2 402.75 227.75L403.2 237.8Q447.55 218.7 452.95 168.4Q459.4 107.7 441.45 51Q436.1 34.15 418.55 30M360.5,45.2L359.95 45.75Q350.15 22.65 329.9 37.3Q323.5 41.95 320 49.15Q303 84.2 299.85 123.6L299.5 128.9Q314.8 122.25 332.45 124.5Q335.45 129 333.35 134.2L332.95 135Q315.75 134.75 299.45 137.5L299.05 136.95Q297.5 174.9 304.5 211.95Q305.15 215.6 308.65 217.2Q330.9 227.35 340.9 206.85Q342.55 203.45 342.45 200L343 199.15Q343.8 196.7 345.8 195.05L346.95 194.25Q352.45 210.7 338.3 224.85Q319.6 243.55 303.15 224.5Q294.85 214.9 294.45 201.75Q292.7 142.25 300 84.6Q305.3 42.85 336.95 18.25Q363.5 19.8 360.5 45.2M460.45,290.25Q481.9 312.65 512.2 297.25Q513.85 298.7 513.9 301Q514 306.05 510.95 310Q478.7 324.4 459.35 298.9Q453.8 291.65 454.7 282Q458.1 245.85 492.95 234Q511.55 231.7 514.5 246.75L514.45 247.5Q483.7 239.25 465.15 267L464.4 268.2Q476.4 264.55 490.45 267.75Q493.6 272.25 491.05 277.4L490.45 278.25Q474.4 280.75 460.35 278.35Q459.2 284.1 460.45 290.25M327.55,339.3L317.95 420.1L340.65 417.4Q335.95 396.9 332.75 376.4Q329.55 356.05 328.45 335.45L327.55 339.3M262.95,20.5Q295.8 22.8 297.55 52.25L297.2 53Q290 43.15 276.55 38.1Q254.7 29.9 240.6 49.55Q224.1 72.65 220.25 101.1Q212.45 159 211.75 218.25L211.3 253.95Q230.35 247.7 250.45 245.5Q254.5 251.1 251.3 257.4L250.7 258.25L211.2 263.55L210.35 337.5Q209.7 397.6 213.75 456.75Q215.8 487.25 235.45 508.3Q240.15 513.3 246.2 516.45Q280.55 515 289.3 481.15L292.3 468.75Q293.15 464.85 294.95 461.45Q295.35 463.95 294.75 466.8L293.35 474.15L293.2 476.45Q294.6 508.95 267.6 527.75Q257.7 534.65 245.2 532.7Q211.75 513.4 208 473.6Q203.1 421.9 203.7 369.2L205.3 250.75Q206.25 190.75 210.15 131.4Q213.35 82.85 235.45 40.75Q241.7 28.8 254.55 23.7L262.95 20.5M114.95,84.5Q119.75 89.05 117.95 99.7Q114.35 121.4 114 143.75Q113.9 148.2 110.45 150Q100.7 121 91.5 92.25L89.8 145.5Q89.75 147.2 89 149.25Q87.95 152.1 86 149.25Q86.35 115.7 89.4 82.5Q89.6 80.4 91.25 80.25Q102.15 107.05 109.8 134.95L109.95 135.25Q111.15 111.15 113.95 87.45Q114.15 85.85 114.95 84.5M111.2,63Q96.85 24.6 55.1 27.2Q49.9 27.55 45.7 30.9Q18.65 52.7 27.6 86.85Q40.75 137.15 67.9 182.4Q75.35 194.8 80.55 208.35Q100.9 261.85 111.9 317.95Q123 374.75 123.15 433.45Q123.35 490.25 91.35 535.4Q88.55 539.35 83.95 541.35Q50.4 556.15 32.65 525.8Q17.4 499.85 14.85 469.6Q12.9 446.85 22.5 426.7L23.35 426.95Q24.1 427.45 24.7 428.25L25.75 430.45L25.85 430.6L28.85 427.1Q29.85 425.8 31.25 425.7L31.05 426.3Q29.2 428.1 28 430.25L26.25 432.45Q26.4 436.65 25.45 440.6Q23.7 448.05 23.25 455.7Q23.15 457.25 22.5 458.7Q21.65 499.5 51.1 524.1Q58.7 530.45 68.75 527.7Q99.4 519.4 107.2 487.65Q120.5 433.25 114.2 377.05Q107.95 321.6 92.6 268.1Q75.25 207.6 42.65 153.5Q11.1 101.1 24.85 43.15Q27.2 33.1 33.7 25.15Q43.2 13.55 57 9.5Q102.7 11.55 112.85 54.9Q113.9 59.4 111.2 63M95.05,163.75Q101.35 160.95 108.85 159.4Q130.8 154.9 151.75 155.15L151.2 161.75L129.25 164.4L128.95 234.25Q127.2 231.6 126.3 228.6Q123.6 219.5 124.05 209.9Q125.2 186.9 129.1 164.4L95.45 167.5L95.05 163.75M142.15,239.4L148.2 238L150.8 240.65Q159.55 249.3 157.8 261.05Q155.1 279.25 137.8 280.1L135.7 319.75Q128.5 300.3 134.2 279.1L131.7 277.1L131.95 272L134.75 271.8L137.6 243.6L138 243.5L138.2 244.05L142.15 239.4M144.45,244.5Q140.9 247.45 138.2 251.05L138 271.5L147.2 270.5Q162.45 258.85 148.7 245.25L144.45 244.5M141.15,377.1L146.95 374.7Q161.75 379.9 162.65 395.1Q163 400.85 161.3 406.2Q159.8 410.8 155.8 413.45Q148.3 418.4 139.9 415.2L138.95 457.1L138.8 457.25Q133.9 448.15 133.1 437.55Q130.6 404.7 141.2 375.7L141.15 377.1M149.2,381.45Q144.95 382.15 140.9 383.85Q140.45 395.55 140.15 407.35Q146.3 407.1 153.2 407.45Q166.35 393 150.95 382.55L149.2 381.45M166.2,238.5Q168.1 244 165.65 249.7L165.2 250.5Q166.05 263.5 165.85 276.35Q170.05 269.6 178.95 272L179.35 272.05L179.3 271Q178.9 255.9 182.2 243Q184.4 280.75 182 318.7L181.7 319.5Q177.05 312.55 178.2 300.9Q179.3 290.4 179.4 279.55Q172.9 281 166.45 281L165.75 279.7Q165.2 298.6 162.3 317.1Q162.2 317.75 161.45 318.25Q160.45 278.6 165.7 238.8L166.2 238.5M318.85,342.75Q320.3 321.7 332.2 306.75Q334.15 363 346.1 417.85L347.95 418.2L348.35 418.5Q348.7 418.9 348.85 419.45Q350 423.45 348.25 427.4Q362.6 478.15 364.7 530.2L362.05 529.8L357.7 518.45L342.8 428.05L316.95 429.45Q318.1 484.5 300.45 532.7Q298.7 513.55 302.35 494.7Q306.35 473.8 309.55 452.65Q312.35 434.4 313.95 415.85Q315.65 395.5 316.8 375.25Q317.7 359.05 318.85 342.75M166.4,534.45Q160.8 525.7 158.95 514.1Q156 495.6 155.95 476.7L153 492Q148.45 514.85 139.95 536.45Q137 529.4 135.4 521.9Q130.35 498.7 129.2 474.7L114.45 534.95Q115 520.05 117.25 505.35Q121.05 480.8 130.2 457.7L139.95 523.2L156.45 459.7Q164.25 474.85 164.85 492.55Q165.55 512.05 167.5 531.75L166.4 534.45" />
</g>
</svg>
