<?xml version="1.0" encoding="utf-8"?>
<svg version="1.1" id="Layer_1"
xmlns="http://www.w3.org/2000/svg"
xmlns:xlink="http://www.w3.org/1999/xlink"


xml:space="preserve">
q2.05 -3.15 1.45 -7.15q-0.3 -1.9 -1.1 -3.65q-13.15 -12.4 -31.25 -9.75q33.5 9.35 68.1 -0.6q17.55 -121.3 16.75 -250.4q-0.1 -20.6 -0.75 -41.3q28.4 -7.8 51.8 9.4q-5.95 23.75 -4.8 50.2q2.6 59.35 -1.25 118.5q-3.75 58.35 -8.7 116.45q-4.5 -21.7 -10.05 -43.05q-15 -57.6 -29.3 -115.25q-14.3 -57.55 -25.5 -115q-0.55 0 -0.5 0.5q-4.15 23.25 -4.65 48.9q-1.05 59.45 -4.05 118.55q-3 59.55 -10.5 118.25q-2.1 16.3 1.95 29.9q8.7 -40.85 9.7 -84.45q1.4 -59.5 5.6 -118.55q3.5 -48.75 3.25 -96.75q3.3 33.7 10.9 67.5q12.95 57.7 29.1 114.95q16.2 57.5 26.95 115.05q0.9 3.75 2.3 7.25q3.65 -39.55 5.45 -80.25q2.3 -60.05 1.45 -118.45q-4.5 36.5 -5.65 74.15q-1.85 59.55 -2.5 119.3q-0.3 30.05 -6.4 58.9q-3.55 16.7 2.05 29.55q9.8 -50.55 10.15 -103.45q0.35 -59.7 3.55 -119.2q1.7 -31.05 -0.7 -59.3q-69.05 0.1 -137.2 5.5q-0.7 3 0 5.95q43.6 0.6 87.55 -0.35q-2.35 27.65 0.45 57.2q5.3 56.1 5.15 113.4q-0.05 22.6 -3 44.75q-6.2 46.45 -55.95 57.45q-7.4 1.65 -14.2 -1.25q-31.05 -13.3 -44.25 -45.95q2.95 1.3 5.75 0q-2.85 -9.55 -11.75 -13.75q-1.7 1.35 -1.35 3.65q4 29.05 22.55 52.8q18.5 23.7 47.25 15.45q29.55 -8.55 48.05 -32.6q4.45 -5.75 5.55 -12.85q9 -58.8 2.75 -118.75q-6.2 -59.05 -1.85 -116.2q2.8 -4.25 0.4 -8.7<g id="2159" transform="matrix(1, 0, 0, 1, -22.8, 0)">
<path style="fill:#000000;fill-opacity:1" d="M488.45,115Q465.05 97.8 436.65 105.6L437.6 133.1Q438.25 153.8 438.35 174.4Q439.15 303.5 421.6 424.8L435.55 105.9Q400.95 115.85 367.45 106.5L367.45 99L390 98.45L423.9 96.45L457.95 92.75Q476.05 90.1 489.2 102.5L492.2 103.75Q493 105.5 493.3 107.4Q493.9 111.4 491.85 114.55L488.45 115M353.2,104Q354.05 162.4 351.75 222.45L346.9 340.95Q345.1 381.65 341.45 421.2Q340.05 417.7 339.15 413.95L338 417.8L337.45 417.95Q326.7 360.4 310.5 302.9Q294.35 245.65 281.4 187.95Q273.8 154.15 270.5 120.45Q270.75 168.45 267.25 217.2Q263.05 276.25 261.65 335.75Q260.65 379.35 251.95 420.2Q247.9 406.6 250 390.3Q257.5 331.6 260.5 272.05Q263.5 212.95 264.55 153.5Q265.05 127.85 269.2 104.6L269.1 102.95Q269.05 102.45 269.6 102.45L270.2 99.25L270.3 102.9Q281.5 160.35 295.8 217.9Q310.1 275.55 325.1 333.15Q330.65 354.5 335.15 376.2L338.05 389.25Q343 331.15 346.75 272.8Q350.6 213.65 348 154.3Q346.85 127.85 352.8 104.1L353.2 104M223.45,121.25Q225.85 149.5 224.15 180.55Q220.95 240.05 220.6 299.75Q220.25 352.65 210.45 403.2Q204.85 390.35 208.4 373.65Q214.5 344.8 214.8 314.75Q215.45 255 217.3 195.45Q218.45 157.8 222.95 121.3L223.45 121.25M216.2,101.25L216.85 102.05Q219.25 106.5 216.45 110.75L147.35 113.3L147.6 116L147.45 116.75Q143.1 173.9 149.3 232.95Q155.55 292.9 146.55 351.7Q145.45 358.8 141 364.55Q122.5 388.6 92.95 397.15Q64.2 405.4 45.7 381.7Q27.15 357.95 23.15 328.9Q22.8 326.6 24.5 325.25Q33.4 329.45 36.25 339Q33.45 340.3 30.5 339Q43.7 371.65 74.75 384.95Q81.55 387.85 88.95 386.2Q138.7 375.2 144.9 328.75Q147.85 306.6 147.9 284Q148.05 226.7 142.75 170.6Q139.95 141.05 142.3 113.4Q98.35 114.35 54.75 113.75L54.4 112.95Q53.7 110 54.4 107L54.75 106.25Q122.9 100.85 191.95 100.75L214.95 101L216.2 101.25" />
</g>
</svg>
