<?xml version="1.0" encoding="utf-8"?>
<svg version="1.1" id="Layer_1"
xmlns="http://www.w3.org/2000/svg"
xmlns:xlink="http://www.w3.org/1999/xlink"


xml:space="preserve">
q-1.6 2.9 -1.6 6.95q0.1 59.5 -3.7 118.5q-0.95 15 -3.7 29.65q-3.35 17.6 3.75 29.3q4.55 -4.1 4.9 -10.4q2.45 -45.7 4.5 -91.5q21.6 2.5 43.35 2.65q2.35 -4.15 1.55 -8.9q-0.35 -2.85 -2.45 -4.5q-3.5 -0.15 -7 0q-18.25 0.65 -35.75 -2.2q1.05 -25.4 -0.85 -49.65q33.55 9.65 69.35 6.6q2.05 -2.2 2.25 -5.25q-0.2 -2.35 -2.15 -3.7q-34.7 1.3 -69 -3.25q1.35 -17.75 -5.7 -29.1q-3.7 11.25 -2.6 24q4.65 52.3 -3.25 103.3q-6.55 42.2 -50.65 40.95q-4.05 -0.15 -5.3 -3.7q-7.9 -22.35 -5.75 -47.6q5.05 -59.8 6.05 -117.7q-1.8 0 -2.1 1.85q-3.5 19.45 -5.4 39.5q-5.5 58.6 -4.4 118.6q0.15 7.8 4.6 14.2q15.05 21.8 41.5 6.9q13.05 -7.35 18.9 -21.4q19.7 -47.45 14.45 -100q-1.5 -14.9 -0.35 -29.8q-45.45 -1.1 -90.45 4.5q-1.9 4.4 -0.2 8.85q-0.95 67.2 -4.15 134.8q-0.25 5.8 -1.3 11.4q-2.7 14.4 3.5 25.75q10.7 -44 9.05 -90.25q-1.45 -40.85 -2.35 -81.75q3.5 -6.7 -1.25 -12.3q-8.85 10.9 -0.9 18.65q7.7 -9.1 0.95 -18.8q2.1 39.2 -2.85 77.2q-3.25 2.9 -7.75 3.25q-10.4 -1.05 -16.25 -9q0.45 -8.1 -5.7 -9q-6.65 21.8 13.7 32.05q8.4 4.2 14.75 -2.05q12.6 -12.4 11.95 -31.05q-1.5 -44.45 -3.7 -87.65q-4.95 11.85 -4.15 26.25<g id="1994" transform="matrix(1, 0, 0, 1, -136.6, 0)">
<path style="fill:#000000;fill-opacity:1" d="M344.95,185.5L345.1 184L345.45 182.5L345.8 181.8L346.55 181.1L347.95 180.5Q382.25 185.05 416.95 183.75L418.45 183.75Q420.4 185.1 420.6 187.45L420.85 189.75L420.95 191.25L420.95 192L420.95 192.75Q420.75 195.8 418.7 198Q382.9 201.05 349.35 191.4Q351.25 215.65 350.2 241.05L349.7 253.05Q367.2 255.9 385.45 255.25Q388.95 255.1 392.45 255.25Q394.55 256.9 394.9 259.75L395.05 260.45Q395.85 265.2 393.5 269.35L392.45 270.7Q370.7 270.55 349.1 268.05Q347.05 313.85 344.6 359.55Q344.25 365.85 339.7 369.95Q332.6 358.25 335.95 340.65Q338.7 326 339.65 311Q343.45 252 343.35 192.5Q343.35 188.45 344.95 185.55L344.95 185.5M327,242.15Q332.25 294.7 312.55 342.15Q306.7 356.2 293.65 363.55Q267.2 378.45 252.15 356.65Q247.7 350.25 247.55 342.45Q246.45 282.45 251.95 223.85Q253.85 203.8 257.35 184.35Q257.65 182.5 259.45 182.5Q258.45 240.4 253.4 300.2Q251.25 325.45 259.15 347.8Q260.4 351.35 264.45 351.5Q308.55 352.75 315.1 310.55Q323 259.55 318.35 207.25Q317.25 194.5 320.95 183.25Q328 194.6 326.65 212.35Q325.5 227.25 327 242.15M231.65,192.95L181.5 196Q182.4 236.9 183.85 277.75Q185.5 324 174.8 368Q168.6 356.65 171.3 342.25Q172.35 336.65 172.6 330.85Q175.8 263.25 176.75 196.05L139.5 195L138.3 192.6Q136.6 188.15 138.5 183.75Q183.5 178.15 228.95 179.25L230.4 180.65Q235.15 186.25 231.65 192.95M227.9,231.95Q219.95 224.2 228.8 213.3L228.85 213.15Q235.6 222.85 227.9 231.95M229.2,247Q231.4 290.2 232.9 334.65Q233.55 353.3 220.95 365.7Q214.6 371.95 206.2 367.75Q185.85 357.5 192.5 335.7Q198.65 336.6 198.2 344.7Q204.05 352.65 214.45 353.7Q218.95 353.35 222.2 350.45Q227.15 312.45 225.05 273.25Q224.25 258.85 229.2 247" />
</g>
</svg>
