<?xml version="1.0" encoding="utf-8"?>
<svg version="1.1" id="Layer_1"
xmlns="http://www.w3.org/2000/svg"
xmlns:xlink="http://www.w3.org/1999/xlink"


xml:space="preserve">
q-7.45 -21.6 -31.3 -26.45q-23.7 -4.9 -33.4 19.45q-8.05 20.15 -6.3 41.75q1.75 21.7 10.05 41.9q7.7 18.65 15.65 36.85q8.75 20.1 15.3 40.9q6.55 20.8 11.65 42.15q4.65 19.45 6.5 39.4q1.85 19.9 0.85 39.65q-1.15 21.85 -7.15 42.8q-6.65 23.3 -29.45 21.9q-24.05 -1.45 -25.4 -26.05q-0.9 -15.85 2 -31.5q-18.15 22 -6.75 53.5q7.15 19.7 30.75 16.25q11.75 -1.55 19.9 -11.5q14.1 -17.05 18.4 -38.75q3.05 -15.55 4.7 -31.4q1.35 -12.55 1.15 -25.05q-0.15 -12.35 -1.4 -24.65q-1.9 -18.35 -6.5 -36.2q-8.55 -33.05 -21.95 -64.25q-17.6 -40.9 -31.4 -83.4q-9.8 -30.3 10.35 -54.8q30.4 -4.6 47.75 20.05q0.45 0.65 0.1 1.7q-37.5 4.7 -75.1 0.05q-2.65 -0.45 -5.4 -0.05q-4.1 21.55 -3.35 43.6q1.05 29.55 0.6 59.35q-0.35 21.8 -1.1 43.55q6 -6.2 6.2 -14.6q0.25 -10.1 0.95 -20.5q3.65 -55.8 -1.05 -111.45q4.8 -5.85 0.6 -12.9q-19.15 -12.25 -35.05 10.4q-12.4 17.75 -9.85 37.55q2.95 23.05 26.55 21.1q15.9 -1.65 23.2 -17.35q-14.25 13.9 -32.75 5.35q-10.5 -4.9 -11.65 -16.9q0.25 -31.7 32.05 -30.1q16.1 1.7 24.35 14.1q-13.2 -31.8 -32 -3.25q-8.15 13.4 5.1 23.7q19.3 14.95 28.15 35.55q-29.85 10.6 -34.6 -16.85q-15.75 28.05 18.75 28.8q7.15 0.9 13.8 -2q-13.6 47.2 -8.8 97.7q2.7 28.65 1.8 57.55q8.85 -29.3 15.6 -59.7q2.9 -13 8.65 -25.25q-12.35 -5.4 -22.75 3.4q-0.55 0.45 -0.95 1.05q13.35 -0.6 22.65 -10.05q7.2 -7.25 7.5 -17.45q0.05 -3.6 -1 -7.05q-1.05 -3.55 -3.5 -6.4q9.45 -31.1 24.5 -60q-27.4 19.65 -35.8 52.05q-10.05 39 -9.2 79.75q0.7 34.6 4.4 68.9q1.65 15.6 4.8 30.85q3.05 14.95 6.85 29.75q2.6 10 8.45 18.7q3.55 5.2 7.95 9.45q6.1 5.75 13.65 4.7q22.8 -2.2 36.3 -22.75q11.15 -17 12.35 -36.8q-5.95 9.95 -10.15 24.6q-3.65 12.75 -12.9 22.55q-4.2 4.4 -9.8 6.6q-3.7 1.35 -7.45 1.25q-3.4 -0.2 -6.25 -1.55q-3.45 -1.55 -6.3 -4.05q-9.8 -8.65 -15.2 -20.8q-7.2 -16.1 -9.65 -33.55q-5.1 -36 -7.85 -72.25q-5.15 -53.35 7.45 -104.8q3.85 -15.75 15.55 -26.5q5 -4.65 11.95 -5.4q-7 -4.85 -15.6 -3.95q14.75 10.8 9.55 28.75q3.75 25.05 5.1 50.95q3.05 57.6 4.7 115.55q1.75 59.55 2.1 119.25q0.4 59.9 -3.1 119.2q-2.5 36.8 -30.7 59q-6 4.75 -13.45 6.15q-36.65 7.05 -51.7 -27.8q-2.35 -5.05 -4.15 -10.6q-18.25 -57 -23.05 -117.55q-4.65 -59.15 -2.05 -119.25q2.6 -60.05 -2.35 -119.35q-4.95 -59.85 -12.4 -116.2q-3.9 23.15 0.3 45.7q0.45 7.8 0.5 15.75q6.9 36.8 6.55 75.75q2.85 57 0.45 114.75q-2.5 60.2 2.75 119.35q5.35 60.75 26.3 116.85q5.95 7.8 11.45 16q8.35 12.55 22.9 13.5q34.2 2.2 54.2 -27.55q8.8 -13.1 12.65 -28.3q14.45 -57.4 15.4 -117.4q0.95 -59.6 -0.3 -119.2q-1.3 -59.85 -3.5 -119.3q-2.3 -60.4 -9.85 -116.45q-39.85 0.8 -80.5 5q-1.5 2.7 -3.35 5.2q-2.85 6.45 -1.7 14q1.55 16 4.85 31.5q2.1 23.3 6.25 46.4q10.45 57.85 -0.25 115.6q-8.1 8.9 -20.5 7.75q-14.45 -11.35 -22.75 -28.75q-2.1 -21.15 2 -40q-15.25 24.1 -9 51q5.95 10.85 14.6 19.65q17.1 17.55 32.6 -2.65q5.1 -6.7 7.25 -14.5q14.55 -53 3.3 -107.5q-0.85 -1.05 -1.25 -2.25q-5.5 -46.05 -11.8 -90.3q-0.75 -0.5 -1.75 -0.6q4.8 1.75 5.9 6.45q9.35 5.6 11.5 15.75q10.75 44.35 -1.75 89.25q-2.35 17.6 -14 30q-32.3 -3.6 -35.35 -42.45q-1.7 -22 -0.25 -44q1.7 -25.15 16 -45.9q4.7 -6.9 10.6 -13.15q-2.45 -1.45 -4.6 -3.3q-17.55 17.05 -25.15 40.85q-14.65 45.6 -4.7 92.6q5.4 25.35 29.35 29.05q3.95 -2.35 7.25 -6.4q19.6 -24.25 22 -55.1q3.4 -15 4.15 -30.75q0.75 -15.65 0.95 -30.75q0.3 -20.4 -14.85 -29.5q-1.8 -3.4 -5.15 -5.45q4.95 82.25 2.45 164.65q-0.85 28.75 -1.4 57.55q16.6 3.5 30.45 -6.3q42.7 -30.55 56.25 -81.3q6.55 -24.6 4.8 -50.05q-1.9 -8.7 -7.3 -15.7q-10.4 -18.45 -30.05 -27.65q-15.85 -7.35 -31.05 -10.05q7.6 36.25 4.65 73.3q-1.05 12.9 -5.15 25.35q-8.3 25.25 -26.8 44.55q-8.2 8.55 -18.1 14.65q-8.15 4.95 -18.15 4.9q8.6 -76.1 5.8 -152.95q-1.25 -34.15 -5.1 -68.25q28.8 7.15 48.95 29.4q3.3 3.6 4.85 8.05q-6.8 35.95 -5.6 73.35q1.95 1.15 2.5 -0.5q8.7 -17.8 6.55 -39.15q-2 -19.65 -1.8 -37.6q-1.2 1.6 -1.65 3.9q-12.95 17.4 -33.9 18.6q-13.35 0.65 -17.2 -15.75q-2.25 -9.5 -1.8 -19.4q-15.85 -0.55 -29.9 7q-2.45 1.3 -4.75 2.8q0.6 -18.8 17.95 -23.75q11.9 -3.5 21.45 3.8q-24 -8.5 -36.45 12.05q-7.55 12.45 -12.05 26q-2.9 17 4.15 32.75q2.2 4.9 5.5 9.35q-35.9 -3.1 -71.05 3.4q8.6 21.2 4.6 43.2q-1.25 6.8 -5.25 12.4q-9.95 1 -19.2 -2.8q-6.9 -2.95 -12.05 -8.45q-10.2 10.8 -5.25 24.8q13.85 8.9 30.25 7.5q13.8 -12.4 16.05 -30.95q2.1 -17.4 -4.15 -33.9q12.4 6.25 24.2 -2.05q14.05 -9.85 22.65 -24.75q-1.55 -3.1 -2.75 -6.4q-19.6 -12.8 -36.75 7.9q-12.1 14.6 -18.05 32.7q-6.55 19.8 -6.25 40.55q0.35 22.5 12.15 41.35q13.3 21.15 35.65 12.6q21.25 -7.95 25.85 -31.05q1 -5.15 0.65 -10.55q-7.05 11.15 -12.8 25.25q-2.9 7.05 -10.7 8.7q-7.3 1.6 -13.8 -1.6q-23.95 -11.4 -28.75 -39.4q-8 -46.55 24.7 -76.85q10.05 -9.35 21.9 -2.4q4.3 2.5 8.2 4.45q2.05 -2.6 0.75 -5.25<g id="2000" transform="matrix(1, 0, 0, 1, -2.5, 2.95)">
<path style="fill:#000000;fill-opacity:1" d="M523.2,41.55Q505.85 16.9 475.45 21.5Q455.3 46 465.1 76.3Q478.9 118.8 496.5 159.7Q509.9 190.9 518.45 223.95Q523.05 241.8 524.95 260.15Q526.2 272.45 526.35 284.8Q526.55 297.3 525.2 309.85Q523.55 325.7 520.5 341.25Q516.2 362.95 502.1 380Q493.95 389.95 482.2 391.5Q458.6 394.95 451.45 375.25Q440.05 343.75 458.2 321.75Q455.3 337.4 456.2 353.25Q457.55 377.85 481.6 379.3Q504.4 380.7 511.05 357.4Q517.05 336.45 518.2 314.6Q519.2 294.85 517.35 274.95Q515.5 255 510.85 235.55Q505.75 214.2 499.2 193.4Q492.65 172.6 483.9 152.5Q475.95 134.3 468.25 115.65Q459.95 95.45 458.2 73.75Q456.45 52.15 464.5 32Q474.2 7.65 497.9 12.55Q521.75 17.4 529.2 39L524.7 45L523.3 43.25Q523.65 42.2 523.2 41.55M409.95,13L380.55 15.2Q385.25 70.85 381.6 126.65Q380.9 137.05 380.65 147.15Q380.45 155.55 374.45 161.75Q375.2 140 375.55 118.2Q376 88.4 374.95 58.85Q374.2 36.8 378.3 15.25L330.2 11.5L334.45 4.75Q337.2 4.35 339.85 4.8Q377.45 9.45 414.95 4.75L409.95 13M437.95,13.5Q406.15 11.9 405.9 43.6L437.2 36.1L433.7 41.75L406.3 49.45Q407.45 61.45 417.95 66.35Q436.45 74.9 450.7 61Q443.4 76.7 427.5 78.35Q403.9 80.3 400.95 57.25Q398.4 37.45 410.8 19.7Q426.7 -2.95 445.85 9.3Q450.05 16.35 445.25 22.2L437.95 13.5M329.2,86Q348 57.45 361.2 89.25L358.8 94.6Q350.55 82.2 334.45 80.5L329.2 86M329.95,93.75L366.8 138.9L358.45 157.5Q351.8 160.4 344.65 159.5Q310.15 158.75 325.9 130.7L326.1 131.15Q330.85 158.6 360.7 148Q351.85 127.4 332.55 112.45Q319.3 102.15 327.45 88.75L329 86.35L329.95 93.75M382.95,168.25Q367.9 197.15 358.45 228.25L378.55 308.35L376.35 318.15Q378.8 321 379.85 324.55Q380.9 328 380.85 331.6L380.75 334.85Q380.45 345.05 373.25 352.3Q363.95 361.75 350.6 362.35L349.45 394.95L343.45 404.7L344.8 362.15L334.75 360.9L338.45 354.7L345.6 354.95L351.9 319.45L348.4 323L344.7 322.5L347.15 318.7Q347.55 318.1 348.1 317.65Q358.5 308.85 370.85 314.25L354.95 246L353.7 234.05Q347.95 246.3 345.05 259.3Q338.3 289.7 329.45 319Q330.35 290.1 327.65 261.45Q322.85 210.95 336.45 163.75L337.55 264.8L353.3 228.6L352.7 227.25L355.7 220L355.95 219.75L356.6 219.9L357.05 220.15L384.1 163.85L382.95 168.25M477.2,244.4L478.95 245.25L482.95 249.25L489.95 262.75L486.2 268.5L472.95 253.25L466.6 251.5L457.9 251.05Q450.95 251.8 445.95 256.45Q434.25 267.2 430.4 282.95Q417.8 334.4 422.95 387.75L453.95 388.7L448.7 397.45L423.3 394.55Q426.05 430.8 431.15 466.8Q433.6 484.25 440.8 500.35Q446.2 512.5 456 521.15Q458.85 523.65 462.3 525.2Q465.15 526.55 468.55 526.75Q472.3 526.85 476 525.5Q481.6 523.3 485.8 518.9Q495.05 509.1 498.7 496.35Q502.9 481.7 508.85 471.75L508.7 475.35Q507.5 495.15 496.35 512.15Q482.85 532.7 460.05 534.9Q452.5 535.95 446.4 530.2Q442 525.95 438.45 520.75Q432.6 512.05 430 502.05Q426.2 487.25 423.15 472.3Q420 457.05 418.35 441.45Q414.65 407.15 413.95 372.55Q413.1 331.8 423.15 292.8Q431.55 260.4 458.95 240.75L461.6 240.45Q470.2 239.55 477.2 244.4M375.25,347.2Q380.45 329.25 365.7 318.45L352.2 319.35L350.9 354.8L374.45 349.5L375.25 347.2M299.45,3Q307 59.05 309.3 119.45Q311.5 178.9 312.8 238.75Q314.05 298.35 313.1 357.95Q312.15 417.95 297.7 475.35Q293.85 490.55 285.05 503.65Q265.05 533.4 230.85 531.2Q216.3 530.25 207.95 517.7Q202.45 509.5 196.5 501.7Q175.55 445.6 170.2 384.85Q164.95 325.7 167.45 265.5Q169.85 207.75 167 150.75Q167.35 111.8 160.45 75L160.25 74.25Q160.2 66.3 159.75 58.5L159.75 57Q155.55 34.45 159.45 11.3L160 9.75Q167.45 66.1 172.4 125.95Q177.35 185.25 174.75 245.3Q172.15 305.4 176.8 364.55Q181.6 425.1 199.85 482.1Q201.65 487.65 204 492.7Q219.05 527.55 255.7 520.5Q263.15 519.1 269.15 514.35Q297.35 492.15 299.85 455.35L302.25 417.7Q305.75 358.4 305.35 298.5Q305 238.8 303.25 179.25Q301.6 121.3 298.55 63.7Q297.2 37.8 293.45 12.75L299.45 3M91.75,8.35L91.5 8.75L87.15 15.45L86 17L57.5 17.45Q63.8 61.7 69.3 107.75L69.25 108.5Q69.65 109.7 70.5 110.75Q81.75 165.25 67.2 218.25Q65.05 226.05 59.95 232.75Q44.45 252.95 27.35 235.4Q18.7 226.6 12.75 215.75Q6.5 188.85 21.75 164.75Q17.65 183.6 19.75 204.75Q28.05 222.15 42.5 233.5Q54.9 234.65 63 225.75Q73.7 168 63.25 110.15Q59.1 87.05 57 63.75Q53.7 48.25 52.15 32.25L52 31.5Q50.85 23.95 53.7 17.5L5.25 19.25Q7.1 16.75 8.6 14.05L9.5 12.75Q50.15 8.55 90 7.75Q91 7.85 91.75 8.35M108.15,95.9Q93.85 116.65 92.15 141.8Q90.7 163.8 92.4 185.8Q95.45 224.65 127.75 228.25Q139.4 215.85 141.75 198.25L141.5 196Q154 151.1 143.25 106.75Q141.1 96.6 131.75 91L131.65 89.95Q130.55 85.25 125.75 83.5L118.75 82.75Q112.85 89 108.15 95.9M140.5,85.75Q155.65 94.85 155.35 115.25Q155.15 130.35 154.4 146Q153.65 161.75 150.25 176.75Q147.85 207.6 128.25 231.85Q124.95 235.9 121 238.25Q97.05 234.55 91.65 209.2Q81.7 162.2 96.35 116.6Q103.95 92.8 121.5 75.75L126.5 76.45L130.75 77Q132.9 78.85 135.35 80.3Q138.7 82.35 140.5 85.75M17.55,248.2L24.15 246.55Q39.35 249.25 55.2 256.6Q74.85 265.8 85.25 284.25Q90.65 291.25 92.55 299.95L93.7 305.15L94.85 310.3L95.85 315.45L96.75 320.75L98.2 331.3L99.75 347.3Q101.5 372.75 94.95 397.35Q81.4 448.1 38.7 478.65Q24.85 488.45 8.25 484.95L2.5 480.2L9.25 467.7L15.75 474.45L21.85 475.05Q22.4 446.25 23.25 417.5Q25.75 335.1 20.8 252.85L15.5 251.5L17.55 248.2M74.1,283.2Q53.95 260.95 25.15 253.8Q29 287.9 30.25 322.05Q33.05 398.9 24.45 475Q34.45 475.05 42.6 470.1Q52.5 464 60.7 455.45Q79.2 436.15 87.5 410.9Q91.6 398.45 92.65 385.55Q95.6 348.5 88 312.25L78.95 291.25Q77.4 286.8 74.1 283.2M315.7,480.2Q315.5 498.15 317.5 517.8Q319.65 539.15 310.95 556.95Q310.4 558.6 308.45 557.45Q307.25 520.05 314.05 484.1Q314.5 481.8 315.7 480.2M164,451.4Q155.4 466.3 141.35 476.15Q129.55 484.45 117.15 478.2L113 485.2L86.9 484.35Q93.15 500.85 91.05 518.25Q88.8 536.8 75 549.2Q58.6 550.6 44.75 541.7L43.35 537.6Q38.4 523.6 48.6 512.8L51.85 514.55L47.25 521.2L48.5 528.7Q53.65 534.2 60.55 537.15Q69.8 540.95 79.75 539.95Q83.75 534.35 85 527.55Q89 505.55 80.4 484.35L41.9 485.55L45 480.2Q80.15 473.7 116.05 476.8Q112.75 472.35 110.55 467.45Q103.5 451.7 106.4 434.7L105 435.2Q109.5 421.65 117.05 409.2Q129.5 388.65 153.5 397.15L158.95 404.95L154.95 410.25L152.25 407.45Q142.7 400.15 130.8 403.65Q113.45 408.6 112.85 427.4Q115.15 425.9 117.6 424.6Q131.65 417.05 147.5 417.6L143 424.7L112.35 432.65Q111.9 442.55 114.15 452.05Q118 468.45 131.35 467.8Q152.3 466.6 165.25 449.2L164 451.4M400.7,416.35Q396.8 414.4 392.5 411.9Q380.65 404.95 370.6 414.3Q337.9 444.6 345.9 491.15Q350.7 519.15 374.65 530.55Q381.15 533.75 388.45 532.15Q396.25 530.5 399.15 523.45Q404.9 509.35 411.95 498.2Q412.3 503.6 411.3 508.75Q406.7 531.85 385.45 539.8Q363.1 548.35 349.8 527.2Q338 508.35 337.65 485.85Q337.35 465.1 343.9 445.3Q349.85 427.2 361.95 412.6Q379.1 391.9 398.7 404.7Q399.9 408 401.45 411.1Q402.75 413.75 400.7 416.35" />
</g>
</svg>
