<?xml version="1.0" encoding="utf-8"?>
<svg version="1.1" id="Layer_1"
xmlns="http://www.w3.org/2000/svg"
xmlns:xlink="http://www.w3.org/1999/xlink"


xml:space="preserve">
q-8.6 57.6 -21.15 114.5q-13.45 -33 -16.95 -69.3q-1.4 -14.6 -8.05 -22.45q-7.95 39.85 -15.5 79.95q-5.7 -37.4 -7.95 -75.35q-0.85 -14.1 -6.55 -23.65q-0.55 24.55 2.75 49.5q3.3 24.7 4.85 49.55q0.8 13.35 6.65 20.95q10.7 -39.85 16.5 -80.15q5.1 45.35 22.75 86.25q1.15 -0.5 1.55 -1.35q11.8 -23.25 14.75 -49.75q2.95 -26.5 9.8 -52.3q4.4 -16.8 -1.6 -29.1q-1.8 0.6 -2.1 2.75q-17.2 8.8 -21.25 27.75q-4.55 21.45 -7.35 43.2q-2.75 21.75 -3.8 43.75q-0.85 17 -0.4 34.1q0.45 17.05 2.45 33.7q21.85 15.05 40.75 -8.9q3.65 -5.2 6.25 -10.95q1.5 -4.65 2 -9.45q-14.4 34.5 -45.5 42.5q-6.45 1.6 -12 -2.5q-3.9 -40.1 -1.95 -80.4q1 -3.9 -1.65 -6.85q-23.95 1 -46.5 11.3q-7.65 -49.05 20.55 -85.55q2 -2.55 4.45 -4.75q1.5 -1 1.05 -3.6q-1.2 -7.2 -5.1 -13.55q-7.4 103.95 -7.15 208.15q-3.7 7.2 0.4 13.9q24.55 -2.6 45.7 -15.85q10.45 -11.85 14.75 -26.95q11.8 -41.35 9.7 -84.4q-1.75 -36 -18.25 -67.1q-5.95 -11.3 -16.85 -17.65q-5.6 -3.2 -11.7 -5.1q-6.45 -1.95 -13.4 -2.7q-5.9 -0.75 -11.85 -0.3q14.8 3.9 21.85 17.3q18.45 35.05 20.85 75q2.3 38.75 -15.7 72.1q-19.1 35.4 -57.5 36.65q3.7 -48.55 4.3 -97.65q12.55 1.6 25 4.9q-16.45 5.6 -28.55 18.65q-21.75 23.5 -25.1 56.15q-5.65 56.05 -3.25 113.4q0.7 35.15 31 48.75q4.9 2.2 9.95 1.3q20.6 -3.7 34.05 -20.35q18.55 -23 21.25 -50.45q-10 11.65 -17.55 25.65q-8.4 15.45 -23.2 25.05q-26.6 17.25 -44.5 -9.75q-7.45 -42.55 -6.1 -85.55q23.4 -4.35 47.7 -10.35q3.85 -3.7 6.75 -8q0.05 -1.7 -1 -3q-27.3 3.85 -52.85 13.5q0.6 -12.15 1.9 -24.35q2.7 -25.05 10.5 -48.9q10.2 -31.25 42.7 -39.85q7.4 -1.95 13.1 2.4q7.35 5.5 13.15 6.95q-0.35 -6 -4.2 -11.1q-1.35 -1.75 -2.05 -3.9q-9.1 -7.5 -21.3 -5.95q-4.15 -21.65 -26.25 -23.55q-4.05 2.05 -7.8 5.05q-47.4 37.75 -52.05 99.7q-4.25 57.4 8.15 113.1q1.6 7.3 2.6 14.55q4.7 34.65 30.65 55.3q14.35 -7.45 25.5 -19q24.6 -25.55 25.95 -58.2q-5.45 11.35 -12 22.35q-7.25 12.2 -15.7 23.6q-13.05 17.6 -33.75 18.5q-16.4 -11.1 -22.05 -30.85q-16.35 -57.5 -15.7 -118.1q0.5 -47.3 24.75 -87.3q13.85 -22.95 38.95 -26.95q4.45 1.9 7.75 5.25q1.65 1.6 4 2.25q1.6 3.15 5 3.8q-15.7 39.8 -10.95 84.5q1.55 14.5 1.75 29.2q0.15 14.5 0.9 29.05q0 -0.25 0.45 -0.5q5.2 -35.65 3.3 -71.75q-6.65 39.15 5.2 74.7q5.9 -37.7 1.4 -75.95q1.65 -2.75 1.3 -5.8q-0.2 -1.85 -1.1 -3.5q-5.65 30.3 -5.75 61.05q-1.25 -28.8 5.85 -56.7<g id="1998" transform="matrix(1, 0, 0, 1, -37.85, 0)">
<path style="fill:#000000;fill-opacity:1" d="M344.95,171Q350.95 183.3 346.55 200.1Q339.7 225.9 336.75 252.4Q333.8 278.9 322 302.15Q321.6 303 320.45 303.5Q302.8 262.6 297.7 217.25Q291.9 257.55 281.2 297.4L280.45 299Q274.6 291.4 273.8 278.05Q272.25 253.2 268.95 228.5Q265.65 203.55 266.2 179Q271.9 188.55 272.75 202.65Q275 240.6 280.7 278Q288.25 237.9 296.2 198.05L296.7 196.5Q303.35 204.35 304.75 218.95Q308.25 255.25 321.7 288.25Q334.25 231.35 342.85 173.75Q343.15 171.6 344.95 171M393.2,149.75L397.7 153.5Q401.6 159.85 402.8 167.05Q403.25 169.65 401.75 170.65L393.7 161.25L383.95 161Q381.5 163.2 379.5 165.75Q351.3 202.25 358.95 251.3Q381.5 241 405.45 240L407.35 241.95Q410 244.9 409 248.8L408.2 251.25L358.5 261.35Q356.55 301.65 360.45 341.75Q366 345.85 372.45 344.25Q403.55 336.25 417.95 301.75L417.5 306.65Q417 311.45 415.5 316.1L412.9 322.95Q410.3 328.7 406.65 333.9L398.2 345.3Q379.3 369.25 357.45 354.2L354.6 332Q352.6 315.35 352.15 298.3Q351.7 281.2 352.55 264.2Q353.6 242.2 356.35 220.45Q359.15 198.7 363.7 177.25Q367.75 158.3 384.95 149.5L393.2 149.75M443.2,145.75Q449.15 145.3 455.05 146.05Q462 146.8 468.45 148.75Q474.55 150.65 480.15 153.85Q491.05 160.2 497 171.5Q513.5 202.6 515.25 238.6Q517.35 281.65 505.55 323Q501.25 338.1 490.8 349.95L487.4 353.65L483.7 357.05L481.8 358.7L479.8 360.3L477.7 361.8L475.55 363.25Q454.4 376.5 429.85 379.1Q425.75 372.4 429.45 365.2L433.1 363.25Q432.85 259.05 440.25 155.1L439.8 154.9L439.4 154.25L439.95 146.75L443.2 145.75M443.1,155.45L441.9 263.75Q441.3 312.85 437.6 361.4Q476 360.15 495.1 324.75Q513.1 291.4 510.8 252.65Q508.4 212.7 489.95 177.65Q482.9 164.25 468.1 160.35Q455.65 157.05 443.1 155.45M274.25,131.2L275.2 132Q275.9 134.15 277.25 135.9Q281.1 141 281.45 147Q275.65 145.55 268.3 140.05Q262.6 135.7 255.2 137.65Q222.7 146.25 212.5 177.5Q204.7 201.35 202 226.4Q200.7 238.6 200.1 250.75Q225.65 241.1 252.95 237.25L253.2 237.25Q254.25 238.55 254.2 240.25L254.2 241Q251.3 245.3 247.45 249Q223.15 255 199.75 259.35Q198.4 302.35 205.85 344.9L207.7 356.2Q225.6 383.2 252.2 365.95Q267 356.35 275.4 340.9Q282.95 326.9 292.95 315.25Q290.25 342.7 271.7 365.7Q258.25 382.35 237.65 386.05Q232.6 386.95 227.7 384.75Q197.4 371.15 196.7 336L196.05 313.45Q193.65 256.1 199.3 200.05Q202.65 167.4 224.4 143.9Q236.5 130.85 252.95 125.25Q265.15 123.7 274.25 131.2M127.95,140.25L126.8 140.5Q123.4 139.85 121.8 136.7L121.2 135.5Q118.85 134.85 117.2 133.25Q113.9 129.9 109.45 128Q84.35 132 70.5 154.95Q46.25 194.95 45.75 242.25Q45.1 302.85 61.45 360.35Q67.1 380.1 83.5 391.2Q104.2 390.3 117.25 372.7Q125.7 361.3 132.95 349.1Q139.5 338.1 144.95 326.75Q143.6 359.4 119 384.95Q107.85 396.5 93.5 403.95L83.5 403.95Q57.55 383.3 52.85 348.65Q51.85 341.4 50.25 334.1Q37.85 278.4 42.1 221Q46.75 159.05 94.15 121.3Q97.9 118.3 101.95 116.25Q124.05 118.15 128.2 139.8L127.95 140.25M116.15,178.95Q109.05 206.85 110.3 235.65L164.45 227.05Q164.55 196.3 170.2 166L170.9 226.15L175.45 225.5L176.15 226.7Q177.05 228.35 177.25 230.2Q177.6 233.25 175.95 236L171.1 237.05Q175.6 275.3 169.7 313Q157.85 277.45 164.5 238.3L110.65 243.5Q112.55 279.6 107.35 315.25Q106.9 315.5 106.9 315.75Q106.15 301.2 106 286.7Q105.8 272 104.25 257.5Q99.5 212.8 115.2 173L116.15 178.95" />
</g>
</svg>
