<?xml version="1.0" encoding="utf-8"?>
<svg version="1.1" id="Layer_1"
xmlns="http://www.w3.org/2000/svg"
xmlns:xlink="http://www.w3.org/1999/xlink"


xml:space="preserve">
q7.6 -32.7 -23.6 -45.2q-3.15 0.3 -6 1.4q-22 24.45 -26 58.35q-5.2 44.1 -5.2 89.4q0 57.7 -0.55 115.45q-0.5 48.1 20.25 89.25q22.45 -17.1 38.9 -40.05q14.15 -19.75 8.1 -40.95q-0.95 0.25 -1 0.7q-0.05 0.65 0.7 1.4q-12.5 38.35 -46.5 63.75q-1.95 -1.45 -2.65 -3.7q-14.6 -47.5 -13.3 -98.25q1.5 -59.6 0.35 -119.25q-1 -51.95 21 -97.95q2.5 -5.15 7.75 -4.85q24.4 1.45 26.6 27.8q-0.25 0.75 -0.15 1.45q0.05 0.4 0.4 0.8q-10.45 51.45 -18.05 104.1q-8.35 58.3 -17.65 116.45q-9.4 58.65 -20.95 116.95q-1.45 7.45 -3.65 14.5q-5.1 16.55 1.05 29.45q5.5 -17 8.45 -35.25q9.5 -58.05 18.1 -116.3q7.7 -52.7 15 -104.85q-0.9 48.65 5.3 97.5q3.75 29.3 3.05 59.15q-0.55 24.7 5.1 46.45q0.35 8.4 2.95 16.05q3.9 -2.35 4.05 -7.25q0.8 -24.75 3.25 -49.65q5.75 -58.9 16.8 -116.85q0.8 55.3 4.25 110.45q3.85 59.3 8.35 118.5q0.6 2.65 3 2q1.05 -0.85 1.2 -2.25q1.7 -16.55 0.25 -33.1q-5.05 -59.1 -7.35 -118.6q-2.15 -55.15 -3.3 -109.5q-9.8 37.85 -15.05 78.45q-6.4 49.55 -13.65 99.05q-3.1 -34.4 -6.65 -68.7q-6.05 -58.5 -7.8 -117.15q26 -2.8 48.4 -15.85q-25.9 3.95 -50 14.75q-6.9 40.95 -7.7 83.95q-1.05 59.45 -1.2 119.25q-0.15 59.95 -3.7 119.3q-0.9 14.9 -2.7 29.7q-2.05 16.75 4.8 29.45q3.3 -18.75 3.75 -39q1.35 -59.45 2.1 -119.2q20.2 2.4 40.3 2.35q-0.35 25.5 -0.4 50.95q-0.15 59.3 -3.2 118.2q-1.8 11.25 3 18.75q4.9 -12.95 5.1 -27.75q0.7 -59.55 0.4 -119.2q-0.1 -20.5 0.2 -41q1.4 -1.9 1.5 -4.25q0.6 -34.3 2.2 -68.5q2.8 -59.75 -1.3 -118.55q-3.1 3.45 -3.05 9.25q0.4 59.85 -1.5 119.25q-0.9 29 -1.4 57.95q-17.15 1 -34.3 -1.2q0.75 -40.2 1.95 -80.4q0.7 -22.4 2.25 -44.9q2.1 -30.4 0.35 -59.35q-5.55 12.35 -5.5 28.5q0.25 59.15 -0.3 118.5q-0.55 59.65 -2.05 119.25q-0.75 30 -3.65 59.8q-2.95 30.8 1.25 59.15q4.45 -13.4 5.1 -28.9q2.4 -59 2.9 -118.55q0.5 -59.6 1.4 -119.25q0.9 -59.95 0.85 -118.5q-31.6 15.45 -47 48.3q-24.95 53.1 -27.5 111.55q-2.55 59.05 -1.9 118.45q0.65 55.55 40.3 94.3q31.35 30.6 65.55 0.5q6.05 -5.35 13 -9.1q21.95 -11.85 22.7 -32.95q-22.8 16.05 -45.4 33.6q-26.25 20.45 -50.55 -0.15q-32.1 -27.25 -37.65 -68.85q-5.85 -44.15 -4.9 -89.05q1.1 -51.15 12.45 -100.25q10.25 -44.4 37.8 -80.55q23.05 -30.25 52.75 -7.45q1.7 0.7 1.95 2.2q0.2 1.25 1.15 2.2q0 0.35 0.15 0.7q-0.3 -28.4 -30.25 -32.5<g id="2154" transform="matrix(1, 0, 0, 1, -31.75, 0)">
<path style="fill:#000000;fill-opacity:1" d="M496.2,127.25Q495.85 126.85 495.8 126.45Q495.7 125.75 495.95 125L496.45 123.5Q494.25 97.15 469.85 95.7Q464.6 95.4 462.1 100.55Q440.1 146.55 441.1 198.5Q442.25 258.15 440.75 317.75Q439.45 368.5 454.05 416Q454.75 418.25 456.7 419.7L461.45 419.95Q495.45 394.55 507.95 356.2Q507.2 355.45 507.25 354.8Q507.3 354.35 508.25 354.1L508.95 353.95Q515 375.15 500.85 394.9Q484.4 417.85 461.95 434.95L455.45 435.2Q434.7 394.05 435.2 345.95Q435.75 288.2 435.75 230.5Q435.75 185.2 440.95 141.1Q444.95 107.2 466.95 82.75Q469.8 81.65 472.95 81.35L472.95 81.25Q504.15 93.75 496.55 126.45L496.2 127.25M355.45,70.75L356.4 71.55L356.95 72.25Q358.7 130.9 364.75 189.4Q368.3 223.7 371.4 258.1Q378.65 208.6 385.05 159.05Q390.3 118.45 400.1 80.6L401.2 76L401.2 76.4L402.2 72.75L401.4 85Q402.55 139.35 404.7 194.5Q407 254 412.05 313.1L422.15 431.35Q423.6 447.9 421.9 464.45Q421.75 465.85 420.7 466.7Q418.3 467.35 417.7 464.7Q413.2 405.5 409.35 346.2L401.75 227.65Q398.3 172.5 397.5 117.2L395.05 131.25Q384 189.2 378.25 248.1Q375.8 273 375 297.75Q374.85 302.65 370.95 305Q368.35 297.35 368 288.95Q362.35 267.2 362.9 242.5Q363.6 212.65 359.85 183.35Q353.65 134.5 354.55 85.85Q347.25 138 339.55 190.7Q330.95 248.95 321.45 307L302.4 423.45Q299.45 441.7 293.95 458.7Q287.8 445.8 292.9 429.25Q295.1 422.2 296.55 414.75Q308.1 356.45 317.5 297.8Q326.8 239.65 335.15 181.35Q342.75 128.7 353.2 77.25L354.8 75.05L354.95 70.75L355.45 70.75M442.35,270.25L442.95 268.75Q467.05 257.95 492.95 254L495.45 257.5L494.2 262.75Q471.8 275.8 445.8 278.6L442.7 277L442.35 270.25M201.45,72.5Q203.2 101.45 201.1 131.85Q199.55 154.35 198.85 176.75Q197.65 216.95 196.9 257.15L198 256.85L200.95 256.45L202.95 256.25Q220.1 258.45 237.25 257.45Q237.75 228.5 238.65 199.5Q240.55 140.1 240.15 80.25Q240.1 74.45 243.2 71Q247.3 129.8 244.5 189.55Q242.9 223.75 242.3 258.05L243.3 259.8L243.75 261.2L243.9 262L243.95 263.5Q243.85 265.85 242.45 267.75L242.15 267.75Q241.85 288.25 241.95 308.75Q242.25 368.4 241.55 427.95Q241.35 442.75 236.45 455.7Q231.65 448.2 233.45 436.95Q236.5 378.05 236.65 318.75Q236.7 293.3 237.05 267.8Q216.95 267.85 196.75 265.45L196.3 296Q195.55 355.75 194.2 415.2Q193.75 435.45 190.45 454.2Q183.6 441.5 185.65 424.75Q187.45 409.95 188.35 395.05Q191.9 335.7 192.05 275.75Q192.2 215.95 193.25 156.5Q194.05 113.5 200.95 72.55L201.45 72.5M283.35,190.25Q282.45 249.9 281.95 309.5Q281.45 369.05 279.05 428.05Q278.4 443.55 273.95 456.95Q269.75 428.6 272.7 397.8Q275.6 368 276.35 338Q277.85 278.4 278.4 218.75Q278.95 159.4 278.7 100.25Q278.65 84.1 284.2 71.75Q284.25 130.3 283.35 190.25M113.95,64.25Q143.9 68.35 144.2 96.75L143.95 97.25L143.6 96.7Q143.45 96.35 143.45 96L143.45 95.25L143.45 93.75L143.3 93.15Q142.35 92.2 142.15 90.95Q141.9 89.45 140.2 88.75L139.95 88L139.35 86.55L138.45 85Q108.75 62.2 85.7 92.45Q58.15 128.6 47.9 173Q36.55 222.1 35.45 273.25Q34.5 318.15 40.35 362.3Q45.9 403.9 78 431.15Q102.3 451.75 128.55 431.3Q151.15 413.75 173.95 397.7Q173.2 418.8 151.25 430.65Q144.3 434.4 138.25 439.75Q104.05 469.85 72.7 439.25Q33.05 400.5 32.4 344.95Q31.75 285.55 34.3 226.5Q36.85 168.05 61.8 114.95Q77.2 82.1 108.8 66.65L113.95 64.25" />
</g>
</svg>
