<?xml version="1.0" encoding="utf-8"?>
<svg version="1.1" id="Layer_1"
xmlns="http://www.w3.org/2000/svg"
xmlns:xlink="http://www.w3.org/1999/xlink"


xml:space="preserve">
q-15.1 3.3 -24.55 15q-11.5 14.45 -16.15 32.95q-14.6 58 -16.9 117.85q-2 51.85 -5.7 103.35q-4.3 59.2 7.85 116.3q2.2 10.25 10.9 15.65q28.25 17.6 56.5 -3.35q30.4 -22.55 22.75 -57.3q-1.1 -0.75 -2.35 -1.15q-3.25 5.1 -1.75 11.35q-5.7 10.9 -14.3 19.75q-20.5 21.05 -49.7 16.1q-4.7 -0.8 -7.15 -4.8q-17.3 -28.05 -16.8 -63.55q0.45 -30.2 1.7 -60.05q1.35 -32.1 2.95 -64.25q22.25 5.6 45.3 3.6q1.6 -2.8 1.75 -6q-0.35 -2.8 -1.7 -5.25q-0.35 -0.4 -0.7 -0.35q-22.2 3 -44.05 -0.7q2.7 -50.95 11.3 -101.2q1.5 -8.5 3.3 -16.95q8.4 -39.4 47.95 -43.9q6.55 2.8 10.1 8.7q4.95 8.15 9.65 15.05q0.4 -0.4 0.4 -0.8q3.35 -31.3 -27.9 -36.2q-1.05 0.8 -2.95 1.25q7.25 -22.5 6.7 -44q-7.1 11.3 -10.6 26.35q-9.6 40.9 -14.8 82.5q-7.3 58.35 -17.4 116.3q-10.15 58.3 -17 117.15q-9.35 -54.3 -17.3 -108.85q-8.5 -58.55 -19.35 -116.75q-5.5 -29.3 -9.6 -58.8q-6.15 -44.25 -19.15 -86q-0.35 0 -0.45 0.15q-4.05 7.45 1.2 14.6q3.75 21.35 6.4 42.7q2.65 21.45 7.05 42.5q12.2 58.25 19.7 117.25q7.45 58.35 18.05 116.2q5.35 29.15 8.1 58.7q1.25 13.45 8.7 20.6q0.95 -0.95 1.1 -2.3q1.95 -44.05 9.05 -87.65q9.15 -58.3 16.65 -116.9q1.9 -14.75 6.45 -28.8q-52.1 1.5 -104.45 -1.55q-0.25 0 -0.5 0.15q-0.8 1.4 -0.85 2.95q-5.7 40.85 2.25 82.45q5.65 29.5 0.8 58.4q-12.4 10.8 -28.7 11.5q-2.6 -1.95 -5.7 -2.75q-13.1 -3.35 -13.2 -16.25q-0.1 -12.35 -5.6 -19.25q-2.9 10.75 -1.9 22.5q1.15 13.15 10.45 21.55q17.05 15.45 36.6 5.2q11.2 -5.85 12.9 -17.5q6 -40.95 -1.75 -82.2q-5.55 -29.75 -1.85 -58.55q-0.25 -0.4 -0.2 -0.75q0.15 -2.15 -0.25 -4.1q0.35 -1.8 0.3 -3.7q-0.4 59.65 -4 119.15q-3.65 59.15 -2.6 119.3q1.05 60.05 -4.65 119.15q-1.3 13.75 5.1 21.6q3.6 -27.25 4.8 -55.5q2.55 -59.4 2.1 -119.2q-0.5 -59.75 3 -118.6q3.6 -59.9 0.6 -118.4q-4.2 14.75 -4.35 32.5q1.4 59.4 -0.5 118.45q-0.45 14.85 -1.75 29.85q-2.6 30.6 1.1 59.4q1.15 -0.35 1.2 -0.85q6.5 -49.15 7.35 -99.65q16.8 0.3 33.6 0.2q-0.85 30.6 3.25 59.25q1.15 -0.35 1.15 -0.8q3.15 -54 4.8 -108.65q3.25 -6.3 -0.85 -11.95q1.45 -56.15 0.7 -111.65q-5.3 26.5 -6.4 55.45q-1.05 28.05 -1.95 56.2q-17.15 0.25 -33.9 3.35q0.25 -51.75 -3.5 -103q-4.25 3.7 -4.1 11.25q2.5 -14.35 -11.6 -19q-3.15 -1.05 -6.4 -1.15q-38.9 22.35 -44.15 69.05q-7.05 63.05 5.2 125.7q2.85 14.55 16.35 21.15q8.45 4.15 17.45 2.15q3.5 -0.7 6.15 -2.75q13 -10.2 20.1 -25.1q6.85 -14.45 7.55 -30.3q-9.25 38.9 -45.3 42.8q-10.7 0.95 -18.05 -7.8q-21.7 -79.9 8.9 -151.4q7.65 -17.85 23.6 -29.3<g id="2155" transform="matrix(1, 0, 0, 1, -13.8, 0)">
<path style="fill:#000000;fill-opacity:1" d="M418.95,94.5Q450.2 99.4 446.85 130.7Q446.85 131.1 446.45 131.5Q441.75 124.6 436.8 116.45Q433.25 110.55 426.7 107.75Q387.15 112.25 378.75 151.65Q376.95 160.1 375.45 168.6Q366.85 218.85 364.15 269.8L363.45 282.95Q385.3 286.65 407.5 283.65Q407.85 283.6 408.2 284Q409.55 286.45 409.9 289.25L409.95 290L409.95 290.75L409.95 291.5Q409.8 294.7 408.2 297.5Q385.15 299.5 362.9 293.9Q361.3 326.05 359.95 358.15Q358.7 388 358.25 418.2Q357.75 453.7 375.05 481.75Q377.5 485.75 382.2 486.55Q411.4 491.5 431.9 470.45Q440.5 461.6 446.2 450.7L445.2 446.3Q443.7 440.05 446.95 434.95L448.35 435.05Q449.6 435.45 450.7 436.2Q458.35 470.95 427.95 493.5Q399.7 514.45 371.45 496.85Q362.75 491.45 360.55 481.2Q348.4 424.1 352.7 364.9Q356.4 313.4 358.4 261.55Q360.7 201.7 375.3 143.7Q379.95 125.2 391.45 110.75Q400.9 99.05 416 95.75Q417.9 95.3 418.95 94.5M351.3,168.3Q343.8 226.9 334.65 285.2L316.05 401.55Q308.95 445.15 307 489.2L306.85 490.75L306.05 500.65Q305.9 502 304.95 502.95Q297.5 495.8 296.25 482.35Q293.5 452.8 288.15 423.65Q277.55 365.8 270.1 307.45Q262.6 248.45 250.4 190.2Q246 169.15 243.35 147.7Q240.7 126.35 236.95 105Q231.7 97.85 235.75 90.4Q235.85 90.25 236.2 90.25Q249.2 132 255.35 176.25Q259.45 205.75 264.95 235.05Q275.8 293.25 284.3 351.8Q292.25 406.35 301.6 460.65L304.65 437.8Q311.5 378.95 321.65 320.65Q331.75 262.7 339.05 204.35Q344.25 162.75 353.85 121.85Q357.35 106.8 364.45 95.5Q365 117 357.75 139.5Q353.2 153.55 351.3 168.3M164.35,91.6L164.75 92.2L165.35 93.8L165.55 94.45L165.95 97.5Q166 99.4 165.65 101.2L165.2 102.75L164.9 103.45L164.45 104.25L163.65 104.85L162.25 105.55L160.9 106.1L158.75 106.85L157.95 107.25L121 105.15Q121.4 107.1 121.25 109.25Q121.2 109.6 121.45 110Q117.75 138.8 123.3 168.55Q131.05 209.8 125.05 250.75Q123.35 262.4 112.15 268.25Q92.6 278.5 75.55 263.05Q66.25 254.65 65.1 241.5Q64.1 229.75 67 219Q72.5 225.9 72.6 238.25Q72.7 251.15 85.8 254.5Q88.9 255.3 91.5 257.25Q107.8 256.55 120.2 245.75Q125.05 216.85 119.4 187.35Q111.45 145.75 117.15 104.9L45.75 99.75L45.3 98.95L45 98.25L44.75 96.75L44.75 96L44.75 94.5L44.75 93.75Q44.8 92.2 45.6 90.8L46.5 89.5Q46.75 89.35 47 89.35L56 89.25L56.5 89.25Q108.85 92.3 160.95 90.8L163.45 90.75L164.35 91.6M212.2,93Q215.2 151.5 211.6 211.4Q208.1 270.25 208.6 330Q209.05 389.8 206.5 449.2Q205.3 477.45 201.7 504.7Q195.3 496.85 196.6 483.1Q202.3 424 201.25 363.95Q200.2 303.8 203.85 244.65Q207.45 185.15 207.85 125.5Q208 107.75 212.2 93M113.45,284.75Q117.2 336 116.95 387.75Q133.7 384.65 150.85 384.4Q151.75 356.25 152.8 328.2Q153.9 299.25 159.2 272.75Q159.95 328.25 158.5 384.4L160.45 384.45Q164.55 390.1 161.3 396.4L160.7 397.2L158.15 397.25Q156.5 451.9 153.35 505.9Q153.35 506.35 152.2 506.7Q148.1 478.05 148.95 447.45L150.45 397.3Q133.65 397.4 116.85 397.1L116.75 403.2Q115.9 453.7 109.4 502.85Q109.35 503.35 108.2 503.7Q104.5 474.9 107.1 444.3Q108.4 429.3 108.85 414.45Q110.75 355.4 109.35 296Q109.2 288.45 113.45 284.75M68,295.25Q52.05 306.7 44.4 324.55Q13.8 396.05 35.5 475.95Q42.85 484.7 53.55 483.75Q89.6 479.85 98.85 440.95L103.2 438.95Q102.5 454.8 95.65 469.25Q88.55 484.15 75.55 494.35L70 498.55Q67.35 500.6 63.85 501.3Q54.85 503.3 46.4 499.15Q32.9 492.55 30.05 478Q17.8 415.35 24.85 352.3Q30.1 305.6 69 283.25Q72.25 283.35 75.4 284.4Q89.5 289.05 87 303.4L77.75 294.75L68 295.25" />
</g>
</svg>
