<?xml version="1.0" encoding="utf-8"?>
<svg version="1.1" id="Layer_1"
xmlns="http://www.w3.org/2000/svg"
xmlns:xlink="http://www.w3.org/1999/xlink"


xml:space="preserve">
q-1.2 -0.25 -1.6 0.85q-14.95 43.35 -25 89q-12.85 58.3 -21.55 117.25q-8.5 57.7 -17.6 115.3q-7.3 -38.5 -15.75 -76.8q-12.75 -57.85 -32.55 -112.95q-0.6 0 -0.7 0.25q-20.25 50.2 -30.7 104.75q-5.5 29 -14.6 57.2q-4.3 13.3 -5.35 26.25q-5.8 -48.2 -13.15 -96.25q-8.95 -58.5 -19.55 -116.7q-10.6 -58.2 -20.7 -115.95q-4.4 5.05 -2.85 13.7q3.95 22.05 7.3 44.05q9 58.55 20.45 117q11.3 57.85 18.05 116.4q3.35 29.25 5.15 58.65q0.8 13.2 7.9 20.15q4 -7.85 1.75 -13.95q1.5 -3.6 1.45 -7.95q-1.65 -1.75 -0.8 -5.35q13.65 -57.55 26.25 -115.25q6.4 -29.15 16.45 -57.3q3.6 -10 3.8 -19.5q11.45 54.2 24.55 108.85q10.3 42.8 17.75 86.3q2.65 15.6 9.25 27.5q3.3 -6.95 2 -13q1.85 -4.8 0.7 -10.15q6 -55.7 14.1 -111.05q8.5 -58.35 20.45 -116.15q11.95 -57.7 28.45 -113.25q1.85 -5.3 -2 -9q-10.6 -3.35 -22.4 -1.35q-32.35 9.8 -42.85 42.7q-14.65 46 -18.05 95.2q-4.15 59.45 -7.2 119.3q-3.05 59.05 -4.85 118.5q-1.35 44.3 6.95 86.85q3.1 15.85 14.5 26.95q23.7 23.15 59.5 16.7q2.8 -0.5 5.1 -2q29.55 -19.3 38.3 -54.6q3.3 -13.2 -4.65 -19.65q-2.7 2.85 -2.8 6.75q-0.1 3.1 -1.5 5.85q-0.35 -0.05 -0.45 0.15q-0.15 0.2 -0.05 0.55q0.6 0.45 1.25 0.6q-1.1 5.4 -3.1 10.55q-7.7 19.7 -26.2 29.15q-12.9 6.6 -28.3 4.85q-40.3 -4.55 -45.9 -44.4q-6.2 -44.15 -4.5 -89.2q2.1 -57.2 5.15 -114q29.1 -4.85 57.75 -8.3q2.85 -7.05 -1.45 -12.7q-28.15 -1.4 -52.25 9.05q3.1 -54.95 7.75 -109.45q3.2 -37.05 15.3 -71.85q9.5 -27.3 37.05 -33.9q10.6 -2.5 20.2 1.55q22.6 9.6 29.85 33.25q5.35 -10.4 -1.25 -21.65q-8.8 -14.95 -22.25 -26.1q0.65 -16.65 -4.9 -29.3q-4 23.7 -1.65 49.45q3.75 40.95 -16.85 73.55q-5.9 1.35 -11.05 -0.95q-5.85 -2.6 -7.2 -8.45q-6.2 -27.45 -3.75 -56.65q2.55 -30.3 1.5 -59.2q-6.2 19.15 -5.95 42.25q0.2 13.1 -1.25 26.1q-3.4 30.65 4.2 59.4q8.65 5.4 19 4q20.1 -23.25 20.5 -54.5q0.35 -26.1 1.4 -52.45q-3.2 10.8 -3.3 24q-0.55 59.7 -4.4 118.55q-2 29.6 -4.65 59.05q-0.9 9.6 0.4 17.8q-0.7 2.2 -0.75 4.6q-0.05 3.75 1.95 6.75q0.35 0.35 0.75 0.35q23.35 0.4 46.35 -2.65q15.35 -2 22.45 -15.8q27.95 -54.2 17.15 -114.55q-3.25 -18.2 -8.45 -36.3q-14.7 -51.2 -65.75 -59.8q15.9 1.5 31 9q29.25 28.85 37.65 70.35q11.35 56.35 -14.45 106.6q-3.75 7.35 -11.4 10.2q-23.85 8.85 -50.35 6.6q2 -49.4 5.3 -98.45q3.6 -52.95 1.6 -105.15q-1.5 29.35 -3.75 58.6q0.35 -31.65 -0.35 -63.05q-4.8 4.7 -5 12.7q0.25 1.75 2 2q4.65 -6.05 5 -14.7q0.95 -21.8 1.4 -43.5q7.65 -1.75 15.5 -2.9q-1.6 16.95 3.65 29.35q2.5 -2.85 2.85 -6.7q2.15 -23.55 2.9 -46.95q1.95 -2.15 1.5 -5.35q-0.3 -2.2 -1.25 -4.05q0.6 -31.2 -1.25 -62.15q-1.5 -0.1 -1.55 1.5q-11 5.15 -16.1 16.7q-20.65 46.25 -10.95 96.25q1.45 7.35 7.55 11.15q22.45 13.9 38.5 -8.05q9.6 -13.15 1.5 -20.85q-10.65 23.5 -36.5 19q-7.85 -10 -8.65 -22.95q-2.5 -42.8 21.65 -77.3q13.6 -1.7 24.25 8.5q0.75 -18.9 -21.35 -21.7q-7.15 0.85 -14.6 2.7q-4.35 1.05 -8.4 3.1q-0.9 2.2 -0.75 4.5q4.6 -1.65 9.5 -2.05q-5.25 18.35 -2.6 39.85q3.45 27.3 -5.8 52.05q-3.75 9.95 -14.35 10.5q-25.3 1.3 -28.9 -25.4q3.45 -7.6 -2.5 -13.5q-9.5 18.95 1.35 39.45q5.9 11.1 17.4 14.6q20.3 6.1 29.8 -13.15q12.1 -24.5 10.7 -53.2q17.4 -0.2 34.9 0.75q1.05 -2.15 1.15 -4.45q0 -1.15 -0.4 -2.3q-0.4 -0.35 -0.75 -0.35<g id="1989" transform="matrix(1, 0, 0, 1, -6.25, 0)">
<path style="fill:#000000;fill-opacity:1" d="M516.45,171.25L516.2 172Q499.7 227.55 487.75 285.25Q475.8 343.05 467.3 401.4Q459.2 456.75 453.2 512.45Q454.35 517.8 452.5 522.6Q453.8 528.65 450.5 535.6L449.45 537.2Q442.85 525.3 440.2 509.7Q432.75 466.2 422.45 423.4Q409.35 368.75 397.9 314.55Q397.7 324.05 394.1 334.05Q384.05 362.2 377.65 391.35Q365.05 449.05 351.4 506.6Q350.55 510.2 352.2 511.95Q352.25 516.3 350.75 519.9Q353 526 349 533.85L348.45 534.45Q341.35 527.5 340.55 514.3Q338.75 484.9 335.4 455.65Q328.65 397.1 317.35 339.25Q305.9 280.8 296.9 222.25Q293.55 200.25 289.6 178.2Q288.05 169.55 292.45 164.5Q302.55 222.25 313.15 280.45Q323.75 338.65 332.7 397.15Q340.05 445.2 345.85 493.4Q346.9 480.45 351.2 467.15Q360.3 438.95 365.8 409.95Q376.25 355.4 396.5 305.2Q396.6 304.95 397.2 304.95L397.65 308.3L398.2 308.2Q418 363.3 430.75 421.15Q439.2 459.45 446.5 497.95L448.7 484.65Q457.8 427.05 466.3 369.35Q475 310.4 487.85 252.1Q497.9 206.45 512.85 163.1Q513.25 162 514.45 162.25Q518.3 165.95 516.45 171.25M262.45,27.25Q275.9 38.4 284.7 53.35Q291.3 64.6 285.95 75Q278.7 51.35 256.1 41.75Q246.5 37.7 235.9 40.2Q208.35 46.8 198.85 74.1Q186.75 108.9 183.55 145.95Q178.9 200.45 175.8 255.4Q199.9 244.95 228.05 246.35L236.45 245.75Q240.75 251.4 237.9 258.45L237.45 259.25Q208.8 262.7 179.7 267.55L175.1 268.15Q172.05 324.95 169.95 382.15Q168.25 427.2 174.45 471.35Q180.05 511.2 220.35 515.75Q235.75 517.5 248.65 510.9Q267.15 501.45 274.85 481.75Q276.85 476.6 277.95 471.2L277.7 470.95L276.75 470.75Q276.1 470.6 275.5 470.15L274.7 469.45Q274.6 469.1 274.75 468.9Q274.85 468.7 275.2 468.75L276.2 468.8L277.45 468.45L278.4 467.55Q279.8 464.8 279.9 461.7Q280 457.8 282.7 454.95Q290.65 461.4 287.35 474.6Q278.6 509.9 249.05 529.2Q246.75 530.7 243.95 531.2Q208.15 537.65 184.45 514.5Q173.05 503.4 169.95 487.55Q161.65 445 163 400.7Q164.8 341.25 167.85 282.2Q170.9 222.35 175.05 162.9Q178.45 113.7 193.1 67.7Q203.6 34.8 235.95 25Q247.75 23 258.35 26.35L262.45 27.25M165,107.75Q164.6 139 144.5 162.25Q134.15 163.65 125.5 158.25L119.5 151.5Q111.9 122.75 115.3 92.1Q116.75 79.1 116.55 66Q116.3 42.9 122.5 23.75Q123.55 52.65 121 82.95Q118.55 112.15 124.75 139.6Q126.1 145.45 131.95 148.05Q137.1 150.35 143 149Q163.6 116.4 159.85 75.45Q157.5 49.7 161.5 26Q167.05 38.65 166.4 55.3Q165.35 81.65 165 107.75M30.55,18.55L31 18.25Q82.05 26.85 96.75 78.05Q101.95 96.15 105.2 114.35Q116 174.7 88.05 228.9Q80.95 242.7 65.6 244.7Q42.6 247.75 19.25 247.35Q18.85 247.35 18.5 247Q16.5 244 16.55 240.25Q16.6 237.85 17.3 235.65Q16 227.45 16.9 217.85Q19.55 188.4 21.55 158.8Q25.4 99.95 25.95 40.25Q26.05 27.05 29.25 16.25L29.45 19.9L30.55 18.55M29.85,29.65Q31.85 81.85 28.25 134.8Q24.95 183.85 22.95 233.25Q49.45 235.5 73.3 226.65Q80.95 223.8 84.7 216.45Q110.5 166.2 99.15 109.85Q90.75 68.35 61.5 39.5Q46.4 32 30.5 30.5L29.85 29.65M106.25,262.5Q108.1 293.45 107.5 324.65Q108.45 326.5 108.75 328.7Q109.2 331.9 107.25 334.05Q106.5 357.45 104.35 381Q104 384.85 101.5 387.7Q96.25 375.3 97.85 358.35L99.9 335.6Q92.05 336.75 84.4 338.5Q83.95 360.2 83 382Q82.65 390.65 78 396.7Q76.25 396.45 76 394.7L79.25 276.2Q79.45 268.2 84.25 263.5Q84.95 294.9 84.6 326.55L99 322.45L100.95 322.6Q103.2 293.35 104.7 264Q104.75 262.4 106.25 262.5M64.35,285.45L64.25 286.2Q53.6 276 40 277.7Q15.85 312.2 18.35 355Q19.15 367.95 27 377.95Q52.85 382.45 63.5 358.95Q71.6 366.65 62 379.8Q45.95 401.75 23.5 387.85Q17.4 384.05 15.95 376.7Q6.25 326.7 26.9 280.45Q32 268.9 43 263.75Q65.1 266.55 64.35 285.45M110.25,401.45L110.55 402.2L110.85 403L111.1 403.65Q111.5 404.8 111.5 405.95L111.45 407.45Q111.35 409.75 110.3 411.9L109.5 413.2Q92 412.25 74.6 412.45L77.25 463.65Q78.65 492.35 66.55 516.85Q57.05 536.1 36.75 530Q25.25 526.5 19.35 515.4Q8.5 494.9 18 475.95Q23.95 481.85 20.5 489.45Q24.1 516.15 49.4 514.85Q60 514.3 63.75 504.35Q73 479.6 69.55 452.3Q66.9 430.8 72.15 412.45L35 414.15Q30.1 414.55 25.5 416.2L24.6 415.35L24.25 414.7L24.05 413.95L23.8 411.7L23.7 410.2Q23.55 407.9 24.45 405.7L24.75 404.95L26 404.25Q30.05 402.2 34.4 401.15Q41.85 399.3 49 398.45L109.5 401.1Q109.85 401.1 110.25 401.45" />
</g>
</svg>
