<?xml version="1.0" encoding="utf-8"?>
<svg version="1.1" id="Layer_1"
xmlns="http://www.w3.org/2000/svg"
xmlns:xlink="http://www.w3.org/1999/xlink"


xml:space="preserve">
q-5.35 25.25 -4.7 53.05q1.35 60.1 -3.85 118.45q1.4 2.3 3.75 1.25q4.9 -16.05 5.55 -33.5q1.75 -44.1 2.4 -88.45q0.4 -26 -0.75 -50.6q2.7 -3.2 2.2 -7.5q-0.15 -1.55 -1.25 -2.8q-27.55 -1.15 -55 -3.8q-7.2 -0.4 -14.9 0.9q-1.35 0.2 -2.6 0.85q-0.85 2.15 -0.95 4.5q0.3 1.15 0.9 2.15q-8.05 6 -5.4 15.55q1.85 -6.1 -0.5 -11.8q-4.05 50.25 -5.35 100.95q-3.05 3.85 -8 4q-8.6 -5.6 -12.25 -14.25q-6.7 7.75 -3.25 18q7.3 7.95 16.25 13q6.8 -1.45 11.25 -6.5q6.5 -57.25 1.8 -114.7q-0.6 -0.2 -0.65 0.25q-7.9 76.4 -10.75 153.2q-0.4 11 -0.15 21.95q5.4 -0.9 5.7 -6.4q2.45 -45.2 6.2 -90.55q3.25 -39 2.95 -78.05q2.85 -5.75 -0.25 -11.15q-0.85 49.35 -2.7 99q-0.8 22.8 -8.95 43.8q-12.95 33.3 -47.85 26.05q-4.7 -1 -6.05 -5.5q-6.8 -23.2 -5.2 -48.4q3.8 -59.9 3.1 -118.45q-5.15 20.1 -6.4 43.7q-3.15 59.25 -0.15 119.15q1.5 30.25 32.55 28.1q20.8 -6.25 30.3 -26.55q16.15 -34.55 16.05 -73.45q-0.1 -29.95 1.7 -59.9q1.1 -17.5 -5.55 -29.05q-0.85 0.75 -0.85 1.5q-6.95 7.95 -1.7 17.1q3.25 -5.4 1.6 -11.7q1.7 37.85 -3.45 74.25q-11.55 5.75 -20.2 -4.5q0.45 -2.45 -0.9 -4.5q-6.45 -2.1 -7.05 5.05q-1.5 17.1 16.8 23.7q4.1 -0.75 5.55 -4.4q9.9 -25.2 8.05 -53.55q-1.95 -29.4 -1.75 -57.65q-5.9 9.65 -5.3 23.2<g id="2001" transform="matrix(1, 0, 0, 1, -137.75, 0)">
<path style="fill:#000000;fill-opacity:1" d="M335.7,196.1Q335.1 195.1 334.8 193.95L334.55 192.45L334.45 191L334.5 190.25Q334.6 187.9 335.45 185.75Q336.7 185.1 338.05 184.9Q345.75 183.6 352.95 184Q380.4 186.65 407.95 187.8L409.45 188L411.25 189.65Q412.35 190.9 412.5 192.45L412.7 194L412.9 195.5Q413.4 199.8 410.7 203L376.65 199.9Q377.8 224.5 377.4 250.5Q376.75 294.85 375 338.95Q374.35 356.4 369.45 372.45Q367.1 373.5 365.7 371.2Q370.9 312.85 369.55 252.75Q368.9 224.95 374.25 199.7L336.45 197L335.7 196.1M415.45,232.7L409.2 235.45L408.8 234.8Q406.15 225.25 414.2 219.25L414.95 220.9Q417.3 226.6 415.45 232.7M413.2,252.25Q417.9 309.7 411.4 366.95L411.2 367.7Q406.75 372.75 399.95 374.2Q391 369.15 383.7 361.2Q380.25 350.95 386.95 343.2Q390.6 351.85 399.2 357.45Q404.15 357.3 407.2 353.45Q408.5 302.75 412.55 252.5Q412.6 252.05 413.2 252.25M223.65,194.7L176.6 196.95Q176.9 236 173.65 275Q169.9 320.35 167.45 365.55Q167.15 371.05 161.75 371.95Q161.5 361 161.9 350Q164.75 273.2 172.65 196.8L137.75 193.25L138 182.75L222.45 182L223.4 183.55Q226.5 188.95 223.65 194.7M318.95,183.75Q325.6 195.3 324.5 212.8Q322.7 242.75 322.8 272.7Q322.9 311.6 306.75 346.15Q297.25 366.45 276.45 372.7Q245.4 374.85 243.9 344.6Q240.9 284.7 244.05 225.45Q245.3 201.85 250.45 181.75Q251.15 240.3 247.35 300.2Q245.75 325.4 252.55 348.6Q253.9 353.1 258.6 354.1Q293.5 361.35 306.45 328.05Q314.6 307.05 315.4 284.25Q317.25 234.6 318.1 185.25Q318.1 184.5 318.95 183.75M218.35,218.45Q220 224.75 216.75 230.15L215.15 228L213.6 232.75L213.25 232.85Q208 223.7 214.95 215.75L217.6 216.45L218.35 218.45M214.45,250.5Q214.25 278.75 216.2 308.15Q218.05 336.5 208.15 361.7Q206.7 365.35 202.6 366.1L194.5 366.95Q176.2 360.35 177.7 343.25Q178.3 336.1 184.75 338.2Q186.1 340.25 185.65 342.7L185.5 343.45Q194.15 353.7 205.7 347.95Q210.85 311.55 209.15 273.7Q208.55 260.15 214.45 250.5" />
</g>
</svg>
