<?xml version="1.0" encoding="utf-8"?>
<svg version="1.1" id="Layer_1"
xmlns="http://www.w3.org/2000/svg"
xmlns:xlink="http://www.w3.org/1999/xlink"


xml:space="preserve">
q-33.8 30 -37.55 76.5q-4.75 59.1 0.4 117.9q5.1 58.1 11.1 116.1q2.85 27.55 29.3 33.1q13.9 2.9 25.05 -4.65q23.1 -15.5 20.05 -41.2q-8.85 30.5 -41 27.75q-15.15 -1.3 -18.9 -15.6q-9.15 -35.2 -11.85 -72.25q-3 -41.05 -5.1 -82.15q14.5 3.7 30.35 0.25q3.45 -6.25 -0.4 -12q-1.95 -45.95 14.9 -87.65q11.5 -28.5 40.2 -25.85q5.8 0.5 9.7 4.7q7.8 8.45 14.55 15.05q1.3 -1 1.3 -2.75q-0.05 -4.15 -1.55 -7.75q-12 -18.2 -34.15 -17.35q-4.55 0.8 -8.1 3.95q-3.6 4.85 -5.05 11.7q-12 57.3 -25.85 114.2q-8.8 36.1 -21.7 71.25q-5.15 14.05 -6.15 27.6q-2.65 -59.55 -0.65 -119.25q1 -30.45 -0.3 -59.25q-1.9 -0.2 -2.25 1.75q-4 22.35 -4.3 45.75q-0.8 59.5 1.5 119.2q2.3 59.5 4.1 119.25q1.75 59.3 0.55 119.25q-0.3 15.05 -2.25 29.8q-2.25 17.5 4.9 29.2q5.1 -22.75 4.95 -47.25q-0.4 -59.8 -2 -119.25q8.8 -17.25 14.7 -37.05q0 4.1 0.95 8.7q11.9 57.75 22.5 115.75q7.95 43.45 12.55 87.35q3.2 30.85 15.5 57.3q2.7 -1.5 2.1 -4.8q-6.8 -37.1 -12.5 -75.1q-6.6 -43.75 -14.45 -87.35q-10.3 -57.45 -23.3 -113.75q14.95 -56.95 25.2 -115.1q1.35 -7.55 4.35 -14.35q7.1 -16.25 1.8 -28.7q0.9 7.5 0.55 19.25q-1.75 59.6 0.3 118.55q2.1 59.65 3.25 119.2q1.2 60.75 -12.05 119.3q-3.7 16.3 -14.1 29.05q-24.1 29.4 -58.7 12.1q-4.65 -4.55 -6.65 -10.75q-10.95 -34.35 -11.7 -71q-1.3 -59.55 -0.85 -118.45q0.4 -60.3 -7.6 -118.5q-0.8 -0.2 -0.8 0.5q1.5 51.3 2.15 103.5q0.7 59.55 -0.25 119.25q-1 59.35 0.3 119.2q0.95 44.5 9.9 87.55q5.1 24.55 29.7 28.7q29.85 5.05 46.95 -18.9q15.65 -21.85 20.7 -48.25q11.15 -58.4 10.15 -118.8q-1.25 -59.95 -4 -119.3q-1.4 -30.15 1.25 -59.85q1.55 -16.95 -4.7 -29.35q-3.5 3.6 -4.05 8.85q-0.75 7.25 0.55 7.4q1.35 -2.8 1.2 -5.9q-57.35 0.85 -114.95 -0.8q-1.6 2.2 -1.45 4.95q-2.55 8.05 -2.2 18q1.65 44.95 3.85 89.85q2.95 60.25 -5.1 119.25q-2.65 19.35 -18.6 28.8q-6.35 3.75 -13.25 1.2q-21.95 -8.1 -21.5 -34.4q0.2 -12.2 -5.65 -17.25q-3.65 22.1 2 44.55q6.2 24.45 31.25 23.95q9.95 -0.2 15.6 -8.15q21 -29.4 21.4 -66.35q0.55 -44.4 -0.7 -88.5q24.45 0.35 48.7 -0.35q24.25 2 32.2 28.55q6.1 20.35 0.5 40.85q-5.3 19.4 -21.05 31.9q-10.5 8.25 -23.9 7.45q-17.55 -11.55 -17.65 -36.25q-0.1 -17.05 1.35 -34.05q1.6 -18.65 14.1 -32.05q6.05 -6.45 13.8 -7.95q-17.5 1.65 -23.6 19.05q-12.1 34.5 -10.9 71.95q0.75 25.05 20.95 37.3q5.2 3.15 10.75 0.65q34.5 -15.5 40.4 -52.3q6.85 -42.9 -20.1 -74.15q-6.9 -1.9 -14.3 -1.8q-4.95 67.75 -5.6 136.45q-0.1 4.25 1.25 8.4q1.15 3.65 3.4 6.8q26.5 10.4 48.55 -2.4q2.6 -1.45 5.05 -4q5.05 -6.25 9.2 -13.45q13.05 -22.55 14.1 -48.6q1.1 -27.4 -11.1 -51.8q-15.7 -31.5 -50.75 -34.65q-7 -1.85 -12.55 1.4q18.75 11.5 26.35 33.1q7.3 20.95 3.4 42.8q-3.8 21.55 -18 38.05q-14.05 16.4 -36.05 17.6q3.05 -68.15 -1.15 -139.6q25 -0.8 48 9.4<g id="2005" transform="matrix(1, 0, 0, 1, -41.55, 0)">
<path style="fill:#000000;fill-opacity:1" d="M500.95,193.5Q523.1 192.65 535.1 210.85L535.95 211.75L537.45 215.25Q538.95 218.85 539 223Q539 224.75 537.7 225.75Q530.95 219.15 523.15 210.7Q519.25 206.5 513.45 206Q484.75 203.35 473.25 231.85Q456.4 273.55 458.35 319.5L459.6 346.55L490.45 343.7Q494.3 349.45 490.85 355.7L490.45 356.2Q474.6 359.65 460.1 355.95Q462.2 397.05 465.2 438.1Q467.9 475.15 477.05 510.35Q480.8 524.65 495.95 525.95Q528.1 528.7 536.95 498.2L535.25 495.05L537.95 495.45L539.05 494.55L541.2 495.2Q544.25 520.9 521.15 536.4Q510 543.95 496.1 541.05Q469.65 535.5 466.8 507.95Q460.8 449.95 455.7 391.85Q450.55 333.05 455.3 273.95Q459.05 227.45 492.85 197.45Q496.4 194.3 500.95 193.5M448.15,90.95Q445.15 97.75 443.8 105.3Q433.55 163.45 418.6 220.4L409.8 253.2Q422.8 309.5 433.1 366.95Q440.95 410.55 447.55 454.3Q453.25 492.3 460.05 529.4Q460.65 532.7 457.95 534.2Q445.65 507.75 442.45 476.9Q437.85 433 429.9 389.55Q419.3 331.55 407.4 273.8Q406.45 269.2 406.45 265.1Q400.55 284.9 391.75 302.15L393.65 362.2Q395.25 421.65 395.65 481.45Q395.8 505.95 390.7 528.7Q383.55 517 385.8 499.5Q387.75 484.75 388.05 469.7Q389.25 409.75 387.5 350.45Q385.7 290.7 383.4 231.2Q381.1 171.5 381.9 112Q382.2 88.6 386.2 66.25Q386.55 64.3 388.45 64.5Q389.75 93.3 388.75 123.75Q386.75 183.45 389.4 243L391.2 287Q392.2 273.45 397.35 259.4Q410.25 224.25 419.05 188.15Q432.9 131.25 444.9 73.95Q446.35 67.1 449.95 62.25Q455.25 74.7 448.15 90.95M355.4,75.85Q355.95 70.6 359.45 67Q365.7 79.4 364.15 96.35Q361.5 126.05 362.9 156.2Q365.65 215.55 366.9 275.5L368 335.5Q369 395.9 357.85 454.3Q352.8 480.7 337.15 502.55Q320.05 526.5 290.2 521.45Q265.6 517.3 260.5 492.75Q251.55 449.7 250.6 405.2Q249.3 345.35 250.3 286Q251.25 226.3 250.55 166.75Q249.9 114.55 248.4 63.25Q248.4 62.55 249.2 62.75Q257.2 120.95 256.8 181.25L256 300.5Q255.55 359.4 256.85 418.95Q257.6 455.6 268.55 489.95Q270.55 496.15 275.2 500.7Q309.8 518 333.9 488.6Q344.3 475.85 348 459.55Q361.25 401 360.05 340.25Q358.9 280.7 356.8 221.05Q354.75 162.1 356.5 102.5Q356.85 90.75 355.95 83.25Q354.65 83.1 355.4 75.85M164.45,72.25Q140.2 72.95 115.75 72.6L119.3 183.5Q120.55 227.6 120 272Q119.6 308.95 98.6 338.35Q92.95 346.3 83 346.5Q57.95 347 51.75 322.55Q46.1 300.1 49.75 278Q55.6 283.05 55.4 295.25Q54.95 321.55 76.9 329.65Q83.8 332.2 90.15 328.45Q106.1 319 108.75 299.65Q116.8 240.65 113.85 180.4Q111.65 135.5 110 90.55Q109.65 80.6 112.2 72.55L77.5 71.4L76.45 71.35L42.75 69.75L42.35 68.95L41.95 67.5L41.8 66.75L41.75 66L41.7 65.25Q41.55 62.5 43.15 60.3L44 59.25Q101.6 60.9 158.95 60.05L165.2 60.5L165.45 61.25L165.95 62.75L166.2 63.5L166.4 64.25L166.5 65Q166.65 68.1 165.3 70.9L164.45 72.25M181.55,93.45Q173.8 94.95 167.75 101.4Q155.25 114.8 153.65 133.45Q152.2 150.45 152.3 167.5Q152.4 192.2 169.95 203.75Q183.35 204.55 193.85 196.3Q209.6 183.8 214.9 164.4Q220.5 143.9 214.4 123.55Q206.45 97 182.2 95L181.55 93.45M197.25,86.05L200.45 86.75Q227.4 118 220.55 160.9Q214.65 197.7 180.15 213.2Q174.6 215.7 169.4 212.55Q149.2 200.3 148.45 175.25Q147.25 137.8 159.35 103.3Q165.45 85.9 182.95 84.25Q190.35 84.15 197.25 86.05M58.45,355.6Q64 352.35 71 354.2L81.45 354.45Q116.5 357.6 132.2 389.1Q144.4 413.5 143.3 440.9Q142.25 466.95 129.2 489.5Q125.05 496.7 120 502.95L113.35 510.65Q110.9 513.2 108.3 514.65Q86.25 527.45 59.75 517.05L58.35 513.45L56.75 521.45Q54.5 518.3 53.35 514.65Q52 510.5 52.1 506.25L52.35 492.35Q53 423.65 57.95 355.9L58.45 355.6M58.85,365.15Q63.05 436.6 60 504.75L82.55 506.1Q104.55 504.9 118.6 488.5Q132.8 472 136.6 450.45Q140.5 428.6 133.2 407.65Q125.6 386.05 106.85 374.55Q83.85 364.35 58.85 365.15" />
</g>
</svg>
