<?xml version="1.0" encoding="utf-8"?>
<svg version="1.1" id="Layer_1"
xmlns="http://www.w3.org/2000/svg"
xmlns:xlink="http://www.w3.org/1999/xlink"


xml:space="preserve">
q28.4 -5.8 43 15.4q5.4 7.85 2.25 16.6q-13.05 -27.2 -47.8 -17.15q-17.85 25.65 -23.4 57.2q-6.35 35.75 0.9 71.45q5.45 26.75 32.9 18.9q17.5 -5.05 29.6 -17.35q1.1 2.85 1.6 5.5q-10.6 -1.25 -22.25 1.5q-1.95 -0.1 -3.25 -1.5q-1.3 -3.65 -0.45 -7.45q14.5 -6.35 31 -5.5q1.6 21.75 -0.5 45.2q-0.75 8.4 -4.25 15.55q-6.1 -8.7 -4.45 -23.05q-4.25 6.9 -16.25 10.6q-8 2.45 -16.4 4.2q-27.6 5.7 -34.25 -21.7q-14.1 -58.35 3.45 -115.05q7.6 -24.55 26.35 -39.6q1.75 -1.4 3.45 -2.15q0.1 -1.25 1.55 -1q0.4 0.05 0.75 0.45q0.5 1.45 0.4 3.05q-0.15 2.45 -1.85 4.25q2.6 50.45 -0.35 101.45q-2.3 39.5 -2.45 79.4q0 3.05 -2 5.25q-6.3 -11.65 -5.7 -29.05q2.05 -59.45 4.65 -118.5q0.85 -19.35 2.15 -38.6q-22.7 -0.2 -45.1 0.95q-0.35 -1.45 -0.25 -3q0.3 -1.2 1.05 -2.2q0.5 -0.25 1 -0.35q3.15 -0.35 6 -1.35q4.85 -1.65 9.95 -2.2q14.4 -0.1 28.7 0.25q-5.55 -13.65 1.45 -28.6q0.05 -0.15 0.55 -0.15q3.65 14.1 -1.25 28.3q4.4 5.6 11 8.25q9.25 -22.4 5.75 -48.9q-3.35 -25.55 4.5 -47.05q0.2 27.25 1.45 56.15q0.75 17.7 -0.65 35.3q-1.35 17.55 -16.55 19.75q-22.35 -9.3 -15 -29.25q4.1 -1.35 6.25 2.25q0.4 1.85 -0.9 3.1q-5.05 -13.4 -2.7 -30q4.15 -29.15 4.5 -59q0.65 -52.15 7.45 -101.2q1.6 58.65 -0.75 118.55q-1.1 27.25 -3.05 54.05q-0.6 8.05 -3.15 15.7q-0.55 1.65 -2.3 1.9<g id="2166" transform="matrix(1, 0, 0, 1, -138.55, 0)">
<path style="fill:#000000;fill-opacity:1" d="M362.95,182.5Q391.35 176.7 405.95 197.9Q411.35 205.75 408.2 214.5Q395.15 187.3 360.4 197.35L356.95 198Q339.1 223.65 333.55 255.2Q327.2 290.95 334.45 326.65Q339.9 353.4 367.35 345.55Q384.85 340.5 396.95 328.2Q398.05 331.05 398.55 333.7L400.2 325.2Q389.6 323.95 377.95 326.7Q376 326.6 374.7 325.2Q373.4 321.55 374.25 317.75L374.45 316.95Q388.95 310.6 405.45 311.45Q407.05 333.2 404.95 356.65Q404.2 365.05 400.7 372.2Q394.6 363.5 396.25 349.15L396.6 346.2Q392.35 353.1 380.35 356.8Q372.35 359.25 363.95 361Q336.35 366.7 329.7 339.3Q315.6 280.95 333.15 224.25Q340.75 199.7 359.5 184.65Q361.25 183.25 362.95 182.5M185.95,174.75Q186.05 173.5 187.5 173.75L187.8 178.3L238.45 181.05Q238.85 181.1 239.2 181.5L239.5 182.2L239.85 183L240.1 183.7Q240.6 185.15 240.5 186.75L240.4 188.2L240.3 189Q240.15 191.45 238.45 193.25L188.55 190.85Q191.15 241.3 188.2 292.3Q185.9 331.8 185.75 371.7Q185.75 374.75 183.75 376.95Q177.45 365.3 178.05 347.9Q180.1 288.45 182.7 229.4Q183.55 210.05 184.85 190.8Q162.15 190.6 139.75 191.75L139.3 190.95L139.05 190.2L138.9 189.5Q138.55 188.05 138.65 186.5L138.8 185L138.95 184.2Q139.25 183 140 182Q140.5 181.75 141 181.65Q144.15 181.3 147 180.3Q151.85 178.65 156.95 178.1L157 178Q171.4 177.9 185.7 178.25L185.95 174.75M227.45,244.25Q221.9 230.6 228.9 215.65Q228.95 215.5 229.45 215.5Q233.1 229.6 228.2 243.8L227.45 244.25M204.8,346.3L204.2 346.95Q208.6 352.55 215.2 355.2L219.95 354.95Q229.2 332.55 225.7 306.05Q222.35 280.5 230.2 259Q230.4 286.25 231.65 315.15Q232.4 332.85 231 350.45Q229.65 368 214.45 370.2Q192.1 360.9 199.45 340.95Q203.55 339.6 205.7 343.2Q206.1 345.05 204.8 346.3M278.95,370.2Q273.9 356.8 276.25 340.2Q280.4 311.05 280.75 281.2Q281.4 229.05 288.2 180Q289.8 238.65 287.45 298.55Q286.35 325.8 284.4 352.6Q283.8 360.65 281.25 368.3Q280.7 369.95 278.95 370.2" />
</g>
</svg>
