<?xml version="1.0" encoding="utf-8"?>
<svg version="1.1" id="Layer_1"
xmlns="http://www.w3.org/2000/svg"
xmlns:xlink="http://www.w3.org/1999/xlink"


xml:space="preserve">
q-10.45 -29.1 -44.8 -25.15q-30.9 7.5 -42.95 38.7q-22.8 58.95 2.2 117.15q6.55 15.3 14.5 29.95q11.3 21 26.1 39.75q34.1 43.3 45.3 96.25q12 56.7 -6 111.7q-13.8 42.2 -55.95 54.25q-6.15 1.75 -10.9 -2.05q-26.85 -21.45 -32.55 -56.75q0.25 -0.35 0.6 -0.55q2.25 -1.1 3.2 -3.15q-0.05 -0.4 -0.3 -0.55q-1.85 3.3 -6.55 -0.55q-0.9 -0.7 -2.15 -0.95q-3.05 4.25 -2.1 9.75q6.85 38.2 29.95 68.55q2.8 3.75 7.1 4.85q32.55 8.7 53.6 -19.4q35.5 -47.35 36.5 -107.5q0.95 -52.85 -20.2 -100.85q-12.7 -28.75 -31.85 -54.35q-14.35 -19.2 -26.5 -39.65q-20.3 -34.1 -26.05 -73.05q-7.95 -53.5 32.55 -86.8q16.05 -5 32.65 -2.65q15 2.15 19.2 15.65q3.8 12.5 8.15 22.25q4.05 -13.5 -1.2 -28.1q-1.15 -34.4 -38.6 -33q-7.1 1.95 -13.65 5.75q-6.45 3.7 -11.1 9.25q-27.4 32.6 -34.05 75.15q-9.15 58.5 -8.6 118.6q0.5 59.65 1.55 119.2q1 59.2 6.4 117.85q1.35 14.85 6.45 28.5q13 35 50.95 24.65q3.7 -1 6.7 -2.85q37.1 -23.25 32.6 -65.4q-0.3 16.25 -9.45 30.9q-20.75 33.2 -59.8 19.6q-4.55 -4.35 -7.7 -9.6q-8.05 -13.3 -9.05 -29.25q-1.25 -20.2 -3.05 -40.55q-5.15 -59.15 -5.1 -119.3q1.75 -1.9 2.25 -4.5q0.85 -4.65 -1.05 -9q0.25 -38.55 0.85 -76.85q0.85 -55.4 18.45 -107.35q8.6 -25.5 31.65 -37.85q18.95 -10.1 35.5 2.1q8.7 6.5 13.3 13.85q-4.4 21.25 -3.65 42.95q0.45 12.45 2.9 24.55q8.1 5.05 16.2 1.25q8.05 -3.65 10.7 -11.55q4.15 -12.35 -6.05 -21.75q9 -6.4 7.1 -16.45q-1.7 -8.8 -10.1 -12.9q-2.15 59.55 0.1 119.25q2.25 59.5 3.25 119.3q1 59.5 -5.4 118.3q-1.45 13.45 4.4 22.4q6.35 -42.85 6.6 -87.75q0.3 -59.7 -2 -119.2q-2.25 -59.75 -0.45 -119.25q1.85 -59.85 -3.65 -118.5q-4.8 9.85 -3.75 23.55q1.6 21.1 0.9 41.9q-0.25 -9.45 -1.1 -18.85q12.2 -1.45 18.6 9.35q-6.45 7.55 -15.5 11q23.2 2.2 11.35 18.35q-2.65 3.6 -8.3 3q-6.9 17.1 -8.95 36.6q-0.75 7.35 -0.2 14.45q0.35 4.45 1.75 6.3q5.8 26.3 20.85 45.75q9.45 -27.4 9.1 -56.65q2 10.8 2 22.05q3.3 -4.65 0.75 -9.75q2.45 -20.65 -0.75 -41.25q-8.75 13 -5.5 30.95q-55.15 4.35 -109 -2.3q-1.8 0.25 -2.9 1.55q36.25 7.5 73.25 8.4q-3.4 17.55 -2.2 37.9q3.5 59.3 2.5 118.45q-0.25 15.25 -5.65 29.5q-11.45 30.2 -45.15 21q-11.3 -12.1 -8.9 -29.6q1.55 -11.65 -5.1 -16.4q-3.85 6.9 -4.1 15.5q-0.8 27.2 17.1 45.75q22.7 8 40.35 -7.35q3.35 -2.95 5.05 -7q18.9 -45.3 14.6 -96.25q-4.65 -55.75 -6.75 -111.45q24.7 0.5 49.7 -1.95q-0.65 -2.15 -2.8 -3q-5.5 37.2 -7.15 75.7q-14.45 1 -28.6 3.45q1.95 -49.45 1.45 -98.1q-6.6 12.4 -6.8 29.25q-0.75 59.35 -5.45 118.4q-0.85 11.15 -2.25 22.35q-2.05 16.85 4.5 29.45q5.55 -39.6 7.6 -80.9q14.3 1.65 28.45 -0.25q-2 44.35 -4.35 88.45q0.6 2.65 3 2q6.8 -38.95 8.5 -79.4q2.55 -59.7 3 -117.8q-1.5 0.1 -1.75 1.75q-27.9 16.6 -30.65 50.95q-2.05 26.15 -4.8 52.4q-5.2 49.55 17.2 91.6q4.75 2.3 10 2.3q7.85 -3.65 12.6 -11q9.15 -14.05 8.65 -30.25q-2.65 0.45 -3.7 3.15q-6.2 15.55 -19.55 23.6q-6.3 -6.45 -8.1 -15.55q-11.7 -58.2 -1.35 -117.05q2.55 -14.35 10.7 -25.6q13.1 -18 31.25 -7.5q-0.15 -0.75 -0.15 -1.5q-0.1 -2.3 -0.7 -4.5q-5.85 -7.5 -15.3 -7.45q-13.15 39.55 -28 79.2q-15.5 -40.5 -28.45 -81.65q-0.6 -0.2 -0.55 0.15q7.8 50.9 28.3 96.85q1.7 -1.4 2.5 -3.55q10.75 -28.05 22.7 -55.6q8.4 -19.35 4.3 -35.85q11.85 -16.65 16.5 -37.7q1 24.95 12 44.45q14 -21.75 24 -44.95q0.95 25.15 11.75 44.7q1.25 -2.05 0.7 -4.35q-6.7 -27.95 -10.2 -56.35q-14 24.2 -26.25 50.2q-7.2 -23.6 -9.3 -47.95q-5.85 4.1 -7.2 12.15q-1.2 6.85 -4.5 12.9q-7.65 14 -7.3 27.65q-2.05 26.4 -0.45 52.05q-1.95 2.45 -1.8 5.8q0.15 3.65 3.45 4.5q25.1 5.9 33.2 -19.65q11.2 -35.15 -22.5 -44.95q-6.45 -1.05 -11.75 1.5q-7.65 6.1 -17.75 5.45q1.9 -24.6 -1.65 -49.4q14.7 20.7 -5.5 36.8q10.3 -0.9 17.25 6.75q-8.75 8.6 -21.15 7.8q-4.6 18.35 -5.8 37.95q-1.05 17.55 1.6 33.95q4.8 13.55 15.25 26.3q4.1 5 9.6 8.45q-1.9 -19.95 -17.25 -37.55q8 -6.45 10.3 -16.4q1.55 -6.7 -3.05 -11.7q-8 -8.75 -19.25 -7.6q-6.85 -16.9 -21.65 -27.6q-4.25 19.75 17.1 30.9q-14.75 16.7 -8.75 36.5q21.5 -33.15 30.8 -67.9q0.2 -0.85 -0.3 -1.85q0.55 3.55 3.4 5.75q0.9 0.7 2.1 1q4.25 -12.8 -6.8 -21.05q-22.8 2.75 -24.9 27.7q-2 23.65 17.4 35.2q8.2 4.85 15.75 -1.8q5.9 -5.2 0.55 -11.8q-21.15 11.8 -25.15 -14.8q-2.4 -16.15 14.4 -21.95q5.8 4.4 14.15 3.4q-3.3 11.45 1.9 20.5q5.75 -16 1.1 -32.5<g id="2161" transform="matrix(1, 0, 0, 1, -4.35, 0)">
<path style="fill:#000000;fill-opacity:1" d="M509.95,83Q505.6 73.25 501.8 60.75Q497.6 47.25 482.6 45.1Q466 42.75 449.95 47.75Q409.45 81.05 417.4 134.55Q423.15 173.5 443.45 207.6Q455.6 228.05 469.95 247.25Q489.1 272.85 501.8 301.6Q522.95 349.6 522 402.45Q521 462.6 485.5 509.95Q464.45 538.05 431.9 529.35Q427.6 528.25 424.8 524.5Q401.7 494.15 394.85 455.95Q393.9 450.45 396.95 446.2Q398.2 446.45 399.1 447.15L401.9 449.4Q406.6 453.25 408.45 449.95L409.1 449.95Q409.35 450.1 409.4 450.5L409.45 451.2L409.4 451.95L409.2 452.7L408.5 453.5L407.95 454.2L407.5 455Q406.55 457.05 404.3 458.15Q403.95 458.35 403.7 458.7Q409.4 494 436.25 515.45Q441 519.25 447.15 517.5Q489.3 505.45 503.1 463.25Q521.1 408.25 509.1 351.55Q497.9 298.6 463.8 255.3Q449 236.55 437.7 215.55Q429.75 200.9 423.2 185.6Q398.2 127.4 421 68.45Q433.05 37.25 463.95 29.75Q498.3 25.8 508.75 54.9Q514 69.5 509.95 83M375.2,66.25Q370.6 58.9 361.9 52.4Q345.35 40.2 326.4 50.3Q303.35 62.65 294.75 88.15Q277.15 140.1 276.3 195.5Q275.7 233.8 275.45 272.35L314.95 270L339.45 270.85L340.2 271.25L340.65 272Q342.55 276.35 341.7 281Q341.2 283.6 339.45 285.5L275.4 282.4L275.3 314.75Q275.25 374.9 280.4 434.05Q282.2 454.4 283.45 474.6Q284.45 490.55 292.5 503.85Q295.65 509.1 300.2 513.45Q339.25 527.05 360 493.85Q369.15 479.2 369.45 462.95L370.1 462.95L370.6 463.05L373.45 462.8L374.2 463.2Q378.7 505.35 341.6 528.6Q338.6 530.45 334.9 531.45Q296.95 541.8 283.95 506.8Q278.85 493.15 277.5 478.3Q272.1 419.65 271.1 360.45Q270.05 300.9 269.55 241.25Q269 181.15 278.15 122.65Q284.8 80.1 312.2 47.5Q316.85 41.95 323.3 38.25Q329.85 34.45 336.95 32.5Q374.4 31.1 375.55 65.5L375.2 66.25M222.3,42.4Q224.2 52.45 215.2 58.85L222.2 59.75Q232.4 69.15 228.25 81.5Q225.6 89.4 217.55 93.05Q209.45 96.85 201.35 91.8L200.45 97.5Q198 85.4 197.55 72.95Q196.8 51.25 201.2 30L201.4 31.55L212.2 29.5Q220.6 33.6 222.3 42.4M169.7,52.05Q168.65 38.35 173.45 28.5Q178.95 87.15 177.1 147Q175.3 206.5 177.55 266.25Q179.85 325.75 179.55 385.45Q179.3 430.35 172.95 473.2Q167.1 464.25 168.55 450.8Q174.95 392 173.95 332.5Q172.95 272.7 170.7 213.2Q168.45 153.5 170.6 93.95Q171.3 73.15 169.7 52.05M204.25,55.95L204.95 56.5Q214 53.05 220.45 45.5Q214.05 34.7 201.85 36.15Q202.7 45.55 202.95 55L204.25 55.95M203.05,64.25L202.05 85L211.25 85.8Q216.9 86.4 219.55 82.8Q231.4 66.65 208.2 64.45L205.95 65.15L203.05 64.25M231.4,109.1Q231.75 138.35 222.3 165.75Q207.25 146.3 201.45 120L193.55 163.6Q192.15 161.75 191.8 157.3Q191.25 150.2 192 142.85Q194.05 123.35 200.95 106.25L220.45 151.25L231.2 101L231.4 109.1M205.2,165.25Q208.4 185.85 205.95 206.5L234.95 206.5Q237.5 211.6 234.2 216.25L201.7 218.25Q201.7 207 199.7 196.2Q196.45 178.25 205.2 165.25M137.45,29.25Q139.6 30.1 140.25 32.25L140.85 35.25L140.85 38.25L140.75 39L140.5 40.5L140.35 41.2L139.45 43.5Q114.45 45.95 89.75 45.45Q91.85 101.15 96.5 156.9Q100.8 207.85 81.9 253.15Q80.2 257.2 76.85 260.15Q59.2 275.5 36.5 267.5Q18.6 248.95 19.4 221.75Q19.65 213.15 23.5 206.25Q30.15 211 28.6 222.65Q26.2 240.15 37.5 252.25Q71.2 261.45 82.65 231.25Q88.05 217 88.3 201.75Q89.3 142.6 85.8 83.3Q84.6 62.95 88 45.4Q51 44.5 14.75 37L14.3 35.5L14 34L14 33.25L14.05 31.75L14.35 30.3L15 28.75Q16.1 27.45 17.9 27.2L27 26.95L27.5 27Q81.35 33.65 136.5 29.3L137.45 29.25M124.2,275.5Q123.75 333.6 121.2 393.3Q119.5 433.75 112.7 472.7Q110.3 473.35 109.7 470.7Q112.05 426.6 114.05 382.25Q99.9 384.15 85.6 382.5L85.1 392.3Q83.05 433.6 77.5 473.2Q70.95 460.6 73 443.75Q74.4 432.55 75.25 421.4Q79.95 362.35 80.7 303Q80.9 286.15 87.5 273.75Q88 322.4 86.05 371.85Q100.2 369.4 114.65 368.4L115.3 352.95Q116.95 314.45 122.45 277.25Q122.7 275.6 124.2 275.5M60.3,281.7L61 282.5L61.65 284.75Q62.25 286.95 62.35 289.25Q62.35 290 62.5 290.75Q44.35 280.25 31.25 298.25Q23.1 309.5 20.55 323.85Q10.2 382.7 21.9 440.9Q23.7 450 30 456.45L31.95 456.9L36 457.7Q49.35 449.65 55.55 434.1Q56.6 431.4 59.25 430.95Q59.75 447.15 50.6 461.2Q45.85 468.55 38 472.2Q32.75 472.2 28 469.9L26.75 469.2Q4.35 427.15 9.55 377.6Q12.3 351.35 14.35 325.2Q17.1 290.85 45 274.25Q54.45 274.2 60.3 281.7M250.45,226.5Q254.55 243 246.15 262.35Q234.2 289.9 223.45 317.95Q222.65 320.1 220.95 321.5Q200.45 275.55 192.65 224.65Q192.6 224.3 193.2 224.5Q206.15 265.65 221.65 306.15L221.95 306.5Q236.8 266.85 249.95 227.3L250.45 226.5M197.75,351.55Q201.05 345.5 202.25 338.65Q203.6 330.6 209.45 326.5Q211.55 350.85 218.75 374.45L218.95 375.2Q231.2 349.2 245.2 325Q248.7 353.4 255.4 381.35Q255.95 383.65 254.7 385.7Q243.9 366.15 242.95 341Q232.95 364.2 218.95 385.95Q207.95 366.45 206.95 341.5Q202.3 362.55 190.45 379.2Q190.1 365.55 197.75 351.55M203.2,394.2Q208.5 391.65 214.95 392.7Q248.65 402.5 237.45 437.65Q229.35 463.2 204.25 457.3L203.85 459.9L203.45 459.95L203.2 457.05L203.1 457Q199.8 456.15 199.65 452.5Q199.5 449.15 201.45 446.7L202.4 446.8Q200.8 421.15 202.85 394.75L203.05 394.7L203.2 394.2M228.95,406.7L204.05 399.55Q207.6 424.35 205.7 448.95Q215.8 449.6 223.45 443.5Q243.65 427.4 228.95 406.7M196.3,481.85L195.45 482.45L195.8 493.25Q208.2 494.05 216.95 485.45Q210 477.8 199.7 478.7L196.3 481.85M194.45,472.2L199.95 467.7Q211.2 466.55 219.2 475.3Q223.8 480.3 222.25 487Q219.95 496.95 211.95 503.4Q227.3 521 229.2 540.95Q223.7 537.5 219.6 532.5Q209.15 519.75 204.35 506.2L195.5 505.05L188.85 542.95Q186.2 526.55 187.25 509Q188.45 489.4 193.05 471.05L193.55 470.45L193.85 470.35L194.45 472.2M135.25,474.8Q125.95 509.55 104.45 542.7L103.8 541.2Q97.8 521.4 112.55 504.7L110.6 503.6Q89.25 492.45 93.5 472.7Q108.3 483.4 115.15 500.3L134.95 472.95Q135.45 473.95 135.25 474.8M57.75,484.7Q40.95 490.5 43.35 506.65Q47.35 533.25 68.5 521.45Q73.85 528.05 67.95 533.25Q60.4 539.9 52.2 535.05Q32.8 523.5 34.8 499.85Q36.9 474.9 59.7 472.15Q70.75 480.4 66.5 493.2Q65.3 492.9 64.4 492.2Q61.55 490 61 486.45L57.75 484.7M59.5,506.95L75.5 506.2Q80.15 522.7 74.4 538.7Q69.2 529.65 72.5 518.2Q64.15 519.2 58.35 514.8L59.5 506.95" />
</g>
</svg>
