<?xml version="1.0" encoding="utf-8"?>
<svg version="1.1" id="Layer_1"
xmlns="http://www.w3.org/2000/svg"
xmlns:xlink="http://www.w3.org/1999/xlink"


xml:space="preserve">
q-42.05 6.85 -83.5 8.5q-1.7 3.55 -0.85 7.5q0.4 1.75 1.6 3q5.1 2 10.75 1.7q-2 35.8 -1.55 73.3q0.15 14.2 -1.55 28.25q-2.05 16.5 3.7 30q4.05 -3.9 4.15 -10.25q0.35 -35.85 1 -72q0.45 -25.4 -3.05 -49.5q1.6 -3.2 1.9 -6.75q0.35 -4.5 -2.65 -7.5q2.45 59.6 3.6 118.45q3.7 -7.75 -1.25 -14.25q-24.2 -4.05 -47.75 -2.5q3.1 -60.05 -4.9 -118.55q-3.8 8.75 -3.35 20.3q-8.15 0.55 -15.4 3.45q-4.25 2.5 -4.4 8.75q-0.85 44.55 -1.2 89.2q-0.2 30.95 -4.1 56.75q0.8 4.2 -0.25 8.15q-3.85 14.8 3.5 23.85q1.3 -2.6 2.2 -5.3q11.7 0.65 22.95 -4.2q8.8 -3.85 14.65 -11.4q28.15 -36.8 32.5 -84.55q5.45 -60.5 -12.15 -117.6q-9.15 -29.65 -37.2 -35.2q-16.65 5.95 -18.65 26.4q-1.7 17.7 -2.3 35.4q-0.8 17.4 -0.3 34.45q0.4 21.1 -2.3 42.05q-2.75 21.6 4.55 41.65q2.1 5.8 5.95 10.75q18 -7.1 26.1 -25.95q2.05 -4.85 3.15 -10.2q0.65 -4.8 0.6 -9.7q-8.25 20.7 -25.5 35q-6 -51.2 -3.25 -102.85q3.4 -5.2 1.2 -11.1q-0.15 -52.15 6.55 -103.75q5.1 -13.9 -4.4 -26.85q10.55 10.9 16.4 25.05q10.45 25.3 13.25 52.6q1.95 18.75 1.25 37.6q-0.75 19.4 -5.05 38.35q-4.25 18.75 -11.35 36.75q-5.05 12.95 -16.55 20.45q-11.85 7.85 -26.2 7.9q0.5 -76.45 3.05 -155.35q1.1 -33.9 -0.1 -67.75q-3.35 44.25 -4.85 89.2q-2 59.8 -5.85 119.3q-0.95 15.05 -4.5 29.6q-4.2 17 2.8 29.6q10.2 -50.5 11.25 -103.5q0.45 -21.65 1.65 -43.15q0.9 4.1 3.6 7.4q2.8 -6 4.9 -12.6q1 8.1 3.25 16.4q15.65 57.05 24.65 115.45q2.1 13.65 10.45 20q3.6 -7.75 1 -16.05q-7.45 -23.45 -12.2 -47.4q-10.45 -52.2 -23.45 -103.1q7.4 -31.4 19.65 -61.95q7.4 -18.45 6.25 -35.95q-7.7 10.75 -12.25 25q-12.75 39.9 -24.85 79.25q2.6 -53.05 0.95 -106.45q-13.6 -15.65 -34.3 -14.2q-4.5 0.95 -9.1 3.05q-11.9 5.55 -17.95 17.1q-15.45 29.6 -21.6 62.5q-8.2 43.95 -9.35 88.85q-1.55 59.8 -0.15 119.2q1.4 58.8 10.75 116.1q2.25 13.65 10.6 24.6q24.1 31.7 59.15 11.3q3.85 -2.25 6.15 -5.8q33 -51.2 46.25 -111.5q12.7 -58 9.55 -118.7q-3.05 -59.2 -19.45 -115.5q-1.65 -5.75 -2.65 -11.5q-5.95 -34.95 -21.7 -65.7q-2.6 -0.1 -5.1 1.05q4.6 -37.15 37.45 -51.05q13.5 -2.8 24.6 3.6q14 8.1 18.1 23.4q6.7 25.25 14.7 50.05q18 55.95 20.8 115.85q2.05 44.9 -6 88.4q-10.75 58.25 -36.25 112.05q-12.65 26.6 -42.3 24.25q-23.7 -1.85 -30.25 -23.9q-10.95 -37.05 -12.95 -76.15q-3 -59.3 -3.7 -119.3q-0.65 -60 11 -117.75q2.95 -14.65 4.8 -29.45q6.4 58.95 4.1 118.7q-0.6 16 -9.7 28.9q-16.4 23.4 -38.3 5.3q-15.25 -12.65 -24.4 -28.7q-2.1 1.3 -1.95 3.7q2 31.55 31.8 48.2q4.6 2.55 9.35 1.7q35.65 -6.6 39 -43.85q3.95 -43.55 0.55 -87.1q-4.25 -54.95 -11.55 -108.75q1.1 -1.75 1.25 -3.75q0.35 -1.45 0.2 -3q-0.25 -2.7 -1.35 -5.25q-0.6 -0.4 -1.2 -0.35q-34.8 2.05 -70 -0.9q-4.5 1.15 -9.95 1.75q-1.05 1.7 -1.25 3.75q0.05 2.8 1.65 5.15q13.4 0.45 26.5 0.2q-0.4 8.15 0.4 16.3q3.3 -18.3 -18.05 -21.7q-19.25 13.25 -23.15 38.15q-3.1 19.95 -4.3 39.9q-2.05 31.45 9.5 58.6q8.5 6.65 19.05 2.2q34.15 -14.45 32.95 -51.2q-1.85 0.55 -1.85 3q-0.05 2.3 -0.65 4.5q-2.45 0.65 -3.4 2.95q-7.1 16.6 -23 25.2q-15.85 8.55 -23.6 -4.65q-3.2 -38.25 -2.5 -77.25q0.75 -39 20.75 -70.5q1.8 -0.15 3.25 -1.2q9.95 2.95 17.5 8.7q-2.45 32.7 -3.2 65.85q-12.55 5.1 -25.7 7q-0.65 -38.1 -2.3 -75.4q-1.85 -0.15 -2 1.75q-3.8 59.15 -3.1 119.2q0.15 15.1 -2.8 29.75q-2.9 14.15 4.4 21.75q6.35 -26.1 6.25 -54q12.7 -0.55 25.3 -4.5q0.05 15 -1.95 29.8q-2.35 17.4 4.45 29.2q4 -20.75 4.45 -42.75q1.35 -60.25 -2.7 -119.2q-0.75 0.1 -0.75 0.3<g id="2015" transform="matrix(1, 0, 0, 1, -10.7, 0)">
<path style="fill:#000000;fill-opacity:1" d="M477.45,62Q480.45 65 480.1 69.5Q479.8 73.05 478.2 76.25L441.05 79.5Q444.55 103.6 444.1 129Q443.45 165.15 443.1 201Q443 207.35 438.95 211.25Q433.2 197.75 435.25 181.25Q436.95 167.2 436.8 153Q436.35 115.5 438.35 79.7L397.95 82.45Q392.3 82.75 387.2 80.75Q386 79.5 385.6 77.75Q384.75 73.8 386.45 70.25Q427.9 68.6 469.95 61.75L477.45 62M329.2,69.5Q337.2 128 334.1 188.05L333.7 194.75Q357.25 193.2 381.45 197.25Q386.4 203.75 382.7 211.5L329.45 208.25Q328.3 149.4 325.85 89.8Q325.4 78.25 329.2 69.5M470.95,244Q499 249.55 508.15 279.2Q525.75 336.3 520.3 396.8Q515.95 444.55 487.8 481.35Q481.95 488.9 473.15 492.75Q461.9 497.6 450.2 496.95L449.9 496.4Q449 499.1 447.7 501.7Q440.35 492.65 444.2 477.85Q445.25 473.9 444.45 469.7Q448.35 443.9 448.55 412.95Q448.9 368.3 449.75 323.75L451.05 254.75Q451.2 248.5 455.45 246L455.55 247.55Q462.8 244.65 470.95 244.1L470.95 244M422.55,247.4Q432.05 260.35 426.95 274.25L419.2 258.25L414.45 257L410.7 258.5L405.7 266Q399 317.6 399.15 369.75L427.45 362.45L429.05 366Q431.25 371.9 427.85 377.1L399.2 382.85Q396.45 434.5 402.45 485.7L407.45 486.45Q424.7 472.15 432.95 451.45Q433 456.35 432.35 461.15L431.45 466.55Q430.35 471.9 428.3 476.75Q420.2 495.6 402.2 502.7Q398.35 497.75 396.25 491.95Q388.95 471.9 391.7 450.3Q394.4 429.35 394 408.25L393.35 379.85Q392.85 362.8 393.65 345.4L395.3 305.55Q395.9 287.85 397.6 270.15Q399.6 249.7 416.25 243.75L420.45 244.5L422.55 247.4M455.9,255.6Q457.1 289.45 456 323.35Q453.45 402.25 452.95 478.7L455.2 472.7L455.7 477.95Q470.05 477.9 481.9 470.05Q493.4 462.55 498.45 449.6Q505.55 431.6 509.8 412.85Q514.1 393.9 514.85 374.5Q515.55 355.65 513.6 336.9Q510.8 309.6 500.35 284.3Q494.5 270.15 483.95 259.25L455.9 255.6M336.6,239.8L336.95 240.5Q338.6 293.9 336 346.95L336.35 345.75Q348.45 306.4 361.2 266.5Q365.75 252.25 373.45 241.5Q374.6 259 367.2 277.45Q354.95 308 347.55 339.4Q360.55 390.3 371 442.5Q375.75 466.45 383.2 489.9Q385.8 498.2 382.2 505.95Q373.85 499.6 371.75 485.95Q362.75 427.55 347.1 370.5Q344.85 362.2 343.85 354.1Q341.75 360.7 338.95 366.7Q336.25 363.4 335.35 359.3Q334.15 380.8 333.7 402.45Q332.65 455.45 322.45 505.95Q315.45 493.35 319.65 476.35Q323.2 461.8 324.15 446.75Q328 387.25 330 327.45Q331.5 282.5 334.85 238.25L335.2 238.25L336.6 239.8M261.95,73L262.35 73.05Q264.85 71.9 267.45 72Q283.2 102.75 289.15 137.7Q290.15 143.45 291.8 149.2Q308.2 205.5 311.25 264.7Q314.4 325.4 301.7 383.4Q288.45 443.7 255.45 494.9Q253.15 498.45 249.3 500.7Q214.25 521.1 190.15 489.4Q181.8 478.45 179.55 464.8Q170.2 407.5 168.8 348.7Q167.4 289.3 168.95 229.5Q170.1 184.6 178.3 140.65Q184.45 107.75 199.9 78.15Q205.95 66.6 217.85 61.05Q222.45 58.95 226.95 58Q247.65 56.55 261.25 72.2L261.95 73M183.7,153Q172.05 210.75 172.7 270.75Q173.4 330.75 176.4 390.05Q178.4 429.15 189.35 466.2Q195.9 488.25 219.6 490.1Q249.25 492.45 261.9 465.85Q287.4 412.05 298.15 353.8Q306.2 310.3 304.15 265.4Q301.35 205.5 283.35 149.55Q275.35 124.75 268.65 99.5Q264.55 84.2 250.55 76.1Q239.45 69.7 225.95 72.5Q193.1 86.4 188.5 123.55Q186.65 138.35 183.7 153M94.65,79.8L60 80.7Q46.9 80.95 33.5 80.5L32.65 79.65Q31.05 77.3 31 74.5L31 71.5L31 70.75Q31.2 68.7 32.25 67L62.05 64.5Q67.5 63.9 72 62.75Q107.2 65.7 142 63.65Q142.6 63.6 143.2 64L143.65 64.75Q144.75 67.3 145 70Q145.15 71.55 144.8 73L144.7 73.75Q144.55 75.75 143.45 77.5L98.7 79.65Q106 133.45 110.25 188.4Q113.65 231.95 109.7 275.5Q106.35 312.75 70.7 319.35Q65.95 320.2 61.35 317.65Q31.55 301 29.55 269.45Q29.4 267.05 31.5 265.75Q40.65 281.8 55.9 294.45Q77.8 312.55 94.2 289.15Q103.3 276.25 103.9 260.25Q106.2 200.5 99.8 141.55L95.05 96.1Q94.25 87.95 94.65 79.8M60.75,350.7Q53.2 344.95 43.25 342Q41.8 343.05 40 343.2Q20 374.7 19.25 413.7Q18.55 452.7 21.75 490.95Q29.5 504.15 45.35 495.6Q61.25 487 68.35 470.4Q69.3 468.1 71.75 467.45Q72.35 465.25 72.4 462.95Q72.4 460.5 74.25 459.95Q75.45 496.7 41.3 511.15Q30.75 515.6 22.25 508.95Q10.7 481.8 12.75 450.35L15.55 406.3Q16.75 386.35 19.85 366.4Q23.75 341.5 43 328.25Q64.35 331.65 61.05 349.95L60.75 350.7M123.45,336.25Q127.5 395.2 126.15 455.45Q125.7 477.45 121.7 498.2Q114.9 486.4 117.25 469Q119.25 454.2 119.2 439.2L119.3 416.35Q106.7 420.3 94 420.85L94.25 452.45Q94.35 480.35 88 506.45Q80.7 498.85 83.6 484.7Q86.55 470.05 86.4 454.95Q85.7 394.9 89.5 335.75Q89.65 333.85 91.5 334Q93.15 371.3 93.8 409.4Q106.95 407.5 119.5 402.4Q120.25 369.25 122.7 336.55Q122.7 336.35 123.45 336.25" />
</g>
</svg>
