<?xml version="1.0" encoding="utf-8"?>
<svg version="1.1" id="Layer_1"
xmlns="http://www.w3.org/2000/svg"
xmlns:xlink="http://www.w3.org/1999/xlink"


xml:space="preserve">
q-3.25 19.95 -2.05 40.15q0.85 14.75 0.7 29.55q-0.15 14.8 -0.15 29.65q0 20.35 -2.65 40.75q-2.75 20.9 -2.7 42.1q0 3.75 2.35 6.75q12.05 0.3 23.4 -3.65q6.8 -3.15 12.8 -7.3q17.9 -12.25 29 -30.8q12.5 -20.9 12.25 -45.5q-0.3 -27.3 -11.65 -52.3q-9.25 -20.3 -27.25 -33.1q-16.9 -12.1 -37.15 -15.5q18.85 6.95 34.2 18.95q11.15 8.7 18.35 21.05q28.2 48.3 -4.65 91.65q-6.1 8.05 -15 12.7q-19.6 10.35 -40.45 16.65q4.6 -27.75 5 -56.6q0.8 -53.8 -1.65 -106.15q0.7 59.8 -1.7 119.25q-0.45 11.25 -1.9 22.3q-2.2 16.5 3.45 29.9q0.85 -0.6 0.95 -1.35q3.9 -31.5 5.15 -63.6q2.15 -55.75 -1.1 -110.55q24.75 -0.35 49.2 0.55q0.9 -1.4 1.3 -3q1.1 -4.55 -0.4 -9q-19 0.4 -37.95 -0.6q-1.6 1 -2.2 2.75q-1.5 4.05 -0.3 8.2q0.25 0.8 0.65 1.4q-0.35 1.8 -0.3 3.95q15.4 25.6 16.9 56.85q1.1 22.3 -3.55 44.05q-3.1 14.3 -9 27.6q-7.75 17.45 -26.05 21.45q-8.8 1.85 -17.55 0.25q-13.55 -20.4 -14 -44.6q-0.7 -40.7 6.65 -80.6q2.3 -12.5 11.9 -20.8q8.5 -7.35 19.45 -10.2q-23.95 -5.9 -34.8 17.55q-8.95 19.35 -12.3 40.45q-3.3 21.05 -5.6 42.05q-2.2 20.45 1.55 40.65q4.05 21.55 16.9 39.45q26.95 2.65 42.6 -18.2q7.75 -10.3 11.65 -22.55q3.4 -10.6 5.85 -21.5q4.8 -21.45 4.1 -43.55q-0.85 -25.65 -6.55 -50.8q-4.6 -20.35 -23.3 -29.4q-4.85 7.45 1.35 11.7q4.25 -7 -1.25 -11.45q0.2 34.15 -11.6 64.5q-4.8 2.45 -10.2 2q-5.05 -5.65 -9.75 -8q-2.8 4.75 -2.2 10.55q0.7 6.7 6.5 9.45q19.55 9.3 25.35 -12.95q5.65 -21.95 8.3 -44.55q3.5 -29.6 0.75 -57.95q-7.3 16.35 -7.15 36.95<g id="2016" transform="matrix(1, 0, 0, 1, -138.8, 0)">
<path style="fill:#000000;fill-opacity:1" d="M338,179.15Q358.25 182.55 375.15 194.65Q393.15 207.45 402.4 227.75Q413.75 252.75 414.05 280.05Q414.3 304.65 401.8 325.55Q390.7 344.1 372.8 356.35Q366.8 360.5 360 363.65L356.6 365.05L353.35 366.3Q342 370.25 329.95 369.95Q327.6 366.95 327.6 363.2Q327.55 342 330.3 321.1Q332.95 300.7 332.95 280.35Q332.95 265.5 333.1 250.7Q333.25 235.9 332.4 221.15Q331.2 200.95 334.45 181L337.45 178.75L338 179.15M338.05,191.05Q340.5 243.4 339.7 297.2Q339.3 326.05 334.7 353.8Q355.55 347.5 375.15 337.15Q384.05 332.5 390.15 324.45Q423 281.1 394.8 232.8Q387.6 220.45 376.45 211.75Q361.1 199.75 342.25 192.8L338.05 191.05M175.45,191.8L141.5 193L140.65 192.1Q140.25 191.5 140 190.7Q138.8 186.55 140.3 182.5Q140.9 180.75 142.5 179.75L189 177.25Q207.95 178.25 226.95 177.85L228.45 178L229.35 178.85L230.1 180.25Q231.6 184.7 230.5 189.25Q230.1 190.85 229.2 192.25Q204.75 191.35 180 191.7Q183.25 246.5 181.1 302.25Q179.85 334.35 175.95 365.85Q175.85 366.6 175 367.2Q169.35 353.8 171.55 337.3Q173 326.25 173.45 315Q175.85 255.55 175.15 195.75Q175.1 193.6 175.45 191.8M284.95,191.25Q274 194.1 265.5 201.45Q255.9 209.75 253.6 222.25Q246.25 262.15 246.95 302.85Q247.4 327.05 260.95 347.45Q269.7 349.05 278.5 347.2Q296.8 343.2 304.55 325.75Q310.45 312.45 313.55 298.15Q318.2 276.4 317.1 254.1Q315.6 222.85 300.2 197.25L292.45 194L290.95 192.5L284.95 191.25M294.95,178.75Q313.65 187.8 318.25 208.15Q323.95 233.3 324.8 258.95Q325.5 281.05 320.7 302.5Q318.25 313.4 314.85 324Q310.95 336.25 303.2 346.55Q287.55 367.4 260.6 364.75L257.2 360.4Q244.35 342.5 240.3 320.95Q236.55 300.75 238.75 280.3Q241.05 259.3 244.35 238.25Q247.7 217.15 256.65 197.8Q267.5 174.35 291.45 180.25L294.95 178.75M225.2,231.45L224.7 232.25Q218.5 228 223.35 220.55L223.95 220Q229.45 224.45 225.2 231.45M224.45,250Q227.2 278.35 223.7 307.95Q221.05 330.55 215.4 352.5Q209.6 374.75 190.05 365.45Q184.25 362.7 183.55 356Q182.95 350.2 185.75 345.45Q190.45 347.8 195.5 353.45Q200.9 353.9 205.7 351.45Q217.5 321.1 217.3 286.95Q217.15 266.35 224.45 250" />
</g>
</svg>
