<?xml version="1.0" encoding="utf-8"?>
<svg version="1.1" id="Layer_1"
xmlns="http://www.w3.org/2000/svg"
xmlns:xlink="http://www.w3.org/1999/xlink"


xml:space="preserve">
q-7.55 9.35 -6.65 24.4q1.1 19.2 -0.4 38.55q-3.85 6.35 -0.95 13.5q-0.3 31.75 -6.3 63.8q-0.85 4.65 -1.4 9.35q-1.2 10.45 1.45 20.4q11.5 6.2 25.1 5.05q18.25 -3.3 31.55 -16.1q3.6 -3.45 5.6 -8q8.2 -18.6 10.05 -39.2q3.2 -35.3 -25.85 -52.35q7.65 -9.8 11.4 -21.7q4.35 -16.45 -3.3 -31.6q-4.05 -8.05 -11.15 -13.95q-14.6 -12.25 -34.35 -9q-7.45 35.8 -43.35 36.45q1.45 -36.25 -0.55 -72.15q20.75 -0.25 35.8 12.85q10.85 9.45 8.1 22.85q23.05 4.65 29 28.75q5.7 23.1 -9.15 40.6q-14.4 16.95 -36.6 19.8q-9.6 0.9 -18.8 -1.3q14.3 0.3 26.55 -7.05q1.05 30.25 -9.3 57.65q-15 39.75 -56.8 30.9q-1 -1 -1.5 -2.2q-11.9 -26.45 -7.85 -56.8q3.1 -22.85 4.4 -45.8q2.1 -37.05 35.2 -50.9q0.1 1.55 1 2.85q3.2 4.85 8.75 6.65q14.25 10.95 18.65 28.2q3.65 14.25 4.2 29.2q-0.3 -1.7 -1.5 -3.3q-2.25 10.2 -2.35 20.7q-0.15 8.9 3.85 16.8q3.55 -30.65 4.65 -61.35q2.05 -55.35 -1.35 -110.6q1.25 -1.3 1.7 -3.25q-12.45 58.6 -1.8 117.2q1.7 9.35 10.3 12.6q34.35 13.05 51.75 -18.65q28.8 -52.45 19.45 -114.1q-5.7 -37.35 -39.6 -50.25q-20.8 5 -30.2 24.4q-6.7 13.8 -9.9 28.8q-6.6 8.3 1.8 14.3q4.1 -8.25 -2.2 -13.7q-2.1 29.1 -2.35 59.2q-0.1 11.15 -6.4 19.95q-9.05 12.65 -24.7 5.3q-6.3 10.85 3.95 18q7.55 -1.15 9.95 -8.2q15.5 -45.7 5.45 -93.4q-0.5 0.1 -0.5 0.25<g id="2008" transform="matrix(1, 0, 0, 1, -136.5, 0)">
<path style="fill:#000000;fill-opacity:1" d="M389.3,186.35Q396.4 192.25 400.45 200.3Q408.1 215.45 403.75 231.9L402.45 236.6Q398.7 248.5 391.05 258.3Q420.1 275.35 416.9 310.65Q415.05 331.25 406.85 349.85Q404.85 354.4 401.25 357.85Q387.95 370.65 369.7 373.95L364.6 374.8Q351 375.95 339.5 369.75L338.6 367.65Q335.95 357.7 337.15 347.25Q337.7 342.55 338.55 337.9Q344.55 305.85 344.85 274.1L344.3 273.55L344 273Q341.1 265.85 344.95 259.5L346.45 259.65L347.9 240.3Q349.4 220.95 348.3 201.75Q347.4 186.7 354.95 177.35Q374.7 174.1 389.3 186.35M389.7,200.6Q374.65 187.5 353.9 187.75Q355.9 223.65 354.45 259.9Q390.35 259.25 397.8 223.45Q400.55 210.05 389.7 200.6M353.7,274.9L344.7 355.7Q353.9 357.9 363.5 357Q385.7 354.15 400.1 337.2Q414.95 319.7 409.25 296.6Q403.3 272.5 380.25 267.85Q368 275.2 353.7 274.9M326.35,228.7Q321.95 211.45 307.7 200.5Q302.15 198.7 298.95 193.85Q298.05 192.55 297.95 191L295.2 190.6L294.7 190.75Q261.6 204.6 259.5 241.65Q258.2 264.6 255.1 287.45Q251.05 317.8 262.95 344.25Q263.45 345.45 264.45 346.45Q306.25 355.3 321.25 315.55Q331.6 288.15 330.55 257.9Q330 242.95 326.35 228.7M236.4,195Q235.95 196.95 234.7 198.25L181.05 195.75Q184.45 251 182.4 306.35Q181.3 337.05 177.75 367.7Q173.75 359.8 173.9 350.9L175.8 216.3Q175.9 205.8 178.15 195.6L136.5 193L136.75 184.75L179 181.5L234.85 185.95Q236.05 187.55 236.35 189.25L236.65 191.85L236.6 193.7L236.4 195M264.75,202.15Q274.15 182.75 294.95 177.75Q328.85 190.65 334.55 228Q343.9 289.65 315.1 342.1Q297.7 373.8 263.35 360.75Q254.75 357.5 253.05 348.15Q242.4 289.55 254.85 230.95Q258.05 215.95 264.75 202.15M232.15,231.7L231.7 232.5Q223.3 226.5 229.9 218.2L229.95 218Q236.25 223.45 232.15 231.7M229.2,256Q239.25 303.7 223.75 349.4Q221.35 356.45 213.8 357.6L199.2 358.7Q188.95 351.55 195.25 340.7Q210.9 348.05 219.95 335.4Q226.25 326.6 226.35 315.45Q226.6 285.35 228.7 256.25Q228.7 256.1 229.2 256" />
</g>
</svg>
