<?xml version="1.0" encoding="utf-8"?>
<svg version="1.1" id="Layer_1"
xmlns="http://www.w3.org/2000/svg"
xmlns:xlink="http://www.w3.org/1999/xlink"


xml:space="preserve">
q-18.95 30.5 -27.35 66.8q-13.05 56.7 -23.15 113.95q-13.15 -42.8 -21.75 -86.7q-2 -10.15 -8.25 -18.55q-10.1 51.65 -28 101.5q-12.45 -81.75 -22.7 -164.1q-0.5 -3.85 -3.3 -6.65q2.4 79.85 13.85 159.5q2.25 15.65 8.9 29.85q1.35 2.9 3.45 3.5q13.4 -33.45 22.25 -68.65q4 -15.9 7.05 -31.95q9.2 51.85 27.3 100.55q1.1 3 2.95 5.7q12.3 -59.95 28.3 -119.25q3.9 -14.4 8.3 -28.65q9.45 -19.6 12.3 -40.75q1.1 -8.15 -0.15 -16.1q-26.05 39.35 -36.15 85.55q-16.55 -37.7 -39.35 -69.9q4.15 25.7 16.45 50.05q7.05 14.05 15.05 27.85q2.3 3.95 5.4 7.15q-16.15 59.5 -37.85 119.8q-1.85 5.15 -1.35 10.6q0.2 2.4 1 4.95q1 3.2 2.7 6.15q30.85 -102.25 67 -202.4q7.95 -11.2 6.55 -24.8q-9.15 18.65 -12.9 39.4q-2.6 14.4 -6.15 28.65q-5.15 17.55 -12.5 34.35q-8 18.35 -0.05 35.9q3.5 37.7 11.1 74.05q0.3 1.6 1.5 3q6.2 -12.8 1.8 -28q-4.75 -16.3 -7.65 -33.1q1.05 -0.85 1.35 -3.05q0.3 -2.25 -0.15 -4.4q-4.6 24.75 1.45 49.55q4.4 18 7.65 36.3q16.5 -45.05 20 -92.35q-92 2.35 -184.45 10.5q-0.5 0.35 -0.75 0.85q-2.9 6.1 0.75 11.15q-0.95 8.45 0.2 17.25q7.3 55.9 11.1 112.3q4 59.7 -1.15 119.25q-5.5 63 -36.35 118.15q-15.55 27.8 -45.75 25.05q-14.15 -11.7 -25.75 -26q-16.95 -20.8 -18.4 -46.8q-0.8 -13.55 -5.35 -23.95q-3.8 11.1 -2.5 24.05q4.1 41.65 33.75 72.9q7.85 8.3 17.95 13.45q11.4 5.85 22.05 -1.15q29.75 -19.55 43.2 -53.5q22.15 -55.9 25.5 -115.9q3.3 -59.85 -1.25 -119.45q-4.45 -58.3 -13.1 -115.8q4.5 -8.7 -2.35 -13.65q-7.55 -1.25 -15.8 -1.2q-10.8 0.9 -21.4 4.9q-10.7 4 -16.9 13.5q-12.65 19.3 -16.35 42.4q-9.45 59.2 2.25 117.95q6.15 30.8 34.7 42.8q6.55 2.75 13.3 1.05q34.55 -8.5 49.75 -41.75q10.8 -23.6 12.95 -49.25q2.55 -29.5 -3.85 -58q-9.35 -41.5 -36.95 -72.35q26.45 34.05 35.75 77.05q13.6 62.9 -33.35 107.55q-7.8 7.4 -18.4 7.45q-36.8 0 -44.2 -36.35q-12.1 -59.1 1.15 -117.85q9.1 -40.45 53.55 -39.35q1 0.2 1.9 0.65<g id="2025" transform="matrix(1, 0, 0, 1, -19.7, 0)">
<path style="fill:#000000;fill-opacity:1" d="M406.6,78.6Q403.75 99.75 394.3 119.35Q389.9 133.6 386 148Q370 207.3 357.7 267.25Q355.85 264.55 354.75 261.55Q336.65 212.85 327.45 161Q324.4 177.05 320.4 192.95Q311.55 228.15 298.15 261.6Q296.05 261 294.7 258.1Q288.05 243.9 285.8 228.25Q274.35 148.6 271.95 68.75Q274.75 71.55 275.25 75.4Q285.5 157.75 297.95 239.5Q315.85 189.65 325.95 138Q332.2 146.4 334.2 156.55Q342.8 200.45 355.95 243.25Q366.05 186 379.1 129.3Q387.5 93 406.45 62.5Q407.7 70.45 406.6 78.6M383.45,296.55Q347.3 396.7 316.45 498.95Q314.75 496 313.75 492.8Q312.95 490.25 312.75 487.85Q312.25 482.4 314.1 477.25Q335.8 416.95 351.95 357.45L350 355.4Q346.9 352.2 344.6 348.25Q336.6 334.45 329.55 320.4Q317.25 296.05 313.1 270.35Q335.9 302.55 352.45 340.25L354.2 337.6L353.3 353.8Q363.4 307.6 389.45 268.25L390 271.75Q391.4 285.35 383.45 296.55M241.2,78.6Q237.7 125.9 221.2 170.95L256 174.3L252.55 154.35Q249.3 136.05 244.9 118.05Q238.85 93.25 243.45 68.5L260.7 175.05L262.85 175.45L263.1 175.8L264.05 178.8Q264.5 180.95 264.2 183.2Q263.9 185.4 262.85 186.25L265.85 203.15Q268.75 219.95 273.5 236.25Q277.9 251.45 271.7 264.25L270.4 263.05Q269.2 261.65 268.9 260.05Q261.3 223.7 257.8 186L218.45 180.8L194.45 266.5Q186.5 248.95 194.5 230.6Q201.85 213.8 207 196.25L215.05 167.95L222.4 139.55Q225.95 125.3 228.55 110.9Q232.3 90.15 241.45 71.5L241.2 78.6M228.3,73.15L227.7 74L149.1 76.55Q157.75 134.05 162.2 192.35Q166.75 251.95 163.45 311.8Q160.1 371.8 137.95 427.7Q124.5 461.65 94.75 481.2Q84.1 488.2 72.7 482.35Q62.6 477.2 54.75 468.9Q25.1 437.65 21 396Q19.7 383.05 23.5 371.95Q28.05 382.35 28.85 395.9Q30.3 421.9 47.25 442.7Q58.85 457 73 468.7Q103.2 471.45 118.75 443.65Q149.6 388.5 155.1 325.5Q160.25 265.95 156.25 206.25Q152.45 149.85 145.15 93.95Q144 85.15 144.95 76.7L41.5 82Q37.85 76.95 40.75 70.85Q41 70.35 41.5 70Q133.95 61.85 225.95 59.5Q232.8 64.45 228.3 73.15M251.45,273.25Q279.05 304.1 288.4 345.6Q294.8 374.1 292.25 403.6Q290.1 429.25 279.3 452.85Q264.1 486.1 229.55 494.6Q222.8 496.3 216.25 493.55Q187.7 481.55 181.55 450.75Q169.85 392 179.3 332.8Q183 309.7 195.65 290.4Q201.85 280.9 212.55 276.9Q223.15 272.9 233.95 272Q242.2 271.95 249.75 273.2L251.45 273.25M247.35,285.2Q246.45 284.75 245.45 284.55L241.95 284Q197.5 282.9 188.4 323.35Q175.15 382.1 187.25 441.2Q194.65 477.55 231.45 477.55Q242.05 477.5 249.85 470.1Q296.8 425.45 283.2 362.55Q273.9 319.55 247.45 285.5L247.35 285.2" />
</g>
</svg>
