<?xml version="1.0" encoding="utf-8"?>
<svg version="1.1" id="Layer_1"
xmlns="http://www.w3.org/2000/svg"
xmlns:xlink="http://www.w3.org/1999/xlink"


xml:space="preserve">
q-5.3 31.55 -4.4 65.75q0.5 19.85 -0.15 39.65q-1.5 3.6 -1.55 7.5q-0.05 4.4 2.05 8.25q-3.8 59.15 -6.9 118.55q-0.25 0.4 -0.25 0.75q0.55 13.65 2 27q-0.25 4.5 2.9 7.45q5.65 2.35 11.2 0.4q50.55 -17.9 61.4 -69.95q5.6 -26.65 3.4 -53.95q-2.55 -30.9 -28.55 -42.65q9.6 -16.05 12.3 -34.55q2.7 -18.75 -0.9 -37.35q-7 -36.3 -45.35 -46.85q-2.3 2.1 -2.45 5.25q-0.2 3.6 1.45 6.75q-7.5 21.85 -28.35 30.85q-6.95 3 -14.25 0.95q13.3 -0.4 25.1 5.4q17.95 8.85 21.8 27.95q2.4 21.9 -4.85 42.9q16.7 58.95 -26.65 99.45q-9.15 8.55 -21.65 12.4q-11.75 3.65 -17.6 -0.8q2.8 -14.05 3.5 -29.35q2.3 -49.6 4.2 -99.25q18.75 3.15 32.05 -8.6q11.3 3.85 21 11.85q3.1 6.95 5.15 14.3q-9.6 4 -20.6 5.1q-66.2 6.55 -129.1 22.4q-2.15 7.15 2 12.75q12.9 -0.65 25.35 -4.95q11.35 -3.85 23.25 -4.6q18.6 -1.15 36.95 -3.65q3.55 31.75 5.85 64.25q2.9 40.6 10.15 80.6q10.4 57.85 -40.45 88.2q-4.2 2.5 -8.7 1.45q-36.2 -8.7 -43.9 -46.3q2.45 0.45 3.5 -1.5q-0.4 -1.7 0.45 -3q-0.45 -1.55 -1.5 0.95q-1.65 0.15 -1.95 -1.6q-1.95 -10.5 -8.05 -14.15q-6.5 49.4 34.05 80.95q12.4 9.65 25.9 2.3q50.45 -27.5 46.7 -84.7q-1.9 -28.95 -3.3 -57.9q-2.75 -55.8 -16.35 -108.45q32.35 -4.7 63.7 -13.7q3.05 -7.4 -1.6 -13.4q-31.8 -2.4 -45.45 29q-20.7 47.6 -16.55 99.8q1.2 14.85 3.75 29.5q7.5 43.1 46.4 60.85q5.9 2.7 12.1 0.25q30.7 -12.3 45.6 -42.75q7.25 -14.8 10.45 -30.75q11.9 -59.35 -11.05 -115.7q-11.9 -29.35 -42.5 -33.45q-0.8 0.95 -1.1 2.2q21.95 4.2 34.15 23.1q13.2 20.4 17.65 44.55q11.6 62.45 -30.45 110.3q-7.15 8.15 -17.7 10.35q-33.2 6.8 -46.45 -25.4q-23.1 -56.25 -9.35 -115.8q8.6 -37.35 42.7 -49.35q1.9 0.1 2.95 0.75q0.3 1.5 1.45 1.75<g id="2026" transform="matrix(1, 0, 0, 1, -53, 0)">
<path style="fill:#000000;fill-opacity:1" d="M350.7,119.5Q349.05 116.35 349.25 112.75Q349.4 109.6 351.7 107.5L360.95 104.6L360.95 104.5Q399.3 115.05 406.3 151.35Q409.9 169.95 407.2 188.7Q404.5 207.2 394.9 223.25L392.6 226.9Q418.6 238.65 421.15 269.55Q423.35 296.85 417.75 323.5Q406.9 375.55 356.35 393.45Q350.8 395.4 345.15 393.05L342.2 391.95Q339.05 389 339.3 384.5L339.35 384.05L338.7 383.2Q337.25 369.85 336.7 356.2Q336.7 355.85 336.95 355.45L338.2 362.95L338.45 362.95Q341.55 303.55 345.35 244.4L345.45 243.15L344.2 242.75Q342.1 238.9 342.15 234.5Q342.2 230.6 343.7 227L346.35 224.9Q347 205.1 346.5 185.25Q345.6 151.05 350.9 119.5L350.7 119.5M400.5,152.65Q396.65 133.55 378.7 124.7Q366.9 118.9 353.6 119.3L353.2 223L355.2 221.75L353.15 224.3L353.05 227.35Q360.35 229.4 367.3 226.4Q388.15 217.4 395.65 195.55Q402.9 174.55 400.5 152.65M405.45,248Q395.75 240 384.45 236.15Q371.15 247.9 352.4 244.75Q350.5 294.4 348.2 344Q347.5 359.3 344.7 373.35Q350.55 377.8 362.3 374.15Q374.8 370.3 383.95 361.75Q427.3 321.25 410.6 262.3Q408.55 254.95 405.45 248M209.45,98.25Q214.1 104.25 211.05 111.65L210.2 113.25Q178.85 122.25 146.5 126.95Q160.1 179.6 162.85 235.4Q164.25 264.35 166.15 293.3Q169.9 350.5 119.45 378Q105.95 385.35 93.55 375.7Q53 344.15 59.5 294.75Q65.6 298.4 67.55 308.9Q67.85 310.65 69.5 310.5Q70.55 308 71 309.55L71 310.25Q70.15 311.55 70.55 313.25L70.5 314Q69.45 315.95 67 315.5Q74.7 353.1 110.9 361.8Q115.4 362.85 119.6 360.35Q170.45 330 160.05 272.15Q152.8 232.15 149.9 191.55Q147.6 159.05 144.05 127.3Q125.7 129.8 107.1 130.95Q95.2 131.7 83.85 135.55Q71.4 139.85 58.5 140.5Q54.35 134.9 56.5 127.75L57.25 125.5Q120.15 109.65 186.35 103.1Q197.35 102 206.95 98L209.45 98.25M253.3,138.3L254 137.8L254.9 137.4L254.95 137.25Q285.55 141.35 297.45 170.7Q320.4 227.05 308.5 286.4Q305.3 302.35 298.05 317.15Q283.15 347.6 252.45 359.9Q246.25 362.35 240.35 359.65Q201.45 341.9 193.95 298.8Q191.4 284.15 190.2 269.3Q186.05 217.1 206.75 169.5Q220.4 138.1 252.2 140.5Q252.5 139.25 253.3 138.3M251.95,150.75Q250.9 150.1 249 150L243.95 150.25Q209.85 162.25 201.25 199.6Q187.5 259.15 210.6 315.4Q223.85 347.6 257.05 340.8Q267.6 338.6 274.75 330.45Q316.8 282.6 305.2 220.15Q300.75 196 287.55 175.6Q275.35 156.7 253.4 152.5Q252.25 152.25 251.95 150.75" />
</g>
</svg>
