<?xml version="1.0" encoding="utf-8"?>
<svg version="1.1" id="Layer_1"
xmlns="http://www.w3.org/2000/svg"
xmlns:xlink="http://www.w3.org/1999/xlink"


xml:space="preserve">
q-0.9 15 -3.5 29.7q-3.1 17.45 3.5 29.3q6.15 -30 7.85 -61.45q3.15 -56.8 2.05 -112.6q2.7 -6.9 -1.3 -12.75q-48.2 0.85 -95 5.25q-2.1 5.45 1 9.75q18.8 0.9 37.4 0.9q3.75 -16.4 0.75 -33q-11.1 12.9 -2 30.55q20.5 -1.8 21 -27q0.65 -31.55 -1.9 -63.15q-4.55 19.1 -3.1 39.4q1.3 18.45 -9 30.35q-10.35 11.95 -22.65 0.75q-2.15 4.5 -0.65 9.25q3.65 11.8 16.3 10.4q-44.65 -0.1 -89.25 6.15q-6.1 61.6 -4.5 123.9q0.3 11.15 0.2 22.45q-0.2 15.95 2.2 28.75q7.2 -33.2 6.25 -67.15q-1.1 -40.7 -1.65 -81.2q3.45 -5.85 -0.95 -10.9q-19.55 26.9 -18.55 61.45q1.1 36.95 38.45 37.75q33.9 -14.5 33.85 -52.5q-0.05 -26.25 -16.35 -45q-1 0 -1.7 -0.4q-12.5 -7.5 -27.8 -6.85q-4.85 1.3 -7.9 5.55q-4.8 7.95 -5.1 18.75q-0.35 11.05 4.85 17q2.55 -4.45 3.05 -9.65q1.55 -15.05 -2.8 -26.1q2 28 -0.4 55.35q-2.1 23.5 -20.95 10.55q0.45 -6.15 -4.75 -8.25q-8.55 25.55 19.2 29.25q4.3 -2.55 6.5 -6.75q10.8 -20.75 8.85 -45.1q-2.1 -26.3 -3.6 -51.6q-5.55 6.15 -4.85 16.55q-9.1 -13.2 -7.85 -29.25q2 -25 19.85 -39.15q31.55 -2.9 37.7 26.45q7.45 35.4 -24.7 50.05q-6.5 1 -12.8 -0.3q-7.9 -1.55 -12.2 -7.8<g id="2037" transform="matrix(1, 0, 0, 1, -138.5, 0)">
<path style="fill:#000000;fill-opacity:1" d="M325.45,195.25Q322.35 190.95 324.45 185.5Q371.25 181.1 419.45 180.25Q423.45 186.1 420.75 193L420.45 193.75L365.6 196.15Q366.7 251.95 363.55 308.75Q361.85 340.2 355.7 370.2Q349.1 358.35 352.2 340.9Q354.8 326.2 355.7 311.2L362.85 196.15Q344.25 196.15 325.45 195.25M412.45,248.3Q403.35 230.65 414.45 217.75Q417.45 234.35 413.7 250.75L412.45 248.3M378.05,353.2Q376.55 348.45 378.7 343.95Q391 355.15 401.35 343.2Q411.65 331.3 410.35 312.85Q408.9 292.55 413.45 273.45Q416 305.05 415.35 336.6Q414.85 361.8 394.35 363.6Q381.7 365 378.05 353.2M229.3,190.4L180.4 194.5L180.8 221.25Q181.35 261.75 182.45 302.45Q183.4 336.4 176.2 369.6Q173.8 356.8 174 340.85Q174.1 329.55 173.8 318.4Q172.2 256.1 178.3 194.5L138.75 193.25L138.5 185Q183.1 178.75 227.75 178.85L228.35 179.5Q232.75 184.55 229.3 190.4M270.95,267.2Q286.25 266.55 298.75 274.05Q299.45 274.45 300.45 274.45Q316.75 293.2 316.8 319.45Q316.85 357.45 282.95 371.95Q245.6 371.15 244.5 334.2Q243.5 299.65 263.05 272.75Q266.1 268.5 270.95 267.2M222.75,234.35Q222.25 239.55 219.7 244Q214.5 238.05 214.85 227Q215.15 216.2 219.95 208.25Q224.3 219.3 222.75 234.35M220.45,265.5Q221.95 290.8 224.05 317.1Q226 341.45 215.2 362.2Q213 366.4 208.7 368.95Q180.95 365.25 189.5 339.7Q194.7 341.8 194.25 347.95Q213.1 360.9 215.2 337.4Q217.6 310.05 215.6 282.05Q214.9 271.65 220.45 265.5M270.15,357.15Q276.45 358.45 282.95 357.45Q315.1 342.8 307.65 307.4Q301.5 278.05 269.95 280.95Q252.1 295.1 250.1 320.1Q248.85 336.15 257.95 349.35Q262.25 355.6 270.15 357.15" />
</g>
</svg>
