<?xml version="1.0" encoding="utf-8"?>
<svg version="1.1" id="Layer_1"
xmlns="http://www.w3.org/2000/svg"
xmlns:xlink="http://www.w3.org/1999/xlink"


xml:space="preserve">
q-0.4 -0.25 -0.4 -1.9q0.95 0.95 1.5 3.4q0.5 1.3 0.5 3q0 4.85 -43.7 10.5q0 10.1 1.9 28.55q2.05 20.5 2.35 28.85q0.5 1.5 1 4.5q1.25 18.75 2 55.9q-0.6 17.6 -3.5 22.35q-2.9 -3.5 -2.6 -8.75q1 -6.05 1.1 -9q-0.5 -3.75 -1 -11.25q-0.5 -7.5 -1 -11.25q-0.55 -3.9 -1.1 -6q1.4 -10.55 -0.95 -28.1q-2.8 -21.1 -2.8 -28.15q0 -12.4 0.3 -15.9q0.35 -3.9 1.2 -6.9q-8.3 -3.85 -9.5 -4.55q-1 -0.6 -1 -2.6q0 -3.75 1.05 -4.7q2.15 -1.75 9.45 0.85q0 6.9 9.15 10.8q2.85 1.25 20.1 5.8q13.7 3.65 20.1 8.4q9.15 6.75 9.15 18.5q0 2.85 -3.9 7.9q-4.2 5.35 -10.6 10.25q-16.55 12.75 -34 12.75q-17.15 0 -29 -7.2q-8.85 -5.35 -11.5 -11.8q1.25 0 1.05 -1q-0.2 -1 1.05 -1q12.95 6.35 14.85 6.35q19.75 0 38.8 -10.25q6.6 -3.55 11.5 -7.5q4.2 -3.35 4.2 -4.4q0 -8.05 -9.15 -12.6q-4.5 -2.3 -20.1 -6.4q-14.05 -3.75 -20.1 -7.75q-9.15 -6.1 -9.15 -16.75q0 -8.2 8.55 -13.4q7.45 -4.55 18.85 -5.55q10.8 -0.95 18.8 1.7q8.55 2.85 8.55 8.4q-0.25 0 -0.5 0.3q-0.45 -0.05 -7 -3.3q-6.4 -3.2 -8 -3.2q-23 0 -30.95 4.75q-4.05 2.45 -4.05 6.85q0 14.9 -9.75 96.25q-1.15 -1.2 -1.8 -4.2q-0.45 -2.2 -0.45 -4.05q0 -13.4 4.15 -48.95q4.1 -35.55 4.1 -69.4q-1.5 -8.35 -1.5 -9.6q0 -1.9 0.65 -3.65q0.6 -1.75 1.35 -1.95q2.3 2.7 3.3 8.15q-8.35 29.35 -15.7 65.1q-5.4 26.2 -12.05 65q-0.3 -0.4 -0.6 -0.4q-5.2 -30.25 -15.15 -66.95q-7.25 -26.65 -19.85 -66.4q-3.85 14.8 -12.05 75q-7.95 58.3 -7.95 68.1q0 6.25 1 11.25q2.4 -20.75 9.05 -69.75q6.05 -44.75 8.7 -69.6q14.35 27.65 22.8 69.35q3.8 21.15 7.05 34.25q0.5 -0.4 0.7 -0.4q2.1 -16.55 16.65 -82.2q13.6 -61.55 13.6 -66.55q0 -1.75 -0.35 -2.8q-1.9 0.8 -3.25 3.5q0 -3.25 -3 -4.9q0.35 -0.5 3.55 -1.95q1.75 2.1 1.75 5.65q-0.85 15.1 -3.95 27.35q-9.8 38.45 -38.55 38.45q-25.2 0 -34.2 -15.75q-4.3 -7.5 -4.3 -18.75q0 -8.05 1.9 -27.45q2.05 -20.8 3.6 -24.05q1.5 0.85 1.8 1.25q0.45 0.65 0.45 2.4q-2.5 10.5 -2.5 19.6q0.3 8.25 2.35 14.45q6.1 18.7 27.2 18.7q31.05 0 41.5 -32.45q3.25 -10.2 4.1 -22.6q0.5 0.85 0.5 2.55q0 8.2 -4.75 51.85q6.1 -8.9 15.75 -21.65q21.2 -28.05 32.25 -40.2q0.8 1.2 1 1.9q0 1.9 -23.75 33.45q15.9 40.95 15.9 45.5q-0.2 0 -0.7 0.4q-7.15 -16.45 -20.9 -53.5q-12.8 -34.4 -14.75 -43.15q-5 44.8 -7.8 57q-2.5 -2.15 -2.5 -6.35q0 -5.25 4.85 -43.65q-0.15 -0.55 -0.15 -2.15q0 -2.85 4.85 -10.8q4 -0.15 11.85 1.55q13.15 2.85 20.95 6.15q9.65 4.1 15.2 8.25q5 3.8 9.3 9.75q10 13.95 12.2 21.4q1.55 5.1 1.55 19.1q0 27.45 -31.7 54.05q-12.05 10.05 -25 16.75q-12 6.2 -18.05 6.2q-3.3 0 -5.15 -0.9q-1.15 -0.85 -1.55 -2.2q0 -4.1 -1 -5.2q0.3 -0.45 1.8 -0.85q0.25 -12.45 2.65 -32.75q0.75 -6.7 4.55 -34.65q0 -23.25 1 -35.25q0 -4.3 0.3 -7.8q-2.15 -1.55 -2.15 -3.75q0 -1.7 2.95 -2.05q-10.5 -5.25 -19.65 -0.45q-33.2 10.2 -52 71.85q-7.1 23.25 -11 50.4q-3.25 22.9 -3.25 40.5q0 6.85 -0.4 13.9q-0.25 5.1 -0.05 7.35q0.35 4.25 7.2 28.25q1.65 5.95 7.9 14.2q6.15 8.05 14.55 15.5q19.85 17.65 34.05 17.65q48.35 0 64.25 -55.4q5 -17.3 6.1 -38.1q0 -13.75 -2.7 -42.95q-2.4 -25.5 -4.3 -38.05q-1.85 -12.1 -7.9 -25.9q-6.2 -14.1 -14.55 -24.95q-9.1 -11.85 -18.4 -16.45q4.6 20.35 6.2 46.05q1 15.8 1 41.05q0 21.45 -3.8 42.05q-4.2 22.45 -12.15 39.6q-19.05 40.95 -53.3 40.95q-22.3 0 -43.55 -20.3q-8.5 -8.1 -14.8 -17.75q-5.9 -8.95 -7.9 -16.05q-6.1 -21.4 -6.8 -30.15q-0.3 -3.75 -0.2 -10q0 -18.8 3.15 -42.55q4.15 -31.65 12.5 -57.6q23.4 -72.8 71.85 -78.95q35.25 23.6 47.55 77.9q0 3.4 -2.25 5.65q-38.6 2.2 -65.75 6.85q2.9 23.55 14.7 114.95q14.55 112.95 14.55 132.2q0 4.3 -3.3 19.95q-4.6 21.55 -11.65 39.7q-22.05 56.45 -58.55 56.45q-30 0 -41.5 -17.2q-6 -8.95 -6 -20.65q0 -4.05 1.75 -13.65q2.35 -13.1 5.75 -16.75q0.55 1.5 0.55 3.3q0 2.4 2.05 6.05q2.3 4.25 6.25 7.85q10.5 9.7 26.2 9.7q35.05 0 58.25 -44.7q8.4 -16.2 13.45 -35.1q4.3 -15.85 4.3 -24.95q-13.65 -115.75 -13.65 -121q-0.45 -3.1 -0.55 -5.65q-29.25 5.3 -75.3 8.15q-1.5 -2.25 -1.5 -6q0 -4.15 3.6 -5.65q2.95 -1.25 11.8 -1.75q16.5 -1.2 33.35 -3.95q32.65 -5.4 60.5 -8.5q1.75 2.65 1.75 5.6q0.6 0.75 0.6 2.35q0 15.7 -2.9 58q1.85 -1 5.1 -2.3q7.65 -3.05 16.95 -5.45q16.1 -4.15 21.7 -2.65q4.05 -37.3 6.4 -51.25q1.25 3 1.25 9.75q0 8.15 -4.45 58.55q-5 57.35 -8.8 77.7q-0.15 -1.05 -0.15 -2.65q0 -8.85 5.9 -65.4q-4.25 1.2 -17.2 3.1q-18 5.5 -20.25 5.5q-3.95 52.95 -5.45 64.05q-0.65 -0.65 -1.75 -6.05q-1 -4.95 -1 -6.3q0 -13.5 5.2 -72.55q4.1 -46.9 5.55 -59.85q3.85 17.65 8.55 50.55q5.45 38.1 11.2 57.7q1.75 0.8 2.25 2.65q0.2 0.7 0.2 3q15 51.45 15 64.05q0 3.95 -2.25 6.5q-2.3 -11 -11.55 -44.35q-19.2 0.2 -25.9 -1.7q-9.8 36.35 -17.1 57.25q-1.2 -1.4 -1.65 -3.05q-0.35 -1.3 -0.35 -3.45q0 -3 12.65 -48.4q7.95 -28.55 13.6 -47.6q0 -1.3 0.15 -2.1q6.6 -20.4 15.15 -57.9q7.65 -33.85 11.85 -49.7q0 -2 0.4 -3.55q0.45 -1.6 1.2 -2.2q1.75 3.95 1.75 7.15q-11.05 46.25 -16.95 64.9q-18.25 -70 -21.75 -106.8q-2.7 12.55 -8.15 35.25q0 15 -9 97.1q-1.3 -2.6 -1.75 -5.25q1.35 1.45 6.45 5.75q1.8 1.45 1.8 4.4q0 1.7 -0.5 2.75q-2.6 -0.9 -3.25 -2.8q-0.25 -0.75 -0.25 -3.45q4.6 -47.85 4.6 -80.6q0 -7.95 2.5 -9.65q0 5.8 0.65 17.15q-2.5 0 -4 1q0 -2.2 -4.2 -5.95q-4 -3.55 -5.55 -3.55q-24.4 0 -39.25 32.25q-4.85 10.6 -7.95 23.15q-2.3 9.35 -2.3 12.5q0.2 12.6 2.45 19.75q2.85 8.95 9.75 13.35q7.8 4.9 21.75 4.9q15.8 0 27.15 -18.95q3.4 -5.7 6.9 -14.05q0.2 0.25 0.2 1.8q0 1.75 -2.4 8.9q-3 8.85 -7.05 16.6q-12.15 23.25 -26.8 23.25q-32 0 -38.25 -26.45q-2.15 -9.05 -1.7 -23.45q0.95 -15.4 0.95 -21.6q0 -13.95 3.15 -23.25q2.2 -6.45 12.35 -26.25q5.7 -11.1 14.75 -17.85q8.15 -6.05 16.9 -7.2q8.35 -1.1 13.85 2.7q5.75 3.95 5.75 11.75q0 2.5 -0.25 2.6q-11.45 -11.9 -34.95 -16.65q0 22.65 -3.05 68.05q-2.15 32.2 -4.3 45.85q10.4 0 33 -14.45q20.1 -12.85 25.75 -20.05q2.2 -2.9 8.4 -18.35q6.35 -15.85 6.35 -19.15q0 -7.15 -5.5 -17.15q-5 -9 -12.25 -16.6q2.25 2.3 3.65 5.2q1.1 2.2 1.1 3.2q-1.55 -4.7 -2.35 -5.8q-3.2 -4.7 -9.9 -4.7q-24.4 0 -30 32.5q-1.05 6.15 -1.4 12.5q1.45 -0.75 4.05 -1.35q4.4 -1.05 34.85 -5.4q1.4 0.8 1.9 1.65q0.6 0.95 0.6 2.75q0 3.75 -2.5 4.6q-20.8 0.65 -26.45 1.9q-4.8 2 -10.55 3.6q0 7.05 0.85 14.3q0 7.3 2.75 15.4q4.3 12.7 13 12.7q18.1 0 28.15 -9.55q7.85 -7.45 7.85 -16.45q0 1.55 -1.15 5.75q-1.7 6.1 -4.55 11.15q-8.95 15.7 -25.8 15.7q-16.1 0 -22 -17.95q-1.85 -5.7 -2.5 -12.7q-0.25 -2.9 -0.25 -6.45q0 -29.5 3.75 -46.3q6 -27.3 22 -29.35q10.8 -1.6 17.5 5.25<g id="2033" transform="matrix(1, 0, 0, 1, 367.6, 92.5)">
<path style="fill:#000000;fill-opacity:1" d="M-365.1,-89.1L-365.6 -87.25L-365.85 -86.75L-367.2 -86.95Q-367.6 -87.2 -367.6 -88.85L-367.35 -92.5L-366.6 -92.5Q-365.65 -91.55 -365.1 -89.1M542.25,6.75L543.5 9Q544 10.3 544 12Q544 16.85 500.3 22.5L483.1 24.4L483.25 26.75L482.25 37.05L481.25 47.35Q481.25 57.45 483.15 75.9Q485.2 96.4 485.5 104.75L485.5 164L487.5 176.75L487.5 227.75Q488 229.25 488.5 232.25L488.5 273.35Q489.75 292.1 490.5 329.25L490.5 348.25Q489.9 365.85 487 370.6Q484.1 367.1 484.4 361.85Q485.4 355.8 485.5 352.85L485.5 300.35Q485 296.6 484.5 289.1Q484 281.6 483.5 277.85L483.5 236.75L482.5 232.25L482.5 180.5L481.6 174.5Q481.05 170.6 480.5 168.5L480.5 104Q481.9 93.45 479.55 75.9Q476.75 54.8 476.75 47.75Q476.75 35.35 477.05 31.85Q477.4 27.95 478.25 24.95L447 28.5L404.5 28.25Q396.2 24.4 395 23.7Q394 23.1 394 21.1Q394 17.35 395.05 16.4Q397.2 14.65 404.5 17.25L448 17.25L536 7L536 6.5L542.25 6.75M392,140.85Q392 147.75 401.15 151.65Q404 152.9 421.25 157.45Q434.95 161.1 441.35 165.85Q450.5 172.6 450.5 184.35Q450.5 187.2 446.6 192.25Q442.4 197.6 436 202.5Q419.45 215.25 402 215.25Q384.85 215.25 373 208.05Q364.15 202.7 361.5 196.25L361.2 196L362.75 195.75Q364 195.75 363.8 194.75Q363.6 193.75 364.85 193.75L377.65 200.15Q390.6 206.5 392.5 206.5Q412.25 206.5 431.3 196.25Q437.9 192.7 442.8 188.75Q447 185.4 447 184.35Q447 176.3 437.85 171.75Q433.35 169.45 417.75 165.35Q403.7 161.6 397.65 157.6Q388.5 151.5 388.5 140.85Q388.5 132.65 397.05 127.45Q404.5 122.9 415.9 121.9Q426.7 120.95 434.7 123.6Q443.25 126.45 443.25 132L443 135Q442.75 135 442.5 135.3L442 135.75Q441.55 135.7 435 132.45Q428.6 129.25 427 129.25Q404 129.25 396.05 134Q392 136.45 392 140.85M328.55,129.65L329.75 138L329.75 191.25L330 196.85Q330 211.75 320.25 293.1Q319.1 291.9 318.45 288.9Q318 286.7 318 284.85Q318 271.45 322.15 235.9Q326.25 200.35 326.25 166.5L326.25 146.25L324.75 136.7Q323.25 128.35 323.25 127.1Q323.25 125.2 323.9 123.45Q324.5 121.7 325.25 121.5Q327.55 124.2 328.55 129.65M452.8,225.05L453 225Q454.35 222.3 456.25 221.5L457.4 223.55Q457.75 224.6 457.75 226.35Q457.75 231.35 444.15 292.9Q429.6 358.55 427.5 375.1Q427.3 375.1 426.8 375.5L425.5 376.1Q422.25 363 418.45 341.85L412.05 307.1Q403.6 265.4 389.25 237.75Q386.6 262.6 380.55 307.35Q373.9 356.35 371.5 377.1L370.5 377.35Q369.5 372.35 369.5 366.1Q369.5 356.3 377.45 298Q385.65 237.8 389.5 223Q402.1 262.75 409.35 289.4Q419.3 326.1 424.5 356.35Q424.8 356.35 425.1 356.75L425.5 357.35Q432.15 318.55 437.55 292.35Q444.9 256.6 453.25 227.25L453 226.75L452.55 226.75L452.8 225.05M358.35,321.55L358.5 310.75Q358.5 307.5 355.5 305.85L353.5 306.1L356.45 301.3Q356.8 300.8 360 299.35Q361.75 301.45 361.75 305L361.5 319.3Q360.65 334.4 357.55 346.65Q347.75 385.1 319 385.1Q293.8 385.1 284.8 369.35Q280.5 361.85 280.5 350.6Q280.5 342.55 282.4 323.15Q284.45 302.35 286 299.1Q287.5 299.95 287.8 300.35Q288.25 301 288.25 302.75L285.75 313.9Q283.25 324.4 283.25 333.5L283.2 343.45Q283.5 351.7 285.55 357.9Q291.65 376.6 312.75 376.6Q343.8 376.6 354.25 344.15Q357.5 333.95 358.35 321.55M337.5,394.55Q338 395.4 338 397.1Q338 405.3 333.25 448.95Q339.35 440.05 349 427.3Q370.2 399.25 381.25 387.1Q382.05 388.3 382.25 389L382.5 391.6Q382.5 393.5 358.75 425.05L350.6 435.85L369.85 485.5Q385.75 526.45 385.75 531L385.5 535.1Q385.3 535.1 384.8 535.5L383.5 536.1Q376.35 519.65 362.6 482.6Q349.8 448.2 347.85 439.45L332.05 460.1Q327.05 504.9 324.25 517.1Q321.75 514.95 321.75 510.75Q321.75 505.5 326.6 467.1L323.5 471.1L323.15 470.25Q323 469.7 323 468.1Q323 465.25 327.85 457.3L336.25 393.35L337.5 394.55M454.7,394.65Q458.7 394.5 466.55 396.2Q479.7 399.05 487.5 402.35Q497.15 406.45 502.7 410.6Q507.7 414.4 512 420.35Q522 434.3 524.2 441.75Q525.75 446.85 525.75 460.85Q525.75 488.3 494.05 514.9Q482 524.95 469.05 531.65Q457.05 537.85 451 537.85Q447.7 537.85 445.85 536.95L445.5 537.35L445.05 536.5Q443.9 535.65 443.5 534.3Q443.5 530.2 442.5 529.1Q442.8 528.65 444.3 528.25Q444.55 515.8 446.95 495.5Q447.7 488.8 451.5 460.85Q451.5 437.6 452.5 425.6L452.35 408.3Q452.35 404 452.65 400.5Q450.5 398.95 450.5 396.75Q450.5 395.05 453.45 394.7L454.25 391.6L454.7 394.65M248.9,28.7Q238.4 23.45 229.25 28.25Q196.05 38.45 177.25 100.1Q170.15 123.35 166.25 150.5Q163 173.4 163 191Q163 197.85 162.6 204.9Q162.35 210 162.55 212.25Q162.9 216.5 169.75 240.5Q171.4 246.45 177.65 254.7Q183.8 262.75 192.2 270.2Q212.05 287.85 226.25 287.85Q274.6 287.85 290.5 232.45Q295.5 215.15 296.6 194.35L296.75 177Q296.75 163.25 294.05 134.05Q291.65 108.55 289.75 96Q287.9 83.9 281.85 70.1Q275.65 56 267.3 45.15Q258.2 33.3 248.9 28.7M294.05,90.15Q298.65 110.5 300.25 136.2Q301.25 152 301.25 177.25Q301.25 198.7 297.45 219.3Q293.25 241.75 285.3 258.9Q266.25 299.85 232 299.85Q209.7 299.85 188.45 279.55Q179.95 271.45 173.65 261.8Q167.75 252.85 165.75 245.75Q159.65 224.35 158.95 215.6Q158.65 211.85 158.75 205.6L159 191.35Q159 172.55 162.15 148.8Q166.3 117.15 174.65 91.2Q198.05 18.4 246.5 12.25Q281.75 35.85 294.05 90.15M159.25,9.1Q159.25 12.5 157 14.75Q118.4 16.95 91.25 21.6Q94.15 45.15 105.95 136.55Q120.5 249.5 120.5 268.75Q120.5 273.05 117.2 288.7Q112.6 310.25 105.55 328.4Q83.5 384.85 47 384.85Q17 384.85 5.5 367.65Q-0.5 358.7 -0.5 347Q-0.5 342.95 1.25 333.35Q3.6 320.25 7 316.6L8.7 319.7Q9.25 321.2 9.25 323L5 347Q5 349.4 7.05 353.05Q9.35 357.3 13.3 360.9Q23.8 370.6 39.5 370.6Q74.55 370.6 97.75 325.9Q106.15 309.7 111.2 290.8Q115.5 274.95 115.5 265.85L101.9 148.85Q88.25 33.1 88.25 27.85Q87.8 24.75 87.7 22.2L86.8 22.35Q57.55 27.65 11.5 30.5Q10 28.25 10 24.5Q10 20.35 13.6 18.85Q16.55 17.6 25.4 17.1L47.15 15.95Q63.65 14.75 80.5 12Q113.15 6.6 141 3.5L143.05 3.4L157.5 3.5Q159.25 6.15 159.25 9.1M110.4,394.65Q111 395.4 111 397Q111 412.7 108.1 455Q109.95 454 113.2 452.7Q120.85 449.65 130.15 447.25Q146.25 443.1 151.85 444.6Q155.9 407.3 158.25 393.35Q159.5 396.35 159.5 403.1Q159.5 411.25 155.05 461.65Q150.05 519 146.25 539.35L143.75 539.35L143.4 537.5Q143.25 536.45 143.25 534.85Q143.25 526 149.15 469.45L150.95 452.75Q146.7 453.95 133.75 455.85Q115.75 461.35 113.5 461.35L107.7 460.65L106.7 474.3Q102.75 527.25 101.25 538.35Q100.6 537.7 99.5 532.3Q98.5 527.35 98.5 526Q98.5 512.5 103.7 453.45Q107.8 406.55 109.25 393.6L110.4 394.65M224,312.85Q227.85 330.5 232.55 363.4Q238 401.5 243.75 421.1L247.55 433.6Q249.3 434.4 249.8 436.25Q250 436.95 250 439.25L249.85 441.2L259.25 471.8Q274.25 523.25 274.25 535.85Q274.25 539.8 272 542.35Q269.7 531.35 260.45 498L246.1 445.45L239.3 445.65L230 446.35L217 446.35Q197.8 446.55 191.1 444.65L180.1 484.6Q170.3 520.95 163 541.85Q161.8 540.45 161.35 538.8Q161 537.5 161 535.35Q161 532.35 173.65 486.95Q181.6 458.4 187.25 439.35Q187.25 438.05 187.4 437.25L187.75 435.1L188.55 435.1L193.5 419.1Q200.1 398.7 208.65 361.2Q216.3 327.35 220.5 311.5Q220.5 309.5 220.9 307.95Q221.35 306.35 222.1 305.75L222.25 305.1Q224 309.05 224 312.25L224 312.85M213.2,362.45Q202.15 408.7 196.25 427.35L193.65 435.85L231 434.35L243.1 434Q224.85 364 221.35 327.2Q218.65 339.75 213.2 362.45M299.5,422.5Q299.5 437.5 290.5 519.6L290.5 527.35L296.8 527.55L303.5 528.1L336 527.85L344.25 526.35L354.25 524.85Q352.95 522.25 352.5 519.6Q353.85 521.05 358.95 525.35Q360.75 526.8 360.75 529.75Q360.75 531.45 360.25 532.5L359 534.35L348.75 534.85L343.45 535.9L335 537.35L290 537.35Q287.4 536.45 286.75 534.55Q286.5 533.8 286.5 531.1L291.15 483.85Q295.75 436 295.75 403.25Q295.75 395.3 298.25 393.6Q298.25 399.4 298.9 410.75L299.5 422.5M81,410.6Q78.5 410.6 77 411.6L76.7 411.35L76.75 409.6Q76.75 407.4 72.55 403.65Q68.55 400.1 67 400.1Q42.6 400.1 27.75 432.35Q22.9 442.95 19.8 455.5Q17.5 464.85 17.5 468L17.3 492.1Q17.5 504.7 19.75 511.85Q22.6 520.8 29.5 525.2Q37.3 530.1 51.25 530.1Q67.05 530.1 78.4 511.15Q81.8 505.45 85.3 497.1L89 488.6L89.55 489.05Q89.75 489.3 89.75 490.85Q89.75 492.6 87.35 499.75Q84.35 508.6 80.3 516.35Q68.15 539.6 53.5 539.6Q21.5 539.6 15.25 513.15Q13.1 504.1 13.55 489.7Q14.5 474.3 14.5 468.1Q14.5 454.15 17.65 444.85Q19.85 438.4 30 418.6Q35.7 407.5 44.75 400.75Q52.9 394.7 61.65 393.55Q70 392.45 75.5 396.25Q81.25 400.2 81.25 408Q81.25 410.5 81 410.6M504.75,421.85Q493.3 409.95 469.8 405.2L456.05 402.15L455.25 401.85L455.5 413.75Q455.5 436.4 452.45 481.8Q450.3 514 448.15 527.65L449 527.6Q459.4 527.6 482 513.15Q502.1 500.3 507.75 493.1Q509.95 490.2 516.15 474.75Q522.5 458.9 522.5 455.6Q522.5 448.45 517 438.45Q512 429.45 504.75 421.85M422.5,404.1Q424.75 406.4 426.15 409.3Q427.25 411.5 427.25 412.5L426.95 415.3L426.25 417.35L425.75 417.6Q424.2 412.9 423.4 411.8Q420.2 407.1 413.5 407.1Q389.1 407.1 383.5 439.6Q382.45 445.75 382.1 452.1Q383.55 451.35 386.15 450.75Q390.55 449.7 421 445.35Q422.4 446.15 422.9 447Q423.5 447.95 423.5 449.75Q423.5 453.5 421 454.35Q400.2 455 394.55 456.25Q389.75 458.25 384 459.85L381.9 459.45Q381.9 466.5 382.75 473.75Q382.75 481.05 385.5 489.15Q389.8 501.85 398.5 501.85Q416.6 501.85 426.65 492.3Q434.5 484.85 434.5 475.85L435.25 475.6L435.5 479Q435.5 480.55 434.35 484.75Q432.65 490.85 429.8 495.9Q420.85 511.6 404 511.6Q387.9 511.6 382 493.65Q380.15 487.95 379.5 480.95Q379.25 478.05 379.25 474.5Q379.25 445 383 428.2Q389 400.9 405 398.85Q415.8 397.25 422.5 404.1" />
</g>
</svg>
