<?xml version="1.0" encoding="utf-8"?>
<svg version="1.1" id="Layer_1"
xmlns="http://www.w3.org/2000/svg"
xmlns:xlink="http://www.w3.org/1999/xlink"


xml:space="preserve">
q2.85 59.75 0.7 118.5q-0.6 14.95 -2.25 29.8q-1.9 16.35 3.55 28.6q37.8 2 77 0.5q1.15 -0.85 1.65 -2.2q2 -5.7 -0.45 -11.25q-0.35 -0.35 -0.8 -0.45q-26.55 -4.4 -54.45 -1.3q3.4 -26.9 3.75 -55.05q0.7 -59.8 -4.8 -118.45q-3.4 2.75 -3.1 8.25q-48 1.4 -94.95 1.5q-2.15 5.45 1 9.75q20.35 2.3 40.75 2.75q-2.6 45.2 -2.25 91.2q0.2 30.2 -3.7 59.8q-1.9 14.05 5.2 21.2q5.3 -31.25 5.7 -64.25q0.75 -54.55 -3.15 -107.95q25.7 0.45 51.4 -2q3.1 -5.9 -0.65 -11.15q-18.95 10.45 -25.6 31.85q-6.6 21.25 -2.7 43.1q4.15 23.55 27.95 26.1q22.15 2.45 36.3 -14.1q14.2 -16.55 12.55 -39.05q-1.55 -20.7 -13.55 -37.75q-3.1 -4.3 -7.15 -7.3q-4.6 -3.15 -10.2 -4.4q-4.5 -1 -9.15 -0.95q14.6 14.75 8.85 37.65q-5.9 23.6 -29.5 26.75q-24.8 2.95 -32.05 -20.1q-6.65 -21.3 6.7 -39.75q15.25 -21.1 36.5 -10q5.45 2.95 9.5 5.45q-5.8 14.2 -4.25 30.95q1.15 2.6 3.75 2q3.85 -16.3 0.25 -32.15q-3.35 25.3 22.45 27.5q29.9 -43.15 16.5 -100.25q-7.55 29.05 -6.05 59q-2.05 29.6 -23.85 18.55q-3.7 -1.95 -6.05 -5.8<g id="2042" transform="matrix(1, 0, 0, 1, -135.35, 0)">
<path style="fill:#000000;fill-opacity:1" d="M341.2,183Q346.7 241.65 346 301.45Q345.65 329.6 342.25 356.5L362.95 353.45Q390.85 350.35 417.4 354.75Q417.85 354.85 418.2 355.2L418.65 356Q421.1 361.55 419.1 367.25Q418.6 368.6 417.45 369.45Q378.25 370.95 340.45 368.95L340.1 368.2L340.1 368.15Q334.65 355.9 336.55 339.55Q338.2 324.7 338.8 309.75Q340.95 251 338.1 191.25Q337.8 185.75 341.2 183M233.1,196.15L232.45 197Q206.75 199.45 181.05 199Q184.95 252.4 184.2 306.95Q183.8 339.95 178.5 371.2Q171.4 364.05 173.3 350Q177.2 320.4 177 290.2Q176.65 244.2 179.25 199Q158.85 198.55 138.5 196.25Q135.35 191.95 137.5 186.5Q184.45 186.4 232.45 185Q236.2 190.25 233.1 196.15M279.75,273.4Q284.4 273.35 288.9 274.35Q294.5 275.6 299.1 278.75L302.75 276.55Q306.8 279.55 309.9 283.85Q321.9 300.9 323.45 321.6Q325.1 344.1 310.9 360.65Q296.75 377.2 274.6 374.75Q250.8 372.2 246.65 348.65Q242.75 326.8 249.35 305.55Q256 284.15 274.95 273.7L279.75 273.4M296.1,291.1Q274.85 280 259.6 301.1Q246.25 319.55 252.9 340.85Q260.15 363.9 284.95 360.95Q308.55 357.8 314.45 334.2Q320.2 311.3 305.6 296.55Q301.55 294.05 296.1 291.1M227.2,245.4L226.7 246.25Q224.1 246.85 222.95 244.25Q221.4 227.5 227.2 213.3L227.45 213.25Q231.05 229.1 227.2 245.4M190.5,341.2Q192.85 345.05 196.55 347Q218.35 358.05 220.4 328.45Q218.9 298.5 226.45 269.45Q239.85 326.55 209.95 369.7Q184.15 367.5 187.5 342.2L190.5 341.2" />
</g>
</svg>
