<?xml version="1.0" encoding="utf-8"?>
<svg version="1.1" id="Layer_1"
xmlns="http://www.w3.org/2000/svg"
xmlns:xlink="http://www.w3.org/1999/xlink"


xml:space="preserve">
q1.85 10.45 3.15 15.9q3.9 16.3 5 24.7q1.05 8 1 20.55q0 51.75 -0.9 68.7q-2.05 38.4 -10.1 69.15q-5.9 20.25 -14.85 34.5q-7 10.2 -16.55 17.35q-19.35 13.4 -24.7 13.4q-4 0 -5.9 -5.8q-3.25 -2.65 -3.25 -11.85q0 -1.95 3.15 -24.4q4.15 -29.85 6.85 -53.15q10 -85.65 10 -153.45q0 -28 -1 -42.25q-0.65 -8.05 -0.85 -22.8q0 -25.85 1 -38.6q0.3 -3.2 2.55 -4.3q1.45 -1.8 4.5 -1.65q5.6 0.3 14.7 7.1q21.45 16.1 40.25 48.75q8.65 12.5 12.95 31.65q-4.45 -18.3 -12.2 -31q-12.65 -20.55 -36.8 -39.05q-10.8 -7.9 -14.4 -10.85q-1 11.25 -1 34.85q0 22.9 1 34.15q1 15 1 46.35q0 41.2 -1.1 65.3q-0.95 21.9 -3.55 44q-4.45 33.7 -8.5 69.65q1 1.05 1.7 2.6q55.2 -23.6 75.3 -61.6q7.2 -13.7 12.2 -33.6q4.85 -22.4 7.75 -33.3q4.3 -16 7.8 -62q3.2 -41.6 3.2 -68.75q-0.25 -11.4 -1.6 -19.9q-1.15 -7.15 -5.15 -23.85q-3.75 -20.1 -6.3 -30.5q3.8 4.45 3.8 11.4q0 5 -2.25 7.9q-1.95 -0.85 -2.95 -3.1q-1.45 -5.4 -6.05 -5.4q-14.95 0 -20.05 22q-1.7 7.3 -2.5 18.25q-0.85 9.7 -1.15 27.35q-0.35 19.65 -0.85 27.4q-1.3 19.2 -5.55 55.05q-3.85 32.9 -5.35 50.8q17.55 0 31.7 -7.2q3.75 -1.9 4.5 -1.15q0.8 0.95 0.8 7.6q0 3.8 -0.5 4.55q-1.2 1.7 -6.5 1.7q-2.55 0 -5.6 1.15q-9.4 3.7 -22.2 3.75q-8.2 98.9 -8.2 119.65q0.1 8.5 1.6 15.35q4.75 21.5 21.55 21.5q18.75 0 30.7 -32.7q3.7 -10.2 6.45 -22.8q1.75 4.4 1.75 12.4q0 2.1 -2.1 11.4q-2.75 12.3 -6.6 22.7q-11.95 32.25 -28.55 32.25q-24 0 -30 -28.5q-1.9 -8.95 -1.75 -19.9q0 -22.6 3.5 -65.2q3.5 -42.6 3.5 -66.05q0 -21.9 9.4 -91.4q9.5 -70.2 9.6 -77.6q0.45 -30.55 4 -84.75q1.65 -23.5 7.25 -42q3.5 -11.2 9.35 -17.1q5.2 -5.15 11 -5.2q5.4 -0.05 9.1 4.25q-0.45 1.85 -2.65 3.65q-0.65 -0.8 -1.65 -3.45q-3.1 -6.05 -8.45 -6.05q-8.8 0 -13.45 15.75q-3.25 11.05 -3.7 25.5q-0.15 5.9 0.3 10.65q1.55 15 8.95 15q4.15 0 8.75 -8.45q1.5 -13.4 3 -22.4q-3.4 0.15 -6.2 0.95q-0.5 -3 -0.5 -4.9q0 -3.25 3.2 -5.75q2.95 -2.3 7.05 -2.95q4.2 -0.65 7.05 0.9q3.2 1.75 3.2 5.7q0 8.35 -4.45 37.4q-4.15 27.25 -5.3 30.35q-1.75 -3.75 -1.75 -11.65q0 -3.85 0.35 -9.05q-5.35 11.95 -10.1 11.95q-12.65 0 -15.2 -21q-0.8 -6.6 -0.5 -14.55q-0.55 -19.95 -0.45 -26.8q0.2 -9.7 3.7 -32.05q3.1 -19.75 9.25 -29.25q5.2 -8 11.7 -7.55q5.7 0.35 10.05 6.55q4.25 6.1 4.25 13.25q0.5 -1.2 1.8 -2.9q2.35 1.9 3.5 7.1q0.75 3.4 0.75 6q0 11.15 -5.9 69.9q-6.05 60.15 -8.85 73.6q-10.25 -24.2 -16.7 -64.8q-3.05 -19.15 -6.3 -32.45q-2.05 19.2 -4.95 58.2q-3.4 34.45 -10.55 58.15q-1.7 -0.65 -2.6 -3.4q-0.65 -2.05 -0.65 -4.2q0 -6.35 5.2 -35.4q0.5 -5.6 1 -16.85q0.5 -11.25 1 -16.9q1.5 -11.05 4.45 -15.9q5.1 19.85 12 68.95q6.3 44.8 13.75 68.9q1.2 -17.85 6.45 -72.3q4.8 -50.2 4.8 -52.2q0 -1.25 -1 -3.9q-1 -2.7 -1 -3.95q0 -1.85 0.45 -3.1q4.45 1.65 5.95 6.6q0.8 2.55 0.8 6.75q0 4 -1.75 7.15q-0.9 -0.8 -2.55 -5.2q-1.2 -3.3 -3.95 -3.3q-17.65 0 -26.95 43q-4.65 21.55 -5.8 43.1q0 6.65 2.55 16.2q3.75 14.2 10.45 14.2q7.75 0 12.6 -9.05q1.35 -2.95 2.55 -4.45q-2.75 -3.35 -2.75 -6.75q0 -3.5 1.7 -4.6q4.15 -2.7 18.05 -0.15q1.15 0.85 3 12.9q1.75 11.5 1.75 16.2q0 1.7 0.85 7.1q0.3 4.95 -2.6 6.65q-1.05 -1.3 -1.9 -3.15q-6.5 13.5 -10.55 13.5q-14.75 0 -19.95 -20.8q-1.65 -6.5 -2.15 -14.4q0 -3.45 2.15 -22.45q2.35 -20.5 3.85 -27.4q0.8 -3.7 1.85 -13.25q0.85 -8.25 2.3 -12.85q4.45 -14.45 22.1 -23.15q0.15 -1 0.45 -1.1q7.55 5.65 16.2 27.2q7.75 19.35 14.9 47.7q6.75 26.65 10.9 52.9q4.25 26.55 4.25 42.7q0 16.55 -3.3 40q-2.7 19.35 -6.95 38.75q-5.65 25.85 -23.85 52.15q-8.15 11.85 -15.95 18.8q-8.25 7.4 -14.05 7.4q-23.75 0 -36.7 -14.65q-4.3 -4.85 -7.65 -11.65q-3.75 -7.4 -5.25 -17.85q-1.9 -18.1 -6.2 -39q-2.8 -13.75 -2.8 -31.9q0 -17.35 5.2 -47.55q5.8 -33.35 6.55 -47.3q2.65 -46.4 24.75 -69.85q18 -19.15 43.6 -19.15q1.45 0 1.55 -0.9q-26.9 8.4 -40.5 19.45q-11.2 9.1 -14.85 21.45q-1.9 6.5 -2.6 22.25q-0.65 14.2 -3.9 21.85q-2 14.65 -7.1 43.9q-4.15 26.05 -4.15 43.85q0 12.35 3.7 32.65q4.55 24.95 5.3 32.6q1.05 10.25 4.4 16.8q5.45 10.5 12.65 18.4q11.85 12.95 24.1 12.95q39.15 0 57.35 -68.6q5.9 -22.3 8.85 -49.3q1.9 -17.5 1.9 -26.85q0 -16.7 -4.55 -43.35q-4.4 -25.9 -11.4 -51.4q-7.35 -26.85 -15 -43.45q-8.5 -18.4 -15.3 -19.4q-0.4 2.15 -2.05 2.15q2.05 13.4 3.9 30q8.65 53.75 12.55 95.35q4.45 46.95 4.45 93.5q0 29.05 -0.7 42.75q-0.85 17.75 -4.3 48.75q-1.55 14.2 -4.35 23.3q-4 13.1 -11.9 22.45q-9.9 7.8 -19.7 14.4q-30.65 20.6 -46.8 20.6q-20.25 0 -26.75 -20q-2.05 -6.25 -2.5 -13.9q0 -6.85 2 -16.4q2 -9.55 2 -18.1q0 -3.55 1.75 -5.65q3.7 1.6 5 4.85q0.75 1.95 0.75 5.65q0 4.45 -3.5 15q-3.5 10.6 -3.5 15q0 8.3 2.75 15.8q4.5 12.2 14.5 12.2q24.7 0 53.85 -18.9q9.4 -6.1 18.05 -13.4q7.25 -8.35 10.15 -21.2q2.3 -14.4 4.6 -21.55q3.75 -26.25 4.6 -45.75q0.4 -9.15 0.4 -39.75q0 -42.45 -4.85 -92.9q-4.45 -46.4 -12.15 -91.45q-3 -20.25 -3 -33.75q0 -3.3 0.15 -6q-1.75 -2.1 -1.75 -6q0 -1.95 0.55 -3.75q0.6 -1.9 1.7 -3q48.25 -5 54.05 -6.6q1 0.85 39.7 0.85q2.85 -0.2 4.1 0.05q3.25 0.75 3.25 7.1q0 3.1 -0.2 4q0 35.6 -1.95 75.35q-2.6 51.55 -6.8 55.25q-1.75 -4.5 -1.75 -13.5q0 -27.65 2.5 -68.05q2.8 -45.25 6.25 -58.8q1.75 3.5 1.75 9.75q0.65 -1.8 1.6 -2.35q11.3 30.25 22.55 76q4.5 -17.1 10.6 -45.1q3.95 8.55 5.85 23.4q2.4 18.8 4.15 25.35q2.1 7.7 5.25 24.1q3.35 14.75 8.75 24.4q6 -16 9.1 -37.5q0.9 -6.1 4.15 -38.5q1.6 -14.5 5.85 -37.45q1.9 1.55 2.7 3.95q0.55 1.55 0.55 3.05q-6.3 35.15 -7.6 47.65q-2.95 28.45 -5.05 40.75q-3.9 22.35 -11.2 40.25q-9.5 -17.9 -15.9 -44.55q-1.1 -4.65 -9.1 -45.45q-5.55 33.7 -19.75 82.5q-5.1 -6.7 -8.25 -19.95q-1.35 -6.15 -2.65 -9.8q-2.85 -8.1 -5.95 -20.2q-4.2 -14.85 -12 -46.5q-8.1 -32.65 -8.1 -35.25q0 -1.9 0.65 -3.65q2.9 21.55 4.55 32.45q1.75 2.65 1.75 5.65q0 1.8 -0.55 3.25q3.05 15.15 12.2 48.35q9 32.7 9 33.25q0 1.8 -0.55 3.25q-12 -29.1 -20.5 -77.85q-13.75 52.3 -19.1 68.8q-2 -0.5 -2.55 -2.55q-0.2 -0.75 -0.2 -3.05q0 -2.5 8.75 -34.25q-0.3 -2.2 -0.3 -3.9q0 -4.5 0.25 -5.05q0.5 -1.2 2.95 -1.8q6.95 -28.2 10.4 -39.45q6.9 -22.3 15.6 -38.05q4.45 15.7 8 42.2q-3.95 -22.65 -7.95 -38.25q-9.25 23.2 -19.4 60.45<g id="2034" transform="matrix(1, 0, 0, 1, -0.75, 0)">
<path style="fill:#000000;fill-opacity:1" d="M512.3,96.9L515.45 113.1Q517.3 123.55 518.6 129L530.4 176.7Q534.3 193 535.4 201.4Q536.45 209.4 536.4 221.95L536.1 257.25Q536.1 309 535.2 325.95Q533.15 364.35 525.1 395.1L516.45 429.6Q510.55 449.85 501.6 464.1L491.15 481.25Q484.15 491.45 474.6 498.6L451.55 515.45Q432.2 528.85 426.85 528.85Q422.85 528.85 420.95 523.05L420.85 523.85Q417.6 521.2 417.6 512Q417.6 510.05 420.75 487.6Q424.9 457.75 427.6 434.45Q437.6 348.8 437.6 281Q437.6 253 436.6 238.75L436.6 176.5Q435.95 168.45 435.75 153.7L435.6 138.6Q435.6 112.75 436.6 100L436.6 21.25L437.3 15.3Q437.6 12.1 439.85 11L439.9 11.05Q441.35 9.25 444.4 9.4Q450 9.7 459.1 16.5Q480.55 32.6 499.35 65.25Q508 77.75 512.3 96.9M507.8,104Q503.35 85.7 495.6 73Q482.95 52.45 458.8 33.95Q448 26.05 444.4 23.1L442.4 21.4L441.1 27L441.1 103.5Q440.1 114.75 440.1 138.35Q440.1 161.25 441.1 172.5L441.1 234.75Q442.1 249.75 442.1 281.1Q442.1 322.3 441 346.4Q440.05 368.3 437.45 390.4L430.9 440.4Q426.45 474.1 422.4 510.05Q423.4 511.1 424.1 512.65L425.35 516.35Q480.55 492.75 500.65 454.75Q507.85 441.05 512.85 421.15Q517.7 398.75 520.6 387.85Q524.9 371.85 528.4 325.85Q531.6 284.25 531.6 257.1L531.5 223.45Q531.25 212.05 529.9 203.55Q528.75 196.4 524.75 179.7L514.1 134.5Q510.35 114.4 507.8 104M415.3,23.7Q419.1 28.15 419.1 35.1Q419.1 40.1 416.85 43Q414.9 42.15 413.9 39.9L412.65 35.65Q411.2 30.25 406.6 30.25Q391.65 30.25 386.55 52.25Q384.85 59.55 384.05 70.5L383.1 85.25Q382.25 94.95 381.95 112.6Q381.6 132.25 381.1 140Q379.8 159.2 375.55 195.05Q371.7 227.95 370.2 245.85L373.1 245.75Q390.65 245.75 404.8 238.55Q408.55 236.65 409.3 237.4Q410.1 238.35 410.1 245Q410.1 248.8 409.6 249.55Q408.4 251.25 403.1 251.25Q400.55 251.25 397.5 252.4L391.35 255Q381.95 258.7 369.15 258.75L361.3 349.85Q353.1 448.75 353.1 469.5L352.95 477.75Q353.05 486.25 354.55 493.1Q359.3 514.6 376.1 514.6Q394.85 514.6 406.8 481.9Q410.5 471.7 413.25 459.1L415.35 448.1Q417.1 452.5 417.1 460.5Q417.1 462.6 415 471.9Q412.25 484.2 408.4 494.6Q396.45 526.85 379.85 526.85Q355.85 526.85 349.85 498.35Q347.95 489.4 348.1 478.45L348.6 468.75Q348.6 446.15 352.1 403.55Q355.6 360.95 355.6 337.5Q355.6 315.6 365 246.1Q374.5 175.9 374.6 168.5Q375.05 137.95 378.6 83.75Q380.25 60.25 385.85 41.75Q389.35 30.55 395.2 24.65Q400.4 19.5 406.2 19.45Q411.6 19.4 415.3 23.7M367,48.1Q366.55 49.95 364.35 51.75Q363.7 50.95 362.7 48.3L360.7 43.55Q357.6 37.5 352.25 37.5Q343.45 37.5 338.8 53.25Q335.55 64.3 335.1 78.75L333.9 103.3L333.1 119.6L332.85 125.1Q332.7 131 333.15 135.75Q334.7 150.75 342.1 150.75Q346.25 150.75 350.85 142.3L354.15 135.65L355.6 132.9Q357.1 119.5 358.6 110.5L358.6 110.25Q355.2 110.4 352.4 111.2L348.85 112L346.5 111.8L345.1 111Q344.6 108 344.6 106.1Q344.6 102.85 347.8 100.35Q350.75 98.05 354.85 97.4Q359.05 96.75 361.9 98.3Q365.1 100.05 365.1 104Q365.1 112.35 360.65 141.4Q356.5 168.65 355.35 171.75Q353.6 168 353.6 160.1Q353.6 156.25 353.95 151.05Q348.6 163 343.85 163Q331.2 163 328.65 142Q327.85 135.4 328.15 127.45L328.6 120.6Q328.05 100.65 328.15 93.8Q328.35 84.1 331.85 61.75Q334.95 42 341.1 32.5Q346.3 24.5 352.8 24.95Q358.5 25.3 362.85 31.5Q367.1 37.6 367.1 44.75L367 48.1M347.05,193.9Q347.55 192.7 348.85 191Q351.2 192.9 352.35 198.1Q353.1 201.5 353.1 204.1Q353.1 215.25 347.2 274Q341.15 334.15 338.35 347.6Q328.1 323.4 321.65 282.8L316.65 249.7Q313.6 230.55 310.35 217.25Q308.3 236.45 305.4 275.45Q302 309.9 294.85 333.6Q293.15 332.95 292.25 330.2Q291.6 328.15 291.6 326Q291.6 319.65 296.8 290.6L302.6 258.25Q303.1 252.65 303.6 241.4Q304.1 230.15 304.6 224.5L306.9 207.15Q308.4 196.1 311.35 191.25Q316.45 211.1 323.35 260.2Q329.65 305 337.1 329.1L337.35 329.35Q338.55 311.5 343.8 257.05Q348.6 206.85 348.6 204.85Q348.6 203.6 347.6 200.95Q346.6 198.25 346.6 197Q346.6 195.15 347.05 193.9M317.35,21.25Q321.8 22.9 323.3 27.85Q324.1 30.4 324.1 34.6Q324.1 38.6 322.35 41.75Q321.45 40.95 319.8 36.55Q318.6 33.25 315.85 33.25Q298.2 33.25 288.9 76.25Q284.25 97.8 283.1 119.35Q283.1 126 285.65 135.55Q289.4 149.75 296.1 149.75Q303.85 149.75 308.7 140.7L312.05 133.5Q313.4 130.55 314.6 129.05L314.6 114.25L298.35 113.75Q295.6 110.4 295.6 107Q295.6 103.5 297.3 102.4Q301.45 99.7 315.35 102.25Q316.5 103.1 318.35 115.15Q320.1 126.65 320.1 131.35L319.65 137.95L319.1 146Q319.1 147.7 319.95 153.1Q320.25 158.05 317.35 159.75Q316.3 158.45 315.45 156.6L314.6 154.5L314.6 141.55L311.4 148.5Q304.9 162 300.85 162Q286.1 162 280.9 141.2Q279.25 134.7 278.75 126.8L278.6 120.1Q278.6 116.65 280.75 97.65Q283.1 77.15 284.6 70.25Q285.4 66.55 286.45 57Q287.3 48.75 288.75 44.15Q293.2 29.7 310.85 21L317.35 21.25M219.4,15.35Q219.55 14.35 219.85 14.25Q227.4 19.9 236.05 41.45Q243.8 60.8 250.95 89.15Q257.7 115.8 261.85 142.05Q266.1 168.6 266.1 184.75Q266.1 201.3 262.8 224.75Q260.1 244.1 255.85 263.5Q250.2 289.35 232 315.65Q223.85 327.5 216.05 334.45Q207.8 341.85 202 341.85Q178.25 341.85 165.3 327.2Q161 322.35 157.65 315.55L153.75 306.85Q150 299.45 148.5 289L146.75 271Q144.85 252.9 140.55 232Q137.75 218.25 137.75 200.1Q137.75 182.75 142.95 152.55Q148.75 119.2 149.5 105.25Q152.15 58.85 174.25 35.4Q192.25 16.25 217.85 16.25Q219.3 16.25 219.4 15.35M215.35,27.25Q188.45 35.65 174.85 46.7Q163.65 55.8 160 68.15Q158.1 74.65 157.4 90.4Q156.75 104.6 153.5 112.25Q151.5 126.9 146.4 156.15Q142.25 182.2 142.25 200Q142.25 212.35 145.95 232.65Q150.5 257.6 151.25 265.25L152.35 281.45Q153.4 291.7 156.75 298.25Q162.2 308.75 169.4 316.65Q181.25 329.6 193.5 329.6Q232.65 329.6 250.85 261Q256.75 238.7 259.7 211.7Q261.6 194.2 261.6 184.85Q261.6 168.15 257.05 141.5Q252.65 115.6 245.65 90.1Q238.3 63.25 230.65 46.65Q222.15 28.25 215.35 27.25M180.05,20.6Q179.65 22.75 178 22.75L176.55 22.6L177 22.25L150.5 20.25L111.5 23.55L101.25 24.6Q103.3 38 105.15 54.6L109.25 95.25L109.25 168.75Q117.9 222.5 121.8 264.1Q126.25 311.05 126.25 357.6Q126.25 386.65 125.55 400.35Q124.7 418.1 121.25 449.1Q119.7 463.3 116.9 472.4Q112.9 485.5 105 494.85L96.5 501.85Q86.6 509.65 76.8 516.25Q46.15 536.85 30 536.85Q9.75 536.85 3.25 516.85Q1.2 510.6 0.75 502.95L0.75 496.25Q0.75 489.4 2.75 479.85Q4.75 470.3 4.75 461.75Q4.75 458.2 6.5 456.1Q10.2 457.7 11.5 460.95Q12.25 462.9 12.25 466.6Q12.25 471.05 8.75 481.6Q5.25 492.2 5.25 496.6Q5.25 504.9 8 512.4Q12.5 524.6 22.5 524.6Q47.2 524.6 76.35 505.7Q85.75 499.6 94.4 492.3L102 485.35Q109.25 477 112.15 464.15Q114.45 449.75 116.75 442.6Q120.5 416.35 121.35 396.85Q121.75 387.7 121.75 357.1Q121.75 314.65 116.9 264.2Q112.45 217.8 104.75 172.75L104.75 98.5L99.75 64.75Q96.75 44.5 96.75 31Q96.75 27.7 96.9 25L72 28L13.5 28.75Q11.75 26.65 11.75 22.75Q11.75 20.8 12.3 19Q12.9 17.1 14 16L73.5 15.5Q121.75 10.5 127.55 8.9Q128.55 9.75 167.25 9.75L172.9 9.45Q175.75 9.25 177 9.5Q180.25 10.25 180.25 16.6Q180.25 19.7 180.05 20.6M287.1,197Q287.1 232.6 285.15 272.35Q282.55 323.9 278.35 327.6Q276.6 323.1 276.6 314.1Q276.6 286.45 279.1 246.05Q281.9 200.8 285.35 187.25Q287.1 190.75 287.1 197M198.4,349.2Q199.05 347.4 200 346.85Q211.3 377.1 222.55 422.85L241.1 500.1L241.6 500.35Q246.1 483.25 252.2 455.25L262.35 409.1Q266.3 417.65 268.2 432.5Q270.6 451.3 272.35 457.85Q274.45 465.55 277.6 481.95Q280.95 496.7 286.35 506.35Q292.35 490.35 295.45 468.85Q296.35 462.75 299.6 430.35Q301.2 415.85 305.45 392.9L312.6 354.6L313.85 353.85Q315.75 355.4 316.55 357.8Q317.1 359.35 317.1 360.85L311.2 394.95Q304.9 430.1 303.6 442.6Q300.65 471.05 298.55 483.35Q294.65 505.7 287.35 523.6Q277.85 505.7 271.45 479.05Q270.35 474.4 262.35 433.6L262.1 433.1Q256.55 466.8 242.35 515.6Q237.25 508.9 234.1 495.65L231.75 484.9Q230.4 478.75 229.1 475.1Q226.25 467 223.15 454.9L217.85 434.6Q213.65 419.75 205.85 388.1Q197.75 355.45 197.75 352.85Q197.75 350.95 198.4 349.2M189.5,389.3Q192.4 410.85 194.05 421.75L199.5 421.1Q201.25 423.75 201.25 426.75Q201.25 428.55 200.7 430L199 432.85L195.9 433.15Q198.95 448.3 208.1 481.5Q217.1 514.2 217.1 514.75Q217.1 516.55 216.55 518L214.85 520.85Q202.85 491.75 194.35 443L192.8 433.5L174.55 436.55L156.6 439.8Q142.85 492.1 137.5 508.6Q135.5 508.1 134.95 506.05Q134.75 505.3 134.75 503Q134.75 500.5 143.5 468.75L152.05 437.5Q151.75 435.3 151.75 433.6Q151.75 429.1 152 428.55Q152.5 427.35 154.95 426.75L155.5 424.6Q162.45 396.4 165.9 385.15Q172.8 362.85 181.5 347.1Q185.95 362.8 189.5 389.3M187.7,403.6Q183.75 380.95 179.75 365.35Q170.5 388.55 160.35 425.8L190.9 422.1L187.7 403.6" />
</g>
</svg>
