<?xml version="1.0" encoding="utf-8"?>
<svg version="1.1" id="Layer_1"
xmlns="http://www.w3.org/2000/svg"
xmlns:xlink="http://www.w3.org/1999/xlink"


xml:space="preserve">
q-3.15 -28.2 -35.6 -23q-24.25 4.6 -39.95 23.3q-24.65 29.25 -33.25 66.9q-13.05 57.35 -5 116.05q8.2 59.4 56.15 93.85q24.5 17.6 50.85 2.5q25.35 -14.6 20.7 -41.15q-1.05 -1.2 -2.55 -1.45q-4.75 20.5 -28.25 28.55q-10.15 3.5 -20.5 0.05q-39.85 -13.35 -55.3 -52.7q-22 -56.05 -14.55 -116.65q5 -40.55 27.45 -75.5q26.3 -40.8 74.15 -30.2q1.75 2.25 3.1 4.7q1.25 2.4 3.65 2.5q0.45 65 -53.5 100q-5.25 3.4 -11.1 4.3q-43.15 6.3 -59.2 -33.65q-5.5 -13.7 -7.75 -28.15q-9.25 -59.1 12.8 -116.35q17.7 -46 59.15 -70.4q1.5 -0.15 3 0q0.15 2.7 2.2 4.55q5.5 5 10.7 10.7q41.35 45.05 38.8 107.75q-0.45 10.6 -0.35 21q-4.5 -58.15 -48.95 -95.85q-1.15 -0.2 -2.05 1.05q-4.45 -1.45 -9.05 -2.55q-33.55 14.55 -51.7 48.75q-12.9 24.2 -21.1 50.75q-17.9 58.35 -3.55 116.95q10.4 42.2 49.2 58.65q7.7 3.3 15.7 0.7q49.8 -16.2 65.6 -64.7q8.6 -26.3 10.5 -53.8q2.1 -29.85 -0.2 -59.45q20.95 1.3 41.6 6.9q-0.4 36.4 -2.7 72.75q-0.95 14.6 2.2 28.95q9.05 -20.5 7.6 -46.25q-22.55 -6.3 -46.35 -2.9q-39.3 -7.15 -80.25 -4.4q-46.5 3.15 -92.7 -0.6q-1.8 0.55 -2.05 2.85q0 1.25 0.9 2.25q31.5 6.25 64.2 3.75q-0.7 26.6 2.95 53.85q5.5 41.25 12.55 82.25q8.8 51.3 2.05 102.8q-1 7.65 -4.5 14.35q-16.25 31.25 -52.4 40q-7.15 1.7 -14.1 -1q-33.55 -13.2 -47.95 -47.15q-7.25 -17.1 -17.3 -27.8q-1.6 1.9 -0.95 4.25q8.6 30.25 27.35 57.1q8.3 11.85 20.2 19.75q32.6 21.6 65.6 -3.5q6.1 -4.7 10.85 -10.6q25 -31.15 23.25 -72.55q-2.2 -51.85 -9.75 -102.9q31.75 0.25 63.1 4.3q1.65 -1.9 1.95 -4.5q-0.25 -1.25 -1 -2.25<g id="2040" transform="matrix(1, 0, 0, 1, -26.15, 0)">
<path style="fill:#000000;fill-opacity:1" d="M482.45,116L481.45 116.2Q479.05 116.1 477.8 113.7Q476.45 111.25 474.7 109Q426.85 98.4 400.55 139.2Q378.1 174.15 373.1 214.7Q365.65 275.3 387.65 331.35Q403.1 370.7 442.95 384.05Q453.3 387.5 463.45 384Q486.95 375.95 491.7 355.45L491.5 354.9L489.8 352.95L490 352.55L490.7 351.95L491 351.8L493.35 351.55Q494.85 351.8 495.9 353L496.45 353.7Q501.1 380.25 475.75 394.85Q449.4 409.95 424.9 392.35Q376.95 357.9 368.75 298.5Q360.7 239.8 373.75 182.45Q382.35 144.8 407 115.55Q422.7 96.85 446.95 92.25Q479.4 87.05 482.55 115.25L482.45 116M342.4,262.25Q344.95 199.55 303.6 154.5Q298.4 148.8 292.9 143.8Q290.85 141.95 290.7 139.25L285.45 139Q283.95 138.85 282.45 139Q241 163.4 223.3 209.4Q201.25 266.65 210.5 325.75Q212.75 340.2 218.25 353.9Q234.3 393.85 277.45 387.55Q283.3 386.65 288.55 383.25Q342.5 348.25 342.05 283.25Q341.95 272.85 342.4 262.25M347.6,286.55Q345.7 314.05 337.1 340.35Q321.3 388.85 271.5 405.05Q263.5 407.65 255.8 404.35Q217 387.9 206.6 345.7Q192.25 287.1 210.15 228.75Q218.35 202.2 231.25 178Q249.4 143.8 282.95 129.25Q287.55 130.35 292 131.8L292.45 131.75Q293.35 130.5 294.5 130.7L298.45 131.25Q342.9 168.95 347.4 227.1Q349.7 256.7 347.6 286.55M460.35,300.8Q484.15 297.4 506.7 303.7L510.55 369.95Q512 395.7 502.95 416.2Q499.8 401.85 500.75 387.25Q503.05 350.9 503.45 314.5L498.55 312.9Q477.9 307.3 456.95 306L455.95 301.5L460.35 300.8M212.95,96.5L213.2 98L213.4 99.5L213.45 101L213.4 101.75Q213.1 104.35 211.45 106.25Q180.1 102.2 148.35 101.95L164.3 210.8Q171.85 261.85 174.05 313.7Q175.8 355.1 150.8 386.25Q146.05 392.15 139.95 396.85Q106.95 421.95 74.35 400.35Q62.45 392.45 54.15 380.6Q35.4 353.75 26.8 323.5Q26.15 321.15 27.75 319.25Q37.8 329.95 45.05 347.05Q59.45 381 93 394.2Q99.95 396.9 107.1 395.2Q143.25 386.45 159.5 355.2Q163 348.5 164 340.85Q170.75 289.35 161.95 238.05Q154.9 197.05 149.4 155.8Q145.75 128.55 146.45 101.95L101.95 103.5Q69.25 106 37.75 99.75Q36.85 98.75 36.85 97.5L36.8 96L36.75 94.5L36.8 93L36.9 92.25Q37.15 89.95 38.95 89.4L39 89.25Q85.2 93 131.7 89.85Q172.65 87.1 211.95 94.25Q212.7 95.25 212.95 96.5" />
</g>
</svg>
