<?xml version="1.0" encoding="utf-8"?>
<svg version="1.1" id="Layer_1"
xmlns="http://www.w3.org/2000/svg"
xmlns:xlink="http://www.w3.org/1999/xlink"


xml:space="preserve">
q-5.55 -11.8 -13.8 -22.1q-18.55 -23.15 -49.4 -24.7q1.2 57.9 3.2 116.6q1.3 37.3 1.7 74.75q13.2 -4.5 24.5 -11.1q30.05 -17.6 46.85 -49.95q21.4 -41.25 1.5 -83.85q-9 48.75 -47.6 75.1q18.6 8.6 28.7 29.1q26.7 54.2 24.2 114.95q-1.1 26 -8.85 51.1q-12.5 40.55 -51.7 55.15q-10.25 3.8 -20.6 2.05q-1.1 4.05 -2.85 7.95q-3.2 -3.95 -3.95 -9.1q-3.2 -2.15 -3.45 -5.95q-0.3 -4.15 1.7 -7.55q7.15 1.65 14.25 2.45q3.55 -12.45 2.85 -25.75q-3.15 -59.6 -1.7 -119.15q0.85 -36.85 1.15 -73.65q-0.65 -1.45 -0.7 -3q0.05 -1.55 0.45 -3q-0.2 -59.9 -3.85 -119.2q-1.2 -19.9 3.2 -37.25q-0.85 -1.4 -1.1 -3.05q-0.05 -1.65 0.75 -3q7.85 -2.7 16 -3q61 4.65 78 63.5q7.95 27.55 2.7 55.75q7.6 6.5 7.85 21q1.1 59.3 4.6 118.5q3.55 59.75 1.3 119.3q-2.3 60.7 -22.9 117.6q-8.05 22.2 -26 35.95q-17.75 13.5 -33.75 -2.45q-12.65 -12.7 -17.6 -30.5q-15.6 -56.85 -9.3 -116.8q3.15 -29.8 3.15 -59.85q0.05 -59.7 3.9 -118.6q2.8 -42.45 6.05 -84.65q0.45 -5.95 3.2 -9.75q-1.95 58.25 -5.25 117.75q-3.25 59.4 -4.8 119.25q-1.3 48.05 0.75 95.9q1.5 35.5 16.85 67.6q9 18.8 29.2 12.3q14.15 -4.55 20.55 -18.2q25.45 -54.4 29.15 -114.3q3.65 -59.4 0.15 -119.3q-3.5 -59.15 -7.4 -118.4q-0.95 -15.1 -0.45 -30.1q0.05 -1.25 0.75 -2.25q-0.1 33 0.3 66q19.65 0.95 39.05 -4.65q8.45 -2.4 14.35 -9.2q30.75 -35.5 31.95 -83.45q1.55 -62.35 -30.8 -114.75q-9.4 -15.2 -25.35 -20.25q-7.45 4.35 -15.8 7.95q-6.8 2.95 -13.35 4.35q-0.65 0.5 -1.1 0.35q-3.1 -0.8 -5.4 -3.4q-2.35 -2.6 -4.25 -5.45q-28.1 -22.8 -61.45 -10.05q-8.75 3.4 -15.4 10.7q-24.05 26.45 -29.3 61.85q-8.35 56.05 -6.85 113.5q1.6 59.8 13.25 118.1q12.1 60.45 42.7 114.3q8.05 14.15 21.05 24.05q32.75 10.85 53.55 -17.55q8.15 -11.1 19.2 -18.45q-1.45 18.45 -18.4 32.6q-31.9 26.75 -59.3 -3.45q-21.75 -23.9 -33.6 -54.45q-22.1 -56.9 -30.2 -117.3q-7.8 -58.4 -5.8 -117.95q1.9 -57.3 17.35 -112.15q11.9 -42.15 51.15 -58.3q14.85 -0.85 28.6 4.45q13.3 6.45 25 15.25q8.85 6.65 7.75 16.5q0.3 38.15 -0.25 76.3q0.45 1.8 0.1 3.7q-0.35 2 -1.35 3.8q-1.25 44.7 1.05 89.2q2.1 40.9 -1.9 81q-5.75 -11.75 -4.75 -29.05q2.1 -37 2.4 -74.2q-46.6 -3.8 -92 4.45q0.3 29.8 1.45 59.6q2.2 56.4 -1.95 111.7q-0.05 0.75 -0.65 1.5q-5.1 -8.15 -4.05 -21.6q4.45 -59.5 2.7 -119.1q0.05 -1.25 0.7 -2.25q-0.8 -40.05 -0.8 -80.2q0 -44.95 0.8 -90q0.05 -1.7 1.75 -1.75q3 59.2 1.9 119.25q-0.5 25.95 -0.3 51.85q24.5 -6.05 50.15 -9.35q0.05 -59.25 0.75 -118.5q0.2 -19.95 4.3 -38q3.3 12.95 1.55 29.65q-3.05 29.6 -2.8 59.85<g id="2044" transform="matrix(1, 0, 0, 1, -37.5, 0)">
<path style="fill:#000000;fill-opacity:1" d="M495.15,104.05Q489.6 92.25 481.35 81.95Q462.8 58.8 431.95 57.25L417.25 57.7Q418.45 115.6 420.45 174.3Q421.75 211.6 422.15 249.05Q435.35 244.55 446.65 237.95L446.8 237.85Q476.85 220.25 493.65 187.9Q515.05 146.65 495.15 104.05M506.65,166.75Q497.65 215.5 459.05 241.85Q477.65 250.45 487.75 270.95Q514.45 325.15 511.95 385.9Q510.85 411.9 503.1 437Q490.6 477.55 451.4 492.15Q441.15 495.95 430.8 494.2L420.55 492.5Q419.45 496.55 417.7 500.45Q414.5 496.5 413.75 491.35L402.45 489.45Q399.25 487.3 399 483.5Q398.7 479.35 400.7 475.95Q407.85 477.6 414.95 478.4Q418.5 465.95 417.8 452.65Q414.65 393.05 416.1 333.5Q416.95 296.65 417.25 259.85L412.7 260.25Q412.05 258.8 412 257.25L412 255Q412.05 253.45 412.45 252L417.3 250.6L417.35 214.25Q417.15 154.35 413.5 95.05Q412.3 75.15 416.7 57.8L410.45 58.75Q409.6 57.35 409.35 55.7L409.2 53.5Q409.15 51.85 409.95 50.5Q417.8 47.8 425.95 47.5Q486.95 52.15 503.95 111Q511.9 138.55 506.65 166.75M374.7,69.75Q382.3 76.25 382.55 90.75Q383.65 150.05 387.15 209.25Q390.7 269 388.45 328.55Q386.15 389.25 365.55 446.15Q357.5 468.35 339.55 482.1Q321.8 495.6 305.8 479.65Q293.15 466.95 288.2 449.15Q272.6 392.3 278.9 332.35Q282.05 302.55 282.05 272.5Q282.1 212.8 285.95 153.9Q288.75 111.45 292 69.25Q292.45 63.3 295.2 59.5Q293.25 117.75 289.95 177.25Q286.7 236.65 285.15 296.5Q283.85 344.55 285.9 392.4Q287.4 427.9 302.75 460Q311.75 478.8 331.95 472.3Q346.1 467.75 352.5 454.1Q377.95 399.7 381.65 339.8Q385.3 280.4 381.8 220.5Q378.3 161.35 374.4 102.1Q373.45 87 373.95 72Q374 70.75 374.7 69.75M422.35,293.5L421.9 412.7Q421.8 445.7 422.2 478.7L422.2 479Q441.85 479.95 461.25 474.35Q469.7 471.95 475.6 465.15Q506.35 429.65 507.55 381.7Q509.1 319.35 476.75 266.95Q467.35 251.75 451.4 246.7Q443.95 251.05 435.6 254.65Q428.8 257.6 422.25 259L422.35 293.5M172.25,77.5Q171.6 78 171.15 77.85Q168.05 77.05 165.75 74.45Q163.4 71.85 161.5 69L160.95 68.65L158.5 68Q130.4 45.2 97.05 57.95Q88.3 61.35 81.65 68.65Q57.6 95.1 52.35 130.5Q44 186.55 45.5 244Q47.1 303.8 58.75 362.1Q70.85 422.55 101.45 476.4Q109.5 490.55 122.5 500.45Q155.25 511.3 176.05 482.9Q184.2 471.8 195.25 464.45Q193.8 482.9 176.85 497.05L168.4 504.1Q136.5 530.85 109.1 500.65Q87.35 476.75 75.5 446.2Q53.4 389.3 45.3 328.9Q37.5 270.5 39.5 210.95Q41.4 153.65 56.85 98.8Q68.75 56.65 108 40.5Q122.85 39.65 136.6 44.95L139.5 45.75Q152.8 52.2 164.5 61Q173.35 67.65 172.25 77.5M255.7,185.75Q256 223.9 255.45 262.05L256.95 262L258.3 263.6L258.95 265L259.2 265.75Q259.65 267.55 259.3 269.45Q258.95 271.45 257.95 273.25L255.3 273L254.55 305Q253.3 349.7 255.6 394.2Q257.7 435.1 253.7 475.2Q247.95 463.45 248.95 446.15Q251.05 409.15 251.35 371.95L251.9 272.7Q205.3 268.9 159.9 277.15Q160.2 306.95 161.35 336.75Q163.55 393.15 159.4 448.45Q159.35 449.2 158.75 449.95Q153.65 441.8 154.7 428.35Q159.15 368.85 157.4 309.25L156.65 277.75L154 278.25L153.75 277.5L153.55 276.7L153.5 276L153.5 275.25L153.5 274.5L153.55 273Q153.6 271.75 154.25 270.75L156.5 270.2Q155.7 230.15 155.7 190Q155.7 145.05 156.5 100Q156.55 98.3 158.25 98.25Q161.25 157.45 160.15 217.5Q159.65 243.45 159.85 269.35Q184.35 263.3 210 260L211.95 259.75L251.9 262.05L251.9 252.75Q251.95 193.5 252.65 134.25Q252.85 114.3 256.95 96.25Q260.25 109.2 258.5 125.9Q255.45 155.5 255.7 185.75" />
</g>
</svg>
