<?xml version="1.0" encoding="utf-8"?>
<svg version="1.1" id="Layer_1"
xmlns="http://www.w3.org/2000/svg"
xmlns:xlink="http://www.w3.org/1999/xlink"


xml:space="preserve">
q-3.5 18.75 -2.8 40.35q0.8 24.3 -20.65 33.85q-24.2 10.9 -32.55 -11.3q-4.3 -11.35 -1.05 -23.4q5.55 -20.45 -2.7 -38.25q-7.15 26.6 -8.5 54.3q-1.45 29.9 28.4 35.55q31.95 5.9 40.15 -26.4q5.4 -21.4 3.55 -43.55q-0.9 -10.75 -3.85 -21.15q1.05 -3.15 0.35 -6.5q-0.3 -1.55 -1.35 -2.95q-1.65 0.9 -2 3.25q-0.4 2.6 0.15 5.35q0.25 1.2 0.65 2.2q-3.15 73.25 -7.3 146.75q-0.5 9.5 2.2 18.6q11.35 -87.7 5.45 -176.05q1 -1.15 1.45 -2.5q6.05 -15.95 1.4 -32.6q-11.85 15.05 -1.6 32.8q-4.4 35.15 -6.45 70.9q-0.4 6.5 -3.05 12.6q-6.05 15.45 9 21.4q4.7 1.75 9.75 1.35q15.85 -34.65 10.65 -74.7q-1.6 -12.2 -2.9 -24.3<g id="2043" transform="matrix(1, 0, 0, 1, -149.1, 0)">
<path style="fill:#000000;fill-opacity:1" d="M381.3,290.6Q383.15 312.75 377.75 334.15Q369.55 366.45 337.6 360.55Q307.75 354.9 309.2 325Q310.55 297.3 317.7 270.7Q325.95 288.5 320.4 308.95Q317.15 321 321.45 332.35Q329.8 354.55 354 343.65Q375.45 334.1 374.65 309.8Q373.95 288.2 377.45 269.45Q380.4 279.85 381.3 290.6M254.7,194.25L205.9 193.9Q211.8 282.25 200.45 369.95L198.25 363.45Q195.55 354.35 196.05 344.85L196.25 340.65Q200.4 267.15 203.55 193.9L150.3 192.2Q149.9 191.2 149.65 190Q149.1 187.25 149.5 184.65Q149.85 182.3 151.5 181.4L164.95 179.6L255.15 182.3Q256.2 183.7 256.5 185.25Q257.2 188.6 256.15 191.75Q255.7 193.1 254.7 194.25M251.85,248.55Q241.6 230.8 253.45 215.75Q258.1 232.4 252.05 248.35L251.85 248.55M254.35,293.5Q259.55 333.55 243.7 368.2Q238.65 368.6 233.95 366.85Q218.9 360.9 224.95 345.45L235.7 352.7L241.95 352.7Q244.6 346.6 245 340.1Q247.05 304.35 251.45 269.2Q252.75 281.3 254.35 293.5" />
</g>
</svg>
