<?xml version="1.0" encoding="utf-8"?>
<svg version="1.1" id="Layer_1"
xmlns="http://www.w3.org/2000/svg"
xmlns:xlink="http://www.w3.org/1999/xlink"


xml:space="preserve">
q-1.55 -22.95 -24.6 -30.45q-22.4 -7.1 -40.2 7.9q-14.85 12.5 -23.2 30.1q-7.9 16.7 -13.35 34.1q-6.15 19.5 -9.75 39.8q-3.3 18.65 -5.35 37.4q-2.35 21.15 -3.35 42.4q-0.7 14.85 -0.4 29.7q0.3 14.8 1.2 29.55q0.95 14.85 2.65 29.6q1.7 14.95 4.15 29.8q3.4 20.35 11.45 39.2q9.1 21.4 29.7 29.35q21.2 8.25 39.1 -5.35q17.7 -13.5 25.2 -34.85q7.1 -20.3 5.3 -41.75q9.5 -51.15 3.05 -106.2q-2.55 4.45 -1.6 9.45q14 3.45 29.55 1.8q-3.05 23.1 -20.25 40.3q-23.85 23.8 -49.55 3.1q-8.6 -6.95 -14.15 -16.55q-4.45 -7.7 -6.8 -16.4q-4.85 -18.1 -8.45 -36.6q-2.85 -14.7 -4.7 -29.7q-1.85 -14.95 -2.55 -29.95q-0.85 -18.5 -0.4 -37.2q0.35 -14.5 1.1 -28.9q0.8 -14.5 2.1 -28.9q1.3 -14.35 3.15 -28.65q1.55 -11.95 3.65 -23.8q6.15 -34.75 20.85 -66.65q9.85 -21.35 32.2 -27.6q27.55 -7.6 44.95 14.65q1.35 1.75 3.6 0.85q2.4 59.35 -1.35 118.55q-3.8 59.2 -23.15 115.45q-8.2 23.75 -26.2 40.25q-21.25 19.55 -48.8 6q-5.5 -2.7 -7.3 -8.5q-17.4 -56.15 -14.35 -116.45q2.6 -51.75 3.95 -103.5q1.55 -59.8 3.7 -119.25q0.45 -11.2 2.3 -22.25q2.7 -15.85 0.95 -30.25q-11.3 45.3 -10.4 93.65q0.5 27.6 -0.5 55.4q-2.25 59.25 -5.15 118.6q-2.85 58.75 6.1 115.6q2.5 16.05 14.1 27.05q22.65 21.5 51.35 6.25q7.25 -3.9 11.75 -10.4q35.2 -50.55 43.65 -112.2q8 -58.6 6.75 -118.55q-0.35 -15 0.35 -29.95q0.7 -13.85 -6.2 -21.55q-4.6 3.85 -3.5 10.5q1.2 3.4 1.65 7.05q4.3 -7.95 -0.9 -14.9q-63.5 5 -125.2 13q-2.85 7.5 1.55 13.5q-2.15 21.4 -0.2 43.75q1.75 20.95 4.2 41.8q3.5 29.6 -2.45 58.35q-5.25 25.4 -32.55 28.9q-9.6 1.25 -18.8 -1.25q-21.2 -5.7 -28.6 -25.1q-6.8 12.45 1.6 25.55q15.55 24.35 44.35 20q27.6 -4.2 37.4 -29.1q10 -25.4 8 -52.8q-4.1 -55.75 -10.5 -110.35q16.25 -5.95 29.65 1.45q-0.45 -19.3 -22.45 -19.25q-38.95 16.45 -48.35 59.95q-4.7 21.7 -5.35 44.25q-1.65 55.7 29.45 100.15q3.7 5.35 10 6.5q24.85 4.55 38.85 -19q11.6 -19.55 2.6 -35.65q-1.3 0.85 -1.45 2.3q-1.65 15.7 -12.7 26q-24.65 22.9 -41.35 -5.35q-5.65 -9.55 -9.1 -20.15q-6.35 -19.45 -8.95 -39.85q-6.55 -50.95 24.8 -90.35q5.65 -7.15 14.1 -10.25q1.55 59.6 -1.3 118.6q-0.7 15.1 -3.7 29.65q-3.65 17.5 3.85 30q5.95 -47.9 7.25 -96.7q22.65 2.1 44.5 -3.55q-0.55 24.3 -1.65 48.55q-0.65 14.95 -2.7 29.75q-1.95 14.15 5.5 21.7q1.25 -1.25 1.35 -3q3.35 -46.3 5.05 -92.95q2.2 -60.05 -0.15 -118.5q-0.5 0.1 -0.55 0.35q-6.6 20.5 -6.35 43.35q0.25 27.3 -0.15 54.5q-22.4 4.65 -44.65 7.6q0.6 -48.8 -2.05 -97.05q-5.9 16.9 -5.35 37.95<g id="2058" transform="matrix(1, 0, 0, 1, -30.65, 0)">
<path style="fill:#000000;fill-opacity:1" d="M499.1,136.4Q481.7 114.15 454.15 121.75Q431.8 128 421.95 149.35Q407.25 181.25 401.1 216Q399 227.85 397.45 239.8Q395.6 254.1 394.3 268.45Q393 282.85 392.2 297.35Q391.45 311.75 391.1 326.25Q390.65 344.95 391.5 363.45Q392.2 378.45 394.05 393.4Q395.9 408.4 398.75 423.1Q402.35 441.6 407.2 459.7Q409.55 468.4 414 476.1Q419.55 485.7 428.15 492.65Q453.85 513.35 477.7 489.55Q494.9 472.35 497.95 449.25L496.5 450.15L497.25 443.45L498.85 441.35L501.5 432.75Q485.95 434.4 471.95 430.95L471.35 428.65Q470.4 423.65 472.95 419.2L514.8 415.95L515 416.25Q521.45 471.3 511.95 522.45L507.55 511.5L509.7 431.95L504.2 432.55L506.2 433.7Q508 455.15 500.9 475.45Q493.4 496.8 475.7 510.3Q457.8 523.9 436.6 515.65Q416 507.7 406.9 486.3Q398.85 467.45 395.45 447.1L390.5 417.15Q388.05 402.3 386.35 387.35Q384.65 372.6 383.7 357.75Q382.8 343 382.5 328.2Q382.2 313.35 382.9 298.5Q383.9 277.25 386.25 256.1Q388.3 237.35 391.6 218.7Q395.2 198.4 401.35 178.9Q406.8 161.5 414.7 144.8Q423.05 127.2 437.9 114.7Q455.7 99.7 478.1 106.8Q501.15 114.3 502.7 137.25Q500.45 138.15 499.1 136.4M355.75,123.4Q355.3 119.75 354.1 116.35L355.45 116Q354.35 109.35 358.95 105.5Q365.85 113.2 365.15 127.05Q364.45 142 364.8 157L367.45 276.25Q368.7 336.2 360.7 394.8Q352.25 456.45 317.05 507Q312.55 513.5 305.3 517.4Q276.6 532.65 253.95 511.15Q242.35 500.15 239.85 484.1Q230.9 427.25 233.75 368.5Q236.65 309.15 238.9 249.9Q239.9 222.1 239.4 194.5Q238.5 146.15 249.8 100.85L250.2 100.75Q251.95 115.15 249.25 131Q247.4 142.05 246.95 153.25Q244.8 212.7 243.25 272.5Q241.9 324.25 239.3 376Q236.25 436.3 253.65 492.45Q255.45 498.25 260.95 500.95Q288.5 514.5 309.75 494.95Q327.75 478.45 335.95 454.7Q355.3 398.45 359.1 339.25Q362.85 280.05 360.45 220.7L356.45 123.25L355.75 123.4M185.7,111.75L133.35 116.8Q139.75 171.4 143.85 227.15Q145.85 254.55 135.85 279.95Q126.05 304.85 98.45 309.05Q69.65 313.4 54.1 289.05Q45.7 275.95 52.5 263.5Q59.9 282.9 81.1 288.6Q90.3 291.1 99.9 289.85Q127.2 286.35 132.45 260.95Q138.4 232.2 134.9 202.6Q132.45 181.75 130.7 160.8Q128.75 138.45 130.9 117.05L61.5 123.25Q57.1 117.25 59.95 109.75L60.25 109Q121.95 101 185.45 96Q190.65 102.95 186.35 110.9L185.7 111.75M64.45,342.55Q33.1 381.95 39.65 432.9Q42.25 453.3 48.6 472.75Q52.05 483.35 57.7 492.9Q74.4 521.15 99.05 498.25Q110.1 487.95 111.75 472.25Q111.9 470.8 113.2 469.95Q122.2 486.05 110.6 505.6Q96.6 529.15 71.75 524.6Q65.45 523.45 61.75 518.1Q30.65 473.65 32.3 417.95Q32.95 395.4 37.65 373.7Q47.05 330.2 86 313.75Q108 313.7 108.45 333L108.2 333.75Q94.8 326.35 78.55 332.3Q70.1 335.4 64.45 342.55M136.45,310.75Q139.1 359 138.5 407.8Q160.75 404.85 183.15 400.2Q183.55 373 183.3 345.7Q183.05 322.85 189.65 302.35Q189.7 302.1 190.2 302Q192.55 360.45 190.35 420.5Q188.65 467.15 185.3 513.45Q185.2 515.2 183.95 516.45Q176.5 508.9 178.45 494.75Q180.5 479.95 181.15 465Q182.25 440.75 182.8 416.45Q160.95 422.1 138.3 420L138.05 429.2Q136.75 478 130.8 525.9L129.95 526.95Q122.45 514.45 126.1 496.95Q129.1 482.4 129.8 467.3Q132.65 408.3 131.1 348.7Q130.55 327.65 136.45 310.75" />
</g>
</svg>
