<?xml version="1.0" encoding="utf-8"?>
<svg version="1.1" id="Layer_1"
xmlns="http://www.w3.org/2000/svg"
xmlns:xlink="http://www.w3.org/1999/xlink"


xml:space="preserve">
q0 1.6 -20.25 49.45q-22.95 54.2 -31 78.05q-2.45 7.15 -6.55 17.1q0 3.7 1.55 11.65q1.75 8.75 1.95 11.6q0.75 9.8 3.55 22.8q2.1 9.7 5.95 23.7q5.25 18.85 11.55 46.25q7.55 35.1 16.3 82.2q14.95 80.6 14.95 104.2q0 2.95 -1.2 4.9q-1.55 2.45 -4.8 2.45q-4.4 0 -9.35 -34.9q-1.05 -7.7 -6.65 -57.1q-2.1 -18.1 -8.35 -45.2q-7.45 -30.8 -10.9 -46.3q-11.85 -47.1 -20.45 -84.65q-10.55 -46.05 -14.35 -73.3q-3.8 9.05 -13.85 38.55q-6.95 18.3 -12.25 23.2q-2.5 43.15 -5.85 86.15q-13.05 166.2 -29.8 166.2q-4.35 0 -5.45 -3.3q0 -4.7 9 -50.3q9.7 -49 11 -60.35q4.2 -35.4 6 -55.05q2.8 -30.5 3.25 -55.05q0.45 -6.4 5.05 -61.85q3.1 -37.45 4.2 -61.9q0.65 -19 1.4 -31.4q0.3 -4.6 1.55 -14.95q1.35 -10.7 1.7 -15.8q2.25 -17.2 7.55 -24.9q2.2 -3.2 3.65 -2.15q1.55 1.1 1.55 6.8q0 2.9 -4 39.6q-4.05 37.35 -4.25 45.15q-0.25 10.05 -2.05 42.1q-1.45 26.75 -1.45 42.65q14.15 -33.7 22.25 -54.1q0 -10.25 3.65 -7.45q4.05 -12.05 12 -33.25q10.4 -28.8 22.4 -47.55q5.8 -9 9.15 -10.35q3.7 -1.5 3.7 6.9q4.15 0.2 5.2 3.1q0.3 0.9 0.3 4.25q0 5.4 -3.8 40.5q-4 36.7 -4.2 40.9q-0.3 5.05 -1.25 40.55q-0.65 24.6 -3 40.45q-4.55 27.3 -6.55 40.65q-0.75 5.05 -2.95 23.85q-2 16.9 -3.55 26.2q-4.95 29.8 -12.75 29.8q-10.1 0 -12.5 -32.05q-0.8 -10.5 -1 -27.5q-3.2 -37.5 -3.2 -44.75q0 -2.65 -3.3 -37.7q-3.5 23.8 -5.4 60.75q-1.85 24.1 -3.55 39.4q-4.9 45.5 -11.3 45.5q-3.1 0 -4.2 -1.95q-0.55 -0.95 -0.55 -2.3q7.05 -66.2 7.6 -90.75q1.05 -54 4.3 -96.7q4.4 -58.3 10.95 -58.3q7.3 0 16.7 112.2q5.2 62.2 13.8 185.3q2.1 -17.85 12.55 -73.45q8.75 -46.5 9.95 -73.55q1.85 -43 3.8 -73.2q2.6 -39.85 6.2 -72.3q-4.15 -4.6 -0.4 -5.75q-11.6 -8.15 -19.65 -8.15q-21.25 0 -32 66.8q-5.35 33.45 -6.5 67.45q-0.25 5.35 1.35 9.4q4.9 12.7 26.45 12.7q17.95 0 42.15 -22.85q8.6 -8.15 15.5 -16.8q6.05 -7.7 6.35 -9.85q0 2.45 -3.2 10.55q-4.2 10.75 -10.55 19.8q-19.35 27.75 -49.25 27.75q-29.1 0 -37.2 -17.7q-2.6 -5.7 -2.85 -12.95q0 -24.1 2.3 -37.7q5.1 -30 7.2 -47.8q1.3 -12.3 3.9 -21.3q3.3 -11.45 9.6 -21.45q12.45 -19.9 38.45 -10.65q8.85 3.1 16.8 8.8q7 5 7 6.75q0 0.9 -1.25 2.6q-1.4 2 -2.75 2q-1.35 0 -4.95 -2.55q-0.85 1.05 -2.85 2.15q1.4 -1.4 2.65 -4.3q2.75 -5.95 7.75 -5.95q5 0 6 5.75q0.5 2.85 0 6q0 11.95 -4.75 86.3q-1.05 8.4 -2.8 64.8q-1.8 56.4 -6.2 92.05q-14.6 118 -66.5 118q-37.7 0 -45.2 -44.25q-2.4 -13.9 -1.45 -30.95q0 -8.2 1 -39.05q0 -39.05 1.2 -58.65q1.8 -20.4 1.35 -33.8q-0.25 -10.5 0.25 -33q1 -16.05 5.65 -24.9q1.9 -3.65 3.2 -2.95q1.4 0.75 1.4 6.35q0 21.75 -2.5 80.3q-2.5 58.5 -2.5 73.05q-1.5 14.15 -1.5 17.75q0 6.25 -1 18.75q0 3 0.25 4.5q1.85 12.45 2.8 33.9q0.7 16.9 0.7 35.35q-1 28.3 -1 36.95q-0.5 14.8 0.75 26.9q3.85 38.45 23.5 38.45q18.05 0 27.95 -4.45q8.8 -4 13.7 -12.95q3.2 -5.8 7.55 -20.65q5.15 -17.75 9.3 -27.7q5.25 -12.85 6.8 -32.8q0.85 -22.75 1.45 -33.2q1.35 -39.95 4.55 -66.15q1.3 -26.9 5 -82.45q3.65 -55.5 5 -83.3q0.35 0.5 0.35 1.95q0 1.55 -8.5 3.4q-11.3 2.5 -29.5 2.5q0 3.15 -1.65 9.6q-2.3 8.9 -6.3 16.3q-12.1 22.25 -34.8 22.25q-17.35 0 -27.5 -14q-3.25 -4.45 -5.3 -9.8q-1.45 -3.8 -1.45 -4.85q0 -5.85 1 -9.1q2 -6.45 7.75 -6.75q0.8 0.3 0.8 1.9q0 1.25 -1.1 4.7q-1.15 3.45 -1.15 4.7q0 1.75 1.1 4.9q1.45 4.3 4.15 7.85q7.85 10.5 22.75 10.5q17.6 0 26.3 -23.45q2.75 -7.45 4.25 -16.3q-1.9 -24.6 -1.9 -31.9q-1.5 -13.1 -1.5 -15.9q0 -23.9 4.5 -40.75q-0.25 -0.35 -0.25 -1.8q0 -2.25 2 -2.95q0 -0.4 12.05 0.25q0.7 -13.9 5.9 -15.85q2.05 -0.8 3.5 1.55q1.6 2.5 1.6 7.4q0 12.6 -6.3 98.1q-1 7.15 -2.7 34.35q-2.4 23.65 -7.8 23.65q-4.65 0 -5.5 -4.95q0 -9.2 2 -25.1q-4.65 1.35 -13.2 3.15q-18.35 3.75 -26 3.75q-0.9 17.85 -2 33.45q-4.4 63.2 -10.25 63.2q-3.75 0 -5 -2.35q-0.5 -0.95 -0.5 -2.65q0 -20.05 4.55 -73.45q4.3 -50.65 6.7 -64.55q0 -13.1 1.7 -34.05q1.2 -18.45 4.5 -22.2q1.3 -1.45 2.35 0.35q1 1.75 1.15 5.6q0 2.2 -1.85 17.6q-1.9 15.45 -1.9 18q9.85 -2.4 18.85 -3.95q15.6 -2.6 22.3 -1.45q0.8 -10.75 1.35 -27.45q1.15 -8.85 1.4 -13.9q-0.65 0.6 -2.15 0.6q-1.3 0 -2.5 -1.7q-3.6 -5.4 -9.95 -5.4q-29.05 16.4 -41.55 71.05q-8.2 35.8 -8.2 81.05q1.7 14.9 4.5 25.2q8.2 30.3 27.85 30.3q14.85 0 32.85 -26.55q10.75 -15.9 16.8 -30.45q0 2.45 -2.25 11.3q-3.1 12.2 -7.95 22.5q-15.1 31.95 -40.3 31.95q-31.2 0 -41.45 -54.2q-3.2 -16.95 -3.95 -37.35q0 -16.15 0.25 -24.4q2.05 -13.3 7.65 -37.25q6.45 -27.5 8.35 -37.6q3.7 -19.75 15.45 -34.15q10.2 -12.55 23.65 -18.05q12.6 -5.15 21.65 -1.85q9.5 3.4 9.5 14.3q0 2.5 -0.25 2.25<g id="2059" transform="matrix(1, 0, 0, 1, -12.5, 0)">
<path style="fill:#000000;fill-opacity:1" d="M531.25,20.25Q531.25 21.85 511 69.7Q488.05 123.9 480 147.75Q477.55 154.9 473.45 164.85L474.75 169.5Q474.75 173.2 476.3 181.15Q478.05 189.9 478.25 192.75Q479 202.55 481.8 215.55Q483.9 225.25 487.75 239.25Q493 258.1 499.3 285.5L509.75 332.1Q517.3 367.2 526.05 414.3Q541 494.9 541 518.5Q541 521.45 539.8 523.4Q538.25 525.85 535 525.85Q530.6 525.85 525.65 490.95Q524.6 483.25 519 433.85Q516.9 415.75 510.65 388.65Q503.2 357.85 499.75 342.35Q487.9 295.25 479.3 257.7Q468.75 211.65 464.95 184.4L452.75 211.5Q448.95 220.55 438.9 250.05Q431.95 268.35 426.65 273.25Q424.15 316.4 420.8 359.4Q407.75 525.6 391 525.6Q386.65 525.6 385.55 522.3L385.25 518.75Q385.25 514.05 394.25 468.45Q403.95 419.45 405.25 408.1Q409.45 372.7 411.25 353.05Q414.05 322.55 414.5 298L414.5 259.75Q414.95 253.35 419.55 197.9Q422.65 160.45 423.75 136L424.85 105.15Q425.5 86.15 426.25 73.75Q426.55 69.15 427.8 58.8Q429.15 48.1 429.5 43Q431.75 25.8 437.05 18.1Q439.25 14.9 440.7 15.95Q442.25 17.05 442.25 22.75Q442.25 25.65 438.25 62.35Q434.2 99.7 434 107.5Q433.75 117.55 431.95 149.6Q430.5 176.35 430.5 192.25L428.15 245.3L440.55 215.4Q454.7 181.7 462.8 161.3L462.75 159.5Q462.75 149.25 466.4 152.05L471.5 138Q475.55 125.95 483.5 104.75L496 71.25Q506.4 42.45 518.4 23.7Q524.2 14.7 527.55 13.35Q531.25 11.85 531.25 20.25M388.85,17L395 16.75Q399.15 16.95 400.2 19.85Q400.5 20.75 400.5 24.1Q400.5 29.5 396.7 64.6Q392.7 101.3 392.5 105.5Q392.2 110.55 391.25 146.05Q390.6 170.65 388.25 186.5L381.8 226.85Q377.25 254.15 375.25 267.5Q374.5 272.55 372.3 291.35Q370.3 308.25 368.75 317.55Q363.8 347.35 356 347.35Q345.9 347.35 343.5 315.3Q342.7 304.8 342.5 287.8L342.25 263.75L338.95 225.25Q335.75 187.75 335.75 180.5Q335.75 177.85 332.45 142.8L327.5 92L327.25 91.5Q323.75 115.3 321.85 152.25L318.5 213L315.85 247.95Q314 272.05 312.3 287.35Q307.4 332.85 301 332.85Q297.9 332.85 296.8 330.9Q296.25 329.95 296.25 328.6L303.15 263.5Q310.2 197.3 310.75 172.75Q311.8 118.75 315.05 76.05Q319.45 17.75 326 17.75Q333.3 17.75 342.7 129.95Q347.9 192.15 356.5 315.25L356.75 315.25Q358.85 297.4 369.3 241.8Q378.05 195.3 379.25 168.25Q381.1 125.25 383.05 95.05Q385.65 55.2 389.25 22.75Q385.1 18.15 388.85 17M358.05,373.05L350.4 367.5Q338.8 359.35 330.75 359.35Q309.5 359.35 298.75 426.15Q293.4 459.6 292.25 493.6L291.7 499.25Q291.45 504.6 293.05 508.65Q297.95 521.35 319.5 521.35Q337.45 521.35 361.65 498.5Q370.25 490.35 377.15 481.7Q383.2 474 383.5 471.85L384.25 471.6L384.45 472.25L384.5 474.25Q384.5 476.7 381.3 484.8Q377.1 495.55 370.75 504.6Q351.4 532.35 321.5 532.35Q292.4 532.35 284.3 514.65Q281.7 508.95 281.45 501.7L281.75 494.35Q281.75 470.25 284.05 456.65Q289.15 426.65 291.25 408.85Q292.55 396.55 295.15 387.55Q298.45 376.1 304.75 366.1Q317.2 346.2 343.2 355.45Q352.05 358.55 360 364.25Q367 369.25 367 371Q367 371.9 365.75 373.6Q364.35 375.6 363 375.6Q361.65 375.6 358.05 373.05M285.5,33.75Q284.65 34.8 282.65 35.9L279.5 37.25Q280.9 35.85 282.15 32.95L284.25 27.95Q287 22 292 22Q297 22 298 27.75Q298.5 30.6 298 33.75Q298 45.7 293.25 120.05L288 201.75L288 264Q286.95 272.4 285.2 328.8Q283.4 385.2 279 420.85Q264.4 538.85 212.5 538.85Q174.8 538.85 167.3 494.6Q164.9 480.7 165.85 463.65L167.25 448.5Q167.25 440.3 168.25 409.45L169.25 378.35L166.75 278.35Q166.75 239.3 167.95 219.7L172.25 144.5L175.15 111.55Q176.95 91.15 176.5 77.75Q176.25 67.25 176.75 44.75Q177.75 28.7 182.4 19.85Q184.3 16.2 185.6 16.9Q187 17.65 187 23.25Q187 45 184.5 103.55Q182 162.05 182 176.6L180.5 191.5Q179 205.65 179 209.25Q179 215.5 178 228L177 240.75Q177 243.75 177.25 245.25L177.25 309Q179.1 321.45 180.05 342.9Q180.75 359.8 180.75 378.25L179.75 411.05Q178.75 439.35 178.75 448L178 461.25Q177.5 476.05 178.75 488.15Q182.6 526.6 202.25 526.6Q220.3 526.6 230.2 522.15Q239 518.15 243.9 509.2Q247.1 503.4 251.45 488.55Q256.6 470.8 260.75 460.85Q266 448 267.55 428.05Q268.4 405.3 269 394.85L271.45 328.4Q272.8 288.45 276 262.25L276 200Q277.3 173.1 281 117.55Q284.65 62.05 286 34.25L285.5 33.75M132.25,17.5L132.65 18.15Q133 18.65 133 20.1Q133 21.65 124.5 23.5Q113.2 26 95 26L92.2 25.75L91.25 25.5L85.2 25.4L85.5 36L84.5 47.25L83.5 58.5L91.25 161.6Q91.25 164.75 89.6 171.2Q87.3 180.1 83.3 187.5Q71.2 209.75 48.5 209.75Q31.15 209.75 21 195.75Q17.75 191.3 15.7 185.95Q14.25 182.15 14.25 181.1Q14.25 175.25 15.25 172Q17.25 165.55 23 165.25L24.95 165.7Q25.75 166 25.75 167.6Q25.75 168.85 24.65 172.3Q23.5 175.75 23.5 177Q23.5 178.75 24.6 181.9Q26.05 186.2 28.75 189.75Q36.6 200.25 51.5 200.25Q69.1 200.25 77.8 176.8Q80.55 169.35 82.05 160.5L83 152.75L81.15 127.65Q79.25 103.05 79.25 95.75L77.75 82Q76.25 68.9 76.25 66.1Q76.25 42.2 80.75 25.35L60 25L38.05 24.25L15.5 23.5L15.25 23.05Q15 22.7 15 21.25Q15 19 17 18.3L27 16.5Q27 16.1 39.05 16.75L60.5 18.5L91 19L91.8 19.25L94.5 19.5L110.75 18.25L127 17L132.25 17.5M141.5,233Q142.2 219.1 147.4 217.15Q149.45 216.35 150.9 218.7Q152.5 221.2 152.5 226.1Q152.5 238.7 146.2 324.2L138.5 427.35L138.5 475.35Q137.5 482.5 135.8 509.7Q133.4 533.35 128 533.35Q123.35 533.35 122.5 528.4L122.5 523.1Q122.5 513.9 124.5 498L127.5 472.85L127.5 427.1L131.2 378.45Q126.55 379.8 118 381.6Q99.65 385.35 92 385.35L88.75 385.2Q87.85 403.05 86.75 418.65Q82.35 481.85 76.5 481.85Q72.75 481.85 71.5 479.5Q71 478.55 71 476.85Q71 456.8 75.55 403.4Q79.85 352.75 82.25 338.85Q82.25 325.75 83.95 304.8L86.75 270Q87.95 251.55 91.25 247.8Q92.55 246.35 93.6 248.15Q94.6 249.9 94.75 253.75L95.5 289L94.65 303.4L93.75 317.75Q93.75 319.95 91.9 335.35Q90 350.8 90 353.35L89.2 374.6L89.1 377.6L90.55 377.2Q100.4 374.8 109.4 373.25Q125 370.65 131.7 371.8L136 316.25Q136.8 305.5 137.35 288.8L138.25 260.75L140.1 246.9Q141.25 238.05 141.5 233M98.75,234.75L98.15 235.4Q97.5 236 96 236Q94.7 236 93.5 234.3L91.2 230.65Q87.6 225.25 81.25 225.25L73 225.5Q43.95 241.9 31.45 296.55Q23.25 332.35 23.25 377.6L23.5 451.85L25.5 472.35Q27.2 487.25 30 497.55Q38.2 527.85 57.85 527.85Q72.7 527.85 90.7 501.3Q101.45 485.4 107.5 470.85L108.25 470.6L108.45 471.45L108.5 473.6Q108.5 476.05 106.25 484.9Q103.15 497.1 98.3 507.4Q83.2 539.35 58 539.35Q26.8 539.35 16.55 485.15Q13.35 468.2 12.6 447.8L12.5 430.75Q12.5 414.6 12.75 406.35L12.75 347.1Q14.8 333.8 20.4 309.85Q26.85 282.35 28.75 272.25Q32.45 252.5 44.2 238.1Q54.4 225.55 67.85 220.05Q80.45 214.9 89.5 218.2Q99 221.6 99 232.5Q99 235 98.75 234.75" />
</g>
</svg>
