<?xml version="1.0" encoding="utf-8"?>
<svg version="1.1" id="Layer_1"
xmlns="http://www.w3.org/2000/svg"
xmlns:xlink="http://www.w3.org/1999/xlink"


xml:space="preserve">
q-3.85 22 -3.45 44.8q1.15 60 4.85 119.35q3.75 59.2 10.1 117.75q5.6 51.65 9.9 103.25q1.15 14.1 -1.7 27.1q-5.95 -11.95 -6.15 -29q-0.7 -60.15 -6.95 -119.4q-6.2 -58.9 -10.45 -118.25q-4.05 -56.6 -3.45 -114.05q-6.2 58.8 -13.9 117.9q-7.65 59.1 -13.75 118.4q-6 58.25 -9.9 116.9q-1.35 19.5 -5.45 38.25q-2.35 0.5 -3.5 -2q-0.7 -59.5 -6.6 -118.35q-5.95 -59.5 -12.95 -118.8q-3.35 -28.85 -4.25 -58.3q-1.7 -58.6 -2 -117.75q0 -4.95 -0.45 -9.75q-7.55 59.55 -18.5 118.55q-8.15 43.85 -13.15 88.2q-6.6 58.45 -12.95 116.95q-5.1 46.7 -12.2 92.95q3.85 -59.2 10.35 -118.65q6.45 -59.35 13.2 -118.45q6.75 -59 18.75 -117.15q3.9 -18.9 6.75 -38q4.75 -31.95 9.45 -62.2q4.8 12.8 4.15 29.55q-2.2 60.05 0.9 119.3q1.6 29.6 3.95 59q3.5 44.1 9.45 87.95q7.95 58.5 10.8 117.65q4.95 -58.3 11.05 -117.55q6.1 -59.25 13.45 -118.5q3.25 -26.75 7.85 -51.75q6.1 12.65 3.05 29.7q36.15 7.7 51.25 43.35q23.15 54.75 21.9 115.4q-0.45 22.15 -10.25 41.4q-15.45 30.3 -49.1 37.45q1.45 60 -0.1 119.2q-1.35 51.6 -6.1 101.25q-6.05 -12 -3.7 -29.2q1.45 -11.05 1.95 -22.25q2.6 -59.45 3.5 -119.25q-1.5 -1.05 -1.8 -3q-0.5 -3.05 -0.05 -6.05q0.2 -1.5 0.85 -2.95q-0.1 -25 -0.55 -49.9q-1.05 -59.75 -2.65 -119.25q-0.65 -23.7 1.05 -45.7q-4.2 -1.7 -8.75 -3.05q-0.5 -1.1 -0.5 -2.25q-0.15 -2.3 1.5 -3.1q0.65 49.3 1.8 98.5q18.7 -6.55 34.65 -18.5q13.35 -10 15.6 -26.4q8.1 -59.65 -9.7 -116.15q-11.8 -37.55 -44.2 -51.75q1.1 56.95 1.85 114.3q7.05 28.75 4.75 59.35q-4.45 59.5 -1.05 119.05q3.35 59.55 -1.95 119.15q-5.25 58.85 -18.9 116.4q-6.15 25.95 -23.85 45.5q-31.35 -1.3 -35.85 -34q-8.4 -58.85 -8.5 -119.2q-0.05 -59.6 1.1 -119.25q1.15 -58.05 0.85 -116.25q-0.1 -23.75 5.3 -44.5q0.75 58.4 -1.2 117.75q-1.9 59.45 -2.15 119.25q-0.3 59.3 3.55 117.8q2.75 42.55 19.65 81.1q2.1 4.8 7.2 6q6.25 1.45 12.7 0.8q25.85 -39.9 32.1 -88.3q3.9 -30 6.45 -60.25q5.1 -59.55 1.45 -119.25q-3.55 -58.5 -1.45 -116.95q0 -0.4 0.8 -0.25q0.25 0 0.5 0.4q0.85 1.35 1.15 3q1.45 53.95 -2.15 107.2q0 0.65 -0.75 1.3q-2.95 -13.6 -2.75 -29.75q0.7 -43.65 -0.4 -87.15q-27.45 0.25 -53.6 -5q-0.05 57.6 -2.75 114q-4.7 -12.65 -4.35 -29.25q1.2 -59.8 1.5 -119.25q0.25 -44.8 3.6 -87q0.65 50.1 0.75 100.1q26.45 2.7 53.35 2.8q-1.65 -40.25 1.5 -78.05q3.45 50.25 5.15 101.35q-1 -0.25 -1.65 -0.9q-1.1 -1.1 -1.85 -2.65q-15.7 -10.35 -31.5 0.25q-17.75 38.05 -19.9 80.2q-2.3 44.95 2.15 88.55q3.3 32.35 35.6 24.7q8.85 -2.05 14.7 -9.1q4.1 -4.95 8.95 -8.35q0.15 20.5 -22.8 28.35q-27.2 9.3 -35.45 -16.35q-11.3 -34.95 -9 -72.4q1.3 -21.8 2.05 -43.4q1.55 -46.5 27.1 -82.95q2.8 -4.05 8.05 -4.7q25.15 -0.5 25 22q65.6 -8.5 132.5 -12.25q3.7 5.25 0.6 11.15q12.3 52.45 17.4 106.8q3.9 41.05 -2.6 81.6q-1.65 10.3 -11.95 12.75q-25.9 6.15 -48.15 -8.3q-16.7 -10.85 -31.05 -24.2q-7.55 -7.05 -4.5 -17.35q3.25 -10.85 10.85 -17.65q1.5 0.95 1.7 2.75q-3.15 10.25 -8.5 19.5q23.65 21.65 55 31q26.4 7.9 33.85 -11.75q2.6 -6.85 2.4 -14.5q-1.35 -59.7 -10.85 -118.3q-3.5 -21.85 -5.5 -43q-1.35 -3.25 -0.4 -6.75<g id="2045" transform="matrix(1, 0, 0, 1, -32.7, 0)">
<path style="fill:#000000;fill-opacity:1" d="M436,94.7Q432.15 116.7 432.55 139.5Q433.7 199.5 437.4 258.85Q441.15 318.05 447.5 376.6Q453.1 428.25 457.4 479.85Q458.55 493.95 455.7 506.95Q449.75 495 449.55 477.95Q448.85 417.8 442.6 358.55Q436.4 299.65 432.15 240.3Q428.1 183.7 428.7 126.25Q422.5 185.05 414.8 244.15Q407.15 303.25 401.05 362.55Q395.05 420.8 391.15 479.45Q389.8 498.95 385.7 517.7Q383.35 518.2 382.2 515.7Q381.5 456.2 375.6 397.35Q369.65 337.85 362.65 278.55Q359.3 249.7 358.4 220.25Q356.7 161.65 356.4 102.5Q356.4 97.55 355.95 92.75Q348.4 152.3 337.45 211.3Q329.3 255.15 324.3 299.5Q317.7 357.95 311.35 416.45Q306.25 463.15 299.15 509.4L298.45 510.2Q302.3 451 308.8 391.55Q315.25 332.2 322 273.1Q328.75 214.1 340.75 155.95Q344.65 137.05 347.5 117.95Q352.25 86 356.95 55.75Q361.75 68.55 361.1 85.3Q358.9 145.35 362 204.6Q363.6 234.2 365.95 263.6Q369.45 307.7 375.4 351.55Q383.35 410.05 386.2 469.2L386.2 469.95Q391.15 411.65 397.25 352.4Q403.35 293.15 410.7 233.9L425.1 116.75Q428.35 90 432.95 65Q439.05 77.65 436 94.7M461.95,56Q498.1 63.7 513.2 99.35Q536.35 154.1 535.1 214.75Q534.65 236.9 524.85 256.15Q509.4 286.45 475.75 293.6L475.9 300.5Q477.35 360.5 475.8 419.7Q474.45 471.3 469.7 520.95Q463.65 508.95 466 491.75Q467.45 480.7 467.95 469.5Q470.55 410.05 471.45 350.25L471.9 294.35L470.1 294.6L463.45 295.5Q461.95 294.45 461.65 292.5Q461.15 289.45 461.6 286.45Q461.8 284.95 462.45 283.5L471.85 280.9Q471.75 255.9 471.3 231Q470.25 171.25 468.65 111.75Q468 88.05 469.7 66.05Q465.5 64.35 460.95 63Q460.45 61.9 460.45 60.75L460.4 59.25Q460.25 56.95 461.9 56.15L461.95 56M473.65,181.25Q474.3 230.55 475.45 279.75Q494.15 273.2 510.1 261.25Q523.45 251.25 525.7 234.85Q533.8 175.2 516 118.7Q504.2 81.15 471.8 66.95Q472.9 123.9 473.65 181.25M302.45,60.75Q309.5 89.5 307.2 120.1Q302.75 179.6 306.15 239.15Q309.5 298.7 304.2 358.3Q298.95 417.15 285.3 474.7Q279.15 500.65 261.45 520.2Q230.1 518.9 225.6 486.2L222.45 463.45Q214.05 404.6 213.95 344.25Q213.9 284.65 215.05 225Q216.2 166.95 215.9 108.75Q215.8 85 221.2 64.25Q221.95 122.65 220 182Q218.1 241.45 217.85 301.25Q217.55 360.55 221.4 419.05Q224.15 461.6 241.05 500.15Q243.15 504.95 248.25 506.15Q254.5 507.6 260.95 506.95Q286.8 467.05 293.05 418.65Q296.95 388.65 299.5 358.4Q304.6 298.85 300.95 239.15Q297.4 180.65 299.5 122.2L301.65 61Q301.65 60.6 302.45 60.75M188.5,165.85Q188.75 165.85 189 166.25Q189.85 167.6 190.15 169.25L190.25 170L190.15 170.75L190 171.5L189.7 172.2L188.95 173.7L188.65 174.25L188.9 183Q190.35 236.95 186.75 290.2Q186.75 290.85 186 291.5Q183.05 277.9 183.25 261.75Q183.95 218.1 182.85 174.6Q155.4 174.85 129.25 169.6L129.25 182.25Q129.2 239.85 126.5 296.25Q121.8 283.6 122.15 267Q123.35 207.2 123.65 147.75Q123.9 102.95 127.25 60.75L128 62.25L128.5 63Q129.15 113.1 129.25 163.1Q155.7 165.8 182.6 165.9L181.75 142.55Q180.1 102.3 183.25 64.5Q186.7 114.75 188.4 165.85L188.5 165.85M97.75,83.75Q96.75 83.5 96.1 82.85Q95 81.75 94.25 80.2L92.25 76.5Q76.55 66.15 60.75 76.75Q43 114.8 40.85 156.95Q38.55 201.9 43 245.5Q46.3 277.85 78.6 270.2Q87.45 268.15 93.3 261.1Q97.4 256.15 102.25 252.75Q102.4 273.25 79.45 281.1Q52.25 290.4 44 264.75Q32.7 229.8 35 192.35Q36.3 170.55 37.05 148.95Q38.6 102.45 64.15 66Q66.95 61.95 72.2 61.3L73 61Q98.15 60.5 98 83L97.75 83.75M46.6,319L47 318.25Q112.6 309.75 179.5 306Q183.2 311.25 180.1 317.15L179.5 318L126.5 321.05Q138.8 373.5 143.9 427.85Q147.8 468.9 141.3 509.45Q139.65 519.75 129.35 522.2Q103.45 528.35 81.2 513.9Q64.5 503.05 50.15 489.7Q42.6 482.65 45.65 472.35Q48.9 461.5 56.5 454.7Q58 455.65 58.2 457.45L58.25 458.2Q55.1 468.45 49.75 477.7Q73.4 499.35 104.75 508.7Q131.15 516.6 138.6 496.95Q141.2 490.1 141 482.45Q139.65 422.75 130.15 364.15Q126.65 342.3 124.65 321.15L47 325.75Q45.65 322.5 46.6 319" />
</g>
</svg>
