<?xml version="1.0" encoding="utf-8"?>
<svg version="1.1" id="Layer_1"
xmlns="http://www.w3.org/2000/svg"
xmlns:xlink="http://www.w3.org/1999/xlink"


xml:space="preserve">
q4.1 11.9 8.65 29.9q1.7 6.65 8.15 53.6q7.1 51.8 7.1 66.25q0 8.25 -3.6 66.2q-3.65 58.15 -5.4 77.8q-1.25 13.3 -9.85 35.8q-10.15 26.45 -12.4 36.2q-5.35 23.3 -28.45 47.05q-9.4 9.65 -18.5 15.7q-9.05 6 -14.05 6q-1.4 0 -2.4 -0.65q-2.45 -1.65 -3.85 -10.7q-0.45 -2 -0.2 -3.25q0.5 -2.3 3.95 -1.15q2.15 -23.9 4.45 -60.6q0.65 -11.35 0.9 -33.2q0 -32 -2 -77.1q-2 -45.05 -2 -72q0 -16.25 0.25 -18.3q1.45 -7.95 3.75 -26.7q1.05 -3.95 0.9 -15.9q-0.05 -2.95 0.2 -5.35q-1.1 -1.65 -1.1 -2.25q0 -6.95 4.75 -7.75q4.15 6 12.35 14.5q18.9 18.95 22.95 30.5q-3.9 -18.75 -6.3 -28.5q-4.25 -17.15 -10.7 -29.25q-4.4 -8.35 -27.75 -32.7q-10.7 -11.1 -16.05 -17.35q0 11.25 -1 16.5q-1.6 15.9 -3.3 24.85q-0.7 3.6 -0.7 16q0 29.9 2 69.95q2 40.1 2 78.8q-0.25 23.35 -0.9 35.6q-0.35 4.25 -4.35 71.25q-2.05 33.95 -5.4 58.2q23.55 0 42.85 -32.8q9.65 -16.45 14.9 -33.7q7.65 -21.15 8.7 -34.15q1.7 -20.9 5.15 -76.15q3.35 -54.5 3.35 -60.7q0 -8.65 -6.55 -57.2q-6.6 -48.55 -9.2 -59.3q-1 2.85 -3.1 3.25q-3.8 -8.95 -6.85 -13.95q-5.55 -9.3 -11.65 -9.3q-10.65 0 -21.1 25.05q-7.75 18.65 -11.65 39.45q-2.15 11.3 -3 31.55q-0.95 24.1 -2 32.95q-1.65 11.8 -2.55 34.9q1 -0.35 2.35 0q6.15 -3.05 6.7 -3.2q1.75 3.15 1.75 7.15q0 10.45 -9.25 9.6q-1 6.75 -1 21.4q0 12.25 1.4 36.4q1.4 23.8 1.35 35.95q-0.15 23.45 5.65 43.4q7.85 27.1 23.35 27.1q20.2 0 31.2 -36.1q3.4 -11.25 5.6 -25.2q1.6 1.55 2.3 6.6q0 7.25 -2.5 18.7q-2.7 12.45 -7.1 23.6q-11.35 28.85 -25.65 30.7q-19.7 -7.85 -29.4 -18.05q-8.1 -8.5 -10.1 -19.65q-1.25 -7.05 -0.15 -20.1q1.15 -13.7 0.4 -19.45q-2.15 -16.25 -2.7 -38.55q-0.3 -10.75 -0.3 -39.45q0 -17.25 1 -26.25q1.5 -11 2.45 -35.25q0.9 -23.85 2.55 -35.1q0.95 -8.05 1.6 -20.85q1.9 -25.15 8.45 -42.1q5.95 -15.75 7.95 -20.55q5.3 -12.8 10.3 -21.45q10.5 -18.15 23.6 -4.75q4.65 4.75 8.2 12.15q3.2 6.55 3.2 9.7q0 2.3 -0.65 4.15q0 13.3 -8.75 71.5q-8.65 57.2 -11.5 65.25q-6.4 -30.3 -9.2 -52.55q-3.05 14.95 -2.2 22.1q0.65 4.5 0.65 10q0 13.35 -2.1 33.1q-1.85 17.75 -4.4 31.8q-0.5 -4.5 -0.5 -7.9q0 -13.85 3.75 -70.45q3.5 -52.45 4.5 -61.15q0.55 -0.45 1.15 -0.6q1.95 21 10.25 64.5q8.3 43.6 10.25 64.5q3.4 -19.25 4.1 -32.65q0.75 -6.25 1.05 -16.35q1.1 -20.35 6.35 -31.5q1.5 2.7 1.5 6.75q6.2 5.85 6.9 6.85q0.85 1.3 0.85 5.5q0 4 -1.75 7.15q-1.8 -2.95 -3.65 -4.85q-3.5 -3.65 -10.1 -3.65q-14.45 14.2 -17.6 35.1q-0.9 5.8 -1.55 17.95q-0.6 11.9 -1.6 18.05q-6.8 69.75 -6.8 76.3q0 5.5 0.3 10.45q0.6 11.2 2.45 20.35q5.7 28.7 21 28.7q10.95 0 17.15 -7.2q5 -5.8 7.4 -17.1q-0.25 -4.75 -0.85 -8q-1.45 0.1 -9.65 2.45q-4.8 0 -6 -3.2q-0.25 -0.7 -0.25 -3.8q0 -4.05 0.25 -4.45q0.6 -1.05 4.5 -1.05q5.15 0 9.05 -1.75q2.15 -0.95 4.95 -2.85q2.15 -1.25 3.9 -0.5q2.2 0.9 5.85 5.35q1.75 5.25 1.75 15.4q0 6.4 -1 12.9q0 18.6 -0.2 22.9q-0.55 13.7 -3.05 22.6q-3 -11 -1.85 -31.25q-6.7 17.3 -18.2 26.8q-23.8 6.9 -32.3 -28.8q-3.95 -16.75 -3.95 -43.2q0 -5.55 6.7 -76.85q1 -6.3 1.95 -20.2q0.9 -13.35 2.2 -20.4q4.2 -23.6 21.1 -38.25q2.75 8.85 2.75 19.85q0 2.25 -1.25 7.75q-1.65 7.4 -4.45 13.65q-3.5 7.8 -8.1 12.4q10.15 31.75 10.15 41.75q0 1.3 -0.55 3.55q-0.6 2.55 -0.7 3.95q-0.1 0 -0.55 0.45q-2.45 -13.35 -12.45 -47.1q-4.15 2.65 -9.05 3.1q-3.6 47.1 -8.35 50.9q-0.75 -1.1 -1 -2.25q-0.25 -1.1 -0.25 -3q2.4 -23.5 3.15 -34.3q-0.5 -3 -0.5 -5.25q0 -1.1 3.05 -3.05q-0.05 -9.55 1.25 -15.65q0.65 -3.25 1.05 -16.45q0.1 -4 0.55 -7.1q-0.85 -1.7 -0.85 -3.7q0 -3.4 3.35 -6.4q3.3 -2.95 7.8 -3.6q4.95 -0.75 8.9 1.85q4.6 3.05 6.7 10.15q0 16.05 -1.15 37.2q15.5 -10.4 15.5 -24q0 -3.9 -1.7 -9.75q-2.65 -9 -7.55 -9q0.6 1.4 0.6 3q0 7.55 -2.85 47q-1.2 20.55 -5.15 70.15q-3.65 45.7 -4.85 70.1q-1.05 20.95 -5.65 44.3q-5 25.2 -12.7 45.65q-18.95 50.05 -44.9 50.05q-21.95 0 -28.75 -44.7q-2.15 -14.2 -2.55 -31.7q0 -46.35 8.5 -149.15q2.65 -34 2.65 -46.65q-2.5 -48.45 -2.5 -82.45q0 -11.1 0.55 -17.5q1.25 -15.4 5.2 -19.1q1.75 2.65 1.75 5.6q-1.5 13.75 -1.5 18.05q0 29.3 2.5 76.05q2.5 46.75 2.5 57.3q0 16.8 -2.65 51.65q-8.5 99.5 -8.5 144.15q0 10.2 0.5 20.7q0.5 11.9 1.5 19.8q1.05 8.45 9.5 24.2q8.55 16.05 12.5 16.05q35.2 0 51.3 -62.3q5.25 -20.2 8 -45.65q6.65 -79.55 10 -137.25q1.75 -27 3.8 -45q2.15 0.5 3.15 2.6q-1 5.5 -1 14.55q0 10.05 -0.2 11.8q-1.7 13.3 -2.05 22.55q-3.5 40.55 -3.5 49.4q0.1 7.85 1.4 14.1q4.15 19.5 19 19.5q8.85 0 13.3 -9.45q1.35 -2.95 2.15 -6.35q-1.4 -3.05 -1.4 -3.75q0 -1.55 0.15 -2.8q0.55 -0.45 1.15 -0.6q0.65 -7.65 1.35 -12.95q-13.95 2.05 -18.3 -1.55q-1.7 -1.4 -1.7 -4.55q0 -3.85 1.75 -4.9q8.85 0 10.7 0.15q6.7 0.4 10.55 2.35q0.5 4.5 0.5 13.5q0 11.25 -1 16.5q-0.7 -7.15 -1.35 -18.65q-4.6 12.9 -11.15 12.9q-21.95 0 -27.5 -24.45q-1.75 -7.75 -1.7 -17.35q0 -10.15 4.35 -59.2q3.8 -42.95 4.65 -49.55q0.9 -16.6 3.25 -26.65q3.9 -16.85 11.05 -23.4q6.1 -5.55 13.4 -2.95q6.45 2.3 11.3 9.55q4.75 7.15 4.75 14.05q0 3 -0.75 5.25q-0.75 0.75 -4.25 0.75q0.35 -5.45 -1.1 -10.2q-2.95 -9.3 -12.65 -9.3q-15.8 0 -19.05 17.5q0.15 5.1 -0.4 10.6q0 6.55 -1.5 33.95q-1.5 27.35 -1.5 37.3q1.4 0.6 2.1 1.6q0.8 1 0.8 3.15q0 2.45 -0.75 4.2q-0.65 1.5 -1.85 2.25q-0.95 15.5 -1.2 21.95q-0.3 7.35 0.3 21.7q0 11.35 -0.75 18.1q-1.2 10.55 -4.5 16.75q-2.4 -0.4 -3.05 -3.2q-0.2 -1 -0.2 -4.15q3 -48.65 3 -53.9q0 9.85 -2.25 12.1q-0.2 -1.3 -0.2 -8.95q2 -87.75 2 -99.6q0 -13.35 -1 -58.65q0 -5.75 0.3 -7.6q0.75 -4.9 3.45 -4.75q1.2 24.2 2 58.75q0.75 33.85 0.75 61.05q0 -26.75 0.8 -44.3q3.75 2.35 4.15 12.25q-1.3 -0.55 -4.6 -5.25q-3.25 -4.6 -5.15 -5.25q-17.65 -3 -27 19.25q-3 7.1 -5.2 17.15q-2.35 9.2 -3.35 24q-1 6 -1 19.1q0 20 2.9 33.55q4.65 21.75 16.6 29.45q20.35 -12.6 26.5 -32.4q1.6 -5 3.8 -16.9q2 -10.85 4.2 -16.8q1.4 0.6 2.15 2.55q0.6 1.6 0.6 3.45q-2.2 13.6 -5.7 24.95q-11.2 36 -31.05 36q-15.2 -11.15 -20.6 -36.25q-3.15 -14.6 -3.15 -38.6q0 -15.75 1 -23.25q2.3 -19.2 4.05 -30.9q2.85 -18.5 10.9 -29.95q6.9 -9.85 16 -12.5q8.4 -2.4 14.55 2.15q6.3 4.65 6.3 13.9q0 1.85 -0.4 3.3q-0.9 0.25 -5.35 2.05q-2.4 1 -4.95 1q-36.25 0 -36.25 -12q0 -6.55 0.9 -7.8q0.75 -1 3.35 0.8q4.75 3.25 6.65 4.2q5.15 2.55 10.85 2.55q22.4 -2.35 24.55 -3.35q1.75 2.65 1.75 5.65q0 1.8 -0.55 3.25q-14.7 -0.6 -23.75 0.45q1.75 21.55 7.1 67.4q5.9 50.6 5.9 78.4q-0.3 11.85 -2.55 21.5q-7.15 30.45 -30.8 30.45q-22.45 0 -32.5 -22.25q-3.25 -7.15 -4.8 -15.85q-0.95 -5.45 -0.95 -8.5q0 -7.8 0.8 -10.3q2.4 -5.5 5.45 -14.1q2.25 2.9 2.25 7.9q0 4.75 -2 9.9q-2 5.2 -2 6.6q0 1.65 1.7 6.7q2.05 6.2 5.05 11.65q8.8 16 20.25 16q25.15 0 32.8 -24.45q2.4 -7.8 2.8 -17.35q0 -24.05 -6.5 -77.3q-6.5 -53.25 -6.5 -62.2q-3.75 -1.45 -9.35 -2.8q-3.05 -0.9 -4.9 -2.2q-5.7 45.15 -7.9 65.75q35.05 -7 50.55 -26.3q11.55 -14.4 11.55 -34.55q0 -22.15 -7.95 -34.5q-6.1 -9.4 -17.55 -13.85q4.75 1.75 9.75 8.05q3.75 4.75 6.25 9.95q6.65 14.15 7.9 21.2q0.6 3.35 0.6 17.45q0.15 5.35 -0.4 8.7q-1.3 8.45 -9.9 21.1q-5.25 7.7 -22.15 18.35q-19.25 12.15 -31.6 12.15q-0.75 -1.15 -1 -2.05q-0.25 -0.95 -0.25 -2.8q0 -5.1 3.25 -8.65q0 -12 6 -60.75q4.85 -40 8.2 -56.15q0 -3.6 0.9 -4.45q0.3 -0.3 0.85 -0.4q8.2 3 16.1 5.35<g id="2052" transform="matrix(1, 0, 0, 1, -4.75, 0)">
<path style="fill:#000000;fill-opacity:1" d="M515.75,70.25Q519.85 82.15 524.4 100.15L532 130.25Q533.7 136.9 540.15 183.85Q547.25 235.65 547.25 250.1Q547.25 258.35 543.65 316.3Q540 374.45 538.25 394.1Q537 407.4 528.4 429.9Q518.25 456.35 516 466.1Q510.65 489.4 487.55 513.15Q478.15 522.8 469.05 528.85Q460 534.85 455 534.85Q453.6 534.85 452.6 534.2L452.5 534.6Q450.05 532.95 448.65 523.9L447.75 514.75Q447.3 512.75 447.55 511.5Q448.05 509.2 451.5 510.35Q453.65 486.45 455.95 449.75L459.75 387.85L459.75 329.35Q460.4 318 460.65 296.15L460.75 274.6Q460.75 242.6 458.75 197.5Q456.75 152.45 456.75 125.5Q456.75 109.25 457 107.2Q458.45 99.25 460.75 80.5L460.75 41.5Q461.8 37.55 461.65 25.6Q461.6 22.65 461.85 20.25Q460.75 18.6 460.75 18Q460.75 11.05 465.5 10.25Q469.65 16.25 477.85 24.75L492.8 39.75Q511.7 58.7 515.75 70.25M527,133.5Q523.1 114.75 520.7 105Q516.45 87.85 510 75.75Q505.6 67.4 482.25 43.05Q471.55 31.95 466.2 25.7L466.25 28.5Q466.25 39.75 465.25 45L465.25 84.75Q463.65 100.65 461.95 109.6Q461.25 113.2 461.25 125.6Q461.25 155.5 463.25 195.55Q465.25 235.65 465.25 274.35L465.15 297.25Q464.9 320.6 464.25 332.85L464.25 392.1Q463.9 396.35 459.9 463.35Q457.85 497.3 454.5 521.55L455.25 521.6Q478.8 521.6 498.1 488.8Q507.75 472.35 513 455.1L525.55 421Q533.2 399.85 534.25 386.85Q535.95 365.95 539.4 310.7Q542.75 256.2 542.75 250Q542.75 241.35 536.2 192.8Q529.6 144.25 527 133.5M431.6,42.5Q430.6 45.35 428.5 45.75Q424.7 36.8 421.65 31.8Q416.1 22.5 410 22.5Q399.35 22.5 388.9 47.55Q381.15 66.2 377.25 87Q375.1 98.3 374.25 118.55Q373.3 142.65 372.25 151.5L372.25 203.1Q370.6 214.9 369.7 238L368.65 258.6Q369.65 258.25 371 258.6L401 258.35Q407.15 255.3 407.7 255.15L409.5 254.1Q411.25 257.25 411.25 261.25Q411.25 271.7 402 270.85L367.55 270.6L367.25 272.85L367.25 361.35Q366.25 368.1 366.25 382.75Q366.25 395 367.65 419.15Q369.05 442.95 369 455.1Q368.85 478.55 374.65 498.5Q382.5 525.6 398 525.6Q418.2 525.6 429.2 489.5Q432.6 478.25 434.8 464.3L436.5 452.1Q438.1 453.65 438.8 458.7L439.25 464.85Q439.25 472.1 436.75 483.55Q434.05 496 429.65 507.15Q418.3 536 404 537.85Q384.3 530 374.6 519.8Q366.5 511.3 364.5 500.15Q363.25 493.1 364.35 480.05Q365.5 466.35 364.75 460.6Q362.6 444.35 362.05 422.05Q361.75 411.3 361.75 382.6Q361.75 365.35 362.75 356.35L362.75 269.35Q364.25 258.35 365.2 234.1Q366.1 210.25 367.75 199L367.75 147.25Q368.7 139.2 369.35 126.4L370.55 105.35Q372.45 80.2 379 63.25Q384.95 47.5 386.95 42.7Q392.25 29.9 397.25 21.25Q407.75 3.1 420.85 16.5Q425.5 21.25 429.05 28.65Q432.25 35.2 432.25 38.35Q432.25 40.65 431.6 42.5M337.75,17Q337.75 30.3 329 88.5Q320.35 145.7 317.5 153.75L306.2 102.05Q299.8 71.75 297 49.5L296.25 48.25Q293.2 63.2 294.05 70.35L295.1 76.85Q295.75 81.35 295.75 86.85Q295.75 100.2 293.65 119.95Q291.8 137.7 289.25 151.75L287.75 151.75Q287.25 147.25 287.25 143.85Q287.25 130 291 73.4Q294.5 20.95 295.5 12.25L296.1 11.85Q296.65 11.4 297.25 11.25Q299.2 32.25 307.5 75.75Q315.8 119.35 317.75 140.25L318.25 140.25L324.15 107.65Q327.55 88.4 328.25 75Q329 68.75 329.3 58.65L329.9 41.75Q331 21.4 336.25 10.25Q337.75 12.95 337.75 17M337.45,160.55L344.5 161.25Q350.7 167.1 351.4 168.1Q352.25 169.4 352.25 173.6Q352.25 177.6 350.5 180.75Q348.7 177.8 346.85 175.9Q343.35 172.25 336.75 172.25L328 172.5Q313.55 186.7 310.4 207.6Q309.5 213.4 308.85 225.55Q308.25 237.45 307.25 243.6L307.25 290.1L298.05 384.8Q291.25 454.55 291.25 461.1Q291.25 466.6 291.55 471.55Q292.15 482.75 294 491.9Q299.7 520.6 315 520.6Q325.95 520.6 332.15 513.4Q337.15 507.6 339.55 496.3L341.6 482.85Q341.35 478.1 340.75 474.85L340.75 432.1Q339.3 432.2 331.1 434.55L323 436.85Q318.2 436.85 317 433.65Q316.75 432.95 316.75 429.85Q316.75 425.8 317 425.4Q317.6 424.35 321.5 424.35Q326.65 424.35 330.55 422.6Q332.7 421.65 335.5 419.75Q337.65 418.5 339.4 419.25Q341.6 420.15 345.25 424.6L345.25 459.8L345.5 459.1Q347.25 464.35 347.25 474.5Q347.25 480.9 346.25 487.4L346.25 492.1Q346.25 510.7 346.05 515Q345.5 528.7 343 537.6Q340 526.6 341.15 506.35L341.2 506.05Q334.5 523.35 323 532.85Q299.2 539.75 290.7 504.05Q286.75 487.3 286.75 460.85Q286.75 455.3 293.45 384L302.75 284.6L302.75 238.85Q303.75 232.55 304.7 218.65Q305.6 205.3 306.9 198.25Q311.1 174.65 328 160L337.45 160.55M273,19Q275.75 27.85 275.75 38.85Q275.75 41.1 274.5 46.6Q272.85 54 270.05 60.25Q266.55 68.05 261.95 72.65L270.6 98.25Q280.75 130 280.75 140Q280.75 141.3 280.2 143.55Q279.6 146.1 279.5 147.5Q279.4 147.5 278.95 147.95L278 148.75Q275.55 135.4 265.55 101.65L257.95 75.85Q253.8 78.5 248.9 78.95L247.85 93.85Q244.25 140.95 239.5 144.75Q238.75 143.65 238.5 142.5Q238.25 141.4 238.25 139.5L240.9 113.25Q243.3 89.75 244.05 78.95L243.45 78.9L241.75 78.75Q241.25 75.75 241.25 73.5Q241.25 72.4 244.3 70.45L244.25 59.9Q244.2 50.35 245.5 44.25Q246.15 41 246.55 27.8Q246.65 23.8 247.1 20.7Q246.25 19 246.25 17Q246.25 13.6 249.6 10.6Q252.9 7.65 257.4 7Q262.35 6.25 266.3 8.85Q270.9 11.9 273 19M250.6,22.8L250.75 30.1Q250.75 46.15 249.6 67.3L256.75 63Q272.25 52.6 272.25 39Q272.25 35.1 270.55 29.25Q267.9 20.25 263 20.25L251.75 20.5L250.6 22.8M237.65,15.85Q238.25 17.25 238.25 18.85Q238.25 26.4 235.4 65.85L232.25 107.75L232.25 257.6Q231.05 278.15 227.1 327.75Q223.45 373.45 222.25 397.85Q221.2 418.8 216.6 442.15Q211.6 467.35 203.9 487.8Q184.95 537.85 159 537.85Q137.05 537.85 130.25 493.15Q128.1 478.95 127.7 461.45L127.75 445.1Q127.75 398.75 136.25 295.95L142.1 225.5Q144.75 191.5 144.75 178.85L142.25 128.3Q139.75 79.85 139.75 45.85Q139.75 34.75 140.3 28.35Q141.55 12.95 145.5 9.25Q147.25 11.9 147.25 14.85L145.75 27.95Q144.25 41.7 144.25 46Q144.25 75.3 146.75 122.05Q149.25 168.8 149.25 179.35Q149.25 196.15 146.6 231L140.75 300.7Q132.25 400.2 132.25 444.85Q132.25 455.05 132.75 465.55Q133.25 477.45 134.25 485.35Q135.3 493.8 143.75 509.55Q152.3 525.6 156.25 525.6Q191.45 525.6 207.55 463.3Q212.8 443.1 215.55 417.65L217.75 391.1Q224.4 311.55 227.75 253.85L227.75 103.25L230.7 58.25Q232.45 31.25 234.5 13.25Q236.65 13.75 237.65 15.85M251.95,185.75Q250.95 191.25 250.95 200.3Q250.95 210.35 250.75 212.1L247.8 234.55Q246.1 247.85 245.75 257.1L242.25 296.6Q238.75 337.15 238.75 346L238.6 354Q238.7 361.85 240 368.1Q244.15 387.6 259 387.6Q267.85 387.6 272.3 378.15Q273.65 375.2 274.45 371.8L274.25 366.05L273.65 364.6Q272.25 361.55 272.25 360.85Q272.25 359.3 272.4 358.05L272.5 357.1L273.1 356.7Q273.65 356.25 274.25 356.1L274.9 356.75L274.9 356.55Q275.55 348.9 276.25 343.6L276.25 333.1Q262.3 335.15 257.95 331.55Q256.25 330.15 256.25 327Q256.25 323.15 258 322.1Q266.85 322.1 268.7 322.25Q275.4 322.65 279.25 324.6Q279.75 329.1 279.75 338.1L278.75 386.85Q278.75 398.1 277.75 403.35L276.5 403.6Q275.8 396.45 275.15 384.95Q270.55 397.85 264 397.85Q242.05 397.85 236.5 373.4Q234.75 365.65 234.8 356.05L235.25 347.1Q235.25 336.95 239.6 287.9Q243.4 244.95 244.25 238.35L246 211.15Q246.9 194.55 249.25 184.5Q253.15 167.65 260.3 161.1Q266.4 155.55 273.7 158.15Q280.15 160.45 285 167.7Q289.75 174.85 289.75 181.75Q289.75 184.75 289 187Q288.25 187.75 284.75 187.75Q285.1 182.3 283.65 177.55Q280.7 168.25 271 168.25Q255.2 168.25 251.95 185.75M125.65,29.5Q125.8 34.6 125.25 40.1Q125.25 46.65 123.75 74.05Q122.25 101.4 122.25 111.35L123.35 149.1Q124.75 149.7 125.45 150.7Q126.25 151.7 126.25 153.85Q126.25 156.3 125.5 158.05Q124.85 159.55 123.65 160.3L124.25 183L123.45 197.8Q122.5 213.3 122.25 219.75Q121.95 227.1 122.55 241.45L123.25 256Q123.25 267.35 122.5 274.1Q121.3 284.65 118 290.85Q115.6 290.45 114.95 287.65Q114.75 286.65 114.75 283.5Q117.75 234.85 117.75 229.6L119.75 182.75L119.2 160.9L118.7 160.8L117.75 160.25L104.05 159.95L89.75 159.25L69.15 158.8L68.25 255.5Q68.25 265.35 66 267.6L62.95 255.8Q62.75 254.5 62.75 246.85Q64.75 159.1 64.75 147.25Q64.75 133.9 63.75 88.6L62.75 39.6Q62.75 33.85 63.05 32Q63.8 27.1 66.5 27.25Q67.7 51.45 68.5 86Q69.25 119.85 69.25 147.05L91.25 147.75L118.5 148.25L118.85 148.25L117.75 111.5Q117.75 84.75 118.55 67.2L121.5 17.25Q125.25 19.6 125.65 29.5M81.85,27.65L80.5 30.75Q79.2 30.2 75.9 25.5Q72.65 20.9 70.75 20.25Q53.1 17.25 43.75 39.5Q40.75 46.6 38.55 56.65L36.25 68Q33.9 77.2 32.9 92L31.25 116.75L31.25 211.25Q30.25 217.25 30.25 230.35Q30.25 250.35 33.15 263.9Q37.8 285.65 49.75 293.35L60 293.35Q80.35 280.75 86.5 260.95Q88.1 255.95 90.3 244.05Q92.3 233.2 94.5 227.25Q95.9 227.85 96.65 229.8Q97.25 231.4 97.25 233.25L95.75 244.9Q93.55 258.5 90.05 269.85Q78.85 305.85 59 305.85L49.5 305.6Q34.3 294.45 28.9 269.35Q25.75 254.75 25.75 230.75Q25.75 215 26.75 207.5L26.75 112.25L30.45 81.65Q32.75 62.45 34.5 50.75Q37.35 32.25 45.4 20.8Q52.3 10.95 61.4 8.3Q69.8 5.9 75.95 10.45Q82.25 15.1 82.25 24.35Q82.25 26.2 81.85 27.65M58.5,333.05L55.3 333.8Q54.4 334.05 49.95 335.85Q47.55 336.85 45 336.85Q8.75 336.85 8.75 324.85Q8.75 318.3 9.65 317.05Q10.4 316.05 13 317.85Q17.75 321.1 19.65 322.05Q24.8 324.6 30.5 324.6L62 322.35L62.5 322.1L62.5 322.3L63.45 322.2Q85.85 319.85 88 318.85L116.5 319.1Q118.25 321.75 118.25 324.75Q118.25 326.55 117.7 328L116 330.85L101.8 331.15L87 331.85Q72.3 331.25 63.25 332.3Q65 353.85 70.35 399.7Q76.25 450.3 76.25 478.1L76.35 488.9Q76.05 500.75 73.8 510.4Q66.65 540.85 43 540.85Q20.55 540.85 10.5 518.6Q7.25 511.45 5.7 502.75Q4.75 497.3 4.75 494.25Q4.75 486.45 5.55 483.95Q7.95 478.45 11 469.85Q13.25 472.75 13.25 477.75Q13.25 482.5 11.25 487.65Q9.25 492.85 9.25 494.25Q9.25 495.9 10.95 500.95Q13 507.15 16 512.6Q24.8 528.6 36.25 528.6Q61.4 528.6 69.05 504.15Q71.45 496.35 71.85 486.8L71.75 477.85Q71.75 453.8 65.25 400.55Q58.75 347.3 58.75 338.35L58.5 333.05M254.75,417.15Q251 415.7 245.4 414.35L237.2 412.3Q234.15 411.4 232.3 410.1L226.05 460.6Q220.35 505.75 218.15 526.35Q253.2 519.35 268.7 500.05Q280.25 485.65 280.25 465.5Q280.25 443.35 272.3 431Q266.2 421.6 254.75 417.15M259.25,408.85Q264 410.6 269 416.9Q272.75 421.65 275.25 426.85Q281.9 441 283.15 448.05Q283.75 451.4 283.75 465.5L284.05 476.55Q284.2 481.9 283.65 485.25Q282.35 493.7 273.75 506.35Q268.5 514.05 251.6 524.7Q232.35 536.85 220 536.85L212.5 536.6Q211.75 535.45 211.5 534.55Q211.25 533.6 211.25 531.75Q211.25 526.65 214.5 523.1L215.25 523.6L215.25 523.25Q215.25 511.25 221.25 462.5Q226.1 422.5 229.45 406.35L229.25 404.75Q229.25 401.15 230.15 400.3Q230.45 400 231 399.9L231.25 399.1L231.65 399.85L234.15 400.3L243.15 403.5Q251.35 406.5 259.25 408.85" />
</g>
</svg>
