<?xml version="1.0" encoding="utf-8"?>
<svg version="1.1" id="Layer_1"
xmlns="http://www.w3.org/2000/svg"
xmlns:xlink="http://www.w3.org/1999/xlink"


xml:space="preserve">
q0.5 -3.1 2.65 -5.65q4.5 7.3 5.7 27.55q0.6 10.25 0.3 20.1q0 28.75 -3.4 92.85q-4.9 92.85 -12.95 127q-1.25 -0.65 -2.45 -7.9q-1.05 -6.25 -1.05 -9.85q0 -6.15 3.9 -24.05q4.45 -20.6 5.1 -26.2q-6.75 4.5 -12.2 4.95q-7.35 91.85 -11.4 134.3q-2.6 -1.45 -3.55 -5.15q0 -20.5 9.15 -127.4q8.6 -100.8 11.85 -126.5q2.25 0.75 2.8 4.1q0.2 1.1 0.2 5.65q0 10.1 -7.45 103.5q1.25 -0.55 2.85 -1q10.15 -2.85 57.1 -6.5q1 -25.85 1 -49.1q0 -3.9 -1.9 -20.1q0 -4.75 0.2 -6q2 3.6 2 7.15q10.2 39.85 18.35 73.45q26.2 107.9 26.2 130.75q0 4.25 -2 7.85q-8.45 -11.3 -8.45 -13.7q0 -0.45 0.85 -3.25q0.85 -2.85 0.85 -6.65q0 -28.35 -24.15 -122.45q-6.95 -27.15 -18.15 -67.95q-5.65 2.15 -20 4.2q-22.9 4.05 -40.5 4.15q-8.35 37.4 -20.7 95.9q-16.1 73.25 -30.85 122.85q-2.95 -0.95 -3.75 -5.2q-0.25 -1.4 -0.25 -6.05q0 -2.85 23.35 -98.45q17.4 -71.25 26.7 -111.65q0 -3.5 3.55 -5.4q2.5 -12.05 15.9 -61.15q10.4 -38.35 13.1 -61.85q4.1 -35.35 9 -61.5q2.6 -20.6 4.4 -31.1q2.4 -14.35 7.1 -23.85q0.75 -5.4 2 -7.3q3.6 2.65 3.15 13.25q-0.2 5.3 -1.15 10.4q0 10.5 6 63.85q2.45 24.95 10.65 60q4.15 17.7 12.55 50.1q-10.05 -38.15 -14.6 -57.65q-7.9 -34 -8.9 -58.6q-0.25 -6.7 -5.8 -54.3q-3.1 -26.85 -4.35 -43.7q-10 53.8 -11.55 69.2q-2.45 23.5 -12.8 61.15q-5.1 18.3 -7.95 30.8q19.45 -2.65 39.1 -6.55q0 3.15 -2 6.75q4 25.25 8.9 79.55q5.3 58.35 5.3 69.2q0 18.3 -0.85 27.05q-1.7 17.25 -7.4 30.65q-15.5 36.4 -63.25 51.4q-27.85 -4.7 -38.6 -15.9q-7.15 -7.45 -7.15 -18.95q0 -13.7 5 -17.65q1.15 0.95 2.15 3.5q0.85 2.15 0.85 3.25q0 1.25 -1.25 5.45q-1.25 4.2 -1.25 5.45q0 2 3.65 5.55q3.75 3.6 9.45 7.05q14.4 8.6 27.15 8.25q42.35 -14.3 56.75 -44.95q5.4 -11.55 7.2 -26.15q1.05 -8.7 1.05 -23.65q0 -21.15 -1.6 -32.25q-3.55 -24.1 -5.4 -43.5q-2.65 -23.55 -3.25 -30.45q-19.65 3.9 -83.5 13.25q-2.5 0 -3.25 -3.65q0 -1.15 0.95 -3.5q1.25 -3 3.05 -4.4q26.9 -3.5 48.3 -7.75q2 3.6 2 6.75q-3.4 10.35 -3.4 19.05q0.4 20.75 3.8 37.85q10.7 54.2 46.95 54.2q23.75 0 37.45 -20.7q4.35 -6.55 8.8 -17.1q5.05 -11.95 6 -13.7q2 3.6 2 7.15q0 1.25 -3.05 9.5q-4 10.95 -9.2 20.1q-16.35 29 -37.25 29q-43.8 0 -56.5 -61.7q-4 -19.4 -4.4 -42.9q0 -15.3 3.4 -27.15q4.15 -14.5 13.6 -25q15.1 -16.8 29.95 -22.95q12.6 -5.15 23.75 -2.3q9.45 2.45 15.65 9.8q5.65 6.7 5.65 13.35q0 5.65 -2.5 9.1q-0.55 -0.55 -1.4 -3.9q-0.95 -3.65 -2.65 -5.9q-5.8 -7.7 -24.2 -7.7q-25.7 0 -42.25 23.3q-6.6 9.3 -10.35 20.65q10.95 -1.2 20.55 -3.45q4.5 -60.55 6.9 -76.05q1.95 1.25 3.15 4.3q0.85 2.25 0.85 3.95q0 3.15 -3 46.15q-1.05 17.65 -1.65 52.9q-1.25 31.2 -6.85 52.6q-2.75 -3.25 -3.3 -6.05q-0.2 -1 -0.2 -6.45q0 -17.6 5.95 -101.6q-1.35 1.6 -3.8 2.8q-4.1 2 -14.75 4q-17.25 3.25 -21.5 4.25q-12.85 3 -23.55 7.35q-0.5 7.9 -1.6 18.6q-2 19.05 -2.1 28.05q-2.9 -2.5 -3.25 -10.35q-0.9 -0.8 -1.25 -2q-0.3 -0.9 -0.3 -4.15q0 -3.2 0.4 -4.45q0.45 -1.4 1.5 -2.55q0 -10.55 2.5 -12.65q4.85 4 5.15 23.8q0.1 8.65 -0.35 22.3q8.25 -3.5 27.2 -5.6<g id="2061" transform="matrix(1, 0, 0, 1, -13.1, 0)">
<path style="fill:#000000;fill-opacity:1" d="M508.7,36.75Q509.2 33.65 511.35 31.1Q515.85 38.4 517.05 58.65Q517.65 68.9 517.35 78.75Q517.35 107.5 513.95 171.6Q509.05 264.45 501 298.6Q499.75 297.95 498.55 290.7Q497.5 284.45 497.5 280.85Q497.5 274.7 501.4 256.8Q505.85 236.2 506.5 230.6L507.6 205.4L508.5 179.6L510.75 142.1L405.75 153.35Q399 157.85 393.55 158.3L387 157.85L382.9 157.3Q375.55 249.15 371.5 291.6Q368.9 290.15 367.95 286.45L367.5 283Q367.5 262.5 376.65 155.6Q385.25 54.8 388.5 29.1Q390.75 29.85 391.3 33.2Q391.5 34.3 391.5 38.85Q391.5 48.95 384.05 142.35Q385.3 141.8 386.9 141.35Q397.05 138.5 444 134.85L487.9 130.5L508.8 127.65L511.35 127.45Q512.35 101.6 512.35 78.35Q512.35 74.45 510.45 58.25L508.5 42.75Q508.5 38 508.7 36.75M332.5,279.1Q334.5 282.7 334.5 286.25L334.5 288.1L334.75 289.1L343.95 324.55Q354.15 364.4 362.3 398Q388.5 505.9 388.5 528.75Q388.5 533 386.5 536.6Q378.05 525.3 378.05 522.9Q378.05 522.45 378.9 519.65Q379.75 516.8 379.75 513Q379.75 484.65 355.6 390.55Q348.65 363.4 337.45 322.6L329.75 294.15Q324.1 296.3 309.75 298.35L281.55 303.7Q258.65 307.75 241.05 307.85Q232.7 345.25 220.35 403.75Q204.25 477 189.5 526.6Q186.55 525.65 185.75 521.4Q185.5 520 185.5 515.35Q185.5 512.5 208.85 416.9Q226.25 345.65 235.55 305.25L235 303.9L234.5 299.75Q234.5 296.25 238.05 294.35L243 271.85Q245.5 259.8 258.9 210.7Q269.3 172.35 272 148.85Q276.1 113.5 281 87.35Q283.6 66.75 285.4 56.25Q287.8 41.9 292.5 32.4Q293.25 27 294.5 25.1Q298.1 27.75 297.65 38.35Q297.45 43.65 296.5 48.75Q296.5 59.25 302.5 112.6L309 169.1Q311.45 194.05 319.65 229.1Q323.8 246.8 332.2 279.2L332.5 279.1M326,280.1Q315.95 241.95 311.4 222.45Q303.5 188.45 302.5 163.85Q302.25 157.15 296.7 109.55Q293.6 82.7 292.35 65.85L288.05 89.15Q278.05 142.95 276.5 158.35Q274.05 181.85 263.7 219.5L254.95 250.55Q249.85 268.85 247 281.35L244.5 292.35L256.7 290.5L287 286.95Q306.45 284.3 326.1 280.4L326 280.1M212.5,29.85Q212.5 33 210.5 36.6L160.5 37.35L154.3 38Q158.3 63.25 163.2 117.55Q168.5 175.9 168.5 186.75Q168.5 205.05 167.65 213.8Q165.95 231.05 160.25 244.45Q144.75 280.85 97 295.85L67.25 295.6Q39.4 290.9 28.65 279.7Q21.5 272.25 21.5 260.75Q21.5 247.05 26.5 243.1Q27.65 244.05 28.65 246.6Q29.5 248.75 29.5 249.85Q29.5 251.1 28.25 255.3Q27 259.5 27 260.75Q27 262.75 30.65 266.3Q34.4 269.9 40.1 273.35Q54.5 281.95 67.25 281.6L98.5 281.35Q140.85 267.05 155.25 236.4Q160.65 224.85 162.45 210.25Q163.5 201.55 163.5 186.6Q163.5 165.45 161.9 154.35Q158.35 130.25 156.5 110.85L151.95 68.95Q149.3 45.4 148.7 38.5L146 38.85L119.5 39.35Q99.85 43.25 36 52.6Q33.5 52.6 32.75 48.95L32.5 45Q32.5 43.85 33.45 41.5Q34.7 38.5 36.5 37.1L72.7 32.6Q99.6 29.1 121 24.85L147 24.35L149.25 24.05L162 23.35L162 22.85L210.5 23.1Q212.5 26.7 212.5 29.85M22.15,368.05Q18.75 378.4 18.75 387.1L18.5 405.55Q18.9 426.3 22.3 443.4Q33 497.6 69.25 497.6Q93 497.6 106.7 476.9Q111.05 470.35 115.5 459.8Q120.55 447.85 121.5 446.1Q123.5 449.7 123.5 453.25Q123.5 454.5 120.45 462.75Q116.45 473.7 111.25 482.85Q94.9 511.85 74 511.85Q30.2 511.85 17.5 450.15Q13.5 430.75 13.1 407.25L13.5 386.75Q13.5 371.45 16.9 359.6Q21.05 345.1 30.5 334.6Q45.6 317.8 60.45 311.65Q73.05 306.5 84.2 309.35Q93.65 311.8 99.85 319.15Q105.5 325.85 105.5 332.5Q105.5 338.15 103 341.6Q102.45 341.05 101.6 337.7Q100.65 334.05 98.95 331.8Q93.15 324.1 74.75 324.1Q49.05 324.1 32.5 347.4Q25.9 356.7 22.15 368.05M118,387.35Q128.95 386.15 138.55 383.9L149.8 380.95L154.55 381.1L154.6 381.15Q159.1 320.6 161.5 305.1Q163.45 306.35 164.65 309.4Q165.5 311.65 165.5 313.35Q165.5 316.5 162.5 359.5L158.5 419.1Q157.45 436.75 156.85 472Q155.6 503.2 150 524.6Q147.25 521.35 146.7 518.55Q146.5 517.55 146.5 512.1Q146.5 494.5 152.45 410.5L153.8 391.55Q152.45 393.15 150 394.35Q145.9 396.35 135.25 398.35Q118 401.6 113.75 402.6Q100.9 405.6 90.2 409.95Q89.7 417.85 88.6 428.55Q86.6 447.6 86.5 456.6Q83.6 454.1 83.25 446.25L83.5 438.6L84.5 419.1L85.05 409.65Q84.15 408.85 83.8 407.65Q83.5 406.75 83.5 403.5Q83.5 400.3 83.9 399.05Q84.35 397.65 85.4 396.5L84.5 379.55L83.5 359.5Q83.5 348.95 86 346.85Q90.85 350.85 91.15 370.65Q91.25 379.3 90.8 392.95Q99.05 389.45 118 387.35" />
</g>
</svg>
