<?xml version="1.0" encoding="utf-8"?>
<svg version="1.1" id="Layer_1"
xmlns="http://www.w3.org/2000/svg"
xmlns:xlink="http://www.w3.org/1999/xlink"


xml:space="preserve">
q-1.75 59.15 -3.05 118.45q-0.35 15.2 -2.45 29.85q-2.4 16.8 3.2 29.9q0.25 1.25 0.8 2.55q38.95 1.35 78 -3q3.75 -7.2 -0.85 -13.45q-38.05 2.4 -76 6.6q0.55 -3.05 0.55 -6.35q0.1 -24.45 1.25 -49.4q2.75 -59.7 -0.05 -118.55q-2.8 1.7 -2.95 6q-31.75 -0.5 -63.45 -1.35q-0.75 2.9 -0.45 5.95q21.95 2.75 44.35 3.6q-1.1 57.85 0.3 115.85q0.4 14.85 -1.9 29.75q-2.75 17.6 4.25 29.25q3.85 -14.75 3.75 -30.75q-0.1 -57.3 -3.5 -113.25q25.1 0.85 50.8 -0.7q3.15 -4.4 1.5 -9.75q-0.35 -0.4 -0.75 -0.4q-10.5 5.9 -15.7 17.1q-9.35 20.3 1.15 38.9q7.6 13.55 24.4 10q7.4 -1.65 10.9 -8q3.25 -21.85 -7.7 -42.55q-10.05 -18.95 -19.35 -38.55q-7.85 -16.55 -17.7 -32.1q-3.4 2.9 -3.8 8.4q-1.05 14.2 4.3 23.1q3.15 -15.8 -1 -30.65q-1.95 35.05 -2.2 70.45q0 4.2 -3.25 6.15q-11.95 7.1 -24.45 -1.9q-3.65 6.95 -0.25 14.25q2.9 2.05 6.05 3.7q9.65 4.9 17.85 0.45q4.25 -2.3 5.1 -6.7q8.25 -43.8 2.75 -88.2q-1.5 0.15 -1.6 1.8q-11.55 7.55 -26.4 4.3q-3.55 -3.35 -3.95 -8.3q-2 -24.15 17.7 -31.35<g id="2078" transform="matrix(1, 0, 0, 1, -139.75, 0)">
<path style="fill:#000000;fill-opacity:1" d="M340.2,183Q343 241.85 340.25 301.55Q339.1 326.5 339 350.95Q339 354.25 338.45 357.3Q376.4 353.1 414.45 350.7Q419.05 356.95 415.3 364.15L414.7 364.95Q375.65 369.3 336.7 367.95Q336.15 366.65 335.9 365.4L334.95 367.2Q329.35 354.1 331.75 337.3Q333.85 322.65 334.2 307.45Q335.5 248.15 337.25 189Q337.4 184.7 340.2 183M239.2,185.25L239.65 186L239.95 186.75L240.2 187.5Q241.85 192.85 238.7 197.25Q213 198.8 187.9 197.95Q191.3 253.9 191.4 311.2L191.5 341.95Q191.6 357.95 187.75 372.7Q180.75 361.05 183.5 343.45Q185.8 328.55 185.4 313.7Q184 255.7 185.1 197.85Q162.7 197 140.75 194.25L140.5 193.5L140.25 192.75L140.05 191.95Q139.75 188.9 140.5 186L142.05 184.85L143 184.6L175 183.5Q206.7 184.35 238.45 184.85Q238.85 184.85 239.2 185.25M268.45,262.75Q278.3 278.3 286.15 294.85Q295.45 314.45 305.5 333.4Q316.45 354.1 313.2 375.95L300.85 359.45Q297.35 365.8 289.95 367.45Q273.15 371 265.55 357.45Q255.05 338.85 264.4 318.55Q269.6 307.35 280.1 301.45L266.65 263.9L268.45 262.75M234.2,246.65L233.7 247.5Q228.35 238.6 229.4 224.4Q229.8 218.9 233.2 216Q237.35 230.85 234.2 246.65M232.2,270.7Q237.7 315.1 229.45 358.9Q228.6 363.3 224.35 365.6Q216.15 370.05 206.5 365.15Q203.35 363.5 200.45 361.45Q197.05 354.15 200.7 347.2Q213.2 356.2 225.15 349.1Q228.4 347.15 228.4 342.95Q228.65 307.55 230.6 272.5Q230.7 270.85 232.2 270.7M284.45,313.05Q264.75 320.25 266.75 344.4Q267.15 349.35 270.7 352.7Q285.55 355.95 297.1 348.4L293.45 338.4L284.45 313.05" />
</g>
</svg>
