<?xml version="1.0" encoding="utf-8"?>
<svg version="1.1" id="Layer_1"
xmlns="http://www.w3.org/2000/svg"
xmlns:xlink="http://www.w3.org/1999/xlink"


xml:space="preserve">
q-35 0.05 -69 3.25q-0.85 0.95 -1.05 2.2q-0.4 2.7 0.55 5.3q-6.35 58 -9.45 116.7q-1.6 30.6 1.35 59.3q6.6 -5.3 3.5 -14.5q2.35 -24.1 3.45 -48.65q2.65 -57.3 3.7 -112.75q20.65 0.55 41.6 -0.55q3.15 -4.4 1.6 -9.8q-0.35 -1.2 -1.1 -2.2q-0.35 -0.4 -0.8 -0.5q-6.05 -1.3 -12.45 -1.25q-15.85 -0.5 -30.55 3.55q2.05 -30.05 0.45 -59.3q-9.3 48.95 -8.25 101.95q0.25 15 -1.4 29.85q-1.85 16.9 3.9 29.4q4.6 -11.95 4.1 -25.5q-1.05 -29.25 0.2 -58.2q15.45 0.65 30.8 -0.55q0.3 1.7 2 2q5.1 -7.45 5.15 -17.75q0.15 -26.45 1.1 -53.15q2.15 -60.1 2 -118.55q-7.2 32.85 -7.95 69q-41.6 5.1 -84.45 5.5q-1 2.9 -0.85 6q0.1 2.35 1.85 3.75q23.35 -0.5 46.2 -0.7q-3.35 27.75 -4.3 56.4q0.55 2.65 3 2q4.85 -30.75 5.55 -63q1.15 -56.65 3.05 -113.2q2.4 -3.2 2.05 -7.25q-0.25 -2.4 -1.3 -4.5q-0.35 -0.4 -0.75 -0.45q-6.25 -0.55 -12.5 -2.05q-5.75 7.6 -0.5 14.85q3.35 -7.35 0.4 -14.15q-8.6 12.55 -0.95 23q1.45 29.35 -4 56.95q-6.2 3.65 -12.25 0q1.65 -4.6 -1.25 -8.25q-11.9 13.05 2.75 26.5q8.45 3.65 15.25 -1.25q6.85 -10.45 6.95 -23.25q0.3 -33.65 -0.95 -66q-4.75 7.75 -4.25 18.3q-5.65 20.35 -5.7 42q-0.05 19.75 4.2 38.85q4.5 20.5 20.45 -1.25q4.15 -5.65 3.05 -12.85q-5.2 6.75 -12.8 10.6<g id="2085" transform="matrix(1, 0, 0, 1, -137.5, 0)">
<path style="fill:#000000;fill-opacity:1" d="M390.4,183.75Q390.85 183.85 391.2 184.25Q391.95 185.25 392.3 186.45Q393.85 191.85 390.7 196.25Q369.75 197.35 349.1 196.8Q348.05 252.25 345.4 309.55Q344.3 334.1 341.95 358.2Q345.05 367.4 338.45 372.7Q335.5 344 337.1 313.4Q340.2 254.7 346.55 196.7L308.7 194L308.45 193.25Q307.5 190.65 307.9 187.95Q308.1 186.7 308.95 185.75Q342.95 182.55 377.95 182.5Q384.35 182.45 390.4 183.75M413.25,252.25Q414 216.1 421.2 183.25Q421.35 241.7 419.2 301.8Q418.25 328.5 418.1 354.95Q418.05 365.25 412.95 372.7Q411.25 372.4 410.95 370.7L412.55 287.7Q397.2 288.9 381.75 288.25Q380.5 317.2 381.55 346.45Q382.05 360 377.45 371.95Q371.7 359.45 373.55 342.55Q375.2 327.7 374.95 312.7Q373.9 259.7 383.2 210.75Q384.8 240 382.75 270.05L382.25 277.8Q396.95 273.75 412.8 274.25L413.25 252.25M235.45,182.05Q235.85 182.1 236.2 182.5Q237.25 184.6 237.5 187Q237.85 191.05 235.45 194.25L189.35 194.5Q187.45 251.05 186.3 307.7Q185.6 339.95 180.75 370.7Q178.3 371.35 177.75 368.7L181.4 250.95Q182.35 222.3 185.7 194.55Q162.85 194.75 139.5 195.25Q137.75 193.85 137.65 191.5Q137.5 188.4 138.5 185.5Q181.35 185.1 222.95 180Q229.2 181.5 235.45 182.05M277.2,236.5Q280.15 243.3 276.8 250.65L276.2 251.5Q270.95 244.25 276.7 236.65L277.2 236.5M234.85,234.7L232.25 255.5Q224.6 245.05 233.2 232.5L234.85 234.7M230.2,276.95Q231.45 309.3 231.15 342.95Q231.05 355.75 224.2 366.2Q217.4 371.1 208.95 367.45Q194.3 354 206.2 340.95Q209.1 344.6 207.45 349.2L209.7 352.2Q215.75 355.85 221.95 352.2Q227.4 324.6 225.95 295.25Q225.45 284.7 230.2 276.95M283.4,353.55Q291 349.7 296.2 342.95Q297.3 350.15 293.15 355.8Q277.2 377.55 272.7 357.05Q268.45 337.95 268.5 318.2Q268.55 296.55 274.2 276.2L275.3 354.35L278.2 355.95L283.4 353.55" />
</g>
</svg>
