<?xml version="1.0" encoding="utf-8"?>
<svg version="1.1" id="Layer_1"
xmlns="http://www.w3.org/2000/svg"
xmlns:xlink="http://www.w3.org/1999/xlink"


xml:space="preserve">
q-16.1 9.8 -14.55 28.8q3.35 41.2 22.6 78.95q14.85 29.1 3 55.35q-3.2 7 -10.25 10.2q-4.55 2 -9.6 1.65q-5.65 -0.4 -10.7 -2.9q-28.15 -14.05 -28.25 -45.6q-6.65 26.6 8.35 50.1q13.3 20.8 37.4 23.15q11.85 0.9 19.05 -7.95q4.2 -5.15 6.05 -11.4q2.35 -8.1 3.6 -16.75q2.45 -16.85 -3.8 -32.5q-15.45 -38.5 -25.1 -78.45q-3.65 -15 2.1 -29.8q13.85 -1.25 26 6.25q-1.5 -17.55 -21 -20.45q-0.75 0.1 -0.8 0.35q-5.75 33 -6.55 67.4q-1.3 59.35 -3.4 118.45q0.6 2.65 3 2q5.65 -33 5.95 -67.5q-1.1 47.85 -1.65 95.25q0.75 2.8 3.25 1.5q3.3 -40.6 3.75 -81.75q1.5 -1.55 1.9 -3.7q0.8 -4.4 -1.4 -8.25q-0.35 -0.4 -0.8 -0.5q0.3 -45.15 0 -89.75q-1 0.85 -1.65 2.1q-1.85 38.9 -2.8 78q-14.7 2.25 -28.85 6.85q0.8 -45.05 3.15 -89.8q-34.85 0.1 -69.2 6q-2.65 3.15 -2.05 7.5q-1.3 5.65 -1.15 12.3q1 59.8 -6.8 118.25q-3.05 23.15 -0.15 44.45q6.7 -32.45 8.95 -66.3q3.65 -54.65 2.15 -108.75q1.9 -3.55 1.05 -7.55q-0.35 -0.4 -0.75 -0.45q-7.5 7.7 -1.5 16.5q-5.9 6.55 -0.85 14.25q6.9 -40.6 3.55 -81.5q-5.45 15.85 -4.15 35.8q1.25 19.75 -3.6 37.45q-3.35 -0.35 -5.5 2q-6.35 -4.65 -10.2 -9.5q-7.6 19.45 12.95 24.25q7.25 -1.45 8.4 -8.25q11.5 1.45 16.8 -9.45q4.1 -8.35 0.7 -17.3q-4.9 12.95 -16.5 12.75q-3.65 20.65 -2.35 41.35q0.6 9.75 5 18.65<g id="2092" transform="matrix(1, 0, 0, 1, -141.1, 0)">
<path style="fill:#000000;fill-opacity:1" d="M348.45,178.8Q367.95 181.7 369.45 199.25L366.4 197.35Q354.25 189.85 340.4 191.1L337.2 192.25Q331.45 207.05 335.1 222.05Q344.75 262 360.2 300.5Q366.45 316.15 364 333Q362.75 341.65 360.4 349.75Q358.55 356 354.35 361.15Q347.15 370 335.3 369.1Q311.2 366.75 297.9 345.95Q282.9 322.45 289.55 295.85L292.35 294.4L301.2 296.2L294.2 304.45Q294.3 336 322.45 350.05Q327.5 352.55 333.15 352.95Q338.2 353.3 342.75 351.3Q349.8 348.1 353 341.1Q364.85 314.85 350 285.75Q330.75 248 327.4 206.8Q325.85 187.8 341.95 178L348.45 178.8M387.7,181L388.2 181.75Q385.85 226.5 385.05 271.55Q399.2 266.95 413.9 264.7L414.15 254.75Q415.1 215.65 416.95 176.75Q417.6 175.5 418.6 174.65L419.2 174.5Q419.5 219.1 419.2 264.25L422.4 264.75Q422.85 264.85 423.2 265.25Q425.4 269.1 424.6 273.5Q424.2 275.65 422.7 277.2L419.1 277.8L418.95 293.7Q418.5 334.85 415.2 375.45Q412.7 376.75 411.95 373.95Q412.5 326.55 413.6 278.7L384.85 282.7L384.65 300.2Q384.35 334.7 378.7 367.7Q376.3 368.35 375.7 365.7Q377.8 306.6 379.1 247.25Q379.9 212.85 385.65 179.85Q385.7 179.6 386.45 179.5L387.7 181M225.45,181.3Q225.85 181.35 226.2 181.75L226.85 183.25L227.25 184.7Q228.1 188.7 226.2 192.25L184.6 194.7Q186.1 248.8 182.45 303.45Q180.2 337.3 173.5 369.75L172.5 369.95Q169.6 348.65 172.65 325.5Q180.45 267.05 179.45 207.25Q179.3 200.6 180.6 194.95L142.75 198L142.15 196.45L141.7 194.25Q141.1 189.9 143.75 186.75Q178.1 180.85 212.95 180.75L225.45 181.3M276,253.5L273.7 264Q267.7 255.2 275.2 247.5L276 253.5M220.35,258.5Q215.3 250.8 221.2 244.25L222.45 248.75L224 250.35L220.95 259.25L220.35 258.5M209.25,365.7L207.95 366.2Q187.4 361.4 195 341.95Q198.85 346.8 205.2 351.45L207.95 351.2Q210.1 348.85 213.45 349.2Q218.3 331.5 217.05 311.75Q215.75 291.8 221.2 275.95Q224.55 316.85 217.65 357.45Q216.5 364.25 209.25 365.7M267.45,350.8Q266.15 330.1 269.8 309.45L274.2 275.95L273.3 355.15L273.45 355.45Q285.05 355.65 289.95 342.7Q293.35 351.65 289.25 360Q283.95 370.9 272.45 369.45Q268.05 360.55 267.45 350.8" />
</g>
</svg>
