<?xml version="1.0" encoding="utf-8"?>
<svg version="1.1" id="Layer_1"
xmlns="http://www.w3.org/2000/svg"
xmlns:xlink="http://www.w3.org/1999/xlink"


xml:space="preserve">
q-3.95 7.9 -4 18.25q-0.3 59.4 -2.5 118.5q-2.35 59.6 -5.15 119.2q-0.4 9.35 -1.85 18.5q-2.7 17.3 3.85 30q33.45 10.55 69.3 1.85q1.6 -1.5 2.2 -3.7q1.75 -6.85 -2.45 -12.05q-3.1 -0.15 -6 0.75q-0.75 -1.25 -1.8 -2.25q-0.35 0.15 -0.35 0.25q-5.6 5.55 -18.35 5.55q-8 0 -15.35 -1.95q-13.5 -3.55 -25.3 0.6q3.1 -55.3 4.25 -110.8q1.3 -59.35 4.9 -118.45q1.85 -29.9 2.6 -60q1.55 -59.15 1.65 -118.5q-0.5 -1.75 -1.75 -3q-4.4 33.75 -6.55 68.2q-3.75 59.35 -4.05 119.35q-0.35 59.5 -3.25 118.5q-1.5 29.8 -6.2 59q-2.25 13.9 4.8 21.45q22.7 3.95 44.25 1.8q1.6 -1.5 2.1 -3.7q0.6 -2.6 0.4 -5.3q-0.55 -2.3 -2.3 -3.75q-21.75 2.75 -44.5 -2.15q1.05 -7.65 1.55 -15.65q3.55 -59.05 3.95 -118.5q0.4 -59.85 3.9 -119.2q3.6 -59.7 4.7 -117.8q-2.15 0.65 -2.5 3.2q-0.75 58.75 -0.7 117.75q0.05 15.1 0.5 29.95q1.85 59.7 -2.3 118.65q-4.25 59.35 -11.55 118.15q-2.2 17.4 4.9 29.2q4.05 -14.75 5.1 -30.7q4 -59.15 6.6 -118.5q0.7 -15.1 1 -30q1.25 -59.55 1.8 -119.25q0.6 -59.85 -3 -118.5q-2.3 0.6 -2.35 3.25q-20.8 45.5 -27.7 95.35q-6.35 46.25 18.05 85.45q17.5 28.15 46.6 11.4q16 -9.2 21 -21.85q0.25 17.05 5.85 33.25q7.65 -37.4 1.5 -75.75q0.6 1 1.7 1.45q15.7 6.1 32.25 7.4q-1.3 5.2 -2.1 10.35q-1 -5 -3.15 -10.35q-1.05 1.3 -1.1 3q0.7 1.4 1.8 2.4q2.25 1.95 3.15 4.85q-8.6 25.9 -36.7 29.05q-5.45 0.6 -9.35 -2.5q-36.4 -29.15 -30.65 -76.95q3.95 -32.4 11.1 -64.25q5.45 -24.4 24.9 -39.4q21.05 -16.2 40.45 -2.45q4.8 3.35 6.45 9.45q1.05 3.8 4.05 5.55q1.35 -33.3 -32.55 -35.45q-13.2 2.65 -23.95 10.95q-6 4.7 -9.1 11.45q4.5 -18.95 -15.35 -20.95q-20.6 15.3 -26.35 42.35q-10.5 48.9 -7.7 99.2q1.5 26.7 20.9 43q5.5 4.6 11.85 0.95q30 -17.25 31.3 -51.8q-0.95 1.7 -1.1 3.65q-0.05 1.25 -0.8 2.25q-8.4 4.85 -12.8 14.25q-5.1 10.75 -15.65 14.45q-9.65 3.35 -14.6 -4.95q-14.25 -23.8 -14.3 -53q-0.1 -52.3 26.85 -95.2q11.25 -2 18 5.75q-0.95 21.9 -2.75 43.7q-0.6 7.4 -1.9 14.75q-2.95 17.05 3.5 29.55q5.85 -13.9 6.65 -29.9q1.3 -27.5 2.05 -55.15q12.4 2.3 24.25 -1.25q-0.25 15.1 -2.65 29.8q-2.75 16.95 4.2 29.45q1.55 -1.1 1.7 -3q3.85 -37.9 4.55 -76.5q1.05 -59.95 -2.25 -118.45q-4.95 7.6 -4.9 19.5q0.15 32.3 -0.05 64.6q-11.6 3.85 -24.05 3.9q0.6 -26.05 0.65 -52.25q0.05 -16.7 -4.15 -29.5q-3.5 6.7 -3.35 16q0.6 33 -0.6 65.8q-0.9 0.7 -1.2 1.9q-0.85 3.95 0.8 7<g id="2096" transform="matrix(1, 0, 0, 1, -59.85, 0)">
<path style="fill:#000000;fill-opacity:1" d="M274.95,67L275.2 67.75Q275.1 127.1 273.55 186.25Q272.8 216.35 270.95 246.25Q267.35 305.35 266.05 364.7Q264.9 420.2 261.8 475.5Q273.6 471.35 287.1 474.9Q294.45 476.85 302.45 476.85Q315.2 476.85 320.8 471.3L320.85 469.95Q320.85 469.85 321.2 469.7Q322.25 470.7 323 471.95L323.45 472.7Q326.35 471.8 329.45 471.95Q333.65 477.15 331.9 484Q331.3 486.2 329.7 487.7Q293.85 496.4 260.4 485.85L258.95 486.95Q252.4 474.25 255.1 456.95Q256.55 447.8 256.95 438.45Q259.75 378.85 262.1 319.25L266.7 200.75Q268.9 141.65 269.2 82.25Q269.25 71.9 273.2 64Q274.45 65.25 274.95 67M319.2,65.75Q318.1 123.85 314.5 183.55Q311 242.9 310.6 302.75Q310.2 362.2 306.65 421.25Q306.15 429.25 305.1 436.9L312.1 437.25L313.9 437.1L313.95 436.95Q336.7 441.85 358.45 439.1L360.45 438.95Q362.2 440.4 362.75 442.7L363.2 445.7Q363.4 448.4 362.8 451Q362.3 453.2 360.7 454.7Q339.15 456.85 316.45 452.9L302.55 450.95L301.45 455.45Q294.4 447.9 296.65 434Q301.35 404.8 302.85 375Q305.75 316 306.1 256.5Q306.4 196.5 310.15 137.15Q312.3 102.7 316.7 68.95Q317.05 66.4 319.2 65.75M223.2,66.25Q226.8 124.9 226.2 184.75Q225.65 244.45 224.4 304Q224.1 318.9 223.4 334Q220.8 393.35 216.8 452.5Q215.75 468.45 211.7 483.2Q204.6 471.4 206.8 454Q214.1 395.2 218.35 335.85Q222.5 276.9 220.65 217.2Q220.2 202.35 220.15 187.25Q220.1 128.25 220.85 69.5Q220.9 66.85 223.2 66.25M103,67.7Q113.75 59.4 126.95 56.75Q160.85 58.9 159.5 92.2L158.95 92.75Q155.95 91 154.9 87.2Q153.25 81.1 148.45 77.75Q129.05 64 108 80.2Q88.55 95.2 83.1 119.6Q75.95 151.45 72 183.85Q66.25 231.65 102.65 260.8Q106.55 263.9 112 263.3Q140.1 260.15 148.7 234.25L148.4 232.75Q147.5 229.85 145.25 227.9Q144.15 226.9 143.45 225.5L143.5 224.75L143.65 223.25Q143.7 221.55 144.75 220.25L145.95 218.75L147.5 218.55L148.9 218.65L150.2 219.25Q152.35 224.6 153.35 229.6Q154.15 224.45 155.45 219.25Q138.9 217.95 123.2 211.85Q122.1 211.4 121.5 210.4L122.3 205.1L159.2 207Q165.35 245.35 157.7 282.75Q152.1 266.55 151.85 249.5Q146.85 262.15 130.85 271.35Q101.75 288.1 84.25 259.95Q59.85 220.75 66.2 174.5Q73.1 124.65 93.9 79.15Q97 72.4 103 67.7M113.95,314.5Q107.2 306.75 95.95 308.75Q69 351.65 69.1 403.95Q69.15 433.15 83.4 456.95Q88.35 465.25 98 461.9Q108.55 458.2 113.65 447.45Q118.05 438.05 126.45 433.2Q127.2 432.2 127.25 430.95Q127.4 429 128.35 427.3L128.95 426.45Q127.65 461 97.65 478.25Q91.3 481.9 85.8 477.3Q66.4 461 64.9 434.3Q62.1 384 72.6 335.1Q78.35 308.05 98.95 292.75Q118.8 294.75 114.3 313.7L113.95 314.5M138.8,377.95Q139.1 376.75 140 376.05Q141.2 343.25 140.6 310.25Q140.45 300.95 143.95 294.25Q148.15 307.05 148.1 323.75Q148.05 349.95 147.45 376Q159.9 375.95 171.5 372.1Q171.7 339.8 171.55 307.5Q171.5 295.6 176.45 288Q179.75 346.5 178.7 406.45Q178 445.05 174.15 482.95Q174 484.85 172.45 485.95Q165.5 473.45 168.25 456.5Q170.65 441.8 170.9 426.7L171.4 386.65Q159.55 390.2 147.15 387.9Q146.4 415.55 145.1 443.05Q144.3 459.05 138.45 472.95Q132 460.45 134.95 443.4Q136.25 436.05 136.85 428.65Q138.65 406.85 139.6 384.95Q137.95 381.9 138.8 377.95" />
</g>
</svg>
