<?xml version="1.0" encoding="utf-8"?>
<svg version="1.1" id="Layer_1"
xmlns="http://www.w3.org/2000/svg"
xmlns:xlink="http://www.w3.org/1999/xlink"


xml:space="preserve">
q-7.95 4.95 -12.5 13.6q-7.15 13.6 -15.4 26.5q-2.35 3.65 -3.65 7.1q0.75 -20.7 0.3 -41.4q-1.35 -60.15 -3.7 -118.5q-0.5 0.1 -0.5 0.3q-4.6 46.6 -3.05 94.45q2 60.1 0.85 119.25q-0.3 15 -2.1 29.75q-2.1 17.3 4.3 29.25q5 -47.35 2.55 -95.2q0.75 2.25 2.1 4.4q7.15 -14 14.8 -28.25q8 -14.8 14.8 -30q0.35 10.95 4.8 21.65q22.55 54.05 42.85 108.95q5.85 15.8 15.55 26.35q3.65 -4.45 1.3 -9.6q-10.3 -22.05 -18.6 -45.25q-19.45 -54.5 -43.65 -106.95q22.55 -48.55 51.45 -93.45q2.35 -4.95 -1.05 -9q8.65 20.6 1.4 41.9q-7.35 21.55 -29.1 25.2q9.8 -2.45 19.3 1q-3.9 -10.9 -11.8 -19.4q-7.7 -2.4 -15.55 -1.6q-2.1 62.65 -9 125q-0.8 7.05 1.55 13.85q4.3 -19.4 5.55 -39.2q2.15 -9.15 -0.75 -18.9q-9.45 -31.9 -26.9 -60.25q7.6 -4.75 12.2 -12.65q9.7 -16.55 10.6 -35.55q0.45 -9.15 -2.6 -17.75q-13.4 11.35 -30.5 8.25q-6.85 -1.35 -11.1 -7.1q-10.65 -14.45 -10.15 -33.15q0.75 -28.7 23 -47.3q14.6 -3.55 28 2.5q-4.55 -19.6 -25.65 -13.45q-40.15 34.4 -26.15 85.4q3.35 12.25 13.85 19.4q9.7 6.5 21.3 7.95q17.1 -7.75 19.5 -22.95q16.7 14.65 25.05 35.55q7.5 18.8 5.45 39.2q-1.2 12.2 -5.55 23.55q-2.7 -1.2 -5.45 -2.15q-2.3 0.2 -4.45 1q-0.35 0.1 -0.6 0.35q-6.35 10.3 -17.1 15.35q-5.4 2.55 -11.3 1.75q-10.35 -1.4 -14.2 -9.9q-21.4 -47.35 -2.85 -95.6q5.85 -15.3 21.15 -21.45q-28.6 19.65 -30.85 54.15q-2.4 36.3 6.3 70.45q5.8 22.85 28.6 24.55q7.95 0.6 13.5 -4.65q9.65 -9.1 16.1 -19.25q10.1 12.9 23.35 23q20.8 16 39.8 -1.9q20.85 -19.65 14.7 -44.35q-4.5 22.4 -22.4 36.85q-4.8 3.9 -10.85 2.9q-25.85 -4.3 -40.45 -23.8q13.75 -27.25 6.1 -61.6q-3.2 -14.4 -9.05 -28.25q-10.35 -24.55 -34.85 -28.1q-1.25 37.05 -11.25 72.6q-5.9 21.1 -26 21.6q-3.55 -2.15 -4.5 -6.15q-4.95 -21.35 -2.7 -44.1q2.55 -25.7 3.2 -49.5q-10.05 44.05 -7.1 91.3q0.5 7.5 5.6 12.3q17.9 16.65 31.2 -7.15q10.15 -18.15 13.65 -38.55q4.7 -27.55 -0.55 -53.55q-1 0.4 -1 0.8q-25.7 8.35 -34 35.4q-8.65 28.4 -7.75 58.15q0.55 16.9 6.5 32.7q7 18.45 26.1 18.7q17.85 0.2 29.45 -14.2q6.3 -7.8 7.45 -17.75q-19.5 17.9 -43.3 15.75q-11.1 -0.95 -14.55 -12.15q-5.45 -17.8 -5.9 -36.45q2.8 -4.1 1 -8.7q-0.8 -48.15 43.75 -58.8q-3.8 -21.8 -28.25 -20.55q-28.95 10.4 -39.6 40.15q-20.3 56.85 -23.3 117.35q-1.75 36.05 -1.9 71.95q-0.25 0.75 -0.35 1.5q-0.3 2.7 0.35 5.25q0 20.25 0.5 40.45q1.45 58.15 11.15 114.75q3.95 23.35 16.2 43.35q18.6 30.4 54.75 15.85q9.5 -4.35 16.15 -12.75q11.7 -16.95 6 -32.8q-5.3 7.35 -9 16q-10.8 25.25 -36.2 32.5q-31.4 8.95 -42.15 -19.25q-18.65 -48.6 -21.3 -101.4q-2.05 -40.1 -2.8 -80.35q31.45 0.7 62.7 -1.7q3.4 -8 -2.7 -12.2q-30.65 2.4 -60.55 6.9q-0.15 -59.3 11.55 -116.6q5.8 -28.4 23.4 -50.55q24.15 -30.35 52.9 -9.35q-1.85 19.35 -0.55 38.85q1.45 22.25 1.1 44.45q-0.45 27.95 -11.55 53q-1.4 3.1 -4.6 5.2q-4.75 3.15 -10.55 3.95q-6.4 0.35 -11.45 -2.65q-7.25 -4.3 -7.7 -12.15q-0.65 -11.5 -4.5 -22.4q-3.9 10.05 -2.95 20.65q1 11.3 8.75 19.7q10.75 11.6 26.45 7.65q6.9 -6.6 11.6 -14.85q5.45 -9.55 6.25 -20.5q4.5 -60.3 1.05 -120.9q-1.85 59.65 -3.55 119.25q-1.05 37.3 -4.15 74.15q-2.6 30.75 2.15 59.1q3.95 -16.9 4.55 -35.75q-3.7 50.3 -5.05 101.15q-0.2 7.45 -1.65 14.7q-2.75 13.85 4.1 21.8q2.3 -3.75 2.55 -8.25q1.8 -28.65 2.9 -57.7q0.55 -1.65 0.45 -3.5q-5.1 10.1 -5.05 22.75q0.25 47.5 -3.55 94.4q-11.95 0.5 -24.1 -1.15q-5.5 -0.25 -10.1 1.6q1.85 -59.65 2.05 -118.45q-4.25 9 -4.65 20.95q-3.2 -19.65 -25.3 -15.75q-29.8 6.7 -36.1 39.25q-5.5 28.35 -6.55 57.95q-2.1 59.65 -0.4 119.25q0.65 22.5 5.1 44.05q2.95 14.2 14.4 21.25q5.25 3.2 11.15 1.7q36.35 -9.25 34.65 -46q-1.15 0.4 -1.35 1.05q-6.15 19.45 -23.05 29.2q-12.05 6.95 -22.4 -1.25q-6.2 -4.95 -7.5 -13.05q-7.35 -45.2 -7.15 -91.95q0.2 -58.8 8.5 -116.2q2.2 -15.5 13.35 -26.6q17.25 -17.3 38.6 -5.15q0.35 1.85 1.8 2.9<g id="2113" transform="matrix(1, 0, 0, 1, -11.25, 0)">
<path style="fill:#000000;fill-opacity:1" d="M483.25,69.5L482.95 70.25Q454.05 115.15 431.5 163.7Q455.7 216.15 475.15 270.65Q483.45 293.85 493.75 315.9Q496.1 321.05 492.45 325.5Q482.75 314.95 476.9 299.15Q456.6 244.25 434.05 190.2Q429.6 179.5 429.25 168.55L426.55 174.5Q419.75 189.7 411.75 204.5Q404.1 218.75 396.95 232.75Q395.6 230.6 394.85 228.35L394.7 230.25Q397.15 278.1 392.15 325.45L391.7 326.25Q385.3 314.3 387.4 297Q389.2 282.25 389.5 267.25Q390.65 208.1 388.65 148Q387.1 100.15 391.7 53.55Q391.7 53.35 392.2 53.25Q394.55 111.6 395.9 171.75Q396.35 192.45 395.6 213.15Q396.9 209.7 399.25 206.05Q407.5 193.15 414.65 179.55L469.7 74.1Q474.25 65.45 482.2 60.5Q485.6 64.55 483.25 69.5M325.2,62L322.5 60.95Q313 57.5 303.2 59.95L301.5 133.6Q323.25 129.95 330.6 108.4Q337.85 87.1 329.2 66.5L325.2 62M338.6,90.9Q337.7 109.9 328 126.45Q323.4 134.35 315.8 139.1Q333.25 167.45 342.7 199.35Q345.6 209.1 343.45 218.25L326.45 174.75L313.7 140.2L301.1 142.35L299.25 173.8Q298 193.6 293.7 213L292 208.55Q289.65 201.75 290.45 194.7Q297.35 132.35 299.45 69.7L299.95 56.25L303.2 49.5L304.05 53.15L306.4 52.6L308.65 52.15Q316.5 51.35 324.2 53.75Q332.1 62.25 336 73.15Q339.05 81.75 338.6 90.9M327.95,341.75Q316.35 340.3 306.65 333.8Q296.15 326.65 292.8 314.4Q278.8 263.4 318.95 229L321.05 228.55Q342.15 222.4 346.7 242Q333.3 235.95 318.7 239.5Q296.45 258.1 295.7 286.8Q295.2 305.5 305.85 319.95Q310.1 325.7 316.95 327.05Q334.05 330.15 347.45 318.8Q345.05 334 327.95 341.75M325.8,382.15Q307.25 430.4 328.65 477.75Q332.5 486.25 342.85 487.65Q348.75 488.45 354.15 485.9Q364.9 480.85 371.25 470.55L359.25 450.8L350.45 450.45L350.4 443.45Q350.65 443.2 351 443.1Q353.15 442.3 355.45 442.1L360 442.3Q362.75 443.25 365.45 444.45L375.65 463Q380 451.65 381.2 439.45Q383.25 419.05 375.75 400.25Q367.4 379.35 350.7 364.7L349.85 361.45L346.95 360.7Q331.65 366.85 325.8 382.15M376.8,379.3Q382.65 393.15 385.85 407.55Q393.5 441.9 379.75 469.15Q394.35 488.65 420.2 492.95Q426.25 493.95 431.05 490.05Q448.95 475.6 453.45 453.2Q459.6 477.9 438.75 497.55Q419.75 515.45 398.95 499.45Q385.7 489.35 375.6 476.45Q369.15 486.6 359.5 495.7Q353.95 500.95 346 500.35Q323.2 498.65 317.4 475.8Q308.7 441.65 311.1 405.35Q313.35 370.85 341.95 351.2Q366.45 354.75 376.8 379.3M447.45,364.95Q452.7 390.95 448 418.5Q444.5 438.9 434.35 457.05Q421.05 480.85 403.15 464.2Q398.05 459.4 397.55 451.9Q394.6 404.65 404.65 360.6L405.2 360.2Q404.55 384 402 409.7Q399.75 432.45 404.7 453.8Q405.65 457.8 409.2 459.95Q429.3 459.45 435.2 438.35Q445.2 402.8 446.45 365.75Q446.45 365.35 447.45 364.95M518.1,369.9L520.6 377.9L518.75 379.35L514.95 377.7Q470.4 388.35 471.2 436.5L514.2 427.95L515.45 430.5Q517.25 435.1 514.45 439.2L470.9 443.45L470.95 448.35Q471.4 467 476.85 484.8Q480.3 496 491.4 496.95Q515.2 499.1 534.7 481.2Q533.55 491.15 527.25 498.95Q515.65 513.35 497.8 513.15Q478.7 512.9 471.7 494.45Q465.75 478.65 465.2 461.75Q464.3 432 472.95 403.6Q481.25 376.55 506.95 368.2L518.1 369.9M283.95,66.25Q255.2 45.25 231.05 75.6Q213.45 97.75 207.65 126.15Q195.95 183.45 196.1 242.75L196.4 273.9Q226.3 269.4 256.95 267Q263.05 271.2 259.65 279.2L259.2 280Q227.95 282.4 196.5 281.7Q197.25 321.95 199.3 362.05Q201.95 414.85 220.6 463.45Q231.35 491.65 262.75 482.7Q288.15 475.45 298.95 450.2Q302.65 441.55 307.95 434.2Q313.65 450.05 301.95 467L291.6 480.95Q284.95 489.35 275.45 493.7L274.95 494.45L274.45 495.2L273.7 495.95Q237.55 510.5 218.95 480.1Q206.7 460.1 202.75 436.75Q193.05 380.15 191.6 322Q191.1 301.8 191.1 281.55L190.7 281.5Q190.05 278.95 190.35 276.25Q190.45 275.5 190.7 274.75L191.15 274.7Q191.3 238.8 193.05 202.75Q196.05 142.25 216.35 85.4Q227 55.65 255.95 45.25Q280.4 44 284.2 65.8L283.95 66.25M113.7,53.25L80.65 53.75Q84.1 114.35 79.6 174.65Q78.8 185.6 73.35 195.15Q68.65 203.4 61.75 210Q46.05 213.95 35.3 202.35Q27.55 193.95 26.55 182.65Q25.6 172.05 29.5 162Q33.35 172.9 34 184.4Q34.45 192.25 41.7 196.55Q46.75 199.55 53.15 199.2Q58.95 198.4 63.7 195.25Q66.9 193.15 68.3 190.05Q79.4 165 79.85 137.05Q80.2 114.85 78.75 92.6Q77.45 73.1 79.3 53.75L19.75 51.25L21 45.05L113.7 45L113.7 53.25M104.2,223.75Q104 282.55 102.15 342.2L101.9 351.55Q106.5 349.7 112 349.95L117.95 349.95Q130.1 351.6 142.05 351.1L142.6 344.15Q146.4 297.25 146.15 249.75Q146.1 237.1 151.2 227L147.3 344.7L147 353.6L147.05 354.2L147.2 355.75L147.25 356.45Q147.35 358.3 146.8 359.95L144.15 433.25Q143.05 462.3 141.25 490.95Q141 495.45 138.7 499.2Q131.85 491.25 134.6 477.4Q136.05 470.15 136.25 462.7Q137.6 411.85 141.3 361.55L101.65 359.2L98.55 461.45Q97.95 480.3 94 497.2Q89.25 468.85 91.85 438.1Q94.95 401.25 96 363.95Q97.7 304.35 99.55 244.7Q99.95 232.75 104.2 223.75M81.25,240L80 240.25L79.05 239.9Q77.6 238.85 77.25 237Q55.9 224.85 38.65 242.15Q27.5 253.25 25.3 268.75Q17 326.15 16.8 384.95Q16.6 431.7 23.95 476.9Q25.25 485 31.45 489.95Q41.8 498.15 53.85 491.2Q70.75 481.45 76.9 462Q77.1 461.35 78.25 460.95Q79.95 497.7 43.6 506.95Q37.7 508.45 32.45 505.25Q21 498.2 18.05 484Q13.6 462.45 12.95 439.95Q11.25 380.35 13.35 320.7Q14.4 291.1 19.9 262.75Q26.2 230.2 56 223.5Q78.1 219.6 81.3 239.25L81.25 240" />
</g>
</svg>
