<?xml version="1.0" encoding="utf-8"?>
<svg version="1.1" id="Layer_1"
xmlns="http://www.w3.org/2000/svg"
xmlns:xlink="http://www.w3.org/1999/xlink"


xml:space="preserve">
q-23.25 39.25 -5.1 82.45q2.9 6.8 7.15 12.65q31.25 42.6 51.85 91.25q16.3 38.4 10.6 79.9q-3.95 28.8 -29.4 44.9q-33.85 21.4 -65.3 -1q-2.1 2.2 -2.15 5.25q0 2.7 1.6 4.3q26.65 25.5 60.1 5.9q48.95 -28.7 43.15 -85.5q-5.5 -54.1 -33.75 -101.15q-3.75 -6.25 -8.35 -11.55q-23.95 -27.45 -35.35 -61.6q-12 -35.85 11.75 -62.6q21.8 -2.55 39 11.25q2.1 2.8 2.7 6.05q1.8 -3.4 0.15 -8.2q-8.9 -26.2 -39.65 -25.3q-5.85 2.65 -9.3 8.55q-0.15 -33.2 -0.95 -66.25q-0.3 -11.25 1.15 -22.35q2.1 -16.25 -3.2 -28.4q-2.7 10.9 -4.2 22.5q-4.5 34.1 -10.9 67.9q-5.8 30.5 -9.65 59.6q17.25 -51.5 22.25 -107.5q0.8 36.9 -0.6 73.9q-0.6 14.6 4.6 23.85q16.65 -55.5 22.75 -114.5q-1.8 32.25 -1 64.5q0.8 31.35 9 58.5q1.25 -1.3 1.5 -3.05q1.6 -10.15 -0.05 -20.45q-5.4 -33.65 -3.85 -67.95q1.4 -30.35 -3.6 -59.3q-1.8 -0.3 -2.15 1.5q-5.2 19.6 -4.25 41.75q0.9 21.8 -1.25 42.9q-3.1 29.8 -8.85 58.8q-3.35 16.9 2.1 28.55q7.2 -42.65 10.15 -86.15q4.6 22.3 10.2 45.05q6.25 25.4 16.9 46.6q3.45 -3.3 1.95 -7.9q-13.85 -42.8 -25.45 -86.35q15.55 -16.95 19.25 -40.75q4.3 -27.6 -18.75 -39.25q-5.35 39.35 -4.3 79.9q12.25 8.15 14.35 22.65q-8.25 6.7 -19 4.75q16.15 7.65 20.8 -7.45q1.5 -4.85 1.2 -9.85q-0.5 -8.9 -5.7 -16.15q-2.55 -3.55 -5.65 -6.55q10.55 -8.95 4.5 -20.6q-2.3 -4.45 -6.4 -7.45q-0.95 1 -2.85 1.5q-7 1.8 -13.65 4.75q-18.8 17.6 -24.65 43.2q-4.95 21.7 -8.8 43.3q-10.45 58.2 -8.6 118.25q0.45 14.95 -0.4 29.9q-2.2 40.1 18 72.65q2.95 4.75 8.1 6q23.95 5.65 44.55 -11q20.7 -16.75 15.3 -38.35q-2 1.4 -3.1 3.7q-16.3 33.85 -54.65 35.3q-11.8 -9.85 -15.4 -24.9q-6.2 -25.8 -7.65 -52.75q-1.7 -32.55 -0.05 -64.9q18.7 1.9 36.35 -6.4q1.9 -5.8 -2.75 -8.5q-16.4 4.55 -33.4 8.4q1.45 -22.8 4.55 -45.55q4.85 -35.6 14.7 -70.25q6.6 -23.2 29.6 -29.45q18.4 -4.95 32.3 5.6q0.55 -3.85 -2.3 -8.1q-3.2 -4.8 -7.95 -7.9q-7.35 -3.25 -15.6 -3.1q0.75 -34.8 5.95 -62.1q16.65 15.05 10 38.6q-3.85 13.7 -14.3 23.5q31.15 -1.55 41.15 27.15q1.95 -5.75 -0.1 -11.4q-10.3 -28.4 -40.15 -29.85q-4.7 1.1 -8.55 4.3q-19.65 16.45 -27 41.4q-16.9 57.7 -22.75 117.45q-5.75 58.6 5.7 115.85q3.75 18.5 13.7 34.3q18.3 29.05 46.75 10.45q9.6 -6.25 16.6 -15.15q3.85 -4.85 6.35 -9.85q-0.5 20.7 -0.05 40.95q2.3 1.1 3.1 -1.55q2.85 -9.55 3.25 -20.1q1.45 -35.1 -2.85 -69.05q-0.5 -0.4 -1 -0.4q-1.85 1.15 -1.75 4q11.85 2.55 22.2 3.55q-0.2 0.1 -0.35 0.25q-3.5 16.2 -14.2 29.65q-11.8 14.85 -30.2 14.15q-14.75 -0.6 -20.8 -13.65q-17.3 -37.55 -19 -79.65q-2.4 -58.85 8.45 -116.5q8.4 -44.5 30.15 -83.55q4.65 -8.4 14.2 -8.85q-1.8 39.55 -3.3 78.05q17.05 3.95 32.8 2.85q2.7 -5.65 -0.25 -11.25q4.55 -36.65 1.95 -72.75q-3 2.35 -3.2 6.9<g id="2107" transform="matrix(1, 0, 0, 1, -37.9, 0)">
<path style="fill:#000000;fill-opacity:1" d="M384.95,74.75Q415.7 73.85 424.6 100.05Q426.25 104.85 424.45 108.25L424.45 107.5L424.15 103.8Q423.55 100.55 421.45 97.75Q404.25 83.95 382.45 86.5Q358.7 113.25 370.7 149.1Q382.1 183.25 406.05 210.7Q410.65 216 414.4 222.25Q442.65 269.3 448.15 323.4Q453.95 380.2 405 408.9Q371.55 428.5 344.9 403Q343.3 401.4 343.3 398.7Q343.35 395.65 345.45 393.45Q376.9 415.85 410.75 394.45Q436.2 378.35 440.15 349.55Q445.85 308.05 429.55 269.65Q408.95 221 377.7 178.4Q373.45 172.55 370.55 165.75Q352.4 122.55 375.65 83.3Q379.1 77.4 384.95 74.75M328.45,162.25Q333.45 191.2 332.05 221.55Q330.5 255.85 335.9 289.5Q337.55 299.8 335.95 309.95Q335.7 311.7 334.45 313Q326.25 285.85 325.45 254.5Q324.65 222.25 326.45 190Q320.35 249 303.7 304.5Q298.5 295.25 299.1 280.65Q300.5 243.65 299.7 206.75Q294.7 262.75 277.45 314.25Q281.3 285.15 287.1 254.65Q293.5 220.85 298 186.75Q299.5 175.15 302.2 164.25Q307.5 176.4 305.4 192.65Q303.95 203.75 304.25 215Q305.05 248.05 305.2 281.25L326.3 163.75Q326.65 161.95 328.45 162.25M255.9,83.15L255.95 83Q279 94.65 274.7 122.25Q271 146.05 255.45 163Q267.05 206.55 280.9 249.35Q282.4 253.95 278.95 257.25Q268.3 236.05 262.05 210.65Q256.45 187.9 251.85 165.6Q248.9 209.1 241.7 251.75Q236.25 240.1 239.6 223.2Q245.35 194.2 248.45 164.4Q250.6 143.3 249.7 121.5Q248.75 99.35 253.95 79.75L255.35 83.45L255.9 83.15M291.45,82.1L295.05 84.7Q299.15 87.7 301.45 92.15Q307.5 103.8 296.95 112.75Q300.05 115.75 302.6 119.3Q307.8 126.55 308.3 135.45Q308.6 140.45 307.1 145.3Q302.45 160.4 286.3 152.75L286.7 146.25Q297.45 148.2 305.7 141.5L305.55 139.9Q303.45 125.4 291.2 117.25L288.35 116.9L283.35 159.75L283.15 159.85Q282.1 119.3 287.45 79.95L291.45 82.1M228.55,84.85L230.45 85.5Q235.2 88.6 238.4 93.4Q241.25 97.65 240.7 101.5Q226.8 90.95 208.4 95.9Q185.4 102.15 178.8 125.35Q168.95 160 164.1 195.6Q161 218.35 159.55 241.15Q176.55 237.3 192.95 232.75Q197.6 235.45 195.7 241.25L195.45 242Q177.8 250.3 159.1 248.4Q157.45 280.75 159.15 313.3Q160.6 340.25 166.8 366.05Q170.4 381.1 182.2 390.95Q220.55 389.5 236.85 355.65Q237.95 353.35 239.95 351.95Q245.35 373.55 224.65 390.3Q204.05 406.95 180.1 401.3Q174.95 400.05 172 395.3Q151.8 362.75 154 322.65Q154.85 307.7 154.4 292.75Q152.55 232.7 163 174.5Q166.85 152.9 171.8 131.2Q177.65 105.6 196.45 88Q203.1 85.05 210.1 83.25Q212 82.75 212.95 81.75Q221.2 81.6 228.55 84.85M300.7,100.5L288.45 87.6L288.65 108.85L300.7 100.5M254.2,153.75Q264.65 143.95 268.5 130.25Q275.15 106.7 258.5 91.65Q253.3 118.95 252.55 153.75L254.2 153.75M86.85,91.95Q65.1 131 56.7 175.5Q45.85 233.15 48.25 292Q49.95 334.1 67.25 371.65Q73.3 384.7 88.05 385.3Q106.45 386 118.25 371.15Q128.95 357.7 132.45 341.5L133.25 340.75Q133.4 340.6 133.6 340.5L133.7 328.5Q123.35 327.5 111.5 324.95L105.7 323.75L105.3 321.45L105.2 320L105.2 319.25Q105.1 316.4 106.95 315.25L135.2 317.6Q135.7 317.6 136.2 318Q140.5 351.95 139.05 387.05Q138.65 397.6 135.8 407.15Q135 409.8 132.7 408.7Q132.25 388.45 132.75 367.75Q130.25 372.75 126.4 377.6Q119.4 386.5 109.8 392.75Q81.35 411.35 63.05 382.3Q53.1 366.5 49.35 348Q37.9 290.75 43.65 232.15Q49.5 172.4 66.4 114.7Q73.75 89.75 93.4 73.3Q97.25 70.1 101.95 69Q131.8 70.45 142.1 98.85Q144.15 104.5 142.2 110.25Q132.2 81.55 101.05 83.1Q91.5 83.55 86.85 91.95M271.2,313.75Q273.8 349.85 269.25 386.5L269.2 387.2L319.2 395.2Q322.15 400.8 319.45 406.45Q303.7 407.55 286.65 403.6L264.7 398.7Q266.2 360.2 268 320.65Q268.2 316.1 271.2 313.75" />
</g>
</svg>
