<?xml version="1.0" encoding="utf-8"?>
<svg version="1.1" id="Layer_1"
xmlns="http://www.w3.org/2000/svg"
xmlns:xlink="http://www.w3.org/1999/xlink"


xml:space="preserve">
q-9.2 47.05 -17.15 94.1q-0.95 -48.45 -1 -95.25q-7.5 29.55 -12.15 61.9q-1.6 11.1 -5.95 21.25q-6.7 15.65 -3.9 29.1q12.45 -30.25 17.5 -63q1.4 28.4 -1.2 56.6q-1.15 12.45 4.95 18.9q11.65 -41.85 16.75 -85.25q-0.25 32.05 1.35 63.75q0.7 12.85 6.4 21q2.25 -1.65 2 -4.5q-5.55 -59.1 -6.5 -118.5q-1 0.35 -1.1 0.9q2.9 -4 6.15 -7.5q2.25 -3.75 1.25 -8.25q-1.75 -7.7 -5 -15q-15.25 11.75 -19.45 30.6q-9.05 40.95 -11.65 83q-4.35 45.9 -1.4 91.65q1.1 16.9 11.1 30.6q13 2.75 23.8 -5.05q29.65 -21.35 19.7 -53.7q-3.4 13.2 -10.9 24.5q-11 16.6 -30.6 19.25q-14.05 -24.75 -10.2 -56.25q3.05 -25.15 4.35 -50.45q3.35 -2.95 4.95 -6.9q1.4 -3.4 -0.2 -6.65q-15.25 -3.75 -31.9 2.35q1.9 -21.4 14.55 -38.85q-0.9 0.85 -1.1 2.4q-2.75 14.1 -3.55 29.7q-3 59.3 -4 118.45q-0.5 29.75 -4.85 59.1q-2.5 16.95 2.55 29.4q17.15 -2.4 30.65 -13.3q23.95 -19.35 29.9 -50.15q11.4 -59.15 -4.35 -117.55q-12.05 -44.75 -55 -54.45q26.75 20.15 33.95 53.7q12.7 59.05 -8.75 115.4q-2.95 7.8 -8.8 13.6q-18.15 18.2 -43.95 21.25q4.05 -26.5 4.75 -54q1.5 -54.2 1.75 -107.25q8.9 2.35 16.55 8.15q8.15 -47.8 5.9 -95.25q-4.4 17.75 -6.35 36.95q-3.8 37.55 -3.9 74.4q16.5 0.9 31.5 -1.75q0.95 -3.75 1 -7.5q-18.6 8.5 -24.75 27.75q-18.3 56.9 -19 117.25q-0.3 25.95 -1.2 51.7q-1.15 31.2 21.25 49.3q22.05 2.85 38.4 -11.4q19.7 -17.25 12.05 -39.1q-2.15 0.7 -2.6 3q-3.45 17.9 -18.65 27.75q-14.6 6 -29.8 1.8q-4.9 -1.35 -6.5 -6.45q-7.6 -24.6 -7.85 -51.35q-0.2 -22.45 1.2 -44.75q17.7 -4.25 36.2 -6.2q4.2 -4.45 1.8 -9.65q-19.05 0.9 -36.05 8.3q2.3 -30.85 7.65 -61.3q6.65 -37.75 43.7 -46.05q15.35 -3.45 22.7 12.3q1.6 -21.05 -20.05 -26.7q-8.95 2.2 -17.75 6.2q-6.05 45.1 -15.75 89.75q-1.8 -45.35 -6 -90q-7.9 14.75 -8.85 33.4q-0.95 18.05 -4.55 35.8q-4.6 22.8 -3.85 43.55q12.1 -47.65 16 -97.25q-0.85 49.7 5.5 97.5q13.2 -36.25 17.25 -76q-3.55 42.8 6.25 81.5q1.75 -0.75 1.55 -2.75q-4.4 -41.8 -2 -85.45q1 -17.4 -5.55 -29.05q-25.4 36.1 -33.2 80.05q-7.75 43.2 -8.6 87.85q-0.75 36.55 22.75 62.7q8.1 8.95 20.15 8.9q19.95 -0.1 35.6 -13.25q20.25 -17.05 14.65 -39.6q-10.7 22.45 -34.05 35.2q-5 2.7 -10.35 2.3q-35.5 -2.55 -39.65 -38.75q-3.8 -33.05 -0.7 -66.15q3.95 -41.95 19.2 -81.65q6.55 -17.05 20.1 -28.65q27.7 -23.75 48.7 2.75q4.65 4 8.3 8.95q1.85 -5.7 -0.45 -11.4q-10.75 -26.6 -37.8 -30.6q-2.05 0.95 -4.95 1.35q-15.35 2.3 -23.9 14.45q-0.05 -0.15 -0.3 -0.2q-16.05 -2.65 -30.55 4q-1.5 0.65 -2.9 1.4q-3.75 35.25 -3.85 69.6q9.7 -34 5 -71q-6.95 49.4 -6.95 100.15q19.6 5.2 39.35 2q3.7 -6.35 0.4 -13q-18.75 4.1 -34.2 -2.15q4.1 -48.8 3.65 -98.3<g id="2106" transform="matrix(1, 0, 0, 1, -50.6, 0)">
<path style="fill:#000000;fill-opacity:1" d="M350.45,143.25Q351.4 202.65 356.95 261.75Q357.2 264.6 354.95 266.25Q349.25 258.1 348.55 245.25Q346.95 213.55 347.2 181.5Q342.1 224.9 330.45 266.75Q324.35 260.3 325.5 247.85Q328.1 219.65 326.7 191.25Q321.65 224 309.2 254.25Q306.4 240.8 313.1 225.15Q317.45 215 319.05 203.9Q323.7 171.55 331.2 142Q331.25 188.8 332.2 237.25L332.2 238.25Q340.15 191.2 349.35 144.15Q349.45 143.6 350.45 143.25M381,192.85L376.8 246.6Q393.45 240.5 408.7 244.25L413.45 242.25L414.2 243.7Q415.8 246.95 414.4 250.35Q412.8 254.3 409.45 257.25L376.1 257Q374.8 282.3 371.75 307.45Q367.9 338.95 381.95 363.7Q401.55 361.05 412.55 344.45Q420.05 333.15 423.45 319.95Q433.4 352.3 403.75 373.65Q392.95 381.45 379.95 378.7Q369.95 365 368.85 348.1Q365.9 302.35 370.25 256.45L368.7 256.25L368.45 248L370.85 247.6Q373.45 205.55 382.5 164.6Q386.7 145.75 401.95 134L411.45 135L414.7 137.25Q417.95 144.55 419.7 152.25Q420.7 156.75 418.45 160.5L409.7 146.35L401.7 146.5Q398.45 150 395.55 154Q382.9 171.45 381 192.85M451.2,139.55Q494.15 149.25 506.2 194Q521.95 252.4 510.55 311.55Q504.6 342.35 480.65 361.7Q467.15 372.6 450 375L441.45 375.45L440.85 374.9L439.45 381.95Q434.4 369.5 436.9 352.55Q441.25 323.2 441.75 293.45Q442.75 234.3 445.75 175Q446.55 159.4 449.3 145.3L449.25 144.5L449.35 142.25Q449.55 140.7 450.45 139.85L451.2 136.75L451.2 139.55M454.25,148.85L451.15 148Q450.9 201.05 449.4 255.25L448 306.95Q447.3 334.45 443.25 360.95Q469.05 357.9 487.2 339.7Q493.05 333.9 496 326.1Q517.45 269.75 504.75 210.7Q497.55 177.15 470.8 157Q463.15 151.2 454.25 148.85M346.45,371.2Q346.4 374.95 345.45 378.7L345.2 379.45Q330.2 382.1 313.7 381.2Q313.8 344.35 317.6 306.8Q319.55 287.6 323.95 269.85L324.45 269.75Q326.7 317.2 318.55 365L318.45 365.7L342.45 366.95L346.45 371.2M228.95,129.25Q250.6 134.9 249 155.95L248.45 156.25Q241.1 140.5 225.75 143.95Q188.7 152.25 182.05 190Q176.7 220.45 174.4 251.3Q191.4 243.9 210.45 243L211.7 243.8L212.45 244.5Q214.85 249.7 210.65 254.15L209.95 254.75Q191.45 256.7 173.75 260.95Q172.35 283.25 172.55 305.7Q172.8 332.45 180.4 357.05Q182 362.15 186.9 363.5Q202.1 367.7 216.7 361.7Q231.9 351.85 235.35 333.95Q235.8 331.65 237.95 330.95Q245.6 352.8 225.9 370.05Q209.55 384.3 187.5 381.45Q165.1 363.35 166.25 332.15Q167.15 306.4 167.45 280.45Q168.15 220.1 186.45 163.2Q192.6 143.95 211.2 135.45Q220 131.45 228.95 129.25M292.5,166.8Q290.1 210.45 294.5 252.25Q294.7 254.25 292.95 255Q283.15 216.3 286.7 173.5Q282.65 213.25 269.45 249.5Q263.1 201.7 263.95 152Q260.05 201.6 247.95 249.25Q247.2 228.5 251.8 205.7Q255.4 187.95 256.35 169.9Q257.3 151.25 265.2 136.5Q269.4 181.15 271.2 226.5L271.2 227.5Q280.9 182.85 286.95 137.75Q293.5 149.4 292.5 166.8M117.05,128.85Q119.95 128.45 122 127.5Q149.05 131.5 159.8 158.1Q162.1 163.8 160.25 169.5L156.05 163.95Q152.4 159 147.75 155Q126.75 128.5 99.05 152.25Q85.5 163.85 78.95 180.9Q63.7 220.6 59.75 262.55Q56.65 295.65 60.45 328.7Q64.6 364.9 100.1 367.45Q105.45 367.85 110.45 365.15Q133.8 352.4 144.5 329.95Q150.1 352.5 129.85 369.55Q114.2 382.7 94.25 382.8Q82.2 382.85 74.1 373.9Q50.6 347.75 51.35 311.2Q52.2 266.55 59.95 223.35Q67.75 179.4 93.15 143.3Q101.7 131.15 117.05 128.85M151.95,310.7Q156.65 347.7 146.95 381.7L145.9 382.15L145.45 382.2L144.9 381.8Q145 347.45 148.75 312.2L116.5 312.7L116.75 306.7Q118.15 305.95 119.65 305.3Q134.15 298.65 150.2 301.3Q150.45 301.35 150.5 301.5L151.95 310.7M265.4,265.55L265.65 266.25Q266.1 315.75 262 364.55Q277.45 370.8 296.2 366.7Q299.5 373.35 295.8 379.7Q276.05 382.9 256.45 377.7L256.6 364.95Q256.6 314.2 263.55 264.8L265.4 265.55" />
</g>
</svg>
