<?xml version="1.0" encoding="utf-8"?>
<svg version="1.1" id="Layer_1"
xmlns="http://www.w3.org/2000/svg"
xmlns:xlink="http://www.w3.org/1999/xlink"


xml:space="preserve">
q-21.5 0.05 -29.7 25.15q-6.75 20.7 -7.45 42.8q-0.6 18.5 -0.55 37q0.25 18.6 -0.75 37.15q-1.2 21.55 0.25 42.9q1.5 21.95 18 35.65q12.05 10 24.95 -1.15q17.4 -14.9 19.8 -37.2q0.7 -6.25 -3.8 -10.6q-6.5 35 -36.6 26.25q-7.6 -2.25 -8.7 -10.5q-1.65 -12.65 -1.85 -25.85q16.4 4.15 32.6 0.75q4.2 -7.15 -0.6 -13.85q-16.4 -2 -32.05 3.05q-2.5 -62.25 10.3 -122.8q15.1 -4.45 26.1 6.55q4.5 -12.45 -9.65 -21.1q-6.8 41.6 -4.6 85.05q3.05 59.45 3 119.25q-0.1 60.15 -6.75 119.1q-1.45 12.95 4.1 20.3q29.75 -4.5 38.95 -32.35q17.15 -52.2 10.05 -108.2q-1.9 -14.85 -4.9 -29.65q-4.8 -23.4 -22.9 -35.3q15.35 -13.7 17.85 -38.5q1.75 -17.6 1 -35.4q-2.15 -52.55 -49.8 -72.65q-2.55 1.4 -2.45 4.7q0.05 1.75 0.55 3.45q-0.2 -21.9 -5.25 -43.1q-5.25 -22.05 -24.3 -34q-12.6 -7.95 -26.8 -3.85q-3.7 9.7 -3.7 21.05q0.15 106.15 -10.2 211.9q-5.5 56.1 -7.25 112.2q-0.3 9.15 4.05 6.95q6.4 -35.65 9.45 -71.85q4.65 -54.6 6.35 -109.55q8.15 46.25 19.85 91.55q12.3 47.65 26.5 93.95q0.45 1.5 1.55 2.8q-11.85 -57.8 -28.9 -114.35q-8 -26.55 -16.35 -52.85q9.85 -5.5 17.15 -14.4q17.65 -21.45 21.2 -49q1.1 -8.75 0.7 -17.35q-3.95 39.2 -43.35 45.9q-1.3 -57.2 -1.55 -112.7q6.2 3.3 13.2 5.2q5.75 4.85 10.65 10.75q25.75 31.15 21.5 73.1q18.5 25.25 22.35 56.3q2.7 22 2 44.2q-0.5 16.65 -4.25 32.9q-3.9 17.1 -15.45 29.9q-13.5 15 -34.3 15.3q-2.1 0.55 -3.9 1.6q6.45 -85.4 3.4 -176.65q-3.8 51.65 -3.75 104q-1.3 4.3 0.2 8.35q0.6 59.25 0.6 118.45q0 21.3 7.6 40.8q5.75 14.85 21.8 9.95q31.6 -9.75 48.2 -39.25q0.5 -2.05 1.95 -3.55q4.7 -5 3.75 -12.2q-0.5 -3.6 -2.95 -6q-2.3 0.4 -3.65 2.55q-0.95 1.6 -2.25 2.8q-0.65 -0.85 -1.55 -1.15q-1.65 1.65 -2.7 3.65q-16.65 33 -52.55 35.1q-4.55 -2.85 -5.45 -7.8q-9.5 -52 -8.6 -106.15q22.5 1.5 45.3 -0.65q2.35 -6.5 -1.4 -11.95q-23.1 -2.55 -44 1.85q0.8 -30.45 2 -60.85q0.55 -15.05 0.5 -30q-0.1 -28 15.85 -49.25q2.05 -2.75 4.85 -3.9q30.15 -12.35 55.3 7.4q1.65 -1.8 0.6 -3.75q-13.9 -25.9 -46.6 -23.25q-16.65 6.05 -24.55 22.55q-8.65 18.2 -10.2 38.6q12.35 15.1 16.6 35.15q11.25 53.4 -28.85 88.75q-10.35 4.8 -21.25 8q1.7 -54.05 -0.15 -106.95q20.05 -1.35 32.3 13.55q-3.1 -38.2 -43.35 -44q-38.5 17.05 -50.1 59.9q-15.7 57.95 -15.7 118.6q0.05 46.05 2.7 91.55q2.75 47.9 37.65 79.4q16.25 3.15 28.85 -8.55q6.5 -6.05 12.05 -12.95q7.2 -8.95 10.3 -18.25q-1.35 12.2 -3.1 24.35q-1.7 12 5.6 14.4q8 -48.15 4.05 -95.95q-15.7 1.5 -29.75 8.75q-0.7 3 0.2 5.95q13.5 1.9 26.5 -1.95q-0.6 12.45 -1.6 24.8q-0.4 -2.9 -1.15 -5.85q-1.9 0.1 -2.4 1.95q-7.85 29.9 -34.1 47q-5.15 3.3 -10.7 0.35q-25.05 -13.35 -30.75 -41.65q-7.3 -36.25 -8.65 -73.6q-2.15 -58.8 5.75 -116.4q6.15 -44.85 36.4 -77.35q13.4 -14.4 31.8 -6.5q20.35 8.75 29.4 26.75<g id="2098" transform="matrix(1, 0, 0, 1, -42.15, 0)">
<path style="fill:#000000;fill-opacity:1" d="M502.8,90.15Q516.95 98.8 512.45 111.25L511.05 109.8Q500.05 98.8 484.95 103.25L475.7 116Q462.9 176.55 465.4 238.8Q481.05 233.75 497.45 235.75Q502.25 242.45 498.05 249.6Q481.85 253 465.45 248.85L465.6 266.45L465.85 284.05L466.15 301.65L466.6 319.25L468.05 382.95Q468.25 396.15 469.9 408.8Q471 417.05 478.6 419.3Q508.7 428.05 515.2 393.05L518.95 385.95Q523.45 390.3 522.75 396.55Q520.35 418.85 502.95 433.75Q490.05 444.9 478 434.9Q461.5 421.2 460 399.25Q458.55 377.9 459.75 356.35Q460.75 337.8 460.5 319.2L460.15 289.4L459.9 259.6L459.8 229.75Q459.75 211.25 460.35 192.75L461.55 155.85Q462.25 133.75 469 113.05Q477.2 87.95 498.7 87.9L502.8 90.15M379.55,91Q379.45 87.7 382 86.3L382.2 86.25Q429.85 106.35 432 158.9Q432.75 176.7 431 194.3Q428.5 219.1 413.15 232.8Q431.25 244.7 436.05 268.1Q439.05 282.9 440.95 297.75Q448.05 353.75 430.9 405.95Q421.7 433.8 391.95 438.3L376.7 440.45L375.85 438.15Q370.3 430.8 371.75 417.85Q378.4 358.9 378.5 298.75Q378.55 238.95 375.5 179.5Q373.3 136.05 380.1 94.45Q379.6 92.75 379.55 91M344.05,185.6Q340.5 213.15 322.85 234.6Q315.55 243.5 305.7 249Q314.05 275.3 322.05 301.85Q339.1 358.4 350.95 416.2L351.95 404.1L350.8 438.6Q349.7 437.3 349.25 435.8Q335.05 389.5 322.75 341.85Q311.05 296.55 302.9 250.3L286.9 253.95Q285.2 308.9 280.55 363.5Q277.5 399.7 271.1 435.35Q266.75 437.55 267.05 428.4Q268.8 372.3 274.3 316.2Q284.65 210.45 284.5 104.3Q284.5 92.95 288.2 83.25L288.4 87.3Q302.6 83.2 315.2 91.15Q334.25 103.1 339.5 125.15Q344.55 146.35 344.75 168.25Q345.15 176.85 344.05 185.6M405.1,112.5Q400.2 106.6 394.45 101.75Q387.45 99.85 381.25 96.55Q381.5 152.05 382.8 209.25L383.25 231.5Q422.65 224.8 426.6 185.6Q430.85 143.65 405.1 112.5M406.05,238.1L383.55 246.35Q386.6 337.6 380.15 423Q381.95 421.95 384.05 421.4Q404.85 421.1 418.35 406.1Q429.9 393.3 433.8 376.2Q437.55 359.95 438.05 343.3Q438.75 321.1 436.05 299.1Q432.2 268.05 413.7 242.8L411.45 242.25L406.05 238.1M182.4,101.8Q190.3 85.3 206.95 79.25Q239.65 76.6 253.55 102.5Q254.6 104.45 252.95 106.25Q227.8 86.5 197.65 98.85Q194.85 100 192.8 102.75Q176.85 124 176.95 152Q177 166.95 176.45 182Q175.25 212.4 174.45 242.85Q195.35 238.45 218.45 241Q222.2 246.45 219.85 252.95L219.45 253.75Q196.65 255.9 174.15 254.4L173.15 300.5Q172.25 354.65 181.75 406.65Q182.65 411.6 187.2 414.45Q223.1 412.35 239.75 379.35Q240.8 377.35 242.45 375.7L242.15 375.05L241.05 373.4L240.15 372.05L239.45 371.2L239.8 370.9Q240.7 371.2 241.35 372.05L242.4 373.3L242.95 373.45L243.55 373.3Q244.85 372.1 245.8 370.5Q247.15 368.35 249.45 367.95Q251.9 370.35 252.4 373.95Q253.35 381.15 248.65 386.15Q247.2 387.65 246.7 389.7Q230.1 419.2 198.5 428.95Q182.45 433.85 176.7 419Q169.1 399.5 169.1 378.2Q169.1 319 168.5 259.75L168.45 253.35Q166.95 249.3 168.25 245L168.45 244.4Q168.4 192.05 172.2 140.4Q173.75 120 182.4 101.8M288.65,94.8Q290.5 147.7 288.8 201.75L287.45 240.25Q298.35 237.05 308.7 232.25Q348.8 196.9 337.55 143.5Q333.3 123.45 320.95 108.35Q308.7 93.45 288.65 94.8M151.2,120.75Q142.15 102.75 121.8 94Q103.4 86.1 90 100.5Q59.75 133 53.6 177.85Q45.7 235.45 47.85 294.25Q49.2 331.6 56.5 367.85Q62.2 396.15 87.25 409.5Q92.8 412.45 97.95 409.15Q124.2 392.05 132.05 362.15Q132.55 360.3 134.45 360.2Q135.2 363.15 135.6 366.05Q136.6 353.7 137.2 341.25Q124.2 345.1 110.7 343.2Q109.8 340.25 110.5 337.25L110.7 336.5Q124.75 329.25 140.45 327.75Q144.4 375.55 136.4 423.7L136.2 424.45Q128.9 422.05 130.6 410.05Q132.35 397.9 133.7 385.7Q130.6 395 123.4 403.95Q117.85 410.85 111.35 416.9Q98.75 428.6 82.5 425.45Q47.6 393.95 44.85 346.05Q42.2 300.55 42.15 254.5Q42.15 193.85 57.85 135.9Q69.45 93.05 107.95 76Q148.2 81.8 151.3 120L151.2 120.75" />
</g>
</svg>
