<?xml version="1.0" encoding="utf-8"?>
<svg version="1.1" id="Layer_1"
xmlns="http://www.w3.org/2000/svg"
xmlns:xlink="http://www.w3.org/1999/xlink"


xml:space="preserve">
q-14.35 47.2 -12.65 97.9q0.9 26.4 -1.65 52.9q-0.95 9.65 -2.5 19.3q-0.35 6.5 1.45 12.65q0.95 3.3 2.45 6.3q9.4 -45.45 10.15 -92q-8 -55.7 -38.55 -108.3q24.6 -10.4 28.05 -36.1q0.6 -4.45 0.05 -8.8q-1.2 -9 -4.9 -17.4q-4.15 -8.3 -11.2 -14.15q-9.15 -7.55 -20.65 -10.7q-17.85 21.5 -46.25 26.4q1.55 -38 2.55 -75.3q39.7 0.35 48.3 39.25q-1.15 5.45 -4.6 9.65q-0.1 -2.8 -1.55 -5.2q-18 -2.7 -40.3 0.4q-1.15 24.75 3.05 49q0.6 3.35 1.85 6.6q5.5 -25.3 6 -52.15q1.1 -61.2 -3.05 -122.3q1.55 -2.15 1.9 -4.9q-5.85 20.85 -6.75 42.4q-1.15 26.9 21.25 33.05q10.55 3.05 21.4 -0.65q26.1 -8.55 19.85 -31q-0.25 -0.95 -0.8 -1.75q-11 16.75 -30.4 20.9q-6.85 1.3 -13.85 0.85q-10.45 -18.3 -9.65 -39.2q3.25 -5.2 0.55 -11q-0.3 -13.85 13.75 -24.5q8.7 -6.6 19.5 -7.55q9.05 -0.15 17.05 4.05q0.15 -15.35 -15.75 -16.65q-8.55 -0.7 -16.6 2.55q-16.2 11 -21.85 31.3q-5 6.9 -4.55 15.8q0.3 6.35 2.7 7.35q3.95 -11.4 1.95 -23.2q-2.15 0.65 -2.2 3.2q-0.3 39.05 -2.3 78q-3.15 2.1 -5.9 -0.2q-7.9 -6.65 -13.35 -12.05q-5.55 22.5 17.25 29q17 -10.4 12.75 -31.25q0.3 -33.8 -1.05 -67.5<g id="2111" transform="matrix(1, 0, 0, 1, -139.35, 0)">
<path style="fill:#000000;fill-opacity:1" d="M349.1,184L362.95 181.25Q374.45 184.4 383.6 191.95Q390.65 197.8 394.8 206.1L395.6 207.8Q399.3 216.2 400.5 225.2Q401.05 229.55 400.45 234Q397 259.7 372.4 270.1Q402.95 322.7 410.95 378.4L408.95 378.9L366.6 272.75L345.85 278.2Q345.1 324.75 335.7 370.2Q334.2 367.2 333.25 363.9Q331.45 357.75 331.8 351.25L332 349.25Q333.55 339.6 334.5 329.95Q337.05 303.45 336.15 277.05Q334.45 226.35 348.8 179.15L349.1 184M397.2,230.5Q388.6 191.6 348.9 191.25Q347.9 228.55 346.35 266.55Q374.75 261.65 392.6 240.15Q396.05 235.95 397.2 230.5M231.7,195L187.45 193.75Q191.6 254.85 190.5 316.05Q190 342.9 184.5 368.2Q183.25 364.95 182.65 361.6Q178.45 337.35 179.6 312.6L185.05 193.75L139.35 192.95L140.15 182.95L146.3 182.4Q168.6 179.3 186.6 182L231.9 181.95L232.15 182.3Q233.6 184.7 233.7 187.5L233.7 188.25L233.6 190.1Q233.25 192.85 231.7 195M278.1,263.85Q286.15 260.6 294.7 261.3Q310.6 262.6 310.45 277.95Q302.45 273.75 293.4 273.9Q282.6 274.85 273.9 281.45Q259.85 292.1 260.15 305.95L299.45 299.95L301.35 303.45Q304.05 309.25 300.8 314.45L257.3 319.75Q256.5 340.65 266.95 358.95Q273.95 359.4 280.8 358.1Q300.2 353.95 311.2 337.2Q311.75 338 312 338.95Q318.25 361.4 292.15 369.95Q281.3 373.65 270.75 370.6Q248.35 364.45 249.5 337.55Q250.4 316 256.25 295.15Q261.9 274.85 278.1 263.85M228.1,241.2Q225.7 240.2 225.4 233.85Q224.95 224.95 229.95 218.05L230.05 218Q232.05 229.8 228.1 241.2M229.45,270.5L229.95 271.2Q231.3 304.9 231 338.7L230.7 339.45Q234.95 360.3 217.95 370.7Q195.15 364.2 200.7 341.7Q206.15 347.1 214.05 353.75Q216.8 356.05 219.95 353.95L223.7 350.2Q225.7 311.25 226 272.2Q226.05 269.65 228.2 269L229.45 270.5" />
</g>
</svg>
