<?xml version="1.0" encoding="utf-8"?>
<svg version="1.1" id="Layer_1"
xmlns="http://www.w3.org/2000/svg"
xmlns:xlink="http://www.w3.org/1999/xlink"


xml:space="preserve">
q-13.65 42.7 -21.5 88.55q-7.9 46.25 -17.6 92.25q-0.45 -35.25 -2.2 -70.3q-2.8 -55.55 -10.45 -109.45q-0.8 -0.15 -0.8 0.25q-6.35 16.8 -9 35.75q-8 57.7 -19.75 114.8q-8.9 43.15 -19.1 85.9q-1.8 7.55 -4.75 14.55q-7.1 16.95 0.85 28.9q16.55 -55.15 30.75 -112.2q14.3 -57.5 25.2 -115.6q10.9 -58.05 20.65 -116.25q2.15 -12.85 3.6 -25.45q0.65 33.6 3.3 67.75q4.65 58.9 2.65 118.45q-0.55 17 5.6 29.3q2.75 -3.5 2.8 -8.25q3.4 -9.4 5.2 -19.75q9.85 -58.3 20.25 -116.5q5.25 -29.5 12.5 -58.2q2.05 -8.05 3.25 -15.9q4.45 30.3 7.1 61q5.15 59.3 3.85 119.3q-1.25 59.3 0.9 118.5q1.1 29.65 -1.4 59.15q-1.5 17.1 6.5 28.6q4.4 -5.8 3.5 -13.6q-2.35 -19.75 -2.3 -39.65q0.1 -59.55 -0.3 -119.25q-0.45 -59.65 -2.75 -119.25q-2.3 -59.5 -13.15 -116.95q-8.2 37.35 -40.75 54.75q1.7 -39 1.55 -77.55q23.05 -0.7 37.85 18.2q1.85 2.35 1.35 4.6q-2.55 -6.75 -7.8 -11.8q-1.95 -1.95 -4.2 -3.5q-4.95 -3.5 -10.65 -5.55q-5.55 -1.95 -11.4 -2.95q-7.05 2.9 -5.35 9.9q0.1 0.4 0.3 0.45q-5.05 78.6 -12.35 157.25q-0.75 8.2 0 16.45q14 -43.15 13.1 -92.45q5.35 51.95 25.25 99.35q0.6 1.5 1.85 2.75q1 -54.05 -22.85 -105.6q30.75 -23.95 27.85 -60.6q-0.2 -2.8 -1.2 -5.45q-2.8 -33.1 -40.35 -34q-45.8 16.55 -60.7 63.5q-17.5 55.1 -20.8 113.05q-1.85 5.45 0.55 10.5q-2.75 59.15 4.4 117.05q4.85 38.75 41 54.25q6.15 2.65 12.35 0.45q44.95 -15.85 66.1 -59.2q7.85 -16.15 -1.75 -26.25q-11.85 35.4 -42.15 59.65q-24.95 20 -48.6 -0.65q-22.7 -19.85 -23.55 -50.5q-1.6 -59.25 -0.45 -119.25q36.9 0.2 73.45 -6.4q4.05 -7.4 -0.65 -14.2q-36.4 6.65 -72.9 9.35q2.6 -46.8 12.9 -92.35q9.9 -43.95 42.95 -72.5q6.65 -5.75 14.9 -7.55q34.3 -7.45 43.65 21.85q2.65 -2.2 2.35 -5.75q9.7 -8.35 0.95 -21.6q-17.2 -26.05 -50.7 -19.4q-29.75 8.7 -44.7 37.5q-23.45 45.1 -32.35 95.5q-10.3 58.45 -9.65 118.7q0.6 59.95 27.55 113.35q8.65 17.05 25.75 25.95q45.8 23.85 81.4 -13.75q10.2 -10.8 14.35 -22.75q0.55 8.95 -0.75 17.8q-2.1 14.1 4.65 22.95q1.6 -0.55 1.7 -2.25q2.3 -54.5 -3.2 -108q-1.1 0.85 -3 0.6q-21.85 -2.55 -41.25 5.65q-0.9 4.3 1.6 7.45q22.35 -1.75 43.5 -1q-0.65 0.1 -1.25 0.35q-0.9 0.75 -1.4 1.7q-2.25 4.2 -1.55 8.85q0.3 2.25 0.95 4.55q-18.5 44.95 -68 43.65q-14.2 -0.35 -24.2 -10q-39.35 -38.1 -44.05 -94.3q-4.85 -58.15 4.3 -115.65q5.8 -36.45 16.1 -71.8q12.3 -42.15 44.1 -71.35q5.95 -1.85 12 -3.45q33.5 -9.05 50.75 16.2q0.05 0.75 0.35 1.4<g id="2100" transform="matrix(1, 0, 0, 1, -24.65, 0)">
<path style="fill:#000000;fill-opacity:1" d="M491.3,106.85L491.45 106.75Q502.3 164.2 504.6 223.7Q506.9 283.3 507.35 342.95Q507.75 402.65 507.65 462.2Q507.6 482.1 509.95 501.85Q510.85 509.65 506.45 515.45Q498.45 503.95 499.95 486.85Q502.45 457.35 501.35 427.7Q499.2 368.5 500.45 309.2Q501.75 249.2 496.6 189.9Q493.95 159.2 489.5 128.9Q488.3 136.75 486.25 144.8Q479 173.5 473.75 203Q463.35 261.2 453.5 319.5Q451.7 329.85 448.3 339.25L448.25 341.7Q448.2 346.45 445.45 349.95Q439.3 337.65 439.85 320.65Q441.85 261.1 437.2 202.2Q434.55 168.05 433.9 134.45Q432.45 147.05 430.3 159.9Q420.55 218.1 409.65 276.15Q398.75 334.25 384.45 391.75Q370.25 448.8 353.7 503.95Q345.75 492 352.85 475.05Q355.8 468.05 357.6 460.5L385.8 344.05Q396 301.3 404.9 258.15Q416.65 201.05 424.65 143.35Q427.3 124.4 433.65 107.6L433.65 105.75Q433.65 105.35 434.45 105.5L436.2 101.25L435.65 113.7Q443.3 167.6 446.1 223.15Q447.85 258.2 448.3 293.45Q458 247.45 465.9 201.2Q473.75 155.35 487.4 112.65L488.4 109.5L491.2 101L491.3 106.85M385.45,129.2Q370.65 110.3 347.6 111Q347.75 149.55 346.05 188.55Q378.6 171.15 386.8 133.8Q387.3 131.55 385.45 129.2M391.2,130Q394.1 166.65 363.35 190.6Q387.2 242.15 386.2 296.2Q384.95 294.95 384.35 293.45Q364.45 246.05 359.1 194.1L345.3 203.25Q346.2 252.55 332.2 295.7L331.2 285Q330.45 276.75 331.2 268.55Q338.5 189.9 343.55 111.3L341.8 111.15Q341.6 111.1 341.5 110.7Q339.8 103.7 346.85 100.8L347.45 99.25L347.5 100.5L348.5 100.25L355.95 100.75Q361.8 101.75 367.35 103.7Q373.05 105.75 378 109.25Q380.25 110.8 382.2 112.75Q387.45 117.8 390 124.55Q391 127.2 391.2 130M320.95,135.25Q311.6 105.95 277.3 113.4Q269.05 115.2 262.4 120.95Q229.35 149.5 219.45 193.45Q209.15 239 206.55 285.8Q243.05 283.1 279.45 276.45Q284.15 283.25 280.1 290.65L279.45 291.45Q242.9 298.05 206 297.85L205.7 307.45Q204.55 367.45 206.15 426.7Q207 457.35 229.7 477.2Q253.35 497.85 278.3 477.85Q308.6 453.6 320.45 418.2Q330.05 428.3 322.2 444.45Q301.05 487.8 256.1 503.65Q249.9 505.85 243.75 503.2Q207.6 487.7 202.75 448.95Q195.6 391.05 198.35 331.9L200.05 297.8L196.5 297.7Q194.1 292.65 195.95 287.2L196.25 286.45L200.65 286.2L201.45 272.05Q204.75 214.1 222.25 159Q237.15 112.05 282.95 95.5Q320.5 96.4 323.3 129.5Q323.6 133.05 320.95 135.25M161.15,130.4Q160.85 129.75 160.8 129L160.75 126.75L160.75 123Q143.5 97.75 110 106.8Q103.95 108.4 98 110.25Q66.2 139.45 53.9 181.6Q43.6 216.95 37.8 253.4Q28.65 310.9 33.5 369.05Q38.2 425.25 77.55 463.35Q87.55 473 101.75 473.35Q151.25 474.65 169.75 429.7L169.75 429.05Q169.1 426.75 168.8 424.5Q168.1 419.85 170.35 415.65Q170.85 414.7 171.75 413.95Q172.35 413.7 173 413.6L173.9 413.55L174 405.45Q152.85 404.7 130.5 406.45Q128 403.3 128.9 399L129.75 395.95Q149.15 387.75 171 390.3Q172.9 390.55 174 389.7L177.5 389.95Q183 443.45 180.7 497.95Q180.6 499.65 179 500.2Q172.25 491.35 174.35 477.25Q175.65 468.4 175.1 459.45L174.35 444.75Q170.2 456.7 160 467.5Q124.4 505.1 78.6 481.25Q61.5 472.35 52.85 455.3Q25.9 401.9 25.3 341.95Q24.65 281.7 34.95 223.25Q43.85 172.85 67.3 127.75Q82.25 98.95 112 90.25Q145.5 83.6 162.7 109.65Q171.45 122.9 161.75 131.25L161.15 130.4" />
</g>
</svg>
