<?xml version="1.0" encoding="utf-8"?>
<svg version="1.1" id="Layer_1"
xmlns="http://www.w3.org/2000/svg"
xmlns:xlink="http://www.w3.org/1999/xlink"


xml:space="preserve">
q-1.85 59.15 -5.3 118.45q-0.9 15.05 -3.5 29.75q-3.1 17.25 3.55 30q5.3 -7.2 3 -16q2.95 -27.2 4.75 -54.7q3.45 -54.3 2.7 -107.8q1.15 -0.9 1.6 -2.25q1.35 -4.1 0.15 -8.25q-0.45 1.45 -0.65 3q-0.25 2.65 0.1 5.25q-2.95 30.05 -4.35 60.6q-12.25 1.2 -23.35 5.15q-0.15 -32.15 -2.75 -63.95q-0.5 0.1 -0.5 0.25q-3.9 55.85 -5.2 112.45q-0.35 15.15 -3.2 29.75q-2.7 14.15 4.65 21.75q1.9 -2.65 2.25 -6q2.05 -19.65 3.25 -39.65q1.4 -23.65 1.5 -47.1q10.95 3.55 22.75 0.85q-1.7 41.4 -2.8 83.15q-0.25 10.4 6.3 13.5q2.6 -37.8 4.45 -76.4q2.95 -59.9 -0.45 -118.55q-1.4 0.05 -1.55 1.55q-23.4 5 -48.5 3.75q-2.3 2.65 -1.8 6.5q-5 43.05 -2.95 87.2q1.35 30.1 -2.5 59.7q-2.25 17.4 4.4 29.2q5.65 -31.8 5.25 -65.25q-0.6 -56.15 -2.45 -110.85q2.55 -3.55 1.95 -8q-0.2 -1.2 -0.75 -2.25q-0.35 -0.4 -0.75 -0.4q-27.7 4.35 -30.25 32.4q-1.55 17.05 -2.25 34.55q-0.95 23.85 19.5 30.8q14.5 -6.6 27.65 -15.4q16.7 -11.15 6.35 -24.85q-15.3 20.8 -40.75 23.25q-7.3 -11.75 -6.25 -26.3q14.15 -1.5 28.5 -4.1q2.05 -2.15 2.35 -5.2q0.55 -5.3 -2.6 -9.05q-10.05 1.4 -19.6 4.95q1.7 -8.1 4.6 -15.95q19 -14.95 38.25 -2.5q2.8 -3.7 0.75 -8q-2.55 -5.45 -7.5 -9.25q-5.1 -1.7 -10.55 -1.95q4.85 -12.95 1.5 -26.25q-7.2 11.05 -2.8 23.2q-2.8 35.6 -4 71.2q-5.9 4.55 -12.75 2.5q-3.05 -2.25 -4 -6q-1.55 -1.55 -3.75 -0.25q-3.05 2.8 -2.25 7.25q3.85 20.55 24.25 11.75q6.85 -9.75 6.55 -22.25q-0.85 -33.25 -2.55 -65.25q-1.4 -0.2 -1.5 1.05<g id="2103" transform="matrix(1, 0, 0, 1, -138.2, 0)">
<path style="fill:#000000;fill-opacity:1" d="M351.25,197.4L316.7 197L316.1 195.45L315.9 194.75Q315.55 192.15 315.8 189.5Q316 187.95 316.45 186.5L367.95 183.25L398.45 184.55L399.2 185L399.95 186.5L400.2 187.25Q401.4 191.4 400.05 195.5Q399.6 196.85 398.45 197.75L356.4 197.45Q357.15 250.95 353.7 305.25Q351.9 332.75 348.95 359.95Q351.25 368.75 345.95 375.95Q339.3 363.2 342.4 345.95Q345 331.25 345.9 316.2Q349.35 256.9 351.2 197.75L351.25 197.4M421.2,182.25Q424.6 240.9 421.65 300.8Q419.8 339.4 417.2 377.2Q410.65 374.1 410.9 363.7Q412 321.95 413.7 280.55Q401.9 283.25 390.95 279.7Q390.85 303.15 389.45 326.8Q388.25 346.8 386.2 366.45Q385.85 369.8 383.95 372.45Q376.6 364.85 379.3 350.7Q382.15 336.1 382.5 320.95Q383.8 264.35 387.7 208.5Q387.7 208.35 388.2 208.25Q390.8 240.05 390.95 272.2Q402.05 268.25 414.3 267.05L415.3 244.4Q416.7 213.85 419.65 183.8Q419.8 182.3 421.2 182.25M231.2,183.5L231.55 184.2Q232.1 185.25 232.3 186.45L232.4 187.25Q233 191.7 230.45 195.25L185.55 194.85Q187.4 249.55 188 305.7Q188.4 339.15 182.75 370.95Q176.1 359.15 178.35 341.75Q182.2 312.15 180.85 282.05Q178.8 237.9 183.8 194.85L139.75 194.75L139.35 193.95L138.8 191.7L138.7 191Q138.2 187.15 140.5 184.5Q165.6 185.75 189 180.75L230.45 183.1Q230.85 183.1 231.2 183.5M297.5,273.15L299.45 273.7Q304.4 277.5 306.95 282.95Q309 287.25 306.2 290.95Q286.95 278.5 267.95 293.45Q265.05 301.3 263.35 309.4Q272.9 305.85 282.95 304.45L289.45 304.7Q292.6 308.45 292.05 313.75Q291.75 316.8 289.7 318.95Q275.35 321.55 261.2 323.05L260.95 325.65Q259.9 340.2 267.2 351.95Q292.65 349.5 307.95 328.7Q318.3 342.4 301.6 353.55Q288.45 362.35 273.95 368.95Q253.5 362 254.45 338.15Q255.15 320.65 256.7 303.6Q259.25 275.55 286.95 271.2Q292.4 271.45 297.5 273.15M225.4,248.45Q221 236.3 228.2 225.25Q231.55 238.55 226.7 251.5L225.4 248.45M227.45,276.45Q229.15 308.45 230 341.7Q230.3 354.2 223.45 363.95Q203.05 372.75 199.2 352.2Q198.4 347.75 201.45 344.95Q203.65 343.65 205.2 345.2Q206.15 348.95 209.2 351.2Q216.05 353.25 221.95 348.7Q223.15 313.1 225.95 277.5Q226.05 276.25 227.45 276.45" />
</g>
</svg>
