<?xml version="1.0" encoding="utf-8"?>
<svg version="1.1" id="Layer_1"
xmlns="http://www.w3.org/2000/svg"
xmlns:xlink="http://www.w3.org/1999/xlink"


xml:space="preserve">
q-28.2 39.15 -29 87.65q-0.25 14.45 -1.35 29.15q-2.1 28.95 11 52.6q8.55 11.9 23.7 8.2q33.85 -8.15 29.8 -37.95q-17.3 27.45 -48.25 20q-0.6 -1.1 -1.55 -1.85q-3.9 -3.2 -4.85 -7.55q-8.75 -38.6 -4.7 -78.4q4.05 -40.35 31.35 -69.65q12.7 -4.6 26 -1q4 2.75 8.35 4.8q1.9 0.9 3.15 -0.8q-7.7 -18.7 -30.5 -16.1q-9.95 1.75 -16.15 10.3q-4.45 21.8 1.75 42.75q6.1 -24.25 3.5 -51q-6.55 -3.65 -13.55 -2.3q-3.6 0.9 -7.2 2.3q-37.95 -1.95 -74.95 6.25q-7.1 73.95 -5.6 148.55q0.15 7.7 1.7 15.1q1.1 5.15 3.05 10q2.55 -4.95 -1.3 -9q-0.85 -0.2 -1.3 0.6q-7.15 12.5 -10.35 26.55q-13.05 57.4 -25.8 115q-3.25 14.65 -8.8 28.6q-5.05 12.75 2 21.2q7.9 -23.55 13.3 -48.75q4.8 -22.5 10.15 -44.85q17.5 -0.75 34.75 -4.85q3.35 14.6 5.55 29.7q1.95 13.65 9.95 20q3.05 -9.3 0 -19.05q-8.7 -27.95 -14.6 -56.95q-11.4 -55.8 -26.25 -110.35q7.1 -11.75 0.65 -24.2q-5.4 11.45 -0.95 24.4q4.25 5.4 11.2 5.95q4.55 -3.8 5.15 -9.5q4.35 -40.65 -1.65 -81.25q-4.35 19.1 -2.5 38.95q1.75 18.55 -1.75 36.55q-3.6 3.35 -2.9 10.75q0.35 3.5 2.5 6.25<g id="2130" transform="matrix(1, 0, 0, 1, -137.75, 0)">
<path style="fill:#000000;fill-opacity:1" d="M386.95,180.5Q409.75 177.9 417.45 196.6L417.45 197.25Q416.2 198.95 414.3 198.05Q409.95 196 405.95 193.25Q392.65 189.65 379.95 194.25Q352.65 223.55 348.6 263.9Q344.55 303.7 353.3 342.3Q354.25 346.65 358.15 349.85Q359.1 350.6 359.7 351.7Q390.65 359.15 407.95 331.7Q412 361.5 378.15 369.65Q363 373.35 354.45 361.45L353.9 361.1L351.45 360.2Q338.35 336.55 340.45 307.6Q341.55 292.9 341.8 278.45Q342.6 229.95 370.8 190.8Q377 182.25 386.95 180.5M395.6,324.2L396.2 319.7Q399.8 318.3 403.4 317.4Q410.4 316.05 416.95 319.7Q419.55 346.45 413.45 370.7Q407.25 349.75 411.7 327.95L395.95 325.7L395.6 324.2M215.4,191.2L184.05 193.9L179.5 367.7Q177.55 362.85 176.45 357.7Q174.9 350.3 174.75 342.6Q173.25 268 180.35 194.05L137.75 194.25L138 187.5Q175 179.3 212.95 181.25L214.1 182.2Q217.95 186.25 215.4 191.2M282.35,185.85Q297.2 240.4 308.6 296.2Q314.5 325.2 323.2 353.15Q326.25 362.9 323.2 372.2Q315.2 365.85 313.25 352.2Q311.05 337.1 307.7 322.5L296.15 272.25Q278.9 276.35 261.4 277.1Q256.05 299.45 251.25 321.95Q245.85 347.15 237.95 370.7Q230.9 362.25 235.95 349.5Q241.5 335.55 244.75 320.9Q257.5 263.3 270.55 205.9Q273.75 191.85 280.9 179.35Q281.35 178.55 282.2 178.75L282.35 185.85M280.15,203.15L263.5 268.15L293.75 261.95L280.15 203.15M207.25,251.4Q202.8 238.45 208.2 227Q214.65 239.45 207.55 251.2L207.25 251.4M191,355.5Q190.3 348.1 193.9 344.75L198.8 352.55L203.95 352.45Q207.45 334.45 205.7 315.9Q203.85 296.05 208.2 276.95Q214.2 317.55 209.85 358.2Q209.25 363.9 204.7 367.7Q197.75 367.15 193.5 361.75Q191.35 359 191 355.5" />
</g>
</svg>
