<?xml version="1.0" encoding="utf-8"?>
<svg version="1.1" id="Layer_1"
xmlns="http://www.w3.org/2000/svg"
xmlns:xlink="http://www.w3.org/1999/xlink"


xml:space="preserve">
q-18.45 11.1 -22.55 32.95q-3.9 20.7 0.05 41.4q3.85 20.05 11.85 38.8q7.75 18.05 14.85 36.25q6 15.45 10.1 31.55q4.1 16.05 6.2 32.4q2.2 17 -5 32.65q-9.85 21.5 -34.15 20.7q-8.95 3.35 -5.4 12.4q3.8 9.6 15.55 8.75q10.95 -0.45 19.95 -6.9q6.6 -4.65 10.95 -11.25q2.3 -3.55 4.1 -7.2q3 -6 4.55 -12.6q4.75 -20.25 -1.35 -40.4q-18.15 -60.05 -40.25 -119.35q-17.3 -46.45 16.75 -71.75q2.6 -1.9 5.9 -2.15q2.65 -0.95 1.75 -4.55q-0.95 -4 -3.7 -7.15q-2.25 -2.5 -5.25 -4.15q-28.05 19.35 -32.75 54.5q-7.9 58.65 -8.65 118.5q-0.25 21.8 -0.85 43.45q-0.85 30 13 54.75q15.3 8.55 28.85 -2.75q17.8 -14.9 13.9 -33q-4.65 2.05 -7.3 6.75q-11.65 20.6 -32.95 15.75q-1.4 -2.3 -2 -4.55q-7.6 -28.4 -7.55 -58.9q0.05 -31.5 1.1 -63q17.8 0.05 34.45 -5.25q0.7 -4 -1.05 -7.45q-14.6 4.55 -29.85 7.35q0.9 -22.35 2.3 -44.65q2.6 -40.3 32.05 -65.95q3.95 2.25 6 6.15q2.3 4.4 6.25 5.1q1.35 -2.8 0.7 -5.95q-2.3 -11.3 -12.95 -16.55q-1.1 44.45 -4.75 88.6q-15.8 0.65 -30.65 4.35q4.6 -59.6 2.15 -118.5q-4.9 47.3 -7.15 96.9q-2.75 59.4 -7.65 118.6q-2.5 30.6 0.05 59.2q1 -0.5 1.2 -1.15q4.1 -17.85 4.7 -36.55q1.75 -50.15 5.35 -100.1q15.75 3.1 31.25 -1.3q-6.05 59.25 -8.2 118.5q0.75 2.8 3.25 1.5q3.3 -17.7 4.3 -36q3.2 -59.4 8.6 -118.45q5.5 -59.45 4.1 -118.5q-4.1 16.05 -4.55 34.5q-11.9 38.95 -18.45 80.75q-9.1 58.35 -23.15 115.75q-5.35 21.95 -12.55 42.95q-4.55 13.25 1.65 21.45q15.7 -53.95 27.25 -109.85q12.35 3.7 25.85 2.45q1.05 -1.75 1.2 -3.75q-0.1 -1.65 -1 -3q-0.35 -0.4 -0.75 -0.4q7.55 -37.7 14.7 -75.5q2.1 -11.05 3.35 -21.8q3.3 39.45 6.2 79q4.35 58.8 3.3 118.55q-0.5 31.85 9.4 58.5q3.25 -4.95 2.25 -11.25q-2.55 -16.05 -3.05 -32.25q-1.85 -59.65 -5.55 -118.55q-3.7 -59.5 -10.9 -117.65q-3.1 3.95 -2.75 10.55q-11.7 -12.15 -29.3 -10.25q-16.15 1.9 -28.5 13.3q-43.6 40.3 -50.05 99.3q-6.3 58.35 3.65 115.7q4.8 27.95 23.05 48.65q8.3 9.45 20.65 7.7q16.15 -2.3 29.65 -12.25q13.95 -10.3 12.55 -23.45q-9.4 9.05 -20.6 15.75q-5.65 3.45 -11.8 5.2q-31 8.8 -41.5 -21.5q-14.9 -42.9 -14.8 -88.65q0.15 -55.8 23.9 -105.7q16.4 -34.4 52.4 -42.7q23.4 -5.45 30.9 13.15q-0.15 0.3 0.05 0.5q0.2 0.2 0.55 0.2q1.9 -4.85 -0.45 -9.8<g id="2126" transform="matrix(1, 0, 0, 1, -42.1, 0)">
<path style="fill:#000000;fill-opacity:1" d="M352.45,124.5Q355.45 126.15 357.7 128.65Q360.45 131.8 361.4 135.8Q362.3 139.4 359.65 140.35L352.95 134.25Q349.65 134.5 347.05 136.4Q313 161.7 330.3 208.15Q352.4 267.45 370.55 327.5Q376.65 347.65 371.9 367.9Q370.35 374.5 367.35 380.5Q365.55 384.15 363.25 387.7Q358.9 394.3 352.3 398.95Q343.3 405.4 332.35 405.85Q320.6 406.7 316.8 397.1Q313.25 388.05 322.2 384.7L323.45 390.7L327.3 390.95Q351.6 391.75 361.45 370.25Q368.65 354.6 366.45 337.6Q364.35 321.25 360.25 305.2Q356.15 289.1 350.15 273.65Q343.05 255.45 335.3 237.4Q327.3 218.65 323.45 198.6Q319.5 177.9 323.4 157.2Q327.5 135.35 345.95 124.25L352.45 124.5M433.45,127.5Q444.1 132.75 446.4 144.05Q447.05 147.2 445.7 150Q441.75 149.3 439.45 144.9Q437.4 141 433.45 138.75L432.95 138.75L426.45 138.75Q397 164.4 394.4 204.7Q393 227 392.1 249.35Q407.35 246.55 421.95 242L425.4 242.5L425.95 243Q427.7 246.45 427 250.45L426.2 253.5Q409.55 258.8 391.75 258.75Q390.7 290.25 390.65 321.75Q390.6 352.25 398.2 380.65Q398.8 382.9 400.2 385.2Q421.5 390.05 433.15 369.45Q435.8 364.75 440.45 362.7Q444.35 380.8 426.55 395.7Q413 407 397.7 398.45Q383.85 373.7 384.7 343.7Q385.3 322.05 385.55 300.25Q386.3 240.4 394.2 181.75Q398.9 146.6 426.95 127.25L433.45 127.5M220.2,116.5Q221.6 175.55 216.1 235Q210.7 294.05 207.5 353.45Q206.5 371.75 203.2 389.45Q200.7 390.75 199.95 387.95Q202.1 328.7 208.15 269.45L209.95 250.85Q194.45 255.25 178.7 252.15Q175.1 302.1 173.35 352.25Q172.75 370.95 168.65 388.8Q168.45 389.45 167.45 389.95Q164.9 361.35 167.4 330.75Q172.3 271.55 175.05 212.15Q177.3 162.55 182.2 115.25Q184.65 174.15 180.05 233.75L179.3 243.85Q194.15 240.15 209.95 239.5L210.9 239.6Q214.55 195.45 215.65 151Q216.1 132.55 220.2 116.5M279.2,122Q286.4 180.15 290.1 239.65Q293.8 298.55 295.65 358.2Q296.15 374.4 298.7 390.45Q299.7 396.75 296.45 401.7Q286.55 375.05 287.05 343.2Q288.1 283.45 283.75 224.65Q280.85 185.1 277.55 145.65Q276.3 156.4 274.2 167.45Q267.05 205.25 259.5 242.95L283.2 244.35Q283.6 244.35 283.95 244.75Q284.85 246.1 284.95 247.75L284.95 248.5L284.9 250Q284.75 252 283.7 253.75Q270.2 255 257.85 251.3L251.2 283.6Q239.65 339.5 223.95 393.45Q217.75 385.25 222.3 372Q229.5 351 234.85 329.05Q248.9 271.65 258 213.3Q264.55 171.5 276.45 132.55Q276.1 125.95 279.2 122M156.95,115.75L157.85 117.95Q160.2 122.9 158.3 127.75L156.2 132.25Q155.85 132.25 155.65 132.05Q155.45 131.85 155.6 131.55L155.9 130.7L156.45 129.25Q148.95 110.65 125.55 116.1Q89.55 124.4 73.15 158.8Q49.4 208.7 49.25 264.5Q49.15 310.25 64.05 353.15Q74.55 383.45 105.55 374.65Q111.7 372.9 117.35 369.45Q128.55 362.75 137.95 353.7Q139.35 366.85 125.4 377.15Q111.9 387.1 95.75 389.4Q83.4 391.15 75.1 381.7Q56.85 361 52.05 333.05Q42.1 275.7 48.4 217.35Q54.85 158.35 98.45 118.05Q110.8 106.65 126.95 104.75Q144.55 102.85 156.25 115L156.95 115.75" />
</g>
</svg>
