<?xml version="1.0" encoding="utf-8"?>
<svg version="1.1" id="Layer_1"
xmlns="http://www.w3.org/2000/svg"
xmlns:xlink="http://www.w3.org/1999/xlink"


xml:space="preserve">
q-2 59.15 -2.7 118.5q-0.65 59.7 -3.6 119.15q-0.8 16.9 5.05 29.3q4.2 -14.55 4.05 -30.75q-0.45 -59.6 0.75 -119.2q1.15 -60 -2.05 -118.5q-1.45 -0.1 -1.5 1.5q0.55 59.75 -1.9 119.25q-2.45 59.6 -5.25 119.2q-0.5 11.15 -2.05 22.25q-1.45 10.05 1.65 16.8q-0.4 3.25 0.5 6.45q46.85 2.6 95 2.5q3.4 -7.35 -1.4 -14q-22.8 -3.05 -46.55 -0.9q-19.15 2.55 -39 1.35q-2.25 -0.1 -4.3 0.55q3.15 -44.1 4.45 -88.65q1.65 -59.9 1 -118.5q-6.4 24.7 -6.2 53.5q-43.5 8.65 -88.5 7q-13.55 -0.55 -27 -0.2q-37.1 0.95 -73.45 8.45q-5.85 6.1 -1 13.25q17.65 1.2 35.55 -4.5q9.3 -2.95 18.8 -2.4q28.35 1.6 56.35 0.65q-4.15 14.6 -0.5 31.7q9.35 43.9 12.05 89q3 45.15 -7.6 88.35q-7.8 31.85 -39.1 42.25q-4.6 1.55 -9.25 1.15q-49 -4.15 -69.65 -48.2q1.3 -1.8 3.25 -3.75q-1.65 -0.75 -2.75 -2.75q-0.85 -3.75 -5 -4.75q-7.2 7.15 -3.75 17.75q11.5 35.15 46.05 53.35q28.75 15.2 54.75 -4.55q32.75 -24.85 35.2 -66.25q3.55 -59.7 -0.95 -119.35q-2.25 -29.75 -7.5 -58.85q-6.5 -36.05 -6.6 -71.95q37.85 -1.6 75 -7.85q3.8 -7.2 -0.85 -13.4q-2.5 5.6 -3.05 12.35q-2.55 8.8 -4.4 17.7q-11.9 56.8 -21.8 113.95q-4.1 23.5 -9.35 46.8q-2.25 4.6 -0.4 9.2q-7.15 30.05 -16.3 59.65q-6.6 21.4 -14.4 42.65q-8.35 22.6 -4.6 44.1q7.95 -12 11.95 -28.25q29.35 -0.65 58.75 -5.35q15.7 59.25 29.25 115.15q1.95 12.75 9 18.25q1.6 -1.5 1.95 -3.75q1.6 -11.25 -2.15 -22.2q-12.9 -37.85 -24.05 -76.35q-5.5 -18.9 -9.9 -38q3.75 -7.2 -0.85 -13.4q-6.7 -31.75 -10.45 -64.05q-5.85 -49.8 -12.95 -99.1q1.1 -8.95 0.1 -17.35q-1.45 0.25 -2.2 1.35q4.35 33.15 7.85 66.5q4.25 40.6 13.45 80.3q11.85 -50.4 20.05 -101.65q4.3 -26.85 11.35 -53.1<g id="2132" transform="matrix(1, 0, 0, 1, -38.3, 0)">
<path style="fill:#000000;fill-opacity:1" d="M360.2,108Q363.4 166.5 362.25 226.5Q361.05 286.1 361.5 345.7Q361.65 361.9 357.45 376.45Q351.6 364.05 352.4 347.15Q355.35 287.7 356 228Q356.7 168.65 358.7 109.5Q358.75 107.9 360.2 108M400.45,104.5Q401.1 163.1 399.45 223L396.1 342.2Q394.8 386.75 391.65 430.85Q393.7 430.2 395.95 430.3Q415.8 431.5 434.95 428.95Q458.7 426.8 481.5 429.85L481.7 429.45L482.05 429.6Q486.85 436.25 483.45 443.6L482.45 445.2Q434.3 445.3 387.45 442.7L387.2 441.95Q386.3 438.75 386.7 435.5Q383.6 428.75 385.05 418.7Q386.6 407.6 387.1 396.45Q389.9 336.85 392.35 277.25Q394.8 217.75 394.25 158Q394.05 129.2 400.45 104.5M238.3,115.15L237.7 116Q200.55 122.25 162.7 123.85Q162.8 159.75 169.3 195.8Q174.55 224.9 176.8 254.65Q181.3 314.3 177.75 374Q175.3 415.4 142.55 440.25Q116.55 460 87.8 444.8Q53.25 426.6 41.75 391.45Q38.3 380.85 45.5 373.7Q49.65 374.7 50.5 378.45Q51.6 380.45 53.25 381.2L51 382.2Q49.05 384.15 47.75 385.95Q68.4 430 117.4 434.15Q122.05 434.55 126.65 433Q157.95 422.6 165.75 390.75Q176.35 347.55 173.35 302.4L169.75 244.7Q167.05 199.6 157.7 155.7Q154.05 138.6 158.2 124Q130.2 124.95 101.85 123.35Q92.35 122.8 83.05 125.75Q65.15 131.45 47.5 130.25Q42.65 123.1 48.5 117Q84.85 109.5 121.95 108.55Q135.4 108.2 148.95 108.75Q193.95 110.4 237.45 101.75Q242.1 107.95 238.3 115.15M278.75,108.35Q279.5 107.25 280.95 107L281.2 107Q282.2 115.4 281.1 124.35Q288.2 173.65 294.05 223.45Q297.8 255.75 304.5 287.5L309.45 286.75Q314.05 292.95 310.3 300.15L309.7 301L307.55 301.4Q311.95 320.5 317.45 339.4Q328.6 377.9 341.5 415.75Q345.25 426.7 343.65 437.95Q343.3 440.2 341.7 441.7Q334.65 436.2 332.7 423.45Q319.15 367.55 303.45 308.3L301.9 302.35Q272.5 307.05 243.15 307.7L242.4 310.7L214.15 425.45Q210.15 441.7 202.2 453.7Q198.45 432.2 206.8 409.6Q214.6 388.35 221.2 366.95Q230.35 337.35 237.5 307.3Q235.65 302.7 237.9 298.1L238.45 297.5L239.85 297.3Q245.1 274 249.2 250.5Q259.1 193.35 271 136.55Q272.85 127.65 275.4 118.85Q275.95 112.1 278.45 106.5L278.75 108.35M265.9,194.75Q257.7 246 245.85 296.4L298.55 288.45Q289.35 248.75 285.1 208.15Q281.6 174.8 277.25 141.65Q270.2 167.9 265.9 194.75" />
</g>
</svg>
