<?xml version="1.0" encoding="utf-8"?>
<svg version="1.1" id="Layer_1"
xmlns="http://www.w3.org/2000/svg"
xmlns:xlink="http://www.w3.org/1999/xlink"


xml:space="preserve">
q-11.75 4.9 -17.1 17.15q-11.7 26.65 -11.85 56.6q-0.3 59.45 -0.05 119.25q0.1 24.25 22.5 25q17.45 -15.15 13.15 -35.05q-4.15 1.85 -5.95 6.7q-7.25 19.5 -25.05 15.25q-4.7 -26.85 -4.95 -54.7q15.7 1.4 31.35 -2.65q3.15 -7 -1.3 -12.75q-15.3 1.75 -30.4 5.25q0.05 -26.85 10.3 -50.75q2.5 -5.8 8.05 -8.65q18.5 -9.35 27.55 10.65q3.1 -23.8 -22.25 -27.45q-7.65 10.55 -9.7 25.25q-5.6 41.05 -13.25 81.75q-8.75 46.85 -11.55 94.25q-4.65 -42.95 -8.3 -86.05q-5 -59.45 -8.45 -117.7q-0.85 0.25 -1.1 1.4q-10.35 49.9 -14.45 101.2q-4.75 59.2 -13.2 117.8q-4.35 29.95 -13.2 58.7q-4.95 16.2 0.4 29.5q6.95 -13.85 9.85 -30.35q10.2 -58.3 16.3 -117.2q5.95 -57.95 13 -115.8q4.75 58.9 10.05 117.6q0.7 7.55 0.75 15.05q0.05 23.8 7.3 44q4.35 -4.3 3.55 -11.1q3.05 -5.55 1.3 -12.6q3 -25.55 6.95 -50.95q8.95 -58.2 19.8 -116q1.65 28.45 3.6 56.65q4.05 58.9 12.25 117q8.35 59 13.05 118.5q0.8 10.1 6.9 13.35q3.35 -13.1 1.65 -27q-4.85 -43.65 -11 -87.1q-8.25 -58.3 -13.9 -117.1q-5.7 -59.5 -6.1 -117.75q-1.65 3.55 -2.8 7.35q-1 4.75 -1.6 9.55q-7.7 35.4 -12.75 71.65q-8.2 58.2 -22.75 115.1q-7.5 29.55 -13.5 59.25q-4.45 22.3 -14.85 42.45q-8.6 16.7 -1.25 28.9q20 -54.2 34 -112.35q4.75 -19.8 8.9 -39.75q19.2 1.8 37.75 -0.15q6.2 59.9 19.35 116.6q2.8 -1.5 2.8 -5q0 -17.9 -3.2 -35.5q-6 -33.05 -10.65 -66.3q0.6 -2.85 -0.65 -5q-6.7 -53.25 -9.35 -105.55q0.05 -6.95 -0.55 -13.75q-0.75 0.1 -0.8 0.4q-0.6 0.35 -0.8 1.3q0.8 17.65 1.1 35.3q-17.25 -0.8 -31.2 8q0.25 -51.75 -2.55 -102.5q-5.2 17.05 -4.85 37q1 59.8 -0.75 119.25q-0.45 15 -2.8 29.7q-2.2 14.15 5.15 21.8q4.9 -43.9 5.6 -89.25q15.3 -5.65 32.8 -6.55q0.2 36.5 -1.9 73q-0.95 16.9 4.9 29.35q5.3 -42.65 4.25 -87q-1.4 -60 -3.5 -118.5q-6.3 26.75 -4.95 57.05q16 -30.5 48.7 -24.35q8.95 6.15 13.1 16q4.7 11.15 10.65 16q0.85 -6.85 -1.05 -13.75q-8.2 -29.2 -36.7 -34.5q-26.95 7.55 -39.35 33.8q-8.55 18.15 -14.35 37.3q-17.2 56.3 -13.3 116.6q3.5 48.55 38.5 80.6q13.05 12 29.15 6.55q47.55 -16.1 64.5 -64.25q4.1 -11.65 -4.2 -14.25q-12.9 43.25 -54.35 61.7q-3.9 1.75 -7.9 1.7q-34.1 -0.6 -48.95 -33.4q-11.05 -36.75 -14.55 -74.85q-4.95 -53.55 4.3 -106.5q5.85 -33.4 21.75 -63.75<g id="2118" transform="matrix(1, 0, 0, 1, -33.05, 0)">
<path style="fill:#000000;fill-opacity:1" d="M515.2,138.45L514.95 138.75Q505.9 118.75 487.4 128.1Q481.85 130.95 479.35 136.75Q469.1 160.65 469.05 187.5L469.05 236.25Q484.15 232.75 499.45 231Q503.9 236.75 500.75 243.75L500.45 244.5Q484.8 248.55 469.1 247.15L469.5 306.75Q469.75 334.6 474.45 361.45Q492.25 365.7 499.5 346.2Q501.3 341.35 505.45 339.5Q509.75 359.4 492.3 374.55L486.7 379.2Q464.3 378.45 464.2 354.2L463.95 304Q463.7 244.2 464 184.75Q464.15 154.8 475.85 128.15Q481.2 115.9 492.95 111Q518.3 114.65 515.2 138.45M425.2,91.25Q425.6 149.5 431.3 209Q436.95 267.8 445.2 326.1Q451.35 369.55 456.2 413.2L456.8 406.75L457.2 406.45Q458.9 420.35 455.55 433.45L455.2 434.2Q449.1 430.95 448.3 420.85Q443.6 361.35 435.25 302.35Q427.05 244.25 423 185.35Q421.05 157.15 419.4 128.7L418.45 134.05Q407.6 191.85 398.65 250.05Q394.7 275.45 391.7 301Q393.45 308.05 390.4 313.6L391.5 323.15Q392.3 329.95 387.95 334.25Q380.7 314.05 380.65 290.25Q380.6 282.75 379.9 275.2Q374.6 216.5 369.85 157.6L368.1 135.1Q361.05 192.95 355.1 250.9Q349 309.8 338.8 368.1Q335.9 384.6 328.95 398.45Q323.6 385.15 328.55 368.95Q337.4 340.2 341.75 310.25Q350.2 251.65 354.95 192.45Q359.05 141.15 369.4 91.25Q369.65 90.1 370.5 89.85L371.2 87.75Q374.65 146 379.65 205.45Q383.3 248.55 387.95 291.5Q390.75 244.1 399.5 197.25Q407.15 156.55 412.75 115.5Q414.8 100.8 422.45 90.25L422.4 98.6Q423.55 94.8 425.2 91.25M276.2,90.75L276.65 88.65Q276.7 88.35 277.45 88.25Q278.05 95.05 278 102Q280.65 154.3 287.35 207.55L293.8 257.6Q295.05 259.75 294.45 262.6L302.9 324.65Q307.55 357.9 313.55 390.95Q316.75 408.55 316.75 426.45Q316.75 429.95 313.95 431.45Q300.8 374.75 294.6 314.85L289.35 266.7Q270.8 268.65 251.6 266.85Q247.45 286.8 242.7 306.6Q228.7 364.75 208.7 418.95Q201.35 406.75 209.95 390.05Q220.35 369.9 224.8 347.6Q230.8 317.9 238.3 288.35Q252.85 231.45 261.05 173.25Q266.1 137 273.8 101.6Q274.4 96.8 275.4 92.05Q275.6 91.1 276.2 90.75M211.2,125Q213.3 183.5 214.7 243.5Q215.75 287.85 210.45 330.5Q204.6 318.05 205.55 301.15Q207.65 264.65 207.45 228.15Q189.95 229.05 174.65 234.7L174.55 241.25Q173.85 286.6 168.95 330.5Q161.6 322.85 163.8 308.7Q166.15 294 166.6 279Q168.35 219.55 167.35 159.75Q167 139.8 172.2 122.75Q175 173.5 174.75 225.25Q188.7 216.45 205.95 217.25L207.35 217.35Q207.05 199.7 206.25 182.05Q204.9 151.75 211.2 125M47.5,191.6Q38.25 244.55 43.2 298.1Q46.7 336.2 57.75 372.95Q72.6 405.75 106.7 406.35Q110.7 406.4 114.6 404.65Q156.05 386.2 168.95 342.95Q177.25 345.55 173.15 357.2Q156.2 405.35 108.65 421.45Q92.55 426.9 79.5 414.9Q44.5 382.85 41 334.3L36.95 274.95Q33.05 214.65 50.25 158.35Q56.05 139.2 64.6 121.05Q77 94.8 103.95 87.25Q132.45 92.55 140.65 121.75Q142.55 128.65 141.7 135.5Q135.75 130.65 131.05 119.5Q126.9 109.65 117.95 103.5Q85.25 97.35 69.25 127.85Q53.35 158.2 47.5 191.6M287.95,254.95L273.6 138.3L253.5 257.45L287.95 254.95" />
</g>
</svg>
