<?xml version="1.0" encoding="utf-8"?>
<svg version="1.1" id="Layer_1"
xmlns="http://www.w3.org/2000/svg"
xmlns:xlink="http://www.w3.org/1999/xlink"


xml:space="preserve">
q-10.5 99.95 -9.2 201.4q0.45 33.7 -2.35 67.1q-0.1 1.95 -0.05 3.9q0.9 5.05 3.2 10q11.75 -71.85 11.8 -146.2q0 -11.85 0.3 -23.7q18.25 0 34.8 -7.15q1.4 -1.65 1.75 -3.95q0.65 -4.5 -1.8 -8.35q-18 1.25 -33.75 10.55q23.35 3.2 46.85 0.95q0.9 -1.1 1.4 -2.5q0.8 -2.5 0.65 -4.9q-0.2 -2.55 -1.65 -4.65q-16.4 28.45 -45.1 35.9q-22.3 -68.2 -8.3 -140.55q3.2 -4.3 2.3 -9.6q-0.3 -1.9 -1.55 -3.65q-19.1 -5.15 -37.55 6.8q-1 -61.55 17.55 -119.8q18.2 -7.3 36.75 -1q-7.85 -24.3 -32.35 -10.65q-18 10.05 -20.1 33.35q-1.55 17.4 -3.85 35.2q-2.25 17.65 -2.95 35.55q-0.8 20.3 -2.9 40.45q-2.2 21.6 -3.15 43.35q-0.8 18.6 0.25 37.2q1.35 23.55 19.8 36q8.65 5.9 17.95 -1.7q16.65 -13.45 25.75 -32.75q4 -8.55 5.1 -15.65q-6.45 49.75 -5.05 101.2q0.55 20.65 0.55 41.3q-18.85 9.65 -40.95 9.5q0.7 -60.1 -1.55 -118.5q-3.5 12.55 -3.6 27.75q-0.3 59.2 -1.85 118.5q-1.55 59.65 -6.45 119.1q-1.65 19.5 1.15 36.85q1.6 -0.05 1.95 -1.65q6 -30.85 7.25 -62.8q1.55 -38.45 2.4 -77.1q22.25 7.2 41.1 -5.15q-0.3 32.35 -1.9 64.5q-1.5 30 -4.9 59.8q-2.05 17.7 5.35 29.15q3.8 -35.45 5.3 -71.95q1.8 -42.95 2.2 -86.2q0.6 -2.7 0 -5.25q-0.25 -60.25 -1 -118.5q-0.5 0.1 -0.5 0.3q0.65 59.7 0.45 119.25q-0.2 60.25 -7 119.2q-1.9 16.5 3.15 29.75q4.35 -15.5 4.4 -33.5q0.05 -17.4 0.8 -34.55q2.6 -59.55 4.45 -119.15q1.85 -59.85 -2.4 -118.5q-4.1 17.25 -3.85 37.5q-9.6 -11.4 -24.75 -12q-30.7 12.9 -39.25 46.1q-14.1 54.5 -19.15 110.5q-5.45 60.15 8.75 118.15q7.15 29.3 33.55 41.35q6.5 2.95 11.85 -1q36.7 -27.25 46 -72.1q-0.35 -0.75 -0.9 -0.9q-0.85 -0.25 -1.8 0.25q-0.55 0.25 -1.05 0.65q-13.25 28.25 -33.2 52.5q-7.55 9.15 -19.1 4.9q-24.55 -9.05 -31.15 -35.85q-10.8 -43.6 -8.05 -88.9q3.45 -57.45 16.4 -113.3q5.9 -25.35 24.55 -42.65q4.95 -4.55 11.55 -4.75q23.35 -0.65 30.5 20.3q2 -6.3 0.15 -12.75q-1.5 -5.2 -4.4 -9.75<g id="2138" transform="matrix(1, 0, 0, 1, -36.1, 0)">
<path style="fill:#000000;fill-opacity:1" d="M375.45,118L397.95 114.5L419.85 116.2Q421.3 118.3 421.5 120.85Q421.65 123.25 420.85 125.75Q420.35 127.15 419.45 128.25Q395.95 130.5 372.6 127.3L373.7 246.3Q389.45 237 407.45 235.75L408.3 237.1Q410.75 240.95 410.1 245.45Q409.75 247.75 408.35 249.4Q391.8 256.55 373.55 256.55Q373.25 268.4 373.25 280.25Q373.2 354.6 361.45 426.45Q359.15 421.5 358.25 416.45L357.75 412.8L357.55 409.05Q357.5 407.1 357.6 405.15L357.95 401.15L358.55 396.95L359.75 389.65L360.65 382.25Q363.45 348.85 363 315.15Q361.7 213.7 372.2 113.75L372.45 116.75L375.45 118M340.5,380.7Q331.4 400 314.75 413.45Q305.45 421.05 296.8 415.15Q278.35 402.7 277 379.15L274.9 342.2Q273.85 323.6 274.65 305Q275.6 283.25 277.8 261.65Q279.9 241.5 280.7 221.2Q281.4 203.3 283.65 185.65Q285.95 167.85 287.5 150.45Q289.6 127.15 307.6 117.1Q332.1 103.45 339.95 127.75Q321.4 121.45 303.2 128.75Q284.65 187 285.65 248.55Q304.1 236.6 323.2 241.75Q324.45 243.5 324.75 245.4Q325.65 250.7 322.45 255L284.9 261.15Q270.9 333.5 293.2 401.7L298.1 401.35Q326.8 393.9 343.2 365.45L345.6 365.05Q344.5 372.15 340.5 380.7M210.2,102.5Q210.95 160.75 211.2 221L211.2 248.8Q211.8 251.35 211.2 254.05Q210.8 297.3 209 340.25Q207.5 376.75 203.7 412.2Q196.3 400.75 198.35 383.05Q201.75 353.25 203.25 323.25Q204.85 291.1 205.15 258.75Q186.3 271.1 164.05 263.9Q163.2 302.55 161.65 341Q160.4 372.95 154.4 403.8Q154.05 405.4 152.45 405.45Q149.65 388.1 151.3 368.6Q156.2 309.15 157.75 249.5Q159.3 190.2 159.6 131Q159.7 115.8 163.2 103.25Q165.45 161.65 164.75 221.75L164.25 254.8Q186.35 254.95 205.2 245.3Q205.2 224.65 204.65 204Q203.25 152.55 209.7 102.8Q209.7 102.6 210.2 102.5M247.2,104.25Q251.45 162.9 249.6 222.75Q247.75 282.35 245.15 341.9Q244.4 359.05 244.35 376.45Q244.3 394.45 239.95 409.95Q234.9 396.7 236.8 380.2Q243.6 321.25 243.8 261Q244 201.45 243.35 141.75Q243.1 121.5 247.2 104.25M125.2,111.5Q128.1 116.05 129.6 121.25Q131.45 127.7 129.45 134Q122.3 113.05 98.95 113.7Q92.35 113.9 87.4 118.45Q68.75 135.75 62.85 161.1Q49.9 216.95 46.45 274.4Q43.7 319.7 54.5 363.3Q61.1 390.1 85.65 399.15Q97.2 403.4 104.75 394.25Q124.7 370 137.95 341.75Q138.45 341.35 139 341.1Q139.95 340.6 140.8 340.85Q141.35 341 141.7 341.75Q132.4 386.6 95.7 413.85Q90.35 417.8 83.85 414.85Q57.45 402.8 50.3 373.5Q36.1 315.5 41.55 255.35Q46.6 199.35 60.7 144.85Q69.25 111.65 99.95 98.75Q115.1 99.35 124.7 110.75L125.2 111.5" />
</g>
</svg>
