<?xml version="1.0" encoding="utf-8"?>
<svg version="1.1" id="Layer_1"
xmlns="http://www.w3.org/2000/svg"
xmlns:xlink="http://www.w3.org/1999/xlink"


xml:space="preserve">
q-12.2 39.95 12.3 74.95q24.5 34.95 25.15 76.75q-3.55 3.9 -7.8 6.8q-1.2 0.85 -2.2 1.95q-28.7 5.3 -45.75 -18.75q1.35 -4.45 -0.65 -8.15q-11.7 8.85 -9.4 24.1q2.4 16.15 16.7 26q21.3 14.6 40.55 0.95q7 -4.95 8.7 -12.9q5 -23.3 -2.05 -46.5q-6.65 -21.8 -19.65 -40.05q-18.3 -25.7 -19.45 -56.35q-0.15 -4.55 3.3 -6.9q19.85 -13.75 38.3 0.45q-3.15 -20.85 -26.45 -19.25q-5.1 1.55 -10.25 4.2q-3.95 2 -5.2 6.05q3.2 -6.35 -1.6 -11.35q-10 17.45 -7.5 40.4q1.75 16.05 1.15 32.4q-11.55 7.8 -8.7 28.75q2.3 16.55 2.2 33.45q-0.2 20.5 -4.4 40.3q-2.95 14.1 4.45 26.05q6.3 -36.65 5.5 -73.75q-0.1 -10.95 -0.05 -21.9q-1.6 43.05 -2.4 85.95q-0.05 3.55 1.05 7q1 3.35 2.35 6.6q7 -49.75 5.5 -100.15q-2.25 4.25 -0.6 8.8q-6.2 73.45 -5.3 147.6q0.1 7.75 1.7 15.25q1.1 5 3.2 9.85q6.4 -86.2 2.9 -172.75q3.65 -5.85 -0.6 -10.95q-6.4 0.6 -11.35 5q-33.6 30.1 -37.1 76.65q-2.45 31 11 57.5q3.3 6.6 10.1 9.45q25.4 10.55 46.05 -8.95q16.55 -15.6 10.1 -34.15q-6.2 15.3 -19.7 24.5q-14.1 9.65 -30.6 5.8q-12.15 -2.85 -14.95 -14.5q-7.55 -32.05 -5.1 -65.05q0.2 1.85 0.85 4q19 -4.1 39 -2.75q2.15 -2.3 2.4 -5.7q0.25 -4.05 -1.65 -7.5q-0.35 -0.4 -0.75 -0.45q-7.4 -1.7 -15.55 -1.3q-14.55 0.65 -17.3 8.35q4.3 -40.5 31.75 -68.8q27.7 -10.8 43.25 10.25q1.5 -6.7 -2 -12.75q-1.7 -2.95 -3 -6q-11.4 -8.15 -25.45 -7.3q-6.75 9.85 -0.35 17.95q0.9 -7.15 1.95 -14.2q-0.35 -1.35 -1.55 -2.2q5.25 27.6 -1.95 53.2q-6.85 2.95 -13.45 0.25q-0.8 -2.45 -1.45 -5.2q-1.65 -1.4 -4 -0.5q-6.2 13.6 6 22.5q9.05 3.5 14.1 -3.65q14 -19.7 10.15 -44.8q-4.15 -27 -4.8 -52.25q-7.4 13.45 -4.05 31.25<g id="2146" transform="matrix(1, 0, 0, 1, -139.75, 0)">
<path style="fill:#000000;fill-opacity:1" d="M349.7,187.2Q354.85 184.55 359.95 183Q383.25 181.4 386.4 202.25L386.45 203Q368 188.8 348.15 202.55Q344.7 204.9 344.85 209.45Q346 240.1 364.3 265.8Q377.3 284.05 383.95 305.85Q391 329.05 386 352.35Q384.3 360.3 377.3 365.25Q358.05 378.9 336.75 364.3Q322.45 354.45 320.05 338.3Q317.75 323.05 329.45 314.2Q331.45 317.9 330.1 322.35L326.2 334.95Q343.25 359 371.95 353.7Q372.95 352.6 374.15 351.75Q378.4 348.85 381.95 344.95Q381.3 303.15 356.8 268.2Q332.3 233.2 344.5 193.25Q345.75 189.2 349.7 187.2M421.95,269.05Q423.45 319.45 416.45 369.2Q415.1 365.95 414.1 362.6Q413 359.15 413.05 355.6Q413.85 312.7 415.45 269.65L400.25 273.1Q400.2 284.05 400.3 295L400.45 305.95Q401.25 343.05 394.95 379.7Q387.55 367.75 390.5 353.65Q394.7 333.85 394.9 313.35L395.4 283.55L395.7 268.65L395.9 238.75Q396 221.85 393.7 205.3Q390.85 184.35 402.4 176.55L399.45 261.5L415.85 256.05Q416.45 239.7 414.7 223.65Q412.2 200.7 422.2 183.25L422.05 256.85Q426.85 261.85 423.65 268.2L423.1 268.8L421.95 269.05M222.9,193.7L181.4 196.7Q184.9 283.25 178.5 369.45Q176.4 364.6 175.3 359.6Q173.7 352.1 173.6 344.35Q172.7 270.2 178.9 196.75L142.5 196.25L141.4 193.8Q139.75 189.25 142 185L221.7 182.1L222.3 182.75Q226.55 187.85 222.9 193.7M309.4,187.8L310.2 188.5Q311.5 191.55 313.2 194.5Q316.7 200.55 315.2 207.25Q299.65 186.2 271.95 197Q244.5 225.3 240.2 265.8L240.1 266.8Q242.85 259.1 257.4 258.45Q265.55 258.05 272.95 259.75L279.45 260.3Q279.85 260.35 280.2 260.75Q282.1 264.2 281.85 268.25Q281.6 271.65 279.45 273.95Q259.45 272.6 240.45 276.7Q239.8 274.55 239.6 272.7Q237.15 305.7 244.7 337.75Q247.5 349.4 259.65 352.25Q276.15 356.1 290.25 346.45Q303.75 337.25 309.95 321.95Q316.4 340.5 299.85 356.1Q279.2 375.6 253.8 365.05Q247 362.2 243.7 355.6Q230.25 329.1 232.7 298.1L235.5 262.15Q239 215.6 272.6 185.5Q277.55 181.1 283.95 180.5Q298 179.65 309.4 187.8M215.75,223.95L215.95 224.75Q214.9 231.8 214 238.95L213.7 239.75Q207.3 231.65 214.05 221.8L214.2 221.75Q215.4 222.6 215.75 223.95M216.45,264Q217.1 289.25 221.25 316.25Q225.1 341.35 211.1 361.05Q206.05 368.2 197 364.7Q184.8 355.8 191 342.2Q193.35 341.3 195 342.7Q195.65 345.45 196.45 347.9L197 348.7Q203.6 351.4 210.45 348.45Q217.65 322.85 212.4 295.25Q209.05 277.45 216.45 264" />
</g>
</svg>
