<?xml version="1.0" encoding="utf-8"?>
<svg version="1.1" id="Layer_1"
xmlns="http://www.w3.org/2000/svg"
xmlns:xlink="http://www.w3.org/1999/xlink"


xml:space="preserve">
q-0.9 0.35 -1.05 1.75q-4.75 51.9 -5.3 105q-0.35 29.75 -1.3 59.3q-1.9 59.95 -9.25 118.95q-1.55 12.35 1.55 21.65q-0.4 2.5 0.05 5.1q0.3 1.95 1.8 2.95q2.75 -3.55 2.8 -8.25q0 -5.5 -3.8 -9q4.35 -35.15 5.95 -71.4q1.15 -25.8 2.55 -51.65q3.15 -59 1.1 -118.5q-1.05 -31 5.3 -58.3q-1.7 -2.05 -4.25 -3.1q3.2 -24.1 -19.05 -34.6q-5.25 -2.45 -10.95 -3.65q-39.35 25.15 -39.45 75q-0.1 35.05 -2.1 70.4q-4.55 81.25 11.5 160.7q0.95 4.6 5.25 6.9q6.2 -2.05 12.05 -5.2q5.5 -3 10.15 -6.95q16.75 -14.35 19.95 -33q-19.65 25.1 -51.2 31.1q-21.6 -63.85 -12.5 -135.8q3.45 -6.1 0.2 -12.55q-5 -59.9 15.05 -114.8q7.65 -20.9 28.95 -17.1q10.25 2 15.45 11.3q-29 -0.4 -54.85 11.6q-0.75 0.1 -0.75 0.35q-7.7 47.1 -3.8 95.2q2.4 29.8 0.25 59.8q-1 14.15 5.8 21.65q3.6 -13.95 3.25 -29.25q26.75 -8.65 54.35 -8.6q-0.6 38.05 -2.75 75.9q-0.75 14.05 6.15 21.6q2.1 -22 2.55 -45q1.1 -59.9 -2.3 -118.5q-3.6 10.1 -3.5 22.75q1.3 59.55 1.1 119.25q-0.15 59.6 -0.95 119.2q-0.1 7.5 -1.5 14.75q-3.45 17.55 3.4 29.25q7.35 -34.55 6.25 -71.2q-1.8 -59.65 -1.1 -119.25q0.75 -60.15 -1.65 -118.5q-5.9 11.5 -5.55 26.5q-10.05 -37.9 -51.5 -37.9q-15.45 4.35 -24.6 17.05q-16.3 22.75 -24.15 49.9q-16.6 57.4 -17.85 118.05q-1.2 58.4 17.3 113.15q13 38.45 53.3 30.95q44.25 -8.3 48.25 -49.9q-18.25 26.75 -50.1 34.95q-25.1 6.45 -38.2 -13.95q-15.75 -24.55 -20.15 -53.8q-4.35 -29.25 -4.15 -59.4q0.45 -58.05 17.05 -112.75q6.35 -20.95 17.85 -39.5q19.3 -31.05 54.75 -14.3q5.4 2.55 8.5 7.35q6.4 9.95 12.95 16.7q1.7 -3.15 0.75 -6.6<g id="2150" transform="matrix(1, 0, 0, 1, -42.15, 0)">
<path style="fill:#000000;fill-opacity:1" d="M397.2,91.35L396.95 91.5Q390.6 118.8 391.65 149.8Q393.7 209.3 390.55 268.3Q389.15 294.15 388 319.95Q386.4 356.2 382.05 391.35L432.95 386.2L441.4 387.4L442.2 387.7L443.65 387.35L444.95 386.7Q448.75 390.2 448.75 395.7Q448.7 400.4 445.95 403.95L379.45 402.95Q377.95 401.95 377.65 400Q377.2 397.4 377.6 394.9Q374.5 385.6 376.05 373.25Q383.4 314.25 385.3 254.3Q386.25 224.75 386.6 195Q387.15 141.9 391.9 90Q392.05 88.6 392.95 88.25Q395.5 89.3 397.2 91.35M335.55,119.45Q330.35 110.15 320.1 108.15Q298.8 104.35 291.15 125.25Q271.1 180.15 276.1 240.05L324.45 231.5L325.4 233.2Q328.65 239.65 325.2 245.75L275.7 252.65Q266.6 324.6 288.2 388.45Q319.75 382.45 339.4 357.35L341.6 357.35Q338.4 376 321.65 390.35Q317 394.3 311.5 397.3Q305.65 400.45 299.45 402.5L295.5 403.75L293.7 404.25L290.35 404.35L288.8 404.15L286.15 403Q281.85 400.7 280.9 396.1Q264.85 316.65 269.4 235.4Q271.4 200.05 271.5 165Q271.6 115.15 310.95 90Q316.65 91.2 321.9 93.65Q344.15 104.15 340.95 128.25L338.6 128.3L338.45 124.75L335.55 119.45M188.2,160Q191.6 218.6 190.5 278.5Q190.05 301.5 187.95 323.5Q181.05 315.95 181.8 301.9Q183.95 264.05 184.55 226Q156.95 225.95 130.2 234.6L132.2 305.25Q132.55 320.55 128.95 334.5Q122.15 327 123.15 312.85Q125.3 282.85 122.9 253.05Q119 204.95 126.7 157.85Q126.7 157.6 127.45 157.5L129.6 216.65L129.85 224.1Q155.7 212.1 184.7 212.5L184.7 182.75Q184.6 170.1 188.2 160M238.2,93Q240.6 151.35 239.85 211.5Q239.15 271.1 240.95 330.75Q242.05 367.4 234.7 401.95Q227.85 390.25 231.3 372.7Q232.7 365.45 232.8 357.95Q233.6 298.35 233.75 238.75Q233.95 179.05 232.65 119.5Q232.3 104.5 238.2 93M160.7,128.5Q154.15 121.75 147.75 111.8Q144.65 107 139.25 104.45Q103.8 87.7 84.5 118.75Q73 137.3 66.65 158.25Q50.05 212.95 49.6 271Q49.4 301.15 53.75 330.4Q58.15 359.65 73.9 384.2Q87 404.6 112.1 398.15Q143.95 389.95 162.2 363.2Q158.2 404.8 113.95 413.1Q73.65 420.6 60.65 382.15Q42.15 327.4 43.35 269Q44.6 208.35 61.2 150.95Q69.05 123.8 85.35 101.05Q94.5 88.35 109.95 84Q151.4 84 161.45 121.9Q162.4 125.35 160.7 128.5" />
</g>
</svg>
