<?xml version="1.0" encoding="utf-8"?>
<svg version="1.1" id="Layer_1"
xmlns="http://www.w3.org/2000/svg"
xmlns:xlink="http://www.w3.org/1999/xlink"


xml:space="preserve">
q15.65 -18.4 0.9 -37.3q-2.75 8.45 1.35 16.55q-1 0.15 -1.1 1.5q-2.75 46.9 -4.15 94.45q-0.9 30.35 -5.55 59.85q-2.55 16.45 3.1 29.9q0.9 -0.6 1.2 -1.45q2.55 -7.45 3.25 -15.4q2.25 -24.95 3.85 -50.3q24 4.4 37.7 -15.55q19.85 -28.8 2.05 -60.6q-15.55 -17.1 -38.3 -20.2q-0.9 0.5 -1.45 1.25q-12.9 16.55 -33.9 12.35q22.3 5.15 35.4 23q14.25 19.4 -0.5 38.4q-3.9 47.7 -4 96.7q-0.1 30.15 -3.2 59.9q-1.75 16.65 3.7 29.35q4.95 -32.85 5.4 -67.5q13.5 -1.25 26.75 -3.35q-1.75 29.7 -5.75 58.95q-2.3 16.6 2.15 29.95q0.9 -0.6 1.05 -1.35q6.35 -35.95 8.05 -73.3q2.75 -59.65 0.15 -118.55q-5.05 10.8 -4.65 24.75q1 30.15 -0.05 60.05q1 -30.85 -2.7 -59.3q5.1 -14.6 -1.55 -24.9q-5.05 13.85 -7.5 29.15q-5.5 34.35 25.6 47q26.35 10.7 36.65 -12.45q11.4 -25.75 3.6 -53.05q-4.9 -17.15 -14.2 -32.45q-15.55 -25.65 -29.15 -51.9q8.4 -25.7 32.25 -12.25q3.45 4.3 5.15 9.4q2 5.95 6.3 9.35q2.3 -2.5 1.75 -6q-4.2 -27.05 -29.95 -31q-10.2 2.4 -15.45 11.65q-10.4 18.4 0.85 36.55q15.5 25.15 28.5 51.7q13.2 27 7.35 54.95q-1.55 7.45 -8.7 9.25q-35.5 9.05 -44.3 -22.4q0.6 -6.45 2.8 -12.6q1 -60.05 -1.2 -118.45q-5.9 48.65 -5.55 100.45q0.25 30.15 -3.55 59.8q-2.15 16.85 4.35 29.45q5.35 -34.5 5.95 -71.25<g id="2334" transform="matrix(1, 0, 0, 1, -130.5, 0)">
<path style="fill:#000000;fill-opacity:1" d="M327.95,179.75Q342.7 198.65 327.05 217.05L330.45 198.5L329.3 196.3Q325.2 188.2 327.95 179.75M351.1,181.25L352.2 181Q374.95 184.1 390.5 201.2L391.2 202Q409 233.8 389.15 262.6Q375.45 282.55 351.45 278.15L350.25 301.05Q348.65 326.4 346.4 351.35Q345.7 359.3 343.15 366.75Q342.85 367.6 341.95 368.2Q336.3 354.75 338.85 338.3Q343.5 308.8 344.4 278.45Q345.8 230.9 348.55 184Q348.65 182.65 349.65 182.5Q350.2 181.75 351.1 181.25M386.3,213.65Q373.2 195.8 350.9 190.65L351.9 264.4Q372.9 268.6 385.8 252.05Q400.55 233.05 386.3 213.65M228.45,180.5Q232.15 208.95 231.15 239.8L230.4 268.6L256.95 263.75L257.5 263.8Q258.55 233.9 257.55 203.75Q257.15 189.8 262.2 179Q264.8 237.9 262.05 297.55Q260.35 334.9 254 370.85Q253.85 371.6 252.95 372.2Q248.5 358.85 250.8 342.25Q254.8 313 256.55 283.3L256.85 278.4Q243.6 280.5 230.1 281.75L229.85 298.95Q229.4 333.6 224.45 366.45Q219 353.75 220.75 337.1Q223.85 307.35 223.95 277.2Q224.05 228.2 227.95 180.5L228.45 180.5M142.25,324.45Q151.05 355.9 186.55 346.85Q193.7 345.05 195.25 337.6Q201.1 309.65 187.9 282.65Q174.9 256.1 159.4 230.95Q148.15 212.8 158.55 194.4Q163.8 185.15 174 182.75Q199.75 186.7 203.95 213.75Q204.5 217.25 202.2 219.75Q197.9 216.35 195.9 210.4Q194.2 205.3 190.75 201Q166.9 187.55 158.5 213.25Q172.1 239.5 187.65 265.15Q196.95 280.45 201.85 297.6Q209.65 324.9 198.25 350.65Q187.95 373.8 161.6 363.1Q130.5 350.45 136 316.1Q138.45 300.8 143.5 286.95Q150.15 297.25 145.05 311.85Q142.85 318 142.25 324.45M302.45,369.2Q295.95 356.6 298.1 339.75Q301.9 310.1 301.65 279.95Q301.3 228.15 307.2 179.5Q309.4 237.9 308.4 297.95Q307.8 334.7 302.45 369.2" />
</g>
</svg>
