<?xml version="1.0" encoding="utf-8"?>
<svg version="1.1" id="Layer_1"
xmlns="http://www.w3.org/2000/svg"
xmlns:xlink="http://www.w3.org/1999/xlink"


xml:space="preserve">
q2.05 42.55 1.8 85.6q16.95 -4.05 34.45 -6.45q7.1 5.5 1.15 13.65q-17.55 3 -35.05 3.25q-0.8 38.9 -7.7 75.75q-5.2 -12.55 -3.1 -29.4q3.65 -29.65 3.9 -59.85q0.4 -53.7 4.95 -104.95q0 -3.1 1.85 -5.45q3.05 -1.3 6.5 -1.25q10 0.1 20 -0.4q0.4 0 0.75 0.4q0.65 1.05 0.85 2.2q1.15 4.9 -1.5 9q-31.25 0.1 -62 -1.75q-18.4 17.8 -5.75 42q11.55 21.5 13.35 45.85q2.1 27.85 -18.85 46.2q-25.55 6.55 -43.65 -14.2q-11.95 -13.75 -10.15 -31.75q1.9 -18.7 11.55 -31.8q-5.35 18.6 -5.35 36.75q0 8.3 6.1 13.95q14.95 13.75 34.75 11.8q30.3 -24.5 11.6 -61.55q-18 -36.3 9.15 -61.8q24.7 3.45 31.25 29.3q1.7 6.55 -2.25 11.2q-3.35 -6.1 -9.1 -9.95q-0.75 -0.4 -1.55 -0.45q0.2 50.15 0.05 101.55q8.95 0.2 16.65 -2.6q0.25 -26.45 5.8 -49.75q0.15 58.35 -0.55 118.45q-0.45 40.3 -3.95 79.5q-5.45 -11.8 -4.65 -29.05q1.4 -30.35 2.25 -60.7q-8.15 3.75 -17.85 1.5q-0.25 39.75 -4.35 78.7q-0.1 0.7 -0.85 1.3q-3.55 -13.45 -2.8 -29.8q2.9 -59.5 1.95 -119.15q-0.45 -25.85 5.4 -49.2q0.1 -0.5 0.7 -0.3q-6.1 -8.15 -4 -21.75q2.3 -14.7 2.75 -29.75q1.9 -59.55 2.4 -119.2q0.15 -14.45 3.35 -26.5q2.95 58.65 0.6 118.5q3.3 10 -2.75 20.25<g id="2337" transform="matrix(1, 0, 0, 1, -125.9, 0)">
<path style="fill:#000000;fill-opacity:1" d="M342.1,191.2L341.9 190.5L341.75 189.7L341.7 189.1Q343.75 231.65 343.5 274.7Q360.45 270.65 377.95 268.25Q385.05 273.75 379.1 281.9L378.45 282.45Q360.9 285.45 343.4 285.7L343.15 298.95Q342.35 337.85 335.45 374.7Q330.25 362.15 332.35 345.3Q336 315.65 336.25 285.45Q336.65 231.75 341.2 180.5L341.6 187.95Q341.6 184.85 343.45 182.5Q346.5 181.2 349.95 181.25Q359.95 181.35 369.95 180.85L369.95 180.75L404.45 182.1Q404.85 182.1 405.2 182.5Q405.85 183.55 406.05 184.7L406.2 185.5Q407.35 190.4 404.7 194.5Q373.45 194.6 342.7 192.75L342.1 191.2M176.95,195.05L167.75 194.75Q149.35 212.55 162 236.75L187 283.9Q198.55 305.4 200.35 329.75Q202.45 357.6 181.5 375.95Q155.95 382.5 137.85 361.75Q125.9 348 127.7 330Q129.6 311.3 139.25 298.2L140.05 298.85L140.85 300.25L141 300.95Q135.65 319.55 135.65 337.7Q135.65 346 141.75 351.65Q156.7 365.4 176.5 363.45Q206.8 338.95 188.1 301.9L158.85 243.55Q140.85 207.25 168 181.75Q192.7 185.2 199.25 211.05Q200.95 217.6 197 222.25L187.6 205.45Q184.25 199.35 178.5 195.5Q177.75 195.1 176.95 195.05M221.2,179.5Q221.4 229.65 221.25 281.05L222.15 280.35L222.95 279.7Q231.9 279.9 239.6 277.1L240.4 231Q240.65 204.55 246.2 181.25Q246.35 239.6 245.65 299.7Q245.2 340 241.7 379.2Q236.25 367.4 237.05 350.15Q238.45 319.8 239.3 289.45Q231.15 293.2 221.45 290.95L221.2 290.6L221.15 297.95Q220.9 337.7 216.8 376.65Q216.7 377.35 215.95 377.95Q212.4 364.5 213.15 348.15Q216.05 288.65 215.1 229Q214.65 203.15 220.5 179.8Q220.6 179.3 221.2 179.5M283.7,377.2Q277.6 369.05 279.7 355.45Q282 340.75 282.45 325.7Q284.35 266.15 284.85 206.5Q285 192.05 288.2 180Q291.15 238.65 288.8 298.5L286.45 356.95Q289.75 366.95 283.7 377.2" />
</g>
</svg>
