<?xml version="1.0" encoding="utf-8"?>
<svg version="1.1" id="Layer_1"
xmlns="http://www.w3.org/2000/svg"
xmlns:xlink="http://www.w3.org/1999/xlink"


xml:space="preserve">
q5.3 58.5 -0.5 116.25q-2.05 20.3 -14.9 35.55q-18.4 21.75 -40.25 6.05q-4.1 -11.25 -3.55 -23.3q2.5 -59.25 5.9 -118.35q1 -17.2 -4.35 -29.05q-1.85 22.65 -2.7 45.7q-2.2 59.6 -3.1 119.25q-0.1 7.7 3.85 14.05q14.9 23.8 40.05 7.1q3.85 -2.55 6.25 -6.15q19.5 -29.25 21.05 -65.2q0.9 -31 -6 -59.25q-2.2 -0.15 -2.8 2.2q-1.65 6.8 -1.05 13.65q-4.6 16.25 -7.35 32.9q-3.65 21.35 0.6 42.4q4.35 21.7 22.2 34.25q11.65 8.25 24.05 -1.9q5.8 -4.75 10.7 -10.25q0.05 8.9 5.15 13.95q11.5 -38.75 3.4 -76.9q7 3.6 16.05 1.75q4.05 29.7 -20.3 46.75q-6.8 4.8 -14.9 2.55q-3.4 -0.95 -6.6 -2.6q-3.75 -2 -5.55 -5.8q-8.6 -18.3 -8.75 -39.25q-0.2 -33.5 5.7 -66.45q6.2 -34.35 34.3 -45.7q9.2 -3.8 18.1 2.3q-1.85 -26.85 -29.2 -15.85q-8.25 3.3 -11.7 11.8q-6.4 15.85 -11 32.2q-31.8 21.75 -11.7 57.2q16.95 30 28.2 62.15q10.85 30.95 -11.8 50.2q-9.5 8.05 -21.7 6.3q-7.9 -1.4 -13 -7.9q-9.45 23.05 12.35 36.9q19.85 12.7 37.65 -3.6q16.2 -14.95 16.35 -37.55q0.15 -21.2 -5.75 -41.55q-5.9 -20.35 -20.7 -35.2q-17.75 -17.8 -10.15 -39.05q7.35 -20.45 27.5 -7.6q6.2 3.9 9.55 8.55q2.55 -18.6 -13.65 -26.6q-6.65 -3.35 -14.15 -4q-2.45 30.05 -2.75 60.85q-0.5 59.45 -1.95 118.45q0.75 2.8 3.25 1.5q1.6 -4.3 2 -9q2.55 -29.7 3.3 -60q15.45 0.1 28.95 -4.2q-0.8 30.2 -4.4 59.8q-2.1 17.4 4.6 29.2q3.15 -5.05 3.35 -11.25q1.55 -59.75 2.1 -118.45q-4.65 12.7 -5.1 28q-15 -1.65 -27 4.9q0.75 -49.3 -0.75 -97.6q-3.15 2 -3.55 6.65q7.9 28.35 -13.4 47.9q-12 -24.1 -1.25 -50.7q6.05 -2.55 11.45 1.25q-3.25 22.95 15.7 30.7q2.3 -1.3 3.85 -3.25q15.6 -19.15 19 -43.55q3.45 -25.1 -16.85 -34.4q-17.55 8.9 -19.5 31.2q-0.85 9.7 -2.2 19.3<g id="2184" transform="matrix(1, 0, 0, 1, -125.55, 0)">
<path style="fill:#000000;fill-opacity:1" d="M337.65,178.95Q338.25 176.6 340.45 176.75Q347.35 205 346.45 236L344.35 294.5Q342.8 330.45 323.3 359.7Q320.9 363.3 317.05 365.85Q291.9 382.55 277 358.75Q273.05 352.4 273.15 344.7Q274.05 285.05 276.25 225.45Q277.1 202.4 278.95 179.75Q284.3 191.6 283.3 208.8Q279.9 267.9 277.4 327.15Q276.85 339.2 280.95 350.45Q302.8 366.15 321.2 344.4Q334.05 329.15 336.1 308.85Q341.9 251.1 336.6 192.6Q336 185.75 337.65 178.95M375.3,199.45Q378.75 190.95 387 187.65Q414.35 176.65 416.2 203.5Q407.3 197.4 398.1 201.2Q370 212.55 363.8 246.9Q357.9 279.85 358.1 313.35Q358.25 334.3 366.85 352.6Q368.65 356.4 372.4 358.4Q375.6 360.05 379 361Q387.1 363.25 393.9 358.45Q418.25 341.4 414.2 311.7Q405.15 313.55 398.15 309.95L398.45 301.45L417.45 299.45Q425.55 337.6 414.05 376.35Q408.95 371.3 408.9 362.4Q404 367.9 398.2 372.65Q385.8 382.8 374.15 374.55Q356.3 362 351.95 340.3Q347.7 319.25 351.35 297.9L356.95 264.55Q359.7 247.9 364.3 231.65Q368.9 215.3 375.3 199.45M188.15,179.75Q204.35 187.75 201.8 206.35Q198.45 201.7 192.25 197.8Q172.1 184.95 164.75 205.4Q157.15 226.65 174.9 244.45Q189.7 259.3 195.6 279.65Q201.5 300 201.35 321.2Q201.2 343.8 185 358.75Q167.2 375.05 147.35 362.35Q125.55 348.5 135 325.45L137.45 325.95L142.45 336.05L140.25 338.7L144 343.7Q149.1 350.2 157 351.6Q169.2 353.35 178.7 345.3Q201.35 326.05 190.5 295.1Q179.25 262.95 162.3 232.95Q142.2 197.5 174 175.75Q181.5 176.4 188.15 179.75M223.2,179Q224.7 227.3 223.95 276.6Q235.95 270.05 250.95 271.7L253 271.95L255.1 202.25Q255.55 186.95 260.2 174.25Q259.65 232.95 258.1 292.7L256.05 367.7Q255.85 373.9 252.7 378.95Q246 367.15 248.1 349.75Q251.7 320.15 252.5 289.95L252.7 283Q239.2 287.3 223.75 287.2L223.5 297.45Q222.75 327.75 220.2 357.45Q219.8 362.15 218.2 366.45Q215.7 367.75 214.95 364.95Q216.4 305.95 216.9 246.5Q217.2 215.7 219.65 185.65Q220.05 181 223.2 179M309.25,244.05L304.55 249.45L302.95 247Q292.2 273.6 304.2 297.7L308.55 294.15Q329.85 274.6 321.95 246.25L320.7 245.3Q315.3 241.5 309.25 244.05M294.45,260.2Q296.4 237.9 313.95 229Q334.25 238.3 330.8 263.4Q327.4 287.8 311.8 306.95Q310.25 308.9 307.95 310.2Q289 302.45 292.25 279.5Q293.6 269.9 294.45 260.2" />
</g>
</svg>
