<?xml version="1.0" encoding="utf-8"?>
<svg version="1.1" id="Layer_1"
xmlns="http://www.w3.org/2000/svg"
xmlns:xlink="http://www.w3.org/1999/xlink"


xml:space="preserve">
q-0.25 -1.35 -1.25 -2.5q-4.65 27.5 -5.7 55.5q-2.25 60 -2.2 119.25q4.45 -35.35 6 -71.15q2.2 -51.8 2.25 -103.6q1.35 -1.8 1.8 -3.95q1.05 22.6 0.5 44.95q-0.45 16.65 -1.25 33.2q-11.7 0.1 -21.95 5.2q0.55 -37.75 -0.55 -74.9q-6.1 23.05 -5.8 50.25q0.55 44.6 -5.75 88.25q-2.35 16.55 3.05 29.95q6.8 -23.55 7.85 -49.95q-1.75 28.3 -4.75 56.35q-1.85 17.4 4.3 29.05q4.55 -35.7 5.8 -72.75q3.2 -3.45 2.35 -8q-0.4 -1.95 -1.6 -3.75q-0.35 -0.35 -0.75 -0.4q0.9 -46.3 -0.75 -92.25q-4.15 5.05 -3.75 13.8q-6.2 35.3 -8.25 71.85q-10 0.15 -18.85 3.15q1.4 -45.9 2 -90.7q-4.85 12.1 -5.2 27.25q-1.35 59.5 -4.95 118.5q-0.55 9.35 -2.1 18.45q-2.9 17.25 2.75 29.25q5.2 -37 6.55 -75q-1.9 45.35 -1.55 90.8q0.75 2.8 3.25 1.5q2 -4.6 2.15 -9.75q0.8 -32.15 2.8 -64.4q3.7 -59.65 4.3 -117.8q-1.25 -0.3 -1.4 0.8q-19.45 42.7 12.35 74.45q13.2 13.3 29.05 4.3q16.75 -9.45 19.6 -28.3q3.7 -24.8 -2.7 -48.95q-4.25 -15.95 -14.3 -28.55q-17.45 -21.75 -20.65 -47.6q-1.2 -9.85 5.4 -17.55q17.65 4.15 25.3 24.1q0.3 0.75 0.95 1.4q1.8 -28.05 -24 -38.25q-30.5 30.2 -3.4 66.6q23.45 31.5 28.2 70q2.45 20.2 -14.2 31.2q-7.65 5 -16.8 4.2q-5.15 -0.65 -8.95 -4.15q-18.5 -17.05 -13.4 -41.5q2.5 -12.15 2.3 -23.4q2.85 -27.95 3.45 -56.25q1.2 -60.05 0.05 -118.45q-6.55 33.75 -6.2 70.75q0.25 29.55 -1.65 59.15q-2 30.6 1.1 59.3q6.5 -5.55 3.25 -14.5<g id="2338" transform="matrix(1, 0, 0, 1, -121.55, 0)">
<path style="fill:#000000;fill-opacity:1" d="M392.45,195.25L353.45 196.7Q353.4 248.5 351.2 300.3Q349.65 336.1 345.2 371.45L342.8 371.5Q342.75 312.25 345 252.25Q346.05 224.25 350.7 196.75L316.05 195.85L315.45 186.5L353.45 182.75L392.85 183.2Q393.85 184.35 394.1 185.7L394.5 188.55L394.45 189.9L394.25 191.3Q393.8 193.45 392.45 195.25M418.45,179.5Q420.1 225.45 419.2 271.75L422.45 272.05Q422.85 272.1 423.2 272.45Q424.4 274.25 424.8 276.2Q425.65 280.75 422.45 284.2L418.9 284.65L418.5 297.95Q417.25 335 412.7 370.7Q406.55 359.05 408.4 341.65Q411.4 313.6 413.15 285.3L391.8 287.2L390.8 320.25Q389.75 346.65 382.95 370.2Q377.55 356.8 379.9 340.25Q386.2 296.6 385.65 252Q385.35 224.8 391.45 201.75Q392.55 238.9 392 276.65Q402.25 271.55 413.95 271.45Q414.75 254.9 415.2 238.25Q415.75 215.9 414.7 193.3Q414.3 184.55 418.45 179.5M250.45,179.5Q249.85 237.65 246.15 297.3Q244.15 329.55 243.35 361.7Q243.2 366.85 241.2 371.45Q238.7 372.75 237.95 369.95Q237.6 324.5 239.5 279.15L239.45 279.2L220.9 279.5L220.25 297.7Q218.9 335.7 213.7 372.7Q208.05 360.7 210.95 343.45Q212.5 334.35 213.05 325Q216.65 266 218 206.5Q218.35 191.35 223.2 179.25Q222.6 224.05 221.2 269.95Q230.05 266.95 240.05 266.8L240.8 252.15Q242.85 215.6 249.05 180.3Q249.2 179.2 250.45 179.5M145.75,284.7Q145.95 295.95 143.45 308.1Q138.35 332.55 156.85 349.6Q160.65 353.1 165.8 353.75Q174.95 354.55 182.6 349.55Q199.25 338.55 196.8 318.35Q192.05 279.85 168.6 248.35Q141.5 211.95 172 181.75Q197.8 191.95 196 220Q195.35 219.35 195.05 218.6Q187.4 198.65 169.75 194.5Q163.15 202.2 164.35 212.05Q167.55 237.9 185 259.65Q195.05 272.25 199.3 288.2Q205.7 312.35 202 337.15Q199.15 356 182.4 365.45Q166.55 374.45 153.35 361.15Q121.55 329.4 141 286.7L145.75 284.7M284.45,368.7Q281.35 340 283.35 309.4Q285.25 279.8 285 250.25Q284.65 213.25 291.2 179.5Q292.35 237.9 291.15 297.95Q290.55 326.25 287.7 354.2Q290.95 363.15 284.45 368.7" />
</g>
</svg>
