<?xml version="1.0" encoding="utf-8"?>
<svg version="1.1" id="Layer_1"
xmlns="http://www.w3.org/2000/svg"
xmlns:xlink="http://www.w3.org/1999/xlink"


xml:space="preserve">
q4.65 59.05 -1 118.4q-3.85 40.65 -44.6 40.55q-12 -9.65 -10.15 -26.4q6 -59.35 3.95 -117.9q-0.5 0.1 -0.55 0.35q-4.15 18.85 -5.75 38.75q-4.7 58.9 -5.5 118.6q-0.15 10.2 6.05 17.75q16.6 20.2 39.55 2.55q11.3 -8.65 14.6 -21.95q14.55 -57.6 9.25 -118.15q-0.65 -7.5 -0.1 -14.8q1 -13.95 -5.8 -21.6q-3.05 4.25 -2.65 9.75q-1.7 0.8 -1.85 -0.35q-6.05 69.05 -4.15 139.9q-1.9 13.25 2.95 25.8q7.65 -14.65 5.95 -32.3q-0.3 -3.4 -0.05 -6.9q0.65 -20.75 0.4 -41.4q17.8 3.55 35.55 1.05q4.05 -6.65 -0.4 -13.1q-17.95 -1.9 -35.25 3.1q31.2 10.7 64.1 7.75q2.5 -4.65 0.8 -9.75q-5.95 1.7 -10.45 6.1q-21.9 21.05 -11.55 51.8q10.9 32.3 26.95 62.7q8.35 15.9 3.5 31.95q-3.7 12.1 -14.45 17.5q-16.15 8.15 -33.75 4.65q-1.9 3.5 -2 7.5q-0.1 5 3.25 8.25q19.25 5.5 34.85 -5.6q18.15 -12.9 19.25 -35.2q1.25 -25.15 -11.35 -47.05q-14.3 -24.85 -21.85 -52.15q-8.85 -31.85 23.35 -37.45q3.15 1.75 5.45 4.2q1.85 2 4.05 2.05q2.1 -17 -15.5 -18.45q0.75 -29.8 4 -59.1q1.85 -17.05 -2.55 -29.6q-5.6 21.5 -5.85 46q-0.55 59.45 -6.6 118.3q-1.7 16.5 3.45 29.9q5.45 -11.55 5.75 -26q0.65 -34.25 1.55 -68.55q13.7 2.5 28.3 1.55q-0.85 29.8 -5.3 59.05q-2.15 14.15 5 21.7q6.05 -34.85 7.9 -71.15q2.95 -59.45 2.35 -117.8q-6.8 42.45 -9.1 87q-14.95 -1.4 -28.6 1.5<g id="2174" transform="matrix(1, 0, 0, 1, -136.15, 0)">
<path style="fill:#000000;fill-opacity:1" d="M326.95,179.5Q333.75 187.15 332.75 201.1Q332.2 208.4 332.85 215.9Q338.15 276.45 323.6 334.05Q320.3 347.35 309 356Q286.05 373.65 269.45 353.45Q263.25 345.9 263.4 335.7Q264.2 276 268.9 217.1Q270.5 197.2 274.65 178.35Q274.7 178.1 275.2 178Q277.25 236.55 271.25 295.9L268.55 321.8Q266.7 338.55 278.7 348.2Q319.45 348.3 323.3 307.65Q328.95 248.3 324.3 189.25Q323.9 183.75 326.95 179.5M358.7,181.25L420.2 186.5L420.75 188Q422.45 193.1 419.95 197.75Q387.05 200.7 355.85 190L358.2 261.35Q375.5 256.35 393.45 258.25Q397.9 264.7 393.85 271.35Q376.1 273.85 358.3 270.3Q358.55 290.95 357.9 311.7L357.3 325.6L356.85 332.5Q356.6 336 356.9 339.4Q358.6 357.05 350.95 371.7Q346.1 359.15 348 345.9L350.05 330.7L350.5 326.95L350.85 323.25L350.95 319.5Q349.05 248.65 355.1 179.6Q355.25 180.75 356.95 179.95L358.7 181.25M193.5,194.95L193.25 195.75Q191.05 195.7 189.2 193.7Q186.9 191.25 183.75 189.5Q151.55 195.1 160.4 226.95Q167.95 254.25 182.25 279.1Q194.85 301 193.6 326.15Q192.5 348.45 174.35 361.35Q158.75 372.45 139.5 366.95Q136.15 363.7 136.25 358.7Q136.35 354.7 138.25 351.2Q155.85 354.7 172 346.55Q182.75 341.15 186.45 329.05Q191.3 313 182.95 297.1Q166.9 266.7 156 234.4Q145.65 203.65 167.55 182.6Q172.05 178.2 178 176.5Q195.6 177.95 193.5 194.95M210.5,271Q224.15 268.1 239.1 269.5Q241.4 224.95 248.2 182.5Q248.8 240.85 245.85 300.3Q244 336.6 237.95 371.45Q230.8 363.9 232.95 349.75Q237.4 320.5 238.25 290.7L238.55 282.45Q223.95 283.4 210.25 280.9Q209.35 315.2 208.7 349.45Q208.4 363.9 202.95 375.45Q197.8 362.05 199.5 345.55Q205.55 286.7 206.1 227.25Q206.35 202.75 211.95 181.25Q216.35 193.8 214.5 210.85Q211.25 240.15 210.5 269.95L210.5 271" />
</g>
</svg>
