<?xml version="1.0" encoding="utf-8"?>
<svg version="1.1" id="Layer_1"
xmlns="http://www.w3.org/2000/svg"
xmlns:xlink="http://www.w3.org/1999/xlink"


xml:space="preserve">
q18.55 56.8 29.1 115.35q5.3 29.45 13.05 56.4q2.5 -0.85 3.35 -3.45q15.2 -48.45 20.95 -98.95q3.35 -29.1 10.7 -57.35q4.5 -17.05 -3 -27.95q-7.85 24.25 -10.75 50.15q-6.35 57.35 -19.5 112.05q-4.4 -24.8 -9.45 -49.55q-11.95 -58.45 -33.8 -113.15q-2.5 0.3 -2.55 3.25q-0.2 6.8 1.9 13.2q-3.3 52 -2.4 104.95q0.4 24.05 -10.7 44.45q-15.05 27.7 -42.75 16.8q-9.45 -55.05 -3.25 -111.1q3.35 -30.25 2 -59.1q-1.55 -0.25 -1.75 1.3q-7.3 57.45 -9 116.15q-0.85 30.35 6.8 58.9q4.85 18.1 24.1 12.55q24.55 -7.1 32.3 -31.5q11.45 -36.2 10 -75.5q-1.1 -29.6 1.55 -59.05q1.3 -14.55 -5.75 -21.1q-1.05 0.85 -1.15 2.25q-27.3 20 -15.3 53.5q12.65 35.2 28 69.95q5.95 13.4 0.75 26.65q-12.1 30.8 -43.95 24.35q-3.75 4.45 -2.65 10.6q0.95 5.05 6.2 5.25q36.85 1.4 47.05 -34.85q5.15 -18.4 -2.65 -35.8q-19.8 -44 -30.95 -89.9q1.1 -3.75 2.95 -7.05q3.65 -6.65 10.3 -10.2q3.35 0.1 6.5 1.05q5.6 1.7 10.75 2.7q0.35 -2.25 -0.05 -4.45q-6.8 -7.2 -16.65 -6.55q-4.3 44.45 -4.75 90.3q-18.3 -0.8 -35 5.1q1.15 -50.1 -0.75 -99.2q-4.65 14.55 -5.25 32.95q-1.9 59.5 -2.2 119.25q-0.05 7.5 -1.55 14.7q-3.55 16.85 3 29.55q4.1 -9.05 4.4 -19.5q0 29 -2.15 58q-1.2 16.55 3.95 29.85q0.9 -0.6 1 -1.3q4.1 -35.3 4.55 -71.2q0.7 -60.3 -2.05 -119.2<g id="2173" transform="matrix(1, 0, 0, 1, -135.75, 0)">
<path style="fill:#000000;fill-opacity:1" d="M352.9,184Q352.95 181.05 355.45 180.75Q377.3 235.45 389.25 293.9Q394.3 318.65 398.7 343.45Q411.85 288.75 418.2 231.4Q421.1 205.5 428.95 181.25Q436.45 192.15 431.95 209.2Q424.6 237.45 421.25 266.55Q415.5 317.05 400.3 365.5Q399.45 368.1 396.95 368.95Q389.2 342 383.9 312.55Q373.35 254 354.8 197.2Q352.7 190.8 352.9 184M334.7,180.5Q341.75 187.05 340.45 201.6Q337.8 231.05 338.9 260.65Q340.35 299.95 328.9 336.15Q321.15 360.55 296.6 367.65Q277.35 373.2 272.5 355.1Q264.85 326.55 265.7 296.2Q267.4 237.5 274.7 180.05Q274.9 178.5 276.45 178.75Q277.8 207.6 274.45 237.85Q268.25 293.9 277.7 348.95Q305.4 359.85 320.45 332.15Q331.55 311.75 331.15 287.7Q330.25 234.75 333.55 182.75Q333.65 181.35 334.7 180.5M186.65,187.55L187.25 188.25L187.65 189.75Q188.05 191.95 187.7 194.2L187 197.25Q181.85 196.25 176.25 194.55Q173.1 193.6 169.75 193.5Q163.1 197.05 159.45 203.7Q157.6 207 156.5 210.75Q167.65 256.65 187.45 300.65Q195.25 318.05 190.1 336.45Q179.9 372.7 143.05 371.3Q137.8 371.1 136.85 366.05Q135.75 359.9 139.5 355.45Q171.35 361.9 183.45 331.1Q188.65 317.85 182.7 304.45Q167.35 269.7 154.7 234.5Q142.7 201 170 181Q179.85 180.35 186.65 187.55M249.45,180.75Q252.2 239.65 251.5 299.95Q251.05 335.85 246.95 371.15Q246.85 371.85 245.95 372.45Q240.8 359.15 242 342.6Q244.15 313.6 244.15 284.6L208.95 286.9L208.65 295.55L206.85 353.95Q206.55 364.4 202.45 373.45Q195.9 360.75 199.45 343.9Q200.95 336.7 201 329.2Q201.3 269.45 203.2 209.95Q203.8 191.55 208.45 177Q210.35 226.1 209.2 276.2Q225.9 270.3 244.2 271.1Q244.65 225.25 248.95 180.8L249.45 180.75" />
</g>
</svg>
