<?xml version="1.0" encoding="utf-8"?>
<svg version="1.1" id="Layer_1"
xmlns="http://www.w3.org/2000/svg"
xmlns:xlink="http://www.w3.org/1999/xlink"


xml:space="preserve">
q-20.4 31.95 -21.3 70.8q-1.3 59.4 -6.75 118.4q-2.95 31.9 12.45 58.7q2.6 4.55 7.3 6.25q33.9 12.4 59.25 -17.05q16.7 -19.45 8.55 -38.55q-1.35 1.95 -3.3 3.05q-2.05 1.15 1.3 1.65q-7.8 24.2 -30.8 36.4q-9.55 5.05 -20.5 3.95q-27.25 -2.75 -26.5 -31.6q1.25 -47.55 2.8 -95.2q26 -0.05 52.5 -4.25q5.1 -6.55 0.35 -13.4q1.2 -34.3 11.05 -67q6.8 -22.7 28.35 -31.6q25.8 -10.65 32.8 13.4q1.55 -5.1 0.2 -10.45q-1.6 -6.5 -6.2 -11.8q-2.25 -1.5 -4.35 -3.2q-1.15 -0.95 -2.15 -2.05q-3.55 -1.35 -7.4 -0.65q-21 2.75 -32.5 20.7q-1.55 22.25 -12.45 41.75q-10.4 18.55 -29.35 28.8q-10.15 5.5 -21.5 8.4q4.6 -3.05 10.1 -2.85q18.15 8.7 27.35 27.3q9.85 19.8 8.3 42q-6.75 -56.1 -30 -107.15q6.8 -5.55 11.65 -12.75q35.2 -52.05 16.1 -112.25q-9.5 -30.1 -39.7 -33.5q-4 0.95 -7.6 2.45q-0.25 0.35 -0.35 0.8q-0.85 2.85 -0.65 5.95q0.15 2.25 1.75 3.8q-7 58.95 -10.45 118.6q-3.45 59.05 -10.05 117.7q-0.85 7.45 -2.8 14.65q-4.55 17.05 2.35 28.65q6.95 -22 8.8 -45.6q4.6 -58.8 8.05 -117.9q12.5 -0.65 23.9 -7q2.35 11 5.9 22q18.05 56.35 27.25 115.05q4.7 29.95 16.25 55.45q2.05 -1.7 1.6 -4.35q-5.2 -30.5 -12.6 -60.9q-2.75 -11.3 -4.1 -22.7q-5 34.95 -6.3 71.15q-1.35 36 -2.2 72.15q-17.25 2.85 -34.85 3.6q1.2 -43.75 2.95 -87.4q1.25 -31.15 -6.25 -59.05q-2 8.9 -1.55 18.5q2.7 59.55 1.15 119.2q-1.6 59.85 -4.85 119.25q-0.8 15 -3 29.75q-2.6 17.1 3.85 29.45q3 -8.8 3.4 -18.7q2.35 -59.6 3.8 -119.25q17.3 4.4 34.8 1.25q0.3 1.7 2 2q3.6 -35.65 3.55 -71.9q-0.05 -41.1 1.3 -82.05q1 -0.8 1.4 -2q1.65 -5.05 -0.65 -9.75q-0.35 -0.4 -0.8 -0.55q0.45 -12.35 1.05 -24.65q2.85 -59.8 2.05 -118.5q1.2 59.4 -2.15 118.55q-3.4 59.4 -8.3 118.4q-1.25 15.05 -4.65 29.6q-3.2 13.65 3.3 21.9q2.7 -5.6 3.35 -12q5.95 -59.1 8.45 -118.45q1.55 -36.75 4.75 -73.35q5.15 -59.45 -1.05 -118.65q-4.05 15.8 -3.7 34q-3.35 -28.65 -31.15 -31.7q-33.05 14.85 -33.4 52.75q-0.25 28.6 10.7 54.75q18.65 44.6 36.5 89.6q17.75 44.85 4.9 90.35q-2.65 9.45 -10.3 15q-23.95 17.65 -55.75 10.2q-17.65 -4.15 -23.1 -21.45q-1.55 -3.5 -5.2 -4q-0.3 -0.05 -0.65 0.3q-2.75 12.2 3.35 23.75q4.1 7.75 11.45 12.45q30.2 19.4 65.3 4.55q6.85 -2.85 10.4 -9.4q29.5 -54.35 10.25 -113.9q-6.75 -20.85 -17.8 -39.95q-26.15 -45.1 -32.3 -96.05q-3.15 -25.9 14.4 -44.1q4.55 -4.75 11.25 -5.05q25.65 -1 28.9 25.5q1.9 -5.55 1.15 -11.8<g id="2346" transform="matrix(1, 0, 0, 1, -16, 0)">
<path style="fill:#000000;fill-opacity:1" d="M397.95,122.25Q401.8 121.55 405.35 122.9L408.45 123.75Q409.45 124.85 410.6 125.8Q412.7 127.5 414.95 129Q419.55 134.3 421.15 140.8Q422.5 146.15 420.95 151.25Q413.95 127.2 388.15 137.85Q366.6 146.75 359.8 169.45Q349.95 202.15 348.75 236.45L348.3 249.5L348.45 249.25L348.95 248.5L401.45 241.5Q406.2 248.35 401.1 254.9L400.45 255.5Q373.95 259.7 347.95 259.75Q346.4 307.4 345.15 354.95Q344.4 383.8 371.65 386.55Q382.6 387.65 392.15 382.6Q415.15 370.4 422.95 346.2Q419.6 345.7 421.65 344.55Q423.6 343.45 424.95 341.5Q433.1 360.6 416.4 380.05Q391.05 409.5 357.15 397.1Q352.45 395.4 349.85 390.85Q334.45 364.05 337.4 332.15Q342.85 273.15 344.15 213.75Q345.05 174.9 365.45 142.95Q376.95 125 397.95 122.25M329,130.35Q319.8 111.75 301.65 103.05L297.55 102.65Q292.05 102.45 287.45 105.5L286.7 107.95L274 251.3Q285.35 248.4 295.5 242.9Q314.45 232.65 324.85 214.1Q335.75 194.6 337.3 172.35Q338.85 150.15 329 130.35M335.45,383.95Q342.85 414.35 348.05 444.85Q348.5 447.5 346.45 449.2Q334.9 423.7 330.2 393.75Q321 335.05 302.95 278.7Q299.4 267.7 297.05 256.7Q285.65 263.05 273.15 263.7L272.55 273.45Q269.1 332.55 264.5 391.35Q262.65 414.95 255.7 436.95Q248.8 425.35 253.35 408.3Q255.3 401.1 256.15 393.65Q262.75 335 266.2 275.95Q269.65 216.3 276.65 157.35L282.7 106.05Q281.1 104.5 280.95 102.25Q280.75 99.15 281.6 96.3Q281.7 95.85 281.95 95.5Q285.55 94 289.55 93.05L294.95 91.5Q325.15 94.9 334.65 125Q353.75 185.2 318.55 237.25Q313.7 244.45 306.9 250L301.35 254.1Q324.6 305.15 331.35 361.25Q332.7 372.65 335.45 383.95M205.2,98.75Q206 157.45 203.15 217.25Q202.55 229.55 202.1 241.9L202.4 241.95Q202.85 242.1 203.2 242.5Q205.5 247.2 203.85 252.25Q203.45 253.45 202.45 254.25L201.65 254.45Q200.3 295.4 200.35 336.5Q200.4 372.75 196.8 408.4L195.95 409.7Q194.25 409.4 193.95 407.7L195.45 289.25L196.05 255.65Q178.55 258.8 161.25 254.4L160.65 277.5Q159.2 337.15 156.85 396.75Q156.45 406.65 153.45 415.45Q147 403.1 149.6 386Q151.8 371.25 152.6 356.25Q155.85 296.85 157.45 237Q159 177.35 156.3 117.8Q155.85 108.2 157.85 99.3L158.2 99.25Q165.7 127.15 164.45 158.3Q162.7 201.95 161.5 245.7Q179.1 244.95 196.35 242.1Q197.2 205.95 198.55 169.95Q199.85 133.75 204.85 98.8L205.2 98.75M244.2,96Q250.4 155.2 245.25 214.65Q242.05 251.25 240.5 288Q238 347.35 232.05 406.45Q231.4 412.85 228.7 418.45Q222.2 410.2 225.4 396.55Q228.8 382 230.05 366.95Q234.95 307.95 238.35 248.55Q241.7 189.4 240.5 130Q240.15 111.8 244.2 96M125.95,138.25L125.65 137.7L125.15 136.4L123.95 135Q120.7 108.5 95.05 109.5Q88.35 109.8 83.8 114.55Q66.25 132.75 69.4 158.65Q75.55 209.6 101.7 254.7Q112.75 273.8 119.5 294.65Q138.75 354.2 109.25 408.55Q105.7 415.1 98.85 417.95Q63.75 432.8 33.55 413.4Q26.2 408.7 22.1 400.95Q16 389.4 18.75 377.2Q19.1 376.85 19.4 376.9Q23.05 377.4 24.6 380.9L25.5 382.45L26.5 383.2L28.5 384.7L28.4 385.1L25.75 385.7L25.5 385.95Q30.95 403.25 48.6 407.4Q80.4 414.85 104.35 397.2Q112 391.65 114.65 382.2Q127.5 336.7 109.75 291.85Q91.9 246.85 73.25 202.25Q62.3 176.1 62.55 147.5Q62.9 109.6 95.95 94.75Q123.75 97.8 127.1 126.45Q127.85 132.7 125.95 138.25" />
</g>
</svg>
