<?xml version="1.0" encoding="utf-8"?>
<svg version="1.1" id="Layer_1"
xmlns="http://www.w3.org/2000/svg"
xmlns:xlink="http://www.w3.org/1999/xlink"


xml:space="preserve">
q-3.15 12.1 -3.15 24.75q-0.1 46.65 -2.9 93.1q-1.6 26.75 2.5 52.9q0.8 5.2 2.85 6.15q2.75 -32 3.2 -64.4q0.6 -42.25 -0.05 -84.7q-21.45 -1.85 -43.3 0.9q-0.8 -0.15 -1.05 0.4q-5.65 13.8 -0.2 25.85q4 -12.95 0.75 -25.4q-2.2 39.1 -3.75 78.7q-1.3 1.7 -3 3q-5.4 1.75 -9.5 -1.25q-0.55 -8.25 -4 -14.25q-2.8 7.75 -2.75 16.5q0.1 18 19.5 12.25q4.7 -5.6 5.2 -12.75q3 -41.8 -1.2 -82.5q-19.3 23.1 -4.35 49q21.55 37.35 36.4 77.95q2.3 6.35 2.45 13.15q0.15 8.9 -2.85 17.35q-5.2 14.6 -19.7 19.35q-35 11.25 -44.85 -27.65q-19.25 17.1 -12.35 43.7q5.05 19.55 19.35 32.65q4.2 3.85 9.9 4.95q6.7 1.1 13.5 -0.75q22.05 -5.7 29 -28.85q14.85 -49.6 -18.35 -94.05q-14.65 -19.6 -22.8 -43.1q0.85 -9.75 7.5 -15.75q9.5 -0.5 17.75 4q5.25 -5.65 -0.05 -15.2q-4.8 -8.7 -12.7 -14.6q-5.75 37.5 -5.85 76.45q-8.35 2.35 -17.65 3.6q-0.25 -46.5 -2.1 -92.35q-4.15 50.7 -3.8 104.2q0.2 30.15 -2.75 59.9q-1.6 16.3 2.3 29.85q6.2 -36.1 6.35 -74.75q9.8 2.8 19.3 -2.2q-0.6 18.75 -2.15 37.5q-2.45 30.5 0.95 59.4q0.9 -0.35 1 -0.85q6.05 -37.5 6.4 -76.4q0.5 -59.8 0.35 -118.45q-0.2 -59.7 1.25 -119.2q0.75 -30.6 -1.6 -59.25q-5.35 23.05 -5.35 49q0.05 59.5 -2.35 119.15q-0.55 13.55 5.2 21.55q2.9 -5.05 2.85 -11.25<g id="2344" transform="matrix(1, 0, 0, 1, -129, 0)">
<path style="fill:#000000;fill-opacity:1" d="M373.9,181.4Q395.75 178.65 417.2 180.5L417.2 189.5L369.35 194.3L369.8 222.25Q370.45 264.7 369.85 306.95Q369.4 339.35 366.65 371.35Q364.6 370.4 363.8 365.2Q359.7 339.05 361.3 312.3Q364.1 265.85 364.2 219.2Q364.2 206.55 367.35 194.45L322.9 196.15L322.95 189.5L333.15 187.75L373.9 181.4M416.7,241.15L416.2 242Q410.75 229.95 416.4 216.15Q416.65 215.6 417.45 215.75Q420.7 228.2 416.7 241.15M414.2,271.2Q418.4 311.9 415.4 353.7Q414.9 360.85 410.2 366.45Q390.8 372.2 390.7 354.2Q390.65 345.45 393.45 337.7Q396.9 343.7 397.45 351.95Q401.55 354.95 406.95 353.2Q408.65 351.9 409.95 350.2Q411.5 310.6 413.7 271.5L414.2 271.2M192,183.7Q199.9 189.6 204.7 198.3Q210 207.85 204.75 213.5L201.45 208.75L198.5 203.5L198 201.25L191.75 195.25Q183.5 190.75 174 191.25Q167.35 197.25 166.5 207Q174.65 230.5 189.3 250.1Q222.5 294.55 207.65 344.15Q200.7 367.3 178.65 373Q171.85 374.85 165.15 373.75Q159.45 372.65 155.25 368.8Q140.95 355.7 135.9 336.15Q129 309.55 148.25 292.45L138.5 317.2L141.1 328.4Q150.95 367.3 185.95 356.05Q200.45 351.3 205.65 336.7Q208.65 328.25 208.5 319.35Q208.35 312.55 206.05 306.2Q191.2 265.6 169.65 228.25Q154.7 202.35 174 179.25L192 183.7M260.2,181.25Q260.35 239.9 259.85 299.7Q259.5 338.6 253.45 376.1Q253.35 376.6 252.45 376.95Q249.05 348.05 251.5 317.55Q253.05 298.8 253.65 280.05Q244.15 285.05 234.35 282.25L234.3 298.2Q234.15 336.85 227.95 372.95Q224.05 359.4 225.65 343.1Q228.6 313.35 228.4 283.2Q228.05 229.7 232.2 179Q234.05 224.85 234.3 271.35Q243.6 270.1 251.95 267.75L253.9 268.15L254 257.75Q254.1 218.8 259.85 181.3L260.2 181.25M295.7,368.45Q289.95 360.45 290.5 346.9Q292.9 287.25 292.85 227.75Q292.85 201.8 298.2 178.75Q300.55 207.4 299.8 238Q298.35 297.5 298.55 357.2Q298.6 363.4 295.7 368.45" />
</g>
</svg>
