<?xml version="1.0" encoding="utf-8"?>
<svg version="1.1" id="Layer_1"
xmlns="http://www.w3.org/2000/svg"
xmlns:xlink="http://www.w3.org/1999/xlink"


xml:space="preserve">
q-1.4 0.2 -2.5 1.5q-16.95 48.9 -34.95 97.8q-12.1 32.85 -21.75 66.45q-12.25 -30.05 -24.9 -60.2q-23.1 -54.8 -46.65 -109.3q-1 -0.25 -1.2 0.75q-0.45 2.2 -0.3 4.5q21.8 53.85 44.05 105.75q-5.6 20.05 -10.35 40.4q-13.3 57.1 -30.9 113q-4.4 14 -9.3 27.6q-4.85 13.55 2.3 20.9q7.15 -29.65 16.25 -59.05q17.55 -56.6 30.6 -114.2q9.85 -43.6 25.15 -85.65q20.3 -55.8 36.5 -112.3q1.65 -1.3 0.85 -3.15q0.25 59.6 -3.8 118.5q-0.75 11.25 -1.2 22.55q-28.35 -0.25 -54.45 1q1.2 -26.55 3.1 -53q4.25 -59.9 3.6 -118.3q-2.35 15.75 -3.5 33.45q-3.9 59.5 -7.4 119.25q-3.5 59.05 -3.05 118.55q0.25 30.05 -4.45 59q-2.7 16.5 2.65 29.45q2.4 -9.35 3 -19.45q3.05 -51.35 3.9 -103.5q0.55 -30.2 1.9 -60.35q29.1 7.4 59.15 4.9q-0.35 13.05 -0.25 26.2q0.5 59.95 -5.9 118.55q-0.8 7.4 -2.15 14.65q-3.25 17.2 2.6 29.25q2.15 -3 2.45 -6.65q5 -58.95 5.6 -118.55q0.35 -32.05 1.7 -63.85q2.65 -6.15 -2.2 -9.2q-5.15 -0.95 -10.6 0.25q1 -21.95 2.5 -43.85q4.1 -59.6 1.75 -118.5q-3.5 9.8 -3.45 22q-28.6 7.8 -37.05 36.7q-5.75 19.8 -1.5 40.2q12.25 58.1 44 109.55q31.65 51.3 34.75 111.25q0.55 10.8 -3.7 20.35q-11.25 25.35 -38.05 38.35q-16.25 7.9 -33.1 4.3q-8.1 -1.75 -12.95 -8.7q-11.65 -16.75 -21.85 -32.55q0.75 20.25 14.05 38.4q5.85 8 15.1 11.7q24.55 9.75 48.3 -6.45q14.7 -10.05 25.05 -24.05q15.1 -20.5 12.4 -47.2q-2.95 -28.6 -13.35 -55.6q-21.5 -55.85 -51.5 -108q-22.35 -38.8 -14.5 -82q2 -10.9 8.9 -19.3q26.55 -32.2 60.5 -5.7q1.1 2.9 -0.25 5.6q-1 2 -0.8 4q3.5 -3.9 2.25 -9.6q-5.95 -26.5 -38 -25.15<g id="2332" transform="matrix(1, 0, 0, 1, -54.5, 0)">
<path style="fill:#000000;fill-opacity:1" d="M423.35,77.15L422.95 77.75Q406.75 134.25 386.45 190.05Q371.15 232.1 361.3 275.7Q348.25 333.3 330.7 389.9Q321.6 419.3 314.45 448.95Q307.3 441.6 312.15 428.05Q317.05 414.45 321.45 400.45Q339.05 344.55 352.35 287.45Q357.1 267.1 362.7 247.05Q340.45 195.15 318.65 141.3L291.7 75.5Q291.55 73.2 292 71Q292.2 70 293.2 70.25Q316.75 124.75 339.85 179.55Q352.5 209.7 364.75 239.75Q374.4 206.15 386.5 173.3Q404.5 124.4 421.45 75.5Q422.55 74.2 423.95 74L424.2 74Q425 75.85 423.35 77.15M267.2,74.75Q269.55 133.65 265.45 193.25Q263.95 215.15 262.95 237.1L263.35 237Q268.8 235.8 273.95 236.75Q278.8 239.8 276.15 245.95L275.7 246.75L262.45 248.65Q261.1 280.45 260.75 312.5Q260.15 372.1 255.15 431.05Q254.85 434.7 252.7 437.7Q246.85 425.65 250.1 408.45Q251.45 401.2 252.25 393.8Q258.65 335.2 258.15 275.25Q258.05 262.1 258.4 249.05Q228.35 251.55 199.25 244.15Q197.9 274.3 197.35 304.5Q196.5 356.65 193.45 408Q192.85 418.1 190.45 427.45Q185.1 414.5 187.8 398Q192.5 369.05 192.25 339Q191.8 279.5 195.3 220.45Q198.8 160.7 202.7 101.2Q203.85 83.5 206.2 67.75Q206.85 126.15 202.6 186.05Q200.7 212.5 199.5 239.05Q225.6 237.8 253.95 238.05L258.75 237.8Q259.2 226.5 259.95 215.25Q264 156.35 263.75 96.75Q263.7 84.55 267.2 74.75M161.95,91.9Q163.2 97.6 159.7 101.5Q159.5 99.5 160.5 97.5Q161.85 94.8 160.75 91.9L159.45 88Q125.5 61.5 98.95 93.7Q92.05 102.1 90.05 113Q82.2 156.2 104.55 195Q134.55 247.15 156.05 303Q166.45 330 169.4 358.6Q172.1 385.3 157 405.8Q146.65 419.8 131.95 429.85Q108.2 446.05 83.65 436.3Q74.4 432.6 68.55 424.6Q55.25 406.45 54.5 386.2Q64.7 402 76.35 418.75Q81.2 425.7 89.3 427.45Q106.15 431.05 122.4 423.15Q149.2 410.15 160.45 384.8Q164.7 375.25 164.15 364.45Q161.05 304.5 129.4 253.2Q97.65 201.75 85.4 143.65Q81.15 123.25 86.9 103.45Q95.35 74.55 123.95 66.75Q156 65.4 161.95 91.9" />
</g>
</svg>
