<?xml version="1.0" encoding="utf-8"?>
<svg version="1.1" id="Layer_1"
xmlns="http://www.w3.org/2000/svg"
xmlns:xlink="http://www.w3.org/1999/xlink"


xml:space="preserve">
q-4.5 28.1 -6.35 58.7q-3.6 58.95 -9.5 117.65q-6 59 -14.65 117.6q-2.15 -8.35 -2.35 -17.25q-0.35 0.15 -0.35 0.3q-0.45 11.45 2.35 22.45q-2.6 8.8 3.25 13.5q0.9 -0.75 1.05 -1.6q9.2 -52 15.3 -104.85q9.45 -5.2 17 -12.3q0.1 3.8 1.2 7.95q14.85 57 28.65 114q3.85 15.9 11.7 27.95q4.05 -3.4 2.9 -8.85q-4.3 -20.05 -9.55 -40.3q-13.95 -53.4 -29.8 -106q10.8 -12.25 16.95 -29.3q20.85 -57.55 3.75 -116.8q-5.4 -18.7 -20.25 -26.45q-4.35 1.5 -8 4.45q-2.75 1.05 -3.55 3.8q9.65 14.45 13.45 31.35q14.2 63.6 -24.25 115.95q-3.15 4.35 -7.85 6.5q-4 1.85 -6.65 4.15q4.8 -53.9 2.9 -106.9q1 -0.25 1.75 -0.85q4.45 -2.15 8.75 0.25q-40 41.45 -42.8 102.45q-0.95 22.25 11.75 40.45q4.1 5.9 11.4 5.6q2.55 -1.15 5 -2.5q12.85 -7.3 18.65 -20.75q4.55 -10.55 -2.5 -19.45q-6.05 20.55 -24.85 26.7q-6.8 2.15 -13.9 0.3q-10.3 -41 -1.8 -83.55q1.6 -3.85 1.35 -7.85q-0.15 -2.65 -1.4 -5.15q-14.65 -1.35 -29.55 3.45q1.85 -48.45 32.55 -85.7q7.25 -14.05 -4.65 -26.3q-3.95 -4.15 -9.35 -5.7q-1.8 0.9 -3.6 2.35q-40.7 32.05 -47.05 84.05q-7.2 58.6 -5.8 118.6q0.65 29.9 3.95 59.4q4.45 39.75 41.55 49.5q5.25 1.35 10.45 -0.4q25.6 -8.8 37.2 -34.75q24.4 -54.8 31.9 -114.35q7.55 -59.7 -12.1 -115.3q-10.15 -28.75 -34 -44.85q-1.2 -1.55 -2.95 -2.3q-1.95 -0.85 -3.55 -2.2q-2.25 -0.25 -4.25 -1.05q-3.4 -1.35 -7.25 -0.45q-8 26.85 -8.2 56.65q-0.3 46.05 -1.95 92q-17.55 2.2 -34.7 -2.5q0.75 -60.05 0.65 -118.5q-3.4 4.3 -3.8 11.2q-3.3 59.05 -4 118.55q-0.7 59.95 -4.85 119.25q-1.05 15.05 -3.8 29.75q-3.2 17.25 3.2 29.95q0.9 -0.6 1 -1.35q5.05 -34.4 7.2 -69.55q2.55 -40.7 3.65 -81.7q17.9 5.75 36.35 3.55q-2.6 58.9 -1.85 118.5q-1.55 -0.6 -2.35 -2.25q-0.9 2.1 2.25 5.25q-2.7 8.8 3.5 14q4.7 -5.2 4.45 -13.25q-1.75 -60 0.65 -119.2q2.35 -59.5 4.15 -119.25q0.9 -30.4 1 -59.25q31.6 18.7 42.2 54.8q17.1 58.6 3.05 118.35q-10.55 45.85 -44.35 76.85q-17.2 1.8 -33.75 -4.75q-1.75 -1.9 -4.1 -2.95q-17.65 -41.8 -17.85 -88.45q-0.15 -29.9 0.95 -59.35q1.75 -45.15 18.05 -86.55q9.85 -25.15 31.85 -38.85q6.95 -0.95 12.9 2.55q-20.3 36.95 -5.85 78.85q10.55 31 19.15 62.85q7.35 27.3 2.15 54.8q-7.75 41.15 -49.85 40.75q-9.05 -4.7 -12.05 -14.05q-3.9 -12.15 -10.7 -19.45q-2.4 3 -2.55 6.8q-0.4 10.3 2.85 19.95q8.4 24.9 34.45 25.25q27 -6 38.55 -30.8q7 -15.1 6.85 -31.4q-0.6 -57.6 -18.05 -112.55q-4.6 -14.45 -11.75 -27.7q-22.4 -41.4 -11.6 -85.5q1.3 -1.25 2 -2.95q2.65 -2 5.45 -3.8q10.8 -1.7 15.7 7.65q3.8 -4.7 2.7 -11.1q-4.45 -26.7 -28.7 -31.15<g id="2201" transform="matrix(1, 0, 0, 1, -19.3, 0)">
<path style="fill:#000000;fill-opacity:1" d="M338.4,94.8Q339.2 92.05 341.95 91L342.25 90.25L342.95 88.75Q346.6 85.8 350.95 84.3L351.95 84Q366.8 91.75 372.2 110.45Q389.3 169.7 368.45 227.25Q362.3 244.3 351.5 256.55Q367.35 309.15 381.3 362.55Q386.55 382.8 390.85 402.85Q392 408.3 387.95 411.7Q380.1 399.65 376.25 383.75Q362.45 326.75 347.6 269.75Q346.5 265.6 346.4 261.8Q338.85 268.9 329.4 274.1L326.8 297.5Q320.7 350.35 311.5 402.35Q311.35 403.2 310.45 403.95Q304.6 399.25 307.2 390.45Q304.4 379.45 304.85 368Q304.85 367.85 305.2 367.7Q305.4 376.6 307.55 384.95L307.7 385.2Q316.35 326.6 322.35 267.6Q328.25 208.9 331.85 149.95Q333.7 119.35 338.2 91.25L338.4 94.8M347.95,97.25L341.2 102.9Q340.45 103.5 339.45 103.75L338.7 102.25Q340.6 155.25 335.8 209.15L331.4 255.45Q334.05 253.15 338.05 251.3Q342.75 249.15 345.9 244.8Q384.35 192.45 370.15 128.85Q366.35 111.95 356.7 97.5Q352.4 95.1 347.95 97.25M435.3,139.95Q447.2 152.2 439.95 166.25L431.95 148.5L425.95 148.25Q395.25 185.5 393.4 233.95Q408.3 229.15 422.95 230.5L423.65 231.75Q424.9 234.25 425.05 236.9Q425.3 240.9 423.7 244.75L391.65 246.2Q383.15 288.75 393.45 329.75Q400.55 331.6 407.35 329.45Q426.15 323.3 432.2 302.75Q439.25 311.65 434.7 322.2Q428.9 335.65 416.05 342.95Q413.6 344.3 411.05 345.45L407.05 346.7L403.4 347.5Q396.1 347.8 392 341.9Q379.3 323.7 380.25 301.45L383.15 236.7Q385.95 175.7 425.95 134.25Q431.35 135.8 435.3 139.95M256.2,87.95Q258.2 88.75 260.45 89Q262.05 90.35 264 91.2Q265.75 91.95 266.95 93.5L267.85 93.25L269.45 92L271.45 91.75Q295.3 107.85 305.45 136.6Q325.1 192.2 317.55 251.9Q310.05 311.45 285.65 366.25Q274.05 392.2 248.45 401Q243.25 402.75 238 401.4Q200.9 391.65 196.45 351.9Q193.15 322.4 192.5 292.5Q191.1 232.5 198.3 173.9Q204.65 121.9 245.35 89.85Q247.15 88.4 248.95 87.5Q252.8 86.6 256.2 87.95M175.2,90Q175.1 118.85 174.2 149.25Q172.4 209 170.05 268.5Q167.65 327.7 169.4 387.7Q169.65 395.75 164.95 400.95Q158.75 395.75 161.45 386.95Q158.3 383.8 159.2 381.7Q160 383.35 161.55 383.95L161.7 383.7Q160.95 324.1 163.55 265.2L164.15 250.9Q145.7 253.1 127.8 247.35Q126.7 288.35 124.15 329.05Q122 364.2 116.95 398.6Q116.85 399.35 115.95 399.95Q109.55 387.25 112.75 370Q115.5 355.3 116.55 340.25Q120.7 280.95 121.4 221Q122.1 161.5 125.4 102.45Q125.8 95.55 129.2 91.25Q129.3 149.7 128.55 209.75L128.1 236.65L129.95 236.35L129.95 236.25Q147.1 240.95 164.65 238.75Q166.3 192.8 166.6 146.75Q166.8 116.95 174.8 90.1L175.2 90M247.95,101Q225.95 114.7 216.1 139.85Q199.8 181.25 198.05 226.4Q196.95 255.85 197.1 285.75Q197.3 332.4 214.95 374.2Q217.3 375.25 219.05 377.15L220.95 379.2Q237.5 385.75 254.7 383.95Q288.5 352.95 299.05 307.1L306.1 276.7Q320.15 216.95 303.05 158.35Q292.45 122.25 260.85 103.55Q254.9 100.05 247.95 101M67.7,91.45L73 88Q97.25 92.45 101.7 119.15Q102.8 125.55 99 130.25L88.45 110.15Q83.55 100.8 72.75 102.5L70.45 103.95Q67.65 105.75 65 107.75L64.7 108.5Q64 110.2 62.7 111.45L61 113Q50.2 157.1 72.6 198.5Q79.75 211.75 84.35 226.2Q101.8 281.15 102.4 338.75Q102.55 355.05 95.55 370.15Q84 394.95 57 400.95Q30.95 400.6 22.55 375.7Q19.3 366.05 19.7 355.75Q19.85 351.95 22.25 348.95Q29.05 356.25 32.95 368.4Q35.95 377.75 45 382.45Q87.1 382.85 94.85 341.7Q100.05 314.2 92.7 286.9Q84.1 255.05 73.55 224.05L56.4 174.1Q41.95 132.2 62.25 95.25L67.7 91.45" />
</g>
</svg>
