<?xml version="1.0" encoding="utf-8"?>
<svg version="1.1" id="Layer_1"
xmlns="http://www.w3.org/2000/svg"
xmlns:xlink="http://www.w3.org/1999/xlink"


xml:space="preserve">
q-5.1 43 -3.9 87.55q0.35 13.2 0.25 26.45q-0.15 14.9 -2.05 29.45q-1.7 13.35 -1.65 26.75q0 9.15 3.85 17.3q8.4 -43.45 6.75 -87.8q19.35 4.6 33.2 -9.85q2.05 -2.05 3.7 -4.55q3.35 -5.1 5.8 -10.75q3 -7.05 4.1 -14.55q1.9 -13 -0.75 -25.8q-1.3 -6.3 -4.05 -12.2q-2.75 -5.9 -6.8 -10.8q-6.7 -8.05 -15.45 -13.65q16.05 14.8 15 36.7q-1.7 36.45 -39.65 34.75q-0.55 -38.5 -2.4 -76.2q12.85 3.6 27.05 4.75q-4.8 -26.85 -30.6 -27.7q-20.05 6.15 -31.6 23.3q-6.65 9.95 -10.15 21.2q-17.95 57.2 -2.6 116.2q3.8 14.65 17.9 19.8q31.7 11.65 46.85 -16.1q30 -54.85 14.95 -114.5q-2.8 -11.05 -4.75 -22.2q10.8 57.65 -28.3 101.35q-5.35 0.5 -10.65 1.55q-17.6 3.4 -26.8 -10.55q-7.95 -11.95 -9.75 -26.55q-2.6 -21.05 -2 -42.2q1.4 -51.6 46.7 -74.2q5.5 -1.35 10.5 1.25q15.25 22.25 20.3 49.35q-2 22.6 -1.8 46.95q0.5 59.75 -8.9 118.2q-2.75 16.9 3.85 29.5q5.5 -37.6 8.75 -76.5q21.75 4.45 42.55 0.9q1.3 28.8 -1.7 57.5q-1.8 16.85 4.3 29.4q5.95 -34.7 5.2 -71.25q1.15 -4.6 0.5 -9.4q-1.65 -44.8 -5.4 -88.8q-3.3 42.95 -1.75 87.2q-21.1 0.2 -41.3 3q2.15 -46.85 -2.45 -92.95q-1.05 -0.2 -1.1 0.3q-12.8 8.2 -16.35 24.1q-5.75 25.7 8.7 46.6q21.7 31.45 17.85 69.85q-2.9 29 -31.2 27.3q-0.45 0.1 -0.8 0.45q-2.75 6.6 -0.95 13.55q0.5 1.95 2.2 2.95q1.9 -0.15 3.05 1.2q28.4 1.8 36.6 -25.6q4.25 -14.3 4.6 -29.4q0.8 -31.1 -17.85 -55.15q-17.15 -22.1 -11.4 -47.8q4.95 -22.15 29.3 -16.75q1.4 1.45 3.2 1.35q2.8 -6.25 -1.4 -11.9q-1.45 -1.95 -3.6 -3.1q-16.2 16.15 -17.8 38.95q4.3 1.5 8.8 1.15q-0.9 -22.55 -12.55 -41.65q2.65 -5.35 4.7 -10.65q0.9 4.65 2.8 9.25<g id="2189" transform="matrix(1, 0, 0, 1, -131.25, 0)">
<path style="fill:#000000;fill-opacity:1" d="M375.95,182.25L392.95 181.5Q401.7 187.1 408.4 195.15Q412.45 200.05 415.2 205.95Q417.95 211.85 419.25 218.15Q421.9 230.95 420 243.95Q418.9 251.45 415.9 258.5Q413.45 264.15 410.1 269.25Q408.45 271.75 406.4 273.8Q392.55 288.25 373.2 283.65Q374.85 328 366.45 371.45Q362.6 363.3 362.6 354.15Q362.55 340.75 364.25 327.4Q366.15 312.85 366.3 297.95Q366.4 284.7 366.05 271.5Q364.85 226.95 369.95 183.95L370.3 185.75L375.95 182.25M370.65,192Q372.5 229.7 373.05 268.2Q411 269.9 412.7 233.45Q413.75 211.55 397.7 196.75Q383.5 195.6 370.65 192M352.3,233.15Q367.35 292.8 337.35 347.65Q322.2 375.4 290.5 363.75Q276.4 358.6 272.6 343.95Q257.25 284.95 275.2 227.75Q278.7 216.5 285.35 206.55Q296.9 189.4 316.95 183.25Q342.75 184.1 347.55 210.95Q349.5 222.1 352.3 233.15M327.7,198.25Q322.7 195.65 317.2 197Q271.9 219.6 270.5 271.2Q269.9 292.35 272.5 313.4Q274.3 328 282.25 339.95Q291.45 353.9 309.05 350.5Q314.35 349.45 319.7 348.95Q358.8 305.25 348 247.6Q342.95 220.5 327.7 198.25M201.45,180.25Q206.05 226.35 203.9 273.2Q224.1 270.4 245.2 270.2Q243.65 225.95 246.95 183L247.45 183Q251.2 227 252.85 271.8L253.25 272.45L253.7 273.2Q254.35 278 253.2 282.6L253.65 301.45Q254.4 338 248.45 372.7Q242.35 360.15 244.15 343.3Q247.15 314.6 245.85 285.8Q225.05 289.35 203.3 284.9L202.25 298.7Q199 337.6 193.5 375.2Q186.9 362.6 189.65 345.7Q199.05 287.25 198.55 227.5Q198.35 203.15 200.35 180.55Q200.4 180.05 201.45 180.25M179.5,180.75Q181.65 181.9 183.1 183.85Q187.3 189.5 184.5 195.75L183.7 195.85Q181.9 195.95 180.5 194.5Q156.15 189.1 151.2 211.25Q145.45 236.95 162.6 259.05Q181.25 283.1 180.45 314.2Q180.1 329.3 175.85 343.6Q167.65 371 139.25 369.2L138.3 368.4Q137.15 367.05 135.25 367.2Q133.55 366.2 133.05 364.25Q131.25 357.3 134 350.7Q134.35 350.35 134.8 350.25L138.75 349.7L140.1 350.6L140.5 351.2Q168.8 352.9 171.7 323.9Q175.55 285.5 153.85 254.05Q139.4 233.15 145.15 207.45Q148.7 191.55 161.5 183.35L166 180.5L179.5 180.75M307.35,279.75Q319 298.85 319.9 321.4L311.15 307.5L307.45 309.45L303.4 310.15Q298.9 310.5 294.6 309L285.45 321.95L285.6 317.45Q287.2 294.65 303.4 278.5L307.2 276.75L307.35 279.75M306.95,298.65Q305.05 294.05 304.15 289.4Q302.1 294.7 299.45 300.05L306.95 298.65" />
</g>
</svg>
