<?xml version="1.0" encoding="utf-8"?>
<svg version="1.1" id="Layer_1"
xmlns="http://www.w3.org/2000/svg"
xmlns:xlink="http://www.w3.org/1999/xlink"


xml:space="preserve">
q-5.25 13.6 -7 30.75q-6 58.6 -14.05 116.9q-8.15 58.8 -19.45 115.8q-0.3 -4.7 0.15 -9q-1.85 3 -1.65 6.8q0.2 3.4 -0.65 6.15q-4.45 13.75 4.3 20.55q6.9 -19.7 10.5 -41q3.55 -20.6 6.7 -41.25q4.6 -29.85 8.2 -59.9q5.05 58.4 8.85 116.7q-1.65 -1.8 -3.75 -2.5q1.3 2 3 3.75q0.5 3.4 0.4 6.75q-0.35 12.45 7.35 17.25q0.5 -0.75 0.5 -1.5q-0.45 -56.15 -5.95 -112.55q-2.85 -29.75 -5.35 -59.3q-4.9 -59.1 -14.95 -116.85q-1 2.25 -1.75 4.6q6.25 45.4 10.55 91.15q-1.9 0.6 -3.45 1.65q3.05 -29.15 7.65 -58.1q1.5 -9.5 2.3 -18.9q-1.75 59.35 -5.15 118.5q-1.3 22.5 -4.3 44.75q-1.8 13.6 4.95 22.45q1.05 0.8 2.2 1.4q24 4.4 47.75 -1.5q0.2 -1.9 0 -3.75q-0.3 -3.65 -3 -6q-27.65 8.3 -54.05 -0.75q2.6 -21.05 3.55 -42.75q2.65 -59.95 -0.05 -118.5q-4.3 11.5 -4.65 26q-8.2 55.55 -8.7 113.2q-16.35 -0.15 -31.85 3.05q0.95 -35.75 0.6 -71.7q-0.2 -15 1.4 -29.85q1.8 -17.05 -4.35 -29.65q-0.9 0.35 -0.95 1.5q-2.25 58.7 -3.7 118.5q-1.4 59.75 -5 119.25q-0.95 15.1 -3.7 29.7q-2.65 13.85 4.35 22.25q4.7 -5.45 5 -13.4q1.8 -49.3 4.45 -99q15.5 3.1 31.9 1.35q-0.85 46.85 -3.35 93.4q-0.85 15 -2.75 29.7q-2.2 16.9 4.65 29.5q0.65 -0.75 0.7 -1.55q4.75 -55.85 6.6 -112.4q2.5 -60 1.5 -118.55q-3.15 1.25 -6.4 3.4q-36.65 24.25 -44.25 68.6q-9.95 58.1 -7.65 117.95q1.15 30.5 21.9 50.5q9.3 8.95 22.35 8.55q35.75 -1.05 51.3 -34.75q25.6 -55.35 27.1 -116.1q0.8 -29.95 -2.3 -59.45q-5.55 -53.9 -41.85 -92.8q-10.1 -4.05 -21.1 -4.85q9.65 12.4 17.5 26.3q20.65 36.75 24.4 79.35q5.25 60 -16.3 116.65q-8.65 22.75 -26 39.7q-23.9 23.4 -50.5 3.25q-3.25 -2.45 -4.35 -5.65q-14.1 -40 -15.75 -83.25q-2.35 -59.75 8.15 -118.15q7.7 -43.05 45.45 -61.9q8.75 -0.95 17 2.5q0 0.75 0.4 1.2q-7.7 33.4 5.45 65.2q18.85 44.5 7.35 91.15q-1.65 6.5 -6.45 10.85q-32.5 29.65 -63.65 -2.35q1.3 -6.3 -1.2 -11.95q-1.25 -2.75 -3.85 -2.55q-10.75 29.9 19 44.85q23.05 11.65 43.65 -3.5q18.9 -13.95 22.35 -37.65q8.3 -57.2 -17.8 -109.1q-18.2 -36.25 -30.1 -75q-8.25 -26.8 10.9 -44.1q7.2 -3.95 15 -0.5q8 4.3 13.5 11.6q3.5 4.55 4.45 10.15q0.9 0.7 2 0.95q2.2 -4.95 0.85 -10.35q-6.95 -27.2 -35.05 -28.15q-14 5.7 -17.5 20.65<g id="2204" transform="matrix(1, 0, 0, 1, -16.75, 0)">
<path style="fill:#000000;fill-opacity:1" d="M361.45,111.25Q371.5 169 376.4 228.1Q378.9 257.65 381.75 287.4Q387.25 343.8 387.7 399.95Q387.7 400.7 387.2 401.45Q379.5 396.65 379.85 384.2Q379.95 380.85 379.45 377.45Q377.75 375.7 376.45 373.7Q378.55 374.4 380.2 376.2Q376.4 317.9 371.35 259.5L371.2 257.6L348.7 256.75L347.7 257.45L346.95 257.75L346.35 257.8Q342.75 287.85 338.15 317.7Q335 338.35 331.45 358.95Q327.85 380.25 320.95 399.95Q312.2 393.15 316.65 379.4Q317.5 376.65 317.3 373.25Q317.1 369.45 318.95 366.45Q318.5 370.75 318.8 375.45L318.95 376.2Q330.25 319.2 338.4 260.4Q346.45 202.1 352.45 143.5Q354.2 126.35 359.45 112.75L359.7 115.85Q360.45 113.5 361.45 111.25M357.1,171.55Q352.5 200.5 349.45 229.65L347.95 243.95Q349.5 242.9 351.4 242.3L357.45 242.5L369.95 243.8Q365.65 198.05 359.4 152.65Q358.6 162.05 357.1 171.55M411.2,109Q413.9 167.55 411.25 227.5L406.05 346Q405.1 367.7 402.5 388.75Q428.9 397.8 456.55 389.5L457.45 389.45Q460.15 391.8 460.45 395.45Q460.65 397.3 460.45 399.2L460.1 401.45L459.05 404.4L458.2 405.95Q434.45 411.85 410.45 407.45L402.9 403.05Q401.75 402.45 400.7 401.65L399.95 402.45Q393.2 393.6 395 380Q398 357.75 399.3 335.25Q402.7 276.1 404.45 216.75L406.55 135Q406.9 120.5 411.2 109M182.45,109.5Q183.45 168.05 180.95 228.05L178.75 287.25Q176.9 343.8 172.15 399.65Q172.1 400.45 171.45 401.2Q164.6 388.6 166.8 371.7Q168.7 357 169.55 342Q172.05 295.45 172.9 248.6Q156.5 250.35 141 247.25L139.4 284.55Q136.75 334.25 134.95 383.55Q134.65 391.5 129.95 396.95Q122.95 388.55 125.6 374.7Q128.35 360.1 129.3 345Q132.9 285.5 134.3 225.75Q135.75 165.95 138 107.25Q138.05 106.1 138.95 105.75Q145.1 118.35 143.3 135.4Q141.7 150.25 141.9 165.25Q142.25 201.2 141.3 236.95Q156.8 233.75 173.15 233.9L173.25 222.75Q173.75 165.1 181.95 109.55L182.45 109.5M276.05,107.85L277.45 108.25Q313.75 147.15 319.3 201.05Q322.4 230.55 321.6 260.5Q320.1 321.25 294.5 376.6Q278.95 410.3 243.2 411.35Q230.15 411.75 220.85 402.8Q200.1 382.8 198.95 352.3L196.65 292.95Q194.35 233.1 204.3 175Q211.9 130.65 248.55 106.4Q251.8 104.25 254.95 103Q265.95 103.8 276.05 107.85M272.2,119.75Q263.95 116.3 255.2 117.25Q217.45 136.1 209.75 179.15Q199.25 237.55 201.6 297.3Q203.25 340.55 217.35 380.55Q218.45 383.75 221.7 386.2Q248.3 406.35 272.2 382.95Q289.55 366 298.2 343.25Q319.75 286.6 314.5 226.6Q310.75 184 290.1 147.25Q282.25 133.35 272.6 120.95Q272.2 120.5 272.2 119.75M78,103.75Q106.1 104.7 113.05 131.9Q114.4 137.3 112.2 142.25L111.05 142.35Q109.95 142.1 109.05 141.4L108.45 140.75Q107.5 135.15 104 130.6Q98.5 123.3 90.5 119Q82.7 115.55 75.5 119.5Q56.35 136.8 64.6 163.6Q76.5 202.35 94.7 238.6Q120.8 290.5 112.5 347.7Q109.05 371.4 90.15 385.35Q69.55 400.5 46.5 388.85Q16.75 373.9 27.5 344Q30.1 343.8 31.35 346.55Q33.85 352.2 32.55 358.5L32.5 359.2Q63.65 391.2 96.15 361.55Q100.95 357.2 102.6 350.7Q114.1 304.05 95.25 259.55L65.95 189.6Q52.8 157.8 60.5 124.4Q64 109.45 78 103.75" />
</g>
</svg>
