<?xml version="1.0" encoding="utf-8"?>
<svg version="1.1" id="Layer_1"
xmlns="http://www.w3.org/2000/svg"
xmlns:xlink="http://www.w3.org/1999/xlink"


xml:space="preserve">
q-3.25 58 -11 117.1q-7.65 58.65 -14.55 116.9q-0.95 8.15 -3.05 15.8q0.2 3.25 -2.25 4.95q-11.95 -56.9 -17.65 -116.6q-2.05 -22 -0.45 -42.85q9.2 58.1 16.7 116.8q2.75 -12.45 4.4 -25.15q7.5 -58.4 13.65 -117q4.35 -41.55 13.25 -80.4q17.25 56.15 31.2 113.4q14.1 57.6 23.85 115.55q0.3 1.8 0.9 3.4q-0.55 -15.35 1.05 -31.3q1.5 -14.8 2 -29.8q2.05 -59.4 0.45 -119.25q-0.6 -23.15 5.55 -42.75q-0.25 58.15 -1.2 118.5q-0.95 59.3 -1.15 118.45q0 5.4 -1.7 9.85q0.3 7.95 -0.65 15.85q-8.45 -26.85 -13.55 -56.5q-9.85 -57.15 -23.5 -113.9q-6.3 -26.2 -14.1 -52q-6.5 -21.65 -8.6 -42.75q-0.25 55.45 -3.05 112.05q-2.3 53.5 -7.35 106.4q-0.05 0.7 -0.8 1.3q-4.25 -13.2 -2.8 -29.85q5.3 -58.8 7.15 -118.35q1.85 -59.55 6.85 -118.5q0.15 -2.2 1.55 -2.8q-3.9 57.35 -13.65 116.25q-3.45 20.9 -9.35 40.95q-4.6 -5.1 -4.3 -12.75q-2.15 -8.75 -2.4 -18.95q-1.45 -59.05 -5.7 -117.7q-4.15 -56.5 -7.5 -112.55q-0.15 -2.15 1.65 -2.5q8.45 58.1 12 117.65q3.25 55.1 6 109.85q4.15 -15.75 6.75 -31.9q5.8 -35.6 9.6 -71.55q1.3 -12.15 6.45 -21.9q4.05 -3.6 8.35 -5.9q15.15 -0.05 24.1 12.45q0.35 -0.5 0.85 -0.85q9.95 8.85 13.8 23.85q14.35 56.35 12.55 115.65q-1.7 56.7 -36.55 100.25q-1.65 2.15 -4 4q-9.25 7.55 -20.8 7.45q-35.35 -18.2 -35.15 -59.7q0.15 -29.6 -0.3 -59.25q-0.9 -59.55 19.7 -115.05q4.95 -13.25 15.9 -23.05q-2.75 59 -4.65 118.45q-1.9 59.3 -4.4 118.55q-0.4 10.2 -3.7 19.45q-5.6 -8.25 -3.1 -21.7q2.65 -14.6 3.4 -29.75q2.05 -39.35 3.2 -78.75q-2.25 54.95 -6.2 109.5q-0.7 9.8 -4.35 17.9q-5.4 -9.4 -2.95 -22.55q5.45 -29.05 6.65 -58.9q2.45 -59.3 3.95 -118.5q0.6 -24.7 3.55 -48.75q0.55 -4.15 3.05 -6.25q-1.05 58.3 -3.35 118.45q1.5 -0.85 3.2 -1.15q10.8 1.65 21.5 1.1q0.65 -40.5 2.75 -80.3q0.3 -6.5 3.35 -10.7q1.6 1.9 1.95 4.45q-33 28.25 -36 73.35q-5.1 59.6 5.95 118.15q3 15.95 18.05 22.9q37.95 -10.7 47.45 -51.65q5.15 -22.05 6.6 -44.65q4.05 -61.4 -14.3 -118.4q-7.7 -23.95 -32.25 -25.25q3.4 -4.25 8.4 -5.35q17.8 -1.7 29.3 11.4q3.75 6.1 5.7 12.85q3 10.45 -1.95 19.4q-0.75 -0.15 -1.15 -0.6q-2.4 -2.65 -0.85 -6.2q1 -2.25 1.25 -4.7q-0.55 -1.1 -0.75 -2.3q-4.95 -6.95 -12.75 -10.75q-9.55 -3.25 -18.95 0.65q-14.75 23.2 -2.35 50.15q16.1 35.15 35.85 69.05q21.2 36.35 18.85 78.85q-1.35 24.6 -15.25 44.1q-6.3 8.8 -17.15 11.4q-31.5 7.55 -52.95 -19q-20.9 -25.85 -16.25 -57.55q5.3 6 6.6 18.55q0.7 6.25 3.45 12.25q14.55 31.3 48.3 33.75q5.85 0.4 11.55 -1.9q25.3 -10.25 26.5 -38.6q2.55 -58.85 -33.75 -107.1q-32.2 -42.8 -20.55 -93.6q0.95 -4.15 3.75 -7.75<g id="2194" transform="matrix(1, 0, 0, 1, -25.1, 0)">
<path style="fill:#000000;fill-opacity:1" d="M387.2,111.75Q383.95 169.75 376.2 228.85Q368.55 287.5 361.65 345.75Q360.7 353.9 358.6 361.55L359.2 372Q359.4 375.25 356.95 376.95Q345 320.05 339.3 260.35Q337.25 238.35 338.85 217.5L339.2 217.5Q348.4 275.6 355.9 334.3Q358.65 321.85 360.3 309.15Q367.8 250.75 373.95 192.15Q378.3 150.6 387.2 111.75M406.7,114.45L406.6 112.75L407.2 112.75Q424.45 168.9 438.4 226.15Q452.5 283.75 462.25 341.7Q462.55 343.5 463.15 345.1Q462.6 329.75 464.2 313.8Q465.7 299 466.2 284Q468.25 224.6 466.65 164.75Q466.05 141.6 472.2 122Q471.95 180.15 471 240.5Q470.05 299.8 469.85 358.95Q469.85 364.35 468.15 368.8Q468.45 376.75 467.5 384.65L466.95 385.2Q458.5 358.35 453.4 328.7Q443.55 271.55 429.9 214.8Q423.6 188.6 415.8 162.8Q409.3 141.15 407.2 120.05Q406.95 175.5 404.15 232.1L402.1 276.25Q399.8 329.75 394.75 382.65Q394.7 383.35 393.95 383.95Q389.7 370.75 391.15 354.1Q396.45 295.3 398.3 235.75Q400.15 176.2 405.15 117.25Q405.3 115.05 406.7 114.45M338.45,216.5Q334.55 273.85 324.8 332.75Q321.35 353.65 315.45 373.7Q310.85 368.6 311.15 360.95Q309 352.2 308.75 342Q307.3 282.95 303.05 224.3Q298.9 167.8 295.55 111.75Q295.4 109.6 297.2 109.25Q305.65 167.35 309.2 226.9Q312.45 282 315.2 336.75L315.65 341.85Q319.8 326.1 322.4 309.95Q328.2 274.35 332 238.4Q333.3 226.25 338.45 216.5M235.6,112.9Q239.65 109.3 243.95 107Q259.1 106.95 268.05 119.45L268.7 120.25L269.1 120.1L269.6 119.6Q269.95 119.1 270.45 118.75Q280.4 127.6 284.25 142.6Q298.6 198.95 296.8 258.25Q295.1 314.95 260.25 358.5Q258.6 360.65 256.25 362.5Q247 370.05 235.45 369.95Q200.1 351.75 200.3 310.25Q200.45 280.65 200 251Q199.1 191.45 219.7 135.95Q224.65 122.7 235.6 112.9M193.45,112Q190.7 171 188.8 230.45Q186.9 289.75 184.4 349Q184 359.2 180.7 368.45Q175.1 360.2 177.6 346.75Q180.25 332.15 181 317Q183.05 277.65 184.2 238.25L153.5 237.55Q151.25 292.5 147.3 347.05Q146.6 356.85 142.95 364.95Q137.55 355.55 140 342.4Q145.45 313.35 146.65 283.5Q149.1 224.2 150.6 165Q151.2 140.3 154.15 116.25Q154.7 112.1 157.2 110Q156.15 168.3 153.85 228.45L153.85 228.8Q155.35 227.95 157.05 227.65L162.95 227Q173.75 228.65 184.45 228.1L185.1 197.75Q185.75 157.25 187.85 117.45Q188.15 110.95 191.2 106.75Q192.8 108.65 193.15 111.2L193.45 112M243.7,117.5Q210.7 145.75 207.7 190.85L205.95 213.5Q200.85 273.1 211.9 331.65Q214.9 347.6 229.95 354.55L236.2 357.45Q274.15 346.75 283.65 305.8Q288.8 283.75 290.25 261.15Q294.3 199.75 275.95 142.75Q268.25 118.8 243.7 117.5M75.6,106.1Q79 101.85 84 100.75Q101.8 99.05 113.3 112.15L114.2 113Q117.95 119.1 119.9 125.85Q122.9 136.3 117.95 145.25Q117.2 145.1 116.8 144.65Q114.4 142 115.95 138.45Q116.95 136.2 117.2 133.75L117.05 133.05Q116.5 131.95 116.3 130.75L115.95 128.5L111.75 123Q106.8 116.05 99 112.25Q89.45 109 80.05 112.9L79 113.5Q64.25 136.7 76.65 163.65Q92.75 198.8 112.5 232.7Q133.7 269.05 131.35 311.55Q130 336.15 116.1 355.65Q109.8 364.45 98.95 367.05Q67.45 374.6 46 348.05Q25.1 322.2 29.75 290.5Q35.05 296.5 36.35 309.05Q37.05 315.3 39.8 321.3Q54.35 352.6 88.1 355.05Q93.95 355.45 99.65 353.15Q124.95 342.9 126.15 314.55Q128.7 255.7 92.4 207.45Q60.2 164.65 71.85 113.85Q72.8 109.7 75.6 106.1" />
</g>
</svg>
