<?xml version="1.0" encoding="utf-8"?>
<svg version="1.1" id="Layer_1"
xmlns="http://www.w3.org/2000/svg"
xmlns:xlink="http://www.w3.org/1999/xlink"


xml:space="preserve">
q-6.15 36.4 -6.65 74.95q-0.7 59.2 0.65 118.45q0.75 2.8 3.25 1.5q2.1 -18.8 2.75 -38.2q0.65 -19.4 0.65 -38.3q12.45 0.8 24.65 -1.35q-0.6 17.4 5.65 29.05q3.85 -37.25 3.65 -75.75q-0.25 -59.7 -0.9 -118.45q-0.75 0.1 -0.75 0.35q-3.45 22.5 -4.05 45.65q-8.65 1.05 -17.35 3.05q-1.75 -1.65 -4.25 -2.15q-20.45 1.75 -22.2 29.65q-1.25 20.65 4.7 40.45q6 20.8 3.75 42.15q-2.05 19.35 -21.85 19.35q-6.15 6.4 0.75 13.9q3.75 4.1 9.3 5.2q4.5 0.85 8.45 -1.1q4.85 -2.45 7.3 -7.2q17.7 -34.4 3.3 -70.2q-14.25 -35.45 -13.4 -72.55q0.25 -10.8 5.35 -20.4q3.25 -2.7 2.15 -6.75q-0.65 -2.35 -2.45 -4.05q-5 -32.1 -23.95 -56.35q-12.3 -2.6 -23.25 3.85q-28.65 16.9 -33.5 52q-3.65 26.65 -4.3 54.1q-0.75 31.3 13.2 57.9q5.3 10.15 16.25 12.8q30.25 7.3 43.65 -20.15q24.5 -50.1 15.65 -106.65q-2.65 36 -2.75 72.4q-15.45 -2.8 -29.25 2.5q0.6 -45.95 -0.5 -91.2q-5.9 48.35 -5.9 99.7q0 30.25 -3 59.95q-1.7 16.85 3.15 29.3q0.65 -0.75 0.75 -1.55q4.2 -34.1 5 -68.95q0.2 16.85 0.9 33.8q0.6 15 -1.25 29.75q-2.1 16.5 3.65 29.95q0.9 -0.6 1 -1.3q4.15 -37.05 3.2 -74.95q-1.55 -60 -0.95 -118.45q-3.2 6.65 -3.85 15.65q12.75 -13.2 28.9 -2.05q2.1 -25.45 -24.25 -25.75q-43.5 31.95 -7.8 75.2q14.15 17.15 21.3 38.8q6.65 20.1 -1.1 39.5q-4.15 10.35 -12.3 17.95q-13.85 -8.5 -18.5 -24q-7.95 41.1 30.55 35.15q4.45 -0.55 7.75 -4.6q15.65 -19.4 15 -44.4q-0.7 -28.6 -13.65 -54.05q-7.6 -14.9 -19.25 -26.95q-15.55 -16.05 0.45 -32.55q-14.65 -47.35 -5.05 -96.55q7.8 -40.15 48.1 -44.15q5.9 3 9 9.6q26 55.3 9.35 114.65q-4.75 16.9 -19.35 26.3q-14.65 9.4 -30.8 2.55q-8.55 -3.65 -11.25 -12.4<g id="2200" transform="matrix(1, 0, 0, 1, -125.5, 0)">
<path style="fill:#000000;fill-opacity:1" d="M393.45,179.5L393.6 269.75Q402.3 267.75 410.95 266.7L418.6 267.1L419.65 226.75Q420.25 203.6 423.7 181.1Q423.7 180.85 424.45 180.75Q425.1 239.5 425.35 299.2Q425.55 337.7 421.7 374.95Q415.45 363.3 416.05 345.9L418.25 279Q406.05 281.15 393.6 280.35L393.6 297.95Q393.6 316.85 392.95 336.25Q392.3 355.65 390.2 374.45Q387.7 375.75 386.95 372.95Q385.6 313.7 386.3 254.5Q386.8 215.95 392.95 179.55L393.45 179.5M379.1,193.5Q380.2 197.55 376.95 200.25L364.2 200.5Q359.1 210.1 358.85 220.9Q358 258 372.25 293.45Q386.65 329.25 368.95 363.65Q366.5 368.4 361.65 370.85Q357.7 372.8 353.2 371.95Q347.65 370.85 343.9 366.75Q337 359.25 343.15 352.85L347.7 355.7Q367.5 355.7 369.55 336.35Q371.8 315 365.8 294.2L354.9 257.4Q348.95 237.6 350.2 216.95Q351.95 189.05 372.4 187.3Q374.9 187.8 376.65 189.45Q378.45 191.15 379.1 193.5M329.25,347Q315.85 374.45 285.6 367.15Q274.65 364.5 269.35 354.35Q255.4 327.75 256.15 296.45Q256.8 269 260.45 242.35Q265.3 207.25 293.95 190.35Q304.9 183.9 317.2 186.5L319.65 185L320.95 184Q339.9 208.25 344.9 240.35Q353.75 296.9 329.25 347M246.2,180.5Q245.6 238.95 247.15 298.95Q248.1 336.85 243.95 373.9Q243.85 374.6 242.95 375.2Q237.2 361.75 239.3 345.25Q241.15 330.5 240.55 315.5Q239.85 298.55 239.65 281.7L208.7 280.7L208.55 280.45L208.2 298.2Q207.4 333.05 203.2 367.15Q203.1 367.95 202.45 368.7Q197.6 356.25 199.3 339.4Q202.3 309.7 202.3 279.45Q202.3 228.1 208.2 179.75Q209.3 225 208.7 270.95Q222.5 265.65 237.95 268.45L239.6 268.55Q239.7 232.15 242.35 196.15Q243 187.15 246.2 180.5M159.4,231.35Q171.05 243.4 178.65 258.3Q191.6 283.75 192.3 312.35Q192.95 337.35 177.3 356.75Q174 360.8 169.55 361.35Q131.05 367.3 139 326.2Q143.65 341.7 157.5 350.2L167.5 350.7L169.1 349.2Q177.25 341.6 181.4 331.25Q189.15 311.85 182.5 291.75Q175.35 270.1 161.2 252.95Q125.5 209.7 169 177.75Q195.35 178.05 193.25 203.5L188.75 196.75Q172.6 185.6 159.85 198.8Q143.85 215.3 159.4 231.35M283.15,349.6Q299.3 356.45 313.95 347.05Q328.55 337.65 333.3 320.75Q349.95 261.4 323.95 206.1Q320.85 199.5 314.95 196.5Q274.65 200.5 266.85 240.65Q257.25 289.85 271.9 337.2Q274.6 345.95 283.15 349.6" />
</g>
</svg>
