<?xml version="1.0" encoding="utf-8"?>
<svg version="1.1" id="Layer_1"
xmlns="http://www.w3.org/2000/svg"
xmlns:xlink="http://www.w3.org/1999/xlink"


xml:space="preserve">
q-4.5 50.1 -10.55 100.05q-7.1 58.75 -13.05 117.6q-4.55 45.1 -12.4 89.65q-2.2 -13.6 -5 -27.2q-11.6 -56.3 -30.2 -109.7q-1.15 0 -1.5 1.05q-6.65 21.4 -9.1 43.9q-5.65 51.65 -16.8 102.35q-4.8 -51.5 -11.6 -102.55q-7.75 -58.85 -15.9 -117.05q-3.75 5.7 -2.8 14.25q6.65 59 14.45 117.9q7.7 58.45 14.85 117q7.1 58.15 9.2 116.9q0.55 13.95 8.3 20.15q1.4 -2.05 1.45 -4.5q0.15 -7.6 -0.1 -15.15q8.4 -39.5 14.9 -79.85q1.7 -11.3 2.35 -22.2q1.5 7.3 3.4 14.55q14.85 57 25.7 114.95q1.45 7.55 2.3 15.1q-2.4 12.3 3.1 19.4q2.1 10.6 8.15 18.1q0.65 -0.75 0.6 -1.45q-1.05 -19.05 -3.25 -38.05q4.3 -25.85 7.6 -52.1q7.35 -58.7 12.2 -117.7q4.85 -58.8 14.6 -116.9q5 -29.75 4 -58.5q-5.15 4.65 -5.9 12.85q-1.55 0.5 -1.75 2.55q-0.2 2.15 -0.25 4.35q-5 18.3 -6.85 38q-2.35 24.55 -5.05 49.1q-5 44.75 -11.35 89.25q-0.3 2.2 0.3 4.05q-8.9 58.45 -18.6 116.75q-2.45 14.6 -6.3 28.75q-3.75 13.7 4.1 20.7q2.3 -7.7 4 -15.7q-0.2 -5.55 0.8 -11.25q10.3 -58.2 18.25 -116.85q2.9 -21.35 5.4 -42.7q16.55 -4.4 33.9 -4.25q4.9 58.25 10.15 116.5q-1.7 -1.7 -2.75 -0.75q3.15 9.45 7.5 17.75q0.9 -0.6 1.2 -1.45q3.1 -8.15 2.15 -17.15q-6.25 -58.85 -11.6 -117.7q-2.95 -32.55 -6.25 -65.05q2.2 -5.05 -0.85 -8.05q-2.45 -22.1 -2.4 -44.35q0.1 -44.6 -9.9 -86.3q-0.5 0 -0.55 0.15q-17.6 -1.4 -31.7 5.95q6.4 -58.75 16.35 -116.65q1.75 -10.3 2.8 -20.45q3.8 48.9 8.3 97.55q-4.2 54.85 -5.85 110.25q-0.9 31.2 -0.95 62.45q-8.4 0.65 -12.1 4.1q-0.4 -33.1 0.25 -66.3q1.2 -59.95 -0.65 -118.5q-5.5 23.65 -5.65 51.25q-0.35 59.4 0.9 119.25q1.2 59.4 2.95 119.2q0.9 30.05 -2.05 59.9q-1.75 17.65 5.1 29.1q3.7 -10.1 3.5 -21.75q-1.1 -59.3 -3.15 -119.2q-0.75 -21 -1.05 -42.05q28.05 -6.05 58 -5.05q0.1 21.9 0.6 43.85q1.4 59.2 -0.45 118.45q-0.55 16.55 3.8 29.75q6.4 -11.6 5.9 -26.8q-1.9 -59.6 -3.25 -119.15q-0.6 -25.7 -0.6 -51.3q0.05 -32.2 1.1 -64.25q-3.3 1.4 -3.65 6q-9.8 2.8 -14.8 10.7q-15.55 24.65 -18.6 54.65q-1.65 16.2 4.65 30.9q13.3 30.8 34.05 57.75q34.5 44.95 49.7 99.4q11.65 41.85 -3.35 82.75q-5.4 14.8 -18.25 22.7q-6.75 4.1 -14.4 6.2q-28.25 7.55 -49.35 -11.6q-2.45 -2.2 -3.5 -4.85q-7.1 -17.5 -17.05 -33.9q-0.75 0.15 -1.5 0.6q-1.6 3.55 0 6.95q4.75 10.3 6.9 21.8q3.7 19.9 21.75 30.4q24.6 14.3 53.75 4.45q5.1 -1.75 8.7 -5.4q21.75 -22.25 26.8 -54.4q8.75 -56.4 -14.8 -108.95q-25.1 -55.9 -63.95 -104q-5.05 -6.25 -7.2 -14q-6.8 -24.15 -0.4 -49.4q2.25 -8.9 8.2 -15.8q22.75 -26.4 51.6 -5.1q5.35 4 6.6 10.35q2.6 13 9 19.65q1.45 -7.05 0.45 -14.3q-5.2 -38.9 -45.9 -40.2<g id="2205" transform="matrix(1, 0, 0, 1, -27.9, 0)">
<path style="fill:#000000;fill-opacity:1" d="M517.45,83.25Q518.45 112 513.45 141.75Q503.7 199.85 498.85 258.65Q494 317.65 486.65 376.35Q483.35 402.6 479.05 428.45Q481.25 447.45 482.3 466.5Q482.35 467.2 481.7 467.95Q475.65 460.45 473.55 449.85Q468.05 442.75 470.45 430.45L471.3 426.15Q470.45 418.6 469 411.05Q458.15 353.1 443.3 296.1Q441.4 288.85 439.9 281.55Q439.25 292.45 437.55 303.75L428.45 361.95Q421.95 402.3 413.55 441.8Q413.8 449.35 413.65 456.95Q413.6 459.4 412.2 461.45Q404.45 455.25 403.9 441.3Q401.8 382.55 394.7 324.4Q387.55 265.85 379.85 207.4Q372.05 148.5 365.4 89.5Q364.45 80.95 368.2 75.25Q376.35 133.45 384.1 192.3L399.7 309.4Q406.5 360.45 411.3 411.95Q422.45 361.25 428.1 309.6Q430.55 287.1 437.2 265.7L437.7 264.2L438.7 261.05Q439.05 260 440.2 260L440.35 266.5Q458.95 319.9 470.55 376.2Q473.35 389.8 475.55 403.4Q483.4 358.85 487.95 313.75Q493.9 254.9 501 196.15Q507.05 146.2 511.55 96.1Q512.3 87.9 517.45 83.25M325.9,75.15Q325.95 75 326.45 75L326.55 77.45Q336.55 119.15 336.45 163.75Q336.4 186 338.85 208.1L343.6 252.55Q346.65 255.55 344.45 260.6Q347.75 293.1 350.7 325.65Q356.05 384.5 362.3 443.35Q363.25 452.35 360.15 460.5Q359.85 461.35 358.95 461.95Q354.6 453.65 351.45 444.2Q352.5 443.25 354.2 444.95Q348.95 386.7 344.05 328.45L338.3 262.15Q320.95 262 304.4 266.4Q301.9 287.75 299 309.1Q291.05 367.75 280.75 425.95Q279.75 431.65 279.95 437.2Q278.25 445.2 275.95 452.9L275.45 453.45Q267.6 446.45 271.35 432.75Q275.2 418.6 277.65 404Q287.35 345.7 296.25 287.25L299.5 265.55Q298.9 263.7 299.2 261.5L299.45 260L300.35 259.4Q306.7 214.9 311.7 170.15Q314.4 145.6 316.75 121.05Q318.6 101.35 323.6 83.05Q323.65 80.85 323.85 78.7Q324.05 76.65 325.6 76.15L325.9 75.15M333.65,210.75Q329.15 162.1 325.35 113.2Q324.3 123.35 322.55 133.65Q312.6 191.55 306.2 250.3L305.55 256.3Q319.65 248.95 337.25 250.35L333.65 210.75M254.45,73.5L251.1 192Q250.05 224.05 250 256.25L250 259.95Q250 285.55 250.6 311.25Q251.95 370.8 253.85 430.4Q254.35 445.6 247.95 457.2Q243.6 444 244.15 427.45Q246 368.2 244.6 309Q244.1 287.05 244 265.15Q214.05 264.15 186 270.2Q186.3 291.25 187.05 312.25Q189.1 372.15 190.2 431.45Q190.4 443.1 186.7 453.2Q179.85 441.75 181.6 424.1Q184.55 394.25 183.65 364.2Q181.9 304.4 180.7 245Q179.45 185.15 179.8 125.75Q179.95 98.15 185.45 74.5Q187.3 133.05 186.1 193Q185.45 226.2 185.85 259.3Q189.55 255.85 197.95 255.2L244 252.2Q244.05 220.95 244.95 189.75Q246.6 134.35 250.8 79.5Q251.15 74.9 254.45 73.5M91,70.75Q131.7 72.05 136.9 110.95Q137.9 118.2 136.45 125.25Q130.05 118.6 127.45 105.6Q126.2 99.25 120.85 95.25Q92 73.95 69.25 100.35Q63.3 107.25 61.05 116.15Q54.65 141.4 61.45 165.55Q63.6 173.3 68.65 179.55Q107.5 227.65 132.6 283.55Q156.15 336.1 147.4 392.5Q142.35 424.65 120.6 446.9Q117 450.55 111.9 452.3Q82.75 462.15 58.15 447.85Q40.1 437.35 36.4 417.45Q34.25 405.95 29.5 395.65Q27.9 392.25 29.5 388.7L30.5 388.05Q31.25 387.6 32 387.45L33.5 387.45Q43.45 403.85 50.55 421.35Q51.6 424 54.05 426.2Q75.15 445.35 103.4 437.8Q111.05 435.7 117.8 431.6Q130.65 423.7 136.05 408.9Q151.05 368 139.4 326.15Q124.2 271.7 89.7 226.75Q68.95 199.8 55.65 169Q49.35 154.3 51 138.1Q54.05 108.1 69.6 83.45Q74.6 75.55 84.4 72.75L91 70.75" />
</g>
</svg>
