<?xml version="1.0" encoding="utf-8"?>
<svg version="1.1" id="Layer_1"
xmlns="http://www.w3.org/2000/svg"
xmlns:xlink="http://www.w3.org/1999/xlink"


xml:space="preserve">
q-40.15 1.15 -79.5 7.5q-2.05 5.25 0.3 10.35q0.2 0.5 0.7 0.9q-4.95 41.75 -4.85 85.3q0.1 29.9 -1.6 59.9q-0.9 16.5 3.8 29.85q0.9 -0.6 1 -1.35q3.9 -32.65 4.25 -65.9q0.55 -54.65 -0.5 -107.95q3.55 -5.2 0.95 -11.25q-0.8 -0.15 -1.05 0.4q-6.3 16.45 -0.45 31.6q4.45 -16 0.9 -31.35q7.4 -5.1 8.7 -14.65q2.45 -18.15 0.6 -36.35q-1.95 -19.2 -3.55 -38.45q-6.9 37.5 -5.75 78q-13.05 6.35 -26 0q2.9 25.5 27.5 8.45q-0.25 59.75 -1.85 119.2q-0.45 15.05 -2.55 29.8q-2.35 16.85 4.15 29.45q4.9 -36.1 5.2 -74.25q12.3 -1.7 24.8 -1.65q-0.9 24 -2.2 47.95q-0.6 11.15 -2.2 22.2q-2.4 16.5 2.75 30q0.9 -0.6 1 -1.35q5.3 -34.8 6.75 -70.35q3.6 -6.85 -0.2 -11.2q0.65 -39.6 -0.65 -78.4q-4.6 8.25 -4.75 19.5q-0.4 28.1 -1.3 56.2q-13.3 -0.7 -25.35 4.2q0.05 -41.65 -0.35 -82.65q-4.7 5.2 -4.75 14.25q38.5 -25.8 24.15 -71.5q-9.1 -29 -20.8 -56.7q-10.3 -24.45 5 -43.9q13.9 -1.6 25.25 6.5q-1.45 -18.95 -22.55 -19.5q-17.45 9.4 -17.45 31q0.05 38.45 19.25 72.35q18.2 32.15 -2.8 60q-3.2 4.25 -8.3 5.2q-14.2 2.75 -26.45 -1.85q-3.95 21.25 20.7 20.35q2.3 -0.1 3.95 -1.2q-18.9 11.4 -25.9 32.8q-6.8 20.7 0.1 41.2q7.5 22.2 31.3 19.75q21.5 -1.95 29.8 -23.35q7.85 -20.2 1.25 -40.6q-6.75 -20.85 -26.9 -28.4q-4.65 -1.85 -9.65 -1.4q31.25 10.15 25.1 43q-4.75 25.3 -31.5 25.4q-19.05 0.05 -22.05 -17.45q-5.8 -33.85 21.8 -51.85q3.5 -0.1 6.65 0.9<g id="2217" transform="matrix(1, 0, 0, 1, -130.3, 0)">
<path style="fill:#000000;fill-opacity:1" d="M414.2,180.25L414.65 181Q417.25 187.05 413.7 192.25L364.7 195.25Q365.75 248.55 365.2 303.2Q364.85 336.45 360.95 369.1Q360.85 369.85 359.95 370.45Q355.25 357.1 356.15 340.6Q357.85 310.6 357.75 280.7Q357.65 237.15 362.6 195.4L322.45 198Q321.95 197.6 321.75 197.1Q319.4 192 321.45 186.75Q360.8 180.4 400.95 179.25L413.45 179.8L414.2 180.25M410.55,239.35L409.95 240Q404.1 224.85 410.4 208.4Q410.65 207.85 411.45 208Q415 223.35 410.55 239.35M374.2,347.95L375.7 344.95Q388.65 351.3 401.7 344.95Q400.55 304.45 407.45 266.95Q409.05 286.2 411 305.4Q412.85 323.6 410.4 341.75Q409.1 351.3 401.7 356.4Q377.1 373.45 374.2 347.95M206.45,180.5Q206.85 221.5 206.8 263.15Q218.85 258.25 232.15 258.95Q233.05 230.85 233.45 202.75Q233.6 191.5 238.2 183.25Q239.5 222.05 238.85 261.65Q242.65 266 239.05 272.85L238.65 273.35L237.7 301.75Q236.25 337.3 230.95 372.1Q230.85 372.85 229.95 373.45Q224.8 359.95 227.2 343.45Q228.8 332.4 229.4 321.25Q230.7 297.3 231.6 273.3Q219.1 273.25 206.8 274.95L206.65 298.95Q206.35 337.1 201.45 373.2Q194.95 360.6 197.3 343.75Q199.4 329 199.85 313.95Q201.45 254.5 201.7 194.75Q201.75 185.7 206.45 180.5M154.95,366.8Q130.3 367.7 134.25 346.45Q146.5 351.05 160.7 348.3Q165.8 347.35 169 343.1Q190 315.25 171.8 283.1Q152.6 249.2 152.55 210.75Q152.55 189.15 170 179.75Q191.1 180.3 192.55 199.25L192.5 200Q181.15 191.9 167.25 193.5Q151.95 212.95 162.25 237.4Q173.95 265.1 183.05 294.1Q197.4 339.8 158.9 365.6Q157.25 366.7 154.95 366.8M288.6,269.1Q308.75 276.65 315.5 297.5Q322.1 317.9 314.25 338.1Q305.95 359.5 284.45 361.45Q260.65 363.9 253.15 341.7Q246.25 321.2 253.05 300.5Q260.05 279.1 278.95 267.7Q283.95 267.25 288.6 269.1M278.7,280.7Q251.1 298.7 256.9 332.55Q259.9 350.05 278.95 350Q305.7 349.9 310.45 324.6Q316.6 291.75 285.35 281.6Q282.2 280.6 278.7 280.7" />
</g>
</svg>
