<?xml version="1.0" encoding="utf-8"?>
<svg version="1.1" id="Layer_1"
xmlns="http://www.w3.org/2000/svg"
xmlns:xlink="http://www.w3.org/1999/xlink"


xml:space="preserve">
q-20.55 38.25 -38.9 79.75q-5.3 11.9 -11.35 23.3q1.65 -30.75 -1.2 -59.25q-4.5 2.15 -4.8 8.2q-1.6 37 -3.75 74.2q-3.35 59.3 -8.05 118.55q-0.6 7.45 -2.25 14.65q-4.55 20.25 2.35 36.85q2.85 -1.55 3.35 -5.05q4.55 -34.6 7.05 -69.6q6.7 -18.95 14.3 -37.55q0.65 16.2 5.15 32.65q15.75 57 30.15 112.75q7.1 -6.6 4.6 -17.6q-13.1 -57.45 -28.3 -114.8q-3.2 -12.1 -7.9 -21.9q12.7 -30 27.9 -59.1q9.25 -17.7 6.7 -35.3q-23.05 11.4 -31.55 36.05q-15.4 44.6 -18.55 91.45q-3.15 36.45 25.45 57.6q10.4 7.7 22.35 2.9q27.1 -10.8 26.45 -40.1q-3.25 3.05 -7.05 5.1q-2.25 2.5 -3.9 5.55q-2.9 5.3 -7.95 7.8q-27.3 13.65 -43.35 -12.2q-5.7 -31.6 -3.2 -64.55q2.25 -29.5 6.6 -58.7q5.85 -39.1 33.6 -65q5 -2.7 10.85 -1.75q1.6 1.1 2.65 0.3q1.3 -3.75 0.15 -7.5q-1.75 -5.7 -6.9 -9q-0.6 -0.4 -1.3 -0.45q-8.6 -43.4 -47.05 -60.7q-15.6 -2.7 -26.6 8.6q-25.6 26.2 -35.3 62.35q-15.55 58.05 -7.9 118.25q2.9 22.75 14.8 42.4q17.4 28.7 51.15 25.8q9.5 -0.85 16.8 -6.95q35.4 -29.65 41.85 -76.65q8.1 -59.15 -3.5 -117.6q-4.6 30.5 -21.25 56.3q-20.1 31.15 -55.25 18.6q-20.2 -7.2 -26 -27.4q-16.6 -58 -4.35 -117.05q3.15 -15.15 7.55 -29.85q8.75 -29.1 32.2 -47.55q1.95 1.2 3.4 2.95q7.15 8.55 19.1 10.05q4.8 4.7 8.25 10.35q5.15 8.55 8.25 17.95q17.55 52.9 9.1 108.9q-5.6 20.25 -4.75 42.9q0.75 20 0.25 40.05q-18.05 0.5 -35.6 6.45q-12.85 62.6 -9.65 131.35q1.35 29.3 1.05 58.7q-3.85 10.6 3.1 26.3q11.35 -42.6 7.6 -87.35q-2.05 -24.75 -1.85 -49.7q14 2.55 29.45 -1.4q2 57.65 -0.8 115.1q-0.15 2.7 0.4 5.45q0.5 2.7 1.6 5.15q11.4 -42.35 7.7 -88.15q-2.35 -29.6 -2.05 -59.35q0.1 -11.3 -0.8 -22.55q-10 7.1 -13.4 18.7q-11.25 37.85 9 73.3q15.25 26.65 29.6 53.7q21.15 39.8 5.3 79.9q-9.25 23.4 -33.2 20.4q-29.4 -3.6 -47.65 -24.55q0.6 -2.85 1.65 -5.4q-7.5 9.15 -0.2 24q6 12.25 18.6 19.35q19 10.75 40.05 9.7q9 -0.45 14.7 -7.3q39 -46.8 14.35 -103.55q-20.6 -47.55 -43.25 -94.3q-12.65 -26.2 9.15 -44.4q11.9 -9.95 22.3 -0.5q10.7 9.65 16.75 21.9q3 -5.3 1.75 -11.35q-5.6 -27.6 -32.25 -30.9q-5.25 1.6 -10.1 5.05<g id="2221" transform="matrix(1, 0, 0, 1, -26.5, 0)">
<path style="fill:#000000;fill-opacity:1" d="M500.75,141.05Q485.55 170.15 472.85 200.15Q477.55 209.95 480.75 222.05Q495.95 279.4 509.05 336.85Q511.55 347.85 504.45 354.45Q490.05 298.7 474.3 241.7Q469.8 225.25 469.15 209.05Q461.55 227.65 454.85 246.6L452.35 283.55Q449.85 318.55 445.3 353.15Q444.8 356.65 441.95 358.2Q435.05 341.6 439.6 321.35Q441.25 314.15 441.85 306.7Q446.55 247.45 449.9 188.15Q452.05 150.95 453.65 113.95Q453.95 107.9 458.45 105.75Q461.3 134.25 459.65 165L457.2 208.8Q463.25 197.4 468.55 185.5Q486.9 144 507.45 105.75Q510 123.35 500.75 141.05M419.4,105.05Q420.1 105.1 420.7 105.5Q425.85 108.8 427.6 114.5Q428.75 118.25 427.45 122Q426.4 122.8 424.8 121.7L418.7 117.75Q412.85 116.8 407.85 119.5L405.95 120.25Q378.2 146.15 372.35 185.25Q368 214.45 365.75 243.95Q363.25 276.9 368.95 308.5Q385 334.35 412.3 320.7Q417.35 318.2 420.25 312.9Q421.9 309.85 424.15 307.35Q427.95 305.3 431.2 302.25L431.25 302.25Q431.9 331.55 404.8 342.35Q392.85 347.15 382.45 339.45Q353.85 318.3 357 281.85L360.85 231.75Q364 184.9 379.4 140.3Q387.9 115.65 410.95 104.25L419.4 105.05M346.5,267.8Q340.05 314.8 304.65 344.45Q297.35 350.55 287.85 351.4Q254.1 354.3 236.7 325.6Q224.8 305.95 221.9 283.2Q214.25 223 229.8 164.95Q239.5 128.8 265.1 102.6Q276.1 91.3 291.7 94L291.95 93.5L292.6 92.05L293.7 90.5L294.45 90L295 89.8L295.95 89.5Q334.4 106.8 343 150.2Q354.6 208.65 346.5 267.8M330.45,146.55Q327.35 137.15 322.2 128.6Q318.75 122.95 313.95 118.25Q302 116.75 294.85 108.2Q293.4 106.45 291.45 105.25L290.45 104.9L287.95 104.75L274 107.9L272.45 108.5Q249 126.95 240.25 156.05Q235.85 170.75 232.7 185.9Q220.45 244.95 237.05 302.95Q242.85 323.15 263.05 330.35Q298.2 342.9 318.3 311.75Q334.95 285.95 339.55 255.45Q348 199.45 330.45 146.55M203.25,97.95L204.1 105.2L205.4 119.85Q206.3 131.1 206.2 142.4L205.6 209.7Q205.3 239.45 207.65 269.05Q211.35 314.85 199.95 357.2L197.55 352.45Q196.45 350 195.95 347.3Q195.4 344.55 195.55 341.85Q198.35 284.4 196.35 226.75L192.75 226.75L189.15 227.25Q173.7 231.2 159.7 228.65Q159.5 253.6 161.55 278.35Q165.3 323.1 153.95 365.7Q147 350 150.85 339.4L150.95 339.5L151.85 280.05Q152.15 250.65 150.8 221.35Q147.6 152.6 160.45 90L162.45 91.5L159.85 218.2Q177.4 212.25 195.45 211.75L196.65 212.9L197.7 173.7Q198.2 153.65 197.45 133.65Q196.6 111 202.2 90.75L203.25 97.95M95.95,89.25Q122.6 92.55 128.2 120.15Q129.45 126.2 126.45 131.5Q120.4 119.25 109.7 109.6Q99.3 100.15 87.4 110.1Q65.6 128.3 78.25 154.5Q100.9 201.25 121.5 248.8Q146.15 305.55 107.15 352.35Q101.45 359.2 92.45 359.65Q71.4 360.7 52.4 349.95Q39.8 342.85 33.8 330.6Q26.5 315.75 34 306.6L37.15 310.35Q36.1 312.9 35.5 315.75Q53.75 336.7 83.15 340.3Q107.1 343.3 116.35 319.9Q132.2 279.8 111.05 240Q96.7 212.95 81.45 186.3Q61.2 150.85 72.45 113Q75.85 101.4 85.85 94.3Q90.7 90.85 95.95 89.25" />
</g>
</svg>
