<?xml version="1.0" encoding="utf-8"?>
<svg version="1.1" id="Layer_1"
xmlns="http://www.w3.org/2000/svg"
xmlns:xlink="http://www.w3.org/1999/xlink"


xml:space="preserve">
q-2 18.75 -12.15 35.4q-9.5 15.55 -23.1 20.1q3.8 -53.9 0 -106.95q20.15 15.2 32.3 39.9q7.45 15.15 5.65 31.75q-11.9 -34.85 -41.35 -51.4q-5.85 -3.2 -12.35 -5.7q-1.1 0.35 -0.9 1.6q8.05 4 15.15 9.1q-0.8 10.45 -1.15 21.85q-3.35 3.25 -1.4 8q3.4 8.25 12.85 5.25q-1.9 58.55 -5.65 116.85q-2.75 43.75 -5.1 87.2q-21.45 3.4 -42.45 2.9q-0.65 1.85 -0.95 3.8q-0.5 4 1.2 7.45q20.25 4.9 41.3 2.05q0.75 2.75 3.25 1.5q1.75 -8.7 2.95 -17.55q21.85 -4.45 32.55 -23.4q29.8 -52.9 27.9 -113.25q-1.65 -54.5 -38.15 -90.75q20.4 -13.2 30.3 -37.75q9.95 -24.65 1.2 -50.45q-13.35 -5.5 -27.75 -5.35q-1 1.25 -1.35 2.75q-0.55 2.2 -0.15 4.45q-6.2 104.9 -21.25 209.1q-3.05 20.95 -1.5 41.8q0.4 5.15 2.8 9.75q15.25 -67.35 17.95 -137.1q2.4 -61.95 6.2 -123.75q22.6 85.95 46.3 171.75q12.75 46.05 27.15 91.45q1 3.1 2.5 6.1q-1.15 -47 -16.3 -94.85q21.55 -3.25 36.05 -19.45q14.2 -16.25 20 -37.05q5.9 -21 2.9 -42.6q-2.8 -20.2 -12.6 -38.05q-10 -18.15 -28.95 -25.95q25.65 29.2 21.95 70q-1.3 14.9 -9.15 27.4q-20.2 32.1 -58.8 36.6q2.4 -39.35 -0.7 -77.8q17.4 3.1 33.95 10.25q4.95 2.1 8.35 6q-6.05 57.2 -4.6 115.65q0.75 29.9 3.85 59.45q2.15 20.2 18.65 29q13.35 -6.15 20.35 -19.45q29.35 -55.9 31.85 -118.5q1.25 -31.4 -7.2 -58.5q-3.2 15.65 -0.85 33.15q2.25 16.65 1.15 33.5q-2.45 37.6 -14.25 74.1q-9.2 28.5 -32.55 42.95q-6.2 -12 -7.95 -25.45q-7.85 -58.95 -2.45 -118.55q2.75 -30.4 3.9 -59.25q-4.75 5.65 -5.65 14.1q28 26.7 35.25 65.95q11.1 59.95 -15.2 115.8q-9.85 20.95 -33 25.4q4.75 -58.85 5.9 -118.25q0.8 -43.45 3.2 -86.6q0.05 41.5 -1.45 82.8q-3.15 1.5 -6 3.45q0.25 0.75 0.55 0.75q-1.55 29.95 -3.5 59.9q-1.5 23.75 1.05 44.8q4.65 -22.4 4.55 -46.95q-0.1 -44.5 1.75 -88.55q23.75 1.7 47.7 -0.8q-1.6 44.1 -5.1 87.95q-1.9 23.6 3.05 44.1q4.45 -22 5.15 -46.2q1.85 -4.45 0.4 -9q-0.35 -0.4 -0.75 -0.45q1.7 -59.85 -0.2 -118.5q-1.45 -0.1 -1.5 1.5q-2.55 59.1 -3.8 118.5q-9.65 2.45 -20.2 2.15q-15.75 -0.45 -27.65 4.55q0.55 -12.35 1.25 -24.7q3.45 -59.75 0.4 -119.2q-2.8 29.95 -2.75 62.25q-14.85 -8.5 -32.6 -6.75q-4.95 1.3 -10.1 3.25q-23.4 8.85 -33.6 30.25q-18.7 39.45 5.15 76.05q3.4 5.25 7.3 9.9q45.5 54.85 80.45 117.2q10.15 18.1 18.95 36.6q22.45 47.3 23.95 99.95q1.55 54.6 -43.5 85.75q-20.75 14.3 -46 9.6q-49.45 -9.2 -66.4 -54.8q-6.55 -17.65 -1.75 -35.65q3.45 -12.85 -3.7 -18.4q-9.8 33.05 2.3 65.7q13.35 36.1 49.5 51.2q49.85 20.8 85.8 -17.3q16.05 -17.05 20.9 -39.4q12.3 -57.15 -1.75 -114.3q-3.5 -14.1 -9.55 -27.2q-18 -38.9 -39.9 -76.45q-14.55 -25 -33.95 -47q-26.7 -30.25 -44.1 -66.2q-18.9 -39 14.85 -65.15q21.95 -17 48.2 -8.1q19.7 6.65 26.2 25.75q3.25 -10.15 -3 -19.55q-5.15 -7.8 -11.75 -14.2<g id="2224" transform="matrix(1, 0, 0, 1, -14.95, 0)">
<path style="fill:#000000;fill-opacity:1" d="M513.4,110.05Q501.25 85.35 481.1 70.15Q484.9 123.2 481.1 177.1L480 194.05L483.8 197.3Q497.4 192.75 506.9 177.2Q517.05 160.55 519.05 141.8Q520.85 125.2 513.4 110.05M520.75,165.75Q510.85 190.3 490.45 203.5Q526.95 239.75 528.6 294.25Q530.5 354.6 500.7 407.5Q490 426.45 468.15 430.9Q466.95 439.75 465.2 448.45Q462.7 449.7 461.95 446.95L462.75 431.75Q441.7 434.6 421.45 429.7Q419.75 426.25 420.25 422.25Q420.55 420.3 421.2 418.45Q442.2 418.95 463.65 415.55Q466 372.1 468.75 328.35Q472.5 270.05 474.4 211.5Q464.95 214.5 461.55 206.25Q459.6 201.5 462.95 198.25L474.8 199.05L478.2 90.7Q478.55 79.3 479.35 68.85Q472.25 63.75 464.2 59.75Q464 58.5 465.1 58.15L467.45 57.75Q473.95 60.25 479.8 63.45L480.2 59L480.6 63.9Q510.05 80.45 521.95 115.3Q530.7 141.1 520.75 165.75M364.05,78.55Q373.85 96.4 376.65 116.6Q379.65 138.2 373.75 159.2Q367.95 180 353.75 196.25Q339.25 212.45 317.7 215.7L373.4 390.85Q388.55 438.7 389.7 485.7Q388.2 482.7 387.2 479.6Q372.8 434.2 360.05 388.15Q336.35 302.35 313.75 216.4L303.85 217.6Q300.05 279.4 297.65 341.35Q294.95 411.1 279.7 478.45Q277.3 473.85 276.9 468.7Q275.35 447.85 278.4 426.9Q293.45 322.7 299.65 217.8L293.7 217.75L292.95 214.7Q292.55 212.45 293.1 210.25Q293.45 208.75 294.45 207.5L300.25 207.2L304.5 55.9L301.7 55.5L302.4 48.25L305.45 47.4L307.2 45.75L307.35 47.25Q321.75 47.1 335.1 52.6Q354.05 60.4 364.05 78.55M342.15,66.8Q325.6 59.65 308.2 56.55Q311.3 95 308.9 134.35L304.5 206.8Q343.1 202.3 363.3 170.2Q371.15 157.7 372.45 142.8Q376.15 102 350.5 72.8Q347.1 68.9 342.15 66.8M391.2,147.75Q390.05 176.6 387.3 207Q381.9 266.6 389.75 325.55Q391.5 339 397.7 351L401.95 353.2Q425.3 338.75 434.5 310.25Q446.3 273.75 448.75 236.15Q449.85 219.3 447.6 202.65Q445.25 185.15 448.45 169.5Q456.9 196.6 455.65 228Q453.15 290.6 423.8 346.5Q416.8 359.8 403.45 365.95Q386.95 357.15 384.8 336.95Q381.7 307.4 380.95 277.5Q379.5 219.05 385.55 161.85Q386.45 153.4 391.2 147.75M479.05,209.65Q476.65 252.8 475.85 296.25Q474.7 355.65 469.95 414.5L471.6 414.15Q494.75 409.7 504.6 388.75Q530.9 332.9 519.8 272.95Q512.55 233.7 484.55 207L479.05 209.65M213.2,102Q216.25 161.45 212.8 221.2Q212.1 233.55 211.55 245.9Q223.45 240.9 239.2 241.35Q249.75 241.65 259.4 239.2L259.9 220Q261.15 160.6 263.7 101.5Q263.75 99.9 265.2 100Q267.1 158.65 265.4 218.5L264.85 238.9L271.2 239.3Q271.6 239.35 271.95 239.75L272.35 240.5Q273.8 245.05 271.95 249.5L264.5 250.55L262.1 337Q261.4 361.2 256.95 383.2Q252 362.7 253.9 339.1Q257.4 295.25 259 251.15Q235.05 253.65 211.3 251.95Q209.45 296 209.55 340.5Q209.65 365.05 205 387.45Q202.45 366.4 203.95 342.65Q205.9 312.7 207.45 282.75L208.85 251.75L203.55 251.25Q203.25 251.25 203 250.5Q205.85 248.55 209 247.05Q210.5 205.75 210.45 164.25Q210.4 131.95 213.2 102M128.5,40.75Q135.1 47.15 140.25 54.95Q146.5 64.35 143.25 74.5Q136.75 55.4 117.05 48.75Q90.8 39.85 68.85 56.85Q35.1 83 54 122Q71.4 157.95 98.1 188.2Q117.5 210.2 132.05 235.2Q153.95 272.75 171.95 311.65Q178 324.75 181.5 338.85Q195.55 396 183.25 453.15Q178.4 475.5 162.35 492.55Q126.4 530.65 76.55 509.85Q40.4 494.75 27.05 458.65Q14.95 426 24.75 392.95Q31.9 398.5 28.45 411.35Q23.65 429.35 30.2 447Q47.15 492.6 96.6 501.8Q121.85 506.5 142.6 492.2Q187.65 461.05 186.1 406.45Q184.6 353.8 162.15 306.5Q153.35 288 143.2 269.9Q108.25 207.55 62.75 152.7Q58.85 148.05 55.45 142.8Q31.6 106.2 50.3 66.75Q60.5 45.35 83.9 36.5Q89.05 34.55 94 33.25Q111.75 31.5 126.6 40L128.5 40.75" />
</g>
</svg>
