<?xml version="1.0" encoding="utf-8"?>
<svg version="1.1" id="Layer_1"
xmlns="http://www.w3.org/2000/svg"
xmlns:xlink="http://www.w3.org/1999/xlink"


xml:space="preserve">
q-0.55 -1.4 -1.55 -2.4q-0.3 1.8 -0.3 3.75q0 1.15 0.35 2.25q-3.5 42.9 -4.75 87.7q-0.85 29.65 -3.6 59.15q-1.6 16.95 3.55 29.35q5.7 -31.6 6.5 -65.25q18.15 0.65 35.65 -8.3q28.85 -14.65 21.6 -45.75q-8.85 -37.95 -48.8 -42.15q-0.25 0 -0.5 0.15q25.15 8.45 31.55 32.55q1.85 6.8 -2.25 12q-18.7 23.8 -50.25 23.15q0.5 -34.6 0.5 -69.25q10.4 -1.8 20.45 1.55q-20.1 10.9 -17.05 36.2q2.65 22.05 15.85 39.7q12.45 16.65 19.55 36.3q7.85 21.75 -3.2 40.4q-8.65 14.55 -24.3 8.75q-22.4 -8.45 -21.25 -31.85q0.5 -10.5 0.3 -18.95q-4.05 20.7 1.2 41.55q3.4 13.55 14.75 21q13.55 9 27.95 1.6q15.95 -8.15 18.35 -27.2q5.35 -42.2 -19.3 -77.85q-13.05 -18.8 -13.25 -40.3q-0.2 -23.85 19.15 -14.35q7.6 3.8 13.35 9.85q0.8 -14.6 -11.45 -22.4q-6.15 -3.95 -13.3 -4q-6.05 50.2 -6.05 101.7q0 30.25 -3.95 59.75q-2.3 17.3 3.15 29.25q3.85 -5.9 5.9 -12.55q3 -9.6 -1.4 -10.95q0.2 -23.1 1 -49q-2 45.1 -0.75 90.45q0.6 2.65 3 2q2.95 -5.45 2.85 -12q-0.85 -59.6 3.35 -118.45q2.15 -30.45 1.3 -59.25q-3 2.7 -3.45 7.7q-2.85 31 -4.85 62.2q-0.55 8.2 -0.95 16.45q-11.1 -1.8 -19 4.2q1.05 -45.7 1.25 -90.45q-0.6 -0.2 -0.65 0.25q-5 38.45 -6.65 77.9q-0.9 21.35 19.3 23.9q27.65 3.45 31.95 -23.8q3.75 -23.95 5.45 -48.4q1.1 -16.25 -7 -24.1q-1.3 24.9 -1.15 50.95q0.05 8.85 -3.4 16.6q-10 22.65 -35.45 12.65q-4.5 -20.95 -2.1 -43.6q2.4 -22.25 0.85 -43.35q-1.6 -0.35 -1.8 1.25<g id="2225" transform="matrix(1, 0, 0, 1, -139.45, 0)">
<path style="fill:#000000;fill-opacity:1" d="M356.75,183L357.45 182.5Q357.7 182.35 357.95 182.35L363.95 182Q403.9 186.2 412.75 224.15Q420 255.25 391.15 269.9Q373.65 278.85 355.5 278.2L354.95 303.7Q354.15 337.35 348.45 368.95Q343.3 356.55 344.9 339.6Q347.65 310.1 348.5 280.45Q349.75 235.65 353.25 192.75Q352.9 191.65 352.9 190.5Q352.9 188.55 353.2 186.75L353.6 186.1L353.85 185.85L354.2 181.5Q355.2 182.5 355.75 183.9L356.75 183M356.25,194.7Q356.25 229.35 355.75 263.95Q387.3 264.6 406 240.8Q410.1 235.6 408.25 228.8Q401.85 204.7 376.7 196.25Q366.65 192.9 356.25 194.7M194.25,187.6Q206.5 195.4 205.7 210Q199.95 203.95 192.35 200.15Q173 190.65 173.2 214.5Q173.4 236 186.45 254.8Q211.1 290.45 205.75 332.65Q203.35 351.7 187.4 359.85Q173 367.25 159.45 358.25Q148.1 350.8 144.7 337.25Q139.45 316.4 143.5 295.7L149.25 296.55L150.85 294.15Q151.05 302.6 150.55 313.1Q149.4 336.5 171.8 344.95Q187.45 350.75 196.1 336.2Q207.15 317.55 199.3 295.8Q192.2 276.15 179.75 259.5Q166.55 241.85 163.9 219.8Q160.85 194.5 180.95 183.6Q188.1 183.65 194.25 187.6M224.2,181Q224 225.75 222.95 271.45Q230.85 265.45 241.95 267.25L243.95 267.35Q244.35 259.1 244.9 250.9Q246.9 219.7 249.75 188.7Q250.2 183.7 253.2 181Q254.05 209.8 251.9 240.25Q247.7 299.1 248.55 358.7Q248.65 365.25 245.7 370.7Q243.3 371.35 242.7 368.7Q241.45 323.35 243.45 278.25L222.75 278.45L222.2 299.45Q221.4 325.35 221.2 348.45Q225.6 349.8 222.6 359.4Q220.55 366.05 216.7 371.95Q211.25 360 213.55 342.7Q217.5 313.2 217.5 282.95Q217.5 231.45 223.55 181.25Q223.6 180.8 224.2 181M276.45,262.5Q278 283.6 275.6 305.85Q273.2 328.5 277.7 349.45Q303.15 359.45 313.15 336.8Q316.6 329.05 316.55 320.2Q316.4 294.15 317.7 269.25Q325.8 277.1 324.7 293.35Q323 317.8 319.25 341.75Q314.95 369 287.3 365.55Q267.1 363 268 341.65Q269.65 302.2 274.65 263.75Q274.85 262.15 276.45 262.5" />
</g>
</svg>
