<?xml version="1.0" encoding="utf-8"?>
<svg version="1.1" id="Layer_1"
xmlns="http://www.w3.org/2000/svg"
xmlns:xlink="http://www.w3.org/1999/xlink"


xml:space="preserve">
q-16.45 54.45 -28.3 110.6q-12.15 57.9 -23.05 115.85q-7.1 37.7 -19.7 72.8q-0.2 0.45 -1.7 0.45q-8.85 -55.1 -17.05 -110.8q-6.45 -43.45 -14.45 -86.65q-6.5 -35.15 -15.05 -69.9q-3.45 -13.95 -3.6 -28.1q0 -2.85 2.15 -4.5q17.4 52.9 26 109.95q2.2 14.8 5 29.5q10.95 57.45 19.2 115.45q0.85 5.95 1.05 12.05q10.75 -55 23.1 -110.15q12.85 -57.75 24.9 -115.65q5.65 -27.25 17.75 -49.9q4.2 4.75 6.9 10.25q-18.35 49.5 -20.6 103.5q-1.4 33.75 18.35 58.55q13.8 -0.05 24.3 -9.85q16.75 -15.6 6.45 -30.6q-1.3 6.9 -8.05 13.75q-0.3 0.3 -0.8 0.45q-1.65 0.1 -2.55 -0.55q-6.8 7.1 -16.45 8.8q-2.15 -3.2 -4.9 -5.9q-0.7 -3.8 -1.15 -7.6q-2.5 -20.35 -2.45 -40.6q16 1.55 30.6 -5.8q5 -10 -2.7 -15.95q-13.2 6.7 -28 8.15q1.2 -24.45 6.1 -48.8q4.4 -21.85 25.65 -17.6q1.95 3 2.95 6.6q0.45 1.7 2.3 2.15q2.85 -2.4 2.6 -6.55q-0.6 -11.6 -10.1 -17.95q-1.1 0.6 -2.8 1.25q-6.3 2.3 -8.45 8.15q-13.95 4.75 -21.4 17.65q-30.45 52.5 -18.65 113.5q7.8 40.15 51.05 39.1q12.05 -0.3 18.5 -9.8q34.85 -51.45 18.15 -112.1q-8.85 -30.9 -40.25 -35q14.1 8.75 22.2 30.9q7.5 20.4 5.7 42.1q-1.8 21.3 -10.85 40.7q-9.7 20.8 -32.8 18.2q-21.95 -2.05 -33.4 -21.45q-10.25 -17.35 -8.6 -37.6q1.7 -20.7 7.5 -40.55q5.95 -20.45 21.5 -35.1q6.25 -5.8 9.2 -3.35q5.9 0 11.2 3.05q0.15 21.9 -0.65 43.45q-0.8 20.25 -3.25 41.3q-1.75 14.75 -2.55 29.65q-0.6 2.95 0.75 8.1q1.6 6.2 4.85 11.95q4.15 -19.5 5.2 -39.55q3.85 -20.45 4.65 -42.15q1.4 -36.6 2.95 -73q2.2 -51.8 -1.4 -103.5q-3.25 15.4 -4 31.55q-0.85 17.35 -1 34.7q-0.25 35.55 -2.15 71.05q-6.1 18.75 -6.05 38.5q9.35 10.95 9.7 25.75q5.95 -4.45 5.8 -13q-0.6 -33.4 -34.3 -37q-9.45 1.55 -15.95 8.5q-27.85 29.75 -12.4 70q5.75 14.95 16.15 26.6q39.65 44.5 50.75 102.4q4.4 23.2 -6.45 43.55q-17.15 32.05 -52.5 43.4q-25.4 8.15 -40.1 -10.3q-8.9 -11.15 -7.9 -20.8q-1.3 -2.55 -2.05 -5.45q-3.75 -3.4 -5.15 -8.45q-0.65 -2.3 -2.85 -2.25q-2.75 1.8 -2.75 5.25q0.05 17.8 6.8 35.1q13.3 34.05 49.95 25.4q38.45 -9.1 58.8 -41.95q16 -25.9 13.05 -56.45q-5.5 -56.5 -42.3 -99.5q-19.55 -22.8 -29.05 -50.65q-11.8 -34.7 21.95 -46.75q14.9 -5.3 24.8 6.35<g id="2227" transform="matrix(1, 0, 0, 1, -46.75, 0)">
<path style="fill:#000000;fill-opacity:1" d="M501.75,135.45L500.3 133.1L499.2 131.75Q482.75 186.2 470.9 242.35Q458.75 300.25 447.85 358.2Q440.75 395.9 428.15 431Q427.95 431.45 426.45 431.45Q417.6 376.35 409.4 320.65Q402.95 277.2 394.95 234Q388.45 198.85 379.9 164.1Q376.45 150.15 376.3 136Q376.3 133.15 378.45 131.5Q395.85 184.4 404.45 241.45Q406.65 256.25 409.45 270.95Q420.4 328.4 428.65 386.4Q429.5 392.35 429.7 398.45Q440.45 343.45 452.8 288.3Q465.65 230.55 477.7 172.65Q483.35 145.4 495.45 122.75Q499.65 127.5 502.35 133L501.75 135.45M504.15,189.25Q505.85 188.6 506.95 188L514.45 188.25Q523.95 194.6 524.55 206.2Q524.8 210.35 521.95 212.75Q520.1 212.3 519.65 210.6Q518.65 207 516.7 204Q495.45 199.75 491.05 221.6Q486.15 245.95 484.95 270.4Q499.75 268.95 512.95 262.25Q520.65 268.2 515.65 278.2L515.2 279Q500.6 286.35 484.6 284.8Q484.55 305.05 487.05 325.4Q487.5 329.2 488.2 333L491.05 335.85Q493.8 338.55 495.95 341.75Q505.6 340.05 512.4 332.95Q513.3 333.6 514.95 333.5Q515.45 333.35 515.75 333.05Q522.5 326.2 523.8 319.3L524.2 319Q534.5 334 517.75 349.6Q507.25 359.4 493.45 359.45Q473.7 334.65 475.1 300.9Q477.35 246.9 495.7 197.4Q497.85 191.55 504.15 189.25M332.75,184.3L334.5 183.1L334.9 182.9L334.95 182.75Q366.35 186.85 375.2 217.75L379.6 233.35Q396.3 294 361.45 345.45Q355 354.95 342.95 355.25Q299.7 356.3 291.9 316.15Q280.1 255.15 310.55 202.65Q318 189.75 331.95 185L332.75 184.3M344.7,203.55Q339.4 200.5 333.5 200.5L331.65 198.45L329.9 200.5Q326.95 198.05 320.7 203.85Q305.15 218.5 299.2 238.95Q293.4 258.8 291.7 279.5Q290.05 299.75 300.3 317.1Q311.75 336.5 333.7 338.55Q356.8 341.15 366.5 320.35Q375.55 300.95 377.35 279.65Q379.15 257.95 371.65 237.55Q363.55 215.4 349.45 206.65L344.7 203.55M198.15,158.5Q198.1 138.75 204.2 120L202.7 263.95L255.95 265.1Q257.85 229.6 258.1 194.05Q258.25 176.7 259.1 159.35Q259.85 143.2 263.1 127.8L263.25 127.75Q266.85 179.45 264.65 231.25L261.55 305.55Q260 341.95 258.6 378.55Q257.8 400.25 253.95 420.7L249.85 413L255.15 279.5L202.2 277.15L201.45 297.35L199.05 357.75L197.95 380.7Q196.9 400.75 192.75 420.25L192.3 420.25Q189.05 414.5 187.45 408.3Q186.1 403.15 186.7 400.2L188.4 402.3L190.4 372.4L192.15 342.55Q192.95 327.65 194.7 312.9Q197.15 291.85 197.95 271.6Q198.75 250.05 198.6 228.15L198.3 190.05L198.15 158.5M125.95,128.9Q92.2 140.95 104 175.65Q113.5 203.5 133.05 226.3Q169.85 269.3 175.35 325.8Q178.3 356.35 162.3 382.25Q141.95 415.1 103.5 424.2Q66.85 432.85 53.55 398.8Q46.8 381.5 46.75 363.7Q46.75 360.25 49.5 358.45Q51.7 358.4 52.35 360.7Q53.75 365.75 57.5 369.15Q58.25 372.05 59.55 374.6L59.3 375.15L59 375.45Q58 385.1 66.9 396.25Q81.6 414.7 107 406.55Q142.35 395.2 159.5 363.15Q170.35 342.8 165.95 319.6Q154.85 261.7 115.2 217.2Q104.8 205.55 99.05 190.6Q83.6 150.35 111.45 120.6Q117.95 113.65 127.4 112.1L131.95 111Q165.65 114.6 166.25 148Q166.4 156.55 160.45 161Q160.1 146.2 150.75 135.25Q140.85 123.6 125.95 128.9" />
</g>
</svg>
