<?xml version="1.0" encoding="utf-8"?>
<svg version="1.1" id="Layer_1"
xmlns="http://www.w3.org/2000/svg"
xmlns:xlink="http://www.w3.org/1999/xlink"


xml:space="preserve">
q-21.05 0 -27.25 20.25q-3.1 10.15 -2 20.6q0 14.85 11.4 42.7q8.2 18.9 13.4 32.05q16.45 41.7 25.1 81.15q11.4 52.05 11.4 108.05q0 61.25 -6 96.75q-8.35 49.35 -25.6 71.7q-16.25 21.05 -42.9 21.05q-20.3 0 -32.5 -24.2q-4.4 -8.65 -6.95 -18.95q-2.05 -8.35 -2.05 -13.35q0 -6.35 2.15 -11.45q4.45 -10.4 5.85 -14.8q2.25 0.5 2.8 4.1q0.2 1.15 0.2 4.9q0 5.95 -2.6 11.05q-2.65 5.15 -2.65 7.7q0 9.5 7.7 20.7q7.95 11.55 20.8 19.8q48.6 1.35 63.5 -75.4q4.9 -25.45 5.9 -59.15q0 -52.65 -11.4 -102.25q-8.4 -36.6 -25.1 -78.5q-18.25 -42.95 -25.1 -61.1q-11.4 -30.35 -11.4 -50.15q0 -30.15 10.65 -44.35q9.15 -12.25 23.35 -9.75q13.3 2.25 23.4 15.5q10.6 13.95 10.6 31.6q0 4.4 -2.5 7.25q-2.75 -3.05 -5.5 -10.7q-7 -16.55 -20.85 -16.55q-6.95 -4.15 -9.55 -4.15q-30.85 0 -48.45 41.8q-5 11.85 -8.3 25.7q34 -0.25 34.75 -0.75q0.35 1.05 0.35 2.8q0 3.15 -1.75 4.9q-1.35 6.95 -1.35 9.95q0 3.4 1.55 10.15q2.3 9.65 6.45 17.65q12.65 24.2 37.75 24.2q22.75 0 30.95 -9.5q4.2 -4.8 3.8 -10.15q0 -1.85 0.25 -2.8q0.25 -0.9 1 -2.05q2.4 1.45 3.05 4.85q0.2 1.2 0.2 5.25q0 1.55 -1 4.75q-1.4 4.6 -3.95 8.4q-7.8 11.5 -22.8 11.5q-37.65 0 -52.75 -29q-8 -15.35 -8 -33q0 -5.75 0.4 -11.25q-1.4 -2.05 -1.4 -5q-0.25 -2.35 0.4 -3.95q0.65 -1.65 2.25 -1.75q2.95 -19.1 11.25 -35.05q10.85 -20.85 28.35 -32.35q15.55 -10.2 28.35 -8.6q12.9 1.6 12.9 14.05q0 3.15 -1.75 4.9q0.8 1.55 0.8 2.45q0 1.45 -10.4 32.1q-11.3 33.3 -13.85 44.05q-6.35 26.25 -9.75 37.35q-6.7 21.75 -15.75 38.15q-25.75 -138.45 -25.75 -151.25q0 -3.45 0.25 -4.5q0.55 -2.7 2.75 -3.75q2.9 21.2 12.6 73q8.75 46.8 11.65 73q7.65 -20.7 22 -71.5q13 -46.15 23.5 -71.75q1.05 0.95 1.95 2.65q2.85 9.85 3.5 24q0 21.35 -1.6 69.1q-1.4 42.15 -2.4 60.15q-0.3 11.25 -3.15 26.3q-3.05 16.3 -7.8 30.25q-12.1 35.2 -27.3 35.2q-13.55 -8.9 -15.6 -22.85q-0.65 -4.5 -0.35 -11.75q-0.65 -9.45 -0.85 -27.2q0 -17.5 1 -26.5q0.05 -3.55 2.1 -5.35q1.8 1.45 2.65 4.5q0.6 2.05 0.6 4q0 4.5 -1 7.5q-1 7.5 -1 22q0.1 14.75 1.2 27q3.45 39 15.55 39q20.3 0 30.05 -38.7q3.05 -12.15 5 -28.3q1.15 -18.35 2.5 -59.15q1.5 -44.4 1.5 -66.35q0 -4.6 2.75 -6.25q-1.95 20.55 -7.85 46.15q-4 17.6 -11.9 45.35q-3.25 -2.45 -3.25 -7.4q0 -2.95 8.45 -42.65q7.85 -37 12.55 -57.2q9.45 15.65 29.3 42.6q11.4 15.4 34.2 45.4q5.45 -8 7.45 -23.1q0.85 -7.2 2.1 -11.75q1.75 -6.5 3.3 -24.25q1.4 -15.7 4.2 -22.5q2.45 1.3 3.05 4q0.2 0.85 0.2 4.1q0 9.55 -8.85 52.15q-8.6 41.3 -11.4 47.75q-44.15 -44.8 -63.5 -85q5.55 3.1 5.55 9.9q0 4.5 -2.75 6.25q-3.65 -3.6 -9.7 -6.3q-7.25 -3.2 -14.3 -3.2q-31.65 0 -43.95 20q-6.3 10.15 -6.3 22.15q0 2.05 3 9q3.5 8 8.2 15.35q13.45 21 26.8 21q23.65 0 35.7 -7.05q4.2 -2.45 6.45 -5.3q-4.4 0 -5.75 -3.2q-0.5 -1.2 -0.5 -3.8q0 -2.4 6.15 -4.7q5.85 -2.15 13.6 -3.05q8.25 -0.9 13.6 0.35q6.15 1.45 6.15 5.4q0 8.4 -3.45 26.1q-3.45 17.95 -6.3 23.65q-1.75 -3.5 -1.75 -10.5q-10 9.75 -30.85 9.75q-26.3 0 -41.8 -28q-5 -9.05 -8.15 -19.8q-2.3 -7.8 -2.3 -10.2q0 -16.3 6.3 -29.1q10.05 -20.55 33.95 -24.25q26.5 -0.25 35.7 4.95q4.85 7.7 6.9 12.5q4.55 10.7 6.9 23.9q2.1 12.1 2.1 24.85q0 6.1 -0.45 11.75q-1.05 12.55 -4 22.8q-9.35 32.2 -34.3 32.2q-37.15 0 -54.5 -29.95q-5.6 -9.65 -8.45 -21.35q-1.8 -7.55 -1.8 -11.35q0 -11.15 2.15 -24.85q2.45 -15.85 7.05 -29.25q11.9 -34.75 32.8 -39.75q19.15 -4.6 28.9 3.25q3.4 2.7 5.95 7.2q-16.5 -36.5 -41.75 -28.8q-20.8 8.2 -32.85 38.65q-4.65 11.8 -7.2 25q-2.2 11.5 -2.2 20.35q0 3.45 2.25 10.65q3.05 9.75 8.25 17.9q15.4 24.2 43 24.2q28.45 0 38.5 -27.5q3.2 -8.7 4.15 -19.4q0 -8.15 -3 -21.75q-3.6 -16.35 -9.5 -29.45q-3.5 28.65 -3.5 38.85q0 13.7 -1 32.95q-1.05 15.75 -2.2 66.75q-0.95 42.2 -3.8 66.75q-2.55 20.65 -5.35 50.65q-2.55 -1.5 -3.5 -5.1q-0.5 -1.85 -0.5 -3.9q0 -21.2 2.8 -48.8q2.05 -19.85 6.2 -48.7q2.2 -24.85 3.85 -65.2q-8.9 0.5 -13.45 1.5q-4.3 1 -15.55 1.5q-1.35 22.95 -1.45 53.2q-0.15 60.1 -2.25 84.35q-1.55 18.35 -8.45 80.25q-6.05 59.25 -6.05 87.4q0 3.6 -1.1 7.1q-1.95 -1.7 -2.7 -7.45q0 -6.55 7.45 -79.05q7.75 -75.8 8.55 -92.35q1.05 -18.15 1.45 -42.9q0.7 -52.3 5.1 -85.3q-1.55 -18.35 0 -36.75q0.65 -5 0.9 -11.6q-0.65 -2.9 0.45 -6.8q1.05 -3.55 2.85 -5.8q1.9 -2.35 3.2 -1.35q1.5 1.1 1.5 6.45q0 16.65 -4 35.25q-1.5 13.7 0 28.5q-1.05 7.8 -1.8 17.05q17.65 -2.55 28.9 -2.6q1.85 -47.2 2.55 -59.5q0.65 -10.5 2.6 -18.05q0 -2.55 0.5 -8.35q0.95 -9.25 4 -7.6q1.2 0.65 2.1 2.85q0.9 2.25 0.9 4.75q-1.15 3.15 -2.5 4.5q-4 -7.65 -8.55 -13.15q-13.6 -16.4 -33.9 -16.4q-31.05 0 -42.75 30.75q-5.85 15.4 -5.5 31.1q0 6.75 55 163.15q2.5 7.15 17.2 40.6q11.3 25.7 14.3 41q8.2 36.9 8.2 45.3q0 4.15 -3.35 31.35q-3.7 30.05 -6.15 40.65q-2.7 10.5 -7.65 17.85q-6.4 9.7 -14 18q-1.3 1.35 -8.55 3.3q-7.5 2.05 -9.45 3.7q-9.05 8 -20.5 8q-18.4 0 -31.25 -19q-4.8 -7.1 -7.7 -15.3q-2.55 -7.2 -2.55 -11.7q0 -7.1 2.85 -31.05q2.9 -24.35 4.15 -26.7q1.45 1.3 2.35 4.1q0.65 2 0.65 3.05q0 4.05 -2.5 21.25q-2.5 17.25 -2.5 29.35q0 0.95 2.35 5.65q2.95 5.8 6.65 10.85q11.1 15.25 22.75 15.25q46.05 0 64.25 -62.5q5.7 -19.65 7.9 -43.35q0 -20 -23.6 -89.1q-7.15 -20.8 -17.1 -48.05q-7.9 -25.3 -13.6 -40.6q-4.4 -11.7 -10.4 -24.95q-7.55 -18.2 -7.55 -37.9q0 -40.95 16.25 -60.2q13.65 -16.25 35.75 -14.5q19.55 1.5 35.75 15.2q16.25 13.75 16.25 29q0 1.15 -1 3.9q-1.75 -2.1 -1.75 -5.5q0 -4.6 3.35 -6.65q3.25 -2 8.45 -0.8q12.35 2.9 22.45 18.7q7.1 12.05 8.3 15.9q0.95 3.2 0.95 13.35q0 15.3 -5.35 27.65q-5.95 13.8 -17.4 19.5q3.35 15.5 5.25 21.55q6.3 20.25 11.25 42.75q2.3 10.4 12.8 48.75q9.45 34.35 9.45 36.25q0 6.25 -1.75 9.75q-6.8 -17.15 -25.45 -86.65q-16.45 -61.5 -18.85 -79.1q-9.75 103.7 -17.7 137.35q-0.95 -1.3 -1.7 -5.1q-0.55 -3 -0.55 -4.4q0 -1.75 5.8 -53.2q6.1 -54.4 7.2 -72.05q0.85 -23.8 6.15 -63.15q0 15.1 -5.1 72.55q3.3 -0.45 6.25 -1.45q10.15 -3.9 15.95 -14.35q5.55 -10.05 5.55 -21.35q0 -3.3 -1.3 -8.1q-1.75 -6.65 -5.25 -12q-8.85 -13.7 -25.95 -15q-1.8 6.45 -5.35 11.75q8.7 5 12.45 17.7q2.5 4.15 3.9 19.3q0 12.4 -5 22.15q-10 19.3 -35.5 14.2q-0.6 0.4 -5.7 1.45q-1.75 -2.1 -1.75 -5.6q0 -14.4 2.8 -56.25q-0.9 -1.8 -0.9 -4.3q0 -1.4 1.45 -2.7q2.65 -31.85 5.95 -48.75q-0.5 -3 -0.5 -4.85q0 -5.2 7.25 -6.85q7.2 -1.65 16 1.35q9.85 3.35 16 10.9q7.25 9 7.25 21.85q0 2.4 -1.15 6.6q0 10.05 -2.3 43.7q4.6 -1.5 15.3 -4.2q10.85 -3.1 16.15 -6.6q7.35 -4.85 7.35 -12q0 -2.65 -1.4 -6.4q-1.95 -5.25 -5.8 -9.05q-10 -10 -29.4 -7.7q-2.8 37.55 -4.6 53.9q19.9 -2 27.55 -11.75q1.5 -1.9 3.65 -6.9q2.35 -5.45 2.35 -7.7q0 -25.45 -13.5 -37.15q-9.1 4.65 -21.8 4.65<g id="2233" transform="matrix(1, 0, 0, 1, -6.5, 0)">
<path style="fill:#000000;fill-opacity:1" d="M503.75,23.25Q482.7 23.25 476.5 43.5Q473.4 53.65 474.5 64.1Q474.5 78.95 485.9 106.8L497.6 134.1Q505.8 153 511 166.15Q527.45 207.85 536.1 247.3Q547.5 299.35 547.5 355.35Q547.5 416.6 541.5 452.1Q533.15 501.45 515.9 523.8Q499.65 544.85 473 544.85Q452.7 544.85 440.5 520.65Q436.1 512 433.55 501.7Q431.5 493.35 431.5 488.35Q431.5 482 433.65 476.9Q438.1 466.5 439.5 462.1Q441.75 462.6 442.3 466.2Q442.5 467.35 442.5 471.1Q442.5 477.05 439.9 482.15Q437.25 487.3 437.25 489.85Q437.25 499.35 444.95 510.55Q452.9 522.1 465.75 530.35L473 530.35Q521.6 531.7 536.5 454.95Q541.4 429.5 542.4 395.8L542.5 355.75Q542.5 303.1 531.1 253.5Q522.7 216.9 506 175Q487.75 132.05 480.9 113.9Q469.5 83.55 469.5 63.75Q469.5 33.6 480.15 19.4Q489.3 7.15 503.5 9.65Q516.8 11.9 526.9 25.15Q537.5 39.1 537.5 56.75Q537.5 61.15 535 64Q532.25 60.95 529.5 53.3L524.6 39.8Q517.6 23.25 503.75 23.25M459,28L451.55 23.4Q444.6 19.25 442 19.25Q411.15 19.25 393.55 61.05Q388.55 72.9 385.25 86.75Q419.25 86.5 420 86L443.25 86.25L444.4 88.3Q444.75 89.35 444.75 91.1Q444.75 94.25 443 96L431.3 96.3L419 97L383.1 96.8Q381.75 103.75 381.75 106.75Q381.75 110.15 383.3 116.9Q385.6 126.55 389.75 134.55Q402.4 158.75 427.5 158.75Q450.25 158.75 458.45 149.25Q462.65 144.45 462.25 139.1Q462.25 137.25 462.5 136.3Q462.75 135.4 463.5 134.25Q465.9 135.7 466.55 139.1Q466.75 140.3 466.75 144.35Q466.75 145.9 465.75 149.1Q464.35 153.7 461.8 157.5Q454 169 439 169Q401.35 169 386.25 140Q378.25 124.65 378.25 107Q378.25 101.25 378.65 95.75Q377.25 93.7 377.25 90.75Q377 88.4 377.65 86.8Q378.3 85.15 379.9 85.05Q382.85 65.95 391.15 50Q402 29.15 419.5 17.65Q435.05 7.45 447.85 9.05Q460.75 10.65 460.75 23.1Q460.75 26.25 459 28M390.95,15.65Q391.75 17.2 391.75 18.1Q391.75 19.55 381.35 50.2Q370.05 83.5 367.5 94.25Q361.15 120.5 357.75 131.6Q351.05 153.35 342 169.75Q316.25 31.3 316.25 18.5Q316.25 15.05 316.5 14Q317.05 11.3 319.25 10.25Q322.15 31.45 331.85 83.25Q340.6 130.05 343.5 156.25Q351.15 135.55 365.5 84.75Q378.5 38.6 389 13Q390.05 13.95 390.95 15.65M347.5,174.25Q350.35 184.1 351 198.25L351.25 222.6Q351.25 243.95 349.65 291.7Q348.25 333.85 347.25 351.85L347.25 456.1Q346.95 467.35 344.1 482.4Q341.05 498.7 336.3 512.65Q324.2 547.85 309 547.85L301.5 547.6Q287.95 538.7 285.9 524.75Q285.25 520.25 285.55 513L285.75 501.85Q285.1 492.4 284.9 474.65L284.75 456.85L286.75 379.6L284.75 290.75Q284.75 273.25 285.75 264.25L285.75 189.25L285.9 184.35Q285.95 180.8 288 179Q289.8 180.45 290.65 183.5Q291.25 185.55 291.25 187.5Q291.25 192 290.25 195L290.25 268.5Q289.25 276 289.25 290.5L291.25 364.35L289.25 456.6L289.1 469.35Q289.2 484.1 290.3 496.35Q293.75 535.35 305.85 535.35Q326.15 535.35 335.9 496.65Q338.95 484.5 340.9 468.35L342.75 451.85L342.75 348.35Q343.9 330 345.25 289.2Q346.75 244.8 346.75 222.85L345.75 201.7L344.75 180.5Q344.75 175.9 347.5 174.25M400.75,189.5Q398.8 210.05 392.9 235.65Q388.9 253.25 381 281Q377.75 278.55 377.75 273.6Q377.75 270.65 386.2 230.95Q394.05 193.95 398.75 173.75L400 173Q409.45 188.65 429.3 215.6Q440.7 231 463.5 261Q468.95 253 470.95 237.9L472.4 225.5Q473.25 218.3 474.5 213.75Q476.25 207.25 477.8 189.5Q479.2 173.8 482 167Q484.45 168.3 485.05 171Q485.25 171.85 485.25 175.1Q485.25 184.65 476.4 227.25Q467.8 268.55 465 275Q420.85 230.2 401.5 190L400.75 189.5M470.7,289.45Q476.25 292.55 476.25 299.35Q476.25 303.85 473.5 305.6Q469.85 302 463.8 299.3Q456.55 296.1 449.5 296.1Q417.85 296.1 405.55 316.1Q399.25 326.25 399.25 338.25Q399.25 340.3 402.25 347.25Q405.75 355.25 410.45 362.6Q423.9 383.6 437.25 383.6Q460.9 383.6 472.95 376.55Q477.15 374.1 479.4 371.25L480.75 359.25L480.5 354.6L467.9 356.5L456 357.85Q451.6 357.85 450.25 354.65Q449.75 353.45 449.75 350.85Q449.75 348.45 455.9 346.15Q461.75 344 469.5 343.1Q477.75 342.2 483.1 343.45Q489.25 344.9 489.25 348.85Q489.25 357.25 485.8 374.95Q482.35 392.9 479.5 398.6Q477.75 395.1 477.75 388.1L477.85 386.1Q467.85 395.85 447 395.85Q420.7 395.85 405.2 367.85Q400.2 358.8 397.05 348.05Q394.75 340.25 394.75 337.85Q394.75 321.55 401.05 308.75Q411.1 288.2 435 284.5Q461.5 284.25 470.7 289.45M297.1,23.95L300.25 30.5L307.85 42Q312.7 49.7 314.75 54.5Q319.3 65.2 321.65 78.4Q323.75 90.5 323.75 103.25Q323.75 109.35 323.3 115Q322.25 127.55 319.3 137.8Q309.95 170 285 170Q247.85 170 230.5 140.05Q224.9 130.4 222.05 118.7Q220.25 111.15 220.25 107.35Q220.25 96.2 222.4 82.5Q224.85 66.65 229.45 53.25Q241.35 18.5 262.25 13.5Q281.4 8.9 291.15 16.75Q294.55 19.45 297.1 23.95M307.75,51.8Q291.25 15.3 266 23Q245.2 31.2 233.15 61.65Q228.5 73.45 225.95 86.65Q223.75 98.15 223.75 107Q223.75 110.45 226 117.65Q229.05 127.4 234.25 135.55Q249.65 159.75 277.25 159.75Q305.7 159.75 315.75 132.25Q318.95 123.55 319.9 112.85L320.25 103Q320.25 94.85 317.25 81.25Q313.65 64.9 307.75 51.8M212,45.4Q208.5 74.05 208.5 84.25Q208.5 97.95 207.5 117.2L205.5 151Q204.45 166.75 203.3 217.75Q202.35 259.95 199.5 284.5L199.5 334.6L196.5 396.1L196.5 437.35Q193.95 458 191.15 488L186.5 538.6Q183.95 537.1 183 533.5Q182.5 531.65 182.5 529.6Q182.5 508.4 185.3 480.8Q187.35 460.95 191.5 432.1L191.5 391.6L194.5 329.35L194.5 280Q196.7 255.15 198.35 214.8L198 215L192.3 215.3L186 216Q177.1 216.5 172.55 217.5Q168.25 218.5 157 219L146.7 218.8Q145.35 241.75 145.25 272Q145.1 332.1 143 356.35Q141.45 374.7 134.55 436.6Q128.5 495.85 128.5 524Q128.5 527.6 127.4 531.1L124.5 538.6Q122.55 536.9 121.8 531.15L121.5 525.5Q121.5 518.95 128.95 446.45Q136.7 370.65 137.5 354.1Q138.55 335.95 138.95 311.2L139.4 268.55Q140.1 216.25 144.5 183.25L144.5 139Q142.95 120.65 144.5 102.25L144.5 46.75Q145.15 41.75 145.4 35.15L145.5 23.5Q144.85 20.6 145.95 16.7Q147 13.15 148.8 10.9Q150.7 8.55 152 9.55Q153.5 10.65 153.5 16Q153.5 32.65 149.5 51.25L149.5 106.75Q148 120.45 149.5 135.25L149.5 187.75Q148.45 195.55 147.7 204.8L148 204.75L170.05 201.85Q187.7 199.3 198.95 199.25Q200.8 152.05 201.5 139.75L203.05 104.5L204.25 69.25L204.9 52.05Q205.55 41.55 207.5 34Q207.5 31.45 208 25.65L208.5 16.75Q209.45 7.5 212.5 9.15Q213.7 9.8 214.6 12Q215.5 14.25 215.5 16.75L212 45.4M116.5,55.25Q115.35 58.4 114 59.75L109.2 49.8Q105.2 42.15 100.65 36.65Q87.05 20.25 66.75 20.25Q35.7 20.25 24 51Q18.15 66.4 18.5 82.1Q18.5 88.85 73.5 245.25Q76 252.4 90.7 285.85Q102 311.55 105 326.85L113.3 362.55Q121.5 399.45 121.5 407.85Q121.5 412 118.15 439.2Q114.45 469.25 112 479.85L108.15 498Q105.45 508.5 100.5 515.85Q94.1 525.55 86.5 533.85Q85.2 535.2 77.95 537.15Q70.45 539.2 68.5 540.85Q59.45 548.85 48 548.85Q29.6 548.85 16.75 529.85Q11.95 522.75 9.05 514.55Q6.5 507.35 6.5 502.85Q6.5 495.75 9.35 471.8Q12.25 447.45 13.5 445.1Q14.95 446.4 15.85 449.2Q16.5 451.2 16.5 452.25Q16.5 456.3 14 473.5Q11.5 490.75 11.5 502.85Q11.5 503.8 13.85 508.5Q16.8 514.3 20.5 519.35Q31.6 534.6 43.25 534.6Q89.3 534.6 107.5 472.1Q113.2 452.45 115.4 428.75L116.5 408.35Q116.5 388.35 92.9 319.25Q85.75 298.45 75.8 271.2L66.25 245L53.35 203.85Q45.45 178.55 39.75 163.25Q35.35 151.55 29.35 138.3L21.05 119.75Q13.5 101.55 13.5 81.85Q13.5 40.9 29.75 21.65Q43.4 5.4 65.5 7.15Q85.05 8.65 101.25 22.35Q117.5 36.1 117.5 51.35Q117.5 52.5 116.5 55.25M220.5,291.6Q218.75 289.5 218.75 286.1Q218.75 281.5 222.1 279.45Q225.35 277.45 230.55 278.65Q242.9 281.55 253 297.35Q260.1 309.4 261.3 313.25Q262.25 316.45 262.25 326.6Q262.25 341.9 256.9 354.25Q250.95 368.05 239.5 373.75L241.5 382.55Q244.85 398.05 246.75 404.1Q253.05 424.35 258 446.85Q260.3 457.25 270.8 495.6Q280.25 529.95 280.25 531.85Q280.25 538.1 278.5 541.6Q271.7 524.45 253.05 454.95Q236.6 393.45 234.2 375.85L230 376.85L219.1 376.65L216.7 402.25Q206.95 505.95 199 539.6Q198.05 538.3 197.3 534.5Q196.75 531.5 196.75 530.1Q196.75 528.35 202.55 476.9Q208.65 422.5 209.75 404.85Q210.6 381.05 215.9 341.7L222.35 291.6L220.5 291.6M225.25,292Q225.25 307.1 220.15 364.55L229 364.35Q232.3 363.9 235.25 362.9L236 361.85L236.25 362.55Q246.4 358.65 252.2 348.2Q257.75 338.15 257.75 326.85Q257.75 323.55 256.45 318.75Q254.7 312.1 251.2 306.75Q242.35 293.05 225.25 291.75L225.25 292M464.25,397.95L463 399.6L462.2 398.75L464.25 397.95M406.1,441.85Q404.3 448.3 400.75 453.6L398.05 457.15Q406.75 462.15 410.5 474.85Q413 479 414.4 494.15L415.25 509Q415.25 521.4 410.25 531.15Q400.25 550.45 374.75 545.35Q374.15 545.75 369.05 546.8L362 547.85L354.5 547.6Q352.75 545.5 352.75 542L352.8 541.25L352.75 539.5Q352.75 525.1 355.55 483.25L356.65 468.3Q355.75 466.5 355.75 464Q355.75 462.6 357.2 461.3Q359.85 429.45 363.15 412.55L361.25 412.85Q360.75 409.85 360.75 408Q360.75 402.8 368 401.15Q375.2 399.5 384 402.5Q393.85 405.85 400 413.4Q407.25 422.4 407.25 435.25Q407.25 437.65 406.1 441.85M366.15,412.1L366.25 414.35Q366.25 424.4 363.95 458.05Q368.55 456.55 379.25 453.85Q390.1 450.75 395.4 447.25Q402.75 442.4 402.75 435.25Q402.75 432.6 401.35 428.85Q399.4 423.6 395.55 419.8Q385.55 409.8 366.15 412.1M362.2,481.95Q359.4 519.5 357.6 535.85L363.2 535.9L377.2 535.35Q397.1 533.35 404.75 523.6Q406.25 521.7 408.4 516.7Q410.75 511.25 410.75 509Q410.75 483.55 397.25 471.85L387.95 465.3L387.8 465.2Q378.7 469.85 366 469.85L363.1 469.8L362.2 481.95" />
</g>
</svg>
