<?xml version="1.0" encoding="utf-8"?>
<svg version="1.1" id="Layer_1"
xmlns="http://www.w3.org/2000/svg"
xmlns:xlink="http://www.w3.org/1999/xlink"


xml:space="preserve">
q-0.4 24.6 -1.55 49.4q-2.75 59.35 -3.65 119.35q-2.3 -16.4 -5.85 -32.8q-11.15 -50.4 -24.95 -100.25q-15.85 -57.1 -26.2 -114.6q-0.5 0.25 -0.55 0.55q-6.2 38.35 -8.7 77.65q-3.75 59.35 -4.7 119.3q-0.95 58.55 -4.25 116.7q-1.75 -3.75 -2.35 -1.7q0 0.4 0.15 0.7q-1.65 7.1 3.35 11q5.7 -19.15 5.95 -41.75q0.6 -59.7 1.9 -119.2q1.35 -59.6 5.9 -118.55q1.05 -14 3.6 -27.45q3.65 18.7 7.7 37.4q12.7 58.55 27.9 116.15q14.8 56.1 22.75 113.75q4.25 30.4 13.3 57.4q2.1 -0.5 2.05 -2.7q6.2 -47.15 5.5 -95.95q-0.8 -59.95 1.75 -119.25q2.55 -60.05 3.85 -118.45q-7.9 21.8 -8.35 47.75q0.8 27.05 0.8 54q0.1 59.95 -5.4 119.1q-5.7 61.15 -29.15 117.85q-16.7 25.2 -45.9 9.85q-1.85 -0.95 -2.45 -2.5q-14.65 -37.35 -12.75 -79.1q2.6 -59.55 2.5 -117.75q-6.05 29.45 -7.6 61.95q-2.8 58.85 1.4 117.15q1.5 21 15.55 35.15q6.8 6.9 16.1 9q15.75 3.55 25.6 -7.45q23.2 -25.95 31.75 -60.9q14.4 -59 17.2 -119.6q2.7 -59.3 1.35 -118.5q-0.2 -7.6 0.3 -14.9q0.9 -13 -6.8 -17.35q-3.05 5.65 -3.5 12q-5.1 31.65 -3.55 65.2q2.2 47.15 0.65 94.5q-25.45 1.35 -51.1 -2.25q-6.8 -0.6 -13.3 0.7q1.5 -59.85 0.35 -118.5q-3.35 3.1 -3.3 9q0.65 59.2 -0.55 119.25q-0.55 29.7 -2.3 59.3q-3.5 59.1 -5.35 118.4q-1.6 0.1 -2.25 -1.65q-1.15 -1.35 -0.25 0.55q1.25 2.7 1 5.35q-1.3 13.45 5.75 20.1q5.55 -45.15 6.25 -92.2q0.5 -32.2 1.15 -64.4q32.4 3.75 64.15 3.3q-3.2 59.6 -7.3 119.1q-1.15 16.65 4.3 29.8q0.9 -0.6 0.95 -1.3q4.15 -46.15 5.4 -92.9q0.9 -32.6 1.35 -65.2q2.1 -2.2 2.5 -5.25q0.2 -1.45 0.05 -3q-0.45 -2 -1.45 -3.75q-0.35 -0.4 -0.7 -0.35q0.25 -59.35 1.05 -118.5q-17.75 20.6 -18.7 49.25q-0.55 17.9 6.2 33.85q19.95 46.9 48.2 90.35q25.75 39.5 28.75 86.45q1.6 24.7 -16.7 39.55q-13.85 11.3 -30.2 19q-35.6 16.8 -54.9 -14.95q-0.05 -0.4 -0.3 -0.65q-0.1 -0.15 -0.35 -0.15q-2.65 1.05 -6.35 -3.8q-2.35 -3.15 -5.15 -0.95q-2.5 24.8 18.5 43.05q6.7 5.75 15.3 6.1q16.2 0.65 31.7 -4.3q53.55 -17.2 52.25 -71.1q-0.65 -26.3 -7.9 -51.25q-15.05 -51.55 -48.85 -94.55q-23.15 -29.35 -24.7 -65.7q-1.05 -24.6 13.45 -42.7q18.25 -6.4 34.25 3.85q22.55 14.35 28.7 39.15q3.4 -3.4 2.3 -8.7q-9.3 -45.25 -56.3 -51.8q-6.9 0.75 -11.35 5.95<g id="2230" transform="matrix(1, 0, 0, 1, -35.75, 0)">
<path style="fill:#000000;fill-opacity:1" d="M521.45,105.5Q520.15 163.9 517.6 223.95Q515.05 283.25 515.85 343.2Q516.55 392 510.35 439.15L511 452.25Q511.05 454.45 508.95 454.95Q499.9 427.95 495.65 397.55Q487.7 339.9 472.9 283.8Q457.7 226.2 445 167.65Q440.95 148.95 437.3 130.25Q434.75 143.7 433.7 157.7Q429.15 216.65 427.8 276.25Q426.5 335.75 425.9 395.45Q425.65 418.05 419.95 437.2Q414.95 433.3 416.6 426.2L416.7 425.45L413.6 418.65Q413.45 418.35 413.45 417.95Q414.05 415.9 415.8 419.65L416.45 420.7Q419.75 362.55 420.7 304Q421.65 244.05 425.4 184.7Q427.9 145.4 434.1 107.05L434.3 106L435.4 99.3Q435.45 99 435.95 98.75L436.45 100.15L437.2 99Q447.55 156.5 463.4 213.6Q477.2 263.45 488.35 313.85L500.95 371.65Q504.5 388.05 506.8 404.45L507.9 322Q508.8 262 511.55 202.65Q512.7 177.85 513.1 153.25Q513.55 127.3 521.45 105.5M396.3,109.2L395.95 108.5Q396.4 102.15 399.45 96.5Q407.15 100.85 406.25 113.85Q405.75 121.15 405.95 128.75Q407.3 187.95 404.6 247.25Q401.8 307.85 387.4 366.85Q378.85 401.8 355.65 427.75Q345.8 438.75 330.05 435.2Q320.75 433.1 313.95 426.2Q299.9 412.05 298.4 391.05Q294.2 332.75 297 273.9L302.6 154.7Q304.15 122.2 310.2 92.75Q310.3 150.95 307.7 210.5L302.35 329.7Q300.45 371.45 315.1 408.8Q315.7 410.35 317.55 411.3Q346.75 426.65 363.45 401.45Q386.9 344.75 392.6 283.6Q398.1 224.45 398 164.5Q398 137.55 397.2 110.5L396.3 109.2M264.7,93L265.2 93.75Q264.4 152.9 264.15 212.25L263.85 251.05L265.5 250.9Q265.85 250.85 266.2 251.25Q267.2 253 267.65 255L267.9 256.5L268 257.25Q268.15 258.8 267.95 260.25Q267.55 263.3 265.45 265.5L263.65 265.55Q263.2 298.15 262.3 330.75Q261.05 377.5 256.9 423.65Q256.85 424.35 255.95 424.95Q250.5 411.8 251.65 395.15Q255.75 335.65 258.95 276.05L259.5 265.65Q227.75 266.1 195.35 262.35Q194.7 294.55 194.2 326.75Q193.5 373.8 187.95 418.95Q180.9 412.3 182.2 398.85Q182.45 396.2 181.2 393.5Q180.3 391.6 181.45 392.95Q182.1 394.7 183.7 394.6L183.7 394.2Q185.55 334.9 189.05 275.8Q190.8 246.2 191.35 216.5Q192.55 156.45 191.9 97.25Q191.85 91.35 195.2 88.25L196.2 89L196.95 89.75Q198.1 148.4 196.6 208.25L195.65 249.7Q202.15 248.4 208.95 249Q234.6 252.6 260.05 251.25Q261.6 203.9 259.4 156.75Q257.85 123.2 262.95 91.55L263.45 91.5L264.7 93M96.95,80.5Q143.95 87.05 153.25 132.3Q154.35 137.6 150.95 141Q144.8 116.2 122.25 101.85Q106.25 91.6 88 98Q73.5 116.1 74.55 140.7Q76.1 177.05 99.25 206.4Q133.05 249.4 148.1 300.95Q155.35 325.9 156 352.2Q157.3 406.1 103.75 423.3Q88.25 428.25 72.05 427.6Q63.45 427.25 56.75 421.5Q35.75 403.25 38.25 378.45Q41.05 376.25 43.4 379.4Q47.1 384.25 49.75 383.2Q50 383.2 50.1 383.35Q50.35 383.6 50.4 384L50.55 384.7L50.65 385.5L50.75 386.2L50.5 386.95L50.2 387.7L49.7 388.45L49 389.2L48.25 389.95Q67.55 421.7 103.15 404.9Q119.5 397.2 133.35 385.9Q151.65 371.05 150.05 346.35Q147.05 299.4 121.3 259.9Q93.05 216.45 73.1 169.55Q66.35 153.6 66.9 135.7Q67.85 107.05 85.6 86.45Q90.05 81.25 96.95 80.5" />
</g>
</svg>
