<?xml version="1.0" encoding="utf-8"?>
<svg version="1.1" id="Layer_1"
xmlns="http://www.w3.org/2000/svg"
xmlns:xlink="http://www.w3.org/1999/xlink"


xml:space="preserve">
q-0.65 58.05 -2.85 117.75q-1.05 28.2 -0.9 55.75q4.25 -1.9 9.45 -0.9q7.6 1.4 12.05 -1.4q16.05 2.25 32.25 3.4q1.75 1.45 2.25 3.75q0.15 3.5 -1.3 6.75q-1.45 2.8 -4.55 4.2q-1.1 -58.55 1.35 -117.8q1.45 -35.55 6.85 -70.35q0.2 -1.05 1.3 -1.05q0.35 24.2 -17.6 37.5q-8.25 6.15 -18.7 4.6q-7.05 -15.3 -4.85 -32.95q3 -23.85 -3.45 -45.45q-5.05 23.6 -4.65 51.35q0.3 22.55 12.45 41.55q6.2 2.45 12.4 0.35q21.15 -7.05 27.4 -30.1q9.2 -33.7 0.2 -68.2q-3.55 19.75 -3.2 41.35q-5.4 -0.1 -10.75 0.05q-19.35 21.2 -2.9 44.95q4.45 6.45 7.4 13.55q28.75 34.55 27.9 80.2q-0.65 34.1 -33.7 41.15q-6.55 1.35 -12.5 -1.85q-37.45 -20.25 -21.55 -59.1q1.05 -2.55 3.85 -3.95q4.5 1.85 5.15 7.05q0.2 1.4 1.45 2.25q-18.8 21.95 9.05 35.85q21.7 10.85 35.1 -8.8q10.3 -15.1 4.95 -33.9q-8.45 -29.5 -26.9 -54.05q-27 -35.85 -1.7 -72.35q1.8 -2.6 4 -3.95q27.35 0.85 30.65 27.95q0.75 5.9 -1.9 10.55q-3.5 -5.25 -6.95 -13.55q-3.05 -7.5 -10.3 -11.7q-0.95 41.1 -4.25 81q-5.75 -8 -5 -21.55q2.15 -37.65 3.25 -75.25q-0.55 19.7 0.4 39.75q1 20.8 -4.5 39q-5.1 -12.75 -2.45 -29.5q1.75 -10.95 2.1 -22.2q-2.55 -3.05 -0.8 -8q0.5 -33.45 0.2 -66.9q-0.15 -14.7 4.65 -26.25q0 45.45 -1 92q13.95 -4.05 29.1 -4.65q0.4 -31.25 6.35 -59.5q0.1 46.85 -0.75 94.8<g id="2240" transform="matrix(1, 0, 0, 1, -118.75, 0)">
<path style="fill:#000000;fill-opacity:1" d="M360.2,179Q359.55 237.05 357.35 296.75Q356.3 324.95 356.45 352.5Q360.7 350.6 365.9 351.6Q373.5 353 377.95 350.2Q394 352.45 410.2 353.6L417.45 353.95Q419.2 355.4 419.7 357.7L419.9 359.2L419.95 359.95Q420.1 363.45 418.65 366.7L418.2 367.45L355.25 364Q353.8 366.8 350.7 368.2Q349.6 309.65 352.05 250.4Q353.5 214.85 358.9 180.05Q359.1 179 360.2 179M329.45,269.75Q338.45 304.25 329.25 337.95Q323 361 301.85 368.05Q295.65 370.15 289.45 367.7Q277.3 348.7 277 326.15Q276.6 298.4 281.65 274.8Q288.1 296.4 285.1 320.25Q282.9 337.9 289.95 353.2Q300.4 354.75 308.65 348.6Q326.6 335.3 326.25 311.1Q325.9 289.5 329.45 269.75M180.75,191.7Q175.35 191.6 170 191.75Q150.65 212.95 167.1 236.7Q171.55 243.15 174.5 250.25Q203.25 284.8 202.4 330.45Q201.75 364.55 168.7 371.6Q162.15 372.95 156.2 369.75Q118.75 349.5 134.65 310.65Q135.7 308.1 138.5 306.7L138.9 306.65Q143.4 308.5 144.05 313.7Q144.25 315.1 145.5 315.95Q126.7 337.9 154.55 351.8Q176.25 362.65 189.65 343Q199.95 327.9 194.6 309.1Q186.15 279.6 167.7 255.05Q140.7 219.2 166 182.7Q167.8 180.1 170 178.75Q197.35 179.6 200.65 206.7Q201.4 212.6 198.75 217.25Q195.25 212 191.8 203.7Q188.75 196.2 181.5 192L180.75 191.7M256.95,296.45Q256 337.55 252.7 377.45Q246.95 369.45 247.7 355.9Q249.85 318.25 250.95 280.65L221.95 283.3L221.55 298.95Q221 318.65 221.95 338.7Q222.95 359.5 217.45 377.7Q212.35 364.95 215 348.2Q216.75 337.25 217.1 326L218.25 281.95Q215.7 278.9 217.45 273.95L218.35 273.65Q218.85 240.2 218.55 206.75Q218.4 192.05 223.2 180.5Q223.2 225.95 222.2 272.5Q236.15 268.45 251.3 267.85L251.85 237.5Q252.25 206.25 258.2 178Q258.3 224.85 257.45 272.8L257.4 275.5L256.95 296.45" />
</g>
</svg>
