<?xml version="1.0" encoding="utf-8"?>
<svg version="1.1" id="Layer_1"
xmlns="http://www.w3.org/2000/svg"
xmlns:xlink="http://www.w3.org/1999/xlink"


xml:space="preserve">
q-7.9 28.1 -14 56.75q-12.4 58.2 -29.75 115.35q-0.2 -30.1 -0.75 -60q-1.05 -59.95 -3.25 -118.5q-4.45 10.55 -4.15 24q1.25 59.2 2.8 118.5q1.55 59.55 -1.3 119.2q-2.8 59.5 -4.55 119.25q-1.75 59.7 -5.05 118.5q0.75 2.75 3.25 1.5q6.3 -41.4 7.05 -84q1.05 -59.7 3.7 -119.25q1.75 -38.35 2.2 -76.85q5.3 -19.75 10.95 -39.9q1.15 28.45 10 57.5q17.55 57.8 22.3 117.85q4.55 57.15 1.9 114.6q-0.75 16.5 5.15 28.55q3.95 -6.95 3.8 -15.75q-1 -59.65 -4.45 -119.2q-2.55 -44.4 -14.05 -87.3q-13.8 -51.45 -22.6 -103.4q16.35 -56.8 27.1 -114.8q1.4 -7.55 4.8 -14.25q6.15 -12.2 2 -21.6q-5.05 8.25 -7.9 18.45q-3.4 55.55 -6.55 112.95q-3.3 58.85 -8.2 117q-1.15 -14.65 -2.7 -29.25q-6.3 -59.4 -14.45 -118.4q-4.05 -29.6 -5.3 -59.4q-0.55 -13.35 -5.8 -21.45q-2.25 29.65 -2.45 60q-0.35 59.5 -3.3 118.5q-0.8 15.05 -3.25 29.75q-2.85 16.95 1.75 29.25q6 -33.95 7.5 -68.95q2.45 -58.4 2.25 -117.55q6.65 55.2 14.15 110.3q4 29.45 4.55 59.2q0.3 16.6 6.8 29.75q10.1 -35.4 11.2 -74q1.75 -59.35 6.95 -118.45q2.75 -30.85 -2.65 -59.3q2 59.3 1.6 119.3q-0.35 51.75 -3.65 103.6q-3.75 59.2 -14.5 117.15q-4.55 24.5 -21.05 41.35q-3.8 3.95 -8.95 4.1q-23.5 0.95 -27.6 -24.3q-8.15 -50.2 -6.45 -102.2q1.95 -59.55 2.5 -119.2q0.55 -59.65 0.55 -119.25q0 -30.05 1.45 -59.9q1.45 -30.4 0.35 -59.35q-7.3 35 -6.95 73.25q0.6 59.65 0.05 119.25q-0.55 59.55 -1.7 119.25q-1.1 58.7 1 117.7q1.05 30.45 13.55 58.1q6.1 13.55 21.5 11q9.85 -1.6 16.05 -10.2q18.1 -25.1 22.9 -56.5q4.35 -28.5 6.8 -57.25q5.05 -59.55 7.75 -119.2q2.65 -59.45 0.6 -119.15q-2.05 -59.6 -2.95 -119.25q-0.15 -10.25 -6.1 -13.5q-7 3 -10.1 10.25q-15.5 36.1 -17.15 76.65q-2.4 59.6 3.05 118.6q1.5 16.6 13.05 28.7q11.85 12.35 24.65 1.8q21.95 -18.1 19.5 -43.05q-4.95 8.85 -9.4 18.5q-9.35 20.15 -29.1 13.75q-2.05 -1.6 -3.15 -3.65q-11.95 -22.45 -12.5 -49.35q-1.25 -59.55 3.35 -117.85q2.1 -26.2 19.55 -44.1q1.9 2.85 4.75 2.5q1.7 -5.1 -2.15 -8.85q-2.5 -2.35 -5.35 -3.9q-6.5 15.55 -5.75 40.85q0.55 17.45 0.3 34.85q-2.2 4.65 0.85 8q-0.65 47.65 -2.55 95.35q-0.15 3.7 1.85 6.7q5.45 59.85 21.45 117.95q0.85 3.15 2.45 6.2q-1.7 -62.7 -21.8 -126q16.65 -15.1 21.55 -37.05q1.35 -5.9 2 -12.2q1.85 -27.05 -11.35 -50.6q-2.65 -4.65 -5.75 -8.95q12.95 18.05 16.3 40.35q3.1 20.8 -4.5 40.35q-6.2 15.95 -19.65 26.6q-4.35 59.1 -2.4 118.5q1.95 59.65 0.55 119.25q-28.15 0.65 -52.2 12.4q-0.15 -51.95 -1.7 -103.5q-1.85 -59.8 -5.55 -118.5q-3.3 46.45 -1.4 95.3q2.35 59.65 3.35 119.2q0.7 60.05 -4.25 119.2q-1.4 16.3 2.4 29.8q4.95 -9.9 5.4 -22.15q2 -59.3 1.15 -119.35q26.75 -7.25 54.65 -10.35q-0.6 41.35 -0.15 82.9q0.7 59.6 -1 119.25q-0.4 13.5 5.35 21.5q3.3 -10.65 3.1 -22.5q-1.05 -59.75 0.25 -119.2q1.35 -59.6 0.1 -119.25q-1.25 -59.9 -1.7 -118.5q-1.1 -0.1 -1.2 1q-15.9 -7.7 -33.65 -6.35q-33.8 6.85 -39.35 42.25q-8.2 52.35 33.45 86.45q16.3 13.35 28.95 29.85q25 32.6 39.45 71.3q19.15 51.5 23.3 106.1q3.75 49.5 -11.1 96.25q-9.6 30.05 -33.35 48.35q-12.95 10 -28.95 8q-31.6 -3.8 -40.5 -30.95q-3.55 -10.9 -1 -22.15q2.85 -12.7 -2.8 -21.45q-5.9 16.7 -5.05 35.3q1.65 35.35 34.25 48q27.2 10.65 51.5 -3.6q4.6 -2.7 7.8 -6.5q37.9 -45.1 42.3 -104.4q4.3 -58.05 -10.8 -113.75q-13.3 -49.2 -34.8 -95.55q-12.5 -26.9 -36.3 -44.65q-30.8 -22.9 -43.6 -57.45q-8.3 -22.35 4.9 -42.65q19.45 -30 55.2 -15.9q28.05 11.05 31.1 40.4q4.4 -11.4 -0.8 -23.2q-6.55 -15.1 -19.7 -25.3q-1.5 -0.25 -2.85 -0.9<g id="2239" transform="matrix(1, 0, 0, 1, -21.6, 0)">
<path style="fill:#000000;fill-opacity:1" d="M543.95,30.5Q548.1 39.9 541.95 52.1Q538.55 58.8 537.15 66.35Q526.4 124.35 510.05 181.15L505.15 198.3Q513.95 250.25 527.75 301.7Q539.25 344.6 541.8 389Q545.25 448.55 546.25 508.2Q546.4 517 542.45 523.95Q536.55 511.9 537.3 495.4Q539.95 437.95 535.4 380.8Q530.65 320.75 513.1 262.95Q504.25 233.9 503.1 205.45Q497.45 225.6 492.15 245.35Q491.7 283.85 489.95 322.2Q487.3 381.75 486.25 441.45Q485.5 484.05 479.2 525.45Q476.7 526.7 475.95 523.95Q479.25 465.15 481 405.45Q482.75 345.7 485.55 286.2Q488.4 226.55 486.85 167Q485.3 107.7 484.05 48.5Q483.75 35.05 488.2 24.5Q490.4 83.05 491.45 143Q492 172.9 492.2 203L492.3 221.05Q509.65 163.9 522.05 105.7Q528.15 77.05 536.05 48.95Q538.9 38.75 543.95 30.5M464.45,28Q469.85 56.45 467.1 87.3Q461.9 146.4 460.15 205.75Q459.05 244.35 448.95 279.75Q442.45 266.6 442.15 250Q441.6 220.25 437.6 190.8Q430.1 135.7 423.45 80.5Q423.65 139.65 421.2 198.05Q419.7 233.05 413.7 267Q409.1 254.7 411.95 237.75Q414.4 223.05 415.2 208Q418.15 149 418.5 89.5Q418.7 59.15 420.95 29.5Q426.2 37.6 426.75 50.95Q428 80.75 432.05 110.35Q440.2 169.35 446.5 228.75Q448.05 243.35 449.2 258Q454.1 199.85 457.4 141Q460.55 83.6 463.95 28.05L464.45 28M400.8,36.5Q401.7 96.15 403.75 155.75Q405.8 215.45 403.15 274.9Q400.45 334.55 395.4 394.1Q392.95 422.85 388.6 451.35Q383.8 482.75 365.7 507.85Q359.5 516.45 349.65 518.05Q334.25 520.6 328.15 507.05Q315.65 479.4 314.6 448.95Q312.5 389.95 313.6 331.25Q314.75 271.55 315.3 212Q315.85 152.4 315.25 92.75Q314.9 54.5 322.2 19.5Q323.3 48.45 321.85 78.85Q320.4 108.7 320.4 138.75Q320.4 198.35 319.85 258Q319.3 317.65 317.35 377.2Q315.65 429.2 323.8 479.4Q327.9 504.65 351.4 503.7Q356.55 503.55 360.35 499.6Q376.85 482.75 381.4 458.25Q392.15 400.3 395.9 341.1Q399.2 289.25 399.55 237.5Q399.95 177.5 397.95 118.2L394.7 23Q400.65 26.25 400.8 36.5M443.2,285.5Q446.05 287.05 448.55 289.4Q452.4 293.15 450.7 298.25L449.95 298.5Q447.1 298.85 445.2 296L432.7 295.25Q415.25 313.15 413.15 339.35Q408.55 397.65 409.8 457.2Q410.35 484.1 422.3 506.55Q423.4 508.6 425.45 510.2L425.95 510.25L427.45 510.45Q447.2 516.85 456.55 496.7Q461 487.05 465.95 478.2Q468.4 503.15 446.45 521.25Q433.65 531.8 421.8 519.45Q410.25 507.35 408.75 490.75Q403.3 431.75 405.7 372.15Q407.35 331.6 422.85 295.5Q425.95 288.25 432.95 285.25L443.2 285.5M298.6,44.1Q311.8 67.65 309.95 94.7L309.45 100.25Q308.8 106.55 307.45 112.45Q302.55 134.4 285.9 149.5Q306 212.8 307.7 275.5Q306.1 272.45 305.25 269.3Q289.25 211.2 283.8 151.35L281.05 153.5L275.05 257.15L274.85 257.3Q272.85 254.3 273 250.6Q274.9 202.9 275.55 155.25Q272.5 151.9 274.7 147.25L276.1 146.3L276.4 124.05L276.75 101.75Q277 84.35 276.45 66.9Q275.7 41.6 282.2 26.05L286.2 26.25L292.85 35.15Q295.95 39.45 298.6 44.1M286,32.35L282.15 32.6L281.15 142.5Q294.6 131.85 300.8 115.9Q308.4 96.35 305.3 75.55Q301.95 53.25 289 35.2L286 32.35M258.2,17.75Q258.65 76.35 259.9 136.25Q261.15 195.9 259.8 255.5Q258.5 314.95 259.55 374.7L261.8 493.95Q262 505.8 258.7 516.45Q252.95 508.45 253.35 494.95Q255.05 435.3 254.35 375.7Q253.9 334.15 254.5 292.8Q226.6 295.9 199.85 303.15L200.55 369.7Q201.4 429.75 199.4 489.05Q198.95 501.3 194 511.2Q190.2 497.7 191.6 481.4Q196.55 422.25 195.85 362.2L194.2 243Q193.2 183.45 190.85 123.8Q188.95 74.95 192.25 28.5Q195.95 87.2 197.8 147Q199.35 198.55 199.5 250.5L199.75 294.9Q223.8 283.15 251.95 282.5L254.65 282.75L255.15 256.5Q256.55 196.9 254.6 137.25Q252.65 77.85 257 18.75Q257.1 17.65 258.2 17.75M116.5,26.75Q129.65 36.95 136.2 52.05Q141.4 63.85 137 75.25Q133.95 45.9 105.9 34.85Q70.15 20.75 50.7 50.75Q37.5 71.05 45.8 93.4Q58.6 127.95 89.4 150.85Q113.2 168.6 125.7 195.5Q147.2 241.85 160.5 291.05Q175.6 346.75 171.3 404.8Q166.9 464.1 129 509.2Q125.8 513 121.2 515.7Q96.9 529.95 69.7 519.3L56.7 514.25Q24.1 501.6 22.45 466.25Q21.6 447.65 27.5 430.95Q33.15 439.7 30.3 452.4Q27.75 463.65 31.3 474.55Q40.2 501.7 71.8 505.5L92.4 508.05Q108.4 510.05 121.35 500.05Q145.1 481.75 154.7 451.7Q169.55 404.95 165.8 355.45Q161.65 300.85 142.5 249.35Q128.05 210.65 103.05 178.05Q90.4 161.55 74.1 148.2Q32.45 114.1 40.65 61.75Q46.2 26.35 80 19.5Q97.75 18.15 113.65 25.85Q115 26.5 116.5 26.75" />
</g>
</svg>
