<?xml version="1.0" encoding="utf-8"?>
<svg version="1.1" id="Layer_1"
xmlns="http://www.w3.org/2000/svg"
xmlns:xlink="http://www.w3.org/1999/xlink"


xml:space="preserve">
q0 59.8 1.95 119.25q2 59.8 6.7 119.2q4.65 59 3.7 118.5q-0.2 10.75 -3.05 20.25q-2.2 -0.1 -3.25 -2.25q0.1 -58.9 -2.65 -117.7q-2.75 -59.05 -2.1 -118.45q0.05 -2.7 -0.4 -5.25q-6.8 59 -16.45 117.55q-9.75 59.5 -18.95 119.1q-6.4 41.55 -13.35 82.55q-5.35 -8.15 -4.5 -21.55q1.85 -30.1 -0.1 -59.9q-3.9 -59.25 -2.85 -119.25q1.05 -59.8 4.4 -119.25q-9.75 58.1 -17.9 117q-3.4 23.8 -4.1 47.3q-5.45 -11.8 -3 -28.5q8.7 -59.1 16.7 -118.3q8.05 -59.75 17.7 -119.25q3.9 -24.1 8.1 -46.65q4.7 12.95 3.6 29.55q-3.9 59.1 -5.15 118.45q-1.25 59.95 2.75 119.2q1.75 25.9 2.05 52q9.95 -58.6 18.75 -117.45q8.95 -59.65 17.4 -119.35q4.85 -33.85 10.35 -67.4q5.45 3.45 5.45 13.5q-11.45 57.65 -19.55 116q-4.1 29.5 -9.35 58.85q-8.15 45.65 -16.15 91.4q11.65 -5.5 26.85 -3.85q20.15 2.2 38.2 -4.15q-6.4 -58.55 -13.95 -116.85q-7.55 -58.85 -10.95 -118.35q-0.85 -14.8 2.55 -27.85q4.1 59.3 10.8 118.3q6.55 58.7 11.5 117.7q4.85 57.55 6.4 114.75q0.05 0.75 -0.6 1.5q-6.8 -12.4 -6.95 -29.25q-0.55 -59.3 -5.95 -117.85q-2.35 -25.5 -5.05 -50.8q-10.15 58.15 -17.8 116.7q-3.4 26 -9.3 51.1q-5.5 -12.75 -0.95 -28.9q8.05 -28.55 11.15 -58.1q5 -47.7 13.6 -94.8q-1.55 -1.65 -1.15 -4.1q1.9 -1.7 3.9 -3.1q11.6 -58.05 21.95 -116.25q10.35 -58.35 18.3 -117.1q1.9 -13.85 7.6 -24.65q4.15 58.9 3.5 119.25q-0.1 10.1 -0.05 20.25q2 2.35 0.9 5.1q0.3 45.6 2.95 91q2.85 48.55 -1.15 96q-7.1 -12.65 -4.85 -29.5q2 -14.75 1.4 -29.7q-2.25 -59.45 -2.6 -119.25q-23.15 5.2 -45.25 13.15q0.15 42.15 -1.2 83.95q-2.15 1.95 -4.25 -1.25q-2.55 -5.55 1 -10.5q-1.1 -59.5 -0.3 -119.2q0 -1.2 0.65 -2.2q2.3 -1.4 4.65 -2.7q0.25 -49.35 -1.5 -99q-1.3 -37.3 0.85 -72.3q4.3 59.1 4.65 119.25q21.3 -11.35 45.2 -16.7q-0.15 -19.8 1.6 -36.75q7 4.45 12.4 11.3q6.25 8 3.6 16.95q-21.65 -37.4 -64.95 -35.3q-22.15 1.1 -26.5 22q-1.55 7.55 -2.8 15.05q-3.35 39.15 16.1 73q21.1 36.7 38.65 74.95q25.1 54.75 52.35 108.6q18.95 37.5 28.05 78.4q9 40.45 0.35 80.9q-10.05 47 -57 54.9q-63.45 10.75 -100.85 -38.85q-6.7 -8.9 -10.65 -19.45q-11.7 -31.35 -14.95 -64.2q-1.95 -19.8 4.7 -37.55q5.7 6.85 1.05 18.65q-1.55 3.85 -1.4 8.35q1.2 34.6 13.8 67.15q18.25 47.2 68.75 56.35q41.1 7.4 73.15 -16.2q10.2 -7.55 14.9 -19.25q15.45 -38.35 6.7 -79.6q-11.8 -55.65 -38.9 -105.95q-30.2 -56.1 -57.8 -113.5q-9.05 -18.85 -19.95 -36.75q-20.1 -32.95 -22 -71.15q-1.35 -27.75 10.8 -51.85q5.95 -11.85 19.6 -14.65q3.9 -0.75 6.8 -2.05q26.95 -0.05 45.4 19.05<g id="2244" transform="matrix(1, 0, 0, 1, -12.85, 0)">
<path style="fill:#000000;fill-opacity:1" d="M513.15,128Q513.15 187.8 515.1 247.25Q517.1 307.05 521.8 366.45Q526.45 425.45 525.5 484.95Q525.3 495.7 522.45 505.2Q520.25 505.1 519.2 502.95Q519.3 444.05 516.55 385.25L510.95 265.95Q508.2 206.9 508.85 147.5Q508.9 144.8 508.45 142.25Q501.65 201.25 492 259.8Q482.25 319.3 473.05 378.9Q466.65 420.45 459.7 461.45Q454.35 453.3 455.2 439.9Q457.05 409.8 455.1 380Q451.2 320.75 452.25 260.75Q453.3 200.95 456.65 141.5L457.2 128.75Q447.45 186.85 439.3 245.75L422.55 364.9Q419.15 388.7 418.45 412.2Q413 400.4 415.45 383.7Q424.15 324.6 432.15 265.4Q440.2 205.65 449.85 146.15Q453.75 122.05 457.95 99.5Q462.65 112.45 461.55 129.05Q457.65 188.15 456.4 247.5Q455.15 307.45 459.15 366.7Q460.9 392.6 461.2 418.7Q471.15 360.1 479.95 301.25Q488.9 241.6 497.35 181.9Q502.2 148.05 507.7 114.5Q513.15 117.95 513.15 128M360.7,45.75L360.95 46.5Q349.5 104.15 341.4 162.5Q337.3 192 332.05 221.35Q323.9 267 315.9 312.75Q327.55 307.25 342.75 308.9Q362.9 311.1 380.95 304.75L385.55 305.05Q379.15 246.5 371.6 188.2Q364.05 129.35 360.65 69.85Q359.8 55.05 363.2 42Q367.3 101.3 374 160.3L387.15 277.5Q393.7 336.2 398.65 395.2Q403.5 452.75 405.05 509.95Q405.1 510.7 404.45 511.45Q397.65 499.05 397.5 482.2Q396.95 422.9 391.55 364.35Q389.2 338.85 386.5 313.55L314.5 320.7L311.55 337.65Q301.4 395.8 293.75 454.35Q290.35 480.35 284.45 505.45Q278.95 492.7 283.5 476.55Q291.55 448 294.65 418.45Q299.65 370.75 308.25 323.65L307.7 323.75L306.85 323.6Q305.3 321.95 305.7 319.5Q307.6 317.8 309.6 316.4L312.35 302.25Q323.95 244.2 334.3 186Q344.65 127.65 352.6 68.9Q354.5 55.05 360.2 44.25L360.7 45.75M274.2,96.75Q278.35 155.65 277.7 216Q277.6 226.1 277.65 236.25L280.2 236.5L281.45 237L282.55 237.9Q284.55 240.25 283.45 243L277.65 244.2Q277.95 289.8 280.6 335.2Q283.45 383.75 279.45 431.2Q272.35 418.55 274.6 401.7Q276.6 386.95 276 372Q273.75 312.55 273.4 252.75L273.4 245.15Q250.25 250.35 228.15 258.3L228.4 322.5Q228.55 364.65 227.2 406.45Q225.05 408.4 222.95 405.2Q220.4 399.65 223.95 394.7Q222.85 335.2 223.65 275.5L223.85 259.9L218.1 262.1L217.95 261.75L217.95 261Q217.95 259.8 218.6 258.8L219.2 258Q221.5 256.6 223.85 255.3Q224.1 205.95 222.35 156.3Q221.05 119 223.2 84Q227.5 143.1 227.85 203.25L228.15 252.95Q249.45 241.6 273.35 236.25L272.6 133.5Q272.45 113.7 274.2 96.75M141,44.75Q148 49.2 153.4 56.05Q159.65 64.05 157 73Q135.35 35.6 92.05 37.7Q69.9 38.8 65.55 59.7Q64 67.25 62.75 74.75Q59.4 113.9 78.85 147.75Q99.95 184.45 117.5 222.7Q142.6 277.45 169.85 331.3Q188.8 368.8 197.9 409.7Q206.9 450.15 198.25 490.6Q188.2 537.6 141.25 545.5Q77.8 556.25 40.4 506.65Q33.7 497.75 29.75 487.2Q18.05 455.85 14.8 423Q12.85 403.2 19.5 385.45Q25.2 392.3 20.55 404.1Q19 407.95 19.15 412.45Q20.35 447.05 32.95 479.6Q51.2 526.8 101.7 535.95Q142.8 543.35 174.85 519.75Q185.05 512.2 189.75 500.5Q205.2 462.15 196.45 420.9Q184.65 365.25 157.55 314.95Q127.35 258.85 99.75 201.45Q90.7 182.6 79.8 164.7Q59.7 131.75 57.8 93.55Q56.45 65.8 68.6 41.7Q74.55 29.85 88.2 27.05Q92.1 26.3 95 25Q121.95 24.95 140.4 44.05L141 44.75" />
</g>
</svg>
