<?xml version="1.0" encoding="utf-8"?>
<svg version="1.1" id="Layer_1"
xmlns="http://www.w3.org/2000/svg"
xmlns:xlink="http://www.w3.org/1999/xlink"


xml:space="preserve">
q3.55 58.7 5.2 117.75q1.15 49 -0.7 96.75q-5.5 -11.8 -4.95 -29q1.75 -59.7 0.25 -119.25q-1.5 -58.45 -3.85 -116.95q-2.4 -59 -5.9 -117.8q-8.95 58.8 -17 118.3q-7.95 58.85 -15.45 117.85q-7.45 58.9 -13.7 117.95q-1.65 15.35 -6.6 29.1q-5.45 -12.55 -5.2 -29.5q0.95 -60.1 -6.2 -119.3q-6.8 -58.15 -5.05 -117.7q0.3 -10.2 -0.15 -20.25q-16 58.95 -26 119.05q-9.75 58.6 -16.3 117.7q-6.5 59 -14.7 117.7q-3.05 22.1 -8.75 42.75q-1.85 0.8 -2.25 -1.25q10.3 -58.95 16.7 -119.15q6.3 -58.95 13.35 -117.8q7.1 -59.65 21.95 -117.95q9.65 -37.8 19 -73.05q2.35 59.2 3.9 119.25q1.2 44.55 6.95 88.55q7.7 58.65 13.6 117.65q3.8 38.05 3.55 76.75q7.55 -58.95 15.7 -117.75q8.15 -58.85 15.45 -117.75q2.55 -20.35 6.8 -40.15q0.1 -0.6 1.1 -0.95q2.15 59.45 0.95 119.25q-0.5 25.6 -0.6 51.25q27.25 -5.65 55.35 -8q1.3 -59.6 0.65 -119.25q-0.1 -12.65 2.35 -22.5q4.65 58.6 2.55 118.5q-0.6 17.85 -0.85 35.8q1.6 1.9 1.8 4.5q0.3 3.2 -1.3 6q-1.2 0 -2 -1q-0.3 36.35 1 72.8q1.85 54.45 1.05 108.8q-0.05 2.05 -1.4 3.75q-3.95 -12.55 -3.9 -29.25q0.1 -29.9 -0.8 -60q-1.5 -47.7 -0.95 -95.55q-28.1 2.85 -55.25 3.75q-0.1 30.65 0.3 61.35q0.7 54.2 -3.45 107.25q-0.3 4.45 -3.4 7.2q-2.15 -21.15 0 -44.9q1.35 -14.85 1.25 -29.85q-0.5 -59.7 0.5 -119.2q1.05 -59.7 1.55 -119.25q0.15 -20.95 2.95 -39.75q15.8 -2.15 30.55 2.55q9.8 6.7 12.65 18.2q-8.25 -17.85 -28.35 -21.25q-22.75 -3.8 -39.1 7.9q-11.8 8.5 -13.9 23.9q-3.55 26.05 4.65 50.75q5.15 15.35 14.95 28.4q17.85 23.75 29.55 51.2q22.9 53.65 37.55 109.55q12.95 49.55 14.4 100.75q1.65 59.3 -49.85 86.7q-6.8 3.65 -14.2 2.05q-41.75 -9.1 -65.45 -42.05q-5.7 -7.95 -7.25 -17.7q-4.3 -27.45 2 -54q1 0.35 1.75 1.2q-5.8 28.4 3.2 55.7q5.7 17.25 22.1 26.8q28.95 16.85 60.95 12.6q5.75 -0.75 10.4 -4.95q34.6 -31.5 29.65 -79.3q-5.85 -55.95 -22.15 -109.9q-18.15 -59.95 -46.35 -115.95q-8.55 -17.05 -19.3 -33.05q-11.75 -17.6 -13 -38.9q-1.85 -32.65 13.7 -59.9q4.6 -8 13.95 -9.9q-0.75 54.8 -4.55 108.75q-0.05 0.75 -0.7 1.5q-4.9 -8.1 -4.1 -21.6q3.7 -59.45 5 -119.1q1.35 -59.7 3 -119.25q3.9 57.65 1.85 118.25q-2 59.6 -2.85 119.2<g id="2262" transform="matrix(1, 0, 0, 1, -22.7, 0)">
<path style="fill:#000000;fill-opacity:1" d="M488.45,78L495.7 197.25Q499.25 255.95 500.9 315L503.95 432.7Q505.1 481.7 503.25 529.45L502.7 530.95Q497.2 519.15 497.75 501.95Q499.5 442.25 498 382.7Q496.5 324.25 494.15 265.75Q491.75 206.75 488.25 147.95L486.7 124Q477.75 182.8 469.7 242.3Q461.75 301.15 454.25 360.15Q446.8 419.05 440.55 478.1Q438.9 493.45 433.95 507.2Q428.5 494.65 428.75 477.7Q429.7 417.6 422.55 358.4L408.65 241.45Q401.85 183.3 403.6 123.75Q403.9 113.55 403.45 103.5Q387.45 162.45 377.45 222.55Q367.7 281.15 361.15 340.25Q354.65 399.25 346.45 457.95Q343.4 480.05 337.7 500.7Q335.85 501.5 335.45 499.45Q345.75 440.5 352.15 380.3Q358.45 321.35 365.5 262.5Q372.6 202.85 387.45 144.55Q397.1 106.75 406.45 71.5Q408.8 130.7 410.35 190.75Q411.55 235.3 417.3 279.3Q425 337.95 430.9 396.95Q434.7 435 434.45 473.7L449.4 354.6Q456.95 295.65 465.1 236.85Q473.25 178 480.55 119.1Q483.1 98.75 487.35 78.95Q487.45 78.35 488.45 78M198.25,112.75Q200.4 172.2 199.2 232Q198.7 257.6 198.6 283.25Q225.85 277.6 253.95 275.25L254.2 262.5Q255.5 202.9 254.85 143.25Q254.75 130.6 257.2 120.75Q261.85 179.35 259.75 239.25Q259.15 257.1 258.9 275.05L263.45 275.2L264.45 275.5Q266.05 277.4 266.25 280Q266.55 283.2 264.95 286L263.95 286.25Q262.75 286.25 261.95 285.25L258.8 285.6Q258.5 321.95 259.8 358.4Q261.65 412.85 260.85 467.2Q260.8 469.25 259.45 470.95Q255.5 458.4 255.55 441.7Q255.65 411.8 254.75 381.7Q253.25 334 253.8 286.15Q225.7 289 198.55 289.9Q198.45 320.55 198.85 351.25Q199.55 405.45 195.4 458.5Q195.1 462.95 192 465.7Q189.85 444.55 192 420.8Q193.35 405.95 193.25 390.95Q192.75 331.25 193.75 271.75Q194.8 212.05 195.3 152.5Q195.45 131.55 198.25 112.75M93,53.5Q108.8 51.35 123.55 56.05L126.25 56.75L132.6 61.05Q142.4 67.75 145.25 79.25L145.2 80L144.9 81.5L144.4 82.95L144 83.5Q135.75 65.65 115.65 62.25Q92.9 58.45 76.55 70.15Q64.75 78.65 62.65 94.05Q59.1 120.1 67.3 144.8Q72.45 160.15 82.25 173.2Q100.1 196.95 111.8 224.4Q134.7 278.05 149.35 333.95Q162.3 383.5 163.75 434.7Q165.4 494 113.9 521.4Q107.1 525.05 99.7 523.45Q57.95 514.35 34.25 481.4Q28.55 473.45 27 463.7Q22.7 436.25 29 409.7L30.35 409.85Q31.35 410.2 32.1 411.05L32.5 411.7Q26.7 440.1 35.7 467.4Q41.4 484.65 57.8 494.2Q86.75 511.05 118.75 506.8Q124.5 506.05 129.15 501.85Q163.75 470.35 158.8 422.55Q152.95 366.6 136.65 312.65Q118.5 252.7 90.3 196.7Q81.75 179.65 71 163.65Q59.25 146.05 58 124.75Q56.15 92.1 71.7 64.85Q76.3 56.85 85.65 54.95L93 53.5M313.95,354.7Q313.2 409.5 309.4 463.45Q309.35 464.2 308.7 464.95Q303.8 456.85 304.6 443.35Q308.3 383.9 309.6 324.25Q310.95 264.55 312.6 205L314.95 117.25Q318.85 174.9 316.8 235.5Q314.8 295.1 313.95 354.7" />
</g>
</svg>
