<?xml version="1.0" encoding="utf-8"?>
<svg version="1.1" id="Layer_1"
xmlns="http://www.w3.org/2000/svg"
xmlns:xlink="http://www.w3.org/1999/xlink"


xml:space="preserve">
q-1.7 -3.7 -4.1 -3.7q-2.4 0 -4.1 3.7q-1.7 3.7 -1.7 8.95q0 5.25 1.7 8.95q1.7 3.7 4.1 3.7q2.4 0 4.1 -3.7q1.7 -3.7 1.7 -8.95q0 -5.25 -1.7 -8.95q-5.5 24.35 3.15 46.05q17.3 -9.1 18.25 -27.5q-9.45 10.5 -23.25 13.5q3.5 -42.05 2.7 -83.25q-4.85 17.9 -5.35 38.5q-0.15 6.75 -1.55 13.2q-17.5 20.6 -6.25 48.85q1.65 4.05 3.95 7.35q18.35 25.6 29.55 54.3q13.2 33.8 -11.45 57.65q-30.7 1.3 -47.1 -26.35q-3.2 -5.45 -2.45 -11.4q2.6 -21.85 4.1 -43q-4 2.35 -6.05 7.05q-13.1 30 1.05 57.2q12.15 23.5 37.25 30.45q16.3 4.5 23.8 -11.35q18.9 -40 -1.1 -81.05q-1.6 -3.3 -3.8 -5.8q-27.4 -30.5 -26.15 -69.2q16.1 -18.1 30.2 0.75q1.15 -20.95 -20.5 -23.7q-5.3 1.15 -8.85 5.3q-0.2 59.4 -3.75 118.4q-0.9 15 -3.3 29.75q-2.8 17.25 3.1 29.3q4 -16.4 5.15 -33.65q10.3 -3.35 21.1 -2.4q-1.2 24.75 -3.25 49.45q-1.95 23.2 0.75 44.4q1.75 -0.15 2 -1.85q4.5 -33.9 6.1 -68.85q2.8 -59.75 2.9 -118.5q-0.75 0.1 -0.75 0.35q-5.35 40.45 -7.2 81.75q-11.85 -1.8 -21.25 3.35q0.9 -42.65 -2 -85.1q-2.55 3.2 -2.55 8.5<g id="2259" transform="matrix(1, 0, 0, 1, -138.35, 0)">
<path style="fill:#000000;fill-opacity:1" d="M349,242.85Q349 248.1 347.3 251.8Q345.6 255.5 343.2 255.5Q340.8 255.5 339.1 251.8Q337.4 248.1 337.4 242.85Q337.4 237.6 339.1 233.9Q340.8 230.2 343.2 230.2Q345.6 230.2 347.3 233.9Q349 237.6 349 242.85M337.85,309.7Q338.35 289.1 343.2 271.2Q344 312.4 340.5 354.45L340.45 355.2Q354.25 352.2 363.7 341.7Q362.75 360.1 345.45 369.2L339.45 368.95Q330.8 347.25 336.3 322.9Q337.7 316.45 337.85 309.7M196,180.75Q217.65 183.5 216.5 204.45L216.2 205.25L215.35 204.4L214.35 203.1L212.7 201.5Q198.6 182.65 182.5 200.75Q181.25 239.45 208.65 269.95Q210.85 272.45 212.45 275.75Q232.45 316.8 213.55 356.8Q206.05 372.65 189.75 368.15Q164.65 361.2 152.5 337.7Q138.35 310.5 151.45 280.5Q153.5 275.8 157.5 273.45Q156 294.6 153.4 316.45Q152.65 322.4 155.85 327.85Q172.25 355.5 202.95 354.2Q227.6 330.35 214.4 296.55Q203.2 267.85 184.85 242.25Q182.55 238.95 180.9 234.9Q169.65 206.65 187.15 186.05Q190.7 181.9 196 180.75M239.2,181.75Q242.1 224.2 241.2 266.85Q250.6 261.7 262.45 263.5L262.5 263.6Q264.35 222.3 269.7 181.85Q269.7 181.6 270.45 181.5Q270.35 240.25 267.55 300Q265.95 334.95 261.45 368.85Q261.2 370.55 259.45 370.7Q256.75 349.5 258.7 326.3Q260.75 301.6 261.95 276.85Q251.15 275.9 240.85 279.25L239.9 300.3L237.85 334.05Q236.7 351.3 232.7 367.7Q226.8 355.65 229.6 338.4Q232 323.65 232.9 308.65Q236.45 249.65 236.65 190.25Q236.65 184.95 239.2 181.75" />
</g>
</svg>
