<?xml version="1.0" encoding="utf-8"?>
<svg version="1.1" id="Layer_1"
xmlns="http://www.w3.org/2000/svg"
xmlns:xlink="http://www.w3.org/1999/xlink"


xml:space="preserve">
q-28.35 38.3 -36.55 87.15q-7.65 45.5 -9.3 91.6q-0.15 3.8 0.2 7.6q0.35 3.7 1.1 7.3q0.7 3.5 1.75 6.95q2.6 8.45 7.7 15.7q4.3 6 9.6 10.9q21.15 -7.6 30.25 -28.95q3.15 -7.4 2.85 -14.9q-8.1 20.25 -28.5 27.7q-13.6 -10.9 -15.8 -29.45q-1.2 -10 -0.2 -19.95q1.5 -12.35 3.35 -24.65q19.4 2.35 40.55 1.35q2 -4.65 -0.85 -8.9q-19.95 -3.2 -39.15 1.8q9.1 -50.35 33.7 -95.15q-14.65 58.7 -25.65 118.05q-10.75 58.05 -22.2 115.5q-1.05 -13.9 -2.8 -27.65q-7.45 -58.6 -11.2 -117.8q-3.8 -59.3 -17.25 -116.3q-3.4 10 -0.8 22.8q7.4 36.35 11.15 73.3q5.8 58.15 9.75 116.35q0.65 1.65 2.25 2q6.3 -12.4 9 -27.35q10.6 -59 22.05 -117.8q11.5 -58.9 26.25 -117.1q2.6 -10.25 -3.55 -13.45q-2.35 8.05 -4.4 16.2q-23.8 3.3 -34.95 25.4q-21.2 42 -26 89.15q-6 58.9 -6.95 118.7q-0.25 15.1 -0.2 30q0.05 32.55 20.15 56.5q2.7 3.25 6.6 4.35q27.85 8.1 52.35 -10.4q18.7 -14.1 17.25 -34q-13.8 18 -34.4 28.95q-13.35 7.1 -28.1 4.8q-14.95 -2.25 -19.2 -16.6q-14.85 -50.25 -10.15 -103.25q27.35 -8.3 57.5 -7.25q2.15 -5.35 -1.2 -9.7q-27.05 -3.35 -47.7 11q4.45 -41.6 11.05 -82.75q6.55 -40.8 37.95 -65.85q15.15 -3.7 30 -1.25q5 4.85 8.85 10.25q-0.95 -7.55 -5.75 -13.3q-7.6 -2.45 -16.05 -1.15q-5.65 39.35 -8.35 79.5q-4 58.9 -8.75 117.8q-4.85 59.55 -10.95 117.75q3.85 -5.7 0.5 -12q-2.1 -1.15 -4.75 -1.15q-30.3 -0.4 -57.25 -6.35q5.15 -34.55 7.8 -69.7q4.35 -58.75 9.1 -117.7q4.8 -59.5 8.1 -117.8q-2.1 0.65 -2.45 3.15q-6.85 58.65 -12 117.75q-20.15 2.6 -39.8 2.75q1.8 -23.25 3.9 -46.45q5.3 -59.15 4.05 -117.8q-3.15 28.45 -5.25 59.2q-0.15 1.15 0.05 2.25q-3.75 59.45 -11.95 118.15q-2.35 16.8 2.25 29.5q6.8 -43.85 9.65 -89.25q2.1 -33.1 4.7 -66.15q18.45 5.8 39.05 3.3q-3.35 31.8 -7.3 63.5q-5.5 44.5 -5.35 88.6q1.05 2.2 3.25 2.25q3.75 -45.9 8.25 -93.05q2.95 -31 6.05 -62q2.2 -4.4 0.15 -8.9q-0.55 -0.45 -1.2 -0.8q6.15 -59.65 8.8 -117.75q-1.9 0.05 -2.15 2.2q12.2 12.85 17.9 27.15q-0.45 -42.85 -43.45 -44.75q-32 15.15 -26.95 51.65q2.25 16.3 10.25 30.6q23.15 41.6 49.85 80.95q23.8 35.05 37.4 74.7q17.5 50.95 -26.35 83.1q-9.9 7.3 -21.55 10.05q-48.3 11.6 -74.4 -27.85q-0.05 -1.15 0.45 -2.25q3.45 -7.25 6.2 -14.45q0.75 -2 -0.65 -3.55q-10.5 5.95 -9.4 18.4q2.9 32 37.4 42q45.7 13.3 77.6 -22.75q4.9 -5.55 8.15 -12q27.15 -53.95 -3.4 -108.75q-29.4 -52.7 -66 -100.5q-21.7 -28.4 -18.15 -62.95q2.8 -27.2 31.75 -24.5q8 0.75 13.35 6.45<g id="2281" transform="matrix(1, 0, 0, 1, -38.75, 0)">
<path style="fill:#000000;fill-opacity:1" d="M533.95,146.2L532.35 150.05L529.9 144.7L525.7 144.5Q501.1 189.3 492 239.65L493.95 237.5Q513.15 232.5 533.1 235.7L533.6 236.1Q536.45 240.35 534.45 245L531.95 247Q510.8 248 491.4 245.65L490.6 249.3Q488.75 261.6 487.25 273.95L484.45 298.8Q483.45 308.75 484.65 318.75Q486.85 337.3 500.45 348.2Q520.85 340.75 528.95 320.5L533.55 317.35Q533.85 324.85 530.7 332.25Q521.6 353.6 500.45 361.2Q495.15 356.3 490.85 350.3Q485.75 343.05 483.15 334.6Q482.1 331.15 481.4 327.65Q480.65 324.05 480.3 320.35Q479.95 316.55 480.1 312.75Q481.75 266.65 489.4 221.15Q497.6 172.3 525.95 134L530.2 134.25L533.95 146.2M506.7,89.75Q512.85 92.95 510.25 103.2Q495.5 161.4 484 220.3Q472.55 279.1 461.95 338.1Q459.25 353.05 452.95 365.45Q451.35 365.1 450.7 363.45Q446.75 305.25 440.95 247.1L433.55 173.85Q429.8 136.9 422.4 100.55Q419.8 87.75 423.2 77.75Q436.65 134.75 440.45 194.05Q444.2 253.25 451.65 311.85Q453.4 325.6 454.45 339.5Q465.9 282.05 476.65 224Q487.65 164.65 502.3 105.95Q504.35 97.8 506.7 89.75M347,78.4L349.2 79L354.2 84.45Q359 90.2 359.95 97.75L359.9 98.5L359.7 99.25L359.5 100L359.45 100.75L358.8 100.5Q354.95 95.1 349.95 90.25L349.45 89.75Q334.6 87.3 319.45 91Q288.05 116.05 281.5 156.85Q274.9 198 270.45 239.6Q291.1 225.25 318.15 228.6L327.2 229.25Q330.55 233.6 328.4 238.95L327.95 239.75Q297.8 238.7 270.45 247L269.75 245.9L267.35 270.85Q262.65 323.85 277.5 374.1Q281.75 388.45 296.7 390.7Q311.45 393 324.8 385.9Q345.4 374.95 359.2 356.95Q360.65 376.85 341.95 390.95Q317.45 409.45 289.6 401.35Q285.7 400.25 283 397Q262.9 373.05 262.85 340.5Q262.8 325.6 263.05 310.5Q264 250.7 270 191.8Q274.8 144.65 296 102.65Q307.15 80.55 330.95 77.25Q339.4 75.95 347 78.4M400.2,80.5Q396.9 138.8 392.1 198.3Q387.35 257.25 383 316Q380.35 351.15 375.2 385.7Q402.15 391.65 432.45 392.05Q435.1 392.05 437.2 393.2Q440.55 399.5 436.7 405.2L369.7 398.7Q375.8 340.5 380.65 280.95Q385.4 222.05 389.4 163.15Q392.1 123 397.75 83.65Q398.1 81.15 400.2 80.5M256.2,73.75Q253.55 131.85 247.4 191.5L242.95 235.35L245.2 235Q245.85 235.35 246.4 235.8L247.2 236.5Q249.25 241 247.05 245.4L246.45 246.25L241.75 247.15Q238.65 278.15 235.7 309.15Q231.2 356.3 227.45 402.2Q225.25 402.15 224.2 399.95Q224.05 355.85 229.55 311.35Q233.5 279.65 236.85 247.85Q216.25 250.35 197.8 244.55Q195.2 277.6 193.1 310.7Q190.25 356.1 183.45 399.95Q178.85 387.25 181.2 370.45Q189.4 311.75 193.15 252.3L193.8 242.5Q193.6 241.4 193.75 240.25L193.95 238.75L194.05 238.75L200.95 133.7Q203.05 102.95 206.2 74.5Q207.45 133.15 202.15 192.3Q200.05 215.5 198.25 238.75Q217.9 238.6 238.05 236L242.05 193.7Q247.2 134.6 254.05 75.95Q254.3 73.8 256.2 73.75M107.2,77.4Q78.25 74.7 75.45 101.9Q71.9 136.45 93.6 164.85Q130.2 212.65 159.6 265.35Q190.15 320.15 163 374.1Q159.75 380.55 154.85 386.1Q122.95 422.15 77.25 408.85Q42.75 398.85 39.85 366.85Q38.75 354.4 49.25 348.45Q50.65 350 49.9 352Q47.15 359.2 43.7 366.45Q43.2 367.55 43.25 368.7Q69.35 408.15 117.65 396.55Q129.3 393.8 139.2 386.5Q183.05 354.35 165.55 303.4Q151.95 263.75 128.15 228.7Q101.45 189.35 78.3 147.75Q70.3 133.45 68.05 117.15Q63 80.65 95 65.5Q138 67.4 138.45 110.25L138.45 111Q132.75 96.7 120.55 83.85Q115.2 78.15 107.2 77.4" />
</g>
</svg>
