<?xml version="1.0" encoding="utf-8"?>
<svg version="1.1" id="Layer_1"
xmlns="http://www.w3.org/2000/svg"
xmlns:xlink="http://www.w3.org/1999/xlink"


xml:space="preserve">
q-5.5 19 -5.55 38.95q-0.05 20.85 -2.6 41.85q-1.3 10.65 1.15 21q1 4.15 3.1 5.65q-3.65 21.75 -2.75 43.55q0.3 7.6 2.75 14.1q5.5 -22.3 7.3 -45.3q2.35 -29.5 -0.7 -58.9q-4.95 10.65 -5.75 22.25q-16.25 0.4 -31.6 8.15q6.05 -36.2 37.6 -29.15q-9.25 -26.6 -28.55 -1.6q-13.2 17.15 -16.95 38.55q-3.8 21.8 7.05 40.95q2.55 4.45 6.05 8.6q36.7 -3.4 31.2 -33.3q-11.9 15.6 -30.45 18.8q-8.8 -15.15 -7.3 -33q17.25 -0.45 34 -8.45q14.4 6.8 19.6 21.3q2 -28.05 -25.75 -33.7q-22.75 20.7 -10.55 51.55q9.45 23.7 19.45 47.7q11.2 26.7 5.2 54.75q-4.15 19.35 -24.9 16.4q-25.75 -3.65 -26.6 -31.95q-0.4 -13 -5.1 -22.5q-7.8 31.75 9.45 60.65q4.6 7.8 13.1 9.45q37.15 7.35 41.7 -29.65q6.55 -53.45 -23.75 -97.35q-17.4 -25.2 1.75 -46.55q3.2 -0.65 6.1 0.7q-3.85 31.4 -4 63.8q0.3 1.7 2 2q1.55 -0.35 1.7 -2q3.15 -32.7 3.25 -66q12.15 0.7 24.15 2.4q0.8 30.3 -3.45 59.8q-2.5 17.65 3.95 29.2q6.3 -37.4 6.25 -76.5q1.15 -1.75 1.3 -4q0.15 -1.95 -0.45 -3.8q0.25 -45.8 1.4 -90.4q-0.75 0.1 -0.75 0.35q-7.35 42.95 -7.65 87.4q-3.35 -0.95 -6.5 0q-2.9 0.8 -5.5 2.2q-0.1 -43.15 -0.75 -85.45q-1.8 0.1 -2.05 2.2<g id="2277" transform="matrix(1, 0, 0, 1, -137.7, 0)">
<path style="fill:#000000;fill-opacity:1" d="M388.45,268.25Q391.5 297.65 389.15 327.15Q387.35 350.15 381.85 372.45Q379.4 365.95 379.1 358.35Q378.2 336.55 381.85 314.8L365.9 319.05L360.55 375.95Q358.45 374.45 357.45 370.3Q355 359.95 356.3 349.3Q358.85 328.3 358.9 307.45Q358.95 287.5 364.45 268.5L366.1 305.5L382.2 298.9L382.7 290.5Q383.5 278.9 388.45 268.25M339.9,318Q323.15 326 305.9 326.45Q304.4 344.3 313.2 359.45Q331.75 356.25 343.65 340.65Q349.15 370.55 312.45 373.95Q308.95 369.8 306.4 365.35Q295.55 346.2 299.35 324.4Q303.1 303 316.3 285.85Q335.6 260.85 344.85 287.45Q313.3 280.4 307.25 316.6Q322.6 308.85 338.85 308.45L339.9 318M187.75,191.5Q168.6 212.85 186 238.05Q216.3 281.95 209.75 335.4Q205.2 372.4 168.05 365.05Q159.55 363.4 154.95 355.6Q137.7 326.7 145.5 294.95Q150.2 304.45 150.6 317.45Q151.45 345.75 177.2 349.4Q197.95 352.35 202.1 333Q208.1 304.95 196.9 278.25Q186.9 254.25 177.45 230.55Q165.25 199.7 188 179Q215.75 184.65 213.75 212.7L213.45 213.5Q208.25 199 193.85 192.2Q190.95 190.85 187.75 191.5M235.2,182.25Q235.85 224.55 235.95 267.7Q238.55 266.3 241.45 265.5Q244.6 264.55 247.95 265.5L260.05 267.5Q260.35 223.05 267.7 180.1Q267.7 179.85 268.45 179.75Q267.3 224.35 267.05 270.15L267.85 271.95Q268.45 273.8 268.3 275.75Q268.15 278 267 279.75L266.95 298.2Q267 337.3 260.7 374.7Q254.25 363.15 256.75 345.5Q261 316 260.2 285.7L260.1 280.65Q248.1 278.95 235.95 278.25L235.9 300.7Q235.8 334 232.65 366.7Q232.5 368.35 230.95 368.7Q229.25 368.4 228.95 366.7L229.15 248.25Q229.3 215.85 233.15 184.45Q233.4 182.35 235.2 182.25" />
</g>
</svg>
