<?xml version="1.0" encoding="utf-8"?>
<svg version="1.1" id="Layer_1"
xmlns="http://www.w3.org/2000/svg"
xmlns:xlink="http://www.w3.org/1999/xlink"


xml:space="preserve">
q-5.1 10.6 -6.65 23.85q-6.8 58.5 -14.6 117.1q-1.45 10.9 -4.6 21.3q-4.9 16.15 0.35 29.45q2.05 -0.55 2.55 -2.65q8.9 -36.05 13.15 -73.45q4.5 -39.05 7.65 -77.6q2.25 13.3 2.4 26.7q0.2 12.3 4.2 22.1q0.8 5.7 3.7 10.65q12.1 -46.15 21.35 -93.9q1.2 20.65 2.7 41.25q4.3 59.45 10.2 117.6q1.9 0.35 2.05 -1.55q2.3 -33.95 -0.05 -68.25q-4.1 -59.45 -12.75 -117.6q-0.75 0.1 -0.85 0.45q-8.5 28.95 -13.45 59.1q-2.9 17.35 -8.05 34.15q-7.1 -49.75 -14.7 -98.95q-16.75 10.95 -13.3 34.05q3.2 21.2 15.5 38.8q11.45 16.4 18.5 35.1q7 18.6 2.15 37.35q-6.45 24.8 -29.1 22.15q-23.7 -2.3 -25.55 -24.65q-1.95 -23.45 0.05 -47.1q-16.45 26.1 -8.7 57.3q2.95 12 10.9 21.7q6.5 7.85 15.85 11.1q15.05 5.3 26.2 -6.95q19.25 -21.25 14.9 -49.15q-7 -45.25 -30.7 -85.45q-7.45 -12.55 -2.7 -25.75q2 -5.55 7.95 -5.45q6.55 0.1 12.75 2.05q4.3 -13.85 -8.9 -24.4q-3.9 -3.15 -8.6 -3.55q0.45 -46.25 -1.35 -91.7q-5.95 19.25 -5.75 42.75q0.45 44.2 -2.6 88.35q-2.05 30.15 -0.4 59.35q7.45 -34.75 8.3 -71.75q8.9 2.1 17.9 0.5q-1.65 44.65 -4.1 88.45q1.6 2 3.75 0.75q5.85 -35.05 7.5 -71.2q2.8 -60.05 1.5 -118.5q-6.6 33.8 -7.65 70.5q-14.2 8.65 -18.35 25.5q-5.4 21.7 -1.3 43.6q3.1 16.8 14.25 29.55q25.2 0.75 38.05 -21.3q5.75 -9.8 1.95 -20.7q-12.05 19.4 -34.45 25q-8.15 -13.45 -9.45 -29.15q4.35 -6.25 0.9 -12.85q3 -18.3 16.65 -31.1q14.45 -2.6 26.05 2.75q-3.7 -25.95 -28.15 -10.9<g id="2280" transform="matrix(1, 0, 0, 1, -133.8, 0)">
<path style="fill:#000000;fill-opacity:1" d="M357.9,182.7Q365.5 231.9 372.6 281.65Q377.75 264.85 380.65 247.5Q385.6 217.35 394.1 188.4L395.05 185.3L396.6 180.2Q396.7 179.85 397.45 179.75L397.45 183.25L397.45 183.3Q406.1 241.45 410.2 300.9Q412.55 335.2 410.25 369.15Q410.1 371.05 408.2 370.7Q402.3 312.55 398 253.1Q396.5 232.5 395.3 211.85L393.3 223.55Q384.05 271.3 371.95 317.45Q369.05 312.5 368.25 306.8Q364.25 297 364.05 284.7Q363.9 271.3 361.65 258L355.3 217.75Q352.15 256.3 347.65 295.35Q343.4 332.75 334.5 368.8Q334 370.9 331.95 371.45Q326.7 358.15 331.6 342Q334.75 331.6 336.2 320.7Q344 262.1 350.8 203.6Q352.35 190.35 357.45 179.75L358.2 178.25L357.9 182.7M190.45,181.8Q195.15 182.2 199.05 185.35Q212.25 195.9 207.95 209.75L196.7 196.1Q190.5 194.15 183.95 194.05Q178 193.95 176 199.5Q171.25 212.7 178.7 225.25Q202.4 265.45 209.4 310.7Q213.75 338.6 194.5 359.85Q183.35 372.1 168.3 366.8Q158.95 363.55 152.45 355.7Q144.5 346 141.55 334Q133.8 302.8 150.25 276.7Q148.25 300.35 150.2 323.8Q152.05 346.15 175.75 348.45Q198.4 351.1 204.85 326.3Q209.7 307.55 202.7 288.95Q195.65 270.25 184.2 253.85Q171.9 236.25 168.7 215.05Q165.25 191.95 182 181L190.45 181.8M248.05,268.1L248.55 252Q249.6 215.3 256.2 181.5Q257.5 239.95 254.7 300Q253.05 336.15 247.2 371.2Q245.05 372.45 243.45 370.45Q245.9 326.65 247.55 282Q238.55 283.6 229.65 281.5L229.35 296.95Q228.5 333.95 221.05 368.7L219.7 368.95Q218.05 339.75 220.1 309.6Q223.15 265.45 222.7 221.25Q222.5 197.75 228.45 178.5Q230.25 223.95 229.8 270.2L245.95 268L248.05 268.1M312,282.7Q300.4 277.35 285.95 279.95Q272.3 292.75 269.3 311.05L307.45 302.7L308.5 304.5Q311.95 311.1 307.6 317.35L269 325.3Q270.3 341 278.45 354.45L284 353.45Q306.4 347.85 318.45 328.45Q322.25 339.35 316.5 349.15Q303.65 371.2 278.45 370.45Q267.3 357.7 264.2 340.9Q260.1 319 265.5 297.3Q269.65 280.45 283.85 271.8Q308.3 256.75 312 282.7" />
</g>
</svg>
