<?xml version="1.0" encoding="utf-8"?>
<svg version="1.1" id="Layer_1"
xmlns="http://www.w3.org/2000/svg"
xmlns:xlink="http://www.w3.org/1999/xlink"


xml:space="preserve">
q-6.85 -27.8 -29.5 -10.7q-4.4 3.3 -6.55 9.3q-7.45 20.55 -10.85 42.1q-2.5 16.1 -3.15 32.2q-0.55 14.8 -0.8 29.65q-0.25 14.85 -0.15 29.75q0.15 18.65 -0.6 37.35q-0.9 22.1 3.7 43.65q2.85 13.55 8.55 26.1q28.25 2.95 40.6 -25.75q3.4 -7.95 4.85 -16.5q-16.7 27.55 -45.25 32.25q-10.75 -64.2 -6.2 -130.05q3.2 -6.05 -0.05 -11.95q-8.6 -62.45 19.4 -115.45q9.35 -3.3 18.25 1q-3.4 12.25 -3.35 26.6q0.2 59.55 -1.4 119.25q-1.6 59.3 0 119.2q0.8 30.25 -3.45 59.8q-2.5 17.35 4.45 29.2q2.3 -2.5 2.55 -5.95q4.05 -59.2 2.2 -119.25q-0.6 -19 -0.85 -38.05q0.6 1.35 1.85 2.3q3.4 0.25 6.5 -1.2q42.7 -20.25 53 -65.65q5.9 -26.25 2.65 -53.05q-1.8 -14.7 -3.15 -29.3q-4.5 -47.6 -51.5 -54.8q-6.7 -1.4 -11.25 2.65q-0.4 1.45 -0.3 3q0.15 1.5 0.65 2.95q3.8 26.65 -7.8 50.7q-15.85 32.95 -51.1 46.85q-0.85 1.25 -1.2 2.65q-0.4 -35.85 0.4 -71.9q40.55 -2.15 49.5 37.75q4.9 22.05 8.05 44.45q6.25 58.8 11.15 117.75q-2.5 -3.95 -5.25 -5q6.25 14.65 9.5 29q5.9 -15.65 3.4 -34.4q-7.85 -58.65 -13.95 -117.55q-6.05 -58.95 -11.85 -117.85q-2.5 3 -2.6 7.4q-5.6 17.55 -7.65 37.5q-2.5 23.8 -5.55 47.4q-5.65 43.5 -12.1 86.8q-1.9 4.85 0.4 8.85q-9.05 58.55 -19.05 116.95q-2.5 14.55 -6.5 28.7q-3.95 14.05 4.05 20.6q4.2 -11.95 5.95 -24.65q8.15 -58.65 17.4 -117.1q18.1 -5.05 36 -11.1q0.55 59.8 -1.25 119.25q-1.75 59.45 -3.2 119.2q-0.45 16.8 5.05 29.25q3.9 -23.6 3.1 -48.75q-1.4 -45.15 -1.05 -90.05q17.65 -5.45 36.25 -5.85q-0.05 59.75 -1 119.2q0.6 2.65 3 2q4.65 -21.35 4.1 -44.25q-1.35 -59.5 -0.25 -119.2q1.1 -60.3 -0.35 -119.25q-4.45 19.9 -4.75 42.25q-0.5 44.35 -0.65 88.95q-19.85 -1.4 -36.25 7.45q1.15 -60.4 1.35 -119.25q-4.5 8.45 -4.35 19.5q-1.55 -31.55 -34.3 -34.25q-33.15 11.8 -34.85 47.9q-0.7 14.75 3.15 28.9q17.25 63.65 58.6 116.2q35.1 44.65 33.25 101q-1.55 46.75 -44.1 65.25q-17.35 7.55 -35.5 0.4q-46.3 -18.2 -49.95 -68.5q-1.4 -19.25 -3.05 -36.15q-8.65 27.85 -0.4 57.7q6.6 23.9 23.75 42.2q29.75 31.85 71.7 15.6q10.7 -4.15 17.3 -13.25q37.05 -51.15 20.4 -114q-3.7 -14.05 -10.95 -26.7q-26.3 -45.8 -55 -90.45q-16.45 -25.6 -21.9 -55.3q-4.2 -22.9 6.8 -42.9q8.85 -16.2 26.8 -13.2q22.7 3.8 26.2 25.55q2.25 -2.55 2.05 -6<g id="2297" transform="matrix(1, 0, 0, 1, -31.85, 0)">
<path style="fill:#000000;fill-opacity:1" d="M495.2,143.5Q486.3 139.2 476.95 142.5Q448.95 195.5 457.55 257.95L488.45 251.75L489.4 253.3Q492.65 259.2 489.45 265.25L457.25 270.4Q452.7 336.25 463.45 400.45Q492 395.75 508.7 368.2L507.9 373.95Q506.45 382.5 503.05 390.45Q490.7 419.15 462.45 416.2Q456.75 403.65 453.9 390.1Q449.3 368.55 450.2 346.45Q450.95 327.75 450.8 309.1Q450.7 294.2 450.95 279.35Q451.2 264.5 451.75 249.7L452.9 220.15Q453.55 204.05 456.05 187.95Q459.45 166.4 466.9 145.85Q469.05 139.85 473.45 136.55Q496.1 119.45 502.95 147.25L499.45 148L495.2 143.5M375.45,98L374.8 96.45Q374.3 95 374.15 93.5Q374.05 91.95 374.45 90.5L374.7 89.75Q379.25 85.7 385.95 87.1L385.95 87Q432.95 94.2 437.45 141.8Q438.8 156.4 440.6 171.1Q443.85 197.9 437.95 224.15Q427.65 269.55 384.95 289.8Q381.85 291.25 378.45 291Q377.2 290.05 376.6 288.7Q376.85 307.75 377.45 326.75Q379.3 386.8 375.25 446Q375 449.45 372.7 451.95Q365.75 440.1 368.25 422.75Q372.5 393.2 371.7 362.95Q370.1 303.05 371.7 243.75Q373.3 184.05 373.1 124.5Q373.05 110.15 376.45 97.9L375.45 98M428.55,135.5Q419.6 95.6 379.05 97.75L376.9 208.25Q376.1 244.3 376.5 280.15Q376.85 278.75 377.7 277.5Q412.95 263.6 428.8 230.65Q440.4 206.6 436.6 179.95Q433.45 157.55 428.55 135.5M327.6,261.8Q309.7 267.85 291.6 272.9L284.55 318.45Q275.3 376.9 267.15 435.55Q265.4 448.25 261.2 460.2Q253.2 453.65 257.15 439.6Q261.15 425.45 263.65 410.9Q273.65 352.5 282.7 293.95L285.85 273.35Q283.55 269.35 285.45 264.5L287.3 263.7Q293.75 220.4 299.4 176.9Q302.45 153.3 304.95 129.5Q307 109.55 312.6 92Q312.7 87.6 315.2 84.6L316.2 83.5L327.55 201.15Q333.35 260.05 339.4 319Q345.5 377.9 353.35 436.55Q355.85 455.3 349.95 470.95Q346.7 456.6 340.45 441.95Q343.2 443 345.7 446.95Q340.8 388 334.55 329.2L327.6 261.8M207.2,116.5Q207 175.35 205.85 235.75L205.55 255.65Q221.95 246.8 241.8 248.2Q241.95 203.6 242.45 159.25Q242.75 136.9 247.2 117Q248.65 175.95 247.55 236.25Q246.45 295.95 247.8 355.45Q248.35 378.35 243.7 399.7Q241.3 400.35 240.7 397.7Q241.65 338.25 241.7 278.5L241.75 259.05Q223.15 259.45 205.5 264.9Q205.15 309.8 206.55 354.95Q207.35 380.1 203.45 403.7Q197.95 391.25 198.4 374.45Q199.85 314.7 201.6 255.25Q203.4 195.8 202.85 136Q202.7 124.95 207.2 116.5M145.2,124Q141.7 102.25 119 98.45Q101.05 95.45 92.2 111.65Q81.2 131.65 85.4 154.55Q90.85 184.25 107.3 209.85Q136 254.5 162.3 300.3Q169.55 312.95 173.25 327Q189.9 389.85 152.85 441Q146.25 450.1 135.55 454.25Q93.6 470.5 63.85 438.65Q46.7 420.35 40.1 396.45Q31.85 366.6 40.5 338.75Q42.15 355.65 43.55 374.9Q47.2 425.2 93.5 443.4Q111.65 450.55 129 443Q171.55 424.5 173.1 377.75Q174.95 321.4 139.85 276.75Q98.5 224.2 81.25 160.55Q77.4 146.4 78.1 131.65Q79.8 95.55 112.95 83.75Q145.7 86.45 147.25 118Q147.45 121.45 145.2 124M293.3,261.2L326.4 249.85L313.35 103L293.3 261.2" />
</g>
</svg>
