<?xml version="1.0" encoding="utf-8"?>
<svg version="1.1" id="Layer_1"
xmlns="http://www.w3.org/2000/svg"
xmlns:xlink="http://www.w3.org/1999/xlink"


xml:space="preserve">
q-20.95 -25.6 -54.95 -23.1q-16.4 3.15 -31.65 10.95q-34.75 17.7 -44.5 56.1q-14.45 57 -15.2 116.2q-0.75 59.75 9.1 117.95q7 41.45 41.8 64.6q9.85 6.55 21 10.25q11.4 3.8 23.2 2q32.15 -4.95 54.25 -29.45q15.3 -16.95 7.25 -32.4q-1.85 1.45 -2.45 3.7q-0.5 1.75 -1.75 3.1q-0.3 0.05 -0.55 0.4q-12.7 19.9 -34.45 30.05q-26.2 12.25 -53.2 0.95q-31.3 -13.1 -40.25 -46.1q-15.55 -57.45 -16.5 -117.35q28.4 -4.4 57.75 -2q1.9 -3.95 0.8 -8.25q-0.5 -1.95 -2.2 -2.95q-21.85 1.85 -42.5 8q0.2 -12.65 0.9 -25.15q2.35 -41.4 15.4 -80.8q14.35 -43.55 59.25 -52.7q41.05 -8.4 68.15 21.35q2.45 -2.55 1.45 -6q-1.1 -3.45 -2.95 -6.75q-7.65 56.25 -6.75 114.45q0.5 30.05 0.55 60.05q-25.85 3.9 -51.9 2.4q1.2 -32 2.55 -63.95q2.5 -59.75 -0.15 -118.45q-6.05 16.65 -5.15 37.55q2.6 59.35 -0.85 118.45q-1.75 29.45 -3.15 59.15q-0.75 14.9 -2.2 29.8q-1.6 16.95 4.1 29.4q0.65 -0.75 0.7 -1.55q4.6 -54.4 6.45 -109.4q28.7 7.9 58.7 2.25q-0.6 59.85 -4.4 119.15q-1.1 16.9 4.75 29.3q4.3 -41.7 4.6 -84.75q0.4 -59.65 1.35 -119.2q0.3 -30.55 -0.75 -59.25q-0.6 -0.2 -0.65 0.3q3.35 -5.7 1.1 -12.45q-12.8 -38.05 -57.1 -35.05q-8.65 1.5 -15.1 7.85q-23.35 23.1 -20.9 56.7q0.9 12.45 3.75 24.35q13 54.55 53.3 95.6q43.75 44.55 50.65 105.75q5.7 50.35 -30.55 84.05q-18.6 17.3 -43.4 21.65q-28.6 5 -47.2 -17q-24.95 -29.45 -25.65 -67.75q-0.35 -20.2 -6.35 -35.95q-5.45 34.25 3.15 69.2q6.7 27.25 25.65 48.05q31.9 34.95 73.75 11.75q59.1 -32.8 58.1 -100.55q-0.6 -39.9 -18.05 -75.7q-19.9 -40.9 -50.75 -75.25q-21.65 -24.1 -33.05 -54.25q-13.35 -35.2 1.65 -68.3q2.4 -5.2 7.3 -7.65q34.9 -17.25 63.2 9.45q0.9 3.1 2.9 5.8<g id="2313" transform="matrix(1, 0, 0, 1, -23.05, 0)">
<path style="fill:#000000;fill-opacity:1" d="M477.95,104L478.45 104.75Q480.3 108.05 481.4 111.5Q482.4 114.95 479.95 117.5Q452.85 87.75 411.8 96.15Q366.9 105.3 352.55 148.85Q339.5 188.25 337.15 229.65Q336.45 242.15 336.25 254.8L336.45 254Q357.1 247.85 378.95 246L388.5 247.25L393.95 247.5Q395.65 248.5 396.15 250.45Q397.25 254.75 395.35 258.7L394.45 260.25Q365.1 257.85 336.7 262.25L336.25 260.7L336.2 260.5L336.3 274Q337.25 333.9 352.8 391.35Q361.75 424.35 393.05 437.45Q420.05 448.75 446.25 436.5Q468 426.35 480.7 406.45L480.5 405.9L478.45 404.2Q478.7 403.85 479 403.8L482.45 403.7L483 403Q484.25 401.65 484.75 399.9Q485.35 397.65 487.2 396.2Q495.25 411.65 479.95 428.6Q457.85 453.1 425.7 458.05Q413.9 459.85 402.5 456.05Q391.35 452.35 381.5 445.8Q346.7 422.65 339.7 381.2Q329.85 323 330.6 263.25Q331.35 204.05 345.8 147.05Q355.55 108.65 390.3 90.95Q405.55 83.15 421.95 80Q455.95 77.5 476.9 103.1L477.95 104M312.2,74Q313.25 102.7 312.95 133.25L311.4 252.5Q310.45 312.05 310.05 371.7Q309.75 414.75 305.45 456.45Q299.6 444.05 300.7 427.15Q304.5 367.85 305.1 308L305.4 261.9Q275.4 267.55 246.7 259.65L245.1 306.15L243.6 350.5Q241.75 405.5 237.15 459.9Q237.1 460.7 236.45 461.45Q230.75 449 232.35 432.05Q233.8 417.15 234.55 402.25L240.3 283.65Q241.7 253.95 243.45 224.5Q246.9 165.4 244.3 106.05Q243.4 85.15 249.45 68.5Q252.1 127.2 249.6 186.95Q248.25 218.9 247.05 250.9Q273.1 252.4 298.95 248.5L305.35 248.8Q305.3 218.8 304.8 188.75Q303.9 130.55 311.55 74.3Q311.6 73.8 312.2 74M165.35,108.4Q163.35 105.7 162.45 102.6L159.45 93.5Q131.15 66.8 96.25 84.05Q91.35 86.5 88.95 91.7Q73.95 124.8 87.3 160Q98.7 190.15 120.35 214.25Q151.2 248.6 171.1 289.5Q188.55 325.3 189.15 365.2Q190.15 432.95 131.05 465.75Q89.2 488.95 57.3 454Q38.35 433.2 31.65 405.95Q23.05 371 28.5 336.75Q34.5 352.5 34.85 372.7Q35.55 411 60.5 440.45Q79.1 462.45 107.7 457.45Q132.5 453.1 151.1 435.8Q187.35 402.1 181.65 351.75Q174.75 290.55 131 246Q90.7 204.95 77.7 150.4Q74.85 138.5 73.95 126.05Q71.5 92.45 94.85 69.35Q101.3 63 109.95 61.5Q154.25 58.5 167.05 96.55Q169.3 103.3 165.95 109L165.35 108.4" />
</g>
</svg>
