<?xml version="1.0" encoding="utf-8"?>
<svg version="1.1" id="Layer_1"
xmlns="http://www.w3.org/2000/svg"
xmlns:xlink="http://www.w3.org/1999/xlink"


xml:space="preserve">
q11.7 11.45 12.15 27.75q0.1 2.9 -2.15 3.75q-3.7 -5.95 -6.45 -12.9q-1.15 -2.9 -3.05 -5.6q-15.1 -3.65 -17.1 13.75q-4.05 35.25 15.55 66.05q4.8 7.55 8.4 15.85q15.05 34.7 5.6 70.1q-7.4 27.8 -34.3 18.35q-24.35 -8.55 -17.45 -32.75q1.65 -5.9 5.05 -10.9q1.2 6.3 0.1 13.55q-0.6 3.75 -0.35 7.45q20.6 22.35 39.1 0.8q4.55 -5.25 4.8 -12.35q1 -26.55 -10.1 -51.55q-12.3 -27.65 -19.95 -56.8q-3.75 -14.15 -2.55 -28.9q1.45 -18.05 16.2 -26.9q0.7 46.7 0 94.2q6.5 -1.8 11.65 0.1q0.65 -18.3 7.7 -33.2q-3.5 57.8 -3.95 117.7q-0.3 40.15 -6.55 78.75q-6.9 -12 -3.05 -29.35q1.55 -7.15 1.8 -14.6q-8.2 1.5 -16.15 0.3q-0.9 39.95 -5.3 78q-4.9 -12.75 -3.85 -29.3q3.75 -59.4 3.3 -119.15q-0.2 -25.15 5.55 -47.7q0.15 -0.5 0.75 -0.3q30.55 4.2 26.75 34.7q-2.7 -3.45 -6.95 -12.2q-6.8 -13.95 -22.55 -9.8q-13.1 13.4 -3.95 31.7q17.75 35.3 30.35 73.05q13.95 41.9 -16.4 69.95q-32.6 1.75 -38.35 -30q-3.45 -18.95 3.2 -34.6q1.6 0 0.85 2.05q-0.85 2.4 -0.7 5.25q0.05 1.5 -0.4 2.95q-1.3 29.75 24.75 38.8q10.3 3.6 15.95 -4.95q14.9 -22.3 5.05 -49.15q-10.55 -28.95 -25.1 -56.05q-15.75 -29.25 -0.9 -56.2q2.85 -5.15 8 -6.65q5.2 3.4 7.85 8.95q2.7 5.7 3.65 12.05q-0.45 1.45 -0.4 3q-8.05 -24.95 -34.9 -10.95q-9.5 4.95 -12.35 15.75q-8 30.2 -11.05 61.35q13.9 -4.45 28.05 -7.65q2.05 0.4 3.75 1.45q2.35 3.55 1.05 7.5q-0.45 1.2 -1.3 2.2q-16.95 8.4 -33.65 5.8q-0.8 10.65 -1 21.45q-0.45 23.25 3.95 45.45q0.7 3.7 3.55 6.45q16.65 16.25 30.75 -3.6q8.35 -11.75 13.15 -25.05q6.45 18.55 -6.9 37.9q-15.85 23 -36.75 6.25q-13.5 -10.85 -13.4 -27.9q0.3 -59.9 8.05 -118.55q3.35 -25.15 21.25 -41.35q4.6 -4.15 10.25 -5.8q6.95 -0.55 13.5 1q-0.9 40.45 -5.1 80.2q-0.1 0.7 -0.85 1.3q-3.8 -13.5 -3.05 -29.8q2.65 -59.65 3.7 -119.15q0.45 -26.75 4.6 -51q1.6 47 1.1 94.2q5.05 -2.35 10.85 -2.45q0.5 -29.85 7.05 -55.5q-0.7 58.7 -0.55 118.45q0.1 43.75 -4.2 85.5q-5.85 -12.4 -5.3 -29.3q-5.05 2.15 -10.7 2<g id="2326" transform="matrix(1, 0, 0, 1, -135.2, 0)">
<path style="fill:#000000;fill-opacity:1" d="M352.45,173.25Q364.15 184.7 364.6 201Q364.7 203.9 362.45 204.75Q358.75 198.8 356 191.85Q354.85 188.95 352.95 186.25Q337.85 182.6 335.85 200Q331.8 235.25 351.4 266.05Q356.2 273.6 359.8 281.9Q374.85 316.6 365.4 352Q358 379.8 331.1 370.35Q306.75 361.8 313.65 337.6Q315.3 331.7 318.7 326.7Q319.9 333 318.8 340.25Q318.2 344 318.45 347.7Q339.05 370.05 357.55 348.5Q362.1 343.25 362.35 336.15Q363.35 309.6 352.25 284.6Q339.95 256.95 332.3 227.8Q328.55 213.65 329.75 198.9Q331.2 180.85 345.95 172L350.2 172.75L352.45 173.25M386.2,175Q386.9 221.7 386.2 269.2L390.95 267.75Q397.45 265.95 402.6 267.85L404.5 211.2Q405.15 192.9 412.2 178Q408.7 235.8 408.25 295.7Q407.95 335.85 401.7 374.45Q394.8 362.45 398.65 345.1Q400.2 337.95 400.45 330.5L402.15 280.35Q393.95 281.85 386 280.65L385.75 293.45Q384.85 333.4 380.45 371.45Q375.55 358.7 376.6 342.15Q380.35 282.75 379.9 223Q379.7 197.85 385.45 175.3Q385.6 174.8 386.2 175M170,174Q200.55 178.2 196.75 208.7L196.5 209.5Q193.8 206.05 189.55 197.3Q182.75 183.35 167 187.5Q153.9 200.9 163.05 219.2Q180.8 254.5 193.4 292.25Q207.35 334.15 177 362.2Q144.4 363.95 138.65 332.2Q135.2 313.25 141.85 297.6L142.5 297.95Q144.1 297.95 143.35 300Q142.5 302.4 142.65 305.25Q142.7 306.75 142.25 308.2Q140.95 337.95 167 347Q177.3 350.6 182.95 342.05Q197.85 319.75 188 292.9Q177.45 263.95 162.9 236.85Q147.15 207.6 162 180.65Q164.85 175.5 170 174M300.45,176L302.45 176.5Q307.65 179.9 310.3 185.45Q313 191.15 313.95 197.5L313.9 198.2L313.75 199Q313.3 200.45 313.35 202L313.2 203.5Q305.15 178.55 278.3 192.55Q268.8 197.5 265.95 208.3Q257.95 238.5 254.9 269.65Q268.8 265.2 282.95 262Q285 262.4 286.7 263.45L287.95 264.25Q290.3 267.8 289 271.75Q288.55 272.95 287.7 273.95Q270.75 282.35 254.05 279.75Q253.25 290.4 253.05 301.2Q252.6 324.45 257 346.65Q257.7 350.35 260.55 353.1Q277.2 369.35 291.3 349.5Q299.65 337.75 304.45 324.45Q310.9 343 297.55 362.35Q281.7 385.35 260.8 368.6Q247.3 357.75 247.4 340.7Q247.7 280.8 255.45 222.15Q258.8 197 276.7 180.8Q281.3 176.65 286.95 175Q293.9 174.45 300.45 176M217.9,294.95Q217 335.4 212.8 375.15Q212.7 375.85 211.95 376.45Q208.15 362.95 208.9 346.65Q211.55 287 212.6 227.5Q213.05 200.75 217.2 176.5Q218.8 223.5 218.3 270.7Q223.35 268.35 229.15 268.25L230.15 220.75Q230.65 190.9 237.2 165.25Q236.5 223.95 236.65 283.7Q236.75 327.45 232.45 369.2Q226.6 356.8 227.15 339.9L228.85 280.8Q223.8 282.95 218.15 282.8L217.9 294.95" />
</g>
</svg>
