<?xml version="1.0" encoding="utf-8"?>
<svg version="1.1" id="Layer_1"
xmlns="http://www.w3.org/2000/svg"
xmlns:xlink="http://www.w3.org/1999/xlink"


xml:space="preserve">
q-1.65 39.5 -2 80.1q-0.4 46.1 -4.1 91.65q-0.35 1.8 -0.3 3.75q0.1 1.5 0.5 3q1.5 1.75 3.8 2q-3 29.55 -3.9 59.15q-0.95 30.2 -3.95 59.9q-1.7 16.85 3.55 29.35q1.95 -1.8 2 -4.5q1.9 -59.35 6.75 -118.35q3.3 20.45 6.2 40.95q8.4 59.55 30.25 115.8q6.35 16.4 16.05 27.75q3.15 -4.8 0.75 -10.15q-16.1 -35.75 -25.7 -74.3q-12.6 -50.75 -22.95 -101.95q16.75 -7.75 24.55 -24.8q25.25 -55.45 11.1 -115.55q-8.1 -34.4 -37 -52.45q-10.65 -0.35 -19.25 6q-2.05 2.7 -2.25 5.95q-0.25 3.9 2 6.55q1 0.5 2.05 0.6q29.4 43.85 21.85 97q-2.65 18.65 -11.75 35q-9.75 17.55 -26.05 27.4q-1.05 1.65 -1.7 3.55q-6.25 3.45 -13.4 5.85q2.05 -32.45 3.45 -65.1q2.35 -55.8 -1.7 -110.45q17.15 -9.75 29.75 9.05q-19.3 9.3 -27.95 30.5q-7.85 19.2 -10.4 39.85q-2.25 3.4 -1.05 7.6q0.7 2.5 2.45 4.6q-6.45 41.4 9 77.55q5 11.65 17.25 8.2q26.65 -7.45 35.9 -34.6q2.45 -7.15 2.75 -14.8q-11.95 30.1 -40.1 39.95q-7.45 2.55 -10.7 -2.7q-8.5 -13.95 -9.95 -30.8q-1.7 -20.1 0.8 -40q26.25 -3.3 47.7 -18.7q-20.8 5.7 -42.75 13.8q-2.25 -47.35 31.55 -71.45q4.7 -3.4 10.9 -3.9q4 -11.9 -6.6 -18.6q-4.8 -3 -10.4 -3.5q4.85 -22.2 -21.75 -23.25q-23 11.25 -28.4 38q-10.75 53.15 -15.7 107.3q-5.35 58.95 -2.35 117.9q1.15 22.3 10.05 42.85q12.75 29.25 39.8 12.65q25.15 -15.5 27.85 -41.5q-7.05 5.75 -13.65 12.9q-8 8.6 -18.25 14.15q-26.75 14.55 -34.7 -14.5q-6.9 -25.25 -6.25 -51.5q0.9 -34.75 2.8 -69.5q22.35 4 45.3 -4.5q0.85 -1.35 2.15 -2.2q0.75 -1.8 0.35 -3.75q-0.35 -0.4 -0.75 -0.45q-3.65 -0.35 -7.25 -1.3q-20.1 5.7 -40.2 5.1q1.1 -18.85 2.5 -37.65q3.65 -49 20.4 -94.4q2.95 -7.95 10.55 -10.7q20.65 -7.45 26.25 7.65q-14.8 21.3 -24 45.75q-2.95 8.7 -8.05 16.55q-1.85 2.8 -2.65 6.15q-1.85 7.6 2.5 14.25q15.55 3.25 31 0.5q1.5 5.6 4.2 10.45q1.8 3.2 4.45 5.6q3.5 -23.45 -5.85 -45.65q-8.05 -19.25 -13.7 -39.25q-1.15 17.65 2.65 37.2q4.25 -17.45 14.05 -31.25q2.65 -4.5 0.95 -9.3q-0.6 -1.7 -1.65 -3.15q4.6 24.35 3 49.6q-8.7 -1.75 -17.85 -0.4q-8.15 1.55 -17.3 0.15q0.8 -59.8 -0.4 -118.5q-5.25 43.7 -5.25 90q-0.05 59.75 -1.2 119.25q-1.15 60.05 -6.8 118.45q0.85 2.4 3.5 2.25q8.85 -44.9 9.1 -92.2q17.25 3.85 35.15 0.35q-3.55 59.45 -1.25 119.35q0.3 7.45 -1.3 14.6q-3.05 13.6 4.1 22.1q5.15 -16 4.1 -33.75q-3.65 -59.8 -0.15 -119.3q2.55 -44.2 5.7 -88.3q3.25 -45.25 -3.9 -88.6q-3.85 0.65 -3 5.25q-31.2 23.9 -20.75 63.8q15.9 60.55 48.65 114.55q29.85 49.25 33.65 106.1q0.45 6.75 -2.6 12.55q-23.35 44.75 -76.85 41.55q-42.2 -2.5 -54.7 -38.45q-7.2 14.55 6.9 27.55q36.8 33.9 85.9 17.75q47.3 -15.5 46.25 -63.55q-0.65 -29.05 -11.2 -56.45q-21.25 -54.9 -50.9 -105.8q-22.9 -39.35 -21.4 -83.7q0.4 -12.2 10.3 -19.45q23.75 -17.4 48.35 -5.55q-0.3 -2 -1.35 -3.85q-0.45 -1.1 -0.6 -2.25q-15.3 -6.3 -32.45 -4.9q-2.65 1 -5.1 2.85<g id="2327" transform="matrix(1, 0, 0, 1, -7.05, 0)">
<path style="fill:#000000;fill-opacity:1" d="M428.2,91.5L428.95 94.05L429.45 90.7L428.2 91.5M425.95,94.75Q423.7 92.1 423.95 88.2Q424.15 84.95 426.2 82.25Q434.8 75.9 445.45 76.25Q474.35 94.3 482.45 128.7Q496.6 188.8 471.35 244.25Q463.55 261.3 446.8 269.05Q457.15 320.25 469.75 371Q479.35 409.55 495.45 445.3Q497.85 450.65 494.7 455.45Q485 444.1 478.65 427.7Q456.8 371.45 448.4 311.9Q445.5 291.4 442.2 270.95L441.2 271.3L428.4 275.8L425.2 318.85Q420.35 377.85 418.45 437.2Q418.4 439.9 416.45 441.7Q411.2 429.2 412.9 412.35Q415.9 382.65 416.85 352.45Q417.75 322.85 420.75 293.3L422.25 277.75Q419.95 277.5 418.45 275.75Q418.05 274.25 417.95 272.75Q417.9 270.8 418.25 269L418.45 268.25L423.15 267.15Q426.85 221.6 427.25 175.5Q427.6 134.9 429.25 95.4L428 95.35Q426.95 95.25 425.95 94.75M430.85,89.85Q434.9 144.5 432.55 200.3Q431.15 232.95 429.1 265.4Q436.25 263 442.5 259.55Q443.15 257.65 444.2 256L444.65 258.3Q460.95 248.45 470.7 230.9Q479.8 214.55 482.45 195.9Q490 142.75 460.6 98.9Q448 80.1 430.85 89.85M374.35,88.5Q384.95 95.2 380.95 107.1L380.7 104.25L371.45 97.5Q365.25 98 360.55 101.4Q326.75 125.5 329 172.85L332 172.35Q353.95 164.25 374.75 158.55L374.95 165.25Q353.5 180.65 327.25 183.95Q324.75 203.85 326.45 223.95Q327.9 240.8 336.4 254.75Q339.65 260 347.1 257.45Q375.25 247.6 387.2 217.5L387.1 220.6Q386.8 228.25 384.35 235.4Q375.1 262.55 348.45 270Q336.2 273.45 331.2 261.8Q315.75 225.65 322.2 184.25L320.7 183.75L319.85 182.7Q318.1 180.6 317.4 178.1Q316.2 173.9 318.45 170.5L323.4 172.05L325.6 155.35Q328.15 134.7 336 115.5Q344.65 94.3 363.95 85Q369.55 85.5 374.35 88.5M325.45,105Q319.85 89.9 299.2 97.35Q291.6 100.1 288.65 108.05Q271.9 153.45 268.25 202.45Q266.85 221.25 265.75 240.1Q285.85 240.7 305.95 235Q309.55 235.95 313.2 236.3Q313.6 236.35 313.95 236.75L314.55 239Q314.95 240.95 314.2 242.75L312.6 244.05Q311.3 244.9 310.45 246.25Q287.5 254.75 265.15 250.75Q263.25 285.5 262.35 320.25Q261.7 346.5 268.6 371.75Q276.55 400.8 303.3 386.25Q313.55 380.7 321.55 372.1Q328.15 364.95 335.2 359.2Q332.5 385.2 307.35 400.7Q280.3 417.3 267.55 388.05Q258.65 367.5 257.5 345.2Q254.5 286.25 259.85 227.3Q264.8 173.15 275.55 120Q280.95 93.25 303.95 82Q330.55 83.05 325.7 105.25L325.45 105M340.9,290.7Q342.6 295.5 339.95 300L336.85 300Q327.05 313.8 322.8 331.25L347 329.6L344.85 317.7Q341.05 298.15 342.2 280.5L353.5 329.05L371.6 328.2L372.3 334.75L356.65 340.55Q362.3 360.55 370.35 379.8Q379.7 402 376.2 425.45Q373.55 423.05 371.75 419.85Q369.05 415 367.55 409.4L349.55 342.05Q334.1 344.8 318.55 341.55L302.95 376.7Q298.6 370.05 300.45 362.45Q301.25 359.1 303.1 356.3Q308.2 348.45 311.15 339.75L307.95 338.75L307.95 332L313.95 331.75Q323.15 307.3 337.95 286L339.25 287.55Q340.3 289 340.9 290.7M230.2,80.5Q237.35 123.85 234.1 169.1Q230.95 213.2 228.4 257.4Q224.9 316.9 228.55 376.7Q229.6 394.45 224.45 410.45Q217.3 401.95 220.35 388.35Q221.95 381.2 221.65 373.75Q219.35 313.85 222.9 254.4L223.15 250.4Q205.25 253.9 188 250.05L187.55 315.75Q187.3 363.05 178.45 407.95Q175.8 408.1 174.95 405.7Q180.6 347.3 181.75 287.25Q182.9 227.75 182.95 168Q182.95 121.7 188.2 78Q189.4 136.7 188.6 196.5L188.1 239.1L188.65 239.15Q197.8 240.55 205.95 239Q215.1 237.65 223.8 239.4L230.2 135.35Q231.8 110.1 227.2 85.75Q226.35 81.15 230.2 80.5M91.95,75.75Q109.1 74.35 124.4 80.65L125.45 81.25L125.8 82Q125.95 83.15 126.4 84.25L127.1 85.65Q128.15 87.5 128.45 89.5Q103.85 77.65 80.1 95.05Q70.2 102.3 69.8 114.5Q68.3 158.85 91.2 198.2Q120.85 249.1 142.1 304Q152.65 331.4 153.3 360.45Q154.35 408.5 107.05 424Q57.95 440.15 21.15 406.25Q7.05 393.25 14.25 378.7Q26.75 414.65 68.95 417.15Q122.45 420.35 145.8 375.6Q148.85 369.8 148.4 363.05Q144.6 306.2 114.75 256.95Q82 202.95 66.1 142.4Q55.65 102.5 86.85 78.6Q89.3 76.75 91.95 75.75" />
</g>
</svg>
