<?xml version="1.0" encoding="utf-8"?>
<svg version="1.1" id="Layer_1"
xmlns="http://www.w3.org/2000/svg"
xmlns:xlink="http://www.w3.org/1999/xlink"


xml:space="preserve">
q-3.05 14.1 -3.65 29.6q-2.3 59.35 -7.2 118.4q-1.4 16.55 3.2 29.85q0.9 -0.6 1 -1.35q4.75 -36.05 6.45 -72.6q2.45 -52.75 3.55 -104.2q3.5 -4.7 2.2 -10.6q-0.5 -2.3 -2.45 -3.65q-36.75 2.9 -71.75 10.5q-1.7 5.25 0.55 10.35q-1.95 1.15 -2.8 3.2q-2.95 11.85 3 17.75q2.1 -10.15 -0.5 -20.15q-0.1 48.25 -10.4 94.45q-6.25 3.5 -13 0.5q-2.25 -1.7 -3.5 -4.5q0.6 -2.25 -0.25 -4.5q-2.3 -2.7 -5.25 -0.25q-1.15 1.7 -1.3 3.8q-2.05 24.2 22.3 22.95q1.65 -1.25 2.2 -2.7q19.55 -52.4 9.3 -109q-2.75 -24.2 -26.9 -26q-22.2 -2.15 -32.15 19.35q-8.4 18.25 -10.65 38.4q-2.35 21.35 -3.55 43.1q-0.9 16.6 -0.35 33.05q0.7 21.8 13.1 38.15q13.85 18.2 34.7 8.9q21.4 -9.5 25.5 -31.8q1.3 -7.25 -0.95 -14.2q-7.4 20.15 -25.85 29.9q-14.6 7.7 -27 -0.9q-6.9 -4.75 -9.8 -12.9q-2.05 -5.7 -3.2 -11.55q-1.45 -7.45 -1.55 -15.2q-0.15 -13.35 1.4 -26.6q-23.25 -2.2 -45.8 7.15q-3.3 -44.1 27.8 -66.5q14.85 -10.65 29.7 0.35q5.1 3.75 8.05 8.75q-20.35 21.8 -11.8 50.2q8.15 27.15 24.35 51.35q21.9 32.6 2 60.25q-4.65 6.5 -13.3 8.35q-17 3.45 -30.25 -7.25q-9.1 -7.4 -13 -18.45q-12.75 2.8 -11.05 20.2q3.7 38.6 41.8 38.15q20.7 -0.25 29.5 -18.5q10.5 -21.7 4.35 -45.95q-6.2 -24.4 -20.85 -44.9q-10.9 -15.3 -15.1 -33.4q-3.9 -16.6 7.1 -30.45q22.5 -0.2 28.35 24.05q3.05 -12.55 -3.55 -23.2q-8.4 -13.5 -25 -14.15q-10.75 -0.1 -20.4 5.2q-5.75 58.55 -5.5 117.5q-1.2 30.15 -1.85 60.05q7.05 -45.25 6.75 -91.1q-1.95 42.15 -3.5 83.95q-0.05 1.8 0.4 3.55q7.05 -17.9 6.75 -37.25q0.35 -24.1 1.65 -48.3q2.15 -1.75 2.5 -4.8q0.15 -1.45 -0.45 -2.8q-6.7 13.2 -6.65 30q0.05 13.9 -0.3 27.8<g id="2325" transform="matrix(1, 0, 0, 1, -130.5, 0)">
<path style="fill:#000000;fill-opacity:1" d="M351.2,187Q386.2 179.4 422.95 176.5L434.45 176.75Q436.4 178.1 436.9 180.4Q438.2 186.3 434.7 191L389.95 195.3Q388.85 246.75 386.4 299.5Q384.7 336.05 379.95 372.1Q379.85 372.85 378.95 373.45Q374.35 360.15 375.75 343.6Q380.65 284.55 382.95 225.2Q383.55 209.7 386.6 195.6L352.45 198.25L351.75 197.35Q349.5 192.25 351.2 187M422.7,232.15L422.2 233Q416.25 227.1 419.2 215.25Q420.05 213.2 422 212.05L422.2 212Q424.8 222 422.7 232.15M422.2,254Q432.45 310.6 412.9 363Q412.35 364.45 410.7 365.7Q386.35 366.95 388.4 342.75Q388.55 340.65 389.7 338.95Q392.65 336.5 394.95 339.2Q395.8 341.45 395.2 343.7L394.95 344.45Q396.2 347.25 398.45 348.95Q405.2 351.95 411.45 348.45Q421.75 302.25 421.85 254L422.2 254M335.15,198.5Q320.3 187.5 305.45 198.15Q274.35 220.55 277.65 264.65Q300.2 255.3 323.45 257.5L326.95 266.5L323.45 270.45L275.95 278.95Q274.4 292.2 274.55 305.55Q274.65 313.3 276.1 320.75Q277.25 326.6 279.3 332.3Q282.2 340.45 289.1 345.2Q301.5 353.8 316.1 346.1Q334.55 336.35 341.95 316.2Q344.2 323.15 342.9 330.4Q338.8 352.7 317.4 362.2Q296.55 371.5 282.7 353.3Q270.3 336.95 269.6 315.15Q269.05 298.7 269.95 282.1Q271.15 260.35 273.5 239Q275.75 218.85 284.15 200.6Q294.1 179.1 316.3 181.25Q340.45 183.05 343.2 207.25Q340.25 202.25 335.15 198.5M204,191.65Q210.6 202.3 207.55 214.85L207.35 215.05Q201.5 190.8 179 191Q168 204.85 171.9 221.45Q176.1 239.55 187 254.85Q201.65 275.35 207.85 299.75Q214 324 203.5 345.7Q194.7 363.95 174 364.2Q135.9 364.65 132.2 326.05Q130.5 308.65 143.25 305.85L137 321.95Q140.9 333 150 340.4Q163.25 351.1 180.25 347.65Q188.9 345.8 193.55 339.3Q213.45 311.65 191.55 279.05Q175.35 254.85 167.2 227.7Q158.65 199.3 179 177.5Q195.6 178.15 204 191.65M257.55,209.5Q257.5 192.7 264.2 179.5L263.65 267.9L264.1 268.3L264.55 268.95L265.35 270.85Q265.95 272.2 265.8 273.65Q265.45 276.7 263.3 278.45Q262 302.65 261.65 326.75L261.7 336.2Q262 355.55 254.95 373.45L252.9 366.5Q252.45 364.75 252.5 362.95Q254.05 321.15 256 279L235.95 282.35Q236.25 328.2 229.2 373.45L226.8 373.5L226.6 373.1Q227.25 343.2 228.45 313.05L228.7 298.25Q228.45 239.3 234.2 180.75L236.05 270.3Q245.7 265 256.45 265.1L257.25 237.3Q257.6 223.4 257.55 209.5" />
</g>
</svg>
