<?xml version="1.0" encoding="utf-8"?>
<svg version="1.1" id="Layer_1"
xmlns="http://www.w3.org/2000/svg"
xmlns:xlink="http://www.w3.org/1999/xlink"


xml:space="preserve">
q-29.9 53.4 -26.75 116.25q1.2 22.8 7.3 44.5q8.85 31.3 44.8 24.95q7.1 -4.6 11.55 -11.55q12.8 -19.85 9.7 -40.7q-2 3.15 -3.3 6.55q-6.4 16.6 -18.7 28.7q-12.15 2.25 -24.3 -1.3q-4.65 -1.35 -7.55 -4.85q-13 -15.65 -13.85 -37.25q-2.05 -52.7 16 -101.85q3.45 -9.3 11 -15.45q24.85 -20.35 45.2 1.75q-2.15 -22.35 -25.35 -25q-1.45 1.05 -3.95 1.35q-14.75 1.85 -21.9 14.65q-2.8 -23.2 -25.8 -26.85q-30.25 14.4 -37.35 47.55q-10.9 50.55 -9.4 102.4q0.55 18.05 7.5 34.6q3.25 7.75 8.2 14.55q2.4 3.3 5.55 5.55q7.3 5.4 15.55 1.3q20.8 -10.35 26.05 -32.5q2.4 -10.25 -0.1 -20.5q-4.75 26.95 -28.4 36.85q-4.25 1.75 -8.85 1.9q-21.7 -17.5 -20.15 -47.5q0.8 -15.2 0.6 -30.55q20.1 -2 38.8 -9.95q-19.1 -4.65 -37.75 6.65q-0.8 -49.05 32 -79.55q9.85 -9.15 22.25 -4.45q9.6 3.7 14.75 12.9q13.45 -33.4 4.4 -73.45q-12.2 -2.35 -24.85 -1.85q-1.9 0.15 -3.35 1.65q-12.65 7.85 -14.55 22.65q-3.75 28.9 17.95 49.4q23.05 21.65 30.4 51.95q4.4 18.15 -2.55 35.4q-2.25 5.6 -5.95 10.4q-8.45 10.75 -22.05 11.25q-19.95 1.7 -26.4 -18.55q-5.5 -17.2 -1.6 -34.55q-6.05 21.85 1.8 42.6q8.25 21.9 30.7 24.05q16.15 1.25 26.6 -12.6q12.2 -16.3 12.85 -36.6q0.65 -19.8 -4.45 -39.05q-5.55 -20.85 -21.65 -34.65q-17.05 -14.8 -22.5 -36.3q-5.75 -22.85 17.9 -23.65q14.2 8.1 17.6 25q6.2 -16.55 -3.75 -31.65q-9.2 -13.95 -26.25 -14.1q-0.25 34.45 -1.65 68.9q-2.45 59.3 -2.1 118.55q0.3 1.75 2 2q0.75 -0.6 0.85 -1.3q3.4 -38.4 4.85 -77.15q8.15 -0.45 16.6 -3.2q-0.25 11.2 -1.75 22.3q-2.25 16.85 4.15 29.45q2.1 -2.15 2.3 -5.25q2.35 -38.7 3.65 -77.95q2 -59.85 -0.2 -118.5q-4.25 13.95 -4.8 30.7q-9.45 -0.15 -17.25 4.25q1.25 -50.7 -1 -100.45q-3.45 2.4 -3.5 7.5<g id="2328" transform="matrix(1, 0, 0, 1, -131.45, 0)">
<path style="fill:#000000;fill-opacity:1" d="M390,180.85Q392.5 180.55 393.95 179.5Q417.15 182.15 419.3 204.5L419.2 205.25Q398.85 183.15 374 203.5Q366.45 209.65 363 218.95Q344.95 268.1 347 320.8Q347.85 342.4 360.85 358.05Q363.75 361.55 368.4 362.9Q380.55 366.45 392.7 364.2Q405 352.1 411.4 335.5Q412.7 332.1 414.7 328.95Q417.8 349.8 405 369.65Q400.55 376.6 393.45 381.2Q357.5 387.55 348.65 356.25Q342.55 334.55 341.35 311.75Q338.2 248.9 368.1 195.5Q375.25 182.7 390 180.85M335.45,207.75Q330.3 198.55 320.7 194.85Q308.3 190.15 298.45 199.3Q265.65 229.8 266.45 278.85Q285.1 267.55 304.2 272.2L304.95 281.2Q286.25 289.15 266.15 291.15Q266.35 306.5 265.55 321.7Q264 351.7 285.7 369.2Q290.3 369.05 294.55 367.3Q318.2 357.4 322.95 330.45Q325.45 340.7 323.05 350.95Q317.8 373.1 297 383.45Q288.75 387.55 281.45 382.15Q278.3 379.9 275.9 376.6Q270.95 369.8 267.7 362.05Q260.75 345.5 260.2 327.45Q258.7 275.6 269.6 225.05Q276.7 191.9 306.95 177.5L310.15 177.9Q333.15 181.55 335.95 204.75L335.45 207.75M390.4,323L391.5 316.75Q392.95 315.25 394.85 315.1Q407.5 314.6 419.7 316.95L419.85 317.25Q428.9 357.3 415.45 390.7L416.95 326.95L390.7 324.45L390.4 323M194.25,192.6Q204.2 207.7 198 224.25L196.35 216.75Q192.95 199.85 178.75 191.75Q155.1 192.55 160.85 215.4Q166.3 236.9 183.35 251.7Q199.45 265.5 205 286.35Q210.1 305.6 209.45 325.4Q208.8 345.7 196.6 362Q186.15 375.85 170 374.6Q147.55 372.45 139.3 350.55Q131.45 329.8 137.5 307.95L143.25 306.45Q139.35 323.8 144.85 341Q151.3 361.25 171.25 359.55Q184.85 359.05 193.3 348.3Q197 343.5 199.25 337.9Q206.2 320.65 201.8 302.5Q194.45 272.2 171.4 250.55Q149.7 230.05 153.45 201.15Q155.35 186.35 168 178.5Q185.05 178.65 194.25 192.6M224.2,177.75Q226.45 227.5 225.2 278.2Q233 273.8 242.45 273.95L242.5 274L244.4 210.45Q244.95 193.7 249.2 179.75Q251.4 238.4 249.4 298.25Q248.1 337.5 245.75 376.2Q245.55 379.3 243.45 381.45Q237.05 368.85 239.3 352Q240.8 340.9 241.05 329.7L242.15 286.5L241.95 286.7L241.45 287.2Q233 289.95 224.85 290.4L224.65 296.25Q223.2 335 219.8 373.4Q219.7 374.1 218.95 374.7Q217.25 374.45 216.95 372.7Q216.6 313.45 219.05 254.15Q220.45 219.7 220.7 185.25Q220.75 180.15 224.2 177.75" />
</g>
</svg>
