<?xml version="1.0" encoding="utf-8"?>
<svg version="1.1" id="Layer_1"
xmlns="http://www.w3.org/2000/svg"
xmlns:xlink="http://www.w3.org/1999/xlink"


xml:space="preserve">
q-2.65 2.35 -2.25 5.95q-3.9 119.5 -2.05 239.2q0.45 29.8 -0.4 59.6q-0.85 31.55 2.3 61.8q0.15 1.2 0.9 2.3q8.9 -18.85 6.4 -41.3q-3.3 -29.45 -3.3 -59.25q4.4 -6.45 0.75 -13.35q3.5 -6.3 -1.2 -11.65q-2.55 43.3 3.55 86.9q5.6 39.95 10.55 80q-15.05 3.75 -29.35 9.6q2.2 -59.25 11.25 -117.55q2.55 -16.2 -1.25 -29.25q-10.95 53.8 -14.4 110.3q-3.65 59.4 -9.45 118.35q-5.8 59.05 -13.7 117.8q-1 7.45 -2.9 14.55q-3.65 13.85 4.45 21.2q1.45 -1.55 1.8 -3.75q8 -56.35 14.85 -113.05q4.7 -38.9 7.3 -78.2q15.35 -2.55 30.55 -7.45q6.45 58.25 11.85 116.55q-0.6 -3.6 -2.85 -5.25q3.35 10 4.05 20.35q0.9 13.35 8.95 18.65q3.5 -7.25 1.75 -15.15q-5 -22.6 -6.9 -45.65q-3.65 -44.35 -10.1 -88.15q-8.6 -58.35 -15.25 -117.15q-6.6 -58.7 -12.75 -117.1q-5.65 20.85 -8.55 42.25q-2.7 20.2 -3.35 40.75q-0.4 13.75 -0.3 27.5q-0.15 17.4 0.35 33.7q0.45 14.35 0.4 28.75q-0.1 14.8 -1.65 29.4q-2.35 22.6 7.7 41.1q13.15 24.2 30.65 -2.7q10.45 -16.1 15.55 -34.65q-11.4 20.85 -28.25 35.05q-2.75 2.25 -6.7 1.9q-6.8 -89.75 -4.7 -179.75q19.35 -2.45 37.05 -10.1q2.85 -4.2 1.55 -8.9q-0.9 -3.3 -3.65 -5.2q-10.75 -82.15 13.65 -157.95q2.7 -8.5 8.25 -15.6q9.75 -0.9 15.1 6.95q2.5 3.75 4.15 7.85q4.1 -11.7 -3.95 -22.25q-2.5 -3.3 -6.2 -4.65q-22.6 -2.2 -29.3 22.65q-6.5 26.5 -6 55.4q0.45 23.85 0.5 47.65q-1.2 -53.45 -4.05 -106.2q-2.95 1.65 -3 6q-0.8 59.75 1.15 119.2q0.5 15.05 0.1 30.05q-1.2 45.5 5.75 88.45q3.95 -1.15 3.75 -5.95q-2.35 -59.3 -3.45 -118.75q-0.1 29.05 -0.9 58q-0.6 17 6.3 29.3q3.45 -4.95 3 -11.25q-4 -59.55 -2.25 -119.2q1.8 -59.95 1.25 -118.5q4 5.7 6.6 11.95q2.9 6.95 4.15 7.55q-3 -40 -42.05 -50q-15.45 5.05 -22.05 19.9q-13.1 29.35 -5.2 60.75q9.45 37.55 31.6 70.1q33.1 48.65 46.5 106q10.6 45.65 -10.55 87q-18.25 35.65 -56.8 37.7q-9.6 -2.8 -16.1 -10.45q-31.75 -37 -32.65 -84.3q-5.9 5.7 -4.75 15.85q2 18.05 7.15 35.65q12.1 41.2 47.35 63.5q31.1 1.35 50.9 -25.35q37.4 -50.5 25.15 -113.35q-10.75 -55.3 -40.35 -103.5q-8.25 -13.4 -17.9 -25.9q-31.1 -40.25 -22.85 -88.85q2.3 -13.75 14.9 -19.95q21.85 -10.8 36.6 10.45<g id="2318" transform="matrix(1, 0, 0, 1, -17.6, 0)">
<path style="fill:#000000;fill-opacity:1" d="M489.5,74.25L424.7 85.45L428.7 232.7L475.45 224.25L476.55 226.15Q480.2 233.05 475.8 239.5L428.7 245.2L428.8 350.15Q428.8 379.95 432.1 409.4Q434.6 431.85 425.7 450.7L424.2 448.6Q423.45 447.5 423.3 446.3Q420.15 416.05 421 384.5Q421.85 354.7 421.4 324.9Q419.55 205.2 423.45 85.7L419.85 85.3L419.35 84.25L419 83.2L418.7 80.95Q418.3 77.35 420.95 75L486.95 61.25L488.3 62.6Q493 67.95 489.5 74.25M347.2,71.5Q353.35 129.9 359.95 188.6Q366.6 247.4 375.2 305.75Q381.65 349.55 385.3 393.9Q387.2 416.95 392.2 439.55Q393.95 447.45 390.45 454.7Q382.4 449.4 381.5 436.05Q380.8 425.7 377.45 415.7Q379.7 417.35 380.3 420.95L380.45 421.2Q375.05 362.9 368.6 304.65L365.3 275.15L362.4 250.4L362.1 250.9L361.45 251.75Q346.25 256.65 330.9 259.2Q328.3 298.5 323.6 337.4Q316.75 394.1 308.75 450.45Q308.4 452.65 306.95 454.2Q298.85 446.85 302.5 433Q304.4 425.9 305.4 418.45Q313.3 359.7 319.1 300.65Q324.9 241.7 328.55 182.3Q332 125.8 342.95 72Q346.75 85.05 344.2 101.25Q335.15 159.55 332.95 218.8L331.6 248Q345.9 242.15 360.95 238.4Q356 198.35 350.4 158.4Q344.3 114.8 346.85 71.5L347.2 71.5M282.55,63.85Q286.25 65.2 288.75 68.5Q296.8 79.05 292.7 90.75L292.2 89.05Q290.55 84.95 288.05 81.2Q282.7 73.35 272.95 74.25L267.95 76.25Q262.4 83.35 259.7 91.85Q235.3 167.65 246.05 249.8L280.95 237.5Q283.7 239.4 284.6 242.7Q285.9 247.4 283.05 251.6Q265.35 259.25 246 261.7Q243.9 351.7 250.7 441.45L255 442.15Q258.95 442.5 261.7 440.25Q278.55 426.05 289.95 405.2L293.45 408.7Q288.35 427.25 277.9 443.35Q260.4 470.25 247.25 446.05Q237.2 427.55 239.55 404.95Q241.1 390.35 241.2 375.55L241.35 345.95L241.6 316.25L241.75 287.55Q241.8 273.15 241.35 258.8Q240.85 242.5 241 225.1L241.05 197Q240.95 183.25 241.35 169.5Q242 148.95 244.7 128.75Q247.6 107.35 253.25 86.5Q259.95 61.65 282.55 63.85M211.45,132.5Q212 191.05 210.2 251Q208.45 310.65 212.45 370.2Q212.9 376.5 209.45 381.45Q202.55 369.15 203.15 352.15L204.5 307.25Q205.3 278.3 205.4 249.25L176.5 252Q177.6 311.45 179.95 370.75Q180.15 375.55 176.2 376.7Q169.25 333.75 170.45 288.25Q170.85 273.25 170.35 258.2Q168.4 198.75 169.2 139Q169.25 134.65 172.2 133Q175.05 185.75 176.25 239.2L205.45 235.65Q205.4 211.85 204.95 188Q204.45 159.1 210.95 132.6L211.45 132.5M119.7,94.25Q104.95 73 83.1 83.8Q70.5 90 68.2 103.75Q59.95 152.35 91.05 192.6Q100.7 205.1 108.95 218.5Q138.55 266.7 149.3 322Q161.55 384.85 124.15 435.35Q104.35 462.05 73.25 460.7Q38 438.4 25.9 397.2Q20.75 379.6 18.75 361.55Q17.6 351.4 23.5 345.7L24.4 347.25L25 348.7L25.75 350.95Q26.65 398.25 58.4 435.25Q64.9 442.9 74.5 445.7Q113.05 443.65 131.3 408Q152.45 366.65 141.85 321Q128.45 263.65 95.35 215Q73.2 182.45 63.75 144.9Q55.85 113.5 68.95 84.15Q75.55 69.3 91 64.25Q130.05 74.25 133.05 114.25L132.7 115Q131.45 114.4 128.55 107.45Q125.95 101.2 121.95 95.5L120.95 94.8L119.7 94.25" />
</g>
</svg>
