<?xml version="1.0" encoding="utf-8"?>
<svg version="1.1" id="Layer_1"
xmlns="http://www.w3.org/2000/svg"
xmlns:xlink="http://www.w3.org/1999/xlink"


xml:space="preserve">
q-23.55 -7.5 -49.75 -7.65q-41.15 -0.25 -81 -4.1q-0.85 0.3 -1.4 1.3q-0.65 3.4 0.55 6.75q14.85 8.5 33.6 6.65q15.1 -1.5 30.05 -0.3q-1.25 7.2 -1.4 15.15q-1.05 59.45 -3.35 119.15q-2.3 59.5 -4.05 119.3q-0.9 30 -3.3 59.9q-1.15 14.2 5.95 21.6q4.6 -54.3 5.9 -110.2q1.4 -59.3 3.8 -118.55q2.2 -53.55 0.1 -106.05q27.7 4.8 52.55 -0.85q0.8 -1.35 0.8 -3q0 -1.65 -0.8 -3q-4.85 -1.3 -9.8 -0.65q-19.15 10.95 -30.15 30.45q-9.6 16.9 -12.85 36.25q-3.4 20.45 -5.95 40.9q-2.2 17.4 -2.2 35.45q0.05 20.95 0.9 41.7q0.85 20.8 6.25 40.75q7.15 26.3 31.8 22.6q21.45 -3.45 36.8 -18.65q9.85 -9.75 4.65 -22.75q-8.9 13.1 -23.3 19.9q-11.3 5.15 -23.65 6.75q-3.1 0.25 -6.4 -1.05q-6.85 -2.45 -10.05 -9.9q-8.75 -21.8 -8.2 -45.55q0.4 -18.95 1.5 -37.7q1.3 -1.1 1.75 -2.7q0.65 -2.4 0.3 -4.85q-0.3 -2.35 -1.6 -4.4q-27.75 1.2 -54.9 11.6q0.65 -43.2 19.35 -81.85q7.1 -14.7 21.05 -22.15q3.65 -2 7.95 -2q9.75 0 18.15 4.95q-4 -3.75 -9.2 -5.35q-10.7 26 -35.6 34.95q-11.35 4.2 -19.25 -5.05q-5.25 -6.2 -7.45 -14.25q-3.85 -14 -5.9 -28.3q-1.9 -12.95 -2.6 -25.9q-0.9 -17.4 0.05 -34.95q31.3 -0.75 61.95 -6.7q-29.3 -8.5 -61.2 2.35q3.65 -65.55 44.9 -115.3q20.7 -5.75 35.25 9.75q-1.1 -24.65 -26.4 -22.15q-22.8 2.1 -31.85 25q-7.9 20.1 -14.35 40.7q-6.45 20.65 -9.65 42.1q-2.7 18.4 -3.65 36.95q-0.95 18.45 -0.05 36.75q0.9 18.45 2.75 36.85q2.25 21.95 15.8 39.3q15.55 19.9 35.75 2.95q16.1 -13.6 23.6 -33.6q3.25 -8.75 1.85 -16.8q-2.2 17.55 -3 37.7q-0.7 16.35 -1.25 32.75q-16.75 3.25 -32.55 4.3q1 -60.2 -1.3 -119.25q-3.25 16 -3.4 34.5q-0.5 59.6 -2.1 119.25q-0.3 15.2 -3.5 29.65q-3.7 16.95 2.1 29.6q2.05 -2.7 2.45 -6.1q5.35 -43.4 6.3 -87.6q16.65 5 32.3 -1.1q-1.2 36.3 -1.9 72.55q-0.55 29.75 -4.6 59q-2.4 17.75 5.35 29.2q2.7 -3.2 2.85 -7.45q1.95 -59.05 1.75 -118.5q-0.25 -59.85 5.55 -118.5q4.4 -45 -0.65 -88.5q-0.75 -36 -36.4 -46q-10.25 1.3 -16 10.05q-10.35 15.65 -9.5 34.6q2 46.05 26 87.1q29.6 50.6 43.85 107.25q6.55 25.9 -3.4 50.45q-14.3 35.3 -52.3 42.95q-45.75 9.15 -69.1 -27.95q-0.8 -1.3 -2.5 -1q-0.75 0.15 -1.5 0.6q-2.1 20.3 15.85 33.9q29.95 22.75 66.15 10.25q46.6 -16.15 53.5 -64q6.25 -43.55 -10.8 -84.4q-23.1 -55.4 -51.95 -108.3q-19.8 -36.3 1.8 -69.3q3.15 -4.8 8.9 -3.95q28.95 4.25 38 32.35<g id="2321" transform="matrix(1, 0, 0, 1, -14.65, 0)">
<path style="fill:#000000;fill-opacity:1" d="M516.5,115Q516.5 116.65 515.7 118Q490.85 123.65 463.15 118.85L450.75 117.15Q452.85 169.65 450.65 223.2Q448.25 282.45 446.85 341.75Q445.55 397.65 440.95 451.95Q433.85 444.55 435 430.35Q437.4 400.45 438.3 370.45Q440.05 310.65 442.35 251.15Q444.65 191.45 445.7 132Q445.85 124.05 447.1 116.85Q432.15 115.65 417.05 117.15Q398.3 119 383.45 110.5Q382.25 107.15 382.9 103.75L383 103L383.2 102.25L383.55 101.55Q384.1 100.55 384.95 100.25Q424.8 104.1 465.95 104.35Q492.15 104.5 515.7 112Q516.5 113.35 516.5 115M401.95,141.75L405.45 154.5Q397.05 149.55 387.3 149.55Q383 149.55 379.35 151.55Q365.4 159 358.3 173.7Q339.6 212.35 338.95 255.55Q366.1 245.15 393.85 243.95L394.15 244.3Q395.45 246.35 395.75 248.7Q396.1 251.15 395.45 253.55Q395 255.15 393.7 256.25L338.25 265.75Q337.15 284.5 336.75 303.45Q336.2 327.2 344.95 349L348.8 358.15Q352 365.6 358.85 368.05Q362.15 369.35 365.25 369.1Q377.6 367.5 388.9 362.35Q403.3 355.55 412.2 342.45Q417.4 355.45 407.55 365.2Q392.2 380.4 370.75 383.85Q346.1 387.55 338.95 361.25Q333.55 341.3 332.7 320.5Q331.85 299.75 331.8 278.8Q331.8 260.75 334 243.35Q336.55 222.9 339.95 202.45Q343.2 183.1 352.8 166.2Q363.8 146.7 382.95 135.75Q387.9 135.1 392.75 136.4Q397.95 138 401.95 141.75M327,341.05Q328.4 349.1 325.15 357.85Q317.65 377.85 301.55 391.45Q281.35 408.4 265.8 388.5Q252.25 371.15 250 349.2Q248.15 330.8 247.25 312.35Q246.35 294.05 247.3 275.6Q248.25 257.05 250.95 238.65Q254.15 217.2 260.6 196.55Q267.05 175.95 274.95 155.85Q284 132.95 306.8 130.85Q332.1 128.35 333.2 153Q318.65 137.5 297.95 143.25Q256.7 193 253.05 258.55Q284.95 247.7 314.25 256.2L313.95 264.5Q283.3 270.45 252 271.2Q251.05 288.75 251.95 306.15Q252.65 319.1 254.55 332.05Q256.6 346.35 260.45 360.35Q262.65 368.4 267.9 374.6Q275.8 383.85 287.15 379.65Q312.05 370.7 322.75 344.7L325.1 343.8L327 341.05M231.85,185.5Q226.05 244.15 226.3 304Q226.5 363.45 224.55 422.5Q224.4 426.75 221.7 429.95Q213.95 418.5 216.35 400.75Q220.4 371.5 220.95 341.75Q221.65 305.5 222.85 269.2Q207.2 275.3 190.55 270.3L189.2 336.5Q188.25 380.7 182.9 424.1Q182.5 427.5 180.45 430.2Q174.65 417.55 178.35 400.6Q181.55 386.15 181.85 370.95L184.7 251.75Q186.3 192.1 186.8 132.5Q186.95 114 190.2 98Q192.5 157.05 191.5 217.25L190.75 260.35Q206.55 259.3 223.3 256.05Q223.85 239.65 224.55 223.3L228.2 134.7Q229 114.55 231.2 97Q236.25 140.5 231.85 185.5M138.2,140.75Q129.15 112.65 100.2 108.4Q94.45 107.55 91.3 112.35Q69.7 145.35 89.5 181.65Q118.35 234.55 141.45 289.95Q158.5 330.8 152.25 374.35Q145.35 422.2 98.75 438.35Q62.55 450.85 32.6 428.1Q14.65 414.5 16.75 394.2L17.75 393.55Q18.5 393.1 19.25 392.95Q20.95 392.65 21.75 393.95L21.95 394.75L22.1 396.2L21.85 397.7L21.5 398.45Q44.85 435.55 90.6 426.4Q128.6 418.75 142.9 383.45Q152.85 358.9 146.3 333Q132.05 276.35 102.45 225.75Q78.45 184.7 76.45 138.65Q75.6 119.7 85.95 104.05Q91.7 95.3 101.95 94Q137.6 104 138.35 140L138.2 140.75" />
</g>
</svg>
