<?xml version="1.0" encoding="utf-8"?>
<svg version="1.1" id="Layer_1"
xmlns="http://www.w3.org/2000/svg"
xmlns:xlink="http://www.w3.org/1999/xlink"


xml:space="preserve">
q-14.4 -8.75 -31.45 -8.7q-38.05 16 -48.5 56.5q-4.75 18.4 -8.2 37.05q-10.8 58.4 -8.55 117.5q1.35 34.75 24.7 58.5q18.65 19 44.35 13.05q11.5 -2.65 19.35 -10.95q26.85 -28.35 27.85 -66.4q-0.5 0 -0.95 0.4q-8.15 33.45 -39.75 46q-9 3.6 -18.3 0.5q-35.15 -11.7 -40.55 -45.9q-6.8 -43 -3.35 -86.55q37.25 -2.25 71.75 6.25q1.8 -2.2 2 -5q0.2 -1.95 -0.1 -3.8q-0.25 -1.5 -0.95 -2.95q-22.9 -4.05 -46.45 -4.05q-1.1 0.6 -2.95 0.4q-12 -1.4 -21.75 1.85q1.1 -11.2 2.9 -22.45q5.35 -32.15 26.75 -55.5q6.4 -7 14.85 -10.15q34.8 -12.85 56.9 16.9q3.35 -7.15 -1.65 -14.15q-5.05 -6.95 -12.1 -12.1q-1.1 -0.25 -2.05 -0.8q1.2 58.8 0.7 117.75q-0.25 30.15 -3.2 59.85q-5.95 59.7 -9.6 118.6q67.7 9.9 138 7.75q4.85 -7.25 0 -14.75q-67.7 4.1 -131.75 -6.75q2.55 -33.8 6.3 -67.5q6.5 -58.95 5.65 -119.2q-0.85 -59.7 -3.45 -118.5q-2.9 10.25 -2.65 22.75q-7.65 26.1 -6.4 55.45q2.5 59.6 -1.65 119.05q-0.95 14.15 5.55 21.9q1.2 -38.4 1.5 -78q0.45 -60.4 1.5 -118.5q-1.35 0.5 -2.6 1.15q-0.45 1.05 -0.35 2.25q-1.05 3.55 -1.3 7.65q-2.8 59.15 -6 118.5q-3.25 59.45 -10.7 118.35q-1.75 13.6 4.15 21.7q4.45 -13.95 5.55 -29.1q4.25 -59.15 7.65 -118.6q9.7 -4.05 18.15 -10.05q18.25 56.4 40.3 111q10.95 27.15 17.8 55.55q3.7 15.35 11.65 26.65q1.4 -1.15 1.15 -2.85q-7.6 -45.85 -25.6 -89.6q-21.75 -52.95 -42.3 -105.1q11.9 -9.4 21.1 -23.05q31.9 -47.3 0.15 -94.85q-12.85 -8.35 -28 -9.3q-1.95 0.4 -3.75 1.05q-9.65 45.9 -51.5 67.3q1.6 -26.35 0.6 -51.55q35.65 -2.7 45.8 31.2q3.35 11.3 0.9 22.9<g id="2529" transform="matrix(1, 0, 0, 1, -68.85, 0)">
<path style="fill:#000000;fill-opacity:1" d="M369.45,85.25Q376.5 90.4 381.55 97.35Q386.55 104.35 383.2 111.5Q361.1 81.75 326.3 94.6Q317.85 97.75 311.45 104.75Q290.05 128.1 284.7 160.25L281.15 182.3Q279.35 193.55 278.25 204.75Q288 201.5 300 202.9Q301.85 203.1 302.95 202.5Q326.5 202.5 349.4 206.55L349.95 207L350.4 207.75Q351.1 209.2 351.35 210.7Q351.65 212.55 351.45 214.5Q351.25 217.3 349.45 219.5Q314.95 211 277.7 213.25L277.5 212.65Q274.05 256.2 280.85 299.2Q286.25 333.4 321.4 345.1Q330.7 348.2 339.7 344.6Q371.3 332.05 379.45 298.6L383.45 282.5L384.2 281.75L385 281Q385.45 280.6 385.95 280.6L386.95 281Q385.95 319.05 359.1 347.4Q351.25 355.7 339.75 358.35Q314.05 364.3 295.4 345.3Q272.05 321.55 270.7 286.8Q268.45 227.7 279.25 169.3Q282.7 150.65 287.45 132.25Q297.9 91.75 335.95 75.75Q353 75.7 367.4 84.45Q368.35 85 369.45 85.25M252.2,75Q254.8 133.8 255.65 193.5Q256.5 253.75 250 312.7Q246.25 346.4 243.7 380.2Q307.75 391.05 375.45 386.95Q380.3 394.45 375.45 401.7Q305.15 403.85 237.45 393.95Q241.1 335.05 247.05 275.35Q250 245.65 250.25 215.5Q250.75 156.55 249.55 97.75Q249.3 85.25 252.2 75M209.45,119.75Q208.4 177.85 207.95 238.25Q207.65 277.85 206.45 316.25Q199.95 308.5 200.9 294.35Q205.05 234.9 202.55 175.3Q201.3 145.95 208.95 119.85L209.45 119.75M95.2,71L95.3 72.95Q97.1 72.3 99.05 71.9L103.95 71.25Q119.1 72.2 131.95 80.55L132.95 81.25Q164.7 128.8 132.8 176.1Q123.6 189.75 111.7 199.15Q132.25 251.3 154 304.25Q172 348 179.6 393.85Q179.85 395.55 178.45 396.7Q170.5 385.4 166.8 370.05Q159.95 341.65 149 314.5Q126.95 259.9 108.7 203.5L108.25 201.7Q99.8 207.7 90.1 211.75L87.95 248.75Q84.55 308.2 80.3 367.35Q79.2 382.5 74.75 396.45Q68.85 388.35 70.6 374.75Q78.05 315.85 81.3 256.4Q84.5 197.05 87.3 137.9L90 86.9Q90.25 82.8 91.3 79.25L91 79.25L90.8 78.5L90.65 77Q90.55 75.8 91 74.75Q92.25 74.1 93.6 73.6L95.2 71M141.4,110Q131.25 76.1 95.6 78.8Q96.6 104 95 130.35L90.8 200.2Q132.65 178.8 142.3 132.9Q144.75 121.3 141.4 110" />
</g>
</svg>
