<?xml version="1.0" encoding="utf-8"?>
<svg version="1.1" id="Layer_1"
xmlns="http://www.w3.org/2000/svg"
xmlns:xlink="http://www.w3.org/1999/xlink"


xml:space="preserve">
q20.3 -18.3 50.45 -15.4q2.1 -4.9 -0.95 -8.95q-11.3 0.7 -19.4 8.4q-19.35 18.4 -24.5 45.05q-8 41.4 -10.95 83.55q-4.15 58.95 -4.35 118.45q-0.1 30 3.75 59.5q3.1 23.5 22.35 35.95q4.2 2.75 9.05 1.7q33.25 -7.25 57.9 -31.8q16.3 -16.25 12.65 -35.35q-16.5 25.95 -42.9 44.45q-16.25 11.4 -34.65 8.05q-4.1 -0.75 -6.15 -4.25q-16.25 -27.7 -16.95 -60.75q-1.15 -54.5 1.55 -109.1q28.75 -0.2 57 1.05q1.5 -3.25 1.05 -6.75q-0.2 -1.65 -1.25 -2.95q-0.25 -0.4 -0.5 -0.4q-21.75 -0.5 -43.5 -4.35q-8.3 -0.05 -16.5 3q3.25 -58.85 19.7 -115.15q2.7 -9.1 9.65 -15.4q-4.6 -21.15 -18.85 -37.75q-13.7 -15.85 -33.35 -23.05q-9.75 -3.5 -15.9 -1.85q-1.85 16.1 -2.45 33.05q-2.4 70 -2.7 140q-0.4 89.55 -9.8 178.55q-1.45 5.2 -0.05 13.65q1 6.05 3.5 11.8q6.9 -22.6 7.85 -46.65q2.7 -66.1 4.4 -132.25q13.15 1.1 25.95 -1.9q8.2 -2 15.75 -6.15q13.45 -7.55 20.45 -21.3q4.05 -8 5.85 -16.7q4.95 -21.15 4.95 -42.9q0 -21.85 -4.65 -43.1q-6.25 23 -25.85 33.35q-16.3 8.6 -34.8 7.3q2.9 -86.05 -0.45 -173.3q20.85 3.45 36.25 17.9q14.35 13.5 22.25 31.85q8.75 20.3 10.1 42.1q1.3 21.4 -4.35 42.1q3.15 59.75 1 119.25q-2.15 59.5 -3 118.4q0.3 1.75 2 2q0.75 -0.6 0.85 -1.3q3.9 -32.1 4.1 -65.15q0.35 -59.75 1.15 -119.25q0.8 -60.1 -1.85 -118.5q-6.05 30.6 -4.25 64.55q-4.85 1.55 -9.35 3.35q-0.65 1 -0.7 2.25q0.05 1.25 0.7 2.25q-4.6 36 -6.7 74.25q-0.9 0.95 -1 2.2q-0.2 2.25 0 4.55q0.1 1.35 0.65 2.65q-3.8 59.5 -10.65 118.5q-1.75 15 -5.4 29.6q-4.4 17.2 2.3 29.6q3.25 -10.45 4.6 -22.15q6.75 -58.75 10.9 -117.9q1.5 -21.15 3.15 -42.3q9.65 -5.1 18.5 -11.4q16.95 53.5 32.6 107.85q8.1 28.1 13.15 57.35q2.75 16 10.25 27.65q1.5 -0.6 1.3 -2.15q-5.3 -44.9 -18.25 -88.8q-15.6 -53.2 -36.55 -103.75q19.8 -15.05 29.05 -37.5q16.2 -39.2 9.7 -81.5q-8.2 -53.25 -59.25 -66.75q32.85 27.7 32.55 72.1q-0.4 62.85 -58.15 92q-10 -1.6 -18.1 -0.35q2.5 -31.95 5.3 -63.85q4.9 -56.15 3.55 -111.45q19.3 -1.55 34.85 11.55<g id="2514" transform="matrix(1, 0, 0, 1, -59.3, 0)">
<path style="fill:#000000;fill-opacity:1" d="M368.6,131.55Q352.15 187.85 348.9 246.7L349.15 246.45L350.45 245.25Q358.65 242.2 366.95 242.25Q388.7 246.1 410.45 246.6Q410.7 246.6 410.95 247Q412 248.3 412.2 249.95Q412.65 253.45 411.15 256.7L410.7 257.5Q382.45 256.25 353.7 256.45L348.35 256.35Q345.65 310.95 346.8 365.45Q347.5 398.5 363.75 426.2Q365.8 429.7 369.9 430.45Q388.3 433.8 404.55 422.4Q430.95 403.9 447.45 377.95Q451.1 397.05 434.8 413.3Q410.15 437.85 376.9 445.1Q372.05 446.15 367.85 443.4Q348.6 430.95 345.5 407.45Q341.65 377.95 341.75 347.95Q341.95 288.45 346.1 229.5Q349.05 187.35 357.05 145.95Q362.2 119.3 381.55 100.9Q389.65 93.2 400.95 92.5L428.2 91Q431.25 95.05 429.15 99.95L428.7 100.75Q398.55 97.85 378.25 116.15Q371.3 122.45 368.6 131.55M336.9,178.1Q336.9 199.85 331.95 221Q330.15 229.7 326.1 237.7Q319.1 251.45 305.65 259Q298.1 263.15 289.9 265.15Q277.1 268.15 263.95 267.05Q262.25 333.2 259.55 399.3Q258.6 423.35 251.7 445.95Q249.2 440.2 248.2 434.15Q246.8 425.7 248.25 420.5L249.2 423.95Q258.6 334.95 259 245.4Q259.3 175.4 261.7 105.4Q262.3 88.45 264.15 72.35Q270.3 70.7 280.05 74.2Q299.7 81.4 313.4 97.25Q327.65 113.85 332.25 135Q336.9 156.25 336.9 178.1M333.2,171.25Q331.85 149.45 323.1 129.15Q315.2 110.8 300.85 97.3Q285.45 82.85 264.6 79.4Q267.95 166.65 265.05 252.7L268.2 254Q286.7 255.3 303 246.7Q322.6 236.35 328.85 213.35Q334.5 192.65 333.2 171.25M218.2,96.5Q220.85 154.9 220.05 215Q219.25 274.5 218.9 334.25Q218.7 367.3 214.8 399.4Q214.7 400.1 213.95 400.7Q212.25 400.45 211.95 398.7Q212.8 339.8 214.95 280.3Q217.1 220.8 213.95 161.05Q212.15 127.1 218.2 96.5M104.95,65.5Q156 79 164.2 132.25Q170.7 174.55 154.5 213.75Q145.25 236.2 125.45 251.25Q146.4 301.8 162 355Q174.95 398.9 180.25 443.8Q180.45 445.35 178.95 445.95Q171.45 434.3 168.7 418.3Q163.65 389.05 155.55 360.95Q139.9 306.6 122.95 253.1Q114.1 259.4 104.45 264.5L102.95 264.85L84.65 264.1Q83 285.25 81.5 306.4Q77.35 365.55 70.6 424.3Q69.25 436 66 446.45Q59.3 434.05 63.7 416.85Q67.35 402.25 69.1 387.25Q75.95 328.25 79.75 268.75L80.15 262.4Q79.6 261.1 79.5 259.75Q79.3 257.45 79.5 255.2Q79.6 253.95 80.5 253L80.75 252.95L86.7 150.95Q88.8 112.7 93.4 76.7L92.75 76.75Q92.1 75.75 92.05 74.5L92.05 71.5Q92.1 70.25 92.75 69.25Q97.25 67.45 102.1 65.9L104.95 65.5M94.45,76.6Q95.8 131.9 90.9 188.05Q88.1 219.95 85.6 251.9Q93.7 250.65 103.7 252.25Q161.45 223.1 161.85 160.25Q162.15 115.85 129.3 88.15Q113.75 75.05 94.45 76.6" />
</g>
</svg>
