<?xml version="1.0" encoding="utf-8"?>
<svg version="1.1" id="Layer_1"
xmlns="http://www.w3.org/2000/svg"
xmlns:xlink="http://www.w3.org/1999/xlink"


xml:space="preserve">
q-19.7 56.3 -35.6 114.2q-15.7 57 -29.4 113.9q-5.5 -20.75 -10.7 -42.3q-13.95 -57.4 -29.25 -114.4q-15.4 -57.45 -29.55 -114.25q-1.25 -0.3 -1.2 0.7q1.25 35.8 11.8 71.5q16.9 56.95 30.6 114.25q13.65 56.95 24.05 114.25q1.15 1.7 3.25 2q8.4 -19.65 13.25 -41.6q12.7 -57.8 28.5 -115.15q16 -58.25 39.1 -113.8q7.05 -16.95 -1.85 -28.15q-5.55 5.55 -4.5 9.75q-3.75 14.7 -9 29.75q6.55 -24.95 -21.05 -23.5q-21.7 1.15 -34.2 19.4q-12 17.4 -17.3 37.95q-5.35 20.7 -7.45 42.1q-2.1 21 -1.15 42.1q0.95 21.8 12.6 39.1q12.35 18.3 34.8 11.55q21.4 -6.5 35.7 -23.75q14.6 -17.65 14.3 -38.45q-21.05 37.2 -62 46.7q-13.35 3.05 -18.9 -8q-9.35 -18.5 -10.7 -39.15q-0.95 -14.3 1.85 -28.25q30.45 6.05 60.75 -1q4.55 -8.2 -1.75 -15q-28.55 5.55 -57.75 4.1q1.3 -61.05 56.1 -72.2q7.35 -1.5 11.9 5.25q-21.3 31.2 -57.6 33.75q4.7 -54.15 6.25 -107q2.05 -0.2 3.9 -1q7.3 -3.3 15.25 -0.7q40.6 13.25 38.85 55.95q-0.5 11.35 -6.8 20.6q-4.25 23.8 -3.65 49.45q1.5 59.2 2.15 118.5q-2.6 7.4 1 14.25q2.1 1.25 2.4 -0.9q4.05 -30.45 3.65 -62.85q-0.7 -59.9 -5.05 -118.5q-0.8 -0.15 -0.85 0.35q-3.55 3.9 -1.4 8.55q-7.85 50 -11.4 101.65q-0.9 1.35 -1.3 3q-0.9 3.7 -0.25 7.5q0.4 2.4 2.3 3.75q-3.85 47.9 -10.1 95.5q-1.95 14.95 -4.95 29.6q-3.6 17.15 3.55 29.6q6.4 -25.7 9.2 -53.05q5.2 -50.7 9.75 -101.5q15.6 -0.45 29.8 -6.8q1.8 14.6 8.4 28.55q25.45 53.65 37.7 111.5q3.45 16.3 12.6 26.55q1.85 -1.85 1.45 -4.4q-4.8 -30.45 -14.45 -61q-16.9 -53.5 -41.5 -103.25q7.85 -4.75 13.85 -11.55q26.05 -29.6 17.3 -69.55q-8.35 -38.35 -47.15 -46.15q-8.3 -0.65 -14.5 4.95<g id="2516" transform="matrix(1, 0, 0, 1, -77.35, 0)">
<path style="fill:#000000;fill-opacity:1" d="M380.95,101.6L380.45 102.25Q379.4 98.05 384.95 92.5Q393.85 103.7 386.8 120.65Q363.7 176.2 347.7 234.45Q331.9 291.8 319.2 349.6Q314.35 371.55 305.95 391.2Q303.85 390.9 302.7 389.2Q292.3 331.9 278.65 274.95Q264.95 217.65 248.05 160.7Q237.5 125 236.25 89.2Q236.2 88.2 237.45 88.5Q251.6 145.3 267 202.75Q282.3 259.75 296.25 317.15Q301.45 338.7 306.95 359.45Q320.65 302.55 336.35 245.55Q352.25 187.65 371.95 131.35Q377.2 116.3 380.95 101.6M432.8,157.65Q378 168.8 376.7 229.85Q405.9 231.3 434.45 225.75Q440.75 232.55 436.2 240.75Q405.9 247.8 375.45 241.75L374.95 240L373.95 245.05Q371.15 259 372.1 273.3Q373.45 293.95 382.8 312.45Q388.35 323.5 401.7 320.45Q442.65 310.95 463.7 273.75Q464 294.55 449.4 312.2Q435.1 329.45 413.7 335.95Q391.25 342.7 378.9 324.4Q367.25 307.1 366.3 285.3Q365.35 264.2 367.45 243.2Q369.55 221.8 374.9 201.1Q380.2 180.55 392.2 163.15Q404.7 144.9 426.4 143.75Q454 142.3 447.45 167.25L444.7 162.9Q440.15 156.15 432.8 157.65M169.15,164.5Q170.9 121.8 130.3 108.55Q122.35 105.95 115.05 109.25Q113.2 110.05 111.15 110.25Q109.6 163.1 104.9 217.25L104.75 218.85Q141.05 216.3 162.35 185.1Q168.65 175.85 169.15 164.5M228.45,149.75Q232.8 208.35 233.5 268.25Q233.9 300.65 229.85 331.1Q229.55 333.25 227.45 332Q223.85 325.15 226.45 317.75Q225.8 258.45 224.3 199.25Q223.7 173.6 227.95 149.8L228.45 149.75M111.45,99.95Q117.65 94.35 125.95 95Q164.75 102.8 173.1 141.15Q181.85 181.1 155.8 210.7Q149.8 217.5 141.95 222.25L137.45 224.8Q162.05 274.55 178.95 328.05Q188.6 358.6 193.4 389.05Q193.8 391.6 191.95 393.45Q182.8 383.2 179.35 366.9Q167.1 309.05 141.65 255.4Q135.05 241.45 133.25 226.85Q119.05 233.2 103.45 233.65Q98.9 284.45 93.7 335.15Q90.9 362.5 84.5 388.2Q77.35 375.75 80.95 358.6Q83.95 343.95 85.9 329Q92.15 281.4 96 233.5L90.5 233Q88.6 231.65 88.2 229.25Q87.55 225.45 88.45 221.75Q88.85 220.1 89.75 218.75L97.1 219.1L97.65 211.15Q101.2 159.5 109.05 109.5Q106.9 104.85 110.45 100.95L110.6 99.85Q110.65 99.35 111.45 99.5L111.45 99.95" />
</g>
</svg>
