<?xml version="1.0" encoding="utf-8"?>
<svg version="1.1" id="Layer_1"
xmlns="http://www.w3.org/2000/svg"
xmlns:xlink="http://www.w3.org/1999/xlink"


xml:space="preserve">
q-18.6 -3.65 -37.65 -3.35q-21.85 1 -43.55 3.45q-1.3 0.45 -1.8 2.05q-6.75 62.05 -9.9 124.6q-2.4 48.4 -5.75 97q-0.75 10.95 3.15 21.05q4.7 -6.15 5.1 -14.15q33.65 -8.05 67.85 -3.25q1.9 -2.25 2.15 -5.15q-35.35 -6.9 -67.7 5.15q1.75 -1.8 2.05 -4.25q-6.5 8.8 -9.8 19.6q-14.75 47.65 -14.55 97.95q0.1 33.05 32.05 40.7q12.9 3.05 25.5 -0.25q31.5 -8.25 33.05 -36.95q-5.3 2.4 -9.75 6.25q-26.35 22.6 -59.1 12.6q-5.2 -1.6 -7.15 -6q-13.2 -29.65 -5.95 -62.5q28.5 -1.95 57.7 -6.8q1.25 -2.1 1.5 -4.5q0.5 -4.15 -1.75 -7.5q-25.25 1.15 -48.8 8.15q2.8 -11.45 4.8 -22.95q3.55 -20.6 19.3 -33.2q18.8 -15 36.2 -2q-2.35 -18.5 -21.6 -19.5q-16.05 5.1 -26 18.65q-0.8 22.85 -16.2 40.05q-14.9 16.65 -37 17.9q-7.9 0.25 -15.6 -1.9q6.6 -53.4 9.5 -106.45q24.8 -2.9 42.35 14.6q15.35 15.35 14.55 37.5q-2.9 59.25 -7.55 118.5q-1.35 17.4 4.9 29.05q4.35 -18.35 5.2 -38.15q2.5 -59.75 1.55 -118.55q-3.8 2.9 -4.1 9.15q-4.45 26.8 -7.6 55.1q-2.6 23.35 -4.8 46.8q-4.75 7.3 0.05 11.65q-2.7 29.85 -4.75 59.85q-1.05 15.25 -6.25 29.45q-6 16.45 0.95 29q3.3 -6.65 4.55 -14.2q7.95 -47.55 11.65 -95.95q17 6.25 32.2 -0.85q1 7.4 4.9 15.15q6.85 13.7 11.25 28.35q13.35 44.45 38 80.5q4.95 -6.75 0.5 -14.55q-3.35 -5.95 -5.9 -12.2q-20.75 -50.95 -43.7 -100q44.15 -30.85 32.8 -84.3q-9 -42.35 -52.2 -43.5q-11.8 0.75 -16 11.05q-1.3 3.1 0.5 5.7<g id="2517" transform="matrix(1, 0, 0, 1, -95.55, 0)">
<path style="fill:#000000;fill-opacity:1" d="M353.45,143.75L274.25 141.8L272.15 236.6Q304.5 224.55 339.85 231.45L340.15 231.8L340.55 232.55L341.1 234.05L341.6 237.05L341.6 239.85Q341.35 242.75 339.45 245Q305.25 240.2 271.6 248.25L265.55 370.3Q265.15 378.3 260.45 384.45Q256.55 374.35 257.3 363.4Q260.65 314.8 263.05 266.4Q266.2 203.85 272.95 141.8L271.35 140.95L271 139.5L270.75 137.65L270.7 135.75L270.9 134.55L271.2 133.4Q271.7 131.8 273 131.35Q294.7 128.9 316.55 127.9Q335.6 127.6 354.2 131.25L355.05 133.55L355.55 136.5L355.5 139.5Q355.2 141.95 353.45 143.75M399.95,170.75Q419.2 171.75 421.55 190.25L421.45 191Q404.05 178 385.25 193Q369.5 205.6 365.95 226.2Q363.95 237.7 361.15 249.15Q384.7 242.15 409.95 241L414.4 241.5L415.7 242Q417.95 245.35 417.45 249.5Q417.2 251.9 415.95 254Q386.75 258.85 358.25 260.8Q351 293.65 364.2 323.3Q366.15 327.7 371.35 329.3Q404.1 339.3 430.45 316.7Q434.9 312.85 440.2 310.45Q438.65 339.15 407.15 347.4Q394.55 350.7 381.65 347.65Q349.7 340 349.6 306.95Q349.4 256.65 364.15 209Q367.45 198.2 373.95 189.4Q383.9 175.85 399.95 170.75M174.35,153.35Q156.8 135.85 132 138.75L129.6 140.45Q126.7 193.5 120.1 246.9Q127.8 249.05 135.7 248.8Q157.8 247.55 172.7 230.9Q188.1 213.7 188.9 190.85Q189.7 168.7 174.35 153.35M241.45,173.5Q242.4 232.3 239.9 292.05Q239.05 311.85 234.7 330.2Q228.45 318.55 229.8 301.15Q234.45 241.9 237.35 182.65Q237.65 176.4 241.45 173.5M123.5,143.5Q121.7 140.9 123 137.8Q127.2 127.5 139 126.75Q182.2 127.9 191.2 170.25Q202.55 223.7 158.4 254.55L156.35 255.95Q179.3 305 200.05 355.95Q202.6 362.2 205.95 368.15Q210.4 375.95 205.45 382.7Q180.8 346.65 167.45 302.2Q163.05 287.55 156.2 273.85Q152.3 266.1 151.3 258.7Q136.1 265.8 119.1 259.55L118.7 264.3Q115 312.7 107.05 360.25Q105.8 367.8 102.5 374.45Q95.55 361.9 101.55 345.45Q106.75 331.25 107.8 316Q109.85 286 112.55 256.15Q107.75 251.8 112.5 244.5L113.6 244.9Q115.8 221.45 118.4 198.1Q121.55 169.8 126 143L123.5 143.5" />
</g>
</svg>
