<?xml version="1.0" encoding="utf-8"?>
<svg version="1.1" id="Layer_1"
xmlns="http://www.w3.org/2000/svg"
xmlns:xlink="http://www.w3.org/1999/xlink"


xml:space="preserve">
q-6.7 21.1 -9.35 42.95q-2.4 19.8 -3.05 40q-0.7 21.75 -0.05 43.4q0.65 21.75 2.45 43.3q1.7 20.8 12.45 38.7q8.45 14 21.15 24.2q37.05 -1.05 60.3 -34.45q6.75 -9.7 1.55 -19.95q-13.05 27.95 -45.55 30.2q-40.45 -39.95 -33.9 -99.4q2.15 -19.4 3.05 -39.05q24.95 4.4 48.1 -5.25q2.25 -4.25 -0.1 -8.25q-0.9 -1.5 -2.4 -2.5q-1.65 -64.95 40.4 -111.65q11.95 -13.25 30.1 -12.8q8.65 0.25 16.75 2.6q-9.6 -24.4 -34.55 -12.65q-19.7 9.2 -30.55 28.1q-10.15 17.6 -16.25 36.95q-18.4 16.3 -42.25 23.15q-18.9 6.65 -38.4 6.6q7.1 -44.6 9.75 -90.05q2.6 -44.25 5.9 -88.4q3.95 -52.85 1.7 -105.35q13.15 7.35 22.7 19.65q7.55 9.8 11.95 21.2q21.55 56.15 20.8 117.15q-0.55 42.8 -19.2 80.2q-3.45 1.8 -6 4.1q1.5 -59.9 -13.55 -117.7q-16.5 -63.5 -80.4 -75.05q-1.35 2.8 -2.1 6.1q-0.6 3.15 -0.6 6.75q-0.55 59.6 -4.35 118.55q-3.85 59.45 -10.65 118.3q-2.7 23.5 -2.25 45.9q-1.35 3.2 -1.4 6.7q-0.05 4.1 2.8 6.75q17.85 3.05 34.3 -2.9q9.15 -3.25 18.15 -5.8q23 -6.5 36.8 -25.9q25.35 -35.55 26.45 -80.85q-5.35 49 -8.05 98.7q-3.25 59.45 -3.85 119.3q-0.35 29.85 -4.9 59q-2.6 16.85 3.7 29.45q6.15 -5.25 2.5 -12.75q5.25 -57.65 5.95 -116.2q0.4 -29.95 2.65 -59.9q4.5 -59.35 2.65 -117.85q-0.6 -0.2 -0.65 0.25q-4.65 13.2 -5.45 29.2q-2.95 58.8 -11.2 116.95q-8.35 58.8 -15.4 117.85q-1.8 14.9 -4.7 29.65q-3.35 16.95 3.05 29.55q7.7 -43.3 13.15 -88.25q12.4 -5.95 23.55 -13.95q18.15 55.5 31.4 113q6.95 30.3 20.75 55.5q2.15 -1.5 1.55 -4q-8.05 -33.15 -16.65 -66.7q-13.65 -53.15 -32.35 -102.4q51.35 -40.8 33.45 -104.7q-10.55 -37.6 -47.85 -46.2q-3.85 1.35 -7.85 3.45q-1.7 0.9 -3.65 1.3q-0.65 0.8 -1.15 1.75q8.3 -4.35 16.9 -0.05q26.95 13.55 34.4 42.05q4.2 16 0.95 31.8q-10.75 52.55 -63.9 68.1q6.75 -53 6.15 -105.45q2.85 0 5.45 -1.4<g id="2521" transform="matrix(1, 0, 0, 1, -56.1, 0)">
<path style="fill:#000000;fill-opacity:1" d="M403.1,141.7Q413.95 122.8 433.65 113.6Q458.6 101.85 468.2 126.25Q460.1 123.9 451.45 123.65Q433.3 123.2 421.35 136.45Q379.3 183.15 380.95 248.1L425.95 241.75Q427.45 242.75 428.35 244.25Q430.7 248.25 428.45 252.5Q405.3 262.15 380.35 257.75Q379.45 277.4 377.3 296.8Q370.75 356.25 411.2 396.2L414.95 396.15Q447.45 393.9 460.5 365.95L469.3 356.45L472.3 356.8Q477.5 367.05 470.75 376.75Q447.5 410.15 410.45 411.2Q397.75 401 389.3 387Q378.55 369.1 376.85 348.3Q375.05 326.75 374.4 305Q373.75 283.35 374.45 261.6Q375.1 241.4 377.5 221.6Q380.15 199.75 386.85 178.65Q392.95 159.3 403.1 141.7M336.2,361.7Q354.85 324.3 355.4 281.5Q356.15 220.5 334.6 164.35Q330.2 152.95 322.65 143.15Q313.1 130.85 299.95 123.5L266.9 111.75Q269.15 164.25 265.2 217.1Q261.9 261.25 259.3 305.5Q256.65 350.95 249.55 395.55Q269.05 395.6 287.95 388.95Q311.8 382.1 330.2 365.8Q332.75 363.5 336.2 361.7M334.7,375.85Q320.9 395.25 297.9 401.75Q288.9 404.3 279.75 407.55Q263.3 413.5 245.45 410.45Q242.6 407.8 242.65 403.7Q242.7 400.2 244.05 397L244.7 395.45L245.95 395.5Q245.5 373.1 248.2 349.6Q255 290.75 258.85 231.3Q262.65 172.35 263.2 112.75Q263.2 109.15 263.8 106L264.1 104.6Q264.85 101.3 266.2 98.5L266.4 102.2L267.2 102.25Q331.1 113.8 347.6 177.3Q362.65 235.1 361.15 295Q360.05 340.3 334.7 375.85M218.2,105.25Q220.05 163.75 215.55 223.1Q213.3 253.05 212.9 283Q212.2 341.55 206.95 399.2Q210.6 406.7 204.45 411.95Q198.15 399.35 200.75 382.5Q205.3 353.35 205.65 323.5Q206.25 263.65 209.5 204.2Q212.2 154.5 217.55 105.5Q217.6 105.05 218.2 105.25M97.45,92.25Q99.4 91.85 101.1 90.95Q105.1 88.85 108.95 87.5Q146.25 96.1 156.8 133.7Q174.7 197.6 123.35 238.4L122.5 239.1Q141.2 288.35 154.85 341.5Q163.45 375.05 171.5 408.2Q172.1 410.7 169.95 412.2Q156.15 387 149.2 356.7Q135.95 299.2 117.8 243.7L117.55 242.8Q106.4 250.8 94 256.75L88.5 256.5L87.5 255.7L87 255.25L86.75 255L84.55 254.5L84.45 254.45L75.65 324.95Q70.2 369.9 62.5 413.2Q56.1 400.6 59.45 383.65Q62.35 368.9 64.15 354Q71.2 294.95 79.55 236.15Q87.8 178 90.75 119.2Q91.55 103.2 96.2 90L96.3 94Q96.8 93.05 97.45 92.25M96.45,102.5Q97.05 154.95 90.3 207.95L86.1 241.15L90.25 243Q143.4 227.45 154.15 174.9Q157.4 159.1 153.2 143.1Q145.75 114.6 118.8 101.05Q110.2 96.75 101.9 101.1Q99.3 102.5 96.45 102.5" />
</g>
</svg>
