<?xml version="1.0" encoding="utf-8"?>
<svg version="1.1" id="Layer_1"
xmlns="http://www.w3.org/2000/svg"
xmlns:xlink="http://www.w3.org/1999/xlink"


xml:space="preserve">
q0.4 -0.25 1 -0.3q13.45 26 22.9 54.95q5.75 17.7 11.15 35.55q7.75 25.65 18.9 49.8q5.85 12.65 10.35 25.8q0.25 -2.75 0.8 -5.65q2.75 -14.7 3.35 -29.75q2.5 -59.25 4.5 -118.5q0.3 -8.3 4.8 -13.45q-0.55 35.55 -7.4 68.6q-6.8 -6.15 -10 -18.85q-1.85 -7.3 -4.45 -14.65q-19.4 -55.4 -38.35 -111.35q-5.45 -16.15 -12.15 -32q3.15 50.8 1.55 102.45q-1.15 37.1 -7.2 72.75q-6.35 -8.15 -4 -21.75q2.5 -14.65 3.4 -29.75q3.4 -58.9 1.55 -118.45q-0.4 -12.1 3.55 -21.25q6.75 28.25 5.4 59.3q-1.95 44.5 -3.4 89.15q0.05 7.55 -5 11.25q-2.05 -28.7 -0.2 -59.35q1.8 -29.95 2.6 -59.85q0.95 -37.3 1.1 -72.75q43.55 0.4 53.85 40.6q2.25 8.6 -0.4 17.1q-7.75 25.2 -26.9 37.4q13.95 46.45 35.9 89.9q2.35 4.7 -0.75 8.95q-16 -23.15 -27.8 -51.9q-9.15 -22.3 -10.55 -45.05q-10.7 5.85 -24.55 8.1q-1.85 37.05 -7.05 73.4q-0.25 1.85 -1.65 3q-5.1 -12.55 -2.9 -29.45q3.8 -29.45 4.5 -59.05q-0.25 -1.1 -0.2 -2.3q0.05 -1.85 0.4 -3.6q1.5 -44.3 6.65 -87.35q-0.35 -1.35 -0.35 -2.75q-0.05 -2.2 1.15 -3.5q-16.35 -27.25 -47.85 -27.45q0.9 40.6 -0.4 81.7q45.4 -6.4 49.4 -50.15q0.15 -1.95 -1.15 -4.1<g id="2519" transform="matrix(1, 0, 0, 1, -133.4, 0)">
<path style="fill:#000000;fill-opacity:1" d="M331.45,182.3Q331.85 182.05 332.45 182Q345.9 208 355.35 236.95Q361.1 254.65 366.5 272.5Q374.25 298.15 385.4 322.3Q391.25 334.95 395.75 348.1Q396 345.35 396.55 342.45Q399.3 327.75 399.9 312.7Q402.4 253.45 404.4 194.2Q404.7 185.9 409.2 180.75L407.5 298.45Q406.95 334 400.1 367.05L399.75 368.8L398.95 372.45L398.65 371.65L397.7 373.2Q390.9 367.05 387.7 354.35Q385.85 347.05 383.25 339.7Q363.85 284.3 344.9 228.35Q339.45 212.2 332.75 196.35L332.35 195.25Q335.5 246.05 333.9 297.7Q332.75 334.8 326.7 370.45Q320.35 362.3 322.7 348.7Q325.2 334.05 326.1 318.95Q329.5 260.05 327.65 200.5Q327.25 188.4 331.2 179.25L331.45 182.3M278.45,179.75Q285.2 208 283.85 239.05Q281.9 283.55 280.45 328.2L279.45 360.45Q279.5 368 274.45 371.7Q272.4 343 274.25 312.35Q276.05 282.4 276.85 252.5Q277.8 215.2 277.95 179.75L278.45 179.75M149,181Q192.55 181.4 202.85 221.6Q205.1 230.2 202.45 238.7Q194.7 263.9 175.55 276.1Q189.5 322.55 211.45 366Q213.8 370.7 210.7 374.95Q194.7 351.8 182.9 323.05Q173.75 300.75 172.35 278Q161.65 283.85 147.8 286.1L147.2 299.05Q145.35 336.1 140.15 372.45Q139.9 374.3 138.5 375.45Q133.4 362.9 135.6 346Q139.4 316.55 140.1 286.95L140.25 281.5Q140 280.4 140.05 279.2Q140.1 277.35 140.45 275.6Q141.95 231.3 147.1 188.25Q146.75 186.9 146.75 185.5Q146.7 183.3 147.9 182L147.95 181.3L148.5 181.25L148.5 181.4L148.9 181.15L149 181M196.6,217.45Q180.25 190.2 148.75 190Q149.65 230.6 148.35 271.7Q193.75 265.3 197.75 221.55Q197.9 219.6 196.6 217.45" />
</g>
</svg>
