<?xml version="1.0" encoding="utf-8"?>
<svg version="1.1" id="Layer_1"
xmlns="http://www.w3.org/2000/svg"
xmlns:xlink="http://www.w3.org/1999/xlink"


xml:space="preserve">
q-21.65 -1.3 -44 -0.8q-19.9 1.1 -39.95 3.8q-3 0.4 -5.55 1.95q-0.85 2.15 -0.95 4.5q-0.2 3.1 1.2 5.85q-1.45 5.9 -1.4 12.8q0.05 59.7 -2.95 119.2q-0.4 7.4 -1.8 14.65q-3.3 16.7 2.75 30.1q6.75 -8.5 4.5 -19q2.55 -55.95 -0.3 -110.6q24.75 -0.8 49.55 -0.35q1.3 -2.1 1.7 -4.5q0.7 -4.35 -1.65 -8.15q-8.05 9.85 -1.35 20.85q3.45 41.65 -4.3 81.65q-4.9 3.85 -10.25 3.5q-9.8 -8 -10.25 -18.75q-2 -2.35 -5 -1.25q-5.9 18.85 11.9 32.25q13.2 9.95 18.4 -7.35q8.35 -27.7 7.8 -57.4q-0.6 -30.55 -3.35 -59.2q-6.3 10.8 -4.95 26.55q-0.75 67.55 -9.4 134.45q-1.75 13.35 -1.8 26.85q-0.05 9.15 3.05 17.9q8.75 -41.05 11 -82.95q15.05 47.4 38.05 91.4q-3.15 -47.6 -31.9 -95.95q23.05 -21.25 18.95 -53.05q-0.95 -7.3 -3.4 -14.25q-3.6 -10.1 -10.8 -18.1q-5 -5.6 -11.3 -9.6q15.6 17.5 11.45 40.35q-4.25 23.45 -26.05 31.9q-3.7 1.5 -7.8 2.35q10.65 -0.1 20.25 4.35q-3.45 45.25 -6 90.65q-2.1 37.55 5.9 73.25q3.55 16 19.85 18.6q18.65 2.95 29.8 -11.45q18.8 -24.3 21.35 -55.8q4.9 -60.15 -4.9 -117.8q-1 -0.2 -1.05 0.55q-2.45 33.75 -0.2 68.95q2.9 46.55 -14.5 88.45q-10.75 11.25 -26.7 11.85q-5.9 0.2 -9.65 -3.85q-17.05 -18.75 -14.85 -46.6q4.7 -59.35 1.95 -117.6q-1 0.35 -1 0.8<g id="2362" transform="matrix(1, 0, 0, 1, -133.9, 0)">
<path style="fill:#000000;fill-opacity:1" d="M399.45,179L400.25 179.85Q402.6 183.65 401.9 188Q401.5 190.4 400.2 192.5Q375.4 192.05 350.65 192.85Q353.5 247.5 350.95 303.45L348.45 350.7Q350.7 361.2 343.95 369.7Q337.9 356.3 341.2 339.6Q342.6 332.35 343 324.95Q346 265.45 345.95 205.75Q345.9 198.85 347.35 192.95L309.45 195L308.7 194.1Q307.3 191.35 307.5 188.25Q307.6 185.9 308.45 183.75Q311 182.2 314 181.8Q334.05 179.1 353.95 178Q376.3 177.5 397.95 178.8L399.45 179M400.65,213.75L397.8 232.85L397.6 233.05Q390.9 222.05 398.95 212.2L400.65 213.75M399.2,240Q401.95 268.65 402.55 299.2Q403.1 328.9 394.75 356.6Q389.55 373.9 376.35 363.95Q358.55 350.55 364.45 331.7Q367.45 330.6 369.45 332.95Q369.9 343.7 379.7 351.7Q385.05 352.05 389.95 348.2Q397.7 308.2 394.25 266.55Q392.9 250.8 399.2 240M175.8,188.85Q183 196.85 186.6 206.95Q189.05 213.9 190 221.2Q194.1 253 171.05 274.25Q199.8 322.6 202.95 370.2Q179.95 326.2 164.9 278.8L148 286.5Q145.75 328.4 137 369.45Q133.9 360.7 133.95 351.55Q134 338.05 135.75 324.7Q144.4 257.8 145.15 190.25L144.5 182L146.35 181.1L147.15 177.05L147.75 180.5L151.25 179.7L164.5 179.25Q170.8 183.25 175.8 188.85M168.6,194.4Q159 189.95 148.35 190.05L148.85 270.35Q152.95 269.5 156.65 268Q178.45 259.55 182.7 236.1Q186.85 213.25 171.25 195.75L168.6 194.4M228.45,182.75Q231.2 241 226.5 300.35Q224.3 328.2 241.35 346.95Q245.1 351 251 350.8Q266.95 350.2 277.7 338.95Q295.1 297.05 292.2 250.5Q289.95 215.3 292.4 181.55Q292.45 180.8 293.45 181Q303.25 238.65 298.35 298.8Q295.8 330.3 277 354.6Q265.85 369 247.2 366.05Q230.9 363.45 227.35 347.45Q219.35 311.75 221.45 274.2Q224 228.8 227.45 183.55Q227.45 183.1 228.45 182.75" />
</g>
</svg>
