<?xml version="1.0" encoding="utf-8"?>
<svg version="1.1" id="Layer_1"
xmlns="http://www.w3.org/2000/svg"
xmlns:xlink="http://www.w3.org/1999/xlink"


xml:space="preserve">
q0.15 24.6 5.05 49.45q6.05 28.85 7.9 58.25q1.05 16.7 7.8 28.65q8.6 -12.9 12.7 -28.3q15.65 -59.1 38.45 -115.95q9.05 -22.55 4.35 -43.95q-2.65 0.4 -3.5 3.25q-1 1.35 -3.5 1.5q0.9 0.75 2.5 1.5q-3.95 22.25 -11.75 43.75q-20.8 57.2 -37.75 114.7q-2.45 -25.45 -7.25 -50.6q-11.15 -58.45 -24.75 -115.6q-1 -0.2 -1 0.5q-3.6 57.8 -4.4 116.3q-0.45 30.75 19.35 50.9q3.85 3.9 9 4.3q32.7 2.55 47.5 -27.25q15.55 -31.3 16.05 -66.95q0.45 -29.8 -0.7 -59.3q-0.65 -17.45 -7.5 -28.9q-3.9 11.65 -2.25 24.75q4.75 36.8 3.15 74.25q-1.4 32.55 -22.95 56q-16.25 17.7 -38.35 8.45q-2.6 -1.1 -3.95 -3.15q-13.3 -20.25 -12.15 -45.6q2.7 -60.15 2 -118.45q-4.25 5.65 -4.8 14.65q-0.55 1.8 -0.7 3.7q-0.1 1.4 0.25 2.65q-3.35 37.25 -4.6 75.6q-1.5 2.15 -1.8 4.85q-0.35 3.8 1.15 6.75q-1.3 19.5 -3.75 38.85q-3 23.2 -0.25 44.4q5.95 -6.55 6.8 -17.15q12.25 -0.4 21.65 -5.8q6.15 18.05 11.25 36.7q8.1 29.6 24.75 51.8q3.35 -4.6 1.85 -10.3q-2.3 -8.75 -5.35 -17.2q-12.05 -33.4 -27.25 -64.6q7.8 -6.25 13.25 -16.75q8.35 -16.1 8.15 -34.6q-0.4 -35.25 -30.35 -50.25q-9.95 -0.95 -18.3 4.25q24.1 -4.2 35.45 18.05q10.55 20.7 -0.6 41.45q-5.25 9.7 -14.5 15.5q-6.1 4.55 -14.25 5.1<g id="2354" transform="matrix(1, 0, 0, 1, -137.75, 0)">
<path style="fill:#000000;fill-opacity:1" d="M333.45,180.5Q347.05 237.65 358.2 296.1Q363 321.25 365.45 346.7Q382.4 289.2 403.2 232Q411 210.5 414.95 188.25Q413.35 187.5 412.45 186.75Q414.95 186.6 415.95 185.25Q416.8 182.4 419.45 182Q424.15 203.4 415.1 225.95Q392.3 282.8 376.65 341.9Q372.55 357.3 363.95 370.2Q357.2 358.25 356.15 341.55Q354.3 312.15 348.25 283.3L337.5 230.45Q332.6 205.6 332.45 181Q332.45 180.3 333.45 180.5M235.45,178.5Q236.15 236.8 233.45 296.95Q232.3 322.3 245.6 342.55Q246.95 344.6 249.55 345.7Q271.65 354.95 287.9 337.25Q309.45 313.8 310.85 281.25Q312.45 243.8 307.7 207Q306.05 193.9 309.95 182.25Q316.8 193.7 317.45 211.15Q318.6 240.65 318.15 270.45Q317.65 306.1 302.1 337.4Q287.3 367.2 254.6 364.65Q249.45 364.25 245.6 360.35Q225.8 340.2 226.25 309.45Q227.05 250.95 230.65 193.15Q231.2 184.15 235.45 178.5M150.65,180.95L150.95 177.55L151.5 177.5L151.7 180.25Q160.05 175.05 170 176Q199.95 191 200.35 226.25Q200.55 244.75 192.2 260.85Q186.75 271.35 178.95 277.6Q194.15 308.8 206.2 342.2Q209.25 350.65 211.55 359.4Q213.05 365.1 209.7 369.7Q193.05 347.5 184.95 317.9Q179.85 299.25 173.7 281.2Q164.3 286.6 152.05 287L151.4 296.1L147.3 349.3Q146.45 359.9 140.5 366.45Q137.75 345.25 140.75 322.05Q143.2 302.7 144.5 283.2Q143 280.25 143.35 276.45Q143.65 273.75 145.15 271.6L145.45 262.95Q146.7 224.6 150.05 187.35Q149.7 186.1 149.8 184.7Q149.95 182.8 150.5 181L150.65 180.95M157.15,270.2Q165.3 269.65 171.4 265.1L172.7 265.15Q181.95 259.35 187.2 249.65Q198.35 228.9 187.8 208.2Q176.45 185.95 152.35 190.15L152.95 270.55L157.15 270.2" />
</g>
</svg>
