<?xml version="1.0" encoding="utf-8"?>
<svg version="1.1" id="Layer_1"
xmlns="http://www.w3.org/2000/svg"
xmlns:xlink="http://www.w3.org/1999/xlink"


xml:space="preserve">
q-66.65 5.05 -132.5 13.5q-2.75 6.55 0.9 12q-2.75 26.75 -4.35 54.35q-3.55 59.05 -10 117.7q-1.9 16.9 4.45 29.9q1 -0.6 1.15 -1.35q5.1 -31.85 7.5 -64.35q4.4 -59.1 10.9 -117.8q5.9 -53.75 2.5 -107.25q2.3 0.4 4 -1q3.5 -8.2 -1.45 -14.95q-3.5 46.1 -4.25 93q-0.5 29.7 -0.25 59.25q0.5 60.5 -9.3 119.05q-2.8 16.8 2.9 29.9q2.8 -1.35 3.6 -4.9q1.55 -7.05 2.05 -14.25q2.15 -29.6 3.55 -59.35q-7.1 54.25 -10.85 109.15q-2 29.7 -7.25 59q-3.05 16.8 3.3 30.05q4.4 -4.8 5 -12.45q4.1 -59.25 11.9 -117.75q7.8 -58.65 7.5 -118.4q-0.1 -16.5 -2.25 -29q-4 17.5 -4.15 38q-0.5 55.75 -7.5 110.7q-27.6 1.4 -54.1 8.45q2.3 -59.85 -2.35 -118.55q5.1 49.4 -0.85 98.45q-5.35 44.5 -38 73.35q-4.15 -0.45 -6.05 -4.1q-19.25 -37.45 -13.65 -81.35q2.75 -21.8 4.15 -44q1.9 -30.3 -0.5 -59.35q-5.1 12.6 -6 28.7q-3.15 58.65 -4.25 117.8q-0.65 35.25 23.25 59.2q14.45 4.3 24.15 -6.85q26.25 -30.05 32.5 -70.25q4.6 -29.3 5.8 -59.3q1.25 -31.05 -5.45 -59.3q-1.8 3.1 -1.4 6.7q-4.55 19.2 -7.15 40.05q-5.35 43 -9.5 86.15q-2.5 4 -1.9 9q0.35 2.65 1.4 5.25q-5 58.95 -15.6 116.85q-1.4 7.45 -3.7 14.45q-5.8 17.35 2 29.3q0.75 -0.35 0.9 -0.9q5.1 -16.75 7.9 -34.2q9.4 -58.1 14.1 -117.05q19.7 6.45 35.7 -1.35q0.85 18.75 6.5 38q16.6 56.75 32.25 113.85q4.55 16.5 13.35 27.3q0.65 -0.75 0.7 -1.5q1.5 -18.65 -4.45 -36.75q-0.75 0.75 -1.15 1.85q-8.25 -18.95 -13.8 -40.2q-13.85 -52.65 -29.85 -103.9q6 -3.6 11.45 -9.3q40.15 -41.8 21.9 -98.05q-11.5 -35.5 -44.4 -49q-11 -0.85 -20.5 5.25q-1.2 3.3 -0.8 6.8q-6.8 17.35 -22.65 27.55q-23.25 14.95 -46.1 5.65q4.15 -40.35 10.3 -80.3q3.7 -23.95 3.15 -47.15q28.8 -9.35 46.15 15.85q25.4 36.85 9.15 78.4<g id="2356" transform="matrix(1, 0, 0, 1, -18.2, 0)">
<path style="fill:#000000;fill-opacity:1" d="M349.9,87.2L349.45 88Q347.75 89.4 345.45 89L343.75 88.15L343.7 88L292.25 92.4Q295.65 145.9 289.75 199.65L286.5 229.45Q280 288.15 275.6 347.25Q273.2 379.75 268.1 411.6Q267.95 412.35 266.95 412.95Q260.6 399.95 262.5 383.05L275.5 264.65Q281.95 206 285.5 146.95Q287.1 119.35 289.85 92.6L216.45 98.5Q212.8 93.05 215.55 86.5L215.95 85.75Q281.8 77.3 348.45 72.25Q353.4 79 349.9 87.2M331.2,106Q335.85 164.7 333.55 224.55L333.35 230.45Q359.85 223.4 387.45 222L387.8 222.45Q394.8 167.5 395.3 111.75Q395.45 91.25 399.45 73.75Q401.6 86.25 401.7 102.75Q402 162.5 394.2 221.15Q386.4 279.65 382.3 338.9L375.95 423.75Q375.35 431.4 370.95 436.2Q364.6 422.95 367.65 406.15Q372.9 376.85 374.9 347.15Q378.65 292.25 385.75 238L332.85 242.75L329.15 328.7Q327.75 358.45 325.6 388.05Q325.1 395.25 323.55 402.3Q322.75 405.85 319.95 407.2Q314.25 394.1 317.05 377.3Q326.85 318.75 326.35 258.25Q326.1 228.7 326.6 199Q327.35 152.1 330.85 106L331.2 106M241.2,156.5L244.45 155.5Q251.15 183.75 249.9 214.8Q248.7 244.8 244.1 274.1Q237.85 314.3 211.6 344.35Q201.9 355.5 187.45 351.2Q163.55 327.25 164.2 292Q165.3 232.85 168.45 174.2Q169.35 158.1 174.45 145.5Q176.85 174.55 174.95 204.85Q173.55 227.05 170.8 248.85Q165.2 292.75 184.45 330.2Q186.35 333.85 190.5 334.3L200.95 335Q233.6 306.15 238.95 261.65Q244.9 212.6 239.8 163.2Q239.4 159.6 241.2 156.5M62.4,92.3Q62 88.8 63.2 85.5L63.5 84.75Q73 78.65 84 79.5Q116.9 93 128.4 128.5Q146.65 184.75 106.5 226.55Q101.05 232.25 95.05 235.85Q111.05 287.1 124.9 339.75Q130.45 361 138.7 379.95Q139.1 378.85 139.85 378.1L140.2 378.45Q146.15 396.55 144.65 415.2Q144.6 415.95 143.95 416.7Q135.15 405.9 130.6 389.4Q114.95 332.3 98.35 275.55Q92.7 256.3 91.85 237.55Q75.85 245.35 56.15 238.9L50.9 237.6L48.9 260.3Q44.2 319.25 34.8 377.35Q32 394.8 26.9 411.55Q26.75 412.1 26 412.45Q18.2 400.5 24 383.15Q26.3 376.15 27.7 368.7Q38.3 310.8 43.3 251.85L44.85 234.1L44.25 233.5Q43.2 230.9 42.85 228.25Q42.25 223.25 44.75 219.25L46.15 220.05Q50.3 176.9 55.65 133.9Q58.25 113.05 62.8 93.85L62.4 92.3M111.95,111.45Q94.6 86.25 65.8 95.6Q66.35 118.8 62.65 142.75Q56.5 182.7 52.35 223.05Q75.2 232.35 98.45 217.4Q114.3 207.2 121.1 189.85Q137.35 148.3 111.95 111.45" />
</g>
</svg>
