<?xml version="1.0" encoding="utf-8"?>
<svg version="1.1" id="Layer_1"
xmlns="http://www.w3.org/2000/svg"
xmlns:xlink="http://www.w3.org/1999/xlink"


xml:space="preserve">
q-10.95 23.1 -13.85 49.1q-1.7 14.6 -5.7 28.6q-1.55 -10.05 -4.05 -20.1q-10.15 -40.8 -25.45 -79q-0.25 -3.5 -1.25 -6.6q-0.6 -0.2 -0.55 0.15q-12.5 32.45 -18.15 68.4q-1.3 8.15 -3.05 16.15q-2.85 13.3 -3.1 26q-5.05 -46.85 -11.35 -94.05q-7.85 -58.7 -23 -115.35q-0.5 0.1 -0.5 0.25q-0.1 18.65 3.75 38.3q3.85 19.85 6.85 39.85q8.65 57.95 15.15 116.2q1.85 16.65 9.25 28.15q1 -0.5 1.15 -1.2q7.35 -39.95 15.3 -80.75q2.7 -13.85 7 -27.25q1.5 -4.65 2.05 -8.85q3.65 17.65 8.1 35.9q3.7 15.05 6.8 30.2q5.95 29.45 16.6 55.2q0.65 -0.75 0.6 -1.5q2.05 -2.6 2.85 -6q4.8 -21.05 7 -42.6q5.85 -58.65 13.1 -117.15q1.8 -14.7 6.1 -28.8q4.75 -15.55 2.7 -29.7q-0.75 0.1 -0.95 0.5q1.35 -37.2 27.9 -60.65q28 -8.8 39.75 12.5q4.5 -6.9 -0.05 -14.55q-10.05 -17.1 -32.45 -11.7q-27.5 8.25 -34.1 38.8q-11.6 53.6 -11.2 109.65q0.1 15.35 4.95 29.45q10.6 30.9 45.4 20.4q16.4 -4.95 26.35 -18.95q12 -16.9 3.85 -31.15q-2.05 1.8 -2.95 4.35q-2.2 -0.2 -1.95 1.15q0.1 0.5 0.7 0.85q-16.75 28.75 -51.2 20.1q-7.6 -1.95 -9.4 -9.25q-8.5 -34 -4.45 -70.05q15.35 1.35 30.7 -1.65q3.2 -6.3 -0.85 -11.95q0.6 -7.95 0.85 -15.9q-1.45 -44.4 -15.8 -85.7q-9.85 -28.5 -19.3 -57.3q-4.3 -13.3 -11.05 -22.65q-7.1 -15.75 -25.65 -14.15q-34.6 12.65 -46.9 48.45q-19.4 56.75 -21.15 117.05q-1.7 59.3 -0.5 119.2q1.15 59.25 18.55 115.1q5.05 16.2 19.65 25.25q28.4 17.65 50.9 -9.3q21.6 -25.9 33.15 -58q20.45 -57.15 19.75 -118.25q-0.35 -29.95 -1.3 -59.35q1.7 1.7 4 2q2.5 2.85 1.65 6.6q6.7 22.35 16.5 43.75q15.45 33.65 20.05 70.2q7.45 58.5 5.55 118.25q-1.9 59.25 -26.5 113.75q-12.3 27.25 -38.25 41.3q-16.5 8.95 -28.65 -3.65q-20.7 -21.35 -25.85 -51.7q-9.95 -58.4 -9.7 -118.65q0.25 -59.8 6 -118.5q1.1 -11.4 2.6 -22.75q6.65 -49.6 43.75 -80.75q4.75 -1.95 9.55 -3.6q26.7 60.5 -11.9 113.45q-19.75 27.15 -51 32.1q4.35 -55.7 7.2 -111q19.7 -6.9 36.9 4.5q9.85 6.55 14.55 17.2q-3.15 12.65 -4.35 27.05q-4.8 58.75 -7.6 117.75q-1.05 2.5 -1.1 5.25q-0.1 2.7 0.9 5.2q-2.5 41 -6.3 81.7q-5.5 59.25 -12.15 118.25q-1.85 16.5 3.8 28.65q5.45 -44.55 8.75 -90q15.4 2.1 27.95 -8q0.3 5.8 3.35 12.35q25.45 54.5 48.95 110.65q22.15 53.05 37.5 107.6q4.45 15.95 13.95 25.05q0.9 -1.35 0.7 -2.9q-2.85 -21.7 -10.3 -43.2q-19.4 -55.85 -42.5 -110.45q-22.15 -52.35 -48.45 -102.15q9.45 -9.15 17.1 -19.9q36.55 -51 20 -111.8q-10.85 -39.95 -51.75 -43.3q-4.35 2.05 -9.7 3.3q-1.8 0.45 -3.55 1.2q-0.75 1.8 -0.75 3.75<g id="2368" transform="matrix(1, 0, 0, 1, -33.85, 0)">
<path style="fill:#000000;fill-opacity:1" d="M450.45,70.75Q452.5 84.9 447.75 100.45Q443.45 114.55 441.65 129.25Q434.4 187.75 428.55 246.4Q426.35 267.95 421.55 289Q420.75 292.4 418.7 295L417.95 293.65L418.05 297.25Q418.1 298 417.45 298.75Q406.8 273 400.85 243.55Q397.75 228.4 394.05 213.35Q389.6 195.1 385.95 177.45Q385.4 181.65 383.9 186.3Q379.6 199.7 376.9 213.55Q368.95 254.35 361.6 294.3Q361.45 295 360.45 295.5L359.95 290.8L359.7 291Q352.3 279.5 350.45 262.85Q343.95 204.6 335.3 146.65Q332.3 126.65 328.45 106.8Q324.6 87.15 324.7 68.5Q324.7 68.35 325.2 68.25Q340.35 124.9 348.2 183.6Q354.5 230.8 359.55 277.65Q359.8 264.95 362.65 251.65Q364.4 243.65 365.7 235.5Q371.35 199.55 383.85 167.1L383.65 166.15Q383.6 165.8 384.2 166L384.25 166.1L384.95 164.25Q385.95 167.35 386.2 170.85Q401.5 209.05 411.65 249.85Q414.15 259.9 415.7 269.95L416.6 266.2Q420.6 252.2 422.3 237.6L435.65 120.35Q438.55 94.35 449.5 71.25Q449.7 70.85 450.45 70.75M346.95,390.3L376.45 386.45Q380.5 392.1 377.3 398.4L376.7 399.2Q361.35 402.2 346 400.85L345.65 403.75Q341.6 439.8 350.1 473.8Q351.9 481.1 359.5 483.05Q393.95 491.7 410.7 462.95Q410.1 462.6 410 462.1Q409.75 460.75 411.95 460.95L412.25 460.25L415.25 452.55Q416.15 450 418.2 448.2Q426.35 462.45 414.35 479.35Q404.4 493.35 388 498.3Q353.2 508.8 342.6 477.9Q337.75 463.8 337.65 448.45Q337.25 392.4 348.85 338.8Q355.45 308.25 382.95 300Q405.35 294.6 415.4 311.7Q419.95 319.35 415.45 326.25Q403.7 304.95 375.7 313.75Q349.15 337.2 347.8 374.4Q347.55 382.35 346.95 390.3M335.4,306Q336.1 367.1 315.65 424.25Q304.1 456.35 282.5 482.25Q260 509.2 231.6 491.55Q217 482.5 211.95 466.3Q194.55 410.45 193.4 351.2Q192.2 291.3 193.9 232Q195.65 171.7 215.05 114.95Q227.35 79.15 261.95 66.5Q280.5 64.9 287.6 80.65L287.95 81Q294.7 90.35 299 103.65Q308.45 132.45 318.3 160.95Q332.65 202.25 334.1 246.65Q335.05 276.05 335.4 306M251.9,83.35L249.95 84Q212.85 115.15 206.2 164.75Q204.7 176.1 203.6 187.5Q197.85 246.2 197.6 306Q197.35 366.25 207.3 424.65Q212.45 455 233.15 476.35Q245.3 488.95 261.8 480Q287.75 465.95 300.05 438.7Q324.65 384.2 326.55 324.95Q328.45 265.2 321 206.7Q316.4 170.15 300.95 136.5Q291.15 115.1 284.45 92.75Q285.3 89 282.8 86.15L279.45 82.25Q277.15 81.95 275.45 80.25L261.45 79.75Q256.65 81.4 251.9 83.35M107.6,78.1Q90.4 66.7 70.7 73.6Q67.85 128.9 63.5 184.6L59.25 240.85Q90.5 235.9 110.25 208.75Q148.85 155.8 122.15 95.3Q117.45 84.65 107.6 78.1M68,69.5Q68 67.55 68.75 65.75Q70.5 65 72.3 64.55Q77.65 63.3 82 61.25Q122.9 64.6 133.75 104.55Q150.3 165.35 113.75 216.35Q106.1 227.1 96.65 236.25Q122.95 286.05 145.1 338.4Q168.2 393 187.6 448.85Q195.05 470.35 197.9 492.05Q198.1 493.6 197.2 494.95Q187.7 485.85 183.25 469.9Q167.9 415.35 145.75 362.3Q122.25 306.15 96.8 251.65Q93.75 245.1 93.45 239.3L86.25 245.45Q73.7 255.55 58.3 253.45L56.85 272.9L48.25 390.7Q44.95 436.15 39.5 480.7Q33.85 468.55 35.7 452.05Q42.35 393.05 47.85 333.8Q51.65 293.1 54.15 252.1L54.05 251.95Q53.05 249.45 53.15 246.75Q53.2 244 54.25 241.5L54.75 241.45L56.1 215.25Q58.9 156.25 63.7 97.5Q64.9 83.1 68.05 70.45L68 69.5" />
</g>
</svg>
