<?xml version="1.0" encoding="utf-8"?>
<svg version="1.1" id="Layer_1"
xmlns="http://www.w3.org/2000/svg"
xmlns:xlink="http://www.w3.org/1999/xlink"


xml:space="preserve">
q-1.45 -0.25 -1.5 1q-0.8 2.15 -0.8 4.5q0 2.3 1.05 4.35q-3.8 50.15 -9.35 100q-6.65 59.1 -14.85 118q-4.1 29.6 -9.9 58.85q-2.85 14.35 5.25 21.8q7.65 -39.5 12.95 -80.05q0.45 1.35 1.75 2.05q11.35 -6.4 20.7 -15.5q1.25 10.75 4.5 21.4q17.5 56.6 37.6 112.35q5.95 16.6 16.7 27.2q3.8 -14.25 -2.35 -25.4q1.3 2.55 0.1 5.05q-10.3 -17.05 -16.45 -36.4q-17.45 -54.85 -35.85 -108.8q5.6 -6.4 10.35 -13.85q28.65 -44.8 19.2 -96.35q-6.1 -33.35 -39 -35.3q-4.2 0.95 -8.25 2.8q16.5 -6.9 28.7 5.15q15.95 15.75 14.1 37.75q-5 59.2 -52.05 93.3q6.05 -51.2 4.65 -102.05q-11.4 6.45 -18.1 18.15q-14.75 25.75 -16.9 55.45q-3.3 46.3 31.75 74.4q5.25 0 9.85 -1.75q39.8 -14.9 45.3 -56.85q8.65 -65.9 -48.65 -98.4q-0.75 1.8 -1.1 3.7q-0.3 1.85 -0.15 3.8q16.6 6 26.7 26.45q10.05 20.2 6.45 42.45q-3.65 22.5 -20.8 37.65q-20.05 17.7 -36.1 -0.75q-13.75 -15.85 -16.5 -36.85q-2.75 -21.4 4.45 -41.6q7.6 -21.45 27.9 -31.45q-10.1 40.75 -18.15 83.9q-10.9 58.65 -27.15 116.2q-4.8 17.1 2.8 28.6q11.85 -55.15 25.45 -110.75q3.25 39.6 6.8 79.05q1.55 16.85 10.1 28.35q2.05 -1.2 1.7 -3.6q-7 -49.65 -9.5 -100.65q1.55 -2.85 1.8 -6.05q0.25 -3.95 -1.8 -7.45q-3.65 -1.2 -7.45 -1.45q-2.25 -0.05 -4.45 0.05q-3.65 -49.6 -13.05 -97.55q0.15 2.65 1.95 4.35q-5.15 54.2 -13.65 108.1q-1.4 4.35 -0.7 8.95q0.5 3.35 3.25 5.25q-5.65 40.35 -9.7 80.95q-1.45 14.75 -6.1 28.7q-5.6 17 1.95 28.95q4.6 -6.85 5.75 -15.65q10.35 -3.3 18.95 -8.8q0.4 12 4.6 24.65q18.7 56.35 40.45 111.45q6.25 15.9 15.35 27.6q3.45 -3.15 1.9 -7.8q-9.85 -29.65 -21.65 -59.2q-19.85 -50 -35.7 -100.2q16.95 -13 26.1 -35.8q9.6 -24.05 8.8 -49.95q-1.5 -47.95 -47.9 -57.5q-1.6 0.45 -2.05 2.5q-0.7 3.3 -0.55 6.75q2.35 24.2 -8.35 46.4q-13.85 28.9 -41.2 37.6q5.3 -38.8 11.05 -77.5q3.6 -24.3 1.5 -47.6q33.6 5.7 37 41.1q-8.95 0.95 -17.85 3.35q10.9 -48.65 13.5 -97.75q-0.25 34.9 2.55 71.35<g id="2382" transform="matrix(1, 0, 0, 1, -39.95, 0)">
<path style="fill:#000000;fill-opacity:1" d="M353.7,84.8Q357.75 82.95 361.95 82Q394.85 83.95 400.95 117.3Q410.4 168.85 381.75 213.65Q377 221.1 371.4 227.5Q389.8 281.45 407.25 336.3Q413.4 355.65 423.7 372.7Q424.9 370.2 423.6 367.65L423.45 366.95Q429.6 378.1 425.8 392.35L424.95 393.95Q414.2 383.35 408.25 366.75Q388.15 311 370.65 254.4Q367.4 243.75 366.15 233Q356.8 242.1 345.45 248.5Q344.15 247.8 343.7 246.45L334.9 315.9Q329.6 356.45 321.95 395.95Q313.85 388.5 316.7 374.15Q322.5 344.9 326.6 315.3Q334.8 256.4 341.45 197.3Q347 147.45 350.8 97.3L349.45 97.25L348.7 96.35Q347.65 94.3 347.65 92Q347.65 89.65 348.45 87.5L350.8 86.15L351.65 85.75L351.95 81.25Q352 80 353.45 80.25L353.7 84.8M354.1,96.65Q355.5 147.5 349.45 198.7L345.4 232.65Q392.45 198.55 397.45 139.35Q399.3 117.35 383.35 101.6Q371.15 89.55 354.65 96.45L354.1 96.65M184.85,162.95Q185.2 161.05 185.95 159.25L186.75 158.5L187.5 158.05L187.9 157.9L187.95 157.75Q245.25 190.25 236.6 256.15Q231.1 298.1 191.3 313Q186.7 314.75 181.45 314.75Q146.4 286.65 149.7 240.35Q151.85 210.65 166.6 184.9Q173.3 173.2 184.7 166.75Q184.55 164.8 184.85 162.95M188.95,178.5Q168.65 188.5 161.05 209.95Q153.85 230.15 156.6 251.55Q159.35 272.55 173.1 288.4Q189.15 306.85 209.2 289.15Q226.35 274 230 251.5Q233.6 229.25 223.55 209.05Q213.45 188.6 196.85 182.6L188.95 178.5M291.45,132.75Q300.85 180.7 304.5 230.3Q306.7 230.2 308.95 230.25Q312.75 230.5 316.4 231.7L317.2 232.25Q319.25 235.75 319 239.7Q318.75 242.9 317.2 245.75L305.5 246.1L305.65 249.7Q308.15 300.7 315.15 350.35Q315.5 352.75 313.45 353.95Q304.9 342.45 303.35 325.6Q299.8 286.15 296.55 246.55L274.15 248.2Q260.55 303.8 248.7 358.95Q241.1 347.45 245.9 330.35Q262.15 272.8 273.05 214.15Q281.1 171 291.2 130.25L291.1 132.75L291.45 132.75M78.95,91Q79.4 88.95 81 88.5Q127.4 98.05 128.9 146Q129.7 171.9 120.1 195.95Q110.95 218.75 94 231.75Q109.85 281.95 129.7 331.95Q141.5 361.5 151.35 391.15Q152.9 395.8 149.45 398.95Q140.35 387.25 134.1 371.35Q112.35 316.25 93.65 259.9Q89.45 247.25 89.05 235.25Q80.45 240.75 70.1 244.05L66.95 267.4L53.25 369.3Q52.1 378.1 47.5 384.95Q39.95 373 45.55 356Q50.2 342.05 51.65 327.3Q55.7 286.7 61.35 246.35L59.25 246.75Q56.5 244.85 56 241.5Q55.3 236.9 56.7 232.55L57.5 231L63.7 230.1L66.7 210.2Q75.2 156.3 80.35 102.1Q78.55 100.4 78.4 97.75Q78.25 94.3 78.95 91M84.85,102.85Q86.95 126.15 83.35 150.45Q77.6 189.15 72.3 227.95Q99.65 219.25 113.5 190.35Q124.2 168.15 121.85 143.95Q118.45 108.55 84.85 102.85M293.5,207.85Q290.7 171.4 290.95 136.5Q288.35 185.6 277.45 234.25Q286.35 231.85 295.3 230.9L293.5 207.85" />
</g>
</svg>
