<?xml version="1.0" encoding="utf-8"?>
<svg version="1.1" id="Layer_1"
xmlns="http://www.w3.org/2000/svg"
xmlns:xlink="http://www.w3.org/1999/xlink"


xml:space="preserve">
q-6.4 16.2 -9.7 35.05q-10.2 58.45 -26.6 115.35q-4.65 16.25 1.05 29.35q8.6 -29.4 15.8 -60.55q13.15 -0.4 26.9 -2.35q0.95 15.05 1.15 30.1q0.15 16.4 6.05 28.45q5.15 -15.25 2.6 -32.4q-2.35 -16.05 -3.2 -32.15q-3.1 -59.05 -13.25 -116.1q-3.3 3.4 -2.6 9.5q-0.6 7.4 -0.65 15.2q-0.5 59.2 -6.45 117.8q-5.95 58.8 -10.3 117.75q-3.3 44.65 -13.05 88.1q-3.2 14.15 4.65 21.8q5.6 -15.1 7.6 -31.4q7.1 -58.65 11.4 -117.75q4.3 -58.95 9.8 -117.7q2.25 -23.6 2.8 -47.1q3.95 30.1 8.6 60.15q9 58.4 16.6 117.05q7.5 58.15 10.1 117.05q0.55 13.4 7.1 20.7q4.65 -6.8 5 -12.55q0.9 -4.2 1.2 -8.65q3.65 -59.1 6.6 -118.4q2.95 -59.8 -0.9 -118.55q-0.75 0.1 -0.75 0.3q-3 26.7 -3.95 53.9q-2.3 59.85 -7.35 119.3q-1.55 18.2 -3.7 36.3q-3.75 -50 -10.65 -99.5q-8.15 -58.65 -16.7 -117.2q-6.9 -47.55 -14.95 -94.35q-0.6 -13.5 -1.8 -27q-12.2 1.3 -23.65 5.2q9.95 -44.95 16.5 -90q4.15 42.05 7.15 84.8q0.2 -34.75 18 -64.55q2.45 -4.1 5.05 -8.1q16.7 -11.9 35.95 5.35q-1.45 -14.3 -14.35 -21.25q-6.05 -3.2 -12.95 -4.2q-20.65 13.2 -26.8 37.7q-17.05 67.7 -9.9 137.4q1.75 17.25 14.2 29.4q20.6 1.2 36.95 -11.6q18.65 -14.7 12.7 -36.7q-0.75 -2.8 -1.9 -5.45q-2.2 15.35 -13.55 25.25q-14.25 12.5 -33.2 11.5q-9.35 -38.1 -5.35 -77.75q17.5 2.5 34.85 -1q2.85 -5.5 0.4 -11.05q10 -0.55 15.5 5.55q-0.35 1.75 -2.05 2.8q-2.4 1.4 -2.65 3.25q4.4 4.65 7.95 10.65q20.55 35 25.25 76.45q6.75 59.2 0.3 118.75q-4.8 44.25 -21 85.7q-9.35 23.95 -30.3 38.6q-14.05 9.85 -30.75 8.35q-12.85 -1.15 -17.3 -12.95q-19.25 -50.85 -20.25 -106.1q-1.1 -59.5 5.1 -118.65q4.4 -41.75 22.6 -78.55q13.3 -26.95 41.4 -34q-22.15 7.35 -35.5 27.35q-4.6 6.9 -7.65 14.5q-22.15 55.05 -26.85 114.75q-4.7 59.4 -0.95 118.7q2.8 44.55 18.65 85.6q12.55 32.4 46.7 19.95q9.4 -3.45 16.4 -10.4q35.95 -35.65 44.1 -85.8q9.5 -58.2 9.9 -117.9q0.4 -59.95 -16.2 -117.1q-8.35 -28.6 -30.1 -47.15q-7.45 -2.1 -15.35 -1.8q0.1 1.8 0.9 3.3q-4.6 27.7 -6.45 56.4q-1.35 3.15 -1.25 6.75q0.05 1.6 0.55 3.05q-4.4 59.25 -8.25 118.5q-1.4 22.3 -6.7 43.8q-3.5 14.15 4.6 21.4q9.25 -51.95 11.7 -106.2q2.05 -45.4 5.05 -90.7q11.35 -4.7 20.55 -11.6q2.8 14.5 6.6 29.15q5.75 22.15 10.15 44.65q11.15 57.7 19.1 115.9q1.7 12.75 8.6 19.35q1.8 -1.3 1.6 -3.45q-2.15 -25 -6.7 -50.25q-9.55 -53.25 -25.25 -104.55q14.5 -12.45 23.1 -31.15q8.2 -17.95 11.95 -37.2q10.55 -53.9 -28.95 -89.55q-1.15 -0.15 -2.05 -0.65q-3.85 -2.2 -8.45 -1.35q-7.25 -0.05 -14.35 1.4q-1.05 3.25 -0.9 6.75q17.4 12 23.3 33.05q5.5 19.5 2.9 39.7q-2.8 21.65 -14.55 40.05q-10.65 16.55 -28.3 25.65q-7.4 3.8 -15.5 6.1q7.55 -72.35 10.8 -145.15<g id="2375" transform="matrix(1, 0, 0, 1, -20.4, 0)">
<path style="fill:#000000;fill-opacity:1" d="M326.6,92.3Q336.75 149.35 339.85 208.4Q340.7 224.5 343.05 240.55Q345.6 257.7 340.45 272.95Q334.55 260.9 334.4 244.5Q334.2 229.45 333.25 214.4L332.65 204.85Q318.9 206.8 305.75 207.2Q298.55 238.35 289.95 267.75Q284.25 254.65 288.9 238.4Q305.3 181.5 315.5 123.05Q318.8 104.2 325.2 88L326.2 88.75L326.95 89.5L326.6 92.3M367.7,97.1L369.2 89Q370.4 102.5 371 116Q379.05 162.8 385.95 210.35Q394.5 268.9 402.65 327.55Q409.55 377.05 413.3 427.05Q415.45 408.95 417 390.75Q422.05 331.3 424.35 271.45L428.75 152.95Q429.7 125.75 432.7 99.05Q432.7 98.85 433.45 98.75Q437.3 157.5 434.35 217.3Q431.4 276.6 427.75 335.7L420.15 454.25Q419.85 458.7 418.95 462.9Q418.6 468.65 413.95 475.45Q407.4 468.15 406.85 454.75Q404.25 395.85 396.75 337.7Q389.15 279.05 380.15 220.65Q375.5 190.6 371.55 160.5Q371 184 368.75 207.6Q363.25 266.35 358.95 325.3Q354.65 384.4 347.55 443.05Q345.55 459.35 339.95 474.45Q332.1 466.8 335.3 452.65Q345.05 409.2 348.35 364.55Q352.7 305.6 358.65 246.8Q364.6 188.2 365.1 129Q365.15 121.2 365.75 113.8L364.6 103.75Q363.9 97.65 367.2 94.25L367.7 97.1M324.6,106.95Q318.05 152 308.1 196.95Q319.55 193.05 331.75 191.75Q328.75 149 324.6 106.95M476.7,376.45Q459.35 379.95 441.85 377.45Q437.85 417.1 447.2 455.2L452.45 458.95Q471.4 459.95 485.65 447.45Q497 437.55 499.2 422.2Q500.35 424.85 501.1 427.65Q507.05 449.65 488.4 464.35Q472.05 477.15 451.45 475.95Q439 463.8 437.25 446.55Q430.1 376.85 447.15 309.15Q453.3 284.65 473.95 271.45Q480.85 272.45 486.9 275.65Q499.8 282.6 501.25 296.9L501.1 297.05Q481.85 279.8 465.15 291.7Q462.55 295.7 460.1 299.8Q442.3 329.6 442.1 364.35L475.45 362.2L477.1 365.4Q479.55 370.95 476.7 376.45M221.95,97.25Q193.85 104.3 180.55 131.25Q162.35 168.05 157.95 209.8Q151.75 268.95 152.85 328.45Q153.85 383.7 173.1 434.55Q177.55 446.35 190.4 447.5Q207.1 449 221.15 439.15Q242.1 424.5 251.45 400.55Q267.65 359.1 272.45 314.85Q278.9 255.3 272.15 196.1Q267.45 154.65 246.9 119.65Q243.35 113.65 238.95 109L238 108.95L234.7 109.5Q234.95 107.65 237.35 106.25Q239.05 105.2 239.4 103.45L239.45 102.75Q233.95 96.65 223.95 97.2L221.95 97.25M233.3,84.55L236.45 85.25Q258.2 103.8 266.55 132.4Q283.15 189.55 282.75 249.5Q282.35 309.2 272.85 367.4Q264.7 417.55 228.75 453.2Q221.75 460.15 212.35 463.6Q178.2 476.05 165.65 443.65Q149.8 402.6 147 358.05Q143.25 298.75 147.95 239.35Q152.65 179.65 174.8 124.6Q177.85 117 182.45 110.1Q195.8 90.1 217.95 82.75Q225.85 82.45 233.3 84.55M53.5,85.5L53.75 84.75L55.5 84.35L55.95 81.85L56.5 81.75L56.65 84.15Q63.75 82.7 71 82.75Q75.6 81.9 79.45 84.1Q80.35 84.6 81.5 84.75Q121 120.4 110.45 174.3Q106.7 193.55 98.5 211.5Q89.9 230.2 75.4 242.65Q91.1 293.95 100.65 347.2L110.4 401.5Q114.95 426.75 117.1 451.75Q117.3 453.9 115.5 455.2Q108.6 448.6 106.9 435.85Q98.95 377.65 87.8 319.95Q83.4 297.45 77.65 275.3Q73.85 260.65 71.05 246.15Q61.85 253.05 50.5 257.75L45.25 257.3Q42.25 302.6 40.2 348Q37.75 402.25 28.5 454.2Q20.4 446.95 23.9 432.8Q29.2 411.3 30.6 389Q34.45 329.75 38.85 270.5L40.1 254.05Q39.6 252.6 39.55 251Q39.45 247.4 40.8 244.25L47.05 151.95Q48.9 123.25 53.5 95.55Q52.7 94.05 52.6 92.25Q52.45 88.75 53.5 85.5M75.75,95.5L57.15 96.3Q53.9 169.1 46.35 241.45Q54.45 239.15 61.85 235.35Q79.5 226.25 90.15 209.7Q101.9 191.3 104.7 169.65Q107.3 149.45 101.8 129.95Q95.9 108.9 78.5 96.9L75.75 95.5" />
</g>
</svg>
