<?xml version="1.0" encoding="utf-8"?>
<svg version="1.1" id="Layer_1"
xmlns="http://www.w3.org/2000/svg"
xmlns:xlink="http://www.w3.org/1999/xlink"


xml:space="preserve">
q0 -4 2.25 -5.5q2.05 1.25 2.6 7.85q0 8.65 -1 12.4q-2.3 23.25 -2.75 35.4q-0.25 6.1 -0.25 30.1q0 10.55 -2 42.35q-1.65 25.55 -2.5 35.25q-0.65 5.8 -1.1 19.55q-0.45 12.7 -1.4 19.45q-0.6 4.05 -0.7 9.9q-0.45 11.2 -4.95 18.3q-1.75 -3.15 -1.75 -7.85q5 -63.1 5 -82.45q0 -26.3 0.25 -33.15q0.45 -14.7 2.75 -37.2q0.6 -3.7 0.4 -11.05q0 12.7 -1.65 49.45q-1.75 20.6 -2.05 47.05q-0.15 15.35 0.05 45.6q-2 6.2 -1.85 18.35q0.1 13.7 -0.9 19.15q2.55 -0.2 12.1 -2.65q9.2 -2.35 10.4 -2.35q29.2 0 41.45 2.4q4.35 0 7.9 -1q4.55 -1.3 24.35 -2.25q1.5 -0.9 1.5 -2.75q0 4.4 -2.5 7.25q-16.25 0.15 -24 1.6q-4.75 1.4 -6 1.4q-6.95 0 -19.85 -2.35q-12.95 -2.4 -21.65 -2.4q-24.9 0 -35.45 3.25q-2.3 0.7 -5.4 2.25q-2.05 1 -3.65 1q-2.8 0 -3.45 -4.45q0 -3.6 1.65 -23.75q1.75 -20.9 2.6 -26.5q1.4 -5.15 1.35 -22.65q-0.35 -19.55 -0.35 -25.7q0 -43.9 3 -70.9q0.75 -39.25 1.45 -59.15q1.3 -35 5.05 -56.35q0.8 4.8 1.2 13.15q-5.3 -39.55 -12.95 -73.6q-9.55 -42.25 -20.45 -63.95q-13.05 -26.15 -26.8 -19.7q-34.65 22.35 -51.25 54q-5.95 11.35 -11.5 27.55q-3.15 9.1 -9 26.95q-1.25 3.65 -8.95 48.6q-8.3 48.3 -8.3 58.9q0 12.4 2.4 46.75q2.85 41.3 5.85 50.35q15.75 47.3 27 66.9q16.3 28.35 36.25 28.35q29.95 0 51.8 -49.4q6.95 -15.6 12.35 -34.7q5 -20.25 9.15 -48.85q4.6 -32.05 4.6 -52q0 -14.65 -4.55 -48.75q-5.5 40.3 -14.65 74.85q-10.85 40.85 -24.55 64.05q-16 27.15 -34.45 27.15q-34.5 0 -54.95 -41.1q-6.45 -12.95 -12.15 -31.8q-4.95 -17.65 -6.65 -21.85q-5.35 -13.25 -8.45 -53.5q-2.05 -27 -2.05 -40.6q0 -30.7 5 -59.1q7.3 -36.35 12 -66.4q3.25 -20.85 14.25 -43.25q9.9 -20.15 24.3 -38.15q13.55 -16.95 27.15 -27.2q13.75 -10.4 22.8 -10.4q23.15 0 42.5 103.8q9.7 51.9 14.75 104.05q0 23.75 -4.85 59.45q-3.65 0 -6.65 1.4q-1.6 0 -2.9 -0.95q9.9 -25.15 53 -0.25q19.1 12.5 25.5 24.75q5.65 10.9 8.4 25.1q2.35 12.1 2.35 25.15q0 22.75 -10.85 43.7q-9.6 18.4 -26.4 33.45q-10.95 9.75 -23.2 16.6q9.7 23.15 19.35 53.7q3.2 10.1 26.35 72.6q19.9 53.65 19.9 58.3q0 4.1 -2 7.1q-18.1 -44.2 -53.5 -146.8q-29.15 -84.4 -35.3 -109.2q-16.2 7.3 -28.9 7.55q-4 37.35 -9.95 85.8q-9.15 74.95 -19.65 152.95q-1.15 -1.25 -2.05 -3.4q-0.95 -2.3 -0.95 -4.1q0 -8.25 11.55 -97.85q12.1 -93.75 13.2 -110.65q2.6 -27.05 7.5 -105.15q4.2 -66.7 8.75 -103.2q1.5 4.5 1.5 11.25q0 27.85 -7.1 96.3q9.2 -1.8 20.6 -7.55q1.55 -0.75 9.85 -3.85q0.4 -1.4 1.1 -1.6q6.95 -2.9 11.2 -5.4q7.15 -4.35 16.8 -12.7q8.4 -7.55 13.95 -25.15q4.8 -15.15 4.8 -27q0 -23.5 -8.8 -40.05q-14.45 -27.25 -50.95 -34.05<g id="2403" transform="matrix(1, 0, 0, 1, -22.25, 0)">
<path style="fill:#000000;fill-opacity:1" d="M363.4,87.2L363 78.75Q363 74.75 365.25 73.25Q367.3 74.5 367.85 81.1L368 89.35Q368 98 367 101.75L367 152L367.25 152.75L367.25 215Q364.95 238.25 364.5 250.4Q364.25 256.5 364.25 280.5L366.25 349.5Q366.25 360.05 364.25 391.85Q362.6 417.4 361.75 427.1Q361.1 432.9 360.65 446.65Q360.2 459.35 359.25 466.1Q358.65 470.15 358.55 476L358.45 485.55Q358 496.75 353.5 503.85Q351.75 500.7 351.75 496L356.75 432.2Q361.75 369.1 361.75 349.75L359.75 281.1Q359.75 254.8 360 247.95Q360.45 233.25 362.75 210.75L362.75 152.25L363 151.5L363 98.25Q363.6 94.55 363.4 87.2M402.45,84.65L402.75 94Q402.75 106.7 401.1 143.45L399.25 187.75L399.25 230.35Q397.5 250.95 397.2 277.4Q397.05 292.75 397.25 323L396.65 333.85L395.25 349.6L395.25 395.35L394.25 400.25L393.25 405.1L393.25 453.85Q391.25 460.05 391.4 472.2Q391.5 485.9 390.5 491.35L390.5 492.1Q393.05 491.9 402.6 489.45Q411.8 487.1 413 487.1Q442.2 487.1 454.45 489.5L461.8 491.1L470.75 491.85Q475.1 491.85 478.65 490.85Q483.2 489.55 503 488.6Q504.5 487.7 504.5 485.85L505.25 485.6L505.95 490.65L506.5 495.35Q506.5 499.75 504 502.6Q487.75 502.75 480 504.2Q475.25 505.6 474 505.6Q467.05 505.6 454.15 503.25Q441.2 500.85 432.5 500.85Q407.6 500.85 397.05 504.1Q394.75 504.8 391.65 506.35Q389.6 507.35 388 507.35Q385.2 507.35 384.55 502.9L384.5 498.1Q384.5 494.5 386.15 474.35Q387.9 453.45 388.75 447.85L388.75 400.6L389.75 395.75L390.75 390.85L390.75 345.85Q392.15 340.7 392.1 323.2Q391.75 303.65 391.75 297.5Q391.75 253.6 394.75 226.6L394.75 187Q395.5 147.75 396.2 127.85Q397.5 92.85 401.25 71.5Q402.05 76.3 402.45 84.65M335.2,235.25Q329.9 195.7 322.25 161.65Q312.7 119.4 301.8 97.7Q288.75 71.55 275 78Q240.35 100.35 223.75 132Q217.8 143.35 212.25 159.55Q209.1 168.65 203.25 186.5Q202 190.15 194.3 235.1Q186 283.4 186 294Q186 306.4 188.4 340.75Q191.25 382.05 194.25 391.1Q210 438.4 221.25 458Q237.55 486.35 257.5 486.35Q287.45 486.35 309.3 436.95Q316.25 421.35 321.65 402.25L326 384.85Q331 364.6 335.15 336Q339.75 303.95 339.75 284Q339.75 269.35 335.2 235.25M339.65,333.05Q334.15 373.35 325 407.9Q314.15 448.75 300.45 471.95Q284.45 499.1 266 499.1Q231.5 499.1 211.05 458Q204.6 445.05 198.9 426.2Q193.95 408.55 192.25 404.35Q186.9 391.1 183.8 350.85Q181.75 323.85 181.75 310.25Q181.75 279.55 186.75 251.15Q194.05 214.8 198.75 184.75Q202 163.9 213 141.5Q222.9 121.35 237.3 103.35Q250.85 86.4 264.45 76.15Q278.2 65.75 287.25 65.75Q310.4 65.75 329.75 169.55Q339.45 221.45 344.5 273.6Q344.5 297.35 339.65 333.05M89.5,74.75L79 74.5Q75.35 74.5 72.35 75.9L69 77.25Q67.4 77.25 66.1 76.3L64.5 74.75Q74.4 49.6 117.5 74.5Q136.6 87 143 99.25Q148.65 110.15 151.4 124.35Q153.75 136.45 153.75 149.5Q153.75 172.25 142.9 193.2Q133.3 211.6 116.5 226.65Q105.55 236.4 93.3 243.25Q103 266.4 112.65 296.95L133 363.85Q136.2 373.95 159.35 436.45Q179.25 490.1 179.25 494.75Q179.25 498.85 177.25 501.85Q159.15 457.65 123.75 355.05Q94.6 270.65 88.45 245.85L83.75 248.05Q67.55 255.35 54.85 255.6Q50.85 292.95 44.9 341.4Q35.75 416.35 25.25 494.35Q24.1 493.1 23.2 490.95Q22.25 488.65 22.25 486.85Q22.25 478.6 33.8 389Q45.9 295.25 47 278.35Q49.6 251.3 54.5 173.2Q58.7 106.5 63.25 70Q64.75 74.5 64.75 81.25L63 149.1Q63 176.95 55.9 245.4Q65.1 243.6 76.5 237.85Q78.05 237.1 86.35 234L87.1 233.7L87.15 233.45Q87.55 232.05 88.25 231.85L88.8 233Q95.75 230.1 100 227.6Q107.15 223.25 116.8 214.9L131.5 201.75Q139.9 194.2 145.45 176.6Q150.25 161.45 150.25 149.6Q150.25 126.1 141.45 109.55Q127 82.3 90.5 75.5L89.5 74.75" />
</g>
</svg>
