<?xml version="1.0" encoding="utf-8"?>
<svg version="1.1" id="Layer_1"
xmlns="http://www.w3.org/2000/svg"
xmlns:xlink="http://www.w3.org/1999/xlink"


xml:space="preserve">
q-6.25 39.4 -8 80.15q-2.5 58.85 -3 117.75q0.6 2.65 3 2q4.15 -40.75 5.5 -82.45q13.85 0.05 27.85 -2.25q-0.55 14.9 -2.2 29.75q-1.9 16.9 4.35 29.45q0.65 -0.75 0.7 -1.55q3.85 -37.5 4.75 -75.7q1.45 -59.95 -0.45 -118.45q-4.2 6.8 -4.35 17.25q-0.35 31.35 -1.1 62.65q-12.35 -0.5 -23.75 3.05q1.25 -42.9 2 -84.8q-0.5 0.1 -0.5 0.3q2.8 -18.1 -17.6 -18.2q-23.6 16.65 -19.75 48.05q1 8.35 4.85 15.75q19.75 38.2 29.05 80.2q1.8 8.15 -1.85 14.95q-12.3 22.95 -32.8 6.25q-1.9 1.35 -2.25 3.75q-0.8 4.95 2 8.65q15.65 20.3 33.7 0.85q3.2 -3.4 3.95 -7.7q8.05 -46.2 -16.5 -87.15q-9.9 -16.55 -13.45 -35.15q-2.45 -12.45 2.5 -23.95q9.55 -22.3 27.8 -5.5q-3.2 1.95 -5.8 4.45q-2.8 36.05 -4.6 72.7q0.6 1.65 2.25 2q2 -0.65 2.2 -2.8q3.3 -35.7 5.8 -71.8q14.3 3 24.65 -1.2q10.3 17.05 18.7 35.55q9.2 20.2 17.5 40.7q4.55 11.05 12.5 15.75q1.8 -3.15 0.85 -6.45q-6.9 -24.1 -18.35 -46.9q-11.2 -22.35 -24.7 -42.35q7.95 -5.95 12.75 -17.6q5.1 -12.5 6.35 -25.6q4.25 -45 -40.1 -57.8q-2.15 0.15 -4.45 1.55q-10.3 28 -6.85 57.25q2.8 24.05 26.55 29.65q14.6 3.45 26.35 -6.6q31.2 -26.65 21.7 -68.75q-6.4 -28.5 -33.1 -35.4q-9.5 1.7 -19.5 4q-10.65 7.6 -15.15 19.85q23.05 12.05 26.45 35.9q3.45 24.3 -16.25 38.35q-15.3 10.85 -31.15 2.95q-17.4 -8.75 -18.7 -29.1q-1.55 -24.5 15.45 -41.9q5.65 -5.85 12.75 -7.45q3.15 2.7 7.4 1.9q-4.7 15.3 -17.55 25.4q23.1 -5.9 37.1 14.55q12.85 18.85 6.1 40.75<g id="2399" transform="matrix(1, 0, 0, 1, -138.75, 0)">
<path style="fill:#000000;fill-opacity:1" d="M390.2,177.5Q389.45 219.4 388.2 262.3Q399.6 258.75 411.95 259.25L416 259.4Q416.75 228.1 417.1 196.75Q417.25 186.3 421.45 179.5Q423.35 238 421.9 297.95Q421 336.15 417.15 373.65Q417.1 374.45 416.45 375.2Q410.2 362.65 412.1 345.75Q413.75 330.9 414.3 316L415.75 270.55Q401.75 272.85 387.9 272.8L387.2 295.25Q385.85 336.95 381.7 377.7Q379.3 378.35 378.7 375.7Q379.2 316.8 381.7 257.95Q383.45 217.2 389.7 177.8Q389.7 177.6 390.2 177.5M373.2,199.5Q354.95 182.7 345.4 205Q340.45 216.5 342.9 228.95Q346.45 247.55 356.35 264.1Q380.9 305.05 372.85 351.25Q372.1 355.55 368.9 358.95Q350.85 378.4 335.2 358.1Q332.4 354.4 333.2 349.45Q333.55 347.05 335.45 345.7Q355.95 362.4 368.25 339.45Q371.9 332.65 370.1 324.5Q360.8 282.5 341.05 244.3Q337.2 236.9 336.2 228.55Q332.35 197.15 355.95 180.5Q376.35 180.6 373.55 198.7L373.2 199.5M160,176.25Q204.35 189.05 200.1 234.05Q198.85 247.15 193.75 259.65Q188.95 271.3 181 277.25Q194.5 297.25 205.7 319.6Q217.15 342.4 224.05 366.5Q225 369.8 223.2 372.95Q215.25 368.25 210.7 357.2Q202.4 336.7 193.2 316.5Q184.8 298 174.5 280.95Q164.15 285.15 149.85 282.15L149 295.85Q146.5 331.95 143.2 367.65Q143 369.8 141 370.45Q139.35 370.1 138.75 368.45L144.25 249.95Q146.05 213.3 148.85 177.25L149.25 177.25L149.65 183.35L149.75 182.25Q152.35 179.75 155.55 177.8Q157.85 176.4 160 176.25M265.45,260.25Q275.45 257.95 284.95 256.25Q311.65 263.15 318.05 291.65Q327.55 333.75 296.35 360.4Q284.6 370.45 270 367Q246.25 361.4 243.45 337.35Q240 308.1 250.3 280.1Q254.8 267.85 265.45 260.25M274.25,270.7Q267.15 272.3 261.5 278.15Q244.5 295.55 246.05 320.05Q247.35 340.4 264.75 349.15Q280.6 357.05 295.9 346.2Q315.6 332.15 312.15 307.85Q308.75 284 285.7 271.95L281.65 272.6Q277.4 273.4 274.25 270.7M187.05,203.3Q173.05 182.85 149.95 188.75L150.4 270.95L172.85 270.35L174.5 269L175.6 269.45Q188.45 259.35 193.15 244.05Q199.9 222.15 187.05 203.3" />
</g>
</svg>
