<?xml version="1.0" encoding="utf-8"?>
<svg version="1.1" id="Layer_1"
xmlns="http://www.w3.org/2000/svg"
xmlns:xlink="http://www.w3.org/1999/xlink"


xml:space="preserve">
q-1.55 10.6 -1.1 21.7q1.9 44.4 -1.4 88.3q-2.3 30.6 0.6 59.35q6.75 -3.8 3.5 -11.5q2.3 -23.45 3.4 -47.2q2.65 -55.85 -2.15 -110.6q25.1 0.3 50 -2.4q0.9 -1.4 1.2 -3.05q-0.15 -2 -1.35 -3.7q-0.35 -0.4 -0.7 -0.4q-37.85 1.6 -75.55 -0.6q-6.45 -1.35 -12.25 1.25q-1 1.3 -1.1 2.95q0.05 2.4 1.85 3.75q-0.8 -0.15 -1 0.4q-5.7 17.1 0 31.1q4.9 -15.45 0.45 -30.65q4.75 -21.5 3.8 -43.5q-0.8 -19.6 -2.9 -39.1q-1.15 42.05 -9.5 83q1.65 29.55 22.5 12.45q2.9 -2.4 3.85 -6.6q21.5 8.45 25.45 31.8q3.95 23.6 -14.55 37.35q-13.15 9.8 -29.6 9.4q7 -4.7 16.8 -4.05q-1.25 -0.3 -1.35 0.75q-3.3 58.35 -5.85 117q-0.65 15 -2.9 29.8q-3.5 23.2 -1.9 44.4q6.95 -6.5 7.8 -17.9q2.2 -27.55 4 -55.45q15.1 30.7 26.05 64.1q4.15 13.05 13.15 18.2q2.35 -3.25 0.95 -7q-9 -24.05 -17.5 -48.95q-8.8 -25.8 -24.25 -46.35q26.65 -14.9 24.6 -49.75q-2.45 -40.85 -43.25 -44.4q-7 1.85 -9.2 8.4q-21.25 32.9 -17.5 73.35q3 32.75 36.65 27.75q11.5 -1.7 17.95 -11.1q31.25 -45.25 3.45 -92.15q-12.7 -5.6 -27.15 -4.2q-1.65 1.15 -4.4 1.65q-5 0.95 -7.65 5q19.35 29.25 2.25 60.05q-11.45 20.6 -36.4 14.65q-8.15 -1.95 -10.4 -9.9q-4.45 -15.7 -3.15 -32.65q2.2 -28.85 27.7 -35.65q11 -2.05 20 3.5<g id="2398" transform="matrix(1, 0, 0, 1, -139.9, 0)">
<path style="fill:#000000;fill-opacity:1" d="M333.6,193.5L333.55 192.7L333.45 190.5L333.45 189.75L333.55 189L333.6 188.2Q333.7 186.55 334.7 185.25Q340.5 182.65 346.95 184Q384.65 186.2 422.5 184.6Q422.85 184.6 423.2 185Q424.4 186.7 424.55 188.7L424.65 189.5L424.7 191L424.7 191.75L424.65 192.45L424.5 193.25L424.4 193.95Q424.1 195.6 423.2 197Q398.3 199.7 373.2 199.4Q378 254.15 375.35 310Q374.25 333.75 371.95 357.2Q375.2 364.9 368.45 368.7Q365.55 339.95 367.85 309.35Q371.15 265.45 369.25 221.05Q368.8 209.95 370.35 199.35L335.45 197.25Q333.65 195.9 333.6 193.5M422,246.15L421.45 247Q415.75 233 421.45 215.9Q421.65 215.35 422.45 215.5Q426.9 230.7 422 246.15M414.7,357.4Q393.85 374.5 392.2 344.95L409.95 351.2Q418.3 310.25 419.45 268.2Q421.55 287.7 422.35 307.3Q423.3 329.3 418.55 350.8Q417.6 355 414.7 357.4M170.95,184.4Q161.15 183.75 154.15 188.45L154.9 263.5Q171.35 263.9 184.5 254.1Q203 240.35 199.05 216.75Q195.1 193.4 173.6 184.95L170.95 184.4M153.8,182.15Q156 175.6 163 173.75Q203.8 177.3 206.25 218.15Q208.3 253 181.65 267.9Q197.1 288.45 205.9 314.25Q214.4 339.15 223.4 363.2Q224.8 366.95 222.45 370.2Q213.45 365.05 209.3 352L203.5 334.15Q192.55 300.75 177.45 270.05L173 271.9L160.7 276.25L154.4 276.5L153.3 296.1Q151.5 324 149.3 351.55Q148.45 362.95 141.5 369.45Q139.9 348.25 143.4 325.05Q145.65 310.25 146.3 295.25Q148.85 236.6 152.15 178.25Q152.25 177.2 153.5 177.5L153.8 182.15M276.55,262.15Q279.3 261.65 280.95 260.5Q295.4 259.1 308.1 264.7L309.45 265Q337.25 311.9 306 357.15Q299.55 366.55 288.05 368.25Q254.4 373.25 251.4 340.5Q247.65 300.05 268.9 267.15Q271.55 263.1 276.55 262.15M284.95,273.45Q259.45 280.25 257.25 309.1Q255.95 326.05 260.4 341.75Q262.65 349.7 270.8 351.65Q295.75 357.6 307.2 337Q324.3 306.2 304.95 276.95Q295.95 271.4 284.95 273.45" />
</g>
</svg>
