<?xml version="1.0" encoding="utf-8"?>
<svg version="1.1" id="Layer_1"
xmlns="http://www.w3.org/2000/svg"
xmlns:xlink="http://www.w3.org/1999/xlink"


xml:space="preserve">
q-1.8 0.55 -3 2.25q-5.85 54.6 -7.55 110.25q-1.8 59.55 -8.1 118.45q-0.55 4.95 -0.35 9.6q-18.65 -41.45 -32.25 -85.25q-17.15 -56.75 -35.45 -112.3q-0.6 2.3 -0.9 4.65q-2.55 1.2 -2.75 4.8q-3.7 58.6 -3.45 117.8q0.1 22.25 -2.8 44.05q-7.95 59.55 -6.85 118.65q6.9 -2 7.05 -11.25q0.35 -18.3 2.45 -36.55q6.75 -58.7 6.8 -118.65q0.05 -30.1 1.95 -59.9q1.15 -17.85 0.55 -35.15q2.65 5.85 4.5 11.95q15.65 51.8 29.5 104.05q15.5 58.45 38.6 113.6q6.45 15.4 14.8 27.45q4.85 -10.6 0.45 -21.45q1.75 -8.2 2.1 -16.65q2.5 -58.9 5.4 -118.55q2.9 -59.45 2.95 -118.5q-21.85 22.65 -27.6 55.05q-9.05 50.95 4.9 98.85q3 10.35 9.95 18.8q17.2 1.65 28.55 -13.75q-1.9 11.45 3.95 21.25q12.9 -30.65 7.15 -64.75q-13.7 -3 -25.65 1.3q-9.5 20.75 -31.5 24.5q-21.2 -44.6 -8.05 -94.35q5.7 -21.7 13.55 -42.6q16.15 -6.1 28.9 9.45q2.25 2.75 2.35 0.5q0.6 -24.25 -23.55 -28.4q3.45 59.6 -0.6 119.15q-4.15 60.6 -38.75 109.9q-11.8 16.85 -26.9 1.45q-13.6 -13.85 -13.9 -34.1q-1 -59.55 3.55 -118.6q2.05 -30.35 0.15 -59.35q-4.65 5.25 -5.1 14.2q-2.9 57.75 -7.05 115.5q-4.25 58.75 -2.7 117.8q0.9 33.05 29.3 47.9q4 2.1 7.65 0.15q19.45 -10.45 29.35 -31.25q26.8 -56.4 29.8 -118.5q2.8 -59.35 0.55 -118.6q-0.55 -13.65 -7.3 -21.7q-5.5 7.2 -4.1 17.15q1.25 9 1.75 17.95q0.05 2.15 1.05 3.95q-2.05 10.1 -3.05 20.65q-4.6 47.2 -7.35 94.65q-0.8 1.35 -1 2.95q-0.45 3.05 -0.2 6.05q0.1 1.3 0.55 2.35q-2.85 58.85 -12 116.4q-1.3 -3 -2.6 -2.45q-0.2 1.1 -0.05 2.25q2 1.45 2.75 3.75q-1.9 9.9 4 16.25q3.7 -2.25 4.2 -7.2q6.1 -58.6 9.25 -117.8q9.55 -1.75 18.95 -5.85q15.45 56.5 32.95 112.1q7.2 22.85 19.2 40.7q2.6 -2.35 1.95 -5.85q-4.7 -26.05 -14.05 -51.6q-18.45 -50.3 -33.7 -101.3q4.8 -3.05 8.9 -7.15q28.6 -28.7 24.55 -70.15q-4.75 -48.35 -52.1 -54.65q-1.95 0.75 -2.4 3.25q-0.5 2.6 -0.45 5.25q20.7 2.05 30.95 18.8q17.9 29.5 2.8 60.1q-13.1 26.5 -43.55 33.15q3.4 -40 9.5 -79.6q2.65 -16.9 0.3 -32.45<g id="2411" transform="matrix(1, 0, 0, 1, -65.1, 0)">
<path style="fill:#000000;fill-opacity:1" d="M413.45,110L413.2 110.75Q413.15 169.8 410.25 229.25Q407.35 288.9 404.85 347.8Q404.5 356.25 402.75 364.45Q407.15 375.3 402.3 385.9L401.95 386.2Q393.6 374.15 387.15 358.75Q364.05 303.6 348.55 245.15Q334.7 192.9 319.05 141.1Q317.2 135 314.55 129.15L312.25 123.45Q312.85 140.75 311.7 158.6Q309.8 188.4 309.75 218.5Q309.7 278.45 302.95 337.15Q300.85 355.4 300.5 373.7Q300.35 382.95 293.45 384.95Q292.35 325.85 300.3 266.3Q303.2 244.5 303.1 222.25Q302.85 163.05 306.55 104.45Q306.75 100.85 309.3 99.65Q309.6 97.3 310.2 95Q328.5 150.55 345.65 207.3L362.7 263.05Q376.3 306.85 394.95 348.3Q394.75 343.65 395.3 338.7Q401.6 279.8 403.4 220.25Q405.1 164.6 410.95 110Q412.15 108.3 413.95 107.75L414.2 107.75L413.45 110M474.2,243.2Q474.1 245.45 471.85 242.7Q459.1 227.15 442.95 233.25Q435.1 254.15 429.4 275.85Q416.25 325.6 437.45 370.2Q459.45 366.45 468.95 345.7L469.75 347.2L470.2 345.45L450.45 341L450.2 331.25Q462.15 326.95 475.85 329.95Q481.6 364.05 468.7 394.7Q462.85 384.9 464.75 373.45Q453.4 388.85 436.2 387.2Q429.25 378.75 426.25 368.4Q412.3 320.5 421.35 269.55Q427.1 237.15 448.95 214.5L450.65 214.8Q474.8 218.95 474.2 243.2M267.85,115.15Q266.45 105.2 271.95 98Q278.7 106.05 279.25 119.7Q281.5 178.95 278.7 238.3Q275.7 300.4 248.9 356.8Q239 377.6 219.55 388.05Q215.9 390 211.9 387.9Q183.5 373.05 182.6 340Q181.05 280.95 185.3 222.2Q189.45 164.45 192.35 106.7Q192.8 97.75 197.45 92.5Q199.35 121.5 197.3 151.85L193 210.9Q188.45 269.95 189.45 329.5Q189.75 349.75 203.35 363.6Q218.45 379 230.25 362.15Q264.85 312.85 269 252.25Q273.05 192.7 269.6 133.1Q269.1 124.15 267.85 115.15M91.6,90.25Q92.05 87.75 94 87Q141.35 93.3 146.1 141.65Q150.15 183.1 121.55 211.8Q117.45 215.9 112.65 218.95Q127.9 269.95 146.35 320.25Q155.7 345.8 160.4 371.85Q161.05 375.35 158.45 377.7Q146.45 359.85 139.25 337Q121.75 281.4 106.3 224.9L105.8 222.6Q96.4 226.7 86.85 228.45L85.45 250.95Q82.3 310.15 76.2 368.75Q75.7 373.7 72 375.95Q66.1 369.6 68 359.7Q67.25 357.4 65.25 355.95Q65.1 354.8 65.3 353.7L65.5 352.2Q66.8 351.65 68.1 354.65L68.5 355.2Q77.65 297.65 80.5 238.8L81.15 226.1Q80.7 225.05 80.6 223.75Q80.35 220.75 80.8 217.7Q81 216.1 81.8 214.75Q84.55 167.3 89.15 120.1Q90.15 109.55 92.2 99.45Q91.2 97.65 91.15 95.5Q91.1 92.85 91.6 90.25M97.55,133.35Q91.45 172.95 88.05 212.95Q118.5 206.3 131.6 179.8Q146.7 149.2 128.8 119.7Q118.55 102.95 97.85 100.9Q100.2 116.45 97.55 133.35" />
</g>
</svg>
