<?xml version="1.0" encoding="utf-8"?>
<svg version="1.1" id="Layer_1"
xmlns="http://www.w3.org/2000/svg"
xmlns:xlink="http://www.w3.org/1999/xlink"


xml:space="preserve">
q-5.3 34.6 -6.45 70.45q-17.7 0.2 -34.6 3.35q1.1 -37.25 -1.7 -74.1q-1.15 0 -1.3 1.05q-2.25 16.6 -3.2 33.6q-3.4 59.5 -5 118.6q1.15 1.8 3.25 1.75q0.9 -0.65 1 -1.4q2.6 -17.35 4.2 -35q1.6 -17.45 2.4 -34.8q17.05 2.15 34.65 0.05q-0.65 27.6 -2.95 55q-1 12.5 5.95 17.4q2.7 -18.25 3.25 -37.5q1.7 -59.95 1 -118.5q-19.5 14.3 -25.35 38.2q-4.85 20 -7.5 40.6q-4.8 38.05 10.6 71.45q6 3.3 11.75 0q19.8 -11.45 12 -29.5q-5.85 15.5 -21.25 15q-7.15 -22.55 -6.6 -47.15q0.9 -41.6 27.6 -71.25q3.65 -0.15 7.25 0q2.9 -2.35 3.15 -6.45q0.4 -7.35 -5.65 -12.05q-4.65 24.45 1 48q10.9 -27.7 2.75 -60.75q-11.4 -3.3 -22.5 0.2q-6.35 43.45 -4.45 88.7q1.85 43.3 -0.6 86.5q-0.15 2.4 0.95 4.85q1 2.25 2.35 4.4q10.85 -53.2 7.45 -107.5q5.05 -7.75 -0.35 -15.25q24.15 2.65 48.3 -0.35q4.6 -6.95 -0.4 -13.05q-15.05 -1.7 -30.45 -2.05q-2.85 0.65 -5.5 1.6q-1.45 0.55 -2.7 1.5q-1.35 3.2 -0.95 6.75q-2.15 10.15 -1.75 22.1q2.1 59.75 -5.8 118.2q-2.3 17 4.45 29.45q6.1 -29.75 7.9 -61.4q1.2 -20.35 1.35 -40.55q1.9 2.2 4.75 1q11.25 -3.25 23 -3.25q3.6 -6.65 -0.65 -12.65q-14.9 -0.2 -27.7 5.9q-0.15 -28.65 -2.35 -57q20.75 -2.5 42.05 0.6q3.2 -3.95 2.25 -9.05q-0.2 -1.15 -0.75 -2.2q-0.35 -0.4 -0.8 -0.45q1.95 58.3 5 116.25q3.15 60.25 -4.1 119.3q-3.75 30.6 -14.1 59.55q-13.65 38.3 -54.65 30.6q-4.75 -4.3 -6.2 -10.2q-6.55 -26.3 -6.1 -54.4q0.95 -59.85 4.95 -119.15q1.5 -23 -0.2 -44.35q-1 0.35 -1.15 0.95q-7.6 31 -7.85 63.55q-0.5 59.7 -1.6 119.25q-0.5 23 7.4 43.75q6.95 18.2 25.65 18.4q35.4 0.4 47.8 -34.05q14.2 -39.45 18.2 -81.45q5.55 -58.8 2.55 -118.6q-1.8 -36.75 -2.1 -73.5q-0.2 -30.7 -4.45 -59.25q-5.85 9.8 -5.4 24q-5.1 1.7 -9.35 5.35q-9.45 8.05 -11.85 19.95q-11.5 57.95 -7.6 117.55q1.55 23.8 23.3 25.65q3.1 -2.75 5.2 -6.25q25.05 -40.95 22.85 -90.3q-0.65 -14.75 -0.45 -29.2q0.35 -24.45 -14.6 -41q-2.4 -0.95 -5.1 -1.05q5.2 30.25 5 61.5q-0.2 39.05 -22.25 69q-4.1 1.4 -7.5 -0.5q-11.85 -24.05 -9.65 -53.3q1.2 -16.1 0 -32.1q-2.6 -35.8 24.9 -54.6q2.6 0.3 4 1.05q-0.35 1.35 0.35 2.15q-3.75 0.85 -7.45 2.9q-0.7 1.8 -0.8 3.75q-0.15 2.7 0.8 5.15q-6.25 36.35 -10.5 73.85q-0.9 1.35 -1.15 2.95q-0.45 3.05 -0.15 6.05q-7.55 58.45 -14.75 116.95q-0.9 7.5 -3.05 14.6q-5.25 17.2 2.65 29.15q8.35 -31.6 11.6 -65.95q5.55 -58.6 12.95 -117.1q9.35 -1.85 17.65 -6.35q0.3 7.2 2.35 14.4q15.85 55.5 34.35 110.2q5.15 15.8 13.75 26.9q1.6 -1.5 2 -3.75q1.9 -12.2 -3.05 -23.85q-17.2 -40.1 -30.8 -81.4q-16.85 -51.2 -32.5 -102.75q5.5 -3.75 10.5 -8.8q45.25 -45.85 33.75 -108.65q-6 -33 -35.1 -46.75q13.55 -4.45 23.95 5.35q30.6 29 20.7 70.95q-12.1 51.15 -59.05 68.55q5.95 -46.35 12.35 -92.65q3.7 -26.6 2 -52.15<g id="2409" transform="matrix(1, 0, 0, 1, -24.1, 0)">
<path style="fill:#000000;fill-opacity:1" d="M422.45,70.25Q423.15 128.8 421.45 188.75Q420.9 208 418.2 226.25Q411.25 221.35 412.25 208.85Q414.55 181.45 415.2 153.85Q397.6 155.95 380.55 153.8Q379.75 171.15 378.15 188.6Q376.55 206.25 373.95 223.6Q373.85 224.35 372.95 225Q370.85 225.05 369.7 223.25Q371.3 164.15 374.7 104.65Q375.65 87.65 377.9 71.05Q378.05 70 379.2 70Q382 106.85 380.9 144.1Q397.8 140.95 415.5 140.75Q416.65 104.9 421.95 70.3L422.45 70.25M346.45,69.75Q352.5 74.45 352.1 81.8Q351.85 85.9 348.95 88.25L348.05 87.55L345.95 83.25L345.95 83Q342.35 82.85 338.7 83Q312 112.65 311.1 154.25Q310.55 178.85 317.7 201.4L319.2 205.25Q334.6 205.75 340.45 190.25Q348.25 208.3 328.45 219.75Q322.7 223.05 316.7 219.75Q301.3 186.35 306.1 148.3Q308.75 127.7 313.6 107.7Q319.45 83.8 338.95 69.5L346.45 69.75M330.7,163.95Q341.8 160.45 353.2 163.75Q361.35 196.8 350.45 224.5Q344.8 200.95 349.45 176.5L329.9 173.9L329.45 164.5L330.7 163.95M426.3,241.45Q431.3 247.55 426.7 254.5Q402.55 257.5 378.4 254.85L381.85 310.2L424.45 304.25Q429.85 311.75 424.8 319.5L382.15 321.2Q385.55 375.5 374.7 428.7Q373.35 426.55 372.35 424.3Q371.25 421.85 371.4 419.45Q373.85 376.25 372 332.95Q370.1 287.7 376.45 244.25L424.95 240L426.3 241.45M355.2,247L355.95 248.5Q356.5 249.55 356.7 250.7Q357.65 255.8 354.45 259.75Q333.15 256.65 312.4 259.15Q314.6 287.5 314.75 316.15Q327.55 310.05 342.45 310.25Q346.7 316.25 343.1 322.9L342.45 323.75Q330.7 323.75 319.45 327Q316.6 328.2 314.7 326Q314.55 346.2 313.35 366.55Q311.55 398.2 305.45 427.95Q298.7 415.5 301 398.5Q308.9 340.05 306.8 280.3Q306.4 268.35 308.55 258.2L308.05 257.2L307.75 255.75Q307.35 252.2 308.7 249Q309.95 248.05 311.4 247.5Q314.05 246.55 316.9 245.9L323.95 244.5Q339.35 244.85 354.4 246.55Q354.85 246.6 355.2 247M286.45,68.75Q290.7 97.3 290.9 128Q291.2 164.75 293 201.5Q296 261.3 290.45 320.1Q286.45 362.1 272.25 401.55Q259.85 436 224.45 435.6Q205.75 435.4 198.8 417.2Q190.9 396.45 191.4 373.45L193.85 253.5Q194.95 193.95 195.45 134.25Q195.7 101.7 203.3 70.7Q203.45 70.1 204.45 69.75Q206.15 91.1 204.65 114.1Q200.65 173.4 199.7 233.25L197.85 350.95Q197.4 379.05 203.95 405.35Q205.4 411.25 210.15 415.55L213.2 418.45Q254.2 426.15 267.85 387.85Q278.2 358.9 281.95 328.3Q289.2 269.25 286.05 209Q283 151.05 281.05 92.75Q280.6 78.55 286.45 68.75M168.05,64.05L170.45 64.75Q185.4 81.3 185.05 105.75Q184.85 120.2 185.5 134.95Q187.7 184.3 162.65 225.25Q160.55 228.75 157.45 231.5Q135.7 229.65 134.15 205.85Q130.25 146.25 141.75 88.3Q144.15 76.4 153.6 68.35Q157.85 64.7 162.95 63Q165.65 63.1 168.05 64.05M170.55,81.95L168.95 80.5Q168.25 79.7 168.6 78.35L168.95 76.25Q167.55 75.5 164.95 75.2L163.95 75.25Q136.45 94.05 139.05 129.85Q140.25 145.85 139.05 161.95Q136.85 191.2 148.7 215.25Q152.1 217.15 156.2 215.75Q178.25 185.8 178.45 146.75Q178.65 115.5 173.45 85.25L170.55 81.95M89.5,64Q118.6 77.75 124.6 110.75Q136.1 173.55 90.85 219.4Q85.85 224.45 80.35 228.2Q96 279.75 112.85 330.95Q126.45 372.25 143.65 412.35Q148.6 424 146.7 436.2Q146.3 438.45 144.7 439.95Q136.1 428.85 130.95 413.05L112.05 355.85Q93.55 301.15 77.7 245.65Q75.65 238.45 75.35 231.25Q67.05 235.75 57.7 237.6L56.55 246.4Q49.15 304.9 43.6 363.5Q40.35 397.85 32 429.45Q24.1 417.5 29.35 400.3Q31.5 393.2 32.4 385.7Q39.6 327.2 47.15 268.75L51.35 235.5L50.95 233.75Q50.65 230.75 51.1 227.7Q51.35 226.1 52.25 224.75L52.7 224.65L61.25 151.75Q65.5 114.25 71.75 77.9L69.5 77.75L68.5 76.15Q67.55 73.7 67.7 71Q67.8 69.05 68.5 67.25L70.55 65.9Q74.25 63.85 78 63L87.2 63.75L89.5 64M74,77.5Q75.7 103.05 72 129.65Q65.6 175.95 59.65 222.3Q106.6 204.9 118.7 153.75Q128.6 111.8 98 82.8Q87.6 73 74.05 77.45L74 77.5" />
</g>
</svg>
