<?xml version="1.0" encoding="utf-8"?>
<svg version="1.1" id="Layer_1"
xmlns="http://www.w3.org/2000/svg"
xmlns:xlink="http://www.w3.org/1999/xlink"


xml:space="preserve">
q-1.3 -0.2 -1.7 0.95q-13.6 36.1 -22 73.7q-4.75 21.45 -11.15 42.4q-11.45 -58.3 -25.4 -115.2q-1.9 2.9 -2.95 6.2q-2.2 -0.1 -2.85 2.2q-14.95 56.7 -25.3 114.6q-10.6 59.4 -30.1 113.9q-3.8 -3.05 -3 -8.5q-2.55 6.35 2.75 12.75q-3.3 12 4 17.75q6.45 -24.9 14.1 -50.1q17.3 -56.85 26.7 -115.5q4.7 -29.25 12.4 -57.6q14.7 57 21.35 115.35q0.25 2.15 0.65 4.1q-1.25 10.75 3.95 19.5q1.5 -1.1 2 -3q0.35 -5.85 0.35 -11.7q2.9 -11.15 4.45 -21.95q0.3 16.75 3.8 33.75q12 57.7 21.4 115.8q4.75 29.35 7.65 58.9q1.7 17.25 10.3 28.05q1.15 -0.85 1.45 -2.25q2.7 -11.65 0.4 -23.5q-11.25 -57.9 -21.15 -116.15q-9.95 -58.5 -22.2 -116.05q-7.8 56.35 -5.15 114.25q1.1 24 18.55 39.1q8 6.95 18.6 4.1q26.85 -7.25 35.3 -33.2q19.45 -59.55 -0.9 -117.3q-5 5.85 -4.75 14.25q3.5 10.75 5.85 22.75q7.05 36.15 -7 70.25q-8.65 21.05 -31.3 24q-17.15 2.2 -21.85 -14.2q-5.95 -20.85 -6.2 -43.05q-0.25 -18.4 2.8 -36.5q5.05 -30.25 1.95 -59.5q-4.6 5.9 -5.9 15.05q-8.2 -20 -26.8 -30.7q-16.25 -9.4 -34.3 -6.5q-6.75 61.8 -7.4 124.25q-1.75 2.5 -2.05 5.5q-0.25 3 0.05 5.75q0.2 2.15 1.75 3.65q-1.8 52.8 -8.9 105.1q-1.15 8.65 5.3 14.15q4.85 -10.65 5.25 -22.45q10.25 -2.1 19.55 -7.15q5.5 -3 10.55 -7.2q10 41.65 24.25 82q9.95 28.15 24.25 54q5 -4.4 3 -12.15q-16.6 -65.55 -47.75 -127.05q12.55 -10.95 21 -25.4q8.4 -14.35 11.7 -30.8q4.4 -19.85 -3.35 -38.85q20.25 28.9 0.15 60.85q-18.35 29.1 -49.5 37.5q2.25 -36.3 6.35 -72.3q2.85 -24.9 0.85 -48.85q26.55 0.6 42.15 22.8<g id="2407" transform="matrix(1, 0, 0, 1, -85.05, 0)">
<path style="fill:#000000;fill-opacity:1" d="M393.45,131.25Q405.7 188.8 415.65 247.3Q425.55 305.55 436.8 363.45Q439.1 375.3 436.4 386.95Q436.1 388.35 434.95 389.2Q426.35 378.4 424.65 361.15Q421.75 331.6 417 302.25Q407.6 244.15 395.6 186.45Q392.1 169.45 391.8 152.7Q390.25 163.5 387.35 174.65L361.1 275.25Q361.1 281.1 360.75 286.95L360.2 288.5L358.1 286.55L357.45 289Q356.95 290.9 355.45 292Q350.25 283.25 351.5 272.5Q351.1 270.55 350.85 268.4Q344.2 210.05 329.5 153.05L328.8 149.65L327.15 157Q319.45 185.35 314.75 214.6Q305.35 273.25 288.05 330.1Q280.4 355.3 273.95 380.2Q266.65 374.45 269.95 362.45Q264.65 356.05 267.2 349.7Q266.4 355.15 270.2 358.2Q289.7 303.7 300.3 244.3Q310.65 186.4 325.6 129.7Q326.25 127.4 328.45 127.5L329.5 134.95Q330.55 131.65 332.45 128.75Q346.4 185.65 357.85 243.95L358.6 247.8Q365 226.85 369.75 205.4Q378.15 167.8 391.75 131.7Q392.15 130.55 393.45 130.75L393.45 131.25M207.45,162.5Q210.55 191.75 205.5 222Q202.45 240.1 202.7 258.5Q202.95 280.7 208.9 301.55Q213.6 317.95 230.75 315.75Q253.4 312.8 262.05 291.75Q276.1 257.65 269.05 221.5Q266.7 209.5 263.2 198.75Q262.95 190.35 267.95 184.5Q288.3 242.25 268.85 301.8Q260.4 327.75 233.55 335Q222.95 337.85 214.95 330.9Q197.5 315.8 196.4 291.8Q193.75 233.9 201.55 177.55Q202.85 168.4 207.45 162.5M166.9,184.05Q163.6 200.5 155.2 214.85Q146.75 229.3 134.2 240.25Q165.35 301.75 181.95 367.3Q183.95 375.05 178.95 379.45Q164.65 353.6 154.7 325.45Q140.45 285.1 130.45 243.45Q125.4 247.65 119.9 250.65Q110.6 255.7 100.35 257.8L96.75 355.5Q96.35 367.3 91.5 377.95Q85.05 372.45 86.2 363.8Q93.3 311.5 95.1 258.7L91.5 258.15Q89.95 256.65 89.75 254.5Q89.45 251.75 89.7 248.75Q90 245.75 91.75 243.25L95.55 242.55Q96.2 180.1 102.95 118.3L102.45 108Q120.5 105.1 136.75 114.5Q155.35 125.2 163.55 145.2Q171.3 164.2 166.9 184.05M108.55,120.05Q110.55 144 107.7 168.9Q103.6 204.9 101.35 241.2Q132.5 232.8 150.85 203.7Q170.95 171.75 150.7 142.85Q135.1 120.65 108.55 120.05" />
</g>
</svg>
