<?xml version="1.0" encoding="utf-8"?>
<svg version="1.1" id="Layer_1"
xmlns="http://www.w3.org/2000/svg"
xmlns:xlink="http://www.w3.org/1999/xlink"


xml:space="preserve">
q5.05 -15.3 8.9 -31.55q13.5 -57.5 30.25 -114.2q6.55 -22.3 4.85 -43.95q-10 25.3 -16.9 54.05q-13.55 56.25 -30.5 112.15q-14.9 -54.7 -28.85 -110.1q-7.45 -29.75 -18.75 -56.85q-0.8 -0.15 -0.85 0.3q-1.15 14.25 3 29.35q3.95 14.6 5.1 29.45q1.05 13.45 8.8 19.35q1.35 -1.85 2 -3.9q-0.75 0.1 -0.8 0.3q-3.35 31.75 -3.3 64.45q-2.65 4.05 -2.15 9.05q0.3 2.85 1.9 5.2q-1.1 37.6 -4.1 74.65q0.55 2.65 3 2q6.35 -32.25 6.7 -66q17.6 0 30.2 -10.2q6.75 19.9 14.95 40.25q11.05 27.4 27.7 49.3q6.4 -12.95 -3.15 -25.55q-8.85 -11.7 -14.2 -25.2q-9 -22.55 -21.1 -42.6q5.55 -5.7 10 -13.7q9 -16.2 6.15 -35.2q-5.5 -36.6 -40.15 -46.2q3.4 -41 0.15 -81.9q22.1 -1 34.7 16.95q13.1 18.55 3.9 39.4q-9.4 21.3 -32.35 24.95q-0.5 -1.6 -1.45 -2.9q-1.75 13.55 7.1 28.3q-15.5 15.15 -10.4 36.85q2.45 10.3 10.25 17.35q13.3 2.8 26.15 -1.65q3.4 9 11.9 13q1.6 -9.9 -5.35 -18.45q2.05 -3.4 1.9 -7.4q-0.1 -1.8 -0.6 -3.35q-13.2 3.45 -26.3 -0.6q-2.55 -16.25 10.55 -24.5<g id="2426" transform="matrix(1, 0, 0, 1, -138.75, 0)">
<path style="fill:#000000;fill-opacity:1" d="M373.2,367.55Q372.55 369.6 371.2 371.45Q363.45 365.55 362.4 352.1Q361.25 337.25 357.3 322.65L326.6 209.15Q322.45 194.05 323.6 179.8Q323.65 179.35 324.45 179.5Q335.75 206.6 343.2 236.35Q357.15 291.75 372.05 346.45Q389 290.55 402.55 234.3Q409.45 205.55 419.45 180.25Q421.15 201.9 414.6 224.2Q397.85 280.9 384.35 338.4Q380.5 354.65 375.45 369.95L373.2 367.55M159,182.25Q193.65 191.85 199.15 228.45Q202 247.45 193 263.65Q188.55 271.65 183 277.35Q195.1 297.4 204.1 319.95Q209.45 333.45 218.3 345.15Q227.85 357.75 221.45 370.7Q204.8 348.8 193.75 321.4Q185.55 301.05 178.8 281.15Q166.2 291.35 148.6 291.35L148.45 301.7Q148.1 335.45 141.75 367.7Q139.3 368.35 138.75 365.7Q141.75 328.65 142.85 291.05L141.75 290.95Q140.15 288.6 139.85 285.75Q139.35 280.75 142 276.7L143.15 276.75L143.4 247.25Q143.35 214.55 146.7 182.8Q146.75 182.6 147.5 182.5L148 185.9L148.55 185.05L149.25 184.25L155.1 182.9L159 182.25M155.35,276Q178.3 272.35 187.7 251.05Q196.9 230.2 183.8 211.65Q171.2 193.7 149.1 194.7Q152.35 235.6 148.95 276.6L155.35 276M304.25,345.85Q304.4 349.85 302.35 353.25Q309.3 361.8 307.7 371.7L305.9 371.05Q297.4 367.05 294 358.05L290.6 359.3Q277.75 363.75 264.45 360.95Q256.65 353.9 254.2 343.6Q249.1 321.9 264.6 306.75L262.55 303.25Q253.7 288.5 255.45 274.95L296.5 341.7L302.2 339.6Q303.15 340.9 303.65 342.5Q304.15 344.05 304.25 345.85M270.1,317.2Q257 325.45 259.55 341.7L261.2 344.7Q274.3 348.75 287.5 345.3L271.3 316.7L270.1 317.2" />
</g>
</svg>
