<?xml version="1.0" encoding="utf-8"?>
<svg version="1.1" id="Layer_1"
xmlns="http://www.w3.org/2000/svg"
xmlns:xlink="http://www.w3.org/1999/xlink"


xml:space="preserve">
q-3.9 29.95 -5.05 60.2q-2.15 56.9 0.6 113.2q0.65 13 5.1 24.95q16 42.5 58.05 56.75q16.55 -7.35 26.8 -21.35q3.85 -5.3 6.75 -10.7q-1.9 16.75 5.05 27.65q5.8 -33.3 6.4 -68.25q0.2 -11.6 2.55 -22.95q4.6 -22.35 -2.2 -42.25q-2 -0.3 -3.75 -1.35q-6.65 -1.55 -12.9 0.2q-20.75 5.8 -13.6 19.8q11.8 -6.7 25.5 -6.25q0.7 0.75 1.75 0.8q4.8 0.3 5.75 2.7q-10.6 24.6 -30.3 42.9q-2.45 2.3 -5.4 1.8q-27.55 -4.65 -43.95 -27.85q-5.5 -7.75 -8 -16.95q-7 -25.25 -8.25 -51.9q-2.75 -59.6 4.75 -117.85q2.8 -21.65 9.05 -42.45q9.85 -32.8 38.5 -50.55q32.95 -20.35 58.85 7.3q-3.95 -30.1 -39.35 -31q-38.3 11.2 -56.4 47.05q-11.9 23.55 -15.3 49.55q-7.35 33.75 -12 69.6q-7.55 58.15 -17.4 115.85q-10.1 59.3 -26.7 117.1q-2.15 7.45 -5.3 14.5q-6.15 13.85 2.35 21.7q10.15 -26.9 17.2 -55.3q11.4 -45.75 18.5 -92.05q18.15 -1.35 36.55 -4.35q6.25 -1.9 12.75 -3.1q7.5 39.5 16.55 78.75q6.65 28.85 8 58.4q0.8 16.85 7.45 28.15q3.05 -3.9 2.75 -9q-3.55 -59.4 -18.75 -116.85q-15.2 -57.25 -24.45 -115.5q-9.3 -58.4 -18 -116.2q-3.05 16.25 -4.2 34.65q-3.6 58.95 -9.95 117.8q-6.4 58.9 -13.45 117.75q-1.8 15.05 -5.7 29.6q-3.75 13.85 3.55 22.4q9.3 -46.55 14.5 -94.25q17 -1.15 31.6 -9.05q16.6 40.3 35.4 80.4q24.8 52.8 45.35 106.3q5.35 -3.05 3.2 -10.25q-11.9 -40.1 -29.6 -78.85q-23.35 -50.95 -50.15 -100.05q9.45 -6 17.85 -15q41 -43.85 21.75 -99.55q-12.7 -36.7 -50.3 -44.75q-8.2 1.7 -15.35 5.55q-0.55 1.8 -0.55 3.75q2.5 -1.45 5.25 -1.6q34.35 -1.8 51.2 29.15q12.75 23.5 5.15 49q-16.35 54.7 -71.75 65.6q5.85 -54.75 3.95 -109.1<g id="2437" transform="matrix(1, 0, 0, 1, -51.7, 0)">
<path style="fill:#000000;fill-opacity:1" d="M373.55,134.05Q391.65 98.2 429.95 87Q465.35 87.9 469.3 118L469.2 118.75Q443.3 91.1 410.35 111.45Q381.7 129.2 371.85 162Q365.6 182.8 362.8 204.45Q355.3 262.7 358.05 322.3Q359.3 348.95 366.3 374.2Q368.8 383.4 374.3 391.15Q390.7 414.35 418.25 419Q421.2 419.5 423.65 417.2Q443.35 398.9 453.95 374.3L455.85 355.05L457.95 332.5Q457 330.1 452.2 329.8Q451.15 329.75 450.45 329Q436.75 328.55 424.95 335.25Q417.8 321.25 438.55 315.45Q444.8 313.7 451.45 315.25Q453.2 316.3 455.2 316.6L460.45 317.25Q467.25 337.15 462.65 359.5Q460.3 370.85 460.1 382.45Q459.5 417.4 453.7 450.7Q446.75 439.8 448.65 423.05L450.5 406.65Q447.6 412.05 443.75 417.35Q433.5 431.35 416.95 438.7Q374.9 424.45 358.9 381.95Q354.45 370 353.8 357Q351.05 300.7 353.2 243.8Q354.35 213.55 358.25 183.6Q361.65 157.6 373.55 134.05M284.25,87.4Q292.95 145.2 302.25 203.6Q311.5 261.85 326.7 319.1Q341.9 376.55 345.45 435.95Q345.75 441.05 342.7 444.95Q336.05 433.65 335.25 416.8Q333.9 387.25 327.25 358.4Q318.2 319.15 310.7 279.65Q304.2 280.85 297.95 282.75L296.5 282.15L295.7 281.75Q277.3 284.75 259.15 286.1Q252.05 332.4 240.65 378.15Q233.6 406.55 223.45 433.45Q214.95 425.6 221.1 411.75Q224.25 404.7 226.4 397.25Q243 339.45 253.1 280.15Q262.95 222.45 270.5 164.3Q275.15 128.45 282.5 94.7L283.9 88.4L284.2 87L284.25 87.4M88.55,98.7L87.75 98.25L87.15 95.95L86.95 93.75Q86.95 91.8 87.5 90Q94.65 86.15 102.85 84.45L106.95 84.25Q144.55 92.3 157.25 129Q176.5 184.7 135.5 228.55Q127.1 237.55 117.65 243.55Q144.45 292.65 167.8 343.6Q185.5 382.35 197.4 422.45Q199.55 429.65 194.2 432.7Q173.65 379.2 148.85 326.4Q130.05 286.3 113.45 246Q98.85 253.9 81.85 255.05L74.2 325.85Q69 373.55 59.7 420.1L59 420.95Q51.7 412.4 55.45 398.55Q59.35 384 61.15 368.95Q68.2 310.1 74.6 251.2Q80.95 192.35 84.55 133.4Q85.7 115 88.75 98.75L88.55 98.7M90.85,99.05Q92.75 153.4 86.9 208.15L83.35 241.4Q138.75 230.5 155.1 175.8Q162.7 150.3 149.95 126.8Q133.1 95.85 98.75 97.65Q96 97.8 93.5 99.25L90.85 99.05M308.2,266.35L283.05 126.15L260.75 275.15L308.2 266.35" />
</g>
</svg>
