<?xml version="1.0" encoding="utf-8"?>
<svg version="1.1" id="Layer_1"
xmlns="http://www.w3.org/2000/svg"
xmlns:xlink="http://www.w3.org/1999/xlink"


xml:space="preserve">
q-1.8 59.55 -5.4 118.55q-1.65 24.3 0.5 47.45q-5.3 -16.9 -9.5 -34.05q-14.1 -57.5 -27.8 -114.6q-13.8 -57.45 -31.4 -113.7q-4.8 20.75 -4.5 44.25q0.7 59.6 -3.05 118.55q-3.75 59.1 -1.7 118.4q0.3 1.75 2 2q4.75 -21.65 3.9 -46.25q-2.1 -59.7 1.6 -118.55q3.35 -53.5 2.1 -106.15q11 49.5 22.85 98.85q7.1 29.55 18.1 56.35q2.4 -2.6 2.9 -5.85q6 -13.55 5.75 -31.65q-0.8 -59.5 2 -118.55q2.8 -59.95 3.6 -118.4q-4 14.9 -4.55 32.25q-17.85 5.1 -22.15 28.35q-3.8 20.4 -6.1 40.9q-2.35 21.1 -0.5 42.2q1.6 18.5 11.25 34.25q9.3 -4.6 13.65 -13.8q2 -4.35 1.55 -9.15q-5.6 8.85 -14.75 14.15q-2.7 1.55 -4.55 -0.65q-8.55 -10.45 -8.65 -25.5q-0.25 -39.3 9.35 -77.3q2.9 -11.4 13.6 -16.4q2.4 -4 1.1 -8.95q-1.35 -4.95 -4.65 -9.1q-4.85 30.15 -2.45 59.55q9.75 -20.85 8.75 -49.1q-0.3 -8.95 -2.25 -17.45q-6.85 42.65 -12.1 85.8q-1.75 14.55 -4.25 29q-8.1 43.8 -16.95 87.6q-2.6 6.8 -3.2 13.95q-0.65 7.95 3.1 14.85q3 51.65 13.05 102.15q1.4 7.1 3.6 14.05q1.1 3.45 2.65 6.75q2.4 -30.1 -3.4 -61q-3.85 -20.6 -6.5 -41.35q1.8 -1.4 2.15 -3.9q0.2 -1.45 -0.2 -2.8q0.7 -0.3 1.4 -0.45q-1.1 20.1 -3.65 40.05q-0.3 -1.85 -2 -1.3q-0.6 0.2 -1.1 0.6q-1 2.1 -1.15 4.5q-0.2 2.65 0.35 5.2q-9.6 58.65 -10.4 118.75q-6.65 11.5 2.25 20q1.15 -0.85 1.35 -2.25q3.25 -26.8 5.4 -53.85q3.6 -45.85 8.2 -91.55q13.6 -0.45 26.5 -7.25q13.65 36.45 21.9 74.7q6.2 28.9 9.25 58.1q1.7 16.25 8.65 27.35q0.65 -0.75 0.65 -1.5q-0.5 -28.25 -6.15 -56.3q-10.85 -53.95 -29.85 -104.95q8.05 -5.05 13.25 -12.65q28.25 -41.15 8.8 -89.25q-11.95 -29.45 -41.45 -35.3q-3.65 0.4 -7.5 2.2q-2.5 1.15 -4.75 2.55q-0.7 1.8 -0.7 3.75q0 1.95 0.85 3.65q11.75 17.85 13 39.3q1.25 21.55 -8.55 40.55q-9.95 19.35 -30.8 26.25q-7.05 2.45 -14.6 3.2q7.5 -64.1 4.95 -125.2q23.1 -3.55 36 15.9<g id="2429" transform="matrix(1, 0, 0, 1, -91.55, 0)">
<path style="fill:#000000;fill-opacity:1" d="M397.2,114.75Q396.4 173.2 393.6 233.15Q390.8 292.2 391.6 351.7Q391.85 369.8 385.85 383.35Q385.35 386.6 382.95 389.2Q371.95 362.4 364.85 332.85L337.4 218.6Q325.55 169.25 314.55 119.75Q315.8 172.4 312.45 225.9Q308.75 284.75 310.85 344.45Q311.7 369.05 306.95 390.7Q305.25 390.45 304.95 388.7Q302.9 329.4 306.65 270.3Q310.4 211.35 309.7 151.75Q309.4 128.25 314.2 107.5L314.35 111.25L315.2 110.5Q332.8 166.75 346.6 224.2Q360.3 281.3 374.4 338.8Q378.6 355.95 383.9 372.85Q381.75 349.7 383.4 325.4L387.25 265.55Q390.85 206.55 392.65 147Q393.2 129.65 397.2 114.75M441.15,242.45Q444.45 246.6 445.8 251.55Q447.1 256.5 444.7 260.5L436.95 250.5Q426.25 255.5 423.35 266.9Q413.75 304.9 414 344.2Q414.1 359.25 422.65 369.7Q424.5 371.9 427.2 370.35Q436.35 365.05 441.95 356.2L442.5 358.35L443.15 362.25Q443.6 367.05 441.6 371.4Q437.25 380.6 427.95 385.2L419.95 383.95Q410.3 368.2 408.7 349.7Q406.85 328.6 409.2 307.5Q411.5 287 415.3 266.6Q419.6 243.35 437.45 238.25L441.15 242.45M453.75,343.2Q454.75 371.45 445 392.3Q442.6 362.9 447.45 332.75L434.7 329.5L434.2 321.25L448.25 320.85L450.45 321.5L451.5 325.75Q453.45 334.25 453.75 343.2M254.3,110.7L271.1 255.9L272.85 255.95L273.1 256.25L273.6 257.75L274.3 259.95Q274.7 261.3 274.5 262.75Q274.15 265.25 272.35 266.65L274.95 287.5Q277.6 308.25 281.45 328.85Q287.25 359.75 284.85 389.85L284.65 390Q283.1 386.7 282 383.25Q279.8 376.3 278.4 369.2Q268.35 318.7 265.35 267.05L235.5 265.85L208.7 390.7Q204.95 383.8 205.6 375.85Q206.2 368.7 208.8 361.9L210 358.55L210.5 356.8L210.9 354.9Q219.75 311.1 227.85 267.3L235.6 223.55Q238.1 209.1 239.85 194.55Q245.1 151.4 251.95 108.75L253.2 109.45L254.2 108L254.3 110.7M251.15,166.7L237.25 256.15L264.3 255.85L252.8 152.05L251.15 166.7M114,105.5Q114 103.55 114.7 101.75Q116.95 100.35 119.45 99.2Q123.3 97.4 126.95 97Q156.45 102.85 168.4 132.3Q187.85 180.4 159.6 221.55Q154.4 229.15 146.35 234.2Q165.35 285.2 176.2 339.15Q181.85 367.2 182.35 395.45Q182.35 396.2 181.7 396.95Q174.75 385.85 173.05 369.6Q170 340.4 163.8 311.5Q155.55 273.25 141.9 236.8Q129 243.6 115.4 244.05Q110.8 289.75 107.2 335.6Q105.05 362.65 101.8 389.45Q101.6 390.85 100.45 391.7Q91.55 383.2 98.2 371.7Q99 311.6 108.6 252.95L110 243.95L107.7 243.75L107.15 242.2Q106.6 239.65 106.8 237Q106.95 234.6 107.95 232.5Q108.45 232.1 109.05 231.9Q110.75 231.35 111.05 233.2L111.2 234L111.4 234Q113.95 214.05 115.05 193.95L119.3 108.85Q118.6 109 117.9 109.3L115.45 110L114.85 109.15Q114 107.45 114 105.5M121.45,108.25Q124 169.35 116.5 233.45Q124.05 232.7 131.1 230.25Q151.95 223.35 161.9 204Q171.7 185 170.45 163.45Q169.2 142 157.45 124.15Q144.55 104.7 121.45 108.25" />
</g>
</svg>
