<?xml version="1.0" encoding="utf-8"?>
<svg version="1.1" id="Layer_1"
xmlns="http://www.w3.org/2000/svg"
xmlns:xlink="http://www.w3.org/1999/xlink"


xml:space="preserve">
q-5.55 70.6 -6.25 141.45q-0.35 33.4 -3.1 66.95q-0.4 4.15 -0.55 8.35q0.3 5.35 2.2 10.6q8.1 -57.85 7.6 -116.8q-0.1 -13.9 0.4 -27.75q21.55 -0.9 41 -10.15q25 2.75 46.85 -7.25q-22.35 -0.1 -45.3 6.4q-23.95 -2.95 -49.4 3.35q-3.4 120.55 -3.15 241.05q0 5.3 0.4 10.6q13.7 -65.3 5.8 -135.5q20.9 2.55 38.25 -9.25q-18.25 7.05 -37.85 5.6q23.95 2 46.65 -5.65q-4.35 21.7 -6.95 42.55q-1.75 14.15 -5.75 26.65q-3.8 11.75 -6.2 23.95q-2.4 12.2 -4.4 24.45q-3.25 19.8 -9.55 38.65q-5.35 16.05 1.1 29.4q6.05 65.95 15 131.15q0.25 1.7 1.65 2.95q4.65 -25.55 0 -52.55q-7.45 -42.8 -11.75 -86q-1.65 -16.55 -4.25 -33.75q-10.6 9.95 -14.35 38.15q-2.5 19.15 -6.3 38.2q-6.65 48.4 -9.8 97.6q-4.85 1.85 -4.9 7.5q0 4.1 3.15 6.75q-3.8 46.05 -10.6 91.7q-1.4 9.25 -3.45 18.3q-4 17.8 3.9 29.4q2 -2.15 2.25 -5.25q4.3 -59.1 10.95 -117.9q4.95 -0.8 9.8 -2.3q7.75 -2.4 14.55 -5.8q1.7 8.35 5 16.7q21.5 54.55 35.8 111.6q2.35 9.35 8.2 12.35q1.8 -2.3 1.5 -5.2q-1.8 -17.15 -7.05 -34.2q-16.4 -53.15 -38.7 -103.8q17.65 -10.4 28.25 -28.55q6.5 -11.1 6.8 -23.7q1.25 -52.05 -48.05 -71.5q-2.8 0.1 -6 1.2q-4.15 1.35 -7 4.55q-0.2 1.5 -0.05 2.95q0.15 1.3 0.85 2.3q25 7.4 37.55 31.25q18.85 35.7 -13.95 61.3q-11.65 9.1 -25.1 15.5q-7.15 3.4 -12.95 3.75q4.8 -44.7 8.9 -89.45q1.1 -11.85 -0.3 -22.7<g id="2427" transform="matrix(1, 0, 0, 1, -83.85, 0)">
<path style="fill:#000000;fill-opacity:1" d="M391.3,118.85Q414.25 112.35 436.6 112.45L438.9 119.45L438.4 119.75Q416.55 129.75 391.55 127L391.1 231.75L420.95 222.75L431.45 225.7L431.7 232Q412.25 241.25 390.7 242.15Q390.2 256 390.3 269.9Q390.8 328.85 382.7 386.7L380.25 380.4Q378.35 375.15 378.05 369.8L378 365.85Q378.15 361.65 378.55 357.5L379.3 350.15L380.7 335.3Q383.45 301.75 383.8 268.35Q384.5 197.5 390.05 126.9L388.35 126.1L388.45 119.25L390.9 118.9L391.2 116L391.3 118.85M366.95,121.75Q344.25 129.4 320.3 127.4L320.35 233.6Q339.95 235.05 358.2 228L360.95 230.25L360.7 236.25Q343.35 248.05 322.45 245.5L320.25 243.2Q328.15 313.4 314.45 378.7Q314.05 373.4 314.05 368.1Q313.8 247.6 317.2 127.05L316.95 118.75Q342.4 112.45 366.35 115.4L366.95 121.75M241.85,159.4Q245.6 131.2 256.2 121.25L258.4 135.5L260.55 149.75L269.2 206.9Q271.8 224.1 273.45 240.65Q277.75 283.85 285.2 326.65Q289.85 353.65 285.2 379.2L282.65 377.05Q281.25 375.8 281 374.1Q272.05 308.9 266 242.95L233.9 243.6L203.8 383.25Q197.35 369.9 202.7 353.85Q209 335 212.25 315.2Q214.25 302.95 216.65 290.75Q219.05 278.55 222.85 266.8Q226.85 254.3 228.6 240.15Q231.2 219.3 235.55 197.6Q239.35 178.55 241.85 159.4M109.6,118.45Q109.45 117 109.65 115.5L109.95 114Q112.8 110.8 116.95 109.45Q120.15 108.35 122.95 108.25Q172.25 127.7 171 179.75Q170.7 192.35 164.2 203.45Q153.6 221.6 135.95 232Q158.25 282.65 174.65 335.8Q179.9 352.85 181.7 370Q182 372.9 180.2 375.2Q174.35 372.2 172 362.85Q157.7 305.8 136.2 251.25Q132.9 242.9 131.2 234.55Q124.4 237.95 116.65 240.35Q111.8 241.85 106.85 242.65L104.95 259.55Q98.3 318.35 94 377.45Q93.75 380.55 91.75 382.7Q83.85 371.1 87.85 353.3Q89.9 344.25 91.3 335Q98.1 289.35 101.9 243.3L97.45 243.5Q94.3 240.85 94.3 236.75Q94.35 231.1 99.2 229.25L102.9 230.5L103.8 217.2Q106.95 168 113.6 119.6L112.85 119.95L110.45 120.75Q109.75 119.75 109.6 118.45M117.05,141.4Q112.95 186.15 108.15 230.85Q113.95 230.5 121.1 227.1Q134.55 220.7 146.2 211.6Q179 186 160.15 150.3Q147.6 126.45 122.6 119.05L116.75 118.7Q118.15 129.55 117.05 141.4M264.8,232.6L254.85 139.85L236.2 232.75L264.8 232.6" />
</g>
</svg>
