<?xml version="1.0" encoding="utf-8"?>
<svg version="1.1" id="Layer_1"
xmlns="http://www.w3.org/2000/svg"
xmlns:xlink="http://www.w3.org/1999/xlink"


xml:space="preserve">
q-16.85 -5.35 -34.45 -6.3q-1.2 54.45 -1.55 110.05q-0.25 46.4 -1.65 92.85q56.3 -11.1 81.4 -63.85q7.3 -35.05 -0.5 -70.8q-5.5 -25.05 -20.05 -45.45q-8.45 -11.85 -23.2 -16.5q18.95 54.25 3.15 107.95q-3.75 12.6 -11.85 22.95q-8.75 11.15 -19.35 19.8q48.85 30.75 66.15 88.45q10.4 34.55 2.2 69.1q-9.2 38.95 -42.8 61.1q-40.45 26.7 -88.1 34.9q-1.2 4.9 -2.95 9.55q-6.2 -8.7 -3.65 -22.25q2.75 -14.7 3.05 -29.75q1.05 -60.05 5.2 -119.35q-1.8 -1.35 -1.85 -3.75q-0.25 -1.9 0.05 -3.75q0.2 -1.5 0.85 -2.95q2.8 -59.05 1.45 -118.5q-0.55 -24.9 3.55 -47.6q-0.65 -1.45 -0.7 -3q0.2 -1.45 1.45 -1.65q45.75 -4.35 70.9 30.25q6.75 9.3 10.65 20.4q-10.25 7.35 -22.1 12.6q-2.15 59.5 -5.3 118.55q-2.25 40.85 -3.55 81.7q50.15 -9 91.4 -39.9q42.55 -31.85 35.15 -82.95q-8.25 -57.45 -50 -97.2q-2.9 -2.75 -4.2 -6.1q-5.5 -4.25 -11.6 -7.3q-0.9 -0.45 -1.65 -1.2q-2.6 -0.2 -4.4 -1.85q-19.75 -53.8 -73.3 -75q-16.45 -6.55 -34.8 -5.75q-0.05 56.25 -5.65 113.25q-4.7 48 -8.45 96.15q46.2 -3.65 88.05 -23.9q52.6 -25.45 43.8 -81.85q-1.8 -11.65 -5.9 -22.75q-0.4 57.4 -54.6 81.5q-10.9 4.85 -22.05 8.6q18.4 33.35 33.75 69.05q5.95 13.85 14.25 26.55q32.55 49.85 52.35 106.25q5.6 15.85 13.45 30.9q5.4 10.45 -0.2 18.85q-23.6 -51.15 -46.35 -104.15q-12.8 -29.75 -30.15 -57.6q-11.15 -17.85 -19.75 -37.1q-11.55 -25.9 -20.75 -51.65q-29 9.15 -59.75 10.75q-4.35 59.3 -5.6 118.55q-1.1 50.65 -6.35 99.75q-2.5 0.1 -3.25 -2.25q1.85 -58.75 4.7 -117.7q2.6 -54.05 6.4 -107.85q-1.85 -1.35 -2.1 -3.75q-0.35 -3.45 0.7 -6.75q3.1 -43.45 7.35 -86.7q5.85 -59 8 -118.6q0.1 -2.8 1 -4.95q0 -1.15 0.15 -2.25q14 -2.55 29.25 -1.75q61.9 13.65 88.35 71.6q12.4 27.1 12.15 56.9q3.25 59 2.95 119.25q-0.3 59.45 -2.7 118.55q-1 23.5 -2.75 45.65q-6.5 -11.65 -5.35 -29.05q3.9 -59.45 5 -119.15q1.05 -59.45 -0.5 -119.25q-0.25 -9.4 3.35 -16<g id="2441" transform="matrix(1, 0, 0, 1, -41.05, 0)">
<path style="fill:#000000;fill-opacity:1" d="M352.45,69.5Q335.6 64.15 318 63.2Q316.8 117.65 316.45 173.25Q316.2 219.65 314.8 266.1Q371.1 255 396.2 202.25Q403.5 167.2 395.7 131.45Q390.2 106.4 375.65 86Q367.2 74.15 352.45 69.5M393.5,105.15Q412.45 159.4 396.65 213.1Q392.9 225.7 384.8 236.05Q376.05 247.2 365.45 255.85Q414.3 286.6 431.6 344.3Q442 378.85 433.8 413.4Q424.6 452.35 391 474.5Q350.55 501.2 302.9 509.4Q301.7 514.3 299.95 518.95Q293.75 510.25 296.3 496.7Q299.05 482 299.35 466.95Q300.4 406.9 304.55 347.6L308.9 278.95L305.45 279Q303.65 277.65 303.6 275.25L303.55 274.45Q303.3 272.55 303.6 270.7Q303.8 269.2 304.45 267.75L309.6 267.05L311.5 229.25Q314.3 170.2 312.95 110.75Q312.4 85.85 316.5 63.15L310.95 63Q310.3 61.55 310.25 60L310.2 59.25L310.25 58.5L310.5 56.25Q310.7 54.8 311.95 54.6L311.95 54.5Q357.7 50.15 382.85 84.75Q389.6 94.05 393.5 105.15M359.55,260.4Q349.3 267.75 337.45 273L314.7 278.1L314.45 278.15L313.95 291.75Q311.8 351.25 308.65 410.3Q306.4 451.15 305.1 492L304.85 496.9Q355 487.9 396.25 457Q438.8 425.15 431.4 374.05Q423.15 316.6 381.4 276.85Q378.5 274.1 377.2 270.75Q371.7 266.5 365.6 263.45Q364.7 263 363.95 262.25Q361.35 262.05 359.55 260.4M186.1,148Q166.35 94.2 112.8 73Q96.35 66.45 78 67.25L74.25 67.1Q74.2 123.35 68.6 180.35Q63.9 228.35 60.15 276.5Q106.35 272.85 148.2 252.6Q200.8 227.15 192 170.75Q190.2 159.1 186.1 148M199,187Q198.6 244.4 144.4 268.5Q133.5 273.35 122.35 277.1Q140.75 310.45 156.1 346.15Q162.05 360 170.35 372.7Q202.9 422.55 222.7 478.95Q228.3 494.8 236.15 509.85Q241.55 520.3 235.95 528.7Q212.35 477.55 189.6 424.55Q176.8 394.8 159.45 366.95Q148.3 349.1 139.7 329.85Q128.15 303.95 118.95 278.2Q89.95 287.35 59.2 288.95L58.45 298.65Q54.1 357.95 52.85 417.2Q51.75 467.85 46.5 516.95Q44 517.05 43.25 514.7Q45.1 455.95 47.95 397Q50.55 342.95 54.35 289.15L43.5 289.25Q41.65 287.9 41.4 285.5Q41.05 282.05 42.1 278.75L42.75 277.25L55.25 276.8Q58.35 233.35 62.6 190.1Q68.45 131.1 70.6 71.5Q70.7 68.7 71.6 66.55L69 65.5L68.8 64.75L68.75 64Q68.75 62.85 68.9 61.75L69.25 60.25Q83.25 57.7 98.5 58.5Q160.4 72.15 186.85 130.1Q199.25 157.2 199 187M257.2,135Q260.45 194 260.15 254.25Q259.85 313.7 257.45 372.8Q256.45 396.3 254.7 418.45Q248.2 406.8 249.35 389.4Q253.25 329.95 254.35 270.25Q255.4 210.8 253.85 151Q253.6 141.6 257.2 135" />
</g>
</svg>
