<?xml version="1.0" encoding="utf-8"?>
<svg version="1.1" id="Layer_1"
xmlns="http://www.w3.org/2000/svg"
xmlns:xlink="http://www.w3.org/1999/xlink"


xml:space="preserve">
q-3.4 59.9 4 118.35q7.45 59.3 14.55 118.6q7.1 59.3 5.45 119.2q-0.25 8.15 -0.25 16.25q10.45 -58.8 19.95 -117.9q9.45 -59.05 21.95 -117.55q4.95 -23.55 12.05 -43.9q4.5 58.7 5.65 118.5q1.15 58.75 5.55 117.8q2.75 36.85 3.45 74.15q1.1 59.55 2.95 119.25q0.1 4.3 -2.6 7.5q-5.65 -12.5 -5.75 -29.25q-0.3 -59.9 -5.05 -118.6q-3.6 -44.3 -5.1 -89.05q-0.85 -26.05 -0.15 -52.55q-13.5 58.45 -22.85 117.75q-9.5 59.7 -18.25 119.5q-3.05 20.8 -11 38.25q-2.75 -58.8 -6.15 -118.4q-3.4 -59.3 -12.3 -117.8q-8.95 -58.9 -9 -119.25q-14.3 58.35 -24.8 118.05q-10.25 59.65 -19.4 119.35q-2.5 16.35 -8.85 30q7.15 -58.9 17.3 -118.5q10 -58.9 18.6 -117.95q8.75 -60.3 24.6 -119.35q3.75 -14 6.65 -28.2q2.9 -14.15 7.35 -27.7q5.25 8.05 4.5 21.55q2.95 59.35 0.5 118.55q-1.7 41.5 -2.15 82.4q-0.15 14.5 -4.35 27.75q-5.65 -8.25 -4.1 -21.7q3.45 -29.7 4.95 -59.75q2.9 -58.95 2.05 -118.5q-0.25 -16.8 1.6 -31q-15.3 -4.8 -31 -6.15q4.35 56.2 1.55 113.45q-1.7 35.35 -3.75 70.55q55.85 -3.45 75.95 -57.15q5.55 -14.8 5.7 -30.9q0.35 -47.4 -31.75 -79.65q-7 -7.1 -16.7 -10.15q8.65 -1.6 17.75 -0.75q56.55 4.05 70.35 57.35q11.95 46.1 -2.35 91.1q-2.5 7.85 -7.15 14.75q-14.25 21.1 -33.95 30.85q24 51.9 44.5 105.4q10.6 27.7 22.75 54.85q14.65 32.65 21.2 66.55q0.2 1.1 -0.6 2.1q-12.4 -24.55 -23.35 -53.2q-20.35 -52.85 -39.3 -105.9q-15.7 7.35 -34.85 7.65q-4 59.5 -9.15 118.5q-2.65 30.2 -8.75 59.15q-6.7 -7.85 -4 -21.95q11.15 -58.65 14.3 -119q1.95 -36.9 4.35 -73.75q0 -1.95 0.3 -3.75q0.25 -1.25 1 -2.25q4.4 -58.5 3.3 -117.7q-0.3 -17.3 1.15 -32.55<g id="2443" transform="matrix(1, 0, 0, 1, -44.8, 0)">
<path style="fill:#000000;fill-opacity:1" d="M334.45,92.3Q331.05 152.2 338.45 210.65Q345.9 269.95 353 329.25Q360.1 388.55 358.45 448.45Q358.2 456.6 358.2 464.7Q368.65 405.9 378.15 346.8Q387.6 287.75 400.1 229.25L425.4 109.4Q430.35 85.85 437.45 65.5Q441.95 124.2 443.1 184Q444.25 242.75 448.65 301.8Q451.4 338.65 452.1 375.95Q453.2 435.5 455.05 495.2Q455.15 499.5 452.45 502.7Q446.8 490.2 446.7 473.45L446 354.95Q445.7 295.05 440.95 236.35Q437.35 192.05 435.85 147.3Q435 121.25 435.7 94.75L408.55 211.95Q395.05 270.4 385.7 329.7Q376.2 389.4 367.45 449.2Q364.4 470 356.45 487.45Q353.7 428.65 350.3 369.05Q346.9 309.75 338 251.25Q329.05 192.35 329 132L328.95 97.5Q314.65 155.85 304.15 215.55L283.7 333.1Q273.45 392.75 264.3 452.45Q261.8 468.8 255.45 482.45Q262.6 423.55 272.75 363.95Q282.75 305.05 291.35 246Q300.1 185.7 315.95 126.65Q319.7 112.65 322.6 98.45Q325.5 84.3 329.95 70.75Q335.2 78.8 334.45 92.3M250.4,158.3L250.7 159Q253.65 218.35 251.2 277.55Q249.5 319.05 249.05 359.95Q248.9 374.45 244.7 387.7Q239.05 379.45 240.6 366Q244.05 336.3 245.55 306.25Q248.45 247.3 247.6 187.75Q247.35 170.95 249.2 156.75L250.4 158.3M105.65,84.45Q90.35 79.65 74.65 78.3Q79 134.5 76.2 191.75Q74.5 227.1 72.45 262.3Q128.3 258.85 148.4 205.15Q153.95 190.35 154.1 174.25Q154.45 126.85 122.35 94.6Q115.35 87.5 105.65 84.45M63.25,71.75Q71.9 70.15 81 71Q137.55 75.05 151.35 128.35Q163.3 174.45 149 219.45Q146.5 227.3 141.85 234.2Q127.6 255.3 107.9 265.05Q131.9 316.95 152.4 370.45Q163 398.15 175.15 425.3Q189.8 457.95 196.35 491.85Q196.55 492.95 195.75 493.95Q183.35 469.4 172.4 440.75L145.9 371.6Q125.55 318.75 106.6 265.7Q90.9 273.05 71.75 273.35L69.4 310.3Q65.4 369.8 60.25 428.8Q57.6 459 51.5 487.95Q44.8 480.1 47.5 466Q58.65 407.35 61.8 347Q63.75 310.1 66.15 273.25L61.75 273L61.1 271.45L60.8 269.95L60.7 268.5Q60.7 266.55 61 264.75Q61.25 263.5 62 262.5L66.9 262.5L69.3 228.45Q73.7 169.95 72.6 110.75Q72.3 93.45 73.75 78.2L63 77.75L62.55 76.2L62.5 75.5L62.5 74.75L62.55 74L62.85 72.55L63.25 71.75" />
</g>
</svg>
