<?xml version="1.0" encoding="utf-8"?>
<svg version="1.1" id="Layer_1"
xmlns="http://www.w3.org/2000/svg"
xmlns:xlink="http://www.w3.org/1999/xlink"


xml:space="preserve">
q-18.7 56.05 -39.5 111.2q-5.4 14.3 -12.55 27.75q-6.7 -52.35 -16.7 -104.2q-5.85 -30.5 -19.7 -56.95q-4 3.95 -1.15 9.95q7.85 16.6 11.8 34.7q12.6 57.3 16.9 115.9q1.2 16.4 7.95 27.4q7.65 -16.15 13.85 -32.95q20.4 -55.35 41.4 -110.55q8.2 -21.4 7.75 -42.45q-6.3 7.6 -9.9 18.35q-9.65 -4.1 -20.2 -5q-5.05 45.65 -6.9 92.6q-1.75 4.75 -0.95 9.85q0.35 2.1 1.75 3.1q-9.7 44.85 -5.1 86.85q8.85 -41.8 11.9 -85.25q12.9 1.6 24.55 -4.1q16.15 48.5 47.8 88.05q-13.6 -46.4 -42.65 -91q21.3 -15.25 25.9 -41.1q1.3 -7.4 0.8 -15q-0.8 -12.3 -6.15 -23.25q-3.2 -6.5 -8.3 -11.3q-5.2 -4.95 -11.6 -7.8q-6.25 8.05 -4.95 18.15q9.55 -8.3 5.5 -19.8q-0.9 -2.65 -2.5 -4.7q-0.1 2.2 -1.85 3.65q-1.45 1.2 -1.4 -0.35q-0.15 13.35 -2.55 26.75q-4.25 24.1 5.3 44.5q23.45 -2.25 23.5 -25.25q-7.85 1.4 -13.5 9.25q-4.4 2.8 -8.75 0.5q-0.7 -20.2 1.85 -40.5q2.6 -21.05 -0.1 -39.75q-5.55 10.5 -5.75 24.5q10.6 32.2 -18.55 53.05q-2.55 1.8 -5.3 2.75q-2.45 0.8 -2.55 3.15q-9.6 2.8 -18.9 3.35q3.25 -42.8 3.45 -85.05q16.3 -0.75 30.7 8.65q9.1 5.95 12.4 16<g id="2444" transform="matrix(1, 0, 0, 1, -137.35, 0)">
<path style="fill:#000000;fill-opacity:1" d="M414.45,179.5Q414.9 200.55 406.7 221.95Q385.7 277.15 365.3 332.5Q359.1 349.3 351.45 365.45L351.15 364.95L349.7 367.7Q342.95 356.7 341.75 340.3Q337.45 281.7 324.85 224.4Q320.9 206.3 313.05 189.7Q310.2 183.7 314.2 179.75Q328.05 206.2 333.9 236.7Q343.9 288.55 350.6 340.9L352.5 336.8Q359.65 323.35 365.05 309.05Q385.85 253.9 404.55 197.85Q408.15 187.1 414.45 179.5M195.8,191.3Q200.9 196.1 204.1 202.6Q209.45 213.55 210.25 225.85Q210.75 233.45 209.45 240.85Q204.85 266.7 183.55 281.95Q212.6 326.55 226.2 372.95Q194.55 333.4 178.4 284.9Q166.75 290.6 153.85 289Q150.8 332.45 141.95 374.25Q137.35 332.25 147.05 287.4Q145.65 286.4 145.3 284.3Q144.5 279.2 146.25 274.45L148.25 274.55Q150.1 227.6 155.15 181.95L157.4 181.2L158.5 178.5L158.5 180.8L164 178.5Q174.55 179.4 184.2 183.5Q190.6 186.35 195.8 191.3M278.45,236.7Q282.5 248.2 272.95 256.5L269.45 253.75L269 250.9Q267.7 240.8 273.95 232.75L275.95 232Q277.55 234.05 278.45 236.7M272.65,245.35Q272.6 246.9 274.05 245.7Q275.8 244.25 275.9 242.05L272.65 245.35M271.45,272.45Q274.15 291.15 271.55 312.2Q269 332.5 269.7 352.7Q274.05 355 278.45 352.2Q284.1 344.35 291.95 342.95Q291.9 365.95 268.45 368.2Q258.9 347.8 263.15 323.7Q265.55 310.3 265.7 296.95Q265.9 282.95 271.45 272.45M189.2,198.1Q174.8 188.7 158.5 189.45Q158.3 231.7 155.05 274.5Q164.35 273.95 173.95 271.15Q174.05 268.8 176.5 268L177.5 270L177.75 269.9Q180.5 268.95 183.05 267.15Q212.2 246.3 201.6 214.1Q198.3 204.05 189.2 198.1" />
</g>
</svg>
