<?xml version="1.0" encoding="utf-8"?>
<svg version="1.1" id="Layer_1"
xmlns="http://www.w3.org/2000/svg"
xmlns:xlink="http://www.w3.org/1999/xlink"


xml:space="preserve">
q-14.2 -23.65 -32.55 -3.7q-14.55 15.9 -18.5 37.3q-4 21.7 -0.35 43.5q3.5 20.7 13 39.4q9.1 17.9 15.6 36.85q5.4 15.55 10.05 31.45q6.2 21.2 2.75 42.4q-3.65 22.7 -26.2 30.45q-22.7 7.7 -24.1 -12.95q-1.75 35.95 36.85 21.45q10.9 -4 16.7 -13.85q8.55 -14.45 10.55 -31.2q2.6 -21.65 -4.25 -42.35q-6.55 -19.7 -16.35 -37.9q-8.85 -16.4 -14.5 -34.5q-10.8 -34.75 -8.65 -71.15q2.35 -38.9 34.9 -32.95q6.5 1.05 11.25 6.5q-8.2 4.1 -13 12.65q-12.4 22.2 -17.3 47.35q-11.25 57.9 -10.1 117.25q0.45 23.15 16.25 39.1q6.15 6.25 14.2 3.85q33.9 -9.95 29.7 -41.7q-1.5 4.2 -4.2 8.2q-10.5 15.55 -28.7 17.2q-7.25 0.7 -10.55 -5.75q-16.9 -32.8 -9.9 -71.3q20.4 2.8 41.3 3.65q1 -2.2 0.95 -4.5q-0.15 -3.5 -1.6 -6.7q-0.6 -0.4 -1.3 -0.65q-9.25 -3.8 -19.45 -2.6q-10.9 -1.8 -20.65 1.05q2.95 -38.45 25.5 -68.1q13.15 -1 21 10.5q2.1 -1.7 1.65 -4.5q-2.15 -13.8 -14.65 -21q-1.25 32.25 6.95 65.35q14.25 57.5 27.1 115.05q9.55 43 14.7 86.75q1.95 16.6 10.1 28.3q1.25 -0.8 1.15 -2.2q3.25 -23.05 4.4 -47.05q2.8 -59.2 4.3 -118.5q1.5 -60.15 -0.9 -118.5q-5.45 9.95 -5.1 23.25q1.45 59.35 -0.6 118.45q-1.85 52.8 -6.2 105.3q-1.7 -10.3 -4 -20.6q-12.9 -57.7 -26.3 -115.25q-13.5 -58 -24.8 -115.65q0.15 43.25 -2.6 86.15q-3.75 59.15 -6.35 118.6q-0.7 15 -2.65 29.75q-2.35 17.05 3.5 29.45q4.55 -4.1 4.6 -10.5q0.15 -36.3 2.4 -72.65q2.8 -44.2 4.6 -88.6q2.45 -59.85 1.15 -118.45q-4.75 11.8 -4.65 26.25q-0.8 55.9 -0.9 113.75q-0.05 30 -3.2 59.75q-1.45 13.75 5.2 22.45q4.05 -37.8 5.15 -76.4q1.7 -60.5 -6.75 -118.5q-5.75 0.75 -8.55 5.7q-2.65 4.65 -1.1 9.2q-0.85 4.25 -0.85 8.85q-0.25 55.75 -4.3 111.25q-3.1 3.45 -2.7 8.5q0.15 2.3 1.2 4.5q-4.15 55.6 -5.3 111.75q-0.15 7.55 -2.55 14.4q-4.85 13.85 2.75 22.6q3.95 -2.55 4.25 -7.5q9.75 -2.65 18.35 -7.65q0.75 13.75 5.95 27.85q20.9 56.7 39.35 111.8q2.85 -1.5 2.65 -4.95q-1.05 -18.65 -7.3 -36.5q9.5 -6.55 17.35 -16.2q11.6 -14.2 13.15 -31.8q4.4 -50.4 -33.4 -86.85q-2.6 -0.7 -4.75 -2.2q11.55 19.15 11.1 41.4q-0.4 20.85 -12.85 37.6q-7.2 9.7 -17.1 16.55q5.6 -61.3 4.25 -122.8q20.65 -1 33.55 20.4<g id="2451" transform="matrix(1, 0, 0, 1, -69.4, 0)">
<path style="fill:#000000;fill-opacity:1" d="M365.7,139.75Q333.15 133.8 330.8 172.7Q328.65 209.1 339.45 243.85Q345.1 261.95 353.95 278.35Q363.75 296.55 370.3 316.25Q377.15 336.95 374.55 358.6Q372.55 375.35 364 389.8Q358.2 399.65 347.3 403.65Q308.7 418.15 310.45 382.2L314.95 379.2Q316.35 399.85 339.05 392.15Q361.6 384.4 365.25 361.7Q368.7 340.5 362.5 319.3Q357.85 303.4 352.45 287.85Q345.95 268.9 336.85 251Q327.35 232.3 323.85 211.6Q320.2 189.8 324.2 168.1Q328.15 146.7 342.7 130.8Q361.05 110.85 375.25 134.5L376.95 146.25Q372.2 140.8 365.7 139.75M423.45,148.25Q435.95 155.45 438.1 169.25Q438.55 172.05 436.45 173.75Q428.6 162.25 415.45 163.25Q392.9 192.9 389.95 231.35L388.3 248.3Q398.05 245.45 408.95 247.25Q419.15 246.05 428.4 249.85Q429.1 250.1 429.7 250.5L430.3 251.3Q431.75 254.5 431.9 258Q431.95 260.3 430.95 262.5L430.15 263.15L428.95 263.95L427.95 264.5Q407.05 263.65 386.65 260.85L384.35 274.85Q377.35 313.35 394.25 346.15Q397.55 352.6 404.8 351.9Q423 350.25 433.5 334.7Q436.2 330.7 437.7 326.5Q441.9 358.25 408 368.2Q399.95 370.6 393.8 364.35Q378 348.4 377.55 325.25Q376.4 265.9 387.65 208Q392.55 182.85 404.95 160.65Q409.75 152.1 417.95 148L423.45 148.25M226.2,108.75Q237.5 166.4 251 224.4Q264.4 281.95 277.3 339.65Q279.6 349.95 281.3 360.25Q285.65 307.75 287.5 254.95Q289.55 195.85 288.1 136.5Q287.75 123.2 293.2 113.25Q295.6 171.6 294.1 231.75Q292.6 291.05 289.8 350.25Q288.65 374.25 285.4 397.3L285.6 402Q285.7 403.4 284.45 404.2Q276.3 392.5 274.35 375.9Q269.2 332.15 259.65 289.15Q246.8 231.6 232.55 174.1Q224.35 141 225.6 108.75L226.2 108.75M224.2,109.75Q225.5 168.35 223.05 228.2Q221.25 272.6 218.45 316.8Q216.2 353.15 216.05 389.45Q216 395.85 211.45 399.95Q205.6 387.55 207.95 370.5Q209.9 355.75 210.6 340.75Q213.2 281.3 216.95 222.15Q219.7 179.25 219.55 136Q219.45 121.55 224.2 109.75M186.2,148.25Q194.65 206.25 192.95 266.75Q191.85 305.35 187.8 343.15L186.95 344.2Q180.3 335.5 181.75 321.75Q184.9 292 184.95 262Q185.05 204.15 185.85 148.25L186.2 148.25M104.7,104.3Q106.85 105.8 109.45 106.5Q147.25 142.95 142.85 193.35Q141.3 210.95 129.7 225.15Q121.85 234.8 112.35 241.35L148.3 342.5Q154.55 360.35 155.6 379Q155.8 382.45 152.95 383.95Q134.5 328.85 113.6 272.15Q108.4 258.05 107.65 244.3Q99.05 249.3 89.3 251.95L87.55 283.3L81.25 393.45Q80.95 398.4 77 400.95Q69.4 392.2 74.25 378.35Q76.65 371.5 76.8 363.95Q77.95 307.8 82.1 252.2L80.5 251Q79.45 248.8 79.3 246.5Q78.9 241.45 82 238L83.15 238.25Q87.2 182.75 87.45 127Q87.45 122.4 88.3 118.15Q86.75 113.6 89.4 108.95Q92.2 104 97.95 103.25L103.45 103.5L104.7 104.3M94.25,115.9Q95.6 177.4 90 238.7L107.75 232.65L108.1 230.55L108.95 231.85Q118.85 225 126.05 215.3Q138.5 198.55 138.9 177.7Q139.35 155.45 127.8 136.3Q114.9 114.9 94.25 115.9" />
</g>
</svg>
