<?xml version="1.0" encoding="utf-8"?>
<svg version="1.1" id="Layer_1"
xmlns="http://www.w3.org/2000/svg"
xmlns:xlink="http://www.w3.org/1999/xlink"


xml:space="preserve">
q28.15 5 35.05 33.95q5.6 23.4 -13.45 38.8q-12.85 10.4 -29 6.3q-4.1 2.65 -4.2 9q-0.95 59.25 -2.65 118.45q-0.4 15.15 -3.2 29.75q-3.15 16.6 2.55 30q35.1 13.6 58.65 -13.45q7.45 -13.25 7 -28.5q-0.4 -15.1 -3.25 -29.5q-3.35 -17.15 -16.95 -22.3q6.25 -8.25 8.85 -20.1q10 -45.85 -30.4 -69.8q-0.75 -0.4 -1.5 -0.5q-1.65 0.75 -2.9 2.05q18.55 4.25 23.8 24.3q6.05 22.9 -11.85 38.05q-15.8 13.4 -36.4 9.15q-3.85 -0.8 -7.15 -2.95q-0.7 0.25 -1.35 0.6q-0.65 2.15 -0.65 4.5q-2.5 10.05 -2.6 22.05q-0.15 25.9 -0.95 51.7q-2 3.8 -0.25 7.95q-1 29.45 -2.75 58.85q-0.4 7.45 -1.85 14.7q-3.45 17.4 3.2 29.25q3.65 -6.85 4 -14.95q6.05 3.6 15.7 1q6.1 13.6 10.75 28.15q7.4 23.1 15.95 46.1q5.65 15.25 13.6 26.15q2.45 -2.85 1.45 -6.4q-14.6 -49.8 -36.45 -96.25q15.3 -7.65 20.25 -24.7q13.6 -46.65 -27.45 -72.6q-9.4 0.3 -17.8 4q1.3 -24.5 -0.7 -47.95q7.85 1 16.35 -1.55q11.65 6.85 19.25 17.95q10.05 14.5 4.1 30.95q-10.4 28.95 -40.1 23q-6.95 20.5 -8.25 42.15q-1.45 24.05 18.4 35.4q20.95 11.95 35.4 -9.75q6.1 -9.15 -1.4 -17.05q-11.8 14.7 -29.2 9.3q-5.7 -1.85 -10.05 -6.05q1.3 -2 1.75 -4.45q1 -5.2 -2.1 -9.3q-15.4 -1.1 -30.2 4.85q3.6 -16.45 14.55 -29.35q10.05 -4.05 15.75 4.25q1.85 2.65 5.25 2.75q2 -8 -3.3 -14.9q-2.25 -2.95 -5.3 -5.2q-22.5 1.55 -30.65 25.45<g id="2459" transform="matrix(1, 0, 0, 1, -136.1, 0)">
<path style="fill:#000000;fill-opacity:1" d="M328,194.25L328.8 272.05Q344.95 276.15 357.8 265.75Q376.85 250.35 371.25 226.95Q364.35 198 336.2 193L328 194.25M330.5,183.8L336.95 181L344.45 181.5Q345.2 181.6 345.95 182Q386.35 205.95 376.35 251.8Q373.75 263.65 367.5 271.9Q381.1 277.05 384.45 294.2Q387.3 308.6 387.7 323.7Q388.15 338.95 380.7 352.2Q357.15 379.25 322.05 365.65L319.95 370.45Q314.25 357.05 317.4 340.45Q320.2 325.85 320.6 310.7Q322.3 251.5 323.25 192.25Q323.35 185.9 327.45 183.25L327.6 185.85Q328.85 184.55 330.5 183.8M328.4,285.2L325.65 350Q328.95 352.15 332.8 352.95Q353.4 357.2 369.2 343.8Q387.1 328.65 381.05 305.75Q375.8 285.7 357.25 281.45L338.45 288.95L328.4 285.2M150.7,181Q159.1 177.3 168.5 177Q209.55 202.95 195.95 249.6Q191 266.65 175.7 274.3Q197.55 320.75 212.15 370.55Q213.15 374.1 210.7 376.95Q202.75 366.05 197.1 350.8Q188.55 327.8 181.15 304.7Q176.5 290.15 170.4 276.55L166.15 277.85Q156.5 280.45 150.45 276.85L146.75 357.25Q146.4 365.35 142.75 372.2Q136.1 360.35 139.55 342.95Q141 335.7 141.4 328.25Q143.15 298.85 144.15 269.4Q142.4 265.25 144.4 261.45Q145.2 235.65 145.35 209.75Q145.45 197.75 147.95 187.7L147.85 186.5Q147.85 184.15 148.5 182Q149.15 181.65 149.85 181.4L150.5 179.5L150.7 181M151.25,261.15Q180.95 267.1 191.35 238.15Q197.3 221.7 187.25 207.2Q179.65 196.1 168 189.25Q159.5 191.8 151.65 190.8Q153.65 214.25 152.35 238.75L151.25 261.15M277.45,265.5L279.6 267.1Q282.65 269.35 284.9 272.3Q290.2 279.2 288.2 287.2Q284.8 287.1 282.95 284.45Q277.25 276.15 267.2 280.2L262.2 283.45Q251.25 296.35 247.65 312.8Q262.45 306.85 277.85 307.95Q280.95 312.05 279.95 317.25Q279.5 319.7 278.2 321.7L246.2 327.7L248.95 350.2Q253.3 354.4 259 356.25Q276.4 361.65 288.2 346.95L290.95 341.7Q298.45 349.6 292.35 358.75Q277.9 380.45 256.95 368.5Q237.1 357.15 238.55 333.1Q239.85 311.45 246.8 290.95Q254.95 267.05 277.45 265.5" />
</g>
</svg>
