<?xml version="1.0" encoding="utf-8"?>
<svg version="1.1" id="Layer_1"
xmlns="http://www.w3.org/2000/svg"
xmlns:xlink="http://www.w3.org/1999/xlink"


xml:space="preserve">
q-1.25 0.1 -1.4 1.35q-0.2 1.9 0.4 3.8q1.7 1.6 3.8 2.65q-1.1 7.9 -1.25 16.85q-0.65 42.05 -4.75 83.85q-5.85 58.8 -5.55 118.65q0.15 29.85 -4.45 58.9q-2.6 16.6 2.7 29.55q12.45 0.8 24.45 -2.55q62.15 -17.25 82.5 -76.25q14.2 -41.25 16.95 -85.05q3.25 -51 -25.5 -91.4q-13.9 -19.5 -35.25 -29.4q-24.25 -11.25 -50.45 -17.1q41.15 4.8 70.55 33.05q19.3 18.55 24.75 44q12.6 58.9 -3.05 117.3q-4 14.9 -11.45 28.5q-30.9 56.05 -96.35 60.75q3.2 -27.7 2.6 -56.35q-1.35 -59.85 4.75 -118.65q5.65 -54.3 4.3 -108.95q4.85 -5.8 6.75 -13.05q1.3 -4.9 1 -9.9q-17.25 19.75 -41 31.8q-13 6.7 -27.2 8.85q-12.1 2 -23.55 -2.55q-9.65 -3.9 -17.6 -10.6q-5.4 -4.5 -9.3 -10.7q-13.3 -20.85 -18.1 -45.5q-2.8 -14.3 -4.1 -28.9q-1.85 -20.65 -1.15 -41.4q35.55 -3.6 69.55 7.6q9.8 3.2 20.1 1.4q5.55 -1 10.6 -3.45q-10.4 8.65 -24.5 3.25q-24.4 -9.25 -50.6 -8.7q1.9 -51.4 27.25 -95.3q9.15 -15.75 23.05 -27.75q14.1 -12.1 32.1 -15.7q15.55 -3.3 30.7 1.15q2.8 0.85 5.55 1.95q-8.15 -23 -32.75 -21.2q-20.95 0.65 -38.8 12.25q-18.55 12.05 -30.6 30.6q-11.9 18.4 -18.35 39.5q-6 19.55 -8.75 39.8q-1.85 13.75 -3.45 27.55q-7.1 60.9 20.45 114.6q8.85 17.25 23.25 30.1q8.65 7.65 20 9.1q10.75 0.95 21.2 -1.95q7.9 -2 15.65 -4.95q16.75 -6.35 31.1 -16.75q4.4 -3.2 7.85 -7.45q-1.3 0.3 -1.15 2q-1.8 12.15 -2.8 24.8q-4.75 58.9 -15.45 117.05q-10.65 58.2 -17.2 117.05q-1.65 14.7 -5.55 28.85q-4.45 16.35 0.8 29.4q9.1 -41.9 14.25 -85.85q3.5 -30.15 8.25 -60.05q12.35 2.05 24.15 -4.2q39.25 -20.85 61.05 -58.8q20.6 -36 0.95 -71.55q-22.85 -41.25 -68.65 -43.7q45.1 40 14.15 90.5q-9.85 16.05 -23.75 28.75q-24.2 22.15 -54.55 24.75q3.95 -24.55 8.75 -48.95q11.15 -57.15 8.9 -114.4q26.35 1.55 46.5 19.35q0.6 17.4 11.55 32.5q9.45 13.05 16.8 27.55q26.7 52.35 54 100.95q3.85 -6.85 0 -13.85q-10.65 -19.2 -20.6 -39.05q-7.7 -15.35 -15.9 -30.4q-21.65 -39.55 -45 -77.9<g id="2467" transform="matrix(1, 0, 0, 1, -43.75, 0)">
<path style="fill:#000000;fill-opacity:1" d="M372.25,106.7Q398.45 112.55 422.7 123.8Q444.05 133.7 457.95 153.2Q486.7 193.6 483.45 244.6Q480.7 288.4 466.5 329.65Q446.15 388.65 384 405.9Q372 409.25 359.55 408.45L357.45 421.45Q352.15 408.5 354.75 391.9Q359.35 362.85 359.2 333Q358.9 273.15 364.75 214.35Q368.85 172.55 369.5 130.5Q369.65 121.55 370.75 113.65Q368.65 112.6 366.95 111Q366.35 109.1 366.55 107.2Q366.7 105.95 367.95 105.85L367.95 105.75L371.9 106.6L372.2 105L372.25 106.7M372.5,114.4Q373.85 169.05 368.2 223.35Q362.1 282.15 363.45 342Q364.05 370.65 360.85 398.35L360.95 398.95Q426.4 394.25 457.3 338.2Q464.75 324.6 468.75 309.7Q484.4 251.3 471.8 192.4Q466.35 166.95 447.05 148.4Q417.65 120.15 376.5 115.35L372.5 114.4M324.6,387.1Q310.25 397.5 293.5 403.85Q285.75 406.8 277.85 408.8Q267.4 411.7 256.65 410.75Q245.3 409.3 236.65 401.65Q222.25 388.8 213.4 371.55Q185.85 317.85 192.95 256.95L187.8 253.2L187.95 249.5L193.5 248.75Q195.1 234.95 196.95 221.2Q199.7 200.95 205.7 181.4Q212.15 160.3 224.05 141.9Q236.1 123.35 254.65 111.3Q272.5 99.7 293.45 99.05Q318.05 97.25 326.2 120.25L318.45 114L317.4 112.55Q314.65 111.45 311.85 110.6Q296.7 106.15 281.15 109.45Q263.15 113.05 249.05 125.15Q235.15 137.15 226 152.9Q200.65 196.8 198.75 248.2L219.95 247.25Q246.15 246.7 270.55 255.95Q284.65 261.35 295.05 252.7L298.2 254.25L298.45 263.25Q293.4 265.7 287.85 266.7Q277.55 268.5 267.75 265.3Q233.75 254.1 198.2 257.7Q197.5 278.45 199.35 299.1Q200.65 313.7 203.45 328Q208.25 352.65 221.55 373.5Q225.45 379.7 230.85 384.2Q238.8 390.9 248.45 394.8Q259.9 399.35 272 397.35Q286.2 395.2 299.2 388.5Q322.95 376.45 340.2 356.7Q340.5 361.7 339.2 366.6Q337.3 373.85 332.45 379.65Q329 383.9 324.6 387.1M89.25,76.5Q135.05 78.95 157.9 120.2Q177.55 155.75 156.95 191.75Q135.15 229.7 95.9 250.55Q84.1 256.8 71.75 254.75L71.5 253.55Q66.75 283.45 63.25 313.6Q58.1 357.55 49 399.45Q43.75 386.4 48.2 370.05Q52.1 355.9 53.75 341.2Q60.3 282.35 70.95 224.15Q81.65 166 86.4 107.1Q87.4 94.45 89.2 82.3L88.5 82.25L88.25 81.5L88.05 80.75L87.85 78.5Q87.7 76.8 89 76.5L89.25 76.5M90.4,82.35Q92.65 139.6 81.5 196.75Q76.7 221.15 72.75 245.7Q103.1 243.1 127.3 220.95Q141.2 208.25 151.05 192.2Q182 141.7 136.9 101.7Q116.75 83.9 90.4 82.35M111.2,242.5Q134.55 280.85 156.2 320.4Q164.4 335.45 172.1 350.8Q182.05 370.65 192.7 389.85Q196.55 396.85 192.7 403.7Q165.4 355.1 138.7 302.75Q131.35 288.25 121.9 275.2Q110.95 260.1 110.35 242.7L111.2 242.5" />
</g>
</svg>
