<?xml version="1.0" encoding="utf-8"?>
<svg version="1.1" id="Layer_1"
xmlns="http://www.w3.org/2000/svg"
xmlns:xlink="http://www.w3.org/1999/xlink"


xml:space="preserve">
q3.2 -4.25 2.45 -9.7q-0.2 -1.55 -0.75 -3q-12.2 2.2 -25 2.1q-4.9 -0.05 -9.2 1.35q1.85 -56.55 4.9 -112.95q1.65 -30.55 -1.2 -59.2q-4.1 11.5 -4.35 26.5q-0.95 59.5 -4.3 118.5q-0.65 11.25 -3 22.1q-3.1 14.2 4.15 21.85q-1.3 2.85 -1.25 6q0.05 2.1 1.3 3.75q-4.7 31.95 -4.85 65.25q-0.2 44.9 -6.65 89q-2.45 16.65 2.7 29.95q0.85 -0.6 1.05 -1.4q8.25 -37.5 9.75 -77q9 0.9 17.65 -1.2q0.45 5.4 2.5 10.3q20.5 48.25 48.95 90q3.55 -5.05 1.75 -11q-3.05 -9.9 -8.15 -19.1q-19.95 -35.85 -38.65 -72.2q18.95 -15.3 21 -39.75q3.7 -43.25 -35.75 -60.2q-6.85 -0.5 -12.2 3.05q-4.65 20.2 -5.2 40.85q-0.55 21.1 11.6 38.25q19.6 6.6 37.25 -4.75q4.4 -2.8 7.5 -7.3q5.55 -8 3.05 -17.6q-13 11.55 -30.35 11.75q-4.8 0.05 -6.9 -3.7q-8.15 -14.35 -8.2 -31.05q18.7 -4.6 37.95 -3.5q3.65 -3.9 2.95 -9.15q-0.45 -3.35 -2.95 -5.85q-18.9 -2.5 -36.9 4.75q1.55 -25.75 26.05 -30.05q9.45 -1.55 16.45 5.75q5.1 -18.1 -16.25 -26.45q-21.85 3.25 -27.15 26.2q0.8 -39 -0.1 -77.3q12.75 -5.3 24.1 3.95q28.6 23.3 11.7 54.25q-11.35 20.75 -35.7 19.1<g id="2475" transform="matrix(1, 0, 0, 1, -134.85, 0)">
<path style="fill:#000000;fill-opacity:1" d="M329.95,369.45Q322.7 361.8 325.8 347.6Q328.15 336.75 328.8 325.5Q332.15 266.5 333.1 207Q333.35 192 337.45 180.5Q340.3 209.15 338.65 239.7Q335.6 296.1 333.75 352.65Q338.05 351.25 342.95 351.3Q355.75 351.4 367.95 349.2L410.45 350.85L411.45 350.95L412.3 351.85L413.4 354Q413.95 355.45 414.15 357Q414.9 362.45 411.7 366.7L331.85 366L329.95 369.45M151.3,175.05Q156.65 171.5 163.5 172Q202.95 188.95 199.25 232.2Q197.2 256.65 178.25 271.95L175.4 273.15Q194.1 309.5 214.05 345.35Q219.15 354.55 222.2 364.45Q224 370.4 220.45 375.45Q192 333.7 171.5 285.45Q169.45 280.55 169 275.15Q160.35 277.25 151.35 276.35L150.8 292.55Q149.3 332.05 141.05 369.55Q140.85 370.35 140 370.95Q134.85 357.65 137.3 341Q143.75 296.9 143.95 252Q144.1 218.7 148.8 186.75Q147.55 185.1 147.5 183Q147.45 179.85 148.75 177L150.6 175.5L150.85 174.05L151.25 174L151.3 175.05M273.95,262.05L281.45 262.5Q302.8 270.85 297.7 288.95L293.05 283.9Q286.05 276.6 276.6 278.15Q252.1 282.45 250.55 308.2Q268.55 300.95 287.45 303.45Q289.95 305.95 290.4 309.3Q291.1 314.55 287.45 318.45Q268.2 317.35 249.5 321.95Q249.55 338.65 257.7 353Q259.8 356.75 264.6 356.7Q281.95 356.5 294.95 344.95L296.55 339.8L302.45 337.95L303.25 340.8Q305.75 350.4 300.2 358.4Q297.1 362.9 292.7 365.7Q275.05 377.05 255.45 370.45L253.2 367.35Q241.05 350.2 241.6 329.1Q242.15 308.45 246.8 288.25Q252.1 265.3 273.95 262.05M187.4,244.75Q204.3 213.8 175.7 190.5Q164.35 181.25 151.6 186.55Q152.5 224.85 151.7 263.85Q176.05 265.5 187.4 244.75" />
</g>
</svg>
