<?xml version="1.0" encoding="utf-8"?>
<svg version="1.1" id="Layer_1"
xmlns="http://www.w3.org/2000/svg"
xmlns:xlink="http://www.w3.org/1999/xlink"


xml:space="preserve">
q-0.8 4 -0.85 8.6q-0.95 59.2 -2.7 118.5q-0.5 1.05 -0.55 2.25q-0.05 2.3 0.75 4.4q-1.6 45.85 -3.85 91.75q-0.75 14.95 -2.65 29.8q-2.1 16.75 2.55 29.4q1.85 -2.3 2.1 -5.3q2.9 -35.5 4.3 -71.15q16.95 -1.4 33.8 -7.8q17.2 -6.55 30.65 -19.2q16.85 -15.9 18.3 -39.35q1.75 -27.1 -9.35 -52.35q-19.65 -44.65 -67.95 -44.95q-2.35 1.15 -5.65 2.05q-0.5 1.05 -0.5 2.25q-0.05 1.9 0.3 3.75q22.4 -3.95 39.4 10.25q40.75 34.15 31.7 85.05q-2.1 11.75 -11.6 18.9q-28.7 21.55 -63.3 29.9q1.45 -55.1 0.6 -109.15q1 0.2 2.2 0q-28.75 35.95 -72.6 42.9q-10.25 1.8 -20.45 -0.6q-15.1 -3.35 -24.1 -15.6q-30.4 -41.5 -28.55 -93.15q0.4 -11.75 1.1 -23.45q-52.45 -0.4 -104.45 11.9q0.95 -70.6 44.8 -122.35q11.5 -13.55 28.25 -18.8q13.3 -4.1 25.25 2.55q4.6 2.6 7.75 5.15q-10 -19.85 -31.75 -16.65q-13.3 2 -23.95 10.35q-20.15 15.7 -30.95 38.7q-22.65 48.2 -24.05 101.95q-1.55 1.35 -1.95 3.3q-0.6 3.25 1.5 4.65q-8.5 61.25 20.55 113.5q8.25 14.8 22.15 24.8q11.15 7.95 24.75 6.7q31.65 -2.8 58.45 -20.3q7.5 -4.9 14.2 -10.55q12.55 -8.75 9.3 -22.95q-3.5 38 -6 76.25q-2.4 41 -6.35 81.65q-0.7 1.8 -0.9 3.75q-0.1 1.5 0.1 2.95q2.7 2.25 6.45 1.7q-6.95 59.4 -6.95 117.8q0.85 -0.35 1 -0.9q4.8 -18.65 5.75 -38.75q2.55 -52.5 7 -104.8q16.15 -4.9 29.35 -13.65q4 17.05 13.55 32.95q30.35 50.55 48.1 106.65q5 15.85 15.95 24.25q2.6 -3.75 1.15 -8.1q-1.65 -5.05 -3.9 -9.95q-22.65 -49.9 -48.5 -97.85q15.4 -11.1 26.6 -27.75q35.65 -53 12.05 -112.35q-14.5 -36.5 -55.15 -43.2q-2.2 0.5 -3.85 1.65q-0.75 0.1 -0.8 0.3q22.05 2.7 39.3 15.85q18.15 13.75 23.6 35.9q4.55 18.55 2.15 37.35q-2.6 20.35 -11.75 38.4q-9.7 19.2 -26.6 32.4q-16.95 13.15 -37.5 19.35<g id="2460" transform="matrix(1, 0, 0, 1, -67.5, 0)">
<path style="fill:#000000;fill-opacity:1" d="M368.7,110.5L368.5 109.75Q368.15 107.9 368.2 106Q368.2 104.8 368.7 103.75L369.3 103.3Q372.6 102.4 374.95 101.25Q423.25 101.55 442.9 146.2Q454 171.45 452.25 198.55Q450.8 222 433.95 237.9Q420.5 250.55 403.3 257.1Q386.45 263.5 369.5 264.9L366.85 339.75Q365.45 375.4 362.55 410.9Q362.3 413.9 360.45 416.2Q355.8 403.55 357.9 386.8Q359.8 371.95 360.55 357Q362.8 311.1 364.4 265.25L363.45 265.25L362.9 264.4Q362.1 262.3 362.15 260Q362.2 258.8 362.7 257.75L364.7 257.35L365.3 237.75Q367.05 178.45 368 119.25Q368.05 114.65 368.85 110.65L368.7 110.5M371.4,112.1Q372.25 166.15 370.8 221.25L369.8 256.2Q404.4 247.85 433.1 226.3Q442.6 219.15 444.7 207.4Q453.75 156.5 413 122.35Q396 108.15 373.6 112.1Q372.4 112.3 371.4 112.1M329.15,377.35Q322.45 383 314.95 387.9Q288.15 405.4 256.5 408.2Q242.9 409.45 231.75 401.5Q217.85 391.5 209.6 376.7Q180.55 324.45 189.05 263.2Q186.95 261.8 187.55 258.55Q187.95 256.6 189.5 255.25Q190.9 201.5 213.55 153.3Q224.35 130.3 244.5 114.6Q255.15 106.25 268.45 104.25Q290.2 101.05 300.2 120.9Q297.05 118.35 292.45 115.75Q280.5 109.1 267.2 113.2Q250.45 118.45 238.95 132Q195.1 183.75 194.15 254.35Q246.15 242.05 298.6 242.45L298.7 251.75L193.35 262.8Q192.65 274.5 192.25 286.25Q190.4 337.9 220.8 379.4Q229.8 391.65 244.9 395Q255.1 397.4 265.35 395.6Q309.2 388.65 337.95 352.7L338.45 354.4Q341.7 368.6 329.15 377.35M92.7,76.8Q92.75 76.6 93.5 76.5L93.6 76.6Q95.25 75.45 97.45 74.95L101.95 74.5Q142.6 81.2 157.1 117.7Q180.7 177.05 145.05 230.05Q133.85 246.7 118.45 257.8Q144.3 305.75 166.95 355.65L189.95 405.9Q192.2 410.8 193.85 415.85Q195.3 420.2 192.7 423.95Q181.75 415.55 176.75 399.7Q159 343.6 128.65 293.05Q119.1 277.15 115.1 260.1Q101.9 268.85 85.75 273.75L81.25 275Q76.8 327.3 74.25 379.8Q73.3 399.9 68.5 418.55Q68.35 419.1 67.5 419.45Q67.5 361.05 74.45 301.65L77.2 276.7Q73.45 277.25 70.75 275L70.2 272.7Q70 271.25 70.1 269.75Q70.3 267.8 71 266L78.4 265Q82.35 224.35 84.75 183.35L86.4 156.25Q88.9 118 92.4 80L92.6 78.15L92.7 76.8M95.35,85.25L82.2 263.95L85.2 263.1Q105.75 256.9 122.7 243.75Q139.6 230.55 149.3 211.35Q158.45 193.3 161.05 172.95Q163.45 154.15 158.9 135.6Q153.45 113.45 135.3 99.7Q118.05 86.55 96 83.85L95.35 85.25" />
</g>
</svg>
