<?xml version="1.0" encoding="utf-8"?>
<svg version="1.1" id="Layer_1"
xmlns="http://www.w3.org/2000/svg"
xmlns:xlink="http://www.w3.org/1999/xlink"


xml:space="preserve">
q-9.4 14.45 -18.5 31.2q-28.3 52 -55.8 104.1q3.85 -59.9 1.3 -118.55q-5.35 39.6 -6.2 81.7q-1.3 59.3 -7.5 117.8q-6.3 59.15 -6.4 118.4q1.4 2.25 3.75 1.25q3.65 -6.95 3.55 -15.5q-0.3 -33.8 2.75 -67.35q3.35 -36.45 6.05 -73.1q6.4 -15.45 13.95 -30.45q3.95 -7.95 8.05 -15.85q0.45 8 3.4 16.65q8.05 23.6 13.45 48.15q12.65 57.3 27.55 114.05q4.1 15.75 11.1 27.9q2.5 -1.8 1.85 -4.7q-10.95 -47.15 -21.6 -94.95q-12.85 -57.6 -32.5 -112.3q21.25 -41.25 44.25 -81.7q7.85 -13.85 6.15 -27.45q-28.6 13.9 -34.9 47.1q-9.95 52.65 -6.15 106.65q1.85 26.75 12.65 51.05q7.7 17.35 25.4 10.15q18.5 -7.55 35.45 -18.25q18.15 -11.45 14.55 -29.2q-21.7 21.3 -50.65 31.8q-11.35 4.1 -15.4 -6.7q-17.55 -46.75 -12.75 -97.7q2.7 -29.1 12.25 -56.5q12.35 -35.45 48.55 -24.15q2.5 -5.3 -1.5 -9.8q-8.55 -3.25 -18 -2.45q-7.35 -1.9 -11.15 -0.1q-3.8 73.05 -10.85 146.1q-7.9 81.9 -4.95 162.35q7.9 -41.45 7.65 -83.75q-0.2 -40.6 2.65 -81.1q19.65 113.05 61 219.6q-11.4 -52.9 -27.1 -106.7q-16.65 -57.2 -34.3 -114.25q19.2 -17.35 28.45 -41.75q13.25 -35.1 1.9 -71q-6.7 -22.2 -28.85 -28.25q9.55 -5.55 20.6 -5.6q8.45 0 16.2 3.05q5.6 2.3 11 1.2q-3.65 -8.45 -12.9 -12.85q-22.75 -3 -39.1 13.75q-14.6 14.85 -21.35 34.75q-5.75 16.9 -8.15 34.7q-2.4 17.45 -3.3 35.05q-0.9 17.95 -0.45 35.7q0.5 20.15 4.15 40.1q3.95 21.4 22.15 33.75q18.6 12.6 40.4 7.6q21.6 -5.15 39.5 -18.6q16.75 -12.6 13.6 -32.95q-11.1 14.7 -26.95 24.45q-12.1 7.35 -25.55 11.15q-5.85 1.7 -12.05 1.6q-8.65 -0.1 -16.7 -3.3q-5.55 -2.2 -10.55 -5.4q-6.2 -4.05 -9.05 -10.4q-16.95 -38.15 -9.95 -81.55q38.45 -0.6 76.25 -7.7q1.2 -1.95 1.7 -4.2q0.65 -3.1 -0.3 -5.9q-0.85 -2.35 -2.8 -3.85q-0.75 -41.6 20.35 -75.9q6.25 -10.2 16.5 -16.25q-0.25 23.65 2.5 47.9q6.55 58.7 15.45 116.95q4.45 28.95 4.15 58.35q-0.2 16.55 6.75 28.5q6.6 -51 15.2 -102.05q3.65 -21.65 8.6 -43q2.4 50.25 11.85 100.3q2.7 14.6 3.85 29.25q1.3 16.85 9.1 28.1q1.55 -1.55 1.35 -3.7q-2.4 -27.1 -6.95 -54.25q-9.75 -58.4 -18.85 -116.75q-5.7 13.55 -8.05 28.85q-7.7 50.25 -16.5 100.25q-0.55 -8.3 -1.5 -16.7q-4.1 -36.85 -8.6 -73.6q-7.25 -59 -17.85 -116.8q-0.85 -0.15 -0.85 0.25q4.6 -1.25 7.85 1.2q34.15 25.85 27.45 69.1q-7.2 46.2 -49.85 60.85q0.95 -11.85 2.2 -23.65q5.6 -53.4 6.55 -105.9q-7.7 40.9 -13.85 82.2q-8.7 58.15 -14.05 117q-2.1 22.85 -0.05 43.65q4.75 -3.3 5.15 -9.9q3.2 -59.15 11.95 -117.65q8.75 -58.95 12.65 -117.15q-1.55 0.3 -1.8 1.85<g id="2474" transform="matrix(1, 0, 0, 1, -16.4, 0)">
<path style="fill:#000000;fill-opacity:1" d="M508.05,154.2Q485.05 194.65 463.8 235.9L463.75 236.5L463.7 237.25Q483.35 291.95 496.2 349.55Q506.85 397.35 517.8 444.5Q518.45 447.4 515.95 449.2Q508.95 437.05 504.85 421.3Q489.95 364.55 477.3 307.25Q471.9 282.7 463.85 259.1Q460.9 250.45 460.45 242.45Q456.35 250.35 452.4 258.3Q444.85 273.3 438.45 288.75L437.8 287.5Q435.1 324.15 431.75 360.6Q428.7 394.15 429 427.95Q429.1 436.5 425.45 443.45Q423.1 444.45 421.7 442.2Q421.8 382.95 428.1 323.8Q434.3 265.3 435.6 206Q436.45 163.9 441.8 124.3L442.2 124.25Q444.75 182.9 440.9 242.8L439.6 262.7L439.9 262.05Q467.4 209.95 495.7 157.95Q504.8 141.2 514.2 126.75Q515.9 140.35 508.05 154.2M382.95,165.7L384.45 166.25L388.2 169.95Q392.2 174.45 389.7 179.75Q353.5 168.45 341.15 203.9Q331.6 231.3 328.9 260.4Q324.1 311.35 341.65 358.1Q345.7 368.9 357.05 364.8Q386 354.3 407.7 333L409 332.4L410.1 332L411.95 330.75Q415.55 348.5 397.4 359.95Q380.45 370.65 361.95 378.2Q344.25 385.4 336.55 368.05Q325.75 343.75 323.9 317Q320.1 263 330.05 210.35Q336.35 177.15 364.95 163.25Q374.4 162.45 382.95 165.7M194.2,147.35L195.4 151.25Q206.75 187.15 193.5 222.25Q184.25 246.65 165.05 264Q182.7 321.05 199.35 378.25Q215.05 432.05 226.45 484.95L223.2 485.7Q181.85 379.15 162.2 266.1L144.25 274.1Q141.4 314.6 141.6 355.2Q141.85 397.5 133.95 438.95Q131 358.5 138.9 276.6Q145.95 203.55 149.75 130.5L149.95 122.75L153.25 120.9L154.2 119Q158 117.2 165.35 119.1Q187.5 125.15 194.2 147.35M221.05,194.3Q199.95 228.6 200.7 270.2L273.95 258.4L274.8 259.05Q276.75 260.55 277.6 262.9Q278.55 265.7 277.9 268.8Q277.4 271.05 276.2 273Q238.4 280.1 199.95 280.7Q192.95 324.1 209.9 362.25Q212.75 368.6 218.95 372.65Q223.95 375.85 229.5 378.05Q237.55 381.25 246.2 381.35Q252.4 381.45 258.25 379.75Q271.7 375.95 283.8 368.6Q299.65 358.85 310.75 344.15L312.45 343.45Q315.6 363.8 298.85 376.4Q280.95 389.85 259.35 395Q237.55 400 218.95 387.4Q200.75 375.05 196.8 353.65Q193.15 333.7 192.65 313.55Q192.2 295.8 193.1 277.85Q194 260.25 196.4 242.8Q198.8 225 204.55 208.1Q211.3 188.2 225.9 173.35Q242.25 156.6 265 159.6L273.45 163.45Q282.7 167.85 286.35 176.3L285.35 176.7Q279.95 177.8 274.35 175.5Q266.6 172.45 258.15 172.45Q247.1 172.5 237.55 178.05Q227.3 184.1 221.05 194.3M17.5,134.5Q28.1 192.3 35.35 251.3Q39.85 288.05 43.95 324.9Q44.9 333.3 45.45 341.6Q54.25 291.6 61.95 241.35Q64.3 226.05 70 212.5L71 217.5L71.25 217.5Q80.35 275.85 90.1 334.25Q94.65 361.4 97.05 388.5Q97.25 390.65 95.7 392.2Q87.9 380.95 86.6 364.1Q85.45 349.45 82.75 334.85Q73.3 284.8 70.9 234.55L69.55 241.65Q64.6 263 60.95 284.65Q52.35 335.7 45.75 386.7L45.55 386.25L45.5 386.45Q38.55 374.5 38.75 357.95Q39.05 328.55 34.6 299.6Q25.7 241.35 19.15 182.65Q16.4 158.4 16.65 134.75Q16.65 134.35 17.5 134.5M154.05,130.7Q153.1 183.2 147.5 236.6Q146.25 248.4 145.3 260.25Q187.95 245.6 195.15 199.4Q201.85 156.15 167.7 130.3Q164.45 127.85 159.85 129.1L154.05 130.7M128.2,146.75Q124.3 204.95 115.55 263.9Q106.8 322.4 103.6 381.55Q103.2 388.15 98.45 391.45Q96.4 370.65 98.5 347.8Q103.85 288.95 112.55 230.8Q118.7 189.5 126.4 148.6Q126.65 147.05 128.2 146.75" />
</g>
</svg>
