<?xml version="1.0" encoding="utf-8"?>
<svg version="1.1" id="Layer_1"
xmlns="http://www.w3.org/2000/svg"
xmlns:xlink="http://www.w3.org/1999/xlink"


xml:space="preserve">
q20.45 54.55 25.2 112.75q4.75 59.05 3.5 118.55q-1.3 60.8 -22.2 117.2q-10.75 29 -23.15 57.5q-14.65 33.55 -44.65 53.15q1.9 -25.05 1.75 -50.9q-0.25 -59.75 0.95 -119.25q1.25 -59.65 1.2 -119.2q-0.05 -60 -1.9 -119.3q-1.8 -56.6 -2.2 -112.5q23.7 6.05 41.1 26.9q13.15 15.75 20.4 35.1q-19.75 -30.1 -52.6 -40.1q-1.25 0.9 -1.25 3q-2.35 12.1 -2.7 26.6q-1.55 59.85 0.9 119.25q2.45 59.45 2.25 119.25q-0.15 59.45 -1 119.2q-0.8 59.75 -3.35 119.2q-0.45 11.05 1.6 20.3q-1.5 3.7 -1.1 7.55q0.3 2.35 2.1 3.7q14.15 -7.6 23.2 -20.05q26.3 -36.15 43.65 -77.6q23 -55 26.55 -114.55q3.5 -59.1 0.65 -119.25q-2.05 -44.7 -9.45 -88.7q-7.65 -45.35 -32.5 -83.2q-0.55 -28.4 -32.65 -24.25q-10.25 3.3 -14.95 13.15q-20.45 42.9 -20.2 92.1q0.3 59.8 0.9 119.25q0.55 59.65 -1.15 119.2q-1.7 60.55 11.65 117.65q1.05 4.35 4.75 6.05q27.65 12.9 44.8 -12.35q5.05 -7.45 8.35 -15.7q5.75 -14.5 -0.65 -25.4q-3.3 9.4 -6.2 19.4q-9.75 33.25 -44.55 24.6q-15 -51.05 -13.5 -106.5q1.6 -59.6 0.95 -119.2q23 1 46.55 1.15q2.55 -3.35 1.45 -7.5q-0.35 -0.4 -0.75 -0.4q-4.85 -0.25 -9.5 -1.35q-18.95 0.35 -37.15 3.9q-0.65 -47.25 17.7 -90q3.05 -7.05 10.15 -9.7q25.8 -9.55 36 11.7q-17.8 -26.6 -39.65 -50.05q-0.1 45.3 -5.1 89.75q-5.25 -10.05 -10.15 -20.3q-8.7 -18.05 -18.65 -35.65q-14.5 -25.55 -22.7 -51.8q-2.45 5.2 -3.2 12.05q-5.55 52.6 -7.3 105.15q4 -3.95 4.35 -10.65q2.4 -47.15 7.65 -93.8q11.55 41.3 35.95 76.55q8 16.1 14.5 31.45q8.15 -44.4 9.75 -90.7q0.5 -14.75 -3.75 -25.25q-1.65 5.7 -1.65 12q-12.95 12.4 -19.85 28.8q-8.65 20.55 -11.5 43.05q-2.65 21.1 -3.05 42.3q-0.4 20.75 0.05 41.6q0.5 20.95 1.55 41.7q0.85 16.15 11.65 27.7q9.15 9.85 22.65 11.6q2.55 -2 4.65 -4.4q4.45 -5.2 6.75 -11.55q0.15 5.7 2.8 10.7q5.95 -42.3 1.9 -85.05q-11.95 -0.85 -18.55 -11.05q-6.5 -10.05 -7.75 -22.15q-2 -19.2 -3.1 -38.45q-0.85 -14.45 -0.85 -29.15q0.05 -18.1 0.85 -36q1.6 -35.6 21 -65.35q4.75 -7.3 10.3 -14.15q6.65 -1.25 11.7 2.65q5.75 4.35 10.8 9.6q1 -1.5 1.05 -3.25q0.1 -5.65 -3.85 -10.1q-5.25 30 -11.4 59.85q-2.5 11.85 1.9 19.4q4.95 -33.3 12.25 -66q4.85 40.55 18.25 77q8.05 -35.45 14.2 -71.8q2.2 -12.85 0.75 -24.2q-0.95 -0.25 -1.05 0.35q-7.9 39.8 -14.65 80.15q-9.85 -39.2 -17.5 -77.75q-1.8 1.15 -2.75 3q3.45 58.55 10.6 116.9q-3.75 -1.25 -7.85 -1.3q-13.3 4.65 -27.25 6.7q8.3 -40.05 14.7 -79.75q-6.85 24.1 -11.05 50.1q-7.85 48.5 -19.7 96.2q-7.9 29.65 -6.75 57.9q2.35 -3.3 3.3 -7.9q2.6 24.3 3.8 48.8q0.8 16.85 6.1 28.95q2.65 -8.7 1.7 -18.05q-5.8 -53.4 -9.7 -106.55q-1.2 5.55 -1.8 11.4q-11.6 -18.5 -33.05 -21.35q1.3 138.75 -5.65 277.25q-0.35 7.3 -0.2 14.65q12.45 -147.7 11.1 -296.05q22.35 105.2 37.8 211.65q5.55 38.4 12.85 76.45q0.95 4.85 3.5 9.5q5.5 -45.4 12.7 -91.1q-1.55 -43.55 -10.25 -87q-14.6 -64.75 -19.35 -130.95q7.85 -6.25 7.9 -16.45q-14.65 12.9 -30.05 3.7q-11.7 -7 -10.65 -21.65q15.5 5.25 31.45 1.2q2.05 -29.9 30.2 -29.15q3.5 -16.55 -13.35 -19.2q-27.6 22.45 -20.55 56.85q2.85 13.9 12.75 24.5q10.1 0.85 18.55 -4.35q-1.8 64.7 12.9 128.35q12.55 -59.7 15.45 -120q-13.95 -135.2 -51.05 -265.85q27.05 -24.95 41.1 -59.2q16.6 -40.65 8.25 -84.5q-1.8 -9.4 -4.25 -18.5q22.25 23.6 29.85 55.65q15.1 63.45 -17.75 117.15q-13.45 22 -32.95 36.4q-0.2 -55.75 -2.45 -110.8q13.25 -0.25 23.4 10.5q-1.45 59.2 -0.65 119.2q0.8 59.55 0.25 119.25q-0.05 7.5 -1.55 14.7q-2.8 14.1 3.25 22.05q4.15 -26.35 3.6 -54q-1.25 -59.8 -1.4 -119.25q-0.2 -60.25 0.5 -118.45q-3.8 6.85 -4 16.5q14.6 -11.55 24.5 7.75q2.05 -14.25 -10.25 -21.8q-29.55 4.8 -7.8 25.9q13.05 12.65 19.3 29.65q-17.1 39.7 -43 3.75q-1.05 43.85 36.7 27.7q8.95 -3.85 9.9 -13.9q2.2 -23.9 -15.25 -41.25q-5.5 -5.5 -11.85 -9.8q20.7 -3.6 41.5 -1.5q-19.15 -4.05 -38.5 -1q-8.35 13.5 -6.15 32.1q1.45 12.45 1.4 25.15<g id="2485" transform="matrix(1, 0, 0, 1, -13.8, 0)">
<path style="fill:#000000;fill-opacity:1" d="M491.35,39.35Q473.95 18.5 450.25 12.45Q450.65 68.35 452.45 124.95Q454.3 184.25 454.35 244.25Q454.4 303.8 453.15 363.45Q451.95 422.95 452.2 482.7Q452.35 508.55 450.45 533.6Q480.45 514 495.1 480.45Q507.5 451.95 518.25 422.95Q539.15 366.55 540.45 305.75Q541.7 246.25 536.95 187.2Q532.2 129 511.75 74.45Q504.5 55.1 491.35 39.35M534.05,127.8Q541.45 171.8 543.5 216.5Q546.35 276.65 542.85 335.75Q539.3 395.3 516.3 450.3Q498.95 491.75 472.65 527.9Q463.6 540.35 449.45 547.95L446.45 547.95Q444.65 546.6 444.35 544.25Q443.95 540.4 445.45 536.7L446.7 535.95Q444.65 526.7 445.1 515.65Q447.65 456.2 448.45 396.45Q449.3 336.7 449.45 277.25Q449.65 217.45 447.2 158Q444.75 98.6 446.3 38.75Q446.65 24.25 449 12.15L448.45 12L447.95 10.45L447.7 7.5Q447.7 5.4 448.95 4.5Q481.8 14.5 501.55 44.6Q526.4 82.45 534.05 127.8M436.45,35Q426.25 13.75 400.45 23.3Q393.35 25.95 390.3 33Q371.95 75.75 372.6 123L373.8 213.65Q392 210.1 410.95 209.75Q415.6 210.85 420.45 211.1Q420.85 211.1 421.2 211.5L421.9 213.75Q423 217.9 420.45 221.25Q396.9 221.1 373.9 220.1L374.15 242.25Q374.8 301.85 373.2 361.45Q371.7 416.9 386.7 467.95Q421.5 476.6 431.25 443.35Q434.15 433.35 437.45 423.95Q443.85 434.85 438.1 449.35Q434.8 457.6 429.75 465.05Q412.6 490.3 384.95 477.4Q381.25 475.7 380.2 471.35Q366.85 414.25 368.55 353.7Q370.25 294.15 369.7 234.5Q369.1 175.05 368.8 115.25Q368.55 66.05 389 23.15Q393.7 13.3 403.95 10Q436.05 5.85 436.6 34.25L436.45 35M326.25,19.75L260.95 78L225.2 30.25L214.95 18.75L215.45 10.75L221.05 16.7Q242.9 40.15 260.7 66.75L325.95 11.15L326.25 19.75M358.2,242.25Q362.45 252.75 361.95 267.5Q360.35 313.8 352.2 358.2Q345.7 342.85 337.7 326.75Q313.3 291.5 301.75 250.2L301.45 249Q296.2 295.65 293.8 342.8Q293.45 349.5 289.45 353.45Q291.2 300.9 296.75 248.3Q297.5 241.45 299.95 236.25Q308.15 262.5 322.65 288.05Q332.6 305.65 341.3 323.7Q346.2 333.95 351.45 344Q356.45 299.55 356.55 254.25Q356.55 247.95 358.2 242.25M271.2,81.75L279.2 86L282.4 89.9Q286.35 94.35 286.25 100Q286.2 101.75 285.2 103.25Q280.15 98 274.4 93.65Q269.35 89.75 262.7 91Q257.15 97.85 252.4 105.15Q233 134.9 231.4 170.5Q230.6 188.4 230.55 206.5Q230.55 221.2 231.4 235.65Q232.5 254.9 234.5 274.1Q235.75 286.2 242.25 296.25Q248.85 306.45 260.8 307.3L265.45 304.25L276.2 282.5L276.8 286.1L278.2 243L253.95 238.75L254.95 232.25L280.6 234.95Q284.65 277.7 278.7 320L277.65 318.25Q275 313.25 274.85 307.55L274.85 302.3Q272.55 308.65 268.1 313.85Q266 316.25 263.45 318.25Q249.95 316.5 240.8 306.65Q230 295.1 229.15 278.95Q228.1 258.2 227.6 237.25Q227.15 216.4 227.55 195.65Q227.95 174.45 230.6 153.35Q233.45 130.85 242.1 110.3Q249 93.9 261.95 81.5L271.2 81.75M178,162Q185.65 200.55 195.5 239.75Q202.25 199.4 210.15 159.6Q210.25 159 211.2 159.25Q212.65 170.6 210.45 183.45Q204.3 219.8 196.25 255.25Q182.85 218.8 178 178.25Q170.7 210.95 165.75 244.25Q161.35 236.7 163.85 224.85Q170 195 175.25 165Q176.2 163.15 178 162M122.95,41.85Q116.55 81.55 108.25 121.6L98.75 167.45Q112.7 165.4 126 160.75Q130.1 160.8 133.85 162.05L133.6 160Q126.45 101.65 123 43.1L122.95 41.85M125.25,10.5L125.55 14.75L128.25 6.25L126.05 21.6Q129.95 74.75 135.75 128.15L146.45 230.2Q147.4 239.55 144.75 248.25Q139.45 236.15 138.65 219.3Q137.45 194.8 134.85 170.5L97.55 173.25L84.3 237.35Q83.35 241.95 81 245.25Q79.85 217 87.75 187.35L91.8 171.8L91.9 169.75L92.25 168.25L92.7 168.2Q104.55 120.5 112.4 72Q116.6 46 123.45 21.9Q124.05 16.05 125.25 10.5M70.85,45.75L73.6 51.55L76.05 57.3L78.3 63.25L80.35 69.25L83.85 81.3Q86.3 90.4 88.1 99.8Q96.45 143.65 79.85 184.3Q65.8 218.55 38.75 243.5Q75.85 374.15 89.8 509.35L121 323.25Q118.1 383.55 105.55 443.25L135.95 448.5Q121.25 384.85 123.05 320.15Q114.6 325.35 104.5 324.5L100.2 321.85Q90.3 311.25 87.45 297.35Q80.4 262.95 108 240.5L115.9 240.85Q132.75 243.5 129.25 260.05L124 251.25L121 250.95Q92.85 250.2 90.8 280.1L121.25 279.25L122 286.75Q106.05 290.8 90.55 285.55Q89.5 300.2 101.2 307.2Q116.6 316.4 131.25 303.5Q131.2 313.7 123.35 319.95Q128.1 386.15 142.7 450.9L145 451.95L144.45 460.2Q153.15 503.65 154.7 547.2L137.55 457.5L104.45 451.1Q97.25 496.8 91.75 542.2Q89.2 537.55 88.25 532.7Q80.95 494.65 75.4 456.25Q59.95 349.8 37.6 244.6L31.1 250.15Q32.45 398.5 20 546.2Q19.85 538.85 20.2 531.55Q27.15 393.05 25.85 254.3L14.8 258.7L13.8 257.2L14.5 249.5L25.8 242.9L27.45 19.5L16.05 20.95L16 17.25L28.1 12.75L28.25 11L28.35 12.7L31.95 12.9Q53.4 15.75 65 34.25L70.85 45.75M28.6,19.45Q30.85 74.5 31.05 130.25L31.15 239.15Q50.65 224.75 64.1 202.75Q96.95 149.05 81.85 85.6Q74.25 53.55 52 29.95Q41.85 19.2 28.6 19.45M212.2,246.75Q211.5 304.95 211.7 365.2Q211.85 424.65 213.1 484.45Q213.65 512.1 209.5 538.45Q203.45 530.5 206.25 516.4Q207.75 509.2 207.8 501.7Q208.35 442 207.55 382.45Q206.75 322.45 208.2 263.25Q208.4 253.6 212.2 246.75M262.05,369.25Q279.5 386.6 277.3 410.5Q276.35 420.55 267.4 424.4Q229.65 440.55 230.7 396.7L233.7 397.05L232.95 404.7Q258.85 440.65 275.95 400.95Q269.7 383.95 256.65 371.3Q234.9 350.2 264.45 345.4Q276.75 352.95 274.7 367.2Q264.8 347.9 250.2 359.45Q256.55 363.75 262.05 369.25M305.05,465.55Q302.85 446.95 311.2 433.45L309.45 481.45Q328.8 478.4 347.95 482.45L347.95 489.2Q327.15 487.1 306.45 490.7Q306.5 478 305.05 465.55" />
</g>
</svg>
