<?xml version="1.0" encoding="utf-8"?>
<svg version="1.1" id="Layer_1"
xmlns="http://www.w3.org/2000/svg"
xmlns:xlink="http://www.w3.org/1999/xlink"


xml:space="preserve">
q-4.55 42.35 -7.05 85.35q-3.5 59.3 -3.85 119.3q-0.15 29.8 -4.45 58.95q-4.5 30.5 -0.05 59.5q5.55 -4.15 5.95 -12.7q2.15 -45.65 3.1 -91.5q1.25 -60 5.3 -119.3q2.5 -36.1 3.45 -71.65q4.05 38.4 12.75 76.25q13.25 57.6 27.15 115.1q3.45 14.35 6.55 28.75q6.35 29.45 11.25 59.1q2.7 16.55 10 27.95q5.7 -11.25 2.9 -20.55q3.25 -54.4 5.55 -109.4q2.45 -59.3 5.65 -118.5q1.2 -22.1 3.75 -44.05q2.65 -22.85 1.9 -44.45q-5.3 6.3 -6.65 16.35q-3.7 27.5 -5.15 55.55q-2.9 52.55 -4.85 105.65q-5.05 -22.95 -10.95 -46.5q-4.55 -18.15 -8.8 -36.25q-13.65 -57.6 -26.8 -115.2q-13.3 -58.1 -17.5 -116.1q-3.7 2.65 -3.45 8.75q4.15 -15 -11.25 -18.25q-26.7 45.25 -24.1 102.3q1.1 23.9 21.1 34.6q2.3 1.2 5 0.5q5.65 -1.55 8.8 -7.05q1.8 -3.25 3.2 -6.5q11.05 -24.9 3.3 -55.05q-26.3 -1.5 -20.65 -34q2.05 -11.65 2.45 -23.65q0.8 -25.35 13.35 -47.2q-19.25 45.1 -30.35 93.15q-4.85 30.4 -15.15 59.9q-1.2 3.45 -2.8 6.75q-4.6 9.75 -5.7 20.3q-0.2 1.75 -0.1 3.55q0.4 6.15 3.5 11.5q5.85 43.35 24.2 83q4.25 -19.5 -4.35 -42.55q-6.65 -17.7 -11 -36.25q3.15 -2.45 2.45 -7.2q2.55 29.95 9.6 59.05q-5.6 30.9 -7.85 62.8q-4.15 58.95 -5.95 118.6q-1.3 44.2 -5.1 88.3q-2.65 30.55 1.45 59.4q3 -0.6 3.55 -4.05q2.15 -14.35 3 -29.1q3.4 -59.1 5.1 -118.55q0.8 -29.9 2.95 -59.9q4.15 -59.45 3.65 -117.85q-0.75 0.1 -0.8 0.35q-0.85 2.15 -0.95 4.5q-0.2 3.2 2.15 4.95q-4.65 28.3 -6.25 57.85q-2.45 45.35 -4.4 90.85q-1.45 2.4 -1.45 5.25q0 3.1 1.4 5.85q-2.4 59.5 -10.35 118.25q-2.3 16.95 3.4 29.5q2.05 -2.15 2.6 -5.15q2.85 -16.3 4.3 -32.95q5.1 -59.05 7.4 -118.65q9.75 -1.1 18.45 -6.5q0.05 3.2 1 6.75q14.85 56.55 26.85 113.9q6.6 31.4 21.65 56.5q2.05 -2.15 1.3 -5q-9 -33.95 -17.45 -68.85q-13.1 -54.1 -28.05 -107.2q29.9 -23.6 39.4 -63q6.85 -28.35 -3.7 -55q-15.4 -38.75 -55.25 -42.65q-3.85 0.8 -6.7 3.4q-6.95 20.7 -22.45 36.05q-15.2 15.1 -35.95 20.15q5.8 -73.95 5.95 -148.2q22.05 -4.05 38.35 12q15.5 15.3 19.6 36.95q4.05 21.6 -2.9 42.5q2.8 -44 40.35 -50.5q11.7 -2 21.9 4.9q-15 -16.85 -35.2 -8.5q-18.85 7.9 -27.35 28.65q-7.9 19.3 -9.3 40.15q-1.45 21.15 2.55 41.95q4.55 23.85 25.55 30.95q15.95 5.4 30.7 -3.6q20.15 -12.3 15.55 -34q-12.4 17.65 -35.55 23.9q-18 4.85 -24.75 -11.35q-8.7 -20.75 -7.6 -43.1q24.4 1.1 47.15 -7.35q2.7 -4.5 1.2 -9.6q-0.45 -1.45 -1.55 -2.65<g id="2483" transform="matrix(1, 0, 0, 1, -66.8, 0)">
<path style="fill:#000000;fill-opacity:1" d="M362,106.5Q361.75 100.4 365.45 97.75Q369.65 155.75 382.95 213.85Q396.1 271.45 409.75 329.05Q414 347.15 418.55 365.3Q424.45 388.85 429.5 411.8Q431.45 358.7 434.35 306.15L440.65 187.65Q442.1 159.6 445.8 132.1Q447.15 122.05 452.45 115.75Q453.2 137.35 450.55 160.2Q448 182.15 446.8 204.25Q443.6 263.45 441.15 322.75Q438.85 377.75 435.6 432.15Q438.4 441.45 432.7 452.7Q425.4 441.3 422.7 424.75Q417.8 395.1 411.45 365.65Q408.35 351.25 404.9 336.9Q391 279.4 377.75 221.8Q369.05 183.95 365 145.55Q364.05 181.1 361.55 217.2Q357.5 276.5 356.25 336.5Q355.3 382.35 353.15 428Q352.75 436.55 347.2 440.7Q342.75 411.7 347.25 381.2Q351.55 352.05 351.7 322.25Q352.05 262.25 355.55 202.95Q358.05 159.95 362.6 117.6L362 106.5M326.65,299.8L321.95 294.5L318.95 294.5L316.85 298.1Q304.3 319.95 303.5 345.3Q303.1 357.3 301.05 368.95Q295.4 401.45 321.7 402.95L331.25 389.5L333.3 392.65L334.2 386.2L315.85 384.25L315.45 375.45L336.45 372.7Q344.2 402.85 333.15 427.75L331.95 405.85Q330.55 409.1 328.75 412.35Q325.6 417.85 319.95 419.4Q317.25 420.1 314.95 418.9Q294.95 408.2 293.85 384.3Q291.25 327.25 317.95 282Q333.35 285.25 329.2 300.25L326.65 299.8M222.45,100.3L223.2 94.25L245.2 192.3L248.9 192L249.1 192.25L250.05 195.3L250.45 197.1Q251.15 201.85 248 204.3L249.1 208.95Q253.45 227.5 260.1 245.2Q268.7 268.25 264.45 287.75Q246.1 248.1 240.25 204.75L196.8 202.05L169.45 295.25Q166.35 289.9 165.95 283.75Q165.85 281.95 166.05 280.2Q167.15 269.65 171.75 259.9Q173.35 256.6 174.55 253.15Q184.85 223.65 189.7 193.25L191.6 192.15Q202.7 144.1 221.95 99L222.45 100.3M221.8,120.25L199.9 191.3L237.65 192.8L232.95 173.15Q225.9 144.05 223.35 114.1L221.8 120.25M295.45,100.25Q295.95 158.65 291.8 218.1Q289.65 248.1 288.85 278Q287.15 337.45 283.75 396.55Q282.9 411.3 280.75 425.65Q280.2 429.1 277.2 429.7Q273.1 400.85 275.75 370.3Q279.55 326.2 280.85 282Q282.65 222.35 286.8 163.4Q289.05 131.5 294.65 100.6Q294.7 100.35 295.45 100.25M90.25,94.75Q93.1 92.15 96.95 91.35L96.95 91.25Q136.8 95.15 152.2 133.9Q162.75 160.55 155.9 188.9Q146.4 228.3 116.5 251.9Q131.45 305 144.55 359.1Q153 394 162 427.95Q162.75 430.8 160.7 432.95Q145.65 407.85 139.05 376.45Q127.05 319.1 112.2 262.55Q111.25 259 111.2 255.8L105.55 259.55Q96.85 264.95 87.1 266.05L86.8 272.7Q84.5 332.3 79.4 391.35Q77.95 408 75.1 424.3Q74.55 427.3 72.5 429.45Q66.8 416.9 69.1 399.95Q77.05 341.2 79.45 281.7L80.1 266.3L79.5 266.25L78.7 265.35Q77.3 262.6 77.3 259.5Q77.3 256.65 78.75 254.25L80.65 254Q82.6 208.5 85.05 163.15Q86.65 133.6 91.3 105.3L90.7 104.95Q88.35 103.2 88.55 100Q88.65 97.65 89.5 95.5L90.25 94.75M151.6,153.4Q147.5 131.75 132 116.45Q115.7 100.4 93.65 104.45Q93.5 178.7 87.7 252.65L90.3 252.1Q111.05 247.05 126.25 231.95Q141.75 216.6 148.7 195.9Q155.65 175 151.6 153.4M229.4,339.35Q230.9 344.45 228.2 348.95Q205.45 357.4 181.05 356.3Q179.95 378.65 188.65 399.4Q195.4 415.6 213.4 410.75Q236.55 404.5 248.95 386.85Q253.55 408.55 233.4 420.85Q218.65 429.85 202.7 424.45Q181.7 417.35 177.15 393.5Q173.15 372.7 174.6 351.55Q176 330.7 183.9 311.4Q192.4 290.65 211.25 282.75Q231.45 274.4 246.45 291.25L247.65 297.2L244.45 300.25Q234.25 293.35 222.55 295.35Q185 301.85 182.2 345.85L227.85 336.7Q228.95 337.9 229.4 339.35" />
</g>
</svg>
