<?xml version="1.0" encoding="utf-8"?>
<svg version="1.1" id="Layer_1"
xmlns="http://www.w3.org/2000/svg"
xmlns:xlink="http://www.w3.org/1999/xlink"


xml:space="preserve">
q-4.25 3.75 -5.45 10.2q-10.65 57.35 -24.5 114.2q-3.6 14.7 -8.8 28.65q-6.85 18.3 -5.9 35.75q12.05 -20.8 17.25 -46.25q11.7 -57.45 24.7 -114.9q0.2 13.15 3.1 26.9q3.3 15.6 5.45 31.65q1.7 12.4 6.6 21.1q0.5 -1.1 0.35 -2.1q16.35 -43.85 25.6 -89.85q-0.95 10.55 1.4 22.45q10 50.1 18.15 100.55q4.9 30.2 13.9 56.75q0.5 -0.75 0.45 -1.45q-1.85 -35.3 -9.2 -70.8q-11.95 -57.65 -23.35 -114.4q-7.05 10.9 -10.3 25.45q-3 13.45 -8.6 26.3q-8.4 19.4 -10.7 39.4q-7.5 -42.45 -13.65 -84.85q-11.05 42.1 -21.4 86.2q-6.75 28.8 -16.35 57.05q-7.65 22.4 -6.4 44.1q5.5 -7.3 8.15 -17.7q14.35 2.75 28.75 0.95q6.8 43.05 14.2 86q1.05 2.2 3.25 2.25q3 -3.95 1.9 -9q-6.35 -30 -10.8 -60.6q1.85 -4.25 -0.5 -8.2q-0.35 -0.35 -0.7 -0.4q-6.6 -43.75 -14.05 -87.3q-0.65 0.05 -1.05 0.35q-17.5 13.65 -20.5 37.15q-2.75 21.5 3.35 42.35q2.9 9.8 8.65 18.2q9.45 2.35 15.9 -6.05q4.45 -5.8 5.7 -13.05q0.85 -4.8 -0.35 -6.9q-10.3 -14.8 -8.15 -33q1.8 -21.25 15.15 -39.65q-4.45 0.15 -8.3 1.85q-0.1 1.15 -0.05 2.35q-4.8 47 -4.3 96.6q0.3 30.4 -3.9 59.85q-2.45 16.95 2.6 29.9q7.5 -34.9 7.05 -72.5q11.25 -0.95 19.3 -7.05q5.5 53.2 22.8 103.2q3.05 -3.1 1.9 -7.7q-12.35 -48.35 -22.75 -97.05q6.45 -5.7 10.65 -15.1q5.9 -13.25 6.95 -27.75q2.75 -36.15 -29.75 -48.1q6.2 -25.35 7.8 -50.1q1.85 30.8 6.5 60.95q-9 11.75 -23.75 13.85q22.8 0.35 29.9 23.95q6.6 21.85 -7.35 40.05<g id="2479" transform="matrix(1, 0, 0, 1, -138.95, 0)">
<path style="fill:#000000;fill-opacity:1" d="M340.95,187.05Q347.1 229.45 354.6 271.9Q356.9 251.9 365.3 232.5Q370.9 219.65 373.9 206.2Q377.15 191.65 384.2 180.75L383.35 185.3Q394.75 242.05 406.7 299.7Q414.05 335.2 415.9 370.5Q415.95 371.2 415.45 371.95Q406.45 345.4 401.55 315.2Q393.4 264.75 383.4 214.65Q381.05 202.75 382 192.2Q372.75 238.2 356.4 282.05L357.3 287.1Q357.45 288.1 356.95 289.2L354.85 286.2L354.35 287.45L353.7 287.2L353.75 284.3Q348.85 275.6 347.15 263.2Q345 247.15 341.7 231.55Q338.8 217.8 338.6 204.65L337.4 210.3Q324.4 267.75 312.7 325.2Q307.5 350.65 295.45 371.45Q294.5 354 301.35 335.7Q306.55 321.75 310.15 307.05Q324 250.2 334.65 192.85Q335.85 186.4 340.1 182.65L340.2 182L340.3 182.5L341.2 181.75L340.95 187.05M251.2,184Q258.65 227.55 265.25 271.3Q265.6 271.35 265.95 271.7L266.45 272.5Q268.8 276.45 266.95 280.7L266.7 280.75L269.55 300.35Q274 330.95 280.35 360.95Q281.45 366 278.45 369.95Q276.25 369.9 275.2 367.7Q267.8 324.75 261 281.7Q246.6 283.5 232.25 280.75L213.6 355Q210.95 365.4 205.45 372.7Q204.2 351 211.85 328.6Q221.45 300.35 228.2 271.55Q238.55 227.45 249.6 185.35L249.65 185.05L250.2 183L250.15 184.35Q250.55 184.05 251.2 184M291.7,193.75Q278.35 212.15 276.55 233.4L279.95 231.75L292.85 234.45L293.1 237.45L288.95 241.25L276.05 239.95Q273.9 258.15 284.2 272.95L289.95 272.45L304.7 256.45Q305.9 258.55 305.05 263.35Q303.8 270.6 299.35 276.4Q292.9 284.8 283.45 282.45Q277.7 274.05 274.8 264.25Q268.7 243.4 271.45 221.9Q274.45 198.4 291.95 184.75L301.2 188.75L304.2 194.75L302.85 197.1L291.7 193.75M160,179.25Q192.5 191.2 189.75 227.35Q188.7 241.85 182.8 255.1Q178.6 264.5 172.15 270.2Q182.55 318.9 194.9 367.25Q196.05 371.85 193 374.95Q175.7 324.95 170.2 271.75Q162.15 277.85 150.9 278.8L151.05 299.7Q151.5 337.3 144 372.2Q138.95 359.25 141.4 342.3Q145.6 312.85 145.3 282.45Q144.8 232.85 149.6 185.85Q149.55 184.65 149.65 183.5L150 182L150.25 179.75L151.65 181.2Q155.5 179.5 159.95 179.35L160 179.25M256.3,251.7Q251.65 221.55 249.8 190.75Q248.2 215.5 242 240.85L234.35 272.1L250.95 270.7L259.3 271L256.3 251.7M181.95,213.3Q174.85 189.7 152.05 189.35L150.85 267.2Q165.6 265.1 174.6 253.35Q188.55 235.15 181.95 213.3" />
</g>
</svg>
