<?xml version="1.0" encoding="utf-8"?>
<svg version="1.1" id="Layer_1"
xmlns="http://www.w3.org/2000/svg"
xmlns:xlink="http://www.w3.org/1999/xlink"


xml:space="preserve">
q-9.35 -24.65 -32.4 -12.55q-18.7 9.85 -26.9 29.4q-8 19 -13.15 39.15q-4.35 16.95 -8.05 34.15q-4.35 20.25 -1.55 40.45q3.45 24.9 26.75 25.05q21.05 0.1 40.05 -10.25q21.7 -11.9 22.85 -35.1q-29.25 33.05 -68.55 32q-14.95 -0.4 -14.5 -15.35q0.9 -27.7 6.8 -55.05q27.65 9.7 53.25 -4.6q-23.1 5 -46.75 5q5.35 -56.15 53.75 -64.05q6.95 -1.15 13 3.05q-9.05 16.4 -18.9 34.9q-28.1 52.7 -49.35 108.55q-5.35 14.05 -13.95 26q-1.95 2.75 -3.3 5.35q6.05 -59.35 5.4 -117.85q-5 16.9 -6.7 37.35q-4.9 58.9 -11.05 117.8q-0.8 7.45 -2.9 14.55q-4.8 16.35 0.1 30.4q5.3 -2.8 6.15 -9.65q4.55 -36.25 8.7 -72.65q0.95 2.7 2.8 5.25q13.65 -23.25 23.45 -48.8q3.05 27.1 9.5 53.8q14.2 58.5 34.65 113.45q3.9 -3.1 2.65 -8.6q-6.95 -29.85 -15.5 -59.75q-15.15 -52.9 -28.75 -105.25q18.85 -45.65 43.5 -88.6q11.55 -20.1 10.35 -41q-6.05 18 -10.15 36.5q-4.55 20.55 -5.85 41.8q-1.3 21.8 4.65 42.35q6.2 21.3 25.4 31.7q19.35 10.6 39.2 -0.85q19.9 -11.45 30.1 -31.2q3.8 -7.35 2.55 -15.65q-21.5 28.15 -53.85 35.55q-15.1 3.45 -26.05 -7.1q-6.6 -6.35 -9.15 -15.25q-8.3 -28.65 -5.9 -58.2q30.1 7.1 58.45 -5.5q-27.7 -0.25 -57.5 5.7q5.6 -42.15 34.75 -72.3q14.15 -14.7 32.8 -5.85q4.3 2.1 7.3 5.75q1.1 1.25 1.15 3.1q0.05 -23.55 -25.5 -22.85q-10 0.25 -18.25 6.75q-17.15 13.65 -24.15 34.55q-3.8 48.15 -9.95 95.9q-1.4 3.15 -1.3 6.75q0.1 2.8 1.55 5.25q3.2 0.9 6.4 0.9q-8.25 58.55 -11 117.95q-4.6 12.35 3.5 20.25q0.6 -0.75 0.8 -1.6q5.25 -23.3 6.6 -47.8q2.55 -44.6 8.1 -88.75q2.15 -0.65 4.3 -1.75q8.05 -4.1 15.55 -9q21.7 54.25 39.5 110.45q4.2 12.7 12.4 18.85q3.95 -8.05 0.2 -16.55q-10.55 -24.05 -18.8 -49.15q-16.3 -49.7 -36.25 -97.35q11 -8.15 20.6 -18.25q38.6 -40.5 21.95 -91.8q-11 -33.75 -40.2 -51.1q-12.8 -2.8 -21.25 5.5q-0.3 1.9 -0.15 3.75q0.15 1.25 1 2.25q-9.8 16.75 -24.25 29.75q-6.4 5.75 -13.7 10.35q11.8 -72.9 11.75 -146.45q21.1 -0.9 35.45 16.75q14.05 17.2 17.9 39.15q3.7 21.35 -7.45 40.6<g id="2510" transform="matrix(1, 0, 0, 1, -45.4, 0)">
<path style="fill:#000000;fill-opacity:1" d="M325.45,168.2Q277.05 176.1 271.7 232.25Q295.35 232.25 318.45 227.25L322.95 229.5L322.95 236.25Q297.35 250.55 269.7 240.85Q263.8 268.2 262.9 295.9Q262.45 310.85 277.4 311.25Q316.7 312.3 345.95 279.25L346.05 281.55Q344.9 304.75 323.2 316.65Q304.2 327 283.15 326.9Q259.85 326.75 256.4 301.85Q253.6 281.65 257.95 261.4Q261.65 244.2 266 227.25Q271.15 207.1 279.15 188.1Q287.35 168.55 306.05 158.7Q329.1 146.6 338.45 171.25Q332.4 167.05 325.45 168.2M449.85,137.75Q425.2 180.7 406.35 226.35Q419.95 278.7 435.1 331.6Q443.65 361.5 450.6 391.35Q451.85 396.85 447.95 399.95Q427.5 345 413.3 286.5Q406.85 259.8 403.8 232.7L399.15 244.45Q389.35 270 375.7 293.25Q373.85 290.7 372.9 288L368.3 329.15Q364.15 365.55 359.6 401.8Q358.75 408.65 353.45 411.45Q348.55 397.4 353.35 381.05Q355.45 373.95 356.25 366.5L368.7 248.65Q374.85 189.75 379.75 130.85Q381.45 110.4 386.45 93.5Q387.1 152 381.05 211.35L374.7 271.55Q376.05 268.95 378 266.2Q386.6 254.25 391.95 240.2Q413.2 184.35 441.3 131.65Q451.15 113.15 460.2 96.75Q461.4 117.65 449.85 137.75M188.7,148.8Q196.95 142.3 206.95 142.05Q232.5 141.35 232.45 164.9Q232.4 163.05 231.3 161.8Q228.3 158.15 224 156.05Q205.35 147.2 191.2 161.9Q162.05 192.05 156.45 234.2Q186.25 228.25 213.95 228.5L213.95 237.5Q185.6 250.1 155.5 243Q153.1 272.55 161.4 301.2Q163.95 310.1 170.55 316.45Q181.5 327 196.6 323.55Q228.95 316.15 250.45 288Q251.7 296.3 247.9 303.65Q237.7 323.4 217.8 334.85Q197.95 346.3 178.6 335.7Q159.4 325.3 153.2 304Q147.25 283.45 148.55 261.65Q149.85 240.4 154.4 219.85Q158.5 201.35 164.55 183.35Q171.55 162.45 188.7 148.8M77.95,94.25Q77.1 93.25 76.95 92Q76.8 90.15 77.1 88.25L77.45 86.75Q85.9 78.45 98.7 81.25Q127.9 98.6 138.9 132.35Q155.55 183.65 116.95 224.15Q107.35 234.25 96.35 242.4Q116.3 290.05 132.6 339.75Q140.85 364.85 151.4 388.9Q155.15 397.4 151.2 405.45Q143 399.3 138.8 386.6L129.4 357.4Q111.6 301.2 89.9 246.95Q82.4 251.85 74.35 255.95Q72.2 257.05 70.05 257.7L69 266.05Q63.45 310.2 60.9 354.8Q59.55 379.3 54.3 402.6Q54.1 403.45 53.5 404.2Q45.4 396.3 50 383.95L51.65 383.3L52 382.95Q54.75 323.55 63 265L63.9 258.65Q60.7 258.65 57.5 257.75Q56.05 255.3 55.95 252.5Q55.85 248.9 57.25 245.75L65.95 243.45Q72.1 195.7 75.9 147.55L79.95 94.7L77.95 94.25M137.15,150.8Q133.3 128.85 119.25 111.65Q104.9 94 83.8 94.9Q83.85 168.45 72.05 241.35L88 233.8L90.45 228.5L91.75 231.5Q99.05 226.9 105.45 221.15Q119.9 208.15 129.7 191.4Q140.85 172.15 137.15 150.8" />
</g>
</svg>
