<?xml version="1.0" encoding="utf-8"?>
<svg version="1.1" id="Layer_1"
xmlns="http://www.w3.org/2000/svg"
xmlns:xlink="http://www.w3.org/1999/xlink"


xml:space="preserve">
q-2.4 59.4 -2.95 119.25q-0.15 13.15 -1.8 26.15q-7.75 -24.1 -17.6 -47.6q-23 -54.8 -44.1 -109.75q-3.3 14.9 3.65 31.95q22.3 54.85 43.85 109.8q5.4 13.75 8.75 28.05q2.4 10.35 7.55 17.05q3.6 -4.45 1.95 -10.4q2.8 -27.1 2.9 -55.3q0.15 -60.1 0.9 -118.45q-4.25 3.3 -4.55 9.95q7.9 -36.15 10.2 -74q3.6 -59.5 2.55 -117.8q-5.7 43.35 -7.5 89.25q-1.15 29.85 -5.7 59.05q-3.65 23 -0.55 44.4q0.9 -0.35 1 -0.9q-10.15 7.65 -15.25 19.65q-22.05 51.75 -17.35 108.1q2.55 30.95 18.75 57q4.5 7.2 12.5 8.5q30.45 4.9 53.55 -16.9q15.5 -14.65 7.1 -29.45q-5.95 9.85 -14.55 17.75q-20.35 18.7 -46.85 13.6q-5.15 -1 -8 -5.75q-18.25 -30.4 -17.5 -66.85q28 0.1 55 -5.05q0.75 -1 1.1 -2.2q1.4 -5.1 -1.1 -9.75q-25.7 1.5 -50.95 6.05q3.1 -32.5 16.25 -62.7q3.5 -8.05 10.85 -11.95q33.45 -17.55 60.1 9.1q-0.05 -2.9 -1.05 -6q-1.1 -3.5 -3 -6.75q-0.8 -1.4 -1.2 -3q-16.9 -14.4 -40.05 -13.45q-7.85 0.85 -14.3 5.8q-1.55 1.2 -2.3 3.05q-0.35 1.5 -0.15 3.05q-1.1 56.95 -3.95 113.75q-1.1 22.35 -5.95 43.9q-3.05 13.5 2.6 21.8q8.4 -35.35 10.05 -72.65q12.75 -0.35 23.9 -5.8q3.95 20.8 12.45 41.2q11.85 28.35 29.45 51.35q3.8 -3.4 2.3 -8.55q-2.8 -9.8 -7.85 -18.85q-18.2 -32.9 -32.65 -67.1q6.45 -3.8 12.3 -9.4q27.6 -26.5 11.25 -61.75q-14.35 -30.75 -47.3 -31.55q-1 1 -2.9 1.5q1.2 -41.75 -0.05 -83.05q29.3 -3.55 45.3 23.9q16.4 28.25 -8.9 48.8q-6.35 5.15 -13.4 9.05q-1.45 -0.25 -1.3 0.95q-9.3 3.95 -12.55 -1.2q-0.2 -1.9 -1.85 -1.5<g id="2501" transform="matrix(1, 0, 0, 1, -136.1, 0)">
<path style="fill:#000000;fill-opacity:1" d="M423.2,181.5Q422.45 239.85 422.3 299.95Q422.2 328.15 419.4 355.25L420.4 358.8Q422.05 364.75 418.45 369.2L417.85 368.6L417.7 369.7L416 366.35Q410.85 359.65 408.45 349.3Q405.1 335 399.7 321.25Q378.15 266.3 355.85 211.45Q348.9 194.4 352.2 179.5Q373.3 234.45 396.3 289.25Q406.15 312.75 413.9 336.85Q415.55 323.85 415.7 310.7Q416.25 250.85 418.65 191.45Q418.95 184.8 423.2 181.5M336.45,369.95Q333.35 348.55 337 325.55Q341.55 296.35 342.7 266.5Q344.5 220.6 350.2 177.25Q351.25 235.55 347.65 295.05Q345.35 332.9 337.45 369.05Q337.35 369.6 336.45 369.95M274.95,174.5Q298.1 173.55 315 187.95L315.95 188.75Q316.35 190.35 317.15 191.75Q319.05 195 320.15 198.5Q321.15 201.6 321.2 204.5Q294.55 177.85 261.1 195.4Q253.75 199.3 250.25 207.35Q237.1 237.55 234 270.05Q259.25 265.5 284.95 264L287.4 264.45L288.2 265Q290.7 269.65 289.3 274.75Q288.95 275.95 288.2 276.95Q261.2 282.1 233.2 282L233.05 285.95Q232.3 322.4 250.55 352.8Q253.4 357.55 258.55 358.55Q285.05 363.65 305.4 344.95Q314 337.05 319.95 327.2Q328.35 342 312.85 356.65Q289.75 378.45 259.3 373.55Q251.3 372.25 246.8 365.05Q230.6 339 228.05 308.05Q223.35 251.7 245.4 199.95Q250.5 187.95 260.65 180.3Q267.1 175.35 274.95 174.5M153.1,179.5Q155 179 156 178Q188.95 178.8 203.3 209.55Q219.65 244.8 192.05 271.3Q186.2 276.9 179.75 280.7Q194.2 314.9 212.4 347.8Q217.45 356.85 220.25 366.65Q221.75 371.8 217.95 375.2Q200.35 352.2 188.5 323.85Q180 303.45 176.05 282.65Q164.9 288.1 152.15 288.45L151.8 296.3Q150.15 333.6 141.75 368.95Q136.1 360.65 139.15 347.15Q144 325.6 145.1 303.25Q147.95 246.45 149.05 189.5L147.75 189.75L147.4 188.95L147 186.75Q146.8 185.2 147.15 183.7L147.25 183L147.8 182.3L149.95 180.8Q150.7 178.95 152.25 177.75L152.35 179.75L153.1 179.5M153.15,271.95Q154.8 271.55 155 273.45Q158.25 278.6 167.55 274.65L174.25 271.5L174.2 271.4Q174.05 270.2 175.5 270.45L175.65 270.75Q182.7 266.85 189.05 261.7Q214.35 241.15 197.95 212.9Q181.95 185.45 152.65 189Q153.9 230.3 152.7 272.05L153.15 271.95" />
</g>
</svg>
