<?xml version="1.0" encoding="utf-8"?>
<svg version="1.1" id="Layer_1"
xmlns="http://www.w3.org/2000/svg"
xmlns:xlink="http://www.w3.org/1999/xlink"


xml:space="preserve">
q-13.45 40.5 -19.65 82.6q-0.25 0.35 -0.35 0.75q-0.75 2.8 -0.05 5.45q-1.7 12.15 -2.75 24.45q-4.65 53.45 18.8 99.65q5.35 10.6 17.15 12.5q37.15 6 65.2 -20q10.65 -9.85 15.45 -22.65q3.55 -9.4 0.3 -10.7q-2.95 1.6 -5.5 4.7q-29.05 35.1 -74 34.5q-5.45 -0.1 -8.6 -4.35q-26.4 -35.8 -23 -81.85q1.25 -17.3 3.1 -34.45q31.2 2.4 63 0q2.85 -7.05 -1.4 -12.7q-31.05 -0.6 -60.95 4.35q2.45 -21.5 5.8 -42.8q6.45 -40.65 37.75 -66.75q25.8 -21.45 56.9 -12.8q3.75 3.2 6.05 7.5q1.05 1.9 2.9 1.3q0.7 -26.05 -29 -26q-18 3.9 -33.6 13.85q-25.2 16.15 -34.5 44.25q-13.9 57.9 -6.4 117q1.2 9.3 2.9 18.35q8.2 42.85 45.9 65.05q4.8 2.85 10.3 2.65q25.6 -1.05 45.2 -20.3q5.2 -5.1 11.35 -8.6q15.15 -8.55 8 -22.35q-1 -0.1 -1.55 0.35q-22.5 17.45 -46.5 33.15q-7.55 4.95 -15.8 2q-44.15 -15.55 -52.7 -62.25q-6.75 -36.85 -3.65 -73.65q35.55 6.5 71.95 7.45q1 -1.8 1.4 -3.8q0.45 -2.2 0.3 -4.45q-0.15 -3.2 -2.45 -5.25q-28.4 0 -56.5 -4q-6.75 -1.05 -12.8 1.2q1.95 -17 6.05 -34.05q10.1 -42.25 40.05 -74.3q18.2 -19.5 43.35 -6.65q10.15 5.15 18.35 9.8q1.15 -2.1 0.25 -4.2q-11.3 -26.25 -43.25 -24.3q-11.85 4.55 -20.9 14.15q-31.25 33.1 -41.85 77q-5 50.7 -8.6 101.7q-0.75 1.8 -0.85 3.75q-0.15 2.3 0.1 4.5q0.15 1.65 1.2 3q-3.9 58.95 -9.8 117.65q-0.75 7.45 -2.4 14.65q-3.1 13.7 3.7 21.9q3.5 -4.6 3.85 -10.45q3.7 -59 7.75 -117.85q1 -14.9 2.45 -29.7q6.55 0.65 13.2 -0.95q3.5 -1.9 7.25 -3.35q7.15 -2.7 13.55 -6.05q0.15 14.9 8.65 30.7q9.75 18.2 16.85 37.75q21.3 59.05 58.65 105.9q1.9 -11 0.6 -22.45q-0.95 2.05 -1.45 4.4q-7.6 -9.3 -14.7 -20.25q-10.95 -16.85 -19.05 -35.25q-22.5 -51.05 -46.85 -101q37.05 -20.95 47.05 -64.35q6.25 -27.2 -3.15 -53.25q-13.95 -38.85 -58.8 -39.1q-4.05 0.85 -7.4 3.1q-1.9 1.3 -2.8 3.25q0 1.15 0.6 2.2q9.25 -4.1 20.1 -2.25q51 8.8 49.15 59q-0.45 12.25 -5.35 23.4q-22.2 50.4 -75.2 59.85q1.6 -14.85 3.6 -29.55q8 -59.1 4.7 -117.95q-0.75 0.1 -0.8 0.3<g id="2494" transform="matrix(1, 0, 0, 1, -55.95, 0)">
<path style="fill:#000000;fill-opacity:1" d="M384.35,127.35Q399.95 117.4 417.95 113.5Q447.65 113.45 446.95 139.5L446.7 140.25Q444.85 140.85 443.8 138.95Q441.5 134.65 437.75 131.45L436.95 130.75Q405.85 122.1 380.05 143.55Q348.75 169.65 342.3 210.3Q338.95 231.6 336.5 253.1Q366.4 248.15 397.45 248.75Q401.7 254.4 398.85 261.45L398.45 262.25Q366.65 264.65 335.45 262.25Q333.6 279.4 332.35 296.7Q328.95 342.75 355.35 378.55Q358.5 382.8 363.95 382.9Q408.9 383.5 437.95 348.4Q440.5 345.3 443.45 343.7Q446.7 345 443.15 354.4Q438.35 367.2 427.7 377.05Q399.65 403.05 362.5 397.05Q350.7 395.15 345.35 384.55Q321.9 338.35 326.55 284.9Q327.6 272.6 329.3 260.45Q328.6 257.8 329.35 255Q329.45 254.6 329.7 254.25L330.2 254.2Q336.4 212.1 349.85 171.6Q359.15 143.5 384.35 127.35M236.05,120.65Q245.1 111.05 256.95 106.5Q288.9 104.55 300.2 130.8Q301.1 132.9 299.95 135Q291.75 130.35 281.6 125.2Q256.45 112.35 238.25 131.85Q208.3 163.9 198.2 206.15Q194.1 223.2 192.15 240.2Q198.2 237.95 204.95 239Q233.05 243 261.45 243L262.45 243Q264.75 245.05 264.9 248.25Q265.05 250.5 264.6 252.7Q264.2 254.7 263.2 256.5Q226.8 255.55 191.25 249.05Q188.15 285.85 194.9 322.7Q203.45 369.4 247.6 384.95Q255.85 387.9 263.4 382.95Q287.4 367.25 309.9 349.8Q310.45 349.35 311.45 349.45Q318.6 363.25 303.45 371.8Q297.3 375.3 292.1 380.4Q272.5 399.65 246.9 400.7Q241.4 400.9 236.6 398.05Q198.9 375.85 190.7 333Q189 323.95 187.8 314.65Q180.3 255.55 194.2 197.65Q204.8 153.75 236.05 120.65M86.5,88.5Q89.8 147.35 81.8 206.45Q79.8 221.15 78.2 236Q131.2 226.55 153.4 176.15Q158.3 165 158.75 152.75Q160.6 102.55 109.6 93.75Q98.75 91.9 89.5 96L88.55 94.45Q87.95 93.4 87.95 92.25L88.05 89.25L88.25 87.75Q89.15 85.8 91.05 84.5Q94.4 82.25 98.45 81.4L98.95 81.25Q143.8 81.5 157.75 120.35Q167.15 146.4 160.9 173.6Q150.9 217 113.85 237.95Q138.2 287.9 160.7 338.95Q168.8 357.35 179.75 374.2Q186.85 385.15 194.45 394.45Q194.95 392.1 195.9 390.05L196.2 389.95Q197.5 401.4 195.6 412.4L194.95 413.95Q157.6 367.1 136.3 308.05Q129.2 288.5 119.45 270.3Q110.95 254.5 110.8 239.6Q104.4 242.95 97.25 245.65Q93.5 247.1 90 249Q83.35 250.6 76.8 249.95Q75.35 264.75 74.35 279.65Q70.3 338.5 66.6 397.5Q66.25 403.35 62.75 407.95Q55.95 399.75 59.05 386.05Q60.7 378.85 61.45 371.4Q67.35 312.7 71.25 253.75L71.6 249.05L71.5 249Q70.45 247.65 70.3 246Q70.05 243.8 70.2 241.5Q70.3 239.55 71.05 237.75L71.5 237L72.4 236.9Q76 185.9 81 135.2L85.7 88.8Q85.75 88.6 86.5 88.5" />
</g>
</svg>
