<?xml version="1.0" encoding="utf-8"?>
<svg version="1.1" id="Layer_1"
xmlns="http://www.w3.org/2000/svg"
xmlns:xlink="http://www.w3.org/1999/xlink"


xml:space="preserve">
q-1 44.4 -7.35 88.25q-8.55 59.7 -4.25 118.7q1.9 -0.5 3.5 -2.25q26.5 1.45 52.75 -2.5q1.5 2.1 3.75 1.5q4.6 -6.5 1 -14q-26.85 4.15 -53.75 3.5q2.55 -59.3 9.45 -117.85q6.95 -59.3 4 -118.4q-4.55 23.15 -5.15 49q-8.85 2.9 -15 10.4q-30.75 37.65 -11.15 83.85q6.05 14.2 15.05 26.65q30.85 42.8 49.95 91.1q6.5 16.35 1.45 32.95q-5.65 18.65 -24.35 25.2q-45.45 16 -94.2 14.05q-1.7 3.55 -0.8 7.55q0.6 2.75 2.55 4.45q40.15 3.7 79.15 -5.9q48.1 -11.85 45.95 -59.55q-1.35 -29.55 -17.45 -54.5q-26.75 -41.4 -50.2 -84.35q-16.1 -29.55 -2.35 -59.3q9.95 -21.6 31.4 -18.35q0.5 1.25 1.7 1.8q3.65 -16.45 -14.1 -16.95q-4 -2.75 -9.25 -1.4q-26.55 12.95 -38.3 41.15q-10.75 25.9 -14.25 53.65q-7.5 58.9 -4.5 118.7q1.1 22.55 11.2 42.8q14.15 28.4 42.8 15.2q26.85 -12.35 25.3 -38.8q-7.7 9.05 -16.9 18.35q-17.2 17.45 -38.05 6.4q-7.05 -3.75 -9.15 -11.2q-14.3 -51 -10 -104.15q30.95 4.55 58.85 -11.6q0.45 -2.7 -0.6 -5.2q-26.9 8.3 -54.5 12.2q1.9 -15 2.7 -30q2.4 -47.25 37 -78.55q16.75 -15.2 31.95 1.65q1.4 -4.85 -1.05 -9.15q-3.8 -6.65 -9.7 -11.85q-1.25 -0.4 -2.25 -1.1q-14.65 15.15 -23.65 34.2q-9.2 19.45 -12.15 40.8q-2.95 21.35 -4.1 43q-1 18.75 -0.8 37.4q0.25 21.65 2.95 43.2q2.7 21.3 14.75 39q14.8 21.7 35.65 3.35q17.1 -15.1 17.8 -37.55q-13.8 28.45 -42.7 29.25q-6.6 0.2 -9.25 -6q-8.8 -20.6 -12 -42.85q-3.05 -21.3 -2.4 -42.7q25.15 -8.4 51.7 -7.5q-25.6 -8.3 -50.1 3.3q2.5 -57.5 37.3 -100.2q5.75 -7.05 15.2 -8.2q-1 -25.1 -23.85 -16.4q-5.3 2.05 -9.6 6.5q2.1 0.8 4.4 1.4q-3.55 14.85 -4.9 31.75q-4.15 50.2 -9.3 100.35q-1.25 0.95 -1.65 2.7q-1.1 4.7 1.65 8.3q-6.3 58.35 -12.05 116.8q-4.15 12.35 3.75 20.25q5.55 -29.65 8.85 -60.55q4.55 -42.85 8.55 -85.9q9.4 -2.4 18.6 -6.4q-0.2 6.15 1.95 12.25q19.6 55.25 38.3 111.05q5.45 16.25 14.45 26.55q2.5 -5.4 0.45 -11.05q-18.8 -54.35 -39.8 -106.65q4.55 -2.25 7.7 -5.9q33.1 -38.65 30.1 -91.25q-2.2 -38 -39.15 -46.45q-9.4 -1.25 -18 1.75q-0.6 1 -0.75 2.25q-0.25 2.7 0.75 5.25q11.05 18 9.7 39.25q-1.4 21.6 -12.05 40.3q-11.25 19.8 -31.55 29.45q-5.45 2.7 -11.5 4.2q9.35 -64.75 10.25 -129.95q23.55 -2.2 35.15 16.75<g id="2504" transform="matrix(1, 0, 0, 1, -50.6, 0)">
<path style="fill:#000000;fill-opacity:1" d="M373.2,117.75Q376.15 176.85 369.2 236.15Q362.3 294.7 359.75 354L359.7 356.95Q386.6 357.6 413.45 353.45L417.45 356.45Q421.05 363.95 416.45 370.45Q414.2 371.05 412.7 368.95Q386.45 372.9 359.95 371.45Q358.35 373.2 356.45 373.7Q352.15 314.7 360.7 255Q367.05 211.15 368.05 166.75Q368.65 140.9 373.2 117.75M475.05,133.95L474.7 134.75L473.6 134.65Q472.4 134.1 471.9 132.85L470.95 131.25Q449.5 128 439.55 149.6Q425.8 179.35 441.9 208.9Q465.35 251.85 492.1 293.25Q508.2 318.2 509.55 347.75Q511.7 395.45 463.6 407.3Q424.6 416.9 384.45 413.2Q382.5 411.5 381.9 408.75Q381 404.75 382.7 401.2Q431.45 403.15 476.9 387.15Q495.6 380.6 501.25 361.95Q506.3 345.35 499.8 329Q480.7 280.7 449.85 237.9Q440.85 225.45 434.8 211.25Q415.2 165.05 445.95 127.4Q452.1 119.9 460.95 117Q478.7 117.5 475.05 133.95M228.45,114.75Q234.35 119.95 238.15 126.6Q240.6 130.9 239.2 135.75L239.1 136L238.55 134.95L238.4 134.25L238.2 133.5Q223 116.65 206.25 131.85Q171.65 163.15 169.25 210.4Q168.45 225.4 166.55 240.4L165.95 245.7Q193.55 241.8 220.45 233.5L223.15 234.65L223.95 235.25Q225 237.75 224.55 240.45L223.95 242.75Q196.05 258.9 165.1 254.35Q160.8 307.5 175.1 358.5Q177.2 365.95 184.25 369.7Q205.1 380.75 222.3 363.3Q231.5 354 239.2 344.95Q240.75 371.4 213.9 383.75Q185.25 396.95 171.1 368.55Q161 348.3 159.9 325.75Q156.9 265.95 164.4 207.05Q167.9 179.3 178.65 153.4Q190.4 125.2 216.95 112.25Q222.2 110.9 226.2 113.65Q227.2 114.35 228.45 114.75M308.35,122.6Q331.2 113.9 332.2 139L322.95 129.75L317.25 130.1Q307.8 131.25 302.05 138.3Q267.25 181 264.75 238.5Q289.25 226.9 314.85 235.2L315.2 244.5Q288.65 243.6 263.5 252L262.85 270.2Q262.2 291.6 265.25 312.9Q268.45 335.15 277.25 355.75Q279.9 361.95 286.5 361.75Q315.4 360.95 329.2 332.5Q328.5 354.95 311.4 370.05Q290.55 388.4 275.75 366.7Q263.7 349 261 327.7Q258.3 306.15 258.05 284.5Q257.85 265.85 258.85 247.1Q260 225.45 262.95 204.1Q265.9 182.75 275.1 163.3Q284.1 144.25 298.75 129.1Q303.05 124.65 308.35 122.6M79.2,101.75Q79.35 100.5 79.95 99.5Q88.55 96.5 97.95 97.75Q134.9 106.2 137.1 144.2Q140.1 196.8 107 235.45Q103.85 239.1 99.3 241.35L98 242Q119 294.3 137.8 348.65L149.65 382.4Q151.7 388.05 149.2 393.45Q140.2 383.15 134.75 366.9Q116.05 311.1 96.45 255.85Q94.3 249.75 94.5 243.6Q85.3 247.6 75.9 250Q71.9 293.05 67.35 335.9Q64.05 366.8 58.5 396.45Q50.6 388.55 54.75 376.2L56.25 374.7Q62 316.25 68.3 257.9L69 251.5L62.45 252.5Q59.7 248.9 60.8 244.2Q61.2 242.45 62.45 241.5L70.15 240.5Q75.3 190.35 79.45 140.15Q80.8 123.25 84.35 108.4Q82.05 107.8 79.95 107Q78.95 104.45 79.2 101.75M87.2,109.05Q86.3 174.25 76.95 239Q83 237.5 88.45 234.8Q108.75 225.15 120 205.35Q130.65 186.65 132.05 165.05Q133.4 143.8 122.35 125.8Q110.75 106.85 87.2 109.05" />
</g>
</svg>
