<?xml version="1.0" encoding="utf-8"?>
<svg version="1.1" id="Layer_1"
xmlns="http://www.w3.org/2000/svg"
xmlns:xlink="http://www.w3.org/1999/xlink"


xml:space="preserve">
q-17.9 15.6 -10.25 37.75q11 31.8 32.15 58.45q27.05 34.05 5.5 68.6q-4.4 6.95 -13.35 7q-19.6 0.05 -34.05 -12.75q-9.5 -8.45 -12 -20.95q-3.3 -16.55 -1.55 -34.1q0.55 -5.85 -1.45 -11.8q-12.5 22 -8.05 47q5.65 31.6 33.8 45.7q17.5 8.85 33.9 0.35q12.1 -6.4 17.05 -20.1q6.05 -16.6 4.55 -34.45q-2 -23.9 -16.7 -42.9q-20.85 -27 -34.4 -56.45q-3 -6.55 1.35 -12.75q24.4 0.25 34.6 21.15q0.35 0.65 1.15 1.1q1.55 -13.95 -8.05 -24.1q-11.15 -11.8 -27.7 -12.15q-15.2 34.3 -28.15 69.5q-1.05 -3.05 -2.75 -6q-20.35 -35.25 -44.1 -68.3q-1.1 -0.2 -1.65 0.5q-5.2 7.1 2.15 12.25q18.1 30.3 34.15 62q3.6 7.15 7.5 12.55q-5.15 14.4 -9.9 29q-4.55 13.95 -10.45 27.05q-9.25 20.55 -11.55 41.85q0.6 2.6 3.25 2.25q5.5 -10.65 9.3 -22.45q18.35 -56.5 40.2 -110.65q2.85 -7.05 6.5 -13.55q11.55 -20.8 10.2 -42.05q-2.95 2.05 -4.7 6.05q-5.4 33.15 -5.1 67.4q0.4 44.85 -3.3 89.15q-1.45 17.4 4.75 29.05q3.7 -7.25 2.25 -12.25q1.2 -27.7 1.65 -55.5q1.05 -60.2 0.85 -118.45q-1 -0.2 -1.1 0.6<g id="2703" transform="matrix(1, 0, 0, 1, -136.65, 0)">
<path style="fill:#000000;fill-opacity:1" d="M384.65,195.4Q394.25 205.55 392.7 219.5Q391.9 219.05 391.55 218.4Q381.35 197.5 356.95 197.25L353.45 201.85Q349.1 208.05 352.1 214.6Q365.65 244.05 386.5 271.05Q401.2 290.05 403.2 313.95Q404.7 331.8 398.65 348.4Q393.7 362.1 381.6 368.5Q365.2 377 347.7 368.15Q319.55 354.05 313.9 322.45Q309.45 297.45 321.95 275.45Q323.95 281.4 323.4 287.25Q321.65 304.8 324.95 321.35Q327.45 333.85 336.95 342.3Q351.4 355.1 371 355.05Q379.95 355 384.35 348.05Q405.9 313.5 378.85 279.45Q357.7 252.8 346.7 221Q339.05 198.85 356.95 183.25Q373.5 183.6 384.65 195.4M223.2,182.25Q224.55 203.5 213 224.3Q209.35 230.8 206.5 237.85Q184.65 292 166.3 348.5Q162.5 360.3 157 370.95Q154.35 371.3 153.75 368.7Q156.05 347.4 165.3 326.85Q171.2 313.75 175.75 299.8Q180.5 285.2 185.65 270.8Q181.75 265.4 178.15 258.25Q162.1 226.55 144 196.25Q136.65 191.1 141.85 184Q142.4 183.3 143.5 183.5Q167.25 216.55 187.6 251.8Q189.3 254.75 190.35 257.8Q203.3 222.6 218.5 188.3Q220.25 184.3 223.2 182.25M282.45,180.5Q282.65 238.75 281.6 298.95Q281.15 326.75 279.95 354.45Q281.4 359.45 277.7 366.7Q271.5 355.05 272.95 337.65Q276.65 293.35 276.25 248.5Q275.95 214.25 281.35 181.1Q281.45 180.3 282.45 180.5" />
</g>
</svg>
