<?xml version="1.0" encoding="utf-8"?>
<svg version="1.1" id="Layer_1"
xmlns="http://www.w3.org/2000/svg"
xmlns:xlink="http://www.w3.org/1999/xlink"


xml:space="preserve">
q1.95 -50.1 -1.65 -99.65q-4.45 21.6 -4.35 46q0.2 60 -8.1 119q-1.95 14.1 5.2 21.7q5.9 -33.45 7.95 -68.2q0.75 2.7 2.55 5.3q14.25 -20.6 28.85 -40.95q12.5 58.2 34.15 111.95q4.4 -4.15 2.35 -10.7q-16.7 -53.8 -32.25 -107.25q13.65 -19 27.65 -37.8q11.4 -15.35 10.5 -31.45q-24.05 34.15 -49.6 68.45q-8.55 11.55 -17.85 22.5q-4.25 5 -5.9 9.7q-18.55 37.8 -28.7 79.1q-23.6 -38.7 -42 -80.1q1.7 31.15 20.5 60.7q8.25 12.95 16.2 26.35q-16.15 42.85 -22.2 87.05q-0.55 4 1.5 7.65q21.2 -76.15 46.65 -151.1q4.35 -12.9 5.3 -26.55q-1.5 31.95 2.65 64.5q-0.8 2.55 -0.75 5.25q0.65 39.7 -18.65 73.7q-13.15 23.25 -38.1 25.25q-16.2 -22.95 -14.05 -52.55q4.4 -59.6 3.05 -118.4q-2.9 6.6 -3.3 15.45q-2.7 56.25 -5.9 112.45q-2.05 35.05 19.95 59.3q25.8 -12.35 38.25 -37.85q13.95 -28.65 15.65 -60.3q1.55 -29.5 0.25 -59.4q-0.75 -17 -7.65 -29.4q-0.85 0.6 -0.9 1.25<g id="2546" transform="matrix(1, 0, 0, 1, -141.8, 0)">
<path style="fill:#000000;fill-opacity:1" d="M339.75,271.7Q349.05 260.75 357.6 249.2Q383.15 214.9 407.2 180.75Q408.1 196.85 396.7 212.2Q382.7 231 369.05 250Q384.6 303.45 401.3 357.25Q403.35 363.8 398.95 367.95Q377.3 314.2 364.8 256Q350.2 276.35 335.95 296.95Q334.15 294.35 333.4 291.65L332.9 300.25Q330.85 335 324.95 368.45Q317.8 360.85 319.75 346.75Q328.05 287.75 327.85 227.75Q327.75 203.35 332.2 181.75Q335.8 231.3 333.85 281.4Q335.5 276.7 339.75 271.7M213.7,191.3Q212.75 204.95 208.4 217.85Q182.95 292.8 161.75 368.95L160.9 367.55Q158.85 363.9 159.4 359.9Q165.45 315.7 181.6 272.85L178.5 267.65Q170.55 254.25 162.3 241.3Q143.5 211.75 141.8 180.6L143.5 179.75Q161.9 221.15 185.5 259.85Q195.65 218.55 214.2 180.75L213.7 191.3M298.95,183.75Q305.85 196.15 306.6 213.15Q307.9 243.05 306.35 272.55Q304.65 304.2 290.7 332.85Q278.25 358.35 252.45 370.7L242.95 369.95Q220.95 345.7 223 310.65Q226.2 254.45 228.9 198.2Q229.3 189.35 232.2 182.75Q233.55 241.55 229.15 301.15Q227 330.75 243.2 353.7Q268.15 351.7 281.3 328.45Q300.6 294.45 299.95 254.75Q299.9 252.05 300.7 249.5Q296.55 216.95 298.05 185Q298.1 184.35 298.95 183.75" />
</g>
</svg>
