<?xml version="1.0" encoding="utf-8"?>
<svg version="1.1" id="Layer_1"
xmlns="http://www.w3.org/2000/svg"
xmlns:xlink="http://www.w3.org/1999/xlink"


xml:space="preserve">
q1.3 -14.2 -5.75 -21.6q-12.55 56.6 -28.75 112.95q-4 -57.05 -11.5 -112.5q-6.1 8.85 -7.9 21.6q-8.25 58.6 -18.3 117.1q-2.6 15.15 -7.65 29.45q-4.7 13.3 1.35 22.55q6.4 -19.95 10.15 -41.45q10.3 -59.4 20.85 -116.25q3.1 40.5 4.6 81.05q0.55 14.85 5.4 26.65q20.7 -47.55 30.5 -99.95q8.2 58.7 11.25 117.85q0.75 14.25 8.3 20.9q3.25 -9.65 1.9 -20.35q-7.35 -58.4 -15.05 -116.8q-1.95 -14.85 -0.6 -29.95q-1.95 15.75 -3.05 32.85q-3.65 58.45 -2 117.05q0.45 15.45 7.95 28.5q12.15 21.2 34.2 13q23.35 -8.7 31.95 -31.55q17.85 -47.4 16.3 -99.15q-0.45 -15.1 -0.45 -30q0 -17.45 -7.9 -29.25q-5.5 5.8 -4 14.3q8.9 49.85 2.95 100.3q-3.3 28.2 -22.7 48.4q-17.55 18.25 -38.75 10.2q-5.7 -2.15 -7.15 -7.9q-9.7 -37.85 -6 -78.3q4.05 -44.8 -0.85 -88.5q-4.7 9.55 -8.4 19.3q-12.2 32.15 -22.8 64.75q-5.1 -10 -9.75 -20.15q-6.05 -13 -10.85 -26.55q-7.5 -20.9 -19.1 -38q-2.85 2 -2.3 6.25q0.55 4.6 2.3 8.85q17.25 41.55 35.5 83.05q-5.45 17.35 -10.45 34.8q-4.1 14.4 -10.45 27.6q-7.95 16.45 0.15 28.15q10.1 -23.4 16.85 -48.55q15.25 -56.8 37.2 -111.5q6 -14.85 4.4 -28.9q-1.95 5.85 -3.6 11.85q-4.75 17.05 -1.5 34.3q5.05 27.05 30.1 19.3q27.75 -30.65 14.65 -70.6q-6.3 -19.05 -24.4 -22.85q-3.7 1.15 -7.15 3.7q-13.05 9.45 -8.1 24.3q22.25 -5.25 27.05 23.1q4 23.75 -15.1 35.8q-13.75 8.55 -18 -5.45q-6.45 -21.25 1.25 -42.35<g id="2533" transform="matrix(1, 0, 0, 1, -138.15, 0)">
<path style="fill:#000000;fill-opacity:1" d="M400.05,232.05Q407.75 290.45 415.1 348.85Q416.45 359.55 413.2 369.2Q405.65 362.55 404.9 348.3Q401.85 289.15 393.65 230.45L392.45 220.75Q382.65 273.15 361.95 320.7Q357.1 308.9 356.55 294.05Q355.05 253.5 351.95 213Q341.4 269.85 331.1 329.25Q327.35 350.75 320.95 370.7Q314.9 361.45 319.6 348.15Q324.65 333.85 327.25 318.7Q337.3 260.2 345.55 201.6Q347.35 188.85 353.45 180Q360.95 235.45 364.95 292.5L364.95 293.45Q381.15 237.1 393.7 180.5Q400.75 187.9 399.45 202.1Q398.1 217.2 400.05 232.05M234.45,181.5Q239.35 225.2 235.3 270Q231.6 310.45 241.3 348.3Q242.75 354.05 248.45 356.2Q269.65 364.25 287.2 346Q306.6 325.8 309.9 297.6Q315.85 247.15 306.95 197.3Q305.45 188.8 310.95 183Q318.85 194.8 318.85 212.25Q318.85 227.15 319.3 242.25Q320.85 294 303 341.4Q294.4 364.25 271.05 372.95Q249 381.15 236.85 359.95Q229.35 346.9 228.9 331.45Q227.25 272.85 230.9 214.4Q232 197.3 233.95 181.55L234.45 181.5M214,182.05L214.2 182Q215.8 196.05 209.8 210.9Q187.85 265.6 172.6 322.4Q165.85 347.55 155.75 370.95Q147.65 359.25 155.6 342.8Q161.95 329.6 166.05 315.2Q171.05 297.75 176.5 280.4Q158.25 238.9 141 197.35Q139.25 193.1 138.7 188.5Q138.15 184.25 141 182.25Q152.6 199.35 160.1 220.25Q164.9 233.8 170.95 246.8Q175.6 256.95 180.7 266.95L180.75 267.05Q191.35 234.45 203.55 202.3Q207.25 192.55 211.95 183L214 182.05M262.8,213.95Q266.25 211.4 269.95 210.25Q288.05 214.05 294.35 233.1Q307.45 273.05 279.7 303.7Q254.65 311.45 249.6 284.4Q246.35 267.15 251.1 250.1Q252.75 244.1 254.7 238.25Q249.75 223.4 262.8 213.95M259.85,239.35Q252.15 260.45 258.6 281.7Q262.85 295.7 276.6 287.15Q295.7 275.1 291.7 251.35Q286.9 223 264.65 228.25L265.65 230.5L262.2 233.25L259.85 239.35" />
</g>
</svg>
