<?xml version="1.0" encoding="utf-8"?>
<svg version="1.1" id="Layer_1"
xmlns="http://www.w3.org/2000/svg"
xmlns:xlink="http://www.w3.org/1999/xlink"


xml:space="preserve">
q-3.35 34.95 -4.65 71q-0.85 24.2 -1.55 48.65q-0.25 8.4 -1 16.85q-1.2 14 -3.1 28.05q-1.7 12.55 3.55 23.65q15.15 -1.5 29.85 -5.5q6.15 -1.65 12.4 -3.7q7.35 -3 13.9 -7.65q20.55 -14.6 26.5 -39.15q6.25 -25.8 0.65 -51.8q-8.55 -39.95 -40.85 -64.65q-16.45 -12.65 -37.15 -14.6q30 -1.55 49 22q1.7 3.55 4.5 6.55q38.35 40.8 15.3 92.1q-3.6 7.95 -10.55 13.25q-27.75 21.1 -63.4 23.15q3.35 -25.6 4.3 -51.8q1.95 -54.25 -0.75 -107.4q0.35 1.4 1.6 2.15q-13.6 45.6 -26.8 91.4q-1.85 -24.3 -12.15 -47.2q-11.45 -25.55 -25.75 -48.3q-1.95 1.15 -1 3.6q-4.05 14.1 -9.8 27.9q-9.2 22.2 -6.25 43.35q8.3 -14.45 12.95 -31.95q15.45 -57.6 33.95 -112.95q7.3 -21.9 6.05 -43.3q-2.75 0.35 -3.7 3.5q-15 7.1 -13.75 21.75q31.85 -14.4 8.75 -39.5q-3.15 8.75 3.2 15.9q2.2 -59.75 -1.05 -118.5q-4.6 34.05 -4.45 70.75q0.15 45 -6.2 89q-2.55 17.4 4.15 29.2q6.25 -34.5 7.55 -70.45<g id="2701" transform="matrix(1, 0, 0, 1, -139.05, 0)">
<path style="fill:#000000;fill-opacity:1" d="M333.95,180.25Q354.65 182.2 371.1 194.85Q403.4 219.55 411.95 259.5Q417.55 285.5 411.3 311.3Q405.35 335.85 384.8 350.45Q378.25 355.1 370.9 358.1L365.7 360.25Q359.45 362.3 353.3 363.95Q338.6 367.95 323.45 369.45L321.45 369.2Q316.2 358.1 317.9 345.55Q319.8 331.5 321 317.5Q321.75 309.05 322 300.65Q322.7 276.2 323.55 252Q324.85 215.95 328.2 181L328.5 186.1L329.45 183L333.95 180.25M328.85,192.1Q331.55 245.25 329.6 299.5Q328.65 325.7 325.3 351.3Q360.95 349.25 388.7 328.15Q395.65 322.85 399.25 314.9Q422.3 263.6 383.95 222.8Q381.15 219.8 379.45 216.25Q360.45 192.7 330.45 194.25Q329.2 193.5 328.85 192.1M209.45,181.75Q210.7 203.15 203.4 225.05Q184.9 280.4 169.45 338Q164.8 355.5 156.5 369.95Q153.55 348.8 162.75 326.6Q168.5 312.8 172.55 298.7L178.35 278.7L177 279.7L140 184.35Q139.05 181.9 141 180.75Q155.3 203.5 166.75 229.05Q177.05 251.95 178.9 276.25L178.95 276.65Q192.15 230.85 205.75 185.25Q206.7 182.1 209.45 181.75M293.95,180.75Q317.05 205.85 285.2 220.25Q283.95 205.6 298.95 198.5L297.15 196.65Q290.8 189.5 293.95 180.75M243.7,369.95Q237 358.15 239.55 340.75Q245.9 296.75 245.75 251.75Q245.6 215.05 250.2 181Q253.45 239.75 251.25 299.5Q249.95 335.45 243.7 369.95" />
</g>
</svg>
