<?xml version="1.0" encoding="utf-8"?>
<svg version="1.1" id="Layer_1"
xmlns="http://www.w3.org/2000/svg"
xmlns:xlink="http://www.w3.org/1999/xlink"


xml:space="preserve">
q-1.55 51.2 -2.65 103.45q-0.6 30 -4.35 59.8q-2.15 17.25 4.25 29.2q4.05 -21.5 4.8 -44.2q2 -59.3 3.45 -119.25q0.45 -16.85 -5 -29.5q-0.5 0.25 -0.5 0.5q12.8 23.25 27 46.1q9.4 15.2 15.5 32.2q2.55 7.1 6.7 13.45q-8.8 26.35 -22.55 50.3q-7.35 12.8 -9.8 27.35q-1.6 9.3 0.05 18.45q13.45 -25.25 22.8 -52.35q6.5 -18.8 14.35 -37.3q18.6 -36.95 32.45 -75.6q3.55 -9.9 3.65 -20.45q-23.35 40.1 -39.05 84.6q-7.1 -24.15 -19.9 -45.9q-7.95 -13.45 -18.2 -25.3q-6.3 -7.3 -13.3 -13.9<g id="2692" transform="matrix(1, 0, 0, 1, -162.6, 0)">
<path style="fill:#000000;fill-opacity:1" d="M345.95,178.25Q351.4 190.9 350.95 207.75Q349.5 267.7 347.5 327Q346.75 349.7 342.7 371.2Q336.3 359.25 338.45 342Q342.2 312.2 342.8 282.2Q343.9 229.95 345.45 178.75Q345.45 178.5 345.95 178.25M164,179.75Q171 186.35 177.3 193.65Q187.55 205.5 195.5 218.95Q208.3 240.7 215.4 264.85Q231.1 220.35 254.45 180.25Q254.35 190.8 250.8 200.7Q236.95 239.35 218.35 276.3L217.95 281.7L216.65 280.3Q208.8 298.8 202.3 317.6Q192.95 344.7 179.5 369.95Q177.85 360.8 179.45 351.5Q181.9 336.95 189.25 324.15Q203 300.2 211.8 273.85Q207.65 267.5 205.1 260.4Q199 243.4 189.6 228.2Q175.4 205.35 162.6 182.1L164 179.75" />
</g>
</svg>
