<?xml version="1.0" encoding="utf-8"?>
<svg version="1.1" id="Layer_1"
xmlns="http://www.w3.org/2000/svg"
xmlns:xlink="http://www.w3.org/1999/xlink"


xml:space="preserve">
q-13.45 13.25 -18.7 31.95q-7.55 26.95 -8.45 54.95q-0.5 14.7 -1.85 29.4q-0.8 8.35 -0.5 16.5q0.8 20.8 11.5 38.4q10.25 16.95 26.2 1.35q15.6 -15.25 15.8 -36.9q-1.65 12.1 -11.3 20.5q-7.45 6.55 -17.2 8.45q-14.25 -16.8 -11.8 -41q16.85 3.8 34 1.3q2.35 -3.75 2.1 -8.1q-0.25 -4.1 -2.7 -7.25q-3.3 -47.15 17.55 -87.5q1.4 -2.7 3.15 -5.25q4.1 -4.2 2.45 -10.1q-2.85 -9.95 -10.95 -15.9q0.05 23 4.3 46.05q10.75 58.05 14.2 117.4q0.9 15.05 1 30.05q0.2 18.5 2.5 36.1q-0.15 7.7 0.9 15.35q1 0.6 1.65 0.45q8.3 -5.05 4.25 -16.5q1.6 -10.9 2.8 -21.9q7.65 -33.1 13.9 -66.7q10.8 -58.15 22 -116.25q1.45 -7.5 4 -14.5q4.6 -12.9 -0.65 -22.1q-0.85 0.3 -1.2 1.35q-9.45 30.05 -15.4 61.15q-2.35 12.4 -5.8 24.45q-2.65 -41.1 -5.8 -82.3q-4.55 -59.3 -20.25 -116.15q-1.9 -0.2 -1.9 1.75q-4.9 16.65 0.8 29.1q4.9 -14.9 -0.7 -29.1q5.8 33.2 5.45 67.5q-0.65 64.3 -35.65 118.5q-14.6 22.65 -39.55 15.7q-3.6 -6.7 -4.3 -14.2q-5.5 -56.15 -3.65 -113.3q0.95 -29.6 2.75 -59.1q1 -16.45 -4.3 -29.35q-3.6 12.5 -3.5 26.25q0.2 39.05 -2 77.9q-3.4 60.35 8 118.45q2.15 10.9 13.2 12.2q16.8 1.9 27.65 -11.25q38.55 -46.7 45.95 -106.75q7.4 -60.4 -6.3 -117.8q-5.2 8.3 -7.5 18.75q1.6 -2.7 3.15 -2.9q-24.9 17.3 -34.6 46.7q-19.1 57.75 -11.3 117.75q3.15 24.05 19.45 41.55q16.5 17.7 36.45 4.8q32.9 -21.2 42.2 -60.15q14.2 -59.4 -3.9 -117.65q-8.8 -28.35 -34.8 -37.5q-6 2.8 -12.55 4.15q11.9 0.55 18.05 11.4q30.65 54.1 16.65 115.25q-8.45 36.75 -39.65 56.4q-17.2 10.85 -30.9 -3.65q-15.5 -16.25 -17.75 -39.25q-4.3 -44.35 7.1 -87.65q8.25 -31.25 32 -50.5q3.75 -1.8 6.5 -0.5q0.55 2.65 1.8 2.2q19.65 55.45 35.25 112.3q2.8 10.3 7.05 18.5q-15.75 52.95 -34.1 104.95q-5.9 16.75 1.5 28.5q3.85 -5 5.6 -11.75q14.65 -57.05 31.7 -113.9q2.15 -3 1.65 -6.7q16.35 -53.6 37.15 -105.15q6.2 -15.3 4.6 -28.9q-11.15 18.85 -18.8 40.55q-13.85 39.1 -25.7 78.9q-1.7 -7.4 -4 -14.7q-17.8 -56.35 -40.2 -111.25q-4.4 2.8 -2.2 8.95<g id="2534" transform="matrix(1, 0, 0, 1, -61.1, 0)">
<path style="fill:#000000;fill-opacity:1" d="M506.45,145.25Q514.55 151.2 517.4 161.15Q519.05 167.05 514.95 171.25L506.7 160.25L496.95 159.5Q495.2 162.05 493.8 164.75Q472.95 205.1 476.25 252.25L508.45 252Q510.9 255.15 511.15 259.25Q511.4 263.6 509.05 267.35Q491.9 269.85 475.05 266.05L469.15 326.7Q466.7 350.9 480.95 367.7Q490.7 365.8 498.15 359.25Q507.8 350.85 509.45 338.75L513.7 332.2L516.45 333L516.6 339.5Q516.4 361.15 500.8 376.4Q484.85 392 474.6 375.05Q463.9 357.45 463.1 336.65Q462.8 328.5 463.6 320.15L466.3 290.75L468.95 261.3Q470.3 246.6 470.8 231.9Q471.7 203.9 479.25 176.95Q484.5 158.25 497.95 145L506.45 145.25M396.45,143.25Q412.15 200.1 416.7 259.4Q419.85 300.6 422.5 341.7Q425.95 329.65 428.3 317.25L450.35 200.75Q456.3 169.65 465.75 139.6Q466.1 138.55 466.95 138.25Q472.2 147.45 467.6 160.35Q465.05 167.35 463.6 174.85Q452.4 232.95 441.6 291.1Q435.35 324.7 427.7 357.8Q426.5 368.8 424.9 379.7L424.7 380.45Q428.75 391.9 420.45 396.95L419.1 390.4Q418.45 390.55 417.45 389.95Q416.4 382.3 416.55 374.6Q414.25 357 414.05 338.5Q413.95 323.5 413.05 308.45Q409.6 249.1 398.85 191.05Q394.6 168 394.55 145Q394.55 143.05 396.45 143.25M374.55,140.6Q368.85 128.15 373.75 111.5L373.85 111.5Q379.45 125.7 374.55 140.6M343.55,166.65L342.95 167.25Q345.25 156.8 350.45 148.5Q364.15 205.9 356.75 266.3Q349.35 326.35 310.8 373.05Q299.95 386.2 283.15 384.3Q272.1 383 269.95 372.1Q258.55 314 261.95 253.65Q264.15 214.8 263.95 175.75Q263.85 162 267.45 149.5Q272.75 162.4 271.75 178.85Q269.95 208.35 269 237.95Q267.15 295.1 272.65 351.25Q273.35 358.75 276.95 365.45Q301.9 372.4 316.5 349.75Q351.5 295.55 352.15 231.25Q352.5 196.95 346.7 163.75Q345.15 163.95 343.55 166.65M199,153.85L199.95 153.5Q225.95 162.65 234.75 191Q252.85 249.25 238.65 308.65Q229.35 347.6 196.45 368.8Q176.5 381.7 160 364Q143.7 346.5 140.55 322.45Q132.75 262.45 151.85 204.7Q161.55 175.3 186.45 158Q193 156.65 199 153.85M198.15,171.45L196.95 172.25L195.65 176.8L195.45 178.25Q194.2 178.7 193.65 176.05L192.95 174.5Q190.2 173.2 186.45 175L185 173.45L184.45 172.75Q160.7 192 152.45 223.25Q141.05 266.55 145.35 310.9Q147.6 333.9 163.1 350.15Q176.8 364.65 194 353.8Q225.2 334.15 233.65 297.4Q247.65 236.25 217 182.15Q210.85 171.3 198.95 170.75L198.15 171.45M65.5,113Q87.9 167.9 105.7 224.25Q108 231.55 109.7 238.95Q121.55 199.15 135.4 160.05Q143.05 138.35 154.2 119.5Q155.8 133.1 149.6 148.4Q128.8 199.95 112.45 253.55L112.6 254.8Q113.1 258.5 110.95 261.5L110.3 260.55Q93.25 317.4 78.6 374.45Q76.85 381.2 73 386.2Q65.6 374.45 71.5 357.7Q89.85 305.7 105.6 252.75Q101.35 244.55 98.55 234.25Q82.95 177.4 63.3 121.95Q61.1 115.8 65.5 113" />
</g>
</svg>
