<?xml version="1.0" encoding="utf-8"?>
<svg version="1.1" id="Layer_1"
xmlns="http://www.w3.org/2000/svg"
xmlns:xlink="http://www.w3.org/1999/xlink"


xml:space="preserve">
q4.05 -30.4 -23.9 -16.1q-7.05 3.5 -9.25 11.75q-6.4 24.15 10.05 42.55q24.95 27.95 25.85 65.4q0.25 10.4 -5.05 19.15q-8.3 13.7 -23.95 18.3q-23.85 7.15 -34.15 -11.8q-2.1 -3.85 -2.4 -9.2q-0.7 -12.5 -6.7 -23.35q-15.25 46.6 27.25 61.6q12 4.2 23.3 -2.2q28.05 -15.65 28.95 -49.65q1.05 -40.85 -27.25 -70.45q-10.95 -11.5 -10.6 -27.3q0.2 -9.2 4.85 -17.2q-4.25 36.8 -6.15 74.1q-3.05 59.45 -1.95 117.8q8 -4.85 7.6 -17.25q-1.25 -38.4 0.05 -76.9q16.55 -1.55 32.75 -4.95q-0.75 15 -2.8 29.75q-2.25 16.45 3.5 29.95q1.75 -0.25 1.9 -2q2.9 -34.7 5.25 -69.65q3.35 -6.2 -0.1 -11.8q1.15 -39.35 -0.8 -78.1q-3.8 4.15 -4 11.25q-17.5 2.45 -33 9.05q0.65 -15.7 1.75 -31.35q2.15 -30.4 0.95 -59.25q-2.3 0.25 -2.65 3.05q-14.5 -49.05 -40.2 -93.2q-0.95 18.9 9.5 38.45q10.2 19.1 17.25 39.45q4 11.55 11.2 21.55q-17.3 37.9 -26.1 77.7q-0.9 4.05 0.5 8.05q0.85 2.35 2.15 4.5q24.2 -73.45 52.25 -145.6q5 -12.95 6.5 -26.65q0.85 -8.05 -0.05 -15.95q3.95 59.25 -1.3 118.3q-2.75 30.6 0.4 59.35q6.65 -7.95 4.75 -20.25q3.25 -26.3 4.4 -53.15q2.45 -59.9 -2.9 -117.8q-5.95 4.5 -5.35 13.55<g id="2705" transform="matrix(1, 0, 0, 1, -141.3, 0)">
<path style="fill:#000000;fill-opacity:1" d="M331.95,197.75Q327.3 205.75 327.1 214.95Q326.75 230.75 337.7 242.25Q366 271.85 364.95 312.7Q364.05 346.7 336 362.35Q324.7 368.75 312.7 364.55Q270.2 349.55 285.45 302.95Q291.45 313.8 292.15 326.3Q292.45 331.65 294.55 335.5Q304.85 354.45 328.7 347.3Q344.35 342.7 352.65 329Q357.95 320.25 357.7 309.85Q356.8 272.4 331.85 244.45Q315.4 226.05 321.8 201.9Q324 193.65 331.05 190.15Q359 175.85 354.95 206.25L352.95 199.75L346.95 195L331.95 197.75M382.45,177.5Q383.65 206.35 381.5 236.75Q380.4 252.4 379.75 268.1Q395.25 261.5 412.75 259.05L415.2 192.25Q415.4 185.15 419.2 181Q421.15 219.75 420 259.1Q423.45 264.7 420.1 270.9L419.6 271.6L418.1 298.8Q415.75 333.75 412.85 368.45Q412.7 370.2 410.95 370.45Q405.2 356.95 407.45 340.5Q409.5 325.75 410.25 310.75L412.1 273.35Q395.9 276.75 379.35 278.3Q378.05 316.8 379.3 355.2Q379.7 367.6 371.7 372.45Q370.6 314.1 373.65 254.65Q375.55 217.35 379.8 180.55Q380.15 177.75 382.45 177.5M215.5,197.45Q214 211.15 209 224.1Q180.95 296.25 156.75 369.7Q155.45 367.55 154.6 365.2Q153.2 361.2 154.1 357.15Q162.9 317.35 180.2 279.45Q173 269.45 169 257.9Q161.95 237.55 151.75 218.45Q141.3 198.9 142.25 180Q167.95 224.15 182.45 273.2L215.45 181.5Q216.35 189.4 215.5 197.45M259.45,181.5Q264.8 239.4 262.35 299.3Q261.2 326.15 257.95 352.45Q259.85 364.75 253.2 372.7Q250.05 343.95 252.8 313.35Q258.05 254.3 254.1 195.05Q253.5 186 259.45 181.5" />
</g>
</svg>
