<?xml version="1.0" encoding="utf-8"?>
<svg version="1.1" id="Layer_1"
xmlns="http://www.w3.org/2000/svg"
xmlns:xlink="http://www.w3.org/1999/xlink"


xml:space="preserve">
q-4.25 22.5 -3.15 48q1.05 25.3 0.55 50.2q-0.6 30.35 -5.3 59.75q-2.7 16.95 3.15 29.5q7.75 -33.15 8.25 -69q3.4 -6.25 -0.45 -11.95q-20.8 -1.5 -39.7 3.35q-0.45 -36.1 -2.8 -71.8q33.25 2.95 67.5 0.95q3.4 -6.25 -0.45 -11.95q-34.95 -1.5 -68 3.25q-23.85 41.3 -36.9 87.6q-16.4 -42.25 -32.3 -84.35q-1.7 0.1 -1.4 1.65q3.1 18.4 10.05 36.75q3.8 9.7 8.45 17.45q-7.15 26.55 -15.4 52.75q-6.6 21.05 -4.8 41.7q1.25 0 1.4 -0.4q9.6 -24.85 15.25 -51.3q12.45 -57.8 37.35 -111.95q6.7 -14.6 6.45 -28.3q-0.6 0 -0.75 0.25q3.15 49.95 1.4 100.55q-0.8 22.9 -9.55 43.75q-13.5 32 -47.7 21.7q-2.15 -2.05 -4.5 -3.75q-11 -22.35 -8 -48.75q6.75 -59.15 6.75 -117.7q-4.1 8.7 -4.65 19.7q-1.55 31.6 -5.95 62.85q-6.35 45.1 4.8 88.5q1.3 5.1 5.45 7.85q32.75 21.65 53.4 -11.2q13.45 -21.5 15.75 -47.15q5.35 -60.05 -5.55 -117.8q-1.75 -0.2 -1.65 1.45<g id="2535" transform="matrix(1, 0, 0, 1, -142.55, 0)">
<path style="fill:#000000;fill-opacity:1" d="M341.45,185Q374.5 180.25 409.45 181.75Q413.3 187.45 409.9 193.7L409.45 194.25Q375.2 196.25 341.95 193.3Q344.3 229 344.75 265.1Q363.65 260.25 384.45 261.75Q388.3 267.45 384.9 273.7L384.45 274.2L344.85 275.7L344.7 301.2Q344.2 337.05 336.45 370.2Q330.6 357.65 333.3 340.7Q338 311.3 338.6 280.95Q339.1 256.05 338.05 230.75Q336.95 205.25 341.2 182.75L341.4 185.25L341.45 185M217.2,181Q217.45 194.7 210.75 209.3Q185.85 263.45 173.4 321.25Q167.75 347.7 158.15 372.55Q158 372.95 156.75 372.95Q154.95 352.3 161.55 331.25Q169.8 305.05 176.95 278.5Q172.3 270.75 168.5 261.05L152.9 220.65Q145.95 202.3 142.85 183.9Q142.55 182.35 144.25 182.25L146.45 183.8L147.25 184.5Q163.15 226.6 179.55 268.85Q192.6 222.55 216.45 181.25Q216.6 181 217.2 181M304.45,183.5Q315.35 241.25 310 301.3Q307.7 326.95 294.25 348.45Q273.6 381.3 240.85 359.65Q236.7 356.9 235.4 351.8Q224.25 308.4 230.6 263.3Q235 232.05 236.55 200.45Q237.1 189.45 241.2 180.75Q241.2 239.3 234.45 298.45Q231.45 324.85 242.45 347.2Q244.8 348.9 246.95 350.95Q281.15 361.25 294.65 329.25Q303.4 308.4 304.2 285.5Q305.95 234.9 302.8 184.95Q302.7 183.3 304.45 183.5" />
</g>
</svg>
