<?xml version="1.0" encoding="utf-8"?>
<svg version="1.1" id="Layer_1"
xmlns="http://www.w3.org/2000/svg"
xmlns:xlink="http://www.w3.org/1999/xlink"


xml:space="preserve">
q23.55 -2.55 46.9 -2.15q-1.75 6.8 -1.55 14.4q0.85 32.85 -0.35 65.3q-1.65 44.4 -5.8 88.3q-1 10.5 5.55 13.6q2.45 -4.1 2.6 -9q1.5 -59.35 5.45 -118.35q1.85 -27.7 -2.8 -54.2q21.55 0.55 43 3.6q1.8 -2.2 1.95 -5q-0.2 -1.6 -0.8 -3.05q-0.35 -0.4 -0.8 -0.5q-27.5 -6.2 -56.45 -4.25q-17.85 -0.05 -35.05 4.75q-1.15 0.3 -1.95 1.25q-0.5 1.45 -0.55 3q0.05 1.55 0.85 2.9q-10.8 30.95 -20.1 62.25q-16.2 -41.4 -42.1 -76.8q-1.95 -0.2 -2.4 1.7q-1.1 4.55 0.4 9.05q15.25 17.8 23.2 39.85q7.2 19.9 18.1 35.8q-6.2 21.3 -11.65 42.8q-3.55 14.15 -8.3 27.8q-5.5 15.7 0.15 28.7q8.3 -18.35 12.55 -39.2q11.85 -57.8 33.2 -112.85q7.1 -18.2 6.7 -35.9q-6.3 6.9 -9.75 16.8q2.4 37.25 3.5 74.2q1.6 52.1 -39.8 81q-6.5 1.9 -11.15 -2.2q-22.7 -20.1 -19.75 -52.65q5.3 -59.35 5.9 -117.6q-7.75 40.1 -9.55 83.2q-0.85 20.85 -2.4 41.9q-2.6 35.9 21.2 59.1q22.75 3.4 39.45 -13.55q4.75 -4.75 8.05 -10.35q21.45 -36.3 21.6 -79.3q0.05 -10.65 0.35 -20.95q1.05 -31.3 -5.95 -59.3q-4.35 3.9 -3.95 10.5<g id="2538" transform="matrix(1, 0, 0, 1, -138, 0)">
<path style="fill:#000000;fill-opacity:1" d="M330.85,190.9Q330.05 189.55 330 188L330 186.5Q330.05 184.95 330.55 183.5L330.95 182.75Q331.75 181.8 332.9 181.5Q350.1 176.7 367.95 176.75Q396.9 174.8 424.4 181Q424.85 181.1 425.2 181.5L425.5 182.2Q426.1 183.65 426.3 185.25L426.4 188.25Q426.25 191.05 424.45 193.25Q403 190.2 381.45 189.65Q386.1 216.15 384.25 243.85Q380.3 302.85 378.8 362.2Q378.65 367.1 376.2 371.2Q369.65 368.1 370.65 357.6Q374.8 313.7 376.45 269.3Q377.65 236.85 376.8 204Q376.6 196.4 378.35 189.6Q355 189.2 331.45 191.75L330.85 190.9M213.45,180.5Q213.85 198.2 206.75 216.4Q185.4 271.45 173.55 329.25Q169.3 350.1 161 368.45Q155.35 355.45 160.85 339.75Q165.6 326.1 169.15 311.95Q174.6 290.45 180.8 269.15Q169.9 253.25 162.7 233.35Q154.75 211.3 139.5 193.5Q138 189 139.1 184.45Q139.55 182.55 141.5 182.75Q167.4 218.15 183.6 259.55Q192.9 228.25 203.7 197.3Q207.15 187.4 213.45 180.5M313.95,184Q320.95 212 319.9 243.3Q319.6 253.6 319.55 264.25Q319.4 307.25 297.95 343.55Q294.65 349.15 289.9 353.9Q273.2 370.85 250.45 367.45L247.45 364.7Q223.65 341.5 226.25 305.6Q227.8 284.55 228.65 263.7Q230.45 220.6 238.2 180.5Q237.6 238.75 232.3 298.1Q229.35 330.65 252.05 350.75Q256.7 354.85 263.2 352.95L273.7 349.7Q315.1 320.8 313.5 268.7Q312.4 231.75 310 194.5Q309.6 187.9 313.95 184" />
</g>
</svg>
