<?xml version="1.0" encoding="utf-8"?>
<svg version="1.1" id="Layer_1"
xmlns="http://www.w3.org/2000/svg"
xmlns:xlink="http://www.w3.org/1999/xlink"


xml:space="preserve">
q-1.45 -0.1 -1.5 1.5q-2.1 59.15 -0.75 118.45q-1.7 16.7 -2.55 33.7q-0.9 18.45 3.55 33.55q0.9 -0.6 1 -1.35q4 -33.35 4.15 -67.4q0.05 -18.75 -0.3 -37.4q16.4 0.5 33.65 -2.05q3.1 -5.9 -0.65 -11.15q-18.3 -0.9 -33.8 6q-0.8 -32.8 -2.9 -65.25q37.6 -1.3 73.2 2q0.7 -1.8 0.8 -3.7q-13 -5.65 -27.65 -6.2q-23.35 0.55 -45.75 6.15q-19.2 40.35 -33.25 82.85q-11.85 -37.55 -32.65 -71q0.9 18.35 12.1 38.35q10.1 18.1 16 38q3.3 11 8.1 21.45q-10.6 30.65 -19.3 61.8q-4.05 14.45 -3.35 27.85q10.2 -23.25 16.9 -47.85q6.3 -22.9 13.8 -45.55q12.6 -38.1 28.75 -75.3q2.8 -6.45 1.75 -13.3q3.6 59.15 1.4 118.4q-1.1 30.65 1.75 59.3q4.1 -6.25 4.35 -13.95q1.95 -59.9 -1.5 -119.3q-0.9 -15.05 -0.6 -29.95q0.3 -12.95 -4.1 -22q-3 3.2 -2.65 8.5<g id="2697" transform="matrix(1, 0, 0, 1, -143, 0)">
<path style="fill:#000000;fill-opacity:1" d="M349.2,181.15Q371.6 175.55 394.95 175Q409.6 175.55 422.6 181.2L423.2 181.75L423.85 183.25L424.15 184.75L424.2 186.25Q424.1 188.15 423.4 189.95L422.95 190.75Q387.35 187.45 349.75 188.75Q351.85 221.2 352.65 254Q368.15 247.1 386.45 248Q390.2 253.25 387.1 259.15L386.45 260Q369.2 262.55 352.8 262.05Q353.15 280.7 353.1 299.45Q352.95 333.5 348.95 366.85Q348.85 367.6 347.95 368.2Q343.5 353.1 344.4 334.65Q345.25 317.65 346.95 300.95Q345.6 241.65 347.7 182.5Q347.75 180.9 349.2 181L349.2 181.15M217.95,186.1Q219 192.95 216.2 199.4Q200.05 236.6 187.45 274.7Q179.95 297.35 173.65 320.25Q166.95 344.85 156.75 368.1L156.55 368.2Q155.85 354.8 159.9 340.35Q168.6 309.2 179.2 278.55Q174.4 268.1 171.1 257.1Q165.2 237.2 155.1 219.1Q143.9 199.1 143 180.75L151.05 193.1Q171.85 226.55 183.7 264.1Q197.75 221.6 216.95 181.25L217.95 186.1M278.95,181.75Q283.35 190.8 283.05 203.75Q282.75 218.65 283.65 233.7Q287.1 293.1 285.15 353Q284.9 360.7 280.8 366.95L279.45 367.95Q276.6 339.3 277.7 308.65Q279.9 249.4 276.3 190.25Q275.95 184.95 278.95 181.75" />
</g>
</svg>
