<?xml version="1.0" encoding="utf-8"?>
<svg version="1.1" id="Layer_1"
xmlns="http://www.w3.org/2000/svg"
xmlns:xlink="http://www.w3.org/1999/xlink"


xml:space="preserve">
q0.4 59.5 -3.1 118.55q-0.8 13.15 -2.9 25.95q-2.8 16.9 2.95 29.45q6.05 -16.7 5.55 -36q-0.45 -18.3 1.25 -36.6q5.6 -59.6 -1.05 -118.6q-0.95 -0.25 -1.15 0.75q-1.65 8.35 -1.55 16.5q-9.6 18.8 -21.75 36q-12.35 13.75 -23 28.85q-12.1 17.5 -9.5 36.25q6.3 -2.15 10.05 -9.6q9.3 -18.6 20.1 -36.3q18.85 54.1 39.1 106.9q1.75 -0.3 1.95 -2q2.3 -16 -4.55 -31.85q-7.1 -16.55 -12.25 -33.8q-7.6 -25.3 -19.2 -47.35q13.35 -21.05 28.9 -40.8q13.85 -17.6 13.4 -37.15q-7.55 7.45 -11.55 18.25q-14.5 39.05 -26.05 79.2q-12.65 -52.25 -39.35 -99.95q-1.5 -0.1 -1.2 1.35q5.25 26.7 18 51.85q8.3 16.45 12.6 34.1q2.8 11.6 7.45 21.45q-3.55 12.6 -6.8 25.35q-3.7 14.6 -10 28.1q-7.45 15.9 -0.3 28.25q14.35 -36.15 24.15 -74.55q14.55 -56.9 35.05 -111.15q-0.8 30.05 -2.9 59.9q-1.15 16.65 4.15 29.35q1.25 -0.8 1.4 -2.25q4.35 -34.5 3.7 -69.75q-0.55 -30 1.7 -59.85q2.25 -30.75 -5.05 -59.35q-0.6 -0.2 -0.6 0.25<g id="2708" transform="matrix(1, 0, 0, 1, -141.75, 0)">
<path style="fill:#000000;fill-opacity:1" d="M337.05,180.75Q337.25 179.75 338.2 180Q344.85 239 339.25 298.6Q337.55 316.9 338 335.2Q338.5 354.5 332.45 371.2Q326.7 358.65 329.5 341.75Q331.6 328.95 332.4 315.8Q335.9 256.75 335.5 197.25Q335.4 189.1 337.05 180.75M416.55,180.15L417.2 180Q417.65 199.55 403.8 217.15Q388.25 236.9 374.9 257.95Q386.5 280 394.1 305.3Q399.25 322.55 406.35 339.1Q413.2 354.95 410.9 370.95Q410.7 372.65 408.95 372.95Q388.7 320.15 369.85 266.05Q359.05 283.75 349.75 302.35Q346 309.8 339.7 311.95Q337.1 293.2 349.2 275.7L369.7 246.35Q380.35 231.25 392.7 217.5Q404.85 200.3 414.45 181.5L416.55 180.15M221.85,185.6L222.2 186.25Q201.7 240.5 187.15 297.4Q177.35 335.8 163 371.95Q155.85 359.6 163.3 343.7Q169.6 330.2 173.3 315.6Q176.55 302.85 180.1 290.25Q175.45 280.4 172.65 268.8Q168.35 251.15 160.05 234.7Q147.3 209.55 142.05 182.85Q141.75 181.4 143.25 181.5Q169.95 229.2 182.6 281.45Q194.15 241.3 208.65 202.25Q212.65 191.45 220.2 184L221.85 185.6M281.2,181Q288.5 209.6 286.25 240.35Q284 270.2 284.55 300.2Q285.2 335.45 280.85 369.95Q280.7 371.4 279.45 372.2Q274.15 359.5 275.3 342.85Q277.4 313 278.2 282.95L280.6 181.25Q280.6 180.8 281.2 181" />
</g>
</svg>
