<?xml version="1.0" encoding="utf-8"?>
<svg version="1.1" id="Layer_1"
xmlns="http://www.w3.org/2000/svg"
xmlns:xlink="http://www.w3.org/1999/xlink"


xml:space="preserve">
q-36.3 1.3 -72 6q-2 5.75 0.4 11.25q16.75 0.05 33.65 -0.8q-6.6 40.5 -6.4 83.25q0.1 29.8 -4.25 59.05q-2.45 16.5 2.5 29.95q7.95 -27.95 8.9 -59q1.75 -57.45 0.7 -113.35q3.7 -7.05 -0.55 -13.4q-16.25 2.8 -32.7 4.6q-0.05 -30.7 -1.5 -61q-1.45 -0.1 -1.55 1.5q-3.65 51.75 -5 104.2q-0.3 11.3 -2.15 22.3q-2.75 16.5 2.45 29.95q2.8 -1.5 3.3 -4.9q2.6 -17.05 3.3 -34.5q0.95 -23.4 1.15 -46.55q16.75 2.4 32.5 -1.9q-0.7 47.45 -0.5 94.1q1.25 0 1.35 -0.3q4.8 -17.8 4.95 -37.2q0.75 -3.2 0 -6.1q0.05 -46.25 -0.95 -91.4q-4.65 7.05 -4.55 18q0.3 29.75 -0.3 59.25q-3.45 3.3 -5.4 8.55q-13.65 36.7 -25 74.45q-14.3 -44.3 -38.3 -85.25q-3.2 0.95 -1.9 4.85q11.85 35.2 27.9 69.85q4.65 10.1 10.1 18.1q-4.6 15.7 -8.8 31.55q-2.8 10.55 -7.3 20.3q-10.15 22.1 -4.5 42.55q12.5 -34.05 22.75 -69.85q-17.3 8.45 -26.3 25.45q-18.9 35.85 -20.35 76.7q-1.35 38.5 20.4 68.75q4.15 5.75 10.95 5.35q31.05 -1.9 49.35 -29.25q12.85 -19.15 15.65 -41.85q7.15 -58 -23.2 -106.65q-3.85 -3.8 -9.2 -3.8q-8.7 0.85 -16 6.25q2.95 0.4 6.5 1.35q5.75 1.55 9.3 6.1q18.4 23.05 22.25 52.85q7.25 56.1 -38.1 87.4q-5.5 3.75 -11.75 4.05q-23.55 1.2 -29.6 -23.85q-5.5 -22.7 -4.25 -46.05q2.55 -47.15 37.9 -77.1q1 -0.25 1.8 -0.8<g id="2554" transform="matrix(1, 0, 0, 1, -137.3, 0)">
<path style="fill:#000000;fill-opacity:1" d="M390,195.4L389.45 196L352.55 199.1Q353.6 255 351.85 312.45Q350.9 343.5 342.95 371.45Q338 358 340.45 341.5Q344.8 312.25 344.7 282.45Q344.5 239.7 351.1 199.2Q334.2 200.05 317.45 200Q315.05 194.5 317.05 188.75L317.45 188Q353.15 183.3 389.45 182Q393.7 188.35 390 195.4M417.6,258Q418.2 228.5 417.9 198.75Q417.8 187.8 422.45 180.75Q423.45 225.9 423.4 272.15Q424.15 275.05 423.4 278.25L423.25 299.2L423 338.95Q422.85 358.35 418.05 376.15Q417.95 376.45 416.7 376.45Q416.5 329.8 417.2 282.35Q401.45 286.65 384.7 284.25Q384.5 307.4 383.55 330.8Q382.85 348.25 380.25 365.3Q379.75 368.7 376.95 370.2Q371.75 356.75 374.5 340.25Q376.35 329.25 376.65 317.95Q378 265.5 381.65 213.75Q381.75 212.15 383.2 212.25Q384.65 242.55 384.7 273.25Q401.15 271.45 417.4 268.65L417.6 258M210.4,185.05L210.7 185.75L178.75 298.6Q168.5 334.4 156 368.45Q150.35 348 160.5 325.9Q165 316.15 167.8 305.6Q172 289.75 176.6 274.05Q171.15 266.05 166.5 255.95Q150.45 221.3 138.6 186.1Q137.3 182.2 140.5 181.25Q164.5 222.2 178.8 266.5Q190.15 228.75 203.8 192.05Q205.75 186.8 209.2 183.5L210.4 185.05M279.95,178.5Q285.3 178.5 289.15 182.3L290.45 183.25Q320.8 231.9 313.65 289.9Q310.85 312.6 298 331.75Q279.7 359.1 248.65 361Q241.85 361.4 237.7 355.65Q215.95 325.4 217.3 286.9Q218.75 246.05 237.65 210.2Q246.65 193.2 263.95 184.75Q271.25 179.35 279.95 178.5M263.75,196.45Q262.95 197 261.95 197.25Q226.6 227.2 224.05 274.35Q222.8 297.7 228.3 320.4Q234.35 345.45 257.9 344.25Q264.15 343.95 269.65 340.2Q315 308.9 307.75 252.8Q303.9 223 285.5 199.95Q281.95 195.4 276.2 193.85Q272.65 192.9 269.7 192.5L263.75 196.45" />
</g>
</svg>
