<?xml version="1.0" encoding="utf-8"?>
<svg version="1.1" id="Layer_1"
xmlns="http://www.w3.org/2000/svg"
xmlns:xlink="http://www.w3.org/1999/xlink"


xml:space="preserve">
q-0.45 1.7 -0.55 3.6q-3.5 58.8 -10.15 117.2q-6.75 59 -16.65 117.45q-5 29.5 -5.5 58.65q1.1 1.85 3.25 1.75q8.9 -33.75 13.15 -70.1q5.75 -3.4 10.9 -7.4q-0.45 8.15 2.8 16.4q21.8 54.85 37.4 111.7q4.5 16.4 12.9 27q4.95 -10.9 -1.1 -20.95q-0.5 -4.15 -1.95 -8.15q-4.35 -11.8 -7.85 -23.75q-15.75 -54.15 -37.75 -105.65q10.8 -9.7 18.5 -22.5q32.85 -54.55 10.1 -113.5q-9.25 -23.8 -37.05 -21.65q-2.65 1.6 -2.4 4.95q0.2 1.8 1.55 3q9.05 20.3 5.35 42.6q-3.55 21.7 -15 40.25q-11 17.85 -27.3 31q-2.25 1.85 -4.75 2.25q21.5 4.6 30.45 24.65q-21.8 -0.65 -32.05 19.35q-7.4 14.55 -10.85 30.55q-4.1 19 -6.65 38.45q-2.45 19 -0.15 38.1q2.25 19.05 8.25 37.4q7.6 23.45 31.9 24.15q23.95 0.7 34.4 -20.75q4.25 -8.65 -1.35 -16.75q-38.8 42.3 -59.65 -7.6q-5.4 -12.85 -5.2 -27.15q3.5 -5.9 2.05 -12.9q-0.55 -2.65 -2.8 -4.35q-3.45 -52.25 41.9 -66.95q13.25 -4.2 17.8 10.05q5.7 -25.55 -19.5 -26.25q-1.9 4.4 -1.6 9.4q-9.85 7.8 -15.65 19.4q-27.45 54.55 -14 115.05q6.3 27.5 32.35 36.75q13.15 4.65 24.4 -2.75q21.8 -14.45 31.65 -39.3q22.55 -56.8 10.75 -116.85q-10.35 -52.8 -64.65 -60.65q-6.95 2.45 -9.9 9.35q9.2 13.65 11.5 29.75q8.75 60.9 -24.4 113.8q-5.1 8.15 -14.1 11.8q-33.05 13.3 -46.05 -18q-23.7 -56.95 -8.5 -116q9.3 -36.15 43.35 -46.6q24.6 5.05 38.2 25.25q-8.25 13.4 -12.7 30.85q-13.55 53.3 -31.95 105.55q-3.1 -11.05 -8.6 -21.8q-26.9 -52.85 -41.45 -109.85q-2 -2.4 -3.6 -5.35q-1.8 -0.25 -3 1q-1.3 3.25 -0.4 6.6q13.5 51.9 35.95 100.9q10.2 22.3 15.9 44.9q-18.4 52.6 -27.65 107.25q-2.4 14.2 -6.7 27.8q-5.35 16.85 2.4 28.75q7.05 -14.15 8.8 -30.85q6.3 -58.85 26.5 -115.2q1.55 -0.25 3.1 -1.3q0.75 -1.45 0.65 -3q16.8 -48.05 31.35 -96.75q8.65 -28.9 9.9 -57.3<g id="2562" transform="matrix(1, 0, 0, 1, -69.2, 0)">
<path style="fill:#000000;fill-opacity:1" d="M328.45,110.25Q327.1 109.05 326.9 107.25L326.75 105Q326.5 101.65 329.15 100.05L330.45 99.75Q358.25 97.6 367.5 121.4Q390.25 180.35 357.4 234.9Q349.7 247.7 338.9 257.4Q360.9 308.9 376.65 363.05Q380.15 375 384.5 386.8Q385.95 390.8 386.45 394.95Q392.5 405 387.55 415.9L386.95 416.7Q378.55 406.1 374.05 389.7Q358.45 332.85 336.65 278Q333.4 269.75 333.85 261.6Q328.7 265.6 322.95 269L320.3 268.85L312.1 338.85Q307.85 375.2 298.95 408.95Q296.8 409.05 295.7 407.2Q296.2 378.05 301.2 348.55Q311.1 290.1 317.85 231.1Q324.5 172.7 328 113.9Q328.1 112 328.55 110.3L328.45 110.25M334.7,111.4L323.45 252.15Q325.95 251.75 328.2 249.9Q344.5 236.75 355.5 218.9Q366.95 200.35 370.5 178.65Q374.2 156.35 365.15 136.05Q356.2 116 334.7 111.4M452.95,182Q448.4 167.75 435.15 171.95Q389.8 186.65 393.25 238.9L435.45 239.75Q437.7 241.45 438.25 244.1Q439.7 251.1 436.2 257L392.35 252.75L392.1 271.5Q391.9 285.8 397.3 298.65Q418.15 348.55 456.95 306.25Q462.55 314.35 458.3 323Q447.85 344.45 423.9 343.75Q399.6 343.05 392 319.6Q386 301.25 383.75 282.2Q381.45 263.1 383.9 244.1Q386.45 224.65 390.55 205.65Q394 189.65 401.4 175.1Q411.65 155.1 433.45 155.75Q458.65 156.45 452.95 182M216.95,133.25Q271.25 141.1 281.6 193.9Q293.4 253.95 270.85 310.75Q261 335.6 239.2 350.05Q227.95 357.45 214.8 352.8Q188.75 343.55 182.45 316.05L175.8 286.45Q162.35 225.95 189.8 171.4Q195.6 159.8 205.45 152Q205.15 147 207.05 142.6Q210 135.7 216.95 133.25M227.2,153Q193.15 163.45 183.85 199.6Q168.65 258.65 192.35 315.6Q205.35 346.9 238.4 333.6Q247.4 329.95 252.5 321.8Q285.65 268.9 276.9 208Q274.6 191.9 265.4 178.25Q251.8 158.05 227.2 153M162.3,152.3Q147.75 201 130.95 249.05L131.35 254.25Q131.45 255.8 130.7 257.25Q129.15 258.3 127.6 258.55L125.3 264.9Q105.1 321.25 98.8 380.1Q97.05 396.8 90 410.95Q82.25 399.05 87.6 382.2Q91.9 368.6 94.3 354.4Q103.55 299.75 121.95 247.15Q116.25 224.55 106.05 202.25Q83.6 153.25 70.1 101.35Q69.2 98 70.5 94.75Q71.7 93.5 73.5 93.75Q75.1 96.7 77.1 99.1L77.5 99.75Q92.05 156.75 118.95 209.6Q124.45 220.35 127.55 231.4Q145.95 179.15 159.5 125.85Q163.95 108.4 172.2 95Q170.95 123.4 162.3 152.3" />
</g>
</svg>
