<?xml version="1.0" encoding="utf-8"?>
<svg version="1.1" id="Layer_1"
xmlns="http://www.w3.org/2000/svg"
xmlns:xlink="http://www.w3.org/1999/xlink"


xml:space="preserve">
q-3.6 9.35 -3.8 21.25q-1.05 59.3 -4.5 118.5q-0.7 11.25 -2.25 22.25q-2.45 17.4 4.05 29.2q5.25 -17.1 4.65 -36.05q-0.6 -18.2 1 -36.55q1.2 -13.8 1.9 -27.55q19.2 1.15 39.45 -0.6q3.2 -6.3 -0.85 -11.9q-19.7 -1 -38.75 2.75q1.1 -31.7 -0.45 -63.3q38 4.65 76.2 0.8q2.5 -2.9 2.45 -6.75q-0.05 -3.25 -1.7 -6q-0.35 -0.4 -0.8 -0.45q-33.95 3.1 -68.3 3.25q-1.1 4.45 -2.75 8.6q-13.7 34.85 -24.25 70.55q-20.75 -46.25 -37.95 -93.9q-3.9 1.95 -2.35 7.35q14.5 50.6 37.45 96.55q-4.6 16.15 -8.5 32.45q-3.4 14.15 -9.3 27.65q-7.15 16.35 -0.05 27.45q5.45 -9.05 7.65 -20.2q6 -30.05 14.3 -59.25q3.8 -6.05 0.9 -12.8q6.7 -22.5 14.75 -44.5q3.8 -10.45 8.6 -20.3q8.65 -17.9 7.45 -35.35q-4.55 5.35 -7.75 12.25q-4.65 -1.85 -9.6 -2.6q-37.05 22.85 -47.5 68.1q-5.45 23.6 -5.6 48.1q-0.2 45.1 32.6 73.5q20.2 5.35 36.9 -5.55q8.7 -5.65 14.9 -13.85q31.5 -41.75 21.75 -94.3q-8.15 -44.05 -39.55 -73.5q36.15 33.5 39.4 83.3q3.45 52.95 -43.15 76.4q-22.4 7.15 -34.55 -10.05q-14.2 -20.05 -16 -45.35q-2 -28.7 7.05 -56.15q11.15 -33.9 41.25 -49.65q1.75 0.5 2.9 1.6<g id="2553" transform="matrix(1, 0, 0, 1, -137.6, 0)">
<path style="fill:#000000;fill-opacity:1" d="M342.65,183.5Q377 183.35 410.95 180.25L419.4 181.55Q419.85 181.6 420.2 182Q421.85 184.75 421.9 188Q421.95 191.85 419.45 194.75Q381.25 198.6 343.25 193.95Q344.8 225.55 343.7 257.25Q362.75 253.5 382.45 254.5Q386.5 260.1 383.3 266.4L382.7 267.2Q362.45 268.95 343.25 267.8Q342.55 281.55 341.35 295.35Q339.75 313.7 340.35 331.9Q340.95 350.85 335.7 367.95Q329.2 356.15 331.65 338.75Q333.2 327.75 333.9 316.5Q337.35 257.3 338.4 198Q338.6 186.1 342.2 176.75L342.65 183.5M214.2,181Q215.4 198.45 206.75 216.35Q201.95 226.2 198.15 236.65Q190.1 258.65 183.4 281.15Q186.3 287.9 182.5 293.95L180.7 290.5Q172.4 319.7 166.4 349.75Q164.2 360.9 158.75 369.95Q151.65 358.85 158.8 342.5Q164.7 329 168.1 314.85Q172 298.55 176.6 282.4Q153.65 236.45 139.15 185.85Q137.6 180.45 141.5 178.5Q158.7 226.15 179.45 272.4Q190 236.7 203.7 201.85Q205.35 197.7 206.45 193.25Q209.65 186.35 214.2 181M278.95,177.75L280.25 177.35L281.45 177.25Q312.85 206.7 321 250.75Q330.75 303.3 299.25 345.05Q293.05 353.25 284.35 358.9Q267.65 369.8 247.45 364.45Q214.65 336.05 214.85 290.95Q215 266.45 220.45 242.85Q230.9 197.6 267.95 174.75Q272.9 175.5 277.55 177.35L278.95 177.75M272.45,189.75L272.85 188.85Q271.7 187.75 269.95 187.25Q239.85 203 228.7 236.9Q219.65 264.35 221.65 293.05Q223.45 318.35 237.65 338.4Q249.8 355.6 272.2 348.45Q318.8 325 315.35 272.05Q312.1 222.25 275.95 188.75L274.45 189.65L272.7 190.1L272.45 189.75" />
</g>
</svg>
