<?xml version="1.0" encoding="utf-8"?>
<svg version="1.1" id="Layer_1"
xmlns="http://www.w3.org/2000/svg"
xmlns:xlink="http://www.w3.org/1999/xlink"


xml:space="preserve">
q-7.55 21 -16.8 41.15q-18.65 40.65 -39.5 80.3q2.05 -40.7 3.75 -81.55q1.25 -30.55 -4.3 -59.3q-1.4 -0.25 -1.45 1q-0.6 58.8 -3.1 117.75q-2.55 59.4 -5.6 118.55q-1.55 30.2 -5.55 59.85q-2.3 17.35 4.2 29.8q5.9 -14.05 6.1 -30.75q0.65 -59.3 3.95 -118.5q3.95 -2.6 5.4 -7.15q3.75 -12 9.5 -22.85q5.65 36.85 10.2 73.75q7.35 59.9 28.55 116.05q1.05 1.8 3.25 1.75q4 -15.55 1 -33.5q-1.15 3.2 -0.95 6.65q-7.15 -17.2 -12.3 -35.9q-5.05 -18.25 -7.7 -37q-7.6 -53.5 -17.35 -106q24.9 -47.65 46.3 -96.6q7.75 -17.75 5.8 -34.45q-3.3 -0.05 -4.4 3.05q-22.2 -0.45 -29.7 22.45q-6.55 19.9 -9.95 40.7q-3.5 21.15 -2.35 42.6q1.1 21.05 1.55 41.9q0.5 22.6 17.45 37.55q16.4 -2.75 25.5 -16.75q3.65 -5.65 4.9 -12.2q0.9 -4.65 -1.65 -8.4q-1.5 -2.1 -3.75 -3.65q-6 14.3 -18.5 23.25q-10.4 -18.85 -12.55 -41.2q-1.55 -15.65 -1.05 -31.45q15.6 1.25 30.15 -3.35q2.95 -4.85 1.95 -10.4q-0.55 -3.15 -2.4 -5.7q-3.1 -32.7 17.4 -57.35q3.75 -4.55 8.25 -8.4q5.45 -5 2 -13q-2.05 -4.7 -5.2 -8.95q5.4 -74.95 4.25 -150q-6.55 49.45 -9 99.4q-1.65 33.15 0.25 66.35q5.4 -6.75 1.3 -14.35q-20.8 11.6 -29.45 34.6q-8 21.2 -14.2 43q-16.4 57.3 -21.25 116.7q-2.45 29.95 0.25 59.25q3.75 40.6 33.05 67.75q6.5 6.05 15.2 3.35q45.15 -14.25 66.3 -57.3q26.9 -54.8 26.35 -116.15q-0.3 -29.95 -2.15 -59.35q-3.2 -50.45 -33.55 -89.15q-11.45 -9.1 -27.4 -5.9q-5 1.7 -10.05 4.55q-0.15 1.15 0.25 2.25q3.25 8.65 8.65 16.5q16.25 23.8 20.65 53q8.9 59.2 -1.35 118.05q-10.7 61.6 -60.35 98.65q-17 12.7 -33.65 2.75q-4.85 -2.9 -7.75 -7.6q-23.9 -38.6 -21.55 -85.35q3.05 -59.4 18.3 -116.65q5.85 -21.9 12.75 -43.6q12.45 -39.55 52.55 -41.25q-5.55 21.3 -13.35 42.25q-13.9 37.4 -25.2 75.65q-2.2 -10 -6.85 -19.95q-25.3 -53.75 -48.25 -108.25q-8 7.95 -0.15 20.55q6.35 10.15 11.2 21.25q22.75 52.15 38.65 105.25q-2.9 10.55 -5.65 21.15q-7.45 29.05 -12.85 58.4q-7.9 42.9 -22.95 83.9q-6.05 16.45 1.75 28.2q12.9 -37.2 20.45 -76.35q11.2 -57.85 28.65 -114.45q17.6 -57.05 35.75 -113.3q4.85 -15 2.85 -28.85q-3.1 1 -4.05 4.55<g id="2564" transform="matrix(1, 0, 0, 1, -53.5, 0)">
<path style="fill:#000000;fill-opacity:1" d="M428.2,85Q430.15 101.7 422.4 119.45Q401 168.4 376.1 216.05Q385.85 268.55 393.45 322.05Q396.1 340.8 401.15 359.05Q406.3 377.75 413.45 394.95Q413.25 391.5 414.4 388.3L414.95 387.45Q417.95 405.4 413.95 420.95Q411.75 421 410.7 419.2Q389.5 363.05 382.15 303.15Q377.6 266.25 371.95 229.4L371.45 224.9L370.85 226Q365.1 236.85 361.35 248.85Q359.9 253.4 355.95 256L355.55 255.45L355 265.45Q351.7 324.65 351.05 383.95Q350.85 400.65 344.95 414.7Q338.45 402.25 340.75 384.9Q344.75 355.25 346.3 325.05Q349.35 265.9 351.9 206.5Q354.4 147.55 355 88.75Q355.05 87.5 356.45 87.75Q362 116.5 360.75 147.05Q359.05 187.9 357 228.6L367.5 209.5Q388.35 169.85 407 129.2Q416.25 109.05 423.8 88.05Q424.9 84.95 428.2 85M466.85,238.9Q470 243.15 472.05 247.85Q475.5 255.85 470.05 260.85L465.7 252.9L461.2 249.5L451.95 249.5Q447.45 253.35 443.7 257.9Q423.2 282.55 426.3 315.25L455.45 310.75Q457.3 313.3 457.85 316.45Q458.85 322 455.9 326.85Q441.35 331.45 425.75 330.2Q425.25 346 426.8 361.65Q428.95 384 439.35 402.85L444.95 402.7Q457.45 393.75 463.45 379.45Q465.7 381 467.2 383.1Q469.75 386.85 468.85 391.5Q467.6 398.05 463.95 403.7Q454.85 417.7 438.45 420.45Q421.5 405.5 421 382.9Q420.55 362.05 419.45 341Q418.3 319.55 421.8 298.4Q425.2 277.6 431.75 257.7Q439.25 234.8 461.45 235.25L466.85 238.9M328.75,244.9Q332.85 252.5 327.45 259.25L289.45 256Q287.55 222.8 289.2 189.65Q291.65 139.7 298.2 90.25Q299.35 165.3 293.95 240.25L327.45 242.75L328.75 244.9M213.95,82Q229.9 78.8 241.35 87.9L241.7 88.5L242.25 88.85L242.95 89.05L244.45 89.25Q274.8 127.95 278 178.4Q279.85 207.8 280.15 237.75Q280.7 299.1 253.8 353.9Q232.65 396.95 187.5 411.2Q178.8 413.9 172.3 407.85Q143 380.7 139.25 340.1Q136.55 310.8 139 280.85Q143.85 221.45 160.25 164.15Q166.45 142.35 174.45 121.15Q183.1 98.15 203.9 86.55Q208.95 83.7 213.95 82M238.5,97.7L236.45 96.25L233.45 96.15L227.95 95.75Q187.85 97.45 175.4 137Q168.5 158.7 162.65 180.6Q147.4 237.85 144.35 297.25Q142 344 165.9 382.6Q168.8 387.3 173.65 390.2Q190.3 400.15 207.3 387.45Q256.95 350.4 267.65 288.8Q277.9 229.95 269 170.75Q264.6 141.55 248.35 117.75Q242.95 109.9 239.7 101.25Q239.3 100.15 239.45 99L239.3 98.4L238.5 97.7M159.2,82.25Q161.2 96.1 156.35 111.1Q138.2 167.35 120.6 224.4Q103.15 281 91.95 338.85Q84.4 378 71.5 415.2Q63.7 403.45 69.75 387Q84.8 346 92.7 303.1Q98.1 273.75 105.55 244.7Q108.3 234.1 111.2 223.55Q95.3 170.45 72.55 118.3Q67.7 107.2 61.35 97.05Q53.5 84.45 61.5 76.5Q84.45 131 109.75 184.75Q114.4 194.7 116.6 204.7Q127.9 166.45 141.8 129.05Q149.6 108.1 155.15 86.8Q156.1 83.25 159.2 82.25" />
</g>
</svg>
