<?xml version="1.0" encoding="utf-8"?>
<svg version="1.1" id="Layer_1"
xmlns="http://www.w3.org/2000/svg"
xmlns:xlink="http://www.w3.org/1999/xlink"


xml:space="preserve">
q-18.1 13.6 -31.55 32.4q-36.35 50.55 -22.6 112.25q8.75 39.45 47.45 45.6q3.6 0.6 6.75 -0.45q35.4 -12 55.95 -42.5q35.35 -52.6 17.05 -112.85q-8.35 -27.6 -33.55 -37.2q11.25 14.6 12.25 32.95q3.45 64.2 -48.6 102.5q-22 16.1 -46.7 3.9q-6.35 -3.15 -10.05 -8.95q-31.7 -49.4 -1.8 -101.2q15.65 -26.45 43.6 -32.15q17.25 0.9 33.25 6.5q-6 3.85 -10.15 10.65q-12.45 20.25 -24.2 41.2q-10.65 19 -20.6 38.3q-30.95 -42.9 -56 -89.9q-5.55 3.8 -2.1 11.05q22.45 47.15 53.6 87.65q-14.25 28.15 -27 57q-12.15 16.9 -4.55 31.3q10.9 -18.8 20.4 -39.65q11.8 -25.9 24.95 -51.1q4.8 -5.35 1.65 -11.35q12.15 -22.95 25.4 -45.3q15.15 -25.5 24.95 -52.05<g id="2548" transform="matrix(1, 0, 0, 1, -152.95, 0)">
<path style="fill:#000000;fill-opacity:1" d="M385.95,184.5Q411.15 194.1 419.5 221.7Q437.8 281.95 402.45 334.55Q381.9 365.05 346.5 377.05Q343.35 378.1 339.75 377.5Q301.05 371.35 292.3 331.9Q278.55 270.2 314.9 219.65Q328.35 200.85 346.45 187.25L385.95 184.5M395.2,205Q379.2 199.4 361.95 198.5Q334 204.2 318.35 230.65L309.65 245.55Q279.75 297.35 311.45 346.75Q315.15 352.55 321.5 355.7Q346.2 367.9 368.2 351.8Q420.25 313.5 416.8 249.3Q415.8 230.95 404.55 216.35L395.2 205M270.4,181.55L270.95 182.25Q261.15 208.8 246 234.3Q232.75 256.65 220.6 279.6Q223.75 285.6 218.95 290.95L216.35 287.7Q203.2 312.9 191.4 338.8Q181.9 359.65 171 378.45Q163.4 364.05 175.55 347.15L183 336.7Q195.75 307.85 210 279.7Q178.85 239.2 156.4 192.05Q152.95 184.8 158.5 181Q183.55 228 214.5 270.9Q224.45 251.6 235.1 232.6Q246.85 211.65 259.3 191.4Q263.45 184.6 269.45 180.75L270.4 181.55" />
</g>
</svg>
