<?xml version="1.0" encoding="utf-8"?>
<svg version="1.1" id="Layer_1"
xmlns="http://www.w3.org/2000/svg"
xmlns:xlink="http://www.w3.org/1999/xlink"


xml:space="preserve">
q-2.5 5.45 0.05 11.1q16.6 0.4 33 -0.3q-2.1 5.8 -2 13.05q0.7 59.7 -1 119.2q-0.25 7.5 -1.65 14.75q-2.75 13.6 3.9 21.75q4.65 -28.1 4.85 -57.75q0.4 -56.3 -0.05 -111.15q2.8 -5.5 0.45 -11.25q0.2 34.75 0.05 69.55q-15.65 -0.4 -30.7 4.35q-6.15 33.1 -5.25 69.2q0.7 30.05 -1.15 59.95q-0.85 13.55 4.9 21.55q3.45 -15.4 3.3 -32.25q19.8 -2.15 39.3 -2.3q-0.35 31.15 2.05 60q1.15 -0.5 1.2 -1.1q4.55 -34.2 4.55 -69.65q-0.05 -60.25 -4 -119.2q-3.5 4.15 -3.45 10.75q2.45 2.3 4.5 5.25q19.65 41.05 35.95 82.45q-6.2 23.85 -12.8 47.55q-6.1 21.9 -2.1 42.45q1.1 -0.35 1.25 -0.95q12.1 -53.25 26.05 -106.05q7.65 -28.9 18 -56.55q5.95 -15.9 2.4 -28.9q-18.2 44.9 -30.55 93.5q-14 -49 -40.7 -93.55q-1.1 -0.2 -1.7 0.5q-4.1 5.05 -1.05 11.5q-23.35 -9.9 -36.6 12q-11.15 18.45 -9.35 40.35q1.8 22.15 15.95 39.15q39.9 8.2 50.7 -29.2q7.6 -26.25 -5.55 -49.85q-4.7 -8.45 -11.65 -15.2q-11.7 26.8 -43.45 17.75q-8 -6.75 -9.1 -17.15q-3.25 -31.1 20.1 -47.85q31.35 -0.95 35.05 28.6q1.25 9.9 -2.6 18.65<g id="2572" transform="matrix(1, 0, 0, 1, -137.7, 0)">
<path style="fill:#000000;fill-opacity:1" d="M385.45,184.6L386.2 185L386.65 185.75Q389 191.5 386.2 197L353.5 199.8Q353.95 254.65 353.55 310.95Q353.35 340.6 348.7 368.7Q342.05 360.55 344.8 346.95Q346.2 339.7 346.45 332.2Q348.15 272.7 347.45 213Q347.35 205.75 349.45 199.95Q333.05 200.65 316.45 200.25L315.75 199.35Q313.2 193.7 315.7 188.25L371.95 184L385.45 184.6M423.2,184.75Q427.15 243.7 427.2 303.95Q427.2 339.4 422.65 373.6Q422.6 374.2 421.45 374.7Q419.05 345.85 419.4 314.7L419.75 277.45Q400.25 277.6 380.45 279.75L381 333.95Q381.15 350.8 377.7 366.2Q371.95 358.2 372.8 344.65Q374.65 314.75 373.95 284.7Q373.05 248.6 379.2 215.5L380.25 268.85Q395.3 264.1 410.95 264.5L419.45 264.75L419.8 265.05Q419.95 230.25 419.75 195.5Q419.7 188.9 423.2 184.75M141.8,182.5Q142.4 181.8 143.5 182Q170.2 226.55 184.2 275.55L184.4 274.75Q196.75 226.15 214.95 181.25Q218.5 194.25 212.55 210.15Q202.2 237.8 194.55 266.7Q180.6 319.5 168.5 372.75Q168.35 373.35 167.25 373.7Q163.25 353.15 169.35 331.25Q175.95 307.55 182.15 283.7Q165.85 242.3 146.2 201.25L145.25 199.25Q143.2 196.3 140.75 194Q137.7 187.55 141.8 182.5M302.6,286.15Q315.75 309.75 308.15 336Q297.35 373.4 257.45 365.2Q243.3 348.2 241.5 326.05Q239.7 304.15 250.85 285.7Q264.1 263.8 287.45 273.7L290.95 270.95Q297.9 277.7 302.6 286.15M303.25,312.8Q299.55 283.25 268.2 284.2Q244.85 300.95 248.1 332.05Q249.2 342.45 257.2 349.2Q288.95 358.25 300.65 331.45Q304.5 322.7 303.25 312.8" />
</g>
</svg>
