<?xml version="1.0" encoding="utf-8"?>
<svg version="1.1" id="Layer_1"
xmlns="http://www.w3.org/2000/svg"
xmlns:xlink="http://www.w3.org/1999/xlink"


xml:space="preserve">
q-5.15 7.15 -6.5 17.8q-7.4 58.6 -15.2 117.15q-1.95 14.7 -6.85 28.65q-5.85 16.6 1.55 29.1q8.8 -22.15 11.75 -46.35q5.4 -43.9 12.2 -87.6q2 21.1 7.85 42.35q3.85 14.1 5.15 28.5q1.25 13.8 9.1 20.1q11.35 -39.65 21.95 -80.05q2.55 -9.8 4.25 -19.5q0.5 3.95 1.3 8q11.4 57.65 17.25 116.2q1.6 16.25 8 28.35q4.8 -8.15 3.25 -18.15q-4.3 -27.25 -9.1 -54.35q-9.9 -55.85 -17.5 -111.55q-0.5 0.1 -0.55 0.35q-11.65 47.1 -24.85 95.15q-1.95 7.05 -4.5 13.7q-1.25 3.35 -2 6.55q-12.45 -50.55 -20.45 -101.25q-14.25 48.4 -26.75 97.3q-10.7 -53.8 -34.2 -103q-3.1 0.6 -2.7 4.45q1.45 13 6.55 25.35q6.5 15.65 11.25 32.1q7.5 26 16.95 49.5q-3.6 14.5 -8.55 28.55q-8 22.75 -1.65 42.95q5.8 -15.9 9.35 -34.15q11.25 -58.1 29.6 -114.4q7.15 -21.9 6.25 -43.15q-2.65 1.55 -3.75 5.2q-30.4 24.6 -30.75 66.45q-0.1 11.9 6.2 21.75q17.85 27.8 48.55 11q31 -34.25 13.5 -79.3q-8.95 -23.05 -37.5 -19.9q3.1 5.7 5 11.9q5.55 18.2 -3.15 34.75q-13.7 26.2 -42.5 16.35q-6.85 -2.35 -8.55 -9.1q-9.55 -37.75 19.95 -63.4q6.35 -0.9 1.75 0.5q0.95 1.1 5.5 -0.5q0.5 0.4 2.05 0.75q3.95 0.95 6.95 4.25q6.75 1.65 13 4.5<g id="2569" transform="matrix(1, 0, 0, 1, -139.4, 0)">
<path style="fill:#000000;fill-opacity:1" d="M342.85,193.5Q350.85 244.2 363.3 294.75Q364.05 291.55 365.3 288.2Q367.85 281.55 369.8 274.5Q383 226.45 394.65 179.35Q394.7 179.1 395.2 179L395.1 185.9Q402.7 241.6 412.6 297.45Q417.4 324.55 421.7 351.8Q423.25 361.8 418.45 369.95Q412.05 357.85 410.45 341.6Q404.6 283.05 393.2 225.4Q392.4 221.35 391.9 217.4Q390.2 227.1 387.65 236.9Q377.05 277.3 365.7 316.95L364.3 314.2L363.2 317.2Q355.35 310.9 354.1 297.1Q352.8 282.7 348.95 268.6Q343.1 247.35 341.1 226.25L339.4 239Q332.6 282.7 327.2 326.6Q324.25 350.8 315.45 372.95Q308.05 360.45 313.9 343.85Q318.8 329.9 320.75 315.2Q328.55 256.65 335.95 198.05Q337.3 187.4 342.45 180.25L342.85 193.5M207.2,181.25Q208.1 202.5 200.95 224.4Q182.6 280.7 171.35 338.8Q167.8 357.05 162 372.95Q155.65 352.75 163.65 330Q168.6 315.95 172.2 301.45L174.55 292.15Q165.1 268.65 157.6 242.65Q152.85 226.2 146.35 210.55Q141.25 198.2 139.8 185.2Q139.4 181.35 142.5 180.75Q166 229.95 176.7 283.75Q189.2 234.85 203.45 186.45Q204.55 182.8 207.2 181.25M281.45,285.15Q298.95 330.2 267.95 364.45Q237.25 381.25 219.4 353.45Q213.1 343.6 213.2 331.7Q213.55 289.85 243.95 265.25Q272.5 262.1 281.45 285.15M260.45,283.95Q257.45 280.65 253.5 279.7Q251.95 279.35 251.45 278.95Q246.9 280.55 245.95 279.45Q250.55 278.05 244.2 278.95Q214.7 304.6 224.25 342.35Q225.95 349.1 232.8 351.45Q261.6 361.3 275.3 335.1Q284 318.55 278.45 300.35Q276.55 294.15 273.45 288.45Q267.2 285.6 260.45 283.95" />
</g>
</svg>
