<?xml version="1.0" encoding="utf-8"?>
<svg version="1.1" id="Layer_1"
xmlns="http://www.w3.org/2000/svg"
xmlns:xlink="http://www.w3.org/1999/xlink"


xml:space="preserve">
q-7.6 0.2 -14.65 1.85q-0.6 2.15 -0.5 4.35q-2.3 8.7 -2.1 18.9q1.2 59.7 -0.2 119.25q-1.4 59.4 -3.45 118.45q-0.35 0.2 -0.15 -1.55q-3 16.7 3.1 33.25q1 -0.35 1.1 -0.9q0.7 0.9 1.75 1.5q13.45 3.6 26.3 -0.05q62.2 -17.6 77.2 -81q13.85 -58.45 1.9 -117.4q-6.2 -30.45 -20.95 -57.9q-18.95 -35.45 -58.95 -39.35q24.85 -1.7 46.2 10.15q21.75 12.05 32.95 34.5q27.8 55.55 19.9 118.6q-5.8 46.15 -36 80.8q-29.5 22.05 -62.75 18.75q-0.35 -1.35 -1.2 -2.45q-1.05 -1.35 -2.5 -1.9q1.65 -16.35 1.6 -33.1q-0.2 -59.65 0.8 -119.25q0.95 -53.4 -0.75 -106.2q-5.35 1.4 -9.25 5.2q-16 15.35 -21.4 37.15q-10.85 43.5 2.15 86.2q8 26.4 32.2 40.8q23.05 13.75 41.8 -2.45q38.3 -33.1 39.95 -82.95q0.95 -29.7 -10.75 -56.75q-16.75 -38.55 -58.7 -35.45q-2 1.3 -4.25 1.95q-4.35 1.3 -8.55 3q37.3 -11.7 55.75 22.2q20.35 37.25 4.35 76.1q-7.9 19.1 -21.2 35.35q-10.55 12.8 -26.55 9.55q-46.9 -9.7 -52.6 -56.25q-2.15 -17.75 -0.4 -35.4q3.45 -33.65 28.65 -54.55q1.2 -0.75 1.25 0.5q0.1 2.55 2.25 3.75q4.3 0.85 8.5 -1.25q8.05 -21.55 8.25 -42.45q-4.15 3.6 -6.25 9.75q-19.1 56.55 -37.8 113.7q-2.8 -14.2 -11.1 -27.2q-32.1 -50.35 -57.65 -103.5q-0.85 -0.15 -0.95 0.35q-3.1 15.05 4.95 30.5q27.25 52.4 57.45 103.4q-0.5 1.4 -1.9 2.3q1.5 3.75 5 6.25q-19.6 55.5 -32.2 112.9q-3.55 16.2 3.05 28q7.2 -41 20.05 -81.7q8.85 -28.25 19.05 -55.75<g id="2575" transform="matrix(1, 0, 0, 1, -87.45, 0)">
<path style="fill:#000000;fill-opacity:1" d="M378.95,99Q418.95 102.9 437.9 138.35Q452.65 165.8 458.85 196.25Q470.8 255.2 456.95 313.65Q441.95 377.05 379.75 394.65Q366.9 398.3 353.45 394.7Q352.4 394.1 351.7 393.2L351.55 393.8Q351.45 394.35 350.45 394.7Q344.35 378.15 347.35 361.45L347.45 362.2Q347.25 363.95 347.6 363.75L347.95 363.2Q350 304.15 351.4 244.75Q352.8 185.2 351.6 125.5Q351.4 115.3 353.7 106.6Q353.6 104.4 354.2 102.25L354.45 101.5L355.4 101.25L356.2 99.25L356.3 101.05Q363.35 99.4 370.95 99.2L378.95 99M356.65,111.55Q358.35 164.35 357.4 217.75Q356.4 277.35 356.6 337Q356.65 353.75 355 370.1Q356.45 370.65 357.5 372Q358.35 373.1 358.7 374.45Q391.95 377.75 421.45 355.7Q451.65 321.05 457.45 274.9Q465.35 211.85 437.55 156.3Q426.35 133.85 404.6 121.8Q383.25 109.95 358.4 111.65L356.65 111.55M227.95,165.5L228.45 164.75Q232.65 163.05 237 161.75Q239.25 161.1 241.25 159.8L242.95 158.75Q284.9 155.65 301.65 194.2Q313.35 221.25 312.4 250.95Q310.75 300.8 272.45 333.9Q253.7 350.1 230.65 336.35Q206.45 321.95 198.45 295.55Q185.45 252.85 196.3 209.35Q201.7 187.55 217.7 172.2Q221.6 168.4 226.95 167L227.95 165.5M229.45,181.75Q227.3 180.55 227.2 178Q227.15 176.75 225.95 177.5Q200.75 198.4 197.3 232.05Q195.55 249.7 197.7 267.45Q203.4 314 250.3 323.7Q266.3 326.95 276.85 314.15Q290.15 297.9 298.05 278.8Q314.05 239.95 293.7 202.7Q275.25 168.8 237.95 180.5Q233.75 182.6 229.45 181.75M177.9,187.95L142.5 300.5Q129.65 341.2 122.45 382.2Q115.85 370.4 119.4 354.2Q132 296.8 151.6 241.3L155.95 228.75Q152.45 226.25 150.95 222.5Q152.35 221.6 152.85 220.2L152.95 219.5Q122.75 168.5 95.5 116.1Q87.45 100.65 90.55 85.6Q90.65 85.1 91.5 85.25Q117.05 138.4 149.15 188.75Q157.45 201.75 160.25 215.95L161.15 213.2Q179.85 156.05 198.95 99.5Q201.05 93.35 205.2 89.75Q205 110.65 196.95 132.2Q186.75 159.7 177.9 187.95" />
</g>
</svg>
