<?xml version="1.0" encoding="utf-8"?>
<svg version="1.1" id="Layer_1"
xmlns="http://www.w3.org/2000/svg"
xmlns:xlink="http://www.w3.org/1999/xlink"


xml:space="preserve">
q-4.35 -5.05 -10.2 -9.9q-11.65 -9.6 -21.8 -9.6q-25.65 0 -42.5 9.25q-19.5 10.75 -19.5 30.75q0 21.5 16.7 55.5q6.25 12.75 17.15 31.95q25 44.3 36.8 75.1q16.7 43.8 16.7 81.95q0 11.25 -1 16.5q-4.6 35.05 -14 63q-2.65 8.1 -7.95 16.15q-4.55 6.95 -12.05 15.35q-7.6 8.45 -16.6 14.4q-19.1 12.6 -40.9 12.6q-8.7 0 -23.5 -7.4q-13.05 -6.55 -20 -12.85q-5.5 -4.95 -7.1 -11q-1.1 -7.25 -2.15 -11.5q-1.15 -4.9 -3.75 -21.2q-3 -18.9 -3 -24.55q0 -1.9 0.45 -4.1q0.8 -3.7 2.55 -5.15q4.85 11.8 4.5 16q-0.65 3.3 -0.65 7.4q0 2.95 7.75 29.25q0.95 3.45 4 6.85q4.35 4.85 11.25 7.15q0.7 0.2 11.4 6.5q10.25 6 11.6 6q51.7 0 72.9 -37.35q8 -14.05 13.35 -36.3q1 -3.75 1 -10.85q0 -29.6 -21.6 -82.85q-7.5 -18.4 -16.35 -36.65q-6.95 -14.25 -10.55 -20.25q-28.2 -47.2 -38.45 -68.65q-20.05 -42 -20.05 -70.5q0 -23.65 15.8 -38q13.55 -12.35 34.7 -14.8q19.7 -2.3 34.7 4.8q15.8 7.4 15.8 20.75q0 3.55 -2 7.15q-0.1 46.7 -3 79.05q0.5 1.5 1 4.5q-2.25 20.75 -4.7 51.75q-5.25 62.2 -13.2 103.5q-4 -2.35 -4 -8.25q0 -1.2 0.8 -5.6q3.25 -16 6.5 -34.55q6.5 -37.1 6.5 -53.2q1.9 -28 3.75 -45q0.6 -18 2.2 -31.45q-2 -3 -2 -7.15q0 -2.9 0.6 -4.85q0.65 -2.15 2.4 -4.5q0.3 0 2.1 1.15q1.8 1.1 3.25 1.1q3.5 -0.15 3.5 6.5q0 7.55 -6 9.75q-0.7 9.8 -1.4 15.95q1 17.25 1 52.1q0 40.7 -1.85 90.2q1.1 -0.2 1.15 0.15q0.25 0.8 -0.3 6.9q0 3.9 -0.2 4.45q-1.85 44.2 -5.1 95.05q-7.8 123.4 -17.05 170.3q-1.15 -1.35 -1.9 -6.6q-0.6 -4.05 -0.6 -6.65q0 -11.1 6.55 -79.05q-13.15 4.25 -52.15 4.25q-2.7 29.5 -3.9 51.75q-1.1 15.75 -1.25 25.85q-0.05 2.75 0.25 12.55q0.2 7.9 -0.1 12.8q-1 14.95 -8.15 25.15q-2 -4.3 -2 -11.25q0 -4.45 7.05 -84.4q-2 -3 -2 -7.5q0 -3.4 0.5 -5.25q0.5 -1.85 1.5 -2.8q0.75 -14.6 0.8 -39.85q0.1 -31.1 0.35 -40.6q1.15 -47.55 9.85 -72.8q2 3.6 2 7.1q0 4.75 -2.7 17.35q-2.5 11.5 -1.8 20.55q0.55 7.85 0.3 18.45q-0.75 13.95 -1.6 37.5q33.15 0 51.7 -5.15q-1 -12 -1 -36.75q0 -7.3 2.5 -9.25q2.05 1.75 2.95 8.7q0.55 4 0.55 7.3q6.7 9.2 6.7 18.25q-0.9 5.1 -3 7q-1.35 -1.65 -2.9 -6.35q-1.9 -5.85 -3.05 -8.15q-5.1 -10 -17.8 -10q-23.3 0 -42.5 40.3q-6.2 13.1 -11.05 28.5q-3.65 11.65 -3.95 14.7q-1.4 14.35 -3.4 42.05q-2.1 29.25 -3.35 42.7q-0.6 11.55 -0.35 34.45q0.1 11.6 0.35 22.4q-0.65 9.65 -1.45 15.55q-1 7.5 -1 23.25q0.55 26.6 3 48.5q7.85 69.45 31.95 69.45q30.05 0 49.25 -49.6q6.05 -15.65 10.4 -34.75q1.2 0.95 2.15 3.45q0.85 2.2 0.85 3.7q0 3.55 -2.8 18q-3.95 20.2 -9.95 37.1q-18.9 53.25 -50.25 53.25q-22.95 0 -29.35 -16.85q-1.95 -5.25 -2.5 -12.9q-2.45 -7.9 -4.5 -19.55q-0.95 -5.3 -3 -19.45q-2.5 -16.5 -2.95 -38.95q0 -19.15 1 -28.9q3.45 -16.5 1 -36q-1.4 -24.4 2.1 -52.75q3.65 -29.1 11.5 -54.7q8.5 -27.65 20.3 -45.6q13.05 -19.8 28.6 -25.2q17.4 0.55 26.8 13.5q0 -2.7 0.75 -4.95q1.3 -3.7 4.25 -3.3q3.95 69.2 19.55 247.9q1.05 1.05 1.75 3.15q0.7 2 0.7 3.95q0 2.5 -1.45 4.45q18.55 209.2 18.55 214.2q0 2.7 -0.55 6.6q-0.75 5.2 -1.95 6.65q-15.35 -157.25 -25.5 -267.95q-14.1 4 -52 4q-7.9 26.2 -15.9 65.4q-8.4 36.85 -13 65.25q-6.1 37.65 -15.5 64q-2 -4.3 -2 -12q0 -18.35 48.4 -227q18.25 -78.45 26.25 -114.65q0.55 2.25 0.55 4.2q0 11.2 -24.35 118.7q-6 27.75 -12.4 70.45q-4.85 32.25 -8.1 60.05q-3.35 28.6 -10.4 64.4q-5.25 26.3 -14.35 65.35q-2.05 -1.15 -3.7 -8.05q-1.3 -5.6 -1.3 -8.45q-0.45 -2 -0.2 -3.5q0.5 -2.9 4.2 -2.5q7 -28.2 12.9 -63.6q3.65 -21.95 9.4 -63.9q5.95 -43.3 9.25 -63.65q5.7 -35.25 12.45 -62.85q6 -24.8 13.25 -58.3q-4.2 -7.8 -6.6 -20.05q-2.7 -16.8 -4.9 -25q-3.55 -15.1 -8.1 -24.15q-30.25 -79.4 -30.25 -96.4q0 -1.95 0.55 -3.9q0.55 -2.1 1.45 -3.2q7 4.25 9.8 23q0.75 7.4 1.4 9.5q6.7 21.6 19.5 48q6.3 12.85 16 53.75q5.8 24.55 7.75 35.45q1.25 -5.75 8.4 -31.85q5.55 -20.35 6.85 -31.9q3.5 -30.2 3.85 -32.1q3.25 -18.9 10.15 -30.4q0.9 1.65 1.45 4.05q-19.1 89.05 -30.95 132.65q7.05 -1.6 10.9 0.2q-14.9 -163.05 -18 -219.55q-5.15 28.2 -18.65 91<g id="2577" transform="matrix(1, 0, 0, 1, -12.05, 0)">
<path style="fill:#000000;fill-opacity:1" d="M527.5,59.75Q523.15 54.7 517.3 49.85Q505.65 40.25 495.5 40.25Q469.85 40.25 453 49.5Q433.5 60.25 433.5 80.25Q433.5 101.75 450.2 135.75Q456.45 148.5 467.35 167.7L487 202.05Q512 246.35 523.8 277.15Q540.5 320.95 540.5 359.1Q540.5 370.35 539.5 375.6L539.5 421.35Q534.9 456.4 525.5 484.35Q522.85 492.45 517.55 500.5Q513 507.45 505.5 515.85Q497.9 524.3 488.9 530.25Q469.8 542.85 448 542.85Q439.3 542.85 424.5 535.45Q411.45 528.9 404.5 522.6Q399 517.65 397.4 511.6Q396.3 504.35 395.25 500.1Q394.1 495.2 391.5 478.9Q388.5 460 388.5 454.35Q388.5 452.45 388.95 450.25Q389.75 446.55 391.5 445.1Q396.35 456.9 396 461.1L395.15 465.45Q394.5 468.75 394.5 472.85Q394.5 475.8 402.25 502.1Q403.2 505.55 406.25 508.95Q410.6 513.8 417.5 516.1Q418.2 516.3 428.9 522.6Q439.15 528.6 440.5 528.6Q492.2 528.6 513.4 491.25Q521.4 477.2 526.75 454.95L534.5 416.1L534.5 369.6Q535.5 365.85 535.5 358.75Q535.5 329.15 513.9 275.9Q506.4 257.5 497.55 239.25Q490.6 225 487 219Q458.8 171.8 448.55 150.35Q428.5 108.35 428.5 79.85Q428.5 56.2 444.3 41.85Q457.85 29.5 479 27.05Q498.7 24.75 513.7 31.85Q529.5 39.25 529.5 52.6Q529.5 56.15 527.5 59.75M427.5,35.75L392.5 37.45Q392.4 84.15 389.5 116.5L389.5 252.25Q390 253.75 390.5 256.75L390.5 325.6Q388.25 346.35 385.8 377.35L381.7 429.1Q376.45 491.3 368.5 532.6Q364.5 530.25 364.5 524.35Q364.5 523.15 365.3 518.75L366.25 511.6L365.9 504.75L365.5 498.85Q368.75 482.85 372 464.3Q378.5 427.2 378.5 411.1L381.75 366.1Q383.65 338.1 385.5 321.1L385.5 261.1L384.5 257.5L384.5 112L385.8 69.2Q386.4 51.2 388 37.75L380.9 38.25L358 40L349.5 39.75Q347.5 36.75 347.5 32.6Q347.5 29.7 348.1 27.75Q348.75 25.6 350.5 23.25Q350.8 23.25 352.6 24.4Q354.4 25.5 355.85 25.5L378 23.2L430 19.5Q433.5 19.35 433.5 26Q433.5 33.55 427.5 35.75M340.9,45.05Q340.2 54.85 339.5 61L339.5 116.5Q340.5 133.75 340.5 168.6Q340.5 209.3 338.65 258.8Q339.75 258.6 339.8 258.95Q340.05 259.75 339.5 265.85Q339.5 269.75 339.3 270.3L338.15 272.25Q336.3 316.45 333.05 367.3Q325.25 490.7 316 537.6Q314.85 536.25 314.1 531Q313.5 526.95 313.5 524.35Q313.5 513.25 320.05 445.3L327.5 367.6L332.15 275.6Q319 279.85 280 279.85L258.5 279.7L258.5 296.85L253.4 348.6Q250.7 378.1 249.5 400.35L247.75 426.25Q246.65 442 246.5 452.1Q246.45 454.85 246.75 464.65Q246.95 472.55 246.65 477.45Q245.65 492.4 238.5 502.6Q236.5 498.3 236.5 491.35Q236.5 486.9 243.55 406.95L253.5 291.85L253.5 279.6Q251.5 276.6 251.5 272.1Q251.5 268.7 252 266.85Q252.5 265 253.5 264.05L253.5 194.5Q254.25 179.9 254.3 154.65Q254.4 123.55 254.65 114.05Q255.8 66.5 264.5 41.25Q266.5 44.85 266.5 48.35Q266.5 53.1 263.8 65.7Q261.3 77.2 262 86.25Q262.55 94.1 262.3 104.7L261.5 123.75Q260.75 137.7 259.9 161.25L258.5 198.75L258.5 264.6L258.75 265.35L281.25 265.6Q314.4 265.6 332.95 260.45L335.5 211L335.5 125.5Q334.5 113.5 334.5 88.75L335.5 27.25Q335.5 19.95 338 18Q340.05 19.75 340.95 26.7Q341.5 30.7 341.5 34L340.9 45.05M279.8,29.5Q286.5 38.7 286.5 47.75Q285.6 52.85 283.5 54.75Q282.15 53.1 280.6 48.4Q278.7 42.55 277.55 40.25Q272.45 30.25 259.75 30.25Q236.45 30.25 217.25 70.55Q211.05 83.65 206.2 99.05Q202.55 110.7 202.25 113.75Q200.85 128.1 198.85 155.8Q196.75 185.05 195.5 198.5L195.5 242Q194.9 253.55 195.15 276.45Q195.25 288.05 195.5 298.85L194.95 309.55Q194.3 319.2 193.5 325.1L193.5 367.85Q192.5 375.35 192.5 391.1L192.55 414.65Q193.1 441.25 195.55 463.15Q203.4 532.6 227.5 532.6Q257.55 532.6 276.75 483Q282.8 467.35 287.15 448.25L290.5 431.1Q291.7 432.05 292.65 434.55Q293.5 436.75 293.5 438.25Q293.5 441.8 290.7 456.25Q286.75 476.45 280.75 493.35Q261.85 546.6 230.5 546.6Q207.55 546.6 201.15 529.75Q199.2 524.5 198.65 516.85L198 508.35Q195.55 500.45 193.5 488.8Q192.55 483.5 190.5 469.35Q188 452.85 187.55 430.4L187.5 391.75Q187.5 372.6 188.5 362.85L188.5 320.85Q191.95 304.35 189.5 284.85L189.5 240.75L190.5 237L190.5 194.25Q189.1 169.85 192.6 141.5Q196.25 112.4 204.1 86.8Q212.6 59.15 224.4 41.2Q237.45 21.4 253 16Q270.4 16.55 279.8 29.5M139.5,21.5Q139.5 18.8 140.25 16.55Q141.55 12.85 144.5 13.25Q148.45 82.45 164.05 261.15Q165.1 262.2 165.8 264.3Q166.5 266.3 166.5 268.25Q166.5 270.75 165.05 272.7L168.95 317.15Q187.5 526.35 187.5 531.35Q187.5 534.05 186.95 537.95Q186.2 543.15 185 544.6Q169.65 387.35 159.5 276.65L156 277.85Q141.9 281.85 104 281.85L86.65 281.65L86.25 282.85Q78.35 309.05 70.35 348.25L57 413.35Q48.6 450.2 44 478.6Q37.9 516.25 28.5 542.6Q26.5 538.3 26.5 530.6Q26.5 512.25 74.9 303.6L113.3 139Q131.55 60.55 139.55 24.35L139.5 21.5M118.95,18.3Q119.5 20.55 119.5 22.5Q119.5 33.7 95.15 141.2L62.75 283.35Q56.75 311.1 50.35 353.8Q45.5 386.05 42.25 413.85Q38.9 442.45 31.85 478.25Q26.6 504.55 17.5 543.6Q15.45 542.45 13.8 535.55Q12.5 529.95 12.5 527.1Q12.05 525.1 12.3 523.6Q12.8 520.7 16.5 521.1Q23.5 492.9 29.4 457.5Q33.05 435.55 38.8 393.6Q44.75 350.3 48.05 329.95Q53.75 294.7 60.5 267.1Q66.5 242.3 73.75 208.8Q69.55 201 67.15 188.75Q64.45 171.95 62.25 163.75L56.85 139.9Q53.3 124.8 48.75 115.75Q18.5 36.35 18.5 19.35Q18.5 17.4 19.05 15.45Q19.6 13.35 20.5 12.25Q27.5 16.5 30.3 35.25L31.85 49.25Q32.6 56.65 33.25 58.75Q39.95 80.35 52.75 106.75Q59.05 119.6 68.75 160.5Q74.55 185.05 76.5 195.95L88.25 140.5Q89.5 134.75 96.65 108.65Q102.2 88.3 103.5 76.75Q107 46.55 107.35 44.65Q110.6 25.75 117.5 14.25Q118.4 15.9 118.95 18.3M121.65,134.7Q102.55 223.75 90.7 267.35L105 267.35L111.35 265.4Q118.4 263.8 122.25 265.6L145.7 264.4L154.75 263.6L158.3 263.25Q143.4 100.2 140.3 43.7Q135.15 71.9 121.65 134.7" />
</g>
</svg>
