<?xml version="1.0" encoding="utf-8"?>
<svg version="1.1" id="Layer_1"
xmlns="http://www.w3.org/2000/svg"
xmlns:xlink="http://www.w3.org/1999/xlink"


xml:space="preserve">
q-0.65 4.85 -2.7 6.6q-2.85 -7.2 -5.7 -11.9q-9.45 -15.5 -24.65 -15.5q-3.7 0.2 -4.2 0.55q-32.65 -4.85 -50 22.35q-5.85 9.15 -9.1 20.7q-2.4 8.45 -2.4 12.95q0 23.75 18.75 50.05q6.05 8.45 19.2 24.25q15.4 18.35 22.05 27.05q27.4 35.75 41.25 72.8q18.75 50.15 18.75 114.45q0 24.85 -3.8 38.35q-1.95 7 -6.45 18.2q-8.35 20.25 -55.45 52.5q-17.55 12 -33.85 21q-15.35 8.5 -18.95 8.5q-17.25 0 -40.05 -14.5q-20.6 -13.1 -30.2 -27q-3.65 -5.25 -9.7 -22.9q-5.55 -16.35 -5.55 -19.1q0 -5.2 0.3 -6.3q0.65 -2.65 4.2 -7.2q2.4 5.1 5.15 20.75q2.35 13.7 7.6 21.25q9.3 13.7 28.75 26.5q21.2 14 36.5 14q21.75 0 63.45 -34q15.15 -12.35 28.3 -25.5q11.85 -11.85 14 -16q4.6 -9.65 6.5 -16.1q1.95 -6.6 2.5 -14.75q0.4 -5.95 0.4 -20.5q0 -61 -18.75 -107.95q-13.4 -33.6 -41.25 -68.75q-12.4 -15.15 -19.2 -25.65q-18.75 -28.95 -18.75 -59.4q0 -7.05 1.85 -16.2q2.75 -13.75 8.7 -24.55q17.55 -32.05 56.95 -29.25q24.35 4.75 36.35 17.4q9.15 9.7 9.15 20.85q0 28.8 -3.2 77.45q23.65 0.75 38.9 2.75q2 3.6 2 6.75q0 3.15 -2 6.75q-7.5 -0.5 -8.25 -1q-4.9 -0.25 -5.35 -1.2q0 -17 4.5 -75.6q4.5 -58.6 4.5 -98.4q-0.55 -3.9 -0.45 -7q0.2 -5.9 3.45 -7.35q1.8 3.9 2.55 17q0 9.8 -9.35 75.4q-9.05 64.05 -22.4 148.65q-33.1 210.35 -50.75 290.05q-1.9 -1.35 -2.5 -5q-5.6 -69.1 -8.25 -103.55q-4.65 -59.95 -6.75 -103.45q-9.45 100.75 -12.4 125.2q-8.6 71.5 -21.85 125.8q-1.9 -1.35 -2.5 -5q-1.25 -37.65 -7.2 -102.7q-6.9 -76.25 -8.55 -103.4q-1.4 -22.6 -10.6 -113.8q-8.65 -85.45 -8.65 -91.35q0 -1.95 0.55 -3.9q0.55 -2.1 1.45 -3.2q6.95 8.2 8.2 24.1q0.2 8.3 0.8 12.8q0.75 7.2 1.45 25.95q0.6 16.45 2.05 25.8q3.3 21.5 5.5 51.9q5.55 63.4 7 103.95q6.15 -36.75 15.35 -121.9q8.5 -79 16.65 -122.2q4.65 11.85 5.6 30.1q0.25 9.6 0.85 15.75q2.75 35.65 2.6 61.7q18.5 -112.55 36.7 -226.65q36.3 -227.7 36.3 -244.1q-2 -3.1 -2 -4.6q0 -1.5 1.25 -2.8q2.05 -2.15 7.75 -4.95q0.9 1.65 1.45 4.05q0.55 2.25 0.55 4.2q0.4 1.5 0.4 6.75q0 7.4 -13.1 64.1q-14.45 62.25 -23.9 86.9q-15.45 -26.85 -33.2 -69.65q-18.85 -47.55 -28.55 -69.7q-2.25 20.25 -6.75 66.8q-4.75 39.45 -12.25 55.55q-2 -3 -2 -6.75q0 -6.05 7.25 -57.65q7.75 -55.1 12.25 -76.2q7.25 15.3 30.05 70.6q18.6 44.95 32.7 70.75q7.5 -23.3 19.8 -77q11.45 -50.1 11.45 -55.35q0 -1.25 -1.25 -3.95q-1.25 -2.7 -1.25 -3.95q0 -4.2 2 -6.85q5.25 0.5 6.6 5.6q0.7 1.55 1 3.4q8.7 90.6 15.45 184.55q9.55 132.95 9.55 202.3q-0.5 9.9 -2.85 16.35q-1.1 -1.7 -2.6 -10.8q-1.4 -8.3 -1.4 -10.95q0 -67.85 -10.5 -203.9q-10.05 -0.6 -18 -0.45q-15.1 0.3 -23 4.2q-6 22 -12.2 48.8q-18 81.7 -35.7 130.15q-3.35 -1.45 -4.2 -5.75q-0.3 -1.35 -0.3 -5.6q0 -0.4 14.7 -51.1q15.95 -54.9 20.55 -77.55q9.85 -48.7 13.5 -64.35q8.4 -36.1 18.75 -65.4q18.45 -52.35 35.1 -129.75q17.35 -86.8 26.9 -128.85q1.1 1.1 1.8 3q0.7 1.85 0.7 3.75q-10 53.6 -15.6 74.2q-10.6 39.9 -18.15 65.35q41.55 -5.15 51.9 -3.1q-7 -86.8 -8.6 -109.65q-3.9 -55.75 -3.9 -86.05q-0.45 -17.4 -0.05 -27.05q1.25 1.6 1.9 4.05q0.6 2.15 0.6 4.2q0 3.7 -7 30q-20.05 76.2 -31.2 132.9q-0.05 3 -1.1 5.65q-3.05 15.95 -5.4 30.25q-9.85 60.5 -28.85 130.85q-16.25 59.95 -40.15 130.65q-1.9 -1.6 -2.35 -4.2q-0.15 -0.95 -0.15 -4.55q0 -2.05 7.4 -27.3q28.5 -101.15 41.75 -172.6q-14.05 -39.75 -35.75 -125q-9.2 -36.2 -16.1 -66.15q-6.55 -28.5 -6.55 -31.85q0 -8.15 2 -11.6q11.2 38.2 16.35 57.3q9.2 34.05 14.4 60.45q3.65 17.5 18.15 69.55q7.55 -38.05 15.35 -65.6q5.85 -22.55 8.8 -33.15q6.25 -22.85 8.5 -26.9<g id="2576" transform="matrix(1, 0, 0, 1, -8.5, 0)">
<path style="fill:#000000;fill-opacity:1" d="M519.2,63.15Q518.55 68 516.5 69.75L513.1 61.65Q510.25 54.45 507.4 49.75Q497.95 34.25 482.75 34.25L477.2 34.45Q473.5 34.65 473 35Q440.35 30.15 423 57.35Q417.15 66.5 413.9 78.05Q411.5 86.5 411.5 91Q411.5 114.75 430.25 141.05Q436.3 149.5 449.45 165.3Q464.85 183.65 471.5 192.35Q498.9 228.1 512.75 265.15Q531.5 315.3 531.5 379.6Q531.5 404.45 527.7 417.95Q525.75 424.95 521.25 436.15L510.25 462.85Q501.9 483.1 454.8 515.35Q437.25 527.35 420.95 536.35Q405.6 544.85 402 544.85Q384.75 544.85 361.95 530.35Q341.35 517.25 331.75 503.35Q328.1 498.1 322.05 480.45Q316.5 464.1 316.5 461.35Q316.5 456.15 316.8 455.05Q317.45 452.4 321 447.85Q323.4 452.95 326.15 468.6Q328.5 482.3 333.75 489.85Q343.05 503.55 362.5 516.35Q383.7 530.35 399 530.35Q420.75 530.35 462.45 496.35Q477.6 484 490.75 470.85Q502.6 459 504.75 454.85L517.1 430.45Q521.7 420.8 523.6 414.35Q525.55 407.75 526.1 399.6Q526.5 393.65 526.5 379.1Q526.5 318.1 507.75 271.15Q494.35 237.55 466.5 202.4L444.45 175.55Q432.05 160.4 425.25 149.9Q406.5 120.95 406.5 90.5Q406.5 83.45 408.35 74.3Q411.1 60.55 417.05 49.75Q434.6 17.7 474 20.5L474 20Q498.35 24.75 510.35 37.4Q519.5 47.1 519.5 58.25L519.2 63.15M372.05,40.25L372.5 52.85Q372.5 81.65 369.3 130.3L364.5 202.5Q388.15 203.25 403.4 205.25L427.25 207.75L436 208.75L442.5 209.25Q444.5 212.85 444.5 216Q444.5 219.15 442.5 222.75L434.5 222.75L434 222.25Q426.5 221.75 425.75 221.25L382.5 217.9L362.65 217.05Q357.75 216.8 357.3 215.85L357.5 211.6Q357.5 194.6 362 136Q366.5 77.4 366.5 37.6Q365.95 33.7 366.05 30.6Q366.25 24.7 369.5 23.25Q371.3 27.15 372.05 40.25M350.5,24.5Q350.5 34.3 341.15 99.9Q332.1 163.95 318.75 248.55Q285.65 458.9 268 538.6Q266.1 537.25 265.5 533.6L265.5 491.6Q259.9 422.5 257.25 388.05Q252.6 328.1 250.5 284.6L250.25 284.6Q240.8 385.35 237.85 409.8Q229.25 481.3 216 535.6Q214.1 534.25 213.5 530.6L213.5 431.6Q212.25 393.95 206.3 328.9Q199.4 252.65 197.75 225.5Q196.35 202.9 187.15 111.7Q178.5 26.25 178.5 20.35Q178.5 18.4 179.05 16.45Q179.6 14.35 180.5 13.25Q187.45 21.45 188.7 37.35L189.2 50.7Q189.4 59 190 63.5Q190.75 70.7 191.45 89.45Q192.05 105.9 193.5 115.25Q196.8 136.75 199 167.15L202.5 218.75L211.5 322.4Q217.05 385.8 218.5 426.35L218.5 499.35Q224.65 462.6 233.85 377.45Q242.35 298.45 250.5 255.25Q255.15 267.1 256.1 285.35L256.65 300.85Q256.9 310.45 257.5 316.6L260.05 347.25L262.5 378.85L267.9 440.65Q270.65 476.3 270.5 502.35Q289 389.8 307.2 275.7Q343.5 48 343.5 31.6L341.5 28.6Q339.5 25.5 339.5 24Q339.5 22.5 340.75 21.2Q342.8 19.05 348.5 16.25Q349.4 17.9 349.95 20.3Q350.5 22.55 350.5 24.5M453.1,238.85Q453.5 240.35 453.5 245.6Q453.5 253 440.4 309.7Q425.95 371.95 416.5 396.6Q401.05 369.75 383.3 326.95Q364.45 279.4 354.75 257.25L354.5 257.25Q352.25 277.5 347.75 324.05Q343 363.5 335.5 379.6Q333.5 376.6 333.5 372.85Q333.5 366.8 340.75 315.2Q348.5 260.1 353 239Q360.25 254.3 383.05 309.6Q401.65 354.55 415.75 380.35Q423.25 357.05 435.55 303.35Q447 253.25 447 248Q447 246.75 445.75 244.05Q444.5 241.35 444.5 240.1Q444.5 235.9 446.5 233.25Q451.75 233.75 453.1 238.85M166.5,18L166.5 18.1Q167.2 19.65 167.5 21.5L167.5 118.25Q176.2 208.85 182.95 302.8Q192.5 435.75 192.5 505.1L192.35 521.25Q191.85 531.15 189.5 537.6Q188.4 535.9 186.9 526.8Q185.5 518.5 185.5 515.85L186.5 506.3L187.5 496.75Q187.5 428.9 177 292.85L176 293.1Q165.95 292.5 158 292.65Q142.9 292.95 135 296.85L102.5 296.6L101.3 295.4Q95.3 317.4 89.1 344.2L74.7 409.45Q56.7 491.15 39 539.6Q35.65 538.15 34.8 533.85Q34.5 532.5 34.5 528.25Q34.5 527.85 49.2 477.15Q65.15 422.25 69.75 399.6Q79.6 350.9 83.25 335.25Q91.65 299.15 102 269.85Q120.45 217.5 137.1 140.1Q154.45 53.3 164 11.25Q165.1 12.35 165.8 14.25Q166.5 16.1 166.5 18M162.45,44.95L157.1 74.3Q147.1 127.9 141.5 148.5L124.15 213.5Q113.55 253.4 106 278.85L104.9 282.6L123.25 282.6Q164.8 277.45 175.15 279.5L175.95 279.7L175 267.7Q168 180.9 166.4 158.05Q162.5 102.3 162.5 72Q162.05 54.6 162.45 44.95M139,13.25Q140.25 14.85 140.9 17.3Q141.5 19.45 141.5 21.5Q141.5 25.2 134.5 51.5L117.7 114.3Q97.65 190.5 86.5 247.2Q86.45 250.2 85.4 252.85Q82.35 268.8 80 283.1Q70.15 343.6 51.15 413.95Q34.9 473.9 11 544.6Q9.1 543 8.65 540.4Q8.5 539.45 8.5 535.85Q8.5 533.8 15.9 508.55L33.75 446.7Q62.25 345.55 75.5 274.1L80.9 244.85Q66.85 205.1 45.15 119.85Q35.95 83.65 29.05 53.7Q22.5 25.2 22.5 21.85Q22.5 13.7 24.5 10.25Q35.7 48.45 40.85 67.55Q50.05 101.6 55.25 128Q58.9 145.5 73.4 197.55L83.1 232.85L87.65 208.6Q95.2 170.55 103 143L111.7 110.15Q117.55 87.6 120.5 77L130.5 40.15Q136.75 17.3 139 13.25" />
</g>
</svg>
