<?xml version="1.0" encoding="utf-8"?>
<svg version="1.1" id="Layer_1"
xmlns="http://www.w3.org/2000/svg"
xmlns:xlink="http://www.w3.org/1999/xlink"


xml:space="preserve">
q0 -1.8 1.25 -2.95q63.55 0.15 103.95 47.6q10.45 12.25 15.55 27.65q19.25 58 -2.2 115.6q-13.5 36.2 -53.3 44.05q-10.4 2.05 -21 3.3q-15.4 1.75 -29.55 -3.35q1.4 59.7 -0.7 119.25q-0.25 7.2 -3.6 13.45q-5.4 -8.25 -3.75 -21.7q3.6 -29.55 2.75 -59.05q-1.65 -59.5 -2.1 -119.2q-0.4 -59.7 -1.75 -119.25q-1.15 -52.8 -6.05 -104.95q-0.65 -1.45 -0.7 -3q7.3 55.75 8 113.45q0.4 29.85 1.2 60q29.9 3.35 59.6 -6.5q46.95 -15.6 50.7 -64.95q1.4 -18.1 0.2 -36.1q-4.6 -69.55 -70.35 -95.75q-24.6 -9.8 -50.4 -11.95q-20.45 54.85 -41 111.1q-20.5 55.9 -32.3 114.05q-11.9 58.35 -34 113.6q-21.15 52.85 -32.45 106.7q-5.3 -11.75 -0.95 -27.25q15.7 -56.55 38.25 -112.05q5.7 -14.05 9.25 -28.9q13.85 -57.35 29.75 -114.45q-1 -0.45 -1.9 -1.8q-23.15 -52.8 -56.3 -100.9q-20.7 -30 -30.3 -63.6q-0.5 -1.65 0.85 -2.25q2.95 0.7 3 4q28.15 51.35 60.35 100.85q17.6 27.05 26.1 56.7q14.95 -52.3 34.8 -103.25q8.3 -21.35 19.25 -41.3q0.9 -6.35 6.05 -8.85q-5.3 57.55 -11.5 116.85q-5.1 49.15 4.35 97.3q2.25 11.45 9.9 20.1q21.35 24.2 47 2.8q13 -10.75 18.5 -26.65q19.5 -56.2 17.5 -116.15q-1.05 -30.95 -9.55 -59.5q-0.35 -1 0.5 -2q10.95 10.55 12.9 28.1q6.6 59.6 -4.35 118.2q-6.5 34.65 -27 62.9q-18.95 26.2 -47.35 10.8q-12.7 -6.9 -17.75 -20.3q-15.25 -40 -11.6 -83.85q4.85 -58.3 10.65 -116.2q1.8 -17.9 7.8 -32.4<g id="2586" transform="matrix(1, 0, 0, 1, -41.65, 0)">
<path style="fill:#000000;fill-opacity:1" d="M340,46.25Q340 44.45 341.25 43.3L341.95 42.75Q405.5 42.9 445.9 90.35Q456.35 102.6 461.45 118Q480.7 176 459.25 233.6Q445.75 269.8 405.95 277.65Q395.55 279.7 384.95 280.95Q369.55 282.7 355.4 277.6L357 345.25Q358.4 404.95 356.3 464.5Q356.05 471.7 352.7 477.95Q347.3 469.7 348.95 456.25Q352.55 426.7 351.7 397.2Q350.05 337.7 349.6 278Q349.2 218.3 347.85 158.75Q346.7 105.95 341.8 53.8L341.75 52.35L340.7 52.25Q340.05 50.8 340 49.25L340 46.25M344.9,52.55Q352.2 108.3 352.9 166Q353.3 195.85 354.1 226L355.15 267.8Q385.05 271.15 414.75 261.3Q461.7 245.7 465.45 196.35Q466.85 178.25 465.65 160.25Q461.05 90.7 395.3 64.5Q370.7 54.7 344.9 52.55M192.55,59.9L193.25 59.75Q172.8 114.6 152.25 170.85Q131.75 226.75 119.95 284.9Q108.05 343.25 85.95 398.5Q64.8 451.35 53.5 505.2Q48.2 493.45 52.55 477.95Q68.25 421.4 90.8 365.9Q96.5 351.85 100.05 337Q113.9 279.65 129.8 222.55L130.65 219.55Q129.65 219.1 128.75 217.75Q105.6 164.95 72.45 116.85Q51.75 86.85 42.15 53.25Q41.65 51.6 43 51Q45.95 51.7 46 55L46 55.75Q74.15 107.1 106.35 156.6Q123.95 183.65 132.45 213.3Q147.4 161 167.25 110.05Q175.55 88.7 186.5 68.75Q187.4 62.4 192.55 59.9M207.25,159.5Q201.95 217.05 195.75 276.35Q190.65 325.5 200.1 373.65Q202.35 385.1 210 393.75Q231.35 417.95 257 396.55Q270 385.8 275.5 369.9Q295 313.7 293 253.75Q291.95 222.8 283.45 194.25Q283.1 193.25 283.95 192.25Q294.9 202.8 296.85 220.35Q303.45 279.95 292.5 338.55Q286 373.2 265.5 401.45Q246.55 427.65 218.15 412.25Q205.45 405.35 200.4 391.95Q185.15 351.95 188.8 308.1Q193.65 249.8 199.45 191.9Q201.25 174 207.25 159.5" />
</g>
</svg>
