<?xml version="1.0" encoding="utf-8"?>
<svg version="1.1" id="Layer_1"
xmlns="http://www.w3.org/2000/svg"
xmlns:xlink="http://www.w3.org/1999/xlink"


xml:space="preserve">
q0.3 59.45 -3.7 118.45q-2.1 30.6 0.9 59.25q0.9 -0.35 0.95 -0.85q3.45 -24.05 5.1 -48.5q6.4 -6.85 11.25 -15.7q8.4 -15.35 17.05 -30.55q1.45 13.95 8.65 27.5q11.15 21.1 17.65 43.7q4.5 15.65 12.6 26.4q3 -3.9 1.4 -8.7q-15.95 -48.85 -36.4 -95.7q18.6 -32.45 38.35 -64.1q6.6 -10.6 2.9 -18.45q-18.85 32.85 -41.75 63.25q-5.4 9.8 -11.45 19.25q-5.6 8.7 -11.55 17.2q-5 7.15 -7.55 14.35q2.25 -57.95 -1.45 -115.05q-3 2.8 -2.95 8.25q-1.25 -0.15 -2 1q-4.65 7.15 -7.8 15.2q-14.2 36.2 -25.65 73.35q-14.25 -39.9 -34.25 -77.8q-1.5 -5.7 -5.4 -9.75q-2.5 -0.1 -1.8 2.2q7.6 24.55 17.75 48.9q9.8 23.55 21.9 43.5q-5 16.55 -9.45 33.35q-3.8 14.25 -9.55 27.8q-6.9 16.15 -0.1 27.95q3.7 -7 5.7 -15.3q13.7 -57.1 35.15 -112.05q10.9 -27.85 17.1 -56.1q4.9 28 -8.45 52.45q-13.85 25.4 -42.55 11.75q-2.85 -1.35 -3.2 -4.15q-4.15 -37.25 -0.6 -74.85q-9.6 34.9 -8.25 72.7q0.55 14.4 13.8 20.3q30.05 13.35 46.6 -13.35q17.5 -37.5 6.75 -77.25q-5.1 4.05 -3.7 12.05<g id="2600" transform="matrix(1, 0, 0, 1, -139.75, 0)">
<path style="fill:#000000;fill-opacity:1" d="M341.2,182Q344.9 239.1 342.65 297.05Q345.2 289.85 350.2 282.7Q356.15 274.2 361.75 265.5Q367.8 256.05 373.2 246.25Q396.1 215.85 414.95 183Q418.65 190.85 412.05 201.45Q392.3 233.1 373.7 265.55Q394.15 312.4 410.1 361.25Q411.7 366.05 408.7 369.95Q400.6 359.2 396.1 343.55Q389.6 320.95 378.45 299.85Q371.25 286.3 369.8 272.35Q361.15 287.55 352.75 302.9Q347.9 311.75 341.5 318.6Q339.85 343.05 336.4 367.1Q336.35 367.6 335.45 367.95Q332.45 339.3 334.55 308.7Q338.55 249.7 338.25 190.25Q338.2 184.8 341.2 182M218.4,183.55L218.95 184.25Q212.75 212.5 201.85 240.35Q180.4 295.3 166.7 352.4Q164.7 360.7 161 367.7Q154.2 355.9 161.1 339.75Q166.85 326.2 170.65 311.95Q175.1 295.15 180.1 278.6Q168 258.65 158.2 235.1Q148.05 210.75 140.45 186.2Q139.75 183.9 142.25 184Q146.15 188.05 147.65 193.75L147.75 194.5Q167.75 232.4 182 272.3Q193.45 235.15 207.65 198.95Q210.8 190.9 215.45 183.75Q216.2 182.6 217.45 182.75L218.4 183.55M294.45,271.45Q305.2 311.2 287.7 348.7Q271.15 375.4 241.1 362.05Q227.85 356.15 227.3 341.75Q225.95 303.95 235.55 269.05L235.95 268.7Q232.4 306.3 236.55 343.55Q236.9 346.35 239.75 347.7Q268.45 361.35 282.3 335.95Q295.65 311.5 290.75 283.5Q289.35 275.5 294.45 271.45" />
</g>
</svg>
