<?xml version="1.0" encoding="utf-8"?>
<svg version="1.1" id="Layer_1"
xmlns="http://www.w3.org/2000/svg"
xmlns:xlink="http://www.w3.org/1999/xlink"


xml:space="preserve">
q38.6 8.25 72 2.5q-14.6 23.35 -32 45q-16.85 21.15 -29.2 45.5q-9.65 18.8 -7.9 37.55q50.9 -1.3 102 -1.75q4.1 -8 -1.2 -14.85q-46.05 0.45 -91.25 1.25q6.3 -17.75 14.35 -34.65q25.25 -53 62.8 -99.1q11.8 -13.8 5.1 -25.4q-12.5 3.35 -26 3.9q-0.85 3.15 0.45 6q-17.85 41.3 -34.15 83.95q-17.1 -39.2 -39.05 -76.65q-1.2 -3.65 -4.35 -6q-1.85 0.35 -1.25 2.25q7.75 24.45 18.65 48q10.15 22.05 23.3 40.65q-10.15 27.6 -21.6 54.65q-6.9 16.3 0.35 27.4q10.5 -26.75 19.65 -54.6q18.6 -56.35 42.95 -109.85q7 -15.45 2.6 -27.75q0.25 18.45 -0.7 37.45q-1.55 29.65 -28.6 39.2q-7.45 2.65 -13.65 -2.45q-13.95 -11.4 -11.1 -30.7q3.6 -24.4 2.45 -47.75q-12.45 39.75 -2.7 82.6q1.9 8.2 10.2 10.6q30.1 8.8 43.55 -20.9q10.15 -22.4 9.4 -47.3q-0.4 -13.95 -6.95 -23.5q-1.95 0.7 -1.9 2.75<g id="2594" transform="matrix(1, 0, 0, 1, -141.4, 0)">
<path style="fill:#000000;fill-opacity:1" d="M338.25,189.75L338.7 188.25L395.95 186.4Q409.45 185.85 421.95 182.5Q428.65 194.1 416.85 207.9L407.35 219.2Q369.8 265.3 344.55 318.3Q336.5 335.2 330.2 352.95Q375.4 352.15 421.45 351.7Q426.75 358.55 422.65 366.55L421.45 368.2Q370.35 368.65 319.45 369.95Q317.7 351.2 327.35 332.4L349.5 288.75Q361.85 264.4 378.7 243.25Q396.1 221.6 410.7 198.25Q377.3 204 338.7 195.75Q337.4 192.9 338.25 189.75M220.95,179.75Q225.35 192.05 218.35 207.5Q194 261 175.4 317.35Q166.25 345.2 155.75 371.95Q148.5 360.85 155.4 344.55Q166.85 317.5 177 289.9L183.95 271.4Q170.8 252.8 160.65 230.75Q149.75 207.2 142 182.75Q141.4 180.85 143.25 180.5Q146.4 182.85 147.6 186.5L147.75 187.25Q169.7 224.7 186.8 263.9Q203.1 221.25 220.95 179.95L220.95 179.75M293.95,270.2Q300.5 279.75 300.9 293.7Q301.65 318.6 291.5 341Q278.05 370.7 247.95 361.9Q239.65 359.5 237.75 351.3Q228 308.45 240.45 268.7Q241.6 292.05 238 316.45Q235.15 335.75 249.1 347.15Q255.3 352.25 262.75 349.6Q289.8 340.05 291.35 310.4Q292.3 291.4 292.05 272.95Q292 270.9 293.95 270.2" />
</g>
</svg>
