<?xml version="1.0" encoding="utf-8"?>
<svg version="1.1" id="Layer_1"
xmlns="http://www.w3.org/2000/svg"
xmlns:xlink="http://www.w3.org/1999/xlink"


xml:space="preserve">
q-5.05 6.2 -6.75 15.5q-10.4 57.7 -22.3 115.6q-3.05 14.75 -9.15 28.65q-7.2 16.55 -0.55 29.2q14.7 -35.05 20.9 -73.25q4.7 -29.05 11.6 -57.6q4.4 -18.4 5.75 -36.5q8.35 37.35 15.35 75.15q2.4 13.05 7.1 23.05q0.85 2.8 2.55 5.4q1.65 -2.3 1.85 -5.05q11.95 -32.5 24.7 -64.4q8.65 -21.75 11.5 -43.65q2.25 45.8 6.4 91.6q2.65 29.4 0.7 59.1q-1.1 17 6.25 28.6q0.75 -0.75 0.8 -1.5q1.85 -33.4 0.4 -67.5q-2.55 -59.7 -13.45 -116.95q-15.1 42.6 -32.85 86.45q-2.55 6.25 -5.6 12q-9.45 -50.4 -23.8 -99.35q12.85 51.4 37.95 97.6q1.65 -1.85 0.9 -4.25q-14.6 -48.65 -38.15 -93.7q-0.85 -0.25 -0.7 0.35q0.65 32.05 -9.7 62.15q-2.05 6 -7.7 10.1q-21.85 16.05 -31.55 -8q-8.55 -21.25 -4.9 -45.1q1.75 -11.55 0.6 -23.4q-5.9 19.5 -7.85 40.35q-2.1 22.2 6.65 41.75q10.1 22.55 32.6 11.6q20.5 -9.95 24.35 -32.45q3.7 -21.6 3.6 -43.2q-0.05 -8.25 -6.1 -13.8q15.25 -57.05 35.8 -111.95q7.95 -21.25 6.2 -42.45q-5.2 7.6 -8.45 18.35q-17.2 56.45 -35.5 113.4q-9.05 28.15 -11.5 56.45q0.7 2.8 3.25 1.5q5.4 -17.35 10.2 -35.3<g id="2587" transform="matrix(1, 0, 0, 1, -141.4, 0)">
<path style="fill:#000000;fill-opacity:1" d="M340.25,183.15Q354.6 232.1 364.05 282.5L365.75 278.95Q368.8 273.2 371.35 266.95Q389.1 223.1 404.2 180.5L403.85 185.75L404.2 185.75Q415.1 243 417.65 302.7Q419.1 336.8 417.25 370.2Q417.2 370.95 416.45 371.7Q409.1 360.1 410.2 343.1Q412.15 313.4 409.5 284Q405.35 238.2 403.1 192.4Q400.25 214.3 391.6 236.05Q378.85 267.95 366.9 300.45Q366.7 303.2 365.05 305.5L364.7 306.45Q363 303.85 362.15 301.05Q357.45 291.05 355.05 278Q348.05 240.2 339.7 202.85Q338.35 220.95 333.95 239.35Q327.05 267.9 322.35 296.95Q316.15 335.15 301.45 370.2Q294.8 357.55 302 341Q308.1 327.1 311.15 312.35Q323.05 254.45 333.45 196.75Q335.15 187.45 340.2 181.25L340.25 183.15M142.25,183.5Q165.8 228.55 180.4 277.2Q181.15 279.6 179.5 281.45Q154.4 235.25 141.55 183.85Q141.4 183.25 142.25 183.5M292.8,289.75Q292.9 311.35 289.2 332.95Q285.35 355.45 264.85 365.4Q242.35 376.35 232.25 353.8Q223.5 334.25 225.6 312.05Q227.55 291.2 233.45 271.7Q234.6 283.55 232.85 295.1Q229.2 318.95 237.75 340.2Q247.45 364.25 269.3 348.2Q274.95 344.1 277 338.1Q287.35 308 286.7 275.95Q292.75 281.5 292.8 289.75M163.25,370.45Q160.7 371.75 160 368.95Q162.45 340.65 171.5 312.5Q189.8 255.55 207 199.1Q210.25 188.35 215.45 180.75Q217.2 201.95 209.25 223.2Q188.7 278.1 173.45 335.15Q168.65 353.1 163.25 370.45" />
</g>
</svg>
