<?xml version="1.0" encoding="utf-8"?>
<svg version="1.1" id="Layer_1"
xmlns="http://www.w3.org/2000/svg"
xmlns:xlink="http://www.w3.org/1999/xlink"


xml:space="preserve">
q24.25 -2.35 35.75 17.25q-1 -29.8 -34.5 -29q-14.2 6.45 -18.4 22.1q-15.9 58.85 15.3 112.2q30.7 52.5 37.55 112.55q3.9 33.9 -26.45 44.3q-12.1 4.15 -24.3 0q-16.45 -5.65 -18.45 -23.45q-4.8 7.15 -2.45 16.75q2.65 10.95 11.6 16.65q18.15 11.7 39.1 4.5q13.5 -4.7 17.55 -17.65q15.1 -48.6 -1.3 -97.2q-3.55 -10.5 -9.25 -20q-28.05 -46.5 -38.9 -99.05q-7.3 -35.25 16.9 -59.2q-0.4 -60.2 1.2 -118.5q-6.25 22.15 -6.5 47.5q-0.5 53.55 -2.1 106.6q-2.5 -17.2 -6.7 -34.6q-13.65 -55.8 -26.75 -111.55q-1.35 0.15 -1.5 1.75q-0.45 4.3 -0.3 8.55q-2.6 16.8 -3.25 34.9q-2.1 59.3 -3.1 118.55q0.65 1.6 2.25 2q4.85 -25.5 5.5 -53.75q1.05 -42.9 1.5 -85.1q6.6 29.05 10.6 58.25q2.3 16.75 11.05 28.1q1.15 -0.9 1.05 -2.25q4.45 -24 4.3 -49.5q-0.8 4 0.4 8.15q-2.6 24.7 -4.85 49.5q-0.55 1.8 -0.55 3.75q0.05 1.9 0.55 3.75q-1.2 14.95 -3.25 29.85q-2.3 16.7 2.8 29.5q4.45 -12.75 4.7 -27q0.7 -34.15 4.65 -67.85q3.1 0.1 6.5 -1.3q3.15 17.5 8.45 35q7.15 23.5 11.6 47.45q2.9 15.75 9.5 27.45q2.5 -2.9 1.85 -6.7q-9.35 -53.85 -28.7 -104.55q4.95 -2.9 8.35 -7.65q24.65 -34.9 -7.5 -62.1q-10.2 -2.7 -12.5 4q19.2 17.8 7.65 41.55q-5.5 11.35 -18.2 12.65q4.15 -27.9 0.75 -55.85q-11.75 35.15 -18.1 72.25q-10 58.35 -23.8 116q-6.95 28.95 -17.9 56.9q-11.5 29.45 -8.65 58.35q5.5 -13.55 10.1 -29.65q16.3 -56.9 28.95 -114.55q21 -2.1 41.35 0.55q5.15 55.3 8 111q0.85 16.2 6.95 28.45q1.15 -0.85 1.1 -2.2q-2.2 -48.15 -6.05 -96.8q-3.55 -44.45 -7.75 -88.65q-5.6 -59.15 -13.55 -116.8q-0.8 3.65 -1.3 7.45q8.5 64.85 39.4 127.1q0.8 1.6 1.15 3.5q-22.65 76.1 -41.8 153.15q-1.15 3.6 -1.8 7.35q-0.65 3.55 -1.05 7.2q-0.8 6.9 1.95 10.65q29.85 -88.5 50.7 -180.2q18.25 -48.85 32.65 -102.7q1.85 -7 2.7 -14.2q-23.15 48.85 -36.6 102.05q-27.8 -51.6 -40.6 -108.8q-0.7 -32.75 -11.25 -63.7q-7.25 13.45 -11.25 33.25q-4.1 20.45 -10.9 39.8q-7.35 20.75 -5.85 41.85q0.15 2.45 1.25 4.55q9.15 -24.15 13.85 -49.8q3.85 -20.85 10.05 -41.2q3.1 -10.05 2.6 -20.5q4.35 40.15 9.5 80.05q1.2 9.25 3.45 18.55q2.2 9 8.2 16q4.6 -8.05 1.9 -16.8q-6.5 -21.45 -10.05 -44.2q-5.4 -34.95 -13.7 -68.6q-4.3 0.55 -8.3 1.85<g id="2612" transform="matrix(1, 0, 0, 1, -67, 0)">
<path style="fill:#000000;fill-opacity:1" d="M362.55,185.7Q373.4 238.25 401.45 284.75Q407.15 294.25 410.7 304.75Q427.1 353.35 412 401.95Q407.95 414.9 394.45 419.6Q373.5 426.8 355.35 415.1Q346.4 409.4 343.75 398.45Q341.4 388.85 346.2 381.7Q348.2 399.5 364.65 405.15Q376.85 409.3 388.95 405.15Q419.3 394.75 415.4 360.85Q408.55 300.8 377.85 248.3Q346.65 194.95 362.55 136.1Q366.75 120.45 380.95 114Q414.45 113.2 415.45 143L415.2 143.75Q403.7 124.15 379.45 126.5Q355.25 150.45 362.55 185.7M324.7,288.75L323.3 288.85L323.75 293.75Q323.85 295.1 322.7 296Q313.95 284.65 311.65 267.9Q307.65 238.7 301.05 209.65L287.95 152.65Q287.5 194.85 286.45 237.75Q285.8 266 280.95 291.5Q279.35 291.1 278.7 289.5Q279.7 230.25 281.8 170.95Q282.45 152.85 285.05 136.05Q284.9 131.8 285.35 127.5Q285.5 125.9 286.85 125.75L288.2 119.25L288.15 128.7Q301.25 184.45 314.9 240.25Q319.1 257.65 321.6 274.85Q323.2 221.8 323.7 168.25Q323.95 142.9 330.2 120.75Q328.6 179.05 329 239.25Q329.15 264.75 324.7 288.75M225.95,116.75Q228.25 110.05 238.45 112.75Q270.6 139.95 245.95 174.85Q242.55 179.6 237.6 182.5Q256.95 233.2 266.3 287.05Q266.95 290.85 264.45 293.75Q257.85 282.05 254.95 266.3Q250.5 242.35 243.35 218.85Q238.05 201.35 234.9 183.85L234.3 184.1Q230.9 185.5 227.8 185.4Q223.85 219.1 223.15 253.25Q222.9 267.5 218.45 280.25Q213.35 267.45 215.65 250.75Q217.7 235.85 218.9 220.9L222.1 183.7L220.7 182.75Q220.2 180.9 220.15 179Q220.15 177.05 220.7 175.25L222.85 175.25Q225.1 150.45 227.7 125.75Q226.5 121.6 227.3 117.6L225.95 116.75M229.9,118.85Q233.3 146.8 229.15 174.7Q241.85 173.4 247.35 162.05Q258.9 138.3 239.7 120.5L229.9 118.85M192.2,110Q200.15 167.65 205.75 226.8Q209.95 271 213.5 315.45Q217.35 364.1 219.55 412.25Q219.6 413.6 218.45 414.45Q212.35 402.2 211.5 386Q208.65 330.3 203.5 275L203.2 275.75Q182.85 273.1 161.85 275.2L161.5 276.75Q148.85 334.4 132.55 391.3Q127.95 407.4 122.45 420.95Q119.6 392.05 131.1 362.6Q142.05 334.65 149 305.7Q162.8 248.05 172.8 189.7Q179.15 152.6 190.9 117.45Q191.4 113.65 192.2 110M79.25,104.75Q92.05 161.95 119.85 213.55Q133.3 160.35 156.45 111.5L155.8 118.75Q154.95 125.95 153.1 132.95Q138.7 186.8 120.45 235.65Q99.6 327.35 69.75 415.85Q67 412.1 67.8 405.2Q68.2 401.55 68.85 398Q69.5 394.25 70.65 390.65L72.7 383.4Q91.85 306.35 114.5 230.25L114.05 228.55Q113.7 226.65 112.9 225.05Q82 162.8 73.5 97.95L77.25 103L79.25 104.75M308.85,290.35Q317.15 324 322.55 358.95Q326.1 381.7 332.6 403.15Q335.3 411.9 330.7 419.95Q324.7 412.95 322.5 403.95Q320.25 394.65 319.05 385.4Q313.9 345.5 309.55 305.35L282.95 385.2L281.7 379L281.45 381.5L279.15 380.1L267.2 301.45Q267.7 311.9 264.6 321.95Q258.4 342.3 254.55 363.15Q249.85 388.8 240.7 412.95Q239.6 410.85 239.45 408.4Q237.95 387.3 245.3 366.55Q252.1 347.2 256.2 326.75Q260.2 306.95 267.45 293.5L270.55 302.45Q281.1 333.4 281.8 366.15L307.95 290L308.8 292.05L308.85 290.35M202.45,264.5L189.95 143.1L163.75 266.5Q167.75 265.2 172.05 264.65L187.7 263.1L192.25 262.8L196.85 263.25L201.35 264.2L202.45 264.5" />
</g>
</svg>
