<?xml version="1.0" encoding="utf-8"?>
<svg version="1.1" id="Layer_1"
xmlns="http://www.w3.org/2000/svg"
xmlns:xlink="http://www.w3.org/1999/xlink"


xml:space="preserve">
q-21.95 3.45 -35.6 20.5q-12 15.05 -16.5 33.9q-4.9 20.4 -5.55 41.3q-0.65 21.05 2.2 41.75q3.25 23.65 22.95 35.7q19.45 11.8 41.3 4.3q19.85 -6.95 26.55 -26.65q12.6 -16.85 6 -47.55q-1.45 -6.6 -1.95 -13.35q-12.25 -4 -23.6 2.05q-3.65 1.9 -6.8 4.45q6.8 -2.15 15.35 -3.4q5.65 -0.7 11.1 0.9q-7.65 12.8 -20.35 20.45q-7.95 4.75 -17.05 6.35q-8.3 -0.45 -15.35 -4.3q-12.4 -6.85 -16.65 -22.65q-10.5 -39.2 -0.95 -78.9q6.45 -26.8 30.1 -40.4q24.35 -14.05 48.65 0.55q-7.65 -9.4 -19.75 -10.05q-4.45 -0.35 -9 -0.2q-6.2 10.05 -11.8 21.7q-18.7 38.75 -33.8 79.05q-18.35 -42.2 -41.6 -82.5q-0.55 -3.25 -3.15 -5.25q-1.35 -2.95 -2.3 -6.05q-0.35 -1.75 -1.55 -2.95q-2.6 -0.3 -2.45 2.2q0.55 10 5.45 19.4q4.8 9.4 10.15 16.75q-4.55 12.3 -8.7 24.75q-9.15 27.25 -11.7 55.25q0.6 1.65 2.25 2q5.9 -13.5 10 -28.85q6.45 -24.5 16.15 -48.2q22.1 -54.3 41.8 -109.4q-0.55 -1.3 -1.5 -2.25q-8.9 7.45 -2.45 15.65q8.6 -6.65 2.75 -15.6q-1.9 17.6 -4.45 35.05q-3.2 21.6 4.9 39.95q4.35 2.7 8.5 0q15.7 -9.4 12.5 -25.5q-5.7 7.55 -14 12.5q-4.05 2.15 -5.75 -1q-1.1 -17.95 1.75 -35.85q2.85 -18.3 1.25 -35.4q-4 3.75 -4.7 10.25<g id="2635" transform="matrix(1, 0, 0, 1, -139.65, 0)">
<path style="fill:#000000;fill-opacity:1" d="M382.95,183.7Q395.05 184.35 402.7 193.75L404.45 202.75Q380.15 188.15 355.8 202.2Q332.15 215.8 325.7 242.6Q316.15 282.3 326.65 321.5Q330.9 337.3 343.3 344.15Q350.35 348 358.65 348.45L373.2 347.7Q382.3 346.1 390.25 341.35Q402.95 333.7 410.6 320.9L410.45 317.7Q405 316.1 399.35 316.8Q390.8 318.05 384 320.2L383.45 312.7Q386.6 310.15 390.25 308.25Q401.6 302.2 413.85 306.2Q414.35 312.95 415.8 319.55Q422.4 350.25 409.8 367.1L409.3 334.3Q402.6 354 382.75 360.95Q360.9 368.45 341.45 356.65Q321.75 344.6 318.5 320.95Q315.65 300.25 316.3 279.2Q316.95 258.3 321.85 237.9Q326.35 219.05 338.35 204Q352 186.95 373.95 183.5Q378.5 183.35 382.95 183.7M240.7,183.25L240.95 184Q221.25 239.1 199.15 293.4Q189.45 317.1 183 341.6Q178.9 356.95 173 370.45Q171.35 370.1 170.75 368.45Q173.3 340.45 182.45 313.2Q186.6 300.75 191.15 288.45Q185.8 281.1 181 271.7L145.25 202.1Q140.35 192.7 139.8 182.7Q139.65 180.2 142.25 180.5Q143.45 181.7 143.8 183.45L144 184.25L146 185.75Q146.95 188.85 148.3 191.8L148.75 193.25Q151.35 195.25 151.9 198.5L152 199.25Q175.25 239.55 193.6 281.75Q208.7 241.45 227.4 202.7Q233 191.05 239.2 181Q240.15 181.95 240.7 183.25M265.25,263.75Q258.8 255.55 267.7 248.1L268 248.15Q273.85 257.1 265.25 263.75M265.2,280.45Q266.8 297.55 263.95 315.85Q261.1 333.75 262.2 351.7Q263.9 354.85 267.95 352.7Q276.25 347.75 281.95 340.2Q285.15 356.3 269.45 365.7Q265.3 368.4 260.95 365.7Q252.85 347.35 256.05 325.75Q258.6 308.3 260.5 290.7Q261.2 284.2 265.2 280.45" />
</g>
</svg>
