<?xml version="1.0" encoding="utf-8"?>
<svg version="1.1" id="Layer_1"
xmlns="http://www.w3.org/2000/svg"
xmlns:xlink="http://www.w3.org/1999/xlink"


xml:space="preserve">
q-4.3 6.25 -5.3 15.15q-6.45 58.5 -16.8 115.7q-2.7 14.65 -8.65 28.35q-7.25 16.7 0.25 29q3.3 -6.65 5.1 -13.95q14.1 -56.85 21.85 -115.6q3.15 -23.65 3.55 -46.4q2.15 24 7.2 48.4q3.7 18.05 5.6 36.25q1.55 14.75 6.75 26.05q-0.1 3.35 -0.05 6.75q4.9 -0.9 5.8 -7.45q4.35 -32.7 14.45 -64.1q3.85 -11.95 6.45 -23.85q0.7 10.5 2.55 20.95q10.4 57.75 16.3 116.15q1.4 13.9 9.95 20.05q0.75 -1 0.6 -2.2q-3.5 -33.9 -8.7 -68.35q-8.15 -53.75 -17.2 -106.5q-0.95 -0.15 -1.25 0.8q-1.45 -0.1 -1.6 1.5q-0.4 4.8 -0.55 9.65q-8.2 28.1 -17.45 56.35q-5.05 15.4 -7.25 31q-8.7 -51.1 -21.1 -100.6q20.8 44.45 38.75 89.1q-3.95 13.5 -7.5 27.05q-3.75 14.3 -9.4 27.85q-6.7 16.35 0.6 27.5q4.8 -8.45 7.2 -18.65q13.65 -57.4 32.75 -113.15q4.95 -14.55 11.8 -27.9q8.2 -15.9 3.45 -28q-5.55 8.7 -9.6 19.1q-15.1 38.75 -26.95 78.35q-15.8 -52.1 -42.9 -99.2q-0.75 0 -1.05 0.35q-5.05 6.2 0.05 13.9q8.4 -7.05 3.95 -17.15q-7.05 7.5 -4.35 17.15q3.5 -6.05 2.95 -13.1q-7.5 6.25 -17.1 8.05q4.1 -33.25 2.75 -66.75q-7.15 19.2 -10.05 39.8q-3.15 22.1 7.05 41.7q11.65 -0.25 17.3 -10.15<g id="2623" transform="matrix(1, 0, 0, 1, -135.4, 0)">
<path style="fill:#000000;fill-opacity:1" d="M328.25,182.9Q340.65 232.4 349.35 283.5Q351.55 267.9 356.6 252.5Q365.85 224.25 374.05 196.15Q374.2 191.3 374.6 186.5Q374.75 184.9 376.2 185L376.6 187.3L377.95 182.55Q378.25 181.6 379.2 181.75L377.9 194.65Q386.95 247.4 395.1 301.15Q400.3 335.6 403.8 369.5Q403.95 370.7 403.2 371.7Q394.65 365.55 393.25 351.65Q387.35 293.25 376.95 235.5Q375.1 225.05 374.4 214.55Q371.8 226.45 367.95 238.4Q357.85 269.8 353.5 302.5Q352.6 309.05 347.7 309.95Q347.65 306.55 347.75 303.2Q342.55 291.9 341 277.15Q339.1 258.95 335.4 240.9Q330.35 216.5 328.2 192.5Q327.8 215.25 324.65 238.9Q316.9 297.65 302.8 354.5Q301 361.8 297.7 368.45Q290.2 356.15 297.45 339.45Q303.4 325.75 306.1 311.1Q316.45 253.9 322.9 195.4Q323.9 186.5 328.2 180.25L328.25 182.9M142.75,196L140.5 193.75Q135.4 186.05 140.45 179.85Q140.75 179.5 141.5 179.5Q168.6 226.6 184.4 278.7Q196.25 239.1 211.35 200.35Q215.4 189.95 220.95 181.25Q225.7 193.35 217.5 209.25Q210.65 222.6 205.7 237.15Q186.6 292.9 172.95 350.3Q170.55 360.5 165.75 368.95Q158.45 357.8 165.15 341.45Q170.8 327.9 174.55 313.6Q178.1 300.05 182.05 286.55Q164.1 241.9 143.3 197.45L142.75 196M254.85,262.9Q252.15 253.25 259.2 245.75Q263.65 255.85 255.25 262.9L254.85 262.9M252.45,362.7Q242.25 343.1 245.4 321Q248.3 300.4 255.45 281.2Q256.8 314.7 252.7 347.95L255.6 347.5Q265.2 345.7 272.7 339.45Q273.25 346.5 269.75 352.55Q264.1 362.45 252.45 362.7" />
</g>
</svg>
