<?xml version="1.0" encoding="utf-8"?>
<svg version="1.1" id="Layer_1"
xmlns="http://www.w3.org/2000/svg"
xmlns:xlink="http://www.w3.org/1999/xlink"


xml:space="preserve">
q-0.5 0.3 -1.05 1.1q-4.75 7.45 -1.95 16.4q1.45 3.2 4.8 2.4q0.85 -1.05 1.3 -2.25q3.1 -8.9 -0.55 -17.25q-0.5 -0.4 -1.05 -0.55q-3.2 20.45 3.15 38.45q24.35 -2.75 24.75 -26.75q-8.35 4.85 -17.25 11.5q3.5 -34.2 2.2 -67.5q-5.95 9.3 -6 22q-0.1 11.95 -1.9 23.8q-3.3 19.6 4.5 39.95q6.65 17.3 12.75 34.95q6.8 19.55 14.35 38.9q1.35 3.35 3.3 6.55q-20.6 33 -18.2 67.65q0.15 2.35 1.85 4.3q26.35 -76.7 57.55 -156.3q4.95 -12.65 5.45 -26.4<g id="2620" transform="matrix(1, 0, 0, 1, -163.2, 0)">
<path style="fill:#000000;fill-opacity:1" d="M346.15,242.45Q346.7 242.6 347.2 243Q350.85 251.35 347.75 260.25Q347.3 261.45 346.45 262.5Q343.1 263.3 341.65 260.1L340.95 259.5Q338.15 250.55 342.9 243.1Q343.45 242.3 343.95 242L346.15 242.45M337.2,302.95Q337.25 290.25 343.2 280.95Q344.5 314.25 341 348.45L340.95 349.2L345.95 349.95Q354.85 343.3 363.2 338.45Q362.8 362.45 338.45 365.2Q332.1 347.2 335.3 326.75Q337.1 314.9 337.2 302.95M248.05,190.85Q247.55 204.6 242.6 217.25Q211.4 296.85 185.05 373.55Q183.35 371.6 183.2 369.25Q180.8 334.6 201.4 301.6Q199.45 298.4 198.1 295.05Q190.55 275.7 183.75 256.15Q177.65 238.5 171 221.2Q163.2 200.85 166.5 181.25L205.85 289.8L248.2 180.25L248.05 190.85" />
</g>
</svg>
