<?xml version="1.0" encoding="utf-8"?>
<svg version="1.1" id="Layer_1"
xmlns="http://www.w3.org/2000/svg"
xmlns:xlink="http://www.w3.org/1999/xlink"


xml:space="preserve">
q34.15 -0.4 38.15 32.7q0.6 4.8 -1.05 9.05q-11.8 30.15 -45.95 36.7q0.7 -38.55 -0.45 -76.6q4.65 -1.75 9.3 -1.85q-0.6 -0.2 -0.65 0.25q-3.4 49.5 -4.45 99.45q-0.65 30.4 -5 59.8q-2.4 16.3 1.85 29.95q1.5 -0.45 1.75 -2q5.35 -34.1 6.6 -68.95q4.25 -3.1 9.45 -4.7q4.7 -1.45 9 -3.65q6.2 21.2 15.05 41.6q11.85 27.5 27 51.2q3 -3 1.25 -6.9q-20.1 -44.5 -37.5 -90.55q6.4 -4.45 11.55 -10.75q26.6 -32.55 2.45 -68q-10.9 -11.7 -27.35 -13.15q-3.25 0.35 -6.8 1.75q-3.9 1.5 -6.8 4.55q-22.6 44.6 -37.45 92.3q-4.75 -21.7 -16.25 -42.05q-15.45 -27.1 -20.9 -54.65q-3.2 1.8 -1.65 6.45q17.75 52.2 40 101.8q-3.85 14.15 -8.95 28q-7.95 21.6 -4.6 41.85q1.1 -0.5 1.35 -1.25q8.4 -28.5 20.95 -55.8q9.8 -21.2 12.1 -41.85q-1.6 0.45 -2.6 2.4q-5.8 10 -2.2 21.4q4.95 -3.6 6.45 -9.7q1.5 -6.25 -1.35 -11.25q-1.5 17.3 6.7 30.15q18.95 -7.7 15.5 -24q-9.8 7.9 -20.75 10.25q-0.25 -0.35 -0.2 -0.75q0.75 -35.55 1.95 -69.75q-6.15 10.8 -7.2 25.9<g id="2634" transform="matrix(1, 0, 0, 1, -139.3, 0)">
<path style="fill:#000000;fill-opacity:1" d="M334.65,195.2Q335.8 233.25 335.1 271.8Q369.25 265.25 381.05 235.1Q382.7 230.85 382.1 226.05Q378.1 192.95 343.95 193.35Q339.3 193.45 334.65 195.2M341.15,182.5Q344.7 181.1 347.95 180.75Q364.4 182.2 375.3 193.9L376.2 194.75Q400.35 230.2 373.75 262.75Q368.6 269.05 362.2 273.5Q379.6 319.55 399.7 364.05Q401.45 367.95 398.45 370.95Q383.3 347.25 371.45 319.75Q362.6 299.35 356.4 278.15L356.15 277.1Q351.85 279.3 347.15 280.75Q341.95 282.35 337.7 285.45L334.8 285.5L334.3 301.25Q333.05 336.1 327.7 370.2Q327.45 371.75 325.95 372.2Q321.7 358.55 324.1 342.25Q328.45 312.85 329.1 282.45Q330.15 232.5 333.55 183Q333.6 182.55 334.2 182.75L334.35 187.05Q337.25 184 341.15 182.5M223.2,183.5Q220.9 204.15 211.1 225.35Q198.55 252.65 190.15 281.15L164.85 367.7Q164.6 368.45 163.5 368.95Q160.15 348.7 168.1 327.1Q173.2 313.25 177.05 299.1L180.85 285.75Q158.6 236.15 140.85 183.95Q139.3 179.3 142.5 177.5L146.25 181.35L146 181.5Q151.45 209.05 166.9 236.15Q178.4 256.5 183.15 278.2Q198 230.5 220.6 185.9Q221.6 183.95 223.2 183.5M271.15,247Q274 252 272.5 258.25Q271 264.35 266.05 267.95L265.75 267.9Q262.15 256.5 267.95 246.5L271.15 247M259,305.85Q260.05 290.75 266.2 279.95Q265 314.15 264.25 349.7Q264.2 350.1 264.45 350.45Q275.4 348.1 285.2 340.2Q288.65 356.5 269.7 364.2L263.45 364.45Q255.25 351.6 256.75 334.3L259 305.85" />
</g>
</svg>
