<?xml version="1.0" encoding="utf-8"?>
<svg version="1.1" id="Layer_1"
xmlns="http://www.w3.org/2000/svg"
xmlns:xlink="http://www.w3.org/1999/xlink"


xml:space="preserve">
q-7.2 16.35 -5.25 36.4q1.45 14.5 1.4 29.15q2.45 36.55 0.95 75.7q-2.05 2.75 -1.9 7.1q10.95 5.25 22.85 5.9q14.95 -0.35 28.15 -7.45q5.55 -4.3 7.45 -10.85q10.4 -36.15 -9.5 -67.65q-7.95 -12.65 -22.3 -17.65q8.05 -5.9 13.5 -14.2q10.85 -17.3 2.95 -36.2q-4.05 -7.75 -11.25 -12.75q-18.2 -12.6 -39.85 -8.8q-13.35 16.65 -34.45 22.2q21.9 2 40.05 14.45q21.45 14.6 4.45 35.7q16.1 1.4 28.6 11.2q16.3 21.15 13.15 47.65q-0.95 7.75 -4.9 14.6q-28.45 13.65 -59.2 5.85q5.1 -38.1 3.2 -76.55q-17.65 35.35 -31.45 72.35q-20.75 -38.15 -42.75 -75.6q-1.65 -0.3 -2.3 1.1q-1.55 3.1 -0.7 6.65q13.9 19.85 23 42.5q7.85 19.55 18.95 35.7q-4.65 12.95 -8.8 26.1q-8.8 27.85 -20.4 54.8q-5.8 13.45 2.5 20.85q5.55 -12.5 9.5 -26.2q16.3 -56.6 39.45 -110.8q4.5 -10.5 10.15 -20.25q8.45 -14.45 5.6 -28.7q-28.8 35.5 -20.7 81.2q1.45 8.3 8.6 11.05q28.05 10.85 41.35 -13.85q0.6 -1.45 0.5 -3.05q-0.1 -1.5 -0.9 -2.9q-16.6 15.25 -39.15 13.5q-3.75 -0.3 -4.7 -3.7q-4.3 -15.45 -2.8 -29.5q20.1 3.9 37.4 -3.55q0.8 -3.05 -0.5 -6q-17.3 -2.3 -32.95 2.1q4.45 -16.35 17.2 -30.6q14.8 -1.8 27.5 4.5q1.6 -1.85 1.05 -4.45q-11.1 -8.6 -26.25 -6.3q-1.7 1.15 -3.25 3.05<g id="2639" transform="matrix(1, 0, 0, 1, -141.4, 0)">
<path style="fill:#000000;fill-opacity:1" d="M339.3,180.35Q360.95 176.55 379.15 189.15Q386.35 194.15 390.4 201.9L393.05 207.5Q400.95 226.4 390.1 243.7L386.75 249Q381.3 257.3 373.25 263.2Q387.6 268.2 395.55 280.85Q415.45 312.35 405.05 348.5Q403.15 355.05 397.6 359.35L392.2 362.9Q379 370 364.05 370.35L358.1 370.35Q346.2 369.7 335.25 364.45L334.6 366.4L334.4 366.4L333.55 363.85L333.35 363.4L332.6 361.25L332.2 358.95L332.05 357.15Q331.9 352.8 333.95 350.05Q335.45 310.9 333 274.35L332.45 264.25L334.3 264.05L334.3 248Q334.35 233.35 332.9 218.85Q330.95 198.8 338.15 182.45L339.3 180.35M378.5,202.95Q360.35 190.5 338.45 188.5L340.55 263L348.5 260.85Q369.6 255.3 382.95 238.65Q399.95 217.55 378.5 202.95M340.7,274.5Q342.6 312.95 337.5 351.05Q368.25 358.85 396.7 345.2Q400.65 338.35 401.6 330.6Q404.75 304.1 388.45 282.95L387.3 282.15Q374.8 272.35 358.7 270.95L340.7 274.5M221.55,183.15L222.2 183Q225.05 197.25 216.6 211.7Q210.95 221.45 206.45 231.95Q183.3 286.15 167 342.75Q163.05 356.45 157.5 368.95Q149.2 361.55 155 348.1Q166.6 321.15 175.4 293.3Q179.55 280.15 184.2 267.2Q173.1 251.05 165.25 231.5Q156.15 208.85 142.25 189Q141.4 185.45 142.95 182.35Q143.6 180.95 145.25 181.25Q167.25 218.7 188 256.85Q201.8 219.85 219.45 184.5L221.55 183.15M262.95,269.5Q278.1 267.2 289.2 275.8L289.95 276.45L290.2 277.2L291.25 281Q291.8 283.6 290.2 285.45Q277.5 279.15 262.7 280.95Q249.95 295.2 245.5 311.55Q261.15 307.15 278.45 309.45L280.15 310.55L280.95 311.2Q282.25 314.15 281.45 317.2L280.95 318.7Q263.65 326.15 243.55 322.25Q242.05 336.3 246.35 351.75Q247.3 355.15 251.05 355.45Q273.6 357.2 290.2 341.95L290.85 342.8Q291.65 344.2 291.75 345.7Q291.85 347.3 291.25 348.75L290.95 349.45L289.95 350.2L288.95 350.95Q275.65 375.65 247.6 364.8Q240.45 362.05 239 353.75Q230.9 308.05 259.7 272.55Q261.25 270.65 262.95 269.5" />
</g>
</svg>
