<?xml version="1.0" encoding="utf-8"?>
<svg version="1.1" id="Layer_1"
xmlns="http://www.w3.org/2000/svg"
xmlns:xlink="http://www.w3.org/1999/xlink"


xml:space="preserve">
q-19.2 -22.35 -47.9 -27.3q-2.55 -0.45 -4.75 -1.55q-1.95 58.35 -0.85 118.15q1.1 59.6 0.95 119.25q-0.1 33.75 -3.45 66.8q1.25 -0.35 2.65 1.1q52.85 -8.95 66.95 -59.3q4.1 -14.8 8.7 -29.45q18.05 -57.9 9.2 -117.45q-6 -40.35 -32.2 -70.8q-0.7 -2.95 -0.6 -6q0.1 -2.2 1.85 -2.75q20.2 6.05 38.4 16.05q30 16.45 41.3 48.7q19.8 56.5 12.1 116.35q-7.55 58.9 -33 112.55q-9.7 20.55 -30.3 31.05q-13.6 6.95 -28.25 7q-6.05 -12.05 -3.8 -29.2q3.95 -29.65 4.15 -59.75q0.45 -59.65 -0.45 -119.25q-0.85 -57.15 3.55 -113.25q0.15 -1.55 1.5 -1.7q-20.65 39.9 -18.8 87.2q2.3 59.65 0.4 119.25q-0.7 22.05 -2.35 44.1q-2.85 38.15 10.1 71.35q8.3 6.1 18.25 6.75q26.45 -9.4 27.25 -36q-2.65 1.05 -4.5 3.45q-3.85 4.95 -7 10.3q-11.45 11.5 -25.35 6.9q-6.95 -2.3 -7.7 -9.05q-6.45 -58.95 -4.45 -119.1q0.5 -14.25 0.35 -28.45q2.1 -4.95 -0.95 -8.95q-18.4 -0.35 -34.75 5.25q-0.25 -12.05 -0.95 -24.15q-3.05 -53.25 8.9 -103.7q5.1 -21.65 25.55 -15.15q1.75 2.85 2.6 6.1q1.05 4 3.65 5.9q3.45 -20.65 -16.7 -24.7q-6.45 0.95 -9.6 7.05q-20.3 -0.2 -41.25 0q-2.75 -58.45 -1.6 -118.45q1.1 -59.85 -2.05 -119.25q-1.3 -23.75 4.4 -44.75q-0.85 58.9 1.25 118.55q1.65 44.65 2.2 89.2q0.35 30.2 -0.2 60.7q18.6 -0.1 37.75 2q3.15 6.25 -0.5 12q0.7 59.6 0.25 119.25q-0.25 36.7 -1.25 73.45q27.65 -0.2 56.1 -2.75q3.5 2.6 3.75 6.75q-7.05 6.85 -16.5 11.75q-27.45 -2.65 -55 -0.5q0.9 -59.75 -0.85 -119.25q-1.35 -44.5 3.3 -87.45q33.55 -1.2 45.95 26.9q1.25 2.85 -0.95 4.85q-7.3 -6 -17.15 -11.65q-23.7 -13.5 -45.1 2.25q-16.05 11.8 -23.2 30.6q-19.6 51.35 -20.5 107.55q-0.1 7.15 -0.05 14.25q32.5 -2.75 66.5 -2.25q3.55 4.75 0.85 10.4q-33.5 0.55 -66.65 -1.75q0.75 41.5 7.05 82q6.55 41.75 43.85 58.95q13.65 6.3 27.4 -1.3q19.3 -10.65 36.85 -22.95q0.9 -0.15 1.55 -0.6q1.65 -1.2 1.95 1.05q-20.95 33.95 -62.05 37.9q-1.45 0.1 -2.95 -0.6q-45.85 -22.6 -52.05 -75q-6.8 -57.8 -4.85 -117.05q1.8 -52.45 19.15 -101q9.6 -26.9 33.9 -40.9q6.15 -3.55 12.35 -6.05q-14.7 56.95 -27.35 114.7q-12.65 57.9 -24.25 115.85q-9.8 48.9 -21.35 95.4q-1.75 -0.25 -2 -2q1.8 -36.25 10.1 -72.3q-23.3 -51.95 -40.7 -107.85q-1.4 -4.55 -1.6 -9.45q-0.15 -3.5 2.35 -5q19.4 54.65 41.55 109.65q10.1 -43.5 20.35 -87q3.2 -13.35 9.5 -23.75q1.15 0.85 1.55 2.25<g id="2647" transform="matrix(1, 0, 0, 1, -40.5, 0)">
<path style="fill:#000000;fill-opacity:1" d="M495.85,125.95Q476.65 103.6 447.95 98.65Q445.4 98.2 443.2 97.1Q441.25 155.45 442.35 215.25Q443.45 274.85 443.3 334.5Q443.2 368.25 439.85 401.3Q441.1 400.95 442.5 402.4L443.2 402.95Q496.05 394 510.15 343.65Q514.25 328.85 518.85 314.2Q536.9 256.3 528.05 196.75Q522.05 156.4 495.85 125.95M440.7,95.5Q440 92.55 440.1 89.5Q440.2 87.3 441.95 86.75L442.2 86.75Q462.4 92.8 480.6 102.8Q510.6 119.25 521.9 151.5Q541.7 208 534 267.85Q526.45 326.75 501 380.4Q491.3 400.95 470.7 411.45Q457.1 418.4 442.45 418.45L438.35 414.85L437.7 419.95Q431.65 407.9 433.9 390.75Q437.85 361.1 438.05 331Q438.5 271.35 437.6 211.75Q436.75 154.6 441.15 98.5Q441.3 96.95 442.65 96.8L440.7 95.5M393.95,85.75Q414.1 89.8 410.65 110.45L410.2 111.25Q407.6 109.35 406.55 105.35Q405.7 102.1 403.95 99.25Q383.5 92.75 378.4 114.4Q366.45 164.85 369.5 218.1Q370.2 230.2 370.45 242.25Q386.8 236.65 405.2 237Q408.25 241 406.15 245.95L405.7 246.75L370.95 250.5L370.55 249.5Q370.7 263.7 370.2 277.95Q368.2 338.1 374.65 397.05Q375.4 403.8 382.35 406.1Q396.25 410.7 407.7 399.2Q410.85 393.85 414.7 388.9Q416.55 386.5 419.2 385.45Q418.4 412.05 391.95 421.45Q382 420.8 373.7 414.7Q360.75 381.5 363.6 343.35Q365.25 321.3 365.95 299.25Q367.85 239.65 365.55 180Q363.7 132.7 384.35 92.8Q387.5 86.7 393.95 85.75M346.7,376.2Q326.4 376 305.45 376.2Q302.7 317.75 303.85 257.75Q304.95 197.9 301.8 138.5Q300.5 114.75 306.2 93.75Q305.35 152.65 307.45 212.3Q309.1 256.95 309.65 301.5Q310 331.7 309.45 362.2Q328.05 362.1 347.2 364.2Q350.35 370.45 346.7 376.2M276.2,93.75L277.45 212.25Q278.15 271.85 277.7 331.5Q277.45 368.2 276.45 404.95Q304.1 404.75 332.55 402.2L336.95 401.45L339.2 400.95Q342.7 403.55 342.95 407.7Q335.9 414.55 326.45 419.45Q299 416.8 271.45 418.95L273.4 300.5Q274.3 240.75 272.55 181.25Q271.2 136.75 275.85 93.8L276.2 93.75M182.95,83.75Q216.5 82.55 228.9 110.65Q230.15 113.5 227.95 115.5Q220.65 109.5 210.8 103.85Q187.1 90.35 165.7 106.1Q149.65 117.9 142.5 136.7Q122.9 188.05 122 244.25Q121.9 251.4 121.95 258.5Q154.45 255.75 188.45 256.25Q192 261 189.3 266.65L188.7 267.5Q155.2 268.05 122.05 265.75Q122.8 307.25 129.1 347.75Q135.65 389.5 172.95 406.7Q186.6 413 200.35 405.4Q219.65 394.75 237.2 382.45L238.2 382.25Q239.1 382.1 239.75 381.65Q241.4 380.45 241.7 382.7L241.6 383.45L240.85 384.9L239.45 386.45Q218.5 420.4 177.4 424.35Q175.95 424.45 174.45 423.75Q128.6 401.15 122.4 348.75Q115.6 290.95 117.55 231.7Q119.35 179.25 136.7 130.7Q146.3 103.8 170.6 89.8Q176.75 86.25 182.95 83.75M116.75,84L116.95 84.75Q102.25 141.7 89.6 199.45Q76.95 257.35 65.35 315.3Q55.55 364.2 44 410.7Q42.25 410.45 42 408.7Q43.8 372.45 52.1 336.4L78.7 221.15L82.95 202.8Q59.65 150.85 42.25 94.95Q40.85 90.4 40.65 85.5Q40.5 82 43 80.5Q62.4 135.15 84.55 190.15L85.35 192.5Q95.45 149 105.7 105.5Q108.9 92.15 115.2 81.75Q116.35 82.6 116.75 84" />
</g>
</svg>
