<?xml version="1.0" encoding="utf-8"?>
<svg version="1.1" id="Layer_1"
xmlns="http://www.w3.org/2000/svg"
xmlns:xlink="http://www.w3.org/1999/xlink"


xml:space="preserve">
q-2.3 23.4 -3.8 46.75q-1.7 27.65 -2.25 55.2q1.15 0.25 1.25 0q5.85 -11.65 6.6 -25.7q0.65 -12.55 0.8 -24.95q9.85 1.05 20 -0.95q-0.65 12.8 -2.65 25.35q-2.5 15.4 4 26.5q3.45 -26.35 4.3 -52.6q3.75 -7.2 -0.85 -13.45q0.1 -19.75 -1.25 -39.45q-5.4 18 -4.9 38.95q-10.25 1.15 -20.25 3.85q-0.2 -21.25 -1.9 -42.15q-0.5 0.1 -0.5 0.25q-3.25 -25.5 -27.4 -14.25q-18.9 8.85 -25.8 29.6q-7 21.1 -1.25 42.25q3.95 14.4 16.05 23.15q21.7 0.7 34.5 -16.7q4.35 -5.9 2.1 -12.55q-0.7 -2 -2.4 -1.95q-13.05 15.85 -33.7 15.95q-14.6 -10.2 -12.85 -28.1q18.85 -5 38.35 -3.9q4 -5.1 1.45 -11.4q-19.1 -3.35 -36.7 4.55q6.7 -24.2 29.55 -31.3q-27.7 -49.45 -55.1 -99q-3.8 1.55 -1.8 6.35q22.45 53.85 55.25 102.1q2.05 -0.55 2.5 -2.65q0.85 -3.7 -0.85 -6.8q21.65 -54.7 42.7 -109.7q5.3 -13.8 11.9 -27.05q10.3 -20.65 10.65 -42q-20.9 39.45 -36.9 83.6q-15.15 41.9 -34.8 81.65q-7.9 16.05 0 27.45q3.55 -6.7 6.45 -13.95<g id="2638" transform="matrix(1, 0, 0, 1, -159.7, 0)">
<path style="fill:#000000;fill-opacity:1" d="M364.2,262Q365.9 282.9 366.1 304.15Q376.1 301.45 386.35 300.3L386.3 299.2Q385.8 278.25 391.2 260.25Q392.55 279.95 392.45 299.7Q397.05 305.95 393.3 313.15L392.7 313.95L392.2 314.1Q391.35 340.35 387.9 366.7L387.45 367.45Q380.95 356.35 383.45 340.95Q385.45 328.4 386.1 315.6Q375.95 317.6 366.1 316.55Q365.95 328.95 365.3 341.5Q364.55 355.55 358.7 367.2Q358.6 367.45 357.45 367.2Q358 339.65 359.7 312L359.9 309Q361.4 285.65 363.7 262.25Q363.7 262.1 364.2 262M324.7,273.7Q301.85 280.8 295.15 305Q312.75 297.1 331.85 300.45L332.9 302.55Q335.45 308.85 331.45 313.95Q311.95 312.85 293.1 317.85Q291.35 335.75 305.95 345.95Q326.6 345.85 339.65 330Q341.35 329.95 342.05 331.95Q344.3 338.6 339.95 344.5Q327.15 361.9 305.45 361.2Q293.35 352.45 289.4 338.05Q283.65 316.9 290.65 295.8Q297.55 275.05 316.45 266.2Q340.6 254.95 343.85 280.45L324.7 273.7M219.45,283.55Q219 285.65 216.95 286.2Q184.15 237.95 161.7 184.1Q159.7 179.3 163.5 177.75Q190.9 227.3 218.6 276.75Q220.3 279.85 219.45 283.55M193.75,371.2Q185.85 359.8 193.75 343.75Q213.4 304 228.55 262.1Q244.55 217.95 265.45 178.5Q265.1 199.85 254.8 220.5Q248.2 233.75 242.9 247.55Q221.85 302.55 200.2 357.25Q197.3 364.5 193.75 371.2" />
</g>
</svg>
