<?xml version="1.0" encoding="utf-8"?>
<svg version="1.1" id="Layer_1"
xmlns="http://www.w3.org/2000/svg"
xmlns:xlink="http://www.w3.org/1999/xlink"


xml:space="preserve">
q5.8 7.65 13.75 12.8q1.25 0.85 2.75 1.45q-1.45 -17.6 -17.25 -25.95q-22.75 3.7 -28.5 27.45q-5.15 21.15 8.8 37.55q14.2 16.7 23.9 36.2q9.7 19.4 10.2 40.5q0.55 24.85 -23.4 30.35q-23.35 5.35 -34.95 -12.55q-10 -15.35 -11.6 -33.85q-9.7 18.35 -1.4 39.15q8.3 20.7 29.05 24.45q12.65 2.15 24.65 -2.7q23.05 -9.15 24.85 -36.25q3.15 -48 -30.8 -82.45q-13.4 -13.65 -12.25 -32.75q1.25 -20.6 22.05 -21.55q-5.35 -35.4 -13.25 -70.65q-12.9 -57.85 -32.95 -112.4q0.65 21 7.5 43.9q5.2 17.55 9.85 35.3q-22.3 -1.75 -43 3.25q10.65 -28.8 20.75 -57.75q5.15 -14.65 4.9 -28.2q-7.6 7.15 -11.05 18.6q-17 56 -38.2 110.15q-4.15 10.6 -10.7 19.85q-14.5 20.4 -11.8 42.1q15.2 -24.15 25.95 -51.8q24.25 1.55 49.6 0.25q8.1 32.7 14.15 66q2.9 16.05 10.05 27.85q1.7 -0.85 1.45 -2.65q19.3 -37.8 32.85 -78.5q14.4 -43.35 32.3 -85.45q5.05 -11.9 3.65 -24.65q-21.1 44.25 -37.15 90.75q0.95 19 9.05 38.5q5.55 12.95 13.1 24.75q-8.45 27.85 -20.95 54q-8.3 17.25 -8.7 36.4<g id="2667" transform="matrix(1, 0, 0, 1, -143.25, 0)">
<path style="fill:#000000;fill-opacity:1" d="M396.35,192.35Q375.55 193.3 374.3 213.9Q373.15 233 386.55 246.65Q420.5 281.1 417.35 329.1Q415.55 356.2 392.5 365.35Q380.5 370.2 367.85 368.05Q347.1 364.3 338.8 343.6Q330.5 322.8 340.2 304.45Q341.8 322.95 351.8 338.3Q363.4 356.2 386.75 350.85Q410.7 345.35 410.15 320.5Q409.65 299.4 399.95 280Q390.25 260.5 376.05 243.8Q362.1 227.4 367.25 206.25Q373 182.5 395.75 178.8L398.95 180.55Q414.75 188.9 416.2 206.5Q414.7 205.9 413.45 205.05Q405.5 199.9 399.7 192.25L396.35 192.35M324.95,370.95Q317.8 359.15 314.9 343.1Q308.85 309.8 300.75 277.1Q275.4 278.4 251.15 276.85L234.4 320.65Q223.65 348.3 208.45 372.45Q205.75 350.75 220.25 330.35Q226.8 321.1 230.95 310.5Q252.15 256.35 269.15 200.35Q272.6 188.9 280.2 181.75Q280.45 195.3 275.3 209.95Q265.2 238.9 254.55 267.7Q275.25 262.7 297.55 264.45Q292.9 246.7 287.7 229.15Q280.85 206.25 280.2 185.25Q300.25 239.8 313.15 297.65Q321.05 332.9 326.4 368.3Q326.65 370.1 324.95 370.95M151.95,369.2Q152.35 350.05 160.65 332.8Q173.15 306.65 181.6 278.8Q174.05 267 168.5 254.05L152.3 215.75Q144.2 196.25 143.25 177.25L184.05 271.5Q200.1 225 221.2 180.75Q222.6 193.5 217.55 205.4Q199.65 247.5 185.25 290.85Q171.7 331.55 152.4 369.35L151.95 369.2" />
</g>
</svg>
