<?xml version="1.0" encoding="utf-8"?>
<svg version="1.1" id="Layer_1"
xmlns="http://www.w3.org/2000/svg"
xmlns:xlink="http://www.w3.org/1999/xlink"


xml:space="preserve">
q-1.45 3.35 -0.25 6.4q-4.85 28.5 -6.25 59q-1 2.5 -1.05 5.2q0 1.95 0.35 3.75q0.25 1.25 0.95 2.25q-1.85 46.65 -2.7 92.7q6 -3.1 6.2 -12.75q0.9 -40.15 3.4 -80.05q10 -0.75 19.25 -4.85q12.05 55.25 37.4 105.15q1.7 -0.3 1.9 -2q1.6 -15.3 -5.45 -29.8q-17.65 -36.4 -30.45 -74.95q6.3 -3.3 12.25 -8.2q18.45 -20.05 16.15 -48.1q-2.8 -34.2 -37.4 -35.4q-6.8 0.05 -10.5 4.05q-8.2 19.85 -28.35 27.3q-5.8 2.05 -11.95 3.1q23.5 -5.8 35.15 14.5q7.55 13.2 1.5 27.9q-9.3 -37.75 -21.7 -75.45q-18.35 -55.65 -35.8 -111.45q-5.95 14.05 -10.65 29.75q-17.15 57.2 -38.95 112.05q-2.85 7.05 -6.7 13.25q-9.95 16.05 -4.2 29.2q19.1 -37.8 32.45 -78.75q23.55 0.75 47.5 -1.1q4.7 16.35 13.75 27.35q1.4 -1.15 1 -2.8q-14.1 42.1 -27.7 84.25q-16.9 -46 -41 -89.9q-1.85 -0.3 -1.6 1.4q3.85 25.4 16.75 49.55q12.3 22.9 24.2 44.1q-4.5 14.1 -10.4 27.95q-9.3 21.9 -6.5 42.7q1 -0.5 1.25 -1.25q16.3 -45 30.2 -90.4q8.65 -28.1 19.35 -55.7q8.4 -21.6 7.9 -42.6q-3.5 2.35 -5 6.65q5.45 -16 11.3 -31.9q7.9 -21.6 10.5 -43q5.3 19.5 11 38.8q-21.6 -0.35 -42.1 4.6<g id="2670" transform="matrix(1, 0, 0, 1, -141.65, 0)">
<path style="fill:#000000;fill-opacity:1" d="M363.45,184.55Q367.15 180.55 373.95 180.5Q408.55 181.7 411.35 215.9Q413.65 243.95 395.2 264Q389.25 268.9 382.95 272.2Q395.75 310.75 413.4 347.15Q420.45 361.65 418.85 376.95Q418.65 378.65 416.95 378.95Q391.6 329.05 379.55 273.8Q370.3 277.9 360.3 278.65Q357.8 318.55 356.9 358.7Q356.7 368.35 350.7 371.45Q351.55 325.4 353.4 278.75L352.45 278.7Q351.75 277.7 351.5 276.45Q351.15 274.65 351.15 272.7Q351.2 270 352.2 267.5L353.85 267.4L354.45 253.7Q355.85 223.2 360.7 194.7Q359.5 191.65 360.95 188.3L362.25 186.05L363.2 181L363.45 184.55M399.85,208.25Q388.2 187.95 364.7 193.75L361.05 266.55Q367.2 265.5 373 263.45Q393.15 256 401.35 236.15Q407.4 221.45 399.85 208.25M334.7,373.7Q325.65 362.7 320.95 346.35L300.75 276.4L300.1 277.4L299.45 277.95Q275.5 279.8 251.95 279.05L247.4 292.7Q234.05 333.65 214.95 371.45Q209.2 358.3 219.15 342.25Q223 336.05 225.85 329Q247.65 274.15 264.8 216.95Q269.5 201.25 275.45 187.2L276.4 184.95L278.2 180.75L278.05 184.05L278.2 184Q295.65 239.8 314 295.45Q326.4 333.15 335.7 370.9Q336.1 372.55 334.7 373.7M217.2,179.75Q217.7 200.75 209.3 222.35Q198.6 249.95 189.95 278.05Q176.05 323.45 159.75 368.45Q159.5 369.2 158.5 369.7Q155.7 348.9 165 327Q170.9 313.15 175.4 299.05L182.85 275.8Q170.95 254.6 158.65 231.7Q145.75 207.55 141.9 182.15Q141.65 180.45 143.5 180.75Q167.6 224.65 184.5 270.65Q198.1 228.5 212.2 186.4Q213.7 182.1 217.2 179.75M297.35,264.75L288.05 233.25Q282.35 213.95 277.05 194.45Q274.45 215.85 266.55 237.45Q260.7 253.35 255.25 269.35Q275.75 264.4 297.35 264.75" />
</g>
</svg>
