<?xml version="1.0" encoding="utf-8"?>
<svg version="1.1" id="Layer_1"
xmlns="http://www.w3.org/2000/svg"
xmlns:xlink="http://www.w3.org/1999/xlink"


xml:space="preserve">
q11.35 -16 11.2 -32.6q-28.5 41.35 -55.75 84q-4.5 4.3 -7.4 10.15q-2.75 5.4 -6.45 9.9q-6 7.2 -9 14.9q1.6 -30.35 3.9 -60.6q2.3 -30.25 0.7 -59.35q-6.8 34.35 -8.65 71.95q-2.85 59 -4.85 117.75q0.65 1.65 2.25 2q3.95 -5.75 4.2 -13.95q0.65 -20.15 1.6 -40.25q15.5 -25.35 31.85 -50.3q16 54.9 39.85 105.25q5.15 -7.6 1.05 -16.75q-10.7 -23.95 -18.2 -48.9q-7.55 -24.9 -17.45 -47.55q8.35 -12.3 16.95 -24.45q-18.1 47 -31.2 96.65q-17.6 -51.7 -42.95 -99.95q-2.3 0.6 -1.4 3.2q18.55 53.6 42.4 104.3q-5.5 21.5 -13.45 41.95q-8.45 21.8 -6.9 43.45q1.25 0 1.4 -0.45q9.8 -22.85 15.9 -47.65q14.2 -57.6 32.2 -113.85q4.7 -14.75 4.95 -28.5q-0.6 -0.2 -0.8 0.3q-5.7 17.45 -11.1 34.95q-2.15 7.1 -5.55 13.35q-8.25 15.1 -4.25 29.45q6.4 -6.1 8.95 -15.35q9.8 -35.15 20.65 -69.9q3.15 14.75 5.3 29.6q2.5 17.15 12.05 27.45q1.85 -1.6 2.1 -4.25q0.75 -7.55 -1.35 -14.75q-7.95 -27.35 -13.55 -55.3q-11 -54.95 -22.8 -108.9q0 -4.6 -0.65 -9q-4.4 2.6 -7.25 7.15q-16.25 26.1 -15.55 57.6q0.55 24.05 21.3 30.45q3.5 -1.5 6.5 -3.75q9.6 -7.15 6.25 -17.95q-3.8 4.45 -8.7 7.75q-3.35 2.25 -6.3 0.55q-15.4 -8.8 -14.8 -28.15q13.4 -1.5 26.3 -4.9q2 -4.85 -0.8 -9q-12.85 0.9 -24.65 4.85q3.45 -18.55 16.15 -31.85q0.75 -0.4 1.55 -0.45q4.1 -0.2 8.2 -0.05q3.35 2.45 4.8 6.15q0.65 1.6 1.7 2.6q1.9 -3.35 1.55 -7.25q-0.65 -8.3 -8.3 -12.5<g id="2672" transform="matrix(1, 0, 0, 1, -140.95, 0)">
<path style="fill:#000000;fill-opacity:1" d="M381.05,238.8L366.85 260Q376.75 282.65 384.3 307.55Q391.8 332.5 402.5 356.45Q406.6 365.6 401.45 373.2Q377.6 322.85 361.6 267.95Q345.25 292.9 329.75 318.25Q328.8 338.35 328.15 358.5Q327.9 366.7 323.95 372.45Q322.35 372.1 321.7 370.45Q323.7 311.7 326.55 252.7Q328.4 215.1 335.2 180.75Q336.8 209.85 334.5 240.1Q332.2 270.35 330.6 300.7Q333.6 293 339.6 285.8Q343.3 281.3 346.05 275.9Q348.95 270.05 353.45 265.75Q380.7 223.1 409.2 181.75Q409.35 198.35 398 214.35Q389.4 226.5 381.05 238.8M218.2,181Q217.95 194.75 213.25 209.5Q195.25 265.75 181.05 323.35Q174.95 348.15 165.15 371Q165 371.45 163.75 371.45Q162.2 349.8 170.65 328Q178.6 307.55 184.1 286.05L184.25 285.5Q160.4 234.8 141.85 181.2Q140.95 178.6 143.25 178Q168.6 226.25 186.2 277.95Q199.3 228.3 217.4 181.3Q217.6 180.8 218.2 181M255.85,189Q267.65 242.95 278.65 297.9Q284.25 325.85 292.2 353.2Q294.3 360.4 293.55 367.95Q293.3 370.6 291.45 372.2Q281.9 361.9 279.4 344.75Q277.25 329.9 274.1 315.15L267.6 283.35L227.1 286.2Q216.25 320.95 206.45 356.1Q203.9 365.35 197.5 371.45Q193.5 357.1 201.75 342Q205.15 335.75 207.3 328.65L241.85 215.95Q247.25 198.45 252.95 181L255 180.05L255.2 180Q255.85 184.4 255.85 189M309.2,182Q316.85 186.2 317.5 194.5Q317.85 198.4 315.95 201.75Q314.9 200.75 314.25 199.15Q312.8 195.45 309.45 193Q305.35 192.85 301.25 193.05Q300.45 193.1 299.7 193.5Q287 206.8 283.55 225.35Q295.35 221.4 308.2 220.5Q311 224.65 309 229.5L308.7 230.25Q295.8 233.65 282.4 235.15Q281.8 254.5 297.2 263.3Q300.15 265 303.5 262.75Q308.4 259.45 312.2 255Q315.55 265.8 305.95 272.95Q302.95 275.2 299.45 276.7Q278.7 270.3 278.15 246.25Q277.45 214.75 293.7 188.65Q296.55 184.1 300.95 181.5L309.2 182M253.25,205.95L231.9 274.45L265.05 270.35L253.25 205.95" />
</g>
</svg>
