<?xml version="1.0" encoding="utf-8"?>
<svg version="1.1" id="Layer_1"
xmlns="http://www.w3.org/2000/svg"
xmlns:xlink="http://www.w3.org/1999/xlink"


xml:space="preserve">
q-1.95 0.3 -2.25 2.45q-0.25 1.9 0.05 3.75q-1.85 27.95 -3.3 57.8q-2.95 59.3 -10.5 117.85q-3.95 30.55 -0.05 59.45q5.85 -9.3 6.55 -23.15q1.8 -36.4 5.95 -72.65q8.55 0.1 14.45 -6.5q0.3 9.15 2.4 19.2q12.1 57.8 21.15 116.05q2.5 15.9 7.3 28.3q2.8 -3.6 2.5 -8.15q-1.9 -27.05 -6.65 -53.55q-9.7 -53.8 -22.5 -106.85q27.15 -33.75 28.65 -79.15q1.55 -46.4 -43.25 -57.5q10.5 19.35 5.7 41.05q-4.7 21.35 -14.75 40.05q-4.5 8.3 -12.1 11.65q8.75 -62.7 3.2 -125.55q21.45 6.55 31.95 25.8q-4.05 1.8 -7.4 5.3q-17 17.8 -22.15 42.3q-12.55 59.5 13.85 114.6q16.1 33.5 24.45 69.85q9.3 40.15 -20.05 70.65q-42.7 44.45 -102.7 27q-0.45 0.2 -0.85 0.55q-1 2.55 -1.15 5.25q-0.15 3.25 1.4 6q15.1 8.15 32.5 7.85q66.75 -1.15 94.8 -60.2q7.15 -15.15 6.8 -31.65q-1.25 -58.65 -29.3 -112.15q-10.55 -20.15 -13 -42.45q-3.2 -29.25 2.15 -57.9q4.95 -26.45 27.55 -36.2q1.45 0.7 1.95 2.05q-0.2 1.25 0.65 2.1q0.65 -1.45 0.8 -3q0.85 -9.1 -7.8 -13.5q2.1 -6.55 -1.2 -12.8q-1.5 -2.9 -4.35 -3.95q-21 -8.15 -37.5 9.9q-13.1 14.3 -20.4 32.75q-7.8 19.8 -11.85 40.65q-3.6 18.75 -7.6 37.4q-4.4 20.45 -7 41.75q-2.6 21.45 -3.1 43.1q-0.45 19.15 2 38.15q2.7 21.05 11.45 40.35q9.9 22 31.2 13.3q17.55 -7.2 31.75 -20.65q16 -15.2 11.8 -35.95q-23.9 33.5 -57.9 44.05q-1.45 0.5 -3.45 -1q-9 -6.75 -14.25 -16.75q-3.75 -7.15 -5.1 -14.9q-0.6 -3.4 -0.8 -6.85q-1.65 -30.65 0.8 -61.2q1.4 -17.15 3.85 -34.3q27.9 0.2 54.75 -7.5q-27.05 2.85 -55.3 7.85q5.55 -66.4 43.9 -116.45q7.95 -10.3 21.5 -12q-18.5 37.2 -27.95 79.55q-9.3 41.8 -19.1 83.5q-3.8 -32.05 -14.75 -63.65q-19.4 -56.2 -33.95 -113.15q-1.6 -0.3 -1.55 1.2q1.55 38.25 15.15 75.35q20.35 55.3 31.4 112.95q-1.05 3.5 -0.8 6.3q-3.75 15.85 1.7 28.65q4.75 -5.7 5.55 -13.85q0.7 -7.1 2.1 -14.05q11.65 -58 24.55 -115.75q0.65 -0.75 0.6 -1.5q11.75 -52.05 24.3 -103.8q5.4 -22.1 13.8 -42.95q7.35 -18.25 7.3 -35.8q-7.2 37.6 -16.9 74.9q-0.9 3.2 0.45 5.9q-4.5 16.8 -9.55 33.55q-4.35 14.4 -9.5 28.45q-6.15 16.55 0.55 29.05q2.85 -5.55 4.5 -11.9q10.15 -39.15 20.65 -78.1q16.85 0.05 32.6 -4.15q3.7 59.25 5.8 118.5q0.6 17.35 8.6 28.9q4.55 -9.1 2 -19.5q-2.4 -20.45 -3.25 -41.2q-1.8 -44.55 -4.45 -88.9q1.65 -4.65 -1.25 -8.25q-3.95 -59.35 -11.2 -117.65q11.3 -41.3 14.5 -82.95q4.1 51.2 7.45 102.55q-14.9 1.35 -28.8 5.65<g id="2684" transform="matrix(1, 0, 0, 1, -77.85, 0)">
<path style="fill:#000000;fill-opacity:1" d="M356.2,134.25Q401 145.35 399.45 191.75Q397.95 237.15 370.8 270.9Q383.6 323.95 393.3 377.75Q398.05 404.25 399.95 431.3Q400.25 435.85 397.45 439.45Q392.65 427.05 390.15 411.15Q381.1 352.9 369 295.1Q366.9 285.05 366.6 275.9L366.3 276.2Q360.4 282.8 351.85 282.7L345.7 339.9Q341.55 376.15 339.75 412.55Q339.05 426.4 333.2 435.7Q329.3 406.8 333.25 376.25L340.85 317.3Q348.4 258.75 351.35 199.45Q352.8 169.6 354.65 141.65L352.95 140.5Q352.65 138.65 352.9 136.75Q353.2 134.6 355.15 134.3L355.2 133.5L355.3 134.3L356.2 134.25M356.4,143.2Q361.95 206.05 353.2 268.75L367.2 261.75Q374.8 258.4 379.3 250.1Q389.35 231.4 394.05 210.05Q398.85 188.35 388.35 169Q377.85 149.75 356.4 143.2M463.2,136.25Q471.85 140.65 471 149.75Q470.85 151.3 470.2 152.75L469.8 152.6Q468.95 151.75 469.15 150.5L469.2 149.75Q468.7 148.4 467.25 147.7L463.95 146Q441.35 155.75 436.4 182.2Q431.05 210.85 434.25 240.1Q436.7 262.4 447.25 282.55Q475.3 336.05 476.55 394.7Q476.9 411.2 469.75 426.35Q441.7 485.4 374.95 486.55Q357.55 486.85 342.45 478.7Q340.9 475.95 341.05 472.7Q341.2 470 342.2 467.45Q342.6 467.1 343.05 466.9L345.95 465.7Q405.95 483.15 448.65 438.7Q478 408.2 468.7 368.05Q460.35 331.7 444.25 298.2Q417.85 243.1 430.4 183.6Q435.55 159.1 452.55 141.3Q455.9 137.8 459.95 136L463.2 136.25M210.25,161Q171.9 211.05 166.35 277.45Q194.6 272.45 221.65 269.6L221.95 278.5L219.35 281Q192.5 288.7 164.6 288.5Q162.15 305.65 160.75 322.8Q158.3 353.35 159.95 384Q160.15 387.45 160.75 390.85Q162.1 398.6 165.85 405.75Q171.1 415.75 180.1 422.5Q182.1 424 183.55 423.5Q217.55 412.95 241.45 379.45Q245.65 400.2 229.65 415.4Q215.45 428.85 197.9 436.05Q176.6 444.75 166.7 422.75Q157.95 403.45 155.25 382.4Q152.8 363.4 153.25 344.25Q153.75 322.6 156.35 301.15Q158.95 279.85 163.35 259.4Q167.35 240.75 170.95 222Q175 201.15 182.8 181.35Q190.1 162.9 203.2 148.6Q219.7 130.55 240.7 138.7Q243.55 139.75 245.05 142.65Q248.35 148.9 246.25 155.45L241.45 151.25L235.95 148.5L231.75 149Q218.2 150.7 210.25 161M167.9,153.8Q159.5 174.65 154.1 196.75Q141.55 248.5 129.8 300.55L130.05 306.75Q130.1 307.5 129.45 308.25L128.25 307.55L127.15 312.3Q114.25 370.05 102.6 428.05Q101.2 435 100.5 442.1Q99.7 450.25 94.95 455.95Q89.5 443.15 93.25 427.3L120.5 313.1L123.65 300.05Q123.4 297.25 124.45 293.75Q113.4 236.1 93.05 180.8Q79.45 143.7 77.9 105.45Q77.85 103.95 79.45 104.25Q94 161.2 113.4 217.4Q124.35 249 128.15 281.05Q137.95 239.35 147.25 197.55Q156.7 155.2 175.2 118Q175.25 135.55 167.9 153.8M291.95,132.85L292.45 132.75Q299.7 191.05 303.65 250.4L304.85 269.15L310.2 269Q313.1 272.6 311.45 277.25L311.2 278L305.5 280.1Q308.15 324.45 309.95 369Q310.8 389.75 313.2 410.2L314.2 411.5L314.7 412.2Q317.25 422.6 312.7 431.7Q304.7 420.15 304.1 402.8Q302 343.55 298.3 284.3L298.2 282.3Q282.45 286.5 265.6 286.45Q255.1 325.4 244.95 364.55Q243.3 370.9 240.45 376.45Q233.75 363.95 239.9 347.4Q245.05 333.35 249.4 318.95Q254.45 302.2 258.95 285.4Q257.6 282.7 258.5 279.5L258.7 278.75L260.95 277.9Q270.65 240.6 277.85 203L291.2 133.5L291.2 136.6L291.95 132.85M268.6,275.3Q282.5 271 297.4 269.65Q294.05 218.3 289.95 167.1Q286.75 208.75 275.45 250.05L268.6 275.3" />
</g>
</svg>
