<?xml version="1.0" encoding="utf-8"?>
<svg version="1.1" id="Layer_1"
xmlns="http://www.w3.org/2000/svg"
xmlns:xlink="http://www.w3.org/1999/xlink"


xml:space="preserve">
q-11.85 24.05 -17.1 52.5q-4.7 25.3 -12.4 49.8q-0.05 1.55 0.6 3q-5.05 15.15 -11.2 30q-9.3 22.4 -6.5 43.5q5.3 -6.25 8.3 -15.25q9.3 -28.15 17.05 -56.6q18.8 -3.6 37.75 -4.85q6.7 58.5 14.8 116.75q1.55 13.75 9.55 20.05q3.45 -7.5 0.9 -15.7q-4.15 -13.4 -6.1 -27.25q-8.35 -58.65 -15.1 -117.5q8.5 -0.35 17 -0.2q1.4 -1.9 1.5 -4.25q0.05 -1.95 -0.6 -3.75q-8.85 -2.85 -18.15 -2.55q-6.35 -50.7 -15.8 -100.4q-4.65 2 -3.75 7.7q0.15 1.55 0.8 3q1.95 -0.65 3.95 -1.05q-5.15 50.1 -9.35 100.4q-0.95 2.15 -1 4.5q-0.05 2.75 1.1 5.2q-4.55 50.55 -11.25 100.85q-2.25 16.55 2.65 29.9q1.75 -0.25 2.3 -1.85q2.75 -7.5 3.3 -15.8q3.55 -56.25 9 -112.35q9.75 -0.6 18 -4.85q0.35 1.7 1 3.45q20.5 55.35 31 112.95q5.7 31.1 20.9 56.2q2.7 -2.7 1.5 -6.3q-10.8 -32.5 -17.9 -66.55q-11.1 -53.1 -30.85 -103.2q5.6 -4.1 10.4 -10.1q22.4 -28.25 22.4 -64.05q0 -39.3 -40.05 -45.75q-9.65 -1 -16 5.25q-0.4 1.05 -0.3 2.25q38.65 8.65 32.65 47.4q-7.05 45.65 -47.95 58.65q4.95 -53.65 5.5 -106.55q-12.8 30.95 -20.85 65.4q-9.25 39.65 -22.1 78.1q-0.95 -5.05 -3 -10.1q-6.25 -15.45 -11.95 -31.1q-20.4 -56.05 -42.85 -110.3q-1.9 -0.2 -1.65 1.65q3.3 21.45 10.65 43.25q18.9 56.1 40.75 110.6q-2.25 7.6 1.8 13.75q-21.35 55.75 -28 113.7q1.4 2.5 4.25 2.5q0.65 -0.35 0.7 -0.8q7.65 -47.8 23.35 -94.4q18.75 -56.6 33.9 -113.9q4 -15.05 2.4 -28.8q-11.8 57.55 -14.5 116.55q-2.2 47.95 25.05 86.1q4.05 5.65 10.7 5.85q45.5 1.35 69.55 -38.15q6.05 -9.85 -1.05 -14.25q-0.7 1 -0.95 2.25q-19.75 24.35 -49.8 32.4q-6.55 1.75 -12.3 -0.5q-27.75 -10.75 -31.1 -42.65q-6.2 -58.9 4.8 -117.35q5.8 -30.85 21.15 -58.15q18.75 -33.35 57 -25.7q1.15 2.45 2.9 4.7q1.55 2 3.35 3.5q0.85 -24.3 -25.65 -22.75q-9.95 3 -19.05 8.75q-32.05 20.35 -39.95 58.9q-23.6 1.1 -46.5 7.25q-0.7 1 -0.95 2.25q-0.85 4.55 0.6 8.95q38.4 -4.65 77.75 -4.5q2.7 -6.45 -1.4 -11.8<g id="2688" transform="matrix(1, 0, 0, 1, -89.55, 0)">
<path style="fill:#000000;fill-opacity:1" d="M336.45,139.2Q335.55 133.5 340.2 131.5Q349.65 181.2 356 231.9Q365.3 231.6 374.15 234.45L374.95 235L375.35 235.75Q376 237.55 375.95 239.5Q375.85 241.85 374.45 243.75Q365.95 243.6 357.45 243.95L357.9 247.75Q364.65 306.6 373 365.25Q374.95 379.1 379.1 392.5Q381.65 400.7 378.2 408.2Q370.2 401.9 368.65 388.15L366.75 372.85Q358.65 314.6 351.95 256.1L350.6 244.3Q331.65 245.55 312.85 249.15L312.8 249.15Q305.05 277.6 295.75 305.75Q292.75 314.75 287.45 321Q284.65 299.9 293.95 277.5Q300.1 262.65 305.15 247.5L304.95 247Q304.3 245.55 304.35 244L304.45 242.5L307 241.65Q314.7 217.15 319.4 191.85Q324.65 163.4 336.5 139.35L336.45 139.2M411.95,134.25Q418.3 128 427.95 129Q468 135.45 468 174.75Q468 210.55 445.6 238.8Q440.8 244.8 435.2 248.9Q454.95 299 466.05 352.1Q473.15 386.15 483.95 418.65Q485.15 422.25 482.45 424.95Q467.25 399.85 461.55 368.75Q451.05 311.15 430.55 255.8Q429.9 254.05 429.55 252.35Q421.3 256.6 411.55 257.2Q406.1 313.3 402.55 369.55Q402 377.85 399.25 385.35Q398.7 386.95 396.95 387.2Q392.05 373.85 394.3 357.3Q401 307 405.55 256.45Q404.4 254 404.45 251.25Q404.5 248.9 405.45 246.75L406.4 246.55L407.05 238.85Q411.25 188.55 416.4 138.45Q414.4 138.85 412.45 139.5Q411.8 138.05 411.65 136.5Q411.55 135.3 411.95 134.25M418.2,138.2Q417.65 191.1 412.7 244.75Q453.6 231.75 460.65 186.1Q466.65 147.35 428 138.7L418.2 138.2M338.25,151.25L315.55 239L349.2 232.5L338.25 151.25M189.8,139.05Q174.65 196.35 155.9 252.95L137 309.75Q121.3 356.35 113.65 404.15Q113.6 404.6 112.95 404.95Q110.1 404.95 108.7 402.45Q115.35 344.5 136.7 288.75L142.55 273Q138.5 266.85 140.75 259.25L141.2 257.75Q119.35 203.25 100.45 147.15Q93.1 125.35 89.8 103.9Q89.55 102.05 91.45 102.25Q113.9 156.5 134.3 212.55Q140 228.2 146.25 243.65Q148.3 248.7 149.25 253.75Q162.1 215.3 171.35 175.65Q179.4 141.2 192.2 110.25Q193.8 124 189.8 139.05M239.9,124.25Q249 118.5 258.95 115.5Q285.45 113.95 284.6 138.25L284.45 139L284.2 139.2Q282.4 137.7 280.85 135.7Q279.1 133.45 277.95 131Q239.7 123.35 220.95 156.7Q205.6 184 199.8 214.85Q188.8 273.3 195 332.2Q198.35 364.1 226.1 374.85Q231.85 377.1 238.4 375.35Q268.45 367.3 288.2 342.95L288.6 342.2L288.75 341.5Q289 340.25 289.7 339.25Q296.8 343.65 290.75 353.5Q266.7 393 221.2 391.65Q214.55 391.45 210.5 385.8Q183.25 347.65 185.45 299.7Q188.15 240.7 199.95 183.15Q207.85 144.6 239.9 124.25M272.45,239.25L273.5 240.15Q277.6 245.5 274.9 251.95L274.2 253.5Q234.85 253.35 196.45 258L196.1 257.2Q194.65 252.8 195.5 248.25Q195.75 247 196.45 246Q219.35 239.85 242.95 238.75L271.45 239.2L272.45 239.25" />
</g>
</svg>
