<?xml version="1.0" encoding="utf-8"?>
<svg version="1.1" id="Layer_1"
xmlns="http://www.w3.org/2000/svg"
xmlns:xlink="http://www.w3.org/1999/xlink"


xml:space="preserve">
q-4.5 10.15 -4.5 24q0.15 59.8 -2.8 119.2q-0.35 7.45 -1.95 14.65q-1.1 5 -1.35 9.75q-2.1 3.85 -1.9 8.3q0.1 3.35 1.9 5.95q1.3 1.35 3.15 1.9q8.05 2.65 16.4 3.35q12.3 1.05 23.1 -3.05q40.3 -15.25 34.55 -59.35q-4.4 -34.15 -34.45 -47.35q17.8 -14.35 17.85 -39.65q0.1 -40.1 -41.4 -41.25q-4.2 0.85 -7.95 3.1q-7.6 34.5 -44.6 39.3q0.15 -35.7 -1.4 -71q24.45 -5.65 40.9 12.6q7.45 8.35 5.1 19.1q-7.9 -31.15 -43.95 -29.8q-4.25 0.55 -8 3.55q-19.9 15.95 -30.3 40.2q-23.65 55.15 -14 115.15q1.2 7.2 4.5 13.6q17.15 33.1 51 18.05q12.85 -5.75 25.05 -12.8q18.6 -10.75 11.75 -27.55q-10.9 9.4 -22.25 18.2q-26.45 20.6 -52.65 4.5q-4.3 -2.65 -6.05 -6.85q-12.25 -29 -8 -61q3.15 -4.05 2.25 -9.5q-0.3 -2 -1.5 -3.7q-5.45 -2.1 -11.45 -1.4q7.05 -33.55 26.55 -63.05q6.7 -10.1 18.25 -12.05q31.2 -5.2 46.25 18.6q0.05 -2.7 -0.55 -4.95q20.1 12.35 22 35.8q1.85 23.25 -17.1 36.2q-19.3 13.15 -41.45 6q-3.85 -1.2 -7.45 -2.95q21.25 -7.3 39.95 4.1q22.6 51.35 44.05 101.2q-3.7 14.3 -9.55 27.85q-7 16.15 -0.3 28.35q7.6 -16.3 11.85 -34.4q13.45 -57.45 32.7 -112.95q7.45 -21.4 8.4 -42.35q-7.2 7.95 -10.85 19.8q-12.25 39.8 -23.3 80.15q-2.2 -12.75 -8.25 -24.55q-9.05 -17.55 -16.1 -35.85q-8.5 -22.15 -21.95 -39.3q-1 0.35 -1.4 1.75q-0.65 2.6 -0.1 5.25<g id="2675" transform="matrix(1, 0, 0, 1, -138.95, 0)">
<path style="fill:#000000;fill-opacity:1" d="M356.5,181.25Q360.25 179 364.45 178.15L364.95 178Q406.45 179.15 406.35 219.25Q406.3 244.55 388.5 258.9Q418.55 272.1 422.95 306.25Q428.7 350.35 388.4 365.6Q377.6 369.7 365.3 368.65Q356.95 367.95 348.9 365.3L346.95 367.45L345.7 363.9L345.6 363.85Q343.75 363.3 342.45 361.95Q340.65 359.35 340.55 356Q340.35 351.55 342.45 347.7L343.45 347.2L343.85 347.1Q344.1 342.35 345.2 337.35Q346.8 330.15 347.15 322.7Q350.1 263.3 349.95 203.5Q349.95 189.65 354.45 179.5L354.65 182.75L356.5 181.25M395.85,201.75Q379.4 183.5 354.95 189.15Q356.5 224.45 356.35 260.15Q393.35 255.35 400.95 220.85Q403.3 210.1 395.85 201.75M325.45,211Q310.4 187.2 279.2 192.4Q267.65 194.35 260.95 204.45Q241.45 233.95 234.4 267.5L280.95 260.75Q286.95 260.05 292.4 262.15L293.2 262.75Q294.4 264.45 294.7 266.45Q295.6 271.9 292.45 275.95L232.4 278.7L232 281.3Q227.75 313.3 240 342.3Q241.75 346.5 246.05 349.15Q272.25 365.25 298.7 344.65Q310.05 335.85 320.95 326.45Q327.8 343.25 309.2 354Q297 361.05 284.15 366.8Q250.3 381.85 233.15 348.75Q229.85 342.35 228.65 335.15Q219 275.15 242.65 220Q253.05 195.75 272.95 179.8Q276.7 176.8 280.95 176.25Q317 174.9 324.9 206.05Q325.5 208.3 325.45 211M356.3,270.6L352.25 349.75Q355.85 351.5 359.7 352.7Q381.85 359.85 401.15 346.7Q420.1 333.75 418.25 310.5Q416.35 287.05 396.25 274.7Q377.55 263.3 356.3 270.6M139.5,186.75Q138.95 184.1 139.6 181.5Q140 180.1 141 179.75Q154.45 196.9 162.95 219.05Q170 237.35 179.05 254.9Q185.1 266.7 187.3 279.45Q198.35 239.1 210.6 199.3Q214.25 187.45 221.45 179.5Q220.5 200.45 213.05 221.85Q193.8 277.35 180.35 334.8Q176.1 352.9 168.5 369.2Q161.8 357 168.8 340.85Q174.65 327.3 178.35 313L184.55 289.55Q163.1 239.7 140.5 188.35L139.5 186.75" />
</g>
</svg>
