<?xml version="1.0" encoding="utf-8"?>
<svg version="1.1" id="Layer_1"
xmlns="http://www.w3.org/2000/svg"
xmlns:xlink="http://www.w3.org/1999/xlink"


xml:space="preserve">
q-17.25 -16.95 -42.4 -14.85q-4.85 0.5 -9.45 3.3q-33.45 20.35 -56.15 52.35q-5.45 7.75 -9.05 16.4q-21.35 51.95 -23.75 108.15q-2.2 43.85 17.9 81.85q12.15 23 37.95 27.4q60.05 10.2 112.35 -22.7q19.35 -12.15 11.8 -28.75q-35.1 32.95 -84.35 40.75q-22.55 3.6 -43.55 -4.45q-41.15 -15.75 -43.9 -60q-2.5 -39.8 -0.1 -79.15q51.4 -5.8 102.65 -9.6q2.1 -4.95 0.1 -9.75q-33.3 3 -64.8 12q1.1 -14.7 2.9 -29.35q3.35 -27.65 15.6 -53.05q18.35 -38.15 52.15 -64.45q6 -4.7 13.15 -6.65q36.55 -10.1 58.5 16.55q0.3 -2.25 -0.5 -4.5q-1.75 -4.85 -4.55 -9q-1.15 -1.7 -1.95 -3.75q-11 39.95 -21.55 81.15q-12.8 49.7 -29.75 98.1q-14.65 -33.9 -24.3 -70.25q-15.35 -57.9 -34.4 -113q-1.45 -0.1 -1.2 1.4q4.2 26.35 10.9 52.9q14.6 57.65 34.25 113.9q4.75 13.5 12.1 22.5q-20.4 55.5 -33.35 113.2q-1.7 7.6 -5.15 14.35q-7 13.8 1.7 21.75q14.85 -42.65 24.6 -87.45q7.35 -33.85 18.25 -66.65q1.75 -3.15 0.95 -6.3q2.3 -6.75 4.75 -13.45q20.45 -55.85 35.3 -113.35q7.5 -29.15 9 -57.9<g id="2674" transform="matrix(1, 0, 0, 1, -102.75, 0)">
<path style="fill:#000000;fill-opacity:1" d="M355.45,108.75Q356.25 110.8 357.4 112.5Q360.2 116.65 361.95 121.5Q362.75 123.75 362.45 126Q340.5 99.35 303.95 109.45Q296.8 111.4 290.8 116.1Q257 142.4 238.65 180.55Q226.4 205.95 223.05 233.6Q221.25 248.25 220.15 262.95Q251.65 253.95 284.95 250.95L306.95 249L319.45 249.25L320.45 250L322.45 251.5L322.75 252.2Q324.75 257 322.65 261.95L322.2 262.75Q270.95 266.55 219.55 272.35Q217.15 311.7 219.65 351.5Q222.4 395.75 263.55 411.5Q284.55 419.55 307.1 415.95Q356.35 408.15 391.45 375.2Q399 391.8 379.65 403.95Q327.35 436.85 267.3 426.65Q241.5 422.25 229.35 399.25Q209.25 361.25 211.45 317.4L213.55 273.2Q215.95 217 237.3 165.05Q240.9 156.4 246.35 148.65Q269.05 116.65 302.5 96.3Q307.1 93.5 311.95 93Q337.1 90.9 354.35 107.85L355.45 108.75M205.2,147.9Q190.35 205.4 169.9 261.25Q167.45 267.95 165.15 274.7Q165.95 277.85 164.2 281L163.3 280.1Q152.4 312.9 145.05 346.75Q135.3 391.55 120.45 434.2Q111.75 426.25 118.75 412.45Q122.2 405.7 123.9 398.1Q136.85 340.4 157.25 284.9L160.25 276.7Q152.9 267.7 148.15 254.2Q128.5 197.95 113.9 140.3Q107.2 113.75 103 87.4Q102.75 85.9 104.2 86Q123.25 141.1 138.6 199Q148.25 235.35 162.9 269.25Q179.85 220.85 192.65 171.15Q203.2 129.95 214.2 90Q212.7 118.75 205.2 147.9" />
</g>
</svg>
