<?xml version="1.0" encoding="utf-8"?>
<svg version="1.1" id="Layer_1"
xmlns="http://www.w3.org/2000/svg"
xmlns:xlink="http://www.w3.org/1999/xlink"


xml:space="preserve">
q0.15 34.85 -2.55 71.8q-4.3 59.35 -10.15 118.4q-2.95 29.35 -4.45 59.15q-1.5 30.65 2.5 59.35q25.9 -2.4 49.8 -5.95q2.8 -7.75 -1.75 -14.25q-47.15 0.75 -93.25 4.75q2.3 -27.15 3.1 -54.75q1.75 -59.5 6.9 -118.55q2.6 -29.55 5.7 -59q3.25 -30.95 -4.45 -59.4q-1.45 -0.1 -1.8 1.45q-0.35 1.5 -0.2 3.05q1.55 2.5 3.9 3.9q-5.05 44.15 -6.75 90.3q-2.2 59.7 -11 118.45q-1.25 8.45 -0.35 16.1q-1.75 3.55 -2.1 7.4q-0.4 4.5 2.65 7.5q45.55 -4.35 74.25 -40.5q5.5 -6.9 7.7 -15.35q11.6 -44.5 9.4 -91.9q-1.05 -22.4 -6.4 -43.75q-12.3 -49 -64.05 -58.75q28.45 8.3 48.7 29.55q4.7 4.9 6.25 11.4q13.15 54.2 7.1 110.6q-0.8 7.55 -3.5 14.4q-18.9 48.05 -70.95 57.6q5.95 -58.7 9.6 -117.9q3.2 -51.4 2.25 -102.15q-6.45 43.5 -9.35 88.35q-3.85 59.6 -13 118.45q-2.65 16.95 3.95 29.35q7.45 -58.6 13.65 -117.6q6.25 -59.35 4.55 -117.8q-9.85 31.55 -18.55 65.15q-14.9 57.75 -32.75 114.9q-13.95 -41.7 -37 -79.55q-31.05 -51 -48.8 -107.5q-1.3 -0.3 -1.15 0.65q5.35 44.35 28.35 84.55q29.95 52.45 51.25 108.3q-2.35 7.8 2.3 15q-12.95 45.65 -20.9 92.25q-1.25 7.5 -3.95 14.5q-8.55 22.45 -4.2 43.95q1.15 -0.35 1.35 -1q9.3 -32 15.4 -64.85q7.4 -39.9 17.95 -79.2q0.85 -1.05 1 -2.3q3.65 -13.2 7.65 -26.3q17.45 -57.1 33.45 -114.25q8.1 -29.1 8.65 -58.1q-27.6 80.45 -16.65 162.45q2.85 21.55 20.25 31.25q8.05 4.4 17.65 2.25q6.8 -2.5 13 -6.5q11.15 -7.35 19.3 -17.85q5.55 -7.15 2.2 -15.2q-16.6 14.35 -38.95 24.65q-25.55 11.85 -36.3 -10.95q-7.8 -16.7 -8.45 -35.2q-0.9 -25.55 2.45 -50.9q34.45 3.6 68.3 -3.65q-32.95 -2.75 -65.9 2.6q5.85 -38.05 24.35 -78.6q11 -21.25 33.7 -16.9q8.65 1.55 10.2 10q3.6 -16.45 -10.75 -23.6q-4.95 -2.45 -10.5 -2.65q-27.8 12.85 -37.8 41.95<g id="2683" transform="matrix(1, 0, 0, 1, -52.2, 0)">
<path style="fill:#000000;fill-opacity:1" d="M344.2,122.75Q351.9 151.2 348.65 182.15Q345.55 211.6 342.95 241.15Q337.8 300.2 336.05 359.7Q335.25 387.3 332.95 414.45Q379.05 410.45 426.2 409.7L426.9 409.4L427.95 408.7Q432.5 415.2 429.7 422.95L429.45 423.7Q405.55 427.25 379.65 429.65L329.45 431.45Q325.45 402.75 326.95 372.1Q328.45 342.3 331.4 312.95Q337.25 253.9 341.55 194.55Q344.25 157.6 344.1 122.75L344.2 122.75M424.55,133.55L425.2 128.25L425.35 133.7Q477.1 143.45 489.4 192.45Q494.75 213.8 495.8 236.2Q498 283.6 486.4 328.1Q484.2 336.55 478.7 343.45Q450 379.6 404.45 383.95Q401.4 380.95 401.8 376.45Q402.15 372.6 403.9 369.05L404.45 368.45L405.25 368.5Q404.35 360.85 405.6 352.4Q414.4 293.65 416.6 233.95Q418.3 187.8 423.35 143.65Q421 142.25 419.45 139.75L419.2 137.5Q419.05 135.95 419.4 134.45Q419.75 132.9 421.2 133L424.55 133.55M425.6,144.6Q426.55 195.35 423.35 246.75Q419.7 305.95 413.75 364.65L413.35 368.2Q465.4 358.65 484.3 310.6Q487 303.75 487.8 296.2Q493.85 239.8 480.7 185.6Q479.15 179.1 474.45 174.2Q454.2 152.95 425.75 144.65L425.6 144.6M210.2,151.75Q211.9 210.2 205.65 269.55Q199.45 328.55 192 387.15L191.45 387.95Q184.85 375.55 187.5 358.6Q196.65 299.75 200.5 240.15Q203.4 195.3 209.85 151.8L210.2 151.75M183.55,157.6Q167.55 214.75 150.1 271.85Q146.1 284.95 142.45 298.15L142.2 304.95Q142.05 306.2 141.2 307.25L139.9 307.65Q129.35 346.95 121.95 386.85Q115.85 419.7 106.55 451.7Q106.35 452.35 105.2 452.7Q100.85 431.2 109.4 408.75Q112.1 401.75 113.35 394.25Q121.3 347.65 134.25 302Q129.6 294.8 131.95 287Q110.65 231.15 80.7 178.7Q57.7 138.5 52.35 94.15Q52.2 93.2 53.5 93.5Q71.25 150 102.3 201Q125.35 238.85 139.3 280.55L139.95 282.6L140.9 279.55Q158.75 222.4 173.65 164.65Q182.35 131.05 192.2 99.5Q191.65 128.5 183.55 157.6M280.95,153Q286.5 153.2 291.45 155.65Q305.8 162.8 302.2 179.25Q300.65 170.8 292 169.25Q269.3 164.9 258.3 186.15Q239.8 226.7 233.95 264.75Q266.9 259.4 299.85 262.15L300.2 271.5Q266.35 278.75 231.9 275.15Q228.55 300.5 229.45 326.05Q230.1 344.55 237.9 361.25Q248.65 384.05 274.2 372.2Q296.55 361.9 313.15 347.55Q316.5 355.6 310.95 362.75Q302.8 373.25 291.65 380.6Q285.45 384.6 278.65 387.1L274.65 388.3L268.6 390.1L264.4 390.9Q254.8 393.05 246.75 388.65Q229.35 378.95 226.5 357.4Q215.55 275.4 243.15 194.95Q253.15 165.85 280.95 153" />
</g>
</svg>
