<?xml version="1.0" encoding="utf-8"?>
<svg version="1.1" id="Layer_1"
xmlns="http://www.w3.org/2000/svg"
xmlns:xlink="http://www.w3.org/1999/xlink"


xml:space="preserve">
q-4.6 32 -6.1 66.2q-2.6 59.55 -6.4 118.5q0.65 1.65 2.25 2q6 -10.85 6 -24.5q-0.8 -0.9 -1.15 -1.85q1.7 -20.45 3 -41.25q1.05 -16.3 1.7 -32.6q22.1 1.9 43.5 0q1.15 -2.15 1.45 -4.55q0.55 -4.55 -1.95 -8.2q-19.35 0.25 -37.5 5.5q1.25 -33.4 0.95 -66.7q0.35 0.85 1.1 1.5q0.95 -1.8 1.2 -3.8q0.1 -1.2 -0.2 -2.3q-27.35 -0.15 -55 -3.35q-7.35 0.15 -14.5 2.25q-1.75 0.8 -3.05 2.2q-17.05 6.8 -29.35 20.15q-11.9 12.95 -17.55 30.1q-11.95 36.4 -8 75.4q2.25 22.6 15.05 40.55q6.5 9.1 17 12.25q27 8.05 49.85 -9.55q18.45 -14.2 12.6 -32.65q-9.05 12.6 -22.35 21.15q-36.85 23.6 -59.9 -9.9q-6.4 -21.9 -7.85 -44.9q-0.3 -4.55 -0.2 -8.95q30.3 -4.7 61 -5q3.35 -5.6 0.2 -11.15q-7.25 -3.65 -16.05 -0.9q-23.45 0.6 -43.8 9q3.6 -36.3 32.6 -61.25q28.15 -24.15 58.7 -4.25q-8.3 -19.9 -30.9 -18.3q-5.25 0.6 -10.6 2.7q7.9 29.95 22 58.6q11.55 23.5 23.5 44.7q-4.65 13.9 -8.95 27.9q-8.5 27.7 -11.15 55.95q0.6 1.65 2.25 2q6.9 -18.05 11.7 -38q13.9 -57.45 37.75 -111.4q9.15 -20.7 10.75 -41.55q-14.95 30.35 -27.6 63.75q-6.85 18.15 -13.1 36.45q-19.9 -51.05 -46.25 -99.2q-1.15 -0.1 -0.9 0.8<g id="2679" transform="matrix(1, 0, 0, 1, -142.1, 0)">
<path style="fill:#000000;fill-opacity:1" d="M341.45,186Q342.75 184.6 344.5 183.8L345.95 183.25Q353.1 181.15 360.45 181Q388.1 184.2 415.45 184.35L416.2 184.75L417.1 187L417.3 187.7Q417.6 188.8 417.5 190L417.4 191.45Q417.15 193.45 416.2 195.25L349.95 195.25L342.45 195Q341.7 194.35 341.35 193.5Q341.65 226.8 340.4 260.2L340.45 260Q358.6 254.75 377.95 254.5L382.4 255L383.7 255.5Q386.2 259.15 385.65 263.7Q385.35 266.1 384.2 268.25Q362.8 270.15 340.7 268.25L340.15 266.6Q339.5 282.9 338.45 299.2Q337.15 320 335.45 340.45Q335.8 341.4 336.6 342.3L336.95 342.95Q336.95 356.6 330.95 367.45Q329.35 367.1 328.7 365.45Q332.5 306.5 335.1 246.95Q336.6 212.75 341.2 180.75L341.3 186.9L341.45 186M282.95,179.75Q305.55 178.15 313.85 198.05L313.95 198.75L313.9 199.45L313.7 200.25L313.55 201L313.45 201.75Q282.9 181.85 254.75 206Q225.75 230.95 222.15 267.25Q242.5 258.85 265.95 258.25Q274.75 255.5 282 259.15L283.45 259.75L284.1 260.55Q287.25 266.1 283.9 271.7L283.45 272.2Q252.75 272.5 222.45 277.2L221.75 276.35L221.65 276.1Q221.55 280.5 221.85 285.05Q223.3 308.05 229.7 329.95Q252.75 363.45 289.6 339.85Q302.9 331.3 311.95 318.7Q317.8 337.15 299.35 351.35Q276.5 368.95 249.5 360.9Q239 357.75 232.5 348.65Q219.7 330.7 217.45 308.1Q213.5 269.1 225.45 232.7Q231.1 215.55 243 202.6Q255.3 189.25 272.35 182.45Q277.7 180.35 282.95 179.75M143.25,180.5Q169.6 228.65 189.5 279.7Q195.75 261.4 202.6 243.25Q215.25 209.85 230.2 179.5Q228.6 200.35 219.45 221.05Q195.6 275 181.7 332.45Q176.9 352.4 170 370.45Q168.35 370.1 167.75 368.45Q170.4 340.2 178.9 312.5Q183.2 298.5 187.85 284.6Q175.9 263.4 164.35 239.9Q150.25 211.25 142.35 181.3Q142.1 180.4 143.25 180.5" />
</g>
</svg>
