<?xml version="1.0" encoding="utf-8"?>
<svg version="1.1" id="Layer_1"
xmlns="http://www.w3.org/2000/svg"
xmlns:xlink="http://www.w3.org/1999/xlink"


xml:space="preserve">
q-28.8 62.65 -43 132.2q-12.65 -86.45 -41.1 -167.95q3.55 43.55 16.55 86.3q6.35 20.9 10.6 42.65q3.5 18.05 6 36.35q0.4 3.1 1.1 6.2q2.05 7.2 6.9 9.5q35.8 -72.75 55.25 -158.45q0.85 -5.35 0.8 -10.85q-5.15 -8.75 -15.2 -10.85q-9.4 -1.75 -19 -0.65q-23.05 3.7 -32.3 26.1q-7.15 17.35 -8.9 36.15q-1.65 18.2 -3 36.55q-1.5 20.65 1.75 41.15q3.5 21.9 16.8 39.55q15.1 19.95 37.3 5.55q15.45 -9.95 20.75 -27.35q-1.9 18.85 2.55 37.25q2.6 -3.2 4.1 -7.2q1.35 -3.75 0.65 -7.7q-0.4 -2.35 -2 -4.1q-6.9 -3.35 -14.3 -2.75q-6.9 0.2 -13.25 3.15q-5.3 14.3 -18.05 23q-6.3 4.25 -13.5 6.8q-3.35 1.2 -7 1q-6.3 -0.6 -10.5 -5.4q-13 -14.85 -15.55 -34.45q-7.2 -54.95 13.05 -106.2q4.45 -11.2 16.5 -15.05q14.4 -4.45 28.3 1q12.25 4.8 19.15 15.75q2.75 -4.4 1.65 -9.45q-0.95 -4.4 -3.85 -7.9q-1.9 -2.4 -4.8 -3.65q-15.2 31.3 -6.65 65.25q3.05 12.25 15.2 13.8q12.95 1.45 23.85 -5.65q11.05 -7.1 8.45 -19.95q-18.15 14.5 -40.35 9.05q27.65 6.05 33.8 -11.2q0.45 -1.3 -0.95 -3.05q-16.6 -1.55 -32.3 4.3q18.25 -15.65 37 0.85q-4.35 -27.4 -31.15 -19.95q-6.5 1.85 -9.9 8.8<g id="2710" transform="matrix(1, 0, 0, 1, -141.3, 0)">
<path style="fill:#000000;fill-opacity:1" d="M421.45,188.15Q421.5 193.65 420.65 199L418.5 210.15Q399.05 295.85 363.25 368.6Q358.4 366.3 356.35 359.1L355.65 356.35Q354.95 353.25 354.55 350.15Q352.05 331.85 348.55 313.8Q344.3 292.05 337.95 271.15Q324.95 228.4 321.4 184.85L321.6 184.85Q350.05 266.35 362.7 352.8L378.2 313.2Q392.4 243.65 421.2 181L421.45 188.15M226,193.4Q228.9 196.9 229.85 201.3Q230.95 206.35 228.2 210.75Q221.3 199.8 209.05 195Q195.15 189.55 180.75 194Q168.7 197.85 164.25 209.05Q144 260.3 151.2 315.25Q153.75 334.85 166.75 349.7Q170.95 354.5 177.25 355.1Q180.9 355.3 184.25 354.1Q191.45 351.55 197.75 347.3Q210.5 338.6 215.8 324.3L215.95 313.7L219.95 314.95L220.9 325.45L222.7 313.45L198.2 312.85L197.75 305.7L201.65 303.6Q208 300.65 214.9 300.45Q222.3 299.85 229.2 303.2L224.7 354.2Q226.3 355.95 226.7 358.3Q227.4 362.25 226.05 366Q224.55 370 221.95 373.2Q217.5 354.8 219.4 335.95Q214.1 353.35 198.65 363.3Q176.45 377.7 161.35 357.75Q148.05 340.1 144.55 318.2Q141.3 297.7 142.8 277.05Q144.15 258.7 145.8 240.5Q147.55 221.7 154.7 204.35Q163.95 181.95 187 178.25Q196.6 177.15 206 178.9Q216.05 181 221.2 189.75Q224.1 191 226 193.4M272.5,276.45Q299.3 269 303.65 296.4L301.7 294.8Q282.95 278.3 264.7 293.95L260.15 314.5Q275.85 308.65 292.45 310.2Q293.85 311.95 293.4 313.25Q287.25 330.5 259.6 324.45L263.1 347.75Q285.3 353.2 303.45 338.7Q306.05 351.55 295 358.65Q284.1 365.75 271.15 364.3Q259 362.75 255.95 350.5Q247.4 316.55 262.6 285.25Q266 278.3 272.5 276.45" />
</g>
</svg>
