<?xml version="1.0" encoding="utf-8"?>
<svg version="1.1" id="Layer_1"
xmlns="http://www.w3.org/2000/svg"
xmlns:xlink="http://www.w3.org/1999/xlink"


xml:space="preserve">
q-20.9 4.7 -30.9 24.15q-9.55 18.5 -13.2 39.1q-3.75 21.5 -3.85 43.25q-0.1 18.35 1.65 36.5q2 21.3 15.25 37.5q14.15 17.4 35.75 11.25q15.6 -4.3 27.5 -15.55q-0.45 9.05 4.9 14.65q8 -24.75 5.55 -50.45q-6.8 15.75 -22.95 23.1q-9.4 4.2 -19.8 4.15q-7.7 0 -15.05 -2.3q-22.75 -46.8 -11.85 -100.5q2.6 -12.65 7.15 -24.8q3.85 -10.2 9.5 -19.35q2.9 -4.75 6.2 -9.05q24.4 -12.3 44.5 5.8q7.35 6.65 12.2 15.15q4.6 -20.2 -15.3 -33.4q-10.3 -6.8 -22.75 -7.6q20 -9 9.8 -26.8q-1.9 -3.3 -4.7 -4.45q-3.1 4.25 -0.6 9.95q6.45 -24.8 29.35 -37.2q28.7 -15.5 45.25 10.2q-0.15 2.25 1.65 3.6q2.3 -1.8 1.85 -5q-4.85 -32.3 -40.8 -30q-35.25 14.55 -43.05 51.6q-10.55 50 0.25 100.35q4.2 19.55 20.9 30.75q29 19.4 52.6 -7.55q-2.7 13.2 4 21q1.4 -2.75 1.5 -5.85q0.05 -1.5 0.7 -3.05q1.25 -22.3 0.85 -43.5q-0.35 -0.35 -0.75 -0.4q-6.3 -0.8 -12.5 -2.35q-3.25 0.25 -6.35 1q-2.4 0.5 -3.65 2.5q-0.6 2.65 -0.1 5.3q0.35 1.95 1.85 2.95q9.9 -1.8 16.25 2.5q-3.1 7.1 -8.25 13.2q-16.1 19 -38.6 10.15q-7.25 -2.85 -11.6 -9.2q-17.15 -24.85 -18.75 -56.6q-1.25 -25.55 5.1 -50.05q1.6 -59.65 4.5 -119.2q1.45 -30.6 -3.15 -59.25q-3.9 17.55 -3.9 38.25q0 59.75 -4.8 119.1q-1.35 16.95 3.95 29.35q3.25 -3.4 3.4 -8.25<g id="2888" transform="matrix(1, 0, 0, 1, -134.4, 0)">
<path style="fill:#000000;fill-opacity:1" d="M398.65,187.6Q418.55 200.8 413.95 221L412.65 218.7Q407.8 210.2 400.45 203.55Q380.35 185.45 355.95 197.75Q352.65 202.05 349.75 206.8Q344.1 215.95 340.25 226.15Q335.7 238.3 333.1 250.95Q322.2 304.65 344.95 351.45L351.85 353.6Q359.2 355.9 366.9 355.9Q377.3 355.95 386.7 351.75Q402.85 344.4 409.65 328.65L408.8 324.1L388.7 320.95L389.45 312.2L413.45 310.95L414.6 320.15Q417.05 345.85 409.05 370.6Q403.7 365 404.15 355.95Q392.25 367.2 376.65 371.5Q355.05 377.65 340.9 360.25Q327.65 344.05 325.65 322.75Q323.9 304.6 324 286.25Q324.1 264.5 327.85 243Q331.5 222.4 341.05 203.9Q351.05 184.45 371.95 179.75L375.9 180Q388.35 180.8 398.65 187.6M295.55,191.9L294.9 191.15Q292.4 185.45 295.5 181.2Q298.3 182.35 300.2 185.65Q310.4 203.45 290.4 212.45L289.7 206.25L297.75 194.1L295.55 191.9M144.5,284.05Q146.1 315.8 163.25 340.65Q167.6 347 174.85 349.85Q197.35 358.7 213.45 339.7Q218.6 333.6 221.7 326.5L221.7 324.2Q215.35 319.9 205.45 321.7Q203.95 320.7 203.6 318.75Q203.1 316.1 203.7 313.45L203.95 311.95Q205.2 309.95 207.6 309.45Q210.7 308.7 213.95 308.45Q220.15 310 226.45 310.8Q226.85 310.85 227.2 311.2Q227.6 332.4 226.35 354.7L225.95 364.45Q225.3 366 225.25 367.5Q225.15 370.6 223.75 373.35L222.7 374.95Q216 367.15 218.7 353.95L219 352.6L218.7 352.9Q195.1 379.85 166.1 360.45Q149.4 349.25 145.2 329.7Q134.4 279.35 144.95 229.35Q152.75 192.3 188 177.75Q223.95 175.45 228.8 207.75Q229.25 210.95 226.95 212.75L225.85 212.1Q224.05 210.75 224.2 208.5L224.2 207Q207.65 181.3 178.95 196.8Q156.05 209.2 149.6 234Q143.25 258.5 144.5 284.05M265.45,369.95Q260.15 357.55 261.5 340.6Q266.3 281.25 266.3 221.5Q266.3 200.8 270.2 183.25Q274.8 211.9 273.35 242.5Q270.45 302.05 268.85 361.7Q268.7 366.55 265.45 369.95" />
</g>
</svg>
