<?xml version="1.0" encoding="utf-8"?>
<svg version="1.1" id="Layer_1"
xmlns="http://www.w3.org/2000/svg"
xmlns:xlink="http://www.w3.org/1999/xlink"


xml:space="preserve">
q0 0.35 -1.55 0.35q-1.5 0 -3.95 -4.6q-8.85 -14.75 -21.95 -14.75q-36.2 0 -54 24q-14.25 19.2 -14.25 48.75q0 19.3 20.15 51.3q6.85 10.85 20.65 30.5q17.55 24.9 23.7 34.05q29.55 43.9 44.35 79.8q20.15 48.95 20.15 97.1q0 8.7 -0.65 17.55q-2 27.85 -9.65 50.65q-10.65 31.6 -30.95 49.6q-25.3 22.35 -64.35 22.35q-22.2 0 -37.95 -16.45q-6.4 -6.65 -10.1 -14.5q-3.45 -7.35 -3.45 -13.3q0 -6.2 2 -10.5q2.35 2.15 4.1 9.45q1.8 7.5 4.9 10.8q5.05 5.4 18.4 13.2q11.95 7.05 13.6 7.05q64.55 0 91.05 -47.45q17.95 -32.15 17.95 -86.3q0 -45.8 -20.15 -92.1q-14.25 -32.75 -44.35 -76.3q-13.15 -18.9 -20.65 -31.6q-20.15 -34.1 -20.15 -59.05q0 -40.45 16.7 -64.1q14.25 -20.1 36.8 -23.85q20.55 -3.4 36.8 7.6q16.7 11.35 16.7 30.25q0 1.65 -0.35 3.1q-2.3 -0.3 -4.15 -1.85q-4 -4.4 -9.55 -4.4q-21.1 0 -32.95 20.5q-3.85 6.6 -6.15 14.45q1.75 2.65 1.75 5.6q0 1.8 -0.55 3.25q-0.15 7.95 1.9 14.45q6.5 20.45 32.95 20.45q13.55 0 21.9 -7.25q2.3 -2 4.9 -5.35q2.2 -2.8 2.95 -3.15q2.25 2.7 2.25 6q0 1.25 -1.85 4.6q-2.2 3.95 -5.4 7.45q-9.05 9.95 -20 9.95q-32.8 0 -41.75 -26.25q-2.85 -8.3 -2.95 -18.45q0 -14.5 7.5 -29.1q10.45 -20.3 30.75 -25.4q11.9 -2.2 20.05 5.2q2.9 2.65 4.7 6q1.5 2.8 1.5 4.4q0 3.05 -1.75 5.65q0.55 1.85 0.55 3.8q0 0.7 -14.15 21.3q-15.55 22.75 -19.85 31.2q-7.7 14.85 -13.8 25.45q-2 -3 -2 -7.15q0 -9.15 25.7 -51.55q-7.15 -6.6 -19.35 -20.5q-19.35 -22.15 -19.35 -29.55q0 -15.25 8.95 -2.8q2.75 3.8 10.3 17.8q6.7 7.15 9.65 11.75q8.55 -13.9 17.5 -27.5q9.25 -14.05 11.2 -16.25q2 0.3 2.95 3.2q-9.4 17.15 -14.85 66.4q3.7 -0.3 4.4 0.6q0.4 0.55 0.4 4.2q0 4.6 -1.45 5.65q-2.5 1.7 -13.05 1.7q-3.75 -0.95 -7.5 -1.1q-7.25 -0.25 -13.25 3.85q-2.65 27 -2.65 41.3q0 8.25 2.8 19.4q3.8 15.05 10.2 19.2q16.95 7.8 33.1 -11.65q5.65 -6.85 10.15 -15.8q3.65 -7.25 4.5 -11.3q2.25 2.7 2.25 6q0 1.4 -2 7.9q-2.55 8.25 -6 15.35q-10.6 21.75 -24.25 21.75q-25.25 0 -32 -15.95q-2.6 -6.2 -3.15 -16.2q0 -45.4 5.85 -82.75q9.75 -62.25 31.9 -50.35q1.8 1.4 6.2 9.3q4.55 8.05 4.55 10.2q-0.45 1.85 -2.65 3.65q-0.95 -1.15 -1.9 -3.9q-2.45 -5.65 -8.05 -5.65q-7.35 -4.15 -10.55 -7q-0.6 6.5 -0.35 19.05q0 9.75 -1 15q-0.95 10.75 -1.65 27.4q-1.15 22.8 -3.65 39.9q6.85 -7 21.4 -20.9q27.8 -26.45 45.55 -41.7q16.05 -13.7 23.7 -34.4q6.3 -16.95 6.3 -36.35q0 -33.75 -14.55 -58.4q-11.2 -19 -31.95 -33.6q-7.25 -5.15 -17.05 -10.65q0 23.25 -3.8 39.2q-5.55 23.2 -19.7 36.9q-23.65 23 -45.3 42.2q-24.1 21.35 -34.8 28.05q-2.35 -0.95 -3.05 -4.6q0 -16.1 2.95 -54.4q2.8 -37.1 5.05 -52.5q0.5 -7.8 0.5 -23.5q0 -15.7 0.5 -23.6q0.2 -1.2 0.85 -2.35q0.7 -1.3 1.4 -1.65q54.55 23.45 78.05 62.25q17.7 29.3 17.7 67.75q2.7 0.95 3.3 4.35q0.2 1.05 0.2 5.65q0 18.75 -8 123.75q-5.45 19.95 -6.05 50.25q-0.15 8.35 -0.15 25.1q-0.15 14.9 -0.95 25q-2.2 28.45 -11.9 49.6q-12.1 26.45 -38.45 48.65q-16.5 -8.55 -20.6 -27.5q-1.45 -6.7 -1.55 -15.8q0 -33.15 2.2 -58.25q4.85 -54.45 5.8 -68.85q1.9 -61.65 3.1 -92.85q2.2 -56.4 6.4 -56.4q3.75 0 5 3.75q0.65 1.85 0.5 4q-2.95 21.25 -3.1 33.2q-0.25 17.7 -0.65 26.4q-0.7 15.25 -2.35 26.1q-1.4 21.5 -5.7 65.5q-2.3 23.8 -2.3 55.25q0.1 6.45 1.25 11.2q3.25 13 16.6 21.7q28.55 -3.8 43.85 -43.4q5.4 -14 8.2 -30.2q2.25 -13 1.95 -20.4q-0.95 -20.05 2 -47.25q1.65 -18.75 4.45 -65.05q2.55 -42.75 2.55 -47.1q0 -1.25 -1 -3.9q-1 -2.7 -1 -3.95q0 -2.65 0.75 -4.95q1.15 -3.55 3.75 -4.05q0 6.5 -3.15 43.05q-3.45 40.55 -5.85 53.35q-1.65 23.85 -1.95 54.5q0 22.75 -0.75 38.65q-1 20.65 -3.5 38.2q-1.55 11.15 -1.95 19.15q-0.25 5.7 -0.4 18.45q-0.7 11.25 -4.6 18.55q-2 -4.3 -2 -11.25q0 -18 2.3 -35.7q0 -7.3 1.85 -37.45q1.45 -23.75 0.15 -38.3q0.75 -8.05 1.2 -29.65q0.45 -19.45 1.8 -29.6q2.55 -16.45 5.45 -52.2q2.9 -34.95 5.55 -51.55q2.3 1.75 2.85 6.05q-3.3 -7.95 -7.25 -13.3q-12.8 -17.2 -38.15 -17.2q-23.3 0 -44.45 20.65q-14.15 13.75 -23.3 31.6q-5.35 10.55 -6.6 26.15q-0.7 9.05 -0.75 27.1q-0.3 7.75 -3.35 51.25q-2.65 37.05 -2.65 55.25q0 17.9 1.5 28.15q1.5 10.25 1.5 28.85q0 12.55 3.3 52.8q0.25 14.8 1.5 24.55q1.7 13.55 11.15 24.2q12.85 14.35 38.6 21.3q38.35 -1.45 55.4 -32.65q4.25 -7.8 6.85 -16.3q1.1 -7.5 2.35 -24.75q1.15 -15.95 2.65 -24.75q-2 -3 -2 -6.75q0 -2.8 0.75 -4.6q1.1 -2.7 3.75 -2.65q0.8 1.45 1.45 10.35q0.55 7.25 0.55 11.05q0 10.95 -1.95 33.95q1.75 2.35 2.15 6.3q0 15.8 -5 30.35q-0.4 2.6 -0.4 6.8q-0.2 8.85 -3.65 14.55q-2.1 -1.8 -2.75 -6.55q0 -2.15 0.65 -9.75q0.65 -8.3 1.35 -13.5q-13.6 26.3 -42.1 39.8q-36.65 -0.5 -49.2 -43.3q-6.75 -22.9 -5.9 -58.95q0.05 -2.8 -3.45 -46.45q-3.55 -44.2 -3.55 -56.15q0 -13.15 -1.5 -24.25q-1.5 -11.1 -1.5 -33.15q0 -22.1 2.45 -76.2q2.5 -55.65 4.05 -62.9q9.65 -43.45 32.15 -65.7q19.25 -18.9 43.9 -19.4q22.05 -0.4 38.65 13.2q16.65 13.65 16.65 32.15q0 3.65 -2.5 6.5q-0.75 11.7 -1.8 36.35q-1.85 21.65 -8.2 37.15q-3 -2.4 -3 -7.5q0 -3.2 2.8 -21.9q2.7 -18 4.2 -25.35q-0.85 -16 -0.55 -24.25q0.55 -14.6 6.55 -22.5q4.8 16.25 9.05 41.85q1.5 -13.1 4.05 -40.45q2.45 -26.65 4.2 -41.3q0.65 -0.65 1.35 -1.05q1.95 1.55 2.4 4.85q0 9.05 -3.45 40.6q-4.35 39.2 -9.05 50.65q-6.1 -15.45 -10.15 -36.9q0.65 1.9 0.45 4q0 3.15 -2 6.75q-4.25 1.05 -36.5 2.5q-2.15 -5.25 -2.75 -13.85q-0.25 -3.6 -0.25 -13.9q0 -16.95 5 -33.75q3 2.25 3 10.15q0 4.55 -1.5 12.9q-1.5 8.3 -1.5 10.35q4.25 0 5.55 3.75q18.15 1.6 27.25 13.1q6.25 7.9 6.25 15.9q0 4.15 -4.45 10.5q-4.95 7.1 -12.1 8.3q4.9 4.9 16.55 14.65q9.2 8.75 9.2 15.5q0 1.1 -0.7 3.25q-0.9 2.9 -2.3 4.1q-12.05 -9 -24.7 -24.6q-9.95 -12.3 -13 -20.45q-12.35 0.4 -17.55 -2q-6.95 24.75 -8.45 32.75q-2.9 -0.15 -3.7 -2.9q-0.3 -1.1 -0.3 -4.6q0 -2.25 5.5 -28.35q-1.85 -0.55 -2.45 -3.55q0 -4.45 2.1 -6.55q4.3 -4.25 17.4 -4.1q0 6.05 -0.8 12.45q5.75 -1 16.55 1.55q11.2 -0.25 16.6 -2.4q3.7 -1.45 5.4 -4.35q-4.45 -5.45 -7.2 -7.7q-6.25 -5.05 -13.3 -5.05q-13.8 0 -17.3 1.7<g id="2883" transform="matrix(1, 0, 0, 1, -6.5, 3.25)">
<path style="fill:#000000;fill-opacity:1" d="M505,59.1L504.1 62L504.4 62.4Q504.4 62.75 502.85 62.75Q501.35 62.75 498.9 58.15L493.55 48Q484.7 33.25 471.6 33.25Q435.4 33.25 417.6 57.25Q403.35 76.45 403.35 106Q403.35 125.3 423.5 157.3Q430.35 168.15 444.15 187.8Q461.7 212.7 467.85 221.85Q497.4 265.75 512.2 301.65Q532.35 350.6 532.35 398.75L532.45 406.7Q532.45 415.4 531.8 424.25Q529.8 452.1 522.15 474.9Q511.5 506.5 491.2 524.5Q465.9 546.85 426.85 546.85Q404.65 546.85 388.9 530.4Q382.5 523.75 378.8 515.9Q375.35 508.55 375.35 502.6Q375.35 496.4 377.35 492.1Q379.7 494.25 381.45 501.55Q383.25 509.05 386.35 512.35Q391.4 517.75 404.75 525.55Q416.7 532.6 418.35 532.6Q482.9 532.6 509.4 485.15Q527.35 453 527.35 398.85Q527.35 353.05 507.2 306.75Q492.95 274 462.85 230.45L439.15 196.75Q426 177.85 418.5 165.15Q398.35 131.05 398.35 106.1Q398.35 65.65 415.05 42Q429.3 21.9 451.85 18.15Q472.4 14.75 488.65 25.75Q505.35 37.1 505.35 56Q505.35 57.65 505 59.1M533.35,146.75Q531.05 146.45 529.2 144.9L526.15 141.65Q522.15 137.25 516.6 137.25Q495.5 137.25 483.65 157.75Q479.8 164.35 477.5 172.2L477.3 173L526.35 173.25Q528.1 175.9 528.1 178.85Q528.1 180.65 527.55 182.1L525.85 185L475.45 184.75L475.25 186.85Q475.1 194.8 477.15 201.3Q483.65 221.75 510.1 221.75Q523.65 221.75 532 214.5Q534.3 212.5 536.9 209.15Q539.1 206.35 539.85 206Q542.1 208.7 542.1 212Q542.1 213.25 540.25 216.6Q538.05 220.55 534.85 224.05Q525.8 234 514.85 234Q482.05 234 473.1 207.75Q470.25 199.45 470.15 189.3L470.6 180Q470.6 165.5 478.1 150.9Q488.55 130.6 508.85 125.5Q520.75 123.3 528.9 130.7Q531.8 133.35 533.6 136.7Q535.1 139.5 535.1 141.1Q535.1 144.15 533.35 146.75M337.8,13.2Q338.35 15.05 338.35 17Q338.35 17.7 324.2 38.3Q308.65 61.05 304.35 69.5L291.15 95.3Q283.45 110.15 277.35 120.75Q275.35 117.75 275.35 113.6Q275.35 104.45 301.05 62.05Q293.9 55.45 281.7 41.55Q262.35 19.4 262.35 12Q262.35 -3.25 271.3 9.2Q274.05 13 281.6 27L296.5 42Q303.2 49.15 306.15 53.75Q314.7 39.85 323.65 26.25Q332.9 12.2 334.85 10Q336.85 10.3 337.8 13.2M454.85,281.5Q445.45 298.65 440 347.9L463.25 346.3L476.3 344.95Q480 344.65 480.7 345.55Q481.1 346.1 481.1 349.75Q481.1 354.35 479.65 355.4Q477.15 357.1 466.6 357.1Q462.85 356.15 459.1 356Q451.85 355.75 445.85 359.85L438.75 359.7Q436.1 386.7 436.1 401Q436.1 409.25 438.9 420.4Q442.7 435.45 449.1 439.6Q466.05 447.4 482.2 427.95Q487.85 421.1 492.35 412.15Q496 404.9 496.85 400.85Q499.1 403.55 499.1 406.85Q499.1 408.25 497.1 414.75Q494.55 423 491.1 430.1Q480.5 451.85 466.85 451.85Q441.6 451.85 434.85 435.9Q432.25 429.7 431.7 419.7L431.6 401.35Q431.6 355.95 437.45 318.6Q447.2 256.35 469.35 268.25Q471.15 269.65 475.55 277.55Q480.1 285.6 480.1 287.75L480 291.1Q479.55 292.95 477.35 294.75Q476.4 293.6 475.45 290.85L473.8 286.15Q471.35 280.5 465.75 280.5L462 280.8L454.85 281.5M328.15,284Q320.8 279.85 317.6 277L317.1 276.55L317.1 316Q316.5 322.5 316.75 335.05L317.1 348.1Q317.1 357.85 316.1 363.1L316.1 432.85Q315.15 443.6 314.45 460.25L313.3 488.3Q312.15 511.1 309.65 528.2Q316.5 521.2 331.05 507.3Q358.85 480.85 376.6 465.6Q392.65 451.9 400.3 431.2Q406.6 414.25 406.6 394.85Q406.6 361.1 392.05 336.45Q380.85 317.45 360.1 302.85Q352.85 297.7 343.05 292.2L328.15 284M411.1,394.25Q411.1 417.5 407.3 433.45Q401.75 456.65 387.6 470.35Q363.95 493.35 342.3 512.55Q318.2 533.9 307.5 540.6L306.85 543.6Q304.5 542.65 303.8 539L303.6 535.65L303.6 535.5L303.6 535.1L303.6 534.5Q303.6 518.4 306.55 480.1Q309.35 443 311.6 427.6L311.6 357.85Q312.1 350.05 312.1 334.35Q312.1 318.65 312.6 310.75L312.6 268Q312.8 266.8 313.45 265.65Q314.15 264.35 314.85 264L315.35 264.25Q369.9 287.7 393.4 326.5Q411.1 355.8 411.1 394.25M255.85,11Q258.55 11.95 259.15 15.35Q259.35 16.4 259.35 21Q259.35 39.75 251.35 144.75L251.35 188.25Q245.9 208.2 245.3 238.5Q245.15 246.85 245.15 263.6Q245 278.5 244.2 288.6Q242 317.05 232.3 338.2Q220.2 364.65 193.85 386.85L182.85 385.9L170.35 384.6Q153.85 376.05 149.75 357.1Q148.3 350.4 148.2 341.3L148.35 327.35Q148.35 294.2 150.55 269.1Q155.4 214.65 156.35 200.25L156.35 161.25Q158.25 99.6 159.45 68.4Q161.65 12 165.85 12Q169.6 12 170.85 15.75Q171.5 17.6 171.35 19.75L168.45 39.05Q165.5 60.3 165.35 72.25Q165.1 89.95 164.7 98.65Q164 113.9 162.35 124.75L162.35 163L161.35 166.75L161.35 206.5Q159.95 228 155.65 272Q153.35 295.8 153.35 327.25L153.25 337.85Q153.35 344.3 154.5 349.05Q157.75 362.05 171.1 370.75L182.35 371.25L184.35 372.75Q212.9 368.95 228.2 329.35Q233.6 315.35 236.4 299.15Q238.65 286.15 238.35 278.75Q237.4 258.7 240.35 231.5L246.35 184.25L246.35 140Q248 121.25 250.8 74.95Q253.35 32.2 253.35 27.85Q253.35 26.6 252.35 23.95Q251.35 21.25 251.35 20Q251.35 17.35 252.1 15.05Q253.25 11.5 255.85 11M281.2,133.3L281.35 138.85Q281.35 145.35 278.2 181.9Q274.75 222.45 272.35 235.25L272.35 284Q270.7 307.85 270.4 338.5L270.35 391.5Q270.35 414.25 269.6 430.15Q268.6 450.8 266.1 468.35L263.3 487.45Q261.75 498.6 261.35 506.6Q261.1 512.3 260.95 525.05Q260.25 536.3 256.35 543.6Q254.35 539.3 254.35 532.35Q254.35 514.35 256.65 496.65L262.35 456.6Q262.35 449.3 264.2 419.15Q265.65 395.4 264.35 380.85L264.35 338.25Q265.1 330.2 265.55 308.6Q266 289.15 267.35 279L267.35 231Q269.9 214.55 272.8 178.8Q275.7 143.85 278.35 127.25Q280.65 129 281.2 133.3M141.85,59.75L138 50.75Q134.7 42.8 130.75 37.45Q117.95 20.25 92.6 20.25Q69.3 20.25 48.15 40.9Q34 54.65 24.85 72.5Q19.5 83.05 18.25 98.65Q17.55 107.7 17.5 125.75Q17.2 133.5 14.15 177Q11.5 214.05 11.5 232.25Q11.5 250.15 13 260.4Q14.5 270.65 14.5 289.25L13.5 310.45L12.5 331.6Q12.5 344.15 15.8 384.4L19.5 429.35L19.85 453.55Q20.1 468.35 21.35 478.1Q23.05 491.65 32.5 502.3Q45.35 516.65 71.1 523.6Q109.45 522.15 126.5 490.95Q130.75 483.15 133.35 474.65L133.35 462.1Q134.45 454.6 135.7 437.35Q136.85 421.4 138.35 412.6L138.35 395.35L130.65 396.1L123.85 396.85L104.35 396.6Q102.35 393.6 102.35 389.85Q102.35 387.05 103.1 385.25Q104.2 382.55 106.85 382.6L124.25 382.05L134.85 381.35L134.85 380.85L141.35 381.1Q142.15 382.55 142.8 391.45Q143.35 398.7 143.35 402.5Q143.35 413.45 141.4 436.45L141.05 440.95Q142.8 443.3 143.2 447.25L143.35 455.1Q143.35 470.9 138.35 485.45L138.35 513.1Q137.95 515.7 137.95 519.9L138 527.05Q137.8 535.9 134.35 541.6Q132.25 539.8 131.6 535.05L131.35 530.35Q131.35 528.2 132 520.6Q132.65 512.3 133.35 507.1L133.35 497.3L132.95 498.05Q119.35 524.35 90.85 537.85L80.5 537.65L69.6 537.1Q32.95 536.6 20.4 493.8Q13.65 470.9 14.5 434.85Q14.55 432.05 11.05 388.4Q7.5 344.2 7.5 332.25L9.5 289.5Q9.5 276.35 8 265.25Q6.5 254.15 6.5 232.1Q6.5 210 8.95 155.9Q11.45 100.25 13 93Q22.65 49.55 45.15 27.3Q64.4 8.4 89.05 7.9Q111.1 7.5 127.7 21.1Q144.35 34.75 144.35 53.25Q144.35 56.9 141.85 59.75M277.35,472.1Q276.6 483.8 275.55 508.45Q273.7 530.1 267.35 545.6Q264.35 543.2 264.35 538.1Q264.35 534.9 267.15 516.2Q269.85 498.2 271.35 490.85Q270.5 474.85 270.8 466.6Q271.35 452 277.35 444.1Q282.15 460.35 286.4 485.95L293.35 528.1L293.6 528.1Q295.1 515 297.65 487.65Q300.1 461 301.85 446.35L302.5 445.9Q303.15 445.25 303.85 444.85Q305.8 446.4 306.25 449.7L306.35 455.35Q306.35 464.4 302.9 495.95Q298.55 535.15 293.85 546.6Q287.75 531.15 283.7 509.7L277.6 472.6L277.35 472.1M229.9,434.85Q230.55 436.75 230.35 438.85Q230.35 442 228.35 445.6L197.85 446.1Q193.6 447.15 161.35 448.6Q159.2 443.35 158.6 434.75Q158.35 431.15 158.35 420.85Q158.35 403.9 163.35 387.1Q166.35 389.35 166.35 397.25Q166.35 401.8 164.85 410.15Q163.35 418.45 163.35 420.5L163.85 426.6L164.35 433.6L183.85 433.6L224.35 431.1Q228.6 431.1 229.9 434.85M184.85,449.85Q203 451.45 212.1 462.95Q218.35 470.85 218.35 478.85Q218.35 483 213.9 489.35Q208.95 496.45 201.8 497.65L205.6 505.1Q210.5 510 222.15 519.75Q231.35 528.5 231.35 535.25Q231.35 536.35 230.65 538.5Q229.75 541.4 228.35 542.6Q216.3 533.6 203.65 518Q193.7 505.7 190.65 497.55L187.6 497.1Q175.25 497.5 170.05 495.1L168.8 499.85Q161.85 524.6 160.35 532.6Q157.45 532.45 156.65 529.7Q156.35 528.6 156.35 525.1Q156.35 522.85 161.85 496.75L168.05 468.5Q166.2 467.95 165.6 464.95L165.35 461Q165.35 456.55 167.45 454.45Q171.75 450.2 184.85 450.35L184.85 449.85M173.35,469.6Q173.35 475.65 172.55 482.05Q178.3 481.05 189.1 483.6Q200.3 483.35 205.7 481.2Q209.4 479.75 211.1 476.85Q206.65 471.4 203.9 469.15Q197.65 464.1 190.6 464.1Q176.8 464.1 173.3 465.8L173.35 469.6" />
</g>
</svg>
