<?xml version="1.0" encoding="utf-8"?>
<svg version="1.1" id="Layer_1"
xmlns="http://www.w3.org/2000/svg"
xmlns:xlink="http://www.w3.org/1999/xlink"


xml:space="preserve">
q-28.65 31.45 -11.95 72.45q12.5 30.75 16 63.4q1.2 11.1 -4.35 20.5q-5.15 8.8 -14.7 11.95q-8.55 18.05 14.3 19.15q10.55 -0.05 16.55 -9.7q9.05 -14.65 10.95 -31.75q1.25 -11.1 -2.6 -21.25q-15.2 -40.3 -18.6 -82.35q-1.2 -14.5 8.6 -25.85q1.9 -11.5 -9.55 -13.5q-0.6 -0.2 -0.65 0.25q-4.15 40.7 -4.3 82.55q-0.75 -30.15 1.9 -59.85q1.15 -12.85 -1.95 -22.4q-6.1 20.7 -5.85 44.25q0.6 59.7 -2.35 119.15q-0.85 17.25 4.95 29.05q3.95 -46.85 3.55 -94.6q18.65 1.25 37.1 -0.15q0.4 15 -1.1 29.85q-3.1 31 2.5 59.15q0.9 -0.6 0.95 -1.35q4.6 -38.45 4.05 -77.9q-0.85 -59.7 -0.25 -117.7q-5.1 3.65 -9 9.2q-21.2 30.2 -22.05 68.3q-0.25 13.3 -1.55 26.8q-4.35 46.6 19.6 83.4q15.3 2.9 26.55 -8.4q3.35 -3.35 5.95 -6.8q-2.05 11.25 4.8 15.1q4.9 -24.6 7.25 -50.05q1.65 -17.9 -7.5 -29.7q-1.25 4.75 1.5 8.2q-1 0.55 -1.75 1.45q-1.25 3.7 -0.75 7.55q0.15 1.25 1.05 2.2q0.95 1 0.95 2.25q-7.15 27.15 -33.95 28.25q-14.5 -21.15 -14.4 -48q0.05 -24.15 0.5 -47.95q0.75 -37.4 26.15 -62.25q6.15 -1.25 11.55 0.85q3.1 2 4.6 5.3q0.95 1.9 2.75 0.65q2.3 -5.05 0.7 -10.5q-2.35 -8.35 -10.15 -12q-5.75 53.35 -6.9 107.95q-0.55 21.8 10.2 39.95q14.55 24.45 41.55 6.1q4.45 -3.05 7.5 -7.1q18.75 -24.95 22.7 -56.5q7.55 -59.45 2 -118.65q-1.85 -2.05 -3.75 0q-2.65 4.8 -2.15 10.55q4.75 59.2 -6.45 117.6q-2.2 11.4 -7.4 21.8q-14.15 28 -45.5 23q-15.1 -24.85 -12.8 -55.5q4.45 -59.95 2.05 -118.45q18.2 9.7 14.9 33.6q-3.9 28.2 -21.35 18.4q-10.85 -6.15 -11.7 -18.85q-0.75 -12 4.9 -22.6q-19.75 15.25 -23.1 41.15q-3.15 24.4 11.5 42.3q8.35 10.2 16.9 1.55q20.1 -20.35 18.1 -49.9q-1.7 -25.8 -23.4 -35.1<g id="2724" transform="matrix(1, 0, 0, 1, -140.05, 0)">
<path style="fill:#000000;fill-opacity:1" d="M360.15,197.45L348.95 196.75Q339.15 208.1 340.35 222.6Q343.75 264.65 358.95 304.95Q362.8 315.1 361.55 326.2Q359.65 343.3 350.6 357.95Q344.6 367.6 334.05 367.65Q311.2 366.55 319.75 348.5L327.7 353.95L333.95 352.05Q343.5 348.9 348.65 340.1Q354.2 330.7 353 319.6Q349.5 286.95 337 256.2Q320.3 215.2 348.95 183.75L350.6 183.95Q362.05 185.95 360.15 197.45M421.15,180.8L421.7 181.5Q421.1 239.5 421.95 299.2Q422.5 338.65 417.9 377.1Q417.85 377.85 416.95 378.45Q411.35 350.3 414.45 319.3Q415.95 304.45 415.55 289.45L415.35 277.2Q396.9 278.6 378.25 277.35Q378.65 325.1 374.7 371.95Q368.9 360.15 369.75 342.9Q372.7 283.45 372.1 223.75Q371.85 200.2 377.95 179.5Q381.05 189.05 379.9 201.9Q377.25 231.6 378 261.75L378.1 265L415.25 262.8Q415.4 220.95 419.55 180.25Q419.6 179.8 420.2 180L421.15 180.8M180.95,184.05L190.5 184.5Q198.3 188.15 200.65 196.5Q202.25 201.95 199.95 207Q198.15 208.25 197.2 206.35L196.1 204.05Q194.6 200.75 191.5 198.75Q186.1 196.65 179.95 197.9L177.75 198.25Q152.35 223.1 151.6 260.5Q151.15 284.3 151.1 308.45Q151 335.3 165.5 356.45Q192.3 355.35 199.45 328.2Q199.45 326.95 198.5 325.95Q197.6 325 197.45 323.75Q196.95 319.9 198.2 316.2Q198.95 315.3 199.95 314.75L199.95 312.95L178.5 312.2Q175.75 308.75 177 304L177.5 302.45L199.95 298.45Q209.1 310.25 207.45 328.15Q205.1 353.6 200.2 378.2Q193.35 374.35 195.4 363.1L196.5 356.5Q193.9 359.95 190.55 363.3Q179.3 374.6 164 371.7Q140.05 334.9 144.4 288.3Q145.7 274.8 145.95 261.5Q146.8 223.4 168 193.2Q171.9 187.65 177 184L180.95 184.05M232.2,182Q234.6 240.5 230.15 300.45Q227.85 331.1 242.95 355.95Q274.3 360.95 288.45 332.95Q293.65 322.55 295.85 311.15Q307.05 252.75 302.3 193.55Q301.8 187.8 304.45 183Q306.35 180.95 308.2 183Q313.75 242.2 306.2 301.65Q302.25 333.2 283.5 358.15Q280.45 362.2 276 365.25Q249 383.6 234.45 359.15Q223.7 341 224.25 319.2L224.95 289.95Q226.1 235.35 231.85 182L232.2 182M256.6,240.8L253.7 242.75Q248.05 253.35 248.8 265.35Q249.65 278.05 260.5 284.2Q277.95 294 281.85 265.8Q285.15 241.9 266.95 232.2L256.6 240.8M289.35,251.35Q291.35 280.9 271.25 301.25Q262.7 309.9 254.35 299.7Q239.7 281.8 242.85 257.4Q246.2 231.5 265.95 216.25Q287.65 225.55 289.35 251.35" />
</g>
</svg>
