<?xml version="1.0" encoding="utf-8"?>
<svg version="1.1" id="Layer_1"
xmlns="http://www.w3.org/2000/svg"
xmlns:xlink="http://www.w3.org/1999/xlink"


xml:space="preserve">
q-40.7 13.4 -51.6 55.5q-12.4 47.85 -1.85 96q3.2 14.7 15.15 23.45q21.4 15.55 45.3 1.95q12.5 -7.1 18.3 -16.75q-1.9 10.85 4.95 14.35q7.65 -36.05 3.9 -72q-15.2 0.85 -28.75 6.25q-0.7 3 0.2 5.95q13.55 2.7 24.75 0.5q-1.1 0.5 -1.35 1.3q-2.65 9.25 -7.85 17.75q-16 26.1 -48.6 17.35q-7.25 -1.95 -10.65 -8.45q-15.8 -30.05 -12.65 -64.55q2.8 -31.05 21.6 -55.15q23.05 -29.5 57.5 -19.95q-4.55 -18.75 -26.45 -15.5q-23.75 37.95 -26.4 83.9q-2.2 38.25 12.15 72.4q10.3 24.45 32.55 10.3q6.65 -4.25 11.05 -9.2q-0.85 12.55 4.15 22.05q5.85 -34.55 3.55 -68.2q-13.05 1 -24.7 5.25q-1.2 3.8 0.25 7.5q10.05 2.25 19.45 1.5q-7.5 16.15 -23.2 25.1q-18.3 -0.05 -22.6 -19.15q-11.3 -50.2 2.75 -99.8q3.65 -12.85 12.45 -22.5q17.15 -18.8 33.6 -1.75q0 1.15 0.15 2.3q0.15 1.35 1.45 2.05q5.65 -28.05 -24.7 -26.9q-8.5 2 -13.05 9.25q-4.45 22.85 -2.9 47.2q1.5 24.35 1.75 48.65q0.2 23.35 -10.8 43.6q-16.35 30 -49.25 24.9q-3.75 -6 -4.7 -12.9q-6.25 -44.2 -2.15 -89.05q2.75 -30.35 2.85 -59.25q-6.8 11.45 -7.5 26.9q-1.95 40.75 -4.3 81.75q-1.8 31 9.6 58.8q6.5 15.9 25.15 10q27.85 -8.8 38.45 -35.55q2.1 -5.3 3.1 -10.7q6.65 -37 6.8 -75.45q0.15 -30.65 -5.3 -59.25q-0.75 0.1 -0.8 0.35<g id="2726" transform="matrix(1, 0, 0, 1, -136.35, 0)">
<path style="fill:#000000;fill-opacity:1" d="M407.4,197.5L407.45 198.25Q373 188.7 349.95 218.2Q331.15 242.3 328.35 273.35Q325.2 307.85 341 337.9Q344.4 344.4 351.65 346.35Q384.25 355.1 400.25 329Q405.45 320.5 408.1 311.25Q408.35 310.45 409.45 309.95Q398.25 312.15 384.7 309.45Q383.8 306.5 384.5 303.5L384.7 302.7Q398.25 297.3 413.45 296.45Q417.2 332.4 409.55 368.45L409.2 369.2Q402.35 365.7 404.25 354.85L406.25 342.15Q400.45 351.8 387.95 358.9Q364.05 372.5 342.65 356.95Q330.7 348.2 327.5 333.5Q316.95 285.35 329.35 237.5Q340.25 195.4 380.95 182Q402.85 178.75 407.4 197.5M178,181.75Q208.35 180.6 202.7 208.65L202.2 209.5L201.55 209.35Q200.25 208.65 200.1 207.3Q199.95 206.15 199.95 205L199.95 204.25Q183.5 187.2 166.35 206Q157.55 215.65 153.9 228.5Q139.85 278.1 151.15 328.3Q155.45 347.4 173.75 347.45Q189.45 338.5 196.95 322.35L197 322.3L197.2 316.45Q187.8 317.2 177.75 314.95Q176.3 311.25 177.5 307.45L177.75 306.7Q189.4 302.45 202.45 301.45Q204.75 335.1 198.9 369.65L198.45 370.45Q193.45 360.95 194.3 348.4Q189.9 353.35 183.25 357.6Q161 371.75 150.7 347.3Q136.35 313.15 138.55 274.9Q141.2 228.95 164.95 191Q169.5 183.75 178 181.75M300.45,182.25Q305.9 210.85 305.75 241.5Q305.6 279.95 298.95 316.95Q297.95 322.35 295.85 327.65Q285.25 354.4 257.4 363.2Q238.75 369.1 232.25 353.2Q220.85 325.4 222.65 294.4Q225 253.4 226.95 212.65Q227.65 197.2 234.45 185.75Q234.35 214.65 231.6 245Q227.5 289.85 233.75 334.05Q234.7 340.95 238.45 346.95Q271.35 352.05 287.7 322.05Q298.7 301.8 298.5 278.45Q298.25 254.15 296.75 229.8Q295.2 205.45 299.65 182.6Q299.7 182.35 300.45 182.25" />
</g>
</svg>
