<?xml version="1.0" encoding="utf-8"?>
<svg version="1.1" id="Layer_1"
xmlns="http://www.w3.org/2000/svg"
xmlns:xlink="http://www.w3.org/1999/xlink"


xml:space="preserve">
q-2.2 -4.35 -4.9 -8.35q-4.4 -6.6 -10.25 -12q-7.45 51.95 -9 105.25q-0.85 29.45 -3.95 58.85q-1.8 8.4 -2.55 17.05q-1.25 14.95 3.75 26.6q7.2 -43.7 21.1 -85.15q9.85 1.2 18.5 -4.95q13.3 81.4 38.05 157.55q4.45 -3.35 4.45 -9.8q0 -5.5 -2.6 -10.45q20 -16.25 24.3 -42.25q1.6 -9.5 0 -19.1q-0.75 -4.6 -2.1 -9q-1.4 -4.45 -3.5 -8.55q-12.55 17.75 -34.3 19.9q4.8 -36.9 3.8 -73.4q23.45 -9.8 34.25 12.85q10.05 21.15 -3.75 40.65q6.5 -27.9 -21.4 -34.75q-41.05 25.5 -41.3 77.65q-0.25 44.4 -5.9 88.45q-6.1 47.75 12.6 90.7q2.6 5.95 10.1 5.25q16.35 -0.85 27.75 -12.85q5.7 -5.95 9.15 -13.2q1.3 -4.2 1.65 -8.55q0.55 -7.35 -2.3 -11.95q-13.6 30.5 -44.35 35q-18.5 -34.2 -11.2 -74.6q3.3 -18.4 4.3 -37.2q15.25 4.65 30.5 0.95q4.2 -6.75 0.45 -13.5q-2.8 -55.25 25.45 -99.25q22.95 -12 32.15 13.4q-32.4 42.5 -35.05 96.4q-1.45 29.4 -0.5 58.6q1.3 38.3 18.15 72.3q11.55 23.25 35.95 21.8q5.15 -0.3 8.85 -3.2q48.4 -37.5 59.95 -98.4q11.3 -59.3 -3.35 -117.85q-10.3 -41.3 -52.45 -42.45q-9.6 2.15 -15.15 9.45q11.5 -15.1 30.1 -19.05q14.35 -3.25 27.45 1.35q0.35 5 4.55 7.45q35.85 45.15 24.85 107.95q-2.95 16.9 -7.75 33.25q-3.3 11.2 -7.85 21.9q-4.65 10.8 -10.25 20.95q-8.2 14.9 -22.15 24.6q-17.45 12 -33.95 0.05q-28.3 -20.35 -31 -57.6q-2.75 -38 2.5 -75.95q2.5 -18.3 7.45 -36.1q3.05 -11 7.8 -21.5q2.5 -5.4 6.25 -10.3q20.7 5.15 24.55 26.6q7.7 -14.65 -3.85 -29.6q-18.4 -23.65 -44.45 -10.25q-22.05 11.45 -32.1 35.2q-21.8 51.5 -22.3 108q-0.3 36.4 13.15 70q7.05 17.6 19.7 31.75q5.95 6.6 14.55 8.2q6.2 -0.5 12 -2.25q9.3 -2.95 16.8 -9.15q5.3 -4.4 9.5 -9.75q-1.2 15.95 3.2 30.15q8.85 -39.05 8 -79.45q-0.2 -9.6 -1.4 -19q-2.15 2.7 -2.45 6.25q-0.3 3.05 1.15 5.85q-4.95 8.6 -12.05 18.75q-14.95 21.4 -38.2 14.1q-21.15 -6.6 -26.9 -28.3q-11.05 -42 -8.2 -85.45q1.95 -30.2 11.9 -58.55q6.45 -18.4 17.75 -34.15q14.95 -17.45 37.95 -11.85<g id="2743" transform="matrix(1, 0, 0, 1, -51.45, 0)">
<path style="fill:#000000;fill-opacity:1" d="M382.1,148.4Q383.45 152.8 384.2 157.4Q385.8 167 384.2 176.5Q379.9 202.5 359.9 218.75L393.7 355.7L405.2 338.25L395.2 359.2Q397.8 364.15 397.8 369.65Q397.8 376.1 393.35 379.45Q368.6 303.3 355.3 221.9L352.85 223.5Q344.2 229.65 334.35 228.45L327.7 316.25L337.95 290.8Q324.05 332.25 316.85 375.95L316.65 376Q311.65 364.35 312.9 349.4Q313.65 340.75 315.45 332.35L318.35 317.65L319.5 310.2L322 288.1Q325.1 258.7 325.95 229.25Q327.5 175.95 334.95 124L353.95 118.5L363.45 119.5Q369.3 124.9 373.7 131.5Q376.4 135.5 378.6 139.85Q380.7 143.95 382.1 148.4M373.45,149.65Q362.65 127 339.2 136.8Q340.2 173.3 335.4 210.2Q357.15 208.05 369.7 190.3Q383.5 170.8 373.45 149.65M478.15,150.15Q468.95 124.75 446 136.75Q417.75 180.75 420.55 236L449.45 234L450.5 235.85Q454.25 242.6 450.05 249.35Q434.8 253.05 419.55 248.4Q418.55 267.2 415.25 285.6Q407.95 326 426.45 360.2Q457.2 355.7 470.8 325.2Q473.65 329.8 473.1 337.15Q472.75 341.5 471.45 345.7L470.55 348.5L470 349.9L469.35 351.25Q465.9 358.5 460.2 364.45Q448.8 376.45 432.45 377.3Q424.95 378 422.35 372.05Q403.65 329.1 409.75 281.35Q415.4 237.3 415.65 192.9Q415.9 140.75 456.95 115.25Q484.85 122.1 478.35 150L478.15 150.15M231.55,120.85L247.95 117.5Q290.1 118.65 300.4 159.95Q315.05 218.5 303.75 277.8Q292.2 338.7 243.8 376.2Q240.1 379.1 234.95 379.4Q210.55 380.85 199 357.6Q182.15 323.6 180.85 285.3Q179.9 256.1 181.35 226.7Q184 172.8 216.4 130.3Q221.95 123 231.55 120.85M204.65,162.5Q199.9 173 196.85 184Q191.9 201.8 189.4 220.1Q184.15 258.05 186.9 296.05Q189.6 333.3 217.9 353.65Q234.4 365.6 251.85 353.6Q265.8 343.9 274 329Q279.6 318.85 284.25 308.05Q288.8 297.35 292.1 286.15Q296.9 269.8 299.85 252.9Q310.85 190.1 275 144.95L274.2 142.75L273 141.95Q268.8 139.5 268.45 134.5Q255.35 129.9 241 133.15Q222.4 137.1 210.9 152.2Q207.15 157.1 204.65 162.5M91.95,138Q80.65 153.75 74.2 172.15Q64.25 200.5 62.3 230.7Q59.45 274.15 70.5 316.15Q76.25 337.85 97.4 344.45Q120.65 351.75 135.6 330.35Q142.7 320.2 147.65 311.6L149.7 292.25L120.45 299.25L119.65 297.85Q118.2 295.05 118.5 292Q118.8 288.45 120.95 285.75L133.45 278.75L153.85 276.95Q155.05 286.35 155.25 295.95Q156.1 336.35 147.25 375.4L147.05 375.4Q142.65 361.2 143.85 345.25Q139.65 350.6 134.35 355Q126.85 361.2 117.55 364.15Q111.75 365.9 105.55 366.4L99.15 366.05Q90.55 364.45 84.6 357.85Q71.95 343.7 64.9 326.1Q51.45 292.5 51.75 256.1Q52.25 199.6 74.05 148.1Q84.1 124.35 106.15 112.9Q132.2 99.5 150.6 123.15Q162.15 138.1 154.45 152.75Q150.6 131.3 129.9 126.15Q106.9 120.55 91.95 138" />
</g>
</svg>
