<?xml version="1.0" encoding="utf-8"?>
<svg version="1.1" id="Layer_1"
xmlns="http://www.w3.org/2000/svg"
xmlns:xlink="http://www.w3.org/1999/xlink"


xml:space="preserve">
q21.25 57.1 32.65 116q11.5 59.2 2.15 118.5q-9.65 61.25 -39.15 116.05q-8.45 15.75 -23.3 26.45q-23.75 17.15 -53.75 7.65q-20.45 -17.3 -27.65 -43.9q-11.5 -42.35 -13.55 -86.5q-2.75 -59.6 0.1 -118.6q2.9 -59.65 17.65 -117.25q9.05 -35.35 41.45 -48.45q32.35 -7.05 53.5 13.5q-0.2 0.8 -0.75 1.4q1.75 1.2 2.5 2.8q5.35 4.85 8.15 12.35q-20.7 -26.25 -57.05 -19.7q-15.8 2.8 -25.4 16.5q-25.15 36.1 -31.65 80.1q-8.5 58 -10.15 117.15q-0.6 22 -0.45 44.25q0.55 57.8 9.8 114q7.3 44.2 38.35 74.2q17.8 5.7 37 1.8q17.9 -3.6 28.8 -17.7q35.45 -45.7 49.65 -103.05q14.35 -57.7 11.65 -118q-2.55 -58.4 -19.9 -113.85q-11.8 -37.8 -26.2 -74.4q-1.2 24.7 -0.25 50.05q2.25 59.45 6.25 118.55q4.05 59.15 5.25 118.35q0.35 16.5 6.15 29.75q5 -5.75 3.25 -14q0.75 -10.25 2.85 -20.25q5.15 -41.15 12.5 -82.2q4.65 -25.9 6.15 -51q1.9 27.9 10.3 55.65q15.65 51.7 31.65 102.15q0.4 -0.5 0.3 -1.3q6.4 -32.5 7.6 -67.3q2.1 -59.75 8.95 -118.45q3.5 -29.9 3.55 -58.45q-5.25 6.5 -6.1 16.85q-4.8 59.2 -8.35 118.65q-3.55 59.35 -7.95 118.45q-0.95 13.05 -3.25 25.85q-3.15 -16.8 -8.25 -33.5q-6.1 7.6 -7.95 18.5q-9.05 54.2 -16.15 108.85q-1.95 -40.5 -3.6 -81.15q-2.45 -59.45 -9.6 -117.65q-0.65 -0.2 -0.65 0.25q-5.05 47.1 -7.35 94.45q-0.7 14.75 0.6 29.4q0.6 7.05 3.25 13.4q5 -34.25 4.15 -69.1q4.9 21.85 15.85 41.8q3.65 6.9 10.5 10.3q15 -10.45 17.25 -28.55q1.05 -8.25 -0.4 -16.45q-0.95 -5.25 -3.45 -9.9q-5.1 -9.6 -15.55 -13.1q-3.5 -1.15 -7.1 -1.65q-1.4 3.05 -1.25 1q-18.2 -8.4 -39.6 -5.05q-13.2 1.7 -21.85 12.4q-27.55 33.95 -34.75 77.65q-4.45 27.15 -6 54.9q-3.35 59.15 -0.2 118.45q1.2 22.1 0.95 44.3q-0.6 52.15 14.45 101q5.15 16.75 18.8 26.85q23 17.05 43.1 -1.45q22.55 -20.8 29.3 -49.75q2.75 -11.75 -3.8 -17.65q-2.4 19.95 -12.7 38.4q-13.9 24.95 -42.6 20.6q-11.15 -1.7 -16.8 -10.7q-20.45 -32.25 -21.65 -71.3q-0.55 -18.15 -1.65 -36.6q-2.2 -36.65 -2.3 -73.6q-0.15 -58.8 5.25 -116.95q3.15 -33.95 14.8 -65.85q7.7 -21.2 27.55 -31.25q12.75 -6.45 28.15 -5.9q30.65 1.05 34.95 30.2q5.6 -15.8 -4.15 -29.25q-3.35 -4.6 -7.35 -8.75q-1 -0.25 -1.9 -0.7q-2 30.7 -3 61.5q-0.35 10.5 -1.65 20.85q-1.85 14.8 4.15 23.9q2.65 -3.65 2.65 -8.25q-0.05 -29.05 2.85 -57.6q2.9 -28.55 -2.25 -54.9q-14.65 -0.6 -28 4.25q-1.3 2.85 -0.55 6.05q-10.6 4.25 -22.1 3.05q22.7 -6.25 33.95 15.2q11.5 21.9 -11.3 31.25q-1.95 59.65 -3.1 119.25q-0.25 13.4 4.9 21.5q2 0.75 4.1 1.1q31.4 5.1 63.15 6.15q0.15 -2.8 -1.3 -5.25q-33.3 -1.85 -66.45 -5.85q-0.3 -8.4 -0.1 -16.5q1.6 -59.75 -0.8 -118.45q-3.1 4.2 -3.3 10.7<g id="2729" transform="matrix(1, 0, 0, 1, -38, 0)">
<path style="fill:#000000;fill-opacity:1" d="M366.45,80.45Q365.7 78.85 363.95 77.65Q364.5 77.05 364.7 76.25Q343.55 55.7 311.2 62.75Q278.8 75.85 269.75 111.2Q255 168.8 252.1 228.45Q249.25 287.45 252 347.05Q254.05 391.2 265.55 433.55Q272.75 460.15 293.2 477.45Q323.2 486.95 346.95 469.8Q361.8 459.1 370.25 443.35Q399.75 388.55 409.4 327.3Q418.75 268 407.25 208.8Q395.85 149.9 374.6 92.8Q371.8 85.3 366.45 80.45M369.7,68.25L370.25 68.65L371.95 68.65L373.45 68.75Q387.85 105.35 399.65 143.15Q417 198.6 419.55 257Q422.25 317.3 407.9 375Q393.7 432.35 358.25 478.05Q347.35 492.15 329.45 495.75Q310.25 499.65 292.45 493.95Q261.4 463.95 254.1 419.75Q244.85 363.55 244.3 305.75Q244.15 283.5 244.75 261.5Q246.4 202.35 254.9 144.35Q261.4 100.35 286.55 64.25Q296.15 50.55 311.95 47.75Q348.3 41.2 369 67.45L369.7 68.25M425.2,189.75Q432.35 247.95 434.8 307.4Q436.45 348.05 438.4 388.55L442.1 460.35Q449.2 405.7 458.25 351.5Q460.1 340.6 466.2 333L466.05 336.95L466.2 337L500.55 449.05Q505.65 465.75 508.8 482.55Q511.1 469.75 512.05 456.7Q516.45 397.6 520 338.25Q523.55 278.8 528.35 219.6Q529.2 209.25 534.45 202.75Q534.4 231.3 530.9 261.2Q524.05 319.9 521.95 379.65L519.9 439Q518.7 473.8 512.3 506.3L512.3 506.5Q512.4 507.3 512 507.8L511.95 507.95L511.9 507.9L510.95 508.45L509.55 504L507.8 498.55Q491.8 448.1 476.15 396.4Q467.75 368.65 465.85 340.75Q464.35 365.85 459.7 391.75Q452.35 432.8 447.2 473.95L447.8 471.8L448.2 471.7Q446.1 481.7 445.35 491.95L445.2 492.7Q446.95 500.95 441.95 506.7Q436.15 493.45 435.8 476.95Q434.6 417.75 430.55 358.6Q426.55 299.5 424.3 240.05Q423.35 214.7 424.55 190Q424.55 189.55 425.2 189.75M164.45,187.25L169.5 185.25L180.45 185.65Q184.05 186.15 187.55 187.3Q198 190.8 203.1 200.4Q205.6 205.05 206.55 210.3Q208 218.5 206.95 226.75Q204.7 244.85 189.7 255.3L222.15 324.95L220.65 324.75Q213.8 321.35 210.15 314.45L201.6 298.65Q190.65 278.7 185.75 256.85L163.85 256.4Q164.7 291.25 159.7 325.5Q157.05 319.15 156.45 312.1Q155.15 297.45 155.85 282.7Q158.15 235.35 163.2 188.25Q163.05 190.3 164.45 187.25M145.45,44.25Q149.45 48.4 152.8 53Q162.55 66.45 156.95 82.25Q152.65 53.1 122 52.05Q106.6 51.5 93.85 57.95Q74 68 66.3 89.2Q54.65 121.1 51.5 155.05Q46.1 213.2 46.25 272Q46.35 308.95 48.55 345.6Q49.65 364.05 50.2 382.2Q51.4 421.25 71.85 453.5Q77.5 462.5 88.65 464.2Q117.35 468.55 131.25 443.6Q141.55 425.15 143.95 405.2Q150.5 411.1 147.75 422.85Q141 451.8 118.45 472.6Q98.35 491.1 75.35 474.05Q61.7 463.95 56.55 447.2Q41.5 398.35 42.1 346.2Q42.35 324 41.15 301.9Q38 242.6 41.35 183.45Q42.9 155.7 47.35 128.55Q54.55 84.85 82.1 50.9Q90.75 40.2 103.95 38.5Q125.35 35.15 143.55 43.55Q144.45 44 145.45 44.25M115.35,384.95L115.15 384.25Q114.4 381.05 115.7 378.2Q129.05 373.35 143.7 373.95L145.2 374.25L153.95 374.2Q159.1 400.55 156.2 429.1Q153.3 457.65 153.35 486.7Q153.35 491.3 150.7 494.95Q144.7 485.85 146.55 471.05Q147.85 460.7 148.2 450.2Q149.2 419.4 151.2 388.7L115.7 385.7L115.35 384.95M197.4,211.5Q186.15 190.05 163.45 196.3L164 245.8Q175.5 247 186.1 242.75Q208.9 233.4 197.4 211.5M180.2,342Q182.6 400.7 181 460.45Q180.8 468.55 181.1 476.95L181 482.7Q214.15 486.7 247.45 488.55L248.2 488.95Q249.65 491.4 249.5 494.2L249.4 494.95L249.25 495.7L248.9 497.2L248.35 498.65L247.7 499.45Q215.95 498.4 184.55 493.3Q182.45 492.95 180.45 492.2L179.45 491.15L178.7 493.45Q173.55 485.35 173.8 471.95Q174.95 412.35 176.9 352.7Q177.1 346.2 180.2 342" />
</g>
</svg>
