<?xml version="1.0" encoding="utf-8"?>
<svg version="1.1" id="Layer_1"
xmlns="http://www.w3.org/2000/svg"
xmlns:xlink="http://www.w3.org/1999/xlink"


xml:space="preserve">
q-5.85 -7.7 -13.95 -13.15q-18.85 13.1 -25.5 36q-5.45 18.7 -6.9 38.4q-4.15 57.65 -7.25 115.6q-2.15 33.2 18.05 58.35q16.5 20.5 34.45 0.2q18.85 -22.15 12.65 -46.7q-0.45 0.15 -0.85 0.5q-0.75 1.05 -0.6 -0.5q-0.55 6.6 -5.2 16.45q-10.45 22.15 -28.55 37.8q-12.45 3.35 -19.05 -5.55q-7.9 -10.7 -9.8 -23.9q-3.75 -26.05 -2.7 -52.35q1.3 -31.35 2.75 -62.6q16.15 0.55 32.8 -4.3q4.3 -8 -0.85 -14.9q-16.95 1.5 -32 7.7q2.15 -47.5 13.85 -92.3q6 -22.85 28.8 -22.6q5.3 3.15 9.6 7.65q3.6 3.75 6.65 2.35q2.3 -5.75 -1.55 -10.85q-21.5 6.75 -30.55 27.7q-16.25 37.7 -18.55 79.15q-3.3 59.25 -3.9 119.35q-0.35 39.45 19.6 72.25q5.2 8.55 15 5.6q19.35 -5.85 31.95 -21.95q12.8 -16.25 2.45 -28.9q-2.4 3.15 -4.5 6.75q-13.05 21.45 -36.75 21.25q-16.75 -22.85 -17.3 -51.75q-1.15 -59.45 3.15 -118.5q1.1 -15.15 1.6 -30.05q1.4 -41.85 32.05 -67.4q14.95 -6.3 28.75 2q1.5 -19.75 -21.3 -19.2q-10.5 3.55 -22.5 4.5q-0.5 0.35 -0.95 0.8q0.4 -23.8 1.2 -47.55q0.65 -18.7 2.15 -37.35q2.4 -30.45 -1 -59.35q-4.55 2.9 -4.95 9.65q-2.4 42.1 -3.45 84.85q-1.45 59.55 -1 119.2q0.25 30.05 -3.2 59.8q-1.95 16.55 4.1 29.95q5.1 -9.3 5.35 -21.5q0.6 -32.95 0.4 -66q-0.2 -28.85 0.2 -57.75q-1.25 47.3 -1.4 94.05q-0.05 15.05 -1.9 29.85q-2.05 16.55 3.9 29.9q1.75 -0.25 1.85 -2q4 -48.2 2.6 -97.5q-1.25 -44.65 2.35 -89.1q4.8 -59.65 0.7 -118.6q-3.35 19.55 -4.05 40.45q-1.6 -0.3 -1.55 0.7q-2.95 6.5 -4.3 13.55q-11 57.65 -17.9 116.05q-7 58.85 -17.65 117.05q-2.7 14.8 -8.7 28.65q-7.45 17.15 0.8 29.4q18.15 -48.35 24.75 -101.05q15.8 2.6 32.7 -1.9q4.65 59.85 16.55 116.85q3 0.6 2.95 -2.25q-1 -34.9 -5.2 -70.55q-6.95 -58.8 -12.1 -117.75q-4.75 -53.9 -13.75 -106.35q-0.1 -4.45 -0.85 -8.8q1.3 21.6 3.4 43.55q3.9 41.6 7.35 83.3q-14.25 3.25 -28.7 5.55q4.2 -36.05 7.9 -72.15q3.05 -29.45 10.65 -57.95q-3.9 48.05 -2.85 97.5q0.6 30 2.5 59.85q3.9 61.1 -20.05 115.85q-10.35 23.6 -32.85 14.25q-4.7 -1.95 -6.8 -6.2q-11.15 -22.65 -9.25 -48.9q4.35 -59.25 7.8 -118.35q3.45 -60.05 -1.75 -118.5q-2.75 1.35 -2.75 5.25q0.35 48.35 -1.9 96.7q-2.8 59.25 -7.1 118.45q-2.45 33.5 4.2 65.85q6 29.15 36.3 27.2q6.1 -3.85 9.95 -9.8q29.75 -45.5 29.8 -100.45q0 -29.65 1.85 -59.15q0.95 -15 -7.1 -21.1q14.95 -1.4 29.1 3q6.1 2 9.1 7.6q4.2 7.9 9.25 14.8q4.25 -6 1.05 -15.2q-4.35 -12.6 -15.75 -19.45q-28.7 -17.25 -48.8 9.4q-57.7 76.6 -42.5 174.15q5.05 32.5 14.15 64.35q7.9 27.75 29.8 46.55q7.7 6.6 17.8 4.35q6.2 -1.3 12.1 -3.65q5.75 -2.2 10.45 -6.1q4.15 -3.4 7.4 -7.65q4.8 -6.4 7.7 -13.65q-1.5 10.2 -1.55 21.4q-0.05 9.15 4.85 14.95q3.7 -19 4.2 -38.5q0.65 -24.65 -3.6 -48.9q-13.05 1.1 -25.2 6q-6.35 2.55 -6.7 9.5q-0.15 2.6 0.4 5.5q-2.65 6.85 -7.4 12.7q-9.1 11.1 -22.75 13.65q-15.75 3.25 -26.45 -11.25q-37.55 -50.7 -33.9 -117.5q2 -35.95 9.3 -71.2q4.4 -21.05 15.8 -39.05q11.3 -17.85 28.15 -30.55<g id="2742" transform="matrix(1, 0, 0, 1, 3, 0)">
<path style="fill:#000000;fill-opacity:1" d="M539.95,131.25Q536.9 132.65 533.3 128.9Q529 124.4 523.7 121.25Q500.9 121 494.9 143.85Q483.2 188.65 481.05 236.15L480.45 249.7Q495.5 243.5 512.45 242Q517.6 248.9 513.3 256.9L512.7 257.75Q496.05 262.6 479.9 262.05Q478.45 293.3 477.15 324.65Q476.1 350.95 479.85 377Q481.75 390.2 489.65 400.9Q496.25 409.8 508.7 406.45Q526.8 390.8 537.25 368.65Q541.9 358.8 542.45 352.2L542.45 352.95L542.35 354.45Q542.2 356 542.95 354.95Q543.35 354.6 543.8 354.45L546.45 353.7Q552.65 378.25 533.8 400.4L521.4 414.65Q503.45 434.95 486.95 414.45Q466.75 389.3 468.9 356.1L472.3 297Q475.4 239.05 479.55 181.4Q481 161.7 486.45 143Q493.1 120.1 511.95 107L524.45 107.25Q532.55 112.7 538.4 120.4Q542.25 125.5 539.95 131.25M403.25,124.95L402.7 125.75Q388.9 117.45 373.95 123.75Q343.3 149.3 341.9 191.15Q341.4 206.05 340.3 221.2Q336 280.25 337.15 339.7Q337.7 368.6 354.45 391.45Q378.15 391.65 391.2 370.2L393.45 365.7Q395.55 362.1 397.95 358.95Q408.3 371.6 395.5 387.85Q382.9 403.95 363.55 409.8Q353.75 412.75 348.55 404.2Q328.6 371.4 328.95 331.95Q329.55 271.85 332.85 212.6Q335.15 171.15 351.4 133.45Q360.45 112.5 381.95 105.75Q404.75 105.2 403.25 124.95M465.95,106.8L466.45 106.75Q470.55 165.7 465.75 225.35Q462.15 269.8 463.4 314.45Q464.8 363.75 460.8 411.95Q460.7 413.7 458.95 413.95Q453 400.6 455.05 384.05Q456.9 369.25 456.95 354.2Q457.1 307.45 458.35 260.15L428.95 266.2L425.9 265.7Q425.5 294.6 425.7 323.45Q425.9 356.5 425.3 389.45Q425.05 401.65 419.95 410.95Q413.9 397.55 415.85 381Q419.3 351.25 419.05 321.2Q418.6 261.55 420.05 202Q421.1 159.25 423.5 117.15Q423.9 110.4 428.45 107.5Q431.85 136.4 429.45 166.85Q427.95 185.5 427.3 204.2Q426.5 227.95 426.1 251.75L428.95 251.25L429.5 250.55Q429.95 250.1 430.45 249.75Q442.45 248.8 452.95 245.25L458.75 245.75L459.05 235.8L461.9 147.25Q462.6 126.35 465.95 106.8M193.5,104.75Q194.25 109.1 194.35 113.55Q203.35 166 208.1 219.9Q213.25 278.85 220.2 337.65Q224.4 373.3 225.4 408.2Q225.45 411.05 222.45 410.45Q210.55 353.45 205.9 293.6L204.45 275.25Q187.55 279.75 171.75 277.15L167.75 309.65Q161.15 362.35 143 410.7Q134.75 398.45 142.2 381.3Q148.2 367.45 150.9 352.65Q161.55 294.45 168.55 235.6Q175.45 177.2 186.45 119.55Q187.8 112.5 190.75 106L191.05 105.7L190.95 103.7Q190.9 102.7 192.5 103L192.85 104.8L193 104.75L193.5 104.75M191.8,134.45Q184.2 162.95 181.15 192.4Q177.45 228.5 173.25 264.55Q187.7 262.25 201.95 259L203.15 259.05Q199.7 217.35 195.8 175.75Q193.7 153.8 192.4 132.2L191.8 134.45M321.55,125.6Q319.7 155.1 319.7 184.75L319.7 303.2Q319.65 358.15 289.9 403.65Q286.05 409.6 279.95 413.45Q249.65 415.4 243.65 386.25Q237 353.9 239.45 320.4Q243.75 261.2 246.55 201.95Q248.8 153.6 248.45 105.25Q248.45 101.35 251.2 100Q256.4 158.45 252.95 218.5Q249.5 277.6 245.15 336.85Q243.25 363.1 254.4 385.75Q256.5 390 261.2 391.95Q283.7 401.3 294.05 377.7Q318 322.95 314.1 261.85Q312.2 232 311.6 202Q310.55 152.55 314.45 104.5Q322.5 110.6 321.55 125.6M42.6,144.55Q31.2 162.55 26.8 183.6Q19.5 218.85 17.5 254.8Q13.85 321.6 51.4 372.3Q62.1 386.8 77.85 383.55Q91.5 381 100.6 369.9Q105.35 364.05 108 357.2L112.15 360.15L111.75 338.7L84 342.45Q83.45 339.55 83.6 336.95Q83.95 330 90.3 327.45Q102.45 322.55 115.5 321.45Q119.75 345.7 119.1 370.35Q118.6 389.85 114.9 408.85Q110 403.05 110.05 393.9Q110.1 382.7 111.6 372.5Q108.7 379.75 103.9 386.15Q100.65 390.4 96.5 393.8Q91.8 397.7 86.05 399.9Q80.15 402.25 73.95 403.55Q63.85 405.8 56.15 399.2Q34.25 380.4 26.35 352.65Q17.25 320.8 12.2 288.3Q-3 190.75 54.7 114.15Q74.8 87.5 103.5 104.75Q114.9 111.6 119.25 124.2Q122.45 133.4 118.2 139.4Q113.15 132.5 108.95 124.6Q105.95 119 99.85 117Q85.7 112.6 70.75 114Q53.9 126.7 42.6 144.55" />
</g>
</svg>
