<?xml version="1.0" encoding="utf-8"?>
<svg version="1.1" id="Layer_1"
xmlns="http://www.w3.org/2000/svg"
xmlns:xlink="http://www.w3.org/1999/xlink"


xml:space="preserve">
q3.75 54.1 9.85 107.7q6.65 58.7 10.5 117.8q0.4 5.75 0.3 11.25q-0.3 18.15 8.95 29q0.95 -0.95 0.9 -2.2q-0.95 -30.15 -3.95 -60.8q-18.25 54.35 -30.85 112.65q-2.4 11.05 -5.7 21.8q-1.8 -23.25 -3.2 -46.55q-2.7 -44.55 -12.4 -87.3q-3.95 6.2 -4.4 14.9q-5.65 58.6 -13.25 117q-7.7 59 -16.55 117.85q-1.1 7.45 -3.45 14.45q-1.8 5.4 -2.2 10.3q-7.5 -51.2 -8.95 -103.25q-1.7 -59.7 -1.85 -119.25q-0.1 -24.05 -1 -46.75q0.25 -8.8 -0.35 -17.5q-5.85 13.25 -7.85 30.2q-1.9 16.3 -4.95 32.5q-11.1 58.5 -27.05 115.95q-6.3 9.6 2.25 16q5.85 -8.4 8.35 -19.1q6.85 -29.15 12.5 -58.4q13.7 3.35 27.45 1.05q1.15 19.95 3.05 39.8q2.15 22.5 2.55 45.1q0.3 17.35 7.3 29q2.75 -6.15 3.25 -12.75q0.5 7.35 4.5 13.5q6.45 -23.4 9.6 -47.95q1.8 -14.55 4.1 -29q7.25 -45.65 8.25 -91.15q3.75 59.1 10.2 117.75q-0.8 13.25 6.3 21.15q2.4 -2.4 2.05 -6q5.65 -23.15 10.4 -46.85q5.7 -28.55 14.7 -55.8q3.1 -9.4 5.2 -18.7q-7.8 -45.45 -28.75 -87.3q1.05 -5 -1.4 -9.7q-12.8 -24.45 -43.85 -23.3q-14.6 5.8 -25.5 17.65q-44.25 47.95 -48.9 113.75q-4.25 44.9 14 84.75q2.3 5 5.9 9q11.65 12.85 27.1 22.75q21.3 13.65 42.6 -0.05q25.3 -16.25 40.55 -42.25q31.35 -53.35 20.7 -115.2q-2.95 2.8 -1.8 3.5q0.9 -0.25 1.45 -0.85q2.1 -2.2 3.8 -0.65q7.85 20.8 17.75 40.85q19.7 39.9 19.15 84.4q-0.75 62.05 -47.3 104.6q-15.4 14.05 -35.25 9.65q-16 -3.55 -30.05 -13.5q-18 -12.7 -22.8 -35.65q-5.1 -24.2 -4.65 -49.35q0.45 -29.8 5.3 -58.75q10.4 -62.45 64.1 -94.5q18.4 -0.7 33 8.5q-1.55 0.65 -2.7 1.75q-21.25 -7.55 -38.1 9q-14.25 14.05 -22.9 32.3q-9.4 19.9 -15.65 40.95q-5.45 18.25 -8.15 37.15q-2.85 19.7 -4.1 39.5q-1.25 19.85 -0.75 39.75q0.5 20 -0.2 40.1q-0.65 19.45 4.5 38.2q5.8 21.4 21.1 37.55q16.2 17.05 37.9 5.8q18.25 -9.35 31.55 -25.75q13.75 -16.85 4.8 -36.05q-6.65 14.4 -15.45 28.3q-5.45 8.7 -14.2 13.85q-6.85 4.05 -14.75 5.55q-8.6 1.85 -17.3 1.1q-1.2 -0.05 -2.15 -0.65q-3.45 -2.5 -6.6 -5.55q-7 -6.75 -11.8 -15.3q-6.35 -11.2 -8.05 -24q-6.2 -47 -4.7 -94.55q1.9 -58.5 26.05 -110.9q9.9 -21.55 29.3 -34.6q30.2 -20.3 45.1 12.6q2.6 5.65 6.7 10.65q8.25 -18.75 -11 -36.1q-5.3 -4.8 -11.15 -8.9q19.4 7.9 39.7 2.9q-1.25 32.85 -8.4 64.8q-1.3 5.85 0.65 11.65q8.15 -6.4 9.65 -17.8q4.7 -35.75 3.1 -71.65q-21.7 2.9 -43.35 -1q1.15 21.15 -0.45 42.35q-1.5 18.5 0.15 37q5.4 -7.95 -0.25 -15.75q-28.95 4.45 -57.75 -0.5q10.35 -69.85 2.75 -139.45q-5.6 15.35 -4.55 34.3<g id="2732" transform="matrix(1, 0, 0, 1, -36.95, 0)">
<path style="fill:#000000;fill-opacity:1" d="M488.15,147.9Q479.15 175.15 473.45 203.7Q468.7 227.4 463.05 250.55L464.5 266.25Q464.85 269.85 462.45 272.25Q455.35 264.35 456.15 251.1L456.35 247.35L456.3 243.15L455.8 236.3Q449.35 177.65 445.6 118.55L445.15 111.3Q444.15 156.8 436.9 202.45Q434.6 216.9 432.8 231.45L418.05 348.5Q414.9 373.05 408.45 396.45Q404.45 390.3 403.95 382.95Q403.45 389.55 400.7 395.7Q393.7 384.05 393.4 366.7Q393 344.1 390.85 321.6Q388.95 301.75 387.8 281.8Q374.05 284.1 360.35 280.75L352.8 320.45Q347.15 349.7 340.3 378.85Q337.8 389.55 331.95 397.95Q323.4 391.55 329.7 381.95Q345.65 324.5 356.75 266L378.65 149.7Q381.7 133.5 383.6 117.2Q385.6 100.25 391.45 87Q392.05 95.7 391.8 104.5Q392.7 127.2 392.8 151.25Q392.95 210.8 394.65 270.5Q396.1 322.55 403.6 373.75L404 377.7Q404.4 372.8 406.2 367.4Q408.55 360.4 409.65 352.95Q418.5 294.1 426.2 235.1Q433.8 176.7 439.45 118.1L440.8 100.15Q441.25 91.45 445.2 85.25L445.3 91.1Q455 133.85 457.7 178.4Q459.1 201.7 460.9 224.95Q464.2 214.2 466.6 203.15Q479.2 144.85 497.45 90.5L497.1 102.75L508.4 214.1L519.9 331.95Q522.9 362.6 523.85 392.75Q523.9 394 522.95 394.95Q513.7 384.1 514 365.95Q514.1 360.45 513.7 354.7Q509.85 295.6 503.2 236.9Q497.1 183.3 493.35 129.2Q491.25 138.5 488.15 147.9M387.1,267.4L385.05 150.15L362.3 270.2L387.1 267.4M326.25,309.5Q311 335.5 285.7 351.75Q264.4 365.45 243.1 351.8Q227.65 341.9 216 329.05Q212.4 325.05 210.1 320.05Q191.85 280.2 196.1 235.3L198.55 205.4Q203.2 139.6 247.45 91.65Q258.35 79.8 272.95 74Q304 72.85 316.8 97.3Q319.25 102 318.2 107Q339.15 148.85 346.95 194.3Q357.6 256.15 326.25 309.5M304.95,97Q290.35 87.8 271.95 88.5Q218.25 120.55 207.85 183Q203 211.95 202.55 241.75Q202.1 266.9 207.2 291.1Q212 314.05 230 326.75Q244.05 336.7 260.05 340.25Q279.9 344.65 295.3 330.6Q341.85 288.05 342.6 226Q343.15 181.5 323.45 141.6Q313.55 121.55 305.7 100.75Q304 99.2 301.9 101.4Q301.35 102 300.45 102.25Q299.3 101.55 302.25 98.75Q303.4 97.65 304.95 97M138.6,82.9Q157.85 100.25 149.6 119Q145.5 114 142.9 108.35Q128 75.45 97.8 95.75Q78.4 108.8 68.5 130.35Q44.35 182.75 42.45 241.25Q40.95 288.8 47.15 335.8Q48.85 348.6 55.2 359.8Q60 368.35 67 375.1Q70.15 378.15 73.6 380.65Q74.55 381.25 75.75 381.3Q84.45 382.05 93.05 380.2Q100.95 378.7 107.8 374.65Q116.55 369.5 122 360.8Q130.8 346.9 137.45 332.5Q146.4 351.7 132.65 368.55Q119.35 384.95 101.1 394.3Q79.4 405.55 63.2 388.5Q47.9 372.35 42.1 350.95Q36.95 332.2 37.6 312.75Q38.3 292.65 37.8 272.65Q37.3 252.75 38.55 232.9Q39.8 213.1 42.65 193.4Q45.35 174.5 50.8 156.25Q57.05 135.2 66.45 115.3Q75.1 97.05 89.35 83Q106.2 66.45 127.45 74Q133.3 78.1 138.6 82.9M108.85,309.25Q130.5 313.15 152.2 310.25Q153.8 346.15 149.1 381.9Q147.6 393.3 139.45 399.7Q137.5 393.9 138.8 388.05Q145.95 356.1 147.2 323.25Q126.9 328.25 107.5 320.35L108.3 309.35L108.85 309.25M177.45,244Q185.05 313.6 174.7 383.45Q203.5 388.4 232.45 383.95Q238.1 391.75 232.7 399.7L170.45 401.2L169.8 394.05Q168.15 375.55 169.65 357.05L172.45 320.65Q174.05 299.45 172.9 278.3Q171.85 259.35 177.45 244" />
</g>
</svg>
