<?xml version="1.0" encoding="utf-8"?>
<svg version="1.1" id="Layer_1"
xmlns="http://www.w3.org/2000/svg"
xmlns:xlink="http://www.w3.org/1999/xlink"


xml:space="preserve">
q-19.9 6.2 -29.65 25.25q-8.95 17.55 -11.5 37.2q-2.85 21.7 -2.9 43.65q-0.05 22 1.8 43.9q2.05 24.05 23.7 33.15q20.75 8.6 39.15 -5.65q4.9 -3.8 7.55 -9.4q7 -21.8 4.3 -44.6q-0.55 -4.9 -3.1 -9.2q7.4 2.45 17.05 0.65q-9.2 9.5 -22.6 11.2q-11.1 1.75 -20.95 -3.55q-4.55 -2.45 -8.7 -5.9q-11.4 -44.05 -6.15 -89.65q1.85 -15.85 8.45 -30.4q3.7 -8.1 10.05 -14.6q6.2 -6.4 14.75 -8.5q20.25 -4.75 39.2 6.75q-3.15 -15.2 -17.3 -21.2q-8.9 -3.8 -18.55 -2.95q-3.65 -27.4 -22 -46.3q-10.55 -6.9 -23.45 -5.55q-4.2 1.95 -7.75 5.45q-23.2 22.75 -30.1 56.25q-5.8 27.9 -5.9 57q-0.15 34.4 20.15 61.4q9.4 12.55 24.2 7.8q42.5 -13.6 49.15 -56.95q6 -39.3 0.75 -78.65q-20.9 5.2 -27.15 25.75q-6.25 20.35 -10.2 41.35q-3.95 21.05 -4.95 42.4q-0.95 21.05 3.6 41.45q4.95 22.1 23.15 33.75q14.4 9.25 29.35 -1.5q7.65 -5.5 12.1 -13.85q5.75 -31.2 2.6 -63q-13.2 -2.65 -20.4 6.9q-1.65 2.2 -1.2 4.9q-9.2 14.7 -26.45 17.4q-7.25 1.3 -13.3 -2.15q-6.3 -3.6 -9.85 -10.45q-6.35 -12.2 -7.45 -25.85q-4.45 -54.25 16.3 -103.8q3.95 -9.35 14.1 -13.2q20.25 -7.55 34.7 8.75q0.55 -12 -7.3 -21q-5.1 -5.8 -12.6 -7.75q-7.3 -1.9 -14.8 -1.75q28.6 36.95 25.1 86.4q-1.35 19.35 -10 36.65q-3.9 7.75 -9.85 14.15q-14.5 15.55 -35.65 17.1q-39.1 -45.15 -19.35 -105.5q8.1 -24.8 22.35 -46.7q13.65 -6.9 26.95 0.45<g id="2744" transform="matrix(1, 0, 0, 1, -141.75, 0)">
<path style="fill:#000000;fill-opacity:1" d="M401.5,185.2Q415.65 191.2 418.8 206.4L418.75 206.55Q399.8 195.05 379.55 199.8Q371 201.9 364.8 208.3Q358.45 214.8 354.75 222.9Q348.15 237.45 346.3 253.3Q341.05 298.9 352.45 342.95Q356.6 346.4 361.15 348.85Q371 354.15 382.1 352.4Q395.5 350.7 404.7 341.2L409.95 332.2L411.95 337.25L413.45 329.2Q403.8 331 396.4 328.55L398.45 320.2L415.95 316.2Q418.5 320.5 419.05 325.4Q421.75 348.2 414.75 370L411.1 350.35Q408.45 355.95 403.55 359.75Q385.15 374 364.4 365.4Q342.75 356.3 340.7 332.25Q338.85 310.35 338.9 288.35Q338.95 266.4 341.8 244.7Q344.35 225.05 353.3 207.5Q363.05 188.45 382.95 182.25Q392.6 181.4 401.5 185.2M324.7,309.95Q318.05 353.3 275.55 366.9Q260.75 371.65 251.35 359.1Q231.05 332.1 231.2 297.7Q231.3 268.6 237.1 240.7Q244 207.2 267.2 184.45Q270.75 180.95 274.95 179Q287.85 177.65 298.4 184.55L299.2 185.25L300.2 185.3L301.5 185.15L303.45 185Q321.8 203.9 325.45 231.3Q330.7 270.65 324.7 309.95M199.8,182.25Q207.3 184.2 212.4 190Q220.25 199 219.7 211L215.65 206.15Q201.2 189.85 180.95 197.4Q170.8 201.25 166.85 210.6Q146.1 260.15 150.55 314.4Q151.65 328.05 158 340.25Q161.55 347.1 167.85 350.7Q173.9 354.15 181.15 352.85Q198.4 350.15 207.6 335.45L206.45 332.45L208.7 324.95L210.25 324.65L195.5 325.95L194.85 322.75Q194.4 320.05 196.05 317.85Q203.25 308.3 216.45 310.95Q219.6 342.75 213.85 373.95L210.9 349.85Q206.45 358.2 198.8 363.7Q183.85 374.45 169.45 365.2Q151.25 353.55 146.3 331.45Q141.75 311.05 142.7 290Q143.7 268.65 147.65 247.6Q151.6 226.6 157.85 206.25Q164.1 185.7 185 180.5Q192.5 180.35 199.8 182.25M296.9,195.95Q283.6 188.6 269.95 195.5L264.2 199.25Q249.95 221.15 241.85 245.95Q222.1 306.3 261.2 351.45L268.05 351.3Q289.2 349.75 303.7 334.2Q309.65 327.8 313.55 320.05Q322.2 302.75 323.55 283.4Q327.05 233.95 298.45 197L296.9 195.95" />
</g>
</svg>
