<?xml version="1.0" encoding="utf-8"?>
<svg version="1.1" id="Layer_1"
xmlns="http://www.w3.org/2000/svg"
xmlns:xlink="http://www.w3.org/1999/xlink"


xml:space="preserve">
q-1.25 1.5 -1.3 3.5q-0.1 2.3 0.35 4.5q-2.6 51.7 -0.15 103.45q2.75 59.55 0.35 119.2q-2.35 59.8 -7.75 119.2q-1.55 16.9 4.3 29.3q2.45 -10.15 3.05 -20.8q3.25 -59.15 4.95 -118.55q1 -35.75 0.9 -71.55q0.4 1.7 1.25 3.55q4.75 -0.3 9.5 -2.1q6.3 -2.45 11 -7.15q7.2 -8.35 13.5 -17.05q5.8 -7.95 8.5 -17.1q12.25 -41.25 3.8 -83.85q-8.05 -40.4 -48.55 -44.25q19.4 10.05 27.15 30.7q7.8 20.85 6.6 43.05q-1.1 21.2 -9.9 40.6q-9.9 21.7 -31.85 27.85q-6.05 1.7 -8.5 7.25q-6.95 -29 -35.15 -34.85q-8.15 2.2 -14.05 8.55q-26 28.1 -29.85 67.1q-5.85 59.75 2 118.75q5.9 44.6 52.5 41.25q14.9 -1.05 24.75 -11.75q19.6 -21.15 21.95 -50.55q4.9 -60.2 -15.5 -116.3q-3.95 -11 -6.65 -22.2q-10.6 10.25 -12.2 24.95q-4.9 44.05 -5.05 89.45q-0.2 51.1 4.25 101.15q0.3 3.4 1.95 5.95q12.25 18.5 33.2 2.85q4.15 -1.6 7.55 -4.7q12.15 -11 9.7 -26.25q-0.7 -1.6 -2.3 -1.8q-0.7 -0.1 -1.45 0.3q-1.55 1.25 -1.8 -1.05q-0.8 0.95 -0.7 2.25q0.05 1.25 0.8 2.35q-11.4 22.75 -38 18.45q-6.05 -33.75 -6 -69.7q0 -15.05 0.25 -30q13.85 3 27.75 -3q3.9 -8.5 -2.7 -12.95q-12.25 5.1 -25.35 8.15q0.65 -32.3 2.35 -64.25q1.05 -20.5 15 -33.65q17.5 -3.4 25.5 12.5q3.1 -22.7 -20.8 -27.2q-6.1 2.55 -11.15 7.35q-25.4 21.3 -57.35 6.2q-2.95 -1.4 -3.95 -4.2q-19.05 -55.9 -13.9 -116.55q2.95 -43 37.5 -65.15q11.8 -1.6 19.75 7q10.2 28 19.85 55.95q19.85 57.55 6.3 116.4q-2.15 9.35 -9.4 15.4q-0.3 0.1 -0.55 0.35q-1.05 1.7 -1.1 3.75q-0.05 1.95 0.25 3.85q-3.45 15.85 -2.4 34.2q1.3 22.6 1.4 44.95q0.3 59.5 -3.35 118.45q-3.65 59.6 -6.3 119.3q-0.7 15.05 -3.3 29.75q-3.05 17.4 3.55 29.2q6.95 -58.15 9.8 -117.7q2 -41.45 3.3 -83.05q6 -3.45 10.7 -8.35q0.2 1.8 0.85 3.8q16.45 51.95 32.5 104.1q13.05 42.4 26.45 84.4q5.3 16.7 15.2 26.6q1.4 -2.45 0.6 -4.85q-17.5 -55.95 -35.95 -112.25q-17.7 -53.95 -34.9 -107.75q5.65 -7.45 10.45 -15.65q31.95 -54.1 12.8 -113.75q-10.15 -31.5 -43.25 -32.7q10.85 17.95 12.6 38.8q1.8 22 -4.15 43.2q-5.75 20.4 -18.65 37.4q-10.35 13.5 -24.05 23.65q22.2 -5.3 34.65 15.4q0.8 4.6 2.85 8.85q0.25 0.6 1 1q3.5 -11.6 -1.4 -23.85q-10.85 -26.9 -42.85 -21.9q-33.2 12.85 -43.8 47.15q-17.75 57.2 -18.7 117.35q-0.6 36.9 -0.25 73.5q0.6 55 19.3 105.7q8.4 22.6 27.3 36.3q2.65 1.95 5.7 2q26.55 0.25 47.25 -18.5q-1.45 14.95 3.35 27.45q3.9 -22.8 6.05 -46.4q2.2 -23.8 -6.55 -43.6q-16.5 2.5 -32.5 2q-0.65 2.6 -0.35 5.25q18.7 4.5 37.75 3.75q2.4 14.75 0.95 29.4q-0.6 0.4 -1.1 0.9q-1.15 1.2 -1.4 2.85q-13.5 12.9 -30.2 21.05q-8.1 3.95 -16.55 -1.05q-22.1 -13 -30.4 -38.5q-3.5 -10.8 -5.15 -22q-8.55 -58.65 -10.45 -118.25q-1.7 -53.05 7.7 -104.55q4.45 -24.65 18.7 -44.8q8.4 -11.85 21.25 -18.45q28.6 -14.65 47.6 7.35q1.15 4.4 1.9 8.9<g id="2731" transform="matrix(1, 0, 0, 1, -37.85, 0)">
<path style="fill:#000000;fill-opacity:1" d="M375.95,65Q416.45 68.85 424.5 109.25Q432.95 151.85 420.7 193.1Q418 202.25 412.2 210.2Q405.9 218.9 398.7 227.25L397.9 227.65L395.95 228.25Q391.25 232.95 384.95 235.4Q380.2 237.2 375.45 237.5Q374.6 235.65 374.2 233.95Q374.3 269.75 373.3 305.5Q371.6 364.9 368.35 424.05Q367.75 434.7 365.3 444.85L364.45 446.45Q358.6 434.05 360.15 417.15Q365.55 357.75 367.9 297.95Q370.3 238.3 367.55 178.75Q365.1 127 367.7 75.3L367.5 74.5Q367.05 72.3 367.15 70Q367.2 68 368.45 66.5L368.95 66.35L375.95 65M385.95,76.2L372.1 75.8L374.15 227.1Q376.6 221.55 382.65 219.85Q404.6 213.7 414.5 192Q423.3 172.6 424.4 151.4Q425.6 129.2 417.8 108.35Q410.05 87.7 390.65 77.65L385.95 76.2M338.75,182.8Q359.15 238.9 354.25 299.1Q351.9 328.5 332.3 349.65Q322.45 360.35 307.55 361.4Q260.95 364.75 255.05 320.15Q247.2 261.15 253.05 201.4Q256.9 162.4 282.9 134.3Q288.8 127.95 296.95 125.75Q325.15 131.6 332.1 160.6Q334.8 171.8 338.75 182.8M461.95,129.5Q485.85 134 482.75 156.7L482.45 157.5Q474.45 141.6 456.95 145Q443 158.15 441.95 178.65Q440.25 210.6 439.6 242.9Q452.7 239.85 464.95 234.75Q471.55 239.2 467.65 247.7L467.2 248.5Q453.3 254.5 439.45 251.5Q439.2 266.45 439.2 281.5Q439.15 317.45 445.2 351.2Q471.8 355.5 483.2 332.75L483.05 332.1Q482.3 331 482.25 329.75Q482.15 328.45 482.95 327.5L483.25 329Q483.5 331.3 485.05 330.05L486.45 328.75Q487.2 328.35 487.9 328.45Q489.5 328.65 490.2 330.25Q492.65 345.5 480.5 356.5Q477.1 359.6 472.95 361.2Q452 376.85 439.75 358.35Q438.1 355.8 437.8 352.4Q433.35 302.35 433.55 251.25Q433.7 205.85 438.6 161.8Q440.2 147.1 450.8 136.85Q455.85 132.05 461.95 129.5M341.35,318.1Q354.9 259.25 335.05 201.7Q325.4 173.75 315.2 145.75Q307.25 137.15 295.45 138.75Q260.9 160.9 257.95 203.9L256.75 218.95Q251.6 279.6 270.65 335.5Q271.65 338.3 274.6 339.7Q306.55 354.8 331.95 333.5Q339.2 327.45 341.35 318.1M186.95,61.75Q220.05 62.95 230.2 94.45Q249.35 154.1 217.4 208.2Q212.6 216.4 206.95 223.85Q224.15 277.65 241.85 331.6Q260.3 387.9 277.8 443.85Q278.6 446.25 277.2 448.7Q267.3 438.8 262 422.1Q248.6 380.1 235.55 337.7Q219.5 285.55 203.05 233.6Q202.4 231.6 202.2 229.8L194.65 238.15Q189.95 243.05 183.95 246.5L183.8 246.45Q182.5 288.05 180.5 329.5Q177.65 389.05 170.7 447.2Q164.1 435.4 167.15 418Q169.75 403.3 170.45 388.25Q173.1 328.55 176.75 268.95Q180.4 210 180.1 150.5Q180 128.15 178.7 105.55Q177.65 87.2 181.1 71.35Q180.8 69.45 180.85 67.5Q180.9 65.45 181.95 63.75Q182.2 63.5 182.5 63.4L183.25 63.2L183.45 62.5L183.5 63.15L186.95 61.9L186.95 61.75M183.85,74.3L184.25 232.75Q197.95 222.6 208.3 209.1Q221.2 192.1 226.95 171.7Q232.9 150.5 231.1 128.5Q229.35 107.65 218.5 89.7Q206.05 69 183.85 74.3M139.45,84Q120.45 62 91.85 76.65Q79 83.25 70.6 95.1Q56.35 115.25 51.9 139.9Q42.5 191.4 44.2 244.45Q46.1 304.05 54.65 362.7Q56.3 373.9 59.8 384.7Q68.1 410.2 90.2 423.2Q98.65 428.2 106.75 424.25Q123.45 416.1 136.95 403.2L137.25 402.45L137.45 400.2Q137.7 398.55 138.85 397.35Q139.35 396.85 139.95 396.45L142.15 398.85Q143.6 384.2 141.2 369.45Q122.15 370.2 103.45 365.7L103.1 363.45Q102.8 360.8 103.45 358.2Q119.45 358.7 135.95 356.2L139 356.75L141.95 356.7Q150.7 376.5 148.5 400.3Q146.35 423.9 142.45 446.7Q137.65 434.2 139.1 419.25L137.75 420.5Q117.05 439.25 90.5 439Q87.45 438.95 84.8 437Q65.9 423.3 57.5 400.7Q38.8 350 38.2 295Q37.85 258.4 38.45 221.5Q39.4 161.35 57.15 104.15Q67.75 69.85 100.95 57Q132.95 52 143.8 78.9Q148.7 91.15 145.2 102.75Q144.45 102.35 144.2 101.75Q142.15 97.5 141.35 92.9Q140.6 88.4 139.45 84" />
</g>
</svg>
