<?xml version="1.0" encoding="utf-8"?>
<svg version="1.1" id="Layer_1"
xmlns="http://www.w3.org/2000/svg"
xmlns:xlink="http://www.w3.org/1999/xlink"


xml:space="preserve">
q4.75 2.65 9.8 7.05q6.25 5.4 10.9 13.4q2.45 4.2 6.6 13.6q4.1 9.3 6.9 26.7q2.6 15.95 2.6 28.05q0 4.8 -2.45 28.35q-2.8 27 -5.05 35.25q-5.2 18.85 -31 42.15q-9.75 8.8 -19 15q4.75 14.2 12.6 36.35q19.4 54.75 27.6 79.35q35.85 107.7 35.85 152.05q-0.6 3.5 -3.15 4.35q-3.2 -13.55 -7.5 -35.65q-9.2 -43.95 -20.75 -73.3q-5.85 -14.95 -12.35 -36.5q-2.25 -7.8 -13.6 -41.35q-10.85 0 -17.15 -1.45q-2.8 20.2 -4.9 50.05q-4.9 60.35 -18.15 99.9q-2.75 -3.2 -2.75 -7.6q0 -4.15 2.15 -11.5q2.1 -7.35 2.1 -12.9q6.5 -37.9 11.3 -88.1q2.35 -24.5 7.2 -88.15q-1.05 -0.6 -1.75 -1.3q-1.6 -1.55 -1.6 -3.65q0 -2.95 0.3 -4.3q0.55 -2.45 2.2 -2.45q1.9 -13.15 1.9 -20.95q-2 -34.75 -2 -37.85q0 -7.35 3.55 -32.35q1.65 -11.3 2.95 -18.45q-5.65 -1.2 -5.65 -4.5q0 -2.85 0.3 -3.45q0.75 -1.45 4 -1.85q8.75 2.4 15.05 5.95q-4.35 -7.85 -10.75 -11.85q-16.75 -10.55 -43.3 -12.95q-3.9 19.5 -3.9 38.15q0 19.4 3.15 63.85q3.1 44.4 3.1 61.3q0 12.8 -1.6 23.65q0 -4.6 2.75 -6.25q17.2 -3.95 35.65 -23.65q8.6 -9.2 14.75 -19.05q5.65 -9.05 6 -13.1q0.65 -8 3.8 -32.8q0 -11.35 -2.45 -24.75q-2.65 -14.2 -6.8 -23.6q5.35 7.35 5 20.1q-0.65 6.85 -0.65 10.3q0 1.2 0.55 7.9q1.1 11.2 3.5 71.8q2.5 63.3 2.5 87.05q0.05 26.6 -2.6 48.7q-8.5 70.5 -40.75 70.5q-23.75 0 -29.5 -40.5q-1.8 -12.7 -1.6 -28.05q0.7 -18.6 1.35 -28.95q0.6 -13.9 1.1 -20.65q0.8 -9.5 1.1 -25.85q1.35 -30.85 8.75 -45.7q0.8 1.2 1 1.9q0 9.4 -3.3 49.75q0.15 10 -0.4 22.5q-0.65 9.9 -1.35 27q0.1 12.7 1.45 22.9q4.3 32.2 19.75 32.2q32.7 0 40.5 -63.95q2.45 -20 2.1 -44.05q0 -22.85 -2.5 -84.05q-2.35 -58.2 -3.5 -69.95q0 -4.9 2.5 -8.35q1 4.85 13.5 58.05q12 53 12 63.45q0 3.4 -2.25 6.75q-7.25 -11 -10.8 -29.7q-3.05 -21.15 -5.45 -31.05q-2.7 -11.35 -6.1 -30.4q-4.7 -22.7 -10.85 -60.9q-3.1 -0.05 -13.35 -2.25q-41.15 -0.4 -59.8 -1.05q-4.95 37.55 -8.4 60.2q-10.55 69.1 -24.75 119.25q-3.5 -2.8 -3.5 -7q0 -1.45 9.1 -49.05q9.95 -52.15 12.65 -70.95q2.8 -19.95 9.25 -59.55q-0.15 -1.05 -0.15 -2.65q0 -1.85 5.3 -3.4q8.9 -63.95 14 -119.1q1.55 -11.2 2.5 -29.65q1.25 -25.35 1.65 -30.5q2.65 -34.3 13 -55.4q4.95 16.4 11.4 57.45q6.45 40.7 12.6 60.8q21.3 65.95 30.25 121.35q6.05 37.7 10.1 61.1q5.9 34.4 11.4 61.15q-3.85 -20.1 -12.6 -33.1q-15.7 -23.4 -45.15 -23.4q-25.6 0 -41.5 6.25q-14.95 5.85 -23.7 18.3q-7.65 10.85 -12.45 29.75q-3 11.9 -7.6 40.7q-0.5 3.3 -3.95 43.15q-3.8 43.65 -3.8 53.1q0 102.95 11.55 163.9q20.55 108.7 76.2 108.7q28.6 0 51.8 -15.2q8.8 -5.8 14.4 -12.35q5.05 -5.9 5.05 -9.45q0 -2.75 -1.8 -4.8q-5.75 -4.25 -5.75 -10.25q0 -2.15 0.95 -5.95q-7.55 0.7 -13.8 2.25q-8.2 2.75 -9.65 2.75q-3.7 0 -4.7 -2.7q0 -3.7 0.4 -4.5q0.55 -1.15 3.3 -1.65q8.7 -1.45 18.8 -3.9q0 -0.25 5.5 -0.1q0.4 1.45 0.4 3.3q0 1.7 -3.85 22.7q-3.9 21 -3.9 27.9q-0.45 15.05 -3 25.05q-2.65 -2.4 -3.1 -12.6q0 -6.85 2.25 -33.7q-4.9 9.3 -13.5 17.1q-22.7 20.5 -59 20.5q-32.2 0 -53.85 -36.55q-17.5 -29.5 -27.4 -81.45q-7.25 -37.8 -9.95 -84q-1.3 -22.75 -1.3 -44.25q0 -12 0.25 -18q1.4 -10.9 2.5 -28.8q3 -35.4 12.05 -57.75q16.1 -39.85 41.45 -53.8q21.2 -11.7 46 -4.05q21.1 6.45 37.4 23.75q15.4 16.35 15.4 29.7q-8.1 44.25 -14.45 111.9q-3.4 34.5 -7.05 60.35q14.65 -2.2 34.35 -2.55q20.8 -0.35 34.4 1.7q7.55 1.15 11.45 2.9q-3.75 -20 -13.15 -55.55q-11.3 -41.7 -16.85 -63.45q-17.2 -67.05 -20.15 -108.35q-0.65 13 -0.65 20.85q0 10.1 1 15.35q-0.7 11.35 -1.4 17.9q8.55 -2.1 16.5 -3.5q26 -4.5 63.65 -4.5q19.1 0 22.55 1.8q1.4 0.7 1.3 2.15q-0.15 1.6 -2.15 2.1q-2 0.45 -28.05 0.45q-30.2 0 -61.5 5.65q-15.65 2.8 -25.5 5.6q-1.65 0 -2 -6.8q-0.7 -11.65 -1.4 -18.75q-1.1 -5.6 -0.75 -11.25q-1 -6 -1 -19.1q-0.25 -18.65 0.05 -36.7q0.65 -35.45 3.45 -48.05q3.5 16.4 2.65 42.05q0 0.95 2.1 3.55q3.75 5 5.45 9.85q1.4 -14.7 2.3 -18.9q-1.75 -1 -4.25 -1<g id="2761" transform="matrix(1, 0, 0, 1, -5.5, 0)">
<path style="fill:#000000;fill-opacity:1" d="M501.3,44.2Q506.05 46.85 511.1 51.25Q517.35 56.65 522 64.65Q524.45 68.85 528.6 78.25Q532.7 87.55 535.5 104.95Q538.1 120.9 538.1 133Q538.1 137.8 535.65 161.35Q532.85 188.35 530.6 196.6Q525.4 215.45 499.6 238.75Q489.85 247.55 480.6 253.75L474.55 257.5Q479.3 271.7 487.15 293.85Q506.55 348.6 514.75 373.2Q550.6 480.9 550.6 525.25L550.5 530.5Q549.9 534 547.35 534.85Q544.15 521.3 539.85 499.2L532.6 462.65Q523.4 418.7 511.85 389.35Q506 374.4 499.5 352.85L489 316.6Q486.75 308.8 475.4 275.25L470.15 259.45L469 259.6Q458.15 259.6 451.85 258.15L449.5 272.35L449.5 336.85Q446.7 357.05 444.6 386.9L441.15 436.95Q436.25 497.3 423 536.85Q420.25 533.65 420.25 529.25Q420.25 525.1 422.4 517.75Q424.5 510.4 424.5 504.85L425.25 504.6L425.5 509.1L426 509.1Q432.5 471.2 437.3 421Q439.65 396.5 444.5 332.85L444.5 268.35L446.5 256.2Q445.45 255.6 444.75 254.9Q443.15 253.35 443.15 251.25L443.5 248.85Q443.5 245.9 443.8 244.55Q444.35 242.1 446 242.1L448.6 242.45Q450.5 229.3 450.5 221.5L448.75 169L446.75 134.6Q444.75 99.85 444.75 96.75Q444.75 89.4 448.3 64.4Q449.95 53.1 451.25 45.95L450.15 45.75Q444.5 44.55 444.5 41.25Q444.5 38.4 444.8 37.8Q445.55 36.35 448.8 35.95L453.55 35.75L454.25 34L455.4 35.8L486.25 38.25Q495 40.65 501.3 44.2M519,72.1Q514.65 64.25 508.25 60.25Q491.5 49.7 464.95 47.3L455.8 46.45L453.15 58.45Q449.25 77.95 449.25 96.6Q449.25 116 452.4 160.45Q455.5 204.85 455.5 221.75Q455.5 234.55 453.9 245.4L462 245.85L465.95 245.65L465.75 244.6Q465.75 240 468.5 238.35L470.45 244.9Q487.65 240.95 506.1 221.25Q514.7 212.05 520.85 202.2Q526.5 193.15 526.85 189.1Q527.5 181.1 530.65 156.3L533.6 132.6Q533.6 121.25 531.15 107.85Q528.5 93.65 524.35 84.25L519 72.1M413,41Q418.35 48.35 418 61.1L417.15 71.8Q416.5 78.65 416.5 82.1Q416.5 83.3 417.05 90L417.75 100.5L417.75 144Q418.85 155.2 421.25 215.8Q423.75 279.1 423.75 302.85L424.35 325.4Q424.4 352 421.75 374.1Q413.25 444.6 381 444.6Q357.25 444.6 351.5 404.1Q349.7 391.4 349.9 376.05L350.5 362.85L351.15 343.8Q351.85 325.2 352.5 314.85L352.5 270.6L353.65 250Q354.25 236.1 354.75 229.35L354.75 138Q355.55 128.5 355.85 112.15L356.5 85.7Q357.85 54.85 365.25 40Q366.05 41.2 366.25 41.9L366.5 44.5Q366.5 53.9 363.2 94.25L359.25 141.25L359.25 229.6Q359.4 239.6 358.85 252.1L357.5 274.6L357.5 318.85Q356.85 328.75 356.15 345.85L355.5 363.5L355.3 375.5Q355.4 388.2 356.75 398.4Q361.05 430.6 376.5 430.6Q409.2 430.6 417 366.65Q419.45 346.65 419.1 322.6L418.25 302.5Q418.25 279.65 415.75 218.45Q413.4 160.25 412.25 148.5L412.25 99.75L412.45 98.9L412.5 96.75L410.5 49.35Q410.5 44.45 413 41M343.25,395.6Q344.25 400.45 356.75 453.65Q368.75 506.65 368.75 517.1Q368.75 520.5 366.5 523.85Q359.25 512.85 355.7 494.15Q352.65 473 350.25 463.1Q347.55 451.75 344.15 432.7L338.5 402.35Q333.8 379.65 327.65 341.45L323.85 317.85Q320.75 317.8 310.5 315.6L303.9 316.2L296 316.85Q254.85 316.45 236.2 315.8L232.15 346.4Q227.2 383.95 223.75 406.6Q213.2 475.7 199 525.85Q195.5 523.05 195.5 518.85Q195.5 517.4 204.6 469.8Q214.55 417.65 217.25 398.85Q220.05 378.9 226.5 339.3L230.3 315.55L226.75 315.35L226.4 313.5Q226.25 312.45 226.25 310.85Q226.25 309 231.55 307.45L235.75 279.6Q244.65 215.65 249.75 160.5Q251.3 149.3 252.25 130.85Q253.5 105.5 253.9 100.35Q256.55 66.05 266.9 44.95L266.75 37.6L266.95 35.2L267.5 33.75Q272.45 50.15 278.9 91.2Q285.35 131.9 291.5 152Q312.8 217.95 321.75 273.35Q327.8 311.05 331.85 334.45Q337.75 368.85 343.25 395.6M162.25,94.75L161.8 95.2L161 96Q157.15 75.9 148.4 62.9Q132.7 39.5 103.25 39.5Q77.65 39.5 61.75 45.75Q46.8 51.6 38.05 64.05Q30.4 74.9 25.6 93.8Q22.6 105.7 18 134.5Q17.5 137.8 14.05 177.65Q10.25 221.3 10.25 230.75Q10.25 333.7 21.8 394.65Q42.35 503.35 98 503.35Q126.6 503.35 149.8 488.15Q158.6 482.35 164.2 475.8Q169.25 469.9 169.25 466.35Q169.25 463.6 167.45 461.55L163.5 458.25Q157.75 454 157.75 448Q157.75 445.85 158.7 442.05L159.45 439.6Q151.9 440.3 145.65 441.85Q137.45 444.6 136 444.6Q132.3 444.6 131.3 441.9L131 438.85Q131 435.15 131.4 434.35Q131.95 433.2 134.7 432.7L144.2 431.25Q152.9 429.8 163 427.35Q163 427.1 168.5 427.25L181.5 428.1L182.85 431.2Q183.25 432.65 183.25 434.5Q183.25 436.2 179.4 457.2Q175.5 478.2 175.5 485.1L175.5 510.3Q175.05 525.35 172.5 535.35Q169.85 532.95 169.4 522.75L169.5 511.75Q169.5 504.9 171.75 478.05L170.5 480.5Q165.6 489.8 157 497.6Q134.3 518.1 98 518.1Q65.8 518.1 44.15 481.55Q26.65 452.05 16.75 400.1Q9.5 362.3 6.8 316.1Q5.5 293.35 5.5 271.85Q5.5 259.85 5.75 253.85L5.75 202.85Q7.15 191.95 8.25 174.05L10.2 144.5Q13.2 109.1 22.25 86.75Q38.35 46.9 63.7 32.95Q84.9 21.25 109.7 28.9Q130.8 35.35 147.1 52.65Q162.5 69 162.5 82.35L162.25 94.75M267.35,53.5Q259.25 97.75 252.9 165.4L247.3 225.5Q243.9 260 240.25 285.85L237.5 306.1L241.9 305.35Q256.55 303.15 276.25 302.8Q297.05 302.45 310.65 304.5Q318.2 305.65 322.1 307.4L317.5 280.85Q313.75 260.85 304.35 225.3Q293.05 183.6 287.5 161.85Q270.3 94.8 267.35 53.5M71.9,144.05L70.9 165.4Q70.25 178.4 70.25 186.25Q70.25 196.35 71.25 201.6L71.25 266.1L72.5 272.85L72.5 333.6L73.9 354.35L74.5 368.5L73.9 380.95Q73.2 392.3 72.5 398.85L72.5 399.35L82.85 396.85Q91.4 394.75 99.35 393.35Q125.35 388.85 163 388.85Q182.1 388.85 185.55 390.65Q186.95 391.35 186.85 392.8L186.5 395.85L186.7 400.55Q186.55 402.15 184.55 402.65Q182.55 403.1 156.5 403.1Q126.3 403.1 95 408.75Q79.35 411.55 69.5 414.35Q67.85 414.35 67.5 407.55L67.5 400.5L68.5 384.55L69.5 368.6L68.9 355.85Q68.2 344.2 67.5 337.1L67.5 277.1Q66.4 271.5 66.75 265.85L66.75 205.85Q65.75 199.85 65.75 186.75Q65.5 168.1 65.8 150.05Q66.45 114.6 69.25 102Q72.75 118.4 71.9 144.05M171.5,439.1L161.25 439.45L161.25 439.85Q161.25 440.8 163.35 443.4L168 449.15Q171.75 454.15 173.45 459Q174.85 444.3 175.75 440.1Q174 439.1 171.5 439.1" />
</g>
</svg>
