<?xml version="1.0" encoding="utf-8"?>
<svg version="1.1" id="Layer_1"
xmlns="http://www.w3.org/2000/svg"
xmlns:xlink="http://www.w3.org/1999/xlink"


xml:space="preserve">
q-2.3 1.05 -2.6 4.5q-4.05 49.6 -7.35 99.65q-3.85 59.25 -8.95 118.5q-0.65 7.45 -2.3 14.7q-5.25 23.35 0.45 44.6q7.45 -19.25 9.1 -42.65q3.45 -48.8 6.5 -97.65q-4.1 59.4 -9.55 118q-0.9 -3.3 -1.45 -6.75q-0.25 14.3 5.75 27q5.25 -15.7 6.25 -34.15q3.4 -59.3 7.75 -118.55q4.45 -59.8 1.5 -118.5q-4.65 5.55 -4.85 15q-0.9 51.85 -4.1 103.55q-18.9 1.55 -37.2 6.1q3.65 -58.8 5.9 -117.75q-0.55 -1.75 -1.75 -3q-3.75 -28.7 -34.35 -29.25q-8.4 1.4 -12.85 8.35q-26.9 42.3 -4.2 89.1q19.6 40.4 41.55 79.75q7.2 12.95 8.35 27.6q3.35 42.3 -36.45 57.1q-25.45 9.5 -41.9 -8.75q-1.7 -1.65 -2.85 -3.65q-0.6 0.2 -1.1 0.55q-4.95 12.65 4.7 23.5q19.75 22.25 50.1 11q30.7 -11.35 39.25 -43.05q7.75 -28.6 -4.9 -55.25q-23 -48.5 -47.55 -96.2q-19.1 -37 4.9 -68.7q28.1 -9.3 44.25 13.5q-31.2 45.15 -23.1 101.6q5.05 35.1 36.2 51.2q10.75 5.55 21.7 0.45q38.6 -17.95 36.2 -61.7q-1.55 -28.75 -8.5 -56.6q-9.35 -37.6 -46.6 -44.85q-10 1.45 -15.9 9.9q12.65 15.65 23 33.55q10.55 18.35 13.6 39.4q3 20.4 -4.25 39.5q-9.25 24.5 -33.45 23.8q-24.05 -0.65 -34.7 -21.85q-9.25 -18.3 -10 -39.15q-0.75 -20.8 3.75 -40.95q5.15 -23 26.15 -33.25q8.25 -4.1 15.9 -1.05q-30.95 10.9 -43 42q-21.8 56.25 -19.55 118.05q1.75 47.1 17.5 91q11.35 31.7 44.2 22.7q9.55 -2.6 17.35 -8.5q4.15 -3.1 7.25 -6.5q-1.05 14.5 1.5 28.2q1.25 -0.5 1.45 -1.2q7.5 -35.75 10.4 -73.2q1.1 -14.45 -5.1 -24.3q-14.9 0.65 -29.5 4.75q-2.15 5.85 1.25 10.55q-0.45 14.55 -2.35 28.85q-16.1 26.95 -47.15 26.55q-9.05 -0.1 -13.7 -8q-20 -34.3 -22.05 -75.1q-2.8 -54 11 -105.75q8.55 -32.1 36.8 -49.05q10.35 -6.25 20.55 0.15q16.5 10.4 22.4 27.6q1.65 -3.2 1.5 -6.75q-1.6 -36 -37 -41.5<g id="2760" transform="matrix(1, 0, 0, 1, -60.15, 0)">
<path style="fill:#000000;fill-opacity:1" d="M394.95,113.5L395.2 114.25Q392.95 173.2 389.3 232L388.75 240.85Q407.05 236.3 425.95 234.75L435.45 235L435.5 235.05Q438.7 183.35 439.6 131.5Q439.8 122.05 444.45 116.5Q447.4 175.2 442.95 235Q438.6 294.25 435.2 353.55Q434.2 372 428.95 387.7Q422.95 375 423.2 360.7Q423.75 364.15 424.65 367.45L424.95 367.95Q430.4 309.35 434.5 249.95L434.55 249.5L388.05 252.15Q385 301 381.55 349.8Q379.9 373.2 372.45 392.45Q366.75 371.2 372 347.85Q373.65 340.6 374.3 333.15Q379.4 273.9 383.25 214.65Q386.55 164.6 390.6 115Q390.9 111.55 393.2 110.5Q394.4 111.75 394.95 113.5M354.2,139.5Q338.05 116.7 309.95 126Q285.95 157.7 305.05 194.7Q329.6 242.4 352.6 290.9Q365.25 317.55 357.5 346.15Q348.95 377.85 318.25 389.2Q287.9 400.45 268.15 378.2Q258.5 367.35 263.45 354.7Q263.95 354.35 264.55 354.15L266.45 353.7L267.35 354.55L268.85 356.8Q270 358.8 271.7 360.45L273.25 360.8L275.2 360.75L276.2 360.7L275.6 361.3L273.85 362.45L273.45 362.95Q289.9 381.2 315.35 371.7Q355.15 356.9 351.8 314.6Q350.65 299.95 343.45 287Q321.5 247.65 301.9 207.25Q279.2 160.45 306.1 118.15Q310.55 111.2 318.95 109.8L319.95 109.5Q350.55 110.05 354.3 138.75L354.2 139.5M225.95,163.5Q263.2 170.75 272.55 208.35Q279.5 236.2 281.05 264.95Q283.45 308.7 244.85 326.65Q233.9 331.75 223.15 326.2Q192 310.1 186.95 275Q178.85 218.55 210.05 173.4Q215.95 164.95 225.95 163.5M221.55,176.8Q200.55 187.05 195.4 210.05Q190.9 230.2 191.65 251Q192.4 271.85 201.65 290.15Q212.3 311.35 236.35 312Q260.55 312.7 269.8 288.2Q277.05 269.1 274.05 248.7Q271 227.65 260.45 209.3Q250.1 191.4 237.45 175.75Q229.8 172.7 221.55 176.8M161.95,144.25Q162.1 147.8 160.45 151Q154.55 133.8 138.05 123.4Q127.85 117 117.5 123.25Q89.25 140.2 80.7 172.3Q66.9 224.05 69.7 278.05Q71.75 318.85 91.75 353.15Q96.4 361.05 105.45 361.15Q136.5 361.55 152.6 334.6Q154.5 320.3 154.95 305.75L128.45 307Q125.05 302.3 127.2 296.45L127.45 295.75Q142.05 291.65 156.95 291Q163.15 300.85 162.05 315.3Q159.15 352.75 151.65 388.5Q151.45 389.2 150.2 389.7Q147.65 376 148.7 361.5Q145.6 364.9 141.45 368Q133.65 373.9 124.1 376.5Q91.25 385.5 79.9 353.8Q64.15 309.9 62.4 262.8Q60.15 201 81.95 144.75Q94 113.65 124.95 102.75Q160.35 108.25 161.95 144.25" />
</g>
</svg>
