<?xml version="1.0" encoding="utf-8"?>
<svg version="1.1" id="Layer_1"
xmlns="http://www.w3.org/2000/svg"
xmlns:xlink="http://www.w3.org/1999/xlink"


xml:space="preserve">
q1.95 -7.25 -2.55 -12.75q-0.3 0.3 -0.45 0.75q-0.2 3.65 1.9 6.4q22.25 0.95 44.65 0.9q-1.3 22.35 -2.45 44.75q-5.75 100.6 -9.5 200.3q-0.15 3.6 2.65 6.45q11.7 -118.3 13.05 -237.15q0.3 -27.5 -1.95 -55.05q-1.4 22.95 -0.95 45.85q1.25 59.55 0.15 119.25q-0.55 29.95 -3.7 59.8q-1.8 16.8 4.25 29.9q0.9 -0.6 1.1 -1.4q4.05 -13.7 4.7 -28.3q2.6 -59.4 2.25 -119.25q24.35 -6.5 49.3 -3.1q0.95 59.7 -4.15 118.2q-0.2 2.8 0.75 5.25q-1.85 8.65 0.2 17.2q1.1 2.7 3.75 2q2.9 -4.75 3.4 -10.5q3.05 -35.7 3.95 -71.95q1.05 -41.05 0.65 -82.3q0.95 -3.7 0.55 -7.5q-0.25 -2.05 -1.35 -3.5q-1.55 -60.1 -5.8 -118.5q-3.65 1.2 -3.8 5.75q-0.8 25.5 -0.3 51q-9.4 -1.6 -19.05 -1.7q-15.5 0.65 -30.15 6.15q-0.6 -49.45 -2.6 -97.4q-4.55 4.85 -5 12.65q-0.65 1.85 -0.9 3.75q-0.4 3.15 0.7 6.05q-3.45 15.8 -2.6 34q1.1 23.95 0.65 47.95q-1.05 59.4 -4.45 118.55q-1.75 30.25 -7.4 59.65q-3.3 17.05 3 29.5q8.4 -31 10 -64.4q2.4 -50.95 4.4 -101.95q0.8 1.85 3.1 1.9q5.7 -3.7 10.7 -8.35q6.2 35.2 15.05 69.95q14.7 57.65 31.45 113q3.25 -0.75 2.8 -4.35q-4.85 -40.05 -15.55 -79.9q-13.95 -51.95 -29.95 -102.55q40.85 -43.05 20.15 -100.95q-8.3 -23.35 -31.95 -23.95q-4.05 1.1 -8.45 2.8q0.8 -16.95 -5.35 -29.8q-3.85 7.25 -3.55 17.05q2.05 59.35 -0.05 118.4q-2.15 59.85 -8.35 119.1q-2.45 23.55 1.45 44.4q2.25 0.1 2.55 -2.25q5.5 -43.7 8.7 -88.35q4.15 -58.85 3.6 -118.6q-0.3 -30 1 -59.95q12.05 54.6 -36.65 85.15q2 -53.4 -0.35 -105.65q18 -7.4 29.3 7.75q5.7 7.7 7.7 16.8q-4.5 1.5 -9.2 2q-4.95 3.9 -9.05 8.6q-21.05 24.3 -29.55 56.15q-15.5 57.7 -11.4 118q3.1 45.65 20.1 88.15q3.6 9.1 11.45 14.6q29.7 20.9 54.9 -6.1q2.3 -2.45 3.95 -4.85q-2.3 13.6 5.15 19.65q2.7 -8.6 3.8 -17.9q4.15 -34.65 -0.8 -68.3q-0.35 -0.4 -0.7 -0.4q-0.6 0.15 -1.1 0.55q-1.7 4.4 -0.45 8.95q10.1 0.75 16.4 3q-0.3 13.95 -1.6 27.75q-0.95 -1.9 -2.4 -3.8q-2.25 2.75 -4 5.85q-7.75 13.75 -23.5 16.65q-35.45 6.55 -45.05 -28.7q-15.6 -57.2 -10.35 -116.5q3.8 -42.65 19.65 -82.8q14.95 -37.8 54.75 -30.95q5.85 5.4 7.45 12.9q1.65 7.8 5.55 12.6q3.15 -5.4 2.65 -12.05q-2.3 -30.2 -32.15 -32.2<g id="2771" transform="matrix(1, 0, 0, 1, -61.35, 0)">
<path style="fill:#000000;fill-opacity:1" d="M383.2,115.75L335.15 116Q337.4 143.55 337.1 171.05Q335.75 289.9 324.05 408.2L323.75 409.35L323.2 410.4L321.95 412.45Q319.15 409.6 319.3 406Q323.05 306.3 328.8 205.7L329.8 183.2L330.7 160.75Q331.85 138.35 333.15 116Q310.75 116.05 288.5 115.1L284.05 114.55L279.75 113.35L274.85 111.9Q272.75 109.15 272.95 105.5L273.05 103.25L273.15 102.5L273.45 101L273.85 99.6Q274 99.15 274.3 98.85L275.95 97.5L383.45 98.5Q387.95 104 386 111.25L385.6 112.55L385 113.75L384.2 114.8L383.75 115.3L383.2 115.75M380.2,151.25Q382.2 199.2 382.8 248.65Q397.45 243.15 412.95 242.5Q422.6 242.6 432 244.2L430.35 160.5Q429.85 135 430.65 109.5Q430.8 104.95 434.45 103.75Q438.7 162.15 440.25 222.25L440.75 246.45Q441.85 247.9 442.1 249.95Q442.5 253.75 441.55 257.45L440.95 259.2Q441.35 300.45 440.3 341.5Q439.4 377.75 436.35 413.45Q435.85 419.2 432.95 423.95Q430.3 424.65 429.2 421.95Q427.15 413.4 429 404.75L429.2 403.95Q428.25 401.5 428.45 398.7L428.45 397.95Q433.55 339.45 432.6 279.75L432.25 259.2Q407.3 255.8 382.95 262.3L383 269.75Q383.35 329.6 380.75 389Q380.1 403.6 376.05 417.3Q375.85 418.1 374.95 418.7Q368.9 405.6 370.7 388.8Q373.85 358.95 374.4 329Q375.5 269.3 374.25 209.75Q373.8 186.85 375.2 163.9Q375.65 156.1 380.2 151.25M227.25,100.4L227.45 99.75L227.5 100.3Q231.9 98.6 235.95 97.5Q259.6 98.1 267.9 121.45Q288.6 179.35 247.75 222.4Q263.75 273 277.7 324.95Q288.4 364.8 293.25 404.85Q293.7 408.45 290.45 409.2Q273.7 353.85 259 296.2Q250.15 261.45 243.95 226.25L241.65 228.4Q236.65 233.05 230.95 236.75Q228.65 236.7 227.85 234.85Q225.85 285.85 223.45 336.8Q221.85 370.2 213.45 401.2Q207.15 388.75 210.45 371.7Q216.1 342.3 217.85 312.05Q221.25 252.9 222.3 193.5Q222.75 169.5 221.65 145.55Q220.8 127.35 224.25 111.55Q223.15 108.65 223.55 105.5Q223.8 103.6 224.45 101.75L227.05 100.45L227.25 100.4M198.3,188.25Q198.85 248 194.7 306.85Q191.5 351.5 186 395.2Q185.7 397.55 183.45 397.45Q179.55 376.6 182 353.05Q188.2 293.8 190.35 233.95Q192.45 174.9 190.4 115.55Q190.1 105.75 193.95 98.5Q200.1 111.35 199.3 128.3Q198 158.25 198.3 188.25M257.4,120.3Q246.1 105.15 228.1 112.55Q230.45 164.8 228.45 218.2L228.3 222.6L228.45 222.25Q277.15 191.7 265.1 137.1Q263.1 128 257.4 120.3M130.95,90Q160.8 92 163.1 122.2Q163.6 128.85 160.45 134.25Q156.55 129.45 154.9 121.65Q153.3 114.15 147.45 108.75Q107.65 101.9 92.7 139.7Q76.85 179.85 73.05 222.5Q67.8 281.8 83.4 339Q93 374.25 128.45 367.7Q144.2 364.8 151.95 351.05Q153.7 347.95 155.95 345.2Q157.4 347.1 158.35 349Q159.65 335.2 159.95 321.25Q153.65 319 143.55 318.25L139.45 318L138.3 316.4L138 315.7Q136.75 311.15 138.45 306.75Q138.95 306.35 139.55 306.2L141.95 305.75L142.45 305.75L162.5 306.6Q162.85 306.6 163.2 307Q168.15 340.65 164 375.3Q162.9 384.6 160.2 393.2Q152.75 387.15 155.05 373.55L155.85 368.55Q154.2 370.95 151.9 373.4Q126.7 400.4 97 379.5Q89.15 374 85.55 364.9Q68.55 322.4 65.45 276.75Q61.35 216.45 76.85 158.75Q85.35 126.9 106.4 102.6Q110.5 97.9 115.45 94Q120.15 93.5 124.65 92L130.95 90" />
</g>
</svg>
