<?xml version="1.0" encoding="utf-8"?>
<svg version="1.1" id="Layer_1"
xmlns="http://www.w3.org/2000/svg"
xmlns:xlink="http://www.w3.org/1999/xlink"


xml:space="preserve">
q2.85 -9.15 -1.4 -17.6q-3.95 -7.9 -12.35 -11.15q-13.65 16.85 -18.5 38.6q-4.65 20.8 -6.55 42.05q-2.1 23 9.95 41.1q3.85 5.8 10.1 8.75q-0.05 7 2.85 13.2q8.45 -26.25 3.35 -54.7q-8.15 -1.75 -15.9 1.65q-1.25 2.45 -1.2 5.25q0 0.7 0.15 1.4q-10.05 -15.15 -8.35 -34.4q1.8 -20.5 7.1 -40.4q2.75 -10.3 6.8 -20.05q-7.85 21.85 -8.1 48.25q-0.55 59.1 -2.1 118.5q-1.5 57 -6.7 113.65q-4.7 -29.9 -12.15 -59.55q-14.4 -57.25 -27.95 -114.7q-13.4 -56.8 -24.95 -113.6q-1.45 -0.1 -1.45 1.5q-3.1 28.6 -2.7 58.1q0.85 59.45 -0.55 118.5q-1.45 60.25 -11.55 118.75q-3 17.35 4.35 29.45q10 -45.45 11.95 -93.7q2.4 -59.45 3.3 -119.25q0.5 -32.6 -0.5 -64.75q8.85 57.45 23.95 113.95q15.25 57.2 28.05 115.1q3.2 14.55 4.45 29.3q1.15 13.9 9.55 20.1q1.65 -1.55 1.4 -3.7q5.75 -43.1 8.2 -87.3q3.3 -59.3 3.4 -119.25q0.05 -22.55 1.4 -44.9q1.85 -30.4 -0.15 -59.35q1.45 46.25 -2.3 93.1q-0.6 7.2 -0.6 14.3q-0.2 35.4 -24.5 59.25q-22.05 4.3 -33.25 -13q-6.55 -58.7 2 -117.85q4.35 -30.15 1.25 -59.15q-4.55 7.3 -5.2 18.2q-2.9 51.45 -7.5 102.8q-2.65 29.8 3.15 58.95q6.5 32.65 41.8 27.05q11.35 -8.4 16 -22.1q16.55 -49 17.15 -101.65q0.35 -29.65 2.45 -59.15q1 -14.35 -6.6 -21.6q-4.65 11 -5.25 23.25q1.6 0 1 -2.1q-6.2 -25.75 -31.45 -29.15q-34.65 18.15 -45 57.8q-15.05 57.75 -19.6 117.25q-2.8 36.75 3.5 73q6.25 35.55 24.35 66.3q5.65 9.55 16.65 8.35q9.75 -1.05 16.8 -7.4q6.3 -5.7 9.4 -11.8q0.7 17.05 7 32.35q9.35 -44.85 2.4 -89.6q-1.9 4.85 0.55 9.35q-3.25 10.75 -4.7 20.95q-10.05 12.2 -22.85 21.7q-7.8 5.8 -13.3 -2.25q-23.25 -34.05 -26.95 -76.1q-1.3 -14.7 -1.5 -29.3q-0.5 -32.9 3.9 -65.45q6.15 -45.35 24.75 -86.5q11.55 -25.6 38.45 -25.8q4.9 3.35 8.5 8.05q6.15 8.1 11.75 14.2q3.05 -4.65 1.7 -10.35q1.55 -16.8 0.45 -33.15q4.05 0.5 8.5 -0.8q4 1.75 7.2 4.55q2.1 1.9 1.95 4.35q-1.15 18.6 -18.1 25.05q-2.7 -2 -5.65 -3.7q-6.85 49.6 -14.3 99.85q-1.15 7.7 3.95 13.45q11.45 -21.3 11.7 -54q6.6 33.8 25.65 62.4q10.3 -8.2 0.7 -24.35q-11.75 -19.75 -22.25 -40.8q8.25 -6.65 11.8 -16.65q9.85 -22.2 -9.1 -36.45q-1.65 41.75 -6.35 83.2q-1.55 13.75 5.5 20.85q8.55 -57.15 5.05 -113.9q-4.35 3.55 -4.65 10.65<g id="2772" transform="matrix(1, 0, 0, 1, -46.55, 0)">
<path style="fill:#000000;fill-opacity:1" d="M377.95,130.7Q372.65 150.6 370.85 171.1Q369.15 190.35 379.2 205.5L383.95 205.75L392.95 193.75L395.8 200.95L397.95 190L382.95 189.5L382.4 188.3L381.65 185.65Q381.5 184.95 381.5 184.25Q381.45 181.45 382.7 179L385.95 177.6Q393.7 174.2 401.85 175.95L402.05 176.3Q407.15 204.75 398.7 231L396.8 227.15Q393.9 220.95 393.95 213.95L382.95 223.75Q376.7 220.8 372.85 215Q360.8 196.9 362.9 173.9Q364.8 152.65 369.45 131.85Q374.3 110.1 387.95 93.25Q396.35 96.5 400.3 104.4Q404.55 112.85 401.7 122L391.95 109.5L384.75 110.65Q380.7 120.4 377.95 130.7M352.6,157.35Q351.25 179.7 351.2 202.25Q351.1 262.2 347.8 321.5Q345.35 365.7 339.6 408.8L340.6 419Q340.85 421.15 339.2 422.7Q330.8 416.5 329.65 402.6Q328.4 387.85 325.2 373.3Q312.4 315.4 297.15 258.2Q282.05 201.7 273.2 144.25Q274.2 176.4 273.7 209Q272.8 268.8 270.4 328.25Q268.45 376.5 258.45 421.95Q251.1 409.85 254.1 392.5Q264.2 334 265.65 273.75Q267.05 214.7 266.2 155.25Q265.8 125.75 268.9 97.15L268.75 90.5Q268.75 88.9 270.2 89L270.35 89.8L270.45 89.75L270.5 90.55Q282.05 147.35 295.45 204.15Q309 261.6 323.4 318.85Q330.85 348.5 335.55 378.4Q340.75 321.75 342.25 264.75Q343.8 205.35 344.35 146.25Q344.6 119.85 352.45 98Q354.45 126.95 352.6 157.35M227.45,112.75Q228.05 114.85 226.45 114.85L226.45 114.5Q227.05 102.25 231.7 91.25Q239.3 98.5 238.3 112.85Q236.2 142.35 235.85 172Q235.25 224.65 218.7 273.65Q214.05 287.35 202.7 295.75Q167.4 301.35 160.9 268.7Q155.1 239.55 157.75 209.75Q162.35 158.4 165.25 106.95Q165.9 96.05 170.45 88.75Q173.55 117.75 169.2 147.9Q160.65 207.05 167.2 265.75Q178.4 283.05 200.45 278.75Q224.75 254.9 224.95 219.5Q224.95 212.4 225.55 205.2Q229.3 158.35 227.85 112.1L227.45 112.75M143.7,119.25Q138.1 113.15 131.95 105.05Q128.35 100.35 123.45 97Q96.55 97.2 85 122.8Q66.4 163.95 60.25 209.3Q55.85 241.85 56.35 274.75Q56.55 289.35 57.85 304.05Q61.55 346.1 84.8 380.15Q90.3 388.2 98.1 382.4Q110.9 372.9 120.95 360.7L121.25 361.45Q122.7 351.25 125.95 340.5L108.45 342L107.75 340.8Q105.3 336.3 107.2 331.45L129.45 326Q136.4 370.75 127.05 415.6Q120.75 400.3 120.05 383.25Q116.95 389.35 110.65 395.05Q103.6 401.4 93.85 402.45Q82.85 403.65 77.2 394.1Q59.1 363.35 52.85 327.8Q46.55 291.55 49.35 254.8Q53.9 195.3 68.95 137.55Q79.3 97.9 113.95 79.75Q139.2 83.15 145.4 108.9Q146.75 114.6 143.7 119.25M220.85,320.9Q221 318.45 218.9 316.55Q215.7 313.75 211.7 312Q207.25 313.3 203.2 312.8Q204.3 329.15 202.75 345.95Q219.7 339.5 220.85 320.9M225.7,338.65Q222.15 348.65 213.9 355.3Q224.4 376.35 236.15 396.1Q245.75 412.25 235.45 420.45Q216.4 391.85 209.8 358.05L200.8 361.55Q200.55 394.25 189.1 415.55Q184 409.8 185.15 402.1Q192.6 351.85 199.45 302.25L210.95 298.5Q213.9 300.2 216.6 302.2Q235.55 316.45 225.7 338.65M169.45,302.75Q172.95 359.5 164.4 416.65L163.95 417.45Q156.9 410.35 158.45 396.6Q163.15 355.15 164.8 313.4Q165.1 306.3 169.45 302.75" />
</g>
</svg>
