<?xml version="1.0" encoding="utf-8"?>
<svg version="1.1" id="Layer_1"
xmlns="http://www.w3.org/2000/svg"
xmlns:xlink="http://www.w3.org/1999/xlink"


xml:space="preserve">
q-7.8 44.15 -5.25 89.5q-3.25 6.5 0.4 12.5q1.95 37 -2.8 75.8q-0.15 1.3 0.2 2.65q0.75 3.15 2.85 5.8q8.85 -39.1 7.6 -84.55q7.95 33.05 25.9 65.3q3.5 6.9 7.85 11.9q7.7 -22.1 -11.45 -43.7q-3.5 -3.9 -5.8 -8.85q-9.3 -19.55 -17.4 -39.75q12.95 -5.6 21.2 -16.75q3.45 -5.65 5 -12.3q1.6 -7.05 0.95 -14.45q-0.6 -7 -2.35 -13.75q-3.7 -14.55 -14.7 -24.8q-4.35 -4.15 -9.75 -6.95q-7.8 -4.1 -16.45 -6.2q-4.8 -1.2 -9.25 0.5q-10.25 20.45 -32.5 25.95q-7.25 1.9 -14.7 1.9q21.7 -0.65 38.45 12.85q20.05 16.3 9.6 37.15q-31.65 41.4 -31.75 94.85q0 36.1 16.45 67.5q10.35 19.7 32.05 13.9q14.3 -3.8 25.2 -13.25q-0.8 10.55 0.55 20.65q10.6 -7.25 6.75 -18.75q2.1 -8.7 3.2 -17.3q1.1 -4.1 0.75 -8.3q0.8 -13.2 -0.95 -26.15q-9.55 -0.75 -18.25 1.5q-1.5 0.7 -2.2 2.25q-1.85 5.55 1.45 9.75q-10.7 15.75 -28.3 24.75q-20.95 10.75 -32 -8.55q-13.1 -22.95 -13.65 -50.1q-1 -47.05 25.65 -84.7q8.3 -11.75 22.2 -11.45q23.7 0.5 35.7 19.45q-2.65 -33.3 -39.95 -34.5q-11.25 3.5 -18.8 13.35q-4.05 15.95 11.25 28.8q-30.05 19 -14.7 51.15q4.9 10.3 16.5 12.55q15.85 3.2 28 -8.05q-11.25 -52 -47.55 -96.7q-21.9 16.8 -38 -3.65q-1.95 -24.5 19.7 -27.6<g id="2797" transform="matrix(1, 0, 0, 1, -133.45, 0)">
<path style="fill:#000000;fill-opacity:1" d="M343.6,181.9Q348.05 180.2 352.85 181.4Q361.5 183.5 369.3 187.6Q374.7 190.4 379.05 194.55Q390.05 204.8 393.75 219.35Q395.5 226.1 396.1 233.1Q396.75 240.5 395.15 247.55Q393.6 254.2 390.15 259.85L389.1 261.4Q380.85 272.55 367.9 278.15Q376 298.35 385.3 317.9Q387.6 322.85 391.1 326.75Q410.25 348.35 402.55 370.45Q398.2 365.45 394.7 358.55L387.95 345.9Q370 313.65 362.05 280.6L339.3 285.9Q340.55 331.35 331.7 370.45Q329.6 367.8 328.85 364.65Q328.5 363.3 328.65 362Q333.4 323.2 331.45 286.2L330.65 285.25Q327 279.25 330.25 272.75L332.95 271.25Q330.4 225.9 338.2 181.75L338.45 184.5L343.6 181.9M376.95,206.4Q360.2 192.9 338.5 193.55L339.35 271.4Q346.8 271.4 354.05 269.5Q376.3 264 386.55 243.55Q397 222.7 376.95 206.4M184,177Q221.3 178.2 223.95 211.5L223.7 212.25Q211.7 193.3 188 192.8Q174.1 192.5 165.8 204.25Q139.15 241.9 140.15 288.95Q140.7 316.1 153.8 339.05Q164.85 358.35 185.8 347.6Q203.4 338.6 214.1 322.85L215.2 315.45L200.45 314.7Q197.15 310.5 199 304.95Q199.7 303.4 201.2 302.7Q209.9 300.45 219.45 301.2Q221.2 314.15 220.4 327.35Q220.75 331.55 219.65 335.65Q218.55 344.25 216.45 352.95L216.2 353.7Q220.05 365.2 209.45 372.45Q208.1 362.35 208.9 351.8L207.15 353.35Q196.25 362.8 181.95 366.6Q160.25 372.4 149.9 352.7Q133.45 321.3 133.45 285.2Q133.55 231.75 165.2 190.35Q172.75 180.5 184 177M262.15,276Q298.45 320.7 309.7 372.7L300 359.15Q287.85 370.4 272 367.2Q260.4 364.95 255.5 354.65Q240.15 322.5 270.2 303.5Q254.9 290.65 258.95 274.7L262.15 276M274.65,316.35Q253 319.45 254.95 343.95Q271.05 364.4 292.95 347.6L276.9 316.1L274.65 316.35" />
</g>
</svg>
