<?xml version="1.0" encoding="utf-8"?>
<svg version="1.1" id="Layer_1"
xmlns="http://www.w3.org/2000/svg"
xmlns:xlink="http://www.w3.org/1999/xlink"


xml:space="preserve">
q18.1 30.45 29.95 63.65q20.2 56.5 20.65 117.65q0.35 44.75 -4.95 88.3q-7 57.85 -31.2 111.75q-13.85 30.9 -42.6 46.8q-5.35 2.95 -11.15 3.7q-21.55 2.7 -42.5 -1.85q-0.05 -22.95 1.7 -46.5q4.45 -59.35 2.75 -119.25q-2 -59.65 -1.6 -119.25q0.25 -36.7 6.5 -70.9q19 4.65 37.6 12.4q24.15 14.25 38.35 38.2q-0.45 0 -0.7 0.35q-2.3 1.45 -2.65 4.75q-4.2 39.7 -5.2 80.25q-1.5 59.55 0.3 119.25q1.95 60 -3.85 119.2q-2.25 22.7 -1.45 44.25q-0.65 1.85 -0.8 3.75q0.15 1.95 1.8 2.95q36.35 14.15 68.95 -7.1q11 -12.85 19.5 -27.15q19.45 -32.65 28.25 -69.6q3.55 -8.2 5.65 -17.2q13.15 -56.65 12.1 -117q-0.65 -37.35 -7.25 -73.25q-10.65 -57.8 -34.6 -111.95q-25.65 -58.05 -88.65 -68.3q-5.25 -26.25 -36.45 -15.2q-21.55 7.6 -24.65 32.1q-3.65 29.1 -5.15 58.65q-0.75 14.8 -0.25 29.7q0.45 13.1 0.45 26.25q0 27.1 5.4 53.7q2.25 11 5.5 21.95q34.8 16.2 51.8 -20.2q2.9 -6.25 1.95 -13.3q-16.7 30.9 -46.45 24.55q-2.6 -0.55 -3.4 -3.95q-11.4 -48.75 -11.8 -98.85q3.8 -5.75 -1.5 -9.75q-21.4 1.5 -41.4 9.35q-6.25 -52.25 21.15 -90.55q7.45 -10.5 20.55 -9.5q11.5 0.55 20.2 8.25q-10.6 61 -16.8 124.3q-1.45 14.5 -3.5 29q-0.9 5.15 -0.6 10.5q21.75 -7.1 44.7 -6.4q-22 -2.5 -43.5 6.1q24.05 -124.45 37.35 -250.6q4 190.6 17.25 380.75q0.7 3.7 1.7 7.35q-3.6 -102.7 -13.2 -206.8q-2.7 -29.5 -4.1 -59.15q-1 -24.95 -0.6 -49.9q0.35 -22 1.85 -44q-0.35 -1.2 -1.35 -1.7q-7.3 46.8 -7.35 91.65q1.75 -1.85 1.95 -4.45q3.6 -39.35 8.3 -78.05q8.1 22.55 13.95 45.8q6.25 24.8 17.3 44.45q3.7 -15.55 5.65 -31.55q1.9 -15.8 5.85 -31.1q4.9 -19.05 3.75 -37.1q-1.65 1.4 -2.15 3.7q-9.3 41.75 -15.1 83.3q-12.7 -45.55 -29.4 -89.25q-2.25 0.6 -2.65 3.35q-4 -35.25 -40.55 -35.25q-11.05 5.15 -21.65 12.65q-24.3 17.1 -30.6 45.85q-12.85 58.6 -14.2 119q-1.3 59.9 0.35 119.25q0.8 37.7 6.6 74.35q1.75 11.25 10.7 17.95q25.95 19.45 51.95 -1.3q-2.45 16 1.85 28.4q1.9 -1.4 2.15 -4q6 -18.95 6.95 -38.35q-4 8.45 -6.3 18.25q2.3 -28.25 4.1 -56.65q1.1 -16.75 -7 -28.6q-0.95 1.25 -2.9 1.75q-7.7 2.55 -15 4.5q-0.2 1.5 0.25 2.95q11.85 0.05 21.75 -5q1.35 49.35 -5.3 98.35q-12.3 20.45 -42.45 18.95q-11.45 -0.55 -16 -10.5q-9.3 -20.1 -10.45 -42.95q-3 -59.4 -3.5 -119.35q-0.5 -59.7 -2.3 -119.2q-0.9 -29.9 1.75 -59.2q2.5 -28.15 4.1 -56.35q1.7 -29.8 16.85 -54.9q19.15 -31.75 55.05 -33.8q10.3 3.3 16.25 12.7q-9.5 47.35 -5.5 99q21.1 7.95 43.7 9q-1.4 4 -1.55 8.95q-1.65 59.5 -6.95 118.45q-1.05 11.3 -3.25 22.2q-2.05 10 3.65 14.3q4 -22.6 5.15 -46.45q2.9 -58.05 6.5 -115.95q2.55 1.1 4.5 2.7q18.05 15.25 18.8 41q0.65 23.8 -16.65 31.35q-0.65 -0.2 -0.6 0.2q-4.45 1.8 -9.95 2.55q-0.4 1.85 -0.15 3.75q5.9 1.1 10.85 -0.2q4.25 42.15 15.35 82.15q-3.6 -41.3 -14.15 -82.25q6.1 -2.25 10.65 -8.5q2 -4.1 3.2 -8.35q9.15 -33 -6.95 -62.9q0.3 -2.7 -1.4 -4.8q-1.55 -1.95 -3.6 -3.45q-5.8 -1.8 -12 -2.4q-0.35 0.2 -0.6 0.8q-5.1 50.35 -4.1 101.05q0.05 1.85 0.4 3.7q16.2 -0.3 24.2 -18.4q2.15 -7.9 0.55 -15.85q-1.85 -9.35 -6.75 -17.6q15.8 -24.45 0.75 -49.8q2.75 0 5.15 1.1q12.5 20.4 -1.5 40.3q-3.05 4.35 -8.2 3.95q1.2 -2.1 4.65 -2.1q2.95 -3.65 7.25 -2q16.95 35.3 -16.35 41.8q3.1 1.6 6.6 0.35q-4.65 -0.1 -5.55 3.7q-0.85 -0.25 -0.9 0.75q-0.85 56.15 -1.35 109.95q2.95 -23.65 3.7 -47.25q1.55 0.6 3.75 0.45q1.75 2.35 4.25 3.75q11.6 27.3 -12.75 43q-0.6 1 -0.8 2.25q-0.5 3.05 1.3 5.25q6.35 -0.3 10.15 -6.05q18.4 -27.95 -1.4 -52.95q2.55 -3.35 4.05 -7.8q9.65 -28.65 -7.9 -50.1q5.6 5.1 6.8 13.25q3.55 23.6 -11.25 38.95q0.5 -26 -1.7 -51.9q-15.7 14.35 -16.6 37.05q-0.85 20.25 0.55 40.5q1.35 20.05 6.8 39.2q5.8 4 10.5 -2.1q1.8 -2.65 2.7 -5.6q2.15 -0.7 3.55 -2.5q0.9 -1.25 1.05 -2.8q5.25 -22.05 -0.75 -43.75q-9.85 -25.9 -7.55 -54.3q1.25 -15.05 6.3 -29.1q2.95 -8.3 7.55 -15.8q2 -2.25 0.6 -6.35q-1.35 -4.05 -4.1 -7.05q-2.65 24.9 -5.85 48.7q6.15 -17.05 6.4 -35.6q4.6 23.45 12.35 45.3q-4.4 1 -6.65 5.1q-11.05 19.9 -0.6 39.15q8.3 7.35 17.25 1q0.3 -1.15 -0.1 -2.25q-8.55 4.85 -18.75 1.25q-2.85 -3.85 -3.55 -8.25q-3.25 -19.4 14.05 -19q1.45 0.7 2.1 2.25q0.6 1.35 1.65 1.5q1.15 -1.65 0.85 -3.75q-1.85 -1.25 -3.9 -2q10.05 -29 5.25 -57.15q-1.2 0.85 -1.25 2.25q-0.75 22.55 -4.75 44q-5.95 -23.75 -13.25 -47.25q-0.8 -0.2 -0.9 0.55q-4.4 12.85 0.75 25.25<g id="2792" transform="matrix(1, 0, 0, 1, -7.25, 0)">
<path style="fill:#000000;fill-opacity:1" d="M426.95,45.75Q408.35 38 389.35 33.35Q383.1 67.55 382.85 104.25Q382.45 163.85 384.45 223.5L388.15 342.7Q389.85 402.6 385.4 461.95Q383.65 485.5 383.7 508.45L383.5 513.95Q404.45 518.5 426 515.8Q431.8 515.05 437.15 512.1Q465.9 496.2 479.75 465.3Q503.95 411.4 510.95 353.55Q516.25 310 515.9 265.25Q515.45 204.1 495.25 147.6Q483.4 114.4 465.3 83.95Q451.1 60 426.95 45.75M389.95,27.75Q452.95 38 478.6 96.05Q502.55 150.2 513.2 208Q519.8 243.9 520.45 281.25Q521.5 341.6 508.35 398.25Q506.25 407.25 502.7 415.45Q493.9 452.4 474.45 485.05Q465.95 499.35 454.95 512.2L453.95 512.95L452.15 514.4L451.15 515.7L450.7 516.45Q418.1 537.7 381.75 523.55L380.6 527.1L379.95 527.7L379.55 522.7L378.45 522.2Q376.8 521.2 376.65 519.25L376.65 516.2Q376.8 514.3 377.45 512.45L379.05 512.9Q378.25 491.35 380.5 468.65Q386.3 409.45 384.35 349.45L380.65 230.25Q378.85 170.55 380.35 111Q381.35 70.45 385.55 30.75Q385.9 27.45 388.2 26L389.25 28.2Q389.5 27.85 389.95 27.85L389.95 27.75M354.45,319.5Q345.75 311.8 334.25 311.25Q321.15 310.25 313.7 320.75Q286.3 359.05 292.55 411.3Q312.55 403.45 333.95 401.95Q339.25 405.95 335.45 411.7L292.55 417.7Q292.95 467.8 304.35 516.55Q305.15 519.95 307.75 520.5Q337.5 526.85 354.2 495.95Q355.15 503 352.25 509.25Q335.25 545.65 300.45 529.45Q297.2 518.5 294.95 507.5Q289.55 480.9 289.55 453.8Q289.55 440.65 289.1 427.55Q288.6 412.65 289.35 397.85Q290.85 368.3 294.5 339.2Q297.6 314.7 319.15 307.1Q350.35 296.05 355.6 322.3L354.45 319.5M183.95,24.3Q184.95 24.8 185.3 26L185.65 27.85L185.65 29.25Q184.15 51.25 183.8 73.25Q183.4 98.2 184.4 123.15L186.7 177.7L189.3 236.9L190.65 266.5Q192.05 296.15 194.75 325.65Q204.35 429.75 207.95 532.45L206.65 529.05L204.4 522.05Q203.4 518.4 202.7 514.7L201.45 506.9L201.05 502.85L196.95 443.15Q183.7 253 179.7 62.4Q166.4 188.55 142.35 313Q163.85 304.4 185.85 306.9L185.45 314Q162.5 313.3 140.75 320.4L102.95 537.2L102.15 532.05L101.65 526.7Q101.35 521.35 102.25 516.2L136.4 321.95L132.45 323.5L132.2 317.5L137.75 314.9L145.65 275.05L151.05 246.05L156.1 216.95L160.75 187.75L162.9 173.05Q164.95 158.55 166.4 144.05Q172.6 80.75 183.2 19.75L183.95 24.3M237.2,147.25Q253.9 190.95 266.6 236.5L266.7 237.25Q272.5 195.7 281.8 153.95Q282.3 151.65 283.95 150.25Q285.1 168.3 280.2 187.35Q276.25 202.65 274.35 218.45Q272.4 234.45 268.7 250Q257.65 230.35 251.4 205.55Q245.55 182.3 237.45 159.75Q232.75 198.45 229.15 237.8Q228.95 240.4 227.2 242.25Q227.25 197.4 234.55 150.6Q234.95 147.85 237.2 147.25M89.5,22.25Q53.6 24.3 34.45 56.05Q19.3 81.15 17.6 110.95Q16 139.15 13.5 167.3Q10.85 196.6 11.75 226.5Q13.55 286 14.05 345.7Q14.55 405.65 17.55 465.05Q18.7 487.9 28 508Q32.55 517.95 44 518.5Q74.15 520 86.45 499.55Q93.1 450.55 91.75 401.2Q81.85 406.25 70 406.2Q69.55 404.75 69.75 403.25L70 401.7Q77.3 399.75 85 397.2L88 394.45Q89.95 393.95 90.9 392.7L91 392.45Q99.1 404.3 98 421.05Q96.2 449.45 93.9 477.7Q96.2 467.9 100.2 459.45Q99.25 478.85 93.25 497.8L91.8 501.85L88.15 539.45Q87.9 542.05 86 543.45Q81.7 531.05 84.15 515.05L81 518.7Q55 539.45 29.05 520Q20.1 513.3 18.35 502.05Q12.55 465.4 11.75 427.7L8.9 310.75Q7.25 251.4 8.55 191.5Q9.9 131.1 22.75 72.5Q29.05 43.75 53.35 26.65Q63.95 19.15 75 14Q111.55 14 115.55 49.25L115.45 50L105.75 34.95Q99.8 25.55 89.5 22.25M95.7,83.25L94.85 85.95L91.75 169L133.5 179.15L132.45 186.75Q109.85 185.7 88.75 177.75Q84.75 126.1 94.25 78.75L95.7 83.25M82.25,197.75L82 196.25L82 195.5L82.4 194.05Q82.65 193.45 83 193.25Q89.2 193.85 95 195.65L96.2 196Q98.25 197.5 99.8 199.45Q101.5 201.55 101.2 204.25Q117.3 234.15 108.15 267.15Q106.95 271.4 104.95 275.5Q100.4 281.75 94.3 284Q104.85 324.95 108.45 366.25L107.95 366.7Q96.85 326.7 92.6 284.55Q87.65 285.85 81.75 284.75L81.3 282.45Q81.05 280.55 81.45 278.7L81.75 277.25Q87.25 276.5 91.7 274.7L91.65 274.2Q91.6 273.8 92.25 274L92.55 274.35Q109.85 266.8 109.2 243Q108.45 217.25 90.4 202Q88.45 200.4 85.9 199.3Q82.3 257.2 79.4 315.25Q78.25 339.1 74.25 361.7Q68.55 357.4 70.6 347.4Q72.8 336.5 73.85 325.2Q79.15 266.25 80.8 206.75Q80.95 201.8 82.35 197.8L82.25 197.75M215.95,303L226.2 305Q241.25 330.35 225.45 354.8L230.2 355.7Q235.1 363.95 236.95 373.3Q238.55 381.25 236.4 389.15L234.65 394.05Q226.65 412.15 210.45 412.45L210 411.2L208.7 410.45Q208.35 408.6 208.3 406.75Q207.3 356.05 212.4 305.7L215.95 303M214.65,311.25L214.75 354.5Q219.9 354.9 222.95 350.55Q236.95 330.65 224.45 310.25Q222.05 309.15 219.3 309.15Q215.85 309.15 214.65 311.25M213.35,361.75L211.35 401.75Q244.65 395.25 227.7 359.95Q223.4 358.3 220.45 361.95L219.95 362.1Q216.45 363.35 213.35 361.75M251.2,302Q268.75 323.45 259.1 352.1Q257.6 356.55 255.05 359.9L255.2 359.95Q275 384.95 256.6 412.9Q252.8 418.65 246.45 418.95Q244.65 416.75 245.15 413.7Q245.35 412.45 245.95 411.45Q270.3 395.75 258.7 368.45Q256.2 367.05 254.45 364.7Q252.25 364.85 250.7 364.25L247.1 366.45Q246.35 390.05 243.4 413.7L242.95 414.2Q243.45 360.4 244.3 304.25Q244.35 303.25 245.2 303.5L245.4 305.65Q246.3 301.85 250.95 301.95L251.2 302M245.55,307.3Q247.75 333.2 247.25 359.2Q262.05 343.85 258.5 320.25Q257.3 312.1 251.7 307L245.55 307.3M273.2,419.7Q275.95 422.7 277.3 426.75Q278.7 430.85 276.7 433.1L272.2 426.95L267.7 427.2Q263.1 434.7 260.15 443Q255.1 457.05 253.85 472.1Q251.55 500.5 261.4 526.4L265.2 526.45L276.35 512.6L277.2 492.45L265.05 490.9L264.95 487.2L277.95 483.45Q283.95 505.15 278.7 527.2L279.55 529.3L280.1 531.1L280.35 532.85L280.3 533.65Q280.15 535.2 279.25 536.45Q277.85 538.25 275.7 538.95L276.05 522.5Q275.15 525.45 273.35 528.1L269.2 533.85Q264.5 539.95 258.7 535.95Q253.25 516.8 251.9 496.75Q250.5 476.5 251.35 456.25Q252.25 433.55 267.95 419.2L273.2 419.7M218.2,419.45Q225.5 442.95 231.45 466.7L231.45 466.95Q235.45 445.5 236.2 422.95Q236.25 421.55 237.45 420.7Q242.25 448.85 232.2 477.85Q234.25 478.6 236.1 479.85L236.7 480.45L238.05 486.45Q238.35 488.55 237.2 490.2Q236.15 490.05 235.55 488.7Q234.9 487.15 233.45 486.45Q216.15 486.05 219.4 505.45Q220.1 509.85 222.95 513.7Q233.15 517.3 241.7 512.45Q242.1 513.55 241.8 514.7L240.7 518.45L238.65 520.85L237.95 522.2Q229 528.55 220.7 521.2Q210.25 501.95 221.3 482.05Q223.55 477.95 227.95 476.95L231.05 477.5Q223.3 455.65 218.7 432.2Q218.45 450.75 212.3 467.8L211.45 468.7Q214.65 444.9 217.3 420Q217.4 419.25 218.2 419.45M230.05,502.75L247.2 498.95L244.7 531.95Q239.55 519.55 243.95 506.7L230.05 505L230.05 502.75" />
</g>
</svg>
