<?xml version="1.0" encoding="utf-8"?>
<svg version="1.1" id="Layer_1"
xmlns="http://www.w3.org/2000/svg"
xmlns:xlink="http://www.w3.org/1999/xlink"


xml:space="preserve">
q3.7 15.15 14.65 29.05q-19.75 11.05 -21.1 33.9q-0.55 9.6 1.8 18.85q5.5 21.4 27.05 20.3q20.95 -1.55 31.8 -18.3q5.85 -19.15 -14.65 -32.4q-12.45 -8.15 -21.6 -20.3q-11.3 -14.9 -21.05 -30.65q-13.6 11.4 -31.45 11.9q-13.35 -13 -7.85 -30.85q2.1 -6.85 7.1 -12.4q-20.75 15.1 -29.55 40.6q-11.05 31.95 -11.6 66.15q-0.65 40.45 24 70.95q3.7 4.6 9.05 6.45q30.35 10.65 60.05 -5.6q10.15 -5.5 16.15 -12.6q-1.85 11.8 5.3 17.55q5.7 -7.1 4.25 -15.75q-1.5 -0.85 -1.75 -2.25q4.3 -23.45 0.4 -45.8q-18.65 0.45 -12.5 15.55q11.55 -3.6 22.85 -1.35q-0.15 0.25 -0.05 0.6q1 0.9 0.95 2.25q-0.05 1.3 0.65 2.4q-18.55 23.45 -48.35 28.3q-35.1 5.75 -46.2 -27.7q-15.5 -46.75 1.2 -93.3q6.9 -19.25 20.65 -33.55q6.4 -6.65 15.7 -9.6q26.1 -8.35 46.75 6.15q1.7 4.35 5.4 6.7q1.15 -2.55 0.75 -5.2q-5.15 -30.3 -37.75 -27.8q-7.65 1.75 -15.95 3q-7.8 1.2 -13.95 5.7<g id="2783" transform="matrix(1, 0, 0, 1, -145.25, 0)">
<path style="fill:#000000;fill-opacity:1" d="M342.65,286.1Q352.4 301.85 363.7 316.75Q372.85 328.9 385.3 337.05Q405.8 350.3 399.95 369.45L378.85 352.8Q368 369.55 347.05 371.1Q325.5 372.2 320 350.8Q317.65 341.55 318.2 331.95Q319.55 309.1 339.3 298.05Q328.35 284.15 324.65 269L326.45 267.5L342.65 286.1M333.45,313.2Q328.45 318.75 326.35 325.6Q320.85 343.45 334.2 356.45L339.45 356.45Q357.3 355.95 370.9 344.55L347.85 312.7L342.7 308.7L333.45 313.2M201,181.25Q209.3 180 216.95 178.25Q249.55 175.75 254.7 206.05Q255.1 208.7 253.95 211.25L253.25 211.3Q249.55 208.95 247.85 204.6L246.2 200Q225.55 185.5 199.45 193.85Q190.15 196.8 183.75 203.45Q170 217.75 163.1 237Q146.4 283.55 161.9 330.3Q173 363.75 208.1 358Q237.9 353.15 256.45 329.7L256.3 329.1Q255.6 328 255.65 326.7Q255.7 325.35 254.7 324.45Q254.6 324.1 254.75 323.85L256.3 320.35Q245 318.1 233.45 321.7Q227.3 306.6 245.95 306.15L263.45 305.95Q267.35 328.3 263.05 351.75L262.95 352.45Q263.2 353.85 264.7 354.7Q266.15 363.35 260.45 370.45Q253.3 364.7 255.15 352.9Q249.15 360 239 365.5Q209.3 381.75 178.95 371.1Q173.6 369.25 169.9 364.65Q145.25 334.15 145.9 293.7Q146.45 259.5 157.5 227.55Q166.3 202.05 187.05 186.95Q193.2 182.45 201 181.25" />
</g>
</svg>
