<?xml version="1.0" encoding="utf-8"?>
<svg version="1.1" id="Layer_1"
xmlns="http://www.w3.org/2000/svg"
xmlns:xlink="http://www.w3.org/1999/xlink"


xml:space="preserve">
q-5.8 23.1 -6.1 46.95q-31.05 -3.3 -61.1 3.6q-6.9 14.6 -6.35 31q0.85 27.2 -2.5 54.2q-1.3 10.55 -0.55 21.15q0.25 3.7 0.95 7.35q1 5.25 3.45 10.05q7.2 -20 5.5 -43.05q-0.45 -6.15 -0.25 -12.35q17.1 -3.5 34.65 -2.15q13.3 0.85 26.2 -2.75q-5.15 28 2.05 54.8q0.4 1.45 1.25 2.85q-3.6 57.45 -2.35 115.7q9.45 -30.6 7.3 -66.45q37.75 7.9 42.4 -24.35q0.9 -6.1 -0.75 -12.1q-1.25 -4.45 -4.1 -8q-8.45 -10.5 -22.3 -11.8q1.9 5.55 -2.1 9.85q-16 7 -33.5 5.05q15 -7.15 29.55 0.7q-3.4 5.75 -1.45 12.8q0.7 2.55 3.35 3q-0.65 120.25 -6.4 242.3q-0.55 11.7 -2.25 23.55q-1 7.15 -0.7 14.1q0.35 2.7 1 5.35q0.6 2.6 1.55 5.1q19.35 -107.9 11.45 -218.3q-0.7 -9.9 -0.85 -19.8q17 5.95 34.6 2.75q2.95 -3.3 3 -7.85q0 -4.1 -2.3 -7.15q2.15 -2.5 2.35 -5.8q0.25 -4.6 -2.7 -8q-24.6 -1.3 -48.25 3.25q-0.7 1 -1 2.2q-0.95 4.15 0.5 7.55q-0.85 59.35 0.45 118.5q0.65 30.05 -2.25 59.9q-1.65 16.65 3.25 29.85q0.9 -0.6 1 -1.35q6.25 -37.9 5.25 -77.15q-1.5 -59.3 -0.45 -118.5q0.4 -24.15 0.3 -48q17.25 0.6 34.4 -3.75q4.05 -7.4 -0.65 -14.15q-17.6 1.75 -34.5 5.85q-0.3 -23.05 -1.05 -45.85q24.1 1.3 47.3 -2.5q0.75 -1.05 1.1 -2.25q1.4 -5.1 -1.1 -9.75q-0.35 -0.4 -0.8 -0.55q-0.7 -12.05 -13.55 -18.4q-21.35 -5.45 -37.7 12.35q-14.75 16.1 -22.8 36.8q-7.5 19.2 -10.6 39.5q-3.15 20.75 5.45 39.9q9.4 21.05 31.65 25.45q22.15 4.15 37.65 -14.35q13.45 -16.05 12.25 -36.95q-14.85 24.15 -39.7 33.1q-9.05 3.35 -17.7 -1.5q-6.55 -3.75 -11.5 -9.35q-8.55 -9.75 -8.7 -23.35q-0.15 -10.7 1.25 -21.55q5.5 -6.6 1.7 -14.1q-24.55 -2.15 -48.2 4.55q8.7 -37.25 43.5 -49q5.15 -1.8 10.7 -2.3q1.85 24.75 8.25 49.5q7.55 29.3 12.35 59.35q5.25 32.8 11.15 65.55q-48.7 0.75 -96.3 11.25q23 -54.65 41.2 -111q2.45 -7.55 3.75 -14.9q-1.05 0.6 -2.1 1.35q-5.5 14.3 -9.6 29.4q-15.45 57.15 -39.5 111.85q-14.5 33.05 -27.05 66.8q-1.15 0.6 -1.5 1.9q-1.15 4.35 0.75 8.3q-5.95 16.35 -11.4 32.9q-18.75 56.75 -35.7 113.65q-11.7 16.9 -4.5 34.5q2.6 -0.15 3.45 -2.85q17.7 -56.15 35.85 -112.7q10.65 -33.05 23.45 -65.15q32.25 -6.5 65.7 -7.15q20.25 -0.35 39.45 -3.1q8.35 42.95 13.7 86.5q7.05 57.25 6.1 115.65q-0.2 13.7 6.95 20.75q0.65 -0.75 0.7 -1.5q2.9 -55.65 -3.8 -111.05q-7.15 -58.55 -16.1 -116.75q2.15 -5.9 -1.2 -11.3q-6.05 -32.4 -12.9 -64.6q-11.9 -56.1 -24.45 -111.35q0.1 -1.6 -0.6 -3q-13.95 -40 -57.2 -42.75q-62.75 4.85 -83.75 62.5q-20.9 57.3 -33.95 116.5q-12.7 57.45 -9.55 116.45q1.55 28.9 6.85 57.3q7.6 41.1 36.4 70.75q25.9 26.7 63.2 20.8q34.5 -5.4 47.35 -35.1q-1.95 21.4 -3.35 42.9q-0.95 14.5 5.5 23.1q3.7 -18.5 4.85 -38.15q2.7 -47.3 2.65 -93.85q-0.35 -0.35 -0.75 -0.35q-4.4 -0.35 -8.45 1.1q-1.35 1.1 -2.3 2.45q0 1.2 0.55 2.25q22.1 -4.25 43.7 0.25q-1.45 12.2 -2.75 24.5q-2.85 26.45 -25.35 41.1q-32.65 21.35 -68.3 2.75q-20.05 -10.45 -29.65 -30.3q-26.6 -54.85 -25.95 -116.3q0.55 -57.95 14.05 -114.2q8.45 -35.3 19.4 -70.35q5.55 -17.7 14.8 -33.5q29.55 -50.45 89.75 -44.9q9.85 3.25 18.4 9.35q17 12.2 23.05 30.15q-6.1 -25.15 -30.55 -20.95q-15.65 51.9 -15.25 105.2q8.45 29.65 28.55 54.45q0.2 -29.15 -21.5 -56.85q19.3 -13.75 13.6 -37.2q19.35 -0.55 26 17.75q-6.65 21.15 -28.1 19.2q-3.05 -0.5 -6 -1.55<g id="2788" transform="matrix(1, 0, 0, 1, -38.6, 0)">
<path style="fill:#000000;fill-opacity:1" d="M493.35,122.75L492.7 128L488.1 129.85L484.85 189.6Q484 188.2 483.6 186.75Q476.4 159.95 481.55 131.95Q468.65 135.55 455.35 134.7Q437.8 133.35 420.7 136.85Q420.5 143.05 420.95 149.2Q422.65 172.25 415.45 192.25Q413 187.45 412 182.2Q411.3 178.55 411.05 174.85Q410.3 164.25 411.6 153.7Q414.95 126.7 414.1 99.5Q413.55 83.1 420.45 68.5L421 122.05Q451.05 115.15 482.1 118.45Q482.4 94.6 488.2 71.5L488.35 118.55L491.85 118.7L493.35 122.75M359,66.05Q372.85 67.35 381.3 77.85Q384.15 81.4 385.4 85.85Q387.05 91.85 386.15 97.95Q381.5 130.2 343.75 122.3Q345.9 158.15 336.45 188.75Q335.2 130.5 338.8 73.05L343.2 67L343.3 69.45L356.95 65.75L359 66.05M373.3,82.95Q358.75 75.1 343.75 82.25L343.95 111.3Q361.45 113.25 377.45 106.25L378.55 104.8Q382.55 100.5 380.65 94.95L377.45 85.25L373.3 82.95M425.95,196.25L464.85 199.95Q467.8 203.35 467.55 207.95Q467.35 211.25 465.2 213.75L425.55 212.35L426.6 263.8L462.15 264.7Q464.45 267.75 464.45 271.85Q464.4 276.4 461.45 279.7Q443.85 282.9 426.85 276.95Q427 286.85 427.7 296.75Q435.6 407.15 416.25 515.05L416.05 515.2Q415.1 512.7 414.5 510.1Q413.85 507.45 413.5 504.75L412.9 499.25L412.6 493.7Q412.3 486.75 413.3 479.6Q415 467.75 415.55 456.05Q421.3 334 421.95 213.75Q419.3 213.3 418.6 210.75Q416.65 203.7 420.05 197.95L425.95 196.25M403.4,198.45Q403.85 198.6 404.2 199Q406.7 203.65 405.3 208.75Q404.95 209.95 404.2 211Q381 214.8 356.9 213.5Q357.65 236.3 357.95 259.35Q374.85 255.25 392.45 253.5Q397.15 260.25 393.1 267.65L392.45 268.45Q375.3 272.8 358.05 272.2Q358.15 296.05 357.75 320.2Q356.7 379.4 358.2 438.7Q359.2 477.95 352.95 515.85Q352.85 516.6 351.95 517.2Q347.05 504 348.7 487.35Q351.6 457.5 350.95 427.45Q349.65 368.3 350.5 308.95L352 213.75L352.2 211Q350.75 207.6 351.7 203.45Q352 202.25 352.7 201.25Q376.35 196.7 400.95 198L403.4 198.45M498.75,377.75Q463.95 389.5 455.25 426.75Q478.9 420.05 503.45 422.2L504.65 424.25Q508.45 431.75 502.95 438.35L451.85 442.3Q450.45 453.15 450.6 463.85Q450.75 477.45 459.3 487.2Q464.25 492.8 470.8 496.55Q479.45 501.4 488.5 498.05Q513.35 489.1 528.2 464.95Q529.4 485.85 515.95 501.9Q500.45 520.4 478.3 516.25Q456.05 511.85 446.65 490.8Q438.05 471.65 441.2 450.9Q444.3 430.6 451.8 411.4Q459.85 390.7 474.6 374.6Q490.95 356.8 512.3 362.25L518.35 365.2Q531.2 371.55 531.9 383.6L528.95 384.95L509.45 375.45Q503.9 375.95 498.75 377.75M262.05,86.8L243.85 143.1Q225.65 199.45 202.65 254.1L201.25 257.55Q248.85 247.05 297.55 246.3Q291.65 213.55 286.4 180.75Q281.6 150.7 274.05 121.4Q267.65 96.65 265.8 71.9Q264.5 79.25 262.05 86.8M267.2,51L267.3 56.45Q279.85 111.7 291.75 167.8Q298.6 200 304.65 232.4L307.25 246.65L307.4 246.7L308.2 247.25Q311.55 252.65 309.4 258.55L309.4 258.65L314.75 291.4Q323.7 349.6 330.85 408.15Q337.55 463.55 334.65 519.2Q334.6 519.95 333.95 520.7Q326.8 513.65 327 499.95Q327.95 441.55 320.9 384.3Q315.55 340.75 307.2 297.8L300.4 262Q281.2 264.75 260.95 265.1Q227.5 265.75 195.25 272.25Q182.45 304.35 171.8 337.4Q153.65 393.95 135.95 450.1Q135.1 452.8 132.5 452.95Q125.3 435.35 137 418.45Q153.95 361.55 172.7 304.8Q178.15 288.25 184.1 271.9L183.75 271.7Q181.85 267.75 183 263.4Q183.35 262.1 184.5 261.5L188.3 260.55Q200.85 226.8 215.35 193.75Q239.4 139.05 254.85 81.9Q258.95 66.8 264.45 52.5Q265.5 51.75 266.55 51.15L267.2 51M227.2,98.25Q221.15 80.3 204.15 68.1Q195.6 62 185.75 58.75Q125.55 53.2 96 103.65Q86.75 119.45 81.2 137.15Q70.25 172.2 61.8 207.5Q48.3 263.75 47.75 321.7Q47.1 383.15 73.7 438Q83.3 457.85 103.35 468.3Q139 486.9 171.65 465.55Q194.15 450.9 197 424.45L198.45 426.45Q199.75 414.15 201.2 401.95Q179.6 397.45 157.5 401.7L157 400.95Q156.45 399.9 156.45 398.7L156.5 397.95L156.5 397.2L156.75 395.7L157.1 395.05Q158.05 393.7 159.4 392.6L160 392L160.5 391.45L167.55 389.45Q171.6 388 176 388.35L176 388.2L204.45 389.35Q204.85 389.35 205.2 389.7Q205.25 436.25 202.55 483.55Q201.4 503.2 197.7 521.7Q191.25 513.1 192.2 498.6Q193.6 477.1 195.55 455.7Q182.7 485.4 148.2 490.8Q110.9 496.7 85 470Q56.2 440.35 48.6 399.25Q43.3 370.85 41.75 341.95Q38.6 282.95 51.3 225.5Q64.35 166.3 85.25 109Q106.25 51.35 169 46.5Q212.25 49.25 226.2 89.25L226.45 90L226.6 90.75L226.5 92.25L226.45 93L226.9 93.75Q227.6 95.15 227.5 96.75L227.4 97.5L227.2 98.25M171,141.15Q192.7 168.85 192.5 198Q172.4 173.2 163.95 143.55L147.5 141L146.85 139.8L136.75 185.95Q136.35 132.65 152 80.75L154.05 83Q178.5 78.8 184.6 103.95Q190.3 127.4 171 141.15M155,94.55L148.9 128.4Q151.85 129.45 154.9 129.95Q176.35 131.9 183 110.75Q176.35 92.45 157 93L155 94.55" />
</g>
</svg>
