<?xml version="1.0" encoding="utf-8"?>
<svg version="1.1" id="Layer_1"
xmlns="http://www.w3.org/2000/svg"
xmlns:xlink="http://www.w3.org/1999/xlink"


xml:space="preserve">
q-4.55 50.6 -6.5 101.95q-2.3 59.25 -5.25 118.5q-0.8 15 -3.4 29.7q-2.3 12.75 0.5 23.3q-0.35 1.85 -0.2 3.75q0.1 1.85 1.5 3q3.8 0.35 8.1 -0.1q13.45 -0.95 26.7 2.4q24.7 6.2 45.9 -3.1q0.9 -1.35 1.1 -2.95q0 -3.45 -2.3 -6q-20.65 5.75 -42.6 -0.55q-30.1 -3.1 -55.95 6.75q3.65 -19.7 4.55 -40.2q2.65 -59.25 4.8 -118.5q2.2 -59.85 4.85 -118.5q-2.95 1.2 -3.3 5.25q-3.65 5.1 -4.9 12.1q-10.3 57.7 -24.5 114.65q-14.35 57.65 -25.4 115.5q-1.45 7.65 -4.5 14.65q-6.95 16 -0.7 29.55q5.15 -8.9 7.35 -19.8q10.25 -50.05 22.45 -100.35q4.5 36.45 7.75 73q2.8 31.25 14.55 57.6q4.45 -7.35 2.25 -16.5q-1.1 -0.95 -1.65 -2.7q-5.9 -18.65 -8.2 -38.15q6.55 47.9 12.6 95.75q-13.75 -4.35 -28.55 -3.3q-1.6 0.85 -4 1.05q9 -41.15 15.75 -82.6q2.25 -13.9 6.35 -27.3q0.3 7.8 1.4 15.85q-8.4 17.1 -14.55 35.3q-6 17.8 -9.8 36.4q-3.85 18.55 -5.15 37.6q-1.45 21.85 -0.1 43.9q1.35 21.5 5.25 42.6q3.7 19.95 9.65 39.25q6.65 21.65 26.5 29.95q14.15 5.85 28.85 -1.3q19.5 -9.7 35.4 -24.65q3.8 -3.55 6 -8.2q-5.8 24.45 3.9 45.85q5.05 -44.05 5.9 -89.25q0.2 -11.65 -0.65 -23.2q-16.05 -3.6 -32.05 0.05q-3.45 0.9 -6.95 2.2q-2.5 3.3 -2.05 7.45q0.3 3 0.85 5.65q-15.45 22.3 -40.95 32.95q-15.55 6.6 -29.55 -0.35q-7.45 -3.65 -11.7 -11.45q-9.5 -17.55 -13.85 -36.95q-4.05 -17.95 -5.95 -36.2q-1.9 -18.15 -1.4 -36.45q0.45 -18.25 2.95 -36.5q2.7 -19.55 8.5 -38.6q5.45 -17.95 12.6 -35.15q7.55 -18.1 22.05 -30.7q23.1 -20.15 41.35 1.95q7.8 9.5 17.15 17.6q-0.65 -22.6 -19.2 -35.5q-19.55 -13.5 -37.55 0.45q-14.7 11.3 -22.95 28.05<g id="2800" transform="matrix(1, 0, 0, 1, -62.8, 0)">
<path style="fill:#000000;fill-opacity:1" d="M351.2,118.25Q348.55 176.9 346.35 236.75Q344.2 296 341.55 355.25Q340.65 375.75 337 395.45Q362.85 385.6 392.95 388.7Q414.9 395 435.55 389.25L437.45 388.95Q439.75 391.5 439.75 394.95L439.55 398.75Q439.35 400.35 438.45 401.7Q417.25 411 392.55 404.8Q379.3 401.45 365.85 402.4L342.55 404.35Q338.25 404.8 334.45 404.45Q333.05 403.3 332.95 401.45Q332.8 399.55 333.15 397.7L333.2 396.95L333.25 396.95Q330.45 386.4 332.75 373.65Q335.35 358.95 336.15 343.95Q339.1 284.7 341.4 225.45Q343.35 174.1 347.9 123.5Q348.25 119.45 351.2 118.25M272.2,112L287.2 228.9L301.5 346.05Q303.8 365.55 309.7 384.2Q310.25 385.95 311.35 386.9L311.7 387.45Q313.9 396.6 309.45 403.95Q297.7 377.6 294.9 346.35Q291.65 309.8 287.15 273.35L285.35 259L246.35 259.95L240.75 283.8Q228.55 334.1 218.3 384.15Q216.1 395.05 210.95 403.95Q204.7 390.4 211.65 374.4Q214.7 367.4 216.15 359.75Q227.2 301.9 241.55 244.25Q255.75 187.3 266.05 129.6Q267.3 122.6 270.95 117.5L271.3 118.35L272.2 112M270.5,140.7Q266.4 154.1 264.15 168Q257.4 209.45 248.4 250.6L251.95 250.05Q254.35 249.85 255.95 249Q270.75 247.95 284.5 252.3Q278.45 204.45 271.9 156.55Q270.8 148.5 270.5 140.7M116.7,108.45Q134.7 94.5 154.25 108Q172.8 120.9 173.45 143.5Q164.1 135.4 156.3 125.9Q138.05 103.8 114.95 123.95Q100.45 136.55 92.9 154.65Q85.75 171.85 80.3 189.8Q74.5 208.85 71.8 228.4Q69.3 246.65 68.85 264.9Q68.35 283.2 70.25 301.35Q72.15 319.6 76.2 337.55Q80.55 356.95 90.05 374.5Q94.3 382.3 101.75 385.95Q115.75 392.9 131.3 386.3Q156.8 375.65 172.25 353.35Q171.7 350.7 171.4 347.7Q170.95 343.55 173.45 340.25L177.15 348.6L180.95 310.75L145.95 309L145.95 303Q149.45 301.7 152.9 300.8Q168.9 297.15 184.95 300.75Q185.8 312.3 185.6 323.95Q184.75 369.15 179.7 413.2Q170 391.8 175.8 367.35Q173.6 372 169.8 375.55Q153.9 390.5 134.4 400.2Q119.7 407.35 105.55 401.5Q85.7 393.2 79.05 371.55Q73.1 352.25 69.4 332.3Q65.5 311.2 64.15 289.7Q62.8 267.65 64.25 245.8Q65.55 226.75 69.4 208.2Q73.2 189.6 79.2 171.8Q85.35 153.6 93.75 136.5Q102 119.75 116.7 108.45" />
</g>
</svg>
