<?xml version="1.0" encoding="utf-8"?>
<svg version="1.1" id="Layer_1"
xmlns="http://www.w3.org/2000/svg"
xmlns:xlink="http://www.w3.org/1999/xlink"


xml:space="preserve">
q-23.3 10.35 -16.85 38.4q8.25 35.95 21.05 70.4q10.75 28.8 -1.95 54.9q-1.35 0.65 -2.4 1.6q-4.85 4.45 -11.25 3q-27.05 -6.25 -32.85 -35.35q1.25 -2.5 2.05 -5.2q0.55 -2 1.45 -3.8q-1.45 0.15 -2.1 -1.1q-0.45 -0.85 -1.45 -1.35q-5.95 24.5 9.6 46.6q18.3 25.9 44.15 8.15q16.85 -30.7 6.7 -65.5q-3.2 -11 -8.2 -21.4q-17.2 -35.7 -15 -73.55q17.65 -13.65 26 6q0.35 -2.35 0.15 -5.25q-0.65 -9.9 -7.65 -17.25q-2.8 58.9 -4.75 117.85q-0.55 15.1 -3.05 29.75q-2.85 16.7 2.4 29.45q7.4 -9.65 5.5 -21q14.05 -1.25 27.85 0.35q-1.75 43.65 -1.55 86.95q1.25 0 1.5 -0.5q7.8 -15.55 4.25 -32.5q0.9 -25.3 2.35 -50.5q1.85 -32.5 4.6 -64.85q1.35 -15.85 0.05 -30.15q-0.6 -0.2 -0.7 0.3q-7.85 34.2 -9.8 70.1q-8.85 0.1 -17.15 2.85q1.65 -44.85 1.4 -89.1q-3.05 3.6 -3.35 9.65q-5.55 4.65 -8.4 11.3q-20.25 47.7 -21.5 100.5q-1 42.85 28.35 72q5.4 1.3 10.4 -0.5q30.35 -10.95 29.55 -41.25q-3.4 1.25 -5.35 7.05q-8.4 25.5 -34.6 25.45q-10.65 -7.1 -15 -19.2q-10.25 -28.3 -7.4 -58.9q3.5 -37.25 16.65 -71.85q2.55 -2.45 5.05 -4.6q27.6 -23.9 49.15 3.6q-2.65 -25.85 -29.3 -26.25q-9.95 1.95 -17.95 8.65q-9.8 8.2 -5.1 16.3q7.55 -5.1 5.75 -13.85q-1.65 0.1 -1.95 1.7q-3.85 20.5 -5.95 41.95q-2.05 21.3 6.15 38.35q22.05 -5.15 24.25 -27.25q-9.55 10.95 -21.55 13.45q-0.05 -32.6 3.35 -64.5q-6.35 26.05 1.25 48.15q4.95 -29.65 2.25 -59.65q-11.15 -1.95 -20.6 2.3<g id="2814" transform="matrix(1, 0, 0, 1, -144.15, 0)">
<path style="fill:#000000;fill-opacity:1" d="M350.45,184.5L353.2 185Q360.2 192.35 360.85 202.25Q361.05 205.15 360.7 207.5Q352.35 187.85 334.7 201.5Q332.5 239.35 349.7 275.05Q354.7 285.45 357.9 296.45Q368.05 331.25 351.2 361.95Q325.35 379.7 307.05 353.8Q291.5 331.7 297.45 307.2L298.5 306.55L300.95 305.2Q301.95 305.7 302.4 306.55Q303.05 307.8 304.5 307.65L305.2 307.7Q304.3 309.5 303.75 311.5Q302.95 314.2 301.7 316.7Q307.5 345.8 334.55 352.05Q340.95 353.5 345.8 349.05Q346.85 348.1 348.2 347.45Q360.9 321.35 350.15 292.55Q337.35 258.1 329.1 222.15Q322.65 194.1 345.95 183.75L350.45 184.5M377.2,183.5Q377.45 227.75 375.8 272.6Q384.1 269.85 392.95 269.75L403.75 271.5L404.7 252.65Q406.65 216.75 414.5 182.55Q414.6 182.05 415.2 182.25Q416.5 196.55 415.15 212.4Q412.4 244.75 410.55 277.25L410.55 277.7L410.35 280.25Q408.9 305.45 408 330.75L407.45 337.45Q411 354.4 403.2 369.95Q402.95 370.45 401.7 370.45Q401.5 327.15 403.25 283.5Q389.45 281.9 375.4 283.15L374.55 302L372.2 347.7L373.95 349.2Q375.85 360.55 368.45 370.2Q363.2 357.45 366.05 340.75Q368.55 326.1 369.1 311Q371.05 252.05 373.85 193.15Q374.15 187.1 377.2 183.5M193,179.25Q219.65 179.65 222.3 205.5L222.2 206.25Q200.65 178.75 173.05 202.65Q170.55 204.8 168 207.25Q154.85 241.85 151.35 279.1Q148.5 309.7 158.75 338Q163.1 350.1 173.75 357.2Q199.95 357.25 208.35 331.75Q210.3 325.95 213.7 324.7L213.95 325.5L214.1 326.95L213.9 328.45L213.45 329.95Q214.25 360.25 183.9 371.2Q178.9 373 173.5 371.7Q144.15 342.55 145.15 299.7Q146.4 246.9 166.65 199.2Q169.5 192.55 175.05 187.9Q183.05 181.2 193 179.25M264.1,266.3Q259.4 258.2 269.2 250L269.85 252.45Q271.65 261.2 264.1 266.3M265.6,284.8L265.95 285.45Q262.55 317.35 262.6 349.95L262.7 351.45Q274.7 348.95 284.25 338L286.7 337.95Q284.5 360.05 262.45 365.2Q254.25 348.15 256.3 326.85Q258.4 305.4 262.25 284.9Q262.55 283.3 264.2 283.2L265.6 284.8M200.6,314.25Q210.05 310 221.2 311.95Q223.9 341.95 218.95 371.6Q211.35 349.5 217.7 323.45L200.7 320.2L200.6 314.25" />
</g>
</svg>
