<?xml version="1.0" encoding="utf-8"?>
<svg version="1.1" id="Layer_1"
xmlns="http://www.w3.org/2000/svg"
xmlns:xlink="http://www.w3.org/1999/xlink"


xml:space="preserve">
q-4.6 41.6 -6.4 84.45q-29.85 5.6 -59.35 11.65q1.15 -42.7 0.25 -85.65q-0.3 -15 1.2 -29.85q1.6 -16.55 -2.1 -29.65q-6.65 30.65 -5.65 64q1.8 59.65 -1.05 118.55q-2.9 59.8 -9.2 119q-1.8 17.05 4.4 29.4q5.05 -15.9 5.75 -33.7q2.45 -59.2 5.15 -118.5q32.65 -2.5 65.7 -7.4q-3.75 59.55 -13 118.15q-2.65 16.6 3.35 30q8.45 -11.25 4.75 -26q5.75 -59.05 9.35 -118.45q2.5 -4.6 1.4 -9.75q2 -30.75 -2.4 -59.1q-28.65 5.45 -57.95 3.9q-19.3 -0.3 -38.65 2.05q-18.5 2.15 -36.9 -1.2q35.15 13.95 76.3 3.25q3.45 74.95 2.45 149.9q-0.8 58.15 -2.25 116.2q-0.2 8.95 3.65 17.25q7.25 -71.45 6.65 -145.25q-0.5 -57.15 -3.45 -114.25q-0.65 -12.15 -3.1 -24q3.7 -6.45 0.4 -13.05q-26.6 13.4 -33.45 44.55q-11 50.2 -12.45 102.2q-1.1 39.95 21.15 72.2q5.65 8.2 15.35 6q36.3 -8.25 49.15 -41.95q-5.35 -0.85 -9.5 4.4q-18.25 23.25 -46.25 24.6q-18.5 -16.7 -20 -42q-2.05 -35 -0.05 -69.85q2.5 -43.1 25.55 -78.65q10.95 -8.85 25 -5q3.7 -5.15 0.35 -11.15q-1.95 -3.45 -4.85 -6.1q-2.55 22.05 -1.8 45q2 59.75 0.4 119.2q-0.3 11.35 -1 22.35q-0.9 14.2 6.75 21.65q0.5 -0.75 0.5 -1.5q-0.2 -44.5 0.65 -90q1.1 -60.3 -3.9 -118.5q-1.45 0.2 -1.6 1.8q-0.7 58.7 0.75 117.75q1.45 59.5 0.35 119.25q-0.55 30.7 2.35 59.2q13.6 -3.45 28 -2.85q28.4 -0.3 55.25 -4.5q4.55 -9.3 -2 -16.5q-7 0.25 -13.85 1.4q-0.2 -59.7 -1.2 -119.25q-1 -60.1 -3.25 -118.25q-3.6 5 -3.7 12.5q-10.7 -11.55 -27.6 -9.4q-20 6.2 -33.55 23.05q-9.65 11.95 -16.25 25.95q-26.6 56.2 -26.95 117.75q-0.25 43.6 5.5 86.4q4.05 29.95 26.5 49.4q20.55 17.8 44.05 3.15q33.6 -20.95 28.95 -57.7q-4.65 13.5 -12.65 26.55q-15.6 25.45 -45.35 20.45q-14.5 -2.5 -21.45 -15.6q-15.75 -29.7 -19.45 -63.5q-5.6 -51.25 6.7 -100.35q10.45 -41.85 33.15 -77.75q15.4 -24.35 43.25 -22.35q7.7 0.6 11.1 7.05q6.35 12.15 10.95 23q2.4 -9.5 0.05 -19.5q-1.9 -8.4 -6.05 -15.75q1.9 -3.6 2.4 -7.7q1.85 -15.85 1.2 -31.8q-1.2 -26.7 -5.45 -52.7q-14.6 -3.45 -29.35 -1.45<g id="2813" transform="matrix(1, 0, 0, 1, -39.95, 0)">
<path style="fill:#000000;fill-opacity:1" d="M514.6,148.85L509.9 223.7L510.6 226Q511.7 231.15 509.2 235.75L509.15 235.8L507.25 267.2Q503.65 326.6 497.9 385.65L494.7 414.95Q498.4 429.7 489.95 440.95Q483.95 427.55 486.6 410.95Q495.85 352.35 499.6 292.8L502.95 234.8Q469.9 239.7 437.25 242.2L436.35 265Q433.65 324.3 431.2 383.5Q430.5 401.3 425.45 417.2Q419.25 404.85 421.05 387.8Q427.35 328.6 430.25 268.8Q433.1 209.9 431.3 150.25Q430.3 116.9 436.95 86.25Q440.65 99.35 439.05 115.9Q437.55 130.75 437.85 145.75Q438.75 188.7 437.6 231.4Q467.1 225.35 496.95 219.75L503.75 219.55L505.8 174.2Q507.6 131.35 512.2 89.75Q516.6 118.1 514.6 148.85M361.05,97.65L306.55 99.95Q309 111.8 309.65 123.95Q312.6 181.05 313.1 238.2Q313.7 312 306.45 383.45Q302.6 375.15 302.8 366.2Q304.25 308.15 305.05 250Q306.05 175.05 302.6 100.1Q261.45 110.8 226.3 96.85L226.95 87.5Q245.35 90.85 263.85 88.7Q283.2 86.35 302.5 86.65Q331.8 88.2 360.45 82.75L361.45 84.6Q364.75 91.2 361.05 97.65M386.2,120.35L389.45 120.75Q392.35 123.4 394.3 126.85Q397.65 132.85 393.95 138L392.85 137.8L388.85 134.35L388.45 133.75Q374.4 129.9 363.45 138.75Q340.4 174.3 337.9 217.4Q335.9 252.25 337.95 287.25Q339.45 312.55 357.95 329.25Q385.95 327.9 404.2 304.65Q408.35 299.4 413.7 300.25L414.1 300.35L414.45 301L414.65 301.75L414.7 302.5Q401.85 336.2 365.55 344.45Q355.85 346.65 350.2 338.45Q327.95 306.2 329.05 266.25Q330.5 214.25 341.5 164.05Q348.35 132.9 374.95 119.5L386.2 120.35M256.2,128.5Q261.2 186.7 260.1 247Q259.25 292.5 259.45 337Q259.45 337.75 258.95 338.5Q251.3 331.05 252.2 316.85Q252.9 305.85 253.2 294.5Q254.8 235.05 252.8 175.3Q252.05 152.35 254.6 130.3Q254.75 128.7 256.2 128.5M195.45,88Q197.7 146.15 198.7 206.25Q199.7 265.8 199.9 325.5L200.2 379.45L259.9 375.55L269.6 374.35Q276.45 373.2 283.45 372.95Q290 380.15 285.45 389.45Q258.6 393.65 230.2 393.95L223.2 393.85Q208.8 393.25 195.2 396.7Q192.3 368.2 192.85 337.5Q193.95 277.75 192.5 218.25Q191.05 159.2 191.75 100.5Q191.85 93 195.45 88M145.45,91.25Q149.6 98.6 151.5 107Q153.85 117 151.45 126.5Q146.85 115.65 140.5 103.5Q137.1 97.05 129.4 96.45Q101.55 94.45 86.15 118.8Q63.45 154.7 53 196.55Q40.7 245.65 46.3 296.9Q50 330.7 65.75 360.4Q72.7 373.5 87.2 376Q116.95 381 132.55 355.55Q140.55 342.5 145.2 329Q149.85 365.75 116.25 386.7Q92.75 401.35 72.2 383.55Q49.75 364.1 45.7 334.15Q39.95 291.35 40.2 247.75Q40.55 186.2 67.15 130Q73.75 116 83.4 104.05Q96.95 87.2 116.95 81Q133.85 78.85 144.55 90.4L145.45 91.25M106.45,284L107.2 278L120.5 276.5Q135.25 274.5 149.85 277.95Q154.1 303.95 155.3 330.65L155.8 343.9L156.3 357.2Q156.95 373.15 155.1 389Q154.6 393.1 152.7 396.7L150 395.45L147.45 289.75L106.7 285.5L106.45 284" />
</g>
</svg>
