<?xml version="1.0" encoding="utf-8"?>
<svg version="1.1" id="Layer_1"
xmlns="http://www.w3.org/2000/svg"
xmlns:xlink="http://www.w3.org/1999/xlink"


xml:space="preserve">
q-0.65 -0.2 -0.85 0.3q-1.7 3.9 0.6 6.95q0.95 -2.15 0.9 -4.45q50.05 42.25 63.05 107.3q11.6 58.2 12.85 118.45q1.2 58.6 -7.7 115.65q-5.75 36.95 -35.5 58.4q-38.1 27.45 -83.4 36.35q3.2 -22.2 3.8 -45.2q1.65 -59.45 -0.5 -119.25q-2.15 -59.7 -5.5 -119.15q-3.3 -59.2 -0.55 -118.5q1.2 -25.25 1.5 -49.1q17.55 2.1 30.7 13.25q-0.9 0.95 -1 2.2q-0.15 1.5 -0.05 3.05q0.05 0.7 0.25 1.4q-3.8 11.85 -4.45 25.55q-2.9 59.4 0.05 118.55q3 59.45 4.85 119.2q1.9 59.3 1.15 118.5q-0.4 29.75 -4.7 59q-2.45 16.95 4.4 29.5q19.6 1.9 36.8 -6.65q25.4 -12.7 49.55 -27.55q14.55 -9 21.6 -23.65q24.45 -50.95 26.45 -108.85q2 -59.65 -2.75 -118.6q-4.85 -59.55 -27.5 -114.1q-24.4 -58.9 -83.65 -76.3q-10.45 -1.75 -19.75 0.45q7.05 -3.8 8.3 -11.4q4.35 -27 -22.95 -29.65q-3.25 -0.2 -5.95 0.7q2.95 1.55 7.15 2.25q8.85 0.7 15.8 6.4q5.25 4.35 6.65 10.95q-2.4 5.15 -7.2 7.75q-10.2 5.35 -21.65 5.4q2.9 5.95 6.4 11.5q2.1 3.25 5.25 5.3q-19.6 45.5 -20.15 96.15q-0.55 51.25 0.15 102.75q0.35 25.65 24.6 27.75q12.75 -3.35 20.1 -14q10.8 -15.55 5.4 -30.25q-3.65 2.95 -5.25 7.85q-7.1 21.35 -28.65 19.45q-4.85 -0.4 -5.8 -5.05q-7.05 -33.8 -6.2 -69.5q0.35 -14.6 1.2 -29.05q13.5 1.25 28.2 -0.2q2.6 -6.05 -0.95 -11.25q-13.8 -1.05 -27 1.4q2.25 -32.1 7 -63.65q4.05 -26.95 28.25 -33.7q1.55 2.95 2.15 6.15q0.6 3.4 3.35 2.85q1.5 -3.5 0.75 -7.45q-1.05 -5.55 -3.5 -10.55q-1.8 -1 -3.05 -2.45q-2.25 0.95 -4.7 2.45q-6.85 4.15 -9.9 11.35q-2.25 31.25 -1.25 65.25q1.7 59.55 2.9 119.2q1.2 59.55 3.55 119.25q0.55 14.85 -1.5 29.8q-2.05 14.35 5 21.95q0.65 -0.75 0.7 -1.5q3.05 -58.05 -0.4 -116.25q-3.55 -59.65 -4.25 -119.2q-0.7 -59.65 -1.05 -119.25q-0.35 -60.25 -7.25 -118.5q-9.35 29.1 -11.65 59.65q-1.25 16.15 2.35 30.4q-0.1 -18.1 -10.65 -37.55q-5.35 -9.85 -11.1 -19.55q11.3 -7.75 10.8 -21.55q-0.45 -13.45 -12.8 -20.1q-1.65 -32.95 -34.95 -33q-27.25 8.35 -39.25 34.8q-18.05 39.8 -21.15 83.95q-4.15 59.25 -5.25 119.25q-1.05 59.5 -3.55 119.2q-2.55 60.15 14.95 116.1q4.65 15 18.8 19.8q20.5 6.95 35.95 -6.75q13.85 -12.25 20.85 -26.45q-2.5 17.15 4.75 28.5q5.8 -56.25 7.55 -114q0.5 -16.75 -7.3 -28.75q-18.3 -1.1 -33.45 9q-1.8 5.9 2.75 8.7q14.05 -6.35 29.95 -3q0.7 25.55 -0.2 51.15q-11.3 34.35 -48.3 30.55q-10.55 -1.05 -14.35 -11.55q-17.95 -49.2 -15.55 -103.15q2.65 -59.55 3.35 -119.2q0.7 -59.55 4.3 -118.5q2.3 -37.65 14.55 -73.05q10.25 -29.65 39.95 -37.75q5.8 -1.6 11.35 0.05q17.9 5.15 21.8 24.25q2.2 -2.35 2 -5.75q-11.4 12.15 -27.75 8.2q18.25 -3.85 26.55 12.7q5.85 35.7 -12.95 64.55q-14.6 8.6 -27.75 -0.6q-4.2 -2.95 -4.85 -8.1q-4.55 -35.65 -4.4 -71.05q-3.85 15.35 -3.75 34.5q0.15 19.05 2.8 37.3q3.35 22.6 26.65 21.1q10.7 -0.7 16.25 -9.75q13.4 -21.65 14.35 -47.85q0.5 -14.1 -4.55 -24.3q-2.25 1.45 -1.8 4.2q-3.4 46.65 -5.95 94.95q-0.8 15 -2.75 29.75q-1.8 13.3 3.4 21.7q3.25 -13.8 3.8 -28.45q6.55 0.9 12.05 -1.35q9.65 40.6 26.3 78.6q1.55 -1.5 1.05 -3.65q-8.45 -39.05 -24.95 -76.1q3.55 -2 6.6 -5.5q13 -14.7 12.4 -34.95q-0.75 -27.8 -25.6 -34q-5.65 0.25 -10 3.35q20.5 -1.5 24.9 20.45q6.95 34.3 -26.25 40.35q-8.5 67.55 -3 136.95q22.4 7.75 46.25 8.5q2 -4.4 0.7 -9.15q1.95 -20.2 -3 -39.75q-6.5 19.25 -2.45 41.75q0.95 5.4 0.95 11q3.3 -4.8 1.35 -10.25q-7 19 -10.55 39.45q-2.05 12 -3.2 24.05q4.8 18.95 9.1 37.85q1.8 7.9 5.65 15.15q5.4 -13.9 8.8 -28.3q2.2 -9.5 2.95 -19.35q0.7 -8.9 -2.25 -17.35q-2.35 38.1 -5.65 76.45q-2.6 30.25 -2.55 58.35q9.15 -55.7 11.85 -110.45q2.7 52.6 4.4 105.05q0.45 13.45 6.6 20.95q3.15 -5.55 4.7 -11.8q4.35 -17.55 7.65 -35.15q11.1 -58.75 9.65 -117.3q-5.5 11.35 -6.2 26.45q-2.85 59.45 -15.8 116.3q-3.05 -54.8 -5.55 -109.55q-0.75 -16.25 -5.95 -28.7q-3.45 4.45 -3.8 10.7q2.45 -2.65 0.3 0.35q-9.95 36.25 -6.65 71.4q5.45 23.75 21.2 42.4q-3 -23.5 -18.9 -43.1q11.55 -25.05 -14.4 -31.85q11.2 -2 16.2 12.05q-4.7 14 -19.15 13.2<g id="2810" transform="matrix(1, 0, 0, 1, 30, 30.2)">
<path style="fill:#000000;fill-opacity:1" d="M806.9,-28.5L807.2 -27.75Q807.25 -25.45 806.3 -23.3L805.95 -22.75Q803.65 -25.8 805.35 -29.7Q805.55 -30.2 806.2 -30L806.9 -28.5M421.35,57.25L402 55.6L400.1 55.45Q399.8 79.3 398.6 104.55Q395.85 163.85 399.15 223.05Q402.5 282.5 404.65 342.2Q406.8 402 405.15 461.45Q404.55 484.45 401.35 506.65Q446.65 497.75 484.75 470.3Q514.5 448.85 520.25 411.9Q529.15 354.85 527.95 296.25Q526.7 236 515.1 177.8Q502.1 112.75 452.05 70.5Q438.9 59.35 421.35 57.25M399.75,46.3L400.2 45.25L400.2 46.2Q409.5 44 419.95 45.75Q479.2 63.15 503.6 122.05Q526.25 176.6 531.1 236.15Q535.85 295.1 533.85 354.75Q531.85 412.65 507.4 463.6Q500.35 478.25 485.8 487.25Q461.65 502.1 436.25 514.8Q419.05 523.35 399.45 521.45L398.95 521L398.45 523.7Q391.6 511.15 394.05 494.2Q398.35 464.95 398.75 435.2Q399.5 376 397.6 316.7Q395.75 256.95 392.75 197.5Q389.8 138.35 392.7 78.95Q393.35 65.25 397.15 53.4Q396.95 52.7 396.9 52Q396.8 50.45 396.95 48.95Q397.05 47.7 397.95 46.75L399.75 46.3M324.95,215.2L299.25 174.5Q295.75 168.95 292.85 163L280 164.8L275.35 212.5L275.8 163.6L271.35 159.5L272.95 157.25L276.2 157.6L279.85 124.5L280.3 157.75Q291.75 157.7 301.95 152.35Q306.75 149.75 309.15 144.6L309.65 142.85Q308.25 136.25 303 131.9Q296.05 126.2 287.2 125.5Q283 124.8 280.05 123.25L280.6 119.35Q283.3 118.45 286.55 118.65Q313.85 121.3 309.5 148.3Q308.25 155.9 301.2 159.7L297.25 161.4L330.2 211.5L330.2 220.5Q327.05 218.45 324.95 215.2M358.25,278.45Q360.7 276.95 362.95 276L368.95 276.35L371.45 276.75L372.9 278.3Q374.15 279.75 375.95 280.75Q378.4 285.75 379.45 291.3Q380.2 295.25 378.7 298.75Q375.95 299.3 375.35 295.9Q374.75 292.7 373.2 289.75L371.5 288.9L370.45 288.25L369.7 287.75Q345.5 294.5 341.45 321.45Q336.7 353 334.45 385.1Q347.65 382.65 361.45 383.7Q365 388.9 362.4 394.95L361.95 395.7Q347.25 397.15 333.75 395.9Q332.9 410.35 332.55 424.95Q331.7 460.65 338.75 494.45Q339.7 499.1 344.55 499.5Q366.1 501.4 373.2 480.05Q374.8 475.15 378.45 472.2Q383.85 486.9 373.05 502.45Q365.7 513.1 352.95 516.45Q328.7 514.35 328.35 488.7Q327.65 437.2 328.2 385.95Q328.75 335.3 348.35 289.8Q351.4 282.6 358.25 278.45M205.45,158Q205.8 217.6 206.5 277.25Q207.2 336.8 210.75 396.45Q214.2 454.65 211.15 512.7Q211.1 513.45 210.45 514.2Q203.4 506.6 205.45 492.25Q207.5 477.3 206.95 462.45Q204.6 402.75 203.4 343.2Q202.2 283.55 200.5 224L196.95 104.75Q195.95 70.75 198.2 39.5Q205.1 97.75 205.45 158M148.2,32.5Q160.55 39.15 161 52.6Q161.5 66.4 150.2 74.15Q155.95 83.85 161.3 93.7Q171.85 113.15 171.95 131.25L146.4 75.3L129.5 74.45L122.35 129.25Q118.75 115 120 98.85Q122.3 68.3 131.65 39.2L131.3 37.65L133.45 34.5L148.2 32.5M112.95,69.5Q109.05 50.4 91.15 45.25Q85.6 43.6 79.8 45.2Q50.1 53.3 39.85 82.95Q27.6 118.35 25.3 156Q21.7 214.95 21 274.5Q20.3 334.15 17.65 393.7Q15.25 447.65 33.2 496.85Q37 507.35 47.55 508.4Q84.55 512.2 95.85 477.85L103.75 453.6Q104.65 428 103.95 402.45Q88.05 399.1 74 405.45Q69.45 402.65 71.25 396.75L71.5 395.95Q86.65 385.85 104.95 386.95Q112.75 398.95 112.25 415.7Q110.5 473.45 104.7 529.7Q97.45 518.35 99.95 501.2L101.35 490.65Q94.35 504.85 80.5 517.1Q65.05 530.8 44.55 523.85Q30.4 519.05 25.75 504.05Q8.25 448.1 10.8 387.95Q13.3 328.25 14.35 268.75Q15.45 208.75 19.6 149.5Q22.7 105.35 40.75 65.55Q52.75 39.1 80 30.75Q113.3 30.8 114.95 63.75Q115.15 67.15 112.95 69.5M159.45,52Q151.15 35.45 132.9 39.3L130.2 67.7Q146.55 71.65 157.95 59.5L159.45 52M161.95,201.75Q167 211.95 166.5 226.05Q165.55 252.25 152.15 273.9Q146.6 282.95 135.9 283.65Q112.6 285.15 109.25 262.55Q106.6 244.3 106.45 225.25Q106.35 206.1 110.2 190.75Q110.05 226.15 114.6 261.8Q115.25 266.95 119.45 269.9Q132.6 279.1 147.2 270.5Q166 241.65 160.15 205.95Q159.7 203.2 161.95 201.75M134.8,291.25L134.95 289.75Q139.3 286.65 144.95 286.4L145.95 286.25Q170.8 292.45 171.55 320.25Q172.15 340.5 159.15 355.2Q156.1 358.7 152.55 360.7Q169.05 397.75 177.5 436.8Q178 438.95 176.45 440.45Q159.8 402.45 150.15 361.85Q144.65 364.1 138.1 363.2L136.5 411.75Q135.95 426.4 132.7 440.2Q127.5 431.8 129.3 418.5Q131.25 403.75 132.05 388.75Q134.6 340.45 138 293.8L134.95 294.25L134.8 293.45L134.8 291.25M138.35,354.45Q171.55 348.4 164.6 314.1Q160.2 292.15 139.7 293.65L138.35 354.45M251.3,216.2L250.45 337L292.2 344.45L293.15 347.3Q294.45 352.05 292.45 356.45Q268.6 355.7 246.2 347.95Q240.7 278.55 249.2 211L251.3 216.2M323.8,327Q325.75 332.45 322.45 337.25L280.7 333Q280.7 327.4 279.75 322Q275.7 299.5 282.2 280.25Q287.15 299.8 285.2 320L323.2 325.5L323.8 327M261.45,393.8Q260.7 403.65 258.5 413.15Q255.1 427.55 249.7 441.45Q245.85 434.2 244.05 426.3Q239.75 407.4 234.95 388.45L221.45 438.45Q222.6 426.4 224.65 414.4Q228.2 393.95 235.2 374.95L249.05 425.95L259.2 376.45Q262.15 384.9 261.45 393.8M288.95,372.2Q294.15 384.65 294.9 400.9Q297.4 455.65 300.45 510.45Q313.4 453.6 316.25 394.15Q316.95 379.05 322.45 367.7Q323.9 426.25 312.8 485Q309.5 502.6 305.15 520.15Q303.6 526.4 300.45 531.95Q294.3 524.45 293.85 511Q292.15 458.55 289.45 405.95Q286.75 460.7 277.6 516.4L276.95 517.7Q276.9 489.6 279.5 459.35Q282.8 421 285.15 382.9Q285.5 376.65 288.95 372.2M273.15,441.85L272.85 441.5Q275.3 438.85 273.15 441.85M231.55,444.85Q257.5 451.65 245.95 476.7L237.8 482.1Q253.7 501.7 256.7 525.2Q240.95 506.55 235.5 482.8L226.85 482.75L220.55 520.6Q217.25 485.45 227.2 449.2L230.5 444.95L231.55 444.85M230.95,451.2L227.8 475.9Q242.25 476.7 246.95 462.7Q241.95 448.65 230.75 450.65L230.95 451.2" />
</g>
</svg>
