<?xml version="1.0" encoding="utf-8"?>
<svg version="1.1" id="Layer_1"
xmlns="http://www.w3.org/2000/svg"
xmlns:xlink="http://www.w3.org/1999/xlink"


xml:space="preserve">
q0.95 -21.25 -23.4 -22q-22.9 4.65 -33.4 25.4q-10.85 21.4 -13.45 45.15q-3.1 28.1 3.6 55.4q7.7 31.15 21.2 60.65q17.55 38.1 23.45 79.3q7.85 54.7 6.85 110.8q-0.4 21.65 -6 42.3q-11.2 41.15 -57.9 36.8q-2.1 -0.2 -3.75 -1.25q-25.4 -15.8 -17.85 -45.35q-2.4 -2.9 -5.65 -2q-0.45 0.15 -0.85 0.5q-4.6 26.25 8.9 49.15q12.55 21.4 39.05 15q40.6 -9.75 45.15 -50.3q6.6 -59.1 4.15 -119.1q-2.35 -59.1 -25.45 -113q-3.55 -8.25 -8.05 -16q-31.65 -54.35 -20.2 -115.75q3.6 -19.3 17.35 -33.05q24.1 -24.1 45.85 -2.15q-1.25 1.2 -1.45 2.95q-0.25 2.85 1.55 4.7q-5.75 73.8 -9.2 147.85q-2.9 62.05 -6.85 123.7q-0.3 5.05 2.1 9.95q4.55 -19.35 5.75 -39.1q6.65 -107.3 10.35 -214.65q0.45 -13.75 1.5 -27.45q-17.3 -0.15 -31.65 -4.45q-2.75 -30 -37.35 -29.55q-26.8 12.4 -32.2 41.9q-7.95 43.5 -8 88.6q-0.1 59.55 0.35 119.25q0.5 59.6 -2.85 119.15q-2.55 46.05 -4.2 92.25q-0.65 17.9 9.5 31.5q15.8 21.05 44.4 13.55q19.9 -12.35 32.45 -32.75q8.5 -13.8 0.55 -23q-8 17 -21.2 30.85q-20.2 21.15 -47.2 5.4q-4.1 -2.4 -5.25 -6.7q-8.5 -32.4 -5.6 -67.15q4.85 -58.8 3.9 -119.1q1.85 0.25 3.6 0.05q24.4 -2.8 47.35 0.95q1.3 -2.9 0.95 -6q-8.75 -0.15 -17 -2.35q-16.95 1.9 -33.25 5.7q-0.4 -43.65 -0.05 -87.2q0.4 -55.15 5.5 -109.45q1.55 -16.7 8 -31.8q12.25 -28.55 40.8 -19.25q5.1 1.25 9.35 4.45q3.8 2.75 6.4 6.55q0.35 0.8 0.85 1.4q0.35 0.4 0.85 0.65q-17.5 14.35 -17.2 38q0.25 21.25 5.8 41.75q5.6 20.7 11.8 41.25q4.25 14.15 8.1 28.45q5.65 21.05 10.05 42.35q4.4 21.2 7.5 42.45q3.1 21.5 5.2 42.95q2.25 22.6 -11.95 39.95q-8.35 10.2 -20.8 14.95q-6.3 10.85 2.55 22.05q4.65 5.8 11.45 8.95q26 -7.35 32.75 -34.45q5.05 -20.35 5.25 -41.3q0.1 -13.45 -2.35 -26.85q-4.1 -21.3 -8.8 -42.6q-4.7 -21.55 -10.45 -42.6q-2.9 -10.75 -8 -20.4q-22.55 -42.8 -2.65 -84.6q14.05 -3.15 26.75 3.5q8.85 -7.85 -1.2 -18.65q-5.35 -5.7 -13.45 -6.9q-4.95 19.4 -2.95 40.35q4.25 44.2 1.65 88.35q-3.55 59.2 -5.9 118.6q-1.3 31.3 -13.7 59.1q-9.3 20.8 -31 16.7q-12.55 -2.4 -15.85 -14.2q-10.6 -37.95 -11.3 -78.4q-1.05 -59.85 2.9 -119.15q3.9 -59.5 4.05 -117.8q-4.55 7.25 -4.6 17.25q-0.1 29.75 -2.6 59.15q-5 58.85 -5.2 118.55q-0.2 59.6 7.45 117.8q2.6 19.95 20.9 27.55q24.35 10.05 36.25 -13.25q20.2 -39.6 19.75 -85.35q-0.1 -14.45 1.15 -29.1q3.8 -44.45 4.05 -89.35q0.4 -59.85 -3.9 -117.75q-1 0.35 -1.15 0.95q-18.2 -32 -57.75 -31.4q-12.45 4.55 -21.8 15.05q-20.35 22.9 -28.05 52.85q-7.45 29.15 -8.95 59.5q-2.85 59.15 -5.55 118.6q-2.65 58.65 -1.65 117.7q0.6 35.7 1.95 71.3q1.65 44.85 43.7 62.55q34.45 14.5 55.05 -13.1q6.7 -11.7 10.05 -24.8q3.1 -12.3 -3.8 -19.2q-0.3 22.05 -14.65 39.2q-2.9 3.5 -6.9 5q-32.15 11.95 -57.95 -9.95q-8.35 -7.05 -11.95 -16.9q-9.45 -26 -11.1 -54.75q-3.3 -59.2 -0.55 -118.65q2.7 -59.05 5.75 -117.75q1.95 -37.35 7 -74.15q6.15 -44.95 38.4 -76.5q24.2 -6.3 43.7 8q8.45 2.2 14.5 8.8q1.9 2.05 3.5 4.45q-0.15 1.55 0.5 3q0.2 0.75 0.7 1.3q1.85 -6.9 -1.7 -13.1q4.45 -25.15 4.2 -51.2q-0.3 -33.4 -8.2 -63.45q-20.25 0 -39.05 7.45<g id="2830" transform="matrix(1, 0, 0, 1, -11, 0)">
<path style="fill:#000000;fill-opacity:1" d="M517.95,58Q496.2 36.05 472.1 60.15Q458.35 73.9 454.75 93.2Q443.3 154.6 474.95 208.95Q479.45 216.7 483 224.95Q506.1 278.85 508.45 337.95Q510.9 397.95 504.3 457.05Q499.75 497.6 459.15 507.35Q432.65 513.75 420.1 492.35Q406.6 469.45 411.2 443.2Q411.6 442.85 412.05 442.7Q415.3 441.8 417.7 444.7Q410.15 474.25 435.55 490.05Q437.2 491.1 439.3 491.3Q486 495.65 497.2 454.5Q502.8 433.85 503.2 412.2Q504.2 356.1 496.35 301.4Q490.45 260.2 472.9 222.1Q459.4 192.6 451.7 161.45Q445 134.15 448.1 106.05Q450.7 82.3 461.55 60.9Q472.05 40.15 494.95 35.5Q519.3 36.25 518.35 57.5L517.95 58M412.2,32.75Q426.55 37.05 443.85 37.2L443.95 47.25L414.05 46.3Q413 60 412.55 73.75Q408.85 181.1 402.2 288.4Q401 308.15 396.45 327.5Q394.05 322.6 394.35 317.55Q398.3 255.9 401.2 193.85Q404.65 119.8 410.4 46L354.45 41.7Q352.65 39.85 352.9 37L352.95 35.5L353.05 34Q353.25 32.25 354.5 31.05L411.45 34.45L412.2 32.75M335.95,56.75Q335.45 56.5 335.1 56.1Q334.6 55.5 334.25 54.7L333.7 53.25L333.2 51.75Q330.6 47.95 326.8 45.2Q322.55 42 317.45 40.75Q288.9 31.45 276.65 60Q270.2 75.1 268.65 91.8Q263.55 146.1 263.15 201.25Q262.8 244.8 263.2 288.45Q279.5 284.65 296.45 282.75Q304.7 284.95 313.45 285.1L314.2 285.5L314.95 287.75L315.15 288.5Q315.5 291.6 314.2 294.5Q291.25 290.75 266.85 293.55Q265.1 293.75 263.25 293.5L263.6 320.5Q264.55 380.8 259.7 439.6Q256.8 474.35 265.3 506.75Q266.45 511.05 270.55 513.45Q297.55 529.2 317.75 508.05Q330.95 494.2 338.95 477.2Q346.9 486.4 338.4 500.2Q325.85 520.6 305.95 532.95Q277.35 540.45 261.55 519.4Q251.4 505.8 252.05 487.9Q253.7 441.7 256.25 395.65Q259.6 336.1 259.1 276.5Q258.65 216.8 258.75 157.25Q258.8 112.15 266.75 68.65Q272.15 39.15 298.95 26.75Q333.55 26.3 336.3 56.3L335.95 56.75M379.1,195.1Q389.15 205.9 380.3 213.75L381.6 206.25L380.45 203.25Q367.75 196.6 353.7 199.75Q333.8 241.55 356.35 284.35Q361.45 294 364.35 304.75Q370.1 325.8 374.8 347.35Q379.5 368.65 383.6 389.95L391.6 432.85Q394.05 446.25 393.95 459.7Q393.75 480.65 388.7 501Q381.95 528.1 355.95 535.45Q349.15 532.3 344.5 526.5Q335.65 515.3 341.95 504.45L345.8 510.15L352.2 518.2L356.45 519.95Q368.9 515.2 377.25 505Q391.45 487.65 389.2 465.05Q387.1 443.6 384 422.1Q380.9 400.85 376.5 379.65Q372.1 358.35 366.45 337.3Q362.6 323 358.35 308.85Q352.15 288.3 346.55 267.6Q341 247.1 340.75 225.85Q340.45 202.2 357.95 187.85L365.65 188.2Q373.75 189.4 379.1 195.1M232.45,189.25Q236.75 247.15 236.35 307Q236.1 351.9 232.3 396.35Q231.05 411 231.15 425.45Q231.6 471.2 211.4 510.8Q199.5 534.1 175.15 524.05Q156.85 516.45 154.25 496.5Q146.6 438.3 146.8 378.7Q147 319 152 260.15Q154.5 230.75 154.6 201Q154.65 191 159.2 183.75Q159.05 242.05 155.15 301.55Q151.2 360.85 152.25 420.7Q152.95 461.15 163.55 499.1Q166.85 510.9 179.4 513.3Q201.1 517.4 210.4 496.6Q222.8 468.8 224.1 437.5Q226.45 378.1 230 318.9Q232.6 274.75 228.35 230.55Q226.35 209.6 231.3 190.2Q231.45 189.6 232.45 189.25M137.45,68.25L136.45 67.55Q135.95 67 135.75 66.25L133.95 61Q133.3 59.55 133.45 58Q131.85 55.6 129.95 53.55Q123.9 46.95 115.45 44.75Q95.95 30.45 71.75 36.75L71 37.5L70.2 38.2L69.15 38.85L67 39.75Q34.75 71.3 28.6 116.25Q23.55 153.05 21.6 190.4Q18.55 249.1 15.85 308.15Q13.1 367.6 16.4 426.8Q18.05 455.55 27.5 481.55Q31.1 491.4 39.45 498.45Q65.25 520.35 97.4 508.4Q101.4 506.9 104.3 503.4Q118.65 486.25 118.95 464.2Q125.85 471.1 122.75 483.4Q119.4 496.5 112.7 508.2Q92.1 535.8 57.65 521.3Q15.6 503.6 13.95 458.75Q12.6 423.15 12 387.45Q11 328.4 13.65 269.75Q16.35 210.3 19.2 151.15Q20.7 120.8 28.15 91.65Q35.85 61.7 56.2 38.8Q65.55 28.3 78 23.75Q117.55 23.15 135.75 55.15Q139.3 61.35 137.45 68.25M124.95,421.3Q132.85 451.35 133.15 484.75Q133.4 510.8 128.95 535.95L124.2 431.95L77.05 437.15L77 432.7L85.9 428.75Q104.7 421.3 124.95 421.3" />
</g>
</svg>
