<?xml version="1.0" encoding="utf-8"?>
<svg version="1.1" id="Layer_1"
xmlns="http://www.w3.org/2000/svg"
xmlns:xlink="http://www.w3.org/1999/xlink"


xml:space="preserve">
q-5.45 39.6 -5.85 80.95q-14.5 0.1 -28 2.6q0.5 -31.1 -0.6 -62.05q-3.1 4.5 -3.2 11.25q-1.1 59.6 -6.15 118.4q-1.45 16.7 3.6 29.3q2.9 -19.7 4.15 -40.4q1.4 -23.15 2 -46.15q1.1 0.65 2.35 1.05q-0.75 35.7 -2.95 71.3q-0.8 13.55 5.05 21.6q4 -35.9 4.6 -73.5q0.85 -59.8 -0.1 -118.45q-0.5 0.1 -0.5 0.3q3.1 -5.9 -0.65 -11.15q-47.15 2.55 -93.5 7.75q-1.3 3.8 0.1 7.5q22.45 0.45 45.2 -0.5q-1.9 23.45 -3 47.15q-2.8 59.6 -2.2 118.55q2.75 1 3.2 -2.3q3.65 -26.7 4.55 -54.7q1.7 -54.85 0.9 -108.85q-15.65 -18.15 -36.35 -6.95q-18.75 10.25 -27.9 29.35q-9.1 18.9 -12.4 39.85q-3.3 20.95 -3.75 42q-0.45 20.6 4.1 40.3q5.15 22.1 25.95 31.2q14.65 6.5 27.8 -5.45q5.55 -5.05 9.55 -11.3q-0.75 7.9 3.75 14.45q8.85 -29.3 7.5 -60.75q-8.8 -7.35 -18.35 -1.95q10.55 -1.35 21.25 3.45q0.85 24.35 -19.15 38.5q-9.35 6.55 -20.65 4.25q-6.4 -1.2 -10.5 -6.15q-4.8 -5.7 -7.45 -12.75q-5.25 -14.25 -7.4 -29.4q-5.1 -36.25 5.7 -71.15q11 -35.65 44.2 -42.35q10.2 -2.2 19.75 2.85q1.7 -1.1 1.8 -3.1q0.1 -2.35 -0.85 -4.55q2.05 -2.25 1.45 -5.25q-0.55 -2.55 -2.05 -4.9q-1.9 -3 -4.4 -5.4q-9 -3.2 -17.45 1.1q-15.85 15.75 -20.9 38q-5.05 22.15 5.6 41.1q9.25 16.5 28.35 11.8q18.75 -4.6 15.4 -23q-13.35 11.6 -26.5 3.65q-13.7 -8.2 -12.75 -24.75q17 4.8 34.15 0.75q2.2 -2.95 1.9 -6.6q4.9 -19.3 22.75 -25.4q9.9 -3.3 17.4 4.1<g id="2825" transform="matrix(1, 0, 0, 1, -141.1, 0)">
<path style="fill:#000000;fill-opacity:1" d="M422.2,184.25Q423.15 242.9 422.3 302.7Q421.7 340.3 417.7 376.2Q411.85 368.15 412.65 354.6Q414.85 319 415.6 283.3L389.95 284.7Q388.7 284.3 387.6 283.65Q387 306.65 385.6 329.8Q384.35 350.5 381.45 370.2Q376.4 357.6 377.85 340.9Q382.9 282.1 384 222.5Q384.1 215.75 387.2 211.25Q388.3 242.2 387.8 273.3Q401.3 270.8 415.8 270.7L415.85 265.5Q416.25 224.15 421.7 184.55Q421.7 184.35 422.2 184.25M394.45,199L349.35 202.35Q350.15 256.35 348.45 311.2Q347.55 339.2 343.9 365.9Q343.45 369.2 340.7 368.2Q340.1 309.25 342.9 249.65Q344 225.95 345.9 202.5Q323.15 203.45 300.7 203Q299.3 199.3 300.6 195.5L300.95 194.75Q347.3 189.55 394.45 187Q398.2 192.25 395.1 198.15L394.45 199M222.25,197.2Q223.2 199.4 223.1 201.75Q223 203.75 221.3 204.85L218.45 204.5L217.2 202.5Q207.65 197.45 197.45 199.65Q164.25 206.35 153.25 242Q142.45 276.9 147.55 313.15Q149.7 328.3 154.95 342.55Q157.6 349.6 162.4 355.3Q166.5 360.25 172.9 361.45Q184.2 363.75 193.55 357.2Q213.55 343.05 212.7 318.7L214.45 320.45L214.95 317.7Q204.25 312.9 193.7 314.25L194.55 307.1L197.1 305.75Q206.65 300.35 215.45 307.7L220.2 309.2Q221.55 340.65 212.7 369.95Q208.2 363.4 208.95 355.5Q204.95 361.75 199.4 366.8Q186.25 378.75 171.6 372.25Q150.8 363.15 145.65 341.05Q141.1 321.35 141.55 300.75Q142 279.7 145.3 258.75Q148.6 237.8 157.7 218.9Q166.85 199.8 185.6 189.55Q206.3 178.35 221.95 196.5L222.25 197.2M295.05,290.55Q287.55 283.15 277.65 286.45Q259.8 292.55 254.9 311.85L287.45 308.45L288.75 311.45L289.35 314.35Q289.65 318 287.45 320.95Q270.3 325 253.3 320.2L253.05 324.5Q252.1 341.05 265.8 349.25Q278.95 357.2 292.3 345.6L293.7 342.2L299.45 342.7Q302.8 361.1 284.05 365.7Q264.95 370.4 255.7 353.9Q245.05 334.95 250.1 312.8Q255.15 290.55 271 274.8Q279.45 270.5 288.45 273.7L291.2 276.15Q293.7 278.55 295.6 281.55Q297.1 283.9 297.65 286.45Q298.25 289.45 296.2 291.7L295.05 290.55" />
</g>
</svg>
