<?xml version="1.0" encoding="utf-8"?>
<svg version="1.1" id="Layer_1"
xmlns="http://www.w3.org/2000/svg"
xmlns:xlink="http://www.w3.org/1999/xlink"


xml:space="preserve">
q-22.15 -2.85 -44.7 -2.8q-62.35 -1.15 -121.75 10.75q-0.4 1.45 -0.45 3q48.8 -6.7 97.6 -7.25q-8.7 48.95 -5.35 101.25q3.8 59.3 1.15 119.25q-2.6 59.4 -3.45 119.2q-0.75 59.15 -4.4 118.4q-0.85 14.15 5.95 21.6q2.95 -4.7 3.05 -10.5q1.4 -59.7 2.25 -119.25q0.9 -59.55 2.5 -119.2q1.65 -59.45 -1.6 -118.5q-3.15 -56.95 0.6 -112.25q1.45 -1.65 1.7 -3.75q0.2 -1.45 0 -3q-0.65 -0.4 -1.3 -0.45q-15.05 45.85 18.25 77.75q25.75 24.4 32.85 59.65q4.85 24 -1.15 47.8q-9.05 35.6 -47.95 31.05q-4.15 -5.95 -6.8 -12.65q-3 -7.5 -7.7 -9.6q-2.85 6.6 -0.45 13.5q4.65 13.3 14.2 24q21.15 4.25 38.35 -8.6q5.75 -4.3 8.5 -10.6q21.45 -49.3 2.4 -100.55q-3.5 -9.45 -9.05 -17.7q-17.85 -26.5 -39.2 -50.5q-5.75 -23.45 4.3 -44.35q12.7 -26.5 38.2 -8.4q0.05 1.4 1.35 2.1q1.75 -1.15 1.4 -3.2q-3.7 -20.45 -28.4 -20.05q-14.85 10.2 -20.75 28.2q-13.55 -8.75 -31.3 -4.55q-11.8 4.25 -19.55 15.1q-21.5 29.85 -24.4 67.3q-4.6 58.85 -0.6 118.6q2.65 50.9 0.95 101.6q-1.45 42.7 -2.35 85.45q-0.6 27.85 10.95 52.5q5.75 6.2 13.1 10.2q32.1 17.45 55.4 -9.7q1.15 -2.8 3.2 -5.05q7.6 -8.6 11.5 -19.55q3.85 -10.9 -1.7 -18.9q-6.5 20.25 -22.6 34.8q-21.55 19.5 -46.4 3.1q-10.5 -6.95 -11.8 -19.35q-6.2 -58.85 -3.75 -118.25q1.9 -47.25 -0.7 -94.5q26.5 4.25 53 1.75q2.5 -5.75 -1.05 -10.5q-26.6 2.85 -52.7 1.35q-4.8 -59.5 1.7 -117.8q2.9 -26.15 16.35 -48.15q15.35 -25.05 46.15 -18.85q7.25 1.45 11.95 7.05q4.85 -9.8 -6.2 -16.95q-9.05 3.65 -17.9 8q-11.1 11.8 -17.55 26.75q-16.25 37.6 -16.4 79q-0.2 59.65 -3 119.2q-2.85 59.4 -4.75 119.2q-1.7 53.05 17.3 102.2q9.65 25.05 35.45 26.65q19.55 1.25 32.75 -13.05q6.25 -6.75 9.1 -13.85q-2.6 16.4 3.3 27.65q1.8 -2.35 2 -5.2q4.75 -59.7 0.5 -118.55q-22.45 6.45 -45.2 10.25q-0.95 2.95 0.75 5.25q22.45 -0.25 41.7 -5.5q-0.7 10.8 0.05 21.75q1.45 21.65 -0.35 43.1q-5.75 6.2 -10.7 14.45q-5.35 8.9 -14.55 13.1q-34.3 15.65 -48.05 -17.2q-11.75 -28.05 -13.05 -58.4q-2.55 -58.75 0.05 -118.35q2.65 -59.4 2.35 -119.3q-0.2 -39.95 5.35 -78.8q5.1 -35.5 33.85 -55.1q25 -17.05 50.75 -3.85q7.8 8.7 5.25 20.05q-0.45 2 0.75 3.7q4.2 -3.8 3.8 -10.55q-2.1 -33.8 -39.3 -30.45q-6.15 3.4 -13.05 6.25q-5.2 28.2 -6.5 57.4q-2.65 59.1 -2.45 118.5q0.05 15.1 -0.85 29.9q-1.9 33.2 18.3 57.8q2.3 2.8 5.75 2.25q25.05 -3.8 30.9 -30.7q9.75 -44.9 11.8 -91.4q2.55 -59.15 2.55 -118.55q-0.05 -14.35 -7.3 -21q-0.8 59.35 -3.5 118.55q-1.45 30.8 -15.65 57.85q-2.3 4.35 -6.45 6.55q-20.2 10.7 -23.65 -13q-8.5 -58 -6.05 -117.5q2.5 -59.9 4.25 -118.45q-0.6 -0.2 -0.7 0.3<g id="2827" transform="matrix(1, 0, 0, 1, -23.6, 0)">
<path style="fill:#000000;fill-opacity:1" d="M520.95,31.5L521.35 32.3L522.15 34.5L522.4 36Q522.6 37.55 522.4 39Q522.15 41.1 520.7 42.75L455.75 40.75Q452 96.05 455.15 153Q458.4 212.05 456.75 271.5Q455.15 331.15 454.25 390.7Q453.4 450.25 452 509.95Q451.9 515.75 448.95 520.45Q442.15 513 443 498.85Q446.65 439.6 447.4 380.45Q448.25 320.65 450.85 261.25Q453.5 201.3 449.7 142Q446.35 89.7 455.05 40.75Q406.25 41.3 357.45 48L356.9 48.65L355.95 49L354.7 48.75L354.05 47.95L353.25 46.5L353 45.75L352.8 44.25L352.75 42Q352.8 40.45 353.2 39Q412.6 27.1 474.95 28.25Q497.5 28.2 519.65 31.05Q520.3 31.1 520.95 31.5M357.95,263.5Q382.65 263.1 386.35 283.55Q386.7 285.6 384.95 286.75L383.55 286.1Q382.25 285.4 382.2 284L381.95 282.5Q356.45 264.4 343.75 290.9Q333.7 311.8 339.45 335.25Q360.8 359.25 378.65 385.75Q384.2 394 387.7 403.45Q406.75 454.7 385.3 504Q382.55 510.3 376.8 514.6Q359.6 527.45 338.45 523.2Q328.9 512.5 324.25 499.2Q321.85 492.3 324.7 485.7Q329.4 487.8 332.4 495.3Q335.05 502 339.2 507.95Q378.1 512.5 387.15 476.9Q393.15 453.1 388.3 429.1Q381.2 393.85 355.45 369.45Q322.15 337.55 337.2 291.7Q343.1 273.7 357.95 263.5M305.45,69L305 68.2L304.8 67.5L304.7 66L304.7 65.25Q300 59.65 292.75 58.2Q261.95 52 246.6 77.05Q233.15 99.05 230.25 125.2Q223.75 183.5 228.55 243L229.75 259.6Q255.85 261.1 282.45 258.25Q286 263 283.5 268.75L283.2 269.5Q256.7 272 230.2 267.75Q232.8 315 230.9 362.25Q228.45 421.65 234.65 480.5Q235.95 492.9 246.45 499.85Q271.3 516.25 292.85 496.75Q308.95 482.2 315.45 461.95Q321 469.95 317.15 480.85Q313.25 491.8 305.65 500.4Q303.6 502.65 302.45 505.45Q279.15 532.6 247.05 515.15Q239.7 511.15 233.95 504.95Q222.4 480.3 223 452.45Q223.9 409.7 225.35 367Q227.05 316.3 224.4 265.4L224.25 262.05L223.4 248.5Q219.4 188.75 224 129.9Q226.9 92.45 248.4 62.6Q256.15 51.75 267.95 47.5Q285.7 43.3 299.25 52.05Q310.3 59.2 305.45 69M97.95,33.5Q135.15 30.15 137.25 63.95Q137.65 70.7 133.45 74.5Q132.25 72.8 132.7 70.8Q135.25 59.45 127.45 50.75Q101.7 37.55 76.7 54.6Q47.95 74.2 42.85 109.7Q37.3 148.55 37.5 188.5Q37.8 248.4 35.15 307.8Q32.55 367.4 35.1 426.15Q36.4 456.5 48.15 484.55Q61.9 517.4 96.2 501.75Q105.4 497.55 110.75 488.65Q115.7 480.4 121.45 474.2L121.9 476.55Q123.7 455.1 122.25 433.45Q121.5 422.5 122.2 411.7Q102.95 416.95 80.5 417.2Q78.8 414.9 79.75 411.95L80 411.2Q102.75 407.4 125.2 400.95Q129.45 459.8 124.7 519.5Q124.5 522.35 122.7 524.7Q116.8 513.45 119.4 497.05L119.9 493.85Q117.05 500.95 110.8 507.7Q97.6 522 78.05 520.75Q52.25 519.15 42.6 494.1Q23.6 444.95 25.3 391.9Q27.2 332.1 30.05 272.7Q32.85 213.15 33.05 153.5Q33.2 112.1 49.45 74.5Q55.9 59.55 67 47.75Q75.85 43.4 84.9 39.75Q91.8 36.9 97.95 33.5M149.2,255.5Q147.45 314.05 144.95 373.95Q142.5 433.45 151 491.45Q154.45 515.15 174.65 504.45Q178.8 502.25 181.1 497.9Q195.3 470.85 196.75 440.05Q199.45 380.85 200.25 321.5L200.7 260Q207.95 266.65 208 281Q208 340.4 205.45 399.55Q203.4 446.05 193.65 490.95Q187.8 517.85 162.75 521.65Q159.3 522.2 157 519.4Q136.8 494.8 138.7 461.6Q139.6 446.8 139.55 431.7Q139.35 372.3 142 313.2Q143.3 284 148.5 255.8Q148.6 255.3 149.2 255.5" />
</g>
</svg>
