<?xml version="1.0" encoding="utf-8"?>
<svg version="1.1" id="Layer_1"
xmlns="http://www.w3.org/2000/svg"
xmlns:xlink="http://www.w3.org/1999/xlink"


xml:space="preserve">
q37.65 -2.05 77.2 -2.25q3.25 -7.05 -1.2 -12.75q-40.1 -4.4 -76.5 5.05q0.2 -25.15 1.9 -50.25q3.95 -59.75 2.35 -118.5q-4.75 13.75 -5.2 30.5q-1.6 59.2 -4.45 118.5q-0.35 7.45 -2.1 14.55q-3.6 14.35 4 22.15q2.35 -3.3 3.55 -6.25q-19.65 7.65 -29 26.3q-8.35 16.7 -13 34.8q-4.75 18.6 -6.55 37.9q-2.05 21.5 2.05 42.6q3.95 20.3 16 37.25q13.65 19.35 36.2 10.75q18.45 -7 33.55 -19.65q-1.45 5.5 -1.25 11.45q0.15 4.25 2.1 8.1q7.25 -20.8 8.25 -48q0.35 -9 -0.5 -18.05q-5.15 1 -9.4 3.95q-11.9 17.35 -30.85 26.75q-5.05 2.55 -10.45 3.5q-9.45 -0.2 -14.1 -8.25q-17.75 -30.85 -15.9 -66.55q2.35 -46.35 34.2 -79.05q14.15 -14.55 32.6 -4.45q9.3 5.15 18.35 7.3q-1.6 -15.75 -18.2 -22.3q-3.85 -1.55 -7.9 -2.55q-6.8 -1.4 -13.55 -0.75q-21.8 7 -31.05 29.1q-6.5 15.45 -8.95 32.15q-4.75 32.75 20 50.45q11.95 2 23.8 -0.75q26.2 -6.05 22.7 -27.75q-19.3 16.3 -45.5 15q-19.15 -11.55 -15.3 -35.35q21.85 -6.25 46.55 -6.8q0.9 -1.4 1.2 -2.95q0.7 -4 -1.2 -7.55q-14.5 3.35 -30.9 4.2q-4.25 0.2 -7.25 1.05q3.85 -9.15 10 -17.3q19.1 -25.3 43.65 -7.45q1.95 -1.65 -0.05 -5q-1.2 -1.95 -1.95 -4.2q-8.25 -9.65 -21.45 -9.85<g id="2836" transform="matrix(1, 0, 0, 1, -136.4, 0)">
<path style="fill:#000000;fill-opacity:1" d="M340.45,368.95Q332.85 361.15 336.45 346.8Q338.2 339.7 338.55 332.25Q341.4 272.95 343 213.75Q343.45 197 348.2 183.25Q349.8 242 345.85 301.75Q344.15 326.85 343.95 352Q380.35 342.55 420.45 346.95Q424.9 352.65 421.65 359.7L421.2 360.45Q381.65 360.65 344 362.7Q342.8 365.65 340.45 368.95M189.8,177.2Q196.55 176.55 203.35 177.95Q207.4 178.95 211.25 180.5Q227.85 187.05 229.45 202.8Q220.4 200.65 211.1 195.5Q192.65 185.4 178.5 199.95Q146.65 232.65 144.3 279Q142.45 314.7 160.2 345.55Q164.85 353.6 174.3 353.8L188.6 353.25Q194 352.3 199.05 349.75Q218 340.35 229.9 323L231.2 307.95L210.85 307.7L210.7 300.2Q214.95 297.25 220.1 296.25L235.95 295.7L236.85 304.4Q237.7 313.45 237.35 322.45Q236.35 349.65 229.1 370.45L227.1 367Q225.15 363.15 225 358.9Q224.8 352.95 226.25 347.45Q211.15 360.1 192.7 367.1Q170.15 375.7 156.5 356.35Q144.45 339.4 140.5 319.1Q136.4 298 138.45 276.5Q140.25 257.2 145 238.6Q149.65 220.5 158 203.8Q167.35 185.15 187 177.5L189.8 177.2M313.4,268.1L314.45 269Q315.2 271.25 316.4 273.2Q318.4 276.55 316.45 278.2Q291.9 260.35 272.8 285.65Q266.65 293.8 262.8 302.95Q265.8 302.1 270.05 301.9Q286.45 301.05 300.95 297.7L304.4 298.25L305.2 298.7Q307.1 302.25 306.4 306.25Q306.1 307.8 305.2 309.2Q280.5 309.75 258.65 316L257.65 321.1Q253.8 344.9 272.95 356.45Q299.15 357.75 318.45 341.45Q321.95 363.15 295.75 369.2Q283.9 371.95 271.95 369.95Q247.2 352.25 251.95 319.5Q254.4 302.8 260.9 287.35Q270.15 265.25 291.95 258.25Q305.15 258.45 313.4 268.1" />
</g>
</svg>
