<?xml version="1.0" encoding="utf-8"?>
<svg version="1.1" id="Layer_1"
xmlns="http://www.w3.org/2000/svg"
xmlns:xlink="http://www.w3.org/1999/xlink"


xml:space="preserve">
q-5 1.45 -9.65 4.85q-4.7 3.4 -7.6 8.15q-26.45 43.05 -16.6 94.5q11.05 57.7 26.75 114.55q12.05 43.7 0.35 87.05q-3.15 11.6 -10.7 20.65q-42.55 50.65 -110.55 43.2q-0.85 -0.75 -1.85 -0.9q-1.55 2.8 -1.45 6q0.1 3.7 2.95 6q42.25 5.8 80.55 -13.65q49.25 -25.1 52.55 -80.6q2.4 -40.2 -7.05 -79.6q-8.65 -36.25 -18.95 -72.25q-14.05 -48.85 -3.3 -97.8q6.5 -29.65 35.7 -30.3q1.4 2.35 3.3 4.2q1.85 1.85 3.2 4.05q0.65 -2.9 0.3 -5.95q-0.9 -8.15 -6.3 -14.3q-0.75 -0.4 -1.55 -0.65q-4.1 -1.5 -8.45 -1.85q-3.25 8.3 -4.05 18.35q-4.35 59.25 -7.9 118.5q-2 33.4 -8.05 65.4q-3.15 16.85 3.8 28.3q1.15 -0.85 1.3 -2.25q6.6 -58.95 10.2 -118.45q3.6 -59.2 8 -118.45q1 24.8 3.85 49.95q6.7 58.65 18.9 116.45q12.2 57.8 16.5 116.8q1.2 16.3 7.8 28.4q0.65 -0.75 0.65 -1.5q0.45 -9.5 0.25 -19.05q1 5.35 3.1 10.05q3.15 -17.05 4.15 -35.2q3.35 -59.35 7.4 -118.4q4.05 -59.5 2.95 -118.45q-3.8 5.85 -4.1 14.2q-2.8 59.55 -9.6 118.45q-0.7 -8.55 -1.9 -17.15q-8.1 -58.35 -20 -116.05q-6.05 -29.25 -9.6 -58.75q-6.4 -52.8 -14.05 -104.6q-1.45 2.55 -2.6 5.25q-7.85 -28.95 -41.05 -26.95q-5.2 1.6 -10.6 4.1q-39.2 17.85 -53 59.45q-11.25 33.85 -16.2 68.8q-0.95 3.45 0.3 6.75q-2.35 19.35 -2.8 39q-1 48.8 37.3 78.7q4.9 3.8 10.55 5.7q39.5 13.55 74.5 -11.4q17.4 -12.35 8.35 -27.5q-1.25 0.6 -1.5 2q-20.8 24.05 -55 25.25q-7.25 0.25 -13.85 -1.8q-47.7 -15.1 -54.45 -64.15q-2.95 -21.5 -0.4 -42.95q37.45 -0.15 75.35 -4.75q4.2 -7.8 -1.9 -12.2q-36.2 3.5 -72.4 8.6q7.55 -43.65 28.1 -83.15q11.95 -23.05 36.45 -32.25q35.35 -13.3 52.35 14.05q1.45 -0.25 0.55 -3.55q-1.4 46.5 -4.6 92.95q-4.05 59.3 -9 118.5q-4.95 59.35 -7.95 117.75q40.55 4.1 79.6 -0.5q2.3 -6.2 -0.55 -12.05q-44.05 3.2 -85.75 -2.25q4.65 -43.3 7.6 -86.95q4 -59.25 8.8 -118.45q4.85 -59.5 3.35 -117.8q-3 3.2 -3.2 9q-49.65 36.05 -60.65 100.35q-13.5 78.75 -4.3 158.2q2.25 19.65 11 37.4q6.05 12.25 14.25 23.1q5.55 7.35 13.4 12.05q2.95 1.8 6.25 2.7q4.35 0.1 8.4 -1.3q16.95 -6 30.5 -18.65q-1.85 19.95 4.05 38.95q7.65 -47.2 5.2 -94.75q-28.5 40.4 -62.25 15.3q-7.65 -5.6 -12.45 -14.5q-18.65 -34.6 -18.95 -74q-0.45 -53.9 7.85 -107.1q3.5 -22.45 11.75 -43.5q6.55 -16.7 17.2 -31.2q5.3 -7.3 11.4 -14.05q4.75 -5.25 10.4 -9.2q3.6 -2.5 8.25 -1.5q13.7 2.9 23.75 12.9q8.65 8.75 11.6 20.65q2.25 -23.15 -16.05 -37q-9.9 -7.55 -22.2 -10<g id="2829" transform="matrix(1, 0, 0, 1, -34.8, 0)">
<path style="fill:#000000;fill-opacity:1" d="M516.4,103.35Q517.2 103.6 517.95 104Q523.35 110.15 524.25 118.3Q524.6 121.35 523.95 124.25L523.65 123.45L523.45 121.25L523.45 119.75Q522.1 117.55 520.25 115.7Q518.35 113.85 516.95 111.5Q487.75 112.15 481.25 141.8Q470.5 190.75 484.55 239.6Q494.85 275.6 503.5 311.85Q512.95 351.25 510.55 391.45Q507.25 446.95 458 472.05Q419.7 491.5 377.45 485.7Q374.6 483.4 374.5 479.7Q374.4 476.5 375.95 473.7L378.1 473.55Q379.1 473.7 379.95 474.45Q447.95 481.9 490.5 431.25Q498.05 422.2 501.2 410.6Q512.9 367.25 500.85 323.55Q485.15 266.7 474.1 209Q464.25 157.55 490.7 114.5Q493.6 109.75 498.3 106.35Q502.95 102.95 507.95 101.5Q512.3 101.85 516.4 103.35M368.2,98.25L368.6 100.75Q369.75 98.05 371.2 95.5L370.05 110.45Q377.7 162.25 384.1 215.05Q387.65 244.55 393.7 273.8Q405.6 331.5 413.7 389.85Q414.9 398.45 415.6 407L415.9 403.45Q422.7 344.55 425.5 285L431.1 166.4L433.1 116.95Q433.4 108.6 437.2 102.75Q438.3 161.7 434.25 221.2Q430.2 280.25 426.85 339.6L423.6 397.5Q422.6 415.65 419.45 432.7Q417.35 428 416.35 422.65Q416.55 432.2 416.1 441.7Q416.1 442.45 415.45 443.2Q408.85 431.1 407.65 414.8Q403.35 355.8 391.15 298Q378.95 240.2 372.25 181.55Q369.4 156.4 368.4 131.6L362.2 212.55Q357.8 271.8 354.2 331Q350.6 390.5 344 449.45Q343.85 450.85 342.7 451.7Q335.75 440.25 338.9 423.4Q344.95 391.4 346.95 358Q350.5 298.75 354.85 239.5L363.8 120.95Q364.6 110.9 367.85 102.6L367.85 98.25L368.2 98.25M324.45,146.75Q307.45 119.4 272.1 132.7Q247.6 141.9 235.65 164.95Q215.1 204.45 207.55 248.1Q243.75 243 279.95 239.5Q286.05 243.9 281.85 251.7L281.45 252.25Q243.55 256.85 206.1 257L205.25 263.55Q202.7 285 205.65 306.5Q212.4 355.55 260.1 370.65Q266.7 372.7 273.95 372.45Q308.15 371.25 328.95 347.2L329.15 346.45L329.25 345L329.45 343.5Q329.7 342.1 330.95 341.5Q340 356.65 322.6 369Q287.6 393.95 248.1 380.4Q242.45 378.5 237.55 374.7Q199.25 344.8 200.25 296Q200.7 276.35 203.05 257L202.7 257Q201.45 253.7 202.4 250.25L202.95 248.75L204.15 248.6Q209.1 213.65 220.35 179.8Q234.15 138.2 273.35 120.35Q278.75 117.85 283.95 116.25Q317.15 114.25 325 143.2Q325.9 146.5 324.45 146.75M187.2,89.5Q188.7 147.8 183.85 207.3Q179.05 266.5 175.05 325.75Q172.1 369.4 167.45 412.7Q209.15 418.15 253.2 414.95Q256.05 420.8 253.75 427L253.45 427.7Q214.4 432.3 173.85 428.2L164.7 427.9L162.45 427.7Q165.45 369.3 170.4 309.95Q175.35 250.75 179.4 191.45Q182.6 145 184 98.5Q184.2 92.7 187.2 89.5M131.15,97.25Q149.45 111.1 147.2 134.25Q144.25 122.35 135.6 113.6Q125.55 103.6 111.85 100.7Q107.2 99.7 103.6 102.2Q97.95 106.15 93.2 111.4Q87.1 118.15 81.8 125.45Q71.15 139.95 64.6 156.65Q56.35 177.7 52.85 200.15Q44.55 253.35 45 307.25Q45.3 346.65 63.95 381.25Q68.75 390.15 76.4 395.75Q110.15 420.85 138.65 380.45L141.7 356.2L105.7 352.2L106.95 344.2L144.65 345.45Q147.1 393 139.45 440.2Q133.55 421.2 135.4 401.25L134.35 402.15Q120.8 414.8 103.85 420.8Q99.8 422.2 95.45 422.1L88.9 421.05Q85.6 420.15 82.65 418.35Q74.8 413.65 69.25 406.3Q61.05 395.45 55 383.2Q46.25 365.45 44 345.8Q34.8 266.35 48.3 187.6Q59.3 123.3 108.95 87.25Q121.25 89.7 131.15 97.25" />
</g>
</svg>
