<?xml version="1.0" encoding="utf-8"?>
<svg version="1.1" id="Layer_1"
xmlns="http://www.w3.org/2000/svg"
xmlns:xlink="http://www.w3.org/1999/xlink"


xml:space="preserve">
q-3.2 1.45 -6.85 -1.6q-16.6 16.95 -16.5 41.75q0.05 6.5 4.5 11q10.8 -1.2 17.25 -10.75q4.15 12.6 -9.05 19.4q-1.85 0.95 -3.45 2.35q-13 -18.65 -7.25 -42.45q4.15 -17.25 16.75 -28.75q12.25 0.75 12.4 12.75q-9.2 -31.35 -40.05 -16.5q-10.5 5.05 -17.1 15.4q-16.25 25.65 -20.8 56.3q-4.35 29.05 -2.15 58.4q1.4 18.35 5.5 36.25q1.35 5.9 5.65 10.35q12.25 12.4 28.95 9.85q17.4 -2.4 26.15 -18.15q-2.5 11.65 2.85 22.3q10.4 -26.8 7.7 -56.05q-0.35 -3.7 -2.2 -7.2q-12.45 29.35 -42.25 26.2q-15.25 -1.3 -20.45 -17.2q-6.8 -20.8 -4.45 -43q1.85 -17.65 5.2 -35.1q3.8 -19.5 11.2 -38.4q5.1 -13 17.05 -20.1q13.7 -8.2 29.7 -5.15q0.45 0.25 0.8 0.65q0.85 1.8 0.85 3.75q0 1.65 -0.85 3q-8 6.15 -17.25 2.75q-1 -2.55 -0.75 -5.25q0.15 -1.65 1 -3q5.4 -2.75 11 -3.5q2.8 0.15 5.2 1.6q-18.9 10.25 -28.95 30.35q-9.55 19.05 -11.9 40.2q-2.1 19.2 -3.7 38.25q-1.7 20.45 1.85 40.65q3.75 21.45 17.7 37.9q9.9 11.75 25.8 6.45q12.9 -4.4 21.75 -14.85q8.65 -24.5 9.95 -50.6q0.5 -9.85 -3.7 -18.6q-13.5 -1.45 -24.7 6q-0.9 25.35 -24.55 35.85q-9.15 4 -19.15 4.9q-17.95 -16.3 -20.2 -42.2q-2.05 -23.45 -0.95 -47.2q0.65 -14.8 4.1 -29.35q3.5 -14.75 11.2 -27.9q8.15 -13.9 22.75 -17.7q15.55 -4.2 30.25 4.65q2.65 1.6 4.65 1.9q-4.9 -17.65 -22.4 -22.8q-5.9 -1.8 -12.15 -1.85q-2.65 1.35 -3.45 4.85q-13.7 57.25 -25.75 114.85q-3.05 14.65 -8.1 28.7q-8.2 22.85 -6.3 44q7.1 -7.85 9.7 -19.4q4.15 -7.8 -1.95 -12.2q-16 -1.45 -28.05 4.75q3 -14.6 7.55 -28.75q0.65 4.15 1.85 8.45q9 31.95 13.05 65.05q3.8 30.95 17.85 56.05q1.25 -0.8 1.45 -2.3q1.65 -12.2 -2.85 -24.4q-7.6 -20.55 -12.4 -41.85q-12.85 -57.05 -24.95 -114.4q0.9 -1.15 0.3 -2.35q-0.8 -2.7 -2.5 -4.85<g id="2852" transform="matrix(1, 0, 0, 1, -134.75, 0)">
<path style="fill:#000000;fill-opacity:1" d="M340.35,193.75L340.2 194.5Q337 195.95 333.35 192.9L330.95 191.25L327.7 191.5Q311.1 208.45 311.2 233.25Q311.25 239.75 315.7 244.25Q326.5 243.05 332.95 233.5Q337.1 246.1 323.9 252.9Q322.05 253.85 320.45 255.25L318 255.3L315.45 255Q302.45 236.35 308.2 212.55Q312.35 195.3 324.95 183.8L327.95 181Q340.2 181.75 340.35 193.75M374,196.15Q362.05 203.25 356.95 216.25Q349.55 235.15 345.75 254.65Q342.4 272.1 340.55 289.75Q338.2 311.95 345 332.75Q350.2 348.65 365.45 349.95Q395.25 353.1 407.7 323.75L390.7 320.45L391.2 312.95L410.95 309.95Q412.8 313.45 413.15 317.15Q415.85 346.4 405.45 373.2Q400.1 362.55 402.6 350.9Q393.85 366.65 376.45 369.05Q359.75 371.6 347.5 359.2Q343.2 354.75 341.85 348.85Q337.75 330.95 336.35 312.6Q334.15 283.25 338.5 254.2Q343.05 223.55 359.3 197.9Q365.9 187.55 376.4 182.5Q407.25 167.65 416.45 199L403.7 191Q387.7 187.95 374 196.15M330.15,214.85Q330.6 215.1 330.95 215.5Q331.8 217.3 331.8 219.25Q331.8 220.9 330.95 222.25Q322.95 228.4 313.7 225Q312.7 222.45 312.95 219.75Q313.1 218.1 313.95 216.75Q319.35 214 324.95 213.25Q327.75 213.4 330.15 214.85M193.15,179.1Q210.65 184.25 215.55 201.9Q213.55 201.6 210.9 200Q196.2 191.15 180.65 195.35Q166.05 199.15 157.9 213.05Q150.2 226.2 146.7 240.95Q143.25 255.5 142.6 270.3Q141.5 294.05 143.55 317.5Q145.8 343.4 163.75 359.7Q173.75 358.8 182.9 354.8Q206.55 344.3 207.45 318.95L186.5 319.45L185.25 311.95Q196.45 304.5 209.95 305.95Q214.15 314.7 213.65 324.55Q212.35 350.65 203.7 375.15L203.55 356.2Q194.7 366.65 181.8 371.05Q165.9 376.35 156 364.6Q142.05 348.15 138.3 326.7Q134.75 306.5 136.45 286.05Q138.05 267 140.15 247.8Q142.5 226.65 152.05 207.6Q162.1 187.5 181 177.25Q187.25 177.3 193.15 179.1M279.45,178.5L279.5 178.65Q281.2 180.8 282 183.5L282.2 184.25Q282.8 185.45 281.9 186.6L281.7 187.25Q293.8 244.6 306.65 301.65Q311.45 322.95 319.05 343.5Q323.55 355.7 321.9 367.9Q321.7 369.4 320.45 370.2Q306.4 345.1 302.6 314.15Q298.55 281.05 289.55 249.1L279.3 212.45Q278.1 208.15 277.45 204L276.2 208.15Q271.65 222.3 268.65 236.9L261 274.05Q273.05 267.85 289.05 269.3L291.95 269.5Q298.05 273.9 293.9 281.7L293.45 282.2L258.9 283.9L244.15 352.05Q241.55 363.6 234.45 371.45Q232.55 350.3 240.75 327.45Q245.8 313.4 248.85 298.75Q260.9 241.15 274.6 183.9Q275.4 180.4 278.05 179.05L278.45 177.5L279.4 178.55L279.45 178.5M307.75,260.55L308.25 261.1L307.95 261L307.75 260.55" />
</g>
</svg>
