<?xml version="1.0" encoding="utf-8"?>
<svg version="1.1" id="Layer_1"
xmlns="http://www.w3.org/2000/svg"
xmlns:xlink="http://www.w3.org/1999/xlink"


xml:space="preserve">
q-2.3 42.45 -4 85.3q-13.1 3.25 -26.5 5.9q0.4 -34.2 0.1 -67.95q-6.65 22.2 -7.15 48.5q0.3 1.75 2 2q5.55 -23.5 6.3 -50.5q13.15 2.25 26.1 -1.15q-1.1 30.1 -4.7 59.8q-2.05 16.9 3.95 29.45q5 -35.1 6.8 -71.95q0.1 -1.65 -0.25 -3.15q0.9 -44.85 -2.1 -89.1q-41.4 -4 -81.5 7.25q-9.4 88 -4.55 176.4q0.05 1.1 0.95 1.8q7.3 -58.1 6 -121.6q-0.55 -28.35 -0.05 -56.65q2.4 -4.55 -0.1 -9.1q-10.75 -32.6 -40.75 -16.25q-17.75 9.7 -23.4 29.6q-10.8 38.1 -10.35 77.8q0.2 18.4 4.3 36.45q2.5 11.1 9.45 20.15q9.9 12.8 25.3 11.4q17.9 -1.4 28.6 -16.5q5.45 -5.4 4.5 -13q-0.35 -2.85 -1.5 -5.25q4.75 -23.85 2 -48q-13.2 -1.45 -24.7 5.25q-1.45 22.85 -21.65 30.55q-19.6 7.5 -29.4 -9.65q-8.65 -15.2 -11.15 -32.35q-2 -13.55 -1.05 -27.3q1.95 -28.55 9.6 -55.9q5.45 -19.35 23.2 -27.8q10 -4.85 21.05 -3.45q-0.4 -3.55 -1.7 -6.65q-13.9 42.25 -24 87.1q-6.6 29.1 -15.35 57.45q-6.75 21.8 -9.9 43.15q0.65 1.65 2.25 2q16.9 -44.5 28.15 -92.25q2 14.65 3.65 29.45q1.55 13.6 9.5 20.05q0.9 -22.9 -5.05 -46.1q-3.45 -13.35 -5.8 -27.15q-9.95 -58.15 -17.9 -116.45q-1.1 2.35 -1.8 4.9<g id="2843" transform="matrix(1, 0, 0, 1, -143.5, 0)">
<path style="fill:#000000;fill-opacity:1" d="M427.2,181.5Q430.2 225.75 429.3 270.6Q429.65 272.1 429.55 273.75L429.15 276L428.25 300Q426.45 336.85 421.45 371.95Q415.45 359.4 417.5 342.5Q421.1 312.8 422.2 282.7L422.3 280.05Q409.35 283.45 396.2 281.2L395.25 323.2Q394.5 350.2 388.95 373.7Q387.25 373.45 386.95 371.7L389.3 253.25Q389.8 226.95 396.45 204.75Q396.75 238.5 396.35 272.7Q409.75 270.05 422.85 266.8Q424.55 223.95 426.85 181.5L427.2 181.5M406.3,191.65L364.1 194.5Q363.6 222.8 364.15 251.15Q365.45 314.65 358.15 372.75Q357.25 372.05 357.2 370.95Q352.35 282.55 361.75 194.55L323.7 195.25L323.95 188.5Q364.05 177.25 405.45 181.25L406.2 182.55Q408.7 187.1 406.3 191.65M180.9,195.95Q163.15 204.4 157.7 223.75Q150.05 251.1 148.1 279.65Q147.15 293.4 149.15 306.95Q151.65 324.1 160.3 339.3Q170.1 356.45 189.7 348.95Q209.9 341.25 211.35 318.4L193.95 315.55L193.75 310.7Q205.25 304 218.45 305.45Q221.2 329.6 216.45 353.45Q217.6 355.85 217.95 358.7Q218.9 366.3 213.45 371.7L211.6 346.9Q200.9 362 183 363.4Q167.6 364.8 157.7 352Q150.75 342.95 148.25 331.85Q144.15 313.8 143.95 295.4Q143.5 255.7 154.3 217.6Q159.95 197.7 177.7 188Q207.7 171.65 218.45 204.25L215.6 204.35L206.8 195.9L201.95 192.5Q190.9 191.1 180.9 195.95M295.45,182.5Q303.4 240.8 313.35 298.95Q315.7 312.75 319.15 326.1Q325.1 349.3 324.2 372.2Q316.25 365.75 314.7 352.15Q313.05 337.35 311.05 322.7L304.4 276.45L273.1 278.2Q261.85 325.95 244.95 370.45Q243.35 370.1 242.7 368.45Q245.85 347.1 252.6 325.3Q261.35 296.95 267.95 267.85Q278.05 223 291.95 180.75Q293.25 183.85 293.65 187.4Q294.35 184.85 295.45 182.5M292.3,200.45L275.4 268.15L302.65 265.3L292.3 200.45M212.1,318L213.95 321.85L214.45 318.45L212.1 318" />
</g>
</svg>
