<?xml version="1.0" encoding="utf-8"?>
<svg version="1.1" id="Layer_1"
xmlns="http://www.w3.org/2000/svg"
xmlns:xlink="http://www.w3.org/1999/xlink"


xml:space="preserve">
q-13.3 54.35 -14.1 111.35q-0.85 56.55 2 112.5q1.5 30.45 19.9 53.2q10.95 1.2 21 -3.55q11.75 -5.5 20.75 -15q16.1 -16.95 10.5 -36.45q-0.55 0.2 -1.05 0.55q-12.55 34.55 -48.25 37.75q-8.8 -9.65 -10.8 -22.9q-8.55 -57.3 -6.55 -116.45q19.6 1.5 39.6 -2.35q3.6 -6.65 -0.65 -12.65q-20.1 1.35 -39.25 5.65q0.6 -18.55 0.55 -36.9q-0.1 -43.05 17.7 -81.4q11.6 -25.05 38.25 -23.6q4.2 2.05 7.8 5.15q4.35 3.7 9.45 4.6q1.05 -4.95 -2.9 -9.6q-4.4 -5.15 -9.6 -9.65q-1.1 -0.25 -2.05 -0.85q-6.8 -4.2 -15.45 -2.65q-15.35 6.3 -24.95 20.2q-7.5 10.8 -10.6 23.45q-7.65 -21 -28.4 -28.3q-7.55 86.6 -10.95 174.6q-2.35 61.65 -8.5 123q-1.35 13.4 5.45 24.85q13.05 -5.6 23.5 -15.15q6.35 -5.85 11.2 -12.9q11.25 -15.2 17.6 -32.8q7.25 -20.25 6.55 -41.8q-0.65 -21.05 -7.85 -41q-4.75 -4.3 -10.8 -6.4q-7.3 43.9 -7 88.35q0 2.55 0.45 5.15q10.7 -42.15 12.6 -85.95q0.1 44.15 17.25 82.55q-3.7 -42.35 -16.95 -82.65q16.35 -9.95 19.6 -29.75q1.9 -11.65 -2 -22.7q-1.95 -5.65 -6.4 -9.65q-4.1 12.05 -15.9 17q22.3 6.25 13.3 32.55q-2.5 -30.9 -37.1 -29.25q-24.2 8.2 -35.35 32.3q-25.05 54.2 -30.5 113.15q-2.7 29.4 -3.85 59.2q-1.95 51.75 18.8 98.05q9.35 20.8 32.05 18.7q15.8 -1.45 27.95 -12.45q3.55 -3.2 6 -6.45q-2.55 11.05 3 17.05q2.75 -13.6 4.85 -27.7q2.1 -13.85 5.2 -27.45q4.65 -20.55 -5.55 -36.3q-0.2 1.5 0.25 2.95q14.5 -0.05 29.25 -0.75q-0.15 17.5 -2.5 35.05q-6.45 16.75 -22.75 26.25q-25.3 14.75 -41.15 -9.6q-14.65 -22.5 -16.9 -49.25q-5.05 -59.25 3.95 -117.9q6.85 -44.75 26.15 -86.2q9.85 -21.1 31.4 -28q14.95 -4.8 26.1 4.9q8.7 7.55 11.95 11.85q-3 7 -4.1 16.4q-6.95 58.6 -20.25 116.25q-13.25 57.55 -24.4 115.55q-5.6 29.3 -13.35 58.1q-4.35 16.15 0.85 29.4q5.35 -7.15 7.05 -16.7q10.45 -58.35 22.15 -116.4q17.35 1.95 34.65 5.1q4.5 58.65 4.85 117.65q0.05 13.4 5.6 21.5q2.5 -49.1 -1.1 -99.7q-4.2 -59 -9.55 -117.8q4.6 43.75 8.3 87.55q-8.8 -2.9 -17.85 -4.65q-7.55 -0.05 -14.35 2.3q7.1 -34.5 14.45 -69q5.5 -25.65 7.35 -51.2q0.25 17.3 2.1 35q3.3 -54.55 3.65 -107.85q34.85 5.7 43.35 42q13.65 58.15 -29.25 98.85q-4.45 4.25 -10.05 6.2q-6.95 2.4 -10.45 6<g id="2839" transform="matrix(1, 0, 0, 1, -54.3, 0)">
<path style="fill:#000000;fill-opacity:1" d="M381,128.2Q390.6 114.3 405.95 108Q414.6 106.45 421.4 110.65Q422.35 111.25 423.45 111.5Q428.65 116 433.05 121.15Q437 125.8 435.95 130.75Q430.85 129.85 426.5 126.15Q422.9 123.05 418.7 121Q392.05 119.55 380.45 144.6Q362.65 182.95 362.75 226Q362.8 244.35 362.2 262.9Q381.35 258.6 401.45 257.25Q405.7 263.25 402.1 269.9L401.45 270.75Q381.45 274.6 361.85 273.1Q359.85 332.25 368.4 389.55Q370.4 402.8 379.2 412.45Q414.9 409.25 427.45 374.7Q427.95 374.35 428.5 374.15L430.45 373.7Q436.05 393.2 419.95 410.15Q410.95 419.65 399.2 425.15Q389.15 429.9 378.2 428.7Q359.8 405.95 358.3 375.5Q355.45 319.55 356.3 263Q357.1 206 370.4 151.65Q373.5 139 381 128.2M357.75,176.75Q358.45 198.3 351.2 218.55Q344.85 236.15 333.6 251.35Q328.75 258.4 322.4 264.25Q311.95 273.8 298.9 279.4L289.7 431.95Q282.9 420.5 284.25 407.1Q290.4 345.75 292.75 284.1Q296.15 196.1 303.7 109.5L303.9 103.05L304.2 103L305.75 102.7L306.2 102L321.5 107.45Q342.25 114.75 349.9 135.75Q357.1 155.7 357.75 176.75M201.15,113.55Q205.05 124.6 203.15 136.25Q199.9 156.05 183.55 166Q196.8 206.3 200.5 248.65Q183.35 210.25 183.25 166.1L179.55 167.3Q177.65 211.1 166.95 253.25Q166.5 250.65 166.5 248.1Q166.2 203.65 173.5 159.75L174.6 158.75L181.05 108.25L178.45 108.75L178.95 100.5L183.95 97.5Q190 99.6 194.75 103.9Q199.2 107.9 201.15 113.55M183,106.85L180.4 156.4Q192.2 151.45 196.3 139.4Q205.3 113.1 183 106.85M162.95,124.25Q159.7 119.95 151 112.4Q139.85 102.7 124.9 107.5Q103.35 114.4 93.5 135.5Q74.2 176.95 67.35 221.7Q58.35 280.35 63.4 339.6Q65.65 366.35 80.3 388.85Q96.15 413.2 121.45 398.45Q137.75 388.95 144.2 372.2L144.95 374.05Q147.3 356.5 147.45 339Q132.7 339.7 118.2 339.75L118 338.95Q117.55 337.5 117.75 336L117.95 334.5L137.95 328L147.2 328.25Q157.4 344 152.75 364.55Q149.65 378.15 147.55 392Q145.45 406.1 142.7 419.7Q137.15 413.7 139.7 402.65L141.05 396.75Q138.6 400 135.05 403.2Q122.9 414.2 107.1 415.65Q84.4 417.75 75.05 396.95Q54.3 350.65 56.25 298.9Q57.4 269.1 60.1 239.7Q65.55 180.75 90.6 126.55Q101.75 102.45 125.95 94.25Q160.55 92.6 163.05 123.5L162.95 124.25M247.3,108.55L248.2 98L259.05 215.7Q264.4 274.5 268.6 333.5Q272.2 384.1 269.7 433.2Q264.15 425.1 264.1 411.7Q263.75 352.7 259.25 294.05L257.65 273.75Q240.35 270.6 223 268.65L215.15 307.35Q203.45 365.4 193 423.75Q191.3 433.3 185.95 440.45Q180.75 427.2 185.1 411.05Q192.85 382.25 198.45 352.95Q209.6 294.95 222.85 237.4Q236.15 179.75 243.1 121.15Q244.2 111.75 247.2 104.75L247.3 108.55M246.4,140.6Q244.55 166.15 239.05 191.8Q231.7 226.3 224.6 260.8Q231.4 258.45 238.95 258.5Q248 260.25 256.8 263.15Q253.1 219.35 248.5 175.6Q246.65 157.9 246.4 140.6M310.2,258.95Q315.8 257 320.25 252.75Q363.15 212.05 349.5 153.9Q341 117.6 306.15 111.9Q305.8 165.2 302.5 219.75L299.75 264.95Q303.25 261.35 310.2 258.95" />
</g>
</svg>
