<?xml version="1.0" encoding="utf-8"?>
<svg version="1.1" id="Layer_1"
xmlns="http://www.w3.org/2000/svg"
xmlns:xlink="http://www.w3.org/1999/xlink"


xml:space="preserve">
q19.35 56.3 8.95 115.7q-7.7 44 -46.9 57.3q1.25 -38.5 3.15 -76.95q2.6 -54.15 1.6 -107.3q13.6 -5.15 27.75 2.55q3.75 3.75 5.45 8.7q-0.65 59.2 -2.4 118.5q-0.45 15.2 -3.15 29.8q-3.2 17.3 3.25 29.2q5.6 -37.75 6.05 -77.25q-5.3 6.9 -5.45 18.25q-3.15 2.7 -3.5 7.65q-2 29.75 -2.7 60.1q-1.45 59.55 -4.5 119.2q-1.45 -1.4 -3.2 -1.2q-0.55 0.05 -1.05 0.45q-3.4 11.65 4.05 12.75q-1.9 47.75 -1.35 95.95q0.15 15.1 -2.05 29.8q-2.65 17.45 3.6 29.2q2.65 -3.65 2.75 -8.25q7.65 -2.2 14.15 -6.15q20.35 53.3 32.75 109.4q6.4 29 13.3 57.7q3.85 15.9 11.75 27.6q1.85 -0.8 1.8 -2.75q-0.15 -19.15 -6.5 -38.4q-11 -33.7 -18.6 -68.45q-10.05 -45.95 -30.05 -88.15q5.2 -3.9 9.55 -9.1q13.55 -16.2 18.2 -36.9q13.2 -58.45 2.8 -117.65q-5.7 -32.6 -37.2 -35.55q-5.45 -0.15 -8.65 2.75q-6.35 -32.6 -12.4 -65.25q-10.75 -58.25 -17.7 -116.5q-2.85 22.45 1.3 47.3q9.7 58.15 20.5 116.15q-24.35 -2.55 -48.4 -7.25q-2.45 0.6 -4.75 1.55q11.8 -57.85 21.95 -116.05q2.55 -14.65 7.2 -28.75q5.15 -15.4 3.2 -29.65q-9.9 18.95 -13.7 42.6q-9.2 57.6 -20.65 114.8q-11.75 58.75 -30.45 115.7q-7.5 22.8 -5.2 44.1q7.75 -11.7 11.6 -27.35q12.9 -52.1 23.85 -104.6q31.4 2.65 62.8 6.25q5.45 29.35 9.25 58.85q1.75 13.65 9.35 20q2.6 -4.45 1.55 -9.65q0.5 -1.9 0.1 -3.8q3.95 25.1 24.35 36.25q11 6 23.45 2.8q6.4 -1.5 12.2 -4.65q9.25 -5.1 15.25 -13.6q7.85 -11.15 4.5 -24.6q-9.8 20.65 -31.6 27.75q-15.9 5.1 -26.9 -7.3q-27.65 -31.1 -20.35 -77q29.2 -1.4 57.6 -8.9q1.25 -2.15 1.65 -4.55q0.65 -3.85 -1.95 -6.6q-4.8 -21.05 8.65 -39.95q12.6 -17.85 33.9 -20.6q12.35 -1.6 23.45 4.05q0.9 -16.5 -15.4 -16.45q-19.6 0.05 -35.4 12q-21.15 15.9 -21.7 42.85q-0.9 44.45 6 88.1q-1 50.4 -0.85 101.25q0.2 59.8 -2.2 119.2q-2.35 59.85 -4.05 118.5q40.3 -3.95 79 5.5q4.85 -7.3 -0.25 -14.25q-37.5 -9.05 -73.75 -7.5q4.4 -48.1 5.35 -96.7q1.1 -59.5 1.3 -119.25q0.25 -59.9 -1.15 -118.5q-3.25 4.5 -3.4 11.75q34.15 -8.5 43.85 23.6q2.7 -2.05 2.1 -5.7q-5.7 -34.4 -41.1 -34.55q-27.1 8.05 -45.3 30.55q-21 25.95 -28.5 58.65q-13.45 58.3 -12.5 118.8q0.55 36.6 3.2 72.85q2.25 30.35 22.45 52.9q7.3 8.15 17.6 11.9q27.9 10.2 55.3 -3.9q32.05 -16.5 19.5 -49.05q-0.45 11.35 -6.8 20.9q-9.7 14.6 -27.4 19.7q-36.55 10.6 -59.35 -19q-12.5 -16.15 -14.95 -36.4q-7.25 -58.85 -1.6 -117.9q2.75 -29.15 7.85 -58q7.15 -40.3 36.25 -68.8q12.6 -12.35 29.4 -16.55q2.7 53.35 -0.25 107.15q-0.8 15.1 5 24.55q1.65 -1.9 1.7 -4.5q0.6 -31 1.6 -62.25q1.2 -38.5 -5.55 -74.95q-0.6 -0.4 -1.25 -0.45q-13.05 -1.2 -25.75 1.75q-0.6 1 -0.7 2.25<g id="2851" transform="matrix(1, 0, 0, 1, -35.7, 0)">
<path style="fill:#000000;fill-opacity:1" d="M405.2,66.25Q391.05 58.55 377.45 63.7Q378.45 116.85 375.85 171Q373.95 209.45 372.7 247.95Q411.9 234.65 419.6 190.65Q430 131.25 410.65 74.95Q408.95 70 405.2 66.25M346.45,55.5L344.75 174Q344.3 213.5 338.7 251.25Q332.25 239.35 335.45 222.05Q338.15 207.45 338.6 192.25Q340.35 132.95 341 73.75Q341.15 62.4 346.45 55.5M385.95,52.5Q417.45 55.45 423.15 88.05Q433.55 147.25 420.35 205.7Q415.7 226.4 402.15 242.6Q397.8 247.8 392.6 251.7Q412.6 293.9 422.65 339.85Q430.25 374.6 441.25 408.3Q447.6 427.55 447.75 446.7Q447.8 448.65 445.95 449.45Q438.05 437.75 434.2 421.85Q427.3 393.15 420.9 364.15Q408.5 308.05 388.15 254.75Q381.65 258.7 374 260.9L372.3 261.35L371.5 289.5L368.45 408.7Q368.35 413.3 365.7 416.95Q359.45 405.2 362.1 387.75Q364.3 373.05 364.15 357.95Q363.6 309.75 365.5 262Q358.05 260.9 361.45 249.25Q361.95 248.85 362.5 248.8Q364.25 248.6 365.7 250L366 249.95L366.5 239.45Q369.55 179.8 371 120.25Q371.7 89.9 373.7 60.15Q374.05 55.2 377.2 52.5L377.3 55.25Q380.5 52.35 385.95 52.5M325.15,243.2Q325.55 245.1 325.05 247L324.6 248.45L323.95 250L322.3 249.8L330.4 290.55L353.75 406.55Q354.8 411.75 352.2 416.2Q344.6 409.85 342.85 396.2Q339.05 366.7 333.6 337.35L317.25 249.25Q285.85 245.65 254.45 243L253.9 241.75Q242.95 294.25 230.05 346.35Q226.2 362 218.45 373.7Q216.15 352.4 223.65 329.6Q242.35 272.65 254.1 213.9Q265.55 156.7 274.75 99.1Q278.55 75.45 288.45 56.5Q290.4 70.75 285.25 86.15Q280.6 100.25 278.05 114.9Q267.9 173.1 256.1 230.95L255.3 234.9Q257.6 233.95 260.05 233.35L266.95 231.75Q291 236.45 315.35 239L312 221.2Q301.2 163.2 291.5 105.05Q287.35 80.2 290.2 57.75Q297.15 116 307.9 174.25Q313.95 206.9 320.3 239.5L323.45 239.8L324.2 240.25L325.15 243.2M441.7,298.15Q442.25 271.2 463.4 255.3Q479.2 243.35 498.8 243.3Q515.1 243.25 514.2 259.75Q503.1 254.1 490.75 255.7Q469.45 258.45 456.85 276.3Q443.4 295.2 448.2 316.25L503.95 304L505.9 305.85Q508.5 308.6 507.85 312.45Q507.45 314.85 506.2 317Q477.8 324.5 448.6 325.9Q441.3 371.8 468.95 402.9Q479.95 415.3 495.85 410.2Q517.65 403.1 527.45 382.45Q530.8 395.9 522.95 407.05Q516.95 415.55 507.7 420.65Q501.9 423.8 495.5 425.3Q483.05 428.5 472.05 422.5Q451.65 411.35 447.7 386.25Q440.8 342.6 441.7 298.15M196.2,58.75Q197.6 117.35 197.35 177.25Q197.15 237 196.05 296.5Q195.1 345.1 190.7 393.2Q226.95 391.65 264.45 400.7Q269.55 407.65 264.7 414.95Q226 405.5 185.7 409.45Q187.4 350.8 189.75 290.95Q192.15 231.55 191.95 171.75Q191.8 120.9 192.8 70.5Q192.95 63.25 196.2 58.75M88.7,86.45Q59.6 114.95 52.45 155.25Q47.35 184.1 44.6 213.25Q38.95 272.3 46.2 331.15Q48.65 351.4 61.15 367.55Q83.95 397.15 120.5 386.55Q138.2 381.45 147.9 366.85Q154.25 357.3 154.7 345.95Q167.25 378.5 135.2 395Q107.8 409.1 79.9 398.9Q69.6 395.15 62.3 387Q42.1 364.45 39.85 334.1Q37.2 297.85 36.65 261.25Q35.7 200.75 49.15 142.45Q56.65 109.75 77.65 83.8Q95.85 61.3 122.95 53.25Q158.35 53.4 164.05 87.8Q164.65 91.45 161.95 93.5Q152.25 61.4 118.1 69.9Q101.3 74.1 88.7 86.45M112.75,280.95L112.5 279.45L112.45 278.75L112.5 278Q112.6 276.75 113.2 275.75Q125.9 272.8 138.95 274L161.2 276.3Q161.85 276.35 162.45 276.75Q169.2 313.2 168 351.7Q167 382.95 166.4 413.95Q166.35 416.55 164.7 418.45Q158.9 409 159.7 393.9Q162.65 340.1 159.95 286.75L112.95 281.75L112.75 280.95" />
</g>
</svg>
