<?xml version="1.0" encoding="utf-8"?>
<svg version="1.1" id="Layer_1"
xmlns="http://www.w3.org/2000/svg"
xmlns:xlink="http://www.w3.org/1999/xlink"


xml:space="preserve">
q-0.05 0.75 0.2 1.5q-4.05 41.2 -3.55 83.75q0.5 41.35 0.35 82.55q-2.15 2.9 -2.05 6.75q0.05 3.5 2.1 6.2q-0.6 57.05 -7.9 112.8q-2.15 16.55 2.85 29.95q0.9 -0.6 1 -1.35q7.6 -43.5 7.4 -88.35q-0.1 -25.75 0.1 -51.4q15.1 4.85 28.1 -3.2q5.1 20 10.75 40.55q16.3 58.95 47.65 110.5q1.9 -0.65 2 -2.75q0.95 -18.6 -10.7 -34.7q-4.4 -6.15 -7.1 -13.2q-19.7 -51.35 -39.8 -102.35q38.9 -29.95 39.7 -78.1q0.3 -16.75 -1.9 -33.2q-6.85 -51.1 -52.15 -71.55q-9.15 -1.8 -16.25 2.25q4.3 31.45 -13.1 57.95q-20.15 30.75 -53.6 27.45q0.25 -26.9 0.85 -53.7q1.3 -57.3 -0.05 -113q31.1 0.55 47.45 28.2q14.55 24.65 18.45 53.1q10.2 58.65 21.6 117.15q2.6 13.5 10.5 19.9q1.1 -1.3 0.85 -2.9q-6.65 -42.35 -15.35 -85.05q-11.85 -57.9 -20.85 -116.2q-9.05 -58.4 -18.65 -116.05q-1.8 0.1 -1.7 2.25q-12.9 43.95 -20.05 90.75q-5.9 38.7 -12.3 77.3q-1.2 1.65 -1.25 3.75q0 2.3 0.75 4.5q-5.05 29.3 -13.65 57.7q-6.8 22.45 -6.2 44q1.25 0 1.5 -0.5q10.75 -21.3 14.85 -45.05q24.95 0.05 49.65 -5.05q5.4 -33.7 10.15 -67.45q4.15 -29.55 12.45 -58.1q3.5 -12.1 4.45 -24q1.55 23.35 4.7 46.45q6.5 48.3 14.55 96.4q6.35 0.85 12.15 3.6q10 4.8 10.25 14.65q1.45 -14.2 -10.5 -23.15q-10.25 -7.65 -23.1 -6.85q-19.3 7.85 -32.05 24.6q-12.45 16.35 -17.7 36.2q-4.7 17.9 -7.9 36q-3.75 21.55 -5.75 43.45q-5.65 60.85 11.95 117.95q5 16.15 20.15 22.95q4.5 2 9.35 2q5.3 -0.05 10.25 -1.65q20.65 -6.95 37.25 -21.1q2.3 -2 4.1 -4.3q1.7 -2.1 2.85 -4.6q2.15 -4.55 1.75 -9.75q-23.15 18.1 -50.05 26.7q-14.5 4.65 -25.05 -6.05q-4.75 -4.8 -7.9 -11q-3.65 -7.1 -4.75 -15.1q-6.3 -46.35 -4.2 -92.85q1.9 -2.7 1.65 -6.15q-0.15 -2.2 -1.2 -4.05q-33.25 2.55 -65.4 11.6q1 -66.75 30.8 -124.55q9.3 -18.05 28.45 -24.4q4.5 -1.5 9.05 -0.9q-24.45 14.95 -40.7 39.25q-16.1 24.1 -20.85 52.05q-7.3 43.2 -9.45 87.4q-2.85 58.2 19.45 110.75q8.15 19.2 28.6 23.5q35.9 7.45 56.65 -23.6q-0.5 14.3 5.3 23.05q1.2 -1.2 1.35 -3q1.55 -18.75 1.35 -37.5q1.35 -6.6 -0.25 -12.75q-0.7 -33.65 -1.95 -67.1q-0.35 -0.4 -0.7 -0.35q-15.9 1.85 -32.3 -3.4q-4.35 0.1 -7.45 2.5q-0.3 0.75 -0.45 1.5q-0.1 1.1 -0.05 2.2q22.6 -0.15 42.7 5.5q0.25 25.6 -0.65 51q-4.55 17.6 -21.2 29.35q-17.85 12.65 -37.95 3.6q-29.35 -13.15 -34.75 -46.3q-9.45 -58.75 -3.95 -118.75q2 -21.2 8.2 -41.35q13.95 -45.3 51.45 -74.45q22.95 -17.9 40.05 3.05q7.2 8.85 12.3 16.35q2.6 -5.75 0.85 -11.5q-8.35 -28.35 -37.85 -29.5q-6 1.5 -11.7 4.95<g id="2869" transform="matrix(1, 0, 0, 1, -21.4, 0)">
<path style="fill:#000000;fill-opacity:1" d="M400.2,91Q407.3 86.95 416.45 88.75Q461.75 109.2 468.6 160.3Q470.8 176.75 470.5 193.5Q469.7 241.65 430.8 271.6L430.35 271.95Q450.45 322.95 470.15 374.3Q472.85 381.35 477.25 387.5Q488.9 403.6 487.95 422.2Q487.85 424.3 485.95 424.95Q454.6 373.4 438.3 314.45Q432.65 293.9 427.55 273.9Q414.55 281.95 399.45 277.1Q399.25 302.75 399.35 328.5Q399.55 373.35 391.95 416.85Q391.85 417.6 390.95 418.2Q385.95 404.8 388.1 388.25Q395.4 332.5 396 275.45Q393.95 272.75 393.9 269.25Q393.8 265.4 395.95 262.5L396.1 262.55Q396.25 221.35 395.75 180Q395.25 137.45 399.3 96.25L398.95 96.25Q398.7 95.5 398.75 94.75L398.85 92.5L398.95 91.75L399.8 91.2L399.85 90.8L400.2 90.75L400.2 91M447.8,124.45Q431.45 96.8 400.35 96.25Q401.7 151.95 400.4 209.25Q399.8 236.05 399.55 262.95Q433 266.25 453.15 235.5Q470.55 209 466.25 177.55Q462.35 149.1 447.8 124.45M341.6,269.3Q316.9 274.4 291.95 274.35L285.25 314L277.05 361.15Q272.95 384.9 262.2 406.2Q261.95 406.7 260.7 406.7Q260.1 385.15 266.9 362.7Q275.5 334.3 280.55 305L285.8 274.25L285.7 274.25Q284.95 272.05 284.95 269.75Q285 267.65 286.2 266L287.2 265.85Q293.6 227.25 299.5 188.55Q306.65 141.75 319.55 97.8L319.5 97.25Q319.4 95.1 321.2 95Q330.8 152.65 339.85 211.05Q348.85 269.35 360.7 327.25Q369.4 369.95 376.05 412.3Q376.3 413.9 375.2 415.2Q367.3 408.8 364.7 395.3Q353.3 336.8 343.1 278.15L341.6 269.3M325.2,161.9Q322.05 138.8 320.5 115.45Q319.55 127.35 316.05 139.45Q307.75 168 303.6 197.55Q298.85 231.3 293.45 265L339.75 258.3Q331.7 210.2 325.2 161.9M222.3,105.65Q203.15 112 193.85 130.05Q164.05 187.85 163.05 254.6Q195.2 245.55 228.45 243L229.3 244.4Q230.35 246.25 230.5 248.45Q230.75 251.9 228.85 254.6L162.5 263.9Q160.4 310.4 166.7 356.75Q167.8 364.75 171.45 371.85Q174.6 378.05 179.35 382.85Q189.9 393.55 204.4 388.9Q231.3 380.3 254.45 362.2L254.8 365.65Q255.2 370.85 253.05 375.4Q251.9 377.9 250.2 380Q248.4 382.3 246.1 384.3Q229.5 398.45 208.85 405.4Q203.9 407 198.6 407.05Q193.75 407.05 189.25 405.05Q174.1 398.25 169.1 382.1Q151.5 325 157.15 264.15L155.7 256.75L157.55 256.2L159.55 232.5Q161.55 210.6 165.3 189.05Q168.5 170.95 173.2 153.05Q178.45 133.2 190.9 116.85Q203.65 100.1 222.95 92.25Q235.8 91.45 246.05 99.1Q258 108.05 256.55 122.25L253.8 123.25L253.75 123Q253.5 113.15 243.5 108.35Q237.7 105.6 231.35 104.75Q226.8 104.15 222.3 105.65M106.95,88.5Q136.45 89.65 144.8 118Q146.55 123.75 143.95 129.5Q138.85 122 131.65 113.15Q114.55 92.2 91.6 110.1Q54.1 139.25 40.15 184.55Q33.95 204.7 31.95 225.9Q26.45 285.9 35.9 344.65Q41.3 377.8 70.65 390.95Q90.75 400 108.6 387.35Q125.25 375.6 129.8 358L130.05 349.5Q130.95 324.1 130.7 298.5Q110.6 292.85 88 293L87.75 292.2L87.55 290.7Q87.5 289.6 87.6 288.5Q87.75 287.75 88.05 287L88.5 286.25Q91.6 283.85 95.95 283.75L100.95 283.25Q117.35 288.5 133.25 286.65Q133.6 286.6 133.95 287Q135.2 320.45 135.9 354.1Q137.5 360.25 136.15 366.85L136.4 382.95Q136.6 401.7 135.05 420.45Q134.9 422.25 133.7 423.45Q127.9 414.7 128.4 400.4L128.95 382.8Q108.2 413.85 72.3 406.4Q51.85 402.1 43.7 382.9Q21.4 330.35 24.25 272.15Q26.4 227.95 33.7 184.75Q38.45 156.8 54.55 132.7Q70.8 108.4 95.25 93.45Q100.95 90 106.95 88.5" />
</g>
</svg>
