<?xml version="1.0" encoding="utf-8"?>
<svg version="1.1" id="Layer_1"
xmlns="http://www.w3.org/2000/svg"
xmlns:xlink="http://www.w3.org/1999/xlink"


xml:space="preserve">
q25.4 4.15 26.85 28.25q-12.25 -15.6 -31.05 -11.4q-4.95 1.1 -7.6 5.8q-19.95 35.9 13.6 61.65q12.6 9.65 18.5 24.7q10.35 26.3 2.7 52.5q-3.5 12.05 -13.75 19.5q-23.6 17.25 -42.25 -2.85q-23.3 -25.2 -15.15 -57.2q0.2 2.3 -1.9 4.15q-2.6 2.2 -3.1 5.6q0.95 28.25 26.4 38.75q5.85 2.4 12.75 1.3q19.6 -3.1 25.35 -22.05q-4.95 -40.4 -34.5 -68.05q-6.3 -5.9 -8.7 -14.6q-11.35 -40.9 21.65 -64.55q1.35 43.95 1.2 88.8q3.6 4.75 1.95 10.95q-0.5 1.8 -1.9 2.95q-0.45 34.1 -3.5 67.55q-0.45 5.35 -3.2 9.7q-6.75 -11.9 -3.3 -29.3q2.95 -14.55 2.85 -29.7q-9.45 1.35 -19.1 -0.2q0.3 35.85 -6.75 69q-5.9 -12.6 -2.65 -29.5q1.4 -7.25 1.55 -14.75q1.15 -59.6 1.25 -119.2q0 -14.4 5.85 -24q0.15 -35.7 0.8 -71.25q0.2 -10.65 5.4 -17.5q7.9 -1.25 14.55 1.15q5.75 3.15 8.8 8.95q3.15 5.95 1.95 12.05q-24.8 -21.4 -43.75 5.35q-14 19.8 -17.85 43.85q-1.3 8.35 -1.95 16.6q13.55 -5.45 28.3 -7.05q0.45 0.05 0.8 0.45q3.1 5.45 0.9 11.35q-0.8 2.1 -2.65 3.35q-0.45 29.5 7.85 58.2q5.6 19.4 25.4 12.45q7.45 -2.6 13.7 -7.85q11.45 -9.75 17.95 -23.3q6.55 29.6 -22.7 47.45q-7.45 4.55 -15.55 2.8q-26 -5.6 -29.65 -33.5q-7.3 -56.7 5.45 -111.75q6.1 -26.25 26.45 -43.45q2.95 -39.2 33 -61.4q30.45 -4.85 39.9 21.1q1.5 4.2 -0.2 8.15q-6.5 -6.05 -15.45 -11.55q-6.45 -3.95 -14.25 -3.15q-23 2.3 -29.4 26.15q-11.85 43.9 -10.05 90.6q0.85 21.3 13.6 37.25q5.2 6.5 13.65 3.5q18.1 -6.45 26.55 -21.4q-9.3 -0.5 -18.75 2.5q-5 -7.35 2.25 -12q4.05 -2.55 8.25 -4.5q2.1 24 -0.3 48.05q-0.65 6.25 -5.4 9.2q-2.1 -6.8 -2.6 -13.75q-6.3 6.75 -17.1 11.6q-22.4 10.05 -30.4 -12q-11.25 -30.95 -10 -64.9q0.9 -23.8 2.6 -47.25<g id="2868" transform="matrix(1, 0, 0, 1, -135.15, 0)">
<path style="fill:#000000;fill-opacity:1" d="M346.95,177.25Q372.35 181.4 373.8 205.5L373.7 206.25Q361.45 190.65 342.65 194.85Q337.7 195.95 335.05 200.65Q315.1 236.55 348.65 262.3Q361.25 271.95 367.15 287Q377.5 313.3 369.85 339.5Q366.35 351.55 356.1 359Q332.5 376.25 313.85 356.15Q290.55 330.95 298.7 298.95L301 297.75L302.45 296.9L302.95 296.45L304.95 296.45L307.45 296.4L309.2 296.2Q309.4 298.5 307.3 300.35Q304.7 302.55 304.2 305.95L303.65 306.65L302.7 307.45Q303.65 335.7 329.1 346.2Q334.95 348.6 341.85 347.5Q361.45 344.4 367.2 325.45Q362.25 285.05 332.7 257.4Q326.4 251.5 324 242.8Q312.65 201.9 345.65 178.25L346.95 177.25M419.45,178.25Q420.8 222.2 420.65 267.05Q424.25 271.8 422.6 278Q422.1 279.8 420.7 280.95L420.6 281L420.4 296.7Q419.95 330.8 416.9 364.25Q416.45 369.6 413.7 373.95Q406.95 362.05 410.4 344.65Q413.35 330.1 413.25 314.95L413.2 282.5Q403.75 283.85 394.1 282.3L394.2 299.2Q394.5 335.05 387.45 368.2Q381.55 355.6 384.8 338.7Q386.2 331.45 386.35 323.95Q387.5 264.35 387.6 204.75Q387.6 190.35 393.45 180.75L394 270L413.25 267Q413.4 231.3 414.05 195.75Q414.25 185.1 419.45 178.25M256,183.6L258.95 182.85L262.95 181.5Q270.85 180.25 277.5 182.65L279.45 183.25Q285.2 186.4 288.25 192.2Q291.4 198.15 290.2 204.25Q265.4 182.85 246.45 209.6Q232.45 229.4 228.6 253.45Q227.3 261.8 226.65 270.05Q240.2 264.6 254.95 263L260.4 263.55Q260.85 263.6 261.2 264Q264.3 269.45 262.1 275.35Q261.3 277.45 259.45 278.7L226.05 282.95Q225.6 312.45 233.9 341.15Q239.5 360.55 259.3 353.6Q266.75 351 273 345.75Q284.45 336 290.95 322.45Q297.5 352.05 268.25 369.9Q260.8 374.45 252.7 372.7Q226.7 367.1 223.05 339.2Q215.75 282.5 228.5 227.45Q234.6 201.2 254.95 184L256 183.6M139,243.15Q141.95 203.95 172 181.75Q202.45 176.9 211.9 202.85Q213.4 207.05 211.7 211Q205.2 204.95 196.25 199.45Q189.8 195.5 182 196.3Q159 198.6 152.6 222.45Q140.75 266.35 142.55 313.05Q143.4 334.35 156.15 350.3Q161.35 356.8 169.8 353.8Q187.9 347.35 196.35 332.4L198.25 324.45Q188.95 323.95 179.5 326.95Q174.5 319.6 181.75 314.95Q185.8 312.4 190 310.45L201.45 311.8L202.2 312.2Q204.3 336.2 201.9 360.25Q201.25 366.5 196.5 369.45Q194.4 362.65 193.9 355.7Q187.6 362.45 176.8 367.3Q154.4 377.35 146.4 355.3Q135.15 324.35 136.4 290.4Q137.3 266.6 139 243.15" />
</g>
</svg>
