<?xml version="1.0" encoding="utf-8"?>
<svg version="1.1" id="Layer_1"
xmlns="http://www.w3.org/2000/svg"
xmlns:xlink="http://www.w3.org/1999/xlink"


xml:space="preserve">
q-23.55 10.05 -36.9 32.2q-29.25 48.65 -37.15 104.4q-2.65 18.65 -4.55 37.45q-0.6 2.15 -0.55 4.5q0.05 1.15 0.55 2.25q-3.5 36.3 -4.25 73.15q-1.35 63.2 49.05 102.35q11.15 8.65 24.8 6q31.7 -6.25 56.95 -27.2q14.6 -12.1 3.8 -24.7q-23.25 23 -54.25 34.25q-39.25 -12 -54.8 -51.1q-1.4 -3.5 -1.9 -6.9q-7.9 -52.55 -3.6 -105.7q29.2 2.3 58.85 -3.3q1.9 -1.65 2.3 -4.25q0.6 -4.35 -1.55 -8.25q-26.45 4.15 -52.6 9q4.15 -42.85 19.05 -83.15q13.4 -36.5 39.05 -65.5q4.75 -5.4 11.6 -7.6q39.35 -12.9 63.4 18q-7.65 -36.4 -48.4 -37.25q-5.45 0.8 -11.05 3.15q-2.1 -30.25 -36.5 -30.25q-5.65 1.45 -11.15 4.15q-27.05 13.45 -40.8 40.25q-22.4 43.65 -26.5 92.95q-4.9 59 -1.75 118.6q1.45 29.4 16 54.8q23.05 40.3 63.85 19.75q15.75 -7.95 28.1 -20.35q10.35 -10.4 0.7 -18.05q-5.4 6.5 -12.5 11.25q-33.25 22.55 -58.95 -6.2q-4.9 -5.5 -6.9 -12.4q-15.75 -54.3 -14.95 -111.95q0.2 -13.45 0.85 -26.85q26.4 -2.45 52.35 -2.65q3.45 -3.95 2.75 -9.05q-0.2 -1.65 -1.25 -2.95q-7 -2.95 -14.7 -2.85q-18.7 2.8 -37.25 7.4q2.55 -39.75 9.35 -78.75q8.05 -46.35 46.9 -71.5q32.9 -21.35 54.5 7.6q-8.35 19.8 -6 42.75q1.5 14.35 1.1 28.95q-8.45 24.85 -6.95 51.55q0.65 11.5 0.1 23.15q-6.9 30.2 -0.3 59.55q0.35 1.6 1.05 3.15q6 -30.4 5.15 -61.4q12.85 2.5 25.85 0.9q-6.5 30.35 3.5 58.4q4.6 -29 2.4 -59.15q10.75 3.05 17.6 10.95q-18 -43.95 -52.7 -15.05q-11.65 9.7 -16.8 24.3q-25.7 73 -29.4 150.6q-1.45 29.8 1.55 59.4q1.5 14.65 4.75 28.95q1.6 7.2 3.5 14.3q1.9 7.15 4.15 14.2q2.25 7.05 4.8 14.1q2.2 6.15 5.7 11.65q5.8 9.1 14.15 15.9q4.85 3.9 10.25 6.45q6.2 3 13.1 3.3q14.7 -0.95 24.65 -11.95q7.15 -7.8 11.9 -17.3q-3.95 21.85 2.9 42.6q11.55 -53.75 4.4 -109.75q-19.4 -6.4 -38.35 0.15q17.9 -1.75 35.85 4.35q4.5 62.9 -48.65 66.2q-10.3 0.6 -16.45 -8.2q-18.5 -26.3 -26.05 -57.65q-3.65 -15.25 -4.5 -30.9q-1.35 -25.25 0.05 -50.3q0.85 -14.55 2.2 -29.05q1.35 -14.5 3.45 -28.9q1.8 -12.65 4.2 -25.2q4.1 -21.6 10.55 -42.4q5.85 -18.75 14.85 -36.4q3.35 -6.5 9.25 -10.6q9.65 -6.7 21.6 -5.45q-7.05 17 -9.3 37.65q-2.15 19.85 -2.1 39.85q0 9.85 2.75 16.1q2.75 -4.2 1.2 -8.85q-5.3 -23.2 -17.3 -43.45q11.95 -6.45 15.1 -20.55q1.55 -6.85 -1.2 -13.25q-2.45 -5.7 -7.65 -9.3q-6.25 -4.35 -13.7 -5q14.5 2.55 19.7 15.95q-7.3 12.1 -21.15 14.7q-3.25 54.75 -2.65 108.75q18.75 1.2 37.75 0.75q4.85 -6.95 0.75 -15q-17.1 1.85 -34.5 -0.75q4.4 -52.15 2.7 -103.45q-3.7 3.45 -4.1 10.2<g id="2855" transform="matrix(1, 0, 0, 1, -29.6, 0)">
<path style="fill:#000000;fill-opacity:1" d="M420.95,65Q461.7 65.85 469.35 102.25L469.45 103Q445.4 72.1 406.05 85Q399.2 87.2 394.45 92.6Q368.8 121.6 355.4 158.1Q340.5 198.4 336.35 241.25Q362.5 236.4 388.95 232.25L393.65 233.4L395.2 234Q397.35 237.9 396.75 242.25Q396.35 244.85 394.45 246.5Q364.8 252.1 335.6 249.8Q331.3 302.95 339.2 355.5Q339.7 358.9 341.1 362.4Q356.65 401.5 395.9 413.5L406.7 413.2Q437.7 401.95 460.95 378.95Q471.75 391.55 457.15 403.65Q431.9 424.6 400.2 430.85Q386.55 433.5 375.4 424.85Q325 385.7 326.35 322.5Q327.1 285.65 330.6 249.35L329.7 249.25Q329.2 248.15 329.15 247Q329.1 244.65 329.7 242.5L331.3 242.2Q333.2 223.4 335.85 204.75Q343.75 149 373 100.35Q386.35 78.2 409.9 68.15Q415.5 65.8 420.95 65M330.45,98.5Q308.85 69.55 275.95 90.9Q237.1 116.05 229.05 162.4Q222.25 201.4 219.7 241.15Q238.25 236.55 256.95 233.75Q264.65 233.65 271.65 236.6L272.95 237.25Q274 238.55 274.2 240.2Q274.9 245.3 271.45 249.25Q245.5 249.45 219.1 251.9Q218.45 265.3 218.25 278.75Q217.45 336.4 233.2 390.7Q235.2 397.6 240.1 403.1Q265.8 431.85 299.05 409.3L311.45 400.95Q318.55 396.2 323.95 389.7Q333.6 397.35 323.25 407.75Q310.9 420.15 295.15 428.1Q254.35 448.65 231.3 408.35Q216.75 382.95 215.3 353.55L213.75 323.45Q210.6 263.85 215.5 204.85Q219.6 155.55 242 111.9Q255.75 85.1 282.8 71.65Q288.3 68.95 293.95 67.5Q328.35 67.5 330.45 97.75L330.45 98.5M187.2,145L180.85 146.35Q183.05 176.5 178.45 205.5L178.2 205.65Q168.2 177.6 174.7 147.25Q161.7 148.85 148.85 146.35Q149.7 177.35 143.7 207.75Q143 206.2 142.65 204.6Q136.05 175.25 142.95 145.05L140.8 143.75L141.2 139.25L143.35 138.45Q143.9 126.8 143.25 115.3Q141.75 88.6 150.2 63.75L149.15 136.75L175.3 134.2Q175.7 119.6 174.2 105.25Q171.85 82.3 180.2 62.5L180.8 135.15L187.2 139L187.2 145M82.6,81.1Q76.7 85.2 73.35 91.7Q64.35 109.35 58.5 128.1Q52.05 148.9 47.95 170.5Q45.55 183.05 43.75 195.7Q41.65 210.1 40.3 224.6Q38.95 239.1 38.1 253.65Q36.7 278.7 38.05 303.95Q38.9 319.6 42.55 334.85Q50.1 366.2 68.6 392.5Q74.75 401.3 85.05 400.7Q138.2 397.4 133.7 334.5Q115.75 328.4 97.85 330.15L98.5 323.1Q117.45 316.55 136.85 322.95Q144 378.95 132.45 432.7Q125.6 411.95 129.55 390.1Q124.8 399.6 117.65 407.4Q107.7 418.4 93 419.35Q86.1 419.05 79.9 416.05Q74.5 413.5 69.65 409.6Q61.3 402.8 55.5 393.7Q52 388.2 49.8 382.05Q47.25 375 45 367.95Q42.75 360.9 40.85 353.75Q38.95 346.65 37.35 339.45Q34.1 325.15 32.6 310.5Q29.6 280.9 31.05 251.1Q34.75 173.5 60.45 100.5Q65.6 85.9 77.25 76.2Q111.95 47.3 129.95 91.25L125.95 88.25L125.05 86.95Q118.2 79.05 107.45 76L104.2 75.65Q92.25 74.4 82.6 81.1M150.2,211.8Q157.65 212.45 163.9 216.8Q169.1 220.4 171.55 226.1Q174.3 232.5 172.75 239.35Q169.6 253.45 157.65 259.9Q169.65 280.15 174.95 303.35L179.2 304.75L179.9 305.95L180.4 307.15Q181.95 311.8 179.2 316L174.45 316.75L154.8 260.95L146.9 262.2L139.8 305.85Q137.05 299.6 137.05 289.75Q137 269.75 139.15 249.9Q141.4 229.25 148.45 212.25L150.2 211.8M147.7,222L149.45 228L148 226.95L148.3 250.95Q162.15 248.35 169.45 236.25Q164.25 222.85 149.75 220.3L147.7 222M158.45,314.5Q160.15 365.8 155.75 417.95L155.7 418.45Q173.1 421.05 190.2 419.2Q194.3 427.25 189.45 434.2Q170.45 434.65 151.7 433.45Q151.1 379.45 154.35 324.7Q154.75 317.95 158.45 314.5" />
</g>
</svg>
