<?xml version="1.0" encoding="utf-8"?>
<svg version="1.1" id="Layer_1"
xmlns="http://www.w3.org/2000/svg"
xmlns:xlink="http://www.w3.org/1999/xlink"


xml:space="preserve">
q-1.8 5.5 1.45 9.75q16.9 0.95 33.75 0.9q-5.6 39.15 -5.45 79.8q0.1 30.15 -3.45 59.8q-1.95 16.45 3.65 29.95q4.5 -8 4.5 -18.5q-0.05 -22.8 0.5 -45.75q5.05 -8.65 -2.55 -13.6q-37.75 0.6 -75.5 4.25q-0.8 -0.15 -1.05 0.4q-6.15 15.05 1.05 27.35q4.9 -13.85 -0.55 -26.9q-2.45 0.1 -2.65 2.5q-3.3 41.2 -3.35 82.45q-8.2 2.9 -15.5 -1.25q-1.55 -4.95 -5.5 -7.5q-1.95 1.35 -2.25 3.75q-3.05 24.45 23.25 22q9.15 -6.95 8.65 -19.55q-1.2 -28.5 -0.65 -56.95q0.3 -13.65 -2 -25.45q-29.25 27.95 -32.75 69.7q-2.35 27.75 -1.5 55.45q0.65 22.5 12.05 41.35q14.25 23.55 42.65 14.85q14.9 -4.55 23.05 -12.75q-0.6 11.2 4.2 20.05q6.9 -6.85 3.25 -15.75q4.45 -28.35 1.55 -55.5q-15.75 -1.9 -30 3.5q-2.6 6.2 1 11.25q13.4 -1.65 24.75 0.25q-0.75 1.65 -0.8 3.55q-0.05 1.65 0.05 3.3q-4.2 8.45 -11.85 14.1q-20.2 14.85 -43.75 4q-6.35 -2.95 -8.95 -9.35q-15.3 -37.85 -10.55 -80.45q4.25 -38.55 32.25 -63.55q33.5 -10.9 48.2 16.75q3.05 -4.5 1.05 -9.8q-10.1 -26.65 -41.25 -23.95q-6.9 2.15 -12.25 7.3q-13.3 17.75 -18.25 39.65q-4.6 20.55 -6.65 41.4q-1.95 19.85 -3.1 39.7q-1.3 22.95 11.65 40.45q13.25 17.85 35.55 15.8q22.3 -1.55 34.3 -21.35q6.85 -11.3 -1.85 -20.9q-8.75 17.35 -25.95 24.8q-13 5.75 -26.65 1.05q-8.4 -2.7 -10.85 -10.6q-9.85 -31.55 -7.6 -64.6q3.3 -3 3.05 -7.8q-0.25 -4.4 -3.05 -7.65q2.1 -53 47.35 -69.35q10.5 -3.75 20 3.05q-1.85 -23.7 -25.15 -27.45q-22.25 -3.2 -36.25 15.4<g id="2867" transform="matrix(1, 0, 0, 1, -141.65, 0)">
<path style="fill:#000000;fill-opacity:1" d="M341.45,187.75Q379.2 184.1 416.95 183.5Q424.55 188.45 419.5 197.1L418.7 198L378.85 199.85L375.95 305.2Q375.4 328.15 375.45 350.95Q375.45 361.45 370.95 369.45Q365.35 355.95 367.3 339.5Q370.85 309.85 370.75 279.7Q370.6 239.05 376.2 199.9Q359.35 199.95 342.45 199Q339.2 194.75 341 189.25L341.45 187.75M415,241.4L414.45 242.25Q407.25 229.95 413.4 214.9Q413.65 214.35 414.45 214.5Q419.9 227.55 415 241.4M418.45,291.2Q417.9 319.65 419.1 348.15Q419.6 360.75 410.45 367.7Q384.15 370.15 387.2 345.7Q387.5 343.3 389.45 341.95Q393.4 344.5 394.95 349.45Q402.25 353.6 410.45 350.7Q410.5 309.45 413.8 268.25Q414 265.85 416.45 265.75Q418.75 277.55 418.45 291.2M189,179.25Q220.15 176.55 230.25 203.2Q232.25 208.5 229.2 213Q214.5 185.35 181 196.25Q153 221.25 148.75 259.8Q144 302.4 159.3 340.25Q161.9 346.65 168.25 349.6Q191.8 360.45 212 345.6Q219.65 339.95 223.85 331.5L224.1 329.5Q224 327.85 224.05 326.2Q224.1 324.3 224.85 322.65L225.2 318.2Q213.85 316.3 200.45 317.95Q196.85 312.9 199.45 306.7Q213.7 301.3 229.45 303.2Q232.35 330.35 227.9 358.7L227.7 359.45Q231.35 368.35 224.45 375.2Q219.65 366.35 220.25 355.15Q212.1 363.35 197.2 367.9Q168.8 376.6 154.55 353.05Q143.15 334.2 142.5 311.7Q141.65 284 144 256.25Q147.5 214.5 176.75 186.55Q182.1 181.4 189 179.25M307.3,179.8Q330.6 183.55 332.45 207.25L320.7 199.15Q311.2 192.35 300.7 196.1Q255.45 212.45 253.35 265.45L294.45 261.25Q297.25 264.5 297.5 268.9Q297.75 273.7 294.45 276.7L251.65 280.6Q249.4 313.65 259.25 345.2Q261.7 353.1 270.1 355.8Q283.75 360.5 296.75 354.75Q313.95 347.3 322.7 329.95Q331.4 339.55 324.55 350.85Q312.55 370.65 290.25 372.2Q267.95 374.25 254.7 356.4Q241.75 338.9 243.05 315.95Q244.2 296.1 246.15 276.25Q248.2 255.4 252.8 234.85Q257.75 212.95 271.05 195.2Q285.05 176.6 307.3 179.8" />
</g>
</svg>
