<?xml version="1.0" encoding="utf-8"?>
<svg version="1.1" id="Layer_1"
xmlns="http://www.w3.org/2000/svg"
xmlns:xlink="http://www.w3.org/1999/xlink"


xml:space="preserve">
q3.95 50.8 -29.65 86.85q-19.7 6.25 -38.75 13.3q0.45 -31.4 1.5 -62.8q1.8 -57.25 -1.85 -113.5q43.55 5.3 61.1 45.4q6.35 14.5 7.55 30q-3.7 9.95 -3.45 22.75q1.1 59.75 -1.05 119.2q-2.1 59.4 -2.05 119.3q0.1 59.55 -1.95 118.7q0.2 9.05 -1.4 23.35q-1.6 14.65 4.15 24.9q1.8 -1.85 1.95 -4.5q2.3 -32.8 3 -66q1.25 -59.35 1.15 -119.2q43.25 -6.4 60.2 -45.45q25.05 -57.75 -2.75 -113.6q-17.35 -34.9 -55.85 -39.7q-5.4 29.55 -5.85 61.75q-0.75 59.45 -4.3 118.45q-2.25 37.1 3.05 73.35q4.5 30.85 36.85 29.65q37.65 -27.6 41.75 -75.4q5.1 -59.2 6.95 -119.3q0.9 -29.45 2.2 -59.15q0.8 -17.8 -6.9 -29.1q-4.05 7 -1.4 14.95q2.6 -1.8 4.5 -2.25q0 21.35 -0.7 42.7q-2 59.25 -3.45 118.55q-1.15 47.2 -30.1 83q-3.45 4.3 -8.85 4.75q-32.55 2.8 -33.25 -29.5q-1.3 -59.15 0.15 -118.5q1.5 -59.55 5.2 -117.75q-30.45 7.7 -33.9 38q-2.75 27.85 9 52.6q12.5 26.15 43.6 14.8q11.55 -5.15 18.75 -15.25q15.4 -21.5 20 -47.65q6.55 -37.2 -24.25 -53.85q-4 -4.65 -9.1 -8.05q18.2 -14 36.95 -2q18.1 11.75 22 32.6q4 21.2 -4.95 40.9q-9.35 20.7 -31.2 26.7q-24.55 6.65 -33.8 -16.4q-8 -19.95 -7.55 -42.1q0.45 -22.8 16.3 -39.2q14.25 27.05 20.65 57.55q12.1 58 10.45 117.95q-1.05 36.95 -4.95 73.6q-6.25 58.6 -29.7 113.1q-12.75 29.6 -46.6 33.6q-34.4 4.1 -40.85 -27.7q-3.6 -17.7 -5.3 -35.95q-5.55 -58.65 -6.15 -118.65q-0.55 -60.05 7.1 -118.55q1.95 -15 2.6 -30.05q1.85 -42.85 31.75 -71.9q3.5 -0.75 6 -3.25q20.55 -0.7 37.75 8.25q-1 0.7 -3.75 0.4q3.95 1.95 8.2 3.4q0.3 0.1 0.55 0.35q-0.75 0.35 -1.4 0.85q-8.3 7.45 -14.6 16.85q-14.75 22.15 -18.15 48.75q-3.6 28.25 -6.6 56.55q-6.1 58.2 -5.5 117.6q0.3 29.75 2.75 59.15q2.95 36.25 3.35 72.8q0.35 33.35 24.75 54.75q16.8 4.45 33.55 1.2q26.1 -4.95 37.35 -27.1q27.05 -53.2 35.1 -111.95q8.1 -58.7 6.65 -118.6q-1.4 -59.35 -13.6 -117.3q-5.1 -24.15 -21.65 -41.1q-20.55 -20.95 -52.9 -16.85q-13.7 -24.4 -41.85 -26.65q-10.5 2.85 -18.9 9.85q-6.35 8.3 -10.6 17.75q-20.75 45.95 -24.2 96.95q-3.95 59.5 -5.05 119.3q-1.1 58.75 2.45 116.95q2.5 41.3 37.9 59.7q23.45 12.2 45.65 0.9q12 -6.1 21.75 -15.3q18.7 -17.7 11.3 -38.8q-0.75 0.4 -1.3 0.95q-1.55 1.5 -2.35 3.5q-0.9 2.2 -0.35 4.3q-3.35 5.85 -7.65 11.15q-8.6 10.45 -20.25 17.3q-23.85 14.1 -49.6 0.3q-9.1 -4.85 -14.25 -13q-18.1 -28.5 -18.15 -63q-0.1 -59.5 1.4 -118.45q1.45 -58.55 8.65 -116.3q4.15 -33.2 20.1 -61.45q5.35 -9.45 15.45 -13.3q35 -13.3 55.3 19.05q1.8 -0.95 2.3 -3q0.65 -2.55 0.35 -5.25q-0.3 -2.3 -1.15 -4.5q-0.15 -0.1 -0.15 -0.55q-12 44.85 -11.2 92.85q0.25 15 -0.5 30q-0.4 7.5 1.65 14.6q9.8 -37.1 6.85 -76.15q13.5 39.05 33.5 75q-2.15 -30.95 -19.35 -59.35q-3.75 -6.2 -7.2 -12.75q-1.2 -2.3 -2.1 -4.75q13.4 -12 15.4 -30.15q0.65 -5.6 0.25 -10.95q-0.4 -4.9 -2.15 -9.45q-4.15 -10.8 -14.2 -16.4q31.05 2.7 19.2 35.45q-5.5 15.25 -22.4 14.6<g id="2893" transform="matrix(1, 0, 0, 1, -20.8, 0)">
<path style="fill:#000000;fill-opacity:1" d="M497.8,113.15Q480.25 73.05 436.7 67.75L436.6 67Q440.25 123.25 438.45 180.5Q437.4 211.9 436.95 243.3Q456 236.25 475.7 230Q509.3 193.95 505.35 143.15Q504.15 127.65 497.8 113.15M441.95,59.1L441.95 59Q480.45 63.8 497.8 98.7Q525.6 154.55 500.55 212.3Q483.6 251.35 440.35 257.75L436.75 258.25L436.55 299.75Q436.65 359.6 435.4 418.95Q434.7 452.15 432.4 484.95Q432.25 487.6 430.45 489.45Q424.7 479.2 426.3 464.55Q427.9 450.25 427.7 441.2Q429.75 382.05 429.65 322.5Q429.6 262.6 431.7 203.2Q433.85 143.75 432.75 84Q432.5 71.2 436.2 61.25L436.3 62.35L436.4 61.75L436.7 60.25L441.95 59.1M326.95,65.25Q323.25 123.45 321.75 183Q320.3 242.35 321.6 301.5Q322.3 333.8 354.85 331Q360.25 330.55 363.7 326.25Q392.65 290.45 393.8 243.25Q395.25 183.95 397.25 124.7Q397.95 103.35 397.95 82Q396.05 82.45 393.45 84.25L396.95 79.75Q394.3 71.8 398.35 64.8L398.95 64Q406.65 75.3 405.85 93.1Q404.55 122.8 403.65 152.25Q401.8 212.35 396.7 271.55Q392.6 319.35 354.95 346.95Q322.6 348.15 318.1 317.3Q312.8 281.05 315.05 243.95Q318.6 184.95 319.35 125.5Q319.8 93.3 325.2 63.75L326.2 64.5L326.95 65.25M361.35,359.4Q366.45 362.8 370.45 367.45Q401.25 384.1 394.7 421.3Q390.1 447.45 374.7 468.95Q367.5 479.05 355.95 484.2Q324.85 495.55 312.35 469.4Q300.6 444.65 303.35 416.8L306.05 391.45Q309.5 361.15 339.95 353.45L352.45 353.7L361.35 359.4M324.2,373.95Q308.35 390.35 307.9 413.15Q307.45 435.3 315.45 455.25Q324.7 478.3 349.25 471.65Q371.1 465.65 380.45 444.95Q389.4 425.25 385.4 404.05Q381.5 383.2 363.4 371.45Q344.65 359.45 326.45 373.45L324.2 373.95M267.65,75.15Q263.4 73.7 259.45 71.75L259.95 71.65Q262.7 71.95 263.7 71.25Q246.5 62.3 225.95 63L216 64.1L213.95 64.5L213.2 65.25Q210.7 67.75 207.2 68.5Q177.3 97.55 175.45 140.4Q174.8 155.45 172.85 170.45Q165.2 228.95 165.75 289Q166.35 349 171.9 407.65Q173.6 425.9 177.2 443.6Q183.65 475.4 218.05 471.3Q251.9 467.3 264.65 437.7Q288.1 383.2 294.35 324.6Q298.25 287.95 299.3 251Q300.95 191.05 288.85 133.05Q282.45 102.55 268.2 75.5Q267.95 75.25 267.65 75.15M215.45,51.75L216.45 51.25L216.95 51Q249.3 46.9 269.85 67.85Q286.4 84.8 291.5 108.95Q303.7 166.9 305.1 226.25Q306.55 286.15 298.45 344.85Q290.4 403.6 263.35 456.8Q252.1 478.95 226 483.9Q209.25 487.15 192.45 482.7Q168.05 461.3 167.7 427.95Q167.3 391.4 164.35 355.15Q161.9 325.75 161.6 296Q161 236.6 167.1 178.4Q170.1 150.1 173.7 121.85Q177.1 95.25 191.85 73.1Q198.15 63.7 206.45 56.25L207 56.05L209.7 55.5L210.7 54.7L212.55 53.35Q213.2 52.85 213.95 52.5L215.45 51.75M130.6,81.75Q130.9 84.45 130.25 87Q129.75 89.05 127.95 90Q107.65 57.65 72.65 70.95Q62.55 74.8 57.2 84.25Q41.25 112.5 37.1 145.7Q29.9 203.45 28.45 262Q26.95 320.95 27.05 380.45Q27.1 414.95 45.2 443.45Q50.35 451.6 59.45 456.45Q85.2 470.25 109.05 456.15Q120.7 449.3 129.3 438.85Q133.6 433.55 136.95 427.7Q136.4 425.6 137.3 423.4Q138.1 421.4 139.65 419.9Q140.2 419.35 140.95 418.95Q148.35 440.05 129.65 457.75Q119.9 466.95 107.9 473.05Q85.7 484.35 62.25 472.15Q26.85 453.75 24.35 412.45Q20.8 354.25 21.9 295.5Q23 235.7 26.95 176.2Q30.4 125.2 51.15 79.25Q55.4 69.8 61.75 61.5Q70.15 54.5 80.65 51.65L87 49.75Q115.15 52 128.85 76.4L129.45 77.25Q130.3 79.45 130.6 81.75M96,177L98.7 174L103.95 172.75L110.35 176.2Q120.4 181.8 124.55 192.6Q126.3 197.15 126.7 202.05Q127.1 207.4 126.45 213Q124.45 231.15 111.05 243.15Q111.95 245.6 113.15 247.9Q116.6 254.45 120.35 260.65Q137.55 289.05 139.7 320Q119.7 284.05 106.2 245L94.35 244.6Q97.3 283.65 87.5 320.75L85.4 314.2Q83.35 307.1 83.75 299.6Q84.5 284.6 84.25 269.6Q83.45 221.6 95.45 176.75Q95.45 177.2 95.6 177.3L96 177M95.4,184.45L94.65 233.5Q111.55 234.15 117.05 218.9Q128.9 186.15 97.85 183.45L95.4 184.45" />
</g>
</svg>
