<?xml version="1.0" encoding="utf-8"?>
<svg version="1.1" id="Layer_1"
xmlns="http://www.w3.org/2000/svg"
xmlns:xlink="http://www.w3.org/1999/xlink"


xml:space="preserve">
q-17.55 19.75 -25.05 46.1q-16.5 58.1 -19.4 118.6q-2.05 43.75 4.1 86.2q2.35 16.05 13.15 27.6q15.45 16.45 33.45 2.7q20.35 -15.55 33.3 -37.4q6.95 -11.8 -2.1 -19.25q-12.9 25.6 -35.2 43.35q-7.15 5.7 -16.1 1.95q-19.8 -8.35 -23.5 -31q-2 -12.4 -1.8 -24.8q0.5 -35.6 3.85 -70.6q6.5 -7.5 0.35 -14.9q-24.75 1.1 -48.9 4q1 -9.25 2.25 -18.4q6.4 -48 26.6 -91.3q4.3 -9.2 13.75 -10.3q25.05 -2.9 33.05 21.5q2.1 -34.05 -32.4 -37.5q-5.45 1.7 -9.45 6.2q-5.15 12.65 -5.8 28q-2.5 59.2 -5.7 118.4q-3.15 59.15 -5.9 118.55q-6.3 -58.85 -15.9 -117.1q-9.6 -58.1 -20.25 -116.1q-2.7 -14.5 -5.95 -28.85q-13.2 -57.9 -15.7 -115.3q-0.15 -2.3 -1 -4.25q-0.9 2.55 -1.05 5.65q-3.45 58.95 -3.25 118.6q0.2 59.1 -3.8 118.4q-1.3 18.8 -1.8 37.55q-1.15 45 -6.65 89.05q-2.05 16.45 3.65 29.95q4.6 -14.35 5.1 -31.25q1.45 -51.85 5.45 -103.45q4.6 -58.85 4.5 -118.5q-0.05 -36.85 1.7 -74.2q1.45 -29.9 1.8 -59.5q6.35 42.25 13.7 84.3q10.1 58 19.35 116.1q4.65 29.3 8.25 58.7q7.15 58.15 13.9 116.25q1.15 10.05 7.5 13.3q1 -1.3 1.25 -2.75q2.7 -59.65 4.9 -119.2q2.25 -59.75 3.9 -118.5q-6.6 13.95 -6.6 32.25q-0.05 59.65 -1.3 119.25q-0.95 44.8 -4.5 89.15q-1.35 16.5 3.9 29.8q4.8 -15 4.85 -32.7q0.15 -59.75 1.8 -119.25q1.65 -60.05 1.85 -118.5q-23.95 51 -57.15 94.4q5.55 -49.05 3.45 -97.9q-1.95 -0.2 -2.05 1.75q-0.8 20.3 -3.5 40.3q-8 58.45 -7.2 117.95q0.55 2.6 3 2q2.85 -5.1 2.45 -11.3q-1.1 -16.6 1.25 -32.8q1.1 1 2.6 1.3q13.55 -16.95 25.15 -36.3q7.85 32.75 14.45 66.7q2.7 13.8 9.1 22.85q3.35 -5.95 1.95 -12.85q-8.35 -40.65 -24.4 -78.55q11.9 -20.45 22.8 -41.3q7.3 -13.95 5.7 -27.05q-2.95 5.65 -0.7 11.45q-5.3 31.55 -5.6 63.45q-0.05 3.55 0.25 7.15q3.75 -2.3 4.6 -6.75q6.05 -30.6 7.65 -61.85q0.95 13.5 7.7 25.35q10.35 18.15 22.5 35.05q2.75 -3.1 0.9 -6.8q-13.9 -27.55 -25.95 -55.85q7.45 -4.2 11.85 -11.45q7.75 -12.9 6.2 -27.7q-0.45 -4.2 -2.85 -7.45q-12.2 -16.45 -32.65 -11.2q1.75 2.9 4.15 1.3q0 -16.6 -16.6 -18.75q-16.6 5.9 -23.9 22.2q-20.3 45.25 -9.65 95.25q1.45 6.75 7.9 8.15q18.6 4.05 34.85 -7.25q20.8 -14.5 16.75 -35.85q-15.9 25.85 -45 32.35q-5.1 1.15 -7.8 -2.9q-5.75 -8.55 -6.4 -19.35q-2 -33.3 12.1 -62.05q10 -20.35 30.65 -16.8q12.65 0.6 23.95 6.65q2.35 3.45 3.35 7.4q-6.4 23.85 -28.85 24.75q1.05 -21.4 0.9 -42.65q-25.85 14 -29.2 44.35q-2.55 23.05 -3.6 46.6q-1 22.6 5.95 43.15q4.6 13.65 18.25 10.75q23.85 -5.1 34.7 -24.25q10.35 11.3 21.35 21.95q5.75 5.55 12.7 2.2q21.95 -10.5 20.05 -34.25q-1.9 0.7 -2.7 3.05q-6.6 19 -25.05 19.95q-10.55 -10.7 -21.45 -20.7q7.25 -23.85 7.6 -49.1q0.45 -38.05 -30.4 -57.75q26.35 12.05 29.3 43.3q1.85 19.8 -3.45 39q-1.6 5.8 -4.8 10.7q-11.05 -0.55 -12.25 9.75q-0.05 0.3 0.2 0.65q-15.95 19.9 -38.25 13.9q-7.6 -2 -8.6 -10.9q-4.25 -38.75 5 -75.85q4.8 -19.4 20.65 -31.7q-5.55 39.55 -3.2 80.1q0.25 4.8 3.6 7.7q17.55 15.3 27.75 -4.65q8.75 -17.1 12.15 -36q4.85 -26.8 -3.8 -50.55q-2.1 -0.1 -1.9 1.95q4.3 40.9 -12.1 78.8q-9.35 5.45 -19 1.25q-0.85 -0.95 -0.9 -2.2q-1.55 -38.8 -1.6 -76.55q-5.3 2.05 -6.75 7.75q-11.75 47.8 -13.1 98q-0.3 10.85 -1.8 21.55q-3.05 22 15.65 26.95q7.1 -3.1 12.4 -8.65q14.2 -15.1 6.6 -29.35q-2.3 0.9 -3.2 3.15q-6.7 16.65 -22.05 17.6q-2.55 -6.75 -2.55 -14.25q0 -21.75 1.7 -43q11.75 -8.45 25.35 -13.75q0.75 -4.95 -3.45 -7.5q-6.45 2.5 -10.1 5.65q2.9 -26.15 8.55 -51.6q2.35 -1.9 4.6 -0.65q1.6 0.8 2.1 2.6q0.4 1.7 1.65 2.4q0.85 -1.75 0.9 -3.75q0.05 -5.1 -2.4 -9.75q-1.8 -1.6 -4.4 -1.1q-9.15 21.15 -12.65 46.4q-2.1 14.75 -6.6 28.8q-7.4 22.75 -4.5 44.05q1 -0.1 1.2 -0.6q6 -13.75 9.35 -29.1q7.65 -1.4 15.15 -4.15q3.95 33.45 8.85 66.4q5.9 -3.95 3.7 -11.6q-1.9 -6.6 -2.6 -13.75q1.65 -5.1 -1.15 -9.8q1.75 -3.2 -2 -7.5<g id="3061" transform="matrix(1, 0, 0, 1, -28.8, 0)">
<path style="fill:#000000;fill-opacity:1" d="M420.95,73Q455.45 76.45 453.35 110.5L453.2 111.25Q445.2 86.85 420.15 89.75Q410.7 90.85 406.4 100.05Q386.2 143.35 379.8 191.35Q378.55 200.5 377.55 209.75Q401.7 206.85 426.45 205.75Q432.6 213.15 426.1 220.65L425.45 221.25L376.45 223L376.2 222.65Q372.85 257.65 372.35 293.25Q372.15 305.65 374.15 318.05Q377.85 340.7 397.65 349.05Q406.6 352.8 413.75 347.1Q436.05 329.35 448.95 303.75Q458 311.2 451.05 323Q438.1 344.85 417.75 360.4Q399.75 374.15 384.3 357.7Q373.5 346.15 371.15 330.1Q365 287.65 367.05 243.9Q369.95 183.4 386.45 125.3Q393.95 98.95 411.5 79.2Q415.5 74.7 420.95 73M356.3,196.25Q354.1 255.8 351.4 315.45L346.15 434L342.55 517.95L342.45 519.45Q342.2 520.9 341.2 522.2Q334.85 518.95 333.7 508.9Q326.95 450.8 319.8 392.65Q316.2 363.25 311.55 333.95Q302.3 275.85 292.2 217.85Q284.85 175.8 278.5 133.55Q278.15 163.15 276.7 193.05Q274.95 230.4 275 267.25Q275.1 326.9 270.5 385.75Q266.5 437.35 265.05 489.2Q264.55 506.1 259.95 520.45Q254.25 506.95 256.3 490.5Q261.8 446.45 262.95 401.45Q263.45 382.7 264.75 363.9Q268.75 304.6 268.55 245.5Q268.35 185.85 271.8 126.9L273.9 86.45Q274.05 83.35 274.95 80.8L276.2 75L277.25 76.4L278.2 75.25L278.3 78.25Q279.15 80.2 279.3 82.5L279.2 83.25Q281.7 140.65 294.9 198.55Q298.15 212.9 300.85 227.4Q311.5 285.4 321.1 343.5Q330.7 401.75 337 460.6L337.5 465.15L337.65 461.2Q340.4 401.8 343.55 342.65Q346.75 283.45 349.25 224.25L354.4 105.75Q355.05 90.4 360.2 77.75Q358.55 136.5 356.3 196.25M215.6,196.25Q213.95 255.75 213.8 315.5Q213.75 333.2 208.95 348.2Q203.7 334.9 205.05 318.4Q208.6 274.05 209.55 229.25Q210.8 169.65 210.85 110Q210.85 91.7 217.45 77.75Q217.25 136.2 215.6 196.25M106.5,95.3Q95.6 116.15 83.7 136.6L82.25 139.1Q98.3 177 106.65 217.65Q108.05 224.55 104.7 230.5Q98.3 221.45 95.6 207.65Q89 173.7 81.15 140.95Q69.55 160.3 56 177.25Q54.5 176.95 53.4 175.95L52.45 182.65Q50.1 198.85 51.2 215.45Q51.6 221.65 48.75 226.75Q46.3 227.35 45.75 224.75Q44.95 165.25 52.95 106.8Q55.65 86.8 56.45 66.5Q56.55 64.55 58.5 64.75Q60.6 113.6 55.05 162.65Q88.25 119.25 112.2 68.25Q113.8 81.35 106.5 95.3M115.45,249.25L114.95 243.25Q135.4 238 147.6 254.45Q150 257.7 150.45 261.9Q152 276.7 144.25 289.6Q139.85 296.85 132.4 301.05Q144.45 329.35 158.35 356.9Q160.2 360.6 157.45 363.7Q145.3 346.8 134.95 328.65Q128.2 316.8 127.25 303.3L116.6 305.1Q115 336.35 108.95 366.95Q108.1 371.4 104.35 373.7Q104.05 370.1 104.1 366.55Q104.4 334.65 109.7 303.1L109.25 302.2Q107 296.4 109.95 290.75L111.5 290.85L117.55 250.05L115.45 249.25M82.5,252Q61.85 248.45 51.85 268.8Q37.75 297.55 39.75 330.85Q40.4 341.65 46.15 350.2Q48.85 354.25 53.95 353.1Q83.05 346.6 98.95 320.75Q103 342.1 82.2 356.6Q65.95 367.9 47.35 363.85Q40.9 362.45 39.45 355.7Q28.8 305.7 49.1 260.45Q56.4 244.15 73 238.25Q89.6 240.4 89.6 257L89.5 257.75Q87.1 259.35 85.35 256.45L82.5 252M117.35,292.75Q139.8 291.85 146.2 268L145.55 264.15Q144.55 260.2 142.2 256.75Q130.9 250.7 118.25 250.1Q118.4 271.35 117.35 292.75M77,378.8L78.5 378.95Q109.35 398.65 108.9 436.7Q108.55 461.95 101.3 485.8L100.1 489.45Q111 499.45 121.55 510.15L122.45 510.95Q140.9 510 147.5 491Q148.3 488.65 150.2 487.95Q152.1 511.7 130.15 522.2Q123.2 525.55 117.45 520Q106.45 509.35 96.1 498.05Q85.25 517.2 61.4 522.3Q47.75 525.2 43.15 511.55Q36.2 491 37.2 468.4Q38.25 444.85 40.8 421.8Q44.15 391.45 70 377.45L77 378.8M72.9,390L72.5 387.7L69 386.95Q53.15 399.25 48.35 418.65Q39.1 455.75 43.35 494.5Q44.35 503.4 51.95 505.4Q74.25 511.4 90.2 491.5L84.5 484.95L75.25 482.7L70.7 484.6Q70.45 484.25 70.5 483.95Q71.7 473.65 82.75 474.2L95 484.85Q98.2 479.95 99.8 474.15Q105.1 454.95 103.25 435.15Q100.3 403.9 73.95 391.85L72.9 390M128.95,383.2Q129 420.95 130.55 459.75Q130.6 461 131.45 461.95Q141.1 466.15 150.45 460.7Q166.85 422.8 162.55 381.9Q162.35 379.85 164.45 379.95Q173.1 403.7 168.25 430.5Q164.85 449.4 156.1 466.5Q145.9 486.45 128.35 471.15Q125 468.25 124.75 463.45Q122.4 422.9 127.95 383.35L128.95 383.2M198.35,375.05L199.7 375.95Q202.15 380.6 202.1 385.7Q202.05 387.7 201.2 389.45Q199.95 388.75 199.55 387.05Q199.05 385.25 197.45 384.45Q195.2 383.2 192.85 385.1L190.95 386.45Q185.3 411.9 182.4 438.05Q186.05 434.9 192.5 432.4L199.95 429.2L203.45 429.45Q207.65 432 206.9 436.95L206.2 439.95Q192.6 445.25 180.85 453.7Q179.15 474.95 179.15 496.7Q179.15 504.2 181.7 510.95Q197.05 510 203.75 493.35Q204.65 491.1 206.95 490.2Q214.55 504.45 200.35 519.55Q195.05 525.1 187.95 528.2Q169.25 523.25 172.3 501.25Q173.8 490.55 174.1 479.7Q175.45 429.5 187.2 381.7Q188.65 376 193.95 373.95Q196.55 373.45 198.35 375.05M233.2,377.45Q236.95 381.75 235.2 384.95L234.95 384.7L240.15 443.8L241.95 442.95L244.4 443.45L245.2 443.95Q248 448.65 246.35 453.75L245.2 455.95L241.4 457.7L245.55 501.1Q246.25 508.25 248.15 514.85Q250.35 522.5 244.45 526.45Q239.55 493.5 235.6 460.05Q228.1 462.8 220.45 464.2L220 466.25Q216.65 481.6 210.65 495.35Q210.45 495.85 209.45 495.95Q206.55 474.65 213.95 451.9Q218.45 437.85 220.55 423.1Q224.05 397.85 233.2 376.7L233.15 377.6L233.2 377.45M234.05,446.6L230.2 409.95L223.05 451.75L234.05 446.6" />
</g>
</svg>
