<?xml version="1.0" encoding="utf-8"?>
<svg version="1.1" id="Layer_1"
xmlns="http://www.w3.org/2000/svg"
xmlns:xlink="http://www.w3.org/1999/xlink"


xml:space="preserve">
q-12.2 23.5 -16.15 51.7q-8.2 57.95 -18.7 115.5q-10.7 58.45 -24.7 116.35q-3.55 14.7 -9.05 28.65q-6.3 16.15 -0.9 29.5q18.2 -53.05 29.15 -109.05q11.35 -58 19.9 -116.5q6.4 -43.5 17.3 -86.1q1.45 25.7 5.35 50.95q8.95 58.2 13.15 116.85q1.2 16.65 7.9 28.15q0.5 -0.75 0.5 -1.5q1.65 -3.65 0.65 -7.15q4.4 -20.75 8.2 -41.8q10.45 -58.15 24.75 -115.8q3.6 -14.55 8.4 -28.6q-0.2 27.5 3.35 54.8q7.55 58.45 14.2 116.95q1.85 16.35 9.3 28.35q4.9 -12.35 1.6 -26.6q-9.1 -39 -13.15 -79q-6 -58.8 -14.65 -117.25q-8.75 -58.45 -14.05 -116.85q-0.95 -0.15 -1 0.75q-2 1.3 -3.6 3.3q-12.65 49.9 -24.7 100.6q-6.8 28.75 -14.05 57.2q-2.1 8.25 -3.35 16.4q-2.65 -30.4 -7.45 -60.75q-9.2 -58.55 -12.7 -116.95q-1.8 0.3 -2.75 2q-2.9 5.3 -3.95 11.8q-9.4 58.35 -19.15 116.4q-5.25 -36.2 -14 -72.1q-14.05 -57.6 -32.65 -113.15q-4.05 2.55 -2.3 8.6q13.8 47.35 24.85 95.65q13 56.85 25.45 112.95q2.65 0.75 2.4 -1.85q1.8 -2.75 2.85 -5.95q0.15 -27.95 5.45 -55.3q8.55 -44.05 14.15 -87.4q6.05 36.55 14.65 72.55q6.85 28.75 10 57.85q1.85 16.75 9.5 28.3q2.85 -1.85 3.1 -5q3.3 -6.75 4.65 -14.75q9.65 -57.8 16.85 -116.25q3.65 -29.3 9.45 -58.15q3.15 -15.6 2.1 -29.6q-2.05 0 -3.5 1.75q-6 25.55 -9.05 51.7q-6.95 58.65 -15.7 117.05q-2.15 14.35 -7.3 27.8q-10.25 -52.55 -24.4 -104.25q-7.75 -28.05 -6.85 -55.9q4.45 -5.1 10.15 -7.6q33.5 -14.6 59.5 11.35q2.6 4.05 4.25 8.35q0.45 1.25 1.55 1.9q2.55 -5.95 0.15 -12.3q-14.35 -37.7 -58.15 -35.45q-16.2 5.55 -26.75 20.5q-27.15 38.3 -33.95 85.5q-6.3 43.85 -5.45 88.75q1.1 59.1 13.95 115.95q10.2 45.3 51.8 65.35q5.8 2.8 12 0.7q17.85 -6.15 34.8 -14.55q31.4 -15.55 34.1 -47.5q-0.25 -0.1 -0.45 0.15q-10.35 10.85 -22.45 19.65q-22.9 16.55 -48.8 11q-41.85 -27.9 -47.55 -78.25q-4.1 -36.85 -6.45 -74.15q-3.45 -56.5 6.7 -111.35q7.35 -39.5 33.1 -69.2<g id="2894" transform="matrix(1, 0, 0, 1, -31.95, 0)">
<path style="fill:#000000;fill-opacity:1" d="M335.2,97.75Q338.7 156.15 347.9 214.7Q352.7 245.05 355.35 275.45Q356.6 267.3 358.7 259.05Q365.95 230.6 372.75 201.85Q384.8 151.15 397.45 101.25Q399.05 99.25 401.05 97.95L401.2 95Q401.25 94.1 402.2 94.25Q407.5 152.65 416.25 211.1Q424.9 269.55 430.9 328.35Q434.95 368.35 444.05 407.35Q447.35 421.6 442.45 433.95Q435 421.95 433.15 405.6Q426.5 347.1 418.95 288.65L403.8 171.55Q400.25 144.25 400.45 116.75L399.8 118.8Q395 132.85 391.4 147.4Q377.1 205.05 366.65 263.2Q362.85 284.25 358.45 305Q359.45 308.5 357.8 312.15L358.2 322Q358.2 322.75 357.7 323.5Q351 312 349.8 295.35Q345.6 236.7 336.65 178.5Q332.75 153.25 331.3 127.55Q320.4 170.15 314 213.65Q305.45 272.15 294.1 330.15Q283.15 386.15 264.95 439.2Q259.55 425.85 265.85 409.7Q271.35 395.75 274.9 381.05Q288.9 323.15 299.6 264.7Q310.1 207.15 318.3 149.2Q322.25 121 334.45 97.5L334.55 98.95L335.2 97.75M209.15,180.9Q208.25 208.75 216 236.8Q230.15 288.5 240.4 341.05Q245.55 327.6 247.7 313.25Q256.45 254.85 263.4 196.2Q266.45 170.05 272.45 144.5Q273.9 142.75 275.95 142.75L276.2 142.75Q277.25 156.75 274.1 172.35Q268.3 201.2 264.65 230.5Q257.45 288.95 247.8 346.75Q246.45 354.75 243.15 361.5L243.05 362.7Q242.8 365.85 239.95 367.7Q232.3 356.15 230.45 339.4Q227.3 310.3 220.45 281.55Q211.85 245.55 205.8 209Q200.2 252.35 191.65 296.4Q186.35 323.75 186.2 351.7Q185.15 354.9 183.35 357.65L182.95 357.95L182.25 356.6L182.85 362.1Q183.1 364.7 180.45 363.95Q168 307.85 155 251Q143.95 202.7 130.15 155.35Q128.4 149.3 132.45 146.75Q151.05 202.3 165.1 259.9Q173.85 295.8 179.1 332L179.6 328.9L182.15 314.2Q191.9 256.15 201.3 197.8Q202.35 191.3 205.25 186L206.2 181Q207.15 179.3 208.95 179L209.2 179L209.15 180.3L209.2 180.3L209.15 180.9M45.95,177.7Q35.8 232.55 39.25 289.05Q41.6 326.35 45.7 363.2Q51.4 413.55 93.25 441.45Q119.15 447 142.05 430.45Q154.15 421.65 164.5 410.8L178.45 395.7L178.65 395.1Q178.85 394.85 179.1 394.95L179.4 395.5L179.45 396.2Q176.75 428.15 145.35 443.7Q128.4 452.1 110.55 458.25Q104.35 460.35 98.55 457.55Q56.95 437.5 46.75 392.2Q33.9 335.35 32.8 276.25Q31.95 231.35 38.25 187.5Q45.05 140.3 72.2 102Q82.75 87.05 98.95 81.5Q142.75 79.25 157.1 116.95Q159.5 123.3 156.95 129.25Q155.85 128.6 155.4 127.35L152.95 120.6Q151.3 116.3 148.7 112.25Q122.7 86.3 89.2 100.9Q83.5 103.4 79.05 108.5Q53.3 138.2 45.95 177.7" />
</g>
</svg>
