<?xml version="1.0" encoding="utf-8"?>
<svg version="1.1" id="Layer_1"
xmlns="http://www.w3.org/2000/svg"
xmlns:xlink="http://www.w3.org/1999/xlink"


xml:space="preserve">
q-5.25 4.65 -2.5 12.9q6.85 20.85 11.95 41.9q13.9 57.05 15.25 115.9q0.3 13.15 6.8 20q6 -8.75 9.3 -19.9q8.65 -29.1 7.55 -57.5q-0.8 -0.15 -1.15 0.45q-3.85 6.35 -5.5 13.45q-13.55 56.8 -29.55 112.85q-4.05 14.2 -10.5 27.75q-3.45 7.25 -4.8 14.15q-1 -3.1 -1.4 -8.4q-1.55 -21.75 -4.95 -43.25q-9.15 -57.9 -24.4 -114.25q-3.55 48.6 -1.4 98.95q1.3 30.1 -2.1 59.85q-1.85 16.5 3.5 29.9q0.9 -0.6 1 -1.35q5.3 -33.95 4.75 -68.9q-0.95 -59.8 -5.25 -118.45q2.3 -49.55 -1.15 -98.55q-3.85 10.7 -3.8 24.25q0.2 59.55 -3.05 118.5q-0.8 15.15 -4.7 29.55q-3.6 13.55 3.05 21.9q3.5 -8.9 4.25 -18.75q13.65 -19.25 25.9 -39.5q18.4 56.8 40.35 110.35q3.35 -4.25 1.8 -9.35q-16.9 -55.4 -38.45 -108.15q7.3 -12.35 14.05 -25.05q2.7 -5.05 6.05 -9.55q14.15 -19 12.55 -39.85q-14.5 22.2 -27.65 47.1q-13.7 26 -32.25 48.7<g id="3058" transform="matrix(1, 0, 0, 1, -134.1, 0)">
<path style="fill:#000000;fill-opacity:1" d="M339.45,182.5L340.2 183.25Q355.45 239.6 364.6 297.5Q368 319 369.55 340.75Q369.95 346.05 370.95 349.15Q372.3 342.25 375.75 335Q382.2 321.45 386.25 307.25Q402.25 251.2 415.8 194.4Q417.45 187.3 421.3 180.95Q421.65 180.35 422.45 180.5Q423.55 208.9 414.9 238L381.25 350.8Q377.95 361.95 371.95 370.7L371.5 369.2L369.95 372.45Q363.45 365.6 363.15 352.45Q361.8 293.6 347.9 236.55Q342.8 215.5 335.95 194.65Q333.2 186.4 338.45 181.75L339.45 182.5M283.45,181.5Q287.75 240.15 288.7 299.95Q289.25 334.9 283.95 368.85Q283.85 369.6 282.95 370.2Q277.6 356.8 279.45 340.3Q282.85 310.55 281.55 280.45Q279.4 230.1 282.95 181.5L283.45 181.5M151.55,274.3Q170.1 251.6 183.8 225.6Q196.95 200.7 211.45 178.5Q213.05 199.35 198.9 218.35Q195.55 222.85 192.85 227.9Q186.1 240.6 178.8 252.95Q200.35 305.7 217.25 361.1Q218.8 366.2 215.45 370.45Q193.5 316.9 175.1 260.1L174.9 259.5Q162.65 279.75 149 299L145 352.7Q144.25 362.55 140.75 371.45Q134.1 363.1 137.7 349.55Q141.6 335.15 142.4 320Q145.65 261.05 145.45 201.5Q145.4 187.95 149.25 177.25Q152.7 226.25 150.4 275.8L151.55 274.3" />
</g>
</svg>
