<?xml version="1.0" encoding="utf-8"?>
<svg version="1.1" id="Layer_1"
xmlns="http://www.w3.org/2000/svg"
xmlns:xlink="http://www.w3.org/1999/xlink"


xml:space="preserve">
q-8.85 22.4 -13.2 46.35q-10.6 58.05 -20 116.35q-2.3 14.6 -5.35 28.95q-1.5 7.15 -1.35 13.5q-13.6 -46.05 -28.45 -91.45q-0.25 -0.4 -0.2 -0.75q0.2 -3.85 -2.05 -6.75q-13.1 40.45 -24.2 82.8q-2.3 -39.5 -7.25 -79.35q-7.3 -59 -17.85 -116.8q-3 11.55 -0.7 25.8q6.45 39.45 10.85 79.3q0.3 1.7 2 2q1.55 -0.4 1.5 -2q10.9 -48.05 22.8 -95.45q1.5 13.4 6.2 27.45q7.9 23.5 15.15 46.85q4.85 15.5 11.6 27q1.85 -2.4 1.7 -5.2q5.5 -22.25 8.7 -45.85q7.85 -58.3 18.4 -116.5q2.65 -14.65 7.4 -28.75q5.25 -15.6 4.3 -29.7q-1.5 0.4 -2.5 1.7q-13.1 -29.35 -47.75 -26.35q-21.2 8.6 -31.25 29.6q-19.65 40.9 -26.8 85.65q-9.25 58.25 -3.8 117.2q1.05 11.4 6.8 21.1q17.5 29.75 53.35 37.9q14.4 3.25 28.15 -1.6q49.7 -17.55 43.05 -68.65q-0.35 12.8 -5.2 25.05q-7.15 18.25 -26.6 24.2q-35.5 10.95 -67.15 -9.7q-7.65 -5 -12.05 -12.75q-15.5 -27.25 -13.35 -59.85q1.8 -27.8 5.25 -55.15q22.6 3.05 43.85 -2.3q2.35 -6.5 -1.4 -12q5.8 -39.05 20.05 -75.75q6.55 -16.9 21.95 -27.15q22.3 -14.85 44.7 1.5q9.6 7 13.9 15.45q2.4 -5.75 0 -11.15q-3.15 35.45 -1.15 72.8q3.15 59.5 -0.35 118.5q-1.85 31.6 -20.25 56.75q-6.55 9 -15.75 15.75q-17.8 12.95 -39.35 7.65q-29.75 -7.4 -32.6 -37.65q-5.5 -58.95 -2 -118.35q3.5 -59.85 1.2 -118.45q-3.65 12 -3.9 26.75q-0.7 41.9 -2.45 83.95q-2.45 59 -1.75 118.5q0.45 36.5 30.25 54.85q14.3 8.8 29.95 3.5q55.5 -18.85 60.65 -76.7q5.3 -59.4 3.45 -119.4q-0.95 -29.65 0 -59.15q0.5 -16.8 -5.95 -29.3q18.1 10.75 28.35 29.05q11.55 20.6 0.4 41.55q-10.8 20.15 -33.1 22.55q-22.6 2.4 -30.05 -22.4q-6.45 -21.5 -1.1 -43.25q5.8 -23.45 27.85 -30.8q2.8 -0.85 5.6 -0.75q-24.8 49.95 7.05 94.75q4 5.65 10.75 5.1q47.15 -3.6 52.9 -51.15q2.2 -18.35 -6.55 -33.8q-5.1 -9 -11.35 -17.5q-13.3 -18.15 -34.4 -18.7q-11.85 8.05 -18.4 21.3q-14.95 17.5 -16.7 40.75q-1.3 17.65 7.3 32.6q10.2 17.75 30.9 20.4q13.8 -4.9 22 -16.05q4 -5.35 -1 -10.7q-18.55 -1.05 -26.45 -17.1q-4.7 -9.6 -4 -20.3q0.35 -1.9 0 -3.65q0.5 -9.4 5.65 -19.2q9.05 -3.75 18.5 -1.2q6 1.7 10.45 5.95q-0.45 -6.5 -5.6 -11.6q-4.35 -4.25 -10.15 -5.6q-4.5 -1.1 -9.25 -0.8q-12.9 -37.8 -55.6 -35.55q-34.65 11.9 -50.2 45.75q-16.4 35.6 -21.4 74.55q-7.6 59.15 -5.6 119.5q1.9 58.5 1.55 116.9q-0.15 31.6 21.4 53.25q22.25 22.3 51.2 33.8q8.8 3.55 18.4 -0.9q31.6 -14.5 42.8 -48.9q4.1 -12.75 -3.45 -18.25q-5.1 18.6 -15.1 35.05q-13.25 21.9 -39.2 16.15q-18.25 -4.05 -34.2 -13.3q-27.25 -15.85 -31.1 -46.1q-5.5 -43.6 -5.65 -88.25q-0.15 -43.4 0.8 -87q0.8 -34.85 4.3 -69.15q4.2 -41.7 24.45 -77.85q4.25 -3.95 7.7 -8.85q18.55 -26.6 50.6 -20.2q28.9 5.8 37.15 33.05q3.55 -6.55 1.15 -13.7q-0.3 2.75 0.95 5.05q7.4 11.45 19.15 18q0.75 -1.25 1.15 -2.7q2.1 -7.3 -4.35 -12.15q-2.25 -1.7 -4 -3.9q-13.7 -17.2 -25.45 -35.7q3.7 -1.2 6.25 -4.25q8.7 -10.45 8.95 -23.75q-2.4 -14.7 -13.9 -24.45q-1.1 0.45 -1.95 1.2q23.55 23.3 -6.85 35.2q-3.25 1.2 -7 1.1q-2.6 31.6 -0.65 63.15q3.7 -5.65 0.75 -11.75q3.75 -30.8 0.95 -60.75q-3.35 3.8 -3.85 10.1q4.35 -20.65 -16.25 -25.25q-37.05 44.15 -10.15 99.3q4.1 8.35 13.4 4.55q15.3 -13.3 8 -29.75q-4.2 19.8 -23.75 20.75q-21.95 -45.25 9.35 -76.7q2.5 -2.55 6.65 -2.55q11.95 4.85 25 1q2.05 -5.25 -0.95 -9.75q-12.2 1.85 -24 2.75q-1.2 2.95 -0.1 5.95q-12.05 20.15 -1.65 40.45q11.9 23.25 29.95 -2.2q14.35 -20.25 5.45 -40.15q-0.85 16.7 -10.6 30.8q-13.75 20 -20.35 3.25q-2.95 -7.45 -2.85 -16.35q7.35 5.15 15.5 3q16.6 14.4 12.95 36.25q-5.35 7.35 -0.1 11.6q-23.9 24 -45.3 -4.35q-8.2 -10.85 -4.85 -24.7q3.9 -16.05 19.2 -22.9q-15.45 14.8 -15.45 36.55q0 23.5 19.35 36.8q20.1 13.7 36.85 -3.95q3.8 -4.05 6.25 -9.2q21 18.3 46.85 20.05q7.45 0.9 14.15 -4q13.15 -9.7 7.05 -23.7q-2.45 7.35 -8.9 12.2q-9.4 7.05 -19.9 2.8q-18.4 -7.4 -35.8 -17q3 -14.4 -2.05 -28.25q-5.55 -15.45 -19.8 -23.25q-15.4 -8.4 -28.6 0.95<g id="2891" transform="matrix(1, 0, 0, 1, -9.8, 0)">
<path style="fill:#000000;fill-opacity:1" d="M377.95,19.3L378.2 19.25Q379.15 33.35 373.9 48.95Q369.15 63.05 366.5 77.7Q355.95 135.9 348.1 194.2Q344.9 217.8 339.4 240.05Q339.55 242.85 337.7 245.25Q330.95 233.75 326.1 218.25Q318.85 194.9 310.95 171.4Q306.25 157.35 304.75 143.95Q292.85 191.35 281.95 239.4L281.45 240.25L280.35 237.65L280.45 240.75Q280.5 242.35 278.95 242.75Q277.25 242.45 276.95 240.75L264.35 123.6Q259.95 83.75 253.5 44.3Q251.2 30.05 254.2 18.5Q264.75 76.3 272.05 135.3Q277 175.15 279.3 214.65L279.9 212Q291 169.65 304.1 129.2L304.2 126L304.7 127.4L305.2 125.75Q307.45 128.65 307.25 132.5Q307.2 132.85 307.45 133.25L307.1 134.7Q321.95 180.1 335.55 226.15Q335.4 219.8 336.9 212.65Q339.95 198.3 342.25 183.7Q351.65 125.4 362.25 67.35Q366.6 43.4 375.45 21Q376.45 19.7 377.95 19.3M467.7,289.25Q463.4 280.8 453.8 273.8Q431.4 257.45 409.1 272.3Q393.7 282.55 387.15 299.45Q372.9 336.15 367.1 375.2L408.45 370.95Q412.2 376.45 409.85 382.95L409.45 383.7Q388.2 389.05 365.6 386Q362.15 413.35 360.35 441.15Q358.2 473.75 373.7 501Q378.1 508.75 385.75 513.75Q417.4 534.4 452.9 523.45Q472.35 517.5 479.5 499.25Q484.35 487 484.7 474.2L483.8 471.45L485.6 470.7L486.2 471.45L486.75 471.8L488.4 472.4L489.45 472.95Q496.1 524.05 446.4 541.6Q432.65 546.45 418.25 543.2Q382.4 535.05 364.9 505.3Q359.15 495.6 358.1 484.2Q352.65 425.25 361.9 367Q369.05 322.25 388.7 281.35Q398.75 260.35 419.95 251.75Q454.6 248.75 467.7 278.1Q470.1 283.5 467.7 289.25M351.4,285.55Q350.45 315.05 351.4 344.7Q353.25 404.7 347.95 464.1Q342.8 521.95 287.3 540.8Q271.65 546.1 257.35 537.3Q227.55 518.95 227.1 482.45Q226.4 422.95 228.85 363.95Q230.6 321.9 231.3 280Q231.55 265.25 235.2 253.25Q237.5 311.85 234 371.7Q230.5 431.1 236 490.05Q238.85 520.3 268.6 527.7Q290.15 533 307.95 520.05Q317.15 513.3 323.7 504.3Q342.1 479.15 343.95 447.55Q347.45 388.55 344.3 329.05Q342.3 291.7 345.45 256.25Q351.9 268.75 351.4 285.55M202.65,28.15Q199.85 28.05 197.05 28.9Q175 36.25 169.2 59.7Q163.85 81.45 170.3 102.95Q177.75 127.75 200.35 125.35Q222.65 122.95 233.45 102.8Q244.6 81.85 233.05 61.25Q222.8 42.95 204.7 32.2L202.65 28.15M191.95,17.75Q213.05 18.3 226.35 36.45Q232.6 44.95 237.7 53.95Q246.45 69.4 244.25 87.75Q238.5 135.3 191.35 138.9Q184.6 139.45 180.6 133.8Q148.75 89 173.55 39.05Q180.1 25.8 191.95 17.75M171.95,139.1Q176.7 138.8 181.2 139.9Q187 141.25 191.35 145.5Q196.5 150.6 196.95 157.1L193.45 157.5L191.9 156Q187.45 151.75 181.45 150.05Q172 147.5 162.95 151.25L159.6 157.3Q154.45 167.1 153.95 176.5L190.85 178.2L191.05 178.55L191.95 181.55Q192.3 183.3 191.95 185.2L191.25 187.05L190.45 188.25L152.75 184.35Q152.05 195.05 156.75 204.65Q164.65 220.7 183.2 221.75L203.95 210.95L205.95 207.25Q210.95 212.6 206.95 217.95Q198.75 229.1 184.95 234Q164.25 231.35 154.05 213.6Q145.45 198.65 146.75 181Q148.5 157.75 163.45 140.25L171.95 139.1M143.45,64.5Q135.2 37.25 106.3 31.45Q74.25 25.05 55.7 51.65Q52.25 56.55 48 60.5Q27.75 96.65 23.55 138.35Q20.05 172.65 19.25 207.5Q18.3 251.1 18.45 294.5Q18.6 339.15 24.1 382.75Q27.95 413 55.2 428.85Q71.15 438.1 89.4 442.15Q115.35 447.9 128.6 426Q138.6 409.55 143.7 390.95Q151.25 396.45 147.15 409.2Q135.95 443.6 104.35 458.1Q94.75 462.55 85.95 459Q57 447.5 34.75 425.2Q13.2 403.55 13.35 371.95Q13.7 313.55 11.8 255.05Q9.8 194.7 17.4 135.55Q22.4 96.6 38.8 61Q54.35 27.15 89 15.25Q131.7 13 144.6 50.8Q147 57.95 143.45 64.5M79.7,131Q80.55 130.25 81.65 129.8L83.8 129L88.25 128Q99.75 137.75 102.15 152.45L102.25 154.05Q102 167.35 93.3 177.8Q90.75 180.85 87.05 182.05Q98.8 200.55 112.5 217.75Q114.25 219.95 116.5 221.65Q122.95 226.5 120.85 233.8Q120.45 235.25 119.7 236.5Q107.95 229.95 100.55 218.5L99.4 216.55L84.2 188.2Q82.95 185.9 83.25 183.15L71.35 182.9L64.3 232.35L61.8 232.75L68.05 172.15L74.5 129L76.8 133.85L79.7 131M76.3,140.3L72.65 172.55Q76.4 172.65 79.65 171.45Q110.05 159.55 86.5 136.25L79.5 138L76.3 140.3M143.2,253.5Q146 283.45 142.25 314.25L142.2 315L180.2 316.5Q183.15 322.6 179.45 328.25L138.7 326.75Q136.75 295.2 139.35 263.6Q139.85 257.3 143.2 253.5M189.55,455Q158.25 486.45 180.2 531.7Q199.75 530.75 203.95 510.95Q211.25 527.4 195.95 540.7L191.2 542.8Q181.9 546.6 177.8 538.25Q150.9 483.1 187.95 438.95Q208.55 443.55 204.2 464.2L196.2 452.45Q192.05 452.45 189.55 455M173.05,488L173.45 487.2Q185.25 486.3 197.45 484.45Q200.45 488.95 198.4 494.2L197.95 494.95Q184.9 498.8 172.95 493.95Q171.85 490.95 173.05 488M119.15,474Q119.05 482.9 122 490.35Q128.6 507.1 142.35 487.1Q152.1 473 152.95 456.3Q161.85 476.2 147.5 496.45Q129.45 521.9 117.55 498.65Q107.15 478.35 119.2 458.2L119.15 474M52.5,464.1L50 463.7Q34.7 470.55 30.8 486.6Q27.45 500.45 35.65 511.3Q57.05 539.65 80.95 515.65L74 510.45L66.75 511.2L64.9 513.55Q59.65 509.3 65 501.95L68 499.95L71 499.7L83.7 506.45Q87.35 484.6 70.75 470.2Q62.6 472.35 55.25 467.2L54.65 465.05L52.5 464.1M67.75,458.2Q82 466 87.55 481.45Q92.6 495.3 89.6 509.7Q107 519.3 125.4 526.7Q135.9 530.95 145.3 523.9Q151.75 519.05 154.2 511.7Q160.3 525.7 147.15 535.4Q140.45 540.3 133 539.4Q107.15 537.65 86.15 519.35Q83.7 524.5 79.9 528.55Q63.15 546.2 43.05 532.5Q23.7 519.2 23.7 495.7Q23.7 473.95 39.15 459.15Q52.35 449.8 67.75 458.2" />
</g>
</svg>
