<?xml version="1.0" encoding="utf-8"?>
<svg version="1.1" id="Layer_1"
xmlns="http://www.w3.org/2000/svg"
xmlns:xlink="http://www.w3.org/1999/xlink"


xml:space="preserve">
q-30.15 33.85 -7.45 78.5q9.25 18.1 17.8 36.55q6.15 13.4 4.5 28.1q-2.45 22 -22.6 28.5q-9 2.9 -18 -0.45q4.8 -9.7 -2.25 -15.75q-15.75 36.8 22.95 30.6q13 -1.85 18.3 -14.2q9.6 -22.35 4.95 -46.25q-5.75 -29.45 -20.25 -56.1q-10.85 -20 -6.3 -42.4q2.85 -14.15 17.6 -11.6q0.8 -13.95 -12.95 -16.45q-4.2 44.25 -4.1 89.5q-14.2 -0.8 -27.5 2.6q2 -30.4 0 -59.3q-7.15 23.4 -8.25 50.9q-1.05 26.35 -1.4 53.3q-0.4 29.7 -4.5 59.05q-2.35 16.55 2.65 29.95q0.9 -0.6 1.1 -1.4q5.3 -21.65 6.05 -44.05q0.7 -20.95 1.7 -41.9q16.55 0.65 32.95 0.25q0.8 30.3 -3.9 59.7q-2.3 14.2 4.9 21.8q3.6 -7.65 3.95 -16.45q2.2 -59.25 2.55 -119.25q0.2 -30.45 -3 -59.25q-0.75 0.1 -0.75 0.3q-24.45 54.2 -50.1 107.55q-3.15 6.6 -7.15 12.5q0.15 -30 1.3 -59.9q1.15 -30.4 -1.55 -59.3q-6.5 52 -5.65 106.4q0.45 30.1 -2.7 59.85q-1.85 17 2.9 29.4q0.85 -0.75 0.95 -1.6q2.5 -18.05 3.85 -36.35q1.9 -1.85 3.05 -4.55q12.95 -30.5 26.85 -60.55q4.65 23.7 11.15 47.7q8.05 29.7 22.6 54.85q1.45 -0.4 2.05 -1.6q4.4 -8.9 1.95 -18.15q-10.65 -24.15 -16.8 -49.5q-5.25 -21.6 -13.9 -40.95q9.35 -20.05 19.1 -39.85q2.35 -4.7 4.9 -9q10.3 -17.3 7.95 -34.65q-3.2 0.35 -4.65 3.65q-7.3 12.05 -11.7 25.65q-5.75 17.55 -9.35 35.4q-10.65 53.2 10.85 101.15q3.35 7.55 11 10.35q31.7 11.7 47.05 -20.25q26.2 -54.6 14.35 -115q-7.15 -36.25 -39.4 -50.15q-2.55 0.4 -3.25 2.8q-5.85 3.4 -9.3 9.1q-0.6 38.05 -28.8 61.35q-4.3 3.55 -9.6 3.5q-28.25 -0.2 -33 -29.8q-6.8 -42.1 4.6 -83.85q2.05 -7.65 3.3 -15.4q3.6 -22.3 24.35 -25.75q8.5 1.7 14.55 7.7q23.85 23.75 24.55 59.05<g id="2922" transform="matrix(1, 0, 0, 1, -137.75, 0)">
<path style="fill:#000000;fill-opacity:1" d="M363.85,193.95L359.65 194.6L358.2 192.75Q343.45 190.2 340.6 204.35Q336.05 226.75 346.9 246.75Q361.4 273.4 367.15 302.85Q371.8 326.75 362.2 349.1Q356.9 361.45 343.9 363.3Q305.2 369.5 320.95 332.7Q328 338.75 323.2 348.45Q332.2 351.8 341.2 348.9Q361.35 342.4 363.8 320.4Q365.45 305.7 359.3 292.3Q350.75 273.85 341.5 255.75Q318.8 211.1 348.95 177.25L350.9 177.5Q364.65 180 363.85 193.95M421.45,178.5Q424.65 207.3 424.45 237.75Q424.1 297.75 421.9 357Q421.55 365.8 417.95 373.45Q410.75 365.85 413.05 351.65Q417.75 322.25 416.95 291.95L416.75 283.1Q400.35 283.5 383.8 282.85Q382.8 303.8 382.1 324.75Q381.35 347.15 376.05 368.8Q375.85 369.6 374.95 370.2Q369.95 356.8 372.3 340.25Q376.4 310.9 376.8 281.2Q377.15 254.25 378.2 227.9Q379.3 200.4 386.45 177Q388.45 205.9 386.45 236.3L384.45 270.3Q397.75 266.9 411.95 267.7L416.6 268.3Q416.5 223.05 420.7 178.8Q420.7 178.6 421.45 178.5M212.45,179.25Q214.8 196.6 204.5 213.9Q201.95 218.2 199.6 222.9Q189.85 242.7 180.5 262.75Q189.15 282.1 194.4 303.7Q200.55 329.05 211.2 353.2L214.2 353L214.95 352.7Q217.4 361.95 213 370.85Q212.4 372.05 210.95 372.45Q196.4 347.3 188.35 317.6Q181.85 293.6 177.2 269.9Q163.3 299.95 150.35 330.45Q149.2 333.15 147.3 335Q145.95 353.3 143.45 371.35Q143.35 372.2 142.5 372.95Q137.75 360.55 139.6 343.55Q142.75 313.8 142.3 283.7Q141.45 229.3 147.95 177.3L148.5 177.25Q151.2 206.15 150.05 236.55Q148.9 266.45 148.75 296.45L148.65 305.95L150.55 302.95Q154.55 297.05 157.7 290.45Q183.35 237.1 207.8 182.9Q209.25 179.6 212.45 179.25M259.45,184.25L261 184.05L265.7 183.75Q266.4 181.35 268.95 180.95L272.95 180.5Q305.2 194.4 312.35 230.65Q324.2 291.05 298 345.65Q282.65 377.6 250.95 365.9Q243.3 363.1 239.95 355.55Q218.45 307.6 229.1 254.4Q232.7 236.55 238.45 219Q242.85 205.4 250.15 193.35Q253.6 187.65 259.45 184.25M308.05,264.5Q307.35 229.2 283.5 205.45Q277.45 199.45 268.95 197.75Q248.2 201.2 244.6 223.5Q243.35 231.25 241.3 238.9Q229.9 280.65 236.7 322.75Q241.45 352.35 269.7 352.55Q275 352.6 279.3 349.05Q307.5 325.75 308.1 287.7L308.05 264.5" />
</g>
</svg>
