<?xml version="1.0" encoding="utf-8"?>
<svg version="1.1" id="Layer_1"
xmlns="http://www.w3.org/2000/svg"
xmlns:xlink="http://www.w3.org/1999/xlink"


xml:space="preserve">
q-1.25 53.25 -5.4 106q-20.9 0.25 -40.5 6.25q-4.45 2.35 -4.7 7.75q-2.5 48.7 -6.05 97.25q-1.65 22.7 -7.35 44.55q-5.15 19.75 -0.55 37.1q2.3 -0.1 2.95 -2.5q9.85 -37.8 12.25 -77.15q2.9 -47.15 4.8 -94.45q19.7 -3.15 39.7 -3.55q-5.1 57.55 -15.95 114.15q-4.5 23.35 1.25 44.5q1 -0.35 1.1 -0.9q5.1 -28.8 9.15 -58.3q8 -58.5 12.8 -117.75q4.9 -59.85 2.7 -118.5q-4.15 6.45 -4.4 15.75q-1.2 -0.55 -2.45 -0.9q-3.4 1.55 -7.6 2.5q-45.4 10.1 -92.3 13.9q-11.85 0.95 -23.15 4.5q-40.7 13 -81.45 24.1q-0.5 0.35 -0.7 0.85q-2.4 5.35 0.7 9.65q19.5 -0.25 37.85 -8.45q28.95 -12.9 60.3 -15.5q-4.65 53 -4.2 107.05q0.15 22.15 1.8 44.1q4.5 59.75 -1.25 119.4q-0.55 5.55 -2.1 10.7q-4.7 15.6 3 26.25q8.85 -39.3 7.15 -81.4q-2.35 -59.1 -2.35 -118.55q0.05 -54.6 -0.25 -107.75q44.95 -4.85 88.45 -14.75q5.05 -5.7 1.35 -12.65q20.15 -22.1 44.15 -8.5q1.55 -6.4 -1.25 -11.9q-1.05 -2.1 -2.75 -3.85q-7.25 -3 -15.35 -1.8q-31 7.95 -37.25 39.6q-8.75 44.2 -3.5 89.15q1.3 11.05 8.9 18.3q22.4 21.5 46.55 2.95q19.2 -14.75 22.55 -36q-8.85 1.75 -14.35 9.55q-22.35 31.85 -54.9 9.7q-9.8 -39.55 -3.4 -79.75q2.45 -15.4 12.75 -26.75q4.5 -1.95 8.95 -2.8q19.8 2.8 37.15 16.2q17.2 13.25 19.95 35.1q2.75 21.7 -7.05 40.9q-10.65 21 -32.6 26q-23.2 5.45 -37.4 -12.75q-12.85 -16.4 -16.8 -37.05q-3.85 -20.35 1.6 -40.3q5.6 -20.55 25.4 -28.9q-18.8 -19.4 -48.05 -16.7q-37.3 15.7 -36.15 57.5q0.5 17.8 1.15 35.3q1.3 37.15 34.9 51.5q29.4 12.5 48.25 -11.2q31.7 -39.8 16 -89.4q-4.95 -15.45 -16.1 -27q6.25 5 10.2 11.3q0.8 1.3 2.1 2.1q0.25 0.2 0.6 0.2q3.6 -11 -4.75 -19.45q-19.65 -19.9 -49.5 -14.3q-24.1 7.2 -36.85 28.3q-17.8 29.55 -28.45 62.65q-6.4 19.9 -10 40.5q-10.45 59.65 4.1 118q1.85 7.55 3.25 15.3q6.45 35.45 35.3 55.5q13.15 9.15 29.3 5.25q21.2 -5.05 42.1 -11.85q44.6 -14.55 40.25 -59.4q-4.9 8.45 -10.75 16.35q-15.3 20.55 -41.1 27.25q-11.45 2.95 -22.95 5.3q-36 7.4 -55.2 -23.85q-3.25 -5.3 -5.15 -11.1q-8.15 -25.2 -11.65 -50.9q-7.75 -56.7 5.05 -112.95q7.9 -34.8 27.7 -64.6q5.35 -8.1 12.35 -14.65q27.8 -26.25 63.2 -9.6q-4.4 6.45 0.95 12.35q-3.95 5.45 -0.95 11.55q-11.8 41.25 -4.9 80.45q9.65 -39.55 11.9 -80.45q16.25 44.95 45.7 79.9q2.15 -26.4 -20.2 -52.1q-12.2 -13.95 -22.1 -29.9q34.25 -28.15 16.65 -67.95q-7.8 -17.65 -27.5 -19.8q-6.5 -0.65 -12.45 2.3q6.1 24.55 -13.7 41.5q-9.75 8.35 -22.7 8.25q28.05 -10.85 35.85 20.4<g id="2940" transform="matrix(1, 0, 0, 1, -21.2, 0)">
<path style="fill:#000000;fill-opacity:1" d="M528.2,88Q530.4 146.65 525.5 206.5Q520.7 265.75 512.7 324.25Q508.65 353.75 503.55 382.55Q503.45 383.1 502.45 383.45Q496.7 362.3 501.2 338.95Q512.05 282.35 517.15 224.8Q497.15 225.2 477.45 228.35Q475.55 275.65 472.65 322.8Q470.25 362.15 460.4 399.95Q459.75 402.35 457.45 402.45Q452.85 385.1 458 365.35Q463.7 343.5 465.35 320.8Q468.9 272.25 471.4 223.55L471.5 221.1L472.4 202.2L477.5 93.5Q477.75 88.1 482.2 85.75L478.3 204.2L477.9 216Q497.5 210 518.4 209.75Q522.55 157 523.8 103.75Q524.05 94.45 528.2 88M432.2,50.25Q435.9 57.2 430.85 62.9L429.95 63.75Q386.45 73.65 341.5 78.5Q341.8 131.65 341.75 186.25Q341.75 245.7 344.1 304.8Q345.8 346.9 336.95 386.2Q329.25 375.55 333.95 359.95Q335.5 354.8 336.05 349.25Q341.8 289.6 337.3 229.85Q335.65 207.9 335.5 185.75Q335.05 131.7 339.7 78.7L322.6 80.3Q291.25 82.9 262.3 95.8Q243.95 104 224.45 104.25Q221.35 99.95 223.75 94.6Q223.95 94.1 224.45 93.75Q265.2 82.65 305.9 69.65Q317.2 66.1 329.05 65.15Q375.95 61.35 421.35 51.25Q425.55 50.3 428.95 48.75Q430.2 49.1 431.4 49.65L432.2 50.25M379.55,194.25Q373.15 234.45 382.95 274Q415.5 296.15 437.85 264.3Q443.35 256.5 452.2 254.75Q448.85 276 429.65 290.75Q405.5 309.3 383.1 287.8Q375.5 280.55 374.2 269.5Q368.95 224.55 377.7 180.35Q383.95 148.7 414.95 140.75Q423.05 139.55 430.3 142.55L432.45 143.25Q434.15 145 435.2 147.1Q438 152.6 436.45 159Q412.45 145.4 392.3 167.5Q382 178.85 379.55 194.25M206.85,192.1Q201.4 212.05 205.25 232.4Q209.2 253.05 222.05 269.45Q236.25 287.65 259.45 282.2Q281.4 277.2 292.05 256.2Q301.85 237 299.1 215.3Q296.35 193.45 279.15 180.2Q261.8 166.8 242 164L241.2 160.4Q236.75 161.25 232.25 163.2Q212.45 171.55 206.85 192.1M300.1,193.45Q315.8 243.05 284.1 282.85Q265.25 306.55 235.85 294.05Q202.25 279.7 200.95 242.55Q200.3 225.05 199.8 207.25Q198.65 165.45 235.95 149.75Q265.2 147.05 284 166.45Q295.15 178 300.1 193.45M146.7,93.25Q111.3 76.6 83.5 102.85Q76.5 109.4 71.15 117.5Q51.35 147.3 43.45 182.1Q30.65 238.35 38.4 295.05Q41.9 320.75 50.05 345.95Q51.95 351.75 55.2 357.05Q74.4 388.3 110.4 380.9Q121.9 378.55 133.35 375.6Q159.15 368.9 174.45 348.35Q180.3 340.45 185.2 332L185.4 331.2L185.45 330.5L185.65 329.05L185.95 328.75Q190.3 373.6 145.7 388.15Q124.8 394.95 103.6 400Q87.45 403.9 74.3 394.75Q45.45 374.7 39 339.25Q37.6 331.5 35.75 323.95Q21.2 265.6 31.65 205.95Q35.25 185.35 41.65 165.45Q52.3 132.35 70.1 102.8Q82.85 81.7 106.95 74.5Q136.8 68.9 156.45 88.8Q164.8 97.25 161.2 108.25Q160.85 108.25 160.6 108.05Q159.3 107.25 158.5 105.95Q154.55 99.65 148.3 94.65L146.7 93.25M119.55,142.25Q139.25 144.4 147.05 162.05Q164.65 201.85 130.4 230Q140.3 245.95 152.5 259.9Q174.85 285.6 172.7 312Q143.25 277.05 127 232.1L108.6 237.8Q106.35 278.7 96.7 318.25Q89.8 279.05 101.6 237.8L96.9 236.4L96.5 235.8Q93.5 229.7 97.45 224.25L102.85 225.6L109.85 156.15L108.1 156.85L108.05 156.9Q102.7 151 107.1 144.55Q113.05 141.6 119.55 142.25M109.9,156.15L109.35 226.3Q122.3 226.4 132.05 218.05Q151.85 201.1 145.75 176.55Q137.95 145.3 109.9 156.15" />
</g>
</svg>
