<?xml version="1.0" encoding="utf-8"?>
<svg version="1.1" id="Layer_1"
xmlns="http://www.w3.org/2000/svg"
xmlns:xlink="http://www.w3.org/1999/xlink"


xml:space="preserve">
q-11.7 26.2 -16.1 54.75q-2.95 19.4 -8.8 37.85q-0.55 1.75 -0.95 3.6q-8.85 -28.4 -16.15 -56.45q-0.8 0.55 -1.55 0.55q-0.25 0 -0.45 -0.55q-10.75 27.1 -13.9 56.05q-1.1 10.1 1.05 18.45q7.8 28.5 18.2 56.05q6.3 -44.3 18.2 -88.85q2.2 58.95 2.6 118.45q0.35 59.65 -2.85 119.15q-0.9 16.9 4.95 29.3q33.85 0.05 66.7 5q23.95 5.7 47 -4.75q2.85 -7.05 -1.4 -12.75q-1.55 0.3 -2.85 0q-41.2 -9.3 -83.45 -0.55q3.35 -30.3 4.9 -61.8q2.85 -59 2.5 -118.55q-0.3 -59.55 0.6 -119.25q0.9 -60.3 -3.5 -118.5q-2.4 0.7 -2.7 3.7q-2.05 19.5 -1.3 39.1q-15.6 0.25 -30.55 3.85q3.95 -42.3 2.05 -84.1q-5.55 3.7 -5.4 12.75q0.5 22.85 -1.7 45.6q-1.8 19.2 3.6 35.15q22.35 -2.3 44 -0.5q1.55 -3.65 0.3 -7.4q-0.5 0.1 -0.5 0.2q5.85 45.7 11.4 92.4q2 16.55 8.6 28.15q1.45 -1.65 1.2 -3.75q-6.7 -58.2 -18.95 -115.5q-6.05 22.1 -6.35 47.55q-0.35 26.3 -3.35 52.4q-1.3 11.35 -0.25 22.9q0.4 4.5 1.65 6.65q1.15 30.85 15.55 55.2q12.1 -14.1 15.55 -32.5q0.85 -4.4 1.3 -8.8q0.9 -8.15 -2.15 -15.65q-4.15 -10.2 -14.85 -13.25q-4.25 -1.15 -8.5 -1.45q16 15.15 5.45 38.75q-5.4 12.05 -16.05 19.8q-8 19.65 -12.6 42.25q-11.7 57.75 -25.2 114.85q-1.75 7.55 -4.75 14.5q-7.25 17 -0.55 29.4q11.45 -38.2 20.5 -77.15q3.8 25.7 6.65 51.55q1.8 16.05 7.05 28.4q0.65 -0.75 0.65 -1.5q-0.7 -44.5 -9.55 -88.5q-10.25 -50.95 -18.3 -102.15q0.6 -8.1 0.2 -16.1q-5.6 1.9 -10.1 6.05q-31.1 28.3 -37.45 71.35q-8.65 59.1 -10.2 119.35q-1.15 47.85 16.9 91.65q7.5 18.2 24.95 26.9q30.35 15.15 51.65 -8.7q8.25 -9.25 15.05 -19.25q11.45 -17.05 5.15 -33.35q-19.45 33.25 -57.15 15.6q-28.6 -32.05 -30.95 -76.5q-2.75 -51.5 -1.55 -103.45q1.25 -54.9 5.7 -108.9q3.55 -43.05 18.75 -83.3q10.7 -28.25 39.5 -30.05q11.8 3.65 22.7 9.45q6.15 3.25 9.45 9.05q7.4 13 10.1 26.75q4.85 -10.25 1.05 -22.25q-9.45 -29.8 -42.55 -38q2.8 1.15 3.7 3.5q-1.3 2.4 0.6 1.4q12.8 9.95 21 27.6q7 15 9 31.35q-0.8 22.9 -7.65 44.55q-15.5 48.85 -59.6 73.7q-28.5 3.55 -48.25 -15.25q-5.45 -2.3 -7.85 -7.85q-24.35 -55.65 -1.6 -113.8q19.95 -51.05 75.95 -49.8q7.6 0.75 14.8 3.75q-9.55 7.9 -15.85 18.5q-30.4 51.35 -25.85 112.4q3.25 43.15 41.8 62.65q25.65 13 48.1 -2.85q26.9 -19 41.9 -48.1q28.95 -56.25 8.5 -114.6q-16.1 -45.95 -66.3 -42.9q-14.6 3.7 -26.1 13.2q4.45 -45.4 2.3 -90.75q-3 2.15 -3.25 6.75q-0.85 13.4 4.25 22.55<g id="2945" transform="matrix(1, 0, 0, 1, -26.1, 0)">
<path style="fill:#000000;fill-opacity:1" d="M335.15,88.4Q323.25 132.95 316.95 177.25L314.85 175.05L314.45 176.5L312.15 169.55Q301.75 142 293.95 113.5L281.35 173Q279.2 164.65 280.3 154.55Q283.45 125.6 294.2 98.5Q294.4 99.05 294.65 99.05Q295.4 99.05 296.2 98.5Q303.5 126.55 312.35 154.95Q312.75 153.1 313.3 151.35Q319.15 132.9 322.1 113.5Q326.5 84.95 338.2 58.75L335.15 88.4M368.5,57.95Q368.8 54.95 371.2 54.25Q375.6 112.45 374.7 172.75Q373.8 232.45 374.1 292Q374.45 351.55 371.6 410.55Q370.05 442.05 366.7 472.35Q408.95 463.6 450.15 472.9Q451.45 473.2 453 472.9L478.45 467.7Q482.7 473.4 479.85 480.45L479.45 481.2Q456.4 491.65 432.45 485.95Q399.6 481 365.75 480.95L365.45 483.2Q359.6 470.8 360.5 453.9L366.95 334.65Q370.15 275.15 369.8 215.5Q369.4 156 367.2 97.05Q366.45 77.45 368.5 57.95M334.95,253L335.6 254.5Q336.85 258.25 335.3 261.9L334.45 263.5Q312.8 261.7 290.45 264L289.9 263.15L289.7 262.6L289.5 264.45L288.95 265Q283.55 249.05 285.35 229.85Q287.55 207.1 287.05 184.25Q286.9 175.2 292.45 171.5Q294.35 213.3 290.4 255.6Q305.35 252 320.95 251.75L333.95 252.6L334.95 253M260.2,57.75L260.95 58.5Q273.2 115.8 279.9 174Q280.15 176.1 278.7 177.75Q272.1 166.15 270.1 149.6Q264.55 102.9 258.7 57.2Q258.7 57.1 259.2 57L260.2 57.75M164.25,53.8Q168.5 54.1 172.75 55.25Q183.45 58.3 187.6 68.5Q190.65 76 189.75 84.15Q189.3 88.55 188.45 92.95Q185 111.35 172.9 125.45L184.9 183.9Q170.5 159.55 169.35 128.7L164.3 132.3L162.25 130L155.4 183.45Q154.15 181.3 153.75 176.8Q152.7 165.25 154 153.9Q157 127.8 157.35 101.5Q157.65 76.05 163.7 53.95L164.2 52L164.25 53.8M164.5,62.9L162.85 122.2Q173.5 114.45 178.9 102.4Q189.45 78.8 173.45 63.65L164.5 62.9M234.25,72.35Q242.3 123.55 252.55 174.5Q261.4 218.5 262.1 263Q262.1 263.75 261.45 264.5Q256.2 252.15 254.4 236.1Q251.55 210.25 247.75 184.55L209.45 185.85Q200.4 224.8 188.95 263Q182.25 250.6 189.5 233.6Q192.5 226.65 194.25 219.1Q207.75 162 219.45 104.25Q224.05 81.65 232.05 62L232.2 59L232.5 60.85L234.45 56.25Q234.85 64.25 234.25 72.35M211.6,176.35L245.85 172.25L232.2 88.05L211.6 176.35M98.45,46.75Q131.55 54.95 141 84.75Q144.8 96.75 139.95 107Q137.25 93.25 129.85 80.25Q126.55 74.45 120.4 71.2Q109.5 65.4 97.7 61.75Q68.9 63.55 58.2 91.8Q43 132.05 39.45 175.1Q35 229.1 33.75 284Q32.55 335.95 35.3 387.45Q37.65 431.9 66.25 463.95Q103.95 481.6 123.4 448.35L140.95 418.2Q147.25 434.5 135.8 451.55Q129 461.55 120.75 470.8Q99.45 494.65 69.1 479.5Q51.65 470.8 44.15 452.6Q26.1 408.8 27.25 360.95L30.25 243.25Q31.8 183 40.45 123.9Q46.8 80.85 77.9 52.55Q82.4 48.4 88 46.5L98.45 46.75M267.95,287.5Q211.95 286.25 192 337.3Q169.25 395.45 193.6 451.1Q196 456.65 201.45 458.95Q221.2 477.75 249.7 474.2Q293.8 449.35 309.3 400.5Q316.15 378.85 316.95 355.95Q314.95 339.6 307.95 324.6Q299.75 306.95 286.95 297L286.6 297.5Q284.7 298.5 286 296.1L286.45 294.75Q285.55 292.4 282.75 291.25Q275.55 288.25 267.95 287.5M241.75,275.95L247.95 274.25Q298.15 271.2 314.25 317.15Q334.7 375.5 305.75 431.75Q290.75 460.85 263.85 479.85Q241.4 495.7 215.75 482.7Q177.2 463.2 173.95 420.05Q169.4 359 199.8 307.65Q206.1 297.05 215.65 289.15Q227.15 279.65 241.75 275.95M333.45,484.45Q328.35 475.3 329.2 461.9L332.95 399.7Q333.2 395.1 336.2 392.95Q338.35 438.3 333.9 483.7L333.45 484.45" />
</g>
</svg>
