<?xml version="1.0" encoding="utf-8"?>
<svg version="1.1" id="Layer_1"
xmlns="http://www.w3.org/2000/svg"
xmlns:xlink="http://www.w3.org/1999/xlink"


xml:space="preserve">
q-7.85 29.2 -7.7 62.25q0.1 19.35 -0.6 38.6q-18 0.5 -35.25 0.2q2.1 -51.05 0.55 -101.05q-2.35 0.7 -2.6 3.7q-3.6 43.2 -5 87q-1.85 59.35 -7 118.45q-1.45 16.8 4.35 29.8q1.65 -0.35 1.75 -2q3.95 -59.2 7.1 -118.5q17.2 3 35.15 1.95q-1.8 32.35 -5.95 64.4q-3.95 30.9 1.2 59.45q1.75 0.25 1.95 -1.55q6.9 -58.6 9 -117.7q4.2 2.95 6.2 7.5q1.35 3.1 3.05 5.75q6.2 -24.05 -18.35 -28.2q-22.65 13.9 -29.85 41.7q-14.15 54.95 -15.4 112.05q-0.5 22.25 6.05 42.9q10.2 32.25 40.3 19.05q12.65 -5.55 18.8 -13.65q-1.25 14.3 5.6 23.45q3.55 -4.45 3.15 -10.55q-0.9 -15.9 2.4 -31.1q4.7 -21.8 -4.55 -40.1q-9.4 2 -16.25 9q-0.9 4.7 2.5 7.55q8.55 -6.2 17.75 -5q-4.1 1.75 -6.8 5.7q-1.8 2.55 -1.6 4.75q1.1 -0.85 2.45 -0.95q-2.8 9.55 -11.1 15.75q-21.95 16.45 -38.95 -1.65q-2.4 -2.55 -2.9 -5.65q-6 -39.9 -2.95 -80.8q3.5 -47.65 27.9 -87.65q2.85 -1.4 5.55 -3.2q-6.35 7.7 -5.05 20.35q1.15 11.3 1.6 22.45q1.5 35 0.65 69.7q-1.1 47.4 -25.25 87.55q-13.9 23.15 -37.2 11.95q-7.55 -12.5 -7.9 -27q-1.35 -59.4 3.65 -117.75q2.6 -30.35 0 -58.5q-6.55 16.25 -6.25 35.25q0.3 17.95 -1.55 35.85q-6 58.55 -2 117.85q1.55 22.95 20.05 34.15q4.9 3 10.2 0.9q29.9 -11.95 40.4 -43.3q9 -26.95 11.2 -55.6q4.5 -59.85 1.45 -115.85q1 -0.7 -1 -3q1.25 -8.1 -3.05 -14.25q-5.4 -9.45 -16.05 -10.2q-2.7 0.5 -4.65 2.8q-22.8 27.2 -31.5 63.1q-14.2 58.4 -6.2 118.15q3.8 28.35 27.8 43.1q10.6 6.5 20.75 0.25q25.55 -15.8 36.05 -45.5q12.2 -34.4 11 -71.7q-1.8 -56.35 -32.75 -101.95q21 18.2 29.25 44.9q5.2 16.75 8.2 34.05q10.85 62.15 -27.85 111.5q-13.5 17.25 -33.15 4.85q-9.25 -5.8 -12.35 -16.3q-17.05 -57.65 -1 -116.7q6.4 -22.45 24.65 -33.1q3.6 -27.8 -26.95 -29.25q-43.3 19.45 -54.4 67.35q-13.35 57.65 -6.7 117.3q2.45 22 14.7 40.45q21.05 31.85 56 16.75q26.3 -11.35 34.4 -36.1q-0.75 -0.65 -1.1 -0.45q-14.15 6.95 -28.6 18.35q-7.25 5.75 -16.2 6.65q-38.5 4.1 -46.9 -33.2q-13 -57.2 -0.15 -114.7q8.9 -39.9 43.75 -60.6q10.65 -6.3 20.5 0.4q8 5.4 12.45 10.05<g id="2933" transform="matrix(1, 0, 0, 1, -35.2, 0)">
<path style="fill:#000000;fill-opacity:1" d="M508.35,112.3L508.7 113L504.9 217.7L504.8 220.95L504.4 231.45Q502.3 290.55 495.4 349.15Q495.2 350.95 493.45 350.7Q488.3 322.15 492.25 291.25Q496.4 259.2 498.2 226.85Q480.25 227.9 463.05 224.9L462.8 229.2Q459.65 288.5 455.7 347.7Q455.6 349.35 453.95 349.7Q448.15 336.7 449.6 319.9Q454.75 260.8 456.6 201.45Q458 157.65 461.6 114.45Q461.85 111.45 464.2 110.75Q465.75 160.75 463.65 211.8Q480.9 212.1 498.9 211.6Q499.6 192.35 499.5 173Q499.35 139.95 507.2 110.75L508.35 112.3M402,127.05Q399.3 128.85 396.45 130.25Q372.05 170.25 368.55 217.9Q365.5 258.8 371.5 298.7Q372 301.8 374.4 304.35Q391.4 322.45 413.35 306Q421.65 299.8 424.45 290.25L424.45 290Q423.1 290.1 422 290.95L419.95 292.5Q419.75 290.3 421.55 287.75Q424.25 283.8 428.35 282.05L430.2 268.75Q421 267.55 412.45 273.75Q409.05 270.9 409.95 266.2L410.7 263.25Q417.55 256.25 426.95 254.25L428.95 254.3L431.45 254.5Q440.7 272.8 436 294.6Q432.7 309.8 433.6 325.7Q434 331.8 430.45 336.25Q423.6 327.1 424.85 312.8Q418.7 320.9 406.05 326.45Q375.95 339.65 365.75 307.4Q359.2 286.75 359.7 264.5Q360.95 207.4 375.1 152.45Q382.3 124.65 404.95 110.75Q429.5 114.9 423.3 138.95L422.95 139.5Q421.25 136.85 419.9 133.75Q417.9 129.2 413.7 126.25L404.45 125.5L402 127.05M346.5,121.5L346.45 122.25Q348.45 124.55 347.45 125.25Q350.5 181.25 346 241.1Q343.8 269.75 334.8 296.7Q324.3 328.05 294.4 340Q289.1 342.1 284.2 339.1Q265.7 327.9 264.15 304.95Q260.15 245.65 266.15 187.1Q268 169.2 267.7 151.25Q267.4 132.25 273.95 116Q276.55 144.15 273.95 174.5Q268.95 232.85 270.3 292.25Q270.65 306.75 278.2 319.25Q301.5 330.45 315.4 307.3Q339.55 267.15 340.65 219.75Q341.5 185.05 340 150.05Q339.55 138.9 338.4 127.6Q337.1 114.95 343.45 107.25Q347.75 113.4 346.5 121.5M213.2,121.75L213.7 121.2L215.15 120.1L217.45 119.5Q248.4 165.1 250.2 221.45Q251.4 258.75 239.2 293.15Q228.7 322.85 203.15 338.65Q193 344.9 182.4 338.4Q158.4 323.65 154.6 295.3Q146.6 235.55 160.8 177.15Q169.5 141.25 192.3 114.05Q194.25 111.75 196.95 111.25Q207.6 112 213 121.45L213.2 121.75M198.95,124.75Q180.7 135.4 174.3 157.85L166.05 187.3Q150 246.35 167.05 304Q170.15 314.5 179.4 320.3Q199.05 332.7 212.55 315.45Q251.25 266.1 240.4 203.95Q237.4 186.65 232.2 169.9Q223.95 143.2 202.95 125L202.45 124.85L198.95 124.75M129.7,135Q125.25 130.35 117.25 124.95Q107.4 118.25 96.75 124.55Q61.9 145.25 53 185.15Q40.15 242.65 53.15 299.85Q61.55 337.15 100.05 333.05Q109 332.15 116.25 326.4Q130.7 315 144.85 308.05Q145.2 307.85 145.95 308.5L146.4 309.25L146.7 310L146.95 310.75Q138.85 335.5 112.55 346.85Q77.6 361.95 56.55 330.1Q44.3 311.65 41.85 289.65Q35.2 230 48.55 172.35Q59.65 124.45 102.95 105Q133.5 106.45 129.9 134.25L129.7 135" />
</g>
</svg>
