<?xml version="1.0" encoding="utf-8"?>
<svg version="1.1" id="Layer_1"
xmlns="http://www.w3.org/2000/svg"
xmlns:xlink="http://www.w3.org/1999/xlink"


xml:space="preserve">
q-9 33.1 -14.55 66.85q-2.55 15.75 -5.65 31.6q-4.1 21 -9.05 41.8q-3.2 13.55 -3.25 27.4q4.05 0.5 4.9 -3.7q3.8 -19.65 4.7 -39.75q8.35 31.5 12.35 63.8q0.95 7.55 2.9 14.75q2.05 7.75 5.55 12.45q7.85 68.1 11.55 136.35q0.45 8 2.45 15.75q2.05 7.9 6.65 12.1q1.05 -23.9 -1.05 -48.45q-1.85 -22 -4.4 -43.85q-4.1 -34.8 -12.3 -68.95q-2.8 -11.65 -1.3 -23.55q-5.15 -35.2 -14.55 -72.15q-21.2 34.2 -41.55 68.8q-2.3 3.95 -5 7.75q-3.35 4.7 -5.85 9.85q-3.15 6.65 -4.6 13.75q4.45 -50.1 -2.95 -99.65q-4.75 39.1 -3.2 78.75q0.4 11.05 -0.35 22.15q-1.5 18.7 -0.55 37.25q12.85 -35.6 8.45 -76.95q11.75 -7.15 16.1 -24.75q0.9 -3.7 2.75 -7.15q17.7 58.2 44.9 112.1q7.65 -23.25 -6.6 -47.7q-13.45 -23.1 -23.35 -48.2q26.55 -30.3 33.15 -68.25q0.35 -2.05 0.3 -4.15q-23.9 -8 -34.4 16.25q-8.2 19.05 -5.35 40.05q3 22.5 20.65 34.7q10.1 6.85 21.05 -0.5q18.55 -12.6 24.15 -34.35q5.35 -20.95 -4.85 -39.75q-5.7 -10.45 -16.25 -16.3q24.4 -5.1 32.65 18.3q7.95 22.45 -9.6 38.1q-19.1 17.05 -32.6 -4.9q-8.15 -13.15 -4.85 -29.25q2.65 -13 12.35 -21.85<g id="2931" transform="matrix(1, 0, 0, 1, -141.65, 0)">
<path style="fill:#000000;fill-opacity:1" d="M349.45,187L352.15 197.3Q361.55 234.25 366.7 269.45L391.85 187.75L394.2 184Q392.7 195.9 395.5 207.55Q403.7 241.7 407.8 276.5Q410.35 298.35 412.2 320.35Q414.3 344.9 413.25 368.8Q408.65 364.6 406.6 356.7Q404.6 348.95 404.15 340.95Q400.45 272.7 392.6 204.6L368 297.55Q364.5 292.85 362.45 285.1Q360.5 277.9 359.55 270.35Q355.55 238.05 347.2 206.55Q346.3 226.65 342.5 246.3L319.6 362.25Q318.75 366.45 314.7 365.95L314.6 355.2Q314.65 341.35 317.85 327.8Q322.8 307 326.9 286Q330 270.15 332.55 254.4Q338.1 220.65 347.1 187.55L347.5 190.65L349.45 187M209.15,184.9Q202.55 222.85 176 253.15L185.75 278.3Q195.65 303.4 209.1 326.5Q223.35 350.95 215.7 374.2Q188.5 320.3 170.8 262.1Q168.95 265.55 168.05 269.25Q163.7 286.85 151.95 294Q156.35 335.35 143.5 370.95L142.6 356.45Q141.65 337.9 143.15 319.2L145.95 282.15Q146.7 271.05 146.3 260Q144.75 220.35 149.5 181.25Q156.9 230.8 152.45 280.9Q153.9 273.8 157.05 267.15Q159.55 262 162.9 257.3Q165.6 253.5 167.9 249.55Q188.25 214.95 209.45 180.75Q209.5 182.85 209.15 184.9M280.45,272.45Q291 278.3 296.7 288.75Q306.9 307.55 301.55 328.5Q295.95 350.25 277.4 362.85Q266.45 370.2 256.35 363.35Q238.7 351.15 235.7 328.65Q232.85 307.65 241.05 288.6Q251.55 264.35 275.45 272.35L277.35 273.1L280.45 272.45M255.95,285.7Q246.25 294.55 243.6 307.55Q240.3 323.65 248.45 336.8Q261.95 358.75 281.05 341.7Q298.6 326.05 290.65 303.6Q282.4 280.2 258 285.3L255.95 285.7" />
</g>
</svg>
