<?xml version="1.0" encoding="utf-8"?>
<svg version="1.1" id="Layer_1"
xmlns="http://www.w3.org/2000/svg"
xmlns:xlink="http://www.w3.org/1999/xlink"


xml:space="preserve">
q-3.25 3.2 -5.55 7.05q-26.65 45.45 -10.8 97.7q2.85 9.45 12.2 11.6q21.65 5.05 34.9 -14.05q3.9 -5.65 6.8 -11.45q27.1 16.7 57.05 30.8q7.3 3.45 15 4.15q29.55 2.6 25.6 -25.3q-13 24.05 -40.3 10.7q-9.95 -4.85 -19.2 -11.55q-15.95 -11.55 -34 -18.8q8.95 -26.45 -2.5 -56.15q-9.9 -25.6 -36.2 -25.7q-11.25 -41.3 -53.7 -50.45q-15.8 2.75 -23.25 17q-26.1 49.95 -2.45 102.95q16 35.9 27.8 73.2q17 53.7 20.75 109.85q2.9 43.2 -1.75 86.1q-5.85 53.65 -50.35 84.6q-15.9 -0.3 -22.95 -15.15q-1.95 -4.1 -0.85 -8.2q5.8 -21.5 0.05 -40.15q-1 0.75 -1.45 1.75q-3.8 8.7 -6.1 18.2q-9.15 37.35 20.4 60.3q5.05 3.9 10.75 0.8q22.15 -11.8 36.6 -32.3q8 -11.3 11.95 -24.2q16.2 -53.4 14.15 -110.6q-2.1 -58 -15.45 -114q-6.75 -28.25 -18.9 -54.7q-15.7 -34.25 -26.3 -70q-9.7 -32.75 10.45 -59.05q10.4 -13.6 26.3 -7.35q30.4 11.95 43.1 39.45q2.4 -3.75 1.2 -8.05q0.5 1.6 -2.85 3.2q-10.3 4.55 -10.75 14q22 4.1 45.35 3.1q0.3 -3.1 -2 -5.25q-19.85 -3.15 -39.8 0.55q-9.75 40.2 -5.2 79.2q6.55 -39.25 6.85 -79.2q-4.1 23.15 -2.4 44.8q6.45 -21.8 4.85 -44.7q-3.4 3.5 -4.6 8.2q-3.65 14.7 2.1 27.8q-0.65 -3 -2.2 -5.8q-3.6 -6.45 -9.85 -10.2q3.35 -15.8 1.5 -30.7q-3.95 6.5 -5.15 15.6q-1.4 10.5 3.15 15.9q-16.9 28.45 -31.45 59.5q-3.35 7.2 -8.3 13.2q3.55 -38.1 4.95 -75.9q-7.2 42.75 -12.7 87.7q-1.75 14.5 -4.75 28.95q-3.25 15.85 0.2 29.35q5.95 -13.4 7.85 -28.9q7.5 -12.1 14.2 -24.6q3.4 20 9.2 40.1q2.55 8.65 2.9 17.35q0.5 13.3 7.05 21.45q-0.1 -42.7 -16.95 -82.8q6.45 -12.5 12.1 -25.4q4.45 -10.25 10.85 -19.25q7.7 -10.9 3 -19.3q-4.45 20.45 -5.15 43.45q-0.65 23.15 -5.45 45.45q-3.55 16.3 1.85 28.8q5.85 -29.95 7.85 -59.95q25.55 -1.7 24.65 -28q-0.7 -22.1 -19.15 -29.7q-1.5 0.5 -3.45 1.55q-1.35 0.65 -2.15 1.8q16.7 16.5 2.8 31.45q-4.65 5 -11.8 4.75q-5 -59.2 -26.7 -114.3q-6.45 -16.3 -15 -32.05q-18.8 -34.55 -56.25 -36.4q-47.9 21.65 -56.75 74.55q-9.65 57.7 -9.4 117q0.25 59.1 2.6 117.75q1.15 28.75 4.3 57.15q5.9 53.65 53.55 76.05q22.95 14.5 43.9 -0.75q13 -9.45 22.95 -22.15q13.75 -17.45 21.7 -38q15.5 -40.15 20.3 -83.1q6.6 -59.1 1.6 -118.7q-2.55 59.05 -14.75 116.65q-10.75 50.4 -53.65 79.05q-2.45 1.6 -5 1.75q-35.05 1.7 -57.5 -26.1q-18.6 -22.95 -21.9 -52.85q-6.5 -58.7 -6.55 -118.65q-0.05 -59.4 2.7 -118.55q2.6 -55.7 40.55 -94.45q11 -7.2 24.15 -8.45q21.1 -1 36 14q2.15 2.75 4.7 5.3q10.35 10.05 15.6 23.35q21.9 55.2 29.2 114.7q3.55 29.35 2.3 59.1q-20.15 24.05 -11.25 59.7q21 14.65 23.85 -9.35q0.05 -0.55 -0.35 -1.15q-10.9 12.3 -20.25 1.8q-0.8 -0.9 -1.25 -2.05q8.35 4.5 17.15 0.9q-7.1 -3.4 -15 -1.75q9.35 -3.5 13.8 5.45q1.5 -12.6 -11.1 -14.45q-1.1 0.65 -2.25 1.25q14.7 -2.65 24.85 9.35q2.2 5.05 -1.15 9.65q-6.25 -9.25 -17.95 -9.65q-0.45 -0.25 -0.95 -0.35q-7 41.35 -7.85 81.7q5.6 22.25 20.1 37.2q-4.1 -21.05 -17.3 -38.35q21.25 -14.45 7.1 -35.6q6.25 -20.25 6.8 -40.05q-11.55 31.35 -21.6 65.25q-3.75 12.7 1.1 21q5.1 -19.55 11.3 -38.85q11 2.5 22 1.8q9.2 18.45 16.95 36.55q3.25 -10.45 -2.55 -21.95q-15.65 -31.05 -26.2 -63.55q-1.95 20.5 7.85 41.05q2.25 22.2 -8.7 41.55q-2.2 3.95 -4.9 7.45q-19.85 5.95 -24.25 -12.2q-9.05 -37.35 -4.1 -75.4q-5.7 36.2 -2.85 72.4q1.55 19.3 19.55 27.2q13.65 5.95 21.8 -6.7q4.85 -7.55 7.8 -16.2q11.9 -34.9 4.3 -71.6q-1.65 -7.85 -3.65 -5.7q-4.5 19.8 -2.35 40.6q12.9 18.5 10.7 40.9q-0.65 6.65 -3.25 12.8q-14.15 -8.35 -24.7 3.3q10.05 -3.65 20.75 0.8q-11.7 20.8 -34.25 17.85q-4 -0.7 -7.65 -2.45q-20.4 -49.15 9.25 -93q14.45 -5.65 24.7 5.5q3.9 4.2 5.05 9.75q38.95 -18.35 61.85 16q0.3 2.35 0.95 4.6q4.2 -6.7 0.75 -15.25q-6.35 -15.5 -20.75 -24.75q-9.75 -3.6 -20.3 -3.6q-48.9 8.95 -60.45 56.15q-13.7 56 -15.35 114.35q-1.7 59.5 3.85 118.5q1.4 15 1.3 29.95q-0.2 51.3 26.55 92.9q9.4 14.6 25.8 17.1q39.95 5.95 54.8 -31.15q7.6 -18.95 11.4 -38.75q2.5 -12.95 -5.45 -19.1q-3.55 28.6 -16.8 54.95q-6.7 13.3 -21.05 16.65q-37.5 8.7 -53.85 -26.35q-3.4 -7.35 -4.85 -15.25q-10.75 -58.5 -14.6 -118.2q-3.75 -57.55 1.7 -114.75q2.65 -27.65 6.45 -55q4.95 -36 31.55 -59q3.75 -1.3 7.35 -3q1.6 10.55 1.55 21.4q3.25 -4.6 0.75 -9.75q3.3 -21.3 0.25 -42.75q-8.8 13.75 -6.05 32.1q3.65 -10.6 -5.85 -15.45q-6.15 14.5 -0.2 28.5q10.4 -2.7 14.7 6.25q0.9 2 1.05 4.25q-0.45 11.7 -1.75 23.75q-4.1 30.7 0.85 57.75q7.85 -0.05 13.65 -4.65q12.15 32.05 30.85 59.95q-6.65 -33.3 -27.5 -63.8q14.95 -24.9 -12.85 -28.9q-5.95 -0.8 -6.15 5.15q-3.35 6.65 -0.5 13.5q7.05 0.2 10.15 5.9q-7.2 3.9 -14.4 -2.4q6.8 5.4 15.25 3.75q3.95 -11.8 -6.95 -17.95q-2.45 -1.45 -5.3 -1.9q5.65 -4.9 11.4 -0.1q4.1 -9.55 -7.05 -10.45q4.7 -13.55 2.4 -27.85q-11.7 11.95 -8.25 29.25q4.85 -9.2 0.9 -18.75q-3.45 3.45 -9.9 5.1q-2.75 -6.1 0.75 -12.55q1.4 -2.5 3.5 -4.7q3.4 -2.45 0.35 -7.2q-2.05 14.45 0.85 28.8q6 1.55 10.75 -2.85q-4.7 -2.25 -10.6 0.8q7.2 2.35 14.4 -0.45q-7.15 15.15 -0.5 31.5q2.85 -15.2 -0.35 -30.4q-9 15.15 0.25 31.25q9.5 -14.35 4 -31q2.4 -3.7 1.45 -8.05q-2.85 -6.35 -9.45 -10.15q2.6 -5.5 -1.35 -9.85<g id="2939" transform="matrix(1, 0, 0, 1, 0.6, 0.75)">
<path style="fill:#000000;fill-opacity:1" d="M38,-0.75Q64.3 -0.65 74.2 24.95Q85.65 54.65 76.7 81.1Q94.75 88.35 110.7 99.9Q119.95 106.6 129.9 111.45Q157.2 124.8 170.2 100.75Q174.15 128.65 144.6 126.05Q136.9 125.35 129.6 121.9Q99.65 107.8 72.55 91.1Q69.65 96.9 65.75 102.55Q52.5 121.65 30.85 116.6Q21.5 114.45 18.65 105Q2.8 52.75 29.45 7.3Q31.75 3.45 35 0.25L37.95 -0.6L38 -0.75M536.45,92.75Q523.75 65.25 493.35 53.3Q477.45 47.05 467.05 60.65Q446.9 86.95 456.6 119.7Q467.2 155.45 482.9 189.7Q495.05 216.15 501.8 244.4Q515.15 300.4 517.25 358.4Q519.3 415.6 503.1 469Q499.15 481.9 491.15 493.2Q476.7 513.7 454.55 525.5Q448.85 528.6 443.8 524.7Q414.25 501.75 423.4 464.4Q425.7 454.9 429.5 446.2Q429.95 445.2 430.95 444.45Q436.7 463.1 430.9 484.6Q429.8 488.7 431.75 492.8Q438.8 507.65 454.7 507.95Q499.2 477 505.05 423.35Q509.7 380.45 506.8 337.25Q503.05 281.1 486.05 227.4Q474.25 190.1 458.25 154.2Q434.6 101.2 460.7 51.25Q468.15 37 483.95 34.25Q526.4 43.4 537.65 84.7Q538.85 89 536.45 92.75M407.4,12.55L391.45 20.75L418.95 21.75Q421.25 23.9 420.95 27L420.85 27.75L420.5 29.65L419.95 31.5Q396.6 32.5 374.6 28.4Q375.05 18.95 385.35 14.4Q388.7 12.8 388.2 11.2L376.95 7.75L377.25 1.8L406.95 4.75L407.4 12.55M409.45,92L391.2 92.05Q390.9 132 384.35 171.25Q379.8 132.25 389.55 92.05L367.7 91L368.2 85.75L370.15 85.3Q390.1 81.6 409.95 84.75L409.45 92M354.95,14.25L338.85 14.9Q340.45 37.8 334 59.6Q332.3 37.95 336.4 14.8L314.7 11.25L315.95 3.75L354.65 5.75L354.95 14.25M350.2,54.75L350.7 60.75L341.75 65.9L343.3 66.85Q349.55 70.6 353.15 77.05Q354.7 79.85 355.35 82.85L355.9 86.4L336.4 68.95L321.6 77.3L319.7 90Q313.95 76.9 317.6 62.2Q318.8 57.5 322.2 54L322.05 72.4L347.95 54.75L350.2 54.75M348.2,117.25Q343.65 111.85 345.05 101.35Q346.25 92.25 350.2 85.75Q352.05 100.65 348.7 116.45L348.2 117.25M447.95,192.8Q441.55 201.8 437.1 212.05Q431.45 224.95 425 237.45Q441.85 277.55 441.95 320.25L441.7 321Q435.15 312.85 434.65 299.55Q434.3 290.85 431.75 282.2Q425.95 262.1 422.55 242.1Q415.85 254.6 408.35 266.7L405.8 288.6Q403.9 304.1 397.95 317.5Q394.5 304 397.75 288.15Q400.75 273.7 402.5 259.2Q408 214.25 415.2 171.5Q413.8 209.3 410.25 247.4L411.2 246.2Q416.15 240.2 419.5 233Q434.05 201.95 450.95 173.5Q455.65 181.9 447.95 192.8M414.35,317.85Q415.15 316.7 416.5 316.05Q418.45 315 419.95 314.5Q438.4 322.1 439.1 344.2Q440 370.5 414.45 372.2L413.75 371.7Q411.75 401.7 405.9 431.65L405.45 432.45Q400.05 419.95 403.6 403.65Q408.4 381.35 409.05 358.2Q409.75 335.2 414.2 314.75L414.35 317.85M414.6,324.3L414.4 359.85L415.95 360.95Q423.1 361.2 427.75 356.2Q441.65 341.25 424.95 324.75L414.6 324.3M338.3,393.2Q333.5 436.15 318 476.3Q310.05 496.85 296.3 514.3Q286.35 527 273.35 536.45Q252.4 551.7 229.45 537.2Q181.8 514.8 175.9 461.15Q172.75 432.75 171.6 404Q169.25 345.35 169 286.25Q168.75 226.95 178.4 169.25Q187.25 116.35 235.15 94.7L241.95 91.75Q279.4 93.6 298.2 128.15Q306.75 143.9 313.2 160.2Q334.9 215.3 339.9 274.5Q344.9 334.1 338.3 393.2M331.75,269.55Q324.45 210.05 302.55 154.85Q297.3 141.55 286.95 131.5L286.25 129.2L285.7 127Q283.15 124.45 281 121.7L279.95 120.25Q265.05 105.25 243.95 106.25Q230.8 107.5 219.8 114.7L217.95 115.5Q180 154.25 177.4 209.95Q174.65 269.1 174.7 328.5Q174.75 388.45 181.25 447.15Q184.55 477.05 203.15 500Q225.6 527.8 260.65 526.1Q263.2 525.95 265.65 524.35Q308.55 495.7 319.3 445.3Q331.5 387.7 334.05 328.65Q335.3 298.9 331.75 269.55M547.85,332.45L545.9 333.45L545.5 333.2Q541.05 324.25 531.7 327.75L527.05 347.5L528.95 345.7Q536.85 344.05 543.95 347.45L544.2 353.85Q535.4 357.45 527.05 352.95L525.7 366.7Q526.15 367.85 526.95 368.75Q536.3 379.25 547.2 366.95Q547.6 367.55 547.55 368.1Q544.7 392.1 523.7 377.45Q514.8 341.8 534.95 317.75L536.75 318Q549.35 319.85 547.85 332.45M293.05,31.15Q296.4 26.55 294.2 21.5Q284.05 9.5 269.35 12.15L268.15 42.35L289.2 35.5L289.95 34Q291.1 33.4 292.2 32.75L293.05 31.15M283.75,48.65Q296.95 65.95 301.05 87Q286.55 72.05 280.95 49.8L267.25 51.3L261 86.6Q261.85 46.25 268.85 4.9L269.15 4.9Q269.65 5 270.1 5.25L272.9 3.4Q284.6 3.8 290.85 13.05Q305 34.2 283.75 48.65M222.05,42.8Q212.25 22.25 214.2 1.75Q224.75 34.25 240.4 65.3Q246.2 76.8 242.95 87.25Q235.2 69.15 226 50.7Q215 51.4 204 48.9Q197.8 68.2 192.7 87.75Q187.85 79.45 191.6 66.75Q201.65 32.85 213.2 1.5Q212.65 21.3 206.4 41.55L222.05 42.8M159.9,4.15Q161.9 2 163.55 9.85Q171.15 46.55 159.25 81.45Q156.3 90.1 151.45 97.65Q143.3 110.3 129.65 104.35Q111.65 96.45 110.1 77.15Q107.25 40.95 112.95 4.75L115.35 5.3L115.6 6.15Q110.65 44.2 119.7 81.55Q124.1 99.7 143.95 93.75Q146.65 90.25 148.85 86.3Q159.8 66.95 157.55 44.75Q155.4 23.95 159.9 4.15M59.2,15.75Q48.95 4.6 34.5 10.25Q4.85 54.1 25.25 103.25Q28.9 105 32.9 105.7Q55.45 108.65 67.15 87.85Q56.45 83.4 46.4 87.05L47 82.5Q57.55 70.85 71.7 79.2Q74.3 73.05 74.95 66.4Q77.15 44 64.25 25.5Q63.1 19.95 59.2 15.75M53,140.75Q26.4 163.75 21.45 199.75Q17.65 227.1 15 254.75Q9.55 311.95 13.3 369.5Q17.15 429.2 27.9 487.7Q29.35 495.6 32.75 502.95Q49.1 538 86.6 529.3Q100.95 525.95 107.65 512.65Q120.9 486.3 124.45 457.7Q132.4 463.85 129.9 476.8Q126.1 496.6 118.5 515.55Q103.65 552.65 63.7 546.7Q47.3 544.2 37.9 529.6Q11.15 488 11.35 436.7Q11.45 421.75 10.05 406.75Q4.5 347.75 6.2 288.25Q7.85 229.9 21.55 173.9Q33.1 126.7 82 117.75Q92.55 117.75 102.3 121.35L104.45 122Q118.85 131.25 125.2 146.75Q128.65 155.3 124.45 162L124.05 161.2L123.15 158.35Q122.5 156.1 122.2 153.75Q99.3 119.4 60.35 137.75Q56.75 139.45 53 140.75M104.2,144.75Q107.25 166.2 103.95 187.5L129.2 190.5Q131.7 195.65 128.45 200.25L99.7 198.25Q99.75 187.4 98.15 176.85Q95.4 158.5 104.2 144.75M121.9,244.95L132.2 255L131.2 263.25L117.15 247.9L115.95 248.5L111.35 247.95L108.95 262.75Q103 248.75 109.15 234.25L109.45 229L116.95 225.5L119.7 226.65Q129.2 231.5 125.55 242.1L121.9 244.95M111.55,233.95L111.65 242.6L114.8 241.6L115.45 240.1L117.2 240.45L122.45 235.25L120.95 233.75L111.55 233.95M128.4,413.7Q124.1 404.75 113.7 407.45L109.75 410.65L110.8 428.35L121.2 426.7L129.45 417.95Q129.3 415.7 128.4 413.7M115.2,401.1Q143 405.1 128.05 430Q148.9 460.5 155.55 493.8Q136.85 465.9 124.7 433.85Q118.9 438.45 111.05 438.5L107.95 497.1Q103 470.05 107.1 439.35L105.7 438.5L105.45 431.2L107.3 430Q108.6 417.95 109.05 406.25Q109.25 400.3 115.2 401.1M455.95,432.45L458.15 432.5Q469.3 433.4 465.2 442.95L464.6 442.35Q458.85 437.55 453.2 442.45Q456.05 442.9 458.5 444.35Q469.4 450.5 465.45 462.3L460.95 464.95Q452.5 466.6 445.7 461.2L446.45 452.95Q453.65 459.25 460.85 455.35Q457.75 449.65 450.7 449.45Q447.85 442.6 451.2 435.95L455.95 432.45M412.7,462.95L404.15 466.1Q406.45 480.4 401.75 493.95L401.9 466.35L391 462.95L391.45 459.45L412.15 456.55L412.7 462.95M360.15,491.55L360.8 492.3Q363.85 497.05 360.45 499.5L356.7 498.2Q354.6 500.4 353.2 502.9Q349.7 509.35 352.45 515.45L357.45 515.05Q363.9 513.4 367.35 509.95L357.95 506.45L369.2 503.45Q373.15 513 368.3 522.2L365.9 518.4L357.95 525.2L353.45 524.7L348.7 519.45Q345.25 502.15 356.95 490.2L360.15 491.55M388.2,465.7Q381 468.5 373.8 466.15L374.2 473.35Q380.1 470.3 384.8 472.55L384.95 476.7Q380.2 481.1 374.2 479.55L372.7 494.2Q369.8 479.85 371.85 465.4L370.8 464.25L370.95 461.2L372.95 459.95L388.75 459.1L388.2 465.7M391.15,501.3L393.2 491.45Q396.4 506.65 393.55 521.85L391.05 508.75L382.95 509.35L380.7 522.95Q374.05 506.6 381.2 491.45L382.9 502.9L391.15 501.3M333.95,511.45L339.2 489.2Q344.7 505.85 335.2 520.2L324.45 520.7Q315.2 504.6 324.2 489.45L325.45 512.25L333.95 511.45M397.35,544.95L411.9 530.2L407.2 518.1L416.55 525.85L423.7 519.2L425.95 515.2L426.6 515.65L427.1 516.1Q431.05 520.45 428.45 525.95L422.4 531.3Q429 535.1 431.85 541.45L432.15 542.4Q433.1 546.75 430.7 550.45L416.3 536.75L399.05 551L397.35 544.95" />
</g>
</svg>
