<?xml version="1.0" encoding="utf-8"?>
<svg version="1.1" id="Layer_1"
xmlns="http://www.w3.org/2000/svg"
xmlns:xlink="http://www.w3.org/1999/xlink"


xml:space="preserve">
q2.65 36.7 13.2 73.05q8.2 28.4 12.7 57.7q4.6 29.7 13.75 56.5q2 -0.55 1.9 -2.7q-2.2 -35.75 -10.4 -71.35q-13.35 -57.65 -30 -113.9q-1.25 -0.3 -1.15 0.7q-17.35 56.6 -32.9 113.75q-3.85 14.2 -9.15 27.9q-8.5 21.8 -5.25 42.65q9.1 -14.75 13.55 -32.9q13.95 -57.4 29.95 -114.1q2 -7.15 4.6 -13.75q6.2 -15.9 3.4 -28.7q-3.1 1.45 -4.2 5.15q2.05 -46.4 0.2 -92.1q-4.55 35.8 -7.1 74.15q-4 59.25 -4.4 117.8q6.05 -36.6 8.6 -73.95q12.8 -18.2 25 -37.1q15.75 50.15 28.55 100.95q3.3 13.05 11.65 19.15q2.8 -6.05 1.5 -12.75q-0.35 -0.75 -0.55 -1.5q-15.1 -54.85 -36.15 -107.4q11.5 -18.1 22.45 -36.75q1.8 -3.1 4.05 -5.7q12.1 -14.05 5.2 -25.85q-18.75 32 -39.5 63.45q-7.2 10.95 -15.85 20.75q-2.05 2.35 -3.55 4.65q-19.9 31.45 -7.4 68.05q5.2 15.3 18.65 23.85q12.65 8.1 24.9 -0.2q30.2 -20.35 24.8 -56.7q-6 -40.3 -46.25 -42.25q-2.45 0.9 -5.5 1.35q-6.1 0.95 -9.2 5.9q19.85 9.05 24 30.4q4.55 23.2 -16.75 34.8q-21.15 11.55 -35.15 -10.65q-11.85 -18.85 -4 -39.65q7.65 -20.15 30.4 -19.3<g id="2932" transform="matrix(1, 0, 0, 1, -139.75, 0)">
<path style="fill:#000000;fill-opacity:1" d="M328.45,182.5Q345.1 238.75 358.45 296.4Q366.65 332 368.85 367.75Q368.95 369.9 366.95 370.45Q357.8 343.65 353.2 313.95Q348.7 284.65 340.5 256.25Q329.95 219.9 327.3 183.2Q327.2 182.2 328.45 182.5M420.95,182Q423.75 194.8 417.55 210.7Q414.95 217.3 412.95 224.45Q396.95 281.15 383 338.55Q378.55 356.7 369.45 371.45Q366.2 350.6 374.7 328.8Q380 315.1 383.85 300.9Q399.4 243.75 416.75 187.15Q417.85 183.45 420.95 182M154.6,265.7Q163.25 255.9 170.45 244.95Q191.2 213.5 209.95 181.5Q216.85 193.3 204.75 207.35Q202.5 209.95 200.7 213.05Q189.75 231.7 178.25 249.8Q199.3 302.35 214.4 357.2Q214.6 357.95 214.95 358.7L217.1 360.15L217.45 360.7Q218.75 367.4 215.95 373.45L215.2 374.95Q206.85 368.85 203.55 355.8Q190.75 305 175 254.85Q162.8 273.75 150 291.95L149.9 291.75L149.6 296.05Q147.05 333.4 141 370L139.75 370.2Q140.15 311.65 144.15 252.4Q146.7 214.05 151.25 178.25Q153.1 223.95 151.05 270.35Q152.55 268.05 154.6 265.7M261.45,268.8Q264.5 268.35 266.95 267.45Q307.2 269.4 313.2 309.7Q318.6 346.05 288.4 366.4Q276.15 374.7 263.5 366.6Q250.05 358.05 244.85 342.75Q232.35 306.15 252.25 274.7Q255.35 269.75 261.45 268.8M279.3,279.75Q256.55 278.9 248.9 299.05Q241.05 319.85 252.9 338.7Q266.9 360.9 288.05 349.35Q309.35 337.75 304.8 314.55Q300.65 293.2 280.8 284.15L279.3 279.75" />
</g>
</svg>
