<?xml version="1.0" encoding="utf-8"?>
<svg version="1.1" id="Layer_1"
xmlns="http://www.w3.org/2000/svg"
xmlns:xlink="http://www.w3.org/1999/xlink"


xml:space="preserve">
q1.25 19.35 -1.6 38.75q-5.65 38.2 -46.95 36.1q-4.05 -0.2 -7.5 -2.05q-18.95 -10.2 -16.05 -33.6q4.85 -26.4 1.3 -51.75q-11.5 39.6 -3.3 83q2.7 14.2 16.8 18.05q39.7 10.9 57.8 -24.65q7.05 -13.8 8.25 -29.5q1.9 -25.6 -5.55 -46.9q-3.9 5.75 -3.4 13.3q-4.65 55.4 -5.9 112.2q-0.65 29.8 -5 59.05q-2 13.6 3.95 22.2q3.5 -19 5.65 -38.7q21.35 -28.65 41.9 -57.9q1.8 1.15 2.9 3q22.9 37.85 37.05 80.25q5 15 13.7 24.55q4.6 -6.45 1.65 -14.1q-20.7 -53.55 -48.9 -102.85q16.4 -24.2 20.2 -50.65q-7.25 8 -13.05 19.15q-27.4 52.45 -65.65 97.8q-5 5.9 -10.3 11.25q2.3 -59.8 -0.75 -118.55<g id="2946" transform="matrix(1, 0, 0, 1, -155.05, 0)">
<path style="fill:#000000;fill-opacity:1" d="M400.45,269.7Q407.9 291 406 316.6Q404.8 332.3 397.75 346.1Q379.65 381.65 339.95 370.75Q325.85 366.9 323.15 352.7Q314.95 309.3 326.45 269.7Q330 295.05 325.15 321.45L324.95 322.2Q322.05 345.6 341 355.8Q344.45 357.65 348.5 357.85Q389.8 359.95 395.45 321.75Q398.3 302.35 397.05 283Q396.55 275.45 400.45 269.7M168.5,177.25Q171.55 236 169.25 295.8L168.5 310.15L171.2 307.2Q176.5 301.85 181.5 295.95Q219.75 250.6 247.15 198.15Q252.95 187 260.2 179Q256.4 205.45 240 229.65L220.2 258.5Q248.4 307.8 269.1 361.35Q272.05 369 267.45 375.45Q258.75 365.9 253.75 350.9Q239.6 308.5 216.7 270.65Q215.6 268.8 213.8 267.65Q193.25 296.9 171.9 325.55L166.65 332Q164.5 351.7 161 370.7Q155.05 362.1 157.05 348.5Q161.4 319.25 162.05 289.45Q163.3 232.65 167.95 177.25L168.5 177.25" />
</g>
</svg>
