<?xml version="1.0" encoding="utf-8"?>
<svg version="1.1" id="Layer_1"
xmlns="http://www.w3.org/2000/svg"
xmlns:xlink="http://www.w3.org/1999/xlink"


xml:space="preserve">
q0 2.35 -3 29.9q-3 27.5 -3 33.5q0 10.5 -2 31.5q-2 21 -2 31.5q0.65 10.7 1.35 17.35q1 14.25 1 43.5q-0.35 17.9 -1.9 30.65q-0.95 9.8 -2.5 44q-1.5 32.05 -1.5 38.5q0 4.75 0.15 6.05q0.5 4.1 2.6 5.7q8.55 -0.15 19.55 -1.95q10.75 -1.8 15.2 -1.8q10.9 0 13.7 4.25q0.95 1.35 0.95 3.2q0 4.4 -2.5 7.25q-1.45 -1.05 -2.95 -1.05q-5.85 0 -7 0.75q-7.55 -0.5 -13.25 1.2q-6.25 1.8 -8.75 1.8q-15.2 3.9 -18.95 -5.35q-1.35 -3.35 -1.45 -9.1q2.25 -69.5 4 -89.25q0.8 -11.9 1.45 -34.3q0 -25.85 -1 -38.6q-0.65 -7.05 -1.35 -19.3q0 -11.35 4.2 -65.25q4.4 -56.6 6.8 -70.1q2 1.2 3.15 4.1q0.85 2.25 0.85 4.5q0 3.5 -1.25 10.45q-1.9 10.55 -5.55 19.2q-7.5 17.85 -20.4 23.8q3.45 22.75 12.65 52.8q6.65 20.65 10.15 33.9q0.55 -1.15 2 -2q2.5 3.2 2.5 7.1q0 2.5 -0.85 4.65q-0.25 0.35 -1.8 0.35q-4.45 0 -11.3 -26.5q-7.45 -32.05 -10.7 -43.25q-6.35 -20.75 -9.8 -33.65q-5.45 -20.65 -6.1 -32.6q-4.5 1.25 -9.6 1.25q-3.2 30.75 -9.25 53.65q-1.3 -1.5 -2 -5.4q-0.5 -2.9 -0.5 -5.6q0 -2.05 4.8 -43.8q5.15 -45.1 6.2 -58.2q-0.85 -2.6 -0.85 -4.05q0 -2.75 0.2 -3.65q0.25 -1.25 0.8 -2.25q0.65 -6 0.9 -13.85q0 -5.5 1.35 -10.1q-0.35 -1.4 -0.35 -2.9q0 -3.75 2 -6.75q26.6 0.8 36.35 27.65q5.15 14.15 5.15 36.45q-9.45 -24.25 -32.25 -19.4q-0.4 19.65 -3.95 39.05q5.1 -0.7 9.7 -2.85q0.7 -1.45 1.8 -1.4q8.4 -4.65 15 -14.5q4.25 -6.3 6.7 -13.3q2.25 -6.35 2.25 -10.7q0 -16.4 -5.25 -29.85q0.2 1.6 0.2 6.75q0 15.25 -0.55 26.3q-0.7 13.75 -2.45 25.85q-1 7.5 -1 22.5q0.7 14.1 1.35 22.6q2.3 12.7 2.8 29.25q0.2 5.85 0.2 29.1q0 27.65 -5.35 56q-5.8 30.35 -16.45 54.25q-11.75 26.45 -27.9 41q-17.95 16.25 -39.8 16.25q-34.65 0 -45.5 -53.7q-3.45 -16.9 -4.05 -37.25q0 -29 4 -91.95q1.05 -30.1 1.8 -44.3q2.8 -51.45 10.85 -85.15q2 3.6 2 7.1q0 18 -5.6 93.6q-5.65 75.55 -5.65 77.8q-4.9 77.55 -4.9 95.4q0.9 17.65 3.35 32.2q7.85 46 28.2 46q57.55 0 82.05 -64q8.6 -22.45 12.4 -51.2q2.55 -19.6 2.55 -38.4q0 -32.2 -3 -53.5q-0.65 -8.9 -1.35 -24.95q0 -17.6 1 -26.6q0.85 -18.4 3.7 -30.4q2.2 0.5 2.8 5.6q0 8 -5.75 82.95q2.35 0 6.8 -1.65q4.8 -1.8 5.2 -1.85q2 3.6 2 7.15q0 4.35 -1.2 6.35q-2.5 4.25 -10.3 4.25q-1.5 0.5 -25 0.25q-1.1 -1.3 -1.65 -6.35q-0.35 -3.3 -0.35 -6.4q0 -38.55 5.4 -104.35q5.35 -64.85 10.6 -92.25q2.25 1.85 2.8 4.5q0.2 0.9 0.2 4.1q-1.1 -1.1 -4.75 -6.8q-3.7 -5.7 -7.1 -9.15q-11.3 -11.55 -30.65 -11.55q-32.2 0 -52.5 8.95q-18.5 8.1 -29.55 24.75q-9.15 13.8 -15.65 37.7q-1.4 5.15 -10.8 47.6q-10 45.15 -13.25 62.95q-7.25 39.7 -7.25 64.9q0 15.25 0.2 17.25q0.2 6.6 1 13q2.45 20.55 10 37.15q23.85 52.4 90.8 52.4q36.15 0 59.75 -28.55q8.6 -10.4 16.55 -25.9q2 3.6 2 7.15q0 6.35 -5.05 19.25q-6.15 15.65 -15.95 29.1q-27.75 38.25 -69 38.25q-53.45 0 -82.15 -39.8q-11.75 -16.3 -18.25 -38.05q-5.7 -19.05 -6.6 -39.65q-2.6 -22.65 -2.75 -25.6q-0.25 -3.45 -0.25 -20.75q0 -27.95 9.4 -77.1q4.05 -22.3 5.75 -38.15q2.1 -20.2 9.75 -39.55q8.6 -22 22.5 -37.7q17.4 -19.8 40.3 -26.85q19.75 -6.1 40.3 -2q18.4 3.7 31 13.95q12.4 10.1 12.4 20.9q0 3.65 -2.5 6.5<g id="2963" transform="matrix(1, 0, 0, 1, -18.5, 0)">
<path style="fill:#000000;fill-opacity:1" d="M489.5,37.85Q489.5 40.2 486.5 67.75Q483.5 95.25 483.5 101.25Q483.5 111.75 481.5 132.75Q479.5 153.75 479.5 164.25L480.15 176.15Q480.8 186.85 481.5 193.5L481.5 237Q482.5 251.25 482.5 280.5L482.4 311.2Q482.05 329.1 480.5 341.85L480.5 388.35Q479.55 398.15 478 432.35Q476.5 464.4 476.5 470.85Q476.5 475.6 476.65 476.9Q477.15 481 479.25 482.6L493.25 483.6Q501.8 483.45 512.8 481.65Q523.55 479.85 528 479.85Q538.9 479.85 541.7 484.1Q542.65 485.45 542.65 487.3L542.5 489.35Q542.5 493.75 540 496.6L537.95 495.15Q536.5 494.1 535 494.1Q529.15 494.1 528 494.85Q520.45 494.35 514.75 496.05Q508.5 497.85 506 497.85L498.2 497.65L491.75 497.1Q476.55 501 472.8 491.75Q471.45 488.4 471.35 482.65L471.5 473.1Q473.75 403.6 475.5 383.85L475.5 336.6Q476.3 324.7 476.95 302.3L477.5 280.1Q477.5 254.25 476.5 241.5L476.5 197.25Q475.85 190.2 475.15 177.95L474.5 164.6Q474.5 153.25 478.7 99.35Q483.1 42.75 485.5 29.25Q487.5 30.45 488.65 33.35Q489.5 35.6 489.5 37.85M440.5,93.6Q440.5 97.1 439.25 104.05Q437.35 114.6 433.7 123.25Q426.2 141.1 413.3 147.05Q416.75 169.8 425.95 199.85L436.85 234.1Q443.5 254.75 447 268Q447.55 266.85 449 266Q451.5 269.2 451.5 273.1Q451.5 275.6 450.65 277.75L448.25 284L448.3 284.4Q448.05 284.75 446.5 284.75Q442.05 284.75 435.2 258.25Q427.75 226.2 424.5 215Q418.15 194.25 414.7 181.35Q409.25 160.7 408.6 148.75Q404.1 150 399 150L392.5 149.85L392.5 167.75L388.25 221.1Q385.05 251.85 379 274.75Q377.7 273.25 377 269.35Q376.5 266.45 376.5 263.75Q376.5 261.7 381.3 219.95Q386.45 174.85 387.5 161.75L387.5 146L387.35 145.55Q386.5 142.95 386.5 141.5Q386.5 138.75 386.7 137.85Q386.95 136.6 387.5 135.6L387.5 77.75Q388.15 71.75 388.4 63.9L388.5 50Q388.5 44.5 389.85 39.9Q389.5 38.5 389.5 37Q389.5 33.25 391.5 30.25L399 29.5Q425.6 30.3 435.35 57.15Q440.5 71.3 440.5 93.6M430.25,63.4Q420.8 39.15 398 44L396.45 43.95Q396.05 63.6 392.5 83L392.5 135.5L400 135.5Q405.1 134.8 409.7 132.65Q410.4 131.2 411.5 131.25L411.55 131.75Q419.95 127.1 426.55 117.25Q430.8 110.95 433.25 103.95Q435.5 97.6 435.5 93.25Q435.5 76.85 430.25 63.4M364.3,39.85Q364.5 41.45 364.5 46.6Q364.5 61.85 363.95 72.9Q363.25 86.65 361.5 98.75L361.5 156.5Q360.5 164 360.5 179L361.15 193.9Q361.85 208 362.5 216.5L362.5 263Q364.8 275.7 365.3 292.25Q365.5 298.1 365.5 321.35Q365.5 349 360.15 377.35Q354.35 407.7 343.7 431.6Q331.95 458.05 315.8 472.6Q297.85 488.85 276 488.85Q241.35 488.85 230.5 435.15Q227.05 418.25 226.45 397.9L226.5 380.35Q226.5 351.35 230.5 288.4L236 205L237.85 160.7Q238.9 130.6 239.65 116.4Q242.45 64.95 250.5 31.25Q252.5 34.85 252.5 38.35Q252.5 56.35 246.9 131.95Q241.25 207.5 241.25 209.75L236.4 285.2Q231.5 362.75 231.5 380.6L231.95 396.4Q232.85 414.05 235.3 428.6Q243.15 474.6 263.5 474.6Q321.05 474.6 345.55 410.6Q354.15 388.15 357.95 359.4Q360.5 339.8 360.5 321Q360.5 288.8 357.5 267.5L357.5 220.25Q356.85 211.35 356.15 195.3L355.5 178.6Q355.5 161 356.5 152L356.5 94.25L357.8 64.65Q358.65 46.25 361.5 34.25Q363.7 34.75 364.3 39.85M391.5,292.85Q391.5 300.85 385.75 375.8L377.5 479.6L401 478.85L429.75 479.1L435.75 480.05L442.5 480.6Q444.85 480.6 449.3 478.95Q454.1 477.15 454.5 477.1Q456.5 480.7 456.5 484.25Q456.5 488.6 455.3 490.6Q452.8 494.85 445 494.85L437 494.15L429.75 493.1L399.5 493.35Q398 493.85 374.5 493.6Q373.4 492.3 372.85 487.25Q372.5 483.95 372.5 480.85Q372.5 442.3 377.9 376.5Q383.25 311.65 388.5 284.25Q390.75 286.1 391.3 288.75Q391.5 289.65 391.5 292.85M195,69.75Q193.9 68.65 190.25 62.95Q186.55 57.25 183.15 53.8Q171.85 42.25 152.5 42.25Q120.3 42.25 100 51.2Q81.5 59.3 70.45 75.95Q61.3 89.75 54.8 113.65Q53.4 118.8 44 161.25Q34 206.4 30.75 224.2Q23.5 263.9 23.5 289.1Q23.5 304.35 23.7 306.35L26.5 330.6L26.5 371.85L26.7 378.05Q26.9 384.65 27.7 391.05Q30.15 411.6 37.7 428.2Q61.55 480.6 128.5 480.6Q164.65 480.6 188.25 452.05Q196.85 441.65 204.8 426.15L216.5 401.1Q218.5 404.7 218.5 408.25Q218.5 414.6 213.45 427.5Q207.3 443.15 197.5 456.6Q169.75 494.85 128.5 494.85Q75.05 494.85 46.35 455.05Q34.6 438.75 28.1 417Q22.4 397.95 21.5 377.35L21.5 335.35Q18.9 312.7 18.75 309.75Q18.5 306.3 18.5 289Q18.5 261.05 27.9 211.9L35.5 172.65Q39.55 150.35 41.25 134.5Q43.35 114.3 51 94.95Q59.6 72.95 73.5 57.25Q90.9 37.45 113.8 30.4Q133.55 24.3 154.1 28.4Q172.5 32.1 185.1 42.35Q197.5 52.45 197.5 63.25Q197.5 66.9 195 69.75" />
</g>
</svg>
