<?xml version="1.0" encoding="utf-8"?>
<svg version="1.1" id="Layer_1"
xmlns="http://www.w3.org/2000/svg"
xmlns:xlink="http://www.w3.org/1999/xlink"


xml:space="preserve">
q-4.35 -59.5 -13.75 -117.6q-0.6 1.3 -1.05 2.7q-8.85 27.6 -13.3 57.85q-6 38.9 -11.75 77.85q-2.6 -40.15 -6.75 -79.95q-6.1 -58.85 -7.7 -118.6q-0.7 -26.2 -3.85 -51.6q-7.5 28.05 -11.15 57.75q-7.15 58.65 -15.65 117.1q-8.5 58.45 -15.65 117.1q-7.15 58.55 -14.75 116.95q-3.85 29.4 -10.55 58q-3.8 16.25 2.05 29.4q1 -0.6 1.2 -1.4q9.95 -44.3 15.3 -89.75q7.1 -58.65 15.4 -117.1q8.3 -58.45 17.1 -116.75q0.25 33.6 3 67.5q4.85 59.15 8.4 118.5q1.75 29.6 1.35 59.25q-0.25 16.95 6.6 29.25q2.25 -2.05 2.6 -5.25q1.8 -2 2.15 -5.2q4.95 -46.85 10.85 -93.6q7.35 -58.65 15.8 -117.15q2.1 -14.65 5.7 -28.9q2.75 -10.85 4.35 -21.6q7.7 56.95 11.45 114.75q3.9 59.1 6.9 118.45q3 59.25 7.75 118.45q4.7 59.05 11.6 117.8q-0.35 1.4 -1.5 2.25q-1.3 4.85 -0.75 5.75q1.6 -2.35 2.5 -5q0.3 8.35 4.25 14.75q3.7 -1.35 3.4 -5.95q-3.4 -50.45 -8.8 -100.7q-6.35 -59 -10.15 -118.3q-3.8 -59.2 -6.3 -118.55q-1.25 -29.85 -3.4 -59.35q3.9 -2.05 2.45 -7.95q-1.5 -6.2 -6.9 -9.65q-20.5 19.1 1.45 38.2q9.9 8.55 13.3 21.3q-4.3 13.5 -18.85 13.6q-4.05 0 -7.9 -1.35q-6 5.35 -0.7 15.15q17.2 7.75 26.75 -7.75q14.2 -23 -6.3 -45.1q-5.35 -5.75 -11.2 -11.15q9.45 -1.95 14.85 4.95q-2.95 59.1 -4.55 118.45q-0.8 28.5 2.5 54.9q1.45 1.2 3.45 1.35q32.4 2.55 64.2 0.8q2.2 -3.5 1.2 -7.5q-0.35 -0.35 -0.75 -0.35q-22.15 2.8 -43.2 3.25q2.9 -26.2 2.75 -53.75q-0.3 -60.25 -0.3 -118.5q-1.7 -0.05 -1.75 1.55q-0.7 -2.3 -2 -4.4q-7.65 21.6 -11.75 45.3q-10.05 58 -16.75 117.2q-4.95 43.9 -11.85 87.5q-0.75 2.4 -0.2 4.5q-7.85 51.35 -14.05 103q-6.95 58.4 -17.2 116.25q-1.35 7.55 -4.75 14.3q-8.2 16.6 -0.7 28.9q5.5 -11.1 7.9 -23.5q11.25 -58.1 18.35 -116.85q7.15 -58.75 16.55 -117.05q9.05 58.55 18.4 117.05q9.4 59 20.9 117.5q3.35 16.8 12.1 27.9q1.75 -1.85 1.3 -4.3q-11.5 -56.5 -22.25 -113.45q-10.9 -57.95 -20.35 -116.15q-4.75 -29.3 -8 -58.75q-6.5 -58.75 -15.9 -116.95q-8.8 -54.2 -12.7 -108q0.25 -3.6 -0.45 -6.8q5.9 58.1 14 115.5q6.5 45.75 13.45 91.4q-31.35 2 -59.9 12.7q8 -51.5 14 -103.4q6.8 -58.55 17.15 -116.25q-5.2 21.15 -5.3 43q-0.15 6.3 3.15 11.4q3.25 -13.6 2.25 -27.35q5.4 -37.3 5 -75.05q-2.8 -35.85 -41.05 -38.25q-38.55 8.5 -47.3 47.75q-10.85 48.45 -12.6 98.75q-2.1 59.45 0.75 118.45q1.45 29.9 1.45 60.05q0 46.5 16.95 88.25q7.25 17.75 23.05 28.25q27.3 18.1 49.5 -3.5q15.6 -15.15 24.65 -35.1q8.3 -18.2 4 -35.95q-9.2 22.05 -20.75 45.15q-12.3 24.65 -39.35 21.3q-11.25 -1.4 -19.45 -8.95q-18.65 -17.25 -23.05 -42.75q-9.4 -54.75 -11.7 -110.7q-2.45 -58.55 -0.65 -117.75q0.7 -24.45 1.9 -48.8q1.8 -37.55 18.1 -70.45q10.2 -15.15 27.3 -19.7q18.3 -4.85 32 7.95q9.3 8.65 16.15 16.75q17.2 11.75 14.45 32.25q-0.5 3.55 -3 6.15q-5.85 17.85 -6.7 37.85q-0.95 21.6 -1.2 43.55q-0.05 6.4 2.75 9.9q3.15 -15.35 -13.5 -26.75q-6.15 -4.3 -10.25 -10.65q8.85 -7.65 9.45 -20.25q0.95 -19.85 -13.35 -33.4q4.15 -40.9 1.25 -82q-7.25 20.3 -6.35 42.9q0.85 22 0.5 43.6q-0.05 1.5 0.55 2.9q2.85 13.1 12.8 22.15q6.05 0.95 10.3 -3.1q22.75 -21.4 17.25 -53.6q-0.65 -3.9 -3.8 -6.3q-1.8 12.7 -2.75 25.5q-1.35 17.9 -17.75 25.75q-5.5 -1.95 -6.6 -7.75q-5.1 -27.2 -9.1 -43.5q-4.75 20.65 -0.35 40.85q-4.15 20.9 2.65 40.9q8.95 26.3 33.05 16q13.05 -5.65 21.5 -16.85q13.75 12.15 31.35 17.65q8.6 -3.85 14.75 -11.25q4 -4.85 5.25 -11q0.55 -2.65 0.25 -5.25q-8.05 4.3 -16.35 9.4q-13.2 8.1 -25.65 -7.15q-1.65 -2 -3.95 -3.45q4 -13.9 0.1 -27.75q-3.45 -12.3 -13.4 -20.95q-12.2 -10.7 -26.95 -13.6q-18.3 11.85 -22.6 33.3q22.9 9.4 27.65 30.6q1.45 6.45 -0.9 13.25q-6.2 8.7 -16.65 11.7q-9.55 2.9 -19.4 1.95q-14.4 -19.1 -9.1 -42.2q3.8 -16.6 16.6 -28.3<g id="2967" transform="matrix(1, 0, 0, 1, -7, 0)">
<path style="fill:#000000;fill-opacity:1" d="M499.6,194.2Q502.1 253.55 505.9 312.75Q509.7 372.05 516.05 431.05Q521.45 481.3 524.85 531.75Q525.15 536.35 521.45 537.7Q517.5 531.3 517.2 522.95Q516.3 525.6 514.7 527.95Q514.15 527.05 515.45 522.2Q516.6 521.35 516.95 519.95Q510.05 461.2 505.35 402.15Q500.6 342.95 497.6 283.7Q494.6 224.35 490.7 165.25Q486.95 107.45 479.25 50.5Q477.65 61.25 474.9 72.1Q471.3 86.35 469.2 101Q460.75 159.5 453.4 218.15Q447.5 264.9 442.55 311.75Q442.2 314.95 440.4 316.95L440.05 321Q439.7 324.2 437.45 326.25Q430.6 313.95 430.85 297Q431.25 267.35 429.5 237.75Q425.95 178.4 421.1 119.25Q418.35 85.35 418.1 51.75L415.95 68.2Q407.15 126.5 398.85 184.95Q390.55 243.4 383.45 302.05L369.45 419.05Q364.1 464.5 354.15 508.8Q353.95 509.6 352.95 510.2Q347.1 497.05 350.9 480.8Q357.6 452.2 361.45 422.8Q369.05 364.4 376.2 305.85Q383.35 247.2 391.85 188.75Q400.35 130.3 407.5 71.65Q411.15 41.95 418.65 13.9L418.85 8.25L419.2 8.25L419.55 10.6L419.8 9.6L420.2 9.5L420.2 15.9Q423.35 41.3 424.05 67.5Q425.65 127.25 431.75 186.1Q435.9 225.9 438.5 266.05Q444.25 227.1 450.25 188.2L467.9 71.1Q472.35 40.85 481.2 13.25L481.4 19.95Q481.85 18.55 482.45 17.25Q491.85 75.35 496.2 134.85Q498.35 164.35 499.6 194.2M348.55,18.95Q343.15 12.05 333.7 14L327.95 20.75Q333.8 26.15 339.15 31.9Q359.65 54 345.45 77Q335.9 92.5 318.7 84.75L316.15 79.95Q310.85 70.15 316.85 64.8L321.95 74.25Q325.8 75.6 329.85 75.6Q344.4 75.5 348.7 62Q345.3 49.25 335.4 40.7Q313.45 21.6 333.95 2.5L346.95 4.5Q352.35 7.95 353.85 14.15Q355.3 20.05 351.4 22.1L348.55 18.95M339.2,359.7Q339.2 417.95 339.5 478.2Q339.65 505.75 336.75 531.95Q357.8 531.5 379.95 528.7L403.45 530.1Q403.85 530.1 404.2 530.45L404.7 531.95L404.9 532.7Q405.9 536.7 403.7 540.2Q371.9 541.95 339.5 539.4Q337.5 539.25 336.05 538.05L335.95 538.7L335.8 537.4L335.7 537.2L335.5 536.45L335.45 535.7L335.4 534.6Q332.1 508.2 332.9 479.7Q334.5 420.35 337.45 361.25Q337.5 359.65 339.2 359.7M244.8,19.1Q248.7 72.9 257.5 127.1Q266.9 185.3 273.4 244.05Q276.65 273.5 281.4 302.8Q290.85 361 301.75 418.95Q312.5 475.9 324 532.4Q324.45 534.85 322.7 536.7Q313.95 525.6 310.6 508.8Q299.1 450.3 289.7 391.3Q280.35 332.8 271.3 274.25L269.4 262L269.2 262.5L206.1 272.1L205.5 275.8Q196.1 334.1 188.95 392.85Q181.85 451.6 170.6 509.7Q168.2 522.1 162.7 533.2Q155.2 520.9 163.4 504.3Q166.8 497.55 168.15 490Q178.4 432.15 185.35 373.75Q191.55 322.1 199.4 270.75Q198.85 268.65 199.6 266.25L199.95 265.5L200.25 265.4L201.6 256.5Q208.5 212.9 213.45 169Q220.15 109.8 230.2 51.8Q234.3 28.1 241.95 6.5Q243.25 8.6 243.95 10.9L244.2 10.25L244.35 12.3Q245.05 15.5 244.8 19.1M239.75,38.2L238.8 42.85Q228.45 100.55 221.65 159.1Q215.65 211 207.65 262.5Q236.2 251.8 267.55 249.8Q260.6 204.15 254.1 158.4Q246 101 240.1 42.9L239.75 38.2M175.2,5.25L175.35 15.95Q175.75 53.7 170.35 91L168.55 55.6L135.2 51.6L135.95 60.65Q136.95 74.4 133.7 88Q130.4 82.9 130.55 76.6L130.9 47.75Q131 25.9 136.2 4.75L135.95 43.5L168.9 46L175.2 5.25M109.95,43.5Q103.1 35.4 93.8 26.75Q80.1 13.95 61.8 18.8Q44.7 23.35 34.5 38.5Q18.2 71.4 16.4 108.95Q15.2 133.3 14.5 157.75Q12.7 216.95 15.15 275.5Q17.45 331.45 26.85 386.2Q31.25 411.7 49.9 428.95Q58.1 436.5 69.35 437.9Q96.4 441.25 108.7 416.6Q120.25 393.5 129.45 371.45Q133.75 389.2 125.45 407.4Q116.4 427.35 100.8 442.5Q78.6 464.1 51.3 446Q35.5 435.5 28.25 417.75Q11.3 376 11.3 329.5Q11.3 299.35 9.85 269.45Q7 210.45 9.1 151Q10.85 100.7 21.7 52.25Q30.45 13 69 4.5Q107.25 6.9 110.05 42.75L109.95 43.5M104.8,95.3L102.6 133.5L105.95 134.75L124.15 130.65Q126.65 128.05 127.15 124.5Q129.9 104 112.7 92.25L108.7 92.5L104.8 95.3M118.8,88.95Q133.1 102.5 132.15 122.35Q131.55 134.95 122.7 142.6Q126.8 148.95 132.95 153.25Q149.6 164.65 146.45 180L116.2 145.1L101.75 144L97.8 179.85Q95 176.35 95.05 169.95Q95.3 148 96.25 126.4Q97.1 106.4 102.95 88.55L109.6 83.9L113.2 84L118.8 88.95M117.7,269.45L115.9 268.4Q115.3 267 115.35 265.5Q115.7 243.9 114.85 221.9Q113.95 199.3 121.2 179Q124.1 220.1 119.95 261L154.2 262L155.2 271L118.8 270.85L117.7 269.45M106.5,452.2Q110.5 468.5 115.6 495.7Q116.7 501.5 122.2 503.45Q138.6 495.6 139.95 477.7Q140.9 464.9 142.7 452.2Q145.85 454.6 146.5 458.5Q152 490.7 129.25 512.1Q125 516.15 118.95 515.2Q109 506.15 106.15 493.05Q101.75 472.85 106.5 452.2M39,451.95Q53.75 454.85 65.95 465.55Q75.9 474.2 79.35 486.5Q83.25 500.35 79.25 514.25Q81.55 515.7 83.2 517.7Q95.65 532.95 108.85 524.85Q117.15 519.75 125.2 515.45Q125.5 518.05 124.95 520.7Q123.7 526.85 119.7 531.7Q113.55 539.1 104.95 542.95Q87.35 537.45 73.6 525.3Q65.15 536.5 52.1 542.15Q28 552.45 19.05 526.15Q12.25 506.15 16.4 485.25Q20.7 463.8 39 451.95M22.15,490.75Q16.85 513.85 31.25 532.95Q41.1 533.9 50.65 531Q61.1 528 67.3 519.3L51.5 512.25L53.05 504.2L71.9 510.25Q74.25 503.45 72.8 497Q68.05 475.8 45.15 466.4L42 461.95L38.75 462.45Q25.95 474.15 22.15 490.75" />
</g>
</svg>
