<?xml version="1.0" encoding="utf-8"?>
<svg version="1.1" id="Layer_1"
xmlns="http://www.w3.org/2000/svg"
xmlns:xlink="http://www.w3.org/1999/xlink"


xml:space="preserve">
q-19.55 -11.7 -42 -7.05q-9.3 1.8 -18.5 4.3q-6.8 79.5 -7.35 159.3q-0.85 117.8 -8.6 235.25q-0.35 5.5 1.35 10.75q10.6 -91.3 11.4 -183.75q-26.15 -2.2 -45.45 11.3q27.4 -1 54.5 2q-0.25 -1.45 -1.45 -2.3q-13.45 -2.85 -26.95 0.65q-5.3 97.3 -3.5 195q12.3 -15.35 9.35 -37.65q-4.1 -30.5 -3.85 -61.5q15.15 5.1 29.5 -1.85q2.3 -39.9 -1 -79.55q1.85 -2.35 1.3 -5.4q-8.15 20.6 -11.45 44.75q-7.95 58 -17.65 115.7q-0.5 1.05 -0.5 2.25q-0.05 1.9 0.3 3.7q-10.9 58.55 -26.85 115.85q-4.6 16.5 1.75 28.85q6.25 -21.5 11.45 -44.15q13.2 -57.5 23.35 -115.5q26.35 0.6 52.75 -1.35q5.05 58.9 10.4 117.75q1.35 15.05 1.55 30q0.2 14.5 8.65 21q5.1 -10.85 1.5 -21.75q-2.7 -21.3 -4.5 -42.75q-4.95 -59.1 -10.45 -117.8q-5.4 -59.45 -12.4 -117.65q-1.15 1.35 -2 2.9q7.45 36.3 6.75 74.25q-0.9 48.75 -26.55 88.5q-3.9 2.35 -8.5 0.75q-3.75 -2.5 -5.35 -6.65q-8.6 -21.8 -7.85 -46.35q-5.55 14.25 -6.25 31.7q-2.3 59.4 0.1 118.55q0.65 16.05 11.35 28.2q9.45 10.65 18 -1.4q19.5 -27.6 23.95 -61.05q8.05 -60.25 -5.9 -118q-4.5 2.75 -3.2 9.25q-15 4.65 -24 17.85q-11.8 17.3 -14.9 37.95q-8.9 58.65 7.8 115.25q7.85 26.6 33.2 34.35q12.9 3.95 22.45 -5.6q6.1 -6.1 11.05 -12.65q9.6 10 16.75 23.15q3.35 6.15 10 6.75q27.55 2.4 25.85 -21.8q-9.25 13.05 -25.95 11.7q-1.05 -0.1 -1.55 -0.8q-9.65 -13.35 -21.05 -24.8q17.65 -27.2 16.9 -62.6q-1.25 -54.15 -31.35 -99q-9 -15.05 -24.45 -18.85q35.95 26.9 38.95 75.15q1.35 21.95 -2.5 43.55q-2.5 14.25 -7.65 27.55q-1.6 4.2 -4.2 7.85q-16.5 15.3 -37.2 6.75q-6.8 -2.8 -10.5 -9.3q-9.05 -15.95 -14.5 -33.4q-7.3 -23.45 -9.4 -47.9q-3.85 -44.1 21.9 -76.35q9.4 -11.85 23.25 -11.7q-5.8 3.05 -2.95 9.65q-10.35 -29.05 -44.65 -23.7q-24.55 9.45 -31.7 35.8q-12.15 44.75 -11.45 91.65q0.55 39.05 20.35 72.2q10.2 17.1 28.9 11.25q31.1 -9.7 50.4 -35.85q10.15 -13.8 6 -27.85q-19.15 32.25 -53.05 48.85q-15.65 7.65 -24.75 -5.1q-25.1 -35.15 -23.1 -80q1.9 -41.5 17.15 -79.3q3.55 -8.75 11.85 -12.7q33.65 -16 54.9 9.05q-0.15 -2.35 -0.85 -4.3q4.75 59.35 -0.9 118.6q-1.65 17.2 -2.8 34.35q-1.1 17.2 -1.05 34.5q18.4 -2.05 35 -0.75q-1.2 -3.6 -0.8 -7.45q0.6 4.3 2.75 8.25q3.55 6.75 0 13.5q-21.8 -2.45 -43.75 0q-2.15 -59.4 3.05 -118.6q3.7 -41.45 5.2 -83.1q0 -0.15 0.5 -0.25<g id="2969" transform="matrix(1, 0, 0, 1, -44.2, 0)">
<path style="fill:#000000;fill-opacity:1" d="M437.45,84Q410.35 81 382.95 82L381 210.05Q400.3 196.55 426.45 198.75L430.5 200.45L430.7 207.5L380.85 220.4L379.85 310.2Q379.05 402.65 368.45 493.95L366.05 487.4Q364.35 482.15 364.7 476.65Q372.45 359.2 373.3 241.4Q373.85 161.6 380.65 82.1L377.45 81.5L377.45 74Q386.65 71.5 395.95 69.7Q418.4 65.05 437.95 76.75L437.45 84M343.7,88L309.3 90.5Q312.6 130.15 310.3 170.05L334.2 167.5L339.65 169.25L339.7 174.75Q325.35 181.7 310.2 176.6Q309.95 207.6 314.05 238.1Q317 260.4 304.7 275.75Q302.9 178.05 308.2 80.75L308.55 83.55L310.45 81.75L316.2 80.65Q329.7 77.15 343.15 80L343.55 80.3Q344.75 81.15 345 82.6Q345.55 85.65 343.7 88M263.45,76Q270.45 134.2 275.85 193.65L286.75 311.4Q292.25 370.1 297.2 429.2Q299 450.65 301.7 471.95L302.9 472.35L303.7 472.95Q307.3 483.85 302.2 494.7Q293.75 488.2 293.55 473.7Q293.35 458.75 292 443.7Q286.65 384.85 281.6 325.95L279.65 303.5Q253.25 305.45 226.9 304.85L221.25 337.55Q211.1 395.55 197.9 453.05Q192.7 475.7 186.45 497.2Q180.1 484.85 184.7 468.35Q200.65 411.05 211.55 352.5L220.3 304.65L216.7 304.5L216.5 303.7Q216.15 301.9 216.2 300Q216.2 298.8 216.7 297.75L221.65 297.05L232.1 236.2Q241.8 178.5 249.75 120.5Q253.05 96.35 261.2 75.75L261.45 78.9Q262.3 77.35 263.45 76M209.45,80.25Q223.4 138 215.35 198.25Q210.9 231.7 191.4 259.3Q182.85 271.35 173.4 260.7Q162.7 248.55 162.05 232.5Q159.65 173.35 161.95 113.95Q162.65 96.5 168.2 82.25L164.75 200Q164 224.55 172.6 246.35Q174.2 250.5 177.95 253Q182.55 254.6 186.45 252.25Q212.1 212.5 213 163.75Q213.7 125.8 206.25 89.5Q204.95 83 209.45 80.25M116.45,93.6L117.2 94.5Q147.3 139.35 148.55 193.5Q149.3 228.9 131.65 256.1Q143.05 267.55 152.7 280.9Q153.2 281.6 154.25 281.7Q170.95 283.05 180.2 270Q181.9 294.2 154.35 291.8Q147.7 291.2 144.35 285.05Q137.2 271.9 127.6 261.9Q122.65 268.45 116.55 274.55Q107 284.1 94.1 280.15Q68.75 272.4 60.9 245.8Q44.2 189.2 53.1 130.55Q56.2 109.9 68 92.6Q77 79.4 92 74.75Q107.45 78.55 116.45 93.6M94.75,96.75L94.3 95.75Q91.45 89.15 97.25 86.1Q83.4 85.95 74 97.8Q48.25 130.05 52.1 174.15Q54.2 198.6 61.5 222.05Q66.95 239.5 76 255.45Q79.7 261.95 86.5 264.75Q107.2 273.3 123.7 258L105.05 245L102.85 246.3L103.2 241.75L111.45 238.5L128.05 252.6Q130.65 248.95 132.25 244.75Q137.4 231.45 139.9 217.2Q143.75 195.6 142.4 173.65Q139.4 125.4 103.45 98.5L94.75 96.75M152.45,316.75Q131.2 291.7 97.55 307.7Q89.25 311.65 85.7 320.4Q70.45 358.2 68.55 399.7Q66.55 444.55 91.65 479.7Q100.75 492.45 116.4 484.8Q150.3 468.2 169.45 435.95Q173.6 450 163.45 463.8Q144.15 489.95 113.05 499.65Q94.35 505.5 84.15 488.4Q64.35 455.25 63.8 416.2Q63.1 369.3 75.25 324.55Q82.4 298.2 106.95 288.75Q141.25 283.4 151.6 312.45Q152.3 314.4 152.45 316.75M278.5,290.75L260.45 101.9L228.4 296.05L250.2 293.45L278.5 290.75M320.2,286.75Q324.95 346.1 319.3 405.35Q317.65 422.55 316.5 439.7Q315.4 456.9 315.45 474.2Q333.85 472.15 350.45 473.45Q349.25 469.85 349.65 466L349.95 465.2Q350.55 469.5 352.7 473.45L355.2 475.2Q358.75 481.95 355.2 488.7Q333.4 486.25 311.45 488.7Q309.3 429.3 314.5 370.1Q318.2 328.65 319.7 287Q319.7 286.85 320.2 286.75" />
</g>
</svg>
