<?xml version="1.0" encoding="utf-8"?>
<svg version="1.1" id="Layer_1"
xmlns="http://www.w3.org/2000/svg"
xmlns:xlink="http://www.w3.org/1999/xlink"


xml:space="preserve">
q-7.15 -14.15 -13.4 -23.5q-16.2 -24.4 -37.55 -34.1q-0.5 3 -1 4.5q-0.65 12.6 -1.35 35.7q0.6 10.45 0.6 15.75q0 1.25 1 3.75q0.9 2.2 1 3.45q4 -2.15 12.4 -4.9q18.05 -5.9 20.6 -8.2q9.1 -8.65 12.2 -13.95q10.2 -17.75 15.3 -29.65q7.3 -17.05 7.95 -29.6q2.85 -50.75 2.85 -65.05q-3.1 -27.75 -7 -44.45q-5.9 -25.05 -17.25 -46.3q11.35 26.2 16.7 51.9q5 23.95 2.55 35.5q0 19.75 -6 121.85q-0.9 6.05 -5.65 20.2q-6.6 19.7 -15.45 36.1q-26.85 49.95 -62.9 49.95q-4.05 0 -6.05 -0.9q-0.85 -3.65 -1.6 -9.3q-0.65 -5.1 -0.65 -7.2q0 -1.45 0.7 -3.75q21.4 10.75 40 34.05q17.4 21.8 30.45 52q0 3.65 -9.55 42.15q-9.9 40.05 -14.95 55.35q-1.45 -12.05 -14.6 -53.7q-12.65 -40.05 -12.65 -43.05q0 -1.65 0.2 -2.15q8.05 18.4 15.3 42.75q4.9 16.4 11.7 44q6.9 -15.05 12.55 -45.25q5.95 -31.8 10.95 -44.25q-1.75 -1.25 -2.05 -3.55q0.1 -2.3 -0.65 -3.3q-1.05 -1.35 -4.1 -1.35q-11.85 0 -17.35 20.45q-3.65 13.55 -3.65 29.8q0 9.4 -1.1 24.85q-0.8 14.2 -1.6 50.95q0.45 1.25 0.45 2.8q0 1.65 -0.35 2.4q-21.7 -0.05 -27 -2q-0.65 19.2 -1.6 31.85q-1 26.25 -2 78.4q-0.2 8.45 0.25 15.65q1.55 22.55 9.55 28.4q5.85 -4.75 8.15 -12.7q1.8 -9.15 3.1 -13.55q1.75 1.3 2.55 2.85q0 6.25 -4.2 17.15q-4.75 12.2 -9.3 13.1q-11.55 -8.8 -12.95 -35.15q-0.4 -8.25 0.2 -17.45q1 -54.75 2 -81.75q1.4 -20.1 2.8 -55.15q1.55 -39.5 2.45 -54.95q0.4 -17.15 2.3 -28.05q1.2 -8.55 2.3 -14.45q2.05 -11.05 4.8 -17.45q8.2 -19.2 23.15 0.15q5.1 61.4 5.1 81.25q-6.15 -25.55 -7.75 -67.8q-0.85 -19.9 -2.5 -34.3q-0.6 7.05 -2.45 35.25q-1.4 21.7 -3 35.25q-4.75 40.55 -17.8 70.5q0.35 2.2 0.35 5.75q0 7.55 -3.5 49.7q-3.5 42.1 -3.5 44.05q-4.05 -14.95 -6.4 -35.5q-1.15 6.65 -3.85 10.4q1.15 -3.35 2.5 -9.55q1 -6.75 1 -21.35q0 -7.9 1 -10.15q3.35 7.1 3.4 21.15q0.1 17.65 0.85 21.85q1.5 8.45 3 21.45q1.9 17.05 2.5 21.3q1.85 -14.35 3.95 -41.4q2.3 -28.65 3.8 -41.6q-0.6 -29.65 -1.3 -48.1q-1 -28.3 -2.7 -49.9q-2.65 40.85 -6.1 67.55q-0.5 -0.85 -0.65 -2.05q0 -18.7 5.75 -84.6q5.7 -65.35 7.25 -66.5q0.4 6.3 0.95 10.05q4.7 54.1 4.25 93q10.05 -28.95 14.8 -74.95q2.3 -22 5.25 -37.75q-0.25 0.4 -1.95 0.45q-8.65 0.2 -18.15 1.8q-0.5 -1.05 -0.65 -2.25q0 -4.75 3.15 -40.65q3.4 -38.65 5.6 -55.2q0.5 1 0.65 2.45q0 6.1 -3 42.9q7 0.45 8.8 1.3q1.45 0.7 1.45 2.95q0.35 0.7 0.35 2.55q0 2.9 1.2 18.6q1.25 15.95 1.8 19.65q1.4 11.1 1.4 18.55q-2.85 -14 -4.6 -36.3q-2.55 18.75 -4.85 30.35q-3.25 16.75 -7.9 30.15q-1.5 -19.9 -1.85 -31.55q-0.3 9.55 -2.35 25.9q-0.25 -1.5 -0.25 -4.1q0 -0.65 3.35 -30.15q3.4 -30.05 3.65 -39.25q-0.25 9 -0.25 27.4q0 11.25 1.5 21q1.5 9.8 1.5 27.1q3.05 -13.3 7.35 -41.65q4.4 -29.1 6.9 -40.35q1.3 0.75 1.65 1.45q0.2 0.5 0.2 2.15q0 4.65 -1.55 16.9q8.95 128.45 30.55 251.7q10.55 60.95 27.25 134.25q16.6 60.4 16.6 73.75q0 1.85 -0.4 3.25q-7.1 -27.9 -17.35 -66.3q-7.65 -28.25 -15.15 -67.35q-25.7 -0.5 -32.3 -2.2q-3.3 41.4 -6.35 67.7q-5.75 48.2 -8.9 67.75q-6.1 37.6 -15.35 66.75q-0.75 -1.15 -1 -2.05q-0.25 -0.95 -0.25 -2.8q0 -4.45 8.65 -57.2q8.1 -49.2 13.35 -78.2q4.85 -65.9 12 -135q1.45 -24.75 4.65 -67.5q0.9 -15.05 2.85 -33.6q0.5 -7.5 1.9 -16.85q0.85 -5.65 2.85 -16.9q0 -3 2.5 -3q0.85 -2 1.9 -3.5q-2.15 14.2 -3.85 33.8q-1.85 22 -4.75 67.8q-2.85 45.8 -4.75 67.8q13.5 -0.5 21.75 -0.5q5.95 -1.55 8.25 0.05q-23.6 -172.35 -28.8 -240.5q3.75 -0.6 9.2 1.7q5.45 2.35 9.15 6.2q4.2 4.35 4.2 8.75q0 2 -1.85 7q-2.2 6.05 -5.4 11.1q-5.5 8.65 -11.9 11.4q4.85 8.65 9.45 22.7q3.15 9.95 5.6 16.35q-6.2 -10.05 -12 -29.35q-5.25 -17.5 -9 -26.5q0 -16.95 4.65 -50.65q0 -2.8 1.95 -3.95q-1.05 13.55 -1.2 20.15q22.25 0 23 -0.5q0.45 0.6 0.45 2.35q0 2.35 -1.85 2.85q-0.5 -1.05 -0.65 -2.05q0 -7.1 1.95 -24.65q1.75 -15.55 2.55 -19.2q1 3 1 8.25q-4.95 -5.05 -12 -5.05q-1.4 0 -3.85 0.95q0 18.1 -2.35 36.85q9.75 -2.7 19.65 -25.5q0 -3.4 -4 -7.45q2.15 4.2 2.6 6.45q-0.25 1.25 -0.25 -1.25q0 -1.8 -3.9 -5.8q-3.85 -3.9 -9.6 -7.9q-14.25 -10.05 -23.25 -10.05q-31.7 0 -56.3 39.5q-19.85 31.8 -34.2 87.55q-16.5 64.05 -21.5 133.3q0 15.55 0.8 35.4q0.9 22.35 2.2 33.6q9.4 70.9 27.8 107.75q22.05 44 58.7 44q35.7 0 55.7 -29.7q8.9 -13.25 14.8 -35.3q2 3.45 2 9.4q0 4.35 -4.65 14.6q-5.35 11.9 -13.3 22.5q-22.2 29.75 -49.05 29.75q-36.3 0 -55.35 -25.1q-7.3 -9.7 -13.55 -24.9q-2.2 -5.35 -9.85 -27.25q-5.7 -16.3 -10.25 -41.05q-4.55 -27.8 -7 -40.7q-1.35 -11 -2.2 -33.9q-0.8 -20.4 -0.8 -36.95q0 -34.2 7.7 -79.2q8.2 -47.9 22.05 -89.05q15.6 -46.35 34.8 -72.7q21.9 -30.05 45.95 -30.05q20.75 0 34.15 14.85q4.5 4.95 7.5 10.95q8.25 -2.2 12.1 1.6q3.2 3.2 3.2 10.55q0 6.2 -1.2 9q-1.9 4.4 -6.65 5.95q9.2 11.45 9.2 13.3q-0.15 0.5 -0.15 1.1q-0.45 0.45 -1.05 0.6q-0.15 -0.4 -0.15 -1.95q0 -4.05 4.7 -19.7q-1.1 -0.6 -1.05 -1.45q0 -1.65 0.2 -1.95q0.35 0.05 1.9 1.1q6 -19.55 11.3 -26.65q0.35 0.4 0.35 2q0 -5.15 -3.55 -7.75q-3.35 -2.45 -10.55 -3.2q6.05 -1.2 8.75 -3.65q1.7 -1.6 2 -3.7q0.2 0.5 0.2 2.15q0 1.6 -0.3 2.15q-0.5 -1.5 -0.5 -3.75q0 -2.9 4.6 -21.35q3 -12.15 5.9 -22.9q0.5 0.15 0.5 1.7q0 8.5 -6.25 45.75q0.2 0.5 0.2 2.15q-0.5 -2.25 -0.5 -6.75q0 -9.8 2.2 -23.55q1.05 0.2 1.45 0.8q0.55 0.7 0.55 2.45q0 7.7 -3.2 24.5q-3.45 18.35 -3.8 23.5q-2.65 -6.7 -5.7 -18.9q-3.4 -13.6 -5.3 -19.1q-0.15 3.2 -1.5 8.9q-2.55 12.2 1.35 17.65q-0.5 -1.5 -0.5 -5.25q0 -10.6 1.3 -22.8q1.3 -12.1 3.7 -23.7q1.3 6 5.15 20.3q3.4 12.9 4.85 20.2q0.45 -9.5 2.4 -21.4q1.75 -10.7 4.1 -19.6q-5.8 0 -8.95 32.35q-1.6 16.25 -2.05 32.65q0 5.3 1 9.75q1.75 7.75 6 7.75q4.15 0 6.65 -3.95q0.4 -8.8 0.2 -12.75q-1.7 0.5 -4.05 2.05q-0.1 0 -0.1 -1.55q0 -2.95 4.15 -4.4q1.65 -0.65 7.85 -1.75q-0.8 14 0.75 27.75q-1.65 -3.45 -2.15 -8.9q-2.9 3.95 -5.25 3.95q-7.55 0 -10 -10.95q-0.8 -3.55 -0.95 -7.85q1 -16.6 1 -24.75q-1.05 -8.25 1.2 -15.95q1.95 -6.75 5.55 -10.5q3.5 -3.65 6.1 -2.05q2.9 1.8 2.9 9.4q0 3.75 -0.75 7.1q-0.45 -4.9 -3.55 -4.9q0 2.45 -2 6.75q-2.55 5.5 -6 5.5q-0.15 -0.75 -0.15 -2.35q0 -1.2 1.3 -8q0.95 -5.3 -0.05 -8.15q0.35 1 1.55 1.4q-0.65 -0.6 -1 -1.75q-0.55 -1.55 -0.55 -3.65q9.55 -1.6 12.5 10.2q1.25 4.95 1.25 16.05q-2.15 5.05 -1 15.85q0.8 7.45 0.4 12.2q6.1 -5.25 6.1 -10q0 -3.65 -3.1 -10.9q-3.7 -8.6 -6.9 -3.5<g id="2973" transform="matrix(1, 0, 0, 1, -7, 1.25)">
<path style="fill:#000000;fill-opacity:1" d="M506.05,73.9Q498.9 59.75 492.65 50.4Q476.45 26 455.1 16.3L454.5 20.35L452.5 30.5L452.5 80L452.75 80.75L452.75 186.5Q452.25 189.5 451.75 191L451.75 243.5Q451.1 256.1 450.4 279.2L449.75 302.25L450.4 313.1Q451 323.55 451 328.85L451 439.85L452.4 461.6L453 476.25L450.75 530.25Q450.75 531.5 451.75 534Q452.65 536.2 452.75 537.45Q456.75 535.3 465.15 532.55Q483.2 526.65 485.75 524.35L501.55 510.3Q510.65 501.65 513.75 496.35Q523.95 478.6 529.05 466.7Q536.35 449.65 537 437.1L540.15 384.05Q543 333.3 543 319L542.4 298L541 265.35L541 186Q537.9 158.25 534 141.55Q528.1 116.5 516.75 95.25L506.05 73.9M525.75,94.35Q537.1 120.55 542.45 146.25Q547.45 170.2 545 181.75L545 260.35L546.4 295.8L547 318.5Q547 338.25 541 440.35Q540.1 446.4 535.35 460.55Q528.75 480.25 519.9 496.65Q493.05 546.6 457 546.6Q452.95 546.6 450.95 545.7L450.75 546.35L449.5 546.6Q448.65 542.95 447.9 537.3Q447.25 532.2 447.25 530.1L448.25 509.1L449.25 488.1L448.5 470.75L447 444.6L447 328.35L446.5 318.7L446 311.1L446.75 283.55L448.25 240L448.25 187.5L449.25 183L449.25 80.25L449.5 79.5L449.5 27.75L450.85 16.35L451.1 14.6L449.5 14Q449.5 12.55 450.2 10.25L451.5 6.5L453.55 7.45L454.25 6.5L455.25 8.2L455.3 8.3Q476.7 19.05 495.3 42.35Q512.7 64.15 525.75 94.35M376.8,148.15L377 150.75Q377 154.4 367.45 192.9Q357.55 232.95 352.5 248.25L351.5 248.5Q350.05 236.45 336.9 194.8Q324.25 154.75 324.25 151.75Q324.25 150.1 324.45 149.6L325 148.75Q333.05 167.15 340.3 191.5Q345.2 207.9 352 235.5L352.75 235.75Q359.65 220.7 365.3 190.5Q371.25 158.7 376.25 146.25L376.8 148.15M442,167.75L441.5 168.15L441 168.75Q439.25 167.5 438.95 165.2L439 161.15Q439.1 158.85 438.35 157.85Q437.3 156.5 434.25 156.5Q422.4 156.5 416.9 176.95Q413.25 190.5 413.25 206.75Q413.25 216.15 412.15 231.6L410.25 257.6Q409.45 271.8 408.65 308.55L408.35 321.55L414.5 321.65L436.25 322.1L437.05 324.2Q437.5 325.45 437.5 327Q437.5 328.65 437.15 329.4L436 330.85Q414.3 330.8 409 328.85L408.1 328.5Q407.45 347.7 406.5 360.35L406.5 406.85Q405.5 433.1 404.5 485.25L404.2 493.55Q404 502 404.45 509.2Q406 531.75 414 537.6L425.25 537.35Q431.1 532.6 433.4 524.65Q435.2 515.5 436.5 511.1Q438.25 512.4 439.05 513.95L439.5 515.6Q439.5 521.85 435.3 532.75Q430.55 544.95 426 545.85L413.5 545.6Q401.95 536.8 400.55 510.45Q400.15 502.2 400.75 493L401.5 485.1Q402.5 430.35 403.5 403.35L403.5 357.6Q404.9 337.5 406.3 302.45Q407.85 262.95 408.75 247.5L409.45 220.05Q409.85 202.9 411.75 192Q412.95 183.45 414.05 177.55Q416.1 166.5 418.85 160.1Q427.05 140.9 442 160.25L442 167.75M391.25,247L397.15 317.5Q402.25 378.9 402.25 398.75L402.05 401.2L401.25 402.85Q395.1 377.3 393.5 335.05L392.25 300.65Q391.4 280.75 389.75 266.35L389.5 265.85Q388.9 272.9 387.05 301.1Q385.65 322.8 384.05 336.35Q379.3 376.9 366.25 406.85L364.65 406.85Q365 409.05 365 412.6Q365 420.15 361.5 462.3Q358 504.4 358 506.35L357.6 506.8L357 507.6Q352.95 492.65 350.6 472.1L347 435.85L346.75 435.35L346 436.85L346 475.1L344.85 485.7Q343.7 492.35 341 496.1L339.75 495.6L339.5 494.5Q340.65 491.15 342 484.95L344 475.6L344 433.6Q345 426.85 345 412.25Q345 404.35 346 402.1Q349.35 409.2 349.4 423.25Q349.5 440.9 350.25 445.1Q351.75 453.55 353.25 466.55Q355.15 483.6 355.75 487.85L355.75 488.1Q357.6 473.75 359.7 446.7Q362 418.05 363.5 405.1L364 405.1Q363.4 375.45 362.7 357Q361.7 328.7 360 307.1L360 268.85L359.55 267.75L359.25 266.6L359 266.6L354.6 333.3Q351.95 374.15 348.5 400.85L348 401.35Q347.5 400.5 347.35 399.3L347.25 396.35Q347.25 377.65 353 311.75Q358.7 246.4 360.25 245.25L361.05 255.3Q361.45 261.6 362 265.35L362 304.35Q366.7 358.45 366.25 397.35L366.5 397.6Q376.55 368.65 381.3 322.65L385 285Q387.3 263 390.25 247.25L391.25 247M326.25,296.85L326.1 298.85Q325.85 299.25 324.15 299.3Q315.5 299.5 306 301.1L297.5 300.85Q297 299.8 296.85 298.6L296.75 295.6Q296.75 290.85 299.9 254.95Q303.3 216.3 305.5 199.75L306.25 199.75Q306.75 200.75 306.9 202.2L307 205.35Q307 211.45 304 248.25L300 294.1L310.05 293.55L316 292.6Q323 293.05 324.8 293.9Q326.25 294.6 326.25 296.85M336.65,298.8Q337 299.5 337 301.35L336 311.85L335 322.35Q335 325.25 336.2 340.95Q337.45 356.9 338 360.6L340.6 379.2Q342 390.3 342 397.75L341.85 400.1L341.5 401.1L340.5 401.35Q337.65 387.35 335.9 365.05L333 327.85L332.75 327.35Q330.2 346.1 327.9 357.7Q324.65 374.45 320 387.85L317.85 357.4Q316.35 337.5 316 325.85Q315.7 335.4 313.65 351.75L310.25 378.85L309.75 378.85Q309.5 377.35 309.5 374.75Q309.5 374.1 312.85 344.6Q316.25 314.55 316.5 305.35L317.15 304.9L318 303.85Q317.75 312.85 317.75 331.25Q317.75 342.5 319.25 352.25Q320.75 362.05 320.75 379.35Q323.8 366.05 328.1 337.7Q332.5 308.6 335 297.35Q336.3 298.1 336.65 298.8M257.8,5.35Q258 5.85 258 7.5Q258 12.15 256.45 24.4Q265.4 152.85 287 276.1Q297.55 337.05 314.25 410.35L331.4 470.5Q348 530.9 348 544.25Q348 546.1 347.6 547.5L346.25 550.6Q339.15 522.7 328.9 484.3L310.5 415.6Q302.85 387.35 295.35 348.25L289.5 316L289.4 316.3L288.25 318.35L263 321.6Q237.3 321.1 230.7 319.4L229.3 318.95L227.1 346.9Q223.8 388.3 220.75 414.6Q215 462.8 211.85 482.35Q205.75 519.95 196.5 549.1Q195.75 547.95 195.5 547.05Q195.25 546.1 195.25 544.25Q195.25 539.8 203.9 487.05Q212 437.85 217.25 408.85Q222.1 342.95 229.25 273.85Q230.7 249.1 233.9 206.35L238.75 139Q239.65 123.95 241.6 105.4L245.5 71.5Q246 64 247.4 54.65Q248.25 49 250.25 37.75L252.25 20.25L252.85 16.5L252.75 10Q252.75 7 255.25 7L255.35 8Q256.2 6 257.25 4.5L257.8 5.35M253.5,44.8L248.5 75.75Q246.35 89.95 244.65 109.55L242 143.25Q240.15 165.25 237.25 211.05Q234.4 256.85 232.5 278.85L229.85 312.05L241.25 311.6Q254.75 311.1 263 311.1L271.25 310.6L275.65 309.85L280 309.1Q285.95 307.55 288.25 309.15L283 280.6Q259.4 108.25 254.2 40.1L253.5 44.8M291.25,98.75L291.65 100.3L292.45 100.1Q296.2 99.5 301.65 101.8Q307.1 104.15 310.8 108Q315 112.35 315 116.75Q315 118.75 313.15 123.75Q310.95 129.8 307.75 134.85Q302.25 143.5 295.85 146.25Q300.7 154.9 305.3 168.95L310.4 185.15Q313.55 195.1 316 201.5L315.6 201.95L315 202.75Q308.8 192.7 303 173.4Q297.75 155.9 294 146.9L288.95 147.55L288.4 151.15L280.25 200.75L279.5 200.75L279.05 198.7L279 195.85Q279 178.9 283.65 145.2L289.4 106.6L288.75 106.75L288.3 106.45L288.25 104.85Q288.25 102.05 290.2 100.9L290.5 98.75L291.25 98.75M168.25,59.5L167.2 73.1Q166.15 86.65 166 93.25Q188.25 93.25 189 92.75L201 92.5L202.8 93.75Q203.25 94.35 203.25 96.1Q203.25 98.45 201.4 98.95L189 100.25L163.5 100Q163 98.95 162.85 97.95L162.75 95.1Q162.75 88 164.7 70.45Q166.45 54.9 167.25 51.25Q168.25 54.25 168.25 59.5M309,109.3Q304.05 104.25 297 104.25Q295.6 104.25 293.15 105.2L292 105.65Q292 123.75 289.65 142.5L292.35 142.45L292.5 141L293.35 142.25Q303.1 139.55 313 116.75Q313 113.35 309 109.3M159.15,24.55Q161.3 28.75 161.75 31L161.15 31.45L160 32.25Q159.75 33.5 159.75 31Q159.75 29.2 155.85 25.2Q152 21.3 146.25 17.3Q132 7.25 123 7.25Q91.3 7.25 66.7 46.75Q46.85 78.55 32.5 134.3Q16 198.35 11 267.6Q11 283.15 11.8 303Q12.7 325.35 14 336.6L14 385.35Q23.4 456.25 41.8 493.1Q63.85 537.1 100.5 537.1Q136.2 537.1 156.2 507.4Q165.1 494.15 171 472.1Q173 475.55 173 481.5Q173 485.85 168.35 496.1Q163 508 155.05 518.6Q132.85 548.35 106 548.35Q69.7 548.35 50.65 523.25Q43.35 513.55 37.1 498.35Q34.9 493 27.25 471.1Q21.55 454.8 17 430.05Q12.45 402.25 10 389.35L10 340.6Q8.65 329.6 7.8 306.7Q7 286.3 7 269.75Q7 235.55 14.7 190.55Q22.9 142.65 36.75 101.5Q52.35 55.15 71.55 28.8Q93.45 -1.25 117.5 -1.25Q138.25 -1.25 151.65 13.6Q156.15 18.55 159.15 24.55M146.45,301.2Q154.7 299 158.55 302.8Q161.75 306 161.75 313.35Q161.75 319.55 160.55 322.35Q158.65 326.75 153.9 328.3L160.05 335.8Q169.25 347.25 169.25 349.1L169.15 351Q169 351.5 169 352.1L168.55 352.5Q168.1 352.95 167.5 353.1L156.4 337.25L150.7 328.95L148 329.1L137.5 328.75L130.25 350.35L128.5 350.35L128.15 349.7Q128 349.3 128 347.75Q128 343.7 132.7 328.05L130.75 327.35Q129.65 326.75 129.7 325.9L130 324.75Q130 323.1 130.2 322.8L131 322.35Q131.35 322.4 132.9 323.45L133.95 324Q139.95 304.45 145.25 297.35L146.4 298Q146.75 298.4 146.75 300L146.45 301.2M160.25,315.95L160.25 313.25Q160.25 308.1 156.7 305.5Q153.35 303.05 146.15 302.3L140.3 320.3L139 324.3L148.35 323.5L148.65 322.95L149 322.85L149.5 323.3Q155.55 322.1 158.25 319.65Q159.95 318.05 160.25 315.95M112.8,352.8L113 355.35L109.55 371.05L104 393.6L117 392.85L141.75 393.6L151.25 394.1L151.8 394.95Q152 395.45 152 397.1Q152 398.7 151.7 399.25L151 399.85L101.5 399.6Q101 398.1 101 395.85Q101 392.95 105.6 374.5Q108.6 362.35 111.5 351.6L112.25 351.6L112.8 352.8M183.75,447.9Q184.25 448.05 184.25 449.6Q184.25 458.1 178 495.35L182.2 495.8L187 496.6L196.25 497.1L196.8 497.95Q197 498.45 197 500.1L196.7 502.25L196 502.85L186 502.1L181.65 502.25L176.5 502.6Q176 500.35 176 495.85Q176 486.05 178.2 472.3L182.25 448.1L183.25 448.1L183.75 447.9M391,400.85Q392.05 401.05 392.45 401.65Q393 402.35 393 404.1Q393 411.8 389.8 428.6Q386.35 446.95 386 452.1L385.6 452.55L385 453.35Q382.35 446.65 379.3 434.45Q375.9 420.85 374 415.35Q373.85 418.55 372.5 424.25L370.15 434.2Q367.6 446.4 371.5 451.85L368.75 453.6Q368.25 452.1 368.25 448.35Q368.25 437.75 369.55 425.55Q370.85 413.45 373.25 401.85L374 401.1Q375.3 407.1 379.15 421.4Q382.55 434.3 384 441.6L384.5 441.85Q384.95 432.35 386.9 420.45Q388.65 409.75 391 400.85M386,460.35Q380.2 460.35 377.05 492.7Q375.45 508.95 375 525.35Q375 530.65 376 535.1Q377.75 542.85 382 542.85Q386.15 542.85 388.65 538.9L390.75 534.1L390.8 534.1Q391.2 525.3 391 521.35L386.05 522.55Q384.35 523.05 382 524.6L381.35 524.55Q381.25 524.55 381.25 523Q381.25 520.05 385.4 518.6Q387.05 517.95 393.25 516.85Q392.45 530.85 394 544.6L394 549.85L393.6 550.3L393 551.1Q391.35 547.65 390.85 542.2L389.25 544.65Q386.35 548.6 384 548.6Q376.45 548.6 374 537.65Q373.2 534.1 373.05 529.8L373 525.6L374 509.1Q375 492.5 375 484.35Q373.95 476.1 376.2 468.4Q378.15 461.65 381.75 457.9Q385.25 454.25 387.85 455.85Q390.75 457.65 390.75 465.25Q390.75 469 390 472.35L389.75 472.35L389.55 465.25Q389.1 460.35 386 460.35M366,534.35Q366 536.8 364 541.1Q361.45 546.6 358 546.6L354.3 546.5L352.7 546.4L352.4 546.65L352 547.1L350.5 547.1L350.15 546.1Q350 545.35 350 543.75Q350 542.55 351.3 535.75Q352.25 530.45 351.25 527.6L351.25 512.1L352.25 512.1Q352.6 513.1 353.8 513.5Q353.15 512.9 352.8 511.75Q352.25 510.2 352.25 508.1Q361.8 506.5 364.75 518.3Q366 523.25 366 534.35M354.2,513.8Q352.05 518.85 353.2 529.65Q354 537.1 353.6 541.85L353.9 541.6L358.15 538.25Q364.25 533 364.25 528.25Q364.25 524.6 361.15 517.35Q357.45 508.75 354.25 513.85L354.2 513.8" />
</g>
</svg>
