<?xml version="1.0" encoding="utf-8"?>
<svg version="1.1" id="Layer_1"
xmlns="http://www.w3.org/2000/svg"
xmlns:xlink="http://www.w3.org/1999/xlink"


xml:space="preserve">
q-0.95 19.9 -0.5 48q1.25 15.75 1.25 46.85q-0.5 23.15 -1.45 35.45q0.4 9.1 -0.55 21.75q14.35 -0.9 19.65 2.35q3.1 1.9 3.1 5.65q0 4 -4.85 5.5q-8.5 2.55 -32.9 0q-15.5 0 -16.05 -13.3q-0.15 -4.1 1.2 -10.75q1.35 -6.9 1.35 -8.2q0 -38.8 0.2 -47.95q0.55 -21.15 3.05 -54.8q0.6 -6.75 1.1 -10.15q0.15 -8.45 -1.6 -24.5q-2.1 -19.45 -2.45 -26.1q-1.6 -30.7 11.3 -43.15q6.45 -6.25 5.6 13.4q-0.85 10.75 -0.65 15.15q2.05 -2.75 3.35 -2q1.5 0.8 1.5 6.2q0 4.9 -1.5 14.65q-1.5 9.8 -1.5 14.2q0 90.9 17.65 266.5q2.85 28.7 12.1 114.65q5.5 51.25 5.5 59q0 2.9 -1 4.85q-1.5 3 -5 3q-7.65 0 -18.95 -124.35q-5.3 1.45 -14.35 3.1q-20.65 3.75 -32.05 3.75q-8.65 41 -17.75 72.8q-12.75 44.7 -19.75 44.7q-4.15 0 -5.25 -3.1q0 -1.7 6.8 -24.65q10.25 -36.45 18.2 -68.65q0 -2.3 1 -3.2q11.15 -45.9 17.5 -83.15q5.6 -34.5 8.9 -59.7q0.8 -9.6 4.05 -29.65q3.35 -20.6 4.2 -29.6q0.3 -3.25 1.75 -14.95q1.3 -10.05 1.5 -15.05q0.65 -4.85 1.85 -7.8q2 -5.25 6.1 -7.3q-14.05 94.65 -21.5 135.25q-3.95 21.7 -12.35 58.6q10.6 -0.35 22.35 -2.1q6.75 -1.2 10.65 -1.35q-3.9 -42.4 -3.9 -55.6q0 -16.95 -1.05 -48.45q1.8 -13.1 2.8 -17.9q4.15 -19.85 14 -17.55q3.5 4.35 3.65 13.9q0.2 11.75 1.35 15.35q3.75 11.2 4 28.5q0.2 11.15 2.6 28.6q1 7.2 11.5 52.35q10 45.6 10 61.65q0 2.15 -0.75 3.75q-1.3 2.75 -4.5 2.75q-7 0 -19.25 -76.85q-4.3 1.35 -11.4 2.45q-14.5 2.3 -28.25 2.3q-15.7 67.35 -21.8 67.35q-2.45 0 -3.25 -2q0.05 -2.65 10.95 -48.1q12.2 -50.9 15.05 -65.9q3.05 -17.95 5.85 -28.5q1.35 -5.1 2.95 -16.55q0.2 4.95 -0.2 7.95q-0.95 7.45 -8.6 21.6q-5.25 9.85 -18.95 22.55q7.3 14.65 12.25 23.55q6.35 12.8 15.35 33.85q10.4 24.3 10.4 28q0 2.15 -1.5 3.4q-1.45 1.25 -3.75 1.25q-6.55 0 -15.2 -23.85q-8.8 -27.85 -11.8 -35.9q-1.35 -3.6 -5.9 -12.15q-7.35 -14.15 -9.95 -22.75q-8.75 7.35 -14.9 9.65q-1.75 25 -6.2 54.15q-5.2 33.85 -8.8 33.85q-3.7 0 -4.45 -2.9q0 -10.2 5.5 -45q5.7 -33.95 6 -37.1q-0.85 -0.6 -1.25 -1.65q0.75 -4.9 1.5 -12.45q1 -5.9 4.8 -12.75q37 0.4 48 18.4q3.9 6.4 4.8 15.6q0.2 2.3 0.2 13.85q-0.9 -8.55 -4.35 -14.95q-9.25 -17 -36.2 -18.85q0.4 -2.65 1.95 -1.6q11.7 -9.75 17.1 -18.4q7.3 -11.6 8.7 -19.25q0.55 -3.05 0.55 -18.25q-6.55 -42.75 -15.6 -114.1q-9.8 51.5 -20.25 99.3q4.15 -0.5 15.35 -3.9q0 2.15 -13.2 27.6q-16.7 32.15 -19.3 37.65q5.3 12.4 8.7 30.55q2.35 6.9 5.6 20.65q3.55 15.25 5.4 21.35q11.75 34.75 11.75 38.25q0 2.1 -1.75 3.4q-1.35 1 -2.75 1q-5.25 0 -15.35 -30.5q-7.95 -24.15 -13.9 -50.25q-4.55 -18.8 -6.45 -27.95q-7.55 16.35 -15.2 27.95q-5.6 61.5 -8.8 61.5q-3.45 0 -4.2 -3.85q0 -12.6 8.15 -99.95q7.95 -85 11.35 -111.55q3.8 -2.4 5.25 1.4q0.75 2 0.75 5.45q0 5.2 -1.85 16.55q-1.9 11.35 -1.9 16.1q-1.9 26.15 -1.9 30.3q14.6 -32.05 17.7 -39.8q10.55 -26.2 24.05 -47.65q6.1 -9.7 9.75 -13q3.95 -3.6 3.95 1.4q21.95 -0.35 39.3 8.9q7 3.75 11.2 8.1q4 4.15 4 7.35q0 1.95 -0.75 3.4q-1 2 -3 2q-0.75 0 -3.55 -3.15q-3.65 -4.2 -7.85 -6.95q-15.1 -10.15 -44.75 -10.15q-29.2 0 -51.2 20.55q-12.45 11.7 -20.9 28.3q-8.35 16.4 -9.95 26.8q-0.55 3.7 -0.55 23.45q0 20.75 4.3 37.75q13.6 54 64.75 54q40.45 0 58.85 -9.55q6.75 -3.5 11.65 -8.85q2.8 -3.5 5.35 -8.55q2.7 -5.65 4.15 -8.35q5.15 -9.75 14 -14.6q0.6 0.9 0.6 2.45q0 5.7 -3.6 14.6q-5 12.4 -14.65 22.5q-28.35 29.75 -85.75 29.75q-21.2 0 -45.75 -17.7q-10.05 -7.2 -16.9 -15q-6.75 -7.7 -7.6 -12.8q-1.1 -6.8 -5.2 -23.8q-2.55 -10.6 -2.55 -21.2q0 -7.5 0.25 -11.25q3.95 -19.6 9.85 -31.2q8.8 -17.45 26.15 -29.4q3.3 -2.3 8.45 -7.95q5.1 -5.55 9 -8.2q13.45 -9.05 45.05 -9.1<g id="2981" transform="matrix(1, 0, 0, 1, -14.75, 0)">
<path style="fill:#000000;fill-opacity:1" d="M406.75,80.5Q405.8 100.4 406.25 128.5L406.25 177.25Q407.5 193 407.5 224.1L407.2 246.8Q406.7 269.95 405.75 282.25L405.75 347.35Q406.15 356.45 405.2 369.1L403 391.6L403 502.35L409 502.35L423.7 500.3L443 497.35L508 497.1Q522.35 496.2 527.65 499.45Q530.75 501.35 530.75 505.1Q530.75 509.1 525.9 510.6Q517.4 513.15 493 510.6L445 510.6L425.6 512.95L404.5 515.1Q389 515.1 388.45 501.8Q388.3 497.7 389.65 491.05Q391 484.15 391 482.85L391 449.85Q391 411.05 391.2 401.9Q391.75 380.75 394.25 347.1L394.25 280.5L395.4 270.4Q396 263.65 396.5 260.25L396.5 185.25L395.75 179.25L395.75 128.25Q395.9 119.8 394.15 103.75Q392.05 84.3 391.7 77.65Q390.1 46.95 403 34.5Q409.45 28.25 408.6 47.9L407.4 65.35Q406.55 76.1 406.75 80.5M347.9,39.8Q349.95 37.05 351.25 37.8Q352.75 38.6 352.75 44Q352.75 48.9 351.25 58.65Q349.75 68.45 349.75 72.85Q349.75 163.75 367.4 339.35Q370.25 368.05 379.5 454Q385 505.25 385 513Q385 515.9 384 517.85Q382.5 520.85 379 520.85Q371.35 520.85 360.05 396.5L356.4 354.5Q351.1 355.95 342.05 357.6Q321.4 361.35 310 361.35L299.45 361.05L291.5 396.85Q282.85 437.85 273.75 469.65Q261 514.35 254 514.35Q249.85 514.35 248.75 511.25L248.5 507.85Q248.5 506.15 255.3 483.2L271.6 427Q281.85 390.55 289.8 358.35L289.75 358.05L290 356.6Q290 354.3 291 353.4Q302.15 307.5 308.5 270.25L318.35 211.45Q323.95 176.95 327.25 151.75Q328.05 142.15 331.3 122.1Q334.65 101.5 335.5 92.5Q335.8 89.25 337.25 77.55Q338.55 67.5 338.75 62.5L339.65 55.3Q340.3 50.45 341.5 47.5Q343.5 42.25 347.6 40.2L347.9 39.8M338.5,144Q324.45 238.65 317 279.25Q313.05 300.95 304.65 337.85L301.35 352.55Q311.95 352.2 323.7 350.45L345 346.65Q351.75 345.45 355.65 345.3L353 310.95L350.25 271.85L346.4 228.1Q342.5 185.7 342.5 172.5Q342.5 155.55 341.45 124.05L338.5 144M252.2,71.45Q254 58.35 255 53.55Q259.15 33.7 269 36Q272.5 40.35 272.65 49.9Q272.85 61.65 274 65.25Q277.75 76.45 278 93.75Q278.2 104.9 280.6 122.35L284.75 150.75Q285.75 157.95 296.25 203.1Q306.25 248.7 306.25 264.75Q306.25 266.9 305.5 268.5Q304.2 271.25 301 271.25Q294 271.25 281.75 194.4L281.15 190.5Q276.85 191.85 269.75 192.95Q255.25 195.25 241.5 195.25L237.8 195.15Q222.1 262.5 216 262.5Q213.55 262.5 212.75 260.5L212.5 259Q212.55 256.35 223.45 210.9Q235.65 160 238.5 145L243.4 116.5Q246.45 98.55 249.25 88Q250.6 82.9 252.2 71.45M182.3,93.7Q182.5 98.65 182.1 101.65Q181.15 109.1 173.5 123.25Q168.25 133.1 154.55 145.8L157.4 151L167.75 171.7Q175.05 186.35 180 195.25Q186.35 208.05 195.35 229.1Q205.75 253.4 205.75 257.1Q205.75 259.25 204.25 260.5Q202.8 261.75 200.5 261.75Q193.95 261.75 185.3 237.9Q176.5 210.05 173.5 202Q172.15 198.4 167.6 189.85L158.85 173.6Q151.5 159.45 148.9 150.85Q140.15 158.2 134 160.5L134 171.5Q132.25 196.5 127.8 225.65Q122.6 259.5 119 259.5Q115.3 259.5 114.55 256.6L114.5 253.35Q114.5 243.15 120 208.35Q125.7 174.4 126 171.25L126 160.8Q125.15 160.2 124.75 159.15L124.5 156.5L126 155.65L126 124.75Q126.75 119.85 127.5 112.3L128.25 103L127.25 89.3L126.25 75.6L126.5 52Q127.5 46.1 131.3 39.25L132 38.05L129 38L128.75 36.85L129 35.25Q166 35.65 177 53.65Q180.9 60.05 181.8 69.25Q182 71.55 182 83.1L182.3 93.7M175.75,72.05Q174.85 63.5 171.4 57.1Q162.15 40.1 135.2 38.25L135.5 42.85L134.5 51.3L133.5 59.75L134.65 81.3L135.75 102.85L135.25 112.8L134 126.5L134 150.55L141.3 145.4L147.7 140.5Q148.1 137.85 149.65 138.9Q161.35 129.15 166.75 120.5Q174.05 108.9 175.45 101.25Q176 98.2 176 83L175.75 72.05M279.85,182.35Q273.3 139.6 264.25 68.25Q254.45 119.75 244 167.55L239.45 188L263 186.5Q267.15 186 278.35 182.6L279.85 182.35M93,30.25Q93 32.4 79.8 57.85Q63.1 90 60.5 95.5L58.6 99.55L58.8 99.95Q64.1 112.35 67.5 130.5Q69.85 137.4 73.1 151.15Q76.65 166.4 78.5 172.5L93.75 217.85Q105.5 252.6 105.5 256.1Q105.5 258.2 103.75 259.5Q102.4 260.5 101 260.5Q95.75 260.5 85.65 230Q77.7 205.85 71.75 179.75L61.15 136.1Q56.6 117.3 54.7 108.15L45.75 128.35Q38.2 144.7 30.55 156.3L27.8 190.75Q22.2 252.25 19 252.25Q15.55 252.25 14.8 248.4L14.75 244.25Q14.75 231.65 22.9 144.3Q30.85 59.3 34.25 32.75Q38.05 30.35 39.5 34.15Q40.25 36.15 40.25 39.6Q40.25 44.8 38.4 56.15Q36.5 67.5 36.5 72.25L34.65 97.8Q32.75 123.95 32.75 128.1L31.65 142.45L37.55 129.3Q52.15 97.25 55.25 89.5Q65.8 63.3 79.3 41.85Q85.4 32.15 89.05 28.85Q93 25.25 93 30.25M132.25,278.75Q154.2 278.4 171.55 287.65Q178.55 291.4 182.75 295.75Q186.75 299.9 186.75 303.1Q186.75 305.05 186 306.5Q185 308.5 183 308.5Q182.25 308.5 179.45 305.35Q175.8 301.15 171.6 298.4Q156.5 288.25 126.85 288.25Q97.65 288.25 75.65 308.8Q63.2 320.5 54.75 337.1Q46.4 353.5 44.8 363.9Q44.25 367.6 44.25 387.35L43.45 405.85Q43.45 426.6 47.75 443.6Q61.35 497.6 112.5 497.6Q152.95 497.6 171.35 488.05Q178.1 484.55 183 479.2L190 470.35Q192.8 466.85 195.35 461.8Q198.05 456.15 199.5 453.45Q204.65 443.7 213.5 438.85L214.9 440.55Q215.5 441.45 215.5 443Q215.5 448.7 211.9 457.6Q206.9 470 197.25 480.1Q168.9 509.85 111.5 509.85Q90.3 509.85 65.75 492.15Q55.7 484.95 48.85 477.15Q42.1 469.45 41.25 464.35Q40.15 457.55 36.05 440.55Q33.5 429.95 33.5 419.35Q33.5 411.85 33.75 408.1L33.75 364.6Q37.7 345 43.6 333.4Q52.4 315.95 69.75 304Q73.05 301.7 78.2 296.05Q83.3 290.5 87.2 287.85Q100.65 278.8 132.25 278.75" />
</g>
</svg>
