<?xml version="1.0" encoding="utf-8"?>
<svg version="1.1" id="Layer_1"
xmlns="http://www.w3.org/2000/svg"
xmlns:xlink="http://www.w3.org/1999/xlink"


xml:space="preserve">
q-3.8 3.55 -4.9 10.05q-9.7 58.1 -18.35 116.35q-4.35 29.45 -13.45 57.85q-3 9.35 -4.15 18.45q-4.9 -42.35 -10.8 -84.55q-7.95 -56.7 -12.05 -113.1q-10.75 23.2 -14.55 50.25q-8.1 58.1 -14.65 116.5q-6.6 58.75 -16.7 117q-8.6 49.7 -18.95 98.7q-0.65 6.25 -2.7 12.5q-0.55 1.25 -1.75 2.1q-2.6 17.3 1.9 32.25q2.1 0.2 2.55 -1.75q6.35 -26.3 12.05 -53q12.35 -57.9 21.3 -116.3q8.9 -58.25 15 -117.05q5.75 -55.85 16.3 -110.95q0.4 28 4.85 56q9.2 58.1 13.05 116.9q1.1 16.35 7.9 28.45q1.6 -3.25 2.5 -6.75q1.95 -0.95 2.45 -3.55q6.4 -31.9 12.2 -63.95q10.55 -58.2 20.3 -116.5q1.7 -10.1 2.6 -19.95q3.45 21.95 5.9 44.1q6.4 57.95 13.15 115.85q6.8 58.8 16.1 117.15q9.3 58.15 20.05 116.05q-1.2 -2.95 -2.9 -4.45q1.15 3.35 1.9 6.75q3.05 8.2 7.5 14.75q3.1 -1.3 2.75 -4.95q-4.15 -39.5 -11.35 -78.95q-10.6 -57.95 -20.5 -116.05q-9.9 -58.05 -13.9 -117.05q-4 -59.3 -16.5 -116.2q5.15 -23.85 -20.1 -26.2q-2.55 1.45 -5.1 3.4q-29.05 22.4 -21 60.9q2.35 11.25 6.9 21.65q12.45 28.5 26.35 55.7q17.3 33.9 0.85 65.85q-15.45 16.3 -33.75 3.75q-0.15 -4.75 -4.15 -4.95q-2.45 3.2 -3.05 7.3q-1.85 12.55 7.2 20.15q10.85 9.15 23.15 3.95q9.1 -3.8 13.9 -12.4q22.25 -39.9 3.3 -83.6q-2.5 -5.8 -6.05 -10.75q-23.35 -32.55 -28.65 -71.4q-1.7 -12.55 3.75 -24.15q10.25 -21.65 30.7 -10.35q1.1 2.9 3.65 2.6q-4.25 56.75 -2.7 114.7q1.6 59.85 0.75 119.25q-0.8 59.95 -4.25 119.25q-1.3 22.5 -3.95 44.8q-1.65 14.15 5.65 21.65q5.95 -53.65 7.7 -108.7q1.85 -59.4 0.85 -119.25q-1 -59.5 -0.6 -119.25q0.1 -15.15 0.55 -30q0.7 -23.1 -2 -44.25q-1.85 -0.1 -2 1.8q-7.05 35 -6.2 72.7q-13.75 3.8 -28.05 6.8q-1.65 -54.5 -4.45 -107.55q-4.6 7.45 -4.25 18.75q1.9 59.5 2.5 119.25q0.3 30 -1.7 59.85q-1.1 16.65 3.95 29.9q1.75 -0.3 1.85 -2.05q3.9 -53.05 2.4 -107.2q16.85 -0.05 33.1 -2.6q0.25 38.35 -0.5 76.6q-0.3 16.55 5.15 29.75q1.75 -0.3 1.85 -2.05q2.6 -50.4 1.5 -101.2q-1.3 -60.3 -2.1 -118.5q-4.45 83.75 -6.15 168.1q-0.25 13.35 -2.45 26.25q-0.35 2 -0.4 4.05q-0.05 3.8 0.2 7.6q1 5.25 3.55 10.05q8.15 -56.2 9.35 -108.8q5.25 60 30.15 114.95q-9.75 -58.2 -26.5 -119.1q22.3 -28.45 22.45 -64.95q0.05 -5.5 -1 -10.85q-2.15 -4.15 -5.35 -7.65q-9.7 -10.7 -23.3 -13.2q17.85 46.7 -19.25 81.1q-0.05 -49.5 -0.55 -97.4q9.35 0.65 17.05 6.1q5.45 3.8 7.8 9.95q-6.55 -4.55 -14.55 -3.3q-8.15 1.5 -13.75 7.85q-11.65 13.25 -16.6 30.5q-5.2 18.6 -7.75 37.7q-2.25 17 -2.35 34.25q-0.1 21.75 2.6 43.3q2.7 21.8 11.75 41.3q11 23.65 32.5 15.3q18.85 -7.35 16.5 -26.75q-5.25 1.35 -8.95 5.4q-4.55 5.05 -10.85 7.1q-7.55 2.3 -13.55 -2.6q-8.3 -6.85 -11.6 -17.2q-22.7 -70.9 2.75 -143.2q7.5 -21.2 30.2 -21.65q0.8 -4.35 -0.3 -8.85q-1.1 -4.6 -4.9 -7.2q-0.65 3.75 1.25 6.9q22.4 39.3 6.05 83.35q-12.45 -16.35 -29.8 -26q-1.35 0.3 -2.6 0.9q-1.15 2.9 -1.1 6q0 3.2 2.1 5.25q12.85 2.55 19.8 14.25q3.7 6.25 7.95 11.9q-14.1 19.7 -40.7 21.35q-4.1 -2.35 -9 -3q-22.8 -24.8 -20.35 -59.8q1.3 -18.3 4.5 -36.2q7 -39.55 41.55 -55.2q7.25 -2.2 11.75 2.75q-16.45 12.4 -25.5 30.85q-9.3 18.9 -12.35 39.9q-2.8 19.15 -1.4 38.5q1.4 19.35 6.7 37.85q6.6 23.15 30.4 26.15q22.3 3.05 37.15 -15.1q4.55 -5.55 8.4 -11.6q23.85 36.35 55.25 20.75q11.3 -5.65 14.65 -17.9q1.8 -6.6 1.4 -13.45q30.8 -30.15 36.95 -73.1q3.25 -22.5 1.4 -45.15q-0.6 -7.2 -5.65 -12.3q3.8 34.9 -5.6 69.4q-5.55 20.45 -16.55 38.6q-2.75 4.55 -7.5 5.05q-6.6 -0.1 -11.8 -4.2q-5.2 -4.1 -6.5 -10.75q-9.95 -52 -8.55 -104.85q-13.65 60 5.4 117.6q4.2 12.75 16.1 19.45q-25.3 -1.45 -43.05 -22.2q22.55 -54.85 -4.8 -107.35q-5.6 -10.8 -13.65 -19.9q-8.4 -24.75 -31.75 -7.1<g id="2985" transform="matrix(1, 0, 0, 1, -42.05, 0)">
<path style="fill:#000000;fill-opacity:1" d="M454.45,76.75Q466.95 133.65 470.95 192.95Q474.95 251.95 484.85 310Q494.75 368.1 505.35 426.05Q512.55 465.5 516.7 505Q517.05 508.65 513.95 509.95Q509.5 503.4 506.45 495.2Q505.7 491.8 504.55 488.45L504.45 487.7Q506.15 489.2 507.35 492.15L507.7 492.45Q496.95 434.55 487.65 376.4Q478.35 318.05 471.55 259.25Q464.8 201.35 458.4 143.4Q455.95 121.25 452.5 99.3Q451.6 109.15 449.9 119.25Q440.15 177.55 429.6 235.75Q423.8 267.8 417.4 299.7Q416.9 302.3 414.95 303.25Q414.05 306.75 412.45 310Q405.65 297.9 404.55 281.55Q400.7 222.75 391.5 164.65Q387.05 136.65 386.65 108.65Q376.1 163.75 370.35 219.6Q364.25 278.4 355.35 336.65Q346.4 395.05 334.05 452.95Q328.35 479.65 322 505.95Q321.55 507.9 319.45 507.7Q314.95 492.75 317.55 475.45L317.95 475.45Q319.15 474.6 319.7 473.35L320.6 471.1L320.7 472.45L321.65 468.2Q323.7 461.95 324.35 455.7Q334.7 406.7 343.3 357Q353.4 298.75 360 240Q366.55 181.6 374.65 123.5Q378.45 96.45 389.2 73.25L389.75 80.55Q393.85 136.95 401.8 193.65Q407.7 235.85 412.6 278.2Q413.75 269.1 416.75 259.75Q425.85 231.35 430.2 201.9Q438.85 143.65 448.55 85.55Q449.65 79.05 453.45 75.5L453.5 78.15L454.45 76.75M345.7,105.75Q343.15 106.05 342.05 103.15L340.2 97.75Q319.75 86.45 309.5 108.1Q304.05 119.7 305.75 132.25Q311.05 171.1 334.4 203.65Q337.95 208.6 340.45 214.4Q359.4 258.1 337.15 298Q332.35 306.6 323.25 310.4Q310.95 315.6 300.1 306.45Q291.05 298.85 292.9 286.3Q293.5 282.2 295.95 279Q299.95 279.2 300.1 283.95L300.2 290Q318.5 302.55 333.95 286.25Q350.4 254.3 333.1 220.4Q319.2 193.2 306.75 164.7Q302.2 154.3 299.85 143.05Q291.8 104.55 320.85 82.15Q323.4 80.2 325.95 78.75Q351.2 81.1 346.05 104.95L345.7 105.75M277.45,84Q280.15 105.15 279.45 128.25Q279 143.1 278.9 158.25Q278.5 218 279.5 277.5Q280.5 337.35 278.65 396.75Q276.9 451.8 270.95 505.45Q263.65 497.95 265.3 483.8Q267.95 461.5 269.25 439Q272.7 379.7 273.5 319.75Q274.35 260.35 272.75 200.5Q271.2 142.55 275.45 85.8Q275.6 83.9 277.45 84M175.2,87.25Q176 145.45 177.3 205.75Q178.4 256.55 175.8 306.95Q175.7 308.7 173.95 309Q168.5 295.8 168.8 279.25Q169.55 241 169.3 202.65Q153.05 205.2 136.2 205.25L136.2 205.75Q137.7 259.9 133.8 312.95Q133.7 314.7 131.95 315Q126.9 301.75 128 285.1Q130 255.25 129.7 225.25Q129.1 165.5 127.2 106Q126.85 94.7 131.45 87.25Q134.25 140.3 135.9 194.8Q150.2 191.8 163.95 188L169.15 188.4L168.65 160Q167.8 122.3 174.85 87.3L175.2 87.25M198.45,86L202.5 84.05L206.8 84.3Q220.4 86.8 230.1 97.5Q233.3 101 235.45 105.15L237.05 108.6L238.95 114.15L240.4 120.1Q241.45 125.45 241.4 130.95Q241.25 167.45 218.95 195.9Q235.7 256.8 245.45 315Q220.55 260.05 215.3 200.05L209.45 205.75L203.8 205.2Q202.6 257.8 194.45 314Q191.9 309.2 190.9 303.95L190.4 300.25Q190.15 296.45 190.2 292.65Q190.25 290.6 190.6 288.6Q192.8 275.7 193.05 262.35Q194.75 178 199.2 94.25L198.45 86M219.65,100.45Q211.95 95 202.6 94.35Q203.1 142.25 203.15 191.75L203.9 191.65L208.2 191.5Q245.3 157.1 227.45 110.4Q225.1 104.25 219.65 100.45M107.65,97.65Q108.75 102.15 107.95 106.5L97.7 101Q75 101.45 67.5 122.65Q42.05 194.95 64.75 265.85Q68.05 276.2 76.35 283.05Q82.35 287.95 89.9 285.65Q96.2 283.6 100.75 278.55Q104.45 274.5 109.7 273.15L111.1 270.6Q113.45 290 94.6 297.35Q73.1 305.7 62.1 282.05Q53.05 262.55 50.35 240.75Q47.65 219.2 47.75 197.45Q47.85 180.2 50.1 163.2Q52.65 144.1 57.85 125.5Q62.8 108.25 74.45 95Q80.05 88.65 88.2 87.15Q96.2 85.9 102.75 90.45Q106.55 93.05 107.65 97.65M107.7,339Q73.15 354.65 66.15 394.2Q62.95 412.1 61.65 430.4Q59.2 465.4 82 490.2Q86.9 490.85 91 493.2L91.5 493.45Q118.1 491.8 132.2 472.1Q127.95 466.45 124.25 460.2Q117.3 448.5 104.45 445.95Q102.35 443.9 102.35 440.7Q102.3 437.6 103.45 434.7Q104.7 434.1 106.05 433.8L109.45 433.45Q126.8 443.1 139.25 459.45L140.7 455.8Q157.05 411.75 134.65 372.45L120.7 348.65Q118.8 345.5 119.45 341.75Q114.95 336.8 107.7 339M127.2,340.75Q135.25 349.85 140.85 360.65Q168.2 413.15 145.65 468Q163.4 488.75 188.7 490.2L207.7 468.3Q195.8 461.6 191.6 448.85Q172.55 391.25 186.2 331.25Q184.8 384.1 194.75 436.1Q196.05 442.75 201.25 446.85Q206.45 450.95 213.05 451.05Q217.8 450.55 220.55 446Q231.55 427.85 237.1 407.4Q246.5 372.9 242.7 338L244.65 339.9Q249.7 345 250.3 352.2Q252.15 374.85 248.9 397.35Q242.75 440.3 211.95 470.45L210.15 469.6Q210.55 476.45 208.75 483.05Q205.4 495.3 194.1 500.95Q162.7 516.55 138.85 480.2Q135 486.25 130.45 491.8Q115.6 509.95 93.3 506.9Q69.5 503.9 62.9 480.75Q57.6 462.25 56.2 442.9Q54.8 423.55 57.6 404.4Q60.65 383.4 69.95 364.5Q79 346.05 95.45 333.65Q118.8 316 127.2 340.75" />
</g>
</svg>
