<?xml version="1.0" encoding="utf-8"?>
<svg version="1.1" id="Layer_1"
xmlns="http://www.w3.org/2000/svg"
xmlns:xlink="http://www.w3.org/1999/xlink"


xml:space="preserve">
q4.75 -15.7 -6.6 -28.8q-10.65 -12.35 -24.9 -19.45q-24.25 -6.3 -37.3 13.7q-31.05 47.4 -16.9 102.85q8.2 32.3 31.5 55.8q26.6 26.9 44.15 60.6q7.4 14.25 13.45 29.1q7.35 18.1 12.4 36.95q5.5 20.3 8.15 41.3q1.7 13.6 0.3 27.2q-1.05 9.9 -4.15 19.65q-3.1 9.55 -7.9 18.4q-4.25 7.75 -9.65 14.8q-4.05 5.3 -9.5 8.8q-15.3 10.15 -33.55 9.75q-25 -0.6 -34.3 -21.7q-9.85 -22.35 -7.85 -41.15q-5.95 25.45 3.75 50.35q7.4 19.1 26.7 26.3q17.3 6.35 34.6 0.7q19 -6.35 30.65 -22.35q3.9 -5.3 6.75 -11.2q5.35 -11.05 8.3 -23.1q4.8 -19.75 5.6 -40.15q1.05 -27.55 -5.2 -54.25q-5.35 -22.8 -13.8 -44.45q-8.45 -21.65 -19.65 -42q-7.2 -13.05 -16.7 -24.5q-8.6 -10.45 -18 -20.15q-22.15 -22.75 -33.05 -52.5q-13.75 -37.45 -3.1 -75.75q8.95 -32.1 41.4 -31.2q14.4 10.2 21.8 26.65q-6.95 41.05 -5.65 83q-1.95 -26.05 13.75 -45.9q-1 18.75 7.7 35.35q2.2 4.1 5.25 7.55q-4.3 10.6 -2.85 22.55q6.7 -11.2 2.55 -23.35q1.3 -1.35 3.2 -1.35q1.9 0 3.25 1.35q1.3 1.3 1.3 3.2q0 1.9 -1.3 3.25q-1.35 1.3 -3.25 1.3q-1.9 0 -3.2 -1.3q-1.35 -1.35 -1.35 -3.25q0 -1.9 1.35 -3.2q-2.25 3.65 -3 1.7q-5.8 13.4 -3.65 26.55q2.15 -5.9 -3.7 -12q7.45 -5.9 -0.5 -14.15q-12 9.8 -5.25 25.8q10.45 2.15 11.4 -7.7q-0.95 -3.55 -4.85 -4.25q-2.2 -3.1 -5.85 -4.6q-1.95 -0.85 -3.9 -1.15q-15.55 15.15 -0.7 30.65q1.05 3.25 2.8 6.25q1.35 2.3 0.45 4.75q-12 -0.1 -13.65 -12.1q-0.55 -3.95 -2.25 -2.95q-4.5 14.75 8.15 24.3q27.25 -10.55 3.35 -34.65q-20.25 -3.5 -39.2 0.15q-7.6 33.55 -6.85 67.65q0.1 5.6 2.75 8.45q-3.1 30.8 0.5 60.8q17.8 3.4 22.25 -14.35q4.3 -17.35 -7.65 -30.05q-5.75 -6.1 -14.3 -6.8q3.75 59.5 1.95 119.25q-1.8 59.65 -2.5 119.25q-0.75 59.35 1.25 119.2q2.05 59.65 -2.1 119.2q-1.15 16.85 4.3 29.3q0.65 -0.75 0.75 -1.55q2.25 -17.35 2.9 -35.15q2.15 -59.55 -0.1 -119.3q-2.3 -59.8 -1.35 -119.2q1 -59.45 2.65 -119.25q1.65 -59.95 -5.1 -118.5q-2.95 2.05 -2.65 6.75q-23.8 44.15 -37.75 93.6q-4.05 14.4 -9.8 28q1.05 -59.95 -1.25 -119.25q-3.15 32.15 -2.7 66.75q0.9 59.9 -2.2 119.25q-0.35 7.5 -1.85 14.65q-2.15 10.25 4 14.6q2.45 -36.95 3.5 -74.45q0.8 2.25 2.25 4.2q1.55 -1.15 2 -2.9q5.75 -22.75 12.95 -45q0.35 5.35 1.6 11q3.65 16.1 11.3 27.2q2.6 -10.45 -0.7 -21.5q-15.95 -53.1 -28.2 -106.55q10 -29.7 22.65 -58.4q6.45 -14.55 6.75 -28.3q-5.45 24.15 -3.55 49.3q1.75 11.7 8.45 21.2q-0.95 -9.8 -5.3 -18.7q4.45 -3.25 5.5 -9.05q1.1 -6.05 -0.4 -12.15q-0.95 -3.65 -3.8 -6.6q12.6 4.5 4.05 17q0.05 -12 1.15 -16.35q-17.7 9.8 -21.9 30.75q-3.65 18 -5.35 36.4q-1.5 16.2 1.15 32.25q3.5 21.6 21.75 30.5q15.25 7.55 29.6 -3.35q11.25 -8.55 8 -22.55q-7.85 13.35 -22 17.95q-5.5 1.75 -11.1 0.9q-7.8 -1.35 -10.9 -7.95q-15.3 -32.1 -11.5 -67.8q4.55 -42.35 41.5 -32.6q-11 41.35 -8.85 85.55q0.75 14.7 0.8 29.2q0.05 24 18.75 37.15q4.6 3.2 8.7 0.25q10.25 -7.35 17.25 -16.6q6.4 7.35 13.35 14.2q16.55 -1.05 13.5 -16.5q-6.5 5.9 -14.25 4.75q-3.25 -4.95 -6.9 -9.3q8.85 -15.7 9.7 -36.1q0.85 -20.85 2 -41.95q1.65 -30.7 -18.6 -50.35q-9.35 -10 -23.85 -9.65q-4.15 1.05 -6.65 5q10.45 -3.5 20.35 2q24.1 39.55 17.8 87.9q-1.65 12.65 -6.8 24.6q-1.75 4 -4.25 7.6q-4.75 3.25 -5.25 8.5q-0.2 1.95 0.8 3.45q7.6 2.85 11.35 11.1q-28.3 -22.3 -25 -65.55q1.45 -18.55 4.3 -37q2.8 -18 9.1 -35.05q-5.8 19.2 -4.55 40.75q0.95 16.3 0.8 32.7q0 32.65 -13.85 59.25q-3.3 -1.6 -5.5 -4.5q1.5 -42.7 0.75 -86.25q2.4 -21.05 -1.65 -39.75q-2.55 28 -2.3 56.25q0.25 28.4 -3.35 56.1q-2.25 17.2 8.35 29q2.45 2.75 5.4 0.65q12.85 -9.15 14.85 -25.6q7.25 -59.25 3 -117.9q-4 16.2 -3.8 36q26.75 7.3 10.9 30.6q-3.7 5.4 -11.1 4.6q-1.75 -3.1 -4.9 -4.3q-2.1 -0.75 -4.1 -0.85q-7.7 4.1 -5.1 13.3q6.2 5.85 11.9 -0.15q-2.75 -11.55 -11.35 -19.4q7.85 -9.1 10.75 -19.5q1.75 10.2 4 20.25q7.1 -5.4 11.25 -14.75q0.85 9.25 5.75 14.75q-0.65 -13.2 -5.4 -25.5q-4.6 9.45 -10.25 18.25q-0.7 -9.8 -4.5 -18.7q-1.8 0.05 -2.75 1.25q2.55 -1.8 4.05 -4.5q0.25 -1.3 0.05 -2.75q-5.7 11.6 -5.45 24.8q2.95 7.65 7.85 13.65q1.4 -2 0.55 -4.4q-1.45 -4 -4.65 -6.95q-6.9 12.45 -5.25 27q1.9 -8.35 4.4 -16.45q3.5 7.85 4.6 16.45q0.2 0.65 0.55 1.1q-1.75 0 -4.3 1.15q-3.1 1.45 -7 1.45q-0.6 -0.2 -0.65 0.25q-2.15 26.85 -2.1 52.95q3.05 -14.55 3.45 -29.5q8.05 4 15.4 0.55q0.3 -2.65 -1.7 -4.5q6.75 1.7 14.4 -0.5q1.05 -1.35 1 -3q-0.35 -1.05 -0.9 -1.7q6.75 -14.25 5.85 -28.75q-4.05 10.35 -7 21.5q-6.95 15.1 -4.65 30.4q1.9 -10.7 -9.7 -17.2q-5.1 15.7 -4.15 32.2q-13.8 -1.8 -28.55 1.1q-4 22.05 -0.5 42.8q-6.3 -6.7 -15.3 -6.95q-26.95 18.95 -8.95 46.4q4.5 6.9 13.3 6.95q19.5 0.05 22.15 -16.85q-20 14.9 -34.75 0.45q-6.7 -6.65 -2.9 -15.95q5.35 -13.15 20.15 -10.5q-21.35 11.2 -18.3 35.1q3.35 26.6 28.75 13.65q8.55 -4.4 9.5 -13.25q-8.85 7.8 -20.95 9.05q-5.25 0.75 -10.25 -0.55q-2.95 -3.25 -3.7 -7.45q-0.4 -2.05 -0.25 -4.3q5.15 -15.1 20.1 -15.8q1.75 -3.65 -0.35 -7.25q-1.1 -1.9 -2.9 -3.25q-8.25 11.6 -3.5 29.5q13 3.4 26 0.25q-7.3 24.2 -8.15 49.25q-0.05 1.35 0.35 2.75q0.95 15.85 6.9 30.6q11.55 -23.4 13.1 -49.7<g id="2993" transform="matrix(1, 0, 0, 1, -9.95, 2.05)">
<path style="fill:#000000;fill-opacity:1" d="M326,21.55L317.7 16.25L311.2 15.7Q278.75 14.8 269.8 46.9Q259.15 85.2 272.9 122.65Q283.8 152.4 305.95 175.15Q315.35 184.85 323.95 195.3Q333.45 206.75 340.65 219.8Q351.85 240.15 360.3 261.8Q368.75 283.45 374.1 306.25Q380.35 332.95 379.3 360.5Q378.5 380.9 373.7 400.65Q370.75 412.7 365.4 423.75Q362.55 429.65 358.65 434.95Q347 450.95 328 457.3Q310.7 462.95 293.4 456.6Q274.1 449.4 266.7 430.3Q257 405.4 262.95 379.95L267.3 380.3Q265.3 399.1 275.15 421.45Q284.45 442.55 309.45 443.15Q327.7 443.55 343 433.4Q348.45 429.9 352.5 424.6Q357.9 417.55 362.15 409.8Q366.95 400.95 370.05 391.4Q373.15 381.65 374.2 371.75Q375.6 358.15 373.9 344.55Q371.25 323.55 365.75 303.25Q360.7 284.4 353.35 266.3Q347.3 251.45 339.9 237.2Q322.35 203.5 295.75 176.6Q272.45 153.1 264.25 120.8Q250.1 65.35 281.15 17.95Q294.2 -2.05 318.45 4.25Q332.7 11.35 343.35 23.7Q354.7 36.8 349.95 52.5L347.8 48.2Q340.4 31.75 326 21.55M238,6.25L217.6 38.15L231.8 83.9L229.95 82Q226.9 78.55 224.7 74.45Q216 57.85 217 39.1Q201.3 58.95 203.25 85L203.1 85.25Q201.8 43.3 208.75 2.25L207.1 40.9L235.95 2.75L237.65 4.05L238 6.25M188.2,3.25Q192.35 15.4 185.65 26.6L177.45 10L174.2 28L173.85 25.15Q172.4 13.2 176.7 2.6L184.95 18.25L188.2 3.25M162.4,35.55Q162.4 37.45 163.75 38.8Q165.05 40.1 166.95 40.1Q168.85 40.1 170.2 38.8Q171.5 37.45 171.5 35.55Q171.5 33.65 170.2 32.35Q168.85 31 166.95 31Q165.05 31 163.75 32.35Q162.4 33.65 162.4 35.55M169.45,28.5Q177.4 36.75 169.95 42.65Q175.8 48.75 173.65 54.65L172.2 51.75L162.15 40.5L158.3 55.75Q156.15 42.6 161.95 29.2Q162.7 31.15 164.95 27.5L169.45 28.5M188.35,51.5Q192.25 52.2 193.2 55.75L192.2 58.75L186.9 59.2L183.95 61L182.3 67.45L184.7 72.25L196.85 72.55Q195.9 82.4 185.45 80.25L181.95 77.25Q175.2 61.25 187.2 51.45L188.35 51.5M171.2,94.75L172.2 101.5L173.8 103.35Q197.7 127.45 170.45 138Q157.8 128.45 162.3 113.7Q164 112.7 164.55 116.65Q166.2 128.65 178.2 128.75L181.2 125.75Q182.1 123.3 180.75 121Q179 118 177.95 114.75L176.25 113.15Q161.4 97.65 176.95 82.5Q178.9 82.8 180.85 83.65Q184.5 85.15 186.7 88.25L186.45 92.8L179.2 89.5L171.2 94.75M218.95,112.25L214 188.35Q211.35 185.5 211.25 179.9Q210.5 145.8 218.1 112.25L195.75 110.5L197.3 105.35Q216.25 101.7 236.5 105.2L236.95 111.5L218.95 112.25M226.2,184.85Q234.75 185.55 240.5 191.65Q252.45 204.35 248.15 221.7Q243.7 239.45 225.9 236.05L222.7 295.75Q219.1 265.75 222.2 234.95L221.35 228.15L222.3 227.35L223.95 191.5L223.75 184.95L226.2 184.85M145.2,2.75Q151.95 61.3 150.3 121.25Q148.65 181.05 147.65 240.5Q146.7 299.9 149 359.7Q151.25 419.45 149.1 479Q148.45 496.8 146.2 514.15Q146.1 514.95 145.45 515.7Q140 503.25 141.15 486.4Q145.3 426.85 143.25 367.2Q141.25 307.35 142 248Q142.7 188.4 144.5 128.75Q146.3 69 142.55 9.5Q142.25 4.8 145.2 2.75M63.5,31.8Q50.85 60.5 40.85 90.2Q53.1 143.65 69.05 196.75Q72.35 207.8 69.75 218.25Q62.1 207.15 58.45 191.05L39.8 109.1Q38.55 103.45 38.2 98.1Q31 120.35 25.25 143.1Q24.8 144.85 23.25 146Q21.8 144.05 21 141.8Q19.95 179.3 17.5 216.25Q11.35 211.9 13.5 201.65Q15 194.5 15.35 187Q18.45 127.65 17.55 67.75Q17.1 33.15 20.25 1Q22.55 60.3 21.5 120.25L21.35 128.8L22.7 125.1Q28.45 111.5 32.5 97.1Q46.45 47.65 70.25 3.5Q69.95 17.25 63.5 31.8M83.25,220.1L87 215.75L91.5 216.45Q94.35 219.4 95.3 223.05Q96.8 229.15 95.7 235.2Q94.65 241 90.2 244.25L93.15 250.05Q97.5 258.95 98.45 268.75L96.6 266.3Q89.9 256.8 88.15 245.1L82.3 243.55L79.3 267.25L79.15 267.5Q77.25 242.35 82.7 218.2L83.25 220.1M83.85,221.6Q82.75 225.95 82.7 237.95L90.15 238.05L90.8 237.25Q99.35 224.75 86.75 220.25L83.85 221.6M65.25,238.7L60.25 233.75Q23.3 224 18.75 266.35Q14.95 302.05 30.25 334.15Q33.35 340.75 41.15 342.1Q46.75 342.95 52.25 341.2Q66.4 336.6 74.25 323.25Q77.5 337.25 66.25 345.8Q51.9 356.7 36.65 349.15Q18.4 340.25 14.9 318.65Q12.25 302.6 13.75 286.4Q15.45 268 19.1 250Q23.3 229.05 41 219.25L59.25 223.75L67.35 234.35L65.25 238.7M25.35,362.45Q27.85 358.5 32 357.45Q46.5 357.1 55.85 367.1L56.25 367.7Q76.5 387.35 74.85 418.05Q73.7 439.15 72.85 460Q72 480.4 63.15 496.1Q66.8 500.45 70.05 505.4L70.75 506.2Q78.5 507.35 85 501.45Q88.05 516.9 71.5 517.95Q64.55 511.1 58.15 503.75Q51.15 513 40.9 520.35Q36.8 523.3 32.2 520.1Q13.5 506.95 13.45 482.95Q13.4 468.45 12.65 453.75Q10.5 409.55 21.5 368.2L25.35 362.45M26.65,373.6Q20.35 390.65 17.55 408.65Q14.7 427.1 13.25 445.65Q9.95 488.9 38.25 511.2L53.35 498.05Q49.6 489.8 42 486.95L37.55 489.9Q36.55 488.4 36.75 486.45Q37.25 481.2 42 477.95L58.5 491.05Q61 487.45 62.75 483.45Q67.9 471.5 69.55 458.85Q75.85 410.5 51.75 370.95L50.1 370.1Q40.2 364.6 29.75 368.1L28.5 368.7L26.65 373.6M82.7,311.75Q81.45 290.2 87.25 271L86.5 334.75L102.7 338L102.7 343.95L83.5 344.45Q83.65 328.05 82.7 311.75M108.45,357.45Q112.7 416.1 105.45 475.35Q103.45 491.8 90.6 500.95Q87.65 503.05 85.2 500.3Q74.6 488.5 76.85 471.3Q80.45 443.6 80.2 415.2Q79.95 386.95 82.5 358.95Q86.55 377.65 84.15 398.7L84 399.45Q84.75 443 83.25 485.7L83.25 486.45Q85.45 489.35 88.75 490.95L91 490.95Q104.85 464.35 104.85 431.7L104.65 393.45Q104.45 373.65 108.45 357.45M237.2,223.1Q253.05 199.8 226.3 192.5L226.1 227.7Q233.5 228.5 237.2 223.1M183.6,219.35Q192.2 227.2 194.95 238.75L193.85 240.1Q188.15 246.1 181.95 240.25L177.7 239.25L177.2 233.25L191.45 235.75L185.45 230.75L181.2 225.5L180.85 224.05Q178.25 214.85 185.95 210.75Q187.95 210.85 190.05 211.6Q193.2 212.8 194.95 215.9L191.8 219.15L186.7 217.5L183.6 219.35M168.95,243.5L169.2 243.5Q173 252.4 173.7 262.2L173.95 263Q179.6 254.2 184.2 244.75Q188.95 257.05 189.6 270.25L189.45 271Q184.55 265.5 183.7 256.25Q179.55 265.6 172.45 271Q170.2 260.95 168.45 250.75Q165.55 261.15 157.7 270.25L166.2 244.75Q167.15 243.55 168.95 243.5M230.9,319.05Q231.75 321.45 230.35 323.45L228.35 323.2L227.6 322.55Q222.7 316.55 219.75 308.9L209.05 316.65L206.2 329.25L205.75 321.05Q205.5 307.85 211.2 296.25L210.1 309.85L228.2 294.25Q228.4 295.7 228.15 297L227.4 299.55L225.85 302.85Q224.35 305.55 221.8 307.35L226.25 312.1Q229.45 315.05 230.9 319.05M212.5,344.25L224.35 346.45L224.7 351.2L212.3 349.55L209.3 378.95L210.95 322.45L224.2 328.5L222.95 332L212.45 329.3L212.5 344.25M192.95,297Q193.85 311.5 187.1 325.75Q187.65 326.4 188 327.45L188.2 328.25L188.2 329Q188.25 330.65 187.2 332Q179.55 334.2 172.8 332.5L173.35 345.6L187.2 345.2Q189.2 347.05 188.9 349.7L188.7 350.45Q181.35 353.9 173.3 349.9Q172.9 364.85 169.85 379.4L169.45 379.45Q169.4 353.35 171.55 326.5Q171.6 326.05 172.2 326.25L172.35 327.45L172.95 327.2Q176.85 327.2 179.95 325.75Q182.5 324.6 184.25 324.6Q183.9 324.15 183.7 323.5Q182.6 314.9 179.1 307.05L178.7 306.5Q176.2 314.6 174.3 322.95L173.95 323.5Q172.3 308.95 179.2 296.5L185.95 318.25L185.95 318.5Q188.9 307.35 192.95 297M191.2,373.2L196.95 380.2L195.7 387.7L192.5 389.75Q204.1 396.25 202.2 406.95L189.25 390.6L185.6 390.4L181.8 404.6Q179.5 389.3 186.45 374.2L188.95 372.95L191.2 373.2M186.6,378.75L186.25 385.45L194.2 382.7L189.2 377.45L186.6 378.75M234.85,387.35L244.95 402.95L243.7 404.7L231.45 390.45L222.15 394.65L218.8 406.45L218.6 406.45Q217.65 389.95 222.75 374.25L222.85 390.55L241.9 377L243 379.45L240.5 383.25L237.7 384.2L234.85 387.35M253.65,412.95L239.1 414.85L236.25 457.5Q232.75 436.75 236.75 414.7L225.2 412.7L225.2 408.2Q239.95 405.3 253.75 407.1L253.65 412.95M244.95,476.8L237.95 472.7Q223.15 470.05 217.8 483.2Q214 492.5 220.7 499.15Q235.45 513.6 255.45 498.7Q252.8 515.6 233.3 515.55Q224.5 515.5 220 508.6Q202 481.15 228.95 462.2L230.85 462.15Q239.85 462.4 246.15 469.1L247.6 475.55L244.95 476.8M298.1,465.45Q300.2 469.05 298.45 472.7L294.2 470.45Q279.25 471.15 274.1 486.25L295.85 486.45L295.55 494.1L272.75 493.95Q272.6 496.2 273 498.25Q273.75 502.45 276.7 505.7Q281.7 507 286.95 506.25Q299.05 505 307.9 497.2Q306.95 506.05 298.4 510.45Q273 523.4 269.65 496.8Q266.6 472.9 287.95 461.7L295.2 462.2Q297 463.55 298.1 465.45M213.7,433.7Q200.7 436.85 187.7 433.45Q182.95 415.55 191.2 403.95L192.2 406.2L190.85 425.35L214.35 429.65L213.7 433.7M204.8,466.5Q203.25 492.8 191.7 516.2L190.1 512.55Q184.15 497.8 183.2 481.95L174.4 513.95Q174 512.55 174.05 511.2Q174.9 486.15 182.2 461.95L191.3 501.35L204.95 461.5L204.8 466.5" />
</g>
</svg>
