<?xml version="1.0" encoding="utf-8"?>
<svg version="1.1" id="Layer_1"
xmlns="http://www.w3.org/2000/svg"
xmlns:xlink="http://www.w3.org/1999/xlink"


xml:space="preserve">
q0.95 59.6 -1.25 119.25q-2.2 59.75 -2.4 119.25q-0.2 59.65 -1.2 119.2q-0.3 16.8 5.55 29.25q4.55 -25.4 3.45 -52.5q-2.5 -59.6 -2 -119.2q0.5 -59.6 2.65 -119.25q2.2 -60.2 -1.35 -118.5q-3.65 9.9 -3.45 22.5q-0.15 1.1 -0.05 2.25q0.8 0.45 1.55 0.5q-2.95 41.25 -3.85 83.25q-1.35 59.8 -0.05 119.25q1.25 59.75 -0.45 119.2q-0.85 30.1 -3.55 59.9q-1.5 16.95 3.85 29.35q1.15 -0.85 1.4 -2.25q8.4 1.85 17 2.4q8.5 0.55 16.65 2.5q8.75 2.1 15.85 -2.5q10.8 -7 18.6 -17.5q9.9 -13.35 15.35 -28.75q8.15 -22.85 10.45 -46.85q4.25 -44.7 -4.15 -87.8q-7.25 -37.3 -38.1 -53.65q35.95 -24.35 41.6 -69.95q4.75 -37.9 -13.05 -70.7q-19.9 -36.6 -60.95 -38.7q-5.8 0.3 -12 0q-4.15 -0.2 -7 2q28.75 53.05 -2.6 105.3q-5.95 9.9 -15.35 16.05q-23.6 15.5 -52.2 14.25q0.15 -27.45 0.65 -54.8q1.1 -57.25 -1.7 -113.3q37.5 -4.25 63.2 21.75q4.85 4.9 8 10.75q8 18.75 12.55 38.7q4.55 20.05 5 40.65q0.5 20.85 -3.85 41.3q-4.45 20.8 -14.7 39.4q-9.2 16.7 -25.3 21.55q-10.8 3.1 -22.45 3.2q4.65 -104.2 2.2 -208.6q21.45 4.65 40.75 -5.45q19.7 8.4 28.6 29.2q-11 88.3 -8.35 178.9q-1.5 3.95 -1.25 8.1q0.2 3.35 2.55 4.9q-1 99.2 -8.05 199.2q-0.35 5.05 2.25 9.5q12.45 -104.7 13.35 -210.2q24.45 112.3 60.95 220.9q1.15 3.5 4.3 5.75q-22.5 -115.45 -63.65 -227.7q27.05 -17.6 39.6 -47.3q17.7 -41.8 7.15 -86.6q-4.15 -10.2 -9.6 -19.7q-18.55 -13.2 -40.65 -9.7q-1.55 -6.85 -6.85 -11.85q-3.35 -3.15 -5.85 -6.95q-23.35 -13.85 -50.65 -14.25q-19.55 5.55 -35 19.85q-30.3 28 -41.65 66.25q-17 57.2 -15.65 116.9q1.3 59.6 5.25 118.5q2.55 37.95 23.55 69.25q6.1 9.1 14.55 15.65q38.95 30.15 76.75 0q32.3 -25.75 30.45 -63.2q-0.75 0.4 -0.95 0.95q-11.1 30.85 -37.95 50.65q-28.45 20.95 -58.6 1.95q-27.4 -17.2 -33.85 -49.05q-11.1 -54.85 -13.1 -111.45q-2.05 -58.75 7.6 -115.5q3.55 -20.75 11.9 -39.3q15.7 -34.75 46.25 -57.75q6.75 -5.1 14.7 -6.3q41.4 -6.25 70.25 21.35q1.25 -2.35 0.7 -4.95q-1.55 20.4 -10.8 38.6q-9.25 18.35 -24.4 32.35q-13.3 12.25 -30 19.5q0.4 -88.15 4.05 -176.3q18.15 -1.2 34.65 6.45q15.75 14.75 22 36.25q6.2 21.2 4.5 43.15<g id="2983" transform="matrix(1, 0, 0, 1, -14.3, 0)">
<path style="fill:#000000;fill-opacity:1" d="M332.2,73Q335.75 131.3 333.55 191.5Q331.4 251.15 330.9 310.75Q330.4 370.35 332.9 429.95Q334 457.05 329.45 482.45Q323.6 470 323.9 453.2Q324.9 393.65 325.1 334Q325.3 274.5 327.5 214.75Q329.7 155.1 328.75 95.5Q328.55 82.9 332.2 73M383.95,70Q390.15 70.3 395.95 70Q437 72.1 456.9 108.7Q474.7 141.5 469.95 179.4Q464.3 225 428.35 249.35Q459.2 265.7 466.45 303Q474.85 346.1 470.6 390.8Q468.3 414.8 460.15 437.65Q454.7 453.05 444.8 466.4Q437 476.9 426.2 483.9Q419.1 488.5 410.35 486.4Q402.2 484.45 393.7 483.9Q385.1 483.35 376.7 481.5L375.85 487.2Q375.6 488.6 374.45 489.45Q369.1 477.05 370.6 460.1Q373.3 430.3 374.15 400.2Q375.85 340.75 374.6 281Q373.3 221.55 374.65 161.75Q375.55 119.75 378.5 78.5Q377.75 78.45 376.95 78L376.75 77.25L376.55 75.75Q376.45 74.6 376.6 73.5L376.95 72Q379.8 69.8 383.95 70M442.7,100.2Q417 74.2 379.5 78.45Q382.3 134.5 381.2 191.75Q380.7 219.1 380.55 246.55Q409.15 247.8 432.75 232.3Q442.15 226.15 448.1 216.25Q479.45 164 450.7 110.95Q447.55 105.1 442.7 100.2M421.25,253.75Q401.95 263.85 380.5 259.2Q382.95 363.6 378.3 467.8L401.1 467.75Q412.75 467.65 423.55 464.55Q439.65 459.7 448.85 443Q459.1 424.4 463.55 403.6Q467.9 383.15 467.4 362.3Q466.95 341.7 462.4 321.65Q457.85 301.7 449.85 282.95Q440.95 262.15 421.25 253.75M219.05,71.8Q241.15 68.3 259.7 81.5Q265.15 91 269.3 101.2L271.25 106.3L273 111.3L274.6 116.45L276 121.6L277.3 126.85Q287.85 171.65 270.15 213.45Q257.6 243.15 230.55 260.75Q271.7 373 294.2 488.45Q291.05 486.2 289.9 482.7Q253.4 374.1 228.95 261.8L211.05 272Q210.15 377.5 197.7 482.2Q195.1 477.75 195.45 472.7Q202.5 372.7 203.5 273.5Q201.15 271.95 200.95 268.6Q200.7 264.45 202.2 260.5L204.55 259.65Q201.9 169.05 212.9 80.75L210.45 80.25L211.5 72.45L219.05 71.8M172.45,108.75Q143.6 81.15 102.2 87.4Q94.25 88.6 87.5 93.7Q56.95 116.7 41.25 151.45Q32.9 170 29.35 190.75Q19.7 247.5 21.75 306.25Q23.75 362.85 34.85 417.7Q41.3 449.55 68.7 466.75Q98.85 485.75 127.3 464.8Q154.15 445 165.25 414.15Q165.45 413.6 166.2 413.2Q168.05 450.65 135.75 476.4Q97.95 506.55 59 476.4Q50.55 469.85 44.45 460.75Q23.45 429.45 20.9 391.5Q16.95 332.6 15.65 273Q14.3 213.3 31.3 156.1Q42.65 117.85 72.95 89.85Q88.4 75.55 107.95 70Q135.25 70.4 158.6 84.25L160.45 85Q162.95 88.8 166.3 91.95Q171.6 96.95 173.15 103.8Q173.7 106.4 172.45 108.75M272.05,123.2Q265.8 101.7 250.05 86.95Q233.55 79.3 215.4 80.5Q211.75 168.65 211.35 256.8Q228.05 249.55 241.35 237.3Q256.5 223.3 265.75 204.95Q275 186.75 276.55 166.35Q278.25 144.4 272.05 123.2" />
</g>
</svg>
