<?xml version="1.0" encoding="utf-8"?>
<svg version="1.1" id="Layer_1"
xmlns="http://www.w3.org/2000/svg"
xmlns:xlink="http://www.w3.org/1999/xlink"


xml:space="preserve">
q-21.05 -3.8 -37.55 10.45q-15.3 13.3 -21.25 32.7q-6.05 19.65 -10.25 39.9q-4.2 20.2 -6.95 40.5q-2.75 20.4 -2 40.85q0.75 21.5 9 41.15q9.2 22 32.45 19.45q23.05 -2.65 35.75 -21.95q2.4 -3.7 4.15 -7.75q-1.85 10.65 -0.55 21.15q0.8 6.4 6.1 10.25q-0.2 1.2 -0.25 2.45q17.05 -1.3 33.55 1.4q1.45 10.45 -3.45 20.55q-6.5 13.5 -19.4 21.05q-4.45 2.55 -9.2 3.75q-4.4 1.2 -9.1 0.7q-5.95 -0.5 -11.2 -3.55q-12.3 -7 -15.85 -21.3q-14 -56.65 0.9 -114.9q10.25 -40.3 46.55 -57.1q12.35 -5.7 25.6 -2.55q-8.75 13.2 -9.6 31.45q-2.75 58.95 -3.4 118.55q-0.6 60 2.3 119.25q1.5 30.15 1.7 59.95q0.35 57.25 -0.1 114.2q-14.3 -54.15 -21.2 -109.5q-7.3 -58.7 -15.3 -117.15q-8.05 -58.45 -22.15 -115.7q-14.2 -57.65 -34.5 -112.8q-0.8 0.95 -0.4 2.8q-1.35 41.5 -0.6 84.7q1 59.45 0.6 119.25q-0.4 59.8 -2.45 119.2q-2 59.7 -4.55 119.25q-0.4 9.35 -1.85 18.5q-2.65 17.25 4.6 29.5q4.35 -9.9 4.6 -21.75q1.25 -59.65 3.6 -119.2q2.4 -59.5 2.55 -119.25q0.25 -49.5 -4.1 -97.6q8.25 37.6 18.5 75.15q15.75 57.75 25.25 116.75q9.4 58.2 16.25 116.8q6.7 58 18.25 115.15q6.1 30.45 19.1 56.45q2.35 -0.85 2.15 -3.45q4.75 -6.7 2.9 -15.25q-4.85 -22.05 -5.05 -44.75q-0.6 -59.15 -0.9 -118.5q-0.3 -59.7 -1.75 -119.2q-1.5 -60.1 1.7 -119.3q0.85 -15 3.45 -29.7q2.85 -15.9 0.65 -30.25q-2.65 59.3 -2.7 119.3q0 59.55 1.4 119.25q1.45 59.45 -1.1 119.25q-2.5 59.2 -2.3 118.45q-0.35 -0.1 -0.4 -0.3q-0.35 15.35 4.5 29.25q1 -0.35 1.2 -0.95q4.2 -15.45 4.1 -32.05q-0.35 -59.4 0.95 -119.25q0.65 -30 0.3 -59.95q-0.75 -59.45 -2 -119.25q-1.2 -59.75 1.15 -119.3q0.55 -14.95 2.05 -29.8q1.55 -15.75 -0.75 -30.15q-5 2.25 -5.3 8.45q0.3 26.95 -2.3 53.8q-1.7 17.45 4.55 29.2q24.05 10.95 50.85 5.85q1.3 -2.1 1.55 -4.5q-0.45 -3.5 -3.45 -5.25q-18.75 2.65 -36.6 -1.85q2.05 -59.7 -0.4 -118.5q-6.35 24.3 -6 52.75q-16.2 14.25 -19.75 35.95q-3.45 21.1 -5.5 42.35q-2.1 21.4 8.05 40.1q11.75 21.6 35.2 13.1q23.25 -8.4 20.7 -32.45q-13.4 28.6 -42.75 18.65q-12.6 -4.35 -13.05 -18.25q-0.9 -27.35 4.1 -54.1q1.95 -10.4 7.65 -19.35q9.15 -14.2 24.2 -12q12.5 1.85 20.35 12.8q3.6 -24.65 -21.55 -28.8q-9.4 -1.35 -17.15 5.5q-5.3 43.1 -3.05 88.45q2.95 59.1 0.95 118.45q-2.05 59.7 -6.25 119.2q-1.65 23.65 2.9 44.3q2.2 0.05 2.4 -2.25q3.2 -42.9 6 -86.15q3.6 -55.05 2.2 -110.7q17.6 -25.8 33.55 -53q1.15 19.7 6.7 39.3q15.9 56.55 31.25 112.9q15.65 57.3 34.1 113.2q1.4 1.5 3.25 1.5q2.25 -1.7 2.05 -4.45q-0.85 -13.1 -3.3 -25.55q-1.6 0.05 -1.75 2.1q-2.25 -5.5 -5.1 -15.75q-15.75 -56.6 -31.35 -113.4q-15.65 -57.1 -33.55 -113.05q24 -40.6 48.45 -80.75q1.8 -5.8 -1.5 -10.5q-8.3 5.65 -13.55 15.05q-28.5 51.4 -59.2 100.9q-8 12.85 -17.6 24.35q-2.15 2.6 -3.65 5.15q-1.5 -52.9 -1.15 -106.2q0.15 -22.9 -2.8 -44.25q1.35 21.15 -0.05 42.3q-0.7 10.2 3.45 17.45q19.8 -3.65 42.65 2.1q2.05 -2.25 2.2 -5.4q0.1 -1.85 -0.45 -3.65q-18.35 -5.05 -37.2 -1.95q5.25 -43.5 -0.2 -87.05q-6.1 18.6 -4.8 38.85q-14.55 13.3 -14.4 36.35q0.15 18.2 -3.45 36.3q-3.7 18.5 3.85 33.25q6.4 28.95 23.65 53.4q0 -0.05 0.55 -0.4q-4.75 -28.8 -19.5 -55.45q12.75 -8 13.6 -23q0.35 -5.7 -1.9 -10.9q-4.8 -11.35 -17.45 -11.8q15.1 -4.65 23.25 7.45q-7.5 16.1 -25.35 16<g id="2989" transform="matrix(1, 0, 0, 1, -23.95, 0)">
<path style="fill:#000000;fill-opacity:1" d="M498.2,60.75Q484.95 57.6 472.6 63.3Q436.3 80.1 426.05 120.4Q411.15 178.65 425.15 235.3Q428.7 249.6 441 256.6Q446.25 259.65 452.2 260.15Q456.9 260.65 461.3 259.45Q466.05 258.25 470.5 255.7Q483.4 248.15 489.9 234.65Q494.8 224.55 493.35 214.1L491.7 213L490.15 207.85L493.9 211.25L496.45 206.75L497.05 207.95L497.45 201L493 200.15Q476.5 197.45 459.45 198.75L458.6 197.15L458 195.55L457.8 193.8Q457.85 192.55 458.05 191.35L458.25 190.8L458.95 189.75L500.85 187.95L500.2 274.5Q494.9 270.65 494.1 264.25Q492.8 253.75 494.65 243.1Q492.9 247.15 490.5 250.85Q477.8 270.15 454.75 272.8Q431.5 275.35 422.3 253.35Q414.05 233.7 413.3 212.2Q412.55 191.75 415.3 171.35Q418.05 151.05 422.25 130.85Q426.45 110.6 432.5 90.95Q438.45 71.55 453.75 58.25Q470.25 44 491.3 47.8L498.35 51.8L498.2 60.75M396.8,79Q394.2 93.7 393.35 108.7Q390.15 167.9 391.65 228Q393.1 287.5 393.4 347.2Q393.7 406.55 394.3 465.7Q394.5 488.4 399.35 510.45Q401.2 519 396.45 525.7L395.6 524.4L396.1 532Q396.3 534.6 393.95 535.45Q380.95 509.45 374.85 479Q363.3 421.85 356.6 363.85Q349.75 305.25 340.35 247.05Q330.85 188.05 315.1 130.3Q304.85 92.75 296.6 55.15Q300.95 103.25 300.7 152.75L300.2 272Q300.05 331.75 297.65 391.25Q295.3 450.8 294.05 510.45Q293.8 522.3 289.45 532.2Q282.2 519.95 284.85 502.7Q286.3 493.55 286.7 484.2Q289.25 424.65 291.25 364.95Q293.3 305.55 293.7 245.75Q294.1 185.95 293.1 126.5Q292.35 83.3 293.7 41.8L293.45 40.65Q293.05 38.8 293.85 37.85L293.95 34.25L294.45 34.25L294.8 37.15L295.2 37Q315.5 92.15 329.7 149.8Q343.8 207.05 351.85 265.5Q359.85 323.95 367.15 382.65Q374.05 438 388.35 492.15Q388.8 435.2 388.45 377.95Q388.25 348.15 386.75 318Q383.85 258.75 384.45 198.75Q385.1 139.15 387.85 80.2Q388.7 61.95 397.45 48.75Q399.65 63.1 396.8 79M210.45,26Q212.75 40.4 211.2 56.15Q209.7 71 209.15 85.95Q206.8 145.5 208 205.25Q209.25 265.05 210 324.5Q210.35 354.45 209.7 384.45Q208.4 444.3 208.75 503.7Q208.85 520.3 204.65 535.75Q204.45 536.35 203.45 536.7Q198.6 522.8 198.95 507.45L200.05 510.4Q200.1 510.6 200.45 510.7Q200.25 451.45 202.75 392.25Q205.3 332.45 203.85 273Q202.45 213.3 202.45 153.75Q202.5 93.75 205.15 34.45Q205.45 28.25 210.45 26M107.45,27.5Q109.9 86.3 107.85 146L107.5 150.2Q125.35 154.7 144.1 152.05L153.45 151.5Q156.45 153.25 156.9 156.75L157.05 157.45L157.35 159.75L157.25 162Q157 164.4 155.7 166.5Q128.9 171.6 104.85 160.65L103.7 163.25Q97.45 151.5 99.15 134.05Q101.75 107.2 101.45 80.25Q101.1 51.8 107.45 27.5M68.45,25.45Q93.6 29.6 90 54.25Q82.15 43.3 69.65 41.45Q54.6 39.25 45.45 53.45Q39.75 62.4 37.8 72.8Q32.8 99.55 33.7 126.9Q34.15 140.8 46.75 145.15Q76.1 155.1 89.5 126.5L90 130Q92.55 154.05 69.3 162.45Q45.85 170.95 34.1 149.35Q23.95 130.65 26.05 109.25Q28.1 88 31.55 66.9Q35.1 45.2 51.3 30.95Q59.05 24.1 68.45 25.45M47.5,171Q50.45 192.35 50.3 215.25Q49.95 268.55 51.45 321.45Q52.95 318.9 55.1 316.3Q64.7 304.8 72.7 291.95Q103.4 242.45 131.9 191.05Q137.15 181.65 145.45 176Q148.75 180.7 146.95 186.5L146.7 187.25Q122.25 227.4 98.25 268L98.45 268Q116.35 323.95 132 381.05Q147.6 437.85 163.35 494.45Q166.2 504.7 168.45 510.2Q168.6 508.15 170.2 508.1L170.2 508.45Q172.65 520.9 173.5 534Q173.7 536.75 171.45 538.45Q169.6 538.45 168.2 536.95Q149.75 481.05 134.1 423.75Q118.75 367.4 102.85 310.85Q97.3 291.25 96.15 271.55L85.65 289.35Q69.7 316.55 52.1 342.35Q53.5 398 49.9 453.05Q47.1 496.3 43.9 539.2Q43.7 541.5 41.5 541.45Q36.95 520.8 38.6 497.15Q42.8 437.65 44.85 377.95Q46.85 318.6 43.9 259.5Q41.65 214.15 46.95 171.05L47.5 171M228.2,252.25Q233.65 295.8 228.4 339.3L232 338.75Q250.85 335.65 269.2 340.7L269.75 341.15L270.25 341.8L270.6 342.4L271.2 343.9Q271.75 345.7 271.65 347.55Q271.5 350.7 269.45 352.95Q246.6 347.2 226.8 350.85Q222.65 343.6 223.35 333.4Q224.75 312.25 223.4 291.1Q222.1 270.85 228.2 252.25M241.75,357.8Q254.4 358.25 259.2 369.6Q261.45 374.8 261.1 380.5Q260.25 395.5 247.5 403.5Q262.25 430.15 267 458.95Q266.45 459.3 266.45 459.35Q249.2 434.9 242.8 405.95L227.05 408.05L220.95 463.6Q213.4 448.85 217.1 430.35Q220.7 412.25 220.55 394.05Q220.4 371 234.95 357.7L236.8 357.65L241.75 357.8M231.6,394.7Q249.45 394.8 256.95 378.7L256.2 377.15Q248.05 365.05 232.95 369.7L228.4 373.1L227.75 395.1L231.6 394.7" />
</g>
</svg>
