<?xml version="1.0" encoding="utf-8"?>
<svg version="1.1" id="Layer_1"
xmlns="http://www.w3.org/2000/svg"
xmlns:xlink="http://www.w3.org/1999/xlink"


xml:space="preserve">
q0.35 7.25 0.35 28.7q0 41.95 -5.75 79.65q-2.3 14.85 -6.85 38.5q-4.25 22.65 -13.85 41.15q-11.8 22.6 -32.65 41.35q-37.4 33.65 -53.65 46.45q-41 32.3 -58.6 32.3q-3 -2.55 -3 -11.6q0 -16.65 1.95 -33.75q1.15 -9.95 4.35 -29.75q6.45 -39.6 6.7 -68.15q0.5 -3 1 -4.5q7 -60.4 8.3 -85.3q0.7 -13.95 0.7 -65.85q0 -26.8 2.15 -66.15q2.2 -40.35 5 -52.6q5.4 -8.55 35.5 8.25q11.9 6.6 28.4 17.7q18.65 12.1 32.3 27.25q12.05 13.3 18.95 27.5q19.65 40.1 23.85 58.75q2.25 9.95 2.8 22.4q1 2.45 1 4.35q0 2.9 -1.55 5.3q-2.5 45 -2.5 90.75q0 22 -10 131.65q-3.6 65.2 -12 120.3q1.25 0 1.7 1.15q0.4 1.1 1.65 1.1q18.05 0 58.95 -32.1q21.65 -17 51.2 -43.4q21.3 -17.45 32.45 -39.3q6.9 -13.55 13.8 -39.45q7.25 -26.85 14.25 -75.55q7.5 -52.2 7.5 -82.2q0 -104.7 -79 -156.3q-19.35 -12.65 -54.3 -27.3q-13.45 -5.6 -17.9 -8.15q-0.55 1 -1.7 1.8q-2.65 -3.95 -5.15 -6.85q-4.85 -5.65 -9.35 -5.65q-17.65 0 -22.35 26.65q-1.55 8.75 -1.8 21.35q3.95 -0.15 11.25 -0.15q0.35 1.05 0.35 2.8q0 3.15 -1.75 4.9q-1.9 28.4 -1.9 32q0 15.75 7.25 20.65q17.25 1.35 28.6 -19.95q4 -7.55 6.6 -16.75q2.05 -7.35 2.3 -11.8q2.25 1.95 2.25 6q0 1.25 -2.05 9q-2.55 9.7 -5.7 18.05q-9.7 25.7 -20 25.7q-6.35 -4.3 -8.85 -16.35q-1.4 -6.6 -1.4 -14.3q0 -13.65 1.65 -42.2q-0.65 -1.45 -0.65 -3.25q0.05 -1.15 1.15 -1.5q1.45 -18.25 7 -39.75q3.25 -12.15 9.7 -16.9q5.55 -4 12.4 -2.15q6.05 1.7 10.65 7q4.5 5.3 4.5 10.55q0 1.8 -0.55 2.95q0.8 1.3 0.8 4.45q-0.65 2.25 -2.65 2.25q-1.1 0 -4.95 -1.5q-4.75 -1.85 -6.9 -4q-20.25 15.2 -20.25 49.75q0 8.6 1 12.35q0.35 1.05 0.35 2.8q0 3.1 -1.75 4.85q-4.15 -0.05 -16.65 2.35q0.75 4.1 0.65 11.1q-0.1 7.8 0.25 10.75q1.35 12.25 13.35 19.65q9.45 -10 14.5 -21.7q4.9 -11.25 5 -22.55q0.55 -0.45 1.15 -0.6q1.5 3.6 1.5 9.4q0 1.55 -1.95 8.55q-2.35 8.3 -5.3 15.8q-8.65 22 -16.5 22q-12.8 -8.5 -14.7 -22.6q-0.4 -7.2 -1.85 -11.75q-1 -5.25 -1 -16.85q0 -19.4 3.7 -31.65q5.7 -18.95 21.05 -28.6q8.75 2.7 16.95 4.1q2.25 0.7 3 1.95q0 8.35 -0.6 12.65q-0.75 5.55 -3 10.15q-2.9 5.85 -12 15.75q2.8 2.1 5.65 5.1q4.8 5.1 7.7 10.5q0.85 6 1.6 16.3q0 2.4 -1.5 9.7q-2.05 9.8 -5.2 18.05q-9.6 25.25 -25.05 25.25q-2.5 -2.4 -3.05 -4.15q-0.2 -0.7 -0.2 -3.35q0 -2.25 0.25 -3.75q0.15 -18.95 2.85 -64.05q3.55 -59.75 8.9 -88.45q-2.75 -2 -2.75 -3.4q0 -6.05 4.75 -5.15q4.4 0.85 10.5 6.9q6.3 6.25 10.5 14.25q4.75 9.1 4.75 16.85q-0.35 17.05 -4.05 63.65q0.75 -1.05 1.9 -1.5q8 -11.2 8 -22.5q0 -13.35 -13.5 -22.65q-1.5 8.5 -4.15 15.5q-3.15 8.2 -7.4 13.3q5.8 3.95 11 18.5q5.6 15.7 5.6 25.9q0 3.25 -1.1 10.05q-1.55 9.25 -4.1 16.95q-7.75 23 -21.55 23q-14.35 0 -18.45 -6q-1.3 -1.9 -1.45 -4.25q0 -3.2 1.05 -5.75q0.2 -14.25 3.8 -64.95q-2.1 -2.25 -2.1 -5.5q0 -1.85 0.25 -2.8q0.25 -0.9 1 -2.05q3.85 -50.6 7.15 -68.9q1.15 -1.55 3.15 -1.8q4.35 -0.55 10.5 4.7q6.2 5.25 10.5 13.15q4.75 8.85 4.75 17.05q0 2.45 -1.05 8.2q-5.2 -11.05 -11 -11.05q-0.5 16.95 -3.5 55.15q14.75 -2.55 22.15 -13.55q5.95 -8.9 5.95 -20.25q0 -4.4 -4.25 -13.45q-4.2 50.45 -5.8 66.05q13 -7.65 20.8 -20.15q7.2 -11.5 7.2 -22.25q0 -12.2 -3.25 -21q-5.2 -14.1 -17.25 -13.85q0 3.45 -3.6 51.05q-0.5 3 -1 4.5q-1.5 10.3 -2.45 27.4q-0.95 8.65 -3.6 49.2q-2 30.7 -4.9 44.3q-0.65 -0.9 -2.55 -7.9q-1.95 -7.35 -1.95 -9.85q0 -1.7 8 -80.25q1.25 -8.55 1.95 -27.3q0.7 -18.8 2.05 -28.2q2.65 -38.7 5.6 -62.55q4 1.15 4 9.75q1.7 3.25 6.25 3.25q19.15 0 27.95 -18.25q5.3 -10.9 5.3 -21.4q0 -1.5 -1.25 -7q-1.7 -7.3 -4.1 -13.1q-7.55 -18.05 -18.9 -14.25q-1 -1 -1.35 -1.85q-2.7 -10.3 -11.25 -10.3q-6.35 0 -10.6 1.5q-0.45 0.2 -0.85 0.45q-0.85 14.8 -5.1 52.5q7.95 -3.35 11.3 -5.2q17.5 -9.75 17.5 -27q0 -8 -1 -11.95q1.05 8.05 1.05 11.6q0 16.65 -7.7 28.55q-5.8 8.9 -14.05 11.7q3.15 14.1 11.9 37.7q4 10.4 4 11.75q-0.3 1.5 -1.2 3.1q-4.8 -5.7 -16.1 -36.7q-10.6 -29.15 -11.75 -41.25q-6.4 55.1 -11.15 68.85q-0.5 -4.5 -0.5 -6.75q3.5 -14.75 3.5 -19.9q-4.2 15.8 -12.9 30.65q-17.6 30 -41.15 30q-19.45 0 -29.35 -26q-3.1 -8.15 -4.85 -17.95q0 -8.2 3.45 -22.15q3.7 -14.95 9.6 -29.05q15.3 -36.2 33.7 -41.3q20.3 -0.4 29.25 11.25q5.5 7.2 5.5 16q0 1.9 -0.45 3.05q-0.5 1.15 -1.8 2.45q-1.65 -6.6 -4.6 -12q-5.75 -10.5 -15.9 -10.5q-15.75 5.15 -30.2 36.9q-5.75 12.65 -9.35 25.65q-3.45 12.5 -3.45 19.8q0 2 1.5 7.9q2 7.7 5.05 14.25q9.1 19.75 23.2 19.75q21.15 0 37.95 -24.2q5.95 -8.55 10.45 -18.9q3.5 -8.15 4.6 -13.4q0.55 -0.45 1.15 -0.6q0.9 1.6 1.2 3.1q-0.6 -0.95 -0.8 -1.9q-0.25 -1.1 -0.25 -3q0 -0.65 1.5 -1.6q0.55 -6.05 0.8 -16.65q0.75 -14 3.1 -23.9q0 -2.35 1.25 -4.55q0.75 0.3 1.3 0.75q2.75 -2.7 6.5 -3.6q11.5 -2.75 19.2 12.85q0 11.9 -7.75 81.5q5.95 -10.2 31.25 -43.7q13.4 -17.75 53.9 -70.1q0.35 1.2 0.35 3q0 3.05 -33.95 49.5q8.15 19.55 28.8 64.5q21.1 45.95 21.1 48.7q0 1.9 -0.45 3.05q-0.5 1.15 -1.8 2.45q-15.15 -30.7 -27.7 -57.6q-19.55 -41.95 -23.5 -56.35q-27.15 36.45 -42.3 52.85q-5.5 47.15 -8.25 61.85q-1.25 -2.8 -1.25 -6.75q0 -1.25 4.75 -36.75q5.15 -38.3 6.25 -50.1q2.05 -22.05 5 -43.5q0.65 -13.25 3.95 -20.3q1.5 3.6 1.5 9.35q-1.55 -3.5 -0.75 -8.25q-30.05 -2 -48.9 41.2q-6.75 15.45 -10.8 34q-3.3 15.25 -3.3 24.3q0.65 13.95 3.5 25.1q8.85 34.75 36.7 34.75q18.6 0 29.75 -21.3q2.75 -5.25 5.5 -12.85q-4.9 -7.6 -8.7 -7.6q-4.6 0 -6.75 2.4q-1.1 1.25 -2.25 3.1q-1.75 -1.75 -1.75 -5.75q0 -16.35 12.8 -6.95q4.25 3.15 9.25 8.7q7.8 -17.7 9.95 -27.05q2.05 -9.05 2.05 -24.7q0 -22.2 -3.25 -32.95q-5.05 -16.45 -21.75 -33.55q11.4 3.15 20.1 20.85q6.95 14.05 11.15 34.8q3.45 16.85 3.45 27.75q0 12.85 -5.15 32.4q-4.45 16.9 -11.25 33.2q4.2 8.55 11.1 16.7q10.15 11.95 18.55 11.95q17.8 0 25.85 -7.95q5.4 -5.35 5.4 -12.55q0 -6.95 0.15 -10.5q0.25 -6 1.1 -10.5q1.2 1.4 1.8 7.85q0 13.35 -7 24q-7.4 11.25 -17.75 11.25q-22.3 0 -38.2 -24.35q-7.95 17.45 -16.2 28.1q-9.95 12.85 -18.15 12.85q-33.25 0 -43.2 -40.2q-3.2 -12.85 -3.7 -28.8q0 -20.95 10.05 -50.55q10.9 -32.1 25.45 -47.7q16.6 -17.9 30.3 -14.15q0 1.4 -4 22.5q-4 22.55 -4 31.1q0 8.2 -2 26.25q-2 18.1 -2 26.25q0 6.9 1.45 14.6q2.55 13.7 8.55 17.65q21.75 -28.95 29.45 -60.25q5.55 -22.7 5.55 -59.1q0 -2.5 -1.5 -8.35q-1.5 -5.85 -1.5 -6.9q0 -2.5 0.7 -3.85q0.9 -1.75 3.3 -2.8q1 1.75 1.8 10.45q0.7 7.25 0.7 11.3q0 40.8 -5.7 64.45q-8.05 33.4 -32.05 65.55q-7.35 -5.1 -11 -23.15q-2.25 -11.15 -2.25 -19.1q0 -9.55 1.95 -28.1q2 -18.95 2.05 -28.15q0.2 -34.65 10 -55q0.35 1.05 0.35 2.8q0 18.55 -4 68.35q-4 49.85 -4 52.75q5.1 -2.55 15.35 -4.25q13.3 0 16.25 2.8q0.95 0.9 0.85 2.15q0 4.45 -0.8 4.5q-2.8 -0.75 -6.95 -0.75q-9 0 -21.4 2.85q-4.45 1.05 -17.1 4.65q-1.25 -3 -1.25 -9.35q0 -24.3 2.55 -51.15q2.15 -23.1 6.45 -50.5q0.9 -2.75 2 -2.75q1.2 6.85 1.45 17.25q0.75 18.7 0.75 25.8q-0.2 7.25 -1.7 24.85q-1.3 15.7 -1.3 24.65q0.3 1.55 2.6 2.25q4.7 1.45 29.75 1.45q4.75 0 4.75 6.15q0 3.1 -1.75 4.85q-28.5 1.35 -36.85 -4.5q-2.7 -1.85 -3.05 -4.4q0 -16.2 1.5 -35.2q1.05 -12.9 3.5 -34.95q-1.2 -4.15 -1.25 -8.35q-0.05 -5.4 2.25 -7.65q0.9 3.75 1.75 25.8<g id="2991" transform="matrix(1, 0, 0, 1, -8.1, 0.15)">
<path style="fill:#000000;fill-opacity:1" d="M538.15,183.65Q538.5 190.9 538.5 212.35Q538.5 254.3 532.75 292Q530.45 306.85 525.9 330.5L516.75 377.6Q512.5 400.25 502.9 418.75Q491.1 441.35 470.25 460.1Q432.85 493.75 416.6 506.55Q375.6 538.85 358 538.85L349.5 538.6L349 537.75L348.5 540.6Q345.5 538.05 345.5 529Q345.5 512.35 347.45 495.25Q348.6 485.3 351.8 465.5Q358.25 425.9 358.5 397.35L358.5 329.85Q359 326.85 359.5 325.35L359.5 281.25Q366.5 220.85 367.8 195.95Q368.5 182 368.5 130.1Q368.5 103.3 370.65 63.95Q372.85 23.6 375.65 11.35L376.05 9.7L376.5 8.25L376.7 8.4Q382.1 -0.15 412.2 16.65Q424.1 23.25 440.6 34.35L460.25 47.75Q478.9 59.85 492.55 75Q504.6 88.3 511.5 102.5Q531.15 142.6 535.35 161.25Q537.6 171.2 538.15 183.65M379.5,18.85L379.5 18.9Q380.5 21.35 380.5 23.25Q380.5 26.15 378.95 28.55L377 62.6Q374.5 107.6 374.5 153.35Q374.5 175.35 364.5 285L364.5 329.85L363.5 334.35L363.5 401.85Q359.9 467.05 351.5 522.15L352 522.1Q353.25 522.1 353.7 523.25Q354.1 524.35 355.35 524.35Q373.4 524.35 414.3 492.25Q435.95 475.25 465.5 448.85Q486.8 431.4 497.95 409.55Q504.85 396 511.75 370.1Q519 343.25 526 294.55Q533.5 242.35 533.5 212.35Q533.5 107.65 454.5 56.05Q435.15 43.4 400.2 28.75Q386.75 23.15 382.3 20.6L379.5 18.85M344.2,26.95Q343.65 27.95 342.5 28.75Q339.85 24.8 337.35 21.9Q332.5 16.25 328 16.25Q310.35 16.25 305.65 42.9Q304.1 51.65 303.85 64.25L303.75 79.15Q307.7 79 315 79L328.25 79.25L329.4 81.3Q329.75 82.35 329.75 84.1Q329.75 87.25 328 89L313 90L303.2 89.8L301.65 113.1Q299.75 141.5 299.75 145.1Q299.75 160.85 307 165.75Q324.25 167.1 335.6 145.8Q339.6 138.25 342.2 129.05Q344.25 121.7 344.5 117.25Q346.75 119.2 346.75 123.25Q346.75 124.5 344.7 132.25Q342.15 141.95 339 150.3Q329.3 176 319 176L306.5 175.75Q300.15 171.45 297.65 159.4Q296.25 152.8 296.25 145.1Q296.25 131.45 297.9 102.9L298.9 87.35Q298.25 85.9 298.25 84.1L298.1 81Q298.15 79.85 299.25 79.5L299.4 79.45L300.5 65.25Q301.95 47 307.5 25.5Q310.75 13.35 317.2 8.6Q322.75 4.6 329.6 6.45Q335.65 8.15 340.25 13.45Q344.75 18.75 344.75 24Q344.75 25.8 344.2 26.95M342.95,258.05Q343.75 259.35 343.75 262.5L343.5 265.5Q342.85 267.75 340.85 267.75Q339.75 267.75 335.9 266.25Q331.15 264.4 329 262.25L322 262.5Q301.75 277.7 301.75 312.25Q301.75 320.85 302.75 324.6L302.75 325L319.35 323.65L330.25 323.1L331.4 325.2Q331.75 326.25 331.75 328Q331.75 331.1 330 332.85L319.4 332.8Q315.25 332.75 302.75 335.15L302.75 365.1Q303.5 369.2 303.4 376.2Q303.3 384 303.65 386.95Q305 399.2 317 406.6L326 406.35Q335.45 396.35 340.5 384.65Q345.4 373.4 345.5 362.1L346.1 361.7Q346.65 361.25 347.25 361.1Q348.75 364.7 348.75 370.5Q348.75 372.05 346.8 379.05Q344.45 387.35 341.5 394.85Q332.85 416.85 325 416.85L316.5 416.6Q303.7 408.1 301.8 394L301.1 382.1Q300.7 374.9 299.25 370.35L299.25 329.1Q298.25 323.85 298.25 312.25Q298.25 292.85 301.95 280.6Q307.65 261.65 323 252Q331.75 254.7 339.95 256.1Q342.2 256.8 342.95 258.05M296.75,39.1Q296.75 47.45 296.15 51.75Q295.4 57.3 293.15 61.9Q290.25 67.75 281.15 77.65Q283.95 79.75 286.8 82.75Q291.6 87.85 294.5 93.25Q295.35 99.25 296.1 109.55L296.75 121Q296.75 123.4 295.25 130.7Q293.2 140.5 290.05 148.75Q280.45 174 265 174L257.5 173.75Q255 171.35 254.45 169.6Q254.25 168.9 254.25 166.25Q254.25 164 254.5 162.5L254.95 162.05L256 161L257.25 162.15Q257.4 143.2 260.1 98.1Q263.65 38.35 269 9.65Q266.25 7.65 266.25 6.25Q266.25 0.2 271 1.1Q275.4 1.95 281.5 8Q287.8 14.25 292 22.25Q296.75 31.35 296.75 39.1M271.7,11.45Q271.35 28.5 267.65 75.1Q268.4 74.05 269.55 73.6L274.3 73.75L275.5 72.75L280.4 67.65L285.25 61.5Q293.25 50.3 293.25 39Q293.25 25.65 279.75 16.35L271.7 11.45M253.7,45.8Q252.2 54.3 249.55 61.3Q246.4 69.5 242.15 74.6Q247.95 78.55 253.15 93.1Q258.75 108.8 258.75 119Q258.75 122.25 257.65 129.05Q256.1 138.3 253.55 146Q245.8 169 232 169Q217.65 169 213.55 163Q212.25 161.1 212.1 158.75L212.25 156.6Q212.25 153.4 213.3 150.85Q213.5 136.6 217.1 85.9L217.35 82.6Q215.25 80.35 215.25 77.1Q215.25 75.25 215.5 74.3Q215.75 73.4 216.5 72.25L218.1 72.15Q221.95 21.55 225.25 3.25L225.85 4.5Q227 2.95 229 2.7Q233.35 2.15 239.5 7.4Q245.7 12.65 250 20.55Q254.75 29.4 254.75 37.6Q254.75 40.05 253.7 45.8M247,24.3Q241.8 13.25 236 13.25L230.9 15L226.65 16.4Q226.15 33.35 223.15 71.55Q237.9 69 245.3 58Q251.25 49.1 251.25 37.75Q251.25 33.35 247 24.3M266.7,86.75L265.8 97.65Q261.6 148.1 260 163.7L265.25 163.5Q278.25 155.85 286.05 143.35Q293.25 131.85 293.25 121.1Q293.25 108.9 290 100.1Q284.8 86 272.75 86.25L272.25 86.75L266.7 86.75M212.5,15Q212.5 18.45 208.9 66.05L203.5 135L203.5 183.75Q203 186.75 202.5 188.25L202.5 350.1Q201 360.4 200.05 377.5L198.5 404.85L198.5 446.1Q197.55 454.75 194.9 495.3Q192.9 526 190 539.6Q189.35 538.7 187.45 531.7Q185.5 524.35 185.5 521.85Q185.5 520.15 193.5 441.6L193.5 401.1Q194.75 392.55 195.45 373.8Q196.15 355 197.5 345.6L197.5 183.75L198.5 179.25L198.5 131.25L202.9 67.8Q205.55 29.1 208.5 5.25Q212.5 6.4 212.5 15M229.65,82.9L229.55 82.55L225 83L222.2 82.9L215.75 155.5Q217.45 158.75 222 158.75Q241.15 158.75 249.95 140.5Q255.25 129.6 255.25 119.1Q255.25 117.6 254 112.1Q252.3 104.8 249.9 99Q242.35 80.95 231 84.75Q230 83.75 229.65 82.9M140.25,30.55Q137.55 20.25 129 20.25Q122.65 20.25 118.4 21.75Q117.95 21.95 117.55 22.2Q116.7 37 112.45 74.7Q120.4 71.35 123.75 69.5Q141.25 59.75 141.25 42.5Q141.25 34.5 140.25 30.55M142,20L143.7 30.9Q144.75 38.95 144.75 42.5Q144.75 59.15 137.05 71.05Q131.25 79.95 123 82.75Q126.15 96.85 134.9 120.45L143.75 143.6Q147.75 154 147.75 155.35L147.45 158.65Q147.15 160.15 146.25 161.75Q141.45 156.05 130.15 125.05Q119.55 95.9 118.4 83.8L115 84L111.4 83.9Q105 139 100.25 152.75L98.75 152.75Q98.25 148.25 98.25 146L101.75 131.4Q105.25 116.65 105.25 111.5L106.55 94.2L106.65 93.1Q102.45 108.9 93.75 123.75Q76.15 153.75 52.6 153.75Q33.15 153.75 23.25 127.75Q20.15 119.6 18.4 109.8L17.25 101.5Q17.25 93.3 20.7 79.35Q24.4 64.4 30.3 50.3Q45.6 14.1 64 9Q84.3 8.6 93.25 20.25Q98.75 27.45 98.75 36.25Q98.75 38.15 98.3 39.3Q97.8 40.45 96.5 41.75Q94.85 35.15 91.9 29.75Q86.15 19.25 76 19.25L63.75 19.5Q48 24.65 33.55 56.4Q27.8 69.05 24.2 82.05Q20.75 94.55 20.75 101.85Q20.75 103.85 22.25 109.75Q24.25 117.45 27.3 124Q36.4 143.75 50.5 143.75Q71.65 143.75 88.45 119.55Q94.4 111 98.9 100.65Q102.4 92.5 103.5 87.25L104.1 86.85Q104.65 86.4 105.25 86.25Q106.15 87.85 106.45 89.35L106.75 91.5L107.3 83.4Q106.7 82.45 106.5 81.5Q106.25 80.4 106.25 78.5Q106.25 77.85 107.75 76.9Q108.3 70.85 108.55 60.25L109.15 42.75Q109.9 28.75 112.25 18.85Q112.25 16.5 113.5 14.3L115 10Q115.75 10.3 116.3 10.75Q119.05 8.05 122.8 7.15Q134.3 4.4 142 20M54.75,169.6Q54.75 181.5 47 251.1L45.1 268.05Q51.05 257.85 76.35 224.35Q89.75 206.6 130.25 154.25L131.4 156.5Q131.75 157.7 131.75 159.5Q131.75 162.55 97.8 209L89.85 219.9Q98 239.45 118.65 284.4Q139.75 330.35 139.75 333.1Q139.75 335 139.3 336.15Q138.8 337.3 137.5 338.6Q122.35 307.9 109.8 281Q90.25 239.05 86.3 224.65Q59.15 261.1 44 277.5Q38.5 324.65 35.75 339.35L34.5 339.6Q33.25 336.8 33.25 332.85Q33.25 331.6 38 296.1Q43.15 257.8 44.25 246Q46.3 223.95 49.25 202.5L49.3 180.55Q49.95 167.3 53.25 160.25Q54.75 163.85 54.75 169.6M75.5,366.6Q73.95 363.1 74.75 358.35Q44.7 356.35 25.85 399.55Q19.1 415 15.05 433.55Q11.75 448.8 11.75 457.85L11.8 471.75Q12.45 485.7 15.3 496.85Q24.15 531.6 52 531.6Q70.6 531.6 81.75 510.3Q84.5 505.05 87.25 497.45L83.7 491.7Q78.8 484.1 75 484.1Q70.4 484.1 68.25 486.5Q67.15 487.75 66 489.6Q64.25 487.85 64.25 483.85Q64.25 467.5 77.05 476.9Q81.3 480.05 86.3 485.6L89.9 489.8L93.25 480.1Q101.05 462.4 103.2 453.05Q105.25 444 105.25 428.35Q105.25 406.15 102 395.4Q96.95 378.95 80.25 361.85L75.5 366.6M74.05,344.95Q85.45 348.1 94.15 365.8Q101.1 379.85 105.3 400.6Q108.75 417.45 108.75 428.35Q108.75 441.2 103.6 460.75Q99.15 477.65 92.35 493.95Q96.55 502.5 103.45 510.65Q113.6 522.6 122 522.6Q139.8 522.6 147.85 514.65Q153.25 509.3 153.25 502.1Q153.25 495.15 153.4 491.6Q153.65 485.6 154.5 481.1Q155.7 482.5 156.3 488.95L156.75 497.6Q156.75 510.95 149.75 521.6Q142.35 532.85 132 532.85Q109.7 532.85 93.8 508.5L89.35 500.9Q81.4 518.35 73.15 529Q63.2 541.85 55 541.85Q21.75 541.85 11.8 501.65Q8.6 488.8 8.1 472.85L8.25 457.35Q8.25 436.4 18.3 406.8Q29.2 374.7 43.75 359.1Q60.35 341.2 74.05 344.95M126.75,351Q126.75 352.4 122.75 373.5Q118.75 396.05 118.75 404.6Q118.75 412.8 116.75 430.85Q114.75 448.95 114.75 457.1Q114.75 464 116.2 471.7Q118.75 485.4 124.75 489.35L132.25 489.35Q154 460.4 161.7 429.1Q167.25 406.4 167.25 370Q167.25 367.5 165.75 361.65Q164.25 355.8 164.25 354.75Q164.25 352.25 164.95 350.9Q165.85 349.15 168.25 348.1Q169.25 349.85 170.05 358.55Q170.75 365.8 170.75 369.85Q170.75 410.65 165.05 434.3Q157 467.7 133 499.85L124.5 499.6Q117.15 494.5 113.5 476.45Q111.25 465.3 111.25 457.35Q111.25 447.8 113.2 429.25Q115.2 410.3 115.25 401.1Q115.45 366.45 125.25 346.1L126.4 348.2Q126.75 349.25 126.75 351M269.7,266.5L269.75 284Q269.75 302.55 265.75 352.35Q261.75 402.2 261.75 405.1L261.8 407.3L262 408.35Q267.1 405.8 277.35 404.1L288 402.85Q301.3 402.85 304.25 405.65Q305.2 406.55 305.1 407.8L304.75 409.35Q304.75 413.8 303.95 413.85Q301.15 413.1 297 413.1Q288 413.1 275.6 415.95Q271.15 417 258.5 420.6Q257.25 417.6 257.25 411.25Q257.25 386.95 259.8 360.1Q261.95 337 266.25 309.6L266.25 252Q267.15 249.25 268.25 249.25Q269.45 256.1 269.7 266.5M217,274.05Q217.75 292.75 217.75 299.85L216.75 350.1Q216.55 357.35 215.05 374.95Q213.75 390.65 213.75 399.6L213.65 403.15Q213.95 404.7 216.25 405.4Q220.95 406.85 246 406.85Q250.75 406.85 250.75 413Q250.75 416.1 249 417.85Q220.5 419.2 212.15 413.35Q209.45 411.5 209.1 408.95L209.25 406.25Q209.25 390.05 210.75 371.05Q211.8 358.15 214.25 336.1L214.25 264.25Q213.05 260.1 213 255.9Q212.95 250.5 215.25 248.25Q216.15 252 217 274.05" />
</g>
</svg>
