<?xml version="1.0" encoding="utf-8"?>
<svg version="1.1" id="Layer_1"
xmlns="http://www.w3.org/2000/svg"
xmlns:xlink="http://www.w3.org/1999/xlink"


xml:space="preserve">
q2.75 33.6 -6.45 65.9q-3.9 13.8 -13.6 23.15q-7 6.75 -15.05 12.15q-18.25 12.2 -40.45 4.85q4.45 -96.25 -0.25 -192.5q36.85 10.15 57.1 42.2q11.9 18.8 13.75 41.3q-1.85 1.9 -2.05 4.7q-0.25 3.6 1.75 6.2q-1.7 7.15 -1.45 15.55q1 36.6 0.35 72.75q-1.1 59.6 -3.1 118.45q-2 59.8 -6.75 119.2q-1.15 14.95 -3.25 29.8q-2.3 16.6 3.15 30q1 -0.6 1.15 -1.4q5.75 -31.95 7.75 -65q3.4 -55.4 4.85 -111.15q2.7 2.8 6.75 4.6q25.3 4.8 44.8 -12.15q9.75 -8.4 14.7 -19.9q24 -55.7 10.5 -115.4q-14.25 -62.95 -78.5 -77.05q-3.2 11.05 -3.25 24.5q-0.3 59.8 -3.8 119.25q-1.8 30.6 2.55 59.25q21.7 0.45 43 5.25q3.65 -6.7 0.1 -13.4q-20.4 -4.45 -40.25 -7.75q0 -18.75 0.65 -37.5q1.95 -59.55 3.55 -119.25q0.4 -16.6 -3.2 -29.5q-6.8 -20.05 -32.1 -17.95q-30.35 1.75 -43 27.85q-15 30.95 -18.7 65.15q-6.35 58.15 -4.05 117.7q0.55 15.05 0.35 30.05q-1.05 60.65 15.75 117.7q1.95 6.6 8.1 9.95q38.75 21.15 68.65 -8.1q23.35 -22.75 28.4 -53.6q-11.55 10.55 -21.85 26.75q-21.5 33.8 -63 25.65q-10.8 -2.1 -14.5 -11.95q-11.05 -29.85 -12.75 -61.9q-2.2 -41.65 -3.4 -83.6q30.6 6.75 62.25 0.35q3.2 -7.2 -1.2 -13.45q-31.35 5.05 -61.8 1.95q-1.05 -58.35 13.75 -113.95q2.95 -11.1 10.4 -19.4q28.85 -32.35 67.95 -11.15q1.5 -1.55 0.85 -3.55q11.6 -19.15 33.2 -23q10 -1.85 18.35 2.5q0.85 -10.95 -9.25 -13.9q-22.6 -6.9 -36.9 14.05q-32.7 48.1 -24.15 106.45q4.35 29.5 27.3 46.95q10.7 8.05 22.05 0q7.9 -5.7 14.15 -13.3q7.75 -9.35 10.55 -21.2q0.9 -3.65 1.05 -7.5q-12.7 6.65 -20.85 18.75q-8.95 13.25 -24.3 10.45q-3.4 -0.65 -6.6 -1.95q-18.1 -19.5 -18.8 -46.5q-0.25 -9.05 0.05 -18.25q0.9 -2.95 0.35 -6.3q-0.4 -2.6 -1.85 -4.3q-30.7 -1.9 -61.05 4.35q1.9 -21.85 13.05 -40.4q-30.85 50.5 -64.2 98.9q3.7 -58.15 0.3 -115.3q-3.35 10.3 -3.15 23.25q0.8 59.8 -6.75 118.25q-3.95 30.45 0.2 59.5q0.85 -0.4 0.9 -0.9q4.5 -33.55 7.2 -67.35q13.25 -23.2 27.6 -45.8q0.05 4.55 2.3 9.5q18.8 41.25 35.15 83.95q6.15 16.25 17.2 25.1q2.15 -2.55 1.1 -5.6q-7.2 -20.45 -17.85 -40.45q-15.45 -31.35 -26.85 -63.1q9.6 -15 19.75 -29.75q11.3 -15.95 10.2 -32.4q-2.25 2.05 -2.7 5.05q-5.15 7.25 -9.85 14.9q-8.1 18.8 -11.15 39.1q-3.2 21.55 -0.55 43.2q2.65 21.4 11.6 40.85q7.55 16.3 25.4 17.9q26.05 -9.35 41.35 -32q1 -1.5 0.3 -3.05q-21.1 16.1 -47.25 20.25q-26.6 -47.1 -11 -99.05q5.85 -19.45 18.9 -35.05q-9.95 -24.75 -30.8 -8.2q-10.55 8.45 -16 21.1q0.1 22.3 -1.05 44.4q-1.05 2.85 -1 5.95q0.05 2.85 1.75 4.8q-2.15 30.65 -6.8 60.9q-2.6 16.9 3.2 29.55q1.55 -1.1 1.9 -3q3.25 -16.9 5 -34.3q2.65 -26.6 3.35 -53q4.15 -0.5 7.7 -1.55q-0.35 5.65 3.15 11.7q5.4 9.4 9.8 19.55q6.15 14.35 15.55 22.8q2.75 -6.85 -0.2 -13.6q-0.6 -0.35 -0.9 -0.9q-19.25 -39.3 -40.65 -76.9q13.65 -6.1 17.15 -22.7q7.75 -36.85 -28.85 -41.95q-4.75 0.7 -8.85 4.35q-3.85 3.45 -1.65 8.15q-2.65 22 -25.2 23.4q29.3 -3 26.3 21.75<g id="3002" transform="matrix(1, 0, 0, 1, -75.85, 0)">
<path style="fill:#000000;fill-opacity:1" d="M499.8,129.7Q479.55 97.65 442.7 87.5L442.85 89.9L440.95 86L437.75 84.55Q442.45 180.8 438 277.05Q460.2 284.4 478.45 272.2Q486.5 266.8 493.5 260.05Q503.2 250.7 507.1 236.9Q516.3 204.6 513.55 171Q511.7 148.5 499.8 129.7M435.95,71.75Q500.2 85.85 514.45 148.8Q527.95 208.5 503.95 264.2Q499 275.7 489.25 284.1Q469.75 301.05 444.45 296.25Q440.4 294.45 437.7 291.65Q436.25 347.4 432.85 402.8Q430.85 435.85 425.1 467.8Q424.95 468.6 423.95 469.2Q418.5 455.8 420.8 439.2Q422.9 424.35 424.05 409.4Q428.8 350 430.8 290.2Q432.8 231.35 433.9 171.75Q434.55 135.6 433.55 99Q433.3 90.6 435 83.45Q433 80.85 433.25 77.25Q433.45 74.45 435.3 72.55L435.95 71.75M379.15,108.75Q377.55 168.45 375.6 228Q374.95 246.75 374.95 265.5Q394.8 268.8 415.2 273.25Q418.75 279.95 415.1 286.65L414.45 287.5Q393.15 282.7 371.45 282.25Q367.1 253.6 368.9 223Q372.4 163.55 372.7 103.75Q372.75 90.3 375.95 79.25Q379.55 92.15 379.15 108.75M348.2,102.25Q309.1 81.05 280.25 113.4Q272.8 121.7 269.85 132.8Q255.05 188.4 256.1 246.75L256.65 270.45Q287.1 273.55 318.45 268.5Q322.85 274.75 319.65 281.95L319.2 282.75Q287.55 289.15 256.95 282.4Q258.15 324.35 260.35 366Q262.05 398.05 273.1 427.9Q276.8 437.75 287.6 439.85Q329.1 448 350.6 414.2Q360.9 398 372.45 387.45Q367.4 418.3 344.05 441.05Q314.15 470.3 275.4 449.15Q269.25 445.8 267.3 439.2Q250.5 382.15 251.55 321.5Q251.75 306.5 251.2 291.45Q248.9 231.9 255.25 173.75Q258.95 139.55 273.95 108.6Q286.6 82.5 316.95 80.75Q342.25 78.65 349.05 98.7Q349.7 100.7 348.2 102.25M452.8,379.3Q483.15 373.05 513.85 374.95Q515.3 376.65 515.7 379.25Q516.25 382.6 515.35 385.55L514.2 388.7L451.7 392.45Q451.4 401.65 451.65 410.7Q452.35 437.7 470.45 457.2Q473.65 458.5 477.05 459.15Q492.4 461.95 501.35 448.7Q509.5 436.6 522.2 429.95Q522.05 433.8 521.15 437.45Q518.35 449.3 510.6 458.65Q504.35 466.25 496.45 471.95Q485.1 480 474.4 471.95Q451.45 454.5 447.1 425Q438.55 366.65 471.25 318.55Q485.55 297.6 508.15 304.5Q518.25 307.45 517.4 318.4Q509.05 314.05 499.05 315.9Q477.45 319.75 465.85 338.9Q454.7 357.45 452.8 379.3M172.95,77.5Q173.4 74.5 175.65 72.45L176.2 72.25Q177.3 88.7 166 104.65L149.25 128.55Q139.1 143.3 129.5 158.3Q140.9 190.05 156.35 221.4L163.95 236.2Q174.6 256.2 181.8 276.65Q182.85 279.7 180.7 282.25Q169.65 273.4 163.5 257.15Q147.15 214.45 128.35 173.2Q126.1 168.25 126.05 163.7Q111.7 186.3 98.45 209.5L97.6 208.75Q94.9 242.55 90.4 276.1Q90.35 276.6 89.5 277Q85.35 247.95 89.3 217.5Q96.85 159.05 96.05 99.25Q95.85 86.3 99.2 76Q102.6 133.15 98.9 191.3Q132.25 142.9 163.1 92.4Q167.8 84.75 172.95 77.5M108.65,306.3Q129.5 289.75 139.45 314.5L112.95 311.75L110.35 314.85Q97.3 330.45 91.45 349.9Q75.85 401.85 102.45 448.95L107.7 452.95Q133.85 448.8 154.95 432.7L156.2 433.55L159.6 433.4Q160.3 434.95 159.3 436.45Q144 459.1 117.95 468.45Q100.1 466.85 92.55 450.55Q83.6 431.1 80.95 409.7Q78.3 388.05 81.5 366.5Q84.55 346.2 92.65 327.4Q98.1 314.75 108.65 306.3M173.45,312.25Q171.25 307.55 175.1 304.1Q179.2 300.45 183.95 299.75Q220.55 304.85 212.8 341.7Q209.3 358.3 195.65 364.4Q217.05 402 236.3 441.3Q236.6 441.85 237.2 442.2Q240.15 448.95 237.4 455.8L236.2 457.95Q226.8 449.5 220.65 435.15L204.3 397.2Q199.9 387.05 194.5 377.65Q191 371.6 191.35 365.95Q187.8 367 183.65 367.5L179.7 367.9Q179 394.3 176.35 420.9Q174.6 438.3 171.35 455.2Q171 457.1 169.45 458.2Q163.65 445.55 166.25 428.65Q170.9 398.4 173.05 367.75Q171.35 365.8 171.3 362.95Q171.25 359.85 172.3 357L172.7 356.2L173.75 356.25Q174.9 334.15 174.8 311.85L173.45 312.25M178.75,311.05L179.85 356.2Q202.4 354.8 205.05 332.8Q208.05 308.05 178.75 311.05" />
</g>
</svg>
