<?xml version="1.0" encoding="utf-8"?>
<svg version="1.1" id="Layer_1"
xmlns="http://www.w3.org/2000/svg"
xmlns:xlink="http://www.w3.org/1999/xlink"


xml:space="preserve">
q-2.8 17.6 -3.45 37.15q-1.85 58.7 -3.4 117.8q-1.55 60 -7.85 119.35q-1.35 13.05 -3.8 25.85q-2.8 14.55 5 21q4.75 -44.55 8.5 -90q4.2 -51.25 6.2 -102.95q27.25 -0.2 53.05 -3.5q1.2 -2.45 1.35 -5.25q0.2 -3.65 -1.6 -6.75q-0.35 -0.4 -0.8 -0.45q1.8 -57.05 -0.45 -112.85q32.8 -4.25 65.25 -10.15q3.15 -6.3 -0.7 -11.95q-34.85 5.5 -69 13.5q-2.15 5.45 1 9.75q-6.4 -22.8 -31.55 -25.3q-37.6 8 -54.6 43.3q-15.5 32.15 -20.85 67.8q-1.95 12.8 -2.85 25.7q-0.85 3.8 0.45 7.5q-0.85 18.8 0.4 37.75q3.85 57.9 37.1 104.85q2.3 3.25 5.9 3.9q55.6 10.55 96.45 -29.65q1.9 -4.75 1.3 -9.75q-0.75 -6.2 -6.3 -6q-30.95 35.65 -81.25 34.55q-6.65 -0.15 -10.6 -4.95q-30.35 -37.05 -37.4 -85.4q-3.3 -22.65 -1.75 -45.3q36.5 0 71.5 -10.85q2.6 -6.05 -1.3 -11.25q-13.8 3.6 -28.1 5.5q-21.3 2.8 -41.45 7.15q5.4 -41.7 22.5 -79.65q11.45 -25.4 37.15 -35.35q26.4 -10.2 45.55 8.25q-3.05 1.65 -3.15 6q-1.3 47.6 -3.15 95.25q-2.4 59.4 -7.9 118.35q-5.55 59.5 -6.55 118.6q1.9 1.45 4.3 0.6q4.15 -1.45 8.7 -1.4q40.95 0.5 82.75 -0.45q3.9 -7.4 -0.5 -14.25q-6.8 0.1 -13.4 -0.35q-33.6 -2.2 -65.35 0.5q1.2 -13.1 2.55 -26.25q6.1 -58.95 8.8 -118.45q2.7 -59.2 5.9 -118.45q1.6 -30.35 -1.25 -59.3q-5.3 -29.05 -37.45 -30q-37.75 7.15 -54.75 41.45q-26.15 52.7 -28.4 111.55q-1.4 36.95 1.7 73.6q4.4 52.05 35.1 94.3q19.35 26.6 45.3 6.15q10.1 -7.95 20.3 -15.5q18.35 -13.5 15.25 -32.1q-11.35 9.85 -21.8 21.65q-13.3 15.05 -31.95 20.35q-3.95 1.15 -7.05 -0.7q-34.8 -20.9 -43.2 -62.1q-11.85 -58.05 -7.6 -117.1q2.1 -28.9 9.7 -56.85q9.5 -34.6 36.9 -58.05q26.3 -22.55 56 -7.15q2.55 3.3 5.55 6.35q1.65 1.7 3.15 1.05<g id="3005" transform="matrix(1, 0, 0, 1, -28.4, 0)">
<path style="fill:#000000;fill-opacity:1" d="M381.45,116.25Q378.3 111.95 380.45 106.5Q414.6 98.5 449.45 93Q453.3 98.65 450.15 104.95L449.7 105.75Q417.25 111.65 384.45 115.9Q386.7 171.7 384.9 228.75L384.75 233.55L427.95 227.25L436.4 228.3Q436.85 228.35 437.2 228.75Q439 231.85 438.8 235.5Q438.65 238.3 437.45 240.75Q411.65 244.05 384.4 244.25Q382.4 295.95 378.2 347.2Q374.45 392.65 369.7 437.2Q361.9 430.75 364.7 416.2Q367.15 403.4 368.5 390.35Q374.8 331 376.35 271Q377.9 211.9 379.75 153.2Q380.4 133.65 383.2 116.05L381.45 116.25M330.45,139.25Q311.3 120.8 284.9 131Q259.2 140.95 247.75 166.35Q230.65 204.3 225.25 246L224.9 249.15Q245.05 244.8 266.35 242Q280.65 240.1 294.45 236.5Q298.35 241.7 295.75 247.75L295.45 248.5Q260.45 259.35 223.95 259.35Q222.4 282 225.7 304.65Q232.75 353 263.1 390.05Q267.05 394.85 273.7 395Q324 396.1 354.95 360.45Q360.5 360.25 361.25 366.45Q361.85 371.45 359.95 376.2Q319.1 416.4 263.5 405.85Q259.9 405.2 257.6 401.95Q224.35 355 220.5 297.1Q219.25 278.15 220.1 259.35L216.7 259.25Q215.4 255.55 216.25 251.75L216.45 251L220.65 250.05Q221.55 237.15 223.5 224.35Q228.85 188.7 244.35 156.55Q261.35 121.25 298.95 113.25Q324.1 115.75 330.5 138.55L330.45 139.25M184.45,157.3Q181.25 216.55 178.55 275.75Q175.85 335.25 169.75 394.2Q168.4 407.35 167.2 420.45Q198.95 417.75 232.55 419.95Q239.15 420.4 245.95 420.3L257.7 420.7Q262.1 427.55 258.2 434.95Q216.4 435.9 175.45 435.4Q170.9 435.35 166.75 436.8Q164.35 437.65 162.45 436.2Q163.45 377.1 169 317.6Q174.5 258.65 176.9 199.25Q178.75 151.6 180.05 104Q180.15 99.65 183.2 98Q186.05 126.95 184.45 157.3M150.45,128.75Q148.95 129.4 147.3 127.7Q144.3 124.65 141.75 121.35L139.7 119.75L139.25 118.95L138.45 117.5Q108.75 102.1 82.45 124.65Q55.05 148.1 45.55 182.7Q37.95 210.65 35.85 239.55Q31.6 298.6 43.45 356.65Q51.85 397.85 86.65 418.75Q89.75 420.6 93.7 419.45Q112.35 414.15 125.65 399.1Q136.1 387.3 147.45 377.45Q150.55 396.05 132.2 409.55Q122 417.1 111.9 425.05Q85.95 445.5 66.6 418.9Q35.9 376.65 31.5 324.6Q28.4 287.95 29.8 251Q32.05 192.15 58.2 139.45Q75.2 105.15 112.95 98Q145.1 98.95 150.4 128L150.45 128.75" />
</g>
</svg>
