<?xml version="1.0" encoding="utf-8"?>
<svg version="1.1" id="Layer_1"
xmlns="http://www.w3.org/2000/svg"
xmlns:xlink="http://www.w3.org/1999/xlink"


xml:space="preserve">
q-3.6 36.15 -5.55 72.65q-3.1 59.05 -3.7 118.55q-0.65 59.85 -4.55 119.2q-0.7 10.5 5.85 13.6q47.4 -0.3 95.2 1.75q1.45 -2.4 1.6 -5.25q0.05 -1.55 -0.25 -3q-0.35 -0.35 -0.8 -0.4q-35.3 -4.45 -71.45 -3.1q-0.25 0.1 -0.55 0.25q2.05 -14.5 2.15 -29.45q0.15 -21.7 1.85 -43.4q4.5 -58.95 5.15 -118.55q0.6 -59.85 4.25 -119.2q3.65 -59.9 1.15 -118.55q-0.95 -0.15 -1.05 0.8q1.05 13.95 1.05 27.7q0.05 59.55 -1.4 118.5q-1.45 59.55 -2.4 119.2q-0.95 59.45 -4.6 118.5q-0.45 7.45 -1.95 14.65q-3.65 17.4 3.4 29.35q6.2 -38.6 7.4 -78.75q1.8 -59.55 1.5 -119.2q-0.3 -59.95 1.3 -119.25q1.2 -44.25 2.95 -88.45q0.65 -16.2 -3.4 -30.05q-4.25 2.05 -3.85 7.8q-5.75 11.35 -7.55 25.15q-7.5 58.75 -16.25 117.3q-0.5 1.6 -0.6 3.35q-9.05 58.5 -17.65 117.1q-2.2 14.8 -6.95 28.75q-4.5 13.3 2.8 21.2q0.9 -0.75 1.1 -1.65q12.75 -55.2 20.15 -111.55q5.85 -44.2 12.15 -88.3q7.95 58.15 13.4 116.7q1.35 14.7 1.85 29.35q0.6 17.2 9.45 28.2q1.15 -0.85 1.05 -2.2q-4.45 -52.05 -9.65 -105.1q-5.8 -58.8 -13.95 -117.1q-7.15 -51 -16.1 -101.65q-10.35 -58.5 -15.6 -116.4q-4.95 4.05 -5.45 11.2q8.15 44.05 13.8 88.45q-28.15 0.6 -55.3 6.35q3.95 -28 10.7 -55.45q1.55 14.15 4.15 28.1q-22.35 40.2 -49.75 79.75q-8.35 46.85 -9.1 94.65q-0.2 11.9 -2.1 23.4q-2.2 13.05 -3.85 26.1q-0.45 3.75 -0.4 7.6q0.15 7.45 2.5 14.45q1.3 -51.8 27.25 -94.3q12.5 39.75 26.6 79.1q3.05 8.5 7.85 16.2q-7.9 -51.1 -31.8 -99.6q-0.7 27.35 -5.7 54.8q-1.6 8.65 1.7 16.9q10.3 -30.25 10.6 -63q5.1 -2.15 10.15 -4.35q3.75 37.85 24.2 69.1q4.85 -5.65 1.85 -12.5q14.2 -9.25 17.25 -25.55q1.75 -9.35 -0.95 -18.35q-3.65 -12.35 -15.4 -18.25q-3.95 17.15 -20.65 22.45q24.85 -2.75 18.5 25.05q-13.35 16.5 -15.9 38.2q-2.3 19.85 -3 40q-0.8 22.9 15.05 37.55q5 4.65 12.75 3.55q22.9 -3.05 34.95 -22.05q2.25 -3.55 0.85 -7.55q-24.6 24.5 -51.8 13.65q-2.4 -0.95 -3.05 -4.1q-4.05 -19.5 -3.55 -39.4q0.3 -13.4 3.05 -26.6q8.1 -38.7 38.2 -30.3q-14.1 -22.65 -32.9 0.65q35.75 38.4 11.05 90.75q-11.2 -12.6 -26.1 -10.7q14.25 -0.05 21.85 11.45q-32.8 39.7 -51.35 -4.85q-5.4 -12.95 -5.95 -27.3q-1.1 -30.1 16.8 -54q8.9 -11.95 21.65 -19.55q-13.7 19.1 -17.65 43.05q-6.85 41.1 11.15 76.75q10.1 11.05 23.65 7.6q10.75 -2.8 17.6 -11.3q5.45 -6.8 9.75 -13.8q9.45 18.95 29.95 21.25q3.55 -2.9 5.4 -7.2q2.65 -5.9 1.35 -11.55q-0.9 0.85 -1.2 2.05q-2.1 -0.45 -3.1 1.45q-6.75 3 -12.75 -1.65q-2.7 -2.05 -4 -4.8q-3.5 -7.05 -8.15 -12.5q19.65 -40.3 1.7 -86.65q-7.95 -20.55 -28.5 -24.15q-14.2 5.9 -23 18.2q7.6 50.05 -20.5 91.55q-4.8 0.9 -8.75 -2q-3.95 -12.25 -3.4 -25.45q1.55 -37.45 -0.6 -73.55q-3.1 13.05 -3.95 28.25q-2.3 29.85 10.2 54.1q4.75 1.55 9.25 0.75q29.15 -37.7 26.9 -86.3q-0.6 -12.75 -6.9 -18.7q-0.35 0.75 -0.25 1.45<g id="3035" transform="matrix(1, 0, 0, 1, -7.5, 0)">
<path style="fill:#000000;fill-opacity:1" d="M353.2,66Q355.7 124.65 352.05 184.55Q348.4 243.9 347.8 303.75Q347.15 363.35 342.65 422.3Q340.95 444 340.8 465.7Q340.7 480.65 338.65 495.15Q338.95 495 339.2 494.9L342 494.2L359.95 491.45Q396.1 490.1 431.4 494.55Q431.85 494.6 432.2 494.95L432.9 496.5L433.2 497.2L433.4 498L433.55 498.7Q433.85 500.15 433.8 501.7Q433.65 504.55 432.2 506.95Q384.4 504.9 337 505.2L336.2 509.2Q329.65 506.1 330.35 495.6L338.35 377.2Q342.25 317.85 342.9 258Q343.5 198.5 346.6 139.45Q348.55 102.95 352.15 66.8Q352.25 65.85 353.2 66M311.45,72.5Q315.5 86.35 314.85 102.55Q313.1 146.75 311.9 191Q310.3 250.3 310.6 310.25Q310.9 369.9 309.1 429.45Q307.9 469.6 301.7 508.2Q294.65 496.25 298.3 478.85Q299.8 471.65 300.25 464.2Q303.9 405.15 304.85 345.7Q305.8 286.05 307.25 226.5Q308.7 167.55 308.65 108Q308.65 94.25 307.6 80.3Q307.2 74.55 311.45 72.5M227.45,67.25Q232.7 125.15 243.05 183.65Q252 234.3 259.15 285.3Q267.3 343.6 273.1 402.4Q278.3 455.45 282.75 507.5Q282.85 508.85 281.7 509.7Q272.85 498.7 272.25 481.5Q271.75 466.85 270.4 452.15Q264.95 393.6 257 335.45L252.3 300.6L192.1 303.2Q185.8 347.3 179.95 391.5Q172.55 447.85 159.8 503.05Q159.6 503.95 158.7 504.7Q151.4 496.8 155.9 483.5Q160.65 469.55 162.85 454.75Q171.45 396.15 180.5 337.65L186.5 298.65L186.5 297.95Q186.6 296.2 187.1 294.6L198.2 220.9Q206.95 162.35 214.45 103.6Q216.25 89.8 222 78.45Q222.5 71.3 227.45 67.25M223.65,101.9Q216.9 129.35 212.95 157.35L196.2 274.4L193.65 292.1Q220.8 286.35 248.95 285.75L250.35 285.65L241.6 218.45Q235.95 174.05 227.8 130Q225.2 116.05 223.65 101.9M107.3,62.5L72.9 124.65Q96.8 173.15 104.7 224.25Q99.9 216.55 96.85 208.05Q82.75 168.7 70.25 128.95Q44.3 171.45 43 223.25Q40.65 216.25 40.5 208.8Q40.45 204.95 40.9 201.2Q42.55 188.15 44.75 175.1Q46.65 163.6 46.85 151.7Q47.6 103.9 55.95 57.05L52 142.45L56.05 137.2Q83.45 97.65 105.8 57.45L107.3 62.5M102.2,235.25L103.95 232.55L114.2 232.75Q125.95 238.65 129.6 251Q132.3 260 130.55 269.35Q127.5 285.65 113.3 294.9L135.2 352.45L137.3 352.95Q140.3 359.8 135.45 365.45Q115 334.2 111.25 296.35Q106.2 298.55 101.1 300.7Q100.8 333.45 90.5 363.7Q87.2 355.45 88.8 346.8Q93.8 319.35 94.5 292L96.05 291.8L102.35 243.2L102.2 235.25M104.15,242.95L102 290.45Q118.7 285.15 122.65 268Q129 240.2 104.15 242.95M74.95,242.25L74.65 247L69.6 245.85Q39.5 237.45 31.4 276.15Q28.65 289.35 28.35 302.75Q27.85 322.65 31.9 342.15Q32.55 345.3 34.95 346.25Q62.15 357.1 86.75 332.6Q88.15 336.6 85.9 340.15Q73.85 359.15 50.95 362.2Q43.2 363.3 38.2 358.65Q22.35 344 23.15 321.1Q23.85 300.95 26.15 281.1Q28.7 259.4 42.05 242.9Q60.85 219.6 74.95 242.25M55,376.7Q42.25 384.3 33.35 396.25Q15.45 420.15 16.55 450.25Q17.1 464.6 22.5 477.55Q41.05 522.1 73.85 482.4Q66.25 470.9 52 470.95L52.75 464.4Q67.65 462.5 78.85 475.1Q103.55 422.75 67.8 384.35L63.15 380.7L60.1 383.15L58 376.95L55 376.7M55,367.45Q75.55 371.05 83.5 391.6Q101.45 437.95 81.8 478.25Q86.45 483.7 89.95 490.75Q91.25 493.5 93.95 495.55Q99.95 500.2 106.7 497.2L108.1 494.9Q109.1 493 111.2 493.45L111.45 492.7Q111.75 491.5 112.65 490.65L113.2 490.45Q114.5 496.1 111.85 502Q110 506.3 106.45 509.2Q85.95 506.9 76.5 487.95Q72.2 494.95 66.75 501.75Q59.9 510.25 49.15 513.05Q35.6 516.5 25.5 505.45Q7.5 469.8 14.35 428.7Q18.3 404.75 32 385.65Q40.8 373.35 55 367.45M140.7,383.45Q147 389.4 147.6 402.15Q149.85 450.75 120.7 488.45Q116.2 489.25 111.45 487.7Q98.95 463.45 101.25 433.6L103.25 403.7Q104.1 388.5 107.2 375.45Q109.35 411.55 107.8 449Q107.25 462.2 111.2 474.45Q115.15 477.35 119.95 476.45Q148.05 434.95 140.45 384.9Q140.35 384.2 140.7 383.45" />
</g>
</svg>
