<?xml version="1.0" encoding="utf-8"?>
<svg version="1.1" id="Layer_1"
xmlns="http://www.w3.org/2000/svg"
xmlns:xlink="http://www.w3.org/1999/xlink"


xml:space="preserve">
q-2.3 0.95 -3.5 3.25q-1.45 4.35 2.25 5.5q3.35 -4.1 0.6 -8.15q7.2 4.8 12.4 10.9q-5.25 -29.85 -35.75 -34q-35.2 21.35 -42.1 64.2q-4.5 27.9 -12.4 55.2q-26.75 92.65 1.45 181q6.7 21.05 26.5 27.85q12.45 4.15 24.6 -0.95q3.05 -1.25 6 -3q2.25 -1.65 4.25 -3.7q2.75 -3.3 4.75 -7.15q5.35 -10.1 4.95 -21.55q-12.25 25.6 -38.95 35q-23.8 8.55 -35.7 -14.1q-17.25 -32.65 -15.5 -69.65q1.45 -31.55 5.75 -62.95q2.55 -4.2 1.55 -8.95q-0.6 -2.75 -2.15 -4.9q-22.1 -1.9 -43.25 5.1q8.65 -65.8 37.55 -125.3q16.45 -18.3 38.55 -3.45q-16.45 46.8 -22.65 98.1q-7.1 58.6 -17.55 116.7q-7.5 41.85 -17.35 83.2q-5.9 -25.85 -10.85 -51.9q-11 -57.95 -21.25 -115.95q-10.3 -58.35 -21.1 -116.1q-1.5 0.1 -1.5 1.75q0.05 21.45 3.25 42.95q8.7 58.3 20.25 116.15q5.75 28.85 10.6 57.9q9.8 58.5 23.9 115.95q3.05 -2.3 2.4 -6.35q4.4 -13.7 6.65 -28.75q8.8 -58.35 18.85 -116.5q10.1 -58.35 19.1 -116.9q2.25 -14.65 6.4 -28.8q4.6 -15.55 2.45 -29.7q-4.8 38 -10.75 76.15q-4.05 25.8 -8.6 51.55q-8.85 49.55 -20.25 98.7q-0.65 2.75 -0.6 5.6q1.05 3.15 2.7 6.1q12.1 -58.15 22.05 -117.8q3 60.95 12.35 121q0.5 3.4 2.1 6.55q0.7 1.4 1.8 2.65q-1.45 -66.5 -8.85 -133.25q1.55 -1.85 1.65 -4.4q-12.25 -84.95 -16.95 -170q-18.95 -20.2 -46.15 -22.1q-18.65 7.55 -31.3 24.25q-20.8 27.6 -30.65 61.3q-16.65 57.2 -16.15 117.45q0.5 60.15 30.45 112.3q17.4 30.25 51.2 23.55q17.95 -3.6 33.3 -13.35q17.1 -10.95 17.4 -27.55q-1.35 0.8 -2.75 1q-4.1 2.55 -7.95 5.55q-15.9 12.15 -35.2 16.95q-42.35 10.5 -59.45 -29.35q-24.2 -56.3 -19.05 -118.2q3.65 -43.9 15.25 -86.7q11.8 -43.55 47.8 -69.8q9 -6.5 19.95 -2.55q18.65 6.65 35.15 7.65q-6.1 -23.3 -29.55 -29.35q-1.75 4.35 -0.35 9q0.35 1.25 1.35 2.25q-8.6 31.3 -3 63q11.6 -29.05 10.4 -62.2q11.2 35.35 30.4 66.85q-3.3 -36 -25.6 -68.3q21.05 -9.4 14.75 -33.3q26.25 4.8 29.85 32.15q-13.1 12.35 -30.85 12.95q1.3 -22.55 1 -45.1<g id="3022" transform="matrix(1, 0, 0, 1, -11.75, 0)">
<path style="fill:#000000;fill-opacity:1" d="M729.6,19.9L728.95 20.5Q725.25 19.35 726.7 15Q727.9 12.7 730.2 11.75Q732.95 15.8 729.6 19.9M420.75,92.55Q391.85 152.05 383.2 217.85Q404.35 210.85 426.45 212.75Q428 214.9 428.6 217.65Q429.6 222.4 427.05 226.6L381.3 230.75Q377 262.15 375.55 293.7Q373.8 330.7 391.05 363.35Q402.95 386 426.75 377.45Q453.45 368.05 465.7 342.45L466.05 348.15Q466.45 359.6 461.1 369.7Q459.1 373.55 456.35 376.85L452.7 380.9Q450.7 382.95 448.45 384.6L440 390.3Q437.05 392.05 434 393.3Q421.85 398.4 409.4 394.25Q389.6 387.45 382.9 366.4Q354.7 278.05 381.45 185.4Q389.35 158.1 393.85 130.2Q400.75 87.35 435.95 66Q466.45 70.15 471.7 100Q466.5 93.9 459.3 89.1Q437.2 74.25 420.75 92.55M383.75,97.95Q379.6 112.1 377.35 126.75Q368.35 185.3 358.25 243.65Q348.2 301.8 339.4 360.15Q337.15 375.2 332.75 388.9L333.35 392.6Q334 396.65 330.95 398.95L329.3 398.65L328.95 399.45L328.45 398.15L327.7 397.2Q313.6 339.75 303.8 281.25Q298.95 252.2 293.2 223.35Q281.65 165.5 272.95 107.2Q269.75 85.7 269.7 64.25Q269.7 62.6 271.2 62.5Q282 120.25 292.3 178.6Q302.55 236.6 313.55 294.55Q318.5 320.6 324.4 346.45L328.65 366.25Q338.5 324.9 346 283.05Q356.45 224.95 363.55 166.35Q369.75 115.05 386.2 68.25Q388.35 82.4 383.75 97.95M244.7,76.05L245.55 75.4Q250.25 160.45 262.5 245.4L263.3 245.7L264.1 246.7L264.6 247.85L264.9 248.95L264.95 250Q264.85 252.55 263.3 254.4Q270.7 321.15 272.15 387.65Q271.05 386.4 270.35 385Q268.75 381.85 268.25 378.45Q258.9 318.4 255.9 257.45L219.75 253.15Q209.8 312.8 197.7 370.95Q196.05 368 195 364.85L194.15 361.55L193.85 359.8L193.7 356.2Q193.65 353.35 194.3 350.6Q205.7 301.45 214.55 251.9L213.7 246.5L216.05 244L224.4 197.2Q228.95 171.45 233 145.65Q238.95 107.5 243.75 69.5L244.7 76.05M163.45,82Q146.95 81 128.3 74.35Q117.35 70.4 108.35 76.9Q72.35 103.15 60.55 146.7Q48.95 189.5 45.3 233.4Q40.15 295.3 64.35 351.6Q81.45 391.45 123.8 380.95Q143.1 376.15 159 364Q162.85 361 166.95 358.45L168.45 358.2Q169.85 358 171.2 357.2Q170.9 373.8 153.8 384.75Q138.45 394.5 120.5 398.1Q86.7 404.8 69.3 374.55Q39.35 322.4 38.85 262.25Q38.35 202 55 144.8Q64.85 111.1 85.65 83.5Q98.3 66.8 116.95 59.25Q144.15 61.15 163.1 81.35L163.45 82M165.1,149.95Q187.4 182.25 190.7 218.25Q171.5 186.75 160.3 151.4L144.85 153.05Q146.05 186.2 134.45 215.25Q128.85 183.55 137.45 152.25Q136.45 151.25 136.1 150Q134.7 145.35 136.45 141L139.55 141.3L145.05 96.1L139.5 94.75L141 87.6L150.3 87.3Q173.75 93.35 179.85 116.65Q186.15 140.55 165.1 149.95M145.6,141.45Q163.35 140.85 176.45 128.5Q172.85 101.15 146.6 96.35Q146.9 118.9 145.6 141.45M254.9,245.75L242.6 128.65L221.85 242.5L254.9 245.75" />
</g>
</svg>
