<?xml version="1.0" encoding="utf-8"?>
<svg version="1.1" id="Layer_1"
xmlns="http://www.w3.org/2000/svg"
xmlns:xlink="http://www.w3.org/1999/xlink"


xml:space="preserve">
q-11.25 -11.6 -27.45 -9.3q-15.7 2.5 -31.6 3.7q-10.8 90.2 -17.15 181.2q-2.95 38.3 1 73.95q10.35 -101.5 16.6 -205q-0.25 -19.25 -18.75 -24.4q-37.15 23.85 -48.95 69.45q-5.75 22.25 -10 43.8q-7.2 36.8 -8.5 74.25q-0.75 22.1 4.45 43.55q2.6 10.8 6.45 21q2.05 5.45 4.95 10.25q3.35 5.55 8.65 9q9.5 6.15 20.9 5.85q41.95 -1.15 68.25 -38.3q9.45 -13.3 6.55 -29.25q-23.6 41.9 -66.45 53.5q-13.05 3.45 -25.35 -3q-10.3 -5.5 -14.35 -16.3q-9.95 -26.65 -8.65 -55.6q1.15 -25.55 4.6 -51.05q28.6 6.65 55.7 -5q-25.3 3.25 -51.75 4.1q7.85 -60.15 52 -94.4q4.9 -3.75 11.45 -2.25q-6.3 -58.95 -10.95 -117.6q-12.15 49.15 -19.1 99.65q-0.7 1.8 -0.6 3.75q0.1 1.15 0.6 2.25q-6.2 38.85 -13.9 77.45q-4.55 22.7 -1.55 43.65q2.7 0.05 3.1 -2.6q8.45 -58.25 17.55 -116.35q14.15 4.35 29.3 3.8q7.3 58.55 10.9 117.75q0.95 15.05 0.6 30q-0.45 16.7 5.2 29.75q2.8 -1.35 2.75 -5q-0.85 -56.95 -6.6 -113.95q0 -2.05 -1.05 -3.75q-0.35 -0.4 -0.7 -0.35q-18.05 83.25 -7.95 161.4q15.25 90.5 38.5 179.45q-7.95 -90.65 -33.8 -181.65q27.05 -20.75 30.1 -56.55q0 -17.15 -8.85 -31.7q-2.65 -4.35 -6.15 -7.75q-4.25 -3.1 -9 -5.45q-9.25 -4.4 -18.95 -3.2q7.15 2.95 11.8 8.85q19.55 24.55 13.95 56.8q-5.7 33.15 -33.6 40.9q5.95 -54.15 2.25 -108.1q2.4 0.2 5.6 1.55q-6.05 -32.75 -42.15 -30.85q-21.25 5.2 -36.8 21.15q-31.45 32.35 -40.75 76.05q-6.85 32.05 -9.6 64.9q-5.05 60.75 14.5 118q12.15 35.65 44.1 54.65q7.45 4.45 16 3.95q28.35 -1.55 49.25 -22.55q20.95 -21.15 19.55 -46.45q-18.15 34 -52.35 52.3q-4.65 2.5 -9.75 2.1q-42.45 -3.25 -58.6 -44.2q-10.8 -27.45 -14 -56.6q-4 -36.55 -2.6 -73.4q1.95 -52.55 30.15 -96.75q13.95 -21.9 37.25 -32.6q36.05 -16.65 54.9 12.7q1.15 -1.05 0.9 -2.4q3.55 48.25 9.1 96.25q6.25 -38.5 14 -76.65q1.8 -9 3.1 -17.9<g id="3026" transform="matrix(1, 0, 0, 1, -33.75, 0)">
<path style="fill:#000000;fill-opacity:1" d="M409.2,97.75L370.85 97.1L368.9 136.8L366.6 176.7Q360.35 280.2 350 381.7Q346.05 346.05 349 307.75L351.1 278.25Q357.45 187.25 368.25 97.05L319.2 94.5L318.45 86.25L350.15 84.65Q366.05 83.45 381.75 80.95Q397.95 78.65 409.2 90.25L409.2 97.75M447.55,117.65Q441 116.15 436.1 119.9Q391.95 154.15 384.1 214.3Q410.55 213.45 435.85 210.2L437.95 218.75Q410.85 230.4 382.25 223.75L380 239.55Q376.55 265.05 375.4 290.6Q374.1 319.55 384.05 346.2Q388.1 357 398.4 362.5Q410.7 368.95 423.75 365.5Q466.6 353.9 490.2 312L490.7 314.1Q493.6 330.05 484.15 343.35Q457.85 380.5 415.9 381.65Q404.5 381.95 395 375.8Q389.7 372.35 386.35 366.8Q383.45 362 381.4 356.55Q377.55 346.35 374.95 335.55Q369.75 314.1 370.5 292Q371.8 254.55 379 217.75Q383.25 196.2 389 173.95Q400.8 128.35 437.95 104.5L440.45 105.1Q458.95 110.25 459.2 129.5L457.45 125L453.2 119.25L447.55 117.65M326.95,226.75Q328 228.45 328 230.5L327.65 233.45L327.45 234.25L327.2 235L325.2 236.45L324 237.25L322.95 238L318.15 238.65L325.1 306.25Q330.85 363.25 331.7 420.2Q331.75 423.85 328.95 425.2Q323.3 412.15 323.75 395.45Q324.1 380.5 323.15 365.45Q319.55 306.25 312.25 247.7L311.2 239.2Q296.05 239.75 281.9 235.4L281.85 235.75Q272.75 293.85 264.3 352.1Q263.9 354.75 261.2 354.7Q258.2 333.75 262.75 311.05Q270.45 272.45 276.65 233.6L272.7 232Q272.2 230.9 272.1 229.75Q272 227.8 272.7 226L274.6 224.85L277.45 224.25L278.1 224.35L282.45 194.25Q289.4 143.75 301.55 94.6L302.95 85.85L303.45 85.75Q308.1 144.4 314.4 203.35L316.9 226.8L326.25 226.4Q326.6 226.35 326.95 226.75M202.7,88.5L202.25 84L203.45 80.5Q213.15 79.3 222.4 83.7Q227.15 86.05 231.4 89.15L232.95 90.35L234.55 91.65L235.95 93Q239.45 96.4 242.1 100.75Q250.95 115.3 250.95 132.45L250.8 141.45L250.25 150.25Q247.2 186.05 220.15 206.8Q246 297.8 253.95 388.45Q230.7 299.5 215.45 209L209.05 210.95L193.8 373.1Q183.7 294.95 201.75 211.7L194.7 210.5L194.45 200L202.95 199.3L208.85 90.25L205.45 93.85L205.45 92L202.7 88.5M212.8,89.6Q216.5 143.55 210.55 197.7Q238.45 189.95 244.15 156.8Q249.75 124.55 230.2 100Q225.55 94.1 218.4 91.15Q215.2 89.8 212.8 89.6M167.2,106.5Q148.35 77.15 112.3 93.8Q89 104.5 75.05 126.4Q46.85 170.6 44.9 223.15Q43.5 260 47.5 296.55Q50.7 325.7 61.5 353.15Q77.65 394.1 120.1 397.35Q125.2 397.75 129.85 395.25Q164.05 376.95 182.2 342.95Q183.6 368.25 162.65 389.4Q141.75 410.4 113.4 411.95Q104.85 412.45 97.4 408Q65.45 389 53.3 353.35Q33.75 296.1 38.8 235.35Q41.55 202.5 48.4 170.45Q57.7 126.75 89.15 94.4Q104.7 78.45 125.95 73.25Q162.05 71.35 168.1 104.1Q168.35 105.45 167.2 106.5M297.55,148.45Q289.8 186.6 283.55 225.1L309.75 226.8Q304.2 178.8 300.65 130.55Q299.35 139.45 297.55 148.45" />
</g>
</svg>
