<?xml version="1.0" encoding="utf-8"?>
<svg version="1.1" id="Layer_1"
xmlns="http://www.w3.org/2000/svg"
xmlns:xlink="http://www.w3.org/1999/xlink"


xml:space="preserve">
q-36.75 2.95 -73.5 9.25q-1.25 0.95 -1.6 2.7q-0.8 4 0.85 7.55q18.45 0.85 37.1 -0.15q-5.3 33.15 -5.1 68.9q0.2 37.3 -2.75 74.15q-1.35 16.9 4.5 29.3q3.95 -15.1 3.65 -32.25q-0.75 -44.75 2.1 -89.15q1.65 -26.25 -0.25 -51.1q20 -1.25 40.25 -4.7q0.9 -1.4 1.3 -3q1.45 -5.5 -1.3 -10.5q-0.35 -0.4 -0.8 -0.5q-5.95 15.55 -6.2 34.4q-13.2 1 -25.75 5.55q-9 38.1 -7.75 77.25q0 0.9 0.6 1.2q5.85 -12.1 6.05 -30.5q0.3 -23.35 -0.1 -46.65q-3.85 50.85 0.5 101.2q0.45 5.15 2.6 9.95q1.9 -2.1 1.8 -4.95q-26.45 42.3 -48.85 87.3q-3.35 6.65 -7.45 12.8q-1.55 2.35 -2.65 4.6q0.8 -55.1 0.5 -108.55q-3.2 5.45 -3.6 13.45q-2.8 59.45 -3.1 119.25q-0.05 15 -1.6 29.85q-1.75 16.7 3.55 29.4q1.9 -2.2 2 -5.25q1.2 -28.3 1.85 -57.1q-0.35 5.3 0.8 11.35q7.25 37.6 16.2 75.05q3.85 16.25 11.65 27.15q5.05 -5.05 2.85 -12q-17.4 -54.25 -27.35 -109.9q10.9 -21.35 23.65 -41.75q8.5 -13.6 8.35 -26.8q-1.6 -0.1 -2.5 1.35q18.95 -3.7 33.3 9.95q-4.55 -34.1 -39.2 -20.35q-17.55 6.95 -26.8 24.05q-11.5 21.3 -15.05 45.25q-4.7 31.8 -3.1 64q0.75 15.3 8.85 28.25q3.25 5.2 7.75 9.3q24.5 22.45 54 4.7q12.8 -7.8 13.15 -22.3q0.15 -5.1 -1.85 -9.7q-20.3 28.4 -52.15 18.25q-18.4 -5.75 -21.3 -25.7q-3.55 -24.3 -1.85 -48.7q1.95 -2.4 2.1 -5.35q0.15 -3.5 -1.7 -6.6q-29.6 -1.65 -59.15 7.8q4.25 -41.15 36.4 -64.35<g id="3042" transform="matrix(1, 0, 0, 1, -136.2, 0)">
<path style="fill:#000000;fill-opacity:1" d="M390.4,179.75Q390.85 179.85 391.2 180.25Q393.95 185.25 392.5 190.75Q392.1 192.35 391.2 193.75Q370.95 197.2 350.95 198.45Q352.85 223.3 351.2 249.55Q348.35 293.95 349.1 338.7Q349.4 355.85 345.45 370.95Q339.6 358.55 340.95 341.65Q343.9 304.8 343.7 267.5Q343.5 231.75 348.8 198.6Q330.15 199.6 311.7 198.75Q310.05 195.2 310.85 191.2Q311.2 189.45 312.45 188.5Q349.2 182.2 385.95 179.25L390.4 179.75M425.5,254.55Q425.6 257.4 423.7 259.5L418.45 371.95Q416.3 367.15 415.85 362Q411.5 311.65 415.35 260.8L386.35 265.75L386.7 293.4Q387.1 316.7 386.8 340.05Q386.6 358.45 380.75 370.55Q380.15 370.25 380.15 369.35L377.7 280Q376.45 240.85 385.45 202.75L386.25 254.8L389.85 253.45Q402.4 248.9 415.6 247.9L416.25 212.15Q416.5 193.3 422.45 177.75L423.4 248.5L423.75 248.75L424.85 250.85L425.35 252.7L425.5 254.55M207.2,181.75Q207.35 194.95 198.85 208.55Q186.1 228.95 175.2 250.3Q185.15 305.95 202.55 360.2Q204.75 367.15 199.7 372.2Q191.9 361.3 188.05 345.05Q179.1 307.6 171.85 270Q170.7 263.95 171.05 258.65L170.9 258.95L146 309.95L145.35 308.85Q144.7 337.65 143.5 365.95Q143.4 369 141.5 371.2Q136.2 358.5 137.95 341.8Q139.5 326.95 139.55 311.95Q139.85 252.15 142.65 192.7Q143.05 184.7 146.25 179.25Q146.55 232.7 145.75 287.8Q146.85 285.55 148.4 283.2Q152.5 277.05 155.85 270.4Q178.25 225.4 204.7 183.1Q205.6 181.65 207.2 181.75M261.1,196.4Q228.95 219.6 224.7 260.75Q254.25 251.3 283.85 252.95L284.1 253.3Q285.95 256.4 285.8 259.9Q285.65 262.85 283.7 265.25L223.65 271.55Q221.95 295.95 225.5 320.25Q228.4 340.2 246.8 345.95Q278.65 356.1 298.95 327.7Q300.95 332.3 300.8 337.4Q300.45 351.9 287.65 359.7Q258.15 377.45 233.65 355Q229.15 350.9 225.9 345.7Q217.8 332.75 217.05 317.45Q215.45 285.25 220.15 253.45Q223.7 229.5 235.2 208.2Q244.45 191.1 262 184.15Q296.65 170.4 301.2 204.5L299.5 202.85Q285.15 189.2 266.2 192.9L261.1 196.4" />
</g>
</svg>
