<?xml version="1.0" encoding="utf-8"?>
<svg version="1.1" id="Layer_1"
xmlns="http://www.w3.org/2000/svg"
xmlns:xlink="http://www.w3.org/1999/xlink"


xml:space="preserve">
q-10.55 -34.5 -42.1 -48.75q-6.3 -0.25 -11.9 2q-0.35 0 -0.45 0.15q-2.05 0.9 -3.95 2.15q-0.4 1.45 -0.35 3q0.1 1.65 1.1 3q-3.65 12.55 -4.25 26.5q-2.5 58.9 -2.45 118.55q0 59.75 -6.9 118.55q-3.5 29.85 -3.8 59.9q-0.3 26.7 -5.2 52.3q-2.7 14.1 5 21.7q4.7 -9.75 5.15 -20.95q1.65 -44.55 5.7 -88.65q5.4 -59.15 4.95 -119.1q-0.4 -54.45 3.3 -107.15q11.5 -0.6 21.3 6q18 12.05 26.6 32.35q25.2 59.4 -5.95 115.6q-9.7 17.55 -28.1 26.05q-21.25 9.75 -11.25 25.15q10.2 -5.3 18.7 -12q11.9 33.75 19.35 69q12.35 58.05 27.15 115.05q3.25 12.5 9.8 19.9q2.85 -3.95 1.55 -8.7q-10.85 -39.45 -19.7 -79.7q-11.05 -54.95 -30.9 -106.15q19 -16.95 28.45 -42.1q9.45 -24.95 9.35 -51.4q-0.1 -29.7 -8.85 -58.25q-9 27.75 -15.05 57.95q-5.65 28.25 -13.15 56.05q-2.3 2.65 -1.95 6.5q-7.3 25.95 -16.25 51.55q-5.65 16.2 0.55 29.65q8.65 -24.35 16.15 -51.2q3.75 -13.35 7.15 -26.7q14.55 0.9 29.15 -1.5q1.1 13.85 8.8 20.15q0.5 -0.75 0.45 -1.45q0.65 0.75 1.9 0.2q1.2 -2.95 1.6 -6q0.7 -5.95 -3.35 -9.75q-4.75 -52.7 -7.3 -104.65q-12.25 3.2 -25 5.15q9.15 -37.95 15.55 -76.45q1.05 -6.45 3.2 -12.4q-9.2 12.95 -11.05 29.65q-6.2 55.25 -10.1 110.95q-1.85 26.85 11.9 47.35q3.25 0 6 -1.15q24.8 -10.75 25 -37.35q-0.5 -0.4 -1.15 -0.45q-2.05 0.15 -2.9 1.8q-6.55 12.6 -18.35 20.45q-0.25 -7.55 -0.95 -15.05q-2.1 -21.85 -1 -43.5q17.25 1.05 33.55 -7.05q1.05 1.45 2.7 1.05q1.4 -1.15 1.75 -3q1.55 -7.95 -3.75 -13.5q-14.7 7.05 -30.7 10.7q3.5 -34.4 11.45 -67.65q3.8 -1.9 8.15 -1.4q3.7 1.9 6.4 5.1q1.05 -3 0.55 -6.05q-2.2 -14.55 -14.8 -22.45q-0.75 -0.4 -1.55 -0.5q-34.5 7.9 -42 43.95q-9 43.4 -12.95 87.8q-2.95 33.7 -4.45 67.7q-1.8 5.2 1.1 9.3q-0.8 20.7 -1.05 41.45q-0.75 59.8 6.05 118.45q2.95 25 19.85 42.75q14.3 14.95 32.45 6.85q14.6 -6.6 26.95 -16.95q22.2 -18.7 16.05 -42.65q-0.75 0.15 -1.2 0.6q-7.6 19.45 -25.1 32.8q-8 6.1 -17.35 9.4q-11.3 3.9 -20.8 -3.45q-21.85 -16.8 -23.75 -45.15q-4.05 -59.2 -3.25 -119.3q0.15 -12.2 0.55 -24.4q35 1.3 67.45 -11.35q4.35 -9.2 -2.55 -14.5q-31.35 12.6 -64.8 15.3q1.65 -41.2 5.85 -82q2.95 -28.7 6.7 -57.25q5.65 -43.05 48 -47.05q4.05 2.35 5.65 6.8q1.05 2.85 3.1 4.95q2.85 -2.15 2.3 -6.35q-1.5 -11.85 -11.3 -17.9q-19.65 5.05 -29.6 23.3q-10.95 19.95 -16.9 41.95q-5.5 20.15 -9.15 40.4q-3.7 20.7 -4.75 41.95q-1.05 21.75 2.75 43.25q3.8 21.35 24.05 22.95q22 1.8 42.55 -7.2q21.1 -9.3 19.3 -31.6q-20.25 13.8 -43.8 22q-10.6 3.65 -21.9 2.9q-2.4 -0.05 -4.25 -1.35q-3.4 -2.4 -5.15 -6.35q-6.2 -13.85 -6.7 -29q-1.65 -48.55 11.7 -95.65q6.65 -23.35 23.65 -40.75q20.45 -20.85 40.45 0.7q2.75 -11.15 -6.05 -20.55q-4.6 -5 -10.7 -6.2q-2.75 38.5 -4.95 77.2q1.35 1.9 3.25 0.75q29.65 -5.4 60.75 -1q5.5 -8.9 -0.5 -17.25q-28.85 -2.45 -56.5 -1.75q1.15 -6.65 1.55 -13.5q1.85 -30.55 0.85 -59.3q-4.4 6 -5.05 15.5q-3.05 0.75 -6.65 2q-33.6 11.75 -35.55 48.75q-3.15 58.8 3.1 117q1.3 11.95 7.05 22.55q15.5 28.4 45.3 10.85q12.65 -7.45 22.3 -16.95q13.5 22.4 37.7 15.15q23.95 -7.25 15.85 -27.05q-4.9 8.5 -14.6 12.8q-17.05 7.6 -27.85 -6.05q17.35 -21.15 22.25 -51q2.3 -14.05 -0.65 -28.15q-8.55 -41.05 -40.2 -70.85q-0.55 -5.1 -2.15 -9.9q-2.35 -7.05 -6.85 -12.6q-6.35 -4.2 -14.2 -3.3q10.5 22.95 28.5 42.7q6.7 7.35 8.9 16.8q10.4 44.5 -18.75 79.5q-13.1 -15.65 -26.6 -30.9q-2.55 0.05 -3.55 2.45q-1.85 4.5 -1.95 9.55q0.5 0.65 0.85 0.55q1.55 -0.35 2.15 -2.05q12.05 12.85 22.65 27.55q-16.6 16.85 -40.05 15.65q-16.2 -0.85 -19.05 -16.65q-10.5 -58.45 -7 -118.25q2.35 -41.25 43.45 -44.75q3.1 -0.1 5.75 1.65q-2 7.35 1.2 14.35q12.6 59.6 -2.2 117.8q-4.5 17.55 -19.8 19.95q-5.65 -9.6 -5.75 -21q-0.55 -59.5 2.15 -118.45q0.45 -9.8 -3.9 -13.5q-5.05 59.35 0.7 118.55q1.15 11.65 10.2 16.9q4.05 2.35 7.1 -0.75q21.2 -21.85 24.9 -52.45q7.2 -60.3 -6.5 -117.9q-6.45 7.15 -4 18.7<g id="3050" transform="matrix(1, 0, 0, 1, -42.5, 0)">
<path style="fill:#000000;fill-opacity:1" d="M497.9,191.25Q498 217.7 488.55 242.65Q479.1 267.8 460.1 284.75Q479.95 335.95 491 390.9L493.8 404.05Q502.65 444.3 513.5 483.75Q514.8 488.5 511.95 492.45Q505.4 485.05 502.15 472.55Q487.35 415.55 475 357.5Q467.55 322.25 455.65 288.5Q447.15 295.2 436.95 300.5Q426.95 285.1 448.2 275.35Q466.6 266.85 476.3 249.3Q507.45 193.1 482.25 133.7Q473.65 113.4 455.65 101.35Q445.85 94.75 434.35 95.35Q430.65 148.05 431.05 202.5Q431.5 262.45 426.1 321.6Q422.05 365.7 420.4 410.25L418.1 472.25Q417.65 483.45 412.95 493.2Q405.25 485.6 407.95 471.5Q412.85 445.9 413.15 419.2Q413.45 389.15 416.95 359.3Q423.85 300.5 423.85 240.75Q423.8 181.1 426.3 122.2Q426.9 108.25 430.55 95.7L430.2 95.75Q429.2 94.4 429.1 92.75Q429.05 91.2 429.45 89.75L429.7 89Q431.6 87.75 433.65 86.85L434.75 84.15Q434.85 84 435.2 84L435.05 86.25Q440.65 84 446.95 84.25Q478.5 98.5 489.05 133Q497.8 161.55 497.9 191.25M373.2,82.5L373.95 83.25Q376.5 135.2 381.25 187.9L383.45 188Q387.5 191.8 386.8 197.75Q386.4 200.8 385.2 203.75L384.6 204.25Q383.35 204.8 382.7 204.05L390.65 288.8Q390.7 289.5 390.2 290.25Q382.5 283.95 381.4 270.1L376.9 210.7L376.4 203.85Q361.8 206.25 347.25 205.35Q343.85 218.7 340.1 232.05Q332.6 258.9 323.95 283.25Q317.75 269.8 323.4 253.6Q332.35 228 339.65 202.05L339.5 201Q339.15 197.15 341.45 194.5L341.75 194.5Q349.25 166.7 354.9 138.45Q360.95 108.25 369.95 80.5L371 82.9L372.2 81.75L373.2 82.5M365.8,116.9Q359.4 155.4 350.25 193.35Q363 191.4 375.25 188.2L369 104.5Q366.85 110.45 365.8 116.9M374.95,310.25L380.4 310.75Q381.2 310.85 381.95 311.25Q394.55 319.15 396.75 333.7Q397.25 336.75 396.2 339.75L386.85 329.1Q384.15 325.9 380.45 324Q376.1 323.5 372.3 325.4L371.7 326Q363.75 359.25 360.25 393.65Q376.25 390 390.95 382.95L394.45 383.2Q399.75 388.75 398.2 396.7Q397.85 398.55 396.45 399.7L395.4 400.25Q393.75 400.65 392.7 399.2Q376.4 407.3 359.15 406.25L358.25 420.4Q357.15 442.05 359.25 463.9Q359.95 471.4 360.2 478.95L360.75 479.7L361.45 480.45L362.2 481.2L369.2 481.95Q381 474.1 387.55 461.5Q388.4 459.85 390.45 459.7L391.45 459.65Q392.1 459.7 392.6 460.1L393.2 460.7Q393 487.3 368.2 498.05Q365.45 499.2 362.2 499.2Q348.45 478.7 350.3 451.85Q354.2 396.15 360.4 340.9Q362.25 324.2 371.45 311.25L371.95 311.05L374.95 310.35L374.95 310.25M306.45,83Q316.25 89.05 317.75 100.9Q318.3 105.1 315.45 107.25Q313.4 105.15 312.35 102.3Q310.75 97.85 306.7 95.5Q264.35 99.5 258.7 142.55Q254.95 171.1 252 199.8Q247.8 240.6 246.15 281.8Q279.6 279.1 310.95 266.5Q317.85 271.8 313.5 281L313.2 281.75Q280.75 294.4 245.75 293.1Q245.35 305.3 245.2 317.5Q244.4 377.6 248.45 436.8Q250.35 465.15 272.2 481.95Q281.7 489.3 293 485.4Q302.35 482.1 310.35 476Q327.85 462.65 335.45 443.2L335.7 442.85L338.25 442.8Q338.7 442.35 339.45 442.2Q345.6 466.15 323.4 484.85Q311.05 495.2 296.45 501.8Q278.3 509.9 264 494.95Q247.1 477.2 244.15 452.2Q237.35 393.55 238.1 333.75Q238.35 313 239.15 292.3Q236.25 288.2 238.05 283L238.45 282.25L239.55 282.2Q241.05 248.2 244 214.5Q247.95 170.1 256.95 126.7Q264.45 90.65 298.95 82.75L306.45 83M109.45,76.75Q115.55 77.95 120.15 82.95Q128.95 92.35 126.2 103.5Q106.2 81.95 85.75 102.8Q68.75 120.2 62.1 143.55Q48.75 190.65 50.4 239.2Q50.9 254.35 57.1 268.2Q58.85 272.15 62.25 274.55Q64.1 275.85 66.5 275.9Q77.8 276.65 88.4 273Q111.95 264.8 132.2 251Q134 273.3 112.9 282.6Q92.35 291.6 70.35 289.8Q50.1 288.2 46.3 266.85Q42.5 245.35 43.55 223.6Q44.6 202.35 48.3 181.65Q51.95 161.4 57.45 141.25Q63.4 119.25 74.35 99.3Q84.3 81.05 103.95 76L109.45 76.75M161.45,82.25Q162.45 111 160.6 141.55L153.5 260Q153.1 266.85 151.95 273.5Q179.6 272.8 208.45 275.25Q214.45 283.6 208.95 292.5Q177.85 288.1 148.2 293.5Q146.3 294.65 144.95 292.75L151.45 174.95Q153.65 136.25 156.4 97.75Q157.05 88.25 161.45 82.25M108.15,310.3L108.95 311Q113.45 316.55 115.8 323.6Q117.4 328.4 117.95 333.5Q149.6 363.3 158.15 404.35Q161.1 418.45 158.8 432.5Q153.9 462.35 136.55 483.5L148 497.7Q158.8 511.35 175.85 503.75Q185.55 499.45 190.45 490.95Q198.55 510.75 174.6 518Q150.4 525.25 136.9 502.85L129.5 491.2Q119.85 500.7 107.2 508.15Q77.4 525.7 61.9 497.3Q56.15 486.7 54.85 474.75Q48.6 416.55 51.75 357.75Q53.7 320.75 87.3 309Q90.9 307.75 93.95 307Q101.8 306.1 108.15 310.3M110.2,322.25L106.7 320.4Q104.05 318.65 100.95 318.75Q59.85 322.25 57.5 363.5Q54 423.3 64.5 481.75Q67.35 497.55 83.55 498.4Q107 499.6 123.6 482.75Q113 468.05 100.95 455.2Q100.35 456.9 98.8 457.25Q98.45 457.35 97.95 456.7Q98.05 451.65 99.9 447.15Q100.9 444.75 103.45 444.7Q116.95 459.95 130.05 475.6Q159.2 440.6 148.8 396.1Q146.6 386.65 139.9 379.3Q121.9 359.55 111.4 336.6Q108.2 329.6 110.2 322.25M208.45,310Q222.15 367.6 214.95 427.9Q211.25 458.5 190.05 480.35Q187 483.45 182.95 481.1Q173.9 475.85 172.75 464.2Q167 405 172.05 345.65L174.95 313.5Q179.3 317.2 178.85 327Q176.15 385.95 176.7 445.45Q176.8 456.85 182.45 466.45Q197.75 464.05 202.25 446.5Q217.05 388.3 204.45 328.7Q202 317.15 208.45 310" />
</g>
</svg>
