<?xml version="1.0" encoding="utf-8"?>
<svg version="1.1" id="Layer_1"
xmlns="http://www.w3.org/2000/svg"
xmlns:xlink="http://www.w3.org/1999/xlink"


xml:space="preserve">
q-0.1 -0.15 -0.4 -0.15q-29.45 43.6 -46.15 94.3q-4.7 14.2 -11.05 27.7q-8 16.95 -17.05 33.1q-7.65 13.7 -14.7 27.7q-4.8 9.45 -6.25 20q1.5 -107.2 -7.4 -213.3q-0.1 24.35 -2.05 48.7q-0.75 9.55 1.75 18.8q11.55 -58.9 7.05 -119.2q18.9 76.75 42.75 152.1q4.6 14.5 10.7 28.55q5.85 13.55 14 25.9q5.45 -7.3 2.75 -16.7q-30.55 -66.3 -48.1 -138.5q-3.45 -14.2 -8.65 -27.85q-5.05 -13.35 -11.6 -26.05q18.8 -52.7 43.85 -102.4q5.2 -10.3 11.1 -19.85q1.8 -4.85 -1.45 -8.85q-7 33.7 -40.65 42.5q-15.85 3.95 -20.85 -10.55q-4.6 -13.4 -5.7 -27.4q-0.45 -5.8 -0.25 -11.65q1.65 -43.3 2.05 -86.65q20.4 -5.8 41.35 -0.45q4.15 -4.95 1.1 -10.95q-20.1 -6.5 -40.75 0.5q-7.75 -71.6 21.45 -135.65q5.2 -11.35 17.55 -10.3q10.35 0.55 18.75 6.95q-0.75 -24.25 -27.35 -16.6q-20.6 5.8 -26.6 28.4q-4.85 18.25 -5.95 37.25q-1.1 20.4 -1.45 40.75q-0.55 18.75 -0.8 37.5q-0.25 18.75 2.95 37.25q4.4 25.35 30.35 23.65q21.6 -1.4 34.95 -19.2q12.65 -16.85 9.3 -37.7q-35.3 34.65 -31.65 87q1.7 24.25 -0.8 48.75q-5.85 57.1 3.25 113.25q0.85 5.1 4.95 9q3 1.45 6.55 2.1q26.5 -7.8 35 -33.7q2.2 -6.65 -0.8 -13q-1.35 16.7 -19.6 26.5q-11.85 6.3 -25.25 5.25q-17.3 -32.55 -11.55 -73.45q3.25 -22.85 4.75 -45.9q3.3 -5.6 0 -11.05q-17.3 -5.7 -35.5 -4q-8.7 -56.75 22.5 -103.3q5.8 -8.65 16.55 -5.45q4.05 1.25 7.95 3.25q-0.45 -18.8 -20.5 -17q-24.95 40.95 -44.35 84q-12.85 71.85 -2.85 146.1q6.75 -17.1 5.4 -40.3q0.3 43.9 17.75 82.95q-5.1 -45.65 -13.65 -90.85q13 -15.1 9.95 -33.5q-6.35 -8.25 -16.3 -11.4q-3.05 4.45 0 9q2.6 33.7 18.95 57.05q-3.55 -29.95 -16.05 -58q17.4 -14.65 11.25 -36.9q23.25 13.55 3.35 28.85q-4.6 3.5 -10.8 4.85q-17.8 -22.45 -50 -16.5q-20.9 6.7 -28 27.65q-17 50.1 -15 104.6q2.15 59.75 5.1 119.25q1.9 37.35 15.45 72.3q5.4 13.85 19.4 17.35q34.5 8.6 58.5 -19.1q13.15 -15.2 3.5 -27.85q-1.1 11.95 -13.15 22.2q-17.5 14.85 -39.65 12q-16.9 -2.2 -21.75 -18.35q-14 -46.35 -16.1 -95.55q-2.55 -58.5 -1.15 -117q0.25 -12.15 0.75 -24.1q1.4 -33.7 25.6 -55.4q38.05 -13.25 60.7 12.25q2.95 -6.85 -1.7 -12.75q-2.85 15.45 -3.6 33.7q-2.35 59.3 -2.55 119.25q-0.1 15 -1.55 29.85q-1.7 16.95 3.95 29.4q26.25 0.5 52 4.75q2.3 -2.3 2.3 -5.75q0 -1.9 -0.35 -3.7q-0.4 -1.95 -2.1 -3q-3.05 0.1 -5.95 1q1.65 -9.7 1.15 -20.2q-2.75 -60.05 1.85 -119.15q2.4 -30.45 -2.8 -59.25q2.35 59.45 0.5 119.15q-0.95 31.25 5.65 59q0.9 -0.6 0.9 -1.25q1.6 -43.45 1.8 -87.75q0.3 -60 -4.2 -118.45q-5.3 12.5 -4.65 29.3q-18.6 -16.3 -35.05 1.8q-14.35 15.85 -18.95 37.05q-4.65 21.3 -1.05 42.85q3.9 23.45 26.05 31.85q22 8.4 38.35 -10.4q22.15 17.6 48.75 21.2q5.5 0.55 9.5 -3.5q4.65 -4.65 6.1 -11.2q4.6 -4.1 4.7 -10.35q0.05 -4.55 -2.45 -8.4q-25.65 3.75 -45.7 -13.05q-1.6 -1.35 -3.2 -2.6q11.75 -28.3 3.4 -58.1q-5.35 -19.05 -18.8 -33.45q-0.4 -0.4 -1.1 -0.45q13.05 16.5 17.55 36.6q4.85 21.8 -6.25 40.95q-2.5 1.15 -5 2.25q2.65 0.85 5.1 2q7.55 3.4 13.95 8.25q-11.1 9.55 -25.15 6.65q-19.85 -3.9 -25.2 -24.1q-9.2 -34.8 12.95 -64.1q10.7 -14.2 27.6 -8.7q3.7 1.35 7.25 3q-29.75 14 -33.45 48.3q-1.6 15.1 2 29.85q4.85 19.75 23.5 24.55q20.9 5.35 34 -12.05q2.95 -4 4.2 -8.65q-18.55 5.8 -38.45 7.1q-7.25 0.65 -11.55 -6.2q-7 -11.1 -8 -24.15q22.3 -9.85 47.4 -8.85q2.4 -3.65 1.65 -8q-0.4 -2.3 -1.8 -4.4q-23.95 -3.3 -43.2 11.15q2.9 -30.55 30.7 -36.1q5.65 -1.15 11.25 0.45q2.25 -3.7 2.05 -8q-0.2 -3.8 -2.65 -6.55q-1.6 14.55 -1.15 30q0.85 30.1 -19.6 50.25q-2.35 -2.45 -3.45 -5.5q-6.25 -17.3 -4.85 -36.6q1.5 -21.2 1.05 -41.15q-6.25 7.25 -5.3 19.1q0.8 10.8 -1 21.4q-5.6 32.75 13.55 57.25q13.9 -10.25 18.05 -26.85q5.45 -22.05 7.6 -44.75q1.4 -14.6 -6.15 -22.4<g id="3052" transform="matrix(1, 0, 0, 1, -3, 0)">
<path style="fill:#000000;fill-opacity:1" d="M475.45,67.25Q469.55 76.8 464.35 87.1Q439.3 136.8 420.5 189.5Q427.05 202.2 432.1 215.55Q437.3 229.2 440.75 243.4Q458.3 315.6 488.85 381.9L489.25 381.8L489.7 381.5Q492.4 390.9 486.95 398.2Q478.8 385.85 472.95 372.3Q466.85 358.25 462.25 343.75Q438.4 268.4 419.5 191.65L379.2 273.75L378 274.25Q382.5 334.55 370.95 393.45L368.85 386.55Q366.35 377.3 367.1 367.75Q369.05 343.4 369.15 319.05L370.45 51.75Q379.35 157.85 377.85 265.05L378.4 261.05Q379.85 250.5 384.65 241.05Q391.7 227.05 399.35 213.35Q408.4 197.2 416.4 180.25Q422.75 166.75 427.45 152.55Q444.15 101.85 473.6 58.25Q473.9 58.25 474 58.4Q477.25 62.4 475.45 67.25M335.2,345.45Q338.55 366.3 325.9 383.15Q312.55 400.95 290.95 402.35Q265 404.05 260.6 378.7Q257.4 360.2 257.65 341.45Q257.9 322.7 258.45 303.95L259.2 274.15L259.85 244.35L260.6 200.9Q260.95 180.55 262.05 160.15L264.3 119.8Q265.4 100.8 270.25 82.55Q276.25 59.95 296.85 54.15Q323.45 46.5 324.2 70.75Q315.8 64.35 305.45 63.8Q293.1 62.75 287.9 74.1Q258.7 138.15 266.45 209.75Q287.1 202.75 307.2 209.25L308.55 211.55Q311.6 217.55 307.45 222.5Q286.5 217.15 266.1 222.95L265.7 251.55Q265.3 294.9 263.65 338.2Q263.45 344.05 263.9 349.85Q265 363.85 269.6 377.25Q274.6 391.75 290.45 387.8Q324.1 379 331.1 345.3L330.2 343.2L335.2 345.45M200.95,47.75Q221 45.95 221.45 64.75Q217.55 62.75 213.5 61.5Q202.75 58.3 196.95 66.95Q165.75 113.5 174.45 170.25Q192.65 168.55 209.95 174.25L211.2 175.95Q214.5 181.4 211.2 187L173.4 180.15Q171.9 203.2 168.65 226.05Q162.9 266.95 180.2 299.5Q193.6 300.55 205.45 294.25Q223.7 284.45 225.05 267.75L229.45 266.75Q232.45 273.1 230.25 279.75Q221.75 305.65 195.25 313.45L188.4 313.95Q184.85 313.3 181.85 311.85L177.75 309.35L173.7 306Q169.6 302.1 168.75 297Q159.65 240.85 165.5 183.75Q168 159.25 166.3 135Q162.65 82.65 197.95 48L200.95 47.75M95.45,46.35Q98.5 64.75 85.5 79.85L76.1 98.65Q84.65 143.85 89.75 189.5Q72.3 150.45 72 106.55L51.05 144.8Q52.4 168 45.65 185.1Q35.65 110.85 48.5 39L50.65 128.75Q70.05 85.7 95 44.75L95.45 46.35M147.4,217Q153.55 239.25 136.15 253.9Q148.65 281.95 152.2 311.9Q135.85 288.55 133.25 254.85L123.3 255.35L119.3 310.4L116.7 308.5L119.45 210.5Q116.4 205.95 119.45 201.5L121.95 199.7L127.95 199.75Q137.9 202.9 144.25 211.15L146.4 214.45L147.4 217M122.85,210.9L123.5 244.2Q129.7 242.85 134.3 239.35Q154.2 224.05 130.95 210.5L122.85 210.9M99.7,224.5Q77.05 199 39 212.25Q14.8 233.95 13.4 267.65Q12.9 279.6 12.65 291.75Q11.25 350.25 13.8 408.75Q15.9 457.95 29.9 504.3Q34.75 520.45 51.65 522.65Q73.8 525.5 91.3 510.65Q103.35 500.4 104.45 488.45L104.45 489.2L104.45 490.7L104.45 491.1L105.85 490.1L106.95 489.45Q116.6 502.1 103.45 517.3Q79.45 545 44.95 536.4Q30.95 532.9 25.55 519.05Q12 484.1 10.1 446.75Q7.15 387.25 5 327.5Q3 273 20 222.9Q27.1 201.95 48 195.25Q80.2 189.3 98 211.75Q102.65 217.65 99.7 224.5M136,381.25Q131.4 440.35 134.15 500.4Q134.65 510.9 133 520.6Q135.9 519.7 138.95 519.6L138.95 519.45L176.5 523.3L182.95 523.7Q184.65 524.75 185.05 526.7L185.4 528.25Q185.75 530.05 185.75 531.95Q185.75 535.4 183.45 537.7Q157.7 533.45 131.45 532.95L130.65 532.1L130.35 531.55L129.45 534.2Q123.8 521.75 125.5 504.8Q126.95 489.95 127.05 474.95Q127.25 415 129.6 355.7Q130.35 337.45 133.2 322Q138.4 350.8 136 381.25M207.45,326Q211.95 384.45 211.65 444.45Q211.45 488.75 209.85 532.2Q209.85 532.85 208.95 533.45Q202.35 505.7 203.3 474.45Q205.15 414.75 202.8 355.3Q202.15 338.5 207.45 326M295.15,417Q308.6 431.4 313.95 450.45Q322.3 480.25 310.55 508.55Q312.15 509.8 313.75 511.15Q333.8 527.95 359.45 524.2L370.45 506.7Q372.95 510.55 372.9 515.1Q372.8 521.35 368.2 525.45Q366.75 532 362.1 536.65Q358.1 540.7 352.6 540.15Q326 536.55 303.85 518.95L301.3 521.85Q284.95 540.65 262.95 532.25Q240.8 523.85 236.9 500.4Q233.3 478.85 237.95 457.55Q242.55 436.35 256.9 420.5Q273.35 402.4 291.95 418.7L294.05 416.55Q294.75 416.6 295.15 417M284.95,422.95Q268.05 417.45 257.35 431.65Q235.2 460.95 244.4 495.75Q249.75 515.95 269.6 519.85Q283.65 522.75 294.75 513.2Q288.35 508.35 280.8 504.95Q278.35 503.8 275.7 502.95L275.95 494.7Q278.45 493.6 280.95 492.45L303.5 503.5Q314.6 484.35 309.75 462.55Q305.25 442.45 292.2 425.95Q288.65 424.3 284.95 422.95M439.35,427.65Q441.8 430.4 442 434.2Q442.2 438.5 439.95 442.2L438.45 437.95Q432.85 436.35 427.2 437.5Q399.4 443.05 396.5 473.6Q415.75 459.15 439.7 462.45L441.45 460.95L443.45 460.7Q444.85 462.8 445.25 465.1Q446 469.45 443.6 473.1Q418.5 472.1 396.2 481.95Q397.2 495 404.2 506.1Q408.5 512.95 415.75 512.3Q435.65 511 454.2 505.2Q452.95 509.85 450 513.85Q436.9 531.25 416 525.9Q397.35 521.1 392.5 501.35Q388.9 486.6 390.5 471.5Q394.2 437.2 423.95 423.2L439.35 427.65M378.1,443.85Q375.95 466.55 370.5 488.6Q366.35 505.2 352.45 515.45L344.45 515.45Q325.3 490.95 330.9 458.2Q332.7 447.6 331.9 436.8Q330.95 424.95 337.2 417.7Q337.65 437.65 336.15 458.85Q334.75 478.15 341 495.45Q342.1 498.5 344.45 500.95L351.2 501.7Q371.65 481.55 370.8 451.45Q370.35 436 371.95 421.45Q379.5 429.25 378.1 443.85" />
</g>
</svg>
