<?xml version="1.0" encoding="utf-8"?>
<svg version="1.1" id="Layer_1"
xmlns="http://www.w3.org/2000/svg"
xmlns:xlink="http://www.w3.org/1999/xlink"


xml:space="preserve">
q-7.55 -27.8 -27.8 -7.6q-13.5 13.45 -20.2 31.9q-7 19.25 -11.4 39.35q-4.1 18.75 -6.25 37.85q-1.65 14.65 -3.15 29.35q-1.55 14.75 -2.8 29.55q-2.05 20.6 0.95 41.1q2.95 20.3 14.6 37.2q14.2 20.5 33.95 2.75q16.25 -14.7 24.65 -34.95q7.15 -17.15 3.2 -35.45q-8.45 34.5 -36.75 57.15q-7.95 6.35 -17.1 3.15q-4.45 -1.55 -6.75 -6.05q-2.2 -4.2 -3.5 -8.85q-0.95 -4.45 -1.6 -8.9q-2.7 -18.3 -1 -36.8q2.75 -29.25 6.5 -58.25q24.35 3.75 46.6 -6.85q-0.05 -21.05 -27.4 -8.9q-8.75 3.85 -18 6.45q-0.6 -66.9 37.4 -119.3q9.3 -3.95 17.4 1.45q1.75 1.15 3.1 2.8q3 59.35 8.5 118.5q2.75 29.55 3.15 59.25q0.85 60.2 15.05 117.7q1.15 1.85 3.25 1.75q0.9 -0.6 1.1 -1.4q16.9 -58.1 26.05 -117.5q9 -58.75 15.95 -117.85q2.6 -22 5.9 -43.95q2.15 -13.95 -5 -21.75q-2.3 2.5 -2.6 5.95q-6 59.45 -14.7 118.6q-8.7 59.2 -23.6 117.25q-6.6 -25.2 -7.55 -51.45q-2.1 -59.55 -7.55 -118.6q-5.4 -59 -11.65 -117.65q-2.5 4.35 -2.2 10.75q-7.9 37.4 -18.25 76.4q-9.3 35.1 -21.05 69.5q-0.4 1.85 -0.1 3.75q-6.25 17.7 -13.15 35.25q-6.8 16.5 0.4 29.15q2.9 -5.9 4.95 -12.5q11.15 -36.1 23.1 -72.25q20.15 1.45 41 -1.15q4.3 59 8.05 117.9q0.9 14.3 9.05 20.85q-1.5 -36.3 -4.9 -73.6q3.2 -2.6 2.6 -6.75q-0.3 -2.2 -1.85 -3.75q-5.1 -59.25 -8.65 -117.75q3.9 41.55 7.2 83.2q-18.05 0.55 -35.75 3.05q12.75 -37.35 18.3 -75.2q0 9.05 0.85 18.3q-8.85 16.45 -28.9 22.95q-20.5 6.5 -41.75 8.2q-14.6 0.9 -23.85 -11.85q-11.45 -15.7 -13.05 -35q-1.7 -21.1 -1.65 -42.2q0 -12.65 0.6 -25.3q37.8 2.5 75.1 -4.15q4.75 -4.5 2.35 -10.2q-38.1 -3.05 -76.75 6.25q0.35 -51.1 24.95 -94.9q11.15 -19.9 28.8 -34.3q13.1 -10.55 25.2 0.2q4.4 3.85 4.65 9.85q5.15 -15.15 -6.5 -25.15q-5.25 -4.4 -12 -5.6q-22.9 9.8 -36.95 31.15q-10.85 16.5 -16.95 35.3q-21.7 66.7 -17.6 136.6q1.85 31.9 12.4 62.05q2.65 7.55 7.85 13.6q4.1 4.75 9.95 7.2q6.75 2.85 13.95 2.95q28.1 0.45 52.55 -14.9q1.25 -0.8 2.7 -1.35q3.3 -1.4 6.25 -3.35q3.2 -2 5.65 -4.95q4 -4.8 5.5 -10.75q1.45 -5.75 -0.45 -10.95q-1.25 49.45 -3.35 98.95q-2.5 59.45 -6.3 118.6q-1.6 23.25 0.75 44.35q3.55 -0.4 5.75 -3.25q3.4 -1.3 6.95 -0.85q4.65 -8.4 -1 -15.75q-38.1 -7.1 -74.25 -9q2.6 -60.1 2.95 -118.45q-4.9 4.95 -5.15 13.5q-10.95 -26.25 -38.1 -31.6q-28.4 18.1 -42.4 50.4q-21.3 49.25 -27.7 102.65q-6.75 56.55 -0.95 113.5q2.2 21.35 15.15 38.1q30.55 39.4 72.25 10.75q16.85 -11.55 19.65 -28.95q-0.45 -0.35 -1.1 -0.5q-5.55 1.4 -10.2 6.55q-14.15 15.85 -34.75 19.3q-22.9 3.8 -36.85 -13.95q-19.75 -25.05 -20 -58.1q-0.55 -58.45 9.4 -115q7.8 -44.35 32.4 -82.25q7.5 -11.55 18.45 -19.8q19 -14.3 32.05 5.8q5.4 4.1 10.5 9.05q3.05 2.95 3.75 6.95q2.35 -5.65 0.1 -11.15<g id="3040" transform="matrix(1, 0, 0, 1, -39.1, 0)">
<path style="fill:#000000;fill-opacity:1" d="M528.35,131.95Q520.25 126.55 510.95 130.5Q472.95 182.9 473.55 249.8Q482.8 247.2 491.55 243.35Q518.9 231.2 518.95 252.25Q496.7 262.85 472.35 259.1Q468.6 288.1 465.85 317.35Q464.15 335.85 466.85 354.15Q467.5 358.6 468.45 363.05L470.5 371.95L472.85 380.65Q474.15 385.3 476.35 389.5Q478.65 394 483.1 395.55Q492.25 398.75 500.2 392.4Q528.5 369.75 536.95 335.25Q540.9 353.55 533.75 370.7Q525.35 390.95 509.1 405.65Q489.35 423.4 475.15 402.9Q463.5 386 460.55 365.7Q457.55 345.2 459.6 324.6L462.35 295.15Q463.6 280.35 465.15 265.6Q466.65 250.9 468.3 236.25Q470.45 217.15 474.55 198.4Q478.95 178.3 485.95 159.05Q492.65 140.6 506.15 127.15Q526.4 106.95 533.95 134.75L531.7 138.5L531.45 134.75Q530.1 133.1 528.35 131.95M385.2,101Q391.45 159.65 396.85 218.65Q402.3 277.7 404.4 337.25Q405.35 363.5 411.95 388.7Q426.85 330.65 435.55 271.45Q444.25 212.3 450.25 152.85L454.35 112.45Q454.65 109 456.95 106.5Q464.1 114.3 461.95 128.25Q458.65 150.2 456.05 172.2Q449.1 231.3 440.1 290.05Q430.95 349.45 414.05 407.55Q413.85 408.35 412.95 408.95Q410.85 409.05 409.7 407.2Q395.5 349.7 394.65 289.5Q394.25 259.8 391.5 230.25Q386 171.1 383 111.75Q382.7 105.35 385.2 101M364.45,112.5Q368 171 373.1 230.25L374.9 251.05L376.4 251.4L377.7 252Q379.25 253.55 379.55 255.75Q380.15 259.9 376.95 262.5L375.95 262.65L383.65 348.65Q387.05 385.95 388.55 422.25L388.2 423.7Q380.05 417.15 379.15 402.85Q375.4 343.95 371.1 284.95L369.5 263.55Q348.65 266.15 328.5 264.7Q316.55 300.85 305.4 336.95Q303.35 343.55 300.45 349.45Q293.25 336.8 300.05 320.3L308.5 299.35Q315.4 281.8 321.65 264.1L314.7 263.25L314.35 261.7Q314.05 259.8 314.45 257.95L314.7 256.5L324.9 254.65Q336.65 220.25 345.95 185.15Q356.3 146.15 364.2 108.75L364.05 112.55L364.45 112.5M360.4,149Q354.85 186.85 342.1 224.2L332.2 253.55Q349.9 251.05 367.95 250.5L368.45 250.5Q365.15 208.85 361.25 167.3Q360.4 158.05 360.4 149M328.8,343.1Q330.7 348.3 329.25 354.05Q327.75 360 323.75 364.8Q321.3 367.75 318.1 369.75Q315.15 371.7 311.85 373.1Q310.4 373.65 309.15 374.45Q284.7 389.8 256.6 389.35Q249.4 389.25 242.65 386.4Q236.8 383.95 232.7 379.2Q227.5 373.15 224.85 365.6Q214.3 335.45 212.45 303.55Q208.35 233.65 230.05 166.95Q236.15 148.15 247 131.65Q261.05 110.3 283.95 100.5Q290.7 101.7 295.95 106.1Q307.6 116.1 302.45 131.25Q302.2 125.25 297.8 121.4Q285.7 110.65 272.6 121.2Q254.95 135.6 243.8 155.5Q219.2 199.3 218.85 250.4Q257.5 241.1 295.6 244.15L295.8 244.55Q298.2 250.25 293.45 254.75Q256.15 261.4 218.35 258.9Q217.75 271.55 217.75 284.2Q217.7 305.3 219.4 326.4Q221 345.7 232.45 361.4Q241.7 374.15 256.3 373.25Q277.55 371.55 298.05 365.05Q318.1 358.55 326.95 342.1L328.45 342.55L328.8 343.1M188.2,101.25Q187.85 159.6 185.25 219.7L179.95 338.3L177.2 399.7Q213.35 401.6 251.45 408.7Q257.1 416.05 252.45 424.45L183.9 416.6Q180.35 416.15 176.95 417.45Q174.75 420.3 171.2 420.7Q168.85 399.6 170.45 376.35L173.4 332.3Q177.2 273.15 179.7 213.7Q181.8 164.2 183.05 114.75Q183.3 106.2 188.2 101.25M153.95,137.75Q153.25 133.75 150.2 130.8Q145.1 125.85 139.7 121.75Q126.65 101.65 107.65 115.95Q96.7 124.2 89.2 135.75Q64.6 173.65 56.8 218Q46.85 274.55 47.4 333Q47.65 366.05 67.4 391.1Q81.35 408.85 104.25 405.05Q124.85 401.6 139 385.75Q143.65 380.6 149.2 379.2Q149.85 379.35 150.3 379.7L151.5 380.95L151.95 381.45Q149.15 398.85 132.3 410.4Q90.6 439.05 60.05 399.65Q47.1 382.9 44.9 361.55Q39.1 304.6 45.85 248.05Q52.25 194.65 73.55 145.4Q87.55 113.1 115.95 95Q143.1 100.35 154.05 126.6Q156.3 132.1 153.95 137.75" />
</g>
</svg>
