<?xml version="1.0" encoding="utf-8"?>
<svg version="1.1" id="Layer_1"
xmlns="http://www.w3.org/2000/svg"
xmlns:xlink="http://www.w3.org/1999/xlink"


xml:space="preserve">
q-3.9 5.3 -3.7 13.5q1.8 59.45 0.15 119.2q-0.45 15 -2.25 29.8q-2.1 16.9 4.05 29.45q3.4 -8.8 3.35 -18.75q-0.1 -27.35 1.4 -54.65q18.95 2.05 38.3 -1.4q3.6 -6.65 -0.65 -12.65q0.35 -36.8 -3 -73.05q35.9 2.4 71.4 2.15q2.65 -4.15 1.45 -9q-0.35 -0.4 -0.8 -0.45q-10.15 -1.6 -20.45 -2.3q-25.8 1.35 -51.45 4.2q-0.6 30.75 1.85 59.25q1.9 0.05 2.1 -1.75q3.65 -34.3 3.95 -69.75q0.55 -59.75 -1.05 -118.45q-4.3 3.95 -4.45 11.5q-1.3 29.75 -5 59.1q-2.05 16.45 3.15 29.85q5.1 -12 5.25 -26.75q0.4 -40.3 4.75 -80.1q4.85 -44.85 2.2 -88.6q-6.45 41.9 -9.2 85.8q-23.3 -0.45 -45.2 5.5q1.15 -47.35 1.45 -93.5q-5.8 20.95 -6.15 45q-0.8 59.3 -5.1 118.4q-1.25 16.9 4.5 29.3q3.55 -36.35 4.65 -74.25<g id="3239" transform="matrix(1, 0, 0, 1, -134.75, 0)">
<path style="fill:#000000;fill-opacity:1" d="M345.5,183.7Q371.15 180.85 396.95 179.5Q407.25 180.2 417.4 181.8Q417.85 181.85 418.2 182.25L418.7 183.75L419.15 185.25Q420.35 190.1 417.7 194.25Q382.2 194.5 346.3 192.1Q349.65 228.35 349.3 265.15L387.45 261.25Q391.7 267.25 388.1 273.9L387.45 274.7Q368.1 278.15 349.15 276.1L348.2 299.55Q346.7 326.85 346.8 354.2Q346.85 364.15 343.45 372.95Q337.3 360.4 339.4 343.5Q341.2 328.7 341.65 313.7Q343.3 253.95 341.5 194.5Q341.3 186.3 345.2 181L345.5 183.7M284.45,180.75Q286.05 239.45 285.5 299.2Q285.2 334.65 281.55 368.95Q281.35 370.75 279.45 370.7Q277 342.2 277.6 311.45L280 192.25Q280.15 184.7 284.45 180.75M145.15,294.95Q144.05 332.85 140.5 369.2Q134.75 356.8 136 339.9Q140.3 280.8 141.1 221.5Q141.45 197.45 147.25 176.5Q146.95 222.65 145.8 270Q167.7 264.05 191 264.5L194 264.8Q196.75 220.9 203.2 179Q205.85 222.75 201 267.6Q196.65 307.4 196.25 347.7Q196.1 362.45 191 374.45Q185.8 361.05 187.85 344.6Q191.55 315.25 192.85 285.5L193.25 277.45L145.6 279.25L145.15 294.95" />
</g>
</svg>
