<?xml version="1.0" encoding="utf-8"?>
<svg version="1.1" id="Layer_1"
xmlns="http://www.w3.org/2000/svg"
xmlns:xlink="http://www.w3.org/1999/xlink"


xml:space="preserve">
q-10.55 84.15 -3.05 166.9q0.15 1.6 0.8 3.2q7.35 -84.65 4.95 -169.85q3.9 -4.3 2.95 -10.3q-0.25 -1.55 -1.25 -2.85q1 -16.4 -2.2 -29.5q-0.5 0.3 -0.75 1.1q-3.05 10.45 -3.95 21.5q-4.85 59.5 -0.8 117.85q0.9 -0.35 0.9 -0.8q17 2.3 33.65 2.05q-0.75 23.45 -2.9 46.6q-1.6 17.4 4.5 29.05q4.5 -34.7 4.95 -71.25q0.75 -60 -1.45 -118.45q-5 10.55 -4.8 24.25q0.55 37.75 0.05 75.35q1.75 40.35 2.3 81.8q0.45 31.3 -12.6 58.65q-12.55 26.2 -39.8 27.8q-14.05 -6.45 -15.8 -21.8q-6.7 -58.55 -2.2 -117.65q1.25 -16.6 -3.25 -29q-3.4 51.4 -4.2 103.45q-0.2 14.45 -0.75 28.45q-1.35 33.45 24.7 51.8q26.65 0.85 42.4 -22.65q13.5 -20.25 16.25 -44.65q6.65 -60.1 -5.15 -117.9q-2 -0.2 -1.9 1.7q-3.95 37.75 -3.65 77.2q0.45 60.3 -0.55 119.2q1.1 0 1.45 -0.5q4.75 -7.25 4.95 -16.75q27.95 1.05 53.55 1.15q-1.65 29.85 -6.8 58.9q-2.95 16.55 2.2 30q8.35 -33.85 9.55 -70.95q0.65 -2.3 0.4 -4.85q1.05 -44 1 -87.15q-8.25 21.9 -6.8 48.75q0.95 17.25 0.6 34.4q0.3 -30.95 -3.2 -60<g id="3078" transform="matrix(1, 0, 0, 1, -139.75, 0)">
<path style="fill:#000000;fill-opacity:1" d="M394.4,192.45Q395.35 198.45 391.45 202.75L357.4 202.1Q359.8 287.3 352.45 371.95Q351.8 370.35 351.65 368.75Q344.15 286 354.7 201.85L321.3 195.9L322.45 186.5L327.95 185.85L393.15 189.6Q394.15 190.9 394.4 192.45M417.4,208.25Q417.2 194.55 422.2 184Q424.4 242.45 423.65 302.45Q423.2 339 418.7 373.7Q412.6 362.05 414.2 344.65Q416.35 321.5 417.1 298.05Q400.45 298.3 383.45 296L381.85 295.8L377.35 367.15Q377.35 367.6 376.45 367.95Q372.4 309.6 377.25 250.1Q378.15 239.05 381.2 228.6Q381.45 227.8 381.95 227.5Q385.15 240.6 384.15 257L382.65 282.4L417.45 283.6Q417.95 246 417.4 208.25M308.45,181.5Q320.25 239.3 313.6 299.4Q310.85 323.8 297.35 344.05Q281.6 367.55 254.95 366.7Q228.9 348.35 230.25 314.9Q230.8 300.9 231 286.45Q231.8 234.4 235.2 183Q239.7 195.4 238.45 212Q233.95 271.1 240.65 329.65Q242.4 345 256.45 351.45Q283.7 349.85 296.25 323.65Q309.3 296.3 308.85 265Q308.3 223.55 306.55 183.2Q306.45 181.3 308.45 181.5M144.5,178.25Q148 207.3 147.7 238.25L147.45 264.55L193 262.75L201.25 263.65Q201.6 246.5 200.65 229.25Q199.2 202.4 207.45 180.5Q207.5 223.65 206.45 267.65L206.7 269Q206.95 271.55 206.3 273.85L205.55 299Q204.35 336.1 196 369.95Q190.85 356.5 193.8 339.95Q198.95 310.9 200.6 281.05L200.85 276.45Q175.25 276.35 147.3 275.3L146.15 357.45Q145.95 366.95 141.2 374.2Q140.85 374.7 139.75 374.7Q140.75 315.8 140.3 255.5Q140 216.05 143.95 178.3L144.5 178.25" />
</g>
</svg>
