<?xml version="1.0" encoding="utf-8"?>
<svg version="1.1" id="Layer_1"
xmlns="http://www.w3.org/2000/svg"
xmlns:xlink="http://www.w3.org/1999/xlink"


xml:space="preserve">
q-7.2 15.35 -9 33.75q-5.8 59 -12.45 117.8q-6.45 56.55 -12.25 112.9q-1.45 -8.8 -3.75 -17.65q-14.9 -56.95 -22.55 -115.05q-0.75 5.15 -1.15 10.4q-1.45 -0.1 -1.85 1.45q-6.15 23.1 -9.2 47.1q-6.5 51.05 -11.1 101.6q-5.1 -54 -9.9 -107.9q-5.2 -59.05 -7.35 -118.55q-1.1 -30.5 -9.6 -58.45q0.6 17.5 2.45 38.25q3.9 44 6.65 88.4q3.7 59.25 8.25 118.55q1.15 15.05 1.25 30.05q0.15 16.45 6.65 28.45q1.55 -2 2.2 -4.3q1.8 -0.95 2.3 -4.2q8.9 -58.15 16.45 -116.8q1.6 -12.05 2.3 -23.7q-0.35 16.15 2.9 33.15q10.95 57.75 23.6 115.1q1.15 2.5 3.5 2q3.85 -15.55 4.95 -32.15q3.85 -59 9.65 -117.75q2.75 -29.4 8.85 -58q3.3 -15.45 1.55 -29.6q3.25 -24.35 28.9 -27.05q6.8 -0.65 12.8 2.65q0 -18.15 -18.15 -12.4q-28.8 9.25 -31.75 42.45q-2.3 26.35 17.15 39.75q9.1 6.3 19.9 3.25q18.95 -5.5 16.95 -22.4q-11.5 10.75 -28.2 10.5q-15.9 -0.25 -19 -19.15q-0.95 -5.85 -0.35 -12q13.35 3.8 26.75 0.25q1.7 -2.3 1.4 -5.2q-34.05 6.75 -40.6 42.65q-3.05 16.65 -5.25 33.65q-3.75 28.8 -4.45 58.7q-0.75 31.9 16.85 56.75q2.6 3.65 6.25 5.4q28.35 13.45 45.6 -13.05q20.95 -32.2 20.85 -71.85q-0.05 -29.6 -2.1 -58.6q-2.25 -31.9 -25.65 -51.15q-4.3 -2 -9.35 -1.8q23.15 55 13.6 115.15q-3.9 24.6 -21.95 41.2q-20.45 18.85 -39.25 0.8q-6.65 -6.4 -8.15 -15.5q-9.75 -58.75 1.95 -117.6q6.25 -31.4 36.9 -35.6q9.65 -1.15 14.5 6.8q1.45 2.4 2.4 4.75q-8.35 43.5 -7.8 89.9q0.7 57.05 1 114.15q-36.4 5.8 -71.85 13.9q0.45 -23.05 0.1 -46.15q-0.9 -59.85 1.2 -119.25q1.05 -30.55 -0.95 -59.25q-1.2 -0.25 -1.35 0.85q-4.9 35.75 -5 72.65q-0.2 59.15 0.6 118.5q0.8 60.15 -3.9 119.25q-4.75 59.35 -5.65 119.2q-0.15 11.25 -1.85 22.25q-2.7 17.4 5.15 29.5q3.3 -6.5 0.85 -13.45q1.05 -25.85 1.45 -51.75q0.9 -59.65 5.25 -118.55q2.35 -30.95 3.2 -62.05q34.8 -4.95 69.2 -10.9q-0.2 54.9 -5.05 109.1q-5.3 59.35 -9 119.2q-1.05 17 5.35 29.3q1.8 -1.4 1.85 -3.75q1 -28.1 3.35 -56.15q4.95 -59.1 7.5 -118.6q2.55 -59.2 1.9 -119.2q-0.6 -59.75 1.1 -119.25q0.9 -30.6 0.3 -59.25q3.4 -18.65 -15.6 -22.55q-26.25 39.45 -20.5 90.4q1.8 16 0.1 32.35q-1.95 19.25 3.05 37.85q1.95 7.2 4.6 14.2q1.95 5.15 6.7 7.3q11.45 5.2 22.95 -0.25q19.8 -9.3 17.2 -28.5q-0.2 -1.45 -1.55 -2.6q-6.65 22.75 -27.95 15.8q-10.75 -3.4 -12.35 -14.8q-1.35 -9.35 -0.9 -18.6q0.9 -19.75 0.75 -39.45q12.5 -0.5 25.65 -3.9q2.4 -4.2 0.55 -8.65q-13.15 1.35 -25.05 7.4q-7.3 -41.7 12.3 -77.65q-6.6 13.05 -8.2 27.6q-2.35 21 6.45 39.95q9.9 21.3 29.9 9.6q14.5 -8.45 19 -25.95q4.95 -19.45 0.6 -38.95q-1.05 -4.7 -4 -8.75q2.4 17.8 -1.4 34.9q-2.75 12.5 -12.1 21.35q-12.1 4.45 -20.1 -3.85q-11.85 -12.25 -9.65 -30q-19.25 -9.45 -38.6 1.7q-19.9 11.4 -24 33.85q-4.3 23.45 13.5 36.85q17.65 13.3 38.95 7.7q21.7 -5.7 28.35 -28.25q6.45 -21.8 -5.35 -41.55q-3.85 -6.5 -10.1 -10.55q18.2 16.7 8.3 38.75q-7.65 16.95 -27.15 19.45q-21.75 2.4 -32.65 -14.8q-11.25 -17.75 3.7 -32.65q13.35 -13.3 32.05 -15.5q-0.25 19.6 3.7 40.65q3.6 19.3 8.9 38.2q3.5 12.45 7.65 24.65q9.3 -29.8 11.7 -60.65q2.65 24.65 12.3 47.6q3.6 8.55 8.3 14.5q-1.75 -25.05 -16.15 -49.15q-5.45 -9.15 -4.15 -17.7q-7.2 10.95 -9.25 24q-1.7 10.75 -4.95 21.15q-0.7 2.3 -1.1 4.7q-7.75 -27.65 -12.25 -56q-2.6 -16.4 -8.45 -31.85q-3.1 15.55 2.3 27.3q2.9 -6.35 3.6 -13.5q2.05 -20.6 5.55 -41q4.75 -27.65 5.6 -54.25q-9.35 23.4 -12.25 50.2q-1.7 15.75 -4.8 31.25<g id="3072" transform="matrix(1, 0, 0, 1, -10, 0)">
<path style="fill:#000000;fill-opacity:1" d="M406.65,75.85Q400.55 104.45 397.8 133.85L392.05 193.3Q386.25 252.05 382.4 311.05Q381.3 327.65 377.45 343.2L376.85 341.65L376.7 346.7Q374.35 347.2 373.2 344.7Q360.55 287.35 349.6 229.6Q346.35 212.6 346.7 196.45Q346 208.1 344.4 220.15Q336.85 278.8 327.95 336.95Q327.45 340.2 325.65 341.15Q325 343.45 323.45 345.45Q316.95 333.45 316.8 317Q316.7 302 315.55 286.95Q311 227.65 307.3 168.4Q304.55 124 300.65 80Q298.8 59.25 298.2 41.75Q306.7 69.7 307.8 100.2Q309.95 159.7 315.15 218.75Q319.95 272.65 325.05 326.65Q329.65 276.1 336.15 225.05Q339.2 201.05 345.35 177.95Q345.75 176.4 347.2 176.5L347.05 188.4Q347.45 183.15 348.2 178Q355.85 236.1 370.75 293.05Q373.05 301.9 374.5 310.7Q380.3 254.35 386.75 197.8Q393.4 139 399.2 80Q401 61.6 408.2 46.25Q409.95 60.4 406.65 75.85M412.95,192.7L435.2 192.25L436.3 194.45L436.85 196.55Q437.15 199.45 435.45 201.75Q422.05 205.3 408.7 201.5L408.25 199.25Q407.65 205.4 408.6 211.25Q411.7 230.15 427.6 230.4Q444.3 230.65 455.8 219.9Q457.8 236.8 438.85 242.3Q428.05 245.35 418.95 239.05Q399.5 225.65 401.8 199.3Q404.75 166.1 433.55 156.85Q451.7 151.1 451.7 169.25Q445.7 165.95 438.9 166.6Q413.25 169.3 410 193.65L412.95 192.7M264.3,42.05L266.45 42.75Q289.85 62 292.1 93.9Q294.15 122.9 294.2 152.5Q294.3 192.15 273.35 224.35Q256.1 250.85 227.75 237.4Q224.1 235.65 221.5 232Q203.9 207.15 204.65 175.25Q205.35 145.35 209.1 116.55Q211.3 99.55 214.35 82.9Q220.9 47 254.95 40.25Q260 40.05 264.3 42.05M270.2,59.05Q265.35 51.1 255.7 52.25Q225.05 56.45 218.8 87.85Q207.1 146.7 216.85 205.45Q218.35 214.55 225 220.95Q243.8 239 264.25 220.15Q282.3 203.55 286.2 178.95Q295.75 118.8 272.6 63.8Q271.65 61.45 270.2 59.05M187.45,36Q188.05 64.65 187.15 95.25Q185.45 154.75 186.05 214.5Q186.7 274.5 184.15 333.7Q181.6 393.2 176.65 452.3Q174.3 480.35 173.3 508.45Q173.25 510.8 171.45 512.2Q165.05 499.9 166.1 482.9Q169.8 423.05 175.1 363.7Q179.95 309.5 180.15 254.6Q145.75 260.55 110.95 265.5L107.85 264.85Q107 295.95 104.65 326.9Q100.3 385.8 99.4 445.45Q99 471.35 97.95 497.2Q100.4 504.15 97.1 510.65L96.45 511.45Q88.6 499.35 91.3 481.95Q93 470.95 93.15 459.7Q94.05 399.85 98.8 340.5Q103.5 281.4 102.7 221.25Q101.9 161.9 102.1 102.75Q102.2 65.85 107.1 30.1Q107.25 29 108.45 29.25Q110.45 57.95 109.4 88.5Q107.3 147.9 108.2 207.75Q108.55 230.85 108.1 253.9Q143.55 245.8 179.95 240L180.15 240.15Q179.85 183.05 179.15 126Q178.6 79.6 186.95 36.1L187.45 36M295.95,260.5L282.7 255.75Q263.1 291.7 270.4 333.4Q282.3 327.35 295.45 326L296.75 328.6Q298.6 333.05 296.2 337.25Q283.05 340.65 270.55 341.15Q270.7 360.85 269.8 380.6Q269.35 389.85 270.7 399.2Q272.3 410.6 283.05 414Q304.35 420.95 311 398.2L315.5 395.5Q316.85 396.65 317.05 398.1Q319.65 417.3 299.85 426.6Q288.35 432.05 276.9 426.85Q272.15 424.7 270.2 419.55Q267.55 412.55 265.6 405.35Q260.6 386.75 262.55 367.5Q264.25 351.15 262.45 335.15Q256.7 284.2 282.95 244.75L285.6 245.2Q304.6 249.1 301.2 267.75L295.95 260.5M197.95,381.85Q195.75 399.6 207.6 411.85Q215.6 420.15 227.7 415.7Q237.05 406.85 239.8 394.35Q243.6 377.25 241.2 359.45L239.9 359.65L241.2 357.7L242.95 350.2Q245.9 354.25 246.95 358.95Q251.3 378.45 246.35 397.9Q241.85 415.4 227.35 423.85Q207.35 435.55 197.45 414.25Q188.65 395.3 191 374.3Q192.6 359.75 199.2 346.7L197.95 381.85M281.55,440.5Q293.35 460.25 286.9 482.05Q280.25 504.6 258.55 510.3Q237.25 515.9 219.6 502.6Q201.8 489.2 206.1 465.75Q210.2 443.3 230.1 431.9Q249.45 420.75 268.7 430.2L271.45 429.95Q277.7 434 281.55 440.5M252.95,437.2Q234.25 439.4 220.9 452.7Q205.95 467.6 217.2 485.35Q228.1 502.55 249.85 500.15Q269.35 497.65 277 480.7Q286.9 458.65 268.7 441.95L262.2 448.05L266.95 440.45L252.95 437.2M18.7,444.55Q23.2 472.9 30.95 500.55Q31.35 498.15 32.05 495.85Q35.3 485.45 37 474.7Q39.05 461.65 46.25 450.7Q44.95 459.25 50.4 468.4Q64.8 492.5 66.55 517.55Q61.85 511.6 58.25 503.05Q48.6 480.1 45.95 455.45Q43.55 486.3 34.25 516.1L32.25 512.4L30.5 516.2Q26.35 504 22.85 491.55Q17.55 472.65 13.95 453.35Q10 432.3 10.25 412.7Q16.1 428.15 18.7 444.55M73,460.9Q75.9 434.1 85.25 410.7Q84.4 437.3 79.65 464.95Q76.15 485.35 74.1 505.95Q73.4 513.1 70.5 519.45Q65.1 507.7 68.2 492.15Q71.3 476.65 73 460.9" />
</g>
</svg>
