<?xml version="1.0" encoding="utf-8"?>
<svg version="1.1" id="Layer_1"
xmlns="http://www.w3.org/2000/svg"
xmlns:xlink="http://www.w3.org/1999/xlink"


xml:space="preserve">
q-25.95 44.55 -27.45 96.5q-1.35 46.7 -1.3 93.55q16.15 -3.7 33.05 -4.3q4.3 6.55 1.4 14.2q0.5 59.65 0.25 119.2q-0.1 22 7.55 42.15q4.2 11.05 16.65 9.85q25.95 -23.15 34 -57.75q0.85 -3.7 3 -6.75q7.7 6.5 3.65 18.8q-9.8 29.9 -30.3 53.7q-4.3 4.95 -9.6 9q-26.25 -2.3 -28.25 -30.05q-3.35 -47.65 -4.05 -95.95q-0.8 -59 -0.1 -117.7q0.45 -37.5 2.45 -74.3q3 -55.9 34.4 -101.05q1.5 -2.2 3.8 -2.9q29.25 8.4 33.4 40.5q0.45 3.6 -1.15 6.75q-4.35 -27.7 -30.05 -31.9q-2.6 -0.45 -4.25 2.4q2.5 29.35 2.75 59.4q0.35 42.2 -16.45 80.35q-4.85 11.05 -13.3 19.4q-3.4 2.5 -7 4.2q15.1 52.85 26.15 107.5q4.35 21.6 9.15 43.05q7.5 33.6 12.15 66.85q0.35 2.55 -1.95 3.6q-8.05 -11.85 -11.1 -28.5q-10.75 -58 -24 -115.6q-8.7 -37.9 -13.05 -75.75q-6.6 2.55 -13.7 2.45q-2.3 59.4 -6.15 118.65q-2.05 31.7 -9.8 61.95q-4.75 -19.1 -1.4 -40.7q0.85 3.95 0.55 8.25q5.85 -58 9.35 -116.95q0.55 -10.85 3.7 -19.75q-0.3 -2.35 0.45 -4.5q6.4 -2.85 13.25 -2.75q25.05 10 27.5 38.85q-8.55 -4.65 -17.95 -4.8q-0.55 54.3 -5.85 109.3q-3.4 35.4 -5.6 71.05q13.25 -4.25 25.25 -12.1q21.95 -36.85 22.15 -81q0.2 -38.65 -11.35 -74.45q-1.7 -5.3 -6.65 -8q3.65 -5.4 5.75 -11.25q5 12.85 0.35 28.95q-4.1 14.1 -6 28.75q-7.65 58.8 -14.85 117.75q-1.2 10 -4.25 19.55q-6.35 -7.25 -7.05 -19.95q-1.9 -32.15 -7.2 -63.8q-3.7 39.25 -15.45 78.85q-7.25 -57.5 -15.55 -115.35q-5.7 -39.55 -7.95 -77.15q11.35 56 18.95 115q3.65 28.25 6.3 56.5q7.75 -45.05 13.55 -90.45q0.1 -0.8 0.7 -1.55q4.35 22.25 7.35 47.3q8.4 -56.3 15.55 -114.25q3.35 -27.3 6.95 -50q-0.45 2.15 -2.35 1.85q2.05 0.3 3.85 1.3q14.1 44.05 19.9 90.6q7.3 58.65 3.5 117.95q-3.85 59.65 -15.9 117.85q-9 43.55 -36.15 76.2q-2.05 2.5 -5.35 2.6q-29 14.6 -44.65 -11.2q-6.9 -11.25 -8.5 -24.45q-7.05 -58.1 -5.05 -117.1q1.5 -44.2 0.55 -88.45q-1.3 -59.05 7.35 -116.4q3.2 -20.85 14.95 -38.05q11.6 -16.9 30.85 -22.8q18.15 -1.45 30.75 11q-0.25 -0.25 -0.65 -0.35q-2.25 -6.15 -7.2 -10.55q-7.2 -6.4 -16.55 -7.45q-41.8 4 -48.6 44.9q-9.75 58.4 -8.2 118.6q1.5 59.7 -0.25 119.2q-1.55 52.4 13.45 100.75q1.3 4.05 4.85 7q39.1 8.4 53.05 -27.4q22.3 -57.15 27.45 -117.75q5.1 -59.65 0.75 -119.25q-3.9 -54.1 -16.5 -106.55q1.75 29 -0.5 59.35q-2.2 29.95 -2.6 59.9q-0.8 59.8 -4.15 119.2q-3.4 59.35 -7.85 118.55q-2.5 33.25 -6.45 65.95q-0.2 1.75 -1.95 2q-4.95 -13.2 -3.3 -29.85q6.1 -59.5 10.8 -119.15q2.85 -35.75 4.45 -71.65q-32.35 -5.5 -66.8 -4.15q-2 59.4 -6 118.5q-0.25 3.85 -3.1 5.7q-5.4 -13.45 -3.7 -29.9q6.1 -58.8 7.7 -118.3q1.6 -59.6 3.75 -119.25q2.15 -59.25 3.7 -118.5q0.55 -19.7 7 -35.25q1.5 28.8 -0.3 59.35q-3.55 59.2 -5.3 118.4q2.1 -0.95 4.3 -1.35q8.05 -1.6 16.2 -0.15q23.4 0.55 45.7 5.95q1.2 -58.95 3.4 -117.75q0.8 -21.8 6.7 -39.75q8.1 57.95 8.45 117.7q0.25 42.95 2.55 86.25q10.1 -47.75 14.75 -96.75q6.45 8.15 7.75 21.4q1.2 12.9 3.45 25.8q3.5 20.45 7.8 40.8q4 -58.2 6.9 -117.2q1.55 -32.4 4.85 -64.5q-2.75 -3.15 -2.5 -5.5q2.2 -0.55 4.75 -5.25q3.55 28.95 0.3 59.4q-3.2 29.5 -4.1 59.05q-1.6 52.15 -9.2 101.75q-9.5 -42.5 -17.5 -86.75q-5.4 45.35 -18.5 90.75q-6.35 -28 -6.2 -59q0.2 -59.05 -2.95 -118.4q-1.3 -24.85 -1.25 -49.3q0 -0.45 0.65 -0.25<g id="3086" transform="matrix(1, 0, 0, 1, -18.55, 0)">
<path style="fill:#000000;fill-opacity:1" d="M496.15,72.75Q470.2 117.3 468.7 169.25Q467.35 215.95 467.4 262.8Q483.55 259.1 500.45 258.5Q504.75 265.05 501.85 272.7L501.45 273.5L467.45 275L467.5 287.75Q468 347.4 467.75 406.95Q467.65 428.95 475.3 449.1Q479.5 460.15 491.95 458.95Q517.9 435.8 525.95 401.2Q526.8 397.5 528.95 394.45Q536.65 400.95 532.6 413.25Q522.8 443.15 502.3 466.95Q498 471.9 492.7 475.95Q466.45 473.65 464.45 445.9Q461.1 398.25 460.4 349.95Q459.6 290.95 460.3 232.25Q460.75 194.75 462.75 157.95Q465.75 102.05 497.15 56.9Q498.65 54.7 500.95 54Q530.2 62.4 534.35 94.5Q534.8 98.1 533.2 101.25L532.35 101.8L530.45 102.25Q526.1 74.55 500.4 70.35Q497.8 69.9 496.15 72.75M438.45,98.1Q440.95 127.45 441.2 157.5Q441.55 199.7 424.75 237.85Q419.9 248.9 411.45 257.25Q408.05 259.75 404.45 261.45Q419.55 314.3 430.6 368.95Q434.95 390.55 439.75 412Q447.25 445.6 451.9 478.85Q452.25 481.4 449.95 482.45Q441.9 470.6 438.85 453.95Q428.1 395.95 414.85 338.35Q406.15 300.45 401.8 262.6Q395.2 265.15 388.1 265.05L386.55 297.9Q384.25 357.3 380.4 416.55Q378.35 448.25 370.6 478.5L369.45 479.45Q364.7 460.35 368.05 438.75L369.95 425.45Q370.8 429.4 370.5 433.7L370.45 434.45Q376.3 376.45 379.8 317.5L386.9 199.05L392 117.9L393.65 88.7Q394.2 77.85 397.35 68.95L397 67.25Q396.7 64.9 397.45 62.75L397.7 62Q404.1 59.15 410.95 59.25Q436 69.25 438.45 98.1M418.35,75.05Q409.8 70.4 400.4 70.25Q399.85 124.55 394.55 179.55Q391.15 214.95 388.95 250.6Q402.2 246.35 414.2 238.5Q436.15 201.65 436.35 157.5Q436.55 118.85 425 83.05Q423.3 77.75 418.35 75.05M377.7,75.5Q381.35 70.1 383.45 64.25Q388.45 77.1 383.8 93.2Q379.7 107.3 377.8 121.95Q370.15 180.75 362.95 239.7Q361.75 249.7 358.7 259.25Q352.35 252 351.65 239.3Q349.75 207.15 344.45 175.5Q340.75 214.75 329 254.35L328.45 254.5Q321.2 197 312.9 139.15Q307.2 99.6 304.95 62Q316.3 118 323.9 177Q327.55 205.25 330.2 233.5Q337.95 188.45 343.75 143.05Q343.85 142.25 344.45 141.5Q348.8 163.75 351.8 188.8L357.45 238.25Q365.85 181.95 373 124Q376.35 96.7 379.95 74Q379.5 76.15 377.6 75.85L377.7 75.5M277.45,69.25L278.9 69.1Q280.95 69.4 282.75 70.4L284.45 71.25Q298.55 115.3 304.35 161.85Q311.65 220.5 307.85 279.8Q304 339.45 291.95 397.65Q282.95 441.2 255.8 473.85Q253.75 476.35 250.45 476.45Q221.45 491.05 205.8 465.25Q198.9 454 197.3 440.8Q190.25 382.7 192.25 323.7Q193.75 279.5 192.8 235.25Q191.5 176.2 200.15 118.85Q203.35 98 215.1 80.8Q226.7 63.9 245.95 58Q264.1 56.55 276.7 69L277.45 69.25M281.6,90.85Q281.35 90.6 280.95 90.5L279.7 90Q277.45 83.85 272.5 79.45Q265.3 73.05 255.95 72Q214.15 76 207.35 116.9Q197.6 175.3 199.15 235.5Q200.65 295.2 198.9 354.7Q197.35 407.1 212.35 455.45Q213.65 459.5 217.2 462.45Q256.3 470.85 270.25 435.05Q292.55 377.9 297.7 317.3Q302.8 257.65 298.45 198.05Q294.55 143.95 281.95 91.5L281.6 90.85M180.45,56Q182.2 85 179.95 115.35Q177.75 145.3 177.35 175.25Q176.55 235.05 173.2 294.45Q169.8 353.8 165.35 413Q162.85 446.25 158.9 478.95Q158.7 480.7 156.95 480.95Q152 467.75 153.65 451.1Q159.75 391.6 164.45 331.95Q167.3 296.2 168.9 260.3Q136.55 254.8 102.1 256.15L99.1 350.25Q97.1 409.65 93.1 468.75Q92.85 472.6 90 474.45Q84.6 461 86.3 444.55Q92.4 385.75 94 326.25Q95.6 266.65 97.75 207Q99.9 147.75 101.45 88.5Q102 68.8 108.45 53.25Q109.95 82.05 108.15 112.6Q104.6 171.8 102.85 231L102.45 244.25Q104.55 243.3 106.75 242.9Q114.8 241.3 122.95 242.75Q146.35 243.3 168.65 248.7L169.35 248.9L170.35 213.5Q171.55 154.55 173.75 95.75Q174.55 73.95 180.45 56M19.25,248.5Q27.35 306.45 27.7 366.2Q27.95 409.15 30.25 452.45Q40.35 404.7 45 355.7Q51.45 363.85 52.75 377.1Q53.95 390 56.2 402.9Q59.7 423.35 64 443.7Q68 385.5 70.9 326.5Q72.45 294.1 75.75 262Q73 258.85 73.25 256.5Q75.45 255.95 78 251.25Q81.55 280.2 78.3 310.65Q75.1 340.15 74.2 369.7Q72.6 421.85 65 471.45Q55.5 428.95 47.5 384.7Q42.1 430.05 29 475.45Q22.65 447.45 22.8 416.45Q23 357.4 19.85 298.05Q18.55 273.2 18.6 248.75Q18.6 248.3 19.25 248.5" />
</g>
</svg>
