<?xml version="1.0" encoding="utf-8"?>
<svg version="1.1" id="Layer_1"
xmlns="http://www.w3.org/2000/svg"
xmlns:xlink="http://www.w3.org/1999/xlink"


xml:space="preserve">
q-4.5 29.45 -4.3 61.45q-0.85 4.15 0.4 7q0.25 1.45 1.5 1.9q1.65 1.7 4.55 2.65q14.8 4.8 30.2 2.1q22.25 -3.85 31.35 -25q5.85 -13.7 5.85 -29.4q0.05 -38.5 -30.95 -53.6q10.45 -10.7 11 -29.1q1.3 -42.25 -40 -55.5q-4.55 -1.1 -8.1 0.8q-0.35 1.45 -0.4 3q-0.55 22.25 -22.45 28.15q-9 2.5 -18.3 4.4q18.2 13.75 17.65 35.4q11.7 17.9 3.7 37.25q-8.75 21.3 -32.1 25.2q-13.8 2.1 -27.25 -1.9q1.95 -39.5 5.05 -74.4q18.9 4.75 29.45 21q-1.35 39.6 -2.55 79.25q-24.05 -0.5 -46.85 5.45q-0.05 -18.65 1.6 -37.1q2.7 -30.65 -0.25 -59.35q-5.9 36.55 -6.15 74.95q-0.45 59.2 -0.3 117.7q0.75 1.6 2.5 2q6.05 -36.4 3.85 -75.55q29.05 -1.1 59.05 -1.65q-0.45 15 -1.95 29.85q-1.75 16.75 4.25 29.9q1.55 -0.35 1.6 -2q1.15 -33.8 2.75 -68.2q2.75 -60.05 0.9 -118.5q-3.65 3.45 -3.85 9.7q2.15 -6.1 2.45 -12.7q-0.95 -59.65 0.85 -119.2q0.9 -30.6 -3.25 -59.25q-3.7 17.1 -3.75 37q-0.05 7.5 -1.45 14.75q-2.75 14.05 5.15 21.75<g id="3235" transform="matrix(1, 0, 0, 1, -140.35, 0)">
<path style="fill:#000000;fill-opacity:1" d="M342.95,186.25Q343 184.7 343.35 183.25L343.65 182.4L344.2 179.25L344.35 181.55Q347.9 179.65 352.45 180.75Q393.75 194 392.45 236.25Q391.9 254.65 381.45 265.35Q412.45 280.45 412.4 318.95Q412.4 334.65 406.55 348.35Q397.45 369.5 375.2 373.35Q359.8 376.05 345 371.25Q342.1 370.3 340.45 368.6Q339.2 368.15 338.95 366.7L338.95 366.4Q337.7 363.55 338.55 359.4L338.95 358.1L338.65 248.25Q338.45 216.25 342.95 186.8L342.95 186.25M369.45,198.75L344.75 190.2L346.35 266.7Q355.65 264.8 364.65 262.3Q386.55 256.4 387.1 234.15Q387.65 212.5 369.45 198.75M369.1,273.8L347.95 280.95Q344.85 315.85 342.9 355.35Q356.35 359.35 370.15 357.25Q393.5 353.35 402.25 332.05Q410.25 312.7 398.55 294.8Q388 278.55 369.1 273.8M212.2,181Q214.05 239.45 211.3 299.5Q209.7 333.9 208.55 367.7Q208.5 369.35 206.95 369.7Q200.95 356.55 202.7 339.8Q204.2 324.95 204.65 309.95L205.4 284.05Q175.4 284.6 146.35 285.7L146.85 296.9Q149.05 336.05 143 372.45Q141.25 372.05 140.5 370.45Q140.35 311.95 140.8 252.75Q141.05 214.35 146.95 177.8L147.5 177.75Q150.45 206.45 147.75 237.1Q146.1 255.55 146.15 274.2Q168.95 268.25 193 268.75L205.8 269.95Q207 230.3 208.35 190.7Q208.55 184.45 212.2 181M281.7,373.2Q273.8 365.5 276.55 351.45Q277.95 344.2 278 336.7L278.45 217.5Q278.5 197.6 282.2 180.5Q286.35 209.15 285.45 239.75Q283.65 299.3 284.6 358.95L284.7 359.7Q284.4 366.3 282.25 372.4L281.7 373.2" />
</g>
</svg>
