<?xml version="1.0" encoding="utf-8"?>
<svg version="1.1" id="Layer_1"
xmlns="http://www.w3.org/2000/svg"
xmlns:xlink="http://www.w3.org/1999/xlink"


xml:space="preserve">
q-6.3 1.55 -11.5 6.25q-4.7 4.25 -7.35 10.2q-16.3 37.05 -18.45 78q-3.1 59.45 0.1 119.3q3.1 58.75 3.6 117.7q0.15 28.3 21.65 44.25q8.75 1.85 15.25 -3.95q8.8 -7.85 14.2 -18.3q10.2 -19.7 5.8 -39q-1.1 0.55 -2.05 1.35q-5.85 22.3 -26.15 24.75q-3.4 -1.95 -4.35 -5.2q-11.7 -38.3 -11.55 -79.7q0.15 -44.35 -1.6 -88.5q13.05 4.05 27 2.8q1.8 -3.05 1.35 -6.65q-0.3 -2.4 -1.6 -4.45q-0.6 -0.4 -1.2 -0.35q-13.85 1.6 -27.1 -0.75q-3.25 -59.45 3.8 -117.85q2.4 -19.7 12.25 -36.65q14.55 -25 33.2 -6q2.55 -3.2 1.8 -7.45q-1.55 -8.75 -9.55 -13.55q16.95 19.5 9.15 43.9q-5.35 16.8 -18.95 28.25q-0.6 1 -0.75 2.25q-0.15 1.45 0.2 2.8q-2.4 8.5 -2.65 18.2q-1.5 59.25 -3.65 118.5q-0.6 15.05 -3.25 29.7q-3.05 16.85 2.35 29.5q1.1 -1.3 1.3 -3q4.6 -42 5.85 -84.75q5.65 25.2 9.1 50.9q4.05 30.5 15.35 56.75q0.95 -0.95 0.8 -2.15q-7.4 -54.7 -22.25 -108.5q11 -11.85 15.35 -27.8q9.5 -34.45 -14.15 -58q-4.15 0.2 -8.1 1.3q-14 -15.8 -32.75 -9.95q-2.5 0.85 -3.85 2.6q-7.35 25.95 -5.5 53.45q1.05 15.85 -0.2 31.75q-1.2 15.7 -1.8 32.05q-0.65 16.9 -4.55 33.3q-3.25 13.65 3.3 25.7q7.5 -39.25 8.65 -79.95q13.7 0.1 25.55 -6.1q-2.15 15.3 3.65 30.2q2.95 7.55 4.7 15.6q5.75 26.4 18.6 48.35q-5.45 -36.25 -17.6 -73.05q-3.75 -11.45 -7.1 -23.05q12.5 -11.15 16.2 -27.55q2 -16.35 -4.1 -31.5q-2.4 -6 -6.8 -11q-0.8 59.6 -3.1 119.25q-2.35 59.5 -3.8 119.25q-1.45 59.15 -2.65 118.45q-0.25 12.25 6.35 17.25q2.55 -42.4 2.45 -86.25q-0.2 -59.65 1.65 -119.2q1.85 -59.8 4.3 -119.3q0.95 -22.5 3.3 -44.8q1.75 -16.85 -2.95 -29.9q-5.35 11.1 -5.55 25.25q22.8 -4.65 34.55 13.95q12.4 19.65 3.2 40.7q-3.8 8.65 -10.95 15.05q-8.05 39.9 -9.15 81.65q-1.6 57.05 -0.4 114.45q-19.95 0.35 -40.2 -1.2q-15.85 1.95 -31.85 0.7q-0.1 -24.75 0.05 -49.55q0.05 -15.05 1.3 -29.9q4.95 -59.85 0.25 -118.6q-4.65 13.8 -4.9 31.5q-1.05 59.75 -0.2 119.25q0.8 59.95 -4.75 119.1q-1 10.5 5.6 13.6q3.55 -7.35 3.9 -15.7q2.6 -59.35 1.55 -119.25q-0.55 -29.7 -0.75 -59.4q7.4 3.2 15.85 2.05q13.4 -1.85 26.5 1.05q18.5 4.2 33.15 -0.2q1.1 55.35 0.55 110.95q-0.3 29.65 -2.2 59.15q-0.9 14.05 6.15 21.6q4.1 -51.1 3.5 -103.5q-0.65 -59.6 -2.3 -119.2q-1.6 -59.75 2.8 -119.2q2.25 -30.5 1.25 -59.3q-0.5 0.1 -0.5 0.35q-1.85 35.9 -3.55 72q-2.8 59.1 -3.2 118.5q0.9 2.65 3.5 2q2.1 -40.5 3.85 -81.3q9.65 2.1 19.8 -0.15q2.35 1.2 2.6 -1.5q3.1 -39.3 3.85 -79.5q1.15 -60.15 -0.95 -119.2q-4.5 39.15 -4.65 80.95q-5.8 0.3 -11.1 2q2.2 -56.7 2.35 -112.45q-2.95 3.5 -3.25 9.2q-31 73.75 -23.8 158.3q0.7 8.2 2.6 16.1q0.75 3.05 1.8 6.05q3.15 7.3 7.65 13.85q14.05 -4.3 14.25 -17.35q0.05 -2.2 -1 -4.3q-7.25 7.25 -17.25 10q-15.5 -53.85 -10.3 -111.9q1.05 -11.9 2.95 -23.9q0.75 -4.65 1.8 -9.25q1 -4.5 2.35 -8.9q4.1 -13.6 11.25 -25.7q-4 -8.8 -13.8 -8.45q-1.35 25.4 2.5 48q4.7 -31.05 -2.7 -58.7q-8.6 2.15 -17 5.5q-0.25 0.75 -0.35 1.55q-0.4 2.3 0.35 4.45q7.9 1.45 16.5 -1.5<g id="3248" transform="matrix(1, 0, 0, 1, -59.65, 0)">
<path style="fill:#000000;fill-opacity:1" d="M332.2,69.55L335.45 70Q343.45 74.8 345 83.55Q345.75 87.8 343.2 91Q324.55 72 310 97Q300.15 113.95 297.75 133.65Q290.7 192.05 293.95 251.5L294.9 270.4Q308.15 272.75 322 271.15Q322.6 271.1 323.2 271.5Q324.5 273.55 324.8 275.95L324.9 276.75Q325.35 280.35 323.55 283.4L322.45 285Q308.5 286.25 295.45 282.2L295.4 282.2Q297.15 326.35 297 370.7Q296.85 412.1 308.55 450.4Q309.5 453.65 312.9 455.6L314.95 456.95Q335.25 454.5 341.1 432.2L345.7 414.7L346.5 414Q347.45 413.2 348.55 412.65L349.45 412.45Q353.85 431.75 343.65 451.45Q338.25 461.9 329.45 469.75Q322.95 475.55 314.2 473.7Q292.7 457.75 292.55 429.45L292.35 400.2Q291.85 341.25 288.75 282.5Q285.55 222.65 288.65 163.2Q290.8 122.25 307.1 85.2Q309.75 79.25 314.45 75Q319.65 70.3 325.95 68.75L332.2 69.55M367.85,281.2L365.65 352.9Q379.25 341.45 384.6 324.65Q392.4 300.25 375.45 280.75L367.85 281.2M366.5,273.3L368.2 269.25L368.1 272.8Q372.05 271.7 376.2 271.5Q399.85 295.05 390.35 329.5Q386 345.45 375 357.3Q389.85 411.1 397.25 465.8Q397.4 467 396.45 467.95Q385.15 441.7 381.1 411.2Q377.65 385.5 372 360.3L366.95 364.7L365.35 362.7L364.6 386.95Q363.35 429.7 358.75 471.7Q358.55 473.4 357.45 474.7Q352.05 462.05 355.1 445.2Q357.75 430.55 358.35 415.5Q360.5 356.25 362 297Q362.25 287.3 364.65 278.8Q364.3 277.45 364.45 276Q364.6 274.75 365.2 273.75L366.5 273.3M260,92.5Q266.1 107.65 264.1 124L262.95 130.55Q259.25 146.95 246.75 158.1Q250.1 169.7 253.85 181.15Q266 217.95 271.45 254.2Q258.6 232.25 252.85 205.85Q251.1 197.8 248.15 190.25Q242.35 175.35 244.5 160.05L241.9 161.7Q230.05 167.9 216.35 167.8Q215.2 208.5 207.7 247.75Q201.15 235.7 204.4 222.05Q208.3 205.65 208.95 188.75Q209.55 172.4 210.75 156.7Q212 140.8 210.95 124.95Q209.1 97.45 216.45 71.5L216.6 74.15Q217.95 72.4 220.45 71.55Q239.2 65.7 253.2 81.5Q257.6 86.5 260 92.5M191.95,68.75Q196.65 81.8 194.9 98.65Q192.55 120.95 191.6 143.45Q189.15 202.95 187.3 262.75Q185.45 322.3 185.65 381.95Q185.75 425.8 183.2 468.2Q176.6 463.2 176.85 450.95Q178.05 391.65 179.5 332.5Q180.95 272.75 183.3 213.25Q185.6 153.6 186.4 94Q186.6 79.85 191.95 68.75M254.65,135.2Q263.85 114.15 251.45 94.5Q239.7 75.9 216.9 80.55L216.95 155.6L243.7 150.25Q250.85 143.85 254.65 135.2M156.2,65.25Q157.2 94.05 154.95 124.55Q150.55 184 152.15 243.75Q153.8 303.35 154.45 362.95Q155.05 415.35 150.95 466.45Q143.9 458.9 144.8 444.85Q146.7 415.35 147 385.7Q147.55 330.1 146.45 274.75Q131.8 279.15 113.3 274.95Q100.2 272.05 86.8 273.9Q78.35 275.05 70.95 271.85Q71.15 301.55 71.7 331.25Q72.75 391.15 70.15 450.5Q69.8 458.85 66.25 466.2Q59.65 463.1 60.65 452.6Q66.2 393.45 65.4 333.5Q64.55 274 65.6 214.25L67.6 95Q67.85 77.3 72.5 63.5Q77.2 122.25 72.25 182.1Q71 196.95 70.95 212Q70.8 236.8 70.9 261.55L74.1 261.2Q90.1 262.45 105.95 260.5Q126.2 262.05 146.15 261.7Q144.95 204.3 146.55 147.25Q147.65 105.5 155.7 65.6Q155.7 65.35 156.2 65.25M258.2,266.5Q258.05 322.25 255.85 378.95Q261.15 377.25 266.95 376.95L275.2 377.55L275.4 377.6L275.55 350.95Q275.7 309.15 280.2 270Q282.3 329.05 281.15 389.2Q280.4 429.4 277.3 468.7Q277.05 471.4 274.7 470.2L275.35 386.75Q265.2 389 255.55 386.9Q253.8 427.7 251.7 468.2Q249.1 468.85 248.2 466.2Q248.6 406.8 251.4 347.7Q253.1 311.6 254.95 275.7Q255.25 270 258.2 266.5M220.75,261.9Q230.55 261.55 234.55 270.35L234.4 278.2L230.45 273.95L226.95 271.25L219.25 270.95L219 271.3Q211.85 283.4 207.75 297Q206.4 301.4 205.4 305.9Q204.35 310.5 203.6 315.15Q201.7 327.15 200.65 339.05Q195.45 397.1 210.95 450.95Q220.95 448.2 228.2 440.95Q229.25 443.05 229.2 445.25Q229 458.3 214.95 462.6L209.45 462.2Q204.95 455.65 201.8 448.35L199.55 442.45Q198.5 439.45 197.75 436.4Q195.85 428.5 195.15 420.3Q187.95 335.75 218.95 262L220.75 261.9M232.45,415.45Q223.85 418.4 215.95 416.95Q215.2 414.8 215.6 412.5Q215.7 411.7 215.95 410.95Q224.35 407.6 232.95 405.45Q240.35 433.1 235.65 464.15L235.2 464.95Q231.35 442.35 232.7 416.95L232.45 415.45" />
</g>
</svg>
