<?xml version="1.0" encoding="utf-8"?>
<svg version="1.1" id="Layer_1"
xmlns="http://www.w3.org/2000/svg"
xmlns:xlink="http://www.w3.org/1999/xlink"


xml:space="preserve">
q-14.5 55.25 -20.95 112.9q-6.65 59.35 -14 118.6q-7.15 57.95 -13.9 115.75q-7.7 -58.85 -15.75 -117.6q-1.45 -10.3 -7.8 -13.4q-5.45 26.75 -8.2 54.6q-5.8 58.55 -15.55 115.1q-0.9 -58.25 -4.75 -116.15q-2.95 -44.25 -4.75 -88.65q-2.4 -59.45 -16.25 -116.15q-3.6 2.95 -2 8.5q9.35 33.2 10.75 68.2q2.35 59.4 6.95 118.6q4.6 58.85 3.8 118.4q-0.4 30.6 5.75 58.5q1 -0.35 1.15 -0.95q8.45 -35.65 13.75 -72.4q8.35 -57.85 14.35 -115.6q6.55 59.25 18.5 116.15q5.45 -2.8 6.25 -9.6q6.9 -59.35 14.15 -118.6q6.3 -51.6 15.35 -102.7q-1.15 -6.4 1 -13.45q0.8 -2.55 2.3 -4.6q2.6 -7.9 -1.95 -14.4q-1 0.35 -1.15 0.95q0.75 -13.35 -4.35 -22.1q-4.25 12.8 -4 28.5q0.8 59.55 -3.65 118.5q-5.85 58.95 -8.2 118.65q-1.2 30.15 -5.7 59.85q-2.45 16.35 2.3 30.15q33.6 -1.95 66 5.75q1.8 -0.95 2.6 -2.8q1.95 -4.35 -0.35 -8q-3.5 -5.7 -5.95 -11.7q2.45 -21.2 3.5 -42.7q2.9 -59.4 7 -118.6q4.05 -59.25 6.45 -118.5q1.25 -29.9 2.9 -59.8q-3.8 -48.45 -32.35 -87.65q-12.35 -23.55 -40.5 -25.25q-28.45 20.6 -39.35 53.95q-18.3 56.2 -18.95 115.3q-0.7 59.25 -0.95 118.45q-0.2 46.45 16.75 87.75q8.05 7.55 17.4 13.05q7.75 4.5 16.6 1.5q31.6 -10.7 46.55 -40.65q27.55 -55.05 35.4 -116q7.6 -59 2.9 -118.7q-4.9 57.1 -3.95 115.45q0.45 30.45 0.55 60.85q-0.35 -0.4 -0.75 -0.45q-25.15 -2.95 -50 -3.05q-20.9 -3 -39.6 2.75q0.6 -59.45 2.45 -118.5q0.45 -15.15 4 -29.6q4.15 -16.8 -2.3 -29.15q-8.45 36.55 -8.4 76.75q0.05 59.7 -0.65 119.25q-0.7 59.95 -4.25 119.25q-0.9 14.9 -2.6 29.75q-1.95 17.05 5.4 28.7q4.2 -8.8 3.65 -19.55q-1.5 -28.65 -0.3 -57q2.3 -55.35 2.95 -110.75q-0.65 59.9 -5.75 119.1q-1.5 17.6 5.45 29.1q0.65 -0.75 0.8 -1.6q2.55 -12 3.15 -24.55q2.7 -59.35 2.9 -119.3q0.2 -59.45 -0.1 -119.25q-0.25 -60.05 -2.25 -118.5q-0.5 0.1 -0.5 0.3q13.4 18.05 18.3 39.15q13.45 57.8 8.25 117.5q-5.25 59.55 -27.85 115.2q-12.45 30.65 -39.5 49.35q-15.35 10.65 -29.9 -0.25q-20.9 -15.65 -21.95 -42.6q-2.3 -59.15 -3.8 -118.5q-1.5 -59.95 8.65 -118q8.5 -48.5 47.75 -76.25q16.55 -0.15 29.25 10.25q2.55 13.05 10.8 24.15<g id="3089" transform="matrix(1, 0, 0, 1, -63.15, 0)">
<path style="fill:#000000;fill-opacity:1" d="M460.45,97.75Q465 104.25 462.4 112.15Q460.9 114.2 460.1 116.75Q457.95 123.8 459.1 130.2Q450.05 181.3 443.75 232.9Q436.5 292.15 429.6 351.5L415.7 470.85Q414.9 477.65 409.45 480.45Q397.5 423.55 390.95 364.3L381.7 279.5Q375.7 337.25 367.35 395.1Q362.05 431.85 353.6 467.5Q353.45 468.1 352.45 468.45Q346.3 440.55 346.7 409.95Q347.5 350.4 342.9 291.55Q338.3 232.35 335.95 172.95Q334.55 137.95 325.2 104.75Q323.6 99.2 327.2 96.25L328.2 97L328.95 97.75Q342.8 154.45 345.2 213.9Q347 258.3 349.95 302.55Q353.8 360.45 354.7 418.7Q364.45 362.15 370.25 303.6Q373 275.75 378.45 249Q384.8 252.1 386.25 262.4Q394.3 321.15 402 380L410.45 445.95Q417.2 388.15 424.35 330.2Q431.7 270.95 438.35 211.6Q444.8 153.95 459.3 98.7Q459.45 98.1 460.45 97.75M482.4,177.9Q480 237.15 475.95 296.4Q471.85 355.6 468.95 415Q467.9 436.5 465.45 457.7L522.2 463.95L520.25 460.8L521.75 460.95Q524.2 466.95 527.7 472.65Q530 476.3 528.05 480.65Q527.25 482.5 525.45 483.45Q493.05 475.75 459.45 477.7Q454.7 463.9 457.15 447.55Q461.65 417.85 462.85 387.7Q465.2 328 471.05 269.05L473.3 243Q477.75 184.05 476.95 124.5Q476.7 108.8 480.95 96Q486.05 104.75 485.3 118.1Q483.65 148 482.4 177.9M331.4,328.35Q323.55 389.3 296 444.35Q281.05 474.3 249.45 485Q240.6 488 232.85 483.5Q223.5 478 215.45 470.45Q198.5 429.15 198.7 382.7Q198.95 323.5 199.65 264.25Q200.3 205.15 218.6 148.95Q229.5 115.6 257.95 95L260.95 94.6L261.95 94.25Q290.1 95.95 302.45 119.5L303.2 119.75L303.7 119.75L302.15 121.45L301.95 122Q330.5 161.2 334.3 209.65Q339 269.35 331.4 328.35M171.2,94.5Q173.2 152.95 173.45 213Q173.75 272.8 173.55 332.25Q173.35 392.2 170.65 451.55Q170.05 464.1 167.5 476.1Q167.35 476.95 166.7 477.7Q159.75 466.2 161.25 448.6Q166.35 389.4 167 329.5L167.3 282.9L167.2 283L76.8 279.4Q76.15 334.8 73.85 390.15Q72.65 418.5 74.15 447.15Q74.7 457.9 70.5 466.7Q63.15 455.05 65.1 438Q66.8 423.15 67.7 408.25Q71.25 348.95 71.95 289Q72.65 229.45 72.6 169.75Q72.55 129.55 81 93Q87.45 105.35 83.3 122.15Q79.75 136.6 79.3 151.75Q77.45 210.8 76.85 270.25Q95.55 264.5 116.45 267.5Q141.3 267.6 166.45 270.55Q166.85 270.6 167.2 271L167.3 271.1Q167.2 240.7 166.75 210.25Q165.8 151.9 170.7 94.8Q170.7 94.6 171.2 94.5M290.2,118.5Q277.5 108.1 260.95 108.25Q221.7 136 213.2 184.5Q203.05 242.55 204.55 302.5Q206.05 361.85 208.35 421Q209.4 447.95 230.3 463.6Q244.85 474.5 260.2 463.85Q287.25 445.15 299.7 414.5Q322.3 358.85 327.55 299.3Q332.75 239.6 319.3 181.8Q314.4 160.7 301 142.65Q292.75 131.55 290.2 118.5" />
</g>
</svg>
