<?xml version="1.0" encoding="utf-8"?>
<svg version="1.1" id="Layer_1"
xmlns="http://www.w3.org/2000/svg"
xmlns:xlink="http://www.w3.org/1999/xlink"


xml:space="preserve">
q-18.85 -46.1 -69.45 -43.3q-1.15 0.3 -1.7 1.75q-1.05 2.9 -0.7 6q0.25 1.9 1.15 3.6q-4 21.4 -3.4 43.95q1.55 59.7 2.15 119.25q0.55 59.9 3.8 119.25q3.2 59.4 4.85 119.2q0.4 14.9 -2.7 29.7q-1.5 7.25 -1.2 13.95q-2.4 2 -2.9 5.2q-1.75 11.35 9.45 13.25q12.25 2 24.75 -2.3q24 -8.3 37.7 -30.4q22.05 -35.6 28.2 -77.5q8.6 -58.45 5.8 -118.7q-2.75 -59.5 -13.6 -117.6q-8.25 -44 -25.2 -85.6q3.55 -11.55 -6.9 -17.45q-17.7 -0.85 -21.3 16.1q-12.4 58.25 -11.15 119.15q1.25 59.5 -2.4 119.1q-2.55 41.9 16.6 76.6q3.6 0.5 6.65 -0.65q27.5 -10.25 23.8 -37.95q-7.9 21.8 -29.8 24.1q-2.2 0.25 -3.35 -1.1q-11.7 -13.7 -12.2 -33.25q-1.3 -52 -1.9 -104.25q15.4 2.85 30.85 0.3q2.7 -5.65 -0.85 -10.4q-15.65 0.55 -30.6 2.7q0.05 -48.4 2.95 -96.45q0.8 -13.7 2.2 -27.2q2.25 -21.95 22.95 -22.8q1.95 1.75 3.5 3.75q0.15 2.6 2.55 2q20.85 17.4 30.35 43.65q20.95 57.65 27.3 118.85q6.05 58.25 3.8 117.8q-1.1 29.2 -5.3 57.95q-5.8 40 -28 73.3q-7.5 9.25 -17.1 15.7q-16.05 10.8 -33.05 11.15q2.55 -48.4 0.5 -97.35q-2.55 -59.75 -4.1 -119.2q-1.55 -59.85 -3.45 -119.3q-1.8 -55.75 -2 -109.9q6.15 2 11.1 6.15q5.25 -37.35 5 -75q-9.15 22.05 -9.6 47.7q-0.1 9.8 1.15 19.6q2.5 -4.6 0.65 -9.75q0.2 -24.65 -19.05 -8q-7.75 6.75 -2.1 15.35q7.55 11.5 13.85 23.9q4.7 9.1 -1.7 17.7q-8.05 3.8 -15.25 -1q-7.25 6.8 -2.1 18.95q35.35 8.85 24.5 -30.6q-4.05 -14.8 -16.75 -24.1q2.75 -11.9 14.05 -8.5q-8.45 22.15 -16.5 44.65q-12 -19.25 -21.25 -39.75q-5.6 4.55 -7.3 12.75q-1.4 6.9 -3.9 13.2q-6.25 16 -0.55 27.3q6.7 22.85 22.5 39.25q7.6 -13.2 12.4 -28q5 -15.3 3.1 -29.75q-0.25 0 -0.25 0.1q5.55 -15.85 0.75 -29.75q-4.9 6.85 -6.2 15.75q-3.95 -14 -4.2 -28.5q-0.25 -11.45 -6.05 -15.75q-3.5 25.25 -10.7 49.5q-1.4 -11.7 -2 -23.35q-3.05 -59.7 -14.5 -116.9q-4 9.85 -2.15 22.5q8.75 58.45 11.05 117.55q0.5 13.65 8.1 20.2q7.95 -18.55 11.5 -38.75q4.3 17.5 6.75 35.25q0.65 1.6 2.25 2q0.9 -0.65 1.05 -1.4q11.15 -55.15 17.85 -111.55q0.9 -7.6 3.35 -14.55q-11.6 -29.1 -34.9 -5.95q-16.8 16.6 -10.5 39.45q7.05 25.35 32.7 19.1q18.05 -4.4 24.95 -21.45q-20.4 9.4 -41.65 7.8q-8.65 -1.05 -13.6 -9.05q19 4.6 38.05 -2.9q-17.5 -3.5 -35.45 -0.6q11.45 -30.7 40.05 -13.6q-26.7 13.3 -34.6 42.8q-8.85 33 -11.45 68.35q-4.35 58.75 -2.25 118.55q2.1 59.2 13.75 116.95q4.6 22.6 18.45 40.25q14.25 18.15 30 2.9q23.95 -23.15 33.45 -55.25q16.75 -56.75 15.6 -116.55q-1.2 -59.55 -11.85 -117.7q-9.75 -53.1 -34.6 -99.8q-1.8 0.25 -3.4 1.15q-0.75 -0.4 -1.5 -0.5q21.3 55.35 28.5 114.4q7.2 59.1 2.8 118.75q-4.55 61.45 -42.9 108.05q-3.35 4.05 -8.45 4.1q-23.5 0.05 -30.05 -25.1q-14.9 -56.95 -17.65 -116.35q-2.75 -59.7 2.75 -118.6q1.4 -15 1.3 -29.9q-0.4 -50.35 38.65 -78.75q9.3 -2.45 14.45 4.35q6.65 8.75 10.6 19.05q-5.5 34.5 -5.5 72.25q0 44.75 -2.35 89.3q-1.4 26.9 -1.95 53.8q0.1 -33.8 0.55 -67.65q0.2 -15 1.8 -29.85q6.5 -59.5 -0.6 -117.9q-0.75 0.1 -0.75 0.25q-0.3 38.55 -2.6 77.95q-3.5 59 -2.9 118.55q0.6 59.8 -1.85 119.25q-2.45 59.45 -9.95 118.25q-1.75 13.6 4.3 21.7q1 -0.85 1.2 -2.25q3.8 -33.9 6.45 -68.2q4.55 -58.9 4.35 -118.5q29.5 4.15 59.45 0.55q-0.4 26.9 0.05 53.8q0.95 59.5 -4.4 118.35q-2.8 30.65 0.6 59.35q2.55 -20.3 3.8 -41.15q3.45 -59.25 2.6 -119.3q-0.9 -59.65 1.7 -119.25q2.6 -59.1 4.25 -118.5q0.8 -30.65 -1.6 -59.25q-4.25 37.8 -11.7 75.2q-6.9 -25.75 -14 -50q-3.55 19.85 -8.25 39.75q-0.9 -10.35 -5 -14.9q-1.7 8.2 -0.65 16.55q2.95 23.9 3.7 47.95q0.4 12.95 6.7 20.75q7.25 -17.8 9.25 -37.25q3.4 24.2 14.5 43.5q13.4 -45.3 10.5 -91.4q-0.75 0.1 -0.8 0.3q2.2 14.25 -8 23.25q-0.7 -5.65 -4.3 -9.95q-7.2 -8.65 -18.4 -10.55q-11.1 38.3 -10.85 78.3q0.05 6.1 1.6 10.45q3.3 14.2 11.4 26.6q5 7.55 10.35 10.4q-3.35 -17.5 -14 -33.65q10.6 -8.05 12.05 -21.9q0.5 -4.8 -0.05 -9.65q-1.15 20.25 -1.15 41.95q0.05 36.15 -11.05 69.55q-3.25 9.85 -13.3 12.7q-8.2 2.3 -10.2 -5.7q-7.95 -31.2 -2.85 -64.2q4.65 -30.15 3.8 -59.05q-7.65 36.8 -10.3 76.7q-2.3 28 22.45 35.4q13.3 -6.4 17.35 -20.55q16.5 -57.2 11.15 -117.4q-0.95 -2.75 -3.5 -1.5q-4.85 -23.5 22.35 -28.8q21.5 -4 34.35 14.85q2.95 4.35 4.95 9.4q-18.85 27.65 -50.15 10.6q-5.7 -3.15 -11.5 -6.05q13.15 7.9 27 14q19 4.75 33.7 -6.1q7.7 -5.65 8.65 -15q3 -30.75 -28.35 -43.65q-0.95 0.45 -1.85 1.05q-5.15 -0.35 -9.7 1.75q-32.9 15.25 -19.85 48.05<g id="3081" transform="matrix(1, 0, 0, 1, -3.3, 0)">
<path style="fill:#000000;fill-opacity:1" d="M525.6,164.65Q536.45 222.75 539.2 282.25Q542 342.5 533.4 400.95Q527.25 442.85 505.2 478.45Q491.5 500.55 467.5 508.85Q455 513.15 442.75 511.15Q431.55 509.25 433.3 497.9Q433.8 494.7 436.2 492.7L440.3 493.35Q440 486.65 441.5 479.4Q444.6 464.6 444.2 449.7Q442.55 389.9 439.35 330.5Q436.1 271.15 435.55 211.25Q434.95 151.7 433.4 92Q432.8 69.45 436.8 48.05L432.95 48.1L430.45 48L429.7 47.1Q428.8 45.4 428.55 43.5Q428.2 40.4 429.25 37.5Q429.8 36.05 430.95 35.75Q481.55 32.95 500.4 79.05Q517.35 120.65 525.6 164.65M415.7,60.25Q413.3 60.85 413.15 58.25L412.95 56.75Q411.4 54.75 409.45 53L408.95 52.5Q388.25 53.35 386 75.3Q384.6 88.8 383.8 102.5Q380.9 150.55 380.85 198.95Q395.8 196.8 411.45 196.25Q415 201 412.3 206.65L411.7 207.5Q396.25 210.05 380.85 207.2L380.95 221Q381.55 273.25 382.85 325.25Q383.35 344.8 395.05 358.5Q396.2 359.85 398.4 359.6Q420.3 357.3 428.2 335.5Q431.9 363.2 404.4 373.45Q401.35 374.6 397.75 374.1L390.95 372.95Q371.8 338.25 374.35 296.35Q378 236.75 376.75 177.25Q375.5 116.35 387.9 58.1Q391.5 41.15 409.2 42Q419.65 47.9 416.1 59.45L415.7 60.25M459.45,49.25L439.5 48.05Q439.7 102.2 441.5 157.95Q443.4 217.4 444.95 277.25Q446.5 336.7 449.05 396.45Q451.1 445.4 448.55 493.8Q465.55 493.45 481.6 482.65Q491.2 476.2 498.7 466.95Q520.9 433.65 526.7 393.65Q530.9 364.9 532 335.7Q534.25 276.15 528.2 217.9Q521.85 156.7 500.9 99.05Q491.4 72.8 470.55 55.4Q465.6 51.25 459.45 49.25M330.85,197.2L298.45 196.75Q297.2 186.95 297.3 177.15L297.6 156.7Q298.05 131.05 307.2 109Q307.45 146.65 302.2 184L330.95 186L331.5 187.45Q333.35 192.6 330.85 197.2M345.7,313.75L342.5 312.5Q331.2 309.1 328.45 321Q341.15 330.3 345.2 345.1Q356.05 384.55 320.7 375.7Q315.55 363.55 322.8 356.75L324.45 365.2Q331.65 370 339.7 366.2Q346.1 357.6 341.4 348.5Q335.1 336.1 327.55 324.6Q321.9 316 329.65 309.25Q348.9 292.6 348.7 317.25L345.7 313.75M374.45,380.7Q376.35 395.15 371.35 410.45Q366.55 425.25 358.95 438.45Q343.15 422.05 336.45 399.2L325.1 438.2L324.7 438.95Q319 427.65 325.25 411.65Q327.75 405.35 329.15 398.45Q330.85 390.25 336.45 385.7Q345.7 406.2 357.7 425.45Q365.75 402.95 374.2 380.8Q374.2 380.7 374.45 380.7M299.85,80.55Q293.15 136.95 282 192.1Q281.85 192.85 280.95 193.5Q279.35 193.1 278.7 191.5Q276.25 173.75 271.95 156.25L271.7 155.5Q268.15 175.7 260.2 194.25Q252.6 187.7 252.1 174.05Q249.8 114.95 241.05 56.5Q239.2 43.85 243.2 34Q254.65 91.2 257.7 150.9Q258.3 162.55 259.7 174.25Q266.9 150 270.4 124.75L270.7 124Q276.5 128.3 276.75 139.75Q277 154.25 280.95 168.25L297.75 52Q299.05 43.1 303.95 36.25Q308.75 50.15 303.2 66Q300.75 72.95 299.85 80.55M213.2,47.75Q184.6 30.65 173.15 61.35Q191.1 58.45 208.6 61.95L209.95 69Q190.9 76.5 171.9 71.9L171.2 76.5Q176.15 84.5 184.8 85.55Q206.05 87.15 226.45 77.75Q219.55 94.8 201.5 99.2Q175.85 105.45 168.8 80.1Q162.5 57.25 179.3 40.65Q202.6 17.5 214.2 46.6L213.2 47.75M208.95,106.25L210.05 106.15Q211.65 105.25 213.45 105Q238.3 151.7 248.05 204.8Q258.7 262.95 259.9 322.5Q261.05 382.3 244.3 439.05Q234.8 471.15 210.85 494.3Q195.1 509.55 180.85 491.4Q167 473.75 162.4 451.15Q150.75 393.4 148.65 334.2Q146.55 274.4 150.9 215.65Q153.5 180.3 162.35 147.3Q170.25 117.8 196.95 104.5L207.45 105.75Q208.2 105.85 208.95 106.25M211.4,120.35Q206.25 113.55 196.95 116Q157.9 144.4 158.3 194.75Q158.4 209.65 157 224.65Q151.5 283.55 154.25 343.25Q157 402.65 171.9 459.6Q178.45 484.75 201.95 484.7Q207.05 484.65 210.4 480.6Q248.75 434 253.3 372.55Q257.7 312.9 250.5 253.8Q243.3 194.75 222 139.4Q218.05 129.1 211.4 120.35M142.8,94.25Q141.15 153.65 138.55 212.75Q135.95 272.35 136.85 332Q137.7 392.05 134.25 451.3Q133 472.15 130.45 492.45L127.45 493.45Q124.05 464.75 126.85 434.1Q132.2 375.25 131.25 315.75Q130.8 288.85 131.2 261.95Q101.25 265.55 71.75 261.4L71.75 304.5Q71.95 364.1 67.4 423Q64.75 457.3 60.95 491.2Q60.75 492.6 59.75 493.45Q53.7 485.35 55.45 471.75Q62.95 412.95 65.4 353.5Q67.85 294.05 67.25 234.25Q66.65 174.7 70.15 115.7Q72.45 76.3 72.75 37.75Q72.75 37.6 73.5 37.5Q80.6 95.9 74.1 155.4Q72.5 170.25 72.3 185.25Q71.85 219.1 71.75 252.9L122.95 250L131.4 250.35Q131.95 223.45 133.35 196.55Q135.7 152 135.7 107.25Q135.7 69.5 141.2 35Q143.6 63.6 142.8 94.25M49.5,196.75Q52.4 242.85 39 288.15L38.5 289Q27.4 269.7 24 245.5Q22 264.95 14.75 282.75Q8.45 274.95 8.05 262Q7.3 237.95 4.35 214.05Q3.3 205.7 5 197.5Q9.1 202.05 10 212.4L14.75 262Q19.45 242.1 23 222.25Q30.1 246.5 37 272.25Q44.45 234.85 48.7 197.05Q48.75 196.85 49.5 196.75M289.95,210.5L279 209.55L276.8 242.2L293.2 242.5Q303.4 233.5 301.2 219.25L299.2 215.75L291.45 212L289.95 210.5M305.7,230.9Q304.25 244.75 293.65 252.8L296.3 257.1Q306.95 273.25 310.3 290.75Q304.95 287.9 299.95 280.35Q291.85 267.95 288.55 253.75L275.7 252.35L269.35 291.75Q267.8 287.4 267.75 281.3Q267.5 241.3 278.6 203L282.95 200.75Q294.15 202.65 301.35 211.3Q304.95 215.6 305.65 221.25Q306.2 226.1 305.7 230.9M311.45,306.5Q316.8 366.7 300.3 423.9Q296.25 438.05 282.95 444.45Q258.2 437.05 260.5 409.05L262.9 376.95Q265.55 337.05 273.2 300.25Q274.05 329.15 269.4 359.3Q264.3 392.3 272.25 423.5Q274.25 431.5 282.45 429.2Q292.5 426.35 295.75 416.5Q306.85 383.1 306.8 346.95Q306.8 325.25 307.95 305Q310.5 303.75 311.45 306.5M317.8,486.3Q349.1 503.35 367.95 475.7Q365.95 470.65 363 466.3Q350.15 447.45 328.65 451.45Q301.45 456.75 306.3 480.25Q312.1 483.15 317.8 486.3M321.3,441.4Q325.85 439.3 331 439.65L339.7 439.95Q340.6 439.35 341.55 438.9L342.45 438.7Q373.8 451.6 370.8 482.35Q369.85 491.7 362.15 497.35Q347.45 508.2 328.45 503.45Q314.6 497.35 301.45 489.45Q288.4 456.65 321.3 441.4" />
</g>
</svg>
