<?xml version="1.0" encoding="utf-8"?>
<svg version="1.1" id="Layer_1"
xmlns="http://www.w3.org/2000/svg"
xmlns:xlink="http://www.w3.org/1999/xlink"


xml:space="preserve">
q4.95 16.55 9.15 33.3q14.5 57.3 21.35 116.05q1.85 15.7 8.45 28.05q9.3 -11.6 13.15 -26.55q14.7 -57.45 27.15 -115.4q4.75 -22.25 2.2 -43q-1.5 0.35 -1.7 1.1q-6.75 24.9 -11.15 50.55q-9.95 58.2 -28.4 113.8q-3.3 -26.8 -8.8 -53.4q-12 -58.2 -28.95 -114.05q-4.4 3.05 -2.45 9.55q-5.25 54.8 -6.7 110.95q-0.8 30.3 6.6 59q1.9 7.4 9.1 9.2q35.15 8.65 51.65 -22.8q18.75 -35.75 17.75 -77.35q-0.2 -12.3 -6.35 -17.25q-1.55 37.25 -0.35 75.75q0.95 30.6 -9.45 58.65q-12 32.3 -47.35 30q-2.55 -0.2 -3.65 -1.85q-13.1 -19.65 -11.35 -45.9q4.05 -59.85 1.65 -118.4q-3.05 54.4 -4.65 109.45q-0.9 30.1 -4.55 59.8q-1.7 13.6 4.25 21.7q6 -35.6 7.3 -72.65q26.95 1.95 55.4 -0.65q-0.85 26.8 -1.45 53.65q-0.15 7.5 -2.1 14.6q-4.1 14.65 4.8 21.4q3.85 -19.55 4 -39.75q0.45 -44.55 3.65 -88.4q2.2 -30.35 0.6 -59.3q-6.25 14.5 -7.05 32.95q-28.05 0.1 -55.75 5.3q0.55 -45.75 -2.5 -90.8q-0.5 0.1 -0.55 0.25<g id="3076" transform="matrix(1, 0, 0, 1, -137.8, 0)">
<path style="fill:#000000;fill-opacity:1" d="M340.45,181.5Q357.4 237.35 369.4 295.55Q374.9 322.15 378.2 348.95Q396.65 293.35 406.6 235.15Q411 209.5 417.75 184.6Q417.95 183.85 419.45 183.5Q422 204.25 417.25 226.5Q404.8 284.45 390.1 341.9Q386.25 356.85 376.95 368.45Q370.35 356.1 368.5 340.4Q361.65 281.65 347.15 224.35Q342.95 207.6 338 191.05Q336.05 184.55 340.45 181.5M243.2,182.25Q245.6 240.8 241.55 300.65Q239.8 326.9 252.9 346.55Q254 348.2 256.55 348.4Q291.9 350.7 303.9 318.4Q314.3 290.35 313.35 259.75Q312.15 221.25 313.7 184Q319.85 188.95 320.05 201.25L321.25 261.25Q322.25 302.85 303.5 338.6Q287 370.05 251.85 361.4Q244.65 359.6 242.75 352.2Q235.35 323.5 236.15 293.2Q237.6 237.05 242.85 182.25L243.2 182.25M149.25,178.25Q152.3 223.3 151.75 269.05Q179.45 263.85 207.5 263.75L209.4 214.45Q210.2 196 216.45 181.5Q218.05 210.45 215.85 240.8Q212.65 284.65 212.2 329.2Q212.05 349.4 208.2 368.95Q199.3 362.2 203.4 347.55Q205.35 340.45 205.5 332.95Q206.1 306.1 206.95 279.3Q178.5 281.9 151.55 279.95L151.05 296.8Q149.75 333.85 143.75 369.45Q137.8 361.35 139.5 347.75Q143.15 318.05 144.05 287.95Q145.65 232.9 148.7 178.5Q148.75 178.35 149.25 178.25" />
</g>
</svg>
