<?xml version="1.0" encoding="utf-8"?>
<svg version="1.1" id="Layer_1"
xmlns="http://www.w3.org/2000/svg"
xmlns:xlink="http://www.w3.org/1999/xlink"


xml:space="preserve">
q0.6 39.8 -2.65 79.4q-8.95 0.75 -17.75 -3.05q-14.9 -1.35 -28.75 1.3q2.4 -55.8 1.25 -110.3q-1.15 0 -1.25 1.05q-4.4 33.95 -5 68.95q-0.3 2.7 0.7 5.25q-0.55 15 -2.35 29.75q-2.15 17.35 4.3 29.2q3.05 -5.15 3.05 -11.25q0 -57.6 2.65 -115.1q20.3 0.95 39.2 -0.1q-1.3 16.55 3.2 29.8q5.25 -6.35 5.45 -15.5q1.25 -56.8 5.6 -113.2q0.95 -1.8 1.15 -3.8q0 -3.05 -2 -5.25q4.25 -56.7 3.3 -112.45q-6.55 10.55 -6.35 24.75q-31.05 -10.35 -64.55 -6.4q-0.55 1.8 -0.5 3.75q18.15 4 37.2 1.6q28.25 -3.55 54.65 -1.05q-7.4 44.55 -6.2 91.95q0.8 30.05 0.35 60q-0.8 59.7 -4 118.45q0.6 2.65 3 2q5.25 -21.4 4.9 -44.2q-0.85 -60 0.2 -119.25q0.95 -55.2 3.05 -108.85q23.7 2.35 45.85 9.6q0.9 -1 1.05 -2.2q0.55 -4.2 -1.75 -7.75q-1.2 -1.9 -2.8 -3.55q-11.35 23.9 -14 50.75q-5.8 58.2 -2.65 117.2q0.85 15.2 6.25 29.3q4.15 10.9 15.95 14q37.7 9.9 58.65 -23.9q9.7 -15.7 11.15 -32.15q-11.05 12.8 -21.7 26.55q-22.05 28.35 -54.1 12.05q-2.6 -1.3 -3.35 -3.5q-10.95 -33.2 -8.9 -69.9q2.05 -36.85 4.25 -73.6q2.4 -39.9 34.55 -61.1q2.05 -2.5 1.8 -5.75q-0.15 -1.55 -0.65 -3q-12.7 -5.95 -27.65 -3.95q-18.35 7.75 -27.1 26.3q-15.75 3.45 -27.8 14.9q-13.5 12.85 -17.2 30.9q-11.8 57.75 -12.1 117.45q-0.05 15.15 0.8 30.1q2.2 40 30.8 65.85q22.4 5 33.3 -13.3q20.35 -34.05 25.45 -73.5q7.7 -58.9 1.6 -118.65q-3.25 -31.9 -24.85 -52.75q2.65 5.95 4.55 12.15q16.4 52.35 9.75 109.35q-1.8 15.1 -3.15 30.15q-3.9 43.7 -33.4 73.8q-1.25 -1.35 -2.7 -2.4q-2.4 -1.75 -5.05 -3.1q-6.3 -7.25 -8.95 -16.55q-16.5 -57.7 -8.3 -117.7q1.55 -11.25 1.55 -22.45q0 -52.6 47.45 -73.25q3.55 -0.2 3.75 3q1.65 2 3.85 3.4q2.65 1.75 5.15 3.85q-15.55 45.75 -16.5 95.35q-1 51.6 13.15 100.3q4.45 15.25 18.95 20.65q14.85 5.55 25.85 -5.5q18.75 -18.8 25.05 -45.1q13.95 -57.8 12.5 -118.1q-0.75 -30.4 -16.5 -54.75q-3.85 -14.8 -16.3 -24q-0.8 -0.15 -1.35 0.4q-1.4 1.35 -1.4 3.35q-29.6 -3.6 -40.25 24.5q-2.2 1.25 -3 3.65q26.8 31.75 27.55 74.25q0.55 29.75 -3.2 58.7q-4.85 37.85 -22.4 71.85q-13.95 27.15 -40.95 11.65q-14.4 -30.6 -16.35 -65.25q-3.4 -59.95 10.55 -117.3q7 -28.8 34.55 -36.4q5.7 -0.65 10.25 2.5q-4.4 41.95 -4.9 84.15q-1.15 38.6 -5.25 76.85q-1 9.25 -2.6 18.1q-1.25 6.9 -1.6 13.8q-0.45 9.7 5.3 15.4q3 -10.7 3.75 -22.05q1.25 -18.9 2.1 -37.9q-4.05 46.4 -4.95 93.1q-0.4 22.1 0.8 44.4q0.05 1.2 1.1 1.8q3.6 -1.25 3.8 -5.95q-0.5 -10.4 0.3 -20.85q4.3 -54.85 4.15 -109.6q-0.05 -19.2 0.3 -38.8q-5.8 23.4 -6.05 48.75q-0.3 15.7 -0.15 31.25<g id="3084" transform="matrix(1, 0, 0, 1, -27.75, 0)">
<path style="fill:#000000;fill-opacity:1" d="M516.2,134.75Q517.15 190.5 512.9 247.2L513 247.15L514.45 247Q516.45 249.2 516.45 252.25L516.35 254.45Q516.15 256.45 515.2 258.25L512 258.5Q507.65 314.9 506.4 371.7Q506.2 380.85 500.95 387.2Q496.45 373.95 497.75 357.4L505.55 258.95Q486.65 260 466.35 259.05L459.4 258.1Q456.75 315.6 456.75 373.2Q456.75 379.3 453.7 384.45Q447.25 372.6 449.4 355.25Q451.2 340.5 451.75 325.5L453.9 256.35L453.7 256.25Q452.7 253.7 453 251L453.2 249.5L453.45 248L454.1 247.85L454.95 206.25Q455.55 171.25 459.95 137.3Q460.05 136.25 461.2 136.25Q462.35 190.75 459.95 246.55Q473.8 243.9 488.7 245.25Q497.5 249.05 506.45 248.3L507.2 238.9Q510.45 199.3 509.85 159.5Q509.65 145.3 516.2 134.75M382.45,103.75L383.2 104.5Q384.8 106.15 386 108.05Q388.3 111.6 387.75 115.8Q387.6 117 386.7 118Q364.55 110.75 340.85 108.4Q338.75 162.05 337.8 217.25Q336.75 276.5 337.6 336.5Q337.95 359.3 332.7 380.7Q330.3 381.35 329.7 378.7Q332.9 319.95 333.7 260.25Q334.15 230.3 333.35 200.25Q332.15 152.85 339.55 108.3Q313.15 105.8 284.9 109.35Q265.85 111.75 247.7 107.75L247.5 107L247.3 105.5L247.2 104Q247.15 102.05 247.7 100.25L315.95 96.75Q349.45 92.8 380.5 103.15L382.45 103.75M395.95,140.25Q410.9 138.25 423.6 144.2L424.2 144.75L424.6 145.5Q425.1 146.95 425.25 148.5Q425.5 151.75 423.45 154.25L412.35 153.4L394.95 152.25Q362.8 173.45 360.4 213.35Q358.2 250.1 356.15 286.95Q354.1 323.65 365.05 356.85Q365.8 359.05 368.4 360.35Q400.45 376.65 422.5 348.3Q433.15 334.55 444.2 321.75Q442.75 338.2 433.05 353.9Q412.1 387.7 374.4 377.8Q362.6 374.7 358.45 363.8Q353.05 349.7 352.2 334.5Q349.05 275.5 354.85 217.3Q357.5 190.45 368.85 166.55Q377.6 148 395.95 140.25M170.95,128.25Q192.55 149.1 195.8 181Q201.9 240.75 194.2 299.65Q189.1 339.1 168.75 373.15Q157.85 391.45 135.45 386.45Q106.85 360.6 104.65 320.6Q103.8 305.65 103.85 290.5Q104.15 230.8 115.95 173.05Q119.65 155 133.15 142.15Q145.2 130.7 160.95 127.25L170 128.35L170.95 128.25M172.05,143.4Q169.85 142 168.2 140Q168 136.8 164.45 137L159.95 137.25Q112.5 157.9 112.5 210.5Q112.5 221.7 110.95 232.95Q102.75 292.95 119.25 350.65Q121.9 359.95 128.2 367.2Q130.85 368.55 133.25 370.3Q134.7 371.35 135.95 372.7L154.95 372.7Q184.45 342.6 188.35 298.9Q189.7 283.85 191.5 268.75Q198.15 211.75 181.75 159.4Q179.85 153.2 177.2 147.25Q174.7 145.15 172.05 143.4M226.45,155.25Q237.1 127.15 266.7 130.75Q266.7 128.75 268.1 127.4Q268.65 126.85 269.45 127Q281.9 136.2 285.75 151L285.95 151.75Q301.7 176.1 302.45 206.5Q303.9 266.8 289.95 324.6Q283.65 350.9 264.9 369.7Q253.9 380.75 239.05 375.2Q224.55 369.8 220.1 354.55Q205.95 305.85 206.95 254.25Q207.9 204.65 223.45 158.9Q224.25 156.5 226.45 155.25M258.95,138.5Q231.4 146.1 224.4 174.9Q210.45 232.25 213.85 292.2Q215.8 326.85 230.2 357.45Q257.2 372.95 271.15 345.8Q288.7 311.8 293.55 273.95Q297.3 245 296.75 215.25Q296 172.75 269.2 141Q264.65 137.85 258.95 138.5M45.95,130.75L41.45 243.6L80.4 248.75Q80.25 233.2 80.55 217.5L81.2 173Q81.45 147.65 87.25 124.25L85.85 212.95Q85.5 232.55 85.55 251.75Q85.7 306.5 81.4 361.35Q80.6 371.8 81.1 382.2L81.05 391.55Q80.85 396.25 77.25 397.5Q76.2 396.9 76.15 395.7Q74.95 373.4 75.35 351.3Q76.25 304.6 80.3 258.2L41.35 252.2L40.7 277.6L39.35 315.65Q38.5 334.65 37.25 353.55Q36.5 364.9 33.5 375.6Q27.75 369.9 28.2 360.2Q28.55 353.3 29.8 346.4Q31.4 337.55 32.4 328.3Q36.5 290.05 37.65 251.45L31 250L31.3 243.7L37.9 243.25L38.35 207.4Q38.85 165.2 43.25 123.25L45.95 130.75" />
</g>
</svg>
