<?xml version="1.0" encoding="utf-8"?>
<svg version="1.1" id="Layer_1"
xmlns="http://www.w3.org/2000/svg"
xmlns:xlink="http://www.w3.org/1999/xlink"


xml:space="preserve">
q-4.4 -4.9 -11.1 -4.3q-21.85 2.3 -35.85 21.15q-11.6 15.65 -17.35 34.3q-6.15 19.75 -8.65 40.45q-2.5 20.95 -1.05 42q1.5 22.5 17.7 37.45q17 15.65 38.3 4q9.55 -5.15 16.75 -13.2q-4.45 17.3 3.9 32.2q7.6 -27.6 6.3 -57.45q-0.55 -13.2 -2.05 -26.05q-12.45 -3.4 -24.9 -0.4q-2.4 15.25 -15.7 25.05q-10.5 7.75 -23.5 7.5q-8.65 -0.45 -16.85 -3.85q-4.2 -1.8 -5.75 -6.1q-11.8 -33.25 -7.1 -68.2q5.35 -39.5 34.35 -64.9q11.8 -10.25 25.05 -5.4q8.75 3.15 16.35 8.75q1.5 -4.95 -0.5 -9.6q-2.3 -5.5 -6 -10.65q-1.85 -0.65 -3.15 -2.1q-1.25 39.15 -3.85 78.25q-15.3 0.65 -30.7 -0.55q0.5 -16.6 1.65 -33.1q2.1 -30.5 -2.85 -59.35q-3.45 33.5 -3.95 68.7q1.15 2.25 3.5 1.5q4.85 -19.1 4.2 -40.25q-0.7 -21.85 -0.3 -43.55q23.3 -0.65 46.35 -0.7q-2.25 29.7 -6.7 58.9q-2.5 16.45 3.2 29.95q5.9 -17.9 6.9 -38.65q0.95 -19.75 2.6 -39.7q3.05 -2.65 3.05 -6.75q0.05 -1.9 -0.35 -3.7q-0.4 -1.8 -1.8 -3q2.6 -45.35 1.75 -89.9q-4.4 4.5 -4.65 12q3.35 20.35 3.6 42.75q0.25 22.45 -2.55 44.4q-4.1 32.1 -26.05 55.1q-15.9 16.7 -36.55 7.3q-2.9 -1.3 -3.6 -4.15q-11.55 -48.1 -6.05 -98.65q3.3 -30.25 -0.3 -59.25q-3.95 15.5 -5.3 33.6q-4.25 58 -0.5 116.4q0.75 11.8 8.25 20.45q19.35 22.3 42.8 2.65q24.65 -20.6 31.3 -53.05q12.4 -60.4 -0.8 -118.8q-4.2 4.75 -4.25 11.25q-15.65 13.55 -20.75 33.75q-5.35 21.15 5.9 38.7q4.45 7 12.85 8.25q19.7 -12 22.05 -36.65q2.2 -23.55 -11.55 -42.8q21.5 1.35 14.3 29.95q-4.2 16.75 -21.05 19.05q-7.55 -22.65 2.25 -44.2<g id="3087" transform="matrix(1, 0, 0, 1, -139, 0)">
<path style="fill:#000000;fill-opacity:1" d="M403.2,191Q406.9 196.15 409.2 201.65Q411.2 206.3 409.7 211.25Q402.1 205.65 393.35 202.5Q380.1 197.65 368.3 207.9Q339.3 233.3 333.95 272.8Q329.25 307.75 341.05 341Q342.6 345.3 346.8 347.1Q355 350.5 363.65 350.95Q376.65 351.2 387.15 343.45Q400.45 333.65 402.85 318.4L400.65 315.8L402.55 315.2L404.2 311.95L379.7 307.95L379.95 299.7L382.05 299.05Q394.5 296.05 406.95 299.45Q408.45 312.3 409 325.5Q410.3 355.35 402.7 382.95Q394.35 368.05 398.8 350.75Q391.6 358.8 382.05 363.95Q360.75 375.6 343.75 359.95Q327.55 345 326.05 322.5Q324.6 301.45 327.1 280.5Q329.6 259.8 335.75 240.05Q341.5 221.4 353.1 205.75Q367.1 186.9 388.95 184.6Q395.65 184 400.05 188.9Q401.35 190.35 403.2 191M202.2,179.25Q203.05 223.8 200.45 269.15L201.45 269.2Q202.85 270.4 203.25 272.2L203.4 273Q203.8 274.8 203.75 276.7Q203.75 280.8 200.7 283.45L199.55 283.45L198.5 297.1Q196.85 317.05 195.9 336.8Q194.9 357.55 189 375.45Q183.3 361.95 185.8 345.5Q190.25 316.3 192.5 286.6L192.75 283.45Q169.7 283.5 146.4 284.15Q146 305.85 146.7 327.7Q147.35 348.85 142.5 367.95Q140.15 368.7 139 366.45L141 248Q141.5 212.8 144.95 179.3L145.5 179.25Q150.45 208.1 148.35 238.6Q147.2 255.1 146.7 271.7L157.95 270.35L161.7 269.6L163 268.95Q178.4 270.15 193.7 269.5Q196.3 230.4 197.55 191.25Q197.8 183.75 202.2 179.25M303.95,182.5Q317.15 240.9 304.75 301.3Q298.1 333.75 273.45 354.35Q250 374 230.65 351.7Q223.15 343.05 222.4 331.25Q218.65 272.85 222.9 214.85Q224.25 196.75 228.2 181.25Q231.8 210.25 228.5 240.5Q223 291.05 234.55 339.15Q235.25 342 238.15 343.3Q258.8 352.7 274.7 336Q296.65 313 300.75 280.9Q303.55 258.95 303.3 236.5Q303.05 214.1 299.7 193.75Q299.75 187.25 303.95 182.5M274.45,214.5Q288.2 233.75 286 257.3Q283.65 281.95 263.95 293.95Q255.55 292.7 251.1 285.7Q239.85 268.15 245.2 247Q250.3 226.8 265.95 213.25L274.45 214.5M256.45,233Q246.65 254.55 254.2 277.2L256.7 279.45Q273.55 277.15 277.75 260.4Q284.95 231.8 263.45 230.45L256.45 233" />
</g>
</svg>
