<?xml version="1.0" encoding="utf-8"?>
<svg version="1.1" id="Layer_1"
xmlns="http://www.w3.org/2000/svg"
xmlns:xlink="http://www.w3.org/1999/xlink"


xml:space="preserve">
q-9.95 21.6 -20.9 42.65q-27.4 52.85 -52.1 106.8q-6.25 13.5 -14.85 25.5q2.5 -60 -2.95 -118.5q-2.9 9.1 -2.85 20.75q0.4 59.25 -1.45 118.45q-1.9 59.8 -4.5 119.35q-1 22.55 -4.15 44.7q-2 13.85 4.7 22.2q0.65 -0.35 0.7 -0.8q4.05 -43 5.75 -86.9q9.45 -15.25 16.85 -31.8q5.75 -12.9 12 -25.35q11.15 43.2 19.55 86.9q3.2 16.55 11.1 27.15q3.4 -11 -0.5 -17.2q-8.75 -38.05 -18.45 -76.3q-13.25 -52 -28.4 -103.1q27.65 -52.3 51.85 -106.15q6.45 -14.3 5.55 -27.4q-1.8 0.15 -2.6 1.8q0.8 -28.45 -28.5 -31.25q-6.25 3 -11.45 8.05q-37.35 36.4 -41.8 88.55q-2.45 28.8 -3.4 57.75q-2.95 6.35 0.3 12q-0.55 24.3 0 48.75q0.95 43.75 10.25 85.9q6.25 28.3 34.65 26.7q21.4 -1.15 34.2 -16.65q12.5 -15.15 2.85 -27.25q-4.7 15.45 -18.75 23q-22.1 11.85 -40.6 -2.35q-3.25 -2.5 -4.25 -6.3q-11.9 -46.7 -12.3 -95.55q-0.15 -18.4 0.4 -36.7q26.25 -5.1 53 -7.3q4.05 -7.4 -0.65 -14.15q-26.8 2.15 -52.5 8.8q1.3 -31.75 4.65 -63.15q5.05 -47.1 42.85 -75.65q21.8 -2.6 30.75 18.25q-2.4 16.15 -3.8 34.65q-4.45 58.95 -6.15 118.6q-1.65 59.3 -5.05 118.5q-0.85 14.95 -2.8 29.75q-1.8 13.65 4.3 21.7q1.15 -0.85 1.5 -2.25q2.95 -13.05 3.15 -27q0.65 -43.55 2.3 -87q2.2 -59.35 7.05 -118.35q3.7 -45 -0.5 -88.6q-0.75 0.1 -0.8 0.35q-2.9 24.3 -3 49.4q-0.25 59.65 -3.6 119.15q-3.35 59.45 -1 119.3q0.3 7.5 -1.4 14.65q-3.3 13.85 3.05 21.85q1.8 -2.3 2 -5.3q2.45 -36.05 2.5 -72.65q0.05 -37 0.95 -74q30.1 -4.65 60.9 -4.35q-0.6 33.05 0.45 66.3q0.95 29.8 -3.55 59.1q-2.5 16.4 2.95 29.9q8.15 -36.75 6.45 -77q-1.65 -39.2 -0.2 -78.2q2.05 -2.5 2.1 -5.75q0.1 -3.2 -1.35 -6q0.7 -14.4 1.85 -28.8q4.7 -59.5 3.9 -117.8q-0.8 -0.15 -0.85 0.3q-6.4 52.65 -9.5 106.1q-1.15 19.45 -1.7 39q-6.95 0.35 -10.9 2.65q0.45 -16.15 1.05 -32.3q2.3 -59.1 2.45 -118.5q-0.3 -4.9 -2.45 -9<g id="3250" transform="matrix(1, 0, 0, 1, -74.4, 0)">
<path style="fill:#000000;fill-opacity:1" d="M350.2,91Q351.1 104.1 344.65 118.4Q320.45 172.25 292.8 224.55L291.35 227.3Q306.5 278.4 319.75 330.4Q329.45 368.65 338.2 406.7Q342.1 412.9 338.7 423.9L337.95 425.45Q330.05 414.85 326.85 398.3Q318.45 354.6 307.3 311.4L288.7 239.45L287.65 234.55Q281.4 247 275.65 259.9Q268.25 276.45 258.8 291.7L257.4 328.25Q255.7 372.15 251.65 415.15Q251.6 415.6 250.95 415.95Q244.25 407.6 246.25 393.75Q249.4 371.6 250.4 349.05Q253 289.5 254.9 229.7Q256.75 170.5 256.35 111.25Q256.3 99.6 259.2 90.5Q264.65 149 262.15 209L259.75 267.75Q268.35 255.75 274.6 242.25Q299.3 188.3 326.7 135.45Q337.65 114.4 347.6 92.8Q348.4 91.15 350.2 91M445.2,128.75Q436.25 107.9 414.45 110.5Q376.65 139.05 371.6 186.15Q368.25 217.55 366.95 249.3Q392.65 242.65 419.45 240.5Q424.15 247.25 420.1 254.65L419.45 255.5Q392.7 257.7 366.45 262.8Q365.9 281.1 366.05 299.5Q366.45 348.35 378.35 395.05Q379.35 398.85 382.6 401.35Q401.1 415.55 423.2 403.7Q437.25 396.15 441.95 380.7Q451.6 392.8 439.1 407.95Q426.3 423.45 404.9 424.6Q376.5 426.2 370.25 397.9Q360.95 355.75 360 312Q359.45 287.55 360 263.25Q356.75 257.6 359.7 251.25L360.3 251.1Q361.25 222.15 363.7 193.35Q368.15 141.2 405.5 104.8Q410.7 99.75 416.95 96.75Q446.25 99.55 445.45 128L445.2 128.75M207.7,182.35Q202.85 241.35 200.65 300.7Q199 344.15 198.35 387.7Q198.15 401.65 195.2 414.7Q194.85 416.1 193.7 416.95Q187.6 408.9 189.4 395.25Q191.35 380.45 192.2 365.5Q195.6 306.3 197.25 247Q198.95 187.35 203.4 128.4Q204.8 109.9 207.2 93.75Q211.4 137.35 207.7 182.35M89.95,97.75L90 98.5Q89.85 157.9 87.55 217Q86.95 233.15 86.5 249.3Q90.45 247 97.4 246.65L146.45 243.75L147.4 243.9Q147.95 224.35 149.1 204.9Q152.2 151.45 158.6 98.8Q158.65 98.35 159.45 98.5Q160.25 156.8 155.55 216.3Q154.4 230.7 153.7 245.1L154.2 245.5Q155.65 248.3 155.55 251.5Q155.5 254.75 153.45 257.25L153.2 257.25Q151.75 296.25 153.4 335.45Q155.1 375.7 146.95 412.45Q141.5 398.95 144 382.55Q148.5 353.25 147.55 323.45Q146.5 290.2 147.1 257.15Q116.3 256.85 86.2 261.5Q85.3 298.5 85.25 335.5Q85.2 372.1 82.75 408.15Q82.55 411.15 80.75 413.45Q74.4 405.45 77.7 391.6Q79.4 384.45 79.1 376.95Q76.75 317.1 80.1 257.65Q83.45 198.15 83.7 138.5Q83.8 113.4 86.7 89.1Q86.75 88.85 87.5 88.75Q89.65 92.85 89.95 97.75" />
</g>
</svg>
