<?xml version="1.0" encoding="utf-8"?>
<svg version="1.1" id="Layer_1"
xmlns="http://www.w3.org/2000/svg"
xmlns:xlink="http://www.w3.org/1999/xlink"


xml:space="preserve">
q-22.3 34.65 -28.95 76q-9.35 58.35 -6.25 118.3q1.55 30 1.45 59.9q-0.2 44.1 28.45 76.35q4.4 5 10.6 6q28.4 4.7 50.5 -16.3q20.85 -19.7 10.2 -43.3q-0.5 0 -0.75 0.25q-3.7 3.8 -2.6 9.5q-8.45 18.25 -25.85 27.5q-30.95 16.55 -48.75 -11.7q-14.75 -23.35 -15.85 -51.45q-1.6 -41.95 -4.05 -83.9q19.3 -3.95 38.5 -6.15q3.2 -6.3 -0.85 -11.9q-11.65 2.15 -23.6 2.85q-11.55 0.65 -15.25 5.9q-2.45 -56.15 13.4 -108.9q7.95 -26.5 27.7 -44.55q29.4 -26.9 53.25 3.2q1.65 -5.25 -1.1 -10.55q-5.55 -10.5 -15.4 -17.7q-5.7 -3.1 -12.6 -1.5q-16.3 6.2 -28.6 19q-7.9 22.2 -19.7 42.45q-20.2 34.6 -61.25 30.45q-44 -4.4 -64.35 -42.7q-11.45 -57.9 -11 -117.75q0.45 -60.35 30.75 -112.9q18.45 -30.7 51.7 -38.35q19.7 0.4 35.25 12.25q1.15 2.35 3.5 3.75q5.45 14.45 12.05 28.45q20.55 43.35 26.55 91.6q7.6 60.95 -13.05 118.95q-11.25 -46.45 -36.6 -85.9q-15.8 -11.75 -35.05 -13.7q-7.6 1.7 -15.05 5.05q-21.55 9.55 -35.5 29.45q-9.4 13.35 -17.3 27.75q-29.55 54.2 -30.1 115.5q-0.5 58.75 8.75 116.1q6.15 38.15 39.6 56.6q37.35 20.6 74 1.5q11.3 -5.9 17.7 -16.5q31.65 -52.4 40.95 -112.95q9.1 -59.15 -4.95 -117.35q-0.1 47.95 -1.7 96.75q-0.85 25.6 -1.1 51.25q-39.5 -0.65 -77.7 10.05q3.25 -60 2.3 -118.5q-1.85 -0.3 -2 1.5q-4.55 47.3 -6.2 95.2q-2.05 59.5 -2.45 119.3q-0.35 60.25 -9.4 119q-2.6 16.95 5.05 29.45q3 -3.9 3.35 -8.9q3.7 -58.3 4.95 -117.8q0.7 -34.85 2.1 -69.6q1.3 1.2 3.1 1.6q16.75 -0.45 31.4 -4.1q-0.1 27.5 0.5 55q1.4 60.1 -5.3 119.05q-1.95 17.4 4.65 29.15q3.1 -18.25 4.3 -37.5q3.75 -59.25 2.6 -119.2q-1.1 -59.6 2 -119.15q2.35 -45.15 -5.15 -88.6q-0.75 0.1 -0.75 0.25<g id="3090" transform="matrix(1, 0, 0, 1, -45.85, 0)">
<path style="fill:#000000;fill-opacity:1" d="M445.05,73.5L447.95 72.5Q454.85 70.9 460.55 74L462.45 74.75Q472.3 81.95 477.85 92.45Q480.6 97.75 478.95 103Q455.1 72.9 425.7 99.8Q405.95 117.85 398 144.35Q382.15 197.1 384.6 253.25Q388.3 248 399.85 247.35Q411.8 246.65 423.45 244.5Q427.5 250.1 424.3 256.4L423.7 257.25Q404.5 259.45 385.2 263.4Q387.65 305.35 389.25 347.3Q390.35 375.4 405.1 398.75Q422.9 427 453.85 410.45Q471.25 401.2 479.7 382.95L479.1 379.2Q478 373.5 481.7 369.7Q481.95 369.45 482.45 369.45Q493.1 393.05 472.25 412.75Q450.15 433.75 421.75 429.05Q415.55 428.05 411.15 423.05Q382.5 390.8 382.7 346.7Q382.8 316.8 381.25 286.8Q378.15 226.85 387.5 168.5Q394.15 127.15 416.45 92.5Q428.75 79.7 445.05 73.5M351.05,215.8Q345.05 167.55 324.5 124.2Q317.9 110.2 312.45 95.75Q310.1 94.35 308.95 92L308.2 90.5Q292.65 78.65 272.95 78.25Q239.7 85.9 221.25 116.6L212.15 132.1Q181.85 184.65 181.4 245Q180.95 304.85 192.4 362.75L192.7 364.95Q213.05 403.25 257.05 407.65Q298.1 411.8 318.3 377.2Q330.1 356.95 338 334.75Q358.65 276.75 351.05 215.8M357,286.5Q347.7 347.05 316.05 399.45Q309.65 410.05 298.35 415.95Q261.7 435.05 224.35 414.45Q190.9 396 184.75 357.85Q175.5 300.5 176 241.75Q176.55 180.45 206.1 126.25Q214 111.85 223.4 98.5Q237.35 78.6 258.9 69.05Q266.35 65.7 273.95 64Q293.2 65.95 309 77.7L310.2 78.5L310.5 79.25L311.2 80.75L312 82.2L312.45 83L313.25 83.3L314.45 83.3L315.45 83.25Q340.8 122.7 352.05 169.15Q366.1 227.35 357 286.5M145.45,67.75Q152.95 111.2 150.6 156.35Q147.5 215.9 148.6 275.5Q149.75 335.45 146 394.7Q144.8 413.95 141.7 432.2Q135.1 420.45 137.05 403.05Q143.75 344.1 142.35 284Q141.75 256.5 141.85 229Q127.2 232.65 110.45 233.1L67 235.75Q65.2 235.35 63.9 234.15Q62.5 268.9 61.8 303.75Q60.55 363.25 56.85 421.55Q56.5 426.55 53.5 430.45Q45.85 417.95 48.45 401Q57.5 342.25 57.85 282Q58.25 222.2 60.3 162.7Q61.95 114.8 66.5 67.5Q66.65 65.7 68.5 66Q69.45 124.5 66.2 184.5L64.2 226.05Q102.4 215.35 141.9 216Q142.15 190.35 143 164.75Q144.6 115.95 144.7 68Q144.7 67.85 145.45 67.75" />
</g>
</svg>
