<?xml version="1.0" encoding="utf-8"?>
<svg version="1.1" id="Layer_1"
xmlns="http://www.w3.org/2000/svg"
xmlns:xlink="http://www.w3.org/1999/xlink"


xml:space="preserve">
q-13.9 30.5 -13 67.85q0.95 40 -1.4 79.95q-15.45 73.4 -10.4 150.45q-0.9 4.05 2.05 5.5q-3.15 88.2 -12.45 175.7q-0.8 7.6 1.25 14.9q0.6 1.65 1.6 3.15q11 -74 11.9 -149.85q0.25 -23.75 1.1 -47.45q-1.5 87.55 -9.35 177.8q-0.7 8.05 0.55 15.95q9.75 -63.7 10.45 -129.3q0.6 -59.35 4.3 -118.4q10.35 -1.9 16.65 6.75q2.5 -14.05 -9.65 -20.3q-5.9 -2.95 -12.6 -2.95q-31.75 22.7 -36.5 65.3q-2.9 25.9 -0.85 51.8q2.2 27.25 26.65 31.65q14.75 2.45 26.95 -6.15q6.2 -4.4 9.95 -10.65q1.55 -2.6 0.45 -5.4q-18.55 10.7 -40.25 9.15q-12.6 -22.1 -9.8 -49.65q2.1 -20.45 6.9 -40.4q5.95 -23.5 28.75 -27.95q-13 31.65 -19.35 66.5q-10.5 58 -22.25 115.75q-11.85 57.95 -25.25 115.6q-2.5 10.8 -6.6 21q-7.7 19.05 -3.85 36.65q4.4 -1.25 5.65 -6.15q14.65 -57.3 26.85 -115.55q28.7 0.5 57.9 -2.9q10.35 58.05 13.45 117.25q0.8 16.15 6.95 28.9q0.9 -0.6 0.95 -1.3q3.3 -33.95 -1.95 -68.25q-6.75 -43.8 -14.75 -87.35q-10.75 -58.55 -13.5 -117.2q-6.55 37.3 0.6 77.35q5.2 29.2 9.25 58.6q3.05 22.5 6.65 44.9q-27.6 1.2 -54 6.55q10.7 -58.1 23.65 -115.5q-6.45 2.9 -10 8.85q-28.75 48 -21.05 104.1q3.05 22.25 21.15 34.4q4.8 3.2 10.35 0.95q25.3 -10.2 33.05 -36.65q15.8 -53.75 -13.5 -100.4q-0.75 -5.95 -6.05 -9.25q1 0.25 1.1 0.65q0.6 4.05 3.3 7q23.6 26.1 21.1 61.95q-2.35 34.65 -31.95 51.6q-5.2 3 -9.25 -0.2q-24.4 -19.4 -20 -53.35q2.4 -18.65 6.2 -37q5.4 -26.2 29.5 -30.65q-3.05 46.05 -4.6 92.35q-0.4 -2.3 -1.95 -4.5q-31.85 3.05 -63.1 3q1.25 -55.75 4.2 -111.2q1.6 -30.35 -2.05 -59.3q-3.4 0.95 -3.35 5.25q0.15 59.45 -2.15 118.5q-2.25 59.6 -4.1 119.2q-1.9 60.25 -3.15 118.5q1.9 1.25 2.35 -0.85q6.6 -30.45 6.7 -62.9q0.15 -59.7 1.35 -119.2q31.15 6.05 63.3 1q-1.45 59.15 -2.15 118.45q-0.55 16.85 5.3 29.25q4.15 -30.9 3.35 -63.75q-1.45 -59.7 0.6 -119.2q2 -59.3 6.8 -118.45q2.45 -30.25 2.25 -59.3q-6.7 17.15 -7.9 38.15<g id="3102" transform="matrix(1, 0, 0, 1, -51.75, 0)">
<path style="fill:#000000;fill-opacity:1" d="M493.4,88.6L491.65 118.3L489.95 147.9L488.2 177.5Q484.5 236.55 483.9 295.9Q483.2 361.5 473.45 425.2L472 422.1L470.75 418.8L469.8 415.35L469.1 411.7Q467.85 403.8 468.55 395.75Q476.4 305.5 477.9 217.95L405.75 221.7Q404.9 245.4 404.65 269.15Q403.75 345 392.75 419L392.25 419Q391.25 417.5 390.65 415.85L389.55 412.35Q387.5 405.05 388.3 397.45Q397.6 309.95 400.75 221.75Q397.8 220.3 398.7 216.25L399 215.1L399.7 212.85L400 212.15L401.05 211.45Q396 134.4 411.45 61L406.15 210.85L476.95 204.25L479.05 206.3Q481.4 166.35 480.45 126.35Q479.55 89 493.45 58.5L493.4 88.6M331.8,186.95Q327 206.9 324.9 227.35Q322.1 254.9 334.7 277L337.35 277.35Q359.05 278.9 377.6 268.2L381.6 269.05Q382.7 271.85 381.15 274.45Q377.4 280.7 371.2 285.1Q359 293.7 344.25 291.25Q319.8 286.85 317.6 259.6Q315.55 233.7 318.45 207.8Q323.2 165.2 354.95 142.5Q361.65 142.5 367.55 145.45Q379.7 151.7 377.2 165.75Q370.9 157.1 360.55 159Q337.75 163.45 331.8 186.95M276.95,64.5L277.2 65.25Q264.25 122.65 253.55 180.75L241.7 243.15Q268.1 237.8 295.7 236.6Q292.1 214.2 289.05 191.7Q285 162.3 279.8 133.1Q272.65 93.05 279.2 55.75Q281.95 114.4 292.7 172.95Q300.7 216.5 307.45 260.3L320.95 348.15Q326.2 382.45 322.9 416.4Q322.85 417.1 321.95 417.7Q315.8 404.95 315 388.8Q311.9 329.6 301.55 271.55L297.75 249.4Q268.55 252.8 239.85 252.3L230.7 297Q218.5 355.25 203.85 412.55Q202.6 417.45 198.2 418.7Q194.35 401.1 202.05 382.05Q206.15 371.85 208.65 361.05Q222.05 303.4 233.9 245.45Q245.65 187.7 256.15 129.7Q262.5 94.85 275.5 63.2L276.2 63L276.95 64.5M195.95,144.85L200.45 145.25L201.9 146.5Q207.2 149.8 207.95 155.75Q237.25 202.4 221.45 256.15Q213.7 282.6 188.4 292.8Q182.85 295.05 178.05 291.85Q159.95 279.7 156.9 257.45Q149.2 201.35 177.95 153.35Q181.5 147.4 187.95 144.5L195.95 144.85M166.45,187.9Q162.65 206.25 160.25 224.9Q155.85 258.85 180.25 278.25Q184.3 281.45 189.5 278.45Q219.1 261.5 221.45 226.85Q223.95 191 200.35 164.9Q197.65 161.95 197.05 157.9Q196.95 157.5 195.95 157.25Q171.85 161.7 166.45 187.9M142.45,55.5Q142.65 84.55 140.2 114.8Q135.4 173.95 133.4 233.25Q131.35 292.75 132.8 352.45Q133.6 385.3 129.45 416.2Q123.6 403.8 124.15 386.95L124.45 371.95Q125.15 312.65 126.6 253.5L127.25 230.1L126.1 233.15L125.45 234Q93.3 239.05 62.15 233Q60.95 292.5 60.8 352.2Q60.7 384.65 54.1 415.1Q53.65 417.2 51.75 415.95Q53 357.7 54.9 297.45Q56.75 237.85 59 178.25Q61.3 119.2 61.15 59.75Q61.1 55.45 64.5 54.5Q68.15 83.45 66.55 113.8Q63.6 169.25 62.35 225Q93.6 225.05 125.45 222Q127 224.2 127.4 226.5Q128.95 180.2 132 134.15L134.55 93.65Q135.75 72.65 142.45 55.5" />
</g>
</svg>
