<?xml version="1.0" encoding="utf-8"?>
<svg version="1.1" id="Layer_1"
xmlns="http://www.w3.org/2000/svg"
xmlns:xlink="http://www.w3.org/1999/xlink"


xml:space="preserve">
q1.9 -3.1 1.95 -6.75q0.05 -2.05 -0.9 -4.1q-28.3 -6.15 -57.05 -3.6q-20.4 1.7 -40.2 6.45q-1 1.75 -1.25 3.75q-0.4 3.35 0.95 6.45q-8.15 85.2 -7.8 170.6q0.3 74.1 -8 147.8q-4.7 41.5 8.35 78.8q0.35 0.95 1.45 1.7q-1 -69.2 1.55 -138.6q4.35 -118.65 8.85 -237.35q-6.2 1.5 -11.4 5.85q-25.4 21.35 -21.35 56.2q3.45 29.5 22.95 51.95q22.55 25.95 23.25 60.5q0.55 25.7 -26.2 22q-3.1 -2.55 -4 -6.45q-0.85 -3.8 -4.25 -3.55q-3.7 5.8 -2.1 12.8q2 8.75 10 11.6q18.3 6.45 27.45 -10.65q7.9 -14.75 6.9 -32.35q-1.7 -29.9 -21.4 -52.15q-22.95 -25.95 -25.1 -60.35q-2.25 -36.1 32.25 -40.9q4 2.15 6.05 6.1q2.1 4.05 4.95 7.15q2.3 -2.7 1.85 -6.5q-1.65 -13.3 -12.35 -21q-15.95 -35 -51.05 -48.8q-17.8 -2.3 -36.05 -1.8q-4.25 1.2 -8.65 3.15q-11.5 5 -20 13.85q-41.45 43 -47.2 102.95q-5.7 58.95 0.4 117.85q4.5 43.65 18.65 85.1q11.95 35.15 40.05 58.8q8.15 2.8 16.3 -0.35q55.75 -21.55 78.5 -75.5q23.3 -55.25 26.65 -115.2q3.4 -60.45 -17.4 -116.5q-5.5 -14.75 -12.05 -29.05q-6.5 27.15 -9.05 56.05q-2.55 28.85 -6.85 57.55q-3.9 25.85 -1.8 50.55q-0.25 1.75 0.4 2.75q1.95 0.35 2.15 -1.55q25.7 13.25 55.55 6.7q0.9 -1.35 1.3 -2.95q1.85 -6.8 -2.05 -12.05q-25.35 4.95 -50.5 2q6.5 -51.55 11.75 -103.6q3.1 -30.35 2.25 -59.35q-14.7 61 -67.95 94.8q-22.1 14 -45.1 1.45q-28.9 -15.7 -42.1 -46.85q-10.2 -24 -13.8 -49.75q-4.05 -28.75 -7.1 -57.8q-6.4 -59.8 6.9 -118.15q12.8 -56.45 64.05 -79.25q27.1 -2.9 50.75 4.75q20.8 14.3 33.45 36.2q30.1 51.9 31.65 112.3q1.35 52.3 -10.75 102.3q-3.8 4.35 -4.55 11.2q-4.95 46.35 -4.95 93.8q-39.6 1 -77.7 -3.8q1.2 -59.5 5.55 -118.5q1.15 -15.95 -2.4 -30q-0.75 0.1 -0.8 0.3q-3.4 58.95 -2.2 118.5q1.2 59.7 0 119.2q-0.45 22.35 -3.6 44.05q-2.5 17.45 4.25 29.2q2.95 -6.15 3.35 -13.45q3.2 -59.3 1.65 -118.5q-1 -38.6 -0.85 -77.2q1.45 1.3 3.45 1.4q37.65 2.05 74.7 1.9q0 13.3 -2.65 26q-3.6 17.2 3.6 29.5q5.65 -27.15 5 -56.25q-1.25 -59.7 -0.8 -119.2q1.25 -2.1 1.5 -4.5q-0.05 -2.85 -1.5 -5.25q-0.35 -0.4 -0.7 -0.4q0.4 -29.95 2.55 -59.85q1.65 -22.9 0.75 -44.4<g id="3098" transform="matrix(1, 0, 0, 1, -62, 0)">
<path style="fill:#000000;fill-opacity:1" d="M494.8,90.8Q490.3 209.5 485.95 328.15Q483.4 397.55 484.4 466.75Q483.3 466 482.95 465.05Q469.9 427.75 474.6 386.25Q482.9 312.55 482.6 238.45Q482.25 153.05 490.4 67.85L443.05 72.85L442.4 71.45Q441.05 68.35 441.45 65Q441.7 63 442.7 61.25Q462.5 56.5 482.9 54.8Q511.65 52.25 539.95 58.4L540.3 58.85L541.25 60.65Q542.2 62.7 542.15 64.75Q542.1 68.4 540.2 71.5L492.95 67.8L494.8 90.8M415.45,60.25Q426.15 67.95 427.8 81.25Q428.25 85.05 425.95 87.75Q423.1 84.65 421 80.6Q418.95 76.65 414.95 74.5Q380.45 79.3 382.7 115.4Q384.85 149.8 407.8 175.75Q427.5 198 429.2 227.9Q430.2 245.5 422.3 260.25Q413.15 277.35 394.85 270.9Q386.85 268.05 384.85 259.3Q383.25 252.3 386.95 246.5Q390.35 246.25 391.2 250.05Q392.1 253.95 395.2 256.5Q421.95 260.2 421.4 234.5Q420.7 199.95 398.15 174Q378.65 151.55 375.2 122.05Q371.15 87.2 396.55 65.85Q401.75 61.5 407.95 60L415.45 60.25M358.55,141.35Q379.35 197.4 375.95 257.85Q372.6 317.8 349.3 373.05Q326.55 427 270.8 448.55Q262.65 451.7 254.5 448.9L236.2 442.7Q208.1 419.05 196.15 383.9Q182 342.45 177.5 298.8Q171.4 239.9 177.1 180.95Q182.85 121 224.3 78Q232.8 69.15 244.3 64.15Q248.7 62.2 252.95 61Q271.2 60.5 289 62.8L295.45 63.5Q330.55 77.3 346.5 112.3Q353.05 126.6 358.55 141.35M384.45,278.5Q385.3 307.5 382.2 337.85Q376.95 389.9 370.45 441.45Q395.6 444.4 420.95 439.45L424.45 439.7Q428.35 444.95 426.5 451.75Q426.1 453.35 425.2 454.7Q395.35 461.25 369.65 448L369.35 450.15Q369.15 452.05 367.2 451.7L366.55 446Q365.9 445 366.15 443.25L366.25 442.75Q364.15 418.05 368.05 392.2Q372.35 363.5 374.9 334.65Q377.45 305.75 383.95 278.6L384.45 278.5M367.8,228.75Q366.25 168.35 336.15 116.45Q323.5 94.55 302.7 80.25Q279.05 72.6 251.95 75.5Q200.7 98.3 187.9 154.75Q174.6 213.1 181 272.9Q184.05 301.95 188.1 330.7Q191.7 356.45 201.9 380.45Q215.1 411.6 244 427.3Q267 439.85 289.1 425.85Q342.35 392.05 357.05 331.05Q369.15 281.05 367.8 228.75M160.45,97.65Q158.3 127.55 157.9 157.5L157.1 228.9L157.5 228.85Q157.85 228.85 158.2 229.25Q159.65 231.65 159.7 234.5L159.7 235.25L159.7 236L159.7 236.75L159.7 237.5Q159.45 239.9 158.2 242L156.95 242.05L156.65 276.75Q156.2 336.25 157.45 395.95Q158.1 425.05 152.45 452.2Q145.25 439.9 148.85 422.7Q151.5 410 151.5 396.7L151.6 277.5L151.65 242.05Q114.6 242.2 76.95 240.15Q74.95 240.05 73.5 238.75L72.9 238.05Q72.75 276.65 73.75 315.25Q75.3 374.45 72.1 433.75Q71.7 441.05 68.75 447.2Q62 435.45 64.5 418Q67.65 396.3 68.1 373.95Q69.3 314.45 68.1 254.75Q66.9 195.2 70.3 136.25L75.7 47.8Q75.75 47.6 76.5 47.5Q80.05 61.55 78.9 77.5Q74.55 136.5 73.35 196L72.95 226.05L74 225.25Q112.1 230.05 151.7 229.05L151.7 158.25Q151.7 110.8 156.65 64.45Q157.4 57.6 161.2 53.25Q162.1 74.75 160.45 97.65" />
</g>
</svg>
