<?xml version="1.0" encoding="utf-8"?>
<svg version="1.1" id="Layer_1"
xmlns="http://www.w3.org/2000/svg"
xmlns:xlink="http://www.w3.org/1999/xlink"


xml:space="preserve">
q2.85 -6.55 -1.25 -12.3q-1.35 -1.8 -3.5 -2.55q-24.5 -5 -29.45 23.1q-3.35 18.95 1 37.6q4.45 19.05 13.1 36.55q8.55 17.25 12.15 36.05q5.05 26.3 -17.65 34.9q-8.4 3.25 -17.4 1.6q-3.4 7.05 0.2 13.55q29.85 6.6 38.35 -21.85q4 -13.3 3.2 -27.35q-0.6 -10.55 -4.6 -20.4q-13.3 -30.9 6.3 -55.2q4.6 -5.7 12.1 -3.15q-3.6 15.95 -3.45 34.5q-3.95 -1 -8.15 -0.15q-3.45 0.7 -6.5 2.25q1.6 -43.2 -1.1 -85.85q-3.95 33 -6.05 68.15q-3.55 59.2 -3.2 118.55q0.75 2.8 3.25 1.5q2.4 -8.25 2.6 -17.25q0.6 -26.15 2.6 -52.35q-0.15 7.5 -1.55 14.75q-3.15 16.45 2.4 30q8.55 -38.25 7.35 -80q1.65 -2.75 1.55 -6q-0.35 -1.65 -1.25 -3.05q-7.9 62.75 -1.85 130.25q0.35 3.65 0.25 7.4q-1.4 13.2 4.15 24.95q6.1 -45.1 3 -90.65q-8.3 48.15 2.95 92.5q4.3 -49.2 4.8 -98.45q-0.15 -43.35 -0.85 -86.75q-7.55 42.05 -6.1 84.85q-26.2 -1.45 -51.4 5.8q18.65 12.75 22.2 34.9q3.75 23.55 -16.1 36q-21.1 13.25 -37.55 -2.1q-10.35 -9.65 -11.5 -24.6q-1.8 -23.15 14.5 -38.3q12.6 -11.7 28.45 -5.9q-19.5 10.7 -25.05 33.8q-4.9 20.5 -0.3 41.1q4 17.85 16.35 31.55q22.6 6.85 40.85 -7.35q7.25 -5.65 11.3 -14.05q8.15 -16.95 6.9 -35.65q-1.85 -27.75 -22.55 -46.7<g id="3121" transform="matrix(1, 0, 0, 1, -138.6, 0)">
<path style="fill:#000000;fill-opacity:1" d="M343.05,197.55Q323.45 221.85 336.75 252.75L354.6 295.15Q358.6 305 359.2 315.55Q360 329.6 356 342.9Q347.5 371.35 317.65 364.75Q314.05 358.25 317.45 351.2Q326.45 352.85 334.85 349.6Q357.55 341 352.5 314.7Q348.9 295.9 340.35 278.65Q331.7 261.15 327.25 242.1Q322.9 223.45 326.25 204.5Q331.2 176.4 355.7 181.4Q357.85 182.15 359.2 183.95Q363.3 189.7 360.45 196.25L355.15 194.4Q347.65 191.85 343.05 197.55M423.2,270.95Q424.1 272.35 424.45 274L424.65 275.5L424.75 276.95Q424.85 280.2 423.2 282.95L422.9 282.95L423.3 297.45Q424.5 339.2 415.95 377.45Q410.4 363.9 413.55 347.45Q414.95 340.2 415.1 332.7L415.75 282.25L378.7 280.95L377.4 300.85Q375.4 327.05 374.8 353.2Q374.6 362.2 372.2 370.45Q369.7 371.75 368.95 368.95Q368.6 309.6 372.15 250.4Q374.25 215.25 378.2 182.25Q380.9 224.9 379.3 268.1Q382.35 266.55 385.8 265.85Q390 265 393.95 266L415.85 269.7L415.75 213.5Q415.6 194.95 419.2 179L422.5 270.55L423.2 270.95M149.25,187.75L149.7 271.65Q174.9 264.4 201.1 265.85Q199.65 223.05 207.2 181Q207.9 224.4 208.05 267.75L208.3 269.95L208.45 270.95L208.5 271.95L208.5 273Q208 322.25 203.7 371.45Q192.45 327.1 200.75 278.95L149.75 280.3Q152.85 325.85 146.75 370.95Q141.2 359.2 142.6 346L143.9 334.3L144.55 326.8L144.9 319.4Q145 315.65 144.65 312Q138.6 244.5 146.5 181.75L149.25 187.75M254.5,286.6Q238.2 301.75 240 324.9Q241.15 339.85 251.5 349.5Q267.95 364.85 289.05 351.6Q308.9 339.15 305.15 315.6Q301.6 293.45 282.95 280.7Q267.1 274.9 254.5 286.6M289.45,267.95Q310.15 286.9 312 314.65Q313.25 333.35 305.1 350.3Q301.05 358.7 293.8 364.35Q275.55 378.55 252.95 371.7Q240.6 358 236.6 340.15Q232 319.55 236.9 299.05Q242.45 275.95 261.95 265.25L289.45 267.95" />
</g>
</svg>
