<?xml version="1.0" encoding="utf-8"?>
<svg version="1.1" id="Layer_1"
xmlns="http://www.w3.org/2000/svg"
xmlns:xlink="http://www.w3.org/1999/xlink"


xml:space="preserve">
q26.75 -3.8 52.8 0.5q2.5 -2.85 2.35 -6.75q-0.05 -1.95 -0.55 -3.75q-0.35 -1.25 -1.05 -2.25q-0.35 -0.4 -0.8 -0.45q-59.85 7.25 -120.5 9.75q-1.65 3.1 -1.3 6.75q0.15 1.9 0.6 3.8q0.4 1.5 1.7 2.2q17.15 -1.45 34.1 -3.8q-6.05 20.75 -4.95 45.35q2.65 59.35 3.7 119.2q1 59.6 0.15 119.2q-0.9 59.55 -3.3 119.2q-0.65 16.4 3.7 30.05q1.5 -0.35 1.6 -0.9q5.1 -39.05 4.55 -79.35q-0.8 -59.55 -1.1 -119.2q-0.25 -59.55 -1.4 -119.25q-1.1 -57.95 -1.6 -114.45q-21.5 39.95 -23.95 86.55q-3.05 59 -3.5 118.6q-0.05 34 19.4 59.95q11.55 7.95 25.25 4.45q9.45 -2.45 15.85 -9.5q38.75 -42.8 40.7 -101.65q1.95 -59.55 -2 -118.6q-3.4 -50.45 -22.8 -95.9q-11.05 -6.6 -24.8 -5.95q-11.7 6.4 -18.3 18.6q-6.4 -2.05 -13.35 -1.55q-27.75 18.55 -32.55 52.85q-8.2 58.15 -10.25 117.85q-1.9 55.75 8.1 110.05q5.8 31.6 36.85 19.6q9.8 -3.8 15.45 -12.3q33.2 -50.2 30.65 -112.15q-2.2 -49.15 -14.75 -96.35q-2.15 -8.15 -8.2 -13.85q-1.9 -5.3 -7.7 -5.65q0.85 21.65 2.15 43.35q0.45 7.35 3.45 14.15q-11.25 17.1 -10.35 40.75q-23.75 30.25 -5.65 66.9q21.15 42.8 26.95 89.7q2.05 16.85 1.3 33.7q-0.3 6.25 -2.25 11.85q-1.7 4.8 -5.95 7.55q-7.6 5.05 -16.75 4.85q-13.65 -0.55 -16.4 -14.1q-3.65 24.75 23.8 26.8q5.85 0.5 11.7 -1.3q30.45 -46.2 10.6 -103.2q-12.65 -36.25 -28.7 -71.3q-4.3 -9.4 -3.7 -19.65q0.55 -8.7 3.75 -16.9q16.35 -1.85 29 8.5q-2.6 -19.1 -22.9 -19.45q-16.25 70.25 -13.2 143.2q0.95 22.35 0.6 44.75q-42.8 -0.5 -83.5 12.55q-0.35 -102.1 3.35 -203.9q0.05 -1.7 -0.75 -3.35q-14.7 34.85 -11.3 81.85q3.25 44.45 2.8 89.25q0.05 31.75 -1.85 63.45q-0.7 11.9 1.7 23.45q0.85 3.95 3.1 7.35q6.05 -85.7 3.6 -171.75q-0.8 -28.45 -0.55 -56.9q41.4 -7 83.4 -9.1q-1.05 110.4 0.5 220.65q0.1 8.95 3.6 17.05q3.55 -134.35 2.8 -268.95q-0.3 -59.7 4.35 -118.95q0.6 -7.35 1.55 -14.7q1.85 -9.9 -1.5 -19.4q-7.25 48.75 -11.55 97.85q-0.5 5.6 2.9 8.25q1.35 36.05 14.15 67.8q16.15 -9.7 16.05 -29.55q-0.05 -5.75 -3.1 -10.55q-4.05 -6.35 -10.8 -9.65q-1.2 17.8 -16.7 26.5q-9.55 18.75 -8.8 41.65q0.3 13.2 2.95 24.6q11 49.5 30.8 95.75q0.3 0.75 1.4 0.8q-9.95 -45.4 -27.5 -89.9q-6.6 -18.05 -4.85 -37.75q2.3 -26.95 2.45 -52.4q-2.85 2.2 -3.15 6.8q-2 30.65 -4.5 61.35q-1.75 21.6 10.9 36.85q23.7 -12.4 26.4 -38.95q1.55 -15.65 -5.5 -25.4q0.2 35.05 -6.4 69.55q-3.2 16.7 -19.55 22q-7.95 2.55 -10.4 -4.15q-10.35 14.9 -15.9 32.15q-4.3 13.4 -10.95 25.6q-8.35 15.2 -12.6 31.7q-1.8 7.1 1.55 12.05q9.95 -25.8 27.6 -44.3q7.3 -7.7 19.85 -10.45q5.6 23.7 17.35 45.1q3.15 5.75 6.6 11.4q2.75 -5.5 0.35 -11.35q-11.1 -26.55 -19.3 -53.6q-10.8 1.05 -20.4 5.4q-1.95 28.95 0.65 55.35q7.05 -54.5 3.7 -109.45q-4.7 4.15 -4.35 12.1q0.9 21.25 -0.55 42.55<g id="3116" transform="matrix(1, 0, 0, 1, -26.75, 0)">
<path style="fill:#000000;fill-opacity:1" d="M416.5,68.3Q417 124.8 418.1 182.75Q419.25 242.45 419.5 302Q419.8 361.65 420.6 421.2Q421.15 461.5 416.05 500.55Q415.95 501.1 414.45 501.45Q410.1 487.8 410.75 471.4Q413.15 411.75 414.05 352.2Q414.9 292.6 413.9 233Q412.85 173.15 410.2 113.8Q409.1 89.2 415.15 68.45Q398.2 70.8 381.05 72.25L324.45 75Q323.15 74.3 322.75 72.8Q322.3 70.9 322.15 69Q321.8 65.35 323.45 62.25Q384.1 59.75 443.95 52.5L469.4 55.55Q469.85 55.6 470.2 56Q470.9 57 471.25 58.25Q471.75 60.05 471.8 62Q471.95 65.9 469.45 68.75Q443.4 64.45 416.65 68.25L416.5 68.3M193.95,56.5Q207.7 55.85 218.75 62.45L219.7 63L221.45 62.7L221.95 62.65L224.45 63.25Q243.85 108.7 247.25 159.15Q251.2 218.2 249.25 277.75Q247.3 336.6 208.55 379.4Q202.15 386.45 192.7 388.9Q179 392.4 167.45 384.45Q148 358.5 148.05 324.5L148.2 280.25Q148.65 220.65 151.7 161.65Q154.15 115.05 175.65 75.1Q182.25 62.9 193.95 56.5M209.3,71.05Q202.9 69 195.95 69.5Q168.2 88.05 163.4 122.35Q155.2 180.5 153.15 240.2Q151.25 295.95 161.25 350.25Q167.05 381.85 198.1 369.85Q207.9 366.05 213.55 357.55Q246.75 307.35 244.2 245.4L241.65 186.2Q239.45 137.05 226.9 89.85Q224.75 81.7 218.7 76L217.65 76.4Q215.75 71.1 209.95 70.75L209.3 71.05M270.2,152.25L265.45 250.5Q262.45 243.7 262 236.35Q260.7 214.65 259.85 193Q258.95 169.35 270.2 152.25M303.8,156.3Q324.1 156.65 326.7 175.75Q314.05 165.4 297.7 167.25L296.4 170.65Q293.2 178.85 292.65 187.55Q292.05 197.8 296.35 207.2Q312.4 242.25 325.05 278.5Q344.9 335.5 314.45 381.7Q308.6 383.5 302.75 383Q275.3 380.95 278.95 356.2L282.2 356.7Q284.95 370.25 298.6 370.8Q307.75 371 315.35 365.95Q319.6 363.2 321.3 358.4Q323.25 352.8 323.55 346.55Q324.3 329.7 322.25 312.85Q316.45 265.95 295.3 223.15Q277.2 186.5 300.95 156.25L303.8 156.3M137.45,77.05L135.35 91.75Q134.4 99.1 133.8 106.45Q129.15 165.7 129.45 225.4Q130.2 360 126.65 494.35L126.3 494.65Q122.8 486.55 122.7 477.6Q121.15 367.35 122.2 256.95Q80.2 259.05 38.8 266.05Q38.55 294.5 39.35 322.95Q41.8 409 35.75 494.7L34.3 492.7Q32.05 489.3 31.2 485.35Q28.8 473.8 29.5 461.9Q31.4 430.2 31.35 398.45L31.4 368.65L31.65 338.85L32 309L32.95 219.6Q33.4 174.8 30.15 130.35Q26.75 83.35 41.45 48.5Q42.25 50.15 42.2 51.85Q38.5 153.65 38.85 255.75Q79.55 242.7 122.35 243.2Q122.7 220.8 121.75 198.45Q118.7 125.5 134.95 55.25L135.95 57.65Q139.3 67.15 137.45 77.05M277.75,270.15Q280.8 274.95 280.85 280.7Q280.95 300.55 264.8 310.25L276.65 378.95Q263.85 347.2 262.5 311.15L258.85 312L250.8 376.85Q247.4 374.2 247.9 368.6Q252.2 319.5 259.45 270.75L259.2 265.5L266.95 260.5Q273.7 263.8 277.75 270.15M269.2,268L261.05 270.4L259.5 303.5Q275 294.8 276.2 277L269.2 268M314.25,395.95L318.95 408.3Q336.5 452.8 346.45 498.2Q345.35 498.15 345.05 497.4Q325.25 451.15 314.25 401.65L309.35 493.2Q306.7 481.8 306.4 468.6L305.4 432.6Q304.65 409.7 314.2 390.95L314.25 395.95M262,484.25Q278.35 478.95 281.55 462.25Q288.15 427.75 287.95 392.7Q295 402.45 293.45 418.1L289.35 458.5Q286.65 485.05 262.95 497.45L252.45 494.95Q239.8 479.7 241.55 458.1Q244.05 427.4 246.05 396.75Q246.35 392.15 249.2 389.95Q249.05 415.4 246.75 442.35Q245 462.05 251.6 480.1Q254.05 486.8 262 484.25M206.75,430.25Q214.95 457.3 226.05 483.85Q228.45 489.7 225.7 495.2Q222.25 489.55 219.1 483.8Q207.35 462.4 201.75 438.7Q189.2 441.45 181.9 449.15Q164.25 467.65 154.3 493.45Q150.95 488.5 152.75 481.4Q157 464.9 165.35 449.7Q172 437.5 176.3 424.1Q181.85 406.85 192.2 391.95L206.4 429.75L206.75 430.25M178.95,435.05Q188.55 430.7 199.35 429.65L192.4 402.15L178.95 435.05M347.85,404.3Q347.5 396.35 352.2 392.2Q355.55 447.15 348.5 501.65L347.95 502.2Q345.35 475.8 347.3 446.85Q348.75 425.55 347.85 404.3" />
</g>
</svg>
