<?xml version="1.0" encoding="utf-8"?>
<svg version="1.1" id="Layer_1"
xmlns="http://www.w3.org/2000/svg"
xmlns:xlink="http://www.w3.org/1999/xlink"


xml:space="preserve">
q-5.7 5.95 -7 15.85q-7.65 58.8 -17.2 117.25q-9.5 58.05 -18.35 116.25q-2.15 13.9 -5.1 27.6q-13.55 -52.45 -27.6 -104.2q-1.55 0.1 -1.55 1.65q-13.3 50.45 -19.8 104.15q-1.7 14.45 -6.25 28.15q-2.7 -38.8 -8.7 -77.5q-9.1 -58.45 -19.4 -116.65q-10.35 -58.45 -19.85 -116.4q-2.85 25.4 2.35 53.4q10.7 58.25 19.6 116.8q8.8 58.05 16.65 116.25q1 7.55 1.25 15.05q0.55 16.25 6.9 28.95q1.45 -0.45 1.95 -1.65q1.05 1.55 2.55 2.9q7.55 -22.5 9.65 -46.85q2.15 -24.2 8.25 -47.7q7.05 -26.95 5.35 -53.15q2.3 21.4 6.1 42.75q4.35 24.15 10 48.15q7 29.7 17.65 55.8q1.75 -1.85 1.75 -4.5q0 -8.95 -1.25 -17.75q3.1 -11.1 4.35 -22.85q6.35 -58.75 15.75 -117.1q9.35 -58.15 19.95 -116.05q4.15 -22.6 2.45 -43.7q-8.45 31.65 -15.85 65.35q-7.6 34.65 -17.9 68.35q-20.95 69.75 -39.95 140.95q-3.85 11.9 3.05 22.5q25.2 6.25 50.75 0.9q7.35 82.65 23.5 164.2q0.2 1.05 1 2q7.7 -29.7 -1.6 -61q-5.15 -17.25 -7.4 -35.55q-7.2 -58.5 -12.9 -117.25q-4.55 -40.55 -12.4 -80.55q-2.5 25.35 -3.5 52.4q-1.7 47.5 -0.65 95.1q-36.1 -4.9 -68.3 4.8q0.75 -18.95 2.75 -37.8q6.25 -59.6 1.05 -118.65q-2.25 -0.1 -2.3 2.25q-0.55 33.1 -3.3 65.9q-5 59.3 -5.05 119.35q-0.05 59.55 -4.75 118.35q-1.35 16.6 3.9 29.85q6.2 -17.35 6.4 -38q0 -5.5 0.15 -10.95q41.1 -2.2 82.2 -1.1q2.2 60.2 -4.05 117q1.3 4.8 0.3 9.55q-3.6 16.55 2.2 29.95q1.75 -0.25 1.95 -2q6.65 -58.5 5.25 -118.45q-0.55 -23.45 -0.4 -46.95q1 -1.45 1.2 -3.3q0.4 -3.8 -0.8 -7.5q0.45 -30.35 2.1 -60.7q2.45 -45.15 -3.5 -88.6q-22.95 2.5 -46.2 1.65<g id="3108" transform="matrix(1, 0, 0, 1, -72.75, 0)">
<path style="fill:#000000;fill-opacity:1" d="M452,135.2Q441.4 193.1 432.05 251.25Q422.65 309.6 416.3 368.35Q415.05 380.1 411.95 391.2Q413.2 400 413.2 408.95Q413.2 411.6 411.45 413.45Q400.8 387.35 393.8 357.65Q388.15 333.65 383.8 309.5Q380 288.15 377.7 266.75Q379.4 292.95 372.35 319.9Q366.25 343.4 364.1 367.6Q362 391.95 354.45 414.45Q352.95 413.1 351.9 411.55Q351.4 412.75 349.95 413.2Q343.6 400.5 343.05 384.25Q342.8 376.75 341.8 369.2Q333.95 311 325.15 252.95Q316.25 194.4 305.55 136.15Q300.35 108.15 303.2 82.75Q312.7 140.7 323.05 199.15Q333.35 257.35 342.45 315.8Q348.45 354.5 351.15 393.3Q355.7 379.6 357.4 365.15Q363.9 311.45 377.2 261L377.65 265.9Q377.65 264.35 379.2 264.25Q393.25 316 406.8 368.45Q409.75 354.75 411.9 340.85Q420.75 282.65 430.25 224.6Q439.8 166.15 447.45 107.35Q448.75 97.45 454.45 91.5Q456.15 112.6 452 135.2M270.8,96.4Q278.65 136.4 283.2 176.95L286.05 204.4Q291.75 263.15 298.95 321.65Q301.2 339.95 306.35 357.2Q315.65 388.5 307.95 418.2Q307.15 417.25 306.95 416.2Q290.8 334.65 283.45 252Q257.9 257.35 232.7 251.1L186.95 415.95Q180.05 405.35 183.9 393.45L184.5 393.75L187.95 381.05Q206.95 309.85 227.9 240.1L229.6 239.55L234.9 222.25Q245.2 188.55 252.8 153.9Q260.2 120.2 268.65 88.55L268.9 88.45L269.55 89.9L270.45 87.5L270.8 96.4M172.45,86Q178.4 129.45 175.95 174.6Q174.3 204.95 173.85 235.3L174.15 236Q175.35 239.7 174.95 243.5Q174.75 245.35 173.75 246.8Q173.6 270.3 174.15 293.75Q175.55 353.7 168.9 412.2Q168.7 413.95 166.95 414.2Q161.15 400.8 164.75 384.25Q165.75 379.5 164.45 374.7Q170.7 317.9 168.5 257.7L168.2 247.9Q127.1 246.8 86 249L85.35 248.8Q85.2 254.25 85.2 259.75L84.4 378.95Q84.2 399.6 78 416.95Q72.75 403.7 74.1 387.1Q78.8 328.3 78.85 268.75Q78.9 208.7 83.9 149.4Q86.65 116.6 87.2 83.5Q87.25 81.15 89.5 81.25Q94.7 140.3 88.45 199.9Q86.45 218.75 85.7 237.7Q117.9 228 154 232.9L154.95 232.75L165 233.35L167.8 233.55Q166.75 185.95 168.45 138.45Q169.45 111.4 171.95 86.05L172.45 86M263.7,145.45L235.95 239.8Q259.2 240.65 282.15 238.15L269.25 120.2L263.7 145.45" />
</g>
</svg>
