<?xml version="1.0" encoding="utf-8"?>
<svg version="1.1" id="Layer_1"
xmlns="http://www.w3.org/2000/svg"
xmlns:xlink="http://www.w3.org/1999/xlink"


xml:space="preserve">
q-1.85 4.95 0.15 9.7q0.9 0.5 1.75 0.5q45.6 0.05 91.15 -1q-2.65 14.6 -3.05 30.75q-1.45 59.1 -0.35 118.5q1.1 60 -3.3 119.2q-1.1 15 -3.55 29.75q-2.9 17.5 4.35 29.25q7.2 -47.9 8.45 -97.45q1.45 -59.5 0.85 -119.25q-0.6 -55.9 -1.65 -110.8q2.95 -7.45 -1.65 -13.45q1.8 -18.55 -19.4 -19.5q-5.3 0.8 -9.9 4.15q-3.85 2.8 -6.2 6.7q-22.9 38.15 -26.75 83.15q-5.05 59.05 -3.05 118.45q1 30.4 9.35 58.95q4.6 15.8 17.4 24.95q16.6 11.85 33.05 0.5q22.1 -15.3 24.35 -41.9q-0.6 0.4 -1.05 0.95q-2 2.6 -3.5 5.55q-0.65 1.25 -2.2 0.75q-4.15 6.8 -9.8 12.25q-6.45 6.25 -15.15 8.5q-25 6.55 -34.05 -16.2q-12.8 -32.2 -13.65 -67.75q-0.9 -59.5 11.5 -116.7q4.7 -21.4 20.65 -35.05q5.25 -4.55 12.1 -3.55q9.9 1.45 16.7 5.8q0.85 56.2 2.1 112.2q-25.7 3 -51.5 1.75q-0.95 -60.3 0.1 -118.5q-7.7 22.75 -6.6 49.5q2.35 59.3 0.25 118.5q-2.15 60.05 -10.4 119.1q-2.3 16.55 3.5 29.85q8 -38.4 10.5 -79.9q2.4 -39.05 2.8 -78.35q26.05 5.95 51.85 2.3q0.65 55.75 -6.55 111q-3.1 23.8 1.9 45.2q1 -0.35 1.1 -0.9q7.5 -35.15 9.3 -71.75q2.9 -59.4 1.25 -119.3q-1.65 -60 -4.65 -119.25q-5.05 12.25 -4.75 28.5q-4.15 14.95 -2.2 30.75q6.95 57.05 6.7 115.35q-0.25 62.35 -25.45 119.15q-13.8 31.1 -46.1 17.8q-14.35 -50.3 -10.9 -103.6q3.8 -59.5 7.1 -119.05q1.7 -30.75 -0.45 -59.3q-2.45 2.25 -2.9 5.95q-2.3 18.9 -3 38.25q-2.1 59.35 -5.9 118.5q-3.9 60.3 7.4 118.5q5.3 27.45 35.1 19.4q7.15 -1.9 11.25 -7.8q27.75 -39.55 34.85 -88.35q6.3 -43.6 6.05 -88.45q-0.35 -60.1 -10.35 -117.75q-1 -0.2 -1.2 0.65q-3.3 10 -2.85 21.65q1.35 36.45 0.8 72.7q-1 60 -4.95 119.25q-3 30.65 -0.25 59.35q1.1 -0.35 1.3 -1q5.55 -16.9 5.65 -35q0.3 -59.45 2.95 -118.55q28.8 9.2 58.9 8.15q0.25 22.65 -3.35 44.65q-2.75 17.05 4.4 29.55q5.85 -26.8 5.5 -55.45q-0.65 -51.5 -0.65 -102.7q0.05 -1.4 -0.3 -2.65q0.1 -60.4 -4.85 -119.25q-2.35 49.4 -1.8 100.5q-26.05 2.45 -51.45 -4.6q-3.95 -0.75 -6.95 1.1q2.7 -44.8 -2.75 -88.6<g id="3138" transform="matrix(1, 0, 0, 1, -47.5, 0)">
<path style="fill:#000000;fill-opacity:1" d="M343.1,70.7L342.7 71.5L281.35 73.45Q282.4 128.35 283 184.25Q283.6 244 282.15 303.5Q280.9 353.05 273.7 400.95Q266.45 389.2 269.35 371.7Q271.8 356.95 272.9 341.95Q277.3 282.75 276.2 222.75Q275.1 163.35 276.55 104.25Q276.95 88.1 279.6 73.5Q234.05 74.55 188.45 74.5Q187.6 74.5 186.7 74Q184.7 69.25 186.55 64.3L186.95 63.5L341.45 57.25Q346.05 63.25 343.1 70.7M369.2,118.75Q362.4 114.4 352.5 112.95Q345.65 111.95 340.4 116.5Q324.45 130.15 319.75 151.55Q307.35 208.75 308.25 268.25L308.8 297.5Q309.65 333.05 322.45 365.25Q331.5 388 356.5 381.45Q365.2 379.2 371.65 372.95Q377.3 367.5 381.45 360.7Q383 361.2 383.65 359.95Q385.15 357 387.15 354.4Q387.6 353.85 388.2 353.45Q385.95 380.05 363.85 395.35Q347.4 406.7 330.8 394.85Q318 385.7 313.4 369.9Q305.05 341.35 304.05 310.95Q302.05 251.55 307.1 192.5Q310.95 147.5 333.85 109.35Q336.2 105.45 340.05 102.65Q344.65 99.3 349.95 98.5Q371.15 99.45 369.35 118L369.2 118.75M468.45,100.25Q471.45 159.5 473.1 219.5Q474.75 279.4 471.85 338.8Q470.05 375.4 462.55 410.55Q462.45 411.1 461.45 411.45Q456.45 390.05 459.55 366.25Q466.75 311 466.1 255.25Q440.3 258.9 414.25 252.95Q413.85 292.25 411.45 331.3Q408.95 372.8 400.95 411.2Q395.15 397.9 397.45 381.35Q405.7 322.3 407.85 262.25Q409.95 203.05 407.6 143.75Q406.5 117 414.2 94.25Q413.15 152.45 414.1 212.75L414.3 242.7Q440.1 243.95 465.8 240.95Q464.55 184.95 463.7 128.75Q463.4 112.5 468.45 100.25M228.45,93.5Q238.45 151.15 238.8 211.25Q239.05 256.1 232.75 299.7Q225.65 348.5 197.9 388.05Q193.8 393.95 186.65 395.85Q156.85 403.9 151.55 376.45Q140.25 318.25 144.15 257.95Q147.95 198.8 150.05 139.45Q150.75 120.1 153.05 101.2Q153.5 97.5 155.95 95.25Q158.1 123.8 156.4 154.55Q153.1 214.1 149.3 273.6Q145.85 326.9 160.2 377.2Q192.5 390.5 206.3 359.4Q231.5 302.6 231.75 240.25Q232 181.95 225.05 124.9Q223.1 109.1 227.25 94.15Q227.45 93.3 228.45 93.5M60.5,94.75Q65.95 138.55 63.25 183.35L61.05 224.85Q64.05 223 68 223.75Q93.4 230.8 119.45 228.35L119.15 201Q118.6 149.9 120.95 100.5L121.45 100.5Q126.4 159.35 126.3 219.75L126.3 231.35Q126.65 232.6 126.6 234L126.3 236.3Q126.3 287.5 126.95 339Q127.3 367.65 121.45 394.45Q114.3 381.95 117.05 364.9Q120.65 342.9 120.4 320.25L119.55 240.95Q89.45 242 60.65 232.8L60.15 243.15Q57.5 302.25 57.2 361.7Q57.1 379.8 51.55 396.7Q51.35 397.35 50.25 397.7Q47.5 369 50.5 338.35L52.95 308.5Q56.9 249.25 57.9 189.25Q58.45 153 57.1 116.55Q56.65 104.9 59.95 94.9L60.5 94.75" />
</g>
</svg>
