<?xml version="1.0" encoding="utf-8"?>
<svg version="1.1" id="Layer_1"
xmlns="http://www.w3.org/2000/svg"
xmlns:xlink="http://www.w3.org/1999/xlink"


xml:space="preserve">
q-9.35 -0.85 -18.75 1.2q-5.5 1 -10.75 3.05q14.95 -2.25 30.1 -2.7q-2.9 11.5 -4.1 23.25q-0.2 3.05 -0.15 6.15q1.55 65.95 2 131.85q0.9 131 6.05 261.15q0.15 3.3 1.35 6.55q2.45 -11.85 3.15 -23.9q-1.6 -31.15 -2.05 -62.05q0.9 -1.3 1.35 -3.05q-10.2 -14.05 -26.65 -9.45q-8.15 27.3 -6.45 64.2q1.85 40.55 -4.15 80.85q-5.7 38.35 4.5 74.05q8.6 0.75 15.25 -4.4q6.65 65.1 25.55 127.15q1 -64.4 -22.4 -128.35q32.75 -36.9 12.3 -81.1q2.9 -9 -2.45 -16.4q-8.5 -11.8 -22 -5.4q-10.8 5 -10.9 17.25q1.5 22.45 17.6 39.85q15.2 16.4 13.45 39q-2.05 26.95 -21.65 17.2q-7.15 -3.5 -12.8 -10.55q-4.3 10.7 1.85 20.45q8.6 13.55 22.2 7.9q9 -3.75 12.2 -13.6q10.3 -31.85 -5.2 -60.75q-6.55 -12.45 6.65 -15q5.15 -0.95 10.2 0q0.1 -2.2 1.55 -3.75q6.65 12.1 6 29.3q-1.15 29.95 0.6 59.9q3.45 59.35 3.45 119.3q-0.05 59.95 -7.1 119.15q-6.35 53.35 -29.15 101.4q-5.15 10.95 -17.1 13.2q-35.6 6.7 -48.75 -23.9q-4.35 -10.05 -5.6 -21.15q-6.65 -57.95 -4.6 -117q2.1 -59.5 2.3 -119.2q0.2 -59.8 0.55 -119.25q0.1 -22.8 5.15 -43q3.65 12.95 3.05 29.8q-2.15 59.55 -2.4 119.2q-0.2 59.7 -2.55 119.2q-2.35 59.65 2.25 118.65q1.55 20.05 15 34.1q4.4 4.65 10.85 6.3q17.55 4.6 33.8 -2.55q18.85 -26.3 24.7 -58.95q2.7 -15.15 5 -30.3q8.8 -59 8.6 -119.2q-0.2 -59.9 -3.95 -119.3q-2.7 -43.3 -2.6 -86.95q0.9 -2.05 0.25 -4.15q20.35 13.6 16.35 37.9q-5.15 31.15 -33.15 37.5q0.65 -36.9 -0.1 -73.2q8.1 -2.2 16.9 -2.2q-12.9 38.8 -12.45 80.2q0.55 51.8 3.55 103.75q-21.95 -2.55 -44.25 -1.5q-16.35 1.2 -32 5.7q-7.85 2.35 -15.6 5.15q4.15 -97.35 11.2 -194.6q0.6 -8.6 -2.95 -7.25q-11.75 64.05 -12.2 129.6q-0.6 82.2 -0.35 164.2q0.1 44.35 -1.4 88.85q-0.65 18.75 0.25 37.7q0.9 8.8 4.35 13.45q5.6 -101.8 1.2 -203.85q-0.55 -13.2 -0.7 -26.4q45.7 -9.45 92.25 -6.15q5.25 114.75 0.65 229.55q-0.35 8.5 4.35 15.6q6.15 -100 2.65 -205.55q-2.6 -78.25 -4.85 -156.5q-0.3 -11.1 0.75 -22.3q1.05 -10.85 3.25 -21.9q3.45 -12.85 0.35 -25.85q-6.05 38.45 -11.35 76.95q-1.05 7.65 -0.6 15.45q0.45 7.2 3.75 12.9q8.9 -50.15 10.1 -100.95q18.6 46.3 40.75 90.75q4.15 -6.5 0.65 -14.55q-14.85 -35.9 -36.65 -67.85q1.15 -5.35 -0.95 -2.95q1.95 -28.15 0.25 -54.85q-6.6 25.85 -7.6 54.75q-1 28.65 3.35 54.5q2.9 -2.35 2.85 -6.5q-0.55 -24.05 1.15 -47.9<g id="3134" transform="matrix(1, 0, 0, 1, -28.85, 0)">
<path style="fill:#000000;fill-opacity:1" d="M503.65,58.5L504.35 61.1L504.65 63L504.6 63.75L504.45 64.5L504.3 65.2Q503.85 66.95 502.95 68.25L446.15 65.15L450.7 401.95Q451.15 432.85 452.75 464L452.8 470.2L452.6 476.3Q451.9 488.35 449.45 500.2Q448.25 496.95 448.1 493.65Q442.95 363.5 442.05 232.5Q441.6 166.6 440.05 100.65Q440 97.55 440.2 94.5L440.7 88.35Q441.9 76.6 444.8 65.1L394.8 63.45L388.65 63.45L382.55 63.55Q367.4 64 352.45 66.25L351.45 56.5Q356.7 54.45 362.2 53.45Q371.6 51.4 380.95 52.25L409.6 52.9L438.2 53.65L502.95 57L503.65 58.5M329.35,166.5Q349.8 210.7 317.05 247.6Q340.45 311.55 339.45 375.95Q320.55 313.9 313.9 248.8Q307.25 253.95 298.65 253.2L290.7 377.2Q280.5 341.5 286.2 303.15Q292.2 262.85 290.35 222.3Q288.65 185.4 296.8 158.1L298.45 155.25L298.55 157.55L302.3 156.3Q318.75 151.7 328.95 165.75L329.35 166.5M372.75,254.5Q359.55 257.05 366.1 269.5L383 301.2Q398.5 330.1 388.2 361.95Q385 371.8 376 375.55Q362.4 381.2 353.8 367.65Q347.65 357.9 351.95 347.2Q357.6 354.25 364.75 357.75Q384.35 367.5 386.4 340.55Q388.15 317.95 372.95 301.55Q356.85 284.15 355.35 261.7Q355.45 249.45 366.25 244.45Q379.75 238.05 388.25 249.85Q393.6 257.25 390.7 266.25L388.05 264.9L386.7 259L382.95 254.5Q377.9 253.55 372.75 254.5M265.6,57.7L265.95 57.75Q266.05 55.55 267.5 54L268.2 53.25Q274.85 65.35 274.2 82.55Q273.05 112.5 274.8 142.45Q278.25 201.8 278.25 261.75Q278.2 321.7 271.15 380.9Q264.8 434.25 242 482.3Q236.85 493.25 224.9 495.5Q189.3 502.2 176.15 471.6Q171.8 461.55 170.55 450.45Q163.9 392.5 165.95 333.45Q168.05 273.95 168.25 214.25Q168.45 154.45 168.8 95Q168.9 72.2 173.95 52Q177.6 64.95 177 81.8Q174.85 141.35 174.6 201Q174.4 260.7 172.05 320.2Q169.7 379.85 174.3 438.85Q175.85 458.9 189.3 472.95Q193.7 477.6 200.15 479.25Q217.7 483.85 233.95 476.7Q252.8 450.4 258.65 417.75Q261.35 402.6 263.65 387.45Q272.45 328.45 272.25 268.25Q272.05 208.35 268.3 148.95Q265.6 105.65 265.7 62L265.35 61.85Q266.25 59.8 265.6 57.7M298.8,167.45Q299.55 203.75 298.9 240.65Q326.9 234.3 332.05 203.15Q336.05 178.85 315.7 165.25Q306.9 165.25 298.8 167.45M136.5,79.1L135 86.35Q132.8 97.4 131.75 108.25Q130.7 119.45 131 130.55Q133.25 208.8 135.85 287.05Q139.35 392.6 133.2 492.6L132.45 491.6Q127.75 484.5 128.1 476Q132.7 361.2 127.45 246.45Q80.9 243.15 35.2 252.6Q35.35 265.8 35.9 279Q40.3 381.05 34.7 482.85Q31.25 478.2 30.35 469.4L29.75 461.8Q28.85 442.85 29.5 424.1Q31 379.6 30.9 335.25Q30.65 253.25 31.25 171.05Q31.7 105.5 43.45 41.45Q47 40.1 46.4 48.7Q39.35 145.95 35.2 243.3Q42.95 240.5 50.8 238.15Q66.45 233.65 82.8 232.45Q105.1 231.4 127.05 233.95Q124.05 182 123.5 130.2Q123.05 88.8 135.95 50L136.85 53.25Q139.95 66.25 136.5 79.1M302,385.2L302.45 384.3Q304.55 381.9 303.4 387.25Q325.2 419.2 340.05 455.1L351.1 481.15Q354.6 489.2 350.45 495.7L344.05 483.4Q321.9 438.95 303.3 392.65Q302.1 443.45 293.2 493.6Q289.9 487.9 289.45 480.7Q289 472.9 290.05 465.25Q295.35 426.75 301.4 388.3L300.15 384.55L300.35 384.35L302 385.2M357.8,488.7Q357.85 492.85 354.95 495.2Q350.6 469.35 351.6 440.7Q352.6 411.8 359.2 385.95Q360.9 412.65 358.95 440.8Q357.25 464.65 357.8 488.7" />
</g>
</svg>
