<?xml version="1.0" encoding="utf-8"?>
<svg version="1.1" id="Layer_1"
xmlns="http://www.w3.org/2000/svg"
xmlns:xlink="http://www.w3.org/1999/xlink"


xml:space="preserve">
q-2.7 24.05 -3.3 48.1q-0.45 17.85 -18.2 24.5q-26 9.7 -38.75 -13.55q-5.45 -9.95 -4.75 -21.8q1.3 -20.95 -0.5 -42q-10 36.3 -0.7 72.35q3.55 13.7 17.6 18.3q45.95 14.75 53.85 -32.25q2.9 -17.1 2.05 -34.45q0.05 -9.7 -5.75 -17.35q-5.05 20.45 -5.15 42.65q-0.15 22.7 -0.85 45.35q-27.2 -0.25 -54 -3.6q-5.9 0.3 -10.65 3.25q1.2 -30.6 -3.8 -59.25q-2.3 21.6 -2.55 44.95q-0.65 59.65 -3.85 119.15q-0.95 16.9 4.95 29.3q3.8 -6.6 3.75 -15q-0.25 -39.05 0.7 -78q43.45 -0.65 87.5 2.45q-1.15 29.95 -3.35 59.75q-1.2 16.55 3.85 29.8q0.9 -0.6 0.95 -1.3q3.85 -35.7 5.05 -71.9q2.05 -59.85 0.5 -118.5<g id="3126" transform="matrix(1, 0, 0, 1, -154.6, 0)">
<path style="fill:#000000;fill-opacity:1" d="M389.25,292.4Q390.1 309.75 387.2 326.85Q379.3 373.85 333.35 359.1Q319.3 354.5 315.75 340.8Q306.45 304.75 316.45 268.45Q318.25 289.5 316.95 310.45Q316.25 322.3 321.7 332.25Q334.45 355.5 360.45 345.8Q378.2 339.15 378.65 321.3Q379.25 297.25 381.95 273.2L383.5 275.05Q389.3 282.7 389.25 292.4M259.45,177.5Q261 236.15 258.95 296Q257.75 332.2 253.9 367.9Q253.85 368.6 252.95 369.2Q247.9 355.95 249.1 339.4Q251.3 309.6 252.45 279.65Q208.4 276.55 164.95 277.2Q164 316.15 164.25 355.2Q164.3 363.6 160.5 370.2Q154.6 357.8 155.55 340.9Q158.75 281.4 159.4 221.75Q159.65 198.4 161.95 176.8L162.5 176.75Q167.5 205.4 166.3 236L165.25 266.25Q170 263.3 175.9 263L197.95 262Q224.75 265.35 251.95 265.6L252.95 265.6Q253.65 242.95 253.8 220.25Q253.9 198.05 258.95 177.6L259.45 177.5" />
</g>
</svg>
