<?xml version="1.0" encoding="utf-8"?>
<svg version="1.1" id="Layer_1"
xmlns="http://www.w3.org/2000/svg"
xmlns:xlink="http://www.w3.org/1999/xlink"


xml:space="preserve">
q-0.85 0.15 -1.6 0.8q-0.85 0.95 -1.05 2.2q-0.45 3.1 0.35 6.1q-0.2 59.1 -1.05 118.15q-0.9 59.85 -8.05 117.7q-1.1 -11 0.3 -21.8q-2.55 6.1 -2.4 13.75q0.1 7.65 -0.6 14.85q-1.55 16.8 4.75 29.9q1 -0.6 1.15 -1.35q8.15 -50.35 9.8 -101.85q0.95 -29.05 2.25 -58.2q7.7 -0.85 14.55 -4.95q-0.95 15.5 2.75 31.2q13.65 57.45 21.25 116q2.25 17.45 11.25 28.15q5.55 -9.85 1 -21q1.75 -4.3 -0.3 -2.8q-1.4 0 -2.45 -4.4q-5.2 -21.55 -8.55 -43.35q-8.35 -53.95 -20.4 -106.55q33.85 -26.8 26.85 -68.9q-6.4 -38.4 -43.45 -46q-2.8 2.05 -6.9 2.95q-9.45 19.65 -28.85 29.3q23.1 1.25 35.1 20.85q11.5 18.75 2 38.65q-34.65 26.8 -29.85 71.05q2.05 18.7 10.1 35.8q6.35 13.5 15.35 25.1q19.1 24.75 30.1 54q9 23.8 9.2 49.25q0.1 10.25 -4.3 19.2q-2.4 4.95 -6.15 8.8q-21.65 22.05 -47.75 1.65q-4.9 -3.85 -6.95 -10.3q-0.45 -1.5 -1.75 -2.65q-4.85 15.8 8 33.8q23.3 14.05 46.55 2.3q12.2 -6.15 17.35 -18.9q5.45 -13.4 6.55 -27.8q2.55 -33.5 -9.5 -65q-9.6 -25.1 -26.95 -45.6q-11.9 -14.1 -19.1 -31.1q-5.4 -12.7 -8.4 -26.25q-7.9 -35.7 20.5 -57.85q18.8 3.3 34.25 14.75q1.35 -2.1 1.5 -4.65q0.25 -4.15 -1.25 -8.1q-12.25 -14.75 -31.05 -17.65q-2.55 57.75 -2.5 115.95q-34.4 1.3 -66.5 10.2q0.35 -15 1.8 -29.85q2.95 -30.5 -1.2 -59.4q-4 1.75 -4.3 6.95q-3.4 59.3 -3.65 119.3q-0.25 59.85 -2.45 119.25q-0.55 14.95 -2.05 29.85q-1.4 14.15 5.95 21.6q4.3 -21.3 3.1 -44.25q-1.1 -22.35 -0.45 -44.3q-0.2 52.6 -2 105.05q-0.55 16.4 -4.75 27.95q-0.2 2.65 1.75 4.5q-1.15 7.25 3.25 12q5.3 -4.4 5.5 -12.75q1.35 -47.3 2.1 -94.45q0.55 -33.25 1.9 -66.7q2.4 -60.15 -0.5 -118.55q-4.45 3.25 -4.75 10.15q-8.6 20.2 -12.75 41.8q-3.9 20 -4.1 40.3q-0.2 18.2 0.85 36.4q1 18 2.75 35.9q2.15 22.05 11.15 41.75q9.05 19.8 26.95 32.55q18.2 13 39.5 3.5q20.2 -9.1 29.9 -29.05q6.3 -12.85 -1.85 -24.5q-12 35.05 -45.6 35.85q-17.1 1.3 -30.25 -10.55q-9.75 -8.85 -13.7 -21.3q-7.85 -24.85 -10.55 -50.95q-2.3 -22.2 -2.15 -44.55q3.35 -5.35 1.4 -11.15q-0.85 -2.45 -2.95 -4.1q-32.3 2.8 -63.7 14.25q0.75 -55.25 38.75 -93.8q16.25 -16.5 39.6 -13.3q10.55 1.65 15.7 11.3q1.15 2.25 3.7 2.05q-0.5 -25.15 -25.9 -28.75q-22.05 -3.05 -38.6 13.55q-15.25 15.4 -23.65 35.25<g id="3136" transform="matrix(1, 0, 0, 1, -89.6, 0)">
<path style="fill:#000000;fill-opacity:1" d="M339.95,118.5Q377 126.1 383.4 164.5Q390.4 206.6 356.55 233.4Q368.6 286 376.95 339.95Q380.3 361.75 385.5 383.3Q386.55 387.7 387.95 387.7Q390 386.2 388.25 390.5L387.95 391.2Q392.5 402.35 386.95 412.2Q377.95 401.5 375.7 384.05Q368.1 325.5 354.45 268.05Q350.75 252.35 351.7 236.85Q344.85 240.95 337.15 241.8Q335.85 270.95 334.9 300Q333.25 351.5 325.1 401.85Q324.95 402.6 323.95 403.2Q317.65 390.1 319.2 373.3Q319.9 366.1 319.8 358.45Q319.65 350.8 322.2 344.7Q320.8 355.5 321.9 366.5L321.95 367.2Q329.1 309.35 330 249.5Q330.85 190.45 331.05 131.35L330.75 130.55Q329.95 127.55 330.4 124.45Q330.6 123.2 331.45 122.25Q332.2 121.6 333.05 121.45Q337.15 120.55 339.95 118.5M372,153.6Q360 134 336.9 132.75L337.8 225.05L345.15 221.55Q364.55 211.9 374 192.25Q383.5 172.35 372 153.6M440.4,123.6Q459.2 126.5 471.45 141.25Q472.95 145.2 472.7 149.35Q472.55 151.9 471.2 154Q455.75 142.55 436.95 139.25Q408.55 161.4 416.45 197.1Q419.45 210.65 424.85 223.35Q432.05 240.35 443.95 254.45Q461.3 274.95 470.9 300.05Q482.95 331.55 480.4 365.05Q479.3 379.45 473.85 392.85Q468.7 405.6 456.5 411.75Q433.25 423.5 409.95 409.45Q397.1 391.45 401.95 375.65L405.95 375.15Q407.25 376.3 407.7 377.8Q409.75 384.25 414.65 388.1Q440.75 408.5 462.4 386.45Q466.15 382.6 468.55 377.65Q472.95 368.7 472.85 358.45Q472.65 333 463.65 309.2Q452.65 279.95 433.55 255.2Q424.55 243.6 418.2 230.1Q410.15 213 408.1 194.3Q403.3 150.05 437.95 123.25L440.4 123.6M175.45,108.75Q178.35 167.15 175.95 227.3Q174.6 260.75 174.05 294Q173.3 341.15 171.95 388.45Q171.75 396.8 166.45 401.2Q162.05 396.45 163.2 389.2Q161.25 387.35 161.45 384.7Q165.65 373.15 166.2 356.75Q168 304.3 168.2 251.7L101.35 258.1L99.6 315.9Q98.95 337.85 100.05 360.2Q101.25 383.15 96.95 404.45Q89.6 397 91 382.85Q92.5 367.95 93.05 353Q95.25 293.6 95.5 233.75Q95.75 173.75 99.15 114.45Q99.45 109.25 103.45 107.5Q107.6 136.4 104.65 166.9Q103.2 181.75 102.85 196.75L101.7 245.05Q133.8 236.15 168.2 234.85Q168.15 176.65 170.7 118.9Q171 112 175.45 108.75M233.45,128.55Q250 111.95 272.05 115Q297.45 118.6 297.95 143.75Q295.4 143.95 294.25 141.7Q289.1 132.05 278.55 130.4Q255.2 127.2 238.95 143.7Q200.95 182.25 200.2 237.5Q231.6 226.05 263.9 223.25Q266 224.9 266.85 227.35Q268.8 233.15 265.45 238.5L199.95 250.95Q199.8 273.3 202.1 295.5Q204.8 321.6 212.65 346.45Q216.6 358.9 226.35 367.75Q239.5 379.6 256.6 378.3Q290.2 377.5 302.2 342.45Q310.35 354.1 304.05 366.95Q294.35 386.9 274.15 396Q252.85 405.5 234.65 392.5Q216.75 379.75 207.7 359.95Q198.7 340.25 196.55 318.2Q194.8 300.3 193.8 282.3Q192.75 264.1 192.95 245.9Q193.15 225.6 197.05 205.6Q201.2 184 209.8 163.8Q218.2 143.95 233.45 128.55" />
</g>
</svg>
