<?xml version="1.0" encoding="utf-8"?>
<svg version="1.1" id="Layer_1"
xmlns="http://www.w3.org/2000/svg"
xmlns:xlink="http://www.w3.org/1999/xlink"


xml:space="preserve">
q1.15 -20.1 -18.3 -26.75q-19.35 17.05 -24.7 44.1q-11.55 58.1 -19.6 117q-7.95 58 -6.1 117.15q0.8 24.65 17.2 42.5q4.4 4.8 10.6 2.4q38.35 -15.1 43.1 -56.45q-2.75 5.85 -6.1 11.55q-13.1 22.1 -36.25 31.3q-6.2 2.5 -9.8 -2.55q-15.55 -21.65 -14.8 -49.3q1.2 -44.95 6.65 -89.15q26.3 6.9 53.05 -2.8q0.75 -1.05 1 -2.25q0.85 -3.6 -0.75 -6.75q-24.55 5.2 -48.7 4.6q4.5 -29.25 7.55 -58.55q4.25 -40.5 27.9 -71.55q12.2 4.9 17 16.45q-10.1 58.55 -17.85 117.7q-7.1 53.15 -9.6 106.65q-5 -47.45 -10.85 -95.15q-7.15 -58.75 -11.75 -117.8q-4.7 -59.4 -13.35 -117.65q-2.7 8.4 -1.65 18.95q5.75 58.2 10.6 116.75q3.7 44.45 8.05 88.7q5.8 59.35 16.75 117.55q0.3 1.75 2 2q1.55 -0.35 1.35 -1.9q3.85 -13.3 4.5 -27.7q1.9 -41.05 7.45 -81.6q7.95 -58.55 15.4 -117.2q7.45 -59.25 17.4 -116.2q-6.25 7.4 -8.2 18.9q-1.55 0.75 -2.3 2.7q-1.5 25.75 -2.25 51.75q-0.75 25.9 -3.95 51.55q-3.75 30.45 -0.55 59.2q1.65 -2.25 3.75 -4.25q15.1 3.25 29.5 4.5q2.2 -2.15 2 -5.25q-0.75 -2.45 -2.75 -3.75q-15.15 -5.2 -30.25 -6.5q4.65 -59.4 4.45 -118.45q-3.9 21.55 -8.45 43.05q-4.55 21.35 -9.9 42.75q-3.4 14.05 -6.55 28.2q-4.75 19.95 -6.3 40.2q-0.65 8.95 1.5 17.6q4.6 -4 5.35 -10.15q2.6 -22 6.25 -43.9q3.7 -21.95 8.5 -43.65q4.7 -21.35 10.35 -42.85q3.05 59.85 9.4 119.35q1.7 15.9 4.25 31.65q0.5 3.1 1.9 5.9q1.6 3.15 4.65 5.05q3.15 -8.9 0.85 -17.85q-2.2 -8.55 -4.1 -17.15q-2.4 -10.8 -3.25 -22q-4.15 -53 -7.75 -106.1q-9.6 -69 -11.7 -139.3q-6.75 17.7 -10.15 36.45q2.7 23.45 4.65 47q-18.75 2.4 -36.95 7.55q11.55 -46.9 21.45 -94.1q4.4 -20.8 6.85 -41q-0.75 39.55 4 80.55q-7.1 128.35 -12.9 257.25q0.25 1.7 0.9 3.25q0.25 0.5 0.85 0.6q6.3 -45.9 7.7 -92.9q29.25 2.35 57.55 -3.85q-28.3 -3.35 -56.6 3q-4.45 59.05 -10.55 117.85q-6.05 58.75 -4.8 117.7q1 2.7 3.75 2q3.6 -58.95 10.55 -117.6q7 -59.3 4.55 -117.95q-5.15 34.45 -7.9 71.4<g id="3148" transform="matrix(1, 0, 0, 1, -76.7, 0)">
<path style="fill:#000000;fill-opacity:1" d="M431.45,123.5Q426.65 111.95 414.45 107.05L412.95 106.5Q389.3 137.55 385.05 178.05Q382 207.35 377.5 236.6L374.75 255.85Q398.9 256.45 423.45 251.25L426.15 252.15L426.95 252.75Q428.55 255.9 427.7 259.5Q427.45 260.7 426.7 261.75Q399.95 271.45 373.65 264.55Q368.2 308.75 367 353.7Q366.25 381.35 381.8 403Q385.4 408.05 391.6 405.55Q414.75 396.35 427.85 374.25Q431.2 368.55 433.95 362.7Q429.2 404.05 390.85 419.15Q384.65 421.55 380.25 416.75Q363.85 398.9 363.05 374.25Q361.2 315.1 369.15 257.1Q377.2 198.2 388.75 140.1Q394.1 113.05 413.45 96Q432.9 102.65 431.75 122.75L431.45 123.5M380.45,88Q370.5 144.95 363.05 204.2Q355.6 262.85 347.65 321.4Q342.1 361.95 340.2 403Q339.55 417.4 335.7 430.7L334.3 430.8Q334.5 432.35 332.95 432.7Q331.25 432.45 330.95 430.7Q320 372.5 314.2 313.15Q309.85 268.9 306.15 224.45Q301.3 165.9 295.55 107.7Q294.5 97.15 297.2 88.75Q305.85 147 310.55 206.4Q315.15 265.45 322.3 324.2Q328.15 371.9 333.15 419.35Q335.65 365.85 342.75 312.7L354.4 224.6Q362.15 165.45 372.25 106.9Q374.2 95.4 380.45 88M271.2,98.75Q271.4 157.8 266.75 217.2L264.2 248.75Q279.3 250.05 294.45 255.25Q296.45 256.55 297.2 259Q297.4 262.1 295.2 264.25Q280.8 263 265.7 259.75Q263.6 261.75 261.95 264Q258.75 235.25 262.5 204.8Q265.7 179.15 266.45 153.25Q267.2 127.25 268.7 101.5Q269.45 99.55 271 98.8L271.2 98.75M235.9,101.65L236.2 95.5L240.2 100.25L239.95 102.05L239.25 102.7Q241.35 173 250.95 242L259.9 247.4L255.2 250.25L253.95 251.75L250.95 252.35Q254.55 305.45 258.7 358.45Q259.55 369.65 261.95 380.45Q263.85 389.05 266.05 397.6Q268.35 406.55 265.2 415.45Q262.15 413.55 260.55 410.4Q259.15 407.6 258.65 404.5Q256.1 388.75 254.4 372.85Q248.05 313.35 245 253.5L205.4 257.65Q199.75 279.15 195.05 300.5Q190.25 322.2 186.55 344.15Q182.9 366.05 180.3 388.05Q179.55 394.2 174.95 398.2Q172.8 389.55 173.45 380.6Q175 360.35 179.75 340.4L186.2 312.2Q189.35 298.05 192.75 284L199.6 255.7L207.4 223.9Q212.75 202.5 217.3 181.15Q221.85 159.65 225.75 138.1Q229.15 119.35 235.9 101.65M235.5,115.25Q233.05 135.45 228.65 156.25Q218.75 203.45 207.2 250.35Q225.4 245.2 244.15 242.8Q242.2 219.25 239.5 195.8Q234.75 154.8 235.5 115.25M95.45,96L94 97.5L90 237.2Q118.3 230.85 146.6 234.2L147.3 240.75Q119 246.95 89.75 244.6L88.9 266.8L87.4 311Q86 358 79.7 403.9Q79.1 403.8 78.85 403.3Q78.2 401.75 77.95 400.05L77.5 396.55L77.15 393L76.9 389.35L76.75 385.7L76.7 381.9L76.8 378.1L78.25 344.3Q84.05 215.4 91.15 87.05L95.45 96M161.2,101Q163.65 159.65 156.65 218.95Q149.7 277.6 146.1 336.55L141.7 409.95Q138.95 410.65 137.95 407.95Q136.7 349 142.75 290.25Q148.85 231.45 153.3 172.4Q156.05 135.45 161.2 101" />
</g>
</svg>
