<?xml version="1.0" encoding="utf-8"?>
<svg version="1.1" id="Layer_1"
xmlns="http://www.w3.org/2000/svg"
xmlns:xlink="http://www.w3.org/1999/xlink"


xml:space="preserve">
q22.55 -0.8 36 18.6q15.05 21.8 -3.05 37.6q-14.8 13 -33.55 19.25q1.8 -38.95 -2 -77.65q-3.7 30.1 -3.15 62.2q1.05 59.55 -0.1 118.45q0.65 1.65 2.25 2q0.5 1.85 2.1 2.8q23.45 7.1 46.9 1.85q10.9 -2.45 15.5 -11.75q14.3 -29.15 4.75 -60.8q-7.65 -25.15 -29.05 -31.6q12.35 -10.9 12.45 -29.4q0.25 -41.55 -37.3 -56.25q-4.1 -0.15 -7.85 1.5q-5.2 2.25 -5.45 6.45q22.8 -3.3 36.15 15.1q13.1 18.05 9.4 40.3q-3.6 21.65 -28.45 23.4q-17.3 1.1 -34.15 -3.5q-3.25 54.55 -3.35 110.7q-0.05 30.3 -4.7 59.8q-2.65 16.95 2.9 29.45q9 -39.15 8.1 -81q-0.2 -9.8 -0.05 -19.45q3.5 -1.15 7.1 -1.45q33.3 -3.15 66.9 0.2q-0.45 29.05 -2.7 57.95q-1.25 16.1 1.65 30.05q2.2 -0.75 2.5 -3.15q4.65 -34 4.75 -68.85q1.4 -1 2.1 -2.7q0.45 -1.1 0.5 -2.25q-0.25 -1.95 -0.95 -3.75q-0.5 -1.45 -1.75 -2.25q-0.35 -45.15 -2.2 -89.4q-6.25 18.5 -5.1 41.25q1.2 23.85 1.25 47.65q-25.45 -3 -51.3 -4.2q-3.75 0.9 -7.05 2.7q-2.5 1.35 -4.3 3.55q0.3 -18.5 1.8 -36.9q2.4 -30.65 -3.9 -59.35q-0.85 -0.15 -0.85 0.25q-4 3.75 -2.2 9.4q-25.45 20.05 -15.7 52q3.3 10.95 11.35 19.15q23.05 -1.95 41.35 -16q7.25 13.75 17.6 21.5q4.75 -5.1 0.55 -11.5q-31.5 -48.2 -64.5 -95.45q10.2 15.55 20.75 30.9q-15.2 9.65 -33.55 11.75q-2.55 -1.55 -3.8 -4.15q-12.2 -25.75 10.55 -39.85q1.8 1.45 3.8 0.9<g id="3145" transform="matrix(1, 0, 0, 1, -133.95, 0)">
<path style="fill:#000000;fill-opacity:1" d="M343.5,192.2Q347.3 230.9 345.5 269.85Q364.25 263.6 379.05 250.6Q397.15 234.8 382.1 213Q368.65 193.6 346.1 194.4L345.4 194.25L343.5 192.2M348.6,182.75Q352.35 181.1 356.45 181.25Q394 195.95 393.75 237.5Q393.65 256 381.3 266.9Q402.7 273.35 410.35 298.5Q419.9 330.15 405.6 359.3Q401 368.6 390.1 371.05Q366.65 376.3 343.2 369.2Q341.6 368.25 341.1 366.4L340.95 366.45Q339.35 366.1 338.7 364.45Q339.85 305.55 338.8 246Q338.25 213.9 341.95 183.8L342.45 183.75L343.15 189.2Q343.4 185 348.6 182.75M345.3,282.8L343.8 353.2Q360.65 357.8 377.95 356.7Q402.8 354.95 406.4 333.3Q410.1 311.05 397 293Q383.65 274.6 360.85 277.9L350.7 280.45L349.6 281.8L345.3 282.8M145.5,179.25Q151.8 207.95 149.4 238.6Q147.9 257 147.6 275.5L147.65 275.2L147.8 274.5L148.25 272.95Q150.05 270.75 152.55 269.4Q155.85 267.6 159.6 266.7L166.7 265.25L168 264.75Q193.85 265.95 219.3 268.95L223.6 269.4Q223.55 245.6 222.35 221.75Q221.2 199 227.45 180.5Q229.3 224.75 229.65 269.9L232.45 270Q233.7 270.8 234.2 272.25Q234.9 274.05 235.15 276L235.15 277.45L235.05 279Q235 280.15 234.55 281.25Q233.85 282.95 232.45 283.95L229.7 283.65L229.7 298.95Q229.6 333.8 224.95 367.8Q224.65 370.2 222.45 370.95Q219.55 357 220.8 340.9Q223.05 312 223.5 282.95Q189.9 279.6 156.6 282.75Q153 283.05 149.5 284.2L148.3 282.65L148 281.95L147.6 279.7L147.55 279Q147.4 288.65 147.6 298.45Q148.5 340.3 139.5 379.45Q133.95 366.95 136.6 350Q141.25 320.5 141.3 290.2Q141.4 234.05 144.65 179.5Q144.65 179.1 145.5 179.25M259.45,265.5Q292.45 312.75 323.95 360.95Q328.15 367.35 323.4 372.45Q313.05 364.7 305.8 350.95Q287.5 365 264.45 366.95Q256.4 358.75 253.1 347.8Q243.35 315.85 268.8 295.8L259.45 279.7L253.2 275.7L252.75 274.15Q250.95 268.5 254.95 264.75L259.45 265.5M277.7,309.65L277.2 310.45Q275.2 311 273.4 309.55L271.7 308.2Q248.95 322.3 261.15 348.05Q262.4 350.65 264.95 352.2Q283.3 350.1 298.5 340.45Q287.95 325.1 277.75 309.55L277.7 309.65" />
</g>
</svg>
