<?xml version="1.0" encoding="utf-8"?>
<svg version="1.1" id="Layer_1"
xmlns="http://www.w3.org/2000/svg"
xmlns:xlink="http://www.w3.org/1999/xlink"


xml:space="preserve">
q-3.2 35.05 -3.85 70.8q-1.45 59.95 -5.6 119.25q-1.05 15 -4.2 29.55q-3.75 17.4 3.6 29.4q8.95 -52.95 9.75 -107.95q0.35 -24.45 1.1 -48.95q9 -3.05 15.9 -8.95q-0.05 1.85 0.6 4.05q16 55.35 33.4 111.3q9.6 30.75 27.1 55.3q0.9 -0.6 1.25 -1.45q3.25 -7.9 1.25 -16.3q-0.25 -0.75 -0.7 -0.9q-0.25 -0.1 -0.8 0.65q-5.4 -7.1 -10.5 -16.75q-6.85 -13.5 -11.65 -28q-18.55 -56.3 -35.75 -111.95q38.55 -50.7 19.55 -111.5q-10.55 -33.8 -45.65 -33.1q-1.8 1.1 -2.05 3.75q-0.2 2.3 0.55 4.5q-6.05 18.9 -9.35 40.35q-9.1 58.55 -19.1 116.9q-1.25 7.5 -3.25 14.65q-4.6 16.45 1.7 29.45q5.65 -11.7 7.55 -25.85q7.95 -58.6 16.8 -117.05q18.3 -6.5 37.4 -12.8q8.7 58.45 19.75 116.35q2.5 13.2 10 20.5q4.65 -10.75 0.5 -22.65q-11.7 -33.1 -16.4 -67.85q-7.85 -58.4 -19.1 -116.25q-5.7 -29.45 -9.15 -58.9q-3.45 -29.35 -9.5 -55.65q0.7 26.15 5.4 53.1q5.1 29.35 9.85 58.75q-20.65 5.35 -34.75 17.85q7.05 -44.9 15 -89.65q3.65 -20.25 4.5 -40.05q15.65 47.2 -13.05 88.85q-6.05 6.65 -13.35 12.4q-6.5 5.05 -14.35 8.25q2.6 -55.9 0.65 -111.1q29.5 0.2 39 28.95q-10.85 23.6 -16.35 50.35q-5.4 26.25 -10.4 52.45q-11 57.75 -22.9 115.35q-6 29.15 -15.65 57.1q-7.5 21.8 -8.2 43.2q1.15 0.25 1.3 0q11.2 -21.45 16.6 -45.2q13.05 -57.45 23.05 -115.7q24.7 -4.5 49.2 -12.35q3.7 20.4 7.9 40.7q12.05 58.15 19.6 117.15q2.1 16.65 9.1 28.5q1.2 -0.4 1.45 -1.55q2.7 -12.9 -0.15 -26.4q-8.85 -41.7 -17.1 -83.45q-9.95 -50.35 -17.9 -101.05q-9.1 -58.3 -18.8 -116q-9.05 53.4 -11.15 108.7q-31.3 0.6 -60.8 7.4q2.25 -59.75 2.45 -117.8q-1.7 0.1 -1.85 1.75q-4.25 38.7 -5.9 77.95q-2.55 59.3 -3.4 119.3q-0.8 59.15 -4.35 117.7q0.55 2.65 3 2q6.6 -40.1 7.1 -81.7q0.5 -41.95 1.75 -83.8q11.55 -0.45 22.35 -3.2q-1.35 39.3 -2.4 78.65q-0.55 16.9 5.3 29.3q4.15 -45.55 2.25 -93q-1.25 -30.25 0 -60.05q3.1 -4.6 0.35 -8.8q2.35 -39.9 7.1 -79.35q3.6 -30.15 1.45 -59.4<g id="3158" transform="matrix(1, 0, 0, 1, -62.75, 0)">
<path style="fill:#000000;fill-opacity:1" d="M408.9,93.75Q409.15 91.1 410.95 90Q446.05 89.3 456.6 123.1Q475.6 183.9 437.05 234.6L434.05 238.25Q451.25 293.9 469.8 350.2Q474.6 364.7 481.45 378.2Q486.55 387.85 491.95 394.95Q492.5 394.2 492.75 394.3Q493.2 394.45 493.45 395.2Q495.45 403.6 492.2 411.5Q491.85 412.35 490.95 412.95Q473.45 388.4 463.85 357.65Q446.45 301.7 430.45 246.35Q429.8 244.15 429.85 242.3Q422.95 248.2 413.95 251.25L411.5 250.75L410.55 250.3Q409.8 274.8 409.45 299.25Q408.65 354.25 399.7 407.2Q392.35 395.2 396.1 377.8Q399.25 363.25 400.3 348.25Q404.45 288.95 405.9 229L407.2 169.75Q407.85 134 411.05 98.95L409.7 99L409.45 98.25Q408.7 96.05 408.9 93.75M336.3,92.65Q342.35 118.95 345.8 148.3Q349.25 177.75 354.95 207.2Q366.2 265.05 374.05 323.45Q378.75 358.2 390.45 391.3Q394.6 403.2 389.95 413.95Q382.45 406.65 379.95 393.45Q368.9 335.55 360.2 277.1L353 230.15Q333.9 236.45 315.6 242.95L312.3 264.3Q303.45 322.75 295.5 381.35Q293.6 395.5 287.95 407.2Q281.65 394.2 286.25 377.75Q288.25 370.6 289.5 363.1Q299.5 304.75 308.6 246.2L326.85 129.1Q330.15 107.65 336.2 88.75L336.3 92.65M331.55,147.5Q323.6 192.25 316.55 237.15Q330.65 224.65 351.3 219.3Q346.55 189.9 341.45 160.55Q336.75 133.6 336.05 107.45Q335.2 127.25 331.55 147.5M412.75,98.95Q414.7 154.15 412.1 210.05L411 237.4Q418.85 234.2 425.35 229.15Q432.65 223.4 438.7 216.75Q467.4 175.1 451.75 127.9Q442.25 99.15 412.75 98.95M227.45,87.5Q237.15 145.2 246.25 203.5Q254.2 254.2 264.15 304.55Q272.4 346.3 281.25 388Q284.1 401.5 281.4 414.4Q281.15 415.55 279.95 415.95Q272.95 404.1 270.85 387.45Q263.3 328.45 251.25 270.3Q247.05 250 243.35 229.6Q218.85 237.45 194.15 241.95L193.4 246.3Q183.4 304.55 170.35 362Q164.95 385.75 153.75 407.2Q153.6 407.45 152.45 407.2Q153.15 385.8 160.65 364Q170.3 336.05 176.3 306.9Q188.2 249.3 199.2 191.55Q204.2 165.35 209.6 139.1Q215.1 112.35 225.95 88.75L226.25 89.3L227.45 87.5M217.95,130.85L195.7 233.25L241.5 219.45L225.15 110.3L217.95 130.85M148.45,88.5Q150.6 117.75 147 147.9Q142.25 187.35 139.9 227.25Q142.65 231.45 139.55 236.05L139.4 236.3L138.7 251.15Q137.45 280.95 138.7 311.2Q140.6 358.65 136.45 404.2Q130.6 391.8 131.15 374.9L132.95 315.75Q134 276.4 135.35 237.1L96.95 241Q86.15 243.75 74.6 244.2Q73.35 286.05 72.85 328Q72.35 369.6 65.75 409.7Q63.3 410.35 62.75 407.7Q66.3 349.15 67.1 290Q67.95 230 70.5 170.7Q72.15 131.45 76.4 92.75Q76.55 91.1 78.25 91Q78.05 149.05 75.8 208.8L74.95 233.7Q104.45 226.9 135.75 226.3L136.8 197.25Q138.9 141.95 147.95 88.55L148.45 88.5" />
</g>
</svg>
