<?xml version="1.0" encoding="utf-8"?>
<svg version="1.1" id="Layer_1"
xmlns="http://www.w3.org/2000/svg"
xmlns:xlink="http://www.w3.org/1999/xlink"


xml:space="preserve">
q0.95 13.25 0.75 32.75q0 54.9 -0.9 68.85q-1.85 28.95 -11.1 77.4q-2.8 14.8 -17.65 36.2q-8.6 12.4 -28.1 37.3q-10.2 13.15 -20.4 23.2q-31.15 30.75 -59.7 30.95q-2.05 -0.05 -2.65 -3.05q0 -18.65 6.5 -75.45q6.5 -56.85 6.5 -79.8q0 -7.15 -1 -10.9q-1 -9 -1 -27.35q0 -18.4 1 -27.4q-0.5 -11.3 -1.05 -31.4q0 -3.25 1.25 -4.5q4.75 -3.75 34.25 17.35q12.75 9.1 26.55 20.35q12.3 10 17.05 14.75q14.8 14.95 26.5 33.9q9.45 15.35 17.5 34.35q13.8 32.7 16.35 68.85q-7.65 -18.85 -16.35 -32.8q-10.95 -17.55 -26.4 -32.45q-16.25 -15.5 -39.25 -32.75q-3.65 -2.75 -10.45 -6.2q-7.75 -3.8 -11.3 -5.75q-6.15 -3.35 -9.3 -6.55q1.45 7.55 1.7 17.3q0.3 9.75 0.1 29.45q-1.5 22.5 0 45q1 5.25 1 16.5q0 37.45 -4.6 74.35q-5.2 41.7 -7.65 72.75q13.3 -2.95 23.5 -7.35q6.55 -2.8 13.6 -7.4q7.55 -4.95 12.9 -10.1q7.95 -7.7 16.65 -17.85q7.65 -9 14.35 -18.15q4.65 -6.25 14 -17.5q16.2 -20.95 19.55 -36.05q11.15 -50.5 12.5 -76.95q0.55 -10.45 0.25 -27.9q-0.5 -27.15 -0.5 -37.25q0 -17.85 -1.1 -30.3q-2.85 -32.35 -17.15 -67.65q6.1 -9.15 13.55 -14.75q7.75 -5.9 12.7 -4.65q5.65 1.45 5.65 12q-0.3 -0.75 -0.3 -2.4q0 -0.85 -3.45 -3q-3.6 -2.25 -5.45 -2.25q-10.65 0 -19.6 19.8q-6.5 14.45 -8.5 27.95q-1.25 8.55 -2.2 23.9q-1.15 13.7 -1.95 25.95q0.15 -0.5 1.25 -1.2q0.95 -0.6 2 -1.05q-0.55 3.5 -1.7 5.8q-15.85 -1 -19.95 -3.3q-0.8 19.55 -0.8 47.05q-0.05 19.5 1.65 35.3q5.35 49.95 25.95 49.95q8.7 -6.35 13.75 -17.9q4.45 -12.85 6.5 -17.85q0.4 1.5 0.4 3q0 10.55 -5.5 21.5q-5.8 11.45 -15.75 19.5q-27.8 3.65 -35.35 -47.65q-2.5 -16.75 -2.7 -39.4q-0.35 -36.4 -0.05 -51.05q0.45 -21.95 4.05 -57.95q3.05 -31.3 7.25 -54q1.55 -8.65 8.1 -18.35q0.35 1.1 0.35 2.8q0 6.2 -15.35 37.45q-7.85 16 -17.65 34.9q-3.85 -12.85 -11.1 -31.3q-0.5 0.65 -0.75 1.75q-0.7 -1.5 -1.7 -2.35q0.15 -3.55 1.95 -8.9q6.95 13.7 12.9 29.2q4.7 12.3 10.35 30.05q5.9 -15.25 15.15 -34.15q8.45 -17.25 16.35 -30.85q-3.7 -11.6 -5.35 -30.65q1 -3 1 -7.15q-5.65 27.1 -12.85 69.35q-0.5 0.45 -1.25 0.6q-3.1 -21.15 -3.55 -29.9q-0.2 -3.4 -0.2 -25.2q0 -4.85 -1.9 -21.5q-1 -3 -1 -9.75q-3.5 17.45 -12.35 71.3q-7.55 46.1 -13.9 73.3q-0.15 -0.4 -0.15 -1.95q0 -10.75 11.15 -73.9q11.35 -64.4 16.85 -82.85q2.4 3.15 2.25 9.55q-0.1 7.4 1 10.2q2 14.1 3.9 37q2.4 28.25 3.35 37.1q3.65 -15.95 7 -34.9q3.55 -25.85 5.6 -38.35q3.6 -21.9 8.15 -30.9q1.85 17.65 0.25 36.75q2.8 23.9 2.8 26.05q2.45 3.95 3.05 10.5q0.2 2.4 0.2 11.25q0 14.2 -6.8 24.4q-5.1 7.6 -14.4 14.05q4.3 9.85 12 34.15q11.2 35.35 11.2 44q-5.4 -13.05 -15.2 -46.4q-7.7 -26.2 -9.5 -35.95q-3.4 2.1 -7.2 4.1q-4.9 55.15 -6.25 61.75q-4.25 -2.85 -4.25 -5.75q0 -4.5 3.55 -21.7q4.05 -19.85 5.2 -30.3q0.6 -5.65 1.4 -21.65q0 -1.45 2.75 -3.9q0.8 -15.1 2.25 -24.2q0 -1.85 0.5 -3q0.4 -3.55 3.6 -4.1q3.25 -0.55 8.5 1.95q4.95 2.3 9.45 6.3q4.7 4.1 6.6 7.9q0 1.45 -2 6.7q-0.3 5.1 -1.6 13.1q1.05 14.15 1.2 20.75q6.1 64.85 30.15 251.5q22.1 171.3 22.1 176.6q0 3 -1.25 6.75q-4.9 -11.1 -6.2 -26.65q-0.65 -17.95 -1.3 -27.1q-0.8 -11.55 -3.35 -27.15q-3.75 -21.9 -7.6 -54.05q-4.3 2.55 -16.2 3.7q-16.4 -3.6 -19.9 -5.3q-17.65 73.25 -27.25 134.25q-2.15 13.55 -4.4 35.55q-4.75 43.75 -11.8 61.15q-2 -3 -2 -7.5q0 -4.7 6.05 -51.9q6.45 -50.75 11.45 -82.35q10 -63.75 27.75 -134.25q6.8 -26.9 17.8 -66.95q9.35 -34.75 18.5 -66.75q2.65 -9.4 6.25 -34q1.5 -10.2 3.3 -18.05q0.05 -3.95 0.3 -5.2q0.75 -4.05 3.65 -8.3q1.5 0.3 2.4 1.75q0.6 1.05 0.6 1.85q0 9.55 -2.7 43q16.5 -13.15 16.5 -27.65q0 -10.7 -3.45 -17.15q-6.1 -11.5 -22.45 -12.3q0.55 3.6 0.75 8.05q-7.65 37.7 -27.25 111.1q-13.55 50.75 -28.1 102.6q5.15 1.75 16.65 3.25q2.35 0.3 9.3 -1.55q-8.15 -63.3 -10.25 -107.95q1 23.75 1 42.15q0 54.45 -10.05 175.05q-3.95 47.45 -5.05 71.1q-0.75 6.95 -0.95 17.2q0 3.1 -0.6 8.45q-0.75 7.05 -1.9 8.55q-5.35 -4.8 -5 -14.8q1.5 -11.95 1.5 -17.95q0 -2.15 0.65 -10.2q0.65 -8.85 1.35 -14.55q2.45 -58.05 10.75 -154.1q-39.95 -0.7 -50 -3.5q-2.9 -0.8 -3.9 -1.9q-2.3 45.9 -3.6 65.15q-0.9 6.75 -1.3 16.4q-0.95 19.7 -5.55 32.3q-2.5 -3.45 -2.5 -8.35q0 -3.4 1.85 -27.7q2 -26.15 3.15 -34.95q2.25 -37.45 4.35 -66.25q0 -22.45 1 -66.55q1 -44.15 1 -66.2q0 -22.45 0.15 -28.25q0.45 -16.25 2.35 -25.75q2.9 18.9 3.25 46.35q0.15 15.85 -0.25 47.4q0 13.65 -4.4 107.4q15.85 0.7 36.45 0.7q8.85 -103.1 11.15 -138.7q-0.35 -4.9 -0.15 -9.05q0.4 -8.05 3.4 -9.7q-3.7 17.75 -7.45 30.25q-0.75 -0.5 -1 -1.25q-1.65 11.4 -4.85 28.5q-0.5 -0.85 -0.65 -2.4q0 -5.25 5.2 -32.65q0.55 2.45 0.85 3.3q1.95 -6.95 6 -30.3q3.45 -19.95 7.25 -29.55q1 12.05 2.1 37.25q1.4 22.9 4.9 39.1q-0.15 0 -0.55 0.45q-4.45 -13.85 -6.25 -31.4q-1.65 -16.25 -0.75 -31.7q0.75 -19 3.45 -29.25q0.45 0.75 0.45 2.35q-0.7 16.3 -1.8 24.9q1.55 -0.95 3.1 -0.95q0.4 0.8 0.4 2.45q0 1.7 -0.65 2.7q-0.5 0.75 -1.6 1.4q-28.25 -1.95 -30.3 -0.6q-0.15 0.1 -0.15 1.6q0.05 1.15 -3.05 1.75q-1 -7.5 -1 -22.5q0 -23.9 0.3 -32.25q3.25 3.25 5.45 6.85q2.3 3.7 2.3 5.9q-1.55 -3.25 -4.4 -3.25q-14.95 0 -20.7 25.05q-2.9 12.55 -2.8 25.35q0 6.7 2.75 13.1q4.55 10.5 14.5 10.5q7.35 0 10.4 -4.45q1.2 -1.8 2.75 -2.45q-10.75 0.5 -16.75 0.25q-0.25 -0.5 -0.25 -3q0 -1.55 0.15 -2.45q0 -0.25 1.15 -0.3q2.65 2.2 3.1 8q0.2 3 -0.1 5.9q-0.7 11.45 -1.4 18.55q-0.6 -0.7 -0.6 -2.3q0 -2.1 0.95 -10q-4.55 7.15 -7.45 7.15q-17.55 0 -22.75 -15.25q-1.65 -4.85 -1.85 -10.85q0 -18.4 3 -30.55q4.8 -19.75 17.5 -27.2q0.35 1.3 0.35 3q0 2.05 -6.3 63.7q-6.65 65.6 -7.95 86.3q-4.15 -27.3 -8.35 -66.65q-1.95 20.85 -4 64.15q-2.55 39.2 -8.75 65.35q-0.55 -0.8 -0.55 -2.35q0 -12.4 3.4 -37q0.55 -6.95 0.8 -17.85q0.8 -22.5 4.5 -36.4q4.35 38.8 6.45 66.75q3.75 -40.6 9.5 -66.1<g id="3153" transform="matrix(1, 0, 0, 1, -8.5, 0.95)">
<path style="fill:#000000;fill-opacity:1" d="M540.1,192.35Q541.05 205.6 540.85 225.1L540.5 259.85Q540.5 314.75 539.6 328.7Q537.75 357.65 528.5 406.1Q525.7 420.9 510.85 442.3Q502.25 454.7 482.75 479.6L472 494.2Q461.8 507.35 451.6 517.4Q420.45 548.15 391.9 548.35L391.4 548.35Q389.35 548.3 388.75 545.3L388.5 542Q388.5 523.35 395 466.55Q401.5 409.7 401.5 386.75Q401.5 379.6 400.5 375.85L400.5 336.1Q399.5 327.1 399.5 308.75Q399.5 290.35 400.5 281.35L400.5 166.75L400.75 166L400.75 109.75L401.15 108.25L401.75 106.75L401.75 58Q401.25 46.7 400.7 26.6L400.25 6.25Q400.25 3 401.5 1.75L401.9 2.8Q406.65 -0.95 436.15 20.15Q448.9 29.25 462.7 40.5Q475 50.5 479.75 55.25Q494.55 70.2 506.25 89.15Q515.7 104.5 523.75 123.5Q537.55 156.2 540.1 192.35M517.5,128.5Q509.85 109.65 501.15 95.7Q490.2 78.15 474.75 63.25Q458.5 47.75 435.5 30.5Q431.85 27.75 425.05 24.3Q417.3 20.5 413.75 18.55Q407.6 15.2 404.45 12Q405.9 19.55 406.15 29.3Q406.45 39.05 406.25 58.75L406.25 112L405.85 113.5L405.25 115L405.25 166.75L405.5 167.5L405.5 286.6Q404 309.1 405.5 331.6L405.5 370.6Q406.5 375.85 406.5 387.1Q406.5 424.55 401.9 461.45Q396.7 503.15 394.25 534.2Q407.55 531.25 417.75 526.85Q424.3 524.05 431.35 519.45Q438.9 514.5 444.25 509.35Q452.2 501.65 460.9 491.5Q468.55 482.5 475.25 473.35Q479.9 467.1 489.25 455.85L503.7 438.15Q519.9 417.2 523.25 402.1Q534.4 351.6 535.75 325.15Q536.3 314.7 536 297.25Q535.5 270.1 535.5 260L535.75 226.45Q535.75 208.6 534.65 196.15Q531.8 163.8 517.5 128.5M355.6,174.4Q361.7 165.25 369.15 159.65Q376.9 153.75 381.85 155Q387.5 156.45 387.5 167L387.25 171.5L386.75 171.9L385.5 172.5L384.8 171.4Q384.5 170.65 384.5 169Q384.5 168.15 381.05 166Q377.45 163.75 375.6 163.75Q364.95 163.75 356 183.55Q349.5 198 347.5 211.5Q346.25 220.05 345.3 235.4L343.75 259.35Q342.6 273.05 341.8 285.3L345.8 285.95L363 288.1L374 287.85Q374.15 287.35 375.25 286.65Q376.2 286.05 377.25 285.6L376.7 291.55Q376.15 295.05 375 297.35L368.7 297.15L362 296.6Q346.15 295.6 342.05 293.3L341.3 292.8L340.55 308.3Q339.75 327.85 339.75 355.35L339.4 373.35Q339.35 392.85 341.05 408.65Q346.4 458.6 367 458.6L373.25 458.35Q381.95 452 387 440.45Q391.45 427.6 393.5 422.6L394.25 422.6L394.85 424.85Q395.25 426.35 395.25 427.85Q395.25 438.4 389.75 449.35Q383.95 460.8 374 468.85Q346.2 472.5 338.65 421.2Q336.15 404.45 335.95 381.8L336.25 355.75Q335.9 319.35 336.2 304.7Q336.65 282.75 340.25 246.75Q343.3 215.45 347.5 192.75Q349.05 184.1 355.6 174.4M332.15,318.7Q332.5 319.8 332.5 321.5Q332.5 327.7 317.15 358.95Q309.3 374.95 299.5 393.85L298.5 394.1Q294.65 381.25 287.4 362.8L274.75 331.1Q274.25 331.75 274 332.85Q273.3 331.35 272.3 330.5Q272.45 326.95 274.25 321.6L275.25 321.35Q282.2 335.05 288.15 350.55Q292.85 362.85 298.5 380.6L299.05 381L299.75 381.6Q305.65 366.35 314.9 347.45Q323.35 330.2 331.25 316.6L332.15 318.7M330.25,312.85L329.65 313.25L328.5 313.85Q324.8 302.25 323.15 283.2L320.5 252.5L320.5 185.75Q321.5 182.75 321.5 178.6L321.25 173.75Q315.6 200.85 308.4 243.1L296.25 314.35L295.75 314.75Q295.25 315.2 294.5 315.35Q291.4 294.2 290.95 285.45Q290.75 282.05 290.75 260.25Q290.75 255.4 288.85 238.75L286.75 221.75L286.75 180.5Q285.75 177.5 285.75 170.75Q282.25 188.2 273.4 242.05Q265.85 288.15 259.5 315.35L258.5 315.6L258.15 314.95Q258 314.55 258 313Q258 302.25 269.15 239.1Q280.5 174.7 286 156.25Q288.4 159.4 288.25 165.8Q288.15 173.2 289.25 176L289.25 218Q291.25 232.1 293.15 255Q295.55 283.25 296.5 292.1L296.75 292.1Q300.4 276.15 303.75 257.2L309.5 222.5Q313.05 196.65 315.1 184.15Q318.7 162.25 323.25 153.25Q325.1 170.9 323.5 190L323.5 247.75L327.7 282.3Q330.5 306.2 330.5 308.35L330.25 312.85M254.25,92.75Q256.7 96.7 257.3 103.25Q257.5 105.65 257.5 114.5Q257.5 128.7 250.7 138.9Q245.6 146.5 236.3 152.95Q240.6 162.8 248.3 187.1Q259.5 222.45 259.5 231.1L259.25 236L258.8 236.45L258 237.25Q252.6 224.2 242.8 190.85Q235.1 164.65 233.3 154.9Q229.9 157 226.1 159L224.5 177.5Q219.6 232.65 218.25 239.25L218 239.5Q213.75 236.65 213.75 233.75Q213.75 229.25 217.3 212.05Q221.35 192.2 222.5 181.75Q223.1 176.1 223.9 160.1L222.5 160.75L221.7 159.05L221.5 156.6Q221.5 155.15 224.25 152.7Q225.05 137.6 226.5 128.5L226.5 88L225.7 86.3L225.5 83.85Q225.5 82 226 80.85L226.1 80.7Q226.5 77.15 229.7 76.6Q232.95 76.05 238.2 78.55Q243.15 80.85 247.65 84.85Q252.35 88.95 254.25 92.75M196,8.1Q196 9.55 194 14.8L193.9 15.1Q193.6 20.2 192.3 28.2L193.05 38Q194.1 52.15 194.25 58.75L194.25 112.75Q200.35 177.6 224.4 364.25Q246.5 535.55 246.5 540.85Q246.5 543.85 245.25 547.6L244 548.6Q239.1 537.5 237.8 521.95Q237.15 504 236.5 494.85Q235.7 483.3 233.15 467.7L228.5 440.85Q224.75 418.95 220.9 386.8L214.5 332.85L206.2 272.15Q201.9 274.7 190 275.85L151.5 275.6Q135.1 272 131.6 270.3L130.75 269.8L127.75 280.35Q110.1 353.6 100.5 414.6Q98.35 428.15 96.1 450.15L92.3 487.2Q87.55 530.95 80.5 548.35Q78.5 545.35 78.5 540.85Q78.5 536.15 84.55 488.95Q91 438.2 96 406.6Q106 342.85 123.75 272.35Q130.55 245.45 141.55 205.4L160 138.25Q169.35 103.5 178.5 71.5Q181.15 62.1 184.75 37.5Q186.25 27.3 188.05 19.45Q188.1 15.5 188.35 14.25Q189.1 10.2 192 5.95L192.25 5.25L192.35 5.4L193 4.5Q194.5 4.8 195.4 6.25Q196 7.3 196 8.1M229.35,93.35L229.5 107.6Q229.5 117.15 226.8 150.6L238 142.4Q254.5 129.25 254.5 114.75Q254.5 104.05 251.05 97.6Q244.95 86.1 228.6 85.3Q229.15 88.9 229.35 93.35M189.05,45.75Q181.4 83.45 161.8 156.85Q148.25 207.6 133.7 259.45L135.6 260.35Q140.75 262.1 152.25 263.6L190 263.35Q192.35 263.65 199.3 261.8L204.6 260.3L200 225.7Q191.85 162.4 189.75 117.75L189.75 58.5L189.05 45.75M101.25,47.95Q102.25 71.7 102.25 90.1Q102.25 144.55 92.2 265.15L84.55 355.25Q80.6 402.7 79.5 426.35L79.5 496.85Q78.75 503.8 78.55 514.05L78.5 532.1Q78.5 535.2 77.9 540.55Q77.15 547.6 76 549.1Q70.65 544.3 71 534.3Q72.5 522.35 72.5 516.35Q72.5 514.2 73.15 506.15Q73.8 497.3 74.5 491.6L74.5 422.6Q76.95 364.55 85.25 268.5L85.55 265.05L83.3 265.15L76 265.85Q36.05 265.15 26 262.35Q23.1 261.55 22.1 260.45Q19.8 306.35 18.5 325.6L18.5 480.1Q17.6 486.85 17.2 496.5L16.55 512.8Q15.6 532.5 11 545.1Q8.5 541.65 8.5 536.75Q8.5 533.35 10.35 509.05Q12.35 482.9 13.5 474.1L13.5 321.1L17.4 254.75Q19.65 217.3 21.75 188.5Q21.75 166.05 22.75 121.95Q23.75 77.8 23.75 55.75Q23.75 33.3 23.9 27.5Q24.35 11.25 26.25 1.75Q29.15 20.65 29.5 48.1Q29.65 63.95 29.25 95.5Q29.25 109.15 24.85 202.9L22.55 251.5L24.05 251.45L39.55 252.3Q55.4 253 76 253L86.6 253.2Q95.45 150.1 97.75 114.5L97.75 61.25L97.95 60.6L98 58.6L97 40.8L96 23Q95.65 18.1 95.85 13.95Q96.25 5.9 99.25 4.25L101.25 47.95M247,250.75L241.45 279.35Q237.75 297.1 234 309.6Q233.25 309.1 233 308.35L233 247.75L232.75 247.25Q231.1 258.65 227.9 275.75L222.5 304.1L222 304.6Q221.5 303.75 221.35 302.2L221.25 298.85Q221.25 293.6 226.45 266.2L232.25 236.75L233.25 236.5L234.15 239.2Q234.7 241.65 235 242.5L235 296.1Q236.95 289.15 241 265.8Q244.45 245.85 248.25 236.25Q249.25 248.3 250.35 273.5Q251.75 296.4 255.25 312.6Q255.1 312.6 254.7 313.05L254 313.85Q249.55 300 247.75 282.45Q246.1 266.2 247 250.75M240.8,345.1Q241.55 326.1 244.25 315.85L245.3 316.9Q245.75 317.65 245.75 319.25L245.3 335.95Q244.6 352.25 243.5 360.85L243.5 390.1L245.9 388.55Q247.45 387.6 249 387.6L258.7 388.05L275.5 388.85L276.85 390.55Q277.25 391.35 277.25 393Q277.25 394.7 276.6 395.7Q276.1 396.45 275 397.1Q246.75 395.15 244.7 396.5Q244.55 396.6 244.55 398.1Q244.6 399.25 241.5 399.85Q240.5 392.35 240.5 377.35Q240.5 353.45 240.8 345.1M265.65,318.8L265.5 319.1L265.4 318.85L265.65 318.8M322.25,393.6Q325.5 396.85 327.7 400.45Q330 404.15 330 406.35L329.9 408.6L329.25 410.1L326.4 403.85Q324.85 400.6 322 400.6Q307.05 400.6 301.3 425.65Q298.4 438.2 298.5 451Q298.5 457.7 301.25 464.1Q305.8 474.6 315.75 474.6Q323.1 474.6 326.15 470.15L328.3 466.65Q329.5 464.85 331.05 464.2L331.75 458.85L331.75 444.6Q321 445.1 315 444.85Q314.75 444.35 314.75 441.85Q314.75 440.3 314.9 439.4L315 438.85L322 438.1Q322 437.85 323.15 437.8L331.25 437.85Q333.9 440.05 334.35 445.85Q334.55 448.85 334.25 451.75L333.65 464.3Q332.95 475.75 332.25 482.85L331.8 483.3L331 484.1L329.85 483.3Q329.25 482.6 329.25 481Q329.25 478.9 330.2 471L327.45 475.7Q322.9 482.85 320 482.85Q302.45 482.85 297.25 467.6Q295.6 462.75 295.4 456.75L295.5 451.1Q295.5 432.7 298.5 420.55Q303.3 400.8 316 393.35L322.25 393.6M295.15,398.85Q295.5 400.15 295.5 401.85Q295.5 403.9 289.2 465.55Q282.55 531.15 281.25 551.85L280.65 552.25L279.5 552.85Q275.35 525.55 271.15 486.2L264.25 418.6Q262.3 439.45 260.25 482.75Q257.7 521.95 251.5 548.1L250.5 548.35L249.55 547.35Q249 546.55 249 545Q249 532.6 252.4 508L257.5 471.1Q258.05 464.15 258.3 453.25L258.75 434.75Q259.55 412.25 263.25 398.35L264.25 398.1L272.05 464.85Q276.4 503.65 278.5 531.6L278.75 531.6L284.75 462.7Q288.5 422.1 294.25 396.6L295.15 398.85" />
</g>
</svg>
