<?xml version="1.0" encoding="utf-8"?>
<svg version="1.1" id="Layer_1"
xmlns="http://www.w3.org/2000/svg"
xmlns:xlink="http://www.w3.org/1999/xlink"


xml:space="preserve">
q-8.6 9.7 -3.45 19.4q6.5 -7.9 2.7 -18.05q-0.75 -2.05 -2.5 -2.75q-6.05 45.15 0.6 89.25q3.85 3.05 8.25 1.4q19.9 -7.45 19.25 -25.4q-10.65 7.85 -24 12.5q-1.5 -42.6 -0.75 -83.95q-2.5 2.2 -3.1 6.7q-23.65 1.35 -47.25 5.75q-6.8 1.25 -8.85 4.7q0.95 -45.1 -0.6 -89.2q-5.8 36.25 -6.05 75.75q-0.2 29.9 -2.55 59.85q-2.4 30.5 1.85 59.35q0.85 -0.35 0.9 -0.8q4.05 -37.45 5.55 -75.65q34.25 -7.55 70.95 -8.2q-1.2 14.95 -4.2 29.65q-3.55 17.4 3.65 29.35q6.85 -35.2 9.45 -71.9q4.2 -59.5 4.05 -117.8q-3.4 5.2 -3.95 12.95<g id="3162" transform="matrix(1, 0, 0, 1, -159.25, 0)">
<path style="fill:#000000;fill-opacity:1" d="M344.15,229.45Q345.9 230.15 346.65 232.2Q350.45 242.35 343.95 250.25L339.45 244.5L338.5 248.4Q333.35 238.7 341.95 229L344.15 229.45M343.2,268.75Q342.45 310.1 343.95 352.7L344.2 353.2Q357.55 348.55 368.2 340.7Q368.85 358.65 348.95 366.1Q344.55 367.75 340.7 364.7Q334.05 320.6 340.1 275.45Q340.7 270.95 343.2 268.75M252.2,180.25Q252.35 238.55 248.15 298.05Q245.55 334.75 238.7 369.95Q231.5 358 235.05 340.6Q238.05 325.9 239.25 310.95L242.45 270.25Q205.75 270.9 171.5 278.45L170.7 276.5L169.95 298.5Q168.45 336.7 164.4 374.15Q164.35 374.6 163.5 374.95Q159.25 346.1 161.65 315.6Q164 285.65 164.2 255.75Q164.45 216.25 170.25 180Q171.8 224.1 170.85 269.2Q172.9 265.75 179.7 264.5Q203.3 260.1 226.95 258.75L243.3 259.3L248.25 193.2Q248.8 185.45 252.2 180.25" />
</g>
</svg>
