<?xml version="1.0" encoding="utf-8"?>
<svg version="1.1" id="Layer_1"
xmlns="http://www.w3.org/2000/svg"
xmlns:xlink="http://www.w3.org/1999/xlink"


xml:space="preserve">
q-2.35 -23.4 -25.55 -26.95q-16.15 -2.2 -26.95 11.7q-11.8 15.1 -19.5 32.6q-8.35 19.2 -13.75 39.25q-5.75 21.25 -8.55 42.9q-2.35 18.25 -2.6 36.7q-0.25 20.4 0.25 40.75q0.55 20.7 3.65 41.2q3.2 21.4 12.65 40.7q10.75 21.95 33.8 20.3q8.75 0.05 16.55 -4.6q18.6 -11.3 32.6 -27.65q16.7 -19.6 5.15 -37.4q-13.05 30.05 -41.8 43.35q-17.25 8.15 -29.65 -7.05q-5.7 -6.9 -9.6 -15.2q-3.35 -7.15 -5 -15.2q-5.75 -27.5 -7.4 -55.7q-1.1 -18.55 -0.8 -37.15q0.2 -12.8 1.55 -25.4q2.8 -26.85 11.55 -52.3q8.3 -24.15 20.95 -46q15.6 -27.1 40.75 -17.2q8.85 3.5 16.2 9.65q-6.75 51.65 -8.85 104.7q-19.3 2.6 -36.65 11.25q2.95 -59.7 -0.1 -118.5q-0.75 0.1 -0.75 0.3q-4.7 54.35 -6.4 109.45q-1.85 59.25 -5.55 118.4q-1.85 30.1 -6.5 59.85q-2.3 14.5 5.7 21.7q5.25 -35.85 7.35 -72.75q18 -5 36.35 -7.65q-1.1 29.75 -5.85 59q-2.85 17.25 4.25 29.5q1.3 -0.8 1.95 -2.25q3.1 -6.75 3.55 -14.15q3.8 -59 4.65 -118.55q0.75 -1.05 1.1 -2.25q2.45 -7.55 -2.1 -13.5q1.55 -37.9 4.85 -75.4q2.7 -30.4 -0.45 -59.3q-0.6 -0.2 -0.7 0.3q-37.5 6.45 -75.5 11q-0.85 2.2 -1.1 4.5q-0.4 4 2.1 6.75q16.8 1.2 33.6 -1.2q-2.4 14.45 -2.65 30.4q-0.85 59.3 -2.95 118.5q-2.15 59.75 -7.75 119.15q-1.6 16.8 3.75 30.05q1 -0.35 1.05 -0.85q3.9 -35.35 5.65 -71.15q2.95 -59.1 5.45 -118.45q2.3 -54.7 0.1 -108.1q16.25 -3.75 28.4 -0.55q2 -0.55 2.65 -2.65q2.4 -8.3 -3.15 -14.35q-3.95 33.3 -3.6 68.2q0.65 59.55 -3 118.5q-2.75 44.45 -6.2 89.1q-1.3 16.6 3.8 29.85q1.75 -0.25 1.95 -2q4.35 -32.9 5.8 -66.65q2.5 -59.1 4.3 -118.55q1.8 -59.8 -2.55 -118.5q-6.3 56.75 -8.2 114.45q-38.1 5.9 -77.3 9.05q0.3 -13.25 0.85 -26.5q2.6 -60 -2 -118.55q-0.75 0.1 -0.8 0.35q-3.6 22.2 -4.25 45.65q-1.6 59.55 -1.05 119.25q0.5 59.6 -2.45 119.15q-0.85 17.5 5.8 29.05q3.8 -7.1 3.75 -15.75q-0.3 -59.65 -0.25 -119.2q39.45 -0.7 78.25 -6.55q-1.45 47.05 -2.5 94.25q-0.35 14.95 -2.3 29.75q-3.2 23.65 3.1 44.25q0.9 -0.6 1 -1.35q4.6 -34.05 5.05 -68.9q0.6 -50.4 2.9 -100.5q0.95 -1.7 1.15 -3.7q0.35 -3.25 -0.7 -5.85q3.15 -59.95 1.65 -118.55q-0.8 -0.15 -0.85 0.3<g id="3174" transform="matrix(1, 0, 0, 1, -83.1, 0)">
<path style="fill:#000000;fill-opacity:1" d="M373,121.35Q347.85 111.45 332.25 138.55Q319.6 160.4 311.3 184.55Q302.55 210 299.75 236.85Q298.4 249.45 298.2 262.25Q297.9 280.85 299 299.4Q300.65 327.6 306.4 355.1Q308.05 363.15 311.4 370.3Q315.3 378.6 321 385.5Q333.4 400.7 350.65 392.55Q379.4 379.25 392.45 349.2L391.85 345.85L396.95 340.5Q408.5 358.3 391.8 377.9Q377.8 394.25 359.2 405.55Q351.4 410.2 342.65 410.15Q319.6 411.8 308.85 389.85Q299.4 370.55 296.2 349.15Q293.1 328.65 292.55 307.95Q292.05 287.6 292.3 267.2Q292.55 248.75 294.9 230.5Q297.7 208.85 303.45 187.6Q308.85 167.55 317.2 148.35Q324.9 130.85 336.7 115.75Q347.5 101.85 363.65 104.05Q386.85 107.6 389.2 131Q381.85 124.85 373 121.35M468.2,114.5Q471.35 143.4 468.65 173.8Q465.35 211.3 463.8 249.2L464.45 249.25Q469 255.2 466.55 262.75Q466.2 263.95 465.45 265L463.25 265.25L462.6 292.25Q461.75 351.8 457.95 410.8Q457.5 418.2 454.4 424.95Q453.75 426.4 452.45 427.2Q445.35 414.95 448.2 397.7Q452.95 368.45 454.05 338.7L456.8 266.1Q438.45 268.75 420.45 273.75L420.15 273.4L416.3 344.2Q414.2 381.1 408.95 416.95Q400.95 409.75 403.25 395.25Q407.9 365.5 409.75 335.4Q413.45 276.25 415.3 217Q417 161.9 421.7 107.55Q421.7 107.35 422.45 107.25Q425.5 166.05 422.55 225.75L420.8 260.8Q438.15 252.15 457.45 249.55L458.65 219.5Q460.75 166.45 467.5 114.8Q467.6 114.3 468.2 114.5M310.45,96Q316 102.05 313.6 110.35Q312.95 112.45 310.95 113Q298.8 109.8 282.55 113.55L273.7 115.4Q275.9 168.8 273.6 223.5Q271.1 282.85 268.15 341.95Q266.4 377.75 262.5 413.1Q262.45 413.6 261.45 413.95Q256.1 400.7 257.7 383.9Q263.3 324.5 265.45 264.75Q267.55 205.55 268.4 146.25Q268.65 130.3 271.05 115.85L265.05 116.8Q248.25 119.2 231.45 118Q228.95 115.25 229.35 111.25Q229.6 108.95 230.45 106.75Q268.45 102.2 305.95 95.75L310.45 96M213.45,108.5Q217.8 167.2 216 227Q214.2 286.45 211.7 345.55Q210.25 379.3 205.9 412.2Q205.7 413.95 203.95 414.2Q198.85 400.95 200.15 384.35Q203.6 339.7 206.35 295.25Q210 236.3 209.35 176.75Q209 141.85 212.95 108.55L213.45 108.5M181.45,108.25Q182.95 166.85 179.8 226.8L179.35 235.9Q180.4 238.5 180.05 241.75Q179.85 243.75 178.9 245.45Q176.6 295.55 176 345.95Q175.55 380.8 170.95 414.85Q170.85 415.6 169.95 416.2Q163.65 395.6 166.85 371.95Q168.8 357.15 169.15 342.2Q170.2 295 171.65 247.95Q132.85 253.8 93.4 254.5L93.25 275Q93.2 334.55 93.5 394.2Q93.55 402.85 89.75 409.95Q83.1 398.4 83.95 380.9Q86.9 321.35 86.4 261.75Q85.85 202.05 87.45 142.5Q88.1 119.05 91.7 96.85Q91.75 96.6 92.5 96.5Q97.1 155.05 94.5 215.05Q93.95 228.3 93.65 241.55Q132.85 238.4 170.95 232.5L172.1 232.55L172.4 223Q174.3 165.3 180.6 108.55Q180.65 108.1 181.45 108.25" />
</g>
</svg>
