<?xml version="1.0" encoding="utf-8"?>
<svg version="1.1" id="Layer_1"
xmlns="http://www.w3.org/2000/svg"
xmlns:xlink="http://www.w3.org/1999/xlink"


xml:space="preserve">
q-0.4 -0.25 -0.5 -1.1q-7.6 21.85 -10.9 47.35q-6.15 47.2 -15.35 94q-3.1 12.9 3.05 24.3q30.85 -134.7 57.85 -270.15q4.15 -20.8 7.35 -41.6q2.8 87.6 22.1 171.4q18.9 -75.5 31.8 -152.55q17.95 140.9 24 282.95q0.65 14.95 3.2 29.6q5.6 -59.25 -2 -123.1q-6.95 -58.7 -12.4 -117.65q-21.25 91.85 -40.05 184q-8 -90.1 -21.5 -179.45q-0.8 -0.15 -1 0.4q-2.55 7.8 -2.4 16.1q0.75 59.7 -1.65 119.25q-0.45 11.25 -2.15 22.2q-2.5 16.5 2.7 30q4.35 -5 4.7 -12.45q1.2 -24.95 1.7 -50.35q0.5 -23.85 -0.55 -47.25q3.55 16.3 7.65 32.6q14.4 57.1 27.25 114.4q1.15 2.75 3.75 1.5q3.25 -6.35 1.75 -13.55q3.8 -22.45 4.45 -46.5q1.65 -59.8 0.15 -118.45q-1.7 -0.25 -1.85 1.5q-4.7 58.85 -6.25 118.45q-0.3 10.95 -1.55 21.8q-13.7 -57.65 -29.3 -114.35q-0.25 15 -2.75 29.7q-2.5 14.7 5.85 21.3q3.15 -27.4 3.9 -55.5q1.6 -60.3 -1.65 -119.25q-3.1 0.65 -3.15 4.5q-6.4 26.6 -6.9 54.6q-0.9 55.1 -3.5 110.15q0.25 -30.25 2.65 -59.9q2.5 -30.6 -0.35 -59.35q-6.05 28.2 -6.3 58.4q-0.5 59.3 -3.05 118.45q-2.55 59.55 -4.25 119.25q-0.45 14.95 -2.55 29.75q-2.5 17.25 5.2 30q4.95 -58 6.55 -117.65q0.9 -34.6 1.45 -69.35q35.6 5.85 71.95 7.35q-2.75 56.8 -4.7 113.75q-0.55 15.05 -3.25 29.75q-2.65 14.25 5.05 21.7q7.75 -52.55 8.4 -107.2q0.35 -28.9 1.1 -57.75q1.05 -0.75 1.45 -2.05q0.15 -1.55 -0.2 -3.05q-0.3 -0.35 -0.6 -0.4q0.65 -23.55 1.6 -47.15q2.45 -60.1 3.25 -118.45q-0.75 0.1 -0.8 0.4q-12.25 18.05 -20.4 40.65q-18.8 -38.55 -41.65 -74.15q-2.2 -0.15 -2.7 2.2q-1.1 4.95 0.7 9.8q17.65 27.95 29.85 59.6q4.15 10.7 11.55 16.25q-13.7 34 -29.35 67.25q-7.35 15.6 -0.55 27.1q12.1 -34.05 26.15 -68.4q16.7 -40.85 35.65 -80.6q6.95 -14.55 4.7 -28.45<g id="3165" transform="matrix(1, 0, 0, 1, -75.3, 0)">
<path style="fill:#000000;fill-opacity:1" d="M335.4,93.3Q348.9 182.65 356.9 272.75Q375.7 180.6 396.95 88.75L397.05 93.5L397.05 93.25L400.85 122.35L404.2 151.7L407.25 181.15L410.05 210.7Q415.5 269.65 422.45 328.35Q430.05 392.2 424.45 451.45L423 444.4L421.65 437.15Q419.1 422.5 418.45 407.55Q412.4 265.5 394.45 124.6L391.75 141.2Q378.85 218.25 359.95 293.75L357.8 290.1L356.45 292Q337.15 208.2 334.35 120.6L333.7 126.8L332.9 132.95Q329.7 153.75 325.55 174.55Q298.55 310 267.7 444.7Q261.55 433.3 264.65 420.4L265.7 416.2L273.35 387.45L280.65 358.65L287.4 329.7L290.6 315.15L293.6 300.6L298 278.7L302.45 256.7L308.2 227.85Q317.4 181.05 323.55 133.85Q326.85 108.35 334.45 86.5Q334.55 87.35 334.95 87.6L335.2 87L335.4 93.3M449.45,265.5Q465.05 322.2 478.75 379.85L485.8 410.25Q487.05 399.4 487.35 388.45Q488.9 328.85 493.6 270Q493.75 268.25 495.45 268.5Q496.95 327.15 495.3 386.95Q494.65 411 490.85 433.45L491.95 438.65Q493.45 445.85 490.2 452.2Q487.6 453.45 486.45 450.7Q473.6 393.4 459.2 336.3Q455.1 320 451.55 303.7Q452.6 327.1 452.1 350.95Q451.6 376.35 450.4 401.3L448.65 438Q448.3 445.45 443.95 450.45Q438.75 436.95 441.25 420.45Q442.95 409.5 443.4 398.25Q445.8 338.7 445.05 279Q444.9 270.7 447.45 262.9Q447.65 262.35 448.45 262.5L448.85 266.4L449.45 265.5M255.45,84.25Q258.7 143.2 257.1 203.5Q256.35 231.6 253.2 259Q244.85 252.4 247.35 237.7Q249.85 223 250.1 208L252.3 88.75Q252.35 84.9 255.45 84.25M175.45,78.75Q174.65 137.1 172.2 197.2Q171.25 220.8 170.6 244.35Q170.9 244.4 171.2 244.75L171.95 246.25L172.2 247L172.55 248.45Q172.9 249.95 172.75 251.5L172.3 254.5L171.9 255.95Q171.5 257.25 170.45 258L170.2 258Q169.45 286.85 169.1 315.75Q168.45 370.4 160.7 422.95Q153 415.5 155.65 401.25Q158.35 386.55 158.9 371.5Q160.85 314.55 163.6 257.75Q127.25 256.25 91.65 250.4Q91.1 285.15 90.2 319.75Q88.6 379.4 83.65 437.4L83 437.95Q75.3 425.2 77.8 407.95Q79.9 393.15 80.35 378.2Q82.05 318.5 84.6 258.95Q87.15 199.8 87.65 140.5Q87.9 110.3 93.95 82.1L94.5 82Q97.35 110.75 94.85 141.35Q92.45 171 92.2 201.25L91.8 239L92 239L92.5 239L164.25 243.9Q166.85 188.85 167.75 133.75Q168.25 105.75 174.65 79.15Q174.7 78.85 175.45 78.75M269.75,283.45Q250.8 323.2 234.1 364.05Q220.05 398.4 207.95 432.45Q201.15 420.95 208.5 405.35Q224.15 372.1 237.85 338.1Q230.45 332.55 226.3 321.85Q214.1 290.2 196.45 262.25Q194.65 257.4 195.75 252.45Q196.25 250.1 198.45 250.25Q221.3 285.85 240.1 324.4L240.7 325.25L241.8 328.25L254.05 295.65Q262.2 273.05 274.45 255Q276.7 268.9 269.75 283.45" />
</g>
</svg>
