<?xml version="1.0" encoding="utf-8"?>
<svg version="1.1" id="Layer_1"
xmlns="http://www.w3.org/2000/svg"
xmlns:xlink="http://www.w3.org/1999/xlink"


xml:space="preserve">
q-4.9 40.4 -3.4 81.8q1.45 40.7 0.95 81.1q-21.15 0.4 -42 -1.15q1.35 -59.9 -0.5 -118.5q-6.3 19.15 -5.35 42q1.85 44.3 0.6 88.55q-0.65 1.8 -0.75 3.7q-0.1 1.2 0.2 2.3q-3.2 59.65 -7.75 119.1q-0.8 10.5 5.75 13.6q3.95 -27.6 5 -56.2q25.2 3.3 50.25 4.2q-1.2 56.4 -6.6 111.9q-2.2 22.45 -5.65 44.6q-2.65 17 4.3 29.5q6.15 -32.75 7.75 -67.45q2.65 -59.55 3.3 -119.15q0.65 -60 -1.95 -118.5q-0.95 -0.25 -1.1 0.75q18.4 1.85 37.4 -1.7q4.6 52.9 2.35 106.2q-2.55 59.65 -4.55 119.25q-0.5 15.1 -2.8 29.75q-2.55 16.45 2.9 29.95q4.2 -6.9 4.6 -16.2q2.05 -51.85 -5.1 -100.9q5.8 -14.3 -9.2 -15.85q-10.65 3.15 -21.4 5.6q-1.6 0.75 -2.15 2.4q-24 5.3 -48.6 7.35q-1 2.55 -1.15 5.25q-0.2 3.6 2.15 6q-3.25 23.8 -2.1 48q2.8 59.55 0.2 119.15q-2.55 59.4 -4.2 119.25q-0.85 30.6 3.25 59.25q27.15 2.8 54 -1q4.65 -8.4 -1 -15.75q-24.85 1.95 -49.5 0.5q1.45 -46.05 2.5 -92.25q1.3 -59.3 1.9 -119.2q0.65 -60 -4.15 -118.5q-0.8 -0.2 -0.9 0.55q-2.25 1.1 -4.45 2.3q-6.2 6.3 -10.95 14.1q-12.3 20.4 -15.35 43.9q-6.75 52.25 -9.25 105.2q-2.35 59.5 1.9 118.5q2.3 31.55 16.9 59q2.75 5.1 8.5 5.9q25.3 3.55 45.25 -16.35q10.55 -10.5 18.5 -22.95q10 -15.75 1.2 -26.85q-4.3 6.3 -7.55 13.25q-16.4 35.15 -54.7 40q-3.85 -2.25 -5.8 -5.75q-19.3 -35.2 -19.4 -76.5q-0.1 -45.75 1.25 -91.55q24.45 -0.85 47.7 -9.9q2.35 -6.5 -1.4 -11.95q-23.1 7.35 -46.35 12.6q0.45 -11.35 0.35 -22.5q-0.3 -42.95 14.9 -81.75q4.05 -10.3 11.45 -18.45q19.65 -21.75 49.55 -10.55q3.35 2.4 5.45 5.9q0.9 1.5 2.45 1.35q0.25 -3.75 -1.25 -7.3q-9.7 -23.15 -38.5 -17.2q-2.1 1.5 -4.5 2.75q1.5 40 7.35 80.05q3.75 25.6 7 51.2q12.7 -57.45 26.7 -114.7q0 -4.55 -0.55 -8.95q-7.1 9.5 -9.85 23.1q-11.7 57.8 -24.6 115.25q-13 57.85 -24.75 115.8q-1.55 7.55 -4.6 14.4q-8.35 18.9 -4.45 36.65q12.55 -19.45 16.85 -44.7q7.65 -45.4 17.15 -90.55q23.3 6.55 48.9 3.75q6.7 54.9 13 109.9q2.5 21.75 3.2 43.65q0.45 13.75 7.9 20.2q2.95 -9.8 1.3 -20.3q-4.75 -29.9 -7.6 -60.05q-4.65 -49.15 -11.2 -97.95q1.9 -4.35 -0.75 -9.4q-8.3 -58.45 -13.65 -117.25q-1.1 -12.6 -4.3 -23.4q3.65 51.95 -0.6 103.5q-4.9 59.25 -4.55 119.15q0.3 59.4 -1.05 118.45q0.25 1.75 2 2q4.25 -13.55 4.75 -29.7q1.45 -44.2 0.55 -88.5q-0.5 -27.1 0.35 -54.05q36.15 6.25 72.35 1.6q-1.95 59.8 -4.9 119.3q-0.75 15 -2.7 29.75q-2.25 16.85 4.25 29.45q3.7 -20.15 4 -41.2q0.85 -59.3 3.6 -118.5q1.25 -2.1 1.5 -4.5q0.4 -4.05 -1.5 -7.5q1.3 -26.5 2.75 -53.05q3.2 -59.85 -0.15 -118.55q-5.3 34.5 -6.15 72q-35.8 2.5 -72.35 1.5q1.1 -27.15 3.6 -54.2q5.55 -59.8 -1.15 -118.65q-4.85 4.45 -4.3 12.85<g id="3186" transform="matrix(1, 0, 0, 1, -51, 0)">
<path style="fill:#000000;fill-opacity:1" d="M515.2,110.5Q517.8 169 517.15 229Q516.5 288.6 513.85 348.15L511.2 407.5Q509.6 442.2 503.45 474.95Q496.5 462.45 499.15 445.45Q502.6 423.3 504.8 400.85Q510.2 345.35 511.4 288.95Q486.35 288.05 461.15 284.75L458.2 381Q457.15 409.6 453.2 437.2Q446.65 434.1 447.45 423.6Q452 364.15 455.2 304.5L456.2 282.75L456 282L455.85 281.25Q455.55 280.15 455.65 278.95L455.7 278.25Q455.8 276.35 456.45 274.55Q457.7 230.3 455.85 186Q454.9 163.15 461.2 144Q463.05 202.6 461.7 262.5L461.45 272.95L463.95 272.85L463.95 272.75Q484.8 274.3 505.95 273.9L511.45 274L511.65 274.15Q512.15 233.75 510.7 193.05Q509.2 151.65 514.1 111.25Q514.25 110.25 515.2 110.5M366.3,122Q366.45 119.3 367.45 116.75Q392.05 114.7 416.05 109.4Q416.6 107.75 418.2 107L418.55 108.85Q429.3 106.4 439.95 103.25Q454.95 104.8 449.15 119.1L448.45 120L420.95 123.65Q428.1 172.7 426.05 224.55L421.5 343.05L419.55 393.25Q419.15 402.55 414.95 409.45Q409.5 395.95 412.05 379.5Q414.35 364.85 414.85 349.75Q416.85 290.15 419.4 230.5Q421.65 177.2 417.05 124.3L405.85 126.3Q386.85 129.85 368.45 128Q366.1 125.6 366.3 122M352.2,115.25Q357 173.75 356.35 233.75Q355.75 293.65 354.45 352.95Q353.4 399.15 351.95 445.2Q376.6 446.65 401.45 444.7Q407.1 452.05 402.45 460.45Q375.6 464.25 348.45 461.45Q344.35 432.8 345.2 402.2Q346.85 342.35 349.4 282.95Q352 223.35 349.2 163.8Q348.05 139.6 351.3 115.8Q351.4 115.05 352.2 115.25M210.95,107L216.95 106.4L217.9 106.15L217.95 106Q246.75 100.05 256.45 123.2Q257.95 126.75 257.7 130.5L257.2 130.9Q255.65 131.05 254.75 129.55Q252.65 126.05 249.3 123.65L247.95 122.5Q218.05 111.3 198.4 133.05Q191 141.2 186.95 151.5Q171.75 190.3 172.05 233.25Q172.15 244.4 171.7 255.75L171.1 272.6Q194.35 267.35 217.45 260Q221.2 265.45 218.85 271.95L218.45 272.75Q195.2 281.8 170.75 282.65Q169.4 328.45 169.5 374.2Q169.6 415.5 188.9 450.7Q190.85 454.2 194.7 456.45Q233 451.6 249.4 416.45Q252.65 409.5 256.95 403.2Q265.75 414.3 255.75 430.05Q247.8 442.5 237.25 453Q217.3 472.9 192 469.35Q186.25 468.55 183.5 463.45Q168.9 436 166.6 404.45Q162.35 345.45 164.7 285.95L165 279.55L165.15 275.95Q167.65 223 174.4 170.75Q177.45 147.25 189.75 126.85Q194.5 119.05 200.7 112.75L202 112.05Q204.2 110.85 206.45 109.75Q208.85 108.5 210.95 107M287.4,140.15Q273.4 197.4 260.7 254.85L257.25 270.7L302.25 269.3Q299 243.7 295.25 218.1Q289.4 178.05 287.9 138.05L287.4 140.15M294.3,142.85Q299.65 201.65 307.95 260.1L309.35 269.85L309.95 270.25Q312.6 275.3 310.7 279.65Q317.25 328.45 321.9 377.6Q324.75 407.75 329.5 437.65Q331.15 448.15 328.2 457.95Q320.75 451.5 320.3 437.75Q319.6 415.85 317.1 394.1Q310.8 339.1 304.1 284.2Q278.5 287 255.2 280.45Q245.7 325.6 238.05 371Q233.75 396.25 221.2 415.7Q217.3 397.95 225.65 379.05Q228.7 372.2 230.25 364.65Q242 306.7 255 248.85Q267.9 191.4 279.6 133.6Q282.35 120 289.45 110.5Q290 114.9 290 119.45Q293.2 130.25 294.3 142.85M61.5,99.75Q68.2 158.6 62.65 218.4Q60.15 245.45 59.05 272.6Q95.6 273.6 131.4 271.1L134.05 172Q134.9 134.5 140.2 100Q143.55 158.7 140.35 218.55Q138.9 245.1 137.6 271.6L138.2 272Q140.1 275.45 139.7 279.5Q139.45 281.9 138.2 284L137 284.2L135.85 307.7Q133.1 366.9 132.25 426.2Q131.95 447.25 128.25 467.4L127.45 468.95Q120.95 456.35 123.2 439.5Q125.15 424.75 125.9 409.75Q128.85 350.25 130.8 290.45L131 285.05Q94.8 289.7 58.65 283.45Q57.8 310.4 58.3 337.5Q59.2 381.8 57.75 426Q57.25 442.15 53 455.7Q51.25 455.45 51 453.7Q52.35 394.65 52.05 335.25Q51.7 275.35 56.6 216.1Q60.85 164.55 57.2 112.6Q56.65 104.2 61.5 99.75" />
</g>
</svg>
