<?xml version="1.0" encoding="utf-8"?>
<svg version="1.1" id="Layer_1"
xmlns="http://www.w3.org/2000/svg"
xmlns:xlink="http://www.w3.org/1999/xlink"


xml:space="preserve">
q39.85 -1.45 68.3 26.55q42.75 42.1 56.65 101.55q13.45 57.35 11.95 117.5q-1.35 53.15 -23.05 100.6q-9.75 21.3 -25.8 38.55q-18.65 20.05 -41.15 34.15q-13 8.15 -27.95 11.55q-18.25 4.2 -36.7 1.85q-0.9 -1.7 -1.05 -3.6q-4.6 -6.45 -2.7 -18.15q2.45 -14.75 3.6 -29.75q4.6 -59.5 8.65 -119.2q3.95 -58.9 3.5 -118.5q-0.45 -59.6 2.65 -118.55q0.35 -6.6 1.7 -12.4q0.4 -1.45 1.7 -1.65q1.6 -1.05 3.75 -1.35q27.25 19.95 22.4 56q-3.1 23.2 -21.9 35.5q9.45 25.15 13.35 52.8q3.85 27.15 8.15 54.3q0.95 5.65 -3.6 7.4q-12.8 -55.45 -22.1 -111.7q-4.85 41.85 -12.85 81.35q-5.3 -13.45 -2.35 -30q5.15 -29.35 8 -59.05q4.65 -48.8 8.4 -97.1q-0.55 -1.7 -0.5 -3.55q0.05 -2.75 0.95 -5.25q1.6 34.3 -0.55 68.8q1.3 -0.8 2.7 -1.4q1.2 -0.5 2.45 -0.85q27.1 -18.6 17 -50.35q-3.75 -11.75 -15.25 -16.65q-12.2 -3.5 -24.7 -4.65q0.85 54 0.05 109.45q-0.85 59.9 -4.25 119.2q-1.85 30.65 -5.15 60.6q38.7 2.55 72.1 -19.75q53.25 -40.35 63.4 -104.35q9.35 -58.8 2.8 -118.65q-6.75 -61.1 -42.05 -111.05q-23.7 -33.5 -62.15 -44.4q-10.35 -3.25 -23.6 -6.3q-10.15 -2.35 -20.75 -1.05q-29.3 3.55 -36.55 31.8q-14.05 54.9 -15.8 111.8q4.45 5.7 1.2 12.7q-26.75 5.25 -54.2 4.35q-1 44.2 -0.85 88.9q0.15 43.3 10.5 84.6q4.4 17.55 18.55 28.6q18.75 -2.8 35.1 -16.5q16.25 -13.7 29.15 -28.5q3.05 25.55 -22.75 41.4q-22.15 -5.15 -29.65 -28.7q-10.75 -33.8 -11.65 -69.8q-1.5 -58.95 -1.25 -117.7q0.25 -60.55 10.3 -119.4q4.8 -28.35 18.85 -52.35q8.3 -14.15 24.5 -17.9q11.7 -4.05 21.3 0.35q1.95 0.9 4.2 1.15q9.95 6.15 10.25 16.8q1 -1.35 2.45 -2.25q11.4 50.55 19 102.8q3.1 21.05 7.1 41.9q3.9 20.35 3.65 40.1q0 0.75 -0.65 1.5q-7.5 -7.4 -9.25 -20.8q-3.4 -25.95 -7.35 -51.75q-16.1 1.95 -33.05 0.35q-3.15 13.55 -10.5 23.05q-1.9 -21.25 6.05 -44.1q4.9 -14.05 8.5 -28.6q12.95 -54.1 20.9 -108.85q-0.1 -2.3 2 -2.2q-2.25 -12.6 -3.8 -25.25q-1.4 10.75 -3.65 21.5q-4.1 -25.6 -8.65 -51.1q-0.35 58.25 -3.15 117.8q-1.4 30.3 -2.65 60.5q0.85 1.7 1.05 3.7q0.45 3.8 -1.5 6.85q-0.7 20.3 -4.5 38.95q-5.85 -12.4 -4.4 -29.3q5.1 -59.3 7.3 -119.1q-35.3 2.15 -70.6 -1.15q-1.35 30.45 -3.35 60.75q-3.9 59.2 -2.8 118.45q0.35 16.5 -3.85 31.5q-7.55 -6.05 -5.15 -20.2q2.45 -14.75 2.2 -29.8q-1.2 -59.8 3.45 -119.25q4.65 -59.15 5.55 -118.45q0.85 -56.7 7.1 -112.45q0.15 -1.25 1.6 -1.05q2 5.45 2.4 11.25q0.1 0.75 -0.15 1.5q-0.7 0.9 -1.6 1.25q-2.65 58.45 -4.05 117q1.8 -59.5 5.4 -118.55q0.4 -6.35 4.7 -8.95q0.25 -0.65 0.6 -1q5.55 8.95 4.75 22.1q-2.1 33.15 -5 65.9q22.25 4.8 45.2 12.45q5.2 1.7 11.05 1.45q5.6 7.7 0.25 15.75q-26.2 3.6 -49.45 -10.3q-3.05 -1.8 -6.8 -1.7q0.75 -45.35 2.35 -91.55q0.25 -6.4 2.55 -12.45<g id="3189" transform="matrix(1, 0, 0, 1, -40.2, 0)">
<path style="fill:#000000;fill-opacity:1" d="M388.2,58L388.2 58.15Q428.05 56.7 456.5 84.7Q499.25 126.8 513.15 186.25Q526.6 243.6 525.1 303.75Q523.75 356.9 502.05 404.35Q492.3 425.65 476.25 442.9Q457.6 462.95 435.1 477.05Q422.1 485.2 407.15 488.6Q388.9 492.8 370.45 490.45L369.2 488.8Q368.3 487.1 368.15 485.2L368.05 483.35Q363.45 476.9 365.35 465.2Q367.8 450.45 368.95 435.45Q373.55 375.95 377.6 316.25Q381.55 257.35 381.1 197.75Q380.65 138.15 383.75 79.2Q384.1 72.6 385.45 66.8L384.7 66.75L384.35 65.95L384.05 63.75L384.05 61.5L384.25 60Q384.65 58.55 385.95 58.35L385.95 58.25L388.15 58.15L388.2 58M332.45,164L332.7 167.25Q334.3 166.2 336.45 165.9L336.95 165.75L340.45 166Q367.7 185.95 362.85 222Q359.75 245.2 340.95 257.5L340.3 258.2Q349.75 283.35 353.65 311Q357.5 338.15 361.8 365.3Q362.75 370.95 358.2 372.7Q345.4 317.25 336.1 261L335.25 261.35L333.95 262L331.8 261.6L329.8 281.85Q324.95 323.7 316.95 363.2Q311.65 349.75 314.6 333.2Q319.75 303.85 322.6 274.15Q327.25 225.35 331 177.05Q330.45 175.35 330.5 173.5Q330.55 170.75 331.45 168.25L331.65 168.05L331.95 164L332.45 164M333.35,178.95Q334.95 213.25 332.8 247.75Q334.1 246.95 335.5 246.35Q336.7 245.85 337.95 245.5Q365.05 226.9 354.95 195.15Q351.2 183.4 339.7 178.5L333.35 178.95M413.05,71.7Q400.85 68.2 388.35 67.05Q389.2 121.05 388.4 176.5Q387.55 236.4 384.15 295.7L377.15 414.25Q375.3 444.9 372 474.85Q410.7 477.4 444.1 455.1L451.05 450.15Q504.3 409.8 514.45 345.8Q523.8 287 517.25 227.15Q510.5 166.05 475.2 116.1Q451.5 82.6 413.05 71.7M255.45,82Q245.1 78.75 231.85 75.7Q221.7 73.35 211.1 74.65Q181.8 78.2 174.55 106.45Q160.5 161.35 158.75 218.25L158.25 236.8L211.45 230Q215.9 235.7 212.65 242.7L212.2 243.5Q185.45 248.75 158 247.85Q157 292.05 157.15 336.75Q157.3 380.05 167.65 421.35Q172.05 438.9 186.2 449.95Q204.95 447.15 221.3 433.45Q237.55 419.75 250.45 404.95Q253.5 430.5 227.7 446.35L193.95 466.95Q171.8 461.8 164.3 438.25Q153.55 404.45 152.65 368.45Q151.15 309.5 151.4 250.75Q151.65 190.2 161.7 131.35Q166.5 103 180.55 79Q188.85 64.85 205.05 61.1L212.95 59.25Q224.65 55.2 234.25 59.6Q236.2 60.5 238.45 60.75L245.2 65.2Q255.15 71.35 255.45 82M283.45,61.25L284 63.5Q285 62.15 286.45 61.25L286.35 73.7Q297.75 124.25 305.35 176.5Q308.45 197.55 312.45 218.4Q316.35 238.75 316.1 258.5Q316.1 259.25 315.45 260Q307.95 252.6 306.2 239.2Q302.8 213.25 298.85 187.45Q282.75 189.4 265.8 187.8L254.95 234.7Q251.8 248.25 244.45 257.75Q242.55 236.5 250.5 213.65Q255.4 199.6 259 185.05L260.05 180.8L260.45 179Q273.4 124.9 281.35 70.15L281.7 68.35L281.45 63.45Q281.35 61.15 283.45 61.25M288.15,123Q285.9 110.4 284.35 97.75Q282.95 108.5 280.7 119.25L267.95 178.15L296.8 174.1Q292.7 148.5 288.15 123M140.45,59.75Q140.1 118 137.3 177.55Q135.9 207.85 134.65 238.05Q135.5 239.75 135.7 241.75Q136.15 245.55 134.2 248.6L132.25 296.75L127.95 415.25Q127.25 435.55 123.45 454.2Q117.6 441.8 119.05 424.9Q124.15 365.6 126.35 305.8L128.35 249.65Q93.05 251.8 57.75 248.5Q56.4 278.95 54.4 309.25Q50.5 368.45 51.6 427.7Q51.95 444.2 47.75 459.2Q40.2 453.15 42.6 439Q45.05 424.25 44.8 409.2Q43.6 349.4 48.25 289.95Q52.9 230.8 53.8 171.5Q54.65 114.8 60.9 59.05Q61.05 57.8 62.5 58L63.45 58.75L64.25 59.5Q66.25 64.95 66.65 70.75Q66.75 71.5 66.5 72.25Q65.8 73.15 64.9 73.5L63.75 73.75Q61.1 132.2 59.7 190.75L58.15 239.4L120.95 235.25L128.8 235.85L130.35 187.25Q132.15 127.75 135.75 68.7Q136.15 62.35 140.45 59.75M273.35,364.2Q273.6 363.55 273.95 363.2Q279.5 372.15 278.7 385.3Q276.6 418.45 273.7 451.2Q295.95 456 318.9 463.65Q324.1 465.35 329.95 465.1L337.45 464.95Q343.05 472.65 337.7 480.7Q311.5 484.3 288.25 470.4Q285.2 468.6 281.45 468.7L268.45 468.2Q269.2 422.85 270.8 376.65Q271.05 370.25 273.35 364.2" />
</g>
</svg>
