<?xml version="1.0" encoding="utf-8"?>
<svg version="1.1" id="Layer_1"
xmlns="http://www.w3.org/2000/svg"
xmlns:xlink="http://www.w3.org/1999/xlink"


xml:space="preserve">
q-0.95 18.8 -4.2 37.45q-1.1 6.3 0.1 12.6q1.1 5.7 4.1 8.7q3.95 -23 6.45 -46.05q1.35 -12.35 1.55 -24.3q0.3 -21.6 -2.65 -39.9q-5 17.8 -4.3 37.55q-3.45 21.05 -3.15 42.55q0.3 21.05 -2.2 42.15q-1.55 12.8 3.65 22.5q-19.95 7.95 -40.75 2.15q-21.4 -5.9 -19.55 -33.25q1.4 -21.15 8.35 -41.2q7.55 -21.65 29.65 -27.5q27.7 -7.1 28.75 19.05q-41.85 -18.9 -57.15 27.6q23.1 -8.7 47.9 -7.1q4.2 5.9 0.6 12.4q-3.55 17.75 6.1 31.65q33.3 2.3 62.25 -15.25q3.35 17.65 -15.95 25.25q0.55 -14.85 -0.25 -29.65q-1.05 -18.45 6.2 -34.95q33.1 -11.15 67.95 -7.8q4.1 5.1 1.55 11.5q0.15 51.45 -11.45 100.95q-5.95 -44 2.1 -89.1q1 -5.75 1.4 -11.55q-10.2 -11.5 -4.3 -35.9q3.45 -14.3 4.45 -29.25<g id="3180" transform="matrix(1, 0, 0, 1, -150.15, 0)">
<path style="fill:#000000;fill-opacity:1" d="M365.15,314.2L359.95 370.35Q354.75 360.65 356.3 347.85Q358.8 326.75 358.5 305.7Q358.2 284.2 361.65 263.15L365.15 302.35L388.1 298.65Q387.4 278.9 392.4 261.1Q395.35 279.4 395.05 301Q394.85 312.95 393.5 325.3Q391 348.35 387.05 371.35Q384.05 368.35 382.95 362.65Q381.75 356.35 382.85 350.05Q386.1 331.4 387.05 312.6L365.15 314.2M324.25,359.7Q304.3 367.65 283.5 361.85Q262.1 355.95 263.95 328.6Q265.35 307.45 272.3 287.4Q279.85 265.75 301.95 259.9Q329.65 252.8 330.7 278.95Q288.85 260.05 273.55 306.55Q296.65 297.85 321.45 299.45Q325.65 305.35 322.05 311.85L271.85 318.05Q268.3 335.8 277.95 349.7Q311.25 352 340.2 334.45Q343.55 352.1 324.25 359.7M160.5,303.3L162.25 273.65L163.55 244.1Q164.1 229.25 163.3 214.45Q162.25 196 169.5 179.5L168.4 267.55Q201.5 256.4 236.35 259.75L245.2 180.25L244.25 258.6Q248.35 263.7 245.8 270.1L245.05 271.85L243.4 272.5Q243.55 323.95 231.95 373.45Q226 329.45 234.05 284.35Q235.05 278.6 235.45 272.8L167.95 277.15L160.35 368.45Q150.15 356.95 156.05 332.55Q159.5 318.25 160.5 303.3" />
</g>
</svg>
