<?xml version="1.0" encoding="utf-8"?>
<svg version="1.1" id="Layer_1"
xmlns="http://www.w3.org/2000/svg"
xmlns:xlink="http://www.w3.org/1999/xlink"


xml:space="preserve">
q-6.05 7.45 -7.5 19.3q-7.3 58.55 -18.25 116.6q-5.5 29.4 -13.95 57.9q-2.1 7.15 -2.35 13.55q-7.65 -45.05 -12.45 -93.25q-5.35 -54.25 -13.05 -107.5q-0.6 -0.2 -0.9 0.3q-2.35 4.2 -0.1 8.65q-5.35 13.9 -7.5 29.65q-7.8 57.85 -16.85 115.5q-9.15 58.75 -19 117.35q-4.9 29.5 -15.3 57.65q-7.05 19.15 -4.1 36.6q1 -0.5 1.3 -1.25q13.4 -34.3 19.45 -71q9.75 -58.25 19 -116.6q2.9 -18.3 4.75 -36.1q1.15 14.45 2.9 28.95q7 58.6 10.75 117.85q2 31.15 11.55 57.7q1.5 -3.5 1.95 -7.05q0.55 2.5 1.45 4.9q13.55 -50.85 22.5 -103.35q9.95 -58.1 18 -116.4q4.8 59.25 11.3 118.4q3.3 29.9 7.25 59.65q1.8 13.5 8.95 21.25q3.35 -4.65 2.1 -10.5q-12.65 -57.9 -18.05 -116.95q-5.35 -58.7 -8.8 -117.85q-3.5 -59.8 -12.75 -117.65q-1.4 22.1 0.6 46.8q-3.15 56.15 -5.75 112.5q-1.4 30.65 -0.35 59.3q2.25 -1.3 4.25 -3.25q24.8 4.85 49.5 6q2.7 -5.7 -0.25 -11.25q-25.1 -2.6 -48.75 -8.25q-0.35 -24.15 1.2 -48q3.75 -59.9 3.8 -118.5q-3.25 4.6 -3.65 11.45q-4.5 17.85 -7.85 35.8q-3.4 18.2 -4.5 36.35q-2 37.05 -0.7 74.55q0.7 20.7 2.65 41.25q0.5 5 1.45 9.9q3.35 17.8 11.95 33.65q8.85 16.2 26.3 21.2q20.75 5.85 40.05 -4.35q19.9 -10.4 27.7 -31.5q2.2 -6.1 2.85 -12.55q-21.55 31.95 -57.65 35.55q-10.6 1.15 -20.3 -3.2q-6.8 -3.1 -11.25 -9.05q-2.25 -3.1 -3.65 -6.55q-3.35 -8.3 -5.95 -16.95q-3.05 -10.2 -5.2 -20.7q-4.8 -23.9 -5.1 -48.3q-0.25 -21.4 0.85 -42.8q35.65 -5.75 71.2 0.25q3.25 -4.3 1.85 -9.65q-0.4 -1.4 -1.45 -2.4q-35.55 -7.55 -70.85 2.55q-1.6 -77.5 44.1 -135.35q10.9 -13.75 28.15 -15.75q13.15 -1.55 25.2 4.1q-1.65 -29.8 -34.45 -20.35q-22.3 6.55 -36.1 25.35q-16.7 22.55 -23.6 50.1q-0.5 0.1 -0.5 0.25q-2.25 47.55 -5.1 95.1q-35.85 3.65 -71.6 -2.4q1.15 -18.65 2.7 -37.2q4.9 -58.95 12.85 -117q0 -5.75 -3.1 -10.5q-6.45 36.9 -10.3 76.4q-4.35 44.15 -6.4 88.7q-1.25 0.8 -1.15 2.25q-0.05 1.95 0.8 3.75q-0.45 10.65 -0.75 21.3q-1.8 59.05 -6.1 117.65q-2.25 30.4 0.75 58.3q2.8 -2.35 3 -6.45q2.85 -59.15 4.3 -118.5q0.9 -35.65 3 -71.05q35.5 8.3 71.6 3.25q-3.75 59.15 -6.05 118.55q-0.6 14.95 -2.2 29.8q-1.85 17.15 4.1 29.65q3.25 -5.2 0.9 -11.15q1.05 -53.35 4.45 -106.5q3.6 -59.05 2.95 -117.8q0.35 -2.3 -0.65 -4.45<g id="3183" transform="matrix(1, 0, 0, 1, -32, 0)">
<path style="fill:#000000;fill-opacity:1" d="M441.85,81.25L441.95 82Q433.9 140.3 423.95 198.4Q415 250.9 401.45 301.75Q400.55 299.35 400 296.85Q399.55 300.4 398.05 303.9L397.45 304.75Q387.9 278.2 385.9 247.05Q382.15 187.8 375.15 129.2Q373.4 114.7 372.25 100.25Q370.4 118.05 367.5 136.35Q358.25 194.7 348.5 252.95L329.2 369.45Q323.15 406.15 309.75 440.45Q309.45 441.2 308.45 441.7Q305.5 424.25 312.55 405.1Q322.95 376.95 327.85 347.45Q337.7 288.85 346.85 230.1Q355.9 172.45 363.7 114.6Q365.85 98.85 371.2 84.95Q368.95 80.5 371.3 76.3Q371.6 75.8 372.2 76L372.9 80.7L374.2 77.75L373.65 85.6Q381.35 138.85 386.7 193.1Q391.5 241.3 399.15 286.35Q399.4 279.95 401.5 272.8Q409.95 244.3 415.45 214.9Q426.4 156.85 433.7 98.3Q435.15 86.45 441.2 79L441.85 81.25M442.2,86Q451.45 143.85 454.95 203.65Q458.4 262.8 463.75 321.5Q469.15 380.55 481.8 438.45Q483.05 444.3 479.7 448.95Q472.55 441.2 470.75 427.7Q466.8 397.95 463.5 368.05Q457 308.9 452.2 249.65L442.8 132.8Q440.8 108.1 442.2 86M280.2,80.5Q280.15 139.1 276.4 199Q274.85 222.85 275.2 247Q298.85 252.65 323.95 255.25Q326.9 260.8 324.2 266.5Q299.5 265.35 274.7 260.5Q272.7 262.45 270.45 263.75Q269.4 235.1 270.8 204.45Q273.4 148.1 276.55 91.95Q276.95 85.1 280.2 80.5M187.4,105Q201.2 86.2 223.5 79.65Q256.3 70.2 257.95 100L253.45 93.75Q241.4 88.1 228.25 89.65Q211 91.65 200.1 105.4Q154.4 163.25 156 240.75Q191.3 230.65 226.85 238.2Q227.9 239.2 228.3 240.6Q229.7 245.95 226.45 250.25Q190.9 244.25 155.25 250L154.45 264.2Q153.35 285.6 153.6 307Q153.9 331.4 158.7 355.3Q160.85 365.8 163.9 376Q166.5 384.65 169.85 392.95Q171.25 396.4 173.5 399.5Q177.95 405.45 184.75 408.55Q194.45 412.9 205.05 411.75Q241.15 408.15 262.7 376.2Q262.05 382.65 259.85 388.75Q252.05 409.85 232.15 420.25Q212.85 430.45 192.1 424.6Q174.65 419.6 165.8 403.4Q157.2 387.55 153.85 369.75Q152.9 364.85 152.4 359.85Q150.45 339.3 149.75 318.6Q148.45 281.1 150.45 244.05L151.45 227.25Q152.55 209.1 155.95 190.9Q159.3 172.95 163.8 155.1Q170.7 127.55 187.4 105M127.2,73L127.95 73.75Q128.95 75.9 128.6 78.2L128.2 79.75Q128.85 138.5 125.25 197.55L117.9 315.95Q114.5 369.1 113.45 422.45Q115.8 428.4 112.55 433.6L111.95 434.2Q106 421.7 107.85 404.55Q109.45 389.7 110.05 374.75Q112.35 315.35 116.1 256.2L116.9 243.95Q80.8 249 45.3 240.7Q43.2 276.1 42.3 311.75Q40.85 371.1 38 430.25Q37.8 434.35 35 436.7Q32 408.8 34.25 378.4Q38.55 319.8 40.35 260.75Q40.65 250.1 41.1 239.45L40.75 239.25Q39.9 237.45 39.95 235.5L40 234L40.05 233.25L40.1 232.5Q40 231.05 41.25 230.25L41.55 230.1Q43.6 185.55 47.95 141.4Q51.8 101.9 58.25 65Q61.35 69.75 61.35 75.5L61.5 76.25Q53.55 134.3 48.65 193.25Q47.1 211.8 45.95 230.45Q81.7 236.5 117.55 232.85Q120.4 185.3 122.65 137.75L125.7 72.5Q125.7 72.35 126.2 72.25L127.2 73" />
</g>
</svg>
