<?xml version="1.0" encoding="utf-8"?>
<svg version="1.1" id="Layer_1"
xmlns="http://www.w3.org/2000/svg"
xmlns:xlink="http://www.w3.org/1999/xlink"


xml:space="preserve">
q-2.85 24.6 -3.45 49.95q-1.45 59.2 -4.1 118.45q-2.7 59.3 -6.55 118.5q-0.95 15 -4.3 29.55q-3.95 17.1 2.65 29.7q1.4 -0.85 1.65 -2.35q10.1 -57.9 11.5 -117.6q0.75 -30.9 1.85 -61.75q3.9 -1.85 7.5 -3.9q1.75 15.5 7.65 31.15q20.6 54.95 36.75 111.6q4.2 14.75 8.75 29.4q4.8 15.5 12.35 27.45q2.3 -1.45 2.05 -4.15q-3.05 -30.25 -15.95 -58.45q-8.1 -17.75 -13.55 -36.45q-15.15 -52 -34.6 -102.65q33.2 -21.1 38.35 -62.8q4.4 -35.8 -5.25 -70.95q-8 -29.15 -36.05 -36.25q-5.65 0.5 -11.65 1.75q-0.6 -0.2 -0.7 0.3q-0.85 0.95 -1 2.2q-0.15 2.25 0 4.55q9.95 -2.5 16.3 5.25q25.65 31.3 25.15 73.1q-3.65 53.1 -52.5 71.25q2.45 -53.35 0.9 -105.5q3.7 1.1 8.35 -0.1q12.65 -1.55 24.85 -0.05q-1.45 -11.9 -13.2 -13.35q-27.05 -3.65 -43.25 16.75q-16.05 20.3 -19.65 46.7q-6.25 45.5 0.85 91.5q1.35 8.8 5 16.9q6.4 14.1 19.75 22.1q5.25 3.15 11.5 1.95q20.55 -4.2 37.6 -17.1q12.15 -9.2 8.05 -23.9q-16.25 16.7 -38.5 21.3q-34.8 7.15 -38.45 -33.05q-2.1 -23 -3.1 -46.4q1.4 -2.4 1.65 -5q0.2 -2.3 -0.8 -4.45q-28.9 1.8 -56.25 10.45q0.25 -27.8 12.25 -52.9q13.65 -17.4 36.5 -19.85q-0.75 0.1 -0.8 0.4q-8.85 36.65 -16 74.1q-8.25 43.1 -17.25 85.95q-0.85 2.85 -0.3 5.7q-10.5 50.4 -19.9 100.95q-2.7 14.65 -7.65 28.85q-5.95 17 1.1 28.7q11.15 -35.95 18 -73.2q11 58.2 18.35 116.7q1.7 13.2 8.55 20.5q1.45 -1.55 1.3 -3.65q-4.2 -52.55 -15.45 -104.35q-12.5 -57.8 -23.15 -115.95q-10.65 -58.2 -18.2 -115.75q-0.65 0.1 -0.85 0.4q-4.5 56.8 -5.25 114.75q-0.4 30.5 3.85 59.25q6 -9.5 2.25 -22.5q1.75 -16.3 1.65 -33q-0.2 -59.75 -2.15 -118.5q2.6 31.15 8.45 61.75q-21.4 3.3 -42.1 9.4q10.45 -58.05 22.95 -115.8q-2.7 14.9 -2.25 30.45q1.7 59.75 0.6 119.25q-1.1 59.85 -6.55 119.05q-2.9 31.5 2.7 59.9q4.4 -21.15 4.8 -44.75q0.35 -23.05 0.95 -45.7q37.8 -6.15 75.85 -10.9q-0.05 30.2 -3.6 59.75q-3.7 30.5 1.2 59.45q1.15 -0.35 1.2 -0.9q6.95 -48.05 6.9 -97.3q-0.05 -45.25 0.75 -90.3q0.9 -2.95 0.1 -5.9q-8.75 46.85 -9.1 97.5q-33.9 3.85 -66.7 12.45q1.85 -60.4 -2.95 -119.25q-0.65 -0.2 -0.75 0.3<g id="3212" transform="matrix(1, 0, 0, 1, -70.4, 0)">
<path style="fill:#000000;fill-opacity:1" d="M340.95,81.7Q341.1 80.45 341.95 79.5L342.25 79.45L342.5 77.3Q342.6 76.8 343.2 77L343.3 79.25Q349.3 78 354.95 77.5Q383 84.6 391 113.75Q400.65 148.9 396.25 184.7Q391.1 226.4 357.9 247.5Q377.35 298.15 392.5 350.15Q397.95 368.85 406.05 386.6Q418.95 414.8 422 445.05Q422.25 447.75 419.95 449.2Q412.4 437.25 407.6 421.75Q403.05 407.1 398.85 392.35Q382.7 335.7 362.1 280.75Q356.2 265.1 354.45 249.6Q350.85 251.65 346.95 253.5L341.45 253.25L340.45 252.25Q339.35 283.1 338.6 314Q337.2 373.7 327.1 431.6Q326.85 433.1 325.45 433.95Q318.85 421.35 322.8 404.25Q326.15 389.7 327.1 374.7Q330.95 315.5 333.65 256.2Q336.3 196.95 337.75 137.75Q338.35 112.4 341.2 87.8L340.95 86.25Q340.8 83.95 340.95 81.7M343.65,90Q345.2 142.15 342.75 195.5L340.95 239.5Q389.8 221.35 393.45 168.25Q393.95 126.45 368.3 95.15Q361.95 87.4 352 89.9Q347.35 91.1 343.65 90M437.45,281.05Q425.45 306.15 425.2 333.95Q452.55 325.3 481.45 323.5L482.9 326.4Q483.9 328.55 483.7 330.85Q483.45 333.45 482.05 335.85L425.4 344.55Q426.4 367.95 428.5 390.95Q432.15 431.15 466.95 424Q489.2 419.4 505.45 402.7Q509.55 417.4 497.4 426.6Q480.35 439.5 459.8 443.7Q453.55 444.9 448.3 441.75Q434.95 433.75 428.55 419.65Q424.9 411.55 423.55 402.75Q416.45 356.75 422.7 311.25Q426.3 284.85 442.35 264.55Q458.55 244.15 485.6 247.8Q497.35 249.25 498.8 261.15Q486.6 259.65 473.95 261.2Q451.1 263.65 437.45 281.05M248.45,84.5Q256 142.05 266.65 200.25Q277.3 258.4 289.8 316.2Q301.05 368 305.25 420.55Q305.4 422.65 303.95 424.2Q297.1 416.9 295.4 403.7Q288.05 345.2 277.05 287L270.75 253.7L216.9 262.2L201.7 345Q194.85 382.25 183.7 418.2Q176.65 406.5 182.6 389.5Q187.55 375.3 190.25 360.65Q199.65 310.1 210.15 259.7Q209.6 256.85 210.45 254L211.4 253.7L213.4 244.2Q222.4 201.35 230.65 158.25Q237.8 120.8 246.65 84.15Q246.7 83.85 247.45 83.75L247.6 84.9Q247.8 84.6 248.45 84.5M304.2,82Q306.15 140.75 306.35 200.5Q306.45 217.2 304.7 233.5Q308.45 246.5 302.45 256Q298.2 227.25 298.6 196.75Q299.35 138.8 303.85 82L304.2 82M245.8,113.15Q233.3 170.9 222.85 228.95L218.85 251.4Q239.55 245.3 260.95 242L268.6 242.35L255 171.25Q249.15 140.65 246.55 109.5L245.8 113.15M82.25,81.5Q87.05 140.35 85.2 200.75L84.25 232.5Q117.05 223.9 150.95 220.05L151.95 219.75L159.85 220.05L160.1 179.25Q160.45 128.6 169.2 81.75L166.65 200.25L166.15 223.3Q166.95 226.25 166.05 229.2Q165.25 274.25 165.3 319.5Q165.35 368.75 158.4 416.8Q158.35 417.35 157.2 417.7Q152.3 388.75 156 358.25Q159.55 328.7 159.6 298.5L159.8 231.95Q121.75 236.7 83.95 242.85L81.75 320Q81.15 342.65 80.8 365.7Q80.4 389.3 76 410.45Q70.4 382.05 73.3 350.55Q78.75 291.35 79.85 231.5Q80.95 172 79.25 112.25Q78.8 96.7 81.5 81.8Q81.6 81.3 82.25 81.5" />
</g>
</svg>
