<?xml version="1.0" encoding="utf-8"?>
<svg version="1.1" id="Layer_1"
xmlns="http://www.w3.org/2000/svg"
xmlns:xlink="http://www.w3.org/1999/xlink"


xml:space="preserve">
q16 29.85 18.5 64.05q3.55 47.85 3.1 96.6q-0.45 48.75 -1.7 97.2q-1.05 39.2 -13.6 75.95q-12.7 37.3 -48.5 45.6q1.85 -10.85 1.4 -22.9q-1.7 -48.6 -3 -97.2q-1.25 -48.35 -2.2 -96.6q-0.9 -44.9 3.55 -88q0.6 0.65 1.35 0.9q12.9 4.95 25.15 10.95q2.5 0.35 4.65 1.7q5.55 3.45 10.4 7.65q-19.45 -21.8 -48.05 -29.35q-0.45 -1.6 -1.75 -2.65q-2 2.15 -1.65 5.45q0.2 1.9 1.6 3.05q-2.1 10.75 -2.3 22.6q-0.8 48.55 -0.65 97.25q0.1 48.3 1.5 96.6q1.35 48.15 2.35 96.65q0.9 44.65 1.3 89.6q-1 2.9 -0.7 6.05q0.15 1.65 1 3.05q22 1.8 39.95 -12.4q30.95 -33.25 34.35 -79.5q3.5 -48.1 3.65 -96.6q0.15 -48.65 0.45 -97.25q0.35 -48.95 -14.3 -94.75q-2.05 -6.4 -6.35 -11.25q-6.2 -2.4 -13.1 -1.75q-8.1 4.6 -11.3 13.85q-11.75 33.75 -13.05 70.1q-1.75 48.1 -2.65 96.65q-0.85 48.35 0 96.65q0.8 48.4 1.95 96.6q0.6 24.95 8.45 48.05q1.25 3.75 4.85 5.3q17.95 7.75 33.45 -6.15q16.5 -14.7 15.8 -34.55q-5.55 3.8 -8.7 10.1q-12.35 24.75 -39.2 20.85q-1 -1.05 -1.7 -2.35q-6.1 -21.95 -6.65 -45.25q-0.55 -24.5 -0.5 -49.05q12.2 -1.95 24.85 -6.6q0.5 -0.85 0.6 -1.85q0.15 -1.3 -0.4 -2.45q-1.15 -0.55 -2.4 -0.95q-11.95 0.45 -21.75 6.4q0.05 -21.15 0.55 -42.3q1.2 -48.45 1.6 -96.6q0.25 -36.45 16.15 -67.9q11.75 -4.25 22.2 -1.2q0.3 -1.2 -0.1 -2.45q-0.95 16.65 -1.6 33.6q-1.9 48.65 -0.3 96.05q2.75 -3.2 1.4 -6.75q-2.1 -2.1 -5.3 -2.65q-15.05 2.55 -26.9 0.85q1 -16.4 1.35 -33.05q1.05 -48.55 1.3 -96q-2.5 3.6 -2.8 9.15q-0.05 48.65 -2.3 97.15q-1.15 25.1 2.85 48.2q3.45 -9.4 3.4 -20.6q-0.05 -31.1 0.45 -62.35q0.8 -48.35 0.05 -96.65q-0.75 -48.95 -3.7 -96.6q-2.05 16.25 -1.7 34.25q0.95 48.4 0.95 96.6q0.1 -5.9 -2.35 -10.6q-6.7 -7.45 -16.9 -5.25q6.85 -2.8 13.85 -0.55q2.65 0.85 4.85 2.8q3.95 3.35 3.75 8.45q-7.75 21.85 -5.75 47.1q0.75 9.2 0 18.55q-1.8 21.95 -4.25 43.75q-0.15 1.5 -0.05 3.05q0.3 5.8 2.45 11.4q8.45 -37.35 7.5 -76.2q15.3 35.55 28.2 71.05q-7.55 -37.85 -27.25 -71.2q15.95 -12.95 16.5 -33.4q23.3 -0.75 45.65 1q-5.1 9.9 -8.95 20.4q-16.45 45.05 -29.6 91.2q-5.25 18.45 -4.25 35.75q27.75 4.55 54.45 -1.2q2.45 -3.7 1.2 -7.95q-25.15 3.25 -49.75 0.8q7.65 -37.6 18.4 -74.25q6.95 -23.55 18.65 -44.95q7.25 -13.25 7.4 -26.9q-0.4 -0.35 -0.8 -0.35q-15.25 -0.15 -29.35 4.1q-0.55 1.45 -0.4 3.05q-1.6 1.75 -2.15 4.55q-9.05 47.3 -18.8 94.75q-9.7 47.3 -20.9 94.3q-7.7 33 -14.95 66.05q-10.25 46.75 -16.85 94.1q-1.65 11.95 -4.45 23.6q-4.4 18.3 -3.25 35.8q9.95 -31.1 13.95 -65.4q5.55 -47.85 16.25 -94.85q39.2 -2.4 77.8 -1.35q2 16.45 3.5 33q4.3 46.9 6.8 94.15q2.55 47.3 7.75 94.2q0.5 2.15 2.45 1.65q1.1 -1.3 1 -3.05q-3.4 -48 -7.5 -95.85q-4.15 -47.95 -11.75 -95.4q-5.75 -35.6 -14.5 -70.65q-11.05 -44.6 -15.3 -89.9q8.4 32.8 14.35 66.1q5 27.95 8.6 56.15q-17.15 -2.4 -34.8 -1.95q-21.05 0.05 -41.15 4.45q10.45 -46.7 20.2 -93.6q9.1 -43.85 16 -87.3q-0.75 42.45 10.2 85.5q1.25 48.1 1.5 96.6q0.25 48.35 1.95 96.65q1.7 48.45 4.5 96.55q2.8 48.25 -0.1 96.6q-0.4 6.1 -1.4 12q-1.85 10.9 3 18q4.9 -29 4.8 -59.3q-0.2 -48.7 -3.15 -96.7q-3 -48.2 -4.8 -96.5q-1.85 -48.2 -3.15 -96.65q-1.35 -48.9 1.2 -96q-4.75 13.05 -4.35 28.75q-0.3 48.4 -1.25 96.6q-0.15 1.25 0.15 2.45q-0.75 43.8 -0.15 87.5q0.65 48.55 2.15 97.25q0.7 24.3 -1.5 48.8q-0.95 10.85 3.25 17.65q1.05 -1.7 1.15 -3.65q2.15 -48.4 0.05 -96.65q-2.1 -48.25 -2.55 -96.6q-0.2 -26.6 0.25 -53.15q50.55 -7.35 102.6 -12.45q2.5 -3.75 0 -7.35q-9.95 0.1 -19.7 1.55q-44.8 6.6 -86.9 13.85q0.4 -19.6 1.15 -39.2q1.85 -48.2 2.05 -96.65q0.1 -24.75 -3.45 -48.3<g id="3207" transform="matrix(1, 0, 0, 1, -45.85, 0)">
<path style="fill:#000000;fill-opacity:1" d="M506.5,99.55Q504.35 98.2 501.85 97.85Q489.6 91.85 476.7 86.9Q475.95 86.65 475.35 86L472.55 85.25Q468.1 128.35 469 173.25L470.9 269.9Q471.85 318.15 473.1 366.5Q474.4 415.1 476.1 463.7Q476.55 475.75 474.7 486.6Q510.5 478.3 523.2 441Q535.75 404.25 536.8 365.05Q538.05 316.6 538.5 267.85Q538.95 219.1 535.4 171.25Q532.9 137.05 516.9 107.2Q512.05 103 506.5 99.55M527.6,117.65Q542.25 163.45 541.9 212.4Q541.6 261 541.45 309.65Q541.3 358.15 537.8 406.25Q534.4 452.5 503.45 485.75Q485.5 499.95 463.5 498.15Q462.65 496.75 462.5 495.1Q462.2 491.95 463.2 489.05L463.5 488.4L471.2 487.3Q470.8 442.35 469.9 397.7Q468.9 349.2 467.55 301.05Q466.15 252.75 466.05 204.45Q465.9 155.75 466.7 107.2Q466.9 95.35 469 84.6L465.95 84.2Q464.55 83.05 464.35 81.15Q464 77.85 466 75.7L466.35 75.45L470.9 76.45L471.45 74.4Q472.75 75.45 473.2 77.05Q501.8 84.6 521.25 106.4Q525.55 111.25 527.6 117.65M438.85,71.95L439.45 72.55L440.1 73.15L441.5 74.4L441.8 75.05L442 75.6Q442.4 76.85 442.1 78.05L441.9 78.7Q431.45 75.65 419.7 79.9Q403.8 111.35 403.55 147.8Q403.15 195.95 401.95 244.4Q401.45 265.55 401.4 286.7Q411.2 280.75 423.15 280.3L423.35 280.3Q424.6 280.7 425.75 281.25L426.4 281.7Q426.95 282.85 426.8 284.15Q426.7 285.15 426.2 286Q413.55 290.65 401.35 292.6Q401.3 317.15 401.85 341.65L404.05 438.25Q404.6 461.55 410.7 483.5L411.35 484.1L411.85 484.8Q412.55 486.1 413.55 487.15Q440.4 491.05 452.75 466.3Q455.9 460 461.45 456.2Q462.15 476.05 445.65 490.75Q430.15 504.65 412.2 496.9Q408.6 495.35 407.35 491.6Q399.5 468.5 398.9 443.55Q397.75 395.35 396.95 346.95Q396.1 298.65 396.95 250.3Q397.85 201.75 399.6 153.65Q400.9 117.3 412.65 83.55Q415.85 74.3 423.95 69.7Q430.85 69.05 437.05 71.45L438.85 71.95M346.7,66.85Q346.45 114.3 345.4 162.85Q345.05 179.5 344.05 195.9Q355.9 197.6 370.95 195.05Q374.15 195.6 376.25 197.7Q377.6 201.25 374.85 204.45L342 205.65Q340.4 158.25 342.3 109.6Q342.95 92.65 343.9 76Q344.2 70.45 346.7 66.85M326.25,100.5Q325.9 82.5 327.95 66.25Q330.9 113.9 331.65 162.85Q332.4 211.15 331.6 259.5Q331.1 290.75 331.15 321.85Q331.2 333.05 327.75 342.45Q323.75 319.35 324.9 294.25Q327.15 245.75 327.2 197.1Q327.2 148.9 326.25 100.5M374.15,228.7Q373.6 249.15 357.65 262.1Q377.35 295.45 384.9 333.3L383.05 334.6Q370.15 299.1 354.85 263.55L349.1 264.6Q350.05 303.45 341.6 340.8Q339.45 335.2 339.15 329.4Q339.05 327.85 339.2 326.35Q341.65 304.55 343.45 282.6Q344.2 273.25 343.45 264.05Q341.45 238.8 349.2 216.95L349.3 255.5L361.8 251.15L371.8 227.3Q372 222.2 368.05 218.85Q365.85 216.9 363.2 216.05Q356.2 213.8 349.35 216.6L351.8 210.35L354.95 209.75Q365.15 207.55 371.85 215Q374.3 219.7 374.2 225.6L374.15 228.7M333.25,354.05L333.1 353.45L333.05 352.85Q332.9 351.25 333.45 349.8Q347.55 345.55 362.8 345.7L384.85 346.4Q385.25 346.4 385.65 346.75Q385.5 360.4 378.25 373.65Q366.55 395.05 359.6 418.6Q348.85 455.25 341.2 492.85Q365.8 495.3 390.95 492.05L391.45 492.75L391.95 493.9Q393.2 498.15 390.75 501.85Q364.05 507.6 336.3 503.05Q335.3 485.75 340.55 467.3Q353.7 421.15 370.15 376.1Q374 365.6 379.1 355.7Q356.75 353.95 333.45 354.7L333.25 354.05M274.3,61.75L274.95 61.15L274.55 63.95Q278.8 109.25 289.85 153.85Q298.6 188.9 304.35 224.5Q311.95 271.95 316.1 319.9Q320.2 367.75 323.6 415.75L329.35 501.45Q329.45 503.2 328.35 504.5Q326.4 505 325.9 502.85Q320.7 455.95 318.15 408.65Q315.65 361.4 311.35 314.5Q309.85 297.95 307.85 281.5Q269.25 280.45 230.05 282.85L216.5 342.4Q205.8 389.4 200.25 437.25Q196.25 471.55 186.3 502.65Q185.15 485.15 189.55 466.85Q192.35 455.2 194 443.25Q200.6 395.9 210.85 349.15Q218.1 316.1 225.8 283.1L225 283.15L224.9 281.9L224.9 280.1L225 279.45L226.75 279.05L232.25 255.6Q243.45 208.6 253.15 161.3Q262.9 113.85 271.95 66.55Q272.5 63.75 274.1 62L274.15 59.95L274.3 61.75M273.95,67.75Q267.05 111.2 257.95 155.05Q248.2 201.95 237.75 248.65L231.15 278Q251.25 273.6 272.3 273.55Q289.95 273.1 307.1 275.5Q303.5 247.3 298.5 219.35Q292.55 186.05 284.15 153.25Q273.2 110.2 273.95 67.75M160,57.7Q157.45 104.8 158.8 153.7Q160.1 202.15 161.95 250.35Q163.75 298.65 166.75 346.85Q169.7 394.85 169.9 443.55Q170 473.85 165.1 502.85Q160.25 495.75 162.1 484.85Q163.1 478.95 163.5 472.85Q166.4 424.5 163.6 376.25Q160.8 328.15 159.1 279.7Q157.4 231.4 157.15 183.05Q156.9 134.55 155.65 86.45Q155.25 70.75 160 57.7M49.1,55.25Q52.65 78.8 52.55 103.55Q52.35 152 50.5 200.2Q49.75 219.8 49.35 239.4Q91.45 232.15 136.25 225.55Q146 224.1 155.95 224Q158.45 227.6 155.95 231.35L155.5 231.95Q103.45 237.05 52.9 244.4L49.25 244.25Q48.8 270.8 49 297.4Q49.45 345.75 51.55 394Q53.65 442.25 51.5 490.65Q51.4 492.6 50.35 494.3Q46.15 487.5 47.1 476.65Q49.3 452.15 48.6 427.85Q47.1 379.15 46.45 330.6Q45.85 286.9 46.6 243.1L46.45 243Q46.15 241.8 46.3 240.55L46.45 239.9L46.65 239.9L46.75 233.4Q47.7 185.2 48 136.8L48.7 55.45L49.1 55.25" />
</g>
</svg>
