<?xml version="1.0" encoding="utf-8"?>
<svg version="1.1" id="Layer_1"
xmlns="http://www.w3.org/2000/svg"
xmlns:xlink="http://www.w3.org/1999/xlink"


xml:space="preserve">
q-4.25 -7 -12 -9.8q-17.2 9.1 -16.15 28.2q1.25 21.9 16.6 37.7q16.2 16.7 24.4 38.4q6.45 17.15 -11.55 25.35q-14.25 6.4 -28.55 -0.65q-0.55 -2.85 -2.4 -4.9q-0.95 -1.15 -2.1 -1.55q-5.1 8 1.1 16.05q9.45 12.2 24.6 10.15q8.3 -1.25 14.45 -7.05q17.15 -15.95 6.55 -38.85q-16.25 -35.3 -34.55 -70.05q-4 -7.6 3.45 -12.7q15.65 -10.9 29.8 3.6q4.3 -4.5 0.35 -11.05q25.15 -0.95 50.2 -1.25q2.5 -3.25 2 -7.5q-0.35 -0.4 -0.7 -0.35q-18.65 1.2 -37.55 -1.15q-40.4 4.3 -81.5 6.25q-2.6 3.05 -1.95 7.5q-6.15 50.5 -5.9 102.45q0.3 59.8 -1.5 119.2q-0.95 30.2 -5.8 59.75q-2.8 16.9 3.25 29.5q5.1 -10.75 6 -23.1q4.3 -58.85 3.25 -118.65q-1.05 -59.85 2.1 -119.2q1.35 -25.65 0.7 -50q-35.3 33.4 -38.15 83.6q-5.8 101.85 -0.95 201.9q0.35 7.1 6.6 11.35q7 4.85 15.25 6.35q35.4 -28.7 42.1 -73.3q0.75 -4.9 -3.35 -7.85q-6.7 33.05 -36.2 56.6q-7.35 5.8 -12.8 -3.35q-7.65 -12.7 -6.95 -28.45q2.5 -55.5 5.65 -111.2q3.7 -6.75 -0.15 -13.4q-20.3 -4 -39.45 1.15q-7.1 -59.6 23.9 -108.05q21.25 -11.4 32.85 11.8q2.45 4.9 5.8 9.4q3.45 -31.3 -27.6 -40q-0.5 0 -0.55 0.15q-10.2 29.35 -16.7 60.85q-7.95 38.8 -17 77.35q-0.6 2.15 -0.6 4.5q0.05 1.95 0.85 3.75q-11.35 33.85 -19.85 68.25q-2.9 11.65 -7.3 22.7q-6.8 17 0.2 29.3q10.9 -32.3 19.9 -66.5q10.9 -41.15 20.9 -82.45q19.55 0.1 39.4 -3.65q6.9 56.1 15.5 111.85q1.15 7.5 0.9 14.95q-0.7 17 7.85 28.55q1.25 -0.8 1.25 -2.25q0.4 -13.75 -1.2 -27.8q-1.7 -15.2 -3.85 -30.2q-8.45 -58.45 -15.9 -116.9q-7.45 -58.65 -14.55 -116.75q-1.85 59.25 -4.35 118.5q-2.55 59.6 -5.5 118.5q0.7 2.75 3.25 1.5q4.05 -27.8 4.85 -56.25q1.15 -42.2 3.35 -84.2q31.9 2.2 64.55 0.15q-2.45 59.25 -2.25 118.5q0.55 2.6 3 2q3.45 -28.3 4.25 -57.75q1.85 -4.65 -0.4 -8.95q2 -60.05 0.7 -118.5q-4.7 26.45 -5.4 55.75q-0.9 40.4 -2.35 80.75q-33.35 -1.4 -64.7 6.75q0.75 -13.9 1.65 -27.75q3.85 -59.8 0.8 -118.5q-3.5 26.05 -4.4 54.7<g id="3206" transform="matrix(1, 0, 0, 1, -82, 0)">
<path style="fill:#000000;fill-opacity:1" d="M324.1,143.9Q309.95 129.4 294.3 140.3Q286.85 145.4 290.85 153Q309.15 187.75 325.4 223.05Q336 245.95 318.85 261.9Q312.7 267.7 304.4 268.95Q289.25 271 279.8 258.8Q273.6 250.75 278.7 242.75L279.3 242.85Q280.45 243.25 281.4 244.4Q283.25 246.45 283.8 249.3L283.85 250.7L283.7 251.5Q298 258.55 312.25 252.15Q330.25 243.95 323.8 226.8Q315.6 205.1 299.4 188.4Q284.05 172.6 282.8 150.7Q281.75 131.6 298.95 122.5L312.45 123.05Q320.2 125.85 324.45 132.85Q328.4 139.4 324.1 143.9M355.8,165.5Q352.65 224.85 353.7 284.7Q354.75 344.5 350.45 403.35Q349.55 415.7 344.45 426.45Q338.4 413.85 341.2 396.95Q346.05 367.4 347 337.2Q348.8 277.8 348.5 218Q348.25 166.05 354.4 115.55L287.45 119L286.35 117.4L285.8 115.95L285.5 114.5Q284.85 110.05 287.45 107Q328.55 105.05 368.95 100.75Q387.85 103.1 406.5 101.9Q406.85 101.85 407.2 102.25L407.9 103.75L408.4 105.25L408.7 106.75Q409.2 111 406.7 114.25Q381.65 114.55 356.5 115.5Q357.15 139.85 355.8 165.5M430.1,118.25Q461.15 126.95 457.7 158.25Q454.35 153.75 451.9 148.85Q440.3 125.65 419.05 137.05Q388.05 185.5 395.15 245.1Q414.3 239.95 434.6 243.95L435.05 244.35Q438.9 251 435.2 257.75L394.55 258.2Q391.4 313.9 388.9 369.4Q388.2 385.15 395.85 397.85Q401.3 407 408.65 401.2Q438.15 377.65 444.85 344.6L448.45 339.55Q452.55 342.5 451.8 347.4Q445.1 392 409.7 420.7Q401.45 419.2 394.45 414.35Q388.2 410.1 387.85 403Q383 302.95 388.8 201.1Q391.65 150.9 426.95 117.5L430.1 118.25M252.2,125.25L252.2 125.3Q259.3 183.4 266.75 242.05Q274.2 300.5 282.65 358.95Q284.8 373.95 286.5 389.15Q288.1 403.2 287.7 416.95Q287.7 418.4 286.45 419.2Q277.9 407.65 278.6 390.65Q278.85 383.2 277.7 375.7Q269.1 319.95 262.2 263.85Q242.35 267.6 222.8 267.5Q212.8 308.8 201.9 349.95Q192.9 384.15 182 416.45Q175 404.15 181.8 387.15Q186.2 376.1 189.1 364.45Q197.6 330.05 208.95 296.2L216 267.3L214.7 267.25Q213.9 265.45 213.85 263.5Q213.85 261.15 214.45 259L218.2 257.85Q227.25 219.3 235.2 180.5Q241.7 149 251.9 119.65Q251.95 119.5 252.45 119.5L252.2 125.25M244.2,177.65L225.6 255.85L260.7 251.8L249.9 148.35L244.2 177.65M96.25,111.25Q99.3 169.95 95.45 229.75Q94.55 243.6 93.8 257.5Q125.15 249.35 158.5 250.75Q159.95 210.4 160.85 170Q161.55 140.7 166.25 114.25Q167.55 172.7 165.55 232.75L164.95 251.6L166.4 252.4L167 253Q169.25 257.3 167.4 261.95L166.75 263.5L164.6 263.7L162 351.95Q161.2 381.4 157.75 409.7Q155.3 410.3 154.75 407.7Q154.55 348.45 157 289.2L158 264.15Q125.35 266.2 93.45 264Q91.25 306 90.1 348.2Q89.3 376.65 85.25 404.45Q82.7 405.7 82 402.95Q84.95 344.05 87.5 284.45Q90 225.2 91.85 165.95Q92.75 137.3 96.25 111.25" />
</g>
</svg>
