<?xml version="1.0" encoding="utf-8"?>
<svg version="1.1" id="Layer_1"
xmlns="http://www.w3.org/2000/svg"
xmlns:xlink="http://www.w3.org/1999/xlink"


xml:space="preserve">
q-5.75 18.85 -5.45 39.25q0.4 29.85 -0.35 59.65q-0.5 14.85 -1.7 29.7q-1.25 15.5 0.9 30.8q1 6.95 4.3 13.15q4.85 -49.75 3.55 -99.7q1.65 -2.95 1.65 -6.45q0.05 -4.15 -2 -7.75q-22.8 -1.3 -45.65 3.05q1.3 -4.35 -0.55 -8.4q-33.05 -2.35 -65.3 5.2q-21.35 -2.65 -40.7 4.45q-0.25 -44 -1.8 -87.2q-4.8 4.8 -4.7 13.5q0.55 59.65 -1.95 119.15q-1.25 30.65 1.65 59.3q0.85 -0.35 0.95 -0.85q5.55 -35.3 5.8 -72.65q4.55 -1.15 8.9 -0.8q15.8 1.3 29.75 -1.9q-0.3 19.1 -4.6 37.15q-3.4 14.15 4.3 21.85q6.8 -37.45 7.3 -76.5q0.6 -2.7 0.05 -4.95q0.4 -46.55 -0.1 -92.05q-5.95 6.25 -6 16.75q-13.05 -7 -27.8 -6.8q-19.45 7.1 -32.85 23.35q-13.6 16.45 -19.35 37.1q-4 14.45 -4.9 29.55q-1.25 2.45 -1.1 5.2q0.7 22.7 5.7 45.85q3.05 14.1 11.25 25.8q12.9 18.6 35.85 18.75q16.45 0.15 30.75 -7.95q11.7 -6.65 18.35 -18.3q5.75 -10.15 -0.4 -20.15q-5.6 10.05 -14.8 17.35q-11 8.65 -24.65 11.3q-15.55 2.7 -28.75 -4.9q-12.1 -6.85 -17.95 -20.05q-8.9 -20.05 -9.45 -42q2.05 -1.85 2.3 -4.5q3.5 -26.7 18.25 -49.2q7.1 -10.85 18.35 -17.4q22 -12.95 45.05 -1.85q5.95 2.9 11.3 6.8q-0.15 -6.25 -4.9 -11.5q-5.4 -6 -12.25 -9.65<g id="3221" transform="matrix(1, 0, 0, 1, -141.6, 0)">
<path style="fill:#000000;fill-opacity:1" d="M354.55,183.9Q386.8 176.35 419.85 178.7L420.15 179.05L420.6 179.8Q422.45 183.85 421.15 188.2L420.2 191L354.7 194.75L355.2 253Q378.05 248.65 400.85 249.95L401.1 250.3Q403.15 253.9 403.1 258.05Q403.1 261.55 401.45 264.5L355.25 265.25Q356.55 315.2 351.7 364.95Q348.4 358.75 347.4 351.8Q345.25 336.5 346.5 321Q347.7 306.15 348.2 291.3L348.65 276.4Q349.4 246.6 349 216.75Q348.7 196.35 354.45 177.5L354.55 183.9M198.5,175.5Q199 221 198.6 267.55Q199.15 269.8 198.55 272.5L198.3 293.95Q197.8 333 191 370.45Q183.3 362.75 186.7 348.6Q191 330.55 191.3 311.45L191.8 277Q177.85 280.2 162.05 278.9Q157.7 278.55 153.15 279.7L151.3 280.05L151.25 298.2Q151 335.55 145.45 370.85Q145.35 371.35 144.5 371.7Q141.6 343.05 142.85 312.4Q145.35 252.9 144.8 193.25Q144.7 184.55 149.5 179.75Q151.05 222.95 151.3 266.95Q170.65 259.85 192 262.5L192.5 192.25Q192.55 181.75 198.5 175.5M316,193.7Q320.75 198.95 320.9 205.2L317.45 204.5Q312.1 200.6 306.15 197.7Q283.1 186.6 261.1 199.55Q249.85 206.1 242.75 216.95Q228 239.45 224.5 266.15L288.45 253.75L289.85 256L290.7 258.3L291.1 260.85L291 263.5Q290.75 266.15 288.7 268L223.7 278.4L223.85 284.65Q224.4 306.6 233.3 326.65Q239.15 339.85 251.25 346.7Q264.45 354.3 280 351.6Q293.65 348.95 304.65 340.3Q313.85 333 319.45 322.95Q325.6 332.95 319.85 343.1Q313.2 354.75 301.5 361.4Q287.2 369.5 270.75 369.35Q247.8 369.2 234.9 350.6Q226.7 338.9 223.65 324.8Q218.65 301.65 217.95 278.95L215.15 278.05L214.75 277.7L214.25 276.7L213.9 275.6L213.6 273.2Q213.45 270.45 214.7 268L218.85 267.25Q219.75 252.15 223.75 237.7Q229.5 217.05 243.1 200.6Q256.5 184.35 275.95 177.25Q290.7 177.05 303.75 184.05Q310.6 187.7 316 193.7" />
</g>
</svg>
