<?xml version="1.0" encoding="utf-8"?>
<svg version="1.1" id="Layer_1"
xmlns="http://www.w3.org/2000/svg"
xmlns:xlink="http://www.w3.org/1999/xlink"


xml:space="preserve">
q-18.55 -50.65 -73.45 -53.45q-2.35 -0.2 -4.55 -0.05q-4.4 0.4 -8.25 2.35q-0.5 1.05 -0.7 2.2q-0.4 2.3 0.15 4.55q-0.85 4.95 -1.05 10.45q-1.85 58.9 -0.95 118.55q0.95 59.55 0.7 119.25q-0.3 59.95 -5.25 119.1q-2.55 30.55 1.6 59.35q18.3 2.05 37.4 0.4q16 -1.4 29.15 -11.2q35.6 -26.55 46.15 -70.95q13.75 -57.75 14.25 -117.7q0.2 -29.85 -3.4 -59.05q-7.3 -58.85 -30.85 -113.65q-3.1 -7.3 -5.75 -14.6q16.35 4.25 26.65 17q20.9 25.85 33.1 57.8q22 57.55 24.75 119.1q2.6 58 -6.5 114.2q-7 42.95 -31.8 78.5q-12.35 13.05 -30.6 17.1q-25.1 5.55 -50.55 4.4q3.6 -33.65 4.9 -67.95q2.2 -59.3 2.05 -119.25q14.55 -0.15 28.55 3.45q-38.25 81.9 -27.6 176.35q1.4 12.55 5.85 24.3q2.35 6.3 6.1 12.05q2.8 4.3 6.05 8.25q2.85 3.45 6.5 5.25q6.1 2.85 12 -1.5q20.2 -15.95 15.1 -39.9q-5.45 20.35 -24.3 24.1q-6.1 1.1 -9.9 -5.55q-4.75 -8.4 -6.65 -17.85q-2.05 -10.35 -2.45 -21.05q-0.7 -19.75 -0.65 -39.55q21.95 3.2 42.55 -4.65q3.15 -5.05 1 -10.6q-20.25 7.3 -41.8 7.75q-4.8 -55.15 21.05 -102.2q1.4 5.6 4.55 10.45q0.75 1.15 2.2 1.3q4.95 -19.1 -13.3 -25.65q-6.7 10.55 -5.3 21.05q20.6 -19.25 -0.1 -37.85q-6.15 5.5 -2.35 13.45q-19.4 6.3 -29.35 25.65q-9.4 18.35 -15.8 38q-6.45 20 -9.1 40.9q-2.8 21.75 -4.25 43.45q-1.45 21.6 -2.5 42.6q-0.9 18.85 -1.45 37.65q-0.45 14.85 -0.25 29.7q0.15 14.75 0.8 29.55q1.05 21.2 5.45 41.95q4.35 20.35 17.8 36.35q14.9 17.7 36.4 13.9q21.4 -3.65 37.25 -19.65q18.95 -19.05 7.7 -39.5q-6.9 18 -23.3 28.85q-8.1 5.4 -17.55 6.55q-11.15 1.2 -20.8 -4.25q-4.45 -2.45 -8.1 -5.9q-8.6 -8.3 -12.55 -19.7q-2.65 -7.65 -3.8 -15.65q-2.15 -14.65 -3.75 -29.3q-1.65 -14.8 -2.7 -29.6q-1 -14.8 -1.45 -29.65q-0.95 -32.25 0.4 -64.55q34.6 0.45 68.35 -6.6q4.4 -6.6 0.75 -13.35q-2.1 -65.8 20.4 -126.85q5.95 -16.2 15.45 -30.45q5.25 -7.9 14.25 -11.15q3.1 -1.05 6.15 -1.35q6.8 -0.65 13.7 0.3q4.05 0.6 7.9 2.3q1.7 0.95 3.35 2.15q-2.15 -20.8 -22.7 -23.65q-5 -0.55 -10.05 -0.1q14.35 -2.6 25.15 10.6q-1.4 -28.05 -27.6 -21.25q-11.4 2.95 -16.65 14.15q-20.5 43.8 -23.7 92.95q-0.85 13.3 -0.35 27.1q0.4 11.85 0.25 23.65q-0.35 23.85 13.3 40.65q3.2 3.9 8.55 5.1q16.35 3.55 30 -5.95q15.7 -10.8 8.15 -25.15q-13.2 16.15 -35 15.25q-9.25 -0.05 -13.45 -9.3q-8.7 -19.15 -6.2 -40.65q1.15 -9.9 1.55 -19.85q23.9 1.05 45.85 -8.55q3.3 -6 0.15 -11.9q-21.25 8.4 -44.25 10.7q-5.55 -58.25 32.75 -94.1q1 -0.95 2.25 -1.65q-3.05 22.2 -3.85 44.9q-2 59.1 -1.15 118.5q-3.5 -0.25 -7.95 0.8q-0.1 -35.15 0.3 -70.25q0.65 -60.05 -0.5 -118.5q-0.85 -0.15 -0.9 0.3q-5.5 47.15 -5.8 95.7q-0.4 59.75 0.9 119.25q1.35 59.9 -0.45 119.2q-0.9 30.1 -3.4 59.9q-1.45 16.9 4.65 29.35q1.1 -0.85 1.25 -2.25q2.95 -31.95 3.6 -64.5q1.25 -59.35 0.6 -119.2q30.75 -2.05 60.2 -0.35q-0.15 40.05 -1.85 80.15q-2.5 59.8 -8.6 119.1q-1.45 14.15 5.5 21.6q3.1 -33.15 5.1 -66.8q3.5 -59.5 4.65 -119.15q3.5 -4.15 1.65 -9.55q-1.7 -5.05 -5.55 -7.15q0.55 -59.95 -0.85 -118.5q-0.75 0.1 -0.75 0.35q-3.7 20.9 -3.7 43.45q-0.05 59.6 -1.9 119.2q-0.95 30 -3.6 59.9q-1.5 16.6 3.2 29.85q20.1 1.25 39.8 4.85q1.1 -2.9 0.75 -5.95q-0.3 -2.35 -1.35 -4.5q-2.65 -0.25 -5.45 0.9q-1.65 0.35 -3.25 0.95q2 -60.15 -1.9 -119.25q-10.45 28.7 -16.85 58.75q-5.95 20.65 -9.55 42.45q-1.3 7.7 2.25 11.15q-1.2 31.5 10.6 59.95q5.8 -30.75 -4.1 -63.05q2.55 -4.05 0.85 -8.15q-0.55 -1.4 -1.7 -2.3<g id="3225" transform="matrix(1, 0, 0, 1, -50.4, 0)">
<path style="fill:#000000;fill-opacity:1" d="M495.15,128.05Q518.7 182.85 526 241.7Q529.6 270.9 529.4 300.75Q528.9 360.7 515.15 418.45Q504.6 462.85 469 489.4Q455.85 499.2 439.85 500.6Q420.75 502.25 402.45 500.2L401.5 498.7L401.3 498.1L400.2 498.7Q396.05 469.9 398.6 439.35Q403.55 380.2 403.85 320.25Q404.1 260.55 403.15 201Q402.25 141.35 404.1 82.45Q404.3 76.95 405.15 72L401.45 72.25L400.4 70.65L399.9 69.25Q399.35 67 399.75 64.7Q399.95 63.55 400.45 62.5Q404.3 60.55 408.7 60.15L409.45 58.5L409.45 60.05Q411.65 59.9 414 60.1L415.95 60Q470.85 62.8 489.4 113.45Q492.05 120.75 495.15 128.05M409.45,71.9L409.7 177L410 296.25Q410.15 356.2 407.95 415.5Q406.65 449.8 403.05 483.45Q428.5 484.6 453.6 479.05Q471.85 475 484.2 461.95Q509 426.4 516 383.45Q525.1 327.25 522.5 269.25Q519.75 207.7 497.75 150.15Q485.55 118.2 464.65 92.35Q454.35 79.6 438 75.35Q424 71.75 409.45 71.9M369.4,246.1Q387.65 252.65 382.7 271.75Q381.25 271.6 380.5 270.45Q377.35 265.6 375.95 260L371.7 257.1L367.7 257.25Q341.85 304.3 346.65 359.45Q368.2 359 388.45 351.7L390.05 355Q392.2 360.55 389.05 365.6Q368.45 373.45 346.5 370.25Q346.45 390.05 347.15 409.8Q347.55 420.5 349.6 430.85Q351.5 440.3 356.25 448.7Q360.05 455.35 366.15 454.25Q385 450.5 390.45 430.15L390.95 430.05Q396.05 454 375.85 469.95Q369.95 474.3 363.85 471.45Q360.2 469.65 357.35 466.2Q354.1 462.25 351.3 457.95Q347.55 452.2 345.2 445.9Q340.75 434.15 339.35 421.6Q328.7 327.15 366.95 245.25L369.4 246.1M265.6,61.7Q261.8 53.75 267.95 48.25Q288.65 66.85 268.05 86.1Q266.65 75.6 273.35 65.05L266.25 62.8L265.6 61.7M216,48.6Q236.55 51.45 238.7 72.25L235.6 69.85Q233.95 68.65 232.25 67.7L228.75 65.9Q224.9 64.2 220.85 63.6Q213.95 62.65 207.15 63.3Q204.1 63.6 201 64.65Q192 67.9 186.75 75.8Q177.25 90.05 171.3 106.25Q148.8 167.3 150.9 233.1L218.45 222.25L219.55 224.15Q223.2 230.9 218.8 237.5Q185.05 244.55 150.45 244.1Q149.1 276.4 150.05 308.65Q150.5 323.5 151.5 338.3Q152.55 353.1 154.2 367.9Q155.8 382.55 157.95 397.2Q159.1 405.2 161.75 412.85Q165.7 424.25 174.3 432.55Q177.95 436 182.4 438.45Q192.05 443.9 203.2 442.7Q212.65 441.55 220.75 436.15Q237.15 425.3 244.05 407.3L241.45 405.7L246.9 403.7L249.95 398.45Q261.2 418.9 242.25 437.95Q226.4 453.95 205 457.6Q183.5 461.4 168.6 443.7Q155.15 427.7 150.8 407.35Q146.4 386.6 145.35 365.4L144.05 336Q143.4 321.2 143.25 306.45Q143.05 291.6 143.5 276.75Q144.05 257.95 144.95 239.1Q146 218.1 147.45 196.5Q148.9 174.8 151.7 153.05Q154.35 132.15 160.8 112.15Q167.2 92.5 176.6 74.15Q186.55 54.8 205.95 48.5Q211 48.05 216 48.6M270.95,155.6Q232.65 191.45 238.2 249.7Q261.2 247.4 282.45 239L283.35 240.6Q286.5 246.5 283.2 252.5Q261.25 262.1 237.35 261.05Q236.95 271 235.8 280.9Q233.3 302.4 242 321.55Q246.2 330.8 255.45 330.85Q277.25 331.75 290.45 315.6Q298 329.95 282.3 340.75Q268.65 350.25 252.3 346.7Q246.95 345.5 243.75 341.6Q230.1 324.8 230.45 300.95Q230.6 289.15 230.2 277.3Q229.7 263.5 230.55 250.2Q233.75 201.05 254.25 157.25Q259.5 146.05 270.9 143.1Q297.1 136.3 298.5 164.35L298.35 164.55Q287.55 151.35 273.2 153.95Q271.95 154.65 270.95 155.6M127.45,43.75Q128.85 102.3 128.3 162.25L127.55 230.55Q131.4 232.65 133.1 237.7Q134.95 243.1 131.45 247.25L127.3 246.95L126.7 281.5Q125.55 341.15 122.05 400.65Q120.05 434.3 116.95 467.45Q110 460 111.45 445.85Q117.55 386.55 120.05 326.75Q121.75 286.65 121.9 246.6Q92.45 244.9 61.7 246.95L61.95 284.5Q62.6 344.35 61.35 403.7Q60.7 436.25 57.75 468.2Q57.6 469.6 56.5 470.45Q50.4 458 51.85 441.1Q54.35 411.3 55.25 381.2Q57.05 321.9 55.7 262Q54.4 202.5 54.8 142.75Q55.1 94.2 60.6 47.05Q60.65 46.6 61.5 46.75Q62.65 105.2 62 165.25Q61.6 200.35 61.7 235.5L113.95 229.75Q118.4 228.7 121.9 228.95L121.7 207.5Q120.85 148.1 122.85 89Q123.65 66.3 126.7 44.1Q126.7 43.85 127.45 43.75M320.45,238.75Q324.35 297.85 322.35 358L318.7 477.2L318.65 478.25Q320.25 477.65 321.9 477.3L322.5 477.1Q325.3 475.95 327.95 476.2L355.45 479.05L356.2 479.45Q357.25 481.6 357.55 483.95L357.6 484.75Q357.95 487.8 356.85 490.7L356.2 492.2Q336.5 488.6 316.4 487.35L313.95 491.2Q309.25 477.95 310.75 461.35Q313.4 431.45 314.35 401.45Q316.2 341.85 316.25 282.25Q316.25 259.7 319.95 238.8L320.45 238.75M281.2,361.7L285.95 418.7L287.35 419.75Q288.5 420.65 289.05 422.05Q290.75 426.15 288.2 430.2L286.35 431.4Q296.25 463.7 290.45 494.45Q278.65 466 279.85 434.5L263.3 436L249.4 481.05Q245.85 477.6 247.15 469.9Q250.75 448.1 256.7 427.45L258.2 427.3L261.1 414.7Q267.5 384.65 277.95 355.95L281.2 361.7M278.85,421.9L276.5 385.5L265.85 425.9L278.85 421.9" />
</g>
</svg>
