<?xml version="1.0" encoding="utf-8"?>
<svg version="1.1" id="Layer_1"
xmlns="http://www.w3.org/2000/svg"
xmlns:xlink="http://www.w3.org/1999/xlink"


xml:space="preserve">
q-6.45 19.95 -10.7 42.75q-3.95 21.3 -9.95 42.1q-14.6 31.05 -15.35 64q-0.1 3.55 1.85 6.6q3.75 36.5 18.15 70.1q4.95 -15.45 -1.15 -32.1q-5.55 -15.05 -7.75 -31.15q-0.5 -3.5 -0.85 -7q3.7 -3.2 2.2 -8.25q-8.5 -50.45 -14.95 -95.2q2.65 29.7 6.5 59.25q5.5 -18.7 11.55 -37.25q3.45 -10.5 5.4 -21q-1.2 59.35 -4.65 118.5q-0.85 14.95 -2.85 29.75q-2.25 17 4.7 29.5q0.65 -0.75 0.7 -1.55q41.05 7.55 83.25 0.75q5.45 -8 -0.15 -15.7q4 -46.05 5.65 -92.45q2.15 -59.45 6.1 -118.5q3.95 -59.6 1 -118.5q-4.6 23.05 -5.15 48.75q-14.65 11.85 -16.55 31.65q-1.2 12.45 -1.9 25.05q-6.65 44.45 18.05 75.95q3.1 3.9 8.7 2q8.55 -3.1 15.45 -8.85q10.3 -8.8 8.8 -22.05q-0.35 -3.1 -1.5 -6.1q-16.7 -28.6 -11.7 -63q22.45 1.8 44.45 -3.1q2.55 -4.35 1.65 -9.4q-0.35 -2.15 -1.65 -3.95q-21.4 1 -43.8 5.3q16.25 -14.1 33.75 -5.5q-7.45 -26.4 -30.05 -8.1q-23.35 2.35 -36.75 21.65q-11.3 16.3 -18.8 34.65q-6.6 16.2 -9.85 33.55q-3.55 18.8 -5.9 37.55q-2.35 18.95 -3.75 37.9q-0.5 1.85 -0.7 3.8q0.05 1.8 1.35 2.85q-3.65 50.5 0.85 100.6q1.95 21.8 10.95 41.7q4.6 10.1 14.1 15.35q3.45 1.9 7.4 2.85q8.05 2.15 16.45 2.4q9.95 0.3 19.25 -3.15q6.25 -2.4 11.55 -6.2q6.8 -4.75 12.45 -10.75q6.55 -6.95 7.65 -16.1q1.4 -11.75 -6.1 -10.95q-8.35 13.15 -22.35 19.95q-10 4.95 -20.9 6.05q-2.6 -0.55 -5 -1.55q-5.55 -2.15 -9.7 -6.5q-6 -6.25 -8.9 -14.45q-5.3 -15.05 -6.75 -31.15q-3.3 -36.5 -1.6 -73.1q0.45 -9.1 0.55 -18.2q1.25 -2.05 2 -4.45q0.9 -2.9 0.3 -6.05q-0.4 -2.3 -2.05 -3.75q-32.65 -2.75 -63.95 1.25q1.7 -59.25 25.85 -113.05q5.6 -12.5 16.05 -21.3q8.4 -7.15 18.35 -11.25q3.1 -1.25 6.3 -1.85q7.95 -1.65 15.4 1.85q7.95 3.8 13 11.1q1.6 -14.35 -9.8 -22.65q-7.05 -5 -15.7 -5.6q-6.75 40.65 -7.05 83.95q-36.6 4.85 -74.75 5.85q0.25 -24.05 1.6 -48.1q3.45 -59.85 1.65 -118.5q-5.9 24.45 -6.6 52.75q-1.4 56.9 -2.45 114q-3.5 3.75 -2.45 9.05q0.2 1.1 0.85 2.1q-0.9 55.85 1.35 111.75q0.9 22.3 -2.6 43.95q-2.3 14.15 5 21.75q6.8 -58.8 3.4 -118.55q-1.65 -29 -1.65 -58.05q42.9 0.4 85.2 -1.8q0.05 59.4 -4.2 119.1q-1.2 16.65 3.8 29.85q6.55 -12.4 6.2 -28.25q-0.9 -43.2 0 -86.2q3.3 -3.6 2.8 -8.75q-0.25 -2.7 -1.55 -5.15q0.95 -60.2 -0.2 -118.5<g id="3233" transform="matrix(1, 0, 0, 1, -67.45, 0)">
<path style="fill:#000000;fill-opacity:1" d="M333.5,87.8Q339.95 132.55 348.45 183L349.25 183.5L349.9 184.05L350.5 184.65L350.9 185.25L351.35 186L351.7 186.65L351.9 187.5Q353.4 192.55 349.7 195.75Q350.05 199.25 350.55 202.75Q352.75 218.85 358.3 233.9Q364.4 250.55 359.45 266Q345.05 232.4 341.3 195.9L313.1 192.35L293.95 261.2L293.35 261.2Q291.4 258.15 291.5 254.6Q292.25 221.65 306.85 190.6L304.95 190L304.95 182.5L309.45 181.25L312.55 170.85Q318.55 150.05 322.5 128.75Q326.75 105.95 333.2 86L333.5 87.8M327.65,144.95Q321.6 163.5 316.1 182.2L339.55 183.2Q335.7 153.65 333.05 123.95Q331.1 134.45 327.65 144.95M397.2,89Q400.15 147.9 396.2 207.5Q392.25 266.55 390.1 326Q388.45 372.4 384.45 418.45L438.9 415.35L452 414.65L467.45 412.95Q473.05 420.65 467.6 428.65L466.95 429.45Q424.75 436.25 383.7 428.7L383.55 428.35L383.15 432.4Q383.1 433.2 382.45 433.95Q375.5 421.45 377.75 404.45Q379.75 389.65 380.6 374.7L387.4 256.25Q390.85 197.1 392.05 137.75Q392.6 112.05 397.2 89M359.45,285Q341.95 276.4 325.7 290.5L317.4 333.2Q339.8 328.9 361.2 327.9Q362.5 329.7 362.85 331.85Q363.75 336.9 361.2 341.25Q339.2 346.15 316.75 344.35Q311.75 378.75 328.45 407.35L334.95 407.2L359.95 384.7Q361.1 387.7 361.45 390.8Q362.95 404.05 352.65 412.85Q345.75 418.6 337.2 421.7Q331.6 423.6 328.5 419.7Q303.8 388.2 310.45 343.75L307.7 342.7L307.45 333.75L310.95 333.6Q311.65 321 312.85 308.55Q314.75 288.75 329.4 276.9Q352 258.6 359.45 285M287.65,88.6Q299.05 96.9 297.45 111.25Q292.4 103.95 284.45 100.15Q277 96.65 269.05 98.3Q265.85 98.9 262.75 100.15Q252.8 104.25 244.4 111.4Q233.95 120.2 228.35 132.7Q204.2 186.5 202.5 245.75Q233.8 241.75 266.45 244.5Q268.1 245.95 268.5 248.25Q269.1 251.4 268.2 254.3Q267.45 256.7 266.2 258.75L202.1 258.75Q202 267.85 201.55 276.95Q199.85 313.55 203.15 350.05Q204.6 366.15 209.9 381.2Q212.8 389.4 218.8 395.65Q222.95 400 228.5 402.15Q230.9 403.15 233.5 403.7L246.8 404.15Q257.7 403.05 267.7 398.1Q281.7 391.3 290.05 378.15L289.65 373.95L290.75 375.85Q298.25 375.05 296.85 386.8Q295.75 395.95 289.2 402.9Q283.55 408.9 276.75 413.65Q271.45 417.45 265.2 419.85Q255.9 423.3 245.95 423Q237.55 422.75 229.5 420.6Q225.55 419.65 222.1 417.75Q212.6 412.5 208 402.4Q199 382.5 197.05 360.7Q192.55 310.6 196.2 260.1Q194.9 259.05 194.85 257.25L195 252.8Q195.2 250.85 195.7 249L196.9 248.3Q198.3 229.35 200.65 210.4Q203 191.65 206.55 172.85Q209.8 155.5 216.4 139.3Q223.9 120.95 235.2 104.65Q248.6 85.35 271.95 83Q280.6 83.6 287.65 88.6M170.2,84Q171.35 142.3 170.4 202.5L169.75 243.2L172.45 243.25L173.7 244.85Q175 247.3 175.25 250Q175.75 255.15 172.45 258.75L169.45 258.95L168.15 321.75Q167.25 364.75 168.15 407.95Q168.5 423.8 161.95 436.2Q156.95 423 158.15 406.35Q162.4 346.65 162.35 287.25L162.35 259.3Q120.05 261.5 77.15 261.1Q77.15 290.15 78.8 319.15Q82.2 378.9 75.4 437.7L74.95 438.45Q67.65 430.85 69.95 416.7Q73.45 395.05 72.55 372.75Q70.3 316.85 71.2 261L70.45 261L69.35 259.4Q68.7 258.4 68.5 257.3Q67.45 252 70.95 248.25L71.4 248.25Q72.45 191.15 73.85 134.25Q74.55 105.95 80.45 81.5Q82.25 140.15 78.8 200Q77.45 224.05 77.2 248.1Q115.35 247.1 151.95 242.25L161.25 242.85L162.35 242.9L162.65 168Q162.95 124.7 169.7 84.05L170.2 84" />
</g>
</svg>
