<?xml version="1.0" encoding="utf-8"?>
<svg version="1.1" id="Layer_1"
xmlns="http://www.w3.org/2000/svg"
xmlns:xlink="http://www.w3.org/1999/xlink"


xml:space="preserve">
q-56.1 14.9 -79.1 69.05q-19.45 45.7 -25.3 94.85q-1 3.75 0.35 6.8q-4.9 53 9.4 103.75q9.25 32.8 40.3 47.05q58.3 26.75 106.6 -14.75q15.55 -13.35 3.5 -25.4q-11.85 23.1 -39.1 31.55q-24.15 7.45 -48.9 1.2q-56.55 -14.25 -62.95 -71.1q-4.05 -35.95 -1.5 -71.4q37.3 -7.55 75.95 -3.7q2.65 -0.9 4.25 -3q1.55 -5.45 -1.2 -10.45q-38.7 -2.6 -75.4 8q1.65 -15.95 4.6 -31.75q8.35 -44.55 36.1 -80.15q15.3 -19.6 38.05 -29.25q54.85 -23.25 90.9 18.4q0.45 -3.3 -0.95 -6.6q-15.7 -37.1 -59.3 -35.15q-5.95 1.2 -12.4 2.9q-2.1 11.9 -2.4 24.65q-0.8 39.8 -2.3 79.55q-42.75 -0.15 -84 7.05q1.55 -59.2 1.3 -117.75q-3.05 0.6 -3.1 4.5q-0.35 47.8 -1.8 96q-0.95 3 -0.2 5.6q-1.95 59.75 -6.75 119.2q-1.3 16.45 3.9 29.8q4.3 -4.55 4.5 -11.75q1.75 -59.1 3.85 -118.45q41.65 -0.05 83.55 -2.2q-0.85 13.75 5.55 21.6q4.25 -32.75 5.65 -66.7q2.35 -57.6 3.9 -115.25q4.05 -7.4 -0.65 -14.15q1.65 -53.5 6.05 -106.35q2.55 -30.5 -3.25 -59.35q-0.75 0.1 -0.8 0.35<g id="3216" transform="matrix(1, 0, 0, 1, -93.65, 0)">
<path style="fill:#000000;fill-opacity:1" d="M349.95,90.75Q393.55 88.8 409.25 125.9Q410.65 129.2 410.2 132.5Q374.15 90.85 319.3 114.1Q296.55 123.75 281.25 143.35Q253.5 178.95 245.15 223.5Q242.2 239.3 240.55 255.25Q277.25 244.65 315.95 247.25L318.4 247.7L319.2 248.25Q321.95 253.25 320.4 258.7L319.7 261Q318.1 263.1 315.45 264Q276.8 260.15 239.5 267.7Q236.95 303.15 241 339.1Q247.4 395.95 303.95 410.2Q328.7 416.45 352.85 409Q380.1 400.55 391.95 377.45Q404 389.5 388.45 402.85Q340.15 444.35 281.85 417.6Q250.8 403.35 241.55 370.55Q227.25 319.8 232.15 266.8Q230.8 263.75 231.8 260L232.45 257.75L233.15 257.55Q239 208.4 258.45 162.7Q281.45 108.55 337.55 93.65Q344 91.95 349.95 90.75M203.45,87.75Q209.25 116.6 206.7 147.1Q202.3 199.95 200.65 253.45L204.45 253.5Q209.15 260.25 205.1 267.65L204.45 268.5L200.25 268.75Q198.7 326.4 196.35 384Q194.95 417.95 190.7 450.7Q184.3 442.85 185.15 429.1L192.25 310.65L194.55 269.05Q152.65 271.2 111 271.25L109.3 321.25Q107.2 380.6 105.45 439.7Q105.25 446.9 100.95 451.45Q95.75 438.1 97.05 421.65Q101.85 362.2 103.8 302.45L104.9 268.25Q104.15 265.65 105.1 262.65L107.55 183.25Q109 135.05 109.35 87.25Q109.4 83.35 112.45 82.75L113.45 83.5L114.2 84.25Q114.45 142.8 112.9 202L111.3 260.45Q152.55 253.25 195.3 253.4L197.95 192.3Q199.45 152.55 200.25 112.75Q200.55 100 202.65 88.1Q202.7 87.85 203.45 87.75" />
</g>
</svg>
