<?xml version="1.0" encoding="utf-8"?>
<svg version="1.1" id="Layer_1"
xmlns="http://www.w3.org/2000/svg"
xmlns:xlink="http://www.w3.org/1999/xlink"


xml:space="preserve">
q-3.4 7.9 -5.1 17.9q-9.9 58.4 -18.9 116.95q-2.25 14.75 -6.6 28.85q-5.15 16.6 0.85 29q14.4 -51.15 20.35 -104.9q1.6 -14.65 4.8 -28.95q3 -13.6 4.25 -27q4.1 34.9 6.3 70.2q1.05 16.7 7.55 28.15q0.65 1.65 2.25 2q13.1 -50.25 25.4 -102.15q0.7 9.5 2.75 19.35q12.05 57.7 17.7 116.3q1.55 16.35 8.7 28.35q0.65 -0.75 0.65 -1.5q-0.3 -37.05 -7.2 -74.35q-6.9 16.5 -10.65 34.25q-3.75 17.6 -8.25 35.1q-5.1 19.95 -7.6 40.1q-5.95 -56.1 -15.05 -111q-22.05 4.6 -34.65 24.15q-10.6 16.55 -17.6 34.9q-7.15 18.7 -9.15 38.55q-2.2 21.9 2.2 43.15q4.05 19.75 14.35 37q11.65 19.4 31.75 14.1q20.75 -5.4 38.4 -16.75q13.25 -8.45 8.2 -23.4q-21.05 16.05 -46.3 23.1q-8.7 2.35 -16.9 -1.7q-13 -6.4 -18.3 -19.95q-6.45 -16.65 -6.95 -34.8q-0.25 -10.35 -1.05 -20.4q-0.05 -0.8 0.15 -1.55q-2.4 7.3 -0.5 14.65q1.7 -2.35 2.05 -5.1q0.4 -3.15 -1.15 -5.9q-0.95 -12.45 -7 -21.2q3.8 -28.6 19.7 -52.8q9.15 -13.85 23.7 -20.8q14.3 -6.85 27.9 0.75q3.7 2 7 4.8q1.25 -13.65 -9.8 -25.7q-5.55 -6.1 -13.95 -7q-0.5 32.05 0.45 63.85q1.5 49.55 -4.35 98.75q-0.7 6.05 -0.75 12.05q0 2.85 0.35 5.7q0.7 5.25 3.8 9.5q6 -10.8 5.7 -24.3q-0.8 -36.65 0.2 -73.3q0.65 27.3 -1.7 54.5q-1 11.55 -1.4 23.05q-0.35 11.2 4.1 21.2q2.95 -5 3.25 -10.95q3.15 -59.5 0.45 -118.95q-3.95 19.4 -5.65 40.05q-1.65 20.4 -2.1 40.65q-2.9 4.8 -3 10.35<g id="3219" transform="matrix(1, 0, 0, 1, -139.6, 0)">
<path style="fill:#000000;fill-opacity:1" d="M343.4,182.45Q352.5 237.35 358.45 293.45Q360.95 273.3 366.05 253.35Q370.55 235.85 374.3 218.25Q378.05 200.5 384.95 184L385.65 183.4L386.2 179.25L386.8 182.45L387.6 181.9L388.2 181.75L387.95 188.4L407.9 295.35Q414.8 332.65 415.1 369.7Q415.1 370.45 414.45 371.2Q407.3 359.2 405.75 342.85Q400.1 284.25 388.05 226.55Q386 216.7 385.3 207.2L384.35 211.3Q372.05 263.2 358.95 313.45Q357.35 313.1 356.7 311.45L356.9 309.15L356.7 309.45Q350.2 298 349.15 281.3Q346.95 246 342.85 211.1Q341.6 224.5 338.6 238.1Q335.4 252.4 333.8 267.05Q327.85 320.8 313.45 371.95Q307.45 359.55 312.6 342.95Q316.95 328.85 319.2 314.1Q328.2 255.55 338.1 197.15Q339.8 187.15 343.2 179.25L343.4 182.45M280.85,176.35Q289.25 177.25 294.8 183.35Q305.85 195.4 304.6 209.05L296.95 197.75Q293.65 194.95 289.95 192.95Q276.35 185.35 262.05 192.2Q247.5 199.15 238.35 213Q222.45 237.2 218.65 265.8L244.35 258.25L254.4 237.15L254.85 234.55Q260.9 243.3 261.85 255.75L289.45 255.75L290.35 257.25Q291.9 260 291.5 263.15Q291.15 265.9 289.45 268.25L264.8 269.7L268.9 298.5L258.85 270.15L247.25 271.05L238.7 290.95L237.25 286.55Q235.35 279.2 237.75 271.9L217.7 273.95L217.1 272.15Q216.9 272.9 216.95 273.7Q217.75 283.75 218 294.1Q218.5 312.25 224.95 328.9Q230.25 342.45 243.25 348.85Q251.45 352.9 260.15 350.55Q285.4 343.5 306.45 327.45Q311.5 342.4 298.25 350.85Q280.6 362.2 259.85 367.6Q239.75 372.9 228.1 353.5Q217.8 336.25 213.75 316.5Q209.35 295.25 211.55 273.35Q213.55 253.5 220.7 234.8Q227.7 216.45 238.3 199.9Q250.9 180.35 272.95 175.75L280.85 176.35M147.25,174L151 264.75L152.5 263.25L192.7 258.45Q193.15 238.2 194.8 217.8Q196.5 197.15 200.45 177.75Q203.15 237.2 200 296.7L196.75 360.25Q196.45 366.2 193.5 371.2Q189.05 361.2 189.4 350Q189.8 338.5 190.8 326.95Q193.15 299.75 192.5 272.45L149.65 276.6Q148.65 313.25 149.45 349.9Q149.75 363.4 143.75 374.2Q140.65 369.95 139.95 364.7Q139.6 361.85 139.6 359Q139.65 353 140.35 346.95Q146.2 297.75 144.7 248.2Q143.75 216.4 144.25 184.35Q144.35 178.8 147.25 174M256.2,256.3L255.5 251.25L253.95 256.6L256.2 256.3" />
</g>
</svg>
