<?xml version="1.0" encoding="utf-8"?>
<svg version="1.1" id="Layer_1"
xmlns="http://www.w3.org/2000/svg"
xmlns:xlink="http://www.w3.org/1999/xlink"


xml:space="preserve">
q-3.25 3.85 -3.35 10.5q-0.75 59.35 -6.05 118.35q-2.7 30.55 0.65 59.35q0.9 -0.35 0.95 -0.85q5.25 -34.1 7.35 -68.8q3.1 -51.05 1.25 -101.45q0.95 7.2 3.45 14.85q18.3 55.8 36.9 111.4q4.7 14 6.2 28.5q1.35 12.9 7.4 19.85q0.7 1.8 1.65 3.45q8.6 -34.2 10 -70.4q2.3 -59.8 1.75 -118.55q-4.2 4.05 -4.5 11.45q-0.65 14.8 -4.2 29.1q-0.95 -4.65 -2.45 -9.3q-6.45 -19.95 -14 -39.5q-21.1 -54.75 -35.95 -111.5q-0.55 3.25 -0.75 6.6q-4.4 28.95 -5 59.2q-0.5 32.3 -23.85 51.75q-13.4 5.55 -25.75 -3.5q-5.15 -6.6 -5.1 -15q0.1 -59.05 3.15 -118.4q0.85 -16.75 -4.05 -29.05q-2.25 10.5 -2.45 21.75q-1.15 59.3 -5.4 118.35q-2.05 28.35 21.35 40.9q4.8 2.6 9.75 1.2q30.85 -8.6 34.65 -41.1q5 -42.85 7.6 -86.3q1.8 -30.7 -2.25 -59.3q-1.4 -0.2 -1.6 1.05q3.35 48.5 11.95 96.7q5.2 28.9 5.55 58.55q0.2 16.35 6.4 28.5q15.05 -41.95 23 -86.25q3.8 25.35 8.7 50.8q1.65 8.6 2.2 17.3q0.85 14.7 8.8 21.65q14 -41.6 18.95 -85.45q3.4 -29.55 11.95 -58.05q6.9 -22.95 2.85 -43.95q-9.2 23 -12.95 48.7q-8.55 58.3 -21.3 115.75q-6.3 -27.45 -10.35 -55.3q-1.4 -9.4 -1.65 -18.7q-0.45 -14.6 -7.2 -24.7q-10.15 45.45 -21.5 91.45q-1.75 -21.2 -4.8 -42.75q-8.25 -58.45 -18.7 -116.2q-2.05 -0.2 -1.9 1.95<g id="3259" transform="matrix(1, 0, 0, 1, -139.45, 0)">
<path style="fill:#000000;fill-opacity:1" d="M349.2,180L350.4 180.8L351.2 181.5Q366.05 238.25 387.15 293Q394.7 312.55 401.15 332.5Q402.65 337.15 403.6 341.8Q407.15 327.5 407.8 312.7L412.95 194.2Q413.25 186.8 417.45 182.75Q418 241.5 415.7 301.3Q414.3 337.5 405.7 371.7Q404.75 370.05 404.05 368.25L402.95 373.45Q396.9 366.5 395.55 353.6Q394.05 339.1 389.35 325.1Q370.75 269.5 352.45 213.7Q349.95 206.05 349 198.85Q350.85 249.25 347.75 300.3Q345.65 335 340.4 369.1Q340.35 369.6 339.45 369.95Q336.1 341.15 338.8 310.6Q344.1 251.6 344.85 192.25Q344.95 185.6 348.2 181.75L348.45 186.6Q348.65 183.25 349.2 180M323.45,178.25Q327.5 206.85 325.7 237.55Q323.1 281 318.1 323.85Q314.3 356.35 283.45 364.95Q278.5 366.35 273.7 363.75Q250.3 351.2 252.35 322.85Q256.6 263.8 257.75 204.5Q257.95 193.25 260.2 182.75Q265.1 195.05 264.25 211.8Q261.2 271.15 261.1 330.2Q261.05 338.6 266.2 345.2Q278.55 354.25 291.95 348.7Q315.3 329.25 315.8 296.95L316.85 238.5Q317.45 208.25 321.85 179.3Q322.05 178.05 323.45 178.25M141.5,180.25Q151.95 238 160.2 296.45Q163.25 318 165 339.2Q176.35 293.2 186.5 247.75Q193.25 257.85 193.7 272.45Q193.95 281.75 195.35 291.15Q199.4 319 205.7 346.45Q218.45 289 227 230.7Q230.75 205 239.95 182Q244 203 237.1 225.95Q228.55 254.45 225.15 284Q220.2 327.85 206.2 369.45Q198.25 362.5 197.4 347.8Q196.85 339.1 195.2 330.5Q190.3 305.05 186.5 279.7Q178.55 324 163.5 365.95Q157.3 353.8 157.1 337.45Q156.75 307.8 151.55 278.9Q142.95 230.7 139.6 182.2Q139.45 180.05 141.5 180.25" />
</g>
</svg>
