<?xml version="1.0" encoding="utf-8"?>
<svg version="1.1" id="Layer_1"
xmlns="http://www.w3.org/2000/svg"
xmlns:xlink="http://www.w3.org/1999/xlink"


xml:space="preserve">
q-6.15 44.7 -5.75 92.35q0.3 30 -2.6 59.85q-1.3 13.6 4.95 22.15q1.3 -0.7 1.45 -2.05q3.15 -29.75 3.85 -59.95q1.35 -56.75 -0.8 -112.4q23.55 -0.85 47.25 -4.8q0.95 -1 1.35 -2.3q1.6 -5.05 -0.85 -9.7q-2.15 -0.65 -4.45 -0.45q-1.25 0.95 -1.6 2.7q-0.8 4 0.85 7.55q14.8 0.8 29.65 0.35q7.5 -15.15 2.25 -31q-8.1 14 -2.85 29.3q7.6 -13.15 9 -28.4q3.85 -41.4 0.5 -81.8q-5.15 10.25 -4.3 23.8q2.45 38 -9.2 72.65q-5.45 0.9 -10.5 -1q-3.9 -5.8 -9.25 -8q-2.7 3.2 -2.05 7.5q3.5 23.1 25.8 15.25q-5.55 22.2 -9 45.55q-8.55 58.2 -19.2 116q-5.3 -14.35 -7.8 -29.3q-2.6 -15.35 -3.25 -31q-0.8 -20.3 -8.9 -35.9q-7.3 44.55 -16.65 88.65q-1.95 -18.85 -3.2 -37.95q-3.85 -59.1 -16.55 -116.25q-1 0.35 -1 0.75q-0.1 22.75 3.45 45.85q8.95 57.95 10.1 116.85q0.3 13.7 7.45 21q0.5 -0.35 0.6 -0.8q9.2 -42.05 17.15 -83.95q4.4 43.45 18.2 84q1 -0.5 1.3 -1.25q11.6 -32.05 15.35 -66.4q3.2 -29.45 10.05 -58.2q7.15 -30.1 3.3 -58.85q-0.75 0.1 -0.8 0.4q1.5 -16.6 -3.8 -29.15q-2.6 22.95 -3.9 46.45q-3.35 60.15 5.1 118.45q0.95 6.5 6.45 9.95q18.75 11.85 38.45 -2.2q6.3 -4.55 9.65 -11.3q10.3 -20.8 12.45 -44.25q5.45 -59.7 -2.95 -117.85q-6.05 14.25 -3.95 33.3q5.85 52.15 -4.95 103.1q-6.65 31.3 -41.25 29.1q-4.8 -0.3 -6.15 -4.8q-10.15 -34.45 -8.8 -71.75q1.05 -29.65 3.65 -59.05<g id="3264" transform="matrix(1, 0, 0, 1, -142.4, 0)">
<path style="fill:#000000;fill-opacity:1" d="M334.7,193.75Q333.05 190.2 333.85 186.2Q334.2 184.45 335.45 183.5L407.95 176.25Q410.25 176.05 412.4 176.7L413.2 177.25Q415.65 181.9 414.05 186.95Q413.65 188.25 412.7 189.25Q389 193.2 365.45 194.05Q367.6 249.7 366.25 306.45Q365.55 336.65 362.4 366.4Q362.25 367.75 360.95 368.45Q354.7 359.9 356 346.3Q358.9 316.45 358.6 286.45Q358.2 238.8 364.35 194.1Q349.5 194.55 334.7 193.75M403.1,242.3Q397.85 227 405.95 213Q411.2 228.85 403.7 244L403.1 242.3M369.9,351.95Q369.25 347.65 371.95 344.45Q377.3 346.65 381.2 352.45Q386.25 354.35 391.7 353.45Q403.35 318.8 400.9 280.8Q400.05 267.25 405.2 257Q408.55 297.4 404.7 338.8Q403.3 354.05 395.7 367.2Q373.4 375.05 369.9 351.95M229.45,181.75Q233.3 210.5 226.15 240.6Q219.3 269.35 216.1 298.8Q212.35 333.15 200.75 365.2Q200.45 365.95 199.45 366.45Q185.65 325.9 181.25 282.45Q173.3 324.35 164.1 366.4Q164 366.85 163.5 367.2Q156.35 359.9 156.05 346.2Q154.9 287.3 145.95 229.35Q142.4 206.25 142.5 183.5Q142.5 183.1 143.5 182.75Q156.2 239.9 160.05 299Q161.3 318.1 163.25 336.95Q172.6 292.85 179.9 248.3L180.5 247.5Q188.6 263.1 189.4 283.4Q190.05 299.05 192.65 314.4Q195.15 329.35 200.45 343.7Q211.1 285.9 219.65 227.7Q223.1 204.35 228.65 182.15Q228.7 181.85 229.45 181.75M254.35,270.2Q253 307.5 263.15 341.95Q264.5 346.45 269.3 346.75Q303.9 348.95 310.55 317.65Q321.35 266.7 315.5 214.55Q313.4 195.5 319.45 181.25Q327.85 239.4 322.4 299.1Q320.25 322.55 309.95 343.35Q306.6 350.1 300.3 354.65Q280.6 368.7 261.85 356.85Q256.35 353.4 255.4 346.9Q246.95 288.6 250.3 228.45Q251.6 204.95 254.2 182Q259.5 194.55 258 211.15Q255.4 240.55 254.35 270.2" />
</g>
</svg>
