<?xml version="1.0" encoding="utf-8"?>
<svg version="1.1" id="Layer_1"
xmlns="http://www.w3.org/2000/svg"
xmlns:xlink="http://www.w3.org/1999/xlink"


xml:space="preserve">
q-2.2 0.75 -4.6 2.15q-3.7 2.1 -7.65 3.6q-1.95 3.4 -3.25 6.7q-15.45 38.55 -6.1 80.45q2.25 10.15 6.35 19.4q16.85 38.15 29.4 76.85q8.15 25.15 3.45 51.05q-6.8 37.85 -44.1 41.25q-1.5 0.7 -2.65 1.9q-2.95 -3.95 -7.4 -5.3q7.15 5.7 9.7 14.5q6.45 21.85 26.3 36.5q9.65 0.1 18.6 -4.05q15.6 -7.35 23 -23.1q22.3 -47.55 4.9 -98.3q-4.85 -14.05 -12.15 -26.85q-27.15 -47.5 -28.35 -102.15q-0.6 -28.7 26.5 -32q3.8 2 5.75 5.75q3.1 6.05 6.75 10.25q2.1 -2.6 1.95 -6q-0.7 -15.4 -13.95 -23.75q-8.15 7.8 -9.95 20.4q-7.4 51.4 -16.1 102.55q-8.7 51.8 -14.3 104.1q-9 -58.85 -21.4 -116q-0.8 5.15 -1.1 10.4q-3.9 2.05 -4.65 7.4q-8.5 58.45 -22.05 116.5q-2.45 10.7 -5.65 21.1q-1.9 -14.95 -2.8 -30.2q-3.5 -59.1 -13.95 -117.05q-10.55 -58.4 -21.5 -116.2q-4.75 14.7 -1.1 33.2q11.45 58.55 21.05 117.4q7.05 43.2 8.2 87.15q0.75 30.5 7.85 58.45q1 -0.35 1.1 -0.9q1 -0.6 1.2 -1.4q12.8 -57.3 25.05 -115.1q4.4 -20.75 5.2 -41.1q0.15 9.3 1.85 18.85q10.5 58.15 17.05 116.95q1.9 17 10.4 28.05q1.15 -0.85 1.05 -2.2q-0.9 -13.5 -2.3 -27.05q5 -46.55 12.15 -93.25q8.95 -58.45 15.55 -117.3q1.25 -10.9 4.75 -21.15q5.35 -15.45 3.55 -29.75q0.45 -1.2 0.55 -2.65q0.2 -4 -1.8 -7.05q-10.5 53.8 -9.45 110.9q1.05 59.25 -1.25 118.4q-4.65 12.85 -0.7 26.65q1.45 5.1 4.1 9.7q10.15 -89.05 10.95 -179q-5.65 -8.55 -17.95 -6.3q-0.15 -39.95 -1.55 -79.8q1.35 -1.25 2 -3.05q-4.65 58.5 -10.35 117.05q-5.8 59.1 -14.7 117.7q-1.15 7.55 -3.55 14.6q-1.4 4.25 -2.05 8.25q-0.6 -3.15 -1.8 -6.3q-2.8 -7.6 -4.35 -15.95q-4.5 -23.95 -9.55 -47.7q-11.5 -53.7 -19.8 -107.35q-0.1 -5.55 -0.55 -10.95q-4.8 12.05 -6.65 26.3q-7.5 58.35 -17.2 116.35q-2.3 13.75 -6.25 27q-2.2 -14.25 -4.05 -28.5q-7.7 -58.55 -16.2 -116.95q-8.45 -58.35 -15.6 -116.05q-0.75 -4.55 -3.05 -8.25q-5.75 10.3 -3.2 24.55q10.3 57.9 18 116.5q7.7 58.5 14.45 117.15q0.85 7.5 0.25 14.9q-1.35 17.65 7.5 28.35q0.7 2 1.7 3.9q6.9 -20.8 10.25 -43.35q8.7 -58.55 18.45 -116.85q1.7 27.1 7.3 54.25q12.05 58.3 25.5 115.25q0.9 4.4 3.05 8.4q2.95 -3.05 3.8 -7.45q10.8 -58.05 16.45 -117.05q5.6 -58.95 11.95 -117.6q3.2 -30 1.8 -58.6q-5.5 9.35 -6.55 22.4q-12.85 23.1 -12.8 49.9q0 29.35 6.85 57.3q3.9 16 16.8 25.75q27.05 20.5 50.15 -2.95q4.4 -4.45 6.95 -10.25q22.6 -51.7 9.2 -107.25q-5.7 -23.85 -25.8 -33.85q-7.85 -7.45 -19.05 -5.7q-20.4 8.05 -31.35 27.85q19.4 16.5 22.95 41.95q5 35.85 -9.7 68.5q-10.8 23.95 -37.3 20.7q-19.4 -2.4 -25.6 -20.5q-11.5 -33.45 -6.4 -69.9q5.25 -37.8 40.5 -49.1q7.1 -0.65 13 3q0.1 3.3 2.55 5.35<g id="3263" transform="matrix(1, 0, 0, 1, -39.75, 0)">
<path style="fill:#000000;fill-opacity:1" d="M499.45,112.5Q512.7 120.85 513.4 136.25Q513.55 139.65 511.45 142.25Q507.8 138.05 504.7 132Q502.75 128.25 498.95 126.25Q471.85 129.55 472.45 158.25Q473.65 212.9 500.8 260.4Q508.1 273.2 512.95 287.25Q530.35 338 508.05 385.55Q500.65 401.3 485.05 408.65Q476.1 412.8 466.45 412.7Q446.6 398.05 440.15 376.2Q437.6 367.4 430.45 361.7Q434.9 363.05 437.85 367L441.7 371.7L442.3 371.35Q443.45 370.15 444.95 369.45L463.55 390.65L466.45 393.7Q503.75 390.3 510.55 352.45Q515.25 326.55 507.1 301.4Q494.55 262.7 477.7 224.55Q473.6 215.3 471.35 205.15Q462 163.25 477.45 124.7Q478.75 121.4 480.7 118Q484.65 116.5 488.35 114.4Q490.75 113 492.95 112.25L499.45 112.5M398.9,141Q395.4 151.25 394.15 162.15Q387.55 221 378.6 279.45Q371.45 326.15 366.45 372.7Q367.85 386.25 368.75 399.75Q368.85 401.1 367.7 401.95Q359.2 390.9 357.3 373.9Q350.75 315.1 340.25 256.95Q338.55 247.4 338.4 238.1Q337.6 258.45 333.2 279.2Q320.95 337 308.15 394.3Q307.95 395.1 306.95 395.7L305.9 393L304.55 399.55Q304.45 400.1 303.45 400.45Q296.35 372.5 295.6 342Q294.45 298.05 287.4 254.85Q277.8 196 266.35 137.45Q262.7 118.95 267.45 104.25Q278.4 162.05 288.95 220.45Q299.4 278.4 302.9 337.5Q303.8 352.75 305.7 367.7L306.1 366.25Q309.3 355.85 311.75 345.15Q325.3 287.1 333.8 228.65Q334.55 223.3 338.45 221.25L338.6 229.7Q338.9 224.45 339.7 219.3L340.2 219Q352.6 276.15 361.6 335L362.1 338.3Q367.7 286 376.4 234.2Q385.1 183.05 392.5 131.65Q394.3 119.05 402.45 111.25Q404.25 125.55 398.9 141M449.45,123.75L424.9 119.5Q426.3 159.35 426.45 199.3L426.45 210.85L427.05 209.95L429.95 209.1Q442.25 206.85 447.9 215.4L446.2 226L426.4 221.2Q425.6 311.15 415.45 400.2Q412.8 395.6 411.35 390.5Q407.4 376.7 412.05 363.85L412.7 366.7L413.75 337.05Q416.05 277.9 415 218.65Q413.95 161.55 424.45 107.75L425.2 108.4L450.2 111Q452.2 114.05 452 118.05Q451.9 119.5 451.45 120.7Q450.8 122.5 449.45 123.75M189.45,100.25Q190.85 128.85 187.65 158.85Q181.3 217.5 175.7 276.45Q170.05 335.45 159.25 393.5Q158.4 397.9 155.45 400.95Q153.3 396.95 152.4 392.55L151.45 396.45L148.2 397.2Q134.75 340.25 122.7 281.95Q117.1 254.8 115.4 227.7L114.2 235.75Q104.45 294.05 95.75 352.6Q92.4 375.15 85.5 395.95Q84.5 394.05 83.8 392.05L82.5 396.2Q73.65 385.5 75 367.85Q75.6 360.45 74.75 352.95Q68 294.3 60.3 235.8Q52.6 177.2 42.3 119.3Q39.75 105.05 45.5 94.75Q47.8 98.45 48.55 103L48.75 103.75Q55.9 161.45 64.35 219.8Q72.85 278.2 80.55 336.75Q82.4 351 84.6 365.25Q88.55 352 90.85 338.25Q100.55 280.25 108.05 221.9Q109.9 207.65 114.7 195.6L114.7 194.75L115.1 194.55L116.2 192Q116.65 197.4 116.75 202.95Q125.05 256.6 136.55 310.3Q141.6 334.05 146.1 358Q147.65 366.35 150.45 373.95Q151.65 377.1 152.25 380.25Q152.9 376.25 154.3 372Q156.7 364.95 157.85 357.4Q166.75 298.8 172.55 239.7Q178.25 181.15 182.9 122.65Q183.95 109.6 189.45 100.25M228.95,157.5Q240.15 155.75 248 163.2L248.95 164Q269.05 174 274.75 197.85Q288.15 253.4 265.55 305.1Q263 310.9 258.6 315.35Q235.5 338.8 208.45 318.3Q195.55 308.55 191.65 292.55Q184.8 264.6 184.8 235.25Q184.75 208.45 197.6 185.35Q208.55 165.55 228.95 157.5M246.95,173.5Q241.05 169.85 233.95 170.5Q198.7 181.8 193.45 219.6Q188.35 256.05 199.85 289.5Q206.05 307.6 225.45 310Q251.95 313.25 262.75 289.3Q277.45 256.65 272.45 220.8Q268.9 195.35 249.5 178.85Q247.05 176.8 246.95 173.5" />
</g>
</svg>
