<?xml version="1.0" encoding="utf-8"?>
<svg version="1.1" id="Layer_1"
xmlns="http://www.w3.org/2000/svg"
xmlns:xlink="http://www.w3.org/1999/xlink"


xml:space="preserve">
q-0.75 0.2 -1.85 0.95q-16.8 11.55 -20.15 33.05q-9.05 58.25 -14.15 117.1q-2.4 27.15 12.65 47.35q4.5 1.25 9 1.25q12.4 -8.3 22.15 -19.65q12.45 -14.4 4.85 -27.55q-2.1 1.7 -3.3 4.2q-8.05 17.2 -23.7 28.55q-5.05 0.9 -9.25 -1.75q-1.4 -1.25 -1.7 -3.05q-6.25 -39.15 -0.75 -78.35q13.95 0.75 26.7 -1.6q2.7 -6.9 -1.3 -12.75q2.8 -14.35 3.3 -29.05q0.95 -28.3 19.65 -46.7q8.85 0.6 15.25 7.2q3.15 -17.75 -17.7 -17.95q-1 0.7 -1.3 1.85q-2.45 29.95 -9.85 58.85q-3.7 14.55 4.3 21.05q3.05 -10.05 4.65 -20.95q4.5 -31.25 7.6 -62.85q7.9 -2.2 14.2 -6.35q-0.1 14.8 8.65 30.05q11.35 19.7 16.8 41.9q3.85 15.8 13.25 24.3q0.7 -1 0.85 -2.25q1.15 -12.85 -4.65 -25.15q-16.85 -35.65 -31.05 -71.7q10.2 -8.4 15.2 -22.75q5.95 -17.1 7.2 -35.25q2.75 -38.55 -35.3 -47.05q5.5 22.05 -5.95 41.9q-9.25 16.2 -26.75 22.4q23 4.35 28.7 27.25q-14 9.8 -18.85 26.9q-16.2 57.25 -9.9 117.05q2.35 22.65 15.8 40.5q6.2 8.3 15.3 2.35q29.5 -19.3 40.15 -54.45q10.45 -34.6 6.65 -70.8q-4.4 -42.2 -39.9 -62.55q-1.4 0.2 -1.85 1.7q17.7 8.6 25.35 26.35q25.35 58.55 -5.5 113.85q-9.55 17.15 -27.25 24.3q-3.3 1.3 -5.5 -0.7q-18.4 -16.7 -19.4 -43.35q-0.95 -26 0.5 -51.85q2.2 -39.55 25.2 -69.65q3.3 -0.55 6.6 1.05q-18.1 36.1 -19.35 77.3q-0.45 14.15 -1.8 28.35q-3.35 35.45 15.2 64.15q6 9.25 17.25 5.25q25.9 -9.2 38.6 -33.6q19.5 -37.45 20.2 -79.65q0.8 -48.5 -31.3 -82q-0.45 0.25 -0.85 0.65q-12.25 -5.8 -23.5 0.95q-8.05 4.8 -12.3 13.25q9 8.8 14.55 19.75q14.15 27.85 12.85 58.8q-2.4 57.35 -48.65 89.95q-7.7 4 -15.5 0q-4.55 -2.75 -6.5 -7.4q-10.55 -25.1 -8.55 -53.45q3.1 -38.75 38.15 -49.85q2.9 1.25 6.05 0.95q0.7 34.3 3.3 70.45q4.25 59.1 10.85 117.75q0.6 1.65 2.25 2q12.85 -49.2 21.75 -100.95q6.25 54.9 18.2 107.45q1.75 -0.7 2.2 -2.8q12.45 -58.6 23.45 -117.7q2.05 -11.2 5.4 -22q7.1 -23.1 3.45 -44.7q-3.95 22.5 -8.45 45.1q-11.6 58.6 -22.55 117.15q-4.85 -27.15 -7.25 -54.65q-2.55 -29.05 -11.7 -53.85q-10.85 47.65 -20.75 96.5q-2.75 -21.4 -4.55 -43.05q-5 -59.2 -11.95 -117.7<g id="3266" transform="matrix(1, 0, 0, 1, -61.6, 0)">
<path style="fill:#000000;fill-opacity:1" d="M399.65,177.2L399.2 178Q392.8 171.4 383.95 170.8L381.2 170.75Q362.5 189.15 361.55 217.45Q361.05 232.15 358.25 246.5L357.6 250.1L381.45 246.25Q385.45 252.1 382.75 259L382.45 259.75Q369.7 262.1 355.75 261.35Q350.25 300.55 356.5 339.7Q356.8 341.5 358.2 342.75Q362.4 345.4 367.45 344.5Q383.1 333.15 391.15 315.95Q392.35 313.45 394.45 311.75Q402.05 324.9 389.6 339.3Q379.85 350.65 367.45 358.95Q362.95 358.95 358.45 357.7Q343.4 337.5 345.8 310.35Q350.9 251.5 359.95 193.25Q363.3 171.75 380.1 160.2Q381.2 159.45 381.95 159.25Q402.8 159.45 399.65 177.2M436.45,155.75L436.45 155.8Q474.5 164.3 471.75 202.85Q470.5 221 464.55 238.1Q459.55 252.45 449.35 260.85Q463.55 296.9 480.4 332.55Q486.2 344.85 485.05 357.7Q484.9 358.95 484.2 359.95Q474.8 351.45 470.95 335.65Q465.5 313.45 454.15 293.75Q445.4 278.5 445.5 263.7Q439.2 267.85 431.3 270.05L430.95 273.4Q427.85 305 423.35 336.25Q421.75 347.15 418.7 357.2Q410.7 350.7 414.4 336.15Q421.8 307.25 424.25 277.3L425.25 265.1L425.3 264.2L425.4 263.35L433.9 159.4L434.3 157.75Q434.6 156.6 435.6 155.9L436.2 155.75L436.35 155.8L436.45 155.75M436.45,165.65L432.45 257.2Q449.95 251 459.2 234.8Q470.65 214.95 465.15 192.9Q459.45 170 436.45 165.65M191.1,164.8Q191.55 163.3 192.95 163.1L192.95 163L195.45 163.25L197.95 165.5L199.2 166.75Q234.7 187.1 239.1 229.3Q242.9 265.5 232.45 300.1Q221.8 335.25 192.3 354.55Q183.2 360.5 177 352.2Q163.55 334.35 161.2 311.7Q154.9 251.9 171.1 194.65Q175.95 177.55 189.95 167.75L191.1 164.8M189.7,176.75Q166.7 206.85 164.5 246.4Q163.05 272.25 164 298.25Q165 324.9 183.4 341.6Q185.6 343.6 188.9 342.3Q206.6 335.15 216.15 318Q247 262.7 221.65 204.15Q214 186.4 196.3 177.8Q193 176.2 189.7 176.75M281.45,171.45Q292.7 164.7 304.95 170.5L305.35 168.25L305.95 166Q306.35 165.6 306.8 165.35L307.9 164.65L307.95 164.5Q340.05 198 339.25 246.5Q338.55 288.7 319.05 326.15Q306.35 350.55 280.45 359.75Q269.2 363.75 263.2 354.5Q244.65 325.8 248 290.35Q249.35 276.15 249.8 262Q251.05 220.8 269.15 184.7Q273.4 176.25 281.45 171.45M295.95,176.25Q260.9 187.35 257.8 226.1L253.4 284.65Q251.4 313 261.95 338.1Q263.9 342.75 268.45 345.5Q276.25 349.5 283.95 345.5Q330.2 312.9 332.6 255.55Q333.9 224.6 319.75 196.75Q314.2 185.8 305.2 177L302 177.2Q298.85 177.5 295.95 176.25M62.25,159.25Q69.2 217.75 74.2 276.95Q76 298.6 78.75 320Q88.65 271.15 99.5 223.5Q108.65 248.3 111.2 277.35Q113.6 304.85 118.45 332Q129.4 273.45 141 214.85Q145.5 192.25 149.45 169.75L152.45 168.75Q156.1 190.35 149 213.45Q145.65 224.25 143.6 235.45Q132.6 294.55 120.15 353.15Q119.7 355.25 117.95 355.95Q106 303.4 99.75 248.5Q90.85 300.25 78 349.45Q76.35 349.1 75.75 347.45Q69.15 288.8 64.9 229.7Q62.3 193.55 61.6 159.25L62.25 159.25" />
</g>
</svg>
