<?xml version="1.0" encoding="utf-8"?>
<svg version="1.1" id="Layer_1"
xmlns="http://www.w3.org/2000/svg"
xmlns:xlink="http://www.w3.org/1999/xlink"


xml:space="preserve">
q3.15 38.65 14.05 77.45q15.7 56.15 24.05 113.75q0.15 0.95 0.75 1.5q0.9 -0.35 1.15 -1q15.45 -38.25 24.05 -79.05q12.05 -57.5 24.55 -114.9q-1.85 0.6 -2.55 3.05q-16.3 56.65 -28.7 114.7q-4.75 22.15 -13.2 43q-2.25 5.5 -3.5 10.95q-1.75 -29.4 -9.8 -58.7q-15.65 -56.95 -30.25 -113.75q-21.05 81 -33 163.85q-12.25 39.6 -19.2 80.5q-1.5 8.95 -5 17.3q-5.1 26.85 1.05 54.3q9.65 43.05 14.4 87.1q-0.4 22.1 5 42.85q1.2 4.6 4.3 8.2q14.15 -37.35 19.95 -76.95q2.75 -18.5 3.9 -37.3q0.5 50.35 15.1 98.5q2.1 6.9 4.5 13.75q4.6 -6.4 5.9 -13.9q11.35 -66.15 25 -131.85q3.65 -17.7 3.85 -36q2.35 -84.45 -0.8 -170.75q-7.6 87.75 -5.5 176q0.15 7.2 0.75 14.45<g id="3419" transform="matrix(1, 0, 0, 1, -137.15, 0)">
<path style="fill:#000000;fill-opacity:1" d="M335.2,180.5Q349.8 237.3 365.45 294.25Q373.5 323.55 375.25 352.95Q376.5 347.5 378.75 342Q387.2 321.15 391.95 299Q404.35 240.95 420.65 184.3Q421.35 181.85 423.2 181.25L423.95 182.75L424.2 183.5Q411.7 240.9 399.65 298.4Q391.05 339.2 375.6 377.45Q375.35 378.1 374.45 378.45L373.7 373.2Q373.1 372.65 372.95 371.7Q364.6 314.1 348.9 257.95Q338 219.15 334.85 180.5L335.2 180.5M245.2,188.95Q245 207.25 241.35 224.95Q227.7 290.65 216.35 356.8Q215.05 364.3 210.45 370.7Q208.05 363.85 205.95 356.95Q191.35 308.8 190.85 258.45Q189.7 277.25 186.95 295.75Q181.15 335.35 167 372.7Q163.9 369.1 162.7 364.5Q157.3 343.75 157.7 321.65Q152.95 277.6 143.3 234.55Q137.15 207.1 142.25 180.25L167.05 348.3Q170.55 339.95 172.05 331Q179 290.1 191.25 250.5L210.7 351.45L211.95 342.95L212.2 345.6Q224.15 262.75 245.2 181.75L245.2 188.95M298.75,360.35L291.45 370.95Q290.85 363.7 290.7 356.5Q288.6 268.25 296.2 180.5Q299.35 266.8 297 351.25L299.55 352.55L298.75 360.35" />
</g>
</svg>
