<?xml version="1.0" encoding="utf-8"?>
<svg version="1.1" id="Layer_1"
xmlns="http://www.w3.org/2000/svg"
xmlns:xlink="http://www.w3.org/1999/xlink"


xml:space="preserve">
q6.05 28.65 9.4 57.7q1.9 16.5 9.55 28.5q8.15 -13.6 11.55 -29.5q12.4 -57.75 26.65 -114.7q5.6 -22.5 2.3 -43.75q-9.2 24.4 -14.6 52.7q-11.05 57.6 -25.4 114.5q-6.8 -38.1 -14.65 -76.05q-6.05 -29.25 -11.4 -58.3q-3.15 -17.1 -11.7 -27.35q-0.4 11.95 2.4 24.05q8.25 36.05 15.9 72.2q1.3 -30.5 -3.4 -59.25q-5.35 4.7 -5.15 13.5q1.25 48.7 1.85 97.45q0.45 34.35 -20.7 59.25q-15.65 6.9 -30.35 -2.5q-2.3 -1.45 -3.5 -3.45q-13.6 -22.3 -11.35 -49.65q4.9 -59.7 2.95 -118.35q-4.4 36.45 -7 75.4q-2.95 44.65 2.95 88.45q1.1 8 6.2 13.95q18.3 21.2 42.85 10.4q21.25 -22.75 22.15 -54.75q1 -35.1 2.5 -70.45q-1.75 -16.6 -8.45 -28.1q-1.55 20.15 2.7 40.6q12 57.9 18.4 116.25q1.8 16.55 8.9 28.6q11.6 -42.45 19.25 -85.4q4.3 45.35 15.3 88.45q0.9 -0.35 1.15 -1q11.75 -27.2 14.9 -57.4q3.85 -36.75 13.5 -72.45q8 -29.5 5.45 -58.1q-8.6 24.65 -13.35 53.1q-9.55 57.55 -20.15 115.1q-7.75 -40.05 -10.65 -80.85q-1.05 -14.75 -5.8 -26.1q-0.5 0.35 -0.6 0.8q-7.75 50.25 -20.4 99.15q-5.85 -36.8 -12.6 -73.8q-5.35 -29.15 -8.45 -58.8<g id="3256" transform="matrix(1, 0, 0, 1, -138.45, 0)">
<path style="fill:#000000;fill-opacity:1" d="M349.1,209.05Q346.3 196.95 346.7 185Q355.25 195.25 358.4 212.35Q363.75 241.4 369.8 270.65Q377.65 308.6 384.45 346.7Q398.8 289.8 409.85 232.2Q415.25 203.9 424.45 179.5Q427.75 200.75 422.15 223.25Q407.9 280.2 395.5 337.95Q392.1 353.85 383.95 367.45Q376.3 355.45 374.4 338.95Q371.05 309.9 365 281.25Q357.35 245.1 349.1 209.05M329.35,313.2Q328.45 345.2 307.2 367.95Q282.65 378.75 264.35 357.55Q259.25 351.6 258.15 343.6Q252.25 299.8 255.2 255.15Q257.8 216.2 262.2 179.75Q264.15 238.4 259.25 298.1Q257 325.45 270.6 347.75Q271.8 349.75 274.1 351.2Q288.8 360.6 304.45 353.7Q325.6 328.8 325.15 294.45Q324.55 245.7 323.3 197Q323.1 188.2 328.45 183.5Q333.15 212.25 331.85 242.75Q330.35 278.1 329.35 313.2M156.9,269.4Q163.65 306.4 169.5 343.2Q182.15 294.3 189.9 244.05Q190 243.6 190.5 243.25Q195.25 254.6 196.3 269.35Q199.2 310.15 206.95 350.2Q217.55 292.65 227.1 235.1Q231.85 206.65 240.45 182Q243 210.6 235 240.1Q225.35 275.8 221.5 312.55Q218.35 342.75 206.6 369.95Q206.35 370.6 205.45 370.95Q194.45 327.85 190.15 282.5L190 281.7Q182.35 324.65 170.75 367.1L170 367.95Q162.9 355.9 161.1 339.35Q154.7 281 142.7 223.1Q138.45 202.65 140 182.5Q146.7 194 148.45 210.6Q151.55 240.25 156.9 269.4" />
</g>
</svg>
