<?xml version="1.0" encoding="utf-8"?>
<svg version="1.1" id="Layer_1"
xmlns="http://www.w3.org/2000/svg"
xmlns:xlink="http://www.w3.org/1999/xlink"


xml:space="preserve">
q2.1 -25 -25.55 -26.95q-30.8 7 -40.35 37.3q-12.15 38.8 -10.1 80.5q1.55 31.25 18.1 56.9q6.75 10.45 19.3 9.95q25.2 -1.1 35.45 -19.9q-0.2 12.2 2.1 24.2q8.25 -31.8 2.45 -63.65q-9.2 0.75 -17.75 3q-0.7 3.75 0.2 7.45q-2.45 3.25 -3.5 7.15q-6.5 24.85 -34.8 22.95q-9.7 -0.65 -13.4 -9.2q-23 -53.25 -6.25 -110.15q4.95 -16.8 19 -26.5q24.85 -17.05 42.3 5.4q-3.9 37.55 -4.55 76.45q-0.5 29.35 -4 58.25q-3.95 32.45 19.05 51.95q10.7 1.85 20.5 -1.5q7.95 -5.3 12.5 -13.5q12.65 -22.9 12.9 -49.6q0.45 -44.25 2.9 -88.4q1 -17.2 -5.65 -29.3q-3.9 23.9 -3.1 49.45q1.4 44.8 -4.7 88.4q-4.75 34.1 -40.45 32.85q-6.25 -3.75 -8.15 -10.55q-5.85 -20.7 -4.2 -42.5q4.35 -59.6 1.85 -118.4q13.75 -50.95 22.75 -103.2q7.15 41.45 12.95 83.35q1.65 12.15 8 18.6q10 -26.15 13.25 -54.75q5.05 -44.65 16.6 -88.1q6 -22.55 2.15 -43.85q-8.2 22.15 -12.3 47.95q-9.3 58.55 -19.95 116.5q-7.25 -38.75 -12.2 -77.85q-2 -16.05 -10.25 -24.6q-10.25 50.2 -21.25 100.2q-1.15 -23.2 -4.25 -45.95q-7.85 -58.6 -13.75 -117q-5.7 20 -1.85 43.65q9.45 58.1 12.9 116.9q1 16.7 7.2 28.15<g id="3267" transform="matrix(1, 0, 0, 1, -137.8, 0)">
<path style="fill:#000000;fill-opacity:1" d="M410.2,207.75Q392.75 185.3 367.9 202.35Q353.85 212.05 348.9 228.85Q332.15 285.75 355.15 339Q358.85 347.55 368.55 348.2Q396.85 350.1 403.35 325.25Q404.4 321.35 406.85 318.1L394.7 316.45Q393.8 312.75 394.5 309L394.7 308.2Q403.25 305.95 412.45 305.2Q418.25 337.05 410 368.85L409.45 368.95Q407.15 356.95 407.35 344.75Q397.1 363.55 371.9 364.65Q359.35 365.15 352.6 354.7Q336.05 329.05 334.5 297.8Q332.45 256.1 344.6 217.3Q354.15 187 384.95 180Q412.6 181.95 410.5 206.95L410.2 207.75M262.45,181.5Q264.95 240.3 260.6 299.9Q258.95 321.7 264.8 342.4Q266.7 349.2 272.95 352.95Q308.65 354.2 313.4 320.1Q319.5 276.5 318.1 231.7Q317.3 206.15 321.2 182.25Q327.85 194.35 326.85 211.55Q324.4 255.7 323.95 299.95Q323.7 326.65 311.05 349.55Q306.5 357.75 298.55 363.05L292.95 366.7Q283.15 370.05 272.45 368.2Q249.45 348.7 253.4 316.25Q256.9 287.35 257.4 258Q258.05 219.1 261.95 181.55L262.45 181.5M154.55,340.3Q151.1 281.5 141.65 223.4Q137.8 199.75 143.5 179.75Q149.4 238.15 157.25 296.75Q160.35 319.5 161.5 342.7Q172.5 292.7 182.75 242.5Q191 251.05 193 267.1Q197.95 306.2 205.2 344.95Q215.85 287 225.15 228.45Q229.25 202.65 237.45 180.5Q241.3 201.8 235.3 224.35Q223.75 267.8 218.7 312.45Q215.45 341.05 205.45 367.2Q199.1 360.75 197.45 348.6Q191.65 306.7 184.5 265.25Q175.5 317.5 161.75 368.45Q155.55 357 154.55 340.3" />
</g>
</svg>
