<?xml version="1.0" encoding="utf-8"?>
<svg version="1.1" id="Layer_1"
xmlns="http://www.w3.org/2000/svg"
xmlns:xlink="http://www.w3.org/1999/xlink"


xml:space="preserve">
q6.55 20.4 8.15 41.65q1.6 21.65 -0.1 43.2q-1.75 21.95 -6.9 43.2q-5.1 21.25 -13.7 41.3q-8.6 19.9 -26.35 32.15q-18.1 12.4 -40.25 14q-7.2 0.5 -14.1 -1.3q22.25 1.15 41.15 12.65q18.05 10.95 28.8 29.35q10.65 18.3 17.15 38.55q-2.4 10.7 -2.8 23q-1.85 59.5 -2.9 119.25q-1 59.85 -3.25 119.25q-0.55 15 -2.15 29.8q-1.85 16.85 3.6 29.4q29.15 6.05 54.2 -10.85q7 -4.75 11.95 -11.35q33.65 -45.05 39.6 -101.7q6.25 -59.75 -9.2 -117q-13.5 -49.95 -60.8 -71.55q-12 -4.15 -24.8 -4.2q-0.3 -1.65 -2.3 -2.75q-2.6 60.15 -2 118.3q4.5 -4.5 4.45 -11.75q-0.35 -44.2 1.25 -88.35q6.95 54.45 21.55 105.6q0.65 -0.75 0.8 -1.6q1.05 -5.2 0.8 -10.35q0.5 -0.75 0.65 -1.6q1.8 -9.6 1.65 -19.4q-1.1 -59.9 2.7 -117.75q-1 -0.25 -1.15 0.75q-5.6 39.5 -7.75 79.45q-1.2 22.65 1.45 43.6q-13.75 -54.7 -20.85 -111q-0.5 -1.25 -1.5 -2.25q-2.85 6.35 -3.25 14.95q0.75 54.7 1.85 109.5q0.75 34.05 -18.35 59.25q-16.7 6.65 -32.05 -1.6q-4.8 -2.6 -6.1 -7.4q-6.7 -25.55 -7.1 -52.75q-0.85 -59.35 0.25 -118.5q-3.15 21.9 -3.05 46.5q0.2 59.35 1.55 119.25q0.3 12.9 9.75 21.4q17.1 15.45 38.75 6.55q5.9 -2.45 8.1 -8.35q19.55 -51.8 15.05 -109.7q-1.7 -22.35 -0.2 -44.8q1.15 -17.6 -6.2 -29.1q-1.55 4.75 -1.1 9.7q-20.85 -2.85 -41.5 1.5q-8.35 19.45 -6.15 42q0.9 9.35 1.4 19q0.7 -20.6 -9.25 -38.65q-7.75 -14.1 -20.35 -23.8q-26.8 -7.35 -42.65 14q-13.95 18.85 -16.6 43.2q-2.1 19.45 8.75 34q12.35 16.5 33.25 16.25q14.8 -1.1 27.35 -9.55q18.75 -12.45 19.5 -35.45q-18.7 13.3 -40.85 7.95q-21.8 -5.2 -21.55 -28.95q0.25 -22.6 13.45 -40.7q11.2 -15.35 31.3 -11.35q19.8 11.15 26.85 33.1q5.65 23.1 -14.65 37.55q-27.55 40.9 -36.25 90.65q-4.95 28.15 -6.95 56.85q-4.15 59.35 6.8 117q7.2 38.25 45.55 43.1q6.95 -3 12.75 -7.8q17.95 -14.9 31.25 -33.45q31.4 -49.35 31.75 -109.45q0.35 -59.55 -10.8 -117q-5.45 -28.3 -26.95 -44.75q-10.8 -10.3 -26.5 -7.75q-3.5 1.05 -7.3 2.65q-8.1 3.35 -12.85 10.45q24.9 11.3 30.85 40.1q11.85 57.65 9.9 117.55q-1.55 48.95 -24.75 91.55q-3.3 3.3 -6 7.1q-14.7 21.1 -37 33.9q-7.1 1.8 -13.4 -0.8q-15.3 -6.45 -21.65 -21.3q-14 -33.05 -14 -69.85q0.05 -59.75 10.95 -117.55q4.2 -22.3 10.2 -44.15q10.65 -38.8 49.15 -43.3q-0.1 0.75 0.15 1.3q0.6 1.15 0.8 2.4q-2.65 26.15 -7.3 52.35q-10.4 58.1 -15.95 117.2q-5.55 58.55 -16.4 115.55q-6.95 -34.25 -13.15 -68.9q-10.35 -58.15 -16.6 -116.3q-2.5 0.15 -2.5 3q0 24.5 -2.6 48.6q-6.2 58.35 -14.9 115.85q-5.7 -38.45 -9.65 -77.55q-5.95 -58.2 -8.7 -117.15q-1.4 -29.25 -1.6 -58.5q-0.15 -16.3 -3.55 -28.75q-3.65 22.9 -2.15 47.05q3.8 58.9 8.55 117.7q4.75 58.25 9.8 116.35q1.4 16.35 6.8 28.6q5.5 -12.55 7.25 -26.9q7.1 -57.9 15 -115.55q3.1 15.65 5.2 31.35q7.85 58.6 19.8 116.35q1.05 2.2 3.25 2.25q6.15 -12 8.3 -26.2q8.9 -58.15 15.4 -116.95q6.5 -58.75 17.8 -116.1q5.9 -29.75 3.45 -58.7q-4.6 5.85 -5.55 15.35<g id="3261" transform="matrix(1, 0, 0, 1, -14.35, 0)">
<path style="fill:#000000;fill-opacity:1" d="M498.2,128Q487.45 109.6 469.4 98.65Q450.5 87.15 428.25 86L422.1 380.75Q429 382.55 436.2 382.05Q458.35 380.45 476.45 368.05Q494.2 355.8 502.8 335.9Q511.4 315.85 516.5 294.6Q521.65 273.35 523.4 251.4Q525.1 229.85 523.5 208.2Q521.9 186.95 515.35 166.55Q508.85 146.3 498.2 128M429.25,77.5Q442.05 77.55 454.05 81.7L457.2 82.5Q504.5 104.1 518 154.05Q533.45 211.3 527.2 271.05Q521.25 327.7 487.6 372.75Q482.65 379.35 475.65 384.1Q450.6 401 421.45 394.95L419.95 393.35L419.45 395.45Q414 382.9 415.85 366.05Q417.45 351.25 418 336.25Q420.25 276.85 421.25 217Q422.3 157.25 424.15 97.75Q424.55 85.45 426.95 74.75Q428.95 75.85 429.25 77.5M363.2,83.25Q364.2 84.25 364.7 85.5L364.95 86.25L364.7 91.15Q371.8 147.45 385.55 202.15L385.75 203.05Q383.1 182.1 384.3 159.45Q386.45 119.5 392.05 80Q392.2 79 393.2 79.25Q389.4 137.1 390.5 197Q390.65 206.8 388.85 216.4Q388.7 217.25 388.2 218L386.8 210.05Q387.05 215.2 386 220.4Q385.85 221.25 385.2 222Q370.6 170.85 363.65 116.4Q362.05 160.55 362.4 204.75Q362.45 212 357.95 216.5Q357.35 158.35 359.95 98.2Q360.35 89.6 363.2 83.25M338.1,97.8L337.45 97Q337 92.05 338.55 87.3L338.95 86.5Q346.3 98 345.15 115.6Q343.65 138.05 345.35 160.4Q349.85 218.3 330.3 270.1Q328.1 276 322.2 278.45Q300.55 287.35 283.45 271.9Q274 263.4 273.7 250.5Q272.35 190.6 272.15 131.25Q272.05 106.65 275.2 84.75L276.6 86.3L276.95 87Q275.85 146.15 276.7 205.5Q277.1 232.7 283.8 258.25Q285.1 263.05 289.9 265.65Q305.25 273.9 321.95 267.25Q341.05 242.05 340.3 208Q339.2 153.2 338.45 98.5L338.1 97.8M356.05,261.25Q353.85 238.7 362.2 219.25L360.7 267.75Q381.35 263.4 402.2 266.25L402.45 275.25L357.45 280.25Q356.95 270.6 356.05 261.25M331.05,389.9Q318.5 398.35 303.7 399.45Q282.8 399.7 270.45 383.2Q259.6 368.65 261.7 349.2Q264.35 324.85 278.3 306Q294.15 284.65 320.95 292Q333.55 301.7 341.3 315.8Q351.25 333.85 350.55 354.45Q349.8 377.45 331.05 389.9M344.05,338.6Q337 316.65 317.2 305.5L313.15 306.85L311.75 303.1Q291.65 299.1 280.45 314.45Q267.25 332.55 267 355.15Q266.75 378.9 288.55 384.1Q310.7 389.45 329.4 376.15Q349.7 361.7 344.05 338.6M190.65,82.9Q194.45 81.3 197.95 80.25Q213.65 77.7 224.45 88L224.95 88.5Q246.45 104.95 251.9 133.25Q263.05 190.7 262.7 250.25Q262.35 310.35 230.95 359.7Q217.65 378.25 199.7 393.15Q193.9 397.95 186.95 400.95Q148.6 396.1 141.4 357.85Q130.45 300.2 134.6 240.85Q136.6 212.15 141.55 184Q150.25 134.25 177.8 93.35Q182.55 86.25 190.65 82.9M214,95.45L213.65 94.7Q213.45 93.45 212.85 92.3Q212.6 91.75 212.7 91L213.2 90.25L213.35 90L208.95 89.5Q170.45 94 159.8 132.8Q153.8 154.65 149.6 176.95Q138.7 234.75 138.65 294.5Q138.65 331.3 152.65 364.35Q159 379.2 174.3 385.65Q180.6 388.25 187.7 386.45Q210 373.65 224.7 352.55Q227.4 348.75 230.7 345.45Q253.9 302.85 255.45 253.9Q257.4 194 245.55 136.35Q239.6 107.55 214.7 96.25L214 95.45M136.45,79Q138.9 107.95 133 137.7Q121.7 195.05 115.2 253.8Q108.7 312.6 99.8 370.75Q97.65 384.95 91.5 396.95Q89.3 396.9 88.25 394.7Q76.3 336.95 68.45 278.35Q66.35 262.65 63.25 247Q55.35 304.65 48.25 362.55Q46.5 376.9 41 389.45Q35.6 377.2 34.2 360.85Q29.15 302.75 24.4 244.5Q19.65 185.7 15.85 126.8Q14.35 102.65 18 79.75Q21.4 92.2 21.55 108.5Q21.75 137.75 23.15 167Q25.9 225.95 31.85 284.15Q35.8 323.25 41.5 361.7Q50.2 304.2 56.4 245.85Q59 221.75 59 197.25Q59 194.4 61.5 194.25Q67.75 252.4 78.1 310.55Q84.3 345.2 91.25 379.45Q102.1 322.45 107.65 263.9Q113.2 204.8 123.6 146.7Q128.25 120.5 130.9 94.35Q131.85 84.85 136.45 79" />
</g>
</svg>
