<?xml version="1.0" encoding="utf-8"?>
<svg version="1.1" id="Layer_1"
xmlns="http://www.w3.org/2000/svg"
xmlns:xlink="http://www.w3.org/1999/xlink"


xml:space="preserve">
q-12.4 -0.85 -20.6 9.3q-13.55 16.7 -18.25 38.2q-3.9 17.85 -5.75 35.95q-0.95 9.15 -1.35 18.35q-0.6 14.75 -0.85 29.5q0.05 14.75 -0.4 29.5q-0.7 22.1 2.9 43.8q4.35 26.3 29.15 23.75q23.3 -2.45 31.6 -24.45q3.55 -9.4 -1 -18.45q-10.95 19.95 -31.25 26.7q-6.9 2.3 -14 0q-14.25 -33.1 -12 -69.1q1.35 -21.05 0.8 -42q25.25 4.25 49.95 -1.6q3.15 -5.65 0.65 -11.6q-1.55 -56 29.45 -99.9q11.05 -15.6 27.45 -3.9q1.1 5.35 4.85 9.15q1.05 1.1 2.65 0.85q1.25 -24.8 -23.5 -27.1q-23.65 -9.35 -34.65 11.4q-10.55 19.85 -6.95 42.2q3.6 22.05 17.15 39.75q12.95 16.95 22.5 35.9q9.8 19.5 15.05 40.95q4.85 19.95 1.2 40.05q-4.25 23.4 -24.2 32.6q-22.6 10.45 -34.45 -11.85q-1.85 -3.5 -5.15 -5.95q2.7 25.5 28.15 29.9q13.5 2.4 24 -6.2q6.2 -5.1 9.75 -12.35q17.8 -36.6 11.65 -76.65q-3.2 -20.65 -12.95 -39.25q-6.4 -12.15 -14.9 -22.95q-15.85 -20.05 -25.15 -43.65q-8.4 -21.35 1.8 -40.05q6.65 -12.25 21 -9.8q18.65 2.85 30 19.25q1 -24.3 -21.5 -33.05q-11.45 47.75 -19.45 97.1q-9.45 58.35 -20.35 116.5q-2.75 14.55 -7.25 28.6q-2.3 -17.3 -5.45 -34.7q-9.8 -54.5 -21.35 -108.25q0.2 -7.9 -0.3 -15.7q-8 21.5 -12.3 46.5q-9.6 56.55 -23.6 110.75q-0.6 -8 -2.25 -16.05q-11.7 -57.85 -21.55 -116.05q-9.8 -57.7 -21 -114.9q-3.45 13.7 0.35 31.25q12.5 57.65 22.75 115.8q10.1 57.25 17.1 114.9q-1.05 -2.75 -2 -2.2q0.35 2.1 1.9 3.75q-1.95 11.35 5.5 16.25q12.45 -47.9 22.95 -96.7q3.15 -14.55 6.55 -28.9q3.3 -13.85 4.65 -27.5q2.6 22.65 6.25 45.35q6.9 43.6 12.95 87.25q2.25 16.45 9.9 28.75q2.2 -1.05 1.95 -3.4q5.75 -17.25 8.7 -36.4q9.05 -58.3 19.55 -116.45q5.25 -29.1 11.85 -57.95q6.75 -29.8 4.8 -58.85q-0.25 1.8 -1.95 1.75q-38.8 9.45 -49.25 50.5q-8.65 33.65 -12.85 68.1q-7.45 60.3 7.4 117.8q3.55 13.85 16.65 19.55q22.25 9.65 40.1 -7.7q38.45 -37.3 45.35 -91.55q7.65 -59.95 -5.3 -118.2q-7.25 -32.8 -37.1 -42.25q0.2 -1.45 -1.65 -0.75q-35.5 9.55 -44.55 47.05q-13.9 57.65 -13.65 117.7q0.1 21.3 4.95 41.6q3.9 16.3 19.55 22.1q11.6 4.3 22.75 -1.85q33.25 -18.4 43.1 -55.9q15.25 -57.9 7.6 -117.3q-4.15 -31.95 -29.45 -49.1q-3.5 -2.4 -7.8 -3.05<g id="3280" transform="matrix(1, 0, 0, 1, -47.05, 0)">
<path style="fill:#000000;fill-opacity:1" d="M399.2,144.25Q397.6 144.5 396.55 143.4Q392.8 139.6 391.7 134.25Q375.3 122.55 364.25 138.15Q333.25 182.05 334.8 238.05L383.45 231L385.1 234.4Q387.6 240.35 384.45 246Q359.75 251.85 334.5 247.6Q335.05 268.55 333.7 289.6Q331.45 325.6 345.7 358.7Q352.8 361 359.7 358.7Q380 351.95 390.95 332Q395.5 341.05 391.95 350.45Q383.65 372.45 360.35 374.9Q335.55 377.45 331.2 351.15Q327.6 329.45 328.3 307.35Q328.75 292.6 328.7 277.85L328.9 248.45Q329.15 233.7 329.75 218.95Q330.15 209.75 331.1 200.6Q332.95 182.5 336.85 164.65Q341.55 143.15 355.1 126.45Q363.3 116.3 375.7 117.15Q400.45 119.45 399.2 144.25M474.45,146.5Q463.1 130.1 444.45 127.25Q430.1 124.8 423.45 137.05Q413.25 155.75 421.65 177.1Q430.95 200.7 446.8 220.75Q455.3 231.55 461.7 243.7Q471.45 262.3 474.65 282.95Q480.8 323 463 359.6Q459.45 366.85 453.25 371.95Q442.75 380.55 429.25 378.15Q403.8 373.75 401.1 348.25L398.5 345.25L401.45 342.95L403.45 338.5Q406.75 340.95 408.6 344.45Q420.45 366.75 443.05 356.3Q463 347.1 467.25 323.7Q470.9 303.6 466.05 283.65Q460.8 262.2 451 242.7Q441.45 223.75 428.5 206.8Q414.95 189.1 411.35 167.05Q407.75 144.7 418.3 124.85Q429.3 104.1 452.95 113.45Q475.45 122.2 474.45 146.5M208.45,105.75Q210.4 134.8 203.65 164.6Q197.05 193.45 191.8 222.55Q181.3 280.7 172.25 339Q169.3 358.15 163.55 375.4L163.9 379.05Q164.15 381.4 161.95 382.45Q154.3 370.15 152.05 353.7Q146 310.05 139.1 266.45Q135.45 243.75 132.85 221.1Q131.5 234.75 128.2 248.6Q124.8 262.95 121.65 277.5Q111.15 326.3 98.7 374.2L97.1 371.55L95.95 378.95Q88.5 374.05 90.45 362.7Q88.9 361.05 88.55 358.95L88.45 358.2Q89.4 357.65 90.45 360.4L90.7 360.45Q83.7 302.8 73.6 245.55Q63.35 187.4 50.85 129.75Q47.05 112.2 50.5 98.5L52.15 100.05L52.75 100.75Q63.95 157.95 73.75 215.65Q83.6 273.85 95.3 331.7Q96.95 339.75 97.55 347.75Q111.55 293.55 121.15 237Q125.45 212 133.45 190.5Q133.95 198.3 133.75 206.2Q145.3 259.95 155.1 314.45Q158.25 331.85 160.55 349.15L160.9 348.05Q165.4 334 168.15 319.45Q179.05 261.3 188.5 202.95Q196.5 153.6 207.95 105.85L208.45 105.75M274.2,110.25L276.9 109.15L276.95 109Q306.8 118.45 314.05 151.25Q327 209.5 319.35 269.45Q312.45 323.7 274 361Q256.15 378.35 233.9 368.7Q220.8 363 217.25 349.15Q202.4 291.65 209.85 231.35Q214.05 196.9 222.7 163.25Q233.15 122.2 271.95 112.75Q273.65 112.8 273.9 111L274.2 110.25M273.55,126.7L273.6 126Q273.8 124.55 271.95 125.25Q236.45 134.8 227.4 172.3Q213.5 229.95 213.75 290Q213.85 311.3 218.7 331.6Q222.6 347.9 238.25 353.7Q249.85 358 261 351.85Q294.25 333.45 304.1 295.95Q319.35 238.05 311.7 178.65Q307.55 146.7 282.25 129.55Q278.75 127.15 274.45 126.5L274.55 127.15L273.55 126.7" />
</g>
</svg>
