<?xml version="1.0" encoding="utf-8"?>
<svg version="1.1" id="Layer_1"
xmlns="http://www.w3.org/2000/svg"
xmlns:xlink="http://www.w3.org/1999/xlink"


xml:space="preserve">
q-9 38.6 -5.3 80.55q1 11.65 0.8 23.45q-0.35 19.15 -1.1 38.55q-0.4 11.1 -2.4 22.2q-2.7 15.3 3.5 29.5q6.45 -38 5.95 -78.85q16.95 2.75 31 -7.75q7.25 -5.95 11.5 -14.15q1.85 -3.5 3.15 -7.45q5.85 -17.35 3.3 -35.25q-2.4 -16.55 -12.9 -29.55q-3.15 -3.9 -6.65 -7.5q-9.05 -9.25 -22.2 -9.4q-6.4 -0.05 -12.45 2.05q1.5 -38.15 -1.15 -74.85q35.9 -2 46.55 30.7q6.4 19.7 -5.7 35.35q-15.55 20.2 -40.15 20.65q-15.4 3.8 -27.1 14.85q-3.35 3.15 -5.4 7.25q-23.75 47.3 -21.75 102.15q0.85 23.45 13.1 42.8q17.85 28.25 50.4 11.4q26.9 -34 32.85 -77.3q7.35 -53.45 -21.6 -98.15q-7.35 -3.7 -16 -2.25q7.75 9.25 12.15 20.65q22.95 59.95 -9.5 115.85q-15.05 25.95 -46.65 15.2q-20.3 -19.1 -18.75 -48q0.75 -14.35 0.75 -28.5q0 -41.05 28.75 -68.2q1 -0.25 1.75 -0.85q11.9 -9.2 27.25 -8.15q0.75 0.25 1.4 0.8q-1.1 -16 -6.5 -28.65q-1.4 36.75 5.1 75.1q4.95 29.15 6.55 58.7q1.65 30.6 9.35 58.15q8.4 -29.7 15.15 -60.65q5.3 -24.4 9.1 -47.8q6.8 54.95 19.2 109.45q1.1 2.15 3.5 1.5q1.55 -2.25 2.35 -4.5q0.85 1.85 2.15 3.5q5.55 -12.3 7.15 -26.8q6.6 -58.3 12.55 -117.15q0.75 -7.5 2.9 -14.6q4.65 -15.3 1.9 -29.65q-8.5 19.2 -10.75 42.4q-5.65 58.75 -14 117q-0.55 3.7 -1.75 7.05q-1.25 3.55 -1.7 6.75q-11 -50.15 -21.55 -99.7q-6.9 8.65 -9.75 21.5q-7.35 33.3 -16.25 66q-1.2 -22.45 -4.75 -45.05q-6.95 -43.65 -10 -87.8q-1.65 4.05 -3.85 7.8q-3.15 5.55 0.55 10.65q3.55 11.5 10.4 16.9q-2.35 -21.6 -13.35 -41.55<g id="3272" transform="matrix(1, 0, 0, 1, -140.6, 0)">
<path style="fill:#000000;fill-opacity:1" d="M361.5,180.95Q367.55 178.85 373.95 178.9Q387.1 179.05 396.15 188.3Q399.65 191.9 402.8 195.8Q413.3 208.8 415.7 225.35Q418.25 243.25 412.4 260.6Q411.1 264.55 409.25 268.05Q405 276.25 397.75 282.2L393.4 285.6Q379.35 296.1 362.4 293.35Q362.9 334.2 356.45 372.2Q350.25 358 352.95 342.7Q354.95 331.6 355.35 320.5Q356.1 301.1 356.45 281.95Q356.65 270.15 355.65 258.5Q351.95 216.55 360.95 177.95L361.5 180.95M363.05,278.35Q387.65 277.9 403.2 257.7Q415.3 242.05 408.9 222.35Q398.25 189.65 362.35 191.65Q365 228.35 363.5 266.5L363.05 278.35M315.95,182.25L317.2 183L318.45 183L320.45 183Q349.4 227.7 342.05 281.15Q336.1 324.45 309.2 358.45Q276.65 375.3 258.8 347.05Q246.55 327.7 245.7 304.25Q243.7 249.4 267.45 202.1Q269.5 198 272.85 194.85Q284.55 183.8 299.95 180Q308.6 178.55 315.95 182.25M314.85,193.15Q314.2 192.6 313.45 192.35L310.95 191.75Q295.6 190.7 283.7 199.9Q282.95 200.5 281.95 200.75Q253.2 227.9 253.2 268.95Q253.2 283.1 252.45 297.45Q250.9 326.35 271.2 345.45Q302.8 356.2 317.85 330.25Q350.3 274.35 327.35 214.4Q322.95 203 315.2 193.75L314.85 193.15M158.5,294.2Q162.05 316.8 163.25 339.25Q172.15 306.55 179.5 273.25Q182.35 260.4 189.25 251.75L188.65 256L189.25 256Q199.8 305.55 210.8 355.7L210.95 356.2L211.25 356.7Q211.7 353.5 212.95 349.95Q214.15 346.6 214.7 342.9Q223.05 284.65 228.7 225.9Q230.95 202.7 239.45 183.5Q242.2 197.85 237.55 213.15Q235.4 220.25 234.65 227.75Q228.7 286.6 222.1 344.9Q220.5 359.4 214.95 371.7Q213.65 370.05 212.8 368.2Q212 370.45 210.45 372.7Q208.05 373.35 206.95 371.2Q194.55 316.7 187.75 261.75Q183.95 285.15 178.65 309.55Q171.9 340.5 163.5 370.2L163.25 369.5L163 369.7Q155.3 342.15 153.65 311.55Q152.05 282 147.1 252.85Q140.6 214.5 142 177.75Q147.4 190.4 148.5 206.4Q151.55 250.55 158.5 294.2M290.9,289.6Q301.9 309.55 304.25 331.15Q297.4 325.75 293.85 314.25L278.4 316.9L270.6 327.6L269.85 326.6Q266.15 321.5 269.3 315.95Q271.5 312.2 273.15 308.15L274.95 307.3L288.95 281.7L290.9 289.6M291.05,306.15L289.1 298.35L285.05 305.65L291.05 306.15" />
</g>
</svg>
