<?xml version="1.0" encoding="utf-8"?>
<svg version="1.1" id="Layer_1"
xmlns="http://www.w3.org/2000/svg"
xmlns:xlink="http://www.w3.org/1999/xlink"


xml:space="preserve">
q-7.55 25.25 -7.65 54.75q-0.2 59.85 -2.85 119.25q-1.85 41.95 -2.8 83.5q-4.4 -17.8 -9.45 -35.55q-16.2 -56.8 -30.7 -114.25q-13 -51.65 -28.25 -102.15q-1.5 2.8 -2.6 5.9q-3.35 2.65 -2.1 7.9q-0.7 4.35 -0.7 9.15q-0.1 59.35 -1.85 118.5q-1.75 59.85 -5.5 119.2q-1 15.1 -4.35 29.7q-3.3 14.15 4.6 21.8q7.5 -36.6 8.1 -74.95q0.95 -59.8 3.35 -119.3q1.65 -41.6 1.5 -82.5q10.85 45.2 22.15 90.45q14.4 57.4 30.45 114.2q8 28.25 12.55 57.15q2.05 12.8 8.9 19.7q-0.5 0.4 -0.7 0.9q-0.65 1.7 -1.8 3.1q1.6 -28.1 2.5 -56.5q1.85 -59.6 2.4 -119.2q0.25 -30.25 3.55 -59.85q2.5 -22.95 -0.3 -44.4q-1.1 2.85 -0.85 6q0.15 1.75 1.2 3.05q-1.6 7.55 -1.85 15.95q-1.85 59.1 -2.5 118.5q-0.7 60.05 -7.7 119.15q-0.9 7.45 -2.95 14.55q-5 17.35 3.65 29.75q3.95 -5.9 4.75 -13.4q6.15 -58.7 7.65 -117.8q5.65 -3.4 10.6 -7.4q1.25 16.5 5.95 32.75q16.55 57 28.45 114.75q2.65 12.85 10.5 19.6q1.85 -1.85 1.5 -4.4q-3.95 -31.05 -12.15 -61.85q-14 -52.85 -30 -104.6q12.5 -11.65 19.7 -28q8.4 -19.15 10.65 -39.7q5.3 -48.95 -34.2 -74.65q4.05 5.15 8.45 9.55q7.7 20.85 5.65 43q-2 21.1 -12.65 39.55q3.7 -62.5 2.15 -125.1q13.25 -1.55 21.55 8.8q-7.65 15.85 -10.25 33.75q-8.55 58.35 -13.85 117.25q-5.35 59.1 -18.4 116.65q-0.8 3.55 -1.15 6.9q-11.05 -58.15 -21.25 -115.75q-1.6 -0.25 -1.85 1.2q-2.25 0.05 -2.7 2.5q-4.75 25.5 -13.9 49.55q-4.1 -57.95 -12.3 -115q-8.4 -58.4 -15.3 -117.05q-3.5 -29.7 -8.55 -58.4q-0.85 -0.15 -0.9 0.3q-2.9 34.8 2.4 70.35q8.8 58.3 16.8 116.8q7.9 57.95 9.65 117q-2.45 4.35 -1.6 9.7q1.35 1.35 3.25 2.5q-0.2 7.55 4.75 12q1.75 0.25 1.95 -1.55q14.35 -39.75 21.45 -81.55q4.95 -29 11.45 -57.6q3.8 -16.7 4.85 -33.05q0.9 15 4 30q11.95 57.85 20.75 116.2q2.45 16.4 10.05 28.25q4 -6.35 2.95 -13.55q1.15 -0.95 1.55 -2.65q2.9 -11.8 4.75 -23.8q9.15 -58.35 14.6 -117.25q5.45 -58.8 14.9 -116.9q1.2 -7.55 3.9 -14.45q5 -13 -1.15 -21.85q-30.5 11.8 -42.45 42.9q-8.4 21.95 -11.1 45.15q-6.85 60.2 9.65 117.5q6.6 22.95 28.1 31.6q22.95 9.3 38.95 -8.7q25.85 -29.1 33.1 -67.7q11.2 -59.15 -6.35 -116.95q-11.4 -37.55 -49.9 -43.8q14.05 17.9 17.7 40.75q9.6 60.2 -14.45 116.35q-13.5 31.5 -47.05 29.4q-10.1 -0.65 -15.1 -8.8q-28.05 -45.55 -23.85 -100.55q2.3 -30.05 11.05 -58.55q11.65 -37.85 50.15 -44.05q0.5 12.4 12.9 18.5q5.15 2.55 8.65 6.95<g id="3277" transform="matrix(1, 0, 0, 1, -48.7, 0)">
<path style="fill:#000000;fill-opacity:1" d="M504.75,154.65Q501.45 184.25 501.2 214.5Q500.65 274.1 498.8 333.7Q497.9 362.1 496.3 390.2L498.7 401.7Q499.85 400.3 500.5 398.6Q500.7 398.1 501.2 397.7L497.4 417.15L496.95 417.95Q490.1 411.05 488.05 398.25Q483.5 369.35 475.5 341.1Q459.45 284.3 445.05 226.9Q433.75 181.65 422.9 136.45Q423.05 177.35 421.4 218.95Q419 278.45 418.05 338.25Q417.45 376.6 409.95 413.2Q402.05 405.55 405.35 391.4Q408.7 376.8 409.7 361.7Q413.45 302.35 415.2 242.5Q416.95 183.35 417.05 124Q417.05 119.2 417.75 114.85L417.1 112.15Q415.85 106.9 419.2 104.25L419.85 106.4Q420.95 103.3 422.45 100.5L422.75 115.8Q438 166.3 451 217.95Q465.5 275.4 481.7 332.2Q486.75 349.95 491.15 367.75Q492.1 326.2 493.95 284.25Q496.6 224.85 496.8 165Q496.9 135.5 504.45 110.25Q507.25 131.7 504.75 154.65M344.45,98.25Q383.95 123.95 378.65 172.9Q376.4 193.45 368 212.6Q360.8 228.95 348.3 240.6Q364.3 292.35 378.3 345.2Q386.5 376 390.45 407.05Q390.8 409.6 388.95 411.45Q381.1 404.7 378.45 391.85Q366.55 334.1 350 277.1Q345.3 260.85 344.05 244.35Q339.1 248.35 333.45 251.75L332.6 250.8L331.85 277.5Q330.35 336.6 324.2 395.3Q323.4 402.8 319.45 408.7Q310.8 396.3 315.8 378.95Q317.85 371.85 318.75 364.4Q325.75 305.3 326.45 245.25Q327.1 185.85 328.95 126.75Q329.2 118.35 330.8 110.8Q329.75 109.5 329.6 107.75Q329.35 104.6 330.45 101.75L330.7 101L333.55 99.7L334 99.55L334.2 99L334.25 99.45L337.95 98L344.45 98.25M335.2,111.15Q336.75 173.75 333.05 236.25L354.2 218.75L358.2 212.05Q368.85 193.6 370.85 172.5Q372.9 150.35 365.2 129.5Q360.8 125.1 356.75 119.95Q348.45 109.6 335.2 111.15M202.95,93.75Q209.1 102.6 204.1 115.6Q201.4 122.5 200.2 130.05Q190.75 188.15 185.3 246.95Q179.85 305.85 170.7 364.2Q168.85 376.2 165.95 388Q165.55 389.7 164.4 390.65Q165.45 397.85 161.45 404.2Q153.85 392.35 151.4 375.95Q142.6 317.6 130.65 259.75Q127.55 244.75 126.65 229.75Q125.6 246.1 121.8 262.8Q115.3 291.4 110.35 320.4Q103.25 362.2 88.9 401.95L88.4 408.15Q88.2 409.95 86.45 409.7Q81.5 405.25 81.7 397.7Q79.8 396.55 78.45 395.2Q77.6 389.85 80.05 385.5L80.45 384.95Q78.7 325.9 70.8 267.95Q62.8 209.45 54 151.15Q48.7 115.6 51.6 80.8Q51.65 80.35 52.5 80.5Q57.55 109.2 61.05 138.9Q67.95 197.55 76.35 255.95Q84.55 313 88.65 370.95Q97.8 346.9 102.55 321.4L123.75 206.5Q124.2 204.05 126.45 204L126.6 205.95Q126.85 204.5 128.45 204.75Q138.65 262.35 149.7 320.5L158.9 369.05Q159.25 365.7 160.05 362.15Q173.1 304.6 178.45 245.5Q183.75 186.6 192.3 128.25Q194.9 110.35 202.55 94.5L202.95 93.75M303.85,177.8Q321.4 235.6 310.2 294.75Q302.95 333.35 277.1 362.45Q261.1 380.45 238.15 371.15Q216.65 362.5 210.05 339.55Q193.55 282.25 200.4 222.05Q203.1 198.85 211.5 176.9Q223.45 145.8 253.95 134Q292.45 140.25 303.85 177.8M278.85,163.5Q266.45 157.4 265.95 145Q227.45 151.2 215.8 189.05Q207.05 217.55 204.75 247.6Q200.55 302.6 228.6 348.15Q233.6 356.3 243.7 356.95Q277.25 359.05 290.75 327.55Q314.8 271.4 305.2 211.2Q301.55 188.35 287.5 170.45Q284 166.05 278.85 163.5" />
</g>
</svg>
