<?xml version="1.0" encoding="utf-8"?>
<svg version="1.1" id="Layer_1"
xmlns="http://www.w3.org/2000/svg"
xmlns:xlink="http://www.w3.org/1999/xlink"


xml:space="preserve">
q-0.3 44.25 -1.35 88.5q-1.4 59.25 -3.4 118.45q-1 29.7 -2.55 59.35q-1.55 30.25 -6.9 59.65q-3.1 16.9 2.85 29.5q38.7 -0.65 77.7 2.75q1.05 -1.3 1.25 -2.95q-0.55 -2.1 -2.5 -2.95q-3.7 1.4 -7.7 2.3q1.8 -8.1 2.55 -16.5q1.4 -15.25 2.4 -30.8q3.8 -59.05 4.6 -118.55q0.3 -22.35 2.2 -44.9q2 -23 -0.5 -44.35q-5.5 14.1 -5.65 32.25q-0.3 -22.95 1.6 -47.55q3.45 -43.75 4.35 -87.65q0.45 -22 0.05 -44q-4.2 4.25 -4.4 10.4q-1.25 35.55 -3.9 71.1q-3.35 45.5 -5.35 91.15q-0.15 3 0.2 6q0.2 1.9 0.65 3.8q1.1 3.25 3.15 6.2q25.4 6.45 51.75 6.6q-6.55 58.15 -8.25 117.65q-0.4 15 -3.15 29.65q-3.3 17.45 3.4 29.35q6.5 -28.3 7.65 -58.4q6.7 38 15.35 75.8q3.65 16 11.15 27.2q1.95 -1.8 1.45 -4.35q-9.95 -51.8 -24.4 -102.35q10 -11.1 15.75 -25.4q12 -29.9 -7.05 -53.35q-3.4 0.7 -6.7 3.15q-0.6 3.35 -0.3 6.75q0.1 1.25 1 2.25q8.35 -5.85 18.75 -1.75q2.5 3.15 3.1 6.9q5.25 33.7 -23 55.35q0.45 -35.4 -0.35 -70.25q-7.5 32.85 -13.75 66.95q-0.95 2.9 -0.4 5.45q-2.6 9.75 3 15.75q6.35 -14.8 8.45 -31.4q2.55 -20.05 6.8 -39.8q15.05 2 30.55 0.85q4 30.4 12.55 58.05q2 -0.6 1.9 -2.75q-1.95 -39.1 -8.15 -78q0.15 -2.4 -0.75 -4.65q-9.8 -58.2 -19.2 -115.95q-0.6 1.65 -1.05 3.4q6.25 43.55 12.1 87.1q10.7 -44.8 13.95 -89.5q-4.2 2.7 -5.3 8.55q-6.7 34.25 -11.45 68.8q-8.15 58.35 -14.55 117.05q-5.9 56.7 -18.5 112q-7 -45.65 -17.6 -90.95q-13.5 -57.6 -21.55 -115.45q-0.5 0.1 -0.5 0.25q-3.95 3.2 -4.85 9.7q-8.15 58.2 -17.7 116.4q-4.75 29.3 -12.45 58q-2.6 9.75 -3.7 19.25q-9.4 -52.4 -16.65 -105.25q-8 -58.5 -13.2 -117.55q-5.25 -58.85 -13.45 -117.25q-2.3 -16.35 -8.45 -28.55q-0.65 0.3 -0.7 1.05q-1.8 22.05 2.3 44.55q10.6 57.9 15.1 116.7q4.55 59.05 12.2 117.7q3.8 30.05 12.95 57.5q1 -0.35 1.4 -1.05q9.8 -31.7 14.95 -64.85q9.05 -58.25 19.55 -116.2q1.8 -9.9 2.5 -19.5q0.8 20.9 5.1 41.95q11.75 57.55 24.2 115.45q3.15 14.65 4.4 29.45q1.2 13.3 7.85 20.55q1.8 -2.25 1.4 -5.15q9.7 -42.25 14.6 -85.45q6.65 -58.55 13.75 -117.05q7.15 -58.7 14.65 -117.1q2.3 -18 6.75 -35.5q3.85 -15.25 2.5 -29.6q-4.95 57.95 -6.15 117q-0.5 23.5 22.6 26.25q6.85 -6.05 12.3 -13.95q4.7 -6.85 7.05 -14.7q17.15 -57.8 4.7 -116.9q-4.1 -19.55 -20.55 -26.4q-18.2 8.55 -19.95 28.7q2.95 0.55 4.55 2.5q8.2 22.05 11.55 45.6q6.35 45.05 -12.55 84.1q-6.9 14.6 -19.3 9.75q-2.65 -1.05 -3.1 -3.45q-5 -27.2 -2.5 -55.3q1.8 -20.4 0.5 -41.1q-1.75 -27.85 19.15 -42.1q0.9 -0.15 1.7 0q-0.65 59.4 -6.1 118.3q-1.55 16.95 3.85 29.4q4.85 -27.65 5.9 -57q14.2 4.55 29.3 3.45q-1 27.6 -2.9 55.1q-1.15 16.5 3.25 29.8q0.9 -0.6 1 -1.35q4.45 -27.3 5.15 -55.4q1.5 -60 0.35 -118.45q-5.75 11.15 -5.7 26.25q0 26.4 -0.8 52.75q0.7 -39.25 -0.05 -77.8q-4.55 12 -4.75 27.75<g id="3305" transform="matrix(1, 0, 0, 1, -23.5, 0)">
<path style="fill:#000000;fill-opacity:1" d="M391.45,56.75Q393.95 78.1 391.95 101.1Q390.05 123.65 389.75 146L388.1 264.5Q387.3 324 383.5 383.05Q382.5 398.6 381.1 413.85Q380.35 422.25 378.55 430.35L389.2 428.9Q393.2 428 396.9 426.6L396.95 426.45L450.95 428.95L451.95 429.2Q453.9 430.05 454.45 432.15L454.8 434.45L454.85 435.25L454.95 436.7L454.7 440.5Q454.5 442.15 453.45 443.45Q414.45 440.05 375.75 440.7L374.45 444.45Q368.5 431.85 371.6 414.95Q376.95 385.55 378.5 355.3Q380.05 325.65 381.05 295.95Q383.05 236.75 384.45 177.5Q385.5 133.25 385.8 89Q385.95 70.85 391.45 56.75M358.75,241L356.45 249L348.85 249Q322.5 248.85 297.1 242.4L296.7 245.5Q294.65 242.55 293.55 239.3L292.65 235.95Q292.2 234.05 292 232.15Q291.65 229.15 291.8 226.15Q293.8 180.5 297.15 135Q299.8 99.45 301.05 63.9Q301.25 57.75 305.45 53.5Q305.85 75.5 305.4 97.5Q304.5 141.4 301.05 185.15Q299.15 209.75 299.45 232.7L357.2 235.75L358.75 241M325.2,263Q326 297.85 325.55 333.25Q353.8 311.6 348.55 277.9Q347.95 274.15 345.45 271Q335.05 266.9 326.7 272.75Q325.8 271.75 325.7 270.5Q325.4 267.1 326 263.75L326.2 263L329.25 260.4Q332.55 257.95 335.95 257.25L342.2 258L345.45 258.5Q364.5 281.95 352.5 311.85Q346.75 326.15 336.75 337.25Q351.2 387.8 361.15 439.6Q361.65 442.15 359.7 443.95Q352.2 432.75 348.55 416.75Q339.9 378.95 333.2 340.95L325.45 347.7L325.35 347.6L324.35 381.55Q323.2 411.65 316.7 439.95Q310 428.05 313.3 410.6Q316.05 395.95 316.45 380.95Q318.15 321.45 324.7 263.3L325.2 263M242.4,55.9Q242.85 54.15 243.45 52.5Q252.85 110.25 262.65 168.45L262.95 170.1Q263.85 172.35 263.7 174.75Q269.9 213.65 271.85 252.75Q271.95 254.9 269.95 255.5Q261.4 227.85 257.4 197.45L255.25 180.9Q239.75 182.05 224.7 180.05Q220.45 199.8 217.9 219.85Q215.8 236.45 209.45 251.25Q203.85 245.25 206.45 235.5L217.8 175.7Q217.25 173.15 218.2 170.25L218.45 169.5L218.95 169.45L228.2 119.55Q234.45 85.45 241.95 52.6L242.45 52.5L242.4 55.9M241.2,79.2Q237.95 123.9 227.25 168.7L253.45 167.5Q247.6 123.95 241.35 80.4L241.2 79.2M209.95,80.85Q205.5 98.35 203.2 116.35Q195.7 174.75 188.55 233.45Q181.45 291.95 174.8 350.5Q169.9 393.7 160.2 435.95L159.05 435.2L159.35 437.3Q159.75 440.2 157.95 442.45Q151.3 435.2 150.1 421.9Q148.85 407.1 145.7 392.45Q133.25 334.55 121.5 277Q117.2 255.95 116.4 235.05Q115.7 244.65 113.9 254.55Q103.4 312.5 94.35 370.75Q89.2 403.9 79.4 435.6L78.7 437.75L78.65 437.95L78.55 438.25L76.9 441.65Q76.5 442.35 75.5 442.7Q66.35 415.25 62.55 385.2L54.9 325.75Q47.25 267.1 42.7 208.05Q38.2 149.25 27.6 91.35Q23.5 68.85 25.3 46.8Q25.35 46.05 26 45.75Q32.15 57.95 34.45 74.3Q42.65 132.7 47.9 191.55Q53.1 250.6 61.1 309.1Q68.35 361.95 77.75 414.35Q78.85 404.85 81.45 395.1Q89.15 366.4 93.9 337.1Q103.45 278.9 111.6 220.7Q112.5 214.2 116.45 211L116.6 212.65L116.7 210.25Q116.7 210.1 117.2 210Q125.25 267.85 138.75 325.45Q149.35 370.75 156.35 416.4Q168.95 361.1 174.85 304.4L181.15 245.65Q187.55 186.95 195.7 128.6Q200.45 94.05 207.15 59.8Q208.25 53.95 212.45 51.25Q213.8 65.6 209.95 80.85M278.95,261Q295.4 267.85 299.5 287.4Q311.95 346.5 294.8 404.3Q292.45 412.15 287.75 419Q282.3 426.9 275.45 432.95Q252.35 430.2 252.85 406.7Q254.05 347.65 259 289.7Q260.75 269.55 278.95 261M279.95,273.25Q259.05 287.5 260.8 315.35Q262.1 336.05 260.3 356.45Q257.8 384.55 262.8 411.75Q263.25 414.15 265.9 415.2Q278.3 420.05 285.2 405.45Q304.1 366.4 297.75 321.35Q294.4 297.8 286.2 275.75Q284.6 273.8 281.65 273.25Q280.85 273.1 279.95 273.25M200.45,263.5Q201.2 302.05 200.5 341.3L229.95 343.25Q230.75 316.9 230.75 290.5Q230.7 275.4 236.45 264.25Q237.6 322.7 236.1 382.7Q235.4 410.8 230.95 438.1Q230.85 438.85 229.95 439.45Q225.55 426.15 226.7 409.65Q228.6 382.15 229.6 354.55Q214.5 355.65 200.3 351.1L199.35 381.95Q198.3 411.3 193.45 438.95Q188.05 426.5 189.6 409.55Q195.05 350.65 195.7 291.25Q195.9 275.5 200.45 263.5" />
</g>
</svg>
