<?xml version="1.0" encoding="utf-8"?>
<svg version="1.1" id="Layer_1"
xmlns="http://www.w3.org/2000/svg"
xmlns:xlink="http://www.w3.org/1999/xlink"


xml:space="preserve">
q-22.95 32.5 -28.65 72.05q-8.8 60.75 14.95 114.9q2.55 5.8 9.6 7.65q10.5 2.45 20.5 -1.4q9.2 -3.45 16.7 -9.65q4.5 -3.65 7.5 -8.6q2.5 -4.05 3.65 -8.65q2.3 -9.25 -0.4 -17.5q-7.9 14.75 -24.4 20.4q-12.75 4.25 -26 1.8q-20.2 -49.4 -11.55 -102.2q5.65 -34.4 23.8 -64.25q23.7 -0.8 36.8 18.95q0.9 1.35 1.45 3.05q3.05 -20.7 -19.75 -30.65q-9.35 -4.05 -18.95 -3.7q-4.55 25.25 0.4 49.5q7.3 -30.35 2.6 -61.5q-17.9 0.3 -33.7 6.05q15.2 57.35 22.5 116.05q3.75 29.95 11.45 57.3q6.9 -4.8 9.9 -15.6q7 -25.2 13.35 -50.7q3.25 -12.95 4.1 -25.35q2.95 45.6 18.85 88.65q2.2 2.05 4.75 1.25q2.45 -2.7 3.15 -6.45q8.55 -46.25 17.45 -92.75q8.4 -43.85 11.15 -87.25q-6.85 25.75 -11.9 54.35q-10.25 58.2 -21.85 116.1q-1.45 0.25 -3.25 1.25q-7.45 -43.2 -18.45 -85.9q-11.55 27.95 -16.3 59.2q-1.6 10.8 -6.8 20.1q-3.15 5.6 -4.4 11.3q-3.1 -27.65 -7.2 -54.7q-8.9 -58.5 -26.05 -114.75q-1.15 0 -1.4 1.05q-1.75 7.25 0.2 14.55q-22.75 -1.9 -30.5 22.15q-6.15 19.2 -7.35 39.35q-1.35 22.2 11.8 39.65q11.75 15.5 29.5 -1.05q16.05 -14.95 19.1 -36.8q2.85 -20.75 -4.85 -40q-5.75 -14.45 -17.7 -23.3q14.75 15.15 12.55 38.65q-2.05 22.3 -21.7 32q-8.5 4.1 -18.1 3.1q-14 -25.65 -5.3 -54.05q4.8 -15.75 16.3 -27.7<g id="3303" transform="matrix(1, 0, 0, 1, -138.1, 0)">
<path style="fill:#000000;fill-opacity:1" d="M386.7,184.85Q409.5 194.8 406.45 215.5Q405.9 213.8 405 212.45Q391.9 192.7 368.2 193.5Q350.05 223.35 344.4 257.75Q335.75 310.55 355.95 359.95Q369.2 362.4 381.95 358.15Q398.45 352.5 406.35 337.75L405.75 335.25L408.5 330.25L411.6 329.95Q414.3 338.2 412 347.45Q410.85 352.05 408.35 356.1Q405.35 361.05 400.85 364.7Q393.35 370.9 384.15 374.35Q374.15 378.2 363.65 375.75Q356.6 373.9 354.05 368.1Q330.3 313.95 339.1 253.2Q344.8 213.65 367.75 181.15Q377.35 180.8 386.7 184.85M384.75,317.5Q400.55 311.75 418.45 311.45Q423.15 342.6 415.85 372.95Q410.9 348.7 415.45 323.45L385.05 320.95L384.75 317.5M139.85,182.3Q140.1 181.25 141.25 181.25Q158.4 237.5 167.3 296Q171.4 323.05 174.5 350.7L175.7 353.6Q176.95 347.9 180.1 342.3Q185.3 333 186.9 322.2Q191.65 290.95 203.2 263L203.4 269.25Q214.4 311.95 221.85 355.15L222.2 353.95Q224 352.95 225.45 352.7Q237.05 294.8 247.3 236.6Q252.35 208 259.2 182.25Q256.45 225.65 248.05 269.5Q239.15 316 230.6 362.25Q229.9 366 227.45 368.7Q224.9 369.5 222.7 367.45L222.5 366.95L221.95 367.2Q206.05 324.15 203.1 278.55Q202.25 290.95 199 303.9Q192.65 329.4 185.65 354.6Q182.65 365.4 175.75 370.2L175.3 367.95L174.65 369.6L174 370.2Q166.3 342.85 162.55 312.9Q155.25 254.2 140.05 196.85Q138.1 189.55 139.85 182.3M313.2,282.2Q320.9 301.45 318.05 322.2Q315 344.05 298.95 359Q281.2 375.55 269.45 360.05Q256.3 342.6 257.65 320.4Q258.85 300.25 265 281.05Q272.75 257 295.5 258.9Q307.45 267.75 313.2 282.2M294.45,274.7L282.95 271.2Q271.45 283.15 266.65 298.9Q257.95 327.3 271.95 352.95Q281.55 353.95 290.05 349.85Q309.7 340.15 311.75 317.85Q313.95 294.35 299.2 279.2L294.45 274.7" />
</g>
</svg>
