<?xml version="1.0" encoding="utf-8"?>
<svg version="1.1" id="Layer_1"
xmlns="http://www.w3.org/2000/svg"
xmlns:xlink="http://www.w3.org/1999/xlink"


xml:space="preserve">
q1.1 1.8 3.15 1.25q1.05 -18.35 -20.05 -18.2q-30.3 21.25 -36.8 58.8q-4.95 28.95 -7.75 58.3q-3.35 35.35 14.95 63.9q11.4 17.75 29.25 8.1q23.6 -12.8 22.35 -36.35q-5.5 8 -11.9 15.3q-15.2 17.25 -30.7 1.3q-13.55 -13.9 -14.3 -33.55q-2.1 -53.4 19.7 -100.05q10.85 -23.25 33.95 -17q-5.8 34.3 -6.25 70.45q-0.8 59.6 -4.1 119.1q-0.75 14.15 6.35 21.6q2.4 -15.5 6 -29.95q-1.1 2.3 -2.75 4.25q-0.65 -32.35 1 -67q-0.1 34.3 0.5 68.45q-1.7 20.75 4.25 37.95q6.2 -14.05 5.05 -32.05q-2.5 -39.3 -2.1 -78.65q1.25 -4.2 0.1 -8q0.25 -16.25 1 -32.5q1.4 -30.4 0.2 -59.25q-1.8 0.35 -2.3 2.4q-5.85 25.15 -6.25 51.85q-0.25 16.45 -0.35 32.9q-17.75 0.7 -34.2 5.3q1.4 -48.3 -0.65 -95.7q-1.8 5.25 0.15 10.5q21.6 5.65 43.85 5.35q-4 24.1 -4.4 49.65q-0.95 59.75 -5.45 117.75q0.05 1.95 0.75 3.75q-2.55 7.5 2 13.45q4.3 -50.8 5.75 -102.7q0.4 -14.85 1.5 -29.9q1.95 -26.5 -0.45 -52.05q13.45 -0.45 27.2 -3.05q4.7 -7.85 -0.6 -14.9q-35.55 4.3 -70.5 0.75q-1.25 0.2 -2.25 1.05q-5.25 18.2 -8.95 37q-3.6 18.55 -6.2 36.9q-2.5 17.75 -7.4 35q-5.95 20.9 -5 42.45q0.35 8.15 3.45 12.85q7.65 38.35 12.55 76.85q0.55 4.25 2.15 8.55q1.9 5 5.55 8.9q6.6 -12.25 2.9 -28q-7.35 -31.2 -12.85 -63q-10.5 -60.55 -19.55 -120.7q-8.1 19.5 -14.1 40.15q-10.9 25.5 -15.25 55.35q-8.45 58.45 -16.35 117q-0.5 3.5 -0.6 6.9q-12.6 -49.8 -26.55 -99.25q-0.75 0.1 -0.85 0.45q-3.85 3.55 -3.25 9.4q-11.75 35.4 -19.3 72.4q-1.65 8.1 -3.85 16.05q-7.65 -32.8 -12.9 -66.1q-9.2 -58.85 -21.1 -116q-6.05 6.75 -4.2 17.75q5.05 29.25 8.7 58.65q1.65 13.4 9.05 20.5q1.75 -3.85 2.55 -7.9q9.2 -44.25 21.6 -88.15q13.15 50.95 29.5 99.5q1.55 -1.25 2.4 -2.8q5.35 -7.45 5.55 -17.75q0.5 -26.5 3.7 -52.7q5.35 -44.05 15.6 -87.15q5.3 -22.5 3.65 -43.9q1.05 28.65 5.85 56.7<g id="3300" transform="matrix(1, 0, 0, 1, -58.45, 0)">
<path style="fill:#000000;fill-opacity:1" d="M361.95,173Q338.85 166.75 328 190Q306.2 236.65 308.3 290.05Q309.05 309.7 322.6 323.6Q338.1 339.55 353.3 322.3Q359.7 315 365.2 307L366.3 307.25L368.1 308.25L368.95 308.5Q370.2 332.05 346.6 344.85Q328.75 354.5 317.35 336.75Q299.05 308.2 302.4 272.85Q305.2 243.5 310.15 214.55Q316.65 177 346.95 155.75Q368.05 155.6 367 173.95L366.7 174.75L365.9 175.1Q363.85 175.65 362.75 173.85L361.95 173M394.45,149.25Q396.5 196.65 395.1 244.95Q411.55 240.35 429.3 239.65Q429.4 223.2 429.65 206.75Q430.05 180.05 435.9 154.9Q436.4 152.85 438.2 152.5Q439.4 181.35 438 211.75Q437.25 228 437 244.25Q438.15 248.05 436.9 252.25Q436.5 291.6 439 330.9Q440.15 348.9 433.95 362.95Q428 345.75 429.7 325Q429.1 290.85 429.2 256.55L394.65 258.2L394.2 267.75Q392.55 302.4 393.2 334.75Q394.85 332.8 395.95 330.5Q392.35 344.95 389.95 360.45Q382.85 353 383.6 338.85Q386.9 279.35 387.7 219.75Q388.15 183.6 393.95 149.3L394.45 149.25M235.7,146.25Q236.7 145.4 237.95 145.2L238.95 145Q273.9 148.55 309.45 144.25Q314.75 151.3 310.05 159.15L309.45 159.75Q295.7 162.35 282.25 162.8Q284.65 188.35 282.7 214.85Q281.6 229.9 281.2 244.75Q279.75 296.65 275.45 347.45L272.2 348.2Q267.65 342.25 270.2 334.75Q269.5 332.95 269.45 331L269.45 330.25Q273.95 272.25 274.9 212.5Q275.3 186.95 279.3 162.85Q257.05 163.15 235.45 157.5Q233.5 152.25 235.3 147L235.7 146.25M217.45,142.75Q226.5 202.9 237 263.45Q242.5 295.25 249.85 326.45Q253.55 342.2 246.95 354.45Q243.3 350.55 241.4 345.55Q239.8 341.25 239.25 337Q234.35 298.5 226.7 260.15L194.9 260.7L179.25 347.1Q176.15 342.4 175.8 334.25Q174.85 312.7 180.8 291.8Q185.7 274.55 188.2 256.8Q190.8 238.45 194.4 219.9Q198.1 201.1 203.35 182.9Q209.35 162.25 217.45 142.75M182.8,183.65Q172.55 226.75 167.2 270.8Q164 297 163.5 323.5Q163.3 333.8 157.95 341.25L157.35 339.65Q156.5 341.2 154.95 342.45Q138.6 293.9 125.45 242.95L123.3 251.85Q110.9 295.75 101.7 340L100.5 338.8Q99.7 342.85 97.95 346.7Q90.55 339.6 88.9 326.2Q85.25 296.8 80.2 267.55L60.3 151.5Q58.45 140.5 64.5 133.75Q76.4 190.9 85.6 249.75Q90.85 283.05 98.5 315.85Q100.7 307.9 102.35 299.8Q109.9 262.8 121.65 227.4Q121.05 221.55 124.9 218L125.6 215.95Q125.7 215.6 126.45 215.5L126.8 218.7L127.15 219.05L127.7 219.75Q141.65 269.2 154.25 319Q154.35 315.6 154.85 312.1Q162.75 253.55 171.2 195.1Q175.55 165.25 186.45 139.75Q188.1 161.15 182.8 183.65M221.2,226.5Q216.4 198.45 215.35 169.8L197.15 247.95L224.25 245.1L221.2 226.5" />
</g>
</svg>
