<?xml version="1.0" encoding="utf-8"?>
<svg version="1.1" id="Layer_1"
xmlns="http://www.w3.org/2000/svg"
xmlns:xlink="http://www.w3.org/1999/xlink"


xml:space="preserve">
q1.65 -15.25 -7.1 -29.2q-20.4 -32.5 -61.15 -26.55q-15.25 3.55 -27.7 13.3q-1.95 1.6 -2.65 3.45q-16.2 42.95 -7 89.6q2.5 12.8 7.65 24.75q20.8 48.3 48.2 93.8q18.6 30.85 30.45 64.85q18.1 51.8 19.35 106.7q0.75 33.15 -8.4 64.4q-3.15 10.85 -11.15 18.3q-24.45 22.75 -58.75 21.55q-23.95 -20.75 -27.25 -52.3q-1.25 -11.95 -7.75 -18.45q-1.15 0.9 -1.2 2.3q-0.75 15.9 2.5 31.7q6.75 33.45 33.2 54.5q26.6 0.55 49.95 -12.05q12.6 -6.8 18.45 -19.4q19.1 -41.35 18.45 -87.8q-0.75 -55.4 -18.35 -107.65q-19 -56.5 -52.6 -106.1q-24.95 -36.8 -35.45 -78.9q-8.55 -34.1 -2.95 -68.9q2.65 -16.35 20.65 -22.6q33.35 -11.65 59.85 7.7q12.7 11.3 16.05 27.85q1 5.05 4.7 5.15q-45.15 -2.3 -87.25 6.5q-0.55 2.25 -0.05 4.5q-1.35 9.15 -0.95 19.7q1.65 41.75 -1.65 83.1q-2.45 30.65 1.4 59.1q3.3 -23.75 4.5 -49.25q2.65 -56.8 -1.75 -112.7q1.15 -3.75 -1.15 -6.7q-6.7 57.35 -3.55 115q6.95 -24.65 5 -52.2q16.9 0.7 21.4 -16.85q1.65 -6.5 2.45 -13.15q0.95 -7.85 -0.1 -15.65q-1.7 -12.9 -11.9 -20.9q-4.05 -3.25 -8.85 -5q18.75 12.85 13.55 35.9q-3.5 15.7 -19.35 20.2q-2.85 -15 -19.6 -12.1q18.5 9 24.85 27.6q-8.8 8.4 -20.75 5.5q19.35 -21 -4 -43q-5.1 -4.85 -11.5 -8q-11.7 19.3 -19.7 40.4q-6.55 17.35 -15.15 33.8q-0.75 1.4 -1.2 3q-7 36.55 -7.55 74.85q-0.6 39.6 1.95 78.95q0.35 5 2.1 9.65q2.05 26.75 8.1 52.75q4.65 19.75 11.65 38.9q2.45 -2.6 1.6 -6.1q-10.55 -44.2 -20.1 -88.6q-4.75 13.85 -6.75 28.45q-1.3 9.65 -0.45 16.05q4.7 -7.85 7.5 -16.4q3.85 -11.9 3.25 -24.65q-7.9 26.3 -2.5 55.45q-0.95 -0.15 -1 0.75q-4.25 10.1 -6.05 22.25q-0.4 1.5 -0.4 3q-5 29.5 -10.35 59q-5.3 29.15 -11.55 58.05q-3.5 16.15 1.9 29.4q4.3 -4.25 5.15 -10.8q7.8 -58.45 17.45 -116.55q31.4 4.05 62.75 1.95q5.35 58.2 16.25 115.6q3.05 15.85 8.55 28.25q3.65 -6 2.8 -13.5q-2.45 -20.9 -6.15 -41.55q-9.05 -50.75 -16.85 -101.7q0.95 -4.1 -1.2 -7.75q-8.75 -56.75 -24.55 -111.45q-3.7 32.1 -1.55 64.5q9.45 1.55 18.85 -0.1q4.15 -27.1 3 -54.35q-3.65 3.25 -4 8.75q-3.4 0.3 -0.75 2q1 2.4 0.5 5.35q-9.95 58.3 -17.8 116.95q-7.8 58.55 -16.2 116.95q-8.25 57.5 -12.05 114.25q-2.85 -29.25 -3.85 -58.6q-0.45 -13.25 -7.2 -20.15q-3 24.9 -1.9 52.25q1.7 44.25 -2.25 87.65q-5.25 57.75 -11.35 114.8q-2.25 -28.3 -3.9 -56.85q-3.4 -58.6 -7.2 -117.2q-3.85 -58.7 -9.8 -116.95q-6 -58.05 -10.1 -116.25q-1.55 0.7 -1.6 2.25q-1.7 59.1 4.6 117.8q6.3 58.45 9.85 117q3.55 58.7 8.9 116.95q5.35 57.75 5.4 116.2q0.05 16.95 6.6 28.25q3.25 -5.5 4.25 -12q6.5 -41.75 11.55 -83.8q6.9 -57.1 5.45 -115.65q4.95 41.3 8.95 82.9q5.6 58.05 10 116.35q1.05 13.6 8.25 20.2q2.95 -7.15 3.6 -14.9q4.1 -51.1 10.4 -101.95q7.25 -58.65 15.65 -117.1q8.4 -58.45 17.7 -116.75q9.35 -58.4 20.9 -116.35q4.5 -22.75 1 -43.65q-0.5 0 -0.75 0.25q-3.85 40.6 -3.75 80.8q0 4 1.55 7.8q5.05 29.4 17.75 55.3q-3.7 -29.4 -16.15 -56.25q8.95 -6.3 11 -17.15q1.2 -6.4 0.9 -13.05q-0.2 -4.75 -2.8 -8.85q1.7 -10.7 1.25 -20.45q6.8 -16.35 9.65 -33.85q-1.55 16.3 -16 23.15q8.1 -3.4 15.95 0.25q-8.65 16.4 -11.35 34.5q-6.75 45.25 8.25 86.95q1.45 3.95 4.25 6.65q28 27.25 63.5 8.2q20 -10.75 28.2 -31.6q22.7 -57.9 -6.8 -113.1q-11.45 -21.45 -34.7 -21.7q-10.4 0.9 -20.55 4.3q-20.9 6.95 -30.8 25.8q35.65 26.55 30.45 73.25q-2.6 23.6 -16.1 42.95q-6.75 9.65 -17.05 15.15q-16.1 8.7 -34.5 7.25q-19.65 -1.25 -27.15 -19.1q-21.4 -50.85 2.9 -100.25q7.2 -14.6 21.8 -21.85q13.15 -6.6 27.9 -6.95q6.05 -2.45 12 0.1q18.35 4.6 18.15 -14.75q-0.05 -3.75 -1.15 -7.4<g id="3299" transform="matrix(1, 0, 0, 1, -13.7, 0)">
<path style="fill:#000000;fill-opacity:1" d="M527.5,74.6Q524.15 58.05 511.45 46.75Q484.95 27.4 451.6 39.05Q433.6 45.3 430.95 61.65Q425.35 96.45 433.9 130.55Q444.4 172.65 469.35 209.45Q502.95 259.05 521.95 315.55Q539.55 367.8 540.3 423.2Q540.95 469.65 521.85 511Q516 523.6 503.4 530.4Q480.05 543 453.45 542.45Q427 521.4 420.25 487.95Q417 472.15 417.75 456.25Q417.8 454.85 418.95 453.95Q425.45 460.45 426.7 472.4Q430 503.95 453.95 524.7Q488.25 525.9 512.7 503.15Q520.7 495.7 523.85 484.85Q533 453.6 532.25 420.45Q531 365.55 512.9 313.75Q501.05 279.75 482.45 248.9Q455.05 203.4 434.25 155.1Q429.1 143.15 426.6 130.35Q417.4 83.7 433.6 40.75Q434.3 38.9 436.25 37.3Q448.7 27.55 463.95 24Q504.7 18.05 525.1 50.55Q533.85 64.5 532.2 79.75Q528.5 79.65 527.5 74.6M386.35,23.45L385.95 24.25L348.7 26.3Q353.1 82.2 350.45 139Q349.25 164.5 345.95 188.25Q342.1 159.8 344.55 129.15Q347.85 87.8 346.2 46.05Q345.8 35.5 347.15 26.35L297.7 28.5Q297.2 26.25 297.75 24L297.95 23.25Q340.05 14.45 385.2 16.75Q387.5 19.7 386.35 23.45M360.95,183.35L363.95 182.25Q368.75 184 372.8 187.25Q383 195.25 384.7 208.15Q385.75 215.95 384.8 223.8Q384 230.45 382.35 236.95Q377.85 254.5 360.95 253.8Q362.9 281.35 355.95 306Q352.8 248.35 359.5 191L358.9 184.55L360.2 182.5L360.45 183.2L360.95 183.35M360.6,190.95L361.15 246.1Q377 241.6 380.5 225.9Q385.7 202.85 366.95 190L360.6 190.95M325.7,255.5L308.45 255.25Q314.85 258.4 319.95 263.25Q343.3 285.25 323.95 306.25L307.45 307.25L301.7 300.5L302.4 292L308.2 298Q320.15 300.9 328.95 292.5L330.45 288.75Q324.1 270.15 305.6 261.15L305.95 248L307.95 246L310.1 245.65Q326.85 242.75 329.7 257.75L325.7 255.5M394.6,314.55L367.95 380.75Q377.5 425.15 388.05 469.35Q388.9 472.85 386.45 475.45Q379.45 456.3 374.8 436.55Q368.75 410.55 366.7 383.8L358.3 404.7L356.95 401.6L352.7 476.2Q350.95 471.55 350.6 466.55Q348.05 427.2 348.65 387.6Q349.2 349.3 356.2 312.75L357.15 390.2Q357.6 388.6 358.35 387.2Q366.95 370.75 373.5 353.4Q381.5 332.3 393.2 313L394.6 314.55M339.1,384.05Q339.7 396.8 335.85 408.7Q333.05 417.25 328.35 425.1L314.45 392.2L306.1 423.45Q305.25 417.05 306.55 407.4Q308.55 392.8 313.3 378.95L327.7 413.7L338.95 381.2L339.1 384.05M338.85,368.15L309.7 366.7Q304.3 337.55 312.2 311.25L312.7 356.95L339.45 361.05L338.85 368.15M240.45,18.25L238.3 19.3Q254.1 74 262.85 130.75L274 204L275.05 210.95Q277.2 214.6 276.25 218.7Q284.05 269.65 293.1 320.4Q296.8 341.05 299.25 361.95Q300.1 369.45 296.45 375.45Q290.95 363.05 287.9 347.2Q277 289.8 271.65 231.6L270.75 222.3Q239.4 224.4 208 220.35L205.55 235.1Q195.9 293.2 188.1 351.65Q187.25 358.2 182.95 362.45Q177.55 349.2 181.05 333.05Q187.3 304.15 192.6 275Q197.95 245.5 202.95 216Q202.95 214.5 203.35 213L203.55 212.55L212.35 158.1L230.1 41.65Q231.9 29.5 236.15 19.4L236.2 16.25Q236.25 15.35 237.2 15.5L237.85 17.65L237.95 17.5L240.15 17.95L240.45 18.25M211.45,21L211.75 26.65Q212.9 53.9 208.75 81L208.5 46.55L205.8 47.15Q196.4 48.8 186.95 47.25L184.2 80.75Q182.05 48.35 185.75 16.25L187.05 42.75L208.7 39.45L209.95 18.7L211.45 21M168.45,15.25Q171.95 36.15 167.45 58.9Q155.9 116.85 146.55 175.25Q137.25 233.55 128.85 292Q120.45 350.45 113.2 409.1Q106.9 459.95 102.8 511.05Q102.15 518.8 99.2 525.95Q92 519.35 90.95 505.75Q86.55 447.45 80.95 389.4Q76.95 347.8 72 306.5Q73.45 365.05 66.55 422.15Q61.5 464.2 55 505.95Q54 512.45 50.75 517.95Q44.2 506.65 44.15 489.7Q44.1 431.25 38.75 373.5Q33.4 315.25 29.85 256.55Q26.3 198 20 139.55Q13.7 80.85 15.4 21.75Q15.45 20.2 17 19.5L21 77.2Q25.1 135.4 31.1 193.45Q37.05 251.7 40.9 310.4Q44.7 369 48.1 427.6Q49.75 456.15 52 484.45Q58.1 427.4 63.35 369.65Q67.3 326.25 65.6 282Q64.5 254.65 67.5 229.75Q74.25 236.65 74.7 249.9Q75.7 279.25 78.55 308.5L90.1 424.8L97.2 497.45Q101 440.7 109.25 383.2Q117.65 324.8 125.45 266.25Q133.3 207.6 143.25 149.3L163.45 31.6Q163.95 28.65 162.95 26.25Q160.3 24.55 163.7 24.25Q164.05 18.75 167.7 15.5Q167.95 15.25 168.45 15.25M297.55,147.1L302.95 143.75L312.2 145L316.2 147.75Q318.8 151.85 319 156.6Q319.3 163.25 318.1 169.65Q316.05 180.5 307.1 186.8Q319.55 213.65 323.25 243.05Q310.55 217.15 305.5 187.75L298.75 190.3L294.7 242Q293.15 238.2 293.15 234.2Q293.05 194 296.9 153.4L294.9 153.75L297.15 147.4L297.2 146L297.55 147.1M305.05,136.35L287.2 96.5L279.3 134.25L285.2 84.5L303.95 125.75L315.95 82.05Q316.4 91.8 314.7 102.5Q311.85 120 305.05 136.35M313.7,153.25Q305.85 149.6 297.75 153L298.8 183.15L300.7 182.4Q315.15 175.55 316.7 159.25L313.7 153.25M225.4,368.5Q235.55 365.1 245.95 364.2Q269.2 364.45 280.65 385.9Q310.15 441.1 287.45 499Q279.25 519.85 259.25 530.6Q223.75 549.65 195.75 522.4Q192.95 519.7 191.5 515.75Q176.5 474.05 183.25 428.8Q185.95 410.7 194.6 394.3Q204.5 375.45 225.4 368.5M258.7,375.95L249.5 375.5Q234.75 375.85 221.6 382.45Q207 389.7 199.8 404.3Q175.5 453.7 196.9 504.55Q204.4 522.4 224.05 523.65Q242.45 525.1 258.55 516.4Q268.85 510.9 275.6 501.25Q289.1 481.9 291.7 458.3Q296.9 411.6 261.25 385.05L252.7 388.3L258.7 375.95M269.35,210.2L236.9 36.6L209.35 212.1L269.35 210.2M323.2,488.95L319.7 487.05Q313.75 484.5 307.7 486.95L308.45 497.85L320.2 498.7L323.5 494.6L323.2 488.95M314.95,478.7L325.45 483.7Q326.55 487.35 326.6 491.1Q326.8 510.45 308.45 505.85L305.55 529.85L304.1 505.05L299.6 502.9L299.7 497.2L304.6 497.55L306.7 482.2L314.95 478.7" />
</g>
</svg>
