<?xml version="1.0" encoding="utf-8"?>
<svg version="1.1" id="Layer_1"
xmlns="http://www.w3.org/2000/svg"
xmlns:xlink="http://www.w3.org/1999/xlink"


xml:space="preserve">
q-3.55 44.2 -5.5 87.9q-0.1 1.95 0.1 3.8q2.85 27.05 -1.7 54.65q-1.6 9.75 -1.8 19.6q-0.2 8.85 3.65 17q8 -42.65 6.75 -86.35q14.85 41.8 36.7 80.25q3.9 -4.75 3.3 -11.55q11.5 -4.85 19.9 -14.15q5.95 -8.25 7.2 -18.4q0.55 -4.55 0.4 -9q-0.35 -12.05 -5.3 -22.85q-3.75 -8.1 -10.55 -13.95q-3.9 -3.3 -8.3 -5.4q-9.25 -4.35 -19.3 -5.35q29.3 -4.3 47.5 19.5q7.85 15.5 -2.65 28.85q-16.55 21.1 -43.7 26.35q0.3 -37.6 -1.2 -74.8q-3.05 12.6 -5.25 25.55q-9.95 58.2 -24.25 115.75q-4.6 18.5 -5.85 36.6q-5.85 -49.2 -15.2 -98.4q-1.05 -0.15 -1 0.8q-9.05 28.35 -15.75 58.8q-2.55 11.7 -7.4 22.6q-10.15 -58.2 -17.1 -116.45q-5.95 20 -0.95 43.3q12.35 57.9 17.15 116.8q1.15 13.8 5.55 24.6q0.55 4.25 2.5 8q1.35 -2.45 2.2 -5.1q14.9 -47.45 22.5 -94.85q1.2 24.35 5.3 48.95q1.75 10.65 2.8 21.15q1.55 16.2 8.4 27.6q1.1 -0.35 0.95 -1.45q7.1 -12.3 10 -26.35q11.9 -57.95 22.9 -116.2q4.25 -22.5 4.15 -43.7q3.95 36.6 -10.65 68.25q-12.7 8.5 -27.25 2.5q-2.3 -1.85 -5.25 -2.75q-8.9 -19.7 -6.25 -42.05q2.5 -21.15 0.5 -41.2q-8.7 37 -4.85 77.1q1.75 18.05 18.55 22.45q29.7 7.75 36.6 -22.4q5.35 -23.4 6.3 -47.8q0.55 -14.85 -5.85 -23.85q-2.45 4.45 -1.85 9.75<g id="3320" transform="matrix(1, 0, 0, 1, -140.55, 0)">
<path style="fill:#000000;fill-opacity:1" d="M360.5,185.05Q370.55 186.05 379.8 190.4Q384.2 192.5 388.1 195.8Q394.9 201.65 398.65 209.75Q403.6 220.55 403.95 232.6Q404.1 237.05 403.55 241.6Q402.3 251.75 396.35 260L394.25 262.6Q385.85 271.9 374.35 276.75L412.95 352.45L415.95 353.7L416.45 355.6L416.8 357.5L417 359.4Q417.6 366.2 413.7 370.95L406.65 358.85Q384.8 320.4 369.95 278.6L350.45 283.35Q351.7 327.05 343.7 369.7Q339.85 361.55 340.05 352.7Q340.25 342.85 341.85 333.1Q346.4 305.5 343.55 278.45Q343.35 276.6 343.45 274.65Q345.4 230.95 348.95 186.75L349.55 187.95L357.95 184.75L360.5 185.05M349.4,196.65Q350.9 233.85 350.6 271.45Q377.75 266.2 394.3 245.1Q404.8 231.75 396.95 216.25Q378.75 192.45 349.45 196.75L349.4 196.65M249.55,183.15L250.2 183Q250.3 204.2 246.05 226.7Q235.05 284.95 223.15 342.9Q220.25 356.95 213.15 369.25L212.9 369.5Q213.05 370.6 211.95 370.95Q205.1 359.55 203.55 343.35Q202.5 332.85 200.75 322.2Q196.65 297.6 195.45 273.25Q187.85 320.65 172.95 368.1Q172.1 370.75 170.75 373.2Q168.8 369.45 168.25 365.2Q163.85 354.4 162.7 340.6Q157.9 281.7 145.55 223.8Q140.55 200.5 146.5 180.5Q153.45 238.75 163.6 296.95L171.15 342.3L171.65 345.8L171.95 345.05Q176.8 334.15 179.35 322.45Q186.05 292 195.1 263.65L195.05 261.5Q195 260.55 196.05 260.7L198.2 254.25L196.9 264Q206.25 313.2 212.1 362.4Q213.35 344.3 217.95 325.8Q232.25 268.25 242.2 210.05Q244.4 197.1 247.45 184.5L249.55 183.15M311.95,272.2Q318.35 281.2 317.8 296.05Q316.85 320.45 311.5 343.85Q304.6 374 274.9 366.25Q258.1 361.85 256.35 343.8Q252.5 303.7 261.2 266.7Q263.2 286.75 260.7 307.9Q258.05 330.25 266.95 349.95Q269.9 350.85 272.2 352.7Q286.75 358.7 299.45 350.2Q314.05 318.55 310.1 281.95Q309.5 276.65 311.95 272.2" />
</g>
</svg>
