<?xml version="1.0" encoding="utf-8"?>
<svg version="1.1" id="Layer_1"
xmlns="http://www.w3.org/2000/svg"
xmlns:xlink="http://www.w3.org/1999/xlink"


xml:space="preserve">
q2.1 -1.25 2.7 -3.65q0.6 -2.6 0.3 -5.35q-0.3 -3.25 -2.05 -5.95q-20.8 -3.45 -43 -0.05q6.5 -56.5 4.3 -113.5q-9.5 32.1 -6.8 66.85q2.9 36.95 1.15 74.15q-4.7 20.5 0.45 40.45q0.4 1.6 1.15 3.2q-8.55 49.15 -18.5 98.25q-5.8 28.65 -13.3 56.85q-3.65 -37.3 -11.15 -74.3q-8.6 27 -15.75 55.8q-4.1 16.55 -6.05 33q-2.75 -33.9 -8.05 -68.05q-3.4 -21.85 -6.35 -43.75q-4.2 -30.9 -17.05 -57q-3.9 4.35 -1.5 10.3q7.05 17.5 10.5 36.15q10.65 57.75 14.45 116.55q1 15.25 6.4 27.05q6.4 -9.2 9.1 -23.3q5.9 -30.95 10.75 -61.8q6.25 33.85 8.15 68.35q0.7 13.45 8.4 19.4q2.8 -4.45 3.7 -9.7q9.7 -58.5 21.4 -116.35q6 -29.7 5.2 -58.5q-0.75 0.1 -0.75 0.35q0.75 28.45 -0.8 56.95q-1.8 33.55 31.35 33.3q17.25 -4.45 24.35 -20.25q12.45 -27.8 11.35 -59.3q-0.5 -14.25 -6.45 -23.95q-3.8 6.65 -2.95 15.05q2.3 22.2 -1.9 43.95q-6.85 35.3 -43.65 26.25q-6.65 -9.9 -5.85 -22.55q2.15 -33.65 -1.65 -65.9q-4.05 6.75 -3.8 16.45<g id="3323" transform="matrix(1, 0, 0, 1, -137.1, 0)">
<path style="fill:#000000;fill-opacity:1" d="M348,364.45Q342.85 344.5 347.55 324Q349.3 286.8 346.4 249.85Q343.7 215.1 353.2 183L355.7 241.85Q357.9 298.85 351.4 355.35L378.15 352.95Q400.35 349.55 421.15 353Q422.9 355.7 423.2 358.95Q423.5 361.7 422.9 364.3Q422.3 366.7 420.2 367.95L349.15 367.65Q348.4 366.05 348 364.45M239.45,182.75Q240.25 211.55 234.25 241.25Q222.55 299.1 212.85 357.6Q211.95 362.85 209.15 367.3L209.35 371.5L209.2 372.2Q201.5 366.25 200.8 352.8Q198.9 318.3 192.65 284.45Q187.8 315.3 181.9 346.25Q179.2 360.35 172.8 369.55L171.75 370.95L170.75 372.2L170.85 369.8Q165.45 358 164.45 342.75Q160.65 283.95 150 226.2Q146.55 207.55 139.5 190.05Q137.1 184.1 141 179.75Q153.85 205.85 158.05 236.75Q161 258.65 164.4 280.5Q169.7 314.65 172.45 348.55Q174.4 332.1 178.5 315.55Q185.65 286.75 194.25 259.75L195.45 261.25L196 262L195.75 263.9Q203.25 300.9 206.9 338.2Q214.4 310 220.2 281.35Q230.15 232.25 238.7 183.1Q238.7 182.85 239.45 182.75M262.2,263Q266 295.25 263.85 328.9Q263.05 341.55 269.7 351.45Q306.5 360.5 313.35 325.2Q317.55 303.45 315.25 281.25Q314.4 272.85 318.2 266.2Q324.15 275.9 324.65 290.15Q325.75 321.65 313.3 349.45Q306.2 365.25 288.95 369.7Q255.8 369.95 257.6 336.4Q259.15 307.9 258.4 279.45Q258.15 269.75 262.2 263" />
</g>
</svg>
