<?xml version="1.0" encoding="utf-8"?>
<svg version="1.1" id="Layer_1"
xmlns="http://www.w3.org/2000/svg"
xmlns:xlink="http://www.w3.org/1999/xlink"


xml:space="preserve">
q4.1 -6.2 0 -12.5q-33.35 5.7 -67.05 5.05q-4.25 6.95 -2.55 24.5q1.65 16.6 1.9 33.4q-0.1 19.45 -2.6 38.85q-2.65 20.65 -0.7 41.25q0.45 4.95 2.3 9.6q11.45 -47.2 7.4 -99.35q4.5 -5.8 0.4 -11.9q1.4 -33.75 -4.35 -66.95q26.1 7 52.65 2q-5.75 28.15 -12.95 56.05q-12.7 49.4 -18.2 99.7q-10.75 30.85 -15 64.2q-1.45 11.45 -5.4 22.05q-1.9 -28.7 -7.65 -57.15q-11.65 -57.75 -26.35 -114.5q-0.65 -0.2 -0.65 0.25q-0.15 26.8 6.8 54q14.55 57 20.1 115.4q1.15 12.1 5.05 21.95q0.75 4.75 2.95 9.1q11.1 -44.45 18.1 -89.95q0.25 7.95 1.65 16.3q3.65 21.25 5.2 42.8q1.1 15.55 7.55 26.9q4.25 -15.4 7.2 -31.4q10.7 -57.95 24.75 -115.25q5.5 -22.55 4.55 -43.8q-4.85 7.4 -6.85 17.35q-3.25 35.8 9.75 66.85q5.6 2.95 11.8 3.7q35.9 4.25 40.75 -31.85q2.75 -20.45 4.4 -41.2q1.25 -15.1 -6.95 -23.15q-3 14.2 -1.8 30.05q2.1 27.9 -13.2 49.45q-16.6 5.7 -32.5 -0.75q-3.15 -5.15 -3.5 -11.3q-3.55 13.95 -5 30.1<g id="3311" transform="matrix(1, 0, 0, 1, -140.45, 0)">
<path style="fill:#000000;fill-opacity:1" d="M412.8,193.25Q386.25 198.25 360.15 191.25Q365.9 224.45 364.5 258.2L398.85 254.85L399.1 255.05Q403.2 261.15 398.7 266.95L364.35 268.85Q368.4 321 356.95 368.2Q355.1 363.55 354.65 358.6Q352.7 338 355.35 317.35Q357.85 297.95 357.95 278.5L357.75 240.7Q357.5 223.9 355.85 207.3Q354.15 189.75 358.4 182.8Q392.1 183.45 425.45 177.75Q429.55 184.05 425.45 190.25L421.25 191.4L412.8 193.25M247.2,178.25Q248.15 199.5 242.65 222.05Q228.6 279.35 217.9 337.3Q214.95 353.3 210.7 368.7L209.5 368.8L208.45 370.7Q202 359.35 200.9 343.8Q199.35 322.25 195.7 301Q194.3 292.65 194.05 284.7Q187.05 330.2 175.95 374.65L175.5 375.45Q173.3 371.1 172.55 366.35Q168.65 356.5 167.5 344.4Q161.95 286 147.4 229Q140.45 201.8 140.6 175Q140.6 174.55 141.25 174.75Q155.95 231.5 167.6 289.25Q173.35 317.7 175.25 346.4Q179.2 335.8 180.65 324.35Q184.9 291 195.65 260.15L196.25 260L196.95 261.5L197.2 262.25L196.9 264.6L209.2 351.35Q214.7 301.05 227.4 251.65Q234.6 223.75 240.35 195.6Q242.35 185.65 247.2 178.25M262.2,262.75L265.95 334.65Q266.3 340.8 269.45 345.95Q285.35 352.4 301.95 346.7Q317.25 325.15 315.15 297.25Q313.95 281.4 316.95 267.2Q325.15 275.25 323.9 290.35Q322.25 311.1 319.5 331.55Q314.65 367.65 278.75 363.4Q272.55 362.65 266.95 359.7Q253.95 328.65 257.2 292.85Q258.65 276.7 262.2 262.75" />
</g>
</svg>
