<?xml version="1.0" encoding="utf-8"?>
<svg version="1.1" id="Layer_1"
xmlns="http://www.w3.org/2000/svg"
xmlns:xlink="http://www.w3.org/1999/xlink"


xml:space="preserve">
q-6.05 86.35 -2.15 172.05q7.75 -37.85 6.55 -79.9q18.9 2.4 34.75 -8.6q4.5 -3.15 8.35 -7.05q5.65 -7.6 7.85 -16.7q1.3 -5.35 1.55 -11q0.45 -9.8 -1.5 -19.45q-4.25 -20.6 -22.85 -30q-15.65 -8 -33.05 -5q-8.35 21.6 -30.7 26.6q-8.1 1.85 -16.3 0.85q23.05 -3.7 39.8 11.5q17.3 15.65 9.05 37.1q-9.55 58.15 -22.2 115.55q-3.2 14.55 -8 28.7q-0.6 1.8 -1.05 3.55q-9.1 -35.05 -14.7 -70.95q0.25 -6.9 -0.55 -13.25q-6.35 18.05 -9.2 38.85q-2 14.75 -6.35 28.8q-2.9 9.3 -3.65 18.25q-3.45 -27.4 -9.05 -55q-11.8 -58.05 -26.45 -114.65q-5.15 4.25 -3.25 12.25q13.55 57.5 24.9 115.5q2.85 14.5 4.45 29.15q1.7 16.2 9.55 27.8q3.1 -1.15 3.95 -4.75q8.55 -37.1 15.8 -74.75q2.6 16 10.9 26.55q1.65 -4.15 1.65 -8.55q1.9 -5.75 3.25 -11.75q13.4 -57.45 22.75 -115.65q2.35 -14.65 7.05 -28.6q4.35 -12.95 -1.05 -21.85q-4.1 4.5 -5.25 11.4q0.05 16.85 -1.3 33.65q-2 24.8 15.7 39.1q23 -9.85 27.65 -33.95q3.15 -16.4 4.1 -33.45q1.1 -19.4 -6.25 -33.85q-3.45 15.1 -0.75 32.15q5.8 36.8 -25 54.1q-28.2 5.35 -27 -21.5q1.5 -34 -1.25 -66.7q-4.5 13.45 -4.4 30.7<g id="3308" transform="matrix(1, 0, 0, 1, -139.35, 0)">
<path style="fill:#000000;fill-opacity:1" d="M350.95,184.05Q368.35 181.05 384 189.05Q402.6 198.45 406.85 219.05Q408.8 228.7 408.35 238.5Q408.1 244.15 406.8 249.5Q404.6 258.6 398.95 266.2L397.6 267.85L396.25 269.4L394.85 270.95Q391 274.85 386.5 278Q370.65 289 351.75 286.6Q352.95 328.65 345.2 366.5Q341.3 280.8 347.35 194.45L346.95 185.75L348.65 184.65L349.2 181L349.4 184.4L350.95 184.05M389.8,206.9Q373.05 191.7 350 195.4L351.85 271.45Q360.05 272.45 368.15 270.6Q390.5 265.6 398.85 244Q407.1 222.55 389.8 206.9M253.95,182Q259.35 190.9 255 203.85Q250.3 217.8 247.95 232.45Q238.6 290.65 225.2 348.1Q223.85 354.1 221.95 359.85Q221.95 364.25 220.3 368.4L219.7 369.2Q211.4 358.65 208.8 342.65L200.25 288.95Q193 326.6 184.45 363.7Q183.6 367.3 180.5 368.45L180.15 365.95Q172.3 354.35 170.6 338.15Q169 323.5 166.15 309Q154.8 251 141.25 193.5Q139.35 185.5 144.5 181.25Q159.15 237.85 170.95 295.9Q176.55 323.5 180 350.9Q180.75 341.95 183.65 332.65Q188 318.6 190 303.85Q192.85 283.05 199.2 265L200.35 261.7L202.2 257Q203 263.35 202.75 270.25Q208.35 306.15 217.45 341.2Q217.9 339.45 218.5 337.65Q223.3 323.5 226.5 308.95Q239.15 251.55 248.7 193.4Q249.85 186.5 253.95 182M260.45,265.75Q263.2 298.45 261.7 332.45Q260.5 359.3 288.7 353.95Q319.5 336.65 313.7 299.85Q311 282.8 314.45 267.7Q321.8 282.15 320.7 301.55Q319.75 318.6 316.6 335Q311.95 359.1 288.95 368.95L270.45 369.2Q252.75 354.9 254.75 330.1Q256.1 313.3 256.05 296.45Q255.95 279.2 260.45 265.75" />
</g>
</svg>
