<?xml version="1.0" encoding="utf-8"?>
<svg version="1.1" id="Layer_1"
xmlns="http://www.w3.org/2000/svg"
xmlns:xlink="http://www.w3.org/1999/xlink"


xml:space="preserve">
q-5.35 5.65 -6.75 15q-9 58.6 -20.05 116.8q-3.1 16.4 3.15 29.25q4.3 -4.45 4.9 -11.7q3.4 -42.4 10.7 -84.25q10.15 -58.3 17.85 -116.85q1.45 -10.85 4.15 -21.3q4.75 34.85 8.5 69.75q3.3 30.7 11.75 58.1q7.1 -14.55 9.3 -32q5.55 -43.8 16.65 -86.55q2.6 -10 3.8 -19.7q2.5 19.45 5.85 38.75q7.6 43.55 14.7 87.25q9.6 59.05 13.95 114.95q-2.7 -1.45 -1.75 1.45q3.7 10.95 10 18.3q1.7 -1.05 1.55 -2.9q-3.75 -43.7 -10.05 -87.8q-8.4 -58.6 -21.1 -116q-1.1 1.2 -1.9 2.6q-14 35.6 -19.3 75q-3.8 28.35 -11.45 55.8q-8 -58.7 -14.9 -117.15q-0.95 -0.2 -1.35 0.3q-7 10.65 -9.05 24.4q-8.2 55 -19.25 109.55q-2 4.25 -0.45 8.05q-8.75 42.5 -19.75 84.5q-7.65 29.4 -5.8 58.15q3.2 1.1 3.9 -2.35q11.55 -57.6 23.55 -115.35q19.2 2.45 37.6 0.7q6.1 58.25 11.8 116.2q-0.9 -4.85 -3.45 -7.1q2.05 14.1 9.1 22.1q1.15 -0.85 1.25 -2.25q1.45 -23.5 -1.5 -47.35q-5.8 -46.75 -12.1 -93.45q3.25 -6.85 -1.15 -13.15q7.95 -41.3 14.65 -82.85q2.35 -14.65 7.15 -28.55q0.25 33.35 5.65 66.55q3.4 21.2 6 42.55q-12.45 48.65 -18 98.95q-6.4 58.5 -11.9 117.15q-1.3 13.75 -4.35 27.05q-3.35 -17.95 -8.1 -35.85q-15.25 -57.35 -27.6 -114.45q-1.3 3.85 -1.95 7.9q-0.5 0 -0.5 0.15q-18 55.7 -27.4 115.05q-2.3 14.65 -6.3 28.8q-1.15 4.05 -1.65 7.85q-1.1 -27.7 -4 -55.55q-4.65 -44.25 -11.1 -88.2q-8.55 -58.4 -16 -116.35q-4.85 6.05 -3.7 16.05q5.95 50.85 13.6 101.35q6.6 43.8 9.9 88.25q2.2 29.3 3.35 58.65q0.55 13.45 7.35 20.65q1.2 -1.25 1.15 -3q0.95 4.3 3 8.2q6.35 -13.5 8.4 -29.3q5.65 -43.4 16.3 -86q5.2 -20.7 6.9 -40.9q0.2 7.1 2.25 14.65q4.75 17.55 8.15 35.4q11.25 58.85 29.95 114.15q2.65 -1.15 2.25 -4.15q5.3 -18.45 6.7 -38.4q4.25 -59.15 11.25 -117.9q3.5 -29.3 9.05 -58.15q5.75 -30 7.2 -58.8q-3.15 0.9 -4.05 4.4q-0.7 59.95 -3.9 119.2q-1.65 30.05 -5.3 59.8q-2.9 23.4 2.1 44.45q1 -0.35 1.1 -0.85q7.75 -52.8 9.25 -107.1q22.45 -1.9 44.7 -0.7q-0.95 11.8 -2.3 23.6q-6.75 59.4 -8.25 118.65q1.1 1.85 3.25 1.75q0.9 -0.6 1 -1.35q4.95 -32.65 7.9 -65.8q2.65 -29.65 4.2 -59.4q3.05 -59.45 5.05 -119.15q0.75 -23 -0.9 -44.25q-0.5 0.1 -0.55 0.35q-8.25 39.25 -7.5 80.9q0.45 25.35 -0.95 50.45q-17.45 0.7 -35.05 -0.5q-4.6 -0.25 -8.5 1.35q0.6 -30.55 -1.5 -59.25q-5.5 13.4 -5 30q0.55 16.65 0.35 33<g id="3327" transform="matrix(1, 0, 0, 1, -39.65, 0)">
<path style="fill:#000000;fill-opacity:1" d="M403.75,137.05L421.85 251.2L423.45 263.05Q431.1 235.6 434.9 207.25Q440.2 167.85 454.2 132.25L454.55 140.1Q455.35 138.7 456.45 137.5Q469.15 194.9 477.55 253.5L487.95 326.5Q494.25 370.6 498 414.3Q498.15 416.15 496.45 417.2Q490.15 409.85 486.45 398.9Q485.5 396 488.2 397.45Q483.85 341.55 474.25 282.5Q467.15 238.8 459.55 195.25Q456.2 175.95 453.7 156.5Q452.5 166.2 449.9 176.2Q438.8 218.95 433.25 262.75Q431.05 280.2 423.95 294.75L423.7 294.1L421.95 295.5Q413.5 268.1 410.2 237.4Q406.45 202.5 401.7 167.65L399.55 177.1Q396.85 187.55 395.4 198.4Q387.7 256.95 377.55 315.25Q370.25 357.1 366.85 399.5Q366.25 406.75 361.95 411.2Q355.7 398.35 358.8 381.95Q369.85 323.75 378.85 265.15L396.7 148.25Q398.1 138.9 403.45 133.25L403.75 137.05M336.85,259.55L337.45 259.5Q341.85 265.8 338.6 272.65Q344.9 319.35 350.7 366.1Q353.65 389.95 352.2 413.45Q352.1 414.85 350.95 415.7Q343.9 407.7 341.85 393.6L340.45 385.95Q343 388.2 343.9 393.05Q338.2 335.1 332.1 276.85L331.95 275.15Q313.55 276.9 294.35 274.45L289.9 296.25Q277.9 354 266.35 411.6Q265.65 415.05 262.45 413.95Q260.6 385.2 268.25 355.8Q279.25 313.8 288 271.3Q286.45 267.5 288.45 263.25L289.65 263.2Q300.7 208.65 308.9 153.65Q310.95 139.9 317.95 129.25L319.1 131.8Q319.5 131.3 320.45 131.5Q327.35 189.95 335.35 248.65L336.85 259.55M324.2,217.6Q318.8 184.4 318.55 151.05L318.45 151.35Q313.65 165.25 311.3 179.9Q304.6 221.45 296.65 262.75L330.2 260.15Q327.6 238.8 324.2 217.6M187.2,127.75Q185.75 156.55 180 186.55Q174.45 215.4 170.95 244.7Q163.95 303.45 159.7 362.6Q158.3 382.55 153 401L153.2 402.8Q153.6 405.8 150.95 406.95Q132.25 351.65 121 292.8Q117.6 274.95 112.85 257.4Q110.8 249.85 110.6 242.75Q108.9 262.95 103.7 283.65Q93.05 326.25 87.4 369.65Q85.35 385.45 79 398.95Q76.95 395.05 76 390.75L76.15 399.2Q76.2 400.95 75 402.2Q68.2 395 67.65 381.55Q66.5 352.2 64.3 322.9Q61 278.45 54.4 234.65Q46.75 184.15 40.8 133.3Q39.65 123.3 44.5 117.25Q51.95 175.2 60.5 233.6Q66.95 277.55 71.6 321.8Q74.5 349.65 75.6 377.35Q76.1 373.55 77.25 369.5Q81.25 355.35 83.55 340.7Q92.95 281.35 110.95 225.65Q110.95 225.5 111.45 225.5L111.25 232.9Q111.9 228.85 113.2 225Q125.55 282.1 140.8 339.45Q145.55 357.35 148.9 375.3Q151.95 362 153.25 348.25Q158.75 289.6 165.15 231.1Q170.7 180.8 183.15 132.15Q184.05 128.65 187.2 127.75M201.2,153Q200.7 136.4 206.2 123Q208.3 151.7 207.7 182.25L205.95 260.45Q209.85 258.85 214.45 259.1L214.95 259Q232.55 260.2 250 259.5L251.2 259.7Q252.6 234.6 252.15 209.25Q251.4 167.6 259.65 128.35Q259.7 128.1 260.2 128Q261.85 149.25 261.1 172.25Q259.1 231.95 256.05 291.4Q254.5 321.15 251.85 350.8Q248.9 383.95 243.95 416.6Q243.85 417.35 242.95 417.95Q240.8 418.05 239.7 416.2Q241.2 356.95 247.95 297.55Q249.3 285.75 250.25 273.95Q228 272.75 205.55 274.65L204.8 301.5Q203.3 355.8 195.55 408.6Q195.45 409.1 194.45 409.45Q189.45 388.4 192.35 365Q196 335.25 197.65 305.2Q200.85 245.95 201.55 186Q201.75 169.65 201.2 153" />
</g>
</svg>
