<?xml version="1.0" encoding="utf-8"?>
<svg version="1.1" id="Layer_1"
xmlns="http://www.w3.org/2000/svg"
xmlns:xlink="http://www.w3.org/1999/xlink"


xml:space="preserve">
q-0.85 0.3 -1.5 1.35q-5.5 8.8 -8.75 18.9q-5.2 8.55 -9.5 18.1q-24.4 54.35 -49.85 107.3q-6.6 13.8 -15.95 26.05q-3.95 5.2 -5.65 10.25q1.2 -33.15 1.35 -66.45q0.3 -60.1 -4.9 -118.5q-0.5 0.1 -0.5 0.25q-2.4 40.35 -1.2 81.75q1.75 59.55 -1.2 118.5q-3 59.65 -7.55 119.15q-1.3 17.4 4.95 29.05q0.65 -0.75 0.65 -1.5q2.3 -54.8 5.75 -109.5q1.25 -19.7 2.1 -39.45q17.2 -28.75 31.65 -59.15q6.55 26.2 15.75 51.8q19.8 54.9 41.3 109.2q12.15 30.75 31.3 54.6q3.85 -8.7 -1.1 -17.2q-27 -43.6 -44.5 -94.25q-18.95 -54.65 -41.3 -107.7q23.35 -54.55 50.65 -106.4q1.1 -2.85 -0.65 -5.3q-0.5 47.8 -2.2 95.8q-21.1 -55.1 -44.05 -109.55q-0.95 -0.15 -0.85 0.65q3.05 22.15 12.05 44.25q9.35 22.95 17.9 46.1q7.8 21 11.85 42.75q2.85 15.15 8.3 26.75q1.65 -9.5 1.4 -18.95q2.35 -8.85 2.4 -18.8q0.2 -60.05 -2.05 -118.5q-3.75 4.55 -3.8 12q4.95 48.8 12.95 97.75q7.3 44.8 16.6 89.1q-25.45 0.15 -49.35 5.9q5.45 -36.95 9.4 -74.15q3.15 -29.55 7.2 -59q4.1 -29.95 1.25 -58.75q-5.25 23.4 -7.6 49.4q-5.25 57.9 -13.55 115.4q-1.05 3.75 0.95 6.75q-6.75 40.4 -15.45 80.4q-3.25 14.95 -7.95 29.45q-6.2 19.15 -3.4 36.6q18.3 -55.05 28.45 -113.65q12.95 57.65 20.55 116.35q2.2 16.95 10.75 28.15q1.35 -1.55 1.05 -3.6q-3.8 -25.55 -8.2 -51.35q-6.2 -36.3 -14.4 -72.2q-13.15 -57.55 -22.1 -115.9q-8.95 -58.35 -21.85 -115.4q-1.1 0 -1.05 0.9q-3.45 16.4 -4 33.65q-2 59.9 0.2 118.55q7 -7 2.75 -14.25q-0.55 -10.15 0 -20.05q3.2 -60.05 2 -118.45q-0.8 -0.2 -0.95 0.55q-8.05 44.95 -13.75 91.4q-7.15 58.6 -15.95 117q-8.85 58.65 -18.05 116.2q-3.8 -19.05 -7.1 -38.2q-10.15 -58.05 -13.95 -117.15q-1.1 -17.05 -8.9 -28.1q-2.75 33.05 -6.05 66.65q-5.85 58.85 -18.7 116.55q-0.85 -0.75 -0.95 -1.95q-5 -58.4 -8.6 -117q-3.65 -58.8 -9.7 -117.05q-3 -29.2 -5.15 -58.6q-1.15 -15.75 -5.35 -28.35q-3.75 16.1 -1.6 33.1q7.25 58.2 11.45 116.95q4.15 58.55 9.25 116.9q2.55 29.2 3.35 58.5q0.4 13.95 8.3 20.25q5.35 -19.35 9.05 -39.15q10.85 -58.05 17.7 -116.8q3.7 39.9 10.05 79.3q4.65 29.25 8.75 58.7q1.85 13.25 8.65 20.7q9.15 -27.7 12.9 -57.55q7.4 -58.65 15.95 -117.15q8.5 -58.45 17.45 -116.8q4.65 -30.25 1.7 -58.7q-0.75 0.1 -0.75 0.35q-3.4 18.65 -2.35 40.5q1.05 21.6 -0.35 42.8q-3.9 59.4 -5.55 118.4q0.3 1.75 2 2q4.35 -11.75 4.75 -26q1 -34.1 2.55 -68.1q-0.6 51.65 -1.8 102.95q0.3 1.75 2 2q4.65 -9.8 5.1 -22.15q1.35 -33.2 2.05 -66.8q1.3 -59.8 -2.9 -118.5q-3.6 42.9 -4 87q-15.7 3.1 -30.3 9.85q1 -20.8 2.25 -41.6q1.8 -30.6 -3.7 -59.25<g id="3340" transform="matrix(1, 0, 0, 1, -22.75, 0)">
<path style="fill:#000000;fill-opacity:1" d="M482.15,80.7L482.95 81.25Q484.7 83.7 483.6 86.55L483.2 88Q455.9 139.85 432.55 194.4L423.15 215.5Q445.5 268.55 464.45 323.2Q481.95 373.85 508.95 417.45Q513.9 425.95 510.05 434.65L509.45 435.45Q490.3 411.6 478.15 380.85Q456.65 326.55 436.85 271.65Q427.65 246.05 421.1 219.85Q406.65 250.25 389.45 279L388.2 275.5Q387.35 295.25 386.1 314.95Q382.65 369.65 380.35 424.45Q380.35 425.2 379.7 425.95Q373.45 414.3 374.75 396.9Q379.3 337.4 382.3 277.75Q385.25 218.8 383.5 159.25Q382.3 117.85 384.7 77.5Q384.7 77.35 385.2 77.25Q390.4 135.65 390.1 195.75Q389.95 229.05 388.75 262.2Q390.45 257.15 394.4 251.95Q403.75 239.7 410.35 225.9Q435.8 172.95 460.2 118.6Q464.5 109.05 469.7 100.5Q472.95 90.4 478.45 81.6Q479.1 80.55 479.95 80.25L482.15 80.7M353.2,78.25Q355.45 136.7 355.25 196.75Q355.2 206.7 352.85 215.55Q353.1 225 351.45 234.5Q346 222.9 343.15 207.75Q339.1 186 331.3 165Q322.75 141.85 313.4 118.9Q304.4 96.8 301.35 74.65Q301.25 73.85 302.2 74Q325.15 128.45 346.25 183.55L347.2 186.05Q348.9 138.05 349.4 90.25Q349.45 82.8 353.2 78.25M266.2,73.25Q279.1 130.3 288.05 188.65Q297 247 310.15 304.55Q318.35 340.45 324.55 376.75Q328.95 402.55 332.75 428.1Q333.05 430.15 331.7 431.7Q323.15 420.5 320.95 403.55Q313.35 344.85 300.4 287.2L297.3 273.1L243.85 276.85L238.45 309.9Q228.3 368.5 210 423.55L209.45 423.7Q206.65 406.25 212.85 387.1Q217.55 372.6 220.8 357.65Q229.5 317.65 236.25 277.25L235.45 277.25Q233.45 274.25 234.5 270.5L234.7 269.75L237.6 268.95L242.05 239.8Q250.35 182.3 255.6 124.4Q257.95 98.4 263.2 75Q266.05 103.8 261.95 133.75Q257.9 163.2 254.75 192.75Q250.8 229.95 245.35 266.9Q269.25 261.15 294.7 261Q285.4 216.7 278.1 171.9Q270.1 122.95 265.15 74.15Q265.1 73.25 266.2 73.25M301.2,74Q302.4 132.4 299.2 192.45Q298.65 202.35 299.2 212.5Q303.45 219.75 296.45 226.75Q294.25 168.1 296.25 108.2Q296.8 90.95 300.25 74.55Q300.4 73.8 301.2 74M159.45,69.75Q162.4 98.2 157.75 128.45Q148.8 186.8 140.3 245.25Q131.75 303.75 124.35 362.4Q120.6 392.25 111.45 419.95Q104.65 412.5 102.8 399.25Q98.7 369.8 94.05 340.55Q87.7 301.15 84 261.25Q77.15 320 66.3 378.05Q62.6 397.85 57.25 417.2Q49.35 410.9 48.95 396.95Q48.15 367.65 45.6 338.45Q40.5 280.1 36.35 221.55Q32.15 162.8 24.9 104.6Q22.75 87.6 26.5 71.5Q30.7 84.1 31.85 99.85Q34 129.25 37 158.45Q43.05 216.7 46.7 275.5Q50.3 334.1 55.3 392.5Q55.4 393.7 56.25 394.45Q69.1 336.75 74.95 277.9Q78.25 244.3 81 211.25Q88.8 222.3 89.9 239.35Q93.7 298.45 103.85 356.5Q107.15 375.65 110.95 394.7Q120.15 337.15 129 278.5Q137.8 220.1 144.95 161.5Q150.65 115.05 158.7 70.1Q158.7 69.85 159.45 69.75M158.9,275.25Q157.65 296.05 156.65 316.85Q171.25 310.1 186.95 307L188.85 307.35L188.85 303.25Q189.25 259.15 192.85 216.25L193.2 216.25Q197.4 274.95 196.1 334.75Q195.4 368.35 194.05 401.55Q193.6 413.9 188.95 423.7Q187.25 423.45 186.95 421.7Q188.15 370.4 188.75 318.75L156.25 325.6Q154.7 359.6 153.7 393.7Q153.3 407.95 148.95 419.7Q147.25 419.45 146.95 417.7Q148.6 358.7 152.5 299.3Q153.9 278.1 152.85 256.5Q151.8 234.65 155.2 216Q160.7 244.65 158.9 275.25" />
</g>
</svg>
