<?xml version="1.0" encoding="utf-8"?>
<svg version="1.1" id="Layer_1"
xmlns="http://www.w3.org/2000/svg"
xmlns:xlink="http://www.w3.org/1999/xlink"


xml:space="preserve">
q-1.65 9.7 -1.3 20.75q0.45 15.85 0.15 31.5q-1 45.8 -1.55 91.8q-1 3.65 -0.8 7.5q0.1 2.7 1.95 4.45q-0.35 30.15 -2.95 59.9q-2.7 30.5 1.15 59.3q1.35 -3.5 2.35 -7.25q33.25 4.75 62.35 -13.5q3.65 -2.25 4.9 -6.2q16.75 -52.5 -2.1 -105.6q-6.9 -19.5 -23.4 -27.65q10.6 -14.65 13.25 -34q4.85 -35.2 -8 -68.6q-12.65 -32.95 -46 -38.15q-1 0.35 -1.35 1.8q-0.55 2.15 -0.55 4.45q0.05 1.8 1.4 3q25.7 11.25 35.4 38.7q7.8 22.1 5.8 45.15q-3.7 43.2 -45.95 58.25q2.95 -55.1 -1.2 -109.5q2.25 0.55 4.35 1.45q6.25 -4.4 11.65 -9.7q16.7 9.95 23.85 28.9q7.6 20.1 9.2 41.7q1.6 21.75 -7.4 41.2q-6 12.95 -21.6 16.1q-19.75 4.3 -39.05 6.2q9.3 -1.3 17.15 -6.75q-11.6 24.9 -16 53.2q-9.1 58.7 -16.5 117.75q-7.25 58.1 -10.25 116.3q0.3 1.7 2 2q6.8 -26.65 8.95 -55.95q4.3 -59.15 12.15 -117.8q7.9 -58.95 21.15 -116.2q-1.1 -0.2 -1.5 0.7q-8.1 18.4 -10.15 39.35q-1.3 13.55 -3.75 27q-3.8 21 -8.15 41.85q-4 20.3 -9.15 40.4q-5.35 20.85 -9.05 42.1q-3.35 19.35 -0.95 36.2q3.5 63.85 17.05 126.15q0.75 3.5 1.9 6.95q-1.8 -35.5 -7.45 -72.4q-1.05 -6.95 -1.75 -13.85q-1.3 -11.95 -3 -23.8q-2.15 -15 -3.15 -30.1q-0.7 12.5 1.3 24.95q9.3 58.25 17.45 116.7q8.2 58.5 15.5 117.1q0.95 7.55 0.5 14.85q-0.95 14.3 8.75 20.35q5.7 -35.8 12.95 -71.45q9.65 -47.55 15.8 -95.3q5.7 17.7 9.3 36.25q11.35 58.05 19.65 116.55q2.35 16.45 9.3 28.6q2.95 -10.3 0.1 -21.15q-8.7 -33.25 -15.1 -66.95q-10.55 -55.65 -22.1 -108.55q-1.15 -1.75 -1.95 -3.8q-5.75 5.85 -2.35 15q-3.95 19.4 -7.35 39.15q-9.65 56.4 -20.6 112.55q-1.65 -14.2 -3.85 -28.5q-9 -58.4 -16 -117.1q-7 -59.05 -19.45 -116.15q-1.5 -0.1 -1.55 1.5<g id="3325" transform="matrix(1, 0, 0, 1, -72, 0)">
<path style="fill:#000000;fill-opacity:1" d="M334.45,107Q333.1 105.8 333.05 104Q333.05 101.7 333.6 99.55Q333.95 98.1 334.95 97.75Q368.3 102.95 380.95 135.9Q393.8 169.3 388.95 204.5Q386.3 223.85 375.7 238.5Q392.2 246.65 399.1 266.15Q417.95 319.25 401.2 371.75Q399.95 375.7 396.3 377.95Q367.2 396.2 333.95 391.45L333.8 390.7Q332.8 394.45 331.45 397.95Q327.6 369.15 330.3 338.65Q332.9 308.9 333.25 278.75L333.4 265.2Q331.55 263.45 331.45 260.75Q331.25 256.9 332.25 253.25L332.45 252.5L333 251.8L333.6 251.3Q334.15 205.3 335.15 159.5Q335.45 143.85 335 128Q334.65 116.95 336.3 107.25L334.45 107M338.95,107.75Q343.1 162.15 340.15 217.25L338.55 251.3Q380.8 236.25 384.5 193.05Q386.5 170 378.7 147.9Q369 120.45 343.3 109.2Q341.2 108.3 338.95 107.75M338,264.95L335.9 378.5Q355.2 376.6 374.95 372.3Q390.55 369.15 396.55 356.2Q405.55 336.75 403.95 315Q402.35 293.4 394.75 273.3Q387.6 254.35 370.9 244.4L366.8 248.5Q361.4 253.8 355.15 258.2Q347.3 263.65 338 264.95M230.2,103.75Q216.95 161 209.05 219.95Q201.2 278.6 196.9 337.75Q194.75 367.05 187.95 393.7Q186.25 393.4 185.95 391.7Q188.95 333.5 196.2 275.4Q203.6 216.35 212.7 157.65Q217.1 129.35 228.7 104.45Q229.1 103.55 230.2 103.75M273.5,106Q274.5 121.1 276.65 136.1Q278.35 147.95 279.65 159.9L288.95 247.8L291.7 277.65L294.25 305.45Q294.95 312.35 296 319.3Q301.65 356.2 303.45 391.7L301.2 385Q300.05 381.55 299.3 378.05Q285.75 315.75 282.25 251.9L249.05 256.35L218.7 393.9Q216.3 377.05 219.65 357.7Q223.35 336.45 228.7 315.6Q233.85 295.5 237.85 275.2L246 234.85Q250.35 214 254.15 193L259.05 166.1Q261.5 152.65 262.8 139.1Q264.85 118.15 272.95 99.75L273.5 106M74.25,89.25Q86.7 146.35 93.7 205.4Q100.7 264.1 109.7 322.5Q111.9 336.8 113.55 351Q124.5 294.85 134.15 238.45Q137.55 218.7 141.5 199.3L140.85 197.5Q137.45 188.35 143.2 182.5Q144 184.55 145.15 186.3L145.45 187L145.65 187.85L147.2 187.5L146.65 192.45Q158.2 245.35 168.75 301Q175.15 334.7 183.85 367.95Q186.7 378.8 183.75 389.1L182.95 389.95Q176 377.8 173.65 361.35Q165.35 302.85 154 244.8Q150.4 226.25 144.7 208.55Q138.55 256.3 128.9 303.85Q121.65 339.5 115.95 375.3L116.55 383.25L116.2 384.7Q106.5 378.65 107.45 364.35Q107.9 357.05 106.95 349.5Q99.65 290.9 91.45 232.4Q83.3 173.95 74 115.7Q72 103.25 72.7 90.75Q72.75 89.15 74.25 89.25M281.2,242.2L270.55 136.2L250.55 248.55L281.2 242.2" />
</g>
</svg>
