<?xml version="1.0" encoding="utf-8"?>
<svg version="1.1" id="Layer_1"
xmlns="http://www.w3.org/2000/svg"
xmlns:xlink="http://www.w3.org/1999/xlink"


xml:space="preserve">
q-7.4 32.35 -17.3 64.05q-8.65 27.75 -17.9 55.3q-9.75 -41.25 -19.9 -82.3q-7.3 -29.6 -15.95 -56.5q-2.9 12.9 1.25 27.75q16.05 57.4 30.35 115q-8.3 24.4 -17.05 48.65q-2.55 7.05 -5.3 13.6q-12.35 29.4 -11 58.45q1 -0.5 1.25 -1.2q14.55 -48.7 31.45 -97.8q11.25 48.65 17.85 98.25q2.2 16.3 10.25 27.4q1.6 -1.5 1.3 -3.65q-3.75 -26.6 -9.15 -53.4q-5.75 -28.4 -12.35 -56.55q14.6 -41.4 25.9 -83.75q5.95 -22.5 6.25 -43.95q-5.55 8.95 -8.2 20.45q-8.25 15.9 -11.3 35.35q-9.15 58.4 -21.65 116.3q-12.3 57.1 -17.05 114.8q10.15 -49.9 19.95 -101.7q18.15 0.6 37.15 -1.65q3.5 51.75 5.95 103.5q0.65 13.8 8.45 20.15q1.2 -19.2 -0.6 -39.15q-3.95 -43.1 -7.2 -86.1q1.95 -4.95 -0.7 -9.3q-4.1 -59.4 -14.9 -116.85q3.55 51.55 8.5 104.15q5.6 59.1 12.9 117.75q3.85 30.85 13.35 57.6q0.65 -0.75 0.65 -1.5q0.9 -0.6 1.05 -1.4q5.95 -27.35 10.5 -55.1q7.4 -44.9 12.7 -89.2q0.4 12.7 2.2 25.45q8.25 58.85 18.2 116.9q1.25 7.25 4.9 11.15q0.8 0.75 1.75 1.3q1.2 -2.1 0.75 -4.35q3.1 -16.05 4.95 -33.1q6.4 -58.85 17.6 -116.95q11.2 -58.55 18.65 -116.45q-14.15 49.25 -23.05 102q-2.35 14.05 -2.65 27.6q-3 -16.85 -5.4 -34q-7.65 -55.3 -16.45 -109.95q-0.6 -0.2 -0.65 0.25q-4.55 9.75 -6.05 21.55q-7.3 58.65 -18.7 116.85q-1 5.3 -1.3 10.35q-0.95 -11.1 -3 -22.35q-10.55 -57.95 -15.05 -116.8q-4.6 -59.65 -15.85 -116.95q-0.85 -0.15 -0.8 0.2<g id="3335" transform="matrix(1, 0, 0, 1, -62.65, 0)">
<path style="fill:#000000;fill-opacity:1" d="M350.2,121.75Q349.9 143.2 343.95 165.7Q332.65 208.05 318.05 249.45L309.65 273.5L314.5 294.35Q321.1 322.5 326.85 350.9Q332.25 377.7 336 404.3Q336.3 406.45 334.7 407.95Q326.65 396.85 324.45 380.55Q317.85 330.95 306.6 282.3L303.15 292.2Q286.25 341.3 271.7 390Q271.45 390.7 270.45 391.2Q269.1 362.15 281.45 332.75Q284.2 326.2 286.75 319.15Q295.5 294.9 303.8 270.5L302.55 265.5Q288.25 207.9 272.2 150.5Q268.05 135.65 270.95 122.75Q279.6 149.65 286.9 179.25Q297.05 220.3 306.8 261.55Q316.05 234 324.7 206.25Q334.6 174.55 342 142.2Q344.65 130.7 350.2 121.75M230.2,117.75Q241 175.2 245.1 234.6L246.7 256.9Q249.35 261.25 247.4 266.2Q250.65 309.2 254.6 352.3Q256.4 372.25 255.2 391.45Q247.4 385.1 246.75 371.3Q244.3 319.55 240.8 267.8Q221.8 270.05 203.65 269.45L200.9 284Q191.1 335.8 180.95 385.7L179.35 384.35L178.95 383.7Q183.7 326 196 268.9Q208.5 211 217.65 152.6Q220.7 133.15 228.95 117.25L229.6 119L230.2 117.75M221.15,167.8L205.2 261L240 256.4L228.05 139.95L221.15 167.8M63.5,101.5Q74.75 158.8 79.35 218.45Q83.85 277.3 94.4 335.25Q96.45 346.5 97.4 357.6Q97.7 352.55 98.7 347.25Q110.1 289.05 117.4 230.4Q118.9 218.6 123.45 208.85L123.55 206.75Q123.6 206.3 124.2 206.5L124.3 207.05L126.2 203.5L125.25 212.75Q134.05 267.4 141.7 322.7Q144.1 339.85 147.1 356.7Q147.4 343.15 149.75 329.1L169.15 213Q178.05 160.25 192.2 111Q184.75 168.9 173.55 227.45Q162.35 285.55 155.95 344.4Q154.1 361.45 151 377.5L151.95 382.1Q152.4 384.35 151.2 386.45Q150.25 385.9 149.45 385.15L148.95 387.45L148.5 384.25Q144.85 380.35 143.6 373.1Q133.65 315.05 125.4 256.2Q123.6 243.45 123.2 230.75Q117.9 275.05 110.5 319.95Q105.95 347.7 100 375.05Q99.85 375.85 98.95 376.45L98.1 372.4L98.1 379.7Q98.1 380.45 97.45 381.2Q87.95 354.45 84.1 323.6Q76.8 264.95 71.2 205.85Q66.25 153.25 62.7 101.7Q62.65 101.35 63.5 101.5" />
</g>
</svg>
