<?xml version="1.0" encoding="utf-8"?>
<svg version="1.1" id="Layer_1"
xmlns="http://www.w3.org/2000/svg"
xmlns:xlink="http://www.w3.org/1999/xlink"


xml:space="preserve">
q-19.05 -2.25 -36.5 4.25q-1.55 4.5 0.3 8.85q14.7 -0.6 29.6 -0.8q-4.15 28.5 -4.55 59.3q-0.85 59.75 -3.25 119.3q-1.8 44.7 -5.45 89.05q-1.4 16.9 4.65 29.35q5.6 -32.5 5.6 -66.7q-0.05 -59.8 3.1 -119.25q2.95 -56.1 1.3 -111.1q12.55 -0.2 25.25 -0.15q3.55 -5.15 1.4 -11.2q-6.65 113.15 -9.65 227.85q-0.6 22.25 -2.1 44.35q-0.25 4.05 -0.2 8.1q0 1.95 0.15 3.9q8.35 -82.3 8.3 -165.7q0 -9.45 0.6 -18.85q2.8 -2.35 2.85 -6.1q0 -3.1 -1.6 -5.5q2.55 -48.1 -1.55 -96.15q18.95 4.75 38.3 2.1q1.3 -1.25 1.55 -2.95q-20.6 69.4 -24.4 143.8q-3.15 61.45 -9.4 122.7q-13.95 -103.45 -32.45 -206.35q-3.95 -22.15 -9.1 -43.15q6.9 89.8 23.95 178.75q6.25 32.65 9.05 65.7q0.85 3.55 1.95 7q1.55 4.85 4.15 9.25q11.35 -79.75 25.45 -159q2 -11.15 3.4 -22.35q15.3 71.35 22.45 144.05q1.8 18.1 8 35.25q11.7 -85.8 19.1 -172.3q3.8 -44.2 10.1 -88.4q-2.55 1.3 -2.75 4.95q-3.95 58.9 -13.25 117.15q-5.55 36.05 -10.75 72.2q-2.1 14.65 -6.05 28.75q-3.8 13.7 4 20.7q6.55 -26.4 10.15 -54.25q4.2 -32.35 9.05 -64.6q2.8 47.55 4.75 95.2q0.7 16.95 8.35 28.2q0.65 -0.75 0.6 -1.5q-0.65 -28.2 -3.15 -57q-2.8 -32.2 -5.05 -64.5q0.95 -1 1.4 -2.3q0.95 -2.95 0.55 -6q-0.25 -2 -1.45 -3.7q-0.35 -0.4 -0.75 -0.4q-1.4 -20.8 -2.55 -41.6q-3.3 -59.3 -12.5 -116.95q-0.6 0.1 -0.65 0.35q-7.05 -0.5 -13.7 1q3.2 -21.05 6.65 -42q6.85 -41.45 8.2 -82.8q6.4 56.8 10.05 114.2<g id="3332" transform="matrix(1, 0, 0, 1, -68.9, 0)">
<path style="fill:#000000;fill-opacity:1" d="M415.7,96.25L416.1 97.05Q418.25 103.1 414.7 108.25Q402 108.2 389.45 108.4Q391.1 163.4 388.15 219.5Q385 278.95 385.05 338.75Q385.05 372.95 379.45 405.45Q373.4 393 374.8 376.1Q378.45 331.75 380.25 287.05Q382.65 227.5 383.5 167.75Q383.9 136.95 388.05 108.45Q373.15 108.65 358.45 109.25L357.75 108.35Q355.9 104 357.45 99.5Q374.9 93 393.95 95.25L414.45 95.85L415.7 96.25M340.2,108Q320.85 110.65 301.9 105.9Q306 153.95 303.45 202.05L336.25 201.2L337.7 202.9Q339.3 205.3 339.3 208.4Q339.25 212.15 336.45 214.5L302.85 212.65Q302.25 222.05 302.25 231.5Q302.3 314.9 293.95 397.2L292.8 393.8L291.75 390.4L290.95 386.85L290.25 383.15L289.85 379.4Q289.7 377.45 289.7 375.5Q289.65 371.45 289.9 367.4Q291.4 345.3 292 323.05Q295 208.35 301.65 95.2L340.2 96.75L341.25 99.8L341.8 102.75L341.75 105.05Q341.5 106.75 340.2 108M205.65,130.5Q199.35 174.7 195.55 218.9Q188.15 305.4 176.45 391.2L174.2 385L172.45 395.45L170 388.9Q163.8 371.75 162 353.65Q154.85 280.95 139.55 209.6Q138.15 220.8 136.15 231.95Q122.05 311.2 110.7 390.95Q108.1 386.55 106.55 381.7Q105.45 378.25 104.6 374.7L103.9 370.95L103.45 367L103.15 362.8L102.8 355.5L102.4 348.1L101.9 340.8Q99.1 307.75 92.85 275.1Q75.8 186.15 68.9 96.35Q74.05 117.35 78 139.5Q96.5 242.4 110.45 345.85L140.2 180.25L140.85 183.6L142.2 183L172.4 367.5Q178.65 306.25 181.8 244.8Q185.6 170.4 206.2 101L205.65 130.5M247.55,101.6Q247.6 101.35 248.2 101.25Q257.4 158.9 260.7 218.2Q261.85 239 263.25 259.8L264.45 259.85Q264.85 259.85 265.2 260.25Q266.4 261.95 266.65 263.95Q267.05 267 266.1 269.95Q265.65 271.25 264.7 272.25L264.1 272.2Q266.35 304.5 269.15 336.7Q271.65 365.5 272.3 393.7Q272.35 394.45 271.7 395.2Q264.05 383.95 263.35 367Q261.4 319.35 258.6 271.8L230.65 269.35Q225.8 301.6 221.6 333.95Q218 361.8 211.45 388.2Q203.65 381.2 207.45 367.5Q211.4 353.4 213.5 338.75Q218.7 302.6 224.25 266.55L224.15 264.95L224.3 263.5L224.7 261.25L225.05 261.15L231.2 221.85Q240.5 163.6 244.45 104.7Q244.65 101.05 247.2 99.75L247.3 103.05L247.55 101.6M257.15,248.4Q253.5 191 247.1 134.2Q245.75 175.55 238.9 217Q235.45 237.95 232.25 259Q238.9 257.5 245.95 258L257.85 259.35L257.15 248.4" />
</g>
</svg>
