<?xml version="1.0" encoding="utf-8"?>
<svg version="1.1" id="Layer_1"
xmlns="http://www.w3.org/2000/svg"
xmlns:xlink="http://www.w3.org/1999/xlink"


xml:space="preserve">
q-2.85 59.55 -5 119.2q-2.15 59.7 -6.4 119.1q-1 14.15 5.8 21.6q3.7 -15.15 3.85 -31.5q0.4 -51.4 2.45 -102.65q28.05 0.5 52.9 -1.35q-0.2 40.5 -1.85 80.8q-0.6 15.05 -2.95 29.75q-2.7 17 4.1 29.45q6 -27 6.6 -56.2q1.2 -59.3 1.6 -119.25q0.45 -60.1 -2.45 -118.5q-0.6 -0.2 -0.65 0.25q-5.25 56.95 -4.55 115.25q-2.05 -0.3 -4.25 0.05q2.65 -60.2 2.3 -118.5q-1.5 0.45 -2.5 1.75q-0.75 3.75 -0.9 7.55q-27.65 2 -55.85 0.05q-1.55 4.1 -0.6 8.15q-4.25 95.7 -8.15 191.8q-1.65 40.75 -2.2 81.25q-0.05 4.15 3.5 6.4q7.85 -39.2 9.55 -82.3q3.95 -98.65 0.75 -197.2q-13.7 55.4 -20.9 112.35q-7.4 58.45 -13.65 117.1q-0.8 7.45 -2.8 14.55q-1.35 4.95 -1.75 9.5q-3.7 -29.15 -10.4 -58.1q-13.35 -57.6 -27 -114.45q-2.35 3.25 -2.35 7.5q-4.2 14.1 -7.25 29.4q-11.6 58.05 -22.15 116.2q-1.75 9.45 -2.3 18.65q-4.05 -21.1 -5.65 -42.75q-3.75 -51.45 -11.1 -102.4q-8.45 -58.75 -17.5 -116.7q-2.3 0.05 -2.4 2.5q-0.55 13.65 0.7 27.15q5.6 59.2 15.6 117.6q9.95 57.95 11.55 116.95q0.45 17.55 9 28.25q2.85 -5.7 3 -11.8q5.8 -22.7 9.45 -46.05q9.15 -58.3 21.3 -116.1q3.4 14.7 6.4 29.55q11.75 57.9 21.1 116.1q2.7 16.65 10.5 27.95q1.4 -1.15 1.25 -2.95q1 2.8 2.5 5.3q1.8 -1.45 2.15 -3.65q4.35 -25.3 6.9 -51q5.75 -58.75 13.95 -117.05q4.1 -29.25 9.8 -58.15q4.45 -22.5 3.95 -43.85q-1.4 -0.25 -1.75 1.05q-5.45 3.15 -2.6 10.4q-1.8 11.4 -2.25 23.25q-2.2 59.05 -3.5 118.5q-1.3 59.7 -6.2 119.1q-0.85 10.5 5.7 13.6q4.35 -23.1 5.3 -47.2q2.3 -59.25 3.95 -119.25q1.65 -59.85 0 -118.5<g id="3348" transform="matrix(1, 0, 0, 1, -72.55, 0)">
<path style="fill:#000000;fill-opacity:1" d="M378.45,126Q379.45 124.7 380.95 124.25L381.2 124.25Q381.55 182.55 378.9 242.75L378.9 243.6L380.95 243.3L425.7 242.6L426.95 242.25Q429.15 241.9 431.2 242.2L431 219.5Q430.3 161.2 435.55 104.25Q435.6 103.8 436.2 104Q439.1 162.4 438.65 222.5Q438.25 282.45 437.05 341.75Q436.45 370.95 430.45 397.95Q423.65 385.5 426.35 368.5Q428.7 353.8 429.3 338.75Q430.95 298.45 431.15 257.95Q406.3 259.8 378.25 259.3Q376.2 310.55 375.8 361.95Q375.65 378.3 371.95 393.45Q365.15 386 366.15 371.85Q370.4 312.45 372.55 252.75Q374.7 193.1 377.55 133.55Q377.7 129.75 378.45 126M366.65,107.75L365.2 117.5L328.75 119.35Q331.95 217.9 328 316.55Q326.3 359.65 318.45 398.85Q314.9 396.6 314.95 392.45Q315.5 351.95 317.15 311.2Q321.05 215.1 325.3 119.4L275.05 117.6L274.7 117.1L274.25 116.05L273.85 114.9Q272.9 110.85 274.45 106.75L296.95 103L309.1 104.45Q337.3 106.4 364.95 104.4L366.65 107.75M222.45,108.5Q222.95 129.85 218.5 152.35Q212.8 181.25 208.7 210.5Q200.5 268.8 194.75 327.55Q192.2 353.25 187.85 378.55Q187.5 380.75 185.7 382.2Q184.2 379.7 183.2 376.9L183.95 384.75Q184.1 386.55 182.7 387.7Q174.9 376.4 172.2 359.75Q162.85 301.55 151.1 243.65Q148.1 228.8 144.7 214.1L143.7 219.5Q131.55 277.3 122.4 335.6Q118.75 358.95 112.95 381.65Q112.8 387.75 109.95 393.45Q101.4 382.75 100.95 365.2Q99.35 306.2 89.4 248.25Q79.4 189.85 73.8 130.65Q72.55 117.15 73.1 103.5Q73.2 101.05 75.5 101Q84.55 158.95 93 217.7Q100.35 268.65 104.1 320.1Q105.7 341.75 109.75 362.85Q110.3 353.65 112.05 344.2Q122.6 286.05 134.2 228Q137.25 212.7 141.45 198.6Q141.45 194.35 143.8 191.1L143.95 190.5L144 190.75L144.2 190.5Q157.85 247.35 171.2 304.95Q177.9 333.9 181.6 363.05Q182 358.5 183.35 353.55Q185.35 346.45 186.15 339Q192.4 280.35 199.8 221.9Q207 164.95 220.7 109.55Q221.05 108.25 222.45 108.5M254.45,106.25Q256.1 164.9 254.45 224.75Q252.8 284.75 250.5 344Q249.55 368.1 245.2 391.2Q238.65 388.1 239.5 377.6Q244.4 318.2 245.7 258.5Q247 199.05 249.2 140Q249.65 128.15 251.45 116.75Q248.6 109.5 254.05 106.35L254.45 106.25" />
</g>
</svg>
