<?xml version="1.0" encoding="utf-8"?>
<svg version="1.1" id="Layer_1"
xmlns="http://www.w3.org/2000/svg"
xmlns:xlink="http://www.w3.org/1999/xlink"


xml:space="preserve">
q4.65 -7.85 -3.55 -16.25q-19.45 0 -24.6 22.6q-4.85 21.35 -8.4 43q-2.6 16 -4 32.15q-1.15 14.8 -2 29.65q-0.4 14.65 -1.3 29.25q-1.3 20.25 1.1 40.55q2.75 23 24.25 31.3q9.05 3.45 17.4 -4.25q18.4 -16.95 13.5 -39.75q-0.5 -2.2 -1.55 -4.25q-4.35 17.2 -18.4 29.45q-23.4 -12.2 -20 -44q1.55 -14.3 1.85 -29q0.8 -41.9 3.45 -83.65q12.3 1.65 24.2 -1.55q4.6 -7.2 -0.25 -14.25q-1.2 -82.15 22.75 -158.15q1.35 -4.3 6.4 -5.35q-21.45 12.25 -30 36.05q-20.55 57.6 -24.45 118.6q-3.7 58.5 -0.05 117.1q1.75 42.75 32 71.15q8 3.5 16.65 1.3q10.25 -2.55 16.6 -10.9q14.25 -18.75 11 -39.4q-0.25 -0.35 -0.25 -0.85q-6.95 12.2 -13.25 24.75q-9.8 19.5 -28.05 7.55q-4.7 -3.1 -7.55 -7.75q-17.6 -29.2 -19.45 -64.4q-1.55 -29.65 -1.25 -59.3q0.6 -59.45 10.6 -117.25q6.55 -37.55 28.35 -66.85q4 -5.35 10.7 -6.4q15.7 -2.55 29.5 2.75q2.25 -4.55 -1.1 -8.5q-6.05 -7.15 -15.4 -9.75q-7.05 57.4 -7.6 116.95q-0.6 59.7 -1.95 119.25q-0.8 36.3 -2.3 72.4q-10.95 -57.9 -22.8 -115.75q-11.9 -58.2 -25.85 -115.4q-3.3 0.6 -3.6 4.5q-3.5 49.3 -5.35 99q-2.25 59.65 -4.1 119.25q-1.4 44.25 -4.25 88.35q-2 30.55 2.05 59.35q5.55 -4.85 5.65 -14.25q0.75 -59.5 2.2 -119.2q1.45 -59.75 4 -119.25q2 -46.3 2.95 -91.6q14.55 57.5 26.35 115.55q11.75 57.85 21.35 115.95q9.65 58.3 21.4 115.35q1.15 -0.35 1.4 -1.05q4.2 -11.85 1.7 -24.65q1.55 -51.65 2.3 -103.3q0.8 -59.6 2.4 -119.25q1.55 -59.95 1.25 -118.5q-3.7 54.95 -6.45 110.2q-2.95 59.1 -4.2 118.55q-1.3 59.8 -5.4 119.15q-0.7 10.45 5.85 13.55q4.95 -42.85 4.85 -87q-0.1 -59.9 3.3 -119.25q3.4 -59.3 5.15 -119.2q-3.65 2.55 -4.05 8.25q-6.3 22.8 -8.3 47.05q-2.05 25.3 -5.1 50.5q-7.05 58.75 -12 117.7q-5 58.9 -12.2 117.4q-6.9 -39.85 -16 -79.75q-12.25 -53.7 -22.3 -107.2q0.1 -5.25 -0.55 -10.25q-2.65 0.95 -2.35 4.5q-7.3 18.45 -9.65 39.5q-2.85 25.05 -6.65 49.95q-6.65 43.35 -13.8 86.5q-0.55 3.4 -0.75 6.6q-8.35 -51.55 -15.85 -103.25q-8.45 -58.3 -14.6 -117.05q-6.15 -59.05 -18.15 -116.3q-2.9 0.3 -2.4 3.7q7.85 55.85 14.15 111.9q6.55 58.65 15.15 116.9q8.6 58.25 13.35 117.05q1.1 13.7 8.45 20.15q2.45 -6.15 2.6 -12.65q5.25 -17.9 6.7 -37.45q4.4 -58.85 15.25 -116.4q2.75 -14.55 6.5 -28.75q5.05 41.9 15.15 83.1q7.05 28.65 11.35 57.8q4.5 30.35 15.55 57.3q1.35 -0.5 1.75 -1.65q5.35 -33.5 7.35 -68.2q3.4 -59.2 8.85 -117.8q5.5 -59.1 13.6 -117.7q4.15 -30 4.7 -58.5q-1.1 0 -1.4 1.1<g id="3353" transform="matrix(1, 0, 0, 1, -51.6, 0)">
<path style="fill:#000000;fill-opacity:1" d="M498.9,97.5Q474.95 173.5 476.15 255.65L499.45 252.75Q504.3 259.8 499.7 267Q487.8 270.2 475.5 268.55Q472.85 310.3 472.05 352.2Q471.75 366.9 470.2 381.2Q466.8 413 490.2 425.2L495.95 424.95Q510 412.7 514.35 395.5L515.65 394.15L516.25 394.95L519.95 390.95Q521 393 521.5 395.2Q526.4 418 508 434.95Q499.65 442.65 490.6 439.2Q469.1 430.9 466.35 407.9Q463.95 387.6 465.25 367.35Q466.15 352.75 466.55 338.1L467.35 308.9L468.2 279.75L468.75 264.85L470.3 235.05Q471.15 220.2 472.3 205.4L474.7 175.85Q476.1 159.7 478.7 143.7Q482.25 122.05 487.1 100.7Q492.25 78.1 511.7 78.1L514.45 79.25L517.05 81.95Q525.25 90.35 520.6 98.2L514.45 91.75L512 91.6L505.3 92.15Q500.25 93.2 498.9 97.5M428.95,75.3L437.45 75.75Q446.8 78.35 452.85 85.5Q456.2 89.45 453.95 94Q440.15 88.7 424.45 91.25Q417.75 92.3 413.75 97.65Q391.95 126.95 385.4 164.5Q375.4 222.3 374.8 281.75Q374.5 311.4 376.05 341.05Q377.9 376.25 395.5 405.45Q398.35 410.1 403.05 413.2Q421.3 425.15 431.1 405.65Q437.4 393.1 444.35 380.9L445.6 381.75L445.45 382.2Q445.45 382.7 445.7 383.05L446.4 383.55L447.45 384.2Q450.7 404.85 436.45 423.6Q430.1 431.95 419.85 434.5Q411.2 436.7 403.2 433.2Q372.95 404.8 371.2 362.05L370.45 347Q366.8 288.4 370.5 229.9Q374.4 168.9 394.95 111.3Q403.5 87.5 424.95 75.25L428.95 75.3M355.45,71.75Q355.75 130.3 354.2 190.25Q352.6 249.9 351.8 309.5Q351.05 361.15 349.5 412.8L350.3 417Q352.8 429.8 348.6 441.65Q348.35 442.35 347.2 442.7Q335.45 385.65 325.8 327.35Q316.2 269.25 304.45 211.4Q292.65 153.35 278.1 95.85L278 95.4Q277.05 140.7 275.05 187Q272.5 246.5 271.05 306.25Q269.6 365.95 268.85 425.45Q268.75 434.85 263.2 439.7Q259.15 410.9 261.15 380.35Q264 336.25 265.4 292Q267.25 232.4 269.5 172.75Q271.35 123.05 274.85 73.75Q275.15 69.85 278.45 69.25L278.4 71.95L279.2 70Q293.15 127.2 305.05 185.4Q316.9 243.25 327.85 301.15L343.1 380.4Q344.6 344.3 345.4 308Q346.75 248.45 347.35 188.75Q347.9 129.2 354.95 71.8L355.45 71.75M248.45,68.5L247.5 112.75Q245.75 172.65 242.35 231.95Q238.95 291.3 239.05 351.2Q239.15 395.35 234.2 438.2Q227.65 435.1 228.35 424.65Q232.45 365.3 233.75 305.5Q235 246.05 237.95 186.95Q240.7 131.7 244.4 76.75Q244.8 71.05 248.45 68.5M215.2,70Q214.65 98.5 210.5 128.5Q202.4 187.1 196.9 246.2Q191.45 304.8 188.05 364Q186.05 398.7 180.7 432.2L179.7 430.3Q179.3 431.45 177.95 431.95Q166.9 405 162.4 374.65Q158.1 345.5 151.05 316.85Q140.95 275.65 135.9 233.75L134.9 237.85Q131.15 252.05 128.4 266.6Q117.55 324.15 113.15 383Q111.7 402.55 106.45 420.45L105.8 418.8Q105.65 425.3 103.2 431.45Q95.85 425 94.75 411.3Q90 352.5 81.4 294.25Q72.8 236 66.25 177.35Q59.95 121.3 52.1 65.45Q51.6 62.05 54.5 61.75Q66.5 119 72.65 178.05Q78.8 236.8 87.25 295.1Q94.75 346.8 103.1 398.35Q103.3 395.15 103.85 391.75Q111 348.6 117.65 305.25Q121.45 280.35 124.3 255.3Q126.65 234.25 133.95 215.8L133.85 214.75Q133.55 211.2 136.2 210.25L136.25 210.4L137.2 208.25Q137.85 213.25 137.75 218.5Q147.8 272 160.05 325.7Q169.15 365.6 176.05 405.45L176.2 403.75Q183.4 345.25 188.4 286.35Q193.35 227.4 200.4 168.65Q203.45 143.45 205.5 118.15Q207.5 93.9 213.8 71.1Q214.1 70 215.2 70" />
</g>
</svg>
