<?xml version="1.0" encoding="utf-8"?>
<svg version="1.1" id="Layer_1"
xmlns="http://www.w3.org/2000/svg"
xmlns:xlink="http://www.w3.org/1999/xlink"


xml:space="preserve">
q-44.75 98.5 -74.1 204q-4.95 17.9 -13.1 34.95q-3.1 -116.3 4.55 -232.2q0.25 -3.6 -0.1 -7.25q-7.65 183.1 -16.7 366.2q-0.85 16.9 -2.65 33.75q-0.6 5.8 0.25 11.6q0.55 3.7 1.4 7.35q0.55 1.7 1.55 3.15q11.1 -78.3 12.55 -157.85q20.3 -42.45 33.35 -88.1q22.8 106.2 58.45 209.05q2.85 7.9 7 15.2q1 -42 -18.55 -84.45q-13.85 -30.05 -22.85 -62.2q-11.85 -42.4 -24.4 -84.6q19.4 -76.7 48.8 -149.75q8.15 -9.3 3.5 -20.25q-43.35 32.75 -40.65 89.7q0.9 18.8 11.85 33.8q5.05 6.9 13 8.25q9.8 1.45 18.85 -3.2q14.4 -7.35 15.25 -23.45q0.15 -3.3 -0.3 -6.6q-11.6 18.55 -33.5 19.5q-19.4 -9.65 -19.1 -32.1q0.35 -27.8 13.45 -51.6q5.1 -9.2 14.3 -14.75q6.5 -3.9 13.6 -6.05q3.8 -19.65 -16.1 -22.6q-4.8 41.5 -14.2 82.45q-7.15 -8.15 -13 -18.25q-12.8 -30.65 -25.25 -61.5q-4.65 2.2 -4.45 8.2q1.1 29.7 -5.15 58.2q-2.8 12.95 2.6 22.1q8.15 -32.2 6.3 -66.4q14.1 42.6 38.5 77.5q10.25 -24 15.2 -50.45q5 -26.4 0.3 -51.3q-1.45 -0.2 -1.55 1.05q6.6 -25.5 -19 -27.6q-25.25 -1.6 -28.15 24.45q-2.45 22.25 11.95 39.45q14.15 17 24.35 36.2q9.6 18.15 7.65 38.65q-2.25 24.2 -24.8 30.7q-4.65 1.3 -9.5 1.1q-8.35 22.2 7.1 41.45q23.15 -2.95 34.5 -23.85q11.45 -21.25 7.5 -45.5q-5.75 -34.9 -32.15 -58.5q-14.65 -13.1 -13 -33.4q0.4 -4.8 2.15 -9.45q24.85 -17.9 37.6 7.25q-3.3 0.9 -4.3 4.65q-5.55 21 -6.9 42.75q-3.6 59.15 -10.4 117.9q-6.75 58.5 -13.35 116.95q-0.55 -3.25 -1.5 -6.5q-16.6 -57.95 -28.25 -116.85q-11.6 -58.7 -21 -117.1q-1.5 0.35 -1.5 0.8q-3.2 57.4 -7.2 114.65q-4.1 58.75 -12.25 116.75q-0.9 -1.6 -1.15 -3.9q-6.65 -59.2 -17.55 -117.65q-10.95 -58.85 -19.25 -118q-2.35 -16.7 -9.65 -28.35q5 47 14.2 95.05q11.25 58.55 19 117.95q7.65 58.8 14.2 117.75q3.25 29.65 5.55 59.35q1.3 16.3 8.05 28.35q10.2 -46.8 14.55 -95.2q5.2 -58.3 7.9 -117q4.3 24.75 9.5 49.3q5.3 25 11.15 49.8q6.85 -5.3 7.75 -15.65q5.2 -59.05 11.8 -117.9q6.6 -58.85 13.75 -117.65q7.15 -58.65 11.9 -117.75q0.9 -11.25 3.45 -22.15q4.4 -19.15 0.6 -36.35q-4.1 28.55 -2.8 60q2.45 59.5 4.1 119.25q1.7 59.75 -0.45 119.25q-2.15 60 -1.6 118.45q1.9 2 4 0q2.6 -29.7 3.45 -60q1.65 -59.5 1.4 -119.2q-0.2 -59.95 -2.35 -119.3q-2.15 -59.65 -5.75 -118.45q-4.3 26.9 -1.8 54.65q2.55 28.55 1.7 56.95q-0.85 30.25 -2.95 59.95q-1.2 17.4 5.05 29.05q3.7 -9.75 3.7 -21q0 -30.65 0.35 -61.5q15.05 2.4 29.95 -0.45q1.35 30 0.55 59.95q-0.5 16.45 4.55 29.75q5.1 -11.15 4.4 -25.3q-1.7 -34.95 -2.75 -69.95q1.4 -3.55 -0.2 -7.55q-0.2 -11.3 0.7 -22.4q1.3 -16.75 -3.2 -29.6q-4.9 45.1 -3.6 92.3q-0.45 -49.05 -5.35 -97.3q-0.75 0.1 -0.75 0.35<g id="3358" transform="matrix(1, 0, 0, 1, -29.5, 0)">
<path style="fill:#000000;fill-opacity:1" d="M471.1,77.05Q441.7 150.1 422.3 226.8L430.65 254.7Q443.2 296.9 455.05 339.3Q464.05 371.45 477.9 401.5Q497.45 443.95 496.45 485.95L490.9 476.5Q486.75 469.2 483.9 461.3L478 444.7Q442.35 341.85 419.55 235.65Q406.5 281.3 386.2 323.75Q384.75 403.3 373.65 481.6L373.3 481.95Q372.3 480.5 371.75 478.8L370.75 475.4Q369.9 471.75 369.35 468.05Q368.5 462.25 369.1 456.45Q370.9 439.6 371.75 422.7Q380.8 239.6 388.45 56.5L391.2 55Q391.55 58.65 391.3 62.25Q383.65 178.15 386.75 294.45Q394.9 277.4 399.85 259.5Q429.2 154 473.95 55.5L474.6 56.8Q479.25 67.75 471.1 77.05M357.95,79.2L345.7 69.75Q338.6 71.9 332.1 75.8Q322.9 81.35 317.8 90.55Q304.7 114.35 304.35 142.15Q304.05 164.6 323.45 174.25Q345.35 173.3 356.95 154.75Q357.4 158.05 357.25 161.35Q356.4 177.45 342 184.8Q332.95 189.45 323.15 188Q315.2 186.65 310.15 179.75Q299.2 164.75 298.3 145.95Q295.6 89 338.95 56.25L341.85 56.6Q361.75 59.55 357.95 79.2M359.45,193.75Q364.15 218.65 359.15 245.05Q354.2 271.5 343.95 295.5Q319.55 260.6 305.45 218Q307.3 252.2 299.15 284.4L298.45 286Q293.05 276.85 295.85 263.9Q302.1 235.4 301 205.7Q300.8 199.7 305.45 197.5Q317.9 228.35 330.7 259Q336.55 269.1 343.7 277.25Q353.1 236.3 357.9 194.8Q358 193.55 359.45 193.75M342.05,318.5Q329.3 293.35 304.45 311.25Q302.7 315.9 302.3 320.7Q300.65 341 315.3 354.1Q341.7 377.7 347.45 412.6Q351.4 436.85 339.95 458.1Q328.6 479 305.45 481.95Q290 462.7 298.35 440.5L303.3 444.85L301.95 448.7L306.2 464.45Q311.05 464.65 315.7 463.35Q338.25 456.85 340.5 432.65Q342.45 412.15 332.85 394Q322.65 374.8 308.5 357.8Q294.1 340.6 296.55 318.35Q299.45 292.3 324.7 293.9Q350.3 296 343.7 321.5L342.05 318.5M209.85,85.6Q207.3 96.5 206.4 107.75Q201.65 166.85 194.5 225.5Q187.35 284.3 180.75 343.15Q174.15 402 168.95 461.05Q168.05 471.4 161.2 476.7L133.6 359.35Q127.75 334.55 122.45 309.55Q117.25 285 112.95 260.25Q110.25 318.95 105.05 377.25Q100.7 425.65 90.5 472.45Q83.75 460.4 82.45 444.1Q80.15 414.4 76.9 384.75Q70.35 325.8 62.7 267Q54.95 207.6 43.7 149.05Q34.5 101 29.5 54Q36.8 65.65 39.15 82.35Q47.45 141.5 58.4 200.35Q69.3 258.8 75.95 318L89.35 435.8Q89.6 438.1 90.5 439.7Q98.65 381.7 102.75 322.95Q106.75 265.7 109.95 208.3Q109.95 207.85 111.45 207.5Q120.85 265.9 132.45 324.6Q144.1 383.5 160.7 441.45Q161.65 444.7 162.2 447.95L175.5 331.5Q182.1 273.05 188.85 214.55Q195.65 155.8 199.25 96.65Q200.6 74.9 206.15 53.9Q207.15 50.15 210.45 49.25Q214.25 66.45 209.85 85.6M284.95,173.45Q287.1 232.8 287.3 292.75Q287.55 352.45 285.9 411.95Q285.05 442.25 282.45 471.95Q280.35 473.95 278.45 471.95Q277.9 413.5 280.05 353.5Q282.2 294 280.5 234.25Q278.85 174.5 276.4 115Q275.1 83.55 279.2 55Q282.8 113.8 284.95 173.45M200.45,273Q205.35 321.25 205.8 370.3L235.35 366.3Q234.05 319.1 238.95 274Q243.45 286.85 242.15 303.6Q241.25 314.7 241.45 326L242.4 367.65Q244 371.65 242.6 375.2Q243.65 410.2 245.35 445.15Q246.05 459.3 240.95 470.45Q235.9 457.15 236.4 440.7Q237.2 410.75 235.85 380.75L235.8 379.5Q220.9 382.35 205.85 379.95L205.75 391.45Q205.4 422.3 205.4 452.95Q205.4 464.2 201.7 473.95Q195.45 462.3 196.65 444.9Q198.75 415.2 199.6 384.95Q200.45 356.55 197.9 328Q195.4 300.25 199.7 273.35Q199.7 273.1 200.45 273" />
</g>
</svg>
