<?xml version="1.0" encoding="utf-8"?>
<svg version="1.1" id="Layer_1"
xmlns="http://www.w3.org/2000/svg"
xmlns:xlink="http://www.w3.org/1999/xlink"


xml:space="preserve">
q-1.5 48.1 -7.05 95.75q-3.55 30.15 1.2 58.75q23.1 0.35 44.75 -4.5q2.8 -6.5 -0.45 -12.7q-20.7 1.9 -41.25 1q2 -29.6 4.6 -59.1q1.1 -12.65 -3.25 -21.4q-3.4 5.3 -3.65 12.75q2.6 -13.15 -4.2 -20.75q-5.75 31.55 -9.85 64.45q-7.2 57.75 -11.3 115.85q-6.15 -33.45 -11.4 -67.1q-4.6 -29.5 -5.65 -59.4q-1.1 -30.65 -8.45 -58.45q-1 0.75 -1.1 1.6q-4.6 32.45 -8.25 65.2q-6.55 58.3 -15.85 115.65q-2.75 -29.15 -3.45 -58.95q-1.35 -59.4 -7.15 -118.4q-5.75 -58.25 -10.15 -116.35q-0.35 -4.3 -3.8 -5.5q-1.35 31.75 3.15 65.05q7.95 58.8 11.5 118.4q3.5 58.55 3.35 117.75q-0.05 16.85 7.05 28.25q8.6 -25.65 11.75 -53.05q1.15 28.6 4.75 56.8q7.55 59.45 21.5 115.9q8.25 -27.25 10.05 -57.4q3.6 -59.6 11.15 -118.65q7.6 -58.95 16 -117.65q1.05 -7.4 2.5 -14.75q-0.5 59 -1.4 118.5q-0.95 59.65 -3 119.2q-0.55 15 -3.25 29.65q-4.25 23.3 0.65 44.6q22.4 3 44.25 -2.25q7.35 -8.3 0.75 -17.25q-6.3 1.55 -12.25 0.75q-0.25 0 -0.35 0.15q-13.6 1.7 -26 0.5q3.9 -39.3 4.9 -79.45q1.1 -59.75 -2.15 -118.5q-3.65 9.8 -3.75 22q-1.95 21.05 -2.4 44.5q-1.1 60 -6.95 119.2q-1.45 14.9 -3.7 29.75q-2.1 13.7 4.9 21.75q5.1 -17.55 6.3 -36.6q3.65 -58.95 4.8 -118.6q1.1 -59.7 3.6 -119.2q1.25 -30.55 -4.2 -59.3q-3.65 18.25 2.15 35.65q4.5 -7.15 5.2 -15.7q3.05 -37.9 3.55 -75.85q-3.25 34.7 -2.3 69.5q0.35 12.4 3.45 21.45q3.5 -22.7 4.1 -45.65q1.95 -72.9 2 -145.95q-5.6 31.45 -6.35 63.4q-3.6 36.2 -4.65 73.1q-0.65 21.9 -0.7 43.95q0.05 19.7 -3.8 39.05q-7.15 -3.05 -14.15 0.6q-6.95 72.05 -18.7 143.85q-1.7 10.4 5.45 17.85q11.3 -46.5 13.8 -94.35q0.45 -0.05 0.8 -0.4q0.7 -47.75 -19.35 -96.2q-1.95 -4.65 -3.45 -9.45q16.55 -10.55 18.6 -30.35q4.05 -24.3 -17.85 -33.35q-5.5 14.4 -20.9 16.85q25.7 4.65 16.15 29.75<g id="3359" transform="matrix(1, 0, 0, 1, -57.35, 0)">
<path style="fill:#000000;fill-opacity:1" d="M249.95,85Q254.3 93.75 253.2 106.4Q250.6 135.9 248.6 165.5L243.95 235.25Q264.5 236.15 285.2 234.25Q288.45 240.45 285.65 246.95L285.2 247.75Q263.55 252.6 240.45 252.25Q235.7 223.65 239.25 193.5Q244.8 145.85 246.3 97.75Q246.55 90.3 249.95 85M172.15,122.75Q163.75 181.45 156.15 240.4Q148.6 299.45 145 359.05Q143.2 389.2 134.95 416.45Q121 360 113.45 300.55Q109.85 272.35 108.7 243.75L95.5 360.15Q92.35 387.55 83.75 413.2Q76.65 401.8 76.7 384.95Q76.85 325.75 73.35 267.2Q69.8 207.6 61.85 148.8Q57.35 115.5 58.7 83.75L59 83.5Q62.45 84.7 62.8 89L63 89.75Q67.4 147.85 73.15 206.1Q78.95 265.1 80.3 324.5Q81 354.3 83.75 383.45Q93.05 326.1 99.6 267.8Q103.25 235.05 107.85 202.6Q107.95 201.75 108.95 201Q116.3 228.8 117.4 259.45Q118.45 289.35 123.05 318.85Q128.3 352.5 134.45 385.95Q138.55 327.85 145.75 270.1L160.6 151.7Q164.7 118.8 170.45 87.25Q177.25 94.85 174.65 108Q173.2 115.35 172.15 122.75M317.2,88.25Q320.45 147 319.35 206.75L316.85 326Q315.85 366.15 311.95 405.45Q324.35 406.65 337.95 404.95L338.85 403.6Q338.95 403.45 339.2 403.45Q345.15 404.25 351.45 402.7Q358.05 411.65 350.7 419.95Q328.85 425.2 306.45 422.2Q301.55 400.9 305.8 377.6Q308.5 362.95 309.05 347.95Q311.1 288.4 312.05 228.75Q312.95 169.25 313.45 110.25Q313.55 98.05 317.2 88.25M225.4,146.3Q222.9 205.8 221.8 265.5Q220.65 325.15 217 384.1Q215.8 403.15 210.7 420.7Q203.7 412.65 205.8 398.95Q208.05 384.1 209.5 369.2Q215.35 310 216.45 250L218.8 131.5Q219.25 108.05 221.2 87Q226.65 115.75 225.4 146.3M161.6,339.25Q161.65 317.2 162.3 295.3Q163.35 258.4 166.95 222.2L168.8 313.2L182.4 310.5L182.85 287.15Q183.6 255.2 189.2 223.75Q189.15 296.8 187.2 369.7Q186.6 392.65 183.1 415.35Q180 406.3 179.65 393.9Q178.7 359.1 181.95 324.4L168.7 322.4Q168.2 360.35 165.15 398.25Q164.45 406.8 159.95 413.95Q154.15 396.55 157.8 378.3Q161.65 358.95 161.6 339.25M275.45,290.25Q273.4 310.05 256.85 320.6Q258.35 325.4 260.3 330.05Q280.35 378.5 279.65 426.25Q279.3 426.6 278.85 426.65L278 426.9L277.1 426.6L253.2 322.55L244 324.85Q241.5 372.7 230.2 419.2Q223.05 411.75 224.75 401.35Q236.5 329.55 243.45 257.5Q250.45 253.85 257.6 256.9Q279.5 265.95 275.45 290.25M249.35,266.7L244.85 267.25L244.6 313.3Q260 310.85 265.5 296.45Q275.05 271.35 249.35 266.7" />
</g>
</svg>
