<?xml version="1.0" encoding="utf-8"?>
<svg version="1.1" id="Layer_1"
xmlns="http://www.w3.org/2000/svg"
xmlns:xlink="http://www.w3.org/1999/xlink"


xml:space="preserve">
q-12.5 -7.35 -27.2 -6.4q-5.3 0.05 -10.55 1.15q-19.1 24.7 -23.25 55.8q-8.5 63.7 -8.7 128q-0.3 5 0.3 10q0.6 4.65 2.3 8.95q5.25 13.1 18.45 18.15q15.85 6.2 30.7 -5.85q17.45 -14.25 21.85 -36.35q1.15 -5.85 0.4 -11.4q-9.35 11.55 -17.85 24.6q-6.05 9.35 -16.75 13.1q-3.25 1.15 -6.45 1.65q-15.55 -40.85 -9.9 -86.1q2.15 -2.6 2.2 -5.9q0 -2.35 -1.05 -4.1q-26.25 -0.1 -49.75 14.25q1.2 -46.55 21.9 -85.65q4 -7.6 12.65 -10.15q7.4 -2.3 15.15 -1.35q8.9 -0.35 16 4.25q1.75 -19.5 -18.45 -17.25q-29.5 3.2 -35.05 33.95q-17.85 98.9 -10.9 199.2q0.75 10.75 9.8 16.4q3.35 2.15 7 3.4q4.5 1.55 8.35 -0.25q8.6 -6.7 14.95 -15.5q-0.4 16.7 5.85 32.2q9.8 -52.85 4.4 -109.75q-19.35 -2.4 -39.15 1.55q16.7 4.95 34.95 1.8q4.1 43.4 -30.25 68.1q-25.65 18.55 -26.7 -15.15q-2.75 -89.55 12.6 -177.65q6 -22.9 29.85 -24.05q0.65 21.05 -3.65 41.7q-4.4 21.05 -17.4 37.95q-13.7 17.85 -34.5 25.6q-5 1.9 -7.25 -1.85q3.85 -84.7 6.45 -171q1.05 -33.75 -0.2 -67.4q21.45 5.65 33.7 24.15q11.8 17.95 16.65 39.25q4.1 18.1 6.6 36.6q2.5 18.45 3.05 37.15q-4.45 -48.15 -37.75 -81.55q-1.1 -0.25 -2 -0.85q-9.6 -6.15 -21.25 -5.9q-2.05 0.35 -2.25 2.7q-0.1 2.25 0.15 4.5q-3.7 24.95 -3.85 51.95q-0.3 59.45 -4.25 118.45q-2.05 29.95 -5.35 59.8q-1.9 17.45 4.55 29.2q9.5 11.25 26.85 1.4q12.2 -6.9 19.55 -18.3q33.05 -51.1 27.65 -113.7q-16.6 9.45 -24.9 27.35q-20.3 43.7 -24.75 91.85q-2.65 28.65 -3.9 57.7q-2.1 47.65 22.8 86.95q2.7 4.25 7.15 6.1q28.7 11.7 46.2 -15.6q10.75 -16.85 7.4 -34.15q-2.5 2.25 -3.6 5.4q-8.95 25.5 -34.15 32.7q-6.95 2 -12.8 -1.95q-8.85 -5.9 -12.65 -15.7q-18.85 -49.05 -12.9 -102.3q28.95 -2.5 57.15 -6.4q3.9 -8.75 -2.7 -13.7q-26.7 3.35 -53.4 8.3q2.7 -21.85 6.15 -43.55q6.65 -41.1 37.75 -67.25q16.7 3.85 30.15 11.35q0.9 -1 0.9 -2.25q0 -4.7 -2.85 -8.45q-1.8 -2.35 -4.05 -4.3q-12.4 -7.3 -26.45 -9.2q-0.1 3.35 -2.15 6q-4.05 17.95 -7.75 36.25q-10.3 50.6 -19.65 101.4q-7.3 39.6 -10.85 79.55q-1.55 -10 -3.75 -19.95q-12.35 -56.45 -17.6 -113.85q-0.6 0 -0.7 0.2q-0.5 0.1 -0.5 0.25q-6.35 17.05 -11.45 35.4q-6.3 22.85 -12.05 45.8q-6.2 24.8 -9.3 49.9q-8.65 -58.3 -15.55 -116.85q-7 -58.95 -18.45 -116.2q-0.65 -0.2 -0.6 0.2q4.35 52.75 11.55 106.25q7.85 58.4 14.4 117q1.65 14.7 2.25 29.35q0.45 11.2 4.2 20.15q0.4 1.55 1.35 1.85q1.4 2.8 3.15 5.4q0.6 -0.75 0.6 -1.5q4.1 -25.35 9.8 -50.45q11.2 -48.75 20.9 -97.05q0.7 38.65 8.6 77.25q5.95 29.1 8.4 58.65q0.9 10.45 4.4 18.65q0.75 2.75 3.2 1.55q0.65 -0.75 0.6 -1.45q-0.25 -7.8 -0.85 -15.55q8.8 -58.15 18.5 -116.25q7.35 -43.8 12.1 -87.2<g id="3372" transform="matrix(1, 0, 0, 1, -31.6, 0)">
<path style="fill:#000000;fill-opacity:1" d="M493.15,173.4L484.8 171.8Q477.05 170.85 469.65 173.15Q461 175.7 457 183.3Q436.3 222.4 435.1 268.95Q458.6 254.6 484.85 254.7L486.35 257Q487.4 258.75 487.4 261.1Q487.35 264.4 485.2 267L434 280.65L432.55 295.35Q426.9 340.6 442.45 381.45L448.25 382.4L453.75 382.6L459 382.25Q462.2 381.75 465.45 380.6Q476.15 376.85 482.2 367.5Q490.7 354.45 500.05 342.9Q500.8 348.45 499.65 354.3Q495.25 376.4 477.8 390.65Q462.95 402.7 447.1 396.5Q433.9 391.45 428.65 378.35Q426.95 374.05 426.35 369.4Q425.75 364.4 426.05 359.4L426.5 344.8Q426.7 280.5 435.2 216.8Q439.35 185.7 458.45 161Q463.7 159.9 469 159.85Q483.7 158.9 496.2 166.25L496.45 174.05L493.15 173.4M364.85,192.05Q349.5 280.15 352.25 369.7Q353.3 403.4 378.95 384.85Q413.3 360.15 409.2 316.75Q390.95 319.9 374.25 314.95L374.7 305.25Q394.5 301.3 413.85 303.7Q419.25 360.6 409.45 413.45Q403.2 397.95 403.6 381.25L402.4 382.85Q396.05 391.65 387.45 398.35L380.85 402.75L371.45 407.7Q367.6 409.5 363.1 407.95Q359.45 406.7 356.1 404.55Q347.05 398.9 346.3 388.15Q339.35 287.85 357.2 188.95Q362.75 158.2 392.25 155Q412.45 152.75 410.7 172.25Q403.6 167.65 394.7 168Q370.85 169.15 364.85 192.05M328.55,249.3Q326.05 230.8 321.95 212.7Q317.1 191.4 305.3 173.45Q293.05 154.95 271.6 149.3Q272.85 182.95 271.8 216.7Q269.2 303 265.35 387.7L274.1 381.3L268.8 389.85Q271.05 393.6 276.05 391.7Q296.85 383.95 310.55 366.1Q323.55 349.2 327.95 328.15Q332.25 307.5 331.6 286.45Q331.05 267.75 328.55 249.3M336.15,272.05Q341.55 334.65 308.5 385.75Q301.15 397.15 288.95 404.05Q271.6 413.9 262.1 402.65L260.7 408.2Q254.25 396.45 256.15 379Q259.45 349.15 261.5 319.2Q265.45 260.2 265.75 200.75Q265.9 173.75 269.6 148.8L269.45 148.75L269.05 146.45Q268.8 144.2 268.9 141.95Q269.1 139.6 271.15 139.25L271.2 139.05L271.2 139.25Q282.85 139 292.45 145.15Q293.35 145.75 294.45 146Q327.75 179.4 332.2 227.55L336.15 272.05M239.4,145.7L241.45 146.5Q243.7 148.45 245.5 150.8Q248.35 154.55 248.35 159.25Q248.35 160.5 247.45 161.5Q234 154 217.3 150.15L212.45 149.75Q181.35 175.9 174.7 217Q171.25 238.7 168.55 260.55Q195.25 255.6 221.95 252.25Q228.55 257.2 224.65 265.95L224.2 266.75Q196 270.65 167.05 273.15L166.85 274.85Q160.9 328.1 179.75 377.15Q183.55 386.95 192.4 392.85Q198.25 396.8 205.2 394.8Q230.4 387.6 239.35 362.1Q240.45 358.95 242.95 356.7Q246.3 374 235.55 390.85Q218.05 418.15 189.35 406.45Q184.9 404.6 182.2 400.35Q157.3 361.05 159.4 313.4Q160.65 284.35 163.3 255.7Q167.75 207.55 188.05 163.85Q196.35 145.95 212.95 136.5Q227 138.4 239.4 145.7M164.2,136.75Q159.45 180.15 152.1 223.95Q142.4 282.05 133.6 340.2L126.45 385.2Q127.05 392.95 127.3 400.75Q127.35 401.45 126.7 402.2L124.15 398.5Q121.7 399.7 120.95 396.95L121.15 392.75Q117.65 384.55 116.75 374.1Q114.3 344.55 108.35 315.45Q100.45 276.85 99.75 238.2Q90.05 286.5 78.85 335.25Q73.15 360.35 69.05 385.7L69.1 401.7Q69.1 402.45 68.5 403.2Q66.75 400.6 65.35 397.8Q64.4 397.5 64 395.95L64.05 394.95Q60.3 386 59.85 374.8Q59.25 360.15 57.6 345.45Q51.05 286.85 43.2 228.45Q36 174.95 31.65 122.2Q31.6 121.8 32.25 122Q43.7 179.25 50.7 238.2Q57.6 296.75 66.25 355.05L66.85 359.25Q69.95 334.15 76.15 309.35Q81.9 286.4 88.2 263.55Q93.3 245.2 99.65 228.15L99.7 223.25Q99.7 223.1 100.2 223L101.2 223.75L101.3 223.85L102.5 220.7Q102.6 220.5 103.2 220.5L102.1 226.15Q107.35 283.55 119.7 340Q121.9 349.95 123.45 359.95Q127 320 134.3 280.4Q143.65 229.6 153.95 179Q157.65 160.7 161.7 142.75Q163.75 140.1 163.85 136.75L164.2 136.75" />
</g>
</svg>
