<?xml version="1.0" encoding="utf-8"?>
<svg version="1.1" id="Layer_1"
xmlns="http://www.w3.org/2000/svg"
xmlns:xlink="http://www.w3.org/1999/xlink"


xml:space="preserve">
q-24.2 17.7 -32.4 47.95q-10.7 39.8 -7.85 82.75q2.5 37.5 29.85 60.65q34.65 6.2 57.25 -18.55q-1.95 10.85 3.5 17.8q8.5 -27.55 6.2 -55.45q-14.8 0.65 -27.5 7.5q-0.95 3.15 0.7 5.95q-1.75 1.15 -2.15 3.35q-0.4 1.85 -0.35 3.75q-22.3 26.2 -57.5 19.25q-7 -3.75 -10 -10.7q-1.2 -2.8 -3.7 -4.45q-12 -30.95 -10.35 -65.3q1.9 -39.1 22.6 -72.1q4.4 -6.95 12 -9.7q38.25 -13.95 61.75 15.4q1.5 -2.5 0.45 -5.15q-12.4 -30.55 -48.2 -28.85q-7.45 0.85 -13.6 5.35q-9.25 35.25 -18 70.75q-11.85 48.15 -16 97.4q-4.9 -43.55 -12.7 -87q-8.1 19.25 -13.15 41.15q-5.1 22.2 -12.2 43.8q-1.1 -24.15 -4.6 -48.5q-8.55 -58.7 -23.55 -115.3q-3.4 0.9 -2.6 5.15q9.6 51.9 17.8 104.35q4.55 29.1 5.7 58.55q0.5 12.9 7.1 20.9q8.3 -27.95 16 -56.55q5.95 -21.9 7.9 -43.4q1.3 48.55 12.3 95.95q1 2.4 3.4 1.2q4.3 -21.15 8.15 -43.2q10.15 -58.1 22.95 -115.55q3.45 -15.4 1.9 -29.45q-1 -0.1 -1.25 0.85q-11.25 34.35 3.45 65.85q1.35 2.85 3.9 3.95q20.7 8.8 39.4 -7.65q1.3 -4.05 0.55 -8.25q-0.45 -2.2 -2.05 -3.75q-15.6 11.95 -34.25 11.75q-12.15 -15.25 -11.45 -33.65q15 0.65 29.7 -2.1q3.75 -6.3 -0.45 -12q-14.3 1 -28.3 3.95q2.8 -9.2 10 -15.5q14.8 -12.95 34.25 -8.15q-3 -14.8 -22.85 -12.05q-18.1 6.65 -24.25 25.35<g id="3375" transform="matrix(1, 0, 0, 1, -139.1, 0)">
<path style="fill:#000000;fill-opacity:1" d="M372.95,178.75Q408.75 177.05 421.15 207.6Q422.2 210.25 420.7 212.75Q397.2 183.4 358.95 197.35Q351.35 200.1 346.95 207.05Q326.25 240.05 324.35 279.15Q322.7 313.5 334.7 344.45Q337.2 346.1 338.4 348.9Q341.4 355.85 348.4 359.6L349.2 360.2Q384.4 367.15 406.7 340.95L406.7 339.45L406.7 337.95Q406.65 336.05 407.05 334.2Q407.45 332 409.2 330.85L389.45 332.7Q387.8 329.9 388.75 326.75L388.95 325.95Q401.65 319.1 416.45 318.45Q418.75 346.35 410.25 373.9L409.7 374.7Q404.25 367.75 406.2 356.9Q383.6 381.65 348.95 375.45Q321.6 352.3 319.1 314.8Q316.25 271.85 326.95 232.05Q335.15 201.8 359.35 184.1Q365.5 179.6 372.95 178.75M410.25,330.8L411.8 333.05L412.2 330.7L410.25 330.8M244.2,181.25Q245.75 195.3 242.3 210.7Q229.5 268.15 219.35 326.25Q215.5 348.3 211.2 369.45Q208.8 370.65 207.8 368.25L207.7 368.2Q196.7 320.8 195.4 272.25Q193.45 293.75 187.5 315.65Q179.8 344.25 171.5 372.2L170.55 369.9L170.5 369.95Q163.9 361.95 163.4 349.05Q162.25 319.6 157.7 290.5Q149.5 238.05 139.9 186.15Q139.1 181.9 142.5 181Q157.5 237.6 166.05 296.3Q169.55 320.65 170.65 344.8L170.9 343.95Q178 322.35 183.1 300.15Q188.15 278.25 196.25 259L196.05 263.25L196.25 263.25Q204.05 306.7 208.95 350.25Q213.1 301 224.95 252.85Q233.7 217.35 242.95 182.1Q243.2 181.15 244.2 181.25M276.95,271.2Q296.8 268.45 299.8 283.25L299.7 283.95Q280.25 279.15 265.45 292.1Q258.25 298.4 255.45 307.6L254.15 312.65Q268.15 309.7 282.45 308.7Q286.65 314.4 282.9 320.7L282.45 321.2Q267.75 323.95 252.75 323.3Q252.05 341.7 264.2 356.95Q282.85 357.15 298.45 345.2Q300.05 346.75 300.5 348.95Q301.25 353.15 299.95 357.2L299.45 358.7Q280.75 375.15 260.05 366.35Q257.5 365.25 256.15 362.4Q241.45 330.9 252.7 296.55Q258.85 277.85 276.95 271.2" />
</g>
</svg>
