<?xml version="1.0" encoding="utf-8"?>
<svg version="1.1" id="Layer_1"
xmlns="http://www.w3.org/2000/svg"
xmlns:xlink="http://www.w3.org/1999/xlink"


xml:space="preserve">
q-6.25 31.5 -10.5 63.5q-7.9 58.9 -19.25 117.05q-4.85 -59.05 -5.9 -118.45q-0.55 -30.65 -5.95 -59.25q-2.6 0.15 -3.15 3q-11.4 58.85 -21.4 117.85q-10.1 59.3 -21.9 118.35q-1.5 7.45 -4.25 14.35q-5.5 13.7 0.45 22.4q1.75 -1.85 2.35 -4.4q13.5 -58.8 23.35 -118.75q9.75 -59.1 21.55 -117.55q2.4 59.35 7.2 118.4q2.45 29.5 1.4 59.3q-0.45 13.7 5.95 21.55q11.2 -42.7 16.25 -87.05q6.75 -59.4 20.5 -117.4q4.95 59.15 9.5 118.4q-2.4 -11.6 -7.25 -22.25q2 9.55 5.5 19.5q1.55 13.25 7 24.75q5.2 -3.65 4 -11.25q-2.85 -18.15 -4.45 -36.6q-5.25 -58.75 -9.35 -117.85q-4.1 -59.25 -6.7 -118.6q-0.6 -14.2 -7.25 -20.9q-3.15 10.05 -5.25 20.7q-2.15 59.15 -3.95 118.55q-1.8 59.45 -8.3 118.3q-2.55 23.2 0.6 44.4q6.1 -9 -1.25 -17q-25.95 2.45 -49.25 1.75q0.8 -16.95 2.15 -33.8q4.65 -58.95 6.55 -118.4q1.9 -59.25 4.95 -118.45q0.85 -16.75 -4.4 -29.55q-2.15 16.7 -2.85 35.95q-9.1 -21.7 -35.3 -21.9q-5.45 0.45 -10.4 3.2q-9.9 5.4 -17.35 14.05q-5.7 10.4 -8.1 21.9q-12.05 57.5 -14.45 116.75q-2.45 59.6 8.25 117.7q2.8 15.4 13.3 26.95q7.75 8.5 18.9 5.55q14.5 -3.9 25.9 -13.7q17.75 -15.3 11.45 -33.2q-10 12.65 -22.55 24.2q-10.4 9.65 -24.15 7.1q-7.6 -1.4 -10.15 -8.55q-17.1 -47.35 -15.2 -99.25q21.8 -5.05 44.05 -8.1q3.95 -8.5 -2.7 -12.95q-21.45 1.9 -41.3 10.55q1.2 -28.4 2.8 -56.65q1.95 -34.4 15.5 -65.9q6.8 -7.8 15.7 -12.1q6.3 -3.1 13.1 -2.1q17.95 2.6 31.45 10.45q0.85 -2.2 0.05 -4.1q-8.65 39.65 -12.8 81.6q-5.85 58.55 -13.65 116.85q-6.5 48.55 -10.05 97.1q-3.15 -33.35 -8.8 -66.75q-9.8 -58.3 -21.35 -116.1q-1.8 -0.3 -2.35 1.45q-7.6 22.2 -11.2 45.6q-8.9 57.9 -17.3 116.35q-1.1 7.6 -3.25 14.65q-0.85 2.85 -1.4 5.6q-4.3 -20.6 -7 -41.5q-7.6 -58.45 -14.55 -117.05q-6.95 -58.55 -12.1 -117.25q-1.5 -16.8 -9.3 -28.6q-1.15 0.4 -1.05 1.65q2.95 33.95 7.65 68.3q7.95 58.35 15.2 116.9q5.4 43.85 8.8 88q2.35 30.35 11.4 57.35q1.7 -2.3 2.65 -4.8q6.3 -15 8.55 -32.6q7.45 -58.6 16.55 -116.35q2.3 -14.75 6.3 -28.95q1.75 -6.15 2.4 -12.15q0.75 23.4 5.15 47q10.7 57.7 17.45 116.2q1.5 13.4 6.6 23.4q0.25 1.45 1.45 1.9q0.5 -0.75 0.45 -1.45q6.95 -40.45 11.7 -81.6q6.75 -58.45 13.75 -116.95q7.1 -59 9.75 -117.1q-6.3 14.45 -6 31.35q1.05 60 -3.05 119.3q-4.05 58.9 -5.3 118.4q-0.3 15 -2.65 29.75q-2.65 16.5 3.05 30q0.9 -0.6 1 -1.35q5.85 -44.85 6.55 -90.6q0.5 -34.15 2 -68.1q16.25 -0.95 31.8 2.5q-2.05 59.15 -5.3 118.45q-0.9 16.9 4.95 29.3q4.25 -15.65 4.5 -33q0.9 -59.25 2.9 -118.45q1.8 -2.7 1.5 -6.15q1.05 -20.55 2.9 -40.95q5.4 -59.25 2.6 -117.9q-4.35 30.35 -6.85 62.9q-3.5 46.3 -5.5 93q-12.6 -3.15 -25.9 -3.15q-1.5 0.25 -2.9 0.65q0.95 -19.3 2.2 -38.6q3.85 -59.85 2.2 -118.5q-0.5 0 -0.55 0.15<g id="3363" transform="matrix(1, 0, 0, 1, -42.85, 0)">
<path style="fill:#000000;fill-opacity:1" d="M495.7,116.5Q502.35 123.2 502.95 137.4Q505.55 196.75 509.65 256Q513.75 315.1 519 373.85Q520.6 392.3 523.45 410.45Q524.65 418.05 519.45 421.7Q514 410.2 512.45 396.95Q508.95 387 506.95 377.45Q511.8 388.1 514.2 399.7L505.55 282.4Q501 223.15 496.05 164L495.45 157.25Q481.7 215.25 474.95 274.65Q469.9 319 458.7 361.7Q452.3 353.85 452.75 340.15Q453.8 310.35 451.35 280.85Q446.55 221.8 444.15 162.45L443.45 149.25Q431.65 207.7 421.9 266.8Q412.05 326.75 398.55 385.55Q397.95 388.1 396.2 389.95Q390.25 381.25 395.75 367.55Q398.5 360.65 400 353.2Q411.8 294.15 421.9 234.85Q431.9 175.85 443.3 117Q443.85 114.15 446.45 114Q451.85 142.6 452.4 173.25Q453.45 232.65 458.3 291.7L460.7 317.75Q472.05 259.6 479.95 200.7Q484.2 168.7 490.45 137.2Q492.55 126.55 495.7 116.5M363.95,104Q369.2 116.8 368.35 133.55Q365.3 192.75 363.4 252Q361.5 311.45 356.85 370.4Q355.5 387.25 354.7 404.2Q378 404.9 403.95 402.45Q411.3 410.45 405.2 419.45L349.45 421.2Q346.3 400 348.85 376.8Q355.35 317.95 357.15 258.5Q358.95 199.1 361.1 139.95Q361.8 120.7 363.95 104M342.2,126Q328.7 118.15 310.75 115.55Q303.95 114.55 297.65 117.65Q288.75 121.95 281.95 129.75Q268.4 161.25 266.45 195.65Q264.85 223.9 263.65 252.3Q283.5 243.65 304.95 241.75Q311.6 246.2 307.65 254.7L307.2 255.5Q284.95 258.55 263.15 263.6L262.4 282.7Q260.5 334.6 277.6 381.95Q280.15 389.1 287.75 390.5Q301.5 393.05 311.9 383.4Q324.45 371.85 334.45 359.2Q340.75 377.1 323 392.4Q311.6 402.2 297.1 406.1Q285.95 409.05 278.2 400.55Q267.7 389 264.9 373.6Q254.2 315.5 256.65 255.9Q259.05 196.65 271.1 139.15Q273.5 127.65 279.2 117.25Q286.65 108.6 296.55 103.2Q301.5 100.45 306.95 100Q333.15 100.2 342.25 121.9Q343.05 123.8 342.2 126M190.2,92Q187.55 150.1 180.45 209.1Q173.45 267.6 166.7 326.05Q161.95 367.2 155 407.65L155.15 410.25Q155.2 410.95 154.7 411.7L153.4 409.6Q152.2 409.15 151.95 407.7L152 407Q146.9 397 145.4 383.6Q138.65 325.1 127.95 267.4Q123.55 243.8 122.8 220.4Q122.15 226.4 120.4 232.55Q116.4 246.75 114.1 261.5Q105 319.25 97.55 377.85Q95.3 395.45 89 410.45L88.65 409.65Q87.7 412.15 86 414.45Q76.95 387.45 74.6 357.1Q71.2 312.95 65.8 269.1Q58.55 210.55 50.6 152.2Q45.9 117.85 42.95 83.9Q42.85 82.65 44 82.25Q51.8 94.05 53.3 110.85Q58.45 169.55 65.4 228.1Q72.35 286.7 79.95 345.15Q82.65 366.05 86.95 386.65Q87.5 383.9 88.35 381.05Q90.5 374 91.6 366.4Q100 307.95 108.9 250.05Q112.5 226.65 120.1 204.45Q120.65 202.7 122.45 203L122.75 204.95L123.2 204.75Q134.75 262.55 144.55 320.85Q150.2 354.25 153.35 387.6Q156.9 339.05 163.4 290.5Q171.2 232.2 177.05 173.65Q181.2 131.7 189.85 92.05L190.2 92M204.45,91.25Q206.1 149.9 202.25 209.75Q201 229.05 200.05 248.35Q201.45 247.95 202.95 247.7L205.95 247.1L205.95 247Q219.25 247 231.85 250.15Q233.85 203.45 237.35 157.15Q239.85 124.6 244.2 94.25Q247 152.9 241.6 212.15Q239.75 232.55 238.7 253.1L239.4 255.25L239.7 257.5Q240 260.95 238.2 263.65L237.85 272Q235.85 331.2 234.95 390.45Q234.7 407.8 230.45 423.45Q224.6 411.05 225.5 394.15Q228.75 334.85 230.8 275.7L231.3 262.65Q215.75 259.2 199.5 260.15Q198 294.1 197.5 328.25Q196.8 374 190.95 418.85Q190.85 419.6 189.95 420.2Q184.25 406.7 186.9 390.2Q189.25 375.45 189.55 360.45Q190.8 300.95 194.85 242.05Q198.95 182.75 197.9 122.75Q197.6 105.85 203.9 91.4Q203.95 91.25 204.45 91.25" />
</g>
</svg>
