<?xml version="1.0" encoding="utf-8"?>
<svg version="1.1" id="Layer_1"
xmlns="http://www.w3.org/2000/svg"
xmlns:xlink="http://www.w3.org/1999/xlink"


xml:space="preserve">
q-36.7 4.45 -73 7.5q-2.65 5.7 1 10.5q-2.85 10.4 -2.9 22.55q-0.4 59.75 -3.75 119.15q-1 16.85 4.5 29.3q1.15 -0.85 1.25 -2.25q1.9 -29.6 2.25 -60.5q0.6 -55.15 2 -108.5q16.85 -1.4 33.5 -4.2q3.4 -6.25 -0.45 -11.95q-6.4 42 -4.9 85.15q-13.05 1.05 -25.4 3.75q0.35 -34.95 0.3 -69.25q-5.3 22.05 -5.4 46.35q-0.3 59.5 -2.05 118.45q1.05 2.2 3.25 2.25q3.45 -23.85 3.95 -48.75q13.3 1.55 26.2 -2.2q1.8 29.5 -0.1 59.45q-1.1 16.85 4.35 29.3q4.45 -48.95 1.4 -99.05q-1.8 -30.05 0.4 -59.8q1.15 -15.7 -0.05 -30.1q-1.5 0.05 -1.75 1.6q-11.4 57.8 -24.25 115.3q-5.05 22.6 -5.95 45.2q-11 -48.25 -19.45 -97.45q-11.25 20.9 -15.65 46.35q-4.3 24.65 -11.95 48.45q-2.05 -24.7 -6 -49.55q-9.3 -57.95 -20.15 -115.35q-2.65 24.75 2.5 51.9q11 57.7 17.15 116.1q1.7 16.1 7.6 28.45q0.6 -0.75 0.6 -1.45q12.4 -45.8 23.5 -92.5q6.7 51.3 21.45 99.75q4.6 -5.6 4.75 -11.75q3.65 -9.5 5.3 -19.8q9.2 -58.05 22.6 -115.4q5.25 -22.5 3.6 -43.75q-3.75 4.7 -5.15 11.85q-13.8 42.3 -22.45 87.65q-4.75 22.15 -10.95 43.9q-6.5 22.8 -4.6 43.9q6.05 -5.75 7.95 -15.55q6.7 -34 13.95 -67.95q14.25 -0.95 28 -4.4q2.25 16.65 10 28q1.2 -1.2 1.15 -2.95q-1.05 -20.85 -4.45 -41.55q-9.5 -57.65 -16.85 -116.15q-1.95 -15.7 -6.6 -28.55<g id="3384" transform="matrix(1, 0, 0, 1, -138.6, 0)">
<path style="fill:#000000;fill-opacity:1" d="M389.9,192.7L389.45 193.25Q372.8 196.05 355.95 197.45Q354.55 250.8 353.95 305.95Q353.6 336.85 351.7 366.45Q351.6 367.85 350.45 368.7Q344.95 356.25 345.95 339.4Q349.3 280 349.7 220.25Q349.75 208.1 352.6 197.7L317.45 198.75Q313.8 193.95 316.45 188.25Q352.75 185.2 389.45 180.75Q393.3 186.45 389.9 192.7M421.2,182.5Q422.4 196.9 421.25 212.6Q419.05 242.35 420.85 272.4Q423.9 322.5 419.45 371.45Q414 359 415.1 342.15Q417 312.2 415.2 282.7Q402.3 286.45 389 284.9L388.4 322.2Q387.9 347.1 384.45 370.95Q382.25 370.9 381.2 368.7Q382.95 309.75 383.25 250.25Q383.35 225.95 388.65 203.9L389.45 203.75Q389.5 238.05 389.15 273Q401.5 270.3 414.55 269.25Q413.05 226.1 419.45 184.1Q419.7 182.55 421.2 182.5M251.2,181Q252.85 202.25 247.6 224.75Q234.2 282.1 225 340.15Q223.35 350.45 219.7 359.95Q219.55 366.1 214.95 371.7Q200.2 323.25 193.5 271.95L192.45 276.6Q181.35 323.3 168.95 369.1L169.1 373.5Q169.1 374.2 168.5 374.95Q162.6 362.6 160.9 346.5Q154.75 288.1 143.75 230.4Q138.6 203.25 141.25 178.5Q152.1 235.9 161.4 293.85Q165.35 318.7 167.4 343.4L167.65 342.55Q175.3 318.75 179.6 294.1Q184 268.65 195.25 247.75L195.4 254.2L196 254.75Q204.45 303.95 215.45 352.2L215.7 353.45L215.85 353.35Q216.75 330.75 221.8 308.15Q234.65 250.65 246.05 192.85Q247.45 185.7 251.2 181M287.95,183.25Q292.6 196.1 294.55 211.8Q301.9 270.3 311.4 327.95Q314.8 348.65 315.85 369.5Q315.9 371.25 314.7 372.45Q306.95 361.1 304.7 344.45L296.35 281.8Q282.6 285.25 268.35 286.2Q261.1 320.15 254.4 354.15Q252.5 363.95 246.45 369.7Q244.55 348.6 251.05 325.8Q257.25 304.05 262 281.9L262.7 278.55L264.75 268.4Q273.4 223.05 287.2 180.75L287 184.05L287.95 183.25M277.95,272.55L294.8 270L286.15 194L271.2 272.9L277.95 272.55" />
</g>
</svg>
