<?xml version="1.0" encoding="utf-8"?>
<svg version="1.1" id="Layer_1"
xmlns="http://www.w3.org/2000/svg"
xmlns:xlink="http://www.w3.org/1999/xlink"


xml:space="preserve">
q-11 20.4 -15.3 43.7q-3.75 20.35 1.8 40.25q2 7.25 5.5 13.75q6.05 -4.05 8.85 -10.85q0.9 -2.2 1.15 -4.5q0.5 -4.15 -1.15 -6.95q-3.05 -3.5 -8.1 -2.15q2.25 -20.8 10.9 -39.85q2.7 -6.1 -0.15 -12.25q-1.45 -3.2 -3.85 -5.75q-42.9 34.7 -45.05 92.6q-0.9 24.95 2.95 49.85q2.95 18.9 10.65 36.65q0.7 1.55 1.8 2.75q3.85 4.35 9.45 6.2q9.85 3.2 19.75 0.2q12.2 -3.55 20.5 -13.15q8.1 -30.85 2.75 -65.25q-4.75 2.05 -9.4 4.9q-2.85 1.75 -4.6 4.6q-0.15 34.5 -34.15 38.65q-10.05 1.1 -17.3 -6.5q-5.95 -6.25 -7.85 -14.7q-1.2 -5.35 -1.7 -10.6q-2.05 -22.75 0.4 -45.35q2.55 -23.45 8.5 -46.35q11.5 -44.45 48.85 -29.55q3.2 1.25 6.75 1.8q0.2 0.75 0.85 1.3q-5.75 -20.8 -27.55 -22.6q-14.8 78.45 -35.1 155.75q-1.05 3.95 -1.95 8q-11.9 32.25 -18.65 66.2q-10.95 -77.05 -32.45 -152.35q-2.55 17.8 2.5 37.8q5.2 21.5 8.65 43.15q2.9 18.1 5.15 36.3q2.85 22.7 7.95 41.35q3.2 49.7 17.2 97.35q5.65 -5.95 6.85 -13.95q2.3 -15.45 5.85 -30.75q3.6 -15.5 6.45 -31q4.05 -21.7 9.55 -43.1q7.35 -28.65 7.7 -58.25q-10.5 42.35 -19.95 85.7q-3.1 14.35 -6.75 28.55q-3.65 14.4 -7 28.85q-3.3 14.4 -5.85 29q-1.35 7.55 -2.05 15.25q19 -36.85 25.25 -85.5q2 45.95 12.35 86.85q0.1 -91.05 -17.1 -181q-0.6 -3.25 -0.35 -6.6q-1.4 2.55 -3.05 0.3<g id="3393" transform="matrix(1, 0, 0, 1, -139.7, 0)">
<path style="fill:#000000;fill-opacity:1" d="M337.2,180.25Q339.6 182.8 341.05 186Q343.9 192.15 341.2 198.25L335.95 190.25Q327.3 209.3 325.05 230.1L329.45 229.05Q334.5 227.7 337.55 231.2L337.8 232.2L337.85 233.2L337.65 234.4L337.05 235.6L333.7 240.25L324.4 241.65L326.95 265.25L335.8 255.4Q337.45 258.2 336.95 262.35Q336.7 264.65 335.8 266.85Q333 273.65 326.95 277.7Q323.45 271.2 321.45 263.95Q315.9 244.05 319.65 223.7Q323.95 200.4 334.95 180L337.2 180.25M389.9,180.65Q411.7 182.45 417.45 203.25L417.3 203.55L417.05 203.75L416.3 204.1L415.65 204.25L415.05 203.9Q414.4 203.35 414.2 202.6Q410.65 202.05 407.45 200.8Q370.1 185.9 358.6 230.35Q352.65 253.25 350.1 276.7Q347.65 299.3 349.7 322.05Q350.2 327.3 351.4 332.65Q353.3 341.1 359.25 347.35Q366.5 354.95 376.55 353.85Q410.55 349.7 410.7 315.2L390.5 316.2L389.95 313.2Q391.7 310.35 394.55 308.6Q399.2 305.75 403.95 303.7L414.2 305.45Q419.55 339.85 411.45 370.7L407 355.6Q398.7 365.2 386.5 368.75Q376.6 371.75 366.75 368.55Q361.15 366.7 357.3 362.35Q356.2 361.15 355.5 359.6Q347.8 341.85 344.85 322.95Q341 298.05 341.9 273.1Q344.05 215.2 386.95 180.5L389.9 180.65M256.35,195.65Q256 225.25 248.65 253.9Q243.15 275.3 239.1 297Q236.25 312.5 232.65 328Q229.1 343.3 226.8 358.75Q225.6 366.75 219.95 372.7L215.65 358.95Q201.65 311.3 198.45 261.6L174.7 370.85Q169.6 352.2 166.75 329.5Q164.5 311.3 161.6 293.2Q158.15 271.55 152.95 250.05L144.75 216.8Q139.7 196.8 142.25 179Q163.75 254.3 174.7 331.35L179.45 310Q186.2 276.05 198.1 243.8L219.15 345Q220.05 340.95 221.1 337Q241.4 259.7 256.2 181.25L256.35 195.65M292.15,181.05Q293.8 183.3 295.2 180.75Q294.95 184.1 295.55 187.35Q312.75 277.3 312.65 368.35Q302.3 327.45 300.3 281.5L275.85 283.3Q269.6 331.95 250.6 368.8L250.35 368.3Q251.05 360.6 252.4 353.05Q254.95 338.45 258.25 324.05Q261.6 309.6 265.25 295.2Q268.9 281 272 266.65Q281.45 223.3 291.95 180.95L292.15 181.05M286.6,238.7L278.4 272.9L299.1 269.45L292.25 209.8L286.6 238.7" />
</g>
</svg>
