<?xml version="1.0" encoding="utf-8"?>
<svg version="1.1" id="Layer_1"
xmlns="http://www.w3.org/2000/svg"
xmlns:xlink="http://www.w3.org/1999/xlink"


xml:space="preserve">
q5.85 -37.45 44.7 -37q-3 -8.7 -12.4 -8.55q-45.5 15.1 -38.55 64.05q8.3 58.55 32.5 113.2q10.7 24.15 8.85 49.45q-1.15 15.5 -7.3 30q-17.75 42.2 -63 35.75q-2.95 1 -3.8 4.05q-1.45 4.9 0.05 9.7q1.4 2.05 3.85 2.55q44.6 9.15 64.3 -31.7q6.9 -14.3 10.5 -29.75q10.1 -43.6 -8.95 -85.25q-18.75 -40.95 -27.15 -84.75q-2.75 -14.25 -0.5 -28.8q-11.9 31.8 -17 67.45q-18.85 -56.4 -35.1 -112.8q-0.5 0.1 -0.5 0.2q3.15 40 18.45 78.8q11.1 28 16.1 57.3q1.95 11.4 6.8 20.2q-9.1 58.35 -16.7 116.4q1.1 2.15 3.5 1.5q2.65 -4.35 3.45 -9.65q9.15 -58.5 17.15 -117.15q3.5 -5.65 1.75 -12.3q5.95 -39.65 13.05 -79.05q5.45 -30 8.7 -58.65q-8.85 58.85 -15.65 118.1q-6.75 58.4 -14.1 116.55q-6.4 -39.65 -11.65 -79.65q-5.6 -43.1 -14.75 -84.75q-1.1 0 -1.55 1.05q-4.95 12 -7.3 25.15q-10.25 58 -23.4 115.55q-5.6 24.45 -4.95 48.4q-5.05 -17 -7.4 -34.6q-7.8 -58.55 -16.3 -117q-2.3 -15.9 -7.3 -28.6q0.05 31.6 5.55 63.7q9.95 58.25 16.4 117q6.5 59.2 19.05 117q2.1 9.6 7.4 13.25q2.75 -3.5 1.75 -7.7q2.9 -11.55 4.8 -23.4q9.45 -58.1 22.2 -115.6q4.25 -19.1 6.5 -37.75q6.85 54.05 15.15 108.1q4.5 29.4 7.55 58.75q1.3 12.75 6.55 20.6q1.6 -3.25 2.05 -6.8q1.75 -2.25 1.95 -5.15q3.95 -58.95 10.25 -117.7q6.3 -58.8 16.8 -116.95q5.35 -29.9 6.45 -58.6q-6.55 16.35 -9.4 35.3q-7.15 20.35 -10.4 43q-8.3 58.65 -17.15 117.25q-8.85 58.65 -21.8 116.6q-3.75 16.85 2 29.1q3.1 -8.95 4.65 -18.4q9.65 -58.2 18.7 -116.45q1.2 14.2 2.55 28.35q5.55 59 12.65 117.7q0.65 2.5 3.25 2.5q0.75 -0.6 0.75 -1.25q-0.85 -38.45 -5.9 -77.35q-7.65 -58.5 -11 -117.65q-3.2 -56.4 -9.85 -111.65q2.9 42.3 6.55 84.45q-0.35 -0.4 -0.75 -0.4q-9.5 0.1 -17.9 3.5q8.15 -51.95 17 -103.75q2.2 -13.05 3.7 -25.85q1.2 21.65 2.75 43.2<g id="3388" transform="matrix(1, 0, 0, 1, -81.8, 0)">
<path style="fill:#000000;fill-opacity:1" d="M383.25,189.3Q391.65 233.1 410.4 274.05Q429.45 315.7 419.35 359.3Q415.75 374.75 408.85 389.05Q389.15 429.9 344.55 420.75Q342.1 420.25 340.7 418.2Q339.2 413.4 340.65 408.5Q341.5 405.45 344.45 404.45L345.7 404.85L346.65 405.85L347.45 406.7Q392.7 413.15 410.45 370.95Q416.6 356.45 417.75 340.95Q419.6 315.65 408.9 291.5Q384.7 236.85 376.4 178.3Q369.45 129.35 414.95 114.25Q424.35 114.1 427.35 122.8L427.45 123.5Q388.6 123.05 382.75 160.5Q380.5 175.05 383.25 189.3M357.5,171.9Q350.4 211.3 344.45 250.95Q346.2 257.6 342.7 263.25L342.65 263.2L339.05 288.65Q331.05 347.3 321.9 405.8Q321.1 411.1 318.45 415.45Q316.05 416.1 314.95 413.95Q322.55 355.9 331.65 297.55L338.05 256.25Q333.2 247.45 331.25 236.05Q326.25 206.75 315.15 178.75Q299.85 139.95 296.7 99.95Q296.7 99.85 297.2 99.75Q313.45 156.15 332.3 212.55L340.7 238.6L349.2 180.7Q354.3 145.05 366.2 113.25Q362.95 141.9 357.5 171.9M232.2,104Q231.1 132.7 225.75 162.6Q215.25 220.75 208.95 279.55Q202.65 338.3 198.7 397.25Q198.5 400.15 196.75 402.4Q196.3 405.95 194.7 409.2Q189.45 401.35 188.15 388.6Q185.1 359.25 180.6 329.85Q172.3 275.8 165.45 221.75Q163.2 240.4 158.95 259.5Q146.2 317 136.75 375.1Q134.85 386.95 131.95 398.5Q132.95 402.7 130.2 406.2Q124.9 402.55 122.8 392.95Q110.25 335.15 103.75 275.95Q97.3 217.2 87.35 158.95Q81.85 126.85 81.8 95.25L82 94.75Q87 107.45 89.3 123.35L106.3 240.3Q114.8 298.75 122.6 357.3Q124.95 374.9 130 391.9Q129.35 367.95 134.95 343.5Q148.1 285.95 158.35 227.95Q160.7 214.8 165.65 202.8Q166.1 201.75 167.2 201.75L166.65 209.55Q175.8 251.2 181.4 294.3Q186.65 334.3 193.05 373.95Q200.4 315.8 207.15 257.4Q213.95 198.15 222.8 139.3Q225.65 120.35 232.2 104M268.2,100.25L268.45 102.25L269.2 100.25L268.95 106.3Q275.6 161.55 278.8 217.95Q282.15 277.1 289.8 335.6Q294.85 374.5 295.7 412.95Q295.7 413.6 294.95 414.2Q292.35 414.2 291.7 411.7Q284.6 353 279.05 294Q277.7 279.85 276.5 265.65L275.65 267.95L274.7 269.5L244.8 270.55L244 275.75Q234.95 334 225.3 392.2Q223.75 401.65 220.65 410.6L219.95 411.45Q214.2 399.2 217.95 382.35Q230.9 324.4 239.75 265.75Q248.6 207.15 256.9 148.5Q260.15 125.85 267.3 105.5L268.2 100.25M266.75,133.15Q265.25 145.95 263.05 159Q254.2 210.8 246.05 262.75Q254.45 259.35 263.95 259.25L275.2 260.1Q275.6 260.1 275.95 260.5L276.05 260.8Q272.4 218.65 269.5 176.35Q267.95 154.8 266.75 133.15" />
</g>
</svg>
