<?xml version="1.0" encoding="utf-8"?>
<svg version="1.1" id="Layer_1"
xmlns="http://www.w3.org/2000/svg"
xmlns:xlink="http://www.w3.org/1999/xlink"


xml:space="preserve">
q-21.4 34.2 -17.35 75.1q0.8 8.2 4.85 15.35q16.35 0.65 19.25 -17.3q0.95 -5.8 -1.15 -9q8.3 4.85 16.65 -0.55q3.35 -10.75 -8.3 -9.1q-3.6 0.7 -6.95 1.8q-3.7 -21.15 13.25 -38.7q4.25 -13.8 -5 -25.5q-1.6 0.7 -1.65 2.9q-0.1 1.9 0.4 3.75q-5.25 29.1 -6.85 60.05q-1 3.25 -0.8 6.75q0.15 2.25 1.3 3.95q-1.7 45.9 -1 91.5q1.6 1.65 1.9 -0.4q4.6 -33.6 5.45 -68.85q21 0.15 38.35 -13.6q16.35 -13 15 -33q-2.95 -44.75 -49.45 -48.85q32 4.8 45.95 32.1q-0.9 22.55 -21.8 34.75q-12.25 7.1 -26.35 6.95q-15.15 49.9 -24.75 101.45q-2.05 10.9 -4.8 21.7q-2.7 10.75 -6.25 21.2q-3.65 10.8 -6.15 21.9q-2.4 10.5 1.95 20.45q4.95 33.65 12.75 66.7q2.45 10.55 6.2 20.6q3.4 -10.4 1.25 -21.3q-1.55 -8.05 -3.55 -15.9q-4.1 -16.05 -7.9 -32.1q-3.2 -13.4 -5.7 -27.05q-7.55 -41.3 -10.6 -83.25q1.75 14.7 2.95 29.5q1.65 20.75 5.25 41.2q1.5 8.7 5.9 16.3q13.45 -25.85 15.85 -55.85q0.9 -11.1 3.05 -22.05q1.05 -5.55 2.35 -11q-1.6 46.55 16.7 90.65q12.4 -34.35 17.9 -70.7q2.2 -14.6 5.4 -29q-22.5 79.75 -40.85 160.55q-9.05 -49.55 -11.25 -99.6q-8.45 14.8 -11.45 34q-7.25 -84.25 -28.9 -165.8q-1.7 19.7 4.65 41.5q4.05 14.05 6.05 28.7q1.85 13.2 4.9 26q-0.4 20.05 2.4 40<g id="3380" transform="matrix(1, 0, 0, 1, -139.55, 0)">
<path style="fill:#000000;fill-opacity:1" d="M336.2,180.25Q345.45 191.95 341.2 205.75L335.45 190.75Q318.5 208.3 322.2 229.45Q325.55 228.35 329.15 227.65Q340.8 226 337.45 236.75Q329.1 242.15 320.8 237.3L320.45 258L327.7 258.75L338.55 244.15Q340.65 247.35 339.7 253.15Q336.8 271.1 320.45 270.45Q316.4 263.3 315.6 255.1Q311.55 214.2 332.95 180L336.2 180.25M361.95,183.5L362.2 183.5Q408.7 187.6 411.65 232.35Q413 252.35 396.65 265.35Q379.3 279.1 358.3 278.95L357.8 298.95Q356.95 334.2 352.35 367.8Q352.05 369.85 350.45 368.2Q349.75 322.6 351.45 276.7Q350.3 275 350.15 272.75Q349.95 269.25 350.95 266L351.2 265.25L351.9 265.3L352.6 250.5Q354.2 219.55 359.45 190.45Q358.95 188.6 359.05 186.7Q359.1 184.5 360.7 183.8L361.2 181.25L361.15 183.65L361.95 183.5M385,258.55Q405.9 246.35 406.8 223.8Q392.85 196.5 360.85 191.7L358.65 265.5Q372.75 265.65 385 258.55M296.95,192.1Q300 234.05 307.55 275.35Q310.05 289 313.25 302.4Q317.05 318.45 321.15 334.5Q323.15 342.35 324.7 350.4Q326.85 361.3 323.45 371.7Q319.7 361.65 317.25 351.1Q309.45 318.05 304.5 284.4L277.95 281.9L254.45 372.2Q250.1 362.25 252.5 351.75Q255 340.65 258.65 329.85Q262.2 319.4 264.9 308.65Q267.65 297.85 269.7 286.95Q279.3 235.4 294.45 185.5L297 184L296.95 192.1M151.95,251.7Q149.95 237.05 145.9 223Q139.55 201.2 141.25 181.5Q162.9 263.05 170.15 347.3L170.65 344.8L176.05 320.4L177.55 312.1L179.8 297.75L181.6 286.1Q184.6 266.9 193.05 252.1L194.25 249.5Q196.45 299.55 205.5 349.1L206.35 344.3Q224.7 263.5 247.2 183.75L242.3 212.45L237 241.2L231 270Q227.8 284.4 225.6 299Q220.1 335.35 207.7 369.7Q189.4 325.6 191 279.05Q189.7 284.5 188.65 290.05Q186.5 301 185.6 312.1Q183.2 342.1 169.75 367.95Q165.35 360.35 163.85 351.65Q160.25 331.2 158.6 310.45Q157.4 295.65 155.65 280.95L151.95 251.7M294.65,206.6L279.1 271.05L301.95 272.6Q298.9 259.8 297.05 246.6Q294.25 226.65 294.65 206.6" />
</g>
</svg>
