<?xml version="1.0" encoding="utf-8"?>
<svg version="1.1" id="Layer_1"
xmlns="http://www.w3.org/2000/svg"
xmlns:xlink="http://www.w3.org/1999/xlink"


xml:space="preserve">
q-36.05 2.4 -72.25 6.5q-1 1.3 -1.2 2.95q-0.55 4.25 1.2 8.3q-2.1 8.4 -2.25 18.45q-0.45 40 -2.7 79.55q-1.7 30.05 -5.3 59.75q-2 16.45 3.05 29.9q5.75 -10.15 5.5 -23q-0.25 -26.4 1.65 -53.45q3.95 -56.25 2.55 -111.3q1.4 -1.2 1.85 -3q1.45 -5.5 -1.1 -10.5q-0.35 -0.4 -0.8 -0.5q-0.45 32.1 -2.15 64.1q-10.9 1.35 -21.8 4.8q0.15 -30.25 -1.7 -60.3q-4.9 8.15 -5.2 20.25q-1 29.8 -5.8 59.05q-2.35 14.3 4.85 21.95q5.6 -23.95 7.4 -49.35q1.65 -23 2.1 -45.9q11.75 -1.3 23.55 -3.5q-2.65 30.6 0.75 59.35q2.45 0.2 2.7 -2.25q3.65 -36 6.5 -72.6q4.75 -59.8 1.05 -118.6q-4.85 5.85 -5 15.75q22.15 -5.7 30.95 16.45q2.65 -28 -27.3 -32.7q-13.45 5.55 -21.15 18.3q-16 26.6 -21.95 58.1q-10.6 56.15 9.15 108.1q1.1 2.85 3.45 4q28.95 14.25 54.6 -7.65q16.25 -13.9 7.4 -29.4q-19.85 32.8 -58.75 25q-12.35 -22.85 -11.8 -49.5q0.25 -11.8 0.9 -23.5q24.6 -2.1 49.9 -7q3.75 -7.2 -0.9 -13.4q-25.75 1.55 -48.95 11.05q0.6 -8.4 1.45 -16.75q3.6 -35.4 28 -59.05q1.85 25.15 6.35 50.5q10.35 58.1 14.3 116.9q1.1 16.15 6.95 28.35q0.5 -0.6 0.6 -1.2q5.7 -20.25 8.9 -41.95q3.05 -20.6 6.75 -41.3q1 11.15 2.9 22.45q5.15 30.45 13.9 58.05q8.25 -30 13.35 -61.45q5.9 -36.4 13.45 -72.45q6.2 -29.9 6.2 -58.8q-8.25 22 -12.3 47.95q-9.05 58.2 -22.95 115.4q-7.15 -37.15 -12.8 -74.1q0.85 -10.4 0.85 -20.5q-0.45 5.45 -0.6 10.95q-5.95 16.9 -7.9 35.7q-2.6 25.15 -8.75 49.65q-1 -26.9 -4.3 -53.95q-7.15 -58.8 -22.15 -115.35q-1.5 -0.1 -1.35 1.45<g id="3403" transform="matrix(1, 0, 0, 1, -140.75, 0)">
<path style="fill:#000000;fill-opacity:1" d="M397.4,179.75Q397.85 179.85 398.2 180.25Q400.75 185.25 399.3 190.75Q398.85 192.55 397.45 193.75L356.65 195.7Q358.05 250.75 354.1 307Q352.2 334.05 352.45 360.45Q352.7 373.3 346.95 383.45Q341.9 370 343.9 353.55Q347.5 323.85 349.2 293.8Q351.45 254.25 351.9 214.25Q352.05 204.2 354.15 195.8L321.7 197Q319.95 192.95 320.5 188.7Q320.7 187.05 321.7 185.75Q357.9 181.65 393.95 179.25L397.4 179.75M422.45,179.25Q426.15 238.05 421.4 297.85Q418.55 334.45 414.9 370.45Q414.65 372.9 412.2 372.7Q408.8 343.95 411.45 313.35L414.5 272.7Q402.7 274.9 390.95 276.2Q390.5 299.1 388.85 322.1Q387.05 347.5 381.45 371.45Q374.25 363.8 376.6 349.5Q381.4 320.25 382.4 290.45L384.25 223.75Q384.55 211.65 389.45 203.5Q391.3 233.55 391.15 263.8Q402.05 260.35 412.95 259L415.3 259.1Q417 227.1 417.45 195Q417.6 185.1 422.45 179.25M275.95,194Q251.55 217.65 247.95 253.05Q247.1 261.4 246.5 269.8Q269.7 260.3 295.45 258.75Q300.1 264.95 296.35 272.15L295.7 272.95Q270.4 277.85 245.8 279.95Q245.15 291.65 244.9 303.45Q244.35 330.1 256.7 352.95Q295.6 360.75 315.45 327.95Q324.3 343.45 308.05 357.35Q282.4 379.25 253.45 365Q251.1 363.85 250 361Q230.25 309.05 240.85 252.9Q246.8 221.4 262.8 194.8Q270.5 182.05 283.95 176.5Q313.9 181.2 311.25 209.2L310.95 209.75Q302.15 187.6 280 193.3L275.95 194M142.25,176.75Q157.25 233.3 164.4 292.1Q167.7 319.15 168.7 346.05Q174.85 321.55 177.45 296.4Q179.4 277.6 185.35 260.7Q185.5 255.2 185.95 249.75L186.5 249.75L187.35 255.4L190.25 248.5Q190.25 258.6 189.4 269Q195.05 305.95 202.2 343.1Q216.1 285.9 225.15 227.7Q229.2 201.75 237.45 179.75Q237.45 208.65 231.25 238.55Q223.7 274.6 217.8 311Q212.7 342.45 204.45 372.45L203.95 371.45L202.95 373.2Q194.2 345.6 189.05 315.15Q187.15 303.85 186.15 292.7Q182.45 313.4 179.4 334Q176.2 355.7 170.5 375.95L169.1 372.75Q169 373.35 168.5 373.95Q162.65 361.75 161.55 345.6Q157.6 286.8 147.25 228.7Q142.75 203.35 140.9 178.2Q140.75 176.65 142.25 176.75" />
</g>
</svg>
