<?xml version="1.0" encoding="utf-8"?>
<svg version="1.1" id="Layer_1"
xmlns="http://www.w3.org/2000/svg"
xmlns:xlink="http://www.w3.org/1999/xlink"


xml:space="preserve">
q-3.3 4.45 -4 11.35q-4.6 46.15 -3.15 93.15q1.75 59.75 0.5 119.25q-1.25 59.85 -6.65 119.15q-1.5 16.4 4.3 29.05q37.45 8.65 76 0q6.75 -8.5 0.35 -17.2q-9.95 2.1 -20.1 2.7q2.95 -56.4 5.15 -112.9q2.3 -59.55 -0.05 -119.25q-2.3 -59.05 2.3 -117q2.75 -6.65 -2.55 -10q-1.8 -0.3 -2.2 1.5q-11.8 50.8 -22.5 102.1q-4.55 21.9 -12.6 42.9q-6.3 16.4 0.3 29q10.9 -35.4 19.35 -71.95q14.45 0.2 28.6 2.95q3.95 21.25 8.7 42.35q2.1 9.55 0.1 12.9q1.7 11.5 8.25 21.25q2.1 -1.7 1.85 -4.45q-3.05 -31.85 -9.2 -63.4q-11.3 -57.95 -18.9 -115.9q-1.25 4.45 -1.95 9.1q-15.4 -9.95 -34.45 -10.85q-10.8 2.4 -15.45 12.55q-17.45 38 -20.45 80.9q-4.2 59.25 -7.2 118.6q-1.25 24.35 13.3 42.6q12.3 15.45 29.55 6.6q10.05 -5.1 17.2 -13.9q16.05 -19.7 10.5 -41q-0.75 0.15 -1.4 0.45q-4.9 10.65 -10.65 20.75q-10.05 17.75 -29 12.7q-7.9 -2.1 -11.2 -9.1q-8.35 -17.35 -7.5 -37.65q2.65 -59.2 5.45 -118.4q13.4 -6.6 27.75 -6.25q3.75 -7.2 -0.85 -13.4q-16.5 1.1 -30.65 9.3q2.5 -46.3 6 -92.4q2.7 -35.3 20.15 -64.4q28.4 -8.45 46.75 11.75q1.75 -2.35 1.7 -5.25q-0.1 -3.6 -1.65 -6.9q-4.2 -0.65 -8.4 0.1q-3.35 0.55 -6.45 1.65q3.4 -2.25 7.1 -3.9q9.5 -4.35 18.6 -0.3q6.05 2.75 9.5 8.45q-1.3 -9.3 -8.4 -15.35q-3.8 -3.25 -8.8 -4.3q-3.35 -0.7 -6.85 0q-7.55 0.95 -14.2 4.55q-14.95 12.7 -18.35 33.9q-3.35 20.6 -3.75 41.8q-0.45 21.65 -2.55 43.2q-2.05 21.35 3.8 41.75q3.65 12.85 12.2 23.05q18.8 -1.1 33.65 -14.6q5.55 -5.1 10.3 -11q2.45 -3 3.9 -6.7q3.95 -9.95 -0.1 -19.95q-14.45 16.5 -34.65 24.7q-1.95 0.85 -4.2 1q-10.6 -30.8 -9.95 -64.4q3.95 -6.2 0.6 -12.8q-3.05 -25.65 8.9 -47.1q3 -5.4 8.15 -8.95q-3.55 1.25 -4.4 5.6q-10.65 52.75 -17 106.25q-6.95 58.45 -13 117.15q-5.75 55.3 -14.25 110.15q-4.35 -28.2 -9.95 -56.45q-10.95 -55.35 -20.25 -110.7q-5.6 13.9 -8.15 30.6q-8.85 58.3 -14.65 117.1q-1.45 14.7 -5.2 28.9q-0.95 3.55 -1.35 6.95q-4.3 -44.05 -10.95 -88.05q-4.4 -29.2 -6.85 -58.6q-3.75 -44.4 -10.7 -88.15q-9.2 -57.95 -9.95 -117.2q-1.25 -2.35 -2.9 -4.25q-4.6 12.95 -2.8 30.55q6 58.6 12.7 117.05q6.8 58.6 13.05 117.25q1.75 16.35 8.9 28.3q1.75 -1.4 1.55 -3.65q6.3 -16.2 8 -34.95q5.5 -58.75 15.2 -116.8q1.55 -9.4 2.7 -18.65q11.25 57.95 20.8 116.2q5.05 30.75 15.55 57.5q1.6 -1.5 1.35 -3.65q4.05 -22.6 6.4 -46.05q6 -58.95 12.55 -117.8q6.5 -58.55 13.6 -117.05q3.6 -29.3 9.65 -58.05q3.35 -15.7 2.25 -29.6q-1.65 32.85 -2.9 66q-12.5 0.1 -24.95 0.6q1.8 -50 -5.3 -98.75q-3.6 1.2 -3.45 6q0.55 59.6 -0.4 119.2q-0.25 15.05 -2 29.85q-2.75 23.1 1 44.4q1.15 -0.35 1.3 -1q6.5 -24.9 5.9 -51.5q-0.6 -26.95 1.3 -53.85q-0.6 14.1 6.2 21.55q3.9 -23.65 4.15 -48.75q0.4 -33.15 1.35 -66.4q0.8 -1.9 0.85 -4.05q0.05 -2.25 -0.65 -4.1q1.25 -30.4 0.2 -59.3q-5.6 8.7 -6.2 21.2<g id="3414" transform="matrix(1, 0, 0, 1, -32.9, 0)">
<path style="fill:#000000;fill-opacity:1" d="M422.5,81.5L422.2 82.25Q417.6 140.2 419.9 199.25Q422.25 258.95 419.95 318.5Q417.75 375 414.8 431.4L468.35 429.15Q478.5 428.55 488.45 426.45Q494.85 435.15 488.1 443.65L487.45 444.2Q448.9 452.85 411.45 444.2L411.15 443.35L410.95 443.45Q405.15 430.8 406.65 414.4Q412.05 355.1 413.3 295.25Q414.55 235.75 412.8 176Q411.35 129 415.95 82.85Q416.65 75.95 419.95 71.5Q425.25 74.85 422.5 81.5M358.2,74Q365.8 131.95 377.1 189.9Q383.25 221.45 386.3 253.3Q386.55 256.05 384.45 257.75Q377.9 248 376.2 236.5Q378.2 233.15 376.1 223.6Q371.35 202.5 367.4 181.25Q353.25 178.5 338.8 178.3Q330.35 214.85 319.45 250.25Q312.85 237.65 319.15 221.25Q327.2 200.25 331.75 178.35Q342.45 127.05 354.25 76.25Q354.65 74.45 356.45 74.75L356.25 83.1Q356.95 78.45 358.2 74M326.2,82.75L328.75 87.85Q330.3 91.15 330.4 94.75Q330.45 97.65 328.7 100Q310.35 79.8 281.95 88.25Q264.5 117.35 261.8 152.65Q258.3 198.75 255.8 245.05Q269.95 236.85 286.45 235.75Q291.05 241.95 287.3 249.15L286.7 250Q272.35 249.65 258.95 256.25L255.7 255L255.3 253.95L254.55 269Q251.75 328.2 249.1 387.4Q248.25 407.7 256.6 425.05Q259.9 432.05 267.8 434.15Q286.75 439.2 296.8 421.45Q302.55 411.35 307.45 400.7L307.55 400L307.25 399.2L306.9 398.5L306.75 398.2L308.7 396.9L308.9 396.9L310.2 396.2L311.05 395.65Q311.7 395.35 312.45 395.2Q318 416.5 301.95 436.2Q294.8 445 284.75 450.1Q267.5 458.95 255.2 443.5Q240.65 425.25 241.9 400.9L247.85 283.3Q250.85 223.95 255.05 164.7Q258.05 121.8 275.5 83.8Q280.15 73.65 290.95 71.25Q310 72.15 325.4 82.1L326.2 82.75M362.05,166.95L364.95 167.55L355.35 94.95L345.45 147.45L341.2 167.8Q344.3 166.7 347.65 166.15Q351.85 165.4 356.05 166.05L362.05 166.95M342.35,290.95Q330.4 312.4 333.45 338.05L366.45 329.5L367.45 331.3Q370.8 337.9 366.85 344.1L333.45 350.2L332.7 348.95L332.25 370.05Q331.6 403.65 342.2 434.45Q344.45 434.3 346.4 433.45Q366.6 425.25 381.05 408.75L380.55 406.15L383.95 405.2L388.95 398.45Q393 408.45 389.05 418.4Q387.6 422.1 385.15 425.1Q380.4 431 374.85 436.1Q360 449.6 341.2 450.7Q332.65 440.5 329 427.65Q323.15 407.25 325.2 385.9Q327.3 364.35 327.75 342.7Q328.15 321.5 331.5 300.9Q334.9 279.7 349.85 267Q356.5 263.4 364.05 262.45Q367.55 261.75 370.9 262.45Q375.9 263.5 379.7 266.75Q386.8 272.8 388.1 282.1L385.7 286.25Q382.25 280.55 376.2 277.8Q367.1 273.75 357.6 278.1Q353.9 279.75 350.5 282Q345.35 285.55 342.35 290.95M186.95,96.6Q180.9 125.35 177.3 154.65Q170.2 213.15 163.7 271.7Q157.15 330.55 151.15 389.5Q148.8 412.95 144.75 435.55L145.8 443.8Q146.05 445.95 144.45 447.45Q133.95 420.7 128.9 389.95Q119.35 331.7 108.1 273.75L107.9 272.55Q106.75 281.8 105.2 291.2Q95.5 349.25 90 408Q88.3 426.75 82 442.95L81 440.3L81.05 441.3Q81.25 443.55 79.5 444.95Q72.35 433 70.6 416.65Q64.35 358 57.55 299.4L47.4 211.1Q40.7 152.65 34.7 94.05Q32.9 76.45 37.5 63.5Q39.15 65.4 40.4 67.75L40.75 68.5Q41.5 127.75 50.7 185.7Q57.65 229.45 61.4 273.85Q63.85 303.25 68.25 332.45Q74.9 376.45 79.2 420.5Q79.6 417.1 80.55 413.55Q84.3 399.35 85.75 384.65Q91.55 325.85 100.4 267.55Q102.95 250.85 108.55 236.95L109.45 233.75L109.6 234.5L110.45 232.5L110.35 239Q119.65 294.35 130.6 349.7Q136.2 377.95 140.55 406.15Q149.05 351.3 154.8 296Q160.85 237.3 167.8 178.85Q174.15 125.35 184.8 72.6Q185.65 68.25 189.2 67Q190.3 80.9 186.95 96.6M227.45,224.25Q228.5 253.15 227.25 283.55L225.65 328.15Q226.35 330 226.3 332.25Q226.25 334.4 225.45 336.3Q224.5 369.55 224.1 402.7Q223.85 427.8 219.95 451.45Q213.15 444 213.75 429.9L217.35 338.2L186.15 336.9L185.7 343.35Q183.8 370.25 184.4 397.2Q185 423.8 178.5 448.7Q178.35 449.35 177.2 449.7Q173.45 428.4 176.2 405.3Q177.95 390.5 178.2 375.45Q179.15 315.85 178.6 256.25L178 230.75Q177.85 225.95 181.45 224.75Q188.55 273.5 186.75 323.5L188 323.35Q200.45 322.85 212.95 322.75L217.95 322.9L218.35 311.45Q219.6 278.3 221.25 245.45Q221.85 232.95 227.45 224.25" />
</g>
</svg>
