<?xml version="1.0" encoding="utf-8"?>
<svg version="1.1" id="Layer_1"
xmlns="http://www.w3.org/2000/svg"
xmlns:xlink="http://www.w3.org/1999/xlink"


xml:space="preserve">
q-5.35 5.8 -6.6 15.15q-7.85 58.75 -9.7 118.6q-1.85 59.55 -4.7 119.15q-10.85 -58.2 -24.4 -115.9q-13.6 -57.7 -29.8 -114.3q-2.1 -7.3 -3.9 -14.5q-10.15 -41 -18.05 -82.4q-3.6 7.3 -1.65 17q-6.05 59.2 -4.45 119.35q1.55 59.75 1.85 119.2q0.25 59.6 -4.75 118.45q-1.45 16.85 4.05 29.3q3.55 -7.55 3.9 -16.45q2.05 -59.45 1.75 -119.3q-0.25 -59.55 -1.75 -119.2q-0.75 -29.85 1.1 -59.95q2.5 -41.2 3.35 -81.9q11.2 51.15 24.75 101.9q15.15 56.8 26.7 114.45q11.35 56.8 18.4 114.2q2.1 16.95 10.3 28.05q0.65 -0.75 0.55 -1.45q0.8 -30.4 2.3 -61.05q2.9 -59.25 4 -118.5q1.05 -59.95 4.3 -119.3q1.6 -29.8 6.6 -58.95q3.8 -22.55 3.45 -43.75q-7 -24.55 -12.3 -49.7q-3.95 -18.75 -6.4 -37.75q-1.25 2.05 -2 4.55q-4 13.55 -7.45 27.35q-10.3 41.25 -17.6 82.5q-2.65 14.95 -6.55 30q-4 15.25 -7.3 30.6q-2.65 12.35 2.25 23.8q6.35 28.2 11.5 56.65q1.05 5.85 2.65 11.65q2.3 8.55 6.35 16.4q1.35 -1.2 1.15 -3q-1.5 -15.45 -3.95 -30.8q-4.1 -25.7 -11.15 -50.9q-19.7 -0.15 -39.35 -0.65q5.75 -30.7 12 -61.35q2.25 -10.85 6.75 -20.95q1.85 -4.1 3.1 -8.05q3.95 35.5 12.55 70.3q-31.9 54.9 -28.75 121q1.55 32.4 2.6 64.8q0.35 10.35 5.9 19.1q2.5 4 5.75 7.4q6.2 6.5 14.95 6.4q9.8 -3.1 16.95 -10.75q15.2 -16.15 11.95 -38q-9.55 36.5 -41.2 29.95q-10.4 -2.3 -11.75 -14.45q-1.5 -13.35 -2.05 -26.7q-1.15 -28.15 1.4 -56.15q18.85 2.05 37.1 -2.4q2 -3.6 1.1 -7.4q-0.5 -2.05 -1.85 -3.85q-8.45 -52.55 27.5 -87.05q12.35 -0.55 19.05 6.45q-0.9 -25.6 -25.55 -14.5q-15.8 3.6 -24.9 16.95q-17.15 25.25 -21.8 55.8q-7.25 47.8 -6.15 97q1.3 59.5 -4.05 118.5q-5.4 60 4.2 118.45q3.1 19.1 19.15 28.9q31 19.05 50.6 -10.2q23.65 -35.2 20.95 -75.95q-8.75 38.6 -33.35 70.4q-4.9 6.35 -12.9 6.35q-36.65 -0.1 -40.5 -35.95q-6.35 -59.1 -0.9 -118.5q2.5 -27.25 2.25 -54.65q21.5 -3.65 43.9 -2.6q3.7 0.25 6 -2.25q2.1 -5.75 -1.3 -10.5q-25.35 0.25 -49 8.65q-2.6 -58.9 6.55 -116.35q3.65 -23.05 13.15 -44.5q12.45 -27.95 41.95 -22.7q5.1 4.05 6.75 10.2q1.3 5 4.25 4.3q2.95 -27 -24.95 -28.5q-8.25 12 -10.25 28.15q-7.3 58.85 -10.1 118.55q-2.75 59.35 -6.75 118.55q-3.95 57.95 -6.9 115.95q-1.15 -4.1 -1.5 -8.4q-4.75 -59.6 -13.25 -118.6q-4.3 -29.6 -6.45 -59.35q-1.2 -15.95 -6.75 -28.35q-4.2 51.95 -7.75 105q-3.9 58.35 -11.25 115.95q-2.35 -59.55 -9.45 -118.4q-7.1 -59 -11.7 -118.5q-4.55 -58.9 -8.2 -117.9q-0.95 -16 -4.85 -28.15q-2.15 18.9 -0.3 38.25q5.75 59.1 10 118.45q4.25 59.5 11.1 118.55q6.8 58.45 7.4 117.7q0.15 16.8 6.3 28.25q8.55 -43.1 11.6 -87.7q4 -58.85 8.9 -115q10.6 58.8 16.3 118.4q2.85 29.65 3.75 59.3q0.5 16.05 5.65 29q3.05 -1.9 3.4 -5.75q5.2 -59 8.05 -118.45q2.85 -59.4 6.4 -118.6q3.55 -59.45 8.9 -118.45q1.35 -15.05 5.6 -29.45q5.6 -19.15 2.15 -36.5q-5.7 27.15 -6.45 56.7q-0.85 32.8 -1.55 65.7q-0.7 3.15 0.1 6.25q-0.6 30.15 -3.8 59.85q-1.6 14.75 6.6 21.15q2.65 -9.35 2.65 -19.5q-0.05 -53.15 1.8 -106.35q18.35 0.95 37.1 -0.6q-0.45 30.1 -4.05 59.8q-2 16.45 3.6 29.95q4.35 -9.85 4.95 -22.2q3.05 -59.3 2.2 -119.3q-0.8 -60.3 0.35 -118.45q-0.8 -0.15 -0.95 0.4q-6.95 24.35 -6.45 50.6q0.65 33.75 0.7 67.45q-18.75 0.3 -36.75 2.95q2.3 -60.15 2.1 -118.5q-0.6 -0.2 -0.7 0.3<g id="3404" transform="matrix(1, 0, 0, 1, -26.1, 0)">
<path style="fill:#000000;fill-opacity:1" d="M488,107.25Q483 136.4 481.4 166.2Q478.15 225.55 477.1 285.5Q476 344.75 473.1 404Q471.6 434.65 470.8 465.05L473.25 490.75Q473.35 491.45 472.7 492.2Q464.5 481.1 462.4 464.15Q455.35 406.75 444 349.95Q432.45 292.3 417.3 235.5Q403.75 184.75 392.55 133.6L384.8 96.9Q383.95 137.6 381.45 178.8Q379.6 208.9 380.35 238.75Q381.85 298.4 382.1 357.95Q382.4 417.8 380.35 477.25Q380 486.15 376.45 493.7Q370.95 481.25 372.4 464.4Q377.4 405.55 377.15 345.95Q376.85 286.5 375.3 226.75Q373.7 166.6 379.75 107.4L382.25 84.55L381.55 81Q379.6 71.3 383.2 64L384.15 69.1L385.2 61L385.15 74.2Q393.05 115.6 403.2 156.6Q405 163.8 407.1 171.1Q423.3 227.7 436.9 285.4Q450.45 343.1 461.3 401.3L465.45 425.3L470.45 316.4Q473.3 256.8 475.15 197.25Q477 137.4 484.85 78.65Q486.1 69.3 491.45 63.5Q491.8 84.7 488 107.25M341.2,171.35L341.9 171.8L342.35 172.55L342.6 173.25L342.85 174.75L342.95 175.5L342.95 176.25L342.85 177.4L342.6 178.55L342.25 179.7L341.7 180.75L338.75 180.8Q345.8 206 349.9 231.7Q352.35 247.05 353.85 262.5Q354.05 264.3 352.7 265.5Q348.65 257.65 346.35 249.1Q344.75 243.3 343.7 237.45Q338.55 209 332.2 180.8L289.2 179L273.7 259.5Q268.8 248.05 271.45 235.7Q274.75 220.35 278.75 205.1Q282.65 190.05 285.3 175.1Q292.6 133.85 302.9 92.6Q306.35 78.8 310.35 65.25Q311.1 62.75 312.35 60.7L314.25 60L317.35 83.9Q319.8 102.9 323.75 121.65Q329.05 146.8 336.05 171.35L341.2 171.35M325.1,150.65Q316.5 115.85 312.55 80.35Q311.3 84.3 309.45 88.4Q304.95 98.5 302.7 109.35Q296.45 140 290.7 170.7Q310.35 171.2 330.05 171.35L325.1 150.65M350,293.7Q343.3 286.7 330.95 287.25Q295 321.75 303.45 374.3L339.45 367.95Q340.8 369.75 341.3 371.8Q342.2 375.6 340.2 379.2Q321.95 383.65 303.1 381.6Q300.55 409.6 301.7 437.75Q302.25 451.1 303.75 464.45Q305.1 476.6 315.5 478.9Q347.15 485.45 356.7 448.95Q359.95 470.8 344.75 486.95Q337.6 494.6 327.8 497.7L323.4 498.45Q314.65 498.55 308.45 492.05Q305.2 488.65 302.7 484.65Q297.15 475.9 296.8 465.55Q295.75 433.15 294.2 400.75Q291.05 334.65 322.95 279.75L324.45 279.2Q349.1 268.1 350 293.7M277.9,83.25L277.7 84Q274.75 84.7 273.45 79.7Q271.8 73.55 266.7 69.5Q237.2 64.25 224.75 92.2Q215.25 113.65 211.6 136.7Q202.45 194.15 205.05 253.05L205.45 264.4Q229.1 256 254.45 255.75Q257.85 260.5 255.75 266.25L255.45 267Q253.15 269.5 249.45 269.25Q227.05 268.2 205.55 271.85Q205.8 299.25 203.3 326.5Q197.85 385.9 204.2 445Q208.05 480.85 244.7 480.95Q252.7 480.95 257.6 474.6Q282.2 442.8 290.95 404.2Q293.65 444.95 270 480.15Q250.4 509.4 219.4 490.35Q203.35 480.55 200.25 461.45Q190.65 403 196.05 343Q201.4 284 200.1 224.5Q199 175.3 206.25 127.5Q210.9 96.95 228.05 71.7Q237.15 58.35 252.95 54.75Q280.85 56.25 277.9 83.25M141.3,93.5Q137.05 107.9 135.7 122.95Q130.35 181.95 126.8 241.4Q123.25 300.6 120.4 360Q117.55 419.45 112.35 478.45Q112 482.3 108.95 484.2Q103.8 471.25 103.3 455.2Q102.4 425.55 99.55 395.9Q93.85 336.3 83.25 277.5Q78.35 333.65 74.35 392.5Q71.3 437.1 62.75 480.2Q56.6 468.75 56.45 451.95Q55.85 392.7 49.05 334.25Q42.2 275.2 37.95 215.7Q33.7 156.35 27.95 97.25Q26.1 77.9 28.25 59Q32.15 71.15 33.1 87.15Q36.75 146.15 41.3 205.05Q45.9 264.55 53 323.55Q60.1 382.4 62.45 441.95L62.5 444.45Q69.85 386.85 73.75 328.5Q77.3 275.45 81.5 223.5Q87.05 235.9 88.25 251.85Q90.4 281.6 94.7 311.2Q103.2 370.2 107.95 429.8Q108.3 434.1 109.45 438.2Q112.4 380.2 116.35 322.25Q120.35 263.05 123.1 203.7Q125.9 144 133.2 85.15Q135.2 69 143.45 57Q146.9 74.35 141.3 93.5M142.2,228.25Q142.4 286.6 140.1 346.75L140 349.9Q158 347.25 176.75 346.95Q176.7 313.25 176.05 279.5Q175.55 253.25 182.5 228.9Q182.65 228.35 183.45 228.5Q182.3 286.65 183.1 346.95Q183.95 406.95 180.9 466.25Q180.3 478.6 175.95 488.45Q170.35 474.95 172.35 458.5Q175.95 428.8 176.4 398.7L176.75 359Q158 360.55 139.65 359.6Q137.8 412.8 137.85 465.95Q137.85 476.1 135.2 485.45Q127 479.05 128.6 464.3Q131.8 434.6 132.4 404.45L133.35 358Q132.55 354.9 133.25 351.75L133.45 350.95L133.5 350.95Q134.2 318.05 135.05 285.25Q135.8 255.7 141.5 228.55Q141.6 228.05 142.2 228.25" />
</g>
</svg>
