<?xml version="1.0" encoding="utf-8"?>
<svg version="1.1" id="Layer_1"
xmlns="http://www.w3.org/2000/svg"
xmlns:xlink="http://www.w3.org/1999/xlink"


xml:space="preserve">
q-20.7 4.75 -37.5 17.85q-15.4 12 -26.9 27.95q-11.75 16.2 -20.35 34.15q-9.15 19.2 -14.65 39.85q-4.7 17.8 -6.55 36.1q-2.1 20.6 -0.65 41.3q1.45 21.35 7.35 41.7q5.95 20.45 19.85 36.4q14.7 17.05 37.25 17.2q19.35 0.1 38.1 -5.25q19.4 -5.6 38.15 -12.75q20.55 -7.8 38.7 -19.8q13.1 -8.7 0.2 -18.1q-47.75 24.2 -100.9 35.1q-15.45 3.1 -29.9 -3.55q-12.85 -5.8 -21.8 -16.65q-6.4 -7.65 -9.8 -17q-8.5 -23.3 -9.7 -48.1q-0.9 -19.15 1.6 -38.35q49.05 0.5 98.4 -4.25q4.05 -0.35 8.15 -0.15q7.25 -11.85 -6.05 -13.55q-26.75 -3.15 -54.15 1.7q-22.1 3.8 -44.45 4.85q8.4 -44.85 36.1 -81q14.85 -19.35 35.1 -33.1q18.85 -12.7 41.1 -16.4q16.65 -2.5 33.3 -0.15q9.85 1.6 18.85 6.7q1.75 1 2.2 2.95q-7.4 -21.95 -32.15 -24.1q-20.4 -1.3 -40.35 3.5q-12.35 29.6 -18.65 63.5q-10.9 58.65 -17.25 118q-3.15 29.3 -8.45 58.15q-7.95 43.55 -7.4 86.55q1.95 2 4 0q0.75 -1 0.9 -2.25q1.8 -16.45 4.35 -32.75q9.05 -58.2 15.2 -117q6.1 -58.6 19.15 -116.1q6.7 -29.6 8.15 -58.1q-0.85 -0.15 -0.85 0.25q0.1 34.05 4.15 68.8q6.8 58.4 17.3 116.1q10.6 58.1 14.25 117.15q0.8 13.05 5.35 23.1q0.15 4.8 0.75 9.55q7.05 -29.15 12.95 -59q2.8 -14.6 7.6 -28.55q0.6 4.95 1.55 10q3 15.95 5.25 32.05q8.2 58.4 18.1 116.55q5.25 30.65 16.75 56.85q5.05 -8.7 2.05 -18.95q-16.4 -56.65 -25.4 -115.15q-3.35 -21.8 -5.2 -43.75q-2.4 -28.25 -11.85 -53.45q-0.5 -4.5 -2.1 -8.65q-11.35 36.1 -18.95 74.7q-11.4 57.95 -24.8 115.4q-2.1 -31.8 -7.4 -63.7q-9.7 -58.1 -18.05 -116.45q-8.3 -58.1 -15.1 -116.05<g id="3397" transform="matrix(1, 0, 0, 1, -56.65, 0)">
<path style="fill:#000000;fill-opacity:1" d="M380.55,100.4Q405.3 102.55 412.7 124.5L409.45 124Q409 122.05 407.25 121.05Q398.25 115.95 388.4 114.35Q371.75 112 355.1 114.5Q332.85 118.2 314 130.9Q293.75 144.65 278.9 164Q251.2 200.15 242.8 245Q265.15 243.95 287.25 240.15Q314.65 235.3 341.4 238.45Q354.7 240.15 347.45 252Q343.35 251.8 339.3 252.15Q289.95 256.9 240.9 256.4Q238.4 275.6 239.3 294.75Q240.5 319.55 249 342.85Q252.4 352.2 258.8 359.85Q267.75 370.7 280.6 376.5Q295.05 383.15 310.5 380.05Q363.65 369.15 411.4 344.95L413.2 340.5Q426.1 349.9 413 358.6Q394.85 370.6 374.3 378.4Q355.55 385.55 336.15 391.15Q317.4 396.5 298.05 396.4Q275.5 396.25 260.8 379.2Q246.9 363.25 240.95 342.8Q235.05 322.45 233.6 301.1Q232.15 280.4 234.25 259.8Q236.1 241.5 240.8 223.7Q246.3 203.05 255.45 183.85Q264.05 165.9 275.8 149.7Q287.3 133.75 302.7 121.75Q319.5 108.65 340.2 103.9Q360.15 99.1 380.55 100.4M236.05,149.85Q223 207.35 216.9 265.95Q210.75 324.75 201.7 382.95Q199.15 399.25 197.35 415.7Q197.2 416.95 196.45 417.95Q194.4 419.95 192.45 417.95Q191.9 374.95 199.85 331.4Q205.15 302.55 208.3 273.25Q214.65 213.9 225.55 155.25Q231.85 121.35 244.2 91.75Q242.75 120.25 236.05 149.85M58.65,85.1L59.25 85.75Q66.05 143.7 74.35 201.8Q82.7 260.15 92.4 318.25Q97.7 350.15 99.8 381.95L101.2 375.35Q114.6 317.9 126 259.95Q133.6 221.35 144.95 185.25Q146.55 189.4 147.05 193.9Q156.5 219.1 158.9 247.35Q160.75 269.3 164.1 291.1Q173.1 349.6 189.5 406.25Q192.5 416.5 187.45 425.2Q175.95 399 170.7 368.35Q160.8 310.2 152.6 251.8Q150.35 235.7 147.35 219.75Q146.4 214.7 145.8 209.75L144.25 214.85Q139.45 228.8 136.65 243.4L114.15 359.2Q108.25 389.05 101.2 418.2L98.45 419.2Q97.85 414.45 97.7 409.65Q93.15 399.6 92.35 386.55Q88.7 327.5 78.1 269.4Q67.6 211.7 60.8 153.3Q56.75 118.55 56.65 84.5Q56.65 84.1 57.5 84.25L58.65 85.1" />
</g>
</svg>
