<?xml version="1.0" encoding="utf-8"?>
<svg version="1.1" id="Layer_1"
xmlns="http://www.w3.org/2000/svg"
xmlns:xlink="http://www.w3.org/1999/xlink"


xml:space="preserve">
q-7.35 20.05 -23.4 34.2q-13 11.35 -27.15 20.6q21.1 -8.9 36.1 8.4q13.4 15.45 16.95 36q3.7 21.7 -3.85 42.25q-2.8 8.05 -3.35 17.9q-3.25 59.25 -2.15 119.35q1 59.55 -4.8 117.7q-0.15 15.45 6.05 25.25q5.85 -38.7 7.25 -78.75q2.15 -59.85 -0.5 -119.25q11.45 -4.75 20.8 -11.35q5.55 40.75 16.5 80.9q15.75 57.95 33.25 114.8q4.8 15.65 11.7 27.1q3.4 -4.95 1.7 -11q-15.2 -53.95 -29.2 -107.7q24.5 -19.45 32.6 -53.45q12.45 -52.4 -19.2 -95.1q-1.1 -0.25 -2 -0.9q-10.35 -7.5 -23.5 -6.35q-2.7 0.85 -4.55 2.9q-0.65 1.8 -0.75 3.75q-23 32.65 -32.8 71.4q-2.9 11.7 -4.9 23.6q-7 42.9 25.25 69.8q18.4 15.35 38.3 2.75q55.25 -34.8 51.6 -100.55q-0.8 -14.55 -4.2 -28.85q-7.7 -32.95 -37 -45.4q-6.25 -1.95 -12.75 -2.55q-8.15 2.7 -14.75 8.5q0.4 -0.25 0.65 -0.15q4.5 1.5 8.6 3.9q7.25 11.7 12.1 24.8q4.55 12.15 5.7 24.8q4.6 50.15 -35.9 80.5q-34.1 25.5 -59.4 -9.6q-10.5 -23.15 -4.8 -48.95q5.55 -25.2 15.25 -49.1q10.7 -26.55 35.8 -34.7q0.25 -0.15 0.5 -0.15q12.3 0.2 21.5 8.65q3.1 -20.4 -18.25 -20.05q-38.65 36.35 -35.2 95.25q1.45 25.25 3.7 50.6q1.6 17.65 14.3 29.85q7.45 7.15 17.2 10.25q30 -13.1 27.5 -43.5q-5.15 18.65 -24.3 26.05q-33.45 -28 -26.55 -77q11.25 5.5 23.15 2.65q3.6 -6 -0.35 -11.65q-3.9 -48.25 32 -74.15q5.6 -4.1 11.4 0.75q2.95 2.45 5.45 5.45q-6.95 20.35 -8.3 42.35q-3.7 59.35 -13.05 118.1q-1.45 -12.45 -7.05 -19.85q-5.1 39.1 -18 76.25q0.75 -21.15 0.05 -43q-1.9 -59.6 -4.8 -118.45q-2.85 1.3 -2.8 5.25q0.45 58.85 0.5 117.7q0 30.75 5.05 59q15.95 -31.9 21 -68q3.05 17.45 4.25 36.05q1.3 20.3 8.75 36.2q4.6 -8.15 6 -17.9q8.75 -59.15 15.15 -119.15q2.45 -23.05 1.35 -44.4q-1.1 0.5 -1.4 1.25q7.15 18.65 12.8 38.6q16 56.95 11.75 117.35q-4.15 59.3 -16.95 117.1q-8.9 40.1 -40.25 64.95q-5 3.95 -10.95 5.45q-26.15 6.4 -36.75 -18.55q-10.7 -25.2 -10.85 -53.45q-0.3 -59.75 2.15 -119.25q2.45 -59.35 14.8 -117.1q7.3 -34.15 35.5 -52.35q26.2 -3.3 35 19.75q1.35 1.75 2.6 0.15q0.9 -1.15 1.15 -2.65q-12.1 -14 -31.45 -12.55q-6.75 3.65 -12.15 9.25q-24.75 25.55 -31.55 60.65q-11.25 58.25 -13.3 118.05q-2 59.45 -1.7 119.25q0.05 7.7 -0.25 14.95q-2 46.5 35.1 70.75q6.6 4.3 14.35 1.05q41.15 -17.45 54.5 -60.1q17.75 -56.9 22.95 -116.4q5.2 -59.3 -1.9 -118.3q-5.8 -48.5 -29.55 -88.65q-0.8 1.15 -2.05 1.6q-0.2 1.55 -0.05 3.05q-6.2 36.2 -8.05 74.2q-2.8 59.1 -3.85 118.55q-0.55 30.75 -4.7 56.75q-0.05 2 0.15 3.9q-0.65 1.8 -0.65 3.85q-0.05 5.6 4.25 9q18 3.55 35.85 0.1q46.4 -9.05 57.9 -53.4q15.15 -58.65 0.55 -117.3q-3.75 -15.1 -9.2 -29.85q-9.55 -25.6 -32.3 -35.75q23.65 -24.65 24.4 -62.75q0.65 -29.4 -7.35 -57.35q-8.15 -28.4 -34.35 -37.4q-8.9 -0.8 -16.5 3.75q18.5 41 5.55 83.2q-12.5 40.9 -52.8 47.65q1.8 -50.45 6.15 -100.5q2.3 -26.9 0.8 -52.55q28.3 -4.4 40.3 22.2q1.9 0.5 3.65 1.4q1.85 0.9 3.55 2.1q13.2 15.65 20.3 34.7q7.05 18.85 10.65 38.75q3.75 20.85 2.9 42q-0.85 20.75 -5.2 41q-4.65 21.8 -22.9 34.05q-18.7 12.55 -41.25 13.4q-10.95 0.95 -21.7 0.55q4.5 0.25 8.85 -1q3.7 -1.05 7.15 -2.75q5.05 -2.55 9.25 -6.1q3.55 -2.95 6 -2.8<g id="199" transform="matrix(1, 0, 0, 1, -43.2, 0)">
<path style="fill:#000000;fill-opacity:1" d="M497,131.65Q493.45 111.1 480.05 95.65Q465.05 78.35 443.95 87.25L442.6 228.7Q456.75 219.45 469.75 208.1Q485.8 193.95 493.15 173.9Q500.7 153.35 497 131.65M442.45,77.5Q444.3 75.45 447 74.6L455.95 72.25Q469.1 71.1 479.45 78.6Q480.35 79.25 481.45 79.5Q513.1 122.2 500.65 174.6Q492.55 208.6 468.05 228.05Q482.05 281.8 497.25 335.75L527.4 442.7Q529.1 448.75 525.7 453.7Q518.8 442.25 514 426.6Q496.5 369.75 480.75 311.8Q469.8 271.65 464.25 230.9Q454.9 237.5 443.45 242.25L442.9 241L443.45 255.7Q446.1 315.1 443.95 374.95Q442.55 415 436.7 453.7Q430.5 443.9 430.65 428.45L430.65 422.65L431.2 422.95L431.75 422.15L432.3 420.6L432.9 424.75L432.95 425.45Q438.75 367.3 437.75 307.75L436.2 218.5Q435.1 158.4 438.35 99.15Q438.9 89.3 441.7 81.25Q441.8 79.3 442.45 77.5M361.95,76.75L365.95 75.25Q372.45 75.85 378.7 77.8L379.95 78.25L381.45 78.2L383.45 78Q412.75 90.45 420.45 123.4Q423.85 137.7 424.65 152.25Q428.3 218 373.05 252.8Q353.15 265.4 334.75 250.05Q302.5 223.15 309.5 180.25Q311.5 168.35 314.4 156.65Q324.2 117.9 347.2 85.25Q353.8 79.45 361.95 76.75M368.45,89.1Q368.2 89.1 367.95 89.25Q342.85 97.4 332.15 123.95Q322.45 147.85 316.9 173.05Q311.2 198.85 321.7 222Q347 257.1 381.1 231.6Q421.6 201.25 417 151.1Q415.85 138.45 411.3 126.3Q406.45 113.2 399.2 101.5Q395.1 99.1 390.6 97.6Q390.35 97.5 389.95 97.75Q380.75 89.3 368.45 89.1M410.75,282.3Q404.95 277.45 399.35 281.55Q363.45 307.45 367.35 355.7L389.45 353.95Q393.4 359.6 389.8 365.6Q377.9 368.45 366.65 362.95Q359.75 411.95 393.2 439.95Q412.35 432.55 417.5 413.9L417.9 414L418.75 413.5L422.45 410.2Q424.95 440.6 394.95 453.7Q385.2 450.6 377.75 443.45Q365.05 431.25 363.45 413.6Q361.2 388.25 359.75 363Q356.3 304.1 394.95 267.75L397.95 267.7Q419.3 267.35 416.2 287.75Q413.7 284.75 410.75 282.3M359.45,270.75Q360.55 292.1 358.1 315.15Q351.7 375.15 342.95 434.3Q341.55 444.05 336.95 452.2Q329.5 436.3 328.2 416Q327 397.4 323.95 379.95Q318.9 416.05 302.95 447.95Q297.9 419.7 297.9 388.95Q297.85 330.1 297.4 271.25Q297.35 267.3 300.2 266Q303.1 324.85 305 384.45Q305.7 406.3 304.95 427.45Q317.85 390.3 322.95 351.2Q328.55 358.6 330 371.05L336.7 432.45Q346.05 373.7 349.75 314.35Q351.1 292.35 358.05 272Q358.35 271.25 359.45 270.75M259.3,98.4Q258.05 100 256.7 98.25Q247.9 75.2 221.7 78.5Q193.5 96.7 186.2 130.85Q173.85 188.6 171.4 247.95Q168.95 307.45 169.25 367.2Q169.4 395.45 180.1 420.65Q190.7 445.6 216.85 439.2Q222.8 437.7 227.8 433.75Q259.15 408.9 268.05 368.8Q280.85 311 285 251.7Q289.25 191.3 273.25 134.35Q267.6 114.4 260.45 95.75Q260.2 97.25 259.3 98.4M255.6,76.95Q256.85 76.5 257.65 75.35L258.45 74.5Q282.2 114.65 288 163.15Q295.1 222.15 289.9 281.45Q284.7 340.95 266.95 397.85Q253.6 440.5 212.45 457.95Q204.7 461.2 198.1 456.9Q161 432.65 163 386.15Q163.3 378.9 163.25 371.2Q162.95 311.4 164.95 251.95Q167 192.15 178.25 133.9Q185.05 98.8 209.8 73.25Q215.2 67.65 221.95 64Q241.3 62.55 253.4 76.55L253.95 77.25L255.6 76.95M66.5,66Q74.1 61.45 83 62.25Q109.2 71.25 117.35 99.65Q125.35 127.6 124.7 157Q123.95 195.1 100.3 219.75Q123.05 229.9 132.6 255.5Q138.05 270.25 141.8 285.35Q156.4 344 141.25 402.65Q129.75 447 83.35 456.05Q65.5 459.5 47.5 455.95Q43.2 452.55 43.25 446.95Q43.25 444.9 43.9 443.1Q43.7 441.2 43.75 439.2Q47.9 413.2 48.45 382.45Q49.5 323 52.3 263.9L58 145.5Q59.85 107.5 66.05 71.3Q65.9 69.8 66.1 68.25L66.5 66M67.95,74.05Q69.45 99.7 67.15 126.6Q62.8 176.65 61 227.1Q101.3 220.35 113.8 179.45Q126.75 137.25 108.25 96.25Q96.25 69.65 67.95 74.05M85.75,231.65Q81.55 235.2 76.5 237.75Q73.05 239.45 69.35 240.5Q65 241.75 60.5 241.5L52.5 439.7Q63.25 440.1 74.2 439.15Q96.75 438.3 115.45 425.75Q133.7 413.5 138.35 391.7Q142.7 371.45 143.55 350.7Q144.4 329.55 140.65 308.7Q137.05 288.8 130 269.95Q122.9 250.9 109.7 235.25L107.95 233.95Q106.25 232.75 104.4 231.85Q102.65 230.95 100.75 230.45L96.95 229.65L93.8 229.4L91.75 228.85Q89.3 228.7 85.75 231.65" />
</g>
</svg>
