<?xml version="1.0" encoding="utf-8"?>
<svg version="1.1" id="Layer_1"
xmlns="http://www.w3.org/2000/svg"
xmlns:xlink="http://www.w3.org/1999/xlink"


xml:space="preserve">
q25.6 -7.75 41.3 9.85q23.35 26.2 19.5 61q-1.6 14.25 -7.1 27.3q-6.35 15.25 -19.95 24.55q-14 9.5 -31.15 10.4q6.6 -65.8 2.95 -131.95q-6.2 65.55 -9.75 132.65q-2.15 41.3 -6.8 83.1q-2.9 25.9 -9.5 51.1q-5.95 22.65 -3.25 45.65q0.4 3.2 2.6 5.7q18.05 -0.55 38.8 -6.4q16.45 -4.5 29.1 -15.4q6.75 -5.8 11.35 -13.25q16.85 -27.5 19.3 -59.5q3.7 -47.9 -28.65 -82q-4.85 -5.1 -10.3 -8.95q18.3 -14.75 24.35 -37.55q7.8 -29.45 3.55 -59.7q-1.8 -12.9 -7.95 -24.5q-13.7 -25.6 -41.1 -25.7q-8.8 0 -17.5 2.5q-2.9 -3.65 -6.65 -4.55q-22.65 -5.6 -39.15 13q-4.2 4.7 -6.15 10.6q-18.1 55.95 -10.5 114.8q4.25 32.8 27.45 54.85q55.45 -13 66.6 -67.75q5.5 -26.95 5.7 -54.95q0.35 -49.65 -34.55 -81.75q-4.35 -0.7 -7.25 2.5q-1.05 2.55 -1.2 5.25q-0.25 3.55 0.45 7q5.15 3.2 8.1 8.3q31.05 53.15 11.5 113.55q-5.05 15.55 -16.05 27.55q-14.75 16.15 -37.1 22.95q-4.3 1.35 -7.45 -1.85q-26.25 -26.85 -25.65 -65.25q0.5 -28.25 19.25 -47.65q18.6 -19.25 39.65 -10.6q-0.55 -2.3 0 -4.6q7.3 5.85 13.55 11.95q33.8 44.55 18.4 99.65q-3.3 11.7 -11.8 19.85q-28.75 27.5 -69.45 30q7.15 -31.25 9.9 -64.5q15.8 -0.1 29.8 -8.75q0.25 1.8 1.65 3q11.2 -0.05 22 2.1q16.5 3.4 24.8 18.85q29.9 55.8 5.7 113.9q-12.7 30.55 -42.15 44.2q-7 3.3 -13.75 -0.05q-24.05 -11.95 -27.9 -40.1q-6.05 -43.7 0.35 -87.4q4.45 -30.45 21.7 -54.5q-6.95 -1.05 -10.85 4.4q-17 23.45 -22.25 52.6q-10.75 59.6 4.7 117.95q6.3 23.7 28.85 30.6q7.8 2.35 14.8 -1.9q44.15 -26.75 53.25 -78.15q7.85 -44.2 -6.55 -86.85q-10.65 -31.65 -40.45 -41.4q-8.3 -1.5 -18.5 0.5q-1.55 7.85 -1.3 17.3q1.55 59.25 1.55 118.5q0.05 60.1 -5.05 119.35q-2.6 30 -7.05 59.65q-2.6 17.35 4.3 29.45q0.85 -0.75 0.95 -1.55q0.4 2.2 1.6 4.2q3.15 0.95 6.25 2.5q2.75 1.35 5.15 1.85q34.3 7.5 54.8 -22.1q8.95 -19.65 13.75 -40.6q13.5 -59.1 -3.25 -117.3q-8.25 -28.8 -33.1 -40.3q33.1 -46.55 17.4 -101.95q-5.3 -18.6 -22.65 -26.2q-16.95 -7.45 -35.8 -5.75q-1.5 -0.1 -1.95 1.45q-0.35 1.1 -0.35 2.3q0 1.1 0.15 2.2q-0.75 20.55 -8.35 39.7q-8.35 21.05 -28.9 29.95q-6.8 3 -14.3 3.95q2.1 -63.25 -2.9 -126.15q23.15 -2.75 39 13.05q16.25 16.3 15.45 39.5q27.85 9.15 36.3 37.6q17.35 58.7 0.65 117.6q-12.45 43.9 -57.7 43.25q-3.9 -3.3 -8.25 -6q-3.35 -1.2 -6 0.5q4.6 -50 8.6 -100.35q3.45 -43.9 3.8 -88.35q2.4 -1.9 5.5 -2.25q8.15 -1.05 14.6 -4.65<g id="186" transform="matrix(1, 0, 0, 1, -37.6, 0)">
<path style="fill:#000000;fill-opacity:1" d="M395.45,87.75Q404.15 85.25 412.95 85.25Q440.35 85.35 454.05 110.95Q460.2 122.55 462 135.45Q466.25 165.7 458.45 195.15Q452.4 217.95 434.1 232.7Q439.55 236.55 444.4 241.65Q476.75 275.75 473.05 323.65Q470.6 355.65 453.75 383.15Q449.15 390.6 442.4 396.4Q429.75 407.3 413.3 411.8Q392.55 417.65 374.5 418.2Q372.3 415.7 371.9 412.5Q369.2 389.5 375.15 366.85Q381.75 341.65 384.65 315.75Q389.3 273.95 391.45 232.65Q395 165.55 401.2 100Q404.85 166.15 398.25 231.95Q415.4 231.05 429.4 221.55Q443 212.25 449.35 197Q454.85 183.95 456.45 169.7Q460.3 134.9 436.95 108.7Q421.25 91.1 395.65 98.85L395.45 87.75M328,159.75Q328.15 157.05 329.2 154.5Q332.1 151.3 336.45 152Q371.35 184.1 371 233.75Q370.8 261.75 365.3 288.7Q354.15 343.45 298.7 356.45L293.45 355.45Q270.25 333.4 266 300.6Q258.4 241.75 276.5 185.8Q278.45 179.9 282.65 175.2Q299.15 156.6 321.8 162.2Q325.55 163.1 328.45 166.75Q327.75 163.3 328 159.75M328.95,173.1L328.45 173.25Q307.4 164.6 288.8 183.85Q270.05 203.25 269.55 231.5L268.8 273.5Q268.2 311.9 294.45 338.75Q297.6 341.95 301.9 340.6Q324.25 333.8 339 317.65Q350 305.65 355.05 290.1Q374.6 229.7 343.55 176.55Q340.6 171.45 335.45 168.25L328.95 168.5Q328.4 170.8 328.95 173.1M426.85,237.85Q412.85 246.5 397.05 246.6L389.5 336.25Q386.75 369.5 379.6 400.75Q420.3 398.25 449.05 370.75Q457.55 362.6 460.85 350.9Q476.25 295.8 442.45 251.25Q436.2 245.15 428.9 239.3L426.85 237.85M184.95,165.25L182.45 165.75L181.9 166.4L180.95 167.25L177.95 167.75Q160.7 191.8 156.25 222.25Q149.85 265.95 155.9 309.65Q159.75 337.8 183.8 349.75Q190.55 353.1 197.55 349.8Q227 336.15 239.7 305.6Q263.9 247.5 234 191.7Q225.7 176.25 209.2 172.85Q198.4 170.7 187.2 170.75Q185.8 169.55 185.55 167.75L185.1 165.5L184.95 165.25M186.75,157.75L187.75 157L188.45 156.5Q198.65 154.5 206.95 156Q236.75 165.75 247.4 197.4Q261.8 240.05 253.95 284.25Q244.85 335.65 200.7 362.4Q193.7 366.65 185.9 364.3Q163.35 357.4 157.05 333.7Q141.6 275.35 152.35 215.75Q157.6 186.6 174.6 163.15Q178.5 157.7 185.45 158.75L186.75 157.75M50.75,85L50.15 82.7Q50 81.6 50 80.5L49.95 79Q49.95 77.8 50.3 76.7Q50.75 75.15 52.25 75.25Q71.1 73.55 88.05 81Q105.4 88.6 110.7 107.2Q126.4 162.6 93.3 209.15L91.1 212Q115.95 223.5 124.2 252.3Q140.95 310.5 127.45 369.6Q122.65 390.55 113.7 410.2Q93.2 439.8 58.9 432.3Q56.5 431.8 53.75 430.45Q50.65 428.9 47.5 427.95Q46.3 425.95 45.9 423.75L45.45 428.15Q45.35 428.95 44.5 429.7Q37.6 417.6 40.2 400.25Q44.65 370.6 47.25 340.6Q52.35 281.35 52.3 221.25Q52.3 162 50.75 102.75Q50.5 93.3 52.05 85.45L50.75 85M95.2,99.8Q79.35 84 56.2 86.75Q61.2 149.65 59.1 212.9Q66.6 211.95 73.4 208.95Q93.95 200.05 102.3 179Q109.9 159.85 110.65 139.3Q111.45 116.1 95.2 99.8M81.6,219.85Q75.15 223.45 67 224.5Q63.9 224.85 61.5 226.75L59.05 226.65Q58.7 271.1 55.25 315Q51.25 365.35 46.65 415.35L47.5 413.7Q50.15 412 53.5 413.2Q57.85 415.9 61.75 419.2Q107 419.85 119.45 375.95Q136.15 317.05 118.8 258.35Q110.35 229.9 82.5 220.75L81.6 219.85" />
</g>
</svg>
