<?xml version="1.0" encoding="utf-8"?>
<svg version="1.1" id="Layer_1"
xmlns="http://www.w3.org/2000/svg"
xmlns:xlink="http://www.w3.org/1999/xlink"


xml:space="preserve">
q-9.95 -13.5 -24.85 -16.75q-8.65 3.45 -13.05 12.2q-21.5 42.55 -23.1 90.25q-1.95 58.7 2.75 117q2.65 29.15 22.65 48.6q17.55 -11.65 26.75 -30.85q26.05 -54.3 32.1 -113.85q6.25 -61.5 -27.9 -112.3q37.25 34.6 41.35 86.15q4.5 56.95 -15.85 111.5q-11.8 31.6 -36.3 53.4q-1.85 -1.2 -2.8 -3.1q-19.45 -39.25 -19.45 -84.6q0 -29.65 -0.85 -59.25q-1.8 -58.95 29.35 -107.25q2 0.35 3.4 1.85q-0.15 1.55 0.8 2.4q-0.3 1.1 -0.3 2.3q-4.15 25.55 -2.65 53.55q3.2 59.35 0.5 118.55q-2.75 59.75 -8.85 118.95q-1.7 16.6 3.9 29.95q0.9 -0.6 0.95 -1.3q6.8 -58.75 8.25 -118.4q1.05 -44.65 1.05 -89.25q-0.05 -55.25 -1.7 -109.3q10 -0.95 19.4 3.65q23.85 11.75 31.9 36.85q6.85 21.3 3.1 43.3q-7.6 44.25 -51.7 52.5q-1.05 2.5 -1.1 5.25q-0.05 2.7 0.95 5.2q19.15 1.1 33.25 -13.5q19.45 -20.1 23.85 -48.25q5.1 -32.45 -9.5 -61.8q-15.15 -30.5 -48.1 -32.45q0.5 59.3 -1.15 118.5q-0.8 29.95 -2.15 59.9q-2.75 59.85 -2.15 118.55q37.4 6 76.25 3q2.25 2.4 4.25 0.75q3.95 -8.5 0 -16.5q-39.65 6.2 -75.25 -4.25q0.65 -33.2 1.8 -66q2.05 -59.9 -1.55 -118.55q-4.15 10.35 -4.05 23.75q-6.25 2.8 -10.35 8.4q-24.3 32.8 -30.85 73q-6.9 42.45 -8.35 86q-1.8 55.1 17.35 106.45q2.55 6.75 8.7 10q23.25 12.4 38.45 -10.75q27.6 -42 33.75 -92.55q7.05 -57.95 -7.3 -114.4q-2.85 -11.2 -6.7 -22q-7.15 -20 -23.45 -28.9q-3.2 5.45 0.65 10.75q4.4 6.05 7.65 12.6q5.5 11 10.35 22.35q17.65 41.45 15.45 87.8q-2.55 54.15 -26 102.4q-12.65 26.1 -39.85 21.8q-11.8 -24.05 -14.05 -50.8q-5 -58.8 1.65 -118q5.45 -48.9 38.65 -84.65q11.55 -1.05 21 4q-2.5 -16.4 -20.1 -15.5q-0.05 2.7 1 5.25q0.15 42.1 -2.65 83.9q-2.2 32.8 -3.25 65.75q-1.2 2.05 -1.3 4.45q-0.15 3.4 2 5.75q-0.6 21.45 -0.7 43.05q-0.15 29.7 -2.3 59.15q-1.8 25.35 -1.05 49.85q-0.5 1.65 -0.45 3.5q0.05 2.2 0.75 4.35q1.25 1.35 2.6 0.75q21.95 7.35 45.85 2q9.95 -6.2 18.3 -14q7 -6.55 11.65 -14.5q11.9 -20.6 11.4 -45q-1.15 -53.65 -29.1 -98.95q-9.05 -8.05 -20.9 -10.85q12.5 -12.75 19.55 -30.9q9.2 -23.95 5.6 -49.45q-7.2 -51 -54.3 -70.45q-2.2 1.3 -2.25 4.25q-10.7 40.75 -46.95 56.4q0.9 -16.8 2.25 -33.55q4.6 -56.5 1.1 -112.65q11.3 5.15 20.8 13.95q34.4 31.7 22.8 75.85q13.45 17.2 20.1 38.6q6.55 21.15 7.95 43.15q1.4 22.1 -9.35 41.6q-11.2 20.25 -33.15 24.2q-18.1 3.1 -36.45 1.5q4.65 -65.5 4.1 -131.2q-0.1 -9.15 0.25 -18.3q13 3.1 23.35 11.45q0.85 0.65 1.35 1.8<g id="187" transform="matrix(1, 0, 0, 1, -62.4, 0)">
<path style="fill:#000000;fill-opacity:1" d="M391.9,146.45Q426.05 197.25 419.8 258.75Q413.75 318.3 387.7 372.6Q378.5 391.8 360.95 403.45L351.45 404.2Q331.45 384.75 328.8 355.6L327.55 340.45Q322.85 282.15 324.8 223.45Q326.4 175.75 347.9 133.2Q352.3 124.45 360.95 121Q375.85 124.25 385.8 137.75L391.9 146.45M369.7,135.5L369.35 134.85Q367.95 133.35 365.95 133L359.95 134.05L357.95 134.5Q326.8 182.8 328.6 241.75Q329.45 271.35 329.45 301Q329.45 346.35 348.9 385.6Q349.85 387.5 351.7 388.7L359.7 388.95Q384.2 367.15 396 335.55Q416.35 281 411.85 224.05Q407.75 172.5 370.5 137.9Q369.55 137.05 369.7 135.5M442.95,116.75Q475.9 118.7 491.05 149.2Q505.65 178.55 500.55 211Q496.15 239.15 476.7 259.25Q462.6 273.85 443.45 272.75L443.05 271.95Q442.05 269.45 442.1 266.75Q442.15 264 443.2 261.5Q487.3 253.25 494.9 209Q498.65 187 491.8 165.7Q483.75 140.6 459.9 128.85Q450.5 124.25 440.5 125.2Q442.15 179.25 442.2 234.5Q442.2 279.1 441.15 323.75Q439.7 383.4 432.9 442.15Q432.85 442.85 431.95 443.45Q426.35 430.1 428.05 413.5Q434.15 354.3 436.9 294.55Q439.6 235.35 436.4 176Q434.9 148 439.05 122.45L439.05 122.25Q439.05 121.05 439.35 119.95L439.45 119.25L439.65 119L440.2 116L440.3 118.45L442.2 117.2L442.95 116.75M180.2,108.25Q183.8 166.9 181.75 226.8L177.75 345.95Q176.6 378.75 175.95 411.95Q211.55 422.4 251.2 416.2Q255.15 424.2 251.2 432.7Q249.2 434.35 246.95 431.95Q208.1 434.95 170.7 428.95Q170.1 370.25 172.85 310.4Q174.2 280.45 175 250.5Q176.65 191.3 176.15 132Q176.05 118.6 180.2 108.25M282.05,126.75L281.95 127.25Q272.5 122.2 260.95 123.25Q227.75 159 222.3 207.9Q215.65 267.1 220.65 325.9Q222.9 352.65 234.7 376.7L236.85 378.85L241.45 384.2Q268.65 388.5 281.3 362.4Q304.75 314.15 307.3 260Q309.5 213.65 291.85 172.2Q287 160.85 281.5 149.85Q278.25 143.3 273.85 137.25Q270 131.95 273.2 126.5Q289.5 135.4 296.65 155.4Q300.5 166.2 303.35 177.4Q317.7 233.85 310.65 291.8Q304.5 342.35 276.9 384.35Q261.7 407.5 238.45 395.1Q232.3 391.85 229.75 385.1Q210.6 333.75 212.4 278.65Q213.85 235.1 220.75 192.65Q227.3 152.45 251.6 119.65Q255.7 114.05 261.95 111.25Q279.55 110.35 282.05 126.75M73,89.75Q120.1 109.2 127.3 160.2Q130.9 185.7 121.7 209.65Q114.65 227.8 102.15 240.55Q114 243.35 123.05 251.4L124.2 252.25Q152.15 297.55 153.3 351.2Q153.8 375.6 141.9 396.2Q137.25 404.15 130.25 410.7Q121.9 418.5 111.95 424.7Q88.05 430.05 66.1 422.7Q64.75 423.3 63.5 421.95L63.45 420.35Q62.75 418.2 62.7 416Q62.65 414.15 63.15 412.5Q62.4 388 64.2 362.65Q66.35 333.2 66.5 303.5Q66.6 281.9 67.2 260.45Q65.05 258.1 65.2 254.7Q65.3 252.3 66.5 250.25L67.5 249.9Q68.55 216.95 70.75 184.15Q73.55 142.35 73.4 100.25L73.4 99.9L71.75 99.25Q70.7 96.7 70.75 94Q70.8 91.05 73 89.75M97.7,115.3Q88.2 106.5 76.9 101.35Q80.4 157.5 75.8 214Q74.45 230.75 73.55 247.55Q109.8 231.9 120.5 191.15Q132.1 147 97.7 115.3M118.1,258.7Q107.75 250.35 94.75 247.25L72.9 260.05Q72.55 269.2 72.65 278.35Q73.2 344.05 68.55 409.55Q86.9 411.15 105 408.05Q126.95 404.1 138.15 383.85Q148.9 364.35 147.5 342.25Q146.1 320.25 139.55 299.1Q132.9 277.7 119.45 260.5Q118.95 259.35 118.1 258.7" />
</g>
</svg>
