<?xml version="1.0" encoding="utf-8"?>
<svg version="1.1" id="Layer_1"
xmlns="http://www.w3.org/2000/svg"
xmlns:xlink="http://www.w3.org/1999/xlink"


xml:space="preserve">
q-3.9 21.3 -4.85 42.95q-0.95 21.8 0.55 43.5q1.65 23.4 22.25 33q21.05 9.75 40.9 -1.4q8.4 -4.7 13.8 -12.7q4.1 -31.4 -0.6 -62.65q-11 -3.15 -19.5 2.75q-21.2 29.15 -55.3 13.1q-5.6 -2.6 -7.4 -9.1q-11.8 -41.85 -3.55 -84.6q2.45 -12.75 8.7 -23.85q5.15 -9.05 13.5 -15.25q16.1 -12.05 34.8 -5q7.75 2.9 14.25 8.5q-0.4 -25.1 -25.9 -25.9q-22.55 -1.3 -35.3 17.5q-11.1 16.45 -14.7 36.15q-4.2 -1.1 -8.5 -1.6q-4.55 2.8 -5.05 9.15q-2.95 37.5 -4.3 75.25q-1.6 3.5 -1.5 7.45q0.1 3.15 2 5.3q-0.45 15.7 -0.6 31.45q-0.15 15 -1.75 29.85q-0.9 8.35 0.05 15.4q-0.2 4.85 2.05 9q0.9 2.45 2.1 4.7q1.15 -1.8 1.8 -3.75q24.2 5.15 46.65 -6.9q26.3 -14.1 24.9 -44.4q-1.35 -27.95 -21.8 -42.8q1.75 -1.45 2.75 -3.35q23.85 -46.7 -17.8 -79.5q-2.85 -0.95 -4.9 -3.25q-1.8 35.55 -4.2 71.2q-2.95 44.7 1.55 88.5q0.9 8.45 6.95 13.9q15.75 14.05 38.15 6.35q13.8 -4.75 21.75 -16.5q26.5 -39.05 26.3 -87.45q-0.1 -29.5 1.3 -59.15q0.85 -17.15 -5.8 -29.55q-0.5 0.25 -0.5 0.5q-1.7 45.85 -2.45 92.95q-0.5 31 -14.2 58.45q-17.15 34.3 -58.6 26.3q-7.5 -25.85 -5.15 -53.3q4.95 -59.25 3.65 -117.65q-2.95 3.85 -3.25 9.95q11.2 1.7 19.55 8.45q16.5 13.35 16.75 34.05q0.35 25.05 -28.45 29.1q16.2 2.5 31.15 -2.1q3.5 -0.65 6.3 0.9q26.7 14.8 21.75 45.15q-1.05 6.7 -5.9 10.95q-24.3 21.45 -56.65 15.25q0.15 -35.15 2.05 -70q-10.25 40.15 11 74.65q11.5 6 21.85 -2.3q34.25 -27.35 25.6 -71.45q-6.3 -32.15 -38.45 -32.95q-7.05 1.7 -9.55 8.7q-1.45 4.15 -4.95 6.55q-3.3 8.35 -5.5 16.8q2.65 1.95 5.75 2.75q18.95 21.4 9.6 48.6q-9.35 27.2 -36.85 26.85q-3.05 -3.4 -4.9 -7.6q-14.3 -32 0.4 -62.85q7.5 -6.45 17.5 -7.2<g id="200" transform="matrix(1, 0, 0, 1, -137.5, 0)">
<path style="fill:#000000;fill-opacity:1" d="M352.25,203.35Q365 184.55 387.55 185.85Q413.05 186.65 413.45 211.75Q406.95 206.15 399.2 203.25Q380.5 196.2 364.4 208.25Q356.05 214.45 350.9 223.5Q344.65 234.6 342.2 247.35Q333.95 290.1 345.75 331.95Q347.55 338.45 353.15 341.05Q387.25 357.1 408.45 327.95L410.25 329.8L410.45 317.2L393.95 315.1L393.95 308.45Q402.45 302.55 413.45 305.7Q418.15 336.95 414.05 368.35L411.75 368.55L410.2 344.85Q404.8 352.85 396.4 357.55Q376.55 368.7 355.5 358.95Q334.9 349.35 333.25 325.95Q331.75 304.25 332.7 282.45Q333.65 260.8 337.55 239.5Q341.15 219.8 352.25 203.35M171.5,181.75Q173.55 184.05 176.4 185L179.25 186.25Q220.9 219.05 197.05 265.75Q196.05 267.65 194.3 269.1Q214.75 283.95 216.1 311.9Q217.5 342.2 191.2 356.3Q168.75 368.35 144.55 363.2Q143.9 365.15 142.75 366.95Q141.55 364.7 140.65 362.25L140.5 362.2Q138.25 358.05 138.45 353.2Q137.5 346.15 138.4 337.8Q140 322.95 140.15 307.95Q140.3 292.2 140.75 276.5Q138.85 274.35 138.75 271.2Q138.65 267.25 140.25 263.75L141.15 263.9Q142.5 226.15 145.45 188.65Q145.95 182.3 150.5 179.5L150.65 181.25L161 179.75Q165.3 180.25 169.5 181.35L171.5 181.75M234.2,184Q235.5 242.4 230.55 301.65Q228.2 329.1 235.7 354.95L241.2 359.45Q282.65 367.45 299.8 333.15Q313.5 305.7 314 274.7Q314.75 227.6 316.45 181.75Q316.45 181.5 316.95 181.25Q323.6 193.65 322.75 210.8Q321.35 240.45 321.45 269.95Q321.65 318.35 295.15 357.4Q287.2 369.15 273.4 373.9Q251 381.6 235.25 367.55Q229.2 362.1 228.3 353.65Q223.8 309.85 226.75 265.15Q229.15 229.5 230.95 193.95Q231.25 187.85 234.2 184M151.25,191.6L148.25 264.5L169.25 263.7Q198.05 259.65 197.7 234.6Q197.45 213.9 180.95 200.55Q172.6 193.8 161.4 192.1L151.25 191.6M145.35,348.35Q177.7 354.55 202 333.1Q206.85 328.85 207.9 322.15Q212.85 291.8 186.15 277Q183.35 275.45 179.85 276.1L178.55 276.25Q163.6 280.85 147.4 278.35Q145.5 313.2 145.35 348.35M249.45,226.5Q252.95 224.1 254.4 219.95Q256.9 212.95 263.95 211.25Q296.1 212.05 302.4 244.2Q311.05 288.3 276.8 315.65Q266.45 323.95 254.95 317.95Q233.7 283.45 243.95 243.3Q246.15 234.85 249.45 226.5M253.95,234.95L252.95 235.75Q238.25 266.6 252.55 298.6Q254.4 302.8 257.45 306.2Q284.95 306.55 294.3 279.35Q303.65 252.15 284.7 230.75Q281.6 229.95 278.95 228L271.45 227.75Q261.45 228.5 253.95 234.95" />
</g>
</svg>
