<?xml version="1.0" encoding="utf-8"?>
<svg version="1.1" id="Layer_1"
xmlns="http://www.w3.org/2000/svg"
xmlns:xlink="http://www.w3.org/1999/xlink"


xml:space="preserve">
q-7.55 -22.25 -29.55 -8.9q-10.05 6.1 -14.55 18.25q-4.55 12.3 -7.3 25.1q-4.2 19.6 -5.95 39.65q-1.05 12.05 -2.5 24.25q-1.45 12.4 1.6 24.45q4.45 17.65 18.7 28.65q14.15 10.95 27.5 -1.9q10.65 -10.3 11.05 -24.9q-13.05 25.15 -37.15 14.6q-9.8 -4.35 -11.95 -14.6q-5.7 -27.25 -2.7 -55.3q-0.45 -38.6 27 -64.85q5.05 -4.85 12.3 -3.2q6.45 1.6 11.4 5.95q-2.65 8.05 -3.3 17.45q-2.25 32 -4.05 64.2q-2.5 45.4 -2.3 91.35q-0.9 2.6 -0.6 5.45q0.15 1.25 0.7 2.4q-0.15 21.3 -2.55 42.25q-5.5 48.3 -9.65 96.8q-4.15 48.35 -9.2 96.55q-1.3 12.25 -3.9 24.2q-2.95 13.85 2.15 23.3q7.25 -42 10.2 -85q3.3 -48.25 9.55 -95.95q6.2 -47.6 6.55 -96.05q8.95 -1.2 17.35 -5.55q2.2 10.6 6.05 21.4q16.7 46.75 35.45 93.15q9.2 22.75 16.75 46.1q14.2 44 25.35 89.15q5.8 23.4 14 43.75q1.5 -17.3 -4.4 -35.55q-6.3 -19.55 -11.15 -39.35q-11.45 -46.8 -29.2 -91.45q-17.7 -44.65 -35.1 -89.6q-7.65 -19.8 -15.7 -38.75q40.6 -24.2 43.85 -73.2q2.4 -36.65 -10.65 -70.8q-12.8 -33.5 -47.3 -36.45q22.2 9.85 31.35 34.45q12.5 33.55 6.3 68.6q-9.3 53 -61.2 65.25q0.6 -40.1 2.75 -79.8q2.55 -46.9 4.5 -92.25q8.3 0.2 16.3 3.75q-13.55 -13.3 -31.05 -4.4q-15.65 7.9 -23.35 24.3q-6.9 14.7 -9.6 30.8q-2.5 15.1 -2.9 30.45q-0.4 16.15 7.25 30.2q8.55 15.55 24.9 23.1q16.65 7.65 31.15 -5.65q12.1 -11 16.95 -26.65q2.05 -6.7 0.9 -11.5q-9.5 16.9 -24.05 30.25q-9.95 9.2 -22.6 5.1q-5.8 -1.8 -10.7 -5.1q-5.15 -3.5 -8.2 -9.1q-8.25 -15.3 -10.35 -32.6q-0.7 -5.85 0.5 -10.5q-27.1 -0.2 -52.9 11.7q2.15 -30.95 24.95 -51.35q13.45 -12.05 30.65 -6.65q-8.6 25.25 -14.4 52.65q-3.7 17.8 -6.1 35.85q-6.35 47.55 -19.9 93.3q-7 23.45 -8.35 46.6q1.6 1.55 3.05 0q4.05 -18.65 8.8 -37.35q4.75 -18.8 8.2 -38.05q8.5 -47.2 17.45 -94.2q9.05 -47.3 20.65 -93.75q4.45 -17.95 5.25 -35.05q10.1 34.95 29.05 66.65q6.7 16.6 12.9 33.4q5.85 15.85 12.35 30q0.5 -0.5 0.5 -1q-0.7 -22.5 -11.5 -43.85q-21.65 -42.5 -42.6 -85.2q-0.75 -0.15 -0.7 0q-2.1 15.25 -3.55 32.15q-3 36.1 -5.65 72.25q-2.8 38.3 -4.7 76.65q-1.15 1.95 -1.15 4.3q0 2.3 1.15 4.25q-2.1 48.1 -2.2 96.65q-0.1 48 -0.6 96q-0.2 24.25 -2.4 48.2q-1.7 18.8 1.5 35.35q8.95 -1.05 17.8 -3.65q19.3 -5.65 38.75 -10.95q20.75 -5.7 34.75 -22q25.15 -29.35 30.7 -68.1q6.75 -47.3 -2.15 -94.3q-7.2 -38.1 -29.7 -69.15q-0.8 -1.5 -2.4 -2.1q-13.6 -16.3 -32.85 -24.35q19.5 -11.95 30.25 -31.25q9.7 -17.45 9.2 -37.6q-0.65 -24.15 -11.15 -45.85q-22.1 -45.6 -70.25 -60.95q-1.4 0.7 -1.3 2.4q6 -46.4 4.55 -92.75q21.9 7.7 40.35 23.55q42.2 36.25 35.05 91.25q-1.65 12.65 -9.95 22.45q-30.9 36.3 -75.6 43.1q0.65 -19.8 1.45 -39.5q1.05 -24.2 4.15 -48.1q-1.55 37.35 -1.1 75.2q0.25 24.45 6.85 47.7q2 2 2.45 4.9q7.25 5.95 16.7 6.5q15.25 -5.85 22.6 -20.4q5.15 -10.15 6.6 -21.4q6.3 -48.2 -2.7 -95.6q-0.85 -0.15 -0.9 0.45q-1.75 19.75 0.4 39.85q2.25 21.05 0.85 41.55q-1.2 18.15 -10.35 33.05q-9.15 14.95 -24.7 10.9q-2.6 -0.7 -4.1 -2.6q-8.75 -11.1 -9.15 -25.55q-0.6 0.4 -0.65 0.85q26.65 42.3 28.7 92.35q1 24 -1.7 47.95q-4.25 38.05 -27.35 67.9q-5.35 6.95 -13.25 11q-36.75 18.85 -77.45 26.7q1.8 -13.6 1.9 -27.95q0.4 -48.6 1.5 -97.25q21.45 -0.05 40.1 -12.25q26.8 9.75 43.65 32.5q21.65 -0.05 20.5 23.75q-1.25 26.4 -26.15 29.25q1.75 -26.75 3 -53.3q-8.5 -4.7 -16.2 1.3q-2.9 48.4 -9.3 97.2q-2 15.3 -0.2 30.75q8.2 -31.7 8.6 -64.6q5.15 33.35 21.55 63.85q-4.35 -33 -20.15 -64.95q11.2 -9.85 14.35 -24.4q0.95 -4.25 1 -8.85q1.4 -19.3 -15.25 -28.5q-1.75 8.9 -1.5 19.2q1.2 48.2 -1.75 96.55q-0.85 13.6 2.85 23.9q4.3 -45.05 2.15 -91.15q-0.6 -12.25 0.2 -24.35q0.8 -13.4 -1.95 -24.15q-2.15 14.8 -5.4 29.55q-2.55 11.7 -5.85 23.2q-4.15 14.3 -10.1 27.95q-6.3 14.5 -1.25 28.85q1.1 4.85 3.6 7.6q-0.05 -23.5 -6.25 -46.6q-10.1 -37.9 -20.9 -75.45q-7.15 15.5 -9.6 32.75q-9.25 2.9 -19.6 3.3q2.1 -9.25 2.3 -18q0.4 5.1 1.8 10.75<g id="361" transform="matrix(1, 0, 0, 1, -22.9, 0)">
<path style="fill:#000000;fill-opacity:1" d="M504.9,52.6Q499.95 48.25 493.5 46.65Q486.25 45 481.2 49.85Q453.75 76.1 454.2 114.7L486.75 118.95L486.6 126.65L452.9 120.6Q449.9 148.65 455.6 175.9Q457.75 186.15 467.55 190.5Q491.65 201.05 504.7 175.9Q504.3 190.5 493.65 200.8Q480.3 213.65 466.15 202.7Q451.9 191.7 447.45 174.05Q444.4 162 445.85 149.6Q447.3 137.4 448.35 125.35Q450.1 105.3 454.3 85.7Q457.05 72.9 461.6 60.6Q466.1 48.45 476.15 42.35Q498.15 29 505.7 51.25L504.9 52.6M371.8,32.6Q406.3 35.55 419.1 69.05Q432.15 103.2 429.75 139.85Q426.5 188.85 385.9 213.05Q393.95 232 401.6 251.8Q419 296.75 436.7 341.4Q454.45 386.05 465.9 432.85Q470.75 452.65 477.05 472.2Q482.95 490.45 481.45 507.75Q473.25 487.4 467.45 464Q456.3 418.85 442.1 374.85Q434.55 351.5 425.35 328.75Q406.6 282.35 389.9 235.6Q386.05 224.8 383.85 214.2L380.2 216.15Q371.8 220.5 362.85 221.7L362.8 228.1Q362.45 276.55 356.25 324.15Q350 371.85 346.7 420.1Q343.75 463.1 336.5 505.1Q331.4 495.65 334.35 481.8Q336.95 469.85 338.25 457.6Q343.3 409.4 347.45 361.05Q351.6 312.55 357.1 264.25Q359.5 243.3 359.65 222L359.15 222L358.3 220.7Q357.75 219.55 357.6 218.3Q357.3 215.45 358.2 212.85L358.55 212.2L359.65 212Q359.45 166.05 361.95 120.65Q363.75 88.45 366 56.45Q366.65 47.05 369.3 39L369.15 38.55L369 37.9L368.95 37.3L369.05 35.5L369.35 34.25L369.8 33.7L370.6 33.15L371.75 32.75L371.8 32.6M370.25,39.2Q368.3 84.55 365.75 131.45Q363.6 171.15 363 211.25Q414.9 199 424.2 146Q430.4 110.95 417.9 77.4Q408.75 52.8 386.55 42.95Q378.55 39.4 370.25 39.2M329.2,222L322.8 219.7Q305.6 214.3 292.15 226.35Q269.35 246.75 267.2 277.7Q293 265.8 320.1 266L320.6 269.9L317.55 272.75L267.4 284.55Q266.2 289.2 266.9 295.05Q269 312.35 277.25 327.65Q280.3 333.25 285.45 336.75Q290.35 340.05 296.15 341.85Q308.8 345.95 318.75 336.75Q333.3 323.4 342.8 306.5Q343.95 311.3 341.9 318Q337.05 333.65 324.95 344.65Q310.45 357.95 293.8 350.3Q277.45 342.75 268.9 327.2Q261.25 313.15 261.65 297Q262.05 281.65 264.55 266.55Q267.25 250.45 274.15 235.75Q281.85 219.35 297.5 211.45Q315 202.55 328.55 215.85L329.2 222M277.05,74.2Q265.45 120.65 256.4 167.95Q247.45 214.95 238.95 262.15Q235.5 281.4 230.75 300.2Q226 318.9 221.95 337.55Q220.5 339.1 218.9 337.55Q220.25 314.4 227.25 290.95Q240.8 245.2 247.15 197.65Q249.55 179.6 253.25 161.8L267.9 91.8Q273.7 64.4 282.3 39.15Q281.5 56.25 277.05 74.2M191.8,34.85Q212.75 77.55 234.4 120.05Q245.2 141.4 245.9 163.9Q245.9 164.4 245.4 164.9Q238.9 150.75 233.05 134.9Q226.85 118.1 220.15 101.5Q201.2 69.8 191.1 34.85Q191.05 34.7 191.8 34.85M43,33.05L42.75 30.6Q42.65 28.9 44.05 28.2L44.85 27.95Q93 43.3 115.1 88.9Q125.6 110.6 126.25 134.75Q126.75 154.9 117.05 172.35Q106.3 191.65 86.8 203.6L81.4 207.1Q100.65 215.15 114.25 231.45L114.55 231.95Q116.15 232.55 116.95 234.05L117.8 235.85Q140.3 266.9 147.5 305Q156.4 352 149.65 399.3Q144.1 438.05 118.95 467.4Q104.95 483.7 84.2 489.4Q64.75 494.7 45.45 500.35Q36.6 502.95 27.65 504L26.1 511.4Q22.9 494.85 24.6 476.05Q26.8 452.1 27 427.85Q27.5 379.85 27.6 331.85Q27.7 283.3 29.8 235.2L30.35 223.8L27.5 223.6Q26.35 221.65 26.35 219.35Q26.35 217 27.5 215.05L30.8 214.7Q32.7 176.35 35.5 138.05Q38.15 101.9 41.15 65.8Q42.6 48.9 44.7 33.65L43 33.05M36.45,174.65Q35.65 194.35 35 214.15Q79.7 207.35 110.6 171.05Q118.9 161.25 120.55 148.6Q127.7 93.6 85.5 57.35Q67.05 41.5 45.15 33.8Q46.6 80.15 40.6 126.55Q37.5 150.45 36.45 174.65M156.75,210.15L159.55 305.55Q159.95 320 168.7 331.1Q170.2 333 172.8 333.7Q188.35 337.75 197.5 322.8Q206.65 307.9 207.85 289.75Q209.25 269.25 207 248.2Q204.85 228.1 206.6 208.35Q206.65 207.75 207.5 207.9Q216.5 255.3 210.2 303.5Q208.75 314.75 203.6 324.9Q196.25 339.45 181 345.3Q171.55 344.75 164.3 338.8Q163.85 335.9 161.85 333.9Q155.25 310.65 155 286.2Q154.55 248.35 156.1 211Q156.15 210.55 156.75 210.15M118.4,244.2Q101.55 221.45 74.75 211.7Q56.1 223.9 34.65 223.95L33.35 271.3Q32.25 319.95 31.85 368.55L31.15 465.75Q31.05 480.1 29.25 493.7Q69.95 485.85 106.7 467Q114.6 462.95 119.95 456Q143.05 426.15 147.3 388.1Q150 364.15 149 340.15Q146.95 290.1 120.3 247.8L118.4 244.2M165.5,366.3Q164.25 392.85 162.5 419.6Q187.4 416.75 188.65 390.35Q189.8 366.55 168.15 366.6L165.5 366.3M192.9,389.8Q192.85 394.4 191.9 398.65Q188.75 413.2 177.55 423.05Q193.35 455 197.7 488Q181.3 457.5 176.15 424.15L161.9 428.25Q161.5 461.15 153.3 492.85Q151.5 477.4 153.5 462.1Q159.9 413.3 162.8 364.9L161.45 362.6Q169.15 356.6 177.65 361.3Q194.3 370.5 192.9 389.8M223.7,381.25Q222.9 393.35 223.5 405.6Q225.65 451.7 221.35 496.75Q217.65 486.45 218.5 472.85Q221.45 424.5 220.25 376.3Q220 366 221.75 357.1Q224.5 367.85 223.7 381.25M279.85,359.15L286.4 382.2Q297.2 419.75 307.3 457.65Q313.5 480.75 313.55 504.25Q311.05 501.5 309.95 496.65L294.7 428.5L266.4 432.8L247.65 501.45Q242.6 487.1 248.9 472.6Q254.85 458.95 259 444.65Q262.3 433.15 264.85 421.45Q268.1 406.7 270.25 391.9Q272.7 374.65 279.85 359.15M279.95,366.35Q279.75 375.1 277.65 384.35L267.8 427.05L273.15 424.2Q283.5 423.8 292.75 420.9L281.75 377.1Q280.35 371.45 279.95 366.35" />
</g>
</svg>
