<?xml version="1.0" encoding="utf-8"?>
<svg version="1.1" id="Layer_1"
xmlns="http://www.w3.org/2000/svg"
xmlns:xlink="http://www.w3.org/1999/xlink"


xml:space="preserve">
q-6.95 -19.45 -27.2 -20.15q-28.25 20.2 -32.05 56.35q-6.1 57.55 -6.9 115.35q-1.05 72.8 -3 145.4q-0.3 10.35 1.4 20.6q1.35 8.05 3.15 16.1q1.3 6 3.25 11.85q0.9 2.7 2.3 5.2q1.5 2.6 3.5 4.45q21.3 -14.5 36.5 -35.25q6.35 -8.7 8.75 -19q1 -4.35 -1.5 -8.25q-1.25 -1.9 -2.75 -3.15q-15.5 28.6 -41 48.75q-10.25 -21 -11.2 -44.75q-1.8 -46.05 0.1 -92.25q1.2 -29.5 1.85 -59.05q3.05 -4.75 1.1 -9.95q-18.85 1.15 -36 9.25q-6.6 -74.95 24.85 -141q3.6 -7.55 12.2 -9.2q7 -1.5 13.45 1.25q8.7 3.8 16.45 9.1q-7.05 52.95 -7.35 107.7q-0.3 59.55 -4.3 118.45q-3.55 52 -8.3 103.8q-11.3 -52.5 -18.05 -106.1q-7.4 -58.7 -17.35 -117q-9.95 -58.45 -26.75 -114.65q-0.8 -0.15 -0.85 0.3q-3.15 10.75 -2.95 23.6q0.55 38.75 0.45 77.25q-0.15 59.55 -1.05 119.25q-0.9 60.1 -8.1 119.05q-2.8 23.15 0.25 44.4q7.9 -11.1 8.75 -27.65q3.1 -58.9 4.05 -118.55q0.95 -59.6 1.5 -119.25q0.4 -45 -0.95 -89.65q13.8 57.5 22.85 115.85q9.05 58.4 16.35 117q7.25 58 21.45 114.65q1.35 2.7 4 1.5q1.55 -2 1.45 -4.45q-0.25 -7.3 -1.15 -14.6q3.05 -29.15 5.3 -58.85q4.4 -59.15 6.05 -118.55q1.6 -59.85 5.3 -119.15q1.9 -30.5 -0.7 -59.35q-0.8 -0.15 -0.9 0.3q-3.8 12.9 -4.8 27.5q-3.15 43.4 -1.95 87.05q1.6 60 -1.25 119.3q-2.9 59.8 -8.95 119q-1.75 16.95 3.75 29.4q0.9 -0.75 1 -1.6q4.05 -26.55 5.4 -53.85q2.95 -59.15 5.55 -118.5q2.55 -59.5 0.6 -119.25q-0.45 -15 0.85 -29.9q2.65 -30.25 0.6 -59.35q-1.7 0.65 -2.3 2.3q-1.25 2.85 -0.95 5.95q0.15 1.5 0.85 2.75q-0.15 55.4 -3.7 110.8q-0.95 3.35 -0.6 6.75q0.25 2.35 2.1 3.65q-3.55 59.6 -13.3 118.2q-2.85 17.35 3.75 29.75q0.65 -0.5 0.75 -1.1q3.1 -16.2 5.2 -32.75q7.35 -58.5 10.5 -117.8q2.25 -0.5 4.1 -1.65q9.75 -6.05 17.85 -13.3q-0.45 14.85 2.6 30.15q4.05 20.3 8.6 40.7q12.8 57.15 20.85 115.1q1.05 7.5 1 14.95q-0.15 17.4 8.5 28.25q2.45 -2.85 2.1 -6.7q-5.65 -58.95 -16.95 -117q-10.7 -54.7 -23.8 -108.2q23.2 -22.6 30.9 -56.45q2.85 -12.6 2.35 -25.45q-1.75 -44.85 -34.85 -72.4q-6.8 -3.1 -14.4 -3.4q2.4 -23.95 -0.8 -47.05q33.2 5.35 43.1 39.6q16.55 57.6 -29.25 97.95q-9.05 7.95 -19.2 13.95q1.25 -29.6 4.15 -59.1q-3.4 1 -6 2.9q-1.8 0.1 -2.05 2.25q-3.65 28.75 -4.1 58.5q-0.8 52 -3.4 103.85q-0.45 2.55 -0.4 5.25q-1.65 29.75 -2.75 59.3q-2.2 59.3 -7.8 118.3q-0.75 7.75 0.05 14.8q-0.75 2.95 1.35 7.5q0.9 3.9 2.35 7.55q0.85 -0.6 0.9 -1.3q12.05 -0.55 24.35 -0.2q52.75 -13.95 65.35 -67.7q13.75 -58.85 -1.2 -117.2q-7.85 -30.5 -31.8 -47.25q15.6 -18.8 19.9 -46.1q4.05 -25.6 0.2 -51.2q-6.95 -46 -50.95 -58.5q2.05 22 -4.5 43.15q-6.2 20.05 -22.6 31.75q-7.85 8.75 -20 12.05q-6.65 1.95 -13.4 2.8q5.1 -76.8 4.5 -153.7q20.75 3.6 31.2 23q10.15 18.8 12.15 40.2q19.75 7.4 28.35 28.6q13.55 33.45 13.4 69.45q-0.05 18.5 -3.75 36.6q-3.35 16.35 -9.95 31.8q-3.95 9.15 -10.5 16.75q-12.2 14.2 -29.85 20.05q-17.05 5.7 -35.35 5.1<g id="354" transform="matrix(1, 0, 0, 1, -57.5, 0)">
<path style="fill:#000000;fill-opacity:1" d="M499.9,113Q492.15 107.7 483.45 103.9Q477 101.15 470 102.65Q461.4 104.3 457.8 111.85Q426.35 177.9 432.95 252.85L434.45 249.5Q451.6 241.4 470.45 240.25L471.9 243.4Q473.85 248.6 470.8 253.35L433.7 259.75L432.85 256.95Q432.2 286.5 431 316Q429.1 362.2 430.9 408.25Q431.85 432 442.1 453L453.95 453.2Q479.45 433.05 494.95 404.45Q496.45 405.7 497.7 407.6Q500.2 411.5 499.2 415.85Q496.8 426.15 490.45 434.85Q475.25 455.6 453.95 470.1L440.25 468.9Q438.25 467.05 436.75 464.45L435.9 463.05L434.95 461.7L434.1 460.35Q432.7 457.85 431.8 455.15Q429.85 449.3 428.55 443.3Q426.75 435.25 425.4 427.2Q423.7 416.95 424 406.6Q425.95 334 427 261.2Q427.8 203.4 433.9 145.85Q437.7 109.7 465.95 89.5L474.75 89.85Q495 90.55 501.95 110L500.85 113.6L499.9 113M411.45,91.25Q414.05 120.1 412.15 150.6Q408.45 209.9 406.85 269.75Q405.2 329.15 400.8 388.3Q398.55 418 395.5 447.15Q396.4 454.45 396.65 461.75Q396.75 464.2 395.2 466.2Q392.55 467.4 391.2 464.7Q377 408.05 369.75 350.05Q362.45 291.45 353.4 233.05Q344.35 174.7 330.55 117.2L329.55 112.6Q330.9 157.25 330.5 202.25Q329.95 261.9 329 321.5Q328.05 381.15 324.95 440.05Q324.1 456.6 316.2 467.7Q313.15 446.45 315.95 423.3Q323.15 364.35 324.05 304.25Q324.95 244.55 325.1 185Q325.2 146.5 324.65 107.75Q324.45 94.9 327.6 84.15L327.6 84.05Q327.65 83.6 328.45 83.75Q345.25 139.95 355.2 198.4Q365.15 256.7 372.55 315.4Q379.3 369 390.6 421.5Q395.35 369.7 398.9 317.7Q402.9 258.8 403.2 199.25Q403.5 144.5 410.55 91.55Q410.65 91.1 411.45 91.25M291.45,80.75Q293.5 109.85 290.85 140.1Q289.55 155 290 170Q291.95 229.75 289.4 289.25Q286.8 348.6 283.85 407.75Q282.5 435.05 278.45 461.6Q278.35 462.45 277.45 463.2Q271.95 450.75 273.7 433.8Q279.75 374.6 282.65 314.8Q285.5 255.5 283.9 195.5Q282.7 151.85 285.85 108.45Q286.85 93.85 290.65 80.95L291.45 80.75M193.45,73.1L197.95 72.75Q205.55 73.05 212.35 76.15L214.45 76.75Q247.55 104.3 249.3 149.15Q249.8 162 246.95 174.6Q239.25 208.45 216.05 231.05Q229.15 284.55 239.85 339.25Q251.15 397.3 256.8 456.25Q257.15 460.1 254.7 462.95Q246.05 452.1 246.2 434.7Q246.25 427.25 245.2 419.75Q237.15 361.8 224.35 304.65Q219.8 284.25 215.75 263.95Q212.7 248.65 213.15 233.8Q205.05 241.05 195.3 247.1Q193.45 248.25 191.2 248.75L189.35 250.5L186.4 309.05Q183.25 368.35 175.9 426.85Q173.8 443.4 170.7 459.6Q170.6 460.2 169.95 460.7Q163.35 448.3 166.2 430.95Q175.95 372.35 179.5 312.75L183.25 251.4Q181.4 250.1 181.15 247.75Q180.8 244.35 181.75 241L181.95 240.25L184 239.2L186.85 194.3Q190.4 138.9 190.55 83.5Q189.85 82.25 189.7 80.75Q189.4 77.65 190.65 74.8L190.9 74.3Q191.5 72.65 193.2 72L193.45 73.1M192,190.5L190 235.85Q200.15 229.85 209.2 221.9Q255 181.55 238.45 123.95Q228.55 89.7 195.35 84.35Q198.55 107.45 196.15 131.4Q193.25 160.9 192 190.5M89,67Q133 79.5 139.95 125.5Q143.8 151.1 139.75 176.7Q135.45 204 119.85 222.8Q143.8 239.55 151.65 270.05Q166.6 328.4 152.85 387.25Q140.25 441 87.5 454.95Q75.2 454.6 63.15 455.15L62.9 457.9Q62.85 458.6 62 459.2Q60.55 455.55 59.65 451.65Q57.55 447.1 58.3 444.15Q57.5 437.1 58.25 429.35Q63.85 370.35 66.05 311.05Q67.15 281.5 68.8 251.75L69.25 243.6L69.15 242.5Q69.1 239.8 69.55 237.25L69.6 237.1Q72.2 185.25 73 133.25Q73.45 103.5 77.1 74.75Q77.35 72.6 79.15 72.5L79.5 71.25Q82.1 69.35 85.5 68.35L89 67M123.45,104.55Q113 85.15 92.25 81.55L79.6 80.8Q80.2 157.7 75.1 234.5Q81.85 233.65 88.5 231.7Q100.65 228.4 108.5 219.65Q124.9 207.95 131.1 187.9Q137.65 166.75 135.6 144.75Q133.6 123.35 123.45 104.55M87.75,247.25L74.4 247.9L64.4 439.3Q82.7 439.9 99.75 434.2Q117.4 428.35 129.6 414.15Q136.15 406.55 140.1 397.4Q146.7 381.95 150.05 365.6Q153.75 347.5 153.8 329Q153.95 293 140.4 259.55Q131.8 238.35 112.05 230.95L87.75 247.25" />
</g>
</svg>
