<?xml version="1.0" encoding="utf-8"?>
<svg version="1.1" id="Layer_1"
xmlns="http://www.w3.org/2000/svg"
xmlns:xlink="http://www.w3.org/1999/xlink"


xml:space="preserve">
q-1.9 -20.55 -21.15 -22.25q-10.95 3.55 -20.2 10.6q-20.3 28.95 -26.7 64.5q-7.8 43.55 -8.75 88.5q-1.25 59.3 -2.35 119.2q-0.65 36.9 3.75 72.75q2.45 20.05 17.7 32.35q21.95 17.75 41.35 -0.35q19.05 -17.8 40.75 -30q3.25 -3.75 3.6 -8.95q0.45 -6.55 -4.1 -10.55q-19.25 10.65 -34.45 27.3q-12.5 13.6 -29.3 15.2q-27.65 -7.95 -29.3 -36.8q-2.55 -44.05 -2.3 -89.15q0.2 -38.9 0.7 -77.55q21.8 5.35 43.15 -1.2q3.9 -8.85 -1.3 -16.5q-20.35 6.45 -42 7.2q0.75 -49.25 18.8 -95.05q10.9 -27.75 40.05 -26.45q3.65 3.45 5.4 8.2q1.65 4.55 4.1 7.55q2.3 -3.75 1.9 -8.25q-1.65 35.85 -1.65 72.9q0.05 59.3 -2.8 118.5q-2.85 59.45 -7.4 118.55q-1.75 22.45 -4.75 44.75q-2.3 16.9 3.55 29.4q13.4 6.85 27.4 2.95q3.35 -0.95 6.1 -2.65q38.8 -24.45 45.55 -70.05q8.9 -60.35 -7.45 -117.45q-6.95 -24.3 -27.8 -33q40.7 -42.25 26 -102.2q-1.7 -7.1 -3.05 -14.35q-8.7 -46.85 -54 -53.2q-1.05 -0.2 -1.85 0.45q-2.45 2.05 -2.2 5.55q0.15 2.45 1.55 4.5q14.7 55.35 -26.25 93.75q-12.1 4.7 -24.2 5.25q0.85 -23.25 1.3 -46.5q1.15 -55.7 -1.05 -111.45q18.9 3.55 33.7 15.45q10.45 20.8 16.5 43.5q4.5 2 7.8 5.25q26.4 25.75 30 64.15q5.95 63.85 -41.55 103.6q-16.9 4.85 -33.15 1.3q1.25 -7.8 1.55 -15.95q2.3 -59.3 5.9 -118.6q1.8 -29.5 3 -58.95q13.3 2.8 23.9 -5.55q-0.45 0.05 -0.85 0.45q-0.4 1.45 -0.45 3q-2.45 42 -4.75 85.15q-3.2 59.25 -7.85 118.5q-1.2 15.05 -3.95 29.75q-3.2 16.95 2.9 29.5q7.25 -31.1 9.25 -64.4q3.6 -59.1 6.5 -118.55q11 -4.55 20.25 -11.4q5.35 14.65 7.65 30.65q3.85 26.45 10.85 52.25q15.4 56.5 23.1 114.6q2.15 16.3 9.2 27.35q1.4 -1.15 1.5 -3q0.75 -18.1 -2.7 -36.25q-11 -58 -26.95 -114.75q-5.1 -18.1 -7.8 -36.75q-2.9 -19.95 -11 -37.1q13.6 -11.35 23.15 -28.15q25.9 -45.55 12.2 -97.15q-10.8 -40.75 -54.15 -41.05q12.85 16.4 15 37.45q2.15 21.15 -3.95 41.4q-6.1 20.4 -19.5 36.95q-13 15.95 -32.15 21.35q6.4 -75.05 2.8 -154.5q23.45 -0.9 37.8 17.35q-10.25 29.6 -9.1 63.8q1 29.6 0.45 59.2q-0.9 59.75 -5.6 119.15q-1.35 16.9 4.5 29.3q2.35 -2 2.5 -5.2q1.75 -59.5 1.25 -119.25q-0.25 -30.5 1.35 -59.25q-1.95 2.75 -0.95 5.95q-5 31.5 -6.15 64.5q-1.6 45.4 -4 90.7q-0.4 0.75 -0.65 1.5q-1.15 3.25 -0.85 6.75q0.2 2.4 1.25 4.5q-3.45 59.25 -6.75 118.45q-1.7 29.6 -4.75 59.05q-0.75 7.5 -0.05 14.35q-0.3 1.35 -0.35 2.8q-0.15 4.2 2.25 7.25q20.45 -1.7 37.95 -12.75q7.65 -6.85 15.95 -12.95q21.85 -16.1 29.2 -41.25q16.85 -57.5 1.4 -116.25q-8.15 -31 -30.05 -52q25.85 -24.45 28 -62.85q1.15 -20.7 -2.85 -40.8q-9 -44.85 -50.8 -59.4q-5.15 1.95 -10.4 4.55q-3.95 1.95 -6 4.15q20.75 -10.1 37.6 6.95q14.65 14.75 21.2 34.95q6.65 20.5 2.8 41.6q-3.8 20.9 -16.55 38.05q-13.3 17.9 -34.35 24.9q-9.75 3.4 -19.9 4.2q20.4 -3.05 29.85 16.65q7.95 16.65 12.9 34.65q5.8 21.25 5.95 43.3q0.15 21.9 -5.4 43.05q-5.5 21.1 -20.3 37.2q-14.2 15.5 -33.75 23.8q-15.8 6.65 -32.15 10.6q18.1 0.8 33.35 -9.15<g id="348" transform="matrix(1, 0, 0, 1, -48.8, 0)">
<path style="fill:#000000;fill-opacity:1" d="M494.2,105.75Q491.75 102.75 490.1 98.2Q488.35 93.45 484.7 90Q455.55 88.7 444.65 116.45Q426.6 162.25 425.85 211.5L425.45 241.2Q447.1 240.45 467.45 234Q472.65 241.65 468.75 250.5L468.45 251.25Q447.1 257.8 425.3 252.45Q424.8 291.1 424.6 330Q424.35 375.1 426.9 419.15Q428.55 448 456.2 455.95Q473 454.35 485.5 440.75Q500.7 424.1 519.95 413.45Q524.5 417.45 524.05 424Q523.7 429.2 520.45 432.95Q498.75 445.15 479.7 462.95Q460.3 481.05 438.35 463.3Q423.1 451 420.65 430.95Q416.25 395.1 416.9 358.2Q418 298.3 419.25 239Q420.2 194.05 428 150.5Q434.4 114.95 454.7 86Q463.95 78.95 474.9 75.4L474.95 75.25Q494.2 76.95 496.1 97.5Q496.5 102 494.2 105.75M334.95,85Q333.55 82.95 333.4 80.5Q333.15 77 335.6 74.95Q336.4 74.3 337.45 74.5Q382.75 80.85 391.45 127.7Q392.8 134.95 394.5 142.05Q409.2 202 368.5 244.25Q389.35 252.95 396.3 277.25Q412.65 334.35 403.75 394.7Q397 440.3 358.2 464.75Q355.45 466.45 352.1 467.4Q338.1 471.3 324.7 464.45L324.15 463.6L322.45 469.2Q316.6 456.7 318.9 439.8Q321.9 417.5 323.65 395.05Q328.2 335.95 331.05 276.5Q333.9 217.3 333.85 158Q333.85 120.95 335.5 85.1L334.95 85M371.95,101Q357.15 89.1 338.25 85.55Q340.45 141.3 339.3 197Q338.85 220.25 338 243.5Q350.1 242.95 362.2 238.25Q403.15 199.85 388.45 144.5Q382.4 121.8 371.95 101M361.4,250.95Q350.8 259.3 337.5 256.5Q336.3 285.95 334.5 315.45Q330.9 374.75 328.6 434.05Q328.3 442.2 327.05 450Q343.3 453.55 360.2 448.7Q407.7 408.95 401.75 345.1L399.45 320.45Q395.85 282.05 369.45 256.3Q366.15 253.05 361.65 251.05L361.4 250.95M194.95,69.5Q238.3 69.8 249.1 110.55Q262.8 162.15 236.9 207.7Q227.35 224.5 213.75 235.85Q221.85 253 224.75 272.95Q227.45 291.6 232.55 309.7Q248.5 366.45 259.5 424.45Q262.95 442.6 262.2 460.7Q262.1 462.55 260.7 463.7Q253.65 452.65 251.5 436.35Q243.8 378.25 228.4 321.75Q221.4 295.95 217.55 269.5Q215.25 253.5 209.9 238.85Q200.65 245.7 189.65 250.25L188.2 278.25Q185.3 337.7 181.7 396.8Q179.7 430.1 172.45 461.2Q166.35 448.65 169.55 431.7Q172.3 417 173.5 401.95Q178.15 342.7 181.35 283.45L187.7 164.95Q190 121.8 192.45 79.8L188.7 79.25L188.05 76.95L187.95 76.25L188 74Q188.05 72.45 188.45 71Q188.85 70.6 189.3 70.55L194.95 69.6L194.95 69.5M194.35,79.9Q197.95 159.35 191.55 234.4Q210.7 229 223.7 213.05Q237.1 196.5 243.2 176.1Q249.3 155.85 247.15 134.7Q245 113.65 232.15 97.25Q217.8 79 194.35 79.9M294.85,135.75Q295.35 195.5 293.6 255L290.95 343.45L286.95 462Q286.8 465.2 284.45 467.2Q278.6 454.8 279.95 437.9Q284.65 378.5 285.55 318.75L287.55 199.5Q288.1 169.9 287.1 140.3Q285.95 106.1 296.2 76.5Q294.6 105.25 294.85 135.75M80.6,69.05Q85.85 66.45 91 64.5Q132.8 79.05 141.8 123.9Q145.8 144 144.65 164.7Q142.5 203.1 116.65 227.55L116.95 227.55L118.45 227.75Q140.35 248.75 148.5 279.75Q163.95 338.5 147.1 396Q139.75 421.15 117.9 437.25Q109.6 443.35 101.95 450.2Q84.45 461.25 64 462.95L61.75 464.5L59.75 465.95L54.5 466.15L53 469.95L51.4 465.2Q49 462.15 49.15 457.95Q49.2 456.5 49.5 455.15Q48.8 448.3 49.55 440.8Q52.6 411.35 54.3 381.75Q57.6 322.55 61.05 263.3L61.9 248.75L58.5 248.25Q57.45 246.15 57.25 243.75Q56.95 240.25 58.1 237Q58.35 236.25 58.75 235.5L62.65 235.4Q65.05 190.1 66.65 144.7Q67.8 111.7 72.8 80.2Q71.8 77 73.75 74.25L73.95 73.05L74.5 73L74.6 73.2Q76.65 71 80.6 69.05M75.5,86.25L67.95 235.05Q78.1 234.25 87.85 230.85Q108.9 223.85 122.2 205.95Q134.95 188.8 138.75 167.9Q142.6 146.8 135.95 126.3Q129.4 106.1 114.75 91.35Q97.9 74.3 77.15 84.4L75.5 86.25M100.45,240.05Q85.2 250 67.1 249.2L58.5 448.7Q74.85 444.75 90.65 438.1Q110.2 429.8 124.4 414.3Q139.2 398.2 144.7 377.1Q150.25 355.95 150.1 334.05Q149.95 312 144.15 290.75Q139.2 272.75 131.25 256.1Q121.8 236.4 101.4 239.45L100.45 240.05" />
</g>
</svg>
