<?xml version="1.0" encoding="utf-8"?>
<svg version="1.1" id="Layer_1"
xmlns="http://www.w3.org/2000/svg"
xmlns:xlink="http://www.w3.org/1999/xlink"


xml:space="preserve">
q-1.05 2.4 -0.95 5q0.05 1.6 0.6 3.05q-1.9 43.05 -2.25 87.15q-0.2 30.05 -3.95 59.8q-2.05 16.55 2.9 29.95q6.7 -16.2 5.95 -35.75q-0.75 -18.2 0.35 -36.05q21.8 1.65 41.2 -8.15q26.35 -13.3 23.8 -44.3q-3.25 -39.45 -45.4 -40.85q-11.75 -2.05 -22.3 2.35q35.95 -0.5 37.75 32.55q0.4 7.15 -4.05 12.35q-19.95 23.5 -53 20.2q0.4 -32.95 -2.05 -65.25q10.55 0.25 21.35 0.15q-3.35 8.2 1.5 14.25q-6.05 52.7 -1 103.95q30.7 14.6 55.2 -9.3q2.85 -2.7 5.1 -5.9q12.8 -18.1 12 -40.55q-0.3 -8.65 -2.8 -17.05q-3.55 -11.75 -12.15 -20.4q-6 -6 -13.5 -10.15q18.05 -20.35 12.15 -47.2q-5.05 -14.3 -19 -20.4q-4.8 -2.05 -10.05 -2.8q5.65 -39.4 5.45 -79.6q16.5 4.65 25.55 18.9q12.55 19.65 1.7 40.35q-12.45 23.7 -39.45 24.95q-8.75 0.85 -16.5 -2.05q23.65 4.95 23.8 28.2q0.2 24.15 -24.45 28.05q8.7 -49.7 7.5 -101.85q-1.05 -44.4 -5.5 -88.6q-8.65 57.15 -4.05 116.55q1.15 14.8 0.8 29.7q-5.1 20.75 0.1 40.95q0.4 1.65 1.15 3.25<g id="349" transform="matrix(1, 0, 0, 1, -135.45, 0)">
<path style="fill:#000000;fill-opacity:1" d="M355.65,185.6Q366.2 181.2 377.95 183.25Q420.1 184.65 423.35 224.1Q425.9 255.1 399.55 268.4Q380.15 278.2 358.35 276.55L357.25 299.4Q356.15 317.25 356.9 335.45Q357.65 355 350.95 371.2Q346 357.8 348.05 341.25Q351.8 311.5 352 281.45Q352.35 237.35 354.25 194.3Q353.7 192.85 353.65 191.25Q353.55 188.65 354.6 186.25L354.85 181L355.2 181L355.65 185.6M356.6,196.55Q359.05 228.85 358.65 261.8Q391.7 265.1 411.65 241.6Q416.1 236.4 415.7 229.25Q413.9 196.2 377.95 196.7Q367.15 196.8 356.6 196.55M177.1,184.15Q191.05 190.25 196.1 204.55L197.95 210.75Q203.85 237.6 185.8 257.95Q193.3 262.1 199.3 268.1Q207.9 276.75 211.45 288.5Q213.95 296.9 214.25 305.55Q215.05 328 202.25 346.1Q200 349.3 197.15 352Q172.65 375.9 141.95 361.3L140.5 368.2Q135.45 316.95 141.5 264.25Q136.65 258.2 140 250L142.25 250.6L147.1 194.9L146.25 184L148.75 182.2L149.5 180.75L155 180.5L167.05 181.35Q172.3 182.1 177.1 184.15M161,349.5Q188 348.25 200.45 324.55Q211.3 303.85 198.75 284.2Q189.7 269.95 173.2 265.3L149.95 267.85Q150.15 308.05 144.5 347.45Q152.25 350.35 161 349.5M190.15,223.25Q190 200 166.35 195.05L149.9 194.85L150.2 251.8L165.7 251.3Q190.35 247.4 190.15 223.25M278.3,366.95Q273.1 346.75 278.2 326Q278.55 311.1 277.4 296.3Q272.8 236.9 281.45 179.75Q285.9 223.95 286.95 268.35Q288.15 320.5 279.45 370.2Q278.7 368.6 278.3 366.95" />
</g>
</svg>
