<?xml version="1.0" encoding="utf-8"?>
<svg version="1.1" id="Layer_1"
xmlns="http://www.w3.org/2000/svg"
xmlns:xlink="http://www.w3.org/1999/xlink"


xml:space="preserve">
q-7.4 21.5 -14.4 43.25q-17.95 56.05 -38.15 111.4q-9.85 -29.8 -18.5 -60q-8.2 -28.6 -13.75 -57.6q-5.7 -30.05 -19.35 -55.45q-0.95 0.4 -1.2 1.8q-1.05 6.35 1.1 12.4q7.95 22.45 13.65 45.65q14.05 57.25 27.55 114.7q2 8.5 6.1 14.05q-14.75 42.2 -27.75 85.4q-17.4 57.95 -42.15 112.9q-6.2 13.8 -13.1 27.15q-8.25 16 -0.7 28.4q19 -47.5 34.5 -96.8q17.7 -56.3 38 -111.75q20.4 -55.9 38.05 -112.4q4.7 -14.95 3.05 -29q-2.65 1.05 -3.75 4.3q2.7 -13.5 -11.15 -19.15q-1.35 -0.55 -2.6 -1.5q-20.9 0.15 -30.4 22.15q-8.1 18.7 -10.25 39.1q-2.3 22.05 11.95 39q5.5 6.55 12.45 11.65q20.45 -1.15 32.75 -17.55q4.5 -5.95 2.35 -13.05q-0.85 -2.8 -2.6 -5.15q-11.35 17.4 -31.75 21.25q-18.65 -10.85 -17.35 -33.3q22.7 3.1 45 -0.1q4.55 -7.35 -0.4 -14.6q3.9 -21 18.3 -36.85q14.15 -5.8 26 3.8q-3.6 2.7 -4 8.45q-2.55 34.35 -4.6 68.95q-1.7 29.1 2.6 57.65q3.7 24.3 26.25 27.7q5.45 -4.55 11.5 -8q10.7 -16.4 13.9 -35.6q9.85 -59.1 3.35 -117.4q-1 0.35 -1.05 0.85q-4.65 37.45 -3.05 75.65q1.5 35.5 -18.5 63.7q-5.9 8.35 -14.35 4.2q-11.1 -5.4 -12.4 -17.35q-3.85 -34.35 -2 -69.65q0.8 -14.6 2.8 -29q2.3 -15.95 -0.45 -30.15q-2.7 1.3 -5.2 2.8q-1.05 3.3 -0.65 6.8q0.2 1.75 1.6 2.75q-0.25 2.85 -0.2 5.7q0.35 25.95 -0.55 51.8q-1.95 57.3 -3.15 114.7q-0.6 3.35 0 6.7q0.3 1.65 1.2 3.05q-1.1 59.3 -6.35 118.35q-0.9 10.3 0.9 18.6q-3.4 4.7 -2.6 10.6q0.45 3.25 3.1 5.15q18.7 5.45 36.2 -3q13.95 -6.75 28 -13.85q46.2 -23.4 55.05 -75.8q3.3 -19.6 5.45 -39.65q6.7 -62.6 -30.1 -111.45q-11.65 -15.4 -28.65 -20.3q31.55 -38.6 18.55 -90.75q-7.45 -29.85 -23.65 -55.45q-12.5 -19.8 -34.35 -23.7q-4.55 1.05 -9.05 3.2q6.75 30.4 -9.9 57.8q-20.9 34.3 -57.55 41.5q-0.3 -52.4 4.2 -104.15q2.25 -26.15 -1.1 -50.8q19.65 -7.65 34.2 10.35q22.3 27.5 30.25 63.35q13.05 16.95 19.2 37.6q5.55 18.6 6.65 38.25q1.2 20.55 -2.1 40.95q-3.3 20.15 -10 39.6q-6.75 19.5 -23.05 31.45q-17.55 12.85 -37.15 21.85q-18.25 8.45 -38.3 8.2q17.1 -1.5 30.95 -12.6q5.95 -4.75 11.3 -10.2q22.05 1.65 36.7 20.7<g id="347" transform="matrix(1, 0, 0, 1, -48.6, 0)">
<path style="fill:#000000;fill-opacity:1" d="M352.2,70.75Q353.85 84.8 349.15 99.75Q331.5 156.25 311.1 212.15Q290.8 267.6 273.1 323.9Q257.6 373.2 238.6 420.7L202.45 510.95Q194.9 498.55 203.15 482.55Q210.05 469.2 216.25 455.4Q241 400.45 258.4 342.5Q271.4 299.3 286.15 257.1Q282.05 251.55 280.05 243.05Q266.55 185.6 252.5 128.35Q246.8 105.15 238.85 82.7Q236.7 76.65 237.75 70.3Q238 68.9 238.95 68.5Q252.6 93.9 258.3 123.95Q263.85 152.95 272.05 181.55Q280.7 211.75 290.55 241.55L291.05 243.15L295.9 229.7Q316.1 174.35 334.05 118.3Q341.05 96.55 348.45 75.05Q349.55 71.8 352.2 70.75M349.95,235.55Q338.1 225.95 323.95 231.75Q309.55 247.6 305.65 268.6L349.45 265.5Q354.4 272.75 349.85 280.1Q327.55 283.3 304.85 280.2Q303.55 302.65 322.2 313.5Q342.6 309.65 353.95 292.25Q355.7 294.6 356.55 297.4Q358.7 304.5 354.2 310.45Q341.9 326.85 321.45 328Q314.5 322.9 309 316.35Q294.75 299.4 297.05 277.35Q299.2 256.95 307.3 238.25Q316.8 216.25 337.7 216.1Q338.95 217.05 340.3 217.6Q354.15 223.25 351.45 236.75L349.95 235.55M163.9,97.9Q161.9 112.3 161.1 126.9Q159.25 162.2 163.1 196.55Q164.4 208.5 175.5 213.9Q183.95 218.05 189.85 209.7Q209.85 181.5 208.35 146Q206.75 107.8 211.4 70.35Q211.45 69.85 212.45 69.5Q218.95 127.8 209.1 186.9Q205.9 206.1 195.2 222.5Q189.15 225.95 183.7 230.5Q161.15 227.1 157.45 202.8Q153.15 174.25 154.85 145.15Q156.9 110.55 159.45 76.2Q159.85 70.45 163.45 67.75Q166.2 81.95 163.9 97.9M79,63Q100.85 66.9 113.35 86.7Q129.55 112.3 137 142.15Q150 194.3 118.45 232.9Q135.45 237.8 147.1 253.2Q183.9 302.05 177.2 364.65Q175.05 384.7 171.75 404.3Q162.9 456.7 116.7 480.1Q102.65 487.2 88.7 493.95Q71.2 502.4 52.5 496.95Q49.85 495.05 49.4 491.8Q48.6 485.9 52 481.2L53.95 481.4Q52.15 473.1 53.05 462.8Q58.3 403.75 59.4 344.45L61 264.9L59.75 264.5Q58.85 263.1 58.55 261.45Q57.95 258.1 58.55 254.75L59 252.5L61.3 252.25Q62.5 194.85 64.45 137.55Q65.35 111.7 65 85.75Q64.95 82.9 65.2 80.05Q63.8 79.05 63.6 77.3Q63.2 73.8 64.25 70.5L64.75 69Q67.25 67.5 69.95 66.2Q74.45 64.05 79 63M104.05,88.65Q89.5 70.65 69.85 78.3Q73.2 102.95 70.95 129.1Q66.45 180.85 66.75 233.25L66.85 251.3Q103.5 244.1 124.4 209.8Q141.05 182.4 134.3 152Q126.35 116.15 104.05 88.65M109.05,243.1Q103.7 248.55 97.75 253.3Q83.9 264.4 66.8 265.9L61 481.7Q81.05 481.95 99.3 473.5Q118.9 464.5 136.45 451.65Q152.75 439.7 159.5 420.2Q166.2 400.75 169.5 380.6Q172.8 360.2 171.6 339.65Q170.5 320 164.95 301.4Q158.8 280.75 145.75 263.8Q131.1 244.75 109.05 243.1" />
</g>
</svg>
