<?xml version="1.0" encoding="utf-8"?>
<svg version="1.1" id="Layer_1"
xmlns="http://www.w3.org/2000/svg"
xmlns:xlink="http://www.w3.org/1999/xlink"


xml:space="preserve">
q-17.2 16.65 -14.65 42.85q0.75 7.55 3.65 14.25q15.1 34.7 18 72.6q-1.3 11.05 -4.5 21.75q-6.35 21.25 -30.25 20.75q-1.95 3.5 -2.05 7.5q-0.15 4.9 3.05 8.25q11.15 0.25 16.75 -8.65q22.45 -35.65 13.6 -78.15q-2.25 -10.75 -7.85 -20.15q-19.75 -32.85 -6.5 -66.75q7.75 -3.95 15.75 -2q2.2 -3.6 0.8 -7.55q-0.6 -1.75 -2.05 -2.95q-4.6 -2.45 -10.05 -1.15q2 -30.45 1.05 -59.25q-6.15 16.05 -6.35 35.25q-0.2 19.3 -1.15 38.3q-2.2 44.4 -7.25 88.25q-1.95 16.9 4 29.4q3.25 -6.2 3.5 -13.5q1.65 -40.4 3.9 -80.5q20.45 4.45 41.1 1.25q-0.95 34.25 -2.55 68.45q-0.65 13.45 5.3 21.55q3.8 -4.5 3.75 -10.5q-0.35 -59.4 2.6 -119.15q1.45 -30.35 -0.6 -59.3q-7.15 22.05 -7.5 48.25q-16.1 9.7 -24.7 28.05q-25.6 54.6 -25.9 116.15q-0.15 31.65 25.95 47.5q4.35 2.65 9.25 2.85q46.15 1.8 64.1 -39.35q10.55 -24.2 11.15 -51q1.25 -54.3 -33.35 -95.2q-9.6 -8.95 -22.95 -8.3q-0.85 -0.15 -0.85 0.25q-1.45 3.1 -0.95 6.7q0.35 2.2 1.7 3.8q-0.6 45.05 -1.75 90.45q-0.8 29.8 -4.1 59.1q-1.9 16.95 2.8 29.4q2.05 -2.4 2.95 -5.3q40.2 6.75 51.25 -30.05q13.85 -45.75 -18.2 -78.35q12.35 -21.8 7.7 -50.1q-4.1 -24.55 -25.8 -29.75q-2.05 0.9 -4.95 1.6q-3.3 0.85 -6.5 2q9.05 7.9 12.55 19.35q10.9 35.9 -17.55 59.15q6.7 0.4 11.6 -4.4q30.75 36.85 29.6 84.7q-0.65 26.65 -15.65 48q-13.3 18.9 -36.2 22.55q-34.55 5.55 -40.75 -26.5q-3.85 -19.8 -1.15 -39.7q4 -29.55 14.55 -57.25q9.1 -23.85 27.35 -39.55q12 -1.75 19.25 5.5q-1.85 1.5 -1.55 2.75q0.9 -0.65 1.85 -1.15q2.25 -1.3 4.65 -0.85q4.5 -8.7 4.85 -18.5q-20.1 18.95 -19.75 46.7q0.2 -36.3 -3.4 -72q10.1 -2.85 20.05 0.15q12.1 16 10.55 36.45q-2.15 28.1 -27.2 35.4<g id="216" transform="matrix(1, 0, 0, 1, -135.8, 0)">
<path style="fill:#000000;fill-opacity:1" d="M353,182.4L354.2 183Q355.65 184.2 356.25 185.95Q357.65 189.9 355.45 193.5Q347.45 191.55 339.7 195.5Q326.45 229.4 346.2 262.25Q351.8 271.65 354.05 282.4Q362.9 324.9 340.45 360.55Q334.85 369.45 323.7 369.2L316.2 369.2Q313 365.85 313.15 360.95Q313.25 356.95 315.2 353.45Q339.1 353.95 345.45 332.7Q348.65 322 349.95 310.95Q347.05 273.05 331.95 238.35Q329.05 231.65 328.3 224.1Q325.75 197.9 342.95 181.25Q348.4 179.95 353 182.4M413.95,229Q414.3 202.8 421.45 180.75Q423.5 209.7 422.05 240.05Q419.1 299.8 419.45 359.2Q419.5 365.2 415.7 369.7Q409.75 361.6 410.4 348.15Q412 313.95 412.95 279.7Q392.3 282.9 371.85 278.45Q369.6 318.55 367.95 358.95Q367.7 366.25 364.45 372.45Q358.5 359.95 360.45 343.05Q365.5 299.2 367.7 254.8Q368.65 235.8 368.85 216.5Q369.05 197.3 375.2 181.25Q376.15 210.05 374.15 240.5L372.35 269.7L402.95 266L413.3 266.3L413.95 229M281.9,189.3L282.45 190L283.45 190.1L285.45 190Q320.05 230.9 318.8 285.2Q318.2 312 307.65 336.2Q289.7 377.35 243.55 375.55Q238.65 375.35 234.3 372.7Q208.2 356.85 208.35 325.2Q208.65 263.65 234.25 209.05Q242.85 190.7 258.95 181Q272.3 180.35 281.9 189.3M151.05,178.6Q153.95 177.9 156 177Q177.7 182.2 181.8 206.75Q186.45 235.05 174.1 256.85L176.5 257Q208.55 289.6 194.7 335.35Q183.65 372.15 143.45 365.4Q142.55 368.3 140.5 370.7Q135.8 358.25 137.7 341.3Q141 312 141.8 282.2Q142.95 236.8 143.55 191.75L143.5 191.75Q142.15 190.15 141.8 187.95Q141.3 184.35 142.75 181.25L143.65 180.95L143.65 180.5Q143.65 180.1 144.5 180.25L144.55 180.6Q147.75 179.45 151.05 178.6M148.85,278.6L148 298.05L144.95 349L171 348.2Q199.45 324.95 188.55 289.05Q185.05 277.6 176 269.7L165.05 269.4L160.45 274.2Q155.55 279 148.85 278.6M276.8,204.1Q275.85 204.6 274.95 205.25Q274.65 204 276.5 202.5L278.45 201Q271.2 193.75 259.2 195.5Q240.95 211.2 231.85 235.05Q221.3 262.75 217.3 292.3Q214.6 312.2 218.45 332Q224.65 364.05 259.2 358.5Q282.1 354.85 295.4 335.95Q310.4 314.6 311.05 287.95Q312.2 240.1 281.45 203.25Q279.05 202.8 276.8 204.1M244.45,292.7Q244.1 264.95 264.2 246L264.15 248.55Q263.8 258.35 259.3 267.05L266.3 269.4L265.2 245.25L277.15 298.15L267.2 274.95L254.9 275.25L244.45 292.7M176.3,227.7Q177.85 207.25 165.75 191.25Q155.8 188.25 145.7 191.1Q149.3 226.8 149.1 263.1Q174.15 255.8 176.3 227.7" />
</g>
</svg>
