<?xml version="1.0" encoding="utf-8"?>
<svg version="1.1" id="Layer_1"
xmlns="http://www.w3.org/2000/svg"
xmlns:xlink="http://www.w3.org/1999/xlink"


xml:space="preserve">
q-4.15 19.05 -3.7 40.7q0.3 20.25 -0.4 40.55q-0.75 21.75 -2.45 43.25q-1.55 18.55 -5 36.85q-4 20.95 -5.4 41.9q-0.7 10.4 3.8 17.8q17.3 -91.95 19.8 -186.05q26.7 76.05 60.75 150q7.85 17.1 16 33.85q2.5 5.15 5.6 9.85q2.9 4.5 6.2 8.45q3.5 -34.45 -18.6 -67.65q-11.85 -17.75 -20.35 -37.65q-16.15 -38 -33.7 -75.05q22.65 -18.55 34.5 -45.65q1.7 -5.15 2.9 -10.25q2.4 -10.4 2.6 -21.15q-3.9 -23.1 -24.35 -33.15q-13.95 -6.95 -26.35 -2.75q-6.6 -45.1 -7.75 -92.25q-6.7 46.9 1.9 93.55q11.95 -42.65 11.8 -86.4q-9.85 14.4 -9.9 32.95q-0.05 9.2 -1.4 18.4q-2.65 18.3 -7.05 36.4q-1.45 5.85 -2.85 13.4q-1.8 9.8 -4.2 19.5q-0.55 2.1 -0.95 4.25q-1.1 5.65 -0.9 11.4q0.2 6.95 2.9 13.05q3.35 -29.05 -1.85 -61.35q10.65 17.85 12.2 38.55q1.7 22.6 -8.15 42.45q-9 18.05 -23.3 32.6q-7.5 7.7 -16.85 13.05q4.65 -69.8 0.45 -139.7q22.95 -8.3 35.65 13.05q22.95 0.35 46.75 -4.8q1.9 -2.25 2.05 -5.25q0.25 -3.65 -1.55 -6.75q-0.4 -0.4 -0.8 -0.45q-20.35 3.8 -39.9 9.1q-3.25 -36.25 13.15 -68.7q14.9 -21.6 40.5 -20.75q4.3 2.05 5.85 6.65q2.95 -4.55 1.15 -10.1q-4.6 -14.2 -22.15 -9.4q-8.95 3.35 -16 10.5q-31.9 32.45 -29.35 79.75q1.2 21.8 1.8 43.45q1.05 38.4 19.8 70.5q4.9 3.35 10.5 5.3q2.65 0.95 5.25 2.2q7.25 -1.85 13.7 -5.25q11.65 -6.25 18 -17.95q10.1 -18.75 9.55 -39.8q-6.5 7.75 -10.4 18.9q-7.9 23 -30.85 28.1q-6.4 -1.05 -11.75 -5q-12.5 -19.5 -14.7 -43.35q-22 -0.7 -36.8 15.45q-23.15 25.15 -29.7 59.35q-8.35 43.2 -8.85 87.95q-0.65 59.5 5.6 118.55q2.35 22.4 9.45 43.6q11.3 33.95 46.5 23.4q6.85 -2.05 12.3 -6.35q27.55 -21.75 39 -55.55q19.15 -56.5 17.55 -116.4q-1.55 -59.65 -20.8 -116.15q-7 -20 -20.5 -33.9q-1.75 -0.2 -2.4 1.5q1.55 0.3 2.8 2.3q7.25 11.75 12.9 24.55q24.05 54.5 28.85 113.9q4.9 60.15 -13.9 117q-13.05 40.3 -53.3 49.45q-31.3 -2.85 -34.65 -35.05q-6.1 -58.95 -7.85 -118.65q-1.7 -60.2 13.2 -117.55q11.7 -45.1 56.2 -54.95q20.7 12.05 27.35 36.05q4.1 14.7 2.9 30.15q-1.65 21.7 -16.9 37.45q-15.25 15.75 -37.5 10.65q8.65 -57.4 3.4 -114.3q-10.15 45.05 -8.05 92.85q0.5 11.95 -0.05 23.95q-2.45 10.6 -2.5 22.25q-0.45 91.2 -11.65 181.5q-0.7 5.6 -0.25 11.3q21.9 3.2 44.1 -0.7q18.95 -3.1 33.35 -15.2q22.45 -19 28.75 -48.6q7.3 -34.3 0.15 -68.85q-4.55 -22.1 -11.7 -43.7q-3.7 -9.5 -9.8 -17.6q-8.95 -11.8 -22 -18.85q14.75 -14.3 18.55 -34.7q5.3 -28.7 -2.85 -56.85q-7.6 -26.3 -32.8 -34.5q-8.55 -2.7 -17.45 -1.3q19.8 8.75 29.5 30.05q8.5 18.8 14.6 38.6q6.2 20.05 8.3 41.1q2.15 21.1 -3.55 41.6q-5.45 19.65 -20.4 33.8q-14.25 13.5 -33.55 17.65q-18.95 4.2 -38.5 3.45q7.65 -100.65 11.1 -201.8q13.75 4.15 26.95 -1.45q3.05 -1.3 5.55 -3<g id="217" transform="matrix(1, 0, 0, 1, -39, 0)">
<path style="fill:#000000;fill-opacity:1" d="M390.55,93.5Q411 103.55 414.9 126.65L417.1 141.8L417.5 145.45L417.85 152.75L417.85 160Q417.65 170.75 415.25 181.15Q414.05 186.25 412.35 191.4L408.5 201.4Q396.65 228.5 374 247.05L385.8 271.85Q403.35 308.9 419.5 346.9Q428 366.8 439.85 384.55Q461.95 417.75 458.45 452.2Q455.15 448.25 452.25 443.75Q449.15 439.05 446.65 433.9Q438.5 417.15 430.65 400.05Q396.6 326.1 369.9 250.05L363.55 253.7Q361.05 347.8 343.75 439.75Q339.25 432.35 339.95 421.95Q341.35 401 345.35 380.05Q348.8 361.75 350.35 343.2L352.85 313.6L355.3 283.95L358.15 247.5Q359.85 226 360.6 204.25Q361.3 183.95 361 163.7L360.5 131.45Q360.05 109.8 364.2 90.75Q376.6 86.55 390.55 93.5M345.95,172.5L345.95 177.75L341.8 179.9L345.35 203.2Q350.55 235.5 347.2 264.55L336.4 181.95L316.35 182.8L302.7 247.75Q300 241.65 299.8 234.7Q299.6 228.95 300.7 223.3Q301.1 221.15 301.65 219.05L304.05 209.4Q306.45 199.7 308.25 189.9Q309.65 182.35 311.1 176.5Q315.5 158.4 318.15 140.1Q319.5 130.9 319.55 121.7Q319.6 103.15 329.45 88.75Q329.6 132.5 317.65 175.15L335.1 171.05Q326.5 124.4 333.2 77.5Q334.35 124.65 340.95 169.75L345.95 172.5M364.8,99.05Q369 168.95 364.35 238.75Q373.7 233.4 381.2 225.7Q395.5 211.15 404.5 193.1Q414.35 173.25 412.65 150.65Q411.1 129.95 400.45 112.1Q387.75 90.75 364.8 99.05M464.5,377.85Q466.7 401.7 479.2 421.2L480.2 421.95Q485.55 425.9 491.95 426.95Q514.9 421.85 522.8 398.85Q526.7 387.7 533.2 379.95Q533.75 401 523.65 419.75Q517.3 431.45 505.65 437.7Q499.2 441.1 491.95 442.95Q489.35 441.7 486.7 440.75Q481.1 438.8 476.2 435.45Q457.45 403.35 456.4 364.95Q455.8 343.3 454.6 321.5Q452.05 274.2 483.95 241.75Q491 234.6 499.95 231.25Q517.5 226.45 522.1 240.65Q523.9 246.2 520.95 250.75L520.35 250.1Q518.8 245.5 514.5 243.45L513.7 243Q488.1 242.15 473.2 263.75Q456.8 296.2 460.05 332.45Q479.6 327.15 499.95 323.35L499.95 323.25L507.4 323.8Q507.8 323.85 508.2 324.25Q510 327.35 509.75 331Q509.6 334 507.7 336.25Q483.9 341.4 460.95 341.05L464.5 377.85M245.3,94.85L246.2 95.25L247.05 93.25Q247.7 91.55 249.45 91.75Q262.95 105.65 269.95 125.65L277.45 147.35Q296.7 203.85 298.25 263.5Q299.85 323.4 280.7 379.9Q269.25 413.7 241.7 435.45Q236.25 439.75 229.4 441.8Q194.2 452.35 182.9 418.4Q175.8 397.2 173.45 374.8Q167.2 315.75 167.85 256.25Q168.35 211.5 176.7 168.3Q183.25 134.1 206.4 108.95Q221.2 92.8 243.2 93.5L245.3 94.85M186.75,157.7Q171.85 215.05 173.55 275.25Q175.3 334.95 181.4 393.9Q184.75 426.1 216.05 428.95L219.25 428.7Q259.5 419.55 272.55 379.25L277.6 363.75Q296.4 306.9 291.5 246.75Q286.7 187.35 262.65 132.85Q257 120.05 249.75 108.3Q248.5 106.3 246.95 106L246.6 105.45L246.35 104.8L245.95 104L244.7 103.35L242.95 102.75Q198.45 112.6 186.75 157.7M65.75,89L67.05 84.6Q75.95 83.2 84.5 85.9Q109.7 94.1 117.3 120.4Q125.45 148.55 120.15 177.25Q116.35 197.65 101.6 211.95Q114.65 219 123.6 230.8Q129.7 238.9 133.4 248.4L134.65 251.6L137.15 258.9Q144.3 280.5 148.85 302.6Q156 337.15 148.7 371.45Q142.4 401.05 119.95 420.05Q105.55 432.15 86.6 435.25Q64.4 439.15 42.5 435.95L39 432.95L39.25 422.45L43.5 422.85Q43.05 417.15 43.75 411.55Q54.95 321.25 55.4 230.05Q55.45 218.4 57.9 207.8Q58.45 195.8 57.95 183.85Q55.85 136.05 66 91L66.75 94.25Q72 151.15 63.35 208.55Q85.6 213.65 100.85 197.9Q116.1 182.15 117.75 160.45Q118.95 145 114.85 130.3Q108.2 106.3 87.5 94.25L66 90.5L65.75 89M89.6,220.1Q76.4 225.7 62.65 221.55Q59.2 322.7 51.55 423.35Q71.1 424.1 90.05 419.9Q109.35 415.75 123.6 402.25Q138.55 388.1 144 368.45Q149.7 347.95 147.55 326.85Q145.45 305.8 139.25 285.75Q133.15 265.95 124.65 247.15Q114.95 225.85 95.15 217.1Q92.65 218.8 89.6 220.1" />
</g>
</svg>
