<?xml version="1.0" encoding="utf-8"?>
<svg version="1.1" id="Layer_1"
xmlns="http://www.w3.org/2000/svg"
xmlns:xlink="http://www.w3.org/1999/xlink"


xml:space="preserve">
q-23.55 35.35 -29 78.55q-7.4 58.45 -5.9 117.9q0.8 31.45 16.75 58q15.3 25.5 38.85 11.3q28.1 -17 21.6 -47.05q-2.1 0.9 -2.8 3.7q-5.65 22 -26.95 29.95q-17.7 6.65 -27 -11.35q-16.5 -32.1 -15.65 -69.05q0.5 -20.5 2.2 -40.8q17.2 -3.7 35.45 -4.45q3.15 -5.85 -0.6 -11.15q-18.2 -0.75 -34.5 6.4q3.25 -32.95 9.8 -65.35q3.8 -18.75 13.1 -35.25q15.05 -26.75 42.85 -11.3q1.05 -1.75 0.65 -3.65q-3.85 -17.55 -25.4 -15.1q-3.8 1.5 -7.6 3.65q-4 2.25 -6.45 5.9q-3.75 2.45 -5.6 7.65q-18.05 51.1 -32.65 103.2q-6.95 24.85 -17.35 48.85q-0.6 -60 -3.4 -118.5q-3.9 6.55 -3.4 15.75q3.1 59.6 2.95 119.25q-6.05 14.65 -1.1 26.4q-1.55 59.45 -6.65 118.35q-1.45 16.9 4.05 29.35q5.5 -22 6.15 -45.75q1.6 -59.15 2.1 -118.45q6.55 -15.5 11.9 -31.45q-0.1 3.2 0.4 6.75q7.15 51.15 16.6 102q10.7 57.75 16.85 116.15q1.7 16 7.3 28.9q0.9 -0.6 1.1 -1.4q4.2 -16.2 1.5 -33.1q-9.35 -58.4 -20.55 -116.5q-10.95 -56.9 -19.55 -113.95q16.7 -51.6 31 -104.55q1 -3.75 2.75 -6.85q8.35 -14.8 6.25 -29.35q-2.55 5.95 -2.65 13.05q-10.4 42.3 -23.45 84.25q-6.9 22.3 -4.65 43.15q1.9 0.05 2.35 -1.7q6.75 -26.1 13.85 -52.15q0.65 1.65 2.25 2q4.95 -10.25 2.15 -23.1q-3.85 -17.6 -7.35 -35.2q2.1 -5.2 -0.9 -9.75q-5.65 -29 -10.5 -58.1q-8.85 0.9 -17.05 3.55q5.4 -20.85 10.05 -41.65q-2.2 -59.5 -16.6 -117.15q-11.7 -46.6 -45.75 -77.6q-3.05 0.2 -3.95 3.15q-1.05 3.35 -0.8 6.85q-28.7 3.35 -39.95 33.25q-14.95 39.9 -20 81.9q-6.15 51.35 -9.35 103.25q-3.7 58.65 1.95 116.35q4 41.15 36.1 65.2q27.45 10.4 45.75 -10.5q32.75 -37.45 42.9 -86.75q11.9 -57.9 9.7 -117.95q-6.4 59.5 -38.2 110.2q-16.15 25.7 -46 19.1q-5.35 -1.2 -9.2 -5q-27.25 -26.85 -29.5 -66.45q-1.4 -24.8 -0.25 -49.6q1.4 -29.75 2.05 -59.15q1.25 -59.85 10.75 -117.95q7 -42.65 36.15 -72.55q0.75 -0.4 1.55 -0.6q5.95 -1.7 12.2 -1.9q9.6 2.85 14.6 12.2q28.35 52.8 35.8 112.35q7.45 59.35 1.05 118.85q-2.55 44.05 -8.05 89.7q-0.6 4.75 -0.65 9.45q-0.05 7.8 3.9 11.95q1.65 19.6 10.85 36.95q2.4 4.1 5 4.65q10.6 -6.3 14.8 -18.05q3.35 -12.65 -0.85 -24.9q-3.8 -11.15 -14.25 -16.75q-2.2 -1.2 -4.4 -2.3q-2.25 24.05 -22.65 30.85q1.8 -28.65 1.85 -57.2q2.15 -0.65 4.45 0.05q18.25 5.8 16.35 26.3q-0.85 1.35 -0.9 3q-0.05 1.2 0.2 2.35q-1.3 4.15 -1.2 9.4q0.85 59.45 -2.1 118.5q-3 59.15 -5.45 118.45q-2.45 59.8 -9.05 119.1q-1.85 16.55 3.5 29.9q11.4 1.45 22.35 0q12.15 -1.55 23.3 -7.15q31.6 -15.85 49.25 -47.3q20.2 -36.1 17.45 -78.85q-2.4 -37.05 -9.75 -73q-8.15 -39.65 -42.3 -55.45q12.7 -12.2 19.05 -30.45q6.2 -17.65 6.3 -37q0.2 -53.4 -48.95 -73q-10.95 -1.8 -20.7 1.35q24.6 19.5 24.35 52.25q-0.1 11.85 -3.3 22.85q-12.85 44.2 -59.8 47.4q-1.65 2.75 -1.8 5.95q-0.25 5 3.3 8.3q9.1 -3.45 16.6 -8.35q27.25 2.1 38.25 31.45q15.65 41.9 19 87.25q3.4 45.4 -23.7 79.7q-31.75 40.2 -81.7 40.25q2.55 -14.4 3.3 -29.8q3 -59.2 5.15 -118.55q2.2 -59.75 5.75 -119.15q3.35 -55.9 0.35 -111.1q21.4 -1.5 38.8 12.3q-2.1 47 -2.5 93.8q2.45 -4.5 0.25 -9q-16.6 -3.35 -33 -4q4.65 -46 2.2 -91.5q-2.75 3.85 -3 9.95<g id="219" transform="matrix(1, 0, 0, 1, -59.65, 0)">
<path style="fill:#000000;fill-opacity:1" d="M503.35,64.4Q507.15 62.25 510.95 60.75Q532.5 58.3 536.35 75.85Q536.75 77.75 535.7 79.5Q507.9 64.05 492.85 90.8Q483.55 107.3 479.75 126.05Q473.2 158.45 469.95 191.4Q486.25 184.25 504.45 185Q508.2 190.3 505.05 196.15L504.45 197Q486.2 197.75 469 201.45Q467.3 221.75 466.8 242.25Q465.95 279.2 482.45 311.3Q491.75 329.3 509.45 322.65Q530.75 314.7 536.4 292.7Q537.1 289.9 539.2 289Q545.7 319.05 517.6 336.05Q494.05 350.25 478.75 324.75Q462.8 298.2 462 266.75Q460.5 207.3 467.9 148.85Q473.35 105.65 496.9 70.3Q499.35 66.65 503.35 64.4M460.2,85.85Q458.45 88.95 457.45 92.7Q443.15 145.65 426.45 197.25Q435.05 254.3 446 311.2Q457.2 369.3 466.55 427.7Q469.25 444.6 465.05 460.8Q464.85 461.6 463.95 462.2Q458.35 449.3 456.65 433.3Q450.5 374.9 439.8 317.15Q430.35 266.3 423.2 215.15Q422.7 211.6 422.8 208.4Q417.45 224.35 410.9 239.85L410.7 295.25Q410.2 354.55 408.6 413.7Q407.95 437.45 402.45 459.45Q396.95 447 398.4 430.1Q403.5 371.2 405.05 311.75L406.3 250.45L405.45 252.25Q400.5 240.5 406.55 225.85L406.75 192.5Q406.9 132.85 403.8 73.25Q403.3 64.05 407.2 57.5Q410 116 410.6 176L410.85 216.2Q421.25 192.2 428.2 167.35Q442.8 115.25 460.85 64.15Q462.7 58.95 466.45 56.5Q468.55 71.05 460.2 85.85M369.85,316.05L371.2 315L371.1 323.4Q375.95 352.5 381.6 381.5L384.45 381.45Q387.45 386 385.35 391.2L384.95 391.95L383.75 392.15Q387.25 409.75 391.1 427.35Q393.9 440.2 388.95 450.45Q387.35 450.1 386.7 448.45L377.1 393L355.95 393.75L354.65 398.6Q347.55 424.65 340.8 450.75Q340.35 452.5 338.45 452.45Q336.2 431.6 343.1 409.3Q356.15 367.35 366.55 325.05Q366.65 317.95 369.2 312L369.85 316.05M368.2,343.8Q363.55 364.6 358.15 385.45Q366.35 382.8 375.2 381.9L368.6 341.9L368.2 343.8M347.1,362.2Q336.95 411.5 304.2 448.95Q285.9 469.85 258.45 459.45Q226.35 435.4 222.35 394.25Q216.7 336.55 220.4 277.9Q223.6 226 229.75 174.65Q234.8 132.65 249.75 92.75Q261 62.85 289.7 59.5Q289.45 56 290.5 52.65Q291.4 49.7 294.45 49.5Q328.5 80.5 340.2 127.1Q354.6 184.75 356.8 244.25Q359 304.3 347.1 362.2M347.35,196.55Q339.9 137 311.55 84.2Q306.55 74.85 296.95 72L294 71.95L287.95 71.5Q281.7 71.7 275.75 73.4Q274.95 73.6 274.2 74Q245.05 103.9 238.05 146.55Q228.55 204.65 227.3 264.5Q226.65 293.9 225.25 323.65Q224.1 348.45 225.5 373.25Q227.75 412.85 255 439.7Q258.85 443.5 264.2 444.7Q294.05 451.3 310.2 425.6Q342 374.9 348.4 315.4Q354.8 255.9 347.35 196.55M188.35,62.8Q198.8 68.4 202.6 79.55Q206.8 91.8 203.45 104.45L201.3 111.5Q197.1 123.25 186.5 129.55L205.45 181.1Q202.85 180.55 200.45 176.45L195.45 167.5Q186.25 150.15 184.6 130.55L176.9 133.4L172.1 179.75Q168.15 175.6 168.2 167.8Q168.25 163.1 168.85 158.35Q174.35 112.7 176.9 68.65L176.2 63.25L178.55 61.85L178.7 60.55L178.85 60.4L179 60.3L179.2 61.65L183.95 60.5Q186.15 61.6 188.35 62.8M183.7,68.35Q181.4 67.65 179.25 68.3Q179.2 96.85 177.4 125.5Q197.8 118.7 200.05 94.65Q201.95 74.15 183.7 68.35M103.2,54.25Q152.35 73.85 152.15 127.25Q152.05 146.6 145.85 164.25Q139.5 182.5 126.8 194.7Q160.95 210.5 169.1 250.15Q176.45 286.1 178.85 323.15Q181.6 365.9 161.4 402Q143.75 433.45 112.15 449.3Q101 454.9 88.85 456.45Q77.9 457.9 66.5 456.45L65.45 455.5L65 457.2Q59.65 443.85 61.5 427.3Q68.1 368 70.55 308.2Q73 248.9 76 189.75Q78.95 130.7 78.1 71.25Q78 66 79.3 61.85Q79.05 60.7 79.1 59.5Q79.15 57.85 80 56.5L82.4 55.65L82.5 55.5L82.5 55.6Q92.25 52.45 103.2 54.25M82.95,62.95Q85.95 118.15 82.6 174.05Q79.05 233.45 76.85 293.2Q74.7 352.55 71.7 411.75Q70.95 427.15 68.4 441.55Q118.35 441.5 150.1 401.3Q177.2 367 173.8 321.6Q170.45 276.25 154.8 234.35Q143.8 205 116.55 202.9Q109.05 207.8 99.95 211.25L84.5 212Q80.95 208.7 81.2 203.7Q81.35 200.5 83 197.75Q129.95 194.55 142.8 150.35Q146 139.35 146.1 127.5Q146.35 94.75 121.75 75.25Q104.35 61.45 82.95 62.95M187.2,201.5Q189.65 247 185 293L184.95 293.75Q201.35 294.4 217.95 297.75Q220.15 302.25 217.7 306.75L181.7 305.25Q182.1 258.45 184.2 211.45Q184.45 205.35 187.2 201.5" />
</g>
</svg>
