<?xml version="1.0" encoding="utf-8"?>
<svg version="1.1" id="Layer_1"
xmlns="http://www.w3.org/2000/svg"
xmlns:xlink="http://www.w3.org/1999/xlink"


xml:space="preserve">
q-23.4 -45.4 -72 -55.25q-2.85 -0.25 -5.45 1q-0.55 0.25 -1.05 0.65q-0.65 1.8 -0.75 3.75q-0.1 2.3 0.75 4.4q-1.95 16.75 -1.7 33.75q0.8 59.85 2.65 119.25q1.85 59.5 2.6 119.2q0.4 30.4 -4.05 59.85q-1.5 9.85 0 18.05q0.25 2.4 1.5 4.45q0.9 2.55 2.15 4.95q0.6 1.05 1.65 1.55q0.45 -1.1 -0.2 -2.25q32.75 2.55 59.35 -23.85q20.8 -20.7 32.05 -48.15q22.65 -55.25 17.2 -115.75q-5.35 -59.65 -34.2 -112.15q-4.15 -7.55 -8.15 -15.3q-16.15 -40.45 -37.55 -78.75q-1.9 18.15 -2.55 38q-0.4 11.55 -1.75 23.05q-1.55 13 5.05 20.2q3.25 -9.55 2.65 -20.3q-0.65 -10.45 0.85 -20.75q1.15 -7.65 1 -14.75q3.35 10 8.5 19.7q11.7 22.15 24.25 42.6q0.85 3.55 3.65 5.5q6.9 -44.55 2.3 -89.2q-0.6 -0.2 -0.65 0.25q38.5 52.4 51.55 116.5q11.55 56.65 -6.1 111.55q-16.5 51.45 -64.35 78.85q-15.25 3.55 -30.8 3.1q2.55 -55.85 1.5 -112.3q-1.05 -59.7 -1.7 -119.25q-0.6 -55.3 -4.55 -109.5q34.3 3.6 54.45 31.05q-2.85 56 -2.6 112.95q1.15 2.25 3.5 2.25q13.2 3.8 27.45 2.85q2.25 -2.8 2 -6.5q-0.25 -1.55 -1 -3q-0.35 -0.35 -0.75 -0.35q-12.8 0.35 -24.8 -2.65q-0.9 -21.75 0.35 -43.4q1.7 -29.95 -3.75 -57.8q-0.6 -0.2 -0.65 0.25q7.85 59.2 15.85 114.25q-0.05 -0.4 3.5 4q1.75 -0.25 1.7 -2q-0.1 -32.35 -5.75 -64.7q-7.65 -43.6 -13.85 -87.3q-8.35 -58.35 -17.6 -116.45q-0.75 -0.15 -0.9 0.2q-7.4 34.15 -14.7 70.45q-5.8 28.8 -10.45 58.05q-9.4 58.85 -30.75 114.9q-5.75 15.15 -4.1 29.55q21.25 -47.95 30.35 -100q-13.5 0.25 -26.45 2.15q8 -42.25 17.8 -84.05q5.1 -21.65 5.35 -42.85q0.85 27.45 4.8 55.05q-5.55 -0.5 -11 -1.8q-7.85 -3.05 -16.55 -1.85q-8.85 1.45 -14.7 8.9q-24.9 31.55 -25.6 73.1q-0.35 21.7 -2.05 43.35q-4.7 59.85 8.1 117.95q1.55 7.25 7.45 11.3q25.5 17.6 49.1 -3.65q16.45 -14.85 22.75 -37.25q16.25 -57.6 10.1 -118q-2.3 -22.45 -5.8 -44.5q-4.65 -28.85 -26.35 -46.7q-2.75 -6.3 -7.65 -11.1q-11.95 -4.8 -24.75 -2.3q-3.1 74.75 -9.8 150.5q0.75 3.35 2.7 6q8.1 -37.6 7.9 -81.75q4.05 46.9 23.1 87.55q-3.9 -45.95 -19.25 -89.75q23.1 -17.95 19.7 -47.85q-0.3 -2.75 -0.95 -5.45q20.95 45.05 21.45 96.05q0.55 55.9 -22.75 105.75q-17.65 22.8 -47.5 17.75q-2.65 -1.75 -4 -4.3q-14.1 -27.3 -14.5 -59.45q-0.65 -59.55 4.4 -118.55q3.1 -35.8 32.6 -52.7q11.85 -3 20.5 3.75q4.15 2.3 6.05 6.45q-0.4 3.05 0.35 6.1q0.15 0.75 0.6 1.3q-5.7 43.05 -8.4 87.4q-1.5 25.3 -2.45 50.6q-0.95 4.15 -0.15 8.35q-1 29.5 -1.25 58.95q-0.45 59.1 -5.7 117.45q-1.75 -3.25 -3 -6.75q-0.7 1.75 0.3 3.85q2.4 5.1 1.75 10.2q-1.25 9.85 1.65 17.1q0.75 -0.6 0.8 -1.3q11.5 2.7 22.35 -5.85q25.45 -5.2 41.95 -24.7q9.65 -11.3 14 -25.45q18.05 -58.15 0.25 -116.2q-9 -29.15 -28.95 -49.85q10.35 -14.4 15.15 -31.4q9.65 -33.8 0.8 -68.2q-9.25 -35.7 -44.55 -40.6q-2.25 1.7 -2.55 4.45q-14.3 37.35 -51.6 43.3q1.5 -43.9 6.35 -87.3q2.65 -24 1.2 -47.2q33.75 -5.9 45.2 28.15q10.75 32.05 -1.15 63.05q6 18.9 11.05 38.3q4.95 19 4.8 38.6q-0.2 19.8 -5.35 38.85q-5.75 21.1 -23.9 34.05q-16.75 11.9 -36.05 18.6q-6.85 2.4 -13.35 2.35q6.4 -92 6.55 -185.05q10.6 0 20.4 -4.2q2.95 -1.3 5.25 -3q3.25 -2.55 6.5 -3.1q17.9 5.2 24.1 24.6q0.75 -31.65 0.15 -63q14.95 1.15 28.05 8.3q5 6.95 4.55 15.75q-1.55 32.3 -32.75 38.95<g id="230" transform="matrix(1, 0, 0, 1, -34.3, 0)">
<path style="fill:#000000;fill-opacity:1" d="M502.1,160.3Q530.95 212.8 536.3 272.45Q541.75 332.95 519.1 388.2Q507.85 415.65 487.05 436.35Q460.45 462.75 427.7 460.2L428.15 461L429 462.45Q429.65 463.6 429.2 464.7L429.05 464.95Q428 464.45 427.4 463.4L425.2 460.2L421.25 459.05L419.45 462.2Q418.2 459.8 417.3 457.25L417.2 457.2Q415.95 455.15 415.7 452.75L415.6 450.85Q414.1 442.65 415.6 432.8Q420.05 403.35 419.65 372.95Q418.9 313.25 417.05 253.75Q415.2 194.35 414.4 134.5Q414.15 117.5 416.1 100.75L415.45 99.65Q414.6 97.55 414.7 95.25Q414.8 93.3 415.45 91.5Q415.95 91.1 416.5 90.85Q419.1 89.6 421.95 89.85L421.95 89.75Q470.55 99.6 493.95 145Q497.95 152.75 502.1 160.3M367.2,89.75Q371.8 134.4 364.9 178.95L364.45 179.75Q361.65 177.8 360.8 174.25L359.95 175Q347.4 154.55 335.7 132.4Q330.55 122.7 327.2 112.7Q327.35 119.8 326.2 127.45Q324.7 137.75 325.35 148.2Q325.95 158.95 322.7 168.5Q316.1 161.3 317.65 148.3Q319 136.8 319.4 125.25Q320.05 105.4 321.95 87.25L322.6 88.9L323.2 88.75Q344.6 127.05 360.75 167.5L366.55 90Q366.6 89.55 367.2 89.75M419.15,101.5Q423.1 155.7 423.7 211Q424.35 270.55 425.4 330.25Q426.45 386.7 423.9 442.55Q439.45 443 454.7 439.45Q502.55 412.05 519.05 360.6Q536.7 305.7 525.15 249.05Q512.1 184.95 473.6 132.55Q453.45 105.1 419.15 101.5M373.2,341Q378.65 368.85 376.95 398.8Q375.7 420.45 376.6 442.2L376.65 443.45Q388.65 446.45 401.45 446.1Q401.85 446.1 402.2 446.45Q402.95 447.9 403.2 449.45L403.4 450.95L403.45 451.7Q403.7 455.4 401.45 458.2Q387.2 459.15 374 455.35L373.45 456.45Q371.1 456.45 369.95 454.2Q369.7 397.25 372.55 341.25Q372.6 340.8 373.2 341M339.15,329.5L297.45 327.8L293.75 348.25Q284.65 400.3 263.4 448.25L262.2 447.95Q260.55 433.55 266.3 418.4Q287.65 362.35 297.05 303.5Q301.7 274.25 307.5 245.45Q314.8 209.15 322.2 175L322.55 180.95Q322.7 180.6 323.45 180.75Q332.7 238.85 341.05 297.2Q347.25 340.9 354.9 384.5Q360.55 416.85 360.65 449.2Q360.7 450.95 358.95 451.2Q355.4 446.8 355.45 447.2Q347.45 392.15 339.6 332.95L339.15 329.5M336.95,316.55L337.45 316.6L327.45 245.05Q323.5 217.45 322.65 190Q322.4 211.2 317.3 232.85Q307.5 274.65 299.5 316.9Q312.45 315 325.95 314.75Q331.4 316.05 336.95 316.55M260.45,87.5L261.4 88.3L261.95 89L263 89.35L264.95 89.5Q286.65 107.35 291.3 136.2Q294.8 158.25 297.1 180.7Q303.25 241.1 287 298.7Q280.7 321.1 264.25 335.95Q240.65 357.2 215.15 339.6Q209.25 335.55 207.7 328.3Q194.9 270.2 199.6 210.35Q201.3 188.7 201.65 167Q202.35 125.45 227.25 93.9Q233.1 86.45 241.95 85Q250.65 83.8 258.5 86.85L260.45 87.5M190.7,197.2Q191.35 199.9 191.65 202.65Q195.05 232.55 171.95 250.5Q187.3 294.3 191.2 340.25Q172.15 299.6 168.1 252.7L153.15 257.65Q153.35 301.8 145.25 339.4L143.7 337.45Q141.75 334.8 141 331.45L140.75 330.1L140.6 328.65L140.7 325.65Q147.4 249.9 150.5 175.15L152.45 174.7Q165.25 172.2 177.2 177L181.35 181Q186.25 185.8 189 192.1L189.9 194.55L190.7 197.2M265.95,106.5L264.95 106.35L263.55 106.2L263.2 105.75L262.9 104.25L262.5 102.7L262.2 101.25Q253.55 94.5 241.7 97.5Q212.2 114.4 209.1 150.2Q204.05 209.2 204.7 268.75Q205.1 300.9 219.2 328.2Q220.55 330.75 223.2 332.5Q253.05 337.55 270.7 314.75Q294 264.9 293.45 209Q292.95 158 272 112.95Q270.1 108.8 265.95 106.5M58,84.25L61.95 83.25L66.95 81.75Q102.25 86.65 111.5 122.35Q120.35 156.75 110.7 190.55Q105.9 207.55 95.55 221.95L92.45 226Q112.4 246.7 121.4 275.85Q139.2 333.9 121.15 392.05Q116.8 406.2 107.15 417.5Q90.65 437 65.2 442.2Q54.35 450.75 42.85 448.05L42.8 448.15Q42.75 448.85 42 449.45L40.6 447.4L40 447.2L38.7 443.6Q35.8 436.35 37.05 426.5Q37.7 421.4 35.3 416.3Q34.3 414.2 35 412.45Q36.25 415.95 38 419.2L38.25 419.45Q43.5 361.1 43.95 302Q44.2 272.55 45.2 243.05Q44.4 238.85 45.35 234.7L45.55 234.1Q46.5 208.8 48 183.5Q50.7 139.15 56.4 96.1Q55.95 95.55 55.8 94.8Q55.05 91.75 55.45 88.7Q55.75 85.95 58 84.25M104.75,124.75Q93.3 90.7 59.55 96.6Q61 119.8 58.35 143.8Q53.5 187.2 52 231.1Q89.3 225.15 103.6 187.8Q115.5 156.8 104.75 124.75M83.75,235.8Q80.5 236.35 77.25 238.9Q74.95 240.6 72 241.9Q62.2 246.1 51.6 246.1Q51.45 339.15 45.05 431.15Q51.55 431.2 58.4 428.8Q77.7 422.1 94.45 410.2Q112.6 397.25 118.35 376.15Q123.5 357.1 123.7 337.3Q123.85 317.7 118.9 298.7Q113.85 279.3 107.85 260.4Q101.65 241 83.75 235.8M186.25,206.5Q186.7 197.7 181.7 190.75Q168.6 183.6 153.65 182.45Q154.25 213.8 153.5 245.45Q184.7 238.8 186.25 206.5" />
</g>
</svg>
