<?xml version="1.0" encoding="utf-8"?>
<svg version="1.1" id="Layer_1"
xmlns="http://www.w3.org/2000/svg"
xmlns:xlink="http://www.w3.org/1999/xlink"


xml:space="preserve">
q-2.9 47.6 -3.5 95.95q-0.3 29.95 -1.95 59.9q-0.9 17.15 5.05 29.35q0.65 -0.75 0.7 -1.5q2.3 -32.4 3.05 -65.25q0.4 -17.45 0.3 -34.85q19.85 2.05 40.2 -1.85q1.9 -2.25 2.1 -5.25q0.2 -3.65 -1.6 -6.75q-0.35 -0.4 -0.8 -0.45q-17.2 1.15 -34.55 3.95q-0.45 -28.85 -2.15 -57.5q33.35 -0.15 67 1.75q3.55 -4.7 1.75 -10.5q-1.3 0.3 -2.55 0.95q-3.7 3.45 -3.7 9.75q-0.1 36.9 -1.4 73.75q-0.55 1.35 -0.65 2.95q-0.1 1.85 0.4 3.4q-0.8 14.95 -2.6 29.75q-2 16.75 4.05 29.45q13.45 6.85 28.25 3.5q11.3 -5.8 17.75 -17q9.3 -23.7 6.5 -49.6q-2.7 -25.6 -19.65 -40.5q4.3 -4.45 5.9 -10.25q13 -47.1 -33.05 -67.6q-3.5 -0.6 -6.6 0.7q7.45 0.55 14.45 -1.3q3.1 -1.7 6 -3.65q2.25 2.4 6.25 3.9q22 31.65 8.4 67.85q-2.5 6.6 -8.6 9.55q-15.05 7.25 -30.9 2.5q1.3 -27.65 3.1 -55.3q-6.9 2.05 -10.8 8.55q-17.85 29.75 -12.25 64.45q3.7 22.8 26.75 18.5q36.95 -7 38.1 -46q1 -31.45 -26.8 -44.75q22.7 12.8 23.85 37.85q0.85 18.95 -16.45 27q-27.6 13 -33.1 -13.7q-3.8 -18.35 4.1 -35.15q5.9 -12.5 19.65 -15.75q-8.7 5.5 -19.15 5.5q23.55 5.75 34.95 27.7q5.75 23.2 -14.95 36.25<g id="226" transform="matrix(1, 0, 0, 1, -137.45, 0)">
<path style="fill:#000000;fill-opacity:1" d="M349.2,181.5L349.5 185.75Q350.75 185.1 352.05 184.8L356.8 183.5L365.95 183.25L417.45 185.6L418.2 186L418.95 187.5L419.2 188.25Q421 194.05 417.45 198.75Q383.8 196.85 350.45 197L350.25 196.7Q351.95 225.35 352.4 254.2Q369.75 251.4 386.95 250.25L392.4 250.8Q392.85 250.85 393.2 251.25Q395 254.35 394.8 258Q394.6 261 392.7 263.25Q372.35 267.15 352.5 265.1Q352.6 282.5 352.2 299.95Q351.45 332.8 349.15 365.2Q349.1 365.95 348.45 366.7Q342.5 354.5 343.4 337.35Q345.05 307.4 345.35 277.45Q345.95 229.1 348.85 181.5L349.2 181.5M149.4,183.45Q152.5 182.15 156 182.75Q202.05 203.25 189.05 250.35Q187.45 256.15 183.15 260.6L177.6 265.85Q194.55 280.75 197.25 306.35Q200.05 332.25 190.75 355.95Q184.3 367.15 173 372.95Q158.2 376.3 144.75 369.45L143.95 368L143.5 368.45Q137.45 355.75 139.45 339Q141.25 324.2 142.05 309.25L143.9 270.85Q143.4 269.3 143.5 267.45Q143.6 265.85 144.15 264.5Q145.45 227.65 145.55 190.75Q145.55 184.45 149.25 181L149.4 183.45M145.9,354.85Q161.75 359.6 176.8 352.35Q182.9 349.4 185.4 342.8Q199 306.6 177 274.95Q173 273.45 170.75 271.05Q167.85 273 164.75 274.7Q157.75 276.55 150.3 276L149 299.55Q147.2 327.2 145.9 354.85M274,278.35L274.95 278.2Q302.75 291.5 301.75 322.95Q300.6 361.95 263.65 368.95Q240.6 373.25 236.9 350.45Q231.3 315.75 249.15 286Q253.05 279.5 259.95 277.45L274 278.35M265.95,288.2Q252.2 291.45 246.3 303.95Q238.4 320.75 242.2 339.1Q247.7 365.8 275.3 352.8Q292.6 344.75 291.75 325.8Q290.6 300.75 267.9 287.95L265.95 288.2M184.85,219.75Q173.45 197.8 149.9 192.05L150.75 261.5Q161.2 261.5 169.9 256Q190.6 242.95 184.85 219.75" />
</g>
</svg>
