<?xml version="1.0" encoding="utf-8"?>
<svg version="1.1" id="Layer_1"
xmlns="http://www.w3.org/2000/svg"
xmlns:xlink="http://www.w3.org/1999/xlink"


xml:space="preserve">
q-17.2 7.35 -22.15 26.95q-11.65 46.5 -13.8 95q-2 3.95 -0.4 8.05q-1.35 24.15 -3.8 48.25q-4.35 43.15 14.75 78.9q11.25 1.5 21 -3.5q13.9 -9.05 23.25 -22.7q9.15 -13.45 -0.75 -22.75q-2.45 3.35 -4.55 7.1q-2.5 5.9 -6.95 9q-11.1 15.15 -30.35 14.25q-4.55 -7.85 -5.15 -17.05q-2.75 -43.85 -0.65 -87.4q14.8 2.65 29.55 -1.25q4.8 -8.8 -0.85 -16.4q-14 4.05 -28.45 3.8q0.55 -8.2 1.25 -16.4q2.55 -29.3 7.05 -58.2q2 -13.05 10.5 -23.05q14 -16.55 35.15 -5.4q2.35 -4.85 -0.75 -9.2q-4.35 -6.25 -11.75 -8.8q-2.75 -0.25 -5.25 -1.2q5.95 -5.45 14.05 -5.9q2.55 4.15 2.65 9.1q0.05 3.65 2.25 2.75q8.35 -21.2 -12.25 -28.45q-47.95 40.9 -40.4 107.7q2.15 18.7 0.25 37.75q-4.55 45.8 1.4 90.9q1.45 10.8 9.55 18.65q3.15 3 6.7 5.2q29.75 -9.4 40.95 -39.65q-7.5 25.65 2.55 46.15q10.3 -42.8 3.5 -86.95q-12.5 -0.45 -24 4.75q-2.3 3.9 -2.7 8.4q-0.2 2.6 0.7 5.1q-13.35 28 -34.9 14.8q-10.15 -95.75 7.1 -190.6q2.55 -13.85 12.55 -23.15q-0.3 38.8 -22.5 69.4q-17.9 24.7 -45.4 23.4q-1.45 -1.4 -2.05 -3.9q1.25 -6.4 1.65 -13.25q3.3 -58.95 2.7 -118.55q-0.2 -18.7 1.35 -37.35q1.4 -17 -1.2 -32.85q34.45 8.2 51.35 40.85q11.5 22.2 15.1 46.55q4.3 29.25 4.1 59.05q-0.9 -2.15 -2.4 -4q-15.2 -47.85 -60.2 -67.35q-4.05 -1 -7.25 1.15q-0.7 1.25 -1.1 2.55q-1.9 1.2 -2 4.2q-1.9 58.95 -2.9 118.5q-0.95 59 -6.5 117.2q-0.65 6.25 -2.5 12q1.6 6.85 4.95 12.3q7.85 15.75 27.7 7.9q20.45 -8.1 34.1 -25.45q21.55 -27.35 25.6 -62.65q7 -60.4 -10.95 -117.05q-4.15 42.05 -1.95 84.75q1.5 29.45 0.45 58.5q-2.05 60.1 -42.15 103.4q-7.55 -0.35 -10.35 -7.25q-12 -29.9 -10.55 -63.45q2.6 -59.15 4.1 -118.45q0.35 -15 2.05 -29.8q1.6 -14.3 -5 -21.2q-4.45 13.95 -4.45 29.25q-0.15 59.7 -3.4 119.15q-2.5 45.15 7.55 88.35q3.8 16.2 19.3 20.05q4.75 1.15 8.55 -0.85q18.15 -9.75 26.85 -29.35q24.25 -54.5 25.1 -115.1q0.4 -29.6 -0.05 -59.25q-0.4 -30.75 -5.7 -59.25q-1.3 -0.2 -1.35 0.8q24.2 3.2 34.15 26.3q8.9 20.7 -0.05 40.4q-10.2 22.5 -34.4 23.9q-3.95 19.55 -4.55 40.35q-1.45 58.75 -2.4 117.7q-0.95 0.05 -1.45 -1.15q-1.05 12.35 6.2 17.85q1.3 -1.4 1.8 -3.2q7.85 4.2 17.4 1.15q4.55 -1.45 9.05 -2.25q23.6 -4.05 35.85 -23.3q33.55 -52.85 12.95 -112.8q-9.6 -27.9 -34.15 -37.5q5.35 -5.85 9.35 -13.25q12.1 -22.3 5.05 -46.7q-10.75 -37.35 -46.3 -46.1q-1.5 0.7 -2.95 1.55q-0.7 1.45 -0.9 2.95q-0.5 3.4 0.05 6.8q10.7 19.7 11.75 41.95q1.05 21.3 -7.05 40.9q-8.8 21.2 -30.15 29.25q-9 3.3 -18.15 3.6q-7.95 4.25 -16.95 2.35q6.35 3.85 13.25 0.8q3.55 -1.55 6.9 -3.45q18.4 5.65 28.4 24.1<g id="251" transform="matrix(1, 0, 0, 1, -42.75, 0)">
<path style="fill:#000000;fill-opacity:1" d="M499.2,114.05Q501.7 115 504.45 115.25Q511.85 117.8 516.2 124.05Q519.3 128.4 516.95 133.25Q495.8 122.1 481.8 138.65Q473.3 148.65 471.3 161.7Q466.8 190.6 464.25 219.9Q463.55 228.1 463 236.3Q477.45 236.55 491.45 232.5Q497.1 240.1 492.3 248.9L491.7 249.75Q476.95 253.65 462.15 251Q460.05 294.55 462.8 338.4Q463.4 347.6 467.95 355.45Q487.2 356.35 498.3 341.2Q502.75 338.1 505.25 332.2L505.4 331.85Q507.5 328.1 509.95 324.75Q519.85 334.05 510.7 347.5Q501.35 361.15 487.45 370.2Q477.7 375.2 466.45 373.7Q447.35 337.95 451.7 294.8Q454.15 270.7 455.5 246.55Q453.9 242.45 455.9 238.5L456 235.7Q458.15 187.2 469.8 140.7Q474.75 121.1 491.95 113.75L499.2 114.05M390.1,155.6Q372.85 250.45 383 346.2Q404.55 359.4 417.9 331.4L419.3 330.9L426.25 305.2L414.45 305.5L411.45 307.5Q410.55 305 410.75 302.4Q411.15 297.9 413.45 294Q424.95 288.8 437.45 289.25Q444.25 333.4 433.95 376.2Q423.9 355.7 431.4 330.05Q420.2 360.3 390.45 369.7Q386.9 367.5 383.75 364.5Q375.65 356.65 374.2 345.85Q368.25 300.75 372.8 254.95Q374.7 235.9 372.55 217.2Q365 150.4 412.95 109.5L414.35 109.9Q434.95 117.15 426.6 138.35Q424.4 139.25 424.35 135.6Q424.25 130.65 421.7 126.5L416.7 126.55Q408.6 127 402.65 132.45Q392.65 141.75 390.1 155.6M339.15,206.95Q335.55 182.6 324.05 160.4Q307.15 127.75 272.7 119.55Q275.3 135.4 273.9 152.4Q272.35 171.05 272.55 189.75Q273.15 249.35 269.85 308.3L268.05 340.55Q267.65 347.4 266.4 353.8L269.15 353.4Q269.75 355.9 271.2 357.3L270.5 357.55L269.2 358.2L274.55 358.75L275.35 358.8Q302.85 360.1 320.75 335.4Q342.95 304.8 343.25 266Q343.45 236.2 339.15 206.95M433.7,305.25L430.75 305.2Q432.25 307.05 433.15 309.2L433.7 305.25M349.1,288.9Q345.05 324.2 323.5 351.55Q309.85 368.9 289.4 377Q269.55 384.85 261.7 369.1L260.45 371.95Q257.1 366.5 255.5 359.65Q257.35 353.9 258 347.65L258.2 348.2Q263.75 290 264.7 231Q265.7 171.45 267.6 112.5Q267.7 109.5 269.6 108.3Q270 107 270.7 105.75Q273.9 103.6 277.95 104.6L277.95 104.5Q322.95 124 338.15 171.85Q356.1 228.5 349.1 288.9M236.45,107.25Q241.75 135.75 242.15 166.5Q242.6 196.15 242.2 225.75Q241.35 286.35 217.1 340.85Q208.4 360.45 190.25 370.2Q186.45 372.2 181.7 371.05Q166.2 367.2 162.4 351Q152.35 307.8 154.85 262.65Q158.1 203.2 158.25 143.5Q158.25 128.2 162.7 114.25Q169.3 121.15 167.7 135.45Q166 150.25 165.65 165.25Q164.15 224.55 161.55 283.7Q160.1 317.25 172.1 347.15Q174.9 354.05 182.45 354.4L191.45 354.7Q231.55 311.4 233.6 251.3Q234.65 222.25 233.15 192.8Q230.95 150.1 235.1 108.05Q235.15 107.05 236.45 107.25M61.95,119.75L56.15 206L62.25 205.6Q86.45 204.2 96.65 181.7Q105.6 162 96.7 141.3Q86.75 118.2 62.55 115L61.95 119.75M55.4,112Q54.85 108.6 55.35 105.2Q55.55 103.7 56.25 102.25L57.05 101.6Q58.5 100.75 60 100.05L61 99.75Q96.55 108.5 107.3 145.85Q114.35 170.25 102.25 192.55Q98.25 199.95 92.9 205.8Q117.45 215.4 127.05 243.3Q147.65 303.25 114.1 356.1Q101.85 375.35 78.25 379.4Q73.75 380.2 69.2 381.65Q59.65 384.7 51.8 380.5Q51.3 382.3 50 383.7Q42.75 378.2 43.8 365.85L44.25 359.7Q44.75 360.9 45.7 360.85L46.25 360.2Q47.2 301.25 48.65 242.5L51.05 153.25Q51.65 132.45 55.6 112.9L55.4 112M86.65,220.05L76 218.75Q72.65 220.65 69.1 222.2Q62.2 225.25 55.85 221.4L54.5 362.2Q63.5 364.1 71.45 359.85Q80.6 359.55 89.6 356.25Q110.95 348.2 119.75 327Q127.85 307.4 126.8 286.1Q125.75 263.85 115.05 244.15Q105.05 225.7 86.65 220.05" />
</g>
</svg>
