<?xml version="1.0" encoding="utf-8"?>
<svg version="1.1" id="Layer_1"
xmlns="http://www.w3.org/2000/svg"
xmlns:xlink="http://www.w3.org/1999/xlink"


xml:space="preserve">
q-4.5 31.05 -3.5 63.7q1.1 36 1.55 72.2q-3.65 -1.4 -7.75 -0.8q0.05 -56.5 -1.85 -113q-2.3 1 -2.45 4q-1.95 34.8 -2.35 70.5q-0.25 21.6 0.75 43.4q2.85 59.5 -2.65 118.65q-1.4 14.95 -4.2 29.65q-3.35 17.5 3.65 29.75q0.9 -0.6 1.15 -1.4q3.8 -12.7 4.75 -26.05q4.3 -59.1 4.55 -118.5q20.2 3.1 40.65 2.65q-0.1 59.35 -4.8 117.2q-1.15 9.95 5.5 14q5.4 -37.25 6.15 -75.7q1.2 -59.7 -1.25 -119.25q-2.45 -59.15 -1.65 -117.75q-24.15 -4.7 -49.05 -7.1q-21.7 2.7 -43.5 2.75q-0.6 1 -0.65 2.2q-0.05 2.3 0.75 4.5q3.75 1.9 8.25 1.85q-1.3 34.95 -1.15 71.3q0.2 59.65 -0.9 119.25q-0.55 30 -4.15 59.75q-3.75 30.85 1.8 59.45q1 -0.35 1.1 -0.9q6.6 -41.35 7.95 -83.8q1.85 -59.2 2.3 -119.25q0.45 -53.55 -4.1 -105.5q18.2 1.85 35.25 5.5q1.2 -1.3 1.7 -3q0.85 -2.95 0.8 -6q-0.25 -4.05 -2.95 -6.75q-2.5 0.45 -4.55 2.1q-1.15 2.9 -1.15 6q-2.05 11.75 -2.5 24.1q-2.5 59.7 -10.65 118.6q-1.55 11.15 -4.25 22.05q-4.35 17.7 3.35 29.35q4.45 -10.95 5.95 -23.1q7.3 -58.6 10.95 -117.85q7.65 -2.1 14.6 -5.95q0.4 5.65 1.75 11.4q13.4 57.65 21.95 116.2q3.2 21.8 5.15 43.65q1.2 13.7 9.2 20.6q1.4 -1.15 1.3 -2.95q-3.15 -41.55 -10.05 -83.45q-9.05 -54.9 -24.85 -108.15q22.6 -17.65 25 -46.75q1.85 -22.1 -5.9 -43.2q-9.9 -26.9 -35.05 -36.4q-1.05 0.8 -2.95 1.15q-5.25 21.3 -23.75 33.05q-7.25 4.65 -15.6 7.4q3.6 -53.95 0.75 -107.85q22.05 1.85 33.65 24.65q10.45 20.6 4.95 42.75q-4.75 59.05 -7 118.55q-2.2 59.45 -7.8 118.45q-2.2 23.5 1.95 44.3q6.15 -7.3 6.35 -18.75q0.55 -29.7 1.95 -59.3q2.8 -59.45 6.5 -118.4q3.75 -59.7 4.95 -117.75q-5.5 15.05 -6.9 32.9q-1.5 2.85 -1.05 6.05q-5.75 33.55 -6 68.95q-2 3.8 -1.85 8.25q0.1 4.1 3.1 6.75q-1.5 60.1 -7.4 115.95q-2.8 10.05 4.75 16.25q0.6 -0.35 0.7 -0.85q30.85 -2.15 53.4 -25.65q13.8 -14.4 20.2 -33.3q20 -58.95 -3.35 -116.35q-7.6 -18.7 -23.4 -25.25q4.2 -4.15 7.3 -9.3q20.75 -34.65 10.2 -73.25q-9.95 -36.45 -44.95 -47.25q-4.4 2.5 -7.9 6.75q-1 22 -16.65 37.35q-13.95 13.75 -34.6 15.25q21.2 5.2 32.35 23.75q10.95 18.35 9.95 39.7q35.2 43.1 23.6 98.05q-12.2 57.6 -69.35 70.55q1.45 -11.25 1.95 -22.85q2.55 -58.95 3.45 -118.5q13.7 -2 25.85 -8.75<g id="245" transform="matrix(1, 0, 0, 1, -58.45, 0)">
<path style="fill:#000000;fill-opacity:1" d="M438.6,98.1L439.2 98.75Q438.4 157.35 440.85 216.5Q443.3 276.05 442.1 335.75Q441.35 374.2 435.95 411.45Q429.3 407.4 430.45 397.45Q435.15 339.6 435.25 280.25L435.15 248.75Q414.7 249.2 394.5 246.1L394.4 270.5Q394.15 329.9 389.85 389Q388.9 402.35 385.1 415.05Q384.85 415.85 383.95 416.45Q376.95 404.2 380.3 386.7Q383.1 372 384.5 357.05Q390 297.9 387.15 238.4Q386.15 216.6 386.4 195Q386.8 159.3 388.75 124.5Q388.9 121.5 391.2 120.5L392.15 121.3L392.7 122Q394.6 178.5 394.55 235L426.95 232.25Q431.05 231.65 434.7 233.05L435 233.2Q434.55 197 433.45 161Q432.45 128.35 436.95 97.3L437.45 97.25L438.6 98.1M378.45,94.25Q381.15 96.95 381.4 101L381.45 102.5Q381.5 105.55 380.65 108.5Q380.15 110.2 378.95 111.5Q361.9 107.85 343.7 106Q348.25 157.95 347.8 211.5Q347.35 271.55 345.5 330.75Q344.15 373.2 337.55 414.55Q337.45 415.1 336.45 415.45Q330.9 386.85 334.65 356Q338.25 326.25 338.8 296.25Q339.9 236.65 339.7 177Q339.55 140.65 340.85 105.7L334.4 105.15L291.45 103.6Q286.95 103.65 283.2 101.75Q282.4 99.55 282.45 97.25L282.55 95L282.65 93.5Q282.7 92.3 283.3 91.3L284.45 89.75Q306.25 89.7 327.95 87Q352.85 89.4 377 94.1L378.45 94.25M246.95,88.5Q272.1 98 282 124.9Q289.75 146 287.9 168.1Q285.5 197.2 262.9 214.85L258.35 218.15Q274.15 271.4 283.2 326.3Q290.1 368.2 293.25 409.75Q293.35 411.55 291.95 412.7Q283.95 405.8 282.75 392.1Q280.8 370.25 277.6 348.45Q269.05 289.9 255.65 232.25Q254.3 226.5 253.9 220.85Q246.95 224.7 239.3 226.8L236.6 270Q232.95 329.25 225.65 387.85Q224.15 400 219.7 410.95Q212 399.3 216.35 381.6Q219.05 370.7 220.6 359.55Q228.75 300.65 231.25 240.95L235.9 123.2Q236.35 110.85 238.4 99.1L238.3 97.75Q238.3 94.65 239.45 91.75Q241.5 90.1 244 89.65Q245.9 89.3 246.95 88.5M274.75,127.65Q263.15 104.85 241.1 103Q243.95 156.9 240.35 210.85Q248.7 208.1 255.95 203.45Q274.45 191.7 279.7 170.4Q285.2 148.25 274.75 127.65M200.2,94.5Q199 152.55 195.25 212.25Q191.55 271.2 188.75 330.65Q187.35 360.25 186.8 389.95Q186.6 401.4 180.45 408.7Q176.3 387.9 178.5 364.4Q184.1 305.4 186.3 245.95Q188.55 186.45 193.3 127.4Q194.7 109.55 200.2 94.5M79.1,88.75Q82.6 84.5 87 82Q122 92.8 131.95 129.25Q142.5 167.85 121.75 202.5Q118.65 207.65 114.45 211.8Q130.25 218.35 137.85 237.05Q161.2 294.45 141.2 353.4Q134.8 372.3 121 386.7Q98.45 410.2 67.6 412.35L66.7 416.6Q66.6 417.1 66 417.45Q58.45 411.25 61.25 401.2Q67.15 345.35 68.65 285.25L69.8 230L69.5 230Q66.5 227.35 66.4 223.25Q66.25 218.8 68.25 215L70.05 214.5L70.55 166Q70.8 130.6 76.55 97.05Q76.1 93.85 77.6 91L77.95 89.1L78.5 89L78.6 89.45L79.1 88.75M118.35,120.25Q107.2 101.7 86 96.5L80.85 101.05L77.05 212.55Q97.7 211.05 111.65 197.3Q127.3 181.95 128.3 159.95Q129.3 138.6 118.35 120.25M102.45,220.55Q90.3 227.3 76.6 229.3L76.1 252.5Q75.2 312.05 72.65 371Q72.15 382.6 70.7 393.85Q127.85 380.9 140.05 323.3Q151.65 268.35 116.45 225.25L102.45 220.55" />
</g>
</svg>
