<?xml version="1.0" encoding="utf-8"?>
<svg version="1.1" id="Layer_1"
xmlns="http://www.w3.org/2000/svg"
xmlns:xlink="http://www.w3.org/1999/xlink"


xml:space="preserve">
q-2.35 52.5 -6.3 105q-1.55 20.6 -3.8 41.2q-3.3 -18.75 -8 -37.1q-14.7 -57 -27.55 -114.1q-0.9 0.2 -1.5 0.6q-0.8 -0.2 -0.8 0.5q-0.45 1.05 -0.2 2.6q0.2 23.5 -1.3 47.8q-3.55 58.9 -8.75 117.6q-0.5 -0.5 -0.65 -1.1q-1 -3.75 -2.35 -5.9q2.05 16.15 4.5 30.5q1.75 -0.75 2 -2.75q4.8 -45.5 3 -91.15q6.6 32.95 16.4 65.15q12.95 42.5 12.25 85.9q3.55 7.85 8.5 12.5q0.95 -6.55 0.75 -13.1q3 -27 5.45 -54.5q5.25 -59.6 0.85 -118.6q-0.4 1.35 -0.45 2.8q-4.35 53.3 -5 108.1q-0.7 59.4 -0.4 119.25q0.3 60.1 -6.35 119.15q-0.8 7.45 -2.45 14.65q-3.35 14.55 5.75 21.9q0.7 2.15 2.05 4.05q18.85 2.55 36.9 -5.6q46.3 -20.8 64.95 -69.4q21.35 -55.5 20.5 -115.7q-0.8 -60.05 -19.55 -116.7q-9.95 -29.95 -29.45 -54.15q-24.05 -29.9 -63.85 -30.4q-1.6 0.1 -2.45 1.55q23.25 55.75 25.45 117q2.2 60.1 -19.9 115.1q-26.25 65.2 -95.55 69.65q3.4 -20.8 8.95 -41.25q-2.8 3.35 -4.5 8.25q4.25 -51.5 4 -103.7q-0.35 -59.85 1.35 -119.25q1.55 -54.4 -1.85 -107.75q24.25 7 48.5 15.5q22.25 19.4 33.55 46.45q10.6 25.1 -19.2 26.1q-8.3 29.5 -2.9 59.7q8.3 1.95 15.95 -1.75q2.8 30.05 19.7 50.65q-4.45 -26.6 -17.15 -52.25q17.05 -17.5 6.7 -39.6q-4.3 -9.2 -13.5 -13.85q-1.25 -0.3 -1.25 0.75q-6.8 14.8 -9.65 32.6q-6.95 43.55 -15.95 86.9q-11.95 57.75 -21.2 116.05q-9.3 58.75 -27.6 114.85q-5.55 17.1 2.15 28.95q17.4 -52.75 26.85 -108.65q6.65 -39.45 13.75 -78.85q24.5 2.55 49.4 1.4q7.75 58.8 12.2 118q2.35 30.85 11.1 58.1q1.65 -0.35 1.9 -2.05q2.55 -15.65 0.4 -31.6q-7.95 -58.7 -16.25 -117.35q-8.25 -58.3 -13.05 -117.2q-4.45 -54.65 -13 -107.9q-0.05 -5.5 -0.5 -10.85q1.2 29.5 4.5 59.25q5 44.75 10.7 89.35q-10.75 0.5 -21.15 -1.75q-12.5 -0.8 -24.2 2.5q10.7 -58.1 23.8 -115.5q-6.15 1.7 -10.75 5.65q-1.2 4.05 -0.8 8.25q0.15 1.35 0.7 2.4q-1.9 13.65 -2.15 27.85q-1.45 59.45 -4.5 118.55q-0.3 4.8 0.35 8.8q-0.75 2.7 -0.55 5.6q0.2 3.55 1.95 6.7q5.85 1.6 12.05 2.15q42.5 3.9 61.4 -32.9q19.1 -34.75 19.85 -75q0.6 -29.9 -4.6 -58.85q-7.85 -43.3 -39 -72.3q15.75 -15.6 21.25 -40.35q11.5 -51.9 -13.5 -98.95q-11.8 -13.7 -28.85 -16.4q-14.35 26.1 -42.2 23.05q0.65 -15 1.95 -29.95q4.6 -53 0.5 -105.45q16.3 -7.6 29.15 5.45q19.35 19.75 22.45 48.15q3.35 31.2 -11.85 58.75q16.2 12.85 23.9 31.95q11.6 28.7 15.95 59.4q1.65 11.45 1.3 23.1q-0.55 20.55 -7.25 40q-6.9 19.9 -19.8 36.45q-13.75 17.7 -37.45 16.3q-3.7 11.25 -4.75 31.3q-1.15 21.8 -4.3 43.25q-2.1 14.25 4.1 25.3q6 1.85 11.4 -1.7q4.4 28.35 17.65 53.85q0.9 1.65 2.15 3.2q-2 -30.85 -15.45 -59.5q11.9 -6.95 12.65 -20.4q0.1 -1.95 -0.15 -3.85q-0.85 -7 -3.9 -13.1q-5.1 16.4 -23.55 15.8q0.15 -12.95 -0.4 -25.9q12.3 -5.4 22.2 4.85<g id="266" transform="matrix(1, 0, 0, 1, -52.1, 0)">
<path style="fill:#000000;fill-opacity:1" d="M327.2,84.25Q331.6 143.25 326.35 202.85Q323.9 230.35 320.9 257.35Q321.1 263.9 320.15 270.45L319.7 271.25Q314.75 266.6 311.2 258.75Q311.9 215.35 298.95 172.85Q289.15 140.65 282.55 107.7Q284.35 153.35 279.55 198.85L271.95 271.5Q271.7 273.5 269.95 274.25Q267.5 259.9 265.45 243.75Q266.8 245.9 267.8 249.65Q267.95 250.25 268.45 250.75Q273.65 192.05 277.2 133.15Q278.7 108.85 278.5 85.35L278.25 84Q278 82.45 278.45 81.4L278.4 80Q278.4 79.3 279.2 79.5L279.7 79.85Q280.3 79.45 281.2 79.25Q294.05 136.35 308.75 193.35Q313.45 211.7 316.75 230.45Q319 209.85 320.55 189.25Q324.5 136.75 326.85 84.25L327.2 84.25M356.45,78.5L356.5 79.05Q357.35 77.6 358.95 77.5Q398.75 78 422.8 107.9Q442.3 132.1 452.25 162.05Q471 218.7 471.8 278.75Q472.65 338.95 451.3 394.45Q432.65 443.05 386.35 463.85Q368.3 472 349.45 469.45Q348.1 467.55 347.4 465.4L346.95 468.7Q337.85 461.35 341.2 446.8Q342.85 439.6 343.65 432.15Q350.3 373.1 350 313Q349.7 253.15 350.4 193.75Q351.05 138.95 355.4 85.65L355.3 83.75Q355.35 82.3 355.75 80.95L355.95 78.55L356.45 78.5M405.7,104.75Q381.45 96.25 357.2 89.25Q360.6 142.6 359.05 197Q357.35 256.4 357.7 316.25Q357.95 368.45 353.7 419.95Q355.4 415.05 358.2 411.7Q352.65 432.15 349.25 452.95Q418.55 448.5 444.8 383.3Q466.9 328.3 464.7 268.2Q462.5 206.95 439.25 151.2Q427.95 124.15 405.7 104.75M167.45,82.75L152.75 83.55L152.9 117.05L155.25 117.1Q185.05 116.1 174.45 91L173.7 88L167.45 82.75M177.45,85.85Q187.8 107.95 170.75 125.45Q183.45 151.1 187.9 177.7Q171 157.1 168.2 127.05Q160.55 130.75 152.25 128.8L145.45 175.75Q140.05 145.55 148.35 116.05L150.7 76.75L163.95 72Q173.15 76.65 177.45 85.85M238.95,88.6Q247.5 141.85 251.95 196.5Q256.75 255.4 265 313.7Q273.3 372.35 281.25 431.05Q283.4 447 280.85 462.65Q280.6 464.35 278.95 464.7Q270.2 437.45 267.85 406.6Q263.4 347.4 255.65 288.6L253.95 275.6Q229.05 276.75 204.55 274.2Q197.45 313.6 190.8 353.05Q181.35 408.95 163.95 461.7Q156.25 449.85 161.8 432.75Q180.1 376.65 189.4 317.9Q198.65 259.6 210.6 201.85Q219.6 158.5 226.55 114.95Q229.4 97.15 236.2 82.35L236.2 80.25Q236.2 79.2 237.45 79.5L237.5 79.7L238.45 77.75Q238.9 83.1 238.95 88.6M235.1,121.5Q222 178.9 211.3 237L206.75 262Q218.45 258.7 230.95 259.5Q241.35 261.75 252.1 261.25Q246.4 216.65 241.4 171.9Q238.1 142.15 236.9 112.65L235.1 121.5M110.85,82.9L111.7 83.75Q136.7 130.8 125.2 182.7Q119.7 207.45 103.95 223.05Q135.1 252.05 142.95 295.35Q148.15 324.3 147.55 354.2Q146.8 394.45 127.7 429.2Q108.8 466 66.3 462.1Q60.1 461.55 54.25 459.95Q52.5 456.8 52.3 453.25Q52.1 450.35 52.85 447.65Q52.2 443.65 52.5 438.85L59.25 319.8Q62.3 260.7 63.75 201.25L65.5 112Q65.75 97.8 67.65 84.15Q67.1 83.1 66.95 81.75Q66.55 77.55 67.75 73.5Q72.35 69.55 78.5 67.85L82 66.5Q99.05 69.2 110.85 82.9M123.25,138.8Q120.15 110.4 100.8 90.65Q87.95 77.6 71.65 85.2Q75.75 137.65 71.15 190.65Q69.85 205.6 69.2 220.6Q97.05 223.65 111.4 197.55Q126.6 170 123.25 138.8M81.05,238.5L68.65 237.55L61.2 443.55L77.35 442.95Q101.05 444.35 114.8 426.65Q127.7 410.1 134.6 390.2Q141.3 370.75 141.85 350.2Q142.2 338.55 140.55 327.1Q136.2 296.4 124.6 267.7Q116.9 248.6 100.7 235.75L90.35 233.6L81.05 238.5M314.3,253.35L313.7 250.25L313.95 257.75L314.3 253.35M296.95,275L312.2 282.75Q315.25 288.85 316.1 295.85Q316.35 297.75 316.25 299.7Q315.5 313.15 303.6 320.1Q317.05 348.75 319.05 379.6Q317.8 378.05 316.9 376.4Q303.65 350.9 299.25 322.55Q293.85 326.1 287.85 324.25L282.3 378.95Q276.1 367.9 278.2 353.65Q281.35 332.2 282.5 310.4Q283.55 290.35 287.25 279.1L296.95 275M309.95,292.5Q300.05 282.25 287.75 287.65Q288.3 300.6 288.15 313.55Q306.6 314.15 311.7 297.75L310.65 294.85L309.95 292.5" />
</g>
</svg>
