<?xml version="1.0" encoding="utf-8"?>
<svg version="1.1" id="Layer_1"
xmlns="http://www.w3.org/2000/svg"
xmlns:xlink="http://www.w3.org/1999/xlink"


xml:space="preserve">
q-8.15 42.55 -7.8 87.7q-6.75 -0.2 -13.2 2.35q1.25 -32.2 3.35 -64.3q1.05 -16 -2.65 -30.05q-0.8 -0.15 -0.85 0.3q-6.1 56.9 -7 115.15q-0.9 59.3 -3.65 117.75q0.75 2.8 3.25 1.5q5.2 -42.3 6 -85.5q0.4 -22.35 1.2 -44.6q-0.3 52.3 -5.45 103.9q-1.6 16.55 3.2 29.85q0.9 -0.6 0.95 -1.35q5.4 -43.05 6.2 -86.9q0.8 -44.55 3.15 -89.15q1.6 -30.25 0.2 -59.3q-5.8 13.95 -8.75 30.6q-10.35 57.65 -19.65 115.5q-9.35 58.3 -20.8 116.5q-5.85 29.7 -16.05 57.95q-8.2 22.85 -2.85 44q5.8 -8.65 8.85 -20.7q14.4 -57.35 25.65 -115.5q26.5 0.9 53.75 -2.05q8.85 58.35 16.7 116.85q1.25 9.45 2.4 12.4q0.45 2.65 5 6q0.75 -0.75 1 -1.6q3.1 -10.95 1 -22.6q-10.65 -58.15 -19.4 -116.6q-8.7 -58.35 -19.3 -116.4q-5.3 -29.05 -6.9 -58.55q-1.65 -30.35 -9.65 -58.45q-3 1.55 -2.7 5.5q-4.3 31.6 -6.75 63.4q-1.75 22.4 -0.6 44.8q-0.7 10.45 3.55 20.15q2.9 6.7 7.3 12.5q4.8 -10.55 -1.55 -22.45q-9.55 -18 -17.55 -36.8q9.35 -8.65 12.6 -21q1.75 -6.75 2 -13.65q0.3 -7 -2.15 -13.45q-2.05 -5.45 -5.85 -9.8q-5.6 -6.4 -13 -10.35q22.9 2.4 21.35 28.55q-1.35 23.25 -22 30q4.4 49 12.1 97.55q-20.85 0.2 -41.25 5.25q6.45 -36.95 11.75 -74.05q4.2 -29.35 10.6 -58.3q3.9 -17.55 5.1 -34.75q-0.45 1.45 -0.6 3q-0.15 1.5 0.25 3q-1.45 6.1 -1.45 13.25q0.2 60.1 -5 119.35q-1.55 1.5 -1.8 3.7q-0.35 3.05 0.15 6.05q0.2 1.4 0.8 2.75q-2 32.05 -1.9 64.25q0.2 59.2 -1.25 118.45q0 0.75 -0.4 1.05q-0.65 0.5 -0.85 -1.3q-2.4 12.3 5 24.75q25.8 6.1 49.8 -2.2q33.85 -11.7 42.25 -46.3q14.15 -58.55 1.3 -117.35q-6.25 -30.7 -33.5 -40.05q31.25 -33.75 22.75 -84q-7.95 -46.85 -49.9 -67.9q-0.75 -0.4 -1.5 -0.45q25.35 4.35 40.25 27.15q13 19.75 14.35 43.45q1.4 24.65 -11.2 46.1q-9.55 16.15 -26 24.85q-16.15 8.5 -34.3 5q8.1 -70.75 6.3 -141.95q21.2 3.7 29.05 24.1q6.6 17.25 11.05 35.15q4.45 18.05 5.35 36.4q1 21.15 -3.2 41.9q-4.4 21.65 -18.2 38.55q-12.7 15.55 -32.75 17.9q-19.65 2.7 -39.4 2.05q19.55 6.65 36.75 -5.85q3 -2.1 5.95 -4.55q-2.15 43.05 0.15 84.85q18.6 3.2 37 2.75q1.35 1.45 3 0.75q2.8 -5.6 0.1 -11.2q-19.75 1 -38 -4q1.5 -9.9 1.2 -20.25q-0.3 -10.5 0.95 -20.85q2.5 -21.15 -1.9 -40.65q-1.65 0.05 -1.95 1.65q-0.8 3.9 -0.95 7.5<g id="257" transform="matrix(1, 0, 0, 1, -65.1, 0)">
<path style="fill:#000000;fill-opacity:1" d="M416.45,229.25Q417.85 258.3 416.25 288.55Q413.9 333.15 413.1 377.7Q412.3 421.55 406.9 464.6Q406.85 465.35 405.95 465.95Q401.15 452.65 402.75 436.1Q407.9 384.5 408.2 332.2L360.4 331.35Q359.6 353.6 359.2 375.95Q358.4 419.15 353.2 461.45Q350.7 462.75 349.95 459.95Q352.7 401.5 353.6 342.2Q354.5 283.95 360.6 227.05Q360.65 226.6 361.45 226.75Q365.15 240.8 364.1 256.8Q362 288.9 360.75 321.1Q367.2 318.55 373.95 318.75L408.2 319.95L408.15 317Q407.8 271.85 415.95 229.3L416.45 229.25M278.5,90.5Q278.2 86.55 281.2 85Q289.2 113.1 290.85 143.45Q292.45 172.95 297.75 202Q308.35 260.05 317.05 318.4Q325.8 376.85 336.45 435Q338.55 446.65 335.45 457.6Q335.2 458.45 334.45 459.2Q329.9 455.85 329.45 453.2Q328.3 450.25 327.05 440.8Q319.2 382.3 310.35 323.95L304.55 285.8Q277.3 288.75 250.8 287.85L244.95 319.25Q233.7 377.4 219.3 434.75Q216.25 446.8 210.45 455.45Q205.1 434.3 213.3 411.45Q223.5 383.2 229.35 353.5Q240.8 295.3 250.15 237Q259.45 179.15 269.8 121.5Q272.75 104.85 278.55 90.9L278.5 90.5M183.95,89.25L183.95 84.75L192.95 83Q200.35 86.95 205.95 93.35Q209.75 97.7 211.8 103.15Q214.25 109.6 213.95 116.6Q213.7 123.5 211.95 130.25Q208.7 142.6 199.35 151.25Q207.35 170.05 216.9 188.05Q223.25 199.95 218.45 210.5Q214.05 204.7 211.15 198L200.5 173.35Q196.25 163.65 196.95 153.2L185.2 158.9L178.95 213L178 198.55Q176.85 176.15 178.6 153.75Q181.05 121.95 185.35 90.35L183.95 89.25M207.75,119.95Q209.3 93.8 186.4 91.4L185.75 149.95Q206.4 143.2 207.75 119.95M275.05,144.65Q268.65 173.6 264.45 202.95Q259.15 240.05 252.7 277Q273.1 271.95 293.95 271.75L302.4 271.9L292.25 207.45Q284.55 158.9 280.15 109.9Q278.95 127.1 275.05 144.65M83.6,84L88.5 81.3L95 77.75L102.45 78.3Q103.2 78.35 103.95 78.75Q145.9 99.8 153.85 146.65Q162.35 196.9 131.1 230.65Q158.35 240 164.6 270.7L167.85 286.1Q180.7 344.9 166.55 403.45Q158.15 438.05 124.3 449.75Q100.3 458.05 74.5 451.95L74.3 451.75L72.5 455.95Q65.1 443.5 67.5 431.2Q67.7 433 68.35 432.5Q68.75 432.2 68.75 431.45Q70.2 372.2 70 313Q69.9 280.8 71.9 248.75Q71.3 247.4 71.1 246Q70.6 243 70.95 239.95Q71.2 237.75 72.75 236.25L73.7 224.6Q78.9 165.35 78.7 105.25Q78.7 98.1 80.15 92Q79.75 90.5 79.9 89Q80.05 87.45 80.5 86L82.5 84.7L83.5 82.5L83.6 84M84.15,95.35Q85.95 166.55 77.85 237.3Q96 240.8 112.15 232.3Q128.6 223.6 138.15 207.45Q150.75 186 149.35 161.35Q148 137.65 135 117.9Q120.1 95.1 94.75 90.75L84.15 95.35M113.85,245.85Q96.65 258.35 77.1 251.7L76.35 437.05Q96.1 437.7 115.75 435Q135.8 432.65 148.5 417.1Q162.3 400.2 166.7 378.55Q170.9 357.8 169.9 336.65Q169 318.3 164.55 300.25Q160.1 282.35 153.5 265.1Q145.65 244.7 124.45 241L119.8 241.3Q116.85 243.75 113.85 245.85M187.25,228.9Q187.55 227.3 189.2 227.25Q193.6 246.75 191.1 267.9Q189.85 278.25 190.15 288.75Q190.45 299.1 188.95 309Q207.2 314 226.95 313Q229.65 318.6 226.85 324.2L226.45 324.75Q224.8 325.45 223.45 324Q205.05 324.45 186.45 321.25Q184.15 279.45 186.3 236.4Q186.45 232.8 187.25 228.9" />
</g>
</svg>
