<?xml version="1.0" encoding="utf-8"?>
<svg version="1.1" id="Layer_1"
xmlns="http://www.w3.org/2000/svg"
xmlns:xlink="http://www.w3.org/1999/xlink"


xml:space="preserve">
q-13.2 2.15 -22.1 12.6q-2.35 2.75 -3.95 5.9q-19.6 38.2 -19.85 82.5q-0.2 44.55 -1.65 89.2q-1.1 35.3 7.45 69.05q7.65 30.15 38.1 24.2q9.5 -4.5 14.85 -13.35q8.95 -14.7 0.15 -24.85q-2.8 15.55 -18.8 19.85q-8.25 2.2 -13.5 -3.1q-18.5 -18.6 -18.55 -46q-0.05 -35.55 0.35 -71.2q3.75 -7.2 -0.85 -13.4q-14 -0.45 -27.4 1.75q1.3 -41.95 37.7 -58.75q4.2 1.8 5.65 5.85q1.55 4.3 5.1 4.9q2.2 -21.45 -19.05 -22.95q-39.4 28.85 -42 79.75q-3.1 61 -3.45 122.3q-0.1 17.05 3 33.75q1.35 7.25 3.55 14.4q1.65 4.75 4.2 8.75q3.45 5.4 8.35 9.45q7.2 5.9 16.5 5.75q16.25 -0.3 26.6 -13.1q0.1 10.65 5.05 18q5.5 -35.3 1.4 -70.85q-7.75 25.35 -32.45 16.8q-12.4 -4.4 -17.15 -17.1q-3.95 -10.45 -5.3 -21.6q-1.05 -8.95 -1.7 -17.65q-0.6 -17.6 -0.25 -35.1q0.8 -43.4 5.45 -86.6q1.9 -17.55 9.55 -33.4q15.7 -32.7 40.1 -17.75q1.05 0.8 2.05 -0.2q1.25 -22.2 -21 -24.15q-16.5 14.25 -21.45 35.55q-4.4 18.9 -4.6 38.3q-0.25 22.7 16.2 37.35q18.85 16.75 35.55 -2.85q7.15 -8.45 1.95 -18.35q-27.45 7.1 -34.3 -24.5q-3.8 -17.45 -1.5 -35.2q1.6 -12.1 6.85 -22.95q8.5 -17.5 28.15 -17.65q-10.45 -24.7 -32 -6.1q-0.85 18.4 -2.8 36.65q-2.05 18.7 -1.1 37.55q0.55 10.85 2.15 21.55q4.05 -5.45 4.5 -12.35q1.55 -25.2 2.1 -50.85q1.25 25.4 -2.95 50.15q-0.8 4.55 -0.05 9.1q0.9 5.6 4.15 10.2q4.3 -5.35 4.25 -12.25q-0.35 -30.25 2.55 -59.75q0.3 -3.25 0.05 -6.55q-2.15 -25.6 -0.6 -51.45q-7.3 23.1 -6.75 48.95q-3.65 17.1 -4.5 34.5q-3.45 9.05 -3.15 21q0.95 35 -2.7 69.6q-3.3 30.8 0.6 59.15q8.35 1.5 16.1 -1.6q11 -4.4 16 -14.95q22.25 -46.85 7.1 -97.65q-7.1 -23.95 -28.7 -30.8q-5.7 10.1 -7.1 24q-6 58.2 -13.15 116.3q-7.45 59.15 -18.6 117.65q-2.85 14.9 -7.05 29.4q-4.75 16.4 0.95 29.5q0.9 -0.6 1.1 -1.4q11.75 -47.35 18.5 -95.9q8.15 -58.4 15.8 -116.9q7 -1.7 13.7 -0.05q8.95 -2.9 18.2 -3.65q5.1 49.9 8.65 100.1q4.2 59.1 9.9 117.9q1.7 17.1 10 28.1q1.4 -1.15 1.25 -2.95q-3.15 -36.6 -7.3 -73.6q-6.65 -58.7 -11.6 -117.7q-5 -58.95 -11.65 -117.7q-5.75 -50.3 -10.6 -100.3q0.35 -10 -0.35 -19.7q7.3 0 11.45 5.2q32.75 40.85 18.05 93.45q-9.3 23.5 -35.55 25.9q4.9 -37.4 7.1 -76.3q1.4 -24.75 -1.95 -48.3q-6.2 0.6 -11.4 3.95q-0.75 0.1 -0.85 0.45q-1 2.9 -0.85 6q0.05 0.95 0.35 1.7q-4.35 18.9 -5.7 38.75q-4.05 58.9 -5.7 118.55q-1.65 59.45 -2.75 119.25q-1.1 59.55 -4.7 118.45q-1 16.75 5.15 28.2q0.75 2 2.2 3.8q17.3 1.8 31.45 -7.5q10.6 -7 17 -18q22.05 -37.9 26.5 -82.4q6.05 -59.9 -6.85 -117.8q-6.8 -30.55 -26.65 -52.2q32.1 -38.1 22.75 -88.85q-3.4 -18.3 -7.15 -36.45q-5.85 -28.3 -30.6 -37.65q5.95 1.2 9.75 6.45q12.9 17.2 17.2 38.45q3.9 19.5 3.3 39.3q-0.65 21.85 -10.65 41.1q-10.4 20.1 -32.6 25.3q-5 1.3 -10.15 1.65q6.45 -5.4 14.65 -3.6q5.95 1.55 9 7.15q29 53.65 26.8 116.2q-1.05 30 -5 59.5q-5.85 43.85 -41.65 67.95q-11.7 4.2 -23.85 5.15q0.05 -5.15 -1.15 -10.4q2.9 -57.05 4.05 -114.75q1.15 -59.65 2.85 -119.2q16.65 1 28.85 -9.1q-4.7 -27.65 -29.3 -22.35q-17.15 60.65 -11 124.55q0.2 2.2 1.25 4.4q4.5 32.1 20.95 59.9q-2.85 -31.6 -17.05 -61.35q16.95 -14.65 13.1 -37.55q-3.55 19.05 -23.85 14.95q1.2 -20.5 1.45 -40.35q16.4 -6.6 21.4 9.35q2.5 8.05 0.95 16q19.4 2.4 38.75 0.6q-3.45 18.85 -2.45 40.7q1.1 24.5 -1.65 48.6q-1.85 16.7 3.1 29.35q1.9 -2.2 2.15 -5.25q4.05 -56.8 0.2 -113.5q13.95 -1.45 27.9 -5q2.45 -5.5 -0.7 -10.5q-33.95 5.3 -67.5 7.5q-1.25 3.75 0.15 7.45<g id="269" transform="matrix(1, 0, 0, 1, -36.15, 0)">
<path style="fill:#000000;fill-opacity:1" d="M436,91.7L435.7 92.5Q432.15 91.9 430.6 87.6Q429.15 83.55 424.95 81.75L415.95 81.75Q379.55 98.55 378.25 140.5L377.55 169.75L377.05 205.5Q390.45 203.3 404.45 203.75Q409.05 209.95 405.3 217.15L404.7 218L376.95 217.05Q376.55 252.7 376.6 288.25Q376.65 315.65 395.15 334.25Q400.4 339.55 408.65 337.35Q424.65 333.05 427.45 317.5L428.05 316.65L429.25 314.75L429.95 314Q438.75 324.15 429.8 338.85Q424.45 347.7 414.95 352.2Q384.5 358.15 376.85 328Q368.3 294.25 369.4 258.95Q370.85 214.3 371.05 169.75Q371.3 125.45 390.9 87.25Q392.5 84.1 394.85 81.35Q403.75 70.9 416.95 68.75Q438.2 70.25 436 91.7M334.95,60.35Q357.2 62.3 355.95 84.5Q354.95 85.5 353.9 84.7L348.5 81.2Q324.1 66.25 308.4 98.95Q300.75 114.8 298.85 132.35Q294.2 175.55 293.4 218.95Q293.05 236.45 293.65 254.05L294.3 265.95Q294.95 274.65 296 283.6Q297.35 294.75 301.3 305.2Q306.05 317.9 318.45 322.3Q343.15 330.85 350.9 305.5L350.45 304L353.25 300.95L354.2 289.25L335.25 286.15L334.7 278.75L357.45 275.5Q361.55 311.05 356.05 346.35Q351.1 339 351 328.35Q340.65 341.15 324.4 341.45Q315.1 341.6 307.9 335.7Q303 331.65 299.55 326.25Q297 322.25 295.35 317.5L293.05 310.45Q290.85 303.3 289.5 296.05Q286.4 279.35 286.5 262.3Q286.85 201 289.95 140Q292.55 89.1 331.95 60.25L334.95 60.35M361.3,372.3L360.15 376.05L355.45 371.7L344.9 370.9Q325.25 371.05 316.75 388.55Q311.5 399.4 309.9 411.5Q307.6 429.25 311.4 446.7Q318.25 478.3 345.7 471.2L356.95 456.2Q362.15 466.1 355 474.55Q338.3 494.15 319.45 477.4Q303 462.75 303.25 440.05Q303.45 420.65 307.85 401.75Q312.8 380.45 329.3 366.2Q350.85 347.6 361.3 372.3M382.2,357.95L382.8 413.1L419.45 410.9Q418.9 385.05 426.2 361.95Q424.65 387.8 426.8 413.4Q427.05 416.7 426.75 419.95Q423.85 449.45 424.2 479.7Q424.25 486.6 419.95 491.95Q416.7 487.35 415.8 481.75Q415.05 477.2 415.85 472.65Q420.05 447.9 418.8 422.5L382.55 425Q382 450.65 380.45 475.85Q380 482.75 375.95 488.2Q374.35 477.5 373.8 466.65Q372.85 447.8 374.9 429.1Q376.85 410.85 377.7 392.45Q378.55 375.05 382.2 357.95M273.65,92.8Q288.8 143.6 266.55 190.45Q261.55 201 250.55 205.4Q242.8 208.5 234.45 207L233.5 205.9L232.95 209.75Q229.05 181.4 232.35 150.6Q236 116 235.05 81Q234.75 69.05 238.2 60L238.65 62.45L240.95 62.05L244.95 62Q266.55 68.85 273.65 92.8M189.8,75.45Q194.65 125.45 200.4 175.75Q207.05 234.5 212.05 293.45Q217 352.45 223.65 411.15Q227.8 448.15 230.95 484.75Q231.1 486.55 229.7 487.7Q221.4 476.7 219.7 459.6Q214 400.8 209.8 341.7Q206.25 291.5 201.15 241.6Q191.9 242.35 182.95 245.25Q176.25 243.6 169.25 245.3L165.35 275.5Q157.7 334 149.55 392.4Q142.8 440.95 131.05 488.3Q130.85 489.1 129.95 489.7Q124.25 476.6 129 460.2Q133.2 445.7 136.05 430.8Q147.2 372.3 154.65 313.15L169.2 196.05Q176.35 137.95 182.35 79.75Q183.75 65.85 189.45 55.75Q190.15 65.45 189.8 75.45M240.05,71.05Q243.4 94.6 242 119.35Q239.8 158.25 234.9 195.65Q261.15 193.25 270.45 169.75Q285.15 117.15 252.4 76.3Q248.25 71.1 240.95 71.1L240.05 71.05M71,50.25Q95.75 59.6 101.6 87.9Q105.35 106.05 108.75 124.35Q118.1 175.1 86 213.2L85.95 213.3Q105.8 234.95 112.6 265.5Q125.5 323.4 119.45 383.3Q115 427.8 92.95 465.7Q86.55 476.7 75.95 483.7Q61.8 493 44.5 491.2Q43.05 489.4 42.3 487.4Q36.15 475.95 37.15 459.2Q40.75 400.3 41.85 340.75Q42.95 280.95 44.6 221.5Q46.25 161.85 50.3 102.95Q51.65 83.1 56 64.2Q55.7 63.45 55.65 62.5Q55.5 59.4 56.5 56.5L58.25 55.15L58.65 53.7Q58.75 53.35 59.5 53.25L59.55 54.3Q64.75 50.95 70.95 50.35L71 50.25M59.95,66.25L51.45 214.9Q56.6 214.55 61.6 213.25Q83.8 208.05 94.2 187.95Q104.2 168.7 104.85 146.85Q105.45 127.05 101.55 107.55Q97.25 86.3 84.35 69.1Q80.55 63.85 74.6 62.65Q66.4 60.85 59.95 66.25M51,228.5L50.9 231Q49.2 290.55 48.05 350.2Q46.9 407.9 44 464.95Q45.2 470.2 45.15 475.35Q57.3 474.4 69 470.2Q104.8 446.1 110.65 402.25Q114.6 372.75 115.65 342.75Q117.85 280.2 88.85 226.55Q85.8 220.95 79.85 219.4Q67.65 229.5 51 228.5M251.65,288.35Q265.85 318.1 268.7 349.7Q252.25 321.9 247.75 289.8L233.2 289.8L225.7 353.7Q224.65 351.5 224.45 349.3Q218.3 285.4 235.45 224.75L235.45 228.45Q260.05 223.15 264.75 250.8Q268.6 273.7 251.65 288.35M256.85,247.6Q251.85 231.65 235.45 238.25L235.4 238.2Q235.15 258.05 233.95 278.55Q254.25 282.65 257.8 263.6Q259.35 255.65 256.85 247.6M199.8,228.9L186.95 103.5L170.65 234.15L199.8 228.9M229.55,360.5L229.95 359.7Q263.5 357.5 297.45 352.2Q300.6 357.2 298.15 362.7L297.7 363.45Q283.75 367 269.8 368.45Q273.65 425.15 269.6 481.95Q269.35 485 267.45 487.2Q262.5 474.55 264.35 457.85Q267.1 433.75 266 409.25Q265 387.4 268.45 368.55Q249.1 370.35 229.7 367.95Q228.3 364.25 229.55 360.5" />
</g>
</svg>
