<?xml version="1.0" encoding="utf-8"?>
<svg version="1.1" id="Layer_1"
xmlns="http://www.w3.org/2000/svg"
xmlns:xlink="http://www.w3.org/1999/xlink"


xml:space="preserve">
q19.8 6.25 41.75 6.15q14.85 1 29.7 3.45q-36.55 82.85 -67.6 167.9q-10.05 27.55 -21.5 54.5q-6.7 15.8 -9.05 32.7q-0.9 6.45 0.45 12.9q52.9 7.2 106.75 4q2.3 -3.55 2.15 -7.75q-28.15 -3.6 -57.7 -1.15q13.3 -29 22.95 -59.4q4.5 -14.1 9.9 -27.85q32.3 -82.25 62.45 -165.35q2.6 -7.1 4.65 -14.35q-5.75 33.6 -6.75 68.35q-1.7 59.15 -8.35 117.75q-3.35 29.45 -6.4 59q-1.7 16.45 3.95 29.95q0.9 -0.6 0.95 -1.3q4.85 -45.9 8.3 -92.1q4.45 -59.85 6.3 -118.35q-2.45 0.1 -2.95 2.9q9.1 20.25 5 42.25q-4.35 23.2 -24.5 34.65q-8.95 5 -19.1 6.3q5.8 -54.4 1.3 -109.1q17.15 0.55 28.7 12.95q5.4 5.7 8.6 12.95q-0.6 2.2 -0.6 4.5q-0.05 1.55 0.7 2.95q-3.55 45.35 -6.15 92.45q-3.25 59.05 -3.65 118.55q-0.2 29.95 -5.6 58.9q-1.55 4.05 -1.1 8.3q0.25 2.6 1.9 4.45q1.4 3.65 4.35 6.2q39.15 0.95 66.65 -27.1q3.6 -3.75 5.6 -8.1q25.7 -56.7 3.05 -114.1q-9.4 -23.75 -30.8 -32.2q7.05 -8.45 11.2 -20.7q7.9 -23.35 2.9 -47.6q-7.85 -38.1 -44.9 -47.2q-1.25 -0.05 -2.35 0.65q21.1 7.2 31.4 29.3q22.65 48.55 1.15 98q-8.7 11.6 -21.4 17.95q-22.3 11.15 -46.4 14.6q4.35 -33.75 4.35 -68.5q-0.05 -40.3 2.15 -80.35q17.15 -1.85 28.75 -11<g id="285" transform="matrix(1, 0, 0, 1, -85.15, 0)">
<path style="fill:#000000;fill-opacity:1" d="M351.45,122.5Q349.4 129.75 346.8 136.85Q316.65 219.95 284.35 302.2Q278.95 315.95 274.45 330.05Q264.8 360.45 251.5 389.45L295.05 386.25Q324.6 383.8 352.75 387.4L354.35 389.65L354.8 390.55L355.05 391.45L355.25 392.45L355.3 393.45L355.35 394.7Q355.5 398.9 353.2 402.45Q299.35 405.65 246.45 398.45Q245.1 392 246 385.55Q248.35 368.65 255.05 352.85Q266.5 325.9 276.55 298.35Q307.6 213.3 344.15 130.45Q329.3 128 314.45 127L302.2 126.65Q280.25 126.75 260.45 120.5L261.25 112.3L262 111.9L348.2 117.5L349.75 121.5L351.45 122.5M231.45,116.5Q229.6 175 225.15 234.85L220.2 301.05Q216.75 347.25 211.9 393.15Q211.85 393.85 210.95 394.45Q205.3 380.95 207 364.5Q210.05 334.95 213.4 305.5Q220.05 246.9 221.75 187.75Q222.75 153 228.5 119.4Q229 116.6 231.45 116.5M132.65,125Q121.1 112.6 103.95 112.05Q108.45 166.75 102.65 221.15Q112.8 219.85 121.75 214.85Q141.9 203.4 146.25 180.2Q150.35 158.2 141.25 137.95Q138.05 130.7 132.65 125M102.3,102.35L104.6 101Q105.7 100.3 106.95 100.35L106.95 100.25Q144 109.35 151.85 147.45Q156.85 171.7 148.95 195.05Q144.8 207.3 137.75 215.75Q159.15 224.2 168.55 247.95Q191.2 305.35 165.5 362.05Q163.5 366.4 159.9 370.15Q132.4 398.2 93.25 397.25L92.25 403.2Q89.3 400.65 87.9 397L87.5 396.95Q85.85 395.1 85.6 392.5Q85.15 388.25 86.7 384.2L86.85 383.95L87.15 381.9Q92.55 352.95 92.75 323Q93.15 263.5 96.4 204.45Q99 157.35 102.55 112L102.45 112L101.55 110.45Q100.8 109.05 100.85 107.5Q100.85 105.2 101.45 103L102.3 102.35M101.9,233.65Q99.7 273.7 99.75 314Q99.75 348.75 95.4 382.5Q119.5 379.05 141.8 367.9Q154.5 361.55 163.2 349.95Q184.7 300.5 162.05 251.95Q151.75 229.85 130.65 222.65Q119.05 231.8 101.9 233.65" />
</g>
</svg>
