<?xml version="1.0" encoding="utf-8"?>
<svg version="1.1" id="Layer_1"
xmlns="http://www.w3.org/2000/svg"
xmlns:xlink="http://www.w3.org/1999/xlink"


xml:space="preserve">
q9.2 40.05 -13.65 72.2q-7 9.85 -18.65 12.6q-11.9 2.75 -22.45 6.9q1.05 -20.75 2.85 -41.5q5.05 -56.35 0.1 -111.95q30.1 1.95 40.9 29.4q6.2 15.75 10 32.15q9.55 -12.6 12.5 -28q8.05 -42.65 -2.7 -84.85q-10.15 -39.65 -50.7 -40.55q-1 0.05 -1.8 1.15q-1 1.2 -1.05 2.85q-0.1 1.95 0.6 3.75q-1.65 40.8 -4.25 82.65q-3.7 59.45 -4.8 119.3q-1.05 59.6 -6.4 118.45q-0.7 7.4 -1.95 14.75q-2.85 16.9 3.1 29.5q15.1 14.95 38.2 3.85q38 -18.25 42.85 -61.6q6.6 -59.6 -4.5 -117.8q-4.4 -23.1 -22.6 -34.55q20.95 55.9 11.85 116.45q-2.35 15.5 -10.2 29.05q-21.55 37.1 -63.8 27.85q4.6 -27.5 5.3 -56.5q1.55 -59.45 3.45 -119.2q22.2 0.95 37.45 -12.65q10.95 7.4 15.75 20.1q-3.7 33.2 -3.5 66.7q0.3 59.45 -2.8 118.5q-1.55 29.55 -3.7 59.1q-4.35 59.15 -5 118.6q0.65 2.5 3.25 2.5q3.75 -4.2 3.8 -10.25q0.8 -59.45 4.1 -118.5q3.3 -59.3 5.3 -118.5q2.05 -59.9 -0.7 -118.45q-0.75 0.1 -0.75 0.3q-16.4 37.05 -58.05 44.3q-4.8 0.35 -9.3 1.35q1.1 -24.2 2.45 -48.35q3.2 -55.55 1 -109.9q15.15 0.9 27.3 9.6q45.65 32.8 40.1 89.45q-0.7 7.15 -3.5 13.55q-0.65 2.2 -0.6 4.5q0 1.65 0.8 3q-4.15 52.4 -6.15 105.65q-1.15 3.25 -1 6.75q0.1 2.4 1.4 4.5q-2.05 59.7 -6.1 119.2q-1.2 17.4 5.1 29.05q30.55 6.85 57.6 -10.1q9.6 -6 15.8 -15.65q32.65 -51.05 24 -113.15q-1.05 -7.55 -1.8 -15.15q-3.85 -39.55 -34 -63q4.4 -4.45 7.9 -9.85q23.95 -36.8 13.7 -81.25q-11.6 -50.35 -59.55 -68.5q-8.15 -0.5 -15.25 1.5q28.15 11.15 35.3 42q4.95 21.3 6 43.25q1.1 22.15 -2.85 44.1q-2.3 12.6 -7.85 24.2q-9.65 20.1 -29.7 29.35q-23.7 10.9 -50.15 11.7q18.25 -1.95 35.05 -9.25<g id="276" transform="matrix(1, 0, 0, 1, -80.45, 0)">
<path style="fill:#000000;fill-opacity:1" d="M342.9,113.75Q332.1 86.3 302 84.35L301.1 84.15Q306.05 139.75 301 196.1Q299.2 216.85 298.15 237.6Q308.7 233.45 320.6 230.7Q332.25 227.95 339.25 218.1Q362.1 185.95 352.9 145.9Q349.1 129.5 342.9 113.75M340.65,231.7Q358.85 243.15 363.25 266.25Q374.35 324.45 367.75 384.05Q362.9 427.4 324.9 445.65Q301.8 456.75 286.7 441.8L285.45 447.95Q279.5 435.35 282.35 418.45Q283.6 411.1 284.3 403.7Q289.65 344.85 290.7 285.25Q291.8 225.4 295.5 165.95Q298.1 124.1 299.75 83.3L299.7 83.25Q299 81.45 299.1 79.5Q299.15 77.85 300.15 76.65Q300.95 75.55 301.95 75.5Q342.5 76.4 352.65 116.05Q363.4 158.25 355.35 200.9Q352.4 216.3 342.85 228.9L340.65 231.7M335.05,237.5Q319.8 251.1 297.6 250.15L297.4 255.25Q295.5 315 293.95 374.45Q293.25 403.45 288.65 430.95Q330.9 440.2 352.45 403.1Q360.3 389.55 362.65 374.05Q371.75 313.5 350.8 257.6Q346 244.9 335.05 237.5M240.45,78.5Q243.2 137.05 241.15 196.95Q239.15 256.15 235.85 315.45Q232.55 374.5 231.75 433.95Q231.7 440 227.95 444.2Q225.35 444.2 224.7 441.7Q225.35 382.25 229.7 323.1Q231.85 293.55 233.4 264Q236.5 204.95 236.2 145.5Q236 112 239.7 78.8Q239.7 78.6 240.45 78.5M167.25,179.9Q172.8 123.25 127.15 90.45Q115 81.75 99.85 80.85Q102.05 135.2 98.85 190.75Q97.5 214.9 96.4 239.1Q100.9 238.1 105.7 237.75Q147.35 230.5 163.75 193.45Q166.55 187.05 167.25 179.9M96.7,72.5Q103.8 70.5 111.95 71Q159.9 89.15 171.5 139.5Q181.75 183.95 157.8 220.75Q154.3 226.15 149.9 230.6Q180.05 254.05 183.9 293.6Q184.65 301.2 185.7 308.75Q194.35 370.85 161.7 421.9Q155.5 431.55 145.9 437.55Q118.85 454.5 88.3 447.65L86.75 453.2Q80.45 441.55 81.65 424.15Q85.7 364.65 87.75 304.95L89.55 253L89.5 253Q88.2 250.9 88.1 248.5Q87.95 245 89.1 241.75L89.5 241L89.95 240.85L91.9 186.45Q93.9 133.2 98.05 80.8L96.7 80.75Q95.9 79.4 95.9 77.75Q95.85 75.45 96.5 73.25L96.7 72.5M130.85,243.3Q114.05 250.6 95.8 252.55L90.45 433.3Q116.9 432.5 140.6 421.6Q160.65 412.35 170.3 392.25Q175.85 380.65 178.15 368.05Q182.1 346.1 181 323.95Q179.95 302 175 280.7Q167.85 249.85 139.7 238.7L130.85 243.3" />
</g>
</svg>
