<?xml version="1.0" encoding="utf-8"?>
<svg version="1.1" id="Layer_1"
xmlns="http://www.w3.org/2000/svg"
xmlns:xlink="http://www.w3.org/1999/xlink"


xml:space="preserve">
q-25.85 0.7 -50.5 6q-1.2 3.65 -0.45 7.45q-0.65 15.1 -3.45 29.7q-3.2 16.85 2.6 29.5q4.2 -7.15 4.55 -15.65q1 -23.55 2.35 -47.3q3.1 -56.05 1.1 -111.3q22.1 -0.4 44.25 0.05q3.35 -5.25 1.15 -11.25q-18.9 1.7 -35.95 8.75q-1.1 -32.45 -4.7 -64.6q-0.5 0.1 -0.5 0.25q-2.55 47.55 -1.45 95.95q0.55 22.65 -3.45 44.7q-2.45 13.7 3.9 21.8q0.9 -0.75 1.1 -1.65q4.5 -20.75 5.15 -42.6q0.7 -22.95 0.2 -45.75q17.9 -1.05 35.95 -3.5q1.25 0 1.5 -0.45q5.45 -11.9 4.75 -25.8q-1.85 -37.2 -1.5 -74.3q0.15 -13.8 0.6 -27.55q1 -30.45 -0.85 -59.25q-7.25 33.9 -6.55 71.25q-10.75 -7.45 -22.2 -3.65q-7 91.6 -7.85 183.2q0 1.2 0.45 2.4q23.5 11.85 45.75 -8.2q5.35 -8.85 7.25 -19.05q6.3 -33.75 -18.05 -57.35q25 -42.6 -5.5 -81.4q11.25 1.8 21.25 -3.05q20.25 11.35 23.6 35.25q2.7 19.2 -11 32.95q-16.95 16.85 -40.7 10.75q4.85 -37 4.6 -74.7q1.65 3.65 -1.8 5.8q7.3 -6.3 6.35 -16.9q-0.4 -4.6 -3.1 -7.4q-13.75 9.7 -3.55 24.15q-9.35 19.6 -31.95 16.55q21.25 0.05 32.45 17.05q10 20.25 0.4 40.4q4.65 -35.2 2.05 -69.75q-6.3 24.35 -7.7 51.65q-0.65 11.9 1.15 23.9q2.7 17.9 19.3 9.2q14.9 -8.4 8.5 -23.75q-4.1 2.25 -5.75 7.5q-8.9 8.15 -17.75 2<g id="281" transform="matrix(1, 0, 0, 1, -137.15, 0)">
<path style="fill:#000000;fill-opacity:1" d="M347.2,182.95L375.95 183L377.4 184.5L377.85 185.25Q380.05 191.25 376.7 196.5Q354.55 196.05 332.45 196.45Q334.45 251.7 331.35 307.75Q330 331.5 329 355.05Q328.65 363.55 324.45 370.7Q318.65 358.05 321.85 341.2Q324.65 326.6 325.3 311.5L329.9 196.5L285.45 198.25L284.6 197.4L284.2 196.75L284 195.95Q283.25 192.15 284.45 188.5Q309.1 183.2 334.95 182.5L347.2 182.95M412.65,253.25Q411.95 215.9 419.2 182Q421.05 210.8 420.05 241.25Q419.6 255 419.45 268.8L419.45 271.15Q419.1 308.25 420.95 345.45Q421.65 359.35 416.2 371.25Q415.95 371.7 414.7 371.7L413.1 277.45Q395.05 279.9 377.15 280.95Q377.65 303.75 376.95 326.7Q376.3 348.55 371.8 369.3Q371.6 370.2 370.7 370.95Q364.35 362.85 366.8 349.15Q370.8 327.1 370.25 304.45Q369.15 256.05 371.7 208.5Q371.7 208.35 372.2 208.25Q375.8 240.4 376.9 272.85Q393.95 265.8 412.85 264.1L412.65 253.25M172.5,185.5Q203 224.3 178 266.9L183.05 271.3Q207.4 294.9 201.1 328.65Q199.2 338.85 193.85 347.7L190.9 352.4L189.3 354.6L187.6 356.65L185.75 358.45Q163.5 378.5 140 366.65L138.5 368.7L137.6 366.35Q137.15 365.15 137.15 363.95Q138 272.35 145 180.75L146.2 180.25Q157.65 176.45 168.4 183.9L172.5 185.5M143,352.2Q166.75 358.3 183.7 341.45Q197.4 327.7 194.7 308.5Q191.35 284.6 171.1 273.25L168.85 274.45Q158.85 279.3 147.6 277.5Q147.85 315.2 143 352.2M263.45,251.7L261.95 257L262.9 256.55Q266.35 254.4 264.7 250.75L263.45 251.7M262.6,266.25Q252.4 251.8 266.15 242.1Q268.85 244.9 269.25 249.5Q270.2 260.1 262.9 266.4L262.6 266.25M179.25,206.1Q168.05 189.1 146.8 189.05L147.7 263.05Q170.3 266.1 179.65 246.5Q189.25 226.35 179.25 206.1M257.95,349.45Q266.8 355.6 275.7 347.45Q277.35 342.2 281.45 339.95Q287.85 355.3 272.95 363.7Q256.35 372.4 253.65 354.5Q251.85 342.5 252.5 330.6Q253.9 303.3 260.2 278.95Q262.8 313.5 258.15 348.7L257.95 349.45" />
</g>
</svg>
