<?xml version="1.0" encoding="utf-8"?>
<svg version="1.1" id="Layer_1"
xmlns="http://www.w3.org/2000/svg"
xmlns:xlink="http://www.w3.org/1999/xlink"


xml:space="preserve">
q-1.5 21.8 -4.8 43.35q-3.25 21.25 12.9 29.2q20.95 -8.1 18.25 -26.25q-10.95 8.4 -22.75 10.25q-2.45 -8.6 -1.05 -18q3.9 -26.15 2.8 -51q-4.85 4.6 -5.35 12.45q7.15 -6.35 3.4 -15.95q-0.8 -2.1 -2 -4.05q-5.6 10.45 -1.65 19.95q-4 22.5 -5.15 47.5q-1.05 2.5 -1.05 5.25q-0.05 2.3 1 4.35q-2.4 38.1 -5.9 76q-1.3 13.8 4.85 21.65q0.6 0.9 1.55 1.55q28.45 7.25 53.45 -8.75q13.55 -3.1 19.9 -14.5q10.75 -19.2 8.9 -42.1q-2.7 -33.8 -31.5 -45q15.1 -13.55 12.1 -38q-4.8 -39.2 -45.35 -41.1q-3.85 1.85 -9 2.1q-0.65 0 -1.25 0.65q21.05 14.4 9.2 35.5q-11.25 20.15 -34.15 24.2q-6.8 1.35 -13.75 0.95q20.25 0.25 37.75 12.15q22.3 -5.8 36.5 15.85q12.6 19.3 3.4 40.65q-5.95 13.75 -19.75 20.75q-19.6 10.05 -41.65 9.2<g id="275" transform="matrix(1, 0, 0, 1, -155.6, 0)">
<path style="fill:#000000;fill-opacity:1" d="M338.2,278.2Q339.3 303.05 335.4 329.2Q334 338.6 336.45 347.2Q348.25 345.35 359.2 336.95Q361.9 355.1 340.95 363.2Q324.8 355.25 328.05 334Q331.35 312.45 332.85 290.65Q333.35 282.8 338.2 278.2M340.3,265.95Q336.35 256.45 341.95 246Q343.15 247.95 343.95 250.05Q347.7 259.65 340.55 266L340.3 265.95M170.75,179.75Q171.35 179.1 172 179.1Q177.15 178.85 181 177Q221.55 178.9 226.35 218.1Q229.35 242.55 214.25 256.1Q243.05 267.3 245.75 301.1Q247.6 324 236.85 343.2Q230.5 354.6 216.95 357.7Q191.95 373.7 163.5 366.45Q162.55 365.8 161.95 364.9L161.75 366.7Q155.6 358.85 156.9 345.05Q160.4 307.15 162.8 269.05L162.5 269L161.45 267.35Q160.4 265.3 160.45 263Q160.45 260.25 161.5 257.75L163.5 258L165.1 226.75Q166.25 201.75 170.25 179.25L170.3 181.1L170.75 179.75M170.5,185.7L169.55 258.5Q176.5 258.9 183.3 257.55Q206.2 253.5 217.45 233.35Q229.3 212.25 208.25 197.85Q190.75 185.95 170.5 185.7M169.1,269.95L163.2 352.3L173.5 353.2Q195.55 354.05 215.15 344Q228.95 337 234.9 323.25Q244.1 301.9 231.5 282.6Q217.3 260.95 195 266.75L169.1 269.95" />
</g>
</svg>
