<?xml version="1.0" encoding="utf-8"?>
<svg version="1.1" id="Layer_1"
xmlns="http://www.w3.org/2000/svg"
xmlns:xlink="http://www.w3.org/1999/xlink"


xml:space="preserve">
q-25.8 11.05 -28.6 40.2q-1.75 18.2 3.2 35.7q5.6 19.8 24.25 16.85q24.45 -3.45 22.65 -25.5q-17.7 21.6 -34.7 7.45q-6.6 -5.5 -8.1 -14.7q-2.75 -16.7 3.75 -32.1q7.95 -18.7 28.05 -14.65q-3.85 8.6 -4.05 18.1q-0.25 12 -2.35 23.6q-4.55 25.1 -0.45 48.55q-3.45 23.15 -1.45 44.9q3.4 -10.9 5.05 -22.8q3.8 -27.6 3.4 -55.75q-0.45 -1.95 -2 -3q-16.9 -0.3 -33.15 0.65q16.95 5.85 35 1q-0.85 -0.15 -0.9 0.3q-3.05 33.1 -3.7 67.2q-1.2 59.55 -4.9 118.45q0.25 1.75 2 2q2.45 -1.2 2.85 -4.2q13.25 17.15 39.2 9.85q22.3 -6.25 28.9 -28.2q12.8 -42.6 -18.3 -73.75q-1 -0.25 -1.9 -0.7q-2.85 -1.2 -5.75 -1.9q17.2 -19.7 12.75 -46.65q-5.8 -35.4 -41.55 -36.5q-1.3 0.1 -2.25 0.95q-12.05 21.5 -36.2 17.7q22.4 0.15 36.25 16.6q15.1 17.9 3.65 38.45q38.1 12.9 31.35 53.85q-3.55 21.55 -25.5 26.4q-19.85 4.3 -37 -6.8q13.3 2.75 25.15 -3.75<g id="293" transform="matrix(1, 0, 0, 1, -160, 0)">
<path style="fill:#000000;fill-opacity:1" d="M336.45,291.2L333.45 287.7Q313.35 283.65 305.4 302.35Q298.9 317.75 301.65 334.45Q303.15 343.65 309.75 349.15Q326.75 363.3 344.45 341.7Q346.25 363.75 321.8 367.2Q303.15 370.15 297.55 350.35Q292.6 332.85 294.35 314.65Q297.15 285.5 322.95 274.45L332.2 275.95L339.95 283.45L340.45 290.2L336.45 291.2M396.4,293.15Q396.8 321.3 393 348.9Q391.35 360.8 387.95 371.7L387.55 371.45Q385.55 349.7 389 326.55L368 327.65L361.35 369.45Q357.25 346 361.8 320.9Q363.9 309.3 364.15 297.3Q364.35 287.8 368.2 279.2L368.65 317.85L390.3 315.65L396.2 281.95L396.4 293.15M337.45,327.45Q319.4 332.3 302.45 326.45L302.45 318.95L303.3 318.35Q319.55 317.4 336.45 317.7Q338 318.75 338.45 320.7L338.6 322.5L338.05 325.85L337.45 327.45M169.75,180Q170.7 179.15 172 179.05L179 178.5Q214.75 179.6 220.55 215Q225 241.95 207.8 261.65Q210.7 262.35 213.55 263.55Q214.45 264 215.45 264.25Q246.55 295.4 233.75 338Q227.15 359.95 204.85 366.2Q178.9 373.5 165.65 356.35L164.85 362.5Q164.45 365.5 162 366.7Q160.25 366.45 160 364.7Q163.7 305.8 164.9 246.25Q165.55 212.15 168.6 179.05Q168.65 178.6 169.5 178.75L169.65 180.4L169.75 180M206.4,204.95Q192.55 188.5 170.15 188.35L172 260.75L173.85 261.1Q198 264.9 210.05 243.4Q221.5 222.85 206.4 204.95M171.7,274.7L167.15 343.5Q184.3 354.6 204.15 350.3Q226.1 345.45 229.65 323.9Q236.4 282.95 198.3 270.05L196.85 270.95Q185 277.45 171.7 274.7" />
</g>
</svg>
