<?xml version="1.0" encoding="utf-8"?>
<svg version="1.1" id="Layer_1"
xmlns="http://www.w3.org/2000/svg"
xmlns:xlink="http://www.w3.org/1999/xlink"


xml:space="preserve">
q-3.35 59.2 -5.95 118.55q-0.95 0.9 -1.6 2.15q-22.7 -1.8 -43.85 4.8q0.75 -29.95 2.55 -59.9q1.85 -30.35 0.85 -59.35q-6.7 19 -7.3 41.25q-1.75 59.7 -9.05 117.95q0.75 4.6 -0.35 9.1q-3.8 15.5 3.6 24.4q6.6 -36 8.6 -73.45q1.95 -37.5 3.25 -75q16.9 0.8 35 -1q2.85 -0.65 4.95 -1.55q-2.45 48.4 -6.1 96.6q-1.15 15.05 -4.5 29.65q-4.05 17.5 3.65 29.35q3.4 -4.95 4.1 -11.05q6.5 -58.8 7.85 -118.65q0.65 -29.65 2.65 -59.2q4.05 -59.3 3.9 -117.8q-4.2 3.95 -4.6 10.7q14.95 -34.3 51.35 -34.1q3 3.35 4.55 7.5q0.6 1.6 1.95 1q3.25 -20.5 -17.55 -21.5q-35.9 9.5 -46.85 44.05q-18 56.8 -20.1 116.9q-2.1 59.1 12.8 115.25q7 26.3 36.05 19.95q32.2 -7 28.6 -35.2q-18.35 22.05 -47.95 18.25q-4.7 -0.6 -6.4 -4.55q-16.15 -37.95 -17.65 -80.35q-2.1 -59.15 11.25 -116.45q3.6 -15.5 9.9 -30q12.6 -21.2 34.8 -14.55q12.25 3.6 19 14.8q-1.1 -18.15 -17.65 -28.05q-9.35 -5.65 -20.4 -5.75q-32.55 22.75 -42.6 63.7q-28.1 114.65 -8.45 231.15q3.1 18.45 19.2 24q12 4.25 24.4 -0.3q6.05 -2.3 11.95 -5.05q8.5 -3.95 16 -9.35q4 -2.95 7.2 -6.9q2.05 -2.5 3.4 -5.65q1.25 -2.9 1.65 -6q0.5 -4.35 -0.6 -8.6q-17.55 17.4 -40.25 26.4q-12.6 5.15 -26.25 3.85q-15.45 -20.3 -16.8 -47.5q-2.2 -44.95 1.6 -89.9q26.55 -6 53.45 -1.8q0.95 -1.6 1.25 -3.3q0.65 -3.35 -0.15 -6.5q-0.4 -1.7 -1.85 -2.95q-26.9 -6.85 -51.9 3.3q0.75 -59.85 25.75 -113.8q2.35 -5.1 4.95 -10.05q0.3 59.2 -5.4 117.75q-5.8 59.3 -12.2 118.4q-2.55 23.2 0.15 44.3q33.7 8.35 68 4.25q6.1 -8.8 -0.5 -17q-32.45 6.9 -62 -4q2.45 -56.6 8.7 -112.6q6.4 -59.4 1.35 -118.65q-4.65 11.35 -4.55 26.5q-0.9 1.35 -1.05 3q-0.3 3.2 1.2 5.9q-1.95 12.3 -1.65 26.65q1.3 59.55 -1.8 118.55q-3.2 59.75 -7.15 119.25q-0.95 14.9 -2.85 29.7q-1.85 14.55 5.65 20.95q0.9 1.3 2.35 2.35q37.2 -6.2 65.2 -31.05q6.35 -5.7 10.5 -13.15q29.8 -54 9.1 -113.45q-10.15 -29.1 -35.4 -39.8q3.75 -3.25 6.35 -7.2q24.65 -37.55 3.9 -78.9q-5.55 -11.1 -12.15 -21.45q-12.6 -19.7 -33.75 -22.45q-4.1 0 -8.5 1.15q-18.95 17.8 -43.3 23.6q3.5 -54.65 -1.25 -108.3q30.1 25.3 38.15 62.3q4.7 21.65 -11.05 36.45q32.65 17.4 40.05 54.7q11.75 58.85 -32.1 96.85q-26.3 13.1 -54.45 21q1.95 -18.35 1.55 -37.5q-0.6 -26.05 1.4 -51.8q2.95 -38 5.5 -75.95q16.8 -1.8 31.25 -10.5q3.2 1.25 6.25 2.9<g id="305" transform="matrix(1, 0, 0, 1, -61.25, 0)">
<path style="fill:#000000;fill-opacity:1" d="M505.2,109Q505.35 167.5 501.3 226.8Q499.3 256.35 498.65 286Q497.3 345.85 490.8 404.65Q490.1 410.75 486.7 415.7Q479 403.85 483.05 386.35Q486.4 371.75 487.55 356.7Q491.2 308.5 493.65 260.1Q491.55 261 488.7 261.65L483.55 262.5Q465.45 264.3 448.55 263.5Q447.25 301 445.3 338.5Q443.3 375.95 436.7 411.95Q429.3 403.05 433.1 387.55Q434.2 383.05 433.45 378.45Q440.75 320.2 442.5 260.5L445.9 142Q446.5 119.75 453.2 100.75Q454.2 129.75 452.35 160.1Q450.55 190.05 449.8 220L448.85 253.55Q470 246.95 492.7 248.75Q493.35 247.5 494.3 246.6L494.65 238.25Q497.25 178.9 500.6 119.7Q501 112.95 505.2 109M357.7,176.6Q344.35 233.9 346.45 293.05Q347.95 335.45 364.1 373.4Q365.8 377.35 370.5 377.95Q400.1 381.75 418.45 359.7Q422.05 387.9 389.85 394.9Q360.8 401.25 353.8 374.95Q338.9 318.8 341 259.7Q343.1 199.6 361.1 142.8Q372.05 108.25 407.95 98.75Q428.75 99.75 425.5 120.25L425.45 121Q424.1 121.6 423.5 120Q421.95 115.85 418.95 112.5Q382.55 112.3 367.6 146.6Q361.3 161.1 357.7 176.6M207.3,128.75Q182.3 182.7 181.55 242.55Q206.55 232.4 233.45 239.25Q234.9 240.5 235.3 242.2Q236.1 245.35 235.45 248.7Q235.15 250.4 234.2 252Q207.3 247.8 180.75 253.8Q176.95 298.75 179.15 343.7Q180.5 370.9 195.95 391.2Q209.6 392.5 222.2 387.35Q244.9 378.35 262.45 360.95L263.1 363.25Q264.2 367.5 263.7 371.85Q263.3 374.95 262.05 377.85Q260.7 381 258.65 383.5Q255.45 387.45 251.45 390.4Q243.95 395.8 235.45 399.75Q229.55 402.5 223.5 404.8Q211.1 409.35 199.1 405.1Q183 399.55 179.9 381.1Q160.25 264.6 188.35 149.95Q198.4 109 230.95 86.25Q242 86.35 251.35 92Q267.9 101.9 269 120.05L266.05 118.95Q259.3 107.75 247.05 104.15Q224.85 97.5 212.25 118.7Q209.65 123.65 207.3 128.75M297.45,92.5Q302.5 151.75 296.1 211.15L289.65 270.1Q283.4 326.1 280.95 382.7Q310.5 393.6 342.95 386.7Q349.55 394.9 343.45 403.7Q309.15 407.8 275.45 399.45Q272.75 378.35 275.3 355.15Q281.7 296.05 287.5 236.75Q293.2 178.2 292.9 119Q292.8 103.85 297.45 92.5M76.5,85.4Q80.9 84.25 85 84.25Q106.15 87 118.75 106.7Q125.35 117.05 130.9 128.15Q151.65 169.5 127 207.05Q124.4 211 120.65 214.25Q145.9 224.95 156.05 254.05Q176.75 313.5 146.95 367.5Q142.8 374.95 136.45 380.65Q108.45 405.5 71.25 411.7Q69.8 410.65 68.9 409.35L68.75 410.2Q61.25 403.8 63.1 389.25Q65 374.45 65.95 359.55Q69.9 300.05 73.1 240.3Q76.2 181.3 74.9 121.75Q74.6 107.4 76.55 95.1L76.15 94.65Q74.65 91.95 74.95 88.75Q75.1 87.1 76 85.75L76.5 85.4M134.1,159.3Q126.05 122.3 95.95 97L79.5 95.75Q84.25 149.4 80.75 204.05L79.75 219.35Q104.1 213.55 123.05 195.75Q138.8 180.95 134.1 159.3M110.75,221.25Q96.3 229.95 79.5 231.75L78.95 231.45Q76.4 269.4 73.45 307.4Q71.45 333.15 72.05 359.2Q72.45 378.35 70.5 396.7Q98.65 388.8 124.95 375.7Q168.8 337.7 157.05 278.85Q149.65 241.55 117 224.15Q113.95 222.5 110.75 221.25" />
</g>
</svg>
