<?xml version="1.0" encoding="utf-8"?>
<svg version="1.1" id="Layer_1"
xmlns="http://www.w3.org/2000/svg"
xmlns:xlink="http://www.w3.org/1999/xlink"


xml:space="preserve">
q17.5 2.6 35.4 3.6q-1.85 10.7 -1.5 21.9q1.6 59.8 -2.85 119.05q-1.3 16.75 3.7 29.4q4.25 -28.8 5 -59.25q1.4 -56.1 -1.8 -110.95q23.6 1.15 47.8 -0.5q2.4 -3.2 2.05 -7.25q-0.2 -1.15 -0.85 -2.2q-0.35 -0.4 -0.75 -0.4q-38.55 0.6 -76.5 -0.6q-2.5 -0.3 -4.05 1.35q-1.05 1.7 -1 3.75q5.15 -15.2 -0.1 -30.4q-4.55 13.3 -2.35 28.45q-1.45 17.5 -1.45 35.25q0 17.45 -2.25 35.05q-2.35 18.4 -23.05 10.45q-2.5 6.5 0.4 12.7q7.05 3.7 15.25 2.75q2.3 -1.55 4.75 -2.7q3.15 -1.5 4.35 -4.4q8.4 -19.6 7.85 -42.15q-0.6 -25.35 -2.7 -49.5q-1.5 0.45 -2.5 1.7q-16.25 -56.6 -30.1 -113.75q-6.5 -26.75 -16.5 -50.9q-4.05 10.65 -7.3 22.95q-14.9 57.1 -26.75 115q-1.55 7.6 -5 14.45q-8.4 16.65 -2.25 29.35q2.7 -4 4.15 -8.95q9.65 -31.95 17.3 -64.95q18.1 3 36.25 0.85q7.8 32 14.75 64.3q3.4 15.8 12.1 27.3q1.95 -1.8 2.2 -4.45q0.7 -6.8 -1.15 -13.2q-0.7 1.8 -0.8 3.75q-0.95 4.75 -0.8 10.3q1 33 0.75 65.8q-0.5 1.35 -0.65 2.9q-0.2 2.55 0.55 4.7q-0.3 22.6 -1.25 45.1q-0.45 11.35 -3.35 22.05q-4.35 16.2 0 30.15q2.75 -2.9 3.8 -6.95q3.85 1.4 7.8 3.05q4.1 1.7 7.9 3.9q24.1 0.05 42.55 -16.3q25.2 -22.25 17.4 -56.15q-6.55 -28.25 -32.35 -32.4q19.05 -21.9 8.15 -50.35q-11.75 -30.65 -44.2 -31.6q23.25 -8 39.05 10.95q16.7 20 3.8 39.95q-12.95 20.05 -36.6 19.35q16.15 1.3 28.55 -6.1q5.85 4.35 14.25 1.75q8.4 5.15 13.35 13.3q10.2 16.7 7.35 36.2q-6.8 15.4 -22.05 22.9q-23.7 11.6 -46.75 2.3q3.65 -25 4.25 -50.95<g id="323" transform="matrix(1, 0, 0, 1, -137.65, 0)">
<path style="fill:#000000;fill-opacity:1" d="M336.2,193.5L336.05 192.7L335.95 192L335.95 191.25L335.95 190.5Q335.9 188.45 336.95 186.75Q338.5 185.1 341 185.4L345.95 185.6L345.95 185.5Q383.9 186.7 422.45 186.1Q422.85 186.1 423.2 186.5Q423.85 187.55 424.05 188.7L424.2 189.5L424.4 190.25L424.5 191Q424.85 195.05 422.45 198.25Q398.25 199.9 374.65 198.75Q377.85 253.6 376.45 309.7Q375.7 340.15 371.45 368.95Q366.45 356.3 367.75 339.55Q372.2 280.3 370.6 220.5Q370.25 209.3 372.1 198.6Q354.2 197.6 336.7 195L336.2 193.5M413.85,252.45Q411.65 237.3 416.2 224Q421.45 239.2 416.3 254.4L414.15 253.25L413.85 252.45M415.95,271.25L416.2 271.2Q418.3 295.35 418.9 320.7Q419.45 343.25 411.05 362.85Q409.85 365.75 406.7 367.25Q404.25 368.4 401.95 369.95Q393.75 370.9 386.7 367.2Q383.8 361 386.3 354.5L386.7 353.7Q407.4 361.65 409.75 343.25Q412 325.65 412 308.2Q412 290.45 413.45 272.95Q414.45 271.7 415.95 271.25M331.65,365.25Q331.4 367.9 329.45 369.7Q320.75 358.2 317.35 342.4Q310.4 310.1 302.6 278.1Q284.45 280.25 266.35 277.25L262.4 294.55Q254.75 327.55 245.1 359.5Q243.65 364.45 240.95 368.45Q234.8 355.75 243.2 339.1Q246.65 332.25 248.2 324.65Q260.05 266.75 274.95 209.65Q278.2 197.35 282.25 186.7L281.95 182.75L282.9 185L285.2 179.5L283.9 187.4Q293.9 211.55 300.4 238.3Q314.25 295.45 330.5 352.05Q332.35 358.45 331.65 365.25M148.55,181.85L149.25 180.25L149.35 181.55L157 178Q189.45 178.95 201.2 209.6Q212.1 238.05 193.05 259.95L189.1 264.1Q214.9 268.25 221.45 296.5Q229.25 330.4 204.05 352.65Q185.6 369 161.5 368.95Q157.7 366.75 153.6 365.05Q149.65 363.4 145.8 362Q144.75 366.05 142 368.95Q137.65 355 142 338.8Q144.9 328.1 145.35 316.75Q146.3 294.25 146.6 271.65Q145.85 269.5 146.05 266.95Q146.2 265.4 146.7 264.05Q146.95 231.25 145.95 198.25Q145.8 192.7 146.75 187.95L146.7 186.25Q146.8 184.3 147.5 182.5L148.55 181.85M156.35,262.45Q180 263.15 192.95 243.1Q205.85 223.15 189.15 203.15Q173.35 184.2 150.1 192.2L152.5 262.25L156.35 262.45M147.9,349.65Q170.95 358.95 194.65 347.35Q209.9 339.85 216.7 324.45Q219.55 304.95 209.35 288.25Q204.4 280.1 196 274.95Q187.6 277.55 181.75 273.2L181.5 272.45L181.05 270.15Q168.65 277.55 152.5 276.25L152.15 298.7Q151.55 324.65 147.9 349.65M299.9,267.15L282.95 193.15L268.35 268.1L299.9 267.15" />
</g>
</svg>
