<?xml version="1.0" encoding="utf-8"?>
<svg version="1.1" id="Layer_1"
xmlns="http://www.w3.org/2000/svg"
xmlns:xlink="http://www.w3.org/1999/xlink"


xml:space="preserve">
q-9.15 0.85 -16 7.05q-6.3 5.75 -9.55 13.65q-22.75 55.95 -12 114.5q4.85 26.25 29.55 26.8q12.1 -8.6 22.05 -19.3q11.35 -12.15 2.45 -23.45q-4.6 4.75 -8.75 9.9q-7.6 9.45 -17 17.85q-14.7 -7.05 -16.95 -24.35q-2.35 -18.05 -1.05 -35.75q14.85 1.05 30 -0.75q4.05 -7.35 -0.65 -14.15q-14.95 -0.45 -28.95 3.25q3.45 -23.85 13.5 -47q9.15 -21.05 35.2 -15.25q3.1 -4.8 -0.6 -9.45q-46.7 25.95 -48.95 82.75q-0.85 21.45 4.5 42.35q2.1 8.2 6.15 15.85q9.85 18.5 26.8 30.8q20.35 -0.95 27.65 -18.6q2.6 -6.35 -0.15 -12.9q-10.05 14.3 -26.75 16q-32.45 -24.95 -31.15 -68.2q0.8 -26.65 14.45 -49.2q5.85 -9.75 13.85 -18.05q12.25 -12.65 27.5 -4.35q-4.35 -13.05 -18.15 -14.75q-29.55 21.55 -19.3 59.7q1.2 4.5 3.9 8q31.8 41.35 28.15 93.25q-0.35 5.25 -4.75 7.6q-20.5 11 -43.25 3.15q-2.45 4.05 -1.7 9q0.3 1.9 0.95 3.75q19.55 9.65 39.75 2.75q7.25 -2.55 9.4 -9.45q17.35 -55.4 -17.6 -101.2q-25.8 -33.85 1.45 -64.05q11.65 -1.7 21.25 1q0.95 -1.8 0.3 -3.75q-7.2 -6.35 -16.85 -5.15q-6.25 52.2 24.05 98.9q16.75 25.8 5.05 53.05q-2.8 6.45 -7.85 11.5q-14.5 1.45 -27 -5.75q-2.85 6.95 0.45 12.8q16.35 6.95 34.3 5.95q28.25 -35.25 8.85 -77.3q-14.5 -31.45 -25.2 -64.25q-3.8 -11.7 -4.4 -24.15q14.45 -14.55 32.95 -1.6q-10.1 -10 -24.25 -10.25q-0.2 0.35 -0.25 0.8q-9.25 57.65 -18.05 115.45q-5.35 35.3 -11.9 70.45q-12.05 58.2 -28.3 115.35q0.2 -2.45 -0.65 -4.55q-0.05 4.25 -1.4 7.7q-6.2 15.8 1.15 27.55q14.35 -44.4 23.55 -90.85q3.7 22.7 5.65 45.6q4.95 58.45 11.65 115.85q0.65 12.95 7.5 20q2.35 -2.9 1.95 -6.7q-4.6 -47.7 -11.35 -94.95q-8.35 -58.3 -17.85 -116.5q-9.6 -58.4 -20.7 -116.1q-2.65 1.25 -3.2 4.25q-0.75 2.1 -0.7 4.45q-0.55 1.75 -0.65 3.8q-1.7 34 -4.5 67.85q-2.8 2.7 -2.8 6.75q0 3.6 2.3 6q-0.8 7.5 -2.85 14.6q-4.05 13.65 2.7 21.95q0.9 -0.75 1.1 -1.65q5 -21.65 7.05 -44q1.4 -15.4 2.4 -30.75q3.35 -1.7 6.4 -3.75q0.25 14.3 6.3 28.9q7.25 17.4 10.9 35.75q2.85 14.2 10.85 22.75q1.8 -1.5 1.45 -3.7q-7.1 -44.8 -26.9 -85.6q16.7 -12.95 19.95 -37q4.55 -33.45 -25.25 -45.45q23.05 8.3 19.25 34.45q-2.9 20.2 -21.3 29.65q9.3 58 20.2 115.75q-27.25 -2.05 -53.4 3.7q10.95 -58.15 20.65 -116.55q3.2 -19.2 4.05 -37.85q2.75 22.9 6.45 45.8q-4.2 0.9 -7.85 3.55q-1.5 4.8 -0.45 9.8q-9.35 46.6 -7.3 95.2q2.45 59.45 2.2 119.25q-0.3 59.45 -6.1 119.05q-1.6 16.6 3.85 29.9q9.8 3.8 20.45 4.95q9.75 1 19.2 -2.1q50.65 -16.75 63.75 -68.45q15.1 -59.5 -8.15 -116.15q-12.95 -31.5 -42.6 -42.6q4.55 -5.15 8.55 -11.2q13.25 -20.15 13 -44.15q-0.6 -54.9 -39.5 -96q-6.8 -3.35 -14.45 -2.5q10.6 12.8 20.4 26.2q28.75 39.35 8.3 82q-17.55 36.65 -54.15 43.8q-0.4 -41.75 -2 -83.5q-0.55 -15.15 2.4 -29.7q3.75 -18.5 3 -35.85q9 -3.6 17.2 0.75q8.2 1.85 14.35 7.5q45.5 41.85 41.55 104q-1.95 31.2 -18.85 56.75q-29.9 45.2 -82.4 31.95q3.4 -20.9 3.85 -43.25q1.25 -59.15 1.4 -118.45q17 -4.7 30.25 -15.1q2.05 0.65 5.2 -0.45<g id="322" transform="matrix(1, 0, 0, 1, -60.55, 0)">
<path style="fill:#000000;fill-opacity:1" d="M440.95,82.15L444.45 82.5L446.6 85.05Q450.3 89.7 447.2 94.5Q421.15 88.7 412 109.75Q401.95 132.9 398.5 156.75Q412.5 153.05 427.45 153.5Q432.15 160.3 428.1 167.65L427.45 168.5Q412.3 170.3 397.45 169.25L397.2 168.9Q395.9 186.6 398.25 204.65Q400.5 221.95 415.2 229L421.7 228.75Q431.1 220.35 438.7 210.9Q442.85 205.75 447.45 201Q456.35 212.3 445 224.45Q435.05 235.15 422.95 243.75Q398.25 243.2 393.4 216.95Q382.65 158.4 405.4 102.45Q408.65 94.55 414.95 88.8Q421.8 82.6 430.95 81.75L440.95 82.15M350.8,75Q364.6 76.7 368.95 89.75L366.1 92.85L362.85 91.2Q347.6 82.9 335.35 95.55Q327.35 103.85 321.5 113.6Q307.85 136.15 307.05 162.8Q305.75 206.05 338.2 231Q354.9 229.3 364.95 215Q367.7 221.55 365.1 227.9Q357.8 245.55 337.45 246.5Q320.5 234.2 310.65 215.7Q306.6 208.05 304.5 199.85Q299.15 178.95 300 157.5Q302.25 100.7 348.95 74.75L350.8 75M440.8,270.65L441.95 271.5L442.2 272.25L442.95 274.45Q443.6 276.4 442.65 278.2L442.2 279Q432.6 276.3 420.95 278Q393.7 308.2 419.5 342.05Q454.45 387.85 437.1 443.25Q434.95 450.15 427.7 452.7Q407.5 459.6 387.95 449.95Q387.3 448.1 387 446.2Q386.25 441.25 388.7 437.2Q411.45 445.05 431.95 434.05Q436.35 431.7 436.7 426.45Q440.35 374.55 408.55 333.2Q405.85 329.7 404.65 325.2Q394.4 287.05 423.95 265.5Q433.6 264.3 440.8 270.65M351.95,259.5Q366.1 259.75 376.2 269.75L375.7 277.25L374.85 277.1Q356.35 264.15 341.9 278.7L340.2 281.75Q340.8 294.2 344.6 305.9Q355.3 338.7 369.8 370.15Q389.2 412.2 360.95 447.45Q343 448.45 326.65 441.5Q323.35 435.65 326.2 428.7L332.7 427.2Q345.2 434.4 359.7 432.95Q364.75 427.9 367.55 421.45Q379.25 394.2 362.5 368.4Q332.2 321.7 338.45 269.5L351.95 259.5M256.45,70.75Q267.55 128.45 277.15 186.85Q286.65 245.05 295 303.35Q301.75 350.6 306.35 398.3L310.9 444.25Q311.3 448.05 308.95 450.95Q302.1 443.9 301.45 430.95Q294.75 373.55 289.8 315.1Q287.85 292.2 284.15 269.5L283.7 270L225.8 272.2L208 364.1Q198.8 410.55 184.45 454.95Q177.1 443.2 183.3 427.4Q184.65 423.95 184.7 419.7L184.95 418.2Q185.8 420.3 185.6 422.75L185.7 423.2Q201.95 366.05 214 307.85L222.35 265.5L223.05 261.7Q229.6 226.55 234.95 191.25Q243.75 133.45 253 75.8Q253.05 75.35 253.25 75Q253.8 72 256.45 70.75M170.95,66.5Q200.75 78.5 196.2 111.95Q192.95 136 176.25 148.95Q196.05 189.75 203.15 234.55Q203.5 236.75 201.7 238.25Q193.7 229.7 190.85 215.5Q187.2 197.15 179.95 179.75Q173.9 165.15 173.65 150.85Q170.6 152.9 167.25 154.6Q166.25 169.95 164.85 185.35Q162.8 207.7 157.8 229.35Q157.6 230.25 156.7 231Q149.95 222.7 154 209.05Q156.05 201.95 156.85 194.45L160.5 157.65L159.45 158Q157.15 155.6 157.15 152Q157.15 147.95 159.95 145.25L161.6 144.6Q164.4 110.75 166.1 76.75Q166.2 74.7 166.75 72.95Q166.7 70.6 167.45 68.5L167.7 67.75L170.95 66.65L170.95 66.5M189.4,111.8Q193.2 85.65 170.15 77.35L168.1 141.45Q186.5 132 189.4 111.8M255,93.95Q254.15 112.6 250.95 131.8Q241.25 190.2 230.3 248.35L228.25 259.2Q254.4 253.45 281.65 255.5Q270.75 197.75 261.45 139.75Q257.75 116.85 255 93.95M101.45,69.25L102.45 69.75Q141.35 110.85 141.95 165.75Q142.2 189.75 128.95 209.9Q124.95 215.95 120.4 221.1Q150.05 232.2 163 263.7Q186.25 320.35 171.15 379.85Q158.05 431.55 107.4 448.3Q97.95 451.4 88.2 450.4Q77.55 449.25 67.75 445.45L67.05 444.4L66 448.95Q60.55 435.65 62.15 419.05Q67.95 359.45 68.25 300Q68.5 240.2 66.05 180.75Q64 132.15 73.35 85.55L73.05 84.55Q72 79.55 73.5 74.75L73.75 74L79.15 70.3Q82.8 67.65 87 66.75Q94.65 65.9 101.45 69.25M83,80.75L81.35 82.1L78.15 84.45Q78.9 101.8 75.15 120.3Q72.2 134.85 72.75 150Q74.35 191.75 74.75 233.5Q111.35 226.35 128.9 189.7Q149.35 147.05 120.6 107.7Q110.8 94.3 100.2 81.5Q92 77.15 83 80.75M109.75,231.2Q96.5 241.6 79.5 246.3L74.85 247.1L74.85 269.25Q74.7 328.55 73.45 387.7Q73 410.05 69.6 430.95Q122.1 444.2 152 399Q168.9 373.45 170.85 342.25Q174.8 280.1 129.3 238.25Q123.15 232.6 114.95 230.75Q111.8 231.85 109.75 231.2" />
</g>
</svg>
