<?xml version="1.0" encoding="utf-8"?>
<svg version="1.1" id="Layer_1"
xmlns="http://www.w3.org/2000/svg"
xmlns:xlink="http://www.w3.org/1999/xlink"


xml:space="preserve">
q-9.75 -2.9 -20.4 -2.8q-4.35 -0.05 -7.15 3.2q-22.1 25.65 -26.15 60.55q-3.3 28.45 -5.1 57.5q-2.95 48.15 -4.65 96.65q-1.7 48.6 4.45 95.95q0.65 5.1 4.4 8.25q19.35 16.25 34.8 -3.8q11.85 -15.35 17.45 -32.3q1.55 -0.05 2.2 -1.45q0.25 -1.4 -0.6 -2.45q-2.6 -2.45 -2.1 -7q2.7 -23.6 3.1 -47.65q0.4 -20.3 -6.7 -37.9q-11.45 -3.85 -23.6 -4.85q-0.95 -0.25 -1.55 0.5q0.65 0.65 1.35 0.85q13.55 4.15 27 8.75q2.15 8.6 2.05 17.75q-0.3 20.85 -0.15 41.45q-7.4 12.6 -14.05 25.85q-8.5 17.1 -26.4 16.75q-4.45 -0.05 -7.15 -3.15q-8.8 -10.1 -9.15 -24.05q-1.25 -48.2 0.75 -96.6q1.5 -36.15 2.6 -72.15q1.4 -47.95 14.55 -93.1q6.65 -22.7 29.35 -20.95q11.15 0.8 18.4 2.1q0.75 -2.5 -1.15 -4.3q-4.05 -16 -22.45 -12.05q-5.4 1.95 -10.15 5.5q-10.2 13.3 -15.75 29.4q-11.5 33.4 -11.55 69.05q-0.1 48.25 -1.4 96.6q-1.3 48.95 7.15 95.95q1.95 10.85 11.4 16.8q16 10.05 31.4 -2.45q22.2 -17.95 24.85 -47.1q-0.45 -1.1 -0.85 0.6q-6 19.3 -20.1 32.45q-13.75 12.8 -31 5.5q-3.8 -1.6 -5.2 -5.35q-12 -32.3 -11.5 -68.05q16.9 3 34.3 -3.5q0.45 -0.9 0.5 -1.85q0.05 -0.95 -0.25 -1.8q-14 3.6 -28.75 4q-2 -46.45 13.25 -89.85q11.25 -32.1 44.3 -30.45q0.7 1.85 2.5 2.8q-17.85 18.2 -23.4 43.95q-7.9 36.9 -10.8 74.75q-3.7 48.35 -2.7 96.65q1.05 49.1 13.8 95.35q3.65 13.15 16.55 16q18.65 4.1 29.45 -10.7q17.7 -24.3 23.45 -53.55q-7.9 8.4 -12.2 22.65q-5.4 17.7 -19.4 29.35q-18.45 9.95 -31.35 -3.5q-7 -16.2 -9.3 -33.65q-6.25 -47.55 -5.9 -95.95q0.15 -18.25 0.95 -36.35q20.05 -3.5 40.7 -4.65q6.5 -3.2 4.2 -9.25q-22.05 1.05 -42.9 8.85q1.35 -27.3 4.25 -54.35q4.3 -43.35 39 -65.4q7.6 -4.8 16.65 -1.1q6.5 2.7 11.1 3.05q-5.2 -13.35 -20.8 -11.1q-12.6 4.1 -22.1 13.75q-4.1 22.65 -2.75 47.75q2.65 48.5 1.4 97.2q-0.6 24.2 -3.05 48.15q-1.95 18.95 0.95 36q4.05 -16.15 4.4 -34.05q1 -48.25 0.55 -96.6q-2.15 0.55 -3.05 2.2q-0.15 0.95 0.35 1.05q-1.25 43.25 0.1 86.9q0.95 31.1 1.3 62.35q-0.2 1.5 -0.15 3.05q0 1.25 0.55 2.35q-0.1 48.75 -4.5 96.65q-1.15 12.2 -2.8 24.25q-1.35 9.95 0.55 17.75q-2.65 -2.45 -5.05 -5.55q-1.45 1.9 -0.95 4.25q3.15 14.55 18.45 20.05q26.55 3.7 45.6 -14.8q23 -22.3 24.8 -54.5q1.3 -23.4 -0.8 -46.6q-2.25 -24.2 -6.1 -47.85q-4.45 -27.35 -30.1 -34.1q13.45 -12.05 18.05 -32.85q9.05 -41.25 0.1 -82.65q-7.25 -33.6 -42.95 -34.2q7 1.05 15.15 0.4q27.35 -2.05 35.95 22.35q8.5 24.05 9.15 49.8q0.6 25.05 -10.65 47.1q-14.9 29.15 -45.85 29.55q-0.65 -46.05 -3.05 -91.5q17.3 1.4 24.8 17.95q7.65 16.95 10.3 35.6q5.75 41.5 -0.65 82.5q-5.35 34.15 -38.15 45.45q-20.6 7.1 -34.75 -3.35q0.8 -3.65 1.05 -7.45q0.9 -16.15 2.3 -32.3q4.05 -47.95 3.7 -96.75q4.75 0.05 9.5 -1.15q12.85 -3.3 22.15 -10<g id="324" transform="matrix(1, 0, 0, 1, -59.7, 0)">
<path style="fill:#000000;fill-opacity:1" d="M386.65,110.5L389 112.5L390.2 113.5Q392.1 115.3 391.35 117.8Q384.1 116.5 372.95 115.7Q350.25 113.95 343.6 136.65Q330.45 181.8 329.05 229.75Q327.95 265.75 326.45 301.9Q324.45 350.3 325.7 398.5Q326.05 412.45 334.85 422.55Q337.55 425.65 342 425.7Q359.9 426.05 368.4 408.95Q375.05 395.7 382.45 383.1Q382.3 362.5 382.6 341.65Q382.7 332.5 380.55 323.9Q367.1 319.3 353.55 315.15Q352.85 314.95 352.2 314.3L352.3 311.9L352.5 311.35Q353.1 310.6 354.05 310.85Q366.2 311.85 377.65 315.7L380.95 316.35Q388.05 333.95 387.65 354.25Q387.25 378.3 384.55 401.9Q384.05 406.45 386.65 408.9Q387.5 409.95 387.25 411.35L387.05 411.95L386.85 412.55L385.35 414.3L385 414.8Q384.35 416.2 382.8 416.25L382.5 393.2Q376.9 410.15 365.05 425.5Q349.6 445.55 330.25 429.3Q326.5 426.15 325.85 421.05Q319.7 373.7 321.4 325.1Q323.1 276.6 326.05 228.45Q327.85 199.4 331.15 170.95Q335.2 136.05 357.3 110.4Q360.1 107.15 364.45 107.2Q375.1 107.1 384.85 110L386.65 110.5M478.2,123.1L477.95 123.45L476.8 123.25Q475 122.3 474.3 120.45L473.85 120.15L472.6 119.5L471.25 118.45Q438.2 116.8 426.95 148.9Q411.7 192.3 413.7 238.75L413.95 250.9L413.95 266.15Q428.7 265.75 442.7 262.15L447.75 263.4L448.2 263.75L448.45 264.4Q448.75 265.25 448.7 266.2Q448.65 267.15 448.2 268.05Q430.8 274.55 413.9 271.55L413.25 347.55Q412.75 383.3 424.75 415.6Q426.15 419.35 429.95 420.95Q447.2 428.25 460.95 415.45Q475.05 402.3 481.05 383L481.85 382.4L482.45 382L482.65 381.4L482.85 380.75Q483.25 379.05 483.7 380.15Q481.05 409.3 458.85 427.25Q443.45 439.75 427.45 429.7Q418 423.75 416.05 412.9Q407.6 365.9 408.9 316.95Q410.2 268.6 410.3 220.35Q410.35 184.7 421.85 151.3Q427.4 135.2 437.6 121.9L445.6 116Q450.35 112.45 455.75 110.5Q474.15 106.55 478.2 122.55L478.2 123.1M237.25,104.15Q252.85 101.9 258.05 115.25L258.05 115.8Q253.45 115.45 246.95 112.75Q237.9 109.05 230.3 113.85Q195.6 135.9 191.3 179.25L188.8 203.25Q185.9 230.3 184.55 257.6Q205.4 249.8 227.45 248.75L230.1 248.5Q232.4 254.55 225.9 257.75L225 258.25Q204.35 259.4 184.3 262.9Q183.5 281 183.35 299.25Q183 347.65 189.25 395.2Q191.55 412.65 198.55 428.85Q211.45 442.3 229.9 432.35Q243.9 420.7 249.3 403Q253.6 388.75 261.5 380.35Q255.75 409.6 238.05 433.9Q227.25 448.7 208.6 444.6Q195.7 441.75 192.05 428.6Q179.3 382.35 178.25 333.25Q177.25 284.95 180.95 236.6Q183.85 198.75 191.75 161.85Q197.3 136.1 215.15 117.9Q224.65 108.25 237.25 104.15M295.7,139.45L295.75 140.05L296.85 236.65Q297.3 285 296.3 333.25Q295.95 351.15 291.9 367.3Q289 350.25 290.95 331.3Q293.4 307.35 294 283.15Q295.25 234.45 292.6 185.95Q291.25 160.85 295.35 138.2L295.7 139.45M72.55,97.25L87.25 95.2Q122.95 95.8 130.2 129.4Q139.15 170.8 130.1 212.05Q125.5 232.85 112.05 244.9Q137.7 251.65 142.15 279Q146 302.65 148.25 326.85Q150.35 350.05 149.05 373.45Q147.25 405.65 124.25 427.95Q105.2 446.45 78.65 442.75Q63.35 437.25 60.2 422.7Q59.7 420.35 61.15 418.45Q63.55 421.55 66.2 424Q64.3 416.2 65.65 406.25Q67.3 394.2 68.45 382Q72.85 334.1 72.95 285.35L72.9 259.4L68.05 258.65L67.25 257.35Q66.7 256.25 66.7 255Q66.65 253.45 66.85 251.95L67.25 250.1L72.85 250.5Q72.5 219.25 71.55 188.15Q70.2 144.5 71.45 101.25L68.85 100.75Q68.35 100.65 68.5 99.7Q69.4 98.05 71.55 97.5L71.55 96.4L71.95 96.2L72 97.35L72.55 97.25M75.25,192.85L75.95 250.55Q106.9 250.15 121.8 221Q133.05 198.95 132.45 173.9Q131.8 148.15 123.3 124.1Q114.7 99.7 87.35 101.75Q79.2 102.4 72.2 101.35Q74.6 146.8 75.25 192.85M85.55,258.4Q80.8 259.6 76.05 259.55L76.3 290.05Q76.65 338.85 72.6 386.8Q71.2 402.95 70.3 419.1Q70.05 422.9 69.25 426.55Q83.4 437 104 429.9Q136.8 418.6 142.15 384.45Q148.55 343.45 142.8 301.95Q140.15 283.3 132.5 266.35Q125 249.8 107.7 248.4Q98.4 255.1 85.55 258.4" />
</g>
</svg>
