<?xml version="1.0" encoding="utf-8"?>
<svg version="1.1" id="Layer_1"
xmlns="http://www.w3.org/2000/svg"
xmlns:xlink="http://www.w3.org/1999/xlink"


xml:space="preserve">
q-21.95 6.05 -30.95 28.55q-7.6 19.05 -12.6 39q-5.05 20.05 -4.4 40.7q0.6 20.1 6.7 39.15q6.9 21.5 27.15 30.35q20.7 9.15 41.9 0.6q9.35 -3.75 15.5 -11.9q7.1 -7.15 7.6 -18.9q0.9 -22.9 -2.35 -45.6q-3.55 14.9 -17 22.1q-8.85 4.8 -18.95 5.65q-12.5 0.55 -23.9 -4.8q-17.05 -8 -21.65 -25.9q-13.2 -51.55 12.7 -100.15q18 -33.75 50.45 -13.35q10.45 6.55 19.65 15q-1.5 -15.65 -16.2 -25.8q-10.85 -7.5 -23.8 -10.25q-13.65 38.5 -21.95 79.3q-7.85 36.15 -24 69.25q-4.15 8.45 -5.4 18q-0.9 6.55 -0.3 13.25q26.3 -45.1 35.1 -98.4q15.95 5.1 32.05 0.4q5.5 52.75 22.85 101.65q-2.75 -36.8 -11.25 -73.1q-5.85 -26.5 -12.3 -53.85q1.5 -4 0.5 -7.85q-0.9 -3.55 -3.55 -5.95q-21.45 3.55 -28.15 25.4q-6.3 20.7 0.75 41.15q2.2 6.5 5.9 12.3q9.4 5.05 18 -0.9q7.95 -5.45 4 -13.85q-11.75 7 -19.4 -1.85q-5.55 -6.4 -6.1 -15.45q12.45 1.45 24.25 -2.45q4.05 -17 19.25 -26.2q-2 4.25 -1.4 8.95q0.2 0.95 0.7 1.75q-0.65 41.55 -4.7 82q-0.55 5.55 0.4 11.3q0.3 1.95 1.55 3.2q0.2 1.55 0.7 3.1q0.1 0.35 0.65 0.15q3.75 -3.15 11 -3.25q8.05 0.65 15.75 -1.9q18 -6.05 28.25 -22.1q18.75 -41.45 -7.35 -78.7q-2.25 -3.2 -5.95 -4.35q5.4 -6.45 7.75 -14.4q1.6 -5.4 2.3 -10.95q1.85 -15.15 -4 -29q-1.05 -2.55 -2.6 -4.7q-10.8 -15 -29.25 -17.85q8.9 -2.9 15.6 -7.45q30.9 10.8 24.35 45.65q-8.35 44.25 -56.5 43.95q3 -25.65 3.55 -52.25q6.35 -0.4 12.2 -2.35q-6.7 31.7 -40.5 30.9q1.45 -34.7 4.1 -69.25q30.8 -4.15 38.85 27.2<g id="326" transform="matrix(1, 0, 0, 1, -134.3, 0)">
<path style="fill:#000000;fill-opacity:1" d="M397.75,194.45Q412.45 204.6 413.95 220.25Q404.75 211.8 394.3 205.25Q361.85 184.85 343.85 218.6Q317.95 267.2 331.15 318.75Q335.75 336.65 352.8 344.65Q364.2 350 376.7 349.45Q386.8 348.6 395.65 343.8Q409.1 336.6 412.65 321.7L395.55 319.7L396.45 309.45L416.35 310.2L416.7 310.45Q419.95 333.15 419.05 356.05Q418.55 367.8 411.45 374.95L409.25 348.95Q403.1 357.1 393.75 360.85Q372.55 369.4 351.85 360.25Q331.6 351.4 324.7 329.9Q318.6 310.85 318 290.75Q317.35 270.1 322.4 250.05Q327.4 230.1 335 211.05Q344 188.55 365.95 182.5L373.95 184.2Q386.9 186.95 397.75 194.45M263.75,194.2L267.7 210.35Q274.15 237.7 280 264.2L287.7 298.2Q296.2 334.5 298.95 371.3L298.45 371.6Q281.1 322.7 275.6 269.95Q259.5 274.65 243.55 269.55Q234.75 322.85 208.45 367.95Q207.85 361.25 208.75 354.7Q210 345.15 214.15 336.7Q230.3 303.6 238.15 267.45L237.95 260.5L240 260.55Q248.3 219.75 261.95 181.25L263.75 194.2M308.7,192.25Q293.5 201.45 289.45 218.45L312.85 213.95L313.2 224.75Q301.4 228.65 288.95 227.2Q289.5 236.25 295.05 242.65Q302.7 251.5 314.45 244.5Q318.4 252.9 310.45 258.35Q301.85 264.3 292.45 259.25Q288.75 253.45 286.55 246.95Q279.5 226.5 285.8 205.8Q292.5 183.95 313.95 180.4L315.45 180.75Q318.1 183.15 319 186.7Q320 190.55 318.5 194.55L316.2 194.25L314.35 192.35L308.7 192.25M151,180.85L157 178.5Q175.45 181.35 186.25 196.35Q187.8 198.5 188.85 201.05Q194.7 214.9 192.85 230.05Q192.15 235.6 190.55 241Q188.2 248.95 182.8 255.4Q186.5 256.55 188.75 259.75Q214.85 297 196.1 338.45L193.15 343.8Q182.9 359.85 164.9 365.9Q157.2 368.45 149.15 367.8Q141.9 367.9 138.15 371.05Q137.6 371.25 137.5 370.9Q137 369.35 136.8 367.8Q135.55 366.55 135.25 364.6Q134.3 358.85 134.85 353.3Q138.9 312.85 139.55 271.3L138.7 270.6Q138.2 269.8 138 268.85L137.6 266.95Q137 262.25 139 258L140.45 258.35L147.95 178.8L149.75 181.5L151 180.85M145.25,274.15L144.45 301.7Q143.9 328.3 140.9 353.95Q189.05 354.25 197.4 310Q203.95 275.15 173.05 264.35Q166.35 268.9 157.45 271.8Q151.6 273.75 145.25 274.15M273.1,258.85L261.35 204.2L245.95 260.6L273.1 258.85M188.75,218.75Q180.7 187.4 149.9 191.55Q147.25 226.1 145.8 260.8Q179.6 261.6 186.3 229.9L188.75 218.75" />
</g>
</svg>
