<?xml version="1.0" encoding="utf-8"?>
<svg version="1.1" id="Layer_1"
xmlns="http://www.w3.org/2000/svg"
xmlns:xlink="http://www.w3.org/1999/xlink"


xml:space="preserve">
q-15.15 13.35 -22.05 45q-4.95 22.9 -4.95 51q0 7.2 1.5 37.25q4.35 0 9.75 -2.1q4 -1.75 5.6 -1.15q2.1 0.75 2.1 5.4q-0.4 2.35 -2.45 3.95q-5.75 4.5 -26 4.5q2.4 47.55 4.05 59.9q1.05 7.8 1.95 29.7q1.05 24.9 2.05 36.15q4 43.4 18.1 43.4q7.65 0 13.75 -10.55q4.6 -8 5.9 -15.95q4.1 -25 9 -25q4.25 0 5.05 4.3q0.4 2.15 -0.05 4.45q0 2.2 -1.65 9.6q-2.25 9.85 -5.6 18.15q-10.25 25.5 -26.25 25.5q-16.7 0 -21.3 -11.95q-1.5 -3.85 -1.85 -9.4q-0.1 -5.3 -0.35 -6.65q-1.95 -9.6 -2.75 -14.3q-1.45 -8.2 -2 -14.95q-0.75 -8.35 -1.5 -28.5q-0.7 -19.1 -1.75 -29.25q-1.15 -11.6 -4 -58.65q-3 -48.45 -3 -57.6q0 -11.4 3.6 -31.25q4 -22.2 4.65 -32.5q1.05 -16.6 10.45 -27.75q8.15 -9.7 20.05 -12.85q11.2 -2.95 19.5 1.2q8.75 4.4 8.75 14.4q0 2.2 -0.95 3.8q-1.35 2.2 -4.05 2.2q-2.9 0 -7.6 -5.85q-5.15 -6.4 -9.65 -7.65q2.85 -8.55 7 -6.5q1.55 0.75 2.7 2.75q1.05 1.85 1.05 3.35q0 3.05 -14.9 46.5q-16.5 48.1 -19.85 61.15q-1.75 6.8 -6.8 30.45q0.3 8.15 2.25 21q1.85 12.75 6.75 41.25q2.5 15.1 7.5 40.9q6.85 37.6 15.05 86.4q11.7 69.3 11.7 78.25q0 1.8 -1 3.4q-1.35 2.2 -4 2.2q-4.35 0 -14.25 -60.4q-11.2 -73.25 -15.5 -99.1q-7.9 -41.25 -14.45 -76.8q-5.85 -31.85 -9 -51.7q-7.85 27.3 -15.8 33.3q-0.75 2.25 -1 3.75q-2.35 13.5 -8.95 57.25q-5.95 37 -8.55 37q-4.65 0 -6.5 -9.45q0 -0.9 4.1 -16.25q1.35 -6.05 2.35 -19.1q0.95 -12.5 2.65 -19.15q0.2 -2.65 0.2 -21.65q0 -29.75 -5.5 -100.75q-5.5 -71.05 -5.5 -94.85q-0.2 -2.85 1.45 -5.05q1.5 -2.05 3.7 -2.55q2.3 -0.5 3.9 1.1q1.8 1.8 1.95 5.75q-0.5 8.7 0.1 14.95q1.1 12.65 2.2 30.4q9.3 -22.6 11.65 -33.1q3.7 -15.75 7.25 -27.75q5.7 -19.65 8.15 -27.45q5.1 -15.9 10.35 -28.05q2.2 -5.3 4.8 -13.55q2.35 -7.6 3.95 -14.2q0.65 -2.55 2.15 -6.6q-6.25 2.05 -19.35 5.05q-26.55 6 -43.55 6q-8.4 37.95 -16.5 71.05q-26.05 106.95 -34.8 106.95q-4.15 0 -5.5 -5.35q14.4 -44.5 22.3 -75.6q11.1 -43.4 25 -113.25q5.8 -33.05 5.95 -57.35q0.05 -10.25 2.8 -28.45q3.45 -22.8 3.95 -28.55q1.25 -18.75 2.25 -28.5q0 -4.95 2.35 -10.7q1.65 -4 3.85 -7q0 -2.6 1.65 -3.95q1.55 -1.25 3.7 -0.9q2.2 0.3 3.75 2.05q1.75 1.95 1.9 4.95q0.3 5.8 1.25 14.65q0.85 9.65 3 29.65q3.1 36.25 5.4 58.75q3.4 33.3 7.1 58.85q5.3 35.35 7.75 59.75q1.9 18.45 11.2 69.05q8.8 47.7 8.8 48.7q0 6.25 -5.5 6.25q-8.8 0 -21.35 -88.9q-3.45 -24.2 -10 -76.6q-2.25 0 -3.2 -1.65q-2.4 -5.25 -11.95 -5.25q-19.45 0 -25.35 40.75q-0.95 6.65 -1.5 13.35q2.25 0.55 3.3 1.95q0.7 0.95 0.7 1.9q0 1.95 -0.75 2.45q-16 1.4 -33.7 4.9q-0.45 9.7 0 19.5q0 6.3 1.25 11.15q3.95 15 19.5 15q16.7 0 24.05 -18.75q1.95 -5.85 4.25 -5.85q3 0 3.8 2.35q0.4 1.2 0.2 2.65q0 2.5 -1.3 7.8q-1.85 7.65 -5.2 13.95q-10.2 19.25 -30 19.25q-22.1 0 -27.45 -20.25q-1.7 -6.4 -1.55 -14.25q0 -4.8 1.05 -23.15q0 -0.85 0.15 -1.4q1.35 -23.25 1.6 -24.05q1.7 -8.4 3.35 -13.05q2.95 -8.2 9.4 -13.2q18.5 -14.5 30.7 -9.7q4.55 1.75 7.25 5.85q2.3 3.5 2.3 6.85q0 5.5 -4 5.5q-7.15 48.85 -7.75 65.55q-0.75 22.35 -7.35 56.5q22.05 -1.9 36.15 -4.5q18.45 -3.45 23.25 -4q-5.65 -38.35 -14.8 -134.35q-1.4 37.3 -3.65 73.7q1.9 -1.25 4.9 -2.95q0.4 -2.55 1.3 -4.3q1.45 -2.75 3.45 -2.55q1.45 0.15 2.6 1.75q7.45 -6.35 11.4 -14.25q3.05 -6 5 -13.75q2 -7.85 2 -14q0 -11.15 -6 -19.45q-7.2 -9.9 -21.15 -11.65q7.05 4.4 10.95 11.15q5.15 10.15 8.2 15.6q0.55 1.4 0.55 11.4q-1.45 15.7 -6.7 30.05q-7.35 19.95 -19.05 25.95q1.35 11.75 10 51.6q1.5 6.3 9 31.15q6.75 22.35 6.75 23.6q0 2.15 -1 3.8q-1.35 2.2 -4 2.2q-9.15 0 -21 -58.95q-3.65 -18.2 -7.2 -40.4q-2.9 0 -4.65 -0.75q-6.5 91.6 -14 91.6q-3.4 0 -4.5 -2.7q-0.5 -1.15 -0.5 -3.05q0 -9.25 3.05 -26q0 -23.1 1.5 -53.1q1 -18 1 -27q-1 -0.7 -1.55 -1.9q0 -3.8 4.75 -5.5q4.55 -1.6 11.25 -0.45q7.15 1.2 13.3 5.05q10.5 7.8 16.65 13.75q8.4 8.25 10.6 14.75q5.8 16.9 8.55 28.35q3.95 16.45 3.95 29.4q0 8.1 -2.2 19.15q-3.4 17.1 -10.8 30.95q-8.8 16.45 -22 26.4q4.3 1.75 5.3 2.8q2.9 3.45 6 8.1q3.5 5.25 5.25 9.15q3.1 6.8 5.8 17.2q3.4 16.15 5.3 34.05q1.95 18.1 1.95 34.2q-0.5 18.6 -0.55 27.55q0 8.5 -3.6 22.35q-8.8 40.25 -42.45 66.3q-13 10.05 -27.1 15.85q-12.55 5.1 -21.2 5.1q-7.05 0 -9.45 -3.3q-0.8 -1.05 -1 -2.35q0 -1.5 0.15 -2.7q0 -7.95 3.65 -72.2q3.95 -70 6.35 -95.8q0 -27.8 1 -83.8q0.35 -19.7 -0.45 -29.95q-1.5 -14.6 -1.5 -24.15q-1.7 -0.9 -2.5 -2.55q-0.55 -1.05 -0.55 -2.15q0 -2.95 5.15 -5.25q0.9 -1.05 2.05 -0.8q7.25 -2.6 17.9 -2.95q11.55 -0.35 22.05 2.2q12.05 2.9 19.9 9.05q0.6 19.5 1 59.85q2.7 0.1 4.3 2.4q0.85 1.15 1.15 2.35q41.1 0 60 -36.75q6.2 -12.15 9.25 -26.95q2 -9.7 2 -15.65q-0.55 -23.25 -9.25 -44.25q-17.2 -41.5 -58.25 -41.5q-6.9 0 -12.3 1.75q1.8 5 2.2 10.1q-15.6 6.55 -35.65 6.55q0 14.6 -1 21.35q-2 18.2 -3.35 53.3q-1.3 33.35 -3.35 49.1q9.2 -1.65 18.3 -7.3q18.95 -11.9 25.75 -22.5q11.75 -17.9 21 -44.25q4.55 -12.9 6.75 -22.05q2.9 -12.1 3 -22.2q0 -8.6 0.5 -26.55q0 -20.95 -6.5 -61.5q-2.9 -18.5 -7.75 -30.75q-1.25 -3.25 -3.2 -6.9q-2.45 -4.6 -5.05 -8.1q-5.6 -7.25 -14.7 -7.55q2.6 -1.65 4.45 0.6q2.05 2.4 2.05 8.3q0 5.45 -2.5 22.1q-2.5 16.7 -2.5 21.75q-0.5 13.2 -4.15 20.85q4.6 -0.95 6.9 2.2q1.15 1.6 1.35 3.45q0 0.85 -1.3 2.2q-1.45 1.55 -3.7 2.65q-3.15 -1.65 -4.35 -5.35q-0.65 -1.9 -0.65 -4.15q0 -6.65 1.95 -26.15q2 -19.9 2.05 -25.6q0 -9 2 -25.5q0 -7.75 2.05 -13.35q1.75 -4.9 4.45 -6.65<g id="327" transform="matrix(1, 0, 0, 1, -29, 0)">
<path style="fill:#000000;fill-opacity:1" d="M516,167.35Q500.85 180.7 493.95 212.35Q489 235.25 489 263.35Q489 270.55 490.5 300.6L499.35 300.35Q503.7 300.35 509.1 298.25L517.3 294.6Q521.3 292.85 522.9 293.45Q525 294.2 525 298.85L524.95 302.4Q524.55 304.75 522.5 306.35Q516.75 310.85 496.5 310.85L491 310.7L491.2 315.2Q493.6 362.75 495.25 375.1Q496.3 382.9 497.2 404.8Q498.25 429.7 499.25 440.95Q503.25 484.35 517.35 484.35Q525 484.35 531.1 473.8Q535.7 465.8 537 457.85Q541.1 432.85 546 432.85Q550.25 432.85 551.05 437.15Q551.45 439.3 551 441.6Q551 443.8 549.35 451.2Q547.1 461.05 543.75 469.35Q533.5 494.85 517.5 494.85Q500.8 494.85 496.2 482.9Q494.7 479.05 494.35 473.5Q494.25 468.2 494 466.85Q492.05 457.25 491.25 452.55Q489.8 444.35 489.25 437.6Q488.5 429.25 487.75 409.1Q487.05 390 486 379.85Q484.85 368.25 482 321.2Q479 272.75 479 263.6Q479 252.2 482.6 232.35Q486.6 210.15 487.25 199.85Q488.3 183.25 497.7 172.1Q505.85 162.4 517.75 159.25Q528.95 156.3 537.25 160.45Q546 164.85 546 174.85Q546 177.05 545.05 178.65Q543.7 180.85 541 180.85Q538.1 180.85 533.4 175Q528.25 168.6 523.75 167.35L516 167.35M463.65,33.4L466.25 26.5Q469.1 17.95 473.25 20Q474.8 20.75 475.95 22.75Q477 24.6 477 26.1Q477 29.15 462.1 72.6Q445.6 120.7 442.25 133.75Q440.5 140.55 435.45 164.2L432.65 177.1L432.75 177.85Q433.05 186 435 198.85Q436.85 211.6 441.75 240.1Q444.25 255.2 449.25 281L457.25 322.6Q464.1 360.2 472.3 409Q484 478.3 484 487.25Q484 489.05 483 490.65Q481.65 492.85 479 492.85Q474.65 492.85 464.75 432.45Q453.55 359.2 449.25 333.35Q441.35 292.1 434.8 256.55Q428.95 224.7 425.8 204.85Q417.95 232.15 410 238.15L409.85 260.7L407 291.1L407 336.1Q406.25 338.35 406 339.85L406 391.6Q403.65 405.1 397.05 448.85Q391.1 485.85 388.5 485.85Q383.85 485.85 382 476.4L381 466.6Q381 465.7 385.1 450.35L391 427.6Q392.35 421.55 393.35 408.5Q394.3 396 396 389.35L396 337.6L397 333.85L397 289.6L399.8 259.5Q400 256.85 400 237.85Q400 208.1 394.5 137.1Q389 66.05 389 42.25L389.15 35.8L389 27.25Q388.8 24.4 390.45 22.2Q391.95 20.15 394.15 19.65Q396.45 19.15 398.05 20.75Q399.85 22.55 400 26.5L398.9 41.55Q398.4 50.25 399 56.5Q400.1 69.15 401.2 86.9L403 117.25L406.7 171.35L409.1 211.7Q418.4 189.1 420.75 178.6L422.25 172L422.5 170.75L427 151Q430.7 135.25 434.25 123.25Q439.95 103.6 442.4 95.8Q447.5 79.9 452.75 67.75Q454.95 62.45 457.55 54.2Q459.9 46.6 461.5 40Q462.15 37.45 463.65 33.4M324.4,297.8Q318.15 299.85 305.05 302.85Q278.5 308.85 261.5 308.85L261.3 308.85Q252.9 346.8 244.8 379.9Q218.75 486.85 210 486.85Q205.85 486.85 204.5 481.5L204 475.85L216.45 437.45Q230.85 392.95 238.75 361.85Q249.85 318.45 263.75 248.6L275.05 192.1Q280.85 159.05 281 134.75Q281.05 124.5 283.8 106.3Q287.25 83.5 287.75 77.75Q289 59 290 49.25Q290 44.3 292.35 38.55Q294 34.55 296.2 31.55L296 27.1Q296 24.5 297.65 23.15Q299.2 21.9 301.35 22.25Q303.55 22.55 305.1 24.3Q306.85 26.25 307 29.25L306.9 36.45L307 44.25Q307.3 50.05 308.25 58.9L309.75 73.5Q310.6 83.15 312.75 103.15L315.75 132.75Q318.85 169 321.15 191.5Q324.55 224.8 328.25 250.35L337.25 309.1Q342.55 344.45 345 368.85Q346.9 387.3 356.2 437.9Q365 485.6 365 486.6Q365 492.85 359.5 492.85Q350.7 492.85 338.15 403.95Q334.7 379.75 328.15 327.35L324.4 297.8M260,41Q257.75 41 256.8 39.35L255.3 35.75Q252.9 30.5 243.35 30.5Q223.9 30.5 218 71.25Q217.05 77.9 216.5 84.6L248 81.5L258 81Q260.25 81.55 261.3 82.95Q262 83.9 262 84.85Q262 86.8 261.25 87.3L256.7 88.1Q240.7 89.5 223 93L216 93Q215.55 102.7 216 112.5L215.75 119.35Q215.75 125.65 217 130.5Q220.95 145.5 236.5 145.5Q253.2 145.5 260.55 126.75L264.75 113.85Q266.7 108 269 108Q272 108 272.8 110.35Q273.2 111.55 273 113Q273 115.5 271.7 120.8Q269.85 128.45 266.5 134.75Q256.3 154 236.5 154Q214.4 154 209.05 133.75Q207.35 127.35 207.5 119.5L208 112.35Q208 107.55 209.05 89.2L209 88.75Q209 87.9 209.15 87.35L209.4 82.8Q210.75 59.55 211 58.75Q212.7 50.35 214.35 45.7Q217.3 37.5 223.75 32.5Q242.25 18 254.45 22.8Q259 24.55 261.7 28.65Q264 32.15 264 35.5Q264 41 260 41M298,81.45Q290.85 130.3 290.25 147Q289.5 169.35 282.9 203.5L271.5 260.85L263.85 297.35Q285.9 295.45 300 292.85Q318.45 289.4 323.25 288.85L319.25 259.85Q313.6 221.5 304.45 125.5L299.45 71.7L298 81.45M169,45.85Q167.6 83.15 165.35 119.55Q167.25 118.3 170.25 116.6Q170.65 114.05 171.55 112.3Q173 109.55 175 109.75Q176.45 109.9 177.6 111.5Q185.05 105.15 189 97.25Q192.05 91.25 194 83.5Q196 75.65 196 69.5Q196 58.35 190 50.05Q182.8 40.15 168.85 38.4L169 45.85M186.3,31.35Q193.35 35.75 197.25 42.5Q202.4 52.65 205.45 58.1Q206 59.5 206 69.5Q204.55 85.2 199.3 99.55Q191.95 119.5 180.25 125.5Q181.6 137.25 190.25 177.1Q191.75 183.4 199.25 208.25Q206 230.6 206 231.85Q206 234 205 235.65Q203.65 237.85 201 237.85Q191.85 237.85 180 178.9Q176.35 160.7 172.8 138.5L171.2 127.95L169.5 128Q166.6 128 164.85 127.25L164 139.25Q157.5 230.85 150 230.85Q146.6 230.85 145.5 228.15Q145 227 145 225.1Q145 215.85 148.05 199.1L153 171.85Q153 148.75 154.5 118.75L156.15 92.55L158 65.5Q159 47.5 159 38.5L159.05 37.15Q158.05 36.45 157.5 35.25L157 32.25Q157 28.45 161.75 26.75Q166.3 25.15 173 26.3Q180.15 27.5 186.3 31.35M101.25,36Q111.75 43.8 117.9 49.75Q126.3 58 128.5 64.5Q134.3 81.4 137.05 92.85Q141 109.3 141 122.25Q141 130.35 138.8 141.4Q135.4 158.5 128 172.35Q119.2 188.8 106 198.75L107.45 199.3Q111.75 201.05 112.75 202.1Q115.65 205.55 118.75 210.2Q122.25 215.45 124 219.35Q127.1 226.15 129.8 236.55L133.75 253.85Q137.15 270 139.05 287.9Q141 306 141 322.1L140.55 340.3Q140.05 358.9 140 367.85Q140 376.35 136.4 390.2L130.25 413.6Q121.45 453.85 87.8 479.9Q74.8 489.95 60.7 495.75Q48.15 500.85 39.5 500.85Q32.45 500.85 30.05 497.55Q29.25 496.5 29.05 495.2L29 494Q29 492.5 29.15 491.3L29.05 490.5L29 481.85Q29 473.9 32.65 409.65Q36.6 339.65 39 313.85L39 274.1Q39 246.3 40 190.3L41 138.35L41.45 118.95Q41.8 99.25 41 89L38.5 64Q37 49.4 37 39.85L37 39.05Q35.3 38.15 34.5 36.5Q33.95 35.45 33.95 34.35L34 33.85Q34 30.9 39.15 28.6Q40.05 27.55 41.2 27.8L41.4 27.7Q48.65 25.1 59.3 24.75Q70.85 24.4 81.35 26.95Q93.4 29.85 101.25 36M51,48.5L51.4 63.5L52 78.5Q52.6 98 53 138.35L52.5 176.75L52.3 196.85Q55 196.95 56.6 199.25Q57.45 200.4 57.75 201.6Q98.85 201.6 117.75 164.85Q123.95 152.7 127 137.9Q129 128.2 129 122.25Q128.45 99 119.75 78Q102.55 36.5 61.5 36.5Q54.6 36.5 49.2 38.25L48.8 38.4Q50.6 43.4 51 48.5M91.15,207.3Q75.55 213.85 55.5 213.85L52.15 213.75L52 254.25Q52 268.85 51 275.6L51 316.1Q49 334.3 47.65 369.4L45.65 429.45Q44.35 462.8 42.3 478.55L41.3 485.3L53.2 484.65Q62.4 483 71.5 477.35Q90.45 465.45 97.25 454.85Q109 436.95 118.25 410.6Q122.8 397.7 125 388.55Q127.9 376.45 128 366.35Q128 357.75 128.5 339.8L129 322.1Q129 301.15 122.5 260.6Q119.6 242.1 114.75 229.85Q113.5 226.6 111.55 222.95Q109.1 218.35 106.5 214.85Q100.9 207.6 91.8 207.3L91.15 207.3M174.5,237.1Q177.1 235.45 178.95 237.7Q181 240.1 181 246Q181 251.45 178.5 268.1Q176 284.8 176 289.85L176.15 311.75Q175.65 324.95 172 332.6L207.75 332.35Q212.35 331.4 214.65 334.55Q215.8 336.15 216 338Q216 338.85 214.7 340.2Q213.25 341.75 211 342.85L189.75 343.15L167 343.85Q163.85 342.2 162.65 338.5Q162 336.6 162 334.35Q162 327.7 163.95 308.2Q165.95 288.3 166 282.6Q166 273.6 168 257.1Q168 249.35 170.05 243.75Q171.8 238.85 174.5 237.1" />
</g>
</svg>
