<?xml version="1.0" encoding="utf-8"?>
<svg version="1.1" id="Layer_1"
xmlns="http://www.w3.org/2000/svg"
xmlns:xlink="http://www.w3.org/1999/xlink"


xml:space="preserve">
q3.55 -1.7 8.9 -0.95q13.15 1.85 22.25 14.45q4.7 9.5 5.4 12.9q0.35 1.65 0.35 11.1q0 11.5 -5.3 23.9q-6.9 16.3 -20.35 20.25q2.95 11.55 9.8 42.35q10.85 48.9 10.85 59.85q-1.75 -1.15 -2.35 -5.7q-0.55 -4.55 -4.15 -6.8q0 -11.1 -9.35 -51.9q-7.3 -31.65 -8.9 -39.6q-6.05 38.45 -12.5 75.05q-1.7 -1.45 -2.3 -2.8q-0.45 -1.05 -0.45 -2.7q4.5 -18.5 13.9 -83.6q-0.25 -0.85 -0.25 -2.65q0 -1.8 0.25 -2.6q0.2 -0.7 1 -1.9q6.85 -48.95 6.85 -57.5q0.65 -3.2 0.55 -6.25q-0.8 -1 -1.95 -1.4q0.7 -2.35 1.7 -4.55q1.2 -2.7 2.05 -3.2q0.65 1.55 1.2 5.5q0 2.2 -7.5 6.25q-8.35 4.5 -15.75 4.5q-13.7 -1.15 -23.4 -9.5q-3.7 -3.15 -5.9 -6.65q-1.25 -2 -1.7 -3.45q-1.95 -0.65 -1.95 -1.85q0 -1.55 0.15 -2.25q1.7 -5.1 6.75 -9q6.6 -5.05 16.9 -7q9.5 -1.85 16.9 -0.2q7.65 1.65 7.65 6.05q0 1.65 -0.4 2.2q-2.25 -1.8 -3.9 -2.7q-2.95 -1.55 -8.2 -1.55q-13.55 0 -23.2 6.25q-3.85 2.5 -5.85 4.8q20.1 0.55 45.15 -0.05q0 1.6 -0.35 2.4q-15.8 0 -23.75 -0.65q2.9 2.7 11.55 6.45q11.2 4.9 15.2 5.45q16.35 -1.6 22.85 -3.65q-15.45 -20.9 -51.8 -20.9q-39.1 0 -51 30.25q-6.05 15.3 -4.25 31.9q0 30.35 20.15 64.15q7.65 12.85 20.6 30.35q30.35 40.5 44.25 71.1q20.15 44.35 20.15 92.65q0 21.3 -1.85 31.3q-2.6 10.7 -5.45 17.25q-4 9.3 -10.55 16.5q-7.2 7.9 -28.55 17.2q-23.75 10.3 -40.55 10.3q-19.35 0 -29.4 -3.45q-9.6 -3.3 -14.45 -11.1q-3.8 -6.1 -7.2 -20.05q0.55 -0.85 1.25 0.5q1 -1.75 1.75 -2.5q1.25 2.75 3.5 13.45q2.5 11.85 4.75 18.2q8.15 22.85 26.75 22.85q68.95 0 94.15 -35.95q10.55 -15.05 14.7 -37.9q3.25 -17.7 3.25 -45q0 -44.15 -20.1 -85.8q-13.15 -27.25 -44.2 -68.3q-12.75 -17.7 -20.6 -31.85q-20.1 -36.15 -20.1 -70.95q0 -23.25 6.85 -42.3q12.1 -33.65 41.15 -29.95q44.5 -1.5 63.55 18.7q11.8 12.5 11.8 29.45q0 3.75 -1.25 5.6q-0.6 -0.35 -3.25 -7.75q-3.05 -8.75 -7.55 -14.85q0.35 0.85 0.35 2.55q0 0.35 -17.45 12.75q-18.3 13.05 -25.8 17.75q0.8 0 2.65 0.8q2 0.8 5.85 0.95q2.2 1.45 3.15 2.8q0.85 1.25 0.85 2.7q0 1.75 -0.45 2.5q-0.3 -0.75 -0.3 -2.35q0 -3.3 18.65 -16.65q9.85 -7.05 21.35 -14.45q-10.3 -0.15 -11.35 0.05q0 -2.8 2.25 -4.5q-1.25 -4 -3.35 -7.15q-4 -6.1 -10.15 -6.1q-25.7 0 -32.5 57.15q-2.85 24 -2.15 50.85q1.45 0.05 1.9 1q0.35 0.8 0.35 3.2q-0.75 2.15 -3.5 3.1q-8.5 0.5 -13 2q0 39.5 0.8 51.1q2.55 36.35 12.45 42.9q26.9 -7.05 32.8 -18.6q2 -3.9 2.55 -10.4q0.7 -8.8 1.15 -10.75q-0.3 3.15 0.2 8.9q0 1.55 -1.7 6.6q-2.25 6.55 -5.5 12.2q-9.95 16.95 -24.55 16.95q-12.05 -5.9 -15.2 -46.85q-1.1 -13.75 -1.15 -32.3q0 -30 0.2 -39.2q0.65 -26.4 3.05 -35.05q2.95 -11.75 5.95 -19q4.4 -10.45 11.45 -14.55q6.05 -3.5 13 -1.85q6.2 1.5 10.65 6.35q4.4 4.8 4.4 10.05q0 3.15 -2 4.75q0 -1.7 0.7 -2.65q0.6 -0.75 1.3 -0.75q13.7 10.05 24.2 25.4q10.05 14.65 16.3 32.85q6.75 13.75 8.7 33.05q1.05 10.05 1.05 32.6q0 3.35 -3.15 11.8q-3.85 10.35 -9.6 19.3q-16.6 26 -39 26q-1.05 -1.05 -1.55 -2.6q-0.4 -1.15 -2.05 -1.05q0.05 -12.45 4.65 -50.45q-3.65 -4.9 -3.65 -6.75q0.55 17.75 0.7 45.1q0 35.7 -2.4 60.05q-1.3 13.35 -7.8 59.2q36.7 -10.65 48.75 -29.65q5.2 -8.2 6.7 -19.15q0.75 -5.65 0.75 -19.1q0 -35.95 -26.35 -71.7q-4.95 -6.65 -18.15 -22.1q0 9.55 -2.2 14.65q-3.4 7.85 -11.65 9.95q4 10.5 10.5 29.1q13.6 39.05 13.6 47.05q-6.55 -17 -17.85 -50.7q-6.6 -19.75 -9.45 -29.35q-14 0 -18.65 -2q-5.6 36.05 -18.6 74.75q-1.25 -1.85 -1.25 -5.6q0 -1.6 3.4 -14.85q4.75 -18.5 7.5 -30.65q10.85 -48.65 10.85 -83.5q0 -1.95 0.55 -3.5q0.55 -1.55 1.55 -2.3q0.85 -0.85 2.1 -1.3q3.4 -1.1 8.95 1.1q12.35 5 20.35 17.1q3.8 6.3 4.7 13.25q0.3 2.4 0.3 11.9q0 1.55 -5.95 3.9q-0.7 -1.9 -0.7 -3.45q0 -1.95 2.55 -14.55q-4.9 1.3 -10.05 1.3q-0.65 4.1 -4.7 14.8q-0.25 -1.5 -0.25 -4.1q0 -3.35 2 -10.85q-0.35 -0.85 -0.35 -2.45q0 -1.6 0.7 -2.3q0.15 -0.15 0.8 -0.45q0 -1.3 -1.1 -4.3q-1.15 -3.1 -1.15 -4.35q0 -0.95 0.9 -1.85q1.05 -1.15 2.85 -1.15q1 3.75 1 11.25q10.95 -0.55 16.4 -1.75q3.45 -16.35 5.6 -23.25q0.7 1.55 0.9 3.05q0 1.6 -0.35 2.2q0 5.5 -6 36.75q-2.5 -4 -2.5 -7.25q2.5 -13.6 2.95 -19q-0.55 -0.55 -0.55 -0.85q0 -1.55 0.15 -2.45q30.2 -0.9 34.4 -0.6q2.9 0.25 3.45 1.1q-5.9 -8 -11.6 -12.8q-4.6 0.4 -8.2 -1.35q-4 -1.9 -9.05 -1.9q-33.05 0 -55.45 57.65q-7.4 19.05 -12.85 42.6q-3.4 14.7 -4.95 25.6q-4.1 28.8 -5.1 64.9q-0.2 6.7 -0.25 20.65q2.95 -1.35 9.6 0.45q4.65 -2.3 6.4 0.85q0.85 1.55 0.85 4.3q0 2 -7.25 6.85q0.1 51.25 3.6 93.6q4.9 59.05 15.9 92.7q13.75 42 36.35 42q39.3 0 56 -29.5q5.3 -9.4 7.65 -20.85q1.35 -6.55 1.35 -10.65q0 -2.2 0.75 -3.15q0.95 -1.3 4 -2.35q-3.75 4.95 -3.75 5.15q0 0.45 1.9 5q1.85 5.3 1.85 9.25q0 2.55 -3.25 10.9q-4.2 10.9 -10.5 20.2q-19.05 28.25 -47.5 28.25q-17.95 0 -28.45 -6.2q-8.95 -5.3 -13.75 -16.1q-3.2 -7.1 -6.3 -22.15q-3.55 -17.15 -6 -24.3q-5.35 -15.55 -7.75 -35.95q-0.6 -5 -3 -36.05q-3 -39.25 -3.3 -75.4q0 -59.7 0.5 -74.55q1.45 -42.9 7.75 -75.45q1.7 -16.3 9.35 -37.15q5.75 -15.7 16.4 -37.7q10.1 -20.9 25.75 -30.75q13.45 -8.5 28.45 -7.4q13.55 1 23.05 9.15q9.5 8.15 9.5 18.85q-0.25 1.55 -1.1 3.1q1.95 -0.75 4.1 -2.2q1.55 0.8 2 1.45q0.5 0.75 0.5 2.55q0 1.15 -26.2 19.75q-3.7 -8.6 -14.35 -25.4q0 -3.5 2.25 -5.4q5.7 7.9 12.25 18.2q7.65 12 11.25 19.3q11 -7.95 34.75 -22.45q6.85 -4.15 9.45 -6.4q3.3 -2.8 3.3 -5.15q0 2.55 -1.25 3.35q-1.9 1.2 -6.75 1.7q-5.05 0 -7.25 -1.15q-6.9 10.75 -10.25 16.4q-3 -2 -3 -2.85q0 -1.45 10.3 -18q10.9 -17.55 17.95 -26.75q0 13.5 -6.3 57.45q23.55 -3.2 33.05 -15.95q6 -8.05 6 -19.9q0 -17 -11.1 -22.95q-4 -2.15 -11.6 -4q3.8 6 5.9 25.35q1.6 14.6 1.6 28.15q0 19.75 -6.55 37.75q-6.1 16.95 -17.15 30.15q-8.75 10.45 -19.35 17.1q35.8 17.55 51.9 80.4q11.4 44.4 11.4 101.85q0 9.8 -3 31.95q-4.8 35.2 -14.2 64.4q-13 40.25 -33.1 63.2q-25 28.55 -59.7 28.55q-1.3 -1.15 -1.9 -2.4q-1.15 -3.95 -1.95 -5.6q0 0.3 1.5 0.3q2.3 0 2.25 -10.85q-0.1 -13.75 0.75 -16.9q2.15 -30.7 3.5 -46.35q2.7 -91.35 6.25 -263.6q2.5 2.8 2.5 7.1q0 27.7 -0.35 49.9q-0.4 22.2 -0.4 41.85q0 35.8 -0.95 78.2q5.25 -2.3 17.15 -5.3q23.1 -5.7 25.55 -7.9q7.95 -7.05 12.5 -11.65q6.2 -6.25 10.75 -12.35q8.2 -11.05 11.15 -24.1q2.1 -9.25 2.1 -23.9q0 -4.45 -2.25 -23.4q-2.2 -18 -2.75 -20.1q-4.1 -12.95 -13.35 -21.35q-13.65 -12.45 -38.9 -16.25q-13.75 -0.6 -17.65 -2.65q-2.1 -1.15 -2.1 -4.35q0 -6.1 13 -3.8q10.7 1.85 39.75 11.55q8.4 5.6 13.2 13.7q2.75 4.55 7.05 13.3q-1.1 45.15 -2.85 82.15q-1.5 17.1 -3.55 47.1q-1.15 4.35 -1 16.15q30.85 -7.55 49.65 -18.25q16.35 -9.35 25.05 -22.1q6 -8.75 10.55 -23.45q5.45 -17.55 8.05 -22.75q2.05 -4.25 9.35 -42.55q7.4 -38.9 7.4 -47.05q0 -19.95 -2.55 -44.6q-1.9 -18.2 -5.95 -45.05q-2.05 -13.35 -9.55 -29.6q-7.05 -15.25 -16.9 -29q-9.9 -13.85 -19.45 -21.55q-7.9 -6.4 -13.85 -7.15q-11.75 5.3 -23.75 5.3q0 -0.85 0.8 -1.5q0.85 -0.75 3.2 -1.75q2.3 3.45 2.8 7.9q0.2 1.55 0.2 7.85q-0.8 8.65 -1.8 14.15q1.35 1.15 2.4 2.85q0.85 1.4 0.85 1.9q-0.1 0.8 -1.7 0.8q0 -1.9 2 -13.4q2 -11.55 2 -14.75q0 -0.95 -2.25 -6.35q-2.25 -5.4 -2.25 -5.9q0 -2.75 -1.85 -7.25q-1.9 -4.5 -1.9 -5.5q0 -1.55 0.15 -2.25q4.5 -0.7 5.65 5.65q0.35 2.1 0.35 10q0 6.15 -2 18.1q-1.35 -0.95 -2 -5.2q0.2 -2.35 1.75 -12.85q3 30.5 3 47.2q0 7.1 -1.25 10.1q-2.6 -16.95 -5.95 -53.45q-16.3 34.9 -24.85 51q-0.9 -0.9 -1.2 -2.05q-0.3 -1 -0.3 -2.95q0 -2.2 9.25 -21.7q7.45 -15.8 12.5 -25.55q1.35 -2.6 10.05 -24q6.25 -15.4 11.95 -21.75q0.8 1.2 1 1.9q2.75 9.55 5.35 34.7q0.4 0.8 0.4 3.05q0 21.8 -3 44.7q0.05 -1.15 0.25 -1.8q0.4 -1.1 1.45 -1.8q9.45 -1.85 13.05 -6.5q1.9 -2.5 2 -5.7q0 -14.85 -17.5 -25.95q-3.65 -2.3 -12.05 -6.6q-1.9 -21.4 -2.5 -30q7.5 0.4 16.25 -0.45q14.85 0.15 23.55 0.45q0 2.5 -0.25 2.6q4.2 6.9 7.4 9.25q1.5 -0.65 5.1 -3.65q0.2 0.5 0.2 2.15q0 2.5 -3.2 5.65q-6.95 -3 -10.25 -11.75q-2.5 -6.45 -2.5 -14q0 -7 3.2 -12.85q4.45 -8.15 14.05 -10.9q12.75 0.6 15.3 3.05q0.65 0.65 1.2 2.2q0.5 1.5 1.5 2.25q-0.45 0.45 -1.05 0.6q-0.45 -1.45 -2.4 -2.95q-4.8 4.7 -4.8 8.65q-0.15 -0.4 -0.15 -1.95q0 -1.7 13.65 -20.65q15.55 -21.6 18.35 -26.5q4.2 -7.3 11.65 -23.7q7 -15.4 10.6 -21.3q0.55 7.05 7.15 47.35q1.8 1.1 1.8 3.6q0.15 0.35 -1.4 0.35q6.5 39.7 6.5 42.1q-7.25 -18.1 -10.6 -44.5q-13.55 24.25 -30.85 40.9q0.3 0.55 0.3 2.15q0 1.6 -0.3 2.15q-0.2 -0.45 -0.2 -1.85q0 4.6 4.8 8.8q6.3 5.45 17.7 5.45q8.3 0 14.9 -3.35q3.35 -1.7 6.1 -3.65q-3.15 3.9 -9.9 6.75q-13.35 0.1 -20 -8.5q-4.75 -6.1 -4.75 -13.25q0 -9.5 5.7 -16.5q5.1 -6.2 12.8 -8.5q7.55 -2.2 13.35 0.5q6.35 2.95 7.4 10.5q-4.1 -2.85 -4.65 -2.85q-14.25 0 -21.15 8.55q-2.05 2.5 -3.1 5.05q0.8 2.7 6 13.15q4.85 9.75 4.85 10.5q-6.95 -6.9 -10.65 -20.9q-1.95 -6.55 -4.65 -11.2q-15.55 13.75 -22.5 22.9q-6 -8.15 -8.5 -21.15q-2 -15.1 -3.5 -22.6q-6.45 6.45 -18.85 20.6q-11.65 12.65 -22.15 19.9q-1.6 -1.35 -2.45 -2.85q-0.55 -1 -0.55 -1.5q18.1 -17.55 27.5 -28.85q3.45 6.2 6.2 20.9q2.9 15.45 6.3 22.6q6.35 -6.7 23.25 -22.2q4.85 4.45 6.65 11.9q0 6.4 -20.3 24q-10.4 8.95 -22.95 18.6q-6.4 -6.5 -9.95 -19.3q-1.75 -5.65 -4 -9.4q-1.8 2.95 -8.65 18.7q-5.6 12.85 -11.1 19.05q-0.5 -1.5 -0.5 -3.75q0 -1.85 6.65 -16.55q7.6 -16.75 13.6 -25.2q1.5 2.55 3.7 9.4q5.1 16.05 9.2 16.05q1.6 0 18.05 -15.4q20.7 -19.4 24.2 -22.35q-2.2 -22.2 -3.85 -34.3q-2.9 5.45 -10.35 20.55<g id="339" transform="matrix(1, 0, 0, 1, 0.25, 5.5)">
<path style="fill:#000000;fill-opacity:1" d="M129.85,-0.25Q133.4 -1.95 138.75 -1.2Q151.9 0.65 161 13.25Q165.7 22.75 166.4 26.15Q166.75 27.8 166.75 37.25Q166.75 48.75 161.45 61.15Q154.55 77.45 141.1 81.4Q144.05 92.95 150.9 123.75Q161.75 172.65 161.75 183.6L161.5 188.1L160.95 188.55L160 189.35Q158.25 188.2 157.65 183.65Q157.1 179.1 153.5 176.85L154.15 176.8L155.75 177.1L156.2 176.1L156.25 173.6Q156.25 162.5 146.9 121.7Q139.6 90.05 138 82.1L132 82.6L122.8 82.4L118.5 110.55Q112.45 149 106 185.6Q104.3 184.15 103.7 182.8Q103.25 181.75 103.25 180.1L103.45 176.15L103.5 171.85L104 172.15L104.5 172.6Q109 154.1 118.4 89L119.6 80.75L119.5 80.5Q119.25 79.65 119.25 77.85Q119.25 76.05 119.5 75.25Q119.7 74.55 120.5 73.35L120.65 73.35Q127.5 24.4 127.5 15.85Q128.15 12.65 128.05 9.6L127.85 7L127 6.75L126.35 6.7L126.25 5.1L126.45 3.65Q125.65 2.65 124.5 2.25Q125.2 -0.1 126.2 -2.3Q127.4 -5 128.25 -5.5Q128.9 -3.95 129.45 0L129.85 -0.25M534.8,32.45L535.1 35Q535.1 37.2 527.6 41.25Q519.25 45.75 511.85 45.75L505.7 45.55L501 45Q487.3 43.85 477.6 35.5Q473.9 32.35 471.7 28.85Q470.45 26.85 470 25.4L468.55 25Q466.6 24.35 466.6 23.15L467 20.85Q467 19.3 467.15 18.6L467.25 18.25L470.65 18.4Q472.35 13.3 477.4 9.4Q484 4.35 494.3 2.4Q503.8 0.55 511.2 2.2Q518.85 3.85 518.85 8.25Q518.85 9.9 518.45 10.45L517.1 11.75Q514.85 9.95 513.2 9.05Q510.25 7.5 505 7.5Q491.45 7.5 481.8 13.75Q477.95 16.25 475.95 18.55Q496.05 19.1 521.1 18.5L521.8 19.5L522.1 21.85Q522.1 23.45 521.75 24.25L520.85 25.75L506.75 26.35L499 26.75Q483.2 26.75 475.25 26.1Q478.15 28.8 486.8 32.55Q498 37.45 502 38Q518.35 36.4 524.85 34.35L534.1 31.25L534.8 32.45M521.3,81.25Q505.85 60.35 469.5 60.35Q430.4 60.35 418.5 90.6Q412.45 105.9 414.25 122.5Q414.25 152.85 434.4 186.65Q442.05 199.5 455 217L478.7 248.25Q509.05 288.75 522.95 319.35Q543.1 363.7 543.1 412Q543.1 433.3 541.25 443.3L532.1 480.6Q529.5 491.3 526.65 497.85Q522.65 507.15 516.1 514.35Q508.9 522.25 487.55 531.55Q463.8 541.85 447 541.85Q427.65 541.85 417.6 538.4Q408 535.1 403.15 527.3Q399.35 521.2 395.95 507.25L388.5 477.1Q389.05 476.25 389.75 477.6Q390.75 475.85 391.5 475.1Q392.75 477.85 395 488.55Q397.5 500.4 399.75 506.75Q407.9 529.6 426.5 529.6Q495.45 529.6 520.65 493.65Q531.2 478.6 535.35 455.75Q538.6 438.05 538.6 410.75Q538.6 366.6 518.5 324.95Q505.35 297.7 474.3 256.65L450.7 225.15Q437.95 207.45 430.1 193.3Q410 157.15 410 122.35Q410 99.1 416.85 80.05Q428.95 46.4 458 50.1Q502.5 48.6 521.55 68.8Q533.35 81.3 533.35 98.25Q533.35 102 532.1 103.85Q531.5 103.5 528.85 96.1Q525.8 87.35 521.3 81.25M412.15,4.7Q412.5 5.55 412.5 7.25Q412.5 7.6 395.05 20Q376.75 33.05 369.25 37.75L369.5 38L402.45 40.15L412 40.5Q412.8 40.5 414.65 41.3Q416.65 42.1 420.5 42.25Q422.7 43.7 423.65 45.05Q424.5 46.3 424.5 47.75Q424.5 49.5 424.05 50.25L422.5 51.6L421 50.1L392.65 48.2L358.5 44.5L357.8 43.45Q357.5 42.7 357.5 41.1Q357.5 37.8 376.15 24.45Q386 17.4 397.5 10L384.85 9.45Q374.55 9.3 373.5 9.5L372.95 8.3L372.75 5.75Q372.75 2.95 375 1.25L396.6 2.1L411.25 3.5L412.15 4.7M358.5,23.5Q357.25 19.5 355.15 16.35Q351.15 10.25 345 10.25Q319.3 10.25 312.5 67.4Q309.65 91.4 310.35 118.25L310.5 117.25L311.5 115.35L340.5 114.6L353.5 112.65Q354.95 112.7 355.4 113.65Q355.75 114.45 355.75 116.85L355.5 119.5Q354.75 121.65 352 122.6Q343.5 123.1 339 124.6L311.5 124.35L310.5 122.5L310.45 122.25L310.75 129.6Q310.75 169.1 311.55 180.7Q314.1 217.05 324 223.6Q350.9 216.55 356.8 205Q358.8 201.1 359.35 194.6Q360.05 185.8 360.5 183.85L361.05 183.4L362 182.35Q361.7 185.5 362.2 191.25L362.75 198.1Q362.75 199.65 361.05 204.7Q358.8 211.25 355.55 216.9Q345.6 233.85 331 233.85L323.5 233.6Q311.45 227.7 308.3 186.75Q307.2 173 307.15 154.45L307.25 130.35Q307.25 100.35 307.45 91.15Q308.1 64.75 310.5 56.1L315.05 37.75Q318 26 321 18.75Q325.4 8.3 332.45 4.2Q338.5 0.7 345.45 2.35Q351.65 3.85 356.1 8.7Q360.5 13.5 360.5 18.75Q360.5 21.9 358.5 23.5M370.75,139.6L370.8 137.75L371 136.85L374.25 139Q374.25 137.3 374.95 136.35Q375.55 135.6 376.25 135.6L376.5 140.6Q390.2 150.65 400.7 166Q410.75 180.65 417 198.85Q423.75 212.6 425.7 231.9Q426.75 241.95 426.75 264.5Q426.75 267.85 423.6 276.3Q419.75 286.65 414 295.6Q397.4 321.6 375 321.6L365.5 321.35Q364.45 320.3 363.95 318.75L363.4 316.45Q363 315.3 361.35 315.4L364.5 314.55Q364.55 302.1 369.15 264.1L374.5 218.85L374.5 165.6L374.45 149.85L374.4 146.35Q370.75 141.45 370.75 139.6M376.8,149.4Q377.35 167.15 377.5 194.5Q377.5 230.2 375.1 254.55Q373.8 267.9 367.3 313.75Q404 303.1 416.05 284.1Q421.25 275.9 422.75 264.95Q423.5 259.3 423.5 245.85Q423.5 209.9 397.15 174.15Q392.2 167.5 379 152.05L376.8 149.4M324.5,314Q324.5 323.55 322.3 328.65Q318.9 336.5 310.65 338.6Q314.65 349.1 321.15 367.7Q334.75 406.75 334.75 414.75L334.5 418.1L333.95 418.55L333 419.35Q326.45 402.35 315.15 368.65Q308.55 348.9 305.7 339.3L304 339.35Q290 339.35 285.35 337.35Q279.75 373.4 266.75 412.1L265.5 412.35Q264.25 410.5 264.25 406.75Q264.25 405.15 267.65 391.9Q272.4 373.4 275.15 361.25Q286 312.6 286 277.75Q286 275.8 286.55 274.25Q287.1 272.7 288.1 271.95Q288.95 271.1 290.2 270.65Q293.6 269.55 299.15 271.75Q311.5 276.75 319.5 288.85Q323.3 295.15 324.2 302.1Q324.5 304.5 324.5 314M287.15,48.05L287.25 51.25L284.6 67.5L288.75 67.35L289 68.4L289.25 70.75Q289.25 72.3 283.3 74.65L279.25 97.35L278.5 97.35L277.2 94.05Q276.5 92.15 276.5 90.6Q276.5 88.65 279.05 76.05Q274.15 77.35 269 77.35L264.2 77.2L263.95 81.3Q263.3 85.4 259.25 96.1L258 96.1Q257.75 94.6 257.75 92Q257.75 88.65 259.75 81.15L260.95 76.2L260.6 75.45Q260.25 74.6 260.25 73Q260.25 71.4 260.95 70.7Q261.1 70.55 261.75 70.25Q261.75 68.95 260.65 65.95Q259.5 62.85 259.5 61.6Q259.5 60.65 260.4 59.75Q261.45 58.6 263.25 58.6Q264.25 62.35 264.25 69.85L264.25 70Q275.2 69.45 280.65 68.25Q284.1 51.9 286.25 45Q286.95 46.55 287.15 48.05M267.1,47.5L267.25 49.85Q267.25 51.45 266.9 52.05L266 53.35L248.95 53.25L249.25 57.1Q249.25 62.6 243.25 93.85L242.8 94.3L242 95.1Q239.5 91.1 239.5 87.85L242.5 72.2Q245 58.6 245.45 53.2L232 53.1L229.55 50.85Q229 50.3 229 50Q229 48.45 229.15 47.55L229.25 47Q259.45 46.1 263.65 46.4Q266.55 46.65 267.1 47.5M282.25,36.5L274.85 26.05Q268.95 18.05 263.25 13.25Q258.65 13.65 255.05 11.9Q251.05 10 246 10Q212.95 10 190.55 67.65Q183.15 86.7 177.7 110.25Q174.3 124.95 172.75 135.85Q168.65 164.65 167.65 200.75Q167.45 207.45 167.4 221.4Q170.35 220.05 177 221.85L222 221.6Q226.65 219.3 228.4 222.45Q229.25 224 229.25 226.75Q229.25 228.75 222 233.6L178 233.6L168 232.6L167.35 231.95L167.25 264.85L166.65 309.3Q166.75 360.55 170.25 402.9Q175.15 461.95 186.15 495.6Q199.9 537.6 222.5 537.6Q261.8 537.6 278.5 508.1Q283.8 498.7 286.15 487.25Q287.5 480.7 287.5 476.6Q287.5 474.4 288.25 473.45Q289.2 472.15 292.25 471.1Q288.5 476.05 288.5 476.25Q288.5 476.7 290.4 481.25Q292.25 486.55 292.25 490.5Q292.25 493.05 289 501.4Q284.8 512.3 278.5 521.6Q259.45 549.85 231 549.85Q213.05 549.85 202.55 543.65Q193.6 538.35 188.8 527.55Q185.6 520.45 182.5 505.4Q178.95 488.25 176.5 481.1Q171.15 465.55 168.75 445.15Q168.15 440.15 165.75 409.1Q162.75 369.85 162.45 333.7L162.75 265.1Q162.75 205.4 163.25 190.55Q164.7 147.65 171 115.1Q172.7 98.8 180.35 77.95Q186.1 62.25 196.75 40.25Q206.85 19.35 222.5 9.5Q235.95 1 250.95 2.1Q264.5 3.1 274 11.25Q283.5 19.4 283.5 30.1L283.35 33.4Q283.1 34.95 282.25 36.5M287.9,97.3Q289.85 96.55 292 95.1Q293.55 95.9 294 96.55Q294.5 97.3 294.5 99.1Q294.5 100.25 268.3 118.85L237.5 140.35Q233.8 131.75 223.15 114.95L213.25 99.75Q213.25 96.25 215.5 94.35Q221.2 102.25 227.75 112.55Q235.4 124.55 239 131.85Q250 123.9 273.75 109.4Q280.6 105.25 283.2 103Q286.5 100.2 286.5 97.85L287.9 97.3M223.05,46.8L223.25 49.35L222.95 52.35L222.25 54.6L222.25 69.1L229.75 68.6L230 69.65L230.25 72Q230.25 74.55 229 75.35Q227.1 76.55 222.25 77.05L222.25 92.85L221.25 95.1L220 95.1L219.8 77.25L214.5 77.35Q209.45 77.35 207.25 76.2Q200.35 86.95 197 92.6Q194 90.6 194 89.75Q194 88.3 204.3 71.75Q215.2 54.2 222.25 45L223.05 46.8M219.7,69.4L219.5 56.85L211.05 70.3L218.55 69.5L219.7 69.4M130.1,7.55L130.5 15.5Q130.5 29 124.2 72.95Q147.75 69.75 157.25 57Q163.25 48.95 163.25 37.1Q163.25 20.1 152.15 14.15Q148.15 12 140.55 10.15L130.1 7.55M100.25,43Q104.05 49 106.15 68.35Q107.75 82.95 107.75 96.5Q107.75 116.25 101.2 134.25Q95.1 151.2 84.05 164.4Q75.3 174.85 64.7 181.5Q100.5 199.05 116.6 261.9Q128 306.3 128 363.75Q128 373.55 125 395.7Q120.2 430.9 110.8 460.1Q97.8 500.35 77.7 523.3Q52.7 551.85 18 551.85L11.5 551.6Q10.2 550.45 9.6 549.2L9.45 548.85L8.45 546.7Q7.3 542.75 6.5 541.1L6.5 540.8Q6.5 541.1 8 541.1Q10.3 541.1 10.25 530.25Q10.15 516.5 11 513.35L11 445.1L14.5 398.45Q16.65 367.75 18 352.1L18 268.1Q20.7 176.75 24.25 4.5Q26.75 7.3 26.75 11.6Q26.75 39.3 26.4 61.5Q26 83.7 26 103.35Q26 139.15 25.05 181.55Q30.3 179.25 42.2 176.25Q65.3 170.55 67.75 168.35Q75.7 161.3 80.25 156.7Q86.45 150.45 91 144.35Q99.2 133.3 102.15 120.25Q104.25 111 104.25 96.35Q104.25 91.9 102 72.95Q99.8 54.95 99.25 52.85Q95.15 39.9 85.9 31.5Q72.25 19.05 47 15.25Q33.25 14.65 29.35 12.6Q27.25 11.45 27.25 8.25Q27.25 2.15 40.25 4.45Q50.95 6.3 80 16Q88.4 21.6 93.2 29.7Q95.95 34.25 100.25 43M25.5,191.35L24.85 190.7Q23.75 235.85 22 272.85L22 356.1Q20.5 373.2 18.45 403.2L15 450.6L15 518.85Q13.85 523.2 14 535L13.95 539.4Q44.8 531.85 63.6 521.15Q79.95 511.8 88.65 499.05Q94.65 490.3 99.2 475.6Q104.65 458.05 107.25 452.85Q109.3 448.6 116.6 410.3Q124 371.4 124 363.25Q124 343.3 121.45 318.65Q119.55 300.45 115.5 273.6Q113.45 260.25 105.95 244Q98.9 228.75 89.05 215Q79.15 201.15 69.6 193.45Q61.7 187.05 55.75 186.3Q44 191.6 32 191.6L25.5 191.35M118.25,184.85Q118.25 184 119.05 183.35Q119.9 182.6 122.25 181.6Q124.55 185.05 125.05 189.5Q125.25 191.05 125.25 197.35L124.55 207.2Q123.75 215.85 122.75 221.35L122.75 221.85L124.45 221.5L128 221.1L148.25 223.35Q149.6 224.5 150.65 226.2Q151.5 227.6 151.5 228.1L151.7 230.8Q151.6 231.6 150 231.6L137.4 230.6L127 229.6L119.5 229.35L118.95 227.7L118.75 225.25Q118.75 223.35 120.75 211.85Q122.75 200.3 122.75 197.1Q122.75 196.15 120.5 190.75Q118.25 185.35 118.25 184.85M105.5,222.35L104.75 220.1L105.75 222.3L105.5 222.35M144.75,334.75Q144.75 332 142.9 327.5Q141 323 141 322Q141 320.45 141.15 319.75L141.25 319.35Q145.75 318.65 146.9 325Q147.25 327.1 147.25 335Q147.25 341.15 145.25 353.1L142.25 369.1Q140.9 368.15 140.25 363.9L139.5 357.85L140.5 358L141.5 358.35Q141.7 356 143.25 345.5L144.75 334.75M246.5,271.55Q249.5 302.05 249.5 318.75Q249.5 325.85 248.25 328.85Q245.65 311.9 242.3 275.4L239 275.6L223 274.35L222.85 273.1Q206.55 308 198 324.1Q197.1 323.2 196.8 322.05Q196.5 321.05 196.5 319.1Q196.5 316.9 205.75 297.4Q213.2 281.6 218.25 271.85Q219.6 269.25 228.3 247.85Q234.55 232.45 240.25 226.1Q241.05 227.3 241.25 228L241.5 230.6L240.75 233.1Q243.5 242.65 246.1 267.8Q246.5 268.6 246.5 270.85L246.5 271.55M289.4,279.45L289.5 284.6Q289.5 306.4 286.5 329.3L287.2 329.4L292 330.1L303.55 329.45Q303.6 328.3 303.8 327.65Q304.2 326.55 305.25 325.85L306.75 328.9Q316.2 327.05 319.8 322.4Q321.7 319.9 321.8 316.7L321.5 313.35Q321.5 298.5 304 287.4Q300.35 285.1 291.95 280.8L289.4 279.45M241.55,267.35Q239.65 245.95 239.05 237.35L225.3 267.8Q232.8 268.2 241.55 267.35M202,389.6Q216.85 389.75 225.55 390.05L232.75 390.35L233 391.4L233.25 393.75Q233.25 396.25 233 396.35L232.35 396.85L230 397.35L224.25 396.8L203.8 396.15L205.35 398.85Q209.55 405.75 212.75 408.1L231.25 407.85Q232.75 407.2 236.35 404.2L240.25 401.1L240.8 401.95Q241 402.45 241 404.1Q241 406.6 237.8 409.75L231 415.35L211.5 415.1Q204.55 412.1 201.25 403.35Q198.75 396.9 198.75 389.35Q198.75 382.35 201.95 376.5Q206.4 368.35 216 365.6Q228.75 366.2 231.3 368.65Q231.95 369.3 232.5 370.85Q233 372.35 234 373.1L234 377.6L233.55 378Q233.1 378.45 232.5 378.6Q232.05 377.15 230.1 375.65L226 372.35L215.75 372.6L206.05 380.85Q201.25 385.55 201.25 389.5L201.3 389.9L202 389.6M300.15,504.7Q300 504.3 300 502.75Q300 501.05 313.65 482.1Q329.2 460.5 332 455.6Q336.2 448.3 343.65 431.9Q350.65 416.5 354.25 410.6Q354.8 417.65 361.4 457.95L363.45 458.75Q365.25 459.85 365.25 462.35L365 465.35L365.25 465.75Q365.4 466.1 363.85 466.1L362.75 466Q369.25 505.7 369.25 508.1L369 511.85L368.5 512.15L368 512.6Q360.75 494.5 357.4 468.1L357.15 465.45L351.4 464.8L333.5 463.1L332.95 461.9L332.9 461.65L331.35 464.45Q317.8 488.7 300.5 505.35L300.15 504.7M316,520.6L339.25 520.85L339.95 521.7Q340.25 522.25 340.25 523.85Q340.25 525.45 339.95 526L339.25 526.85L315.5 526.85L314.95 526Q314.75 525.55 314.75 524.15L314.5 526.85Q314.5 531.45 319.3 535.65Q325.6 541.1 337 541.1Q345.3 541.1 351.9 537.75Q355.25 536.05 358 534.1L359.25 534.6L355.15 541.35Q352 545.25 345.25 548.1L336.5 548.1Q323.15 548.2 316.5 539.6Q311.75 533.5 311.75 526.35Q311.75 516.85 317.45 509.85Q322.55 503.65 330.25 501.35Q337.8 499.15 343.6 501.85Q349.95 504.8 351 512.35L350.6 512.8L350 513.6L344.75 509.95Q340.65 507.1 340.1 507.1Q325.85 507.1 318.95 515.65Q316.9 518.15 315.85 520.7L316 520.6M504.65,423L507.25 435.35Q508.05 438.05 513.25 448.5Q518.1 458.25 518.1 459L517.8 461.35L517.1 462.35Q510.15 455.45 506.45 441.45L503.4 430.05Q501.45 423.5 498.75 418.85L473.5 440.45Q457.95 454.2 451 463.35Q445 455.2 442.5 442.2Q440.5 427.1 439 419.6Q432.55 426.05 420.15 440.2Q408.5 452.85 398 460.1Q396.4 458.75 395.55 457.25Q395 456.25 395 455.75L411 440.45Q429.1 422.9 438.5 411.6Q441.95 417.8 444.7 432.5Q447.6 447.95 451 455.1Q457.35 448.4 474.25 432.9L498 411.1Q502.85 415.55 504.65 423M495.95,463.4L496.25 465.75Q496.25 472.15 475.95 489.75Q465.55 498.7 453 508.35Q446.6 501.85 443.05 489.05L440.25 479Q438.5 473.35 436.25 469.6Q434.45 472.55 427.6 488.3Q422 501.15 416.5 507.35Q416 505.85 416 503.6Q416 501.75 422.65 487.05Q430.25 470.3 436.25 461.85Q437.75 464.4 439.95 471.25L443.8 484.05Q448.9 500.1 453 500.1Q454.6 500.1 471.05 484.7Q491.75 465.3 495.25 462.35L495.95 463.4M342.15,443.65L335.85 456.15L356.35 457.4Q354.15 435.2 352.5 423.1Q349.6 428.55 342.15 443.65" />
</g>
</svg>
