<?xml version="1.0" encoding="utf-8"?>
<svg version="1.1" id="Layer_1"
xmlns="http://www.w3.org/2000/svg"
xmlns:xlink="http://www.w3.org/1999/xlink"


xml:space="preserve">
q-29.15 5.05 -38.35 33.95q-13.75 43.25 -9.6 89.8q1.3 14.1 3.4 28q3.7 24.15 25.15 34.55q25.75 12.6 47.9 -2.2q13.7 -9.1 19.5 -20.95q-3 14.6 2.5 25.05q8.25 -31.3 4.35 -62.9q-17.65 -2.2 -32.5 5.25q-1.95 4 0.5 7.5q11.35 -0.5 22.8 -0.15q-0.6 9.45 -5.6 17.45q-16.9 27.15 -48.65 22.6q-11.95 -1.75 -18.85 -11q-14.6 -19.5 -16.45 -44.75q-3 -42.1 10 -80.9q5.8 -17.15 22.8 -23.2q37.85 -13.45 61.95 12.25q0.8 -11.45 -8.9 -19.5q-4.4 -3.65 -9.1 -6.5q-14.85 -3.05 -30.5 -2.95q-1 19 -2.5 38q-1.7 21.05 -2.5 42q-0.3 7.4 3.55 13.25q15.9 3.75 32.4 -2.25q4.1 -1.9 7.35 -5.05q2.5 -2.4 4.45 -5.35q7.15 -11.05 9.9 -24.05q7.45 -35.15 -17.25 -60.9q10.4 -10.95 10.25 -26.2q-0.4 -5.1 -1.35 -10.15q-0.65 -3.65 -1.65 -7.2q-3.6 -13.15 -11.7 -24.1q-12.1 -16.4 -32.6 -15.6q-8.25 7.85 -5.45 29.85q2.65 20.55 2.55 41.55q-0.05 12.45 -0.65 23.7q1.15 -24.65 -2.3 -48.15q16.6 2.3 29.35 14.1q3.7 5.75 5.85 12.2q3.75 13.65 -4.65 24.3q-12.25 15.45 -33.2 15.15q0.55 -14.85 1.25 -29.75q7.45 0.8 14.95 -1.25q6.7 -1.85 11.95 -4.75q17 11.95 19.75 32.15q2.55 18.2 -9.45 31.85q-17.15 19.65 -43.9 15.5q3.5 -27.2 4.3 -55.75q-7.45 -26.5 -35.75 -25.75q-59.7 50.35 -51.4 128.55q2.65 24.95 16.65 45.2q3.2 4.65 7.95 7.55q5.75 3.45 12.1 4.6q7.15 -0.5 14.05 -2.25q15.7 -4 25.95 -16.15q7.25 -8.55 3.7 -19.25q-21.3 30 -55.55 18.75q-22.75 -7.4 -25.35 -33.7q-1.15 -11.25 -0.85 -22.75q3.2 -15.2 -2.4 -31.6q1.45 -2.25 1.7 -4.95q0.4 -3.85 -1.25 -7.1q7.2 -16.3 6.25 -31.55q9.05 -43.85 43.2 -72.75q20.05 0.7 35.8 12.3<g id="344" transform="matrix(1, 0, 0, 1, -138.85, 0)">
<path style="fill:#000000;fill-opacity:1" d="M396.45,186.7L399.45 187.25Q404.15 190.1 408.55 193.75Q418.25 201.8 417.45 213.25Q393.35 187.55 355.5 201Q338.5 207.05 332.7 224.2Q319.7 263 322.7 305.1Q324.55 330.35 339.15 349.85Q346.05 359.1 358 360.85Q389.75 365.4 406.65 338.25Q411.65 330.25 412.25 320.8Q400.8 320.45 389.45 320.95Q387 317.45 388.95 313.45Q403.8 306 421.45 308.2Q425.35 339.8 417.1 371.1L416.45 371.95Q410.95 361.5 413.95 346.9Q408.15 358.75 394.45 367.85Q372.3 382.65 346.55 370.05Q325.1 359.65 321.4 335.5Q319.3 321.6 318 307.5Q313.85 260.95 327.6 217.7Q336.8 188.8 365.95 183.75Q381.6 183.65 396.45 186.7M144.8,251.55Q144.9 230.55 142.25 210Q139.45 188 147.7 180.15Q168.2 179.35 180.3 195.75Q188.4 206.7 192 219.85Q193 223.4 193.65 227.05Q194.6 232.1 195 237.2L195.2 242.5Q195.35 257.75 184.95 268.7Q209.65 294.45 202.2 329.6Q199.45 342.6 192.3 353.65Q190.35 356.6 187.85 359Q184.6 362.15 180.5 364.05L175.1 366.25Q158.6 372.25 142.7 368.5Q138.85 362.65 139.15 355.25Q139.95 334.3 141.65 313.25Q143.15 294.25 144.15 275.25Q144.75 264 144.8 251.55M150.45,268.3Q171.4 268.6 183.65 253.15Q192.05 242.5 188.3 228.85L184.6 216.7Q182.45 210.25 178.75 204.5Q166 192.7 149.4 190.4Q152.85 213.9 151.7 238.55Q151 253.45 150.45 268.3M145.15,354.2Q171.9 358.35 189.05 338.7Q201.05 325.05 198.5 306.85Q195.75 286.65 178.75 274.7L176.9 274.7Q171.65 277.6 164.95 279.45Q157.45 281.5 150 280.7L149.45 298.45Q148.65 327 145.15 354.2M302.5,207.3Q286.75 195.7 266.7 195Q232.55 223.9 223.5 267.75L249.55 266.1L263.4 233.85Q264.35 249.1 257.15 265.4L264.1 264.7L264.95 235.45L267.3 264.35L299.2 265.65L299.65 266.4Q301.3 269.65 300.9 273.5Q300.65 276.2 299.2 278.45L268.8 278.1Q274.4 294.5 271.2 309.7L265.2 278.1L251.6 278.15L242.95 304.7L246.05 278.2L221.8 278.7L221.2 291.7Q220.9 303.2 222.05 314.45Q224.65 340.75 247.4 348.15Q281.65 359.4 302.95 329.4L306.2 330.2Q309.75 340.9 302.5 349.45Q292.25 361.6 276.55 365.6Q269.65 367.35 262.5 367.85L252.25 367.4Q245.9 366.25 240.15 362.8Q235.4 359.9 232.2 355.25Q218.2 335 215.55 310.05Q207.25 231.85 266.95 181.5Q295.25 180.75 302.7 207.25L302.5 207.3" />
</g>
</svg>
