<?xml version="1.0" encoding="utf-8"?>
<svg version="1.1" id="Layer_1"
xmlns="http://www.w3.org/2000/svg"
xmlns:xlink="http://www.w3.org/1999/xlink"


xml:space="preserve">
q-2.05 29.8 -6.3 59q-2.35 16.3 1.65 29.9q1.6 -2.05 2.65 -4.45q0.6 1.2 1.85 2.2q3.9 -8.75 -2.7 -13.75q-3.95 -0.95 -8.15 -0.1q-23.4 -2.8 -40.85 8.4q3.95 -58.7 6.8 -117.95q1.45 -30.6 -1.9 -59.2q-3.35 10.2 -3 23.25q1.1 38.95 -1.6 77.3q-0.75 1.35 -0.65 2.95q-0.05 1.3 0.35 2.55q-1.9 16.3 -2.75 33.2q-0.5 9.2 0.7 17.1q-1 2.2 -1.25 4.7q-0.85 7.7 5.5 12q16.7 3.6 33.75 0.25q24.7 -4.85 32.75 -27.35q4.4 -12.3 5.05 -25.8q1.85 -38.2 -27.95 -55.35q14.05 -14.1 12.6 -38.65q-1.85 -30.25 -30.2 -44.3q-38.35 9.55 -47.15 49.15q-8.15 36.5 -6.85 75.1q0.9 28 19.95 47.55q18.45 18.95 44.55 10.4q8.3 -2.75 16.15 -6.7q22.95 -11.5 14.35 -32.05q-4.4 9.35 -13 15.65q-11.1 8.15 -24.25 10.35q-28.1 4.75 -41.05 -18.4q-12.9 -23.1 -11.75 -50.9q27.95 -3.25 53.95 -1.9q2.25 -4.2 1.25 -8.95q-0.35 -1.65 -1.25 -3q-5.4 -2.55 -11.45 -2.15q-20.85 -0.6 -40.6 5.35q2.95 -22.45 11.1 -43.6q8.5 -15.9 24.8 -22.35q30.45 -12.1 47.95 10.6q2.15 -8.4 -3.3 -15.75q-3.6 -4.85 -8.45 -8.25q-10.7 -3.8 -22.3 -3.1q1.75 -17.3 0 -34.6q21.25 1.3 35.65 17.35q5.55 6.15 7.15 14.35q3.75 18.9 -10.85 33.2q-7.9 7.8 -20.25 10.35q-7.45 1.45 -14.95 0.35q1.15 -20.5 3.25 -41q9.8 3.65 19.85 -0.15q7.05 -2.65 12.6 -6.3q6.35 3.7 11.35 8.65q14.55 14.55 15.85 36.25q1.05 18.35 -11.9 29.8q-23.25 20.55 -54.7 10<g id="346" transform="matrix(1, 0, 0, 1, -138.15, 0)">
<path style="fill:#000000;fill-opacity:1" d="M353.2,203.25Q352.85 190.2 356.2 180Q359.55 208.6 358.1 239.2Q355.25 298.45 351.3 357.15Q368.75 345.95 392.15 348.75L411.8 348.1Q416 347.25 419.95 348.2Q426.55 353.2 422.65 361.95L422.2 362.7L351.45 367.2Q350.2 366.2 349.6 365Q348.55 367.4 346.95 369.45Q342.95 355.85 345.3 339.55Q349.55 310.35 351.6 280.55Q354.3 242.2 353.2 203.25M170.5,182.75Q198.85 196.8 200.7 227.05Q202.15 251.6 188.1 265.7Q217.9 282.85 216.05 321.05Q215.4 334.55 211 346.85Q202.95 369.35 178.25 374.2Q161.2 377.55 144.5 373.95Q138.15 369.65 139 361.95Q139.25 359.45 140.25 357.25Q139.05 349.35 139.55 340.15L145.8 221.75Q146.65 204.85 148.55 188.55Q148.15 187.3 148.2 186L148.2 184.5Q148.1 182.9 148.85 181.55L149.55 180.65L149.95 177.55L150.5 177.5L150.95 180.4L165.25 182.2L170.5 182.75M308.25,186.6L310.45 187.25Q315.3 190.65 318.9 195.5Q324.35 202.85 322.2 211.25Q304.7 188.55 274.25 200.65Q257.95 207.1 249.45 223Q241.3 244.15 238.35 266.6Q258.1 260.65 278.95 261.25Q285 260.85 290.4 263.4L291.2 264Q292.1 265.35 292.45 267Q293.45 271.75 291.2 275.95Q265.2 274.6 237.25 277.85L236.9 283.65Q235.75 311.45 248.65 334.55Q261.6 357.7 289.7 352.95Q302.85 350.75 313.95 342.6Q322.55 336.3 326.95 326.95Q335.55 347.5 312.6 359Q304.75 362.95 296.45 365.7Q270.35 374.25 251.9 355.3Q232.85 335.75 231.95 307.75Q230.65 269.15 238.8 232.65Q247.6 193.05 285.95 183.5Q297.55 182.8 308.25 186.6M148.95,266.2Q156.45 267.3 163.9 265.85Q176.25 263.3 184.15 255.5Q198.75 241.2 195 222.3Q193.4 214.1 187.85 207.95Q173.45 191.9 152.2 190.6Q153.95 207.9 152.2 225.2Q150.1 245.7 148.95 266.2M145.1,358.4Q176.55 368.95 199.8 348.4Q212.75 336.95 211.7 318.6Q210.4 296.9 195.85 282.35Q190.85 277.4 184.5 273.7L180.95 271.55Q175.4 275.2 168.35 277.85Q158.3 281.65 148.5 278L145.1 358.4" />
</g>
</svg>
