<?xml version="1.0" encoding="utf-8"?>
<svg version="1.1" id="Layer_1"
xmlns="http://www.w3.org/2000/svg"
xmlns:xlink="http://www.w3.org/1999/xlink"


xml:space="preserve">
q-4.05 42.65 -5 87.75q-0.6 30 -2.25 59.95q-1 17.4 5.25 29.05q4.25 -15.95 3.3 -33.8q-2.5 -44.95 1.8 -89.05q2.7 -27.55 -1.6 -53.9q0.55 -1.8 0.45 -3.7q-0.25 -1.65 -1.15 -3q-0.35 -0.4 -0.7 -0.4q-35.7 1.35 -70.55 -1.6q-8.05 -0.4 -15.5 2.15q-0.6 0.75 -1.05 1.6q-0.85 1.7 -0.95 3.65q-0.05 2.25 0.25 4.5q0.25 1.95 1.75 3q-5.4 15.5 1.1 26.65q3.55 -13.4 -0.85 -26.2q-2.6 35.7 -3.05 71.95q-5.7 7 -13.75 5q-4.45 -3.75 -5.25 -9q-1.6 -2.75 -4.25 -2.25q-5.35 15.95 8.25 27q5.7 2.55 10.5 -1.1q2.9 -2.2 4.45 -5q9.8 -17.4 8.65 -39q-1.35 -25.05 -4.35 -48.65q-1.1 0 -1.2 1.05q-6.3 22.7 -5.85 47.85q1.1 59.7 -2.1 119.15q-0.75 13.55 5 21.55q4.65 -34.55 4.5 -70.5q-0.2 -59.95 -0.75 -118.45q-0.75 0.1 -0.8 0.4q-1.15 59.45 -2.65 118.45q-0.6 22.85 -5.05 44.65q-2.8 13.5 3.05 21.85q34.7 -3.4 69.95 -4q3.65 -7 -0.6 -13.4q-34.6 -1.45 -67.6 4.6q3.8 -27.4 4.65 -55.6q1.85 -59.65 -1.25 -118.45q-1.85 0.35 -1.85 2.5<g id="3607" transform="matrix(1, 0, 0, 1, -135.9, 0)">
<path style="fill:#000000;fill-opacity:1" d="M334.7,194.25Q334.4 192 334.45 189.75Q334.55 187.8 335.4 186.1Q335.85 185.25 336.45 184.5Q343.9 181.95 351.95 182.35L351.95 182.25Q386.8 185.2 422.5 183.85Q422.85 183.85 423.2 184.25Q424.1 185.6 424.35 187.25L424.8 191.75Q424.9 193.65 424.35 195.45L423.7 197L378.2 197.2Q382.5 223.55 379.8 251.1Q375.5 295.2 378 340.15Q378.95 358 374.7 373.95Q368.45 362.3 369.45 344.9Q371.1 314.95 371.7 284.95Q372.65 239.85 376.7 197.2L336.45 197.25Q334.95 196.2 334.7 194.25M423.05,246.95L422.7 247.75Q416.2 236.6 421.6 221.1L422.2 220.75Q426.6 233.55 423.05 246.95M419.2,273.95Q422.2 297.55 423.55 322.6Q424.7 344.2 414.9 361.6Q413.35 364.4 410.45 366.6Q405.65 370.25 399.95 367.7Q386.35 356.65 391.7 340.7Q394.35 340.2 395.95 342.95Q396.75 348.2 401.2 351.95Q409.25 353.95 414.95 346.95Q415.4 310.7 418 275Q418.1 273.95 419.2 273.95M283.45,184.5Q284 243 284.2 302.95Q284.35 338.9 279.7 373.45Q273.95 365.45 274.7 351.9Q277.9 292.45 276.8 232.75Q276.35 207.6 282.65 184.9Q282.7 184.6 283.45 184.5M148.25,180.5Q151.35 239.3 149.5 298.95Q148.65 327.15 144.85 354.55Q177.85 348.5 212.45 349.95Q216.7 356.35 213.05 363.35L212.45 363.95Q177.2 364.55 142.5 367.95L142.1 367.4L141.75 367.95Q135.9 359.6 138.7 346.1Q143.15 324.3 143.75 301.45Q145.25 242.45 146.4 183Q146.4 180.85 148.25 180.5" />
</g>
</svg>
