<?xml version="1.0" encoding="utf-8"?>
<svg version="1.1" id="Layer_1"
xmlns="http://www.w3.org/2000/svg"
xmlns:xlink="http://www.w3.org/1999/xlink"


xml:space="preserve">
q-13.15 52.9 -23.7 107.5q-10.5 54.2 -26.15 106.8q-7.75 -50.95 -14.25 -102.1q-6.3 -48.9 -12.25 -97.4q0.35 -7.05 -0.4 -13.8q-0.7 5.15 -1.05 10.4q-2.8 5.15 -4 11.75q-10.1 57.6 -25.55 114.4q-15.65 57.5 -32.55 114.8q-4.25 14.4 -9.2 28.4q-5.7 16.05 0.1 29.45q8.35 -21.1 14.1 -44.25q14.2 -57.45 29.95 -114.45q15.05 -54.65 27.2 -109.65q0.45 6.25 1.3 12.7q3.9 29.6 5.9 59.35q0.6 9.45 3.15 17.25q0.8 5.15 3.25 9.65q2.5 -7.95 2.35 -16.6q8.1 -31.1 15.45 -63.15q13.2 -57.55 24.5 -115.45q2.85 -14.6 5.95 -28.95q0.3 26.75 3 53.5q5.9 58.45 12.85 116.85q6.95 58.85 12.5 117.85q1.65 17.2 9.55 28.1q1.35 -1.55 1.1 -3.65q-5.4 -47.75 -11.3 -96.05q-7.1 -58.8 -12.95 -117.8q-5.8 -58.9 -13.6 -116.95q-7.05 -24.4 -34.4 -23.5q-22.8 6.6 -30.6 29.55q-16.1 47.4 -16.7 98.2q-0.7 59.4 8.8 117.6q1.25 7.7 5.6 14.2q15.55 23.2 41.15 4.5q7.55 -5.55 15.5 -10.3q19.8 -11.7 12.75 -29.75q-9.5 7.65 -18.9 16.35q-16.6 15.45 -38.5 13.95q-6.9 -0.5 -8.75 -7.3q-9.85 -36.4 -11.4 -74.75q-0.85 -21.4 0 -42.6q24.55 1.45 49.8 -1.4q2.7 -3.2 2.55 -7.55q-0.15 -4 -2.8 -6.7q-20.35 1.55 -40.55 5.55q1.85 -31.1 7.3 -61.8q3.15 -17.85 14.65 -31.5q19.9 -23.75 45.1 -6.5q1.85 0.25 3.45 1.15q2.8 1.6 3.95 3.6q-4.5 32.65 -5.65 68q-0.95 29.55 -2.75 59.15q-3.6 59.3 -1.1 118.6q0.6 2.6 3 2q1.2 -1.25 1.5 -3.05q1.25 -8.25 1.1 -16.45q-0.75 -51.95 0.8 -103.5q1.85 -59.65 5.35 -118q-0.25 -3.4 -2.25 -6q-3.35 24.1 -5.35 49.35q-4.65 59.35 -4.85 119.35q-0.25 59.45 -3.1 118.45q-1.5 31.1 4.35 59q2.2 -0.85 2.3 -3.5q0.55 1.65 2.15 2.6q5.7 -1.6 11.55 -1.9q0.95 1.2 2.25 1.9q4.15 -4.8 2.75 -11.35q-0.65 -2.95 -2.75 -5.15q-6.9 -2.95 -14.45 -2.4q-35 9.4 -73 5.1q-15.95 -1.85 -30.2 5.15q0.8 -59.35 0.7 -119.2q-0.1 -59.5 6.2 -118.35q3.3 -30.55 -1.05 -59.4<g id="3598" transform="matrix(1, 0, 0, 1, -69.15, 0)">
<path style="fill:#000000;fill-opacity:1" d="M339.2,87Q347 145.05 352.8 203.95Q358.65 262.95 365.75 321.75Q371.65 370.05 377.05 417.8Q377.3 419.9 375.95 421.45Q368.05 410.55 366.4 393.35Q360.85 334.35 353.9 275.5Q346.95 217.1 341.05 158.65Q338.35 131.9 338.05 105.15L336.95 111.1Q333.85 125.45 331 140.05Q319.7 197.95 306.5 255.5Q299.15 287.55 291.05 318.65Q291.2 327.3 288.7 335.25L287.3 332.8L286.95 334Q284.5 329.5 283.7 324.35Q281.15 316.55 280.55 307.1Q278.55 277.35 274.65 247.75L259.5 130.8Q258.65 124.35 258.2 118.1Q246.05 173.1 231 227.75Q215.25 284.75 201.05 342.2Q195.3 365.35 186.95 386.45Q181.15 373.05 186.85 357Q191.8 343 196.05 328.6Q212.95 271.3 228.6 213.8Q244.05 157 254.15 99.4Q255.35 92.8 258.15 87.65Q258.5 82.4 259.2 77.25L260.1 84.5L261.2 83Q261.95 89.75 261.6 96.8Q267.55 145.3 273.85 194.2Q280.35 245.35 288.1 296.3Q303.75 243.7 314.25 189.5Q324.8 134.9 337.95 82L338.7 87.05L339.2 87M466.45,139L465.85 139Q464.7 137 461.9 135.4Q460.3 134.5 458.45 134.25Q433.25 117 413.35 140.75Q401.85 154.4 398.7 172.25Q393.25 202.95 391.4 234.05Q411.6 230.05 431.95 228.5L440.45 228.75Q443.1 231.45 443.25 235.45Q443.4 239.8 440.7 243Q415.45 245.85 390.9 244.4Q390.05 265.6 390.9 287Q392.45 325.35 402.3 361.75Q404.15 368.55 411.05 369.05Q432.95 370.55 449.55 355.1Q458.95 346.4 468.45 338.75Q475.5 356.8 455.7 368.5Q447.75 373.25 440.2 378.8Q414.6 397.5 399.05 374.3Q394.7 367.8 393.45 360.1Q383.95 301.9 384.65 242.5Q385.25 191.7 401.35 144.3Q409.15 121.35 431.95 114.75Q459.3 113.85 466.35 138.25L466.45 139M183.45,96L183.45 96.75Q179.95 155.1 178.1 214.75Q176.55 266.3 177.3 318.25Q177.45 326.45 176.2 334.7Q175.9 336.5 174.7 337.75Q172.3 338.35 171.7 335.75Q169.2 276.45 172.8 217.15Q174.6 187.55 175.55 158Q176.7 122.65 181.2 90Q183.2 92.6 183.45 96M84.5,75.25Q88.85 104.1 85.55 134.65Q79.25 193.5 79.35 253Q79.45 312.85 78.65 372.2L77.7 408.15L78.75 405.45Q93 398.45 108.95 400.3Q146.95 404.6 181.95 395.2Q189.5 394.65 196.4 397.6L197.45 398.2Q199.55 400.4 200.2 403.35Q201.6 409.9 197.45 414.7L196.35 414.45Q195.05 413.75 194.1 412.55L193.45 411.95L91.05 417.8Q85.2 418.1 79.5 419.7Q77.9 418.75 77.35 417.1L77.3 417.95Q77.2 420.6 75 421.45Q69.15 393.55 70.65 362.45Q73.5 303.45 73.75 244Q73.95 184 78.6 124.65Q80.6 99.4 83.95 75.3L84.5 75.25" />
</g>
</svg>
