<?xml version="1.0" encoding="utf-8"?>
<svg version="1.1" id="Layer_1"
xmlns="http://www.w3.org/2000/svg"
xmlns:xlink="http://www.w3.org/1999/xlink"


xml:space="preserve">
q-10.65 0.65 -17.8 8.75q-32.1 36.5 -44.7 84.35q-15.15 57.85 -19.05 117.6q-3.5 52.8 22.2 97.95q3.8 6.65 11.1 9.5q26.85 10.55 51.7 -7.3q7.15 -5.2 15.15 -8.45q22.4 -9.05 13.85 -27.9q-3.35 0.25 -5.9 2.1q-19.5 14.1 -41.55 24.15q-33.65 15.4 -46.05 -16.8q-17.55 -45.5 -13.6 -95.5q1.85 -23.55 5.2 -46.9q30.25 5.15 60.65 0q3.25 -7 -1.2 -12.7q4.25 -26.95 10.5 -53.6q3 -12.8 6.65 -25.35q11.5 -39.35 41.6 -65.5q14.2 -3.9 28.75 -1.5q8.35 4.2 14.35 11.4q2 2.4 2.9 5.35q-0.1 0.75 0.1 1.4q-0.65 -7.6 -5 -15q-6.7 -11.6 -18.5 -18.75q-5.55 8.35 -5.5 20.5q0.1 59.55 -5.1 118.45q-5.2 59.05 -7.95 118.5q-1.3 27.85 -5 55.35q-16.15 -51.55 -29.25 -103.75q-12.5 -49.95 -24.25 -100.2q-13.45 -57.65 -24.2 -115.1q-0.95 -0.15 -0.9 0.7q-5.7 44.75 -5.5 92.5q0.2 59.5 -3.5 118.5q-3.7 59.35 -3.65 118.45q-1.8 5.8 0.5 11.25q1.45 2.1 3.75 1.25q3.55 -26.65 3.2 -54.75q-0.35 -27.4 1.5 -54.6q4.05 -58.85 4.85 -118.6q0.45 -29.9 1.8 -59.95q0.6 -12.2 0.35 -24.1q2.8 21.65 7.4 43.25q12.55 57.5 27.1 114.6q14.65 57.4 30.6 114.5q1.4 2.7 4 1.5q2.3 -6.8 1.95 -13.85q5.55 -47.9 7.2 -96.9q2 -59.6 6.75 -118.6q4.8 -59.65 4.35 -118.35q-2.65 59.45 -4.35 119.25q-1.65 59.5 -4.25 119.15q-0.75 17.4 5.5 29.05q3.35 -55.3 3.75 -111.7q0.45 -59.9 3.3 -119.3q0.7 -14.9 2.15 -29.75q1.3 -12.9 -1.95 -22.2q-3.75 6.8 -4.15 15.5q-5.55 34.3 -5.4 69.65q0.2 59.5 -2.15 118.5q-2.4 59.75 -5.85 119.25q-0.85 15 -3.2 29.75q-2.3 14.3 5.9 21.7q0.8 -0.8 1.1 -1.9q52.8 0.15 105.7 -0.5q2.1 -2.15 2.35 -5.2q-0.35 -2.8 -1.85 -5.15q-18.25 0 -36.5 0.45q-29.95 0.7 -59.95 -1.2q-6.3 2.75 -11.15 7.35q2.05 -51.55 4.65 -103.6q3 -59.55 4.3 -119.2q1.35 -60.05 0.7 -118.5q-0.75 0.1 -0.8 0.35<g id="3602" transform="matrix(1, 0, 0, 1, -63.8, 0)">
<path style="fill:#000000;fill-opacity:1" d="M437.45,85.6L441.45 86Q453.25 93.15 459.95 104.75Q464.3 112.15 464.95 119.75L464.65 120.45L464.1 121.05L463.8 121.15Q463.6 120.5 463.7 119.75L463.3 119.2L459.9 116.8L457.95 115.25Q457.05 112.3 455.05 109.9Q449.05 102.7 440.7 98.5Q426.15 96.1 411.95 100Q381.85 126.15 370.35 165.5Q366.7 178.05 363.7 190.85Q357.45 217.5 353.2 244.45L411.45 242Q415.9 247.7 412.65 254.7L412.2 255.5Q381.8 260.65 351.55 255.5Q348.2 278.85 346.35 302.4Q342.4 352.4 359.95 397.9Q372.35 430.1 406 414.7Q428.05 404.65 447.55 390.55Q450.1 388.7 453.45 388.45Q462 407.3 439.6 416.35Q431.6 419.6 424.45 424.8Q399.6 442.65 372.75 432.1Q365.45 429.25 361.65 422.6Q335.95 377.45 339.45 324.65L341.4 295.45Q345.3 235.7 360.45 177.85Q373.05 130 405.15 93.5Q412.3 85.4 422.95 84.75L437.45 85.6M327.1,197.85Q322.35 256.85 320.35 316.45Q318.7 365.45 313.15 413.35Q313.5 420.4 311.2 427.2Q308.6 428.4 307.2 425.7Q291.25 368.6 276.6 311.2Q262.05 254.1 249.5 196.6L240.05 152.7Q235.45 131.1 232.65 109.45Q232.9 121.35 232.3 133.55Q230.95 163.6 230.5 193.5Q229.7 253.25 225.65 312.1Q223.8 339.3 224.15 366.7Q224.5 394.8 220.95 421.45Q218.65 422.3 217.2 420.2Q214.9 414.75 216.7 408.95L216.95 408.2Q216.9 349.1 220.6 289.75Q224.3 230.75 224.1 171.25Q223.9 123.5 229.6 78.75L229.3 73.95Q229.25 73.1 230.2 73.25Q240.95 130.7 254.4 188.35Q266.15 238.6 278.65 288.55Q291.75 340.75 307.9 392.3Q311.6 364.8 312.9 336.95Q315.65 277.5 320.85 218.45Q326.05 159.55 325.95 100Q325.9 87.85 331.45 79.5Q331.9 138.2 327.1 197.85M173.95,83.25Q177.2 92.55 175.9 105.45Q174.45 120.3 173.75 135.2Q170.9 194.6 170.45 254.5Q170.05 310.9 166.7 366.2Q160.45 354.55 161.2 337.15Q163.8 277.5 165.45 218Q167.15 158.2 169.8 98.75Q170.2 90.05 173.95 83.25M83.5,70.25Q84.15 128.7 82.8 188.75Q81.5 248.4 78.5 307.95Q75.9 360 73.85 411.55Q78.7 406.95 85 404.2L92.45 403.55L94 403.2Q124 405.1 153.95 404.4Q172.2 403.95 190.45 403.95L191.3 404.85Q192.8 407.2 193.15 410L193.2 410.7L193.1 413.7L193.05 414.5Q192.8 417.55 190.7 419.7Q137.8 420.35 85 420.2L84.15 420.85L77.75 424.3L76.7 424.95L73.15 427.5L73.1 427.55Q72.8 428.65 72 429.45Q63.8 422.05 66.1 407.75Q68.45 393 69.3 378Q72.75 318.5 75.15 258.75Q77.5 199.75 77.3 140.25Q77.15 104.9 82.7 70.6Q82.75 70.35 83.5 70.25" />
</g>
</svg>
