<?xml version="1.0" encoding="utf-8"?>
<svg version="1.1" id="Layer_1"
xmlns="http://www.w3.org/2000/svg"
xmlns:xlink="http://www.w3.org/1999/xlink"


xml:space="preserve">
q30.65 0.25 39.65 31.95q4.6 16.3 -7.75 29.55q-13.65 14.75 -34.15 13.9q-13.8 92.55 -9.5 183.75q26.05 18.4 49.65 -4.5q20.85 -20.2 15.95 -49.75q-3.8 -22.8 -21.35 -38.1q18.95 -22.45 8.9 -51.8q-9.2 -26.8 -36.4 -35.4q21 9.8 25.85 32.35q5.05 23.55 -15.55 35.8q-19.4 11.5 -41.45 4.3q15.75 1.45 28.8 -7.55q-0.4 48.25 -2.2 96.7q-1 27.35 -13.55 51.05q-15.6 29.55 -43.45 12.95q-13.7 -20.15 -11.6 -45.85q4.9 -59.6 6.1 -117.6q-5.65 11.25 -6.45 25.65q-3.3 58.15 -3.8 117.05q-0.1 16.95 10.95 29.15q24.05 26.6 47.45 -0.75q6.35 -7.45 9 -16.75q16.1 -56.95 14.3 -117.35q-0.25 -7.65 0.1 -14.95q0.6 -13.7 -5.8 -21.55q-1.05 0.85 -1.05 2.25q-0.25 55.35 -4.9 110.15q-2.6 30.6 0.75 59.3q30.25 -3.2 59.95 -3.5q6.25 -8.6 -1 -16.25q0.15 -25.1 2 -49.5q4.45 -59.45 1.5 -117.7q-3.55 6.05 -3.6 15<g id="3434" transform="matrix(1, 0, 0, 1, -137.15, 0)">
<path style="fill:#000000;fill-opacity:1" d="M334.05,192.7L335.25 186.65L342.95 183.25Q370.15 191.85 379.35 218.65Q389.4 248 370.45 270.45Q388 285.75 391.8 308.55Q396.7 338.1 375.85 358.3Q352.25 381.2 326.2 362.8L323.45 368.2Q319.15 277 332.95 184.45L332.7 270.55Q353.2 271.4 366.85 256.65Q379.2 243.4 374.6 227.1Q365.6 195.4 334.95 195.15L334.05 192.7M331.9,285.5L327.45 349.7L329.55 350.4Q351.6 357.6 371 346.1Q391.6 333.85 386.55 310.3Q381.7 287.75 360.7 277.95Q347.65 286.95 331.9 285.5M298.95,185.75Q305.35 193.6 304.75 207.3Q304.4 214.6 304.65 222.25Q306.45 282.65 290.35 339.6Q287.7 348.9 281.35 356.35Q257.95 383.7 233.9 357.1Q222.85 344.9 222.95 327.95Q223.45 269.05 226.75 210.9Q227.55 196.5 233.2 185.25Q232 243.25 227.1 302.85Q225 328.55 238.7 348.7Q266.55 365.3 282.15 335.75Q294.7 312.05 295.7 284.7Q297.5 236.25 297.9 188Q297.9 186.6 298.95 185.75M148.25,181.75Q151.2 240 146.75 299.45Q144.9 323.85 144.75 348.95L199.45 346.45Q206.7 354.1 200.45 362.7Q170.75 363 140.5 366.2Q137.15 337.5 139.75 306.9Q144.4 252.1 144.65 196.75Q144.7 187.8 148.25 181.75" />
</g>
</svg>
