<?xml version="1.0" encoding="utf-8"?>
<svg version="1.1" id="Layer_1"
xmlns="http://www.w3.org/2000/svg"
xmlns:xlink="http://www.w3.org/1999/xlink"


xml:space="preserve">
q-9.9 18.6 -14.3 39.25q-4 18.6 -6.35 37.6q-2.65 21.35 -1.8 42.8q0.8 20.8 6 40.85q6.05 23.35 27.55 29.6q20.15 5.95 40.25 -1.35q20.3 -7.45 32.7 -25.1q6.3 -9.05 10.4 -17.7q-8.85 6.15 -17.2 13.75q-9.6 8.75 -21.8 13.1q-7.85 2.85 -15.9 4q-9.35 1.05 -18.75 0.45q-6.55 -0.7 -10.7 -5.55q-18.3 -21.3 -20.65 -49.85q-1.85 -22.45 1.5 -44.75q39.75 3.85 79.75 2.95q0.9 -1.45 1.1 -3q0 -2.5 -1.05 -4.55q2.85 -27 14.8 -50.9q8.95 -17.9 23.95 -30.9q7.5 -6.45 17.1 -9.2q10.65 -3 21.25 0.5q5.65 1.85 11 4.9q2.9 -9.1 -5.4 -15.25q-13.65 -10.2 -28.45 -4.05q-8 3.4 -14.9 8.6q-14.85 13.6 -24.4 31.5q3.25 -11.5 0.4 -23.3q-31.65 65.75 -55.15 134.85q-25.65 75.35 -45.6 152.35q-19 -48.5 -33.05 -98.7q-19.05 -68.2 -41.55 -135.65q-4.85 22 4.55 44.6q32 76.9 52.75 157.85q7.1 27.6 14.95 55q1.65 5.8 3.85 11.25q17 -37.45 26.75 -78.7q20.7 -87.55 56.85 -169.8q10.8 -18.4 16.5 -38.65q1.8 59.85 -2.8 119.1q-2.45 30.9 2 60.15q1.15 -0.4 1.2 -0.9q3.75 -37.85 5.55 -76.35q2.85 -60.05 -1.5 -119.25q-4.8 6.65 -4.45 17.25q-1.9 43.35 -3 87.05q-1.5 59.55 -7 118.45q-2.8 30.4 -1.95 59.25q4.15 2.5 9 2.95q56.4 5.55 111.7 12.05q6.8 -9.4 -1 -17.75q-57.3 -4.55 -113.45 -11.75q0.35 -9.85 1.05 -19.55q4.5 -59.15 7.4 -118.4q2.95 -59.9 1.05 -118.5q-3.6 1.5 -3.8 6.2<g id="3599" transform="matrix(1, 0, 0, 1, -77.9, 0)">
<path style="fill:#000000;fill-opacity:1" d="M396.15,149.75L398.95 147.55Q405.85 142.35 413.85 138.95Q428.65 132.8 442.3 143Q450.6 149.15 447.7 158.25Q442.35 155.2 436.7 153.35Q426.1 149.85 415.45 152.85Q405.85 155.6 398.35 162.05Q383.35 175.05 374.4 192.95Q362.45 216.85 359.6 243.85L436.85 245.95L437.9 247.7Q438.95 249.75 438.95 252.25L438.55 257.5Q438.35 259.05 437.45 260.5Q397.45 261.4 357.7 257.55Q354.35 279.85 356.2 302.3Q358.55 330.85 376.85 352.15Q381 357 387.55 357.7Q396.95 358.3 406.3 357.25Q414.35 356.1 422.2 353.25Q434.4 348.9 444 340.15Q452.35 332.55 461.2 326.4L463.2 327.25L466.2 327.2Q462.1 335.85 455.8 344.9Q443.4 362.55 423.1 370Q403 377.3 382.85 371.35Q361.35 365.1 355.3 341.75Q350.1 321.7 349.3 300.9Q348.45 279.45 351.1 258.1Q353.45 239.1 357.45 220.5Q361.85 199.85 371.75 181.25Q381.3 163.35 396.15 149.75M358.55,140.45Q322.4 222.7 301.7 310.25Q291.95 351.5 274.95 388.95L273.15 386L269.8 379.7L266.75 372.9Q264.55 367.45 262.9 361.65Q255.05 334.25 247.95 306.65Q227.2 225.7 195.2 148.8Q185.8 126.2 190.65 104.2L191.05 103.95L200.1 131.35Q222.6 198.8 241.65 267Q255.7 317.2 274.7 365.7Q294.65 288.7 320.3 213.35Q343.8 144.25 375.45 78.5Q378.3 90.3 375.05 101.8Q369.35 122.05 358.55 140.45M175.45,140.25Q179.8 199.45 176.95 259.5Q175.15 298 171.4 335.85Q171.35 336.35 170.2 336.75Q165.75 307.5 168.2 276.6Q172.8 217.35 171 157.5Q170.65 146.9 175.45 140.25M94.5,114.5Q96.4 173.1 93.45 233Q90.55 292.25 86.05 351.4Q85.35 361.1 85 370.95Q141.15 378.15 198.45 382.7Q206.25 391.05 199.45 400.45Q144.15 393.95 87.75 388.4Q82.9 387.95 78.75 385.45Q77.9 356.6 80.7 326.2Q86.2 267.3 87.7 207.75Q88.8 164.05 90.7 120.7Q90.9 116 94.5 114.5" />
</g>
</svg>
