<?xml version="1.0" encoding="utf-8"?>
<svg version="1.1" id="Layer_1"
xmlns="http://www.w3.org/2000/svg"
xmlns:xlink="http://www.w3.org/1999/xlink"


xml:space="preserve">
q-13.6 41.35 -19.55 84.1q31.75 -3.7 64.3 -9.65q5.55 0.8 10.7 3.15q0.5 2.8 -1.1 5q-38.25 7.85 -76.5 8.2q-1.1 9 -1.85 18.05q-4.95 60.1 9.6 118q6 24.1 23.95 40.25q9.15 8.25 21.85 9.1q54.35 3.6 83.75 -40.9q-0.35 17.75 -14.8 32.7q-28.7 29.6 -71.8 21.6q-31.55 -5.8 -41.65 -36.85q-18.05 -55.55 -17.45 -114.15q0.6 -60.05 15 -117.95q10.75 -43.45 36.55 -80.25q23.05 -32.9 59.9 -48.8q25.05 -1.25 26.75 21.75q-0.15 -0.1 -0.15 -0.45q0.55 -1.4 -0.7 -3.05q-3.85 -4.85 -9.3 -7.7q-28.15 -0.6 -49.7 19.4q-32.95 30.55 -47.05 73.4q-0.05 1.15 -0.65 2.2q-32.55 -8.9 -67.1 -12.55q1.7 18.45 0.35 38.15q-2.05 29.95 -2.55 59.9q21.45 -0.7 43.4 -4.9q8.4 -0.7 16.45 1q0.45 0.1 0.8 0.5q2 4.8 -0.2 9.7q-30.25 1.65 -60.15 -0.9q-1.15 32.25 -2.95 64.35q-3.35 59.35 -2.35 119.25q0.65 38.75 -5.3 75.75q-2.75 0.7 -3.75 -2q3.1 -58.7 3.4 -118.5q0.35 -59.95 3.7 -119.3q2.55 -44.55 2.75 -89.15q0.25 -43.15 6.45 -83.45q-0.6 -2.25 0.05 -4.5q0.2 -0.75 0.65 -1.35q1.9 0.05 2.75 1.75q35.3 -0.7 68.25 11q1.15 2.9 0.9 6q0.25 58.4 -2.3 118.45q-2.55 59.4 -0.55 119.2q2 59.6 1.1 119.3q-0.2 13.5 -4 25.5q-5.5 -12.45 -4.45 -29.3q3.65 -59.7 1.9 -119.15q-1.7 -59.95 0.4 -119.3q2 -56.9 6.35 -113.2q0.1 -1.6 1.55 -1.5q-3.35 59.4 -6.05 119.1q-2.65 59.05 -4 118.55q-0.55 24.9 -2.3 49.5q54.35 -1.1 109.25 -11.15q4.05 -0.75 7.2 0.9q3.9 7.45 -0.5 14.25q-44.6 3.55 -90.4 8.95q-0.5 0 -1 -0.4q0.35 -58.75 3.85 -118.4q3.5 -59.4 4.8 -119.3q1.3 -59.5 3.85 -118.6q1.4 -33.2 6.25 -63.4q1.25 58.7 -2.15 118.55<g id="3600" transform="matrix(1, 0, 0, 1, -39.5, 0)">
<path style="fill:#000000;fill-opacity:1" d="M344.7,190.55Q331.1 231.9 325.15 274.65Q356.9 270.95 389.45 265Q395 265.8 400.15 268.15L400.95 268.75L401.55 271Q402.05 273.8 400.45 276Q362.2 283.85 323.95 284.2L323.9 284.2Q322.8 293.2 322.05 302.25Q317.1 362.35 331.65 420.25Q337.65 444.35 355.6 460.5Q364.75 468.75 377.45 469.6Q431.8 473.2 461.2 428.7Q460.85 446.45 446.4 461.4Q417.7 491 374.6 483Q343.05 477.2 332.95 446.15Q314.9 390.6 315.5 332Q316.1 271.95 330.5 214.05Q341.25 170.6 367.05 133.8Q390.1 100.9 426.95 85Q452 83.75 453.7 106.75L453.45 107.5L452.95 108.25L452.35 108.85L451.6 108.95Q451.45 108.85 451.45 108.5Q452 107.1 450.75 105.45Q446.9 100.6 441.45 97.75Q413.3 97.15 391.75 117.15Q358.8 147.7 344.7 190.55M309.1,85.25L309.05 86Q309 87.15 308.4 88.2L307.95 89Q275.4 80.1 240.85 76.45Q242.55 94.9 241.2 114.6Q239.15 144.55 238.65 174.5L237.55 221.9Q259 221.2 280.95 217Q289.35 216.3 297.4 218Q297.85 218.1 298.2 218.5L298.5 219.2Q300.5 224 298.3 228.9L297.45 230.25Q267.2 231.9 237.3 229.35Q236.15 261.6 234.35 293.7Q231 353.05 232 412.95Q232.65 451.7 226.7 488.7Q223.95 489.4 222.95 486.7Q226.05 428 226.35 368.2Q226.7 308.25 230.05 248.9Q232.6 204.35 232.8 159.75Q233.05 116.6 239.25 76.3L238.95 76.25L235.7 72.5Q235.1 70.25 235.75 68Q235.95 67.25 236.4 66.65L236.9 66.15L236.95 66Q238.85 66.05 239.7 67.75L239.95 68.25Q275.25 67.55 308.2 79.25Q309.35 82.15 309.1 85.25M194.2,80.25Q194.45 138.65 191.9 198.7Q189.35 258.1 191.35 317.9Q193.35 377.5 192.45 437.2Q192.25 450.7 188.45 462.7Q182.95 450.25 184 433.4Q187.65 373.7 185.9 314.25Q184.2 254.3 186.3 194.95Q188.3 138.05 192.65 81.75Q192.75 80.15 194.2 80.25M56.1,180.8Q52.75 240.2 50.05 299.9Q47.4 358.95 46.05 418.45Q45.5 443.35 43.75 467.95Q98.1 466.85 153 456.8Q157.05 456.05 160.2 457.7Q164.1 465.15 159.7 471.95Q115.1 475.5 69.3 480.9L40.5 482.35Q40 482.35 39.5 481.95Q39.85 423.2 43.35 363.55Q46.85 304.15 48.15 244.25Q49.45 184.75 52 125.65Q53.4 92.45 58.25 62.25Q59.5 120.95 56.1 180.8" />
</g>
</svg>
