<?xml version="1.0" encoding="utf-8"?>
<svg version="1.1" id="Layer_1"
xmlns="http://www.w3.org/2000/svg"
xmlns:xlink="http://www.w3.org/1999/xlink"


xml:space="preserve">
q0.85 -1.75 0.95 -3.5q-0.25 -1.35 -0.85 -2.55q-18.25 -11.75 -38 -2.85q-18.9 8.6 -27.3 28.4q-8.2 19.45 -9.8 40.3q-1.55 20.45 2.3 40.7q4.3 22.45 21.5 36.65q17.7 14.7 37.8 4.05q22.6 -12 12.55 -33.1q-12.65 6.15 -26.75 3.35q-10.95 -2.25 -17.2 -11.15q-6.35 -9.05 -9.85 -19.4q-4.1 -12.05 -4.5 -24.85q25.3 5.45 50.9 2.35q1.8 -3.2 1.75 -6.75q0 -2.65 -1.1 -5.2q-25 1.9 -49.8 -1.35q2.3 -17.8 10.6 -33.55q10 -19 30.6 -23.1q14.5 -2.65 28.9 1.5q-21.1 33.45 -60.45 35.5q3.05 -53.4 1.4 -105.9q9.65 4.1 21.6 3.55q7.2 -0.3 12.9 3.6q23.75 16.15 29.05 45.7q2.55 14.3 -5 26.3q-0.5 0.25 -0.9 0.8q-0.9 1.3 -0.95 2.85q-1.75 6.45 -1.55 14.3q0.85 37.5 -1.4 74.85q-3.5 59.1 -5.7 118.6q-1.1 29.6 -3.8 59.1q-2.75 30.3 -1.3 59.4q1.95 2 4 0q5.9 -48.15 7.2 -97.45q1.2 -48.3 3.7 -96.35q17.95 56.1 31 113.85q6.95 30.8 23.2 55.35q4.05 -5.15 1.35 -11.5q-17.5 -41 -28.25 -84.15q-13 -52.1 -30.5 -102.55q4.3 -1.2 8.45 -3q34.45 -14.95 38.85 -50.2q5.9 -47.05 -28.9 -79.3q-17.7 -4.8 -36.45 -3.8q-0.75 1.35 -1.35 2.85q11.7 -17.85 13.1 -36.3q-21.05 31.3 -41.5 64.15q-12.5 -32.8 -27.5 -64.65q-4.8 13.8 3.95 29.1q8.5 14.9 13.55 30.7q2.15 6.75 5.7 11.75q-8.15 13.3 -18.75 24.5q-17.3 18.3 -14.35 39.35q32.5 -43.35 59.75 -91.5q4.95 -5.7 8.9 -11.7q0.5 59.5 -3.25 118.55q-1.95 30.05 -6.25 59.7q-3.4 23.2 -0.3 44.45q2.15 0.7 3.5 -1.25q67.3 0.35 133.7 2.25q4.2 -9 -2.5 -15.75q-66.1 -0.5 -128.45 -3.5q3.35 -33.9 5.45 -68.15q3.65 -59.15 3.95 -118.55q0.3 -60.15 0.1 -118.5q-3.1 4.2 -3.5 10.75q-2.8 44.95 -2.45 90q-5.55 40.05 -7 80.9q-0.5 13.95 -2.95 27.45q-2.5 13.65 3.95 21.75q3.5 -5.7 3.95 -12.65q3.7 -59.65 2.8 -117.8q-0.75 0.1 -0.75 0.35q-3.5 15.2 -8.7 30.4q-4.6 13.35 -5.55 27.3q10.55 -10.45 13.85 -26.85q2.35 -11.8 6.45 -23.25q13.8 1.65 27.3 -1.4q9.35 41.75 22.25 82.4q2.4 7.6 7.7 11.25q1.55 -1.65 1.1 -3.9q-9.75 -46.85 -22.95 -92.65q3.55 -2.8 2.85 -7.95<g id="3609" transform="matrix(1, 0, 0, 1, -65.4, 0)">
<path style="fill:#000000;fill-opacity:1" d="M413.3,92Q392.7 96.1 382.7 115.1Q374.4 130.85 372.1 148.65Q396.9 151.9 421.9 150L422.85 151.8Q423.95 154.35 423.95 157Q424 160.55 422.2 163.75Q396.6 166.85 371.3 161.4L371.4 164.7Q371.8 177.5 375.9 189.55Q379.4 199.9 385.75 208.95Q392 217.85 402.95 220.1Q417.05 222.9 429.7 216.75L440.45 198Q450.5 219.1 427.9 231.1Q407.8 241.75 390.1 227.05Q372.9 212.85 368.6 190.4Q364.75 170.15 366.3 149.7Q367.9 128.85 376.1 109.4Q384.5 89.6 403.4 81Q423.15 72.1 441.4 83.85L442.25 85.35Q442.85 86.55 443.1 87.9L443.15 90Q443.05 91.75 442.2 93.5Q427.8 89.35 413.3 92M344.5,141.9Q339.2 112.35 315.45 96.2Q309.75 92.3 302.55 92.6Q290.6 93.15 280.95 89.05Q282.6 141.55 279.55 194.95L279.05 203.7Q318.4 201.65 339.5 168.2Q347.05 156.2 344.5 141.9M280.45,76.5L280.55 79Q299.3 78 317 82.8L319.45 83.25Q354.25 115.5 348.35 162.55Q343.95 197.8 309.5 212.75Q305.35 214.55 301.05 215.75Q318.55 266.2 331.55 318.3Q342.3 361.45 359.8 402.45Q362.5 408.8 358.45 413.95Q342.2 389.4 335.25 358.6Q322.2 300.85 304.25 244.75L295.35 217.1L290.7 217.8L278.45 217.25L278.35 217.15Q275.85 265.2 274.65 313.5Q273.35 362.8 267.45 410.95Q265.4 412.95 263.45 410.95Q262 381.85 264.75 351.55Q267.45 322.05 268.55 292.45Q270.75 232.95 274.25 173.85Q276.5 136.5 275.65 99Q275.45 91.15 277.2 84.7L277.25 83Q277.3 81.45 278.2 80.15Q278.6 79.6 279.1 79.35Q279.7 77.85 280.45 76.5M205.2,131.25Q177.95 179.4 145.45 222.75Q142.5 201.7 159.8 183.4Q170.4 172.2 178.55 158.9L181.4 154.3Q177.85 149.3 175.7 142.55Q170.65 126.75 162.15 111.85Q153.4 96.55 158.2 82.75Q173.2 114.6 185.7 147.4Q206.15 114.55 227.2 83.25Q225.8 101.7 214.1 119.55Q210.15 125.55 205.2 131.25M80.75,94.75Q81.15 88.2 84.25 84Q84.45 142.35 84.15 202.5Q83.85 261.9 80.2 321.05Q78.1 355.3 74.75 389.2Q137.1 392.2 203.2 392.7Q209.9 399.45 205.7 408.45Q139.3 406.55 72 406.2Q70.65 408.15 68.5 407.45Q65.4 386.2 68.8 363Q73.1 333.35 75.05 303.3Q78.8 244.25 78.3 184.75Q77.95 139.7 80.75 94.75M118.45,230.25Q119.35 288.4 115.65 348.05Q115.2 355 111.7 360.7Q105.25 352.6 107.75 338.95Q110.2 325.45 110.7 311.5Q112.15 270.65 117.7 230.6Q117.7 230.35 118.45 230.25M224.95,307.05Q225.65 312.2 222.1 315Q235.3 360.8 245.05 407.65Q245.5 409.9 243.95 411.55Q238.65 407.9 236.25 400.3Q223.35 359.65 214 317.9L205.05 319.95Q191.55 323 177.75 321.35Q173.65 332.8 171.3 344.6Q168 361 157.45 371.45Q158.4 357.5 163 344.15Q168.2 328.95 171.7 313.75L173.4 313.35L201.45 230.5L218.7 301.95L222.45 301L224.15 304L224.7 305.5L224.95 307.05M210.7,304L199.7 253L181.15 311.4L210.7 304" />
</g>
</svg>
