<?xml version="1.0" encoding="utf-8"?>
<svg version="1.1" id="Layer_1"
xmlns="http://www.w3.org/2000/svg"
xmlns:xlink="http://www.w3.org/1999/xlink"


xml:space="preserve">
q16 34.75 23.05 73.45q5.95 32.9 5.95 72.4q0 36.8 -4.5 66.5q-6.4 42.25 -21 62q-4.15 5.6 -19.8 30.2q-12.6 19.8 -23.6 32.35q-33.65 38.5 -95.6 61.7q-13.9 -2.05 -17.35 -5.5q-1.4 -1.35 -1.65 -3.35q1.75 -2.65 2.4 -7.3q3.45 -27.65 11.6 -127.25q9.4 -115 9.4 -150.25q0 -29.65 -2.1 -60.5q-1 -4.5 -1 -14.25q0 -14.05 4.5 -27.6q1.45 -4.4 2.6 -5.3q0.5 -4.15 5.7 -4.7q5.05 -0.5 15.75 2.45q13.35 3.65 52.2 17.15q17.35 6.05 30.15 17.25q6.7 5.85 16.85 18.5q11.95 14.8 23.2 36.6q3.85 7.45 17.05 36.15q-11 -20.9 -21.85 -35.2q-7.65 -10 -16.3 -16.95q-11.95 -9.6 -28.95 -16.55q-12.7 -5.2 -28.05 -9.45q-11.1 -2.8 -15.5 -5.05q-2.35 -1.15 -3.7 -2.55q0 -0.95 -2 10.65q-2 11.55 -2 15.6q0 5 1 9q1.9 29.7 4.9 68.25q2.1 30.65 2.1 62.25q0 40.3 -9 161.25q-7.6 101.65 -12.8 127.75q3.15 1.4 11.6 1.85q58.7 -20.95 91.6 -56.95q11.35 -12.4 23.45 -30.9q12.6 -20.1 19.2 -29.4q15 -21.15 21.05 -58.8q4.2 -26 4.2 -61.8q0 -39.15 -5.4 -68.4q-6.75 -36.45 -23.6 -70.35q0.35 1.2 0.35 3q0 3.05 -24.85 64.85q-30.05 74.65 -38.4 97.4q-10.9 -35.95 -16.15 -54.35q-9.25 -32.1 -13.6 -55.15q-5.05 17.4 -13.35 52.55q-8.15 31.6 -18.15 52.95q-3.65 -15.5 -7.2 -38.65q-3.75 -24.05 -5 -39q-0.65 -7.25 -5 -20.65q-4 -12.3 -4 -18q0 -1.85 0.25 -2.8q0.25 -0.9 1 -2.05q9.6 28.1 15.95 72.7q2.95 22.35 5.4 36.4q9.95 -23.7 17.3 -52.6q4.8 -19.1 11.45 -53.65q7.25 20.65 16.05 55.9q11.6 46.35 14.45 56.35q5.1 -13.8 27.2 -71.05q17.15 -44.45 26.8 -72.45q-0.4 0 -4.8 1.9q-1 -1 -1.35 -1.85q-0.4 -1 -0.4 -2.8q0 -4.4 2.15 -6.1q4.1 -3.25 17.85 -3.75q0 3 -2.5 6.75q1.15 -5.05 -2.15 -10.3q-3.55 -5.7 -10.6 -8.2q-25.3 -6.85 -41.45 67.15q-2.15 9.9 -4 20.65q4.55 -1.05 17.45 -1.7q0.35 1.05 0.35 2.8q0 3.1 -1.75 4.85q-3.2 0 -4.9 -1.05q-2 12.9 -3.6 26.9q-2.75 24.5 -2.75 36.15q0 6 1.3 10.85q4 15.2 19.2 15.2q9.85 0 20.25 -13.7q3.85 -5.05 6.55 -10.45q2.45 -4.9 2.45 -6.85q0 -5.85 -2 -10.95q-2 -5.1 -2 -8.9q0.3 1.25 0.3 10.7q0 12.25 -11.75 27.05q-4.95 6.25 -10.1 10.15q-5.35 4.05 -8.9 4.05q-19.85 0 -24.7 -19.45q-1.55 -6.2 -1.45 -14.05q0 -17.4 3 -43.5q3.35 -29.3 9.05 -55q14.95 -67.4 36.7 -72.1q13.15 0.55 19.9 9q4.85 6.15 4.85 13q-1 -0.15 -2.15 -1.4q-4.55 -3.7 -15.35 -3.7q-47.4 0 -66.75 42.75q-3.6 7.9 -6 16.85q0.35 1.05 0.35 2.8q0 3.15 -1.75 4.9q-1.5 10 -1.5 18.2q0 14.8 4.3 26.25q9.05 24 33.45 24q32 0 48.95 -11.3q7.75 -5.2 15.55 -14.45q5.35 -6.35 15.25 -20.5q1.5 2.25 1.5 6q0 2.15 -4.9 9.75q-5.9 9.15 -13.8 17.25q-23.25 23.75 -49.05 23.75q-39.5 0 -51.5 -29.25q-3.8 -9.25 -4.4 -20.65q0 -14.15 2 -26.55q0 -2.15 0.3 -3q3.85 -20.2 13.25 -35.5q13.2 -21.4 35.25 -30.7q18.35 -7.7 35.25 -4.8q7.25 1.3 11.6 4.35q4.4 3.15 4.4 7.3q0 3.2 -1.75 5.4q0.55 4.9 0.55 7.75q0 15.1 -0.45 25.1q-0.7 14.55 -2.55 25.9q-5.45 30.25 -7.1 83.25q-1.1 23.5 -3.4 41.6q-1.35 14.3 -3.75 50.75q-2.25 34.3 -2.25 38.15q0.05 1.1 0.8 1.7q1.2 1.05 10.05 3.4q7.15 3.6 23.7 4.8q9.25 0.7 25.05 0.7q8.55 0 11.15 -4.9q2.15 1.05 4.9 1.6q2.35 4.55 2.35 6q0 1.85 -0.55 3.8q-0.8 2.8 -2.45 3.7q-5.8 -1.9 -24.75 -2.1q-17.55 -0.15 -24 -3.4q-13.15 -3.95 -15.9 -6.3q-1.45 -1.25 -1.8 -3.05q-0.15 -0.9 -0.15 -4.15q0 -1.75 3.7 -42.7q2.3 -17.85 3.4 -41.5q1.65 -53.85 7.1 -83.6q0.85 -6.75 2.5 -32.05q1.3 -20.35 3.5 -29.95q0.85 1.3 1.45 7.25q0 37.3 -7 101.7q-2.2 21.05 -2.2 29.95q0 8.05 0.45 10.2q1.3 5.9 6.55 9.05q21.15 -14.05 31.5 -40.35q8.2 -20.75 10.4 -51.85q0.7 -9.75 1.2 -51.7q0.3 -28.15 3.9 -39.7q-0.6 0.25 -1.1 0.6q0 -3.3 -1.8 -5.75q1.6 -2.3 3.3 -4q2.75 1.9 3.3 10.2q0.25 4.25 -0.05 8.9q0.25 53.35 -5.95 103.9q-12.4 100.6 -44.8 100.6q-7.5 -1.8 -9.55 -13.05q-0.7 -4 -0.7 -16.7q0 -8.05 6.7 -86.75q1.5 6 1.5 19.5q4.15 2.75 7.75 17.05q3.45 13.7 3.45 18.75q0 20.5 -8.1 34q-11.65 19.35 -41.15 29.25q-13.5 -4.05 -18.4 -11.9q-3.1 -5 -3.1 -13.25q0 -29.65 11.2 -51.65q14.4 -28.3 43.9 -31.85q3.15 -2.1 10.15 -2.1q11.6 0 17.3 7q1.8 2.2 2.75 4.45q2.6 10.7 2.6 18.7q0 29.4 -15.7 51.75q-7.5 10.65 -17.1 16.55q-10.05 6.2 -20.95 6.2q-37.7 0 -47.45 -17.55q-3.1 -5.5 -3 -12.15q0 -24.25 4.8 -43.4q6.5 -26.2 20.95 -36.45q43.3 -30.55 64.4 -2.6q7.1 9.5 10.75 24.65q0 -4.65 1.75 -6.75q23.6 -1.5 30.85 7.15q2.4 2.9 2.85 6.8q0 8.55 -5.65 14.3q-6.65 6.75 -24.85 14.2q4.1 6.85 14.7 32.05q10.8 25.7 10.8 29.3q-0.2 0.35 -1.75 0.35q-1.05 0 -7.2 -14.5q-1.6 -3.85 -9.75 -20.35q-7.1 37.3 -10.45 51.7q-0.5 -4.5 -0.5 -6.75q0 -11.4 8.2 -56.95q0 -0.7 0.3 -1.35q3.3 -18.15 5.4 -28q-1 -0.9 -1.4 -2.4q-0.3 -1.05 -0.3 -4.6q-0.15 5.3 -3.7 25.75q3.3 -1.5 10.1 -4.2q8.5 -3.35 12.25 -5.8q5.6 -3.65 5.6 -7.7q0 -1.45 -3.95 -4.5q-4.9 -3.75 -10.55 -3.75q0 4.1 -1.5 9.9q-1.5 5.85 -1.5 12.6q0 7.2 2 31q2 23.75 2 26.75q0 7.1 -1.5 10.85q-2.6 -3.15 -4.85 -9.7q-2.15 -6.25 -2.15 -10.15q0 -2.65 0.5 -3.4q0.5 -0.75 2.25 -0.75q1.5 0 1.05 -3.2q-0.8 -3.8 -0.8 -5.05q-1 -14.45 -1.3 -21.2q-6.9 21.4 -10.4 31.2q-6.3 17.75 -12.6 31.3q-1.15 -1.8 -1.55 -4.45q0 -8.25 2.05 -27.2q1.35 -12.6 2.95 -24.55q-4.25 10.05 -12.65 35.15q-8.4 25.2 -13.1 36.35q-0.75 -1.1 -1 -2.25q-0.25 -1.1 -0.25 -3q0 -4.15 11.8 -42.5q12.3 -39.9 19.2 -56.75q1.5 4.5 1.5 14.65q0 9.85 -1.25 23.7q-1.15 12.85 -2.75 22.4q4.85 -11.1 11.85 -33.85q7.4 -24 11.65 -34.4q0.9 1.6 1.2 3.1q0 3.1 -1.3 10.1q-1.7 9.2 -4.45 16.95q-8.25 22.95 -22 22.95q-21.4 0 -27.5 -9q-2.75 -4.05 -3.65 -11.1q-0.6 -4.85 -0.6 -15.5q0 -18.25 7.5 -33.5q11.65 -23.75 37.5 -24.65q5.25 5 10.3 23.55q4.2 15.4 4.2 20.2q0.95 -4.55 0.95 -7.2q0 -4 -5.85 -19.15q-5.4 -14 -6.15 -14.75q-19.95 -4.6 -32 18.85q-4.1 7.95 -6.6 17.85q-1.9 7.65 -1.9 11.2q0 8.4 2.05 14.6q3.5 10.75 12.2 10.75q22.5 0 32.55 -18.75q3.2 -6.05 4.75 -13.4q0.45 -1.4 0 -3.25q13.75 10.45 21.3 23.9q7.2 12.85 7.2 25.5q0 3.2 -1.2 9.4q-1.7 8.6 -4.75 15.7q-9.2 21.25 -26.8 21.25q-38.7 0 -48.55 -21.5q-3.1 -6.75 -2.95 -15.15q0 -4.7 2.2 -15.1q2.1 -10.1 3.55 -13.05q1.65 -3.5 4.15 -6.95q3.35 -4.65 7.1 -7.3q2.95 -2.1 15.75 -5q13.6 -3.05 16 -4.25q-10.2 -4.15 -23.35 -0.9q-13.9 3.3 -18.75 12.5q-4.55 8.6 -5.85 13.4q-1.4 4.85 -1.4 12.5q0.35 6.55 2.65 11.55q6.85 15.2 30.45 15.2q27 0 37.55 -16.95q5.45 -8.8 5.45 -19.55q0 -0.8 -1.4 -5.35q-1.7 -5.55 -3.8 -10.4q-6.4 -14.75 -12.8 -14.75q-3.5 -2.75 -8.65 -4.85<g id="3442" transform="matrix(1, 0, 0, 1, -17.5, 0)">
<path style="fill:#000000;fill-opacity:1" d="M512.35,148.25Q528.35 183 535.4 221.7Q541.35 254.6 541.35 294.1Q541.35 330.9 536.85 360.6Q530.45 402.85 515.85 422.6Q511.7 428.2 496.05 452.8Q483.45 472.6 472.45 485.15Q438.8 523.65 376.85 546.85L347.35 546.6Q333.45 544.55 330 541.1Q328.6 539.75 328.35 537.75L328.35 534L328.45 530.95L327.45 528.45Q329.2 525.8 329.85 521.15L330.2 516L331.1 518.35L331.35 518.6Q334.8 490.95 342.95 391.35Q352.35 276.35 352.35 241.1Q352.35 211.45 350.25 180.6L345.35 115.5L345.35 72Q344.35 67.5 344.35 57.75Q344.35 43.7 348.85 30.15Q350.3 25.75 351.45 24.85Q351.95 20.7 357.15 20.15Q362.2 19.65 372.9 22.6Q386.25 26.25 425.1 39.75Q442.45 45.8 455.25 57Q461.95 62.85 472.1 75.5Q484.05 90.3 495.3 112.1Q499.15 119.55 512.35 148.25M490.7,121.95Q479.7 101.05 468.85 86.75Q461.2 76.75 452.55 69.8Q440.6 60.2 423.6 53.25Q410.9 48.05 395.55 43.8L372.55 37.9Q361.45 35.1 357.05 32.85Q354.7 31.7 353.35 30.3L353.35 32Q353.35 31.05 351.35 42.65Q349.35 54.2 349.35 58.25Q349.35 63.25 350.35 67.25L350.35 110.75Q352.25 140.45 355.25 179Q357.35 209.65 357.35 241.25Q357.35 281.55 348.35 402.5Q340.75 504.15 335.55 530.25L336.5 530.75Q339.65 532.15 348.1 532.6L376.85 532.35Q435.55 511.4 468.45 475.4Q479.8 463 491.9 444.5Q504.5 424.4 511.1 415.1Q526.1 393.95 532.15 356.3Q536.35 330.3 536.35 294.5Q536.35 255.35 530.95 226.1Q524.2 189.65 507.35 155.75L490.7 121.95M335.25,27.5Q335.6 28.7 335.6 30.5Q335.6 33.55 310.75 95.35Q280.7 170 272.35 192.75Q261.45 156.8 256.2 138.4Q246.95 106.3 242.6 83.25Q237.55 100.65 229.25 135.8Q221.1 167.4 211.1 188.75Q207.45 173.25 203.9 150.1L198.1 110.75Q194.35 86.7 193.1 71.75Q192.45 64.5 188.1 51.1Q184.1 38.8 184.1 33.1Q184.1 31.25 184.35 30.3Q184.6 29.4 185.35 28.25Q194.95 56.35 201.3 100.95L206.2 138.1Q209.15 160.45 211.6 174.5L211.6 174.75Q221.55 151.05 228.9 122.15Q233.7 103.05 240.35 68.5L240.8 68.05L241.85 67Q249.1 87.65 257.9 122.9Q269.5 169.25 272.35 179.25Q277.45 165.45 299.55 108.2Q316.7 63.75 326.35 35.75L326.6 35.25Q326.2 35.25 321.8 37.15L315.85 39.75Q314.85 38.75 314.5 37.9Q314.1 36.9 314.1 35.1Q314.1 30.7 316.25 29Q320.35 25.75 334.1 25.25L335.25 27.5M337.6,339Q337.6 342 335.1 345.75L333.6 345.75Q334.75 340.7 331.45 335.45Q327.9 329.75 320.85 327.25Q295.55 320.4 279.4 394.4Q277.25 404.3 275.4 415.05Q279.95 414 292.85 413.35L294.65 413.05L307.1 413.1L308.25 415.2Q308.6 416.25 308.6 418Q308.6 421.1 306.85 422.85L288 424.05L278.85 424.85Q275.65 424.85 273.95 423.8Q271.95 436.7 270.35 450.7Q267.6 475.2 267.6 486.85L267.35 492.55Q267.35 498.55 268.65 503.4Q272.65 518.6 287.85 518.6Q297.7 518.6 308.1 504.9Q311.95 499.85 314.65 494.45Q317.1 489.55 317.1 487.6Q317.1 481.75 315.1 476.65Q313.1 471.55 313.1 467.75L313.15 465.7L313.35 464.35L313.8 463.9L314.85 462.85L320.3 476.9Q320.6 478.15 320.6 487.6Q320.6 499.85 308.85 514.65Q303.9 520.9 298.75 524.8Q293.4 528.85 289.85 528.85Q270 528.85 265.15 509.4Q263.6 503.2 263.7 495.35L264.1 487.6Q264.1 470.2 267.1 444.1Q270.45 414.8 276.15 389.1Q291.1 321.7 312.85 317Q326 317.55 332.75 326Q337.6 332.15 337.6 339M165.85,47Q164.85 46.85 163.7 45.6L161.2 42.95Q156.65 39.25 145.85 39.25Q98.45 39.25 79.1 82Q75.5 89.9 73.1 98.85L76.85 98L108.85 97L125.85 96.5L125.85 96L146.1 96.25L147.25 98.3Q147.6 99.35 147.6 101.1Q147.6 104.25 145.85 106L135.65 106.3L124.85 107L116.65 107.3L107.85 108L76.6 108.5L72.75 109.2L70.75 109.45L70.1 113.3Q68.6 123.3 68.6 131.5Q68.6 146.3 72.9 157.75Q81.95 181.75 106.35 181.75Q138.35 181.75 155.3 170.45Q163.05 165.25 170.85 156Q176.2 149.65 186.1 135.5L187.1 135.25Q188.6 137.5 188.6 141.25Q188.6 143.4 183.7 151Q177.8 160.15 169.9 168.25Q146.65 192 120.85 192Q81.35 192 69.35 162.75Q65.55 153.5 64.95 142.1L65.1 131.6Q65.1 117.45 67.1 105.05L67.1 104.85Q67.1 102.7 67.4 101.85L67.85 100.95Q71.7 80.75 81.1 65.45Q94.3 44.05 116.35 34.75Q134.7 27.05 151.6 29.95Q158.85 31.25 163.2 34.3Q167.6 37.45 167.6 41.6Q167.6 44.8 165.85 47M45.8,25.5Q46.35 30.4 46.35 33.25Q46.35 48.35 45.9 58.35Q45.2 72.9 43.35 84.25L43.35 145Q37.9 175.25 36.25 228.25L34.75 269.9Q33.65 293.4 31.35 311.5L31.35 429.85Q30 444.15 27.6 480.6Q25.35 514.9 25.35 518.75L25.25 521.5Q25.3 522.6 26.05 523.2Q27.25 524.25 36.1 526.6L88.35 527.1Q95.5 530.7 112.05 531.9Q121.3 532.6 137.1 532.6Q145.65 532.6 148.25 527.7Q150.4 528.75 153.15 529.3L155 533.1Q157.35 537.65 157.35 539.1Q157.35 540.95 156.8 542.9Q156 545.7 154.35 546.6L137.1 546.6Q131.3 544.7 112.35 544.5Q94.8 544.35 88.35 541.1L35.35 540.6Q22.2 536.65 19.45 534.3Q18 533.05 17.65 531.25Q17.5 530.35 17.5 527.1Q17.5 525.35 21.2 484.4L26.35 424.35L26.35 306.75Q28.65 288.9 29.75 265.25L31.25 223.1Q32.9 169.25 38.35 139.5L38.35 80.25Q39.2 73.5 40.85 48.2Q42.15 27.85 44.35 18.25Q45.2 19.55 45.8 25.5M155.6,221.75Q155.6 259.05 148.6 323.45L143.8 367.15Q141.6 388.2 141.6 397.1Q141.6 405.15 142.05 407.3Q143.35 413.2 148.6 416.35L168.1 416.35Q189.25 402.3 199.6 376Q207.8 355.25 210 324.15Q210.7 314.4 211.2 272.45Q211.5 244.3 215.1 232.75L215.1 214.75L214.85 214.25Q214.25 214.5 213.75 214.85L213.85 213Q213.85 209.7 212.05 207.25Q213.65 204.95 215.35 203.25Q218.1 205.15 218.65 213.45Q218.9 217.7 218.6 222.35Q218.85 275.7 212.65 326.25Q200.25 426.85 167.85 426.85L148.35 426.6Q140.85 424.8 138.8 413.55Q138.1 409.55 138.1 396.85Q138.1 388.8 144.8 310.1L154.1 202.25Q155.6 208.25 155.6 221.75M126.15,217Q120.45 210 108.85 210Q101.85 210 98.7 212.1Q69.2 215.65 54.8 243.95Q43.6 265.95 43.6 295.6Q43.6 303.85 46.7 308.85Q51.6 316.7 65.1 320.75L90.85 320.5Q120.35 310.6 132 291.25Q140.1 277.75 140.1 257.25Q140.1 252.2 136.65 238.5Q133.05 224.2 128.9 221.45Q127.95 219.2 126.15 217M141,237.8Q143.6 248.5 143.6 256.5Q143.6 285.9 127.9 308.25Q120.4 318.9 110.8 324.8Q100.75 331 89.85 331Q52.15 331 42.4 313.45Q39.3 307.95 39.4 301.3L40.1 295.6Q40.1 271.35 44.9 252.2Q51.4 226 65.85 215.75Q109.15 185.2 130.25 213.15Q137.35 222.65 141 237.8M219.1,326.75Q219.1 322.1 220.85 320Q244.45 318.5 251.7 327.15Q254.1 330.05 254.55 333.95L254.6 338.5Q254.6 347.05 248.95 352.8Q242.3 359.55 224.1 367Q228.2 373.85 238.8 399.05Q249.6 424.75 249.6 428.35L249.4 431L248.85 432.85L249 433.25Q248.8 433.6 247.25 433.6Q246.2 433.6 240.05 419.1L231.6 398.6Q230 394.75 221.85 378.25L219.7 373.85L218.55 379.9Q211.45 417.2 208.1 431.6L206.6 431.6Q206.1 427.1 206.1 424.85Q206.1 413.45 214.3 367.9L215.15 363.3L215.1 363.1Q215.1 362.4 215.4 361.75Q218.7 343.6 220.8 333.75Q219.8 332.85 219.4 331.35Q219.1 330.3 219.1 326.75M226.6,330.45Q226.45 335.75 222.9 356.2Q226.2 354.7 233 352Q241.5 348.65 245.25 346.2Q250.85 342.55 250.85 338.5Q250.85 337.05 246.9 334Q242 330.25 236.35 330.25L226.6 330.45M246.6,439.5Q246.6 443.6 245.1 449.4Q243.6 455.25 243.6 462Q243.6 469.2 245.6 493Q247.6 516.75 247.6 519.75Q247.6 526.85 246.1 530.6Q243.5 527.45 241.25 520.9Q239.1 514.65 239.1 510.75Q239.1 508.1 239.6 507.35Q240.1 506.6 241.85 506.6Q243.35 506.6 242.9 503.4Q242.1 499.6 242.1 498.35L241.15 484.3Q240.15 469.85 239.85 463.1Q232.95 484.5 229.45 494.3Q223.15 512.05 216.85 525.6Q215.7 523.8 215.3 521.15L215.1 516.85Q215.1 508.6 217.15 489.65Q218.5 477.05 220.1 465.1L220.1 459.1Q215.85 469.15 207.45 494.25Q199.05 519.45 194.35 530.6Q193.6 529.5 193.35 528.35Q193.1 527.25 193.1 525.35Q193.1 521.2 204.9 482.85Q217.2 442.95 224.1 426.1Q225.6 430.6 225.6 440.75Q225.6 450.6 224.35 464.45Q223.2 477.3 221.6 486.85L221.6 501.35Q226.45 490.25 233.45 467.5Q240.85 443.5 245.1 433.1Q246 434.7 246.3 436.2L246.6 439.5M200.6,473.85Q200.6 476.95 199.3 483.95Q197.6 493.15 194.85 500.9Q186.6 523.85 172.85 523.85Q151.45 523.85 145.35 514.85Q142.6 510.8 141.7 503.75Q141.1 498.9 141.1 488.25Q141.1 470 148.6 454.75Q160.25 431 186.1 430.1Q191.35 435.1 196.4 453.65Q200.6 469.05 200.6 473.85M196.15,481.45Q197.1 476.9 197.1 474.25Q197.1 470.25 191.25 455.1Q185.85 441.1 185.1 440.35Q165.15 435.75 153.1 459.2Q149 467.15 146.5 477.05Q144.6 484.7 144.6 488.25Q144.6 496.65 146.65 502.85Q150.15 513.6 158.85 513.6Q181.35 513.6 191.4 494.85Q194.6 488.8 196.15 481.45M220.6,452.35L220.6 455.35L220.85 455.35Q221.3 453.95 220.85 452.1L220.6 452.35M93.1,423.1Q106.85 433.55 114.4 447Q121.6 459.85 121.6 472.5Q121.6 475.7 120.4 481.9Q118.7 490.5 115.65 497.6Q106.45 518.85 88.85 518.85Q50.15 518.85 40.3 497.35Q37.2 490.6 37.35 482.2L38.1 474.5Q38.1 469.8 40.3 459.4Q42.4 449.3 43.85 446.35Q45.5 442.85 48 439.4Q51.35 434.75 55.1 432.1Q58.05 430 70.85 427.1Q84.45 424.05 86.85 422.85L93.1 423.1M91.2,436.75Q81 432.6 67.85 435.85Q53.95 439.15 49.1 448.35Q44.55 456.95 43.25 461.75Q41.85 466.6 41.85 474.25L41.75 481.85Q42.1 488.4 44.4 493.4Q51.25 508.6 74.85 508.6Q101.85 508.6 112.4 491.65Q117.85 482.85 117.85 472.1Q117.85 471.3 116.45 466.75Q114.75 461.2 112.65 456.35Q106.25 441.6 99.85 441.6Q96.35 438.85 91.2 436.75" />
</g>
</svg>
