<?xml version="1.0" encoding="utf-8"?>
<svg version="1.1" id="Layer_1"
xmlns="http://www.w3.org/2000/svg"
xmlns:xlink="http://www.w3.org/1999/xlink"


xml:space="preserve">
q0.1 -4.1 -0.2 -8.05q-1.85 -0.25 -2.55 1.55q-7.5 19.4 -11.4 40.15q-10.85 58 -25.65 115.05q-2.85 10.85 -7.5 21q-2.4 -30.9 -5.5 -61.65q-0.5 0.1 -0.55 0.75q-9.15 41.35 -12.95 85.35q-5.05 58.65 -12.05 117q-7.1 59.1 -18.3 117.35q-5.65 29.25 -4.7 58.6q1.3 2.05 3.5 0.75q8.3 -37.6 13.55 -76.5q7.95 -58.35 14.2 -117q0.8 -7.45 2.25 -14.75q0.75 13.25 2.6 26.55q8.1 58.35 9.1 117.6q0.3 16.45 7.05 28.5q3 -9.35 4.2 -19.45q5.45 -13.5 8.9 -28.15q13.35 -57.25 25.75 -115.15q3.05 -14.4 6.85 -28.65q1.25 -4.7 2 -9.25q-2.5 28.6 -2.45 58.9q0.2 59.65 0 119.25q-0.15 59.65 2.15 119.2q0.45 13.9 7.95 21.45q0.5 -0.75 0.6 -1.55q2.4 -19.95 0.2 -40.55q-6.2 -58.75 -6.8 -118.35q-0.55 -59.45 1.15 -119.25q1.7 -59.8 -2.9 -118.5q-8.9 -1.7 -16.85 1.45q-31.6 12.45 -49.15 43q-12.45 21.65 -15.1 46.45q-6.45 59.5 5.1 117.75q9.25 46.8 57.25 51.95q13.1 1.4 23.65 -6.3q50 -36.55 60.05 -98.35q9.85 -60.25 -11.4 -116.65q-3.25 -8.6 -8.55 -15.9q-15.6 -21.5 -40.25 -25.15q-0.35 0.5 -1.5 0.5q-30.4 -15.5 -34.05 -50.55q-2.75 -26.05 -3.9 -52.6q-2.05 -46.75 19.85 -86.3q19.7 -35.65 58.95 -39q50.4 19.3 58.6 72.75q9.35 60.8 -17.05 115.75q-11.15 23.15 -32.85 37.55q-23.6 15.65 -49.55 2.4q-11.05 1 -19.2 8.3q-45.6 40.7 -59.9 99.05q-14.5 59.2 2.95 117.15q16.1 53.45 73.25 55.5q12.8 0.45 24.25 -5.05q42.55 -20.4 52.05 -68.25q11.65 -59 -0.3 -117.6q-12.7 -61.95 -68.55 -90.15q-0.75 0.75 -1.55 0.8q56.3 26.9 67.55 89.8q10.75 59.9 -10.75 115.9q-4.3 11.15 -11.9 20.25q-28.2 33.75 -73.2 21.1q-8.8 -2.5 -15.9 -8.1q-33.7 -26.5 -37.6 -70.55q-2.65 -29.3 2.3 -58.05q5.2 -30.35 20.55 -56.9q8.55 -14.7 17.35 -29.15q13 -21.3 35.55 -26.45q3.1 0.7 6.05 2.15q-5.25 30.25 -6.25 63.25q-1.8 59.6 -3.15 119.25q-1.35 59.8 -3.55 119.25q-1.1 30.1 -4.1 59.8q-1.15 11.7 1.35 21.8q-0.1 3.35 2.05 5.8q7.8 2.55 14.85 6.5q59.95 10.1 121.95 5.25q1.4 -1.15 1.85 -2.95q0.55 -2.2 0.45 -4.55q-0.1 -2.8 -1.55 -5.25q-28.7 -1.4 -59 -0.05q-42.1 1.95 -80.2 -12.25q2.7 -43.7 4.05 -87.7q1.8 -59.4 3.15 -119.2q1.35 -59.6 3.35 -119.25q0.55 -15.05 2.6 -29.75q1.9 -13.25 -3.15 -22.25<g id="3436" transform="matrix(1, 0, 0, 1, -51.8, 0)">
<path style="fill:#000000;fill-opacity:1" d="M532.2,83.25Q536.8 141.95 535.1 201.75Q533.4 261.55 533.95 321Q534.55 380.6 540.75 439.35Q542.95 459.95 540.55 479.9Q540.45 480.7 539.95 481.45Q532.45 473.9 532 460L529.85 399.95Q527.55 340.4 527.7 280.75Q527.9 221.15 527.7 161.5Q527.65 131.2 530.15 102.6Q529.4 107.15 528.15 111.85Q524.35 126.1 521.3 140.5Q508.9 198.4 495.55 255.65Q492.1 270.3 486.65 283.8Q485.45 293.9 482.45 303.25Q475.7 291.2 475.4 274.75Q474.4 215.5 466.3 157.15Q464.45 143.85 463.7 130.6L462.1 139.75Q460.65 147.05 459.85 154.5L447.2 272.2Q440.95 330.85 433 389.2Q427.75 428.1 419.45 465.7Q417.25 467 415.95 464.95Q415 435.6 420.65 406.35Q431.85 348.1 438.95 289Q445.95 230.65 451 172Q454.8 128 463.95 86.65L464.1 84.25Q464.15 83.6 464.65 83.5L465.2 81L465.45 83.5L477.65 200.55Q480.75 231.3 483.15 262.2L484.1 260Q488.75 249.85 491.6 239Q506.4 181.95 517.25 123.95Q521.15 103.2 528.65 83.8Q529.35 82 531.2 82.25Q531.5 86.2 531.4 90.3L532.2 83.25M373,116.05L374.45 115.75Q375.6 115.75 375.95 115.25Q400.6 118.9 416.2 140.4Q421.5 147.7 424.75 156.3Q446 212.7 436.15 272.95Q426.1 334.75 376.1 371.3Q365.55 379 352.45 377.6Q304.45 372.45 295.2 325.65Q283.65 267.4 290.1 207.9Q292.75 183.1 305.2 161.45Q322.75 130.9 354.35 118.45Q362.3 115.3 371.2 117L373 116.05M379.65,353.05Q401.35 338.65 412.5 315.5Q438.9 260.55 429.55 199.75Q421.35 146.3 370.95 127Q331.7 130.35 312 166Q290.1 205.55 292.15 252.3Q293.3 278.85 296.05 304.9Q299.7 339.95 330.1 355.45Q356.05 368.7 379.65 353.05M197.45,96.5L200.45 96.25Q256.3 124.45 269 186.4Q280.95 245 269.3 304Q259.8 351.85 217.25 372.25Q205.8 377.75 193 377.3Q135.85 375.25 119.75 321.8Q102.3 263.85 116.8 204.65Q131.1 146.3 176.7 105.6Q184.85 98.3 195.9 97.3Q196.7 97.25 197.45 96.5M191.95,110.25Q169.4 115.4 156.4 136.7Q147.6 151.15 139.05 165.85Q123.7 192.4 118.5 222.75Q113.55 251.5 116.2 280.8Q120.1 324.85 153.8 351.35Q160.9 356.95 169.7 359.45Q214.7 372.1 242.9 338.35Q250.5 329.25 254.8 318.1Q276.3 262.1 265.55 202.2Q254.3 139.3 198 112.4Q195.05 110.95 191.95 110.25M73.15,86.75Q71.1 101.45 70.55 116.5Q68.55 176.15 67.2 235.75Q65.85 295.55 64.05 354.95Q62.7 398.95 60 442.65Q98.1 456.85 140.2 454.9Q170.5 453.55 199.2 454.95Q200.65 457.4 200.75 460.2Q200.85 462.55 200.3 464.75Q199.85 466.55 198.45 467.7Q136.45 472.55 76.5 462.45Q69.45 458.5 61.65 455.95L58.4 454.95L57 455.95L56.3 454.25Q54.15 451.8 54.25 448.45L54.3 447.85Q51.8 437.75 52.95 426.05Q55.95 396.35 57.05 366.25Q59.25 306.8 60.6 247Q61.95 187.35 63.75 127.75Q64.75 94.75 70 64.5Q75.05 73.5 73.15 86.75" />
</g>
</svg>
