<?xml version="1.0" encoding="utf-8"?>
<svg version="1.1" id="Layer_1"
xmlns="http://www.w3.org/2000/svg"
xmlns:xlink="http://www.w3.org/1999/xlink"


xml:space="preserve">
q-10.75 3.85 -19.45 10.8q-2.25 1.75 -4.05 3.95q-4.2 36.55 20.65 65.2q13.25 15.25 20.1 34.6q7.2 20.35 4.95 41.4q-0.75 7.1 -6.5 11.8q-9.8 8 -22.5 6.2q-35.4 -4.9 -40.55 -39.3q7 -8 4.5 -17.75q-0.45 -1.7 -1.25 -3.25q-13.7 19.9 -6.45 44.05q4.8 15.95 17.65 26.35q9.95 8 22.55 9.7q13.2 1.9 23.7 -5.2q17.3 -11.6 18.3 -33.95q1.55 -34.95 -18.8 -64.1q-19.55 -27.95 -33.2 -59.3q9.35 -19.5 30.75 -14.5q5.95 -20.05 -10 -36q-2.75 59.4 -3.2 119.3q-0.1 15.1 -2.15 29.85q-2.45 17.3 4 29.15q2.6 -38 4 -76.45q17 0.6 33.5 -1.5q-0.1 10.7 -0.05 21.45q0.15 22.65 -2.9 44.8q-2.4 17.4 4.4 29.2q3.1 -4.25 3.4 -9.65q1.95 -34.3 2.05 -69.1q2.6 -4.85 0.05 -9.5q-2.15 1 -2.35 3.9q-3.6 42.15 -4.4 85q1.15 -46.6 0.15 -92.45q-3.65 7.85 -4.15 18.15q1.05 -1.5 1.45 -3.5q0.7 -3.1 -0.6 -5.95q-32.7 -2.7 -63.25 9.75q9.6 -90 4.05 -180.7q-7.55 72.5 -6.3 146.5q-4.6 21.2 -1.2 41.95q2.1 -33.35 3.5 -67.45q2.45 -59.85 -2.05 -118.5q-3.95 7.3 -3.65 17.5q1.7 59.85 -0.2 119.25q-0.5 15.05 -2.65 29.8q-2 13.55 4 21.65q0.95 -0.95 1.05 -2.25<g id="3608" transform="matrix(1, 0, 0, 1, -135.35, 0)">
<path style="fill:#000000;fill-opacity:1" d="M335.2,182Q351.15 197.95 345.2 218L335.95 193.5Q314.55 188.5 305.2 208Q318.85 239.35 338.4 267.3Q358.75 296.45 357.2 331.4Q356.2 353.75 338.9 365.35Q328.4 372.45 315.2 370.55Q302.6 368.85 292.65 360.85Q279.8 350.45 275 334.5Q267.75 310.35 281.45 290.45Q282.25 292 282.7 293.7Q285.2 303.45 278.2 311.45L278.6 315.4Q283.75 349.8 319.15 354.7Q331.85 356.5 341.65 348.5Q347.4 343.8 348.15 336.7Q350.4 315.65 343.2 295.3Q336.35 275.95 323.1 260.7Q298.25 232.05 302.45 195.5Q304.25 193.3 306.5 191.55Q315.2 184.6 325.95 180.75L335.2 182M375.2,176.75Q376.2 222.6 375.05 269.2L408.45 265.65Q409.25 222.8 412.85 180.65Q413.05 177.75 415.2 176.75L415.25 266.25Q417.8 270.9 415.2 275.75L415.15 295.2Q415.05 330 413.1 364.3Q412.8 369.7 409.7 373.95Q402.9 362.15 405.3 344.75Q408.35 322.6 408.2 299.95Q408.15 289.2 408.25 278.5Q391.75 280.6 374.75 280L374.25 295.25Q372.85 333.7 370.25 371.7L369.7 373.2Q363.25 361.35 365.7 344.05Q367.75 329.3 367.85 314.2Q368.3 254.3 371.05 194.9Q371.55 184.6 375.2 176.75M138.75,366.95Q135.35 346.2 139.95 325Q138.7 251 146.25 178.5Q151.8 269.2 142.2 359.2Q172.75 346.75 205.45 349.45L206.95 352.4Q208.25 355.25 207.55 358.35Q207.15 360.35 206.1 361.85L139.05 367.75L138.75 366.95M252.7,370.2Q246.7 362.1 248.7 348.55Q250.85 333.8 251.35 318.75Q253.25 259.35 251.55 199.5Q251.25 189.3 255.2 182Q259.7 240.65 257.25 300.5Q255.85 334.6 253.75 367.95Q253.65 369.25 252.7 370.2" />
</g>
</svg>
