<?xml version="1.0" encoding="utf-8"?>
<svg version="1.1" id="Layer_1"
xmlns="http://www.w3.org/2000/svg"
xmlns:xlink="http://www.w3.org/1999/xlink"


xml:space="preserve">
q-2.35 -25.95 -31.75 -25.8q-26.25 9.65 -29.55 38.6q-5.5 48.35 -4.4 97.65q1.35 59.45 0.35 119.25q-0.95 53.1 9.5 104.05q3.35 16.4 14.35 29.15q16.8 19.45 38.5 6q9.25 -5.75 14.15 -15.6q9.35 -18.9 2.6 -36.1q-2.2 0.85 -3.25 3q-0.9 1.75 -1.1 3.75q0.2 -1.8 -0.55 -3.45q2.05 7.15 0.5 14.45q-3.4 16.2 -18.5 21.35q-22.2 7.6 -31.55 -13.8q-14.95 -34.15 -15.2 -72.75q13.15 -0.45 25.85 0.3q0.75 -1.05 1 -2.25q1 -4.15 0.15 -8.3q-0.5 -2.35 -2.4 -3.7q-0.65 -59.5 0.5 -118.5q0.6 -26.15 17.55 -43.5q24.35 -8.35 39.25 11.75q1.4 -1.25 1.25 -2.95q2.25 -31.9 -32.05 -34.95q-4.35 1.2 -8.8 3.35q-3.75 1.8 -6 5q-22.3 31.05 -17.25 71.8q4.85 39.05 23.15 74.05q10.65 20.35 19.45 41.65q21.9 53 26.3 110.75q3.55 46.5 -8.7 89.8q-9.85 35.05 -46.15 32.55q-8.15 -3.95 -9.4 -12.2q-0.45 -3 -0.5 -5.95q-1.9 -0.6 -3.35 -1.55q-2.05 8.4 0.1 17.05q6.1 24.25 32.6 16.8q13.1 -3.7 20.55 -13.9q10.85 -14.9 15.15 -32.5q10.45 -43.05 7.25 -88.15q-2.1 -29.5 -8.3 -58.1q-9.2 -42.5 -25.7 -83.1q-5.6 -13.75 -13.5 -26.6q-28.3 -45.9 -21.5 -97.7q1.65 -12.25 9.6 -21.3q13.45 -15.2 31.5 -5.2q11.1 6.15 16 16.35q-0.5 -6.2 -2.7 -12.05q-3.85 -39.6 -20.75 -74.95q-2.3 57.8 0.2 115.55q0.15 3.8 0.75 7.65q0.6 3.6 1.65 7.2q10.75 -35.35 14.25 -72.2q13.2 -57.75 18.75 -117.15q-3.35 29 3.3 56.8q3.05 12.85 11.5 23.25q5.85 1.1 11.55 -0.55q20.75 -6.05 27.65 -26.95q16.25 -49.4 1.3 -97.75q3.55 20.45 5 41.5q1.55 22.25 -8.85 42q-12.1 23.05 -33.95 18.6q-4.95 -0.95 -6.25 -6.5q-4.6 -20.2 -4.05 -41q0.5 -20.55 2.85 -40.95q1.5 -12.75 -3 -24.9q5.4 4.6 7.55 10.85q18.75 39.05 21 82.55q3.15 59.7 1.9 119.2q-0.45 46.45 -27 84.15q-26.4 37.4 -69.55 18.2q-16.9 -7.5 -28.4 -22.35q-30.35 -39.05 -36.35 -89.05q-4.35 -36.1 -2.7 -72.8q2.7 -59.65 16.8 -117.35q14.45 -59.05 74.5 -68.55q11.6 -0.65 23 1.75q1.95 1.4 4.45 1.8q2.7 0.45 4.05 2.45q0.25 6.35 5.2 10.6q-13.4 -46.6 -61.2 -48.85q-57.6 6.4 -74.5 61.15q-7.8 25.2 -12.35 51.35q-10.1 58.35 -11.55 118.25q-1.4 60 22.25 115.65q13.8 32.5 45.55 49.05q18.1 9.4 38.15 6.7q22.05 -3 36.15 -20.25q22.55 -27.65 27.25 -62.85q3.85 -28.4 5.7 -56.95q2.9 -43.95 3.45 -88.35q0.75 -60.35 -16.5 -116.9q-6.6 57.35 -8.25 117.25q-1.6 59.3 -2.6 119.25q-1 59.4 -1 119.2q0.05 29.8 -2.75 59.15q-1 10.7 2.65 17.6q3.85 2.2 8.65 2.35q58.05 2.1 116.7 -0.45q3.55 -4.7 1.75 -10.5q-0.35 -0.35 -0.75 -0.4q-44.45 4 -87.3 2.55q3.45 -34.1 3.05 -69.15q-0.65 -59.95 0.35 -119.2q1.05 -59.9 3.75 -119.25q2.75 -60 0.95 -118.5q-10.35 16.45 -13.4 35.9q-6.7 42.8 11.35 79.65q15.75 17.25 39.25 6.5q6.2 -2.8 11.1 -7.25q37.95 -34.45 27.3 -85.2q-1.75 -8.5 -6.25 -15.7q-18.4 -29.75 -56.9 -25.6q-7.75 4.25 -12.45 11.7q0.75 -1.3 1.5 -0.2q33 16 27.25 54.7q-3.3 22.35 -19.6 37.9q-14.55 13.85 -34.1 13.55q-22.4 -1.5 -26.95 -25.25q-6.05 -31.95 0.85 -64q1.9 -8.8 8.3 -15.15q14.8 -14.65 35 -8.55q3 0.95 5.25 3.05<g id="3444" transform="matrix(1, 0, 0, 1, -32.5, 0)">
<path style="fill:#000000;fill-opacity:1" d="M506.45,102Q491.55 81.9 467.2 90.25Q450.25 107.6 449.65 133.75L449.15 158.5Q448 217.5 448.65 277L448.7 281.1L449.4 280.85L451 280.35L454.9 279.1L454.95 279L472.2 280.25L473.45 280.25Q475.35 281.6 475.85 283.95Q476.7 288.1 475.7 292.25Q475.45 293.45 474.7 294.5Q462 293.75 448.85 294.2L449.7 396.2Q449.95 434.8 464.9 468.95Q474.25 490.35 496.45 482.75Q511.55 477.6 514.95 461.4Q516.5 454.1 514.45 446.95L514.8 446.85L515.9 449.75Q516.65 451.4 516.45 453.2L516.6 452.95Q516.8 450.95 517.7 449.2Q518.75 447.05 520.95 446.2Q527.7 463.4 518.35 482.3Q513.45 492.15 504.2 497.9Q482.5 511.35 465.7 491.9Q454.7 479.15 451.35 462.75Q440.9 411.8 441.85 358.7L442.35 328.75Q443.35 268.95 442 209.5Q440.9 160.2 446.4 111.85Q449.7 82.9 475.95 73.25Q505.35 73.1 507.7 99.05Q507.85 100.75 506.45 102M417.7,98.75Q412.8 88.55 401.7 82.4Q383.65 72.4 370.2 87.6Q362.25 96.65 360.6 108.9Q353.8 160.7 382.1 206.6Q390 219.45 395.6 233.2Q412.1 273.8 421.3 316.3Q427.5 344.9 429.6 374.4Q432.8 419.5 422.35 462.55Q418.05 480.15 407.2 495.05Q399.75 505.25 386.65 508.95Q360.15 516.4 354.05 492.15Q351.9 483.5 353.95 475.1L354.7 472.25Q356.15 473.2 358.05 473.8Q358.1 476.75 358.55 479.75Q359.8 488 367.95 491.95Q404.25 494.45 414.1 459.4Q426.35 416.1 422.8 369.6Q418.4 311.85 396.5 258.85Q387.7 237.55 377.05 217.2Q358.75 182.2 353.9 143.15Q348.85 102.4 371.15 71.35Q373.4 68.15 377.15 66.35Q381.6 64.2 385.95 63Q420.25 66.05 418 97.95L417.7 98.75M329.9,243.7L329.7 247.55Q324.15 306.95 310.95 364.7L292.2 287Q288.7 323.85 277.95 359.2L275.8 352.4Q274.75 348.8 274.15 345.2Q273.55 341.35 273.4 337.55Q270.9 279.8 273.2 222L279.2 336.75L289.95 267.75Q306.85 303.1 310.7 342.7L323.55 234.1L326.95 226Q329.15 231.85 329.65 238.05L329.9 243.7M275.95,95.65Q273.6 116.05 273.1 136.6Q272.55 157.4 277.15 177.6Q278.45 183.15 283.4 184.1Q305.25 188.55 317.35 165.5Q327.75 145.75 326.2 123.5Q324.75 102.45 321.2 82L318.45 83.75L322.95 72.75Q337.9 121.1 321.65 170.5Q314.75 191.4 294 197.45Q288.3 199.1 282.45 198Q274 187.6 270.95 174.75Q264.3 146.95 267.65 117.95L272.95 70.75Q277.45 82.9 275.95 95.65M213.95,81Q212.6 79 209.9 78.55Q207.4 78.15 205.45 76.75L204.45 76Q193.05 73.6 181.45 74.25Q121.4 83.75 106.95 142.8Q92.85 200.5 90.15 260.15Q88.5 296.85 92.85 332.95Q98.85 382.95 129.2 422Q140.7 436.85 157.6 444.35Q200.75 463.55 227.15 426.15Q253.7 388.45 254.15 342L254.6 312Q255.85 252.5 252.7 192.8Q250.45 149.3 231.7 110.25L231.65 111.5L231.55 112.25L231.45 113L231.45 113.75L231.2 115.25L226.7 102.45Q224.55 96.2 219.15 91.6Q214.2 87.35 213.95 81M246.55,119.1Q263.8 175.65 263.05 236Q262.5 280.4 259.6 324.35Q257.75 352.9 253.9 381.3Q249.2 416.5 226.65 444.15Q212.55 461.4 190.5 464.4Q170.45 467.1 152.35 457.7Q120.6 441.15 106.8 408.65Q83.15 353 84.55 293Q86 233.1 96.1 174.75Q100.65 148.6 108.45 123.4Q125.35 68.65 182.95 62.25Q230.75 64.5 244.15 111.1L246.55 119.1M48.25,53Q50.05 111.5 47.3 171.5Q44.6 230.85 43.55 290.75Q42.55 350 43.2 409.95Q43.6 445 40.15 479.1Q83 480.55 127.45 476.55L128.95 476.2L164.45 477.55Q164.85 477.6 165.2 477.95L165.65 478.75L165.95 479.45L166.2 480.2Q168 486 164.45 490.7Q105.8 493.25 47.75 491.15Q42.95 491 39.1 488.8L39 489.45L37.75 487.95L36.75 487.2L36.5 486.45L36.25 485.7L36.15 485.45Q32.5 478.55 33.5 467.85Q36.3 438.5 36.25 408.7Q36.25 348.9 37.25 289.5Q38.25 229.55 39.85 170.25Q41.5 110.35 48.1 53L48.25 53M281.95,374.2Q320.45 370.05 338.85 399.8Q343.35 407 345.1 415.5Q355.75 466.25 317.8 500.7Q312.9 505.15 306.7 507.95Q283.2 518.7 267.45 501.45Q249.4 464.6 256.1 421.8Q259.15 402.35 269.5 385.9Q274.2 378.45 281.95 374.2M311.45,388.2Q309.2 386.1 306.2 385.15Q286 379.05 271.2 393.7Q264.8 400.05 262.9 408.85Q256 440.9 262.05 472.85Q266.6 496.6 289 498.1Q308.55 498.4 323.1 484.55Q339.4 469 342.7 446.65Q348.45 407.95 315.45 391.95L314.6 391.05Q313.85 389.95 313.1 391.25L311.45 388.2" />
</g>
</svg>
