<?xml version="1.0" encoding="utf-8"?>
<svg version="1.1" id="Layer_1"
xmlns="http://www.w3.org/2000/svg"
xmlns:xlink="http://www.w3.org/1999/xlink"


xml:space="preserve">
q-12.2 -10.25 -29.35 -6.15q-6.2 1.3 -12.4 4.15q-12.75 5.9 -17.5 19.15q-16.05 44.4 -21.9 91.6q-6.95 56.35 4.95 111q1.7 7.75 8.8 9.6q44.55 11.75 70.4 -25.4q15.2 -21.9 22.1 -47.7q15.5 -58.15 1 -116.9q-6.45 -26.35 -22.95 -44q-1.4 0.7 -1.9 2.2q-0.35 1.1 -0.45 2.3q7.2 12.3 11.65 29.65q15.4 59.55 -6.35 116.1q-19.75 51.4 -75.05 51.1q-2.35 0 -3.8 -1.35q-14.6 -13.85 -14.35 -36.25q0.25 -22.45 1.85 -44.9q3.25 -44.7 10.75 -88.85q7.4 -43.55 53.3 -41.75q13.05 2.3 19.05 14.1q1.1 2.15 1.7 4.65q-7.4 38.9 -10 81.25q-3.7 59.25 -11.9 117.95q-2.05 14.9 -5.75 29.4q-4.1 16.1 1.5 29.45q2.9 -2.25 3.7 -6.45q4.3 -23.4 7.15 -47.1q7.05 -58.8 11.35 -117.95q2.15 -29.6 5.4 -59.1q0.8 -7.15 0.65 -13.8q3.6 20.8 9.75 41.6q8.4 28.35 14.7 56.95q12.65 57.4 23.9 115.2q3.1 16.2 10.15 27.4q1.15 -3.45 1.65 -6.7q3.6 -6.1 4.1 -13.4q4.15 -58.6 12.05 -117.05q7.95 -59.1 8.4 -117.75q-8.3 12.25 -7.75 29.25q1.4 44.6 -5.55 87.95q-8.2 51.05 -15.2 102.35q-0.45 3.25 -0.55 6.4q-7.5 -27.05 -13.4 -55.25q-6.15 -29.2 -11.95 -58.3q-11.55 -57.95 -31.85 -113.65q-1.4 -0.1 -1.2 1.45q34.85 16.8 49.6 53.05q3.45 8.5 5.4 17.55q13.2 61.4 -22.7 112.9q-4.65 6.6 -11.9 9.9q-43.3 19.95 -70.5 -17.75q-5.75 -8.05 -7.4 -17.45q-10.3 -59.15 8.1 -116.85q10.3 -32.45 37.4 -51.1q4.7 -0.5 9 0.75q0.85 1.7 0.8 3.75q-0.15 3.25 2.2 5.25q-16.45 7.15 -25.5 23.95q-28.5 52.65 -31.25 113.2q-1.4 30.9 11.45 58q18.55 39.05 62.25 36.25q11.35 -0.7 19.1 -8.8q42.7 -44.65 39.05 -107.65q-0.85 -14.85 -2.4 -29.4q-3.45 -32.65 -25.2 -57.15q-19.65 -22.05 -47.5 -28.4q-5.9 42.8 -9 86.15q-4.15 59.05 -9.85 117.8q-1.5 14.95 -4.65 29.55q-2.25 10.2 1 17.65q0.35 0.4 0.8 0.45q55.05 8.55 110.65 4.8q1.4 -1.15 1.8 -2.95q0.4 -1.8 0.2 -3.7q-0.5 -1.45 -1.75 -2.3q-51.45 3.35 -103 -0.2q5.5 -33.95 8.2 -69.6q4.5 -58.85 10.2 -117.7q2.95 -30.4 0.5 -59.4q-0.75 0.1 -0.8 0.35<g id="3440" transform="matrix(1, 0, 0, 1, -70.95, 0)">
<path style="fill:#000000;fill-opacity:1" d="M346.95,143.5L347.1 143Q347.2 141.8 347.55 140.7Q348.05 139.2 349.45 138.5Q365.95 156.15 372.4 182.5Q386.9 241.25 371.4 299.4Q364.5 325.2 349.3 347.1Q323.45 384.25 278.9 372.5Q271.8 370.65 270.1 362.9Q258.2 308.25 265.15 251.9Q271 204.7 287.05 160.3Q291.8 147.05 304.55 141.15Q310.75 138.3 316.95 137Q334.1 132.9 346.3 143.15L346.95 143.5M356.05,165.95L356.05 167.4L355.4 167.95L354.7 167.75Q354.1 165.25 353 163.1Q347 151.3 333.95 149Q288.05 147.2 280.65 190.75Q273.15 234.9 269.9 279.6Q268.3 302.05 268.05 324.5Q267.8 346.9 282.4 360.75Q283.85 362.1 286.2 362.1Q341.5 362.4 361.25 311Q383 254.45 367.6 194.9Q363.15 177.55 355.95 165.25L356.05 165.95M405,136.7Q404.8 135.15 406.2 135.25Q426.5 190.95 438.05 248.9Q443.85 278 450 307.2Q455.9 335.4 463.4 362.45Q463.5 359.3 463.95 356.05Q470.95 304.75 479.15 253.7Q486.1 210.35 484.7 165.75Q484.15 148.75 492.45 136.5Q492 195.15 484.05 254.25Q476.15 312.7 472 371.3Q471.5 378.6 467.9 384.7Q467.4 387.95 466.25 391.4L465.7 392.2Q458.65 381 455.55 364.8Q444.3 307 431.65 249.6Q425.35 221 416.95 192.65Q410.8 171.85 407.2 151.05Q407.35 157.7 406.55 164.85Q403.3 194.35 401.15 223.95Q396.85 283.1 389.8 341.9Q386.95 365.6 382.65 389Q381.85 393.2 378.95 395.45Q373.35 382.1 377.45 366Q381.15 351.5 383.2 336.6Q391.4 277.9 395.1 218.65Q397.7 176.3 405.1 137.4L405 136.7M194.25,139Q194.3 136.95 193.45 135.25Q189.15 134 184.45 134.5Q157.35 153.15 147.05 185.6Q128.65 243.3 138.95 302.45Q140.6 311.85 146.35 319.9Q173.55 357.6 216.85 337.65Q224.1 334.35 228.75 327.75Q264.65 276.25 251.45 214.85Q249.5 205.8 246.05 197.3Q231.3 161.05 196.45 144.25Q194.1 142.25 194.25 139M232.45,154.15Q254.2 178.65 257.65 211.3Q259.2 225.85 260.05 240.7Q263.7 303.7 221 348.35Q213.25 356.45 201.9 357.15Q158.2 359.95 139.65 320.9Q126.8 293.8 128.2 262.9Q130.95 202.35 159.45 149.7Q168.5 132.9 184.95 125.75Q212.8 132.1 232.45 154.15M97.5,116.25Q99.95 145.25 97 175.65Q91.3 234.5 86.8 293.35Q84.1 329 78.6 362.95L78.95 362.9L80 362.8L83 362.45Q134.55 366 186 362.65L187.45 362.7Q188.7 363.55 189.2 365L189.4 365.75L189.85 369.5Q190.05 371.4 189.65 373.2L189.5 374Q189.1 375.8 187.7 376.95Q132.1 380.7 77.05 372.15L77 372.45L76.75 372.1L75.55 371.9Q75.1 371.85 74.75 371.45L74.55 370.7L74.4 370L74.3 369.2L74.25 368.45L74.2 367.75Q70.95 360.3 73.2 350.1Q76.35 335.5 77.85 320.55Q83.55 261.8 87.7 202.75Q90.8 159.4 96.7 116.6Q96.75 116.35 97.5 116.25" />
</g>
</svg>
