<?xml version="1.0" encoding="utf-8"?>
<svg version="1.1" id="Layer_1"
xmlns="http://www.w3.org/2000/svg"
xmlns:xlink="http://www.w3.org/1999/xlink"


xml:space="preserve">
q-1.4 2.4 -1.25 5.25q0 1.5 0.25 3q0.25 1.95 1.75 3q-5.45 54.4 -3.15 109.9q0.6 15 -1.3 29.75q-2.15 17.05 5.2 29.45q4.4 -28.55 3.6 -59.25q1.75 -3.15 1.45 -6.75q-0.55 -2.9 -3 -4.5q6.4 -13.25 2.05 -27.25q-7.8 12.55 -2.3 27.35q-0.8 0.25 -0.9 1.3q-4.05 40.8 -3.1 82.4q-15.25 10.55 -28.25 -1.75q-1.2 1.25 -1.45 3q-2.9 19.1 16.75 20.4q6.9 0.45 11.75 -4.35q10 -9.85 8.75 -25.15q-2 -24.65 0.15 -49.25q1.4 -15.45 -3.7 -26.6q-3.6 41.4 -2.7 84.65q0.2 10.65 0 21q-0.6 38.2 -29.7 59.25q-15.8 3.6 -30.45 -2.7q-4.85 -2.05 -6.2 -7.15q-12.2 -46.1 -8.35 -94.95q1.15 -14.9 3.55 -29.65q2.8 -17.3 -3.3 -29.25q-7.05 56.45 -6.05 114.7q0.4 22.55 7.1 43.9q8.35 26.65 38.9 21.7q8.9 -1.4 14.95 -7.85q22.75 -24.25 25.3 -58.15q2.15 -28.2 2.6 -57.05q0.45 -30.7 -4.3 -59.25q-1.25 -0.2 -1.35 0.8q-1.25 35.05 -2.95 69.75q-2.95 60 -3.15 118.45q3.55 -6.75 0 -13.5q-30.6 -0.75 -59.45 -1q0.8 -27.8 2.35 -55.5q3.35 -59.9 1.4 -118.45q-2.55 0.05 -2.65 3<g id="3445" transform="matrix(1, 0, 0, 1, -138.75, 0)">
<path style="fill:#000000;fill-opacity:1" d="M400.95,183.8L415.45 184Q417.9 185.6 418.45 188.5L418.7 190L418.9 191.5Q419.2 195.1 417.45 198.25L359.4 199.05L362.05 308.95Q362.85 339.65 358.45 368.2Q351.1 355.8 353.25 338.75Q355.15 324 354.55 309Q352.25 253.5 357.7 199.1L323.45 199.25Q321.95 198.2 321.7 196.25Q321.45 194.75 321.45 193.25L321.45 192.5Q321.3 189.65 322.7 187.25L380.95 183.75L400.95 183.8M409.15,250.85Q403.65 236.05 411.45 223.5Q415.8 237.5 409.4 250.75L409.15 250.85M413.65,288.85Q411.5 313.45 413.5 338.1Q414.75 353.4 404.75 363.25Q399.9 368.05 393 367.6Q373.35 366.3 376.25 347.2Q376.5 345.45 377.7 344.2Q390.7 356.5 405.95 345.95Q405 304.35 409.05 263.55Q409.15 262.5 409.95 262.25Q415.05 273.4 413.65 288.85M304.45,181Q309.2 209.55 308.75 240.25Q308.3 269.1 306.15 297.3Q303.6 331.2 280.85 355.45Q274.8 361.9 265.9 363.3Q235.35 368.25 227 341.6Q220.3 320.25 219.9 297.7Q218.9 239.45 225.95 183Q232.05 194.95 229.25 212.25Q226.85 227 225.7 241.9Q221.85 290.75 234.05 336.85Q235.4 341.95 240.25 344Q254.9 350.3 270.7 346.7Q299.8 325.65 300.4 287.45Q300.6 277.1 300.4 266.45Q299.5 223.2 303.1 181.8Q303.2 180.8 304.45 181M147.5,182.25Q149.45 240.8 146.1 300.7Q144.55 328.4 143.75 356.2Q172.6 356.45 203.2 357.2Q206.75 363.95 203.2 370.7L138.75 373.45Q138.95 315 141.9 255Q143.6 220.3 144.85 185.25Q144.95 182.3 147.5 182.25" />
</g>
</svg>
