<?xml version="1.0" encoding="utf-8"?>
<svg version="1.1" id="Layer_1"
xmlns="http://www.w3.org/2000/svg"
xmlns:xlink="http://www.w3.org/1999/xlink"


xml:space="preserve">
q-21.25 1.7 -36.15 20.9q-13.7 17.6 -19.3 39.2q-5.5 21.2 -6.8 43.05q-1.3 21.6 -0.15 43.1q1.35 24.55 20.5 36.15q20.8 12.55 40.1 -1.05q7.6 -5.4 12.15 -13.6q-0.55 10.8 4.85 18.05q5.3 -31.25 0.4 -62.65q-13.05 -1 -24.75 5q-4.4 16.55 -20.55 21.75q-10.1 3.2 -20.65 0.8q-7.6 -1.6 -13.7 -6.6q-5.85 -4.85 -7.45 -12.2q-8 -36.5 -0.35 -73q9.35 -44.45 48.8 -57.85q11.15 -3.8 20.15 3.9q2.3 -14.45 -12.05 -21.1q0.3 -16.95 -6.45 -29.25q-3.7 3.45 -4.45 8.8q-1.05 7.7 0.45 6.95q3.05 12.85 2.9 28.75q-0.15 15.3 1.5 30.55q5.45 50.2 -22.9 88.65q-15.65 8.9 -33.75 5.25q-5.55 -2 -9 -6.7q-14.2 -19.3 -13 -45.1q2.85 -60 1 -118.4q-0.6 -0.2 -0.7 0.3q-4.15 16.45 -4.7 34.2q-1.85 59 2.25 117.7q1.95 28.35 29.1 33.75q25.6 5.1 38.75 -16.9q21.4 -35.75 19.7 -78.6q-1.15 -30.05 -0.7 -59.95q32.85 -10.8 68.4 -8q3.55 -6.75 0 -13.5q-36.9 -6.7 -70.45 5.5q0.15 -26.5 -0.4 -53q-1.25 -60.05 -1.85 -118.45q-5.9 10.7 -5.45 25.5q1.65 59.6 0.65 119.2q-0.35 23.25 2.8 44.25q-5.95 -1.7 -12.35 -1.5q-15.8 9.9 -18.35 28.3q-4.5 32 14.85 54.9q14.35 3.3 22.95 -8.8q26.9 -38.05 -3.95 -72.15q24.25 -11.2 31.75 12.95q7.45 23.8 -14.05 34.85q-6.2 3.25 -13.1 1.45q-13.2 -24.05 -4.7 -49.2<g id="3448" transform="matrix(1, 0, 0, 1, -142.6, 0)">
<path style="fill:#000000;fill-opacity:1" d="M406.15,182.9Q420.5 189.55 418.2 204Q409.2 196.3 398.05 200.1Q358.6 213.5 349.25 257.95Q341.6 294.45 349.6 330.95Q351.2 338.3 357.05 343.15Q363.15 348.15 370.75 349.75Q381.3 352.15 391.4 348.95Q407.55 343.75 411.95 327.2L414.95 332.25L415.45 317.2L394 316.65L393.7 309.2Q405.4 303.2 418.45 304.2Q423.35 335.6 418.05 366.85Q412.65 359.6 413.2 348.8Q408.65 357 401.05 362.4Q381.75 376 360.95 363.45Q341.8 351.85 340.45 327.3Q339.3 305.8 340.6 284.2Q341.9 262.35 347.4 241.15Q353 219.55 366.7 201.95Q381.6 182.75 402.85 181.05L406.15 182.9M329.6,271.7Q331.3 314.55 309.9 350.3Q296.75 372.3 271.15 367.2Q244 361.8 242.05 333.45Q237.95 274.75 239.8 215.75Q240.35 198 244.5 181.55Q244.6 181.05 245.2 181.25Q247.05 239.65 244.2 299.65Q243 325.45 257.2 344.75Q260.65 349.45 266.2 351.45Q284.3 355.1 299.95 346.2Q328.3 307.75 322.85 257.55Q321.2 242.3 321.35 227Q321.5 211.1 318.45 198.25Q316.95 199 318 191.3Q318.75 185.95 322.45 182.5Q329.2 194.8 328.9 211.75Q328.45 241.65 329.6 271.7M146.5,370.2Q143.35 349.2 143.7 325.95Q144.7 266.35 143.05 206.75Q142.6 191.95 148.5 181.25Q149.1 239.65 150.35 299.7Q150.9 326.2 150.75 352.7Q184.3 340.5 221.2 347.2Q224.75 353.95 221.2 360.7Q185.65 357.9 152.8 368.7L146.5 370.2M293.45,217.5Q324.3 251.6 297.4 289.65Q288.8 301.75 274.45 298.45Q255.1 275.55 259.6 243.55Q262.15 225.15 277.95 215.25Q284.35 215.05 290.3 216.75L293.45 217.5M268.25,234.75Q259.75 259.9 272.95 283.95Q279.85 285.75 286.05 282.5Q307.55 271.45 300.1 247.65Q292.6 223.5 268.35 234.7L268.25 234.75" />
</g>
</svg>
