<?xml version="1.0" encoding="utf-8"?>
<svg version="1.1" id="Layer_1"
xmlns="http://www.w3.org/2000/svg"
xmlns:xlink="http://www.w3.org/1999/xlink"


xml:space="preserve">
q-17.05 36.6 -24.5 76.9q-10.95 58.85 -1.45 118q5 31 29.9 49.35q11.25 8.3 24.25 4.3q18.25 -5.65 32.25 -18.85q16 -15.15 9.3 -32.5q-14.2 19.45 -34.25 33q-8.2 5.55 -17.8 2.55q-31.75 -9.95 -37.45 -43.55q-5.5 -32.45 -3.75 -64.65q31.9 5.3 63.5 0.65q0.75 -1.45 1.15 -3.05q0.3 -1.1 0.2 -2.25q-0.2 -2.6 -1.85 -4.5q-5.8 -0.65 -11.25 0.6q1.95 -19.6 6.6 -39.1q3.45 -14.45 5.15 -29.2q3.35 -29.7 28.7 -44.35q22.55 -13.05 39.05 2.05q0.3 1.1 0.2 2.3q2.5 -8.1 -2.3 -15.45q-2.5 -3.85 -6.2 -6.8q-8.8 -2.5 -18.55 -1.3q-10.25 1.8 -18.85 8.45q-5.8 4.5 -8.9 11.1q3.75 -59.4 1.4 -117.85q-7 54.5 -8.85 111.75q-0.9 -0.55 -1.95 -0.9q-24.6 6.1 -50.25 6.7q1.85 -57.15 -2 -113.2q-4.2 23.05 -3.7 48.75q0.85 44.3 -1.3 88.4q-0.55 10.45 6 13.55q2.7 -15.75 3.1 -32.25q1.45 -56.45 3.5 -112.9q25.85 2.4 50.4 -2.8q0.65 1.35 1.55 2.25q-1.5 36.8 -3.4 73.5q-1.15 22.25 -5.2 43.95q-3.15 16.55 2.8 30q8.55 -32.3 9.5 -67.95q1.1 -39.65 3.15 -79.35q2.1 -4.65 -0.15 -8.95q-26 -0.6 -52 1.25q-0.55 1.05 -0.65 2.25q0.25 1.55 1.55 2.25q-1.25 9.1 -2.05 18.65q-3.3 39.8 -5.95 79.6q-3.9 59.4 -8.35 118.5q-2.25 29.6 -6.35 58.9q-2 14.15 5.35 21.75q3.9 -11.4 4.5 -23.9q2.8 -59.3 6.5 -118.55q1.4 -22.1 3.85 -44.05q6.15 -55.8 4.65 -110.8q0.75 -1 1.15 -2.2q-0.05 -1.2 -0.45 -2.3q-0.4 -1.2 -1.15 -2.2q-0.35 -0.4 -0.75 -0.4q-2.05 23.7 -0.6 47.3q3.6 59.5 -1.45 118.45q-0.6 7.45 -2 14.7q-3.2 16.6 2.35 30.05q1.9 -0.7 2.1 -2.8q4.45 -45 6.4 -90.7q2.6 -60.1 -5.25 -118.5q-1.45 -0.1 -1.55 1.5q-5.8 53.3 -7.25 107.3q-1.65 59.7 -3.75 119.25q-1.05 29.9 -7.35 58.85q-2.7 12.55 3.2 19.3q57.3 -4.35 115.1 -2.65q2.65 -2.7 2.75 -6.75q0.1 -3.05 -0.5 -5.95q-0.45 -2.35 -2.25 -3.8q-13.85 2.45 -28.4 1.7q-28.15 -1.5 -53.1 6.7q7 -44.5 7.15 -90.35q0.3 -59.85 3.55 -119.25q1.65 -29.65 4.2 -59.1q1.4 -15.85 0.15 -30.15q-3.75 0.85 -4.25 5.2<g id="3601" transform="matrix(1, 0, 0, 1, -68.2, 0)">
<path style="fill:#000000;fill-opacity:1" d="M401.1,106.95Q409.7 100.3 419.95 98.5Q429.7 97.3 438.5 99.8L441.45 100.5Q445.15 103.45 447.65 107.3Q452.45 114.65 449.95 122.75L449.6 122.2L449.5 121.5Q449.6 120.3 449.3 119.2L449.2 118.5Q432.7 103.4 410.15 116.45Q384.8 131.1 381.45 160.8Q379.75 175.55 376.3 190Q371.65 209.5 369.7 229.1Q375.15 227.85 380.95 228.5L430.45 230.1L431.7 230.5Q433.35 232.4 433.55 235L433.65 236.5L433.75 237.25Q433.85 238.4 433.55 239.5L433.35 240.2Q432.95 241.8 432.2 243.25Q400.6 247.9 368.7 242.6Q366.95 274.8 372.45 307.25Q378.15 340.85 409.9 350.8Q419.5 353.8 427.7 348.25Q447.75 334.7 461.95 315.25Q468.65 332.6 452.65 347.75Q438.65 360.95 420.4 366.6Q407.4 370.6 396.15 362.3Q371.25 343.95 366.25 312.95Q356.75 253.8 367.7 194.95Q375.15 154.65 392.2 118.05Q395.3 111.45 401.1 106.95M340.2,239.25Q342.45 243.55 340.35 248.2L339.6 249.65Q337.55 289.35 336.45 329Q335.5 364.65 326.95 396.95Q321 383.5 324.15 366.95Q328.2 345.25 329.35 323Q331.25 286.3 332.75 249.5Q331.85 248.6 331.2 247.25Q306.65 252.45 280.8 250.05Q278.75 306.5 277.3 362.95Q276.9 379.45 274.2 395.2Q267.65 392.1 268.2 381.65L274.2 262.4Q276.35 218.3 275.5 174Q275 148.3 279.2 125.25Q283.05 181.3 281.2 238.45Q306.85 237.85 331.45 231.75Q332.5 232.1 333.4 232.65L334.35 204.5Q336.2 147.25 343.2 92.75Q345.55 151.2 341.8 210.6L340.15 239.2L340.2 239.25M307.2,89.25Q307.95 90.25 308.35 91.45Q308.75 92.55 308.8 93.75L308.9 94.5L308.95 95.25L308.85 97.5L308.8 98.25L308.35 100.55Q307.95 101.75 307.2 102.75L245.45 101.15Q246.95 156.15 240.8 211.95Q238.35 233.9 236.95 256Q233.25 315.25 230.45 374.55Q229.85 387.05 225.95 398.45Q218.6 390.85 220.6 376.7Q224.7 347.4 226.95 317.8Q231.4 258.7 235.3 199.3Q237.95 159.5 241.25 119.7Q242.05 110.15 243.3 101.05L169.45 98.5Q168.15 97.8 167.9 96.25L167.55 94L167.45 93.25L167.45 92.5L167.55 90.25L167.6 89.5Q167.7 88.3 168.25 87.25L168.95 85.75Q194.95 83.9 220.95 84.5L306.45 88.85Q306.85 88.85 307.2 89.25M171.2,116Q179.05 174.4 176.45 234.5Q174.5 280.2 170.05 325.2Q169.85 327.3 167.95 328Q162.4 314.55 165.6 297.95Q167 290.7 167.6 283.25Q172.65 224.3 169.05 164.8Q167.6 141.2 169.65 117.5Q169.75 115.9 171.2 116M93.5,84.5Q94.75 98.8 93.35 114.65Q90.8 144.1 89.15 173.75Q85.9 233.15 85.6 293Q85.45 338.85 78.45 383.35Q103.4 375.15 131.55 376.65Q146.1 377.4 159.95 374.95L183.05 376L191.45 376.7Q193.25 378.15 193.7 380.5Q194.3 383.4 194.2 386.45Q194.1 390.5 191.45 393.2Q133.65 391.5 76.35 395.85L76.25 396.45L75.6 395.9L74.75 395.95L74.35 395.2L74.1 394.4Q68.2 387.65 70.9 375.1Q77.2 346.15 78.25 316.25Q80.35 256.7 82 197Q83.45 143 89.25 89.7Q89.75 85.35 93.5 84.5" />
</g>
</svg>
