<?xml version="1.0" encoding="utf-8"?>
<svg version="1.1" id="Layer_1"
xmlns="http://www.w3.org/2000/svg"
xmlns:xlink="http://www.w3.org/1999/xlink"


xml:space="preserve">
q-3.7 0.9 -7.05 2.25q-0.7 2.15 -0.6 4.45q-1.5 8.35 -2 17.75q-0.25 1.1 -0.25 2.4q-2.75 53.4 -6.3 106.7q-1 15.1 -4.65 29.65q-3.45 13.65 3.2 21.85q7.25 -36.1 9 -73.4q12.65 1.7 24.4 -3.7q1.55 8.6 2.7 17.2q6.85 50.65 23.55 99.45q4.9 14.3 7.95 28.9q2.75 13.05 10.3 19.15q1.95 -9.05 0.7 -15.5q-9.6 -26 -19.2 -54.05q-3.35 -9.7 -4.95 -19.65q-6.1 -39.3 -17.85 -76.45q8.25 -4.5 14.1 -11.45q27 -31.85 23.85 -75.35q-3.75 -51.75 -52.1 -71.25q14.8 15.65 17.55 36.9q2.7 20.95 -3.05 41.35q-6.1 21.5 -24.85 32.95q-14.5 8.9 -31.7 7.95q2.35 -71.25 5.7 -137.15q20.95 1.8 36.35 18q-13.75 18.35 -15.75 42.1q-4.3 51.15 -0.05 102.8q1.95 24.2 24.15 26.05q4.3 -1.85 7.6 -4.45q17 -13.5 7.9 -28.05q-7.6 17.5 -25.25 17.5q-11.95 -10.9 -12.45 -27.75q-0.7 -25.7 0.85 -51q11.4 1.85 22.85 -2.2q1.2 -2.1 1.4 -4.55q0.2 -3.45 -1.15 -6.7q-0.35 -0.4 -0.8 -0.5q-9.9 3.35 -20.25 5.45q1.6 -21.05 4.85 -41.8q3.45 -22.1 24.9 -19.4q2.35 3.6 5.05 1.15q-2.05 -19.95 -21.85 -20.25q-3.45 1.25 -5.85 4.5q-3 56.8 -3.8 114.1q-0.85 60.8 12.4 119.45q7.35 32.4 39.4 35.5q2.7 -1.95 5.75 -3.15q8.7 -3.5 14.35 -10.7q37.6 -47.8 40.15 -109.1q2.4 -60.35 -6.15 -118.55q-1.9 -0.1 -1.95 1.75q-0.85 38.25 0.3 78q1.6 60.5 -23.6 114.8q-10.35 22.35 -33.3 29.9q-8.9 2.9 -15.7 -3.05q-19.45 -16.95 -23.2 -43.5q-8.3 -58.2 -5.75 -117.85q2.5 -60 2.3 -118.55q-4.35 13.8 -5.25 30.15q-5.75 49.5 -8.1 100.2q-2.75 59.4 -6.95 118.5q-1 12.45 1.65 23.05q-0.6 1.9 0 3.75q0.75 1.8 2.95 2.1q72.3 9.1 145.25 1.65q3.25 -7.05 -1.2 -12.75q3.15 -26.2 4.3 -52.8q2.55 -59.25 5.9 -118.5q-0.55 -5.3 -3.45 -9.75q-20.15 6.35 -27.2 27.55q-5.9 17.85 -8.15 36.8q-5.5 45.75 14.2 86.05q5.9 12.15 19.15 7.95q35.25 -11.25 41.85 -48.15q10.95 -61.15 -14.9 -114.85q-1.05 -0.2 -1.85 0.4q-2.15 1.7 -2.65 4.6q-10.1 -3.6 -20.45 -0.35q16.9 41.95 10.35 88.5q-5.85 42 -47.1 47.25q-2.5 -1.55 -4.1 -3.95q-15.35 -23 -15.65 -51.3q-0.35 -28.9 6.9 -55.95q7.6 -28.15 36.35 -28.55q4.5 0 8.75 1.55q2.4 0.9 4.5 2.45<g id="3447" transform="matrix(1, 0, 0, 1, -52.4, 0)">
<path style="fill:#000000;fill-opacity:1" d="M352.95,100Q401.3 119.5 405.05 171.25Q408.2 214.75 381.2 246.6Q375.35 253.55 367.1 258.05Q378.85 295.2 384.95 334.5Q386.55 344.45 389.9 354.15Q399.5 382.2 409.1 408.2L409.45 407.45Q410.7 413.9 408.75 422.95L408.2 424.45Q400.65 418.35 397.9 405.3Q394.85 390.7 389.95 376.4Q373.25 327.6 366.4 276.95Q365.25 268.35 363.7 259.75Q351.95 265.15 339.3 263.45L335.5 340Q333.75 377.3 326.5 413.4L325.7 414.95Q319.05 406.75 322.5 393.1Q326.15 378.55 327.15 363.45Q330.7 310.15 333.45 256.75L333.4 255.5Q333.4 254.2 333.65 253.1L334.05 244.95L340.05 126.5Q340.55 117.1 342.05 108.75L341.95 108Q341.85 105.7 342.55 103.55L342.95 102.75Q346.3 101.4 350 100.5L352.95 100M345.75,111Q342.4 176.9 340.05 248.15Q357.25 249.1 371.75 240.2Q390.5 228.75 396.6 207.25Q402.35 186.85 399.65 165.9Q396.9 144.65 382.1 129Q366.7 112.8 345.75 111M442.95,241.5Q462.75 241.8 464.8 261.75L464.7 262.5Q462 264.95 459.65 261.35L454.45 253.5Q433 250.8 429.55 272.9Q426.3 293.65 424.7 314.7Q435.05 312.6 444.95 309.25L449.4 309.75Q449.85 309.85 450.2 310.25Q451.55 313.5 451.35 316.95Q451.15 319.4 449.95 321.5L449 321.65L446.95 321Q435.5 325.05 424.1 323.2Q422.55 348.5 423.25 374.2Q423.75 391.05 435.7 401.95Q453.35 401.95 460.95 384.45Q470.05 399 453.05 412.5Q449.75 415.1 445.45 416.95Q423.25 415.1 421.3 390.9Q417.05 339.25 421.35 288.1Q423.35 264.35 437.1 246Q439.5 242.75 442.95 241.5M213.2,105Q213.4 163.55 210.9 223.55Q208.35 283.2 216.65 341.4Q220.4 367.95 239.85 384.9Q246.65 390.85 255.55 387.95Q278.5 380.4 288.85 358.05Q314.05 303.75 312.45 243.25L310.8 183.25Q309.65 143.5 310.5 105.25Q310.55 103.4 312.45 103.5Q321 161.7 318.6 222.05L316.2 281.25Q313.65 342.55 276.05 390.35Q270.4 397.55 261.7 401.05Q258.65 402.25 255.95 404.2Q223.9 401.1 216.55 368.7Q203.3 310.05 204.15 249.25Q204.95 191.95 207.95 135.15Q208.85 118.8 213.2 105M74.5,98.25Q77.4 102.7 77.95 108L78 108.75L76.25 110.75L69.75 227.75Q66.4 287 63.85 346.25Q62.7 372.85 59.55 399.05L200.45 393.95Q204.9 399.65 201.65 406.7L201.2 407.45Q128.25 414.9 55.95 405.8Q53.75 405.5 53 403.7Q52.4 401.85 53 399.95L53.25 399.2L56.15 399.15Q53.5 388.55 54.5 376.1L58.9 317Q63.1 257.9 65.85 198.5Q68.2 147.8 73.95 98.3L74.5 98.25M147.95,104.25Q148.45 101.35 150.6 99.65Q151.4 99.05 152.45 99.25Q178.3 152.95 167.35 214.1Q160.75 251 125.5 262.25Q112.25 266.45 106.35 254.3Q86.65 214 92.15 168.25Q94.4 149.3 100.3 131.45Q107.35 110.25 127.5 103.9Q137.85 100.65 147.95 104.25M147.7,113.55Q143.45 112 138.95 112Q110.2 112.4 102.6 140.55Q95.35 167.6 95.7 196.5Q96 224.8 111.35 247.8Q112.95 250.2 115.45 251.75Q156.7 246.5 162.55 204.5Q169.1 157.95 152.2 116Q150.1 114.45 147.7 113.55" />
</g>
</svg>
