<?xml version="1.0" encoding="utf-8"?>
<svg version="1.1" id="Layer_1"
xmlns="http://www.w3.org/2000/svg"
xmlns:xlink="http://www.w3.org/1999/xlink"


xml:space="preserve">
q-7.5 -23.55 -32.45 -11.55q-20.1 9.7 -26.75 31.85q-6 19.75 -8.75 40.4q-2.05 15.5 -1.7 31.3q0.4 18.85 -1.65 37.5q-2.45 22.15 6.65 42.05q10.1 22 32.95 19.7q22 -2.1 34.15 -20.25q10.2 -15.2 8 -30.7q-10.8 31.9 -43.05 35.3q-20.75 2.2 -27.7 -17.85q-3.7 -10.65 -4.25 -21.9q-1.3 -25.65 0.5 -51.3q25.65 5.5 52.05 5.95q2.7 -3.35 2.05 -8.05q-0.3 -2.3 -1.65 -4q-26.25 -4.8 -52.2 -1.65q-4.75 -54.35 39.95 -75.55q8.95 -4.2 18.85 -1q27.95 -0.35 47.2 20.15q16.6 17.7 17.75 42.1q1.15 25.25 -11.5 47q-9.35 16 -26.15 23.1q-14.35 6.1 -28.95 0.95q-6.35 106.2 -14.2 212.45q-2.35 31.45 3.1 59.35q10.85 -60.25 10.5 -121.65q23.05 9.2 42.75 -7.5q19.7 -16.8 26.35 -42.15q7.7 -29.3 0.45 -58.8q-3.65 -14.85 -13.45 -26.65q-11.35 -13.65 -28.05 -20.1q-9.9 -0.85 -18.95 2.5q-32.95 5.2 -44.4 36.15q-20.8 56.2 -11.3 116.15q8.5 53.75 60.9 64.7q9.35 1.95 18.45 -1.25q46.5 -16.35 58.15 -65.1q14.3 -59.9 -13.35 -115.55q-18.4 -37 -60.1 -36.8q7.4 1.2 13.85 4.1q23.25 10.4 34.15 34.1q26.6 57.85 -2.5 113.65q-18.1 34.8 -57.3 33q-7.05 -0.3 -13.4 -2.75q-46.25 -17.8 -48 -67.4q-0.95 -28.2 1.85 -55.65q5.4 -52.85 56 -69.6q0.9 0 0.7 1.25q-0.2 1.5 0.1 3q0.35 2.15 1.7 3.75q-3.15 58.95 -1.15 118.4q1.3 37.25 -1.9 74.15q-2.6 30.6 1.75 59.35q18.75 3.7 39 1.95q51.65 -4.4 102.95 -1.7q4.7 -6.75 0.75 -14.25q-9.2 -3.4 -19.7 -2.75q-59.8 3.8 -119.5 2q1.35 -24.25 1.85 -48.7q0.95 -44.1 0.15 -88.5q-1.1 -60.1 -1.75 -118.5q-1.3 -0.1 -1.4 1.25<g id="3453" transform="matrix(1, 0, 0, 1, -81.15, 0)">
<path style="fill:#000000;fill-opacity:1" d="M501.45,139Q491.55 135.8 482.6 140Q437.9 161.2 442.65 215.55Q468.6 212.4 494.85 217.2Q496.2 218.9 496.5 221.2Q497.15 225.9 494.45 229.25Q468.05 228.8 442.4 223.3Q440.6 248.95 441.9 274.6Q442.45 285.85 446.15 296.5Q453.1 316.55 473.85 314.35Q506.1 310.95 516.9 279.05Q519.1 294.55 508.9 309.75Q496.75 327.9 474.75 330Q451.9 332.3 441.8 310.3Q432.7 290.4 435.15 268.25Q437.2 249.6 436.8 230.75Q436.45 214.95 438.5 199.45Q441.25 178.8 447.25 159.05Q453.9 136.9 474 127.2Q498.95 115.2 506.45 138.75L501.45 139M351.5,97Q360.55 93.65 370.45 94.5L375.65 96.45Q392.35 102.9 403.7 116.55Q413.5 128.35 417.15 143.2Q424.4 172.7 416.7 202Q410.05 227.35 390.35 244.15Q370.65 260.85 347.6 251.65Q347.95 313.05 337.1 373.3Q331.65 345.4 334 313.95Q341.85 207.7 348.2 101.5L347.95 238Q362.55 243.15 376.9 237.05Q393.7 229.95 403.05 213.95Q415.7 192.2 414.55 166.95Q413.4 142.55 396.8 124.85Q377.55 104.35 349.6 104.7L348.95 98L351.5 97M241.95,109.75Q283.65 109.55 302.05 146.55Q329.7 202.2 315.4 262.1Q303.75 310.85 257.25 327.2Q248.15 330.4 238.8 328.45Q186.4 317.5 177.9 263.75Q168.4 203.8 189.2 147.6Q200.65 116.65 233.6 111.45L241.95 109.75M238.25,121.5Q237.95 120 238.15 118.5Q238.35 117.25 237.45 117.25Q186.85 134 181.45 186.85Q178.65 214.3 179.6 242.5Q181.35 292.1 227.6 309.9Q233.95 312.35 241 312.65Q280.2 314.45 298.3 279.65Q327.4 223.85 300.8 166Q289.9 142.3 266.65 131.9Q260.2 129 252.8 127.8L239.95 125.25Q238.6 123.65 238.25 121.5M87.85,100Q87.95 98.65 89.25 98.75Q89.9 157.15 91 217.25Q91.8 261.65 90.85 305.75Q90.35 330.2 89 354.45Q148.7 356.25 208.5 352.45Q219 351.8 228.2 355.2Q232.15 362.7 227.45 369.45Q176.15 366.75 124.5 371.15Q104.25 372.9 85.5 369.2Q81.15 340.45 83.75 309.85Q86.95 272.95 85.65 235.7Q83.65 176.25 86.8 117.3L87.85 100" />
</g>
</svg>
