<?xml version="1.0" encoding="utf-8"?>
<svg version="1.1" id="Layer_1"
xmlns="http://www.w3.org/2000/svg"
xmlns:xlink="http://www.w3.org/1999/xlink"


xml:space="preserve">
q2.25 11.15 -4.4 19.95q-12.95 73.75 -32.5 146.05q-2.3 -48.85 -21.25 -88.1q-1.85 -79.35 -26 -151.5q11 77.85 18.15 156.35q0.35 3.8 1.05 7.55q0.65 3.6 1.65 7.1q0.95 3.35 2.2 6.6q14.3 -37 22.25 -76q4.45 42.5 19.25 82.25q21 -56.9 31.4 -116.9q2.5 -14.45 5.9 -28.8q1.3 -5.6 2.2 -11.3q0.9 -5.5 1.2 -11.05q0.25 -5.45 -0.15 -10.85q-0.35 -5.3 -1.3 -10.55q-3.75 -47.45 -32.65 -83.85q-4.2 -6.55 -8.25 -13.35q-7.95 -13.2 -19.5 -18.9q-10.95 -7.3 -24.95 -6.2q-2.15 1.5 -5.3 2.75q-51.1 20.25 -66.3 72.95q-7.05 24.55 -9.05 50.2q-4.5 58 2.55 115.6q3.4 27.5 20.6 48.5q32.8 40.1 77.5 14.45q9.4 -5.35 16.75 -13.15q43.6 -46.3 48.8 -109.8q2.45 -29.75 0.1 -59.4q-11.85 45.55 -49.1 72.05q-11 7.85 -24.15 10.05q-38.15 6.55 -58.7 -25.2q-4.9 -8.05 -7.05 -17.45q-11.2 -49.55 -9.55 -101.05q1.25 -37.75 12.25 -73.25q15.3 -49.3 63.85 -65.2q9 -1.05 17.1 2.45q8.1 3.5 14.3 10.25q27.85 30.25 39.2 69.1q17.25 59 1.85 118.25q-5 58.9 -6.55 118.45q-1.5 59.65 -2.65 119.25q-0.5 26.25 -4.95 51.55q-2.4 13.8 4.35 21.9q59.55 -2.05 119 -7q7.05 -9.8 -1.15 -16.7q-57.1 4.95 -114.3 12.35q1.45 -59.75 5.25 -119.2q1.95 -30.25 -1.75 -59.3q-1.55 -0.25 -1.7 1.3<g id="3451" transform="matrix(1, 0, 0, 1, -60.2, 0)">
<path style="fill:#000000;fill-opacity:1" d="M474,88.85L474.2 88.8Q475.15 94.05 475.5 99.35Q475.9 104.75 475.65 110.2Q475.35 115.75 474.45 121.25Q473.55 126.95 472.25 132.55Q468.85 146.9 466.35 161.35Q455.95 221.35 434.95 278.25Q420.15 238.5 415.7 196Q407.75 235 393.45 272L392.25 268.85Q391 265.6 390.05 262.25Q389.05 258.75 388.4 255.15Q387.7 251.4 387.35 247.6Q380.2 169.1 369.2 91.25Q393.35 163.4 395.2 242.75L413.7 168.4Q432.65 207.65 434.95 256.5Q454.5 184.2 467.45 110.45Q474.1 101.65 471.85 90.5L474 88.85M363.5,270.75Q358.3 334.25 314.7 380.55Q307.35 388.35 297.95 393.7Q253.25 419.35 220.45 379.25Q203.25 358.25 199.85 330.75Q192.8 273.15 197.3 215.15Q199.3 189.5 206.35 164.95Q221.55 112.25 272.65 92Q275.8 90.75 277.95 89.25Q291.95 88.15 302.9 95.45L303.2 95.25Q314.75 100.95 322.7 114.15Q326.75 120.95 330.95 127.5Q359.85 163.9 363.6 211.35Q365.95 241 363.5 270.75M348.05,184.8Q336.7 145.95 308.85 115.7Q302.65 108.95 294.55 105.45Q286.45 101.95 277.45 103Q228.9 118.9 213.6 168.2Q202.6 203.7 201.35 241.45Q199.7 292.95 210.9 342.5Q213.05 351.9 217.95 359.95Q238.5 391.7 276.65 385.15Q289.8 382.95 300.8 375.1Q338.05 348.6 349.9 303.05Q365.3 243.8 348.05 184.8M78.45,88.75Q82.15 117.8 80.2 148.05Q76.4 207.5 74.95 267.25L71.9 385.7L71.65 389.05Q128.85 381.65 185.95 376.7Q194.15 383.6 187.1 393.4L186.45 393.95Q127 398.9 67.45 400.95L67.3 400.75L66.95 401.2Q60.2 393.1 62.6 379.3Q67.05 354 67.55 327.75Q68.7 268.15 70.2 208.5Q71.75 148.95 76.75 90.05Q76.9 88.5 78.45 88.75" />
</g>
</svg>
