<?xml version="1.0" encoding="utf-8"?>
<svg version="1.1" id="Layer_1"
xmlns="http://www.w3.org/2000/svg"
xmlns:xlink="http://www.w3.org/1999/xlink"


xml:space="preserve">
q-32.25 61.2 -24 131.25q2.35 20.05 13.65 35.7q2.25 3.1 6.35 3.7q5.5 0.5 10.8 -1.25q8.7 -2.75 15.4 -9q11.15 -10.45 5.05 -24.9q-11.7 20.7 -31.9 8.5q-4.45 -2.7 -5.05 -8.25q-2.75 -26.1 -1 -52.25q3.7 -5.9 0.3 -11.7q-0.95 -1.6 -2.55 -2.8q-3.5 -39.5 23.45 -61.2q4.95 -3.95 11.45 -3.95q2.5 -18.5 -16.15 -21q-3.15 49.65 -3.95 100.65q-0.95 59.6 -1.35 119.25q-0.25 30.2 -4 59.75q-2.15 17.3 4.85 29.95q0.9 -0.6 0.95 -1.3q6.1 -52.25 5.65 -105.65q-0.5 -59.75 0.55 -119.25q0.55 -29.1 2.9 -57.65q9.85 43.85 22.6 87.1q16.75 57 30.35 114.4q6.8 28.55 12.1 57.4q3.05 16.4 11.4 27.45q0.75 -0.75 0.8 -1.5q0.4 -6.35 0.25 -12.8q1.15 -1.2 1.3 -3.2q2.5 -30.85 3.05 -62.25q1.05 -59.4 0.3 -119.2q-0.75 -60.4 1.05 -119.25q-4.3 22.35 -4.15 45.75q0.35 59.6 -0.65 119.25q-12.45 -44.35 -23.7 -89.15q-9.1 -36.25 -19.25 -71.95q-16.05 -56.5 -30.85 -113.55q-3.3 0.85 -2.5 4.65q-10.65 37.75 -21.4 76.95q-3.7 13.55 -8.7 26.45q-8.9 22.8 -5.35 44.1q10.95 -23.65 17.95 -51.5q11.75 -1.8 23.6 -1.25q5.75 32.45 8.8 65.35q1.15 1.85 3.25 1.75q1.6 -0.45 1.8 -2q1.45 -13.35 -0.45 -27.15q-8.1 -58.85 -21.85 -116.05q-1.95 -2.35 -4.25 -4.2q-1.5 -0.25 -2.65 -1.05q-3.3 -2.15 -7.85 -0.45q-12.3 3.05 -21.25 12.65q-36.15 38.6 -45.85 91.4q-10.8 58.45 -5.6 118.35q2.55 29.1 16.8 54.7q18.2 32.7 54.7 15q42.75 -20.75 52.8 -67.55q12.5 -58.4 7.5 -118.45q-4.5 -53.45 -34.6 -97.35q23.6 34.15 29.2 75.55q8 59.35 -4.95 117.6q-8.15 36.75 -40.1 55.6q-24.6 14.5 -49.65 4.95q-8.35 -16.7 -11.55 -35.45q-10 -58.7 0.6 -117.45q5.5 -30.45 17.65 -58.6q15.2 -35.2 51.3 -43.95q4.25 0.95 8.2 2.9q2.1 1 1.05 2.6q1.5 1.05 2.5 2.4q1.85 0.3 3.6 0.85q0.25 0.05 0.35 0.45q-6.5 36.75 -6.9 75.4q-0.2 1.15 -0.1 2.35q0.2 1.4 0.95 2.65q43 5.9 85 10.25q1.8 -1.85 2.25 -4.5q-0.45 -2.4 -1.75 -4.5q-0.6 -0.35 -1.25 -0.4q-33.7 -1.55 -66.5 -6.85q1.9 -17.9 2.3 -36.2q1.4 -59.4 1.45 -119.2q0.05 -44.6 2.95 -89.15q1.95 -30.4 -1.35 -59.35q-4.2 5.5 -0.2 0.05<g id="3458" transform="matrix(1, 0, 0, 1, 6.95, 0)">
<path style="fill:#000000;fill-opacity:1" d="M542.7,135.25L540.8 135.45L533.7 128.75Q527.2 128.75 522.25 132.7Q495.3 154.4 498.8 193.9L520.95 191.25Q522.55 192.45 523.5 194.05Q526.9 199.85 523.2 205.75L497.75 207.25Q496 233.4 498.75 259.5Q499.35 265.05 503.8 267.75Q524 279.95 535.7 259.25L540.95 255Q547.05 269.45 535.9 279.9Q529.2 286.15 520.5 288.9Q515.2 290.65 509.7 290.15Q505.6 289.55 503.35 286.45Q492.05 270.8 489.7 250.75Q481.45 180.7 513.7 119.5L523.95 114L526.55 114.25Q545.2 116.75 542.7 135.25M392.45,114L394.15 115.55L394.7 116.25Q409.5 173.3 425.55 229.8Q435.7 265.5 444.8 301.75Q456.05 346.55 468.5 390.9L470.65 284.25Q471.65 224.6 471.3 165Q471.15 141.6 475.45 119.25L478.7 114.9L479.2 114.75Q477.4 173.6 478.15 234Q478.9 293.8 477.85 353.2Q477.3 384.6 474.8 415.45Q474.65 417.45 473.5 418.65Q473.65 425.1 473.25 431.45Q473.2 432.2 472.45 432.95Q464.1 421.9 461.05 405.5Q455.75 376.65 448.95 348.1Q435.35 290.7 418.6 233.7Q405.85 190.45 396 146.6Q393.65 175.15 393.1 204.25Q392.05 263.75 392.55 323.5Q393 376.9 386.9 429.15Q386.85 429.85 385.95 430.45Q378.95 417.8 381.1 400.5Q384.85 370.95 385.1 340.75Q385.5 281.1 386.45 221.5Q387.25 170.5 390.4 120.85L389.95 118.65Q389.15 114.85 392.45 114M338.45,274.75Q352.2 331.95 360.3 390.8Q362.2 404.6 360.75 417.95Q360.55 419.5 358.95 419.95Q356.85 420.05 355.7 418.2Q352.65 385.3 346.9 352.85Q335.05 352.3 323.3 354.1L319.15 370.2Q312.15 398.05 301.2 421.7Q297.65 400.4 306.55 377.6Q311.55 364.7 315.25 351.15Q326 311.95 336.65 274.2L337.45 274L337.7 276.35L338.45 274.75M344.5,339.9L336.55 303.7L326.4 342.5L344.5 339.9M278.45,117.5Q308.55 161.4 313.05 214.85Q318.05 274.9 305.55 333.3Q295.5 380.1 252.75 400.85Q216.25 418.55 198.05 385.85Q183.8 360.25 181.25 331.15Q176.05 271.25 186.85 212.8Q196.55 160 232.7 121.4Q241.65 111.8 253.95 108.75Q258.5 107.05 261.8 109.2Q262.95 110 264.45 110.25L270.2 115.05Q272.5 116.9 274.45 119.25L274.85 119.1L276.45 117.75L278.45 117.5M274.1,131.05Q272.35 130.5 270.5 130.2Q269.5 128.85 268 127.8L269.2 126.75Q270.25 125.15 268.15 124.15Q264.2 122.2 259.95 121.25Q223.85 130 208.65 165.2Q196.5 193.35 191 223.8Q180.4 282.55 190.4 341.25Q193.6 360 201.95 376.7L203 378.2L206.55 382.6L208.95 385.2Q234 394.75 258.6 380.25Q290.55 361.4 298.7 324.65Q311.65 266.4 303.65 207.05Q298.05 165.65 274.45 131.5Q274.35 131.1 274.1 131.05M86.45,94.75Q89.75 123.7 87.8 154.1Q84.9 198.65 84.85 243.25Q84.8 303.05 83.4 362.45Q83 380.75 81.1 398.65L93.95 397.95L94.45 397.95Q127.25 403.25 160.95 404.8Q161.6 404.85 162.2 405.2Q163.5 407.3 163.95 409.7L164.15 411.25L164.15 414.95L163.95 416.45Q163.5 419.1 161.7 420.95Q119.7 416.6 76.7 410.7Q75.95 409.45 75.75 408.05L75.7 407.95L75.7 407.5L75.7 406.95L75.7 406.2L75.7 405.45Q75.6 404.25 75.8 403.1L77.5 289.5L79.05 170.25Q79.45 131.6 85.95 94.85L86.45 94.75M-2.95,140.8L-2.75 140.75Q-6.95 146.25 -2.95 140.8" />
</g>
</svg>
