<?xml version="1.0" encoding="utf-8"?>
<svg version="1.1" id="Layer_1"
xmlns="http://www.w3.org/2000/svg"
xmlns:xlink="http://www.w3.org/1999/xlink"


xml:space="preserve">
q-8.9 58.3 -15.05 117.1q-1.55 14.65 -5.1 28.9q-4.1 16.1 1.25 29.35q10.3 -35.1 13.05 -73.2q2.8 -39 10.15 -77.15q0.85 17.05 4.15 34.7q2.3 12.3 3.4 24.85q1.25 14.4 6.45 25.6q0.3 1.75 2 2q7.25 -20.3 11.65 -43q4.2 -21.8 9.55 -43.3q2.45 -9.9 3.95 -19.55q0.2 10.15 1.35 20.2q6.85 58.6 10 117.75q0.9 16.8 8.25 28.15q0.65 -0.75 0.65 -1.5q-0.45 -33.55 -3.5 -67.55q-5.25 -59.35 -14.65 -116.9q-5.35 5 -7.55 13.2q-12.4 47 -19.1 94.85q-7.25 -42.5 -12.95 -85.05q1.3 -11 -0.15 -21.25q-6.1 5.2 -7.6 14.85q-4.8 34 -5.55 69.7q-1.3 59.85 -1.65 118.45q34.2 2.85 67.95 -1.75q2.85 -2.1 3.15 -5.7q0.35 -4.3 -2.15 -7.55q-0.5 -0.35 -1 -0.45q-29.5 2.7 -59.85 3.25q2.7 -29.15 3.75 -58.7q2.15 -60 -0.35 -118.5q-18.55 14.25 -25.6 36.7q-6.15 19.55 -1.3 39.55q4.7 19.3 22.35 26.4q17.75 7.2 34.7 -1.7q21.9 -11.55 27.05 -36.2q5.45 -26.1 -10 -47.1q-7.1 -9.6 -18.2 -14.45q-0.85 -14.8 3.6 -28.9q6.9 -21.75 29.3 -22.05q24.3 2 34 23.25q12.75 27.85 -12.2 44.85q-32.9 22.4 -53.8 -7.35q-0.65 -4.9 -0.9 -9.8<g id="3472" transform="matrix(1, 0, 0, 1, -136.75, 0)">
<path style="fill:#000000;fill-opacity:1" d="M362.45,181.25Q363.9 191.5 362.6 202.5Q368.3 245.05 375.55 287.55Q382.25 239.7 394.65 192.7Q396.85 184.5 402.2 179.5L402.05 184.05L402.2 184Q411.6 241.55 416.85 300.9Q419.9 334.9 420.35 368.45Q420.35 369.2 419.7 369.95Q412.35 358.6 411.45 341.8Q408.3 282.65 401.45 224.05Q400.3 214 400.1 203.85Q398.6 213.5 396.15 223.4Q390.8 244.9 386.6 266.7Q382.2 289.4 374.95 309.7Q373.25 309.45 372.95 307.7L373.15 306.25Q367.95 295.05 366.7 280.65Q365.6 268.1 363.3 255.8Q360 238.15 359.15 221.1Q351.8 259.25 349 298.25Q346.25 336.35 335.95 371.45Q330.6 358.2 334.7 342.1Q338.25 327.85 339.8 313.2Q345.95 254.4 354.85 196.1Q356.35 186.45 362.45 181.25M144.5,181.75Q147 240.25 144.85 300.25Q143.8 329.8 141.1 358.95Q171.45 358.4 200.95 355.7L207.45 356.25Q207.95 356.35 208.45 356.7Q210.95 359.95 210.6 364.25Q210.3 367.85 207.45 369.95Q173.7 374.55 139.5 371.7L138.7 370L136.75 369.95Q137.1 311.35 138.4 251.5Q139.15 215.8 143.95 181.8L144.5 181.75M309.15,281.4Q324.6 302.4 319.15 328.5Q314 353.15 292.1 364.7Q275.15 373.6 257.4 366.4Q239.75 359.3 235.05 340Q230.2 320 236.35 300.45Q243.4 278 261.95 263.75L288.45 268.2L290.95 266.95Q302.05 271.8 309.15 281.4M241.95,338.7Q262.85 368.45 295.75 346.05Q320.7 329.05 307.95 301.2Q298.25 279.95 273.95 277.95Q251.55 278.25 244.65 300Q240.2 314.1 241.05 328.9Q241.3 333.8 241.95 338.7" />
</g>
</svg>
