<?xml version="1.0" encoding="utf-8"?>
<svg version="1.1" id="Layer_1"
xmlns="http://www.w3.org/2000/svg"
xmlns:xlink="http://www.w3.org/1999/xlink"


xml:space="preserve">
q-19.4 -17.95 -41.9 -31.3q-2.4 1.55 -2.5 5q-0.15 3.2 1.25 6q4.7 3.2 8.7 7.1q-2.25 6.2 1.25 11.25q23.65 -16.3 47.6 -31.9q23.85 22.15 48.4 43.15q8.05 -12.6 -4 -21.35q-13.85 -10 -25.3 -22.5q21.35 -13.75 42.95 -26.95q3.05 -6.75 -1.05 -12.75q-4.35 59.25 -9.2 118.45q-0.6 7.4 -1.85 14.8q-2.7 16.6 2.75 29.55q5.35 -28.1 7.1 -57.7q10.3 -14.55 17.55 -31.8q7 49.85 18.65 97.7q1.3 4.65 4.75 6.75q1.4 -1.25 1.1 -2.95q-9.2 -54 -22.05 -107.4q7.85 -18 19.7 -33.8q9.9 -13.2 10 -27.35q-17.15 18.7 -28.15 43.15q-6.3 14.05 -15.05 26.55q-3.25 4.65 -5.4 9.4q2.15 -41.35 3.6 -82.1q-3.9 5.05 -4.45 12.7q-17.6 11.4 -24.7 31.3q-10.15 28.55 1 56.55q10.1 25.25 31.7 42.45q18.8 14.9 32.75 34.4q9.1 12.7 16.7 26.5q6.5 11.75 5.4 25q-1 12.4 -9.3 21.95q-13.8 16.1 -34.65 18.7q-26.95 3.8 -49.55 -10.45q-6.05 -3.8 -13.15 -4.9q14.7 2.85 28.5 8.85q36.7 15.75 67.95 -9.85q10.45 -8.5 15.45 -21.05q5.4 -13.7 2.45 -28.15q-5.5 -27.2 -19.75 -51.15q-13.3 -22.25 -32.25 -39.6q-10.45 -9.6 -21.7 -18.5q-7.55 -6 -11.85 -14.7q-6.3 -12.65 -6.3 -26.85q0.05 -17.55 10.2 -31.5q11.3 -15.5 29.8 -20.95q22.55 -1.25 40.85 11.45q5.9 -6.8 -1.75 -15.8q-27.6 -32.45 -63.65 -9q-5.9 28.65 -1 56.95q-6.9 26.15 1 49.4q2.35 -3.7 0.7 -7.8q-0.7 -1.75 -2.05 -2.85q17 -0.4 19.25 -18.15q1.45 -11.2 -7.45 -18.1q-4.35 -3.35 -9.7 -5.1q-4.4 9.2 -14.5 9.45q-0.9 -5.95 3 -9.75q7.8 7.5 6.9 21.85q-0.9 14.9 -0.7 29.9q0.85 59.1 -2.4 118.4q-3.3 60 -14.55 118.9q-7.1 37.15 -34.2 61.6q-11.85 10.75 -28.05 5.8q-28.15 -17.4 -43.75 -45.05q-2.7 -4.8 -3.4 -10.45q-6.85 -58.9 -3 -118.5q3.85 -59.1 6.8 -118.4q0.25 -5.3 4.2 -7.25q2.95 29 -0.1 59.4q-3.6 36.45 -5.6 73.25q-3.25 59.3 -4.35 118.6q-0.6 30.5 10.5 57.9q3.7 9.1 11.3 15.7q14.15 12.25 30.8 17.1q16.05 4.7 26 -8.5q18.55 -24.6 24.1 -55.65q10.3 -58.1 13.95 -117.15q1.4 -22.4 1.85 -44.9q0.9 -48.35 -1.45 -96.75q-0.4 -2.7 -1.55 -5.05q-21.75 -5.75 -28.1 20.65q-5 20.85 -2.55 42q2.05 17.7 19.95 19.75q15.6 -7 15.95 -22.95q0.1 -3.3 -2.25 -3.35q-6.7 11.3 -20 12.05q-6.6 0.45 -7.75 -6.2q-5.2 -29.85 13.3 -53.3q2.45 -3.8 0.6 -7.95q-1.3 -3 -3.2 -5q-7 40.65 -9.6 83.05q-3.45 59.15 -8.8 117.75q-2.75 29.65 -7.5 58.9q-2.4 14.6 2.5 25.4q13 -0.05 25.85 1.7q21.05 2.8 41.65 4.25q1.95 -3.05 2.1 -6.75q-0.2 -2.05 -1.2 -3.75q-58.65 -8.45 -118.5 -6.05q4.6 -32.9 7.3 -66.35q4.75 -59.05 8.3 -118.5q3.55 -58.75 8.45 -117.8q2.55 -30.45 -0.05 -59.3q-2.15 3.25 -1.5 7.2q-6.2 22.6 -1.35 44q7.95 28.3 28.85 47.35q-6 -26.6 -24.9 -48.85q16.2 -7.8 13.15 -25.9q-7.75 -6.85 -18.25 -7q-8.25 0 -13.65 5.95q0.75 -1 1.85 -1.75q12.4 -2.65 21 4.75q-10 11.55 -24.8 12.05q-1.5 -10.8 -1.8 -21.75q-0.3 -13.3 -6.45 -20.7q-11.9 25.25 -27 48.7q-0.5 3.45 1.25 6q15.3 -19.4 26 -42.75q0.7 13.5 5.6 22.2q11.5 -20.4 17.5 -43.5q2.8 26.7 15.5 46.75q3.7 -10.65 -1.5 -21.45q-4.75 -9.8 -6.05 -20.7q-1.7 -13.95 -7.2 -24.05q-15.65 19.95 6.75 34.3q6.85 4.4 12.75 10.2q-17.95 6.75 -37 3.75q31.15 11.05 39.8 -14.05q3.6 -10.5 -7.8 -14.65q-11.15 -4 -15.3 -15.1q4.3 -5 10.5 -1.75q3.35 1.8 7 2.5<g id="3498" transform="matrix(1, 0, 0, 1, -30.4, 0)">
<path style="fill:#000000;fill-opacity:1" d="M384.5,83.75L384.2 84.5Q362.6 97.7 341.25 111.45L348.15 118.65Q359.6 131.15 373.45 141.15Q385.5 149.9 377.45 162.5Q352.9 141.5 329.05 119.35Q305.1 134.95 281.45 151.25L278.45 151.25Q274.95 146.2 277.2 140L320.55 111.4L298.4 90.1Q294.4 86.2 289.7 83Q288.3 80.2 288.45 77Q288.55 73.55 290.95 72Q313.45 85.35 332.85 103.3L381.45 71.25L383.45 71Q387.55 77 384.5 83.75M336.2,165.75Q334.75 206.5 332.6 247.85Q334.75 243.1 338 238.45Q346.75 225.95 353.05 211.9Q364.05 187.45 381.2 168.75Q381.1 182.9 371.2 196.1Q359.35 211.9 351.5 229.9Q364.35 283.3 373.55 337.3Q373.85 339 372.45 340.25Q369 338.15 367.7 333.5Q356.05 285.65 349.05 235.8Q341.8 253.05 331.5 267.6L330.55 283.55Q328.8 313.15 323.45 341.25Q318 328.3 320.7 311.7Q321.95 304.3 322.55 296.9Q327.4 237.7 331.75 178.45Q332.3 170.8 336.2 165.75M471.65,189.95Q479.3 198.95 473.4 205.75L471.2 201.75L467.8 199.2Q449.5 186.5 426.95 187.75Q408.45 193.2 397.15 208.7Q387 222.65 386.95 240.2Q386.95 254.4 393.25 267.05Q397.55 275.75 405.1 281.75Q416.35 290.65 426.8 300.25Q445.75 317.6 459.05 339.85Q473.3 363.8 478.8 391Q481.75 405.45 476.35 419.15Q471.35 431.7 460.9 440.2Q429.65 465.8 392.95 450.05Q379.15 444.05 364.45 441.2L359.3 432.2L359.55 428.55L361.7 426.95L364.2 422.45Q371.3 423.55 377.35 427.35Q399.95 441.6 426.9 437.8Q447.75 435.2 461.55 419.1Q469.85 409.55 470.85 397.15Q471.95 383.9 465.45 372.15Q457.85 358.35 448.75 345.65Q434.8 326.15 416 311.25Q394.4 294.05 384.3 268.8Q373.15 240.8 383.3 212.25Q390.4 192.35 408 180.95Q444.05 157.5 471.65 189.95M342.95,335Q348.3 336.75 352.65 340.1Q361.55 347 360.1 358.2Q357.85 375.95 340.85 376.35L338 402.5L352.7 400.45Q354.05 401.55 354.75 403.3Q356.4 407.4 354.05 411.1L331.95 415.9L329.8 465.6Q321.9 442.35 328.8 416.2L300.7 415.7L300.7 408.2L337.05 402.65Q332.15 374.35 338.05 345.7L336.7 345.7L337.4 337.6L342.95 335M341.5,345.6L341.45 365.4Q351.55 365.15 355.95 355.95L351.45 347.7L347.95 345.2L341.5 345.6M247.75,91.9L249.45 90.25Q248.55 84.3 252.45 80.5Q260.25 88 259.35 102.35Q258.45 117.25 258.65 132.25Q259.5 191.35 256.25 250.65Q252.95 310.65 241.7 369.55Q234.6 406.7 207.5 431.15Q195.65 441.9 179.45 436.95Q151.3 419.55 135.7 391.9Q133 387.1 132.3 381.45Q125.45 322.55 129.3 262.95Q133.15 203.85 136.1 144.55L139.25 84.5Q139.5 79.2 143.45 77.25Q146.4 106.25 143.35 136.65Q139.75 173.1 137.75 209.9Q134.5 269.2 133.4 328.5Q132.8 359 143.9 386.4Q147.6 395.5 155.2 402.1Q169.35 414.35 186 419.2Q202.05 423.9 212 410.7Q230.55 386.1 236.1 355.05Q246.4 296.95 250.05 237.9Q251.45 215.5 251.9 193Q252.8 144.65 250.45 96.25L249.3 96.95Q248.9 94.25 247.75 91.9M303.35,173.1Q305.2 177.25 302.75 181.05L299.6 180.65L297.2 177.35L288.7 176.75Q270.2 200.2 275.4 230.05Q276.55 236.7 283.15 236.25Q296.45 235.5 303.15 224.2Q305.5 224.25 305.4 227.55Q305.05 243.5 289.45 250.5Q271.55 248.45 269.5 230.75Q267.05 209.6 272.05 188.75Q278.4 162.35 300.15 168.1Q302.05 170.1 303.35 173.1M64.5,73Q67.1 101.85 64.55 132.3Q59.65 191.35 56.1 250.1Q52.55 309.55 47.8 368.6Q45.1 402.05 40.5 434.95L41.95 434.7L42.95 434.35L43 434.2Q102.85 431.8 161.5 440.25L165.95 440.7L167.15 441.55L167.65 442.25L168.05 442.95Q169.05 444.65 169.25 446.7L169.3 449.7Q169.15 453.4 167.2 456.45Q146.6 455 125.55 452.2Q112.7 450.45 99.7 450.5L37.95 450.45L37.5 450.95L36.95 450L36.55 449.65L36.05 448.95L35.7 448.2L35.3 446.85Q30.4 436.05 32.8 421.45Q37.55 392.2 40.3 362.55Q45.65 303.95 49.1 244.8L54.35 156.15Q56.95 113.75 63.95 73.1L64.5 73M268.3,262.2Q273.7 256.25 281.95 256.25Q292.45 256.4 300.2 263.25Q303.25 281.35 287.05 289.15Q305.95 311.4 311.95 338Q291.05 318.95 283.1 290.65L270.4 292.85L262.35 336.75Q257.5 315.35 263.7 292.75L262.95 289.7Q262.3 285.75 264.45 282.5L265.9 282.65L268.05 269.3L267.45 263.25L268.3 262.2M271.5,269.35L271.15 282.8Q285.95 282.3 295.95 270.75Q287.35 263.35 274.95 266Q273.85 266.75 273.1 267.75L271.5 269.35M301.95,336.75Q307.45 346.85 309.15 360.8Q310.45 371.7 315.2 381.5Q320.4 392.3 316.7 402.95Q304 382.9 301.2 356.2Q295.2 379.3 283.7 399.7Q278.8 391 278.1 377.5L276.45 352.7Q265.75 376.05 250.45 395.45Q248.7 392.9 249.2 389.45L249.45 387.95Q264.55 364.5 276.45 339.25Q282.6 346.65 282.9 359.95Q283.2 370.9 284.7 381.7L301.9 336.95L301.95 336.75M270.95,406.45Q264.75 403.2 260.45 408.2L261.6 411.8Q265.75 422.9 276.9 426.9Q288.3 431.05 284.7 441.55Q276.05 466.65 244.9 455.6L244.45 443.95Q263.5 446.95 281.45 440.2Q275.55 434.4 268.7 430Q246.3 415.65 261.95 395.7L280.95 400.2L280.6 408.05L277.95 408.95Q274.3 408.25 270.95 406.45" />
</g>
</svg>
