<?xml version="1.0" encoding="utf-8"?>
<svg version="1.1" id="Layer_1"
xmlns="http://www.w3.org/2000/svg"
xmlns:xlink="http://www.w3.org/1999/xlink"


xml:space="preserve">
q-0.6 31.6 -8.75 62.25q-2.55 2.6 -4.8 5.35q-15.6 18.75 -38.15 10.25q-7.25 -2.7 -7.55 -10.65q-1.4 -35.55 -3.25 -70.45q-3.45 3.3 -3.65 9.25q-0.45 15.6 -1.8 31.4q-1.8 21.95 4.05 42.65q1.9 6.65 8 9.9q29.65 15.7 48.65 -12.45q3.75 -2.2 5.15 -6.8q7.75 -25.1 8.6 -51.9q0.45 -13.2 -6.5 -18.8q-2.25 37.1 -1.55 74.15q1.9 -5.65 2.55 -3q2.8 -2.85 2.55 -7q-8.2 -2.4 -16.5 -1.85q-7.95 0.9 -15.8 -0.8q-26 -5.45 -48.8 5.45q4.5 -62.5 6.2 -125.3q0.2 -18.4 -1.35 -36.65q-6.75 42.5 -7.15 85.55q-0.15 14.75 -1.05 29.5<g id="3487" transform="matrix(1, 0, 0, 1, -156.8, 0)">
<path style="fill:#000000;fill-opacity:1" d="M389.2,288.25Q388.35 315.05 380.6 340.15Q379.2 344.75 375.45 346.95Q356.45 375.1 326.8 359.4Q320.7 356.15 318.8 349.5Q312.95 328.8 314.75 306.85Q316.1 291.05 316.55 275.45Q316.75 269.5 320.2 266.2Q322.05 301.1 323.45 336.65Q323.75 344.6 331 347.3Q353.55 355.8 369.15 337.05Q371.4 334.3 373.95 331.7Q382.1 301.05 382.7 269.45Q389.65 275.05 389.2 288.25M160.1,264.55Q160.5 221.5 167.25 179Q168.8 197.25 168.6 215.65L168.3 230.7Q166.6 293.5 162.1 356Q184.9 345.1 210.9 350.55Q218.75 352.25 226.7 351.35Q235 350.8 243.2 353.2L243.9 354.7L244.4 356.2L244.8 358.55L245 360.45Q245.25 364.6 242.45 367.45L161.05 367.05L160.05 365.2Q159.4 362.55 157.5 368.2Q156.8 331.15 159.05 294.05Q159.95 279.3 160.1 264.55" />
</g>
</svg>
