<?xml version="1.0" encoding="utf-8"?>
<svg version="1.1" id="Layer_1"
xmlns="http://www.w3.org/2000/svg"
xmlns:xlink="http://www.w3.org/1999/xlink"


xml:space="preserve">
q-40.3 2.35 -79 9.25q-0.5 1.05 -0.65 2.2q-0.45 3.05 0.15 6.05q-1.85 59.05 -2.3 118.45q-0.1 15.15 -2.95 29.7q-2.75 14.15 4.75 21.8q5.75 -27.25 6 -56.25q0.5 -57.6 -2.25 -113.85q23.35 -0.85 46.75 -0.85q2.25 -4.7 1 -9.7q-0.4 -1.6 -1.3 -2.95q-0.35 -0.4 -0.8 -0.45q-15.65 1.15 -30.3 6.05q-0.4 -31.3 -2.35 -62.15q-5.8 33.35 -5.25 69.7q0.3 21.9 -2.45 43.35q-3 23.4 1.95 44.4q1 -0.35 1.2 -1q5.75 -18.25 6.35 -38q0.7 -22.85 0.65 -45.45q14.85 0.1 30.05 -3q-0.25 11.3 -1.8 22.3q-2.35 17 4.3 29.45q4.7 -5.9 2.75 -13.5q2 -31.35 2.8 -63q1.5 -60.2 -3.8 -118.45q-3.65 3.8 -3.45 10.5q-0.3 15 -2.1 29.85q-1.5 12.25 1.2 21.7q-0.25 1.4 -0.15 2.95q43 -1.65 83.95 0.5q1.05 -1.3 1.35 -2.9q0.6 -3.05 -0.05 -6.1q-0.35 -0.35 -0.8 -0.45q-22.9 -4.15 -46.4 -3.05q3.95 -29.75 4.05 -60.8q0.15 -59.85 -1.2 -118.45q-4.75 5.1 -4.85 13.75q13.25 12.65 21.8 29q-18.75 24.3 -5.1 51q2.45 4.75 8.25 6q20.2 4.1 35.95 -9.85q8.35 -17.8 -10.4 -27.7q-29 -24.65 -45 -59.15q-10.75 6.45 -23.45 6.55q-3.95 -16.95 6.5 -30.75<g id="3511" transform="matrix(1, 0, 0, 1, -140, 0)">
<path style="fill:#000000;fill-opacity:1" d="M391.4,185.8Q391.85 185.85 392.2 186.25Q393.1 187.6 393.5 189.2Q394.75 194.2 392.5 198.9L391.45 200.5Q368.05 200.5 344.7 201.35Q347.45 257.6 346.95 315.2Q346.7 344.2 340.95 371.45Q333.45 363.8 336.2 349.65Q339.05 335.1 339.15 319.95Q339.6 260.55 341.45 201.5L295.45 204L294.85 202.45L294.45 201Q293.85 198 294.3 194.95Q294.45 193.8 294.95 192.75Q333.65 185.85 373.95 183.5L391.4 185.8M420.2,180Q425.5 238.25 424 298.45Q423.2 330.1 421.2 361.45Q423.15 369.05 418.45 374.95Q411.8 362.5 414.15 345.5Q415.7 334.5 415.95 323.2L416.7 283Q401.5 286.1 386.65 286Q386.7 308.6 386 331.45Q385.4 351.2 379.65 369.45Q379.45 370.1 378.45 370.45Q373.5 349.45 376.5 326.05Q379.25 304.6 378.95 282.7Q378.4 246.35 384.2 213Q386.15 243.85 386.55 275.15Q401.2 270.25 416.85 269.1L417 204L416.75 190.5Q416.55 183.8 420.2 180M150.5,177.25Q151.85 235.85 151.7 295.7Q151.6 326.75 147.65 356.5L180.45 353.6L181 353.45Q204.5 352.35 227.4 356.5Q227.85 356.6 228.2 356.95L228.9 358.5L229.4 360L229.75 361.45Q230.4 364.5 229.8 367.55Q229.5 369.15 228.45 370.45Q187.5 368.3 144.5 369.95L143.35 368.4L142.85 366.95L142.55 364.7Q142.45 363.15 142.7 361.75Q140 352.3 141.5 340.05Q143.3 325.2 143.6 310.2L145.65 191Q145.75 182.35 150.5 177.25M237.95,272.95L249.45 281.2Q265.45 315.7 294.45 340.35L296.95 337.95L301.55 346Q320.3 355.9 311.95 373.7L296 358.3Q280.25 372.25 260.05 368.15Q254.25 366.9 251.8 362.15Q238.15 335.45 256.9 311.15Q248.35 294.8 235.1 282.15L235.2 274.95L237.95 272.95M259.7,320.7Q249.25 334.5 253.2 351.45L255.7 353.7L261.75 353.75Q274.45 353.65 285.2 347.2L262.2 320.7L259.7 320.7" />
</g>
</svg>
