<?xml version="1.0" encoding="utf-8"?>
<svg version="1.1" id="Layer_1"
xmlns="http://www.w3.org/2000/svg"
xmlns:xlink="http://www.w3.org/1999/xlink"


xml:space="preserve">
q-0.6 37.55 -0.75 75q-0.2 59.65 -3 119.2q-0.7 14.9 -2.3 29.85q-2.3 -9.3 -4.35 -18.85q-11.9 -55.6 -26.8 -108.65q-2.55 1.8 -2.75 5.95q-1.5 27.9 -2.15 56.3q-1.3 59.55 0.1 119.25q0.7 30.1 -2.35 59.8q-1.7 16.5 3.9 29.9q5.1 -14.95 5.25 -32.75q0.5 -59.55 0 -119.2q-0.35 -44.55 -1.25 -88.5q10.55 42.7 19.5 85.6q12 57.15 24.3 114.35q3.15 14.65 4.4 29.45q1.15 13.3 8.55 19.05q0.9 -0.6 1.05 -1.4q3.9 -18.85 4.45 -38.85q1.65 -59.15 1.75 -118.45q0.15 -60.3 1 -118.5q-5.7 9.95 -5.95 23.25q-4.15 -25.15 -29.35 -17.45q-21.9 6.55 -31.7 27.35q-8.45 17.9 -12.4 37.2q-3.9 19.25 -4.9 38.8q-1.1 22 -3.85 43.8q-2.5 19.4 -1.3 38.95q1 16.7 3.85 33.1q3.65 21.25 16 38.65q16 22.45 37.35 10.35q11.05 -6.25 17.1 -17.5q9.95 -42.8 4.85 -85.95q-1.2 -10 -11.9 -10.2q12.5 4.55 26.7 2.3q-4.5 27.05 -29.65 32.45q-13.2 2.9 -22.5 -10.35q-9.55 -13.75 -14.6 -29.75q-2.55 -8.15 -3.55 -16.35q-1.05 -8.8 -0.3 -17.6q2.8 -32.65 4.2 -65.4q1 -23.85 5.85 -47.15q5.55 -26.95 24.05 -46.1q13.95 -14.4 34.25 -11.95q-14.1 51.85 -23.8 106.5q-2.5 14.25 -5.4 28.4q-0.95 2.55 -0.3 5.25q-12.6 57.35 -14.9 115.75q0.3 1.75 2 2q5.95 -16.15 7.95 -34.8q4.85 -45.3 12.6 -90.2q19.25 0.3 38.45 -1.9q7.2 52.55 12.5 102.9q-1.45 0.55 -1.2 5.35q0.55 12.25 7.95 17.15q0.85 -1 0.95 -2.25q1.2 -15 -0.8 -30.15q-6.65 -50.2 -13.75 -100.35q-8.4 -58.75 -15.05 -116.95q-1.15 1.15 -1.95 2.45q-1.2 58.75 -5.8 116.95q-4.65 59.4 -12 118.45q-1.65 13.1 2.05 22.9q0.05 1.65 0.5 3.15q3.2 2.1 7.3 2.55q33.7 3.65 66.75 5.55q-0.15 -3.25 -2.45 -5.3q-3.45 -1.2 -6.9 -1q-33.7 1.95 -65.5 -5.5q5.65 -58.8 10.75 -117.8q5.15 -59.65 1.25 -118.55q-1.9 -0.2 -1.95 1.75<g id="3512" transform="matrix(1, 0, 0, 1, -86.05, 0)">
<path style="fill:#000000;fill-opacity:1" d="M365.2,109.25Q364.35 167.45 364.2 227.75Q364.1 287.05 362.45 346.2Q361.9 366.2 358 385.05Q357.85 385.85 356.95 386.45L355.75 383.15L355.5 384.65L354.7 386.2Q347.3 380.45 346.15 367.15Q344.9 352.35 341.75 337.7Q329.45 280.5 317.45 223.35Q308.5 180.45 297.95 137.75Q298.85 181.7 299.2 226.25Q299.7 285.9 299.2 345.45Q299.05 363.25 293.95 378.2Q288.35 364.8 290.05 348.3Q293.1 318.6 292.4 288.5Q291 228.8 292.3 169.25Q292.95 140.85 294.45 112.95Q294.65 108.8 297.2 107L297.4 114.05Q312.3 167.1 324.2 222.7L348.85 338Q350.9 347.55 353.2 356.85L353.2 356.55Q354.8 341.6 355.5 326.7Q358.3 267.15 358.5 207.5Q358.65 170.05 359.25 132.5Q359.5 119.2 365.2 109.25M461.45,130.5Q441.15 128.05 427.2 142.45Q408.7 161.6 403.15 188.55Q398.3 211.85 397.3 235.7Q395.9 268.45 393.1 301.1Q392.35 309.9 393.4 318.7Q394.4 326.9 396.95 335.05Q402 351.05 411.55 364.8Q420.85 378.05 434.05 375.15Q459.2 369.75 463.7 342.7L465.15 344.05L464.9 313.8L462.7 312.25Q448.5 314.5 436 309.95L436.2 302L457.9 301.3Q468.6 301.5 469.8 311.5Q474.9 354.65 464.95 397.45L462.1 371Q456.05 382.25 445 388.5Q423.65 400.6 407.65 378.15Q395.3 360.75 391.65 339.5Q388.8 323.1 387.8 306.4Q386.6 286.85 389.1 267.45Q391.85 245.65 392.95 223.65Q393.95 204.1 397.85 184.85Q401.8 165.55 410.25 147.65Q420.05 126.85 441.95 120.3Q467.15 112.6 471.3 137.75L461.45 130.5M239.2,106Q245.85 164.2 254.25 222.95L256.45 238.4L256.6 239.45Q263.7 289.6 270.35 339.8Q272.35 354.95 271.15 369.95Q271.05 371.2 270.2 372.2Q262.8 367.3 262.25 355.05Q262 350.25 263.45 349.7Q258.15 299.35 250.95 246.8Q231.75 249 212.5 248.7Q204.75 293.6 199.9 338.9Q197.9 357.55 191.95 373.7Q190.25 373.45 189.95 371.7Q192.25 313.3 204.85 255.95L206.45 248.55L205.7 248.5L205.4 247Q204.75 244.3 205.7 241.75L208 241.15Q210.9 227 213.4 212.75Q223.1 158.1 237.2 106.25L237.25 108.45Q238.05 107.15 239.2 106M230.3,164.4L214.1 239.55L249.2 234L236.5 128.95L230.3 164.4M107.45,95.75Q111.35 154.65 106.2 214.3Q101.1 273.3 95.45 332.1L94.05 349.45Q125.85 356.9 159.55 354.95Q163 354.75 166.45 355.95Q168.75 358 168.9 361.25L168.9 363.45L168.7 364.95L168.45 366.45L168.25 367.25L167.2 369.45Q134.15 367.55 100.45 363.9Q96.35 363.45 93.15 361.35L92.75 361.95L91.85 360.4L90.25 358.95Q89.8 357.45 89.75 355.8Q86.05 346 87.7 332.9Q95.05 273.85 99.7 214.45Q104.3 156.25 105.5 97.5Q105.55 95.55 107.45 95.75" />
</g>
</svg>
