<?xml version="1.0" encoding="utf-8"?>
<svg version="1.1" id="Layer_1"
xmlns="http://www.w3.org/2000/svg"
xmlns:xlink="http://www.w3.org/1999/xlink"


xml:space="preserve">
q-5.2 34.65 -4.75 71.2q-0.5 3.4 -0.15 6.8q0.1 1.05 0.45 1.9q0 42.85 -1.45 85.3q0.75 2.75 3.25 1.5q2.25 -6.05 2.6 -12.65q2.1 -35.65 2.9 -71.6q13.55 -0.4 25.85 -5.25q0.1 3.65 1.75 7.75q11.8 29.35 21.75 59.25q5.05 15.1 13.65 24.25q1.85 -1.8 1.15 -4.25q-13.4 -45.65 -31.3 -90.15q4.7 -2.4 9.2 -5.5q10.2 -6.95 13.35 -18.5q11 -40.65 -19.65 -68.55q-1.5 -0.25 -2.85 -0.85q-8.95 -4 -18.65 -4.4q-5.3 1.1 -9.95 3.95q-20.7 22.85 -51.45 23.4q23.05 -7.95 39.7 8.35q16.15 15.75 13.9 38.3q1.8 59.4 1.75 119.2q0 15.05 -2.35 29.7q-2.6 16.65 3.2 30.05q1.35 -0.7 2.15 -1.9q43 1.85 84.95 2q1.2 -2.45 1.4 -5.25q-0.3 -1.2 -1.05 -2.25q-0.6 -0.35 -1.25 -0.35q-41.65 1.05 -83.95 -1.4q2.55 -31 2.65 -62.65q0.1 -60 -4.9 -118.45q-4.4 5.15 -4.1 14.25q-4.15 18.8 15.7 33.05q-22.85 18.6 -17.25 49.25q0.5 2.7 1.7 5.05q1.1 2.15 3.1 3.8q17.95 15.1 38.6 0.45q1.8 -19.05 -12 -33.6q-11.55 -12.1 -21.65 -25.85q-10.1 -13.7 -20.8 -27.1q-7.7 -9.7 -16.65 -16.8q11.95 15.3 22.6 31.65q-17.7 11.25 -38.45 7.5q-3.6 -4.55 -3.5 -10.5q0.1 -9.4 4 -18q6.2 -8.35 15.35 -10.65<g id="3519" transform="matrix(1, 0, 0, 1, -145.2, 0)">
<path style="fill:#000000;fill-opacity:1" d="M354,184.2Q358.65 181.35 363.95 180.25L369.95 179Q379.65 179.4 388.6 183.4Q389.95 184 391.45 184.25Q422.1 212.15 411.1 252.8Q407.95 264.35 397.75 271.3Q393.25 274.4 388.55 276.8Q406.45 321.3 419.85 366.95Q420.55 369.4 418.7 371.2Q410.1 362.05 405.05 346.95Q395.1 317.05 383.3 287.7Q381.65 283.6 381.55 279.95Q369.25 284.8 355.7 285.2Q354.9 321.15 352.8 356.8Q352.45 363.4 350.2 369.45Q347.7 370.7 346.95 367.95Q348.4 325.5 348.4 282.65Q348.05 281.8 347.95 280.75Q347.6 277.35 348.1 273.95L348.4 272.55L348.2 249.5Q347.75 212.95 352.95 178.3L353.45 178.25L354 184.2M408.35,240.8Q410.6 218.25 394.45 202.5Q377.8 186.2 354.75 194.15L356 271.15Q386.75 270.6 407.45 247.75L408.35 240.8M152.5,175.75Q157.5 234.2 157.4 294.2Q157.3 325.85 154.75 356.85L156 356.45Q198.3 358.9 239.95 357.85Q240.6 357.85 241.2 358.2Q241.95 359.25 242.25 360.45L242.45 361.2L242.65 362L242.8 362.7L242.85 363.5L242.85 367.2Q242.65 370 241.45 372.45Q199.5 372.3 156.5 370.45L155.5 369.7L154.5 368.95L153.5 368.2L153.15 367.05Q152.35 368.25 151 368.95Q145.2 355.55 147.8 338.9Q150.15 324.25 150.15 309.2Q150.2 249.4 148.4 190Q148.1 180.9 152.5 175.75M275.75,282.15Q286.45 295.55 296.55 309.25Q306.65 323 318.2 335.1Q332 349.65 330.2 368.7L310.45 350.45L300.95 356.95Q280.3 371.6 262.35 356.5Q260.35 354.85 259.25 352.7Q258.05 350.35 257.55 347.65Q251.95 317 274.8 298.4Q254.95 284.15 259.1 265.35Q268.05 272.45 275.75 282.15M266.95,318.45Q263.05 327.05 262.95 336.45Q262.85 342.4 266.45 346.95Q287.2 350.7 304.9 339.45Q294.25 323.1 282.3 307.8Q273.15 310.1 266.95 318.45" />
</g>
</svg>
