<?xml version="1.0" encoding="utf-8"?>
<svg version="1.1" id="Layer_1"
xmlns="http://www.w3.org/2000/svg"
xmlns:xlink="http://www.w3.org/1999/xlink"


xml:space="preserve">
q-21.65 -9.25 -39.6 3.8q-17.65 12.75 -25 33.7q-7.15 20.35 -13.3 41.05q-5.65 19.2 -9.45 38.65q-3.55 18.15 -5 36.6q-1.4 18.35 -0.6 36.75q0.9 20.7 4.7 41q3.85 20.35 14.45 38.15q13.3 22.45 36.3 16.35q21 -5.75 38.25 -19.05q6.95 -5.35 13.1 -11.9q-4.25 25.5 6.2 48.5q3.95 -5.55 4.25 -12.3q0.3 -6.45 -3.15 -12q1.9 -20.75 -2.7 -41.05q-25.95 5.2 -49.5 -2.3q22.75 10.9 49 6.75q-16.4 21.75 -40.2 34.95q-14.9 8.2 -28.75 0.55q-6.2 -3.35 -11.2 -8.15q-4.9 -4.65 -8.6 -10.45q-4.9 -7.6 -7.15 -16.15q-3.7 -14.25 -5 -28.95q-2.3 -25.45 -0.55 -50.85q4.1 -58.95 25.7 -113.85q13.4 -34.05 47.5 -36.35q15.1 -0.85 25.15 9.15q0.7 -3.25 -1.8 -7.2q-3.6 -5.5 -9.25 -9.1q6 -16.45 7.65 -33.9q-17.35 44.7 -29.9 92.95q-6.95 26.65 -13.35 53.45q-0.25 2.3 0.15 4.5q-6.6 27.75 -12.6 55.65q-3.1 14.4 -7.85 27.9q-5.6 15.9 -0.65 28.15q8.25 -23.7 13.25 -49.15q6.2 -31.4 13.6 -62.6q28.35 -0.55 57.15 -3.6q5.85 40.2 10.85 80.5q3.8 30.35 10.65 58.1q0.9 -0.6 0.95 -1.3q1.35 -24.6 -2.8 -49.5q-7.45 -44.35 -14.15 -88.8q2.1 -4.95 -0.95 -8.95q-8.5 -58.25 -17.9 -116.15q-1.2 39.85 -3.45 80.95q-2.4 44.35 -7.35 88.35q-6.55 58.85 -9.75 118.55q-0.95 17.3 6.1 29.35q1.1 -3.15 1.8 -6.4q61.35 4.75 122.2 2.3q-0.05 -1.5 -0.5 -3q-56.05 1.5 -111.4 -2.2q-1.45 -59.8 5.25 -118.6q6.7 -58.85 10.05 -118.3q1.7 -30.45 -3.4 -59.3<g id="3520" transform="matrix(1, 0, 0, 1, -82.45, 0)">
<path style="fill:#000000;fill-opacity:1" d="M399.85,128.9Q405.5 132.5 409.1 138Q411.6 141.95 410.9 145.2L410.15 144.5Q400.1 134.5 385 135.35Q350.9 137.65 337.5 171.7Q315.9 226.6 311.8 285.55Q310.05 310.95 312.35 336.4Q313.65 351.1 317.35 365.35Q319.6 373.9 324.5 381.5Q328.2 387.3 333.1 391.95Q338.1 396.75 344.3 400.1Q358.15 407.75 373.05 399.55Q396.85 386.35 413.25 364.6L415.95 320Q389.7 324.15 366.95 313.25L367.7 307.25L367.95 307.2Q391.5 314.7 417.45 309.5Q422.05 329.8 420.15 350.55Q423.6 356.1 423.3 362.55Q423 369.3 419.05 374.85L418.45 431.7Q408 408.7 412.25 383.2Q406.1 389.75 399.15 395.1Q381.9 408.4 360.9 414.15Q337.9 420.25 324.6 397.8Q314 380 310.15 359.65Q306.35 339.35 305.45 318.65Q304.65 300.25 306.05 281.9Q307.5 263.45 311.05 245.3Q314.85 225.85 320.5 206.65Q326.65 185.95 333.8 165.6Q341.15 144.65 358.8 131.9Q376.75 118.85 398.4 128.1L399.85 128.9M235,153L205.95 254.95L259.95 248.3L243.05 114.3L242.65 119.1Q241 136.55 235 153M243.2,112.25L244.2 113L244.95 113.75Q254.35 171.65 262.85 229.9L265.55 248.05L266.2 248Q269.25 252 267.15 256.95L266.95 257.35Q273.65 301.8 281.1 346.15Q285.25 371.05 283.9 395.65Q283.85 396.35 282.95 396.95Q276.1 369.2 272.3 338.85Q267.3 298.55 261.45 258.35Q232.65 261.4 204.3 261.95Q196.9 293.15 190.7 324.55Q185.7 350 177.45 373.7Q172.5 361.45 178.1 345.55Q182.85 332.05 185.95 317.65Q191.95 289.75 198.55 262L196.95 262Q196.55 259.8 196.8 257.5L196.95 256.75L199.95 256.15Q206.35 229.35 213.3 202.7Q225.85 154.45 243.2 109.75L243.15 112.25L243.2 112.25M104.45,101.5Q109.55 130.35 107.85 160.8Q104.5 220.25 97.8 279.1Q91.1 337.9 92.55 397.7L92.55 401.55Q147.9 405.25 203.95 403.75L215.95 402.95L217.55 404.6L218.45 406L218.7 406.7Q219.15 408.2 219.2 409.7L219.2 410.45L218.95 411.95L218.6 413.45L217.95 414.95Q157.1 417.4 95.75 412.65L91.3 412.3Q90.6 415.55 89.5 418.7Q82.45 406.65 83.4 389.35Q86.6 329.65 93.15 270.8Q98.1 226.8 100.5 182.45Q102.75 141.35 103.95 101.5L104.45 101.5" />
</g>
</svg>
