<?xml version="1.0" encoding="utf-8"?>
<svg version="1.1" id="Layer_1"
xmlns="http://www.w3.org/2000/svg"
xmlns:xlink="http://www.w3.org/1999/xlink"


xml:space="preserve">
q-14.75 -15.4 -33.15 -26.5q-0.8 1.2 -0.9 3.05q-0.1 1.75 0.75 3q1.55 55.55 -4.1 110.55q-0.9 8.45 3.85 15.3q7.4 -62.95 5.55 -126.7q14.9 8.6 22.1 24.55q7.6 16.85 7.8 35.4q0.05 5.15 -0.45 10.25q-1.35 14 -7.15 26.6q-2.5 4.75 -5.55 8.95q-15.6 -2 -28.75 6.75q18.5 0.85 35.2 -9.3q11.9 -7.25 16.9 -21.3q2.25 -6.35 3.85 -12.85q5.25 -21.4 1.95 -43.2q-0.85 -6.3 -2.4 -12.3q-3.45 -13.3 -14.4 -21.95q-4.25 -3.4 -9.1 -5.7q12.7 -14.15 13.75 -33q0.8 -15.1 -6.5 -28.15q-13.95 8.2 -29.35 13.05q0.5 -38.2 0.05 -76.6q1.4 -2.35 1.9 -4.4q8.05 0.75 14.05 6.15q25.65 23.1 17.75 54.1q-1.3 5.2 -5.75 7.8q-2.3 0.85 -3.15 4.3q-6.1 24.6 -8.8 50.15q-6.7 57.35 -20 112.85q-8.9 -58.6 -18.3 -116.9q-9.35 -58.15 -14 -116.9q-2.8 13.85 -1.15 29.55q6 58.7 14.8 116.95q8.8 58.35 14.65 117.15q1.65 16.55 8.2 28.05q0.85 -1 0.8 -2.25q3.95 -18.4 7.15 -37.25q9.75 -58.1 16.65 -116.8q6.25 -53.05 14.75 -105.4q-0.8 19.2 1.65 39.25q7.15 58.45 9.8 117.65q2.7 59.35 7.05 118.55q4.3 59 9.55 117.8q1.45 16.65 8.25 28.1q4.1 -14.05 1.85 -29.45q-8.45 -58.25 -12.75 -117.5q-4.25 -59.2 -7.55 -118.55q-1.6 -29.65 -5.2 -59q-7.15 -58.45 -10.85 -117.2q-4.25 23.6 -6.4 49.5q-4.85 58.8 -8.05 117.8q-3.3 59.5 -7.75 118.5q-4.5 59.2 -11.7 117.6q-2.1 16.75 2.15 29.3q4.95 -11.55 2.75 -24.75q1.9 -4.55 2.35 -9.65q5.15 -58.7 8.5 -117.85q2.9 -59.4 7.8 -118.35q4.9 -59.25 8 -117.8q-10.65 15.5 -13.55 37.2q-7.85 59.2 -17.95 118.1q-6.1 35.6 -10.65 71.45q-0.4 1.05 -0.25 2.25q-2.6 20.6 -4.7 41.35q-5.9 58.4 -12.2 116.45q-1.55 14.55 -4.5 28.8q-3.45 16.55 2.45 28.8q7.3 -47.85 12.3 -96.55q35.85 1.5 71.5 -3.55q0.8 -2.25 0.35 -4.55q-0.6 -0.4 -1.25 -0.45q-28.95 1.85 -57.7 5.65q5.65 -55.65 14.6 -110.9q9.4 -58.25 22.3 -114.95q-0.6 19.05 3.35 40.3q10.9 58.4 20.25 117.1q9.3 58.15 20.15 116.05q10.85 57.9 15.85 116.35q2.65 30.45 13.2 57.35q4.35 -5.35 2.65 -12.65q-10.15 -43.4 -15.35 -88.2q-6.85 -58.5 -17.9 -116.4q-11 -57.9 -21.7 -116q-10.65 -58.05 -20.45 -115.7q-2.6 43.45 -4.5 87q-2.6 58.95 -2.55 118.5q0.05 59.9 -2.85 119.3q-1.45 29.95 -3.4 59.8q-1.95 30.55 -0.2 59.35q54.15 0.85 107.7 -1.25q3.35 -6.3 -0.5 -12q-52.75 1.4 -103.2 0q3.5 -40.05 3.8 -81q0.35 -59.4 2.15 -118.45q1.65 -59.6 2.4 -118.5q-2 2.45 -2.25 6.5<g id="3508" transform="matrix(1, 0, 0, 1, -50.75, 0)">
<path style="fill:#000000;fill-opacity:1" d="M499.9,98.3Q507.2 111.35 506.4 126.45Q505.35 145.3 492.65 159.45Q497.5 161.75 501.75 165.15Q512.7 173.8 516.15 187.1Q517.7 193.1 518.55 199.4L520.4 212.2Q523.7 234 518.45 255.4Q516.85 261.9 514.6 268.25Q509.6 282.3 497.7 289.55Q481 299.7 462.5 298.85L462.2 289.75Q475.35 281 490.95 283L498.95 278L500.55 275.8Q503.6 271.6 506.1 266.85L509.55 259.9Q515.35 247.3 516.7 233.3Q517.2 228.2 517.15 223.05Q516.95 204.5 509.35 187.65Q502.15 171.7 487.25 163.1L465 169.8Q466.85 233.55 459.45 296.5Q454.7 289.65 455.6 281.2Q461.25 226.2 459.7 170.65L456.45 171L455.45 162L459.9 160.85L463.95 73.55L462.75 71.55L462.5 71.2Q461.65 69.95 461.75 68.2Q461.85 66.35 462.65 65.15L462.8 65Q481.2 76.1 495.95 91.5L499.9 98.3M500.25,138.5Q508.15 107.5 482.5 84.4Q476.5 79 468.45 78.25L467.6 77.6Q467.1 79.65 465.7 82L465.2 82.75Q465.65 121.15 465.15 159.35Q480.55 154.5 494.5 146.3Q498.95 143.7 500.25 138.5M430.2,67.5Q433.9 126.25 441.05 184.7Q444.65 214.05 446.25 243.7Q449.55 303.05 453.8 362.25Q458.1 421.5 466.55 479.75Q468.8 495.15 464.7 509.2Q457.9 497.75 456.45 481.1Q451.2 422.3 446.9 363.3Q442.55 304.1 439.85 244.75Q437.2 185.55 430.05 127.1Q427.6 107.05 428.4 87.85Q419.9 140.2 413.65 193.25Q406.75 251.95 397 310.05Q393.8 328.9 389.85 347.3L390.5 362.45Q390.55 363.7 389.7 364.7Q383.15 353.2 381.5 336.65Q375.65 277.85 366.85 219.5Q358.05 161.25 352.05 102.55Q350.4 86.85 353.2 73Q357.85 131.75 367.2 189.9Q376.6 248.2 385.5 306.8L388.05 326.5Q401.35 271 408.05 213.65L417.7 126.35Q420.4 100.8 426.5 76.2Q427.35 72.75 429.65 71.9L430.2 67.5M344.2,183.8Q339.3 242.75 336.4 302.15L334.05 346.45Q330.7 405.6 325.55 464.3Q325.1 469.4 323.2 473.95Q325.4 487.15 320.45 498.7Q316.2 486.15 318.3 469.4Q325.5 411 330 351.8Q334.45 292.8 337.75 233.3Q340.95 174.3 345.8 115.5Q347.95 89.6 352.2 66Q349.1 124.55 344.2 183.8M239.2,64.25Q249 121.9 259.65 179.95Q270.35 238.05 281.35 295.95Q292.4 353.85 299.25 412.35Q304.45 457.15 314.6 500.55Q316.3 507.85 311.95 513.2Q301.4 486.3 298.75 455.85Q293.75 397.4 282.9 339.5Q272.05 281.6 262.75 223.45Q253.4 164.75 242.5 106.35Q238.55 85.1 239.15 66.05Q226.25 122.75 216.85 181Q207.9 236.25 202.25 291.9Q231 288.1 259.95 286.25L271.45 286.8Q272.1 286.85 272.7 287.25L273.35 288.75L273.55 289.45Q274 291.75 273.2 294Q237.55 299.05 201.7 297.55L201.6 298.25L189.75 416.15Q184.75 464.85 177.45 512.7Q171.55 500.45 175 483.9Q177.95 469.65 179.5 455.1Q185.8 397.05 191.7 338.65Q193.8 317.9 196.4 297.3L195.95 297.25L195.75 295.7L195.7 295Q195.55 293.8 195.95 292.75L197 292.6Q201.55 256.75 207.65 221.15Q217.75 162.25 225.6 103.05Q228.5 81.35 239.15 65.85L239.2 64.25M68.25,57.5Q67.5 116.4 65.85 176L62.45 295.25Q60.65 354.3 60.3 413.7Q60 454.65 56.5 494.7Q106.95 496.1 159.7 494.7Q163.55 500.4 160.2 506.7Q106.65 508.8 52.5 507.95Q50.75 479.15 52.7 448.6Q54.65 418.75 56.1 388.8Q59 329.4 58.95 269.5Q58.9 209.95 61.5 151Q63.4 107.45 66 64Q66.25 59.95 68.25 57.5" />
</g>
</svg>
