<?xml version="1.0" encoding="utf-8"?>
<svg version="1.1" id="Layer_1"
xmlns="http://www.w3.org/2000/svg"
xmlns:xlink="http://www.w3.org/1999/xlink"


xml:space="preserve">
q1.9 3.2 6.95 14.6q5.9 13.55 9.2 29.2q2.75 13.4 3.8 29.3q1.85 28.5 4.5 61.9q1.75 25.6 1.75 55.1q0 11.45 -1.7 57.55q-2.15 56.35 -4.3 75.95q-2.25 20.8 -12 44.75q-8.95 22.1 -22.25 42.15q-12.95 19.55 -26.1 31.35q-13.7 12.25 -23.5 12.25q-0.85 -1.85 -0.85 -3.55q0 -2.95 7.45 -67.8q8.5 -74 10.55 -94.95q1.1 -22.4 2.25 -81.05q1 -51.2 3 -80.95q3.25 -30 3.25 -75.75q0 -8.35 -2.25 -26.75q0 -3.35 2.5 -5.85q0.55 -1.55 1.6 -2.4q0.15 3.85 17.15 13.2q21.5 11.8 23.1 13.05q8.25 6.5 13.15 14.65q-4.65 -29.35 -5.8 -33.85q-4.5 -17.8 -15.2 -29.6q-7.65 -8.45 -20.5 -15.45q-5.4 -2.8 -8.2 -4.75q-1.95 -1.35 -3.4 -2.85q0.55 6.45 0.55 26.15q0 24.05 -0.45 39.8q-0.6 22.6 -2.3 39.7q-2.05 51.65 -3.75 82.05q-4.8 84.55 -14.55 147.85q38.55 -2.9 66.1 -56q9.75 -18.75 16.75 -41.35q5.15 -16.6 6.45 -26q2.85 -19.85 4.45 -72.4q1.05 -34.85 1.05 -52.1q0 -18.9 -1.85 -49.9q-1.9 -31.05 -1.9 -35.6q0 -6.05 -4.95 -37.4q-8.8 -10.95 -14.3 -10.95q-22 0 -27.65 37.8q-1.85 12.15 -1.9 28q0 8.2 0.3 16.95q-0.65 24.55 -0.65 41.25q0 22.1 -1 32.6q2.6 -0.6 7 1.5q3.05 1.25 4.4 4.1q0.85 1.8 0.85 3.65q0 2.25 -0.5 4.55q-0.75 3.45 -2.25 3.45q-3.65 85.2 -3.65 98.45q-0.2 5.5 0.35 9.95q1.75 13.95 10.2 13.95q9.6 0 18.15 -18.15q8.25 -20.9 12.1 -26.35q1.5 1.3 2.6 4.25q0.9 2.45 0.9 4q0 1 -3.2 9.05q-3.65 9.35 -7.75 17.95q-12.2 25.5 -19.05 25.5q-16.55 0 -19.95 -22.7q-1.05 -7.1 -0.65 -15.65q0 -12.35 3.65 -99.65q0.5 -3 1 -4.5q1 -36.5 4 -92.25q1.15 -22.4 16 -46.5q6 -9.8 13.9 -9.95q6.55 -0.1 13.7 6.35q5.9 5.25 10.45 13.15q4.2 7.15 4.2 10.6q0 3 -1.75 5.6q0.35 0.75 0.35 2.4q0 1.7 -0.5 2.8q-0.05 11.9 -1.9 25.15q-2.2 15.7 -5.85 24.1q-1.2 -2.4 -1.9 -5.85q-0.6 -2.95 -0.6 -5.15q0.85 -9.2 2.35 -19.1q1.9 -12.45 4 -19.15q-9.6 -0.5 -12.6 -0.15q-0.15 -1.05 -0.15 -2.65q0 -3.35 2.3 -4.25q4.8 -1.85 20.95 0.75q0 13.1 -0.75 19.85q-2.4 26.2 -4.55 43.1q-3 -2 -3.6 -5.75q-0.15 -0.8 -0.15 -7q0.15 1 0.45 1.3q2 -15.05 3.95 -40q2.5 -32.25 3.3 -40.5q-1.05 12.3 -2.9 25.3q-0.3 0.8 -1.45 7.2q-0.9 5 -2.3 6.3q-1.75 -1.4 -2.4 -4q-0.35 -1.35 -0.35 -2.6q2.6 -17.7 3.55 -39.35q0.7 -15.4 0.7 -39q0 -2.1 -1.5 -10.6q0 -1.65 0.8 -2.95q0.45 -0.8 1.7 -2.05q7.25 7.3 6.3 25.1q-1.05 9.55 -1.05 14.65q0 9.2 -0.55 18.85q16.05 -2.55 21.25 -0.95q0.3 -3.55 0.65 -23.85q0.2 -14.35 2.35 -21.15q1.25 8.25 1.25 24.4q0 5.95 -21.45 32.35q8.7 9.95 15.45 35.05q2.65 9.95 4.55 20.65q1.5 8.3 1.5 9.95q-2.7 -1.9 -2.95 -3.95q0 -1.4 -3.7 -14.5q-3.1 -9.7 -8 -21.5q-3.95 21.1 -9.5 47.95q-1.05 -1.05 -1.45 -2.4q-0.3 -1.15 -0.3 -3.2q0 -3.8 2.4 -16.35q7.2 -37.6 7.2 -56.65q0 -1.75 0.75 -3.1q0.65 -1.2 1.5 -1.4q1 3 1 9.75q0 12.6 -5.7 45.1q20.5 -26.1 29.65 -39.3q-0.75 -6.3 -2.1 -10.45q-2.6 -7.8 -9.15 -7.8q-17.85 0 -24.45 11.25q-3.3 5.55 -3.3 13.1q0 9.9 6.3 20.75q1.15 2.05 13.85 20.1q9.35 13.4 13.8 24.8q6.3 16 6.3 34.75q0 11.25 -4.95 21.4q-8.05 16.45 -25.8 16.45q-14.85 0 -22.75 -17.2q-2.5 -5.5 -4 -12.05q-1 -4.5 -1 -6q0 -1.25 1.15 -6q1.1 -4.75 1.1 -6q2.35 -2.05 4.8 -5.2q1.1 1 1.95 2.65q0.8 1.6 0.8 2.5q0 4.7 -3.85 8.4q-3.9 3.65 -3.9 5.1q0 2.9 4.8 13.1q5.6 12 10.2 12q22.7 0 31.3 -12.5q4.45 -6.45 4.45 -15.35q0 -17.4 -6.15 -31.45q-3.95 -9.05 -13.45 -21.8q-10.2 -13.6 -13.5 -20.25q-6.15 -12.35 -6.15 -26.9q0 -13.6 6.85 -22.65q6.05 -8 15.05 -9.75q8.75 -1.7 15 3.5q6.85 5.7 6.85 17.15q0 3.4 -0.75 5.65q-1.75 -2.95 -3.55 -4.2q-4.6 -3.4 -19.8 -3.75q14.85 -0.45 20.4 -6.5q-1.6 -1.65 -3.8 -5.25q0 6.65 -2.5 9.8q-4.95 6.2 -20 6.2q-1.05 13 -3.7 23.6q-1.55 -1.6 -2.7 -6.65q-1.05 -4.4 -1.05 -7.6q0 -11.7 1.4 -26.55q0.9 -9.65 2.15 -15.45q-0.25 -0.5 -0.25 -3q0 -3.05 2.8 -4.3q5.05 -0.7 11.95 1.85q7.2 2.7 11.9 7.45q5.45 5.5 5.45 11.95q0 4.55 -1.5 12.95q-1.5 8.4 -1.5 9.15q0 1.2 2.9 5.3q2.65 3.75 4.6 5.7q15 -1.5 19.05 -7.75q1.25 -2 1.8 -5.15q0.6 -3.7 0.9 -4.35q0 -4.3 1.5 -9.8q1.5 -5.45 1.5 -8.2q0 -1.5 -0.8 -1.25q0 11.9 -3 22.85q-5.25 19.25 -17.5 19.25q-6.6 -4.75 -8.2 -9.8q-0.55 -1.85 -0.55 -8.55q0 -5.9 1.5 -11.7q1.5 -5.85 1.5 -10.05q0 -1.25 -1 -3.75q-1 -2.5 -1 -3.75q0 -1.4 0.65 -1.95q0.55 -0.5 2.85 -1.2q1 3 1 10.15q0.2 0.7 0.2 3.4q-0.4 1.65 -1.45 3.05q-0.2 -1.2 0.25 -5.25q-1.25 0 -1.5 -0.5q-10.9 -2.15 -19.8 7.75q-3.2 3.55 -5.35 7.85q-1.85 3.75 -1.85 5.65q0 3.6 3.5 6.8q4.65 4.2 13.25 4.2q7.45 0 11.05 -1.7q1.9 -0.95 2.15 -1.75q0 -1.35 -0.6 -2.2q-8.6 0.1 -11.3 -1.75q-0.95 -0.65 -1.05 -1.45q0 -1.55 0.15 -2.25q0.35 0.85 0.35 2.55q0 3.8 -1.85 12.45q9.05 -0.9 13.35 3.35q1.8 1.75 4.1 1.85q-1.05 3.05 -4.75 7q-1.4 -2.25 -2.8 -3.95q-2.7 -3.3 -6.45 -3.3q-20.15 0 -27.75 43.3q-3.75 21.35 -3.75 48.7q0 18.05 2.05 27.05q5.25 23.2 22.2 23.2q11.1 0 19.25 -10.2q2.8 -3.55 4.7 -7.55q1.55 -3.3 1.55 -4.5q0 -1.45 -0.8 -2.25q-1.05 -1.05 -1.2 -1.5q1.65 0 2 1.7q0 5.85 -7.3 15.45q-7.45 9.8 -15.45 14.05q-24.15 6.3 -31.7 -23.1q-2.5 -9.55 -3 -22.5q-0.55 -19.95 -0.2 -27.65q0.5 -11.45 5.2 -31.25q2.9 -12.35 3.55 -14.7q2.2 -8.2 4.95 -14.55q3.05 -6.85 3.55 -7.55q3 -4.3 8.95 -5.2q-0.9 -2.8 -0.9 -5.2q-1.6 1 -3.65 1q-3.4 -0.2 -3.75 -0.55q-12.9 -1.35 -16.7 -8.4q-1.55 -2.95 -1.55 -10.2q0 -8 4.7 -15.55q5.9 -9.35 16.55 -12.35q2.25 0.9 2.8 2.85q3.65 10.15 4.75 24.5q0.45 10.25 1.2 16.55q5.75 32.55 10.5 66q3.75 26.9 9.6 65.4q0.8 1.65 0.8 4.45q5.85 45.35 14 126.45q10.05 99.55 10.05 110.15q0 3.6 -0.2 4.55q-0.5 2.6 -2.8 4.2q-6 -13.7 -7.75 -32.4q-1.1 -21.45 -2.25 -32.6q-3.7 1.4 -9.55 1.55q-18.2 -0.35 -24.45 -3.25q-6.5 44.8 -14.25 83.35q-13.45 67.25 -32.3 123.9q-1.2 -1.25 -2.8 -6.55q-1.45 -4.85 -1.45 -6.3q0 -1.5 0.4 -2.8q0.3 0 0.6 0.8q18.55 -53.5 30.65 -122.2q6.6 -37.3 17.5 -123.25q10.05 -79.45 18.5 -122.85q12.35 -63.1 31.2 -113.95q0 -1.45 0.7 -1.95q2 4 2 8.6q-3.45 15.05 -14.05 51.3q-16.65 56.75 -17.75 63.85q-3.8 24 -7.9 61.85q6.85 -1 22.7 0.3q5.1 -1.6 8.65 -1.9q-8.5 -56.35 -16.75 -115.45q-16.5 -117.75 -16.5 -142.8q0 -4.9 2.25 -6.5q3.2 18.75 5.05 73.4q1.2 36.35 1.2 55.1q0 19.5 -1.85 57.75q-1.9 38.25 -1.9 57.75q0 16.75 -6.2 113.35q-6.7 103.9 -10.8 136.75q15.1 0.8 19.4 -0.85q1.75 -0.65 5.1 -0.65q3.75 1.85 3.75 8.25q0 4.15 -2.25 7.5q-5.65 0.9 -8.4 1.75q-2.15 -1.65 -3.15 -5.35q0 -2.3 6.25 -82.55q6.6 -84.6 7.75 -113.6q3.55 -80.95 3.55 -89.85q0.15 -7.15 -0.8 -21.45q0.3 0.75 0.3 2.35q0 1.65 -0.35 2.35q-5.3 0.6 -20 5q-0.15 6.3 -3.35 19.7q-3.15 13.15 -2.65 21.05q-0.7 -1.15 -0.7 -2.65q0 -3.9 3.55 -21.4q2 -9.8 3.4 -15.1q-11.6 3.25 -18.45 3.25q-0.2 -0.5 -0.2 -2.15q0 -1.7 0.35 -2.55q15.15 -1.15 27.5 -4.85q11.55 -3.4 21.75 -3.9q-1.6 6.4 -4.2 20.55q-2.8 12.85 -7.8 21.2q-0.2 -0.3 -0.2 -1.95q0 -2.8 5.55 -23.75q5.55 -21.15 9.45 -32.9q0.75 2.3 0.6 6.1q0 7.45 4.4 22.1q4.1 -15.25 12.65 -36.65q9 -22.55 11.85 -23.35q0 2.35 -10.7 28.75q-13.35 33.1 -15.55 39.1q-1.5 -7 -6 -24.05q-4.3 -16.3 -6 -24.7q3.9 -0.75 9.3 0.65q5.55 1.45 9.3 4.4q4.2 3.3 4.2 7.15q0 5.9 -2.95 10.5q-2.8 4.4 -7.85 6.25q8.75 7.6 17.05 24.15q0 2.5 -0.25 2.6q-2.45 -2.45 -12.25 -14.9q-6.95 -8.85 -9.05 -11.95q-0.75 -2.25 -0.75 -7.1q-0.5 -14.8 -0.35 -24.35q-0.55 -0.95 -0.55 -2.55q0.6 -12.8 3.45 -18.7q0 -3.2 4.2 -4.1q11.85 -0.7 18.05 -4.85q5 -3.3 5 -7.1q0 -2.4 -7.85 -4.6q-7.15 -2 -13.9 -1.05q22.9 0.1 31.7 12.8q4.8 6.95 4.8 16.85q0 2 -1.9 5.7q-2.2 4.4 -5.8 8.15q-10.05 10.5 -24.8 10.5q-13.8 0 -19.55 -1.25q-3.4 24.25 -8.5 45q-0.95 -0.95 -1.2 -1.65q-0.3 -0.75 -0.3 -2.6q0 -7.4 5.65 -40.9q-0.45 -0.55 -0.4 -1.2q-0.25 -2.35 -0.2 -3.2q0.1 -1.15 1.4 -1.25q3.05 -20.8 3.05 -30.05q0 -1.25 -1 -5.25q-2.55 -0.85 -3.25 -2.25q-0.25 -0.5 -0.25 -1.85q0 -1.55 0.15 -2.5q0.75 0.2 1.35 0.65q6.45 -0.1 11.35 0.2q-5.3 12 -7.75 19.7q3.05 0.85 5.2 2.95q3.5 3.4 3.5 9.15q0 4.9 -0.45 5.85q-1.3 2.6 -7.8 6q-0.7 5.05 -4.25 21.15q-2.5 -1.5 -2.5 -4.5q0 -8.4 1.65 -16.75q1.6 -8.4 1.6 -25.25q1.75 0.1 2.75 1.15q0.9 -0.95 2.5 -1.65q3.35 -1.5 7.65 -0.95q-2.9 -6.75 -3.65 -18.65q-1.15 -19 -1.55 -21.45q-2 3.2 -4.55 8.65q-5.85 11.75 -13.5 18.95q-2 -2.1 -2 -2.85q0 -1.65 8.65 -17.3q9.85 -17.8 17.6 -27.85q0.65 6 1.4 19.45q0.85 12.35 2.6 20.05q5.4 -7.7 10.5 -21.15q1.6 4.75 4.5 22.25q2.5 15.05 6.75 23.75q-5.5 -7.4 -7.35 -18.75q-1.4 -12.75 -3.15 -19.25q0 14.05 -1.8 31.25q17.25 0 29 -7.5q4.05 -2.6 6.65 -5.6q2.1 -2.4 2.1 -3.4q0 -12.5 -15.6 -17.45q-3.5 -1.1 -11.5 -2.65q-5.9 -1.15 -6.9 -2.15q-3.95 1.25 -5.2 1.25q4.9 0 8.25 -1.95q2.75 -1.65 2.75 -3.05q0 -1.65 -3.25 -4.45q-2.9 -2.55 -3.5 -2.55q-1.25 0 -5.25 1.25<g id="3513" transform="matrix(1, 0, 0, 1, -4.25, 0.75)">
<path style="fill:#000000;fill-opacity:1" d="M512.65,90.75Q514.55 93.95 519.6 105.35Q525.5 118.9 528.8 134.55Q531.55 147.95 532.6 163.85Q534.45 192.35 537.1 225.75Q538.85 251.35 538.85 280.85Q538.85 292.3 537.15 338.4Q535 394.75 532.85 414.35Q530.6 435.15 520.85 459.1Q511.9 481.2 498.6 501.25Q485.65 520.8 472.5 532.6Q458.8 544.85 449 544.85L434.5 544.6L433.2 542.55L431.85 540.4Q431 538.55 431 536.85Q431 533.9 438.45 469.05Q446.95 395.05 449 374.1Q450.1 351.7 451.25 293.05Q452.25 241.85 454.25 212.1L454.25 173.1Q457.5 143.1 457.5 97.35Q457.5 89 455.25 70.6L453 53.85Q453 50.5 455.5 48L457.65 52.25Q458.2 50.7 459.25 49.85Q459.4 53.7 476.4 63.05Q497.9 74.85 499.5 76.1Q507.75 82.6 512.65 90.75M524.15,157.95Q519.5 128.6 518.35 124.1Q513.85 106.3 503.15 94.5Q495.5 86.05 482.65 79.05L472.9 74Q467.5 71.2 464.7 69.25Q462.75 67.9 461.3 66.4L461.95 71.95Q462.5 78.4 462.5 98.1Q462.5 122.15 462.05 137.9Q461.45 160.5 459.75 177.6L459.75 217.35L456.35 298.8Q454.3 350.45 452.6 380.85Q447.8 465.4 438.05 528.7Q476.6 525.8 504.15 472.7Q513.9 453.95 520.9 431.35Q526.05 414.75 527.35 405.35Q530.2 385.5 531.8 332.95Q532.85 298.1 532.85 280.85Q532.85 261.95 531 230.95Q529.1 199.9 529.1 195.35Q529.1 189.3 524.15 157.95M440.5,80.6L431.3 68.55Q422.5 57.6 417 57.6Q395 57.6 389.35 95.4Q387.5 107.55 387.45 123.4Q387.45 131.6 387.75 140.35L386.65 182Q386 206.55 386 223.25Q386 245.35 385 255.85L385 264.6Q387.6 264 392 266.1L417.5 266.6Q420.55 267.85 421.9 270.7Q422.75 272.5 422.75 274.35Q422.75 276.6 422.25 278.9Q421.5 282.35 420 282.35L403.65 281.5L385 280.25L385 306.1L380.65 407.15Q377 492.35 377 505.6L376.7 510.7Q376.5 516.2 377.05 520.65Q378.8 534.6 387.25 534.6Q396.85 534.6 405.4 516.45Q413.65 495.55 417.5 490.1Q419 491.4 420.1 494.35Q421 496.8 421 498.35Q421 499.35 417.8 507.4Q414.15 516.75 410.05 525.35Q397.85 550.85 391 550.85Q374.45 550.85 371.05 528.15Q370 521.05 370.4 512.5L371 505.25Q371 492.9 374.65 405.6L379 300.1L379 250.6Q379.5 247.6 380 246.1L380 193.6Q381 157.1 384 101.35Q385.15 78.95 400 54.85Q406 45.05 413.9 44.9Q420.45 44.8 427.6 51.25Q433.5 56.5 438.05 64.4Q442.25 71.55 442.25 75Q442.25 78 440.5 80.6M374.4,5.45Q374.75 6.2 374.75 7.85Q374.75 9.55 374.25 10.65L373 12.5L332.75 12.35Q332.7 24.25 330.85 37.5Q328.65 53.2 325 61.6Q323.8 59.2 323.1 55.75Q322.5 52.8 322.5 50.6Q323.35 41.4 324.85 31.5Q326.75 19.05 328.85 12.35L311.5 12.25L301.35 11.4Q291.75 10.9 288.75 11.25L288.4 9.4Q288.25 8.35 288.25 6.75Q288.25 3.4 290.55 2.5Q295.35 0.65 311.5 3.25L373.25 3.75L374.4 5.45M357.5,132Q357.5 145.1 356.75 151.85L356.75 195.35L352.8 238.5Q350.4 264.7 348.25 281.6Q345.25 279.6 344.65 275.85Q344.5 275.05 344.5 268.85L345.25 268.6L345.55 270.05Q345.7 271.05 346 271.35Q348 256.3 349.95 231.35Q352.45 199.1 353.25 190.85L353.25 188.55L348.95 189.15L331 190.6L318 190.6L314.5 189.85L306.5 189.1L305.65 188.05Q304.6 200.35 302.75 213.35L302.75 262.1Q302.45 262.9 301.3 269.3Q300.4 274.3 299 275.6Q297.25 274.2 296.6 271.6Q296.25 270.25 296.25 269L296.5 262.6L297.5 263.6L298.4 260.45L299.25 257.1L299.25 208.35Q301.85 190.65 302.8 169Q303.5 153.6 303.5 130Q303.5 127.9 302 119.4L300.5 110.85Q300.5 109.2 301.3 107.9Q301.75 107.1 303 105.85Q310.25 113.15 309.3 130.95L307.8 146.2Q306.75 155.75 306.75 160.85Q306.75 170.05 306.2 179.7L310.15 180.45L317 181.1L325.15 180.8L332 180.1Q348.05 177.55 353.25 179.15L353.25 152.6Q353.55 149.05 353.9 128.75Q354.1 114.4 356.25 107.6Q357.5 115.85 357.5 132M357.05,330.55L357.25 333Q357.25 338.95 335.8 365.35L330 372.35Q338.7 382.3 345.45 407.4Q348.1 417.35 350 428.05Q351.5 436.35 351.5 438L351.45 440.05L351.25 441.35L350.8 441.8L350 442.6Q347.3 440.7 347.05 438.65L347.25 435.85Q347.25 434.45 343.55 421.35L338.25 403.35Q335.15 393.65 330.25 381.85L327.45 375.4L312.95 392.25L312.75 393.4Q308.8 414.5 303.25 441.35Q302.2 440.3 301.8 438.95Q301.5 437.8 301.5 435.75Q301.5 431.95 303.9 419.4L309.25 392.75L309.3 392.5L309.25 390.85L309.8 390Q317 352.4 317 333.35Q317 331.6 317.75 330.25Q318.4 329.05 319.25 328.85Q320.25 331.85 320.25 338.6Q320.25 351.2 314.55 383.7L326.6 368.15Q347.1 342.05 356.25 328.85L357.05 330.55M262.5,27.25L261.5 27.5Q260.75 21.2 259.4 17.05Q256.8 9.25 250.25 9.25Q232.4 9.25 225.8 20.5Q222.5 26.05 222.5 33.6Q222.5 43.5 228.8 54.35Q229.95 56.4 242.65 74.45Q252 87.85 256.45 99.25Q262.75 115.25 262.75 134Q262.75 145.25 257.8 155.4Q249.75 171.85 232 171.85Q217.15 171.85 209.25 154.65Q206.75 149.15 205.25 142.6Q204.25 138.1 204.25 136.6Q204.25 135.35 205.4 130.6Q206.5 125.85 206.5 124.6L208.2 123.05Q210.55 121 213 117.85Q214.1 118.85 214.95 120.5Q215.75 122.1 215.75 123Q215.75 127.7 211.9 131.4Q208 135.05 208 136.5Q208 139.4 212.8 149.6Q218.4 161.6 223 161.6Q245.7 161.6 254.3 149.1Q258.75 142.65 258.75 133.75Q258.75 116.35 252.6 102.3Q248.65 93.25 239.15 80.5Q228.95 66.9 225.65 60.25Q219.5 47.9 219.5 33.35Q219.5 19.75 226.35 10.7Q232.4 2.7 241.4 0.95Q250.15 -0.75 256.4 4.45Q263.25 10.15 263.25 21.6Q263.25 25 262.5 27.25M189.7,65.1Q187.95 62.15 186.15 60.9Q181.55 57.5 166.35 57.15L166.45 59L166.75 66.5L166.6 77.15L173.1 76.85Q187.95 76.4 193.5 70.35Q191.9 68.7 189.7 65.1M196.5,70.35Q196.5 77 194 80.15Q189.05 86.35 174 86.35L166.25 85.9L165.95 89.75Q164.9 102.75 162.25 113.35Q160.7 111.75 159.55 106.7Q158.5 102.3 158.5 99.1Q158.5 87.4 159.9 72.55Q160.8 62.9 162.05 57.1L162 57.1Q161.75 56.6 161.75 54.1Q161.75 51.05 164.55 49.8L165.25 49L165.35 49.5L167.2 49.1Q172.25 48.4 179.15 50.95Q186.35 53.65 191.05 58.4Q196.5 63.9 196.5 70.35M179.25,179.75Q179.25 184.3 177.75 192.7Q176.25 201.1 176.25 201.85Q176.25 203.05 179.15 207.15Q181.8 210.9 183.75 212.85Q198.75 211.35 202.8 205.1Q204.05 203.1 204.6 199.95Q205.2 196.25 205.5 195.6Q205.5 191.3 207 185.8Q208.5 180.35 208.5 177.6Q208.5 176.1 207.7 176.35L206.5 176.6L208.4 173.45L209.5 171.35L211 171.35L211.5 178.5Q211.5 190.4 208.5 201.35Q203.25 220.6 191 220.6L182.5 220.35Q175.9 215.6 174.3 210.55Q173.75 208.7 173.75 202Q173.75 196.1 175.25 190.3Q176.75 184.45 176.75 180.25Q176.75 179 175.75 176.5Q174.75 174 174.75 172.75Q174.75 171.35 175.4 170.8Q175.95 170.3 178.25 169.6Q179.25 172.6 179.25 179.75M275.05,172.45Q275.25 173.15 275.25 175.85L274.95 179.3Q274.55 180.95 273.5 182.35L272.5 182.35Q272.3 181.15 272.75 177.1Q271.5 177.1 271.25 176.6Q260.35 174.45 251.45 184.35Q248.25 187.9 246.1 192.2Q244.25 195.95 244.25 197.85Q244.25 201.45 247.75 204.65Q252.4 208.85 261 208.85Q268.45 208.85 272.05 207.15Q273.95 206.2 274.2 205.4L274.25 205.1Q274.25 203.75 273.65 202.9L272.5 201.65Q263.9 201.75 261.2 199.9Q260.25 199.25 260.15 198.45L260.25 197.75Q260.25 196.2 260.4 195.5L260.5 195.1L266.65 194.85L278 194.6L278.9 195.8Q279.25 196.65 279.25 198.35Q279.25 202.15 277.4 210.8L274.6 222.8Q283.65 221.9 287.95 226.15L291.15 229.75Q292.95 231.5 295.25 231.6Q294.2 234.65 290.5 238.6Q289.1 236.35 287.7 234.65Q285 231.35 281.25 231.35Q261.1 231.35 253.5 274.65Q249.75 296 249.75 323.35Q249.75 341.4 251.8 350.4Q257.05 373.6 274 373.6Q285.1 373.6 293.25 363.4Q296.05 359.85 297.95 355.85Q299.5 352.55 299.5 351.35Q299.5 349.9 298.7 349.1Q297.65 348.05 297.5 347.6L299.1 348.65L301.6 349.1Q303.25 349.1 303.6 350.8L303.75 354.35Q303.75 360.2 296.45 369.8Q289 379.6 281 383.85Q256.85 390.15 249.3 360.75Q246.8 351.2 246.3 338.25L246.25 324Q245.7 304.05 246.05 296.35Q246.55 284.9 251.25 265.1Q254.15 252.75 254.8 250.4Q257 242.2 259.75 235.85Q262.8 229 263.3 228.3Q266.3 224 272.25 223.1L273.4 222.95Q272.5 220.15 272.5 217.75L272.65 215.6Q271.05 216.6 269 216.6L263.75 216.4Q260.35 216.2 260 215.85Q247.1 214.5 243.3 207.45Q241.75 204.5 241.75 197.25Q241.75 189.25 246.45 181.7Q252.35 172.35 263 169.35L272.25 169.6Q274.5 170.5 275.05 172.45M125.25,15.1L125.2 16.2Q128.85 26.35 129.95 40.7L130.8 57.05Q131.25 67.3 132 73.6Q137.75 106.15 142.5 139.6Q146.25 166.5 152.1 205L162.25 271.6L165.2 292.4Q166 294.05 166 296.85L165.95 298.25Q171.8 343.6 179.95 424.7Q190 524.25 190 534.85Q190 538.45 189.8 539.4Q189.3 542 187 543.6Q181 529.9 179.25 511.2Q178.15 489.75 177 478.6L174.05 446.8L171 414.1L164.3 349.65L159.55 306.05Q155.85 307.45 150 307.6L96 307.6Q77.8 307.25 71.55 304.35Q65.05 349.15 57.3 387.7Q43.85 454.95 25 511.6Q23.8 510.35 22.2 505.05Q20.75 500.2 20.75 498.75Q20.75 497.25 21.15 495.95L21.75 493.85Q22.05 493.85 22.35 494.65L22.75 495.85Q41.3 442.35 53.4 373.65Q60 336.35 70.9 250.4Q80.95 170.95 89.4 127.55Q101.75 64.45 120.6 13.6L120.5 13Q120.5 11.55 121.2 11.05L121.65 10.75L123.25 6.5Q125.25 10.5 125.25 15.1M123.55,24.7Q120.1 39.75 109.5 76Q92.85 132.75 91.75 139.85Q87.95 163.85 83.85 201.7L77 263.6L73.3 291.8Q80.15 290.8 96 292.1L149 291.6Q154.1 290 157.65 289.7L157 284.35Q148.5 228 140.25 168.9Q123.75 51.15 123.75 26.1L123.55 24.7M23,15.5Q23 10.6 25.25 9Q28.45 27.75 30.3 82.4Q31.5 118.75 31.5 137.5Q31.5 157 29.65 195.25Q27.75 233.5 27.75 253Q27.75 269.75 21.55 366.35Q14.85 470.25 10.75 503.1L10.75 523.1Q25.85 523.9 30.15 522.25L32.9 521Q34.65 520.35 38 520.35L80 521.6Q83.75 523.45 83.75 529.85Q83.75 534 81.5 537.35L57.3 536.3L42.5 535.6L32.4 536.6Q26.75 537.5 24 538.35L8 538.35Q5.85 536.7 4.85 533L4.25 529.5Q4.25 527.2 10.5 446.95Q17.1 362.35 18.25 333.35L22.95 227.45Q26.5 146.5 26.5 137.6L25.9 119.8L24.75 92.6L24.75 51.35Q24.9 44.2 23.95 29.9L23 15.5M243.95,219.65Q244.25 220.4 244.25 222Q244.25 223.65 243.9 224.35L243 225.35Q237.7 225.95 223 230.35Q222.85 236.65 219.65 250.05Q216.5 263.2 217 271.1L216.55 271.5L215.5 272.1L214.2 270.25Q213.5 269.1 213.5 267.6Q213.5 263.7 217.05 246.2Q219.05 236.4 220.45 231.1Q208.85 234.35 202 234.35L193.5 234.1L192.95 233.25Q192.75 232.75 192.75 231.1Q192.75 229.4 193.1 228.55L194 227.35Q209.15 226.2 221.5 222.5Q233.05 219.1 243.25 218.6L243.95 219.65M200,288.6Q198.4 295 195.8 309.15Q193 322 188 330.35L187.2 329.95Q187 329.65 187 328Q187 325.2 192.55 304.25Q198.1 283.1 202 271.35Q202.75 273.65 202.6 277.45L202.25 282.6Q202.25 290.05 206.65 304.7L213.25 325.35L213.75 325.35Q217.85 310.1 226.4 288.7Q235.4 266.15 238.25 265.35L239.25 267.05L239.5 269.5Q239.5 271.85 228.8 298.25Q215.45 331.35 213.25 337.35L212.5 337.35Q211 330.35 206.5 313.3Q202.2 297 200.5 288.6L200 288.6M207.2,385.65Q211.1 384.9 216.5 386.3Q222.05 387.75 225.8 390.7Q230 394 230 397.85Q230 403.75 227.05 408.35Q224.25 412.75 219.2 414.6Q227.95 422.2 236.25 438.75Q236.25 441.25 236 441.35L235.6 441.8L235 442.6Q232.55 440.15 222.75 427.7Q215.8 418.85 213.7 415.75L211 415.85L204.45 415.75L204.3 417.1L201.5 446.85L200.5 447.1Q199.75 444.85 199.75 440Q199.25 425.2 199.4 415.65L198.5 415.6L197.55 414.4Q197 413.45 197 411.85L197.05 410L197.25 409.1L197.85 409.35L199.6 409.6Q200.2 396.8 203.05 390.9L203 389.75Q203 386.55 207.2 385.65M206.25,391.85L204.95 409.45Q216.8 408.75 223 404.6Q228 401.3 228 397.5Q228 395.1 220.15 392.9Q213 390.9 206.25 391.85M298,443.85Q320.9 443.95 329.7 456.65Q334.5 463.6 334.5 473.5Q334.5 475.5 332.6 479.2Q330.4 483.6 326.8 487.35Q316.75 497.85 302 497.85Q288.2 497.85 282.45 496.6L281.5 503.6Q278.1 527.85 273 548.6Q272.05 547.65 271.8 546.95Q271.5 546.2 271.5 544.35Q271.5 536.95 277.15 503.45L278.55 494.85Q278.1 494.3 278.15 493.65L278.5 491.85Q278.25 489.5 278.3 488.65Q278.4 487.5 279.7 487.4Q282.75 466.6 282.75 457.35Q282.75 456.1 281.75 452.1L281.5 451.1Q278.95 450.25 278.25 448.85Q278 448.35 278 447Q278 445.45 278.15 444.5L278.25 443.85L281.25 443.8L281.5 443.1Q282.25 443.3 282.85 443.75L286.65 443.65Q293.1 443.55 298 443.85M249.5,459.1L240.3 479.45Q235 491.45 232.55 499.15Q235.6 500 237.75 502.1Q241.25 505.5 241.25 511.25Q241.25 516.15 240.8 517.1Q239.5 519.7 233 523.1L226.35 522.55L221 522L220.5 528.2Q219.8 533.25 216.25 549.35Q213.75 547.85 213.75 544.85Q213.75 536.45 215.4 528.1Q217 519.7 217 502.85L217.05 501L217.25 500.1Q219 500.2 220 501.25Q220.9 500.3 222.5 499.6Q225.85 498.1 230.15 498.65L231.7 498.95Q228.8 492.2 228.05 480.3Q226.9 461.3 226.5 458.85Q224.5 462.05 221.95 467.5L217.5 476.9Q211.65 488.65 204 495.85Q202 493.75 202 493Q202 491.35 210.65 475.7Q220.5 457.9 228.25 447.85Q228.9 453.85 229.65 467.3Q230.5 479.65 232.25 487.35Q237.65 479.65 242.75 466.2L250 445.35Q251.6 450.1 254.5 467.6Q257 482.65 261.25 491.35L261.25 495.85L260.8 496.3L260 497.1Q254.5 489.7 252.65 478.35Q251.25 465.6 249.5 459.1M285.2,451.05L285.25 456.6Q285.25 470.65 283.45 487.85L286.65 488.5L293.25 489.6Q310.5 489.6 322.25 482.1Q326.3 479.5 328.9 476.5Q331 474.1 331 473.1Q331 460.6 315.4 455.65Q311.9 454.55 303.9 453Q298 451.85 297 450.85L285.2 451.05M226.75,505.6Q222.8 506.85 221.55 506.85L221.25 510.35L221.25 515.15L223.45 515.75L227.75 516.35Q232.65 516.35 236 514.4Q238.75 512.75 238.75 511.35Q238.75 509.7 235.5 506.9Q232.6 504.35 232 504.35Q230.75 504.35 226.75 505.6" />
</g>
</svg>
