<?xml version="1.0" encoding="utf-8"?>
<svg version="1.1" id="Layer_1"
xmlns="http://www.w3.org/2000/svg"
xmlns:xlink="http://www.w3.org/1999/xlink"


xml:space="preserve">
q4.9 11.35 11.6 35.1q6.6 23.45 11.5 34.65q7.5 17.15 15.05 66.1q7.2 47.05 7.2 74q0 20.1 -5.5 63.45q-5.05 39.6 -9 57.3q-5.2 23.4 -18.65 46q-11.95 20.2 -28.8 37.15q-15.45 15.55 -31.3 24.8q-15.5 9.05 -26.1 9.05q-18.4 0 -26.25 -1.75q-2.7 -1.7 -3.8 -6.15q-1.85 -1.25 -1.95 -3.2q0 -3.05 0.75 -5.65q0.15 -7.95 1.65 -18.3q0.05 -27.75 0.25 -41.6q0.3 -24.55 2.75 -41.65q1.05 -11 2.05 -75.35q0.95 -58.2 0.95 -90.4q0 -12.35 -1.5 -37.75q-1.5 -25.4 -1.5 -37.25q-1.2 -1.45 -1.2 -2.6q0 -7.15 4 -8.1q5.5 5.8 28.3 15.75q30.35 13.2 33.7 15q12.1 6.45 20.05 16.75q5.55 7.15 10.45 18.5q-6.4 -21.25 -13.5 -34.05q-6.2 -11.15 -21.7 -22.05q-11.15 -7.9 -29.8 -17.2q-19.45 -9.35 -26.4 -13.15q-3.6 -1.95 -6 -3.6q1.65 16.8 2.6 58.65q1.05 44 1.05 93.85q0 31.95 -1 94.9q-1.05 67.7 -2 80.2q-1.5 18.35 -2.4 44.7q-0.55 15.2 -1.35 45.55q-1.2 38.05 -3.9 63.55q1 0.4 2.3 0.95q7.85 2.75 15.1 2.75q19.9 0 40.5 -14.95q17.15 -12.45 33.5 -34.15q13.2 -17.55 23.1 -37.2q8.6 -17 9.5 -24.2q5.35 -34.15 5.35 -56.8q0 -30 -6.8 -70.2q-7 -41.05 -16.7 -66.55q-1.75 -4.6 -10.6 -34.2q0 1.7 -0.5 2.95q-1.15 -0.35 -2.7 -2q-4.25 -4.45 -9.4 -4.45q-15.7 8.95 -20.15 38.5q-1.55 10.4 -1.85 24.5q1.45 -1 4.35 -1.8q5.3 -1.45 12.9 -1.75q5.85 1.15 5.85 3.55q0 3.55 -1.55 4.9q-2.25 2 -9.2 2q0.15 16.6 1.05 30.2q2.85 43.05 12.25 43.05q14.9 0 23.5 -14.15q2.8 -4.65 4.5 -10.2q1.25 -4 1.25 -5.5q-3.5 -2.8 -3.5 -4.1q-0.2 -2.45 -0.05 -3.35q0.2 -1.5 1.8 -1.5q6.9 0 8.5 6q0.8 3 0.25 6.25q0 1.2 -1.3 6.5q-1.75 7.4 -4.4 13.6q-8.4 19.5 -22.05 19.5q-18.4 0 -21.3 -20.6q-0.95 -6.6 -0.3 -16.1q0 -34.85 2.45 -51.45q5.55 -37.3 23.3 -43.05q10 -1.15 17.1 5.45q5.65 5.2 5.65 9.55q-0.2 0.35 -1.75 0.35q-5.25 -2.75 -6.75 -2.75q-24.05 0 -33.2 18.25q-4.55 9.05 -4.55 20.25q0 1.45 1.25 6q1.7 6.1 4.25 11.25q7.85 15.75 20.25 15.75q14.95 0 25.8 -8.7q0.35 -4.4 1.15 -9.7q-10.6 0 -13.3 -2q-1.45 -1.1 -1.45 -5.25q0.15 -0.9 0.95 -0.55q5.35 2.25 9.25 2.25q4.7 0 10.65 -1.35q5.95 -1.4 7.85 -1.4q2.75 0 2.75 5.5q0.35 1.2 0.35 3q0 0.55 -2.6 4.15q-1.4 15.15 -1.4 16.95q0 3.65 -2.25 5.15q-2.35 -6.15 -2.5 -14.55q-12.6 12.75 -24.15 12.75q-21.2 0 -29.6 -21.25q-2.65 -6.7 -3.7 -14.8q0 -21.3 8.65 -34q7.2 -10.5 19.1 -13.7q10.1 -2.7 19.1 0.6q8.65 3.2 8.65 8.85q0 2.4 -1.55 6.5q-2.1 5.5 -5.9 10.05q-11.15 13.2 -32.3 13.2q-0.75 -1.15 -1 -2.05q-0.25 -0.95 -0.25 -2.8q0 -2.05 6.05 -3.5q-3.1 -1.25 -4.75 -3.3q-1.25 -1.55 -1.5 -3.5q0.55 -0.45 1.15 -0.6q0 -2.3 -1.5 -15.45q-2.55 -0.15 -3.25 -2.3q-0.25 -0.8 -0.25 -3.1q0 -1.75 0.6 -3.3q0.5 -1.4 1.15 -1.8q26.2 2.15 37.8 12.45q7.95 7.05 7.95 16.3q0 0.8 -1.75 4.55q-1.95 4.25 -4.5 7.95q10.5 1.65 15.45 10.8q3.8 7 3.8 17.05q-1.4 -3.75 -3.8 -6.65q-7.05 -8.55 -19.4 -6q-5.65 3.85 -12.05 3.85q-0.55 12.7 -1.5 19.85q12.95 -2.25 19.6 -5.6q8.9 -4.5 8.9 -11.9q0 -1.55 -1.05 -4.45q0.55 1.35 0.25 2.95q0 2.75 -27.7 48.35q-28.25 46.5 -32.05 46.5q-7.45 0 -19.8 -25.3q-6.5 -13.3 -17.2 -40.7q-3.45 11.25 -9.2 36.15q-6 22.4 -15.05 36.35q-2.25 -2.55 -2.25 -7.25q0 -0.85 7.05 -18.05q7.4 -18.2 8.7 -24.45q5.2 -25.55 9.5 -42q5.55 11.7 15.4 36.35q9.85 22.05 22.6 37.15q11.15 -15.35 30.55 -44.35q20.2 -30.15 20.2 -31.75q0 -1.25 -1 -3.2q-1 -1.95 -1 -3.2q0 -3.55 0.8 -4.45q1.1 -1.3 5.45 -1.3q4 0 5 2.7q0.35 1.2 0.35 3q0 5.95 -2.95 20.3q-3.05 14.95 -3.3 21.7q-0.8 -1.25 -1.35 -5.8q0 -3.95 0.6 -8.55q-6.4 5.85 -20.15 11.25q-15.4 -15.9 -20.2 -26.35q-4.05 -8.9 -4.05 -23.55q0 -11 2.65 -19.35q4 -12.55 13.1 -14.5q0.35 1.05 0.35 2.8q0 3.15 -1.75 4.9q-11.25 -2.75 -16.35 9.5q-2.9 7.05 -2.9 14.1q0 8.9 6 20.35q6.1 11.7 15.25 19.55q20.4 -2.7 27.55 -8.9q2.4 -2.1 3.8 -5.05q-0.75 -1.15 -1 -2.05q-0.25 -1 -0.25 -2.85q0 -3.35 2.25 -5.6q5.8 -0.3 10.6 -0.15q1.9 26.1 4 37.85q3.7 -9.15 15.85 -37.3q10.6 -24.65 15.4 -37.05q2.7 17.65 6.85 48.45q4.9 36.35 4.9 41.4q-4.2 -7 -5.75 -18q-1.2 -11.45 -1.5 -18.35q-3.85 13.75 -14.1 35.05q-15 30.95 -16.4 34.3q-1.9 -40.35 -6.75 -78.6q-4.45 13.05 -11.85 39.85q-7.35 23.7 -17.15 39q-0.5 -3 -0.5 -5.25q0 -0.45 7.4 -18.05q7.85 -18.8 9.6 -25.55q7.2 -28.5 16 -42.5q2.6 13.25 4.5 38.25q11.85 0 22.05 -7.7q3.3 -2.55 5.9 -5.5q2.05 -2.3 2.05 -2.8q0 -4.95 -13.4 -11.5q-9.9 -4.9 -18.95 -6.25q0.95 3.9 1.35 8.75q4.25 4.85 5.5 13.9q0.75 5.2 1.5 16.1q1.95 10.6 4.9 31.8q3.1 22.05 4.85 31.95q3.45 20.3 26.6 146.15q18.65 101.45 18.65 107.75q0 4.25 -2 7.85q-3.4 -2.9 -7.45 -16.15q-3.55 -11.5 -3.55 -14.6q0 -1.25 1 -4.1q1 -2.9 1 -4.15q0 -4.9 -12.5 -74q-0.65 1 -1.65 1q-0.6 0 -1 -0.5q-0.45 -0.6 -2.35 -0.95q-6.75 -1.2 -33.65 -0.3q-15.2 72.25 -25.7 120.25q-3.55 -3.3 -5.2 -9.1q-1.3 -4.45 -1.3 -9.75q0 -5.7 0.8 -7.5q0.25 -0.55 5.2 -8.15q26.05 -122.15 38.5 -182.3q0 -4.4 1.25 -5.85q3.1 -16.15 12.9 -57.3q8.7 -36.35 12.1 -57.3q1.95 -11.95 3.25 -28.75q2.75 -35 10.2 -56.5q1.95 3.45 2.15 25.3q0 43.05 -0.2 52.55q-0.7 30.1 -3.8 52.05q-2.8 31.8 -7.2 90.35q-4.75 63.9 -7.05 91.15q0.65 0.5 7.25 1.15q0.4 -2.05 2.65 -2.8q3.5 4.25 8.35 6.85q2.65 1.45 2.65 4.9q0 3.4 -1.3 4.95q-3.1 3.55 -13.2 4.05q-15.4 -0.4 -19.7 -4.1q-1.55 -1.3 -1.8 -3.15q0 -4.2 7 -80.65q8.3 -90.45 10 -111.35q4 -49.6 4 -99.35q0 -21.15 0.2 -25.8q0.45 -11.9 2.8 -27.45q-7.5 39.75 -22.75 113.1q37.3 -0.9 46.6 1.95q-31.25 -171.9 -38.1 -223.65q-3.4 34.5 -17.65 109.7q-0.15 5.95 -3.25 11.25q-3.5 5.95 -9.8 8.55q5.75 4.35 13.3 12.05q10.65 10.85 19.1 22.25q8.65 11.75 8.65 15.55q0 1.8 -0.55 3.25q-4.75 -4.75 -13.5 -14.65q-16.9 -18.45 -23.15 -18.4q-1.7 -1.9 -2.1 -4.75q-2.85 30.35 -7.6 34.7q-1.3 -1.8 -2.1 -6q-0.65 -3.25 -0.65 -5.6q-1.65 -0.55 -2.6 -1.2q-1.45 -1.05 -1 -2.35q0 -3.4 0.55 -4.1q0.7 -0.95 3.15 -1.2q1.15 -15.35 1.3 -30.3q-2.25 -1.85 -2.25 -5.75q0 -4.65 4.25 -8q26.45 -1.5 38.2 14.05q7.05 9.35 7.05 20.2q0 -1.4 -2.65 -5.4q-3.35 -5.05 -8 -8.8q-11.75 -9.55 -26.4 -6.9q20.9 -0.4 30.6 -4.9q5.4 -2.55 5.95 -5.3q-0.4 2.1 -2.05 2.1q-4.4 0 -5.7 -2.75q-0.55 -1.15 -0.55 -4.1q0 -3.55 1.35 -5.15q1.15 -1.45 2.9 -0.95q1.7 0.45 2.9 2.3q1.35 2 1.35 4.55q0 3.1 -0.2 4<g id="3514" transform="matrix(1, 0, 0, 1, -7.5, 0)">
<path style="fill:#000000;fill-opacity:1" d="M499,80.25Q503.9 91.6 510.6 115.35Q517.2 138.8 522.1 150Q529.6 167.15 537.15 216.1Q544.35 263.15 544.35 290.1Q544.35 310.2 538.85 353.55Q533.8 393.15 529.85 410.85Q524.65 434.25 511.2 456.85Q499.25 477.05 482.4 494Q466.95 509.55 451.1 518.8Q435.6 527.85 425 527.85Q406.6 527.85 398.75 526.1L398 530.6Q395.3 528.9 394.2 524.45Q392.35 523.2 392.25 521.25L392.5 517.5Q392.5 514.45 393.25 511.85L393.55 511Q393.7 503.05 395.2 492.7L398.5 471.6L399.7 451L400.5 430.35Q400.55 402.6 400.75 388.75Q401.05 364.2 403.5 347.1Q404.55 336.1 405.55 271.75Q406.5 213.55 406.5 181.35L406.5 105.75Q406.5 93.4 405 68Q403.5 42.6 403.5 30.75L403.7 24.95Q402.5 23.5 402.5 22.35Q402.5 15.2 406.5 14.25Q412 20.05 434.8 30Q465.15 43.2 468.5 45Q480.6 51.45 488.55 61.75Q494.1 68.9 499 80.25M505.25,118.55Q498.85 97.3 491.75 84.5Q485.55 73.35 470.05 62.45Q458.9 54.55 440.25 45.25Q420.8 35.9 413.85 32.1Q410.25 30.15 407.85 28.5Q409.5 45.3 410.45 87.15Q411.5 131.15 411.5 181Q411.5 212.95 410.5 275.9Q409.45 343.6 408.5 356.1Q407 374.45 406.1 400.8Q405.55 416 404.75 446.35Q403.55 484.4 400.85 509.9Q401.85 510.3 403.15 510.85Q411 513.6 418.25 513.6Q438.15 513.6 458.75 498.65Q475.9 486.2 492.25 464.5Q505.45 446.95 515.35 427.3Q523.95 410.3 524.85 403.1L534 346.3Q539.35 312.15 539.35 289.5Q539.35 259.5 532.55 219.3Q525.55 178.25 515.85 152.75Q514.1 148.15 505.25 118.55M400.75,23Q400.75 24.7 400.25 25.95L399 28Q397.85 27.65 396.3 26L393.4 22.7Q389.15 18.25 384 18.25L377.75 18.5Q362.05 27.45 357.6 57Q356.05 67.4 355.75 81.5L355.75 97.4Q357.2 96.4 360.1 95.6Q365.4 94.15 373 93.85L385.9 94.55Q391.75 95.7 391.75 98.1Q391.75 101.65 390.2 103Q387.95 105 381 105L355.75 104.75L355.7 117.35Q355.85 133.95 356.75 147.55Q359.6 190.6 369 190.6Q383.9 190.6 392.5 176.45Q395.3 171.8 397 166.25Q398.25 162.25 398.25 160.75L394.75 157.95Q391.25 155.15 391.25 153.85Q391.05 151.4 391.2 150.5Q391.4 149 393 149Q399.9 149 401.5 155Q402.3 158 401.75 161.25Q401.75 162.45 400.45 167.75Q398.7 175.15 396.05 181.35Q387.65 200.85 374 200.85Q355.6 200.85 352.7 180.25Q351.75 173.65 352.4 164.15L353.25 152.75L352.75 122.4L352.25 102.5Q352.25 67.65 354.7 51.05Q360.25 13.75 378 8Q388 6.85 395.1 13.45Q400.75 18.65 400.75 23M328.55,19.15L328 21L328.1 21.4Q327.9 21.75 326.35 21.75L321.25 19Q316 16.25 314.5 16.25Q290.45 16.25 281.3 34.5Q276.75 43.55 276.75 54.75Q276.75 56.2 278 60.75Q279.7 66.85 282.25 72Q290.1 87.75 302.5 87.75Q317.45 87.75 328.3 79.05L333.35 74.45Q333.7 70.05 334.5 64.75L334.5 64.25L329.05 65.2L324 66Q313.4 66 310.7 64Q309.25 62.9 309.25 58.75L309.3 54.05Q309.45 53.15 310.25 53.5Q315.6 55.75 319.5 55.75Q324.2 55.75 330.15 54.4Q336.1 53 338 53Q340.75 53 340.75 58.5L340 66.55L340.25 66.25L341.4 68.5Q341.75 69.7 341.75 71.5Q341.75 72.05 339.15 75.65Q337.75 90.8 337.75 92.6Q337.75 96.25 335.5 97.75Q333.15 91.6 333 83.2L331.25 85Q318.65 97.75 307.1 97.75Q285.9 97.75 277.5 76.5Q274.85 69.8 273.8 61.7L273.25 54.75Q273.25 33.45 281.9 20.75Q289.1 10.25 301 7.05Q311.1 4.35 320.1 7.65Q328.75 10.85 328.75 16.5L328.55 19.15M335.75,172.1Q335.75 174.5 334.2 178.6Q332.1 184.1 328.3 188.65Q317.15 201.85 296 201.85L276.5 201.6Q275.75 200.45 275.5 199.55Q275.25 198.6 275.25 196.75Q275.25 194.7 281.3 193.25L281.25 192.5L283.55 156.3Q280.45 155.05 278.8 153Q277.55 151.45 277.3 149.5L277.25 147.75L277.4 144.55L277.5 143.25L278.1 142.85Q278.65 142.4 279.25 142.25L282.3 145.3L284.05 146.55L284.25 139.75Q284.25 137.45 282.75 124.3L281.5 113.55L278.75 113.5Q276.2 113.35 275.5 111.2Q275.25 110.4 275.25 108.1Q275.25 106.35 275.85 104.8Q276.35 103.4 277 103Q303.2 105.15 314.8 115.45Q322.75 122.5 322.75 131.75Q322.75 132.55 321 136.3Q319.05 140.55 316.5 144.25Q327 145.9 331.95 155.05Q335.75 162.05 335.75 172.1M331.2,167.65Q329.8 163.9 327.4 161Q320.35 152.45 308 155L307.05 154.15Q301.4 158 295 158L287.6 157.4L287.15 172.5Q286.6 185.2 285.65 192.35L303.75 189.6Q316.7 187.35 323.35 184Q332.25 179.5 332.25 172.1Q332.25 170.55 331.2 167.65M371,300.8Q371.55 302.15 371.25 303.75Q371.25 306.5 343.55 352.1Q315.3 398.6 311.5 398.6Q304.05 398.6 291.7 373.3Q285.2 360 274.5 332.6L274.25 332.1Q270.8 343.35 265.05 368.25Q259.05 390.65 250 404.6Q247.75 402.05 247.75 397.35Q247.75 396.5 254.8 379.3Q262.2 361.1 263.5 354.85Q268.7 329.3 273 312.85Q278.55 324.55 288.4 349.2Q298.25 371.25 311 386.35Q322.15 371 341.55 342Q361.75 311.85 361.75 310.25Q361.75 309 360.75 307.05Q359.75 305.1 359.75 303.85Q359.75 300.3 360.55 299.4Q361.65 298.1 366 298.1Q370 298.1 371 300.8M259.25,49.25L260.4 51.5Q260.75 52.7 260.75 54.5Q260.75 60.45 257.8 74.8Q254.75 89.75 254.5 96.5L253.95 96.95L253 97.75Q252.2 96.5 251.65 91.95L251.25 87.1Q251.25 83.15 251.85 78.55L249.9 80.5Q243.5 86.35 229.75 91.75L219.5 91.75Q204.1 75.85 199.3 65.4Q195.25 56.5 195.25 41.85Q195.25 30.85 197.9 22.5Q201.9 9.95 211 8L218.25 8.25L223.7 9.25L233.25 10.25L234.4 12.3Q234.75 13.35 234.75 15.1Q234.75 18.25 233 20L226 19.25L222.2 18.95L218 18.25Q206.75 15.5 201.65 27.75Q198.75 34.8 198.75 41.85Q198.75 50.75 204.75 62.2Q210.85 73.9 220 81.75Q240.4 79.05 247.55 72.85Q249.95 70.75 251.35 67.8L253.25 63.5L254.15 63.3L254.5 59.75L254.75 59.25L227.5 60.75Q226.75 59.6 226.5 58.7Q226.25 57.7 226.25 55.85Q226.25 52.5 228.5 50.25L248.65 49.4Q254.45 49.1 259.25 49.25M223.75,146.5Q225.65 172.6 227.75 184.35Q231.45 175.2 243.6 147.05Q254.2 122.4 259 110Q261.7 127.65 265.85 158.45Q270.75 194.8 270.75 199.85L270.5 204.35L269.95 204.8L269 205.6Q264.8 198.6 263.25 187.6L261.5 168.35L259.5 150.1Q258.3 138.65 258 131.75L257.5 130.5Q253.65 144.25 243.4 165.55Q228.4 196.5 227 199.85L224.75 199.6Q222.85 159.25 218 121Q213.55 134.05 206.15 160.85Q198.8 184.55 189 199.85L186.75 199.6Q186.25 196.6 186.25 194.35Q186.25 193.9 193.65 176.3Q201.5 157.5 203.25 150.75Q210.45 122.25 219.25 108.25Q221.85 121.5 223.75 146.5M287.5,122.75L287.75 139.6L287.75 147.75L288.5 147.75Q300.35 147.75 310.55 140.05Q313.85 137.5 316.45 134.55Q318.5 132.25 318.5 131.75Q318.5 126.8 305.1 120.25Q295.2 115.35 286.15 114Q287.1 117.9 287.5 122.75M140.6,16.95L141.5 15.25Q145.75 20.1 147 29.15Q147.75 34.35 148.5 45.25L151.05 61.05L153.75 76.75Q155.7 87.35 158.65 108.55Q161.75 130.6 163.5 140.5L185.25 267.85Q188.7 288.15 211.85 414Q230.5 515.45 230.5 521.75Q230.5 526 228.5 529.6Q225.1 526.7 221.05 513.45Q217.5 501.95 217.5 498.85Q217.5 497.6 218.5 494.75Q219.5 491.85 219.5 490.6Q219.5 485.7 207 416.6L185.65 299.6Q185 300.6 184 300.6Q183.4 300.6 183 300.1Q182.55 299.5 180.65 299.15Q173.9 297.95 147 298.85L93.95 298.6L75.7 385.35Q60.5 457.6 50 505.6Q46.45 502.3 44.8 496.5Q43.5 492.05 43.5 486.75Q43.5 481.05 44.3 479.25Q44.55 478.7 49.5 471.1L50.45 472.55L51 473.85Q77.05 351.7 89.5 291.55L89.5 291.5Q89.5 287.1 90.75 285.65L99 244.85Q102.1 228.7 111.9 187.55Q120.6 151.2 124 130.25Q125.95 118.3 127.25 101.5L129.3 72.75Q132.05 37.75 139.5 16.25L140.6 16.95M29.5,8.25Q31.45 11.7 31.65 33.55L31.5 62.25L33.5 148.75Q33.5 191.8 33.3 201.3Q32.6 231.4 29.5 253.35L29.5 334.35Q26.7 366.15 22.3 424.7Q17.55 488.6 15.25 515.85Q15.9 516.35 22.5 517L30.85 517.6L42.35 517.1L55 515.85L81 514.85L115.5 514.35L115.85 510.9Q116.25 508.85 118.5 508.1Q122 512.35 126.85 514.95Q129.5 516.4 129.5 519.85Q129.5 523.25 128.2 524.8Q125.1 528.35 115 528.85L80 529.35L66.15 530.4L50 531.85L29 531.85Q13.6 531.45 9.3 527.75Q7.75 526.45 7.5 524.6L7.5 521.85Q7.5 517.65 14.5 441.2Q22.8 350.75 24.5 329.85L24.5 248.85Q28.5 199.25 28.5 149.5L26.5 61.5Q26.5 40.35 26.7 35.7Q27.15 23.8 29.5 8.25M123.75,152Q116.25 191.75 101 265.1L97.15 283.5L104 283.85L135.5 284.1Q172.8 283.2 182.1 286.05L183.25 286.45L179.5 265.95Q148.25 94.05 141.4 42.3Q138 76.8 123.75 152M294.25,238.1Q294.1 244.05 291 249.35Q287.5 255.3 281.2 257.9Q286.95 262.25 294.5 269.95Q305.15 280.8 313.6 292.2Q322.25 303.95 322.25 307.75Q322.25 309.55 321.7 311L320 313.85Q315.25 309.1 306.5 299.2L292.15 283Q275.25 264.55 269 264.6Q267.3 262.7 266.9 259.85L252.35 259.05L251.1 274.9Q248.25 305.25 243.5 309.6Q242.2 307.8 241.4 303.6Q240.75 300.35 240.75 298L244.25 269.9L245.6 257.75Q243.95 257.2 243 256.55Q241.55 255.5 242 254.2L242.75 253Q242.75 249.6 243.3 248.9Q244 247.95 246.45 247.7Q247.6 232.35 247.75 217.4L247 217.6Q244.75 215.75 244.75 211.85Q244.75 207.2 249 203.85Q275.45 202.35 287.2 217.9Q294.25 227.25 294.25 238.1M289.5,237.35Q289.5 235.95 286.85 231.95Q283.5 226.9 278.85 223.15Q267.1 213.6 252.45 216.25L252.8 220.25L253.25 231L252.95 247.55Q273.85 247.15 283.55 242.65Q288.95 240.1 289.5 237.35M541.9,509.75Q541.5 511.85 539.85 511.85Q535.45 511.85 534.15 509.1Q533.6 507.95 533.6 505Q533.6 501.45 534.95 499.85Q536.1 498.4 537.85 498.9Q539.55 499.35 540.75 501.2Q542.1 503.2 542.1 505.75Q542.1 508.85 541.9 509.75" />
</g>
</svg>
