<?xml version="1.0" encoding="utf-8"?>
<svg version="1.1" id="Layer_1"
xmlns="http://www.w3.org/2000/svg"
xmlns:xlink="http://www.w3.org/1999/xlink"


xml:space="preserve">
q-20.15 10.7 -35.3 26.9q-33.95 36.15 -43.4 84.75q-11.3 57.75 -8.65 116.85q2.65 58.65 26.1 112.55q13.95 32.05 47.25 40.8q28.85 7.6 48.55 -11.25q8.1 -7.7 11.95 -16.2q-0.25 23.35 3.25 45.1q4.25 -13.7 3.25 -29.8q-0.55 -9.45 -0.15 -18.6q1.95 -43 -3.1 -84.1q-12.65 -1.35 -24 3.25q15.5 0.9 30.25 4.75q0.7 27.3 -0.25 54.85q-3.2 4.1 -5.6 9.65q-8.65 20 -29 23.85q-47.7 9.05 -67.25 -32.95q-25.85 -55.5 -28.55 -116.65q-0.7 -15.15 -0.45 -29.95q1 -57.65 24.2 -109.9q21.25 -47.75 70.05 -68.9q27 -11.7 40.35 12.05q2.2 -6 -0.1 -12.15q-3.7 -9.8 -13.65 -14.1q-6.4 -1.95 -13.3 -1.65q-11.1 3.3 -21.75 8.95q-2.45 33.45 -4.7 68.75q-3.4 59.35 -3.6 119.15q3.75 -10.25 3.7 -23q-0.3 -59.75 -1.4 -119.2q-1.05 -59.75 4.25 -118.6q2.7 -29.45 6.2 -58.95q1.95 -16.1 -3.75 -29.2q-1.3 28.05 -2.45 56.95q-1.2 29.1 -1.35 58.5q-0.25 59.7 -2.1 119.25q-1.9 59.95 -5.65 119.3q-0.95 15 -3.55 29.65q-3.2 17.7 4.15 29.25q4.05 1.2 8.3 1.8q62.4 8.2 125.4 3.95q0.2 -1.55 -0.05 -3q-0.25 -2 -1.45 -3.75q-50.2 -2.85 -101.75 -2.05q-15.45 0.25 -30.35 -3.9q2 -21.45 3.05 -43.2q2.95 -59.1 4.8 -118.55q1.85 -59.6 2.25 -119.25q0.2 -30.25 2.1 -59.95q1.95 -30.55 -2.8 -59.3q-0.75 0.1 -0.8 0.3<g id="3538" transform="matrix(1, 0, 0, 1, -66.4, 0)">
<path style="fill:#000000;fill-opacity:1" d="M354.95,82Q361.85 81.7 368.25 83.65L370.45 84.25Q380.4 88.55 384.1 98.35Q386.4 104.5 384.2 110.5Q370.85 86.75 343.85 98.45Q295.05 119.6 273.8 167.35Q250.6 219.6 249.6 277.25Q249.35 292.05 250.05 307.2Q252.75 368.35 278.6 423.85Q298.15 465.85 345.85 456.8Q366.2 452.95 374.85 432.95Q377.25 427.4 380.45 423.3Q381.4 395.75 380.7 368.45Q365.95 364.6 350.45 363.7L350.15 363L349.8 362.2L349.5 360.7L349.45 359.95Q360.8 355.35 373.45 356.7L380 357.9L382.95 357.95Q388 399.05 386.05 442.05Q385.65 451.2 386.2 460.65Q387.2 476.75 382.95 490.45Q379.45 468.7 379.7 445.35Q375.85 453.85 367.75 461.55Q348.05 480.4 319.2 472.8Q285.9 464.05 271.95 432Q248.5 378.1 245.85 319.45Q243.2 260.35 254.5 202.6Q263.95 154 297.9 117.85Q313.05 101.65 333.2 90.95Q343.85 85.3 354.95 82M195.7,98.7Q192.2 128.2 189.5 157.65Q184.2 216.5 185.25 276.25Q186.35 335.7 186.65 395.45Q186.7 408.2 182.95 418.45L181.3 417.15L180.7 416.45L181.1 299.5Q181.3 239.7 184.7 180.35L187.25 138.25Q189.5 102.95 191.95 69.5Q197.65 82.6 195.7 98.7M85.5,59.75Q90.25 88.5 88.3 119.05Q86.4 148.75 86.2 179Q85.8 238.65 83.95 298.25Q82.1 357.7 79.15 416.8Q78.1 438.55 76.1 460Q91 464.15 106.45 463.9Q158 463.1 208.2 465.95Q209.4 467.7 209.65 469.7Q209.9 471.15 209.7 472.7L209.5 474.2L209.4 474.95L209.2 475.7L208.95 476.45L208.2 477.95Q145.2 482.2 82.8 474Q78.55 473.4 74.5 472.2L73.75 472.95Q66.4 461.4 69.6 443.7Q72.2 429.05 73.15 414.05Q76.9 354.7 78.8 294.75Q80.65 235.2 80.9 175.5Q81.05 146.1 82.25 117Q83.4 88.1 84.7 60.05Q84.75 59.85 85.5 59.75" />
</g>
</svg>
