<?xml version="1.0" encoding="utf-8"?>
<svg version="1.1" id="Layer_1"
xmlns="http://www.w3.org/2000/svg"
xmlns:xlink="http://www.w3.org/1999/xlink"


xml:space="preserve">
q-2 50.75 -4.5 101.5q-5.1 -1.45 -11 -0.65q-12.55 0.6 -24.2 5.2q3.8 -57.2 3.45 -112.95q-4.1 3.3 -4.4 9.45q-3.45 59.65 -12.85 118.2q-2.65 16.8 3.6 29.95q5.95 -14.65 6.25 -32q-0.65 -3.5 -0.15 -8q5.9 -55.25 9.85 -110.6q17.55 -2.25 35.55 -1.9q-2.95 59.45 -9.9 118.3q-2.05 17.3 4.05 29.4q1.55 -1.1 1.9 -3.05q3.1 -18.65 4.65 -38.05q4.7 -59.05 7.7 -118.55q3 -59.75 1.5 -118.55q-4.25 4.35 -4.55 11.95q-4.55 59.15 -7.95 118.45q-2.8 48.1 -7.35 96.05q-4.3 -26.1 -10.65 -52.05q-7.05 -28.85 -13.35 -57.9q-12.6 -57.85 -33.2 -112.8q-1.65 0.45 -1.85 2.05q-1.8 0.15 -1.95 2.25q-1.7 32.2 -4.45 64.45q-4.95 58.75 -9.55 117.7q-2.3 29.7 -7.3 59q-2.85 16.65 3 30.05q0.9 -0.6 1 -1.35q8.2 -47.1 11.15 -95.1q1.85 -29.65 5.2 -59.1q6.55 -57.4 3.15 -114q13.7 57.6 26.95 115.35q6.6 28.65 10.1 57.8q0.35 3 1.05 5.65q1.1 6.55 3.85 12.15q1.45 2.05 3.3 3.7q0.75 -1 0.65 -2.2q1.05 -8.7 1.55 -17.65q3.25 -59.4 7.25 -118.5q4 -59.85 4.15 -118.45q-2.2 1.6 -2.5 5.25q-16.1 23.85 -24 51.55q-5.8 20.45 -9.85 41.3q-11.3 58.5 -4.95 118.1q4.1 38.55 43.05 40.6q4.1 0.2 7.15 -2.2q29.7 -23.8 37.55 -58.6q-3.85 3.8 -7 3.9q-3.3 5.6 -5.95 11.45q-14.2 31.6 -47.45 23.7q-5.3 -1.25 -8 -5.6q-17.8 -28.15 -13.95 -63.5q3.25 -29.65 5.7 -59.3q4.15 -50.25 32.1 -91.75q4.05 -6 11 -7.2q17.4 -2.9 30.5 11.3q-2.65 -22.9 -26.45 -27.75q-11.35 3.05 -18.25 13.3q0.55 22.4 10.7 44.1q3.8 8.2 8.4 15.8q15.25 25.35 23.4 53.3q-22 49.9 -41.5 100.7q-5.1 13.35 2.7 20.55q16.3 -49.65 38.15 -97.75q24.45 -53.9 43.7 -109.4q5.1 -14.65 3.4 -28.3q-18.25 51.35 -40.9 102.5q-0.95 -3.7 -3 -7.4q-25.5 -45.7 -43.45 -94.95q-1.2 -0.25 -1.2 0.75q-1.35 44.4 -3.25 89.25q-2.55 59.5 -8.8 118.4q-3.25 30.6 2.15 59.3q53.6 5.7 108 1.25q6.4 -8.9 0 -17.75q-2.5 0.9 -4.5 0q-0.3 -3.8 -2.35 -5q-48.6 6.8 -98.5 -0.5q1.85 -55.6 4.8 -111.05q2.4 -44.35 6.85 -88.3q3.05 -30.3 -0.4 -59.35q-0.75 0.1 -1.2 0.55q-3.7 3.3 -3.9 8.7<g id="3536" transform="matrix(1, 0, 0, 1, -90.05, 0)">
<path style="fill:#000000;fill-opacity:1" d="M526.2,131Q527.7 189.8 524.7 249.55Q521.7 309.05 517 368.1Q515.45 387.5 512.35 406.15Q512 408.1 510.45 409.2Q504.35 397.1 506.4 379.8Q513.35 320.95 516.3 261.5L516.45 258.95Q498.45 258.6 480.9 260.85Q476.95 316.2 471.05 371.45Q470.55 375.95 471.2 379.45Q470.9 396.8 464.95 411.45Q458.7 398.3 461.35 381.5Q470.75 322.95 474.2 263.3L480.8 145.45Q481.1 139.3 485.2 136Q485.55 191.75 481.75 248.95Q493.4 244.35 505.95 243.75Q511.85 242.95 516.95 244.4L517.15 244.45Q519.65 193.7 521.65 142.95Q521.95 135.35 526.2 131M368.2,126Q368.05 184.6 364.05 244.45Q360.05 303.55 356.8 362.95Q356.3 371.9 355.25 380.6L356.85 396.75Q356.95 397.95 356.2 398.95Q354.35 397.3 352.9 395.25L352.45 397.45Q349.7 391.85 348.6 385.3Q347.9 382.65 347.55 379.65Q344.05 350.5 337.45 321.85Q324.2 264.1 310.5 206.5L291.5 126.6L291.45 126.4Q294.85 183 288.3 240.4Q284.95 269.85 283.1 299.5Q280.15 347.5 271.95 394.6Q271.85 395.35 270.95 395.95Q265.1 382.55 267.95 365.9Q272.95 336.6 275.25 306.9Q279.85 247.95 284.8 189.2Q287.55 156.95 289.25 124.75Q289.4 122.65 291.2 122.5L291.35 125.05Q291.55 123.45 293.2 123Q313.8 177.95 326.4 235.8Q332.7 264.85 339.75 293.7Q346.1 319.65 350.4 345.75Q354.95 297.8 357.75 249.7Q361.15 190.4 365.7 131.25Q366 127.6 368.2 126M431.95,126.25Q455.75 131.1 458.4 154L458.45 154.5Q445.35 140.3 427.95 143.2Q421 144.4 416.95 150.4Q389 191.9 384.85 242.15Q382.4 271.8 379.15 301.45Q375.3 336.8 393.1 364.95Q395.8 369.3 401.1 370.55Q434.35 378.45 448.55 346.85Q451.2 341 454.5 335.4Q457.65 335.3 461.5 331.5L462.65 330.3Q454.8 365.1 425.1 388.9Q422.05 391.3 417.95 391.1Q379 389.05 374.9 350.5Q368.55 290.9 379.85 232.4Q383.9 211.55 389.7 191.1Q397.6 163.4 413.7 139.55Q420.6 129.3 431.95 126.25M176.45,120.25Q194.4 169.5 219.9 215.2Q221.95 218.9 222.9 222.6Q245.55 171.45 263.8 120.1L264.2 120Q265.9 133.65 260.8 148.3Q241.55 203.8 217.1 257.7Q195.25 305.8 178.95 355.45Q171.15 348.25 176.25 334.9Q195.75 284.1 217.75 234.2Q209.6 206.25 194.35 180.9Q189.75 173.3 185.95 165.1Q175.8 143.4 175.25 121Q175.25 120 176.45 120.25M109.25,113.55Q109.7 113.1 110.45 113Q113.9 142.05 110.85 172.35Q106.4 216.3 104 260.65Q101.05 316.1 99.2 371.7Q149.1 379 197.7 372.2L196.55 367.7L196.45 366.95Q198.5 368.15 198.8 371.95L198.95 372.7Q200.95 373.6 203.45 372.7Q209.85 381.55 203.45 390.45Q149.05 394.9 95.45 389.2Q90.05 360.5 93.3 329.9Q99.55 271 102.1 211.5Q104 166.65 105.35 122.25Q105.55 116.85 109.25 113.55" />
</g>
</svg>
