<?xml version="1.0" encoding="utf-8"?>
<svg version="1.1" id="Layer_1"
xmlns="http://www.w3.org/2000/svg"
xmlns:xlink="http://www.w3.org/1999/xlink"


xml:space="preserve">
q0 -1.55 0.25 -3q10.6 -8.15 25.25 -7q35.9 10.25 52.45 44.75q28.15 58.8 -7.1 111.7q-15.3 23.05 -41.1 34.65q-14.65 6.6 -30.25 3.9q-2.45 -1.6 -2.95 -4.55q-0.3 26.6 -0.2 53.25q0.25 59.95 -0.15 119.2q-0.15 19.85 -6.2 36.5q-6 -13.4 -3.75 -29.95q1.5 -11.05 2.05 -22.25q2.95 -59.3 3.1 -119.25q0.1 -59.65 0.9 -119.25q0.7 -52.75 5.6 -104.2q-0.8 58.9 -2.3 118.5q-0.8 29.85 -1.1 59.85q45.85 -0.15 73.45 -38.95q17.5 -24.65 13.4 -55.1q-5.25 -38.75 -35 -64.15q-21.55 -18.4 -48.35 -8.8q5.05 28.85 3.95 59.3q-2.85 59.35 -1.45 119.3q1.35 57.2 -5.9 112.45q-6.2 -12.55 -4.35 -29.45q3.35 -29.7 3.65 -59.8q0.65 -59.7 2.25 -119.2q1.6 -59.5 0.9 -119.25q-0.15 -12.35 3.05 -23.1q0 -0.15 0.5 -0.15q2.6 5.3 3.1 11.25q-1.25 58.4 -2.9 117q-1.75 59.6 -2 119.2q-0.05 11.9 -1.95 23.05q40.15 -6.6 80.7 -9.3q32.7 -1.8 64.45 4.8q0.45 0.1 0.8 0.45q1.1 2.5 1 5.2q-0.05 2.3 -0.5 4.5q-0.35 1.75 -1.7 2.75q-64.05 -10.75 -129.2 2.55q-9.55 1.95 -18.6 -0.05q-0.65 -1.8 -0.7 -3.75q-3.55 -10.35 -1.3 -23.2q1.2 -7.2 1.5 -14.75q2.15 -59.6 3.6 -119.2q1.45 -59.65 3.35 -119.25q1.85 -59.3 5.4 -118.5q0.05 -0.9 1.05 -0.75q4.75 55.55 18.5 109.7q1.7 6.65 -1.8 12.2q-5.85 -4.4 -7.25 -14.05q-4.05 -28.6 -9.25 -57.2q-2.5 -13.85 -2.8 -27.2q-5.35 43.9 -14.75 87.65q-0.5 2.2 -1.95 3.8q-0.85 -2.15 -1.4 -4.35q0.4 2.95 -1.5 5.2q-5 -7.9 -6.55 -20.6q-3.2 -25.7 -9.1 -51q-6.05 -26 -2.85 -49.9q10.55 53.05 18.6 106.75q-0.35 -7.5 1.8 -16.05q8.7 -34.75 13.65 -70.4q1.4 -9.85 5.3 -17.75q-7.35 24.65 -12.05 49.9q-4.7 25.2 -10.25 49.5q-6.8 -12.75 -1.85 -29q3.9 -12.7 6.2 -25.9q6.65 -38.6 21.1 -73.95q0.05 -0.15 0.55 -0.15q0.95 14.15 -3.7 29.6q3.95 7.35 0.25 13.7q-2.8 -1.2 -3.7 -4q-2 -6.65 -7.3 -11.25q-15.4 -4.95 -26.25 5.5q1.55 26.05 25.65 40.45q3.8 2.25 6.7 6q26.8 35.1 6.65 72.8q-19.75 18.35 -38.15 -3.35q-16.45 -19.45 -12.85 -42.9q5.9 6.15 10.2 17.75q8.7 23.65 31.15 18.45q3.7 -0.9 5.75 -4.55q12.95 -23.55 -6.15 -45.1q-14.4 -16.3 -27.95 -33.5q-3.85 -4.85 -5.55 -10.95q-6.95 -24.55 14.8 -34.3q11.05 -1.9 19.75 3.75<g id="3525" transform="matrix(1, 0, 0, 1, -61.1, 0)">
<path style="fill:#000000;fill-opacity:1" d="M329.15,93.95L328.95 91.75Q328.95 90.2 329.2 88.75Q339.8 80.6 354.45 81.75Q390.35 92 406.9 126.5Q435.05 185.3 399.8 238.2Q384.5 261.25 358.7 272.85Q344.05 279.45 328.45 276.75Q326 275.15 325.5 272.2L325.5 272Q325.2 298.6 325.3 325.25Q325.55 385.2 325.15 444.45Q325 464.3 318.95 480.95Q312.95 467.55 315.2 451Q316.7 439.95 317.25 428.75Q320.2 369.45 320.35 309.5Q320.45 249.85 321.25 190.25Q321.95 137.5 326.85 86.05L327.2 86L328.2 86.75L328.95 87.5Q328.15 146.4 326.65 206Q325.85 235.85 325.55 265.85L325.6 265.5L326.2 263.25Q372.05 263.1 399.65 224.3Q417.15 199.65 413.05 169.2Q407.8 130.45 378.05 105.05Q356.5 86.65 329.7 96.25L329.15 93.95M183.45,85.5Q188.5 114.35 187.4 144.8L184.8 204.7Q181.95 264.05 183.35 324Q184.7 381.2 177.45 436.45Q171.25 423.9 173.1 407Q176.45 377.3 176.75 347.2Q177.4 287.5 179 228Q180.6 168.5 179.9 108.75Q179.75 96.4 182.95 85.65Q182.95 85.5 183.45 85.5M78.25,79Q80.85 84.3 81.35 90.25L80.5 90.25Q79.25 148.65 77.6 207.25L74.2 326.5Q72.45 386.1 72.2 445.7Q72.15 457.6 70.25 468.75Q110.4 462.15 150.95 459.45Q183.65 457.65 215.4 464.25Q215.85 464.35 216.2 464.7L216.65 465.5Q217.75 468 217.65 470.7Q217.6 473 217.15 475.2Q216.8 476.95 215.45 477.95Q151.4 467.2 86.25 480.5Q76.7 482.45 67.65 480.45L67.5 480.95L67.15 480.3L65.75 479.95L65.35 479.2Q64.7 477.4 64.65 475.45L64.65 474.65Q61.1 464.3 63.35 451.45Q64.55 444.25 64.85 436.7Q67 377.1 68.45 317.5Q69.9 257.85 71.8 198.25Q73.65 138.95 77.2 79.75Q77.25 78.85 78.25 79M270.2,201L270.4 203.65L271.2 202.25L270.75 207.35Q275.5 262.9 289.25 317.05Q290.95 323.7 287.45 329.25Q281.6 324.85 280.2 315.2Q276.15 286.6 270.95 258Q268.45 244.15 268.15 230.8Q262.8 274.7 253.4 318.45Q252.9 320.65 251.45 322.25Q250.6 320.1 250.05 317.9L250.2 319.05Q250.6 322 248.7 324.25Q243.7 316.35 242.15 303.65Q238.95 277.95 233.05 252.65Q227 226.65 230.2 202.75Q240.75 255.8 248.8 309.5Q248.45 302 250.6 293.45Q259.3 258.7 264.25 223.05Q265.65 213.2 269.55 205.3L270.2 201M224.75,229.1Q217.4 253.75 212.7 279Q208 304.2 202.45 328.5Q195.65 315.75 200.6 299.5Q204.5 286.8 206.8 273.6Q213.45 235 227.9 199.65Q227.95 199.5 228.45 199.5Q229.4 213.65 224.75 229.1M272.7,336.5L273.7 337.25L279.7 348Q283.65 355.35 279.95 361.7Q277.15 360.5 276.25 357.7Q274.25 351.05 268.95 346.45Q253.55 341.5 242.7 351.95Q244.25 378 268.35 392.4Q272.15 394.65 275.05 398.4Q301.85 433.5 281.7 471.2Q261.95 489.55 243.55 467.85Q227.1 448.4 230.7 424.95Q236.6 431.1 240.9 442.7Q249.6 466.35 272.05 461.15Q275.75 460.25 277.8 456.6Q290.75 433.05 271.65 411.5Q257.25 395.2 243.7 378Q239.85 373.15 238.15 367.05Q231.2 342.5 252.95 332.75Q264 330.85 272.7 336.5" />
</g>
</svg>
