<?xml version="1.0" encoding="utf-8"?>
<svg version="1.1" id="Layer_1"
xmlns="http://www.w3.org/2000/svg"
xmlns:xlink="http://www.w3.org/1999/xlink"


xml:space="preserve">
q-8.7 -18.9 -21.7 -35.4q-13.45 -17.05 -31.8 -28.8q-17.25 -11 -36.85 -16.3q-2.65 7.1 -3.15 14.9q-3.35 55.65 -1.6 111.75q1.65 52.1 -0.45 104.2q-1.2 29.9 -4.7 59.45q-1.35 11.35 -2.1 23q-0.3 5.8 3.65 9.65q17.85 -0.8 35.15 -5.65q23.75 -6.8 44.05 -21.05q15.3 -14.45 24.35 -33.75q9.25 -19.75 14.35 -40.95q4.3 -18 5.2 -36.45q0.95 -18.9 -1 -37.6q-1.95 -18.35 -6.9 -36.05q-5 -17.85 -12.65 -34.65q-34.75 26.45 -78.5 29.65q5.2 -41.95 5.8 -85.15q0.75 -59.55 2.15 -119.25q1.25 -54.55 -1.95 -108.25q47.4 10.55 74.95 50.65q23.55 33.05 32.75 72.9q13.5 58.3 -4.7 115.15q-8.75 27.45 -30.85 44.2q-10.45 48.6 -11.7 99.4q-1.45 59.2 -1.85 118.5q-0.05 11.35 -2.3 22.2q-3.65 17.2 4.75 29.5q4.8 -7.1 1.75 -15.7q1.4 -45.5 1.8 -91.5q0.5 -59.7 7.05 -118.35q2.55 -23.05 1.4 -44.4q-0.8 -0.15 -0.9 0.35q1.45 -30.45 0.25 -59.3q-7.55 18.8 -7.45 42q0.3 59.45 -1.5 119.25q-1.75 59.7 1.45 119.25q0.8 15 -0.85 29.8q-1.05 9.5 1.85 15.6q0.1 2.5 1.3 4.7q29.85 -0.8 59.5 -4.3q26.05 -3.1 53 0.55q3.25 -3.7 2.8 -9q-0.4 -1.9 -1.95 -3.05q-10.95 -1.45 -22.2 -1.4q-31.85 2.9 -62.3 8.4q2.6 -50.35 0.3 -101.35q-2.65 -59.5 -0.7 -119.2q0.6 -18.7 1.55 -37.4<g id="3532" transform="matrix(1, 0, 0, 1, -98.75, 0)">
<path style="fill:#000000;fill-opacity:1" d="M395.15,196.25Q400.1 213.95 402.05 232.3Q404 251 403.05 269.9Q402.15 288.35 397.85 306.35Q392.75 327.55 383.5 347.3Q374.45 366.6 359.15 381.05L354.65 384.25Q334.35 398.5 310.6 405.3Q293.3 410.15 275.45 410.95Q271.5 407.1 271.8 401.3L272.45 389.8Q273.2 378.15 274.55 366.8Q278.05 337.25 279.25 307.35Q281.35 255.25 279.7 203.15Q277.95 147.05 281.3 91.4Q281.8 83.6 284.45 76.5L284.65 79.15L292.15 81.1Q311.75 86.4 329 97.4Q347.35 109.15 360.8 126.2Q373.8 142.7 382.5 161.6Q390.15 178.4 395.15 196.25M388.5,326.3Q406.7 269.45 393.2 211.15Q384 171.3 360.45 138.25Q332.9 98.15 285.5 87.6L285.15 87.5Q288.35 141.2 287.1 195.75Q285.7 255.45 284.95 315Q284.35 358.2 279.15 400.15Q322.9 396.95 357.65 370.5Q379.75 353.75 388.5 326.3M226.45,80Q227.6 101.35 225.05 124.4Q218.5 183.05 218 242.75Q217.6 288.75 216.2 334.25Q219.25 342.85 214.45 349.95Q206.05 337.65 209.7 320.45Q211.95 309.6 212 298.25Q212.4 238.95 213.85 179.75Q215.1 128.95 225.55 80.35Q225.65 79.85 226.45 80M107.65,171.7Q105.7 231.4 108.35 290.9Q110.65 341.9 108.05 392.25Q138.5 386.75 170.35 383.85L177.95 382.95Q189.2 382.9 200.15 384.35L221.45 385.7Q223 386.85 223.4 388.75L224.15 392.5L224.25 393.2Q224.7 398.5 221.45 402.2Q194.5 398.55 168.45 401.65Q138.8 405.15 108.95 405.95L108.2 406.7L107.45 407.2L106.95 407.35L105.45 407.2L104.25 405.6Q103.05 403.4 102.95 400.9Q100.05 394.8 101.1 385.3Q102.75 370.5 101.95 355.5Q98.75 295.95 100.5 236.25Q102.3 176.45 102 117Q101.9 93.8 109.45 75Q110.65 103.85 109.2 134.3Q108.25 153 107.65 171.7" />
</g>
</svg>
