<?xml version="1.0" encoding="utf-8"?>
<svg version="1.1" id="Layer_1"
xmlns="http://www.w3.org/2000/svg"
xmlns:xlink="http://www.w3.org/1999/xlink"


xml:space="preserve">
q-12.4 8.15 -4.9 24.4q10.3 -9.85 6.2 -23.75q-0.5 -1.65 -2 -2.05q-0.6 13 -2.75 26q-4.1 25.3 8.2 45.3q3.4 1.35 7 1q20 -10.9 20.75 -32.25q-10.7 13.95 -26 17.25q-1.9 -1.7 -3.5 -3.75q3.25 -39.35 1.45 -77.25q-4.6 10.8 -5.2 24.45q-0.7 2.3 -0.25 4.5q42.2 -3.8 85.2 -2.5q3.75 -7.2 -0.9 -13.45q-43 -3.55 -83.6 5.45q5.8 -29.1 7.8 -59.35q3.95 -59.45 1.6 -117.8q-3.25 2 -3.45 6.65<g id="3523" transform="matrix(1, 0, 0, 1, -159.4, 0)">
<path style="fill:#000000;fill-opacity:1" d="M347.15,237.5Q351.25 251.4 340.95 261.25L340.25 259.85Q332.75 243.6 345.15 235.45Q346.65 235.85 347.15 237.5M341.2,271.95Q343 309.85 339.75 349.2L339.7 349.95Q341.3 352 343.2 353.7Q358.5 350.4 369.2 336.45Q368.45 357.8 348.45 368.7Q344.85 369.05 341.45 367.7Q329.15 347.7 333.25 322.4Q335.4 309.4 336 296.4Q336.6 282.75 341.2 271.95M172.25,180Q174.6 238.35 170.65 297.8Q168.65 328.05 162.85 357.15Q203.45 348.15 246.45 351.7Q251.1 357.95 247.35 365.15L246.7 365.95Q203.7 364.65 161.5 368.45L160.5 366.7L159.75 366.7L159.85 364.75Q159.4 362.55 160.1 360.25L165.65 248.9L168.8 186.65Q169 182 172.25 180" />
</g>
</svg>
