<?xml version="1.0" encoding="utf-8"?>
<svg version="1.1" id="Layer_1"
xmlns="http://www.w3.org/2000/svg"
xmlns:xlink="http://www.w3.org/1999/xlink"


xml:space="preserve">
q24.05 -3.2 36.6 17.4q11.8 19.3 5.8 41.25q-4.6 16.9 -20.7 23.85q-9.05 85.95 -19.15 172.9q-1.2 10.2 3.65 19.05q8.55 -45.1 11.9 -87.9q7.25 6.65 17.25 5.7q5.35 -0.55 10 -3.1q11.1 44.65 38.1 82.3q-9 -42.05 -32.95 -85.35q18.75 -12.6 23.85 -34.4q3.45 -14.7 -0.95 -29.35q-9.25 -30.9 -39.95 -39.35q-2.2 52.4 -3.65 104.95q-0.8 30.35 -5.75 59.8q-2.25 13.6 3.45 21.7q35.55 3.15 70.3 -0.05q2.85 -7.05 -1.45 -12.75q4.8 -27.4 6.05 -56.15q2.55 -59.75 -1.85 -118.55q-0.5 0.1 -0.55 0.25q-25.25 22.1 -25.2 56.55q0 17.9 5.45 34.9q22.7 5.45 40.3 -10q7.35 -6.55 1.65 -14.75q-15.9 11.4 -35.45 8.3q-10.7 -13.7 -7.4 -31.1q2.05 -2.6 2.2 -5.8q0.2 -3.45 -2.3 -5.7q4.45 -16.25 14.25 -30.05q16.15 -4.8 27.6 7.6q-1.9 -19.45 -21.45 -21.25<g id="3555" transform="matrix(1, 0, 0, 1, -137.05, 0)">
<path style="fill:#000000;fill-opacity:1" d="M340.95,182Q371.65 190.45 380.9 221.35Q385.3 236 381.85 250.7Q376.75 272.5 358 285.1Q381.95 328.4 390.95 370.45Q363.95 332.8 352.85 288.15Q348.2 290.7 342.85 291.25Q332.85 292.2 325.6 285.55Q322.25 328.35 313.7 373.45Q308.85 364.6 310.05 354.4Q320.15 267.45 329.2 181.5L325.85 279.5L327.9 277.05L333.2 280.45L351.2 276.25L351.85 274.7L353.25 275.35Q369.35 268.4 373.95 251.5Q379.95 229.55 368.15 210.25Q355.6 189.65 331.55 192.85L329.6 190.75L329.95 186.25L340.95 182M149.25,181.5Q153.65 240.3 151.1 300.05Q149.85 328.8 145.05 356.2L212.45 352.7Q216.75 358.4 213.9 365.45L213.45 366.2Q178.7 369.4 143.15 366.25L142.75 368.2Q137.05 360.1 139.3 346.5Q144.25 317.05 145.05 286.7Q146.5 234.15 148.7 181.75Q148.75 181.6 149.25 181.5M267.75,269.95Q287.3 271.75 289.2 291.2L288.55 290.6Q277.1 278.2 260.95 283L258.95 283.45Q249.15 297.25 244.7 313.5L277.95 307.45L279.35 308.7Q281.85 310.95 281.65 314.4Q281.5 317.6 279.45 320.2L242.8 322.85Q239.5 340.25 250.2 353.95Q269.75 357.05 285.65 345.65L286.7 343.45L290.45 341.95Q296.15 350.15 288.8 356.7Q271.2 372.15 248.5 366.7L242.2 361.45Q236.75 344.45 236.75 326.55Q236.7 292.1 261.95 270L267.75 269.95" />
</g>
</svg>
