<?xml version="1.0" encoding="utf-8"?>
<svg version="1.1" id="Layer_1"
xmlns="http://www.w3.org/2000/svg"
xmlns:xlink="http://www.w3.org/1999/xlink"


xml:space="preserve">
q-32.3 0.05 -64.5 -1.1q-4.5 0.1 -8.95 -0.15q-0.65 1.45 -0.95 2.95q-0.4 2.3 0.15 4.55q0.15 0.8 0.55 1.45q-0.7 4.9 -0.85 9.95q-1.7 59.05 -2.65 118.5q-1 59.4 -4.9 118.45q-3.95 59.5 -6.2 119.3q-0.55 14.95 -2.45 29.7q-1.8 13.65 4.65 21.75q3.7 -6.45 3.55 -14.25q-1 -59.75 3.85 -118.55q4.85 -59.1 6.85 -118.4q0.95 -29.9 2.25 -59.95q2.3 -53.65 -0.1 -106.45q1.15 -0.9 1.6 -2.2q1.15 -3.35 0.45 -6.8q-0.3 -1.65 -1.2 -3q-0.35 -0.4 -0.75 -0.4q-10.75 56.15 -10.25 113.95q0.1 14.2 0.55 28.5q-17.85 -74.3 -32.3 -149.2q-5 28.3 -4.75 60.25q0.15 16.05 -1.75 31.85q-2.05 17.1 -3.65 34.1q-1.75 18.5 -0.05 36.9q10.8 -74.3 10.6 -149.45q13.75 75.5 33.9 149.45q8.1 -52.9 7.25 -107.25q-0.45 -29.5 0.5 -59q-11.4 21.35 -15.7 46q-1.5 8.4 -1.95 17.1q11.7 -17.05 13.2 -38.9q2.6 22.8 12 41.8q-4.85 -44.45 -15.1 -87.95q-9.2 -20.4 -33.5 -17.85q-23.35 4.7 -37.4 25.1q-22.15 32.25 -31.9 69.8q-5.35 20.4 -8.4 41.1q-8.65 58.4 -9.85 118q-1.25 60.7 17.15 117.6q8.25 25.4 28.95 41.45q8.05 6.25 17.8 8.3q44.35 9.3 63.8 -29.3q7.95 -15.85 2.35 -28.85q-1.75 2.8 -2.6 6.1q-8 30.95 -38.7 36.85q-43.55 8.35 -60.15 -31.2q-23.65 -56.25 -23.45 -117.7q0.05 -25.25 1.7 -50.2q2.8 -1.4 5.7 -1.4q36.9 -0.4 72.5 -9.1q3.6 -6.65 -0.65 -12.65q-13 3.55 -26.45 5.5q-4 0.6 -7.85 0q-23.65 -3.55 -43.05 6.4q5.25 -56.35 23.7 -109.75q12.25 -35.4 40.7 -58.1q16.15 -6.4 33.5 -3.5q5.55 5.2 12.55 7.2q1.6 0.45 1.95 -0.95q-7.05 22.6 -7.95 49.45q-1.9 51.85 -5.55 103.35q-0.9 12.65 1.8 23.35q-0.15 1.55 0.2 3.05q8 4.25 18 3.95q35.05 -1.25 69.4 2.65q1.95 -4.2 1.45 -9q-0.85 -3.5 -4.35 -4q-18.15 -0.9 -35.75 -5q-20.05 0.75 -39.35 3.1q3.1 -20.8 3 -43.4q-0.25 -59.9 3.75 -119.2q4 -58.95 5.85 -118.5q1.85 -59 5 -117.75q1.35 -1.7 2 -3.75q-0.55 -4.1 -2.7 -7.5q-24.5 21.7 0.1 42.9q17.1 14.75 22.65 36.6q-21.8 0.15 -38.6 -10.8q11.3 26.25 39.1 17.4q6 -1.85 6.45 -8.35q1.75 -26.35 -22.05 -42.3q-7.85 -5.3 -10.35 -14.55q11.7 -1.25 20.3 6.45q2.85 2.55 4.7 5.8q-0.1 -19.1 -19.1 -22.35q-11 -0.15 -21.6 4.05q-4.35 28.65 -6.85 59.4q-1 12.05 3.35 19.35q2.95 -20.15 3.7 -40.3q9.7 2.6 19.75 0.3q2.55 -4.85 -0.65 -8.95q-9.8 0.6 -19.3 2.1q0.3 -15.3 -0.7 -30.6<g id="3549" transform="matrix(1, 0, 0, 1, -31.35, 0)">
<path style="fill:#000000;fill-opacity:1" d="M445.2,64Q446.1 65.35 446.4 67L446.5 67.75Q447.2 71.2 446.05 74.55Q445.6 75.85 444.45 76.75L398.1 76.6Q400.5 129.4 398.2 183.05Q396.9 213.1 395.95 243Q393.95 302.3 389.1 361.4Q384.25 420.2 385.25 479.95Q385.4 487.75 381.7 494.2Q375.25 486.1 377.05 472.45Q378.95 457.7 379.5 442.75Q381.75 382.95 385.7 323.45Q389.6 264.4 390.6 205Q391.55 145.55 393.25 86.5Q393.4 81.45 394.1 76.55L338.45 76L337.35 74.4Q336.95 73.75 336.8 72.95L336.65 72.25Q336.1 70 336.5 67.7Q336.8 66.2 337.45 64.75L351 64Q355.45 64.25 359.95 64.15L379.95 62.5Q412.15 63.65 444.45 63.6Q444.85 63.6 445.2 64M324.7,132.25Q325.55 186.6 317.45 239.5Q297.3 165.55 283.55 90.05Q283.75 165.2 272.95 239.5L272.25 232.35Q270.55 213.95 272.3 195.45Q273.9 178.45 275.95 161.35Q277.85 145.55 277.7 129.5Q277.45 97.55 282.45 69.25L283.2 66.5Q297.65 141.4 315.5 215.7Q315.05 201.4 314.95 187.2Q314.45 129.4 325.2 73.25Q324.25 102.75 324.7 132.25M252.8,73.2Q263.05 116.7 267.9 161.15Q258.5 142.15 255.9 119.35L243.65 118.35Q242.15 140.2 230.45 157.25Q230.9 148.55 232.4 140.15L237.5 111Q241.8 86.35 253.2 65L252.8 73.2M231.45,78.75Q231.1 80.15 229.5 79.7Q222.5 77.7 216.95 72.5Q199.6 69.6 183.45 76Q155 98.7 142.75 134.1Q124.3 187.5 119.05 243.85L118.1 255.15Q137.5 245.2 161.15 248.75Q165 249.35 169 248.75Q182.45 246.8 195.45 243.25Q199.7 249.25 196.1 255.9L195.45 256.75Q159.85 265.45 122.95 265.85Q120.05 265.85 117.25 267.25L117.25 267.3Q115.6 292.25 115.55 317.5Q115.35 378.95 139 435.2Q155.6 474.75 199.15 466.4Q229.85 460.5 237.85 429.55Q238.7 426.25 240.45 423.45Q246.05 436.45 238.1 452.3Q218.65 490.9 174.3 481.6Q164.55 479.55 156.5 473.3Q135.8 457.25 127.55 431.85Q109.15 374.95 110.4 314.25Q111.6 254.65 120.25 196.25Q123.3 175.55 128.65 155.15Q138.4 117.6 160.55 85.35Q174.6 64.95 197.95 60.25Q222.25 57.7 231.45 78.1L231.45 78.75M254.95,110.35L252.45 76.65L245.4 111.25L254.95 110.35M57.2,58L57.25 58.75Q56.6 60.8 55.25 62.5Q52.1 121.25 50.25 180.25Q48.4 239.8 44.4 298.75Q40.4 358.05 40.65 417.95Q40.75 440.55 37.65 461.35Q56.95 459 77 458.25L77.5 458.2Q95.1 462.3 113.25 463.2L118.2 463.2L118.6 462.55L119.5 461.75L119.95 461.45Q123.45 461.95 124.3 465.45L124.65 467L124.9 468.45Q125.4 473.25 123.45 477.45Q89.1 473.55 54.05 474.8Q44.05 475.1 36.05 470.85L36 470.95L35.95 470.8L34.5 469.95L34.15 468.5Q33.8 467 33.95 465.45L34.05 464.5Q31.35 453.8 32.25 441.15Q35.9 389.65 37.8 337.8L42.3 219.25L46.55 99.95Q47.45 73.1 54.5 50.5Q56.65 53.9 57.2 58M292.6,241.9Q311.6 245.15 311.7 264.25Q309.85 261 307 258.45Q298.4 250.75 286.7 252L280.7 260.25L282.95 269.45Q285.45 278.7 293.3 284Q317.1 299.95 315.35 326.3Q314.9 332.8 308.9 334.65Q281.1 343.5 269.8 317.25Q286.6 328.2 308.4 328.05L312.7 321Q307.15 299.15 290.05 284.4Q265.45 263.2 289.95 241.5L292.6 241.9M303.95,416.45L280.15 420.55L279.5 412.4L281.55 411.85Q292.15 407.65 303.15 407.8L303.95 416.45M278.9,443.3Q288.4 441.8 298.2 441.2Q301.4 445.3 298.85 450.15L298.45 450.7Q288.4 453 278.7 450.4Q277.95 470.55 275 490.7L274.7 491.45Q270.35 484.15 271.35 472.1Q273.85 441.35 278.2 412.7Q279.2 428 278.9 443.3" />
</g>
</svg>
