<?xml version="1.0" encoding="utf-8"?>
<svg version="1.1" id="Layer_1"
xmlns="http://www.w3.org/2000/svg"
xmlns:xlink="http://www.w3.org/1999/xlink"


xml:space="preserve">
q9.95 58.2 23.55 115.8q5.15 21.75 7.1 43.85q5.25 59.65 22.85 115.05q2.25 -5.55 1.7 -11.25q9.25 -33.9 17.3 -68.95q13.2 -57.4 25.45 -114.9q6.1 -28.65 12.9 -57.15q3.8 -15.95 3 -29.1q-4.6 13.4 -7.15 27.65q-7.4 41.4 -17.1 82.3q-13.65 57.8 -27.8 115.7q-3.55 14.65 -8.35 28.75q-3.75 -9.55 -5 -20.15q-4.85 -40.95 -12.05 -81.55q-4.6 -25.75 -9.7 -51.5q-11.55 -58.05 -25.2 -115.2q-2.25 0.65 -1.9 3.25q0.9 7.25 2.15 14.5q-12.85 -14.15 -32.25 -15.8q-34.5 2.2 -55.6 29.65q-22.75 29.55 -28.85 66.7q-9.6 58.45 -8.65 118.6q0.45 30.1 11.45 58q7.95 20.25 28.65 27.6q22.05 7.8 44.85 1q15.15 -4.55 29 -12.05q25.35 -13.8 20.65 -39.55q-5.75 16.15 -21.1 26.25q-10.65 7 -22.75 11.5q-30.5 11.4 -58.45 -2.35q-8.15 -4 -12.1 -11.8q-20 -39.7 -17.8 -85.65q0.8 -17.4 2.75 -34.55q47.35 -6.7 95.95 -9.35q1.5 1.05 3.15 1.6q0.85 -3.05 -0.4 -6q-8.6 -6.15 -20.2 -2.8q-30.3 3.85 -59.15 10.45q4.65 -36.95 14.6 -72.9q6.5 -23.6 24.25 -40.3q37.05 -34.9 82.5 -12.8q-0.6 -0.25 -1 -0.7q-1.15 59.35 -4 118.5q-2.85 59.55 -10.4 118.3q-2.1 16.4 3.3 29.4q51 1.5 102.2 -3.85q1.7 -5 -1.25 -9q-5.1 -1.75 -9.5 -0.55q-4.9 1.3 -9.75 1.2q-41.95 -0.8 -81.3 5.65q2.7 -30.05 4.65 -60.4q3.75 -59.2 7.65 -118.3q3.9 -59.55 1.3 -118.55q-3.15 20.45 -3.65 43.5<g id="3545" transform="matrix(1, 0, 0, 1, -61.1, 0)">
<path style="fill:#000000;fill-opacity:1" d="M329.3,130Q328.95 127.4 331.2 126.75Q344.85 183.9 356.4 241.95Q361.5 267.7 366.1 293.45Q373.3 334.05 378.15 375Q379.4 385.6 383.15 395.15L383.55 393.9Q388.35 379.8 391.9 365.15Q406.05 307.25 419.7 249.45Q429.4 208.55 436.8 167.15Q439.35 152.9 443.95 139.5L445.6 137.55L445.95 137.25Q446.75 150.4 442.95 166.35Q436.15 194.85 430.05 223.5Q417.8 281 404.6 338.4Q396.55 373.45 387.3 407.35Q387.85 413.05 385.6 418.6L384.95 419.2Q367.35 363.8 362.1 304.15Q360.15 282.05 355 260.3Q341.4 202.7 331.45 144.5Q330.2 137.25 329.3 130M298.2,145.5L298.4 146.25L298.85 147.7L299.1 148.5L299.2 149.25Q253.75 127.15 216.7 162.05Q198.95 178.75 192.45 202.35Q182.5 238.3 177.85 275.25Q206.7 268.65 237 264.8L255.95 262Q267.55 258.65 276.15 264.8L276.95 265.5L277.25 266.2Q278.5 269.15 277.65 272.2L276.95 274.5L276.1 274.6Q274.45 274.05 272.95 273Q224.35 275.65 177 282.35Q175.05 299.5 174.25 316.9Q172.05 362.85 192.05 402.55Q196 410.35 204.15 414.35Q232.1 428.1 262.6 416.7Q274.7 412.2 285.35 405.2Q300.7 395.1 306.45 378.95Q311.15 404.7 285.8 418.5Q271.95 426 256.8 430.55Q234 437.35 211.95 429.55Q191.25 422.2 183.3 401.95Q172.3 374.05 171.85 343.95Q170.9 283.8 180.5 225.35Q186.6 188.2 209.35 158.65Q230.45 131.2 264.95 129Q284.35 130.65 297.2 144.8Q297.6 145.25 298.2 145.5M81.25,112Q83.85 171 79.95 230.55Q76.05 289.65 72.3 348.85Q70.35 379.2 67.65 409.25Q107 402.8 148.95 403.6Q153.8 403.7 158.7 402.4Q163.1 401.2 168.2 402.95Q171.15 406.95 169.45 411.95L169.2 412.7Q118 418.05 67 416.55L66.5 421.7Q61.1 408.7 63.2 392.3Q70.75 333.55 73.6 274Q76.45 214.85 77.6 155.5Q78.1 132.45 81.25 112" />
</g>
</svg>
