<?xml version="1.0" encoding="utf-8"?>
<svg version="1.1" id="Layer_1"
xmlns="http://www.w3.org/2000/svg"
xmlns:xlink="http://www.w3.org/1999/xlink"


xml:space="preserve">
q-4.8 -1.4 -8 1.45q-5.15 55.45 -4.75 113.2q0.45 59.65 -0.95 119.25q-1.35 59.8 -6.75 119.1q-1.55 16.9 3.95 29.35q2.9 -6.3 4.3 -13.1q0.1 1.5 0.95 3.1q7.9 15.15 28 9q28.25 -14.1 46.8 -39.75q35.25 -48.75 45.35 -108.05q10 -58.75 1.1 -117.65q-4 -26.5 -15.8 -50.25q-28.1 -56.5 -93.2 -62.5q52.95 6.75 78.5 51.5q17.05 29.85 20.7 64.7q6.3 59.9 -9.05 117.75q-15.7 59.4 -58.2 103.1q-22.6 23.2 -51.25 11.5q-0.75 0.9 -1.15 1.85q1.9 -59.1 3.4 -118.55q1.5 -59.65 1.4 -119.25q-0.05 -30 1.65 -59.9q1.4 -24.2 -1.25 -47.2q29.65 -23.6 58.65 -1.1q-11.3 -21.25 -36.85 -20.05q-30.55 9.45 -44.45 38.75q-20.45 43.1 -28.3 90.2q-9.8 58.75 -7 118.05q2.15 45.45 19.7 86.9q11.95 28.15 34.25 47.6q7.8 6.8 17.8 2.9q24.5 -9.55 44.2 -27.45q16.7 -15.2 6.8 -30.5q-16.4 29.65 -49.6 43.15q-6.15 2.5 -12.05 -0.2q-17.7 -7.95 -27.8 -25.15q-14.75 -25.2 -20.8 -53.25q-10.75 -49.95 -7.6 -100.55q43.6 -5.5 88.35 -4.95q4.15 -7.9 -1.85 -14.15q-44.4 -0.25 -86.35 9.9q6.2 -57.45 25.15 -111.65q7.75 -22.25 26.1 -36.9q-2.7 58.95 -3.9 118.55q-1.25 59.4 -3 119.25q-1.55 54.95 -5 108.9q-1 2.5 -0.85 5.2q0.3 1.15 0.9 2.15q50.55 -7.4 101 -1.05q1.4 -2.75 1.15 -5.9q-0.35 -0.35 -0.8 -0.4q-27.85 -4.1 -56.45 -4.35q-13.75 2 -28 2.55q-7.25 0.25 -13.95 2.25q0.95 -8 1.3 -16.2q2.4 -59.65 3.9 -119.15q1.5 -59.55 4.2 -119.2q1.35 -30.2 -0.85 -59.3q-4.15 8.15 -4.7 19.7q3.3 29.15 7.65 58.2q6.65 -19.5 12.05 -39.55q6.6 -11.45 3.75 -23.2q-10.05 22.85 -18.25 48.15q-8.3 25.95 -20.5 50.7q-7.65 15.55 -3 27.9q12.65 -27.15 22.75 -55.4q13.8 5.25 29 1.4q2.8 18 6.05 35.95q-2.4 10.45 4.65 15.25q1.45 -2.45 1.15 -5.25q-6.05 -58.85 -19.9 -115.5q-1.1 -0.1 -1 0.95q-3.45 38.05 -2.95 76.45q0.15 13.05 -2.05 25.65q-13.65 -53.45 -26.25 -106.85q-1.25 2.1 -1.95 4.5q-2.25 46.6 -8.25 94.6q-2.05 16.55 2.75 29.35q3.55 -23.35 5.1 -47.25q1.5 -23.6 4.05 -47.05q6.45 29.7 15.7 55.95q1 1.95 2.4 3.65q2.25 -3.35 2.35 -7.5q1.55 -60.1 1.15 -118.45q-1.7 0.3 -2.5 1.75<g id="3550" transform="matrix(1, 0, 0, 1, -61.3, 0)">
<path style="fill:#000000;fill-opacity:1" d="M353.95,85.25Q419.05 91.25 447.15 147.75Q458.95 171.5 462.95 198Q471.85 256.9 461.85 315.65Q451.75 374.95 416.5 423.7Q397.95 449.35 369.7 463.45Q349.6 469.6 341.7 454.45Q340.85 452.85 340.75 451.35Q339.35 458.15 336.45 464.45Q330.95 452 332.5 435.1Q337.9 375.8 339.25 316Q340.65 256.4 340.2 196.75Q339.8 139 344.95 83.55L345.45 83.5L345.95 86.8Q349.15 83.95 353.95 85.35L353.95 85.25M347.15,95.65Q349.8 118.65 348.4 142.85Q346.7 172.75 346.75 202.75Q346.85 262.35 345.35 322Q343.85 381.45 341.95 440.55L341.3 448.05Q341.7 447.1 342.45 446.2Q371.1 457.9 393.7 434.7Q436.2 391 451.9 331.6Q467.25 273.75 460.95 213.85Q457.3 179 440.25 149.15Q414.7 104.4 361.75 97.65L347.15 95.65M171.7,141Q152.75 195.2 146.55 252.65L145.85 259.9Q187.8 249.75 232.2 250Q238.2 256.25 234.05 264.15L233.45 264.75Q188.7 264.2 145.1 269.7Q141.95 320.3 152.7 370.25Q158.75 398.3 173.5 423.5Q183.6 440.7 201.3 448.65Q207.2 451.35 213.35 448.85Q246.55 435.35 262.95 405.7Q272.85 421 256.15 436.2Q236.45 454.1 211.95 463.65Q201.95 467.55 194.15 460.75Q171.85 441.3 159.9 413.15Q142.35 371.7 140.2 326.25Q137.4 266.95 147.2 208.2Q155.05 161.1 175.5 118Q189.4 88.7 219.95 79.25Q245.5 78.05 256.8 99.3L256.95 100L256.9 100.7L256.55 102.25L256.45 103Q227.45 80.5 197.8 104.1Q179.45 118.75 171.7 141M79.5,71.75Q81.7 100.85 80.35 131.05Q77.65 190.7 76.15 250.25Q74.65 309.75 72.25 369.4L70.3 419.8Q69.95 428 69 436Q75.7 434 82.95 433.75Q97.2 433.2 110.95 431.2Q139.55 431.45 167.4 435.55Q167.85 435.6 168.2 435.95L168.65 436.75L169.35 439L169.65 441.2Q169.9 444.35 168.5 447.1L167.45 448.7Q117 442.35 66.45 449.75L66 450.2L64.85 450L63.5 450.2L62.7 449.35Q62.1 448.35 61.8 447.2L61.55 445.7L61.45 444.2Q61.3 441.5 62.3 439L62.75 438.2L62.9 438.15Q66.35 384.2 67.9 329.25Q69.65 269.4 70.9 210Q72.1 150.4 74.8 91.45Q75.35 79.9 79.5 71.75M277.2,202.75Q291.05 259.4 297.1 318.25Q297.4 321.05 295.95 323.5Q288.9 318.7 291.3 308.25L291.45 308Q288.2 290.05 285.4 272.05L285.2 272.25Q270 276.1 256.2 270.85Q246.1 299.1 233.45 326.25Q228.8 313.9 236.45 298.35Q248.65 273.6 256.95 247.65Q265.15 222.35 275.2 199.5Q278.05 211.25 271.45 222.7L270.95 223.5Q265.55 243.55 258.9 263.05L283.85 261.9Q279.5 232.85 276.2 203.7Q276.1 202.65 277.2 202.75M318.95,338.75L319.2 338.75Q319.6 397.1 318.05 457.2Q317.95 461.35 315.7 464.7Q314.3 463 313.3 461.05L311.45 465.45Q302.2 439.2 295.75 409.5L285.8 364.35L285.6 366.4Q283.05 389.85 281.55 413.45Q280 437.35 276.45 460.7Q271.65 447.9 273.7 431.35Q279.7 383.35 281.95 336.75L283.25 340.25Q283.95 337.85 285.2 335.75Q297.8 389.15 311.45 442.6Q313.65 430 313.5 416.95Q313 378.55 316.45 340.5Q317.25 339.05 318.95 338.75" />
</g>
</svg>
