<?xml version="1.0" encoding="utf-8"?>
<svg version="1.1" id="Layer_1"
xmlns="http://www.w3.org/2000/svg"
xmlns:xlink="http://www.w3.org/1999/xlink"


xml:space="preserve">
q-14.9 29.85 -31.65 59.1q-3.8 6.55 -8.4 12.2q-5.1 6.25 -7.55 12.75q1.7 -58.75 5.3 -116.8q3.75 -60 5.25 -118.45q-6.3 39.2 -8.75 81.15q-3.45 59.45 -5.1 119.3q-1.65 59.35 -4.25 118.5q-1.25 29.6 -3.45 59.1q-1.05 14.15 5.65 21.6q2.5 -24.2 6.25 -48.75q-0.5 0.15 -0.55 0.4q-0.35 -4.1 -0.2 -8q4.9 -6.3 9.2 -13.95q17.7 -31.9 35.85 -63.4q14.2 41.6 23.7 84.6q3.65 16.6 12.9 27.1q1.05 -0.85 1.05 -2.25q-0.2 -17 -1.8 -34.5q-0.3 2.95 -0.3 5.95q-7.25 -31.25 -13.4 -62.65q-10.7 -54.7 -31.7 -106q30.2 -51.4 54.85 -105.3q2.45 -5.4 5.95 -10q8.6 -11.3 3.25 -20.15q-2.95 1.3 -4.35 4.2q5.65 3.95 9.6 9.6q1.4 -6.95 -1.85 -14q-3.55 -7.6 -10.3 -12.6q-4 -3 -8.75 -4.45q-9.75 -2.85 -19.85 -1.95q-19.55 3.4 -35.4 15.45q-15.65 11.8 -28.25 26.8q-11.95 14.3 -20.9 30.85q-9.75 18.1 -16.25 37.55q-6.55 19.4 -9.5 39.7q-2.75 3.45 -2.25 8.1q1.45 13.6 1.75 28.5q0.35 17.7 3.15 35.05q3.35 20.9 9.35 41.3q5.3 18 16.3 33.45q18.05 25.2 47.75 33.25q13.85 3.75 28.15 2.75q13.9 -1 26.85 -5.45q10.85 -3.7 20.3 -10.05q12.3 -8.4 20.1 -21q5.7 -9.15 6.3 -19.95q0.5 -8.45 -2.7 -15.75q-4.2 8.8 -9.15 17.45q-3.9 6.85 -9.15 12.75q-4.25 4.7 -9.95 8.15q-10.05 6.05 -20.85 9.45q-11.55 3.7 -23.85 4.65q-25.1 2.6 -46.25 -10.35q-10.65 -6.5 -19 -16.2q-10.3 -11.85 -17.25 -25.95q-7.05 -14.35 -10.05 -30q-7.15 -37.5 -3.6 -75.65q50 6.25 100.55 3.3q3.85 -30.8 15 -59.6q5.4 -13.95 12.75 -27.2q6.15 -11.05 13.4 -21.4q6.65 -9.55 15.25 -17.35q8.4 -7.65 18.1 -13.55q21.4 -12.9 45.7 -9.95q7.3 1.05 13.45 5.45q-2.5 0.95 -2.5 4q-0.5 59.6 -2 119.25q-1.5 59.4 -5.7 118.4q-2.15 30.6 2.15 59.3q3.1 -0.45 5.95 -2.1q18.25 -10.6 39.45 -9.2q53.75 3.45 106.3 10.55q1.95 -11.05 0.65 -22.5q-0.35 0.15 -0.35 0.25q-0.05 4.25 -0.9 8.25q-19.45 -0.65 -38.4 -5.8q-57.35 -15.75 -109.55 3.05q2.15 -59.25 3.75 -118.45q1.6 -59.85 2.25 -119.25q0.7 -59.3 0.4 -118.5q-0.2 -3 -1.95 -5.25<g id="3557" transform="matrix(1, 0, 0, 1, -58.2, 0)">
<path style="fill:#000000;fill-opacity:1" d="M463.95,83Q469.3 91.85 460.7 103.15Q457.2 107.75 454.75 113.15Q430.1 167.05 399.9 218.45L381.3 250.35Q402.3 301.65 413 356.35Q419.15 387.75 426.4 419L435.45 456.95L436.5 455.25L437.45 453.7Q437.45 450.7 437.75 447.75L438.2 446.7Q439.8 464.2 440 481.2Q440 482.6 438.95 483.45Q429.7 472.95 426.05 456.35L400.85 342.2Q391.35 299.2 377.15 257.6Q359 289.1 341.3 321Q337 328.65 332.1 334.95L328.75 435.2Q328.6 439.1 328.95 443.2L332.65 431.1Q332.7 430.85 333.2 430.7Q329.45 455.25 326.95 479.45Q320.25 472 321.3 457.85Q323.5 428.35 324.75 398.75Q327.35 339.6 329 280.25Q330.65 220.4 334.1 160.95Q336.55 119 342.85 79.8L343.2 79.75Q341.7 138.2 337.95 198.2Q334.35 256.25 332.65 315Q335.1 308.5 340.2 302.25Q344.8 296.6 348.6 290.05L407.75 187.2Q424.5 157.95 439.4 128.1L459.6 87.2Q461 84.3 463.95 83M256.2,89.95Q231.9 87 210.5 99.9Q200.8 105.8 192.4 113.45Q183.8 121.25 177.15 130.8Q169.9 141.15 163.75 152.2Q156.4 165.45 151 179.4Q139.85 208.2 136 239L235.55 240.4L238.65 245.35L235.45 251.75Q184.9 254.7 134.9 248.45Q131.35 286.6 138.5 324.1Q141.5 339.75 148.55 354.1Q155.5 368.2 165.8 380.05Q174.15 389.75 184.8 396.25Q205.95 409.2 231.05 406.6Q243.35 405.65 254.9 401.95Q265.7 398.55 275.75 392.5Q281.45 389.05 285.7 384.35Q290.95 378.45 294.85 371.6Q299.8 362.95 304 354.15L303.9 349.7Q307.1 357 306.6 365.45Q306 376.25 300.3 385.4Q292.5 398 280.2 406.4Q270.75 412.75 259.9 416.45Q246.95 420.9 233.05 421.9Q218.75 422.9 204.9 419.15Q175.2 411.1 157.15 385.9Q146.15 370.45 140.85 352.45Q134.85 332.05 131.5 311.15Q128.7 293.8 128.35 276.1Q128.05 261.2 126.6 247.6Q126.1 242.95 128.85 239.5L130.65 225.85Q133.6 205.55 140.15 186.15Q146.65 166.7 156.4 148.6Q165.35 132.05 177.3 117.75Q189.9 102.75 205.55 90.95Q221.4 78.9 240.95 75.5Q251.05 74.6 260.8 77.45Q265.55 78.9 269.55 81.9Q276.3 86.9 279.85 94.5Q283.1 101.55 281.7 108.5L279.25 105Q275.3 99.35 269.65 95.4Q263.5 91 256.2 89.95M73.2,77.25L73.5 78Q73.8 137.2 73.1 196.5Q72.45 255.9 70.85 315.75Q69.25 374.95 67.1 434.2L66 455.2Q118.2 436.4 175.55 452.15Q194.5 457.3 213.95 457.95Q214.8 453.95 214.85 449.7Q214.85 449.6 215.2 449.45Q216.5 460.9 214.55 471.95L214.2 472.7Q161.65 465.6 107.9 462.15Q86.7 460.75 68.45 471.35Q65.6 473 62.5 473.45Q58.2 444.75 60.35 414.15Q64.55 355.15 66.05 295.75Q67.55 236.1 68.05 176.5L68.75 76Q68.75 72.95 71.25 72Q73 74.25 73.2 77.25" />
</g>
</svg>
