<?xml version="1.0" encoding="utf-8"?>
<svg version="1.1" id="Layer_1"
xmlns="http://www.w3.org/2000/svg"
xmlns:xlink="http://www.w3.org/1999/xlink"


xml:space="preserve">
q-25.5 36.05 3.25 70.25q17.35 20.6 27.95 44.8q14.2 32.35 -5.8 58.05q-7.25 0.5 -14.45 0.1q-36.45 -2.1 -40.55 -36.85q1.05 -9.05 3.45 -17.85q3.65 -13.15 0.55 -24.15q-8.25 22.1 -7.1 46.45q1.95 41.45 43.65 45.25q6.2 0.55 11.1 -2q19.25 -10.25 18.55 -32.65q-1.7 -51.85 -35.65 -92q-25.65 -30.3 3.7 -57.25q21.55 -0.4 29.5 20q2.35 -3.75 1 -9.25q-5.8 -24.25 -30.5 -25q-5.2 3.1 -8.9 8.35q2.5 -47.65 1.75 -94.75q-3.1 14.4 -3.75 30.75q-1.2 29.45 -3.7 58.7q-14.95 -0.8 -29.15 1.25q1.15 -30.45 -1.65 -59.3q-6.25 49 -6.15 101.2q0.05 30.25 -3.7 59.9q-2.1 16.75 2.1 29.35q3.8 -5.25 4.15 -11.95q13.85 2.35 28.4 1.5q-3.7 30.65 -1.7 59.4q0.9 -0.35 1 -0.9q6.9 -36.05 9.55 -74.05q-0.2 26.9 -1.6 53.9q-3.05 59.1 -2.95 118.55q0.55 2.65 3 2q2.95 -7.5 -1.7 -13.5q-32.75 -1.7 -62.6 6.6q2.95 -30.5 4.35 -61.8q2.75 -59.9 0.3 -118.5q-4.15 6.6 -4.2 16.75q3.45 -5.55 0.3 -12q-3.85 -7.8 -11.8 -9.15q-17.3 11.7 -24.9 31.45q-7.75 20 -2.75 40.65q6.25 25.95 29.6 17.15q21.2 -8.1 11.05 -25.75q-5.9 6.8 -14.95 8q-6.75 1.05 -13.05 -1.75q-3.65 -4.85 -4.55 -10.85q-1.05 -7.1 -0.45 -14.2q1.4 -0.9 2.15 -2.45q0.65 -1.45 0.75 -3.15q0.1 -1.75 -0.5 -3.4q-0.6 -1.6 -1.75 -2.85q-10.5 -3.05 -21.15 0.8q-2.35 0.8 -4.55 1.85q6.25 -17.4 21.55 -28.05<g id="3554" transform="matrix(1, 0, 0, 1, -139.65, 0)">
<path style="fill:#000000;fill-opacity:1" d="M332.95,180Q357.65 180.75 363.45 205Q364.8 210.5 362.45 214.25L362.45 213.5L362.4 212L362.2 210.5Q354.25 190.1 332.7 190.5Q303.35 217.45 329 247.75Q362.95 287.9 364.65 339.75Q365.35 362.15 346.1 372.4Q341.2 374.95 335 374.4Q293.3 370.6 291.35 329.15Q290.2 304.8 298.45 282.7Q301.55 293.7 297.9 306.85Q295.5 315.65 294.45 324.7Q298.55 359.45 335 361.55Q342.2 361.95 349.45 361.45Q369.45 335.75 355.25 303.4Q344.65 279.2 327.3 258.6Q298.55 224.4 324.05 188.35Q327.75 183.1 332.95 180M415.3,278.95L414 299.75Q411.35 337.75 404.45 373.8Q404.35 374.35 403.45 374.7Q401.45 345.95 405.15 315.3L408.6 283.3Q394.05 284.15 380.2 281.8L376.6 358.25Q376.25 364.95 372.45 370.2Q368.25 357.6 370.35 340.85Q374.1 311.2 374.05 280.95Q373.95 228.75 380.2 179.75Q383 208.6 381.85 239.05L380.6 271.95Q394.8 269.9 409.75 270.7Q412.25 241.45 413.45 212Q414.1 195.65 417.2 181.25Q417.95 228.35 415.45 276L415.3 278.95M148.5,177.5Q150.95 236.1 148.2 296Q146.8 327.3 143.85 357.8Q173.7 349.5 206.45 351.2Q211.1 357.2 208.15 364.7L207.7 365.45L142.8 368.2L142.75 368.7Q140.3 369.35 139.75 366.7Q139.65 307.25 142.7 248.15Q144.1 221.15 144.3 194.25Q144.35 184.1 148.5 177.5M266.7,284.7L262.2 284.95Q246.9 295.6 240.65 313Q242.85 311.95 245.2 311.15Q255.85 307.3 266.35 310.35Q267.5 311.6 268.1 313.2Q268.7 314.85 268.6 316.6Q268.5 318.3 267.85 319.75Q267.1 321.3 265.7 322.2L238.2 325.15Q237.6 332.25 238.65 339.35Q239.55 345.35 243.2 350.2Q249.5 353 256.25 351.95Q265.3 350.75 271.2 343.95L274.95 336.7Q285.1 354.35 263.9 362.45Q240.55 371.25 234.3 345.3Q229.3 324.65 237.05 304.65Q244.65 284.9 261.95 273.2L264.7 273.55Q272.65 274.9 276.5 282.7Q279.65 289.15 276.2 294.7L269.95 286.6L266.7 284.7" />
</g>
</svg>
