<?xml version="1.0" encoding="utf-8"?>
<svg version="1.1" id="Layer_1"
xmlns="http://www.w3.org/2000/svg"
xmlns:xlink="http://www.w3.org/1999/xlink"


xml:space="preserve">
q8.7 6.35 15.35 10.5q1.6 -8 -3.2 -14.5q-12.45 -16.8 -35.55 -12.5q-24.95 11.15 -32.9 38.35q-16.6 56.7 -9.8 116.55q3.35 29.8 31.7 30.5q24.45 0.65 36.45 -18.35q-1.35 13.45 4.85 25.8q5.65 -14.25 5.8 -30.6q0.15 -12.85 -1.05 -25.65q-11.7 -0.9 -22.1 4.8q-0.25 0.1 -0.35 0.5q-1.95 4.7 -3.1 9.3q-0.5 -4.35 -4.4 -7.55q-1.85 8.4 -8.95 12.65q-21.15 12.75 -43.8 5.85q-5.75 -7.95 -7.25 -17.95q-8 -54.95 9.15 -106.5q9.65 -28.95 39.6 -28.3q5.65 0.15 9.9 3.3q-0.4 45.95 9.3 91.3q-16.1 0.75 -30.25 6.85q5 -27.1 13.7 -53.45q7.4 -22.45 5.85 -43.95q-6.15 11.9 -9.6 26.1q-13.9 57.35 -26.1 114.95q-2.3 10.95 -6.95 21.05q-7.45 16.2 -1.1 29.1q14.45 -41.15 22.5 -84.4q7.7 28.7 13.4 57.75q2.65 13.25 10.6 19.9q0.9 -1.4 0.65 -2.9q-6 -36.35 -15.55 -73.05q1 -4.7 -1 -9q-10.8 -45.65 -17.3 -91.7q-0.6 -0.2 -0.6 0.25q-24.3 37.45 -12.75 80.45q1.7 6.25 8.1 7.5q11.3 -14 6.25 -30.75q-2.3 13.05 -11.55 20q-12.35 -7.25 -8.3 -24.2q2.4 -2.9 1.8 -6.35q-0.45 -2.35 -2.3 -4.15q2.85 -16.15 11.05 -30.5q3.65 -16.75 -11.3 -24.3q-0.4 59.6 -2.4 119.2q-1 30.7 1.7 59.25q0.85 -0.35 0.9 -0.85q0.25 1.25 1 2.25q33.7 6.85 66.95 1.75q0.9 -1.35 1.05 -3q0.15 -1.55 -0.3 -3q-0.3 -1.2 -1.05 -2.25q-0.35 -0.35 -0.7 -0.35q-32.45 1.55 -64.5 -2.4q-1.55 0.55 -2.2 2.45q3.25 -29.75 3.75 -60.2q0.9 -59.95 -1.05 -118.45q-4.25 4.45 -4.3 12.75<g id="3574" transform="matrix(1, 0, 0, 1, -140.8, 0)">
<path style="fill:#000000;fill-opacity:1" d="M394.45,193.7Q364.5 193.05 354.85 222Q337.7 273.55 345.7 328.5Q347.2 338.5 352.95 346.45Q375.6 353.35 396.75 340.6Q403.85 336.35 405.7 327.95Q409.6 331.15 410.1 335.5Q411.25 330.9 413.2 326.2L396.95 325.95L396 317.75Q396.1 317.35 396.35 317.25Q406.75 311.55 418.45 312.45Q419.65 325.25 419.5 338.1Q419.35 354.45 413.7 368.7Q407.5 356.35 408.85 342.9L406.4 347.55Q394.4 366.55 369.95 365.9Q341.6 365.2 338.25 335.4Q331.45 275.55 348.05 218.85Q356 191.65 380.95 180.5Q404.05 176.2 416.5 193Q421.3 199.5 419.7 207.5Q413.05 203.35 404.35 197Q400.1 193.85 394.45 193.7M280.2,179.25Q286.7 225.3 297.5 270.95L298.4 271.2L299.2 271.7Q301.2 276 300.2 280.7L300 281.45L303.3 294.5Q312.85 331.2 318.85 367.55Q319.1 369.05 318.2 370.45Q310.25 363.8 307.6 350.55Q301.9 321.5 294.2 292.8L291.9 283.85L256.95 287.05Q248.9 330.3 234.45 371.45Q228.1 358.55 235.55 342.35Q240.2 332.25 242.5 321.3Q254.7 263.7 268.6 206.35Q272.05 192.15 278.2 180.25Q279.75 201.75 272.35 224.2Q263.65 250.55 258.65 277.65Q272.8 271.55 288.9 270.8Q279.2 225.45 279.6 179.5Q279.6 179.05 280.2 179.25M320.9,178.7Q335.85 186.25 332.2 203L321.95 188.6L318.7 188.75Q310.5 203.1 307.65 219.25L320.45 217.5Q322.3 219.3 322.75 221.65Q323.35 225.1 320.95 228L306.6 230.3Q302.55 247.25 314.9 254.5Q324.15 247.55 326.45 234.5Q331.5 251.25 320.2 265.25L314.3 265.7Q307.9 264.45 306.2 258.2Q294.65 215.2 318.95 177.75L320.9 178.7M148.5,180.75Q150.45 239.25 149.55 299.2Q149.05 329.65 145.8 359.4Q146.45 357.5 148 356.95Q180.05 360.9 212.5 359.35Q212.85 359.35 213.2 359.7Q213.95 360.75 214.25 361.95L214.45 362.7Q214.9 364.15 214.75 365.7L214.7 366.45L214.7 367.2L214.5 368.7Q214.35 370.35 213.45 371.7Q180.2 376.8 146.5 369.95Q145.75 368.95 145.5 367.7L145.3 366.2L145.25 364.15L144.4 371.1Q144.35 371.6 143.5 371.95Q140.8 343.4 141.8 312.7Q143.8 253.1 144.2 193.5Q144.25 185.2 148.5 180.75" />
</g>
</svg>
