<?xml version="1.0" encoding="utf-8"?>
<svg version="1.1" id="Layer_1"
xmlns="http://www.w3.org/2000/svg"
xmlns:xlink="http://www.w3.org/1999/xlink"


xml:space="preserve">
q-10.7 -20.65 -32 -13.6q-19.15 6.2 -31.6 22.35q-12.65 16.4 -20.15 35.55q-7 17.8 -9.25 36.85q-2.45 20.75 -3.25 41.65q-0.85 22.15 12.85 38.9q13.9 17.05 36.4 17.65q23.35 1.45 40.05 -14.55q12.95 -12.5 4 -27.05q-3 13.7 -18.55 19.05q-12 4.1 -24.75 3.25q-10.75 -0.2 -19.75 -6q-6.3 -3.95 -9.55 -10.6q-5.05 -10.2 -6.5 -21.5q-2.1 -16.4 -1.1 -32.95q31.6 3 62.25 -3.1q2.9 -4.35 2 -9.35q-0.55 -2.9 -2.35 -5.25q7.5 -48.4 46.25 -78.75q11.35 -8.8 24.9 -5.15q9.4 2.4 15.9 9.05q-29.2 47.05 -66.6 87.6q-8.8 74.25 -11.4 150.05q-0.2 5.4 -1.4 10.8q-0.7 3.05 -0.55 6.3q0.25 6.15 4.65 10.55q8.5 -29.5 9.1 -64.85q5.4 58.95 30.35 111.05q0.5 1 1.4 1.8q-5.85 -51.25 -25.6 -101.15q9.8 -10.1 7.3 -23.6q-5.95 24 -6.95 50.1q-1 26.3 -4.85 52.3q-2.45 16.45 2.95 30q4.45 -6.1 5.15 -14.65q2.1 -25.15 3.2 -50.1q16.1 -0.25 32.05 -2.8q-1.4 13.05 -3.15 26.1q-3.15 23.95 3.75 44.2q5.5 -6.6 2 -15.5q3.05 -30.6 5.1 -61.45q2.05 -30.45 2.15 -59.25q-5.4 9.15 -6.15 21.7q-8.05 3.45 -18 2.85q-11.2 -0.7 -14.3 4.4q1 -29.55 0.55 -58.75q-23.25 20.3 -27.75 51.65q-2.85 19.6 0.1 39.25q2.7 17.75 11.15 33.55q15.7 9.2 33.4 4.95q14 -3.45 22.35 -14.95q3.85 -5.3 3 -12.25q-17.35 15.3 -39 12.95q-9.2 -1.1 -16 -7.65q-9.3 -29.7 -2.65 -61.25q3.45 -16.3 15.6 -26.8q10.85 -9.45 24.5 -3.55q-8.3 -6.3 -18.85 -6.1q-10.4 22.2 -16.25 46.55q-13.8 57.6 -25.3 115.5q-11.55 58.25 -28.1 115.45q-4.75 16.4 1.7 28.75q6.05 -23 11.75 -46.6q9.55 -39.8 18 -79.85q6.65 50.15 12.5 100.4q3.55 30.1 10.3 57.5q1.75 -0.25 1.75 -2q0.05 -51.5 -8.35 -102.9q-4.45 -27.15 -8.5 -54.4q0.85 -2.2 0.6 -4.65q-0.35 -0.4 -0.75 -0.4q-3.85 -26.4 -7.4 -52.9q-7.85 -58.85 -17.55 -116.95q-4.45 0.25 -8.8 1.15q11.45 -58.1 28.15 -115q0.05 12 1.85 24.35q-4.45 25 -4.25 51.1q0.45 59.75 -1.2 119.25q-1.7 59.65 -2.85 119.2q-0.25 15 -2.1 29.8q-1.7 13.7 5.1 22.2q48.9 -6.8 99.35 0.5q8 1.15 15.05 -1.4q11.8 -4.35 4.55 -15.6q-47.45 -0.6 -96.5 -2.5q-0.4 0.4 -1.5 0.55q-9.3 1.2 -17.95 4.55q-0.4 0.15 -0.75 0.45q2.9 -45.8 3.15 -92.2q0.3 -59.7 2 -119.25q1.7 -60.05 0.6 -118.5q-1.6 0.1 -1.95 1.9q-2.05 16.5 3.55 29.9q4.3 -4.55 4.6 -11.65q2.5 -59.95 -0.35 -118.55q-4.65 23 -4.65 48.75q0.05 26 -3.15 51.55<g id="3575" transform="matrix(1, 0, 0, 1, -70.2, 0)">
<path style="fill:#000000;fill-opacity:1" d="M457.95,88.05Q444.4 84.4 433.05 93.2Q394.3 123.55 386.8 171.95L447.45 166.5Q449.25 168.85 449.8 171.75Q450.7 176.75 447.8 181.1Q417.15 187.2 385.55 184.2Q384.55 200.75 386.65 217.15Q388.1 228.45 393.15 238.65Q396.4 245.3 402.7 249.25Q411.7 255.05 422.45 255.25Q435.2 256.1 447.2 252Q462.75 246.65 465.75 232.95L468.35 232.55L471.95 228Q480.9 242.55 467.95 255.05Q451.25 271.05 427.9 269.6Q405.4 269 391.5 251.95Q377.8 235.2 378.65 213.05Q379.45 192.15 381.9 171.4Q384.15 152.35 391.15 134.55Q398.65 115.4 411.3 99Q423.75 82.85 442.9 76.65Q464.2 69.6 474.9 90.25L473.85 97.1Q467.35 90.45 457.95 88.05M371.05,98.15L333 152L338.1 165.1Q357.85 215 363.7 266.25Q362.8 265.45 362.3 264.45Q337.35 212.35 331.95 153.4L301.85 188.6Q301.25 223.95 292.75 253.45Q288.35 249.05 288.1 242.9Q287.95 239.65 288.65 236.6Q289.85 231.2 290.05 225.8Q292.65 150 301.45 75.75L302.55 170.5L311.35 160.6Q348.75 120.05 377.95 73L378.35 74.55Q380.85 88.05 371.05 98.15M421.2,279Q421.65 308.2 420.65 337.75Q423.75 332.65 434.95 333.35Q444.9 333.95 452.95 330.5L453.7 330.55L456.05 299.7Q456.8 287.15 462.2 278Q462.1 306.8 460.05 337.25Q458 368.1 454.95 398.7Q458.45 407.6 452.95 414.2Q446.05 393.95 449.2 370Q450.95 356.95 452.35 343.9Q436.4 346.45 420.3 346.7Q419.2 371.65 417.1 396.8Q416.4 405.35 411.95 411.45Q406.55 397.9 409 381.45Q412.85 355.45 413.85 329.15Q414.85 303.05 420.8 279.05L421.2 279M354.85,278.9Q365.4 278.7 373.7 285L375.7 292.5L374.15 294.3L372.4 294.15Q358.75 288.25 347.9 297.7Q335.75 308.2 332.3 324.5Q325.65 356.05 334.95 385.75Q341.75 392.3 350.95 393.4Q372.6 395.75 389.95 380.45L394.2 381.2Q395.05 388.15 391.2 393.45Q382.85 404.95 368.85 408.4Q351.15 412.65 335.45 403.45Q327 387.65 324.3 369.9Q321.35 350.25 324.2 330.65Q328.7 299.3 351.95 279L354.85 278.9M224.95,71.55L225.45 71.5Q235.15 129.6 243 188.45Q246.55 214.95 250.4 241.35L250.45 241.35Q250.85 241.35 251.2 241.75L251.5 242.45L252.05 244L252.45 246.25Q252.7 248.7 251.85 250.9Q255.9 278.15 260.35 305.3Q268.75 356.7 268.7 408.2Q268.7 409.95 266.95 410.2Q260.2 382.8 256.65 352.7Q250.8 302.45 244.15 252.3L186.2 253Q177.75 293.05 168.2 332.85Q162.5 356.45 156.45 379.45Q150 367.1 154.75 350.7Q171.3 293.5 182.85 235.25Q194.35 177.35 208.15 119.75Q214 95.4 224.4 73.2L224.8 72.8L224.95 71.55M223.6,94.4L221.55 102.4Q204.85 159.3 193.4 217.4L188.2 243.3Q192.55 242.4 197 242.15L218.95 240L242.6 240.9L241.9 235.65L225.45 118.75Q223.65 106.4 223.6 94.4M84.25,67.75Q85.35 126.2 83.65 186.25Q81.95 245.8 81.65 305.5Q81.4 351.9 78.5 397.7L79.75 396.75Q80.1 396.45 80.5 396.3Q89.15 392.95 98.45 391.75Q99.55 391.6 99.95 391.2Q149 393.1 196.45 393.7L197.45 393.7Q204.7 404.95 192.9 409.3Q185.85 411.85 177.85 410.7Q127.4 403.4 78.5 410.2L77.75 409.45L77.65 410.45L77 411.2Q70.2 402.7 71.9 389Q73.75 374.2 74 359.2Q75.15 299.65 76.85 240Q78.5 180.5 78.05 120.75Q77.85 94.65 82.3 69.65Q82.65 67.85 84.25 67.75M295.55,326.75Q295.55 301 300.2 278Q303.05 336.6 300.55 396.55Q300.25 403.65 295.95 408.2Q290.35 394.8 292.4 378.3Q295.6 352.75 295.55 326.75" />
</g>
</svg>
