<?xml version="1.0" encoding="utf-8"?>
<svg version="1.1" id="Layer_1"
xmlns="http://www.w3.org/2000/svg"
xmlns:xlink="http://www.w3.org/1999/xlink"


xml:space="preserve">
q-1.6 60.1 -6.55 119.4q-4.95 59.1 -8 118.35q-3 59.2 -5.1 118.5q-0.4 11.25 -2 22.2q-2.55 17 4.35 29.5q55.7 4.15 110 1.5q1.05 -1.7 1.4 -3.7q0.85 -5.2 -1.65 -9.8q-51.75 1.7 -103.35 1.55q0.85 -5.2 1.35 -10.55q-2 -18.1 -1.25 -38.55q2.25 -59.35 5.2 -118.45q2.9 -59.45 7.5 -118.45q4.65 -59.5 4.55 -117.75q-1.5 0.45 -2.5 1.75q-0.6 4.55 -0.7 9q-27.85 15.95 -30.45 50.45q-2.1 28.05 -5.2 56.1q-3.9 34.9 17.7 59.4q10.9 2.1 21.5 -1.5q16.55 -7.45 27.4 -21.8q9.45 -12.55 0.35 -20.2q-14.55 31.45 -49.25 29q-10.45 -11.3 -11.1 -27q-0.5 -13.65 -0.65 -27q-0.1 -9.3 0.75 -18.3q0.3 2.65 2 5.05q23.45 2.95 46 -0.75q3.1 -7.15 -1.3 -13.55q-22.95 3.75 -46 3.75q3.5 -29.7 17 -56.4q8.4 -8 19.5 -7.65q5.55 0.15 9.4 3.8q8.75 8.35 16.85 12.85q-3.15 -24.35 -28.95 -29q-2.7 1.15 -5.55 2.75q-6.05 18.65 -10.85 37.95q-14.4 57.7 -30 114.65q-4.45 16.4 1.85 28.95q3.25 -6.6 4.7 -14.05q6.55 -34 14.75 -67.75q5.6 36.2 10.7 72.3q1.45 8.6 6.25 13.25q3.95 -17.65 -1.2 -36.3q-4.85 -17.55 -8.2 -35.4q-5.45 -29.25 -9.05 -59q-3.6 -29.65 -9.05 -58.3q-3.05 1.65 -2.75 5.95q-1.4 -19.8 -22.5 -20q-37.35 6.5 -47.7 42q-11.3 38.6 -8.3 79.4q1.35 18.3 5.95 36.35q6.6 25.65 30.8 33.3q13.7 4.35 26.9 0q23.55 -7.8 20.6 -28.05q-1.1 -0.15 -1.45 0.3q-13.35 17.6 -35.55 16.8q-10.2 -0.4 -18.15 -6.15q-15.9 -11.55 -21.2 -31q-5.65 -20.8 -4.85 -42.2q3.4 -6.25 -0.45 -11.95q-26.6 0.6 -51.8 5.05q3.2 -42.85 42.6 -57.05q17.8 -6.45 30.05 6.7q-14.45 -0.6 -28.2 2.6q4.45 -17.95 9.4 -35.85q5.65 -20.45 8.35 -40.4q1.9 20.95 5.3 41.7q-6.4 30.05 -7.6 61.35q-2.3 59.45 -3.7 119.25q-1.4 59.15 -2 117.75q0.7 1.15 1.85 1.55q0.45 2.35 1.9 4.45q69.6 6.9 139.2 -0.25q3.75 -7.2 -0.9 -13.45q-69.05 5.45 -136.9 1.95q3.05 -26.55 3.3 -53.7q0.6 -59.4 1.9 -119.2q1.3 -59.65 3.3 -119.25q0.95 -29.9 3.65 -59.85q2.7 -30.35 0.8 -59.4q-0.75 0.1 -0.85 0.4q2.25 0.3 1.9 -3.45q-0.75 -8.3 -7.95 -13.5q-25.65 -6.1 -35.8 12.95q-10.85 20.3 -0.05 40.4q10.25 19.1 28.25 31.8q17.5 12.4 21.65 33.05q4.4 22.1 -13.95 36.35q-16.95 13.2 -35.55 1.1q-11.5 -7.4 -22.8 -15.1q-3.45 14.75 9.3 26.55q17.8 16.6 39.35 8.1q23.5 -9.45 29.85 -33.7q7.3 -28.05 -9.45 -51.45q-14 -19.55 -33.75 -33.55q-18 -12.85 -11.1 -34.1q0.95 -2.95 2.05 -5.8q18.1 -7.8 36.15 -0.65q-4.9 8.8 -5.1 21.25q-1 59.6 -3.25 119.15q-0.65 17.4 5.6 29.05q4.05 -24.85 3.95 -51q-0.15 -60.05 -1.2 -118.45<g id="3594" transform="matrix(1, 0, 0, 1, -46.75, 0)">
<path style="fill:#000000;fill-opacity:1" d="M327.45,64Q328.45 62.7 329.95 62.25L330.2 62.25Q330.3 120.5 325.65 180Q321.05 239 318.15 298.45Q315.2 357.55 312.95 416.9Q312.2 437.35 314.2 455.45Q313.7 460.8 312.85 466Q364.45 466.15 416.2 464.45L419.9 465.4L421.2 465.95Q423.7 470.55 422.85 475.75Q422.5 477.75 421.45 479.45Q367.15 482.1 311.45 477.95L310.5 477.2L309.45 480.95Q302.55 468.45 305.1 451.45Q306.7 440.5 307.1 429.25Q309.2 369.95 312.2 310.75Q315.25 251.5 320.2 192.4Q325.15 133.1 326.75 73Q326.85 68.55 327.45 64M383.95,283Q409.75 287.65 412.9 312L412.7 312.75Q404.6 308.25 395.85 299.9Q392 296.25 386.45 296.1Q375.35 295.75 366.95 303.75Q353.45 330.45 349.95 360.15L350.45 358.7Q373.5 358.7 396.45 354.95Q400.85 361.35 397.75 368.5L397.45 369.2Q374.9 372.9 351.45 369.95Q349.75 367.55 349.45 364.9Q348.6 373.9 348.7 383.2Q348.85 396.55 349.35 410.2Q350 425.9 360.45 437.2Q395.15 439.65 409.7 408.2Q418.8 415.85 409.35 428.4Q398.5 442.75 381.95 450.2Q371.35 453.8 360.45 451.7Q338.85 427.2 342.75 392.3Q345.85 364.25 347.95 336.2Q350.55 301.7 378.4 285.75Q381.25 284.15 383.95 283M257.2,65.25Q262.65 93.9 266.25 123.55Q269.85 153.3 275.3 182.55Q278.65 200.4 283.5 217.95Q288.65 236.6 284.7 254.25Q279.9 249.6 278.45 241Q273.35 204.9 267.75 168.7L267.45 169L234.9 170.95Q226.7 204.7 220.15 238.7Q218.7 246.15 215.45 252.75Q209.15 240.2 213.6 223.8Q229.2 166.85 243.6 109.15Q248.4 89.85 254.45 71.2Q254.15 66.9 257.2 65.25M183.45,81Q171.2 67.85 153.4 74.3Q114 88.5 110.8 131.35L109.25 146.4L108.65 151.8Q133.85 147.35 160.45 146.75Q164.3 152.45 160.9 158.7L160.45 159.25L108 161Q107.2 182.4 112.85 203.2Q118.15 222.65 134.05 234.2Q142 239.95 152.2 240.35Q174.4 241.15 187.75 223.55Q188.1 223.1 189.2 223.25Q192.15 243.5 168.6 251.3Q155.4 255.65 141.7 251.3Q117.5 243.65 110.9 218Q106.3 199.95 104.95 181.65Q101.95 140.85 113.25 102.25Q123.6 66.75 160.95 60.25Q182.05 60.45 183.45 80.25L183.45 81M260.75,125Q257.35 104.25 255.45 83.3Q252.75 103.25 247.1 123.7Q242.15 141.6 237.7 159.55Q251.45 156.35 265.9 156.95L260.75 125M65.5,54.25Q67.4 83.3 64.7 113.65Q62 143.6 61.05 173.5Q59.05 233.1 57.75 292.75Q56.45 352.55 55.85 411.95Q55.6 439.1 52.55 465.65Q120.4 469.15 189.45 463.7Q194.1 469.95 190.35 477.15L189.7 477.95Q120.1 485.1 50.5 478.2Q49.05 476.1 48.6 473.75Q47.45 473.35 46.75 472.2Q47.35 413.6 48.75 354.45Q50.15 294.65 52.45 235.2L57.05 116Q58.25 84.7 64.65 54.65Q64.75 54.35 65.5 54.25M243.2,292.5Q242.1 295.35 241.15 298.3Q234.25 319.55 252.25 332.4Q272 346.4 286 365.95Q302.75 389.35 295.45 417.4Q289.1 441.65 265.6 451.1Q244.05 459.6 226.25 443Q213.5 431.2 216.95 416.45Q228.25 424.15 239.75 431.55Q258.35 443.65 275.3 430.45Q293.65 416.2 289.25 394.1Q285.1 373.45 267.6 361.05Q249.6 348.35 239.35 329.25Q228.55 309.15 239.4 288.85Q249.55 269.8 275.2 275.9L277.45 276.25Q284.65 281.45 285.4 289.75Q285.75 293.5 283.5 293.2L279.35 291.85Q261.3 284.7 243.2 292.5M165.65,394.95Q165.75 421.1 161.7 445.95Q155.45 434.3 156.1 416.9Q158.35 357.35 159.35 297.75Q159.55 285.3 164.45 276.5Q165.5 334.9 165.65 394.95" />
</g>
</svg>
