<?xml version="1.0" encoding="utf-8"?>
<svg version="1.1" id="Layer_1"
xmlns="http://www.w3.org/2000/svg"
xmlns:xlink="http://www.w3.org/1999/xlink"


xml:space="preserve">
q-6.1 46.8 -10.25 95.85q-5.05 59.05 -3 118.65q0.25 7.45 -1.45 14.55q-4.15 16.95 1.95 29.65q5.1 -10.4 4.7 -22.45q-1.95 -59.6 3.6 -118.5q4.9 -52.25 4.65 -103.85q5.05 46.85 15.55 93.25q13 57.55 25.4 115.3q6.65 30.95 19.1 57q1.25 -1.05 1.75 -2.35q1.1 1.55 2.5 2.85q4 -13.9 4.45 -29.25q1.65 -59.3 4.5 -118.45q2.9 -59.35 4.55 -118.5q-5.35 33.95 -6.65 69.6q-2.15 59.5 -4.95 118.55q-1.35 28.25 -5.15 55.95q-1.9 -9.4 -4.75 -18.65q-17.35 -56.4 -29.05 -114.15q-11.7 -57.95 -24.8 -114.9q-0.55 -0.05 -0.85 0.2q-0.75 -1.55 -1.7 -3q-9.45 18.95 -13.9 41.95q-7.55 39.3 -16.7 78.35q-2.5 3.7 -0.85 8q-7.3 28.75 -16.3 57.05q-7.15 22.45 -6.85 43.95q8.55 -8.65 12 -24.35q3.8 34.95 8.95 69.6q3.3 22.1 5.15 44.4q1.45 16.65 8.05 28.1q4.15 -14.1 1.15 -29.45q-11.3 -57.9 -16.9 -116.8q0.25 49.35 5.85 98.55q-30.5 32.05 -41.2 74.95q-3 12.05 -4.45 24q-0.9 1.7 -0.9 3.75q0 1.55 0.65 3q-3.3 42.4 13.8 83.3q3.2 7.65 9.25 13.45q30.75 29.55 70.4 8q6.05 -3.3 12.15 -5.95q22 -9.65 11.7 -25.25q-31.95 28.9 -73.9 23.55q-6.2 -0.75 -10.15 -5.35q-33.85 -39.05 -28.75 -90.4q40.6 2.95 81.3 -7.8q1.5 -1.5 2 -3.5q0.9 -3.65 -1.25 -6.75q-2.55 -1.3 -5.45 -0.9q-36.95 8.95 -74.6 10.55q7 -42.9 32.3 -78.4q22.5 -31.5 57.8 -18.9q1.8 2.5 1.75 4.6q0.4 0 0.5 -0.2q3.4 -5.3 0 -11.8q-9.85 -4 -20.6 -3q-13 4.8 -22.95 15.25q-0.8 14.85 -0.6 29.7q0.25 20.65 -5.75 40.1q-3.7 12 -0.8 23.7q3.05 -5.85 0.65 -11.9q6.95 -58.9 9.45 -118.25q0.6 -14.8 1.5 -29.55q0.6 -18.35 -0.25 -36.8q-3.05 1.4 -3.35 4.6<g id="3584" transform="matrix(1, 0, 0, 1, -73, 0)">
<path style="fill:#000000;fill-opacity:1" d="M399.2,139.25Q412.3 196.2 424 254.15Q435.7 311.9 453.05 368.3Q455.9 377.55 457.8 386.95Q461.6 359.25 462.95 331Q465.75 271.95 467.9 212.45Q469.2 176.8 474.55 142.85L475.2 142.75L475.9 144.25L476.2 145Q474.55 204.15 471.65 263.5Q468.8 322.65 467.15 381.95Q466.7 397.3 462.7 411.2Q461.3 409.9 460.2 408.35Q459.7 409.65 458.45 410.7Q446 384.65 439.35 353.7Q426.95 295.95 413.95 238.4Q403.45 192 398.4 145.15Q398.65 196.75 393.75 249Q388.2 307.9 390.15 367.5Q390.55 379.55 385.45 389.95Q379.35 377.25 383.5 360.3Q385.2 353.2 384.95 345.75Q382.9 286.15 387.95 227.1Q392.1 178.05 398.2 131.25L398.35 139.45Q398.65 139.2 399.2 139.25M343.1,140.65L353.7 253.05L353.95 255.9L353.95 255.95Q359.55 314.85 370.85 372.75Q373.85 388.1 369.7 402.2Q363.1 390.75 361.65 374.1Q359.8 351.8 356.5 329.7Q351.35 295.05 347.55 260.1L314.8 261.1L291.7 365.1Q288.25 380.8 279.7 389.45Q279.4 367.95 286.55 345.5Q295.55 317.2 302.85 288.45L309.85 260.25Q308.2 255.95 310.7 252.25L311.85 251.8Q321 212.75 328.55 173.45Q333 150.45 342.45 131.5Q343.4 132.95 344.15 134.5L344.45 135.25L343.1 140.65M346.4,249.45Q340.8 200.25 340.55 150.9L317.25 250.15L332.95 249.25L346.4 249.45M226.95,127.25Q237.7 126.25 247.55 130.25L250.2 131L250.95 131.75L253.5 133.95L254.7 134.75L256.95 139.25Q260.35 145.75 256.95 151.05Q256.85 151.25 256.45 151.25L256.6 150.5Q256.65 148.4 254.85 145.9L253.45 143.75Q218.15 131.15 195.65 162.65Q170.35 198.15 163.35 241.05L163.35 241.3Q201 239.7 237.95 230.75Q240.85 230.35 243.4 231.65L244.2 232.25Q246.35 235.35 245.45 239Q244.95 241 243.45 242.5Q202.75 253.25 162.15 250.3Q157.05 301.65 190.9 340.7Q194.85 345.3 201.05 346.05Q243 351.4 274.95 322.5Q285.25 338.1 263.25 347.75Q257.15 350.4 251.1 353.7Q211.45 375.25 180.7 345.7Q174.65 339.9 171.45 332.25Q154.35 291.35 157.65 248.95L156.7 248.25Q156.05 246.8 156.05 245.25Q156.05 243.2 156.95 241.5L158.35 241.45Q159.8 229.5 162.8 217.45Q173.5 174.55 204 142.5Q213.95 132.05 226.95 127.25M98.45,106.5Q99.3 124.95 98.7 143.3L98.4 150.75L98 158.3L97.5 165.8L95.4 195.5L93.5 225.2Q92.6 239.95 92 254.75Q89.5 314.1 82.55 373L191.2 378.2L191.85 379.8Q194.25 385.85 191.2 391.7L79.55 386.15L75.9 383.45Q73 371.75 76.7 359.75Q82.7 340.3 82.45 319.65Q82.25 304.8 83.05 289.95L84.8 260.35L86.7 230.7L88.65 201.1L90.65 171.4L92.7 141.8L95.1 111.1Q95.4 107.9 98.45 106.5" />
</g>
</svg>
