<?xml version="1.0" encoding="utf-8"?>
<svg version="1.1" id="Layer_1"
xmlns="http://www.w3.org/2000/svg"
xmlns:xlink="http://www.w3.org/1999/xlink"


xml:space="preserve">
q-3.6 45.25 -3.4 91.45q0.1 33.4 -0.65 66.6q-40.85 -1.35 -78.4 9.4q0.2 -27.65 0.65 -55.25q0.95 -60.3 0.15 -118.5q-7.3 45.15 -7.05 93.75q0.2 59.95 -5 119.1q-1.45 16.55 4.35 29.85q2.8 -1.5 3 -5q3.15 -59.1 3.15 -119.2q0.35 1.15 1.1 2.2q-2.7 59.5 -3.5 119.2q-0.25 16.55 5.2 29.75q5.05 -8.15 4.6 -19.25q-2.35 -51.65 -0.55 -103.45q2.1 -4.95 0.2 -9.6q0.55 -60.1 -1.45 -118.5q-0.95 -0.15 -1.05 0.8q23.95 -12.3 43.35 3q1.85 -3.85 0.7 -8.05q-2.35 -8.8 -10.2 -13.7q-4.5 -1.45 -9.35 -1.75q-26.2 -2.45 -35.1 21.45q-18.75 50.7 -20.2 105.8q-0.75 29.95 -2.5 59.95q-3.3 58.45 -0.25 117.1q2.15 40.45 34.55 62.15q10.05 2.4 20 0.25q15.95 -4.7 25.5 -18.5q12.9 -18.7 16.5 -40.5q-0.8 -1.7 -1.3 -3.4q-0.8 -2.7 -3.4 -2q-4.6 11.75 -10.1 23.75q-7.5 16.45 -24.75 21.9q-35.5 11.2 -44.3 -24.4q-10.55 -42.9 -9.15 -88.2q1.8 -59.25 4.8 -118.6q2.2 -44.7 19.35 -84.75q2.55 -5.95 7.8 -8.65q-21.8 -1.8 -42.7 3.5q-7.95 73.65 -11.3 147.65q-0.3 6.6 3.45 12.15q10.95 -65.65 9.65 -132.65q-0.25 -13.6 0 -27.2q1.35 -1.85 1.75 -3.95q0.45 -2.15 -0.2 -4.3q9.55 21.8 18.1 43.75q14.7 37.45 -8.15 68.7q-5.05 1.9 -9.25 -0.4q-2.95 -5.35 -2.2 -11.25q0.75 -5.7 -2.8 -9.75q-6.8 4.9 -6.15 15.05q1.4 23.1 22.65 24.95q3.05 -1.35 4.9 -4q28.55 -40.85 10.15 -90.05q-5.1 -13.65 -12.8 -25.75q-11.4 -17.95 -5.25 -35.45q3.75 0.1 6.85 1.6q6.55 3.1 11.15 6.4q2.7 -5.05 0.85 -10.35q-1.7 -4.9 -4.6 -9.15q-5.7 -4.2 -12.85 -3.1q-10.35 6.45 -10.05 19.5q0.25 11.15 4.6 21.05q-2.3 48.8 -2.3 99q0.05 59.6 -1.25 119.25q-0.65 30 -0.65 60q-0.05 41.55 -23.25 74.4q-15.2 21.45 -34.8 6.05q-2.2 -3.3 -3 -7.05q-10.2 -47.7 -5.35 -97.3q5.85 -59.35 8.85 -119.1q3.05 -59.45 2.45 -119.25q-0.05 -9.85 -4.95 -13.5q-2 22.55 -1.55 45.75q1.15 59.3 -3.95 118.4q-5.15 59.4 -7 119.35q-0.5 14.95 -2.15 29.8q-4.05 35.55 18.15 59.4q5.2 7 14.05 7.9q3.95 0.35 7.15 -1.25q24.1 -12.1 33.9 -37.3q8.75 -22.45 10.45 -46.25q4.2 -58.8 4.35 -118.55q0.15 -59.55 1.9 -119.25q0.9 -30.7 -3.8 -59.25q-1.75 -0.25 -3 1q-0.9 0.95 -1 2.2q-0.2 1.85 0.05 3.8q-7.6 27.05 -8.9 56q-2.55 59.3 -3.25 119.3q-0.65 59.5 -2.35 119.2q-0.8 29.8 -5.65 59q-2.35 14.15 5 21.75q8.05 -48.2 8.65 -98.2q0.7 -56.95 0.65 -113.8q16.1 4.85 31.15 -5.5q20.9 -14.4 26.6 -39.35q8.5 -37.2 2.85 -75.55q-6.15 -42.35 -46.9 -51.8q-2.45 -0.35 -4.75 0.8q-1.3 0.65 -2.25 1.7q-3.25 22.4 -21.65 35.45q-12.55 8.85 -28 10.45q22.5 0.3 34.65 18.6q11.75 17.65 13.15 39q1.4 21.85 -1.75 43.45q17.2 49.9 12.55 102.5q-1.35 15.1 -5.15 29.65q-3.4 13.1 -10.05 24.4q-4.65 7.95 -11.95 13.45q-30.35 -21.45 -24.35 -64.2q2.6 -18.7 2.5 -37.85q-0.1 -26.6 11.55 -49.85q5.5 -11 15.85 -17.6q3.05 -1.9 6.2 -3.7q-18.5 9.05 -26.9 28.1q-10.6 24.05 -13.1 50.7q-2 21.3 -1.9 42.65q-0.2 19.1 10.2 34.85q15.75 23.85 32.85 3.3q17.35 -20.9 22.35 -48.3q3.25 -18 4.45 -36.4q1.2 -18.55 -0.6 -37.15q-2.15 -22.15 -8.85 -43.35q-4.35 -13.65 -11 -26.4<g id="377" transform="matrix(1, 0, 0, 1, -23.65, 0)">
<path style="fill:#000000;fill-opacity:1" d="M517.2,63.5Q519.2 121.9 518.65 182L518.05 225.4Q519.95 230.05 517.85 235L516 301.25Q514.2 353.05 516.55 404.7Q517 415.8 511.95 423.95Q506.5 410.75 506.75 394.2Q507.55 334.5 510.25 275L511.65 237.65L434.45 240.75Q433.7 239.7 433.35 238.55L433.1 296.75Q433.1 356.85 429.95 415.95Q429.75 419.45 426.95 420.95Q421.15 407.65 422.6 391.1Q427.8 331.95 427.6 272L427.15 152.75Q426.9 104.15 434.2 59Q435 117.2 434.05 177.5Q433.6 205.1 433.4 232.75L433.45 232.5L433.7 231.75Q471.25 221 512.1 222.35Q512.85 189.15 512.75 155.75Q512.55 109.55 516.15 64.3Q516.25 63.35 517.2 63.5M346.8,83.4Q329.65 123.45 327.45 168.15Q324.45 227.5 322.65 286.75Q321.25 332.05 331.8 374.95Q340.6 410.55 376.1 399.35Q393.35 393.9 400.85 377.45Q406.35 365.45 410.95 353.7Q413.55 353 414.35 355.7Q414.85 357.4 415.65 359.1L416.2 359.7Q412.6 381.5 399.7 400.2Q390.15 414 374.2 418.7L373.45 419.45L372.45 420.2Q362.5 422.35 352.45 419.95Q320.05 398.25 317.9 357.8Q314.85 299.15 318.15 240.7Q319.9 210.7 320.65 180.75Q322.1 125.65 340.85 74.95Q349.75 51.05 375.95 53.5Q380.8 53.8 385.3 55.25L388.45 56Q396.3 60.9 398.65 69.7Q399.8 73.9 397.95 77.75Q378.55 62.45 354.6 74.75Q349.35 77.45 346.8 83.4M282.4,48.45L283.25 50.5Q283.9 52.65 283.45 54.8Q283.05 56.9 281.7 58.75L259.35 58.65Q259.1 72.25 259.35 85.85Q260.65 152.85 249.7 218.5Q245.95 212.95 246.25 206.35Q249.6 132.35 257.55 58.7L231.7 60L231.95 51.75L236.25 50.55Q257.15 45.25 278.95 47.05L281.85 47.55L282.4 48.45M274.9,76Q274.6 62.95 284.95 56.5Q292.1 55.4 297.8 59.6L299.2 60.5Q302.1 64.75 303.8 69.65Q305.65 74.95 302.95 80Q298.35 76.7 291.8 73.6Q288.7 72.1 284.95 72Q278.8 89.5 290.2 107.45Q297.9 119.55 303 133.2Q321.4 182.4 292.85 223.25Q291 225.9 287.95 227.25Q266.7 225.4 265.3 202.3Q264.65 192.15 271.45 187.25Q275 191.3 274.25 197Q273.5 202.9 276.45 208.25L277.5 208.95L278.7 209.75Q282.9 212.05 287.95 210.15L289.45 209.5Q312.3 178.25 297.6 140.8Q289.05 118.85 279.5 97.05Q275.15 87.15 274.9 76M217.45,52.25Q222.15 80.8 221.25 111.5Q219.5 171.2 219.35 230.75Q219.2 290.5 215 349.3Q213.3 373.1 204.55 395.55Q194.75 420.75 170.65 432.85Q167.45 434.45 163.5 434.1Q154.65 433.2 149.45 426.2Q127.25 402.35 131.3 366.8Q132.95 351.95 133.45 337Q135.3 277.05 140.45 217.65Q145.55 158.55 144.4 99.25Q143.95 76.05 145.95 53.5Q150.85 57.15 150.9 67Q151.5 126.8 148.45 186.25Q145.45 246 139.6 305.35Q134.75 354.95 144.95 402.65Q145.75 406.4 147.95 409.7L152.2 411.95Q171.8 427.35 187 405.9Q210.2 373.05 210.25 331.5Q210.25 301.5 210.9 271.5Q212.2 211.85 212.15 152.25Q212.15 102.05 214.45 53.25Q215.7 52 217.45 52.25M49.25,46.05Q51.55 44.9 54 45.25Q94.75 54.7 100.9 97.05Q106.55 135.4 98.05 172.6Q92.35 197.55 71.45 211.95Q56.4 222.3 40.3 217.45Q40.35 274.3 39.65 331.25Q39.05 381.25 31 429.45Q23.65 421.85 26 407.7Q30.85 378.5 31.65 348.7Q33.35 289 34 229.5Q34.7 169.5 37.25 110.2Q38.55 81.25 46.15 54.2L46.05 53.75Q45.8 51.8 46 49.95Q46.1 48.7 47 47.75Q47.95 46.7 49.25 46.05M96.65,114.4Q95.25 93.05 83.5 75.4Q71.35 57.1 48.85 56.8L40.35 202.45L45.25 203.75Q60.7 202.15 73.25 193.3Q91.65 180.25 94.9 157.85Q98.05 136.25 96.65 114.4M85,242.5Q81.85 244.3 78.8 246.2Q68.45 252.8 62.95 263.8Q51.3 287.05 51.4 313.65Q51.5 332.8 48.9 351.5Q42.9 394.25 73.25 415.7L80.5 414.7Q87.8 409.2 92.45 401.25Q99.1 389.95 102.5 376.85Q106.3 362.3 107.65 347.2Q112.3 294.6 95.1 244.7L93.35 247.8L90.35 244.3L85 242.5M95.45,227.75Q102.1 240.5 106.45 254.15Q113.15 275.35 115.3 297.5Q117.1 316.1 115.9 334.65Q114.7 353.05 111.45 371.05Q106.45 398.45 89.1 419.35Q72 439.9 56.25 416.05Q45.85 400.3 46.05 381.2L46.1 347.95Q46 326.6 48 305.3Q50.5 278.65 61.1 254.6Q69.5 235.55 88 226.5L95.45 227.75" />
</g>
</svg>
