<?xml version="1.0" encoding="utf-8"?>
<svg version="1.1" id="Layer_1"
xmlns="http://www.w3.org/2000/svg"
xmlns:xlink="http://www.w3.org/1999/xlink"


xml:space="preserve">
q-0.8 -0.15 -1.15 0.45q-3.2 5.55 -4.5 12q-11.75 59.2 -21.25 118.9q-9.4 58.85 -14.9 118.4q-5.4 58.2 -8.7 116.9q-3.25 57.15 -6 114.3q-9.5 -51.95 -14.85 -104.7q-1.75 -17.3 -11.4 -28.1q-0.5 0.75 -0.65 1.55q-1.6 8.4 -2.6 17q-6.95 58.3 -9.9 117.2q-2.85 58.1 -14.1 114.7q-2.65 -15 -4.4 -30.7q-6.55 -59.3 -14.3 -118.5q-7.8 -59.4 -22.65 -117.65q-11.3 -44.3 -25.2 -87.5q-13.75 -42.9 -22.6 -86.95q-2.65 -13.05 -8.6 -19.9q1.2 20 6.7 39.75q14.55 52.1 30.2 103.75q17.65 58.4 28.2 118.2q10.25 58.25 16.2 117.1q5.95 58.6 16.7 114.4q0.75 -0.6 0.95 -1.35q3.25 -12.5 5.45 -25.2q10 -57.95 12.95 -117.15q2.85 -57.7 11.4 -114q5.35 42.35 9.75 84.85q6 58.3 13.5 116.3q3.95 30.5 13.5 56.8q4.2 -27.8 5.65 -56.9q2.85 -59.2 9.1 -117.85q5.45 -51.2 15.15 -101.6q11.1 -57.5 21.5 -115.05q-14.45 -15.45 -36.05 -15.85q-21.05 -0.35 -31.85 19q-10.2 18.1 -14.1 38.55q-3.85 20.25 -0.25 40.15q4 22.1 22.45 34.15q18.2 11.75 39.65 9.7q17.5 -1.7 29.4 -13.7q-21.65 10.2 -45.4 8.9q-30.4 -1.85 -39.35 -30.15q-3.25 -10.25 -2.05 -21.1q1.85 -4.05 0.45 -8.2q-0.65 -1.9 -2.2 -3.05q3.55 -25.1 15.75 -47.45q30.2 -19.75 60.1 1q-5.85 2.6 -9.6 8q-1.3 1.85 -3.4 2.75q-14 27.45 -19.1 58.4q-9.65 58.65 -8.2 118.6q1.45 58.8 25.95 112.2q6.85 14.95 16.05 28.7q22.2 33 62.65 20.2q11 -3.5 17.3 -13.4q32.15 -50.15 42.95 -109.2q9.4 -51.3 -3.15 -100.95q-13.05 -51.4 -33.25 -100.9q-4.05 -10 -10.75 -6.65q-31.3 -20.95 -70.1 -20.1q-3.6 0.6 -7.2 2.25q23.2 56.05 19.45 117.45q-1.35 22.85 -11.8 42.9q-19.7 37.75 -63.35 36.65q0.6 -59.45 0.75 -119.25q0.15 -56.45 -2.4 -111.95q15.15 0.6 28.9 8.45q20.25 6.95 28.45 26.8q-1.2 1.05 -1.1 2.7q-0.05 1.55 0.6 3q-1.6 8.15 -1.5 17.5q0.7 59.2 0.85 118.5q0.15 46.65 -0.55 93.05q-2.1 -1.05 -4.25 -0.3q-0.85 1 -1.1 2.25q-0.55 2.55 -0.4 5.25q0.15 2.65 2 4.5q-1.15 60.1 -5.35 119.35q-4.2 59.7 -5.7 119.1q0.6 1.65 2.25 2q4.6 -12.05 4.95 -26.75q1.55 -59.05 5.1 -118.4q3.15 -52.25 4.05 -105.05q9.6 2.65 19.9 -2.5q12.95 -0.55 23.05 -8.4q34.15 -26.55 36.75 -70.6q3.6 -60.15 -13.8 -116.85q-15.65 -51.25 -70 -54.9q-6.55 45.25 -12.7 92.05q-2.15 16.35 1.65 29.95q2.65 -2.05 3.1 -5.7q3.2 -26.5 5.15 -52.95q5.45 2.7 12.25 0.9q3.05 -1.45 5.7 -3.2q9.4 40.1 30.3 74.9q1.6 -1.5 0.9 -3.4q-13.35 -36.35 -29.85 -72.45q10.85 -8.05 14.6 -22.05q8.65 -32.15 -19.15 -43.05q24.85 -2.3 27.3 22.2q2.5 24.65 -20.4 30q16.2 34.15 28.95 70.2q20.3 57.4 8.9 118.35q-5.75 30.45 -16.75 59.8q-6.9 18.4 -17.85 34.6q-23.7 34.9 -66.15 19q-9.2 -5.9 -14.7 -15.15q-30.45 -51.6 -36.65 -110.9q-6.15 -59.3 1.5 -118.4q2.85 -22 7.05 -43.85q5.35 -27.65 29.8 -38.65q39.8 -1.8 72 19.25q2.45 2.7 3.9 5.75q-8.4 58.9 -6.55 118.65q4.75 -21.75 -23.75 -16.5q-17.95 3.3 -36.7 2.2<g id="365" transform="matrix(1, 0, 0, 1, -13.25, 0)">
<path style="fill:#000000;fill-opacity:1" d="M536.4,17.8L536.7 18.5Q526.3 76.05 515.2 133.55Q505.5 183.95 500.05 235.15Q493.8 293.8 490.95 353L485.1 471.55Q483.65 500.65 479.45 528.45Q469.9 502.15 465.95 471.65Q458.45 413.65 452.45 355.35Q448.05 312.85 442.7 270.5Q434.15 326.8 431.3 384.5Q428.35 443.7 418.35 501.65Q416.15 514.35 412.9 526.85Q412.7 527.6 411.95 528.2Q401.2 472.4 395.25 413.8Q389.3 354.95 379.05 296.7Q368.5 236.9 350.85 178.5Q335.2 126.85 320.65 74.75Q315.15 55 313.95 35Q319.9 41.85 322.55 54.9Q331.4 98.95 345.15 141.85Q359.05 185.05 370.35 229.35Q385.2 287.6 393 347Q400.75 406.2 407.3 465.5Q409.05 481.2 411.7 496.2Q422.95 439.6 425.8 381.5Q428.75 322.6 435.7 264.3Q436.7 255.7 438.3 247.3Q438.45 246.5 438.95 245.75Q448.6 256.55 450.35 273.85L462.1 389.5Q467.45 442.25 476.95 494.2Q479.7 437.05 482.95 379.9Q486.25 321.2 491.65 263Q497.15 203.45 506.55 144.6Q516.05 84.9 527.8 25.7Q529.1 19.25 532.3 13.7Q532.65 13.1 533.45 13.25L536.4 17.8M263.35,55.4L263.1 55.5Q233.2 34.75 203 54.5Q190.8 76.85 187.25 101.95L244.45 104.5Q246 105.65 246.65 107.55Q248.05 111.7 246.2 115.75L186.4 110.4Q185.2 121.25 188.45 131.5Q197.4 159.8 227.8 161.65Q251.55 162.95 273.2 152.75L273.2 162.5Q261.3 174.5 243.8 176.2Q222.35 178.25 204.15 166.5Q185.7 154.45 181.7 132.35Q178.1 112.45 181.95 92.2Q185.85 71.75 196.05 53.65Q206.85 34.3 227.9 34.65Q249.5 35.05 263.95 50.5L265.1 53.1L263.35 55.4M221.95,188Q260.75 187.15 292.05 208.1L292.2 208Q298.9 204.65 302.95 214.65Q323.15 264.15 336.2 315.55Q348.75 365.2 339.35 416.5Q328.55 475.55 296.4 525.7Q290.1 535.6 279.1 539.1Q238.65 551.9 216.45 518.9Q207.25 505.15 200.4 490.2Q175.9 436.8 174.45 378Q173 318.05 182.65 259.4Q187.75 228.45 201.75 201Q203.85 200.1 205.15 198.25Q208.9 192.85 214.75 190.25Q218.35 188.6 221.95 188M89.5,41Q75.75 33.15 60.6 32.55Q63.15 88.05 63 144.5Q62.85 204.3 62.25 263.75L62.25 264.8Q105.9 265.9 125.6 228.15Q136.05 208.1 137.4 185.25Q141.15 123.85 117.95 67.8Q109.75 47.95 89.5 41M58,24Q112.35 27.65 128 78.9Q145.4 135.6 141.8 195.75Q139.2 239.8 105.05 266.35Q94.95 274.2 82 274.75Q71.7 279.9 62.1 277.25Q61.2 330.05 58.05 382.3Q54.5 441.65 52.95 500.7Q52.6 515.4 48 527.45Q46.35 527.1 45.75 525.45Q47.25 466.05 51.45 406.35Q55.65 347.1 56.8 287L57.05 275.3L53.5 273.25Q51.65 271.4 51.5 268.75Q51.35 266.05 51.9 263.5Q52.15 262.25 53 261.25Q55.15 260.5 57.25 261.55Q57.95 215.15 57.8 168.5Q57.65 109.2 56.95 50Q56.85 40.65 58.45 32.5L58 32.5L57 32.25Q56.35 30.8 56.4 29.25L56.45 27Q56.35 25.35 57.55 24.3L58 24M116,271Q143.8 281.9 135.15 314.05Q131.4 328.05 120.55 336.1Q137.05 372.2 150.4 408.55Q151.1 410.45 149.5 411.95Q128.6 377.15 119.2 337.05Q116.55 338.8 113.5 340.25Q106.7 342.05 101.25 339.35Q99.3 365.8 96.1 392.3Q95.65 395.95 93 398Q89.2 384.4 91.35 368.05Q97.5 321.25 104.05 276L104.05 274.75L104.25 274L105.6 272.9L107.15 271.85L107.5 271.5L116 271M111.1,329.65Q134 324.3 131.5 299.65Q129.05 275.15 104.2 277.45L101.95 329.9L111.1 329.65M292.95,217.75Q260.75 196.7 220.95 198.5Q196.5 209.5 191.15 237.15Q186.95 259 184.1 281Q176.45 340.1 182.6 399.4Q188.8 458.7 219.25 510.3Q224.75 519.55 233.95 525.45Q276.4 541.35 300.1 506.45Q311.05 490.25 317.95 471.85Q328.95 442.5 334.7 412.05Q346.1 351.1 325.8 293.7Q313.05 257.65 296.85 223.5Q295.4 220.45 292.95 217.75M101.25,413.45L97 519.2L115.8 520.65Q134.55 521.75 152.5 518.45Q181 513.2 176.25 534.95L92.5 533.2Q90.65 473.45 99.05 414.55L101.25 413.45" />
</g>
</svg>
