<?xml version="1.0" encoding="utf-8"?>
<svg version="1.1" id="Layer_1"
xmlns="http://www.w3.org/2000/svg"
xmlns:xlink="http://www.w3.org/1999/xlink"


xml:space="preserve">
q2.9 -3.85 2.2 -8.55q-2.85 8.65 -1.9 27.5q1 19.7 1.35 39.5q0.35 21.2 -0.3 42.5q-0.65 21.65 -3.15 43.1q-2.4 20.9 2.15 38.25q4.7 -22.3 6.3 -45.15q0.75 -19.3 0.4 -38.7q2.15 -2 2.7 -5.1q30.3 4.65 60.85 1.05q-1.65 2.4 -2.1 5.3q-0.9 5.55 3.3 9.15q-8.2 46.75 0.8 92.5q17.05 6.5 31.35 -5.8q3.3 -2.9 6.25 -6q12.85 -15.55 13.6 -35.95q-0.15 -9.75 -3.95 -18.65q-1.8 -4.25 -4.55 -8.1q-2.75 -3.95 -6.35 -7.25q-9.2 -8.5 -20.6 -13.4q-3.5 57.35 -2.85 116.2q0.25 22.75 -3.5 44.8q-2.95 17 4.85 29.45q4.8 -7.25 1.5 -15.75q3.9 -27.7 4.35 -56.25q1 -59.9 -3.85 -118.45q-8.1 21.6 -30.55 27.65q-7.5 2 -14.75 -0.4q21.1 -5.75 37.15 11.25q15.55 16.5 7.8 37.1<g id="532" transform="matrix(1, 0, 0, 1, -130.5, 0)">
<path style="fill:#000000;fill-opacity:1" d="M415.6,193.25Q385.05 196.85 354.75 192.2L360.05 257.75L394.45 260.25L395.4 261.25L396.35 262.85L396.95 264.75L397.2 266.6L397.3 268.5L397.25 269.6L397.15 270.6Q396.6 273.7 394.45 275.7L359.8 270.35Q360.15 289.75 359.4 309.05L358.4 327.2Q356.8 350.05 352.1 372.35Q347.55 355 349.95 334.1Q352.45 312.65 353.1 291Q353.75 269.7 353.4 248.5Q353.05 228.7 352.05 209Q351.1 190.15 353.95 181.5L424.85 178.45L425.1 178.8L425.8 180.25L426.3 181.95L426.65 183.45Q427.35 188.15 424.45 192L415.6 193.25M187.1,191.15Q190.7 194.45 193.45 198.4Q196.2 202.25 198 206.5Q201.8 215.4 201.95 225.15L201.9 230.35Q201.15 250.75 188.3 266.3L184.45 270.65Q181.5 273.75 178.2 276.65Q163.9 288.95 146.85 282.45L139.5 369.45Q130.5 323.7 138.7 276.95Q134.5 273.35 135.4 267.8Q135.85 264.9 137.5 262.5L140.3 264.15L145.1 190.45L144.5 182L156 176.75L166.5 177.75Q177.9 182.65 187.1 191.15M282.45,180Q287.3 238.55 286.3 298.45Q285.85 327 281.95 354.7Q285.25 363.2 280.45 370.45Q272.65 358 275.6 341Q279.35 318.95 279.1 296.2Q278.45 237.35 281.95 180L282.45 180M184.95,202.95Q168.9 185.95 147.8 191.7L147.45 267.3Q154.7 269.7 162.2 267.7Q184.65 261.65 192.75 240.05Q200.5 219.45 184.95 202.95" />
</g>
</svg>
