<?xml version="1.0" encoding="utf-8"?>
<svg version="1.1" id="Layer_1"
xmlns="http://www.w3.org/2000/svg"
xmlns:xlink="http://www.w3.org/1999/xlink"


xml:space="preserve">
q-0.35 2.2 -0.25 4.5q0.05 1.2 0.45 2.35q-1.65 42.4 -0.7 85.85q0.6 30.05 -4.4 59.7q-2.75 16.55 2.6 30.05q9.3 7.15 21.75 6.15q33.25 -2.7 41.5 -34.35q5.45 -21.05 2.45 -42.7q-3.4 -24.55 -23.5 -31.35q6.75 -10.55 7.9 -22.5q4.3 -43.6 -38.1 -55.3q-6.8 0.35 -13.4 2.85q30.25 9.55 28 42.1q-1.15 16.55 -12.4 28.35q-15.25 16 -37.8 11.9q12.1 2.1 23.15 -3.15q-12.45 15.1 -32.3 12.35q1.2 -34.9 -3.5 -69.45q24 -0.25 39.75 17.85q11.7 20.3 -3.95 39.25q-11.2 -3.35 -21.05 -0.35q-3.6 3.75 -1.9 8.6q0.4 1.1 1.25 2q-2.9 50.6 1.2 98.75q5.4 -16.55 4.45 -34.3q-1.6 -30.8 -0.75 -61.5q14.5 5.45 28.95 -1.2q10 -4.55 17 -12.95q4.9 -5.9 6.9 -13.25q1.75 -11.3 -0.25 -22.5q-1.95 -10.65 -8.15 -19.6q-1.9 -2.7 -4.4 -5.15q-9.65 -9.3 -22.4 -13.1q-4.05 48.1 -2.15 97.45q1.15 30.15 -3.45 59.75q-2.6 16.55 2.7 30q8.6 -32.6 7.9 -68.75q-1.15 -59.8 -4.65 -118.45q2.75 -24.8 -0.6 -48.25q15.5 2.05 30.2 8.8q10.3 4.7 15.35 14.75q7.6 15.2 -2.75 28.75q-17 22.1 -44.05 17.05q0.7 -10.55 1.85 -21.1<g id="528" transform="matrix(1, 0, 0, 1, -132.9, 0)">
<path style="fill:#000000;fill-opacity:1" d="M347.75,184.9L347.85 182.5L348.2 182.5L348.55 184.6Q355.15 182.1 361.95 181.75Q404.35 193.45 400.05 237.05Q398.9 249 392.15 259.55L388.45 264.65Q408.55 271.45 411.95 296Q414.95 317.65 409.5 338.7Q401.25 370.35 368 373.05Q355.55 374.05 346.25 366.9L344.95 368.2Q339.6 354.7 342.35 338.15Q347.35 308.5 346.75 278.45Q345.8 235 347.45 192.6Q347.05 191.45 347 190.25Q346.9 187.95 347.25 185.75L347.45 185L347.75 184.9M376.35,274.35Q365.3 279.6 353.2 277.5L349.55 351.4L355.45 353.7L356.95 355.2Q379.5 359.3 394.75 343.3Q406 331.5 407.15 314.95Q409.4 282.4 379.15 272.85L376.35 274.35M389.65,211.05Q373.9 192.95 349.9 193.2Q354.6 227.75 353.4 262.65Q373.25 265.4 385.7 250.3Q401.35 231.35 389.65 211.05M184.6,195.9Q187.1 198.35 189 201.05Q195.2 210 197.15 220.65Q199.15 231.85 197.4 243.15L196.3 248.45Q194.3 255.8 189.4 261.7Q182.4 270.1 172.4 274.65Q157.95 281.3 143.45 275.85Q142.6 306.55 144.2 337.35Q145.15 355.1 139.75 371.65Q135.65 323.5 138.55 272.9L135.85 270.35Q135 269.45 134.6 268.35Q132.9 263.5 136.5 259.75L139.2 260.55L140 185.75L141.15 182.45Q151 179.45 162.2 182.8Q174.95 186.6 184.6 195.9M283.2,183Q286.7 241.65 287.85 301.45Q288.55 337.6 279.95 370.2Q274.65 356.75 277.25 340.2Q281.85 310.6 280.7 280.45Q278.8 231.1 282.85 183L283.2 183M144.2,261.65Q171.25 266.7 188.25 244.6Q198.6 231.05 191 215.85Q185.95 205.8 175.65 201.1Q160.95 194.35 145.45 192.3Q148.8 215.75 146.05 240.55Q144.9 251.1 144.2 261.65" />
</g>
</svg>
