<?xml version="1.0" encoding="utf-8"?>
<svg version="1.1" id="Layer_1"
xmlns="http://www.w3.org/2000/svg"
xmlns:xlink="http://www.w3.org/1999/xlink"


xml:space="preserve">
q0.2 19.15 5.75 39.2q9.4 34 18.25 68.3q7.25 28.05 10.8 56.95q2 16.1 8.2 27.25q11.05 -29 16.5 -61.2q7.3 -43.4 18.8 -85.85q6.1 -22.5 4.95 -43.9q-16.9 50.1 -26 104.35q-4.8 28.7 -14.3 56.4q-13.25 -57.85 -33.1 -112.9q-0.5 0.1 -0.5 0.25q-0.65 59.3 0.7 118.45q0.35 15.2 -1.75 29.85q-2.4 16.55 2.65 29.9q5.7 -7.35 5.95 -17.75q0.7 -27.05 0.3 -54.75q-1 -59.75 -4 -118.45q-3.75 4.95 -3.85 12.75q-0.65 2.15 -0.7 4.5q-0.05 2.5 1.6 4.15q-2.4 27.75 -3.8 57.3q-2.8 59.25 -2.35 118.5q0.25 1.7 2 2q1.5 -0.35 1.65 -2q3.35 -33.75 3.5 -68.25q0.05 -8.55 0.45 -17.2q10.7 2.1 21.9 0.95q40.65 -25.5 28.15 -71.85q-7.5 -27.9 -34.65 -34.6q-8.3 0.2 -15.55 4.5q-10.05 34.35 -44.7 28.8q2.9 -38.05 -0.15 -75.25q13.7 -4.45 26.65 2.45q11.1 5.95 16.5 18.25q5.5 12.65 1.7 25.75<g id="531" transform="matrix(1, 0, 0, 1, -137.55, 0)">
<path style="fill:#000000;fill-opacity:1" d="M339.2,181Q359.05 236.05 372.3 293.9L381.6 333.55L382.9 340Q392.4 312.3 397.2 283.6Q406.3 229.35 423.2 179.25Q424.35 200.65 418.25 223.15Q406.75 265.6 399.45 309Q394 341.2 382.95 370.2L382.55 369.2L381.7 372.95Q375.5 361.8 373.5 345.7Q369.95 316.8 362.7 288.75Q353.85 254.45 344.45 220.45Q338.9 200.4 338.7 181.25Q338.7 181.1 339.2 181M281.2,181.25Q284.2 239.95 285.2 299.7Q285.6 327.4 284.9 354.45Q284.65 364.85 278.95 372.2Q273.9 358.85 276.3 342.3Q278.4 327.65 278.05 312.45Q276.7 253.3 277.35 194Q277.45 186.2 281.2 181.25M143.5,184.5L145.05 183.5L145.25 181.5L145.45 183.25Q152.7 178.95 161 178.75Q188.15 185.45 195.65 213.35Q208.15 259.7 167.5 285.2Q156.3 286.35 145.6 284.25Q145.2 292.9 145.15 301.45Q145 335.95 141.65 369.7Q141.5 371.35 140 371.7Q138.25 371.4 138 369.7Q137.55 310.45 140.35 251.2Q141.75 221.65 144.15 193.9Q142.5 192.25 142.55 189.75Q142.6 187.4 143.25 185.25L143.5 184.5M189.55,214.3Q184.15 202 173.05 196.05Q160.1 189.15 146.4 193.6Q149.45 230.8 146.55 268.85Q181.2 274.4 191.25 240.05Q195.05 226.95 189.55 214.3" />
</g>
</svg>
