<?xml version="1.0" encoding="utf-8"?>
<svg version="1.1" id="Layer_1"
xmlns="http://www.w3.org/2000/svg"
xmlns:xlink="http://www.w3.org/1999/xlink"


xml:space="preserve">
q2 -22.1 -20.6 -24.6q-34.65 59.15 -29.8 130.35q1.45 21.1 13.3 38.65q28.7 -0.5 27.9 -33.9q-0.1 -4 -1.4 -7.85q-5 18.8 -21.75 28q-12.8 -30.7 -10 -66.05q3.95 -6.2 0.65 -12.8q1.3 -35.05 21 -63.7q0.1 2.35 1.8 3.75q-1.6 55.6 -4.15 111.2q-2.7 59.6 -4.65 119.3q-2 59.7 -10.15 118.35q-2.35 16.65 3.05 29.85q5.9 -16.4 7.35 -35.65q4.4 -59.05 6.05 -118.55q0.5 -17.45 1.15 -34.85q1.5 -0.8 3.05 -1.45q6.8 -3.1 13.2 -6.55q0.7 -1.3 1.85 -2.15q5.85 45.8 18.15 91.5q7.7 28.65 14.35 57.25q7 30.15 19.05 56.5q3.3 -2.15 2.7 -6.35q-3.25 -22.3 -8.8 -44q-6.55 -25.85 -14.8 -51.2q-9.05 -27.85 -13.95 -56.6q-4.4 -25.9 -13.45 -49q37.45 -36.6 38.65 -89.25q0.6 -25.4 -7 -49.95q-11 -35.4 -43.9 -48.05q-1.55 1.05 -2.3 2.75q-0.7 2.55 -0.6 5.25q-6.25 22.35 9.65 49.35q9.95 16.85 15.35 35.65q-12.2 34.45 -27.5 68.45q-1.5 3.25 -1.35 6.8q0.1 2.55 0.65 4.95q0.75 3.4 2.45 6.3q31.75 -70.9 58.15 -144.35q2.5 -6.95 2.6 -14.2q0.1 -5 -1.25 -9.7q10.05 22.85 7.85 47q-5.4 57.95 -56.35 82.95q1.45 -34.05 3.6 -68q3.4 -53.05 1.1 -105.2q17.05 1.2 29.3 13.9q7.85 14.25 14.5 29.35q-10.25 0.2 -18.5 6q-0.4 1.8 -0.25 3.75q0.1 1.55 0.8 3q-1.85 7.1 -2 15.5q-1.2 59.35 -4.55 118.5q-1.35 3.25 -1.1 6.75q0.1 1.6 0.6 3.15q-3 53.25 -5.5 106.4q-2.85 59.4 -4.3 118.4q1.15 1.85 3.25 1.75q4.75 -12.5 4.65 -27.5q-0.35 -59.6 2.9 -118.5q2.1 -38.15 4.6 -76.25q12.85 6 25.75 -1.2q10.6 -5.85 18.35 -15.2q26.15 -31.5 23.45 -71.45q-0.95 -14.05 -4.85 -27.65q-10.1 -35.45 -42.35 -49.2q-8.1 20.55 -25.35 34.45q-13.4 10.85 -30.05 6.6q5.95 -68 4.8 -136.25q22.1 -6.75 37.3 12.8q13.65 17.55 17.6 39.55q3.95 22.05 -4.3 42.85q-4.45 26.8 -8.2 56.6q-0.65 4.95 1 9.85q1.05 3 2.8 5.6q7.3 31.9 23.1 60.7q1.9 3.55 3.95 2.85q-5 -34.35 -21.5 -65.85q18.15 -11.3 18.2 -32.6q0 -6.55 -4.55 -11.4q-10.65 -11.3 -23.35 -3.05q0.9 -14.35 0.4 -28.35q14.45 -7.45 21.65 7.2q-6.05 15.9 -22.05 21.15q-0.95 16.1 -3.25 32.05q-3.85 26.6 -1 51.25q9.45 -0.5 18.55 0.2q4 0.35 7.55 1.2q19.1 4.55 36.1 -2.65q3.15 -7.2 -1.25 -13.5q-27.9 2.15 -55.7 -0.75q2.45 -24.3 5.2 -48.6q2.85 -25.15 1.5 -48.9q-6.75 12.9 -7.7 29.7q-2.25 1.2 -3.35 3.85q-15.95 39.9 -11.35 84.45q2.3 22.6 22.7 25.15q26.1 -23.8 23.55 -60.8q-2.2 -32.65 -27.05 -52.4q-2.85 26.45 -3.85 54.4q-2.15 59.35 -5.45 118.55q-0.85 15.1 -3.55 29.65q-2.65 14.35 4.7 22.05q1.15 -0.85 1.25 -2.25q3.15 -52.2 7.35 -104.2q4.75 -59.65 0.4 -118.5q-0.8 -0.15 -0.85 0.3q18.7 29.45 3.45 60q-3.5 6.95 -8.7 12.75q-14.1 -43.05 3 -83.25q5.35 3.2 11.65 11.45q0.6 0.8 1.6 1.3q-23.05 26.6 -23.75 63.7q-0.3 15.3 3.95 29.85q3.15 10.9 9.3 20.45q17.95 -2.35 23.9 -20.45q2.35 -7.25 0.1 -14.3q-8.05 6.4 -15.8 14.15q-3.55 3.6 -8.45 4.1q14.1 4.8 27.75 -0.65q3.85 -5.4 1.45 -11.5q-0.8 -1.95 -1.8 -3.75q-3.4 -27.9 19.8 -39.25q0.3 -10 -7.6 -16.4<g id="541" transform="matrix(1, 0, 0, 1, -51.75, 0)">
<path style="fill:#000000;fill-opacity:1" d="M353.95,91.75Q334.25 120.4 332.95 155.45L362.45 152.5L363.5 154.3Q366.8 160.9 362.85 167.1L332.2 167.95Q329.4 203.3 342.2 234Q358.95 224.8 363.95 206Q365.25 209.85 365.35 213.85Q366.15 247.25 337.45 247.75Q325.6 230.2 324.15 209.1Q319.3 137.9 353.95 78.75Q376.55 81.25 374.55 103.35L360.95 92.05L353.95 91.75M256.25,79.25L256.45 78.5L258.9 77.75Q259.65 76.05 261.2 75L261.35 77.15L268.95 76.75Q301.85 89.4 312.85 124.8Q320.45 149.35 319.85 174.75Q318.65 227.4 281.2 264L280.65 264.3Q289.7 287.4 294.1 313.3Q299 342.05 308.05 369.9Q316.3 395.25 322.85 421.1Q328.4 442.8 331.65 465.1Q332.25 469.3 328.95 471.45Q316.9 445.1 309.9 414.95Q303.25 386.35 295.55 357.7Q283.25 312 277.4 266.2L275.05 267.85Q273.9 268.7 273.2 270Q266.8 273.45 260 276.55Q258.45 277.2 256.95 278L256.5 277.9Q255.85 295.3 255.35 312.75Q253.7 372.25 249.3 431.3Q247.85 450.55 241.95 466.95Q236.55 453.75 238.9 437.1Q247.05 378.45 249.05 318.75Q251 259.05 253.7 199.45Q256.25 143.85 257.85 88.25L257.45 88.25Q255.75 86.85 255.65 84.5Q255.55 81.8 256.25 79.25M164.45,71.8L193.6 143.5L221.95 74.25Q223.3 78.95 223.2 83.95Q223.1 91.2 220.6 98.15Q194.2 171.6 162.45 242.5Q160.75 239.6 160 236.2Q159.45 233.8 159.35 231.25Q159.2 227.7 160.7 224.45Q176 190.45 188.2 156Q182.8 137.2 172.85 120.35Q156.95 93.35 163.2 71L164.45 71.8M291.2,102.25Q278.95 89.55 261.9 88.35Q264.2 140.5 260.8 193.55Q258.65 227.5 257.2 261.55Q308.15 236.55 313.55 178.6Q315.75 154.45 305.7 131.6Q299.05 116.5 291.2 102.25M87.5,69Q119.75 82.75 129.85 118.2Q133.75 131.8 134.7 145.85Q137.4 185.8 111.25 217.3Q103.5 226.65 92.9 232.5Q80 239.7 67.15 233.7Q64.65 271.8 62.55 309.95Q59.3 368.85 59.65 428.45Q59.75 443.45 55 455.95Q52.9 456.05 51.75 454.2Q53.2 395.2 56.05 335.8Q58.55 282.65 61.55 229.4Q61.05 227.85 60.95 226.25Q60.7 222.75 62.05 219.5L62.1 219.45L62.2 217.25Q65.55 158.1 66.75 98.75Q66.9 90.35 68.75 83.25Q68.05 81.8 67.95 80.25Q67.8 78.3 68.2 76.5L68.5 75Q76.75 69.2 87 69L87.5 69M127.7,136.6Q123.75 114.6 110.1 97.05Q94.9 77.5 72.8 84.25Q73.95 152.5 68 220.5Q84.65 224.75 98.05 213.9Q115.3 200 123.4 179.45Q131.65 158.65 127.7 136.6M96.25,240.5L97.45 235.25L99.2 234.05Q111.9 225.8 122.55 237.1Q127.1 241.95 127.1 248.5Q127.05 269.8 108.9 281.1Q125.4 312.6 130.4 346.95Q128.35 347.65 126.45 344.1Q110.65 315.3 103.35 283.4L99.35 284.45L88.75 345.95Q87 343.35 85.95 340.35Q84.3 335.45 84.95 330.5Q88.7 300.7 93.15 273.9L97.4 245.6L96.25 240.5M122.45,251Q115.25 236.35 100.8 243.8Q101.3 257.8 100.4 272.15Q116.4 266.9 122.45 251M97.45,347.2Q98.8 370.95 95.95 396.1Q93.2 420.4 90.75 444.7Q118.55 447.6 146.45 445.45Q150.85 451.75 147.7 458.95Q130.7 466.15 111.6 461.6Q108.05 460.75 104.05 460.4Q94.95 459.7 85.5 460.2Q82.65 435.55 86.5 408.95Q88.8 393 89.75 376.9Q90.7 360.1 97.45 347.2M210.45,232.25Q235.3 252 237.5 284.65Q240.05 321.65 213.95 345.45Q193.55 342.9 191.25 320.3Q186.65 275.75 202.6 235.85Q203.7 233.2 205.95 232L210.45 232.25M177.45,236.5Q181.8 295.35 177.05 355Q172.85 407 169.7 459.2Q169.6 460.6 168.45 461.45Q161.1 453.75 163.75 439.4Q166.45 424.85 167.3 409.75Q170.6 350.55 172.75 291.2Q173.75 263.25 176.6 236.8Q176.65 236.35 177.45 236.5M217.6,255.95Q211.3 247.7 205.95 244.5Q188.85 284.7 202.95 327.75L213.95 330Q219.15 324.2 222.65 317.25Q237.9 286.7 219.2 257.25Q218.2 256.75 217.6 255.95M222.2,364L219.95 367.45L213.45 360.2Q190.25 371.55 193.65 399.45L220.45 395.2Q221.45 397 222.25 398.95Q224.65 405.05 220.8 410.45Q207.15 415.9 193.05 411.1L198.2 443.95Q203.1 443.45 206.65 439.85Q214.4 432.1 222.45 425.7Q224.7 432.75 222.35 440Q216.4 458.1 198.45 460.45Q192.3 450.9 189.15 440Q184.9 425.45 185.2 410.15Q185.9 373.05 208.95 346.45L213.45 346.7L214.6 347.6Q222.5 354 222.2 364" />
</g>
</svg>
