<?xml version="1.0" encoding="utf-8"?>
<svg version="1.1" id="Layer_1"
xmlns="http://www.w3.org/2000/svg"
xmlns:xlink="http://www.w3.org/1999/xlink"


xml:space="preserve">
q-33.75 3.55 -67.5 3.25q-2.4 3 -1.8 7.25q0.2 1.6 1.05 3q17.75 2.65 35.6 2.9q-3.05 10.65 -3.2 23.35q-0.75 59.4 -5 118.4q-1.2 16.55 3.85 29.8q5.25 -6.3 4.4 -15.6q-2.15 -23.4 -0.65 -46.45q3.7 -55.45 3.8 -109.5q18.8 0 37.7 -2.65q1.9 -3.5 1.65 -7.55q-0.2 -2.8 -1.65 -5.2q-0.35 -0.4 -0.8 -0.45q-13.55 3.35 -26.9 7.95q-0.25 -34.95 -1.15 -69.6q-0.75 0.1 -0.8 0.35q-6.05 32.55 -5.75 66.65q0.35 36.75 -2.45 73.35q-1.3 17.45 5.25 29.1q4.65 -24.45 4.85 -51q13.65 -1.05 27.05 -4.1q0.25 14.85 -1.95 29.8q-2.55 16.9 3.1 29.45q5.1 -8.55 5 -19.5q-0.25 -28.95 0.05 -57.75q0.6 -59.75 -3.05 -118.45q-4.75 6.65 -4.65 17.25q-3.9 37 -1.2 74.9q3.15 44.65 -4.35 88.4q-2.95 17.35 3.55 29.1q7.05 -36.2 6.95 -74.25q-0.2 -59.7 -4.45 -118.45q-0.5 0.1 -0.5 0.3q9.25 -32.9 9.1 -71.85q0 -4.95 0.15 -9.85q15.1 6.05 28.2 -4.45q3.85 -3.1 7.1 -6.8q8 -9 12.25 -20.2q2.55 -19.3 -5.5 -36.95q-2.9 -6.4 -7.55 -11.65q-12 -13.55 -29.7 -15.65q-5.3 -0.6 -10.35 2.05q-1.75 7.3 -5.45 13.55q-14.25 24.2 -39.15 16.9q0.25 -39.9 -2.1 -78.9q21.7 -6.3 36.55 11.8q14.95 16.4 10.15 36.65<g id="533" transform="matrix(1, 0, 0, 1, -140.8, 0)">
<path style="fill:#000000;fill-opacity:1" d="M392.4,182.8Q392.85 182.85 393.2 183.25Q394.65 185.65 394.85 188.45Q395.1 192.5 393.2 196Q374.3 198.65 355.5 198.65Q355.4 252.7 351.7 308.15Q350.2 331.2 352.35 354.6Q353.2 363.9 347.95 370.2Q342.9 356.95 344.1 340.4Q348.35 281.4 349.1 222Q349.25 209.3 352.3 198.65Q334.45 198.4 316.7 195.75Q315.85 194.35 315.65 192.75Q315.05 188.5 317.45 185.5Q351.2 185.8 384.95 182.25L392.4 182.8M422.45,179.5Q426.1 238.2 425.5 297.95Q425.2 326.75 425.45 355.7Q425.55 366.65 420.45 375.2Q414.8 362.65 417.35 345.75Q419.55 330.8 419.3 315.95L418.7 278.95Q405.3 282 391.65 283.05L391.55 321.2Q391.35 347.75 386.7 372.2Q380.15 360.55 381.45 343.1Q384.25 306.5 383.9 269.75Q383.6 235.65 389.65 203.1Q389.7 202.85 390.45 202.75Q391.35 237.4 391.6 272.35Q404.95 267.75 418.5 264.4L417.8 196.75Q417.7 186.15 422.45 179.5M281.2,179.25Q285.45 238 285.65 297.7Q285.75 335.75 278.7 371.95Q272.2 360.2 275.15 342.85Q282.65 299.1 279.5 254.45Q276.8 216.55 280.7 179.55Q280.7 179.35 281.2 179.25M147.45,180.55Q152.5 177.9 157.8 178.5Q175.5 180.6 187.5 194.15Q192.15 199.4 195.05 205.8Q203.1 223.45 200.55 242.75L199.45 249.15L198.6 252.25L197.6 255.4Q193.35 266.6 185.35 275.6Q182.1 279.3 178.25 282.4Q165.15 292.9 150.05 286.85Q149.9 291.75 149.9 296.7Q150.05 335.65 140.8 368.55L145.5 181.5L146.95 180.8L147.25 178.25L147.45 180.55M184.75,203.5Q169.9 185.4 148.2 191.7Q150.55 230.7 150.3 270.6Q175.2 277.9 189.45 253.7Q193.15 247.45 194.9 240.15Q199.7 219.9 184.75 203.5" />
</g>
</svg>
