<?xml version="1.0" encoding="utf-8"?>
<svg version="1.1" id="Layer_1"
xmlns="http://www.w3.org/2000/svg"
xmlns:xlink="http://www.w3.org/1999/xlink"


xml:space="preserve">
q-19.55 8.65 -24.7 31.2q-3.8 16.4 -4.4 33.1q-2.3 59.6 -3.1 119.2q-0.55 39.4 11.6 76.5q18.15 13.55 35.3 -4.7q9.15 -9.75 18.55 -19.2q15.35 -15.4 7.4 -31.85q-3.3 2.1 -4.7 5.95q-14.5 20.95 -37.2 16.75q-6.55 -15.5 -7.85 -32.25q-4.6 -59.25 -3.05 -119.2q19.2 1.5 37.85 -0.5q1.6 -2.8 1.75 -6q0.2 -4.05 -1.75 -7.5q-14.3 3.2 -29.45 4.55q0.5 -41.5 -0.4 -83.05q-0.8 -40.6 16.1 -76.5q19.7 -14.05 39 3.75q3.15 -4 0.8 -8.65q-2.55 -5.25 -7.55 -8.6q-8.35 -5.55 -18.5 -5.65q-18.95 -38.55 -62.45 -34.4q-3.05 -0.35 -5.95 1.25q-1 2.5 -0.9 5.25q0.1 1.9 1.1 3.45q-1.8 14.3 -1.65 30.3q0.45 44.4 -1.35 88.55q-2.4 59.45 -5.65 118.5q-3.25 59.55 -11.5 118.2q-2.4 16.95 2.95 29.45q2.55 -3.15 3.55 -6.95q29.25 4.95 50.45 -15.55q41.05 -44.6 51.6 -104.65q7.6 -43.4 9.95 -87.75q3.25 -60.55 -17.5 -116.1q-5.65 -15.1 -12.6 -29.25q11.15 58 4.7 117.65q-4.95 45.65 -23.4 87.1q-6.85 15.35 -15.4 29.85q-22.2 37.5 -64.55 36.6q5.15 -52.5 8.6 -105.35q3.9 -58.85 4.35 -118.55q0.1 -14.85 1.65 -29.85q5.65 -54.25 0.05 -107.8q31.55 -6.5 51.5 15.9q24.65 33.65 32.5 74.45q-0.75 1.2 -0.65 3.1q2.45 43.5 -1.1 87.05q-2.4 29.45 -3.75 59.1q-2.7 59.3 -6.7 118.55q-4 59.15 -7.1 117.75q1.25 2.2 3.5 1.75q6.7 -52.65 9.55 -106.95q2.75 -53.85 6 -107.55q8.3 -0.8 16.45 -3.7q2.6 -2.4 5.5 -4.3q5.6 41.35 15.5 82.7q10.25 42.95 17.45 86.45q4.95 30 12.65 57.25q0.9 -0.6 0.9 -1.25q0.65 -44.8 -10.4 -89.3q-3.65 -14.6 -6.85 -29.55q-11.7 -54.6 -27.35 -107.5q3.95 -2.35 8.45 -3.85q4.7 -4.05 8.7 -8.65q6.05 -6.9 9.05 -15.35q16.35 -34.15 7.7 -72.05q-2.9 -12.6 -7.6 -24.5q-14 -35.45 -49.35 -43.45q-1.4 -0.35 -2.15 0.8q-0.9 1.3 -1 2.95q-0.05 1.25 0.2 2.4q36 23.9 41.4 68.1q2.65 21.8 -6.8 41.3q-15.3 31.55 -49.4 40q3.45 -56.45 1.1 -112.6q6.15 1.3 11.2 4.65q-5.45 24.5 -5 50.9q1.05 59.8 -4.1 118.55q-5.2 59.7 -5.15 118.4q5.9 -24.75 6.7 -50.75q1.75 -59.45 5 -118.5q3.35 -60 1.7 -118.45q-3.45 33.4 -3.85 68.2q-0.6 59.7 -2.7 119.25q-2.05 59.45 -2.1 119.2q0 30.15 -2.75 59.9q-1.55 16.55 3.45 29.85q5.95 -18.25 5.65 -39.5q-0.95 -59.65 0.8 -119.2q27.1 0.45 46.75 -18.4q9.4 -8.4 16 -19.05q33.85 -54.3 10.4 -114.05q-15.2 -38.7 -56.1 -40.9q-5.35 1.15 -10.7 3.65q-2.35 1.15 -4.55 2.6q-0.9 1.85 -1.1 3.8q20.8 -3.95 37.8 8.75q17.1 12.75 23.2 33.6q5.9 20.3 4.55 41.4q-1.4 21.15 -11.75 39.7q-10.7 19.25 -29.75 30.1q-15.8 9.05 -33.9 10.5q3.2 -85.05 0.9 -163.55<g id="536" transform="matrix(1, 0, 0, 1, -52, 0)">
<path style="fill:#000000;fill-opacity:1" d="M467.45,94.4L469.45 95.25Q474.45 98.6 477 103.85Q479.35 108.5 476.2 112.5Q456.9 94.7 437.2 108.75Q420.3 144.65 421.1 185.25Q422 226.8 421.5 268.3Q436.65 266.95 450.95 263.75L457.65 264.7L459.2 265.25Q461.15 268.7 460.95 272.75Q460.8 275.95 459.2 278.75Q440.55 280.75 421.35 279.25L420.8 303.75Q419.25 363.7 423.85 422.95Q425.15 439.7 431.7 455.2Q454.4 459.4 468.9 438.45L480.45 420.7L481 420.3L482.2 419.7L483.25 417.4Q484.65 413.55 487.95 411.45Q495.9 427.9 480.55 443.3Q471.15 452.75 462 462.5Q444.85 480.75 426.7 467.2Q414.55 430.1 415.1 390.7L416.75 272.25Q417.55 212.65 419.85 153.05Q420.45 136.35 424.25 119.95Q429.4 97.4 448.95 88.75Q459.1 88.85 467.45 94.4M381,142.65Q401.75 198.2 398.5 258.75Q396.15 303.1 388.55 346.5Q378 406.55 336.95 451.15L335.45 452.95Q314.25 473.45 285 468.5Q284 472.3 281.45 475.45Q276.1 462.95 278.5 446Q286.75 387.35 290 327.8Q293.25 268.75 295.65 209.3Q297.45 165.15 297 120.75Q296.85 104.75 298.65 90.45Q297.65 88.9 297.55 87Q297.45 84.25 298.45 81.75L298.7 81L300 80.25Q302.9 78.65 305.95 79Q349.45 74.85 368.4 113.4Q375.35 127.55 381 142.65M352.95,107Q333 84.6 301.45 91.1Q307.05 144.65 301.4 198.9Q299.85 213.9 299.75 228.75Q299.3 288.45 295.4 347.3Q291.95 400.15 286.8 452.65Q329.15 453.55 351.35 416.05Q359.9 401.55 366.75 386.2Q385.2 344.75 390.15 299.1Q396.6 239.45 385.45 181.45Q377.6 140.65 352.95 107M170.05,79.25Q170.15 77.6 171.05 76.3Q171.8 75.15 173.2 75.5Q208.55 83.5 222.55 118.95Q227.25 130.85 230.15 143.45Q238.8 181.35 222.45 215.5Q219.45 223.95 213.4 230.85Q209.4 235.45 204.7 239.5Q200.2 241 196.25 243.35Q211.9 296.25 223.6 350.85Q226.8 365.8 230.45 380.4Q241.5 424.9 240.85 469.7Q240.85 470.35 239.95 470.95Q232.25 443.7 227.3 413.7Q220.1 370.2 209.85 327.25Q199.95 285.9 194.35 244.55Q191.45 246.45 188.85 248.85L186.45 250.75Q178.3 253.65 170 254.45Q166.75 308.15 164 362Q161.15 416.3 154.45 468.95Q152.2 469.4 150.95 467.2Q154.05 408.6 158.05 349.45Q162.05 290.2 164.75 230.9Q166.1 201.25 168.5 171.8Q172.05 128.25 169.6 84.75Q169.5 82.85 170.25 81.65Q170 80.5 170.05 79.25M174.45,86.75Q176.8 142.9 173.35 199.35L170.85 240.8Q204.95 232.35 220.25 200.8Q229.7 181.3 227.05 159.5Q221.65 115.3 185.65 91.4Q180.6 88.05 174.45 86.75M269.45,117.25Q271.1 175.7 267.75 235.7Q264.5 294.75 262.75 354.2Q261.95 380.2 256.05 404.95L254.7 405.2Q254.65 346.5 259.85 286.8Q265 228.05 263.95 168.25Q263.5 141.85 268.95 117.35L269.45 117.25M65.5,76.75L65.65 79.8Q65.85 77.85 66.75 76Q68.95 74.55 71.3 73.4Q76.65 70.9 82 69.75Q122.9 71.95 138.1 110.65Q161.55 170.4 127.7 224.7Q121.1 235.35 111.7 243.75Q92.05 262.6 64.95 262.15L63.45 314.5Q61.7 374.05 62.65 433.7Q62.95 454.95 57 473.2Q52 459.9 53.55 443.35Q56.3 413.6 56.3 383.45Q56.35 323.7 58.4 264.25Q60.5 204.7 61.1 145Q61.5 110.2 64.95 76.8L65.5 76.75M66.2,84.6Q68.5 163.1 65.3 248.15Q83.4 246.7 99.2 237.65Q118.25 226.8 128.95 207.55Q139.3 189 140.7 167.85Q142.05 146.75 136.15 126.45Q130.05 105.6 112.95 92.85Q95.95 80.15 75.15 84.1L68.5 86.45L66.2 84.6" />
</g>
</svg>
