<?xml version="1.0" encoding="utf-8"?>
<svg version="1.1" id="Layer_1"
xmlns="http://www.w3.org/2000/svg"
xmlns:xlink="http://www.w3.org/1999/xlink"


xml:space="preserve">
q-46.25 5.45 -92.5 9.5q-0.5 1.45 -0.7 3q-0.5 3.6 0.95 6.75q22.35 1.4 44.6 0.6q-3.15 49.9 -2.8 100.35q0.1 15.15 -2.35 29.8q-3.9 23.1 0.3 44.45q5.35 -32.05 6.05 -66q1.15 -54.6 -1.25 -107.7q23.75 -1 47.45 -4.5q3.6 -7.25 -1.05 -13.4q5.2 -15.75 1.4 -31.85q-11.4 14.65 -1.6 32.05q-8.1 22.95 -3.6 49.6q1.25 20.3 -8.25 36.75q-7.3 0.05 -11.5 -6.5q-0.55 -3.85 -4 -4.5q-6.15 12.6 5 23q9.1 8.45 14.95 -1.85q10.95 -19.5 9.85 -42.65q-1.3 -27.75 -2.05 -54q-0.35 0 -0.4 0.15q-0.55 0.15 -1.05 0.55q-0.7 1.85 -0.9 3.75q-0.3 2.5 0.4 4.75q-0.4 2.45 -0.45 5.25q-0.75 59.15 -2.3 118.45q-0.45 15.1 -2.95 29.75q-3 17.4 3.45 29.25q3.75 -8.75 4.2 -18.75q1.3 -27.6 2.9 -55.35q7.75 3.15 16.45 2.6q24.55 -1.55 32.3 -23.9q17.05 -48.8 -23.8 -83.55q-2.65 58.35 -1.1 116.95q0.75 30.35 -3.55 59.8q-2.1 14.35 4.9 21.95q6.6 -39.25 5.9 -81q-1 -59.8 -4.9 -118.45q-1.2 -0.25 -1.25 0.75q-15.9 18.35 -40.05 11.1q1.1 -38.65 -0.85 -76.85q10.6 0.35 19.85 3.9q19.05 7.4 26.85 27.35q7.5 19.2 -5.8 34.5<g id="539" transform="matrix(1, 0, 0, 1, -134.3, 0)">
<path style="fill:#000000;fill-opacity:1" d="M417.45,178Q422.1 184.15 418.5 191.4L417.45 193Q393.75 196.5 370 197.5Q372.4 250.6 371.25 305.2Q370.55 339.15 365.2 371.2L362.45 372.2Q358.25 350.85 362.15 327.75Q364.6 313.1 364.5 297.95Q364.15 247.5 367.3 197.6Q345.05 198.4 322.7 197Q321.25 193.85 321.75 190.25Q321.95 188.7 322.45 187.25Q368.7 183.2 414.95 177.75L417.45 178M420.85,252.3Q411.05 234.9 422.45 220.25Q426.25 236.35 421.05 252.1L420.85 252.3M421.2,270.2Q421.95 296.45 423.25 324.2Q424.35 347.35 413.4 366.85Q407.55 377.15 398.45 368.7Q387.3 358.3 393.45 345.7Q396.9 346.35 397.45 350.2Q401.65 356.75 408.95 356.7Q418.45 340.25 417.2 319.95Q412.7 293.3 420.8 270.35Q420.85 270.2 421.2 270.2M173.5,179.25Q214.35 214 197.3 262.8Q189.55 285.15 165 286.7Q156.3 287.25 148.55 284.1L147.85 297.85Q146.25 325.6 144.95 353.2Q144.5 363.2 140.75 371.95Q134.3 360.1 137.3 342.7Q139.8 328.05 140.25 312.95Q141.8 253.65 142.55 194.5Q142.6 191.7 143 189.25Q142.3 187 142.6 184.5Q142.8 182.6 143.5 180.75Q144 180.35 144.55 180.2L147.45 179.35L147.5 179.25L147.5 179.35L150 178.25L171.2 179.05L173.5 179.25M282.45,176.75Q286.35 235.4 287.35 295.2Q288.05 336.95 281.45 376.2Q274.45 368.6 276.55 354.25Q280.85 324.8 280.1 294.45Q278.55 235.85 281.2 177.5Q281.25 176.5 282.45 176.75M194.95,223.55Q187.15 203.6 168.1 196.2Q158.85 192.65 148.25 192.3Q150.2 230.5 149.1 269.15Q173.25 276.4 189.15 258.05Q202.45 242.75 194.95 223.55" />
</g>
</svg>
