<?xml version="1.0" encoding="utf-8"?>
<svg version="1.1" id="Layer_1"
xmlns="http://www.w3.org/2000/svg"
xmlns:xlink="http://www.w3.org/1999/xlink"


xml:space="preserve">
q-1.6 1.7 -2.75 3.75q-2 1.55 -2.1 4.6q-0.95 2.75 -1.35 6q-7.15 58.85 -10.65 118.55q-3.4 58.55 -9.9 116.55q-3.7 9.4 3.25 14.75q6.6 -15.85 8.15 -34.05q5 -59.05 8.4 -118.6q2.25 -39.95 4.95 -79.1q1.5 14.7 3.9 29.25q9.5 58.15 21.35 115.95q6 29.25 11.25 58.9q2.85 16.1 10.5 28.15q3.45 -12.15 1.6 -25.1q5.25 -11.5 3.15 -23.1q-0.5 3.55 -1.85 7q5.35 -57.25 11.5 -114.55q6.4 -59.4 5.5 -117.7q-7.45 37.1 -9.4 77.4q-2.95 59.3 -11.75 117.75q-2.35 15.7 -2.5 30.95q-14.6 -51.45 -23.25 -104q-35.1 35.9 -30.05 91.4q1.35 14.55 -0.75 29.25q-10.1 71 -0.8 141.6q0.85 6.4 6.05 10.5q5.85 0.7 9.9 -2.95q12.2 -10.9 19.15 -25.5q6.5 -13.75 0.75 -27.95q-7.9 25.8 -30.4 36.75q-5.7 2.85 -8 -3.6q-8 -22.85 -5.5 -47.4q3.4 -33.6 5.65 -67.45q13.95 4.7 28.1 2.2q4.45 -5.95 0.95 -12.25q-1.1 -1.95 -2.8 -3.25q-5.3 -58.6 19.55 -110.3q4.1 -23.95 -18.95 -32.6q-19.4 -9.65 -19.6 6.35q-0.25 20.9 -2.15 41.8q-1.9 21.2 -3.5 42.4q-1.6 18.6 -3.9 36.9q-2.8 18.65 -9.55 36.15q-7.65 19.65 1.9 37.5q13.6 -51.85 19.5 -105.3q2.35 -21.45 4.95 -42.85q4 68.25 20.9 134.75q3.9 15.45 9.3 29.7q-8.65 -69.55 -24.3 -138.55q-3.05 -13.55 -5.65 -27.15q15.8 -9.25 22.65 -26.3q10.6 -26.55 3.9 -54.4q-4.8 -22.55 -25.2 -32.8q30.05 32.75 8.35 71.75q-10.65 16.95 -29.85 20q4.5 -49.3 2.55 -98q2.7 1.25 6.1 1.1q7.85 -0.3 12.85 5.15q7 -24.95 24.95 -40.35q9.75 -1.2 15.75 4.75q13.25 12.85 20.35 30.95q16.05 40.85 14.8 86.05q-1.7 61.7 -31.3 115.2q-11.95 21.55 -33.85 24.5q-7.85 -5.45 -12.15 -13.55q-15.35 -28.85 -16.7 -62.85q-2.4 -59.25 9.65 -117.55q3.15 -15.15 7.25 -29.9q-12.7 57.55 -10.35 116.6q0.6 15 0.3 30.05q-0.95 44.95 33.15 71.95q15.5 -0.2 25 -12.85q37.1 -49.15 44 -110.7q6.7 -59.7 -8.75 -116.65q-7.6 -28 -26.25 -48.25q-7.25 -5.4 -16.4 -5.6q-2.95 1.5 -5.6 4.1q-13.35 13.3 -19.8 31.9q-6.75 19.5 -11.2 39.6q-1.8 7.2 -2.3 15.65q-2.2 39.1 -3.9 78.35q-1.3 4.05 -0.95 8.25q0.2 2.6 1.85 4.5q-1.9 52.05 -9.75 101.95q-2.35 -3.25 -3.5 -7.7q-0.25 0.35 -0.2 0.6q1.1 3.4 0.45 6.85q-1.35 9.4 6.25 14q5.7 -11.9 6.3 -26.2q2.45 -58.9 6.15 -117.6q22.05 2.15 38.45 -15.5q23.25 -25 18.25 -58.7q-5.7 -38.3 -43.15 -46.45q-4 -0.3 -7.55 1.65q-0.5 1.45 -0.65 3q-0.2 2.25 0.1 4.5q0.15 1.3 1.15 2q-15.55 19.5 -38.5 19.2q1.65 -22.7 3.95 -45.3q2.55 -25.05 0.35 -48.9q17.2 0.65 29.95 12.55q31 28.95 4.25 62.45<g id="390" transform="matrix(1, 0, 0, 1, -54.75, 0)">
<path style="fill:#000000;fill-opacity:1" d="M347.4,126.35L365.3 235.35Q373.95 287.9 388.55 339.35Q388.7 324.1 391.05 308.4Q399.85 249.95 402.8 190.65Q404.75 150.35 412.2 113.25Q413.1 171.55 406.7 230.95Q400.55 288.25 395.2 345.5Q396.55 342.05 397.05 338.5L397.2 337.75Q399.3 349.35 394.05 360.85Q395.9 373.8 392.45 385.95Q384.8 373.9 381.95 357.8Q376.7 328.15 370.7 298.9Q358.85 241.1 349.35 182.95Q346.95 168.4 345.45 153.7Q342.75 192.85 340.5 232.8Q337.1 292.35 332.1 351.4Q330.55 369.6 323.95 385.45Q317 380.1 320.7 370.7L317.9 359.9L318.85 358L321.45 365.2Q327.95 307.2 331.35 248.65Q334.85 188.95 342 130.1Q342.4 126.85 343.35 124.1Q343.45 121.05 345.45 119.5Q346.6 117.45 348.2 115.75L347.4 126.35M475.5,141.9L458.7 123.5L454.95 123.75L450.95 125.75Q426.1 177.45 431.4 236.05L456.95 233Q458.65 234.3 459.75 236.25Q463.25 242.55 458.8 248.5Q444.65 251 430.7 246.3Q428.45 280.15 425.05 313.75Q422.55 338.3 430.55 361.15Q432.85 367.6 438.55 364.75Q461.05 353.8 468.95 328Q474.7 342.2 468.2 355.95Q461.25 370.55 449.05 381.45Q445 385.1 439.15 384.4L436.85 384.25L434.85 383.8L431.1 382.45L429.4 381.5Q424.2 377.4 423.35 371Q414.05 300.4 424.15 229.4Q426.25 214.7 424.9 200.15Q419.85 144.65 454.95 108.75L456.55 109.3Q479.6 117.95 475.5 141.9M199.9,139.4Q206.6 167.25 196 193.8Q189.15 210.85 173.35 220.1Q175.95 233.7 179 247.25Q194.65 316.25 203.3 385.8L200.1 386.35Q194.7 372.1 190.8 356.65Q173.9 290.15 169.9 221.9L154.9 226.05Q152.3 247.45 149.95 268.9Q144.05 322.35 130.45 374.2Q120.9 356.35 128.55 336.7Q135.3 319.2 138.1 300.55L143.15 263.7Q145.45 245.4 147.05 226.8L149.45 197.15Q151.05 175.95 152.95 154.75Q154.85 133.85 155.1 112.95Q155.3 96.95 174.7 106.6Q195.1 116.85 199.9 139.4M165,115.1Q161.6 115.25 158.9 114Q160.85 162.7 156.35 212Q175.55 208.95 186.2 192Q207.9 153 177.85 120.25Q172.85 114.8 165 115.1M231.5,185Q219.45 243.3 221.85 302.55Q223.2 336.55 238.55 365.4Q242.85 373.5 250.7 378.95Q272.6 376 284.55 354.45Q314.15 300.95 315.85 239.25Q317.1 194.05 301.05 153.2Q293.95 135.1 280.7 122.25L280.25 123.1L279.05 121.2L279.45 119.5Q273.45 113.55 263.7 114.75Q245.75 130.15 238.75 155.1Q234.65 169.85 231.5 185M238.55,137.75Q245 119.15 258.35 105.85Q261 103.25 263.95 101.75Q273.1 101.95 280.35 107.35L280.95 108L282.2 108.05L284.45 107.5Q303.1 127.75 310.7 155.75Q326.15 212.7 319.45 272.4Q312.55 333.95 275.45 383.1Q265.95 395.75 250.45 395.95Q216.35 368.95 217.3 324Q217.6 308.95 217 293.95Q214.65 234.9 227.35 177.35Q231.8 157.25 238.55 137.75M74.95,112Q74.65 109.75 74.85 107.5Q75 105.95 75.5 104.5Q79.05 102.55 83.05 102.85L89 102.5Q126.45 110.65 132.15 148.95Q137.15 182.65 113.9 207.65Q97.5 225.3 75.45 223.15Q71.75 281.85 69.3 340.75Q68.7 355.05 63 366.95Q55.4 362.35 56.75 352.95L55.55 350.7L55.25 349.95Q55.9 346.5 54.8 343.1Q54.75 342.85 55 342.5Q56.15 346.95 58.5 350.2Q66.35 300.3 68.25 248.25L69.3 222.2L68.5 222Q66.85 220.1 66.65 217.5Q66.3 213.3 67.6 209.25L68.25 207.75L69.9 208Q71.6 168.75 73.8 129.65Q74.3 121.2 76.1 114Q75.1 113.3 74.95 112M110.7,126.8Q97.95 114.9 80.75 114.25Q82.95 138.1 80.4 163.15Q78.1 185.75 76.45 208.45Q99.4 208.75 114.95 189.25Q141.7 155.75 110.7 126.8" />
</g>
</svg>
