<?xml version="1.0" encoding="utf-8"?>
<svg version="1.1" id="Layer_1"
xmlns="http://www.w3.org/2000/svg"
xmlns:xlink="http://www.w3.org/1999/xlink"


xml:space="preserve">
q-0.65 1.6 -0.95 3.55q-8.85 58.2 -18.8 116.35q-10 58.4 -22.65 116.2q-3.2 14.55 -6.85 28.85q-4.25 16.45 2.05 28.9q2.6 -2.8 3.25 -6.75q9.35 -58.35 20.15 -116.45q10.7 -57.9 21.7 -115.75q2.4 59.25 8.5 117.7q1.55 15 1.45 29.95q-0.15 23.75 6.95 44q1.75 -0.3 1.9 -2.05q0.9 -7.75 0.95 -15.55q1.85 -2.65 2.35 -5.85q3 -20.85 5.05 -41.9q5.7 -58.55 18.35 -116.2q5.05 -23.05 7.5 -45.25q-1.15 17.6 1.2 36.45q7.25 58.3 12.7 116.85q5.55 59.1 13.8 117.7q2.1 15 2.4 30q0.3 17.15 8.55 28.25q1.6 -1.5 1.45 -3.7q-4 -51.5 -10.9 -102.95q-7.85 -58.7 -13.35 -117.7q-5.5 -59 -14.7 -116.85q-16.7 49.95 -25.35 104.3q-7.25 45.25 -10.6 91q-3.2 -37.95 -7.05 -75.65q-5.95 -58.85 -7 -117.65q-1 0.9 -1.7 2.1q-0.8 0.25 -0.85 1.4q-24.4 42.45 -19.4 94.4q2.7 28.4 2.5 57.1q-0.35 44.65 -1.65 89.5q0.45 5.55 1.3 11.05q0.6 4.15 1.7 8.25q3.3 12.05 13.3 18.85q15.35 10.3 32.15 -4.1q13.65 -11.75 20.95 -27.85q3.2 -7 -3.7 -10.1q-10.25 20.85 -31.7 29.1q-4.4 1.7 -9.1 2.45q-15.25 -29.85 -12.75 -65.45q2.05 -29 2.5 -58.25q1.5 -2.5 1.7 -5.25q0.25 -2.75 -1 -5.05q-18.3 -3.25 -36.15 4.35q-4 -69.45 12.85 -134.85q0.9 -3.5 4.05 -5.65q1.1 -0.65 2.25 -1.2q1.15 -0.65 2.35 -1.15q1.45 -5.85 -3.25 -11.15q-2.55 -2.85 -5.5 -5.55q-6.4 0 -12.05 3.85q-17 6 -26.9 21.45q-20.25 31.55 -27.6 68.8q-11.45 58.25 -10.65 118.75q0.35 30.2 0.95 60q0.8 38.6 25.75 67.1q24.65 28.2 60.35 9.15q10.35 -5.5 17.7 -14.7q38.55 -48.2 47.25 -109.05q8.45 -59.65 -5.2 -117.75q-7 -29.85 -20.4 -57.25q-13.5 -27.4 -39 -41.25q-10.25 -5.3 -22.2 -5.1q12.45 11.4 22.25 25.45q21.6 31 31.25 67.75q15.4 58.7 3.55 119.1q-9.3 47.6 -38.65 86.75q-13.35 17.85 -34.9 20.85q-11.8 1.65 -22.4 -2.05q-24.7 -8.65 -34.65 -33.55q-7.05 -58.55 -5.25 -118.45q1.8 -59.4 18.5 -116.6q10.75 -36.9 46.1 -46.9q6.8 -0.55 12.25 1.8q0.25 1.9 1.55 3.15q7.4 4.9 12.65 12.4q34.65 49.75 10.35 104.1q-13.2 29.45 -42.05 38.2q1.05 -57.15 0.5 -113.65q8.45 0.9 17.65 -0.35q-0.7 0.1 -1.3 0.75q-0.75 1.8 -0.75 3.75q-3.25 21.4 -3.3 44.3q-0.05 59.1 -1.6 118.5q-1.6 59.8 -5.45 119.25q-1 15 -3.45 29.7q-2.55 15.3 4.05 25.75q6.55 -50.45 8.7 -102.7q2.85 1.45 6.3 -0.5q40.65 -22.7 48.65 -69.35q10.85 -63.45 -35.3 -107.15q-8.85 -0.55 -17.2 2<g id="386" transform="matrix(1, 0, 0, 1, -63.9, 0)">
<path style="fill:#000000;fill-opacity:1" d="M420.65,78Q420.7 76.85 421.5 76.6Q422.2 75.4 423.2 74.5L423.3 77.65L423.65 78.05L424.2 78.75Q425.25 137.55 431.2 196.4Q435.05 234.1 438.25 272.05Q441.6 226.3 448.85 181.05Q457.5 126.7 474.2 76.75L474.15 78.05L474.2 77.5Q483.4 135.35 488.9 194.35Q494.4 253.35 502.25 312.05Q509.15 363.5 513.15 415Q513.3 417.2 511.7 418.7Q503.45 407.6 503.15 390.45Q502.85 375.45 500.75 360.45Q492.5 301.85 486.95 242.75Q481.5 184.2 474.25 125.9Q471.9 107.05 473.05 89.45Q470.6 111.65 465.55 134.7Q452.9 192.35 447.2 250.9Q445.15 271.95 442.15 292.8Q441.65 296 439.8 298.65Q439.75 306.45 438.85 314.2Q438.7 315.95 436.95 316.25Q429.85 296 430 272.25Q430.1 257.3 428.55 242.3Q422.45 183.85 420.05 124.6L418.55 133.25Q407.55 191.1 396.85 249Q386.05 307.1 376.7 365.45Q376.05 369.4 373.45 372.2Q367.15 359.75 371.4 343.3Q375.05 329 378.25 314.45Q390.9 256.65 400.9 198.25Q410.85 140.1 419.7 81.9Q420 79.95 420.65 78.35L420.65 78M340.9,79.9Q346.55 76.05 352.95 76.05L363.5 77.2L364.55 78.15L367.3 80.55Q370.25 83.25 372.8 86.1Q377.5 91.4 376.05 97.25L362.95 88.5L359.65 88.55L356.45 88.65L353.5 89.05L350.7 89.6L348.15 90.5Q346.95 91 345.8 91.65Q344.65 92.2 343.55 92.85Q340.4 95 339.5 98.5Q322.65 163.9 326.65 233.35Q344.5 225.75 362.8 229L363.9 230.7Q365.15 233 364.9 235.75Q364.7 238.5 363.2 241L326.55 244.55L326.4 266.3L326.2 288Q325.75 317.25 323.7 346.25Q321.2 381.85 336.45 411.7L341.2 414.2L344.45 413.8Q349.15 413.05 353.55 411.35Q375 403.1 385.25 382.25L385.1 376.95L387.05 381.05Q393.95 384.15 390.75 391.15Q383.45 407.25 369.8 419Q353 433.4 337.65 423.1Q327.65 416.3 324.35 404.25Q323.25 400.15 322.65 396Q321.8 390.5 321.35 384.95L320.6 373.7L320.4 368.15L320.35 362.5L320.5 351.2L321.4 321.5Q322.7 276.65 323.05 232Q323.25 203.3 320.55 174.9Q315.55 122.95 339.95 80.5L340.9 79.9M239.15,75.85L239.2 76Q264.7 89.85 278.2 117.25Q291.6 144.65 298.6 174.5Q312.25 232.6 303.8 292.25Q295.1 353.1 256.55 401.3Q249.2 410.5 238.85 416Q203.15 435.05 178.5 406.85Q153.55 378.35 152.75 339.75Q152.15 309.95 151.8 279.75Q151 219.25 162.45 161Q169.8 123.75 190.05 92.2Q199.95 76.75 216.95 70.75Q228.9 70.55 239.15 75.85M236.7,83.25Q231.25 80.9 224.45 81.45L222.95 81.25Q187.6 91.25 176.85 128.15Q160.15 185.35 158.35 244.75Q156.55 304.65 163.6 363.2L164.7 370.7Q174.65 395.6 199.35 404.25Q209.95 407.95 221.75 406.3Q243.3 403.3 256.65 385.45Q286 346.3 295.3 298.7Q307.15 238.3 291.75 179.6Q282.1 142.85 260.5 111.85Q250.7 97.8 238.25 86.4Q236.95 85.15 236.7 83.25M83.3,80.6Q83.85 137.1 82.8 194.25L81.9 234.95Q110.75 226.2 123.95 196.75Q148.25 142.4 113.6 92.65Q108.35 85.15 100.95 80.25Q91.75 81.5 83.3 80.6M84,72.25Q92.35 69.7 101.2 70.25Q147.35 113.95 136.5 177.4Q128.5 224.05 87.85 246.75Q84.4 248.7 81.55 247.25L79.2 313.5Q77.05 365.75 70.5 416.2Q63.9 405.75 66.45 390.45Q68.9 375.75 69.9 360.75Q73.75 301.3 75.35 241.5Q76.9 182.1 76.95 123Q77 100.1 80.25 78.7L80 76.5Q80 74.55 80.75 72.75Q81.35 72.1 82.05 72L84 72.25" />
</g>
</svg>
