<?xml version="1.0" encoding="utf-8"?>
<svg version="1.1" id="Layer_1"
xmlns="http://www.w3.org/2000/svg"
xmlns:xlink="http://www.w3.org/1999/xlink"


xml:space="preserve">
q-3.4 39.45 -4.7 80.25q-1.9 59.4 -5.05 118.5q-3.15 58.85 -6.65 117.45q0.2 -7.9 -0.25 -15.75q-1.4 15.3 6.05 23.85q7.7 -39.05 8.4 -80.25q0.85 -50.5 2.85 -100.85q2.95 -2.8 4.5 -6.45q4.6 48.4 13.2 96.6q10.45 58.35 26.5 115.45q1.1 1.7 3.25 2q2.6 -1.15 2.25 -4.15q-1.8 -16.35 -4 -32.35q-1.35 -0.1 -1.5 1.85q-10 -40.3 -17.55 -82.6q-9.2 -51.65 -19.4 -102.8q16.75 -39.25 33.8 -78.4q8.35 -17.8 5.8 -35.3q-8.95 12.45 -15.1 28.55q-20.6 54.25 -46.8 105.4q1.7 -37.85 3.95 -75.6q1.8 -30.55 -3.3 -59.35q2.5 -22.8 -13.6 -38.05q-11.75 -11.15 -26.9 -10.05q-8.55 77.35 -4.6 154.7q11.8 -34.35 8.3 -76.2q5.1 44.75 22.85 85.1q19.65 -13 22.15 -36.2q1.15 -22.25 -21.75 -24q-28.5 45.6 -23.2 105q2.3 26.05 5.05 52.25q1.95 18.2 11.65 33.7q31.95 -9.4 26 -37.5q-6.75 14.9 -23.75 19.5q-13.1 -35.75 -10.2 -76.45q5.2 -7.15 -0.25 -13.85q0.8 -30.5 8.2 -60.05q12.55 -11.85 27.9 1.2q-17.45 2.55 -26.8 17.05q-22.7 35.15 -27.7 77.75q-6.9 58.9 -4 118.6q0.75 15.1 1.1 30.05q1.25 47.25 32.5 82.3q5.7 6.35 13.8 8.75q31.7 9.4 51.45 -18.15q21.75 -30.3 31.85 -66.95q15.85 -57.4 8.9 -117.1q-6.9 -59.1 -31.25 -113.7q-9 -20.2 -30.05 -21.9q20.15 0.9 28.4 21.4q22 56.35 18 116.8q-2.9 44.75 -17.25 87.5q-9.45 28.2 -32.8 45.15q-5.8 4.25 -12.55 5.7q-30.75 6.75 -46.35 -20.6q-7.7 -13.55 -10.2 -28.75q-7.1 -42.55 -7.65 -85.95q-0.8 -59.8 9.75 -117.95q8.75 -48.15 55.85 -53.05q1 0.05 0.2 1.2q-1.35 1.95 0.05 1.95q23.55 1.05 30.25 23.6q6.8 22.95 -13.75 35.55q-6.9 4.25 -15 5.05q-0.75 0.1 -0.8 0.35q-0.55 1.05 -0.7 2.2q-0.35 2.65 0.15 5.3q0.4 2 2.25 2.6q-3.3 31.45 -2.9 63.65q0.8 59.6 -0.95 119.25q-1.35 47.35 -4.1 94.35q0.35 4.1 -0.4 8.9q0.25 7.25 -0.9 14.45q-2.55 15.95 6.55 24.7q8.15 -53.65 8.6 -109.45q0.3 -35.6 1 -71.25q9.9 13.8 28 1.05q45.05 -31.9 40.35 -86.8q-1.15 -13.75 -3.35 -27.3q-7.45 -46.3 -50.6 -57.45q-1.8 1.4 -4.95 1.8q-5.55 0.7 -10.5 3q16.75 45.75 -10 85.45q-17.85 26.45 -46.2 21.05q1.5 -53.6 -1.5 -106.1q21.2 -7.65 38.35 8.05q12.55 11.55 18.45 27.7<g id="399" transform="matrix(1, 0, 0, 1, -49.9, 0)">
<path style="fill:#000000;fill-opacity:1" d="M365.2,85.25Q370.3 114.05 368.5 144.6Q366.25 182.35 364.55 220.2Q390.75 169.05 411.35 114.8Q417.5 98.7 426.45 86.25Q429 103.75 420.65 121.55L414.55 135.15Q397.5 174.3 380.75 213.55Q390.95 264.7 400.15 316.35Q407.7 358.65 417.7 398.95Q417.85 397 419.2 397.1L419.2 397.45Q421.4 413.45 423.2 429.8Q423.55 432.8 420.95 433.95Q418.8 433.65 417.7 431.95Q401.65 374.85 391.2 316.5Q382.6 268.3 378 219.9L367.7 244.15Q366.15 247.8 363.2 250.6Q361.2 300.95 360.35 351.45Q359.65 392.65 351.95 431.7Q344.5 423.15 345.9 407.85L348.2 384.7Q348.65 392.55 348.45 400.45L348.45 401.45Q351.95 342.85 355.1 284Q358.25 224.9 360.15 165.5Q361.45 124.7 364.85 85.25L365.2 85.25M324.45,168.55L342.05 255.25L340.95 257.45Q323.2 217.1 318.1 172.35L308.5 174.55Q312 216.4 300.2 250.75Q296.25 173.4 304.8 96.05L302.85 95.15L303.25 86.3L306.1 84.25Q321.25 83.15 333 94.3Q349.1 109.55 346.6 132.35Q344.1 155.55 324.45 168.55M467.55,269.6Q452.2 256.55 439.65 268.4Q432.25 297.95 431.45 328.45L449.95 324L451.55 325.65Q457 332.35 451.8 339.5L431.5 342Q428.6 382.7 441.7 418.45Q458.7 413.85 465.45 398.95L465.95 394.45L466.45 398.95L470.45 398.95Q476.4 427.05 444.45 436.45L439.45 436.45Q429.75 420.95 427.8 402.75Q425.05 376.55 422.75 350.5Q417.45 291.1 445.95 245.5Q468.85 247.25 467.7 269.5L467.55 269.6M227.95,85Q249 86.7 258 106.9Q282.35 161.5 289.25 220.6Q296.2 280.3 280.35 337.7Q270.25 374.35 248.5 404.65Q228.75 432.2 197.05 422.8Q188.95 420.4 183.25 414.05Q152 379 150.75 331.75Q150.4 316.8 149.65 301.7Q146.75 242 153.65 183.1Q158.65 140.5 181.35 105.35Q190.7 90.85 208.15 88.3L227.95 85M225.35,102.6L223.5 101L222.7 102.5L222.2 102.9Q220.8 102.9 222.15 100.95Q222.95 99.8 221.95 99.75Q174.85 104.65 166.1 152.8Q155.55 210.95 156.35 270.75Q156.9 314.15 164 356.7Q166.5 371.9 174.2 385.45Q189.8 412.8 220.55 406.05Q227.3 404.6 233.1 400.35Q256.45 383.4 265.9 355.2Q280.25 312.45 283.15 267.7Q287.15 207.25 265.15 150.9L254.85 124.9Q246.6 104.4 226.45 103.5L225.35 102.6M323.65,155.15Q344.2 142.55 337.4 119.6Q330.7 97.05 307.15 96L308.65 160.2Q316.75 159.4 323.65 155.15M67.55,83.3Q72.5 81 78.05 80.3Q81.2 79.9 83 78.5Q126.15 89.65 133.6 135.95Q135.8 149.5 136.95 163.25Q141.65 218.15 96.6 250.05Q78.5 262.8 68.6 249Q67.9 284.65 67.6 320.25Q67.15 376.05 59 429.7Q49.9 420.95 52.45 405Q53.6 397.8 53.35 390.55L54.7 388.35L55.7 396L55.75 396.45L56.6 383.05L56.85 381.75Q57.6 376.95 57.25 372.85Q60 325.85 61.35 278.5Q63.1 218.85 62.3 159.25Q61.9 127.05 65.2 95.6Q63.35 95 62.95 93Q62.45 90.35 62.8 87.7Q62.95 86.55 63.5 85.5L66.6 83.8L66.7 82.85Q66.75 82.6 67.5 82.5L67.55 83.3M106.6,102.95Q89.45 87.25 68.25 94.9Q71.25 147.4 69.75 201L68.85 237.15Q97.2 242.55 115.05 216.1Q141.8 176.4 125.05 130.65Q119.15 114.5 106.6 102.95" />
</g>
</svg>
