<?xml version="1.0" encoding="utf-8"?>
<svg version="1.1" id="Layer_1"
xmlns="http://www.w3.org/2000/svg"
xmlns:xlink="http://www.w3.org/1999/xlink"


xml:space="preserve">
q-1.6 60.25 -2.25 122q-0.15 12.4 0.8 24.2q-28.45 -34.5 -74.25 -37.6q-42 12.7 -52.15 55.95q-11.1 47.4 -11.3 96.7q-0.25 48.25 0.55 96.6q0.7 38.5 14.65 74.2q11.85 30.4 39.8 47.2q18.7 11.25 40.3 7.55q36.75 -6.3 51.2 -41.45q9.45 -23 15.95 -47.05q12.75 -46.8 17.95 -95.2q3.85 -35.65 4.45 -72.05q0.65 -41.05 -9.15 -80.4q-5.75 -22.85 -13.2 -45.35q-8.25 -24.75 -18.5 -48.55q-0.4 -0.3 -0.8 -0.3q-0.5 0 -0.95 0.4q-0.65 -1.4 -1.85 -2.4q-1 -0.8 -1.3 -1.9q3.5 3.4 5.4 7.95q4.4 12.55 9.45 24.55q19.45 45.95 20.85 95.95q1.4 48.4 -2.85 96.5q-2.65 30.6 -8.1 60.85q-9.05 50.3 -36.65 93.85q-12.45 19.7 -35.85 21.6q-28.8 2.4 -51.85 -15.55q-3.95 -3.95 -7.25 -8.2q-30.1 -38.7 -31.45 -88.45q-1.35 -48.25 -2.35 -96.6q-1.05 -48.75 -1.2 -97.25q-0.15 -48.8 9.9 -95.6q8.95 -41.65 49.25 -54.4q45.9 1.9 74.6 36.7q1.5 19.85 1.65 39.65q0.3 48 -0.5 96q-0.95 48.55 -2.55 97.2q-0.8 24.75 -5.35 48.75q-6.9 36.1 -7.75 72.35q3.1 -4.65 0.4 -9.8q-17.9 -0.15 -35.7 -3.25q-52.25 -9.2 -104.15 -6.3q4.3 -30.65 7.8 -61.3q5.45 -47.7 7.5 -95.85q2 -48.15 1.95 -96.65q-0.05 -48.5 0.75 -97.2q0.85 -49 -3.75 -96.65q-2.6 2.95 -2.25 7.85q46.75 -10.3 78.7 21.2q0.9 -4.3 -2 -7.65q-24.25 -27.4 -62.85 -25.8q-39.05 11.05 -51.65 50.4q-11.1 34.85 -11.7 72.35q-0.7 42.85 6.3 84.95q4.05 24.55 20.75 43.1q33.65 37.5 78.3 13.6q12.25 -11.55 18.8 -26.7q3.4 -7.75 -0.85 -14.05q-0.4 0.1 -0.7 0.35q-1.55 1.35 -1.45 3.5q0.05 1.55 0.45 3.1q-4.95 9.1 -12.45 16.35q-2.4 2.25 -4.15 5q-2.3 0.75 -4.25 1.85q-26.1 15 -51.35 1q-35.9 -19.9 -40.95 -60.2q-4.05 -32.05 -3.6 -64.35q42.15 -15.95 85.2 -14.8q0.4 -2.5 -0.45 -4.85q-0.3 -0.35 -0.65 -0.4q-9.3 -1.55 -18.9 -1.05q-9.25 1.3 -18.8 3.25q-25.35 5.3 -49.2 14.05q0.3 -9.65 1 -19.35q1.5 -21.7 6.75 -42.3q8.35 -33 37.4 -51.25q-5.7 46.95 -42.2 79.7q-10.85 9.7 -23.75 16.3q-37.9 19.35 -70.4 -3.3q-0.4 -48.7 0.35 -97.2q0.65 -45.65 -0.95 -90.5q0.3 -0.3 0.75 -0.5q55.55 -7.2 96.3 29.65q17.5 15.8 26.75 37.1q8.7 20.05 6 42.15q-0.25 0.9 -0.15 1.85q-2.85 35.75 -2.8 73.55q0.05 48 -0.4 96q-0.45 48.65 0.05 97.2q0.5 49 -3.75 97.3q-4.2 48.15 -3.55 96.55q0.25 1.4 1.65 1.65q1.7 -0.75 1.8 -2.85q1.6 -38.45 4.35 -76.95q3.4 -47.8 3.85 -96.1q0.3 -38.6 0.15 -77.1q3.8 8.55 13.5 11.5q31.9 9.75 59.1 -6.8q23.35 -14.2 40.9 -35.25q22.7 -27.15 27.3 -61.45q6.85 -51.7 -28.95 -88.45q-35.95 -36.85 -86.95 -36.6q-14.3 -2.2 -25.85 4.05q-1.15 1.55 -1.25 3.95q-2.45 47.8 -7 95.45q-1.2 12.25 -3.7 24.2q-2.9 13.75 1.95 23.3q4.95 -26.1 7.4 -53.05q6.4 -0.5 11.9 -3q1.75 8.15 6.45 16.75q7.15 12.85 11.2 26.7q6.8 23.15 17 43.4q3.2 -3.15 1.7 -7.85q-13.5 -41.6 -33.65 -80.4q2.7 -1.6 5.2 -3.7q18.35 -15.6 17.3 -39.9q-1.45 -32.75 -36.2 -32.45q-0.95 0.3 -1.35 1.1q-5.35 18.45 -22 24.4q-9.5 3.4 -19.95 1.5q17.05 -5.15 30.75 6q14.4 11.7 8.9 30.45q-2.7 3.4 1.1 5.35q1.85 -3.8 -1.4 -5.25<g id="400" transform="matrix(1, 0, 0, 1, 94.9, 0)">
<path style="fill:#000000;fill-opacity:1" d="M435.25,82.55L432.95 193.85L519.55 198.35L519.35 206.3L432.75 203.85L430.7 204.7Q429.75 192.9 429.9 180.5Q430.55 118.75 432.15 58.5L435.25 82.55M336.75,82.35L337 82.95L337.85 84.8Q338.15 85.9 339.15 86.7Q340.35 87.7 341 89.1L341.4 89.9L341.6 89.5L341.85 88.9L342.3 88.35Q342.75 87.95 343.25 87.95Q343.65 87.95 344.05 88.25Q354.3 112.05 362.55 136.8Q370 159.3 375.75 182.15Q385.55 221.5 384.9 262.55Q384.3 298.95 380.45 334.6Q375.25 383 362.5 429.8Q356 453.85 346.55 476.85Q332.1 512 295.35 518.3Q273.75 522 255.05 510.75Q227.1 493.95 215.25 463.55Q201.3 427.85 200.6 389.35L198.85 293.3Q198.05 244.95 198.3 196.7Q198.5 147.4 209.6 100Q219.75 56.75 261.75 44.05Q307.55 47.15 336 81.65L336.75 82.35M335.1,89.3Q306.4 54.5 260.5 52.6Q220.2 65.35 211.25 107Q201.2 153.8 201.35 202.6Q201.5 251.1 202.55 299.85Q203.55 348.2 204.9 396.45Q206.25 446.2 236.35 484.9Q239.65 489.15 243.6 493.1Q266.65 511.05 295.45 508.65Q318.85 506.75 331.3 487.05Q358.9 443.5 367.95 393.2Q373.4 362.95 376.05 332.35Q380.3 284.25 378.9 235.85Q377.5 185.85 358.05 139.9Q353 127.9 348.6 115.35L345.7 106.8L345.4 106.3L345.1 106.2L344.6 106.05L344.2 105.65L343.65 105.2L341.1 99.05Q339.2 94.5 335.7 91.1L335.55 90.5L335.4 89.95L335.1 89.3M397.25,56.65Q401.85 104.3 401 153.3Q400.2 202 400.25 250.5Q400.3 299 398.3 347.15Q396.25 395.3 390.8 443Q387.3 473.65 383 504.3Q434.9 501.4 487.15 510.6Q504.95 513.7 522.85 513.85Q525.55 519 522.45 523.65L441.7 517.45L396.25 515.4L378.75 515.1Q379.6 478.85 386.5 442.75Q391.05 418.75 391.85 394Q393.45 345.35 394.4 296.8L396.15 200.15Q396.95 152.15 396.65 104.15Q396.5 84.35 395 64.5Q394.65 59.6 397.25 56.65M414.3,274.45Q409.05 295.05 407.55 316.75Q406.85 326.45 406.55 336.1Q430.4 327.35 455.75 322.05Q465.3 320.1 474.55 318.8Q484.15 318.3 493.45 319.85Q493.8 319.9 494.1 320.25L494.4 320.85Q495.25 323.2 494.85 325.7L494.3 328.2Q451.25 327.05 409.1 343L406.4 343.65Q405.95 375.95 410 408Q415.05 448.3 450.95 468.2Q476.2 482.2 502.3 467.2Q504.25 466.1 506.55 465.35Q508.3 462.6 510.7 460.35Q518.2 453.1 523.15 444L523.85 442.1L523.8 441.55Q523.4 440 523.35 438.45Q523.25 436.3 524.8 434.95Q525.1 434.7 525.5 434.6Q529.75 440.9 526.35 448.65Q519.8 463.8 507.55 475.35Q462.9 499.25 429.25 461.75Q412.55 443.2 408.5 418.65Q401.5 376.55 402.2 333.7Q402.8 296.2 413.9 261.35Q426.5 222 465.55 210.95Q504.15 209.35 528.4 236.75Q531.3 240.1 530.4 244.4Q498.45 212.9 451.7 223.2Q422.65 241.45 414.3 274.45M180.1,106.9Q170.85 85.6 153.35 69.8Q112.6 32.95 57.05 40.15L52 40.55Q51.55 40.75 51.25 41.05L50.9 41.35L50.55 41.45L48.55 41.2Q50.15 86.05 49.5 131.7Q48.75 180.2 49.15 228.9L49.25 242.7L49.75 241.75Q82.25 264.4 120.15 245.05Q133.05 238.45 143.9 228.75Q180.4 196 186.1 149.05Q188.8 126.95 180.1 106.9M48.2,36.15L48.3 35.05L48.35 36.05Q59.9 29.8 74.2 32Q125.2 31.75 161.15 68.6Q196.95 105.35 190.1 157.05Q185.5 191.35 162.8 218.5Q145.25 239.55 121.9 253.75Q94.7 270.3 62.8 260.55Q53.1 257.6 49.3 249.05Q49.45 287.55 49.15 326.15Q48.7 374.45 45.3 422.25Q42.55 460.75 40.95 499.2Q40.85 501.3 39.15 502.05Q37.75 501.8 37.5 500.4Q36.85 452 41.05 403.85Q45.3 355.55 44.8 306.55Q44.3 258 44.75 209.35Q45.2 161.35 45.15 113.35Q45.1 75.55 47.95 39.8L47.7 38.75Q47.6 37.8 47.85 36.9L47.9 36.3L48.2 36.15M73.45,352.05L73.6 351.4Q74 350.6 74.95 350.3L83.55 347.7L84 347.55Q118.75 347.25 120.2 380Q121.25 404.3 102.9 419.9Q100.4 422 97.7 423.6Q117.85 462.4 131.35 504Q132.85 508.7 129.65 511.85Q119.45 491.6 112.65 468.45Q108.6 454.6 101.45 441.75Q96.75 433.15 95 425Q89.5 427.5 83.1 428L72.45 427.3L70.8 447.35Q68.35 474.3 63.4 500.4Q58.55 490.85 61.45 477.1Q63.95 465.15 65.15 452.9Q69.7 405.25 72.15 357.45Q72.25 355.05 73.4 353.5L73.4 353.25L73.4 352.65L73.45 352.05M106.15,361.6Q92.45 350.45 75.4 355.6L73.1 417.95Q83.55 419.85 93.05 416.45Q109.7 410.5 115.05 392.05Q120.55 373.3 106.15 361.6M-90.75,166.5L-91.1 166.85Q-94.9 164.9 -92.2 161.5L-92.15 161.25Q-88.9 162.7 -90.75 166.5" />
</g>
</svg>
