<?xml version="1.0" encoding="utf-8"?>
<svg version="1.1" id="Layer_1"
xmlns="http://www.w3.org/2000/svg"
xmlns:xlink="http://www.w3.org/1999/xlink"


xml:space="preserve">
q-1.45 44.65 -1.05 89.8q-0.35 -29.65 -1.65 -58.95q-4.05 37.15 -4.1 75.65q0 22.35 -2.95 44.1q-2.3 16.9 3.55 29.4q5.1 -14.25 5.4 -30.75q0.45 -23.7 0.35 -47.2q18.7 0.4 37.5 -2.75q0.25 28.5 -3.05 56.8q-1.9 16.55 3.3 29.9q6.35 -34.7 6.45 -72.5q0.2 -59.75 -5.2 -118.45q-0.6 -0.2 -0.65 0.25q-41.75 0.7 -83 5.75q-4.25 6 0 12q-0.45 1.8 -0.25 4.1q1.2 15.85 0.9 31.45q-1.2 59.6 -7.6 118.25q-1.45 13.65 4.65 21.7q1.8 -1.85 2.05 -4.5q2.8 -28.75 4.45 -57.65q3.25 -57.15 -0.4 -113.55q3.6 -6.65 -0.65 -12.65q-11.7 6.2 -17.3 17.6q-26.5 53.65 -21 114.05q3.2 35.1 32.6 52.45q5.75 3.35 12.25 3.55q44.3 1.25 60 -39.85q21.85 -57.4 4.05 -116.05q-12.8 -42.25 -59.3 -37.05q-5.6 2.35 -11.3 5.3q26.6 28.25 22.95 74.5q-1.8 22.75 -11.75 43.15q-8.15 16.75 -23.65 27q-11.65 7.75 -25.45 6.5q-15.9 -1.65 -28.15 -12.2q-15.7 -13.4 -17.6 -34.15q-4.85 -52.9 20.55 -97.4q5.05 -8.9 14.1 -14.05q12.4 -7.25 26.25 -4.85q-0.75 0.1 -0.8 0.3q-5.6 45.3 -6.7 91.35q-0.1 1.85 0.3 3.5q-0.25 29.65 -2.05 59.15q-0.8 13.6 5.05 21.6q3.1 -33.35 2.35 -68.25q10.95 2.45 21.8 -0.8q38.15 -11.45 38.7 -48.8q0.7 -43.9 -39.55 -57.75q-4.05 -1 -8 0.75q3.75 -41.65 4 -75q22.2 -7.6 38.9 9.8q17 17.75 7.2 39.1q-9.8 21.25 -32.6 25.65q-8.75 1.55 -17.5 0.45<g id="389" transform="matrix(1, 0, 0, 1, -131.9, 0)">
<path style="fill:#000000;fill-opacity:1" d="M424.2,182Q429.6 240.7 429.4 300.45Q429.3 338.25 422.95 372.95Q417.75 359.6 419.65 343.05Q422.95 314.75 422.7 286.25Q403.9 289.4 385.2 289Q385.3 312.5 384.85 336.2Q384.55 352.7 379.45 366.95Q373.6 354.45 375.9 337.55Q378.85 315.8 378.85 293.45Q378.9 254.95 382.95 217.8L383.45 217.75Q384.75 247.05 385.1 276.7L417.95 271.7L422.5 272.05Q422.1 226.9 423.55 182.25Q423.6 181.8 424.2 182M406.1,190.9L405.45 191.75L359.8 194.25Q363.45 250.65 360.2 307.8Q358.55 336.7 355.75 365.45Q355.5 368.1 353.7 369.95Q347.6 361.9 349.05 348.25Q355.45 289.6 356.65 230Q356.95 214.4 355.75 198.55Q355.55 196.25 356 194.45L322.45 196Q318.2 190 322.45 184Q363.7 178.95 405.45 178.25Q409.7 184.25 406.1 190.9M256.95,179.25Q303.45 174.05 316.25 216.3Q334.05 274.95 312.2 332.35Q296.5 373.45 252.2 372.2Q245.7 372 239.95 368.65Q210.55 351.3 207.35 316.2Q201.85 255.8 228.35 202.15Q233.95 190.75 245.65 184.55Q251.35 181.6 256.95 179.25M273.2,193.75Q259.35 191.35 246.95 198.6Q237.9 203.75 232.85 212.65Q207.45 257.15 212.3 310.05Q214.2 330.8 229.9 344.2Q242.15 354.75 258.05 356.4Q271.85 357.65 283.5 349.9Q299 339.65 307.15 322.9Q317.1 302.5 318.9 279.75Q322.55 233.5 295.95 205.25L290.55 200.15L275.45 197.5L273.2 193.75M153,177.5Q156.95 175.75 161 176.75Q201.25 190.6 200.55 234.5Q200 271.85 161.85 283.3Q151 286.55 140.05 284.1L140.1 299.95Q140.85 334.85 137.75 368.2Q131.9 360.2 132.7 346.6Q134.5 317.1 134.75 287.45L134.9 278.7Q134.5 277.05 134.6 275.2L135 272.4Q136.1 226.35 141.7 181.05Q141.75 180.85 142.5 180.75L143 185.4L143.5 183.5L152.15 178.15L153 177.5M158,268.55Q180.8 264.15 190.6 242.9Q200.4 221.55 183.4 203.8Q166.7 186.4 144.5 194Q144.25 227.35 140.5 269Q149.25 270.1 158 268.55" />
</g>
</svg>
