<?xml version="1.0" encoding="utf-8"?>
<svg version="1.1" id="Layer_1"
xmlns="http://www.w3.org/2000/svg"
xmlns:xlink="http://www.w3.org/1999/xlink"


xml:space="preserve">
q-26.8 -56.25 -87.35 -71.65q-2.5 -0.85 -4 0.8q-0.9 0.95 -1.05 2.2q-1 4.75 -0.75 10.45q2.7 59.15 4.75 118.45q2 59.3 2.85 119.3q0.8 59.75 -2.8 119.25q-3.6 59.15 -5.55 118.5q-0.3 9.2 -1.15 11.7q-1.5 0.9 -1.95 5.85q-0.5 5.35 0.15 9.9q-0.35 1.65 -0.3 3.5q0.15 4.15 3.1 6.75q16.3 -4.85 29.3 -16.6q44.4 -40.1 68.2 -95.35q17 -39.6 22.5 -82.85q7.55 -58.95 2.25 -118.65q-5.25 -59.05 -20.35 -116.3q-3.95 -14.9 -10.55 -28.8q10.75 58.15 10.35 118q-0.45 59.45 -16.75 116.7q-8.85 31 -25.7 58.8q-27.35 44.95 -72.85 70.35q1.9 -17.55 2.35 -35.65q1.35 -59.35 4.3 -118.5q2.95 -59.65 2 -119.2q-0.95 -59.9 -3.25 -119.3q-2.15 -55.15 -6.15 -109.5q36.35 9.55 60.85 38.1q9.2 8.3 14.85 19.2q19.45 37.65 27.3 80.3q-23.65 46.5 -17.25 100.65q3 25.35 3.5 50.85q0.15 7.1 3.3 13.6q2.55 5.35 6.35 9.7q23.95 4.55 32.5 -17.35q2.2 -5.75 -1.75 -10.65q-9.25 10.75 -23.35 9q-2.5 -0.15 -4.6 -1.1q-9.9 -33.8 -7.75 -69.75q1.25 -1.25 1.6 -3.15q0.6 -3.05 -0.65 -5.8q-14.25 -2.4 -28.1 0.1q-3.4 -38.25 10.45 -74.05q12 -3.8 19.2 9.1q1.55 2.8 2.8 1.65q0.15 -18.9 -18.4 -21.7q-18.5 19.4 -0.25 39.65q3.65 4.05 6.5 8.85q-1.2 24.3 18.6 14.85q11 -5.3 5.25 -16.6q-5.55 -10.95 -14.6 -19q-0.5 -8.65 5.95 -12.7q0.9 -0.55 2.3 -0.3q3.45 -1.35 2.4 -7.4q-0.9 -5.4 -5.45 -8.6q-2.4 31.75 -31.3 38.15q-4.05 -4.05 -4.3 -9.6q-2.3 -48.5 -1.7 -96.65q-3.7 31.1 -5.45 64.45q-1.15 20.8 3.9 40.3q4.25 16.45 19.85 11.9q9.05 -2.65 13.7 -10.9q12.95 -22.95 14.8 -50.2q2 -29.95 -6.05 -55.05q-1.15 16.2 0.15 34.55q1.25 18.25 -0.1 36.05q-19 17.3 -0.5 37.25q4.75 5.15 7.5 11.75q-3.25 2.15 -7.1 1.55q-2.2 -0.35 -4.15 -1.8q-3.35 4.05 -3 9.5q0.3 4.7 3.65 8.05q13.5 -19.9 -2.3 -38.2q-3.3 -3.85 -7.45 -6.8q0.05 -4.8 3.3 -8.2q1.15 -1.2 2.45 -2.3q2.1 -1.6 2 -4.6q-0.15 -4.9 -2.95 -8.9q-27.3 33.4 -24.3 81.95q1.95 31.5 -0.35 63.3q-0.7 9.65 1.9 18.95q1.9 6.75 5.25 12.8q27.55 -14.6 22.5 -42.5q-7.7 18.7 -23.25 31.5q-4 -30.55 -1.3 -61.65q1.95 -3.15 1.3 -6.6q-0.4 -2 -1.65 -3.55q-10.55 -48.2 16.7 -84.35q1.75 2 2.85 0.6q1.2 -13.75 -12.15 -17.3q-0.85 21.45 1.85 42.9q0.9 7.15 2.5 12.85q1.9 12.7 7.5 24.1q10.9 -24.75 14.25 -51.35q0.7 -5.35 -0.25 -9.4q1.1 13.25 1.2 26.65q-6.15 14.25 -4.7 31.6q-8.7 19.95 -12 42.45q-2.6 17.95 -7.25 35.45q-5.7 21.25 -10.65 42.55q-4.95 21.45 -9.05 42.95q-2.75 14.4 -5.25 28.85q-2.5 14.5 -6.9 28.7q-3.7 11.85 3.6 21.3q2.95 43.1 12.75 84.5q0.55 2.25 1.7 4.35q6.15 -24.5 -0.45 -51.2q-4.75 -19.35 -7.05 -38.05q2.65 -4.85 0.8 -9.9q-9.35 18.6 -6.15 42.6q1.45 10.75 2.4 21.65q-17.2 -11.5 -37.55 -12.9q-0.5 0.05 -1 0.45q-0.9 1.35 -0.95 3q0.05 1.4 0.65 2.75q-5 22.7 -4.85 48q0 59.55 -1.75 119.25q-1.75 59.4 -2.85 119.2q-1.1 59.4 0.45 118.5q0.7 2.8 3.25 1.5q3.35 -57.35 3.4 -115.5q0.05 -59.8 1.85 -119.2q8.85 8.25 22.65 4.05q23.65 -10.25 32.75 -33.85q21.45 -55.65 15.65 -116.3q-4.55 -48.3 -27.65 -90.1q18.6 23.55 25.3 53.35q6.6 29.15 5.35 58.95q-1.55 37.6 -15.9 71.6q-14.35 33.95 -51.6 29.8q0.15 -56.45 -1.05 -111.15q15.35 3.25 30.3 9.45q3.75 1.6 6.2 4.7q1 56.95 3.2 113.25q14.6 -6.75 32 -3q3.2 -4.55 0.75 -9.75q-16.2 -4.2 -30.25 0.25q2 -55.4 -1.8 -109.5q-0.95 -0.15 -1.45 0.65q-2.6 4 -2.5 8.85q-14.9 -16.75 -36.9 -19.6q-36.1 21.25 -44.5 63.2q-11.6 57.95 -8.45 117.7q1.55 29.8 3.6 59.45q2.6 37.9 34.05 55.85q16.65 9.5 31.85 -0.2q39.45 -25.2 53.45 -71.55q17.4 -57.6 8.85 -117.35q-7.4 -51.2 -41.6 -86.85q29.9 45.85 29.95 101.95q-1.55 5.85 -1.7 12q-1.85 64.1 -44.5 110.3q-12.75 13.8 -30.8 10.85q-30.2 -4.95 -35.7 -34.1q-9.55 -50.6 -11.3 -102.55q3.5 -28.05 5.35 -56.25q3.25 -49.65 43.65 -77.2q2.6 -1.4 5 -0.85q9.75 2.25 8.75 5.85q5.8 -1.2 9.3 2.9q-0.05 1.95 0.7 3.75q3.5 8.55 11.8 11.75q5.35 5.15 9.3 11.25q-4.45 19.75 -3.15 41.25q0.6 10.05 2.45 17.65q2.45 24.55 9.4 44.65q10.35 -42.1 11 -86.25q0.2 -15.85 -3.25 -28.5q-1.05 0.9 -1.05 2.25q0.25 45.6 -7.45 89.5q-7.1 -49.3 -13.75 -98.25q-5.9 22.1 -7.6 46.95q-1.65 24.4 -5.15 48.55q-2.3 16.05 1 28.5q6.75 -45.35 10.75 -91.2q3.35 22.9 5.6 45.85q-7.5 2.45 -7.05 10.1q4.55 19.05 19.1 32.25q-4.75 -18.4 -15.5 -34.9q19.25 -16.25 4.5 -36.05q-2.65 15.2 -17.45 17.4q9.35 -2.2 15.6 4.55q-30.4 55.2 -10.25 117q9.55 3.9 13.2 -9q5.55 -24.9 3.85 -50.5q-8.15 -0.5 -14 4.5q-0.55 15.15 -11.05 26.25q-13.5 -38.55 -2.3 -83.1q0.8 -3.2 2.6 -5.9q3.05 -4.55 7.5 -8q4.75 -10.4 -4.05 -17.6<g id="410" transform="matrix(1, 0, 0, 1, -20.45, 0)">
<path style="fill:#000000;fill-opacity:1" d="M517.1,110.45Q532.2 167.7 537.45 226.75Q542.75 286.45 535.2 345.4Q529.7 388.65 512.7 428.25Q488.9 483.5 444.5 523.6Q431.5 535.35 415.2 540.2L414.7 543.2L413.1 540.8L412.45 540.95Q409.5 538.35 409.35 534.2Q409.3 532.35 409.65 530.7Q409 526.15 409.5 520.8Q409.95 515.85 411.45 514.95Q412.3 512.45 412.6 503.25Q414.55 443.9 418.15 384.75Q421.75 325.25 420.95 265.5Q420.1 205.5 418.1 146.2Q416.05 86.9 413.35 27.75Q413.1 22.05 414.1 17.3L413.8 15.25L413.9 12.95Q414.05 11.7 414.95 10.75Q416.45 9.1 418.95 9.95L419.2 10Q479.75 25.4 506.55 81.65Q513.15 95.55 517.1 110.45M495.3,77.7Q489.65 66.8 480.45 58.5Q455.95 29.95 419.6 20.4L416.9 19.7Q420.9 74.05 423.05 129.2Q425.35 188.6 426.3 248.5Q427.25 308.05 424.3 367.7Q421.35 426.85 420 486.2Q419.55 504.3 417.65 521.85Q463.15 496.45 490.5 451.5Q507.35 423.7 516.2 392.7Q532.5 335.45 532.95 276Q533.35 216.15 522.6 158Q514.75 115.35 495.3 77.7M404.95,27Q403.7 28.15 402.15 25.35Q394.95 12.45 382.95 16.25Q369.1 52.05 372.5 90.3Q386.35 87.8 400.6 90.2L401.15 91.3Q402.4 94.05 401.8 97.1Q401.45 99 400.2 100.25L373.5 99.15Q371.35 135.1 381.25 168.9Q383.35 169.85 385.85 170Q399.95 171.75 409.2 161L412.25 149.75L412.2 153.5Q416.15 158.4 413.95 164.15Q405.4 186.05 381.45 181.5L379.85 179.8Q376.05 175.45 373.5 170.1Q370.35 163.6 370.2 156.5Q369.7 131 366.7 105.65Q360.3 51.5 383.95 5L386.55 5.3Q405.1 8.1 404.95 27M352.2,118.75Q356.75 121.95 357.65 127.35Q358.7 133.4 355.25 134.75L352.95 128.75Q351.55 128.5 350.65 129.05Q344.2 133.1 344.7 141.75Q353.75 149.8 359.3 160.75Q365.05 172.05 354.05 177.35Q334.25 186.8 335.45 162.5L345.95 172.75L356.2 167Q353.35 162.2 349.7 158.15Q331.45 137.9 349.95 118.5L352.2 118.75M325.1,158.55Q323.8 140.2 324.95 124Q333 149.1 331 179.05Q329.15 206.3 316.2 229.25Q311.55 237.5 302.5 240.15Q286.9 244.7 282.65 228.25Q277.6 208.75 278.75 187.95Q280.5 154.6 284.2 123.5Q283.6 171.65 285.9 220.15Q286.15 225.7 290.2 229.75L293.7 232.75Q322.6 226.35 325 194.6Q326.35 176.8 325.1 158.55M341.2,358.7Q344 362.7 344.15 367.6Q344.25 370.6 342.15 372.2L339.45 367.7L336.7 366.95Q335.4 368.05 334.25 369.25Q331 372.65 330.95 377.45Q335.1 380.4 338.4 384.25Q354.2 402.55 340.7 422.45L329.5 421.9L328.6 421Q325.25 417.65 324.95 412.95Q324.6 407.5 327.95 403.45L329.7 411.45Q331.65 412.9 333.85 413.25Q337.7 413.85 340.95 411.7L343.95 406.45Q341.2 399.85 336.45 394.7Q317.95 374.75 336.95 357.45L341.2 358.7M400,377.95Q398.9 379.35 397.15 377.35L389.95 369.95L385.95 370.2Q358.7 406.35 369.25 454.55L393.45 450.7Q394.7 452.25 395.1 454.25Q395.75 457.7 393.8 460.85L368.8 464.45Q366.1 495.55 370.1 526.1L373.95 525.95Q389.5 513.15 397.2 494.45Q402.25 522.35 374.7 536.95L368.45 537.2Q365.1 531.15 363.2 524.4Q360.6 515.1 361.3 505.45Q363.6 473.65 361.65 442.15Q358.65 393.6 385.95 360.2L387.85 360.65Q401.2 364.2 400 377.95M287.95,9.4Q284.6 36 273.7 60.75L270.2 54.1Q264.6 42.7 262.7 30L253.3 59.5Q251.7 53.8 250.8 46.65Q248.1 25.2 248.95 3.75L253.45 46.5L261.85 17.15L272.95 48.25L287.7 0Q288.65 4.05 287.95 9.4M267.2,62L266.45 110.75L286.4 111.4L285.2 118.5L263.7 120.25Q263.6 106.85 262.5 93.6Q261.05 76.25 267.2 62M227.25,5.65L248.95 148.55L250.45 148.5L251.35 149.95L252 151.35Q253.85 156.4 251.2 161.25Q253.5 179.95 258.25 199.3Q264.85 226 258.7 250.5Q257.55 248.4 257 246.15Q247.2 204.75 244.25 161.65L196.6 158.8L179.7 246.5Q172.4 237.05 176.1 225.2Q180.5 211 183 196.5Q185.5 182.05 188.25 167.65Q192.35 146.15 197.3 124.7Q202.25 103.4 207.95 82.15Q212.6 64.65 215.2 46.7Q218.5 24.2 227.2 4.25L227.25 5.65M219.9,62L198.25 150.15L242.4 148.75L226.05 32.85L219.9 62M297.05,100.35Q293.85 76.35 303.2 57.75L301.45 112.5L319.95 113.75L319.95 121.25L299.45 122Q298.5 111.1 297.05 100.35M75.25,17.75Q98.35 59.55 102.9 107.85Q108.7 168.5 87.25 224.15Q78.15 247.75 54.5 258Q40.7 262.2 31.85 253.95L30.5 303.75Q28.7 363.15 28.65 422.95Q28.6 481.1 25.25 538.45Q22.7 539.75 22 536.95Q20.45 477.85 21.55 418.45Q22.65 358.65 24.4 299.25Q26.15 239.55 26.15 180L25.8 60.75Q25.65 35.45 30.65 12.75Q30.05 11.4 30 10L30.05 7.75Q30.1 6.1 31 4.75Q31.5 4.35 32 4.3L36.25 4Q56.6 5.4 73.8 16.9L75.25 17.75M62.75,22.8Q47.8 16.6 32.45 13.35Q33.65 68.05 33.5 124.5L33.05 184.5L32.1 241.2Q69.35 245.35 83.7 211.4Q98.05 177.4 99.6 139.8Q100.85 110 94.25 80.85Q87.55 51.05 68.95 27.5Q66.5 24.4 62.75 22.8M114.75,177.15Q115.25 176.35 116.2 176.5Q120 230.6 118 286L117.95 286.75Q132 282.3 148.2 286.5Q150.65 291.7 147.45 296.25Q130.05 292.5 115.45 299.25Q113.25 242.95 112.25 186Q112.15 181.15 114.75 177.15M251.2,261.75Q285.4 297.4 292.8 348.6Q301.35 408.35 283.95 465.95Q269.95 512.3 230.5 537.5Q215.3 547.2 198.65 537.7Q167.2 519.75 164.6 481.85Q162.55 452.2 161 422.4Q157.85 362.65 169.45 304.7Q177.85 262.75 213.95 241.5Q235.95 244.35 250.85 261.1L251.2 261.75M249.45,278.75Q241.15 275.55 237.65 267Q236.9 265.2 236.95 263.25Q233.45 259.15 227.65 260.35L227.45 260Q228.45 256.4 218.7 254.15Q216.3 253.6 213.7 255Q173.3 282.55 170.05 332.2Q168.2 360.4 164.7 388.45Q166.45 440.4 176 491Q181.5 520.15 211.7 525.1Q229.75 528.05 242.5 514.25Q285.15 468.05 287 403.95Q287.15 397.8 288.7 391.95Q288.65 335.85 258.75 290Q254.8 283.9 249.45 278.75M309.05,401.45Q307.75 379.95 312.2 360.2L311.5 419.1Q309.65 411.5 309.05 401.45M301.7,447.2Q297.7 493.05 290.95 538.4L290.45 539.95Q287.15 527.5 289.45 511.45Q292.95 487.3 294.6 462.9Q296.3 438.05 302.2 415.95Q308.85 464.9 315.95 514.2L315.95 514.7Q323.65 470.8 323.4 425.2Q323.4 423.85 324.45 422.95Q327.9 435.6 327.7 451.45Q327.05 495.6 316.7 537.7Q309.75 517.6 307.3 493.05Q305.05 470.1 301.7 447.2M99.2,416.7Q113.95 436.5 94.7 452.75Q105.45 469.25 110.2 487.65Q95.65 474.45 91.1 455.4L83.7 457.35L80.4 481.45L79.25 456.85L78.25 450.3L79.65 448.9L82.6 426.3L81.1 425.55L80.95 424.8Q80.5 417.15 88 414.7L99.2 416.7M85.35,424.35L84.5 447.6Q99.3 445.4 101.95 430.2L100.95 428.9Q94.7 422.15 85.35 424.35M351.15,420.1Q359.95 427.3 355.2 437.7L351.95 429.7Q347.5 433.15 344.45 437.7Q342.65 440.4 341.85 443.6Q330.65 488.15 344.15 526.7Q354.65 515.6 355.2 500.45L343.45 498.95L344.2 495.2Q350.05 490.2 358.2 490.7Q359.9 516.3 354.35 541.2L352.9 527.2Q349.25 540.1 339.7 536.2Q319.55 474.4 349.95 419.2L351.15 420.1" />
</g>
</svg>
