<?xml version="1.0" encoding="utf-8"?>
<svg version="1.1" id="Layer_1"
xmlns="http://www.w3.org/2000/svg"
xmlns:xlink="http://www.w3.org/1999/xlink"


xml:space="preserve">
q-0.55 0.1 -1.05 0.5q-1.05 2.85 -0.95 5.95q-2.9 13.75 -3.1 30.05q-0.65 59.85 0.6 119.25q1.2 59.75 -0.85 119.25q1.05 1.8 3.25 1.75q4.6 -5.7 4 -14q2.1 -2.15 3.75 0.5q2.4 1.2 -0.5 -3q2.55 -41.35 3.7 -83.25q1.5 -55.55 0.95 -111.3q31.4 -3.9 44.2 -31.8q25.55 -55.8 6.5 -115.5q-13.15 -41.25 -56.5 -40.9q-4.4 1.5 -9.45 2.5q19.75 -4.7 35.55 7.05q19.35 14.4 24.65 38.45q8.15 36.8 -4.3 71.95q-14.15 40.1 -57.7 40.7q-0.5 -55.05 1.25 -109.8q0.75 -24.7 -2.1 -48q-2.5 20.35 1.3 41.9q1.55 8.8 4.7 15.1q0.8 29.6 8.25 58.2q1.55 5.85 4.45 9.55q-4.05 -41.5 -8.55 -82.6q-8.8 13.2 -10.95 31.1q-2.05 17.1 -7.7 33.4q-4.55 13.1 1.15 21.5q7.85 -26.05 13.65 -53.6q3.5 -16.75 3.85 -32.4q-4.45 0.4 -8.15 2.55q-40.2 23.35 -52.15 69.25q-14.7 56.6 -19.2 114.9q-4.55 59.15 -1.45 118.4q1.15 22.1 4.3 43.85q5.9 40.35 41.05 60.45q24.4 -7.2 43.65 -25.9q43.7 -42.4 56.6 -101.85q12.5 -57.65 13.95 -117.2q1.25 -52.65 -13.25 -102.4q-3.9 -13.35 -8.1 -26.35q-10.35 -32.3 -42.35 -38.75q-0.5 0.25 -0.9 0.6q31.1 47.2 33.5 105.35q1.1 25.95 -0.3 51.8q-1.8 32.35 -6.05 64.25q-1.55 11.5 -4.35 22.65q-3.3 13 -7.95 25.45q-4.25 10.7 -9.6 20.75q-8.35 15.85 -19 30.25q-10.95 14.85 -26.2 25.1q-13.2 8.9 -28.5 13.5q-29.4 -19.9 -36.45 -57.6q-3.85 -20.4 -4.45 -41.05q-1.1 -40.05 0.75 -80.25q1.35 -29.65 4.8 -59.2q2.55 -22 7.85 -43.6q4 -14.25 8.5 -28.35q6.65 -20.85 21.6 -36.7q12.3 -12.95 29.95 -16.8q5.6 -1.15 11.25 -1.05q10.65 3.1 19.05 10.35q-2.95 2.55 -2.9 6.5q-1.75 5.25 -2.15 11.5q-3.5 59.35 -4.5 119.35q-1 59.35 -1.3 119.25q-0.3 58.9 -2.25 117.7q-3.45 -9.15 -3.95 -18.85q0.6 22.35 6.4 42.85q1.5 -0.35 1.55 -0.9q5 -42.95 5.8 -86.85q1.1 -59.3 1.85 -118.95q32.2 2.4 47.4 -24.5q10.8 -19.15 13.95 -40.9q6.25 -43.65 -3.35 -87q-9 -40.5 -50.05 -43.45q2.05 -16.45 1.15 -32q22.85 -5.65 38.85 14.7q7.75 9.8 11.25 21.8q15.6 53.2 -6.95 101.85q-3.75 8.1 -10.5 13.5q-16.15 12.85 -37.45 14.3q0.25 -14.95 2.05 -29.8q-10.85 51.05 -9.25 102.85q1.85 29.2 15.25 53.55q-0.75 -29 -11.9 -55.9q8.8 -7.1 12 -17.9q8.4 -25.65 -17.3 -32.45q-6.55 5.4 -14.45 5.1q0.85 -15.05 0.7 -30.15q15.55 -8.4 21.2 8.55q-1.1 3.8 -2.65 7.4q-2.05 4.8 -4.8 9.1q-3.2 45.1 -2.9 90.25q0.05 1.55 0.75 3q1.7 0.6 2.45 -0.5q21.1 0.15 42.5 2.5q1.8 -2.25 1.8 -5.25q-0.1 -2.65 -2 -4.5q-6.5 -0.3 -12.05 1.75q1.65 -19.15 2.8 -38.3q1.6 -26.1 -3 -50.35q-0.65 -0.15 -0.7 0.3<g id="403" transform="matrix(1, 0, 0, 1, -32.1, 0)">
<path style="fill:#000000;fill-opacity:1" d="M394.95,61Q438.3 60.65 451.45 101.9Q470.5 161.6 444.95 217.4Q432.15 245.3 400.75 249.2L388.1 249.9Q388.65 305.65 387.15 361.2Q386 403.1 383.45 444.45L386.2 445.45Q389.1 449.65 386.7 448.45Q385.05 445.8 382.95 447.95Q383.55 456.25 378.95 461.95Q376.75 462 375.7 460.2L380.05 341.75Q382.1 282.25 380.9 222.5Q379.65 163.1 380.3 103.25Q380.5 86.95 383.4 73.2L383.1 70.75Q383 67.65 384.05 64.8L384.45 64Q384.95 63.6 385.5 63.5Q390.55 62.5 394.95 61M387.05,76.25Q389.9 99.55 389.15 124.25Q387.4 179 387.9 234.05Q431.45 233.45 445.6 193.35Q458.05 158.2 449.9 121.4Q444.6 97.35 425.25 82.95Q409.45 71.2 389.7 75.9L387.05 76.25M357.1,172.8Q361.6 213.9 365.65 255.4Q362.75 251.7 361.2 245.85Q353.75 217.25 352.95 187.65L342.2 219.75Q339.05 213.45 337.5 204.65Q333.7 183.1 336.2 162.75L341.55 196.2L356.2 162L357.1 172.8M330.6,198.9Q324.8 226.45 316.95 252.5Q311.25 244.1 315.8 231Q321.45 214.7 323.5 197.6Q325.65 179.7 334.45 166.5Q334.1 182.15 330.6 198.9M244.95,56Q276.95 62.45 287.3 94.75Q291.5 107.75 295.4 121.1Q309.9 170.85 308.65 223.5Q307.2 283.05 294.7 340.7Q281.8 400.15 238.1 442.55Q218.85 461.25 194.45 468.45Q159.3 448.35 153.4 408Q150.25 386.25 149.1 364.15Q146 304.9 150.55 245.75Q155.05 187.45 169.75 130.85Q181.7 84.95 221.9 61.6Q225.6 59.45 230.05 59.05L242.7 58L244.05 56.6Q244.45 56.25 244.95 56M263.45,84.25L262.6 83.55Q254.2 76.3 243.55 73.2L242.7 71.85Q237.05 71.75 231.45 72.9Q213.8 76.75 201.5 89.7Q186.55 105.55 179.9 126.4Q175.4 140.5 171.4 154.75L167.7 169Q162.4 190.6 159.85 212.6Q156.4 242.15 155.05 271.8Q153.2 312 154.3 352.05Q154.9 372.7 158.75 393.1Q165.8 430.8 195.2 450.7Q210.5 446.1 223.7 437.2Q238.95 426.95 249.9 412.1Q260.55 397.7 268.9 381.85Q274.25 371.8 278.5 361.1L281.3 353.95Q285.95 341.5 289.25 328.5Q292.05 317.35 293.6 305.85Q297.85 273.95 299.65 241.6Q301.05 215.75 299.95 189.8Q297.55 131.65 266.45 84.45L263.45 84.25M53,56.5L54 56.15L57.95 54.9L58 54.75Q99.05 57.7 108.05 98.2Q117.65 141.55 111.4 185.2Q108.25 206.95 97.45 226.1Q82.25 253 50.05 250.6L47.7 250.75Q46.95 310.4 45.85 369.7Q45.05 413.6 40.05 456.55Q40 457.1 38.5 457.45Q32.7 436.95 32.1 414.6Q32.6 424.3 36.05 433.45L36.5 434.2Q38.45 375.4 38.75 316.5Q39.05 256.6 40.05 197.25Q41.05 137.25 44.55 77.9Q44.95 71.65 46.7 66.4Q46.65 62.45 49.6 59.9L51.5 57L51.65 58L53 56.5M49.5,131.25L47.9 235.6Q69.2 234.15 85.35 221.3Q92.1 215.9 95.85 207.8Q118.4 159.15 102.8 105.95Q99.3 93.95 91.55 84.15Q75.55 63.8 52.7 69.45Q53.6 85 51.55 101.45Q49.75 116.3 49.5 131.25M104.1,283.35Q100.9 294.15 92.1 301.25Q103.25 328.15 104 357.15Q90.6 332.8 88.75 303.6L78.95 304.3L71 356.35Q69.4 304.55 80.25 253.5L84.5 250.75L86.8 250.9Q112.5 257.7 104.1 283.35M99.05,278.9Q100.6 275.3 101.7 271.5Q96.05 254.55 80.5 262.95Q80.65 278.05 79.8 293.1Q87.7 293.4 94.25 288Q97 283.7 99.05 278.9M71.25,362.45Q75.85 386.7 74.25 412.8Q73.1 431.95 71.45 451.1Q77 449.05 83.5 449.35L84 449.2L110.95 451.9L112.45 452.2Q114.35 454.05 114.45 456.7L114.5 458.2Q114.5 461.2 112.7 463.45Q91.3 461.1 70.2 460.95Q69.45 462.05 67.75 461.45L67.75 460.95Q67.05 459.5 67 457.95L67 456.45L67.05 455.7L67.65 453Q67.35 407.85 70.55 362.75Q70.6 362.3 71.25 362.45" />
</g>
</svg>
