<?xml version="1.0" encoding="utf-8"?>
<svg version="1.1" id="Layer_1"
xmlns="http://www.w3.org/2000/svg"
xmlns:xlink="http://www.w3.org/1999/xlink"


xml:space="preserve">
q15.5 2.6 22.4 16q5.75 11.1 3.95 23.85q-5.1 36.7 -41.8 43.15q2.45 -40.9 0 -81.55q7.35 -2.8 15.45 -1.45q-3.7 4.2 -3.75 11.25q-0.55 59.55 -6.75 118.45q-1.55 14.9 -3.55 29.8q-2.25 16.95 3.3 29.45q1.15 -0.85 1.35 -2.25q4.7 -33.7 8.05 -68.1q12.35 -1.5 23.1 -7.35q3.35 20.65 11.15 41.15q10.2 26.6 23.2 49.75q4.1 -5.9 1.5 -13.15q-14.6 -40.85 -31.95 -80.1q18.4 -21.45 17.85 -50.2q-0.75 -39.75 -40.1 -45.25q-6.55 -0.05 -10.6 5q-1.45 -0.3 -1.6 1q-2.55 25.15 -3.4 50.95q-0.7 1.5 -0.9 3q-0.4 2.65 0.1 5.3q0.3 1.75 1.55 2.95q-1.5 34.35 -3.6 68.75q-0.9 14.15 5.95 21.6q1.2 -1.2 1.3 -3q2 -35.6 4.15 -71.15q49.2 -10.45 44.85 -59.25q-3.35 -37.6 -38.95 -44.8q-4.65 -0.45 -9.25 1.5q-3.65 1.5 -6.85 3.9q22.95 -5.35 38.5 11.05q16.65 17.65 4.7 36.75q-11.8 18.9 -33.55 24.7q-4.2 1.25 -8.5 1.75q22.7 7.95 19.45 32.15q-3.2 24.05 -27.8 21.45q-25.6 -3.1 -21.9 -28.8q3.25 -22.9 24.7 -30.35q7.5 0 14.55 -1.85q34.8 -9.25 29.85 -44.9q-5.15 -37.5 -40.9 -42.25q-8.6 2.6 -12.8 10.35q-18.55 34.4 -3.7 70.65<g id="415" transform="matrix(1, 0, 0, 1, -137.15, 0)">
<path style="fill:#000000;fill-opacity:1" d="M345.95,192.15Q348.4 232.8 345.95 273.7Q382.65 267.25 387.75 230.55Q389.55 217.8 383.8 206.7Q376.9 193.3 361.4 190.7Q353.3 189.35 345.95 192.15M355.95,178Q395.3 183.5 396.05 223.25Q396.6 252 378.2 273.45L372 277.95Q389.35 317.2 403.95 358.05Q406.55 365.3 402.45 371.2Q389.45 348.05 379.25 321.45Q371.45 300.95 368.1 280.3Q357.35 286.15 345 287.65L343.85 300.1Q340.5 334.5 335.8 368.2Q335.6 369.6 334.45 370.45Q328.9 357.95 331.15 341Q333.15 326.1 334.7 311.2Q340.9 252.3 341.45 192.75Q341.5 185.7 345.2 181.5L345.35 183Q349.4 177.95 355.95 178M148.9,181.9Q152.1 179.5 155.75 178Q160.35 176.05 165 176.5Q200.6 183.7 203.95 221.3Q208.3 270.1 159.1 280.55L150.2 281.1L149.45 295.3Q147.3 330.85 145.3 366.45Q145.2 368.25 144 369.45Q137.15 362 138.05 347.85Q140.15 313.45 141.65 279.1L141.25 278.95Q140 277.75 139.7 276Q139.2 273.35 139.6 270.7Q139.8 269.2 140.5 267.7L142.1 267.65L143.5 228.7Q144.35 202.9 146.9 177.75Q147.05 176.45 148.5 176.75L148.9 181.9M159.25,264.95Q181 259.15 192.8 240.25Q204.75 221.15 188.1 203.5Q172.55 187.1 149.6 192.45L150.75 266.7Q155.05 266.2 159.25 264.95M258.3,286.65Q236.85 294.1 233.6 317Q229.9 342.7 255.5 345.8Q280.1 348.4 283.3 324.35Q286.55 300.15 263.85 292.2L258.3 286.65M235.45,355.95Q220.6 319.7 239.15 285.3Q243.35 277.55 251.95 274.95Q287.7 279.7 292.85 317.2Q297.8 352.85 263 362.1Q255.95 363.95 248.45 363.95L240.8 359.25L235.45 355.95" />
</g>
</svg>
