<?xml version="1.0" encoding="utf-8"?>
<svg version="1.1" id="Layer_1"
xmlns="http://www.w3.org/2000/svg"
xmlns:xlink="http://www.w3.org/1999/xlink"


xml:space="preserve">
q7.7 43.6 9.3 88.05q1.2 33.5 -5.85 66.35q-12.95 60.15 -54.4 105.8q-14.5 16 -34.75 14.65q2.9 -59.25 2.75 -118.55q-0.2 -59.85 1.85 -119.25q0.65 -18.7 1.65 -36.65q3 -54.4 -0.75 -107.9q54.3 14.4 70 69.1q5.8 20.25 9.5 41.1q-2.45 11.9 -2.4 25.55q0.15 59.95 -1.7 119.25q-1.85 59.05 -2.2 118.5q-0.3 59.35 -4.4 118.45q-1.25 -0.15 -1.05 1.5q-2.7 8.75 3.75 13q0.15 5.5 4.35 9q5.45 1.45 10.15 -0.6q28.65 -12.5 46.35 -38.7q23.85 -35.4 34.75 -76.8q15.15 -57.65 8.7 -117.35q-6.3 -58.9 -23.05 -115.35q-16.75 -56.2 -73.15 -68.15q-2.4 1.55 -2.6 4.95q-0.2 3.1 1.05 5.5q-1.65 28.55 -3.9 57q-15 -37.1 -24.95 -75.65q-2.25 0.65 -2.2 3.5q1.3 44.45 -1.55 87.75q1.8 -0.8 2.15 -3.25q4.3 -28.8 4.6 -57.75q9.1 32.45 22.75 62.75q2.05 -1.45 2.4 -4.2q3.5 -29.85 6.6 -60q1.35 -12.75 -4 -20.05q-2.05 4.45 -0.8 6.25q11.85 -5.1 23.85 -0.9q-4.15 -26.5 -27.65 -9.8q-15.25 10.8 -17.45 29.75q-2.1 18.35 -3.8 36.7q-1.75 18.45 -3.05 36.9q-0.85 12.3 -1.45 24.65q-0.65 13.9 -0.9 27.85q-0.25 15.95 -1.05 30.2q-0.9 15.3 -1.4 30.65q0.05 14.8 -0.4 29.55q-0.65 20.55 5.3 39.95q7.7 24.95 31.55 18.65q23.35 -6.4 25.6 -29.25q1.1 -11.4 -2.9 -21.7q2.3 17.25 -13.25 30.45q-14.1 11.9 -29.8 2.95q-1.2 -0.7 -2.2 -1.65q-2.15 -13.6 -3.2 -27.4q0.35 -40.2 2.65 -80.25q14.8 4.75 30.05 1.7q2.45 -4.4 1.3 -9.4q-0.45 -2.05 -1.7 -3.65q-4.75 -86.2 20.9 -165.9q0.95 -3 4.25 -4.45q-2.9 13.2 -17.05 13q0.65 -26.1 -19.9 -4.2q-16.15 17.35 -16.05 41.15q0.1 22.05 20.55 22.5q3.65 0.1 6.95 -1.4q6.65 -18.75 3.8 -38.5q-33.95 1.95 -18.65 -36.4q7 -17.45 25.15 -14.1q-5.55 -19.85 -24.75 -20.15q-9.45 64.05 -12.6 131.65q-0.35 7.5 1.1 14.8q17.8 5.1 29 -8.35q16.4 -19.55 14.95 -46.95q-0.8 -15.7 -11.55 -27q17.45 -15.3 11 -38.15q-6.95 16.3 -23.65 21.95q1.05 -23.55 0.7 -46.9q20.15 1.65 23.55 22.6q-0.1 1.2 -0.6 2.35q-1.8 30.6 -2.95 61.25q-9 -36.3 -18.25 -70.75q-4.7 20.8 -5.7 42.7q-1 22.8 1.7 41.8q3.4 -30.35 4.25 -60.7q6.85 35.15 19 66.75q5.65 -44.95 3.55 -89.2q-0.35 0 -0.6 0.2q-4 3.45 -1.65 8.8q2.15 59.3 1.9 119.3q-0.1 15.05 0.4 29.95q1.8 53.35 -19.65 100.65q-7 15.4 -19.7 26.55q-22.9 20.05 -48.65 2.65q-4.45 -3.05 -7.8 -7q-12.1 -14.3 -13.95 -34.2q-5.55 -59.2 -2.3 -118.7q3.25 -59.3 8.2 -118.3q5 -59.45 2.9 -117.85q-4.2 11.35 -4.85 25.45q-2.75 57.5 -6.05 114.85q-3.3 59.5 5.9 117.85q5.2 33.05 39.9 40.25q31.8 6.55 48.75 -21.85q10.35 -17.5 16.65 -36.7q12.2 -37.5 13.2 -77.5q1.4 -59.3 -0.35 -118.5q-0.35 -9.4 0.2 -18.65q0.9 -13.9 -5.9 -21.6q-1.9 1.8 -2 4.5q-1.85 1.65 -3.25 3.75q3 1.95 3.4 5.25q-3.35 12.75 -17.9 13.3q-9.35 34.1 -6.65 69.4q0.4 5.6 1.75 8.8q4.4 19.85 17.05 36.4q-2.75 -22.5 -16.7 -42.25q11.15 -7.45 11.35 -21.2q0.1 -7.4 -5.35 -12.3q-3.75 -3.35 -8.05 -4.9q-8.5 33.25 -10.55 67.5q-0.35 5.55 2.9 7.85q0.7 -21.65 -12.1 -39.75q15.5 -11.75 7.55 -28.35q-1.75 -3.7 -4.75 -6.7q-0.05 57.2 -5.35 113.65q-5.55 58.95 -8.25 118.5q-2.75 59.05 -3.85 118.5q-0.1 7.5 -1.5 14.75q-3.25 17.25 4.15 29.5q4.25 -23.05 4.55 -47.2q0.8 -59.25 3.2 -118.5q1.1 -26.45 2.9 -52.8q9.75 1.25 19.05 -1.35q46.25 -12.85 52.7 -59.2q3.85 -27.65 0.45 -55.5q-4.85 -39.5 -34.6 -63.6q-2 -0.65 -3.9 -1.5q-11.25 -1.95 -22.5 -2.8q-0.25 0 -0.5 0.15q-1.75 1.65 -1.75 4.25q-0.05 2.05 1.05 3.75q5.3 2.5 8.75 7.25q28.25 38.85 22.5 88.05q-0.9 7.55 -3.95 14.35q-17.95 40.25 -61.75 39.95q1.9 -25.3 4.45 -50.45q5.5 -54.5 1.85 -108.5q14.6 3 28.15 9.35q-0.45 59.8 -2.95 118.45q25.25 0.15 48.45 -1q2.85 -6.35 -1.75 -11.25q-21.5 -0.55 -42.2 0.5q3.65 -59.9 3.6 -118.45q-5.5 7.55 -5.55 18.5q2 -4.3 1 -9.25q-0.85 -4.25 -4.4 -6.65q-3.55 -2.3 -7.85 -2.85q-17.75 13.7 -19.05 37.35q-1.15 21.6 4.8 42.25q5.1 -2.7 8.25 -7.65q1.2 -1.85 1.4 -3.95q0.35 -4.3 -2 -7.95q-2.4 1 -3.4 3.5q-1.55 0.9 -3.45 0.9q-5.55 -13.65 -3.45 -29.3q2.5 -18.75 13.8 -34.05q-3.85 14.1 -0.55 26.5q7.05 -18 3.8 -37q1.8 -30.85 -4.8 -65.95q1.15 -25.85 -5.75 -50.7q-8.3 22.45 -13.4 45.8q-2.25 10.25 -1.1 20.65q0.4 20.3 4.95 40.1q23.7 17.6 18.7 49.65q-4.55 29 -35.35 25.35q1.75 -9.15 2.95 -18.55q3.35 -26.85 4.85 -53.5q-2.05 5.45 -6.3 9.4q-3.15 2.9 -7.45 3.35q-1.2 1.25 -1.7 2.8q-0.5 1.55 -0.45 3.25q0 1.7 0.3 3.4q15.75 -5.8 17.7 -22.8q1.15 -9.75 -5.65 -16.6q5.95 -8.2 2.8 -18.5q-4.2 9.2 -16.65 9.4<g id="428" transform="matrix(1, 0, 0, 1, -19.1, 0)">
<path style="fill:#000000;fill-opacity:1" d="M506.45,148.1Q490.75 93.4 436.45 79L436.05 78.65Q439.8 132.15 436.8 186.55Q435.8 204.5 435.15 223.2Q433.1 282.6 433.3 342.45Q433.45 401.75 430.55 461L430.25 464.05Q450.5 465.4 465 449.4Q506.45 403.75 519.4 343.6Q526.45 310.75 525.25 277.25Q523.65 232.8 515.95 189.2Q512.25 168.35 506.45 148.1M432.35,69.95Q432.55 66.55 434.95 65Q491.35 76.95 508.1 133.15Q524.85 189.6 531.15 248.5Q537.6 308.2 522.45 365.85Q511.55 407.25 487.7 442.65Q470 468.85 441.35 481.35Q436.65 483.4 431.2 481.95Q427 478.45 426.85 472.95L425.95 474.2Q419.5 469.95 422.2 461.2L421.55 459.7L421.45 458.95Q421.25 457.3 422.5 457.45L422.7 457.2Q426.8 398.1 427.1 338.75Q427.45 279.3 429.3 220.25Q431.15 160.95 431 101Q430.95 87.35 433.4 75.45Q432.15 73.05 432.35 69.95M331.7,78.75Q330.45 76.95 332.5 72.5L332.95 71.75Q338.3 79.05 336.95 91.8Q333.85 121.95 330.35 151.8Q330 154.55 327.95 156Q314.3 125.7 305.2 93.25Q304.9 122.2 300.6 151Q300.25 153.45 298.45 154.25Q301.3 110.95 300 66.5Q299.95 63.65 302.2 63Q312.15 101.55 327.15 138.65L327.7 139.5Q329.95 111.05 331.6 82.5L331.7 78.75M384.1,91.1Q358.45 170.8 363.2 257L392.05 257.2Q393.3 258.8 393.75 260.85Q394.9 265.85 392.45 270.25Q377.2 273.3 362.4 268.55Q360.1 308.6 359.75 348.8L359.75 375.7L360.15 393.35L360.55 402.1L361.05 410.8L361.7 419.55Q362.75 433.35 364.9 446.95L365.3 448.25L365.95 449.5L367.85 451.65Q368.85 452.6 370.05 453.3Q385.75 462.25 399.85 450.35Q415.4 437.15 413.1 419.9Q417.1 430.2 416 441.6Q413.75 464.45 390.4 470.85Q366.55 477.15 358.85 452.2Q352.9 432.8 353.55 412.25Q354 397.5 353.95 382.7L354 353.05L354.55 323.25L355.45 292.65Q355.95 277.3 356.85 262Q357.65 247.75 357.9 231.8Q358.15 217.85 358.8 203.95Q359.4 191.6 360.25 179.3Q361.55 160.85 363.3 142.4Q365 124.05 367.1 105.7Q369.3 86.75 384.55 75.95Q408.05 59.25 412.2 85.75Q400.2 81.55 388.35 86.65Q385.05 88.1 384.1 91.1M324.9,169.55L321.95 166.75L310.05 167.8L309.2 184.9Q323.35 185.1 326.25 171.9L324.9 169.55M327.95,257Q309.8 253.65 302.8 271.1Q287.5 309.45 321.45 307.5L322.9 310.15L324.95 301.75L314.95 298L314.95 292L328.2 290.5Q331.05 310.25 324.4 329L322.3 317.35L321.45 318.75Q318.15 320.25 314.5 320.15Q294.05 319.7 293.95 297.65Q293.85 273.85 310 256.5Q330.55 234.6 329.9 260.7L327.95 257M324.95,390.55L327.55 392.4L329.9 394.35L332.1 396.4Q342.85 407.7 343.65 423.4Q345.1 450.8 328.7 470.35Q317.5 483.8 299.7 478.7Q298.25 471.4 298.6 463.9Q301.75 396.3 311.2 332.25Q330.4 332.55 335.95 352.4Q342.4 375.25 324.95 390.55M334.95,362.7Q331.55 341.75 311.4 340.1Q311.75 363.45 310.7 387Q327.4 381.35 334.35 365.05Q334.85 363.9 334.95 362.7M284.95,74Q282.6 68.65 286.6 65.2Q286.85 65 287.2 65Q289.3 109.25 283.65 154.2L283.2 155Q271.05 123.4 264.2 88.25Q263.35 118.6 259.95 148.95L259.45 150.5Q256.75 131.5 257.75 108.7Q258.75 86.8 263.45 66Q272.7 100.45 281.7 136.75Q282.85 106.1 284.65 75.5L284.95 74M232.7,69.5Q234.1 67.4 235.95 65.75Q236.05 63.05 237.95 61.25Q244.75 68.95 243.85 82.85Q243.3 92.1 243.65 101.5L247.6 220Q249.35 279.2 247.95 338.5Q246.95 378.5 234.75 416Q228.45 435.2 218.1 452.7Q201.15 481.1 169.35 474.55Q134.65 467.35 129.45 434.3Q120.25 375.95 123.55 316.45L130.3 197.3Q133.6 139.95 136.35 82.45Q137 68.35 141.2 57Q143.3 115.4 138.3 174.85Q133.35 233.85 130.1 293.15Q126.85 352.65 132.4 411.85Q134.25 431.75 146.35 446.05Q149.7 450 154.15 453.05Q179.9 470.45 202.8 450.4Q215.5 439.25 222.5 423.85Q243.95 376.55 242.15 323.2Q241.65 308.3 241.75 293.25Q242 233.25 239.85 173.95L235.7 70.5L232.7 69.5M264,166.45L263.05 187.05Q277.6 186.5 280.95 173.75Q280.55 170.45 277.55 168.5L272.95 165.5L264 166.45M271.95,156.85Q276.25 158.4 280 161.75Q285.45 166.65 285.35 174.05Q285.15 187.8 274 195.25Q287.95 215 290.7 237.5L287.25 232.5Q274.6 215.95 270.2 196.1L262.45 197L258.55 237.35Q257.2 234.15 256.8 228.55Q254.1 193.25 263.45 159.15L271.95 156.85M323.2,157.75Q326.2 160.75 327.95 164.45Q335.9 181.05 320.4 192.8L322.1 195.25Q334.9 213.35 334.2 235L317.3 193.45L308.5 193.55L302.55 236.6Q299.3 234.3 299.65 228.75Q301.7 194.5 310.2 161.25L315.45 158L323.2 157.75M38.7,63L38.75 60.75Q38.75 58.15 40.5 56.5Q40.75 56.35 41 56.35L43 56.25L43.5 56.25Q54.75 57.1 66 59.05L69.5 59.5L71.6 60.75Q73.5 61.6 75.5 62.25Q105.25 86.35 110.1 125.85Q113.5 153.7 109.65 181.35Q103.2 227.7 56.95 240.55Q47.65 243.15 37.9 241.9Q36.1 268.25 35 294.7Q32.6 353.95 31.8 413.2Q31.5 437.35 27.25 460.4L26.5 461.95Q19.1 449.7 22.35 432.45Q23.75 425.2 23.85 417.7Q24.95 358.25 27.7 299.2Q30.4 239.65 35.95 180.7Q41.25 124.25 41.3 67.05L39.75 66.75Q38.65 65.05 38.7 63M45.25,67.8Q48.9 121.8 43.4 176.3Q40.85 201.45 38.95 226.75Q82.75 227.05 100.7 186.8Q103.75 180 104.65 172.45Q110.4 123.25 82.15 84.4Q78.7 79.65 73.4 77.15Q59.85 70.8 45.25 67.8M70.25,243.75Q70.3 302.3 66.65 362.2L66.25 368.95Q86.95 367.9 108.45 368.45Q113.05 373.35 110.2 379.7Q87 380.85 61.75 380.7Q64.25 322.05 64.7 262.25Q64.75 251.3 70.25 243.75M262.9,287.3Q260.8 302.95 266.35 316.6L267.2 317Q269.1 317 270.65 316.1L272.45 314.65L273.8 312.5Q274.8 310 277.2 309Q279.55 312.65 279.2 316.95Q279 319.05 277.8 320.9Q274.65 325.85 269.55 328.55L263.7 326.25L262.7 322.85Q256.75 302.2 257.9 280.6Q259.2 256.95 276.95 243.25Q281.25 243.8 284.8 246.1Q288.35 248.5 289.2 252.75Q290.2 257.7 288.2 262L283.45 254.5L276.7 253.25Q265.4 268.55 262.9 287.3M285.2,289.5Q288.45 308.5 281.4 326.5Q278.1 314.1 281.95 300L271.95 299.25L273.45 292.25L285.2 289.5M265.95,353.45L251.95 398.45Q250.8 388.05 253.05 377.8Q258.15 354.45 266.45 332Q273.35 356.85 272.2 382.7L289.2 331.75Q295.8 366.85 294 397.7L292.7 394.7L290.1 393.7L287.95 349.2L271.95 397.2L270.9 393.55Q266.35 373.75 265.95 353.45M315.85,395L310.2 396.65Q308.7 423.3 305.35 450.15Q304.15 459.55 302.4 468.7Q333.2 472.35 337.75 443.35Q342.75 411.3 319.05 393.7L315.85 395M280.3,411.35Q283.45 421.65 277.5 429.85L280 432.05Q286.8 438.9 285.65 448.65Q283.7 465.65 267.95 471.45L257.1 465.4Q256.8 463.7 256.8 462Q256.75 460.3 257.25 458.75Q257.75 457.2 258.95 455.95L268.2 460.2Q272.5 459.75 275.65 456.85Q279.9 452.9 281.95 447.45L279.2 439.2L271.95 434.6L259.25 439.35L253.85 470.45L254.15 437.6L253.45 428.2L255.15 427.9L260.55 401.25L279.2 407.95L280.3 411.35M260.45,408.85L260.2 426.75Q272.65 426.55 276.85 417.35L260.45 408.85" />
</g>
</svg>
