<?xml version="1.0" encoding="utf-8"?>
<svg version="1.1" id="Layer_1"
xmlns="http://www.w3.org/2000/svg"
xmlns:xlink="http://www.w3.org/1999/xlink"


xml:space="preserve">
q-27.4 -7.1 -55.2 -7.8q-3.8 30.1 -4.35 62.75q5.05 -14.2 5.05 -29.25q0.05 -56.45 2.25 -112.8q1.65 -3.1 1.4 -6.65q-9.65 -3.15 -19.95 -2.2q-10.7 1.05 -21.3 3.35q-0.9 14.4 -1.15 28.9q-0.4 21.75 -0.3 43.6q-0.3 14.9 -1 29.8q-0.65 14.95 -2.9 29.65q-3.45 22.25 0.2 43.35q0.35 2.1 2.1 3.35q4.8 -12.8 5.35 -30.1q2.35 -3.15 2.05 -6.85q2.05 -2.55 1.95 -6q-24 -4.05 -48.45 -4.8q-4.25 59.25 -7.05 119.25q-1.9 40.85 21.5 71.85q4.5 6 11.85 5.65q30.25 -1.5 41.35 -31.3q21.25 -56.9 16.25 -118.6q-2.4 -29.5 -1.25 -59.2q0.7 -16.95 -6.3 -29.3q-3.45 19.2 -1.3 40.45q6 59.55 -1.3 118.5q-3.9 31.55 -23.65 55.85q-14.35 17.65 -32 4.75q-5.8 -4.25 -7.85 -11.15q-14.25 -47.1 -8.8 -97.05q6.45 -59.45 4.65 -117.6q-4.25 22.65 -6.1 47.9q-4.6 16.05 -4.4 36q0.6 59.65 -3.95 118.45q-2.3 30.05 -6.65 59.75q-2.5 16.95 4.05 29.5q2.6 -2.7 2.9 -6.7q7.05 -0.1 14.1 0.1q9.35 0.25 15.85 -6.05q34.95 -34.25 16.7 -80.1q-11.05 -27.7 -38.55 -34.7q-2.25 2.1 -3.9 4.55q-0.55 23.05 -19.8 35.05q-11.45 7.15 -25 6.4q2.65 -45.65 -0.25 -91.3q18.65 -6.6 33.8 13.95q11.75 15.9 11.25 35.9<g id="424" transform="matrix(1, 0, 0, 1, -82.95, 0)">
<path style="fill:#000000;fill-opacity:1" d="M334.15,146.25L332.95 156L278.45 146.25L277.7 145.15L280.6 224.3Q291.2 222 301.9 220.95Q312.2 220 321.85 223.15L322.1 223.55L322.9 225.55L323.35 227.5L323.6 229.6Q323.85 233.15 322.2 236.25L280.5 233.4Q278.3 289.75 278.25 346.2Q278.25 361.25 273.2 375.45L270.8 375.5L273.65 198.95Q274.2 166.3 278 136.2Q305.8 136.9 333.2 144L334.15 146.25M356.1,136.6L366.4 136.15Q390.85 136.9 414.85 140.95L415.1 141.3L415.9 142.75L416.35 144.25L416.5 145L416.6 145.75L416.65 147.25Q416.75 150.7 414.7 153.25L354.6 144.95L358.65 223.95L396.95 226.45L397.4 226.8L398.25 227.85L398.6 228.45L398.85 229L399.2 230.45L399.35 231.25L399.5 232.4Q399.8 236.1 397.45 239.25L358.65 234.65L358.45 247.1L357.15 303.7L355.7 352.5Q355.15 369.8 350.35 382.6Q348.6 381.35 348.25 379.25Q344.6 358.15 348.05 335.9Q350.3 321.2 350.95 306.25Q351.65 291.35 351.95 276.45L352.25 246.65L352.25 209.75Q352.15 187.9 352.55 166.15Q352.8 151.65 353.7 137.25L356.1 136.6M175.2,130.75Q177 188.9 170.55 248.35Q165.1 298.3 179.35 345.4Q181.4 352.3 187.2 356.55Q204.85 369.45 219.2 351.8Q238.95 327.5 242.85 295.95Q250.15 237 244.15 177.45Q242 156.2 245.45 137Q252.45 149.35 251.75 166.3Q250.6 196 253 225.5Q258 287.2 236.75 344.1Q225.65 373.9 195.4 375.4Q188.05 375.75 183.55 369.75Q160.15 338.75 162.05 297.9Q164.85 237.9 169.1 178.65Q170.95 153.4 175.2 130.75M100.8,131.3Q102.45 128.85 104.7 126.75L108.95 125.6L108.95 125.5Q136.45 132.5 147.5 160.2Q165.75 206.05 130.8 240.3Q124.3 246.6 114.95 246.35Q107.9 246.15 100.85 246.25L92.4 363.5Q92.1 367.5 89.5 370.2Q82.95 357.65 85.45 340.7Q89.8 311 92.1 280.95Q96.65 222.15 96.05 162.5Q95.85 142.55 100.45 126.5L100.8 131.3M135.25,155.1Q120.1 134.55 101.45 141.15Q104.35 186.8 101.7 232.45Q115.25 233.2 126.7 226.05Q145.95 214.05 146.5 191Q147 171 135.25 155.1" />
</g>
</svg>
