<?xml version="1.0" encoding="utf-8"?>
<svg version="1.1" id="Layer_1"
xmlns="http://www.w3.org/2000/svg"
xmlns:xlink="http://www.w3.org/1999/xlink"


xml:space="preserve">
q-44.5 83.3 -90.85 164.8q-3.3 5.75 -6.3 11.65q7.65 -91.65 -0.95 -182.5q-5.9 127.6 -9.35 257.4q-1.65 61.55 -2.45 123.05q-0.1 8.1 -1.4 16.15q0.15 5 2.55 9.3q1.3 2.35 3.3 4.15q1.2 -16.15 9.25 -31.75q8.05 30.8 20.45 59.2q0.95 2.15 3.55 1q-15 -77.2 -39.2 -154.15q-10.2 -32.3 -17.35 -65.55q-4.75 -21.85 -12.35 -42.85q10.35 -10.75 3.15 -23.35q-7.75 -30.95 -42.45 -31.45q-7.4 1.7 -11.2 8.7q-15 27.25 -17.65 59.3q-4.9 58.8 -5.85 118.45q-0.5 30.2 5.2 59.15q3.25 16.55 15.15 28.2q20 19.45 41.5 -0.5q10.1 -9.35 17.75 -20.6q12.75 -18.7 3.1 -34.25q-2.15 0.8 -2.75 3q-1.15 3.95 -4.2 6.8q-1.65 1.5 -1.8 3.7q-11.25 28.8 -41.8 28.45q-21.15 -13.85 -22.45 -40.3q-1 -21.05 -1.2 -41.95q-0.6 -59.35 5.05 -117.65q2.2 -23.1 11.55 -43.75q1.8 -4 5.9 -4.85q30.1 -6.1 45.15 20.05q1.95 -2.65 1.2 -5.8q-4.25 32.15 -6.2 65.05q-0.9 15.1 -0.65 30.15q0.25 14.55 1.55 29.15q10.45 -23.15 8.7 -52.7q-1.05 -17.1 -0.6 -34.45q10.5 48.25 26.85 94.8q0.7 1.7 2.4 2.75q12 -40.9 11.6 -85.3q-0.2 -23.65 -3.35 -43.9q-1.5 3.2 -1.85 6.75q-6.2 1.4 -7.25 7q0.25 29.85 1.55 59.7q2.5 59.4 4.15 119.3q1.7 59.95 -1.7 119.25q-1.85 32 -19.8 56.95q-22.7 31.5 -60.95 29.65q-7.5 -0.35 -11.6 -6.05q-10.8 -14.9 -11.4 -34q-0.7 -21.75 -0.55 -43.6q-0.2 -59.35 2.95 -118.55q3.25 -59.85 1.45 -118.45q-4.35 9.65 -4.7 22.75q-0.95 35.2 -3.45 70.35q-4.25 59.35 -0.6 118.65q-2 34.4 -3.65 68.95q-2.9 59.35 7.7 116.9q3 16.3 18.95 19q40.8 6.85 66.05 -27.05q27.8 -37.2 28.45 -85.35q0.75 -51.65 -0.5 -103.45q-1.45 -59.45 -4.3 -118.5q-1.45 -29.45 0.85 -59.1q1.2 -15.25 -7.8 -21.15q-0.95 4.4 -1.15 8.95q-0.1 1.8 0.9 3.35q-2.55 9.55 -2.7 20.65q-0.8 59.15 -0.3 119.25q-1.9 4.65 -1.25 9.65q0.3 2.15 1.75 3.65q0.65 48.4 2.15 96.6q1.8 58.9 -0.4 117.7q-4.6 -8.95 -5.95 -18.65q-1.55 5.6 0.2 11.35q1.75 5.8 2.5 11.4q1.85 13.65 8.3 21.25q1.4 -1.15 1.55 -3q2.05 -19.05 2.45 -38.25q1.3 -59.45 -1.35 -119.2q-1.75 -38.85 -2.45 -77.9q39.55 1.15 61.6 -33.4q4.2 -6.5 6.3 -13.55q14.15 -47.3 0.15 -95.05q-10.25 -34.75 -45.25 -40.35q-12.5 0.35 -25 3.25q-1.1 1.4 -1.5 3.05q17.35 13.5 25.1 34.05q7.7 20.2 6.15 41.9q-1.5 21.25 -13.45 39q-12.3 18.4 -33 25.7q-11.4 4 -23.45 4.15q-1.75 -68.9 1.9 -137.7q0.35 -6.55 -0.3 -13.05q21.2 -6.4 37.05 5.95q2.1 45.2 -0.95 90.65q-2.1 30.7 1.1 59.25q21.3 3.6 42.95 3.75q6.5 -8.6 -0.5 -17q-0.35 -2.25 -1.95 -3.8q-3.05 -1.05 -3.5 2.75q-16.15 4.7 -32.45 -0.5q3.1 -60.1 -1.7 -118.5q-4.5 3.2 -4.15 10.3<g id="435" transform="matrix(1, 0, 0, 1, -27.45, 0)">
<path style="fill:#000000;fill-opacity:1" d="M478.6,93.7L420.35 205.1L423.7 213.4L426.8 221.65Q434.4 242.65 439.15 264.5Q446.3 297.75 456.5 330.05Q480.7 407 495.7 484.2Q493.1 485.35 492.15 483.2Q479.75 454.8 471.7 424L416.45 212.25L400.05 243.5Q392 259.1 390.8 275.25L375.95 477.7Q373.95 475.9 372.65 473.55Q370.25 469.25 370.1 464.25L370.1 462.65L370.25 461.1Q371.55 453.05 371.65 444.95Q372.45 383.45 374.1 321.9Q377.55 192.1 383.45 64.5Q392.05 155.35 384.4 247Q387.4 241.1 390.7 235.35Q437.05 153.85 481.55 70.55L481.75 70.35Q488.95 82.95 478.6 93.7M346.2,243.25Q331.15 217.1 301.05 223.2Q296.95 224.05 295.15 228.05Q285.8 248.7 283.6 271.8Q277.95 330.1 278.55 389.45Q278.75 410.35 279.75 431.4Q281.05 457.85 302.2 471.7Q332.75 472.05 344 443.25L344.95 440.95L344.85 440.25L344.55 439.45L344.2 437.95Q344.35 435.75 346 434.25Q349.05 431.4 350.2 427.45Q350.8 425.25 352.95 424.45Q362.6 440 349.85 458.7Q342.2 469.95 332.1 479.3Q310.6 499.25 290.6 479.8Q278.7 468.15 275.45 451.6Q269.75 422.65 270.25 392.45Q271.2 332.8 276.1 274Q278.75 241.95 293.75 214.7Q297.55 207.7 304.95 206Q339.65 206.5 347.4 237.45Q348.15 240.6 346.2 243.25M277.45,68.75L307.55 175.7L317 70.5L317.2 70.3Q320.35 90.55 320.55 114.2Q320.95 158.6 308.95 199.5Q307.25 198.45 306.55 196.75L305.55 194.15Q289.2 147.6 278.7 99.35L278.55 105.85Q278.1 123.2 279.15 140.3Q280.9 169.85 270.45 193Q269.15 178.4 268.9 163.85Q268.65 148.8 269.55 133.7Q271.5 100.8 275.75 68.65L276.9 68.05L277.2 66.25L277.45 68.75M251.45,63Q260.45 68.9 259.25 84.15Q256.95 113.8 258.4 143.25Q261.25 202.3 262.7 261.75Q263.95 313.55 263.2 365.2Q262.55 413.35 234.75 450.55Q209.5 484.45 168.7 477.6Q152.75 474.9 149.75 458.6Q139.15 401.05 142.05 341.7Q143.7 307.15 145.7 272.75Q142.05 213.45 146.3 154.1Q148.8 118.95 149.75 83.75Q150.1 70.65 154.45 61Q156.25 119.6 153 179.45Q149.85 238.65 150.05 298L149.9 378.95Q149.75 400.8 150.45 422.55Q151.05 441.65 161.85 456.55Q165.95 462.25 173.45 462.6Q211.7 464.45 234.4 432.95Q252.35 408 254.2 376Q257.6 316.7 255.9 256.75Q254.25 196.85 251.75 137.45Q250.45 107.6 250.2 77.75L241.95 77.5Q243 71.9 249.2 70.5Q249.55 66.95 251.05 63.75L251.45 63M38,57.25Q50.5 54.35 63 54Q98 59.6 108.25 94.35Q122.25 142.1 108.1 189.4Q106 196.45 101.8 202.95Q79.75 237.5 40.2 236.35Q40.9 275.4 42.65 314.25Q45.3 374 44 433.45Q43.6 452.65 41.55 471.7Q41.4 473.55 40 474.7Q33.55 467.1 31.7 453.45Q30.95 447.85 29.2 442.05Q27.45 436.3 29 430.7Q30.35 440.4 34.95 449.35L35.25 449.45Q37.45 390.65 35.65 331.75Q34.15 283.55 33.5 235.15Q32.05 233.65 31.75 231.5Q31.1 226.5 33 221.85L33.35 221.2L33.25 212.5Q32.75 152.4 33.55 93.25Q33.7 82.15 36.25 72.6Q35.25 71.05 35.35 69.25Q35.55 64.7 36.5 60.3Q36.9 58.65 38 57.25M41.55,69.55Q42.2 76.05 41.85 82.6Q38.2 151.4 39.95 220.3Q52 220.15 63.4 216.15Q84.1 208.85 96.4 190.45Q108.35 172.7 109.85 151.45Q111.4 129.75 103.7 109.55Q95.95 89 78.6 75.5Q62.75 63.15 41.55 69.55M65.5,309.25Q70.3 367.65 67.2 427.75L66 453.95Q82.3 459.15 98.45 454.45Q98.9 450.65 101.95 451.7Q103.55 453.25 103.9 455.5L103.95 456.2Q110.95 464.6 104.45 473.2Q82.8 473.05 61.5 469.45Q58.3 440.9 60.4 410.2Q63.45 364.75 61.35 319.55Q61 312.45 65.5 309.25" />
</g>
</svg>
