<?xml version="1.0" encoding="utf-8"?>
<svg version="1.1" id="Layer_1"
xmlns="http://www.w3.org/2000/svg"
xmlns:xlink="http://www.w3.org/1999/xlink"


xml:space="preserve">
q-42.6 1.75 -84.05 -3.6q-0.55 0.1 -0.95 0.45q-0.25 0.35 -0.35 0.75q-0.2 1.9 0.1 3.75q0.35 1.95 1.85 3q20.2 4.15 40.8 5.5q-2.05 10.05 -2.2 21.25q-0.9 59.3 -5.3 118.4q-1.3 17.4 4.95 29.05q3.45 -30 5.15 -61.45q2.85 -54.05 0.85 -107.05q21.15 1.15 42.75 -0.7q0.4 -1.85 0.2 -3.75q-0.25 -2.45 -1.5 -4.5q-0.35 -0.4 -0.7 -0.4q-18 2.25 -35.6 7.8q-1.35 -30.15 -5.7 -59.7q-3.5 13.15 -1.9 30.05q1.6 16.6 1.6 32.9q0 33.05 -4.9 65.8q-2.45 16.55 2.7 29.95q8.45 -33.4 8.7 -70.25q17.85 -1.55 35.15 -5.65q-0.35 32.15 -1.55 64.25q-0.65 17.4 5.6 29.05q4.05 -34.85 3.7 -71.25q-0.55 -60.4 -2.95 -119.2q-5.05 19.25 -4.8 42.25q0.25 20.85 0.1 41.65q-7.05 6 -0.95 14.35q-10.1 41.7 3.1 76.95q28.5 1.75 48.2 -18.2q8.7 -12.65 10.35 -27.85q0.45 -4.35 0.35 -8.75q-0.2 -9.1 -3 -18.05q-3.6 -11.6 -13.2 -18.8q-5.45 -4.15 -11.4 -7.35q-15.1 -8.1 -32.4 -9.2q34 4.5 44.8 35.05q3.35 9.6 -0.8 18.6q-14.4 31.2 -51.75 28.9q2.65 -42.5 -0.55 -84.7q3.85 1.55 8.3 2.15q6.3 22.55 -2.2 43.05q-6.65 15.95 -22.85 16.65q-36.1 1.5 -37 -32.55q-0.6 -22.75 -3.25 -44.25q-5.85 23.7 -4.55 50.55q1.6 31.7 31.05 39.3q31.65 8.2 43.4 -23.25q7.65 -20.4 5.2 -42.55q-1.5 -13.4 -8.35 -21.3q-3.55 6.7 -1.45 14.35<g id="425" transform="matrix(1, 0, 0, 1, -127.35, 0)">
<path style="fill:#000000;fill-opacity:1" d="M401.2,189Q402.45 191.05 402.7 193.5Q402.9 195.4 402.5 197.25L402.15 198.7L401.55 200.15L400.45 201.75Q378.85 203.6 357.7 202.45Q359.7 255.45 356.85 309.5Q355.15 340.95 351.7 370.95Q345.45 359.3 346.75 341.9Q351.15 282.8 352.05 223.5Q352.2 212.3 354.25 202.25Q333.65 200.9 313.45 196.75Q311.95 195.7 311.6 193.75Q311.3 191.9 311.5 190L311.7 188.5L312.1 187Q312.2 186.6 312.45 186.25L313.05 185.6Q313.45 185.25 314 185.15L316.45 185Q357.9 190.35 400.5 188.6Q400.85 188.6 401.2 189M417.65,223.75Q417.4 200.75 422.45 181.5Q424.85 240.3 425.4 300.7Q425.75 337.1 421.7 371.95Q415.45 360.3 416.1 342.9Q417.3 310.8 417.65 278.65Q400.35 282.75 382.5 284.3L382.65 301.95Q382.4 338.8 373.95 372.2Q368.8 358.8 371.25 342.25Q376.15 309.5 376.15 276.45Q376.15 260.15 374.55 243.55Q372.95 226.65 376.45 213.5Q380.8 243.05 382.15 273.2Q399.75 267.65 417.75 265.4Q417.9 244.6 417.65 223.75M144.25,183Q161.55 184.1 176.65 192.2Q182.6 195.4 188.05 199.55Q197.65 206.75 201.25 218.35Q204.05 227.3 204.25 236.4Q204.35 240.8 203.9 245.15Q202.25 260.35 193.55 273L192 274.9Q172.3 294.85 143.8 293.1L140.55 367.85Q127.35 332.6 137.45 290.9Q131.35 282.55 138.4 276.55L142.7 183.8L144.25 183M144.3,193.9Q147.5 236.1 144.85 278.6Q182.2 280.9 196.6 249.7Q200.75 240.7 197.4 231.1Q186.6 200.55 152.6 196.05Q148.15 195.45 144.3 193.9M307.95,281.7Q314.8 289.6 316.3 303Q318.75 325.15 311.1 345.55Q299.35 377 267.7 368.8Q238.25 361.2 236.65 329.5Q235.35 302.65 241.2 278.95Q243.85 300.45 244.45 323.2Q245.35 357.25 281.45 355.75Q297.65 355.05 304.3 339.1Q312.8 318.6 306.5 296.05Q304.4 288.4 307.95 281.7" />
</g>
</svg>
