<?xml version="1.0" encoding="utf-8"?>
<svg version="1.1" id="Layer_1"
xmlns="http://www.w3.org/2000/svg"
xmlns:xlink="http://www.w3.org/1999/xlink"


xml:space="preserve">
q3.2 -34 -27.4 -47.2q-13.75 0.55 -26.65 6.65q-12.55 5.95 -20.35 17.2q-24.5 35.65 -17.9 78.85q3.5 22.7 13.9 43.15q27.95 54.8 50.2 112.65q20.1 52.35 30.2 107.65q10.2 55.75 9.7 112.8q-0.1 12.65 -4.35 24.2q-13.6 36.9 -54.2 27.5q-3.65 -0.85 -5.8 -3.65q-16.3 -21.45 -19.35 -50.1q-1.45 -13.45 -7.4 -21.45q-1.6 1.55 -1.5 3.75q1.3 37.95 15.6 73.35q2.2 5.4 6.75 8.75q22.4 16.45 47 4.35q17.85 -8.75 23.25 -27.15q10.45 -35.6 7.45 -73.1q-4.6 -58.5 -17.45 -115.5q-12.45 -55.35 -35.05 -107.85q-5.85 -13.6 -13.5 -26.2q-22.15 -36.5 -34.6 -76.85q-9.7 -31.5 -1.8 -63.25q7.15 -28.9 34.2 -40.55q24.85 -10.75 38.45 11.15q6.85 10.95 10.2 21.4q-15.85 -6 -35.65 -0.65q-4.1 37.1 -1 72.8q-11.05 25.1 -23.9 49.2q0.8 -28.4 1.9 -56.7q-1.15 -0.05 -1.3 1.5q-6.35 58.85 -3.45 117.75q1.5 0.1 1.55 -1.5q0.4 -26.35 1.1 -52.65q5.45 -7.9 9.85 -17.25q2.8 -5.9 5.9 -11.6q8.25 41.15 23.6 81q2 0 1.6 -1.55q-10.7 -40.95 -24.15 -81.35q10.85 -18.6 13.8 -37.7q0 50.1 -1.95 99.85q-1.2 30.75 2.4 58.55q3.45 -21.5 3.75 -44.25q33.4 -17.35 26.85 -56q-4.8 -28.45 -31.2 -31.85q-0.55 0.2 -0.85 1.05q-0.95 2.45 -0.5 5.15q-3.7 -38.95 -9.65 -79.75q-9.4 23.7 -13.8 48.9q-0.85 5 -1.4 10.05q-0.85 7.45 -0.85 14.75q1 28.1 7.75 55.7q-0.45 -34.8 -2.5 -69.2q21.35 0.55 26.25 23.15q7.3 33.4 -23.75 46.05q4.25 0.65 8.3 -1.05q2.5 -1.1 4.45 -3.15q-2.3 -3.25 -6.35 -2.8q-4.6 0.85 -8.5 3.4q-3.4 23.15 0.2 44.4q-4.55 -5 -10.65 -1.75q8.3 2 15.3 -2.85q-5 -6.1 -14.75 -2.4q-1.95 31.25 -1.5 63.75q0.8 59.75 1.9 119.25q1.15 59.75 3.75 119.2q2.65 59.6 -2.1 118.6q-2.95 36.95 -13.75 72.15q-10.5 34.25 -47.65 24.95q-8.75 -2.2 -12.75 -9.9q-8.85 -17 -10.15 -36.7q-3.8 -59.05 -5.05 -118.6q-1.25 -59.55 -1.35 -119.2q0.15 -60.05 -3.55 -118.5q-4.65 9.85 -4.2 23.55q1.95 58.1 2.05 116.95q0.05 59.6 1.5 119.2q1.4 59.4 6.85 118.5q1.1 11.65 6.35 21.75q15.65 29.9 49.95 17.75q7.5 -2.65 12.1 -8.85q18.55 -25 21.8 -56.5q6.05 -58.9 6.8 -118.65q0.55 -44.85 -0.95 -89.3q-1.85 -59.3 1.05 -119.15q0.7 -14.6 -7.3 -21.1q-3.1 16.55 -0.75 33.2q-4.5 -3.7 -10.35 -3.3q-4.9 0.2 -9.05 2.75q-5.95 32.15 -14.3 63.95q-8.2 -33.05 -15.8 -65.95q-5.6 16.35 -8.5 36.6q-2.9 20.5 -1.25 37.4q4.3 -30.65 8.9 -58.7q6.35 32.5 15.95 62.2q-1.5 1.1 -3.9 1.4q-2.85 0.3 -4.3 2.45q-19.8 29.25 -12.35 64.9q1.35 6.3 7.25 9.1q23.15 11.05 32.05 -11.6q-5.8 0.7 -11.75 5.75q-8.45 3 -17 1.25q-8.4 -6.2 -8.85 -17q-0.4 -9.25 0.05 -18.85q1.35 -27.2 25.8 -29.4q0.95 -1.05 1.3 -2.3q-1.35 -2.55 -3.8 -3.6q10.2 -26.75 15.6 -55.15q2.15 -11.25 -0.9 -19.3q-0.35 0.35 -0.45 0.8q-0.05 21.9 0.05 43.8q0.05 21.15 -5.1 41.6q-5.05 20.05 -14.8 38.25q-11 20.7 -34.8 18.95q18.5 -3.4 36.55 2.25q16.5 15.05 23.45 36.3q6.55 20 6.55 41.4q-0.55 1.8 -0.55 3.75q0 1.9 0.7 3.65q-5 56 -2.35 112.65q2.75 59.6 4.15 119.2q1.35 59.5 2.15 119.2q0.75 59.25 0.95 118.5q0.05 15 -1.75 29.8q-2.05 16.9 4.3 29.45q5.65 -28.85 4.85 -60q-1.5 -59.65 -2.1 -119.25q-0.6 -56.8 -2.2 -113.4q11.55 2.85 22.85 -2.05q6.6 -2.85 11 -8.35q27.9 -34.6 30.8 -79.75q3.9 -59.65 -8.15 -117.65q-8.45 -40.9 -51 -40.2q-7.25 0.05 -14.45 2.7q-0.45 0.15 -0.8 0.55q-11.5 15.95 -7.8 38.15q2.2 13.4 1.95 27.25q-2.05 37.1 -0.35 74.25q16.8 4.7 34.75 2q2.8 -4.25 0.5 -8.75q-17.25 0.65 -32.25 -2.75q0.75 -34.6 -0.5 -68.25q-1.95 1.15 -2.15 4.25q3.85 -3.5 5.1 -8.35q2.9 -10.9 -9.4 -14.3q-9.8 21.1 -5.9 43q-5.75 8.4 -16.7 8.85q-13.25 16.6 -12.75 38.5q0.65 26.35 22.9 29.95q11 1.85 18.4 -7.65q4.65 -6 5.2 -13.1q-13 17.9 -30.95 10.15q-6.7 -2.8 -8.25 -10.85q-1.7 -8.55 -1.1 -17.2q-11.1 -3.5 -22.65 -0.35q6.15 -18.05 23.05 -27.65q2.35 2.3 5.6 3.3q1.2 0.4 0.95 -1q-13.25 -21.95 -32.3 1.9<g id="430" transform="matrix(1, 0, 0, 1, -20.05, 3)">
<path style="fill:#000000;fill-opacity:1" d="M451.95,44.75Q448.6 34.3 441.75 23.35Q428.15 1.45 403.3 12.2Q376.25 23.85 369.1 52.75Q361.2 84.5 370.9 116Q383.35 156.35 405.5 192.85Q413.15 205.45 419 219.05Q441.6 271.55 454.05 326.9Q466.9 383.9 471.5 442.4Q474.5 479.9 464.05 515.5Q458.65 533.9 440.8 542.65Q416.2 554.75 393.8 538.3Q389.25 534.95 387.05 529.55Q372.75 494.15 371.45 456.2Q371.35 454 372.95 452.45Q378.9 460.45 380.35 473.9Q383.4 502.55 399.7 524Q401.85 526.8 405.5 527.65Q446.1 537.05 459.7 500.15Q463.95 488.6 464.05 475.95Q464.55 418.9 454.35 363.15Q444.25 307.85 424.15 255.5Q401.9 197.65 373.95 142.85Q363.55 122.4 360.05 99.7Q353.45 56.5 377.95 20.85Q385.75 9.6 398.3 3.65Q411.2 -2.45 424.95 -3Q455.55 10.2 452.35 44.2L451.95 44.75M353.7,82.5L339.25 84.1L337.25 157Q334.15 121.3 338.25 84.2L319.25 83.75L319.2 78.5Q339 73.15 354.85 79.15L353.7 82.5M357.2,151Q354.25 170.1 343.4 188.7L340.9 193.1Q354.35 233.5 365.05 274.45Q365.45 276 363.45 276Q348.1 236.15 339.85 195Q336.75 200.7 333.95 206.6Q329.55 215.95 324.1 223.85Q323.4 250.15 323 276.5Q322.95 278.1 321.45 278Q318.55 219.1 324.9 160.25Q325.05 158.7 326.2 158.75Q325.1 187.05 324.3 215.45Q337.15 191.35 348.2 166.25L357.2 151M343.6,313.45Q343.15 310.75 344.1 308.3Q344.4 307.45 344.95 307.25Q371.35 310.65 376.15 339.1Q382.7 377.75 349.3 395.1L348.1 395.4L347.95 428.45Q347.65 451.2 344.2 472.7Q340.6 444.9 341.8 414.15Q343.75 364.4 343.75 314.3L343.6 313.45M326.7,390.45L318.45 329L299.95 387.7Q293.2 360.1 292.2 332L277.95 392.45L277.9 387.7Q277.9 380.4 278.75 372.95Q279.3 367.9 280.15 362.9Q284.55 337.7 293.95 314L300.45 376.2L319.2 312.5Q325.15 353.3 328.85 392.25L326.7 390.45M371.75,338.2Q366.85 315.6 345.5 315.05Q347.55 349.45 348 384.25Q379.05 371.6 371.75 338.2M301.55,38.65Q305.45 36.1 310.05 35.25Q314.1 34.8 316.4 38.05L316.35 40.7L303.65 42.95L305.3 52.65L309.45 53L311.45 51.5L317.55 52L317.6 53.85L316.9 54.85Q314.95 56.9 312.45 58Q308.4 59.7 304.15 59.05L301.85 81.6L301.2 55.75L302.55 43.2L301.25 42.75L301.55 38.65M279.95,34.1Q289.7 30.4 294.7 36.5Q287.7 41.35 279.4 39.35L278.2 57.45L280.05 56.4Q286.15 53.15 290.7 58.15L278 61.55L277.4 79.4Q273.8 58.15 277.2 35L279.95 34.1M262,29.1Q259.1 88.95 260.95 148.25L264.85 267.4Q266.35 311.85 265.8 356.7Q265.05 416.45 259 475.35Q255.75 506.85 237.2 531.85Q232.6 538.05 225.1 540.7Q190.8 552.85 175.15 522.95Q169.9 512.85 168.8 501.2Q163.35 442.1 161.95 382.7Q160.5 323.1 160.45 263.5L160.3 144.25Q160.2 85.4 158.25 27.3Q157.8 13.6 162.45 3.75Q166.15 62.2 166 122.25L166.05 241.5Q166.15 301.15 167.4 360.7Q168.65 420.25 172.45 479.3Q173.75 499 182.6 516Q186.6 523.7 195.35 525.9Q232.5 535.2 243 500.95Q253.8 465.75 256.75 428.8Q261.5 369.8 258.85 310.2Q256.25 250.75 255.1 191Q254 131.5 253.2 71.75Q252.75 39.25 254.7 8Q262.7 14.5 262 29.1M281.05,84.95L281.2 82L282.05 81.4Q286.2 78.85 291.1 78.65Q296.95 78.25 301.45 81.95L292.2 85L290.2 118.5Q287.85 101.85 290.95 85.3L281.45 86.5L281.05 84.95M314.95,120.5Q318 128.55 315.85 139.8Q310.45 168.2 300.25 194.95Q302.7 196 304.05 198.55L304.2 199.25L304.25 199.95Q303.9 201.2 302.95 202.25Q278.5 204.45 277.15 231.65Q276.7 241.25 277.1 250.5Q277.55 261.3 285.95 267.5Q294.5 269.25 302.95 266.25Q308.9 261.2 314.7 260.5Q305.8 283.15 282.65 272.1Q276.75 269.3 275.4 263Q267.95 227.35 287.75 198.1Q289.2 195.95 292.05 195.65Q294.45 195.35 295.95 194.25L299.65 194.7Q290.05 165 283.7 132.5Q279.1 160.55 274.8 191.2L274.45 192.75Q272.8 175.85 275.7 155.35Q278.6 135.1 284.2 118.75Q291.8 151.65 300 184.7L300.2 185.25Q308.55 153.45 314.5 121.3Q314.6 120.85 314.95 120.5M87.2,49.55Q80.25 28.3 63.75 13.25Q45.7 7.6 27.2 11L32.65 233.75L39.1 233.55Q62.9 235.3 73.9 214.6Q83.65 196.4 88.7 176.35Q93.85 155.9 93.8 134.75Q93.7 112.85 93.75 90.95Q93.75 69.55 87.2 49.55M24.55,2.7Q31.75 0.05 39 0Q81.55 -0.7 90 40.2Q102.05 98.2 98.15 157.85Q95.25 203 67.35 237.6Q62.95 243.1 56.35 245.95Q45.05 250.85 33.5 248L33.05 247.55Q34.65 304.15 35.25 360.95Q35.85 420.55 37.35 480.2Q38.15 511.35 32.5 540.2Q26.15 527.65 28.2 510.75Q30 495.95 29.95 480.95Q29.75 421.7 29 362.45Q28.2 302.75 26.85 243.25Q25.45 183.65 22.7 124.05Q20.05 67.4 25.05 11.4L24.5 11.5L23.9 10.65Q23.2 8.9 23.2 7Q23.2 5.05 23.75 3.25Q24.1 2.85 24.55 2.7M92.4,267.15Q88.7 244.95 100.2 229L97 338.95L140.95 340.75L140.7 349.7L93.75 349.95L93.95 322.2L94.35 294.4Q94.6 280.55 92.4 267.15M303.2,424.2Q304.45 457.85 303.7 492.45L303.7 493.2Q318.7 496.6 335.95 495.95Q338.25 500.45 335.45 504.7Q317.5 507.4 300.7 502.7Q299 465.55 301.05 428.45Q301.25 425.35 303.2 424.2M286.45,536.45L273.95 526.3L265.35 527.2L261.3 545.95Q257.4 524.05 267.2 502.95L274.95 500.2Q287.25 503.6 284.35 514.5Q283.1 519.35 279.25 522.85L303.2 543.95L301.45 548.95L287.45 538.7L286.45 536.45M267.1,509.5L266.2 520.7Q277.15 520.25 282.9 511.85L278.2 506.2L267.1 509.5M524.5,477Q524.75 478.4 523.55 478Q520.3 477 517.95 474.7L509.95 473.95Q493.05 483.55 486.9 501.6Q498.45 498.45 509.55 501.95L509.7 508.2L485.65 508.7Q485.05 517.35 486.75 525.9Q488.3 533.95 495 536.75Q512.95 544.5 525.95 526.6Q525.4 533.7 520.75 539.7Q513.35 549.2 502.35 547.35Q480.1 543.75 479.45 517.4Q478.95 495.5 492.2 478.9Q511.25 455.05 524.5 477" />
</g>
</svg>
