<?xml version="1.0" encoding="utf-8"?>
<svg version="1.1" id="Layer_1"
xmlns="http://www.w3.org/2000/svg"
xmlns:xlink="http://www.w3.org/1999/xlink"


xml:space="preserve">
q-7.8 -1.65 -14.6 0.75q-1 1.3 -1.2 2.95q-0.35 3.4 0.25 6.8q0.2 1.25 0.95 2.25q-1.8 21.25 -1.7 43.45q0.15 59.3 -1.2 118.5q-1.35 60.15 -8.9 119.3q-1.15 9.05 0.2 17.05q-0.15 2.05 0.15 4.15q0.45 3.05 2.4 5.35q1 -0.6 1.1 -1.35q51.35 3.8 72.1 -41.6q10.15 -22.15 13.15 -46.45q7.3 -58.35 -32.3 -99.9q15.4 -16 20.2 -41.45q11.6 -61.95 -41 -93.4q32.1 16.15 35.65 51.6q3.15 31.45 -19.45 52.5q-15.25 14.2 -34.75 20.6q1.8 -53.05 -3 -105.1q10.05 1.9 20.85 1.05q11.6 57.15 -25.5 99.7q-24.7 14.3 -51.95 12.55q4.1 -33.15 5.6 -66.8q3.45 4 10.95 3.35q-3.5 -0.6 -6.85 -2.7q14.6 -4.1 25.65 -11.25q0.25 0.9 0.85 1.75q2.2 0.8 4.55 1.25q5.35 1 9.2 3.8q20.55 15 25.75 40.7q-6.5 50.9 -10.4 103.2q-4.35 58.65 -8 117.6q-2.7 43.3 9.75 83.7q9.55 31 43 27.9q5.65 -0.5 9.55 -4.35q26.8 -26.25 36.55 -63.45q15.3 -58.6 18.35 -119.15q3 -59.25 -1.05 -117.75q0.5 -1.35 2.25 -2.25q1.5 -3 -2 -1.75q-0.1 -10.5 -5 -20q-2.5 1 -2.7 3.75q-1.75 24.05 -0.25 48.1q3.65 59.25 -0.8 118.45q-4.5 59.95 -27.2 114.65q-11.1 26.75 -39.55 26.55q-4.6 -0.05 -8.35 -2.7q-25.3 -17.8 -24.55 -50.1q1.4 -59.4 4.35 -118.45q0.65 -13.05 2.15 -26.05q6.7 -59.3 4.4 -117.95q-0.3 3.05 0.05 6q0.1 1.3 0.75 2.45q-4.4 31.9 -5.05 65.3q-1.15 59.4 -4.9 118.5q-1.9 29.45 -1.15 59.2q0.8 30.85 -6.6 59.25q-0.85 3.15 1.75 4.25q2.95 1.7 6.5 5q5.1 -10.1 5 -22.5q-0.45 -59.45 2.55 -118.5q34.85 5.6 61.75 -20.3q26.75 -25.8 20.25 -64.85q-3.55 -21.4 -11.35 -41.8q-14.5 -38 -57 -39.15q-4.6 1.45 -9.2 3.8q-2.5 1.25 -4 3.45q29.65 39.15 18.5 85.3q-27.1 35.5 -70.55 31.5q1.35 -25.45 -1.45 -49.75q10.95 -10.6 27.15 -4.8q13.2 4.7 21.6 15.75<g id="420" transform="matrix(1, 0, 0, 1, -73.4, 0)">
<path style="fill:#000000;fill-opacity:1" d="M382.45,99.75Q435.05 131.2 423.45 193.15Q418.65 218.6 403.25 234.6L408.45 235Q448.05 276.55 440.75 334.9Q437.75 359.2 427.6 381.35Q406.85 426.75 355.5 422.95L351.15 422.15L351.05 422.6Q350.95 423.35 349.95 423.95L348.65 420.85Q346.7 418.55 346.25 415.5Q345.95 413.4 346.1 411.35Q344.75 403.35 345.9 394.3Q353.45 335.15 354.8 275Q356.15 215.8 356 156.5Q355.9 134.3 357.7 113.05L357.45 113Q356.7 112 356.5 110.75Q355.9 107.35 356.25 103.95Q356.45 102.3 357.45 101L358.95 100.4L358.95 100.3L359.35 100.25Q366.15 97.85 373.95 99.5L382.45 99.75M360.85,113.7Q365.65 165.75 363.85 218.8L363.15 239.45Q382.65 233.05 397.9 218.85Q420.5 197.8 417.35 166.35Q413.8 130.9 381.7 114.75Q370.9 115.6 360.85 113.7M405.2,251.8Q401.35 249 396 248Q393.65 247.55 391.45 246.75Q390.85 245.9 390.6 245Q379.55 252.15 364.95 256.25L366.6 257.55Q369.95 259.65 373.45 260.25Q365.95 260.9 362.5 256.9L359.1 337.95Q357.6 371.6 353.5 404.75Q380.75 406.5 405.45 392.2Q442.55 349.65 430.95 292.5Q425.75 266.8 405.2 251.8M216.45,95.75Q218.75 154.4 212.05 213.7Q210.55 226.7 209.9 239.75Q206.95 298.8 205.55 358.2Q204.8 390.5 230.1 408.3Q233.85 410.95 238.45 411Q266.9 411.2 278 384.45Q300.7 329.75 305.2 269.8Q309.65 210.6 306 151.35Q304.5 127.3 306.25 103.25Q306.45 100.5 308.95 99.5Q313.85 109 313.95 119.5Q317.45 118.25 315.95 121.25Q314.2 122.15 313.7 123.5Q317.75 182 314.75 241.25Q311.7 301.8 296.4 360.4Q286.65 397.6 259.85 423.85Q255.95 427.7 250.3 428.2Q216.85 431.3 207.3 400.3Q194.85 359.9 197.55 316.6Q201.2 257.65 205.55 199Q209.45 146.7 215.95 95.8L216.45 95.75M95.75,92.05Q100.35 89.7 104.95 88.25Q147.45 89.4 161.95 127.4Q169.75 147.8 173.3 169.2Q179.8 208.25 153.05 234.05Q126.15 259.95 91.3 254.35L90.05 278.2Q87.05 337.25 87.5 396.7Q87.6 409.1 82.5 419.2Q78.95 415.9 76 414.2Q73.4 413.1 74.25 409.95Q81.65 381.55 80.85 350.7Q80.1 320.95 82 291.5Q85.75 232.4 86.9 173Q87.55 139.6 91.95 107.7Q91.3 106.55 91.2 105.25Q90.85 102.3 91.15 99.25L91.75 95.5Q93.25 93.3 95.75 92.05M122.6,105.2Q106.4 99.4 95.45 110L94.8 110.05Q97.6 134.35 96.25 159.8L92.15 237.75Q135.6 241.75 162.7 206.25Q173.85 160.1 144.2 120.95Q135.8 109.9 122.6 105.2" />
</g>
</svg>
