<?xml version="1.0" encoding="utf-8"?>
<svg version="1.1" id="Layer_1"
xmlns="http://www.w3.org/2000/svg"
xmlns:xlink="http://www.w3.org/1999/xlink"


xml:space="preserve">
q0.35 0.9 0.35 2.6q0 1.65 -0.35 2.65q0 11.1 -9.25 121.65q-1.1 -1.3 -1.8 -6.55q-0.45 -3.75 -0.45 -6.1q0 -22.15 8.15 -109.65q0 -1.8 0.25 -2.6q0.2 -0.7 1 -1.9q19.35 -1.05 35.15 -0.2q-0.55 22.2 -4.3 37.25q-1.7 -3.7 -2.1 -11q-0.15 -2.35 -0.15 -12.15q0 -13.35 0.5 -21.95q-6.8 1.8 -10.2 4.35q-1.55 1.2 -3.5 1.9q-3.05 30.2 -4.25 34.95q-1.6 -0.8 -2.05 -4.35q0 -7.15 3 -37.85q2.9 -29.75 3.75 -33.4q2.75 2.75 2.75 7.35q0 5.85 -1.75 24.8q3.9 -5.6 16.55 -8.2q0.5 -9.65 3.05 -13.9q1.5 2.7 1.5 7.85q-0.85 6.8 -1.6 15.6q-0.6 12.85 -6.4 59.55q0.3 -0.2 0.65 -0.3q31.5 -3.2 38.3 -2.25q3 0.4 3.45 1.75q0.3 0.8 0 3q-13.95 -2.8 -21.85 -1.45q-9.6 2.7 -18.15 4.45q-5.5 44.2 -5.5 65.1q0 14.1 0.5 23.65q0.7 12.85 2.5 23.6q1.1 5.55 2.35 18.4q1.15 12.1 2.45 17.75q4.25 18.6 19.45 18.6q6.2 -4.2 20.55 -20q15.45 -17 15.45 -21.4q0 -1.25 -1 -3.55q-1 -2.3 -1 -3.55q0 -1.55 0.15 -2.8q0.15 -0.5 1.7 -0.5q2.95 0 3.55 5.5q0.25 2.8 -0.05 5.6q0 10.6 -12.55 27.95q-13.15 18.15 -26.7 24.2q-18.35 -4.2 -26.35 -11.7q-6.35 -5.95 -7.15 -15.35q-0.3 -3.3 0 -8.4q0.35 -10.1 -3.25 -16.1q-2.4 -18.65 -2.8 -27.2q-0.2 -3.9 -0.2 -23.8q0 -22.85 5.9 -70.3q6.45 -52.05 7.1 -66.95q1.6 -12 2.65 -18.4q1.75 -11.2 4.3 -19.3q6.95 -22.3 23.8 -34.8q10.1 6.35 11.95 8.3q2.55 2.7 2.55 8.2q0 4 -1.25 6.5q-2.25 -13.5 -11 -13.5q-18.85 0 -27.1 28.6q-2.7 9.45 -4.3 22.3q0 -2.9 1.25 -5q1.25 -2.3 2.65 -3.2q1.1 1.6 1.4 3.8q41.9 7.7 62.1 76.7q7.65 26 11.3 58.2q2.7 23.4 2.7 42.4q0 68.3 -18.8 125q-24.3 73.15 -73.95 99.45q-0.9 -1.05 -1.45 -2.7q-3.25 -2.45 -3.25 -5.15q0 -3.65 1.2 -5.6q0.5 0.5 0.85 1.35q6 -54.05 6 -88.7q0 -7.1 -2 -55.25q-2 -48.15 -2 -65.5q-0.85 -50.65 -0.05 -80.25q0.9 -33.35 4.45 -48.45q-3.45 23.15 -3.6 34.8q0 17.35 2 62.9q2 45.55 2 57.85q0 32.4 -4.2 73.9q-2.05 20.4 -7.05 58.95q45.95 -23.4 69.55 -95.75q9.45 -29 14.2 -62.9q4 -28.5 4 -54.45q0 -9.85 -2.1 -29.65q-3.3 -31.2 -9.9 -56.95q-19.6 -76.75 -60.9 -80.1q-0.8 9.55 -3 24.3q-0.2 7.1 -1.8 12.8q-4.95 18 -21.5 18q-3.35 51.15 -4.95 58.55q-1.25 -1.35 -1.85 -4.2q-0.4 -1.8 -0.4 -3.2q0 -10.55 7 -90.35q-1.4 -2.35 -1 -6.1q0.3 -2.95 1.75 -4.45q-16.4 -1.6 -21.25 -11.7q-1.85 -3.8 -1.85 -8.65q0 -11.25 3.8 -21.2q5.2 -13.65 15.95 -17.8q9.7 0.15 14.55 6.75q3.2 4.4 3.2 8.75q0 1.6 -0.45 2.95q-4.2 -5.1 -7 -5.1q-11.9 0 -17.7 14q-3.55 8.55 -3.55 15.35q0 6.1 2.5 9.4q4.75 6.25 18.35 6.25q6.2 0 11.25 -1.95q0.35 0.9 0.35 2.6q0 3.65 -4.75 6.75q-4.6 3 -9.5 3q3.9 2 8.75 7.95q6.55 8 10.85 18.45q4.9 12 4.9 23.1q0 -3.65 -1.35 -9.8q-1.7 -7.6 -4.6 -13.85q-7.25 -15.85 -18.85 -16.6q0 10.85 -2.2 46.4q16.9 2.7 23.35 -10.85q3.35 -7 3.35 -16.9q-0.05 0.75 -0.8 0.75q-10.25 0 -15.95 8.3q-3.8 5.5 -3.8 9.3q0 1.8 4.3 6.45q13.75 15.8 13.75 29.6q0 9.65 -4.45 18q-7.5 14 -24.8 14q-2.85 -1.7 -5.35 -5.4q-2.65 -3.9 -2.65 -6.85q0 -1.55 0.15 -2.8q1.55 0.8 3.3 3.95q1.65 3 3.7 3.8q22.85 1.8 33.55 -8.35q6.7 -6.4 6.7 -13.65q0 -5.85 -4.35 -12.05q-2.65 -3.75 -9.65 -10.8q-7 -7.1 -9.6 -10.85q-4.4 -6.2 -4.4 -12.05q0 -10.9 5.55 -18q4.65 -5.95 12.2 -8.2q6.65 -2 12.2 -0.45q5.55 1.6 5.55 5.4q1.5 2.7 1.5 6.75q0 9.35 -6.85 65q-6.75 54.45 -9.4 68.25q-9.8 -24.8 -16 -62.5q-5.95 -42.05 -10.25 -63q-3.05 20.25 -7.15 62.15q-4.7 37.5 -14.35 62.85q-1.3 -0.75 -1.8 -1.8q-0.45 -1.05 -0.45 -2.95q0 -4.85 6.15 -33.05q6.4 -29.5 6.85 -35.2q1.8 -23.6 3.05 -35.1q2.2 -20.2 7.95 -32.15q4.5 13.95 7.7 31.5q1.85 10.15 4.7 31.5q5.65 41.65 12.85 63q3.65 -32.65 14.75 -125q0.15 -0.65 1.7 -0.65q0.8 0.2 1.8 0.8q0.5 4.5 0.5 7.85q0 5 -5.45 57.8q-2.7 24.65 -5 64.5q-1.95 26.3 -3.5 64.4q-1.7 44.4 -11.1 78.15q-13.65 48.85 -38.9 48.85q-24.7 0 -33.2 -31.35q-2.7 -9.95 -4.05 -24.85q-2.65 -15.25 -2.6 -46.1q0 -25.45 5.9 -142q1.7 -27.3 3.25 -40.95q2.8 -23.9 9 -33.8q1.75 2.1 1.75 5.6q0 7.05 -4.6 37.7q-5.15 34.6 -5.4 36.95q-5.95 113.35 -5.95 139.8q0.4 26.05 2.2 47.55q5.8 68.5 23.75 68.5q40.2 0 51.95 -57.2q3.7 -17.9 4.55 -42.2q0.3 -21.9 0.75 -25.35q3.25 -23.1 3.85 -63.2q0.75 -48.6 1.9 -64.3q19 -236.9 19 -255.75q-13.8 -14.25 -51.5 -19.75q0.85 5.45 0.75 12.2q0.05 6.85 1.1 11.85q1 7.5 1 22.85q0 15.4 -1 22.9q0.85 0.25 1.65 1.1q1.1 1.25 2.35 1.25q49.4 0 63.05 -43.25q4.3 -13.7 4.55 -30.65q-0.9 -13.05 -5.85 -25.05q-2.75 -8.1 -4.5 -12.35q-3.1 -7.55 -8 -12.65q-0.4 9.05 -4.05 28.6q-0.6 3.4 -4.1 10.5q-4.3 8.9 -10 16.45q-16.5 21.8 -35.9 21.8q-15.15 0 -21 -2.15q-1 6 -1 19.1q0 16.6 2 48.85q2 32.25 2 47.9q0 21.55 -8.35 100.35q-8.35 78.25 -10.65 80.55q-0.9 -1.2 -1.5 -5.1q-0.5 -2.95 -0.5 -4.4q4.25 -35.25 8.5 -74.2q8.5 -77.9 8.5 -97.55q0 -16.15 -2 -48.4q-2 -32.25 -2 -48q0 -16.1 1 -24.35q1 -6 1 -18q0 -12 -1 -18q-1.95 -10.2 -2.6 -23.2q-0.3 -6.7 -0.35 -17.6q-1.5 -2.25 -1.5 -5.65q0 -2.35 0.4 -3.45q0.6 -1.55 2.6 -3.15q50.75 3.4 65.8 45.85q5.15 14.4 6.15 33.75q17.2 0.55 21.85 2.6q1.65 0.75 1.95 1.8q0 1.65 -0.35 2.65q-1.6 -0.8 -2.05 -4.35q0 -9.65 2.8 -28.35q2 -13.65 4.45 -25.65q1.8 0.25 2.65 2.95q0.6 1.9 0.6 4.55q0 8.25 -2.7 22.9q0 35.9 -3 62.25q3.65 -16.25 9.15 -45q6.05 -31.9 8.85 -45q3.25 9.75 4 26.25q0.95 21.9 1.75 27.25q0.5 3.25 5.95 27.8q5.05 22.5 5.05 25.45q0 1.7 -0.35 3.05q-7.75 -25.7 -11.5 -44.45q-4.9 -24.7 -4.75 -45.05q-3 14.25 -8.6 44.15q-5.35 26.85 -10.9 44.85q-0.15 -1.05 -0.15 -2.65q0 -12.7 2 -39.75q2 -27.1 2 -39.4q-16.35 59.05 -28.5 95.75q-0.5 -3 -0.5 -5.65q0 -1.6 7.05 -23.65q7.8 -24.55 9.45 -31.45q4.1 -19.55 6.5 -28.85q4.2 -16.15 10 -24.4q1.5 7.5 1.5 23.25q1.8 0.95 2.3 6.75q0 11.85 -1.6 28.15q-0.6 3.55 -2.25 5.75q-3.95 0.4 -4.1 0.7q-1.25 -1.4 -1.85 -4.1q-0.4 -1.9 -0.4 -3.65q0 -7 2.5 -29.5q2.5 -22.45 2.5 -38.4q0 -1.9 0.65 -3.65q0.6 -1.75 1.35 -1.95q16.6 -6.1 24.45 6.85q4.8 7.9 4.8 16.65q0 6.55 -4.25 11.75q-2.25 2.75 -5.4 4.6q13.25 14.85 13.25 17.7q0 1.6 -0.45 2.8q-3.25 -1.8 -15.95 -15.35q-7 -7.5 -10.55 -12.45q-4.2 21.05 -5.95 25.9q-0.5 -3 -0.5 -4.9q0 -4.35 3.4 -22.85q-2.4 -2.85 -2.4 -4.9q0 -2.6 0.75 -4.85q1.05 0.2 2.25 1.8q3.15 -16.35 5.4 -24.9q0 -1.8 0.25 -2.6q-0.5 5.7 -4 24.15q0.4 -1 1.5 -1.75q5.45 -2.5 5.45 -5.85q0 -2.2 -3.95 -7.95q-4 -5.85 -5.8 -5.9q4.25 2.85 4.25 5.5q-0.05 1.2 -1.5 1.75q-3.15 1.25 -21 1.25q0 1.9 -0.6 6.35q0 -0.5 18.25 -0.25q0.35 0.9 0.35 2.6q0 1.65 -0.35 2.65q-1.25 -1.45 -1.85 -4.25q-0.4 -1.8 -0.4 -3.15q0 -5.5 1.1 -23.85q0 -1.8 0.25 -2.6q0.2 -0.7 1 -1.9q1.1 -17.7 1.7 -24.05q-0.4 -1.15 -0.4 -2.55q-0.1 -1 0.15 -1.95q0.55 -1.85 2.6 -2.3q0.35 0.9 0.35 2.6q0 1.65 -0.35 2.65q-22.45 -0.4 -30.45 1.85q0 4.1 -1.05 14q1.6 0.95 2.55 2.6q0 1.3 -0.7 2.65q-1.05 2.15 -3.55 3.1q-0.5 -4.5 -0.5 -6.4q0 -10.25 2.7 -33.55q-0.55 -1.25 -0.55 -3q-0.2 -1.9 -0.05 -2.5q0.2 -0.75 1.55 -1.05q1.05 -8.15 2.05 -13.55q-0.5 -3 -0.5 -6q-0.2 -2.05 -0.05 -2.9q0.25 -1.4 2 -2.35q4.15 -2.25 22.8 -4.5<g id="427" transform="matrix(1, 0, 0, 1, -8.4, 0)">
<path style="fill:#000000;fill-opacity:1" d="M377.4,8.4Q377.75 9.3 377.75 11Q377.75 12.65 377.4 13.65L376.5 15.5L333.5 16L328.7 16.95L328.75 17.85Q328.75 28.95 319.5 139.5L319.5 139.75Q318.4 138.45 317.7 133.2Q317.25 129.45 317.25 127.1Q317.25 104.95 325.4 17.45L314.4 18.65L291.5 19.75L276.25 19.5L275.45 17.65L275.25 15Q275.25 13.2 275.5 12.4Q275.7 11.7 276.5 10.5Q295.85 9.45 311.65 10.3L318.65 9.8L334 6.25L376.25 6.5L377.4 8.4M360.75,137.35L360.8 175.5Q360.25 197.7 356.5 212.75Q354.8 209.05 354.4 201.75Q354.25 199.4 354.25 189.6Q354.25 176.25 354.75 167.65Q347.95 169.45 344.55 172L341.55 174.5Q340 175.7 338.05 176.4L337.75 179.55Q334.7 209.75 333.5 214.5L333.5 214.75Q331.9 213.95 331.45 210.4L331.25 205.5Q331.25 198.35 334.25 167.65Q337.15 137.9 338 134.25Q340.75 137 340.75 141.6Q340.75 147.45 339 166.4Q342.9 160.8 355.55 158.2L356.2 143.4Q356.7 133.75 359.25 129.5Q360.75 132.2 360.75 137.35M374.35,195.9Q373.5 202.7 372.75 211.5L372.75 252Q372.15 264.85 366.35 311.55Q366.65 311.35 367 311.25Q398.5 308.05 405.3 309Q408.3 309.4 408.75 310.75Q409.05 311.55 408.75 313.75L408.3 316.7L407.5 318.75Q393.55 315.95 385.65 317.3Q376.05 320 367.5 321.75L365.25 320.4Q359.75 364.6 359.75 385.5Q359.75 399.6 360.25 409.15Q360.95 422 362.75 432.75L362.75 482.25Q363.85 487.8 365.1 500.65Q366.25 512.75 367.55 518.4Q371.8 537 387 537L395.25 536.75Q401.45 532.55 415.8 516.75Q431.25 499.75 431.25 495.35Q431.25 494.1 430.25 491.8Q429.25 489.5 429.25 488.25Q429.25 486.7 429.4 485.45L429.5 484.5L429.55 484Q429.7 483.5 431.25 483.5Q434.2 483.5 434.8 489Q435.05 491.8 434.75 494.6Q434.75 505.2 422.2 522.55Q409.05 540.7 395.5 546.75Q377.15 542.55 369.15 535.05Q362.8 529.1 362 519.7Q361.7 516.4 362 511.3L362.5 502.85Q362.85 492.75 359.25 486.75L359.25 436.5Q356.85 417.85 356.45 409.3Q356.25 405.4 356.25 385.5Q356.25 362.65 362.15 315.2Q368.6 263.15 369.25 248.25L369.25 207.75Q370.85 195.75 371.9 189.35Q373.65 178.15 376.2 170.05Q383.15 147.75 400 135.25L406.25 135.5Q416.35 141.85 418.2 143.8Q420.75 146.5 420.75 152Q420.75 156 419.5 158.5L419.5 158.75L416.75 158.5Q414.5 145 405.75 145Q386.9 145 378.65 173.6Q375.95 183.05 374.35 195.9M453.5,144.75L453.25 141.5Q453.25 138.6 454.5 136.5L456.6 136.7Q457.85 134.4 459.25 133.5Q460.35 135.1 460.65 137.3Q502.55 145 522.75 214Q530.4 240 534.05 272.2Q536.75 295.6 536.75 314.6Q536.75 382.9 517.95 439.6Q493.65 512.75 444 539.05L443.5 542.75Q442.6 541.7 442.05 540.05L438.5 541.75Q435.25 539.3 435.25 536.6Q435.25 532.95 436.45 531L441.25 525.5Q441.75 526 442.1 526.85L443.15 518.15L447.25 483.45Q453.25 429.4 453.25 394.75Q453.25 387.65 451.25 339.5Q449.25 291.35 449.25 274Q448.4 223.35 449.2 193.75Q450.1 160.4 453.65 145.3L453.5 144.75M457.35,172.2Q453.9 195.35 453.75 207L452.75 274.1Q452.75 291.45 454.75 337Q456.75 382.55 456.75 394.85Q456.75 427.25 452.55 468.75Q450.5 489.15 445.5 527.7Q491.45 504.3 515.05 431.95Q524.5 402.95 529.25 369.05Q533.25 340.55 533.25 314.6Q533.25 304.75 531.15 284.95Q527.85 253.75 521.25 228Q501.65 151.25 460.35 147.9Q459.55 157.45 457.35 172.2M332.8,257.95Q332.6 265.05 331 270.75Q326.05 288.75 309.5 288.75L302.25 288.5L302 287.95L301.45 296.2Q298.1 347.35 296.5 354.75Q295.25 353.4 294.65 350.55Q294.25 348.75 294.25 347.35Q294.25 336.8 301.25 257L301.25 212Q299.85 209.65 300.25 205.9Q300.55 202.95 302 201.45Q285.6 199.85 280.75 189.75Q278.9 185.95 278.9 181.1L279.25 176.25Q279.25 165 283.05 155.05Q288.25 141.4 299 137.25Q308.7 137.4 313.55 144Q316.75 148.4 316.75 152.75Q316.75 154.35 316.3 155.7L315.5 157.75L311 152.1Q306.8 147 304 147Q292.1 147 286.3 161Q282.75 169.55 282.75 176.35Q282.75 182.45 285.25 185.75Q290 192 303.6 192Q309.8 192 314.85 190.05L321.25 187.5L322.4 189.4Q322.75 190.3 322.75 192Q322.75 195.65 318 198.75Q313.4 201.75 308.5 201.75L308.25 201.75Q312.15 203.75 317 209.7Q323.55 217.7 327.85 228.15Q332.75 240.15 332.75 251.25L332.8 257.95M329.25,251.75Q329.25 248.1 327.9 241.95Q326.2 234.35 323.3 228.1Q316.05 212.25 304.45 211.5L304.65 216.6L304.75 233.1Q304.75 243.95 302.55 279.5Q319.45 282.2 325.9 268.65Q329.25 261.65 329.25 251.75M336.85,353.05Q336.8 353.8 336.05 353.8L325 353Q314.75 353 309.05 361.3Q305.25 366.8 305.25 370.6Q305.25 372.4 309.55 377.05L319 387.15Q332.75 402.95 332.75 416.75Q332.75 426.4 328.3 434.75Q320.8 448.75 303.5 448.75L288.25 448.5Q285.4 446.8 282.9 443.1Q280.25 439.2 280.25 436.25Q280.25 434.7 280.4 433.45L280.5 432.5L281.05 432.05L282 431.25Q283.55 432.05 285.3 435.2Q286.95 438.2 289 439Q311.85 440.8 322.55 430.65Q329.25 424.25 329.25 417Q329.25 411.15 324.9 404.95Q322.25 401.2 315.25 394.15Q308.25 387.05 305.65 383.3Q301.25 377.1 301.25 371.25Q301.25 360.35 306.8 353.25Q311.45 347.3 319 345.05Q325.65 343.05 331.2 344.6Q336.75 346.2 336.75 350L336.85 353.05M283.25,65.5Q284.75 68.2 284.75 72.25Q284.75 81.6 277.9 137.25Q271.15 191.7 268.5 205.5L268.5 205.75Q258.7 180.95 252.5 143.25Q246.55 101.2 242.25 80.25L242 79.75Q238.95 100 234.85 141.9Q230.15 179.4 220.5 204.75Q219.2 204 218.7 202.95Q218.25 201.9 218.25 200Q218.25 195.15 224.4 166.95Q230.8 137.45 231.25 131.75Q233.05 108.15 234.3 96.65Q236.5 76.45 242.25 64.5Q246.75 78.45 249.95 96Q251.8 106.15 254.65 127.5Q260.3 169.15 267.5 190.5L267.5 190.75Q271.15 158.1 282.25 65.75L283.25 65.5M219.15,15.8L219.25 14.5L219.3 13.9Q219.45 13.25 221 13.25L223.7 13.45Q224.5 13.65 225.5 14.25Q226 18.75 226 22.1Q226 27.1 220.55 79.9L213 152.25Q210.3 176.9 208 216.75L204 282Q202.05 308.3 200.5 346.4L198 411.75Q196.3 456.15 186.9 489.9Q173.25 538.75 148 538.75Q123.3 538.75 114.8 507.4Q112.1 497.45 110.75 482.55L109 464.25Q106.35 449 106.4 418.15L107 388.5Q107 363.05 112.9 246.5L119 131.25L119 83.25Q120.7 55.95 122.25 42.3Q125.05 18.4 131.25 8.5Q133 10.6 133 14.1Q133 21.15 128.4 51.8Q123.25 86.4 123 88.75L123 137.5L116.95 248.55Q111 361.9 111 388.35L111.05 410.95Q111.45 437 113.25 458.5Q119.05 527 137 527Q177.2 527 188.95 469.8Q192.65 451.9 193.5 427.6Q193.8 405.7 194.25 402.25Q197.5 379.15 198.1 339.05Q198.85 290.45 200 274.75Q219 37.85 219 19L219.15 15.8M83.5,36.75Q69.7 22.5 32 17L29.4 17.1Q30.25 22.55 30.15 29.3L29.9 41.15Q29.95 48 31 53L31 143Q32 150.5 32 165.85Q32 181.25 31 188.75L31 198.65Q31.85 198.9 32.65 199.75Q33.75 201 35 201Q84.4 201 98.05 157.75Q102.35 144.05 102.6 127.1L102 111.25L101.85 86.8Q100.95 73.75 96 61.75Q93.25 53.65 91.5 49.4Q88.4 41.85 83.5 36.75M105.95,85.6L106 111.1L106.05 135.4Q105.65 144.45 102 164Q101.4 167.4 97.9 174.5Q93.6 183.4 87.9 190.95Q71.4 212.75 52 212.75Q36.85 212.75 31 210.6L31 248.75Q30 254.75 30 267.85Q30 284.45 32 316.7Q34 348.95 34 364.6Q34 386.15 25.65 464.95Q17.3 543.2 15 545.5Q14.1 544.3 13.5 540.4Q13 537.45 13 536Q17.25 500.75 21.5 461.8Q30 383.9 30 364.25Q30 348.1 28 315.85Q26 283.6 26 267.85Q26 251.75 27 243.5L27 183.5Q28 177.5 28 165.5Q28 153.5 27 147.5L27 58.25Q25.05 48.05 24.4 35.05Q24.1 28.35 24.05 17.45L23.5 17.5Q22 15.25 22 11.85Q22 9.5 22.4 8.4Q23 6.85 25 5.25L29.2 5.45L34 6Q84.75 9.4 99.8 51.85Q104.95 66.25 105.95 85.6M87.05,230.9L83 253Q100.2 253.55 104.85 255.6Q106.5 256.35 106.8 257.4L106.75 259Q106.75 260.65 106.4 261.65L105.5 263.5L98 263L89.85 263.2L81.5 263.75Q79.9 262.95 79.45 259.4L79.25 254.5Q79.25 244.85 82.05 226.15Q84.05 212.5 86.5 200.5Q88.3 200.75 89.15 203.45Q89.75 205.35 89.75 208Q89.75 216.25 87.05 230.9M244.75,226.75Q244.75 262.65 241.75 289L241.75 295L242 295Q245.65 278.75 251.15 250Q257.2 218.1 260 205L261 204.25Q264.25 214 265 230.5Q265.95 252.4 266.75 257.75Q267.25 261 272.7 285.55Q277.75 308.05 277.75 311Q277.75 312.7 277.4 314.05L276.5 316.75Q268.75 291.05 265 272.3Q260.1 247.6 260.25 227.25L260 226.75Q257 241 251.4 270.9Q246.05 297.75 240.5 315.75L237.75 315.5L237.4 313.65Q237.25 312.6 237.25 311Q237.25 298.3 239.25 271.25Q241.25 244.15 241.25 231.85L241 221.75Q224.65 280.8 212.5 317.5L210.75 317.5Q210.25 314.5 210.25 311.85Q210.25 310.25 217.3 288.2Q225.1 263.65 226.75 256.75Q230.85 237.2 233.25 227.9Q237.45 211.75 243.25 203.5Q244.75 211 244.75 226.75M224.25,309.5Q226.05 310.45 226.55 316.25L226.75 323.75Q226.75 335.6 225.15 351.9L222 379.75L222 380L230.3 379.2L236 378.25L240.7 378.45L246 379L275.25 379.5L279.15 379.8L283.25 380.25L283.75 384Q283.15 387.55 281.5 389.75L274.75 389L259.95 388.7L244.75 388L240.7 388.2L236.5 388.75L232.1 389.05L227.5 389.75L223.6 390.05Q219.65 390.45 219.5 390.75Q218.25 389.35 217.65 386.65Q217.25 384.75 217.25 383Q217.25 376 219.75 353.5Q222.25 331.05 222.25 315.1Q222.25 313.2 222.9 311.45Q223.5 309.7 224.25 309.5M230.5,392.5Q247.1 386.4 254.95 399.35Q259.75 407.25 259.75 416Q259.75 422.55 255.5 427.75Q253.25 430.5 250.1 432.35L257.5 440.4Q270.75 455.25 270.75 458.1Q270.75 459.7 270.3 460.9L269.5 462.75Q266.25 460.95 253.55 447.4Q246.55 439.9 243 434.95L234.5 435.75L227.7 435.6Q223.5 456.65 221.75 461.5L219.75 461.5Q219.25 458.5 219.25 456.6Q219.25 452.25 222.65 433.75Q220.25 430.9 220.25 428.85Q220.25 426.25 221 424L222 423.25Q223.05 423.45 224.25 425.05Q227.4 408.7 229.65 400.15L229.45 399.65L229.25 397Q229.25 395.2 229.5 394.4L230.5 392.5M245.75,401L242.2 401.2L238.5 401.75L233.65 401.6Q233.15 407.3 229.65 425.75L235 425.75L239.75 424.25Q240.15 423.25 241.25 422.5L242.1 423.5L250.05 420.7Q255.5 418.2 255.5 414.85Q255.5 412.65 251.55 406.9Q247.55 401.05 245.75 401M281,467L294.45 466.45L303 465.75L304.05 465.45L311.5 465.5Q315.75 468.35 315.75 471L316 473.75Q315.95 474.95 314.5 475.5Q311.35 476.75 293.5 476.75L281.75 476.55Q281.75 478.45 281.15 482.9L279.75 490.75L279.75 498.35L292 497.75Q292 497.25 310.25 497.5L311.4 499.4Q311.75 500.3 311.75 502Q311.75 503.65 311.4 504.65L310.5 506.5L289.5 507.75L279.75 507.6L279.75 529.75L278.7 534.2L277.5 538.5L277.5 538.75Q276.25 537.3 275.65 534.5Q275.25 532.7 275.25 531.35Q275.25 525.85 276.35 507.5L276.25 507.5L275.45 505.65L275.25 503Q275.25 501.2 275.5 500.4Q275.7 499.7 276.5 498.5L276.9 498.5L276.95 497.85Q278.05 480.15 278.65 473.8Q278.25 472.65 278.25 471.25Q278.15 470.25 278.4 469.3Q278.95 467.45 281 467M254.4,469.4Q254.75 470.3 254.75 472Q254.75 473.65 254.4 474.65L253.5 476.5Q231.05 476.1 223.05 478.35L219.75 479.65L219.75 481.6Q219.75 485.7 218.7 495.6L236.5 496.75Q238.1 497.7 239.05 499.35L239.75 501Q239.75 502.3 239.05 503.65Q238 505.8 235.5 506.75L223.45 505.9L217.6 505.15L212.5 542.5L212.5 542.75L209.75 542.5Q209.25 538 209.25 536.1Q209.25 525.85 211.95 502.55L211.8 502.25Q211.25 501 211.25 499.25Q211.05 497.35 211.2 496.75Q211.4 496 212.75 495.7Q213.8 487.55 214.8 482.15L213.75 482.5Q213.25 479.5 213.25 476.5Q213.05 474.45 213.2 473.6Q213.45 472.2 215.2 471.25Q219.35 469 238 466.75L238 466.25L246.3 466.8L253.25 467.5L254.4 469.4" />
</g>
</svg>
