<?xml version="1.0" encoding="utf-8"?>
<svg version="1.1" id="Layer_1"
xmlns="http://www.w3.org/2000/svg"
xmlns:xlink="http://www.w3.org/1999/xlink"


xml:space="preserve">
q-14.85 -5.9 -31.45 -3.45q-15.6 2.3 -31.5 1.6q-5.4 96.05 -7.45 192.7q-1.25 60.3 -3.4 120.65q-0.65 11.95 -1.05 23.95q0 0.55 0.4 1.1q8.1 -19.6 8.1 -46.55q0 -60.4 2.3 -120.85q1.5 -73.65 1.15 -146.95q2.2 42.4 -1 84.3q-3.65 47.85 -6.1 96.05q-2.5 48.7 -4 96.65q1.6 1.55 3.05 0q2.6 -17.45 3.45 -35.45q42.8 0.4 86.35 -2.55q-3.3 48.2 -7.95 96.05q-4.75 48.15 -10.6 96.1q-0.8 6.55 -2.95 5.55q-3.85 9.3 2.25 18.1q1.85 -0.7 2.2 -2.8q3.65 -21.85 6.4 -43.9q6 -47.55 9.7 -95.55q1.2 -3 0.4 -5.65q3.3 -45.45 5.3 -91.15q2.15 -48.65 6.4 -96q-4.5 10.4 -5.45 22.95q-3.55 47.65 -6.65 95.45q-43.95 -0.5 -86.7 6.8q1.8 -36 3.05 -72.2q1.7 -48.5 -1.25 -96.55q-2.35 11.25 -1.7 24.45q-2 0.25 -2.1 2.4q-9.5 26 -15.6 54.75q-9.8 46.4 -17.3 93.05q-3.95 24.6 -9.85 48.75q-5.25 21.05 -12.05 41.75q-15.15 46.25 -27.05 93.95q-5.8 23.4 -11.25 46.8q-2.95 12.7 0.5 23.3q7.85 -30.45 14.85 -61.95q10.5 -47.2 25.3 -93.05q7.85 -24.5 13.4 -49.5q30.9 3.45 62.25 1.1q8.7 47.35 14.8 95.15q6.2 48.3 18.1 95.35q1.1 2.05 3.05 1.2q2.05 -6.55 0.15 -13.5q-5.3 -19.45 -8.7 -39.3q-8 -47.2 -15.1 -94.55q-7.1 -47.5 -15.15 -94.9q-6.05 -35.45 -10 -71.3q-5.25 -47.85 -9.1 -95.55q-2.35 0.4 -4 1.6q-0.95 23.05 -1.45 46.45q-1.05 48.35 0.95 96.65q-0.05 1 0.2 1.85q1.25 48.4 -0.7 96.65q-1 24.55 -3.65 48.7q-1.6 14.35 4.2 23.8q1 -1 1.05 -2.45q1.2 -36.35 2.7 -72.75q2 -48.25 0.7 -96.6q39.15 2.2 67.4 -24.2q15.4 -19.7 21.7 -44.25q12.5 -48.7 -10.45 -93.35q-4.9 -9.55 -13.35 -16q-26.75 -20.45 -61.7 -21.5q18.35 47.95 -3.95 94.1q-6 12.55 -16.35 21.75q-26.5 23.7 -62.8 22.5q-0.95 -24.15 -0.65 -48.3q0.55 -46.55 -2.4 -92.1q20.85 -0.1 42.15 5.5q33.2 8.8 45.55 41.05q-30.5 -1.95 -60.75 1.1<g id="443" transform="matrix(1, 0, 0, 1, -54.3, 0)">
<path style="fill:#000000;fill-opacity:1" d="M406.4,91.75L335.5 90.5Q335.85 163.8 334.35 237.45L333.6 261.6L332.55 285.6L330.55 333.9Q328.25 394.35 328.25 454.75Q328.25 481.7 320.15 501.3Q319.75 500.75 319.75 500.2Q320.15 488.2 320.8 476.25L322.05 452.15L324.05 403.6Q326.2 343.25 327.45 282.95Q329.5 186.3 334.9 90.25L254 85.6L254.4 79.35L254.85 79.15L276.15 79.65L296.25 80.8L316.45 82.05L342.95 83.6Q358.85 84.3 374.45 82Q391.05 79.55 405.9 85.45L406.4 91.75M384.2,104.8Q387.15 152.85 385.45 201.35Q384.2 237.55 382.4 273.55L382.2 277.85Q424.95 270.55 468.9 271.05L473.2 204.65Q476.3 156.85 479.85 109.2Q480.8 96.65 485.3 86.25Q481.05 133.6 478.9 182.25Q476.9 227.95 473.6 273.4Q474.4 276.05 473.2 279.05L473.15 279.25L465.9 374.25Q462.2 422.25 456.2 469.8Q453.45 491.85 449.8 513.7Q449.45 515.8 447.6 516.5Q441.5 507.7 445.35 498.4Q447.5 499.4 448.3 492.85Q454.15 444.9 458.9 396.75Q463.55 348.9 466.85 300.7L468.3 280Q424.75 282.95 381.95 282.55L377.65 370.2L373 466.8Q372.15 484.8 369.55 502.25Q368.1 503.8 366.5 502.25Q368 454.3 370.5 405.6L375.4 309.6Q377.85 261.4 381.5 213.55Q384.7 171.65 382.5 129.25Q381.85 116.05 384.2 104.8M230.1,77.65Q233.95 125.35 239.2 173.2Q243.15 209.05 249.2 244.5Q257.25 291.9 264.35 339.4Q271.45 386.75 279.45 433.95Q282.85 453.8 288.15 473.25Q290.05 480.2 288 486.75Q286.05 487.6 284.95 485.55Q273.05 438.5 266.85 390.2Q260.75 342.4 252.05 295.05L249.9 282.85L249.5 283.55Q218.15 285.9 187.25 282.45Q181.7 307.45 173.85 331.95Q159.05 377.8 148.55 425Q141.55 456.5 133.7 486.95Q130.25 476.35 133.2 463.65Q138.65 440.25 144.45 416.85Q156.35 369.15 171.5 322.9Q178.3 302.2 183.55 281.15L183.5 280.9L183.45 280.3L183.45 279.65L183.45 278.45L184.25 278.4Q190.15 254.25 194.1 229.65Q201.6 183 211.4 136.6Q217.5 107.85 227 81.85L227.15 78.25Q227.25 76.1 229.25 75.85L229.3 75.85L229.9 77.05L230.1 77.65M66.85,71.95Q101.8 73 128.55 93.45Q137 99.9 141.9 109.45Q164.85 154.1 152.35 202.8Q146.05 227.35 130.65 247.05Q102.4 273.45 63.25 271.25L64.55 315.35Q65.85 363.7 63.85 411.95Q62.35 448.35 61.15 484.7Q61.1 486.15 60.1 487.15Q54.3 477.7 55.9 463.35Q58.55 439.2 59.55 414.65Q61.5 366.4 60.25 318L58.9 270.6L58.25 269.6L57.8 268.45Q57.55 267.6 57.6 266.6L57.95 264.2L58.3 262.95L58.65 263L57 221.4Q55 173.1 56.05 124.75Q56.55 101.35 57.5 78.3L57.05 78.3L56.9 77.05L56.85 76.45L56.85 75.85L56.9 75.25L57.05 74Q58.7 72.8 61.05 72.4L66.85 71.95M100.55,83.8Q79.25 78.2 58.4 78.3Q61.35 123.85 60.8 170.4Q60.5 194.55 61.45 218.7L63 263.2Q99.3 264.4 125.8 240.7Q136.15 231.5 142.15 218.95Q164.45 172.8 146.1 124.85Q133.75 92.6 100.55 83.8M248.95,277.1L226.9 86.45L188.2 278.2Q218.45 275.15 248.95 277.1" />
</g>
</svg>
