<?xml version="1.0" encoding="utf-8"?>
<svg version="1.1" id="Layer_1"
xmlns="http://www.w3.org/2000/svg"
xmlns:xlink="http://www.w3.org/1999/xlink"


xml:space="preserve">
q-26.25 22 -33.25 56.6q-12.9 63.85 -14.5 129.15q-0.35 14.85 -0.2 29.7q0.25 26 2.45 51.85q0.65 7.3 2.25 14.4q0.8 3.4 2.15 6.45q1.6 2.9 3.5 5.55q7.35 10.15 19.1 14.85q20.85 8.3 37.6 -7.15q20.1 -18.45 24.3 -45.15q1.25 -8 0.05 -16.15q-8.6 24 -24.75 43.5q-12.75 15.35 -31.35 8.9q-3.25 -1.05 -6.35 -2.4q-4.4 -2 -6.75 -6.1q-5.85 -10.2 -9.1 -21.65q-1.95 -6.95 -3.15 -14.3q-0.65 -5.6 -0.85 -11.2q-2.05 -53.65 3.15 -106.95q5.7 -58.35 34.25 -109.15q19.3 -3.9 36.95 3.1q1.5 -1.4 1 -3.65q-12.75 -8.1 -28.3 -7.5q1.95 57.05 2.95 114.2q-28 -0.05 -54.95 4.85q2.25 -60.1 -5.25 -118.55q-5.2 10.3 -4.15 24.8q4.25 57.65 1.5 115.5q-0.75 15.05 -3.45 29.65q-2.6 14.4 5.4 21.8q5.75 -16.7 4.5 -35.25q1.45 -2.35 3.05 -4.55q-1.7 1.85 -3.15 3.95q-0.45 -18 0.85 -35.75q3.15 -44.15 5.2 -88.45q27.7 -0.45 55.75 -1.3q0 53.1 -6.35 105.3q-1.8 14.95 -4.8 29.65q-2.85 14.1 5.35 22.05q6.8 -29.6 9.4 -61.4q4.9 -59.1 4 -119.3q-0.95 -60 -6.4 -118.5q-4.6 3.3 -4.35 10.55q-5.05 2.95 -6.9 9.45q-4.95 17.5 -9.2 35.15q-13.7 57.3 -25.65 114.85q-12.15 58.2 -32.25 113.5q-0.4 2.7 -1.6 5.1q-7.9 16.05 0 28.1q15.4 -35.25 26.2 -73.9q7.95 -28.5 13.7 -57.4q24.95 3.45 49 -2.65q3.55 26.5 7.55 52.9q3.35 21.8 5.1 43.8q2.4 30.45 10.95 58.35q6.25 -5.85 4.7 -15.9q-4.4 -29.25 -7.1 -58.65q-5.5 -58.75 -17.25 -116.05q-0.7 7.5 -2.55 14.65q-4.4 17.35 3.05 30.15q1.65 -0.8 1.95 -2.55q3.6 -19.65 5.7 -39.55q1.95 -18.6 3.15 -37.1q9.5 -0.15 16.9 -6.3q5.4 36.95 18.55 72.75q1.15 9.1 7.25 12.5q2 -2.25 1.35 -5.05q-9.95 -43 -24.65 -84.85q27.95 -30.2 7.3 -66.1q-5.9 -6.75 -14.1 -9.65q-6.6 0.4 -12.5 3.75q-0.9 2.55 -0.9 5.25q3.05 35.8 7.15 72.1q2.75 24.35 5.95 48.65q9.25 -44.05 20.1 -87.85q3.65 -14.5 8.6 -28.5q1.7 -4.9 2.6 -9.6q3.65 2 6.55 4.95q6.95 7.1 7.55 16.85q1.75 29.85 -27.25 36.4q1.45 -29 1.05 -57.75q-1.05 0.95 -1.55 2.3q-1.5 4 -0.8 8.2q-3.4 22.2 -4.55 45.55q-1.85 4.8 -0.85 10.05q-3.4 58.4 -2.85 117.05q0.1 3.9 -0.2 7.9q-0.15 1.4 -1.1 2.25q1.6 11.85 7.7 21q5.35 -5.65 5.05 -14.05q-2.4 -60 0.8 -119.25q18.05 0.65 33.3 -9.6q40.2 -27 31.05 -74.2q-8.5 -43.75 -42.25 -69.9q-13.6 40.75 -55.7 42.05q2.4 -37.4 5.55 -74.7q2 -23.65 -0.05 -46.55q26.75 21.15 36.05 55.25q3.4 12.45 -0.6 24.45q3.95 -5.05 2.65 -11.4q-0.6 -3.05 -2.65 -5.6q-2.6 4.7 -1.55 9.95q0.5 2.3 1.55 4.3q-10.05 62.2 -2.95 121.65q0.05 0.55 0.45 1.1q12.65 -55.9 4.75 -122.6<g id="449" transform="matrix(1, 0, 0, 1, -59.3, 0)">
<path style="fill:#000000;fill-opacity:1" d="M349.4,95.25Q364.95 94.65 377.7 102.75L377.9 103.55L379.9 111.45Q380.4 113.7 378.9 115.1Q361.25 108.1 341.95 112Q313.4 162.8 307.7 221.15Q302.5 274.45 304.55 328.1Q304.75 333.7 305.4 339.3L306.4 346.7Q307.6 354.05 309.55 361Q312.8 372.45 318.65 382.65Q321 386.75 325.4 388.75Q328.5 390.1 331.75 391.15Q350.35 397.6 363.1 382.25Q379.25 362.75 387.85 338.75L390.3 339.5Q391.5 347.65 390.25 355.65Q386.05 382.35 365.95 400.8Q349.2 416.25 328.35 407.95Q316.6 403.25 309.25 393.1Q307.35 390.45 305.75 387.55L303.85 383.65Q302.5 380.6 301.7 377.2Q300.1 370.1 299.45 362.8Q297.25 336.95 297 310.95Q296.85 296.1 297.2 281.25Q298.8 215.95 311.7 152.1Q318.7 117.5 344.95 95.5L349.4 95.25M473.45,104.75Q478.9 163.25 479.85 223.25Q480.75 283.45 475.85 342.55Q473.25 374.35 466.45 403.95Q458.25 396 461.1 381.9Q464.1 367.2 465.9 352.25Q472.25 300.05 472.25 246.95Q444.2 247.8 416.5 248.25Q414.45 292.55 411.3 336.7Q410 354.45 410.45 372.45Q411.9 370.35 413.6 368.5L413.5 370.9Q411.9 373.1 410.45 375.45Q411.7 394 405.95 410.7Q397.95 403.3 400.55 388.9Q403.25 374.3 404 359.25L409.8 240.05Q412.55 182.2 408.3 124.55Q407.25 110.05 412.45 99.75Q419.95 158.2 417.7 218.3L417.1 234.35Q444.05 229.45 472.05 229.5Q471.05 172.35 469.1 115.3Q468.85 108.05 473.45 104.75M196.45,98.5L197.2 99.25Q208.95 156.55 214.45 215.3Q217.15 244.7 221.55 273.95L239.15 390.8Q240.7 400.85 234.45 406.7Q225.9 378.8 223.5 348.35Q221.75 326.35 218.4 304.55Q214.4 278.15 210.85 251.65Q186.8 257.75 161.85 254.3L158.85 269.15Q153.1 298.05 145.15 326.55Q134.35 365.2 118.95 400.45Q111.05 388.4 118.95 372.35Q120.15 369.95 120.55 367.25L121.6 366.15L121.5 368.45L121.45 369.2Q141.55 313.9 153.7 255.7Q165.65 198.15 179.35 140.85Q183.6 123.2 188.55 105.7Q190.4 99.2 195.45 96.25L195.8 98L196.45 98.5M238.55,100.5Q238.55 97.8 239.45 95.25Q245.35 91.9 251.95 91.5Q260.15 94.4 266.05 101.15L266.95 102Q287.6 137.9 259.65 168.1Q274.35 209.95 284.3 252.95Q284.95 255.75 282.95 258Q276.85 254.6 275.7 245.5L274.5 246L273.9 244.6L275.2 243.75Q262.05 207.95 256.65 171Q249.25 177.15 239.75 177.3Q238.55 195.8 236.6 214.4Q234.5 234.3 230.9 253.95Q230.6 255.7 228.95 256.5Q221.5 243.7 225.9 226.35Q227.75 219.2 228.45 211.7L238.65 102L238.55 100.5M193.15,125.35Q188.2 139.35 184.55 153.85Q173.7 197.65 164.45 241.7L208.85 236.5Q205.65 212.2 202.9 187.85Q198.8 151.55 195.75 115.75Q194.85 120.45 193.15 125.35M240.55,162.95Q269.55 156.4 267.8 126.55Q267.2 116.8 260.25 109.7Q257.35 106.75 253.7 104.75L241.6 105.2Q242 133.95 240.55 162.95M96.45,89Q130.2 115.15 138.7 158.9Q147.85 206.1 107.65 233.1Q92.4 243.35 74.35 242.7L72.85 268.9Q69.65 328.15 72.05 388.15Q72.35 396.55 67 402.2Q60.9 393.05 59.3 381.2Q60.25 380.35 60.4 378.95Q60.7 374.95 60.6 371.05L63.25 383.7Q62.7 325.05 66.1 266.65L67.75 238.15L67.55 237.3Q66.55 232.05 68.4 227.25L72.55 148.2Q73.7 124.85 77.1 102.65L76.65 101.25Q75.95 97.05 77.45 93.05Q77.95 91.7 79 90.75L80 90.35L85 88.75L96.45 89M131.75,158.75Q122.45 124.65 95.7 103.5L80.95 104Q83 126.9 81 150.55Q77.85 187.85 75.45 225.25Q117.55 223.95 131.15 183.2Q135.15 171.2 131.75 158.75M262.9,284.95Q270.8 351.65 258.15 407.55Q257.75 407 257.7 406.45Q250.6 347 260.65 284.8L233.45 282Q232.4 280 231.9 277.7Q230.85 272.45 233.45 267.75L287.45 264.5Q289.5 267.05 290.1 270.1Q291.4 276.45 287.45 281.5L274.45 284L273.1 286.2L262.9 284.95" />
</g>
</svg>
