<?xml version="1.0" encoding="utf-8"?>
<svg version="1.1" id="Layer_1"
xmlns="http://www.w3.org/2000/svg"
xmlns:xlink="http://www.w3.org/1999/xlink"


xml:space="preserve">
q16 -11.95 31.65 3.05q26.35 25.25 9.6 55.95q-17 14.45 -38.5 15.45q-1.1 -37.75 -3.3 -75.1q-4.9 11.7 -4.05 27.3q3.05 59.6 0.45 119.1q-0.3 7.4 -1.65 14.75q-2.1 11.5 0.1 20.6q0.05 4.05 2 7.5q35.05 8.75 61.25 -12.75q13.55 -15.15 14.2 -35.2q1.25 -38.95 -31.75 -52.35q15.4 -13.85 14.4 -36.35q-2 -43.85 -42.35 -57.05q-4.35 2.55 -6.15 6.8q11.4 1.45 22.4 -3.6q3.05 0.95 6.25 0q21.95 5.65 29.55 25.75q7.3 19.45 -7.15 33.35q-22.35 21.6 -55 16.6q4.5 -28.25 4 -57.7q-9.45 -3.85 -19.35 -2.55q-0.8 3 -0.7 6q0.05 2.35 1.7 3.75q-3.95 87.2 0 173.95q26.95 1 39.05 -25.55q2.75 -5.95 4.55 -12.4q-0.7 -15.3 -8.2 -28.65q0.45 -37.55 -3.5 -73.7q17.65 -0.05 31.05 12.3q11.7 10.7 10.2 26.25q-3.35 35.55 -37.8 38.7q10.25 6.3 13.3 17.7q-29.3 8.45 -25.9 42.1q3.15 31.5 34.15 24.55q9.75 -2.1 16.9 -9.1q-8.5 -51.2 -38.25 -97.5q-17.45 12.05 -35.35 1.6q-4.2 -2.35 -5.7 -7.2q3.55 -22.35 25.05 -25.25<g id="438" transform="matrix(1, 0, 0, 1, -142.55, 0)">
<path style="fill:#000000;fill-opacity:1" d="M345.4,193.1Q347.6 230.45 348.7 268.2Q370.2 267.2 387.2 252.75Q403.95 222.05 377.6 196.8Q361.95 181.8 345.95 193.75L345.4 193.1M350.95,176.75L356.95 176.1L356.95 176Q397.3 189.2 399.3 233.05Q400.3 255.55 384.9 269.4Q417.9 282.8 416.65 321.75Q416 341.8 402.45 356.95Q376.25 378.45 341.2 369.7Q339.25 366.25 339.2 362.2L339.3 360.25Q337.1 351.15 339.2 339.65Q340.55 332.3 340.85 324.9Q343.45 265.4 340.4 205.8Q339.55 190.2 344.45 178.5L344.8 183.55Q346.6 179.3 350.95 176.75M349.35,296.95Q349.85 326.4 345.35 354.65Q378 359.65 400.35 338.05Q414.8 324.15 407.5 304.7Q399.9 284.6 377.95 278.95Q374.75 279.9 371.7 278.95L371.45 278.3Q360.45 283.35 349.05 281.9L349.35 296.95M188.5,196L191.6 201.35Q199.1 214.7 199.8 230L199.75 237.45L199.1 242.4L197.95 247.35Q196.15 253.8 193.4 259.75Q181.3 286.3 154.35 285.3L146.5 367.2Q142.55 280.45 146.5 193.25Q144.85 191.85 144.8 189.5Q144.7 186.5 145.5 183.5L148.35 182.1L149.15 178.3L149.95 181.5L152.15 180.95Q162.05 179.65 171.5 183.5L188.5 196M154.75,270.3Q189.2 267.15 192.55 231.6Q194.05 216.05 182.35 205.35Q168.95 193 151.3 193.05Q155.25 229.2 154.8 266.75L154.75 270.3M262.75,271.7L264.2 272.45Q293.95 318.75 302.45 369.95L294.9 357.45Q287.75 364.45 278 366.55Q247 373.5 243.85 342Q240.45 308.35 269.75 299.9Q266.7 288.5 256.45 282.2L256.45 271.7L258.95 270.2L262.75 271.7M272.5,314.7Q251 317.6 247.45 339.95Q248.95 344.8 253.15 347.15Q271.05 357.6 288.5 345.55L274.95 314.65L272.5 314.7" />
</g>
</svg>
