<?xml version="1.0" encoding="utf-8"?>
<svg version="1.1" id="Layer_1"
xmlns="http://www.w3.org/2000/svg"
xmlns:xlink="http://www.w3.org/1999/xlink"


xml:space="preserve">
q-18.5 0.45 -36.65 3.15q-14.35 2.1 -28.85 1.4q-22.25 -1.05 -43.5 -3.85q-2.2 5.85 1.25 10.5q12.5 5.4 26.5 5.5q19.8 0.15 39.85 -0.7q-5.75 43.75 -6.25 90.2q-0.6 59.65 -2.75 119.25q-1.1 30.05 -4.8 59.75q-2.1 16.55 3.95 29.95q0.9 -0.6 1 -1.3q5.95 -49.6 7.2 -100.4q1.1 -44.7 2.85 -89.25q2.15 -54.7 0.55 -108.25q24.95 -1.15 50.15 -3.75q3.75 -7.2 -0.85 -13.4q4.05 59.35 3.55 119.15q-0.5 60.3 -8.45 119.15q-1.4 10.45 5.15 13.55q5.05 -22.25 6.1 -45.65q2.35 -52.6 3 -105.55q22.85 3.7 45 -0.05q0.1 41.25 -2.25 82.55q-1.3 22.5 -4.3 44.75q-2.4 17.5 4.8 29.2q6.45 -58.7 7.2 -118.45q3.65 -7 -0.55 -13q-0.25 -60.15 -2.5 -118.5q-3.7 6.4 -4.05 15.2q-2.2 58.9 -0.35 118.55q-22.35 3.05 -44.9 2.6q0.45 -60.1 -5.95 -118.5q-4.7 13.75 -3.5 31.6q1.35 59.6 1.05 119.25q-0.35 59.2 -4.3 117.95q-2.35 -3.35 -4 -7.25q-0.85 1.05 -0.25 2.4q1.2 2.65 1.25 5.1q0.4 12.45 6.75 20q5.65 -35.65 7 -72.7q2.2 -59.45 1 -119.25q-1.15 -60.15 -4.5 -118.5q-2.25 -0.3 -2.45 2q-2.15 25.5 -1.55 51q-0.4 2.2 -0.35 4.5q-4.75 56.05 -4.65 113.35q0.1 30.15 -0.6 60q-1.35 59.75 -5.4 117.7q-2.3 6 3.75 14.25q5.45 -20.3 5.65 -44q0.55 -59.65 2.05 -119.2q2.75 -0.2 5.55 -1.05q20.65 -10.9 36.45 -28.45q6 -6.75 9.2 -14.85q10.25 -26.45 2.9 -54.6q-9.85 -37.8 -47.05 -45.85q-3.15 0.7 -5.95 2.3q29.25 18.9 31.15 54.4q0.3 6.05 -2.15 11.2q-15.6 32.8 -48.55 46.6q1.05 -33 2.8 -65.95q1.35 -25.9 -1.55 -50.6q6.85 -0.1 13.4 2.05q2.65 0.85 4.9 2.3q-2.1 59.7 -3.1 118.5q4.7 -6.75 0.75 -14.25q-21.75 1.3 -41.5 1q0 -1.85 0.15 -3.7q4 -60 2.35 -118.5q-4.2 8.95 -4.65 20.7q-4.85 50.95 -6.5 102.4q-4.65 -29.15 -13.1 -57.75q-8 -26.95 -17.5 -51.25q-0.75 0.1 -0.75 0.35q-0.65 0.2 -0.55 0.9q-5.4 33.8 -5.3 69.45q0.05 22.25 -4.05 43.95q-2.7 14.15 4.5 21.75q4 -10.8 4.6 -22.5q2.6 -50.1 2.2 -99.05q5.75 36.9 16.95 73.55q4.3 14.1 6.25 28.5q1.8 13.15 9.25 19.25q1.1 -1.3 0.95 -2.9q3.65 -7.3 4.15 -15.7q1.45 -23.8 2.4 -47.95q1.2 -30.4 0.2 -59.3q-2.5 0.3 -2.8 3.2<g id="461" transform="matrix(1, 0, 0, 1, -75.95, 0)">
<path style="fill:#000000;fill-opacity:1" d="M340.45,96.75Q345.05 102.95 341.3 110.15L340.7 111Q315.5 113.6 290.55 114.75Q292.15 168.3 290 223Q288.25 267.55 287.15 312.25Q285.9 363.05 279.95 412.65Q279.85 413.35 278.95 413.95Q272.9 400.55 275 384Q278.7 354.3 279.8 324.25Q281.95 264.65 282.55 205Q283.05 158.55 288.8 114.8Q268.75 115.65 248.95 115.5Q234.95 115.4 222.45 110Q219 105.35 221.2 99.5L221.45 98.75L224.95 97.5Q246.2 100.3 268.45 101.35Q282.95 102.05 297.3 99.95Q315.45 97.25 333.95 96.8L340.45 96.75M339.45,133.75Q345.85 192.15 345.4 252.25L345.4 254.3Q367.95 254.75 390.3 251.7L389.8 229.5Q387.95 169.85 390.15 110.95Q390.5 102.15 394.2 95.75Q396.45 154.1 396.7 214.25L396.75 251.15Q400.95 257.15 397.3 264.15L396.7 265L396.35 303.5Q395.6 363.25 389.15 421.95L388.7 422.7Q381.5 411 383.9 393.5Q386.9 371.25 388.2 348.75Q390.55 307.45 390.45 266.2Q368.3 269.95 345.45 266.25L345.3 266Q344.65 318.95 342.3 371.55Q341.25 394.95 336.2 417.2Q329.65 414.1 331.05 403.65Q339 344.8 339.5 284.5Q340 224.7 335.95 165.35Q334.75 147.5 339.45 133.75M187.75,99.5Q187.95 97.2 190.2 97.5Q193.55 155.85 194.7 216Q195.9 275.8 193.7 335.25Q192.35 372.3 186.7 407.95Q180.35 400.4 179.95 387.95Q179.9 385.5 178.7 382.85Q178.1 381.5 178.95 380.45Q180.6 384.35 182.95 387.7Q186.9 328.95 187.25 269.75Q187.55 210.1 186.2 150.5Q185.6 125 187.75 99.5M89.5,93.5Q92.3 91.9 95.45 91.2L96.95 90.75Q134.15 98.8 144 136.6Q151.35 164.75 141.1 191.2Q137.9 199.3 131.9 206.05Q116.1 223.6 95.45 234.5Q92.65 235.35 89.9 235.55L89.7 243Q88.2 302.55 87.65 362.2Q87.45 385.9 82 406.2Q75.95 397.95 78.25 391.95Q82.3 334 83.65 274.25Q84.35 244.4 84.25 214.25Q84.15 156.95 88.9 100.9L88.7 99.5Q88.65 97.2 89.05 95L89.5 93.5M105.05,105.25Q98.5 103.1 91.65 103.2Q94.55 127.9 93.2 153.8Q91.45 186.75 90.4 219.75Q123.35 205.95 138.95 173.15Q141.4 168 141.1 161.95Q139.2 126.45 109.95 107.55Q107.7 106.1 105.05 105.25M112.2,265Q113.85 323.5 109.85 383.5Q109.7 385.35 109.7 387.2Q129.45 387.5 151.2 386.2Q155.15 393.7 150.45 400.45L104.45 404.2Q105.45 345.4 107.55 285.7Q108 273.95 112.2 265M251.45,275.75Q252.45 304.65 251.25 335.05Q250.3 359.2 248.85 383Q248.35 391.4 244.7 398.7L244.55 398.75L245.15 404.3Q245.3 405.9 244.2 407.2Q236.75 401.1 234.95 387.95Q233 373.55 228.7 359.45Q217.5 322.8 211.75 285.9Q212.15 334.85 209.55 384.95Q208.95 396.65 204.95 407.45Q197.75 399.85 200.45 385.7Q204.55 364 204.5 341.75Q204.4 306.1 209.8 272.3L209.4 269.15Q209.3 268.45 209.95 268.25L210.3 269.15L210.7 266.85Q210.7 266.6 211.45 266.5L211.55 272.35Q221.05 296.65 229.05 323.6Q237.5 352.2 242.15 381.35Q243.8 329.9 248.65 278.95Q248.95 276.05 251.45 275.75" />
</g>
</svg>
