<?xml version="1.0" encoding="utf-8"?>
<svg version="1.1" id="Layer_1"
xmlns="http://www.w3.org/2000/svg"
xmlns:xlink="http://www.w3.org/1999/xlink"


xml:space="preserve">
q0.95 -1.85 -0.05 -3.7q-2.25 -4.05 -5.2 -7.85q-19.7 -10.6 -41.75 -3.6q-21.2 6.8 -33.9 25.3q-12.1 17.65 -17.95 38.25q-5.45 19.4 -9.15 39.25q-3.55 19.25 -5.15 38.75q-1.5 18.55 -1.25 37.05q0.25 18.5 2.1 36.8q2.15 20.75 7.7 40.65q5.9 20.95 20.9 36.7q16.25 17 38.9 10q19.4 -5.95 35.05 -19q6.45 -5.4 11.85 -11.65q-6.1 16.7 -0.85 33.05q0.95 3 3 5.4q1.85 -11.9 -4.9 -21.6q-2.7 2.2 -1.95 6.35q0.5 2.7 2.2 5q1.8 -1.05 3.95 -2.05q2.8 -1.4 3.25 -1.25q0.95 0.3 2.3 0.95q-6.25 11.05 -14.35 21.2q-9.4 11.7 -23.2 18.05q-9.2 4.25 -19.3 4.6q-5.35 -0.55 -10.25 -3q-3.75 -1.95 -5.9 -5.2q-7.15 -11 -12.2 -23.1q-6.95 -16.55 -10.15 -34.2q-5.25 -29.1 -4.6 -58.75q1 -43.5 12.85 -85.25q6.7 -23.7 22.95 -41.85q19.25 -21.55 48.15 -23q9.05 -0.25 18.05 1.4q-3.8 7.7 -3.7 18.25q0.4 59.2 -0.25 118.5q-0.7 59.8 -4.1 119.2q-0.85 14.95 -3.15 29.75q-2.7 17.6 4.7 29.25q6.25 -37.4 7.25 -76.45q1.5 -59.5 1.95 -119.25q0.25 -30.05 1.7 -59.9q1.5 -30.8 -4.4 -59.35q0.3 23.15 -0.6 46.5q-2.35 59.2 -5.3 118.4q-3 59.2 -2.6 118.55q0 0.75 -0.4 1.25q-0.45 0.65 -0.6 -0.75q-2 -0.2 0.5 3.75q-3.7 10 3.5 14.75q2.65 -3.65 2.7 -8.25q0.95 -59.3 3.85 -118.5q11.85 -3.2 23.45 -8.45q20.7 -9.35 30.45 -29.25q13.3 -27 7.4 -56.6q-7.95 -40.05 -47.95 -45.4q-3 0.5 -4.95 2.4q-1 1.95 -1.15 4.15q-15.15 14.55 -34.8 22.65q3.15 -54.8 -0.3 -109.65q21.65 -8.6 38.65 8.1q15.9 15.75 17.6 37.9q1.7 22.7 -14.5 38.3q14.25 17 3.7 36.9q-5.5 10.35 -17 13.65q-3.05 34.6 -8.25 68.9q-1.65 10.95 3.4 20.75q8.15 -32.7 9.55 -66.45q11.75 51.3 28.75 96.55q3.35 -6.4 1.8 -14.45q-8.55 -43.6 -27.95 -83.95q10.1 -7.6 13.9 -19.55q5.3 -16.65 -0.6 -33.1q-1.6 -4.35 -4.6 -7.7q-5.65 -6.45 -13.7 -9.05<g id="470" transform="matrix(1, 0, 0, 1, -80.55, 0)">
<path style="fill:#000000;fill-opacity:1" d="M378.7,125.25Q369.7 123.6 360.65 123.85Q331.75 125.3 312.5 146.85Q296.25 165 289.55 188.7Q277.7 230.45 276.7 273.95Q276.05 303.6 281.3 332.7Q284.5 350.35 291.45 366.9Q296.5 379 303.65 390Q305.8 393.25 309.55 395.2Q314.45 397.65 319.8 398.2L332.5 398.8Q342.6 398.45 351.8 394.2Q365.6 387.85 375 376.15Q383.1 366 389.35 354.95L391.25 357.4L391.95 351.95L388.75 352.5L387.6 351.85Q386.25 351.2 385.3 350.9Q384.85 350.75 382.05 352.15Q379.9 353.15 378.1 354.2L357.45 352.95L356.55 351.8Q354.85 349.5 354.35 346.8Q353.6 342.65 356.3 340.45L359.95 341.5L393.95 336.5L395 337.95Q401.75 347.65 399.9 359.55L389.7 422.95Q387.65 420.55 386.7 417.55Q381.45 401.2 387.55 384.5Q382.15 390.75 375.7 396.15Q360.05 409.2 340.65 415.15Q318 422.15 301.75 405.15Q286.75 389.4 280.85 368.45Q275.3 348.55 273.15 327.8Q271.3 309.5 271.05 291Q270.8 272.5 272.3 253.95Q273.9 234.45 277.45 215.2Q281.15 195.35 286.6 175.95Q292.45 155.35 304.55 137.7Q317.25 119.2 338.45 112.4Q360.5 105.4 380.2 116Q383.15 119.8 385.4 123.85Q386.4 125.7 385.45 127.55L380.45 127.25L378.7 125.25M221.6,155.35Q220.15 185.2 219.9 215.25Q219.45 275 217.95 334.5Q216.95 373.55 210.7 410.95Q203.3 399.3 206 381.7Q208.3 366.9 209.15 351.95Q212.55 292.55 213.25 232.75Q213.9 173.45 213.5 114.25Q213.4 103.7 217.2 96Q223.1 124.55 221.6 155.35M94.5,92Q96.45 90.1 99.45 89.6L109.95 87.5Q149.95 92.85 157.9 132.9Q163.8 162.5 150.5 189.5Q140.75 209.4 120.05 218.75Q108.45 224 96.6 227.2L94.3 271.95Q91.4 331.15 90.45 390.45Q90.4 395.05 87.75 398.7Q80.55 393.95 84.25 383.95Q81.75 380 83.75 380.2Q83.9 381.6 84.35 380.95Q84.75 380.45 84.75 379.7Q84.35 320.35 87.35 261.15Q90.3 201.95 92.65 142.75Q93.55 119.4 93.25 96.25L93.35 96.15Q93.5 93.95 94.5 92M153.35,149.7Q151.65 127.55 135.75 111.8Q118.75 95.1 97.1 103.7Q100.55 158.55 97.4 213.35L104.05 210.65Q123.7 202.55 138.85 188Q155.05 172.4 153.35 149.7M122.95,243.7L116.4 248.5L115.15 295.3Q126.65 292 132.15 281.65Q142.7 261.75 128.45 244.75L122.95 243.7M136.65,241.55Q139.65 244.9 141.25 249.25Q147.15 265.7 141.85 282.35Q138.05 294.3 127.95 301.9Q147.35 342.25 155.9 385.85Q157.45 393.9 154.1 400.3Q137.1 355.05 125.35 303.75L114.45 309.45L113.25 332.5Q111.85 366.25 103.7 398.95Q98.65 389.15 100.3 378.2Q105.5 343.9 108.55 309.3L106.45 308.75L106.2 297.5L109.35 296.5L113.45 250L112.2 241L122.95 232.5Q131 235.1 136.65 241.55" />
</g>
</svg>
