<?xml version="1.0" encoding="utf-8"?>
<svg version="1.1" id="Layer_1"
xmlns="http://www.w3.org/2000/svg"
xmlns:xlink="http://www.w3.org/1999/xlink"


xml:space="preserve">
q3.25 2.15 5.3 5.5q2.2 -25.65 -24.75 -26.25q-37.9 27.55 -19.5 77.5q25.4 68.95 52.3 137.55q11.8 30.2 3.4 60.95q-1.8 6.65 -7.4 10.85q-6.05 4.55 -13.35 6.8q-6.65 2.15 -13.6 0.45q-7.2 -1.5 -12.45 -6.5q-8.45 -8.15 -15.65 -17.4q4.4 29.95 35.5 31.6q29.15 1.3 36.6 -26.75q8.55 -32 1.35 -64.65q-6.2 -28.1 -17.75 -54.7q-7.2 -16.7 -17.05 -32.15q-8.85 -13.95 -15.25 -29q-6.05 -14.15 -8.75 -29.3q-3.3 -18.45 -1.55 -37q11.85 -22.6 33.95 -8.6q-5.65 -1.15 -11.45 -1.55q-23.65 4.8 -46.55 2.25q4.75 -28.1 5.45 -56.95q1.45 -59.6 3.6 -119.2q2.15 -59.4 -3.5 -117.8q-0.95 -0.15 -0.95 0.75q-0.3 59.5 -1.1 119.25q-0.8 59.95 -7.25 119.05q-0.9 8.4 -0.3 15.95q-1.8 3.9 -1.15 8.25q0.5 3.3 3.3 5.2q31.95 3.85 62.25 0.35q2.2 -4.6 1.15 -9.7q-0.5 -2.4 -1.65 -4.55q-0.35 -0.35 -0.8 -0.45q-3.9 59.1 -4.9 118.6q-1 59.7 -6.65 118.55q-0.75 7.4 -2.35 14.55q-3.2 14.25 4.6 21.85q0.65 0.9 1.65 1.65q3.2 0.1 6.05 1.15q28.05 10.6 57.95 5.35q1.65 -1.95 1.95 -4.4q-0.2 -3.6 -2.75 -6q-30.95 4.15 -61.05 -3.95q3.55 -58.45 5.05 -116.75q0.75 -29.7 3.4 -59.15q5.35 -59.45 4.05 -117.85q-5.3 14.05 -6.45 31.65q-2.8 59.15 -4 118.6q-1.2 60.05 -6.7 119.3q-1.65 18.3 -4.25 36.45q-1.95 13.7 4.8 22.2q4.95 -11.1 4.75 -24.5q-0.6 -37.15 2.85 -73.65q4.15 -43.9 6.05 -88.25q2.55 -59.9 0.85 -118.55q-4.05 2.55 -4.35 8.4q-4.65 5.25 -5.2 14.2q-3.45 59.35 -4.45 119.3q-0.8 44.6 -0.8 89.25q-0.05 30.2 -3.25 59.8q-1.85 16.8 4.2 29.9q6.4 -12.45 6.15 -28.25q-0.5 -30.15 0.05 -60.7q10.45 -2.45 20.55 -6.8q45.3 -19.5 39.05 -67.5q-6.65 -51.1 -52.95 -71.1q-2.8 1.05 -4.4 3.2q13.85 17.45 14.25 39.65q0.4 22.3 -17.45 36.4q-16.25 12.75 -36.25 17.35q20.9 4.95 34.95 22.7<g id="465" transform="matrix(1, 0, 0, 1, -74.95, 0)">
<path style="fill:#000000;fill-opacity:1" d="M368.45,131.6L367.8 138Q366.05 156.55 369.35 175Q372.05 190.15 378.1 204.3Q384.5 219.35 393.35 233.3Q403.2 248.75 410.4 265.45Q421.95 292.05 428.15 320.15Q435.35 352.8 426.8 384.8Q419.35 412.85 390.2 411.55Q359.1 409.9 354.7 379.95L353.45 377.7L356.7 372.45Q363.9 381.7 372.35 389.85Q377.6 394.85 384.8 396.35Q391.75 398.05 398.4 395.9Q405.7 393.65 411.75 389.1Q417.35 384.9 419.15 378.25Q427.55 347.5 415.75 317.3Q388.85 248.7 363.45 179.75Q345.05 129.8 382.95 102.25Q409.9 102.85 407.7 128.5Q405.65 125.15 402.4 123Q380.3 109 368.45 131.6M346.2,394.2Q347.35 396.35 347.85 398.75Q348.9 403.85 346.7 408.45Q316.4 411.95 284.45 408.1L283.95 408.45L283.8 408L283.45 407.95Q280.65 406.05 280.15 402.75Q279.5 398.4 281.3 394.5Q280.7 386.95 281.6 378.55Q288.05 319.45 288.85 259.5Q289.65 199.75 289.95 140.25L290.25 99.75Q290.25 98.85 291.2 99L292.2 99.75L292.95 100.5Q298.6 158.9 296.45 218.3Q294.3 277.9 292.85 337.5Q292.15 366.35 287.4 394.45Q310.3 397 333.95 392.2Q339.75 392.6 345.4 393.75Q345.85 393.85 346.2 394.2M213.45,94.5Q214.75 152.9 209.4 212.35Q206.75 241.8 206 271.5Q204.5 329.8 200.95 388.25Q231.05 396.35 262 392.2L263.45 392.2Q266 394.6 266.2 398.2L266.05 402.75Q265.75 405.2 264.1 407.15L263.45 407.7Q233.55 412.95 205.5 402.35Q202.65 401.3 199.45 401.2Q198.45 400.45 197.8 399.55L197.7 399.7Q189.9 392.1 193.1 377.85Q194.7 370.7 195.45 363.3Q201.1 304.45 202.1 244.75Q203.1 185.25 207 126.15Q208.15 108.55 213.45 94.5M177.45,97.25Q179.15 155.9 176.6 215.8Q174.7 260.15 170.55 304.05Q167.1 340.55 167.7 377.7Q167.9 391.1 162.95 402.2Q156.2 393.7 158.15 380Q160.75 361.85 162.4 343.55Q167.9 284.3 169.1 224.25Q170.3 164.8 173.1 105.65Q173.4 99.8 177.45 97.25M95,89.25Q141.3 109.25 147.95 160.35Q154.2 208.35 108.9 227.85Q98.8 232.2 88.35 234.65L87.2 315.5Q86.65 346.05 87.15 376.2Q87.4 392 81 404.45Q74.95 391.35 76.8 374.55Q80 344.95 80.05 314.75Q80.05 270.1 80.85 225.5Q81.85 165.55 85.3 106.2Q85.85 97.25 90.5 92L90.6 92.45Q92.2 90.3 95 89.25M93,104.75L88.5 220.85Q108.5 216.25 124.75 203.5Q142.6 189.4 142.2 167.1Q141.8 144.9 127.95 127.45Q113.9 109.7 93 104.75" />
</g>
</svg>
