<?xml version="1.0" encoding="utf-8"?>
<svg version="1.1" id="Layer_1"
xmlns="http://www.w3.org/2000/svg"
xmlns:xlink="http://www.w3.org/1999/xlink"


xml:space="preserve">
q-0.35 1.9 -1.95 1.9q-4.25 0 -5 -0.75q-7.4 -1.85 -19.5 -2.05q-0.45 3.85 -1.05 13.5q-0.5 8.6 -1.2 13.5q-1.5 -5.25 -1.5 -16.9q0 -11.6 1 -16.85q0.5 -4.95 1 -15.1q0.5 -10.5 1 -15.65q-1.05 -9.85 -1.4 -15.15q-0.25 -3.35 0.05 -6.1q-4.4 -0.15 -5.6 -3.25q-0.4 -0.9 -0.4 -3.4q0 -1 0.8 -1.65q16.25 -0.35 31.95 0.15q3.5 0.2 4.5 3.25q0.4 5.5 0.2 11.45q0 24.1 -3.4 59.65q-3.15 -0.4 -4 -4.1q-0.25 -1.1 -0.25 -4.55q-3.25 50.1 -5.3 64q-0.5 -4.5 -0.5 -6.4q0 -4.35 3.5 -51.15q-1.3 -1 -1.3 -3.5q0 -4.3 1.25 -4.5q1.95 -28.9 1.95 -39.55q0 -3.25 1.25 -4.5q3.2 2.65 4 10.05q0 7.4 -2 40.35q5.9 0 7 -0.75q0.15 -0.5 0.75 -0.9q1.75 -21.05 1.75 -36.85q0 -2.1 -1 -11.4q0 -3.2 1.75 -4.5q2.85 2.85 3.55 13.55q8.45 -16.65 18.15 -23.7q8.45 -6.1 16.6 -4.3q7.25 1.6 12.1 8.65q4.65 6.85 4.65 15.2q0 3.3 -1.25 5.4q-1.5 -1.05 -2.7 -4.7q-3.75 -9.05 -13.5 -9.05q-25.2 0 -37 44.75q-6.05 22.9 -7.5 52.5q-1.1 20.35 -1.65 33.7q0.9 0.75 1.1 2.45q0.1 1.05 2.15 1.05q0.75 0.2 1.55 0.8q-0.7 2.2 -0.5 4.5q0.15 1.5 -0.5 1.7q-4 0 -5.5 -2.25q0 16.5 0.8 46.65q1.2 43.55 3.2 55.35q0.7 4.3 0.35 23.5q-0.4 21.4 0.6 33.4q3.6 42.85 27.3 42.85q11.1 0 18.35 -17q2.25 -5.3 4.35 -12.9q-2.7 -1.65 -3.75 -2.95q-1 -1.25 -1 -2.8q0 -1.55 0.15 -2.8q5.45 0 6.95 3.5q0.45 1.05 0.45 4.1q0 4 -9.95 25.1q-10.15 21.4 -14.3 25.55q-29.85 -8.2 -34.25 -23.75q-1.35 -4.85 -0.85 -13.7q0.55 -9.65 -0.15 -13.55q-1.7 -9.75 -2.15 -26.1q-0.7 -11.55 -2.35 -55.15q-1.65 -44.15 -1.65 -51.75q0 -13.9 2.55 -65.8q2.45 -49.6 2.95 -52.3q3.3 -19.5 5.55 -29.7q3.95 -17.7 9.95 -29.55q0 -3.25 1.25 -5.35q44.1 11.45 65.6 38.55q8.3 10.5 14.2 24.45q3.5 8.4 8.2 24q0.65 6 0.7 14.85q0 32.9 -2.95 54.95q-2.9 19.4 -5.3 39.35q-2.4 19.9 -13.6 40.85q-9.8 18.3 -24.85 34.9q-13.55 14.95 -27.45 24.35q-13.5 9.15 -21.35 9.15q-0.5 -3 -0.5 -9.4q0 -6.9 4.75 -33.7q0.5 -2.7 1 -8.35q0.5 -6 1 -8.9q2.15 -32 2.7 -61q0.3 -14.75 0.3 -55.65q0 -6.9 1.9 -23q0.95 -8.3 1.2 -13.75q-1.1 -1.1 -1.1 -2q0.6 7.55 0.75 17.05q-1.75 14.1 -2.6 34.9q-0.5 2.7 -1 8.35q-0.5 6 -1 8.9q-1.25 10.95 -5.6 34.1q1.15 2.4 1.45 5.15q25 0 48.65 -23.35q12 -11.9 20.35 -25.65q9.25 -13.3 15.6 -28.35q6.4 -15.2 8.4 -28.65q7.7 -48.3 9.3 -62q1.95 -16.9 1.95 -51.65q0 -27.45 -1.9 -46.55q-2.5 -24.8 -8.85 -46.05q-7.85 -26.4 -22.5 -46.5q-8.25 -11.4 -36.9 -24.05q-4.15 -2.05 -6.1 -3.7q-0.15 -3.05 -0.6 -4.85q-0.8 -3.35 -4.4 -3.65q-2.6 0.3 -3.25 1.7q-0.25 0.55 -0.25 2.3q0 3 2.95 6.25q9.5 8.8 9.5 18.75q0 10.4 -7 10.4q-13 0 -25.25 -6.75q-12.75 -7.1 -12.75 -15.5q0 -4.5 0.25 -5.6q0.7 -3.2 3.75 -5.65q0.3 0.55 0.3 2.15q0 0.65 -1.5 3.75q-1.5 3.05 -1.5 4.5q0 2.4 9.5 9.3q10 7.2 15.25 7.2q12.4 0 15.5 -2q1 -0.65 0.95 -1.55q0 -3.65 -2.95 -7.75q-1.65 -2.25 -6.55 -7.2q-4.65 -4.7 -6.55 -7.5q-2.95 -4.45 -2.95 -8.65q0 -5.5 2.95 -8.25q2.6 -2.35 6.55 -2q3.75 0.35 6.55 2.9q2.95 2.8 2.95 6.7q0 0.95 -1.6 3.95q-1.85 3.45 -4.4 6.6q-7.3 8.95 -15.25 8.95q-18.65 0 -23.75 -12.5q-1.65 -3.95 -1.7 -8.95q0 -9.15 3.35 -16.85q3.25 -7.45 8.65 -11.3q5.6 -4 11.75 -2.75q6.8 1.35 12.75 8.8q-1.55 -1.05 -3.9 -3.7q-15.65 1.2 -21.5 10.5q-3.25 5.1 -3.25 12.85q0 6.1 2 10.15q4.25 8.5 16.25 8.5q12.2 0 18.4 -6.25q2.3 -2.3 5.35 -9q-1.85 0.9 -3.75 1.75q-1.3 -0.75 -1.8 -1.8q-0.45 -1.05 -0.45 -2.95q0 -3.2 1.05 -4.2q1.75 -1.6 8.95 -3.3q1.5 2.7 1.5 7.1q0 19.25 -7.75 66.35q-8.1 49.15 -8.5 60.55q-8.55 -24.95 -18.6 -64.4q-10.85 -44.1 -16.65 -65.6q-1.1 37.2 -3.05 64.45q-2.55 35.65 -7.2 65.05q-1.3 -0.75 -1.8 -1.8q-0.45 -1.05 -0.45 -2.95q0 -12.25 4.9 -70.5q4.95 -59.2 7.1 -71q20.1 63.35 34 124.25q4.4 -20.9 7.9 -49.35q2 -16.45 5.35 -50.65q1.5 -15.25 1.5 -25q0 -3 1.25 -3.85q1.65 1.65 2.1 6.6q0 9.05 -0.45 14.15q2.65 -3.9 12 -11.65q0.45 0.15 0.95 0.4q6.7 -5.5 16.05 -12.9q1.4 0.8 1.8 1.45q0.45 0.75 0.45 2.55q0 3.4 -11.8 13.3q9.65 7.8 26.8 27.45q0.2 0.35 -1.35 0.35q-4.2 0 -19 -15.75q-14.15 10.7 -15.1 11.5q-0.75 -1.5 -0.75 -6q-21.85 0 -31 23.75q-5 13 -5 26.6q0 1.5 1.15 5.75q1.5 5.65 3.9 10.4q7.15 14.5 18.7 14.5q12.65 0 20.2 -8.4q5.05 -5.65 6.05 -11.85q1 2 1 6q0 5.25 -5.5 12.75q-6.95 9.5 -16.75 9.5q-20.2 0 -28.2 -18.75q-2.55 -5.95 -3.55 -13.1q0 -13.15 3.4 -25.7q3.65 -13.35 10.05 -21.6q7.15 -9.2 16.45 -10q10.5 -0.95 22.6 9.05q-0.6 -3.45 -2.25 -6.2q-3.2 -5.3 -10 -5.3q0 25 -4.3 91.9q-3.4 52.9 -5.7 78.75q-0.5 1.95 -1 6.1q-0.5 4.5 -1 6.65q-0.7 12.8 -1.25 36.9q-0.6 25.1 -1.15 36.75q-2.1 42.9 -10.35 73.1q-3.5 -1.05 -4.45 -4.6q-0.3 -1.15 -0.3 -4.9q0 -1.9 3 -17.45q3 -15.55 3 -18.55q0 -7.2 0.55 -18q2.15 -46.95 4.5 -72q0.5 -2.25 1 -6.75q0.5 -4.5 1 -6.75q2.85 -28.8 5.55 -94.55q2.5 -61 6.45 -93.7q5.15 3.1 4.85 13.75q-0.15 5.35 -1.35 10.6q18.6 -2.8 26 13q4 8.5 4 19.85q0 2.3 -1.75 6q-1.95 4.25 -5.2 7.9q-3.7 4.15 -8.05 6.55q3.1 6.55 7.3 16.5q9.7 22.95 9.7 27.2q0 2.05 -0.5 3.4q-0.6 1.6 -2 2.85q-5.3 -8.35 -14.65 -30.4q-4.7 -11.1 -6.9 -16.95q-5.1 37 -8 48q-1.5 -2.7 -1.5 -7.9q0 -9.95 2.05 -24.3q0.9 -6.5 1.95 -11.35q-0.25 -0.7 -0.25 -4.2q0 -1.95 0.55 -3.7q0.55 -1.8 1.45 -2.55q-0.35 7.3 -3.75 32.8q2.8 -1.1 9.5 -3.25q15.5 -5.4 15.5 -13q0 -4.9 -2.95 -9.8q-3.65 -6.15 -10.05 -7.55q0.6 -2 2.35 -2.45q40.7 2.8 58.7 59.05q6.2 19.45 9.1 43.65q1.95 16.6 1.95 30.65q0 17.55 -6.5 35.7q-6.1 17.05 -16.7 31.45q-10.45 14.25 -22.8 22.45q-12.8 8.55 -24.75 8.55q0.7 18.6 1.35 28.95q1 12.75 1 38.65q-0.85 6.1 -3.3 9.9q-2.8 -0.95 -3.5 -4.6q-0.25 -1.1 -0.25 -4.5q0 -10.6 3 -19.9q0 -21.4 -1 -31.9q-0.45 -1.2 -0.4 -2.65q0 -1.3 0.7 -2.4q-1.7 -80.15 -1.7 -102.5q0 -19.85 1 -29.6q0.85 -4 2.55 -18.4q1.45 -12.05 3.45 -18.35q-1 7.5 -1 22.5q0.7 19.75 1.35 31.05q-0.45 1.65 -0.65 4.05q22.25 -10.55 41.55 -32.85q7.05 -8.2 11.4 -22.95q3.85 -13.05 3.85 -24.3q0 -11 -2.5 -27.25q-3.3 -21.55 -9.55 -39.25q-17.35 -48.85 -50.55 -50.9q-0.7 11.25 -4.9 30.4q0 -2.5 0.5 -3.2q0.75 -1 3.95 -1.65q4.75 -0.7 4.75 4.75q0 1.6 -0.85 2.9q0 6.55 -2.05 18.5q-2 11.5 -3.95 17.15q-0.25 -1.5 -0.25 -4.9q0 -1.75 2.05 -17.25q-12.45 1.7 -13.3 2.6q-2.4 -0.3 -3.05 -1.75q-0.2 -0.45 -0.2 -1.9q0 4.1 6.25 9.4q3.75 3.2 13.75 10.3q9.2 7 13.75 12.95q6.25 8.25 6.25 17.35q0 3.6 -0.6 5.85q-0.6 2.35 -2.65 6.55q-0.45 0.9 -0.9 3.35q-0.3 1.8 -1.35 2.7q-2.9 2.55 -17.75 3.45q-4.9 -3.25 -7.8 -21q-1.95 -12.2 -1.95 -19.75q1 -4.5 6.2 -4.5q0.75 0.2 1.35 0.8q0 1.15 -4 3.35q-4 2.2 -4 3.9q0 6.7 1.4 15.7q2.15 13.95 6.35 16.8q30.25 -0.25 31 -0.75q8.85 1.45 15.15 -5.5q2.05 -2.3 3.5 -5.1q1.1 -2.2 1.1 -2.9q0 -7.15 -6.25 -13.55q-3.6 -3.7 -13.75 -10.65q-9.85 -6.7 -13.75 -10.95q-6.25 -6.8 -6.25 -14.6q0 -7.95 0.65 -9.8q1.75 -4.85 9.6 -8.95q12.9 2.3 18.2 6.2q3.25 2.4 8.05 8.3q-0.15 -1.2 0.3 -3.65q0 -1.65 -7.2 -5.65q-2.65 -1.5 -8.55 -4.35q-5.85 3.7 -7.05 5.85q-0.45 0.9 -0.45 4.75q11.8 1 16.4 6.85q2.85 3.7 2.85 9.75q0 4.25 -1.5 7.15q-2.55 4.75 -8.75 4.75q-8 0 -11.8 -1.05q-2.55 14.95 -2.95 18.8q-0.25 -1.5 -0.25 -6q0 -4.1 1.35 -14.4q-0.55 -0.65 -0.55 -1.5q0 -0.35 0.15 -0.75q0.2 -0.5 1.05 -0.65q2.15 -15.05 3.05 -16.85q0.6 -1 1.4 -1.55q-0.05 4.1 -0.8 10.2q7.8 0 11.45 -1.45q1.95 -0.8 3.55 -2.05q-2.4 -7.2 -4.35 -7.9q0 10.45 -1.75 32.25q16.05 0.4 27.25 -7.75q4.2 -3.1 6.75 -6.7q2.25 -3.2 2.25 -5.3q0 -6.05 -12.25 -13.05q-12.5 -7.2 -21.5 -5.45q-1 -5.3 -1 -6.55q0 -3.25 1.25 -4.5q1.3 0.6 2.2 2.05q1.65 -1.85 5.05 -2.2q5.95 -0.6 14.25 3.4q8.55 4.15 14.25 10.7q6.5 7.5 6.5 15.3q0 8.65 -5.95 17.25q-8.85 12.75 -26.3 12.75q-4.45 44.75 -6.45 54.05q-1.15 -1.3 -1.8 -5.2q-0.45 -2.9 -0.45 -5.55q-0.6 -1.5 -0.6 -3.1q0 -1.55 0.15 -2.45q1.75 -20.4 1.75 -29.6q0 -1.25 -1 -6.55q1.75 14.75 4.35 22.6q3 9.4 6.8 22.85q5.45 19 5.45 22.15q-1.35 -8.6 -4.6 -20.25q-7.15 -25 -6.8 -40.5q-12.3 29.95 -31.5 81q-1 -12 -1 -36.75q-8.1 19.85 -20.8 41.15q-13.35 22.35 -29.7 42.85q-0.25 -0.9 -0.25 -3.4q0 -2.15 20.35 -35.1q23.4 -37.9 31.9 -56.75q1.5 0.3 2.25 2.5q0.65 8.5 0.9 19.15q7.75 -15.25 17.1 -41.5q11.3 -31.6 14.65 -39.5q1.85 6.35 3.65 21.9q-2.55 3.1 -4.35 6.7q-1.4 2.9 -1.4 3.8q0 3.5 4.8 7.5q5.75 4.75 13.95 4.75q14.8 0 18.55 -5.05q1.15 -1.55 1.75 -4.45q0.65 -3.05 1.2 -4q0.4 0.8 0.4 2.55q0 3.05 -4.45 9.8q-5.15 7.7 -9.8 7.7q-22.05 0 -28.25 -9.5q-2 -3.05 -2.2 -7q0 -6.7 5.4 -13.45q4.75 -5.95 11.85 -9.85q6.9 -3.8 11.85 -3.4q5.4 0.45 5.4 5.95q0 2.5 -0.2 3.05q-0.4 1.2 -2.05 1.2q-1.25 0 -2.85 -1.25q-1.65 -1.25 -2.9 -1.25q-10.6 0 -18.25 9.25q0 4.65 -2.05 18q3.75 -4.35 17.6 -12.9q0 4.55 -15.8 14.2q6.45 3.6 12.95 8.7q12.65 9.95 15.85 19q-4.65 -3.1 -18.7 -14q-10 -7.75 -14.3 -11.75q-11.55 6.7 -18.5 9.5q-2.15 13.3 -3.05 15.35q-0.25 -0.9 -0.25 -3.4q0 -2.65 3 -19.1q0 -1.25 -1 -2.4q-1 -1.2 -1 -2.45q0 -2.75 1.75 -4.5q2.75 1.95 2.75 9q20.5 1.6 27.4 10.7q3.6 4.7 3.6 13.65q0 8.9 -3.45 13.9q-3.15 4.55 -8.9 7.1q3.65 4.1 8.35 10.3q7.35 9.65 14.45 20.65q6.55 10.2 6.55 11.45q0 1.85 -0.45 3.05q-2.2 -1.95 -21.45 -27.6q-3.1 17.65 -8.2 43.3q-1 -1.4 -1.55 -4.2q-0.45 -2.15 -0.45 -3.8q0 -2 2.95 -19.45q-0.45 -1 -0.4 -2.15q0 -1.25 1.2 -2.2q0.85 -5.9 1.65 -21.7q0.65 -13.3 3.15 -18.7q0.8 0.75 1.45 2.5q0 6.45 -3 24.9q8.25 -1.5 12.1 -3.4q5.5 -2.65 5.5 -7.1q0 -1.25 -1.5 -3.6q-1.9 -2.85 -4.85 -5q-8.05 -5.85 -19.9 -3.9<g id="463" transform="matrix(1, 0, 0, 1, -8.25, 2.5)">
<path style="fill:#000000;fill-opacity:1" d="M433.75,8.75L434 12.1L433.95 15.85Q433.6 17.75 432 17.75Q427.75 17.75 427 17L377 16.75Q369.6 14.9 357.5 14.7L353.6 14.7L353.85 17.3L354 29L353.4 46.35L352 72.5L352 115.25Q351.55 119.1 350.95 128.75Q350.45 137.35 349.75 142.25L348.5 142.5Q347 137.25 347 125.6Q347 114 348 108.75L348 66.75Q348.5 61.8 349 51.65Q349.5 41.15 350 36Q348.95 26.15 348.6 20.85Q348.35 17.5 348.65 14.75L326 15.75L307.8 16.05L289 16.75Q284.6 16.6 283.4 13.5Q283 12.6 283 10.1Q283 9.1 283.8 8.45L290 4.25L327.5 3.75Q343.75 3.4 359.45 3.9L376 5L429.25 5.5Q432.75 5.7 433.75 8.75M352.55,193.8Q352.95 199.3 352.75 205.25Q352.75 229.35 349.35 264.9L343.5 324.5Q340.35 324.1 339.5 320.4Q339.25 319.3 339.25 315.85L344.25 273.6L346.55 252.85L336.7 253.05L323.5 253.75L316.2 254.05L308.5 254.75L301.15 254.15L300.8 259.5Q297.55 309.6 295.5 323.5L293.75 323.5Q293.25 319 293.25 317.1Q293.25 312.75 296.75 265.95L297.7 253.15L296.55 252.5Q295.25 251.5 295.25 249Q295.25 244.7 296.5 244.5L298.3 244.55Q300.25 215.65 300.25 205L299.25 196L298.25 187Q298.25 183.75 299.5 182.5Q302.7 185.15 303.5 192.55L303.75 204.6Q303.75 212 301.75 244.95L302 245Q307.9 245 309 244.25L324 243.25L346.75 242.75Q346.9 242.25 347.5 241.85Q349.25 220.8 349.25 205Q349.25 202.9 348.25 193.6L347.25 184.75Q347.25 181.55 349 180.25Q351.85 183.1 352.55 193.8M386.25,161.25Q394.7 144.6 404.4 137.55Q412.85 131.45 421 133.25Q428.25 134.85 433.1 141.9Q437.75 148.75 437.75 157.1Q437.75 160.4 436.5 162.5L436.5 162.75Q435 161.7 433.8 158.05L431.5 151.05Q427.75 142 418 142Q392.8 142 381 186.75Q374.95 209.65 373.5 239.25L371.05 283.7Q369.95 304.05 369.4 317.4L370.25 316.5Q371.15 317.25 371.35 318.95Q371.45 320 373.5 320L390.35 318.15L415 316.25L417.7 316.45Q418.45 316.65 419.25 317.25L419.75 321Q419.05 323.2 419.25 325.5Q419.4 327 418.75 327.2L399 327L383.7 328.4L374.5 329.75Q370.5 329.75 369 327.5L368.75 338.25Q368.75 354.75 369.55 384.9Q370.75 428.45 372.75 440.25Q373.45 444.55 373.1 463.75Q372.7 485.15 373.7 497.15Q377.3 540 401 540Q412.1 540 419.35 523Q421.6 517.7 423.7 510.1L426 501.75Q423.3 500.1 422.25 498.8Q421.25 497.55 421.25 496Q421.25 494.45 421.4 493.2L421.5 492.25L422.1 491.9L424.35 491.5Q429.8 491.5 431.3 495Q431.75 496.05 431.75 499.1Q431.75 503.1 421.8 524.2Q411.65 545.6 407.5 549.75Q377.65 541.55 373.25 526Q371.9 521.15 372.4 512.3Q372.95 502.65 372.25 498.75Q370.55 489 370.1 472.65L369.25 445.5Q368.55 433.95 366.9 390.35Q365.25 346.2 365.25 338.6Q365.25 324.7 367.8 272.8Q370.25 223.2 370.75 220.5Q374.05 201 376.3 190.8Q380.25 173.1 386.25 161.25M452.25,140.85Q452.25 137.6 453.5 135.5Q497.6 146.95 519.1 174.05Q527.4 184.55 533.3 198.5Q536.8 206.9 541.5 222.5L551.15 277.65Q551.8 283.65 551.85 292.5L551.75 318.85Q551.75 351.75 548.8 373.8L545.05 399.15Q542.15 418.55 539.75 438.5Q537.35 458.4 526.15 479.35Q516.35 497.65 501.3 514.25Q487.75 529.2 473.85 538.6Q460.35 547.75 452.5 547.75L438.05 546.55L437.5 550.5L435.75 550.5Q435.25 547.5 435.25 541.1Q435.25 534.2 440 507.4L445.25 478.5L445.25 362.25Q445.75 359.55 446.25 353.9Q446.75 347.9 447.25 345L447.25 296.25Q449.4 264.25 449.95 235.25Q450.25 220.5 450.25 179.6Q450.25 172.7 452.15 156.6Q453.1 148.3 453.35 142.85Q452.25 141.75 452.25 140.85M453.9,143.4Q454.5 150.95 454.65 160.45L454.75 185.25L454.65 186.65L454.75 186.75L454.75 230.25Q453 244.35 452.15 265.15L450.75 300L450.75 349.5Q450.25 352.2 449.75 357.85Q449.25 363.85 448.75 366.75L448.75 482.25Q447.5 493.2 443.15 516.35L440.3 532.35Q441.45 534.75 441.75 537.5L441.95 537.75L444 538Q469 538 492.65 514.65Q504.65 502.75 513 489Q522.25 475.7 528.6 460.65Q535 445.45 537 432Q544.7 383.7 546.3 370Q548.25 353.1 548.25 318.35Q548.25 290.9 546.35 271.8Q543.85 247 537.5 225.75Q529.65 199.35 515 179.25Q506.75 167.85 478.1 155.2L460 147.1Q455.85 145.05 453.9 143.4M324.9,334.45L324.25 336.5L323.25 336.5Q323.1 333.45 322.65 331.65Q321.85 328.3 318.25 328L311.5 328.25Q308.9 328.55 308.25 329.95Q308 330.5 308 332.25Q308 335.25 310.95 338.5L317.5 344.6Q327 353.4 327 363.35Q327 373.75 320 373.75Q307 373.75 294.75 367Q282 359.9 282 351.5Q282 347 282.25 345.9Q282.95 342.7 286 340.25L286.7 341.1Q287 341.65 287 343.25Q287 343.9 285.5 347Q284 350.05 284 351.5Q284 353.9 293.5 360.8Q303.5 368 308.75 368Q321.15 368 324.25 366Q325.25 365.35 325.2 364.45L325 363.35Q325 359.7 322.05 355.6Q320.4 353.35 315.5 348.4Q310.85 343.7 308.95 340.9Q306 336.45 306 332.25Q306 326.75 308.95 324Q311.55 321.65 315.5 322Q319.25 322.35 322.05 324.9Q325 327.7 325 331.6L324.9 334.45M247.25,75.5L247.95 76.7L248.25 79.25Q248.25 80.2 246.65 83.2Q244.8 86.65 242.25 89.8Q234.95 98.75 227 98.75Q208.35 98.75 203.25 86.25Q201.6 82.3 201.55 77.3L201.75 72.35Q201.75 63.2 205.1 55.5Q208.35 48.05 213.75 44.2Q219.35 40.2 225.5 41.45Q232.3 42.8 238.25 50.25L238.25 56.25L237.8 56.7L237 57.5Q235.45 56.45 233.1 53.8L229 49Q213.35 50.2 207.5 59.5Q204.25 64.6 204.25 72.35Q204.25 78.45 206.25 82.5Q210.5 91 222.5 91Q234.7 91 240.9 84.75Q243.2 82.45 246.25 75.75L247.25 75.5M214.25,111Q212.4 111.9 210.5 112.75Q209.2 112 208.7 110.95Q208.25 109.9 208.25 108Q208.25 104.8 209.3 103.8Q211.05 102.2 218.25 100.5Q219.75 103.2 219.75 107.6Q219.75 126.85 212 173.95Q203.9 223.1 203.5 234.5L203.5 234.75Q194.95 209.8 184.9 170.35Q174.05 126.25 168.25 104.75L167.75 104.25Q166.65 141.45 164.7 168.7Q162.15 204.35 157.5 233.75Q156.2 233 155.7 231.95Q155.25 230.9 155.25 229Q155.25 216.75 160.15 158.5Q165.1 99.3 167.25 87.5Q187.35 150.85 201.25 211.75Q205.65 190.85 209.15 162.4Q211.15 145.95 214.5 111.75L214.25 111M241.75,177.5L243.25 163.1Q244.75 147.85 244.75 138.1Q244.75 135.1 246 134.25Q247.65 135.9 248.1 140.85L248.25 147.6Q248.25 156.65 247.8 161.75Q250.45 157.85 259.8 150.1L259.8 150.05L260 148.75Q260.45 148.9 260.95 149.15Q267.65 143.65 277 136.25Q278.4 137.05 278.8 137.7Q279.25 138.45 279.25 140.25Q279.25 143.65 267.45 153.55Q277.1 161.35 294.25 181L294 184L294.35 184.4Q294.55 184.75 293 184.75Q288.8 184.75 274 169L263.1 157Q248.95 167.7 248 168.5L247.05 167.2L243.5 183.25L242.5 183.5Q241.75 182 241.75 177.5M257.25,192Q235.4 192 226.25 215.75Q221.25 228.75 221.25 242.35Q221.25 243.85 222.4 248.1Q223.9 253.75 226.3 258.5Q233.45 273 245 273Q257.65 273 265.2 264.6Q270.25 258.95 271.25 252.75L272.25 252.5Q273.25 254.5 273.25 258.5Q273.25 263.75 267.75 271.25Q260.8 280.75 251 280.75Q230.8 280.75 222.8 262Q220.25 256.05 219.25 248.9L218.75 242.5Q218.75 229.35 222.15 216.8Q225.8 203.45 232.2 195.2Q239.35 186 248.65 185.2Q259.15 184.25 271.25 194.25L271.25 202.5L270.65 202.9L269.5 203.5Q268.9 200.05 267.25 197.3Q264.05 192 257.25 192M155.75,21.85Q155.75 46.85 151.45 113.75Q148.05 166.65 145.75 192.5L145.75 251Q145.25 252.95 144.75 257.1Q144.25 261.6 143.75 263.75L143.75 401.75Q143.05 414.55 142.5 438.65Q141.9 463.75 141.35 475.4Q139.25 518.3 131 548.5Q127.5 547.45 126.55 543.9Q126.25 542.75 126.25 539Q126.25 537.1 129.25 521.55Q132.25 506 132.25 503Q132.25 495.8 132.8 485L133.75 467Q135.9 420.05 138.25 395L138.25 257.75Q138.75 255.5 139.25 251Q139.75 246.5 140.25 244.25L140.25 185.75Q143.1 156.95 145.8 91.2Q148.3 30.2 152.25 -2.5Q157.4 0.6 157.1 11.25Q156.95 16.6 155.75 21.85M99,83.25Q117.6 80.45 125 96.25Q129 104.75 129 116.1Q129 118.4 127.25 122.1Q125.3 126.35 122.05 130Q118.35 134.15 114 136.55Q117.1 143.1 121.3 153.05Q131 176 131 180.25Q131 182.3 130.5 183.65Q129.9 185.25 128.5 186.5Q123.2 178.15 113.85 156.1Q109.15 145 106.95 139.15L101 139.75L96.75 139.25Q91.65 176.25 88.75 187.25L87.5 187.5Q86 184.8 86 179.6Q86 169.65 88.05 155.3L92 131.25L95.4 105.3Q96.3 98.8 97.35 93.95L97.25 93.7Q97 93 97 89.5Q97 87.55 97.55 85.8Q98.1 84 99 83.25M103.1,95.65L101.95 96.05Q101.6 103.35 98.2 128.85Q101 127.75 107.7 125.6L108 125.25L108.15 125.45L108.5 125.35Q124 119.95 124 112.35Q124 107.45 121.05 102.55Q117.4 96.4 111 95L103.1 95.65M17.65,1.7Q18.25 -0.3 20 -0.75Q60.7 2.05 78.7 58.3Q84.9 77.75 87.8 101.95Q89.75 118.55 89.75 132.6Q89.75 150.15 83.25 168.3Q77.15 185.35 66.55 199.75Q56.1 214 43.75 222.2Q30.95 230.75 19 230.75L16.95 230.65L17.4 243.15Q18.1 261.75 18.75 272.1L18.75 317.1Q19.75 329.85 19.75 355.75L19.15 379.25L17.75 416.1L17.75 481.35L16.75 485.1L16.75 529.35L15.3 539.45Q14.45 545.55 12 549.35Q9.2 548.4 8.5 544.75Q8.25 543.65 8.25 540.25Q8.25 529.65 11.25 520.35L11.25 479.1L12.25 475.35L12.25 410.1L13.65 376.75L14.25 355Q14.25 333.6 13.25 323.1L13.25 278.85L12.15 228.15L11.5 227Q11.05 225.8 11.1 224.35L11.25 223Q11.25 221.7 11.95 220.6Q10.25 140.45 10.25 118.1Q10.25 98.25 11.25 88.5L11.25 38.25Q12.1 34.25 13.8 19.85Q15.25 7.8 17.25 1.5L17.65 1.7M16.75,45L16.75 96Q15.75 103.5 15.75 118.5L16.4 138.45Q17.1 158.2 17.75 169.5L17.75 212.85Q17.3 214.5 17.1 216.9L27.45 212.1Q49.7 201.55 69 179.25Q76.05 171.05 80.4 156.3Q84.25 143.25 84.25 132Q84.25 121 81.75 104.75Q78.45 83.2 72.2 65.5Q54.85 16.65 21.65 14.6Q20.95 25.85 16.75 45M158.75,240.1Q158.75 237.6 159.25 236.9Q160 235.9 163.2 235.25L195.75 230.75L196.5 229.5Q201.25 228.8 201.25 234.25Q201.25 235.85 200.4 237.15L199 238.75L180.25 240.5L180.25 241.85Q180.25 248.4 178.2 260.35Q176.2 271.85 174.25 277.5L173 277.5Q172.75 276 172.75 272.6Q172.75 270.85 174.8 255.35L176.55 241L175.3 241.15Q162.85 242.85 162 243.75Q159.6 243.45 158.95 242Q158.75 241.55 158.75 240.1M198.25,293.85Q198.25 297.95 204.5 303.25Q208.25 306.45 218.25 313.55Q227.45 320.55 232 326.5Q238.25 334.75 238.25 343.85Q238.25 347.45 237.65 349.7Q237.05 352.05 235 356.25Q234.55 357.15 234.1 359.6Q233.8 361.4 232.75 362.3Q229.85 364.85 215 365.75L184.5 365.5Q179.6 362.25 176.7 344.5Q174.75 332.3 174.75 324.75L174.8 318.75Q175.8 314.25 181 314.25L183.65 314.45Q184.4 314.65 185 315.25L185.15 315.8L185.25 318.25Q185.25 319.4 181.25 321.6Q177.25 323.8 177.25 325.5Q177.25 332.2 178.65 341.2Q180.8 355.15 185 358Q215.25 357.75 216 357.25Q224.85 358.7 231.15 351.75Q233.2 349.45 234.65 346.65Q235.75 344.45 235.75 343.75Q235.75 336.6 229.5 330.2Q225.9 326.5 215.75 319.55Q205.9 312.85 202 308.6Q195.75 301.8 195.75 294Q195.75 286.05 196.4 284.2Q198.15 279.35 206 275.25Q218.9 277.55 224.2 281.45Q227.45 283.85 232.25 289.75L232.25 299.5L231.7 299.95L231 300.75L228 300.5Q227.85 299.3 228.3 296.85L228.75 293Q228.75 291.35 221.55 287.35Q218.9 285.85 213 283L205.75 283.25Q199.9 286.95 198.7 289.1Q198.25 290 198.25 293.85M197,366.25Q208.8 367.25 213.4 373.1Q216.25 376.8 216.25 382.85Q216.25 387.1 214.75 390Q212.2 394.75 206 394.75Q198 394.75 194.2 393.7Q191.65 408.65 191.25 412.5L190 412.5Q189.75 411 189.75 406.5Q189.75 402.4 191.1 392.1Q190.55 391.45 190.55 390.6L190.75 389.1L190.8 387.05L191 385.75Q191 385.4 191.15 385Q191.35 384.5 192.2 384.35Q194.35 369.3 195.25 367.5L195.5 368.05L195.6 367.8Q196.2 366.8 197 366.25M196.25,375.4Q196.2 379.5 195.45 385.6L195.5 385.65L198 387Q205.8 387 209.45 385.55Q211.4 384.75 213 383.5Q210.6 376.3 208.65 375.6L204.6 375.3L197 375.5L196.25 375.4M291.7,381.35L291.75 387.75Q291.75 398.2 290 420Q306.05 420.4 317.25 412.25Q321.45 409.15 324 405.55Q326.25 402.35 326.25 400.25Q326.25 394.2 314 387.2Q301.5 380 292.5 381.75L291.7 381.35M287.25,381.55Q286.25 376.25 286.25 375Q286.25 371.75 287.5 370.5Q288.8 371.1 289.7 372.55Q291.35 370.7 294.75 370.35Q300.7 369.75 309 373.75Q317.55 377.9 323.25 384.45Q329.75 391.95 329.75 399.75Q329.75 408.4 323.8 417Q314.95 429.75 297.5 429.75L289.25 429.5L289.2 429.45L286.95 452.7Q282.5 497.45 280.5 506.75Q279.35 505.45 278.7 501.55Q278.25 498.65 278.25 496L283.25 450.6L285.85 424.85Q285.25 423.35 285.25 421.75Q285.25 420.2 285.4 419.3L285.5 418.75L285.95 418.3L286.5 417.7Q288.25 397.3 288.25 388.1Q288.25 386.85 287.25 381.55M248.65,435.15Q250.4 449.9 253 457.75Q256 467.15 259.8 480.6Q265.25 499.6 265.25 502.75L265.05 505L264.25 506.5L262 506.5Q260.65 497.9 257.4 486.25L251.55 466Q244.4 441 244.75 425.5Q232.45 455.45 213.25 506.5L211 506.5L210.75 505L210.75 462.25Q209.75 450.25 209.75 425.5Q201.65 445.35 188.95 466.65Q175.6 489 159.25 509.5L158 509.5Q157.75 508.6 157.75 506.1Q157.75 503.95 178.1 471Q201.5 433.1 210 414.25Q211.5 414.55 212.25 416.75L212.25 455.75Q212.9 464.25 213.15 474.9L213.25 494L213.25 494.25Q221 479 230.35 452.75Q241.65 421.15 245 413.25Q246.85 419.6 248.65 435.15M223,518.25Q220.45 521.35 218.65 524.95Q217.25 527.85 217.25 528.75Q217.25 532.25 222.05 536.25Q227.8 541 236 541Q250.8 541 254.55 535.95Q255.7 534.4 256.3 531.5Q256.95 528.45 257.5 527.5L258.85 528.7Q259.25 529.5 259.25 531.25Q259.25 534.3 254.8 541.05Q249.65 548.75 245 548.75Q222.95 548.75 216.75 539.25Q214.75 536.2 214.55 532.25L214.75 528Q214.75 521.3 220.15 514.55Q224.9 508.6 232 504.7Q238.9 500.9 243.85 501.3Q249.25 501.75 249.25 507.25Q249.25 509.75 249.05 510.3Q248.65 511.5 247 511.5Q245.75 511.5 244.15 510.25Q242.5 509 241.25 509Q230.65 509 223 518.25M301.25,509.5Q301.25 514.15 299.2 527.5Q302.95 523.15 316.8 514.6L337.25 502.5L338.05 504.2L338.25 506.6Q338.25 511.15 322.45 520.8Q328.9 524.4 335.4 529.5Q348.05 539.45 351.25 548.5L350.7 548.95L350 549.75Q345.35 546.65 331.3 535.75Q321.3 528 317 524Q305.45 530.7 298.5 533.5L298.3 533.15Q296.15 546.45 295.25 548.5L293 548.5Q292.75 547.6 292.75 545.1Q292.75 542.45 295.75 526L298.75 509.85Q298.75 508.6 297.75 507.45Q296.75 506.25 296.75 505Q296.75 502.25 298.5 500.5Q301.25 502.45 301.25 509.5M49,455.25Q69.5 456.85 76.4 465.95Q80 470.65 80 479.6Q80 488.5 76.55 493.5Q73.4 498.05 67.65 500.6Q71.3 504.7 76 510.9Q83.35 520.55 90.45 531.55Q97 541.75 97 543Q97 544.85 96.55 546.05L95 548.75Q92.8 546.8 73.55 521.15L59.75 502.9L49 503.75L44.2 503.2Q41.1 520.85 36 546.5Q35 545.1 34.45 542.3Q34 540.15 34 538.5Q34 536.5 36.95 519.05L40.2 500.25Q39.75 499.25 39.8 498.1L40 496.85Q40 495.6 41.2 494.65Q42.05 488.75 42.85 472.95Q43.5 459.65 46 454.25Q46.8 455 47.45 456.75L49 455.25M49,467.6Q49 474.05 46 492.5L57.65 490.25Q65.9 488.75 69.75 486.85Q75.25 484.2 75.25 479.75Q75.25 478.5 73.75 476.15Q71.85 473.3 68.9 471.15Q60.85 465.3 49 467.25L49 467.6" />
</g>
</svg>
