<?xml version="1.0" encoding="utf-8"?>
<svg version="1.1" id="Layer_1"
xmlns="http://www.w3.org/2000/svg"
xmlns:xlink="http://www.w3.org/1999/xlink"


xml:space="preserve">
q-4.45 31.2 -4.55 63.7q-0.1 34.85 -1.35 69.55q-31.75 1.95 -60.75 14q-1.3 -44.5 2.85 -89.05q2.9 -30.7 0.45 -59.25q-4 3.9 -4.3 11.15q-0.9 20.55 -2.6 41.25q-4.85 59.15 -1.85 118.65q2.25 44.25 -1.05 88.5q-2.25 29.8 -7.15 58.95q-2.8 16.75 3.45 29.95q5.9 -12.25 6.85 -27.4q1.75 -29.3 -0.4 -59.2q29.35 -6.35 59.7 -9.2q-3.55 59.5 -4.6 119.25q-0.3 16.45 -2.25 27.25q-1.8 -1.3 0.5 4.5q-4.05 15.05 3.75 23.75q4.55 -15 4.65 -31.5q0.35 -44.2 2.75 -88.4q2.5 -46 3.8 -92.1q1.75 -4.2 0.2 -7.7q1.2 -59.85 -0.55 -118.5q-3 26.4 -4.2 53.95q-2.55 59.25 -5.8 118.4q-3.25 59.25 -5.9 118.6q-0.35 7.45 -1.85 14.65q-3.6 17 3.25 29.55q1.25 -0.8 1.35 -2.25q4.5 -47.8 7.4 -95.9q3.55 -58.95 6.25 -118.5q2.7 -59.75 0 -118.55q4.15 -25.55 -22.5 -23.65q-14.9 1 -23.8 13.65q-13.7 19.45 -3.45 40.1q8.65 17.3 25.25 28.25q18.7 12.3 24.8 32q3.55 11.4 -7.3 18.8q-18.85 13 -40.65 5.95q-19.3 -6.3 -33.35 -21.1q-1.5 28.8 32.8 35.8q17.7 3.85 34.45 -1.6q17 -5.6 21.85 -22.6q0.95 -3.4 0.85 -7q-0.5 -23.35 -18.75 -37.9q-22.45 -17.75 -35.1 -41.5q-4.05 -7.65 1.1 -15.4q11.8 -17.75 31.85 -13.1q8.05 1.95 11.95 9.3q-1.7 2.45 -1.65 5q-3.8 12.5 -4.65 27.25q-2.75 48.15 -3.4 96.95q-2.7 4.05 -1.8 9.05q0.5 2.85 2.75 4.8q-0.25 60.05 -7.2 119.2q-1.7 14.8 -2.95 29.85q-1.35 17.15 4.75 29.4q5.65 -12.75 5.3 -27.75q-1 -41.55 2.75 -82.6q3.4 -37.4 4.65 -75q17.75 0.55 34.05 -8.9q25.4 -14.75 29.25 -44.55q3.35 -25.9 -3.2 -50.9q-9.65 -36.85 -45.35 -47.75q-5.9 1.45 -10.15 5.8q-11.35 18.1 -31.8 23.7q-7.9 2.1 -16.25 1.95q1.2 -59.95 5.25 -119.75q20.85 -7.7 36.8 14.05q12.75 17.45 15.2 39.05q2.5 22.35 -9.2 41q-3.95 18.8 -4.65 38.95q-1.9 54.05 -6.15 107.95q-5.55 -16.65 -9.7 -33.75q-12.7 -51.8 -29.95 -101.7q-0.8 -0.15 -0.85 0.3q-4 10.15 -0.15 22.65q-1.15 12.55 -1.85 25.25q-1.5 26.25 -1.75 52.55q-0.25 22.55 -5.8 43.8q-4.45 16.95 1.8 29.7q5.75 -13.25 7.65 -28.35q1.8 -14.05 2.75 -28.5q2.75 -39.95 2.1 -79.4q4.5 14.55 7.9 29.35q13.3 57.9 32.1 112.65q2.65 -1.15 2.8 -4.25q4.05 -12.5 4.25 -26.25q0.15 -13.3 1.25 -26.85q4.75 -59.35 1.5 -118.6q-0.85 -0.25 -1.05 0.7q-10.8 17.45 -12.3 37.9q-1.1 14.6 -1.95 29.25q-1.1 19.3 -3 38.25q-2.25 22.1 9.45 40.5q5.3 8.3 13.85 13.35q28.7 -3.4 38.65 -29.7q2.7 -7.1 -1.9 -13.55q-12.7 24.75 -38.5 23.9q-2.95 -0.5 -5.75 -1.65q-21.2 -66.6 8.45 -127.75q3.65 -7.5 9.55 -13.7q15.3 -5.65 26.75 5.25q0.25 -26.35 -25.85 -16.6q-11 4.1 -17.45 14.55<g id="468" transform="matrix(1, 0, 0, 1, -70.4, 0)">
<path style="fill:#000000;fill-opacity:1" d="M427.2,87.25Q428.95 145.9 427.75 205.75L427.35 224.5Q428.9 228 427.15 232.2Q425.85 278.3 423.35 324.3Q420.95 368.5 420.6 412.7Q420.5 429.2 415.95 444.2Q408.15 435.5 412.2 420.45Q409.9 414.65 411.7 415.95Q413.65 405.15 413.95 388.7Q415 328.95 418.55 269.45L420.25 236.65Q389.9 239.5 360.55 245.85L361.6 264.1Q363.75 294 362 323.3L356.8 407.3Q355.85 422.45 349.95 434.7Q343.7 421.5 346.5 404.75Q351.4 375.6 353.65 345.8Q356.95 301.55 354.7 257.3Q351.7 197.8 356.55 138.65Q358.25 117.95 359.15 97.4Q359.45 90.15 363.45 86.25Q365.9 114.8 363 145.5Q358.85 190.05 360.15 234.55Q389.15 222.5 420.9 220.55Q422.15 185.85 422.25 151Q422.35 118.5 426.8 87.3L427.2 87.25M183.45,85.75Q186.15 144.55 183.45 204.3Q180.75 263.85 177.2 322.8Q174.3 370.9 169.8 418.7Q169.7 420.15 168.45 420.95Q161.6 408.4 165.2 391.4Q166.7 384.2 167.05 376.75Q169.7 317.4 172.95 258.15Q176.2 199 178.75 139.75Q179.95 112.2 182.95 85.8L183.45 85.75M283.75,102.95Q263.7 98.3 251.9 116.05Q246.75 123.8 250.8 131.45Q263.45 155.2 285.9 172.95Q304.15 187.5 304.65 210.85Q304.75 214.45 303.8 217.85Q298.95 234.85 281.95 240.45Q265.2 245.9 247.5 242.05Q213.2 235.05 214.7 206.25Q228.75 221.05 248.05 227.35Q269.85 234.4 288.7 221.4Q299.55 214 296 202.6Q289.9 182.9 271.2 170.6Q254.6 159.65 245.95 142.35Q235.7 121.7 249.4 102.25Q258.3 89.6 273.2 88.6Q299.85 86.7 295.7 112.25Q291.8 104.9 283.75 102.95M93.8,85.3Q98.05 80.95 103.95 79.5Q139.65 90.4 149.3 127.25Q155.85 152.25 152.5 178.15Q148.65 207.95 123.25 222.7Q106.95 232.15 89.2 231.6Q87.95 269.2 84.55 306.6Q80.8 347.65 81.8 389.2Q82.15 404.2 76.5 416.95Q70.4 404.7 71.75 387.55Q73 372.5 74.7 357.7Q81.65 298.55 81.9 238.5L81.95 230.6Q79.7 228.65 79.2 225.8Q78.3 220.8 81 216.75L82.1 216.85Q82.75 168.05 85.5 119.9Q86.35 105.15 90.15 92.65Q90.1 90.1 91.8 87.65L93.5 83.25L93.8 85.3M146.85,150.55Q144.4 128.95 131.65 111.5Q115.7 89.75 94.85 97.45Q90.8 157.25 89.6 217.2Q97.95 217.35 105.85 215.25Q126.3 209.65 137.65 191.55Q149.35 172.9 146.85 150.55M259.2,257.5Q262.45 316.75 257.7 376.1Q256.6 389.65 256.45 402.95Q256.25 416.7 252.2 429.2L249.8 427.6L249.75 428.7Q249.6 431.8 246.95 432.95Q228.15 378.2 214.85 320.3Q211.45 305.5 206.95 290.95Q207.6 330.4 204.85 370.35Q203.9 384.8 202.1 398.85Q200.2 413.95 194.45 427.2Q188.2 414.45 192.65 397.5Q198.2 376.25 198.45 353.7Q198.7 327.4 200.2 301.15Q200.9 288.45 202.05 275.9Q198.2 263.4 202.2 253.25L203.9 258L204.6 252.05Q204.65 251.6 205.45 251.75L206.15 264.4Q223.4 314.3 236.1 366.1Q240.25 383.2 245.8 399.85L247.35 405.1Q251.6 351.2 253.5 297.15Q254.2 277 258.15 258.2Q258.35 257.25 259.2 257.5M304.85,261.4Q330.95 251.65 330.7 278Q319.25 267.1 303.95 272.75Q298.05 278.95 294.4 286.45Q264.75 347.6 285.95 414.2Q288.75 415.35 291.7 415.85Q317.5 416.7 330.2 391.95Q334.8 398.4 332.1 405.5Q322.15 431.8 293.45 435.2Q284.9 430.15 279.6 421.85Q267.9 403.45 270.15 381.35Q272.05 362.4 273.15 343.1Q274 328.45 275.1 313.85Q276.6 293.4 287.4 275.95Q293.85 265.5 304.85 261.4" />
</g>
</svg>
