<?xml version="1.0" encoding="utf-8"?>
<svg version="1.1" id="Layer_1"
xmlns="http://www.w3.org/2000/svg"
xmlns:xlink="http://www.w3.org/1999/xlink"


xml:space="preserve">
q-7 11.05 -15 22.05q-30.8 42.15 -52.25 89.45q-4.3 9.45 -10.7 17.8q-5.6 7.3 -8.6 14.95q1 -25.2 1.6 -50.5q1.45 -59.95 -0.05 -118.5q-4.4 9.05 -4.95 21.7q-2.7 59 -3.45 118.55q-0.75 59.45 -4 118.55q-3.3 60.05 -10.7 119q-2.15 16.85 3.6 29.9q6.45 -24.25 7.8 -51.45q2.95 -59.2 6.6 -118.5q1.45 -22.95 2.55 -46q13.85 -21.9 25.05 -44.9q5.55 -11.4 11.55 -22.55q-0.15 15.05 4.45 31.55q16.05 57.05 30.5 114.35q14.6 58 24.5 113.75q0.3 11.55 7.5 15.75q1.25 -1.7 1.1 -3.7q-2 -27.95 -8.95 -55.8q-14.3 -57.05 -29.55 -114.15q20.8 -38 47.05 -73.2q13.75 -18.35 11.5 -38.6q-0.55 1.3 -0.3 2.25q-3.05 58.95 -3.3 118.55q-0.3 59.75 -2.45 119.25q-2.2 59.45 -6.45 117.95q0.05 8.7 -2.05 21.3q-2.5 15.2 5.05 23.45q4.45 -25.85 5.55 -53.25q2.2 -59.4 2.6 -119.25q0.45 -60.05 0.15 -118.5q-3.5 2.85 -3.8 8.95q-1.7 16.95 3.8 29.4q1.4 -1.2 1.65 -3.05q6.2 -54.25 4.5 -108q21.7 39.2 42.4 80.25q7.5 14.8 18.2 23.55q1.9 -3.4 1.8 -6.8q4.7 -54.35 1.1 -108.7q-5.2 19 -4.3 40.75q0.9 21.1 -1.5 41.85q-1.1 9.45 0.55 17q-28.8 -48.2 -55 -98.35q-2.2 -2.3 -5.1 -3.15q-1.35 0.8 -1.6 2.75q-0.3 2.7 0.35 5.25q-6.15 -0.3 -11.45 2.05q-0.6 2.6 0 5.25q-3.2 13.25 -2.75 28.5q1.9 59.5 -0.2 119.2q-1.8 51.85 -2.45 104.25q-0.75 59 -2.65 117.95q-0.1 -2.1 -1.3 -3q-0.1 3.75 -0.75 7.25q-2.5 13.5 3.5 23.5q4.9 -4.5 5.3 -12.7q2.9 -59.3 2.15 -119.3q4.9 2.1 10.85 0.3q9.55 -2.9 17.5 -8.25q35.05 -23.6 41.9 -65.85q4.6 -28 -0.8 -55.65q-9.05 -46.6 -47.6 -69.9q14.85 40.4 -0.3 79.2q-15.95 40.85 -58.7 44.5q0.2 -33.15 1.25 -66.3q1.6 -52.9 0.75 -104.75q23.2 -2.35 38.5 15.5q11.9 13.9 18.5 31.85q-0.75 1.8 -0.6 3.75q-2.25 6.15 -2.75 13.6q-4.05 59.05 -9.15 118.4q-1.4 16.55 3.7 29.9q5.1 -24 6.4 -50.7q3.3 -1.05 6.3 -2.6q-0.55 8.2 1.95 17.65q10.35 39.35 23.35 76.7q4.8 -5.35 2.85 -13.3q-10.7 -42.5 -24.35 -83.35q7.6 -5.25 12.3 -14.45q17.25 -33.7 -8.55 -58.35q4.05 2.6 5.75 7q12.5 32.2 -18.6 48.3q-10.65 2.15 -18.6 10.1q-32.85 32.75 -40.5 79.8q-4.75 29.2 -5.45 59.3q-0.8 35.05 6.35 68.65q8.75 41.1 43.45 63.85q22.45 5.95 36.6 -9.55q6.7 -7.3 14.3 -13.35q15.95 -12.65 4.85 -25.85q-5.1 4.85 -9.65 10.1q-3.45 0.45 -6.3 -0.95q-32.55 -16.15 -42.35 -51.65q-4.75 -17.2 -5.4 -35.25q-2.2 -58.6 13.65 -113.5q10.1 -34.95 41.75 -48.75q9.65 -4.25 18.35 0.35q11.5 6.05 19.85 13.1q1.6 -6.7 -2.6 -12.7q-4.9 -7 -11.9 -12.05q-1 -0.25 -1.9 -0.7q-8.6 -4.3 -18.6 -2.8<g id="471" transform="matrix(1, 0, 0, 1, -56.5, 0)">
<path style="fill:#000000;fill-opacity:1" d="M417.75,101L417.95 100.5L418.8 101.1L427.45 86.5Q429.7 106.75 415.95 125.1Q389.7 160.3 368.9 198.3L397.8 306.3Q413.05 363.4 427.35 420.45Q434.3 448.3 436.3 476.25Q436.45 478.25 435.2 479.95Q428 475.75 427.7 464.2L425.7 462.6L425.95 462.45Q416.05 406.7 401.45 348.7Q387 291.4 370.95 234.35Q366.35 217.85 366.5 202.8Q360.5 213.95 354.95 225.35Q343.75 248.35 329.9 270.25Q328.8 293.3 327.35 316.25Q323.7 375.55 320.75 434.75Q319.4 461.95 312.95 486.2Q307.2 473.15 309.35 456.3Q316.75 397.35 320.05 337.3Q323.3 278.2 324.05 218.75Q324.8 159.2 327.5 100.2Q328.05 87.55 332.45 78.5Q333.95 137.05 332.5 197Q331.9 222.3 330.9 247.5Q333.9 239.85 339.5 232.55Q345.9 224.2 350.2 214.75Q371.65 167.45 402.45 125.3Q410.45 114.3 417.45 103.25Q417.2 102.3 417.75 101M176.45,80.5Q176.75 138.95 176.3 199Q175.9 258.85 173.7 318.25L169 436.7Q167.9 464.1 163.45 489.95Q155.9 481.7 158.4 466.5Q160.5 453.9 160.45 445.2Q164.7 386.7 166.9 327.25Q169.05 267.75 169.35 208Q169.6 148.4 172.65 89.45Q172.95 83.35 176.45 80.5M203.35,75.25Q203.6 73.3 204.95 72.5Q207.85 73.35 210.05 75.65L210.95 76.5Q237.15 126.65 265.95 174.85Q264.3 167.3 265.4 157.85Q267.8 137.1 266.9 116Q266 94.25 271.2 75.25Q274.8 129.6 270.1 183.95L270 184.45Q270.1 187.85 268.2 191.25Q257.5 182.5 250 167.7Q229.3 126.65 207.6 87.45Q209.3 141.2 203.1 195.45Q202.85 197.3 201.45 198.5Q195.95 186.05 197.65 169.1L205.7 84.05L203.7 80.5Q203.05 77.95 203.35 75.25M90.5,78.2L93.5 78.5Q132.05 101.8 141.1 148.4Q146.5 176.05 141.9 204.05Q135.05 246.3 100 269.9Q92.05 275.25 82.5 278.15Q76.55 279.95 71.65 277.85L71.85 314.5Q72.6 374.5 69.7 433.8L67.8 473.5Q67.4 481.7 62.5 486.2Q56.5 476.2 59 462.7Q59.65 459.2 59.75 455.45Q60.95 456.35 61.05 458.45L61.25 459.7Q63.15 400.75 63.9 341.75Q64.55 289.35 66.35 237.5Q68.45 177.8 66.55 118.3Q66.1 103.05 69.3 89.8L68.95 88.75Q68.35 86.1 68.95 83.5L69.25 82L72.15 80.25L73.5 76.75L73.55 79.55Q78.85 77.2 85 77.5L90.5 78.2M112.25,106Q96.95 88.15 73.75 90.5Q74.6 142.35 73 195.25Q71.95 228.4 71.75 261.55Q114.5 257.9 130.45 217.05Q145.6 178.25 130.75 137.85Q124.15 119.9 112.25 106M91.95,319L93.5 317.5L102.2 317Q128 341.65 110.75 375.35Q106.05 384.55 98.45 389.8Q112.1 430.65 122.8 473.15Q124.75 481.1 119.95 486.45Q106.95 449.1 96.6 409.75Q94.1 400.3 94.65 392.1Q91.65 393.65 88.35 394.7L86.4 437.25Q85.1 463.95 80 487.95Q74.9 474.6 76.3 458.05Q81.4 398.7 85.45 339.65Q85.95 332.2 88.2 326.05L88.15 325.75Q88 323.8 88.75 322L91 319.95L91.25 319.5L91.25 319.7L91.95 319M90.9,329.35L88.85 382.55Q119.95 366.45 107.45 334.25Q105.75 329.85 101.7 327.25L93.75 327.25L90.9 329.35M266.55,207.3Q267.45 207.75 268.45 208Q275.45 213.05 280.35 220.05Q284.55 226.05 282.95 232.75Q274.6 225.7 263.1 219.65Q254.4 215.05 244.75 219.3Q213.1 233.1 203 268.05Q187.15 322.95 189.35 381.55Q190 399.6 194.75 416.8Q204.55 452.3 237.1 468.45Q239.95 469.85 243.4 469.4L262.2 467.2L279.3 447.55Q283.85 442.3 288.95 437.45Q300.05 450.65 284.1 463.3Q276.5 469.35 269.8 476.65Q255.65 492.15 233.2 486.2Q198.5 463.45 189.75 422.35Q182.6 388.75 183.4 353.7Q184.1 323.6 188.85 294.4Q196.5 247.35 229.35 214.6Q237.3 206.65 247.95 204.5Q257.95 203 266.55 207.3" />
</g>
</svg>
