<?xml version="1.0" encoding="utf-8"?>
<svg version="1.1" id="Layer_1"
xmlns="http://www.w3.org/2000/svg"
xmlns:xlink="http://www.w3.org/1999/xlink"


xml:space="preserve">
q-15.3 -45.35 -64.15 -47.1q-3.5 0.5 -6.5 1.95q-36.05 17.5 -34.75 58.5q0.4 13 4.95 24.9q16.9 44.05 45.05 82.3q32.2 43.25 46.05 95.6q8.6 32.45 11.2 66.35q3.3 42.5 -11.75 81.75q-4.6 10.05 -10.2 19.75q-6.25 10.95 -15.05 20q-32.4 15.85 -63.4 -1.2q-13.45 -7.35 -17.55 -22.9q-8.1 -30.4 -7.05 -61.9q-0.15 -1.55 0.35 -2.95q-1.5 1.8 -1.7 5.25q-1.55 16.1 -0.3 32.2q2.5 31.95 19.05 59.3q13.9 9.75 31.15 12.2q45.7 6.45 64.3 -35.3q10.65 -23.95 15.4 -49.55q7.4 -39.95 2.9 -80.25q-3.85 -34.15 -15.25 -66.5q-15.7 -44.35 -43.75 -81.8q-11 -18.4 -24.55 -35.35q-29.5 -36.85 -19.7 -82.4q3.95 -7.9 9.6 -14.7q4.7 -5.65 10.4 -10.05q39.85 -11.05 64.05 20.55q11 14.35 13.45 29.95q2.7 -8.9 -0.35 -17.9q2.65 3.15 0.1 0q-6.65 43.05 -16.25 84.75q-0.8 -43.7 -4.75 -86.25q-8.2 28.9 -12.95 60.2q-1.6 10.55 -4.85 20.55q-5.15 15.7 -0.7 27.25q10.15 -39.4 16.75 -79.25q-0.55 41.4 5.5 79.5q11.2 -35.15 15.75 -72q2.75 34.35 2.35 67.5q0.7 5.75 4.25 8q1.95 -20.6 0.35 -42.1q-1.6 -20.95 -1.35 -41.9q0.2 -15.6 -4.5 -26.75q3.8 -34.8 1 -69.75q-8.8 39.45 -3.85 81.1q17.25 2.6 34 -2q2.8 -3.85 1.3 -8.45q-5.2 30.2 -13.3 60.35q-7 -33.7 -22.95 -63.75q-1.6 0.05 -1.4 1.95q1.7 13.75 7.15 27.55q6.05 15.3 9.25 31.35q2.35 11.9 7.75 20.15q8.1 -19.25 13.25 -40q5.2 -20.95 2.75 -40q-2.1 0.8 -2.45 2.9q-18.15 -4.05 -21.45 23.05q-2.85 23.65 3.85 46q2.2 7.45 10.1 8.7q7.35 -6 10.65 -14.85q1.05 -2.85 1.1 -5.9q-4.8 -14.45 -2.85 -29.75q0.85 -0.2 1.3 -0.95q1.05 -2.6 0.1 -5.1q-7.95 30.7 -16.95 60.8q-13.3 -37.65 -27.55 -74.95q-1.7 0.2 -2.15 2.25q-9.35 43.05 -14.6 85.45q2.05 -0.6 2.65 -3q8.55 -34.1 14.35 -68.75q12.7 38.9 27.5 75.25q-1.25 0.7 -2.7 1.1q-4.75 1.3 -9.05 3.9q-11.55 23.7 -5.7 50.9q1.95 9.1 7.9 16.15q13.2 15.55 29.35 1.65q4.25 -3.7 6.1 -7.3q0.35 9.9 2.35 19.1q3.45 -22.35 -0.05 -44.95q-0.95 3.2 0.7 6q-0.2 2.25 -0.25 4.45q-2.4 5.05 -7.3 8.35q-9.25 2.85 -18.25 0.5q-6.95 -6.95 -9.7 -16.95q-8.8 -32.6 19.7 -45.55q9.4 -0.1 17.75 4.75q0.7 -1.8 0.3 -3.75q-6.6 -7.25 -16.3 -8q7.65 -22.9 5.3 -44.85q-3.35 4.35 -5.5 9.75q2.05 0.1 1.45 2.45q-2.2 10.85 -2.7 22.85q-2.5 59.15 -4.3 118.6q-1.75 59.55 -7.35 117.5q-2.05 15.2 0 29.25q1 -0.5 1.15 -1.2q5.6 -26.2 6.5 -53.8q0.8 -27.4 2.5 -54.55q7.4 0.85 13.8 -1.05q14.65 57.95 35.55 111.5q3.65 -10.9 -0.85 -22.75q-7.2 -18.95 -12.8 -38.45q7.45 -3.6 13.3 -11.4q8.05 -13.3 11.05 -28.45q1.6 -8.1 2.45 -16.4q3.85 -36.75 -20.25 -60.65q-1.1 -0.15 -2 -0.65q-6.1 -3.7 -13.25 -3.35q-2.7 -0.1 -5.95 0.7q7.5 20.65 3.15 42.55q-4.5 22.85 -23.05 35.85q-7.4 5.15 -16.45 5.3q8.45 -52.95 3.65 -105.85q24.2 -1.25 32.7 22.15q-39.65 7.35 -53 43.7q-13 35.3 -16.25 72.7q-5.15 59.2 -6.95 119.35q-1.85 59.25 -0.8 119.2q0.55 29.8 1.9 59.35q1.75 38.25 33.75 57.05q25.55 14.95 50.5 0.05q18.55 -11.05 28.9 -29.7q12.95 -23.2 9.2 -47.25q-0.6 -0.35 -1.25 -0.35q-0.75 0 -1.35 0.5q-1.2 -0.9 -1.4 -2.45q-0.95 2.55 0.5 6.3q0.8 2.15 0.75 4.45q-2.35 5.9 -4.25 12q-6.6 21.35 -23.85 35.4q-32.4 26.35 -65.55 -0.25q-4.4 -3.5 -5.95 -8.55q-15.95 -51.9 -14.3 -107.6q27.4 -0.25 54.75 -1.25q2.2 -4.65 1.3 -9.8q-0.45 -2.8 -2.55 -4.45q-20.15 1.95 -40.7 5.05q1.5 -55.5 6.45 -110.4q3.7 -41.5 27.9 -74.85q19 -11.5 39.5 -13.5q1.4 1.65 3.2 2.8q2.5 1.6 4.55 3.7q1.45 3.45 3.4 6.65q3 4.95 5.1 5.1q1.95 -1.65 1.55 -4.35q-3.1 -19.75 -21.05 -29.15q-13.05 19.55 -17.9 42.55q-4.15 19.8 -7.3 39.55q-0.85 5.4 1.7 10.15q4.7 25.3 14.35 47.1q-5.65 -39.05 -14.9 -77.1q1.7 -5.95 2.75 -11.7q-0.8 1.8 -1.05 3.75q-0.4 3.05 1.5 5.25q-2.45 19.8 -1.8 40.7q1.85 59.3 2.3 118.5q0.45 59.4 -2.7 118.5q-3.2 59.65 -5.85 119.25q-0.65 14.95 -2.1 29.85q-1.7 17.15 5.2 29.35q0.6 -0.75 0.65 -1.5q0.95 -20.25 1.3 -40.5q15.75 6.55 31.8 -2.45q23.25 -12.95 35 -36.95q7.15 -14.65 8.7 -30.75q4.25 -44.7 -11 -86.65q-13.7 -37.55 -52.2 -41.7q-9.3 1.85 -18.45 2.2q27.35 -5.15 44.5 14.7q15.45 17.85 22.85 40.75q17.6 54.6 -19.3 98.55q-17.75 21.15 -43.25 15.55q0.1 -31.5 -1.2 -63.1q2.4 0.45 4.65 0.05<g id="483" transform="matrix(1, 0, 0, 1, -29.6, 0)">
<path style="fill:#000000;fill-opacity:1" d="M495.45,123.5Q493 107.9 482 93.55Q457.8 61.95 417.95 73Q412.25 77.4 407.55 83.05Q401.9 89.85 397.95 97.75Q388.15 143.3 417.65 180.15Q431.2 197.1 442.2 215.5Q470.25 252.95 485.95 297.3Q497.35 329.65 501.2 363.8Q505.7 404.1 498.3 444.05Q493.55 469.65 482.9 493.6Q464.3 535.35 418.6 528.9Q401.35 526.45 387.45 516.7Q370.9 489.35 368.4 457.4Q367.15 441.3 368.7 425.2L368 423.7L367.6 422.2L367.5 419.95Q367.7 416.5 369.2 414.7L369.4 416.2L369.4 416.95L369.15 417.7L368.8 418.5Q368.3 419.9 368.45 421.45L369.65 422.65L370.9 423.2L371.95 423.7Q370.9 455.2 379 485.6Q383.1 501.15 396.55 508.5Q427.55 525.55 459.95 509.7Q468.75 500.65 475 489.7Q480.6 480 485.2 469.95Q500.25 430.7 496.95 388.2Q494.35 354.3 485.75 321.85Q471.9 269.5 439.7 226.25Q411.55 188 394.65 143.95Q390.1 132.05 389.7 119.05Q388.4 78.05 424.45 60.55Q427.45 59.1 430.95 58.6L430.95 58.5Q479.8 60.25 495.1 105.6Q498.15 114.6 495.45 123.5M435.2,89.75Q437.75 92.9 435.1 89.75L435.2 89.75M349.7,82Q349.45 102.95 351.05 123.9Q352.65 145.4 350.7 166Q347.15 163.75 346.45 158Q346.85 124.85 344.1 90.5L343.95 90Q339.4 126.85 328.2 162Q322.15 123.9 322.7 82.5L322.45 81.75Q315.85 121.6 305.7 161Q301.25 149.45 306.4 133.75Q309.65 123.75 311.25 113.2Q316 81.9 324.2 53Q328.15 95.55 328.95 139.25L328.95 140Q338.55 98.3 345.2 55.25Q349.9 66.4 349.7 82M351.45,246.25Q334.7 250.85 317.45 248.25L315.35 248.85Q310.4 207.2 319.2 167.75Q322 202.7 318.2 237.5L352.2 236.5L352.75 237.8Q354.25 242.4 351.45 246.25M355.95,254.5Q358.4 273.55 353.2 294.5Q348.05 315.25 339.95 334.5Q334.55 326.25 332.2 314.35Q329 298.3 322.95 283Q317.5 269.2 315.8 255.45Q315.6 253.55 317.2 253.5Q333.15 283.55 340.15 317.25L340.2 317.75Q348.3 287.6 353.5 257.4Q353.85 255.3 355.95 254.5M380.35,255.45Q381.3 257.95 380.25 260.55L379.6 261.8Q379.15 262.55 378.3 262.75L375.45 261.8L369.7 264.25L365.4 285.4L381.6 285.45L381.7 294.75L364.7 292.5L364.35 290.75Q362.4 306.05 367.2 320.5L370.95 321.25L384.2 311.5Q384.15 314.55 383.1 317.4Q379.8 326.25 372.45 332.25Q364.55 331 362.35 323.55Q355.65 301.2 358.5 277.55Q361.8 250.45 379.95 254.5L380.35 255.45M331.45,353.2Q333.6 347.8 336.95 343.45Q339.3 365.4 331.65 388.3L317.15 431.35L317.95 430.7L321.45 430.25L321.9 430.1L321.95 429.95Q331.65 430.7 338.25 437.95L338.95 438.7L339.55 441Q339.95 442.95 339.25 444.75L338.7 446.2Q330.35 441.35 320.95 441.45L317.7 441.7Q289.2 454.65 298 487.25Q300.75 497.25 307.7 504.2Q316.7 506.55 325.95 503.7Q330.85 500.4 333.25 495.35L335.95 489.45L337.7 492.15Q337.75 489.95 337.95 487.7L319.45 488.45Q317.8 485.65 318.75 482.45L318.95 481.7L340.45 476.45Q343.95 499.05 340.5 521.4L339.95 521.95Q337.95 512.75 337.6 502.85Q335.75 506.45 331.5 510.15Q315.35 524.05 302.15 508.5Q296.2 501.45 294.25 492.35Q288.4 465.15 299.95 441.45L300.5 441L300.95 440.75L302.2 440.2L302.9 439.4L303.2 438.7L303.55 438.05L304.2 437.2Q308.5 434.6 313.25 433.3Q314.7 432.9 315.95 432.2Q301.15 395.85 288.45 356.95Q282.65 391.6 274.1 425.7Q273.5 428.1 271.45 428.7Q276.7 386.3 286.05 343.25Q286.5 341.2 288.2 341Q302.45 378.3 315.75 415.95L315.95 416.45Q324.95 386.35 332.9 355.65Q333.5 353.3 331.45 353.2M266.95,48.75Q274.1 48.4 280.2 52.1Q281.1 52.6 282.2 52.75Q306.3 76.65 302.45 113.4Q301.6 121.7 300 129.8Q297 144.95 288.95 158.25Q283.1 166.05 275.65 169.65L306.8 276.8Q312.4 296.3 319.6 315.25Q324.1 327.1 320.45 338Q299.55 284.45 284.9 226.5L271.15 171.4Q264.75 173.3 257.35 172.45Q255.65 199.6 254.85 227L253.1 282.5Q252.2 310.1 246.6 336.3Q246.45 337 245.45 337.5Q243.4 323.45 245.45 308.25Q251.05 250.3 252.8 190.75Q254.6 131.3 257.1 72.15Q257.6 60.15 259.8 49.3L260.2 49.25L260.3 49.75L261 49.45Q264.25 48.65 266.95 48.75M261.6,57.4Q266.4 110.3 257.95 163.25Q267 163.1 274.4 157.95Q292.95 144.95 297.45 122.1Q301.8 100.2 294.3 79.55Q285.8 56.15 261.6 57.4M212.5,41.85L216.45 42.5Q234.4 51.9 237.5 71.65Q237.9 74.35 235.95 76Q233.85 75.85 230.85 70.9Q228.9 67.7 227.45 64.25Q225.4 62.15 222.9 60.55Q221.1 59.4 219.7 57.75L217.45 57.5L216.5 56.7L215.95 56.25L215.7 56Q195.2 58 176.2 69.5Q152 102.85 148.3 144.35Q143.35 199.25 141.85 254.75L141.25 277.8Q161.8 274.7 181.95 272.75L193.25 273.3L194.45 273.25Q196.55 274.9 197 277.7Q197.9 282.85 195.7 287.5Q168.35 288.5 140.95 288.75L138.55 373.2Q136.9 428.9 152.85 480.8Q154.4 485.85 158.8 489.35Q191.95 515.95 224.35 489.6Q241.6 475.55 248.2 454.2Q250.1 448.1 252.45 442.2Q252.5 439.9 251.7 437.75Q250.25 434 251.2 431.45L251.7 432.95L252.05 434.5Q252.25 436.05 253.45 436.95L254.6 435.85Q255.2 435.35 255.95 435.35Q256.6 435.35 257.2 435.7Q260.95 459.75 248 482.95Q237.65 501.6 219.1 512.65Q194.15 527.55 168.6 512.6Q136.6 493.8 134.85 455.55Q133.5 426 132.95 396.2Q131.9 336.25 133.75 277Q135.55 216.85 140.7 157.65Q143.95 120.25 156.95 84.95Q170.3 48.6 209.95 41.25L212.5 41.85M206.05,157.8L211 178.3Q220.25 216.35 225.9 255.4Q216.25 233.6 211.55 208.3L194.4 206.8L182.7 244.75Q180.15 240 181 234.6Q184.15 214.85 188.3 195.05Q193.15 172.05 206.2 152.5L206.05 157.8M201.8,181.5L196.6 199.5L209.8 198.8L204.55 169.8Q203.5 175.55 201.8 181.5M62,40.5Q100.5 44.65 114.2 82.2Q129.45 124.15 125.2 168.85Q123.65 184.95 116.5 199.6Q104.75 223.6 81.5 236.55Q65.45 245.55 49.7 239Q49.35 259.25 48.4 279.5L42.55 398L37.15 506.7Q37.1 507.45 36.5 508.2Q29.6 496 31.3 478.85Q32.75 463.95 33.4 449Q36.05 389.4 39.25 329.75Q42.4 270.65 41.95 211.25Q41.5 152.05 39.65 92.75Q39 71.85 41.45 52.05L41.2 51.75Q39.3 49.55 39.7 46.5Q39.95 44.55 40.75 42.75L42.8 42.7L42.95 41.85L43.5 41.75L43.55 42.7Q52.7 42.35 62 40.5M44.05,53.65L48.65 160.25Q49.95 191.85 49.85 223.35L53.5 223.25Q79 228.85 96.75 207.7Q133.65 163.75 116.05 109.15Q108.65 86.25 93.2 68.4Q76.05 48.55 48.7 53.7Q46.45 54.1 44.05 53.65" />
</g>
</svg>
