<?xml version="1.0" encoding="utf-8"?>
<svg version="1.1" id="Layer_1"
xmlns="http://www.w3.org/2000/svg"
xmlns:xlink="http://www.w3.org/1999/xlink"


xml:space="preserve">
q-13.65 54.6 -14.85 111.25q-1.35 60.55 15.85 117.65q11.65 38.65 52.3 39q27.75 0.25 44.75 -21q3 -3.75 5.25 -7.55q-2.6 21.1 1.5 38.8q5.45 -4.1 5.35 -11.75q-0.2 -17.2 2.6 -34.15q4 -24.25 -2.45 -46.1q-15.15 3.65 -29.75 8.5q-0.7 3 0.2 5.95q14.1 2.9 27.75 -2.5q-6.1 2.35 -6.7 9.5q-0.2 2.8 -2.8 3.8q1.3 0.8 1.55 -0.7q-10.05 34.2 -48 34.95q-40.05 0.75 -48.7 -37.8q-3.15 -14 -6 -28q-11.85 -58.2 -4.8 -117.55q4.7 -39.75 19.45 -76.8q16.95 -42.6 64.3 -43.35q6.5 3.2 12.05 7.7q3.5 2.75 5.45 6.8q-2.9 -27.65 -32.2 -28.75q-22.8 5.5 -39.95 21.85q-19.95 19.05 -26.85 46.65q29.3 -23.6 58.1 -1.4q1.05 -0.25 1.95 -1q1 -2.25 -0.15 -4.55q-11.55 -22.35 -40.1 -19.45q-20.55 4.8 -32.35 22.35q-21.25 31.65 -30.05 68.9q-8.25 35.2 -10.55 71.6q-3.7 59.65 3.7 118.55q1.85 15.1 3.35 30.25q4.05 42.2 43.45 52.6q17.25 4.55 33.75 -1.85q20.4 -7.9 35.1 -24.15q13.75 -15.25 3.6 -28.8q-10.4 16.25 -26.9 27.7q-28.7 19.85 -61.25 3.2q-3.75 -1.95 -5.45 -5.25q-20.55 -39.5 -21.85 -85.35q-1 -33.85 -0.8 -67.7q32.15 0.15 63.75 -3.3q3.2 -7.55 -1.3 -14.25q0.95 -56.7 24.55 -107.6q7.2 -15.55 20.15 -26q-4.4 2.75 -4.65 9.2q-2.55 59.15 -4.1 118.55q1.6 2.55 4.25 2q4.35 -26.95 4.45 -55.5q0.25 -56.85 2.55 -113.2q26.15 12.75 50.55 -3.25q25.7 -16.8 34.2 -45.95q17.05 -58.6 -6.05 -115.45q-15.95 -39.2 -61.75 -37.85q-2.65 0.9 -4.15 2.65q25.95 34.95 28 79.4q1.5 32.3 -17.65 57.35q-27.5 35.9 -68.75 23.2q2.25 -54.35 3.85 -108.8q0.45 -15 2 -29.85q1.7 -15.85 0.55 -30.8q24.25 -7.1 47.25 5.45q2.9 1.6 4.75 4.05<g id="488" transform="matrix(1, 0, 0, 1, -72.75, 0)">
<path style="fill:#000000;fill-opacity:1" d="M360,117.6Q377.15 101.25 399.95 95.75Q429.25 96.85 432.15 124.5L431.95 125.25L431.6 125.7L429.75 125.8L428.95 125.5Q427 121.45 423.5 118.7Q417.95 114.2 411.45 111Q364.1 111.75 347.15 154.35Q332.4 191.4 327.7 231.15Q320.65 290.5 332.5 348.7Q335.35 362.7 338.5 376.7Q347.15 415.25 387.2 414.5Q425.15 413.75 435.2 379.55L434.7 379.2L434.55 380Q434.3 381.5 433 380.7L431.45 379.7Q434.05 378.7 434.25 375.9Q434.85 368.75 440.95 366.4L441.2 363.95Q427.55 369.35 413.45 366.45Q412.55 363.5 413.25 360.5L413.7 358.95Q428.3 354.1 443.45 350.45Q449.9 372.3 445.9 396.55Q443.1 413.5 443.3 430.7Q443.4 438.35 437.95 442.45Q433.85 424.75 436.45 403.65L436.45 403.6Q434.2 407.4 431.2 411.15Q414.2 432.4 386.45 432.15Q345.8 431.8 334.15 393.15Q316.95 336.05 318.3 275.5Q319.5 218.85 333.15 164.25Q340.05 136.65 360 117.6M218.45,137.65Q194.85 188.55 193.9 245.25L193.8 254.3L256.45 248.5Q260.95 255.2 257.75 262.75L257.45 263.5Q225.85 266.95 193.7 266.8Q193.5 300.65 194.5 334.5Q195.8 380.35 216.35 419.85Q218.05 423.15 221.8 425.1Q254.35 441.75 283.05 421.9Q299.55 410.45 309.95 394.2Q320.1 407.75 306.35 423Q291.65 439.25 271.25 447.15Q254.75 453.55 237.5 449Q198.1 438.6 194.05 396.4Q192.55 381.25 190.7 366.15Q183.3 307.25 187 247.6Q189.3 211.2 197.55 176Q206.35 138.75 227.6 107.1Q239.4 89.55 259.95 84.75Q288.5 81.85 300.05 104.2Q301.2 106.5 300.2 108.75L299.85 109.35Q298.95 110.1 297.9 110.35L296.7 110.25Q267.9 88.05 238.6 111.65Q225.65 122.1 218.45 137.65M93.85,73.45L100.95 71Q146.75 69.65 162.7 108.85Q185.8 165.7 168.75 224.3Q160.25 253.45 134.55 270.25Q110.15 286.25 84 273.5Q81.7 329.85 81.45 386.7Q81.35 415.25 77 442.2Q74.35 442.75 72.75 440.2L75.85 321.75Q77.4 262.35 79.95 203.2L84.85 83.95Q85.1 77.5 89.5 74.75L89.7 76.1Q91.2 74.35 93.85 73.45M138.35,93.8Q115.35 81.25 91.1 88.35Q92.25 103.3 90.55 119.15Q89 134 88.55 149Q86.95 203.45 84.7 257.8Q125.95 270.5 153.45 234.6Q172.6 209.55 171.1 177.25Q169.05 132.8 143.1 97.85Q141.25 95.4 138.35 93.8" />
</g>
</svg>
