<?xml version="1.0" encoding="utf-8"?>
<svg version="1.1" id="Layer_1"
xmlns="http://www.w3.org/2000/svg"
xmlns:xlink="http://www.w3.org/1999/xlink"


xml:space="preserve">
q-3.2 15.8 -2.85 31.8q-1.05 3.65 -0.85 7.5q0.15 2.7 1.35 4.75q0.9 35.3 -4.8 69.5q-1.4 7.45 3.2 13q11.65 3.25 25.4 1.5q14.6 -2.85 25.75 -12.35q2.45 -2.15 4.2 -4.95q19.3 -30.6 9 -66.9q-4.15 -14.55 -18 -20.75q6.25 -8.6 8.4 -19q3.05 -19.75 -5.75 -37.65q-1.75 -3.6 -4.6 -6.65q-18 -19.35 -44.05 -13.55q-11.5 19.75 -34.35 22.95q22.3 1.35 38.4 16.15q17 15.6 5 36.15q15.75 -2.3 26.25 -9.15q4.3 1.1 9.05 0.95q17.45 11.1 17.45 33.5q0 11 -5.55 20.2q-19.15 31.65 -57.5 23.65q3.15 -24.6 3.45 -50.1q3.35 0.6 6.7 0.1q-1.25 2.05 -2.05 4.45q-1.2 2.1 -1.05 4.6q-0.65 3.45 -0.6 7.4q0.3 28.55 -1.55 56.95q-1.2 2.1 -1.2 4.7q0 1.85 0.75 3.15q-2.65 48.05 -3 95.85q1.45 1.65 1.75 -0.15q5.55 -35.8 7.95 -73.25q17.35 7.9 35.35 -6.55q12.05 -9.7 16.7 -24.3q3.85 -12.05 2.8 -24.55q-3.4 -39.7 -42 -43.35q-4.7 -0.45 -9.55 0.65q-2.05 0.45 -3.95 1.15q-8 20 -6.45 41.45q1.5 20.6 13.5 37.35q18.7 3.45 32.4 -9.85q8.2 -8.05 3.1 -18.4q-12 12.55 -29.1 12.4q-3.95 -0.05 -7.65 -0.9q2.3 -3 2.05 -6.75q-0.15 -2.8 -1.6 -5.2q-15.95 -3.2 -31.25 0.6q0.45 -23.5 21.25 -28.8q8.2 -2.1 15.45 1.9q3.1 -2.35 1.4 -6.55q-1.2 -2.8 -3.25 -4.95q-2.25 -2.4 -5.4 -3.1q-21.2 -3.35 -30.65 20.35q1 8.2 2.45 16.4q-7.4 20.35 -28.05 28.3q-9.95 3.9 -20.55 2.1q18.85 -1.65 34.9 8.3q10.35 6.45 11.9 19.65<g id="474" transform="matrix(1, 0, 0, 1, -135.5, 0)">
<path style="fill:#000000;fill-opacity:1" d="M345.05,181.8Q371.1 176 389.1 195.35Q391.95 198.4 393.7 202Q402.5 219.9 399.45 239.65L398.7 243.8Q396.55 254.2 390.3 262.8Q404.15 269 408.3 283.55Q418.6 319.85 399.3 350.45Q397.55 353.25 395.1 355.4Q383.95 364.9 369.35 367.75L363.85 368.7Q350.1 370.45 338.45 367.2Q333.85 361.65 335.25 354.2L336.1 349.4Q341.8 315.2 340.9 279.9L340.25 279Q339.05 276.95 338.9 274.25Q338.7 270.4 339.75 266.75L340.05 266.25L341.1 266.15L341.05 254.4L340.45 219Q340.1 203 343.3 187.2L344.3 182.05L345.05 181.8M384.1,206.95Q368 192.15 345.7 190.8L346.75 266.45L354.75 266.05Q377.6 262.85 389.1 243.1Q401.1 222.55 384.1 206.95M346.7,281.8L346.55 300.95Q346.25 326.45 343.1 351.05Q381.45 359.05 400.6 327.4Q406.15 318.2 406.15 307.2Q406.15 284.8 388.7 273.7Q383.95 273.85 379.65 272.75Q369.15 279.6 353.4 281.9Q350.05 282.4 346.7 281.8M149.45,182.4Q154.3 181.3 159 181.75Q197.6 185.4 201 225.1Q202.05 237.6 198.2 249.65Q193.55 264.25 181.5 273.95Q163.5 288.4 146.15 280.5L145.2 297.8Q142.8 335.25 137.25 371.05Q136.95 372.85 135.5 371.2Q135.85 323.4 138.5 275.35Q137.75 274.05 137.75 272.2Q137.75 269.6 138.95 267.5L139.8 253.45Q141.65 225.05 141.35 196.5Q141.3 192.55 141.95 189.1Q141.8 186.6 143 184.5L143.2 184.45Q144 182.05 145.25 180L145.5 183.55Q147.4 182.85 149.45 182.4M278.05,269.05Q281.2 269.75 283.45 272.15Q285.5 274.3 286.7 277.1Q288.4 281.3 285.3 283.65Q278.05 279.65 269.85 281.75Q249.05 287.05 248.6 310.55Q263.9 306.75 279.85 309.95L280.15 310.25Q281.6 312.65 281.75 315.45Q282 319.2 279.7 322.2L247.8 322.5L253.2 351.45Q256.9 352.3 260.85 352.35Q277.95 352.5 289.95 339.95Q295.05 350.3 286.85 358.35Q273.15 371.65 254.45 368.2Q242.45 351.45 240.95 330.85Q239.4 309.4 247.4 289.4Q256.85 265.7 278.05 269.05M180.9,201.45Q164.85 191.5 146 193.15L146.65 267.9Q157.25 269.7 167.2 265.8Q187.85 257.85 195.25 237.5Q193.8 229.3 192.8 221.1Q191.25 207.9 180.9 201.45" />
</g>
</svg>
