<?xml version="1.0" encoding="utf-8"?>
<svg version="1.1" id="Layer_1"
xmlns="http://www.w3.org/2000/svg"
xmlns:xlink="http://www.w3.org/1999/xlink"


xml:space="preserve">
q6.8 -1.45 14.9 0.7q9.2 2.5 14.85 8.65q6.75 7.4 6.75 18.6q0 9.3 -5.45 16.25q-4.6 5.85 -12.4 8.5q5.15 7.85 12.7 20.3q18.15 29.9 18.15 35.2q0 1.7 -0.35 2.55q-3.25 -3.8 -3.25 -6.5q-3.7 -6.9 -12.05 -20.1q-5.35 1.25 -11.95 1.25q-3.5 35.4 -4.7 39.45q-0.25 -0.8 -0.25 -2.6q0 -11.9 2.4 -29.6q-0.2 -0.5 -0.2 -2.15q0 -1.7 0.35 -2.55q-0.65 -2.4 -1.1 -5.5q-0.15 -0.45 -0.15 -2q0 -2.1 2 -3.45q0 -2.45 0.25 -2.6q0 1.6 -6.5 3.9q-7.05 2.5 -13.75 2.5q-0.25 -0.5 -0.25 -3q0 -2.05 0.15 -2.4q0.4 -1 2.3 -1.55q3.55 -1.05 22.55 -2.55q-16.8 0 -23.9 9.25q-2.25 2.9 -3.2 6.4q-0.5 1.75 -0.55 2.95q0 2.3 4.8 5.65q4.6 3.25 7.2 3.25q7.2 0 13.65 -3.75q1.8 -1.15 2.55 -1.15q-1.45 3.85 -7.75 8.15q-5.9 4 -8.75 4q-11.5 0 -17.45 -7.25q-1.85 -2.3 -2.95 -5.05q-0.7 -1.85 -0.7 -2.45q0 -2.35 1.7 -7.5q2.3 -6.7 5.8 -11.25q10.65 -13.75 27.6 -2q-8.85 -8.8 -25 -8.8q-27.4 0 -36.85 25.75q-4.25 11.5 -4.25 28.85q0 32.2 25.25 80.55q17.3 33.25 49.5 78.7q23.35 33 38.35 77.25q15.25 44.85 15.25 81.75q0 10 -10.25 45.15q-8.95 30.6 -12.25 38.1q-6.75 15.75 -24.1 41.25q-7.85 11.4 -31.05 25.4q-24.25 14.6 -37.7 14.6q-36.15 0 -54.7 -25.7q-14.8 -20.5 -14.8 -49.55q0 -1.25 1 -4.1q1 -2.9 1 -4.15q0 -1.45 -0.8 -2.6q5.1 7.2 5.25 19.2q0.3 5.45 1.7 9.5q3.2 9.15 17.75 21.9q15.8 13.85 26.5 13.85q32.55 0 59.1 -17.85q22.65 -15.25 39.5 -42.35q14.1 -22.7 22.1 -50q6.9 -23.5 6.9 -40.8q0 -43.3 -19.85 -87.85q-12.5 -28.1 -43.7 -75.75q-16.9 -25.9 -23.35 -36.35q-12.45 -20.35 -20.35 -36.9q-19.85 -41.7 -19.85 -80.25q0 -21.25 4.25 -35.25q9.35 -30.75 36.25 -30.75q21.7 0 31.75 9.75q6.5 6.35 6.5 13.85q-0.3 1.5 -1.2 3.1q-2.2 -3.8 -4.85 -6.45q0.5 0.75 0.5 2.45q0 3.15 -30.45 57.45q-0.75 -0.4 -1 -1q-0.25 -0.65 -0.25 -2.5q0 -3.95 17.3 -33.9q3.85 -6.9 8.8 -17.55q5.5 -12.1 8.35 -18.05q10.4 -21.75 20.6 -33.65q0.9 0.2 1.25 0.8q0.2 0.35 -1.35 0.35q-1.05 0 -9.2 -8.9q-7.25 -6.6 -9.6 -11.3q11.6 2.75 28.3 20.65q6.05 6.4 10.7 12.7q4.25 5.7 4.25 6.9q0 2.5 -0.25 2.25q9.95 21.8 28.15 83.6q9.45 32.2 13.65 48.15q0.3 -7.45 1.05 -15.95q4.35 -42.35 4.35 -82.9q0 -1.55 0.15 -1.7q1.5 1.6 2.35 5.4q0.65 2.95 0.65 5.35q0 27.9 -3.55 68.65q-0.45 0.45 -1.05 0.6q-0.2 -1.75 -0.25 -5.1q-6.3 -22 -9.9 -36.9q-2.7 -11.15 -13.85 -42.9q-7.55 -21.35 -9.45 -27.85q0 24.55 -6.05 59.6q-3.1 17.65 -4.7 30.6q-2.25 -2.25 -2.25 -6q8.45 -53 10.55 -70.45q2.95 -24.55 2.95 -61.8q0 -6.75 0.25 -10q-4.2 -4.05 -7.15 -4.05q-12.85 0 -22.5 23.05q-1.25 3 -2.35 6.25q-3.85 5.3 -11.6 6.2q-7.2 -0.05 -7.65 0.05q-1.8 6.8 -1.8 8.4q0 4.8 2 9.8q2.85 7.2 8.35 7.2q31.6 0 43.9 -20.5q0 2.15 -1.9 5.85q-2.4 4.8 -6.55 8.8q-12 11.45 -33.05 11.45q-11.1 0 -14.75 -11.75q-1.5 -4.85 -1.5 -13.1q0 -5.8 1.5 -12.45q-0.25 -0.8 -0.25 -2.3q0 -1.55 0.15 -2.5q0.75 -2.65 1.75 -5.35q4.7 -12.9 11.55 -21.45q7.55 -9.4 14.5 -9.2q8 0.2 13.5 13.5q0 12.9 -2 32.3q1.8 0 7.25 -1.4q6.7 -1.05 16 0.4q1.35 0 1.45 0.3q0.15 0.45 1.05 0.7q0 2.75 -2.25 3.8q-4.35 2 -17 0.3q-6.45 0 -15.8 1.45q-6 0.95 -10.7 2.05q-0.75 -2.25 -0.75 -5.25q3.75 -24.9 3.75 -47.45q0 -1.7 0.65 -2.45q0.4 -0.55 1.35 -0.8q1 2 1 5.65q0 1.35 -9.15 16.75q-9.25 15.55 -14.1 22.25q-4 -6 -7.25 -16.65q-3.45 -12.4 -5.75 -18.85q0.25 -0.75 1 -1.5q4.95 6.55 7.75 14.2q1.95 5.3 4 14.8q4.15 -4.5 11.1 -17.95q6.45 -12.5 11.4 -16.8q-23.95 -7 -38 23.1q-4.35 9.35 -7.1 20.95q0.3 0.75 0.3 2.35q0 1.8 -0.55 2.7q-0.5 0.75 -1.7 1.15q-1.1 5.9 -1.1 9.25q0 11.7 3.3 21.8q6.25 19.2 21.95 19.2q27.7 0 39.65 -8.85q8.1 -5.95 8.35 -15.4q-0.1 -0.4 1.4 -0.4q2.5 0 3.15 2.25q0 1.65 -2.75 5.7q-3.3 4.9 -8.2 9.15q-14.2 12.25 -33.3 12.25q-25.35 0 -33.25 -23.45q-2.55 -7.5 -3 -16.75q0 -6.2 0.7 -12.45q-0.45 -0.7 -0.45 -1.3q0 -1.6 0.15 -2.1q2.35 -12.3 6.9 -21.7q6.5 -13.8 18.75 -19.25q18.1 -8 33.5 -2.75q5.85 2 9.6 5.45q3.4 3.1 3.4 5.7q0 2.5 -0.25 2.6q-3.95 -4.05 -6.1 -5.2q-5.1 -2.7 -16.65 -4.3q2.35 3.9 2.85 9q0 5.3 -0.7 11.4q-0.75 6.7 -2.05 11.6q-1.25 -0.4 -1.7 -1q-0.55 -0.75 -0.55 -2.5q0 -1.3 1.5 -8.95q0 -2.95 -0.85 -9.3q-0.9 -6.3 -0.9 -7.2q0 -2.25 0.25 -4q13.3 32 13.3 35.2q-6.8 -12.95 -16.85 -37.5q-6.05 17.75 -14.1 28.5q-0.3 -0.7 -0.3 -2.35q0 -1.6 5.65 -14.05q6.75 -15 9.1 -22.05q2 -6.05 4.75 -18.35q2.9 -10.55 7.75 -16.4q6.05 10.8 17.45 37.6q0.2 0.5 0.2 2.15q0 1.45 -0.2 1.8q-0.3 0.75 -1.75 1.15q0 4.8 2.3 7.9q2.3 3.1 6.8 4.1q8.15 0 13.2 -3.2q1.95 -1.45 3.5 -2q0 3.65 -6.45 7.4q-6.1 3.5 -10.8 3.5q10.4 61.8 17.8 101.7q11.2 60.4 22.35 108.4q4.05 17.5 13 54.4q7.6 32.6 11 54.35q0.9 5.8 13.25 55.45q11.5 46.25 11.5 52.2q0 3.85 -2.25 6.85q-15.7 -42.7 -31.3 -118.45q-3.95 -19.15 -10.95 -56q-5.8 -30.55 -8.25 -41.3q-4.05 3.55 -12.7 8.6q-7.3 4.15 -10.1 6.25q-9.5 7.15 -38.75 24q-14.65 46.9 -32.05 93.9q-19.25 51.95 -36.8 90.25q-1.65 -1.45 -3.65 -5.75q-1.85 -4 -1.85 -5.25q38.9 -89.4 65.25 -172.45q-1 -1 -1 -3.8q0 -0.4 2.9 -2.2q5.2 -16.65 9.9 -33.05q29.55 -103.1 38.55 -194.2q-0.85 -6.15 -0.85 -8.4q0 -1.9 0.3 -3.6q-5 -1.85 -7 -5.9q-1.3 -2.5 -1.4 -6q0 -9.45 0.65 -11.2q1.25 -3.55 9.35 -12.05q12.4 1.4 16.05 3.5q1.95 1.15 1.95 3.85q0 1.65 -0.3 2.35q-1.4 -0.95 -4.85 -2.5q-3.9 -1.75 -5.15 -1.75q-5.5 6 -6.7 8q4.85 -1.4 22 -2.5q-8.15 -19.65 -12.6 -28.8q-2.7 6.45 -5.7 16.3q0 4.35 -0.75 14.4q0 -1.6 0.3 -2.1q1.3 1.2 3.65 4.35q9.7 -2.4 14.45 -5.2q6.65 -3.9 6.65 -11.3q0 -6.2 -4.95 -13.1q-6.45 -9 -16.8 -9q-1.5 16.3 -1.5 19.1q-0.9 -1.35 -0.9 -2.95q0 -9.3 1.65 -21.95q1.8 -13.9 4.1 -18.55q1 2.25 1 8.25q3.6 6.35 8.95 17.7q7.45 13.8 11.05 34.8q2.95 17.05 2.95 35.7q0 9.05 -3.25 20.45q-4.3 14.95 -12.8 27.25q-23.75 34.35 -72.2 37.9q0 12 -3.5 83.1q-3.65 73.15 -5.5 95q-0.3 1.95 -0.25 6.25q-0.3 3.9 -3 6.25q-0.95 -1.3 -1.7 -5.1q-0.55 -3 -0.55 -4.4q0 -5.25 1 -8.25q1.85 -19.75 5.5 -91.6q3.5 -69.45 3.5 -81.25q-0.4 -13.45 -1.9 -20.2q0.5 -2.3 0.8 -6.15q0 -9 -1 -13.5q-0.9 -3.35 -2 -18.2q-1 -13 -1 -16.3q0 -2.2 0.55 -4.4q0.65 -2.6 1.7 -3.1q59.45 4.5 84.9 26.15q9 7.65 15.4 18.9q-0.2 13.05 2 19.1q0.4 7.45 0.45 19.25q53.3 -7.2 72.85 -37.7q11.15 -17.45 11.15 -45.8q0 -55.9 -39.95 -85.7q-16.55 -12.3 -38.6 -18.9q-19 -5.7 -39.6 -6.45q0 4.65 -5.6 41.4q-6.3 41.35 -10.65 57.45q4.3 -0.45 15.2 -0.15q0.3 0.75 0.3 2.35q0 1.6 -0.35 2.4q-1.45 0.25 -2.35 0.85q-0.75 -0.9 -1 -2.05q-0.25 -1 -0.25 -2.95q0 -7.5 12 -55.5q0.5 -4.5 1 -13.85q0.5 -9.3 1 -13.75q0 -6.9 1.35 -14.15q1.6 -8.6 4.15 -11.35q1 2 1 5.25q0 4.5 -2.5 30.75q-2.95 30.25 -5.25 40.85q-1 -3 -1 -7.5q0 -5.1 2.15 -17q2.1 -11.9 2.1 -19.75q1.1 -11.55 2.95 -17q1 2.25 1 7.9q13.4 -7.75 19.95 -11.4q-7.35 -34.9 -18.35 -92.55q-9.3 -48.7 -13.35 -73.2q-4.4 77 -41.25 200.5q-0.5 8.95 -0.5 13.8q-1.75 -5.55 -0.45 -18.9q1.15 -12.3 -2.05 -19.1q3 -1.5 3.75 -1.5q0.75 4.5 0.75 15q-0.4 -0.8 -0.4 -2.45q0 -22 5 -61.7q5 -35.7 5 -37.7q0 -1.2 -0.95 -5q-1.05 -0.95 -1.05 -1.35q0 -1.3 0.25 -2.2q3.3 -1.25 11.95 -0.95q8.4 1.7 12.9 12.55q3.1 7.6 3.1 14.35q0 2.15 -1.1 6.2q-1.4 5.4 -3.9 9.9q-4.45 8.15 -11.1 11.3q4.65 8 13.15 25.55q13.95 28.8 13.95 35.3q-9.85 -19.8 -16.95 -34.65q-9.85 -20.7 -12.55 -29.05q-1.85 8.25 -1.85 24.8q0.05 16.4 -1.9 24.7q-12.5 -4.1 -19.35 4.35q-1.95 2.45 -3.1 5.1q0.6 -1.05 4.55 -0.65q0 2.2 -0.7 3.1q-0.95 1.25 -3.55 1.25q-0.2 -0.4 -0.25 -2.25q-0.5 2.25 -0.5 4.65q0 3.05 2.5 6.35q3.4 4.5 9.25 4.5q9.6 0 15.85 -3q3.25 -1.55 5.4 -3.5q-0.5 2.35 -1.75 4.25q-3.9 6 -14.5 6q-14.05 0 -17.95 -8.2q-1.3 -2.65 -1.4 -6.1q0 -21.6 13.65 -25q4.8 -1.2 9.35 0.45q4.25 1.55 4.25 3.8q0 3.9 -2.5 24.45q11.55 0.25 19.85 -8.4q3.45 -3.5 5.5 -7.75q1.8 -3.8 1.8 -6.45q0 -1.7 -1.4 -5.5q-1.75 -4.75 -4.35 -8.3q-7.5 -10.05 -18.2 -5.55q0.45 3.6 0.45 8.1<g id="501" transform="matrix(1, 0, 0, 1, 1.75, 6)">
<path style="fill:#000000;fill-opacity:1" d="M161.25,-1.75L161.65 0.15L163.75 -0.45Q170.55 -1.9 178.65 0.25Q187.85 2.75 193.5 8.9Q200.25 16.3 200.25 27.5Q200.25 36.8 194.8 43.75Q190.2 49.6 182.4 52.25Q187.55 60.1 195.1 72.55Q213.25 102.45 213.25 107.75Q213.25 109.45 212.9 110.3L212 111.5Q208.75 107.7 208.75 105L201.15 91.4L191.25 73.75Q187.55 66.85 179.2 53.65L178.95 53.25Q173.6 54.5 167 54.5L161.9 54.4L159.7 77.8Q156.2 113.2 155 117.25L154 115.6Q153.75 114.8 153.75 113Q153.75 101.1 156.15 83.4L160.3 54.35L157.5 54.25L156.95 53.4Q156.75 52.9 156.75 51.25Q156.75 49.55 157.1 48.7L158 47.5L160.75 47.05L160.75 12.75Q160.1 10.35 159.65 7.25L157.5 7.5L157.15 6.85Q157 6.4 157 4.85Q157 2.75 159 1.4L159 1.1Q159 -1.35 159.25 -1.5L161.25 -1.75M537.85,15.75L538.1 18.1Q538.1 19.7 531.6 22Q524.55 24.5 517.85 24.5L514.4 24.4L512.85 24.25Q512.6 23.75 512.6 21.25Q512.6 19.2 512.75 18.85Q513.15 17.85 515.05 17.3Q518.6 16.25 537.6 14.75L537.85 15.75M537.5,7Q520.7 7 513.6 16.25Q511.35 19.15 510.4 22.65Q509.9 24.4 509.85 25.6Q509.85 27.9 514.65 31.25Q519.25 34.5 521.85 34.5Q529.05 34.5 535.5 30.75L539.55 28.15Q541.35 27 542.1 27L543.85 27.25L544.35 29.1Q542.9 32.95 536.6 37.25Q530.7 41.25 527.85 41.25Q516.35 41.25 510.4 34Q508.55 31.7 507.45 28.95Q506.75 27.1 506.75 26.5Q506.75 24.15 508.45 19Q510.75 12.3 514.25 7.75Q524.9 -6 541.85 5.75L539.25 6.6L537.5 7M487.1,16.3Q478.25 7.5 462.1 7.5Q434.7 7.5 425.25 33.25Q421 44.75 421 62.1Q421 94.3 446.25 142.65Q463.55 175.9 495.75 221.35Q519.1 254.35 534.1 298.6Q549.35 343.45 549.35 380.35Q549.35 390.35 539.1 425.5Q530.15 456.1 526.85 463.6Q520.1 479.35 502.75 504.85Q494.9 516.25 471.7 530.25Q447.45 544.85 434 544.85Q397.85 544.85 379.3 519.15Q364.5 498.65 364.5 469.6Q364.5 468.35 365.5 465.5Q366.5 462.6 366.5 461.35Q366.5 459.9 365.7 458.75L364.5 456.85L365.25 456.6Q370.35 463.8 370.5 475.8L370.55 485.35Q370.85 490.8 372.25 494.85Q375.45 504 390 516.75Q405.8 530.6 416.5 530.6Q449.05 530.6 475.6 512.75Q498.25 497.5 515.1 470.4Q529.2 447.7 537.2 420.4Q544.1 396.9 544.1 379.6Q544.1 336.3 524.25 291.75Q511.75 263.65 480.55 216Q463.65 190.1 457.2 179.65Q444.75 159.3 436.85 142.75Q417 101.05 417 62.5Q417 41.25 421.25 27.25Q430.6 -3.5 457.5 -3.5Q479.2 -3.5 489.25 6.25Q495.75 12.6 495.75 20.1L495.45 23.4Q495.15 24.9 494.25 26.5L491.95 22.75Q489.75 18.95 487.1 16.3M369.5,35.55Q370 36.3 370 38Q370 41.15 339.55 95.45L293 177.85Q292.25 177.45 292 176.85Q291.75 176.2 291.75 174.35Q291.75 170.4 309.05 140.45L330.5 104Q334.35 97.1 339.3 86.45Q344.8 74.35 347.65 68.4Q358.05 46.65 368.25 34.75Q369.15 34.95 369.5 35.55M341,78.25L341.35 78.65Q341.55 79 340 79Q338.95 79 330.8 70.1L318.75 57L307.6 47.05Q300.35 40.45 298 35.75Q309.6 38.5 326.3 56.4Q332.35 62.8 337 69.1Q341.25 74.8 341.25 76Q341.25 78.5 341 78.25M348.25,176.1Q358.2 197.9 376.4 259.7Q385.85 291.9 390.05 307.85Q390.35 300.4 391.1 291.9L394.15 262.75Q398.5 220.4 398.5 179.85Q398.5 178.3 398.65 178.15L399 178.1Q400.5 179.7 401.35 183.5Q402 186.45 402 188.85Q402 216.75 398.45 257.5L392.85 319.7L393.25 322.75L393.2 324.8L393 326.1L392.55 326.5Q392.1 326.95 391.5 327.1L391.25 326.1L390 326.1Q389.8 324.35 389.75 321L380.9 289.75Q374.6 267.75 371 252.85Q368.3 241.7 357.15 209.95Q349.6 188.6 347.7 182.1L349.25 207.25Q349.25 231.8 343.2 266.85L337.95 296.25Q334.85 313.9 333.25 326.85Q331 324.6 331 320.85L331.25 317.85L331.5 315.6L332.25 315.6L332.5 318.35Q340.95 265.35 343.05 247.9Q346 223.35 346 186.1Q346 179.35 346.25 176.1L348.25 176.1M452.6,225.8L452 226.6L448.15 222.4Q443.95 218.35 441 218.35Q428.15 218.35 418.5 241.4Q417.25 244.4 416.15 247.65L432.4 246.35L449.75 244.85L450.25 247.85Q446.4 253.15 438.65 254.05Q431.45 254 431 254.1L414.05 254.1L413.05 257.7Q411.25 264.5 411.25 266.1Q411.25 270.9 413.25 275.9Q416.1 283.1 421.6 283.1Q453.2 283.1 465.5 262.6L466.25 262.6L466.45 262.9L466.5 264.5Q466.5 266.65 464.6 270.35Q462.2 275.15 458.05 279.15Q446.05 290.6 425 290.6Q413.9 290.6 410.25 278.85Q408.75 274 408.75 265.75Q408.75 259.95 410.25 253.3Q410 252.5 410 251Q410 249.45 410.15 248.5L410.25 247.85L411.7 247.85Q412.45 245.2 413.45 242.5Q418.15 229.6 425 221.05Q432.55 211.65 439.5 211.85Q447.5 212.05 453 225.35L452.6 225.8M352.25,325.25Q352.25 338.15 350.25 357.55L346.75 389.35L346.75 389.85Q348.55 389.85 354 388.45Q360.7 387.4 370 388.85L381.3 388L385.25 387.35Q386.6 387.35 386.7 387.65Q386.85 388.1 387.75 388.35L388 389.4L388.25 391.75Q388.25 394.5 386 395.55Q381.65 397.55 369 395.85Q362.55 395.85 353.2 397.3Q347.2 398.25 342.5 399.35Q341.75 397.1 341.75 394.1L345.5 370.3Q349.25 345.4 349.25 322.85Q349.25 321.15 349.9 320.4Q350.3 319.85 351.25 319.6Q352.25 321.6 352.25 325.25M405.95,393.55L406.25 396.1Q406.25 397.45 397.1 412.85Q387.85 428.4 383 435.1Q379 429.1 375.75 418.45Q372.3 406.05 370 399.6Q370.25 398.85 371 398.1Q375.95 404.65 378.75 412.3Q380.7 417.6 382.75 427.1Q386.9 422.6 393.85 409.15Q400.3 396.65 405.25 392.35L405.95 393.55M469,363.35Q445.05 356.35 431 386.45Q426.65 395.8 423.9 407.4L428.5 407.85L443 408.6L452.65 408.8L461 409.35L464.75 409.2L469.25 408.85L469.95 409.9Q470.25 410.65 470.25 412.25Q470.25 414.05 469.7 414.95Q469.2 415.7 468 416.1L464.2 415.9L460 415.35L437.7 415.55L422.5 414.85L422.35 414.6Q421.25 420.5 421.25 423.85Q421.25 435.55 424.55 445.65Q430.8 464.85 446.5 464.85Q474.2 464.85 486.15 456Q494.25 450.05 494.5 440.6L494.45 440.25Q494.35 439.85 495.85 439.85Q498.35 439.85 499 442.1L499.25 445.5Q499.25 447.15 496.5 451.2Q493.2 456.1 488.3 460.35Q474.1 472.6 455 472.6Q429.65 472.6 421.75 449.15Q419.2 441.65 418.75 432.4L418.75 423.6Q418.75 417.4 419.45 411.15Q419 410.45 419 409.85Q419 408.25 419.15 407.75L419.5 407.1L419.95 407.1L420.85 401.8Q423.2 389.5 427.75 380.1Q434.25 366.3 446.5 360.85Q464.6 352.85 480 358.1Q485.85 360.1 489.6 363.55Q493 366.65 493 369.25Q493 371.75 492.75 371.85L492.35 372.25L491.75 372.85Q487.8 368.8 485.65 367.65Q480.55 364.95 469 363.35M319.25,1.25Q321.6 5.15 322.1 10.25L322.25 19.25Q322.25 24.55 321.55 30.65Q320.8 37.35 319.5 42.25L319 42.5Q317.75 42.1 317.3 41.5Q316.75 40.75 316.75 39Q316.75 37.7 318.25 30.05L319.75 21.75Q319.75 18.8 318.9 12.45Q318 6.15 318 5.25Q318 3 318.25 1.25L319.25 1.25M254.95,34L255.15 34.7L257.95 41.4Q271.25 73.4 271.25 76.6L270.95 78.95L270.25 80Q263.45 67.05 253.4 42.5L252.5 40.3L232.05 41.7L227 43L225.1 41.5Q219.05 59.25 211 70L210.3 69.2Q210 68.5 210 66.85Q210 65.25 215.65 52.8Q222.4 37.8 224.75 30.75Q226.75 24.7 229.5 12.4Q232.4 1.85 237.25 -4Q243.3 6.8 254.7 33.6L254.95 34M243.8,83.1Q244 83.6 244 85.25Q244 86.7 243.8 87.05Q243.5 87.8 242.05 88.2L226 89.75L215.05 90.45L215 91.35Q215 96.15 217.3 99.25Q219.6 102.35 224.1 103.35L224.25 103.25L224.3 103.35L228.5 103.75Q236.65 103.75 241.7 100.55L245.25 98Q247.2 96.55 248.75 96L249 97L249.25 99.35Q249.25 103 242.8 106.75Q236.7 110.25 232 110.25L225.35 109.75Q235.75 171.55 243.15 211.45Q254.35 271.85 265.5 319.85Q269.55 337.35 278.5 374.25Q286.1 406.85 289.5 428.6Q290.4 434.4 302.75 484.05Q314.25 530.3 314.25 536.25Q314.25 540.1 312 543.1Q296.3 500.4 280.7 424.65Q276.75 405.5 269.75 368.65Q263.95 338.1 261.5 327.35L257.7 310.1Q253.65 313.65 245 318.7L231.85 326.1Q224.55 330.25 221.75 332.35Q212.25 339.5 183 356.35L176.85 355.95Q162.2 402.85 144.8 449.85Q125.55 501.8 108 540.1Q106.35 538.65 104.35 534.35Q102.5 530.35 102.5 529.1L102.9 525.25L103.5 521.6L104.25 521.6L104.75 525.35L105.2 525.75L106.25 526.35Q145.15 436.95 171.5 353.9Q170.5 352.9 170.5 350.1Q170.5 349.7 173.4 347.9Q178.6 331.25 183.3 314.85Q212.85 211.75 221.85 120.65Q221 114.5 221 112.25Q221 110.35 221.3 108.65Q216.3 106.8 214.3 102.75Q213 100.25 212.9 96.75L213 92.25Q213 82.8 213.65 81.05Q214.9 77.5 223 69Q235.4 70.4 239.05 72.5Q241 73.65 241 76.35Q241 78 240.7 78.7L240 79.5Q238.6 78.55 235.15 77Q231.25 75.25 230 75.25L223.5 75.5Q218 81.5 216.8 83.5L216.3 84.45L227 83.25L237 82.4L243.25 82.25L243.8 83.1M231.3,20.8L226.8 36.1L227.6 35.8Q232.45 34.4 249.6 33.3Q241.45 13.65 237 4.5Q234.3 10.95 231.3 20.8M162.6,6.85L163.15 15.55L163.25 32.35Q163.25 36.7 162.5 46.75L173.5 44.6L172 42Q172 40.4 172.3 39.9L173 39.5Q174.3 40.7 176.65 43.85Q186.35 41.45 191.1 38.65Q197.75 34.75 197.75 27.35Q197.75 21.15 192.8 14.25Q186.35 5.25 176 5.25L167.5 6.2L162.6 6.85M317.25,182.85L315.75 199.75Q314.25 216.05 314.25 218.85L313.8 219.3L313 220.1L311.4 218.05Q310.5 216.7 310.5 215.1Q310.5 205.8 312.15 193.15Q313.95 179.25 316.25 174.6Q317.25 176.85 317.25 182.85M125.3,47.8Q128.9 54.15 134.25 65.5Q141.7 79.3 145.3 100.3Q148.25 117.35 148.25 136Q148.25 145.05 145 156.45Q140.7 171.4 132.2 183.7Q108.45 218.05 60 221.6L28.65 221.35L28.65 222.4L28.25 244.25L30.25 309.5Q30.25 321.5 26.75 392.6Q23.1 465.75 21.25 487.6L21.25 531.1Q20.95 533.05 21 537.35Q20.7 541.25 18 543.6Q17.05 542.3 16.3 538.5Q15.75 535.5 15.75 534.1Q15.75 528.85 16.75 525.85L16.75 482.35Q18.6 462.6 22.25 390.75Q25.75 321.3 25.75 309.5L25.65 288.05Q25.25 274.6 23.75 267.85L23.75 221.35Q24.25 219.05 24.55 215.2L24.5 213.85L24.7 211.25L24.75 206.35Q24.75 197.35 23.75 192.85L23.75 87.25L24 86.5L24 42.25Q23.1 38.9 22 24.05Q21 11.05 21 7.75Q21 5.55 21.55 3.35Q22.2 0.75 23.25 0.25L24.35 3.4L25 2.75Q84.45 7.25 109.9 28.9Q118.9 36.55 125.3 47.8M26,19.4Q25.8 32.45 28 38.5L28 87.25L28.25 88L28.25 188.35Q28.65 195.8 28.7 207.6L29.25 207.85L60 207.6Q113.3 200.4 132.85 169.9Q144 152.45 144 124.1Q144 68.2 104.05 38.4Q87.5 26.1 65.45 19.5Q46.45 13.8 25.85 13.05L26 19.4M156.25,147Q156.25 151.65 150.65 188.4Q144.35 229.75 140 245.85L144.7 246.15L150 246.85Q154.3 246.4 165.2 246.7L177 247.1L183.25 247.35L183.95 248.4Q184.25 249.15 184.25 250.75Q184.25 252.35 183.9 253.15L183 254.6L176 255.6L164.45 254.8L149 253.85L139.35 254.5Q137.9 254.75 137 255.35Q136.25 254.45 136 253.3Q135.75 252.3 135.75 250.35Q135.75 242.85 147.75 194.85Q148.25 190.35 148.75 181Q149.25 171.7 149.75 167.25Q149.75 160.35 151.1 153.1Q152.7 144.5 155.25 141.75Q156.25 143.75 156.25 147M305.25,291.5Q305.25 296 302.75 322.25Q299.8 352.5 297.5 363.1L296.5 363.35Q295.5 360.35 295.5 355.85Q295.5 350.75 297.65 338.85Q299.75 326.95 299.75 319.1L301.3 300.6Q302.4 289.05 304.25 283.6Q305.25 285.85 305.25 291.5M235.9,312.8Q249.3 305.05 255.85 301.4Q248.5 266.5 237.5 208.85Q228.2 160.15 224.15 135.65Q219.75 212.65 182.9 336.15L180.6 343.75L185 341.35L210.25 327.6L235.9 312.8M316,480.1L315.5 489.55Q315 498.5 315 503.35L314.6 503.8L314 504.6Q312.25 499.05 313.55 485.7Q314.7 473.4 311.5 466.6Q314.5 465.1 315.25 465.1Q316 469.6 316 480.1M321.5,540.6L320.5 540.85L319.4 539.2Q319 538.4 319 536.75Q319 514.75 324 475.05Q329 439.35 329 437.35Q329 436.15 328.05 432.35Q327 431.4 327 431Q327 429.7 327.25 428.8L327 426.85L327.05 425.05L327.25 424.35L328.25 424.35L329.3 426.8Q332.6 425.55 341.25 425.85Q349.65 427.55 354.15 438.4Q357.25 446 357.25 452.75Q357.25 454.9 356.15 458.95Q354.75 464.35 352.25 468.85Q347.8 477 341.15 480.15Q345.8 488.15 354.3 505.7Q368.25 534.5 368.25 541L368.05 543.45L367.25 545.1Q357.4 525.3 350.3 510.45Q340.45 489.75 337.75 481.4L332 482.1L326.75 481.95L325.25 491.1Q323.4 499.35 323.4 515.9Q323.45 532.3 321.5 540.6M76,506.6L75.75 508.75L75.5 509.35Q63 505.25 56.15 513.7Q54.2 516.15 53.05 518.8L62.2 518.4L62.25 518.6L62.3 518.4L63.4 518.35L62.4 518.2Q63 517.15 66.95 517.55L73.75 518.6L74 519.65L74.25 522Q74.25 524.2 73.55 525.1Q72.6 526.35 70 526.35L62.3 525.8L52 524.85Q51.8 524.45 51.75 522.6Q51.25 524.85 51.25 527.25Q51.25 530.3 53.75 533.6Q57.15 538.1 63 538.1Q72.6 538.1 78.85 535.1Q82.1 533.55 84.25 531.6L84.5 532.75L84.25 535.1Q83.75 537.45 82.5 539.35Q78.6 545.35 68 545.35Q53.95 545.35 50.05 537.15Q48.75 534.5 48.65 531.05L48.75 527.35Q48.75 505.75 62.4 502.35Q67.2 501.15 71.75 502.8Q76 504.35 76 506.6M331.25,441.6Q331.25 445.5 328.75 466.05L327.6 475.45Q339.15 475.7 347.45 467.05Q350.9 463.55 352.95 459.3Q354.75 455.5 354.75 452.85Q354.75 451.15 353.35 447.35Q351.6 442.6 349 439.05Q341.5 429 330.8 433.5Q331.25 437.1 331.25 441.6" />
</g>
</svg>
