<?xml version="1.0" encoding="utf-8"?>
<svg version="1.1" id="Layer_1"
xmlns="http://www.w3.org/2000/svg"
xmlns:xlink="http://www.w3.org/1999/xlink"


xml:space="preserve">
q-16.45 -16.35 -38.95 -10.45q-21.25 5.8 -33.15 24.75q-11.45 18.2 -14.6 39.8q-2.85 19.6 -3.9 39.5q-1.05 20.8 1.65 41.45q2.85 22.15 21.55 33.85q17.7 11 39.1 5.2q18.85 -5.25 27.35 -22.95q-3.05 15.2 3.3 27.05q7.15 -34.25 4.55 -69.4q-1.85 1.15 -2.4 3.1q-0.45 1.7 -0.25 3.55q0.25 1.9 1.05 3.35q-5.05 26.1 -33.35 29.4q-12 1.3 -23.65 -2.65q-9.65 -3.1 -14.7 -11.85q-3.8 -6.65 -6 -13.85q-3.6 -11.8 -4.7 -24.15q-3.15 -35.25 9.65 -68.15q6.5 -16.75 20.55 -28q23.3 -18.75 49.85 -4.05q4.6 2.45 8.35 6.1q1.75 -4.2 0.05 -8.6q-1 -2.65 -2.95 -4.75q-6.35 46.25 -3.45 97.75q0.4 21.5 -1.65 43.05q-1.05 11.1 2.05 21.85q8.65 -42.45 7.8 -87.65q13.75 3.5 26.75 -1.7q3.8 -2 6.95 -4.9q4.15 -3.8 7.2 -8.4q8.5 -12.6 11.2 -27.55q2.55 -14.2 -0.7 -28.3q-0.9 -3.75 -2.65 -7.3q-7.1 -14.75 -21.9 -21.5q-13.6 -6.35 -27.25 -1.05q-17.45 -96.5 -44 -193.2q-15.2 12.25 -16.35 36.75q-1.05 21.45 -6.25 42.75q-5.25 21.25 -11.35 42.25q-5.55 19.3 -13.95 37.8q-6.55 14.55 -3.8 27.3q22.3 -39.5 30.4 -85.05q-7.3 21.95 -29.5 28.4q-8.65 2.55 -17.35 0.65q22.15 -5.95 38.85 9.2q17.2 15.5 9.65 38.25<g id="506" transform="matrix(1, 0, 0, 1, -140.9, 0)">
<path style="fill:#000000;fill-opacity:1" d="M414.5,196.4Q416.2 200.8 414.45 205Q410.7 201.35 406.1 198.9Q379.55 184.2 356.25 202.95Q342.2 214.2 335.7 230.95Q322.9 263.85 326.05 299.1Q327.15 311.45 330.75 323.25Q332.95 330.45 336.75 337.1Q341.8 345.85 351.45 348.95Q363.1 352.9 375.1 351.6Q403.4 348.3 408.45 322.2L412.8 327.4L414.2 313.95L387.85 313.7Q387.05 312.25 386.8 310.35Q386.6 308.5 387.05 306.8Q387.6 304.85 389.45 303.7L418.45 300.45Q421.05 335.6 413.9 369.85Q407.55 358 410.6 342.8Q402.1 360.5 383.25 365.75Q361.85 371.55 344.15 360.55Q325.45 348.85 322.6 326.7Q319.9 306.05 320.95 285.25Q322 265.35 324.85 245.75Q328 224.15 339.45 205.95Q351.35 187 372.6 181.2Q395.1 175.3 411.55 191.65Q413.5 193.75 414.5 196.4M150.25,182.25L154.4 180.4Q168.05 175.1 181.65 181.45Q196.45 188.2 203.55 202.95Q205.3 206.5 206.2 210.25Q209.45 224.35 206.9 238.55Q204.2 253.5 195.7 266.1Q192.65 270.7 188.5 274.5Q185.35 277.4 181.55 279.4L178.55 280.85Q165.55 286.05 151.8 282.55Q152.65 327.75 144 370.2Q140.9 359.45 141.95 348.35L144.45 321.85Q146.5 300.3 146.1 278.8L146.05 276.25Q143.15 224.75 149.5 178.5L150.25 182.25M245.15,282.3Q237.05 327.85 214.75 367.35Q212 354.6 218.55 340.05Q226.95 321.55 232.5 302.25Q238.6 281.25 243.85 260Q249.05 238.7 250.1 217.25Q251.25 192.75 266.45 180.5Q293 277.2 310.45 373.7L307.3 372.05L283.2 280.65L245.15 282.3M280.4,269.05L265.15 197.5L247.95 271.55L280.4 269.05M189.25,201.85Q172.55 186.7 150.4 192.65L152.05 269.15Q160.75 271.05 169.4 268.5Q191.6 262.05 198.9 240.1Q206.45 217.35 189.25 201.85" />
</g>
</svg>
