<?xml version="1.0" encoding="utf-8"?>
<svg version="1.1" id="Layer_1"
xmlns="http://www.w3.org/2000/svg"
xmlns:xlink="http://www.w3.org/1999/xlink"


xml:space="preserve">
q-1 -0.25 -1.25 0.75q-15.55 56.4 -27.3 114q-4.5 22.1 -12.35 42.95q-6.1 16.15 -0.35 29.5q5 -5.7 6.85 -13.75q13.2 -57.7 25.9 -115.45q4.1 -18.55 6.45 -36.75q8 36.25 11.6 73.3q1 10.3 4.05 18.65q0.45 6.5 3.4 11.95q1.85 -2.85 2.1 -6.15q13.25 -47.35 23.45 -94.95q10.3 56 18 112.7q4.1 30.3 14.1 57.45q2.8 -1.5 2.2 -4.9q-5.65 -34.45 -11 -69.25q-8.65 -56.55 -20 -111.85q-2.55 3.65 -2.8 8.6q-13.6 42.25 -26.85 85.5q-6.75 -47.95 -17.75 -94.75q4.75 42.55 12.7 85.15q-17.05 0.6 -34.3 4.1q7.75 -28.85 18.7 -56.4q6.35 -16 1.8 -28.65q-16.4 41.35 -28.15 85.8q-7.6 28.8 -18 56.3q-8.1 21.5 -6.05 42.6q1.25 0 1.35 -0.35q14.15 -41.25 26.1 -83.75q20.85 1.45 41 -0.35q5.65 28.65 8.8 57.65q1.85 16.95 10.5 28.05q1.15 -0.85 1.05 -2.2q-2.95 -34.1 -8.9 -68.45q-10.15 -58.35 -25.4 -114.55q-1.4 -0.25 -1.3 0.9q-1.85 2.1 -1.7 5q0.1 1.95 0.95 3.75q-5.4 31.75 -5.95 66q-2.15 3.3 -1.95 7.5q0.15 3.6 1.95 6.7q-0.3 46.1 0.95 92.15q2 1.3 2.3 -0.8q3.8 -24.95 3.85 -51.7q0.05 -18.85 0.45 -37.5q26.35 5.5 45.35 -17.45q6.4 -7.8 8.5 -17.4q11.3 -51.45 -36.7 -69.6q22.85 0.05 38.4 16.05q16.15 16.55 6.95 37.1q-9.35 21.05 -31.9 24.2q-7.15 0.7 -14.2 -0.3<g id="494" transform="matrix(1, 0, 0, 1, -136.35, 0)">
<path style="fill:#000000;fill-opacity:1" d="M333.2,183.25Q344.2 230.05 350.95 278Q364.2 234.75 377.8 192.5Q378.05 187.55 380.6 183.9L381.2 182L382.15 182.8L382.7 183.5L382.15 186.2Q393.5 241.5 402.15 298.05Q407.5 332.85 413.15 367.3Q413.75 370.7 410.95 372.2Q400.95 345.05 396.85 314.75Q389.15 258.05 378.85 202.05Q368.65 249.65 355.4 297L353.8 302.3Q353.55 305.6 351.7 308.45L351.7 308.4L350.7 310.95Q347.75 305.5 347.3 299Q344.25 290.65 343.25 280.35Q339.65 243.3 331.65 207.05L331.15 204.25Q328.8 222.45 324.7 241Q312 298.75 298.8 356.45Q296.95 364.5 291.95 370.2Q286.2 356.85 292.3 340.7Q300.15 319.85 304.65 297.75Q316.4 240.15 331.95 183.75Q332.2 182.75 333.2 183L333.2 183.25M244.45,184.75Q259.7 240.95 269.85 299.3Q275.8 333.65 278.75 367.75Q278.85 369.1 277.7 369.95Q269.05 358.85 267.2 341.9Q264.05 312.9 258.4 284.25L258.2 283.25Q238.05 285.05 217.2 283.6Q205.25 326.1 191.1 367.35Q191 367.7 189.75 367.7Q187.7 346.6 195.8 325.1Q206.2 297.6 213.8 268.8Q225.55 224.35 241.95 183Q246.5 195.65 240.15 211.65Q229.2 239.2 221.45 268.05L219.65 274.8Q236.9 271.3 253.95 270.7L255.85 270.8Q247.9 228.2 243.15 185.65Q243.05 184.5 244.45 184.75M147.3,181.15L163.5 180Q211.5 198.15 200.2 249.6Q198.1 259.2 191.7 267Q172.7 289.95 146.35 284.45Q145.95 303.1 145.9 321.95Q145.85 348.7 142.05 373.65Q141.75 375.75 139.75 374.45Q138.5 328.4 138.8 282.3L138.5 282.2Q136.7 279.1 136.55 275.5Q136.35 271.3 138.5 268L138.9 267.9L139.05 256.75Q139.6 222.5 145 190.75L143.75 190Q142.9 188.2 142.8 186.25Q142.65 183.35 144.5 181.25L146.8 181.2L147.25 178.75L147.3 181.15M160.9,269Q183.45 265.85 192.8 244.8Q202 224.25 185.85 207.7Q170.3 191.7 147.45 191.65L146.7 268.7Q153.75 269.7 160.9 269" />
</g>
</svg>
