<?xml version="1.0" encoding="utf-8"?>
<svg version="1.1" id="Layer_1"
xmlns="http://www.w3.org/2000/svg"
xmlns:xlink="http://www.w3.org/1999/xlink"


xml:space="preserve">
q-7.6 -21.95 -30.95 -23.1q-12.35 -0.7 -23.55 3.85q-33.45 50.7 -34.85 114.35q-2.5 112.3 9.25 222.9q1.15 10.8 8.5 19.2q3.8 4.35 8.15 8.2q2.9 2.6 6.6 3.4q7.85 -1.45 12.95 -7.25q27.6 -11 31.35 -37.6q0.75 -5.2 -2.35 -9.65q-10.7 18.3 -30.95 24.95q-15.9 5.35 -25.9 -7.35q-5.85 -7.5 -8.65 -16.75q-1.8 -5.95 -3.25 -12q-1.45 -6.25 -2.2 -12.3q-0.15 -24.05 -0.95 -47.9q2.85 -4.25 1.95 -9.35q-0.5 -3 -2.3 -5.25q-3.6 -76 22.85 -146.15q1.2 -3.25 2.75 -6.35q27.25 -11.05 53.6 1.8q-18.35 10.45 -25.8 32.05q-5.5 15.95 -10.15 32.05q-4.7 16.1 -7.25 32.6q-2.85 18.45 -3.8 36.95q-0.8 14.75 -1.45 29.55q-0.65 14.8 -1 29.65q-0.35 14.85 -0.55 29.75q-0.25 18.65 0.9 37.3q1.1 18.45 3.95 36.7q3.55 22.45 20.75 35.1q19.2 14.15 39.1 -1.3q11.6 -9.05 18.8 -21.85q-8 23.05 1.55 43.85q10.7 -45.45 8.9 -92.35q-0.35 -9.9 -1.75 -19.65q-2.65 2.8 -2.3 6.75q-8.85 20.15 -28.75 27.85q-3.85 1.55 -8.15 1.9q-2.05 -0.3 -3.8 -1.2q-1.25 -1.7 -2.05 -3.65q-5.45 -12.95 -9.55 -26.35q-5.1 -16.85 -8.1 -34q-3.1 -17.5 -3.8 -35.1q-3.15 -77.25 3.75 -154.3q4.35 -49 38.85 -79.5q11.6 -10.25 25.85 -3.3q9.5 4.6 18.65 6.45q-0.25 -12.55 -13.85 -19.25q-3.9 -2 -8.2 -3.2q-5.95 -1.9 -12.15 -2.05q-4.9 4.35 -6.45 11.95q-4.4 21.65 -9.15 43.3q-6.35 28.7 -14.35 57q-10.15 35.75 -18.65 71.95q-0.85 0.95 -1.1 2.15q-0.7 3.85 1.6 6.85q-13.15 57.85 -29 114.75q-3.05 11 -8.15 21.2q-10.75 21.6 -9.1 43.55q1.95 2 4 0q5.65 -17.2 11.7 -34.1q14.75 -41.35 24.85 -84.05q5.4 -0.65 10.95 0.2q19.25 3 35.7 -2.85q3.15 29.65 7.4 59.1q8.45 58.25 14.45 116.85q1.45 13.85 9.8 20.1q0.65 -1.1 0.55 -2.15q-6.45 -58.75 -15.05 -117.1q-6.45 -43.65 -12.05 -87.4q-7.5 -58.7 -13.35 -117.15q-1.4 2.75 -1.35 6q0.05 1.75 0.9 3.15q-4 34.75 -3.7 70.6q0.55 59.8 -1.7 119.25q-2.25 59.85 -7.35 119.15q-1.3 14.95 -3.9 29.75q-2.95 16.35 3.1 29.8q0.85 -0.6 1.05 -1.4q5.7 -24.1 7.2 -49.25q3.65 -58.95 5.65 -118.55q2.8 2 6.55 0.8q36.8 -11.45 62.05 -40.85q5.65 -6.55 7.9 -14.65q7.55 -26.85 5.55 -55.15q-4.55 -65.55 -62.8 -93.9q-9.8 -0.9 -18.15 3.55q-0.55 0.1 -0.6 0.3q24.95 -5 43.5 15.4q27.5 30.15 29.1 72.25q0.55 13.9 -1.8 27.45q-4.6 27.05 -28.25 43.4q-21.4 14.8 -45.4 17.35q1.4 -48.15 1.95 -96.45q0.35 -30.05 1.65 -59.95q0.45 -10.15 -0.75 -19.45q-20.65 0.15 -41 3.65<g id="503" transform="matrix(1, 0, 0, 1, -61.95, 0)">
<path style="fill:#000000;fill-opacity:1" d="M489.05,92.3Q462.7 79.45 435.45 90.5Q433.9 93.6 432.7 96.85Q406.25 167 409.85 243L449.45 240.5Q451.25 242.75 451.75 245.75Q452.65 250.85 449.8 255.1L410.05 256Q410.85 279.85 411 303.9L411.1 348.45L411.15 352.85L411.3 357.2L411.5 361.5L411.85 365.75L412.85 374.15Q413.6 380.2 415.05 386.45Q416.5 392.5 418.3 398.45Q421.1 407.7 426.95 415.2Q436.95 427.9 452.85 422.55Q473.1 415.9 483.8 397.6L482.95 390.45L485.05 395.65L487.5 394.3L491.2 388.95Q494.3 393.4 493.55 398.6Q489.8 425.2 462.2 436.2Q457.1 442 449.25 443.45L445.4 444L443.5 444.05L441.5 444L439.5 443.8L437.55 443.2L435.6 442.8Q431.9 442 429 439.4Q424.65 435.55 420.85 431.2Q413.5 422.8 412.35 412Q400.6 301.4 403.1 189.1Q404.5 125.45 437.95 74.75Q449.15 70.2 461.5 70.9Q484.85 72.05 492.45 94L489.05 92.3M363.4,67.55Q367.7 68.75 371.6 70.75Q385.2 77.45 385.45 90Q376.3 88.15 366.8 83.55Q352.55 76.6 340.95 86.85Q306.45 117.35 302.1 166.35Q295.2 243.4 298.35 320.65Q299.05 338.25 302.15 355.75Q305.15 372.9 310.25 389.75Q314.35 403.15 319.8 416.1Q320.6 418.05 321.85 419.75L323.8 421.95L325.4 422.95Q327.15 423.85 329.2 424.15L338.45 424.6Q342.75 424.25 346.6 422.7Q366.5 415 375.35 394.85L375.5 390.45L377.95 388.45L380.2 380.95L381.5 380.4L383.7 380.8L385.7 356.2L350.7 352.7L350.15 351.15L349.65 348.5Q349.3 344.55 351.95 341.75L388.85 342.95Q390.25 352.7 390.6 362.6Q392.4 409.5 381.7 454.95Q372.15 434.15 380.15 411.1Q372.95 423.9 361.35 432.95Q341.45 448.4 322.25 434.25Q305.05 421.6 301.5 399.15L295.8 362.85Q292.95 344.6 291.85 326.15Q290.7 307.5 290.95 288.85Q291.15 273.95 291.5 259.1Q291.85 244.25 292.5 229.45Q293.15 214.65 293.95 199.9Q294.9 181.4 297.75 162.95Q300.3 146.45 305 130.35Q309.65 114.25 315.15 98.3Q322.6 76.7 340.95 66.25L351.25 65.5Q357.45 65.65 363.4 67.55M242.5,64.2L243.2 61Q249.05 119.45 256.55 178.15Q262.15 221.9 268.6 265.55Q277.2 323.9 283.65 382.65L290.75 446.55Q290.85 447.6 290.2 448.7Q281.85 442.45 280.4 428.6Q274.4 370 265.95 311.75Q261.7 282.3 258.55 252.65Q242.1 258.5 222.85 255.5Q217.3 254.65 211.9 255.3L200.35 256.7L185 322.8Q174.9 365.5 160.15 406.85Q154.1 423.75 148.45 440.95Q146.4 442.95 144.45 440.95Q142.8 419 153.55 397.4Q158.65 387.2 161.7 376.2Q177.55 319.3 190.7 261.45L191.55 257.75L191.45 257.75Q189.15 254.75 189.85 250.9Q190.1 249.7 190.95 248.75L193.85 247.95Q202.35 211.75 212.5 176Q220.5 147.7 226.85 119Q231.6 97.35 236 75.7Q237.55 68.1 242.45 63.75L242.5 64.2M82.7,59.1Q82.75 58.9 83.3 58.8Q91.65 54.35 101.45 55.25Q159.7 83.6 164.25 149.15Q166.25 177.45 158.7 204.3Q156.45 212.4 150.8 218.95Q125.55 248.35 88.75 259.8Q85 261 82.2 259L81.9 268Q79.9 327.6 76.25 386.55Q74.75 411.7 69.05 435.8Q68.85 436.6 68 437.2Q61.95 423.75 64.9 407.4Q67.5 392.6 68.8 377.65Q73.9 318.35 76.15 258.5Q78.4 199.05 77.85 139.25Q77.55 103.4 81.55 68.65Q80.7 67.25 80.65 65.5Q80.6 62.25 82 59.5L82.7 59.1M86.2,88.8Q84.9 118.7 84.55 148.75Q84 197.05 82.6 245.2Q106.6 242.65 128 227.85Q151.65 211.5 156.25 184.45Q158.6 170.9 158.05 157Q156.45 114.9 128.95 84.75Q110.4 64.35 85.45 69.35Q86.65 78.65 86.2 88.8M216.2,242.9Q236.55 239.4 257.2 239.25L240.2 90.25L202.85 245.6L216.2 242.9" />
</g>
</svg>
