<?xml version="1.0" encoding="utf-8"?>
<svg version="1.1" id="Layer_1"
xmlns="http://www.w3.org/2000/svg"
xmlns:xlink="http://www.w3.org/1999/xlink"


xml:space="preserve">
q-0.4 1.35 -1.5 2.35q-5.05 36.7 -4.4 74.6q0.8 48 -1.7 95.4q-30.65 1.05 -59.1 10.45q-0.1 -48.95 5.25 -96q-5.6 9.45 -6.4 21.95q-2.15 35.15 -2.25 71q-0.1 48.35 -1.4 96.6q-0.35 12.25 -1.55 24.35q-4.9 47.9 -5.9 96.15q0.5 1.3 1.8 1.6q0.65 -0.5 0.75 -1.1q2.3 -10.65 3.3 -21.8q4.4 -47.75 5.45 -96.1q28.8 -6 58.65 -7.6q-2.45 48.7 -8.95 96.65q-6.55 48.2 -15.05 95.9q-6.8 17.2 -2.45 34.65q5.65 -6.2 5.75 -17.55q0.15 -10.1 1.75 -19.75q7.75 -47.25 13.8 -94.7q6.1 -47.7 9.85 -95.8q3.7 -48.05 1.7 -96.75q-2.05 -48.75 3.45 -95.95q14.05 -4.35 26.9 -1.45q-5.7 -10.45 -19.35 -9.1q-11.85 4.15 -16.45 16.35q-10.3 27.25 -11.75 57.2q-2.25 48 -4.2 96.1q-1.95 48.35 -0.95 96.6q0.5 24.25 2.15 48.4q3.2 47.1 18.9 91.15q7.75 21.7 29.4 21.25q9.95 -7.65 15.35 -19.35q5.3 -11.4 7.5 -22.85q-1.85 1.85 -4.2 3.2q-2.45 4.95 -4.65 10q-4.8 10.85 -13.9 18.1q-4.8 1.1 -9.1 -0.8q-3.1 -1.4 -5.2 -3.9q-14.85 -17.5 -19.55 -40.6q-5.95 -29.35 -8.7 -59.4q-4.35 -47.9 -3.9 -96.65q0.5 -48.55 3.45 -96.65q1.5 -24.15 2.05 -48.3q0.65 -30.25 13.85 -56.25q1.45 -0.85 2.15 -2.45q-8.2 31.1 -12.7 64.7q-6.4 47.65 -17.4 94.5q-10.95 46.55 -21.05 93.35q-10.15 47.1 -17.05 94.7q-1.7 11.85 -4.1 23.6q-2.65 13.4 1.6 23.55q4.45 -18.15 6.65 -37.25q5.5 -47.5 15.15 -94.3q5.4 -26.25 11.15 -52.4q37.05 -1.95 75.05 -6.2q2 13.15 3.55 26.4q5.6 47.2 13.3 94.05q7.7 47 10.95 94.3q0.9 13.15 5.85 23.2q2.75 -7.5 1.7 -16.05q-5.8 -47.3 -13.7 -94.5q-7.9 -47.25 -13.35 -94.85q-5.45 -47.8 -16.65 -94.6q-5.65 -23.7 -9.3 -47.55q-7.4 -47.5 -19.8 -93.35q-0.55 -0.15 -0.5 0.15q7.2 47.7 18.9 94.75q7.9 31.85 13.05 64.15q-0.85 -0.45 -1.75 -0.75q-36.45 1.6 -72.25 8.15q8.05 -35.05 13.85 -70.55q7.55 -46.45 15.85 -91.8q2 16.05 4.45 32.35q-3.8 -2 -8.45 -1.05q-8.6 0.5 -17.15 2.85q-1.25 1.15 -2.65 2.1q-6.55 4.65 -12.85 9.7q-16.2 17.95 -22.3 41.2q-5.3 20.15 -5.95 41.35q-1.75 48.15 -0.05 96.6q1.05 30.15 16.4 55.6q2.95 2.5 5.65 5.35q10.65 11.15 24.5 18.9q16.1 6.15 26.95 -7.05q9 -10.95 17.1 -22.15q8.15 -11.25 7.1 -23.35q-2.15 1.45 -3.8 4.15q-3.25 5.2 -7.4 9.9q-4.7 8.2 -10.1 16.1q-3.55 5.2 -8.95 8.4q-15.5 9.15 -30.25 -2.7q-1.3 -1.95 -3.1 -3.15q-9.15 -6.2 -16.1 -14.8q-7.95 -14.45 -10.25 -30.7q-4.5 -31.95 -6.6 -64.6q-3.05 -48 -1.25 -96.7q22.2 2.35 44.6 -0.75q1.7 -4 -0.75 -7.3q-22.25 1.15 -44 4.15q0.85 -24.1 0.1 -48.35q-1.3 -44.45 30.5 -74.6q18.55 -17.55 40.6 -9.4q0.85 -2.7 -1.45 -5.5q0.2 1 0.8 1.8q-3.85 25.05 -3.9 52q-0.1 48.05 -3.2 95.95q-1.55 24.2 -2.35 48.65q-1.1 2.25 -0.9 4.9q0.2 1.6 1.45 2.45q-0.55 19.5 -0.55 39.15q0 48.2 -3 96q-0.9 13.55 3.55 23.85q2.3 -40.75 4.9 -82.55q2.95 -48.15 3.65 -96.6q0.55 -38 2.3 -75.9q21.2 2.1 41.5 -3.8q8.3 -2.4 14.85 -8q29.95 -25.4 36.55 -64.9q2.75 -16.55 3.35 -33.65q1.75 -52.1 -35.2 -86.1q-18.35 -16.95 -42.15 -19.75q-0.55 1.2 -0.45 2.45q24.55 14.35 40.5 37.3q9.15 13.1 12.1 28.95q9.15 49.1 -13.45 93.4q-8 15.65 -23.35 23.85q-24.7 13.25 -52.15 10.45q2.6 -48.05 3.35 -96.05q14.2 -4.5 27.2 3.15q0 1.05 0.6 1.65q0.5 0.6 1.55 0.75q-2.6 27.8 -10.45 55.85q-1.55 5.55 -1.1 11.25q0.35 5.05 2.6 9.35q5.7 -18.65 8.45 -37.8q5.7 26.8 15.9 52.25q5.55 13.95 11.8 27.45q3.7 -6.85 0.6 -13.9q-9.75 -22 -18 -44.65q-5 -13.65 -9.4 -27.2q6.65 -1.85 11.95 -6.45q3.15 -2.65 5.55 -5.75q9.85 -12.45 9.45 -28.3q-0.1 -3.75 -0.7 -7.5q-2.25 -14.25 -13.05 -23.75q-7.6 -6.65 -16.85 -7.4q-1.95 0 -1.85 0.55q0.85 -9.9 -0.15 -18.25q28.4 4.7 28.1 35.3q-0.1 7.25 -3.45 13.35q-9.7 17.75 -29.55 18.65q2.95 -24.4 5.05 -49.05q-0.45 21.8 -2.2 43.4q-3.9 48.7 -2.95 96q45.05 -1.95 90.5 -1.2q3 -4.6 0.6 -9.6q-43.95 -1.5 -88.05 0.4q2.85 -48.2 0.85 -96.1q-1.1 -0.05 -1.15 1.25<g id="521" transform="matrix(1, 0, 0, 1, -22.05, 0)">
<path style="fill:#000000;fill-opacity:1" d="M537.25,83.6L537.3 84.2Q531.8 131.4 533.85 180.15Q535.85 228.85 532.15 276.9Q528.4 325 522.3 372.7Q516.25 420.15 508.5 467.4Q506.9 477.05 506.75 487.15Q506.65 498.5 501 504.7Q496.65 487.25 503.45 470.05Q511.95 422.35 518.5 374.15Q525 326.2 527.45 277.5L527.85 270.05Q498 271.65 469.2 277.65L469.15 277.65L468.5 315.15Q467.45 363.5 463.05 411.25Q462.05 422.4 459.75 433.05Q459.65 433.65 459 434.15Q457.7 433.85 457.2 432.55Q458.2 384.3 463.1 336.4Q464.3 324.3 464.65 312.05Q465.95 263.8 466.05 215.45Q466.15 179.6 468.3 144.45Q469.1 131.95 474.7 122.5Q469.35 169.55 469.45 218.5L469.25 271.2Q497.7 261.8 528.35 260.75L528.75 252.95Q531.25 205.55 530.45 157.55Q529.8 119.65 534.85 82.95Q535.95 81.95 536.35 80.6L536.7 80.5L537.25 83.6M425.75,78.95Q425.05 80.55 423.6 81.4L422.75 81.95Q409.55 107.95 408.9 138.2Q408.35 162.35 406.85 186.5Q403.9 234.6 403.4 283.15Q402.95 331.9 407.3 379.8Q410.05 409.85 416 439.2Q420.7 462.3 435.55 479.8Q437.65 482.3 440.75 483.7Q445.05 485.6 449.85 484.5Q458.95 477.25 463.75 466.4Q465.95 461.35 468.4 456.4L468.9 455.9Q471.25 454.55 473.1 452.7L473.7 452.1Q471.5 463.55 466.2 474.95Q460.8 486.65 450.85 494.3Q429.2 494.75 421.45 473.05Q405.75 429 402.55 381.9Q400.9 357.75 400.4 333.5Q399.4 285.25 401.35 236.9Q403.3 188.8 405.55 140.8Q407 110.85 417.3 83.6Q421.9 71.4 433.75 67.25Q447.4 65.9 453.1 76.35L453.1 76.85Q440.25 73.95 426.2 78.3L425.75 78.95M336.45,55Q336.4 54.7 336.95 54.85Q349.35 100.7 356.75 148.2Q360.4 172.05 366.05 195.75Q377.25 242.55 382.7 290.35Q388.15 337.95 396.05 385.2Q403.95 432.4 409.75 479.7Q410.8 488.25 408.05 495.75Q403.1 485.7 402.2 472.55Q398.95 425.25 391.25 378.25Q383.55 331.4 377.95 284.2Q376.4 270.95 374.4 257.8L374 258.85L373.4 260.1Q335.4 264.35 298.35 266.3Q292.6 292.45 287.2 318.7Q277.55 365.5 272.05 413Q269.85 432.1 265.4 450.25Q261.15 440.1 263.8 426.7Q266.2 414.95 267.9 403.1Q274.8 355.5 284.95 308.4Q295.05 261.6 306 215.05Q317 168.2 323.4 120.55Q327.9 86.95 336.1 55.85L336.65 56.5L336.45 55M337.35,62.35Q329.05 107.7 321.5 154.15Q315.7 189.65 307.65 224.7L299.55 260.9Q335.35 254.35 371.8 252.75Q372.7 253.05 373.55 253.5L373.75 253.6Q368.6 221.3 360.7 189.45Q349 142.4 341.8 94.7Q339.35 78.4 337.35 62.35M272.5,50.55L274.75 53Q277.05 55.8 276.2 58.5Q254.15 50.35 235.6 67.9Q203.8 98.05 205.1 142.5Q205.85 166.75 205 190.85L202.45 265.05Q224.2 262.05 246.45 260.9Q248.9 264.2 247.2 268.2L246.85 268.85Q224.45 271.95 202.25 269.6L201.6 287.4Q199.8 336.1 202.85 384.1Q204.95 416.75 209.45 448.7Q211.75 464.95 219.7 479.4Q226.65 488 235.8 494.2Q237.6 495.4 238.9 497.35Q253.65 509.2 269.15 500.05Q274.55 496.85 278.1 491.65Q283.5 483.75 288.2 475.55Q292.35 470.85 295.6 465.65Q297.25 462.95 299.4 461.5Q300.45 473.6 292.3 484.85Q284.2 496.05 275.2 507Q264.35 520.2 248.25 514.05Q234.4 506.3 223.75 495.15Q221.05 492.3 218.1 489.8Q202.75 464.35 201.7 434.2L198.35 339.35Q196.65 290.9 198.4 242.75L201.65 146.15Q202.3 124.95 207.6 104.8Q213.7 81.55 229.9 63.6Q236.2 58.55 242.75 53.9Q244.15 52.95 245.4 51.8Q253.95 49.45 262.55 48.95Q267.2 48 271 50L272.5 50.55M41.15,48.7L41.15 48.1Q41.05 46.85 41.6 45.65L50.65 43.2L56.25 41.8Q80.05 44.6 98.4 61.55Q135.35 95.55 133.6 147.65Q133 164.75 130.25 181.3Q123.65 220.8 93.7 246.2Q87.15 251.8 78.85 254.2Q58.55 260.1 37.35 258Q35.6 295.9 35.05 333.9Q34.35 382.35 31.4 430.5Q28.8 472.3 26.5 513.05Q22.05 502.75 22.95 489.2L29.2 392.6Q32.2 344.8 32.2 296.6Q32.2 276.95 32.75 257.45L28.95 256.85Q27.7 256 27.5 254.4L27.2 251.95Q27 249.3 28.1 247.05L33 247.95Q33.8 223.5 35.35 199.3Q38.45 151.4 38.55 103.35Q38.6 76.4 42.45 51.35L42 51.15Q41.4 50.35 41.2 49.35L41.15 48.7M46.95,51.45L43.3 51.6L41.75 141.25Q41 189.25 38.4 237.3L37.8 248.55Q65.25 251.35 89.95 238.1Q105.3 229.9 113.3 214.25Q135.9 169.95 126.75 120.85Q123.8 105 114.65 91.9Q98.7 68.95 74.15 54.6Q61.15 46.95 46.95 51.45M139.3,183.1Q139.2 182.55 141.15 182.55L142.8 182.45Q152.05 183.2 159.65 189.85Q170.45 199.35 172.7 213.6Q173.3 217.35 173.4 221.1Q173.8 236.95 163.95 249.4Q161.55 252.5 158.4 255.15Q153.1 259.75 146.45 261.6Q150.85 275.15 155.85 288.8Q164.1 311.45 173.85 333.45Q176.95 340.5 173.25 347.35L170.8 342.15Q164.55 328.65 159 314.7Q148.8 289.25 143.1 262.45L134.25 263.15L128.7 301.4Q125.95 320.55 120.25 339.2Q118 334.9 117.65 329.85Q117.2 324.15 118.75 318.6Q126.6 290.55 129.2 262.75L128.4 254.8L130.9 255L138.45 187.4Q137.4 187.25 136.9 186.65Q136.3 186.05 136.3 185L139.3 183.1M135.3,255Q155.15 254.1 164.85 236.35Q168.2 230.25 168.3 223Q168.6 192.4 140.2 187.7Q141.2 196.05 140.35 205.95Q138.25 230.6 135.3 255M71.95,359.75Q73.95 407.65 71.1 455.85L68.7 490Q112.8 488.1 156.75 489.6Q159.15 494.6 156.15 499.2Q110.7 498.45 65.65 500.4Q64.7 453.1 68.6 404.4Q70.35 382.8 70.8 361Q70.85 359.7 71.95 359.75" />
</g>
</svg>
