<?xml version="1.0" encoding="utf-8"?>
<svg version="1.1" id="Layer_1"
xmlns="http://www.w3.org/2000/svg"
xmlns:xlink="http://www.w3.org/1999/xlink"


xml:space="preserve">
q-13.35 -18.4 -36.5 -18.1q-20.85 0.25 -34.95 17.1q-13.8 16.35 -17.1 37.6q-2.85 22.5 8.2 42.5q6.05 10.9 18.3 13.75q25.65 5.85 51.95 2.15q19.3 -2.45 18.6 -19.4q-26.45 14.55 -56.85 11.85q-22.6 -2.35 -31.95 -20.75q-6.45 -12.8 -4.2 -27.35q38.4 5.85 77 1q-37.95 -2.8 -75.25 3.75q5.9 -23.35 26.6 -35.8q16.55 -9.95 35.2 -5.55q12.2 2.95 22.25 8.05q-15.55 30.4 -27.4 62.6q0.1 1.5 1.25 2q-9.75 17.3 -9.6 34.7q3.85 -1.25 5.6 -5q9.15 -19.3 18.95 -38.05q9.75 -18.7 18.55 -37.9q29 -9.75 59.55 -13.4q10.1 19.8 14.15 41.45q5.5 29.25 16 54.45q0.5 -0.75 0.45 -1.45q-2.75 -27.2 -9.65 -54.8q-2.35 -9.35 -6.35 -18q-6.6 -14.25 -12.55 -28.65q2.65 -6.15 -2.2 -9.25q-12.45 -31.35 -21.85 -63.65q2.45 -7.5 1.3 -13.5q4.4 31.45 17.35 61.55q-27.45 4.55 -52.3 16.05q11.05 -26.25 23.8 -52.2q-12.25 43.8 -15.45 89.2q-3.6 51.15 -3.05 102.25q0.4 35.55 12.55 68.85q3.9 10.7 9.95 20.4q6.15 9.9 14.1 18.5q5.8 6.3 13.1 11q3.35 2.15 6.95 3.9q5.3 2.75 11.15 3.95q8.15 1.55 16.35 1.4q12.8 -0.2 21.7 -9.55q11.15 -11.7 18.3 -26.15q7 -14.15 2.6 -29.1q-7.5 31.45 -33.1 48.05q-8.1 5.15 -17.9 2.9q-42.8 -10 -57.8 -52.5q-18.2 -51.35 -13.25 -106.8q0.75 -8.2 1 -16.45q1.4 -1.85 1.4 -4.3q-0.35 -1.15 -0.9 -2.15q1.95 -61.75 18.8 -120.8q7.6 -26.7 27.9 -45.75q17.85 -10.15 39 -7.8q16.1 2.15 30.45 9.75q-3 -11.9 -13.75 -17.15q-35.85 -17.8 -65.4 5q-23.75 18.35 -31.85 47.45q-21.2 -34.5 -64.6 -34.1q-12.4 -1.2 -24 1.5q-0.55 1.1 -0.5 2.25q-2.5 50.1 -3.4 102.05q-1.05 2.5 -1.1 5.25q-0.05 2.3 0.55 4.5q0.4 1.35 1.55 2.25q-0.8 59.65 -3.6 119.15q-2.75 59.5 -5.25 119.25q-0.7 17.25 4.8 29.05q2.85 -8.05 2.8 -17.25q-0.25 -59.55 2.75 -118.5q3.05 -59.45 3.4 -119.2q18.85 3.55 38.05 -0.25q38.65 -7.7 50.8 -44.3q19.05 -57.35 7.05 -116.75q-3.1 -15.2 -11.15 -28.3q13.8 59.4 -6.35 116.85q-2.9 8.25 -9.25 14.2q-31.65 29.5 -74.5 22.8q0.5 -44.5 1.8 -88.9q1.65 -57.45 -1.25 -114.55q27.45 -0.15 53.65 9q28.85 10.15 35.9 40.6q1.35 -59.7 0.2 -118.45q-3.45 8.1 -3.5 18.75q-0.1 59.4 -1 118.45q31 0.3 61.75 7.25q3.75 -5.7 -0.25 -11.25q-29.8 -4.6 -57.25 -8<g id="509" transform="matrix(1, 0, 0, 1, -39.25, 0)">
<path style="fill:#000000;fill-opacity:1" d="M424,228.45Q413.95 223.35 401.75 220.4Q383.1 216 366.55 225.95Q345.85 238.4 339.95 261.75Q377.25 255.2 415.2 258L416.2 267Q377.6 271.85 339.2 266Q336.95 280.55 343.4 293.35Q352.75 311.75 375.35 314.1Q405.75 316.8 432.2 302.25L432.55 304Q433.25 320.95 413.95 323.4Q387.65 327.1 362 321.25Q349.75 318.4 343.7 307.5Q332.65 287.5 335.5 265L335.55 264.55L336.65 263.1Q339.95 241.85 353.75 225.5Q367.85 208.65 388.7 208.4Q411.85 208.1 425.2 226.5L424 228.45M409.95,343.25Q411.1 349.25 408.65 356.75Q418.05 389.05 430.5 420.4L435.95 419.7Q440.8 422.8 438.15 428.95L437.7 429.7L434.35 430.05Q440.3 444.45 446.9 458.7Q450.9 467.35 453.25 476.7Q460.15 504.3 462.9 531.5Q462.95 532.2 462.45 532.95Q451.95 507.75 446.45 478.5Q442.4 456.85 432.3 437.05L429.1 430.6Q398.55 434.25 369.55 444Q360.75 463.2 351 481.9Q341.2 500.65 332.05 519.95Q330.3 523.7 326.45 524.95Q326.3 507.55 336.05 490.25L360.7 445.95Q359.55 445.45 359.45 443.95L362.8 442.2L378.95 412.45Q390.8 380.25 406.35 349.85L406.2 348.25L406.55 349.45L409.6 343.55L409.95 343.25M405.85,363.4Q393.1 389.35 382.05 415.6L372.6 437.35Q397.45 425.85 424.9 421.3Q411.95 391.2 407.55 359.75L405.85 363.4M221.05,144.85Q250.6 122.05 286.45 139.85Q297.2 145.1 300.2 157L299 159.85L292.7 153.25Q278.35 145.65 262.25 143.5Q241.1 141.15 223.25 151.3Q202.95 170.35 195.35 197.05Q178.5 256.1 176.55 317.85L246.2 312L246.9 313.15Q247.45 314.15 247.8 315.3L248.1 317.45Q248.1 319.9 246.7 321.75L176.4 322.15Q176.15 330.4 175.4 338.6Q170.45 394.05 188.65 445.4Q203.65 487.9 246.45 497.9Q256.25 500.15 264.35 495Q289.95 478.4 297.45 446.95Q301.85 461.9 294.85 476.05Q287.7 490.5 276.55 502.2Q267.65 511.55 254.85 511.75Q246.65 511.9 238.5 510.35Q232.65 509.15 227.35 506.4Q223.75 504.65 220.4 502.5Q213.1 497.8 207.3 491.5Q199.35 482.9 193.2 473Q187.15 463.3 183.25 452.6Q171.1 419.3 170.7 383.75Q170.15 332.65 173.75 281.5Q176.95 236.1 189.2 192.3Q197.3 163.2 221.05 144.85M149.75,90.9Q161.75 150.3 142.7 207.65Q130.55 244.25 91.9 251.95Q72.7 255.75 53.85 252.2L53.7 270.5Q53.35 330.25 50.3 389.7Q47.3 448.65 47.55 508.2Q47.6 517.4 44.75 525.45Q39.25 513.65 39.95 496.4Q42.45 436.65 45.2 377.15Q48 317.65 48.8 258L48.9 251.1L46.5 250.5Q45.35 249.6 44.95 248.25Q44.35 246.05 44.4 243.75Q44.45 241 45.5 238.5L49.05 239.3L50.65 138.75Q51.55 86.8 54.05 36.7L50 36.75L49.55 35.25L49.5 34.5L49.5 32.25Q49.45 31.1 50 30Q61.6 27.3 74 28.5Q117.4 28.1 138.6 62.6Q146.65 75.7 149.75 90.9M108.15,45.7Q81.95 36.55 54.5 36.7Q57.4 93.8 55.75 151.25Q54.45 195.65 53.95 240.15Q96.8 246.85 128.45 217.35Q134.8 211.4 137.7 203.15Q157.85 145.7 144.05 86.3Q137 55.85 108.15 45.7M76,511.2Q103.45 514.6 133.25 519.2Q137.25 524.75 133.5 530.45Q102.75 523.5 71.75 523.2Q72.65 464.15 72.75 404.75Q72.8 394.1 76.25 386Q77.4 444.75 76.05 504.45L76 511.2" />
</g>
</svg>
