<?xml version="1.0" encoding="utf-8"?>
<svg version="1.1" id="Layer_1"
xmlns="http://www.w3.org/2000/svg"
xmlns:xlink="http://www.w3.org/1999/xlink"


xml:space="preserve">
q-6.65 2.75 -11.65 7.7q-17.45 17.35 -23.2 42.35q-6.5 28.65 -9.1 57.95q-3.35 38.15 14.95 69.1q10.7 6.5 23.3 3.8q13.9 -3 27 -8.2q8.9 -3.55 14.7 -10.15q-0.85 10.2 3.75 18.3q3.8 -9.5 5.1 -20.1q2.85 -23.7 2.9 -45.9q-18.45 -3.2 -32.25 7q-0.5 2.3 0.15 4.5q-0.5 0.75 -0.5 1.5q-0.25 10.2 -7.45 17q-24.55 23.2 -58.05 16q-2.9 -3.1 -3.85 -7.05q-13.3 -55.8 3.8 -111q6.2 -20 23.85 -29.7q28.45 -15.65 42.7 7.55q2.45 -25.1 -26.05 -26.95q-7.1 1.9 -14.25 4.85q-19.55 28.55 -27 62.9q-12.65 58.4 12.85 112.2q1.75 3.7 5.05 5.75q27.4 17.05 54.35 -1.7q19.15 -13.25 16.75 -33.7q-0.75 -0.5 -1.65 -0.5q-0.75 0 -1.5 0.35q-20.45 37.65 -63.5 26.5q-21.35 -32.5 -19.4 -72.65q-5.15 10.9 -0.4 18.5q4.5 -12.35 9.75 -24.6q2 15 6.65 29.7q1.8 -1.25 1.45 -3.35q-2.35 -13.15 -4.05 -26.4q1.8 -4.75 0.35 -9.75q-6.4 -2.45 -13.45 -1.45q-1.65 -15.55 -2.5 -31.25q-0.35 0.1 -0.35 0.25q-1.8 15.7 -0.9 31.15q6.65 -13.9 7.15 -26.65q-10.55 14.45 -17.3 32q3.1 -23.9 11.45 -46.85q4.25 -11.8 14.2 -18.9q29.8 -21.3 55.6 5.4q-7.65 -26.85 -36.1 -29.05q-7.7 2.7 -14.95 7.05q-1.5 5.1 -1.7 11.25q-0.7 3 -0.35 6q0.2 1.65 1.25 2.95q-0.45 11.25 -1.9 22.3q-2.2 16.9 3.7 29.4q4.6 -27.5 4.8 -57q0.1 -17.35 0.95 -34.55q37.55 6 48.4 -29.45q6.5 -21.25 -3.5 -41q-13.35 -26.45 -40.5 -34.1q-6.15 0.65 -10.8 5.65q-3.3 3.5 -2.25 7.8q4.7 -38.5 2.55 -77.3q18.4 11.7 28.7 30.75q11.7 21.6 -6.2 38.5q-14.5 13.7 -36.25 10.2<g id="524" transform="matrix(1, 0, 0, 1, -137.9, 0)">
<path style="fill:#000000;fill-opacity:1" d="M385.95,180.75Q414.45 182.6 412 207.7L411.45 208.25Q397.2 185.05 368.75 200.7Q351.1 210.4 344.9 230.4Q327.8 285.6 341.1 341.4Q342.05 345.35 344.95 348.45Q378.45 355.65 403 332.45Q410.2 325.65 410.45 315.45Q410.45 314.7 410.95 313.95L413.7 316.7L414.7 310.95L382.45 312.45L381.85 310.95Q381.2 308.75 381.7 306.45Q395.5 296.25 413.95 299.45L418.4 300L419.45 300.45Q419.4 322.65 416.55 346.35Q415.25 356.95 411.45 366.45Q406.85 358.35 407.7 348.15Q401.9 354.75 393 358.3Q379.9 363.5 366 366.5Q353.4 369.2 342.7 362.7Q324.4 331.75 327.75 293.6Q330.35 264.3 336.85 235.65Q342.6 210.65 360.05 193.3Q365.05 188.35 371.7 185.6Q378.85 182.65 385.95 180.75M265.65,179.2L272.95 176.75Q301.4 178.95 309.05 205.8L308.95 206.25Q283.15 179.55 253.35 200.85Q243.4 207.95 239.15 219.75Q230.8 242.7 227.7 266.6L251.9 265Q258.65 247.45 269.2 233Q268.7 245.75 262.05 259.65L259.75 264.55L268.95 264.15Q268.05 248.7 269.85 233Q269.85 232.85 270.2 232.75Q271.05 248.45 272.7 264L285.95 263.5Q293 262.5 299.4 264.95L300.2 265.5L300.85 267Q302.3 272 300.5 276.75L300.2 277.45L274.35 277.7Q276.05 290.95 278.4 304.1Q278.75 306.2 276.95 307.45Q272.3 292.75 270.3 277.75L253.7 278.1Q248.45 290.35 243.95 302.7Q239.2 295.1 244.35 284.2L247 278.25L226.45 278.85L226.05 284.8Q224.1 324.95 245.45 357.45Q288.5 368.6 308.95 330.95Q309.7 330.6 310.45 330.6Q311.35 330.6 312.1 331.1L312.7 331.7Q315.1 352.15 295.95 365.4Q269 384.15 241.6 367.1Q238.3 365.05 236.55 361.35Q211.05 307.55 223.7 249.15Q231.15 214.8 250.7 186.25Q257.95 181.9 265.65 179.2M151.2,182.65Q155.85 177.65 162 177Q189.15 184.65 202.5 211.1Q212.5 230.85 206 252.1Q195.15 287.55 157.6 281.55L150.25 280.4Q149.4 297.6 149.3 314.95Q149.1 344.45 144.5 371.95Q138.6 359.45 140.8 342.55Q142.25 331.5 142.7 320.25L144.4 279.5L139.5 278.7Q138.45 277.4 138.25 275.75Q137.9 272.75 138.6 269.75L139.25 267.5L144.85 268.2L147.25 201.7Q147.45 195.55 148.95 190.45Q147.9 186.15 151.2 182.65M155.25,268.95Q177 272.45 191.5 258.75Q209.4 241.85 197.7 220.25Q187.4 201.2 169 189.5L153.45 191.4Q155.6 230.2 150.9 268.7L155.25 268.95" />
</g>
</svg>
