<?xml version="1.0" encoding="utf-8"?>
<svg version="1.1" id="Layer_1"
xmlns="http://www.w3.org/2000/svg"
xmlns:xlink="http://www.w3.org/1999/xlink"


xml:space="preserve">
q0.5 59 -2.1 118.45q-0.7 15.15 -4.05 29.6q-3.95 16.85 2.8 29.55q3.5 -4.4 3.9 -10.4q2.25 -36.95 4.1 -74.25q3.6 -3.3 6.05 -8.35q7.85 -16.3 13.9 -33.4q19.5 -55.4 41.7 -110.4q5.5 -13.6 11.65 -26.85q6.8 -14.65 6 -28.55q-1.25 0.1 -1.9 1.2q-9.2 16.3 -16.05 33.8q-21.6 55.2 -39.85 111.55q-4.75 14.65 -13.8 26.85q-4.3 5.85 -6.75 11.8q1.35 -33.1 2.35 -66.2q1.8 -59.95 0 -118.5q-6.4 33.55 -6.1 70.5q-1.95 16.6 1.4 36.25q7.3 42.85 14.15 85.75q3.5 22.1 7.9 44.05q3.4 16.8 12.8 27.9q2.05 -2.2 2.1 -5.25q0.2 -7.95 -2.3 -15.5q-18.75 -56.05 -24.35 -114.95q-2.85 -30.4 -11.7 -58.25q2 -9.45 -4.1 -16.55q-6.05 -7.15 -15.85 -7.2q-19.1 10 -29.15 28.75q-20.8 38.65 -26.35 83.3q-7.35 58.8 -6.1 118q0.9 43.2 21.9 79.15q6.25 10.65 17.95 12.9q4.1 0.95 7.9 -1.7q5.1 -3.65 9.75 -8q7.75 -7.15 14.15 -15.5q4 -5.15 7.4 -10.5q0.25 18 9.2 33.6q4.1 7.05 9.65 12.9q13.1 2.05 24.45 -5.15q14.65 -9.2 13.3 -26.35q-9.45 9.25 -21.85 13.8q-7.45 2.75 -15.4 3.45q-10.6 -9.2 -11.45 -24.4q-0.6 -10.75 0.45 -21.7q1.3 -1.9 1.75 -4.1q0.5 -2.25 -0.1 -4.5q-0.6 -2.4 -2.4 -4.15q-20.8 -0.25 -41 4.2q5.85 -18.45 19.8 -31.95q5.05 -4.8 10.7 -9.2q2.3 -0.35 2.35 -3.75q0.1 -3.8 -2.55 -6.45q-16.9 10.9 -27.9 27.65q-8.2 12.5 -11.6 27.05q-19.6 11.35 -39.7 29.75q-15.7 14.35 -28.15 -7q-20.45 -35 -19 -77.6q0.9 -27.1 3.3 -54.2q11.6 2.45 24.05 1.35q-17.5 -13.05 -39.8 -12.2q-10.35 0.5 -20.55 3.1q6.05 -53.45 19.4 -105.45q4.95 -21.8 24.5 -32.2q8.8 -4.65 18.7 -5.55q-0.6 -0.2 -1 0.2q-9.65 20.25 -12.75 44.25q-7.55 58.8 -27.55 115.2q-5.75 16.3 0.55 28.8q11.95 -40.85 20.55 -82.7q13.4 6.8 29.85 3.8q3.5 21.95 8.45 43.6q3.6 15.6 8.15 28.3q5.25 -15.65 0.05 -31.85q-4.95 -15.55 -7.8 -31.5q-10.3 -57.65 -15.75 -115.9q0 1.15 0.55 2.2q1.4 -0.5 2.8 -0.9q-3.15 32.9 -2.1 68.15q1.85 59.45 0.7 119.25q-1.1 59.35 -4.65 118.45q-1.95 8.75 3.5 13.5q0.65 -0.75 0.75 -1.55q5.35 -45.3 6.45 -91.4q0.85 -36.05 1.1 -72.25q26.6 -7.1 40.45 -31.2q9.45 -16.5 17.2 -33.8q11.55 -25.85 5.4 -53.15q-4.45 -19.7 -18.1 -33.3q-17.3 -17.25 -39.45 -22.8q-3.7 0.6 -7.95 1.9q-4.15 1.25 -7.75 3.35q-2.35 1.4 -4.4 3.15q-0.2 1.45 -0.25 3q16 29 7.65 59.9q-12.8 47.35 -55.6 65.4q-3.2 -2.45 -7.15 -3.05q-0.3 -55.4 -3.05 -109.55q26.6 -7.15 49.2 13q5.45 4.85 9 11.25<g id="525" transform="matrix(1, 0, 0, 1, -82, 0)">
<path style="fill:#000000;fill-opacity:1" d="M355.2,99.25Q357 157.8 355.2 217.75Q354.2 250.85 352.85 283.95Q355.3 278 359.6 272.15Q368.65 259.95 373.4 245.3Q391.65 188.95 413.25 133.75Q420.1 116.25 429.3 99.95Q429.95 98.85 431.2 98.75Q432 112.65 425.2 127.3Q419.05 140.55 413.55 154.15Q391.35 209.15 371.85 264.55Q365.8 281.65 357.95 297.95Q355.5 303 351.9 306.3L350.45 336.3Q348.6 373.6 346.35 410.55Q345.95 416.55 342.45 420.95Q335.7 408.25 339.65 391.4Q343 376.95 343.7 361.8L347 288.2Q349.6 228.75 349.1 169.75Q348.8 132.8 355.2 99.25M397.15,286.25Q402.75 345.15 421.5 401.2Q424 408.75 423.8 416.7Q423.75 419.75 421.7 421.95Q412.3 410.85 408.9 394.05Q404.5 372.1 401 350Q394.15 307.1 386.85 264.25Q383.5 244.6 385.45 228Q394.3 255.85 397.15 286.25M219.25,114.3Q199.7 124.7 194.75 146.5Q181.4 198.5 175.35 251.95Q185.55 249.35 195.9 248.85Q218.2 248 235.7 261.05L234.95 268.25Q222.5 269.35 210.9 266.9L174.6 259.75Q172.2 286.85 171.3 313.95Q169.85 356.55 190.3 391.55Q202.75 412.9 218.45 398.55Q238.55 380.15 258.15 368.8L259.6 370.9L260.9 351.05L262.45 350.2Q265.85 335.65 274.05 323.15Q285.05 306.4 301.95 295.5L306.45 295.75L310.7 299.7Q313.35 302.35 313.25 306.15Q313.2 309.55 310.9 309.9L307.2 307.75L300.95 307Q295.3 311.4 290.25 316.2Q276.3 329.7 270.45 348.15Q290.65 343.7 311.45 343.95Q313.25 345.7 313.85 348.1Q314.45 350.35 313.95 352.6Q313.5 354.8 312.2 356.7L267.95 360.35Q266.9 371.3 267.5 382.05Q268.35 397.25 278.95 406.45Q286.9 405.75 294.35 403Q306.75 398.45 316.2 389.2Q317.55 406.35 302.9 415.55Q291.55 422.75 278.45 420.7Q272.9 414.85 268.8 407.8Q259.85 392.2 259.6 374.2Q256.2 379.55 252.2 384.7Q245.8 393.05 238.05 400.2Q233.4 404.55 228.3 408.2L221.25 412.9L214.1 417.65Q210.3 420.3 206.2 419.35Q194.5 417.1 188.25 406.45Q167.25 370.5 166.35 327.3Q165.1 268.1 172.45 209.3Q178 164.65 198.8 126Q208.85 107.25 227.95 97.25Q237.75 97.3 243.8 104.45Q249.9 111.55 247.9 121L237.95 108.75Q228.05 109.65 219.25 114.3M293.2,106.75L293.95 107.5Q299.4 165.75 309.7 223.4Q312.55 239.35 317.5 254.9Q322.7 271.1 317.45 286.75Q312.9 274.05 309.3 258.45Q304.35 236.8 300.85 214.85Q284.4 217.85 271 211.05Q262.4 252.9 250.45 293.75Q244.15 281.25 249.9 264.95Q269.9 208.55 277.45 149.75Q280.55 125.75 290.2 105.5L290.35 107.15L291.2 106.2Q291.6 105.8 292.2 106L293.2 106.75M87.7,94.5Q89.75 92.75 92.1 91.35L92.2 90.25L92.25 91.25Q95.85 89.15 100 87.9Q104.25 86.6 107.95 86Q130.1 91.55 147.4 108.8Q161.05 122.4 165.5 142.1Q171.65 169.4 160.1 195.25Q152.35 212.55 142.9 229.05Q129.05 253.15 102.45 260.25L101.6 259.4L101.15 258.75L100.7 258L100.2 257.25L98.9 256.65L95.75 255.75Q95.5 291.95 94.65 328Q93.55 374.1 88.2 419.4Q88.1 420.2 87.45 420.95Q82 416.2 83.95 407.45L84.95 405.95L85.2 405.45Q88.75 346.35 89.85 287Q91 227.2 89.15 167.75Q88.1 132.5 91.25 99.6Q89.85 100 88.45 100.5L88 99.7Q87.45 98.65 87.45 97.5Q87.5 95.95 87.7 94.5M141.9,112.2Q119.3 92.05 92.7 99.2Q95.45 153.35 95.75 208.75L95.8 245.7Q99.75 246.3 102.95 248.75Q145.75 230.7 158.55 183.35Q166.9 152.45 150.9 123.45Q147.35 117.05 141.9 112.2M299.2,204.15L290.55 113.9L273.2 204L299.2 204.15" />
</g>
</svg>
