<?xml version="1.0" encoding="utf-8"?>
<svg version="1.1" id="Layer_1"
xmlns="http://www.w3.org/2000/svg"
xmlns:xlink="http://www.w3.org/1999/xlink"


xml:space="preserve">
q-3.1 56.25 -5.8 113.95q-1.05 22.3 -5.6 43.9q-3.6 16.9 2.9 29.6q3.5 -4.1 4 -9.65q5.6 -58.95 8.6 -118.5q1.15 -23.4 -1.5 -45.5q4.05 12.7 9.1 25q19.75 47.65 35.2 97q9.1 29.15 22.85 53.4q1.9 1.2 4.1 0.55q4.8 -31.3 4.45 -64.5q-0.6 -60.05 -2.95 -118.45q-5.25 22.25 -4.85 47.75q1.05 59.05 -0.15 118.45q-1.15 1.35 -1.9 2.85q-19.55 -55.45 -41.35 -110.4q-8.5 -21.15 -17.15 -40.05q-1.3 1.25 -1.85 2.85q-21.8 0.25 -34.95 17.8q-12.05 16.05 -18.8 35.2q-7.05 20.15 -9.15 41.4q-2.1 21.3 -0.55 42.65q1.65 22.65 16.05 40.3q14.95 18.2 37.75 16q21.85 -2.15 37.75 -16.9q11.5 -10.65 6 -25.6q-16.75 22.25 -44.1 22.4q-15.15 0.05 -26.3 -9.95q-8.65 -7.75 -11.9 -19.2q-7.3 -25.6 -5.6 -52.25q-4.3 11.9 -3.5 24.6q8.9 -10.75 -2.85 -26.3q2.15 -3.5 1.85 -7.4q-0.25 -3.6 -2.5 -6.45q3.7 -32.75 25.8 -56.4q24.15 -25.8 55.6 -12.05q6.9 3.05 12.7 7.95q-13.1 -19.25 -36.55 -17.9q-0.15 2.5 0.95 4.6q-3.2 28.45 -4 57.2q0.25 1.7 2 2q6.9 -32.8 7.6 -68.75q18.85 5.55 36.85 -1.55q8.9 -3.5 13.2 -11.65q12 -22.55 3.55 -48.25q-10.15 -31 -42.6 -32.45q-4.7 1 -9.6 3q-2.1 0.85 -3.65 2.5q-1.05 2.15 -1.15 4.45q6.05 25.45 -20.4 30.7q-15.75 3.1 -30.35 1.35q0.15 -32.35 -0.4 -64.35q25 -8.8 40.8 11.05q7.55 9.45 10.35 21.25<g id="516" transform="matrix(1, 0, 0, 1, -141, 0)">
<path style="fill:#000000;fill-opacity:1" d="M344.95,181.5Q353.6 200.4 362.1 221.55L368 236.35Q389.8 291.3 409.35 346.75L411.7 352.7L412.3 353.05Q413.05 351.55 414.2 350.2Q415.4 290.8 414.35 231.75Q413.95 206.25 419.2 184Q421.55 242.4 422.15 302.45Q422.5 335.65 417.7 366.95Q415.5 367.6 413.6 366.4L412.75 368.35L411.7 369.95Q397.95 345.7 388.85 316.55Q373.4 267.2 353.65 219.55Q348.6 207.25 344.55 194.55Q347.2 216.65 346.05 240.05Q343.05 299.6 337.45 358.55Q336.95 364.1 333.45 368.2Q326.95 355.5 330.55 338.6Q335.1 317 336.15 294.7Q338.85 237 341.95 180.75L342.45 180.75L343.1 184.35Q343.65 182.75 344.95 181.5M310.9,197L312.2 204.75Q306.4 199.85 299.5 196.8Q268.05 183.05 243.9 208.85Q221.8 232.5 218.1 265.25L253.85 259.8L265.95 232.7L267.45 235L272.25 258.8L308.45 260.75Q310.7 263.6 310.95 267.2Q311.25 271.1 309.1 274.6L276.15 275.2Q287.9 290.75 279 301.5L272 275.25L252.75 275.5L242.95 300.2Q242.15 287.5 246.45 275.6L216.85 276.2Q215.15 302.85 222.45 328.45Q225.7 339.9 234.35 347.65Q245.5 357.65 260.65 357.6Q288 357.45 304.75 335.2L308.45 329.95Q313.95 344.9 302.45 355.55Q286.55 370.3 264.7 372.45Q241.9 374.65 226.95 356.45Q212.55 338.8 210.9 316.15Q209.35 294.8 211.45 273.5Q213.55 252.25 220.6 232.1Q227.35 212.95 239.4 196.9Q252.55 179.35 274.35 179.1Q297.8 177.75 310.9 197M148.75,179Q150.3 177.35 152.4 176.5Q157.3 174.5 162 173.5Q194.45 174.95 204.6 205.95Q213.05 231.65 201.05 254.2Q196.75 262.35 187.85 265.85Q169.85 272.95 151 267.4L150.6 296.95Q149.9 332.9 143 365.7Q141.25 365.4 141 363.7L144.55 245.25Q145.35 216.5 148.55 188.05Q147.45 185.95 147.6 183.45Q147.7 181.15 148.75 179M268.95,258.9L265.85 236.8L259.6 259.35L268.95 258.9M191.5,200.15Q175.7 180.3 150.7 189.1Q151.25 221.1 151.1 253.45Q165.7 255.2 181.45 252.1Q207.9 246.85 201.85 221.4Q199.05 209.6 191.5 200.15" />
</g>
</svg>
