<?xml version="1.0" encoding="utf-8"?>
<svg version="1.1" id="Layer_1"
xmlns="http://www.w3.org/2000/svg"
xmlns:xlink="http://www.w3.org/1999/xlink"


xml:space="preserve">
q9.4 3.25 15.15 9.95q6.85 8 6.85 19.65q-0.7 5.15 -3.65 8.95q-8.45 10.7 -36.7 12.25q-0.25 -0.85 -0.25 -2.65q0 -1.8 0.25 -2.6q0.2 -0.7 1 -1.9q0 -7.3 2.4 -26.7q1.25 -10.2 2.15 -15.65q-0.5 -0.65 -0.5 -2.4q0 -3.15 6.9 -3.8q7.05 -0.65 15.1 2.1q-14.8 -13.85 -21.7 -18.7q-17 -11.8 -32.65 -11.8q-34.75 0 -48.5 28q-4.4 8.9 -6.1 19.7q-0.9 5.55 -0.9 9.9q0 43 18.6 80.15q7.35 14.7 19.1 31.5q5.7 8.2 21.85 29.6q14.15 18.7 21.85 30.45q11.55 17.55 19.1 34.1q18.6 41.05 18.6 90.7q0 28.25 -2.45 46.35q-3.1 22.5 -12.05 49.65q-3.85 11.75 -10.7 24.3q-7.45 13.55 -16.15 23.7q-5.45 6.45 -36.15 26.45q-29.15 19.05 -30.85 19.05q-33.75 0 -48.45 -21.5q-11.05 -16.1 -11.05 -43.85q-0.55 -3.2 -0.3 -5.4q0.55 -4.3 4.8 -4.25q-1.6 0.1 -1.6 -1.4q0 -1.55 0.25 -1.2q3.35 0.35 4.5 1.5q-0.4 2.4 -0.4 3.85q0 19.45 9.55 36.05q10.45 18.2 25.45 18.2q17.9 0 37.7 -9.8q17.5 -8.6 34 -23.5q15.05 -13.6 25.3 -28.65q10.05 -14.7 11.6 -25.05q6.55 -35.5 6.55 -47.2q0 -44.9 -18.55 -83.55q-7.35 -15.4 -19 -32.65q-6.6 -9.85 -21.75 -30.15q-14.55 -19.55 -21.75 -30.45q-11.6 -17.45 -19 -33.4q-18.55 -39.8 -18.55 -86.65q0 -18.35 3.35 -28.85q5.35 -16.95 21.15 -28.9q15.3 -11.65 32.9 -11.85q14.7 -0.2 29.45 7.45q12.2 6.3 21.15 15.95q8.1 8.75 8.1 13.7q0 1.85 -0.4 3q-13.1 3.25 -18.5 3.25q-2.6 0 -3.95 -0.75q-0.65 1.95 -1.15 4q-1.15 4.85 -1.15 7.5q0 4.15 3.05 9q4.6 7.25 13.2 7.25q27.55 0 34.85 -12.75q0.45 1.05 0.45 2.6q0 1.2 -1.5 3.7q-1.95 3.15 -5.05 5.8q-9.1 7.75 -23.55 7.75q-17.8 0 -23.45 -11.25q-2.3 -4.5 -2.3 -12.75q0 -3.4 1.4 -10.1q1.75 -8.3 4.65 -15.4q8.2 -20.25 21.2 -20.25q13.3 0 18.3 3.25q3.7 2.4 3.7 7.5q-3.65 -2.05 -8.75 -2.05q-15.1 0 -23.3 15.9q6.8 -1.2 20.9 -5.6q13.55 -3.15 13.55 4.05q0 3.4 -15.25 7.15q0 -9.25 -6.6 -15.3q-9.35 -8.6 -30.4 -9q-0.65 10.95 -3.7 16.3q25.2 -2.35 34.5 -8.05q6.1 -3.8 6.1 -10.8q-14 0.45 -25.8 2.3q-3.9 18.7 -10.1 40.1q-5.45 18.65 -21 65.15q-1.5 -2.65 -2.1 -4.2q-0.65 -1.6 -0.65 -2.9q15.5 -48.4 22 -66.4q4.8 -13.1 8.45 -31.65q-1.85 -0.45 -2.45 -1.8q-0.25 -0.55 -0.25 -2.3q0 -2.45 0.25 -2.9q0.7 -1.05 4 -1.8q2.1 -11.9 7.45 -34q1.95 -11.15 3.55 -17.4q1.15 -4.65 2.3 -17.35q-0.05 -4.5 1.55 -6.25q0.65 3.45 1 8.7q3.3 32.5 14.35 136.7q12.9 121.85 12.9 125.6q-5.15 -34.85 -13.7 -114.65q-7.7 -73.65 -9.95 -101.2q-3 16.15 -10.3 49.65q-13.2 60.3 -14.15 67.9q9.6 -1.4 39.95 -4.15q0 8.9 -4.25 49.65q-4.2 39.65 -5.5 45.6q1.95 -1.5 4.15 -2.05q2.5 2.5 2.5 5.65q-0.55 1.35 -2.5 2q-7.4 0 -10.75 1.6q-2.95 2.05 -5.75 2.9q-1.05 -0.9 -1.45 -2.2q-0.3 -1.1 -0.3 -3.15q0 -10.1 2.75 -27q3.05 -18.8 3.5 -27.4q0.25 -4.5 2.95 -28.4q2.55 -22.75 2.55 -25.2q0 -1.75 0.75 -2.9q0.65 -1.05 1.5 -1.25q1.25 2.8 1.25 6.75q0.85 -1 3.25 -2.8q16 -2.3 24.05 9.7q2.7 4.05 4.15 9.25q1.05 3.75 1.05 6.05q0 1.05 -1.05 3.8q-1.45 3.6 -3.65 6.7q-2.55 3.5 -5.7 5.7q4.3 4.95 10.3 13.2q10.65 14.7 21.35 32.1q0 2.5 -0.25 2.25q-10.6 -10.15 -26.35 -30.7q-7.3 -9.55 -11 -15q-14.25 0 -19 -3.65q-7.25 29.9 -11.5 46.15q0 -3.55 7.35 -35.15q8.05 -34.8 13.15 -48.35q-1 5.35 -6.5 28.4q0.95 0.4 2.3 1.1q3.45 1.75 7.15 1.75q4.4 0 8.8 -1.1q0.3 -4.65 4.7 -1.45q3 -1.2 6.05 -2.9q8.2 -4.65 8.2 -6.8q0 -1.95 -2.3 -5.7q-2.55 -4.2 -6.15 -7.4q-9.8 -8.8 -19.3 -3.65q-2 -2.8 -5.05 -4.7q-7.2 -4.45 -27.05 -7.4q-16.45 1.45 -30.15 18.75q-11.65 14.75 -20.55 39.9q-7.45 21 -11.8 45.6q-3.75 21.35 -3.75 36q-2.1 18.65 -3.4 33.3q5.25 -0.1 18.5 0.4q26.6 1 35.9 0.9q2 2.4 2 6q0 1.85 -0.45 3.1q-13.35 -0.2 -30 -0.8q-1.1 14.8 -1.1 24.3q3.9 48.55 10.65 89q9.4 56.25 23.05 88.4q17 40.05 39.7 40.05q37.9 0 54.75 -27.2q5.65 -9.1 8.6 -21.05q1.2 -4.65 2.65 -14.5q0 26.25 -22.25 47.25q-9.15 8.65 -19.8 13.8q-10.3 4.95 -18.45 4.95q-39.65 0 -60.4 -65.9q-6.55 -20.9 -10.55 -46.65q-6.5 -42.25 -9.35 -68.55q-4.15 -37.8 -4.15 -68.3q0 -32.05 5.05 -75.9q5.7 -49.4 15.4 -90.35q11.4 -48.1 26.1 -73.8q17.15 -30 37.2 -26.45q18.85 1.7 28.25 9.45q7.25 5.95 7.25 13.55q0.2 0.6 0.2 2.6q0 1.7 -0.35 2.6q-6.5 -0.35 -7 -0.85q-1.25 -2.8 -1.25 -8.25q0 -8.4 2.5 -50.45q0.15 -4.05 -0.3 -12.1q0 -3.55 1.75 -4q2.5 4.5 2.6 12.75q1 3 1 8.25q0 5.75 -2.6 44.05q2.85 0.5 3.55 2.65q14.9 24 17.5 30.65q3.75 9.45 3.75 27.1q-1.15 16.6 -6.3 29.1q-15.2 36.45 -64.7 39.65q-15.9 1.1 -21.9 -2.45q-2.95 75.4 -5.2 105.3q-4.35 51.85 -10.9 89.8q-1.8 -1.55 -3.05 -4.65q-0.95 -2.45 -0.95 -3.7q0 -13.8 3.85 -49.15q5.45 -47.1 8.55 -77.15q12.35 -120.3 12.35 -226.85q0 -5.65 -0.75 -20.7q-0.8 -15.3 -1.25 -17.4q1 -7.5 1 -22.5q0 -2.2 -1.5 -8.3q-2.55 -1.7 -2.55 -3.25q0 -3.2 3.1 -4.2q0.4 -0.7 0.9 -1.05q3.25 -0.55 9.05 0.65q11.1 2.4 39.05 13.35q11.15 5.75 19.75 14q7 6.75 11.75 14.5q-11.5 -18.4 -47.35 -30.6q1.4 6.35 1.75 14.5q0.3 8.1 1.2 13.5q0.7 18.25 0.9 42.05q62.5 0 79 -36.1q5.3 -11.55 5.4 -26.25q0.05 -4.55 -0.4 -9.7q0 -13.1 -4.8 -23.55q-2.6 -5.75 -16.2 -27.45q1.8 3.4 1.8 5.05q0 2.5 -0.25 2.25q-3 -4.5 -6.8 -8.35q-7.4 -7.65 -16.7 -7.65q-26.7 13.9 -35.1 51.6q-3 13.55 -3.8 31.1q-0.35 7.25 -0.35 26.55q11.35 3.05 27.45 3.05q6.85 0 14.75 -1.35q1.65 0 2.2 1.7q0.3 1 0.3 3.55q0 2.75 -1.75 4.5q-21.55 0 -30.45 -3q0.5 1.6 2 10.8q1.5 9.6 3.25 15.5q5.8 19.95 19 19.95q15.7 0 27.75 -14.95q4.25 -5.25 7.1 -11.25q2.4 -5.05 2.4 -7.15q0 -2.2 -0.6 -3.7q1.3 1 1.3 5.1q0 3.9 -2.65 10.8q-2.95 7.6 -7.6 14.35q-12.3 17.95 -27.5 17.95q-22.05 0 -29 -39.7q-2.25 -12.8 -2.7 -28.9q-0.35 -22.95 -0.2 -39.1q0.4 -29.9 3.3 -52q8.6 -65.4 39.65 -71.3q16.05 -2 26.4 8q3.6 3.45 5.8 7.7q-0.3 -1.35 -0.3 -3q0 -5.75 5.65 -28.1q5.35 -21.15 8.1 -28.15q5.1 31.4 10 52.5q0.3 0 0.65 0.4q3.65 -15.95 3.45 -23.8q2.5 -0.9 2.8 -1.9q0.1 -1.25 0.7 -2.35q1.5 0.85 1.8 1.25q0.45 0.65 0.45 2.4q0 2.7 -6.05 28.6q-6.5 27.7 -7.2 32.5q-0.45 0.45 -1.05 0.6q-4.2 -9.4 -7.35 -23.75q-1.95 6.8 -5.6 21.45q7.35 1.05 12.05 4.2q5.45 3.7 5.45 9.3q-0.5 2.75 -3.2 4.8q6.25 5.75 9.25 10.8q1.15 3.1 7.55 8.3q6.35 5.1 7.95 9.45q-0.5 0.75 -1.5 1q-14.35 -12.3 -24.3 -21.9q-6.25 -6.05 -9 -9.4q-7.95 1.9 -20.7 2.45q-3.3 20.9 -4 23.35q-0.55 -1.05 -0.65 -1.85q0 -5 3.15 -25.5q-0.5 -0.4 -0.5 -0.75q0 -3.1 6.05 -4.4q-0.15 -0.55 -0.15 -2.15q0 -2.15 2.8 -3.45q0 3 -1.35 13q6.25 -1.4 6.25 -4.65q0 -1.85 -5.5 -5.6q-5.15 -3.55 -6.5 -3.55<g id="519" transform="matrix(1, 0, 0, 1, 0.6, 3.35)">
<path style="fill:#000000;fill-opacity:1" d="M372.5,-0.6Q381.9 2.65 387.65 9.35Q394.5 17.35 394.5 29L394.35 36.55Q393.65 41.7 390.7 45.5Q382.25 56.2 354 57.75L347.5 57.5L346.5 55.65Q346.25 54.8 346.25 53Q346.25 51.2 346.5 50.4Q346.7 49.7 347.5 48.5L347.6 48.5L347.5 46.75Q347.5 39.45 349.9 20.05Q351.15 9.85 352.05 4.4L351 3.5Q350.5 2.85 350.5 1.1Q350.5 -2.05 357.4 -2.7Q364.45 -3.35 372.5 -0.6M533.45,40.5L532.1 42.75Q517.3 28.9 510.4 24.05Q493.4 12.25 477.75 12.25Q443 12.25 429.25 40.25Q424.85 49.15 423.15 59.95Q422.25 65.5 422.25 69.85Q422.25 112.85 440.85 150Q448.2 164.7 459.95 181.5Q465.65 189.7 481.8 211.1Q495.95 229.8 503.65 241.55Q515.2 259.1 522.75 275.65Q541.35 316.7 541.35 366.35Q541.35 394.6 538.9 412.7Q535.8 435.2 526.85 462.35Q523 474.1 516.15 486.65Q508.7 500.2 500 510.35Q494.55 516.8 463.85 536.8Q434.7 555.85 433 555.85Q399.25 555.85 384.55 534.35Q373.5 518.25 373.5 490.5Q372.95 487.3 373.2 485.1Q373.75 480.8 378 480.85L378.25 480.1L376.1 480.25Q374.5 480.35 374.5 478.85Q374.5 477.3 374.75 477.65L375 478.35Q378.35 478.7 379.5 479.85L378.9 483.5Q378.5 485.9 378.5 487.35Q378.5 506.8 388.05 523.4Q398.5 541.6 413.5 541.6Q431.4 541.6 451.2 531.8Q468.7 523.2 485.2 508.3Q500.25 494.7 510.5 479.65Q520.55 464.95 522.1 454.6L529.8 414.05Q536.35 378.55 536.35 366.85Q536.35 321.95 517.8 283.3Q510.45 267.9 498.8 250.65Q492.2 240.8 477.05 220.5Q462.5 200.95 455.3 190.05Q443.7 172.6 436.3 156.65Q417.75 116.85 417.75 70Q417.75 51.65 421.1 41.15Q426.45 24.2 442.25 12.25Q457.55 0.6 475.15 0.4Q489.85 0.2 504.6 7.85Q516.8 14.15 525.75 23.8Q533.85 32.55 533.85 37.5Q533.85 39.35 533.45 40.5M486.5,86Q473.4 89.25 468 89.25Q465.4 89.25 464.05 88.5Q463.4 90.45 462.9 92.5Q461.75 97.35 461.75 100Q461.75 104.15 464.8 109Q469.4 116.25 478 116.25Q505.55 116.25 512.85 103.5L513.65 105.4Q514.1 106.45 514.1 108Q514.1 109.2 512.6 111.7Q510.65 114.85 507.55 117.5Q498.45 125.25 484 125.25Q466.2 125.25 460.55 114Q458.25 109.5 458.25 101.25Q458.25 97.85 459.65 91.15Q461.4 82.85 464.3 75.75Q472.5 55.5 485.5 55.5Q498.8 55.5 503.8 58.75Q507.5 61.15 507.5 66.25L507.25 70L506.8 70.45L506 71.25L499.35 66.55Q495.7 64.5 490.6 64.5Q475.5 64.5 467.3 80.4Q474.1 79.2 488.2 74.8Q501.75 71.65 501.75 78.85Q501.75 82.25 486.5 86M391.5,29.35Q391.5 20.1 384.9 14.05Q375.55 5.45 354.5 5.05L354.5 6.35L354.6 31.9Q353.95 42.85 350.9 48.2Q376.1 45.85 385.4 40.15Q391.5 36.35 391.5 29.35M328.4,170.3L323 171.1Q309 171.55 297.2 173.4L289.6 174.85Q285.7 193.55 279.5 214.95Q274.05 233.6 258.5 280.1Q257 277.45 256.4 275.9Q255.75 274.3 255.75 273Q271.25 224.6 277.75 206.6Q282.55 193.5 286.2 174.95Q284.35 174.5 283.75 173.15Q283.5 172.6 283.5 170.85Q283.5 168.4 283.75 167.95Q284.45 166.9 287.75 166.15L292.5 138.5Q294.6 126.6 299.95 104.5L308 70.25L310.95 53.15Q312.9 42 314.5 35.75Q315.65 31.1 316.8 18.4L317.2 14.45L317 11.35Q316.95 6.85 318.55 5.1L319.25 2.5Q319.9 5.95 320.25 11.2L320.5 16.95Q323.8 49.45 334.85 153.65Q347.75 275.5 347.75 279.25L347.5 283.35L346.95 283.8L346 284.6Q340.85 249.75 332.3 169.95L328.4 170.3M328.4,133.15Q320.7 59.5 318.45 31.95Q315.45 48.1 308.15 81.6Q294.95 141.9 294 149.5L291.45 165.45Q301.05 164.05 331.4 161.3L328.4 133.15M372.5,221.35Q372.5 230.25 368.25 271Q364.05 310.65 362.75 316.6L362.75 320.85Q364.7 319.35 366.9 318.8L375.5 318.1L384.05 318.3L391.5 318.85L418.25 319.35Q420.75 321.85 420.75 325L420.5 326.85Q419.95 328.2 418 328.85L391.5 328.35L384.05 327.8L375.5 327.6Q368.1 327.6 364.75 329.2Q361.8 331.25 359 332.1Q357.95 331.2 357.55 329.9Q357.25 328.8 357.25 326.75Q357.25 316.65 360 299.75Q363.05 280.95 363.5 272.35Q363.75 267.85 366.45 243.95Q369 221.2 369 218.75Q369 217 369.75 215.85Q370.4 214.8 371.25 214.6Q372.5 217.4 372.5 221.35M356.75,382.4Q357.6 381.4 360 379.6Q376 377.3 384.05 389.3Q386.75 393.35 388.2 398.55Q389.25 402.3 389.25 404.6Q389.25 405.65 388.2 408.4Q386.75 412 384.55 415.1Q382 418.6 378.85 420.8Q383.15 425.75 389.15 434Q399.8 448.7 410.5 466.1Q410.5 468.6 410.25 468.35L409.8 468.8L409 469.6Q398.4 459.45 382.65 438.9Q375.35 429.35 371.65 423.9L367 424.35Q352.75 424.35 348 420.7Q340.75 450.6 336.5 466.85L335.5 467.1L334.95 465.9L334.75 463.35Q334.75 459.8 342.1 428.2Q350.15 393.4 355.25 379.85L356.05 381.75L356.25 383.15L356.75 382.4M356.25,386.1L356.05 385.85Q355.05 391.2 349.55 414.25Q350.5 414.65 351.85 415.35Q355.3 417.1 359 417.1Q363.4 417.1 367.8 416Q368.1 411.35 372.5 414.55Q375.5 413.35 378.55 411.65Q386.75 407 386.75 404.85Q386.75 402.9 384.45 399.15Q381.9 394.95 378.3 391.75Q368.5 382.95 359 388.1L356.25 386.1M294.85,25.1Q292.85 22.3 289.8 20.4Q282.6 15.95 262.75 13Q246.3 14.45 232.6 31.75Q220.95 46.5 212.05 71.65Q204.6 92.65 200.25 117.25Q196.5 138.6 196.5 153.25L191 198Q188.9 216.65 187.6 231.3Q192.85 231.2 206.1 231.7Q232.7 232.7 242 232.6L255.25 232.85Q257.25 235.25 257.25 238.85Q257.25 240.7 256.8 241.95L255.25 244.85L248.4 245.3L241 246.1Q227.65 245.9 211 245.3L187 244.1L186.6 243.95Q185.5 258.75 185.5 268.25L188.1 310.15Q192 358.7 198.75 399.15Q208.15 455.4 221.8 487.55Q238.8 527.6 261.5 527.6Q299.4 527.6 316.25 500.4Q321.9 491.3 324.85 479.35Q326.05 474.7 327.5 464.85L328.25 464.6L328.5 475.85Q328.5 502.1 306.25 523.1Q297.1 531.75 286.45 536.9Q276.15 541.85 268 541.85Q228.35 541.85 207.6 475.95Q201.05 455.05 197.05 429.3L194 405.35Q187.5 363.1 184.65 336.8Q180.5 299 180.5 268.5Q180.5 236.45 185.55 192.6Q191.25 143.2 200.95 102.25Q212.35 54.15 227.05 28.45Q244.2 -1.55 264.25 2Q283.1 3.7 292.5 11.45Q299.75 17.4 299.75 25L299.5 29.5L298.95 29.95L298 30.75L294.85 25.1M182.55,161.4Q182.75 162 182.75 164Q182.75 165.7 182.4 166.6L181.25 168.35L158.5 168.35L158 167.85Q151.5 167.5 151 167L141.5 166.5Q140.25 163.7 140.25 158.25Q140.25 149.85 142.75 107.8L145.25 65.25L145.25 23.25Q145.4 19.2 144.95 11.15L144.5 2.25Q144.5 -1.3 146.25 -1.75Q148.75 2.75 148.85 11L148.75 23.75L148.75 62Q149.75 65 149.75 70.25Q149.75 76 147.15 114.3L144.25 157L156.45 157.95L179 158.75Q181.85 159.25 182.55 161.4M107,45Q121.9 69 124.5 75.65Q128.25 85.1 128.25 102.75L128 124.85Q126.85 141.45 121.7 153.95Q106.5 190.4 57 193.6Q41.1 194.7 35.1 191.15L32.7 258.05Q29.75 333.45 27.5 363.35L20.9 453.3Q16.55 505.15 10 543.1Q8.2 541.55 6.95 538.45Q6 536 6 534.75Q6 520.95 9.85 485.6Q15.3 438.5 18.4 408.45Q30.75 288.15 30.75 181.6Q30.75 175.95 30 160.9Q29.2 145.6 28.75 143.5L28.75 99.25Q29.75 91.75 29.75 76.75L28 22.75Q28 20.55 26.5 14.45L25.55 10.25Q23 8.55 23 7Q23 3.8 26.1 2.8Q26.5 2.1 27 1.75L27.4 2.5Q30.65 1.95 36.45 3.15Q47.55 5.55 75.5 16.5Q86.65 22.25 95.25 30.5Q102.25 37.25 107 45M102.75,51.5Q91.25 33.1 55.4 20.9L32.65 13.5L30.9 12.85Q32.3 19.2 32.65 27.35L33.05 41Q33.35 49.1 34.25 54.5L34.25 98.75Q34.95 117 35.15 140.8L35.25 179.5L40.25 179.85Q102.75 179.85 119.25 143.75Q124.55 132.2 124.65 117.5Q124.7 112.95 124.25 107.8L123.75 102.5Q123.75 89.4 118.95 78.95Q116.35 73.2 102.75 51.5M312.2,291.8Q314 295.2 314 296.85Q314 299.35 313.75 299.1L313.45 299.4L313 299.85Q310 295.35 306.2 291.5Q298.8 283.85 289.5 283.85L279.75 284.1Q253.05 298 244.65 335.7Q241.65 349.25 240.85 366.8Q240.5 374.05 240.5 393.35L240.55 397.3Q251.9 400.35 268 400.35Q274.85 400.35 282.75 399L293.25 397.6Q294.9 397.6 295.45 399.3Q295.75 400.3 295.75 402.85Q295.75 405.6 294 407.35L273.5 409.35Q251.95 409.35 243.05 406.35L240.75 405.45L240.75 406.1L240.75 467.6Q241.25 469.2 242.75 478.4Q244.25 488 246 493.9Q251.8 513.85 265 513.85Q280.7 513.85 292.75 498.9Q297 493.65 299.85 487.65Q302.25 482.6 302.25 480.5Q302.25 478.3 301.65 476.8L299.5 471.85L305.45 475.4Q306.75 476.4 306.75 480.5Q306.75 484.4 304.1 491.3Q301.15 498.9 296.5 505.65Q284.2 523.6 269 523.6Q246.95 523.6 240 483.9Q237.75 471.1 237.3 455L237.25 438.5Q236.9 415.55 237.05 399.4Q237.45 369.5 240.35 347.4Q248.95 282 280 276.1Q296.05 274.1 306.4 284.1Q310 287.55 312.2 291.8M322.8,547.1Q322.5 545.75 322.5 544.1Q322.5 538.35 328.15 516Q333.5 494.85 336.25 487.85Q341.35 519.25 346.25 540.35Q346.55 540.35 346.9 540.75L347.5 541.35L353.05 516.4Q356.7 500.45 356.5 492.6Q359 491.7 359.3 490.7Q359.4 489.45 360 488.35Q361.5 489.2 361.8 489.6Q362.25 490.25 362.25 492Q362.25 494.7 356.2 520.6Q349.7 548.3 349 553.1L348.55 553.5Q348.1 553.95 347.5 554.1Q343.3 544.7 340.15 530.35L335.5 506.1Q333.55 512.9 329.9 527.55L324.25 549.35L323.5 549.35L322.8 547.1M109.45,491.7L121.5 491.35Q128.85 492.4 133.55 495.55Q139 499.25 139 504.85L139 508.55Q138.5 511.3 135.8 513.35L133.35 514.85L136.5 517.55Q142.75 523.3 145.75 528.35Q146.9 531.45 153.3 536.65Q159.65 541.75 161.25 546.1L161 547.6Q160.5 548.35 159.5 548.6Q145.15 536.3 135.2 526.7Q128.95 520.65 126.2 517.3Q118.25 519.2 105.5 519.75L104.5 526.25Q101.2 547.15 100.5 549.6L99.5 549.85Q98.95 548.8 98.85 548L98.75 545.35Q98.75 540.35 101.9 519.85L101 519.85L97.5 517.75Q97 517.35 97 517Q97 513.9 103.05 512.6L105.4 498.9L104.5 499.1L104.15 498.25Q104 497.7 104 496.1Q104 493.95 106.8 492.65L107.25 491.1L107.55 492.3L109.45 491.7M125,495.85L110.4 496.75L108 498.05L108 499Q108 502 106.65 512L117 511.15L130.75 509.65Q137 508.25 137 505Q137 503.15 131.5 499.4Q126.35 495.85 125 495.85" />
</g>
</svg>
