<?xml version="1.0" encoding="utf-8"?>
<svg version="1.1" id="Layer_1"
xmlns="http://www.w3.org/2000/svg"
xmlns:xlink="http://www.w3.org/1999/xlink"


xml:space="preserve">
q0 1.6 -0.35 2.4q0 30 -1.7 47.8q-4.4 46.55 -5.3 59.1q-1.5 -2.75 -1.5 -9.15q0 -25.05 3 -62.4q1.95 -24.4 4.9 -50.3q-13.75 -0.55 -25.9 -2.9q-8.7 -1.7 -10.6 -1.1q-0.2 -0.5 -0.2 -2.15q0 -3.2 1.15 -3.9q1.05 -0.7 5.05 -0.05q3.25 6.75 3.25 11.95q-0.1 0 -0.55 0.45q-0.8 -0.8 -1.55 -4.4q-0.95 -4.8 -1.65 -6.7q-3.15 -8.9 -12.8 -8.9q-23.25 0 -30.2 41.25q-2.2 12.85 -2.6 29.25q-0.25 8.25 -0.2 15.25q-4.45 31.25 -4.1 48.45q9.85 -2 28.35 1.25q15.5 0 18.8 2.55q1.15 0.85 1.05 2.25q0.05 0.35 -1.5 0.35q-1.45 0 -2.5 -0.85q-1.05 -0.9 -1.35 -0.9q-14.75 -0.2 -22.55 0.25q-8.6 0 -12.75 -2.1q-0.55 15.15 -2.75 28q-1 8.25 -1 24.4q0.1 8.55 1.45 14.75q3.75 16.9 19.45 27.35q17.75 -11.15 29.6 -24q11.55 -12.5 15.65 -24.5q0.7 14.45 -12.15 30.45q-11.9 14.75 -34.35 29.55q-18.65 -12.5 -23.15 -33.35q-1.65 -7.6 -1.8 -18.15q0 -19.9 1 -29.65q-1 -6 -1 -18.75q0 -45.25 7.25 -85.35q10.85 -60 33.5 -60q9.85 0 15 10.55q0 2.4 -16.85 32.65q3.55 14.35 10 46.6q7.25 36.15 7.25 39.9q-16.75 -65.05 -18.3 -86.65q-11 18.85 -17.85 28.55q-5.5 41 -8.1 55.6q-1.55 -0.8 -2 -1.45q-0.5 -0.75 -0.5 -2.55q0 -2.2 2.15 -14.4q6.85 -46.05 6.85 -87.25q0 -0.9 0.85 -2.05q0.9 -1.25 2.15 -1.8q1 3.75 1 12q0 14.75 -5.9 60.65q4.2 -8.5 14.2 -26.4q18.05 -32.4 27.7 -45.5q3.4 -5.55 21.3 6q18.65 12.05 38.6 32q3.5 7.05 14.8 25.3q9.2 15 12.7 24.2q14 37.55 14 98.1q0 12.55 -1.7 27q-3.45 28.8 -12.5 52.5q-12.5 32.65 -34.25 51.2q-26.9 22.9 -66.5 23.05q-2.25 -2.15 -2.75 -3.9q-2.6 -0.85 -3.45 -3.35q0 -4 1.55 -5.25q0.9 -0.75 2.6 -1.2q0.9 -12 3.1 -36.35q4.15 -46.5 7 -63.95q2.3 -23.2 4.15 -54.7q2.1 -35.8 2.1 -59.15q0 -7.35 -1.35 -23.9q-1.4 -16.55 -1.4 -24.85q0 -1.85 0.65 -3.45q0.6 -1.6 1.35 -1.8q1.6 8.4 2.1 17.7q0 11.65 -2.7 63.35q-2.5 48.75 -3.05 53.5q-1.9 15.25 -5.9 56.6q57.6 0 84.75 -58.7q9.7 -21 14.45 -47.5q3.55 -19.75 3.55 -36.55q0 -25.85 -2.9 -43.5q-3 -18.35 -12.35 -47.85q-3.1 -9.85 -11.55 -23.15q-7.55 -11.95 -16.7 -22.6q-6.75 -7.9 -31.95 -23.7q-11.7 -7.35 -15.45 -10.05q-1.7 -0.55 -2.35 -1.6q-1.65 8.65 -6.4 28.6q0 -2.5 3.9 -23.5q3.85 -21 3.85 -39.75q0 -1.9 0.5 -3.45q0.5 -1.6 1.25 -1.8q0.8 -2.35 3.2 -2.15q3.3 0.25 8 5q4.75 4.8 7.95 11.3q3.65 7.2 3.65 13.45q-0.05 1.85 -0.85 2.95q-3.75 -5.15 -5.35 -5.15q-8.8 10.3 -12.75 24.2q-2.35 8.2 -4.25 24.8q-1.4 13.45 -1.4 24q0.15 6.1 1.35 10.25q3.5 11.95 16.75 11.95q14.3 0 20.65 -10.8q1.7 -2.9 3.6 -8.3q1.6 -4.65 2.5 -5.65q0 1.6 -0.95 5.85q-1.35 5.85 -3.6 10.7q-6.8 14.95 -18.95 14.95q-19.3 0 -23.8 -18.7q-1.4 -5.95 -1.2 -13.6q0 -11.8 2 -31.85q2.6 -26.1 6.95 -43.95q5.65 -23.15 13.35 -27.85q9.35 -5.7 21.2 16.5q6.2 45.55 11.6 90.05q-0.4 1.3 -1.75 3.4q7.8 67.6 7.8 91.4q-0.55 0.45 -1.15 0.6q-3.85 -32.2 -10.15 -95.5q-6.85 -1.2 -8.75 -3.05q-21.4 56.85 -41.5 96.65q-1.6 -1.4 -2.45 -2.85q-0.55 -1 -0.55 -1.55q19.8 -43.2 27.15 -62.2q5.45 -14.95 8.2 -25.8q3.95 -15.75 8.3 -28.7q5.5 -16.5 9.2 -20.8q-1.15 -1.1 -2.45 -4.2q-4.2 -6.5 -14.7 -6.5q-29.35 0 -45.7 44.15q-8.3 22.35 -11.3 47.6q-3.75 19.15 -5.7 47.1q-1.1 15.75 -3.05 47.4q-0.9 10.75 -2.05 29.35q2.25 1.55 3.1 3.4q0.65 1.35 0.65 3.35q0 3.65 -13.2 6q-16.9 3 -52.05 3q-1.6 26.55 -3.55 66.25q-3.6 72.85 -3.6 83.45q0 27.05 7.45 50.65q10.9 34.25 33.55 37.85q28.15 -9.5 43.7 -21.5q12.5 -9.6 18.75 -22.55q2.3 -4.7 4.5 -11.3q2.3 -7.5 3.55 -11.15q4.45 -13.3 11.5 -21.25q-7.7 38.5 -31.95 70.05q-10.9 14.2 -22.25 22.35q-11.7 8.35 -21.3 8.35q-36.65 0 -48.75 -51q-3.75 -15.95 -4.65 -35.15q0 -17.95 5.5 -108.85q4 -66.15 6.25 -98.4q1.25 -16.25 6 -51.5q4.6 -33.65 5.75 -52q1.35 -20.85 13.95 -40.15q11.3 -17.2 27 -27q15.5 -9.6 26.25 -6.45q11.8 3.4 11.8 21.35q17.55 2.55 27.15 3.1q-6.35 -63.55 -10.15 -95.25q-21.05 58.55 -33.1 90.75q-1 5.25 -1 15.75q7.45 -0.6 22 0.5q2 1.3 3.25 2.95q1 1.25 1 1.8q-0.3 -0.75 -0.3 -2.35q0 -10.6 0.5 -30.8q0 -1.75 0.95 -3.25q0.85 -1.3 1.8 -1.6q0.5 0.75 1 2.25q2.2 -0.55 2.95 1.2q35.6 -7.1 52.2 46.65q5.95 19.4 8.75 44.7q1.85 16.55 1.85 28.45q0 4.1 -2.35 17.25q-3.3 18.35 -8.6 33.75q-16.4 47.75 -44.8 47.75q-10.75 0 -16.55 -3.6q-1 11.55 -5.05 45.35q-3.45 29.15 -4.45 46.15q-1.15 21.85 -1.15 43.65q0 2.5 -0.95 9.85q-1 7.55 -1.55 8.25q-3.3 -9.45 -3.45 -25.75q0 -13.85 7.2 -81.9q-1.3 -2.15 -1.3 -4.6q0 -1.85 0.45 -3.1q0.4 -1 1.35 -2.25q-0.25 -1.25 -0.25 -3.75q0 -1.55 0.15 -2.45q-0.45 16.45 -4.55 102.7q31.45 0 48.75 -42q5.55 -13.55 8.9 -29.7q2.35 -11.4 2.35 -15.3q0 -13.2 -2.25 -30q-3.05 -22.9 -9.2 -40.45q-15.95 -45.7 -47.6 -42.15q0 9.95 -6.45 79.15q-7.2 77.45 -12.3 107.6q-1.85 -0.5 -2.35 -4.05q-0.15 -1.2 -0.15 -4.95q0 -13.6 8.35 -93.15q7.95 -75.85 11.15 -97.35q1.75 4.4 1.75 12.75q-0.4 1.5 -1.65 3.1q0.35 -5.5 -0.7 -8.5q-1.9 -5.5 -11.05 -5.5q-23.65 0 -37 47q-2.4 8.45 -4.15 17.25q0 1.25 -0.85 2.2q-2.2 12.45 -3.25 25.5q0 8.8 3.5 18.35q5.95 16.25 19 16.25q20.5 0 29.7 -14.25q4.5 -7 5.8 -17.25q0.4 2.2 0.4 3.65q0 1.55 -1.5 6.25q-2 6.15 -4.95 11.35q-9.05 15.75 -22.8 15.75q-23 0 -30.45 -20.25q-3.05 -8.35 -3.05 -23.25q0 -31.05 9.95 -57.3q8.5 -22.4 21.95 -36.1q12.25 -12.55 21.9 -11.65q9.95 0.9 9.95 16.05q0 2.05 -0.35 3.3q-1.75 0 -3.85 0.75q-1.35 0.5 -2.25 1.05q0 14.8 -2 27.5q0.85 -0.55 2.5 -1.15q11.25 -3.65 11.25 -8.9q0 -4.3 -4 -12.7q-4.7 -9.9 -9.5 -9.9q3.4 6.15 8.1 11.35q1.65 1.85 1.65 7.9q-0.85 3.05 -4.5 6.4q9 18.9 9 21.6q-5 -6.45 -13 -24.95q-4.55 -10.55 -6.25 -15.3q-0.45 -1.05 -0.45 -2.65q0 -12.75 4.8 -37.3q5.1 -26.3 9.45 -29.7q0.55 1.1 0.8 2.75q0 -0.25 1.3 -0.3q-0.65 5.5 -3.6 20.55q1.1 -1.55 1.1 -2.45q0 -2.45 -3.9 -7.7q0 -3.25 0.55 -3.75q0.8 -0.75 5.2 -0.5q13.1 0.55 22.5 0.55q-5.75 1.5 -8.25 1.5q-6.25 0 -7 -0.75q-3.9 25.15 -3.9 27.15q0 1.6 -0.6 2.75q-1.6 -1.35 -2.45 -2.85q-0.55 -1 -0.55 -1.5q3.4 -33.45 8.05 -49.8q-2.8 2.3 -2.8 3.7q0 3.4 4.7 6.75q2.8 2.05 10.3 6.3q6.9 4.25 10.3 8.4q4.7 5.8 4.7 13.3q0 5.65 -2.5 9.05q-4.25 5.7 -15.5 5.7q-19.3 0 -30.7 -6.3q-6.65 -3.65 -9.3 -8.45q1.75 5.6 8.1 10.2q8.8 6.3 22.4 6.3q15.7 0 21.5 -3.95q3 -2.1 3 -5.3q0 -4.35 -4.7 -8.7q-2.55 -2.4 -10.3 -7.45q-7.3 -4.85 -10.3 -7.9q-4.7 -4.75 -4.7 -9.8q0 -6.75 4.2 -9.9q3.6 -2.75 9.2 -2.15q5.25 0.55 9.15 3.6q4.2 3.2 4.2 7.3q-0.55 -0.9 -0.65 -1.7q0 -1.65 -4.7 -4.15q-4.8 -2.5 -8.3 -2.5q-4.1 0 -7.45 2.8<g id="517" transform="matrix(1, 0, 0, 1, -1.55, 0)">
<path style="fill:#000000;fill-opacity:1" d="M390.95,8.5L391.25 10.85Q391.25 12.45 390.9 13.25L390 14.75L369.3 15.05L348 15.75L345.95 15.85L346.25 29.6Q346.25 59.6 344.55 77.4Q340.15 123.95 339.25 136.5L338.8 136.95L338 137.75Q336.5 135 336.5 128.6Q336.5 103.55 339.5 66.2Q341.45 41.8 344.4 15.9L339.8 16.05L331 16.75L324 16Q310.25 15.45 298.1 13.1Q289.4 11.4 287.5 12L286.95 11.15Q286.75 10.65 286.75 9Q286.75 5.8 287.9 5.1Q288.95 4.4 292.95 5.05L304.45 7L325 9L332 8.25L349 7.25L390.25 7.5L390.95 8.5M400.5,148.3Q403.75 155.05 403.75 160.25L403.5 167Q403.4 167 402.95 167.45L402 168.25Q401.2 167.45 400.45 163.85Q399.5 159.05 398.8 157.15Q395.65 148.25 386 148.25Q362.75 148.25 355.8 189.5Q353.6 202.35 353.2 218.75Q352.95 227 353 234Q348.55 265.25 348.9 282.45L349.65 298.9L350.15 312.1Q360 310.1 378.5 313.35Q394 313.35 397.3 315.9Q398.45 316.75 398.35 318.15L398 320.35L397.7 323.35L397 325.6L397.35 326Q397.4 326.35 395.85 326.35Q394.4 326.35 393.35 325.5Q392.3 324.6 392 324.6Q377.25 324.4 369.45 324.85L363 325.35Q354.4 325.35 350.25 323.25L350 350.6Q349.45 365.75 347.25 378.6L347.25 453.6Q346.25 461.85 346.25 478L346.1 492.25Q346.2 500.8 347.55 507Q351.3 523.9 367 534.35L374.25 534.1Q392 522.95 403.85 510.1Q415.4 497.6 419.5 485.6L420.25 485.6L420.5 487.1Q421.2 501.55 408.35 517.55Q396.45 532.3 374 547.1L366.5 546.85Q347.85 534.35 343.35 513.5Q341.7 505.9 341.55 495.35L341.75 477.75Q341.75 457.85 342.75 448.1L342.75 373.85L344.25 357.75L345.75 341.6L345.75 301.85Q344.75 295.85 344.75 283.1Q344.75 237.85 352 197.75Q362.85 137.75 385.5 137.75Q395.35 137.75 400.5 148.3M344.95,139.95L345.25 142.5Q345.25 144.9 328.4 175.15L321.25 187.85Q324.8 202.2 331.25 234.45Q338.5 270.6 338.5 274.35L338.25 276.8L337.25 278.5Q320.5 213.45 318.95 191.85Q307.95 210.7 301.1 220.4Q295.6 261.4 293 276Q291.45 275.2 291 274.55Q290.5 273.8 290.5 272Q290.5 269.8 292.65 257.6L297.4 229.1Q304.25 183.05 304.25 141.85Q304.25 140.95 305.1 139.8Q306 138.55 307.25 138Q308.25 141.75 308.25 150Q308.25 164.75 302.35 210.65Q306.55 202.15 316.55 184.25Q334.6 151.85 344.25 138.75L344.95 139.95M436.1,137.5Q439.5 131.95 457.4 143.5Q476.05 155.55 496 175.5Q499.5 182.55 510.8 200.8Q520 215.8 523.5 225Q537.5 262.55 537.5 323.1Q537.5 335.65 535.8 350.1Q532.35 378.9 523.3 402.6Q510.8 435.25 489.05 453.8Q462.15 476.7 422.55 476.85L422 480.6Q419.75 478.45 419.25 476.7L419.2 476.5Q416.6 475.65 415.75 473.15L415.5 469.1Q415.5 465.1 417.05 463.85Q417.95 463.1 419.65 462.65Q420.55 450.65 422.75 426.3Q426.9 379.8 429.75 362.35L429.75 302.35Q432.05 279.15 433.9 247.65Q436 211.85 436 188.5Q436 181.15 434.65 164.6Q433.25 148.05 433.25 139.75Q433.25 137.9 433.9 136.3Q434.5 134.7 435.25 134.5L436.1 137.5M437.65,144.65Q439.25 153.05 439.75 162.35L440 189.25Q440 200.9 437.3 252.6Q434.8 301.35 434.25 306.1L434.25 367.6Q432.35 382.85 428.35 424.2L424.4 461.85L430 461.6Q487.6 461.6 514.75 402.9Q524.45 381.9 529.2 355.4Q532.75 335.65 532.75 318.85Q532.75 293 529.85 275.35Q526.85 257 517.5 227.5Q514.4 217.65 505.95 204.35Q498.4 192.4 489.25 181.75Q482.5 173.85 457.3 158.05Q445.6 150.7 441.85 148L437.65 144.65M325.5,312.5L314 321.35L304 321.35Q302.3 320.8 301.65 319.75Q300 328.4 295.25 348.35L294.5 348.35L293.95 346.7L293.75 344.25Q293.75 341.75 297.65 320.75Q301.5 299.75 301.5 281Q301.5 279.1 302 277.55Q302.5 275.95 303.25 275.75L303.45 276.65Q304.25 274.3 306.65 274.5Q309.95 274.75 314.65 279.5Q319.4 284.3 322.6 290.8Q326.25 298 326.25 304.25L326.35 309.55Q326.3 311.4 325.5 312.5M330.6,361.55L330 362.35L324.95 355.5Q321.2 350.35 319.6 350.35L314.75 350.6L311.75 350.85Q302.95 361.15 299 375.05Q296.65 383.25 294.75 399.85L291.9 424.25Q290.5 437.7 290.5 448.25L290.4 457.15Q290.55 463.25 291.75 467.4Q295.25 479.35 308.5 479.35Q322.8 479.35 329.15 468.55Q330.85 465.65 332.75 460.25Q334.35 455.6 335.25 454.6L335.45 455.05L335.5 456.85Q335.5 458.45 334.55 462.7Q333.2 468.55 330.95 473.4Q324.15 488.35 312 488.35Q292.7 488.35 288.2 469.65Q286.8 463.7 287 456.05L287.5 448.25Q287.5 436.45 289.5 416.4Q292.1 390.3 296.45 372.45Q302.1 349.3 309.8 344.6Q319.15 338.9 331 361.1L330.6 361.55M268.25,3.25Q274.45 48.8 279.85 93.3L282.15 112.6L285.25 112.75Q284.85 114.05 283.5 116.15L282.7 117.35Q290.5 184.95 290.5 208.75L290.25 214L289.65 214.4Q289.1 214.85 288.5 215Q284.65 182.8 278.35 119.5L271.5 119.5L271 119L266.7 118.7L262 118L241.25 115.9Q234.4 114.7 232.5 112.85Q211.1 169.7 191 209.5Q189.4 208.1 188.55 206.65Q188 205.65 188 205.1L205.85 165.95Q225.65 122.75 233 103.75L242.55 78.55Q248 63.6 250.75 52.75Q254.7 37 259.05 24.05Q264.55 7.55 268.25 3.25M223.8,27.65L223.25 28.5L221.75 29Q220.6 27.9 219.3 24.8L216.7 19.5Q212.5 13 202 13Q172.65 13 156.3 57.15Q148 79.5 145 104.75Q141.25 123.9 139.3 151.85Q138.2 167.6 136.25 199.25Q135.35 210 134.2 228.6L135 227.5L161.4 226.1L206.5 224.25Q208.75 225.8 209.6 227.65Q210.25 229 210.25 231Q210.25 234.65 197.05 237Q180.15 240 145 240L134.5 239.75L133.65 238.4Q132.05 264.95 130.1 304.65Q126.5 377.5 126.5 388.1Q126.5 415.15 133.95 438.75Q144.85 473 167.5 476.6Q195.65 467.1 211.2 455.1Q223.7 445.5 229.95 432.55Q232.25 427.85 234.45 421.25Q236.75 413.75 238 410.1Q242.45 396.8 249.5 388.85L250.25 388.6L250.5 390.1Q242.8 428.6 218.55 460.15Q207.65 474.35 196.3 482.5Q184.6 490.85 175 490.85Q138.35 490.85 126.25 439.85Q122.5 423.9 121.6 404.7L121.5 388.5Q121.5 370.55 127 279.65Q131 213.5 133.25 181.25Q134.5 165 139.25 129.75Q143.85 96.1 145 77.75Q146.35 56.9 158.95 37.6Q170.25 20.4 185.95 10.6Q201.45 1 212.2 4.15Q224 7.55 224 25.5L223.8 27.65M235.85,107.9Q253.4 110.45 263 111L267.2 111.3L272 112L277.65 112.25Q271.3 48.7 267.5 17Q246.45 75.55 234.4 107.75L235.85 107.9M112.25,4.25L112.25 46.25Q111.25 51.5 111.25 62Q118.7 61.4 133.25 62.5Q135.25 63.8 136.5 65.45Q137.5 66.7 137.5 67.25L129 68.25L120.5 69.5L120.6 70.8L114.15 71.05L108.5 70.5L107.8 69.45Q107.5 68.7 107.5 67.1Q107.5 56.5 108 36.3L108.5 6.85Q108.5 5.1 109.45 3.6Q110.3 2.3 111.25 2Q111.75 2.75 112.25 4.25M29.9,10.9L30 9Q32.2 8.45 32.95 10.2Q68.55 3.1 85.15 56.85Q91.1 76.25 93.9 101.55Q95.75 118.1 95.75 130Q95.75 134.1 93.4 147.25Q90.1 165.6 84.8 181Q68.4 228.75 40 228.75Q29.25 228.75 23.45 225.15L21 267.5L21 345.35Q20 356.9 15.95 390.7Q12.5 419.85 11.5 436.85L8.65 484.35Q7.5 506.2 7.5 528Q7.5 530.5 6.55 537.85Q5.55 545.4 5 546.1Q1.7 536.65 1.55 520.35L2 494.25Q2 480.4 9.2 412.35L17 341.6L17 263L19.05 220.85Q17.75 218.7 17.75 216.25Q17.75 214.4 18.2 213.15Q18.6 212.15 19.55 210.9L23.45 136.65L29.6 17.95L27 18.5Q26.75 17.25 26.75 14.75Q26.75 13.2 26.9 12.3L27 11.75L29.9 10.9M33.2,17.4Q32.75 33.85 28.65 120.1L24.1 212.75L32.25 217Q63.7 217 81 175Q86.55 161.45 89.9 145.3Q92.25 133.9 92.25 130Q92.25 116.8 90 100Q86.95 77.1 80.8 59.55Q64.85 13.85 33.2 17.4M72,357.1Q72 367.05 65.55 436.25Q58.35 513.7 53.25 543.85Q51.4 543.35 50.9 539.8Q50.75 538.6 50.75 534.85Q50.75 521.25 59.1 441.7Q67.05 365.85 70.25 344.35Q72 348.75 72 357.1M270.9,219.9Q270.5 221.4 269.25 223L268 223Q268.35 217.5 267.3 214.5Q265.4 209 256.25 209Q232.6 209 219.25 256Q216.85 264.45 215.1 273.25L229 272.5L247 271.5L261 271L261 270.5L263.75 270.75L264 271.75L264.25 274.1Q264.25 275.35 263.4 276.3L261 278.5L253.8 278.8L246 279.5L237.3 279.8L228 280.5L213.75 280.25Q211.55 292.7 210.5 305.75Q210.5 314.55 214 324.1Q219.95 340.35 233 340.35Q253.5 340.35 262.7 326.1Q267.2 319.1 268.5 308.85L269.25 308.6L269.85 312.1Q270.25 314.3 270.25 315.75Q270.25 317.3 268.75 322Q266.75 328.15 263.8 333.35Q254.75 349.1 241 349.1Q218 349.1 210.55 328.85Q207.5 320.5 207.5 305.6Q207.5 274.55 217.45 248.3Q225.95 225.9 239.4 212.2Q251.65 199.65 261.3 200.55Q271.25 201.45 271.25 216.6Q271.25 218.65 270.9 219.9M310.25,281.25Q308.5 281.25 306.4 282Q305.05 282.5 304.15 283.05L304.25 288.75Q304.25 303.55 302.25 316.25Q303.1 315.7 304.75 315.1L312.5 312.75Q323.75 309.1 323.75 303.85Q323.75 299.55 319.75 291.15Q315.05 281.25 310.25 281.25M262.3,411.3L271.25 411.35Q274.65 417.5 279.35 422.7Q281 424.55 281 430.6L280.75 436.2Q279.9 439.25 276.25 442.6L271.4 443.05L269.75 443.25L277.25 458.4Q286.25 477.3 286.25 480L286.05 482.45L285.25 484.1Q280.25 477.65 272.25 459.15Q267.7 448.6 266 443.85L254.5 443.6L254.35 443.45L253.55 447.25L247.25 479.35L246.75 479.75L245.5 480.35L244.45 478.5Q244 477.45 244 475.85Q244 463.1 248.8 438.55Q253.9 412.25 258.25 408.85Q258.8 409.95 259.05 411.6L261 411.6Q261 411.35 262.3 411.3M259.1,416.85Q258.45 422.35 255.5 437.4L255.75 437.6L265.25 437.2L265.25 437.1L265.9 437.1L267 436.85L275.25 436.35L277.9 433.2Q279 431.65 279 430.75Q279 428.3 275.1 423.05L270.25 416.85L261.2 416.75L259.1 416.85M243,491.35L240.7 491.1L238.75 490.85L238.3 490.4L238.25 488.6Q238.25 485.35 238.8 484.85Q239.6 484.1 244 484.35L266.95 485.55L267 485.35L267.5 485.55Q280.6 486.1 290 486.1L295.25 486.35L295.75 488.75L295.25 491.1Q289.5 492.6 287 492.6Q280.75 492.6 280 491.85L269.1 491.55L265.65 513.85Q261.75 539 261.75 541Q261.75 542.6 261.15 543.75L260 545.6Q258.4 544.25 257.55 542.75Q257 541.75 257 541.25Q260.4 507.8 265.05 491.45L260.25 491.3L243 491.35M209.8,488.4Q207 490.7 207 492.1Q207 495.5 211.7 498.85Q214.5 500.9 222 505.15Q228.9 509.4 232.3 513.55Q237 519.35 237 526.85Q237 532.5 234.5 535.9Q230.25 541.6 219 541.6Q199.7 541.6 188.3 535.3Q181.65 531.65 179 526.85L179 520.85L179.4 520.4L180 519.35Q181.75 524.95 188.1 529.55Q196.9 535.85 210.5 535.85Q226.2 535.85 232 531.9Q235 529.8 235 526.6Q235 522.25 230.3 517.9Q227.75 515.5 220 510.45Q212.7 505.6 209.7 502.55Q205 497.8 205 492.75Q205 486 209.2 482.85Q212.8 480.1 218.4 480.7Q223.65 481.25 227.55 484.3Q231.75 487.5 231.75 491.6L231.5 496.1L231 496.6Q230.45 495.7 230.35 494.9L230.25 492.25Q230.25 490.6 225.55 488.1Q220.75 485.6 217.25 485.6Q213.15 485.6 209.8 488.4" />
</g>
</svg>
