<?xml version="1.0" encoding="utf-8"?>
<svg version="1.1" id="Layer_1"
xmlns="http://www.w3.org/2000/svg"
xmlns:xlink="http://www.w3.org/1999/xlink"


xml:space="preserve">
q-0.25 2.3 0.65 4.4q-1.6 44.7 -5.95 89.1q-1.65 16.5 3.4 29.85q1.95 -1.6 3 -3.8q34.35 9.9 62.5 -7.75q4.55 -1.25 6.9 -5.4q11.2 -19.5 9.1 -42.95q-2.95 -32.45 -30.3 -45.7q16.45 -15.25 12.35 -42.3q-5.75 -37.6 -42.05 -45.35q-4.85 0.75 -8.25 3.8q-8.1 21.55 -33.6 21q22.1 -6.25 39.2 10.5q17.1 16.65 8.6 39.25q34.8 3.65 36.45 42q0.55 13.25 -6.2 24.75q-29.85 16.8 -63.2 8.3q13.05 6.45 27.3 0.5q4.25 56.65 17.5 112.55q1.15 2.25 3.5 1.5q8 -36.1 18.05 -72.1q2.25 -8.1 6.05 -15.5q3.45 22.75 5.05 46.05q4.05 59 14.55 116.3q6.5 -5.95 3.75 -15.25q-6 -24.35 -8.15 -50.65q-4.5 -54.5 -11.15 -108.55q0.95 -7.1 -1.95 -13.25q-10.3 19.4 -16.1 41.6q-5.65 21.75 -11.95 43.4q-0.75 2.5 -1.2 4.9q-9.85 -44.35 -19.2 -88.65q-1.05 -0.25 -1 0.4q-3.1 19.5 -8.1 38.55q-14.85 56.95 -25.7 115q-1.4 7.5 -3.9 14.55q-4.95 14 3.15 21.55q2.9 -6.25 4 -13.45q6.9 -46.15 20.35 -90.35q13.1 -43.2 11.65 -86.65q-1.3 -0.3 -1.45 0.8q-6.2 -32.5 -27.2 -8.5q-10.9 12.45 -13 29.1q-2.4 18.9 3.9 36.6q8.2 23.1 31.9 8.2q14.3 -8.9 9.15 -24.9q-12.4 15.95 -32.5 16.5q-14.2 -11.8 -8.15 -30.65q4.3 -6.05 0.15 -12.25q-15.4 -2.35 -29.75 3.9q7.75 -3.2 16 -1.75<g id="545" transform="matrix(1, 0, 0, 1, -128.4, 0)">
<path style="fill:#000000;fill-opacity:1" d="M341.2,180.25L342.15 181.05L342.7 181.75L342.75 182.9Q346.15 179.85 351 179.1L357.95 178.5Q394.25 186.25 400 223.85Q404.1 250.9 387.65 266.15Q415 279.4 417.95 311.85Q420.05 335.3 408.85 354.8Q406.5 358.95 401.95 360.2Q373.8 377.85 339.45 367.95L338.95 367.4Q337.9 369.6 335.95 371.2Q330.9 357.85 332.55 341.35Q336.9 296.95 338.5 252.25L340.75 192.7L340.6 192.4Q339.7 190.3 339.95 188L340.2 185.75L341.05 184.7L341.2 180.25M382.45,204.3Q365.35 187.55 343.25 193.8L344.25 263.75L357.45 264.55Q382.95 265.1 391.05 243.55Q399.55 220.95 382.45 204.3M371.35,276.3Q357.1 282.25 344.05 275.8L340.75 352Q374.1 360.5 403.95 343.7Q410.7 332.2 410.15 318.95Q408.5 280.6 373.7 276.95L373.05 275.65L371.35 276.3M174.5,181.5Q183.85 225.8 193.7 270.15Q194.15 267.75 194.9 265.25Q201.2 243.6 206.85 221.85Q212.65 199.65 222.95 180.25Q225.85 186.4 224.9 193.5Q231.55 247.55 236.05 302.05Q238.2 328.35 244.2 352.7Q246.95 362 240.45 367.95Q229.95 310.65 225.9 251.65Q224.3 228.35 220.85 205.6Q217.05 213 214.8 221.1Q204.75 257.1 196.75 293.2L196.15 292.15L195 295.4L194.5 295.95Q192.15 296.7 191 294.45Q177.75 238.55 173.5 181.9Q173.45 181.25 174.5 181.5M172.5,180.5Q173.95 223.95 160.85 267.15Q147.4 311.35 140.5 357.5Q139.4 364.7 136.5 370.95Q128.4 363.4 133.35 349.4Q135.85 342.35 137.25 334.85Q148.1 276.8 162.95 219.85Q167.95 200.8 171.05 181.3Q171.2 180.2 172.5 180.5M295.7,289.95Q287.45 288.5 279.7 291.7L272.1 310.85Q286.45 304.6 301.85 306.95Q306 313.15 301.7 319.2L269.3 323.3Q263.25 342.15 277.45 353.95Q297.55 353.4 309.95 337.45Q315.1 353.45 300.8 362.35Q277.1 377.25 268.9 354.15Q262.6 336.45 265 317.55Q267.1 300.9 278 288.45Q299 264.45 305.2 296.95L301.85 294.05L295.7 289.95" />
</g>
</svg>
