<?xml version="1.0" encoding="utf-8"?>
<svg version="1.1" id="Layer_1"
xmlns="http://www.w3.org/2000/svg"
xmlns:xlink="http://www.w3.org/1999/xlink"


xml:space="preserve">
q-14.35 -2.15 -22.65 10.05q-8.4 12.25 -9.85 27.5q-4.25 43.35 -9.05 87q-4.95 44.8 4.85 87.85q4 17.55 20.65 23.3q4.7 1.65 8.65 -0.35q41.75 -20.95 52.1 -67.7q13.05 -58.7 -0.45 -117.2q-7.8 -33.8 -36 -51.7q6.35 -4.05 14.05 -4.65q17.55 8.9 26.5 26.25q28.15 54.35 16.25 115.8q-7.9 40.75 -41 65.4q-12.9 9.65 -22.5 -1.55q-15.65 -18.2 -14.6 -43.2q2.55 -59.25 6.85 -117.85q1.6 -21.95 13.25 -39.6q-6.05 17.35 -9.9 35.25q-3.9 17.95 -5.35 36.25q-1.2 14.8 -1.8 29.7q-0.55 14.75 -0.45 29.55q0.1 14.8 -0.55 29.55q-1.05 22.6 10.3 40.55q8.75 13.85 25.35 9.1q16.85 -4.85 27.2 -19.15q-3.4 13.35 4.2 23.95q6.35 -44.15 4 -89.5q-15.7 -2.3 -31 2.3q13.3 6.3 27.75 3.5q2.3 24 -15.85 41.2q-14.1 13.3 -32.55 8.05q-2.1 -0.55 -2.75 -3q-3.65 -13.4 -4.65 -27.2q-0.5 -9.35 -0.65 -18.7q-0.1 -6.3 0.25 -12.5q1.75 -32.55 3.8 -65.05q2.15 -33.3 24.95 -57.8q20.45 -7.45 39.5 2.75q-4.6 -24.75 -31.05 -17.15q-19.1 5.45 -25.7 24.35q4.6 -22.05 -2.65 -41.5q-0.45 -1.1 -1.3 -2q-26.55 104.2 -48 209.5q0.8 -102.1 -3 -204.2q-0.3 -7.65 -1.6 -14.5q-1.2 5.2 -0.05 10.75q32.05 -103.1 52.7 -209.45q24.5 -100.6 47 -202.2q4.7 107.75 27.5 212.7q4.45 -44.8 -5.9 -90.1q-6.65 -28.95 -9.8 -58.75q-25.2 13.55 -34.1 41.5q-17.9 56.05 -14.55 116.45q0.6 11.3 -0.15 22.4q-2.8 41.7 31.3 61.35q6.85 1.45 13.5 0.95q6.8 -0.5 11.05 -5.5q33.4 -39.05 37.9 -91.85q5.1 -59.95 -11.95 -116.75q-4.7 -15.6 -15.25 -23.3q-6.6 -7.05 -17.4 -4.6q16 34.3 20.5 71.9q7.25 60.25 -15.75 116q-11.6 28.05 -40.7 20.35q-11.65 -3.1 -14.7 -14.45q-12.65 -46.8 -10.35 -96.4q1.7 -38.1 17.25 -72.35q11.6 -25.65 38 -28.3q1.75 0.65 3.4 1.45<g id="561" transform="matrix(1, 0, 0, 1, -49.35, 0)">
<path style="fill:#000000;fill-opacity:1" d="M362.95,134.2L364.45 134.25Q392.65 152.15 400.45 185.95Q413.95 244.45 400.9 303.15Q390.55 349.9 348.8 370.85Q344.85 372.85 340.15 371.2Q323.5 365.45 319.5 347.9Q309.7 304.85 314.65 260.05Q319.45 216.4 323.7 173.05Q325.15 157.8 333.55 145.55Q341.85 133.35 356.2 135.5L357.95 134.25L359.45 134.25L359.9 134.15L359.95 134L362.95 134.2M339.7,149.75Q328.05 167.4 326.45 189.35Q322.15 247.95 319.6 307.2Q318.55 332.2 334.2 350.4Q343.8 361.6 356.7 351.95Q389.8 327.3 397.7 286.55Q409.6 225.1 381.45 170.75Q372.5 153.4 354.95 144.5Q347.25 145.1 340.9 149.15L339.7 149.75M471.4,131.1Q497.85 123.5 502.45 148.25Q483.4 138.05 462.95 145.5Q440.15 170 438 203.3Q435.95 235.8 434.2 268.35Q433.85 274.55 433.95 280.85Q434.1 290.2 434.6 299.55L435.8 318.1Q436.8 331.9 440.45 345.3Q441.1 347.75 443.2 348.3Q461.65 353.55 475.75 340.25Q493.9 323.05 491.6 299.05L493.8 305.6L495.45 292.5Q481 295.3 467.7 289L467.7 283Q483 278.4 498.7 280.7Q501.05 326.05 494.7 370.2Q487.1 359.6 490.5 346.25Q480.15 360.55 463.3 365.4Q446.7 370.15 437.95 356.3Q426.6 338.35 427.65 315.75Q428.3 301 428.2 286.2Q428.1 271.4 428.65 256.65Q429.25 241.75 430.45 226.95Q431.9 208.65 435.8 190.7Q439.65 172.8 445.7 155.45Q452.3 136.55 471.4 131.1M166.3,196.75L169.25 226.6Q172.4 256.4 179.05 285.35Q189.4 330.65 184.95 375.45Q162.15 270.5 157.45 162.75Q134.95 264.35 110.45 364.95L108 364.75L103.2 157.25Q82.55 263.6 50.5 366.7Q49.35 361.15 50.55 355.95L107.1 114.05Q108.4 120.9 108.7 128.55Q112.5 230.65 111.7 332.75Q133.15 227.45 159.7 123.25Q160.55 124.15 161 125.25Q168.25 144.7 163.65 166.75L166.3 196.75M267.35,128.35L267.7 129Q278.25 136.7 282.95 152.3Q300 209.1 294.9 269.05Q290.4 321.85 257 360.9Q252.75 365.9 245.95 366.4Q239.3 366.9 232.45 365.45Q198.35 345.8 201.15 304.1Q201.9 293 201.3 281.7Q197.95 221.3 215.85 165.25Q224.75 137.3 249.95 123.75Q260.75 121.3 267.35 128.35M265.95,138.5L264.35 137.45Q262.7 136.65 260.95 136Q234.55 138.65 222.95 164.3Q207.4 198.55 205.7 236.65Q203.4 286.25 216.05 333.05Q219.1 344.4 230.75 347.5Q259.85 355.2 271.45 327.15Q294.45 271.4 287.2 211.15Q282.7 173.55 266.7 139.25L265.95 138.5" />
</g>
</svg>
