<?xml version="1.0" encoding="utf-8"?>
<svg version="1.1" id="Layer_1"
xmlns="http://www.w3.org/2000/svg"
xmlns:xlink="http://www.w3.org/1999/xlink"


xml:space="preserve">
q-3.25 10.65 -2.5 21.45q0.05 -1.85 0.5 -3q0 18 1.9 35.8q6.6 62.45 -18.35 118.9q-11.9 27 -39.8 28q-13.15 -6 -21.9 -17.25q-6.1 -7.8 -8.1 -17.35q-8.55 -40.7 -5.45 -82.9q2.2 -29.7 6.85 -58.9q3.55 -22.7 1.6 -43.8q-9.4 20.55 -11.45 45.55q-4.8 58.35 -4.65 117.95q0.1 48.6 41.85 72.7q28.7 1.2 42.4 -25q28.35 -54.25 23.65 -116.3q-2.25 -29.4 -0.4 -59.05q1.1 -17.35 -5.9 -28.35q1.1 -16.65 -17.15 -16.25q-26.45 11.35 -32.7 41.3q-12.1 57.7 -11.7 117.7q0.05 7.55 -0.3 14.9q-1.55 31.35 18.2 53.3q28.3 7.35 43.05 -16.85q8 -13.15 -0.8 -20.1q-1.35 1.05 -1.45 -0.75q-0.05 -0.4 -0.3 -0.4q-0.75 0 -1.5 0.4q-2.75 26.8 -33.4 23.15q-3.8 -0.45 -5.55 -3.45q-12.45 -21 -12.6 -47.2q-0.2 -24.05 1.75 -47.75q17 2.65 33.55 -0.5q3.4 -8 -2.7 -12.2q-15 3.1 -30.5 4.5q2.9 -29.3 9 -58q6.8 -31.9 37 -33q-3.3 59.1 -6.15 118.55q-2.9 59.55 -11.15 118.3q-2.35 17 4.25 29.45q30.9 9.8 64.7 4.9q4.4 -8.35 -0.85 -15.7q-31.5 5.3 -62.9 1.4q7.5 -49.9 10.15 -101.35q2.3 -44.25 5.25 -88.45q4.05 -59.45 2.25 -117.8q-5.1 25.9 -6.7 54.65q0.15 33.5 4.65 68.1q7.65 58.25 14 116.75q6.35 58.75 14.45 117.25q2.25 16.5 9.8 28.35q1.55 -1.1 1.35 -2.9q-4.95 -46.85 -12.6 -93.85q-9.5 -58.15 -14.5 -117q-5 -59.2 -16.5 -116.95q-0.65 -0.15 -0.65 0.25q-4.45 13.45 -6.55 29.3q-7.75 58.05 -19.45 115.4q-3.05 14.9 -8.8 28.8q-6.5 15.6 -7.3 30.8q-5.2 -44.1 -11.8 -88.75q-7.55 -51.35 -16.55 -101.95q-0.15 -6.95 -2.35 -12.95q-0.5 0.25 -0.55 0.6q-4.3 20.9 -7.9 42.4q-9.6 57.5 -20.35 114.85q-11 58.8 -28.1 116.15q-4.4 14.75 -9.85 28.8q-6.6 17.05 0.55 28.9q7.9 -20.8 13.9 -42.4q15.8 -57.05 26.85 -115.25q2.4 -12.3 4.95 -24.5q6.6 50.45 13.85 100.75q4.2 29.3 7.45 58.7q1.8 16.5 9.65 28.35q1.15 -0.9 1 -2.2q9.65 -19.05 14.75 -41.2q13.15 -57.45 23.4 -115.95q5.2 -29.85 2.65 -58.75<g id="563" transform="matrix(1, 0, 0, 1, -35.6, 0)">
<path style="fill:#000000;fill-opacity:1" d="M328.95,138Q335.95 149 334.85 166.35Q333 196 335.25 225.4Q339.95 287.45 311.6 341.7Q297.9 367.9 269.2 366.7Q227.45 342.6 227.35 294Q227.2 234.4 232 176.05Q234.05 151.05 243.45 130.5Q245.4 151.6 241.85 174.3Q237.2 203.5 235 233.2Q231.9 275.4 240.45 316.1Q242.45 325.65 248.55 333.45Q257.3 344.7 270.45 350.7Q298.35 349.7 310.25 322.7Q335.2 266.25 328.6 203.8Q326.7 186 326.7 168L326.7 156Q326.25 157.15 326.2 159L325.95 160.25Q325.2 149.45 328.45 138.8L328.95 138M434.95,159.25L432.9 159.35L427.45 156.5Q397.25 157.6 390.45 189.5Q384.35 218.2 381.45 247.5Q396.95 246.1 411.95 243Q418.05 247.2 414.65 255.2L414.2 256Q397.65 259.15 380.65 256.5Q378.7 280.2 378.9 304.25Q379.05 330.45 391.5 351.45Q393.25 354.45 397.05 354.9Q427.7 358.55 430.45 331.75Q431.2 331.35 431.95 331.35Q432.2 331.35 432.25 331.75Q432.35 333.55 433.7 332.5Q442.5 339.45 434.5 352.6Q419.75 376.8 391.45 369.45Q371.7 347.5 373.25 316.15Q373.6 308.8 373.55 301.25Q373.15 241.25 385.25 183.55Q391.5 153.6 417.95 142.25Q436.2 141.85 435.1 158.5L434.95 159.25M366.2,94Q368 152.35 363.95 211.8Q361 256 358.7 300.25Q356.05 351.7 348.55 401.6Q379.95 405.5 411.45 400.2Q416.7 407.55 412.3 415.9L411.7 416.7Q377.9 421.6 347 411.8L346.45 414.95Q339.85 402.5 342.2 385.5Q350.45 326.75 353.35 267.2Q356.2 207.75 359.5 148.65Q361.1 119.9 366.2 94M185.2,90.25Q196.7 148 201.7 207.2Q206.7 266.05 216.2 324.2Q223.85 371.2 228.8 418.05Q229 419.85 227.45 420.95Q219.9 409.1 217.65 392.6Q209.55 334.1 203.2 275.35Q196.85 216.85 189.2 158.6Q184.7 124 184.55 90.5Q184.55 90.1 185.2 90.25M180.55,144.75Q170.3 203.25 157.15 260.7Q152.05 282.85 142.4 301.9L142.45 302.3Q142.6 303.6 141.45 304.5Q133.6 292.65 131.8 276.15Q128.55 246.75 124.35 217.45Q117.1 167.15 110.5 116.7Q107.95 128.9 105.55 141.2L83.5 257.3Q72.45 315.5 56.65 372.55Q50.65 394.15 42.75 414.95Q35.6 403.1 42.2 386.05Q47.65 372 52.05 357.25Q69.15 299.9 80.15 241.1Q90.9 183.75 100.5 126.25Q104.1 104.75 108.4 83.85Q108.45 83.5 108.95 83.25L110 85.55L110.2 85.5L110.4 86.65Q112.6 92.65 112.75 99.6Q121.75 150.2 129.3 201.55Q135.9 246.2 141.1 290.3Q141.9 275.1 148.4 259.5Q154.15 245.6 157.2 230.7Q168.9 173.35 176.65 115.3Q178.75 99.45 183.2 86Q185.75 114.9 180.55 144.75" />
</g>
</svg>
