<?xml version="1.0" encoding="utf-8"?>
<svg version="1.1" id="Layer_1"
xmlns="http://www.w3.org/2000/svg"
xmlns:xlink="http://www.w3.org/1999/xlink"


xml:space="preserve">
q-3.35 0.95 -3.4 5.25q-0.75 53.85 -3.65 107.3q-3.25 59.5 -7.05 118.55q-9.35 -43.15 -17.45 -86.6q-4.05 -21.6 -9.3 -42.9q-14.1 -57.1 -26.25 -114.35q-2.6 2.9 -2.95 8.25q-3.6 59.1 -5.7 118.5q-2.1 59.7 -5.6 119.2q-1.8 30.05 -5.95 59.8q-2.4 17 4.45 29.45q7.7 -48.05 9.35 -98.2q2 -59.25 4.3 -118.5q1.85 -46.3 2.1 -91.8q1 7.4 3.1 15.1q13.7 50.1 22.4 101.15q9.85 58 22.85 115.55q6.5 28.75 10.7 57.75q2.35 16.05 10.2 27.45q0.75 -0.75 0.85 -1.55q1.5 -13.15 1.15 -26.6q0.5 -4.7 0.45 -9.6q-0.65 -59.55 2.95 -118.5q2.05 -30.85 -1.8 -59.35q-31.15 37.25 -31.65 87.5q-0.6 59.55 -1.9 119.25q-0.55 34.5 10.55 65.8q5.4 15.2 20.45 17.95q21.05 3.85 37.1 -11.5q5.75 -5.5 10.05 -12.3q31.15 -49.3 33.65 -108.65q2.45 -59.4 -8.45 -116.75q-7.8 -41.1 -20.7 -80.25q0.8 1.05 1.9 1.65q-2.9 -2.75 -4.8 -6.25q-0.2 -2.05 -1.2 -3.8q-1 0 -1.65 -0.5q-14.15 -9.7 -31.85 -6.75q2.85 2.35 6.4 3.75q0.35 0.1 0.6 0.5q0.05 2.4 1.15 4.55q21.5 43.1 29.35 91.5q9.6 59.15 3.1 119.15q-1.65 15.15 -3.75 30.2q-5.8 41.8 -39.85 65.45q-30.05 20.75 -45.5 -10.4q-6.1 -47.1 -5.4 -95.2q0.65 -44.7 0 -89.25q-0.75 -51.25 14.15 -99q3.9 -4.9 6.9 -10.45q3.85 -7.25 11.1 -11.05q1.55 1.35 2.3 3.05q8.05 8.75 12.4 20.1q11.55 30.3 16.9 62.65q10.85 65.75 -30.25 115.75q-3.5 4.25 -8.3 5.65q-22.4 6.5 -42 -10.15q-12.55 -20.55 -14.95 -44.85q-5.95 -60.4 12.6 -117.35q11.1 -34.05 44.85 -38.8q3.45 -0.15 6.45 1.6q-0.5 0 -0.55 0.15q-7.15 18.45 -10.55 38.65q-9.75 58 -22 115.7q-3.15 14.65 -8.1 28.6q-1.35 3.8 -2.05 7.5q-0.2 -13.25 -2.2 -26.75q-3.6 -23.95 -5.85 -48q-5.65 -59.05 -11.7 -117.6q-8.2 19.05 -11.1 42.05q-7.4 58.55 -18.25 116.65q-10.8 57.95 -20.45 116.1q-4.85 29.35 -13.1 58q-4.85 17 2.2 28.65q9.6 -34.5 15.5 -70.25q9.55 -58.05 19.85 -116.25q10.25 -58.15 20.9 -116.25q2.05 -11.2 3.2 -22.2q0.6 14.6 1.65 29.1q4.25 59 11.75 117.7q1 7.5 0.75 14.9q-0.4 12.4 6.85 17.3q0.65 3.95 2.15 7.65q10 -24.9 15.35 -52.7q11.15 -58.2 22.9 -116.2q1.85 -9 2.75 -17.8q-0.4 19.65 0.95 40.05q4.05 58.6 11.25 116.75q7.35 58.85 12.65 118q2.8 31.2 14.15 58.85q5.3 -13.55 1 -29.75q-0.25 0.75 -0.25 1.5q-0.05 2.2 -0.5 4.25q-4.3 -18.95 -6.45 -38.45q-6.55 -58.7 -14.2 -117.25q-7.6 -58.45 -10.85 -117.5q-1.75 -30.95 -6.75 -58.75q-4.95 44.25 -0.75 88.5q4.35 46.4 50.25 57.85q4.25 1.05 7.95 -1.45q39.15 -26.75 46.15 -74.55q8.75 -59.75 -8.5 -116.95q-2.75 -9.1 -4.8 -18.45q-6.8 -31.25 -37.25 -34.1q-33.4 12.3 -43.3 48.35q-6.9 24.95 -9.75 50.8q-6.9 30.95 -5.25 63.75q1.55 30.2 31 34.7q4.55 -3.2 7.4 -7.9q24.1 -40.3 11.1 -84.8q-2 1.6 -3.5 3.7q0.25 9.3 1.4 18.8q4 32.55 -16.9 55.45q-23.45 -2.3 -23.95 -25.75q-0.3 -13.5 1.2 -26.8q1.9 -17.05 0.25 -32.4q-1.25 0.15 -2.25 1.25<g id="553" transform="matrix(1, 0, 0, 1, -33.7, 0)">
<path style="fill:#000000;fill-opacity:1" d="M531.25,156.85L523.85 275.2Q520.25 334.15 520.9 393.7Q520.95 398.6 520.45 403.3Q520.8 416.75 519.3 429.9Q519.2 430.7 518.45 431.45Q510.6 420.05 508.25 404Q504.05 375 497.55 346.25Q484.55 288.7 474.7 230.7Q466 179.65 452.3 129.55Q450.2 121.85 449.2 114.45Q448.95 159.95 447.1 206.25Q444.8 265.5 442.8 324.75Q441.15 374.9 433.45 422.95Q426.6 410.5 429 393.5Q433.15 363.75 434.95 333.7Q438.45 274.2 440.55 214.5Q442.65 155.1 446.25 96Q446.6 90.65 449.2 87.75L449.2 89L450.2 89.75L450.95 90.5Q463.1 147.75 477.2 204.85Q482.45 226.15 486.5 247.75Q494.6 291.2 503.95 334.35L512.2 373.25L515.35 328.6Q519.15 269.55 522.4 210.05Q525.3 156.6 526.05 102.75Q526.1 98.45 529.45 97.5Q533.3 126 531.25 156.85M351.95,83.05L353.75 82.4L355.95 81.25Q373.65 78.3 387.8 88Q388.45 88.5 389.45 88.5L390.4 89.3L391.05 89.85L392.95 90.75L393.6 91.55L394 92.2Q395 93.95 395.2 96L395.85 96.8Q397.75 100.3 400.65 103.05L400.95 103.35L401.35 105.9Q400.25 105.3 399.45 104.25Q412.35 143.4 420.15 184.5Q431.05 241.85 428.6 301.25Q426.1 360.6 394.95 409.9Q390.65 416.7 384.9 422.2Q368.85 437.55 347.8 433.7Q332.75 430.95 327.35 415.75Q316.25 384.45 316.8 349.95L317.9 290Q319.2 230.3 319.8 170.75Q320.3 120.5 351.45 83.25L351.95 83.05M368.95,94.75L355.95 95.25Q348.7 99.05 344.85 106.3Q341.85 111.85 337.95 116.75Q323.05 164.5 323.8 215.75Q324.45 260.3 323.8 305Q323.1 353.1 329.2 400.2Q344.65 431.35 374.7 410.6Q408.75 386.95 414.55 345.15Q416.65 330.1 418.3 314.95Q424.8 254.95 415.2 195.8Q407.35 147.4 385.85 104.3Q384.75 102.15 384.7 99.75Q384.45 99.35 384.1 99.25Q380.55 97.85 377.7 95.5L375.45 95.25L368.95 94.75M268.2,93.75L267.4 93.1Q264.4 91.35 260.95 91.5Q227.2 96.25 216.1 130.3Q197.55 187.25 203.5 247.65Q205.9 271.95 218.45 292.5Q238.05 309.15 260.45 302.65Q265.25 301.25 268.75 297Q309.85 247 299 181.25Q293.65 148.9 282.1 118.6Q277.75 107.25 269.7 98.5L269.1 99.05Q268.35 97.35 266.8 96L268.2 93.75M165.95,81Q170.95 108.8 172.7 139.75Q175.95 198.8 183.55 257.25Q191.2 315.8 197.75 374.5Q199.9 394 204.2 412.95Q204.65 410.9 204.7 408.7Q204.7 407.95 204.95 407.2Q209.25 423.4 203.95 436.95Q192.6 409.3 189.8 378.1Q184.5 318.95 177.15 260.1Q169.95 201.95 165.9 143.35Q164.55 122.95 164.95 103.3Q164.05 112.1 162.2 121.1Q150.45 179.1 139.3 237.3Q133.95 265.1 123.95 290Q122.45 286.3 121.8 282.35L121.2 289.25Q113.95 284.35 114.35 271.95Q114.6 264.55 113.6 257.05Q106.1 198.35 101.85 139.35Q100.8 124.85 100.2 110.25Q99.05 121.25 97 132.45Q86.35 190.55 76.1 248.7Q65.8 306.9 56.25 364.95Q50.35 400.7 40.75 435.2Q33.7 423.55 38.55 406.55Q46.8 377.9 51.65 348.55Q61.3 290.4 72.1 232.45Q82.95 174.35 90.35 115.8Q93.25 92.8 101.45 73.75L101.5 75.6L102.45 75.5Q108.5 134.05 114.15 193.1Q116.4 217.15 120 241.1Q122 254.6 122.2 267.85Q122.9 264.15 124.25 260.35Q129.2 246.4 132.35 231.75Q144.6 174.05 154.35 116.05Q157.75 95.85 164.9 77.4Q164.95 77.25 165.45 77.25L165.75 84.2L165.95 81M209.65,126.85Q219.55 90.8 252.95 78.5Q283.4 81.35 290.2 112.6Q292.25 121.95 295 131.05Q312.25 188.25 303.5 248Q296.5 295.8 257.35 322.55Q253.65 325.05 249.4 324Q203.5 312.55 199.15 266.15Q194.95 221.9 199.9 177.65Q202.75 151.8 209.65 126.85M231.95,332.25L232.45 332.25Q234.1 347.6 232.2 364.65Q230.7 377.95 231 391.45Q231.5 414.9 254.95 417.2Q275.85 394.3 271.85 361.75Q270.7 352.25 270.45 342.95Q271.95 340.85 273.95 339.25Q286.95 383.75 262.85 424.05Q260 428.75 255.45 431.95Q226 427.45 224.45 397.25Q222.8 364.45 229.7 333.5Q230.7 332.4 231.95 332.25" />
</g>
</svg>
