<?xml version="1.0" encoding="utf-8"?>
<svg version="1.1" id="Layer_1"
xmlns="http://www.w3.org/2000/svg"
xmlns:xlink="http://www.w3.org/1999/xlink"


xml:space="preserve">
q3.65 8.1 4.5 21.2q-0.7 26.3 -5.25 50.3q-8.95 47.45 -28 47.45q-23.45 0 -28.75 -22.35q-1.7 -7 -1.85 -18.1q-0.2 -12.6 -0.4 -14.05q-1.7 -12.15 -2.3 -27.6q-0.45 -10.85 -0.45 -27.55q0 -12.75 0.4 -16.65q0.8 -8.4 4.1 -15.7q1 3 1 6.35q-1.5 10.8 -1.5 15.25q0.05 26.8 3.25 51.75q6.35 49.5 22.35 49.5q22 0 30.9 -44.15q4.45 -22.15 4.5 -44.5q-0.8 -13.55 -1.8 -21.35q0.05 -1.1 1.9 -4.75q1.9 -3.75 2.1 -5.75q14.1 7.8 22.8 29.9q-0.3 0 -1.35 0.5q-0.45 0 -2.7 -4.25q-3.1 -5.8 -5.65 -9.35q-9.65 -13.65 -22.15 -13.65q-24.6 0 -35.2 25.25q-5.35 12.7 -5.8 26.25q0 29.3 18.35 63.35q6.25 11.65 18.8 31.35q26.9 44.85 40.3 87.25q18.35 58.1 18.35 128.2q0 28.85 -0.4 36.35q-1 19.95 -5.35 37.5q-9.7 38.9 -46.75 57.95q-13.65 7 -29.65 10.55q-12.6 2.75 -23.2 2.75q-37.8 0 -48.25 -24.75q-3.3 -7.75 -3.5 -17.1q0 -2 3.75 -13.25q-1.55 5.6 -1.55 6.9q0 1.25 1.15 3.95q1.1 2.7 1.1 3.95q0 1.25 -1 5.45q-1 4.15 -1 5.4q0 1.4 0.75 5q1.1 5.45 3.25 10q6.55 14.25 20 14.25q12.1 -0.5 19.15 -2.9q6.35 -2.2 16.95 -9.2q8.9 -5.6 12.4 -15.95q1.2 -3.55 2.2 -9.05q4.2 -18.15 5.05 -34.1q0.2 -4.4 0.2 -32.65q0 -65.9 -18.2 -121.5q-12.95 -39.8 -39.95 -85.15q-12 -19.65 -18.6 -32.95q-18.2 -36.4 -18.2 -69.6q0 -20.8 9.05 -37.25q8.5 -15.55 21.7 -21.45q13.6 -6.1 26.3 0.9q-2 -1.45 -4.35 -1.45q-8.2 0 -13.25 12.5q0.2 0.25 0.2 1.8q0 1.6 -0.3 2.15q-1.55 -0.75 -1.8 -1.05q-1.45 4.65 -1.45 7.8q0 1.5 5 6q5 4.5 6.5 4.5q5.1 0 8.8 -3.2q2.75 2.75 2.75 3.1q0 2.75 -4.7 6.4q-4.45 3.5 -7.05 3.5q-8.8 0 -13.7 -7.5q-3.3 -5.1 -3.3 -9q0 -12.8 4.7 -20.95q3.9 -6.75 10.3 -9.3q5.5 -2.2 10.3 -0.6q4.7 1.5 4.7 5.1q0 2.5 -0.25 2.25q-3.4 -0.4 -5.65 -2.05q2.9 1.15 4.95 3.45q2 2.3 2 4.25q-2.45 -2.5 -6.9 -2.5q-11.8 0 -17.2 57.75q4.85 -1.65 10.95 -2.4q15.85 -1.9 15.85 4.4q0 1.7 -0.35 2.6q-1.85 -0.6 -12.2 0q-2.45 28.55 -2.75 57.3q-0.15 2.45 0.2 4.25q1.05 5.5 6.5 5.5q24.3 0 33.55 -14.75q3 -4.8 4.3 -10.95q0.5 -0.45 1.1 -0.6q1.25 1.9 1.25 6q0 1.45 -1.4 6.3q-1.85 6.7 -4.8 12.35q-9.15 17.45 -24.3 17.45q-17.1 0 -20.45 -9.75q-1.1 -3.1 -0.7 -7.1q0 -16.5 1.05 -35.1q1.05 -18.4 2.95 -35.25q1.15 -10.7 2.75 -18.05q1.5 -5.05 4.5 -9.15q5.2 -7.2 12.8 -4.2q0.45 12.95 1.2 21.15q0.5 1.55 0.65 3.1q0 6.35 -1.85 21.45q-1.9 15.05 -1.9 21.3q0 4.35 -1.75 10.9q-0.55 -1.05 -0.65 -1.85q0 -8.8 2.45 -27.75q-4.65 0.9 -7.45 2.3q-0.55 3.35 -1.55 5.9q-2.35 4.55 -10.2 16.75q-12.5 19.45 -15.75 28.15q-4.85 -5.15 -14.2 -21.65q-9.05 -15.9 -9.05 -18.35q0 -1.55 0.15 -1.95q5.95 5.7 12.15 16.4q4 -6.55 12.15 -21.75q7.6 -13.35 14.65 -20.4q-0.45 -0.55 -0.45 -2.3q0 -1.8 0.6 -2.9q-2.5 2 -11 2q-0.5 -7.5 -0.5 -22.15q-0.15 -0.45 -0.15 -2q0 -1.55 0.15 -2.5q1.05 0.2 1.45 0.8q0.55 0.7 0.55 2.45q1.25 3.1 1.85 11.45q3 -0.85 11.95 -1.35q1.5 -12 2 -18.3q-2.45 -1.8 -3.05 -5.05q-0.2 -1.2 -0.2 -5.7q0.85 -1.25 3.15 -2.85q8.2 -2.6 14.25 7.45q2 3.3 3.4 7.45q1.1 3.2 1.1 4.1q-3.3 6.7 -6.85 9.05q7.75 10.1 7.75 10.95q0 2.5 -0.25 1.1q-4.3 -3.2 -12.45 -13.95q-0.6 -0.75 -0.6 -2.4q0 -6.8 2.05 -21.5q0 -1.55 0.15 -2.15q1.6 -11.25 3.4 -19.8q0 6.65 -0.95 16.45q0.15 -0.2 0.45 -0.25q2.2 -0.65 4 -1.65q4.1 -2.3 4.1 -4.75q0 -2.5 -3.05 -7.45q-3.5 -5.8 -6.95 -5.8q-6.35 0 -7.75 1.3q-0.75 1.9 -1.75 3.2q-0.15 -0.9 -0.15 -2.45q0 -0.95 0.6 -1.8q1.65 -0.15 3.25 0q13.45 1.25 22.3 24.6q3.6 9.5 5.7 20.95q1.8 9.6 1.8 15.7q0 14.85 -3 22.55q-6.95 17.7 -28.6 17.7q-6.3 0 -7.05 -0.7q-0.35 -0.35 -0.5 -1.4q0 -23.05 1.65 -47.45q1.5 -22.1 4.1 -40.75q0 -3.35 1.5 -3.75q0.2 -0.65 0.5 -1.15q1.45 3.3 1.85 7.1q3.3 11.65 8.35 27.15q14 41.4 16.45 57.55q0.9 -5.45 1.35 -7.15q-1 -8.25 -1 -25.85q0.3 -7.35 0.7 -11.05q0.75 -6.45 3.8 -8.95q0 1.4 -1.35 9.2q-0.4 1.3 -1.5 8.2q-0.9 5.7 -2.5 9.05q-1.1 -1.1 -2.15 -4.05q-11.55 -32.05 -20.9 -60.35q-11.35 -34.3 -16.15 -55.2q0.25 13.5 1.25 40.5q0 4.6 -1.3 10.6q-1.5 6.95 -1.95 14.15q-0.5 0.45 -1.25 0.6q-1.75 -5.25 -1.75 -9.35q0.75 -8.3 0.75 -24.6q-0.05 -19.15 0.25 -25.9q-1 -6.4 -1 -10.75q-1.7 9.7 -4.55 17.85q-8.75 25.2 -24.5 25.2q-24.9 0 -31 -22.7q-1.95 -7.25 -1.8 -16.5q0 -23.45 9.75 -37.65q8.8 -12.8 21.5 -13.45q12.7 -0.6 21.5 11.25q9.75 13.15 9.75 36.2q0 2.3 -1.2 9.2q0 -2.95 -1.85 -9.2q-2.1 -7.05 -5.25 -13.5q-8.6 -17.65 -18.9 -18.55q-0.55 2.75 -1.75 4.75q-0.15 -0.7 0.15 -2.35q-22 8.6 -27.75 21.95q-2.15 5 -2.5 11.8q-0.2 3.95 0 11.65q0 13.9 2.5 22.9q5.3 18.95 20.25 18.95q19.9 0 29.3 -22.5q2.95 -7.1 4.5 -15.7q0.95 -5.35 0.95 -7.55q2.25 2.6 3 14q-0.1 8.1 -1.55 13.75q-3.6 13.7 -20.9 30.25q-36 4.45 -36 -48.1q0 -6.2 1.8 -21.65q2.15 -18.4 4.45 -22.75q-2.5 18.75 -2.5 22.2q0 13.1 3.3 23.25q5.9 18.25 20.7 18.25q14.4 -14.3 17.85 -27.3q1.4 -5.25 1.65 -12.3q-0.85 -9.55 -1.5 -13.15q4.75 10.25 4.75 24.05q0 3.2 -2.15 16.2q-2.8 17.25 -6.8 31.8q-12.45 45 -30.55 45q-16.65 -12.85 -20.4 -27.7q-1.45 -5.65 -1.5 -13.65q0 -21.2 2.7 -36.05q3.8 -21.05 13.55 -35.6q-0.75 0 -4.5 1.25q6.6 -3 11.65 -7.15q5.3 -4.35 7.85 -5.6q14.7 10.35 20.75 23.45q-7.25 7.95 -11.2 29.85q-3.05 16.8 -3.05 32.8q0 17 2.55 26.1q4.55 16.05 17.95 22.5q22.1 1.6 35.2 -35.85q4.65 -13.25 7.35 -29.3q2.2 -12.85 2.2 -20.6q0 -5.5 -3.85 -14.85q-4.4 -10.75 -10.7 -17.45q-7.7 -8.25 -16.15 -7.65q-10.15 0.75 -20.3 14.45q20.6 0 27.35 -15.75q2.15 -5 2.65 -11.1q0 -21.65 -15.4 -42.2q-4.8 -6.35 -10.65 -12q0.35 6.4 0.35 15.65q0 13.75 -2.05 39.6q-1.7 21.2 -3.3 32.1q1.25 3.25 3.35 11.1q1.85 7.1 3.25 10.05q4.05 15.65 6.05 35.3q1.7 16.95 1.7 34.7q-2.8 38.65 -11.7 74.65q-17.7 71.45 -48.3 71.45q-21.5 0 -27.25 -38.95q-1.85 -12.2 -1.85 -27q0.2 -15.05 1.6 -26.2q2.3 -18.2 17.35 -77.25q2.65 -10.8 10.05 -18.15q10.8 -10.7 29.7 -11.6q10.65 -0.55 15.65 12.1q0 7.15 0.25 10.15q2 17.55 3.8 43.2q3.85 53.15 11.5 86.95q2.4 36.9 14.05 142.85q10.95 99.7 10.95 102.05q0 3.95 -1.75 7.1q-5.55 -10.65 -6.7 -30q-0.55 -9.25 -1.8 -15.6q-2.7 -13.5 -4.6 -30.4q-1.5 -13.15 -2.9 -31.85q-1.35 -17.9 -5.7 -61.95q-3.9 -39.25 -5.3 -61.8q-4 -21.05 -11.1 -104.45q-6.65 -78.65 -6.65 -94.55q-9.5 39 -11.85 53.35q-2.9 16.95 -6.75 45.25q-3.95 26.25 -11.5 90.45q-5.75 48.65 -10.35 79.05q0 6 -0.5 9.75q-0.75 -1.5 -1.5 -4.6q-0.95 -3.75 -0.95 -5.05q-7.4 -66.5 -19.05 -194.45q-9.1 -99.75 -11.65 -133.65q-7 26.3 -9.3 44.95q-1.35 11.1 -3.75 33.8q-3.25 26.4 -7 67.4q-3.95 39.3 -7.4 67.6q-1.25 10.3 -3.9 38.7q-2.75 29.85 -4.4 44.2q-5.95 51.35 -13.35 51.35q-2.75 0 -3.55 -2.45q-0.3 -0.9 -0.3 -2.8q0 -4.8 6.05 -31.55q6.55 -29 7.45 -36.7q2.55 -13.5 4.7 -33.8q10.3 -84.8 14.5 -135.75q3.35 -39.55 6.75 -68.15q8.25 -70.3 22.45 -123.9q0 -2.35 0.6 -3.85q0.8 -1.85 2.35 -1.75q2.25 5.05 2.25 7.6q7.45 74.3 18.85 197.15q7.85 84.2 10.95 121.2q25.5 -228.7 52.45 -317.85q1 -13.6 3.6 -14.85q0.35 0.85 0.35 2.55q-20.65 12.55 -30.75 71.75q-7 41.05 -7 84.25q0.5 12.85 1.8 23.5q4 33.2 14.2 33.2q35.95 0 54 -67.2q9.1 -33.8 11 -69.05q0 -35.25 -6.6 -59.6q-11.7 -43.3 -40.4 -25.5q0.8 -2.75 3.8 -2.05q4.45 1.55 20.4 5.65q11.7 3 14.85 5.35q5.75 4.35 14.6 17.5q9.65 14.3 9.65 20.75q-0.9 18.1 -4.2 32.95q-10.45 46.7 -41.05 46.7q-30.55 0 -41.5 -16.7q-7.75 -11.8 -7.75 -38.65q0 -20.45 4.85 -38.4q6 -22.1 18.65 -37.25q0.75 -0.9 5 -4.05q2.75 -2.05 2.75 -4.45q0 -3.2 0.2 -3.95q-14.35 8.9 -22.5 34.75q-6.5 20.5 -6.5 39.65q0 15.9 3.55 26.6q7.3 22.25 27.7 22.25q36.05 0 49.5 -26q8.75 -16.85 8.75 -49.85q0 -7.1 -0.7 -10.7q-0.7 -3.45 -2.75 -6.65q-7.1 -9.1 -14.55 -21.3q-3 -4.9 -11.55 -8.3q-7.9 -3.2 -16.35 -3.6q-8.8 -0.4 -12.75 2.6q-1.15 0.9 -1.75 2.05q10.2 17 16.4 40.1q3 12.95 5.05 20.3q1.9 -5.5 4.4 -18.9q2.35 -12.3 5.1 -19.1q4.35 5.85 7.7 17.3q4.2 14.45 6.55 19.45q1.9 -12.1 9.15 -45.25q6.6 -30.3 6.6 -31.35q0 -1.55 -1.25 -1.25q0.45 0.75 0.45 2.55q0 1.9 -7.75 36.75q-9.1 40.6 -11.25 51.75q-3.75 -6.85 -7.75 -18.45q-4.2 -12.95 -6.5 -19.05q-1.1 3.7 -5.2 20.6q-3.25 13.35 -6.05 20.4q-4.6 -14.25 -5.95 -23.25q-1.15 -7.6 -7.7 -25.25q-6.05 -16.35 -6.05 -19.35q1.55 1.95 1.85 3.45q-4.75 -1.25 -6 -1.25q-7.1 0 -11.7 9.75q0.2 0.25 0.2 1.8q0 1.6 -0.3 2.15q-0.6 2.2 -0.6 3.85q0 3.15 2.25 6.35q2.9 4.25 7.75 4.25q22.7 0 27.75 -3.3q1.2 -0.8 2.35 -2.85q1.05 -1.8 2.9 -2.6q0.3 0.55 0.3 2.15q0 2.9 -7.25 7.05q-7.75 4.45 -14.75 4.45q-18.4 0 -22.95 -7.7q-1.5 -2.5 -1.4 -5.7q0 -1.25 0.45 -3.55q-0.15 -0.4 -0.15 -1.95q0 -1.65 0.3 -2.15q1.3 -4.6 3.3 -8.25q7.55 -13.9 20.95 -7.45q1.1 0.3 2.65 2.3<g id="556" transform="matrix(1, 0, 0, 1, 0.7, 7.8)">
<path style="fill:#000000;fill-opacity:1" d="M343.05,-0.7L344 -1.5Q347.65 6.6 348.5 19.7L348.75 41.5Q348.05 67.8 343.5 91.8Q334.55 139.25 315.5 139.25Q292.05 139.25 286.75 116.9Q285.05 109.9 284.9 98.8Q284.7 86.2 284.5 84.75Q282.8 72.6 282.2 57.15Q281.75 46.3 281.75 29.6Q281.75 16.85 282.15 12.95Q282.95 4.55 286.25 -2.75Q287.25 0.25 287.25 3.6L285.75 14.25Q284.25 25.05 284.25 29.5Q284.3 56.3 287.5 81.25Q293.85 130.75 309.85 130.75Q331.85 130.75 340.75 86.6Q345.2 64.45 345.25 42.1L344.55 27.85Q343.75 14.3 342.75 6.5L341.1 8.3L339.25 10.25L338.5 10.25Q338.55 9.15 340.4 5.5Q342.3 1.75 342.5 -0.25L343.05 -0.7M490.05,-0.8Q504.15 7 512.85 29.1L512.35 31.75Q512.05 31.75 511 32.25L508.5 32.75Q508.05 32.75 505.8 28.5Q502.7 22.7 500.15 19.15Q490.5 5.5 478 5.5Q453.4 5.5 442.8 30.75Q437.45 43.45 437 57Q437 86.3 455.35 120.35Q461.6 132 474.15 151.7L495.7 186.05Q522.6 230.9 536 273.3Q554.35 331.4 554.35 401.5Q554.35 430.35 553.95 437.85Q552.95 457.8 548.6 475.35Q538.9 514.25 501.85 533.3Q488.2 540.3 472.2 543.85Q459.6 546.6 449 546.6Q411.2 546.6 400.75 521.85Q397.45 514.1 397.25 504.75L397.75 496.75Q397.75 494.75 401.5 483.5L405.5 470.85L405.9 470.8L406.5 471.35L404.8 477.95Q403.25 483.55 403.25 484.85Q403.25 486.1 404.4 488.8Q405.5 491.5 405.5 492.75Q405.5 494 404.5 498.2Q403.5 502.35 403.5 503.6Q403.5 505 404.25 508.6Q405.35 514.05 407.5 518.6Q414.05 532.85 427.5 532.85L462.9 532.7Q475 532.2 482.05 529.8Q488.4 527.6 499 520.6L527.85 501.6Q536.75 496 540.25 485.65Q541.45 482.1 542.45 476.6L544.1 467.85Q548.3 449.7 549.15 433.75Q549.35 429.35 549.35 401.1Q549.35 335.2 531.15 279.6Q518.2 239.8 491.2 194.45L469.8 159.55Q457.8 139.9 451.2 126.6Q433 90.2 433 57Q433 36.2 442.05 19.75Q450.55 4.2 463.75 -1.7Q477.35 -7.8 490.05 -0.8M537.2,7.7Q535.2 6.25 532.85 6.25Q524.65 6.25 519.6 18.75L519.25 19.65L520.05 19.65L536.1 20.5L536.65 20.95Q536.85 21.2 536.85 22.75Q536.85 24.35 536.55 24.9L535.85 25.75L519.35 25.5Q517.8 24.75 517.55 24.45Q516.1 29.1 516.1 32.25Q516.1 33.75 521.1 38.25Q526.1 42.75 527.6 42.75Q532.7 42.75 536.4 39.55L539.85 36Q542.6 38.75 542.6 39.1Q542.6 41.85 537.9 45.5Q533.45 49 530.85 49Q522.05 49 517.15 41.5Q513.85 36.4 513.85 32.5Q513.85 19.7 518.55 11.55Q522.45 4.8 528.85 2.25Q534.35 0.05 539.15 1.65Q543.85 3.15 543.85 6.75Q543.85 9.25 543.6 9L543.3 9.3L542.85 9.75Q539.45 9.35 537.2 7.7M422.3,44.3Q425.2 45.45 427.25 47.75Q429.25 50.05 429.25 52L429 55.75L428.6 56.2L428 57L424.9 53.25Q422.45 50.75 418 50.75Q406.2 50.75 400.8 108.5L402.7 107.75Q407.55 106.1 413.65 105.35Q429.5 103.45 429.5 109.75Q429.5 111.45 429.15 112.35L428 114Q426.15 113.4 415.8 114L404 114.75L400.25 114.45Q397.8 143 397.5 171.75L397.3 174.6Q397.15 177.05 397.5 178.85Q398.55 184.35 404 184.35Q428.3 184.35 437.55 169.6Q440.55 164.8 441.85 158.65L442.75 152L443.15 151.6Q443.65 151.15 444.25 151Q445.5 152.9 445.5 157Q445.5 158.45 444.1 163.3Q442.25 170 439.3 175.65Q430.15 193.1 415 193.1Q397.9 193.1 394.55 183.35Q393.45 180.25 393.85 176.25L394.5 172.1Q394.5 155.6 395.55 137Q396.6 118.6 398.5 101.75L400.25 84.55Q401.4 73.85 403 66.5L405 57.65Q406.5 52.6 409.5 48.5Q414.7 41.3 422.3 44.3M366.25,44.25L367.05 65.6Q367.5 78.55 368.25 86.75L369.95 86.25L373 85.75L390.25 86L390.95 87L391.25 89.35L391.25 89.75Q391.75 91.3 391.9 92.85L392 96.1Q392 102.45 390.15 117.55Q388.25 132.6 388.25 138.85Q388.25 143.2 386.5 149.75L385.5 150Q384.95 148.95 384.85 148.15L384.75 145.5Q384.75 136.7 387.2 117.75L387.45 115.95L383.85 116.9Q379.2 117.8 376.4 119.2L376.5 130.6L376.05 135.6Q375.5 138.95 374.5 141.5L373.5 141.75L373.2 139.95Q370.85 144.5 363 156.7Q350.5 176.15 347.25 184.85Q342.4 179.7 333.05 163.2Q324 147.3 324 144.85Q324 143.3 324.15 142.9L324.5 142.25Q330.45 147.95 336.65 158.65L346.25 176.35Q350.25 169.8 358.4 154.6Q366 141.25 373.05 134.2L373.45 121.55L373.5 119.45L373.45 119.4Q373 118.85 373 117.1Q373 115.3 373.6 114.2L373.55 102.35L373 103Q370.5 105 362 105L361.05 105L361.4 108.2L362 115.6L360.5 142.25L359.5 142.5Q359 135 359 120.35L359.1 104.95L346.5 104.75L346.15 104.1Q346 103.65 346 102.1Q346 100.55 346.15 99.6L346.25 99L372 97.5L372 97Q373.05 97.2 373.45 97.8Q374 98.5 374 100.25L373.95 101L374.25 101Q375.5 104.1 376.1 112.45Q379.1 111.6 388.05 111.1Q389.55 99.1 390.05 92.8L380.45 93.2L368 94.25Q365.55 92.45 364.95 89.2Q364.75 88 364.75 83.5L365.25 44.25L366.25 44.25M367.85,182.7Q368.7 181.45 371 179.85Q379.2 177.25 385.25 187.3Q387.25 190.6 388.65 194.75Q389.75 197.95 389.75 198.85Q386.45 205.55 382.9 207.9L391 218.05Q398.75 228.15 398.75 229Q398.75 231.5 398.5 230.1L398.25 230.85Q393.95 227.65 385.8 216.9L380.1 209L379 209.1L372.35 208.95L372.2 210.3L369.75 232.85L369 234.1L367.1 232.65Q366.5 231.9 366.5 230.25Q366.5 223.45 368.55 208.75L368.3 208.6L368.25 207Q368.25 205.45 368.4 204.85L368.5 204.6L369.1 204.65Q370.7 193.4 372.5 184.85L373.25 184.85L373.6 185.9L373.75 188.25Q373.75 194.9 372.8 204.7L378.5 203.95L378.55 203.85Q378.7 203.65 379 203.6L379.15 203.75Q381.35 203.1 383.15 202.1Q387.25 199.8 387.25 197.35Q387.25 194.85 384.2 189.9Q380.7 184.1 377.25 184.1Q370.9 184.1 369.5 185.4Q368.75 187.3 367.75 188.6L367.4 186.95Q367.25 186.05 367.25 184.5Q367.25 183.55 367.85 182.7M484.8,226L485 225.1Q486.65 224.95 488.25 225.1L488.25 224.85L488.3 225.1Q501.75 226.35 510.6 249.7Q514.2 259.2 516.3 270.65Q518.1 280.25 518.1 286.35Q518.1 301.2 515.1 308.9Q508.15 326.6 486.5 326.6Q480.2 326.6 479.45 325.9Q479.1 325.55 478.95 324.5L478.5 321.85L479 318.85L481.5 318.8L481.75 318.85L481.75 318.6Q481.75 295.55 483.4 271.15Q484.9 249.05 487.5 230.4L484.75 227.85L484.8 226M419.75,274.85Q419.75 271.5 421.25 271.1L421.75 273Q421.95 272.35 422.25 271.85Q423.7 275.15 424.1 278.95L424.2 282.15Q427.5 293.8 432.55 309.3L446.55 350.8Q460.55 392.2 463 408.35L463.4 405.75Q464.3 400.3 464.75 398.6L464.75 340.85Q463.75 332.6 463.75 315L463.75 292.85Q464.05 285.5 464.45 281.8Q465.2 275.35 468.25 272.85L469.05 274.55L469.25 277Q469.25 278.4 467.9 286.2L466.25 294.6L466.25 335.1L467.25 338.1L467.25 404.1Q466.85 405.4 465.75 412.3Q464.85 418 463.25 421.35Q462.15 420.25 461.1 417.3L460.25 414.6L460.3 413.8Q448.75 381.75 439.4 353.45Q428.05 319.15 423.25 298.25L423.25 352.1Q423.5 365.6 424.5 392.6Q424.5 397.2 423.2 403.2Q421.7 410.15 421.25 417.35L420.75 417.75Q420.25 418.2 419.5 418.35Q417.75 413.1 417.75 409L418.15 403.2L418.5 395.85L419.25 395.6L419.75 402.1Q420.5 393.8 420.5 377.5Q420.45 358.35 420.75 351.6L420.75 285.6Q419.75 279.2 419.75 274.85M347.05,237.05Q345.35 246.75 342.5 254.9Q333.75 280.1 318 280.1Q293.1 280.1 287 257.4Q285.05 250.15 285.2 240.9L285.75 231.5Q285.75 208.05 295.5 193.85Q304.3 181.05 317 180.4Q329.7 179.8 338.5 191.65Q348.25 204.8 348.25 227.85Q348.25 230.15 347.05 237.05M345.75,227.6Q345.75 224.65 343.9 218.4Q341.8 211.35 338.65 204.9Q330.05 187.25 319.75 186.35Q319.2 189.1 318 191.1Q317.85 190.4 318.15 188.75L318.5 186.35L318.5 186.1Q296.5 194.7 290.75 208.05Q288.6 213.05 288.25 219.85Q288.05 223.8 288.25 231.5Q288.25 245.4 290.75 254.4Q296.05 273.35 311 273.35Q330.9 273.35 340.3 250.85Q343.25 243.75 344.8 235.15Q345.75 229.8 345.75 227.6M324.4,281.8L325 281.35Q327.25 283.95 328 295.35L328.25 307.85L328.45 324.1Q328.35 332.2 326.9 337.85Q323.3 351.55 306 368.1Q270 372.55 270 320Q270 313.8 271.8 298.35Q273.95 279.95 276.25 275.6L276.8 276.8L277 279.35L274.5 297.65Q272 316.4 272 319.85Q272 332.95 275.3 343.1Q281.2 361.35 296 361.35L306.25 361.1Q320.65 346.8 324.1 333.8Q325.5 328.55 325.75 321.5L325.75 308L325 297.9Q324.15 288.35 323.5 284.75L324 282.1L324.4 281.8M391.75,342.3Q396.5 352.55 396.5 366.35Q396.5 369.55 394.35 382.55Q391.55 399.8 387.55 414.35Q375.1 459.35 357 459.35L347.5 459.1Q330.85 446.25 327.1 431.4Q325.65 425.75 325.6 417.75L325.75 403.25Q325.75 382.05 328.45 367.2Q332.25 346.15 342 331.6L342.5 330.85Q341.75 330.85 338 332.1L337.5 331.6Q344.1 328.6 349.15 324.45Q354.45 320.1 357 318.85L371 318.85Q385.7 329.2 391.75 342.3M342.5,340.85Q335.25 348.8 331.3 370.7Q328.25 387.5 328.25 403.5Q328.25 420.5 330.8 429.6Q335.35 445.65 348.75 452.1Q370.85 453.7 383.95 416.25Q388.6 403 391.3 386.95Q393.5 374.1 393.5 366.35Q393.5 360.85 389.65 351.5Q385.25 340.75 378.95 334.05Q371.25 325.8 362.8 326.4Q352.65 327.15 342.5 340.85M485.5,319.1Q506.1 319.1 512.85 303.35Q515 298.35 515.5 292.25L515.6 286.5Q515.6 264.85 500.2 244.3Q495.4 237.95 489.55 232.3L488.9 231.7Q489.25 238.1 489.25 247.35Q489.25 261.1 487.2 286.95Q485.5 308.15 483.9 319.05L485.5 319.1M266.65,96.6Q267.9 99.85 270 107.7Q271.85 114.8 273.25 117.75Q277.3 133.4 279.3 153.05Q281 170 281 187.75Q278.2 226.4 269.3 262.4Q251.6 333.85 221 333.85Q199.5 333.85 193.75 294.9Q191.9 282.7 191.9 267.9L192.25 255.1L192.3 217.7Q192.5 202.65 193.9 191.5Q196.2 173.3 211.25 114.25Q213.9 103.45 221.3 96.1Q232.1 85.4 251 84.5Q261.65 83.95 266.65 96.6M162.5,4.25L160.75 12.7L160.75 19.1Q160.75 26.25 161 29.25L161 75Q163 92.55 164.8 118.2L167.75 161.9Q171.6 215.05 179.25 248.85L179.25 291.6Q181.65 328.5 193.3 434.45Q204.25 534.15 204.25 536.5Q204.25 540.45 202.5 543.6Q196.95 532.95 195.8 513.6L195.05 497.7Q194.5 488.45 193.25 482.1Q190.55 468.6 188.65 451.7Q187.15 438.55 185.75 419.85Q184.4 401.95 180.05 357.9Q176.15 318.65 174.75 296.1L174.75 252.6Q170.75 231.55 163.65 148.15Q157 69.5 157 53.6L157.05 28.4L153.85 41.65Q144.35 80.65 142 95Q139.1 111.95 135.25 140.25L129 185.6Q125.05 211.85 117.5 276.05Q111.75 324.7 107.15 355.1L107.25 357.85Q107.25 363.85 106.75 367.6L106.05 368.05L105 368.85L104.7 366.25Q103.95 364.75 103.2 361.65Q102.25 357.9 102.25 356.6L102.95 350.45Q95.55 283.95 83.9 156Q74.8 56.25 72.25 22.35L70.05 30.55Q63.05 56.85 60.75 75.5Q59.4 86.6 57 109.3L53.25 143Q50 169.4 46.25 210.4L40 277.85L33.4 345.25Q29.45 384.55 26 412.85Q24.75 423.15 22.1 451.55Q19.35 481.4 17.7 495.75Q11.75 547.1 4.35 547.1Q1.6 547.1 0.8 544.65Q0.5 543.75 0.5 541.85Q0.5 537.05 6.55 510.3Q13.1 481.3 14 473.6Q16.55 460.1 18.7 439.8L22.25 406.1Q32.55 321.3 36.75 270.35L42.25 202.35Q45.6 162.8 49 134.2Q57.25 63.9 71.45 10.3L71.25 5.85Q71.25 3.5 71.85 2Q72.65 0.15 74.2 0.25L74.25 0Q76.5 5.05 76.5 7.6L75.4 11.35Q82.85 85.65 94.25 208.5Q102.1 292.7 105.2 329.7Q130.7 101 157.65 11.85Q158.65 -1.75 161.25 -3L161.1 0.95L161.25 0.5L162.15 1.7Q162.5 2.55 162.5 4.25M229.5,101.75L233.25 99L233.5 98.75Q212.85 111.3 202.75 170.5Q195.75 211.55 195.75 254.75L196 266.9Q196.5 279.75 197.8 290.4Q201.8 323.6 212 323.6Q247.95 323.6 266 256.4Q275.1 222.6 277 187.35Q277 152.1 270.4 127.75Q258.7 84.45 230 102.25L229.5 101.75M255.2,366.9Q256 364.15 259 364.85Q263.45 366.4 279.4 370.5Q291.1 373.5 294.25 375.85Q300 380.2 308.85 393.35Q318.5 407.65 318.5 414.1L318.25 430.7Q317.35 448.8 314.05 463.65Q303.6 510.35 273 510.35Q242.45 510.35 231.5 493.65Q223.75 481.85 223.75 455Q223.75 434.55 228.6 416.6Q234.6 394.5 247.25 379.35Q248 378.45 252.25 375.3Q255 373.25 255 370.85Q255 367.65 255.2 366.9M255.25,379.85Q240.9 388.75 232.75 414.6Q226.25 435.1 226.25 454.25Q226.25 470.15 229.8 480.85Q237.1 503.1 257.5 503.1Q293.55 503.1 307 477.1Q315.75 460.25 315.75 427.25Q315.75 420.15 315.05 416.55Q314.35 413.1 312.3 409.9Q305.2 400.8 297.75 388.6Q294.75 383.7 286.2 380.3Q278.3 377.1 269.85 376.7Q261.05 376.3 257.1 379.3Q255.95 380.2 255.35 381.35L255.25 379.85M256,390.1L255.75 388.1L256.5 389.6L256 390.1M322.05,459.15L322.25 458.85L323 458.1Q333.2 475.1 339.4 498.2L344.2 518.05Q347.2 531 349.25 538.35L349.3 538.75L349.5 539.35Q351.4 533.85 353.9 520.45Q356.25 508.15 359 501.35L360 500.6Q364.35 506.45 367.7 517.9Q371.9 532.35 374.25 537.35Q376.15 525.25 383.4 492.1Q390 461.8 390 460.75Q390 459.2 388.75 459.5L387.5 460.1L390.4 457.3L392 455.35L393.8 456.8Q394.25 457.55 394.25 459.35Q394.25 461.25 386.5 496.1Q377.4 536.7 375.25 547.85Q371.5 541 367.5 529.4Q363.3 516.45 361 510.35L360.25 509.85Q359.15 513.55 355.05 530.45Q351.8 543.8 349 550.85L341.7 528.6Q337.1 514.35 335.75 505.35Q334.6 497.75 328.05 480.1Q322 463.75 322 460.75L322.05 459.15M312.65,508.65Q314.2 510.6 314.5 512.1L314.25 512.85L314.55 513L313 513.1L307 511.85Q302.25 510.6 301 510.6Q293.9 510.6 289.3 520.35L288.65 521.85L302.3 520.85L315.25 520.35L315.8 520.8Q316 521.05 316 522.6Q316 524.2 315.7 524.75L315 525.6L304.1 526.8L299 527.6L286.6 527.4Q286 529.6 286 531.25Q286 534.4 288.25 537.6Q291.15 541.85 296 541.85Q318.7 541.85 323.75 538.55Q324.95 537.75 326.1 535.7Q327.15 533.9 329 533.1L329.7 533.95Q330 534.5 330 536.1Q330 539 322.75 543.15Q315 547.6 308 547.6Q289.6 547.6 285.05 539.9Q283.55 537.4 283.65 534.2L284 530.85Q284 529.6 284.45 527.3L284.15 526.7Q284 526.3 284 524.75Q284 523.1 284.3 522.6L285 522.1L285.75 522.05Q287.05 517.45 289.05 513.8Q296.6 499.9 310 506.35Q311.1 506.65 312.65 508.65" />
</g>
</svg>
