<?xml version="1.0" encoding="utf-8"?>
<svg version="1.1" id="Layer_1"
xmlns="http://www.w3.org/2000/svg"
xmlns:xlink="http://www.w3.org/1999/xlink"


xml:space="preserve">
q4.95 25.1 10.6 60.85q8.15 51.55 8.15 70.25q0 21.65 -9.5 77.8q-8.75 51.5 -13.75 67.7q-7.35 23.45 -12.05 35.95q-7.75 20.65 -16.8 36.8q-12.85 22.85 -55.85 44.55q-16.3 8.2 -32 13.65q-14.5 5.05 -20.4 5.05q-2 -3 -2 -6.75q0 -1.55 0.9 -2.4q0.05 -26.45 7.2 -98.85q7.75 -73.55 8.8 -85.95q0.5 -2.95 0.8 -8.05q0 -9.4 -1 -13.9q-3 -34.65 -3.65 -56.2q-0.35 -11.35 -0.35 -46.8q0 -41.55 0.35 -51.8q0.65 -19.7 2.9 -36.45q-0.7 -1.45 -0.7 -3.4q0 -3.1 2.6 -4.5q0.75 1.95 1.2 4.45q3.35 -0.8 9.05 0q12.5 1.75 31.65 10.2q19.1 8.4 35.2 19.25q17.6 11.9 24.4 22.1q13.25 23.8 17.75 33.05q9.4 19.35 12.1 32.95q-3.15 -6.7 -15.6 -30.25q-7.55 -14.4 -33.85 -29.7q-29.65 -17.25 -66.8 -24.75q-1.5 16.05 -1.5 19q0 6 0.25 9q1.65 11.9 2.5 30.2q1 6 1 18.4q0 13.1 -1 19.1q-4.35 46.6 -8.7 84.5q1.65 -1.85 2.6 -4.7q42.8 -9.95 69.75 -26.3q22.7 -13.8 35.75 -33.35q9.3 -13.9 16.25 -35.8q3.05 -9.85 5.8 -16.2q5.6 -13.1 13.95 -63.3q8.55 -51.15 8.55 -73.95q0 -12 -8.15 -66.55q-6.65 -44.85 -8.6 -54.8q-2.45 -13.15 -10.5 -30.5q0.45 0.95 0.45 2.55q-0.3 -0.9 -0.3 -2.55q0 -3.85 2.65 -26.7q2.6 -22.8 2.6 -25.05q-0.3 -16.35 1.2 -23.85q0 12 -1.5 20.65q-1.5 8.65 -1.5 13.45q-5.3 -5.45 -16 -5.45q-27.85 0 -39.45 51.65q-5.8 26.05 -6.3 54.1q1.4 0.8 1.9 1.65q0.6 0.95 0.6 2.75q0 1.6 -0.6 2.9q-0.9 1.8 -2.9 2.2q-1 4.5 -1 13.5q0 18.3 6.25 30.05q7.45 13.95 22 13.95q22.9 0 35.3 -17.15q3.9 -5.4 6.35 -12.05q-0.35 -0.55 -1.95 -1.05q2.3 -1.05 3.6 -1.05q1.55 0 1.75 0.4q0.5 3 0.5 5.25q0 2.95 -2.35 9.25q-3 8 -7.85 14.8q-14.1 19.7 -36.55 19.7q-9 0 -20.45 -11.2q-4.45 -4.35 -7.6 -8.9q-3 -4.3 -3.2 -6.4q-0.6 -5.9 -1.1 -16.1q0 -12.4 1 -18.4q6.95 -70.55 13.75 -120q1.5 -11.15 5.7 -29.4q2.1 -10.3 4.1 -15.45q3.8 -9.7 10.4 -14.55q8.75 -6.35 18.05 -6.75q7.85 -0.35 14.8 3.6q6.1 3.45 9.1 8.65q3 5.15 1.05 8.5q-0.75 -0.65 -2.3 -3.2q-1.7 -2.8 -3.2 -4.35q0.5 1.3 0.5 3q-5.3 27.35 -5.45 44.65q-0.05 7.1 -2.25 35.2q-1.75 22.4 -0.5 36.05q-1 6.75 -1 19.9q0 5.7 2 34.7q2 29 2 38.4q-0.7 11.1 -1.4 17.7q-0.6 2.95 -0.3 9.6q-0.25 6.05 -3.7 9.4q-1.45 -1.35 -1.85 -6.3q-0.15 -1.9 -0.15 -6.8q0 -8.65 1 -12.4q0.7 -5.65 1.4 -15.1q0 -12.4 -2 -36.4q-2 -24 -2 -36.75q0 -15.75 1 -24q0.95 -12.95 1.6 -38.35q0.7 -28.55 1.4 -40.25q2.65 -47.15 13.75 -68.65q0.35 1.2 0.35 3q3.05 64.85 6.25 115.45q4.4 70.45 10.05 131.65q2.55 28.7 17.4 146.45q13.6 107.8 13.6 115.7q0 4.85 -2 7.85q-6.5 -25.2 -11.1 -60.95q-2.8 -23.7 -6.85 -61.75q-3.75 -32.75 -10.3 -135.15q-6.2 -96.6 -6.2 -112.2q-10.05 61.95 -20.1 134.9q-24.75 179.9 -24.75 264.55q-0.4 8 -1.7 17.4q1.2 17.65 1.2 26.6q0 4 -2.5 6.85q-6.45 -25.1 -9.35 -63.8q-1.35 -19 -2.95 -32.15q-3.05 -24.85 -6.2 -63.15q-7 -55 -13.75 -112.5q-9.25 -78.55 -12.15 -116.65q-14.25 116.8 -17.55 152.8q-2.5 27.35 -6.65 65.55q-2.35 21.65 -5.7 65.75q-3.95 38.95 -12.55 66q-1.8 -1.35 -3.05 -4.4q-0.95 -2.4 -0.95 -3.7q3.1 -12.5 4.15 -20.6q4.25 -42.6 6.95 -65.6q9.35 -77.4 14.2 -108.15q-0.3 -5.75 -0.3 -9.8q0 -1.75 0.9 -3.45q0.8 -1.6 1.6 -1.8q0.35 0.9 0.35 2.6q17.45 147.4 27.25 235.65q13.6 122.3 19.75 189.8q0 -7.05 8 -85.05q8.5 -83.05 13.25 -116.7q2.7 -18.75 6.05 -50.45q4.05 -37.95 5.65 -50.85q7 -55.95 18.85 -93.5q0.35 -3.9 0.7 -4.55q0.35 1.05 0.35 2.8q0 12.35 -25.5 184.75q-9.15 -47 -17.05 -83.45q-4.4 82.55 -13.25 153.6q-0.15 -0.4 -0.15 -1.95q0 -13.4 6.4 -87.65q5.85 -68.2 7.85 -85.1q5.25 34.05 15.9 86.5q2.45 -17.3 5.35 -43.8q6.15 -52.65 14.8 -85.75q-2.55 14.35 -10.6 37.65q-12.35 35.45 -13.15 38.1q-1.6 -8.6 -2.5 -29.55q-0.85 -19.8 -3.25 -30.45q-2.7 8.95 -7 29.35q-4.7 18.25 -12.25 28.4q-0.15 -0.4 -0.15 -1.95q0 -2.7 8.4 -34q8.5 -31.75 14.85 -52.65q1.25 2.8 1.25 7.9q0 8.15 2 25.2q2 17.05 2 24.65q3.25 -8.95 11.75 -37.7q7.05 -23.75 13.25 -38.05q2.3 12.9 6.8 45.75q5.45 39.85 5.45 49.9q0 -4.7 -3.6 -7.75q0.3 -0.45 1.3 -0.3q-4.2 -22.4 -5.95 -34.05q-3.1 -20.3 -2.8 -34.95q6.05 4.4 10.2 10.9q4.65 7.25 4.65 13.85q0 9.55 -2 15.05q-3.75 10.35 -13.55 12.6q1.3 2.65 2.45 6.1q2.15 5.35 4.9 8.9q8.2 14.95 8.2 19.8q-24.3 -48.45 -31.25 -63q-0.3 0 -0.5 0.45q-5.3 34.4 -6.85 39.1q-0.9 -1.45 -1.2 -2.85q-0.3 -1.25 -0.3 -3.25q0.5 0 0.8 0.85q2.4 -15.5 5.25 -45q-0.3 -0.9 -0.3 -2.55q0 -1.2 1 -2.05q2.6 -27.8 4.55 -40.7q-0.35 -0.8 -0.35 -2.5q0 -6.4 4.65 -6.8q4.2 -0.35 10.25 4.05q0 5.15 -1.45 17.15q15.5 -3.5 15.5 -19.3q0 -6.05 -5 -12.7q-5.8 -7.8 -13.5 -7.8q-3.3 0 -6.6 2.25q0.55 4.65 0.85 12.25<g id="718" transform="matrix(1, 0, 0, 1, 1, 0)">
<path style="fill:#000000;fill-opacity:1" d="M533.6,133.25Q538.55 158.35 544.2 194.1Q552.35 245.65 552.35 264.35Q552.35 286 542.85 342.15Q534.1 393.65 529.1 409.85Q521.75 433.3 517.05 445.8Q509.3 466.45 500.25 482.6Q487.4 505.45 444.4 527.15Q428.1 535.35 412.4 540.8Q397.9 545.85 392 545.85L384.5 545.6Q382.5 542.6 382.5 538.85Q382.5 537.3 383.4 536.45L384.75 535.65Q384.8 509.2 391.95 436.8Q399.7 363.25 400.75 350.85L400.75 311.1Q401.25 308.15 401.55 303.05L401.75 296.5Q401.75 287.1 400.75 282.6L400.75 216.6Q397.75 181.95 397.1 160.4Q396.75 149.05 396.75 113.6Q396.75 72.05 397.1 61.8Q397.75 42.1 400 25.35L399.45 24.4Q398.75 22.95 398.75 21Q398.75 17.9 401.35 16.5L402.25 11.25Q403 13.2 403.45 15.7Q406.8 14.9 412.5 15.7Q425 17.45 444.15 25.9Q463.25 34.3 479.35 45.15Q496.95 57.05 503.75 67.25Q517 91.05 521.5 100.3Q530.9 119.65 533.6 133.25M520.1,112.75Q516.95 106.05 504.5 82.5Q496.95 68.1 470.65 52.8Q441 35.55 403.85 28.05L402.5 44.75Q401 60.8 401 63.75Q401 69.75 401.25 72.75L401.25 152.25Q402.9 164.15 403.75 182.45L405.25 212.85L405.25 278.1Q406.25 284.1 406.25 296.5Q406.25 309.6 405.25 315.6L405.25 354.6L397.1 448.55Q392.75 495.15 388.4 533.05Q390.05 531.2 391 528.35L391.5 529.8L392 530.85Q434.8 520.9 461.75 504.55Q484.45 490.75 497.5 471.2Q506.8 457.3 513.75 435.4L519.05 418.05Q522.1 408.2 524.85 401.85Q530.45 388.75 538.8 338.55Q547.35 287.4 547.35 264.6Q547.35 252.6 539.2 198.05Q532.55 153.2 530.6 143.25Q528.15 130.1 520.1 112.75M354.05,116.45Q354.5 117.4 354.5 119L354.25 121.25L353.25 122.75L337.2 123.2L320 124L272.5 123.75L271.8 122.55Q271.5 121.65 271.5 120Q271.5 116.15 274.15 93.3Q276.75 70.5 276.75 68.25L276.05 41.85Q275.75 25.5 277.25 18L278.65 48.75L279.25 69Q279.25 81 277.75 89.65Q276.25 98.3 276.25 103.1L276.5 115.5L321.5 115.5L323 115L353.25 115.25L354.05 116.45M379.5,223.55Q374.2 218.1 363.5 218.1Q335.65 218.1 324.05 269.75Q318.25 295.8 317.75 323.85L314.25 355.6L328.5 355.05L353 354.1L353 353.6Q354.4 354.4 354.9 355.25Q355.5 356.2 355.5 358Q355.5 359.6 354.9 360.9Q354 362.7 352 363.1L325 364.1L313.3 364.1L305.75 430.35L305.75 470.1Q304.75 474.6 304.75 483.6Q304.75 501.9 311 513.65Q318.45 527.6 333 527.6Q355.9 527.6 368.3 510.45Q372.2 505.05 374.65 498.4L376.5 492.35Q376.15 491.8 374.55 491.3L371.5 490.85L375 489.15Q377.3 488.1 378.6 488.1Q380.15 488.1 380.35 488.5L380.25 488.85Q380.75 491.85 380.75 494.1Q380.75 497.05 378.4 503.35Q375.4 511.35 370.55 518.15Q356.45 537.85 334 537.85Q325 537.85 313.55 526.65Q309.1 522.3 305.95 517.75Q302.95 513.45 302.75 511.35Q302.15 505.45 301.65 495.25L301.25 484Q301.25 471.6 302.25 465.6L302.25 425.85Q309.2 355.3 316 305.85Q317.5 294.7 321.7 276.45L328.75 245.85Q330.85 235.55 332.85 230.4Q336.65 220.7 343.25 215.85Q352 209.5 361.3 209.1Q369.15 208.75 376.1 212.7Q382.2 216.15 385.2 221.35Q388.2 226.5 386.25 229.85L385.8 230.3L385 231.1Q384.25 230.45 382.7 227.9Q381 225.1 379.5 223.55M238.5,16Q239 17.3 239 19L233.7 45.6Q228.4 72.95 228.25 90.25Q228.2 97.35 226 125.45Q224.25 147.85 225.5 161.5L225.5 212.35Q224.5 219.1 224.5 232.25Q224.5 237.95 226.5 266.95Q228.5 295.95 228.5 305.35L227.9 317.65Q227.2 328.75 226.5 335.35L226.5 405.1L225.5 408.85L225.5 512.35Q224.9 515.3 225.2 521.95Q224.95 528 221.5 531.35Q220.05 530 219.65 525.05Q219.5 523.15 219.5 518.25Q219.5 509.6 220.5 505.85L220.5 404.6L221.5 400.1L221.5 331.1Q222.2 325.45 222.9 316L223.5 305.25Q223.5 292.85 221.5 268.85Q219.5 244.85 219.5 232.1Q219.5 216.35 220.5 208.1L220.5 161Q221.45 148.05 222.1 122.65Q222.8 94.1 223.5 82.4Q226.15 35.25 237.25 13.75L238.5 16M165.25,6.5L165.35 8.5L166.25 5.75L167.4 8Q167.75 9.2 167.75 11L165.95 21.75Q169 86.6 172.2 137.2Q176.6 207.65 182.25 268.85Q184.8 297.55 199.65 415.3Q213.25 523.1 213.25 531Q213.25 535.85 211.25 538.85Q204.75 513.65 200.15 477.9L193 415.85Q190.2 392.15 186.15 354.1L179.5 292.1Q175.75 259.35 169.2 156.95Q163 60.35 163 44.75L163.1 39.3Q153.05 101.25 143 174.2Q118.25 354.1 118.25 438.75L118 468.25Q117.6 476.25 116.3 485.65Q117.5 503.3 117.5 512.25Q117.5 516.25 115 519.1Q108.55 494 105.65 455.3L103.45 423.25Q102.1 404.25 100.5 391.1Q97.45 366.25 94.3 327.95L89 263.6Q82 208.6 75.25 151.1Q66 72.55 63.1 34.45L52.8 120.3Q38.55 237.1 35.25 273.1Q32.75 300.45 28.6 338.65L21.25 405.1Q18.9 426.75 15.55 470.85Q11.6 509.8 3 536.85Q1.2 535.5 -0.05 532.45Q-1 530.05 -1 528.75L1.85 517.45Q4.95 504.95 6 496.85L7.9 480.75L9.75 463.85L17.5 397.85L24.3 332.2Q28.55 289.6 31.25 266.6L47.85 125.95Q57.2 48.55 62.05 17.8Q61.75 12.05 61.75 8Q61.75 6.25 62.65 4.55Q63.45 2.95 64.25 2.75L64.55 5.2L65.4 6.65Q65.75 7.55 65.75 9.25L65.45 12.95Q82.9 160.35 92.7 248.6Q106.3 370.9 112.45 438.4L112.75 407.6Q112.75 400.55 120.75 322.55Q129.25 239.5 134 205.85Q136.7 187.1 140.05 155.4Q144.1 117.45 145.7 104.55Q152.7 48.6 164.55 11.05Q164.9 7.15 165.25 6.5M311.4,131.55Q311.75 132.6 311.75 134.35Q311.75 146.7 286.25 319.1L283.75 319.1L267.8 235.45Q258.65 188.45 250.75 152L250.5 152Q246.1 234.55 237.25 305.6L236.5 305.6L236.15 304.95Q236 304.55 236 303Q236 289.6 242.4 215.35Q248.25 147.15 250.25 130.25L251.25 130Q256.5 164.05 267.15 216.5L284.75 303.1L285.25 303.1Q287.7 285.8 290.6 259.3L295.45 215.25Q301.6 162.6 310.25 129.5L311.4 131.55M293.9,189.55L294.6 185.1L294.45 186.25L293.9 189.55M286.25,332.6Q283.7 346.95 275.65 370.25Q263.3 405.7 262.5 408.35L261.5 408.6Q259.9 400 259 379.05Q258.15 359.25 255.75 348.6Q253.05 357.55 248.75 377.95Q244.05 396.2 236.5 406.35L236.15 405.7Q236 405.3 236 403.75Q236 401.05 244.4 369.75Q252.9 338 259.25 317.1Q260.5 319.9 260.5 325L259.5 334L258.5 343Q258.5 351.15 260.5 368.2Q262.5 385.25 262.5 392.85Q265.75 383.9 274.25 355.15Q281.3 331.4 287.5 317.1Q289.8 330 294.3 362.85Q299.75 402.7 299.75 412.75L299.5 416.1L298.85 416.55L298 417.35L295.75 417.1L296.1 409.85Q296.1 405.15 292.5 402.1Q292.8 401.65 293.8 401.8L295.25 402.1Q291.05 379.7 289.3 368.05Q286.2 347.75 286.5 333.1L286.25 332.6M266.5,371.85L266.4 371.05L266.8 371.35L266.5 371.85M262.65,418.85Q268.7 423.25 272.85 429.75Q277.5 437 277.5 443.6Q277.5 453.15 275.5 458.65Q271.75 469 261.95 471.25Q263.25 473.9 264.4 477.35L267.6 486.7Q269.75 492.05 272.5 495.6L282.3 512.55Q290.5 527.5 290.5 532.35L290.25 535L289.25 536.85Q264.95 488.4 258 473.85Q257.7 473.85 257.5 474.3L257 475.1L256.1 471.85L256 471.85L248.1 471.7L244.85 493.75Q239.55 528.15 238 532.85Q237.1 531.4 236.8 530Q236.5 528.75 236.5 526.75L236.9 520.95L237.5 513.6Q238 513.6 238.3 514.45L238.5 515.85L238.75 515.85Q241.15 500.35 244 470.85L243.8 470.4Q243.5 469.5 243.5 467.85Q243.5 466.65 244.5 465.8Q247.1 438 249.05 425.1L249 425.1L248.1 424.1Q247.75 423.3 247.75 421.6Q247.75 415.2 252.4 414.8Q256.6 414.45 262.65 418.85M250.25,437.1L250.5 446.85Q250.5 452 249.05 464L255 463L255 462.85L255.2 463L259 462.4Q274.5 458.9 274.5 443.1Q274.5 437.05 269.5 430.4Q263.7 422.6 256 422.6Q252.7 422.6 249.4 424.85Q249.95 429.5 250.25 437.1" />
</g>
</svg>
