<?xml version="1.0" encoding="utf-8"?>
<svg version="1.1" id="Layer_1"
xmlns="http://www.w3.org/2000/svg"
xmlns:xlink="http://www.w3.org/1999/xlink"


xml:space="preserve">
q10.55 -17.55 9.05 -35.2q-5.4 6.85 -9.5 15.65q-25.35 54.2 -47.35 110.2q-5.5 13.95 -12.65 26.85q-7.9 14.3 -12 29q0.9 -31.2 2.55 -62.4q3.15 -60 -3.05 -118.55q-2.4 0.1 -2.35 2.5q1.4 59.05 -0.4 118.5q-1.8 59.85 -4.3 119.3q-1.25 30.25 -6.7 59.65q-3.2 17.4 3.25 29.25q1.4 -1.15 1.65 -3q7.5 -58.7 8.7 -118.45q2.95 -3.5 4.55 -8q6.95 -20.2 14.55 -40q0.35 3.45 1 6.8q5.45 27.5 11.8 54.8q4 17.15 6.75 34.4q9.6 60.15 33.1 113.7q3.05 -3.4 2.75 -8.25q-0.8 -13.4 -4.85 -26.1q-17.75 -55.7 -29.8 -113.75q-7.4 -35.6 -17.5 -69.6q15.95 -38.9 33.95 -76.7q3.3 -6.9 7.15 -13.35q-3.5 -26.8 -29.85 -13.55q-19.9 10.05 -28.35 30.85q-7.65 18.95 -11.9 38.9q-4.45 21.05 -5.45 42.45q-0.85 18.4 0.85 36.75q1.7 18.45 3.75 36.6q2.75 24.6 23.35 32.55q22.4 8.75 39 -8.85q15.85 -16.7 19.4 -37.7q0.7 -3.95 -1.05 -7.75q-18.5 33 -52.05 38.65q-13.35 2.4 -17.1 -11.5q-9.45 -35.1 -8.75 -71.5q3.15 -5.15 0.95 -10.55q1.7 -46.6 30.6 -83.05q15.4 -7.4 31 -3.25q-14.25 56.65 -26.45 114.7q-4.55 21.65 -9.9 43.1q-2.9 11.55 -4.3 22.9q-5.45 -49.3 -12.1 -98.35q-4 -29.35 -7.3 -58.65q-1.3 -11.3 -5.05 -20.55q-0.45 -4.7 -4 -6.25q-9.05 30.15 -18.05 61.85q-9.15 32.3 -15.3 65.2q-10.75 57.6 -21.25 115.3q-5.3 29.2 -15.9 57.05q-6.15 16.2 0.05 28.3q5.85 -12.3 9.05 -26.1q13.45 -57.9 22.35 -116.55q4.9 -32.7 13.3 -64.7q6.35 41.1 10.35 82.55q5.7 58.4 14.1 115.4q1.15 -0.4 1.45 -1.1q2.05 -5 2.65 -10.35q5.35 -15.95 8.25 -34.1q9.4 -58.45 23.55 -116q6.05 -24.55 6.95 -48.55q2.85 45.35 8.1 91.6q6.7 58.65 12.3 117.7q4.15 44 3.65 88.5q-0.15 16.5 6.35 28.5q4.3 -23.7 2.35 -49.5q-1.95 -25.25 -4.25 -50.3q-5.7 -59 -17.3 -116.15q-6.15 35.25 -5.45 72.7q1.15 59.9 -2.85 119.15q-1.15 16.6 4.3 29.8q0.9 -0.6 0.95 -1.3q4.65 -50.5 4.8 -101.9q0.25 -60.2 -1.25 -118.5<g id="725" transform="matrix(1, 0, 0, 1, -70.3, 0)">
<path style="fill:#000000;fill-opacity:1" d="M391,142.8Q373 180.6 357.05 219.5Q367.15 253.5 374.55 289.1Q386.6 347.15 404.35 402.85Q408.4 415.55 409.2 428.95Q409.5 433.8 406.45 437.2Q382.95 383.65 373.35 323.5Q370.6 306.25 366.6 289.1Q360.25 261.8 354.8 234.3Q354.15 230.95 353.8 227.5L344.2 251.9Q336.6 271.7 329.65 291.9Q328.05 296.4 325.1 299.9L325.05 302.75Q323.85 362.5 316.35 421.2Q316.1 423.05 314.7 424.2Q308.25 412.35 311.45 394.95Q316.9 365.55 318.15 335.3Q320.65 275.85 322.45 216Q324.25 156.55 322.85 97.5Q322.8 95.1 325.2 95Q331.4 153.55 328.25 213.55Q326.6 244.75 325.7 275.95Q329.8 261.25 337.7 246.95Q344.85 234.05 350.35 220.1Q372.35 164.1 397.7 109.9Q401.8 101.1 407.2 94.25Q408.7 111.9 398.15 129.45Q394.3 135.9 391 142.8M459.95,144Q444.35 139.85 428.95 147.25Q400.05 183.7 398.35 230.3L434.45 223.75L436 227.05Q438.2 232.45 435.05 237.6L397.8 241.75L397.55 254.15Q396.85 290.55 406.3 325.65Q410.05 339.55 423.4 337.15Q456.95 331.5 475.45 298.5Q477.2 302.3 476.5 306.25Q472.95 327.25 457.1 343.95Q440.5 361.55 418.1 352.8Q397.5 344.85 394.75 320.25Q392.7 302.1 391 283.65Q389.3 265.3 390.15 246.9Q391.15 225.5 395.6 204.45Q399.85 184.5 407.5 165.55Q415.95 144.75 435.85 134.7Q462.2 121.45 465.7 148.25L459.95 144M216.2,91.25Q227.8 148.4 233.5 207.4L244.55 325.15Q246.85 350.2 248.8 375.45Q250.75 401.25 246.45 424.95Q239.95 412.95 240.1 396.45Q240.6 351.95 236.45 307.95Q230.85 248.9 224.15 190.25Q218.9 144 216.05 98.65Q215.15 122.65 209.1 147.2Q194.95 204.75 185.55 263.2Q182.65 281.35 177.3 297.3Q176.7 302.65 174.65 307.65Q174.35 308.35 173.2 308.75Q164.8 251.75 159.1 193.35Q155.1 151.9 148.75 110.8L147.75 103.35L121.2 204.6Q112.8 236.6 107.9 269.3Q99 327.95 85.55 385.85Q82.35 399.65 76.5 411.95Q70.3 399.85 76.45 383.65Q87.05 355.8 92.35 326.6Q102.85 268.9 113.6 211.3Q119.75 178.4 128.9 146.1Q137.9 114.4 146.95 84.25Q150.5 85.8 150.95 90.5L150.95 91.25L150.7 92.25Q154.45 101.5 155.75 112.8Q159.05 142.1 163.05 171.45Q169.7 220.5 175.15 269.8Q176.55 258.45 179.45 246.9Q184.8 225.45 189.35 203.8Q201.55 145.75 215.8 89.1L216.2 89L216.2 91.25M280.45,132.25Q281.95 190.55 281.7 250.75Q281.55 302.15 276.9 352.65Q276.85 353.35 275.95 353.95Q270.5 340.75 271.65 324.15Q275.65 264.9 274.5 205Q273.8 167.55 279.95 132.3L280.45 132.25" />
</g>
</svg>
