<?xml version="1.0" encoding="utf-8"?>
<svg version="1.1" id="Layer_1"
xmlns="http://www.w3.org/2000/svg"
xmlns:xlink="http://www.w3.org/1999/xlink"


xml:space="preserve">
q-17.7 14.25 -21.6 37q-3.45 20.1 -4.75 40.5q-1.2 19.3 0.45 38.6q1.85 21.9 9.9 42.2q8.95 22.6 33.65 20.15q23 -2.75 35.9 -21.75q2.65 -3.95 4.45 -8.35q-6.3 17.3 2.4 32.55q8.7 -29.7 4.15 -61q-15.65 -2.9 -30.15 4.25q-13.5 23.8 -40.85 22.1q-14.9 -0.15 -20 -13.3q-13.55 -34.8 -12.2 -72.2q0.4 -11.45 3.05 -22.5q2.55 -10.8 7.15 -20.95q4.6 -10.1 11.1 -19.35q36.95 -17.3 59.25 14.75q0.2 -23.85 -21.6 -33.05q-20.5 -8.7 -38.3 5.6q-23.75 68.95 -36.35 142.65q-0.6 3.65 -1.6 7.25q-0.95 2.85 -1.75 6.1q-2.9 11.55 2.7 21.9q16.85 -73.35 35.5 -146.35q1.4 -5.4 3.05 -10.7q4.1 40.7 12.95 80.55q0.4 1.8 0.45 3.65q0.2 3.1 0.95 6.05q1.5 5.9 5.65 10.05q19.95 -51.7 30.95 -113.9q4.9 77.15 12.4 154.1q0.2 1.8 0.7 3.55q0.45 -99.15 -16.5 -197.2q-6.8 10.6 -5.3 21q18.95 -17.6 2.5 -37.8q-0.35 -0.4 -0.65 0.35q-1.7 7.7 2.3 14.55q-3.75 59.3 -2.85 119.25q0.3 19.05 -1.9 37.35q-2.1 17.4 4.3 29.15q2.05 -2.2 2.25 -5.25q2.5 -33.9 2.4 -68.25q-0.2 -60.35 -1.15 -118.45q-2.8 1.95 -3.05 6.2<g id="724" transform="matrix(1, 0, 0, 1, -136.15, 0)">
<path style="fill:#000000;fill-opacity:1" d="M390.6,185.2Q412.4 194.4 412.2 218.25Q389.9 186.2 352.95 203.5Q346.45 212.75 341.85 222.85Q337.25 233 334.7 243.8Q332.05 254.85 331.65 266.3Q330.3 303.7 343.85 338.5Q348.95 351.65 363.85 351.8Q391.2 353.5 404.7 329.7L403.7 324.85L386.75 324.55L386.7 314.95Q401.2 307.8 416.85 310.7Q421.4 342 412.7 371.7Q404 356.45 410.3 339.15Q408.5 343.55 405.85 347.5Q392.95 366.5 369.95 369.25Q345.25 371.7 336.3 349.1Q328.25 328.8 326.4 306.9Q324.75 287.6 325.95 268.3Q327.25 247.9 330.7 227.8Q334.6 205.05 352.3 190.8Q370.1 176.5 390.6 185.2M185.15,192.45L202.5 292.15L235.2 176Q252.15 274.05 251.7 373.2L248.75 367.2L247.45 364L246.4 360.45Q245.9 358.7 245.7 356.9Q238.2 279.95 233.3 202.8Q222.3 265 202.35 316.7Q198.2 312.55 196.7 306.65Q195.95 303.7 195.75 300.6L195.6 297.2L195.45 293.6Q195.4 291.75 195 289.95Q186.15 250.1 182.05 209.4L181.2 212.35L180.3 215.4Q178.65 220.7 177.25 226.1Q158.6 299.1 141.75 372.45Q136.15 362.1 139.05 350.55Q139.85 347.3 140.8 344.45L143.05 337.4L145.2 330.2Q146.2 326.6 146.8 322.95Q159.4 249.25 183.15 180.3L183.75 182L185.5 179.75L185.15 192.45M304,181.05Q304.3 180.3 304.65 180.7Q321.1 200.9 302.15 218.5Q300.65 208.1 307.45 197.5L306.3 195.6Q302.3 188.75 304 181.05M284.2,181Q285.15 239.1 285.35 299.45Q285.45 333.8 282.95 367.7Q282.75 370.75 280.7 372.95Q274.3 361.2 276.4 343.8Q278.6 325.5 278.3 306.45Q277.4 246.5 281.15 187.2Q281.4 182.95 284.2 181" />
</g>
</svg>
