<?xml version="1.0" encoding="utf-8"?>
<svg version="1.1" id="Layer_1"
xmlns="http://www.w3.org/2000/svg"
xmlns:xlink="http://www.w3.org/1999/xlink"


xml:space="preserve">
q-33.95 3.9 -67.5 3.5q-1.4 3.5 -1.15 7.5q0.2 2.75 2.15 4.5q17.65 2.25 35.1 2.2q-4.45 41.9 -5.3 85q-0.6 29.75 -4.65 59.1q-2.3 16.85 3.85 29.4q6.3 -32.9 8.15 -67.4q2.85 -53.5 0.5 -106.1q19.15 -0.25 38.1 -3.2q2.1 -3.85 1.65 -8.25q-0.25 -2.8 -1.65 -5.25q-0.35 -0.4 -0.75 -0.45q-1.2 40 -1.65 80.15q-11.65 -2.7 -21.9 1.85q-0.1 -37 -3.25 -73.5q-1.4 -0.2 -1.45 1q-1.55 59.35 -4.6 118.45q-0.8 15 -3.95 29.65q-3.05 14.15 4.5 21.85q6.4 -25.55 7.7 -52.45q0.75 -15.85 0.95 -31.6q10.75 1.65 21.85 0.55q0 15.1 -2.15 29.85q-2.45 16.9 3.25 29.4q1.75 -1.85 2.05 -4.5q3.7 -32.2 4.25 -65.25q1.95 -3.45 1.75 -7.5q-0.15 -3.2 -1.75 -6q-0.35 -0.35 -0.8 -0.4q0.2 -45.65 -1.6 -90.5q-4 3.15 -4.2 9.75q-14.8 49.3 -25.05 100.35q-5.8 29.05 -14.5 57.35q-5.1 16.55 1.75 29q4.05 -7.8 6.1 -16.85q13.05 -57.65 24.9 -115.8q3 -14.6 7 -28.85q1.1 -4 1.8 -7.95q5.55 46.75 11.45 93.95q0.45 2.25 2.35 2.15q0.25 1.75 2 2q3.35 -3.65 4.3 -9.4q5.4 -33.85 15.45 -66.45q2.1 -6.85 3.45 -13.6q1.75 10.9 2 21.8q0.25 13.8 7.8 20.25q3 -12.5 0.7 -25.65q-6.75 -38.15 -12.05 -76.5q-5.55 -40.2 -15.4 -78.55q0.1 -5.15 -0.25 -10.25q-1.95 0.5 -2.75 2.9q-17.15 51.7 -23.4 105.45q-1.75 -52.95 -13.8 -104.85q-0.85 -0.15 -1 0.4q-0.55 0.15 -0.5 0.8q-3.65 59.25 -1.85 119.2q0.55 18.75 -2.1 37.3q-2.35 16.55 3.05 29.95q5.6 -12.7 5.15 -28.25q-1.8 -59.7 0.6 -119.2q0.9 -23.05 -1.25 -44.25q-3.35 0.95 -3.6 5.25<g id="715" transform="matrix(1, 0, 0, 1, -133.65, 0)">
<path style="fill:#000000;fill-opacity:1" d="M396.45,180.8Q396.85 180.85 397.2 181.25Q398.6 183.7 398.85 186.5Q399.3 190.9 397.2 194.75Q378.25 197.7 359.1 197.95Q361.45 250.55 358.6 304.05Q356.75 338.55 350.45 371.45Q344.3 358.9 346.6 342.05Q350.65 312.7 351.25 282.95Q352.1 239.85 356.55 197.95Q339.1 198 321.45 195.75Q319.5 194 319.3 191.25Q319.05 187.25 320.45 183.75Q354 184.15 387.95 180.25L396.45 180.8M423.45,182.25Q425.25 227.1 425.05 272.75L425.4 272.8Q425.85 272.85 426.2 273.2Q427.8 276 427.95 279.2Q428.15 283.25 426.2 286.7L424.95 286.95L424.75 300.7Q424.2 333.75 420.5 365.95Q420.2 368.6 418.45 370.45Q412.75 357.95 415.2 341.05Q417.35 326.3 417.35 311.2L417.45 287.95Q406.35 289.05 395.6 287.4Q395.4 303.15 394.65 319Q393.35 345.9 386.95 371.45Q379.4 363.75 382.45 349.6Q385.6 334.95 386.4 319.95Q389.45 260.85 391 201.5Q391.05 200.3 392.45 200.5Q395.6 237 395.7 274Q405.95 269.45 417.6 272.15Q418.05 232 419.25 192Q419.45 185.4 423.45 182.25M178.2,183.9Q178.15 183.25 178.7 183.1L179.5 180.4Q179.65 179.85 180.5 180L181.05 184.35L181.25 184.5Q193.3 236.4 195.05 289.35Q201.3 235.6 218.45 183.9Q219.25 181.5 221.2 181Q221.55 186.1 221.45 191.25Q231.3 229.6 236.85 269.8Q242.15 308.15 248.9 346.3Q251.2 359.45 248.2 371.95Q240.65 365.5 240.4 351.7Q240.15 340.8 238.4 329.9L219.6 214L219.2 211.25Q217.85 218 215.75 224.85Q205.7 257.45 200.3 291.3Q199.35 297.05 196 300.7Q194.25 300.45 194 298.7L194.1 297.85Q192.2 297.95 191.75 295.7Q185.85 248.5 180.3 201.75Q179.6 205.7 178.5 209.7Q174.5 223.95 171.5 238.55Q159.65 296.7 146.6 354.35Q144.55 363.4 140.5 371.2Q133.65 358.75 138.75 342.2Q147.45 313.9 153.25 284.85Q163.5 233.8 178.3 184.5L178.2 183.9M285.45,179.5Q287.6 200.7 286.7 223.75Q284.3 283.25 286.1 342.95Q286.55 358.5 280.95 371.2Q275.55 357.8 277.9 341.25Q280.55 322.7 280 303.95Q278.2 244 281.85 184.75Q282.1 180.45 285.45 179.5" />
</g>
</svg>
