<?xml version="1.0" encoding="utf-8"?>
<svg version="1.1" id="Layer_1"
xmlns="http://www.w3.org/2000/svg"
xmlns:xlink="http://www.w3.org/1999/xlink"


xml:space="preserve">
q1.2 19.25 1 38.2q-0.6 59.85 -7.45 118.5q-2.65 22.55 -8 44.55q-3.35 13.8 4.35 21.4q25.5 8.7 51.75 9q0.75 -1 1.15 -2.2q0.7 -2.2 0.8 -4.55q-0.3 -2.8 -1.6 -5.3q-21.75 0.45 -44.6 -4.1q1.5 -5.5 2.15 -11.45q6.55 -58.6 9.15 -117.85q2.55 -59.9 -1.45 -118.45q-5.45 16.05 -4.15 36.3q-19.45 7.85 -24.1 29.8q-12.25 58.35 -14.5 118.45q-1.1 29.2 -3.5 58.3q-2.7 32.75 19.6 54.15q6.2 0.25 11.25 -3.75q16.2 -15.45 9.25 -33.6q-1.6 -0.3 -2.75 0.75q-7.05 15.95 -22.55 19.45q-8.25 -6 -9.75 -16.25q-3.7 -24.95 -2.75 -50.3q0.95 -25.7 2.35 -51.1q1.4 -1.2 1.85 -3q1.3 -5.45 -1.5 -10.25q-0.6 -1 -1.6 -1.75q3 -41.35 14.05 -80.8q3.85 -10.25 14.2 -12.55q15 -3.3 20.95 10.95q2.65 -3.55 1.9 -8.25q-1.75 -11 -10.65 -17.25q-6 -37.7 -34 -60.25q-1.7 -0.05 -2.8 1.05q-0.6 1.55 -2.1 2.25q-2.9 0.15 -4.9 2.3q-28.05 29.65 -31.95 71.9q-5.4 59 -5.5 117.8q0 35.4 22.6 60.7q16 4.2 28.65 -8.1q29.55 -28.85 41.75 -69.35q17.5 -58.05 7.85 -118.25q-13.75 52.05 -20.45 106.4q-6.7 54.35 -19.75 106.95q-4.3 -44.25 -7.45 -88.6q-4.3 -59.6 -16.15 -116.85q-1.1 0.3 -1.4 1.35q-14.35 28.75 -21.9 62.05q-6.55 29.05 -15.85 57.25q-5.6 16.8 1.95 28.2q15.5 -55.8 27.45 -113.25q12.05 -58.15 30.2 -114.25q4.3 -13.45 4.65 -26.15q1.05 23.2 3.25 46.35q5.7 58.75 11.75 117.5q3 29.45 2.1 59.3q-0.55 17.2 7.8 28.25q8.75 -32.6 14.45 -66.6q9.85 -58.3 20.1 -116.55q3.9 -22 5 -43.45q3.55 33.5 5.65 67.2q3.65 59.4 13 117.75q2.4 14.85 1.5 29.85q-1.1 17.55 7.55 28.3q2.8 -23.9 -0.85 -49.4q-6.3 -44.15 -9.2 -88.65q-3.85 -59.65 -16.45 -116.9q4.05 -3.4 9.35 -4.1q13.2 -1.05 24.5 4.75q19.85 24 23.95 55.9q7.9 61.7 -19.05 117.8q-5.6 11.65 -12.4 22.7q-14.25 23.25 -39.75 21.55q-17.6 -25.55 -16.45 -58.2q1.15 -32.8 0.8 -66q-0.55 -52.15 27.9 -93.75<g id="581" transform="matrix(1, 0, 0, 1, -63.95, 0)">
<path style="fill:#000000;fill-opacity:1" d="M366.45,136Q370.45 194.55 367.9 254.45Q365.3 313.7 358.75 372.3Q358.1 378.25 356.6 383.75Q379.45 388.3 401.2 387.85L401.45 386.7L402.3 386.1L402.35 386.5L402.45 387.95L403.5 388.95L404.45 389.7Q405.75 392.2 406.05 395L406.15 397.95Q406.05 400.3 405.35 402.5Q404.95 403.7 404.2 404.7Q377.95 404.4 352.45 395.7L352.2 394.95Q344.5 387.35 347.85 373.55Q353.2 351.55 355.85 329Q362.7 270.35 363.3 210.5Q363.5 191.55 362.3 172.3Q361 152.05 366.45 136M458.2,143.05L461.45 143.5Q470.35 149.75 472.1 160.75Q472.85 165.45 470.2 169Q464.25 154.75 449.25 158.05Q438.9 160.35 435.05 170.6L433.7 173Q422.65 212.45 419.65 253.8L434.45 254.6L439.45 255Q440.45 255.75 441.05 256.75Q443.85 261.55 442.55 267Q442.1 268.8 440.7 270L434.35 269.6L418.8 268.05Q417.4 293.45 416.45 319.15Q415.5 344.5 419.2 369.45Q420.7 379.7 428.95 385.7Q444.45 382.2 451.5 366.25L452.95 363.2L452.75 362.45L452.7 361.7L452.7 361.55L455 358.25L455.1 358.35L456.7 357.2Q457.85 356.15 459.45 356.45Q466.4 374.6 450.2 390.05L439.7 399.2Q434.65 403.2 428.45 402.95Q406.15 381.55 408.85 348.8Q411.25 319.7 412.35 290.5Q414.6 230.4 426.85 172.05Q431.5 150.1 450.95 142.25L458.2 143.05M334.6,317.75Q322.4 358.25 292.85 387.1Q280.2 399.4 264.2 395.2Q241.6 369.9 241.6 334.5Q241.7 275.7 247.1 216.7Q251 174.45 279.05 144.8Q281.05 142.65 283.95 142.5Q285.45 141.8 286.05 140.25L286.45 139.5Q287.55 138.4 289.25 138.45L290.9 138.15L290.95 138L306.95 139.1L308.45 139.25Q336.45 161.8 342.45 199.5Q352.1 259.7 334.6 317.75M201.2,139Q213.8 196.25 217.65 255.9Q220.55 300.4 226.85 344.55Q230.5 370.05 227.7 393.95Q219.05 383.2 220.15 365.65Q221.05 350.65 218.65 335.8Q209.3 277.45 205.65 218.05Q203.55 184.35 200 150.85Q198.9 172.3 195 194.3Q184.75 252.55 174.9 310.85Q169.2 344.85 160.45 377.45L159.6 376.65L158.7 386.7Q150.35 375.65 150.9 358.45Q151.8 328.6 148.8 299.15Q142.75 240.4 137.05 181.65Q134.85 158.5 133.8 135.3Q133.45 148 129.15 161.45Q111 217.55 98.95 275.7Q87 333.15 71.5 388.95Q63.95 377.55 69.55 360.75Q78.85 332.55 85.4 303.5L111.55 187.8Q119.1 154.5 133.45 125.75L133.8 132.35Q134.1 131.3 135.2 131Q147.05 188.25 151.35 247.85Q154.5 292.2 158.8 336.45L159.75 348.95Q172.8 296.35 179.5 242Q186.2 187.65 199.95 135.6L200.45 135.5L200.4 139.45L201.2 139M277.45,160.25Q249 201.85 249.55 254Q249.9 287.2 248.75 320Q247.6 352.65 265.2 378.2Q290.7 379.9 304.95 356.65Q311.75 345.6 317.35 333.95Q344.3 277.85 336.4 216.15Q332.3 184.25 312.45 160.25Q301.15 154.45 287.95 155.5Q282.65 156.2 278.6 159.6L277.45 160.25" />
</g>
</svg>
