<?xml version="1.0" encoding="utf-8"?>
<svg version="1.1" id="Layer_1"
xmlns="http://www.w3.org/2000/svg"
xmlns:xlink="http://www.w3.org/1999/xlink"


xml:space="preserve">
q-11.85 59.25 -28.05 117.35q-0.85 -18.05 -2.3 -35.85q-1.95 -24.2 -0.15 -48.75q0.95 -13.9 -5.35 -21.6q-3.5 4.05 -4.55 9.55q-11.25 59.35 -23.25 118.6q-1.5 7.4 -4 14.5q-8.05 22.85 -7.7 44.8q7.9 -13.15 11.45 -29.6q12.65 -59 26.05 -117.6q3.4 38.95 2.1 78.4q-0.55 15.5 5.65 25.3q20 -49.8 28.25 -103.45q2.8 28.95 5.25 58.15q2.45 29.15 2.05 58.55q-0.25 17.45 7.45 29q2.85 -3.9 2.45 -9q-4.5 -59.25 -8.05 -118.55q-1.8 -30.1 -5.65 -59.15q-1.2 -0.25 -1.45 0.85q2.2 -48.75 -13.5 -93.05q-1.7 -1.65 -4 -1.45q-12.05 -11.8 -29.95 -8.8q-26.3 10.8 -29.4 40.5q-6.2 59.05 2.75 117.55q5.25 34 38.65 31.4q23 -14.4 30.85 -41.5q6.15 -21.35 7.15 -43.65q-11.7 51.15 -20.2 103.35q-4.8 29.75 -14.15 58q-5.6 17 -0.55 29.45q7.1 -21.15 11.55 -42.8q12.05 -58.65 22.95 -116.9q0.65 19.45 1.7 39q1.05 19.5 0.05 38.85q-0.8 15.8 6.75 25.35q17.85 -51.8 34.2 -103.45q2.6 35.85 7.6 71.35q4.1 29.15 5.6 58.45q0.9 17.6 9.55 28.9q4.65 -9.65 -0.1 -15.95q-6.2 -56.15 -14.2 -112.1q-2.05 -14.6 -1.5 -29.3q0.7 -17.7 -6.55 -29.05q-17.2 52.35 -33.95 104.7q-1.1 -54.05 -8.45 -106.45q-0.75 0.1 -0.85 0.4q26.2 52.9 6.5 114.8q-4.55 14.25 -12.75 26.95q-4.7 7.15 -13.05 8.9q-8.4 1.8 -14.65 -3.6q-18.4 -15.9 -21.65 -42.95q-5.95 -49.8 9.6 -96.25q3.25 -9.65 12.8 -13.6q9.1 -3.75 18.8 -3.6q7.65 0.7 13.25 5.75q-5.9 11.15 -5.9 24.05q6.7 -11.55 -1.65 -26.35q-2.55 -4.55 -4.2 -9.6q-3.35 -10.65 -8.9 -17.65q1.1 5.15 2.35 10.3<g id="567" transform="matrix(1, 0, 0, 1, -137.7, 0)">
<path style="fill:#000000;fill-opacity:1" d="M404.45,181.5Q408.3 210.55 410.1 240.65Q413.65 299.95 418.15 359.2Q418.55 364.3 415.7 368.2Q408 356.65 408.25 339.2Q408.65 309.8 406.2 280.65Q403.75 251.45 400.95 222.5Q392.7 276.15 372.7 325.95Q366.5 316.15 367.05 300.65Q368.35 261.2 364.95 222.25Q351.55 280.85 338.9 339.85Q335.35 356.3 327.45 369.45Q327.1 347.5 335.15 324.65Q337.65 317.55 339.15 310.15Q351.15 250.9 362.4 191.55Q363.45 186.05 366.95 182Q373.25 189.7 372.3 203.6Q370.5 228.15 372.45 252.35Q373.9 270.15 374.75 288.2L374.95 299.7Q391.15 241.6 403 182.35Q403.25 181.25 404.45 181.5M326.8,326.45Q318.95 353.55 295.95 367.95Q262.55 370.55 257.3 336.55Q248.35 278.05 254.55 219Q257.65 189.3 283.95 178.5Q301.85 175.5 313.9 187.3L314.45 188L315.25 188.3L316.45 188.3Q318.75 188.1 320.45 189.75Q336.15 234.05 333.95 282.8Q332.95 305.1 326.8 326.45M178.5,179.25Q185.85 231.65 186.95 285.7L187 286.7Q203.75 234.35 220.95 182Q228.2 193.35 227.5 211.05Q226.95 225.75 229 240.35Q237 296.3 243.2 352.45Q247.95 358.75 243.3 368.4L242.7 369.2Q234.05 357.9 233.15 340.3Q231.65 311 227.55 281.85Q222.55 246.35 219.95 210.5Q203.6 262.15 185.75 313.95Q178.2 304.4 179 288.6Q180 269.25 178.95 249.75Q177.9 230.2 177.25 210.75Q166.35 269 154.3 327.65Q149.85 349.3 142.75 370.45Q137.7 358 143.3 341Q152.65 312.75 157.45 283Q165.95 230.8 177.65 179.65Q177.75 179.35 178.5 179.25M297.95,191.25Q288.25 191.1 279.15 194.85Q269.6 198.8 266.35 208.45Q250.8 254.9 256.75 304.7Q260 331.75 278.4 347.65Q284.65 353.05 293.05 351.25Q301.4 349.5 306.1 342.35Q314.3 329.65 318.85 315.4Q338.55 253.5 312.35 200.6L311.8 197.6L311.2 197Q305.6 191.95 297.95 191.25M295.05,234.6L295.1 234.05Q300.65 241.05 304 251.7L305.95 252.25L306.85 259.45Q308.5 264.5 311.05 269.05Q319.4 283.85 312.7 295.4L310.7 293.95L301.25 261.05L286.7 260.45L274.3 286.2L274.05 283.05Q274.05 270.15 279.95 259L279.95 253L284.55 251.55L295.9 238.5L295.05 234.6M295.95,251.25L298.8 251.35Q297.55 246.2 296.45 241.05L291.45 250.9L295.95 251.25" />
</g>
</svg>
