<?xml version="1.0" encoding="utf-8"?>
<svg version="1.1" id="Layer_1"
xmlns="http://www.w3.org/2000/svg"
xmlns:xlink="http://www.w3.org/1999/xlink"


xml:space="preserve">
q0.2 59.75 -1.15 119.25q-1.35 59.7 -4.15 119.2q-0.55 11.2 -2.3 22.25q-1.85 -6.85 -4.5 -13.6q-9.1 -23.05 -16.45 -46.5q-17.6 -56.05 -33.55 -113.35q-15.8 -56.75 -30.9 -113.5q-0.3 0.05 -0.3 0.15q-3.65 15.75 -3.55 34.25q0.2 59.9 -3.2 119.2q-0.4 7.5 -2.3 14.6q-4.45 17.05 2.35 29.65q0.75 -0.75 0.95 -1.6q7.7 -38.15 7.65 -77.85q0 -59.65 0.65 -119.25q0.55 -48.8 -0.3 -97.15q3.4 22.85 9.05 45.9q13.85 56.5 32 111.9q18.55 56.55 33.8 114.65q4.2 16 12.45 27.15q1.4 -1.15 1.4 -3q8.5 -35.3 8.2 -74.1q-0.45 -59.85 1 -119.25q1.45 -60.05 -0.85 -118.5q-4.15 9.05 -4.1 21.75q-7.7 24.6 -12.9 52.4q-5.2 27.7 -11.55 55.15q-3.35 14.5 -8.35 28.35q-6 16.7 0.8 29.1q9.2 -33.1 17.55 -66.7q3.75 27.65 6.95 55.45q-1.45 -0.65 -2.25 -2.25q-0.7 3.2 3.25 6.75q-0.6 7.6 5.25 9.5q0.65 -0.75 0.65 -1.5q0.5 -23.9 -3.1 -48.15q-8.8 -58.7 -16.8 -116.85q-0.95 2.4 -1.65 4.95q-5.15 50.35 -10 101.15q-0.7 7.5 -2.6 14.6q-4.75 17.5 2.6 29.4q1.6 -1.5 2.2 -3.7q3.2 -11.75 4.7 -23.85q3 -24.1 4.2 -48.1q4.05 -0.65 7.65 -1.85q4.1 17.15 7.45 34.65q4.8 24.75 16.95 44.15q2.4 -1.5 1.8 -4.2q-8.85 -38.95 -20.35 -77.7q14.25 -7.95 17.55 -27.85q5.45 -33.3 -26 -39.7q-3.1 -0.35 -5.5 1.4q-0.45 0.1 -0.45 0.25q0.45 13.45 0.1 27q-0.3 13.55 -0.1 27q0.4 31.15 -16.75 54.7q-8.7 2.75 -17.25 0.5q-2.95 -17.4 -1.55 -35.95q3.4 -44.8 1.05 -88.5q-6.3 34 -7.15 71.25q-0.25 12.2 -1.65 24.5q-2.85 25.15 9.05 44.45q25.35 3.75 31.15 -20.45q14.1 -58.8 6.85 -118.25q-5.8 7.3 -3.75 13.75q28.2 3.05 19.05 29.35q-4.55 13.05 -18.7 15.1q-23.5 11.05 -32.65 35.2q-21.2 55.95 -21 116.3q0.05 15.15 -0.35 30q-1.45 59.45 11.5 117q4.75 20.9 25.6 22q6.25 0.35 10.9 -3.7q39.25 -34.35 45 -87.25q6.4 -59.05 3.25 -118.65q-2.85 -54.05 -23.75 -103.4q-1.7 -2.8 -4.75 -4.5q-0.6 -0.4 -1.25 -0.45q14.35 57.85 13.15 118.3q-0.1 62.15 -43.9 104.2q-6.95 2.35 -14.25 2q-15.15 -8.75 -17.8 -26.75q-5.95 -40.15 -7.3 -81.2q-1.9 -59.55 6.2 -118.05q5.8 -42.2 40.65 -64.95q9.2 -2.9 14 4q0.45 3.1 0.5 6q1.85 0.2 2.4 -1.6q0.35 -1.25 1.1 -1.4q-11.35 52.5 -21.4 106.1q-5.5 29.3 -10.1 58.75q-1.7 1.6 -2.75 3.5q-4.1 -0.3 -2.25 2.75q1.85 7.2 7.5 9.75q5.55 -9.05 6.8 -20.1q5.6 -51.05 14.35 -101.85q10.1 -58.25 21.75 -116.25q3 -14.75 4.2 -29.25q6.05 54.7 11.6 109.6q5.95 58.65 13.75 117.1q-2 15.45 5.75 25q11.3 -50.15 16.1 -101.9q5.45 -59.05 14.7 -117.55q2.35 -14.85 3.6 -29.45q3.95 51.75 10.15 103.1q7.05 58.75 9.45 117.9q1.3 31.4 10.25 58.9q5.2 -5.55 4.15 -14.1q-7.3 -58.6 -12.4 -117.55q-2.6 -29.85 -5.6 -59.5q-5.95 -59.25 -13.9 -117.55q-1.9 -0.2 -2.3 1.7q-11.95 57.5 -18.3 116.2q-6.3 58.65 -14.75 117q-0.65 -5.8 -1.7 -11.65q-10.45 -58 -16.4 -116.8q-6 -58.95 -10.35 -117q-1.8 3.2 -2.9 6.8<g id="571" transform="matrix(1, 0, 0, 1, -34.4, 0)">
<path style="fill:#000000;fill-opacity:1" d="M518.45,103.75Q520.75 162.2 519.3 222.25Q517.85 281.65 518.3 341.5Q518.6 380.3 510.1 415.6L510.1 418.95Q510.1 420.8 508.7 421.95Q500.45 410.8 496.25 394.8Q481 336.7 462.45 280.15Q444.3 224.75 430.45 168.25Q424.8 145.2 421.4 122.35Q422.25 170.7 421.7 219.5Q421.05 279.1 421.05 338.75Q421.1 378.45 413.4 416.6Q413.2 417.45 412.45 418.2Q405.65 405.6 410.1 388.55Q412 381.45 412.4 373.95Q415.8 314.65 415.6 254.75L415.25 135.5Q415.15 117 418.8 101.25L418.7 100.45Q418.7 100.35 419 100.3L419.2 99.5L420.2 100.25L420.95 101L421 101.85Q436.1 158.6 451.9 215.35Q467.85 272.65 485.45 328.7Q492.8 352.15 501.9 375.2Q504.55 381.95 506.4 388.8L506.75 386.2Q508.5 375.15 509.05 363.95Q511.85 304.45 513.2 244.75Q514.55 185.25 514.35 125.5Q514.3 112.8 518.45 103.75M348.45,99.25Q356.45 157.4 365.25 216.1Q368.85 240.35 368.35 264.25Q368.35 265 367.7 265.75Q361.85 263.85 362.45 256.25Q358.5 252.7 359.2 249.5Q360 251.1 361.45 251.75L361.45 251.5Q358.25 223.7 354.5 196.05L332 195.3Q323.65 228.9 314.45 262Q307.65 249.6 313.65 232.9Q318.65 219.05 322 204.55Q328.35 177.1 333.55 149.4Q338.75 121.6 346.45 97L346.8 104.2Q347.5 101.65 348.45 99.25M352.85,183.95L345.4 133.8L334.6 184.65L352.85 183.95M359.15,269.55L359.45 268.75Q361.85 267 364.95 267.35L364.95 267.25Q396.4 273.65 390.95 306.95Q387.65 326.85 373.4 334.8Q384.9 373.55 393.75 412.5Q394.35 415.2 391.95 416.7Q379.8 397.3 375 372.55Q371.65 355.05 367.55 337.9L367.45 337.45Q363.85 338.65 359.8 339.3Q358.6 363.3 355.6 387.4Q354.1 399.5 350.9 411.25Q350.3 413.45 348.7 414.95Q341.35 403.05 346.1 385.55Q348 378.45 348.7 370.95Q353.55 320.15 358.7 269.8Q358.7 269.65 359.15 269.55M341.45,273.5Q348.7 332.95 334.6 391.75Q328.8 415.95 303.45 412.2Q291.55 392.9 294.4 367.75Q295.8 355.45 296.05 343.25Q296.9 306 303.2 272Q305.55 315.7 302.15 360.5Q300.75 379.05 303.7 396.45Q312.25 398.7 320.95 395.95Q338.1 372.4 337.7 341.25Q337.5 327.8 337.8 314.25Q338.15 300.7 337.7 287.25Q335.65 280.8 341.45 273.5M379.05,308.85Q388.2 282.55 360 279.5L360.35 323.95Q374.5 321.9 379.05 308.85M260.45,93.05Q261.1 93.1 261.7 93.5L262.95 94.25Q266 95.95 267.7 98.75L268.45 99.05L270.45 100Q291.35 149.35 294.2 203.4Q297.35 263 290.95 322.05Q285.2 374.95 245.95 409.3Q241.3 413.35 235.05 413Q214.2 411.9 209.45 391Q196.5 333.45 197.95 274Q198.35 259.15 198.3 244Q198.1 183.65 219.3 127.7Q228.45 103.55 251.95 92.5L260.45 93.05M268.95,120.5Q268.2 120.65 267.85 121.9Q267.3 123.7 265.45 123.5L265.45 116Q265.4 113.1 264.95 110Q260.15 103.1 250.95 106Q216.1 128.75 210.3 170.95Q202.2 229.45 204.1 289Q205.45 330.05 211.4 370.2Q214.05 388.2 229.2 396.95Q236.5 397.3 243.45 394.95Q287.25 352.9 287.35 290.75L287.7 260.75Q288.9 200.3 274.55 142.45L268.95 120.5M91.5,98L91.6 100.3Q92.7 96.7 94.5 93.5Q98.85 151.55 104.85 210.5Q110.8 269.3 121.25 327.3Q122.3 333.15 122.95 338.95L124.1 332.4Q132.55 274.05 138.85 215.4Q145.2 156.7 157.15 99.2Q157.55 97.3 159.45 97.5L159.45 99.3L160.2 98Q168.15 156.3 174.1 215.55Q177.1 245.2 179.7 275.05Q184.8 334 192.1 392.6Q193.15 401.15 187.95 406.7Q179 379.2 177.7 347.8Q175.3 288.65 168.25 229.9Q162.05 178.55 158.1 126.8Q156.85 141.4 154.5 156.25Q145.25 214.75 139.8 273.8Q135 325.55 123.7 375.7L122.7 374.1L121.95 379.2Q114.2 369.65 116.2 354.2Q108.4 295.75 102.45 237.1Q96.9 182.2 90.85 127.5Q89.65 142 86.65 156.75Q75 214.75 64.9 273Q56.15 323.8 50.55 374.85Q49.3 385.9 43.75 394.95Q38.1 392.4 36.25 385.2Q34.4 382.15 38.5 382.45Q39.55 380.55 41.25 378.95L59.45 262.95Q64.05 233.5 69.55 204.2Q79.6 150.6 90.95 98.1L91.5 98" />
</g>
</svg>
