<?xml version="1.0" encoding="utf-8"?>
<svg version="1.1" id="Layer_1"
xmlns="http://www.w3.org/2000/svg"
xmlns:xlink="http://www.w3.org/1999/xlink"


xml:space="preserve">
q-3.65 44.5 -4.65 89.95q-0.65 29.65 -4.25 59.05q-2.8 23.2 0.25 44.45q1.15 -0.35 1.25 -0.95q7.55 -36.25 9.4 -74q1 -20.35 1.15 -40.6q3.75 -5.5 1.4 -12q-5.6 -1.05 -10.75 0.65q-0.15 -26.75 -1.85 -53.3q32.7 7.9 66.75 3q1.1 -1.7 1.35 -3.7q-0.15 -2.85 -1.6 -5.25q-0.35 -0.4 -0.7 -0.35q-34.95 3.25 -68.55 -3.15q-2.05 1 -2.25 3.5q-10.35 35.1 -19.95 72.35q-14.75 57.4 -21.3 115.1q0.25 1.7 2 2q4.35 -7.4 5.95 -16.85q9.75 -57.65 25.25 -114.6q4.1 -14.95 6.1 -29.65q5.3 31.9 7.2 64.2q0.8 13.05 5.35 22.8q0.4 1.15 1.35 1.65q1.1 -0.85 1.05 -2.2q2.35 -8.1 3.7 -16.05q0.4 40.05 6.35 80.45q4.3 29.25 7.4 58.55q1.4 13.2 8.45 20.55q1.95 -1.8 1.7 -4.45q-3.05 -30.5 -7.6 -60.95q-8.2 -54.5 -14.65 -108.75q0.35 -6.3 0.05 -12.55q-5.65 8.6 -8.25 20q-2.6 11.35 -6.05 22.2q-8.1 25.4 -11.85 51.2q-4.35 -47.45 -12.8 -94.15q-29.1 15.4 -35.25 50q-10.45 58.9 -1.35 117.95q2.5 16.35 16.55 21.8q7.1 2.75 14.55 0.5q30.25 -9.2 38.2 -39.75q15.05 -58.05 3.4 -117.15q-3.2 -15.95 -15.35 -24.1q-7.8 -8.9 -20.05 -8.45q8.2 0.05 13.5 6q15.5 34.65 15.8 73.45q0.25 30.7 -11.65 58.05q-14.3 32.9 -48.4 21.95q-14.7 -58.75 -2.2 -117.55q6.1 -28.65 31.7 -38.15<g id="569" transform="matrix(1, 0, 0, 1, -139, 0)">
<path style="fill:#000000;fill-opacity:1" d="M342.2,179.25L342.65 184.9Q342.85 182.4 344.9 181.4L344.95 181.25Q378.55 187.65 413.5 184.4Q413.85 184.35 414.2 184.75Q415.65 187.15 415.8 190L415.55 193L415.4 193.7Q415.15 195.7 414.05 197.4L413.45 198Q379.4 202.9 346.7 195L344.45 194.5L343.15 192.75Q344.85 219.3 345 246.05L345.95 245.9L347.95 245.4Q353.1 243.7 358.7 244.75L368.95 245L387.95 244.75L389.4 246.25L389.85 247Q392.2 253.5 388.45 259L345 257.15Q344.85 277.4 343.85 297.75Q342 335.5 334.45 371.75Q334.35 372.35 333.2 372.7Q330.15 351.45 332.95 328.25Q336.55 298.85 337.2 269.2Q338.2 223.75 341.85 179.25L342.2 179.25M180.25,181.5Q188.7 228.2 193.05 275.65Q196.8 249.85 204.9 224.45Q208.35 213.6 210.95 202.25Q213.55 190.85 219.2 182.25Q219.5 188.5 219.15 194.8Q225.6 249.05 233.8 303.55Q238.35 334 241.4 364.5Q241.65 367.15 239.7 368.95Q232.65 361.6 231.25 348.4Q228.15 319.1 223.85 289.85Q217.9 249.45 217.5 209.4Q216.15 217.35 213.8 225.45L194.45 292.55L194.8 297.75Q194.85 299.1 193.75 299.95L192.1 297.1Q191.15 296.6 190.75 295.45L190.85 294.6Q186.3 284.85 185.5 271.8Q183.6 239.5 178.3 207.6Q176.3 222.3 172.2 237.25Q156.7 294.2 146.95 351.85Q145.35 361.3 141 368.7Q139.25 368.4 139 366.7Q145.55 309 160.3 251.6Q169.9 214.35 180.25 179.25L180.25 181.5M306,188.2L306.7 189Q318.85 197.15 322.05 213.1Q333.7 272.2 318.65 330.25Q310.7 360.8 280.45 370Q273 372.25 265.9 369.5Q251.85 364.05 249.35 347.7Q240.25 288.65 250.7 229.75Q256.85 195.15 285.95 179.75Q298.2 179.3 306 188.2M288.95,192.25Q263.35 201.75 257.25 230.4Q244.75 289.2 259.45 347.95L260.7 351.95Q294.8 362.9 309.1 330Q321 302.65 320.75 271.95Q320.45 233.15 304.95 198.5Q299.65 192.55 291.45 192.5L288.95 192.25" />
</g>
</svg>
