<?xml version="1.0" encoding="utf-8"?>
<svg version="1.1" id="Layer_1"
xmlns="http://www.w3.org/2000/svg"
xmlns:xlink="http://www.w3.org/1999/xlink"


xml:space="preserve">
q-6.75 42.25 -4.25 86q-0.15 28.3 -3.05 56.25q-0.95 9.3 -3.65 18.2q-4.25 14.1 4.4 25.25q10.25 -42.65 8.95 -88.35q11.35 -0.2 20.75 -6.5q3.85 43.3 20.25 83.35q1.25 3.1 2.95 6q3.05 -25.8 -8.9 -52.45q-2.4 -5.45 -4 -11.25q-4.65 -16.8 -11.15 -32.9q15.45 -11.7 20.85 -30.3q1.95 -11 0.35 -22.05q-0.45 -3.1 -1.35 -6.1q-4.7 -15.4 -19.55 -22.1q-10.05 -4.6 -20.8 -3.9q-1.15 0.1 -2 0.95q36.85 2.85 31 37.4q-5.6 32.8 -37.8 35.75q0.9 -25.65 -2.4 -49.7q3.65 1.85 8.2 2.2q-0.75 0.1 -0.85 0.4q-1.5 2.25 -1.6 5.6q-9.8 35.05 -16.7 71.5q-8.2 43.4 -19.05 85.7q-4.35 16.85 1.3 28.65q5.3 -17.75 8.35 -36.05q9.75 -58.05 24.6 -115.1q2.1 -8.05 3.3 -16q3.7 35.85 5.45 72q0.65 13.6 7.8 20.15q0.35 -0.75 0.3 -1.45q10.25 -49.15 24.8 -97.85q0.25 9.05 1.75 18.85q6.85 43.8 8.95 88.35q1.45 30.8 9.95 58.15q2.45 -1.2 2.25 -4.2q-4.1 -57 -16.75 -111.6q-0.1 -4.4 -1.35 -8.3q-8.45 23.3 -15.05 48.45q-6.2 23.95 -12.95 47.65q-3.45 -46.1 -10.35 -91.8q-25.65 42.1 -7.35 89.35q3.15 8.1 11.5 10.2q30.9 7.65 40.1 -22.9q12.35 -41.2 -12.55 -74.7q-0.75 0.15 -1.4 0.45q-8 -7.05 -18.75 -7q-1.45 1.05 -3.9 1.4q-3.6 0.5 -5.3 3.35q24.5 6 29.95 30.8q4.7 21.45 -8.85 38.8q-13.55 17.3 -33.1 5.15q-13.55 -27.2 -5.45 -56.5q3.8 -13.7 17.45 -18.25<g id="596" transform="matrix(1, 0, 0, 1, -136.1, 0)">
<path style="fill:#000000;fill-opacity:1" d="M347.95,181.75Q348.8 180.9 349.95 180.8L353.7 180.7Q364.45 180 374.5 184.6Q389.35 191.3 394.05 206.7Q394.95 209.7 395.4 212.8Q397 223.85 395.05 234.85L393.5 241.3Q388.1 259.9 372.65 271.6Q379.15 287.7 383.8 304.5Q385.4 310.3 387.8 315.75Q399.75 342.4 396.7 368.2L393.35 362.7Q391.65 359.8 390.4 356.7Q374 316.65 370.15 273.35Q360.75 279.65 349.4 279.85Q350.7 325.55 340.45 368.2Q331.8 357.05 336.05 342.95Q338.75 334.05 339.7 324.75Q342.6 296.8 342.75 268.5L342.7 267.05Q340.2 223.3 346.95 181.05L347.15 181.05L347.95 181.75M348.7,190.55Q352 214.6 351.1 240.25L350.1 265.9Q382.3 262.95 387.9 230.15Q393.75 195.6 356.9 192.75Q352.35 192.4 348.7 190.55M179.6,183.05Q186.5 228.75 189.95 274.85Q196.7 251.15 202.9 227.2Q209.5 202.05 217.95 178.75Q219.2 182.65 219.3 187.05Q231.95 241.65 236.05 298.65L240.2 361Q240.4 364 237.95 365.2Q229.45 337.85 228 307.05Q225.9 262.5 219.05 218.7Q217.55 208.9 217.3 199.85Q202.75 248.55 192.5 297.7L191.4 296.4L191.55 299.5Q191.6 300.2 191.25 300.95Q184.1 294.4 183.45 280.8Q181.7 244.65 178 208.8Q176.8 216.75 174.7 224.8Q159.85 281.85 150.1 339.9Q147.05 358.2 141.75 375.95Q136.1 364.15 140.45 347.3Q151.3 305 159.5 261.6Q166.4 225.15 176.2 190.1Q176.3 186.75 177.8 184.5L178.65 181.4Q178.75 181.1 179.5 181L179.6 183.05M277.05,264.15Q279.5 263.8 280.95 262.75Q291.7 262.7 299.7 269.75L300.45 270.45L301.15 270.3L302.05 269.9Q302.7 269.6 303.45 269.45Q328.35 302.95 316 344.15Q306.8 374.7 275.9 367.05Q267.55 364.95 264.4 356.85Q246.1 309.6 271.75 267.5Q273.45 264.65 277.05 264.15M265.5,293.45Q257.4 322.75 270.95 349.95Q290.5 362.1 304.05 344.8Q317.6 327.45 312.9 306Q307.45 281.2 282.95 275.2Q269.3 279.75 265.5 293.45" />
</g>
</svg>
