<?xml version="1.0" encoding="utf-8"?>
<svg version="1.1" id="Layer_1"
xmlns="http://www.w3.org/2000/svg"
xmlns:xlink="http://www.w3.org/1999/xlink"


xml:space="preserve">
q-7.4 41.35 -12.15 83.2q-6.65 58.75 -15.85 117.15q-1.2 7.45 -3.15 14.65q-0.65 2.35 -1.05 4.65q-13.75 -56.05 -22.55 -113.05q-7.85 -51.1 -17.45 -101.25q0.1 -11.65 -0.85 -23.2q-5.2 10.15 -6.55 23.85q-3.9 39.8 -10.3 79.4q-9.6 59 -25.45 116.8q-7.4 -54.65 -17.25 -108.85q-10.65 -58.2 -18.7 -116.2q-4.4 1.4 -3.9 6.75q5.05 58.55 15.8 116.3q10.75 57.8 17 116.3q1.8 16.85 9.35 28.1q3.1 -9 1.3 -18.3q8.35 -35.3 16.25 -72q12.35 -57.6 20.8 -116.05q7.55 58.5 20.3 116.15q6.45 29.25 11.35 58.7q2.3 13.7 10.95 19.95q1.25 -1.65 0.95 -3.6q8.35 -38.3 13.8 -78.7q7.9 -58.45 14.05 -117.1q1.55 -14.75 6.1 -28.7q5.1 -15.75 1.55 -29.7q-5.65 3 -6.95 10.1q0.15 -20.75 -4.35 -41.5q-7.45 -34.1 -13.25 -68.5q0.85 -3.6 -0.25 -7.2q-8.5 -57.65 -17.7 -114.45q-4 4.05 -5.15 11.35q-9.2 58.25 -19.6 116.3q-10.4 58.15 -23.25 115.55q-5.4 15.25 2.75 25.25q11.35 -42.5 18.75 -86.3q18.95 3.4 38.3 3.15q9.55 54.4 19.45 108.3q1.5 2.05 3.75 1.25q1.25 -1.25 1.25 -3q-3.55 1.45 -4.7 5.85q-6.95 26.75 -12.2 53.85q-11.35 58.4 -21.85 116.75q-5.1 28.1 -13.2 55.55q-11.15 -57.75 -18.7 -116.15q-6.65 -51.2 -10.65 -101.4q0.5 -10.2 -1.2 -20.2q-0.75 0.1 -0.8 0.4q-15.2 57.7 -33.05 114.2q-4.55 13.85 3.65 21.25q17 -56.1 32.4 -113.3q7.85 -28.95 16.45 -57.45q3.65 46.95 9.4 93.6q7.25 58.8 17.9 117q-0.55 2.8 0.8 5.2q0.2 9.65 6 16.5q2.15 0 2.25 -2.25q3.1 -7.4 4.8 -15.45q6 -28 11.1 -56.15q10.55 -57.9 22.15 -115.65q3.95 -19.85 8.9 -39.3q8.55 58.15 19.15 115.9q5.35 29.3 8.8 58.8q3.55 30.75 12.85 58.05q2.1 -0.45 2 -2.7q-2.15 -44.5 -11.35 -88.6q-6.1 -29.25 -10.6 -58.65q-8.5 -55.5 -17.75 -110.45q-0.1 -4.35 -0.8 -8.55<g id="582" transform="matrix(1, 0, 0, 1, -27.8, 0)">
<path style="fill:#000000;fill-opacity:1" d="M497.45,130Q501 143.95 495.9 159.7Q491.35 173.65 489.8 188.4Q483.65 247.05 475.75 305.5Q470.3 345.9 461.95 384.2L462.15 385.35Q462.45 387.3 461.2 388.95Q452.55 382.7 450.25 369Q445.35 339.55 438.9 310.3Q426.15 252.65 418.6 194.15L416.2 176.45L415.6 180.8Q407.15 239.25 394.8 296.85Q386.9 333.55 378.55 368.85Q380.35 378.15 377.25 387.15L376.7 387.95Q369.15 376.7 367.35 359.85Q361.1 301.35 350.35 243.55Q339.6 185.8 334.55 127.25Q334.05 121.9 338.45 120.5Q346.5 178.5 357.15 236.7Q367 290.9 374.4 345.55L375.15 342.3Q391 284.5 400.6 225.5Q407 185.9 410.9 146.1Q412.25 132.4 417.45 122.25Q418.4 133.8 418.3 145.45Q427.9 195.6 435.75 246.7Q444.55 303.7 458.3 359.75Q458.7 357.45 459.35 355.1Q461.3 347.9 462.5 340.45Q471.7 282.05 478.35 223.3Q483.1 181.45 490.5 140.1Q491.8 133 497.45 130M338.95,383.2Q336.7 384 335.2 381.95Q325.3 328.05 315.75 273.65Q296.4 273.9 277.45 270.5L273.45 293.4Q266.05 337.2 254.7 379.7Q246.55 369.7 251.95 354.45L251.5 361.25L251.45 361.95Q264.3 304.55 274.7 246.4Q285.1 188.35 294.3 130.1Q295.45 122.8 299.45 118.75L299.7 123.05Q308.9 179.85 317.4 237.5L321 260.7L321.6 261.55L322.35 263Q323.45 266.6 322.6 270.2Q328.4 304.6 335.85 338.7Q340.35 359.45 340.2 380.2Q340.2 381.95 338.95 383.2M191.25,119.8Q200.5 174.75 209 230.25Q213.5 259.65 219.6 288.9Q228.8 333 230.95 377.5Q231.05 379.75 228.95 380.2Q219.65 352.9 216.1 322.15Q212.65 292.65 207.3 263.35Q196.7 205.6 188.15 147.45L187.8 144.75Q182.85 164.2 178.9 184.05Q167.3 241.8 156.75 299.7Q151.65 327.85 145.65 355.85Q143.95 363.9 140.85 371.3L140.7 376.95Q140.6 379.2 138.45 379.2Q132.65 372.35 132.45 362.7Q131.1 360.3 131.65 357.5L131.95 356.7Q121.3 298.5 114.05 239.7Q108.3 193.05 104.65 146.1L104.35 147.05Q95.75 175.55 87.9 204.5Q72.5 261.7 55.5 317.8L36 381.95Q27.8 374.55 32.35 360.7L50.65 303.85Q68.5 247.35 83.7 189.65L106.65 103.4Q106.7 103.1 107.45 103Q109.15 113 108.65 123.2Q112.65 173.4 119.3 224.6Q126.85 283 138 340.75L138.5 343.25Q146.6 315.8 151.7 287.7Q162.2 229.35 173.55 170.95Q178.8 143.85 185.75 117.1Q186.9 112.7 190.45 111.25Q191.15 115.45 191.25 119.8M313.3,259.65L298 161.5L279.5 258.9L313.3 259.65" />
</g>
</svg>
