<?xml version="1.0" encoding="utf-8"?>
<svg version="1.1" id="Layer_1"
xmlns="http://www.w3.org/2000/svg"
xmlns:xlink="http://www.w3.org/1999/xlink"


xml:space="preserve">
q-6.3 46.25 -6.4 95.15q0 11.15 -0.5 22.3q-0.8 16.7 -2.5 33.35q-0.95 9.6 -1.1 19.3q-0.1 9.25 2.65 17.95q8.35 -51.3 8.05 -104.6q22.9 -4 45.95 -1.15q5.05 -6.5 0.65 -14.15q-23.85 -6.05 -46.2 3.3q3.95 -5.2 1.3 -11.7q-3.1 9.15 -5.25 18.6q-13.2 57.75 -24.2 115.55q-2.8 14.6 -6.7 28.9q-3.7 13.8 3.15 21.4q4.9 -20.2 8.55 -41.15q9.7 -55.5 23.55 -110.25q4.1 35.4 6.25 70.75q1 16.15 6.65 28.4q10.95 -53.25 25.95 -106q0.25 10.95 2.05 22.15q9.2 58.1 14 116.8q1.4 16.7 7.95 28.15q1.15 -0.85 1.15 -2.25q-0.6 -35.4 -5.2 -70.6q-7.3 -55.95 -17.45 -110.8q0.25 -4.7 0 -9.3q-11.45 24.4 -17.95 52.4q-5.85 24.8 -12.1 49.55q-4.5 -41.65 -10.05 -82.85q1.15 -9.3 0.15 -18.1q-6.95 -2.1 -14.6 -2q-23.65 21.8 -27.15 55q-2.9 27.4 13.65 46.5q29.1 8.5 45.4 -16q10.3 -15.55 8.55 -35.35q-2.6 -29.2 -23.95 -47.9q7.35 15.15 4.65 31.85q-5.2 31.85 -40.25 25.9q-2.95 -0.5 -4.1 -2.85q-18.05 -38.6 12.55 -71.35q18.85 -0.7 27.15 16.45<g id="587" transform="matrix(1, 0, 0, 1, -135.65, 0)">
<path style="fill:#000000;fill-opacity:1" d="M410.75,186.3Q413.4 192.8 409.45 198L348.75 194.3L349.65 255.25Q372 245.9 395.85 251.95L396.1 252.3Q400.5 259.95 395.45 266.45Q372.4 263.6 349.5 267.6Q349.8 320.9 341.45 372.2L340.35 369.05Q337.6 360.35 337.7 351.1Q337.85 341.4 338.8 331.8Q340.5 315.15 341.3 298.45Q341.8 287.3 341.8 276.15Q341.9 227.25 348.2 181L409.85 184.45L410.75 186.3M177.55,182.15L178.25 182Q179.25 190.8 178.1 200.1Q183.65 241.3 188.15 282.95Q194.4 258.2 200.25 233.4Q206.75 205.4 218.2 181Q218.45 185.6 218.2 190.3Q228.35 245.15 235.65 301.1Q240.25 336.3 240.85 371.7Q240.85 373.1 239.7 373.95Q233.15 362.5 231.75 345.8Q226.95 287.1 217.75 229Q215.95 217.8 215.7 206.85L214.7 210.7Q199.7 263.45 188.75 316.7L187.95 315L187.5 315.7Q181.85 303.45 180.85 287.3Q178.7 251.95 174.6 216.55Q160.75 271.3 151.05 326.8Q147.4 347.75 142.5 367.95Q135.65 360.35 139.35 346.55Q143.25 332.25 146.05 317.65Q157.05 259.85 170.25 202.1Q172.4 192.65 175.5 183.5L177.55 182.15M297.45,268.7Q318.8 287.4 321.4 316.6Q323.15 336.4 312.85 351.95Q296.55 376.45 267.45 367.95Q250.9 348.85 253.8 321.45Q257.3 288.25 280.95 266.45Q288.6 266.35 295.55 268.45L297.45 268.7M280.7,279.95Q250.1 312.7 268.15 351.3Q269.3 353.65 272.25 354.15Q307.3 360.1 312.5 328.25Q315.2 311.55 307.85 296.4Q299.55 279.25 280.7 279.95" />
</g>
</svg>
