<?xml version="1.0" encoding="utf-8"?>
<svg version="1.1" id="Layer_1"
xmlns="http://www.w3.org/2000/svg"
xmlns:xlink="http://www.w3.org/1999/xlink"


xml:space="preserve">
q3.75 -4.1 2.9 -9.8q-0.4 -2.9 -2.15 -5.2q-35.05 -2.45 -67.5 8q-1.75 4.4 -0.65 9.05q0.35 1.5 1.65 2.2q19 -2.9 38.2 -3.75q-4 18.45 -4.1 37.75q-0.6 59.7 -5.85 118.55q-0.65 7.5 -2.55 14.55q-4.55 16.75 2.2 30.1q9.95 -36.7 10.3 -76.95q0.55 -59.2 4.25 -118.4q1.7 -27.2 -0.45 -53q18.6 -0.65 37.4 0.65q-21.6 22.9 -14.8 56.85q2.35 11.55 8.3 21.6q16 27.05 27.4 55.3q15.65 38.95 3.85 78.55q-3.05 10.4 -12.7 15.3q-25.3 12.95 -35.25 -9.25q-0.2 -3.1 -3.65 -2.4q-2.35 4.6 -1.8 9.75q2.55 23.05 25.95 24.85q28.1 2.2 35.85 -25.35q15.85 -56.2 -7.9 -110q-1.6 -3.65 -4 -6.55q-29.2 -35.15 -26.1 -79.6q0.45 -6.3 5.35 -9.7q27 -18.75 42.65 8.9q2.35 -3.3 1.6 -7.45q-2.85 -16 -17.6 -24.05q-3.85 -1.65 -8.35 -0.55q-3.85 1.15 -6.45 3.85q-3.9 27.7 -4.2 56.95q-0.65 59.8 -2.7 119.25q-0.75 22.75 -5.15 44.65q-3.5 17.45 4.05 30.05q0.9 -0.6 1 -1.35q6.9 -49.6 7.6 -100.35q0.8 -59.65 3.65 -119.2q0.8 -16.45 -3.75 -30.05q-11.35 17.05 -15.8 40.35q-11.1 58.05 -20.55 116.4q-4.65 28.55 -11.6 56.55q-9.3 -51.8 -20.8 -103.3q-12.95 -57.8 -22 -116q-0.95 1.05 -1.7 2.25q-0.75 0.1 -0.85 0.45q-10.95 33.8 -18.55 68.9q-4.6 21 -8.3 42.2q-10.15 58 -23.8 115.35q-3.5 14.7 -8.5 28.7q-4.95 13.85 3.55 21.1q10.65 -36.15 18.2 -74.1q4.35 -21.85 7.65 -43.8q8.75 -58.35 26.1 -114.8q2.4 -7.75 3.7 -15.3q3.6 24.6 8.55 49q5.9 29.05 12.95 57.9q14.05 57.75 19.05 116.6q-1.85 7.35 2 13.5q1.55 1.45 3.25 1q1.2 -0.7 1.4 -2.05q1.65 -10.4 1.15 -20.9q5.55 -16.9 8.35 -35.1q8.85 -58.2 18.65 -116.3q4.95 -29.5 14 -58.15q2.55 14.6 4.55 29.25q8 58.3 18.7 115.95q2.7 14.65 3.75 29.4q2.25 31.2 12.35 58.1q6.05 -7.5 2.5 -17.75q0 -0.35 0.15 -0.65q1.4 -3.2 -0.65 -1.35q-8.95 -58.5 -19.65 -116q-20.85 23.7 -26.9 55.75q-8.55 45.45 14.7 83.85q12.35 20.4 34.85 11.6q44.85 -17.55 49.6 -65.9q4.35 -44.4 -26.1 -76.4q-11.05 -11.6 -22.9 -9.3q-8.2 -2.7 -17.35 -3.45q-3.3 0.9 -5.75 3.65q21.6 6.3 31.3 26.45q6.95 14.45 6.8 30.3q-0.45 42.9 -39.9 60.85q-19.4 8.8 -31.2 -7.3q-20.75 -28.35 -13.9 -63.85q2.6 -13.35 6.4 -26.45q7.75 -26.85 33.75 -26.25q1.7 1 2.4 3.1q0.6 1.95 2.4 3.2<g id="590" transform="matrix(1, 0, 0, 1, -44.5, 0)">
<path style="fill:#000000;fill-opacity:1" d="M488.05,144.1Q490.2 169.9 488.5 197.1Q484.8 256.3 484.25 315.5Q483.9 355.75 473.95 392.45Q467.2 379.1 471.75 362.35Q473.65 355.3 474.3 347.8Q479.55 288.95 480.15 229.25L480.55 182Q480.65 162.7 484.65 144.25Q465.45 145.1 446.45 148Q445.15 147.3 444.8 145.8Q443.7 141.15 445.45 136.75Q477.9 126.3 512.95 128.75L525 129.4L526.2 129.75Q527.95 132.05 528.35 134.95Q529.2 140.65 525.45 144.75Q506.65 143.45 488.05 144.1M403.1,134.25L410.95 131.75Q415.45 130.65 419.3 132.3L421.45 133Q436.2 141.05 439.05 157.05Q439.8 161.2 437.45 164.5Q421.8 136.85 394.8 155.6Q389.9 159 389.45 165.3Q386.35 209.75 415.55 244.9Q417.95 247.8 419.55 251.45Q443.3 305.25 427.45 361.45Q419.7 389 391.6 386.8Q368.2 385 365.65 361.95Q365.1 356.8 367.45 352.2L373.8 352.05Q377.25 351.35 377.45 354.45L377.15 354.8L374.5 355.85L373.45 356.45Q383.4 378.65 408.7 365.7Q418.35 360.8 421.4 350.4Q433.2 310.8 417.55 271.85Q406.15 243.6 390.15 216.55Q384.2 206.5 381.85 194.95Q375.05 161 396.65 138.1Q399.25 135.4 403.1 134.25M357.45,134.75Q362 148.35 361.2 164.8Q358.35 224.35 357.55 284Q356.85 334.75 349.95 384.35Q349.85 385.1 348.95 385.7Q341.4 373.1 344.9 355.65Q349.3 333.75 350.05 311Q352.1 251.55 352.75 191.75Q353.05 162.5 356.95 134.8L357.45 134.75M202.45,127Q213.15 184.5 222.1 243L237.5 344.45L240.95 367.7Q243 365.85 241.6 369.05Q241.45 369.35 241.45 369.7Q245 379.95 238.95 387.45Q228.85 360.55 226.6 329.35Q225.55 314.6 222.85 299.95Q212.15 242.3 204.15 184Q202.15 169.35 199.6 154.75L199.4 153.6L199 154.95Q189.95 183.6 185 213.1Q175.2 271.2 166.35 329.4Q163.55 347.6 158 364.5Q158.5 375 156.85 385.4Q156.65 386.75 155.45 387.45Q153.75 387.9 152.2 386.45Q148.35 380.3 150.2 372.95L149.5 371.45L149.2 370.7Q144.2 311.85 130.15 254.1Q123.1 225.25 117.2 196.2Q112.25 171.8 108.65 147.2Q107.35 154.75 104.95 162.5Q87.6 218.95 78.85 277.3Q75.55 299.25 71.2 321.1Q63.65 359.05 53 395.2Q44.5 387.95 49.45 374.1Q54.45 360.1 57.95 345.4Q71.6 288.05 81.75 230.05Q85.45 208.85 90.05 187.85Q97.65 152.75 108.6 118.95Q108.7 118.6 109.45 118.5L109.75 121.5Q110.5 120.3 111.45 119.25Q120.5 177.45 133.45 235.25Q144.95 286.75 154.25 338.55Q161.2 310.55 165.85 282Q175.3 223.65 186.4 165.6Q190.85 142.3 202.2 125.25L202.4 127L202.45 127M271.95,169.75Q281.1 170.5 289.3 173.2L289.45 173Q301.3 170.7 312.35 182.3Q342.8 214.3 338.45 258.7Q333.7 307.05 288.85 324.6Q266.35 333.4 254 313Q230.75 274.6 239.3 229.15Q245.35 197.1 266.2 173.4Q268.65 170.65 271.95 169.75M290.05,186.8Q289.35 184.7 287.65 183.7L285.7 183.75Q259.7 183.15 251.95 210Q248.15 223.1 245.55 236.45Q238.7 271.95 259.45 300.3Q271.25 316.4 290.65 307.6Q330.1 289.65 330.55 246.75Q330.7 230.9 323.75 216.45Q314.05 196.3 292.45 190Q290.65 188.75 290.05 186.8" />
</g>
</svg>
