<?xml version="1.0" encoding="utf-8"?>
<svg version="1.1" id="Layer_1"
xmlns="http://www.w3.org/2000/svg"
xmlns:xlink="http://www.w3.org/1999/xlink"


xml:space="preserve">
q-3.9 8.25 -3.2 19.25q3.55 59.15 2.35 118.5q-1.25 59.75 -4.15 119.2q-0.55 11.4 -3.3 22.2q-4.55 17.55 4.05 29.8q0.25 1.35 1.3 2.2q8.3 4.75 18.15 1.65q8.85 -2.8 17.75 -5.1q20.55 -5.3 31.25 -22q26.25 -41.05 31.15 -89.95q5.95 -59.95 -13.65 -116.75q-7.7 -22.2 -18.3 -43q-19.25 -37.65 -62.85 -34.05q-1.05 0.45 -1.65 1.35q44.45 47.4 51.8 113.2q6.65 59.3 -14.4 114.95q-4.25 11.25 -12.95 19.55q-25.3 23.95 -60.8 24.7q1.75 -8.85 1.75 -18.5q0.05 -17.9 0.65 -35.95q2 -59.4 2.4 -119.25q0.3 -54 -4.65 -106.7q14.25 3.4 30.05 5q3.7 0.35 6.15 3q1.1 -21.85 -11.6 -39.45q-9.2 -12.8 -22.9 -17.35q-2.2 1.8 -4.8 0.2q-16 -10.25 -34.15 -4.4q-22.1 7.15 -30.8 31.35q-18.4 51.4 -8.85 105.55q2.6 14.6 12.5 25.6q5.8 6.4 12.85 11.25q6.1 4.2 12.8 7.2q12.65 5.8 24.6 -1.2q25.7 -15.05 38.05 -41.8q7.5 -16.3 9 -34.3q2.25 -21.3 3.3 -42.65q-15 53.85 -21.85 109.4q-7.25 58.95 -18.1 117.05q-0.3 -10.6 -1.1 -21.25q-4.25 -59.05 -10.15 -117.75q-4.9 -48.8 -12.05 -96.7q4.5 -13.65 -1.4 -24.25q-6.1 12 -10.05 26.25q-15.7 56.8 -28.2 114.1q-12.7 58.3 -33 114.65q-5.1 14.1 -11.2 27.45q-7.65 16.65 0.25 28.25q1.95 -2.3 2.95 -5.25q19.35 -56.35 31.95 -114.2q12.6 -57.6 29.75 -114.25q1.15 -3.8 2.55 -7.4q4.7 34.5 8.6 69.2q6.6 58.6 10.15 117.9q1.75 29.45 0.8 59.25q-0.5 16.95 6.3 29q12.6 -56.3 20.2 -114q7.75 -58.7 18 -116.95q2.45 -13.95 6.2 -27.5q1.1 37.7 4.75 75.25q2.85 29.3 7.95 58.2q10.35 58.85 17.95 118.2q1.75 13.55 8.45 21.3q0.95 -0.95 1.2 -2.3q2.8 -15.95 -1.15 -31.8q-4.15 -16.45 -7.75 -33q-12.6 -57.7 -17.85 -116.65q-4.65 -51.95 -10.5 -103.3q1.1 -8.7 0.3 -16.9q-0.6 0.6 -0.6 1.8q5.15 0.2 9.7 2.55q9.15 4.8 18 10.4q10.3 6.6 13.25 18.5q12.85 51.75 -13.5 97q-22.8 39.3 -63.5 14.75q-7.25 -4.35 -10.6 -11.7q-10.65 -23.3 -8.4 -49.6q1.05 -12.6 2.6 -24.9q4.2 -34 28.7 -55.25<g id="591" transform="matrix(1, 0, 0, 1, -38.85, 0)">
<path style="fill:#000000;fill-opacity:1" d="M362.95,86.25Q406.55 82.65 425.8 120.3Q436.4 141.1 444.1 163.3Q463.7 220.1 457.75 280.05Q452.85 328.95 426.6 370Q415.9 386.7 395.35 392Q386.45 394.3 377.6 397.1Q367.75 400.2 359.45 395.45Q358.4 394.6 358.15 393.25L358.1 392.95L356.95 395.7Q348.35 383.45 352.9 365.9Q355.65 355.1 356.2 343.7Q359.1 284.25 360.35 224.5Q361.55 165.15 358 106Q357.3 95 361.2 86.75L361.3 87.6Q361.9 86.7 362.95 86.25M392.45,103.55Q376.65 101.95 362.4 98.55Q367.35 151.25 367.05 205.25Q366.65 265.1 364.65 324.5Q364.05 342.55 364 360.45Q364 370.1 362.25 378.95Q397.75 378.2 423.05 354.25Q431.75 345.95 436 334.7Q457.05 279.05 450.4 219.75Q443.05 153.95 398.6 106.55Q396.15 103.9 392.45 103.55M344.2,244.25Q342.7 262.25 335.2 278.55Q322.85 305.3 297.15 320.35Q285.2 327.35 272.55 321.55Q265.85 318.55 259.75 314.35Q252.7 309.5 246.9 303.1Q237 292.1 234.4 277.5Q224.85 223.35 243.25 171.95Q251.95 147.75 274.05 140.6Q292.2 134.75 308.2 145Q310.8 146.6 313 144.8Q326.7 149.35 335.9 162.15Q348.6 179.75 347.5 201.6Q346.45 222.95 344.2 244.25M197.4,92Q197.4 90.8 198 90.2L198.45 88.5L200.55 87.15L201.2 87Q202 95.2 200.9 103.9Q206.75 155.25 211.4 207.2Q216.65 266.15 229.25 323.85Q232.85 340.4 237 356.85Q240.95 372.7 238.15 388.65Q237.9 390 236.95 390.95Q230.25 383.2 228.5 369.65Q220.9 310.3 210.55 251.45Q205.45 222.55 202.6 193.25Q198.95 155.7 197.85 118Q194.1 131.55 191.65 145.5Q181.4 203.75 173.65 262.45Q166.05 320.15 153.45 376.45L153.35 376.25L152.75 386.15L151.95 387.2Q145.15 375.15 145.65 358.2Q146.6 328.4 144.85 298.95Q141.3 239.65 134.7 181.05Q130.8 146.35 126.1 111.85Q124.7 115.45 123.55 119.25Q106.4 175.9 93.8 233.5Q81.2 291.35 61.85 347.7L49.7 382.45Q48.7 385.4 46.75 387.7Q38.85 376.1 46.5 359.45Q52.6 346.1 57.7 332Q78 275.65 90.7 217.35Q103.2 160.05 118.9 103.25Q122.85 89 128.95 77Q134.85 87.6 130.35 101.25Q137.5 149.15 142.4 197.95Q148.3 256.65 152.55 315.7Q153.35 326.35 153.65 336.95L157.45 318.7Q168.3 260.6 175.55 201.65Q182.4 146.1 197.4 92.25L197.4 92M269.2,153.75Q244.7 175 240.5 209Q238.95 221.3 237.9 233.9Q235.65 260.2 246.3 283.5Q249.65 290.85 256.9 295.2Q297.6 319.75 320.4 280.45Q346.75 235.2 333.9 183.45Q330.95 171.55 320.65 164.95Q311.8 159.35 302.65 154.55Q298.1 152.2 292.95 152L273.95 153.2L269.2 153.75" />
</g>
</svg>
