<?xml version="1.0" encoding="utf-8"?>
<svg version="1.1" id="Layer_1"
xmlns="http://www.w3.org/2000/svg"
xmlns:xlink="http://www.w3.org/1999/xlink"


xml:space="preserve">
q-1.25 3.25 -1.05 6.75q0.15 1.7 0.75 3.35q-2.15 24.7 -1.5 50.65q1.45 59.65 1.35 119.25q-0.15 60.3 -9.8 118.2q-2.7 11.75 5 18.5q3.1 -1.6 3 -5.25q-0.55 -19.65 10.4 -34.6q-3.6 4.15 -7.4 6.85q2.25 -30.75 3.7 -61.5q1.55 -32 2.45 -64.15q38.2 5 59.8 -27.5q29.8 -44.85 3.85 -93.85q-19.45 -36.7 -59.9 -38.65q-5 -0.4 -9.9 1.2q-0.45 0.15 -0.85 0.55q11.55 25.15 0.55 49.25q-18.05 39.55 -63 37.85q0.8 -54.3 -5.05 -106.75q47.15 0.75 67.05 44.15q-1.4 -40.25 -35.4 -59.15q-8 -2.5 -16.1 -4.5q-3.85 2.2 -8.4 4q-16.4 6.5 -22.25 22.55q-20.7 56.9 -9.35 116.4q2.3 12.2 10.3 21.65q13 15.3 34.4 7.95q37.65 -12.9 44.9 -52.7q5.05 -27.65 4.05 -55.7q-13.35 38.6 -55.75 34.2q-1.55 -0.15 -2.7 -1.1q-17 -13.15 -17.95 -36.25q-0.85 -21.05 -0.3 -42.05q0.95 -39.05 30.65 -61.5q1.15 -0.35 1.35 1.45q0.35 2.65 2.9 3.8q3.15 1.25 6.5 1.85q23.9 4.45 31.05 26.05q12.4 37.5 -0.5 74.8q-5.2 6.55 -7.05 16.3q-11.1 58.15 -22.7 116.4q-2.9 14.55 -6.65 28.8q-10.2 -58.3 -22.7 -116.15q-3.5 -16.05 -8.85 -28.6q-4.4 1.35 -5.1 6.35q-3.95 28.85 -11.6 56.8q-15.55 56.75 -29.1 114.2q0.05 -2.65 -0.35 -5.25q-1.15 2.5 -2.3 6.4q-4.4 14.25 4.05 21.85q14.5 -47.5 25.4 -97.25q12.05 -57.9 30.05 -114.25q2.8 -8.75 3.95 -17.35q1.25 7.65 3.8 15.5q7.1 21.8 10.5 44.4q8.65 57.65 19.05 115q0.35 3.15 1.5 6q1.75 2 4.25 2.25q5.1 -8.1 3.05 -18.25q9.9 -39.95 17.45 -81q5.4 -29.3 12.4 -58.15q2.6 -10.55 3.65 -20.85q1 20.8 5.05 41.85q11.2 57.85 21.25 116q9.95 57.45 16.15 115.55q-0.9 1.05 -0.9 2.3q0.8 0.05 0.8 -0.75q0.75 3.9 5.4 8.2q2.15 -0.5 2.05 -2.7q-1.35 -37.85 -7.35 -75.8q-9.25 -58.25 -20.3 -116.25q-11 -57.6 -20.4 -115.45<g id="584" transform="matrix(1, 0, 0, 1, -50.55, 0)">
<path style="fill:#000000;fill-opacity:1" d="M381.05,96.95Q385.95 95.35 390.95 95.75Q431.4 97.7 450.85 134.4Q476.8 183.4 447 228.25Q425.4 260.75 387.2 255.75L387.1 255.55Q386.2 287.7 384.65 319.7Q383.2 350.45 380.95 381.2Q384.75 378.5 388.35 374.35Q377.4 389.3 377.95 408.95Q378.05 412.6 374.95 414.2Q367.25 407.45 369.95 395.7Q379.6 337.8 379.75 277.5Q379.85 217.9 378.4 158.25Q377.75 132.3 379.9 107.6Q379.3 105.95 379.15 104.25Q378.95 100.75 380.2 97.5Q380.6 97.1 381.05 96.95M382.85,108.75Q388.7 161.2 387.9 215.5L387.45 240Q432.4 241.7 450.45 202.15Q461.45 178.05 449.9 152.9Q430 109.5 382.85 108.75M347.55,268.6Q340.3 308.4 302.65 321.3Q281.25 328.65 268.25 313.35Q260.25 303.9 257.95 291.7Q246.6 232.2 267.3 175.3Q273.15 159.25 289.55 152.75Q294.1 150.95 297.95 148.75Q306.05 150.75 314.05 153.25L316.2 153.75Q350.2 172.65 351.6 212.9Q352.6 240.95 347.55 268.6M336.5,195.65Q329.35 174.05 305.45 169.6Q302.1 169 298.95 167.75L295.85 168.9L294.2 169Q291.65 167.85 291.3 165.2Q291.1 163.4 289.95 163.75Q260.25 186.2 259.3 225.25Q258.75 246.25 259.6 267.3Q260.55 290.4 277.55 303.55Q278.7 304.5 280.25 304.65Q322.65 309.05 336 270.45Q348.9 233.15 336.5 195.65M206.2,98L206.95 98.75Q216.35 156.6 227.35 214.2Q238.4 272.2 247.65 330.45Q253.65 368.4 255 406.25Q255.1 408.45 252.95 408.95Q248.3 404.65 247.55 400.75Q247.55 401.55 246.75 401.5L246.45 400.7L246.3 399.2L246.2 397.7Q246.2 396.45 247.1 395.4L247.45 394.7Q241.25 336.6 231.3 279.15Q221.25 221 210.05 163.15Q206 142.1 205 121.3Q203.95 131.6 201.35 142.15Q194.35 171 188.95 200.3Q181.4 241.35 171.5 281.3L172.5 286.25Q174.55 296.4 169.45 304.5Q166.95 304.25 165.2 302.25Q164.05 299.4 163.7 296.25L163.45 294.75L163.9 293.2L164.2 291.75Q153.8 234.4 145.15 176.75Q141.75 154.15 134.65 132.35Q132.1 124.5 130.85 116.85Q129.7 125.45 126.9 134.2Q108.9 190.55 96.85 248.45L84.4 306.7Q73.5 356.45 59 403.95Q50.55 396.35 54.95 382.1Q56.1 378.2 57.25 375.7Q57.65 378.3 57.6 380.95L57.75 382.2L84.65 267.85Q98.2 210.4 113.75 153.65Q121.4 125.7 125.35 96.85Q126.05 91.85 130.45 90.5L130.6 91.3L130.95 89Q136.3 101.55 139.8 117.6Q152.3 175.45 162.5 233.75L167.85 262.8L168.4 260.55Q172.15 246.3 175.05 231.75Q186.65 173.5 197.75 115.35Q199.6 105.6 204.8 99.05L204.85 97.25L205.2 97.25L206.2 98" />
</g>
</svg>
