<?xml version="1.0" encoding="utf-8"?>
<svg version="1.1" id="Layer_1"
xmlns="http://www.w3.org/2000/svg"
xmlns:xlink="http://www.w3.org/1999/xlink"


xml:space="preserve">
q-13.55 31.25 -28.25 61.55q-25.95 53.45 -51.4 107.55q-3.15 6.75 -7.4 12.7q-2.6 3.65 -4.1 7.15q1 -37.9 2.35 -75.6q1.05 -29.8 3.5 -59.15q2.6 -30.15 0.25 -59.3q-0.75 0.1 -0.8 0.35q-6.7 49.25 -8.1 99.65q-1.6 59.4 -3.55 118.5q-0.5 15.1 -3.1 29.75q-3.05 17.5 4.05 29.2q5.95 -18.75 6.05 -39.75q0.3 -59.65 1.55 -119.2q14.05 -24.4 26.1 -50.65q3.8 37.9 13.05 76.55q10.2 42.6 23.05 84.55q8.75 28.65 12.05 58.55q1.45 13.2 9.4 19.75q1.2 -1.25 1.15 -2.95q-1.65 -38.35 -13.4 -75.35q-17.75 -55.8 -29.6 -113.8q-5.4 -26.75 -14.1 -50.8q6 -13.15 12.75 -25.95q7.5 -14.2 5.5 -27.8q-2.8 0.15 -3.95 2.85q-1.15 37.75 0.65 75.7q2.9 60.05 -6.1 118.6q-3.75 24.35 -20.45 41.3q-10.3 10.4 -25.1 8.45q-18.15 -2.35 -25.45 -18.65q-12.95 -28.8 -11.85 -61.7q1.05 -30.45 0.05 -59.25q-4.25 2.6 -4.6 8.7q-1.85 34.7 -3.05 69.75q-2.1 59.65 -2.95 119.3q-0.45 31.95 15.5 58.55q11.1 18.6 32.6 19.2q9.8 0.3 17.3 -6q28 -23.55 31.95 -60.75q6.2 -58.65 4 -118.45q-1.1 -30.05 1.2 -59.95q1.3 -16.95 -4.95 -29.35q-5.35 10.6 -7.25 20.25q0.9 -4.05 4.15 -5.7q-36.9 29.65 -27.1 79.85q2.4 12.4 13.1 19q11.5 7.2 23.55 -0.55q11.7 -7.6 8.7 -21.55q-9.15 17.1 -28.95 14.4q-6.3 -0.75 -8.3 -6.6q-7.9 -23.05 -2.65 -47.3q4.65 -21.35 25.65 -28.25q5.6 5.85 11.6 5.25q-1.8 -12.1 -13.85 -14q7.35 -8.45 18.25 -4.25q-9.9 -26.2 -27 -3.9q-3.1 4 0.3 8.8q12 16.85 20.8 33.75q2.75 5.2 -0.4 10.65q-11.5 19.85 -27.1 5.3q-4.1 33.05 28.8 19.65q11.1 -4.45 13.15 -17.1q4.5 -27.65 -21.45 -40.55q-11.95 10.85 -14.55 34.7q-1.8 16.75 4.15 30.2q9.55 -2.35 18.25 1.9q4.05 6.5 0.15 12.95q3.65 4.3 9.6 2.9q3.2 20.95 16.65 35.4q-1.3 -18.7 -14.15 -36.7q10.85 -5.15 11.25 -16.95q0.25 -7.65 -3.45 -14.45q-5.45 -4.4 -12.3 -3.45q-3.7 28.15 -6 56.9q-2.35 28.9 1 55.35q4.45 -42.2 7.45 -84.45q9.4 42.85 23 83q6.65 -12.35 6.15 -27.5q-0.4 -13.9 1.75 -27.5q4.55 -28.4 1.6 -55.75q-0.75 0.15 -0.8 0.4q-8.7 44.9 -9.45 91.35q-3.15 -13.3 -9.2 -22.05q-7.05 12.3 -8.9 28.4q-5.15 44 -14.3 87.35q-12.2 57.95 -19.65 116.7q-1.05 7.9 -1.6 15.7q-2.9 -49.9 -7.05 -100.05q-4.9 -59.1 -8.1 -118.5q-3.25 -59.55 -11.1 -117.7q-0.55 -0.15 -0.7 0.15q-0.75 0.1 -0.8 0.4q-13.7 50.15 -21.5 101.85q-8.8 58.3 -19.45 116.15q-10.85 58.55 -21.15 117.2q-3.15 18 -8.2 35.45q-5 17.15 2.4 28.65q7.55 -24.4 11.6 -50.05q9.2 -58.4 19.95 -116.55q10.75 -57.9 19 -116.2q4.15 -29.35 11.4 -58.1q6.45 -25.45 6.8 -50.35q0.75 45.7 3.5 92.05q3.5 59 8.1 117.8q4.7 59.1 8 118.4q0.85 15.1 1 30q0.15 17.1 7.35 29.25q4.9 -10.25 3.5 -22.6q2.75 -8.55 3.4 -17.7q4.1 -59.15 11.45 -117.85q7.4 -58.75 18.9 -116.8q10.45 -52.5 18.15 -105.2q1.4 45.45 7.05 90.6q7.35 58.6 16.6 116.8q9.3 58.6 20.15 116.9q2.85 16.7 10.95 28.5q1.85 -0.8 1.9 -2.75q0.5 -21.55 -5.45 -43.25q-15.65 -56.95 -24.85 -115.55q-9.15 -58.4 -15.9 -117.2q-6.8 -58.8 -14.45 -116.95q-0.75 0.15 -1.15 0.65q-2.55 19.05 -3.05 38.4q-0.6 23.85 17.55 35.85q12.65 8.45 26.25 -0.25q19.1 -12 27.25 -32.8q8.15 -20.65 3.35 -42.15q-3.3 -14.85 -13.2 -26.5q-2.15 -12.45 -17.7 -13.05q-12.75 -1.1 -23.6 5.65q-14 13.8 -16.85 34.85q15.95 -10.4 33.35 -4.55q0.6 0.1 1.15 0.55q22.45 29.8 8.7 64q-4.5 11.3 -14.35 18.15q-15.2 10.55 -33.6 6.6q-17.95 -36.75 -1.65 -74q2.5 -5.75 6.4 -10.75<g id="616" transform="matrix(1, 0, 0, 1, -27.35, 0)">
<path style="fill:#000000;fill-opacity:1" d="M519.45,82.5Q521.45 96.1 513.95 110.3Q507.2 123.1 501.2 136.25L456 235.55Q464.7 259.6 470.1 286.35Q481.95 344.35 499.7 400.15Q511.45 437.15 513.1 475.5Q513.15 477.2 511.95 478.45Q504 471.9 502.55 458.7Q499.25 428.8 490.5 400.15Q477.65 358.2 467.45 315.6Q458.2 276.95 454.4 239.05L452.05 244.1Q440 270.35 425.95 294.75L423.95 291.05L423.3 318Q422.05 377.55 421.75 437.2Q421.65 458.2 415.7 476.95Q408.6 465.25 411.65 447.75Q414.25 433.1 414.75 418Q416.7 358.9 418.3 299.5L421.55 180.25Q422.95 129.85 429.65 80.6Q429.7 80.35 430.45 80.25Q432.8 109.4 430.2 139.55Q427.75 168.9 426.7 198.7Q425.35 236.4 424.35 274.3Q425.85 270.8 428.45 267.15Q432.7 261.2 435.85 254.45Q461.3 200.35 487.25 146.9Q501.95 116.6 515.5 85.35Q516.65 82.65 519.45 82.5M334.55,93.45L334.2 94.25Q336.1 84.6 341.45 74Q347.7 86.4 346.4 103.35Q344.1 133.25 345.2 163.3Q347.4 223.1 341.2 281.75Q337.25 318.95 309.25 342.5Q301.75 348.8 291.95 348.5Q270.45 347.9 259.35 329.3Q243.4 302.7 243.85 270.75Q244.7 211.1 246.8 151.45Q248 116.4 249.85 81.7Q250.2 75.6 254.45 73Q255.45 101.8 254.4 132.25L250.4 251.45Q249.3 284.35 262.25 313.15Q269.55 329.45 287.7 331.8Q302.5 333.75 312.8 323.35Q329.5 306.4 333.25 282.05Q342.25 223.5 339.35 163.45Q337.55 125.5 338.7 87.75Q335.45 89.4 334.55 93.45M402.55,91.75Q396.55 92.35 390.95 86.5Q369.95 93.4 365.3 114.75Q360.05 139 367.95 162.05Q369.95 167.9 376.25 168.65Q396.05 171.35 405.2 154.25Q408.2 168.2 396.5 175.8Q384.45 183.55 372.95 176.35Q362.25 169.75 359.85 157.35Q350.05 107.15 386.95 77.5L388.7 77.75Q400.75 79.65 402.55 91.75M378.45,208Q404.4 220.9 399.9 248.55Q397.85 261.2 386.75 265.65Q353.85 279.05 357.95 246L366.6 254.85Q382.2 269.4 393.7 249.55Q396.85 244.1 394.1 238.9Q385.3 222 373.3 205.15Q369.9 200.35 373 196.35Q390.1 174.05 400 200.25L391.95 195.5Q381.05 191.3 373.7 199.75L378.45 208M362.9,278.8Q369.75 277.85 375.2 282.25Q378.9 289.05 378.65 296.7Q378.25 308.5 367.4 313.65Q380.25 331.65 381.55 350.35Q368.1 335.9 364.9 314.95L362.1 315.6Q356.15 317 352.5 312.7L352.7 306.75L372.05 304.4L373.35 302.45Q377.25 296 373.2 289.5Q364.5 285.25 354.95 287.6L346.35 344.6Q340.4 331.15 342.2 314.4Q344.8 290.55 356.75 279.7L362.9 278.8M355.15,381L371.2 450.2Q371.95 403.75 380.65 358.85Q380.7 358.6 381.45 358.45Q384.4 385.8 379.85 414.2Q377.7 427.8 378.1 441.7Q378.6 456.85 371.95 469.2Q358.35 429.05 348.95 386.2Q345.95 428.45 341.5 470.65L340.95 471.2Q337.6 444.75 339.95 415.85Q342.25 387.1 345.95 358.95Q352 367.7 355.15 381M188.2,70.75Q195.85 128.9 202.65 187.7Q209.4 246.5 218.55 304.9Q227.75 363.5 243.4 420.45Q249.35 442.15 248.85 463.7Q248.8 465.65 246.95 466.45Q238.85 454.65 236 437.95L230.55 407.5Q219.7 349.2 210.4 290.6Q201.15 232.4 193.8 173.8Q188.15 128.65 186.75 83.2Q179.05 135.9 168.6 188.4Q157.1 246.45 149.7 305.2Q142.35 363.9 138.25 423.05Q137.6 432.2 134.85 440.75L134.95 441.6Q136.35 453.95 131.45 464.2Q124.25 452.05 124.1 434.95Q123.95 420.05 123.1 404.95Q119.8 345.65 115.1 286.55Q110.5 227.75 107 168.75Q104.25 122.4 103.5 76.7Q103.15 101.6 96.7 127.05Q89.45 155.8 85.3 185.15Q77.05 243.45 66.3 301.35Q55.55 359.5 46.35 417.9Q42.3 443.55 34.75 467.95Q27.35 456.45 32.35 439.3Q37.4 421.85 40.55 403.85Q50.85 345.2 61.7 286.65Q72.35 228.8 81.15 170.5Q88.95 118.8 102.65 68.65Q102.7 68.35 103.45 68.25L103.5 69.4Q103.65 69.1 104.2 69.25Q112.05 127.4 115.3 186.95Q118.5 246.35 123.4 305.45Q127.55 355.6 130.45 405.5Q131 397.7 132.05 389.8L143.35 302.95Q150.8 244.2 163 186.25Q172.15 142.9 177.3 98.9Q179.15 82.8 186.2 70.5L187.05 71.4Q187.45 70.9 188.2 70.75M277.15,359.8Q288 353.05 300.75 354.15Q316.3 354.75 318.45 367.2Q328.35 378.85 331.65 393.7Q336.45 415.2 328.3 435.85Q320.15 456.65 301.05 468.65Q287.45 477.35 274.8 468.9Q256.65 456.9 257.25 433.05Q257.75 413.7 260.3 394.65Q263.15 373.6 277.15 359.8M270.55,383.7Q254.25 420.95 272.2 457.7Q290.6 461.65 305.8 451.1Q315.65 444.25 320.15 432.95Q333.9 398.75 311.45 368.95Q310.9 368.5 310.3 368.4Q292.9 362.55 276.95 372.95Q273.05 377.95 270.55 383.7" />
</g>
</svg>
