<?xml version="1.0" encoding="utf-8"?>
<svg version="1.1" id="Layer_1"
xmlns="http://www.w3.org/2000/svg"
xmlns:xlink="http://www.w3.org/1999/xlink"


xml:space="preserve">
q5.65 37.35 12 75.2q9.9 58.75 25.05 114.35q0.65 -0.25 0.8 -0.65q12.5 -32.15 21 -66q14.25 -56.9 28.8 -113.4q-0.65 -1.3 -1.7 -2.25q-11.45 27.4 -19.25 57.8q-11 42.75 -25.2 84.85q-3.8 11.3 -5.25 22.35q-6.3 -25.4 -11.1 -53.5q-9.9 -58 -25.2 -114.75q-1.5 0.1 -1.3 1.65q-4.9 20.3 -3.25 41.5q1.8 23.15 -12.75 39.65q-11.1 12.65 -27.5 4.8q-4.55 -42.85 -3.75 -85.45q-6.6 16.7 -8.65 39.1q-2.7 29.6 10.05 55.95q10.5 2.45 20.85 -0.3q17.15 -4.65 21.95 -21.95q11.05 -40.05 0.2 -78.45q-5.4 11.35 -8.2 25.7q-11.45 58 -25.6 115.25q-3.6 14.5 -9.1 28.35q-5.3 13.2 2.4 21.65q10.8 -36.6 19.85 -74.4q11.5 -48.2 19.3 -96.3q5.7 57 19.8 110.45q4.85 -6.05 3.3 -14.55q8.85 -34.2 19.35 -68.8q3.75 -12.4 8.5 -24.65q1.65 10.25 2.2 20.6q3.45 59.25 11.6 117.85q2.3 16.5 8.8 28.05q4.45 -7.7 4.75 -17.25q-1.4 0.25 -1.6 2.1q-7.4 -25.55 -9.95 -55q-5.2 -58.95 -13.55 -116.95q-9.95 -49.55 -17.4 -99.2q-0.75 -0.15 -0.95 0.25<g id="604" transform="matrix(1, 0, 0, 1, -133.3, 0)">
<path style="fill:#000000;fill-opacity:1" d="M337.2,179.75Q352.5 236.5 362.4 294.5Q367.2 322.6 373.5 348Q374.95 336.95 378.75 325.65Q392.95 283.55 403.95 240.8Q411.75 210.4 423.2 183Q424.25 183.95 424.9 185.25L425.2 186Q410.65 242.5 396.4 299.4Q387.9 333.25 375.4 365.4L373.75 370.3Q373.6 370.7 372.95 370.95Q357.8 315.35 347.9 256.6Q341.55 218.75 335.9 181.4Q335.7 179.85 337.2 179.75M327.25,345.2Q322.45 362.5 305.3 367.15Q294.95 369.9 284.45 367.45L281.6 362.3Q268.85 335.95 271.55 306.35Q273.6 283.95 280.2 267.25Q279.4 309.85 283.95 352.7Q300.35 360.55 311.45 347.9Q326 331.4 324.2 308.25Q322.55 287.05 327.45 266.75Q338.3 305.15 327.25 345.2M181.55,179.75Q181.75 179.35 182.5 179.5L182.7 180.85L183 181.25L182.9 182.05Q190.35 231.7 200.3 281.25L228.2 187L231.9 180.7L231.95 180.5L232.8 182.45L233.2 181.5Q241.55 239.5 246.75 298.45Q249.3 327.9 256.7 353.45Q256.9 351.6 258.3 351.35L258.45 351.7Q258.15 361.25 253.7 368.95Q247.2 357.4 244.9 340.9Q236.75 282.3 233.3 223.05Q232.75 212.7 231.1 202.45Q226.35 214.7 222.6 227.1Q212.1 261.7 203.25 295.9Q204.8 304.4 199.95 310.45Q185.85 257 180.15 200Q172.35 248.1 160.85 296.3Q151.8 334.1 141 370.7Q133.3 362.25 138.6 349.05Q144.1 335.2 147.7 320.7Q161.85 263.45 173.3 205.45Q176.1 191.1 181.5 179.75L181.55 179.75" />
</g>
</svg>
