<?xml version="1.0" encoding="utf-8"?>
<svg version="1.1" id="Layer_1"
xmlns="http://www.w3.org/2000/svg"
xmlns:xlink="http://www.w3.org/1999/xlink"


xml:space="preserve">
q-13.55 51.1 -13.65 104.8q0 30.9 14.2 57.95q3.9 7.4 12.05 9.9q38.8 11.9 57.9 -23.6q-1.35 18.35 3.75 33.55q3.95 -3.5 4.1 -9.5q1 -40.95 -1.6 -80.2q-0.5 -0.4 -1.05 -0.45q-12.8 -1.4 -23.75 3.75q-1.3 3.65 -0.45 7.45q16.6 -1.05 32 1.75q-1.55 -3.5 -4.55 -6.55q-0.15 8.25 -3.6 15.55q-13.2 28.05 -44.2 23.9q-16.4 -2.2 -19.7 -18.3q-11.75 -57.4 -2.25 -116q4.65 -29 27.65 -45.95q28.55 -21.1 51.85 1.55q4.8 -8.25 -1.7 -16.05q-3.65 -4.4 -9.05 -7.2q-9.85 -2.5 -20.55 -2.1q-34.75 10.55 -44 45.45q0.8 -30.8 -5.15 -59.25q-0.75 0.1 -0.8 0.4q-4.5 18.65 -2.35 38.9q6.4 61.5 -11.3 118.7q-9.45 30.55 -36 45.9q-7.2 4.15 -12.05 -2.35q-17 -22.9 -16.75 -53.05q0.45 -59.25 1.65 -118.5q0.35 -17.6 -5.9 -28.5q-0.7 43.75 -2.05 88.5q-1.55 52.6 7.2 103.3q4.2 24.35 26.85 28.15q18.75 -8.75 29.25 -27.2q20.45 -36 24.05 -76.6q2.55 -29 3.35 -58.4q-0.35 -13.35 -6.7 -20.75q-12.3 44.6 -20.1 90.85q-10 59.15 -27.15 116.15q-8.15 -58.65 -13.25 -117.85q-1 -11.2 -0.25 -22.45q1.1 -16.75 -5.2 -28.85q-9.85 28.7 -15.55 59.85q-10.9 59.6 -25.25 117.85q-3.7 15.1 -9.7 29.4q-5.45 12.85 0.55 21.85q14.35 -39.85 23 -81.6q12.25 -58.85 25.2 -116.35q4.35 43.45 9.2 86.85q6.55 59.2 15.05 117.1q1 -0.35 1.3 -1.05q16.8 -38.2 24.1 -79.8q10.35 -58.9 23.6 -117.1q6.45 59.2 15.05 118q1.9 13.05 9.25 20q3.9 -7.85 -0.05 -15.6q-7 -20.5 -9.55 -42.1q-7 -58.95 -13 -118q-1.55 -15.05 -2 -29.9<g id="615" transform="matrix(1, 0, 0, 1, -51, 0)">
<path style="fill:#000000;fill-opacity:1" d="M400.95,132.75Q411.65 132.35 421.5 134.85L424.45 135.5Q429.85 138.3 433.5 142.7Q440 150.5 435.2 158.75Q411.9 136.1 383.35 157.2Q360.35 174.15 355.7 203.15Q346.2 261.75 357.95 319.15Q361.25 335.25 377.65 337.45Q408.65 341.6 421.85 313.55Q425.3 306.25 425.45 298Q428.45 301.05 430 304.55L431.2 286.5Q415.8 283.7 399.2 284.75L398.55 283.9L398.25 283.2Q397.4 279.4 398.7 275.75Q409.65 270.6 422.45 272L433.4 273.3Q433.95 273.35 434.45 273.75Q437.05 313 436.05 353.95Q435.9 359.95 431.95 363.45Q426.85 348.25 428.2 329.9L428.55 325.1L427.45 327.25Q408.35 362.75 369.55 350.85Q361.4 348.35 357.5 340.95Q343.3 313.9 343.3 283Q343.4 229.3 356.95 178.2Q366.2 143.3 400.95 132.75M324.25,250.9Q320.65 291.5 300.2 327.5Q289.7 345.95 270.95 354.7Q248.3 350.9 244.1 326.55Q235.35 275.85 236.9 223.25Q238.25 178.5 238.95 134.75Q245.2 145.65 244.85 163.25Q243.65 222.5 243.2 281.75Q242.95 311.9 259.95 334.8Q264.8 341.3 272 337.15Q298.55 321.8 308 291.25Q325.7 234.05 319.3 172.55Q317.15 152.3 321.65 133.65Q321.7 133.35 322.45 133.25Q328.4 161.7 327.6 192.5Q326.8 221.9 324.25 250.9M187.65,179.65Q193.65 238.7 200.65 297.65Q203.2 319.25 210.2 339.75L210.2 340.45L209.95 342Q213.9 349.75 210 357.6L209.45 358.2Q202.1 351.25 200.2 338.2Q191.6 279.4 185.15 220.2L178.45 159Q165.2 217.2 154.85 276.1Q147.55 317.7 130.75 355.9Q130.45 356.6 129.45 356.95Q120.95 299.05 114.4 239.85Q109.55 196.45 105.2 153Q92.25 210.5 80 269.35Q71.35 311.1 57 350.95Q51 341.95 56.45 329.1Q62.45 314.8 66.15 299.7Q80.5 241.45 91.4 181.85Q97.1 150.7 106.95 122Q113.25 134.1 112.15 150.85Q111.4 162.1 112.4 173.3Q117.5 232.5 125.65 291.15L131.7 336Q148.85 279 158.85 219.85Q166.65 173.6 178.95 129Q185.3 136.4 185.65 149.75Q186.1 164.6 187.65 179.65" />
</g>
</svg>
