<?xml version="1.0" encoding="utf-8"?>
<svg version="1.1" id="Layer_1"
xmlns="http://www.w3.org/2000/svg"
xmlns:xlink="http://www.w3.org/1999/xlink"


xml:space="preserve">
q-2.75 8.05 -5 16.45q-0.95 16.25 -3.1 32.4q-6.35 48.1 -10.8 96.5q-1.15 12.7 -1.75 25.4q-24.2 7.1 -47.25 16q2.9 -44.9 8.5 -89.4q3.05 -23.85 7.65 -47.4q5.95 -30.1 3.1 -59.6q-4.9 39.15 -10.9 80.15q-7 48.1 -11.35 96.6q-0.95 10.7 -1.75 21.5q-0.35 1.5 -0.1 3.05q-2.55 34.8 -3.45 69.9q-1.3 47.85 -5.6 95.3q-1.15 12.35 -7.05 23.25q-7.2 13.3 -1.8 23.9q10.35 -20.8 13.35 -44.15q4.55 -35.6 5.25 -72q1 -48.3 3.95 -96.55q24.2 -3.1 47.2 -13q-1 30.8 1.2 61.8q3.4 47.4 3.3 95.45q0 7.5 -3.35 10.15q-3.5 10 2.85 16.75q7.55 -32.45 4.5 -67.65q-4.15 -47.8 -3.4 -96.05q0.15 -11.6 0.65 -23.15q0.65 -1.35 0.55 -2.95q1.55 -34.2 5.8 -68.1q5.95 -47.45 6.95 -94.95q-25.75 17.35 -48.45 38.3q-0.65 3.4 1.15 6.1q4.8 -1.75 8.9 -5.1q18.2 -14.75 37.35 -28.15q-0.5 7.65 -0.2 15.95q1.7 48.35 -3.3 95.9q-5.1 48.45 -8.5 96.05q1.6 1.5 3.05 -0.2q1 -1.7 1.2 -3.65q5.2 -47.9 9.5 -96q4.3 -47.9 4.55 -96.65q0.05 -7.9 -1.55 -14.65q19.65 -13.5 40.3 -25.5q2.2 -5.5 -2.25 -8.35q-14.9 8.35 -28.85 17.8q-2.35 28.9 -2.5 59.4q-0.2 48.05 -1 96.2q-0.6 1.5 -0.45 3.1q-0.7 45.05 -0.45 90.05q0.3 48.85 -2.85 97.3q-0.8 12.15 -2.3 24.25q-1.75 14.2 3.55 23.8q2.7 -7.7 2.85 -16.5q1 -48.35 2.95 -96.65q1.9 -48.2 1.95 -96.6q6.8 -2.2 13.45 -5.3q3.25 18.4 10.4 36.45q9.25 23.35 16.7 47.3q9.05 29.05 15.35 58.75q9.65 45.5 17 91.45q-4.65 11 5.3 15.9q1.3 -2.3 0.95 -4.85q-6.9 -47.55 -15.9 -94.75q-6.75 -35.5 -18.4 -70.25q-13.75 -41.1 -28.2 -81.6q4.95 -2.55 9.75 -5.65q11.4 -7.35 18.85 -18.45q28 -41.9 15.55 -91.6q-2.35 -9.35 -8.05 -16.95q-23.15 -31.05 -63.6 -28.65q-1.55 0.85 -1.45 3.05q0 0.95 0.4 1.85q12.95 4.8 19.75 16.2q22.35 37.5 7.1 79.35q-2.35 6.4 -6.35 11.6q-14.6 19.1 -34.65 31.2q-1.5 -0.25 -1.3 1.15q-5.85 3.4 -12.1 6.2q0.15 -45.8 -1.6 -90.85q15 2.3 29.4 7.6q-5.85 42.85 -14.15 85.55q-9.35 48.1 -19.8 96.05q-10.4 47.75 -18.7 95.85q-8.2 47.6 -11.7 95.5q-3.15 -47.3 -5.7 -94.75q-2.6 -47.85 -2.15 -96q0.05 -24.2 2.45 -48.2q1.45 -14 -3.5 -23.8q-8.6 28.9 -17.15 58.5q-13.8 47.7 -26.6 95.8q-12.7 47.75 -23.95 95.7q-5.75 24.45 -12.7 48.8q-6.85 23.85 -14.25 47.6q-5.85 18.75 -4 36.2q9.25 -35.55 19.8 -71.55q14 -47.9 24.5 -96.35q10.45 -48.4 25.05 -95.9q14.7 -47.75 27.5 -95.55q0.15 4.95 -0.1 9.8q-2.25 47.2 -2.9 94.8q-0.65 48.05 1.55 96q2.2 48 3.45 96q0.95 37.6 10.4 71.95q0.65 -0.5 0.65 -1.05q2.35 -42.2 8.7 -83.7q7.35 -48.15 16.95 -95.9q9.7 -48.1 19.75 -96.15q9.95 -47.65 16.95 -95.8q-0.15 19.65 0.65 39.15q2.05 47.8 5.4 95.35q3.4 48 8.4 95.85q5.1 48.5 10.95 96.9q3.1 25.6 11.5 47.6q1.15 -1 1.3 -2.5q0.95 -7.75 -0.6 -15.5q-9.25 -47.05 -15.9 -94.55q-6.7 -47.65 -9.55 -95.95q-1.35 -24.15 -0.9 -48.3q0.5 -25.25 -5.45 -48.3q-0.6 0.1 -0.65 0.25q-0.25 48.2 0.95 96.6q0.3 12.15 -1.15 24.3q-1.55 13.55 1.75 24.4q1.5 -0.5 1.7 -2.25q3.35 -32.25 1.7 -65.45q-2.4 -48.35 -0.7 -96.55q1.7 -48.75 -0.85 -96.65q-3.1 8.3 -3.1 18.95<g id="606" transform="matrix(1, 0, 0, 1, -15.25, 0)">
<path style="fill:#000000;fill-opacity:1" d="M493.45,85.45L494.1 86Q493.1 133.5 487.15 180.95Q482.9 214.85 481.35 249.05L481.7 250.7Q481.8 252.3 481.15 253.65Q480.65 265.2 480.5 276.8Q479.75 325.05 483.9 372.85Q486.95 408.05 479.4 440.5Q473.05 433.75 476.55 423.75Q479.9 421.1 479.9 413.6Q480 365.55 476.6 318.15Q474.4 287.15 475.4 256.35Q452.4 266.25 428.2 269.35L428.15 269.55Q425.2 317.8 424.2 366.1Q423.5 402.5 418.95 438.1Q415.95 461.45 405.6 482.25Q400.2 471.65 407.4 458.35Q413.3 447.45 414.45 435.1Q418.75 387.65 420.05 339.8Q420.95 304.7 423.5 269.9L423.15 269.9L422.85 268.65Q422.6 267.1 422.95 265.6L423.8 265.3Q424.6 254.5 425.55 243.8Q429.9 195.3 436.9 147.2Q442.9 106.2 447.8 67.05Q450.65 96.55 444.7 126.65Q440.1 150.2 437.05 174.05Q431.45 218.55 428.55 263.45Q451.6 254.55 475.8 247.45Q476.4 234.75 477.55 222.05Q482 173.65 488.35 125.55Q490.5 109.4 491.45 93.15L487.9 100.85L487.55 101.3Q489.8 92.9 492.55 84.85L492.65 84.8L493.45 85.45M380.85,189.75Q394.8 180.3 409.7 171.95L422.35 164.5Q426.8 167.35 424.6 172.85L424.35 173.45Q403.7 185.45 384.05 198.95Q385.65 205.7 385.6 213.6Q385.35 262.35 381.05 310.25Q376.75 358.35 371.55 406.25Q371.35 408.2 370.35 409.9Q368.9 411.6 367.3 410.1Q370.7 362.5 375.8 314.05Q380.8 266.5 379.1 218.15Q378.8 209.85 379.3 202.2Q360.15 215.6 341.95 230.35Q337.85 233.7 333.05 235.45Q331.25 232.75 331.9 229.35L332.25 228.1Q354.95 207.15 380.7 189.8L380.75 189.55L380.85 189.75M259.05,84.2Q258.65 83.3 258.65 82.35L258.65 81.15Q258.55 78.95 260.1 78.1Q300.55 75.7 323.7 106.75Q329.4 114.35 331.75 123.7Q344.2 173.4 316.2 215.3Q308.75 226.4 297.35 233.75Q292.55 236.85 287.6 239.4Q302.05 279.9 315.8 321Q327.45 355.75 334.2 391.25Q343.2 438.45 350.1 486Q350.45 488.55 349.15 490.85Q339.2 485.95 343.85 474.95Q336.5 429 326.85 383.5Q320.55 353.8 311.5 324.75Q304.05 300.8 294.8 277.45Q287.65 259.4 284.4 241Q277.75 244.1 270.95 246.3L270.9 273.55Q270.85 321.95 268.95 370.15Q267 418.45 266 466.8Q265.85 475.6 263.15 483.3Q257.85 473.7 259.6 459.5Q261.1 447.4 261.9 435.25Q265.05 386.8 264.75 337.95Q264.5 292.95 265.2 247.9L260.9 248.9L260.4 247.65L260.1 246.45L260.05 245.85Q259.9 244.25 260.5 242.75L265.3 240.95Q266.1 192.8 266.3 144.75Q266.45 114.25 268.8 85.35L259.05 84.2M269.5,85.45Q271.25 130.5 271.1 176.3L270.95 238.6Q277.2 235.8 283.05 232.4L282.85 230.9Q282.65 229.5 284.15 229.75L284.75 231.4Q304.8 219.3 319.4 200.2Q323.4 195 325.75 188.6Q341 146.75 318.65 109.25Q311.85 97.85 298.9 93.05Q284.5 87.75 269.5 85.45M189.55,78.9Q195.5 101.95 195 127.2Q194.55 151.35 195.9 175.5L201.5 271.55Q204.35 319.85 211.05 367.5Q217.7 415 226.95 462.05Q228.5 469.8 227.55 477.55Q227.4 479.05 226.25 480.05Q217.85 458.05 214.75 432.45Q208.9 384.05 203.8 335.55Q198.8 287.7 195.4 239.7Q192.05 192.15 190 144.35Q189.2 124.85 189.35 105.2Q182.35 153.35 172.4 201Q162.35 249.05 152.65 297.15Q143.05 344.9 135.7 393.05Q129.35 434.55 127 476.75Q127 477.3 126.35 477.8Q116.9 443.45 115.95 405.85Q114.7 357.85 112.5 309.85Q110.3 261.9 110.95 213.85Q111.6 166.25 113.85 119.05Q114.1 114.2 113.95 109.25Q101.15 157.05 86.45 204.8Q71.85 252.3 61.4 300.7Q50.9 349.15 36.9 397.05Q26.35 433.05 17.1 468.6Q15.25 451.15 21.1 432.4Q28.5 408.65 35.35 384.8Q42.3 360.45 48.05 336Q59.3 288.05 72 240.3Q84.8 192.2 98.6 144.5Q107.15 114.9 115.75 86Q120.7 95.8 119.25 109.8Q116.85 133.8 116.8 158L116.25 254Q115.8 302.15 118.4 350Q120.95 397.45 124.1 444.75L124.55 452.1Q128.05 404.2 136.25 356.6Q144.55 308.5 154.95 260.75Q165.4 212.8 174.75 164.7Q183.05 122 188.9 79.15Q188.95 79 189.55 78.9M235.85,125.35Q238.4 173.25 236.7 222Q235 270.2 237.4 318.55Q239.05 351.75 235.7 384Q235.5 385.75 234 386.25Q230.7 375.4 232.25 361.85Q233.7 349.7 233.4 337.55Q232.2 289.15 232.45 240.95L232.75 144.3Q232.75 133.65 235.85 125.35" />
</g>
</svg>
