<?xml version="1.0" encoding="utf-8"?>
<svg version="1.1" id="Layer_1"
xmlns="http://www.w3.org/2000/svg"
xmlns:xlink="http://www.w3.org/1999/xlink"


xml:space="preserve">
q0.1 1.35 1.2 2.2q-1.75 26.7 0.35 54.55q-1.9 11.75 -1.55 24q0.95 36 -3.1 71.05q-0.95 8.1 -0.4 15.25q-0.85 1.55 -1.1 3.4q-0.85 6.2 2.9 10.5q15.75 3.25 31.5 0.55q8.35 -1.4 15.65 -5.55q20.1 -11.4 21.4 -36.4q2.1 -39.85 -28.1 -62.25q11 -11.8 10.4 -30.55q-1.45 -45.3 -44.35 -55.25q-0.8 0.2 -1.45 0.55q-1.05 1.3 -1.35 3q-0.3 1.9 -0.2 3.75q1.95 3.9 3.4 7.95q3.4 9.8 1.05 19.45q-12.55 19.2 -35.05 22.8q21.45 2.55 34.15 19.75q1.85 2.45 3.2 5.2q21.8 7.25 28.75 30.4q6.65 22.2 -4.7 42.35q-21.2 9.15 -44.25 7.8q5.7 -36.2 4.65 -72.9q-15.55 67.4 -34.1 135.9q-1.5 5.45 -2.6 10.95q-1.6 8.05 -1.5 16.15q0.1 5.25 0.35 10.5q24.6 -71.3 39.55 -146.45q0.05 45.55 16 87.25q15.45 -45.65 26 -92.4q6.15 79.3 13.4 158q0.3 3.3 1.9 6.5q0.8 -93.75 -15.2 -186.4q-0.5 -2.9 -0.6 -5.9q-15.25 22.45 -37.2 10.6q-5.2 -2.8 -5.8 -8.25q-3.7 -35.8 -3.9 -71.05q-5.45 10.15 -5.6 24q-0.15 13 -1.5 26.05q-2.6 24.9 13 40.85q7.4 7.5 17.45 6.35q24.85 -2.75 32.25 -26.25q6.9 -21.95 6.35 -46q-0.35 -14.4 -6.95 -22.5q-3.5 16 -0.9 33.6q2.7 18.05 -7.2 32.6<g id="601" transform="matrix(1, 0, 0, 1, -142.05, 0)">
<path style="fill:#000000;fill-opacity:1" d="M346.35,181.25Q346.65 179.55 347.7 178.25L348.55 177.6Q349.2 177.25 350 177.05L351.95 176.75Q394.85 186.7 396.3 232Q396.9 250.75 385.9 262.55Q416.1 284.95 414 324.8Q412.7 349.8 392.6 361.2Q385.3 365.35 376.95 366.75Q361.2 369.45 345.45 366.2L344.45 365.95Q340.7 361.65 341.55 355.45Q341.8 353.6 342.65 352.05Q342.1 344.9 343.05 336.8Q347.1 301.75 346.15 265.75Q345.8 253.5 347.7 241.75Q345.6 213.9 347.35 187.2Q346.25 186.35 346.15 185Q346.05 183.15 346.35 181.25M383.3,207.4Q370.6 190.2 349.15 187.65L352.9 263.1L355.9 262.8Q378.4 259.2 390.95 240Q393.3 230.35 389.9 220.55Q388.45 216.5 386.5 212.6Q385.15 209.85 383.3 207.4M353.05,277.95Q354.1 314.65 348.4 350.85L354.95 351.5Q378 352.85 399.2 343.7Q410.55 323.55 403.9 301.35Q396.95 278.2 375.15 270.95L353.05 277.95M187.3,190L199.3 276.4L229.2 180Q229.3 183 229.8 185.9Q245.8 278.55 245 372.3L243.25 369.55Q241.65 366.35 241.35 363.05Q234.1 284.35 227.95 205.05Q217.4 251.8 201.95 297.45L201.2 296.45L201.05 296.75L200.7 297.2Q184.75 255.5 184.7 209.95L182.05 222Q167.1 297.15 142.5 368.45Q142.25 363.2 142.15 357.95Q142.05 349.85 143.65 341.8Q144.75 336.3 146.25 330.85L150.65 314.75Q169.2 246.25 184.75 178.85L185.85 180.95L186.9 179.45L187.3 190M316.55,309.55Q313.95 291.95 317.45 275.95Q324.05 284.05 324.4 298.45Q324.95 322.5 318.05 344.45Q310.65 367.95 285.8 370.7Q275.75 371.85 268.35 364.35Q252.75 348.4 255.35 323.5Q256.7 310.45 256.85 297.45Q257 283.6 262.45 273.45Q262.65 308.7 266.35 344.5Q266.95 349.95 272.15 352.75Q294.1 364.6 309.35 342.15Q319.25 327.6 316.55 309.55" />
</g>
</svg>
