<?xml version="1.0" encoding="utf-8"?>
<svg version="1.1" id="Layer_1"
xmlns="http://www.w3.org/2000/svg"
xmlns:xlink="http://www.w3.org/1999/xlink"


xml:space="preserve">
q-3.05 20.6 -3.6 42q-0.55 22.7 -19.7 34.9q-22.85 14.7 -31.35 -8.75q-6.75 -18.6 -3.75 -39.5q2.2 -15.15 0.9 -30.65q-12.25 35.05 -7 74.05q2.5 18.4 19.75 24.1q25.9 8.45 39.4 -18.65q16.75 -33.65 8.85 -70q-0.9 -4.1 -3.5 -7.5q-17.3 69.65 -32.95 140.6q-2.15 6.7 -3.1 13.6q-1.2 8.7 0.05 17.4q29 -79.7 43.05 -165.35q2.55 54.95 21.25 103.45q24.7 -51.65 38.1 -107.65q7.9 87 31.4 170.1q0.3 1.05 1.1 2q-4.7 -51.15 -16.55 -104.7q-1.6 -7.2 -2.85 -14.45q-2.7 -14.9 -6.45 -28.5q-15.05 52.95 -38.4 103.55<g id="600" transform="matrix(1, 0, 0, 1, -141.25, 0)">
<path style="fill:#000000;fill-opacity:1" d="M385.45,282.2Q393.35 318.55 376.6 352.2Q363.1 379.3 337.2 370.85Q319.95 365.15 317.45 346.75Q312.2 307.75 324.45 272.7Q325.75 288.2 323.55 303.35Q320.55 324.25 327.3 342.85Q335.8 366.3 358.65 351.6Q377.8 339.4 378.35 316.7Q378.9 295.3 381.95 274.7Q384.55 278.1 385.45 282.2M187.45,193.45L206.6 284.3Q229.95 233.7 245 180.75L245.85 178.15Q249.6 191.75 252.3 206.65L257.65 235.55L260.3 250.05Q261.55 257.3 263.15 264.5Q275 318.05 279.7 369.2L278.85 368.45L278 367.55Q277.2 366.6 276.9 365.55Q253.4 282.45 245.5 195.45L244.9 198.9Q231.5 254.9 206.8 306.55Q188.1 258.05 185.55 203.1Q171.5 288.75 142.5 368.45Q141.25 359.75 142.45 351.05Q143.4 344.15 145.55 337.45L147.15 332.7L149.7 325.75L150.75 322.15Q166.4 251.2 183.7 181.55L187.5 179.25L187.45 193.45" />
</g>
</svg>
