<?xml version="1.0" encoding="utf-8"?>
<svg version="1.1" id="Layer_1"
xmlns="http://www.w3.org/2000/svg"
xmlns:xlink="http://www.w3.org/1999/xlink"


xml:space="preserve">
q-2.35 47.9 -3.45 96.65q-1.15 48.15 -0.9 96.6q0.25 48.65 -2.55 96.7q-0.1 1.15 -1.05 1.85q-4.9 -10.3 -3.45 -24q2.55 -24 3.95 -48.1q2.85 -48.15 3.5 -96.7q0.7 -48.35 2.9 -96.55q2.15 -48.2 2.05 -96.65q-0.05 -9.35 3.9 -16.5q-58.8 -9.6 -119.4 -4.35q7.9 45.7 9.45 93q0.45 12.2 1.3 24.5q3.5 48.05 7.55 96q4.05 48.05 3.05 96.6q-0.75 37.15 -2.3 74q-0.05 1.5 -1.35 2.45q-4.95 -10.05 -3.2 -23.45q1.55 -12 1.7 -24.25q0.55 -48.15 -0.9 -96q-1.05 -36.2 -3.5 -72.25q-3.3 -48.45 -7 -96.65q-1.5 -19.55 -3.75 -38.9q-2.2 -18.45 -1.6 -35q-42.45 3.85 -84.45 10.3q-17.1 2.6 -33.45 1.95q-0.1 -0.95 0.2 -1.8q53.55 -10.3 109.4 -13.2q40.15 0.1 79.45 6.35q2.25 47.95 2.5 96.65q0.15 37.4 1.05 74.75q21.95 -5.85 46 -3.85q0.3 0 0.6 0.3q0.65 2.95 -0.85 5.55q-37.8 0.45 -75.05 -0.15q1.4 48.3 0.65 96.65q-0.7 40.55 -5.15 79.5q-5 -6.65 -3.4 -17.75q1.7 -12.05 2.2 -24.25q1.9 -48.5 1.5 -97.25q-0.05 -0.5 0.05 -0.95q-0.05 -48.75 -1.6 -97.2q-0.65 -19.5 2.1 -36.95q1.25 47.7 5.25 95.3q0.7 8.95 -0.45 17.8q-5.5 -9.2 -6 -23q-1.6 -47.8 -5.8 -95.4q-4.2 -48 -7.65 -96.1q-2.75 -38.5 -6.25 -76.35q-9.2 47.6 -16.95 95.45q-7.75 47.9 -15 95.9q-7.15 47.3 -14.8 94.05q-1.2 -47.9 -4.9 -95.35q-3.6 -48.2 -8.75 -96.15q-12.35 47.55 -24.05 95.55q-11.65 47.6 -20.15 95.75q-8.5 48.2 -18 96.25q-2.75 13.85 -6.9 26.55q-2.6 -9.6 0.5 -22.95q11 -47.3 19.2 -95.15q8.25 -48.2 19.2 -96q11.1 -48.35 24.15 -96.2q3.5 -12.75 6.45 -25.15q5.5 47.7 8.2 95.95q2.7 47.95 6.4 96.05q7.25 -48.1 16.3 -95.85q8.85 -46.45 14.75 -93.05q4.5 9.25 4.9 23q5.5 47.55 8.8 95.95q3.15 46.3 7.05 92.5q2.6 3.4 0.65 7.4q3.95 45.6 9.25 91.05q3.15 27 5.5 53.25q0.1 0.55 -0.35 1.15q-2.1 0.2 -2.65 -1.8q-6.55 -47.9 -11.75 -96q-2.5 -23.3 -4.65 -46.7q-23.9 4.8 -47.35 8.25q-9.1 47.75 -16.65 95.75q-1.95 12.4 -3 24.95q-0.2 2.15 -1.75 3.4q-0.15 -48 11.9 -96.1q7.35 -29.5 12.85 -59.4q4.4 -24 9.2 -47.95q9.55 -47.55 17.9 -95.3q3.7 -21.15 6.6 -42.2q0.05 -0.15 0.65 -0.25q-7.75 48.15 -17.7 95.9q-8.2 39.3 -15.8 78.65q22.65 -5.55 45.55 -10.35q-1.85 -20.7 -3.4 -41.45q-3.55 -47.65 -6.7 -95.45<g id="624" transform="matrix(1, 0, 0, 1, -28.15, 0)">
<path style="fill:#000000;fill-opacity:1" d="M501.05,106L501.2 106.6Q498.85 154.5 497.75 203.25Q496.6 251.4 496.85 299.85Q497.1 348.5 494.3 396.55L489 481.45Q488.9 482.6 487.95 483.3Q483.05 473 484.5 459.3Q487.05 435.3 488.45 411.2Q491.3 363.05 491.95 314.5Q492.65 266.15 494.85 217.95Q497 169.75 496.9 121.3Q496.85 111.95 500.8 104.8L501.05 106M470.65,81.15L470.85 81.75L471.35 83.6L471.45 84.8L471.35 86L471.05 87.25L470.65 88.45Q411.85 78.85 351.25 84.1Q359.15 129.8 360.7 177.1Q361.15 189.3 362 201.6Q365.5 249.65 369.55 297.6Q373.6 345.65 372.6 394.2Q371.85 431.35 370.3 468.2Q370.25 469.7 368.95 470.65Q364 460.6 365.75 447.2Q367.3 435.2 367.45 422.95Q368 374.8 366.55 326.95Q365.5 290.75 363.05 254.7Q359.75 206.25 356.05 158.05Q354.55 138.5 352.3 119.15Q350.1 100.7 350.7 84.15L348.45 84.35Q306 88.2 264 94.65Q246.9 97.25 230.55 96.6L230.35 96L230.15 94.2L230.1 93.55Q230 92.6 230.3 91.75L230.55 91.1Q284.1 80.8 339.95 77.9L390.55 74.4Q430.7 74.5 470 80.75L470.65 81.15M412.75,107.2Q415 155.15 415.25 203.85Q415.4 241.25 416.3 278.6Q438.25 272.75 462.3 274.75L491.05 275.9Q491.35 275.9 491.65 276.2L492 276.85L492.2 277.45L492.3 278Q492.95 280.95 491.45 283.55Q453.65 284 416.4 283.4L416.85 301.05Q418.25 349.35 417.5 397.7Q416.8 438.25 412.35 477.2Q407.35 470.55 408.95 459.45Q410.65 447.4 411.15 435.2Q413.05 386.7 412.65 337.95L412.35 281.85L412.3 281.5Q412.25 281 412.35 280.55L412.25 241.35Q412.2 192.6 410.65 144.15Q410 124.65 412.75 107.2M176.95,143.7Q178.2 191.4 182.2 239L190.15 335.1L198.05 431Q198.75 439.95 197.6 448.8L197.1 450.05Q191.6 440.85 191.1 427.05Q189.5 379.25 185.3 331.65Q181.1 283.65 177.65 235.55Q174.9 197.05 171.4 159.2Q162.2 206.8 154.45 254.65Q146.7 302.55 139.45 350.55Q132.3 397.85 124.65 444.6L123.7 444.75Q122.5 396.85 118.8 349.4L111.5 253.45Q107.9 205.25 102.75 157.3L99.85 134.15Q87.5 181.7 75.8 229.7Q64.15 277.3 55.65 325.45Q47.15 373.65 37.65 421.7Q34.9 435.55 30.75 448.25Q28.15 438.65 31.25 425.3Q42.25 378 50.45 330.15Q58.7 281.95 69.65 234.15Q80.75 185.8 93.8 137.95Q97.3 125.2 100.25 112.8L100.7 112.75L112 208.15Q117.5 255.85 120.2 304.1Q122.9 352.05 126.6 400.15L126.8 404.4L141 309.6Q148.25 261.5 157.3 213.75Q166.15 167.3 172.05 120.7Q176.55 129.95 176.95 143.7M273.55,110.7Q279.05 158.25 282.35 206.65Q285.5 252.95 289.4 299.15L292.1 298.6Q294.7 302 292.75 306L292.5 306.55L290.1 307.05Q294.05 352.65 299.35 398.1Q302.5 425.1 304.85 451.35Q304.95 451.9 304.5 452.5Q302.4 452.7 301.85 450.7Q295.3 402.8 290.1 354.7Q287.6 331.4 285.45 308Q261.55 312.8 238.1 316.25L235.85 327.8Q226.75 375.55 219.2 423.55Q217.25 435.95 216.2 448.5Q216 450.65 214.45 451.9Q214.3 403.9 226.35 355.8Q233.7 326.3 239.2 296.4Q243.6 272.4 248.4 248.45Q257.95 200.9 266.3 153.15Q270 132 272.9 110.95Q272.95 110.8 273.55 110.7M272.7,135.95Q264.95 184.1 255 231.85Q246.8 271.15 239.2 310.5Q261.85 304.95 284.75 300.15Q282.9 279.45 281.35 258.7Q277.8 211.05 274.65 163.25L272.7 135.95" />
</g>
</svg>
