<?xml version="1.0" encoding="utf-8"?>
<svg version="1.1" id="Layer_1"
xmlns="http://www.w3.org/2000/svg"
xmlns:xlink="http://www.w3.org/1999/xlink"


xml:space="preserve">
q-2.35 50.7 -2.3 104.2q-0.95 11.4 -1 23q0 11.25 4.05 21.8q10.6 -52.7 6 -108.85q20.2 1.5 39.1 -4q4.2 -7.05 -0.6 -13.85q1.4 -30.1 -2.75 -59.9q2.75 -5.9 -0.15 -11.35q-32.05 -6.2 -64.5 -6.75q-10.35 -19.3 -17.4 -40.1q-9.55 -28.4 -27.45 -51.25q-4.55 2.5 -1.55 8.05q6.35 11.6 11.5 24.15q-7.5 3.6 -12.6 11.1q-21.45 31.85 6.1 59.4q15.7 4.1 27.05 -5.2q3.4 -2.8 5.5 -5.55q4.05 6.4 8.7 12.25q4.2 -6.15 0.6 -12.85q-0.75 0.1 -0.85 0.4q-2.15 1.65 -1.45 5.7q-7.3 30.8 -13.2 62.4q-10.75 57.8 -18.9 115.45q0.55 2.65 3 2q6.4 -15.5 8.75 -32.15q8.1 -58.45 20.55 -116.2q1.75 -8 2.65 -15.85q4.45 23.15 9.85 46.1q2.85 12.15 3.95 24.5q1.35 16.2 8 28.35q1.4 -1.65 1.7 -3.65q9.7 -31.9 18.8 -64.7q5.15 -18.7 8.3 -37.15q4 27 9.55 53.8q11.9 56.9 20.1 114.45q1.25 2.55 3.75 2q0.65 -0.75 0.65 -1.5q-0.9 -35.7 -7.3 -71.45q-9.9 -55.4 -24.95 -108.75q-2.5 0.3 -2.1 3.15q-2.55 5 -4.1 11.15q-7.75 31 -17.75 61.35q-5.1 15.55 -4.85 30.25q-8 -53.15 -21 -104.7q-2.95 3.1 -6.75 4.75q-8.55 3.5 -17.65 1.35q-0.3 -15.25 10.85 -25.5q4.6 -4.2 10.85 -3.05<g id="623" transform="matrix(1, 0, 0, 1, -139.75, 0)">
<path style="fill:#000000;fill-opacity:1" d="M358.95,179.25Q391.4 179.8 423.45 186L424.45 187.65Q427.35 193.1 424.6 199L356.4 191.4Q360.55 221.2 359.15 251.3L397.45 245.75Q402.25 252.55 398.05 259.6Q379.15 265.1 358.95 263.6Q363.55 319.75 352.95 372.45Q348.9 361.9 348.9 350.65Q348.95 339.05 349.9 327.65L351.35 305.2L351.65 297.7L351.9 282.7Q351.85 229.2 354.2 178.5L354.55 180.2L358.95 179.25M327.7,369.7Q323.05 363.85 319 357.45Q316.9 360.2 313.5 363Q302.15 372.3 286.45 368.2Q258.9 340.65 280.35 308.8Q285.45 301.3 292.95 297.7L293.4 297.7Q288.25 285.15 281.9 273.55Q278.9 268 283.45 265.5Q301.35 288.35 310.9 316.75Q317.95 337.55 328.3 356.85Q331.9 363.55 327.7 369.7M175.8,185.1Q188.8 236.65 196.8 289.8Q196.55 275.1 201.65 259.55Q211.65 229.2 219.4 198.2Q220.95 192.05 223.5 187.05L223.35 185.9Q222.95 183.05 225.45 182.75L225.65 183.35L228.2 179.75L227.1 188.5Q242.15 241.85 252.05 297.25Q258.45 333 259.35 368.7Q259.35 369.45 258.7 370.2Q256.2 370.75 254.95 368.2Q246.75 310.65 234.85 253.75Q229.3 226.95 225.3 199.95Q222.15 218.4 217 237.1Q207.9 269.9 198.2 301.8Q197.9 303.8 196.5 305.45Q189.85 293.3 188.5 277.1Q187.4 264.75 184.55 252.6Q179.15 229.65 174.7 206.5Q173.8 214.35 172.05 222.35Q159.6 280.1 151.5 338.55Q149.15 355.2 142.75 370.7Q140.3 371.35 139.75 368.7Q147.9 311.05 158.65 253.25Q164.55 221.65 171.85 190.85L171.8 190.7Q171.1 186.65 173.25 185L174.65 179.15Q174.75 178.85 175.5 178.75L175.8 185.1M287.55,313.95Q276.4 324.2 276.7 339.45L286.2 352.2L288.3 352.75Q297.4 354.9 305.95 351.4Q309.75 349.75 312.7 346.65L298.4 310.9Q292.15 309.75 287.55 313.95" />
</g>
</svg>
