<?xml version="1.0" encoding="utf-8"?>
<svg version="1.1" id="Layer_1"
xmlns="http://www.w3.org/2000/svg"
xmlns:xlink="http://www.w3.org/1999/xlink"


xml:space="preserve">
q-12.85 -8.45 -26.25 -3.8q-3.85 31.4 -3.9 63.2q-0.25 96.1 -7.35 191.55q-0.85 11.3 4.5 21.2q5.05 -25.1 5.4 -50.7q0.45 -33.95 0.4 -68.2q2.85 0.5 5.65 0q4.85 -0.8 9 -3.25q13.4 40 24.3 80.65q6.9 25.7 19.25 47.55q3.1 -6.65 0.95 -13.55q-18.4 -59.35 -40.25 -117.7q7.8 -5.65 13.8 -12.95q13.65 -16.55 16.7 -37.75q1.1 -7.65 0.95 -15.4q0.55 -20.35 -5 -40q-5.95 -21.2 -24.45 -33.3q-10.55 9.3 -25.5 9.75q1.9 -53.55 0.45 -106.2q1.9 1.6 4.15 1.5q24.45 -0.95 34.95 20.75q27.05 56 -14.75 99.65q-14.35 53.25 -20.8 108.55q-2.1 17.9 -4.6 35.7q-1.9 3.95 -0.8 7.9q-5.3 36.45 -12.2 72.65q-4.35 22.8 -3.95 43.55q3 -5.7 4.4 -12.55q10.15 -50.55 16.7 -101.6q18.35 0.95 36.65 -2.65q3.05 18.9 6.65 37.65q5.6 29.25 8.85 58.8q1.9 17.5 11 27.6q0.9 -1.4 0.7 -2.95q-5.15 -41.9 -14.05 -84q-7.6 -36.1 -11.2 -72.65q-5.8 -59.3 -16.2 -116.85q-0.75 0.1 -0.8 0.4q3.15 33.6 8.15 66.85q-16.5 2.5 -33.35 3.95q7 -58.9 19.6 -116.7q2.85 24.75 5.2 49.55q2.15 59.6 6.7 118.55q2.3 29.5 1.25 59.1q-0.45 13.6 5.6 21.55q2.35 -2.9 3.05 -6.6q8.85 -46 16.4 -92.2q9.55 -58.75 18.05 -117.15q0 7.5 0.35 14.95q2.55 59.45 9.25 118.45q3.35 29.7 5.7 59.45q1.35 17.15 9.2 28.85q1.9 -31 -4.05 -63.3q-10.65 -58.35 -13.7 -118.1q-1.5 -29.45 0.6 -59.2q1.25 -16.9 -4.1 -29.35q-5.05 13.05 -7.4 27.55q-9.65 58.75 -18.4 117.55q1.15 -26.85 -1.55 -53.05q-5.95 -58.9 -7.75 -118.45q-0.9 -30.25 -3.2 -59.25q-5.85 11.45 -7.35 26.6q-6.05 60.1 -17.3 119.4q-11.25 59.25 -19.05 117.7q5.3 -2.25 6.75 -10.3q10.6 -58.65 19.05 -117.75q1 5.2 1.2 10.5<g id="632" transform="matrix(1, 0, 0, 1, -57.75, 0)">
<path style="fill:#000000;fill-opacity:1" d="M359.05,135Q364.6 154.65 364.05 175Q364.2 182.75 363.1 190.4Q360.05 211.6 346.4 228.15Q340.4 235.45 332.6 241.1Q354.45 299.45 372.85 358.8Q375 365.7 371.9 372.35Q359.55 350.5 352.65 324.8Q341.75 284.15 328.35 244.15L321.9 248.05Q317.75 250.5 312.9 251.3Q310.1 251.8 307.25 251.3Q307.3 285.55 306.85 319.5Q306.5 345.1 301.45 370.2Q296.1 360.3 296.95 349Q304.05 253.55 304.3 157.45Q304.35 125.65 308.2 94.25L308.35 97.9Q321.75 93.25 334.6 101.7Q353.1 113.8 359.05 135M347.7,128.85Q337.2 107.15 312.75 108.1Q310.5 108.2 308.6 106.6Q310.05 159.25 308.15 212.8L307.45 238.25Q322.4 237.8 332.95 228.5Q374.75 184.85 347.7 128.85M239.45,94Q249.85 151.55 255.65 210.85Q259.25 247.4 266.85 283.5Q275.75 325.6 280.9 367.5Q281.1 369.05 280.2 370.45Q271.1 360.35 269.2 342.85Q265.95 313.3 260.35 284.05Q256.75 265.3 253.7 246.4Q235.4 250 217.05 249.05Q210.5 300.1 200.35 350.65Q198.95 357.5 195.95 363.2Q195.55 342.45 199.9 319.65Q206.8 283.45 212.1 247Q211 243.05 212.9 239.1L213.25 238.65Q215.75 220.85 217.85 202.95Q224.3 147.65 238.65 94.4Q238.7 94.1 239.45 94M238.45,117.75Q225.85 175.55 218.85 234.45L218.45 238.1Q235.3 236.65 251.8 234.15Q246.8 200.9 243.65 167.3Q241.3 142.5 238.45 117.75M97.95,149.25Q89.5 208.35 78.9 267L64.5 346.4Q63.05 354.45 57.75 356.7Q65.55 298.25 76.8 239Q88.05 179.7 94.1 119.6Q95.6 104.45 101.45 93Q103.75 122 104.65 152.25Q106.45 211.8 112.4 270.7Q115.1 296.9 113.95 323.75Q122.7 264.95 132.35 206.2L146.05 122.3Q148.4 107.8 153.45 94.75Q158.8 107.2 157.55 124.1Q155.45 153.85 156.95 183.3Q160 243.05 170.65 301.4Q176.6 333.7 174.7 364.7Q166.85 353 165.5 335.85Q163.15 306.1 159.8 276.4Q153.1 217.4 150.55 157.95Q150.2 150.5 150.2 143Q141.7 201.4 132.15 260.15Q124.6 306.35 115.75 352.35Q115.05 356.05 112.7 358.95Q106.65 351 107.1 337.4Q108.15 307.8 105.85 278.3Q101.3 219.35 99.15 159.75Q98.95 154.45 97.95 149.25" />
</g>
</svg>
