<?xml version="1.0" encoding="utf-8"?>
<svg version="1.1" id="Layer_1"
xmlns="http://www.w3.org/2000/svg"
xmlns:xlink="http://www.w3.org/1999/xlink"


xml:space="preserve">
q-0.6 16.7 -2.55 33.25q-2.65 22.15 6.15 40.25q10.65 62.15 32.3 121.7q3.8 10.5 8.55 20.65q4.8 -15.1 4.7 -31.15q-0.1 -14.45 0.8 -29q2 -35.3 0 -70.5q-13.1 48.75 -10.65 101.9q0.7 14.65 0.15 29.35q-26.15 -68.3 -41.5 -140.75q-7 19.6 -7.4 41.3q2.05 16.2 3.35 32.45q4.85 60.1 18.3 116.65q3.95 -3.15 3.3 -8.75q-7.25 -59.05 -18.45 -116.75q-1 1.2 -1.65 2.65q-0.9 -0.15 -1.05 0.45q-14.75 49.2 -23.5 100.95q-2.45 14.75 -7.45 28.8q-1.2 3.45 -1.9 6.65q-13.75 -42.2 -16.9 -86.4q-1.75 -24.8 -7.6 -48.1q0.5 -6.8 -0.6 -13.35q-1.45 -0.15 -1.85 1.15q-1.2 0.1 -1.15 1.55q-13.45 47.1 -23.75 95.3q-4.7 21.95 -12.6 43.05q-6.45 17.05 1.35 28.85q3.55 -7.05 5.7 -14.85q15.7 -57.4 26.65 -115.45q1.4 -7.25 3.55 -14.05q0.65 11.85 1.75 23.75q5.65 60 24.55 115.1q1.45 -2.05 2.3 -4.3q0.95 2.6 2.45 5.05q10.4 -34.95 16.45 -71.2q4.9 -29.3 11.55 -58.15q1.9 -8.25 2.6 -15.75q-0.2 -3.7 -0.75 -7.35q-7.3 7.65 -9.2 20q-9.1 58.5 -25.6 115.4q-4.7 16.15 1.3 29.35q9.4 -34.9 17.45 -70.8q12.2 1.85 25.45 0.4q5.35 28.3 11.85 55.9q1.2 10.65 6.85 18.15q2.9 -2.15 2.65 -5.75q-1.5 -21.7 -6.8 -43.1q-3.75 -15.15 -7 -30.4q1.05 -5 -2 -9.5q-7.7 -37.8 -12.35 -76q-0.7 2 -1.25 4.1<g id="625" transform="matrix(1, 0, 0, 1, -68.95, 0)">
<path style="fill:#000000;fill-opacity:1" d="M329.05,207.55Q329.45 185.85 336.45 166.25Q351.8 238.7 377.95 307Q378.5 292.3 377.8 277.65Q375.35 224.5 388.45 175.75Q390.45 210.95 388.45 246.25L387.15 268.4L386.45 279.35Q385.55 293.9 385.65 308.35Q385.75 324.4 380.95 339.5L377.85 332.9Q373.1 322.75 369.3 312.25Q347.65 252.7 337 190.55L331.8 331.65Q323 313.55 325.65 291.4Q327.6 274.85 328.2 258.15L328.7 235.85L329.05 207.55M171.7,193.65Q165.05 222.5 160.15 251.8Q154.1 288.05 143.7 323Q142.2 320.55 141.25 317.95Q140.4 320.2 138.95 322.25Q120.05 267.15 114.4 207.15Q113.3 195.25 112.65 183.4Q110.5 190.2 109.1 197.45Q98.15 255.5 82.45 312.9Q80.3 320.7 76.75 327.75Q68.95 315.95 75.4 298.9Q83.3 277.8 88 255.85Q98.3 207.65 111.75 160.55L111.7 158.25Q111.65 156.8 112.85 156.7L113.6 154.15Q114 152.85 115.45 153Q116.55 159.55 116.05 166.35Q121.9 189.65 123.65 214.45Q126.8 258.65 140.55 300.85Q141.25 297.65 142.45 294.2Q147.45 280.15 149.9 265.4Q158.65 213.65 173.4 164.45Q173.55 163.85 174.45 164L174.55 165.65Q175.2 164.2 176.2 163Q187.4 220.7 194.65 279.75L199.25 318.25Q199.9 323.85 195.95 327Q182.5 270.45 177.65 210.35Q176.35 194.1 174.3 177.9Q173.6 185.4 171.7 193.65M267.45,168.5Q272.1 206.7 279.8 244.5Q282.85 249 281.8 254Q285.05 269.25 288.8 284.4Q294.1 305.8 295.6 327.5Q295.85 331.1 292.95 333.25Q287.3 325.75 286.1 315.1L286.7 315.5Q280.2 287.9 274.85 259.6Q261.6 261.05 249.4 259.2Q241.35 295.1 231.95 330Q225.95 316.8 230.65 300.65Q247.15 243.75 256.25 185.25Q258.15 172.9 265.45 165.25Q266 168.9 266.2 172.6Q266.75 170.5 267.45 168.5M272.15,244.85L264.2 192.55L251.9 247.75L272.15 244.85" />
</g>
</svg>
