<?xml version="1.0" encoding="utf-8"?>
<svg version="1.1" id="Layer_1"
xmlns="http://www.w3.org/2000/svg"
xmlns:xlink="http://www.w3.org/1999/xlink"


xml:space="preserve">
q-11.1 49.3 -13.2 101.15q-24.65 2.7 -46.65 14.3q2.65 -60.1 4.45 -118.45q-8.6 15.8 -8.7 37q-0.05 20.05 -0.95 40.4q-1.95 44.6 -2.35 89.35q-0.4 44.8 -7.45 88.3q-2.3 14.1 5.2 21.65q5.5 -19.1 5.95 -39.7q1 -48.05 2.9 -95.85q21.95 -5.2 44.15 -8.6q-2.9 43.35 -8.9 86.25q-4.25 30.25 -2.55 59.45q10.9 -49.3 14.25 -101q1.45 -22.8 3.05 -45.5q3.05 -7.15 -0.7 -13.1q2.45 -30.45 2.5 -59.3q-11.25 6.1 -20.45 16.15q-14 3.4 -19.6 -8.15q-16.85 -34.65 -0.4 -69.3q3.75 -7.95 9 -15q13.4 -5.85 28 -6q2.7 -7.95 -4.85 -9.5q-17.4 -3.3 -30.2 10.2q-9.5 10 -12.6 23.7q-6.15 27.15 -2.8 54.5q4.6 37.45 33.6 29.6q11.6 -3.15 18.9 -13.1q7.15 -9.7 9.95 -21.9q1.65 59.4 0.35 119.25q-1.3 59.7 -4.35 119.2q-0.75 13.95 5.9 21.5q2.35 -3.3 2.25 -7.5q-0.25 -11.65 0.15 -23.2q2.05 -59.4 3.05 -119.25q1.05 -60.1 -4.2 -118.5q-3.3 2.95 -3.15 8.5q0 2.7 0.7 5.2q33.05 23.6 64.8 1.95q21.9 -14.95 6.95 -35.55q-10.85 -14.9 -27.85 -23q-26.35 -12.55 -16.4 -36.9q22.55 -12.3 41.25 3.25q1 -1.75 0.75 -3.65q-2.95 -21.45 -28.5 -18.35q-23.1 5.6 -23.2 30.25q-0.1 20.75 17.95 31.35q21.65 12.75 36.25 31.15q-30.8 31.5 -70.5 6.75q-2.6 2.3 -2.65 6q-5.7 29 -12.95 58.25q-7.45 30.1 -13.2 60.3q-11.3 59.3 -25.8 118.05q-2.3 -10.4 -2.9 -21.2q-4.1 -59.3 -3.45 -119.35q0.15 -16.5 -4.9 -29.25q-5.6 23.3 -10.05 47.85q-10.65 59.45 -18.75 119.3q-4.05 30.25 -12.1 59.65q-4.65 16.9 0.9 29.65q12.75 -47.7 19.2 -97.45q7.75 -59.5 19.3 -118.25q0.7 35.7 3.05 71.2q3.95 59.35 5.9 119.3q0.55 16.55 6.5 29.2q16.3 -49.1 25.1 -100.3q10.25 -59.8 26.15 -118.65q0.35 16.95 8.05 29.2q3.1 -16.95 -0.45 -29.15q-2.25 -59.6 -2.85 -119.2q-0.4 -37.55 -5.65 -73.5q-0.75 0.1 -0.8 0.4q-6.45 46.45 -14.65 92.5q-13.45 -49.05 -23.55 -98.2q-8 20.55 -8.65 45.5q-0.7 23.75 -5.8 46.9q-3.75 16.95 2.7 28.55q1.4 -1.2 1.65 -2.95q6.6 -43.1 9.6 -86.75q8.85 34 15.05 68.5q2.5 13.75 9.7 21.95q11.75 -43.5 19.15 -88.9q2.65 -16.35 -3.4 -28.8q-1.4 0.7 -1.6 2.25<g id="650" transform="matrix(1, 0, 0, 1, -45.95, 0)">
<path style="fill:#000000;fill-opacity:1" d="M411.2,90.25Q411.15 119.1 408.7 149.55L404.2 208.35Q407.95 214.3 404.9 221.45L404.45 222.25L403.2 222.45Q401.6 245.15 400.15 267.95Q396.8 319.65 385.9 368.95L384.45 369.2Q382.75 340 387 309.75Q393 266.85 395.9 223.5Q373.7 226.9 351.75 232.1L349.8 231.9Q347.9 279.7 346.9 327.75Q346.45 348.35 340.95 367.45Q333.45 359.9 335.75 345.8Q342.8 302.3 343.2 257.5Q343.6 212.75 345.55 168.15Q346.45 147.8 346.5 127.75Q346.6 106.55 355.2 90.75Q353.4 149.1 350.75 209.2L350.2 222.1Q372.2 210.5 396.85 207.8L397.6 191.45Q399.7 139.6 410.8 90.3L411.2 90.25M332.95,317.25Q330.15 329.45 323 339.15Q315.7 349.1 304.1 352.25Q275.1 360.1 270.5 322.65Q267.15 295.3 273.3 268.15Q276.4 254.45 285.9 244.45Q298.7 230.95 316.1 234.25Q323.65 235.8 320.95 243.75Q306.35 243.9 292.95 249.75Q287.7 256.8 283.95 264.75Q267.5 299.4 284.35 334.05Q289.95 345.6 303.95 342.2L308.5 337.9Q317.7 327.85 328.95 321.75L332.95 317.25M188.2,84Q193.45 142.4 192.4 202.5Q191.4 262.35 189.35 321.75Q188.95 333.3 189.2 344.95Q189.3 349.15 186.95 352.45Q180.3 344.9 181.05 330.95Q184.1 271.45 185.4 211.75Q186.7 151.9 185.05 92.5Q184.9 86.95 188.2 84M225.45,189Q265.15 213.75 295.95 182.25Q281.35 163.85 259.7 151.1Q241.65 140.5 241.75 119.75Q241.85 95.1 264.95 89.5Q290.5 86.4 293.45 107.85Q293.7 109.75 292.7 111.5Q274 95.95 251.45 108.25Q241.5 132.6 267.85 145.15Q284.85 153.25 295.7 168.15Q310.65 188.75 288.75 203.7Q257 225.35 223.95 201.75L223.5 200.2Q222.8 197.7 222.8 195Q222.85 191.3 225.45 189M159.45,85.5Q164.7 121.45 165.1 159Q165.7 218.6 167.95 278.2L169.45 321.5Q173 333.7 169.9 350.65L169.45 351.45Q161.75 339.2 161.4 322.25L158.75 203L156.7 130.5Q140.8 189.35 130.55 249.15Q121.75 300.35 105.45 349.45Q99.5 336.8 98.95 320.25Q97 260.3 93.05 200.95Q90.7 165.45 90 129.75Q78.45 188.5 70.7 248Q64.25 297.75 51.5 345.45Q45.95 332.7 50.6 315.8Q58.65 286.4 62.7 256.15Q70.8 196.3 81.45 136.85Q85.9 112.3 91.5 89Q96.55 101.75 96.4 118.25Q95.75 178.3 99.85 237.6L103.8 301.3Q104.4 312.1 106.7 322.5Q121.2 263.75 132.5 204.45Q138.25 174.25 145.7 144.15Q152.95 114.9 158.65 85.9Q158.7 85.6 159.45 85.5M257.45,234.25Q263.5 246.7 260.85 263.05Q253.45 308.45 241.7 351.95Q234.5 343.75 232 330Q225.8 295.5 216.95 261.5Q213.95 305.15 207.35 348.25Q207.1 350 205.7 351.2Q199.25 339.6 203 322.65Q208.1 299.5 208.8 275.75Q209.45 250.8 217.45 230.25Q227.55 279.4 241 328.45L241.2 329Q249.4 282.95 255.85 236.5Q256.05 234.95 257.45 234.25" />
</g>
</svg>
