<?xml version="1.0" encoding="utf-8"?>
<svg version="1.1" id="Layer_1"
xmlns="http://www.w3.org/2000/svg"
xmlns:xlink="http://www.w3.org/1999/xlink"


xml:space="preserve">
q-3.2 10 3 16.25q9.65 -10.3 5.75 -23q-2.35 -0.15 -4.25 1.5q-2.2 3.2 -5.25 5.5q-3.25 25 17.2 34.15q23.55 -8.05 20 -30.75q-4.45 3.6 -7.5 8.25q-7.15 3.85 -14.25 7.25q-7.2 -8.05 -5.75 -19.5q3.65 -29.65 1.75 -57.75q-4.8 16.9 -6.15 36.35q-0.85 11.55 -2.3 23q-5.3 1.95 -6.3 8q-9.65 57.75 -22.2 115.35q-4 18.2 -12.4 34.9q-8 15.9 -1.6 29.7q9.7 -20.4 14.95 -43.35q1.8 20.05 7.05 40.45q7.65 29.65 17.2 56.1q12.75 -36.2 22.95 -73.7q3.3 -12.15 7.7 -23.8q1.65 -4.35 2.15 -8.25q0.05 15.05 3.6 29.85q13.75 57.1 22 115.35q2.35 16.55 9.85 28.05q1.15 -0.85 1.1 -2.2q-2.35 -33.8 -9.25 -67.65q-11.75 -57.95 -25.1 -114.6q-1.85 -0.1 -1.95 1.75q-0.4 -4.1 -2.35 -7.55q-9.05 20.95 -15 44.1q-6.15 23.8 -15.2 46.2q-1.7 4.2 -2.55 8.2q-9 -46.85 -22.05 -92.7q-0.15 -3.85 -0.65 -7.55<g id="636" transform="matrix(1, 0, 0, 1, -135.6, 0)">
<path style="fill:#000000;fill-opacity:1" d="M346.2,241Q348.1 239.35 350.45 239.5Q354.35 252.2 344.7 262.5L343.95 262.75Q337.75 256.5 340.95 246.5Q344 244.2 346.2 241M335.05,314.3Q336.4 294.85 341.2 277.95Q343.1 306.05 339.45 335.7Q338 347.15 345.2 355.2L348.2 356.2Q355.3 352.8 362.45 348.95Q365.5 344.3 369.95 340.7Q373.5 363.4 349.95 371.45Q329.5 362.3 332.75 337.3Q334.2 325.85 335.05 314.3M185.15,188.8Q198.2 234.65 207.2 281.5Q208.05 277.5 209.75 273.3Q218.8 250.9 224.95 227.1Q230.9 203.95 239.95 183Q241.9 186.45 242.3 190.55L242.5 186.5Q242.6 184.65 244.45 184.75Q257.8 241.4 269.55 299.35Q276.45 333.2 278.8 367Q278.85 368.35 277.7 369.2Q270.2 357.7 267.85 341.15Q259.6 282.9 245.85 225.8Q242.3 211 242.25 195.95Q241.75 199.85 240.1 204.2Q235.7 215.85 232.4 228Q222.2 265.5 209.45 301.7L209 300.75L208.45 301.2Q198.9 274.75 191.25 245.1Q186 224.7 184.2 204.65L183 210.8L156.95 325.85Q151.7 348.8 142 369.2Q135.6 355.4 143.6 339.5Q152 322.8 156 304.6Q168.55 247 178.2 189.25Q179.2 183.2 184.5 181.25Q185 184.95 185.15 188.8" />
</g>
</svg>
