<?xml version="1.0" encoding="utf-8"?>
<svg version="1.1" id="Layer_1"
xmlns="http://www.w3.org/2000/svg"
xmlns:xlink="http://www.w3.org/1999/xlink"


xml:space="preserve">
q-5.85 20.35 -8.7 41.4q-2.65 19.35 -3.25 39q-0.65 21.85 -0.7 43.85q0 19.4 4.4 38.15q4.2 18 12.9 34.3q9.9 18.35 25.9 31.5q16.95 13.9 37 -2.1q12.05 -9.55 19 -23.4q-3.25 12.6 -0.4 25.15q1.1 4.75 3.5 7.25q8.15 -36.3 2.4 -73.15q-2.65 9.85 -9.5 17.95q-9.95 11.7 -25.15 14.75q-5.55 1.05 -11 -0.7q-4 -1.15 -7.15 -4q-5.9 -5.4 -10.5 -12.25q-3.4 -5.1 -6.05 -11q-12.9 -28.7 -15.2 -60.25q-2.2 -30.4 -0.15 -60.95q2.3 -34.55 10.35 -68.2q10.35 -43.25 50.95 -45.9q10.1 -0.35 19.75 3.95q5.65 6.8 13.8 9.95q2.4 -4.15 0.15 -8.45q-3.15 -6 -8.45 -10.6q-16.55 -14 -36.45 -10.05q-21.2 4.35 -32.25 23q-10.55 17.75 -16.35 37.8q-2.6 59.25 -3.55 118.55q-0.35 23.35 -2.65 46.2q-1.8 -15.25 -4.8 -30.45q-11.3 -57.85 -25.25 -115.4q-13.9 -57.5 -29.75 -114.1q-0.95 -0.15 -1 0.75q-0.4 5.5 -0.25 11.05q-0.5 0.1 -0.5 0.25q-3.65 49.05 -4.7 99q-1.25 59.8 -4.9 119.2q-1.9 30.8 -3.9 56.5q-4.3 16.2 2.25 29.5q7.1 -32.7 8.4 -67.45q1.8 -49.6 -0.15 -98.35q0.9 13.6 4.75 27.15q16.35 57.05 29.5 115.1q12.9 56.9 18.6 114.95q1.6 16.15 9.45 27.6q1.45 -0.7 1.4 -2.25q5.05 -25.45 4.95 -52.5q-0.2 -59.05 3.9 -118.35q4.1 -59.5 0.4 -117.85q-3.75 3.6 -3.95 9.95q-22.95 70.15 -32.8 145.4q-10.5 -90.25 -23.15 -180.25q-27.4 124.05 -57.05 247.7q-1.75 7.1 -3.35 14.25q-3.4 14.95 -2.75 29.65q24.95 -60.05 35.65 -129.5q2.75 -14.5 5.75 -28.9q4.55 -21.45 11.15 -42.6q10.95 89.35 17.8 178.95q1.5 4.9 4.7 6q11.55 -80.65 29.35 -162.55q15.4 133.25 21.4 267.2q0.1 1.95 0.5 3.9q1.35 3.35 3.25 6.4q0.95 1.5 2.35 2.8q-0.4 -92.5 -11.85 -186.65q-0.9 -7.25 -1.5 -14.5q-2.6 -22.7 -7.45 -44.25q-0.8 18.8 -0.6 37.5q0.5 59.75 -0.95 119.25q-1.45 60 -7.6 119.1q-1.5 14.15 5.65 21.6q5.7 -31.05 6.15 -63.75q0.85 -59.5 3.85 -119.15q3 -59.9 -3.5 -118.55q-2.9 0.55 -3 4<g id="643" transform="matrix(1, 0, 0, 1, -50.1, 0)">
<path style="fill:#000000;fill-opacity:1" d="M401.75,155.45Q412.8 136.8 434 132.45Q453.9 128.5 470.45 142.5L471.9 143.7Q477.2 148.3 480.35 154.3Q482.6 158.6 480.2 162.75L477.5 161.95Q469.35 158.8 463.7 152Q454.05 147.7 443.95 148.05Q403.35 150.7 393 193.95Q384.95 227.6 382.65 262.15Q380.6 292.7 382.8 323.1Q385.1 354.65 398 383.35Q400.65 389.25 404.05 394.35Q408.65 401.2 414.55 406.6Q417.7 409.45 421.7 410.6Q427.15 412.35 432.7 411.3Q447.9 408.25 457.85 396.55Q464.7 388.45 467.35 378.6L462.3 370L447.45 366.95L444.4 362.7L444.7 357.95L477.45 355.2Q483.2 392.05 475.05 428.35Q472.65 425.85 471.55 421.1Q468.7 408.55 471.95 395.95Q465 409.8 452.95 419.35Q432.9 435.35 415.95 421.45Q399.95 408.3 390.05 389.95Q381.35 373.65 377.15 355.65Q372.75 336.9 372.75 317.5Q372.8 295.5 373.45 273.65Q374.05 254 376.7 234.65Q379.55 213.6 385.4 193.25Q391.2 173.2 401.75 155.45M366.2,127.25Q369.9 185.6 365.8 245.1Q361.7 304.4 361.9 363.45Q362 390.5 356.95 415.95L355.65 414.45L355.85 421.45Q355.9 423 354.45 423.7Q346.6 412.25 345 396.1Q339.3 338.05 326.4 281.15Q313.25 223.1 296.9 166.05Q293.05 152.5 292.15 138.9Q294.1 187.65 292.3 237.25L287.85 355.75Q286.55 390.5 279.45 423.2Q272.9 409.9 277.2 393.7Q279.2 368 281.1 337.2Q284.75 277.8 286 218Q287.05 168.05 290.7 119Q290.7 118.85 291.2 118.75L291.95 133.3Q291.8 127.75 292.2 122.25Q292.25 121.35 293.2 121.5Q309.05 178.1 322.95 235.6Q336.9 293.15 348.2 351Q351.2 366.2 353 381.45Q355.3 358.6 355.65 335.25Q356.6 275.95 359.2 216.7L362.25 137.2Q362.45 130.85 366.2 127.25M187.05,120.9Q191.9 142.45 194.5 165.15L197.8 194.15L199.3 208.7L200.6 223.3Q201.2 230.55 202.1 237.8Q213.55 331.95 213.95 424.45Q212.55 423.15 211.6 421.65Q209.7 418.6 208.35 415.25L207.15 411.7L206.3 408.05Q205.9 406.1 205.8 404.15Q199.8 270.2 184.4 136.95L182.95 147.1L181.3 157.3L179.4 167.55L177.3 177.8Q159.5 259.7 147.95 340.35Q144.75 339.25 143.25 334.35L141.05 327.25L140.05 323.65L139.3 319.75L138.85 315.85Q132 226.25 121.05 136.9Q114.45 158.05 109.9 179.5L97.75 237.15Q94.75 251.55 92 266.05L89.3 280.6L86.8 295.1Q76.1 364.55 51.15 424.6L50.75 424.05Q50.1 409.35 53.5 394.4Q55.1 387.25 56.85 380.15L58.75 373L60.95 365.85L63.9 355.2Q93.55 231.55 120.95 107.5L122 109.4L122 109.35L122.75 112.75Q135.4 202.75 145.9 293L147.5 285.85L149.2 278.65L150.85 271.5L152.15 264.2Q162 188.95 184.95 118.8L187.05 120.9M250.45,119.75Q256.95 178.4 253.95 238.3Q250.95 297.95 250.1 357.45Q249.65 390.15 243.95 421.2Q236.8 413.75 238.3 399.6Q244.45 340.5 245.9 280.5Q247.35 221 246.85 161.25Q246.65 142.55 247.45 123.75Q247.55 120.3 250.45 119.75" />
</g>
</svg>
