<?xml version="1.0" encoding="utf-8"?>
<svg version="1.1" id="Layer_1"
xmlns="http://www.w3.org/2000/svg"
xmlns:xlink="http://www.w3.org/1999/xlink"


xml:space="preserve">
q-44.05 -1.5 -86.75 -1.5q0.7 -48.5 0.7 -97.5q0.05 -59.85 -2.2 -118.5q-4.75 37.85 -4.95 78.75q-0.25 59.2 1.95 118.5q-1.85 16.05 -0.45 31.45q46.9 1.3 94 2.25q4 -8 -2 -14.2q-9.9 41.4 -17.05 85q-9.6 58.2 -18.35 116.3q-4.05 -28.35 -8.55 -56.6q-6.95 -43.7 -13.1 -87.4q-8.1 -57.15 -15.4 -114.05q-11.25 31.75 -17.55 67.15q-10.3 57.7 -26.05 114.6q-16.1 58.1 -35.85 114.9q-5.7 16.25 0.75 28.8q8.6 -33.2 18.75 -66.7q17.1 -56.55 31.4 -114.35q14.15 -57.25 26.6 -114.85q0.5 19.15 2 38.35q4.55 59 15.7 117.05q11.1 57.9 16.05 116.85q1.35 16.65 8.05 28.2q1.05 -0.85 1 -2.2q5.9 -30.6 8.65 -62.2q2.6 -29.4 6.8 -58.85q8.35 -58.3 22.05 -115.65q4.35 -18.25 5.55 -36.45q1.5 13.7 2.65 27.5q4.95 58.45 9.5 116.85q4.6 59.15 11.8 117.95q2 16.25 9.6 28.3q0.65 -0.75 0.6 -1.45q-2.75 -38.9 -8.5 -78.2q-8.5 -58.35 -11.35 -117.6q-2.9 -59.55 -14 -116.95q-2.15 3.95 -1.8 9.6q1.05 59.95 -7 118.4q-2.25 16.5 3.1 29.85q5.05 -24.85 6.55 -52.25q3.35 -59.75 2.95 -118.5q-5.85 9.3 -5.6 22.5q-0.6 59.5 -2.9 119.15q-0.9 23.3 1.8 44.3q49.7 -4.9 99 1q4.7 -6.75 0.75 -14.25q-47.85 -6.35 -94.25 -3.75q-0.1 -28.2 0.55 -56.25q1.35 -59.6 1.2 -119.2q-0.15 -59.85 -1.5 -118.5q-3.85 12.8 -3.9 28.25<g id="654" transform="matrix(1, 0, 0, 1, -32.05, 0)">
<path style="fill:#000000;fill-opacity:1" d="M417.45,348.2Q370.35 347.25 323.45 345.95Q322.05 330.55 323.9 314.5L324.2 313.75Q322 254.45 322.25 195.25Q322.45 154.35 327.2 116.5Q329.45 175.15 329.4 235Q329.4 284 328.7 332.5Q371.4 332.5 415.45 334Q421.45 340.2 417.45 348.2M202.2,105.5Q213.3 162.9 216.2 222.45Q219.05 281.7 227.55 340.05Q233.3 379.35 236.05 418.25Q236.1 418.95 235.45 419.7Q227.85 407.65 225.85 391.4Q218.65 332.6 214.05 273.45Q209.5 215.05 204.55 156.6Q203.4 142.8 201.9 129.1Q200.7 147.3 196.35 165.55Q182.65 222.9 174.3 281.2Q170.1 310.65 167.5 340.05Q164.75 371.65 158.85 402.25L159.7 417.25Q159.75 418.6 158.7 419.45Q152 407.9 150.65 391.25Q145.7 332.3 134.6 274.4Q123.45 216.35 118.9 157.35Q117.4 138.15 116.9 119L115.25 128.55Q102.8 186.15 88.65 243.4Q74.35 301.2 57.25 357.75Q47.1 391.25 38.5 424.45Q32.05 411.9 37.75 395.65Q57.5 338.85 73.6 280.75Q89.35 223.85 99.65 166.15Q105.95 130.75 117.2 99L117.55 104.3Q124.85 161.2 132.95 218.35Q139.1 262.05 146.05 305.75Q150.55 334 154.6 362.35L156.05 373.3L165 316.4Q173.75 258.3 183.35 200.1Q190.5 156.5 200.4 115.1Q200.05 109.45 202.2 105.5M257.45,153.25Q257.85 212 254.5 271.75Q253 299.15 247.95 324Q242.6 310.65 244.85 294.15Q252.9 235.7 251.85 175.75Q251.6 162.55 257.45 153.25M286.2,109.5Q287.55 168.15 287.7 228Q287.85 287.6 286.5 347.2Q285.85 375.25 285.95 403.45Q332.35 400.85 380.2 407.2Q384.15 414.7 379.45 421.45Q330.15 415.55 280.45 420.45Q277.75 399.45 278.65 376.15Q280.95 316.5 281.55 257L282.3 137.75Q282.35 122.3 286.2 109.5" />
</g>
</svg>
