<?xml version="1.0" encoding="utf-8"?>
<svg version="1.1" id="Layer_1"
xmlns="http://www.w3.org/2000/svg"
xmlns:xlink="http://www.w3.org/1999/xlink"


xml:space="preserve">
q-9.3 27.3 -7.9 59.8q2 45.3 2.6 90.7q0.4 -35.15 0.95 -70.35q0.5 -30.45 -4.05 -59.25q-1.25 -0.25 -1.5 0.85q-2 8.35 -2.2 17.15q-0.75 29.9 -0.4 60q0.65 59.7 -0.8 119.25q-0.55 22.65 -3.8 44.8q-3.35 23.4 1.7 44.4q8 -52.75 8.5 -107.1q22.25 2.25 44.9 0.2q0.15 59.4 -4.9 118.45q-1.05 0.1 -0.95 -1.9q-1.95 11.75 6 17.5q5.9 -44.35 5.5 -90q-0.55 -59.65 -0.25 -119.2q0.15 -30 1.4 -59.95q1 -22.95 -1.4 -44.3q1.35 -1.4 1.85 -3.2q0.15 -2.05 -0.05 -4q-0.25 -3.05 -2.05 -5.55q-4.95 70.4 -6.3 141.15q6.7 -21.65 8.2 -45.4q7.6 -118.85 8.55 -237.85q-21.8 47.15 -35.45 98.25q-3.6 13.4 -6.9 26.85q-15.65 -56.95 -42.35 -109.7q-4.15 2.35 -1.85 7.95q22.7 54.95 36.8 112.05q3.55 14.4 11.15 23.4q-9.3 38.55 -16.5 77.45q-5.35 28.7 -12.85 56.7q-4.4 16.4 3.25 28.15q8.35 -32.9 14.35 -67.35q10.15 -58.3 25.85 -115.5q15.65 -56.8 32.8 -113.35q0 36.35 2.85 73.1q4.45 58.85 14 116.9q4.8 29.4 4.65 59.35q-0.05 17.55 8.9 28.25q4.05 -7.25 2.7 -15.85q-8.9 -58.25 -14.75 -117.1q-2.9 -29.55 -3.15 -59.35q-0.15 -25.15 -4.8 -48.65q1.25 -6.6 0.55 -12.85q-5.05 2 -6.6 7.7q-15.95 57.45 -26.6 115.65q-2.65 14.6 -7.6 28.55q-1.6 4.55 -2.25 8.65q-5.75 -25.9 -8.15 -52.2q-4.95 -54.3 -19.75 -106q-1.25 -0.3 -1.65 0.75q-1.25 -0.3 -1.2 0.75q-2.35 6.25 -4.4 12.85q-15.7 49.9 -25.05 101.05q-5.3 29.15 -11.6 58.05q-12.5 57.35 -23.65 114.3q0.65 2.4 3.25 2.75q6.1 -17.85 10.85 -37.15q10.65 -42.95 16.95 -86.55q8.5 -58.45 27.8 -114.7q5.1 -14.8 7.55 -29.55q0.8 6.35 1.9 12.8q10.05 58.25 19.25 116.65q2.55 16.3 8.65 29.05q1.35 -1.1 2.1 -2.45q3.6 -8.6 5.35 -17.95q10.75 -57.8 22.65 -115.75q2.2 -10.8 6.8 -20.85<g id="642" transform="matrix(1, 0, 0, 1, -69.75, 0)">
<path style="fill:#000000;fill-opacity:1" d="M487.85,163.05Q486.6 193 486.45 223Q486.15 282.55 486.7 342.2Q487.1 387.85 481.2 432.2Q473.25 426.45 475.2 414.7Q475.1 416.7 476.15 416.6L476.45 416.2Q481.5 357.15 481.35 297.75L481.3 284.8Q458.65 286.85 436.4 284.6L436.05 319.5Q435.55 373.85 427.55 426.6L426.45 427.45Q421.4 406.45 424.75 383.05Q428 360.9 428.55 338.25Q430 278.7 429.35 219Q429 188.9 429.75 159Q429.95 150.2 431.95 141.85Q432.2 140.75 433.45 141Q438 169.8 437.5 200.25Q436.95 235.45 436.55 270.6L479.95 268.75L481.15 269.25Q480.55 223.85 478.55 178.55Q477.15 146.05 486.45 118.75Q488.85 140.1 487.85 163.05M389.2,137.5Q388.25 256.5 380.65 375.35Q379.15 399.1 372.45 420.75L369.7 418.95Q371.05 348.2 376 277.8L386 131.2L350.05 132.2L350.45 121L391.95 115.25L425.9 116.4Q427.7 118.9 427.95 121.95Q428.15 123.9 428 125.95L427.55 128.55Q427.05 130.35 425.7 131.75L388.95 131.15L389.2 137.5M337.1,124.4L337.45 125Q320.3 181.55 304.65 238.35Q288.95 295.55 278.8 353.85Q272.8 388.3 264.45 421.2Q256.8 409.45 261.2 393.05Q268.7 365.05 274.05 336.35Q281.25 297.45 290.55 258.9Q282.95 249.9 279.4 235.5Q265.3 178.4 242.6 123.45Q240.3 117.85 244.45 115.5Q271.15 168.25 286.8 225.2L293.1 248.35Q296.4 234.9 300 221.5Q313.65 170.4 335.45 123.25L337.1 124.4M204.5,140.95Q199.9 151 197.7 161.8Q185.8 219.75 175.05 277.55Q173.3 286.9 169.7 295.5L168.05 292.55Q167.3 293.9 165.95 295Q159.85 282.25 157.3 265.95Q148.1 207.55 138.05 149.3Q136.95 142.85 136.15 136.5Q133.7 151.25 128.6 166.05Q109.3 222.3 100.8 280.75Q94.5 324.35 83.85 367.3Q79.1 386.6 73 404.45Q70.4 404.1 69.75 401.7Q80.9 344.75 93.4 287.4Q99.7 258.5 105 229.35Q114.35 178.2 130.05 128.3Q132.1 121.7 134.45 115.45L134.25 109.25Q134.2 108.2 135.45 108.5L136.2 110.85L136.8 109.25Q137.2 108.2 138.45 108.5L138.25 117.85Q153.05 169.55 158 223.85Q160.4 250.15 166.15 276.05Q166.8 271.95 168.4 267.4Q173.35 253.45 176 238.85Q186.65 180.65 202.6 123.2Q204.15 117.5 209.2 115.5Q209.9 121.75 208.65 128.35Q213.3 151.85 213.45 177Q213.7 206.8 216.6 236.35Q222.45 295.2 231.35 353.45L238.65 400.35Q240 408.95 235.95 416.2Q227 405.5 227.05 387.95Q227.2 358 222.4 328.6Q212.85 270.55 208.4 211.7Q205.55 174.95 205.55 138.6L204.5 140.95" />
</g>
</svg>
