<?xml version="1.0" encoding="utf-8"?>
<svg version="1.1" id="Layer_1"
xmlns="http://www.w3.org/2000/svg"
xmlns:xlink="http://www.w3.org/1999/xlink"


xml:space="preserve">
q-13.3 -17.4 -34.35 -24.3q-11.85 -3.75 -23.7 -1.8q-8.95 102.75 -14.4 206.55q-2.4 45.8 -3.1 91.65q32.6 -5.15 61.1 -22.35q34 -20.7 47.85 -58q2.85 -29.1 -0.8 -58.05q-5.85 -46.3 -32.55 -84.25q-4.65 -6.6 -10 -12.5q8.35 64.2 -33.95 112.65q-6.6 7.55 -15.1 12.75q-28 17.1 -60 24.8q3.25 -29.45 4.65 -59.65q2.65 -59.2 5.65 -118.55q2.65 -53.05 1.3 -105.1q4.85 2.45 10.85 2.65q6 0.2 11.05 2.75q60.8 31.05 71.55 99.95q-13.15 50.05 -21.1 101.45q-4.55 29.5 -12.05 58.2q-8.5 -54.7 -18.15 -108.95q-4.45 -24.9 -12.75 -47.95q0.8 -0.2 1.4 -0.95q0.3 -1.25 1.1 -2.2q0.8 -1.05 0.65 -2.3q0.05 -1.2 -0.35 -2.3q-0.95 -2.75 -2.4 -5.2q-1.25 0.6 -1.85 2.2q-16.25 44 -26.3 90.55q-12.45 57.95 -23.25 116.15q-5.35 28.85 -11.9 57.4q-5.05 21.85 -1.15 41.65q1 -0.5 1.15 -1.2q8.6 -32.55 14.45 -66.45q10.05 -58.2 21.4 -116.1q10.35 -53.15 25.95 -103.5q5.4 16.75 8.85 34.25q11.35 57.75 16.15 116.65q1.4 16.75 8.25 28.15q0.65 2.2 1.65 4.3q6.1 -16.45 9.05 -34.4q9.6 -58.25 21.05 -116.15q2 -10 3 -19.8q2.6 32.55 6.05 65.25q3.1 29.55 6.9 58.9q7.65 58.65 10.65 118q1.15 23.05 7.8 43.15q5.5 -24.45 0.85 -51.8q-4.35 -25.5 -7.5 -51.25q-5.35 -44.25 -8.45 -88.75q-4 -57.1 -15.35 -111.65q-0.8 -0.15 -0.95 0.4q-1.6 0.35 -1.5 1.95q0.2 59.4 -1.8 118.5q-0.5 15.1 -2.75 29.75q-2.7 17.4 4.1 30q5.3 -15.75 4.85 -34q-0.4 -17.7 0.7 -35.15q3.8 -59.6 -1.05 -118.6q-4.05 2.9 -4.05 9.5<g id="645" transform="matrix(1, 0, 0, 1, -73.6, 0)">
<path style="fill:#000000;fill-opacity:1" d="M380.95,139Q407.65 176.95 413.5 223.25Q417.15 252.2 414.3 281.3L412.6 295.8L411.45 303L410.05 310.15L408.4 317.35L407.55 320.8L406.6 324.1L405.55 327.35L404.4 330.6Q390.55 367.9 356.55 388.6Q328.05 405.8 295.45 410.95L293.3 408.45L294.45 395.9Q295.15 350.05 297.55 304.25Q303 200.45 311.95 97.7L312.9 100.4Q324.75 98.45 336.6 102.2Q357.65 109.1 370.95 126.5Q376.3 132.4 380.95 139M406.05,216.5Q395.3 147.6 334.5 116.55Q329.45 114 323.45 113.8Q317.45 113.6 312.6 111.15Q313.95 163.2 311.3 216.25Q308.3 275.6 305.65 334.8Q304.25 365 301 394.45Q333 386.75 361 369.65Q369.5 364.45 376.1 356.9Q418.4 308.45 410.05 244.25L406.05 216.5M210.4,96.5L210.5 96.15Q210.65 95.6 211.45 95.75L211.5 101.5Q222.85 156.05 226.85 213.15Q229.95 257.65 235.3 301.9Q238.45 327.65 242.8 353.15Q247.45 380.5 241.95 404.95Q235.3 384.85 234.15 361.8Q231.15 302.45 223.5 243.8Q219.7 214.45 216.6 184.9Q213.15 152.2 210.55 119.65Q209.55 129.45 207.55 139.45Q196.1 197.35 186.5 255.6Q183.55 273.55 177.45 290Q176.45 287.9 175.8 285.7L173.7 291Q166.85 279.6 165.45 262.85Q160.65 203.95 149.3 146.2Q145.85 128.7 140.45 111.95Q124.85 162.3 114.5 215.45Q103.15 273.35 93.1 331.55Q87.25 365.45 78.65 398Q78.5 398.7 77.5 399.2Q73.6 379.4 78.65 357.55Q85.2 329 90.55 300.15Q101.35 241.95 113.8 184Q123.85 137.45 140.1 93.45Q140.7 91.85 141.95 91.25L144.4 91.95L145.2 92.5Q146.65 94.95 147.6 97.7Q148 98.8 147.95 100Q148.1 101.25 147.3 102.3Q146.5 103.25 146.2 104.5Q145.6 105.25 144.8 105.45Q153.1 128.5 157.55 153.4Q167.2 207.65 175.7 262.35L176 261Q183.5 232.3 188.05 202.8Q196 151.4 209.15 101.35L208.9 98.45Q208.8 96.85 210.4 96.5M273.45,142.75Q278.3 201.75 274.5 261.35Q273.4 278.8 273.8 296.5Q274.25 314.75 268.95 330.5Q262.15 317.9 264.85 300.5Q267.1 285.85 267.6 270.75Q269.6 211.65 269.4 152.25Q269.4 145.65 273.45 142.75" />
</g>
</svg>
