<?xml version="1.0" encoding="utf-8"?>
<svg version="1.1" id="Layer_1"
xmlns="http://www.w3.org/2000/svg"
xmlns:xlink="http://www.w3.org/1999/xlink"


xml:space="preserve">
q2.45 -55.75 0.75 -110.35q-3.5 9.35 -4.1 21.2q-3.15 59.05 -5.5 118.5q-0.6 15.05 -3.35 29.7q-2.6 14.15 4.7 21.8q1.05 -0.85 1.25 -2.25q3.3 -28.55 5.15 -57.45q0.95 3.7 4.3 7.15q12.35 35.05 23.7 70.3q4.3 13.4 12.3 21.7q2.35 -3.3 1.85 -7.45q-1.3 -11 -4.95 -21.5q-13.9 -40.2 -32.45 -77.35q9.25 -14.6 2.6 -26q-22.4 43.7 -51.35 84.85q-6.4 9.05 -13.75 17.1q-3.2 3.55 -5.4 7.15q-6.4 11.65 -9.3 26.8q-11.05 58.1 -21.65 116.35q-1.35 7.5 -3.8 14.55q-5.8 17 1.25 29.25q11.7 -41.4 18.15 -84.85q4.4 -29.45 12.05 -58.25q2.25 -8.5 3.3 -16.85q3.8 15.35 6.8 30.7q5.9 30.25 16.25 56.65q0.9 -3.05 1.4 -6.15q11.85 -30.4 20.85 -61.9q3.05 -10.75 7.25 -21.05q1.55 -3.85 2.55 -7.55q0.65 40.15 4.95 80.65q3.1 29.45 2.5 59.25q-0.4 17.05 6.45 28.25q0.65 -0.75 0.7 -1.5q2.55 -33.3 0.1 -66.8q-4.1 -56.2 -13.05 -110.85q0.15 -5.4 -1 -10.55q-7.05 12 -10.8 26.95q-3.7 14.8 -9.65 28.55q-8.4 19.4 -11 39.4q-11.25 -43.45 -23.1 -85.95q-20.25 6.75 -26.25 29.75q-5.1 19.55 -3.45 39.95q2 24.1 25.05 30q23.85 6.25 32.45 -17.4q2.1 -5.75 -3.1 -9.4q-13.6 22.8 -34.25 8.25q-13.9 -9.75 -14.85 -27.3q20.95 0.8 40.9 -4.85q2.55 -4.5 1.15 -9.45q-0.45 -1.55 -1.5 -2.8q8.05 -31.9 41.35 -28.3q3.55 3.45 7.45 6.2q1.1 0.75 1.25 -0.45q0.3 -26.2 -26.9 -16.9<g id="671" transform="matrix(1, 0, 0, 1, -133.95, 0)">
<path style="fill:#000000;fill-opacity:1" d="M353.85,283.45Q361.2 275.4 367.6 266.35Q396.55 225.2 418.95 181.5Q425.6 192.9 416.35 207.5L400.95 231.5L379.4 264.15Q397.95 301.3 411.85 341.5Q415.5 352 416.8 363Q417.3 367.15 414.95 370.45Q406.95 362.15 402.65 348.75Q391.3 313.5 378.95 278.45Q375.6 275 374.65 271.3L347.35 311.75Q345.5 340.65 342.2 369.2Q342 370.6 340.95 371.45Q333.65 363.8 336.25 349.65Q339 335 339.6 319.95Q341.95 260.5 345.1 201.45Q345.7 189.6 349.2 180.25Q350.9 234.85 348.45 290.6Q350.65 287 353.85 283.45M175.5,183.25Q187.35 225.75 198.6 269.2L200 275.9Q202.6 255.9 211 236.5Q216.95 222.75 220.65 207.95Q224.4 193 231.45 181Q232.6 186.15 232.45 191.55Q241.4 246.2 245.5 302.4Q247.95 335.9 245.4 369.2Q245.35 369.95 244.7 370.7Q237.85 359.5 238.25 342.45Q238.85 312.65 235.75 283.2Q231.45 242.7 230.8 202.55Q229.8 206.25 228.25 210.1Q224.05 220.4 221 231.15Q212 262.65 200.15 293.05L199.9 293.3Q199.4 296.4 198.5 299.45Q188.15 273.05 182.25 242.8Q179.25 227.45 175.45 212.1L174.5 207.75Q173.45 216.1 171.2 224.6Q163.55 253.4 159.15 282.85Q152.7 326.3 141 367.7Q133.95 355.45 139.75 338.45Q142.2 331.4 143.55 323.9Q154.15 265.65 165.2 207.55Q168.1 192.4 174.5 180.75L174.8 183.3L175.5 183.25M319.65,285.95Q319.5 287.15 318.4 286.4Q314.5 283.65 310.95 280.2Q277.65 276.6 269.6 308.5L308.85 303.7Q309.9 304.95 310.35 306.5Q311.75 311.45 309.2 315.95Q289.25 321.6 268.3 320.8L268.35 322.9Q269.3 340.45 283.2 350.2Q303.85 364.75 317.45 341.95Q322.65 345.6 320.55 351.35Q311.95 375 288.1 368.75Q265.05 362.85 263.05 338.75Q261.4 318.35 266.5 298.8Q272.5 275.8 292.75 269.05Q319.95 259.75 319.65 285.95" />
</g>
</svg>
