<?xml version="1.0" encoding="utf-8"?>
<svg version="1.1" id="Layer_1"
xmlns="http://www.w3.org/2000/svg"
xmlns:xlink="http://www.w3.org/1999/xlink"


xml:space="preserve">
q-0.8 -0.15 -0.85 0.3q-3.8 52.3 -4.4 105.4q-1.4 25.9 -4.45 51.6q-2.1 17.3 3.7 30.15q3.3 -3.7 3.55 -8.95q1.35 -30.25 3.15 -60.7q0.95 -16.1 1.35 -32.1q16.9 -2.7 34.7 -3.2q3.15 -6.75 -1.05 -12.75q-17.7 -1.25 -33.75 5.25q0.35 -33.25 -1.7 -66.2q34.55 4.9 68.95 3.45q1.9 -3.55 1 -7.5q-0.35 -1.65 -1.25 -3q-0.35 -0.4 -0.8 -0.45q-24.8 -2.95 -47.25 3q-6.2 6 -7.95 15.6q-10.7 57.7 -23.65 115.2q-3.3 14.6 -8.75 28.65q-6.65 16.95 0.6 28.75q12.95 -42.8 22.05 -86.85q6.05 -29.05 13.3 -57.45q0.3 5.85 1.05 11.95q2.9 22.4 3.35 44.85q0.25 10 2.4 18.45q-0.55 7.85 0.45 15.55q5.65 -12.4 9.15 -26.8q4.25 -17.65 10.55 -34.75q5.85 -15.95 8.55 -31.95q1.9 51.7 7.4 103.15q1.6 15 1.8 29.95q0.2 17.45 8.2 29q3.3 -16.25 0.8 -33.95q-6.2 -43.95 -8.65 -88.35q-1.65 -30.2 -7.55 -58.75q-10.35 27.1 -19.1 56.45q-4 13.35 -9 26.4q-0.9 -41.2 -8.55 -81.65q-10.05 4.65 -15.45 14.7q-10.55 19.5 -10.25 41.75q0.35 23.65 16.95 38.2q11.95 10.4 27.15 2.55q16.9 -8.8 11.45 -26.55q-15.2 14.85 -37.8 9.7q-9.95 -2.25 -11.35 -13.35q-1.1 -8.95 0.65 -16.85q2.7 -4.1 1.8 -8.95q-0.5 -2.75 -2.2 -4.95q-18.25 0.65 -35.45 6.75q4.55 -32.3 34.2 -27.2q3.5 0.45 7 1.95q-4.3 -26.85 -28.95 -15.45<g id="660" transform="matrix(1, 0, 0, 1, -133.5, 0)">
<path style="fill:#000000;fill-opacity:1" d="M349.7,181.75Q372.15 175.8 396.95 178.75L417.4 180.3Q417.85 180.35 418.2 180.75L418.7 181.5Q419.6 182.85 419.95 184.5Q420.85 188.45 418.95 192Q384.55 193.45 350 188.55Q352.05 221.5 351.7 254.75Q367.75 248.25 385.45 249.5Q389.65 255.5 386.5 262.25L386.2 263Q368.4 263.5 351.5 266.2Q351.1 282.2 350.15 298.3Q348.35 328.75 347 359Q346.75 364.25 343.45 367.95Q337.65 355.1 339.75 337.8Q342.8 312.1 344.2 286.2Q344.8 233.1 348.6 180.8Q348.65 180.35 349.45 180.5L349.6 182.15L349.7 181.75M180.75,188.55Q188.4 229 189.3 270.2L191.35 264.35Q196.35 251.3 200.35 237.95Q209.1 208.6 219.45 181.5L219.3 188.15Q225.2 216.7 226.85 246.9Q229.3 291.3 235.5 335.25Q238 352.95 234.7 369.2Q226.7 357.65 226.5 340.2Q226.3 325.25 224.7 310.25Q219.2 258.8 217.3 207.1Q214.6 223.1 208.75 239.05Q202.45 256.15 198.2 273.8Q194.7 288.2 189.05 300.6L189 301.45L188.5 302.2L188.4 301.95L185.5 307.7Q184.5 300 185.05 292.15Q182.9 283.7 182.65 273.7Q182.2 251.25 179.3 228.85Q178.55 222.75 178.25 216.9L176.1 226.4Q168.85 254.8 162.8 283.85Q153.7 327.9 140.75 370.7Q133.5 358.9 140.15 341.95Q145.6 327.9 148.9 313.3Q161.85 255.8 172.55 198.1Q174.3 188.5 180.5 182.5L180.75 188.55M313.6,288.45L308.7 286.7L308.2 285.45Q304.7 283.95 301.2 283.5Q271.55 278.4 267 310.7Q284.2 304.6 302.45 303.95Q304.15 306.15 304.65 308.9Q305.55 313.75 302.85 317.85L266 323.15Q264.25 331.05 265.35 340Q266.75 351.1 276.7 353.35Q299.3 358.5 314.5 343.65Q319.95 361.4 303.05 370.2Q287.85 378.05 275.9 367.65Q259.3 353.1 258.95 329.45Q258.65 307.2 269.2 287.7Q274.6 277.65 284.65 273Q309.3 261.6 313.6 288.45" />
</g>
</svg>
