<?xml version="1.0" encoding="utf-8"?>
<svg version="1.1" id="Layer_1"
xmlns="http://www.w3.org/2000/svg"
xmlns:xlink="http://www.w3.org/1999/xlink"


xml:space="preserve">
q-2.4 4.4 -1.35 10.65q-3.1 26.55 -3.4 54.8q-0.55 51.6 -4.25 103.55q-4.25 58.95 -10.7 117.4q-4.7 10.1 3 15.75q10.4 -38.55 11.65 -80.2q1.85 -59.35 6.35 -118.55q3.3 -43.75 2.3 -87.05q12.9 57.45 23.65 115.1q10.85 58.15 25.05 115.55q3.6 14.6 5.05 29.45q1.35 13.75 9.35 20.05q2.7 -10.25 1.65 -20.9q5.95 -28.1 7.85 -57.75q4.1 -59.75 2.85 -117.85q-6.3 15.1 -7.15 33.9q-2.6 58.85 -5.6 117.85q-3.05 59.65 -10.55 118.45q-13.15 -51.05 -24.6 -102.75q-13.5 -57.65 -24.75 -115.15q-0.65 -0.25 0 -0.2q-16.85 20.45 -42.2 27.75q-13.7 3.95 -23.55 -8.75q-13.95 -17.95 -19.4 -40.45q-5.25 -21.85 -7 -44.4q-1.3 -16.7 -1.05 -33.4q0.2 -12.95 0.65 -25.85q26.7 -1.25 53.55 2.9q5.9 -10.35 -3.45 -11.9q-24.2 -4.1 -49.1 -4q0.75 -52.6 28.55 -96.05q20.6 -32.2 52.1 -13.65q6.4 3.75 13.65 4.85q-5.8 -23 -29.8 -25.9q-17.9 1.8 -29.65 15.35q-36.4 42.1 -40 100.35q-3.35 53.8 3.95 107.2q1.9 13.95 4.55 27.75q1.25 6.65 3.25 13.15q1.85 6.1 4.3 12.35q3.2 8.25 7.4 15.8q6.45 11.5 15.75 20.65q6.35 6.3 15.05 4.2q19.3 -4.3 35.25 -16.75q16.25 -12.65 23.35 -31.4q2.95 -7.8 -3.7 -13.2q-7.5 18.85 -11.85 40.2q-11.75 58.25 -22.35 116.6q-2.7 14.7 -8 28.55q-3.6 -39.9 -6.05 -80.2q-3.6 -59.4 -10.7 -117.7q-0.75 0.1 -0.85 0.45q-11.85 32.1 -20.2 66.15q-14.15 57.6 -27.55 115.5q-13.1 56.8 -29.2 112.45q-9.05 13.4 0.25 26q4.85 -13.05 8.6 -27q15.2 -57.05 28 -114.95q12.75 -57.6 28.7 -114.35q4.1 -14.6 9.25 -28.75q0.45 12.25 1.6 24.55q5.6 59.05 9.6 118.4q1 15.05 1.3 30.05q0.35 14.05 7.9 21.5q9.6 -21.4 13.45 -45.35q9.45 -58.45 23.55 -116q2.7 -11.05 4.25 -21.9q0.55 24.75 2.75 49.8q5.25 58.85 13.1 117.15q8.05 59.75 19.4 117.5q6.85 -9.85 4.4 -24.25q-10 -58.2 -18.35 -116.7q-4.15 -29.25 -6.45 -58.65q-4.45 -56.65 -12.75 -112q-0.6 0.1 -0.6 0.8<g id="662" transform="matrix(1, 0, 0, 1, -39.45, 0)">
<path style="fill:#000000;fill-opacity:1" d="M376.45,96L376.65 99.1L377.45 98.25Q388.7 155.75 402.2 213.4L415.3 270.55Q426.75 322.25 439.9 373.3L440.15 371.45Q447.65 312.65 450.7 253Q453.7 194 456.3 135.15Q457.15 116.35 463.45 101.25Q464.7 159.35 460.6 219.1L452.7 337.55Q450.8 367.2 444.85 395.3Q445.9 405.95 443.2 416.2Q435.2 409.9 433.85 396.15Q432.4 381.3 428.8 366.7Q414.6 309.3 403.75 251.15Q393 193.5 380.1 136.05L377.75 126.65Q378.75 169.95 375.45 213.7Q370.95 272.9 369.1 332.25Q367.85 373.9 357.45 412.45Q349.75 406.8 354.45 396.7L353.9 391.35L354.25 390.2L354.95 386.35L355 386.95L355.2 387.95Q361.65 329.5 365.9 270.55Q369.6 218.6 370.15 167Q370.45 138.75 373.55 112.2Q372.5 105.95 374.9 101.55L375.7 96.1L376.45 96M355.15,366.85L355.15 367.05Q354.5 366.8 355.15 366.85M330.95,360.7L339.45 348.95Q346.1 354.35 343.15 362.15Q336.05 380.9 319.8 393.55Q303.85 406 284.55 410.3Q275.85 412.4 269.5 406.1Q260.2 396.95 253.75 385.45Q249.55 377.9 246.35 369.65Q243.9 363.4 242.05 357.3Q240.05 350.8 238.8 344.15Q236.15 330.35 234.25 316.4Q226.95 263 230.3 209.2Q233.9 150.95 270.3 108.85Q282.05 95.3 299.95 93.5L303.15 93.85Q327.15 96.75 332.95 119.75Q325.7 118.65 319.3 114.9Q287.8 96.35 267.2 128.55Q239.4 172 238.65 224.6Q263.55 224.5 287.75 228.6Q297.1 230.15 291.2 240.5Q264.35 236.35 237.65 237.6Q237.2 250.5 237 263.45Q236.75 280.15 238.05 296.85Q239.8 319.4 245.05 341.25Q250.5 363.75 264.45 381.7Q274.3 394.4 288 390.45Q313.35 383.15 330.2 362.7L330.95 360.7M188.2,96Q188.2 95.3 188.8 95.2L190.2 91.75L190.3 100.85Q198.6 156.2 203.05 212.85Q205.35 242.25 209.5 271.5Q217.85 330 227.85 388.2Q230.3 402.6 223.45 412.45Q212.1 354.7 204.05 294.95Q196.2 236.65 190.95 177.8Q188.75 152.75 188.2 128Q186.65 138.85 183.95 149.9Q169.85 207.45 160.4 265.9Q156.55 289.85 146.95 311.25L146.15 309.8L145.95 310Q138.4 302.55 138.05 288.5Q137.75 273.5 136.75 258.45Q132.75 199.1 127.15 140.05Q126 127.75 125.55 115.5L123.3 122.65Q118.15 136.8 114.05 151.4Q98.1 208.15 85.35 265.75Q72.55 323.65 57.35 380.7Q53.6 394.65 48.75 407.7Q39.45 395.1 48.5 381.7Q64.6 326.05 77.7 269.25Q91.1 211.35 105.25 153.75Q113.6 119.7 125.45 87.6L125.45 87.5L125.5 87.45L125.6 87.2Q125.7 86.85 126.45 86.75L126.45 86.8L128.45 86.5Q135.55 144.8 139.15 204.2Q141.6 244.5 145.2 284.4L146 282.05Q151.3 268.2 154 253.5Q164.6 195.15 176.35 136.9Q180.7 115.55 188.2 96.7L188.2 96" />
</g>
</svg>
