<?xml version="1.0" encoding="utf-8"?>
<svg version="1.1" id="Layer_1"
xmlns="http://www.w3.org/2000/svg"
xmlns:xlink="http://www.w3.org/1999/xlink"


xml:space="preserve">
q-2.15 24.95 -2.8 50.25q-1.5 59.3 -4.55 118.45q-1.55 30 -4.65 59.85q-3.15 30.55 1.25 59.4q48.9 -1 96.75 -5.75q3.55 -6.75 0 -13.5q-1.25 -1.4 -3.25 -1.2q-45.2 4.65 -89.5 3.7q0.8 -18.45 2 -36.75q4 -59.05 6.1 -118.45q2.1 -59.95 0.65 -118.5q-1.8 0.4 -2 2.5q-17.55 -14.9 -40.5 -14.25q-27.7 11.8 -40.35 40.35q-17.1 38.45 -20 80.3q-4.1 59.55 0.95 118.7q1.6 19.1 9.55 36q4.8 10.2 15.9 14q36.55 12.5 54.45 -21.5q14.35 -27.35 10 -55.6q-1.1 0.5 -1.25 1.15q-4.3 22.7 -14.3 43.3q-14.25 29.25 -46.6 19.05q-8.45 -2.65 -12.45 -10.05q-7.65 -14 -9.25 -30.6q-4.35 -44.45 -2.9 -88.95q24.4 2.4 47.75 0.1q1.05 -0.9 1.5 -2.2q1.8 -5.65 -1.25 -10.55q-21.65 3.55 -43.85 3.75q0.45 -9.6 1.15 -19.15q3 -39.85 21.8 -74.7q17.95 -33.2 53.4 -26.4q8.6 2.85 15.7 8.9q3.55 3.05 7.3 3.35q1.9 -3.05 0.95 -6.5q-0.75 -2.9 -2.5 -5.4q-0.3 54.3 -1.85 108.75q-1.7 59.85 2.45 118.45q27.25 1.6 52.3 -7.1q3.1 -5.95 0 -11.95q-27.45 3.85 -54.5 4.75q-0.6 -52.5 0.8 -104.25q1.65 -59.75 -1.3 -118.5q-3.3 4.2 -3.35 11.25q-9 30.85 -15.35 64.3q-6.8 -58.8 -12.9 -117.65q-5.95 -57.1 -13.5 -113.65q-2.2 1.4 -1.95 4.8q-12.25 42.5 -20.2 88.3q-10.15 58.35 -22.9 116.3q-6.4 28.85 -15.25 57.05q-5.2 16.55 0.45 29q9.8 -31.5 17.05 -65.1q12.45 -57.95 21.9 -116.35q4.75 -29.45 13.6 -58q5.05 -16.35 6.8 -32.5q3.9 48.6 8.9 97.2q1.55 15.05 1.75 30.05q0.25 17.25 8.2 28.25q1.05 -0.85 1 -2.2q7.35 -50.6 16.15 -101.3q10.05 -58.3 23.7 -115.9q3.95 -16.8 6.15 -33.35q2.4 48.75 9.35 96.8q8.55 58.95 22.3 117.05q3.5 14.9 4.75 30.1q1.45 17.55 10.35 28.85q0.65 -0.75 0.65 -1.5q0.8 -18 -2.9 -36.3q-8.75 -43.15 -20.5 -85.65q-7.85 -28.35 -10.9 -57.85q-6.05 -59.1 -10.85 -117.9q-3.15 2.7 -3 7.75<g id="672" transform="matrix(1, 0, 0, 1, -62.85, 0)">
<path style="fill:#000000;fill-opacity:1" d="M379.2,112Q380.65 170.55 378.55 230.5Q376.45 289.9 372.45 348.95Q371.25 367.25 370.45 385.7Q414.75 386.65 459.95 382Q461.95 381.8 463.2 383.2Q466.75 389.95 463.2 396.7Q415.35 401.45 366.45 402.45Q362.05 373.6 365.2 343.05Q368.3 313.2 369.85 283.2Q372.9 224.05 374.4 164.75Q375.05 139.45 377.2 114.5Q377.4 112.4 379.2 112M355.2,122.25L355.9 123.6Q357.65 126.1 358.4 129Q359.35 132.45 357.45 135.5Q353.7 135.2 350.15 132.15Q343.05 126.1 334.45 123.25Q299 116.45 281.05 149.65Q262.25 184.5 259.25 224.35Q258.55 233.9 258.1 243.5Q280.3 243.3 301.95 239.75L304.4 240.2L305.7 240.75Q308.75 245.65 306.95 251.3Q306.5 252.6 305.45 253.5Q282.1 255.8 257.7 253.4Q256.25 297.9 260.6 342.35Q262.2 358.95 269.85 372.95Q273.85 380.35 282.3 383Q314.65 393.2 328.9 363.95Q338.9 343.35 343.2 320.65Q343.35 320 344.45 319.5Q348.8 347.75 334.45 375.1Q316.55 409.1 280 396.6Q268.9 392.8 264.1 382.6Q256.15 365.7 254.55 346.6Q249.5 287.45 253.6 227.9Q256.5 186.05 273.6 147.6Q286.25 119.05 313.95 107.25Q336.9 106.6 354.45 121.5L355.2 122.25M424.2,114Q427.15 172.75 425.5 232.5Q424.1 284.25 424.7 336.75Q451.75 335.85 479.2 332Q482.3 338 479.2 343.95Q454.15 352.65 426.9 351.05L424.6 351.5L421.45 352.45Q417.3 293.85 419 234Q420.55 179.55 420.85 125.25Q420.9 118.2 424.2 114M204.2,113.5Q204.05 108.45 207.2 105.75Q212 164.55 218.05 223.65Q221.1 253.15 228.95 281.5Q240.7 324 249.45 367.15Q253.15 385.45 252.35 403.45Q252.35 404.2 251.7 404.95Q242.8 393.65 241.35 376.1Q240.1 360.9 236.6 346Q222.85 287.9 214.3 228.95Q207.35 180.9 204.95 132.15Q202.75 148.7 198.8 165.5Q185.15 223.1 175.1 281.4Q166.3 332.1 158.95 382.7L159.7 399.5Q159.75 400.85 158.7 401.7Q150.75 390.7 150.5 373.45Q150.3 358.45 148.75 343.4L136.75 225.7Q131.75 177.1 127.85 128.5Q126.1 144.65 121.05 161Q112.2 189.55 107.45 219Q98 277.4 85.55 335.35Q78.3 368.95 68.5 400.45Q62.85 388 68.05 371.45Q76.9 343.25 83.3 314.4Q96.05 256.45 106.2 198.1Q114.15 152.3 126.4 109.8L126.25 108.05Q126 104.65 128.2 103.25L128.25 103.5L128.45 102.75L128.65 106.5Q136.2 163.05 142.15 220.15Q148.25 279 155.05 337.8L156.45 350.9L166.85 297.55L189 181.45Q195.35 148 204.35 117.15L204.2 113.5" />
</g>
</svg>
