<?xml version="1.0" encoding="utf-8"?>
<svg version="1.1" id="Layer_1"
xmlns="http://www.w3.org/2000/svg"
xmlns:xlink="http://www.w3.org/1999/xlink"


xml:space="preserve">
q19.3 2.8 38.65 3.25q-6.35 41.15 -6.75 85.2q-0.3 29.85 -4.75 59.1q-2.55 16.85 3.6 29.4q0.65 -0.75 0.75 -1.55q6.9 -58.85 9.15 -118.4q1.1 -27.65 -0.7 -53.7q23.25 0.4 46.55 -2.55q2.85 -7.2 -1.2 -13.45q-16.75 4.05 -34.35 2.15q-27.15 -2.9 -51.4 4.6q-0.7 3 0.2 6q5.65 -13.8 1.65 -28.1q-8.5 13.1 -1.85 28.3q-3.05 7.95 1.5 14.65q5.6 8.25 15.5 7.85q10.4 -11.45 11.15 -29.15q1.45 -34.2 -3.4 -68.1q-6.4 21.1 -3.2 43.1q2.95 19.95 -5.05 38.4q-3.65 -3.7 -8.4 -5.45q-2.55 -1.05 -5.35 -1.3q-4.45 7.35 -7.15 17.8q-14.9 57.3 -26.75 115.6q-2.95 14.55 -7.45 28.75q-5.35 16.55 1.35 29.05q4.45 -8.2 6.15 -17.8q10.15 -58.3 25.95 -115.2q5.6 -20.15 7.25 -40q0 26.55 4.05 53.85q1.65 11.2 2.4 22.55q1.05 16.55 9.2 28.35q1.15 -0.85 1.2 -2.25q0.2 -5.25 0 -10.5q9.8 -33.15 22.95 -66.15q2.4 -5.95 3.95 -11.95q0.1 5.9 0.7 12.15q5.4 58.8 9.35 117.75q1.05 16.15 6.8 28.45q1.25 -0.8 1.2 -2.25q-0.5 -31.4 -3.3 -63.05q-4.95 -54.95 -12.05 -108.8q0.6 -7.45 -0.1 -14.85q-10.15 24.45 -13.95 49.9q-7 -43.2 -14.45 -86.05q-7.55 -25.65 -31.55 -10.55q-18.3 11.5 -23 33.4q-4.75 22.25 4.75 42.7q4.15 8.85 11.05 16.15q24.8 5 39.65 -14.7q6.25 -8.35 2.35 -18.3q-16.3 19.6 -41.75 17.5q-11.25 -14.5 -10.8 -32.5q18.1 3.9 36.3 0.25q2.95 -4.9 1.35 -10.25q-0.6 -2 -2.1 -3.25q-17.35 -1.25 -34.25 3.2q6.05 -27.2 34.25 -26.15q8 0.3 13.75 2.5<g id="667" transform="matrix(1, 0, 0, 1, -133.8, 0)">
<path style="fill:#000000;fill-opacity:1" d="M336.5,187.5L336.7 186.75Q360.95 179.25 388.1 182.15Q405.7 184.05 422.45 180Q426.5 186.25 423.65 193.45L423.2 194.25Q399.9 197.2 376.65 196.8Q378.45 222.85 377.35 250.5Q375.1 310.05 368.2 368.9Q368.1 369.7 367.45 370.45Q361.3 357.9 363.85 341.05Q368.3 311.8 368.6 281.95Q369 237.9 375.35 196.75Q356 196.3 336.7 193.5Q335.8 190.5 336.5 187.5M422.6,248.55Q415.95 233.35 424.45 220.25Q428.45 234.55 422.8 248.35L422.6 248.55M403.8,347.25Q408.55 349 412.2 352.7L414.95 352.7Q422.95 334.25 420 314.3Q416.8 292.3 423.2 271.2Q428.05 305.1 426.6 339.3Q425.85 357 415.45 368.45Q405.55 368.85 399.95 360.6Q395.4 353.9 398.45 345.95Q401.25 346.2 403.8 347.25M180.5,185.5Q187.95 228.35 194.95 271.55L195.05 272.15Q198.85 246.7 209 222.25L226.2 180.25Q226.9 187.65 226.3 195.1Q233.4 248.95 238.35 303.9Q241.15 335.55 241.65 366.95Q241.7 368.4 240.45 369.2Q234.7 356.9 233.65 340.75Q229.7 281.8 224.3 223Q223.7 216.75 223.6 210.85Q222.05 216.85 219.65 222.8Q206.5 255.8 196.7 288.95Q196.9 294.2 196.7 299.45Q196.65 300.85 195.5 301.7Q187.35 289.9 186.3 273.35Q185.55 262 183.9 250.8Q179.85 223.5 179.85 196.95Q178.2 216.8 172.6 236.95Q156.8 293.85 146.65 352.15Q144.95 361.75 140.5 369.95Q133.8 357.45 139.15 340.9Q143.65 326.7 146.6 312.15Q158.45 253.85 173.35 196.55Q176.05 186.1 180.5 178.75L180.45 185.5L180.5 185.5M300.45,284Q272.25 282.95 266.2 310.15Q283.1 305.7 300.45 306.95Q301.95 308.2 302.55 310.2Q304.15 315.55 301.2 320.45Q283 324.1 264.9 320.2Q264.45 338.2 275.7 352.7Q301.15 354.8 317.45 335.2Q321.35 345.15 315.1 353.5Q300.25 373.2 275.45 368.2Q268.55 360.9 264.4 352.05Q254.9 331.6 259.65 309.35Q264.35 287.45 282.65 275.95Q306.65 260.85 314.2 286.5Q308.45 284.3 300.45 284" />
</g>
</svg>
