<?xml version="1.0" encoding="utf-8"?>
<svg version="1.1" id="Layer_1"
xmlns="http://www.w3.org/2000/svg"
xmlns:xlink="http://www.w3.org/1999/xlink"


xml:space="preserve">
q-4.55 -31.3 -39.6 -31.3q-17.55 4.8 -21.6 22.6q-8.95 39.1 3.75 76.65q9.15 26.9 21.3 52.85q25.25 53.65 39.95 111.45q13.75 54 6.5 109.75q-5.9 45.05 -49.5 54.7q-16.3 3.6 -33.3 2.3q-15.4 -1.15 -18.25 -15.55q-3.85 -19.35 -11.85 -33.3q-2.5 24.1 8.65 48.7q1.35 3 4.05 4.4q30.95 15.8 65.3 5.15q43.2 -26.5 44.6 -78q1.55 -57.7 -13 -112.1q-14.95 -56.1 -40.15 -108.5q-13.3 -27.65 -22.75 -56.6q-11.95 -36.7 6.3 -68.5q2.3 -1.55 5.15 -2.1q0.85 -0.2 1.6 -0.8q7.5 -0.85 14.55 0.95q13.6 3.5 21.2 15.05q0.1 1.15 0.85 1.95q0.8 0.85 1.9 1.35q2 -1.7 1.6 -4.45q-0.9 35.2 0.25 70.5q2.45 -4.5 0.25 -9q-20.25 -3.4 -40 -4q2.65 -34.15 0.45 -67.5q-3.85 2.65 -4 9q-2.35 33.6 -2.9 70.3q-0.25 18.6 -2.15 37.05q-1.6 15.1 -3.05 30.3q-1.05 10.85 2.95 20.9q14.05 -1.15 25.1 -11.7q5.15 -4.95 8.9 -10.9q4 -6.35 7 -13.45q5.35 -12.6 7.1 -26.15q5.55 -42.55 -9.95 -81.65q-7.35 -18.6 -26.95 -20.95q-4.2 -0.5 -8.05 1.25q16.4 38.45 10.35 80.55q-5.25 36.9 -41.65 49.95q2.55 -17.6 3.05 -35.55q1.65 -55.95 2.3 -110.5q18.9 -1 25.95 15.55q6.75 -58.15 4.05 -116.7q-0.65 -14.8 -1.8 -29.55q0.35 59.35 -1.05 118.45q-0.65 27.7 -1.15 55.7q-2.4 -5.8 -4.5 -12.6q-14.45 -47 -27.05 -94.95q-14.15 -54.05 -27.2 -107.55q-1.25 0.1 -1.65 1.3q-0.45 0.1 -0.4 0.55q-2.8 22.1 -2 44.6q1.55 44.5 0.3 88.4q-1.75 60.25 -8.65 118.85q-1.7 14.15 4.5 21.9q4.65 -33.85 6 -69q1.85 -46.6 -0.2 -92.65q6.35 39.6 16.5 79.5q3.65 14.2 8.25 28q19.15 57.05 29.5 115.65q2.8 15.65 9 27.9q0.65 -0.6 0.65 -1.25q-0.05 -9.8 -0.95 -19.6q2.9 -6.3 2.45 -13.55q-3.75 -58.9 -2.15 -118.45q1.65 -60.15 2.2 -118.45q-6.1 19.85 -6 43q-17.15 11.05 -21.25 31.1q-4.25 21.05 1.65 41.75q2.3 8.2 6.1 15.85q8.05 4.55 15.05 -1.25q-6.7 -1.8 -13.25 0.35q-3.45 8.4 -11.7 11.8q-4.25 1.65 -8.25 -1.1q-12.65 -27.7 1.85 -54.25q4.3 -7.85 11.15 -13.7q11.15 -1.35 12.75 9.2q0.15 0.8 0.7 1.55q7.35 -4.1 0.55 -14.5q-2.65 -4.15 -7 -6.5q-4.5 1.65 -9.2 3.85q-12.5 5.75 -19.7 16.75q-19.2 29.25 -21.8 65.05q-4.25 58.95 -2.8 118.6q1.45 59.9 6.3 119.2q3.65 44.1 8.8 87.9q4.55 38.25 44.15 32.6q7.4 -7.2 12.35 -16.15q12.65 -22.65 9.4 -46.85q-1.1 -0.65 -1.7 -1.7q-4.45 20.25 -17.7 36q-12.55 2 -24 -2.25q-2.6 -2.5 -3.7 -5.65q-11.35 -33.4 -14.5 -69.25q-5.2 -59.3 -7.25 -119.3q2.35 -2.05 2.85 -5.2q0.9 -6.2 -3.85 -9.8q-14.65 1.05 -29.45 3.5q-0.75 -43.55 0.65 -87q1.05 -33.7 11.4 -65.5q10.65 -32.75 44.65 -33.25q4.45 2.55 6.85 6.95q3.25 5.9 8.65 7.3q2.6 -4.2 0.6 -8.8q-5.2 -11.9 -15.85 -19.7q-0.9 4.8 -1.35 9.65q-4 19.2 -6.45 38.8q-7.3 58.75 -17.1 117.15q-4.65 27.75 -10.2 55.1q-4.45 -53.35 -9.3 -106.5q-5.3 -59.1 -10.2 -117.65q-1.9 0.65 -2.7 2.3q-0.8 -0.15 -0.9 0.4q-12.65 52.6 -19.95 107.55q-7.7 58.25 -17.8 116.1q-10.2 58.45 -19.3 117.15q-4.6 29.35 -11.9 58.15q-5.8 22.7 -2.35 43.85q1.1 -0.35 1.3 -1.05q7.75 -23.8 11.9 -49.15q9.45 -58.15 20 -116q10.6 -57.95 18.15 -116.4q7.65 -58.7 18.3 -116.85q2.15 -11.85 2.75 -23.25q2.15 53.6 7.3 106.7q5.65 58.7 8.65 117.8q0.4 7.55 -0.2 14.85q-1.2 14.55 6.3 20.9q1.65 -10.95 1.9 -22.35q9.35 -47.45 16.6 -96.1q8.15 -54.6 16.9 -109.1q4.15 49.85 7.4 99.85q3.8 58.9 12.7 117.15q8.95 58.7 17.2 117.5q2.1 15.05 3.05 30.15q1 17.05 9 29.1q2.7 -2.3 2.35 -5.95q-3.7 -42.2 -9.75 -84.2q-8.45 -58.55 -17.45 -116.95q-9.05 -58.4 -13.3 -117.6q0.9 -11.5 0.65 -22.65q-1.7 -0.3 -2.75 1q-0.95 0.5 -1.2 1.95<g id="665" transform="matrix(1, 0, 0, 1, -20.8, 0)">
<path style="fill:#000000;fill-opacity:1" d="M499.95,91Q498.85 90.5 498.05 89.65Q497.3 88.85 497.2 87.7L496.85 84L496.7 83.25Q489.1 71.7 475.5 68.2Q468.45 66.4 460.95 67.25Q460.2 67.85 459.35 68.05Q456.5 68.6 454.2 70.15L451.95 71.25Q433.7 103.05 445.65 139.75Q455.1 168.7 468.4 196.35Q493.6 248.75 508.55 304.85Q523.1 359.25 521.55 416.95Q520.15 468.45 476.95 494.95Q442.6 505.6 411.65 489.8Q408.95 488.4 407.6 485.4Q396.45 460.8 398.95 436.7Q406.95 450.65 410.8 470Q413.65 484.4 429.05 485.55Q446.05 486.85 462.35 483.25Q505.95 473.6 511.85 428.55Q519.1 372.8 505.35 318.8Q490.65 261 465.4 207.35Q453.25 181.4 444.1 154.5Q431.4 116.95 440.35 77.85Q444.4 60.05 461.95 55.25Q497 55.25 501.55 86.55Q501.95 89.3 499.95 91M334.45,51.5Q336.65 84.85 334 119L333.95 119.75Q353.7 120.35 373.95 123.75Q376.15 128.25 373.7 132.75L330.7 131Q329.55 95.7 330.45 60.5Q330.6 54.15 334.45 51.5M391,141.25Q410.6 143.6 417.95 162.2Q433.45 201.3 427.9 243.85Q426.15 257.4 420.8 270Q417.8 277.1 413.8 283.45Q410.05 289.4 404.9 294.35Q393.85 304.9 379.8 306.05L378.7 308.25Q374.7 298.2 375.75 287.35Q377.2 272.15 378.8 257.05Q380.7 238.6 380.95 220Q381.5 183.3 383.85 149.7L382.2 145.5L382.95 142.5Q386.8 140.75 391 141.25M386.15,149.75Q385.5 204.3 383.85 260.25Q383.35 278.2 380.8 295.8Q417.2 282.75 422.45 245.85Q428.5 203.75 412.1 165.3Q405.05 148.75 386.15 149.75M360.6,208.45L360.2 208.85L298.7 206.5L304.2 49.75Q305.35 64.5 306 79.3Q308.7 137.85 301.95 196L360.2 199.5L360.6 208.45M367.2,225.25Q366.65 283.55 365 343.7Q363.4 403.25 367.15 462.15Q367.6 469.4 364.7 475.7L363.65 473.6Q364.55 483.4 364.6 493.2Q364.6 493.85 363.95 494.45Q357.75 482.2 354.95 466.55Q344.6 407.95 325.45 350.9Q320.85 337.1 317.2 322.9Q307.05 283 300.7 243.4Q302.75 289.45 300.9 336.05L297.45 425.2Q296.1 460.35 291.45 494.2Q285.25 486.45 286.95 472.3Q293.85 413.7 295.6 353.45Q296.85 309.55 295.3 265.05Q294.5 242.55 297.3 220.45L297.15 219.35Q297.1 218.9 297.55 218.8Q297.95 217.6 299.2 217.5L299.7 224.85Q312.75 278.35 326.9 332.4Q339.5 380.35 353.95 427.35Q356.05 434.15 358.45 439.95L359 442.4Q359.5 414.4 360.15 386.7Q361.55 327.6 361.2 268.25Q361.1 245.1 367.2 225.25M403.2,309.25Q407.55 311.6 410.2 315.75Q417 326.15 409.65 330.25Q409.1 329.5 408.95 328.7Q407.35 318.15 396.2 319.5Q389.35 325.35 385.05 333.2Q370.55 359.75 383.2 387.45Q387.2 390.2 391.45 388.55Q399.7 385.15 403.15 376.75L404.2 371.7L392.1 369.8L392.2 363.7L393.95 363.05Q400.5 360.9 407.2 362.7L405.35 406.45L402.15 392.3L397.5 396.45Q390.5 402.25 382.45 397.7Q378.65 390.05 376.35 381.85Q370.45 361.15 374.7 340.1Q378.8 320.05 395.95 309L403.2 309.25M260.95,44.2L262.45 44.5Q273.1 52.3 278.3 64.2Q280.3 68.8 277.7 73Q272.3 71.6 269.05 65.7Q266.65 61.3 262.2 58.75Q228.2 59.25 217.55 92Q207.2 123.8 206.15 157.5Q204.75 200.95 205.5 244.5Q220.3 242.05 234.95 241L241.45 241.25Q246.2 244.85 245.3 251.05Q244.8 254.2 242.45 256.25L205.75 257.35L206.25 276Q208.3 336 213.5 395.3Q216.65 431.15 228 464.55Q229.1 467.7 231.7 470.2Q243.15 474.45 255.7 472.45Q268.95 456.7 273.4 436.45L276.45 422.95L276.7 422.6Q277.3 423.65 278.4 424.3L279.45 424.95Q282.7 449.15 270.05 471.8Q265.1 480.75 257.7 487.95Q218.1 493.6 213.55 455.35Q208.4 411.55 204.75 367.45Q199.9 308.15 198.45 248.25Q197 188.6 201.25 129.65Q203.85 93.85 223.05 64.6Q230.25 53.6 242.75 47.85Q247.45 45.65 251.95 44L260.95 44.2M155.25,43.25L155.7 41.25Q156.75 39.95 158.45 40.25Q158.7 51.4 157.8 62.9L165.3 160.75Q169.55 219.95 178.6 278.35Q187.6 336.75 196.05 395.3Q202.1 437.3 205.8 479.5Q206.15 483.15 203.45 485.45Q195.45 473.4 194.45 456.35Q193.5 441.25 191.4 426.2Q183.15 367.4 174.2 308.7Q165.3 250.45 161.5 191.55Q158.25 141.55 154.1 91.7Q145.35 146.2 137.2 200.8Q129.95 249.45 120.6 296.9Q120.35 308.3 118.7 319.25Q111.2 312.9 112.4 298.35Q113 291.05 112.6 283.5Q109.6 224.4 103.95 165.7Q98.8 112.6 96.65 59Q96.05 70.4 93.9 82.25Q83.25 140.4 75.6 199.1Q68.05 257.55 57.45 315.5Q46.9 373.35 37.45 431.5Q33.3 456.85 25.55 480.65Q25.35 481.35 24.25 481.7Q20.8 460.55 26.6 437.85Q33.9 409.05 38.5 379.7Q47.6 321 57.8 262.55Q67.9 204.7 75.6 146.45Q82.9 91.5 95.55 38.9Q95.65 38.35 96.45 38.5L96.75 44.05Q97.55 42.4 99.45 41.75Q104.35 100.3 109.65 159.4Q114.5 212.55 118.95 265.9Q124.5 238.55 129.15 210.8Q138.95 152.4 146.25 93.65Q148.7 74.05 152.7 54.85Q153.15 50 154.05 45.2Q154.3 43.75 155.25 43.25" />
</g>
</svg>
