<?xml version="1.0" encoding="utf-8"?>
<svg version="1.1" id="Layer_1"
xmlns="http://www.w3.org/2000/svg"
xmlns:xlink="http://www.w3.org/1999/xlink"


xml:space="preserve">
q-27.05 27.2 -33.15 67.45q-6.1 40.2 -8.2 81.1q-1.15 1.7 -1.35 3.7q-0.35 3.6 1.3 6.75q-0.45 11.95 -0.55 23.95q-0.5 59.65 4.25 118.55q1.55 19.05 9.75 36.05q11.85 24.55 32.75 6.6q5.35 -4.65 9.55 -10.4q13.9 -18.95 10.85 -39.85q-1 -0.6 -1.75 -1.45q-0.05 -0.15 -0.3 -0.15q-7.15 16.85 -16.9 32.9q-4.6 7.55 -13.1 9.15q-13.5 2.6 -16.15 -10.3q-10.45 -50.7 -11.05 -103.2q-0.35 -29.5 0.45 -58.8q20.35 4.05 39.75 1.55q-0.05 3.55 3.25 4q4.3 -2.7 4.95 -7.75q0.1 -4.5 -2.95 -7.5q-21.4 3.9 -41.65 -0.15q0.8 -22.05 2.25 -44.05q3.2 -48.25 27.55 -89.2q2.3 -0.3 3.9 -1.85q3.25 -3 6.85 -5.4q10.4 -0.1 17.25 7.75q2.35 -17.85 -16.7 -19.95q-4 1.75 -7.2 5q0.15 -1.9 -0.1 -3.75q-0.2 -1.55 -0.9 -2.95q-5.15 38.8 -4.65 77.85q1 72.75 -4.5 145.2q-4.65 61.65 1 121.65q0.2 2.2 1.55 4.35q5.1 -48.8 6.8 -98.2q2.35 -66.75 1.4 -133.5q-0.85 -58.6 0.25 -117.3q1.55 -2 1.7 -4.45q-5.95 7.65 -7.6 18.55q-8.95 58.4 -19.35 116.55q-5.25 29.25 -12.7 58q-10.9 -35.1 -14.1 -72.15q-4.2 -48.8 -9.8 -96.95q4.15 -13.95 -0.9 -24.9q-5.15 6.15 -6.7 14.8q-10.55 58.25 -20.95 116.55q-7.7 43.1 -17.5 85.8q-13.35 57.85 -21.65 116.55q-1.05 7.45 -3.25 14.55q-4.05 13.25 3.85 20.45q2.85 -4.75 3.65 -10.45q4.7 -34.55 11.45 -68.75q11.45 -57.9 22.1 -115.85q10.7 -58.05 20.8 -116.25q1.75 -10.1 4.8 -19.8q0.25 7.15 1.05 14.45q3.9 36.4 7.25 72.8q5.5 60.15 21.1 116.65q0.9 -0.65 1.05 -1.4q1.2 -5.75 1.7 -11.5q9.8 -36.95 16.05 -75.35q9 -55.1 19.05 -110q1.15 21.4 3.6 42.65q6.85 58.4 12.25 116.95q5.5 59.1 14.05 117.7q1.7 13.3 9.1 20.5q2.8 -3.55 2 -8.15q-9.75 -57.85 -17.1 -116.4q-7.3 -58.65 -13.05 -117.55q-5.6 -57.8 -12.1 -114.7q-1.95 20.5 -5.65 40.7q-7.55 45.45 -18.1 90.75q-1.65 7.15 -1.85 14.55q-0.25 10.95 1.5 21.75q0 -0.15 0.5 -0.35q16.5 -61.6 25.2 -125.1q6.7 81.25 16.45 162.15q1.3 10.65 3.7 21.3q12.1 -19.2 5.95 -44.65q-6.9 -28.5 -9.8 -57.95q-4.3 -44.3 -9.45 -88.45q-3.65 -29.35 -7.65 -58.65q-6.85 17.75 -10.4 36.8q-2.8 15.1 -4.3 30.55<g id="681" transform="matrix(1, 0, 0, 1, -37.85, 0)">
<path style="fill:#000000;fill-opacity:1" d="M428.95,81.75Q448 83.85 445.65 101.7L445.2 102.5Q438.35 94.65 427.95 94.75Q424.35 97.15 421.1 100.15Q419.5 101.7 417.2 102Q392.85 142.95 389.65 191.2Q388.2 213.2 387.4 235.25Q407.65 239.3 429.05 235.4L432.45 235.25Q435.5 238.25 435.4 242.75L434.9 248.75Q434.25 253.8 429.95 256.5Q426.65 256.05 426.7 252.5L426.7 251.75Q407.3 254.25 386.95 250.2Q386.15 279.5 386.5 309Q387.1 361.5 397.55 412.2Q400.2 425.1 413.7 422.5Q422.2 420.9 426.8 413.35Q436.55 397.3 443.7 380.45Q443.95 380.45 444 380.6L444.7 381.5Q445.45 382.35 446.45 382.95Q449.5 403.85 435.6 422.8Q431.4 428.55 426.05 433.2Q405.15 451.15 393.3 426.6Q385.1 409.6 383.55 390.55Q378.8 331.65 379.3 272Q379.4 260 379.85 248.05L379.45 247.75Q377.8 244.6 378.15 241L378.25 240.25L378.35 239.45Q378.55 237.45 379.7 235.75L380.4 235.3Q382.5 194.4 388.6 154.2Q394.7 113.95 421.75 86.75Q424.95 83.5 428.95 81.75M397.45,83.25L357.15 83.7Q356.05 142.4 356.9 201Q357.85 267.75 355.5 334.5Q353.8 383.9 348.7 432.7Q347.35 430.55 347.15 428.35Q341.5 368.35 346.15 306.7Q351.65 234.25 350.65 161.5Q350.15 122.45 355.3 83.65L295.3 78.95L296.45 69.5L396.45 69L398.15 72.1Q398.85 73.5 399.05 75.05Q399.3 76.9 399.15 78.8Q399 81.25 397.45 83.25M178.7,69.15Q185.2 126.05 190.8 183.85Q196.55 242.75 203.85 301.4Q211.2 359.95 220.95 417.8Q221.75 422.4 218.95 425.95Q211.55 418.75 209.85 405.45L205.7 375.3Q197.15 316.7 191.65 257.6Q186.25 199.05 179.4 140.65Q176.95 119.4 175.8 98Q165.75 152.9 156.75 208Q150.5 246.4 140.7 283.35Q140.2 289.1 139 294.85Q138.85 295.6 137.95 296.25Q122.35 239.75 116.85 179.6Q113.5 143.2 109.6 106.8Q108.8 99.5 108.55 92.35Q105.5 102.05 103.75 112.15Q93.65 170.35 82.95 228.4Q72.3 286.35 60.85 344.25Q54.1 378.45 49.4 413Q48.6 418.7 45.75 423.45Q37.85 416.25 41.9 403Q44.1 395.9 45.15 388.45Q53.45 329.75 66.8 271.9Q76.6 229.2 84.3 186.1Q94.7 127.8 105.25 69.55Q106.8 60.9 111.95 54.75Q117 65.7 112.85 79.65Q118.45 127.8 122.65 176.6Q125.85 213.65 136.75 248.75L138.55 255.35Q146 226.6 151.25 197.35Q161.65 139.2 170.6 80.8Q172.25 69.9 178.2 62.25L178.7 69.15M267.8,103.8Q271.35 84.75 278.2 67L286.35 125.25Q290.35 154.55 294 183.9L301.15 242.65Q306.3 286.8 310.6 331.1Q313.5 360.55 320.4 389.05Q326.55 414.5 314.45 433.7Q312.05 423.05 310.75 412.4Q301 331.5 294.3 250.25L250.35 253.2Q241.65 316.7 225.15 378.3Q224.65 378.5 224.65 378.65Q222.9 367.85 223.15 356.9Q223.35 349.5 225 342.35Q235.55 297.05 243.1 251.6L242.95 242.75L245.55 242.15L251.7 208.65L257.85 175.05Q261.55 154.85 263.5 134.35Q265 118.9 267.8 103.8M266.85,156.7L252.5 240.6L292.75 235.9L277.2 101.25L266.85 156.7" />
</g>
</svg>
