<?xml version="1.0" encoding="utf-8"?>
<svg version="1.1" id="Layer_1"
xmlns="http://www.w3.org/2000/svg"
xmlns:xlink="http://www.w3.org/1999/xlink"


xml:space="preserve">
q9.65 4.85 9.65 15q0 2.2 -1.25 3.4q-1 0.95 -2.25 0.95q-1.85 0 -3.8 -2.2q-5.15 -7 -10.7 -7q-27.55 0 -39.1 34.05q-3.5 10.25 -5.25 22.05q4.1 -1.15 11.5 -2.1q8.4 -0.65 11.9 1.55q2.1 1.3 2.1 3.45q0 1.75 -1.3 2.65q-3.05 2.2 -12.7 2.35q-0.6 7.1 -0.6 14.75q0 2.4 1 7.9q1.4 8 4.05 14.65q8.05 20.45 24.05 20.45q24.15 0 33.65 -17.1q2.95 -5.4 5.1 -13.9q2.45 -9.65 2.9 -10.75q2.6 1.25 4.4 4.9q1.35 2.85 1.35 4.5q0 3.45 -1.7 9.15q-2.35 7.95 -6.8 14.45q-13.05 19.25 -38.75 19.25q-22.5 0 -33 -24.4q-3.3 -7.7 -4.95 -16.9q0 -10.75 3.95 -30.2q4.55 -20.75 5.8 -28.7q2.4 -14.5 13.45 -24.05q9.7 -8.35 22.95 -10.5q12.7 -2.1 21.7 2.45q1.55 -2.45 2.6 2.2q3.75 0.65 9.65 2.6q6.05 2 11.8 4.65q5.5 2.5 6.5 3.6q4.35 7 5.5 10.55q2.6 8.1 4 42.35q0 11.65 -3.95 26.05q-3.95 14.3 -10.55 26.85q-7.05 13.35 -15.2 21q1.85 8.25 3.75 18.75q1.25 6.95 4.8 19.15q4 13.65 5.2 19.1q4.9 23.75 8.2 38.15q18.95 68.6 18.95 85.5q0 2.1 -0.95 3.8q-1.45 2.45 -4.55 2.45q-4.6 0 -15.45 -48.9q-5.45 -23.6 -9.5 -35.9q-5.35 -16.35 -16.8 -68.75q-11.2 -51.25 -11.2 -57.85q-2.3 -10.35 -3.45 -16.35q-3.35 1.2 -6.7 1.2q-3 0 -4.55 -0.9q-3.45 45.2 -6.2 67.9q-2.45 20.45 -7.4 51.8q-2.35 15 -5.2 25.85q-2.05 7.9 -6.35 31.65q-4.2 19.85 -8.15 19.85q-3.9 0 -4.7 -3.1q0 -4.05 8 -47.05q8.35 -44.9 13.25 -65.45q5.5 -23.2 10.35 -55.55q3.5 -23.95 5.25 -55.3q1.1 -20.15 2 -56.45q0.25 -10 1.8 -28.2q1.6 -19.45 1.95 -28.05q0.8 -18.3 2.6 -27.45q-1.6 -1.2 -1.6 -2.8q0 -2.1 2.9 -2.35q0.5 -1.65 1.15 -2.6q0 10.05 -5.25 87.2q4 -2.4 7.95 -5.55q0.5 -3.7 2.4 -2.05q12.05 -10.8 24.65 -28.9q1.35 -2 4.55 -18.3q3.2 -16.1 3.2 -20.35q0 -2.5 -1.5 -17.9q-2.95 -19.95 -21.85 -25.95q0.55 0.3 0.55 1.9q0 2.2 -7 29.35q-7 27.15 -7 28.05q-6.9 25.6 -6.9 27.8q0 2.4 -8.25 22.95q-8.1 20.2 -8.5 20.2q-2.7 0 -3.45 -1.6q-0.3 -0.6 -0.3 -1.9q0 -1.6 9.75 -32.55q-3.35 0 -9.3 -16.95q-2.3 -6.55 -7.7 -24.8q-1.15 -3.9 -8.05 -23.9q-5.7 -16.55 -5.7 -18.1q9.1 3.75 13.7 16.7q2.6 7.35 6.3 22.8q4.4 12.35 6 18q5.65 -26 8.9 -39.05q5.75 -22.95 14.1 -37.45q5.9 -7.85 12.45 -12.5q18.4 -13 29.65 7.3q9.3 8.3 12.8 23.55q2.2 9.7 2.2 24.45q-0.6 27.6 -7.25 52.5q-13.1 49.25 -43.25 49.25q-17.75 0 -22.25 -18.7q-1.45 -5.85 -1.35 -13q0 -9.2 3.55 -45.85q3.9 -40.5 6.7 -49.75q1.35 -4.3 6.4 -11.05q-2.3 7.65 -5.55 41.15q-2.95 30.2 -2.95 37.2q-0.25 8.35 0.65 15.05q2.8 21.25 15.75 21.25q26.3 0 37 -46.25q5.4 -23.2 5.5 -47.25q0 -13.35 -4.65 -26.1q-4.7 -12.85 -11.95 -19.35q-7.95 -7.05 -16.15 -3.85q-9.35 3.7 -17.25 20.3q1.4 0.25 2.4 2.45q0.95 2.15 0.95 5.2q-0.75 26.5 -1.9 48.75q-3.75 70.45 -10.05 70.45q-3.55 0 -4.75 -2.7q-0.5 -1.2 -0.5 -3.05q0 -8.4 2.65 -42.05q0.8 -7.95 1.35 -19.1q0.1 -6 0.95 -9.95q2.3 -10.35 5.9 -9.75q2.3 22.2 3 39q1.55 32.4 12.4 171.4q10.1 130.1 10.1 139.5q0 6.85 -5.5 6.85q-8.55 0 -18.55 -146.85q-14.2 4 -37.9 4q-1.4 14.05 -3.25 35q-3.85 42.8 -6.05 62.55q-8.05 72.7 -17.85 72.7q-2.65 0 -3.45 -1.95q-0.3 -0.7 -0.3 -2.3q0 -1.25 0.9 -4.1q0.85 -2.9 0.85 -4.15q0 -4.65 5.75 -48.65q6 -45.85 9.5 -66.1q-0.1 -0.4 -0.05 -0.8q0 -0.2 0.15 -0.45q5.25 -46.4 5.25 -50.3q0 -6.45 8.15 -65.7q8.7 -63.4 13.85 -89.4q1.75 -16.75 3.9 -24.55q3.95 -14.4 12.6 -3.2q-7.85 42 -15.2 95.8q-4.45 32.8 -12.05 96.05q8.15 -2 18.95 -3.2q-5.3 -87.75 -9.8 -198.2q2.5 7.05 2.5 13.65q-0.4 3.85 -1.65 33.65q-1.35 31.75 -1.35 41.6q0 6.4 1.45 36.4q1.4 29.45 1.8 32.95q0.4 21.6 0.4 34.75q18.75 -89.7 32.5 -185.5q2.5 -17.4 5.95 -54q4.9 -51 5.95 -60.75q7.5 -70.1 16.1 -70.1q5.35 0 5.3 16.05q-0.05 8.2 0.75 12.5q2.5 52.65 15.1 196.1q0 1.8 -1 3.35q-1.4 2.25 -4.25 2.25q-8.35 0 -12.95 -67.75q-1.25 -19.05 -3.15 -59q-1.85 -38.35 -2.9 -53q-1.3 -18.2 -4.05 -44.95q-5.3 -54.25 -4.55 -89.9q-5.15 79.6 -23.5 178.35q-16.55 87.4 -21 87.4q-5 0 -6 -15.45q-0.4 -3.5 -1.55 -33.45q-1.2 -30.35 -1.2 -37.8q0 -7.7 1.5 -42.85q-12.9 65.45 -30.45 183.2q-19.35 129.9 -29.05 183.15q-1.9 0 -2.75 -6.45q0 -1.25 0.9 -5.4q0 -9.2 10.25 -85.9q10.95 -81.9 17.5 -114.75q4.15 -21.1 8.85 -49.65q1.45 -9.05 5.4 -25.1q0.6 -2.85 1 -12.5q0.3 -7.95 2.25 -12.25q5.25 -12.15 8.75 -2.3<g id="687" transform="matrix(1, 0, 0, 1, -19.75, 0)">
<path style="fill:#000000;fill-opacity:1" d="M526.85,191.75Q536.5 196.6 536.5 206.75Q536.5 208.95 535.25 210.15Q534.25 211.1 533 211.1Q531.15 211.1 529.2 208.9L525.55 204.1Q520.4 197.1 514.85 197.1Q487.3 197.1 475.75 231.15Q472.25 241.4 470.5 253.2Q474.6 252.05 482 251.1L510 250.85Q518.4 250.2 521.9 252.4Q524 253.7 524 255.85Q524 257.6 522.7 258.5Q519.65 260.7 510 260.85L484 261.1L476.7 262.55L469.35 263.6Q468.75 270.7 468.75 278.35Q468.75 280.75 469.75 286.25Q471.15 294.25 473.8 300.9Q481.85 321.35 497.85 321.35Q522 321.35 531.5 304.25Q534.45 298.85 536.6 290.35Q539.05 280.7 539.5 279.6Q542.1 280.85 543.9 284.5Q545.25 287.35 545.25 289Q545.25 292.45 543.55 298.15Q541.2 306.1 536.75 312.6Q523.7 331.85 498 331.85Q475.5 331.85 465 307.45Q461.7 299.75 460.05 290.55L459 282.75Q459 272 462.95 252.55Q467.5 231.8 468.75 223.85Q471.15 209.35 482.2 199.8Q491.9 191.45 505.15 189.3Q517.85 187.2 526.85 191.75M414.8,46.8Q416.35 44.35 417.4 49L417.55 49.65Q421.3 50.3 427.2 52.25Q433.25 54.25 439 56.9Q444.5 59.4 445.5 60.5L452 70.95Q456.35 77.95 457.5 81.5Q460.1 89.6 461.5 123.85Q461.5 135.5 457.55 149.9Q453.6 164.2 447 176.75Q439.95 190.1 431.8 197.75L427.5 201.35L428.5 204.25Q430.35 212.5 432.25 223Q433.5 229.95 437.05 242.15Q441.05 255.8 442.25 261.25L450.05 298.7Q454.95 322.45 458.25 336.85L477.55 403.6Q496.5 472.2 496.5 489.1Q496.5 491.2 495.55 492.9Q494.1 495.35 491 495.35Q486.4 495.35 475.55 446.45L466.25 404.75Q460.8 381.15 456.75 368.85Q451.4 352.5 439.95 300.1Q428.75 248.85 428.75 242.25L424.15 221.4Q421.85 211.05 420.7 205.05Q417.35 206.25 414 206.25Q411 206.25 409.45 205.35Q406 250.55 403.25 273.25Q400.8 293.7 395.85 325.05L387.5 377.35L383.7 403.25Q381.35 418.25 378.5 429.1Q376.45 437 372.15 460.75Q367.95 480.6 364 480.6Q360.1 480.6 359.3 477.5L359.25 474.1Q359.25 470.05 367.25 427.05Q375.6 382.15 380.5 361.6Q386 338.4 390.85 306.05L398.75 250Q402.25 226.05 404 194.7Q405.1 174.55 406 138.25Q406.25 128.25 407.8 110.05Q409.4 90.6 409.75 82Q410.55 63.7 412.35 54.55Q410.75 53.35 410.75 51.75Q410.75 49.65 413.65 49.4Q414.15 47.75 414.8 46.8M418.5,65.1Q418.5 75.15 413.25 152.3L409.8 200.65L410.55 200.2Q414.55 197.8 418.5 194.65L419.7 193.7Q420.2 190 422.1 191.65Q434.15 180.85 446.75 162.75Q448.1 160.75 451.3 144.45Q454.5 128.35 454.5 124.1Q454.5 121.6 453 106.2L450.75 85.5Q447.8 65.55 428.9 59.55L418.3 56.9L418.5 65.1M331.45,45.45Q332 45.75 332 47.35Q332 49.55 325 76.7Q318 103.85 318 104.75L311.15 131.3Q304.25 156.9 304.25 159.1Q304.25 161.5 296 182.05Q287.9 202.25 287.5 202.25Q284.8 202.25 284.05 200.65Q283.75 200.05 283.75 198.75Q283.75 197.15 293.5 166.2L304.55 130.4L303.5 130.5Q300.15 130.5 294.2 113.55Q291.9 107 286.5 88.75Q285.35 84.85 278.45 64.85Q272.75 48.3 272.75 46.75L272.8 45.25L273.25 44.5Q282.35 48.25 286.95 61.2Q289.55 68.55 293.25 84L300.65 104.95Q305.05 117.3 306.65 122.95L307 121.5Q312.65 95.5 315.9 82.45Q321.65 59.5 330 45L331.45 45.45M339.9,62.2Q345.8 54.35 352.35 49.7Q370.75 36.7 382 57Q391.3 65.3 394.8 80.55Q397 90.25 397 105Q396.4 132.6 389.75 157.5Q376.65 206.75 346.5 206.75Q328.75 206.75 324.25 188.05Q322.8 182.2 322.9 175.05L323.25 168.85Q323.25 159.65 326.8 123Q330.7 82.5 333.5 73.25Q334.85 68.95 339.9 62.2M339,76.25Q336.7 83.9 333.45 117.4Q330.5 147.6 330.5 154.6L330.1 162.45Q329.85 170.8 330.75 177.5Q333.55 198.75 346.5 198.75Q372.8 198.75 383.5 152.5Q388.9 129.3 389 105.25Q389 91.9 384.35 79.15Q379.65 66.3 372.4 59.8Q364.45 52.75 356.25 55.95Q346.9 59.65 339 76.25M334.15,330.35Q335.55 330.6 336.55 332.8Q337.5 334.95 337.5 338L336.95 360.9Q336.2 387.4 335.05 409.65Q331.3 480.1 325 480.1Q321.45 480.1 320.25 477.4Q319.75 476.2 319.75 474.35Q319.75 465.95 322.4 432.3L325 397.85Q325.8 389.9 326.35 378.75L327.25 359.6L327.3 350.05Q327.4 344.05 328.25 340.1Q330.55 329.75 334.15 330.35M263.25,45.75Q265.55 67.95 266.25 84.75L270 162.6Q271.55 195 282.4 334Q292.5 464.1 292.5 473.5Q292.5 480.35 287 480.35Q278.45 480.35 268.45 333.5L266.05 295.8L264.05 296.35Q249.85 300.35 226.15 300.35Q224.75 314.4 222.9 335.35Q219.05 378.15 216.85 397.9Q208.8 470.6 199 470.6Q196.35 470.6 195.55 468.65Q195.25 467.95 195.25 466.35Q195.25 465.1 196.15 462.25Q197 459.35 197 458.1Q197 453.45 202.75 409.45Q208.75 363.6 212.25 343.35L217.4 297.4Q217.3 297 217.35 296.6L217.5 295.75Q217.5 295.55 217.65 295.3L219.5 278.9Q224.75 232.5 224.75 228.6Q224.75 222.15 232.9 162.9Q241.6 99.5 246.75 73.5Q248.5 56.75 250.65 48.95Q254.6 34.55 263.25 45.75M255.5,88.75Q247.65 130.75 240.3 184.55Q235.85 217.35 228.25 280.6L227.05 291.5Q235.2 289.5 246 288.3L265.55 287.45Q260.25 199.7 255.75 89.25L255.5 88.75M93.25,43.95Q95.75 51 95.75 57.6L95.15 69.35L93.75 86.5L93.75 129.25Q93.35 133.1 92.1 162.9Q90.75 194.65 90.75 204.5Q90.75 210.9 92.2 240.9Q93.6 270.35 94 273.85L94 347.35L94.6 381.35Q95 402.95 95 416.1Q113.75 326.4 127.5 230.6Q130 213.2 133.45 176.6Q138.35 125.6 139.4 115.85Q146.9 45.75 155.5 45.75Q160.85 45.75 160.8 61.8L160.5 75.75Q160.45 83.95 161.25 88.25L161.25 138.5Q163.75 191.15 176.35 334.6L188.25 472.5Q188.25 474.3 187.25 475.85Q185.85 478.1 183 478.1Q174.65 478.1 170.05 410.35Q168.8 391.3 166.9 351.35Q165.05 313 164 298.35Q162.7 280.15 159.95 253.4L155.3 208.4Q150 154.15 150.75 118.5L150.5 118Q145.35 197.6 127 296.35L111 385.45Q94.45 472.85 90 472.85Q85 472.85 84 457.4L84 441.6L86 388.35L85.4 372.7L84 349.35L84 275.85Q83.6 272.35 82.45 242.4Q81.25 212.05 81.25 204.6Q81.25 196.9 82.75 161.75L84.25 127.5L84.25 102L83.75 102Q70.85 167.45 53.3 285.2Q33.95 415.1 24.25 468.35L24.55 468.6L23 468.85Q21.1 468.85 20.25 462.4L19.75 455.6Q19.75 454.35 20.65 450.2L21.5 444.75L23.4 433.6L25.25 421.5Q25.25 412.3 35.5 335.6Q46.45 253.7 53 220.85Q57.15 199.75 61.85 171.2L69.75 121.25Q71.2 112.2 75.15 96.15L81.25 71Q81.85 68.15 82.25 58.5Q82.55 50.55 84.5 46.25Q89.75 34.1 93.25 43.95" />
</g>
</svg>
