<?xml version="1.0" encoding="utf-8"?>
<svg version="1.1" id="Layer_1"
xmlns="http://www.w3.org/2000/svg"
xmlns:xlink="http://www.w3.org/1999/xlink"


xml:space="preserve">
q2.7 1.7 3.45 4.1q-0.45 0 -2.6 -1q-2.45 -1.1 -3.15 -2q-28.4 2.85 -43.7 27.1q-4.3 6.8 -7.05 14.6q22.85 -0.15 27.8 0.8q2.45 0.5 3 1.55q0.2 0.4 0.2 2.4q0 2.5 -0.25 2.25q-0.75 0.5 -23.25 0.5q-2.45 8.55 -2.45 15q0 9.2 5.8 17.7q8.6 12.7 26.2 12.7q27.55 0 45.7 -4.75q9.3 -2.45 16.3 -5.5q-22.9 13.75 -49.25 13.75q-32.3 0 -43.25 -16.75q-5 -7.65 -5 -20.65q0 -7.95 2.4 -17.35q2.95 -11.75 8.8 -21.4q15.8 -26 47.05 -29.1q-2 -0.9 -3.6 -4.25q-5.25 -8.4 -19.5 -8.4q-28.35 0 -38.5 20.3q-4.75 9.5 -4.75 22.8q0 21.9 12.4 47.25q7.4 15.2 27.25 48.65q18.2 33.1 27.2 63.95q12.4 42.35 12.4 93.15q0 23.75 -0.65 29.7q-1.4 12.55 -8.35 34.8q-5.8 18.65 -18.35 37.65q-16.25 24.6 -30.65 24.6q-29.85 0 -41.2 -22.2q-5.8 -11.35 -5.8 -26.3q0 -6.95 2.65 -15.7q0.2 -0.8 5.35 -15.5q1.1 3.05 1.1 5.4q0 4.5 -2.85 13.7q-2.9 9.2 -2.9 9.95q0 2.7 1.3 8q1.65 6.85 4.45 12.6q8.2 16.75 22.25 16.75q42.75 0 60.05 -55.95q5.5 -17.85 7.75 -39.45q1.2 -11.55 1.2 -19.85q0 -47.2 -12.3 -87.4q-8.7 -28.5 -27.05 -62.05q-8.05 -14.55 -12.6 -24.7q-12.3 -27.5 -12.3 -53q0 -23.9 11.45 -38.45q9.9 -12.55 25.2 -14.9q14.35 -2.25 25.15 5.3q11.45 8 11.45 22.3q0.3 0.55 0.3 2.15q0 1.05 -10.95 9.35q-16.25 12.2 -26.75 20.25q-43.2 33.25 -63.55 55.9q0.3 0.55 0.3 2.15q0 -6.8 47.15 -46q23.65 -19.75 48.6 -39.1q-0.15 -0.45 -0.15 -2q0 -1.75 0.2 -2.3q0.15 -0.4 0.8 -0.8q-9.15 14.9 -17.55 23q-1.1 -1.05 -1.1 -1.75q0 -0.4 35.25 -50.75q7.25 -7.45 17.35 -23.55q10.95 -17.5 15.65 -22.95q9.6 15.15 15.2 23.35q-0.45 0.45 -1.05 0.6q-5.05 -8.4 -14.55 -22.65q-7.4 8.5 -16.5 22.55q-7.2 -14.55 -9.75 -23.65q-0.25 -0.15 -0.25 -2.65q0 -1.55 0.15 -2.35q27.55 5.6 36.9 18.15q6.1 8.15 6.1 24.7q0 8.4 -4.5 15.4q-6.85 10.75 -21.75 10.75q-1.8 -2.25 -1.8 -4.05q-0.05 -0.4 1.5 -0.4q0.55 14.8 0.75 41.15q0 1.95 -0.6 7.5q0.95 1 2.2 1q21.35 0 31 -8.75q5.75 -5.25 5.75 -10.65q0 -13.25 -7.2 -21.55q-9.2 -10.6 -31.05 -15.35q0.3 0.05 0.25 0.15q-0.95 0 -2.55 -1.9q-5.45 -6.15 -11.85 -6.15q-28 0 -40.5 43.75q-2.3 8.1 -3.85 16.5q10.35 0 10.35 -0.25q0.35 0.85 0.35 2.55q0 1.6 -0.35 2.2q-3.35 -0.65 -3.75 -1.05q-1.6 11 -1.95 22.45q0 20.35 8.05 34.9q9.05 16.45 24.45 16.45q23.6 0 33.4 -9.2q5.25 -4.9 7.6 -12.8q3.4 -7.15 6.2 -8.9q-3.5 23 -17.75 37.75q-12.75 13.25 -26.65 13.25q-32 0 -40.85 -27.5q-2.85 -8.85 -3.05 -20.3q-0.1 -6.5 0.5 -10.55q1 -6.9 10.75 -35.15q4.7 -13.7 13.2 -22.15q7.75 -7.65 17.1 -9.5q8.95 -1.8 16.7 2.3q7.95 4.2 12 13.35q0.5 -2.5 3.55 -3q3.5 -0.5 8.1 1.75q4.9 2.45 8.1 6.7q3.65 4.95 3.65 10.75q0 3.8 -2.8 6.2q-3.7 2.55 -6.8 5.15q1.35 2.15 7 8.2q5 5.4 5 6.05q0 1.6 -0.55 2.25q-4.1 -3.25 -12.95 -16.45q-0.85 8.7 -0.85 15.7q0 1.3 -0.65 3.55q-0.75 2.5 -0.85 3.95q-0.25 -0.1 -0.25 -2.6q0 -11.25 2.5 -21.05q-0.5 -0.75 -0.5 -2.55q0.4 -0.1 1.05 0.55q1.3 -8.55 1.3 -20.95q0 -1.55 0.5 -2.05q0.95 0.2 1.85 0.7q6.15 -1.3 9.4 -4.45q3 -2.95 3 -6.75q0 -1.05 -1.45 -2.95q-1.6 -2.15 -4.05 -3.8q-6.5 -4.35 -14.3 -2.1q0.5 1.6 0.55 3.75q-2.35 -1.75 -6.35 -1.75q-17.8 0 -26.15 2.65q-2.6 0.85 -4.25 1.95q-0.25 -1.25 -0.25 -3.75q0 -11.8 3.65 -43.5q3.6 -31.75 3.6 -61.35q0 -3 0.25 -4.75q0.95 4.35 1.45 11.7q0 14.6 -3.35 39.95q-3.4 25.35 -3.4 35.65q0 6.75 0.25 9.25q3.85 -2.6 13.5 -4q16.85 0 24.95 2.8q5.3 1.8 5.3 3.7q-0.35 0.35 -1.9 0.35q-2.1 0 -4.5 -1.75q1.3 20.85 5.55 47.25q2.2 13.95 8.45 47.25q5.15 -30.35 10.15 -48.4q0 2.1 -7.6 45.45q-8.5 48.55 -10.4 61.8q-5.35 -17.2 -9.55 -45.85q-4.15 -31.75 -6.7 -46.4q-2.85 30.45 -5.2 44.7q-4.1 25.25 -11.8 44.8q0 -5.9 5 -27q1.85 -14 2.8 -25.6q1.2 12.75 1.45 13.9q0.85 73.3 6.25 137.9q3.3 39.8 11.25 103.05q7.9 63.6 10.7 96.7q4.8 56.95 4.8 118.95q0 1.9 -0.55 4.65q-0.75 4 -2.2 5.35q-2.8 -25 -4.65 -57.95q-3.35 -73.1 -10.35 -115.8q-4.2 3 -15.95 6.65q-16.75 5.25 -23.75 5.25q-1.55 16.4 -2.95 36.65q-6.7 76.75 -24.75 126.75q-0.25 -0.35 -0.25 -1.8q0 -2.3 2.9 -17.3q9.75 -53.25 11.05 -83.45q1.25 -30.5 4.9 -67.65q2.35 -23.7 7.6 -67.2q3 -25.65 7.25 -67.3q1.55 -20.3 4.3 -33.65q1.8 -8.75 3.9 -35.9q1.7 -21.6 5.6 -30.35q2.75 4.8 3.55 13.85q-4.3 56.3 -12.35 127.5q-5.2 45.95 -15.65 128.1q13.35 -1.9 24.55 -4.9q12.2 -3.35 19.55 -4.65q-5.05 -39.25 -7.8 -92.6q-3.15 -77.35 -5.95 -115.8q0.65 8.1 1 23.7q0 13.85 -3.05 41.9q-2.9 26.55 -5.2 36.85q-3 -3 -3 -5.75q0 -3 3.4 -52q3.25 -46.35 2.6 -56q0.3 -3.3 0.55 -4.7q0.55 -2.65 1.7 -3.8q0.85 2 1.25 4.5q0 11.65 1 16.9q0.6 30.15 4.5 77.55q1.7 20.9 8.05 88.8q11.2 119.2 11.2 173.65q0 5.6 -0.5 8.6q-5.5 -33.7 -8.75 -86.15q-4.65 -74.85 -5.75 -86.85q-8.65 -95 -12 -172.35q-0.65 -5.5 -0.85 -12.85q-0.15 -4.4 -0.15 -13.4q-6.6 40.8 -21.85 123.2q-12.9 73.7 -17.15 123.4q-1.35 16 -6.25 61.2q-4.2 39.1 -5.75 61.8q-2.85 35.95 -9.65 61.65q-1.8 -1.5 -2.25 -4.25q0.65 -9.9 0.9 -28.75q0 -41.8 -2.2 -78.7q-3.35 -48.4 -5.8 -86.55q-1.75 -18.15 -3.7 -48.35q-1.95 -10.25 -2.25 -16.5q-11.95 85.75 -36.4 280.75q-22.15 168.8 -37.85 240.1q-0.2 -0.3 -0.2 -1.95q0 -2.4 9.4 -58.05q10 -59.15 11.85 -78.85q2.05 -21.15 8.6 -67.75q6.35 -45.15 8.4 -67.85q2.55 -28.15 8.65 -67.95q3.7 -45.05 6.15 -68q4.25 -40.5 12.6 -66.25q2.4 5.9 3.25 18.35q0.9 13.35 2.5 18.4q3.35 23.45 5.05 59.85q9.9 -141.05 21.25 -253.35q2.8 -27.95 8.35 -63.35q4.15 -26.3 10.9 -63.4q7.6 -47.9 11.75 -71.25q7.3 -41.2 14.75 -55q2 5.15 2 13.1q0.45 0.75 0.45 2.35q0 8.3 -2.95 29.9q-2.65 19.65 -4.05 25.2q0 -1.45 3 -24.3q3 -23.4 3.25 -30.35q7.85 1.55 17.05 13.05q3.65 4.55 6.35 9.05q14 -14.95 20.6 -20.85q0.25 0.4 0.55 0.45q0.2 0.25 0.2 1.8q0 1.15 -16.45 19.75q-18.9 21.35 -25.55 31.25q-1.2 -0.4 -1.55 -1q-0.45 -0.7 -0.45 -2.5q0 -4.7 19.9 -25.95q-4.15 -3.65 -11.15 -11.1q-9.75 -10.4 -9.75 -11.55q0 -1.55 0.15 -2.15<g id="683" transform="matrix(1, 0, 0, 1, -8.5, 0)">
<path style="fill:#000000;fill-opacity:1" d="M518.25,8.5L523.05 11.65Q525.75 13.35 526.5 15.75L525.95 16.65L523.75 17Q523.3 17 521.15 16Q518.7 14.9 518 14L491 14.25Q462.6 17.1 447.3 41.35Q443 48.15 440.25 55.95L447 56.4L458.25 57L466.55 56.45L482 55.5Q504.85 55.35 509.8 56.3Q512.25 56.8 512.8 57.85Q513 58.25 513 60.25Q513 62.75 512.75 62.5Q512 63 489.5 63L446.5 61.5L446 60.75L438.85 60.35L438.7 60.85Q436.25 69.4 436.25 75.85Q436.25 85.05 442.05 93.55Q450.65 106.25 468.25 106.25Q495.8 106.25 513.95 101.5Q523.25 99.05 530.25 96L530.95 97.2L531.25 99.75Q508.35 113.5 482 113.5Q449.7 113.5 438.75 96.75Q433.75 89.1 433.75 76.1Q433.75 68.15 436.15 58.75Q439.1 47 444.95 37.35Q460.75 11.35 492 8.25L518.25 8.5M533.45,144.45L533.25 144.75Q531.25 143.85 529.65 140.5L526.5 134.15Q521.25 125.75 507 125.75Q478.65 125.75 468.5 146.05Q463.75 155.55 463.75 168.85Q463.75 190.75 476.15 216.1Q483.55 231.3 503.4 264.75Q521.6 297.85 530.6 328.7Q543 371.05 543 421.85Q543 445.6 542.35 451.55Q540.95 464.1 534 486.35Q528.2 505 515.65 524Q499.4 548.6 485 548.6Q455.15 548.6 443.8 526.4Q438 515.05 438 500.1Q438 493.15 440.65 484.4Q440.85 483.6 446 468.9L446.65 470.45Q447.75 473.5 447.75 475.85Q447.75 480.35 444.9 489.55Q442 498.75 442 499.5Q442 502.2 443.3 507.5Q444.95 514.35 447.75 520.1Q455.95 536.85 470 536.85Q512.75 536.85 530.05 480.9Q535.55 463.05 537.8 441.45Q539 429.9 539 421.6Q539 374.4 526.7 334.2Q518 305.7 499.65 272.15L485.15 246.3Q477.1 231.75 472.55 221.6Q460.25 194.1 460.25 168.6Q460.25 144.7 471.7 130.15Q481.6 117.6 496.9 115.25Q511.25 113 522.05 120.55Q533.5 128.55 533.5 142.85L533.45 144.45M412.95,12.85Q413.25 13.4 413.25 15Q413.25 16.05 402.3 24.35Q386.05 36.55 375.55 44.6Q332.35 77.85 312 100.5L353.3 99.05L388 96.75L409.25 97L414.7 98L424.25 99L424.95 99.85Q425.25 100.4 425.25 102L424.95 104.15L424.25 105L417 104.5L413.2 104.2L409 103.5L398.3 103.7L387 104.25L362.65 105.4L327 107.25L305.5 107L304.95 105.95L304.75 103.6Q304.75 96.8 351.9 57.6Q375.55 37.85 400.5 18.5L383.8 17.5L378 16.5L362.9 15.5L356 14.5L332.8 13.7L322.5 12.75L322.15 12.1Q322 11.65 322 10.1Q322 8.35 322.2 7.8Q322.35 7.4 323 7L333.35 7.55L357 8.5L372.75 10.2L385.5 11.5L412.25 12L412.95 12.85M349.55,143.5Q340.4 158.4 332 166.5L330.35 165Q329.25 163.95 329.25 163.25Q329.25 162.85 364.5 112.5L384.25 158.75Q391.5 151.3 401.6 135.2Q412.55 117.7 417.25 112.25L431.8 134.9Q441.4 150.05 447 158.25L447 162.75L446.55 163.15Q446.1 163.6 445.5 163.75Q440.45 155.35 430.95 141.1L417 120Q409.6 128.5 400.5 142.55L385 166L374 143.65Q366.8 129.1 364.25 120L349.55 143.5M395.25,166.75Q395 166.6 395 164.1Q395 162.55 395.15 161.75L395.25 161.25Q422.8 166.85 432.15 179.4Q438.25 187.55 438.25 204.1Q438.25 212.5 433.75 219.5Q426.9 230.25 412 230.25L398.5 230L395.05 226.3Q393.25 224.05 393.25 222.25L393.1 221.9Q393.05 221.5 394.6 221.5L394.8 221.5L394.75 219.6L396.4 167L395.25 166.75M397.5,167.2Q398.05 182 398.25 208.35Q398.25 210.3 397.65 215.85L396.8 222.5Q397.75 223.5 399 223.5Q420.35 223.5 430 214.75Q435.75 209.5 435.75 204.1Q435.75 190.85 428.55 182.55Q419.35 171.95 397.5 167.2M479.25,296.85Q479.55 296.9 479.5 297L477.85 297.1Q476.9 297.1 475.3 295.2L471.85 291Q466.4 284.85 460 284.85Q432 284.85 419.5 328.6Q417.2 336.7 415.65 345.1Q426 345.1 426 344.85L446.3 346.1L465.25 347.35L466.15 348.55Q466.5 349.4 466.5 351.1Q466.5 352.7 466.15 353.3L465 354.6L451 354.85L445.75 354.15Q442.4 353.5 442 353.1L414.5 352.35L414.45 352.3Q412.85 363.3 412.5 374.75Q412.5 395.1 420.55 409.65Q429.6 426.1 445 426.1Q468.6 426.1 478.4 416.9Q483.65 412 486 404.1L491.3 393Q494.7 385.85 497.5 384.1Q494 407.1 479.75 421.85Q467 435.1 453.1 435.1Q421.1 435.1 412.25 407.6Q409.4 398.75 409.2 387.3L409.5 375L409.25 358.05Q409.15 351.55 409.75 347.5Q410.75 340.6 420.5 312.35Q425.2 298.65 433.7 290.2Q441.45 282.55 450.8 280.7Q459.75 278.9 467.5 283Q475.45 287.2 479.5 296.35L479.25 296.85M329.5,331.7L329.6 331.65Q330.1 329.15 333.15 328.65Q336.65 328.15 341.25 330.4Q346.15 332.85 349.35 337.1Q353 342.05 353 347.85Q353 351.65 350.2 354.05Q346.5 356.6 343.4 359.2L347.25 367.35Q348.6 369.5 354.25 375.55Q359.25 380.95 359.25 381.6Q359.25 383.2 358.7 383.85L357.25 385.35Q353.15 382.1 344.3 368.9L338.7 360.3L329.35 360.15Q328.5 368.85 328.5 375.85Q328.5 377.15 327.85 379.4Q327.1 381.9 327 383.35L326.6 383.8L326 384.6L324.25 384.35Q324 384.25 324 381.75Q324 370.5 326.5 360.7L326.9 359.1L326.5 358.65Q326 357.9 326 356.1L326 354.6L326.25 353.85Q326.65 353.75 327.3 354.4L327.7 354.7Q329 346.15 329 333.75Q329 332.2 329.5 331.7M332,338L330.25 352.1L329.9 355.1L336.35 354.7L336.65 353.95L337 353.6Q337.95 353.8 338.85 354.3Q345 353 348.25 349.85Q351.25 346.9 351.25 343.1Q351.25 342.05 349.8 340.15Q348.2 338 345.75 336.35Q339.25 332 331.45 334.25Q331.95 335.85 332 338M350.35,328.1Q348 326.35 344 326.35Q326.2 326.35 317.85 329Q315.25 329.85 313.6 330.95L312 332.1L310 331.85Q309.75 330.6 309.75 328.1Q309.75 316.3 313.4 284.6Q317 252.85 317 223.25Q317 220.25 317.25 218.5L318.25 218.5Q319.2 222.85 319.7 230.2L320 238.75Q320 253.35 316.65 278.7Q313.25 304.05 313.25 314.35Q313.25 321.1 313.5 323.6Q317.35 321 327 319.6Q343.85 319.6 351.95 322.4Q357.25 324.2 357.25 326.1L357 329.1L356.75 329.5Q356.4 329.85 354.85 329.85Q352.75 329.85 350.35 328.1M342.75,389.35Q344.05 410.2 348.3 436.6Q350.5 450.55 356.75 483.85L356.75 484.1L365.1 434.25Q370.25 403.9 375.25 385.85L376.05 387.75L376.25 390.35Q376.25 392.45 368.65 435.8Q360.15 484.35 358.25 497.6Q352.9 480.4 348.7 451.75Q344.55 420 342 405.35Q339.15 435.8 336.8 450.05Q332.7 475.3 325 494.85L324.45 494.05L324.25 491.75Q324.25 485.85 329.25 464.75L335 440.35L338.7 414.95Q340.55 400.95 341.5 389.35L342.75 389.35M269.8,16.85Q271 29.6 271.25 30.75L271.25 83.25Q272.1 156.55 277.5 221.15Q280.8 260.95 288.75 324.2Q296.65 387.8 299.45 420.9Q304.25 477.85 304.25 539.85Q304.25 541.75 303.7 544.5Q302.95 548.5 301.5 549.85Q298.7 524.85 296.85 491.9L294.1 433.9Q290.75 360.8 283.75 318.1L281.7 304.45Q277.5 307.45 265.75 311.1Q249 316.35 242 316.35L235.35 316.15Q233.8 332.55 232.4 352.8L227.75 417.1Q221.05 493.85 203 543.85L202.75 543.4Q202.5 543.05 202.5 541.6Q202.5 539.3 205.4 524.3L211.95 490.05Q221.7 436.8 223 406.6Q224.25 376.1 227.9 338.95Q230.25 315.25 235.5 271.75Q238.5 246.1 242.75 204.45L249.75 136.75L252.45 102.9Q254 82.6 256.75 69.25Q258.55 60.5 260.65 33.35Q262.35 11.75 266.25 3Q269 7.8 269.8 16.85M266.5,34L266.25 33.5Q261.95 89.8 253.9 161Q248.7 206.95 238.25 289.1L236.4 305.2Q249.75 303.3 260.95 300.3Q273.15 296.95 280.5 295.65Q275.45 256.4 272.7 203.05Q269.55 125.7 266.75 87.25L266.75 34.75L266.5 34M300.5,55.75L301 60.25L301 156.25Q301.65 164.35 302 179.95L302.25 196Q302.25 209.85 299.2 237.9Q296.3 264.45 294 274.75Q291 271.75 291 269Q291 266 294.4 217Q297.65 170.65 297 161L297 59.75Q297.3 56.45 297.55 55.05Q298.1 52.4 299.25 51.25Q300.1 53.25 300.5 55.75M175.5,17.6L173.5 60.35Q173.5 72 174.5 77.25L174.5 198Q175.1 228.15 179 275.55Q180.7 296.45 187.05 364.35Q198.25 483.55 198.25 538Q198.25 543.6 197.75 546.6L197.05 547.05L196 547.85Q190.5 514.15 187.25 461.7Q182.6 386.85 181.5 374.85Q172.85 279.85 169.5 202.5L169.5 81Q168.85 75.5 168.65 68.15Q168.5 63.75 168.5 54.75L168.25 54.25Q161.65 95.05 146.4 177.45Q133.5 251.15 129.25 300.85Q127.9 316.85 123 362.05Q118.8 401.15 117.25 423.85L113.65 484.95Q110.8 520.9 104 546.6Q102.2 545.1 101.75 542.35L101.75 458.35Q102.4 448.45 102.65 429.6L102.75 410.75Q102.75 368.95 100.55 332.05Q97.2 283.65 94.75 245.5L94.75 187Q93 168.85 91.05 138.65L87.75 90.25L87.75 43.75Q85.8 33.5 85.5 27.25L85.25 27.25Q73.3 113 48.85 308Q26.7 476.8 11 548.1L10.2 547.7Q10 547.4 10 545.75Q10 543.35 19.4 487.7Q29.4 428.55 31.25 408.85Q33.3 387.7 39.85 341.1Q46.2 295.95 48.25 273.25Q50.8 245.1 56.9 205.3L67.75 137.5Q71.45 92.45 73.9 69.5Q78.15 29 86.5 3.25Q88.9 9.15 89.75 21.6Q90.65 34.95 92.25 40L92.25 86.5L95.8 135.25L99.25 184L99.25 241.75Q102.6 265.2 104.3 301.6L107.25 362.35L107.25 459.1L106.25 462.85L106.25 510.85L106.5 510.85Q116.4 369.8 127.75 257.5Q130.55 229.55 136.1 194.15Q140.25 167.85 147 130.75Q154.6 82.85 158.75 59.5Q166.05 18.3 173.5 4.5Q175.5 9.65 175.5 17.6M318.05,439.65Q318.5 440.4 318.5 442Q318.5 450.3 315.55 471.9Q312.9 491.55 311.5 497.1L310.5 497.35L310.05 495.7L310 493.25Q310 491.8 313 468.95Q316 445.55 316.25 438.6L317.25 438.6L318.05 439.65M341.25,493.35Q349.1 494.9 358.3 506.4Q361.95 510.95 364.65 515.45Q378.65 500.5 385.25 494.6Q385.5 495 385.8 495.05Q386 495.3 386 496.85Q386 498 369.55 516.6Q350.65 537.95 344 547.85Q342.8 547.45 342.45 546.85Q342 546.15 342 544.35Q342 539.65 361.9 518.4Q357.75 514.75 350.75 507.3Q341 496.9 341 495.75Q341 494.2 341.15 493.6L341.25 493.35" />
</g>
</svg>
