<?xml version="1.0" encoding="utf-8"?>
<svg version="1.1" id="Layer_1"
xmlns="http://www.w3.org/2000/svg"
xmlns:xlink="http://www.w3.org/1999/xlink"


xml:space="preserve">
q0.85 0.75 1.3 2.45q39 18.5 59.3 47.45q7.65 10.9 14.3 25.6q6.75 12.65 16.5 47.65q10.5 37.7 10.5 54.35q0 24.55 -10.7 60.75q-5.45 18.4 -20.55 59.1q-7.35 19.8 -12.2 30.2q-8.1 17.2 -18.4 30.6q-26.35 34.25 -76.65 55.45q-2.5 -3.2 -2.5 -7.5q6.75 -71.9 13.5 -152.5q13.5 -161.2 13.5 -207.35q0 -7.1 -1.5 -21.35q-1.5 -14.25 -1.5 -21.4q0 -4.6 1.2 -14.45q1.4 -11.9 3.05 -13.55q0 8 1.65 24q1.6 16 1.6 38.25q0 38.7 -3.2 82.75q-4.55 62.95 -5.8 91.85q-1.8 40.5 -9 87q-1.45 9.25 -4.5 46.55q-0.35 4.5 -1.25 9.75q43.5 -17.95 68.1 -50.45q9.2 -12.1 17.55 -28.65q7.95 -22.55 15.55 -47.3q15.2 -49.35 15.2 -63.95q0 -13 -12.25 -53.6q-10.75 -35.55 -15.25 -45q-6.55 -14.7 -14.55 -24.7q-6.1 -7.6 -31.95 -27.85q-18.05 -14.15 -22.25 -18.3q3.9 1.7 5.65 6.5q1 2.65 2.1 7.6q-0.8 -0.75 -2.95 -5.8q-1.85 -4.4 -4.8 -5.7q-10.4 24 -13.45 58.55q-1.5 16.85 -2.65 48q0.2 0.5 0.2 2.15q0 1.6 -0.3 2.15q-0.5 2.7 -1 8.35q-0.5 6 -1 8.9q-0.3 1 -0.3 2.6q0 2.95 1.25 6.05q1.7 4.2 4.75 4.2q15.65 0 25.6 -22.4q3.4 -7.65 6.2 -18.25q-1.2 18.55 -9.2 37.45q-10.2 24.05 -24.3 24.05q-8.15 0 -10.5 -8.95q-0.75 -2.8 -0.8 -6.3q0 -6.4 1 -9.4q1.3 -15.2 1.5 -44.95q0.15 -29.55 1.5 -44.9q0.85 -7.7 1.15 -22.7q0.3 -15.8 1 -23.1q2.5 -27.05 16.1 -43.45q-1.4 8.25 -1.4 15.3q0 10.1 2.15 41.15q2.1 31 2.1 65q0 48.15 -0.75 61.25q-1.4 23.45 -8.75 75.1q-1.6 -1.35 -2.3 -5q-0.45 -2.2 -0.45 -4q0 -5.35 1.3 -16.65q4.1 -40.05 4.1 -85.65q0 -24.45 5 -28.85q0.75 1.15 1 2.05q4.2 56.25 10.35 97.75q0.6 1.35 0.6 3q0 1.65 -0.6 3q3.65 33.1 5 70q0.6 17.75 7.5 58.5q3.45 20.35 6.75 37.9q0 2 -0.6 5.1q-0.75 3.95 -1.9 5.5q-13.5 -38.1 -17.3 -97.65q-0.9 -15.95 -2.1 -29.2q-5.1 44 -12.8 76.3q-1.05 -0.9 -1.45 -2.05q-0.3 -0.95 -0.3 -2.95q0 -1.3 7.75 -62.5q8.2 -64.6 9.75 -88q-1.4 -0.45 -2.2 -1.05q-1.4 -1 -1.45 -2.6q0 -3.45 0.3 -4.3q0.35 -0.8 1.45 -0.4q4.95 -68.15 7.75 -102q4.9 -58.55 11 -99.5q1.95 3.85 1.5 9q-0.75 10.7 -4.35 37.45q-3.3 24.7 -3.9 38.3q-0.55 11.95 -1.25 37.5q-0.85 23.05 -2.5 37.5q-6.5 -47.65 -10.65 -98.1q-4.1 -49.6 -5.6 -98.25q1 5.25 1 16.25q17.15 0.75 21.15 2.1q1.65 0.55 1.9 1.45q0 2.25 -0.2 2.3q0 -24 0.5 -36.25q0.5 3 0.75 9.75q1.85 35.55 6.4 90.3q1.75 23.35 13.15 102.3q10.85 74.95 10.85 78.7q0 3.3 -2.25 6q-5.5 -9.85 -7.7 -22.9q-1.25 -7.3 -2.3 -23.85q-0.6 -9.35 -2.75 -23.65q-3.9 -29.35 -5.85 -46.45q-3.05 -26.45 -4.4 -47.3q-1.4 -22.35 -7.35 -93.65q-4.95 -59.1 -6.4 -93.7q-2.2 34 -4.7 92.35q-6.05 109.3 -20.05 184.6q-3.9 -8.55 -4.55 -23.2q-0.25 -9.4 -1.45 -24.05q-7.2 -74.35 -8.7 -94.7q-4.1 -54.35 -3.3 -95.65q-3.2 33.7 -10.6 95.15q-8.05 66.75 -10.9 94.45q-1.55 15.2 -4.1 47.1q-2.45 31.55 -4.15 47.75q-5.8 56.05 -17.75 94.65q-0.95 -0.95 -1.2 -1.65q-0.3 -0.75 -0.3 -2.6q0 -2.15 3.9 -26.25q5.5 -34.2 8.6 -55.25q12.6 -85.85 13 -132.85q12.2 -127.4 25 -213.75q1.55 1.9 2 4.5q2.9 66.5 12.4 181.4q10.95 133 13.85 181.2q5.3 -45.2 9.4 -105.85q2.3 -33.95 6.3 -108.35q3.75 -69.2 6.25 -103.9q4 -54.75 9.3 -92.5q1.35 2 1.75 4.5q6.2 32.35 6.2 33.85q-6.1 -17.85 -8.65 -27.45q-4.2 -15.7 -4.6 -27.15q-0.85 9.7 -4.45 25.65q-4.45 19.75 -5.55 26.7q-0.6 -5.6 -1.7 -27q-0.85 -16.65 -2.8 -26.85q-3.1 15.85 -6.95 25.65q-0.4 -0.25 -0.4 -1.9q0 -1.45 5.9 -28.35q6.45 -29.6 8.1 -40.9q1.3 12.05 2.45 29.5q4.35 -11.65 7.1 -29.8q0.4 5.25 6.8 38.4q1.1 0.2 1.6 0.8q0.65 0.75 0.65 2.45q0 5 -4.05 35q-4.65 34.25 -8.2 46.5q-5.2 -22 -8.2 -37.45q-0.75 8 -4.7 33.45q-3.25 21.1 -3.55 33.55q-0.4 -0.4 -0.55 -1q0 -13.4 4.35 -39.65q4.95 -29.95 5.65 -39.35q6.85 26.85 17.75 79.5q3.6 -13.6 5.3 -37.2q2.2 -30 3.45 -38.3q-1.45 0 -6.3 -1.75q-4.85 -1.75 -11.8 -1.75q-16.75 0 -28.2 22.8q-2.75 5.45 -4.85 11.65q0.2 0.5 0.2 2.15q0 1.6 -0.3 2.15q-4.5 1 -7 1q-1.75 6 -1.75 7.7q0 11.15 4.3 19.5q6.9 13.5 23.2 13.5q11.5 0 25.5 -6.35q8.5 -3.9 14 -7.9q0.8 0.3 0.95 0.8q-3.15 6.4 -13.2 12.8q-11.7 7.45 -23.05 7.45q-20.45 0 -29.5 -13.5q-5.75 -8.6 -5.75 -19.5q0 -11.5 0.6 -16.6q0.75 -7 3.4 -12.55q4.45 -9.45 25.25 -31.1q18.95 1.1 23.75 3.2q1.3 0.55 3.05 2q1.65 1.45 3.7 2.3<g id="682" transform="matrix(1, 0, 0, 1, -27.5, 0)">
<path style="fill:#000000;fill-opacity:1" d="M400.25,53.5Q401.1 54.25 401.55 55.95L402.5 54.25Q441.5 72.75 461.8 101.7Q469.45 112.6 476.1 127.3L486.5 152.5Q493.25 165.15 503 200.15Q513.5 237.85 513.5 254.5Q513.5 279.05 502.8 315.25Q497.35 333.65 482.25 374.35Q474.9 394.15 470.05 404.55Q461.95 421.75 451.65 435.15Q425.3 469.4 375 490.6L374.9 490.5L374.5 491.6Q372 488.4 372 484.1Q378.75 412.2 385.5 331.6Q399 170.4 399 124.25Q399 117.15 397.5 102.9Q396 88.65 396 81.5Q396 76.9 397.2 67.05Q398.6 55.15 400.25 53.5M401.7,66.55L400 81.25Q400 89.25 401.65 105.25Q403.25 121.25 403.25 143.5Q403.25 182.2 400.05 226.25Q395.5 289.2 394.25 318.1Q392.45 358.6 385.25 405.1Q383.8 414.35 380.75 451.65L379.65 463.6L380.25 463.6Q379.9 468.1 379 473.35Q422.5 455.4 447.1 422.9Q456.3 410.8 464.65 394.25L477.75 366.35Q485.7 343.8 493.3 319.05Q508.5 269.7 508.5 255.1Q508.5 242.1 496.25 201.5Q485.5 165.95 481 156.5L470.8 132.45Q464.25 117.75 456.25 107.75Q450.15 100.15 424.3 79.9Q406.25 65.75 402.05 61.6L401.7 66.55M352.25,161.75Q356.15 163.45 357.9 168.25Q358.9 170.9 360 175.85L359.5 177.75L359 178.25Q358.2 177.5 356.05 172.45Q354.2 168.05 351.25 166.75L344.75 167Q334.35 191 331.3 225.55Q329.8 242.4 328.65 273.55L340 272.5L341.9 272.2L355.25 272.25L355.8 273.1Q356 273.6 356 275.25Q356 276.85 355.7 277.4L355 278L340.2 278.7L335.5 279L328.5 278.8L328.25 285.1L328.25 327.1Q327.75 329.8 327.25 335.45Q326.75 341.45 326.25 344.35L326.25 390.1L325.55 392Q325.25 393 325.25 394.6Q325.25 397.55 326.5 400.65Q328.2 404.85 331.25 404.85Q346.9 404.85 356.85 382.45Q360.25 374.8 363.05 364.2L366.5 349.85L367.25 349.6L367.5 351.1Q366.3 369.65 358.3 388.55Q348.1 412.6 334 412.6Q325.85 412.6 323.5 403.65Q322.75 400.85 322.7 397.35L322.75 394.25Q322.75 387.85 323.75 384.85L323.75 340.6Q325.05 325.4 325.25 295.65Q325.4 266.1 326.75 250.75Q327.6 243.05 327.9 228.05Q328.2 212.25 328.9 204.95Q331.4 177.9 345 161.5L352.25 161.75M269.25,53.3L269.5 56.1L268.15 64.8Q266.75 73.05 266.75 80.1Q266.75 90.2 268.9 121.25Q271 152.25 271 186.25Q271 234.4 270.25 247.5Q268.85 270.95 261.5 322.6Q259.9 321.25 259.2 317.6Q258.75 315.4 258.75 313.6Q258.75 308.25 260.05 296.95L262.9 271.9Q267 231.85 267 186.25L265.25 116.5L264.25 98.3L263.25 80.1Q263.25 55.65 268.25 51.25Q269 52.4 269.25 53.3M224,97L230.4 194.85Q234.6 251.1 240.75 292.6L243.05 309.55L244.25 309.6L245.65 311.85Q246.25 313.2 246.25 314.85Q246.25 316.5 245.65 317.85L244.25 320.1Q247.9 353.2 249.25 390.1Q249.85 407.85 256.75 448.6Q260.2 468.95 263.5 486.5Q263.5 488.5 262.9 491.6Q262.15 495.55 261 497.1Q247.5 459 243.7 399.45L241.15 349.9Q240.25 333.95 239.05 320.7L221 322.1L208.25 321.45L208.25 337.1L200.8 412.8Q195.7 456.8 188 489.1Q186.95 488.2 186.55 487.05Q186.25 486.1 186.25 484.1Q186.25 482.8 194 421.6Q202.2 357 203.75 333.6L203.75 320.45Q202.35 320 201.55 319.4Q200.15 318.4 200.1 316.8L200.25 314.1Q200.25 310.65 200.55 309.8Q200.9 309 202 309.4L203.75 310.1L203.75 249.75Q208.7 181.6 211.5 147.75Q216.4 89.2 222.5 48.25Q224.45 52.1 224 57.25L224 97M220.25,103.25Q219.5 113.95 215.9 140.7Q212.6 165.4 212 179Q211.45 190.95 210.75 216.5Q209.9 239.55 208.25 254L208.25 311.45L210.75 311.6L222.4 310.5L234 309.35L237.9 309.45L236.75 300.1Q230.25 252.45 226.1 202Q222 152.4 220.5 103.75L220.25 103.25M283,168.75L283 219Q284 224.25 284 235.25L285 235Q302.15 235.75 306.15 237.1Q307.8 237.65 308.05 238.55L308 240.25Q308 242.5 307.8 242.55L308.3 242.75L307 243L282.25 241.75L281.55 213.8L281 195.25Q281 171.25 281.5 159L282.25 159Q282.75 162 283 168.75M139.25,50.75L139.25 119.75Q141.1 155.3 145.65 210.05L153.25 301.1Q155 324.45 166.4 403.4Q177.25 478.35 177.25 482.1Q177.25 485.4 175 488.1Q169.5 478.25 167.3 465.2Q166.05 457.9 165 441.35Q164.4 432 162.25 417.7L158.75 394.1Q154.85 364.75 152.9 347.65Q149.85 321.2 148.5 300.35Q147.1 278 141.15 206.7Q136.2 147.6 134.75 113L134.5 113Q132.3 147 129.8 205.35L125.55 298Q119.5 407.3 105.5 482.6Q101.6 474.05 100.95 459.4L100.75 435.35Q100.5 425.95 99.3 411.3L97.25 387.35L93.15 339.85L89 292.1Q81.8 217.75 80.3 197.4Q76.2 143.05 77 101.75L76.5 101.75Q73.3 135.45 65.9 196.9Q57.85 263.65 55 291.35Q53.45 306.55 50.9 338.45Q48.45 370 46.75 386.2Q40.95 442.25 29 480.85Q28.05 479.9 27.8 479.2Q27.5 478.45 27.5 476.6Q27.5 474.45 31.4 450.35Q36.9 416.15 40 395.1Q52.6 309.25 53 262.25Q65.2 134.85 78 48.5Q79.55 50.4 80 53L80 94.25Q82.9 160.75 92.4 275.65Q103.35 408.65 106.25 456.85Q111.55 411.65 115.65 351Q117.95 317.05 121.95 242.65Q125.7 173.45 128.2 138.75Q132.2 84 137.5 46.25Q138.85 48.25 139.25 50.75M309.05,288.65Q315.25 321 315.25 322.5L314.95 324.85L314.25 325.85Q308.15 308 305.6 298.4Q301.4 282.7 301 271.25L300.75 270.75Q299.9 280.45 296.3 296.4Q291.85 316.15 290.75 323.1L290.45 323.4L290 323.85L288.25 323.6Q287.65 318 286.55 296.6Q285.7 279.95 283.75 269.75L278.95 296.45Q275.85 312.3 272 322.1L270.65 321.9Q270.25 321.65 270.25 320Q270.25 318.55 276.15 291.65Q282.6 262.05 284.25 250.75L285.25 250.5Q286.55 262.55 287.7 280L289.5 309.6L289.75 310.1Q294.1 298.45 296.85 280.3L301.5 250.25L302.25 250.25Q302.65 255.5 309.05 288.65M302,328.85Q303.1 329.05 303.6 329.65Q304.25 330.4 304.25 332.1Q304.25 337.1 300.2 367.1Q295.55 401.35 292 413.6L282.95 376.3Q277.75 354.3 274.75 338.85Q274 346.85 270.05 372.3Q266.8 393.4 266.5 405.85L264 407.85Q263.6 407.45 263.45 406.85L263.25 404.35Q263.25 390.95 267.6 364.7Q272.55 334.75 273.25 325.35L274.25 325.35Q281.1 352.2 292 404.85L292 405.1Q295.6 391.5 297.3 367.9Q299.5 337.9 300.75 329.6L302 328.85M526.9,407.65L524.6 408.1Q523.15 408.1 518.3 406.35Q513.45 404.6 506.5 404.6Q489.75 404.6 478.3 427.4Q475.55 432.85 473.45 439.05L486.25 438.6L486.7 438.15L487 437.85L515.25 438.1L515.8 438.95Q516 439.45 516 441.1Q516 442.7 515.7 443.25L515 443.85Q510.5 444.85 508 444.85L503.25 444.65L500 444.1L472 444.6L471.75 444.4Q470 450.4 470 452.1Q470 463.25 474.3 471.6Q481.2 485.1 497.5 485.1Q509 485.1 523 478.75Q531.5 474.85 537 470.85L538.3 471.3Q539.1 471.6 539.25 472.1Q536.1 478.5 526.05 484.9Q514.35 492.35 503 492.35Q482.55 492.35 473.5 478.85Q467.75 470.25 467.75 459.35Q467.75 447.85 468.35 442.75Q469.1 435.75 471.75 430.2Q476.2 420.75 497 399.1Q515.95 400.2 520.75 402.3Q522.05 402.85 523.8 404.3Q525.45 405.75 527.5 406.6L526.9 407.65" />
</g>
</svg>
