<?xml version="1.0" encoding="utf-8"?>
<svg version="1.1" id="Layer_1"
xmlns="http://www.w3.org/2000/svg"
xmlns:xlink="http://www.w3.org/1999/xlink"


xml:space="preserve">
q-0.9 50.15 -5.35 99.75q-1.35 15.15 -4.95 29.6q-3.5 14.2 3.45 22.15q19.7 -10.65 42.75 -4.5q3.85 -6.2 0.25 -12q-20.35 -5.8 -40 -1q5.3 -59.35 5.15 -117.7q-3.75 4.95 -3.9 12.25q-9.65 4.7 -17.8 12.45q-6.4 6.1 -9.5 14.1q-15.3 39.45 1.15 80.05q5.8 14.25 12.25 28.1q13.15 28.05 24.65 56.8q22.05 56.6 -22.7 98.5q-37.4 35.15 -86.95 31q-1 2.95 -0.65 6q0.15 1.25 1.05 2.2q17 10.25 37.05 4q15.45 -4.85 29.1 -13.2q47.35 -28.9 55.35 -82.2q2.2 -14.55 -1 -28.65q-13.2 -58.05 -41.5 -110.1q-14.3 -26.3 -23.75 -54.75q-11.4 -34.4 10.7 -61.15q16.45 -19.95 30.8 -4.4q1.3 -3.35 1.8 -6.8q2 -13.4 -9.05 -20.95q2.2 76.5 15.35 153q0.1 0.6 0.5 1.15q0.7 -52.8 -9.3 -105.6q-1.35 -7.25 -2 -14.6q-1.45 -22.4 -1.95 -44.5q-1.05 -44.5 -5.85 -88.6q-1.6 -14.8 -3.95 -29.2q-0.4 73.55 5 144.5q-9.25 -5.1 -18.9 0.6q12.9 -74.65 17.15 -150.1q-19.35 87.3 -26.4 176.85q-0.6 7.35 -1.6 14.7q-3.25 21.85 -7.65 43.55q-4.25 20.95 -5.15 42.4q-0.35 9.2 2.1 15.9q16.1 -56.5 20.05 -117.65q0.95 -14.8 2.65 -29.5q12.35 -3.05 24.45 1.2q-1.55 40.25 -5.65 81.6q-3.05 30.45 0.15 59.1q1.3 -3.25 2 -6.7q-0.25 -0.75 -0.2 -1.45q1.5 15.25 8.4 25.15q8.65 -51.05 13.35 -103.35q2.75 -30.35 -0.6 -59.35q-6 6.25 -6.35 16.75q-1.85 59.2 -7.9 116.95q-0.75 -3.7 -1.2 -7.5q-6.7 -59.25 -14.55 -117.7q-1 0.5 -1 1q-39.4 22.95 -42.7 69.95q-1.5 21.7 -4.05 43.35q-6.85 58.4 -6.7 117.9q0.05 27.2 4.3 53.8q2.75 18.8 17.9 24.75q6.1 -4.35 10.8 -10.05q11.55 -14.2 24.9 -26.65q14.95 -13.85 13.55 -31.3q-7.2 3.05 -13.7 11.75q-6.05 8 -11.4 16.4q-11.4 17.7 -28.65 25.35q-15.2 -31.2 -15.85 -65.75q-0.8 -40.55 2.65 -80.9q1.3 0.7 2.25 1.75q1.6 1.85 3 0.25q1 -1.8 1.15 -3.8q0.4 -6.1 -3.9 -10.45q-13.9 4.05 -26.5 11.75q-3.4 -0.05 -6.5 1.1q2.8 -37 3.8 -74.1q1.15 -43.4 33.65 -70q5.25 -4.3 11.5 -2.25q14.55 4.85 15.8 17.75q4.45 -25.15 -21 -29.95q-6.15 16.95 -10.1 35.25q-4.55 21 -7.25 42.2q-2.1 16.6 -4.8 33.1q-2.7 16.5 -6.1 32.75q-3.5 16.45 -6.3 33.1q-26 114.2 -46.4 229.5q-5.15 28.95 -11.85 57.3q-1.95 8.35 -2.75 16.95q-0.75 8.15 -0.15 16.2q11.95 -48.8 19.15 -98.45q10.55 -73.1 27.35 -145.1q7.2 -31 13.9 -62.1q9.3 80.65 13.95 162q0.85 14.7 2.6 29.3q13.25 -61.1 21.6 -122.95q3.8 -28.25 10.6 -56.1q5.7 90.7 13.7 181.15q4.25 48.4 10.85 96.8q0.75 5.65 2.6 11.05q1.75 5.2 4.45 9.7q-7.1 -75.3 -15.1 -151.2q-6 -56.9 -10.4 -113.85q-2.35 -29.9 -3.35 -59.8<g id="701" transform="matrix(1, 0, 0, 1, -38.45, 0)">
<path style="fill:#000000;fill-opacity:1" d="M359.2,123.5Q359.35 181.85 354.05 241.2L351.45 269.75Q371.1 264.95 391.45 270.75Q395.05 276.55 391.2 282.75Q368.15 276.6 348.45 287.25Q341.5 279.3 345 265.1Q348.6 250.65 349.95 235.5Q354.4 185.9 355.3 135.75Q355.45 128.45 359.2 123.5M454.2,120L457.45 120.5Q468.5 128.05 466.5 141.45Q466 144.9 464.7 148.25L463.7 148.75L462.4 149.4L460.45 150.25L461.3 146.4L462.7 139Q448.35 123.45 431.9 143.4Q409.8 170.15 421.2 204.55Q430.65 233 444.95 259.3Q473.25 311.35 486.45 369.4Q489.65 383.5 487.45 398.05Q479.45 451.35 432.1 480.25Q418.45 488.6 403 493.45Q382.95 499.7 365.95 489.45Q365.05 488.5 364.9 487.25Q364.55 484.2 365.55 481.25L365.95 480.45Q415.5 484.6 452.9 449.45Q497.65 407.55 475.6 350.95L459.7 310.75Q448.2 282 435.05 253.95Q428.6 240.1 422.8 225.85Q406.35 185.25 421.65 145.8Q424.75 137.8 431.15 131.7Q439.3 123.95 448.95 119.25L454.2 120M327.45,281.25Q315.35 277 303 280.05L301.05 296.5Q299.35 311.2 298.4 326Q294.45 387.15 278.35 443.65Q275.9 436.95 276.25 427.75Q277.15 406.3 281.4 385.35Q285.8 363.65 289.05 341.8L291.2 327.2L293.2 312.55Q294.2 305.2 294.8 297.85Q301.85 208.3 321.2 121Q316.95 196.45 304.05 271.1Q313.7 265.4 322.95 270.5L326.95 268.95Q321.55 198 321.95 124.45Q324.3 138.85 325.9 153.65Q330.7 197.75 331.75 242.25Q332.25 264.35 333.7 286.75L334.7 301.5L335.9 316.25Q336.55 323.6 337.9 330.85Q347.9 383.65 347.2 436.45L345.55 434.6L344.75 433.7Q344.35 433.15 344.25 432.55Q331.1 356.05 328.9 279.55L327.45 281.25M369.45,293.5Q377.3 351.95 384 411.2Q384.45 415 385.2 418.7Q391.25 360.95 393.1 301.75Q393.45 291.25 399.45 285Q402.8 314 400.05 344.35Q395.35 396.65 386.7 447.7Q379.8 437.8 378.3 422.55L370.45 344.7L365.25 426.5Q365.2 427.2 365.45 427.95Q364.75 431.4 363.45 434.65L362.95 435.2Q359.75 406.55 362.8 376.1Q366.9 334.75 368.45 294.5Q368.45 294 369.45 293.5M273.95,145.7L273.7 145.75Q272.45 132.85 257.9 128Q251.65 125.95 246.4 130.25Q213.9 156.85 212.75 200.25Q211.75 237.35 208.95 274.35Q212.05 273.2 215.45 273.25Q228.05 265.55 241.95 261.5L245.45 262.25L247.45 262.75Q251.75 267.1 251.35 273.2Q251.2 275.2 250.2 277Q248.8 278.6 247.2 276.75Q246.25 275.7 244.95 275L209.7 285.1L208.1 284.95L207.75 288.8Q204.3 329.15 205.1 369.7Q205.75 404.25 220.95 435.45Q238.2 427.8 249.6 410.1Q254.95 401.7 261 393.7Q267.5 385 274.7 381.95Q276.1 399.4 261.15 413.25Q247.8 425.7 236.25 439.9Q231.55 445.6 225.45 449.95Q210.3 444 207.55 425.2L203.8 400.75Q199.55 374.15 199.5 346.95Q199.35 287.45 206.2 229.05Q208.75 207.4 210.25 185.7Q213.55 138.7 252.95 115.75Q278.4 120.55 273.95 145.7M156.25,121.05Q157.25 150.95 159.6 180.85Q164 237.8 170 294.7Q178 370.6 185.1 445.9L184.75 446.15Q182.05 441.65 180.3 436.45Q178.45 431.05 177.7 425.4Q171.1 377 166.85 328.6Q158.85 238.15 153.15 147.45Q146.35 175.3 142.55 203.55Q134.2 265.4 120.95 326.5L119.85 316.15L118.25 322.1L117.75 321.95Q116 307.35 115.15 292.65Q110.5 211.3 101.2 130.65L100.4 135.05Q93.7 166.15 86.5 197.15Q69.7 269.15 59.15 342.25Q51.95 391.9 40 440.7L39.05 430.2Q38.45 422.15 39.2 414Q40 405.4 41.95 397.05Q48.65 368.7 53.8 339.75Q74.2 224.45 100.2 110.25L101.3 117.15L103.2 109.5L120.65 294.4Q123.45 277.75 126.95 261.3Q130.35 245.05 133.05 228.55Q135.75 212.05 137.85 195.45Q140.55 174.25 145.1 153.25Q149.05 134.95 155.2 118L156.2 116L156.25 121.05" />
</g>
</svg>
