<?xml version="1.0" encoding="utf-8"?>
<svg version="1.1" id="Layer_1"
xmlns="http://www.w3.org/2000/svg"
xmlns:xlink="http://www.w3.org/1999/xlink"


xml:space="preserve">
q-33 36.25 -17.3 87.4q28.05 12.6 43.15 -13.95q3.05 -5.4 2.1 -11.55q-15.5 16.9 -38.5 17q-6.8 -16.3 -4.4 -34.75q16.2 2.55 31.9 -2q-15.2 -2.95 -29.5 1.85q0.65 -36.55 31.8 -27.9q-4.1 -11 -16.05 -11.5q7.8 -15.85 -21.55 -26.15q-22.55 -7.95 -38.75 10.5q-13.7 15.6 -16.85 36.1q-3.35 21.55 -5.95 43.1q-2.65 21.65 -4.15 43.35q-1 20.6 -1.7 41.2q-0.7 19.4 0.75 38.85q1.55 21.45 6.85 42.25q5.45 21.4 24.85 32q19.9 10.8 39.8 -0.25q19.35 -10.8 28.2 -30.15q3.65 -8 0.55 -16.35q-19.75 33.2 -54.3 33.1q-22.05 -0.1 -30.15 -20.25q-9.45 -23.4 -11.25 -48.6q-0.85 -11.75 -0.2 -23.3q4.1 -7 -0.35 -13.75q-5.65 -65.65 18 -125.65q6.5 -16.4 22.5 -20.05q17.55 -4 32.5 5.6q5.3 3.35 9.25 8.35q-12.15 20.95 -22.7 42.7q-6 12.4 -6.8 26.3q0.1 -4.25 -3.25 -6.7q7.75 -18.1 18.2 -35.85q8.55 -14.6 9.2 -31.7q0 -0.6 -0.85 -1.2q-11.85 54.35 -22.2 108.95q-5.65 -44.95 -10.85 -90.15q-6 -52.7 -9.7 -105.7q0.3 -4.35 -0.6 -8.3q-0.5 0.1 -0.5 0.25q-5.45 16.95 -8.9 34.8q-11.25 57.85 -25.5 115.2q-14.25 57.3 -22.4 115.55q-1.05 7.5 -3.6 14.4q-4.8 13.1 1.55 21.3q7.75 -27.8 12 -56.85q4.2 -29 11.1 -57.4q13.95 -57.75 25.4 -115.7q1.05 43.75 7 87.65q7.9 58.4 10.25 117.7q0.65 16.7 7.5 28.3q1.05 -0.9 1.35 -2.25q1.55 -7.95 0.5 -16q9.9 -58.15 22.7 -115.65q6.5 -29.25 7.7 -57.65q-9.4 27.2 -13.65 58.35q-2.55 18.75 -6.55 37.25q6.8 58.45 12.95 116.85q6.15 58.85 11.1 117.8q1.45 17 8.3 28.9q1.45 -1.6 1.2 -3.7q-6.4 -58.35 -12.4 -117.05q-5.95 -59.05 -11.35 -117.7q-3.3 45.3 2.15 92.65<g id="691" transform="matrix(1, 0, 0, 1, -51.4, 0)">
<path style="fill:#000000;fill-opacity:1" d="M427.7,98.3L425.9 101.4Q394.75 92.75 394.1 129.3Q408.4 124.5 423.6 127.45L425.2 136Q409.5 140.55 393.3 138Q390.9 156.45 397.7 172.75L402.45 175.5Q425.45 175.4 440.95 158.5Q441.9 164.65 438.85 170.05Q423.75 196.6 395.7 184L392.65 174.15Q376.95 123 409.95 86.75L411.65 86.8Q423.6 87.3 427.7 98.3M368.45,104.4Q353.5 94.8 335.95 98.8Q319.95 102.45 313.45 118.85Q289.8 178.85 295.45 244.5L357.45 231.5Q361.9 238.25 357.8 245.25L294.7 254.75L293.65 272.85L290.55 327.15Q289.9 338.7 290.75 350.45Q292.55 375.65 302 399.05Q310.1 419.2 332.15 419.3Q366.7 419.4 386.45 386.2Q389.55 394.55 385.9 402.55Q377.05 421.9 357.7 432.7Q337.8 443.75 317.9 432.95Q298.5 422.35 293.05 400.95Q287.75 380.15 286.2 358.7Q284.75 339.25 285.45 319.85Q286.15 299.25 287.15 278.65L288.65 248.7L290.45 219.65Q291.95 197.95 294.6 176.3Q297.2 154.75 300.55 133.2Q303.7 112.7 317.4 97.1Q333.6 78.65 356.15 86.6Q385.5 96.9 377.7 112.75Q373.75 107.75 368.45 104.4M264.05,88.95Q263.4 106.05 254.85 120.65Q244.4 138.4 236.65 156.5L268.45 162.75Q271.8 165.2 271.7 169.45L271.45 172.25L271.05 173.55L269.7 176.25L228.7 167Q229.5 153.1 235.5 140.7Q246.05 118.95 258.2 98L216.7 94.75L217.4 86.75L263.2 87.75Q264.05 88.35 264.05 88.95M180.8,145.85Q185.05 114.7 194.45 87.5Q193.25 115.9 186.75 145.15Q173.95 202.65 164.05 260.8L154.75 313.05L155.55 319.25Q156.6 327.3 155.05 335.25Q154.75 336.6 153.7 337.5Q146.85 325.9 146.2 309.2Q143.85 249.9 135.95 191.5Q130 147.6 128.95 103.85L106.25 217Q94.8 274.95 80.85 332.7Q73.95 361.1 69.75 390.1Q65.5 419.15 57.75 446.95Q51.4 438.75 56.2 425.65Q58.75 418.75 59.8 411.25Q67.95 353 82.2 295.7Q96.45 238.35 107.7 180.5L119.7 118.5Q123.15 100.65 128.6 83.7L128.7 83.55L128.7 83.5Q128.7 83.35 129.2 83.25L129.25 83.3L129.45 83.25L129.6 83.65L129.95 84L130.7 84.75L130.9 87.9Q131.8 91.85 131.5 96.2Q135.2 149.2 141.2 201.9Q146.4 247.1 152.05 292.05Q162.4 237.45 174.25 183.1Q178.25 164.6 180.8 145.85M195.2,91.75Q200.6 150.4 206.55 209.45L218.5 327.2Q224.5 385.9 230.9 444.25Q231.15 446.35 229.7 447.95Q222.85 436.05 221.4 419.05Q216.45 360.1 210.3 301.25Q204.15 242.85 197.35 184.4Q191.9 137.05 195.2 91.75" />
</g>
</svg>
