<?xml version="1.0" encoding="utf-8"?>
<svg version="1.1" id="Layer_1"
xmlns="http://www.w3.org/2000/svg"
xmlns:xlink="http://www.w3.org/1999/xlink"


xml:space="preserve">
q-5.15 74.65 -7.75 149.6q-0.2 5.7 0.8 11.4q0.9 5.3 2.7 10.35q10.2 -42.2 8.15 -88.6q-1.5 -34.4 -2.3 -69q2.3 -2.5 2.2 -5.75q-0.05 -3.2 -1.75 -5.8q-7.15 -1.85 -13.85 0.9q-0.25 -43.65 0.2 -86.05q-7.45 20.9 -6.9 45.75q0.4 18.6 0.4 37.2q-12 -0.25 -22.3 4.8q1.05 -30.55 -0.35 -59.25q-7 39.7 -6.55 81.65q0.3 30.15 -2.2 59.95q-1.5 17.3 4.75 29.05q4.65 -11.4 2.2 -18.7q0.4 -36.35 1.55 -73.9q11 -3 22.6 -3.65q-0.35 34.05 -2.1 68q-0.9 16.9 4.95 29.3q4.25 -36.95 3.8 -75.75q1.45 -4.05 -0.05 -7.8q-7.5 35.75 -12.75 72.25q-6.35 43.8 -13.2 87.35q-2.35 14.7 -4.45 29.5q15.45 -57.35 22.65 -116.9q1.25 44.65 10.9 84.5q11.65 -35.2 17.55 -72.8q5.7 78.35 15.2 156.35q0.9 7.25 2.45 14.4q1.45 -49.75 -3.95 -99.9q-3.95 -36.5 -9.45 -72.95q-14.5 48 -23.45 97.35q-18.65 12 -24.6 33.25q-17.75 63.85 -7 128.3q2.8 16.85 14 29.35q2.35 2.7 5.55 4.1q3.2 1.4 6.5 1.4q13.85 -1.25 25.45 -9.65q16.35 -12 19.2 -32.05q0.9 -6.15 -0.6 -12.25q-2.25 1.4 -3.55 3.95q-2.3 4.4 -1.25 9.6q-11.2 22.75 -33.85 22.4q-17.5 -0.25 -20.7 -18.1q-5.75 -32.1 -5.05 -64.75q2.05 -3.15 1.9 -6.9q-0.1 -3.55 -2.3 -6.2q1.2 -33.9 20.65 -61.35q11.65 -16.5 32.9 -9.3q10 3.4 17.25 11.1q-2.8 -22.8 -25.7 -27.2q1.4 -4.75 1.85 -9<g id="697" transform="matrix(1, 0, 0, 1, -140.4, 0)">
<path style="fill:#000000;fill-opacity:1" d="M339.95,185.35L352.95 184.25L396.9 186.45Q398.6 189.05 398.65 192.25Q398.75 195.5 396.45 198L356.45 196.9L356.8 210.6Q357.6 245.2 359.1 279.6Q361.15 326 350.95 368.2Q349.15 363.15 348.25 357.85Q347.25 352.15 347.45 346.45Q350.05 271.5 355.2 196.85L324.7 195.25L324.45 187L326.1 186.25Q332.8 183.5 339.95 185.35M423.05,271.85L423.25 296.45Q423.7 335.25 419.45 372.2Q413.6 359.8 414.5 342.9Q416.25 308.95 416.6 274.9Q405 275.55 394 278.55Q392.85 316.1 392.45 352.45Q394.9 359.75 390.25 371.15L389.7 371.95Q383.45 360.2 384.95 342.9Q387.45 313.1 387.15 282.95Q386.7 241 393.7 201.3L394.2 201Q395.6 229.7 394.55 260.25L394.4 265.75Q404.7 260.7 416.7 260.95Q416.7 242.35 416.3 223.75Q415.75 198.9 423.2 178Q422.75 220.4 423 264.05Q424.5 267.8 423.05 271.85M172.4,187.55L181.95 276.05Q190.9 226.7 205.4 178.7L205.8 178.5L206.2 182.35L208.1 196.05Q213.6 232.5 217.55 269Q222.95 319.15 221.5 368.9L221.2 368.95Q219.65 361.8 218.75 354.55Q209.25 276.55 203.55 198.2L199.75 222Q193.85 259.6 182.2 294.8Q172.55 254.95 171.3 210.3L165.9 253.8Q158.7 313.35 143.25 370.7L140.85 370.75L140.5 370.35L140.4 369.85Q142.5 355.05 144.85 340.35Q151.7 296.8 158.05 253Q163.3 216.5 170.8 180.75L171.65 183.1L172.25 181L172.4 187.55M288,182.05Q310.9 186.45 313.7 209.25Q306.45 201.55 296.45 198.15Q275.2 190.95 263.55 207.45Q244.1 234.9 242.9 268.8L267.2 266.15L274.95 246L275.45 248.7L275.7 244L279.95 265.45L303.45 265.25Q305.65 267.9 305.75 271.45Q305.9 275.2 303.85 278.35L282.4 279.65L287.65 313.15L277.75 279.65L268.65 279.45L257.75 307.15L263.5 279.25L242.55 277.3Q241.85 309.95 247.6 342.05Q250.8 359.9 268.3 360.15Q290.95 360.5 302.15 337.75Q301.1 332.55 303.4 328.15Q304.7 325.6 306.95 324.2L311.45 323.95Q312.95 330.05 312.05 336.2Q309.2 356.25 292.85 368.25Q281.25 376.65 267.4 377.9Q264.1 377.9 260.9 376.5Q257.7 375.1 255.35 372.4Q244.15 359.9 241.35 343.05Q230.6 278.6 248.35 214.75Q254.3 193.5 272.95 181.5L288 182.05M273.65,265.75L276 265.6L275.5 256.75Q275.05 261 273.65 265.75" />
</g>
</svg>
