<?xml version="1.0" encoding="utf-8"?>
<svg version="1.1" id="Layer_1"
xmlns="http://www.w3.org/2000/svg"
xmlns:xlink="http://www.w3.org/1999/xlink"


xml:space="preserve">
q-52.65 16.95 -108.25 14.75q-0.85 1.8 -0.8 3.75q23.15 5.35 49.55 3.2q5.95 -0.45 11.45 -2.05q-3.3 17.1 -3 37.1q0.35 20.7 -0.05 41.25q-1.15 59.5 -1.25 119.25q2.4 1.2 2.7 -1.55q3.9 -38.4 3.55 -77.9q-0.55 -59.55 1.6 -119.25q2.15 -59.3 -3.25 -116.65q26.15 -6.5 52.4 -6.35q0.5 0.85 1.3 1.25q3.05 -5.3 1.6 -11.3q-0.8 -3.3 -3.85 -5.2q-19.4 11.1 -23 34.8q-3.25 21.35 5.7 40.95q10.9 23.9 34.15 11.05q13.75 -7.55 12.4 -23.05q-10.65 13.55 -27.75 14.45q-11.25 0.8 -15.9 -10.9q-3.15 -8.05 -4.45 -16.55q1.75 -2.55 1.65 -5.65q-0.05 -2.65 -1.25 -4.8q-20.55 -4.35 -40.1 4.8q-0.15 -22.85 20.2 -29.45q8.75 -2.85 17.25 0.95q3.25 -7.5 -2.95 -13.55q-4.3 -4.1 -10.45 -3.8q-40.5 40.45 -11.45 89.6q2 3.35 6.9 2.55q8.5 -1.1 15.65 -6q12.4 -8.5 8.9 -22.65q-12.8 13.4 -31 16.75q-6.85 -10.7 -8.7 -23.35q6.8 -20.6 -22.05 -13.25q-4.95 1.25 -9.85 2.75q3.7 -35.8 39.95 -35.3q-5.55 -11.15 -18.5 -10.3q-3.6 -22.5 -6.6 -45.05q-8.9 19.7 -12.9 42.15q-4.05 22.7 -12.45 43.75q-6.5 16.3 -0.15 28.05q6.7 -21.15 11.75 -42.9q2.6 11.2 3.95 22.55q1.9 16.5 10.05 28.25q1.4 -1.15 1.1 -2.85q-5 -25.5 -9.25 -51.15q7.1 -4 4.9 -12.75q0 13.75 2.3 27.85q-5.6 2.25 -11.15 4.6q3.65 -14.5 7.85 -28.8q-20.05 19.2 -25.6 48.9q-8.1 43.55 -8.15 88.65q-0.05 57.35 -1.3 115.45q-0.65 31.5 7.6 60.75q2.1 1.5 4.25 1.5q34.15 0 56.05 -29.25q10.75 -14.3 2.95 -26.5q-9.6 19.05 -26.35 33.05q-17.2 14.35 -34.9 6.7q-5.15 -55.35 -4.1 -110.95q0.45 -22.75 1.45 -45.4q21.3 0.35 43.65 -2.1q2.45 -4.7 1.1 -9.8q-0.55 -2.05 -2.35 -2.95q-15.05 2.75 -30 6.7q1.5 -30.85 4.05 -61.5q2.8 -33.4 21.2 -60.7q15.25 -4.15 31.5 -1.5q2.85 4.3 4.05 9.25q0.65 1.2 1.65 1.95q2.95 -10.8 -3.85 -20.85q-2.85 -4.2 -7.65 -6.65q-1.75 0.75 -3.3 2.2q-0.4 -1.95 -1.15 -3.75q-1.75 1.2 -2.55 3.9q-5.9 20.3 -9.9 41.05q-11.15 58.05 -23.05 115.75q-0.65 -24.8 -2.65 -49.7q-4.65 -58.65 -8.75 -116.9q0.05 -4.15 -3.25 -5.5q-5.65 16.35 -9 34.1q-10.8 57.95 -24.2 115.35q-2.55 10.8 -6.15 21.15q-5.65 16.35 -0.25 29.1q10.3 -37.5 18.25 -76.6q0.15 6.6 0.65 13.45q4.25 59.25 7.95 118.45q0.7 11.35 0.45 22.5q-0.4 16.5 6 28.5q0.65 -0.75 0.65 -1.5q5.25 -18.15 8.55 -38q9.7 -58.15 21.65 -115.9q2.55 -12.35 6.1 -24.3q1.75 29.8 6.8 58.85q10.15 58.4 12.25 118.05q0.6 16.75 7.55 29.15q1.4 -1.2 1.3 -2.95q-2 -37.9 -5.45 -76.6q-2.7 -29.65 -7.55 -58.9q-4.9 -29.25 -6.75 -58.85q-3.55 -57.35 -9.35 -113.9<g id="699" transform="matrix(1, 0, 0, 1, -61.05, 0)">
<path style="fill:#000000;fill-opacity:1" d="M440.2,84.1L443.45 84.5Q446.5 86.4 447.3 89.7Q448.75 95.7 445.7 101L444.65 100.9Q443.85 100.5 443.35 99.65L442.7 98.25Q416.45 98.1 390.3 104.6Q395.7 161.95 393.55 221.25Q391.4 280.95 391.95 340.5Q392.3 380 388.4 418.4Q388.1 421.15 385.7 419.95L385.7 302.25Q385.8 242.5 386.95 183Q387.35 162.45 387 141.75Q386.7 121.75 390 104.65L382.45 106.65Q376.95 108.25 371 108.7Q344.6 110.85 321.45 105.5L321.25 104.75L320.9 101.75Q320.85 99.8 321.7 98Q377.3 100.2 429.95 83.25L440.2 84.1M348,195.95Q354.2 202 350.95 209.5L349.2 206Q340.7 202.2 331.95 205.05Q311.6 211.65 311.75 234.5Q331.3 225.35 351.85 229.7L352.1 230.05Q353.3 232.2 353.35 234.85Q353.45 237.95 351.7 240.5L312.1 243.5Q313.4 252 316.55 260.05Q321.2 271.75 332.45 270.95Q349.55 270.05 360.2 256.5Q361.55 272 347.8 279.55Q324.55 292.4 313.65 268.5Q304.7 248.9 307.95 227.55Q311.55 203.85 330.95 192.75L337.55 192.15Q343.7 191.85 348 195.95M436.7,104.45Q449.65 103.6 455.2 114.75Q418.95 114.25 415.25 150.05Q420.15 148.55 425.1 147.3Q453.95 139.95 447.15 160.55L443.45 158.75L415.25 161.4Q417.1 174.05 423.95 184.75Q442.15 181.4 454.95 168Q458.45 182.15 446.05 190.65Q438.9 195.55 430.4 196.65Q425.5 197.45 423.5 194.1Q394.45 144.95 434.95 104.5L436.7 104.45M343.95,343.45L345.15 344.05L346.2 344.7Q348.4 353.45 341.3 357.45Q345.55 383.1 350.55 408.6Q350.85 410.3 349.45 411.45Q341.3 399.7 339.4 383.2Q338.05 371.85 335.45 360.65L335.2 359.6L331.85 360.2L321.75 362L319.3 362.2L318.45 365.8Q313.4 387.55 306.7 408.7Q300.35 396.95 306.85 380.65Q315.25 359.6 319.3 336.9Q323.3 314.45 332.2 294.75L332.7 300.25Q335.7 322.8 339.3 345.3L343.95 343.45M329.6,323.65Q325.4 337.95 321.75 352.45Q327.3 350.1 332.9 347.85Q330.6 333.75 330.6 320L329.6 323.65M261.95,95L284.95 96.45L288.45 96.75Q293.25 99.2 296.1 103.4Q302.9 113.45 299.95 124.25Q298.95 123.5 298.3 122.3L298 121.4Q296.8 116.45 293.95 112.15L292.7 110.25L291.95 109.75L291.45 109.55L289.45 109.25L288.5 108.45L287.95 108L287.7 107.75Q271.45 105.1 256.2 109.25Q237.8 136.55 235 169.95Q232.45 200.6 230.95 231.45Q245.9 227.5 260.95 224.75L270.2 225.3L272.95 225.25Q274.75 226.15 275.3 228.2Q276.65 233.3 274.2 238Q251.85 240.45 230.55 240.1Q229.55 262.75 229.1 285.5Q228.05 341.1 233.2 396.45Q250.9 404.1 268.1 389.75Q284.85 375.75 294.45 356.7Q302.25 368.9 291.5 383.2Q269.6 412.45 235.45 412.45Q233.3 412.45 231.2 410.95Q222.95 381.7 223.6 350.2Q224.85 292.1 224.9 234.75Q224.95 189.65 233.05 146.1Q238.6 116.4 258.65 97.2Q260.2 95.75 261.95 95M182.4,98.05L182.65 100.75Q188.45 157.3 192 214.65Q193.85 244.25 198.75 273.5Q203.6 302.75 206.3 332.4Q209.75 371.1 211.75 409Q211.85 410.75 210.45 411.95Q203.5 399.55 202.9 382.8L202.25 363.95Q200.15 304.3 190 245.9Q184.95 216.85 183.2 187.05L179.4 118.75Q175.85 130.7 173.3 143.05Q161.35 200.8 151.65 258.95Q148.35 278.8 143.1 296.95L143.1 298Q143.1 298.75 142.45 299.5Q136.05 287.5 136.45 271Q136.7 259.85 136 248.5Q132.3 189.3 128.05 130.05Q127.55 123.2 127.4 116.6L107.85 216.6L84.7 332.6Q76.75 371.7 66.45 409.2Q61.05 396.45 66.7 380.1Q70.3 369.75 72.85 358.95Q86.25 301.55 97.05 243.6L118.65 127.75Q122 110 127.65 93.65L127.85 93.4L127.95 91.5Q131.25 92.85 131.2 97L131.45 97.75Q135.55 156 140.2 214.65Q142.2 239.55 142.85 264.35L145.45 253.45Q157.35 195.75 168.5 137.7Q172.5 116.95 178.4 96.65Q179.2 93.95 180.95 92.75Q181.7 94.55 182.1 96.5L182.2 96.25L182.4 98.05" />
</g>
</svg>
