<?xml version="1.0" encoding="utf-8"?>
<svg version="1.1" id="Layer_1"
xmlns="http://www.w3.org/2000/svg"
xmlns:xlink="http://www.w3.org/1999/xlink"


xml:space="preserve">
q-14.45 -27.15 -42.25 -8.1q-17.65 12.1 -24.2 32.55q-7.85 24.55 -9.65 50.3q-1.5 20.95 0.3 41.85q1.4 16.15 7.05 31.15q8 21.3 30.85 20.05q21.2 -0.8 34.6 -18q10.45 -13.35 6.9 -30q-8.9 35.05 -46.35 30.05q-17.2 -2.2 -20.35 -22.75q-3.85 -25.3 -2.95 -51.1q6.8 -5.4 1.35 -14.2q-27.6 -5.9 -55.7 -0.35q1.15 -46 39.7 -67.8q11.75 -6.65 22.8 1.55q4.25 3.25 7.15 0.75q-0.75 0.3 -1.55 0.65q-0.25 1.1 -0.35 2.25q-0.15 1.5 0.05 2.95q0.15 1.35 0.75 2.5q-5.45 42.8 -6.25 87.75q-0.55 29.85 -4.45 59.05q-2.25 16.9 4 29.45q5.8 -11.15 3.5 -23.25q14.65 2 29.55 -0.65q15.9 -2.8 25.25 -15.95q15.75 -22.05 7.1 -49.15q-10.15 -32 -41.4 -38.95q-10.1 1.3 -19.65 4.95q22.3 -6.4 40.3 8.1q18.05 14.6 15.35 37.4q-2.65 22.15 -25.5 29.2q-15.65 4.85 -31.35 -0.05q-12.75 35.2 -19.9 75.35q-8.5 47.6 -15.65 95.3q-0.3 1.85 -0.3 3.75q0.55 4.9 2.4 9.85q15.2 -82 32.45 -163.7q13.95 -52.65 24.9 -106.35q1.6 -7.75 0.8 -15.85q-17.65 46.65 -27.85 95.65q-1.9 25.1 2.35 51.15q9.55 58.05 14.35 116.9q1.1 13.4 7.9 20.9q0.65 -0.75 0.6 -1.45q-1.8 -35.2 -6.4 -71.35q-7.5 -58.7 -18.45 -116.15<g id="693" transform="matrix(1, 0, 0, 1, -140.65, 0)">
<path style="fill:#000000;fill-opacity:1" d="M327.3,197.5L326.8 198.1Q323.9 200.6 319.65 197.35Q308.6 189.15 296.85 195.8Q258.3 217.6 257.15 263.6Q285.25 258.05 312.85 263.95Q318.3 272.75 311.5 278.15L308.7 275.95L256.4 274.25Q255.5 300.05 259.35 325.35Q262.5 345.9 279.7 348.1Q317.15 353.1 326.05 318.05L331.45 315.45Q335 332.1 324.55 345.45Q311.15 362.65 289.95 363.45Q267.1 364.7 259.1 343.4Q253.45 328.4 252.05 312.25Q250.25 291.35 251.75 270.4Q253.55 244.65 261.4 220.1Q267.95 199.65 285.6 187.55Q313.4 168.5 327.85 195.65L327.3 197.5M356.2,178.25L356.3 184.45Q365.85 180.8 375.95 179.5Q407.2 186.45 417.35 218.45Q426 245.55 410.25 267.6Q400.9 280.75 385 283.55Q370.1 286.2 355.45 284.2L354.55 283.4L353.85 296.05L350.95 346.2Q353.25 358.3 347.45 369.45Q341.2 356.9 343.45 340Q347.35 310.8 347.9 280.95Q348.7 236 354.15 193.2Q353.55 192.05 353.4 190.7Q353.2 189.25 353.35 187.75Q353.45 186.6 353.7 185.5Q354.5 185.15 355.25 184.85L356.2 178.25M386.55,268.75Q409.4 261.7 412.05 239.55Q414.75 216.75 396.7 202.15Q378.7 187.65 356.4 194.05L355.2 268.7Q370.9 273.6 386.55 268.75M178.4,188.1L193.35 277.9Q203.55 228.9 221.2 182.25Q222 190.35 220.4 198.1Q209.45 251.8 195.5 304.45L194.2 301.45L192.85 302.45L192.3 302.4L191.65 302.1L175.95 205.5Q158.7 287.2 143.5 369.2Q141.65 364.25 141.1 359.35L140.8 355.75L140.65 352.15Q140.65 350.25 140.95 348.4Q148.1 300.7 156.6 253.1Q163.75 212.95 176.5 177.75L177.15 181.3L178.1 179.55L178.4 188.1M223.2,183Q234.15 240.45 241.65 299.15Q246.25 335.3 248.05 370.5Q248.1 371.2 247.45 371.95Q240.65 364.45 239.55 351.05Q234.75 292.2 225.2 234.15Q220.95 208.1 222.85 183L223.2 183" />
</g>
</svg>
