<?xml version="1.0" encoding="utf-8"?>
<svg version="1.1" id="Layer_1"
xmlns="http://www.w3.org/2000/svg"
xmlns:xlink="http://www.w3.org/1999/xlink"


xml:space="preserve">
q-16.6 12.1 -18.85 33.1q-2.45 22.5 9.15 42q11.45 19.35 15.85 41.3q3.95 19.7 -0.95 39.3q-5.65 22.65 -27.7 25.05q-9.05 0.75 -16.5 -3.95q-6.3 9.2 4.1 16.6q9.45 6.75 20.5 1.95q7.85 -3.45 12.6 -10.8q7.55 -11.75 10.8 -25.35q11.65 -48.55 -13.8 -93.8q-12.45 -22.15 -1.95 -45q4.6 -10.05 15.75 -6.4q1.2 -1.55 1.55 -3.45q0.6 -3.1 -0.4 -5.95q-0.95 -2.75 -3.65 -4.35q-0.6 59.1 0.75 119.25q0.3 15 -1.2 29.8q-1.7 16.5 3.5 29.9q4.9 -9 4.85 -20.75q18.6 -3 37 -5.45q-1.85 35.7 -3.25 71.6q-0.65 17 5.6 29.3q4.7 -19.2 4.25 -40.45q-0.4 -20.5 0.95 -41.15q4.05 -7.4 -0.65 -14.15q1.15 -41.75 -1.15 -82.95q-3.35 0.8 -3.45 4.5q-0.55 23.95 -2 47.9q-19.5 1.95 -38.1 7.45q-0.1 -3.9 0.2 -7.35q2.1 -23.15 -3.05 -44.4q-0.6 -0.2 -0.8 0.3q-2.4 5.9 -2.5 12.45q-6.65 24.8 -4.55 52.4q4.1 53.25 -10.55 102.7q-2.3 7.75 -9.45 10.6q-25.6 10.25 -26.5 -16.35q-2 -58.75 1.25 -118.4q0.95 -17.5 -6.2 -29.05q-1.7 18.25 -2.4 37.4q-2.25 59.65 0.45 118.6q0.95 20.9 18.7 27q7.4 2.5 13.35 -2.15q23.45 -18.6 25.55 -50.15q2.9 -43.95 4.15 -88.45q0.7 -23.2 -3.3 -44.25q6.5 56.3 17.5 112.7q5.65 29.05 8.6 58.5q1.35 13.25 7.3 20.6q4.5 -13.75 7.35 -28.25q11.45 -58.1 21.3 -116.45q1.3 -7.5 3.8 -14.5q6.1 -16.85 -1.2 -29q-7.8 20.4 -10.95 42.65q-8.2 57.85 -21.3 114.35q-2.6 -23.3 -6.55 -46.4q-10 -58.5 -24.95 -114.6q-1 -0.2 -0.9 0.4<g id="740" transform="matrix(1, 0, 0, 1, -141.45, 0)">
<path style="fill:#000000;fill-opacity:1" d="M354.45,180.5Q357.15 182.1 358.1 184.85Q359.1 187.7 358.5 190.8Q358.15 192.7 356.95 194.25Q345.8 190.6 341.2 200.65Q330.7 223.5 343.15 245.65Q368.6 290.9 356.95 339.45Q353.7 353.05 346.15 364.8Q341.4 372.15 333.55 375.6Q322.5 380.4 313.05 373.65Q302.65 366.25 308.95 357.05Q316.4 361.75 325.45 361Q347.5 358.6 353.15 335.95Q358.05 316.35 354.1 296.65Q349.7 274.7 338.25 255.35Q326.65 235.85 329.1 213.35Q331.35 192.35 347.95 180.25L354.45 180.5M373.4,181.05Q373.6 180.55 374.2 180.75Q379.35 202 377.25 225.15Q376.95 228.6 377.05 232.5L377.85 270.85Q396.45 265.35 415.95 263.4L417.75 232.15Q419.2 208.2 419.75 184.25Q419.85 180.55 423.2 179.75Q425.5 220.95 424.35 262.7L427.45 262.5Q432.15 269.25 428.1 276.65L427.45 277.5L423.75 277.95L422.65 298.35Q421.3 319 421.7 339.5Q422.15 360.75 417.45 379.95Q411.2 367.65 411.85 350.65Q413.25 314.75 415.1 279.05Q396.7 281.5 378.1 284.5L378.8 351.7Q378.85 363.45 373.95 372.45Q368.75 359.05 370.45 342.55Q371.95 327.75 371.65 312.75Q370.3 252.6 370.9 193.5Q371 186.95 373.4 181.05M292.45,180Q296.45 201.05 295.75 224.25Q294.5 268.75 291.6 312.7Q289.5 344.25 266.05 362.85Q260.1 367.5 252.7 365Q234.95 358.9 234 338Q231.3 279.05 233.55 219.4Q234.25 200.25 235.95 182Q243.1 193.55 242.15 211.05Q238.9 270.7 240.9 329.45Q241.8 356.05 267.4 345.8Q274.55 342.95 276.85 335.2Q291.5 285.75 287.4 232.5Q285.3 204.9 291.95 180.1L292.45 180M142.45,177.25Q157.4 233.35 167.4 291.85Q171.35 314.95 173.95 338.25Q187.05 281.75 195.25 223.9Q198.4 201.65 206.2 181.25Q213.5 193.4 207.4 210.25Q204.9 217.25 203.6 224.75Q193.75 283.1 182.3 341.2Q179.45 355.7 174.95 369.45Q169 362.1 167.65 348.85Q164.7 319.4 159.05 290.35Q148.05 233.95 141.55 177.65Q141.45 177.05 142.45 177.25" />
</g>
</svg>
