<?xml version="1.0" encoding="utf-8"?>
<svg version="1.1" id="Layer_1"
xmlns="http://www.w3.org/2000/svg"
xmlns:xlink="http://www.w3.org/1999/xlink"


xml:space="preserve">
q-3.8 57.25 -9.8 114.1q-2.25 21.4 -7.2 42.2q-3.85 15.9 0.35 28.6q7.6 -23.2 10.1 -48.45q5.6 -56.05 10.65 -112.25q2.9 12 6.55 23.8q17.3 56.55 32.45 113.9q4.2 16 12 27q2.8 -2.35 3.45 -6q10.2 -56.4 14.45 -113.95q1.3 -17.65 4.7 -34.95q3.8 -19.35 -1.35 -35.55q-4.25 2 -4.25 6.75q-3.9 2.25 -6.25 6q3.1 -2.6 5.5 -2.25q-3.15 22.7 -5.1 45.65q-4.7 56.45 -11.65 112.05q-17.45 -56.9 -34.25 -112.8q-2.65 0.35 -2.85 3.3q10 42.75 14.15 86.6q1.5 16.35 8.55 27.4q2.85 -6.35 4.2 -13.6q10.8 -58.2 22 -116.3q2.8 -14.6 8.35 -28.45q6.6 -16.5 -0.3 -28.6q-9.45 21.85 -13.65 46.3q-9.85 56.95 -20.6 113.7q-3.9 -28.55 -10 -56.7q-3.75 -17.45 -6.8 -34.8q-6.5 -36.65 -17.45 -71q-1.2 -0.25 -1.55 0.85q-2.55 8.2 -0.5 16.7q0.8 -14.3 -6.65 -21.6q-3.55 45 -1.05 91.5q2.5 45.4 -30.95 73.45q-8.3 3.75 -17.5 3.25q-2.3 -1.5 -5 -2q-5.55 -4.45 -7.6 -11q-10.3 -33.25 -6.05 -69.25q5.3 -44.75 3.65 -88.45q-5.6 24.75 -7.5 51.95q-1.8 26.95 -4.4 53.9q-3.3 34.5 9.25 65.7q4.1 10.15 14.1 12.6q24.75 6.05 38.9 -16.75q23.55 -38 20.85 -84.25q-1.7 -29.6 -0.05 -59.05<g id="734" transform="matrix(1, 0, 0, 1, -137.35, 0)">
<path style="fill:#000000;fill-opacity:1" d="M345.45,180.75Q362.25 236.65 379.7 293.55L397.2 350.7Q404.15 295.1 408.85 238.65Q410.8 215.7 413.95 193Q411.55 192.65 408.45 195.25Q410.8 191.5 414.7 189.25Q414.7 184.5 418.95 182.5Q424.1 198.7 420.3 218.05Q416.9 235.35 415.6 253Q411.35 310.55 401.15 366.95Q400.5 370.6 397.7 372.95Q389.9 361.95 385.7 345.95Q370.55 288.6 353.25 232.05Q349.6 220.25 346.7 208.25Q341.65 264.45 336.05 320.5Q333.55 345.75 325.95 368.95Q321.75 356.25 325.6 340.35Q330.55 319.55 332.8 298.15Q338.8 241.3 342.6 184.05Q342.8 181.1 345.45 180.75M139.9,179.6Q140.25 178.5 141.45 178.75Q152.4 213.1 158.9 249.75Q161.95 267.1 165.7 284.55Q171.8 312.7 175.7 341.25Q186.45 284.5 196.3 227.55Q200.5 203.1 209.95 181.25Q216.85 193.35 210.25 209.85Q204.7 223.7 201.9 238.3Q190.7 296.4 179.9 354.6Q178.55 361.85 175.7 368.2Q168.65 357.15 167.15 340.8Q163 296.95 153 254.2L139.4 196.3Q137.35 187.8 139.9 179.6M309.4,262.65Q312.1 308.9 288.55 346.9Q274.4 369.7 249.65 363.65Q239.65 361.2 235.55 351.05Q223 319.85 226.3 285.35Q228.9 258.4 230.7 231.45Q232.6 204.25 238.2 179.5Q239.85 223.2 234.55 267.95Q230.3 303.95 240.6 337.2Q242.65 343.75 248.2 348.2Q250.9 348.7 253.2 350.2Q262.4 350.7 270.7 346.95Q304.15 318.9 301.65 273.5Q299.15 227 302.7 182Q310.15 189.3 309.35 203.6Q307.7 233.05 309.4 262.65" />
</g>
</svg>
