<?xml version="1.0" encoding="utf-8"?>
<svg version="1.1" id="Layer_1"
xmlns="http://www.w3.org/2000/svg"
xmlns:xlink="http://www.w3.org/1999/xlink"


xml:space="preserve">
q-10.8 58.9 -25.85 116.5q-4.55 -59.4 -15 -116.95q-7 11.8 -9 27.4q-7.55 59.05 -19.8 117.1q-1.3 6.35 -3.7 12.1q-6.45 15.45 -4 29.6q10.55 -20 15.05 -42.9q11.45 -58.25 19.95 -117.05q5.75 58.1 14.35 114.75q0.9 -0.4 1.1 -1q20.85 -54.8 29.15 -113.5q6.9 38.8 16.65 77.15q7.45 29.25 7.8 59.3q0.2 17 7.55 28.25q3.35 -51.65 -10.85 -103.05q-8.1 -29.15 -11.7 -59.1q-2 -17 -10.2 -28.05q-1.15 0.85 -1.4 2.25q-3.35 52.35 -7.35 104.95q-2.75 35.9 -28.1 59.2q-6.1 -3.45 -12.5 -6.2q-14.75 -21.45 -11.65 -49.6q2.7 -24.5 4.1 -49.35q1.7 -30.75 -3.45 -58.55q-2.4 6.9 -2.5 15q-0.75 57 -3.75 113.9q-1.85 35.75 29.25 49.55q6.65 -3.75 12 -8.75q17.05 -23.9 21.35 -53.15q8.7 -59.05 3.15 -117.8q-1 -0.2 -1.05 0.55q10.3 48.15 18.85 97.7q5 29.05 6.05 58.55q0.6 16.85 7.95 28.15q10.75 -29.9 16.65 -61.4q8.3 -44.3 24.9 -86.45q7.55 -19.2 2.7 -36.6q-9.6 21.7 -16.2 45.6q-15.65 57 -27.8 114.4q-2.15 -23.6 -5.1 -47.05q-7.5 -59.1 -26.4 -114.7q-2.05 -0.15 -1.6 1.8<g id="730" transform="matrix(1, 0, 0, 1, -140.4, 0)">
<path style="fill:#000000;fill-opacity:1" d="M382.95,181Q391.15 192.05 393.15 209.05Q396.75 239 404.85 268.15Q419.05 319.55 415.7 371.2Q408.35 359.95 408.15 342.95Q407.8 312.9 400.35 283.65Q390.6 245.3 383.7 206.5Q375.4 265.2 354.55 320Q354.35 320.6 353.45 321Q344.85 264.35 339.1 206.25L338.95 205.5Q330.45 264.3 319 322.55Q314.5 345.45 303.95 365.45Q301.5 351.3 307.95 335.85Q310.35 330.1 311.65 323.75Q323.9 265.7 331.45 206.65Q333.45 191.05 340.45 179.25Q350.9 236.8 355.45 296.2L355.7 299.75Q370.75 242.15 381.55 183.25Q381.8 181.85 382.95 181M304.45,182.5Q310 241.25 301.3 300.3Q297 329.55 279.95 353.45Q274.6 358.45 267.95 362.2L261.45 361.95Q230.35 348.15 232.2 312.4Q235.2 255.5 235.95 198.5Q236.05 190.4 238.45 183.5Q243.6 211.3 241.9 242.05Q240.5 266.9 237.8 291.4Q234.7 319.55 249.45 341Q255.85 343.75 261.95 347.2L267.95 347.2Q293.3 323.9 296.05 288Q300.05 235.4 303.4 183.05Q303.45 182.3 304.45 182.5M142.45,179.75Q161.35 235.35 168.85 294.45Q171.8 317.9 173.95 341.5Q186.1 284.1 201.75 227.1Q208.35 203.2 217.95 181.5Q222.8 198.9 215.25 218.1Q198.65 260.25 190.35 304.55Q184.45 336.05 173.7 365.95Q166.35 354.65 165.75 337.8Q164.7 308.3 159.7 279.25Q151.15 229.7 140.85 181.55Q140.4 179.6 142.45 179.75" />
</g>
</svg>
