<?xml version="1.0" encoding="utf-8"?>
<svg version="1.1" id="Layer_1"
xmlns="http://www.w3.org/2000/svg"
xmlns:xlink="http://www.w3.org/1999/xlink"


xml:space="preserve">
q-8.55 -58.1 -21.8 -115.35q-3.05 -13.15 -11.25 -19.1q6.25 36.05 14.45 72.8q12.7 56.85 21.05 113.9q1.4 -0.1 1.55 -0.65q14.1 -42.15 24.1 -86.2q6.55 -29 16.1 -57.55q7.5 -22.45 3.5 -43.3q-10.55 22.35 -17 48.35q-14.05 56.85 -25.75 114.1q-2.95 -13.35 -4.95 -27q-0.9 34.8 0.05 70.5q0.3 11.9 2 23.7q4.8 32.6 -14.3 58q-15.35 20.45 -38.65 15.4q-7.55 -1.65 -9.85 -8q-12.9 -35.8 -8.8 -75.2q4.65 -44.8 3.05 -88.4q-3.45 14.8 -5.15 31.7q-5.9 58.25 -3.95 117.05q0.7 22.4 18.15 34.85q4.8 3.4 10.55 3.65q27.45 1.2 43.25 -22.55q6.7 -10.1 7.35 -22.05q3.05 -58.9 3.7 -118.4q0.1 -14 -6.65 -21.75q-0.75 0.75 -0.75 1.5q8.85 48.25 21.85 96.25q7.7 28.3 9.15 57.65q0.85 16.65 8.65 27.4q12.2 -38.8 18.85 -79.45q7.1 -43.55 20.55 -85.85q4.25 -13.4 -3.4 -19.9q-8.75 22.65 -13 46.45q-10.3 57.4 -23 112.8q-2.75 -23 -7.8 -45.55q-12.85 -57.8 -29.45 -114.2q-3.1 0.6 -2.4 4.4<g id="731" transform="matrix(1, 0, 0, 1, -138.35, 0)">
<path style="fill:#000000;fill-opacity:1" d="M374.7,343.45Q386.4 286.2 400.45 229.35Q406.9 203.35 417.45 181Q421.45 201.85 413.95 224.3Q404.4 252.85 397.85 281.85Q387.85 325.9 373.75 368.05Q373.6 368.6 372.2 368.7Q363.85 311.65 351.15 254.8Q342.95 218.05 336.7 182Q344.9 187.95 347.95 201.1Q361.2 258.35 369.75 316.45Q371.75 330.1 374.7 343.45M311.45,182.25Q318.2 190 318.1 204Q317.45 263.5 314.4 322.4Q313.75 334.35 307.05 344.45Q291.25 368.2 263.8 367Q258.05 366.75 253.25 363.35Q235.8 350.9 235.1 328.5Q233.15 269.7 239.05 211.45Q240.75 194.55 244.2 179.75Q245.8 223.35 241.15 268.15Q237.05 307.55 249.95 343.35Q252.25 349.7 259.8 351.35Q283.1 356.4 298.45 335.95Q317.55 310.55 312.75 277.95Q311.05 266.15 310.75 254.25Q309.8 218.55 310.7 183.75Q310.7 183 311.45 182.25M141.45,180.25Q158.05 236.65 170.9 294.45Q175.95 317 178.7 340Q191.4 284.6 201.7 227.2Q205.95 203.4 214.7 180.75Q222.35 187.25 218.1 200.65Q204.65 242.95 197.55 286.5Q190.9 327.15 178.7 365.95Q170.9 355.2 170.05 338.55Q168.6 309.2 160.9 280.9Q147.9 232.9 139.05 184.65Q138.35 180.85 141.45 180.25" />
</g>
</svg>
