<?xml version="1.0" encoding="utf-8"?>
<svg version="1.1" id="Layer_1"
xmlns="http://www.w3.org/2000/svg"
xmlns:xlink="http://www.w3.org/1999/xlink"


xml:space="preserve">
q-1.1 8.45 0.75 16.75q6.55 29.85 17.25 56.15q16.6 -50 25.65 -103.35q2.45 -14.65 6.2 -28.95q7.7 -29.4 7.65 -58.15q-5.75 10.8 -8.45 24.05q-2.25 11 -6.75 21.1q-1.8 4.1 -2.75 7.9q-4.85 -18.7 -8.95 -37.55q-12.45 -57.45 -29.5 -113.6q-0.95 -0.15 -1.1 0.8q-14.9 57.5 -25.85 116.4q-2.65 14.5 -6.1 28.95q-0.65 2.7 -1 5.35q-3.6 -25.1 -9.3 -50.2q-13.1 -58.1 -32.05 -113.75q-2.55 0.05 -2.95 2.95q-1 8 1.35 15.45q17.85 56.55 29.15 115.2q5.7 29.65 14.95 56.6q2 -0.55 1.75 -2.7q3.5 -5.6 4.35 -12.6q7.15 -58.9 21.9 -116.15q7.6 -29.4 8.45 -57.95q-3.55 5.25 -5.4 12.5q-0.1 -32.95 1.05 -65.95q2.1 -60.15 -2.45 -119.25q-5.15 17.65 -5.05 39.25q0.35 59.85 -0.6 119.2q-0.25 17.25 5.9 29q1.15 -0.85 1.15 -2.25<g id="893" transform="matrix(1, 0, 0, 1, -136.55, 0)">
<path style="fill:#000000;fill-opacity:1" d="M337.2,181.75Q354.25 237.9 366.7 295.35Q370.8 314.2 375.65 332.9L379.4 349.05Q380.35 345.25 382.15 341.15Q386.65 331.05 388.9 320.05L412.75 203.55Q415.45 190.3 421.2 179.5Q421.25 208.25 413.55 237.65Q409.8 251.95 407.35 266.6Q398.3 319.95 381.7 369.95L380.7 368.05L379.45 369.95Q368.75 343.65 362.2 313.8L336.85 199.3Q335 191 336.1 182.55Q336.25 181.6 337.2 181.75M220.2,182.5Q219.35 211.05 211.75 240.45Q197 297.7 189.85 356.6Q189 363.6 185.5 369.2L184.55 367.25L184.75 369.25Q185 371.4 183 371.95Q173.75 345 168.05 315.35Q156.75 256.7 138.9 200.15Q136.55 192.7 137.55 184.7Q137.95 181.8 140.5 181.75Q159.45 237.4 172.55 295.5Q178.25 320.6 181.85 345.7Q182.2 343.05 182.85 340.35Q186.3 325.9 188.95 311.4Q199.9 252.5 214.8 195Q216.65 187.75 220.2 182.5M280.7,370.95Q274.55 359.2 274.8 341.95Q275.75 282.6 275.4 222.75Q275.3 201.15 280.45 183.5Q285 242.6 282.9 302.75Q281.75 335.75 281.85 368.7Q281.85 370.1 280.7 370.95" />
</g>
</svg>
