<?xml version="1.0" encoding="utf-8"?>
<svg version="1.1" id="Layer_1"
xmlns="http://www.w3.org/2000/svg"
xmlns:xlink="http://www.w3.org/1999/xlink"


xml:space="preserve">
q-22.05 -7.35 -46.3 -6.1q-21.9 10.05 -33.75 31.55q-20.25 36.75 -24.5 78.5q-4.45 43.9 -1.05 87.75q3.25 41.6 37.65 63.15q28.8 18.05 55.75 -1.15q6.2 -4.4 11.55 -9.7q14.55 -14.45 4.35 -27.85q-4.35 4.4 -7.6 10.1q-12 21.25 -36.05 19.5q-46.55 -3.4 -55.15 -48.05q-7.15 -37.3 -4.5 -74.45q28.65 0.65 57.8 -0.6q4.7 -7.85 -0.6 -14.9q-29 -0.6 -56.8 4.95q1.6 -14.8 4.8 -29.55q7.45 -34.65 29.8 -61.85q3.85 -4.7 9.2 -6.75q27.45 -10.65 56.75 -2.3q1.3 0.9 2.8 1.15q0 -1.8 -0.55 -3.65q-1.2 -3.7 -3.6 -6.75q-2.85 0.75 -3.9 4.35q-16.6 57.3 -26.85 116.45q-10 57.95 -23.45 115.2q-2.95 12.5 -3.25 24.55q-2.15 -19.95 -10 -39.65q-22.05 -55.25 -35 -113.05q-12.95 -57.9 -31.5 -113.85q-4.6 2.85 -2.75 9.25q16.3 56.15 29.05 113.1q13.1 58.55 33.1 115.25q5.05 14.3 7.85 29.2q2.3 12.3 8.7 19.4q1.25 -0.6 1.3 -2q6.5 -7.85 7.85 -20.1q3.6 -32.2 9.5 -64.15q10.75 -58.15 23.65 -115.95q4.85 -21.75 11.4 -42.95q5.8 -18.9 3.85 -36.55q-1.25 43.25 -3.1 86.3q-0.7 15.1 -3.45 29.65q-2.75 14.4 4.95 22q5.6 -37.3 6.2 -76.45q0.75 -44.25 3.7 -88.45q3.95 -59.5 0.85 -117.8q-3.6 11.8 -4 26.25<g id="889" transform="matrix(1, 0, 0, 1, -71.9, 0)">
<path style="fill:#000000;fill-opacity:1" d="M394.45,116.75L395.15 117.55L398.05 121.35Q400.45 124.4 401.65 128.1Q402.2 129.95 402.2 131.75L401.7 131.7L400.2 131.5Q398.7 131.25 397.4 130.35L394.7 128.25L394.2 127.75Q364.9 119.4 337.45 130.05Q332.1 132.1 328.25 136.8Q305.9 164 298.45 198.65Q295.25 213.4 293.65 228.2Q321.45 222.65 350.45 223.25Q355.75 230.3 351.05 238.15L350.45 238.75Q321.3 240 292.65 239.35Q290 276.5 297.15 313.8Q305.75 358.45 352.3 361.85Q376.35 363.6 388.35 342.35Q391.6 336.65 395.95 332.25Q406.15 345.65 391.6 360.1Q386.25 365.4 380.05 369.8Q353.1 389 324.3 370.95Q289.9 349.4 286.65 307.8Q283.25 263.95 287.7 220.05Q291.95 178.3 312.2 141.55Q324.05 120.05 345.95 110Q370.2 108.75 392.25 116.1L394.45 116.75M206.6,136.55Q200.05 157.75 195.2 179.5Q182.3 237.3 171.55 295.45Q165.65 327.4 162.05 359.6Q160.7 371.85 154.2 379.7L153.8 376.7L153.75 378.2Q153.7 379.6 152.45 380.2Q146.05 373.1 143.75 360.8Q140.95 345.9 135.9 331.6Q115.9 274.9 102.8 216.35Q90.05 159.4 73.75 103.25Q71.9 96.85 76.5 94Q95.05 149.95 108 207.85Q120.95 265.65 143 320.9Q150.85 340.6 153 360.55Q153.3 348.5 156.25 336Q169.7 278.75 179.7 220.8Q189.95 161.65 206.55 104.35Q207.6 100.75 210.45 100Q212.4 117.65 206.6 136.55M257.2,101.25Q260.3 159.55 256.35 219.05Q253.4 263.25 252.65 307.5Q252.05 346.65 246.45 383.95Q238.75 376.35 241.5 361.95Q244.25 347.4 244.95 332.3L250.1 213.8Q251.95 170.75 253.2 127.5Q253.6 113.05 257.2 101.25" />
</g>
</svg>
