<?xml version="1.0" encoding="utf-8"?>
<svg version="1.1" id="Layer_1"
xmlns="http://www.w3.org/2000/svg"
xmlns:xlink="http://www.w3.org/1999/xlink"


xml:space="preserve">
q2.95 -4.65 6.45 -9.05q22.15 -7.55 40.35 4.75q7.65 5.2 16.15 9.25q-2.45 -22.15 -25.4 -28.85q-34.5 -10.05 -45.4 23.1q-17.65 53.65 -19.4 110.25q-0.95 29.55 16.85 52.5q2.65 3.4 6.15 6.05q4.15 3.15 9.2 3.5q4.05 0.25 7.9 -1q22.45 -7.05 39.85 -22.75q-1 8 2 15.35q1.2 2.85 3.1 3.45q7.3 -30.7 5.15 -61.9q-14.15 17.3 -35.05 23.9q-18.3 5.6 -27.4 -10.1q-9.3 -16 -9.3 -35.1q0.05 -49.6 15.15 -96.4q1.7 -5.3 4.65 -9.95q-5.05 15.05 -9.15 30.25q-15.35 57.2 -24.7 115.95q-1 6.35 -2.6 12.55q-2.7 -24.4 -8.4 -48.5q-13.7 -57.6 -30.1 -113.75q-3.45 1.15 -2.55 5.45q12.4 57.7 26.25 115.6q5.15 21.6 7.3 43.6q1.6 16.25 8.25 27.3q9.4 -44.05 16.3 -89.15q4.55 -29.7 13.9 -58q7.25 -22 7.25 -43.3q-1.55 0.45 -2.55 1.75q-2.75 16.95 3.25 29.5q7.15 -34 7.15 -70.5q-0.05 -59.95 -1.15 -118.45q-4.55 7.15 -4.9 18q-1.8 59.45 -2.45 119.2q-0.1 11.25 -1.9 22.25<g id="904" transform="matrix(1, 0, 0, 1, -139.05, 0)">
<path style="fill:#000000;fill-opacity:1" d="M351.85,213.5Q336.75 260.3 336.7 309.9Q336.7 329 346 345Q355.1 360.7 373.4 355.1Q394.3 348.5 408.45 331.2L407.8 329.9L412 322.45L388.45 321.7L385.7 318.7L386.45 310.45L419.45 308.2Q421.6 339.4 414.3 370.1Q412.4 369.5 411.2 366.65Q408.2 359.3 409.2 351.3Q391.8 367 369.35 374.05Q365.5 375.3 361.45 375.05Q356.4 374.7 352.25 371.55Q348.75 368.9 346.1 365.5Q328.3 342.55 329.25 313Q331 256.4 348.65 202.75Q359.55 169.6 394.05 179.65Q417 186.35 419.45 208.5Q410.95 204.45 403.3 199.25Q385.1 186.95 362.95 194.5Q359.45 198.9 356.5 203.55Q353.55 208.2 351.85 213.5M414.35,322.25L414.6 322.8L414.7 322.2L414.35 322.25M220,180.5L220.2 180.5Q220.2 201.8 212.95 223.8Q203.6 252.1 199.05 281.8Q192.15 326.9 182.75 370.95L182.3 370.2L181.75 370.7Q175.1 359.65 173.5 343.4Q171.35 321.4 166.2 299.8Q152.35 241.9 139.95 184.2Q139.05 179.9 142.5 178.75Q158.9 234.9 172.6 292.5Q178.3 316.6 181 341Q182.6 334.8 183.6 328.45Q192.95 269.7 208.3 212.5Q212.4 197.3 217.45 182.25Q218.45 180.95 220 180.5M274.1,319.45Q274.75 259.7 276.55 200.25Q276.9 189.4 281.45 182.25Q282.55 240.75 282.6 300.7Q282.6 337.2 275.45 371.2Q269.45 358.65 272.2 341.7Q274 330.7 274.1 319.45" />
</g>
</svg>
