<?xml version="1.0" encoding="utf-8"?>
<svg version="1.1" id="Layer_1"
xmlns="http://www.w3.org/2000/svg"
xmlns:xlink="http://www.w3.org/1999/xlink"


xml:space="preserve">
q-22.7 5.1 -31.7 26.45q-8.5 20.15 -6.5 41.85q1.9 20.75 14.4 37.6q14.2 19.15 37.1 10.5q20.55 -7.75 14.4 -26.3q-15.95 14.8 -40.3 13.75q-20.45 -17.25 -20.15 -42.7q2.75 -5.5 0.5 -11.5q-18.75 -4.45 -36.25 3.5q8.95 -39.4 48.75 -35.75q0.05 -8.35 -7.35 -12.5q-3.65 -2 -7.65 -0.35q-12.25 57.95 -28.05 115.2q-4 14.45 -9.15 28.6q-6.25 17 0.6 28.75q4.9 -9.85 7.5 -20.8q6.85 -28.55 14.1 -57.15q13 1.1 25.95 -1.1q2.3 30.6 9.95 58.15q0.9 -0.65 0.9 -1.25q1.15 -38.65 -4.1 -77.3q1.35 -5.1 -1.1 -9.75q-0.35 -0.4 -0.8 -0.55q-4.95 -29.1 -7.1 -58.5q-1.2 -15.75 -6.1 -28.85q-1.95 3.3 -2.3 7.6q-1.1 1.6 -1.6 3.85q1.9 27.8 6.15 55.25q-10.6 1.45 -21.1 3.7q5.9 -23.05 12.05 -46.15q1.7 -6.45 2.9 -12.8q-1.65 58.75 -3.95 117.7q-2.35 59.5 -7.5 118.55q-2.55 29.65 -7.3 58.95q-2.25 14.15 5.05 21.75q46.6 0.75 92 -4.8q4.35 -9.65 -2.8 -15.3q-10.1 1.7 -20.3 0.2q-22.8 -3.35 -41.4 4.85q5.95 -41.3 8.7 -83.55q3.85 -59.1 6.75 -118.55q2.9 -59.75 0.7 -118.5q-4.45 7.65 -4.8 19q-9.25 35.9 -9.5 76q-0.45 59.55 -4.3 118.45q-3.85 59.2 -8.3 118.4q-1.05 13.75 5.35 21.6q2.9 -3.55 3.05 -8.2q1.95 -59.4 5.6 -118.55q1.85 -29.6 2.05 -59.2q0.35 -44.9 4.9 -89.1q3.15 -30.15 1.15 -59.4q-11.8 37.05 -16.35 78.2q-6.45 58.65 -17.75 116.55q-11.5 58.45 -28.15 115.4q-6.4 -40.75 -14.1 -81.55q-2.65 17.9 0.95 37.5q10.75 58.05 22.5 115.9q11.7 57.55 20.7 115.65q3.4 21.9 6.3 43.85q1.55 12 6.2 21.55q1 4.1 3.1 7.7q1.9 -1.4 1.55 -3.6q11.2 -42 19.9 -85.1q10.25 -50.6 18.4 -101.5q6.95 -43.75 14.95 -87.3q5.45 -29.85 5.55 -58.7<g id="906" transform="matrix(1, 0, 0, 1, -66.3, 0)">
<path style="fill:#000000;fill-opacity:1" d="M360.95,279.4Q364.95 277.75 368.6 279.75Q376 283.9 375.95 292.25Q336.15 288.6 327.2 328Q344.7 320.05 363.45 324.5L364.95 328Q367.2 334 364.45 339.5L324.8 341.75Q324.5 367.2 344.95 384.45Q369.3 385.5 385.25 370.7Q391.4 389.25 370.85 397Q347.95 405.65 333.75 386.5Q321.25 369.65 319.35 348.9Q317.35 327.2 325.85 307.05Q334.85 285.7 357.55 280.6L360.95 279.4M264.9,101.6Q265.25 97.3 267.2 94Q272.1 107.1 273.3 122.85Q275.45 152.25 280.4 181.35L280.95 184.6L281.4 184.7Q281.85 184.85 282.2 185.25Q284.65 189.9 283.3 195L282.75 196.45Q288 235.1 286.85 273.75Q286.85 274.35 285.95 275Q278.3 247.45 276 216.85L274.25 198.95Q261.3 201.15 248.3 200.05Q241.05 228.65 234.2 257.2Q231.6 268.15 226.7 278Q219.85 266.25 226.1 249.25Q231.25 235.1 235.25 220.65Q251.05 163.4 263.3 105.45Q263.8 103.2 264.9 101.6M263.2,142.65Q257.05 165.75 251.15 188.8Q261.65 186.55 272.25 185.1Q268 157.65 266.1 129.85Q264.9 136.2 263.2 142.65M307.45,96.5Q309.65 155.25 306.75 215Q303.85 274.45 300 333.55Q297.25 375.8 291.3 417.1Q309.9 408.9 332.7 412.25Q342.9 413.75 353 412.05L369.8 409.05L378.95 408.45Q386.1 414.1 381.75 423.75L381.45 424.45Q336.05 430 289.45 429.25L288.95 432.45Q281.65 424.85 283.9 410.7Q288.65 381.4 291.2 351.75Q296.35 292.7 298.7 233.2Q301 174.25 302.65 115.5Q303 104.15 307.45 96.5M215.3,155.65Q210.75 199.85 210.4 244.75Q210.2 274.35 208.35 303.95Q204.7 363.1 202.75 422.5Q202.6 427.15 199.7 430.7Q193.3 422.85 194.35 409.1Q198.8 349.9 202.65 290.7Q206.5 231.8 206.95 172.25Q207.2 132.15 216.45 96.25Q218.45 125.5 215.3 155.65M183.9,154.2Q175.9 197.75 168.95 241.5Q160.8 292.4 150.55 343Q141.85 386.1 130.65 428.1L131 430.6Q131.35 432.8 129.45 434.2L129.1 433.7L128.7 435.2Q126.6 431.6 125.6 427.5Q120.95 417.95 119.4 405.95Q116.5 384 113.1 362.1Q104.1 304 92.4 246.45Q80.65 188.6 69.9 130.55Q66.3 110.95 68.95 93.05L69.5 93L91.35 208.4L113.1 324.1Q120.8 364.9 127.2 405.65Q143.85 348.7 155.35 290.25Q166.65 232.35 173.1 173.7Q177.65 132.55 189.45 95.5Q189.35 124.35 183.9 154.2" />
</g>
</svg>
