<?xml version="1.0" encoding="utf-8"?>
<svg version="1.1" id="Layer_1"
xmlns="http://www.w3.org/2000/svg"
xmlns:xlink="http://www.w3.org/1999/xlink"


xml:space="preserve">
q1.45 59.6 0.25 119.2q-0.6 31.15 1.3 60q2.05 0 2.35 -2.25q3.05 -24.9 4 -50.3q4.6 -4.25 7.95 -10.3q10.9 -19.4 21.95 -38.7q18.55 53.65 37.75 105.05q2.2 -2.55 1.55 -5.8q-11.05 -55.05 -35.9 -105.2q16.5 -28.8 33.35 -57.35q8.55 -14.45 4.5 -26.85q-14.7 25.7 -29 53q-9.1 11.5 -17 24.35q-7.45 12.15 -15.7 23.6q-6.55 9.1 -9.05 18.5q-0.25 -60.25 -3.75 -119.2q-4.75 6.25 -4.55 16.5q-12.35 35.65 -23.15 72.65q-11.75 40.4 -24.65 80.5q-5.7 -19.8 -10.5 -39.8q-13.95 -58.15 -29.35 -113.65q-5.35 11.55 -0.65 26.65q12.45 39.95 21.95 81.2q6.6 28.7 11.05 57.6q2.55 16.25 9.9 27.25q1.15 -6.5 1.25 -13.05q3.2 -10.45 5.85 -21.35q14.15 -57.75 33.1 -113.65q7.35 -21.8 6.5 -43.15q-0.75 0.1 -0.85 0.45q-5.15 48.85 -3.2 99.65q1.15 30 -4.15 59.75q-3 16.85 2.85 29.5q4.5 -12.35 5.3 -26.2q3.05 -51.5 2.4 -103.5q-0.35 -30.65 -2.7 -59.25<g id="905" transform="matrix(1, 0, 0, 1, -139.15, 0)">
<path style="fill:#000000;fill-opacity:1" d="M343.45,178.25Q346.95 237.2 347.2 297.45L347.2 301.7Q349.7 292.3 356.25 283.2Q364.5 271.75 371.95 259.6Q379.85 246.75 388.95 235.25Q403.25 207.95 417.95 182.25Q422 194.65 413.45 209.1Q396.6 237.65 380.1 266.45Q404.95 316.6 416 371.65Q416.65 374.9 414.45 377.45Q395.25 326.05 376.7 272.4Q365.65 291.7 354.75 311.1Q351.4 317.15 346.8 321.4Q345.85 346.8 342.8 371.7Q342.5 373.95 340.45 373.95Q338.55 345.1 339.15 313.95Q340.35 254.35 338.9 194.75Q338.7 184.5 343.45 178.25M233.45,179.75Q234.3 201.1 226.95 222.9Q208 278.8 193.85 336.55Q191.2 347.45 188 357.9Q187.9 364.45 186.75 370.95Q179.4 359.95 176.85 343.7Q172.4 314.8 165.8 286.1Q156.3 244.85 143.85 204.9Q139.15 189.8 144.5 178.25Q159.9 233.75 173.85 291.9Q178.65 311.9 184.35 331.7L184.8 333.35Q197.7 293.25 209.45 252.85Q220.25 215.85 232.6 180.2Q232.7 179.85 233.45 179.75M283.45,182.75Q285.8 211.35 286.15 242Q286.8 294 283.75 345.5Q282.95 359.35 278.45 371.7Q272.6 359.05 275.6 342.2Q280.9 312.45 279.75 282.45Q277.8 231.65 282.95 182.8L283.45 182.75" />
</g>
</svg>
