<?xml version="1.0" encoding="utf-8"?>
<svg version="1.1" id="Layer_1"
xmlns="http://www.w3.org/2000/svg"
xmlns:xlink="http://www.w3.org/1999/xlink"


xml:space="preserve">
q-2.75 33.45 -3.65 67.45q-1.55 59.5 -4.35 118.45q0.6 2.65 3 2q4.7 -34.35 6.6 -69.7q19.65 6.8 40.2 -4.5q33.55 -18.4 24.5 -54.8q-9.15 -36.8 -47.25 -41.9q-4.95 0.85 -9.2 3.35q-0.75 0.1 -0.75 0.3q20 0.8 38.15 9.1q20.25 9.25 21.45 32.5q1.15 23.15 -21.9 32.45q-18 7.25 -36.65 2.05q-5.95 35.95 -6.7 73.45q-1.2 59.4 0.55 117.7q1.25 0 1.7 -0.6q4.95 -6.8 4.9 -15.9q2.05 -28.65 0.45 -56.2q10.35 -28.65 10.55 -57.5q-18.4 49.55 -29.5 103.5q-5.05 24.5 -10.45 48.85q-2.25 -20.25 -6.35 -40.4q-11.75 -58.15 -31.65 -113.7q-6.05 8 -2.05 19.45q19.8 56.1 29.2 115.1q2.3 14.7 3.85 29.4q1.3 12.4 5.45 21.8q0.85 2.8 2.05 5.45q1.35 -1.15 1.3 -2.95q8.8 -46.4 18.9 -93.8q3.1 -14.65 8.2 -28.8<g id="891" transform="matrix(1, 0, 0, 1, -136.45, 0)">
<path style="fill:#000000;fill-opacity:1" d="M347.45,181.5L347.9 188.4Q352.15 185.9 357.1 185.05L366.45 184.25Q404.55 189.35 413.7 226.15Q422.75 262.55 389.2 280.95Q368.65 292.25 349 285.45L348.3 300Q346.4 335.35 341.7 369.7Q339.3 370.35 338.7 367.7Q341.5 308.75 343.05 249.25Q343.95 215.25 346.7 181.8Q346.7 181.6 347.45 181.5M386.05,269.85Q409.1 260.55 407.95 237.4Q406.75 214.15 386.5 204.9Q368.35 196.6 348.35 195.8L349.4 271.9Q368.05 277.1 386.05 269.85M282.2,180.75Q283.8 208.3 281.75 236.95L281.45 237.75L282.3 355.45Q282.35 364.55 277.4 371.35Q276.95 371.95 275.7 371.95Q273.95 313.65 275.15 254.25Q275.9 216.75 281.85 180.8L282.2 180.75M201.7,266.8Q191.6 314.2 182.8 360.6L183.05 367Q183.1 368.8 181.75 369.95L181.2 369L181 369.95Q179.8 367.3 178.95 364.5Q174.8 355.1 173.5 342.7Q171.95 328 169.65 313.3Q160.25 254.3 140.45 198.2Q136.45 186.75 142.5 178.75Q162.4 234.3 174.15 292.45Q178.25 312.6 180.5 332.85Q185.9 308.5 190.95 284Q202.05 230.05 220.45 180.5Q220.25 209.35 209.9 238Q204.8 252.15 201.7 266.8" />
</g>
</svg>
