<?xml version="1.0" encoding="utf-8"?>
<svg version="1.1" id="Layer_1"
xmlns="http://www.w3.org/2000/svg"
xmlns:xlink="http://www.w3.org/1999/xlink"


xml:space="preserve">
q-49.15 -1.6 -97 6.25q-2.3 4.85 -0.2 9.65q-2.2 26.2 -1.05 54.6q1.8 44.8 -3.5 89.1q-2.05 16.9 3.65 29.4q5.75 -30.85 5.9 -63.75q0.25 -55.4 -3.5 -109.4q3.6 -6.65 -0.65 -12.65q-7.5 14.3 -2.3 26.15q6.8 -12.5 2.45 -26.1q0.5 11.6 2.2 22.95q4.4 29.85 -16 47.5q-7.85 1.1 -12.75 -5.25q-0.65 -3.4 -2.75 -6q-8.8 11.7 3 23.25q2.55 2.55 5.75 2.05q27.4 -4.05 27.6 -33.55q0.35 -43.85 -3.6 -86.2q-4.4 16.1 -3.45 35.25q-8.15 -15.5 -25.75 -15.35q-28.85 5.95 -41.9 33.65q-25.75 54.8 -17.75 116.55q3.25 25.3 24.8 37.1q15.2 8.3 31.3 1.95q14.85 -5.8 26 -17.1q23.3 -23.55 25.2 -57.1q3.05 -53.7 -21.15 -98.8q34 44.4 29.7 100.2q-1.85 24.1 -17.3 42.4q-25.1 29.6 -61 16.8q-3.5 -2.95 -5.15 -7q-21.95 -54.1 -2.15 -110.5q13.05 -37.1 50.05 -44.45q11.4 56.7 17.4 113.7q0.85 -0.35 1 -0.95q15.3 -52.3 24.35 -106.9q4.85 -29.25 14.45 -57.35q4.6 -13.5 -2.6 -20q-8.45 21.85 -12.95 45.65q-10.85 57.05 -22 113.3q-2.75 -24.65 -6.4 -49.3q-8.65 -58.1 -25.1 -114.15q-3.15 17.45 2.45 37.15q5.45 19.3 9.4 38.85<g id="757" transform="matrix(1, 0, 0, 1, -138.1, 0)">
<path style="fill:#000000;fill-opacity:1" d="M419.1,191.9L418.45 192.75L359.85 194.8Q363.6 248.8 363.35 304.2Q363.2 337.1 357.45 367.95Q351.75 355.45 353.8 338.55Q359.1 294.25 357.3 249.45Q356.15 221.05 358.35 194.85L320.7 195.75Q318.6 190.95 320.9 186.1L321.45 185.5Q369.3 177.65 418.45 179.25Q422.7 185.25 419.1 191.9M413.65,235.1Q408.45 223.25 415.95 208.95L416.1 209Q420.45 222.6 413.65 235.1M416.2,244Q420.15 286.35 419.8 330.2Q419.6 359.7 392.2 363.75Q389 364.25 386.45 361.7Q374.65 350.15 383.45 338.45Q385.55 341.05 386.2 344.45Q391.1 350.8 398.95 349.7Q419.35 332.05 414.95 302.2Q413.25 290.85 412.75 279.25Q411.8 260.1 416.2 244M303.45,196Q327.65 241.1 324.6 294.8Q322.7 328.35 299.4 351.9Q288.25 363.2 273.4 369Q257.3 375.35 242.1 367.05Q220.55 355.25 217.3 329.95Q209.3 268.2 235.05 213.4Q248.1 185.7 276.95 179.75Q294.55 179.6 302.7 195.1L303.45 196M286.7,191L286.2 190.7L281.95 190.25Q244.95 197.6 231.9 234.7Q212.1 291.1 234.05 345.2Q235.7 349.25 239.2 352.2Q275.1 365 300.2 335.4Q315.65 317.1 317.5 293Q321.8 237.2 287.8 192.8L286.7 191M143.7,216.9Q138.1 197.2 141.25 179.75Q157.7 235.8 166.35 293.9Q170 318.55 172.75 343.2Q183.9 286.95 194.75 229.9Q199.25 206.1 207.7 184.25Q214.9 190.75 210.3 204.25Q200.7 232.35 195.85 261.6Q186.8 316.2 171.5 368.5Q171.35 369.1 170.5 369.45Q164.5 312.45 153.1 255.75Q149.15 236.2 143.7 216.9" />
</g>
</svg>
