<?xml version="1.0" encoding="utf-8"?>
<svg version="1.1" id="Layer_1"
xmlns="http://www.w3.org/2000/svg"
xmlns:xlink="http://www.w3.org/1999/xlink"


xml:space="preserve">
q-0.65 1.8 -0.75 3.75q-0.1 1.45 0.25 2.85q-1.75 14.6 -1.2 31.15q2.1 60.2 -5.35 119q-1.7 13.7 4.3 21.7q1.75 -1.1 1.95 -3.05q4.05 -37.5 5.75 -75.45q12 7.45 28.75 4.75q7.85 -1.3 13.65 -6.7q25.05 -23.45 15.35 -59.15q-10.55 -38.95 -51.2 -43.6q-3.45 0.55 -7.05 2.35q-1.7 0.85 -3.35 1.8q-12.1 1.6 -23.95 -1.6q0.4 -41.95 -0.1 -77.8q22.6 -5.3 39.15 13.15q14.95 16.55 12.95 39.1q-2.1 23.55 -28.05 27.15q26.5 24.4 31.35 60.1q3.75 27.75 -3.85 54.95q-8.9 31.8 -42.2 33.1q-10.1 0.4 -16.4 -7.5q-18.9 -23.8 -16.55 -55.95q1.4 -19.75 4.15 -39.2q5.5 -38.6 42.3 -47q4.3 35.1 12.9 69.6q14.3 57.2 27.7 113.25q0.85 -0.6 1.05 -1.4q11.7 -46.95 19.85 -94.95q4.9 -29.05 14.4 -57.35q5.3 -15.95 -0.85 -28.25q-7.35 22.15 -12.35 45.75q-11.9 56.5 -22.1 113.2q-4.15 -24.45 -9.3 -48.7q-12.25 -57.8 -29.2 -114q-2.45 0.15 -2.1 2.85q19.5 -60.1 -7.45 -115.75q-10.05 -20.8 -31.5 -23.75q-19.05 2.35 -27.1 18.8q-26.55 54.15 -18.1 114.8q2.85 20.45 17.05 34.55q13.8 13.6 33.15 6.65q25.5 -9.2 33.95 -35.3<g id="747" transform="matrix(1, 0, 0, 1, -142.05, 0)">
<path style="fill:#000000;fill-opacity:1" d="M343.9,186.3L344.2 184.25L344.55 185.9Q346.2 184.95 347.9 184.1Q351.5 182.3 354.95 181.75Q395.6 186.4 406.15 225.35Q415.85 261.05 390.8 284.5Q385 289.9 377.15 291.2Q360.4 293.9 348.4 286.45Q346.7 324.4 342.65 361.9Q342.45 363.85 340.7 364.95Q334.7 356.95 336.4 343.25Q343.85 284.45 341.75 224.25Q341.2 207.7 342.95 193.1Q342.6 191.7 342.7 190.25Q342.8 188.3 343.45 186.5L343.9 186.3M400.85,248.55Q402.85 226 387.9 209.45Q371.35 191 348.75 196.3Q349.25 232.15 348.85 274.1Q360.7 277.3 372.8 275.7Q398.75 272.1 400.85 248.55M284.95,194.25Q248.15 202.65 242.65 241.25Q239.9 260.7 238.5 280.45Q236.15 312.6 255.05 336.4Q261.35 344.3 271.45 343.9Q304.75 342.6 313.65 310.8Q321.25 283.6 317.5 255.85Q312.65 220.15 286.15 195.75L284.95 194.25M144.5,180.25Q161.45 236.45 173.7 294.25Q178.85 318.5 183 342.95Q193.2 286.25 205.1 229.75Q210.1 206.15 217.45 184Q223.6 196.3 218.3 212.25Q208.8 240.55 203.9 269.6Q195.75 317.6 184.05 364.55Q183.85 365.35 183 365.95Q169.6 309.9 155.3 252.7Q146.7 218.2 142.4 183.1Q142.05 180.4 144.5 180.25M284.95,358.3Q265.6 365.25 251.8 351.65Q237.6 337.55 234.75 317.1Q226.3 256.45 252.85 202.3Q260.9 185.85 279.95 183.5Q301.4 186.45 311.45 207.25Q338.4 262.9 318.9 323Q310.45 349.1 284.95 358.3" />
</g>
</svg>
