<?xml version="1.0" encoding="utf-8"?>
<svg version="1.1" id="Layer_1"
xmlns="http://www.w3.org/2000/svg"
xmlns:xlink="http://www.w3.org/1999/xlink"


xml:space="preserve">
q-4.35 -14.4 -18.45 -19.95q-5.3 2.5 -9.7 6.75q-5.25 5.05 -9.8 10.25q-10.25 20.35 -11.2 43.5q-2.45 58.05 16.25 113.05q19.4 57.1 37.45 114.9q4.5 14.4 5.85 29.4q2.25 25.05 -13.2 44.75q-20.75 26.5 -44.4 5.35q-1.8 -8.1 -0.35 -16.4q1.55 -8.75 -1.9 -15.6q-2.4 2.7 -3.5 6.3q-8.85 28.95 12.95 47.35q3.1 2.6 7.05 2.55q30.05 -0.5 42.85 -28.65q6.25 -13.75 5.7 -28.7q-2.2 -58.3 -23.75 -113.65q-21.95 -56.4 -35.1 -115q-8.6 -38.4 4.8 -75.15q5 -6.9 12.55 -11.2q5.5 0 10.65 1.3q13.65 3.45 16.85 16.95q1.55 1.75 3.65 0.8q-0.3 -4.95 -1.8 -9.8q18.4 -13.5 29 5.65q1.45 -22.1 -21.55 -22.5q-24.15 19.05 -30.25 52.3q-10.45 57.5 -11.95 116.45q-0.65 26.15 -1.9 52.4q-2.8 59.6 5.15 117.95q3.7 26.85 27.4 37.1q21.9 9.55 33.8 -7.8q14.9 -21.6 10.75 -44.2q-3.3 2.9 -4.4 7.5q-4.9 19.6 -18.85 33q-18.55 2.95 -33 -8q-0.55 -1.9 -2 -3.05q-2.65 -6.65 -4.15 -13.55q-9.6 -43.75 -8.7 -89.9q0.5 -25.05 1.15 -49.95q22.8 1.3 46.2 -1.8q2.1 -5.2 -0.9 -9.7q-23.6 -0.15 -45.45 3.75q0.9 -30.1 2.05 -60.05q2 -51.7 19.95 -100.45q2.6 -7.1 8.45 -11.4q13.75 35.45 17.1 73.95q5.2 59.4 8.65 119.3q3.55 60.7 -14.45 118.05q-9.3 29.6 -29.05 51.4q-8.75 2.15 -17.4 -1.95q-26.65 -12.55 -33.95 -42.55q-12.2 -49.9 -11.2 -102.2q1.15 -59.6 1.15 -119.25q0 -60.8 42.4 -102.75q2.95 -1.4 6.05 -2.3q12.95 -2.3 23 3q0 1.15 0.5 2.25q0.55 1.2 1.5 2.25q-4.05 13.95 -6.25 28.5q-8.85 58.9 -22.7 117.15q-13.6 57.4 -25.7 115.05q-12.1 57.55 -23.85 114.5q-1.75 -12.55 -3.15 -25.2q-6.5 -58.7 -17.05 -116.8q-10.6 -58.25 -26.15 -115.35q-15.55 -57.2 -19.1 -115.1q-4.2 18.75 -0.2 39.65q11.25 58.75 25.75 116.95q14.25 57.25 23.25 115.35q8.9 57.55 12.95 115.6q0.85 12.65 5.95 21.15q2.65 -2.2 3.15 -5.65q2.85 -19.45 6.9 -38.75q12.2 -58.7 23.6 -117.6q11.15 -57.75 24.7 -115.25q13.6 -57.8 24.2 -115.45q1.85 -10.2 -3.8 -13.5q-0.95 59.55 -2.75 119.25q-1.8 60.55 14.35 117.35q7.3 25.65 30.7 37.5q28.1 14.25 40.25 -15.6q9 -22.05 16.4 -44.6q18.45 -56.35 15.3 -116.4q-3.1 -59.4 -9.1 -118.45q-2.95 -29.4 -6.7 -58.8q-4.85 -38.15 -43.35 -37.75q-24.25 11.35 -36.35 36.8q-18.05 38.05 -18.75 80.7q-2.6 59.3 -7 118.45q-2.3 30.6 -0.4 59.3q32.85 -0.85 62.75 5q3.15 -6.35 0 -12.75q-29.85 -5.2 -58.75 -7q1.25 -31.25 3.2 -62.3q3.8 -59.65 4.8 -118.4q-4.15 7.1 -4.6 17.7<g id="755" transform="matrix(1, 0, 0, 1, -27.05, 0)">
<path style="fill:#000000;fill-opacity:1" d="M492.7,110.5L492.1 111.05Q490 112 488.45 110.25Q485.25 96.75 471.6 93.3Q466.45 92 460.95 92Q453.4 96.3 448.4 103.2L441.95 111.5Q428.55 148.25 437.15 186.65Q450.3 245.25 472.25 301.65Q493.8 357 496 415.3Q496.55 430.25 490.3 444Q477.5 472.15 447.45 472.65Q443.5 472.7 440.4 470.1Q418.6 451.7 427.45 422.75Q428.55 419.15 430.95 416.45Q434.4 423.3 432.85 432.05Q431.4 440.35 433.2 448.45Q456.85 469.6 477.6 443.1Q493.05 423.4 490.8 398.35Q489.45 383.35 484.95 368.95Q466.9 311.15 447.5 254.05Q428.8 199.05 431.25 141Q432.2 117.85 442.45 97.5Q447 92.3 452.25 87.25Q456.65 83 461.95 80.5L472.45 80.75Q486.55 86.3 490.9 100.7Q492.4 105.55 492.7 110.5M368,112.75Q350.05 161.5 348.05 213.2Q346.9 243.15 346 273.25Q367.85 269.35 391.45 269.5Q394.45 274 392.35 279.2L391.95 280Q368.55 283.1 345.75 281.8Q345.1 306.7 344.6 331.75Q343.7 377.9 353.3 421.65Q354.8 428.55 357.45 435.2L358.25 435.9Q359.7 437.05 360.25 438.95L360.7 440.45Q375.15 451.4 393.7 448.45Q407.65 435.05 412.55 415.45Q413.65 410.85 416.95 407.95Q421.1 430.55 406.2 452.15Q394.3 469.5 372.4 459.95Q348.7 449.7 345 422.85Q337.05 364.5 339.85 304.9Q341.1 278.65 341.75 252.5Q343.25 193.55 353.7 136.05Q359.8 102.8 383.95 83.75Q406.95 84.15 405.5 106.25L405.45 107Q394.85 87.85 376.45 101.35Q370.6 105.65 368 112.75M263.45,96.25Q262.95 95.15 262.95 94Q252.9 88.7 239.95 91Q236.85 91.9 233.9 93.3L231.95 94Q189.55 135.95 189.55 196.75Q189.55 256.4 188.4 316Q187.4 368.3 199.6 418.2Q206.9 448.2 233.55 460.75Q242.2 464.85 250.95 462.7Q270.7 440.9 280 411.3Q298 353.95 294.45 293.25Q291 233.35 285.8 173.95Q282.45 135.45 268.7 100L266.5 99.2L264.95 98.5Q264 97.45 263.45 96.25M181.5,89.75Q170.9 147.4 157.3 205.2Q143.75 262.7 132.6 320.45Q121.2 379.35 109 438.05Q104.95 457.35 102.1 476.8Q101.6 480.25 98.95 482.45Q93.85 473.95 93 461.3Q88.95 403.25 80.05 345.7Q71.05 287.6 56.8 230.35Q42.3 172.15 31.05 113.4Q27.05 92.5 31.25 73.75L33.6 78.3L33.75 79Q37.3 136.9 52.85 194.1Q68.4 251.2 79 309.45Q89.55 367.55 96.05 426.25Q97.45 438.9 99.2 451.45Q110.95 394.5 123.05 336.95Q135.15 279.3 148.75 221.9Q162.6 163.65 171.45 104.75Q173.65 90.2 177.7 76.25Q183.35 79.55 181.5 89.75M204.6,116.3Q216.7 90.85 240.95 79.5Q279.45 79.1 284.3 117.25Q288.05 146.65 291 176.05Q297 235.1 300.1 294.5Q303.25 354.55 284.8 410.9Q277.4 433.45 268.4 455.5Q256.25 485.35 228.15 471.1Q204.75 459.25 197.45 433.6Q181.3 376.8 183.1 316.25Q184.9 256.55 185.85 197Q186.55 154.35 204.6 116.3M318.45,276.5Q317.45 335.25 313.65 394.9Q311.7 425.95 310.45 457.2Q339.35 459 369.2 464.2Q372.35 470.6 369.2 476.95Q339.3 471.1 306.45 471.95Q304.55 443.25 306.85 412.65Q311.25 353.5 313.85 294.2Q314.3 283.6 318.45 276.5" />
</g>
</svg>
