<?xml version="1.0" encoding="utf-8"?>
<svg version="1.1" id="Layer_1"
xmlns="http://www.w3.org/2000/svg"
xmlns:xlink="http://www.w3.org/1999/xlink"


xml:space="preserve">
q-0.15 1.4 0.2 2.75q-2.85 17.9 -3.2 37.75q-1.1 59.6 -8.3 118.25q-2.1 16.85 4.3 29.45q6.1 -34.5 8 -70.4q14.45 -0.4 28.15 -5.75q2.8 24.4 12.55 48q4.25 10.3 7.3 20.75q4.5 15.4 13.15 25q1.75 -1.85 1.1 -4.15q-13.3 -46 -30.3 -91.2q23.2 -21.45 15.25 -52.15q-10.15 -39.2 -51.75 -39.8q-0.6 -0.2 -1.05 0.15q-1.4 1 -1.65 2.85q27.65 1.85 42.3 25.3q9.5 15.2 0.35 29.3q-15.8 24.3 -44.45 23.6q0.9 -40 -1.2 -79.6q1.2 1.3 3 1.4q-22.7 -6.45 -39.15 10.2q-14.85 15.15 -21.6 35.75q-6.55 20.1 -9.4 41q-2.8 20.5 -0.05 40.9q2.9 21.35 14.7 39.3q12.8 19.35 36.95 13.3q22.45 -5.65 30.8 -27.2q7.1 -18.2 9.95 -37.5q2.55 -17.45 4.15 -35q2 -21.65 -2.35 -42.85q-4.25 -20.8 -15.75 -38.9q18.15 42.7 11.25 90.45q-1.45 10.1 -4.5 19.85q-5.3 17.1 -18.3 29.35q-11.35 10.75 -27.65 9.25q-23.95 -1.9 -28.3 -26.4q-7.05 -39.75 1.8 -79.15q2.65 -11.85 8.5 -22.25q9.75 -17.4 28.3 -24.25q10.15 -3.75 20.65 -1.75q5.2 36.85 15.95 73.6q16.3 55.65 23.65 113.2q1.9 1.2 2.45 -0.95q15.7 -56.95 28.9 -115q3.25 -14.35 8.8 -28.1q8.9 -22.1 5.55 -43.4q-11 22.4 -17.3 48.85q-13.4 56.7 -25.9 112.6q-3 -24.55 -8.95 -48.55q-14.2 -57.3 -32.05 -113.4q-1.3 -0.15 -1.1 1.15<g id="759" transform="matrix(1, 0, 0, 1, -139.95, 0)">
<path style="fill:#000000;fill-opacity:1" d="M344.5,182.5Q344.75 180.65 346.15 179.65Q346.6 179.3 347.2 179.5Q388.8 180.1 398.95 219.3Q406.9 250 383.7 271.45L378.25 274.1Q395.25 319.3 408.55 365.3Q409.2 367.6 407.45 369.45Q398.8 359.85 394.3 344.45Q391.25 334 387 323.7Q377.25 300.1 374.45 275.7Q360.75 281.05 346.3 281.45L345.45 301.05Q343.55 336.95 337.45 371.45Q331.05 358.85 333.15 342Q340.35 283.35 341.45 223.75Q341.8 203.9 344.65 186Q344.3 184.65 344.45 183.25L344.5 182.5M345.5,187.7Q347.6 227.3 346.7 267.3Q375.35 268 391.15 243.7Q400.3 229.6 390.8 214.4Q376.15 190.95 348.5 189.1Q346.7 189 345.5 187.7M307.45,184Q318.95 202.1 323.2 222.9Q327.55 244.1 325.55 265.75Q323.95 283.3 321.4 300.75Q318.55 320.05 311.45 338.25Q303.1 359.8 280.65 365.45Q256.5 371.5 243.7 352.15Q231.9 334.2 229 312.85Q226.25 292.45 229.05 271.95Q231.9 251.05 238.45 230.95Q245.2 210.35 260.05 195.2Q276.5 178.55 299.2 185L301.2 183.25L307.45 184M277.3,197.85Q258.75 204.7 249 222.1Q243.15 232.5 240.5 244.35Q231.65 283.75 238.7 323.5Q243.05 348 267 349.9Q283.3 351.4 294.65 340.65Q307.65 328.4 312.95 311.3Q316 301.55 317.45 291.45Q324.35 243.7 306.2 201L297.95 196.1Q287.45 194.1 277.3 197.85M141.25,180Q159.1 236.1 173.3 293.4Q179.25 317.4 182.25 341.95Q194.75 286.05 208.15 229.35Q214.45 202.9 225.45 180.5Q228.8 201.8 219.9 223.9Q214.35 237.65 211.1 252Q197.9 310.05 182.2 367Q181.65 369.15 179.75 367.95Q172.4 310.4 156.1 254.75Q145.35 218 140.15 181.15Q139.95 179.85 141.25 180" />
</g>
</svg>
