<?xml version="1.0" encoding="utf-8"?>
<svg version="1.1" id="Layer_1"
xmlns="http://www.w3.org/2000/svg"
xmlns:xlink="http://www.w3.org/1999/xlink"


xml:space="preserve">
q-4.15 -23.8 -28.45 -28.15q-9.15 -1.75 -18.05 0.4q-25.3 26 -19.7 62.05q11 70.8 37.7 137.7q16.35 40.95 22.1 84.75q2.1 15.85 2.05 31.85q0 4.7 -0.75 9.4q-0.7 4.65 -1.95 9q-1.85 6.7 -4.75 12.8q-6.05 12.9 -16.15 23.1q-28.25 1.6 -38.8 -23.6q-4.6 8.25 -1.9 18.05q13.4 17.55 34.7 19.85q5.95 0.8 11.25 -3.65q15.35 -12.8 22 -31.65q8.25 -23.5 8.2 -48.25q0 -7 -0.7 -13.85q-0.75 -7.15 -2.05 -14.05q-3.4 -17.8 -7.85 -35.3q-6.25 -24.5 -15.25 -48.2q-13.15 -34.65 -25.55 -69.6q-9.25 -26.05 -14.15 -53.1q-5.45 -30.25 12.95 -54.65q27.3 -5.65 44.6 16.35q1.1 1.4 1.65 -0.35q-12.85 -11 -30.3 -9.45q-12 6.05 -17.9 18.5q-22.8 48.4 -23.5 102.5q-0.75 59.55 -2.25 119.25q-1.55 40.05 11 76.35q11.1 32.2 44.1 24.95q5.95 -4.05 10.95 -9.25q2.8 -2.95 5.8 -5.25q5.25 -8.7 9.55 -17.75q5.45 -11.5 4.45 -22.75q-2.75 1.8 -4 5.45q-9.55 27.8 -35.25 37.35q-5.65 2.1 -10.95 -0.6q-23.95 -12.1 -26.25 -39.45q-5.05 -59.2 -3.5 -119.2q23.95 3.3 47.45 1.15q2.1 -5.2 -0.9 -9.7q1.7 -51.2 6 -101.9q3 -35.6 23.35 -63.95q9 -12.6 24.7 -5.8q12.95 5.65 20.9 13.45q0 -6.1 -3.8 -11.4q-22.05 -0.5 -43.6 0.05q-1.85 0.05 -3.65 1.1q1 1.9 3.1 2.1q-5 24.4 -5.2 49.35q-0.3 44.85 -0.15 89.65q0.45 119.1 3.45 237.85q2.75 -7.85 3.15 -16.15q2.25 -49.8 1.55 -99.85q-1.85 -130.5 -0.95 -260.85q2.5 1.85 3.7 4.3q11.65 23.75 15.6 50.2q8.8 58.55 11 118.55q2.2 60.25 -9.7 118.45q-4.55 22.3 -12.35 44.15q-12.25 34.35 -46.25 33.2q-16.9 -22.5 -19.8 -51.55q-4.35 -44 -2.3 -88.75q1.4 -29.95 0.25 -59.85q-2.3 -60.1 10.95 -117.9q5.25 -26.85 28.1 -37.6q10 -3.3 17.5 2.1q-16.55 4.7 -23.2 21.2q-22.4 55.5 -22.35 115.8q0.05 59.5 -2.9 119.15q-2.9 60.25 12.05 117.3q5.25 20 25.45 21.15q6.5 0.35 11.2 -4q34.35 -31.55 43.15 -78.75q10.85 -58.25 8.8 -118.65q-2 -59.4 -8.5 -117.75q-4.3 -38.35 -20.2 -72.7q-0.5 -0.4 -1 -0.4q-9.8 58.4 -18.8 117.5q-8.85 57.95 -16.95 116.05q-8.25 -58.5 -17.8 -116.8q-9.55 -58.3 -18.7 -116.65q-9.25 -58.7 -16.45 -116.9q-0.65 -0.2 -0.65 0.25q1 51.9 9.35 104q9.3 58.3 19.35 116.5q10 58.15 17 116.8q3.6 30.35 10.7 58.15q7.95 -34.45 12.25 -70.9q6.95 -58.65 14.2 -117.25q7.25 -58.45 18.4 -116.3q5.65 -29.25 13.35 -57.8q4.45 -16.65 -2.25 -29.2q-0.6 0.35 -0.8 0.9q-2.2 6.4 -3.35 13.05<g id="756" transform="matrix(1, 0, 0, 1, -37.6, 0)">
<path style="fill:#000000;fill-opacity:1" d="M501.3,107.6Q484 85.6 456.7 91.25L453.75 95Q435.35 119.4 440.8 149.65Q445.7 176.7 454.95 202.75Q467.35 237.7 480.5 272.35Q489.5 296.05 495.75 320.55Q500.2 338.05 503.6 355.85Q504.9 362.75 505.65 369.9Q506.35 376.75 506.35 383.75Q506.4 408.5 498.15 432Q491.5 450.85 476.15 463.65Q470.85 468.1 464.9 467.3Q443.6 465 430.2 447.45Q427.5 437.65 432.1 429.4L432.65 430.1Q443.2 455.3 471.45 453.7L475 450.15Q485.1 439.95 491.15 427.05Q494.05 420.95 495.9 414.25Q497.15 409.9 497.85 405.25Q498.6 400.55 498.6 395.85Q498.65 379.85 496.55 364Q490.8 320.2 474.45 279.25Q447.75 212.35 436.75 141.55Q431.15 105.5 456.45 79.5Q465.35 77.35 474.5 79.1Q498.8 83.45 502.95 107.25Q502.4 109 501.3 107.6M410.2,87.25L412.15 90.1Q415.95 95.4 415.95 101.5L415.7 103Q407.75 95.2 394.8 89.55Q379.1 82.75 370.1 95.35Q349.75 123.7 346.75 159.3Q342.45 210 340.75 261.2L387.45 259.5Q390.45 264 388.35 269.2L387.95 270Q364.45 272.15 340.5 268.85L340.25 277Q338.7 337 343.75 396.2Q346.05 423.55 370 435.65Q375.3 438.35 380.95 436.25Q406.65 426.7 416.2 398.9Q417.45 395.25 420.2 393.45Q421.2 404.7 415.75 416.2Q411.45 425.25 406.2 433.95Q403.2 436.25 400.4 439.2Q395.4 444.4 389.45 448.45Q356.45 455.7 345.35 423.5Q332.8 387.2 334.35 347.15L335.3 317.25Q336.8 257.55 337.55 198Q338.25 143.9 361.05 95.5Q366.95 83.05 378.95 77Q396.4 75.45 409.25 86.45L410.2 87.25M338.65,86L338.2 87.5L337.2 89.75L300.7 90.35Q299.8 220.7 301.65 351.2Q302.35 401.25 300.1 451.05Q299.7 459.35 296.95 467.2Q293.95 348.45 293.5 229.35Q293.35 184.55 293.65 139.7Q293.85 114.75 298.85 90.35L288.7 90.4L255.05 88.85Q252.95 88.65 251.95 86.75L245.95 86L246.25 79.65Q248.05 78.6 249.9 78.55Q271.45 78 293.5 78.5L337.2 79.25L338.55 81.15L338.65 81.5L338.75 82.25L338.85 83.75L338.9 84.5L338.65 86M203.7,89.5Q180.85 100.25 175.6 127.1L172.3 142.4Q159.05 200.2 161.35 260.3Q162.5 290.2 161.1 320.15Q159.05 364.9 163.4 408.9Q166.3 437.95 183.2 460.45Q217.2 461.6 229.45 427.25Q237.25 405.4 241.8 383.1Q253.7 324.9 251.5 264.65Q249.3 204.65 240.5 146.1Q236.55 119.65 224.9 95.9Q223.7 93.45 221.2 91.6Q213.7 86.2 203.7 89.5M218.2,79.6Q218.7 79.6 219.2 80L220.6 80.9L221.95 82.25L222.4 82.15L224.45 80.75L225.45 81.05L227.45 81.75Q243.35 116.1 247.65 154.45Q254.15 212.8 256.15 272.2Q258.2 332.6 247.35 390.85Q238.55 438.05 204.2 469.6Q199.5 473.95 193 473.6Q172.8 472.45 167.55 452.45Q152.6 395.4 155.5 335.15Q158.45 275.5 158.4 216Q158.35 155.7 180.75 100.2Q187.4 83.7 203.95 79L218.2 79.6M149.15,78.4Q149.35 77.85 149.95 77.5Q156.65 90.05 152.2 106.7Q144.5 135.25 138.85 164.5Q127.7 222.35 120.45 280.8Q113.2 339.4 106.25 398.05Q101.95 434.5 94 468.95Q86.9 441.15 83.3 410.8Q76.3 352.15 66.3 294Q56.25 235.8 46.95 177.5Q38.6 125.4 37.6 73.5Q37.6 73.05 38.25 73.25Q45.45 131.45 54.7 190.15Q63.85 248.5 73.4 306.8Q82.95 365.1 91.2 423.6L94 441.7L110.05 325Q118.15 266.9 127 208.95Q136 149.85 145.8 91.45Q146.95 84.8 149.15 78.4" />
</g>
</svg>
