<?xml version="1.0" encoding="utf-8"?>
<svg version="1.1" id="Layer_1"
xmlns="http://www.w3.org/2000/svg"
xmlns:xlink="http://www.w3.org/1999/xlink"


xml:space="preserve">
q-17.15 -15.3 -34.85 5.35q-14.3 16.65 -21.05 37.4q-6.1 18.75 -5.5 38.45q0.6 20.9 -0.1 41.75q-0.75 21.55 7.55 41.35q10.4 24.85 31.65 7.15q4.35 -3.6 7.7 -8.15q-1.05 10 4.75 17.85q10.2 -38.4 4.15 -79q-13.95 -2 -27.15 2.55q-7.1 19.25 -24.9 27.85q-3.2 1.5 -6.9 2.1q-14.25 -42.3 -8.85 -87.25q2.5 -20.9 11.6 -39.85q6.15 -12.9 17.55 -21.25q11.65 -8.45 25.85 -11.25q-2.2 16.35 0.65 33.05q2.9 17.3 3.85 35.05q3.1 57.95 -28.9 103.55q-3.35 1.2 -6.5 3q-7.95 -6.2 -8.9 -16.8q-2.2 -25.2 -0.6 -50.25q3.7 -59.7 2.5 -118.4q-7.65 18.1 -6.95 40.75q1.75 59.3 -3.7 118.4q-2.6 28.7 18.65 43.55q24.15 -16.25 30.9 -45.85q13.25 -58.2 9.2 -118.45q-1.1 -17.15 -9.35 -29.15q-0.75 0.75 -0.85 1.55q-9.25 4.1 -12.1 14.25q-6.3 22.45 -6.75 46.5q-1.1 55.45 -1.8 111q-0.1 10.15 6.05 17.55q6.75 8.15 15.15 1.25q22.5 -18.5 22.45 -45.3q-5.4 3.25 -8.7 8.85q-6.7 11.55 -15.8 21.15q-4.75 1.8 -8.7 -0.2q-1.25 -1.25 -1.3 -2.95q-1.25 -34.6 -1.35 -70q0.3 1.3 0.9 2.5q18.8 4.25 35.5 -8.5q0.25 -1.25 1.05 -2.25q0.85 -1 0.7 -2.25q0.15 -1.3 -0.45 -2.45q-0.9 -1.85 -2.55 -2.8q-16.4 1.75 -30.25 9.5q-0.4 1.15 -0.65 2.4q0.05 -38.3 6.9 -75q1.8 -1.55 2.5 -3.75q0.6 -0.55 1.35 -0.9q5.85 0.8 10.5 -0.75q1.2 -2.95 0.6 -6.05q-0.75 -3.95 -4.35 -5.95q-2.5 0.05 -3.25 2.85q-14.45 56.85 -28.2 114.1q-2 8.3 -2.8 16.35q-8.4 -50.85 -20.95 -101.15q-15.8 -57.55 -27.8 -113.9q-1.05 -5.5 -3.8 -10.55q-0.75 0.1 -0.8 0.3q-2.05 27.35 6.8 54.75q18.45 56.95 30.3 115.05q11.8 57.85 21.65 114.35q1.15 -0.35 1.3 -0.95q10.55 -43.85 20.05 -88.15q12.4 -57.75 27.6 -114.9q3.9 -14.55 9 -28.7q7.95 -21.9 5.3 -43.25q-13.2 40.6 -14.35 83.65q-1.35 51.6 37 83.9q10.7 9.05 24.1 3.8q46.6 -18.2 56.4 -67.45q5.55 -27.95 1.7 -56.45q-6.4 -47.05 -44.5 -72.55q-4.5 -3.4 -9.85 -4.85q-11.45 1.55 -22.8 6.2q-19.4 7.9 -25.55 26.9q25.25 16.25 40.3 42q11.1 19 12.75 41.1q1.5 20.6 -6.1 39.9q-8.3 21.15 -24.4 37.3q-15.45 15.5 -35.9 9.85q-22.3 -6.15 -29.75 -27.95q-10.35 -30.2 -9.9 -62.05q0.3 -19.25 4.15 -38.1q3.2 -15.6 14.15 -27.1q14.4 -15.25 35.45 -18.55<g id="760" transform="matrix(1, 0, 0, 1, -48.65, 0)">
<path style="fill:#000000;fill-opacity:1" d="M325.75,179.15Q314.35 187.5 308.2 200.4Q299.1 219.35 296.6 240.25Q291.2 285.2 305.45 327.5L309.45 329.5Q313.15 328.9 316.35 327.4Q334.15 318.8 341.25 299.55L341.95 284.5L318.7 281.25L318.7 272.25Q331.9 267.7 345.85 269.7Q351.9 310.3 341.7 348.7Q335.9 340.85 336.95 330.85Q333.6 335.4 329.25 339Q308 356.7 297.6 331.85Q289.3 312.05 290.05 290.5Q290.75 269.65 290.15 248.75Q289.55 229.05 295.65 210.3Q302.4 189.55 316.7 172.9Q334.4 152.25 351.55 167.55L351.6 167.9Q337.4 170.7 325.75 179.15M410.2,170.75Q418.45 182.75 419.55 199.9Q423.6 260.15 410.35 318.35Q403.6 347.95 379.45 364.2Q358.2 349.35 360.8 320.65Q366.25 261.55 364.5 202.25Q363.8 179.6 371.45 161.5Q372.65 220.2 368.95 279.9Q367.35 304.95 369.55 330.15Q370.5 340.75 378.45 346.95Q381.6 345.15 384.95 343.95Q416.95 298.35 413.85 240.4Q412.9 222.65 410 205.35Q407.15 188.65 409.35 172.3Q409.45 171.5 410.2 170.75M459.45,167Q463.05 169 463.8 172.95Q464.4 176.05 463.2 179Q458.55 180.55 452.7 179.75Q451.95 180.1 451.35 180.65L448.2 182.75L447.95 183.5Q447.25 185.7 445.45 187.25Q438.6 223.95 438.55 262.25L438.55 264.65Q438.8 263.4 439.2 262.25Q453.05 254.5 469.45 252.75L472.25 253.7L473.7 253.75Q475.35 254.7 476.25 256.55Q476.85 257.7 476.7 259Q476.85 260.25 476 261.25Q475.2 262.25 474.95 263.5Q458.25 276.25 439.45 272Q438.85 270.8 438.55 269.5Q438.65 304.9 439.9 339.5Q439.95 341.2 441.2 342.45Q445.15 344.45 449.9 342.65L451.45 342Q460.55 332.4 467.25 320.85Q470.55 315.25 475.95 312Q476 338.8 453.5 357.3Q445.1 364.2 438.35 356.05Q432.2 348.65 432.3 338.5Q433 282.95 434.1 227.5Q434.55 203.45 440.85 181Q443.7 170.85 452.95 166.75L459.45 167M170.15,148Q165.05 162.15 161.15 176.7Q145.95 233.85 133.55 291.6Q124.05 335.9 113.5 379.75Q113.35 380.35 112.2 380.7L112.15 380.2L109.45 383.45Q99.6 326.95 87.8 269.1Q75.95 211 57.5 154.05Q48.65 126.65 50.7 99.3Q50.75 99.1 51.5 99Q54.25 104.05 55.3 109.55L55.25 110.25Q67.25 166.6 83.05 224.15L90.55 252.85Q103.1 303.15 111.5 354Q112.3 345.95 114.3 337.65Q128.05 280.4 142.5 223.55L172.2 107.6Q172.95 104.8 175.45 104.75Q178.1 126.1 170.15 148M201.15,157.7Q212.5 153.05 223.95 151.5Q229.3 152.95 233.8 156.35L235.2 157.25L235.45 158L235.7 158.75L235.95 159.5Q274.05 185 280.45 232.05Q284.3 260.55 278.75 288.5Q268.95 337.75 222.35 355.95Q208.95 361.2 198.25 352.15Q159.9 319.85 161.25 268.25Q162.4 225.2 175.6 184.6Q181.75 165.6 201.15 157.7M222.95,163.75Q201.9 167.05 187.5 182.3Q176.55 193.8 173.35 209.4Q169.5 228.25 169.2 247.5Q168.75 279.35 179.1 309.55Q186.55 331.35 208.85 337.5Q229.3 343.15 244.75 327.65Q260.85 311.5 269.15 290.35Q276.75 271.05 275.25 250.45Q273.6 228.35 262.5 209.35Q247.45 183.6 222.2 167.35L222.95 163.75" />
</g>
</svg>
