<?xml version="1.0" encoding="utf-8"?>
<svg version="1.1" id="Layer_1"
xmlns="http://www.w3.org/2000/svg"
xmlns:xlink="http://www.w3.org/1999/xlink"


xml:space="preserve">
q0.7 -3.2 -0.95 -6.05q-0.85 -1.5 -2.2 -2.25q-0.4 0.2 -0.7 0.55q-0.1 2.65 0.65 5.2q-1.9 15 -2.45 30.1q-2.45 69.8 -2.1 138.45q2.65 -15.3 3.9 -30.75q5.7 -68.9 0.7 -137.9q-1.4 34.5 -0.5 70.5q-0.4 -28.95 -1.9 -57.6q-3.9 2.3 -3.9 8.25q0.05 59.8 -3.85 119.15q-1.1 16.9 4.75 29.3q3.95 -18.2 4.5 -38.25q0.65 -24.45 0.55 -48.7q21.5 0.75 42.2 -1.9q0.45 46.25 -1.25 91.85q1.6 1.65 1.95 -0.4q5.95 -33.95 6 -69.6q-0.25 -30.55 -5.95 -59.25q-0.5 0.1 -0.5 0.25q7.1 34 14 68.5q11.45 57.1 19.25 114.6q0.6 1.65 2.25 2q2.05 -3.45 2.9 -7.4q9.05 -19.3 12 -42.9q7.3 -58.3 23.55 -115.1q4.45 -15.55 2.15 -29.7q-17.9 52.25 -27.25 108.2q-3.05 18 -7.4 35.6q-3.15 12.85 -3.7 25.25q-4.75 -26.9 -8.7 -54.05q-8.6 -58.55 -27.65 -114.5q-2.6 0.05 -2 2.85q4.6 7.2 12.8 11.8q7.2 4.1 9.8 12.4q8.9 28.45 -19.1 40.2q-23.1 9.65 -30.55 -11.35q-10.9 -30.8 10.05 -53.8q-13.55 10.75 -17.45 27.55q-5.65 24.5 2.35 48.35q5.05 15.1 19.8 16.9q26.05 3.45 38.15 -20.4q10.5 -20.65 1.85 -42.8q-6.55 -16.85 -22.35 -25.95<g id="769" transform="matrix(1, 0, 0, 1, -140.9, 0)">
<path style="fill:#000000;fill-opacity:1" d="M377.55,197.55L376.95 198.4L375.45 199.75L348.05 199.3Q353.05 268.3 347.35 337.2Q346.1 352.65 343.45 367.95L341 367.75Q340.65 299.1 343.1 229.3Q343.65 214.2 345.55 199.2L302.6 196.4L302.1 194.95Q301.35 192.4 301.45 189.75L301.55 188.6L301.85 187.45L302.2 186.35L302.8 185.35Q303.1 185 303.5 184.8L375.45 186.25Q376.8 187 377.65 188.5Q379.3 191.35 378.6 194.55L378 196.65L377.55 197.55M423.2,183Q428.9 211.7 429.15 242.25L429.4 302.2Q429.35 337.85 423.4 371.8Q423.05 373.85 421.45 372.2Q423.15 326.6 422.7 280.35Q402 283 380.5 282.25Q380.6 306.5 379.95 330.95Q379.4 351 375.45 369.2Q369.6 356.8 370.7 339.9Q374.6 280.55 374.55 220.75Q374.55 214.8 378.45 212.5Q379.95 241.15 380.35 270.1L422.5 266.3L422.2 253.75Q421.3 217.75 422.7 183.25Q422.7 183.1 423.2 183M143.5,180.5Q162.55 236.45 171.15 295Q175.1 322.15 179.85 349.05Q180.4 336.65 183.55 323.8Q187.9 306.2 190.95 288.2Q200.3 232.25 218.2 180Q220.5 194.15 216.05 209.7Q199.8 266.5 192.5 324.8Q189.55 348.4 180.5 367.7L179.9 361.05Q179.05 365 177 368.45Q175.35 368.1 174.75 366.45Q166.95 308.95 155.5 251.85Q148.6 217.35 141.5 183.35Q140.9 180.55 143.5 180.5M264.2,282.7Q243.25 305.7 254.15 336.5Q261.6 357.5 284.7 347.85Q312.7 336.1 303.8 307.65Q301.2 299.35 294 295.25Q285.8 290.65 281.2 283.45L264.2 282.7M286.3,273.1Q302.1 282.2 308.65 299.05Q317.3 321.2 306.8 341.85Q294.7 365.7 268.65 362.25Q253.9 360.45 248.85 345.35Q240.85 321.5 246.5 297Q250.4 280.2 263.95 269.45L285.45 272.45L286.3 273.1" />
</g>
</svg>
