<?xml version="1.0" encoding="utf-8"?>
<svg version="1.1" id="Layer_1"
xmlns="http://www.w3.org/2000/svg"
xmlns:xlink="http://www.w3.org/1999/xlink"


xml:space="preserve">
q-1.75 -0.15 -1.8 1.75q-0.6 22.75 -0.75 45.75q-0.1 30.25 -4.35 59.75q-2.05 14.45 6.05 21.7q0.35 1.15 1.05 2.2q32.65 6.7 56.8 -17.55q13.2 -13.2 20.5 -30.35q23.9 -55.75 13.8 -115.5q-7.75 -45.8 -43.95 -74.3q-21.75 -11.1 -45.75 -12.75q-1.4 0.15 -2.15 1q17.9 10.55 29.9 27.7q12.2 17.35 16.3 38.3q4.05 20.55 2.9 41.4q-1.1 20.75 -8.05 40.15q-6.85 19.1 -18.4 35.65q-2.45 3.55 -6.45 5.2q-9.75 12.1 -25 16.95q-15.9 5.25 -32 1.3q3.75 -42.35 5.15 -87.45q2 -66.15 -4.65 -132.2q21.65 1.9 40.3 13q-10.75 -0.25 -18.15 7.7q-35.45 38.1 -41.15 91.85q-2.3 21.5 -3.2 43.35q-2.15 51.45 23.15 94.8q4.65 8 13.05 10.3q32.95 9 54.55 -19.25q38 -49.75 35.95 -113.8q-1.5 -50.65 -41.75 -81q-7.8 -3.25 -16.45 -4.4q14.55 -8.8 29.95 -2.5q11.95 9.25 19.7 22.6q24.65 42.45 19.35 91.8q-3.6 33.65 -21.65 62.35q-5.5 8.8 -12 16.75q-6.8 8.4 -16.1 13.4q-10.15 5.55 -21.75 5.25q-7.75 -0.2 -15.1 -2.7q-23.2 -29.35 -26.75 -67.7q-5.35 -57.95 17.25 -111.5q6.4 -21.55 25.55 -33q-3.6 24.85 -4.1 50.95q-1 59.3 -3.5 118.5q-0.95 22.65 -4.9 44.7q-3 16.9 3.75 30q5.25 -8.15 4.5 -19.25q1.7 -26.05 3.05 -52.2q1.4 -26.25 3.15 -52.4q4.1 -59.8 -1.45 -118.6q14.25 57 24.4 114.95q3.8 21.7 4.3 43.65q0.35 16.4 7.7 28.25q1.65 -0.45 1.7 -2q0.55 -15.05 -0.8 -30.25q0.5 -0.4 0.65 -1.3q11.25 -57.95 23.45 -115.85q1.6 -7.6 5.65 -14.15q9.1 -14.85 6 -29.25q-6.85 4.15 -9.75 12.45q-7.75 22.15 -12.75 45q-12.7 57.7 -24.45 115.6q-2.15 10.65 -2.55 20.9q-10.85 -58.15 -22.85 -116.05q-6 -29.15 -13 -58.35q-3.65 -15.5 -9.6 -27.6q-4.75 11.55 -0.65 26.05q6.45 22.85 12.2 45.8<g id="772" transform="matrix(1, 0, 0, 1, -55.25, 0)">
<path style="fill:#000000;fill-opacity:1" d="M352.45,140.75Q376.45 142.4 398.2 153.5L399.7 154.25Q435.9 182.75 443.65 228.55Q453.75 288.3 429.85 344.05Q422.55 361.2 409.35 374.4Q385.2 398.65 352.55 391.95L350.2 390.95Q349.5 389.9 349.15 388.75L348.95 389.95Q340.85 382.7 342.9 368.25Q347.15 338.75 347.25 308.5L347.75 189.25Q347.9 166.25 348.5 143.5Q348.55 141.6 350.3 141.75Q351.05 140.9 352.45 140.75M351.95,154.3Q358.6 220.35 356.6 286.5Q355.2 331.6 351.45 373.95Q367.55 377.9 383.45 372.65Q398.7 367.8 408.45 355.7Q412.45 354.05 414.9 350.5Q426.45 333.95 433.3 314.85Q440.25 295.45 441.35 274.7Q442.5 253.85 438.45 233.3Q434.35 212.35 422.15 195Q410.15 177.85 392.25 167.3Q373.6 156.2 351.95 154.3M228.4,139.65L229.45 140.25L230.7 140.2L233.45 140Q273.7 170.35 275.2 221L276.15 250.2Q278.2 314.25 240.2 364Q218.6 392.25 185.65 383.25Q177.25 380.95 172.6 372.95Q147.3 329.6 149.45 278.15Q150.35 256.3 152.65 234.8Q158.35 181.05 193.8 142.95Q201.2 135 211.95 135.25Q220.6 136.4 228.4 139.65M172.7,187Q150.1 240.55 155.45 298.5Q159 336.85 182.2 366.2Q189.55 368.7 197.3 368.9Q208.9 369.2 219.05 363.65Q228.35 358.65 235.15 350.25Q241.65 342.3 247.15 333.5Q265.2 304.8 268.8 271.15Q274.1 221.8 249.45 179.35Q241.7 166 229.75 156.75L228.2 151.5Q212.8 145.2 198.25 154Q179.1 165.45 172.7 187M307.2,139Q312.75 197.8 308.65 257.6Q306.9 283.75 305.5 310Q304.15 336.15 302.45 362.2L303.75 360.4L303.65 362.8L302.45 364.2Q303.2 375.3 297.95 383.45Q291.2 370.35 294.2 353.45Q298.15 331.4 299.1 308.75Q301.6 249.55 302.6 190.25Q303.1 164.15 306.7 139.3L307.2 139M59.35,150.05Q55.25 135.55 60 124Q65.95 136.1 69.6 151.6Q76.6 180.8 82.6 209.95Q94.6 267.85 105.45 326L105.95 328.7Q106.35 318.45 108.5 307.8Q120.25 249.9 132.95 192.2Q137.95 169.35 145.7 147.2Q148.6 138.9 155.45 134.75Q158.55 149.15 149.45 164Q145.4 170.55 143.8 178.15Q131.6 236.05 120.35 294L109.5 349.15Q109.35 350.05 108.85 350.45Q110.2 365.65 109.65 380.7Q109.6 382.25 107.95 382.7Q100.6 370.85 100.25 354.45Q99.75 332.5 95.95 310.8Q85.8 252.85 71.55 195.85Q65.8 172.9 59.35 150.05" />
</g>
</svg>
