<?xml version="1.0" encoding="utf-8"?>
<svg version="1.1" id="Layer_1"
xmlns="http://www.w3.org/2000/svg"
xmlns:xlink="http://www.w3.org/1999/xlink"


xml:space="preserve">
q6.65 0.9 11.75 5.25q27.15 17.45 15.35 51q-6.35 18.05 -24.55 24.95q-20.4 7.75 -29.4 -13.9q-9.65 -23.1 1.3 -45.65q8.6 -17.75 26.8 -14.9q-4.55 -34.9 -37.55 -39.55q-20.45 5.7 -28.85 25.05q-17.8 40.8 5.6 77.05q4.65 7.25 12.75 7.4q14.75 0.3 26.9 -9.4q14.25 -11.35 18.9 -28.45q4.35 -15.9 2.25 -32.1q-2.25 4.35 -3.4 8.4q-2.5 -27.4 -7.45 -54.8q-10.4 -58.15 -29.45 -113.95q-1.5 16.3 4.2 34.85q15.25 49.5 21.35 101.05q3.55 30.05 11.7 56.05q1.15 -1.2 1.1 -2.95q6.3 -13 10.8 -27.7q17.2 -56.25 35.1 -112.45q4.5 -14.1 10.15 -27.8q5.15 -12.4 0.9 -21.25q-7.6 12.6 -12.1 27.4q-17.1 56.55 -34.95 112.7q-3.35 10.55 -8.35 20.25<g id="763" transform="matrix(1, 0, 0, 1, -151.75, 0)">
<path style="fill:#000000;fill-opacity:1" d="M326.65,292.85Q315.7 315.4 325.35 338.5Q334.35 360.15 354.75 352.4Q372.95 345.5 379.3 327.45Q391.1 293.9 363.95 276.45L365.2 283.2Q360.1 278.85 353.45 277.95Q335.25 275.1 326.65 292.85M387.25,331.65Q382.6 348.75 368.35 360.1Q356.2 369.8 341.45 369.5Q333.35 369.35 328.7 362.1Q305.3 325.85 323.1 285.05Q331.5 265.7 351.95 260Q384.95 264.65 389.5 299.55Q391.6 315.75 387.25 331.65M201.9,319.6Q219.75 263.45 236.85 206.9Q241.35 192.1 248.95 179.5Q253.2 188.35 248.05 200.75Q242.4 214.45 237.9 228.55Q220 284.75 202.8 341Q198.3 355.7 192 368.7L191.6 367.9L191.6 368.5Q191.65 370.25 190.5 371.45Q182.35 345.45 178.8 315.4Q172.7 263.85 157.45 214.35Q151.75 195.8 153.25 179.5Q172.3 235.3 182.7 293.45Q187.65 320.85 190.15 348.25Q191.3 344.2 193.55 339.85Q198.55 330.15 201.9 319.6" />
</g>
</svg>
