<?xml version="1.0" encoding="utf-8"?>
<svg version="1.1" id="Layer_1"
xmlns="http://www.w3.org/2000/svg"
xmlns:xlink="http://www.w3.org/1999/xlink"


xml:space="preserve">
q-3.9 8.4 -3.85 20.25q0.15 24.9 -0.95 49.45q-0.35 2.3 -0.05 4.6q0.75 2.8 3.25 1.5q5.6 -35.15 7.7 -71.15q12.9 -0.5 24.55 -6.3q6.4 53.75 28.2 102.4q1.95 -1.35 1.95 -3.75q0.05 -12.75 -4.15 -25q-12.85 -37.4 -23.55 -75.05q12.45 -7.7 17.95 -21.3q16.5 -40.85 -17.2 -67.6q-8.4 -3.55 -17.65 -3.15q-3.45 -1.2 -6.2 0.65q-1.05 0.7 -2.3 1.1q-1.4 1.1 -1.9 2.6q-13.7 27.5 -44.7 30.6q1 -39.45 -1.3 -78.6q40.95 -3.85 47.85 34.65q1.25 7.1 -1.85 13.35q-1.5 -0.1 -1.3 1.4q3.1 23.7 10.75 46.9q18.25 55.6 25.5 113.75q2 16 9.3 27.65q0.6 -0.75 0.55 -1.45q-2.8 -36.95 -10.6 -74.3q-12.1 -57.5 -32.45 -112.45q23.05 -4.7 35.55 16.45q12.1 20.55 1.2 41.6q-10.8 20.8 -34.55 13.35q-20.4 -6.35 -21 -30.75q-0.5 -21.95 13.9 -38.05q2 -2.2 4.9 -2.6q-31.05 -3.8 -39.4 30.75q-8.8 36.55 15.1 63.9q4.95 5.7 12.8 5.8q18.45 0.3 29.45 -13.7q22.85 -29.05 7.8 -64.9q-5.95 -15.6 -21 -22.85q5.8 -12.3 0.45 -21.2q-15.25 42.8 -24.45 88.75q-5.75 28.75 -12.6 57.4q-5.35 22.4 -3.4 43.05q0.85 -0.35 1.1 -1q7.5 -17.75 10.6 -37.05q9.4 -58.4 23.25 -115.6q1.8 -7.5 5.05 -14.35<g id="777" transform="matrix(1, 0, 0, 1, -138.75, 0)">
<path style="fill:#000000;fill-opacity:1" d="M351.45,178.25Q352.7 177.85 353.75 177.15Q356.5 175.3 359.95 176.5Q369.2 176.1 377.6 179.65L380.45 180.5Q414.15 207.25 397.65 248.1Q392.15 261.7 379.7 269.4Q390.4 307.05 403.25 344.45Q407.45 356.7 407.4 369.45Q407.4 371.85 405.45 373.2Q383.65 324.55 377.25 270.8L375.45 271.7Q363.8 277.5 350.9 278L349.9 298.3Q347.8 334.3 342.2 369.45Q339.7 370.75 338.95 367.95L343.55 274.3Q343.25 272 343.6 269.7L343.8 268.65L344.65 249.45Q345.75 224.9 345.6 200Q345.55 188.15 349.45 179.75L349.55 180.85Q350.05 179.35 351.45 178.25M397.8,222.4Q390.9 183.9 349.95 187.75Q352.25 226.9 351.25 266.35Q382.25 263.25 395.95 235.75Q399.05 229.5 397.8 222.4M141.2,180L142 180.75Q162.35 235.7 174.45 293.2Q182.25 330.55 185.05 367.5Q185.1 368.2 184.5 368.95Q177.2 357.3 175.2 341.3Q167.95 283.15 149.7 227.55Q142.05 204.35 138.95 180.65Q138.75 179.15 140.25 179.25L141.2 180M266.1,286.65Q251.7 302.75 252.2 324.7Q252.8 349.1 273.2 355.45Q296.95 362.9 307.75 342.1Q318.65 321.05 306.55 300.5Q294.05 279.35 271 284.05Q268.1 284.45 266.1 286.65M313.95,293.55Q329 329.4 306.15 358.45Q295.15 372.45 276.7 372.15Q268.85 372.05 263.9 366.35Q240 339 248.8 302.45Q257.15 267.9 288.2 271.7L290.95 269.85L292.95 270.7Q308 277.95 313.95 293.55M220.45,215.3Q206.6 272.5 197.2 330.9Q194.1 350.2 186.6 367.95Q186.35 368.6 185.5 368.95Q183.55 348.3 188.9 325.9Q195.75 297.25 201.5 268.5Q210.7 222.55 225.95 179.75Q231.3 188.65 225.5 200.95Q222.25 207.8 220.45 215.3" />
</g>
</svg>
