<?xml version="1.0" encoding="utf-8"?>
<svg version="1.1" id="Layer_1"
xmlns="http://www.w3.org/2000/svg"
xmlns:xlink="http://www.w3.org/1999/xlink"


xml:space="preserve">
q7.45 17.1 10.45 35.75q3.45 21.7 0.6 43.45q-2.7 20.45 -12.7 38.35q-9.05 16.15 -22.55 28.75q-2.75 2.8 -8.85 7.05q-5.75 3.9 -12.65 5q5.45 -58.8 5.15 -118.15q-0.15 -33.85 -0.85 -67.8q19.4 8.9 27.95 28.4q-8.7 0.05 -17 3.25q-0.7 2.2 -0.6 4.5q0.1 1.55 0.75 3q-4.2 55.4 -4.6 111.6q-0.25 30.15 -4.45 59.75q-2.05 14.3 2.3 26q0.35 3.4 1.95 6.45q11.05 2.4 20.25 -5.1q49.1 -39.75 47.85 -102.1q-0.65 -29.9 -6.6 -58.8q-7.4 -35.95 -39.75 -49.45q4.15 2.65 7.65 6.25q6.2 -14 -9.25 -22.05q-8 -4.2 -16.8 -2.3q-21.45 8.15 -25.3 32.15q-3.5 21.8 6 41.75q8.85 18.6 24.05 32.9q16.2 15.3 16.65 36.95q0.5 22.65 -16.9 38.2q-17.15 15.4 -39.45 10.1q-6.65 -1.7 -12.3 -5.05q-8.4 16.1 9.75 28.1q16.65 10.9 34.4 1.45q6.85 -3.7 12.9 -8.75q15.95 -13.45 23.1 -33.2q6.95 -19.15 1.95 -39.05q-5.35 -21.2 -21.75 -34.6q-47.9 -39.2 -4.3 -74.2q7 -5.65 15.3 -0.35q-16.2 58 -7.8 117.3q4.15 29.05 31 37.85q7.45 2.4 14.05 -1.15q41 -22.15 52.45 -68.8q14.65 -59.7 -7.55 -116.25q-10.15 -25.95 -37.55 -25.8q-23.6 5.35 -33.7 27.15q-6.65 14.45 -10.9 29.7q28.05 39 22.85 87.7q-2.3 21.35 -10.5 41.3q-6.1 14.9 -15.95 27.6q-6.6 8.6 -16.05 13.75q-17.75 9.8 -32.1 -5.15q-26.15 -27.2 -19.45 -67.3q4.3 -26 11.2 -51.4q5.6 -20.7 17.6 -38.6q1.8 24.25 9.55 48.35q8.3 25.75 14.7 51.9q-1.95 1.4 -2.65 -0.8q0.35 6.3 8.25 8.45q1.3 -0.5 1.3 -2q3.2 -3.35 3.85 -8.05q8.2 -58.5 24.25 -115.95q8 -28.65 17.45 -56.95q5.05 -15.1 3.2 -29q-2.4 0.35 -3.3 2.8q-11.5 30.5 -19.95 62.55q-15.2 57.5 -26.65 115.35q-0.9 4.6 -1.75 7.05q-2.3 -13.5 -7 -26.9q-9.65 -27.45 -15.7 -55.65q-12.45 -58.15 -32.35 -113.7q-2 -0.1 -1.85 1.9q1.9 -30.4 -0.95 -59.3q-7.15 33.65 -7.55 70.5q-0.7 59.75 -9.7 118.25q-2.25 14.8 6.25 21.2q3.4 -11.9 4.8 -24.55q0.75 -6.6 -0.55 -7.15<g id="773" transform="matrix(1, 0, 0, 1, -45.5, 0)">
<path style="fill:#000000;fill-opacity:1" d="M330.9,154.65L316.65 154.3Q317.35 188.25 317.5 222.1Q317.8 281.45 312.35 340.25L314.2 340.05Q321.1 338.95 326.85 335.05Q332.95 330.8 335.7 328L334.65 329.35Q348.15 316.75 357.2 300.6Q367.2 282.7 369.9 262.25Q372.75 240.5 369.3 218.8Q366.3 200.15 358.85 183.05Q350.3 163.55 330.9 154.65M370.7,190.95Q376.65 219.85 377.3 249.75Q378.55 312.1 329.45 351.85Q320.25 359.35 309.2 356.95Q307.6 353.9 307.25 350.5Q302.9 338.8 304.95 324.5Q309.15 294.9 309.4 264.75Q309.8 208.55 314 153.15L313.7 153Q313.05 151.55 312.95 150Q312.85 147.7 313.55 145.5L313.95 144.75Q322.25 141.55 330.95 141.5Q363.3 155 370.7 190.95M424,166.1Q380.4 201.1 428.3 240.3Q444.7 253.7 450.05 274.9Q455.05 294.8 448.1 313.95Q440.95 333.7 425 347.15Q418.95 352.2 412.1 355.9Q394.35 365.35 377.7 354.45Q359.55 342.45 367.95 326.35L371.75 330.8L375.2 331.25L373.65 334.65Q379.3 338 385.95 339.7Q408.25 345 425.4 329.6Q442.8 314.05 442.3 291.4Q441.85 269.75 425.65 254.45Q410.45 240.15 401.6 221.55Q392.1 201.6 395.6 179.8Q399.45 155.8 420.9 147.65Q429.7 145.75 437.7 149.95Q453.15 158 446.95 172Q443.45 168.4 439.3 165.75Q431 160.45 424 166.1M173.25,163.9Q183.35 142.1 206.95 136.75Q234.35 136.6 244.5 162.55Q266.7 219.1 252.05 278.8Q240.6 325.45 199.6 347.6Q193 351.15 185.55 348.75Q158.7 339.95 154.55 310.9Q146.15 251.6 162.35 193.6Q166.6 178.35 173.25 163.9M184.05,165.9Q172.05 183.8 166.45 204.5Q159.55 229.9 155.25 255.9Q148.55 296 174.7 323.2Q189.05 338.15 206.8 328.35Q216.25 323.2 222.85 314.6Q232.7 301.9 238.8 287Q247 267.05 249.3 245.7Q254.5 197 226.45 158L220.2 155.5L217.75 148.9L198.95 152L189.45 158L184.05 165.9M47.5,125.5Q67.4 181.05 79.85 239.2Q85.9 267.4 95.55 294.85Q100.25 308.25 102.55 321.75Q103.4 319.3 104.3 314.7Q115.75 256.85 130.95 199.35Q139.4 167.3 150.9 136.8Q151.8 134.35 154.2 134Q156.05 147.9 151 163Q141.55 191.3 133.55 219.95Q117.5 277.4 109.3 335.9Q108.65 340.6 105.45 343.95L104.7 343.2L104.75 348.2Q104.75 349.7 103.45 350.2Q95.55 348.05 95.2 341.75Q95.9 343.95 97.85 342.55L98.2 342L69.9 227.65Q63.5 201.5 55.2 175.75Q47.45 151.65 45.65 127.4Q45.5 125.4 47.5 125.5M280.35,261.4L276.45 321.25Q277.75 321.8 277 328.4Q275.6 341.05 272.2 352.95Q263.7 346.55 265.95 331.75Q274.95 273.25 275.65 213.5Q276.05 176.65 283.2 143Q286.05 171.9 284.15 202.3L280.35 261.4" />
</g>
</svg>
