<?xml version="1.0" encoding="utf-8"?>
<svg version="1.1" id="Layer_1"
xmlns="http://www.w3.org/2000/svg"
xmlns:xlink="http://www.w3.org/1999/xlink"


xml:space="preserve">
q-4.55 10.65 -4.6 23.75q-0.35 59.4 -4.75 118.45q-0.55 7.45 -2.25 14.65q-4.2 17.4 2.35 29.35q4.2 -7.15 4.8 -15.7q2.6 -36.45 4.25 -73.05q12.85 1.15 25.6 -2.75q7.35 22.7 17.1 44.8q11.6 26.35 25 49.7q2.55 -2.35 1.5 -5.65q-14.65 -47.35 -39.35 -90.3q35.45 -13.35 28.2 -51.7q-7.35 -38.95 -46.85 -42.8q-3.6 -0.95 -6.7 0.8q-6.9 13.55 -21.6 19.05q-12.65 4.8 -26.3 4.25q22.65 0.6 38.45 15.8q17.3 16.7 6.85 37.1q-13.7 48.65 -25.55 98q-7 29.15 -16.7 57.5q-1.15 3.4 -1.8 6.7q-3.5 -27.45 -10 -54.6q-13.9 -57.75 -35.2 -112.25q-3.3 0.6 -2.4 4.3q5.1 21.75 11.6 43.75q16.65 56.3 27.2 114.15q2.85 15.75 9.6 27.5q10.4 -33.2 19.25 -67.95q10.9 -42.8 22.4 -85.05q5.15 -18.8 3.55 -36.45q-2.55 1.1 -3.45 4.4q-7.35 29.4 -5.55 61.1q2.05 35.7 36.55 40q20.5 -9.55 28.3 -30.95q5.65 -15.6 6.5 -32.2q0.9 -19.1 -5.3 -33.85q-4 8.85 -2.55 19.5q4.55 34.2 -19.3 56.6q-5.4 5.05 -12.35 3.8q-28.7 -5.35 -26.1 -36.1q2.05 -24.6 0.3 -48.05q-0.5 0 -0.5 0.15<g id="795" transform="matrix(1, 0, 0, 1, -141.2, 0)">
<path style="fill:#000000;fill-opacity:1" d="M349.1,182.2L352.25 180.3Q355.35 178.55 358.95 179.5Q398.45 183.35 405.8 222.3Q413.05 260.65 377.6 274Q402.3 316.95 416.95 364.3Q418 367.6 415.45 369.95Q402.05 346.6 390.45 320.25Q380.7 298.15 373.35 275.45Q360.6 279.35 347.75 278.2Q346.1 314.8 343.5 351.25Q342.9 359.8 338.7 366.95Q332.15 355 336.35 337.6Q338.05 330.4 338.6 322.95Q343 263.9 343.35 204.5Q343.4 191.4 347.95 180.75L348.75 182.5L349.1 182.2M389.3,205.7Q373.5 190.5 350.85 189.9L348.25 266.1Q361.9 266.65 374.55 261.85Q389.25 256.35 396.15 242.8Q406.6 222.4 389.3 205.7M237.2,180.5Q238.8 198.15 233.65 216.95Q222.15 259.2 211.25 302Q202.4 336.75 192 369.95L191.5 368.85L190.5 369.95Q183.75 358.2 180.9 342.45Q170.35 284.6 153.7 228.3Q147.2 206.3 142.1 184.55Q141.2 180.85 144.5 180.25Q165.8 234.75 179.7 292.5Q186.2 319.65 189.7 347.1Q190.35 343.8 191.5 340.4Q201.2 312.05 208.2 282.9Q220.05 233.55 233.75 184.9Q234.65 181.6 237.2 180.5M253.45,268.45Q255.2 291.9 253.15 316.5Q250.55 347.25 279.25 352.6Q286.2 353.85 291.6 348.8Q315.45 326.4 310.9 292.2Q309.45 281.55 313.45 272.7Q319.65 287.45 318.75 306.55Q317.9 323.15 312.25 338.75Q304.45 360.15 283.95 369.7Q249.45 365.4 247.4 329.7Q245.6 298 252.95 268.6Q252.95 268.45 253.45 268.45" />
</g>
</svg>
