<?xml version="1.0" encoding="utf-8"?>
<svg version="1.1" id="Layer_1"
xmlns="http://www.w3.org/2000/svg"
xmlns:xlink="http://www.w3.org/1999/xlink"


xml:space="preserve">
q0.65 30.95 5.85 62.8q5.65 34.3 7.45 69q1.6 30.75 10 58.15q7.45 -22.15 14.4 -45.55q16.95 -56.8 37.25 -112.25q6.65 -18.15 4.85 -35.65q-7.3 10.35 -11.6 24.05q-17.65 56.7 -35.65 113.1q-4.45 14.05 -10.2 27.7q-1.55 -23.9 -3.8 -48q-5.5 -59.15 -19.3 -116.25q-0.8 -0.15 -0.8 0.25q-0.9 22.8 5.9 45.9q16.65 56.7 23.5 115.55q1.85 16.2 8.65 27.25q0.85 2 2.3 3.9q9.7 -14.6 11.95 -33.9q6.8 -58.95 25.25 -115.1q7.2 -21.95 4.5 -43.2q-9.5 28.85 -17.2 59.5q-14.25 56.5 -23.75 113.95q-1.75 0.25 -2.85 1.4q-2.25 -30.85 -8.3 -61.4q-11.45 -58.05 -29.6 -113.7q-0.75 0.1 -0.8 0.25q-2.7 14.7 -4 29.8q-2.9 34.35 13.15 62.35q15.45 6 30.25 -1.6q11.25 -5.8 16.4 -17.25q14.75 -32.85 8.1 -69.9q-1.15 -2.35 -3.25 -0.75q-3.5 4.5 -2.8 10.6q1.7 14.8 -0.25 29.7q-4.85 37.7 -44.7 36.2q-9.3 -8.35 -9.25 -21q0.15 -30.2 -2 -59.25q-1.4 -0.25 -1.65 1.1<g id="785" transform="matrix(1, 0, 0, 1, -142.8, 0)">
<path style="fill:#000000;fill-opacity:1" d="M338.45,181.25Q352.25 238.35 357.75 297.5Q360 321.6 361.55 345.5L362 344.35Q367.75 330.7 372.2 316.65Q390.2 260.25 407.85 203.55Q412.15 189.85 419.45 179.5Q421.25 197 414.6 215.15Q394.3 270.6 377.35 327.4Q370.4 350.8 362.95 372.95L361.8 371.1L360.95 371.45Q352.55 344.05 350.95 313.3Q349.15 278.6 343.5 244.3Q338.3 212.45 337.65 181.5Q337.65 181.1 338.45 181.25M144.5,179.75Q162.65 235.4 174.1 293.45Q180.15 324 182.4 354.85Q183.5 353.7 185.25 353.45Q194.75 296 209 239.5Q216.7 208.85 226.2 180Q228.9 201.25 221.7 223.2Q203.25 279.35 196.45 338.3Q194.2 357.6 184.5 372.2Q183.05 370.3 182.2 368.3L181.75 368.7Q174.95 357.65 173.1 341.45Q166.25 282.6 149.6 225.9Q142.8 202.8 143.7 180Q143.75 179.85 144.5 179.75M251.45,270.45Q253.6 299.5 253.45 329.7Q253.4 342.35 262.7 350.7Q302.55 352.2 307.4 314.5Q309.35 299.6 307.65 284.8Q306.95 278.7 310.45 274.2Q312.55 272.6 313.7 274.95Q320.35 312 305.6 344.85Q300.45 356.3 289.2 362.1Q274.4 369.7 258.95 363.7Q242.9 335.7 245.8 301.35Q247.1 286.25 249.8 271.55Q250.05 270.2 251.45 270.45" />
</g>
</svg>
