<?xml version="1.0" encoding="utf-8"?>
<svg version="1.1" id="Layer_1"
xmlns="http://www.w3.org/2000/svg"
xmlns:xlink="http://www.w3.org/1999/xlink"


xml:space="preserve">
q37.15 4.8 74.4 0.75q-26.95 44.95 -52.4 92.55q-13.8 25.75 -26.5 51.8q-7.25 14.8 0.25 26.35q40.85 1.15 81 -1.5q4.05 -7.4 -0.65 -14.2q-38.75 1 -76.7 4.75q6.75 -15.5 14.15 -30.9q25.7 -53.35 55.9 -103.6q8.35 -13.9 8.6 -27.8q0.35 -2.2 -0.15 -4.4q-0.35 -0.4 -0.75 -0.4q-12.75 -0.5 -25.5 -0.6q-1.8 3.6 -0.5 7.5q7.6 34.9 16.4 69.4q14.1 55.55 22 112.95q0.4 2.05 1.95 2.15q1.9 1.15 2.6 -0.95q5.05 -15.1 7.7 -31.05q9.65 -58.35 26.65 -114.65q6.7 -22.15 5.5 -43.05q-12.15 36.25 -22.25 75.05q-7.5 28.65 -14.6 57.2q-3.7 14.75 -5.05 29.45q-2.65 -24.25 -7.15 -48.25q-11 -57.9 -31.65 -112.95q-2.85 0.55 -2.15 3.85q3.85 -25.9 -0.7 -51q-3.45 21.6 -5.55 45.45q-2.3 26.45 13.65 46.45q5.15 6.45 13.3 5.8q44.35 -3.65 45.75 -48.45q0.75 -25.45 -6.4 -48q-5.7 14 -2 30.85q8 36.55 -26.1 49.6q-3.4 1.3 -6.7 0.9q-25.6 -3.2 -25.45 -30.85<g id="791" transform="matrix(1, 0, 0, 1, -140.65, 0)">
<path style="fill:#000000;fill-opacity:1" d="M340.45,196.25Q339.15 192.35 340.95 188.75L392.95 185.75Q405.7 185.85 418.45 186.35Q418.85 186.35 419.2 186.75L419.5 187.45L420.2 189.3L420.25 189.5Q420.75 191.7 420.4 193.9Q420.15 207.8 411.8 221.7Q381.6 271.95 355.9 325.3Q348.5 340.7 341.75 356.2Q379.7 352.45 418.45 351.45Q423.15 358.25 419.1 365.65L418.45 366.45Q378.3 369.1 337.45 367.95L337 367.25L336.45 368.45Q328.95 356.9 336.2 342.1Q348.9 316.05 362.7 290.3Q388.15 242.7 415.1 197.75Q377.85 201.8 340.7 197L340.45 196.25M143.5,179.5Q164.15 234.55 175.15 292.45Q179.65 316.45 182.3 340.7Q183.65 326 187.35 311.25Q194.45 282.7 201.95 254.05Q212.05 215.25 224.2 179Q225.4 199.9 218.7 222.05Q201.7 278.35 192.05 336.7Q189.4 352.65 184.35 367.75Q183.65 369.85 181.75 368.7L181.7 367.85Q180.15 367.75 179.75 365.7Q171.85 308.3 157.75 252.75Q148.95 218.25 141.35 183.35Q140.65 180.05 143.5 179.5M247.7,320.45Q247.55 348.1 273.15 351.3Q276.45 351.7 279.85 350.4Q313.95 337.35 305.95 300.8Q302.25 283.95 307.95 269.95Q315.1 292.5 314.35 317.95Q312.95 362.75 268.6 366.4Q260.45 367.05 255.3 360.6Q239.35 340.6 241.65 314.15Q243.75 290.3 247.2 268.7Q251.75 293.8 247.9 319.7L247.7 320.45" />
</g>
</svg>
