<?xml version="1.0" encoding="utf-8"?>
<svg version="1.1" id="Layer_1"
xmlns="http://www.w3.org/2000/svg"
xmlns:xlink="http://www.w3.org/1999/xlink"


xml:space="preserve">
q-12.6 31.9 -12.8 66.8q-1.05 59.45 -3.1 119.2q-0.5 15.4 4.45 29.5q5.9 16.85 25.6 11.8q15.05 -3.8 25.2 -15.15q18 -20.1 10.95 -43.35q-0.05 2.3 1.7 4.1q-0.65 7.3 -5.2 14.45q-14 22.05 -39.2 17.9q-2.8 -0.45 -3.15 -2.65q-6.45 -42.2 -2.9 -85.25q1.25 -15 0.95 -29.9q4.3 -7.95 -0.85 -14.9q-15.1 -0.3 -27.7 4.65q0.15 -46.2 4.8 -91.6q2.2 -21.7 18.15 -35.7q5.15 -4.5 11.6 -2.25q10.8 3.8 15.4 14.4q2.8 -5.85 0.55 -12.05q-2.2 -5.9 -3.8 -11.95q-6.35 -3.3 -13.75 -2.25q-15.55 5.9 -21.9 21.95q0.55 23.3 -16.05 38.7q-10.5 9.75 -25.3 9.35q21.2 48.1 55.45 15.8q14.5 -13.65 18.45 -33.5q7.2 -36.45 -3.65 -72.7q-12 -40 -36.45 -73.95q-8.55 -11.9 -14.55 -25.15q-4.2 -10.55 -4.7 -21.9q-0.65 -15.1 5.4 -29q5.85 -13.5 20 -15.45q22.7 -2.85 27.5 19.65q7.3 -24.4 -16.05 -32.75q-21.9 -7.8 -34.05 12.9q-11.05 18.85 -10.85 40.7q0.15 21.05 9.95 39.75q9.5 18 14.05 37.95q4.5 19.55 4.95 39.75q-1.75 2.15 -1.85 5.8q-13.3 42.85 -20.85 89.25q-0.8 2.15 -0.8 4.5q-10.2 57.8 -19.75 115.7q-1.05 -0.6 -0.75 -2.25q-3.25 9.75 2.5 21.75q2.4 -0.9 2.9 -3.4q6 -28.2 10.95 -56.95q6.3 -36.45 11.5 -73.1q20.35 1.75 39.25 0.1q1.1 1.85 3.25 1.75q5.8 -7.6 3.6 -17.95q-5.4 -25.8 -8.3 -52.1q-6.45 -58.8 -11.55 -117.9q0.6 15.75 2.15 31.4q4.5 44.9 9.25 89.75q-13.6 0.05 -27.05 2.2q8 -58.65 23.3 -115.8q-9.1 35 -14.15 72.8q-5.8 43.25 -14.5 85.95q-12 58.7 -27.35 116.75q-0.75 2.75 -1.15 5.45q-7.5 -22.25 -12.05 -45.65q-4.3 -22.05 -11.35 -43.6q-13.55 -41.8 -21.55 -84.75q-11 -58.85 -32.35 -113.45q-0.5 0 -0.7 0.25q-5.8 8.2 1.2 16.25q1 6.8 3.1 13.45q14.4 45.85 23.1 93.25q7.95 43.35 22.05 85.45q8.4 25.15 11.8 51.05q4 30.2 16.15 56.75q0.9 -0.6 1.1 -1.4q14.3 -57.65 21.95 -116.35q3.85 -29.3 9.55 -58.25q5.9 -29.95 4.45 -58.75<g id="809" transform="matrix(1, 0, 0, 1, -47, 0)">
<path style="fill:#000000;fill-opacity:1" d="M398.95,103.75Q406.35 102.7 412.7 106L414.2 106.75L414.5 107.45L415.6 108.85L417.45 110.5Q419.05 116.55 421.25 122.45Q423.5 128.65 420.7 134.5Q416.1 123.9 405.3 120.1Q398.85 117.85 393.7 122.35Q377.75 136.35 375.55 158.05Q370.9 203.45 370.75 249.65Q383.35 244.7 398.45 245Q403.6 251.95 399.3 259.9L398.7 260.75L370.8 263.1L370.95 273.5Q371.25 288.4 370 303.4Q366.45 346.45 372.9 388.65Q373.25 390.85 376.05 391.3Q401.25 395.45 415.25 373.4Q419.8 366.25 420.45 358.95Q418.7 357.15 418.75 354.85L421 354.3L426.65 352.25Q433.7 375.5 415.7 395.6Q405.55 406.95 390.5 410.75Q370.8 415.8 364.9 398.95Q359.95 384.85 360.45 369.45Q362.5 309.7 363.55 250.25L364.25 192.5Q364.45 157.6 377.05 125.7Q383.4 109.65 398.95 103.75M337.85,305.15Q333.3 285.2 323.8 267.2L304.8 231.2L285.95 195.35Q276.15 176.65 276 155.6Q275.8 133.75 286.85 114.9Q299 94.2 320.9 102Q344.25 110.35 336.95 134.75Q332.15 112.25 309.45 115.1Q295.3 117.05 289.45 130.55Q283.4 144.45 284.05 159.55Q284.55 170.9 288.75 181.45L293.3 192.2Q299.3 205.45 307.85 217.35Q332.3 251.3 344.3 291.3Q355.15 327.55 347.95 364Q344 383.85 329.5 397.5Q295.25 429.8 274.05 381.7L273.95 378.7L275.95 376.45L278.2 368.45L301.45 392.95Q316.25 393.35 326.75 383.6Q343.35 368.2 342.8 344.9Q342.35 324.7 337.85 305.15M237.7,103.5L238.45 103L248.7 220.75Q253.8 279.85 260.25 338.65Q263.15 364.95 268.55 390.75Q270.75 401.1 264.95 408.7Q262.8 408.8 261.7 406.95L249.05 289.15L247.55 274.85Q228.65 276.5 208.3 274.75Q203.1 311.4 196.8 347.85Q191.85 376.6 185.85 404.8Q185.35 407.3 182.95 408.2Q177.2 396.2 180.45 386.45Q180.15 388.1 181.2 388.7L181.45 388.2Q191 330.3 201.2 272.5L201.7 269.7L201.65 269Q201.65 266.65 202.45 264.5L202.6 264.5L213.5 199.95Q221.05 153.55 234.35 110.7Q234.45 107.05 236.2 104.9L237.45 101L237.7 103.5M233.55,144.75Q218.25 201.9 210.25 260.55L209.9 263.2Q223.35 261.05 236.95 261L246.1 261.4Q241.35 216.55 236.85 171.65Q235.3 156 234.7 140.25L233.55 144.75M184.75,159.75Q179.05 188.7 175.2 218Q167.55 276.7 153.25 334.35L136.05 404.55Q135.85 405.35 134.95 405.95L134.4 404.7L133.7 406.2L130.2 406.95Q118.05 380.4 114.05 350.2Q110.65 324.3 102.25 299.15Q88.15 257.05 80.2 213.7Q71.5 166.3 57.1 120.45Q55 113.8 54 107Q47 98.95 52.8 90.75Q53 90.5 53.5 90.5Q74.85 145.1 85.85 203.95Q93.85 246.9 107.4 288.7Q114.45 310.25 118.75 332.3Q123.3 355.7 130.8 377.95L132.05 381.95Q132.45 379.25 133.2 376.5Q148.55 318.45 160.55 259.75Q169.25 217.05 175.05 173.8Q180.1 136 189.2 101Q190.65 129.8 184.75 159.75" />
</g>
</svg>
