<?xml version="1.0" encoding="utf-8"?>
<svg version="1.1" id="Layer_1"
xmlns="http://www.w3.org/2000/svg"
xmlns:xlink="http://www.w3.org/1999/xlink"


xml:space="preserve">
q-8.7 45.6 -7.95 93.65q0.9 59.8 -9 118q-13 -55.9 -26.45 -111.55q-13.95 -57.6 -27.3 -114.95q-1.4 3.45 -2 7.3q-2.9 48 -3.55 97.5q-0.8 59.85 -6.2 119.15q-1.35 15 -4.3 29.7q-3.35 16.95 3.65 29.6q3.55 -4.05 4.2 -9.55q1.65 -14.25 2.9 -28.55q4.9 -58.9 6.45 -118.6q1.15 -47.4 -0.05 -94.75q14.6 57.4 27.65 115.1q12.95 57.2 20.9 115.15q1.9 13.75 9.95 20.05q1 -9.65 0.6 -19.5q1.05 -2.95 1.45 -6.25q6.9 -58.65 8.3 -117.95q1.45 -60.2 3.65 -119.25q-0.95 -0.15 -1.05 0.35q-13.85 57.05 -23.55 114.9q-9.85 58.75 -25.9 115.85q-5.05 17.95 -4.45 35.4q-5.75 -24.85 -10.85 -50q-11.9 -58.8 -34.95 -112.5q-1.05 -0.2 -1.45 0.65q-3.75 7.8 -0.05 16.35q2.6 7 4.85 14.2q17.65 57.2 27.85 115.8q10.1 57.7 22.5 114.8q3.65 16.75 13 27.15q1.15 -1.5 1.65 -3.15q1.95 1.1 2.65 -1q9.15 -28.9 15.95 -58.8q13.05 -57.95 21.95 -116.5q4.45 -29.4 12.5 -58.05q6.35 -22.55 3.8 -43.95q-2.9 0.3 -3.7 3.5q0.7 41.05 6.65 82.65q-18.05 -2.25 -36.65 -2.55q9.7 -42.95 19.9 -85.85q7 -29.5 3.9 -58.05q-5.3 14.3 -8.4 31.85q-10.35 58.3 -23.1 115.95q-0.65 1.6 -0.6 3.3q-12.25 55.4 -23.75 109.9q-0.6 -2.2 -0.8 -4.5q-2.95 13.05 2.75 24q7.45 -8.75 9.25 -21.25q7.45 -50.9 18.3 -101.4q20.05 1.6 40.2 1.2q3.8 29.2 5 58.6q0.55 13.5 7.75 20.7q0.5 -0.75 0.6 -1.55q2.65 -21.95 -0.35 -44.4q-7.8 -58.55 -15.3 -117q-7.6 -59.05 -19.45 -116q-0.75 0.1 -0.75 0.25<g id="806" transform="matrix(1, 0, 0, 1, -64.3, 0)">
<path style="fill:#000000;fill-opacity:1" d="M394.2,141.25Q392 200.3 390.55 260.5Q389.15 319.8 382.25 378.45Q381.85 381.75 380.8 384.7Q381.2 394.55 380.2 404.2Q372.15 397.9 370.25 384.15Q362.3 326.2 349.35 269Q336.3 211.3 321.7 153.9L320.95 150.5Q322.15 197.85 321 245.25Q319.45 304.95 314.55 363.85Q313.3 378.15 311.65 392.4Q311 397.9 307.45 401.95Q300.45 389.3 303.8 372.35Q306.75 357.65 308.1 342.65Q313.5 283.35 314.3 223.5Q314.95 174 317.85 126L318.2 126L319.4 126.8L320.2 127.5L320.45 134.05Q321.05 130.2 322.45 126.75Q335.8 184.1 349.75 241.7Q363.2 297.35 376.2 353.25Q386.1 295.05 385.2 235.25Q384.45 187.2 393.15 141.6Q393.25 141.1 394.2 141.25M196.45,119.75Q199 141.15 192.65 163.7Q184.6 192.35 180.15 221.75Q171.25 280.3 158.2 338.25Q151.4 368.15 142.25 397.05Q141.55 399.15 139.6 398.05Q139.1 399.7 137.95 401.2Q128.6 390.8 124.95 374.05Q112.55 316.95 102.45 259.25Q92.25 200.65 74.6 143.45Q72.35 136.25 69.75 129.25L68.55 128.6L68 128Q64.3 119.45 68.05 111.65Q68.45 110.8 69.5 111Q92.55 164.7 104.45 223.5L128 339.4Q133.1 364.55 138.85 389.4Q138.25 371.95 143.3 354Q159.35 296.9 169.2 238.15Q178.9 180.3 192.75 123.25Q193.55 120.05 196.45 119.75M254.45,124.5Q266.3 181.45 273.9 240.5Q281.4 298.95 289.2 357.5Q292.2 379.95 289.55 401.9Q289.45 402.7 288.95 403.45Q281.75 396.25 281.2 382.75Q280 353.35 276.2 324.15L270.6 281.45L267 279.95L266 279.45L265.7 279.25Q245.55 279.65 225.5 278.05Q214.65 328.55 207.2 379.45Q205.4 391.95 197.95 400.7Q192.25 389.75 195.2 376.7Q195.4 379 196 381.2L196.2 381.95Q207.7 327.45 219.95 272.05Q219.9 270.35 220.55 268.75L220.85 268.1L220.95 267.55Q233.7 209.9 244.05 151.6Q247.15 134.05 252.45 119.75Q255.55 148.3 248.55 177.8Q238.35 220.7 228.65 263.65L228.2 265.65L231.5 264.55L231.9 264.4L231.95 264.25Q250.55 264.55 268.6 266.8L260.35 207.4Q254.4 165.8 253.7 124.75Q253.7 124.6 254.45 124.5" />
</g>
</svg>
