<?xml version="1.0" encoding="utf-8"?>
<svg version="1.1" id="Layer_1"
xmlns="http://www.w3.org/2000/svg"
xmlns:xlink="http://www.w3.org/1999/xlink"


xml:space="preserve">
q-0.6 -0.2 -0.75 0.3q-4.45 13.95 -7.5 28.6q-12 58.05 -24.45 115.7q-2.35 10.95 -6.2 21.25q-6.25 16.55 0.15 29.1q14.5 -45.5 23 -93.65q3.9 -21.8 9.8 -43.15q5.15 -18.6 6.15 -36.95q0.7 12.45 4.1 25.2q6.2 23.35 9.8 47.3q2.2 14.45 8.5 25.55q0.6 2.65 3 2q7 -19.05 11.3 -38.85q4.25 -19.7 10.5 -38.7q7.2 -21.75 5.7 -43.15q-11.4 29.65 -20.1 61.3q-5.85 21.3 -8.75 42.8q-10.1 -52.9 -22.9 -104.6q4.4 36.7 12.1 74.6q11.7 57.55 21.05 114.5q1.15 -0.35 1.25 -0.95q3.55 -17.5 0.8 -35.95q-2.85 -19.2 -6.15 -38.3q-10.1 -58.55 -27.9 -114.5q-1.2 -0.05 -1.15 0.6q6.4 17.8 11.15 35.8q14.95 57.1 20.75 115.95q1.6 16.15 9.15 27.65q1.35 -1.15 1.2 -2.9q10.6 -40.6 17.65 -82.2q4.95 -29.3 14.5 -57.45q7.5 -22 6.4 -43.2q-19.35 46.4 -28 98.35q-3.65 21.75 -9.6 43q-2.7 9.55 -3.5 18.9q-3.05 -24.85 -7.1 -49.8q-9.55 -58.9 -30.5 -113.2q-4.35 3.05 -2.05 9.55q-27.95 25.55 -17.6 63.4q2.5 9.1 11.55 7.6q15.1 -2.15 23.4 -14.8q-0.9 -50.2 -30 -98.25q3.7 -4.2 8.1 -4.75q-9.25 10.75 -23.05 13.95q-11.55 -20.55 5.5 -39.95<g id="802" transform="matrix(1, 0, 0, 1, -137.15, 0)">
<path style="fill:#000000;fill-opacity:1" d="M326.95,181.55L327.45 181.5Q340.25 233.2 350.35 286.1Q353.25 264.6 359.1 243.3Q367.8 211.65 379.2 182Q380.7 203.4 373.5 225.15Q367.25 244.15 363 263.85Q358.7 283.65 351.7 302.7Q349.3 303.35 348.7 300.7L348.8 299.5Q342.5 288.4 340.3 273.95Q336.7 250 330.5 226.65Q327.1 213.9 326.4 201.45Q325.4 219.8 320.25 238.4Q314.35 259.75 310.45 281.55Q301.95 329.7 287.45 375.2Q281.05 362.65 287.3 346.1Q291.15 335.8 293.5 324.85Q305.95 267.2 317.95 209.15Q321 194.5 325.45 180.55Q325.6 180.05 326.2 180.25L326.55 186L326.95 181.55M381.2,183Q399 238.95 409.1 297.5Q412.4 316.6 415.25 335.8Q418 354.25 414.45 371.75Q414.35 372.35 413.2 372.7Q403.85 315.75 392.15 258.2Q384.45 220.3 380.05 183.6Q380 182.95 381.2 183M141.5,179.5Q162.45 233.8 172 292.7Q176.05 317.65 179.1 342.5Q179.9 333.15 182.6 323.6Q188.55 302.35 192.2 280.6Q200.85 228.65 220.2 182.25Q221.3 203.45 213.8 225.45Q204.25 253.6 199.3 282.9Q192.25 324.5 181.65 365.1L181.7 365.55Q181.85 367.3 180.5 368.45Q172.95 356.95 171.35 340.8Q165.55 281.95 150.6 224.85Q145.85 206.85 139.45 189.05Q137.15 182.55 141.5 179.5M236.45,274.7Q265.55 322.75 266.45 372.95L257.35 358.05Q249.05 370.7 233.95 372.85Q224.9 374.35 222.4 365.25Q212.05 327.4 240 301.85L229.7 284.2L230.45 275.15L236.45 274.7M230.45,359.7Q244.25 356.5 253.5 345.75L244.05 315Q239.65 315.55 235.95 319.75Q218.9 339.15 230.45 359.7" />
</g>
</svg>
