<?xml version="1.0" encoding="utf-8"?>
<svg version="1.1" id="Layer_1"
xmlns="http://www.w3.org/2000/svg"
xmlns:xlink="http://www.w3.org/1999/xlink"


xml:space="preserve">
q-4.75 5.9 -4.75 15.75q0 14.9 -1.7 29.8q-1.95 16.85 4.45 29.45q20.6 7.45 43.1 0.05q15.65 -5.15 26.6 -17.2q27.4 -30.1 25.9 -72.4q-1.55 -44.35 -31.6 -75.65q-5.2 -2.95 -10.05 -6.35q-7.7 -5.5 -15.95 -9.4q-16.1 -6.6 -33.5 -8.3q-2 -0.1 -2.95 1.05q10.7 16.4 13.45 35.75q3.15 22.05 -3.85 43.2q-7.15 21.55 -28.3 32.15q-19.85 10 -41.9 8.45q6.35 -80.85 -0.35 -161.85q21.3 4.8 40.4 15.15q19.05 10.25 30.85 28.4q-5.5 6.35 -7.8 15.1q-15.2 57.5 -26.6 115.85q-2.85 14.55 -6.4 28.85q-0.7 2.8 -1.1 5.45q-7.55 -29.8 -18.8 -58.8q-21.35 -54.95 -41.55 -109.7q-0.85 -0.15 -0.9 0.3q-1.5 17.2 4.7 34.6q5 13.85 8.6 27.8q3.3 12.95 11.55 19q1.25 -1 1.65 -2.55q4.2 -17.3 6.95 -35q9.1 -58.2 26.45 -114.5q5.7 -18.45 3.2 -35.7q-0.5 0 -0.7 0.25q3.8 5.65 6.35 12.2q-15.95 10.85 -21.35 29.35q-6.25 21.35 10.15 34.25q4.05 3.15 9.2 4.15q5.9 -15.15 -3.25 -30.75q-12.55 -21.4 -21.1 -46.9q-5.25 -15.7 -15.65 -28.3q-6.25 10.5 2.2 22.95q0.9 0.9 1.95 1.25q-13.4 9.95 -30.2 7.55q-2.6 -4.15 -2.35 -9q1.05 -21.5 20.6 -26.75<g id="808" transform="matrix(1, 0, 0, 1, -139.1, 0)">
<path style="fill:#000000;fill-opacity:1" d="M326.5,180.3Q327.45 179.15 329.45 179.25Q346.85 180.95 362.95 187.55L363.2 187.75Q371.45 191.65 379.15 197.15Q384 200.55 389.2 203.5Q419.25 234.8 420.8 279.15Q422.3 321.45 394.9 351.55Q383.95 363.6 368.3 368.75Q345.8 376.15 325.2 368.7L324.45 373.45Q318.05 360.85 320 344Q321.7 329.1 321.7 314.2L321.7 195Q321.7 185.15 326.45 179.25L326.5 180.3M367.45,205.45Q348.35 195.1 327.05 190.3Q333.75 271.3 327.4 352.15L337.7 353.4Q359.75 354.95 379.6 344.95Q400.75 334.35 407.9 312.8Q414.9 291.65 411.75 269.6Q409 250.25 398.3 233.85Q386.5 215.7 367.45 205.45M244.45,178.75Q246.95 196 241.25 214.45Q223.9 270.75 214.8 328.95Q212.05 346.65 207.85 363.95Q207.45 365.5 206.2 366.5L205.2 368.45Q196.95 362.4 193.65 349.45Q190.05 335.5 185.05 321.65L145.3 210.65Q139.1 193.25 140.6 176.05Q140.65 175.6 141.5 175.75Q161.7 230.5 183.05 285.45Q194.3 314.45 201.85 344.25Q202.25 341.6 202.95 338.8Q206.5 324.5 209.35 309.95Q220.75 251.6 235.95 194.1Q238.25 185.35 243.75 179Q243.95 178.75 244.45 178.75M256.95,269.25Q267.35 281.85 272.6 297.55Q281.15 323.05 293.7 344.45Q302.85 360.05 296.95 375.2L285.6 358.45L260.95 371.95Q255.8 370.95 251.75 367.8Q235.35 354.9 241.6 333.55Q247 315.05 262.95 304.2L265.5 304.4Q262.95 297.85 259.15 292.2Q250.7 279.75 256.95 269.25M268.7,317.7Q249.15 322.95 248.1 344.45Q247.85 349.3 250.45 353.45Q267.25 355.85 280.65 345.9L271.15 319.5Q270.1 319.15 269.2 318.25L268.7 317.7" />
</g>
</svg>
