<?xml version="1.0" encoding="utf-8"?>
<svg version="1.1" id="Layer_1"
xmlns="http://www.w3.org/2000/svg"
xmlns:xlink="http://www.w3.org/1999/xlink"


xml:space="preserve">
q-44.4 6 -89.75 3.4q-3.65 74.3 -9.75 148.5q-0.45 5.4 0.25 10.9q0.65 5.3 1.6 10.6q4.55 -7.15 3.5 -15.4q9.55 -62.2 6.85 -125.4q27.7 0.45 54.8 -5q4.35 -6 -0.15 -11.5q3.2 -10.65 -0.35 -21.35q-4.9 10.4 0.15 21.55q-0.6 0.4 -0.65 1.25q-1.95 41.45 -6.1 82.45q-6.6 3.75 -13.5 1.25q0.15 -4.65 -3.15 -6.75q-7.25 14.35 4 24q19.3 1.05 20.15 -16.95q0.65 -14.55 -3.25 -26.05q-3.35 5.4 -0.2 10.6q7.1 -2.75 5.75 -10.95q-0.45 -2.65 -2.3 -2.15q-0.9 28.9 -3.95 57.7q-2 19.2 5.05 34.55q15.9 -12.25 15 -30.75q-7.8 6.8 -16.25 17.25q2.85 -41.85 0.45 -82.45q-2.7 1.7 -2.85 5.95q6.05 -22.35 5.1 -43.25q-14.4 44 -25 90.95q-6.5 28.75 -14.95 56.5q-4.65 15.35 -4.65 30.15q-2.85 -33.2 -12.1 -65.95q-16 -56.95 -39 -110.65q-5.9 7.4 -1.5 17.85q23.2 55.45 37.5 113.55q3.5 14.25 5.45 28.55q2.15 16.05 9.8 26.5q1 -0.5 1.2 -1.2q12.75 -44.15 23.2 -89.45q6.55 -28.55 14.2 -56.8<g id="829" transform="matrix(1, 0, 0, 1, -136.6, 0)">
<path style="fill:#000000;fill-opacity:1" d="M418.3,186.75Q422.8 192.25 418.45 198.25Q391.35 203.7 363.65 203.25L365.05 231.25Q367.75 294.45 358.2 356.65L358.45 357.8Q359.5 366.05 354.95 373.2Q354 367.9 353.35 362.6Q352.65 357.1 353.1 351.7Q359.2 277.5 362.85 203.2L327.35 198.95L327.95 189.5Q373.3 192.1 417.7 186.1L418.3 186.75M418.35,254.8Q413.3 243.65 418.2 233.25Q421.75 243.95 418.55 254.6L418.35 254.8M418.2,295.8L415.6 354.25Q414.75 372.25 395.45 371.2Q384.2 361.55 391.45 347.2Q394.75 349.3 394.6 353.95L394.7 354.7Q401.6 357.2 408.2 353.45Q412.35 312.45 414.3 271Q414.35 270.15 414.95 269.75Q418.85 281.25 418.2 295.8M278.4,242.4Q279.75 250.6 272.65 253.35L272 252.85Q268.85 247.65 272.2 242.25L274.45 243.75L276.1 240.25Q277.95 239.75 278.4 242.4M273.2,269.5Q275.6 310.1 272.75 351.95L272.7 352.7L278.7 353.45Q287.15 343 294.95 336.2Q295.85 354.7 279.95 366.95L271.45 367.7Q264.4 352.35 266.4 333.15Q269.45 304.35 270.35 275.45Q270.5 271.2 273.2 269.5M218.9,280.05Q208.45 325.35 195.7 369.5Q195.5 370.2 194.5 370.7L194.05 366.95L193.75 367.45Q186.1 357 183.95 340.95Q182 326.65 178.5 312.4Q164.2 254.3 141 198.85Q136.6 188.4 142.5 181Q165.5 234.7 181.5 291.65Q190.75 324.4 193.6 357.6Q193.6 342.8 198.25 327.45Q206.7 299.7 213.2 270.95Q223.8 224 238.2 180Q239.15 200.9 233.1 223.25Q225.45 251.5 218.9 280.05" />
</g>
</svg>
