<?xml version="1.0" encoding="utf-8"?>
<svg version="1.1" id="Layer_1"
xmlns="http://www.w3.org/2000/svg"
xmlns:xlink="http://www.w3.org/1999/xlink"


xml:space="preserve">
q-9.5 20.85 -15.1 43.05q-4.9 19.5 -12.05 38.15q-5.6 14.6 -9.6 29.6q-14.85 -57.75 -26 -115.8q-2.3 11.55 -5.15 23.4q-6.1 25.15 -9.95 50.5q-6.65 43.75 -18.25 86.45q-3.15 9.3 -3.3 19.05q-0.1 9 3.15 17.3q14.05 -48.05 24.85 -97.05q11.25 -51.1 17.9 -103q6.7 52.5 18.25 104.1q1.95 8.7 6.7 16.45q10.5 -27.25 18.9 -55.35q7 -23.55 12.4 -47.5q11.45 66.15 20.8 132.6q4.55 32.45 10.05 64.7q1.55 9.15 7.65 14q0.85 -20.65 -3.15 -41.75q-8.75 -46.45 -14.85 -93.2q-4.85 -36.8 -14.85 -72.65q-1.95 -7.05 -4.3 -14q-9.9 13.4 -13.4 31.3q-11.4 58.25 -21.6 116.45q-5.15 29.2 -13.9 57.35q-17.25 -49.45 -30 -100.1q-14.6 -57.8 -28.15 -114.5q-5.6 5.45 -3.55 15.1q5.55 26.3 11.4 52.7q12.7 57.65 32 114.15q5 14.75 8 29.9q3.2 16.2 10.15 28.1q1.5 -3.7 2.1 -7.6q1.1 1.55 2.65 2.85q2.95 -7.15 4.75 -15q13.3 -57.7 22.05 -116.2q4.45 -29.5 13.4 -58.05q5.85 -18.65 5.05 -36.45q-2.9 26.35 4.2 49.45q3.95 -17.3 3.3 -37.3q-0.6 -18.7 1.45 -37.25q1.55 -14.4 -4.75 -24.45q-4.2 10.3 -3.45 23.5q0.7 13.1 -0.75 26.05<g id="820" transform="matrix(1, 0, 0, 1, -92.85, 0)">
<path style="fill:#000000;fill-opacity:1" d="M348.2,145.25Q350.55 152.2 352.5 159.25Q362.5 195.1 367.35 231.9Q373.45 278.65 382.2 325.1Q386.2 346.2 385.35 366.85Q379.25 362 377.7 352.85Q372.2 320.6 367.65 288.15Q358.3 221.7 346.85 155.55L345 166.15Q339.6 190.1 332.6 213.65Q324.2 241.75 313.7 269L311.6 264.75L308.7 274.75Q303.95 267 302 258.3Q290.45 206.7 283.75 154.2L282.7 164.15Q276.05 216.05 264.8 267.15Q254 316.15 239.95 364.2Q236.7 355.9 236.8 346.9Q236.95 337.15 240.1 327.85L242.45 320.85L244.65 313.7L248.7 299.25Q260.3 256.55 266.95 212.8Q270.8 187.45 276.9 162.3Q279.75 150.45 282.05 138.9L284.45 135.75Q295.6 193.8 310.45 251.55Q314.45 236.55 320.05 221.95Q327.2 203.3 332.1 183.8Q337.7 161.6 347.2 140.75L348.2 145.25M201.4,163.95Q192.45 192.5 188 222Q179.25 280.5 165.95 338.2Q164.15 346.05 161.2 353.2Q159.65 351.9 158.55 350.35Q157.95 354.25 156.45 357.95Q149.5 346.05 146.3 329.85Q143.3 314.7 138.3 299.95Q119 243.45 106.3 185.8Q100.45 159.4 94.9 133.1Q92.85 123.45 98.45 118Q112 174.7 126.6 232.5Q139.35 283.15 156.6 332.6L157.1 334.15L157.55 332.6Q166.3 304.45 171.45 275.25Q181.65 217.05 193.05 158.8Q196.55 140.9 206.45 127.5Q207.25 145.3 201.4 163.95M222.5,212Q221.75 198.8 225.95 188.5Q232.25 198.55 230.7 212.95Q228.65 231.5 229.25 250.2Q229.9 270.2 225.95 287.5Q218.85 264.4 221.75 238.05Q223.2 225.1 222.5 212" />
</g>
</svg>
