<?xml version="1.0" encoding="utf-8"?>
<svg version="1.1" id="Layer_1"
xmlns="http://www.w3.org/2000/svg"
xmlns:xlink="http://www.w3.org/1999/xlink"


xml:space="preserve">
q23.7 -3.3 37.2 14.25q13.9 18.15 5.3 39.45q-8.5 20.9 -30.55 26.55q-6 1.5 -12.35 1.95q11.75 -35.5 12.1 -77.5q15.45 42.55 38.3 81.45q1.3 -23.8 -13.85 -50.15q-11.45 -19.95 -21.9 -40.5q12.7 -7.9 18.45 -21.85q8.75 -21.25 2.5 -43.55q-6.75 -23.9 -30.2 -31.55q-9.75 -3.1 -19.25 1.65q-10.15 28.25 -15.65 58.75q-6.4 22.95 -9.7 46.3q-7 -30.2 -15.05 -60q-15.25 -56.8 -35.7 -112.15q-0.75 0.1 -0.8 0.3q-1.5 23.15 8.05 46.3q22.4 54.4 32.05 112.1q2.7 16.3 10.95 27.25q3.45 -6.65 5.25 -14.05q7.4 -29.45 8.7 -58q-6.5 8.45 0.05 15.55q5.6 -8.7 -0.6 -15.15q-2.55 2 -3 5.65q-5.35 45.65 -1.25 90.85q1.4 0.75 2.55 0.5q25.8 -6 27.95 -32q-11.8 12.5 -27.25 17.75q0.8 -31.15 3.95 -62.2q1.2 -12.15 -2.95 -20.55<g id="831" transform="matrix(1, 0, 0, 1, -141.2, 0)">
<path style="fill:#000000;fill-opacity:1" d="M345.35,190.45L345.7 184.5Q355.2 179.75 364.95 182.85Q388.4 190.5 395.15 214.4Q401.4 236.7 392.65 257.95Q386.9 271.9 374.2 279.8Q384.65 300.35 396.1 320.3Q411.25 346.65 409.95 370.45L406.45 364.75Q383.6 325.85 368.15 283.3L344.7 290.6Q344.35 332.6 332.6 368.1L344.2 183.75L345.3 274.95Q351.65 274.5 357.65 273Q379.7 267.35 388.2 246.45Q396.8 225.15 382.9 207Q369.4 189.45 345.7 192.75L345.35 190.45M238.2,180.75Q236.9 209.3 229.5 238.75L201 352.65Q199.2 360.05 195.75 366.7L193.85 366.6L193.75 366.7Q185.5 355.75 182.8 339.45Q173.15 281.75 150.75 227.35Q141.2 204.2 142.7 181.05Q142.75 180.85 143.5 180.75Q163.95 236.1 179.2 292.9Q187.25 322.7 194.25 352.9Q197.55 329.55 203.95 306.6L222.45 239.5Q227.95 209 238.1 180.75L238.2 180.75M278.95,239.75Q285.15 246.2 279.55 254.9L278.95 255.5Q272.4 248.4 278.9 239.95L278.95 239.75M279.9,292.5Q276.75 323.55 275.95 354.7Q291.4 349.45 303.2 336.95Q301.05 362.95 275.25 368.95Q274.1 369.2 272.7 368.45Q268.6 323.25 273.95 277.6Q274.4 273.95 276.95 271.95Q281.1 280.35 279.9 292.5" />
</g>
</svg>
