<?xml version="1.0" encoding="utf-8"?>
<svg version="1.1" id="Layer_1"
xmlns="http://www.w3.org/2000/svg"
xmlns:xlink="http://www.w3.org/1999/xlink"


xml:space="preserve">
q-13.9 14.95 -3.45 28.85q0.25 0.35 0.95 0.4q11 -11.5 4.5 -25.6q2.05 3.35 -2.05 6.85q-11.1 13.2 -26.5 14.25q0.75 -39.05 1.75 -76.5q-12 42.25 -5.3 87.85q0.4 3 3.25 2.9q26.45 -0.95 30.05 -28.25q-3.85 11.6 0.4 25.95q12.2 41.4 21.25 83.8q6.1 28.6 9.15 57.65q1.4 13.4 9.15 19.3q17.15 -56.6 35.25 -112.5q7.1 -21.9 7 -42.55q-10.85 22.05 -18 47.05q-15.85 55.7 -34.9 110.35q-2.15 -19.45 -6.7 -39q-13.3 -57.1 -29.35 -113.65<g id="817" transform="matrix(1, 0, 0, 1, -156.4, 0)">
<path style="fill:#000000;fill-opacity:1" d="M352.95,238.15Q359.45 252.25 348.45 263.75Q347.75 263.7 347.5 263.35Q337.05 249.45 350.95 234.5L352.95 238.15M348.4,252.6Q352.5 249.1 350.45 245.75L347.45 253.25L348.4 252.6M374.2,335.45Q370.6 362.75 344.15 363.7Q341.3 363.8 340.9 360.8Q334.2 315.2 346.2 272.95Q345.2 310.4 344.45 349.45L344.7 350.2Q360.1 349.15 371.2 335.95L374.2 335.45M161.45,183.8L162.25 184.5Q178.3 241.05 191.6 298.15Q196.15 317.7 198.3 337.15Q217.35 282.5 233.2 226.8Q240.35 201.8 251.2 179.75Q251.3 200.4 244.2 222.3Q226.1 278.2 208.95 334.8L200.1 363.6L200.2 369.7Q192.45 363.8 191.05 350.4Q188 321.35 181.9 292.75Q172.85 250.35 160.65 208.95Q156.4 194.6 160.25 183L161.45 183.8" />
</g>
</svg>
