<?xml version="1.0" encoding="utf-8"?>
<svg version="1.1" id="Layer_1"
xmlns="http://www.w3.org/2000/svg"
xmlns:xlink="http://www.w3.org/1999/xlink"


xml:space="preserve">
q1.65 59.45 -4.55 118.45q-2.15 20.4 -1.7 40q-1.1 2.25 -1.15 5q-0.05 3.6 1.65 6.3q1.65 -2.5 2.8 -5.4q16.9 5.35 34.4 4q31.2 -2.35 35.65 -32.8q3.1 -20.85 0.1 -41.3q-3.7 -25.4 -23.85 -31.3q8.35 -13.95 8.1 -30.5q-0.4 -34.15 -32.95 -46.5q-3.6 -0.6 -6 1.55q-0.4 1.05 -0.4 2.25q0 1.55 0.65 3q7.05 3.05 15 4.25q9.1 5.2 17.85 10.95q2.35 4.45 4.25 9.3q5.15 12.8 0.8 26.2q-9.35 28.75 -39.8 31q2.55 -46.25 -2.25 -92q-3.8 5.35 -3.6 13.5q17.1 21.3 15.8 50.3q-0.45 10.15 -8.45 15.95q-24.9 18.05 -55.05 8.65q1.05 -26.65 3.7 -53.3q18.85 0.5 31.8 -11.75q5.5 1.65 11 3.45q-27 77.75 -45.05 158.05q-8.85 -79.95 -29.5 -157.4q-0.1 -0.45 -0.65 -0.75q-8.3 15.5 2 40.9q5.5 13.5 8.3 28.1q3.1 18.35 3.7 36.75q0.65 20.7 5.75 40.4q1.25 5 4.35 9.2q17.25 -83.1 40.55 -164.7q1.45 -5.15 1.7 -10.5q-0.6 1 -0.9 2.2q-1.4 5.9 -0.1 12.05q1.45 1.85 4 1.25q8.85 -9.55 -0.7 -16.65q-1.3 0.4 -2.25 1.4q0.3 -36.25 -0.4 -71.25q-6.4 24.3 -7.35 51.7q-0.55 16.95 5.55 31.85q2.6 6.35 8.95 4.15q20.2 -7.05 17.85 -25.7q-7.85 6.5 -16.5 13q-1.35 -0.95 -2.5 -2.25<g id="818" transform="matrix(1, 0, 0, 1, -134.85, 0)">
<path style="fill:#000000;fill-opacity:1" d="M338.2,180.75Q343 226.5 340.45 272.75Q370.9 270.5 380.25 241.75Q384.6 228.35 379.45 215.55Q377.55 210.7 375.2 206.25Q366.45 200.5 357.35 195.3L355.95 194.25Q348 193.05 340.95 190Q340.3 188.55 340.3 187Q340.3 185.8 340.7 184.75L340.95 184Q343.35 181.85 346.95 182.45L347.45 182.5L352.95 183.75L356.2 184.25Q388.75 196.6 389.15 230.75Q389.4 247.3 381.05 261.25L378.55 265.15Q398.7 271.05 402.4 296.45Q405.4 316.9 402.3 337.75Q397.85 368.2 366.65 370.55Q349.15 371.9 332.25 366.55Q331.1 369.45 329.45 371.95L328.85 364Q327.15 361.3 327.2 357.7Q327.25 354.95 328.35 352.7Q327.9 333.1 330.05 312.7Q336.25 253.7 334.6 194.25Q334.4 186.1 338.2 180.75M371.45,273.5Q358.5 285.75 339.65 285.25L338.45 298.55Q335.8 325.2 334.75 351.85Q364.9 361.25 389.8 343.2Q397.8 337.4 398.25 327.25Q399.55 298.25 382.45 276.95Q376.95 275.15 371.45 273.5M219,190.5Q218.75 195.85 217.3 201Q194 282.6 176.75 365.7L174.7 361.8L172.5 367.95Q169.4 363.75 168.15 358.75Q163.05 339.05 162.4 318.35Q161.8 299.95 158.7 281.6L153.45 252.35Q150.65 237.75 145.15 224.25Q134.85 198.85 143.15 183.35Q143.7 183.65 143.8 184.1Q164.45 261.55 173.3 341.5L174.15 337.8Q192.2 257.5 219.2 179.75L219 190.5M270.2,244.1L270.95 243.75Q280.5 250.85 271.65 260.4L270.95 261Q268.4 261.6 266.95 259.75Q265.65 253.6 267.05 247.7Q267.35 246.5 267.95 245.5Q268.9 244.5 270.2 244.1M268.7,350.45Q269.85 351.75 271.2 352.7L276.7 353.45Q285.35 346.95 293.2 340.45Q295.55 359.1 275.35 366.15Q269 368.35 266.4 362Q260.3 347.1 260.85 330.15Q261.8 302.75 268.2 278.45Q268.9 313.45 268.6 349.7L268.7 350.45" />
</g>
</svg>
