<?xml version="1.0" encoding="utf-8"?>
<svg version="1.1" id="Layer_1"
xmlns="http://www.w3.org/2000/svg"
xmlns:xlink="http://www.w3.org/1999/xlink"


xml:space="preserve">
q-47.95 6.75 -96.5 7.25q0.85 65.65 -4.35 131.1q-1.55 13.1 4.4 24.85q7.2 -34.05 6.4 -68.95q-0.4 -16.85 0.45 -33.7q1.85 -36.35 -1.75 -72.5q2.35 -5.1 -0.45 -9.9q0.25 25.1 9.7 49.7q21.05 54.55 27.85 112.9q1.8 15.3 8.05 27q8.5 -14.9 13.55 -33.15q15.8 -57.15 29.25 -114.4q1.8 -7.55 4.45 -14.6q5.95 -15.8 2.2 -28.8q-5.35 8.5 -8.05 18.95q-14.35 56.65 -27.95 114.15q-1.75 7.45 -5.25 14.35q-6.95 13.65 -8.4 27.2q-2.45 -32.4 -10.3 -64.7q-13.8 -57.1 -34.75 -111.7q-0.65 -0.2 -0.65 0.25q-1.9 0 -3.25 2.35q-1.35 2.35 -1.35 5.7q0 3.35 1.35 5.7q1.35 2.35 3.25 2.35q1.9 0 3.25 -2.35q1.35 -2.35 1.35 -5.7q0 -3.35 -1.35 -5.7q-1.35 -2.35 -3.25 -2.35q4.45 -30.05 2.15 -59.35q-6.6 23 -9.4 49.4q-2.65 24.9 7.4 45.1q19.7 -5.45 20.25 -26q-9.35 5.05 -19.5 11q-2.45 -9.75 -0.9 -20.15<g id="825" transform="matrix(1, 0, 0, 1, -141.6, 0)">
<path style="fill:#000000;fill-opacity:1" d="M420.75,188.75L418.7 191L370.8 195.8Q374.4 231.95 372.55 268.3Q371.7 285.15 372.1 302Q372.9 336.9 365.7 370.95Q359.75 359.2 361.3 346.1L363.15 326.95Q368.35 261.5 367.5 195.85L322.7 193L322.95 184.75Q371.5 184.25 419.45 177.5L420.3 178.85Q423.1 183.65 420.75 188.75M142.25,178.25Q163.2 232.85 177 289.95Q184.85 322.25 187.3 354.65Q188.75 341.1 195.7 327.45Q199.2 320.55 200.95 313.1Q214.55 255.6 228.9 198.95Q231.6 188.5 236.95 180Q240.7 193 234.75 208.8Q232.1 215.85 230.3 223.4Q216.85 280.65 201.05 337.8Q196 356.05 187.5 370.95L187.2 368.1Q180.95 356.4 179.15 341.1Q172.35 282.75 151.3 228.2Q141.85 203.6 141.6 178.5Q141.6 178.05 142.25 178.25M279.5,245.05Q280.85 247.4 280.85 250.75Q280.85 254.1 279.5 256.45Q278.15 258.8 276.25 258.8Q274.35 258.8 273 256.45Q271.65 254.1 271.65 250.75Q271.65 247.4 273 245.05Q274.35 242.7 276.25 242.7Q278.15 242.7 279.5 245.05M271.2,358.95Q281.35 353 290.7 347.95Q290.15 368.5 270.45 373.95Q260.4 353.75 263.05 328.85Q265.85 302.45 272.45 279.45Q274.75 308.75 270.3 338.8Q268.75 349.2 271.2 358.95" />
</g>
</svg>
