<?xml version="1.0" encoding="utf-8"?>
<svg version="1.1" id="Layer_1"
xmlns="http://www.w3.org/2000/svg"
xmlns:xlink="http://www.w3.org/1999/xlink"


xml:space="preserve">
q-17.1 18.6 -25.05 43.5q-18.7 58.45 1.35 115.15q8.25 23.4 32.55 19.3q10.95 -1.8 20.7 -6.8q14.8 -7.55 19.65 -19q-2.3 14.95 3.55 25.4q4.8 -31.5 3.4 -62.2q-13.75 -1 -25.75 4q-0.7 3.4 0.2 6.7q11 0.75 21.25 0.5q-17.05 28.7 -51.8 32.3q-1.95 0.2 -3.45 -0.95q-21.65 -16.7 -22.65 -45.6q-1.2 -34.3 7.05 -67q7.35 -29.1 30.6 -45.45q24.7 -3.7 42.5 9.5q-8.35 -23.3 -37.4 -21.75q-8.95 1.5 -15.25 8.4q-18.7 57.15 -31.05 115.75q-3.1 14.55 -6.8 28.85q-1.7 6.6 -2.65 13.1q-2.1 -23.9 -6.35 -47.85q-10.25 -58.15 -25.8 -114.55q-0.75 0.1 -0.75 0.25q-0.55 23.25 4.9 46.75q13.3 56.9 19.65 115.4q1.55 14.55 7.6 25.1q0.6 -0.75 0.55 -1.45q6.25 -13.25 8.55 -29.5q8.2 -58.6 27 -114.3q7.45 -22.1 6.35 -43.35q-2.3 0.6 -3.05 2.95q-0.35 0 -0.45 0.15q-5.85 9.55 0.2 16.35q1.5 -1.4 2.05 -3.4q-1.15 -4.4 -0.45 -9q-0.65 26.25 -4.35 52.3q-2.85 19.95 11.65 28.7q16.9 -9.75 19.5 -27.75q-1.7 0.25 -3.5 -1.25q-7 9.7 -17.25 15q-6.05 -9.25 -3.95 -21.7q5.2 -31.05 2.95 -61.3q-4.85 6.6 -5.05 16<g id="832" transform="matrix(1, 0, 0, 1, -142.2, 0)">
<path style="fill:#000000;fill-opacity:1" d="M361.95,182.25Q391 180.7 399.35 204L399.45 204.75Q381.65 191.55 356.95 195.25Q333.7 211.6 326.35 240.7Q318.1 273.4 319.3 307.7Q320.3 336.6 341.95 353.3Q343.45 354.45 345.4 354.25Q380.15 350.65 397.2 321.95L398 327L398.95 317.2Q388.7 317.45 377.7 316.7Q376.8 313.4 377.5 310L377.7 309.2Q389.7 304.2 403.45 305.2Q404.85 335.9 400.05 367.4L399.45 368.2Q393.6 357.75 395.9 342.8Q391.05 354.25 376.25 361.8Q366.5 366.8 355.55 368.6Q331.25 372.7 323 349.3Q302.95 292.6 321.65 234.15Q329.6 209.25 346.7 190.65Q353 183.75 361.95 182.25M219.2,182.25Q220.3 203.5 212.85 225.6Q194.05 281.3 185.85 339.9Q183.55 356.15 177.3 369.4L177.3 369.5Q177.35 370.2 176.75 370.95L176.65 370.75L175.5 372.95L174.9 368Q168.85 357.45 167.3 342.9Q160.95 284.4 147.65 227.5Q142.2 204 142.75 180.75Q142.75 180.6 143.5 180.5Q159.05 236.9 169.3 295.05Q173.55 319 175.65 342.9Q176.6 336.4 178.3 329.8Q182 315.5 185.1 300.95Q197.45 242.35 216.15 185.2Q216.9 182.85 219.2 182.25M258.65,238.5L258.95 239.25Q258.25 243.85 259.4 248.25L259.45 249Q258.9 251 257.4 252.4L256.95 252.75Q250.9 245.95 256.75 236.4Q256.85 236.25 257.2 236.25L258.65 238.5M256.2,273.7Q258.45 303.95 253.25 335Q251.15 347.45 257.2 356.7Q267.45 351.4 274.45 341.7Q276.25 343.2 277.95 342.95Q275.35 360.95 258.45 370.7Q243.95 361.95 246.8 342Q250.5 315.95 251.15 289.7Q251.35 280.3 256.2 273.7" />
</g>
</svg>
