<?xml version="1.0" encoding="utf-8"?>
<svg version="1.1" id="Layer_1"
xmlns="http://www.w3.org/2000/svg"
xmlns:xlink="http://www.w3.org/1999/xlink"


xml:space="preserve">
q-0.6 -0.2 -0.65 0.25q-4.15 58 -5.45 116.7q-0.5 22.3 -3.5 44.1q-2.3 16.45 3.35 29.9q4.45 -5.3 4.75 -13.15q15.5 1.6 26.9 -4q15.8 33.05 27.95 68.6q4.7 13.7 12.25 22.55q5.2 -7.6 0.85 -16.5q-11.5 -23.35 -19.1 -48.45q-5.2 -17 -14.85 -30.7q9.1 -7.35 14.75 -20.75q20.05 -47.4 -26.65 -72.55q-12.4 -1.65 -22.7 3.75q-10.2 21.1 -33.15 24.75q2.7 -37.9 -0.25 -75.7q21.55 -3.1 37.4 11.95q17.8 16.95 7.65 38.05q-15.65 57.15 -27.5 115.35q-3 14.75 -8.2 28.75q-2.95 7.95 -4.05 15.7q-12.15 -56.55 -27.45 -112.45q-8.1 -29.75 -21.25 -56.1q-1.65 0.1 -1.4 1.65q3.8 22.65 10.85 45.3q17.6 56.4 27.3 114.1q2.75 16.2 10.75 27.15q1.7 -0.15 2.3 -1.9q15.6 -46.8 24.5 -95.65q5.3 -29.25 14 -57.45q5.75 -18.8 3.9 -36.45q-3.75 4.3 -5.5 10.75q-5.1 -5.7 -12.8 -5.85q-20.3 7.6 -23.65 32.1q-2.95 21.4 3 42.25q2.9 10.3 9.15 19.15q12.6 6.6 24.7 0.25q9.75 -5.2 11.9 -15.3q1 -4.65 -1.6 -8.7q-15.9 16.85 -30.5 5.35q-11.95 -9.4 -9.8 -24.85q2.25 -2.95 2.1 -6.75q-0.15 -2.8 -1.7 -5.15q-15.3 -2.1 -30.25 2.8q1.65 -20.85 21.25 -23.95q9.9 -1.6 18.6 2.45q2.3 -6 -2.5 -11.45<g id="849" transform="matrix(1, 0, 0, 1, -140.6, 0)">
<path style="fill:#000000;fill-opacity:1" d="M344.75,184.75Q355.05 179.35 367.45 181Q414.15 206.15 394.1 253.55Q388.45 266.95 379.35 274.3Q389 288 394.2 305Q401.8 330.1 413.3 353.45Q417.65 362.35 412.45 369.95Q404.9 361.1 400.2 347.4Q388.05 311.85 372.25 278.8Q360.85 284.4 345.35 282.8L342.7 358.05Q342.4 365.9 337.95 371.2Q332.3 357.75 334.6 341.3Q337.6 319.5 338.1 297.2Q339.4 238.5 343.55 180.5Q343.6 180.05 344.2 180.25L344.75 184.75M383,204.75Q367.15 189.7 345.6 192.8Q348.55 230.6 345.85 268.5L357.5 267.55Q380.45 263.9 390.65 242.8Q400.8 221.7 383 204.75M236.2,180Q238.05 197.65 232.3 216.45Q223.6 244.65 218.3 273.9Q209.4 322.75 193.8 369.55Q193.2 371.3 191.5 371.45L191 368.6L189.75 370.2Q181.75 359.25 179 343.05Q169.3 285.35 151.7 228.95Q144.65 206.3 140.85 183.65Q140.6 182.1 142.25 182Q155.4 208.35 163.5 238.1Q178.8 294 190.95 350.55Q192.05 342.8 195 334.85Q200.2 320.85 203.2 306.1Q215.05 247.9 230.7 190.75Q232.45 184.3 236.2 180M301.45,287.25Q292.75 283.2 282.85 284.8Q263.25 287.9 261.6 308.75Q276.55 303.85 291.85 305.95L292.1 306.3Q293.65 308.65 293.8 311.45Q293.95 315.25 291.7 318.2L260.15 320.95Q258 336.4 269.95 345.8Q284.55 357.3 300.45 340.45Q303.05 344.5 302.05 349.15Q299.9 359.25 290.15 364.45Q278.05 370.8 265.45 364.2Q259.2 355.35 256.3 345.05Q250.35 324.2 253.3 302.8Q256.65 278.3 276.95 270.7L286.15 269.95Q293.85 270.1 298.95 275.8Q303.75 281.25 301.45 287.25" />
</g>
</svg>
