<?xml version="1.0" encoding="utf-8"?>
<svg version="1.1" id="Layer_1"
xmlns="http://www.w3.org/2000/svg"
xmlns:xlink="http://www.w3.org/1999/xlink"


xml:space="preserve">
q-0.95 0 -9.55 -5.6q-8.55 -5.65 -13.45 -5.65q-35 0 -67.2 20.9q-11.5 7.4 -21.1 16.6q-7.4 7.05 -10.95 12.25q-2.4 3.5 -7.6 25.45q-5.15 21.8 -5.15 28.15q0 28.8 2.05 45q2.6 20 9.25 31.75q7.3 12.8 20.95 18.8q14.15 6.2 37.25 6.2q23.8 0 33.9 -17.55q6.05 -10.55 8.85 -34.7q-3.15 0 -4.25 -1.95q-0.5 -0.9 -0.5 -2.3q0 -2.65 6.85 -6.25q6.4 -3.4 16 -6.2q23.15 -6.85 32.4 -3.05q5.7 2.4 5.4 11q-0.3 4.1 0.2 6.2q-0.6 10.7 -0.1 31.25q-2.4 15.5 -5.75 15.5q-4.7 0 -5.7 -5.55q-14.3 18.95 -40.3 18.95q-52 0 -69.95 -36.2q-5.7 -11.5 -7.3 -25.5q0 -21.5 3.2 -39.35q4.4 -24.35 14.3 -37.75q4.2 -5.7 19.75 -16.85q18.6 -13.3 37.15 -21.7q23.65 -10.65 41.25 -10.2q21.45 0.5 32.1 17.5q-0.5 0.6 -2.1 0.6q0 9.65 -4.75 11.9q-4.55 -2.25 -4 -4.8q1.5 -2.95 1.5 -4.85q0 -5.25 -8 -10.85q-9.35 -6.5 -22.5 -6.5q-45.25 0 -69.1 66q-7.55 20.8 -12.55 47.55q-2.55 13.55 -4.35 26.05q-7.25 28.3 -11.9 70.1q9.4 -2.3 13.3 0.45q2.2 1.55 2.2 4.2q0 1.6 -2.6 2.55q-0.65 6.55 -1.35 17.9q0.75 18.75 5.45 33.95q14.75 47.95 63.2 47.95q23.6 0 36.4 -20.25q4.05 -6.45 6.7 -14.55q3.5 -13.75 5.25 -24.55q1.75 13.3 1.75 15.8q0 6.35 -2.55 16.4q-3.4 13.45 -9.65 24.45q-18.25 32 -53.3 32q-48.75 0 -66.45 -43.2q-10.05 -24.5 -10.05 -68.3q0.7 -12.1 1.35 -19.15q1.25 -36.6 8.35 -78.85q6.1 -36.4 17.15 -80q6.05 -26 9.85 -39.7q6.65 -24.05 14.9 -39.8q6.1 -11.7 13.15 -20q9.7 -11.4 23.6 -19.75q27.5 -16.65 49.8 -5.2q7.95 4.1 13.35 10.85q4.6 5.8 4.6 9.45q1.5 2.3 2.8 6.05q1.3 3.65 1.3 5.35q0 9.95 -2 31.75q-1.85 20.3 -1.5 31.6q8.45 -2.05 19.75 -3.45q14.7 -1.9 21.9 -1.55q1 -22.15 2.35 -33.7q0 -5.6 1.15 -17.25q1.1 -11.6 1.1 -17.25q4.85 -20.25 7.2 -17.9q1.8 1.8 1.8 14.55q0 10.8 -1.25 25.9q-2.55 31.6 0.8 51.75q-1 3.1 -0.8 12.3q-0.6 7.7 -5.7 7.7q-3.9 0 -4.7 -2.9q0 -2.15 0.65 -7.4q0.75 -5.85 1.6 -9.5q-1 -6.75 -1 -20.25q0 -9.75 0.4 -21.9q-15.75 4 -33 4q-0.75 7.6 -0.6 23.7q-0.65 30.55 -9.8 30.55q-3.4 0 -4.25 -2.35q2.4 -16.25 2.65 -23.1q0.25 -11.7 0.85 -19.5q0.7 -8.2 1.2 -22.5q0.6 -16.05 1.05 -22.5q0.8 -6.55 0.6 -11.25q-0.6 -12.8 3.4 -6.5q35.3 -4.55 35.3 0.05q0 1.35 -33.45 7.55q0.8 11.05 0.8 25.1q-1.55 30.7 -3.35 56.5q-5.75 81.75 -12 81.75q-3.45 0 -4.2 -4.6q0 -5.5 2.2 -26.25q6.65 -67.25 7 -114.25q-37.55 6.75 -49.75 6.75q-0.4 -0.7 -0.4 -2.15q0 -1.4 14.8 -4.55q14.25 -3 32.6 -5.65q1.2 -1.8 2.2 -0.25q-2.25 -1.5 -3.85 -4.35q-3.5 -5.55 -13.35 -5.55q-24.55 0 -33.2 61.6q-4.35 30.85 -3.8 61.9q0.3 11.85 2.05 20.9q5.35 27.1 23.45 28.2q8.75 -7.1 19.85 -19.05q-1.5 2.7 -1.5 7.5q-20.5 40 -40.5 40q-29 0 -37.5 -27.25q-2.7 -8.55 -3 -18.9q-1.4 -39.65 3.5 -76.45q9.65 -73.05 41.25 -73.05q12.55 0 19 8.05q4.25 5.35 4.25 10.45q0 1.6 -0.55 2.25q2.85 -0.4 2.85 8.05q0 2.2 -12.65 49.55q-14.2 53.15 -18.1 71.6q-5.45 25.7 -13.25 59.95q-0.45 2.05 -7.15 41.05q-8.15 46.7 -15.15 82.3q-23 117.15 -33.45 117.15q-8.8 0 -13.6 -49.45q-1.45 -15.05 -3.3 -43.7q-1.95 -30.3 -2.85 -40.1q-9.05 -59.95 -9.05 -71.25q0 -12.75 -9.6 -60q-1 -4.95 -14.05 -57.75q-10.95 -44.35 -10.95 -50.25q0 -1.75 1 -3q1.2 -1.5 3.25 -1.5q6.9 0 16.75 44.05q4.6 22.8 7 32.2q15.8 63.35 21 113.85q2.5 23.7 7.15 56.85q2.65 19.05 8.25 57.3q10.05 70.65 11.85 113.85q15.25 -44.65 27.9 -115.45q6 -34.7 11 -57.8q7.9 -35.35 12.35 -58.6q2.2 -11.9 6.3 -29.2q6.2 -26.95 15.8 -43.85q4.25 -7.5 6.85 -7.85<g id="847" transform="matrix(1, 0, 0, 1, -16.75, 0)">
<path style="fill:#000000;fill-opacity:1" d="M494,50.75Q493.05 50.75 484.45 45.15Q475.9 39.5 471 39.5Q436 39.5 403.8 60.4Q392.3 67.8 382.7 77Q375.3 84.05 371.75 89.25Q369.35 92.75 364.15 114.7Q359 136.5 359 142.85Q359 171.65 361.05 187.85Q363.65 207.85 370.3 219.6Q377.6 232.4 391.25 238.4Q405.4 244.6 428.5 244.6Q452.3 244.6 462.4 227.05Q468.45 216.5 471.25 192.35L472 192.75L472 174.6L448.15 179.5L426.5 184.1Q423.35 184.1 422.25 182.15Q421.75 181.25 421.75 179.85Q421.75 177.2 428.6 173.6Q435 170.2 444.6 167.4Q467.75 160.55 477 164.35Q482.7 166.75 482.4 175.35L481.8 182.4Q481.5 186.5 482 188.6Q481.4 199.3 481.9 219.85L482.5 240L480.75 256.1Q478.35 271.6 475 271.6Q470.3 271.6 469.3 266.05L469.25 260.25L468.8 237.65Q454.5 256.6 428.5 256.6Q376.5 256.6 358.55 220.4Q352.85 208.9 351.25 194.9L350.75 182.1L349.75 169.75L348.75 157.35Q348.75 135.85 351.95 118Q356.35 93.65 366.25 80.25Q370.45 74.55 386 63.4Q404.6 50.1 423.15 41.7Q446.8 31.05 464.4 31.5Q485.85 32 496.5 49L496.1 50.15Q495.6 50.75 494 50.75M332.75,45.1Q332.75 54.75 328 57Q323.45 54.75 324 52.2Q325.5 49.25 325.5 47.35Q325.5 42.1 317.5 36.5Q308.15 30 295 30Q249.75 30 225.9 96Q218.35 116.8 213.35 143.55Q210.8 157.1 209 169.6Q201.75 197.9 197.1 239.7L195.1 258.35L268.75 258.35Q278.15 256.05 282.05 258.8Q284.25 260.35 284.25 263Q284.25 264.6 281.65 265.55L269 268.85L194.05 268.85L190 309.85L190 354.85Q189.35 361.4 188.65 372.75L188 385.25L187.85 402.7Q188.6 421.45 193.3 436.65Q208.05 484.6 256.5 484.6Q280.1 484.6 292.9 464.35Q296.95 457.9 299.6 449.8L301.75 441.85L308.25 418.4Q311.75 404.65 313.5 393.85L314.25 393.6L316.25 408.2Q318 421.5 318 424Q318 430.35 315.45 440.4Q312.05 453.85 305.8 464.85Q287.55 496.85 252.5 496.85Q203.75 496.85 186.05 453.65Q176 429.15 176 385.35L176.65 372.25Q177.35 360.15 178 353.1L178 308.1Q179.25 271.5 186.35 229.25Q192.45 192.85 203.5 149.25Q209.55 123.25 213.35 109.55Q220 85.5 228.25 69.75Q234.35 58.05 241.4 49.75Q251.1 38.35 265 30Q292.5 13.35 314.8 24.8Q322.75 28.9 328.15 35.65Q332.75 41.45 332.75 45.1M465.65,285.6Q467.15 287.9 468.45 291.65Q469.75 295.3 469.75 297Q469.75 306.95 467.75 328.75Q465.9 349.05 466.25 360.35L466.25 381.75L468.5 381.15Q476.95 379.1 488.25 377.7Q502.95 375.8 510.15 376.15L510.4 369.55Q511.4 347.4 512.75 335.85Q512.75 330.25 513.9 318.6Q515 307 515 301.35Q519.85 281.1 522.2 283.45Q524 285.25 524 298L523.15 309.05L522.25 320.1Q522.25 330.9 521 346L518.7 371.85Q516.15 403.45 519.5 423.6L519.5 468.6Q518.5 471.7 518.7 480.9Q518.1 488.6 513 488.6Q509.1 488.6 508.3 485.7L508.25 482.5Q508.25 480.35 508.9 475.1Q509.65 469.25 510.5 465.6L510.5 425.1Q509.5 418.35 509.5 404.85Q509.5 395.1 509.9 382.95L503 384.85Q487.25 388.85 470 388.85L466.25 388.75L466.25 410.6Q465.5 418.2 465.65 434.3L465.8 460.8Q465.15 491.35 456 491.35Q452.6 491.35 451.75 489L451.5 486.35L453.85 470.45Q456.25 454.2 456.5 447.35L456.9 427.85Q457.15 416.15 457.75 408.35L457.75 359.6Q458.45 351.4 458.95 337.1Q459.55 321.05 460 314.6L461.65 303.35Q462.45 296.8 462.25 292.1Q461.65 279.3 465.65 285.6M341.2,283.8Q376.5 279.25 376.5 283.85Q376.5 285.2 343.05 291.4L343.7 298.4Q344.5 309.45 344.5 323.5L343.35 349.85Q341.8 380.55 340 406.35Q334.25 488.1 328 488.1Q324.55 488.1 323.8 483.5L323.75 478.6Q323.75 473.1 325.95 452.35L330.75 406.6Q337.4 339.35 337.75 292.35Q300.2 299.1 288 299.1L284.3 298.85L282.5 298.6L282.15 297.75Q281.75 297.05 281.75 295.6Q281.75 294.2 296.55 291.05Q310.8 288.05 329.15 285.4L339 284.05Q340.2 282.25 341.2 283.8M424.7,302.85L423.25 304.35Q421 302.85 419.4 300L416.85 295.15Q413.35 289.6 403.5 289.6Q378.95 289.6 370.3 351.2Q365.95 382.05 366.5 413.1L366.5 427.5Q366.8 439.35 368.55 448.4Q373.9 475.5 392 476.6L403 476.6Q411.75 469.5 422.85 457.55L439.5 439.1Q438 441.8 438 446.6Q417.5 486.6 397.5 486.6Q368.5 486.6 360 459.35Q357.3 450.8 357 440.45L357.25 431.6Q355.85 391.95 360.75 355.15Q370.4 282.1 402 282.1Q414.55 282.1 421 290.15Q425.25 295.5 425.25 300.6Q425.25 302.2 424.7 302.85M210.9,22.3Q213.75 21.9 213.75 30.35Q213.75 32.55 201.1 79.9Q186.9 133.05 183 151.5Q177.55 177.2 169.75 211.45L155.75 272.1Q155.3 274.15 148.6 313.15Q140.45 359.85 133.45 395.45Q110.45 512.6 100 512.6Q91.2 512.6 86.4 463.15Q84.95 448.1 83.1 419.45Q81.15 389.15 80.25 379.35L70.8 317.1Q61.75 257.15 61.75 245.85Q61.75 233.1 52.15 185.85L41.75 137.25Q40.75 132.3 27.7 79.5Q16.75 35.15 16.75 29.25Q16.75 27.5 17.75 26.25Q18.95 24.75 21 24.75Q27.9 24.75 37.75 68.8L45.5 106.3Q50.1 129.1 52.5 138.5Q68.3 201.85 73.5 252.35Q76 276.05 80.65 309.2Q83.3 328.25 88.9 366.5Q98.95 437.15 100.75 480.35Q116 435.7 128.65 364.9L138.75 306.4Q144.75 271.7 149.75 248.6L162.65 191.1Q170.55 155.75 175 132.5Q177.2 120.6 181.3 103.3L188.25 74Q194.45 47.05 204.05 30.15Q208.3 22.65 210.9 22.3" />
</g>
</svg>
