<?xml version="1.0" encoding="utf-8"?>
<svg version="1.1" id="Layer_1"
xmlns="http://www.w3.org/2000/svg"
xmlns:xlink="http://www.w3.org/1999/xlink"


xml:space="preserve">
q-8.95 -8.25 -21.05 -10.45q-4.6 -1.15 -8.5 0.75q-1.55 2.75 -1.4 6q0.15 2.4 1.4 4.5q-5.05 30.5 -4.55 62.6q0.95 59.3 -1.35 118.45q-2.3 59.35 -8.55 119.05q-1.15 11.1 1.2 20.2q-0.35 1.2 -0.45 2.5q-0.3 4.9 2 9q3.5 2.15 7.2 3.55q18.4 6.9 34.15 -2.95q26.05 -16.3 34.5 -46.15q3.85 -13.6 5.95 -27.65q5.3 -36.3 -2.7 -71.95q-7.55 -33.5 -34.1 -52.8q12.3 -12.45 16.85 -32.7q12.35 -55.25 -20.4 -101.25q4.45 0.65 7.9 3.45q38.6 31.15 30.75 81.45q-6.1 39.1 -43.6 49.6q0.6 -25.85 0.65 -51.8q0.05 -42.35 -1.05 -83.4q5.45 -2.55 10.5 -5.8q19.95 10 29.75 29.7q9.25 18.7 11.3 39.5q2.15 21.7 -0.75 43.2q-2.9 21.35 -12.95 40.2q-10.75 20.1 -33 23.3q-9.45 1.2 -18.85 -0.7q5.15 0.4 10.05 -1.95q-18.1 20.3 -45.25 22.6q3.45 -52.55 0.6 -104.3q25.3 -7.15 39.3 15.95q20.9 34.6 11.45 73.45q-2.25 9.3 -8.45 16.25q13.8 58 26.55 115.85q3.25 14.75 5.2 29.6q2.15 16.8 10.25 28.05q3.5 -9.35 1.95 -19.45q-0.35 0.5 -0.4 1.05q-2.95 -14.05 -6.25 -28.15q-3.35 -14.5 -6.2 -28.9q-10.85 -54.25 -26.15 -107q26.8 -14.95 30.3 -50.5q2.7 -27.05 -4.15 -52.75q-10.05 -37.55 -45.8 -47.4q-2.5 0.5 -4.7 1.65q-1 0.45 -1.9 1.1q-0.7 3 -0.35 6q0.2 1.6 1.15 2.9q-2.75 22.55 -3.15 46.85q-0.65 41.95 -2.3 83.85q-1.6 4.2 -1.05 8.65q0.1 1.2 0.6 2.15q-2.9 59.9 -10.9 119q-2.25 16.55 3.45 29.95q0.9 -0.6 1 -1.35q7 -44.1 9 -89.15q1.8 -39.95 4.15 -79.7q6.6 0.15 12.9 -1.4q7.65 -1.85 14.1 -4.7q0.1 1.8 0.6 3.8q24.65 -20.4 47.75 1.3q0.2 2.25 1.5 4.15q1.55 2.2 3.7 0.9q-3.6 -33.25 -40.85 -30.5q-21.5 9.55 -32.45 31.9q-19.65 40.15 -22.1 84.8q-1.55 28.85 -4.05 57.7q-5.15 59.3 4.8 117.75q2.85 16.8 15.55 27.95q29.75 26.1 56.05 -5.5q14.55 -19.3 8.3 -38.4q-3.15 1.7 -4.35 5.25q1.6 1 1.05 2.45q-12.95 36 -49.55 40.3q-15.25 -5.15 -21.15 -19.5q-11.3 -27.35 -11.3 -57.95q-0.05 -40.65 1.75 -81.2q30.65 2.15 59.95 -2.05q2.75 -6.7 -1.55 -12q-30.7 -3 -58.2 3.8q2.7 -41.65 21.75 -78.65q5.45 -10.55 14.45 -18.05q-11.25 30.35 -17 63.55q-10.15 58.05 -23.45 115.4q-13.3 57.15 -24.85 114.3q-4.5 -35.95 -9.7 -72q-8.45 -58.5 -19.7 -116.55q-11.3 -58.3 -21.7 -116.1q-1.25 -0.25 -1.3 0.75q-0.75 37.35 6.55 74.6q11.35 57.9 23.5 115.75q9.05 43.1 10.95 87.2q1.3 30.55 9.25 58.4q1.7 -1.3 2.8 -3q2.6 -1.5 3.15 -4.95q8.7 -58.45 22.65 -116.1q5.3 -21.9 9.3 -43.95q10.6 -58.15 24.65 -115.65q5.55 -22.6 4.75 -43.8<g id="836" transform="matrix(1, 0, 0, 1, -50.45, 0)">
<path style="fill:#000000;fill-opacity:1" d="M442.45,113.25Q475.2 159.25 462.85 214.5Q458.3 234.75 446 247.2L446.45 247.25Q473 266.55 480.55 300.05Q488.55 335.7 483.25 372Q481.15 386.05 477.3 399.65Q468.85 429.5 442.8 445.8Q427.05 455.65 408.65 448.75Q404.95 447.35 401.45 445.2Q399.15 441.1 399.45 436.2Q399.55 434.9 399.9 433.7Q397.55 424.6 398.7 413.5Q404.95 353.8 407.25 294.45Q409.55 235.3 408.6 176Q408.1 143.9 413.15 113.4L411.95 113.25Q410.7 111.15 410.55 108.75Q410.4 105.5 411.95 102.75Q415.85 100.85 420.45 102Q432.55 104.2 441.5 112.45L442.45 113.25M414.6,113.6Q415.7 154.65 415.65 197Q415.6 222.95 415 248.8Q452.5 238.3 458.6 199.2Q466.45 148.9 427.85 117.75Q424.4 114.95 419.95 114.3L414.6 113.6M415.5,262.95L407.05 429.8L412.2 432.2Q421.6 434.1 431.05 432.9Q453.3 429.7 464.05 409.6Q474.1 390.75 477 369.4Q479.9 347.9 477.75 326.2Q475.7 305.4 466.45 286.7Q456.65 267 436.7 257L436.05 255.2Q431 258.45 425.55 261Q420.65 263.35 415.5 262.95M355.7,209.15Q365.15 170.3 344.25 135.7Q330.25 112.6 304.95 119.75L304.1 119.65Q306.95 171.4 303.5 223.95L302 248Q329.15 245.7 347.25 225.4Q353.45 218.45 355.7 209.15M328.1,256.65Q321.65 259.5 314 261.35Q307.7 262.9 301.1 262.75Q298.75 302.5 296.95 342.45Q294.95 387.5 287.95 431.6Q287.85 432.35 286.95 432.95Q281.25 419.55 283.5 403Q291.5 343.9 294.4 284L295.5 260.15Q295 259.2 294.9 258Q294.35 253.55 295.95 249.35Q297.6 207.45 298.25 165.5Q298.65 141.2 301.4 118.65Q300.45 117.35 300.25 115.75Q299.9 112.75 300.6 109.75L301.2 107.5Q302.1 106.85 303.1 106.4L303.2 105.5L303.25 106.3Q305.45 105.15 307.95 104.65L313.95 103.25Q349.7 113.1 359.75 150.65Q366.6 176.35 363.9 203.4Q360.4 238.95 333.6 253.9Q348.9 306.65 359.75 360.9Q362.6 375.3 365.95 389.8Q369.25 403.9 372.2 417.95L372.8 414.75Q372.85 414.2 373.2 413.7Q374.75 423.8 371.25 433.15L370.7 433.95Q362.6 422.7 360.45 405.9Q358.5 391.05 355.25 376.3Q342.5 318.45 328.7 260.45Q328.2 258.45 328.1 256.65M203.5,142.5Q184.45 179.5 181.75 221.15L180.25 246.8Q207.75 240 238.45 243Q242.75 248.3 240 255L239.7 255.75Q210.4 259.95 179.75 257.8Q177.95 298.35 178 339Q178 369.6 189.3 396.95Q195.2 411.3 210.45 416.45Q247.05 412.15 260 376.15Q260.55 374.7 258.95 373.7L258.7 373.35L260.25 373.4L261.2 373.45L261.9 371.95L263.6 367.45Q264.8 363.9 267.95 362.2Q274.2 381.3 259.65 400.6L248.75 414.35Q222.45 445.95 192.7 419.85Q180 408.7 177.15 391.9Q167.2 333.45 172.35 274.15Q174.85 245.3 176.4 216.45Q178.85 171.8 198.5 131.65Q209.45 109.3 230.95 99.75Q268.2 97 271.8 130.25L271.7 131L271.1 131.55Q268.95 132.85 267.4 130.65Q266.1 128.75 265.9 126.5L265.7 125.75Q242.6 104.05 217.95 124.45Q208.95 131.95 203.5 142.5M164.7,146.8Q150.65 204.3 140.05 262.45Q136.05 284.5 130.75 306.4Q116.8 364.05 108.1 422.5Q107.55 425.95 104.95 427.45L104.25 425.45Q103.15 427.15 101.45 428.45Q93.5 400.6 92.2 370.05Q90.3 325.95 81.25 282.85Q69.1 225 57.75 167.1Q50.45 129.85 51.2 92.5Q51.25 91.5 52.5 91.75Q62.9 149.55 74.2 207.85Q85.45 265.9 93.9 324.4Q99.1 360.45 103.6 396.4Q115.15 339.25 128.45 282.1Q141.75 224.75 151.9 166.7Q157.65 133.5 168.9 103.15L169.45 103Q170.25 124.2 164.7 146.8" />
</g>
</svg>
