<?xml version="1.0" encoding="utf-8"?>
<svg version="1.1" id="Layer_1"
xmlns="http://www.w3.org/2000/svg"
xmlns:xlink="http://www.w3.org/1999/xlink"


xml:space="preserve">
q-1 2.05 -1.85 4.25q-2.6 7.8 -3.7 17.1q-7 58.15 -20 115.65q-2.45 10.95 -7.35 21.05q-8 16.35 -1.6 29.15q4.8 -7.95 7.25 -17.3q15.1 -56.95 25.15 -115.25q2.05 -11.75 3.05 -23.45q6.8 47.65 16.55 94q1.85 -3.45 2.75 -7.35q6.65 -20 12.1 -40.45q2.2 -8.1 3.45 -16.05q8.4 52.9 15.9 105.9q2.05 14.6 2.35 29.1q0.3 17 7.4 28.25q0.65 -0.75 0.65 -1.5q1.4 -34.65 -3.85 -69.1q-8.75 -57.85 -20.85 -114.1q-10 21.6 -14.95 47.3q-4.8 24.65 -13.55 48.25q-0.95 2.5 -1.55 4.9q-6.8 -35.05 -11.35 -70.65q-1.9 -15.05 -6.4 -26.8q-18.25 55.3 -30.1 113.1q-4.15 20.25 -11.35 39.6q-1.2 -20.1 -6.5 -40.45q-14.9 -57.5 -33.45 -113.65q-1.7 -0.25 -1.45 1.35q9.1 51.3 23.75 102.25q8.15 28.35 9.55 57.7q0.75 15.9 7.15 27.65q2.15 -1.85 2.95 -5.05q14.65 -57.2 27.9 -114.75q3.35 -14.6 7.9 -28.75q6.05 -18.7 3.9 -36.55q-0.5 0 -0.55 0.15q-31.05 23.95 -24.5 64.75q2.3 14.5 8 28q29.8 3.75 40 -24.35q1.95 -5.3 -3 -9.15q-13.85 21.3 -37.25 17q-8.25 -13 -7.1 -28.35q2.45 -3.9 1.65 -8.6q-0.45 -2.75 -2.4 -4.9q-14.3 -0.3 -27.75 5.05q16 -4.75 29.9 0.5q-1.15 -19.15 -21.15 -17<g id="838" transform="matrix(1, 0, 0, 1, -141.8, 0)">
<path style="fill:#000000;fill-opacity:1" d="M337.65,184.75Q342.15 196.5 344.05 211.55Q348.6 247.15 355.4 282.2Q356 279.8 356.95 277.3Q365.7 253.7 370.5 229.05Q375.45 203.35 385.45 181.75L385.65 187.5Q397.75 243.75 406.5 301.6Q411.75 336.05 410.35 370.7Q410.35 371.45 409.7 372.2Q402.6 360.95 402.3 343.95Q402 329.45 399.95 314.85Q392.45 261.85 384.05 208.95Q382.8 216.9 380.6 225L369.8 265Q364.35 285.45 357.7 305.45L356.2 302.6Q355.3 306.5 353.45 309.95Q343.7 263.6 336.9 215.95Q335.9 227.65 333.85 239.4Q323.8 297.7 308.7 354.65Q306.25 364 301.45 371.95Q295.05 359.15 303.05 342.8Q307.95 332.7 310.4 321.75Q323.4 264.25 330.4 206.1Q331.5 196.8 334.1 189L335.6 185Q336.45 182.8 337.45 180.75L337.65 184.75M225.45,181.5Q227.6 199.35 221.55 218.05Q217 232.2 213.65 246.8Q200.4 304.35 185.75 361.55Q184.95 364.75 182.8 366.6L182.5 369.2Q176.1 357.45 175.35 341.55Q173.95 312.2 165.8 283.85Q151.15 232.9 142.05 181.6Q141.8 180 143.5 180.25Q162.05 236.4 176.95 293.9Q182.25 314.25 183.45 334.35Q190.65 315 194.8 294.75Q206.65 236.95 224.9 181.65Q224.95 181.5 225.45 181.5M278.1,287.7Q264.2 282.45 248.2 287.2L237.7 309Q251.15 303.65 265.45 303.95Q267.4 306.1 267.85 308.85Q268.65 313.55 266.2 317.45L235.1 322.6Q233.95 337.95 242.2 350.95Q265.6 355.25 279.45 333.95Q284.4 337.8 282.45 343.1Q272.25 371.2 242.45 367.45L237.45 363.7Q231.75 350.2 229.45 335.7Q222.9 294.9 253.95 270.95L256.95 270.7Q276.95 268.55 278.1 287.7" />
</g>
</svg>
