<?xml version="1.0" encoding="utf-8"?>
<svg version="1.1" id="Layer_1"
xmlns="http://www.w3.org/2000/svg"
xmlns:xlink="http://www.w3.org/1999/xlink"


xml:space="preserve">
q-2.4 9 -2.5 18.4q-0.45 52.55 -5 105.45q-0.95 11.15 -0.8 22.45q-0.05 8.8 2.55 14.4q2.75 -12.05 3.9 -24.9q4.2 -47.85 4.95 -95.85q0.3 -20.5 0.05 -41.05q1.1 -1 1.4 -2.3q0.1 -1.7 -0.2 -3.4q-0.35 -1.9 -1.3 -3.3q6.1 -15.15 0.65 -30.35q-7.8 14.65 -0.85 30.55q-0.85 24.2 0.9 48.65q1.2 16.5 -11.45 22.1q-7.3 -4.25 -12.75 -8.75q-6.7 11.6 4.9 19.4q14.55 9.8 19.35 -6.55q5.1 -17.55 5.55 -36.35q0.55 -27.45 -0.8 -53.25q-5.35 5.55 -5.7 14.75q-8.8 30.65 -15.3 61.9q-4.55 21.8 -9.8 43.3q-2.3 8.95 -5.2 17.8q-3.05 9.25 -6.7 18.45q-4.55 11.45 -1.3 22q9.1 -18.3 15.3 -38.05q4.45 -14.3 7.95 -29q10.2 36.35 15.65 73.65q0.6 3.95 3.5 6.8q0.95 0.9 2.3 1.2q-1.85 -34.95 -11 -68.8q-1.15 12.3 2.75 24.5q18.1 56.35 29.15 114.9q2.75 14.65 3.75 29.4q0.9 13.55 9 19.4q6 -16.65 9.65 -34.35q11.85 -57.95 28.2 -114.3q6.35 -21.9 4.6 -43.3q-17.25 51.85 -29.05 106.7q-6.25 29 -15.25 57.2q-3.05 -25.55 -8.55 -51.15q-12.35 -57.7 -32.4 -112.9q-1.5 -0.1 -1.65 1.5q7.1 32 14.95 63.95q-9.95 -2.05 -20.35 -1.95q-4.8 -0.1 -9.4 1.6q4.45 -19.5 9.55 -38.8q3.3 -12.45 5.25 -24.8<g id="865" transform="matrix(1, 0, 0, 1, -139.45, 0)">
<path style="fill:#000000;fill-opacity:1" d="M324.45,192.5L325.4 183L418.85 184.95L419.15 185.3Q420.1 186.7 420.45 188.6Q420.75 190.3 420.65 192L420.55 193.15L420.3 194.25L420.1 194.95Q419.8 196.25 418.7 197.25L371.35 197.5L371.45 211.1Q371.7 231.65 371.4 252.15Q370.65 300.15 366.45 348Q365.3 360.85 362.55 372.9Q359.95 367.3 360 358.5L359.9 343.75Q359.75 332.45 360.7 321.3Q365.25 268.4 365.7 215.85Q365.8 206.45 368.2 197.45L327.6 194.65L324.45 192.5M419.6,257.55Q412.65 241.65 420.45 227Q425.9 242.2 419.8 257.35L419.6 257.55M418.45,272.7Q419.8 298.5 419.25 325.95Q418.8 344.75 413.7 362.3Q408.9 378.65 394.35 368.85Q382.75 361.05 389.45 349.45Q394.9 353.95 402.2 358.2Q414.85 352.6 413.65 336.1Q411.9 311.65 412.75 287.45Q413.1 278.25 418.45 272.7M274.95,189.85L294.8 280.25L296.85 280.95L298.05 292.05L301.6 305.15Q310.75 339 312.6 373.95L312.25 374.25Q310.9 373.95 309.95 373.05Q307.05 370.2 306.45 366.25Q301 328.95 290.8 292.6L255.05 289.2L251.25 306Q247.75 320.7 243.3 335Q237.1 354.75 228 373.05Q224.75 362.5 229.3 351.05Q232.95 341.85 236 332.6Q238.9 323.75 241.2 314.8L248.35 286.2Q253.6 264.7 258.15 242.9Q264.65 211.65 273.45 181L273.95 184.1L275.2 181.25L274.95 189.85M142.25,179Q162.3 234.2 174.65 291.9Q180.15 317.5 183.2 343.05L183.9 340.65Q192.9 312.45 199.15 283.45Q210.95 228.6 228.2 176.75Q229.95 198.15 223.6 220.05Q207.25 276.4 195.4 334.35Q191.75 352.05 185.75 368.7L185.45 368.2L185.25 368.7Q177.15 362.85 176.25 349.3Q175.25 334.55 172.5 319.9Q161.45 261.35 143.35 205Q139.45 192.8 140.6 180.5Q140.75 178.9 142.25 179M267.1,239.25Q262 258.55 257.55 278.05Q262.15 276.35 266.95 276.45Q277.35 276.35 287.3 278.4Q279.45 246.45 272.35 214.45Q270.4 226.8 267.1 239.25" />
</g>
</svg>
