<?xml version="1.0" encoding="utf-8"?>
<svg version="1.1" id="Layer_1"
xmlns="http://www.w3.org/2000/svg"
xmlns:xlink="http://www.w3.org/1999/xlink"


xml:space="preserve">
q-14.65 22.2 -9.25 50.9q0.85 4.55 3.75 8q30.05 35.7 38.75 80.65q2.7 13.75 -8.3 22q-18.25 13.65 -37.9 4q-3.7 -1.85 -5.2 -5.5q-9.45 -23.3 -14.6 -46.4q-2.95 9.45 -1.75 19.55q1.15 9.9 2.6 19.7q5.3 35.3 39.7 32.55q16.65 -1.35 24.3 -15.8q13.05 -24.6 4.9 -52.7q-7.5 -25.7 -25.85 -45q-19.75 -20.75 -14.25 -48.95q5.1 -26.1 32.6 -13.3q5.15 4.9 7.05 11.6q6.4 -34.7 -29.05 -40.65q-1.6 1.15 -4.3 1.9q-4.8 1.4 -7.45 5.4q4.15 -15.8 -0.65 -34.15q-4.85 -18.65 -8.8 -37.75q-3.8 -18.3 -8 -35.35q-5.2 -21 -9.6 -42.2q-4.4 -21.15 -8.25 -42.35q-0.25 -1.45 -0.2 -2.9q-15.35 70.3 -30.4 140.75q-2.6 12.15 -4.4 24.25q-2.05 13.45 -1.15 27q16.7 -31.5 19.25 -69.2q0.6 -8.75 2.3 -17.45q5.7 46.8 21.8 90.25q0.55 1.55 1.4 3q-14.6 57 -26.75 114.75q-3.1 14.8 -7.5 28.85q-6.4 20.3 -6.5 39.9q-3.85 -40.2 -15.45 -80.05q-16.45 -56.75 -37.75 -111.5q-2.55 0.05 -1.9 2.8q9.45 40.1 22.2 79.9q8.95 28 15.35 57.15q6.4 29.15 15.85 55.6q1.35 -0.4 1.7 -1.5q1.2 0 1.5 -0.5q8.15 -16 11.65 -33.95q11.25 -57.95 25.95 -115.25q5.75 -22.4 5.35 -43.75q-2.7 1.8 -3.75 5.8<g id="864" transform="matrix(1, 0, 0, 1, -141.95, 0)">
<path style="fill:#000000;fill-opacity:1" d="M381.65,181.9Q384.35 181.15 385.95 180Q421.4 185.95 415 220.65L414.45 221L410.75 208.6Q408.85 201.9 403.7 197Q376.2 184.2 371.1 210.3Q365.6 238.5 385.35 259.25Q403.7 278.55 411.2 304.25Q419.35 332.35 406.3 356.95Q398.65 371.4 382 372.75Q347.6 375.5 342.3 340.2Q340.85 330.4 339.7 320.5Q338.5 310.4 341.45 300.95Q346.6 324.05 356.05 347.35Q357.55 351 361.25 352.85Q380.9 362.5 399.15 348.85Q410.15 340.6 407.45 326.85Q398.75 281.9 368.7 246.2Q365.8 242.75 364.95 238.2Q359.55 209.5 374.2 187.3Q376.85 183.3 381.65 181.9M324.3,373.2Q308.2 329.75 302.5 282.95L274 285.3Q272.3 294 271.7 302.75Q269.15 340.45 252.45 371.95Q251.55 358.4 253.6 344.95Q255.4 332.85 258 320.7Q273.05 250.25 288.4 179.95L290.2 181.5Q290.15 182.95 290.4 184.4Q294.25 205.6 298.65 226.75Q303.05 247.95 308.25 268.95Q312.45 286 316.25 304.3Q320.2 323.4 325.05 342.05Q329.85 360.4 325.7 376.2Q324.85 374.75 324.3 373.2M242.2,180Q242.6 201.35 236.85 223.75Q222.15 281.05 210.9 339Q207.4 356.95 199.25 372.95Q198.95 373.45 197.75 373.45L197.7 371.7Q197.35 372.8 196 373.2Q186.55 346.75 180.15 317.6Q173.75 288.45 164.8 260.45Q152.05 220.65 142.6 180.55Q141.95 177.8 144.5 177.75Q165.8 232.5 182.25 289.25Q193.85 329.1 197.7 369.3Q197.8 349.7 204.2 329.4Q208.6 315.35 211.7 300.55Q223.85 242.8 238.45 185.8Q239.5 181.8 242.2 180M288.3,206.9L276.3 273.55L299.8 269.65L288.3 206.9" />
</g>
</svg>
