<?xml version="1.0" encoding="utf-8"?>
<svg version="1.1" id="Layer_1"
xmlns="http://www.w3.org/2000/svg"
xmlns:xlink="http://www.w3.org/1999/xlink"


xml:space="preserve">
q-9.5 81.35 -3.4 163.3q10.75 -57.75 6.15 -121.6q-2 -28.05 -2.3 -56.25q3.7 -4.2 1.45 -9.75q2.35 -9.65 -8.25 -16.85q-44.85 22.4 -20.75 73.95q30.7 6.25 31.5 -24.95q-11 15.55 -29.75 12.5q-6 -8.5 -4.8 -19q-11.4 -3.4 -22.9 3.85q4.65 -12.6 16.15 -20.1q6.65 -0.05 10.65 5.15q-2.15 4.4 -2.55 9.6q-4.6 9.7 -7.05 21.4q-12.15 57.9 -31.8 113.25q-3.1 8.8 -8.25 16.55q-10.95 16.5 -3.6 29.4q19.1 -34.75 30.05 -74.15q15.35 3.7 31.4 2.45q3.75 30.3 12.95 57.35q2.8 -1.5 2.35 -4.95q-4.4 -36.45 -9.65 -73q-8.05 -55.75 -20.15 -109.6q-1.45 24.4 6.7 48.95q18.45 55.8 24.15 114.4q1.55 15.8 8 27.6q2.05 -2.15 1.9 -5.2q11.45 -40.4 19.85 -82.4q5.9 -29.4 15.85 -57.35q7.8 -21.9 7.3 -43.15q-18.95 47.7 -29.55 99.25q-5.95 28.9 -15.3 57.25q-2.6 -22.1 -7.1 -44.15q-11.8 -58 -30.25 -113.9q-0.85 -0.15 -0.85 0.25q9 -35.65 15.55 -71.25q6.25 34.4 11.35 69.2q-13.8 0.05 -26.9 2.05<g id="861" transform="matrix(1, 0, 0, 1, -139.2, 0)">
<path style="fill:#000000;fill-opacity:1" d="M324.7,187.5L325.45 184.5L420.85 181.95L421.1 182.3L422.15 184.5Q424.4 190.05 420.7 194.25L373.3 198.1Q373.6 226.3 375.6 254.35Q380.2 318.2 369.45 375.95L368.4 361.4Q362.3 279.45 371.8 198.1L325.9 193.6L324.7 187.5M337.6,224.15Q333.6 218.95 326.95 219Q315.45 226.5 310.8 239.1Q322.3 231.85 333.7 235.25L333.95 244.25L308.65 250.25Q307.45 260.75 313.45 269.25Q332.2 272.3 343.2 256.75Q342.4 287.95 311.7 281.7Q287.6 230.15 332.45 207.75Q343.05 214.95 340.7 224.6L338.15 224.6L337.6 224.15M273.5,186.65Q285.6 240.5 293.65 296.25Q298.9 332.8 303.3 369.25Q303.75 372.7 300.95 374.2Q291.75 347.15 288 316.85L284 286.15Q267.95 287.4 252.6 283.7L249 297.05Q238.05 336.45 218.95 371.2Q211.6 358.3 222.55 341.8Q227.7 334.05 230.8 325.25Q250.45 269.9 262.6 212Q265.05 200.3 269.65 190.6Q270.05 185.4 272.2 181L272.95 184.3L274.2 182.25L273.5 186.65M141.5,181.25Q159.95 237.15 171.75 295.15Q176.25 317.2 178.85 339.3L179.35 337.75Q188.7 309.4 194.65 280.5Q205.25 228.95 224.2 181.25Q224.7 202.5 216.9 224.4Q206.95 252.35 201.05 281.75Q192.65 323.75 181.2 364.15L181.4 367.25Q181.55 370.3 179.5 372.45Q173.05 360.65 171.5 344.85Q165.8 286.25 147.35 230.45Q139.2 205.9 140.65 181.5Q140.65 181.1 141.5 181.25M282,272.15Q276.9 237.35 270.65 202.95Q264.1 238.55 255.1 274.2Q268.2 272.2 282 272.15" />
</g>
</svg>
