<?xml version="1.0" encoding="utf-8"?>
<svg version="1.1" id="Layer_1"
xmlns="http://www.w3.org/2000/svg"
xmlns:xlink="http://www.w3.org/1999/xlink"


xml:space="preserve">
q-0.45 1.45 -0.3 3q-4.35 30.1 -4.85 62.45q-0.85 59.55 -4.1 118.45q0.65 1.65 2.25 2q7.2 -35.65 7.85 -74.75q8.6 -0.75 16.95 -4.55q0.2 4.3 1.45 8.6q8.95 30.45 16.55 61.55q3.8 15.5 11.75 25.55q4 -11.35 -0.95 -16.4q-0.55 -0.7 -0.85 -1.7q-11.85 -39.5 -23.15 -78.8q16.5 -10 22.8 -28.8q3.95 -11.8 3.45 -24.4q-1.5 -40.05 -40.2 -43.15q-3.7 0.95 -7.45 2.4q-0.4 0.15 -0.75 0.35q36.9 -4.3 38.8 32.2q0.15 3.45 -0.4 6.45q-6.25 34 -42.05 39.75q0.45 -39.9 0.2 -79q1.75 0.75 3.45 0.6q7.8 -29.15 16.15 -58.2q1.65 -5.6 2.55 -11.05q-0.6 17.85 4.5 36.95q4.45 16.65 8.4 33.5q-15.25 -2.05 -30.75 -1.1q-23.1 47.3 -31.65 101.15q-3.15 20.05 -11.45 38.25q-11.95 26.1 -10.65 54.05q22.15 -45.6 31.1 -96q4.9 48.55 22.9 92.4q0.6 1.45 1.65 2.75q2.15 -19.25 -3.7 -38.45q-5.8 -18.9 -10.3 -38.15q1.1 -2.2 1.85 -4.55q5.7 -15 4.9 -29.15q-22.25 45.5 -31.65 97.45q-2.65 14.65 -6.75 28.85q-4.45 15.4 -6.45 30.7q-0.9 -3.95 -2.25 -8q-6.7 -19.95 -11.9 -40.45q-14.55 -57.1 -34.95 -112.05q-2.55 16.15 4.3 34.9q8.7 23.8 15.45 48.05q15.55 56.05 29 111q1.4 -5.15 1.95 -10.5q3.9 -5.75 5.45 -14.8q10 -58.3 25.9 -114.7q3.05 -10.9 7 -21.3<g id="867" transform="matrix(1, 0, 0, 1, -139.7, 0)">
<path style="fill:#000000;fill-opacity:1" d="M356.95,184.75L357.4 184.3L358.2 179.25L358.25 183.65Q358.6 183.45 359 183.3Q362.75 181.85 366.45 180.9L366.95 180.75Q405.65 183.85 407.15 223.9Q407.65 236.5 403.7 248.3Q397.4 267.1 380.9 277.1L380.7 277.45Q392 316.75 403.85 356.25Q404.15 357.25 404.7 357.95Q409.65 363 405.65 374.35L404.7 375.95Q396.75 365.9 392.95 350.4Q385.35 319.3 376.4 288.85Q375.15 284.55 374.95 280.25Q366.6 284.05 358 284.8L357.8 297.7Q357.15 336.8 349.95 372.45Q348.35 372.1 347.7 370.45Q350.95 311.55 351.8 252Q352.3 219.65 356.65 189.55L356.45 188.5Q356.3 186.95 356.75 185.5L356.95 184.75M358.35,192.7Q358.6 231.8 358.15 271.7Q393.95 265.95 400.2 231.95Q400.75 228.95 400.6 225.5Q398.7 189 361.8 193.3Q360.1 193.45 358.35 192.7M267.2,267Q282.7 266.05 297.95 268.1Q294 251.25 289.55 234.6Q284.45 215.5 285.05 197.65Q284.15 203.1 282.5 208.7Q274.15 237.75 266.35 266.9L267.2 267M307.15,270.75L308.25 272.3L309.05 274.55L309 275.9Q308.25 278.25 307.15 280.45L311.45 299.35Q315.95 318.6 321.75 337.5Q327.6 356.7 325.45 375.95Q324.4 374.65 323.8 373.2Q305.8 329.35 300.9 280.8L263.55 277.45Q254.6 327.85 232.45 373.45Q231.15 345.5 243.1 319.4Q251.4 301.2 254.55 281.15Q263.1 227.3 286.2 180L305.4 269.25L305.8 269.5L306.2 269.75L307.15 270.75M224.3,230.95Q208.4 287.35 198.4 345.65Q196.85 354.7 192.95 360.45Q192.4 365.8 191 370.95Q177.55 316 162 259.95Q155.25 235.7 146.55 211.9Q139.7 193.15 142.25 177Q162.65 231.95 177.2 289.05Q182.4 309.55 189.1 329.5Q190.45 333.55 191.35 337.5Q193.35 322.2 197.8 306.8Q201.9 292.6 204.55 277.95Q213.95 226 236.2 180.5Q237 194.65 231.3 209.65Q227.35 220.05 224.3 230.95" />
</g>
</svg>
