<?xml version="1.0" encoding="utf-8"?>
<svg version="1.1" id="Layer_1"
xmlns="http://www.w3.org/2000/svg"
xmlns:xlink="http://www.w3.org/1999/xlink"


xml:space="preserve">
q15 59.4 -2.25 117.8q-16.15 54.75 -73 58.6q1.1 -9 1.2 -18.4q0.7 -59.4 1.7 -119.25q0.9 -55.4 -1.6 -109.75q19.85 3.45 37.8 13.5q4.25 3.55 8.1 7.4q21.3 21.4 28.65 50.65q-0.65 1.8 -0.75 3.75q-0.05 1.9 0.2 3.75q0.2 1.4 1.35 2.15q-4 48.4 -3.85 98.1q0.15 59.85 -2.25 119.25q-0.45 11.25 -2.1 22.25q-2.55 16.95 4.4 29.45q0.7 1 1.75 1.75q15.85 0.25 30.95 -5.4q9.15 -3.4 15.8 -10.1q31.3 -31.55 38.95 -76.75q10.15 -59.45 -5.7 -117.4q-15.65 -57.5 -74.5 -67.3q6.3 -0.05 12.1 2.5q5.85 2.75 10.9 7q3.05 -5.65 -0.1 -11.4q-7.25 -13.35 -22.65 -12.1q-25.65 22.15 -29.3 58.75q-10.1 101.25 6 199.9q1.85 11.3 13.25 9.05q15.2 -3 26 -14.15q2.9 -3 5.05 -6.75q1.6 -2.7 2.6 -5.85q0.05 -5.8 -2.8 -9.25q-2.9 11.15 -12.85 21.7q-13.3 14.05 -31.9 8.35q0.8 -0.5 1.2 -1.4q0.45 -2.9 -0.75 -5.6q-8.8 -2 -18 0.05q-6.85 1.65 -13.55 3.9q-0.05 -22 12.45 -40.1q4.05 -5.9 9.15 -10.9q-0.55 13.05 -2.1 26q-13.5 -53.05 -24.25 -106.25q-4.2 11.05 -0.9 24.7q13.8 57.05 23.65 114.8q0.3 1.7 2 2q1.65 -3.8 2.45 -7.85q3.15 -7.3 3.45 -15.7q2.1 -60 1.05 -118.55q-1.65 0.1 -1.8 1.75q-3.35 37.95 -4.85 76.5q3.8 -55.1 0.5 -110.2q-9.55 61.2 -5.75 125.2q5.55 -5.9 1.95 -12.95q-3 26.8 -2.35 54.7q1.3 60 -1.6 119.3q-1.85 37.35 -6.6 74q-1.85 14.35 5.8 21.65q4.1 -15.85 4.55 -32.95q1.5 -59.3 4 -118.55q2.55 -60.15 -3.05 -118.45q-0.75 0.1 -0.75 0.3q-14.7 52.8 -27.8 106.8q-13.9 57.35 -28.85 114.55q-1.3 4.95 -2.05 9.75q-6.9 -28.55 -14.45 -57.05q-15.15 -57.15 -32.25 -113.5q-2.45 0.05 -2.1 2.45q3.75 26.3 12.25 52.55q18.55 56.95 30.7 115.1q9 43 16.2 86.15q2.15 12.85 9.15 19.7q3.55 -9.7 2.35 -20.25q8.15 -38.65 17.65 -78.2q13.7 -57.55 28.35 -114.6q7.55 -29.3 9.15 -57.65q-0.6 -0.2 -0.75 0.3q-5.65 3.2 -9.45 8.25q-22 29.05 -27.1 66.5q-2.1 15.5 -3.3 31.3q-4.65 60.4 10 118q3.55 13.95 12.9 24.35q23.95 26.65 54.55 3.95q24.95 -18.5 16.8 -46.9q-1.1 0.5 -1.25 1.15q-3.3 19 -18.45 30.75q-15.8 12.25 -34.9 5.9q-18.25 -6.05 -23.55 -24.95q-10 -35.55 -11.1 -73.1q3.2 -3.95 2.35 -9.05q-0.4 -2.35 -1.75 -4.35q-17.65 -2.85 -36.1 -1.3q1.8 -40.05 13.45 -78.1q4.45 -14.65 16.5 -23.35q32.5 -23.3 53.3 7.45q0.15 -31.65 -34 -32q-7.65 2.2 -14.9 6.3q-1.2 59.3 -1.65 118.5q0.6 2.6 3 2q3.65 -9.2 3.65 -19.5q-4.9 7.1 -5.1 17.5<g id="862" transform="matrix(1, 0, 0, 1, -53.05, 0)">
<path style="fill:#000000;fill-opacity:1" d="M493.8,126.4Q489.95 122.55 485.7 119Q467.75 108.95 447.9 105.5Q450.4 159.85 449.5 215.25Q448.5 275.1 447.8 334.5Q447.7 343.9 446.6 352.9L447.2 353.45Q504.05 349.6 520.2 294.85Q537.45 236.45 522.45 177.05Q515.1 147.8 493.8 126.4M447.95,94.35L450.95 94Q509.8 103.8 525.45 161.3Q541.3 219.25 531.15 278.7Q523.5 323.9 492.2 355.45Q485.55 362.15 476.4 365.55Q461.3 371.2 445.45 370.95Q444.4 370.2 443.7 369.2L442.45 374.2Q435.5 361.7 438.05 344.75Q439.7 333.75 440.15 322.5Q442.55 263.1 442.4 203.25Q442.25 153.55 446.25 105.15Q445.1 104.4 444.9 103Q444.65 101.15 444.7 99.25Q444.8 97.3 445.45 95.5L446.5 94.85L447.95 94.35M394.55,121.15Q382.05 139.25 382.1 161.25L381.15 221.45Q387.85 219.2 394.7 217.55Q403.9 215.5 412.7 217.5L413.95 220.2Q415.15 222.9 414.7 225.8L413.65 229.35Q413.25 230.25 412.45 230.75L380.9 231.75L381.7 344.95Q400.3 350.65 413.6 336.6Q423.55 326.05 426.45 314.9Q429.3 318.35 429.25 324.15L428.9 330.95L428.7 332.55L428.35 334.15L427.55 337.2Q426.55 340.35 424.95 343.05Q422.8 346.8 419.9 349.8Q409.1 360.95 393.9 363.95Q382.5 366.2 380.65 354.9Q364.55 256.25 374.65 155Q378.3 118.4 403.95 96.25Q419.35 95 426.6 108.35Q429.75 114.1 426.7 119.75Q421.65 115.5 415.8 112.75Q410 110.2 403.7 110.25Q398.6 115.25 394.55 121.15M356.4,99Q356.55 97.35 358.2 97.25Q359.25 155.8 357.15 215.8Q356.85 224.2 353.7 231.5L352.4 228.9Q351.6 232.95 349.95 236.75Q348.25 236.45 347.95 234.75Q338.1 177 324.3 119.95Q321 106.3 325.2 95.25Q335.95 148.45 349.45 201.5Q351 188.55 351.55 175.5Q353.05 136.95 356.4 99M354.7,367.7L315.45 365.2Q311.65 301.2 321.2 240Q324.5 295.1 320.7 350.2L355.45 352.7L356.65 354.75Q360.25 361.8 354.7 367.7M302.45,95Q308.05 153.3 305.5 213.45Q303 272.7 301.5 332Q301.05 349.1 296.95 364.95Q289.3 357.65 291.15 343.3Q295.9 306.65 297.75 269.3Q300.65 210 299.35 150Q298.7 122.1 301.7 95.3Q301.7 95.1 302.45 95M179.2,92Q177.6 120.35 170.05 149.65Q155.4 206.7 141.7 264.25Q132.2 303.8 124.05 342.45Q125.25 353 121.7 362.7Q114.7 355.85 112.55 343Q105.35 299.85 96.35 256.85Q84.2 198.7 65.65 141.75Q57.15 115.5 53.4 89.2Q53.05 86.8 55.5 86.75L56.45 87.5L57.25 88.25Q74.35 144.6 89.5 201.75Q97.05 230.25 103.95 258.8L119.75 323.4Q120.5 318.6 121.8 313.65Q136.75 256.45 150.65 199.1Q163.75 145.1 178.45 92.3Q178.6 91.8 179.2 92M232.95,90Q267.1 90.35 266.95 122L266.7 122.75Q245.9 92 213.4 115.3Q201.35 124 196.9 138.65Q185.25 176.7 183.45 216.75L198.95 216Q217.4 214.45 235.05 217.3L240.45 217.75L241.3 218.6Q242.65 220.6 243.05 222.95Q243.9 228.05 240.7 232L183.1 229.3L183.2 241.5Q184.3 279.05 194.3 314.6Q199.6 333.5 217.85 339.55Q236.95 345.9 252.75 333.65Q267.9 321.9 271.2 302.9Q271.35 302.25 272.45 301.75Q280.6 330.15 255.65 348.65Q225.05 371.35 201.1 344.7Q191.75 334.3 188.2 320.35Q173.55 262.75 178.2 202.35Q179.4 186.55 181.5 171.05Q186.6 133.6 208.6 104.55Q212.4 99.5 218.05 96.3Q225.3 92.2 232.95 90M322.45,94.75L322.35 213.25Q322.35 223.55 318.7 232.75Q316.3 233.35 315.7 230.75Q316.15 171.55 317.35 112.25Q317.55 101.85 322.45 94.75" />
</g>
</svg>
