<?xml version="1.0" encoding="utf-8"?>
<svg version="1.1" id="Layer_1"
xmlns="http://www.w3.org/2000/svg"
xmlns:xlink="http://www.w3.org/1999/xlink"


xml:space="preserve">
q-11.85 17.25 -12 39.05q-0.1 21.45 5.9 42.1q6.1 21.15 18.55 39.1q10.6 15.35 22.75 29.85q12.55 14.9 19.15 33.2q7.1 19.75 8.4 40.7q1.45 23.9 -17.8 36.55q-18.55 12.3 -40.5 14.55q-8.95 0.85 -17.95 0.35q21 5.6 42.5 -1.3q11.15 -3.55 19.1 -11.95q10.85 -11.35 15.85 -26.3q3.45 -10.4 4.1 -21.15q0.7 -12.3 -1.45 -24.2q-2.6 -14.15 -10.05 -26.3q-20.3 -33.15 -41.35 -66q-19.2 -29.9 -21.3 -64.65q-1.1 -17.85 7.75 -33.6q17.75 -10.5 37.25 -4.8q4.25 1.2 8.25 3.3q2.75 -9.45 -6.75 -13.7q-13.85 -6.05 -28.1 -1.65q-6.55 2 -12.4 5.6q-26.2 5.4 -53.9 6q1.75 -11.15 2.25 -22.65q2.6 -59.4 3.4 -119.3q0.75 -60.05 0.5 -118.5q-3.1 0.85 -3.3 4.5q-3.25 59.1 -3.6 118.5q-0.35 60 -4.95 119.25q-0.6 7.45 -2.1 14.65q-2.6 12.5 4.95 17.55q31.85 4.05 61.75 -3.5q1 -1.75 1.4 -3.75q1.1 -5.15 -1.4 -9.75q-12.75 18.05 -19.7 39.05q-6.55 19.75 -9.2 40.4q-2.55 20.1 -3.5 40.45q-0.9 18.4 0.5 36.75q1.4 18.35 3.65 36.45q2.9 22.9 20.85 35.9q19.1 13.85 40.45 3.3q21.15 -10.4 21.3 -33.95q0 -3.25 -0.4 -6.55q-11.7 23.05 -37.4 28.9q-13.3 2.95 -23.4 -6.9q-10.5 -10.35 -15.35 -24.25q-3.2 -9.05 -3.35 -18.6q-0.45 -24.75 0.75 -49.4q2.45 -4 1.6 -8.5q-0.75 -3.8 -3.85 -6q-26.25 -1.75 -52.05 2.65q-3 -61.3 39.65 -103.8q7.2 -7.1 17.9 -8.35q8.5 3.2 14.7 9.95q0.65 -10.1 -7.45 -17.8q-3.8 -3.65 -8.4 -5.6q-23.15 -4.45 -37.35 15.7q-12.15 41.8 -22.75 85.35q-14 57.7 -29.05 115.05q-3.15 11.9 -4.6 23.75q-2.1 -14.8 -5.85 -29.65q-10.7 -42.8 -17.85 -86.35q-9.6 -58.7 -30.2 -114.5q-2.7 0 -1.95 2.85q10.25 39.1 18 79q11.15 57.8 24.3 115.25q6.55 28.6 7.95 57.95q0.65 13.75 8.4 20.15q0.15 -8.35 -0.2 -16.7q9.85 -53.85 23.65 -107.55q14.8 -57.55 28.7 -115.15q3.7 -15.45 1.85 -29.55q-2.15 51.45 -2.6 103.55q-0.55 59.4 -6.35 118.35q-1 10.5 5.55 13.6q4.35 -22 5.45 -44.95q2.95 -59.3 2.55 -119.25q-0.15 -22.45 1.2 -44.9q1.9 -30.3 1.05 -59.35q-6.1 14.55 -6.85 32.95<g id="863" transform="matrix(1, 0, 0, 1, -64.8, 0)">
<path style="fill:#000000;fill-opacity:1" d="M394.1,119.15Q408.35 114.75 422.2 120.8Q431.7 125.05 428.95 134.5Q424.95 132.4 420.7 131.2Q401.2 125.5 383.45 136Q374.6 151.75 375.7 169.6Q377.8 204.35 397 234.25Q418.05 267.1 438.35 300.25Q445.8 312.4 448.4 326.55Q450.55 338.45 449.85 350.75Q449.2 361.5 445.75 371.9Q440.75 386.85 429.9 398.2Q421.95 406.6 410.8 410.15Q389.3 417.05 368.3 411.45L368.2 400.2Q377.2 400.7 386.15 399.85Q408.1 397.6 426.65 385.3Q445.9 372.65 444.45 348.75Q443.15 327.8 436.05 308.05Q429.45 289.75 416.9 274.85Q404.75 260.35 394.15 245Q381.7 227.05 375.6 205.9Q369.6 185.25 369.7 163.8Q369.85 142 381.7 124.75Q387.55 121.15 394.1 119.15M380.4,366.75L381.2 367.2Q383.7 371.8 382.6 376.95Q382.2 378.95 381.2 380.7Q351.3 388.25 319.45 384.2L318.85 383.4L318.2 386.2Q310.65 381.15 313.25 368.65Q314.75 361.45 315.35 354Q319.95 294.75 320.3 234.75Q320.65 175.35 323.9 116.25Q324.1 112.6 327.2 111.75Q327.45 170.2 326.7 230.25Q325.9 290.15 323.3 349.55Q322.8 361.05 321.05 372.2Q348.75 371.6 374.95 366.2L380.4 366.75M241.35,111Q245.95 112.95 249.75 116.6Q257.85 124.3 257.2 134.4L253.45 134.25L252.15 132.7Q245.95 125.95 237.45 122.75Q226.75 124 219.55 131.1Q176.9 173.6 179.9 234.9Q205.7 230.5 231.95 232.25Q235.05 234.45 235.8 238.25Q236.65 242.75 234.2 246.75L179.2 248.25Q178 272.9 178.45 297.65Q178.6 307.2 181.8 316.25Q186.65 330.15 197.15 340.5Q207.25 350.35 220.55 347.4Q246.25 341.55 257.95 318.5Q258.35 321.8 258.35 325.05Q258.2 348.6 237.05 359Q215.7 369.55 196.6 355.7Q178.65 342.7 175.75 319.8Q173.5 301.7 172.1 283.35Q170.7 265 171.6 246.6Q172.55 226.25 175.1 206.15Q177.75 185.5 184.3 165.75Q191.25 144.75 204 126.7Q218.2 106.55 241.35 111M176.35,138.55Q162.45 196.15 147.65 253.7Q133.85 307.4 124 361.25Q124.35 369.6 124.2 377.95Q116.45 371.55 115.8 357.8Q114.4 328.45 107.85 299.85Q94.7 242.4 83.55 184.6Q75.8 144.7 65.55 105.6Q64.8 102.75 67.5 102.75Q88.1 158.55 97.7 217.25Q104.85 260.8 115.55 303.6Q119.3 318.45 121.4 333.25Q122.85 321.4 126 309.5Q141.05 252.15 155.05 194.45Q165.65 150.9 177.8 109.1L178.2 109Q180.05 123.1 176.35 138.55M291.45,112.75Q292.3 141.8 290.4 172.1Q289.05 194.55 289.2 217Q289.6 276.95 286.65 336.25Q285.55 359.2 281.2 381.2Q274.65 378.1 275.65 367.6Q281.45 308.65 282 249.25Q282.45 197.15 284.6 145.7Q285.35 127.3 291.45 112.75" />
</g>
</svg>
