<?xml version="1.0" encoding="utf-8"?>
<svg version="1.1" id="Layer_1"
xmlns="http://www.w3.org/2000/svg"
xmlns:xlink="http://www.w3.org/1999/xlink"


xml:space="preserve">
q-0.75 -0.2 -1 0.35q-25.85 50.45 -61.95 95.25q-5 6.2 -7.85 12.65q0.55 -12 1.35 -23.95q2.9 -44.95 -2.8 -88.55q-2.2 21.5 -2.6 45.75q-0.7 44.3 -3.75 88.4q-2.1 30.5 1.6 59.3q6.9 -7.35 3.25 -18q1.25 -20.55 2 -41.1q7.6 -13.4 17.9 -26.3q6.9 -8.6 13.1 -17.5q3.15 17.55 8.9 35.2q8.2 24.95 15.05 50.15q3.4 12.55 10.8 19.8q2.65 -2.7 1.65 -6.5q-13.85 -52.85 -33.25 -103.25q25.35 -37.6 39.1 -80.2q-16.5 56.95 -25.8 115.65q-2.35 14.65 -6.15 28.9q-0.75 2.75 -1.15 5.4q-5.55 -28.55 -13.8 -56.85q-16.5 -56.8 -40 -110.6q-4.5 10.9 1 25.25q21.2 54.35 33.75 111.5q3.45 15.6 10.25 26.5q5.85 -13.95 7.8 -30.4q7 -58.7 24.45 -115.05q6.85 -22.1 6 -43.25q-5.15 6.5 -7.8 15.5q-13.25 16.6 -18.6 37.55q-14.9 58.55 0.4 117.15q4.15 16.05 19.7 19.45q31.6 6.9 50.2 -18.95q10.55 -14.7 1.2 -25.6q-8.5 18.85 -27.55 27.85q-19.7 9.3 -32.65 -3.6q-2.8 -2.8 -3.8 -6.25q-9.4 -32.05 -8.1 -64.15q24.2 0.95 49.35 -1.1q3.4 -8 -2.7 -12.2q-23.4 -0.75 -46.3 3.05q1.85 -18.95 7.45 -37.95q4.9 -16.4 18.25 -25.3q26.1 -17.35 45.85 2.45q0.4 -0.4 0.4 -0.8q1 -24.75 -26.65 -24.2q-6.75 1.85 -14.05 4.35q-7.75 2.65 -12.85 9<g id="887" transform="matrix(1, 0, 0, 1, -139, 0)">
<path style="fill:#000000;fill-opacity:1" d="M419.4,182.55L419.95 183.25Q406.2 225.85 380.85 263.45Q400.25 313.85 414.1 366.7Q415.1 370.5 412.45 373.2Q405.05 365.95 401.65 353.4Q394.8 328.2 386.6 303.25Q380.85 285.6 377.7 268.05Q371.5 276.95 364.6 285.55Q354.3 298.45 346.7 311.85Q345.95 332.4 344.7 352.95Q348.35 363.6 341.45 370.95Q337.75 342.15 339.85 311.65Q342.9 267.55 343.6 223.25Q344 199 346.2 177.5Q351.9 221.1 349 266.05Q348.2 278 347.65 290Q350.5 283.55 355.5 277.35Q391.6 232.55 417.45 182.1Q417.7 181.55 418.45 181.75L419.4 182.55M238.2,180.5Q239.05 201.65 232.2 223.75Q214.75 280.1 207.75 338.8Q205.8 355.25 199.95 369.2L199.3 367.6L198.75 368.2Q191.95 357.3 188.5 341.7Q175.95 284.55 154.75 230.2L144.5 203.75Q139 189.4 143.5 178.5Q167 232.3 183.5 289.1Q191.75 317.4 197.3 345.95Q197.7 343.3 198.45 340.55Q202.25 326.3 204.6 311.65Q213.9 252.95 230.4 196Q233.05 187 238.2 180.5M277.9,182.6Q285.2 180.1 291.95 178.25Q319.6 177.7 318.6 202.45Q318.6 202.85 318.2 203.25Q298.45 183.45 272.35 200.8Q259 209.7 254.1 226.1Q248.5 245.1 246.65 264.05Q269.55 260.25 292.95 261Q299.05 265.2 295.65 273.2L295.2 273.95Q270.05 276 245.85 275.05Q244.55 307.15 253.95 339.2Q254.95 342.65 257.75 345.45Q270.7 358.35 290.4 349.05Q309.45 340.05 317.95 321.2Q327.3 332.1 316.75 346.8Q298.15 372.65 266.55 365.75Q251 362.35 246.85 346.3Q231.55 287.7 246.45 229.15Q251.8 208.2 265.05 191.6Q270.15 185.25 277.9 182.6" />
</g>
</svg>
