<?xml version="1.0" encoding="utf-8"?>
<svg version="1.1" id="Layer_1"
xmlns="http://www.w3.org/2000/svg"
xmlns:xlink="http://www.w3.org/1999/xlink"


xml:space="preserve">
q23.9 -4.1 37.65 15.15q12.95 18.25 2.75 38.15q-10.65 20.7 -34 23.15q-6 88.3 -11 177.3q-4.6 4.5 -2.4 11.9q0.05 4.3 1.75 1.8q31.5 2.3 55.35 -20.6q9.8 -9.35 12 -23.3q4.8 -29.95 -9.9 -57.15q-3.8 -7 -11.15 -10.35q22.6 -31.45 3.1 -64.95q-13.6 -23.4 -39.25 -16.6q-0.75 0.15 -1.4 0.7q21.05 3.35 29.1 27.9q7.3 22.35 -8.7 37.55q-15.75 14.95 -37.1 17.85q5.45 -39 5.2 -78.55q13.8 0.75 26 -5.35q-14.45 33.6 -21.65 69.95q-9.9 33.05 -15.1 67.4q-1.45 9.65 -3.8 19.05q-3 -20.95 -7.85 -41.85q-13.35 -57.7 -30.45 -113.85q-3.5 21.9 4.35 46.15q18 55.45 26.4 113.75q1.85 12.75 6.9 22.9q0.85 2.25 2.1 4.4q1.4 -1.15 1.25 -2.95q2.5 -5.25 3.15 -11.55q5.85 -59.15 21.95 -115.7q2.1 -7.35 4.55 -14.4q7.75 -22.25 7.8 -43.25q-33.35 12.15 -45.5 47.55q-19.05 55.75 -1.9 112.65q8.25 27.4 35.7 30.95q27.05 3.45 45.35 -16.95q12.3 -13.7 2.35 -24.75q-0.9 1.1 -0.8 2.55q-17.2 22.65 -45.3 20.4q-15.7 -1.25 -22.65 -15.15q-15.05 -30.05 -13.9 -63.85q33.95 3.25 67.6 -4.15q2.95 -7.5 -1.7 -13.45q4.95 -39.7 35.8 -65.25q30.35 -13.05 47 13.5q3.3 -8.7 -2.1 -16.75q-1.35 -0.4 -2.45 -1.2q-10.65 -7.8 -24.05 -6.55<g id="872" transform="matrix(1, 0, 0, 1, -138.75, 0)">
<path style="fill:#000000;fill-opacity:1" d="M358.1,183.05Q383.75 176.25 397.35 199.65Q416.85 233.15 394.25 264.6Q401.6 267.95 405.4 274.95Q420.1 302.15 415.3 332.1Q413.1 346.05 403.3 355.4Q379.45 378.3 347.95 376Q346.25 378.5 346.2 374.2L342.65 372.5L341.8 369.95Q339.6 362.55 344.2 358.05Q349.2 269.05 355.2 180.75L356.1 267.25L363.1 266.95Q386.45 264.5 397.1 243.8Q407.3 223.9 394.35 205.65Q380.6 186.4 356.7 190.5L356.7 183.75Q357.35 183.2 358.1 183.05M355.95,280Q356.2 319.55 350.75 358.55L365.25 357.95Q386.6 355.05 402.35 340.1Q418.35 324.9 411.05 302.55Q403 278 381.95 274.65Q369.75 280.75 355.95 280M221.2,181.25Q221.15 202.25 213.4 224.5Q210.95 231.55 208.85 238.9Q192.75 295.45 186.9 354.6Q186.25 360.9 183.75 366.15L183.75 366.5Q183.9 368.3 182.5 369.45L182.2 368.95L182 369.2Q180.75 367.05 179.9 364.8Q174.85 354.65 173 341.9Q164.6 283.6 146.6 228.15Q138.75 203.9 142.25 182Q159.35 238.15 172.7 295.85Q177.55 316.75 180.55 337.7Q182.9 328.3 184.35 318.65Q189.55 284.3 199.45 251.25Q206.65 214.9 221.1 181.3L221.2 181.25M309,188.55Q310.1 189.35 311.45 189.75L316.85 197.5Q322.25 205.55 318.95 214.25Q302.3 187.7 271.95 200.75Q241.1 226.3 236.15 266L235.7 270.35L301.45 261.25Q306.1 267.2 303.15 274.7L302.7 275.45Q269.05 282.85 235.1 279.6Q233.95 313.4 249 343.45Q255.95 357.35 271.65 358.6Q299.75 360.85 316.95 338.2L317.1 337.5Q317 336.05 317.9 334.95L320.95 331.45Q330.9 342.5 318.6 356.2Q300.3 376.6 273.25 373.15Q245.8 369.6 237.55 342.2Q220.4 285.3 239.45 229.55Q251.6 194.15 284.95 182Q298.35 180.75 309 188.55" />
</g>
</svg>
