<?xml version="1.0" encoding="utf-8"?>
<svg version="1.1" id="Layer_1"
xmlns="http://www.w3.org/2000/svg"
xmlns:xlink="http://www.w3.org/1999/xlink"


xml:space="preserve">
q-15.55 -17.5 -36.85 -5.65q-19.35 10.7 -26.15 31.9q-5.7 17.75 -8.25 36.25q-2.95 21.45 -3.9 42.9q-0.95 21.75 0.75 43.3q1.85 22.95 23.6 28.7q21.85 5.75 38.15 -10.95q10.1 -10.25 3.9 -23.5q-7.65 21 -32.5 19.6q-13.05 -1.05 -21.3 -11.7q4 -6.4 -0.3 -12.3q-1.75 -40.2 26.5 -67.65q13.6 -13.15 31.6 -7.6q-9.75 27 -17.2 55q-15.25 57.65 -27.25 116.25q-11.85 57.7 -24.3 113.95q-4.1 -38.4 -10.45 -76.45q-9.75 -58.25 -22.6 -115.95q-13 -58.05 -21.9 -115.8q-0.75 0.1 -0.8 0.3q-2.4 22.15 1.7 45q8.05 44.45 17.5 88.7q12.3 57.7 21.65 116q4.6 28.75 6.05 57.8q0.85 17.2 9.1 28.15q10.8 -34.8 17.3 -71.1q10.55 -58.4 23.1 -116.55q12.7 -58.85 35.05 -114.75q6.65 -16.65 -0.95 -29.05q-4.05 7.9 -6.75 16.5q-39.05 9.25 -49.5 46.6q-15.15 54.45 -7.65 111.7q2.05 15.75 11.6 28.05q22.5 29 54.65 7.05q22.9 -15.7 19.9 -39.45q-13.7 15.1 -31.65 27.15q-17.65 11.8 -32.8 -1.05q-16.9 -14.35 -17.65 -38.05q-0.45 -13.4 -0.4 -26.75q29.1 -1.8 57.75 -6.45q3.9 -8.75 -2.7 -13.7q-28.25 3.2 -56.25 9q1.85 -42.3 36.25 -63.65q19.35 -12 35.5 -0.5q2.45 -3.15 0.9 -7.2q-2.75 -7.05 -9.4 -11.3q-3.5 -1.15 -7.35 -0.7<g id="871" transform="matrix(1, 0, 0, 1, -91.3, 0)">
<path style="fill:#000000;fill-opacity:1" d="M324.75,262.95Q296.5 290.4 298.25 330.6L337.95 324.25L339.9 326.45Q344.2 332.35 340.2 338.75L297.6 343.05L299.2 402.45Q307.45 413.1 320.5 414.15Q345.35 415.55 353 394.55L357.45 392.2Q363.65 405.45 353.55 415.7Q337.25 432.4 315.4 426.65Q293.65 420.9 291.8 397.95Q290.1 376.4 291.05 354.65Q292 333.2 294.95 311.75Q297.5 293.25 303.2 275.5Q310 254.3 329.35 243.6Q350.65 231.75 366.2 249.25L366.6 258.5L356.35 255.35Q338.35 249.8 324.75 262.95M217.85,113.3L217.45 112.75Q220.15 104.15 224.2 96.25Q231.8 108.65 225.15 125.3Q202.8 181.2 190.1 240.05Q177.55 298.2 167 356.6Q160.5 392.9 149.7 427.7Q141.45 416.75 140.6 399.55Q139.15 370.5 134.55 341.75Q125.2 283.45 112.9 225.75Q103.45 181.5 95.4 137.05Q91.3 114.2 93.7 92.05Q93.75 91.85 94.5 91.75Q103.4 149.5 116.4 207.55Q129.25 265.25 139 323.5Q145.35 361.55 149.45 399.95Q161.9 343.7 173.75 286Q185.75 227.4 201 169.75Q208.45 141.75 218.2 114.75L217.85 113.3M254.3,228.95L257.45 229.75Q264.1 234 266.85 241.05Q268.4 245.1 265.95 248.25Q249.8 236.75 230.45 248.75Q196.05 270.1 194.2 312.4L193.55 333.5L193.7 333.25Q221.7 327.45 249.95 324.25Q256.55 329.2 252.65 337.95L252.2 338.75Q223.55 343.4 194.45 345.2L193.45 343.5Q193.4 356.85 193.85 370.25Q194.6 393.95 211.5 408.3Q226.65 421.15 244.3 409.35Q262.25 397.3 275.95 382.2Q278.95 405.95 256.05 421.65Q223.9 443.6 201.4 414.6Q191.85 402.3 189.8 386.55Q182.3 329.3 197.45 274.85Q207.9 237.5 246.95 228.25Q250.8 227.8 254.3 228.95" />
</g>
</svg>
