<?xml version="1.0" encoding="utf-8"?>
<svg version="1.1" id="Layer_1"
xmlns="http://www.w3.org/2000/svg"
xmlns:xlink="http://www.w3.org/1999/xlink"


xml:space="preserve">
q-41.25 0.55 -81.75 7.75q-11.05 69.9 -8.65 140.85q0 0.7 0.5 1.2q5.2 -1.95 5 -10.2q-0.5 -18.35 0.55 -36.65q3.6 -62.75 3 -125.5q2.6 -5.1 0.1 -10.4q-2.5 14.3 -3.6 29.1q-2 27 -2.7 54.15q1 -33.4 0.25 -66.45q-5.45 31.75 -6.75 65.15q-1.15 29.55 -4 59.1q-2.25 23.95 4.75 44.15q4.15 -6.05 5.5 -14q-0.75 -0.85 -2.1 -0.95q-1 -15.85 0.35 -34.45q1.45 -20.55 2.3 -41q-0.3 25 0.55 50.1q0.25 7.55 -0.55 14.75q-2.05 17.4 4.6 29.2q4.65 -17.55 3.45 -36.75q-1.2 -18.75 -0.7 -37.5q1.35 -2.45 1.75 -5.25q0.6 -4.35 -1.85 -7.45q0.45 -43 -0.65 -85.25q-0.75 0.1 -0.8 0.35q-13.8 4.25 -23.1 15.05q-13.4 17.2 -19.3 38.8q-3.95 14.55 -5.05 29.75q-0.4 1.05 -0.4 2.2q0 1.5 0.5 2.8q-0.3 29.85 8.25 57.4q10.3 33.25 45.75 26.65q14.55 -2.7 26.75 -10.9q19.15 -12.8 12.55 -30.65q-6.95 8.2 -15.45 15.8q-28.15 25.35 -58.55 4.95q-5.75 -8 -8.1 -17.45q-6.2 -25.1 -4.6 -49.1q34 2.35 68.2 1.3q1 -0.75 1.35 -1.95q1.7 -5.05 -0.6 -9.75q3.05 -23.05 13.45 -45.05q5.3 -11.2 15.65 -17.75q32.55 -20.5 56.4 4.7q1.95 -8.45 -4.65 -14.85q-6.1 -6.05 -13.6 -10.65q-5.05 1.3 -10.4 2.95q-2.85 20 2.65 42.05q14.45 57.35 20.6 116.2q1.7 16.25 8.55 28.35q0.6 1.4 2.15 1.75q9.4 -20.45 12.5 -44q7.65 -58.3 23.2 -115q4.2 -15.35 2.5 -29.7q-13.25 33.7 -19.8 71.2q-6.25 35.9 -13.85 71.65q-4.05 19.2 -6.2 38.4q-2.05 -32.65 -7.95 -65.35q-10.55 -58.1 -23.9 -115.4<g id="877" transform="matrix(1, 0, 0, 1, -137.85, 0)">
<path style="fill:#000000;fill-opacity:1" d="M395.15,190.45L352.3 194.2Q352.9 256.95 349.3 319.7Q348.25 338 348.75 356.35Q348.95 364.6 343.75 366.55Q343.25 366.05 343.25 365.35L342.45 335.1Q340.05 264.15 351.1 194.25L312.7 196L312.7 186.25Q353.2 179.05 394.45 178.5L395.25 180.05Q397.75 185.35 395.15 190.45M422.45,178.5Q423.55 220.75 423.1 263.75Q425.55 266.85 424.95 271.2Q424.55 274 423.2 276.45L422.9 276.5L422.45 296.95Q421.95 315.7 423.15 334.45Q424.35 353.65 419.7 371.2Q413.05 359.4 415.1 342Q415.9 334.8 415.65 327.25Q414.8 302.15 415.1 277.15L386.85 276.25Q386 296.7 384.55 317.25Q383.2 335.85 384.2 351.7Q385.55 351.8 386.3 352.65L386.45 353.2Q385.1 361.15 380.95 367.2Q373.95 347 376.2 323.05Q379.05 293.5 380.2 263.95Q381.5 230.55 386.95 198.8L387.45 198.75Q388.2 231.8 387.2 265.2L414.95 262L415.35 262.1Q416.05 234.95 418.05 207.95Q419.15 193.15 421.65 178.85Q421.7 178.6 422.45 178.5M268.95,181.5L285.45 181.75Q292.95 186.35 299.05 192.4Q305.65 198.8 303.7 207.25Q279.85 182.05 247.3 202.55Q236.95 209.1 231.65 220.3Q221.25 242.3 218.2 265.35L282.95 263.5L285.4 263.95L286.2 264.5Q288.5 269.2 286.8 274.25Q286.45 275.45 285.45 276.2Q251.25 277.25 217.25 274.9Q215.65 298.9 221.85 324Q224.2 333.45 229.95 341.45Q260.35 361.85 288.5 336.5Q297 328.9 303.95 320.7Q310.55 338.55 291.4 351.35Q279.2 359.55 264.65 362.25Q229.2 368.85 218.9 335.6Q210.35 308.05 210.65 278.2L210.8 273.5Q210.3 272.2 210.3 270.7Q210.3 269.55 210.7 268.5L211.1 268.05Q212.2 252.85 216.15 238.3Q222.05 216.7 235.45 199.5Q244.75 188.7 258.55 184.45Q263.9 182.8 268.95 181.5M141.5,182.25Q154.85 239.55 165.4 297.65Q171.3 330.35 173.35 363Q175.5 343.8 179.55 324.6Q187.15 288.85 193.4 252.95Q199.95 215.45 213.2 181.75Q214.9 196.1 210.7 211.45Q195.15 268.15 187.5 326.45Q184.4 350 175 370.45Q173.45 370.1 172.85 368.7L172.5 368.95Q165.65 356.85 163.95 340.6Q157.8 281.75 143.35 224.4Q137.85 202.35 140.7 182.35L141.5 182.25" />
</g>
</svg>
