<?xml version="1.0" encoding="utf-8"?>
<svg version="1.1" id="Layer_1"
xmlns="http://www.w3.org/2000/svg"
xmlns:xlink="http://www.w3.org/1999/xlink"


xml:space="preserve">
q-4.8 15.7 -4.25 35.25q1.65 59.7 -2.45 119.15q-1.15 16.9 4.7 29.3q13.55 7.8 29.6 4.6q31.75 -6.3 38 -36.6q9.6 -46.6 -26.5 -74.6q13.7 -14.25 8.85 -34.3q-8.35 -34.3 -40.45 -42.55q-7.95 -0.55 -15 3.15q-6.35 19.35 -25.05 26.95q-8.85 3.5 -18.45 3.8q22 -5.35 38.75 10.6q10.05 9.6 13.7 23.2q12.5 -0.3 23.75 -6.15q23.3 -1.9 33.25 21.25q9.1 21.1 -2.15 40.85q-11.05 19.35 -34.35 20.55q-15.55 0.25 -28.5 -8.65q-0.6 -1.6 -1.85 -2.6q-7.1 60.55 -2.6 121.85q0.8 11.3 0.35 22.4q-0.45 11.2 -1.9 22.3q-1 7.6 1.1 14.9q1.05 3.55 3.3 6.75q9.3 -48.55 3.75 -99.05q1.15 -1.6 1.6 -3.6q0.85 -3.65 -0.2 -7.2q-0.55 -1.75 -1.75 -3q-21.8 0.05 -43.4 6.25q30 -0.35 59.3 6.05q1 -1.25 1.5 -2.8q1.5 -4.6 -0.15 -9.15q0.6 15.75 2.05 31.35q4.05 44.8 -1.85 88.6q-4.5 33.45 -37.6 41.4q-8.9 2.1 -16.15 -3.1q-9.35 -6.7 -10.15 -18.65q-3.9 -59.15 1.55 -117.55q1.65 -17.75 -5 -28.55q-2.3 39.6 -4.2 80.2q-0.65 13.45 -2.3 26.85q-5.05 41.15 16 73.65q14.65 7.15 29.4 0.95q9.15 -3.85 15.3 -11.25q24.7 -29.85 24.05 -70.15q-0.35 -21.5 -1.15 -42.85q-1.15 -30.45 -5.6 -59.15q-4.6 2.15 -4.35 8.25<g id="908" transform="matrix(1, 0, 0, 1, -135.35, 0)">
<path style="fill:#000000;fill-opacity:1" d="M330.95,184Q338 180.3 345.95 180.85L345.95 180.75Q378.05 189 386.4 223.3Q391.25 243.35 377.55 257.6Q413.65 285.6 404.05 332.2Q397.8 362.5 366.05 368.8Q350 372 336.45 364.2L328.5 358.6L327.45 365.45Q321.6 353.05 322.75 336.15Q326.85 276.7 325.2 217Q324.65 197.45 329.45 181.75L329.7 185.8L330.45 184.75L330.95 184M369,206.55Q352.25 190.6 330.25 195.95L333.2 257.5L339.2 260.5Q348.8 260.2 357.65 256.7Q376.35 249.1 382.7 229.75Q379.05 216.15 369 206.55M332.65,272.25L330.45 342.85Q343.4 351.75 358.95 351.5Q382.25 350.3 393.3 330.95Q404.55 311.2 395.45 290.1Q385.5 266.95 362.2 268.85Q350.95 274.7 338.45 275L332.65 272.25M206.95,195.2Q206.45 196.75 205.45 198Q176.15 191.6 146.15 191.95L146.45 258.2Q168.05 252 189.85 251.95Q191.05 253.2 191.6 254.95Q192.65 258.5 191.8 262.15Q191.35 264.15 190.2 265.75L146.45 269.9Q152 320.4 142.7 368.95Q140.45 365.75 139.4 362.2Q137.3 354.9 138.3 347.3Q139.75 336.2 140.2 325Q140.65 313.9 139.85 302.6Q135.35 241.3 142.45 180.75L145.45 179.25L166.95 179L204.95 183.45Q206.2 184.45 206.8 186.05Q208.45 190.6 206.95 195.2M302.45,181Q306.9 209.7 308.05 240.15Q308.85 261.5 309.2 283Q309.85 323.3 285.15 353.15Q279 360.55 269.85 364.4Q255.1 370.6 240.45 363.45Q219.4 330.95 224.45 289.8Q226.1 276.4 226.75 262.95Q228.65 222.35 230.95 182.75Q237.6 193.55 235.95 211.3Q230.5 269.7 234.4 328.85Q235.2 340.8 244.55 347.5Q251.8 352.7 260.7 350.6Q293.8 342.65 298.3 309.2Q304.2 265.4 300.15 220.6Q298.7 205 298.1 189.25Q297.85 183.15 302.45 181" />
</g>
</svg>
