<?xml version="1.0" encoding="utf-8"?>
<svg version="1.1" id="Layer_1"
xmlns="http://www.w3.org/2000/svg"
xmlns:xlink="http://www.w3.org/1999/xlink"


xml:space="preserve">
q-15.2 7.6 -18.95 25.2q-8.5 39.4 -8 80.8q0.65 58.7 -3.15 116.9q-1.7 25.9 10.6 46.55q10.8 0.05 19.75 -6.5q12.4 -12.6 2.85 -22.85q-5.55 8.05 -12.45 15.05q-8.2 6.3 -17.75 5.45q-1.75 -9.6 -2.25 -19.5q-1.65 -33.55 -1.35 -67.45q4.45 -8.7 -2.35 -13.65q-14.25 -0.3 -26.35 5.9q0.95 -43.5 3.65 -86.65q0.85 -14.1 9.05 -25.3q13.8 -18.85 27.4 -0.45q1.8 -4 0.5 -8.35q-1.95 -6.5 -6 -11.9q-5.5 -2.2 -11.4 -2.45q-4.15 55.45 -3.75 111.7q0.1 15.15 0.45 30q1.1 47.55 -18.55 88.5q-4.85 10.95 -15.25 17.2q-16.75 -1.55 -17.3 -19.45q-1.75 -55.1 1.1 -111q3 -59.8 0.45 -118.5q-4.8 12.1 -4.6 27.25q0.7 59.45 -2.85 118.45q-2.7 44.85 -0.4 89.25q1.25 24.6 23.6 29.5q7.45 -3.8 12.3 -10.45q23.95 -33.2 25.35 -75q1.95 -59.8 2.9 -119.25q0.2 -14.95 2.3 -29.75q2.4 -17.15 -4.85 -29.75q-0.85 0.6 -0.9 1.3q-21.15 -9.95 -35.95 8.05q-13.95 17 -21.5 37.8q-6.75 18.6 -10.9 38.05q-4.2 19.7 -4.85 39.8q-0.65 21.3 -4 42.4q-3.5 22.1 3.05 43.25q6.3 20.45 21.95 35.2q18.7 17.55 37.5 -1.05q-0.3 9.4 2 18.3q0.75 2.9 2.1 1.9q8.3 -36.6 5.95 -74.45q-9.55 -0.4 -17.35 4.9q-8.5 3.3 -16.85 -0.25q-4.85 -2 -8.4 -6q-19.6 -19.6 -19.65 -48.3q-0.05 -52 9.15 -103.45q2.95 -16.5 10.65 -31.5q7.55 -14.8 18.5 -27.45q11.2 -12.8 28.2 -9.4q6 1.1 11.35 4q1.5 -2.6 1 -5.45q-0.95 -5.15 -5.35 -7.85q-2.9 6.1 -2.15 12.7q6.6 58.1 5.75 116.85q-0.7 46.1 -17.15 88.35q-13 33.45 -46.2 42.1q-3.75 -0.45 -7.25 -2.5q-1.35 -2.3 -3.35 -4.1q-6.05 -5.5 -9.3 -12.95q-14.15 -32.6 -11.7 -70q3.85 -59.25 7.3 -118.35q1.85 -30.9 -4.2 -59.3q-0.2 35.4 -2.35 72.5q-3.35 59.1 -5.75 118.4q-1.4 33.7 10.55 64.2q3.3 8.5 8.85 15.75q9.85 12.75 24.15 7.8q30 -10.4 43.35 -41q17.4 -40 18.75 -83.9q1.9 -59.2 -0.4 -118.55q-0.65 -16.85 -7.15 -29.45q-0.85 0.6 -1.25 1.45q-0.35 -1.65 -1.7 -2.2q-2.05 2.2 -2.4 5.5q-11.3 104.6 -14.5 210.65q-0.9 30.4 0.05 60.2q22.65 4.55 46.1 4.2<g id="922" transform="matrix(1, 0, 0, 1, -55.7, 0)">
<path style="fill:#000000;fill-opacity:1" d="M504.35,96.2L505.2 96.75Q509.25 102.15 511.2 108.65Q512.5 113 510.7 117Q497.1 98.6 483.3 117.45Q475.1 128.65 474.25 142.75Q471.55 185.9 470.6 229.4Q482.7 223.2 496.95 223.5Q503.75 228.45 499.3 237.15L498.7 238L470.4 238L470.1 260.5Q469.8 294.4 471.45 327.95Q471.95 337.85 473.7 347.45Q483.25 348.3 491.45 342Q498.35 335 503.9 326.95L506.95 322.5Q516.5 332.75 504.1 345.35L493.2 356.7Q484.25 363.25 473.45 363.2Q461.15 342.55 462.85 316.65Q466.65 258.45 466 199.75Q465.5 158.35 474 118.95Q477.75 101.35 492.95 93.75Q498.85 94 504.35 96.2M443.95,95.25Q451.2 107.85 448.8 125Q446.7 139.8 446.5 154.75Q445.55 214.2 443.6 274Q442.2 315.8 418.25 349Q413.4 355.65 405.95 359.45Q383.6 354.55 382.35 329.95Q380.05 285.55 382.75 240.7Q386.3 181.7 385.6 122.25Q385.4 107.1 390.2 95Q392.75 153.7 389.75 213.5Q386.9 269.4 388.65 324.5Q389.2 342.4 405.95 343.95Q416.35 337.7 421.2 326.75Q440.85 285.8 439.75 238.25Q439.4 223.4 439.3 208.25Q438.9 152 443.05 96.55Q443.1 95.85 443.95 95.25M361.35,95.7Q365.75 98.4 366.7 103.55Q367.2 106.4 365.7 109Q360.35 106.1 354.35 105Q337.35 101.6 326.15 114.4Q315.2 127.05 307.65 141.85Q299.95 156.85 297 173.35Q287.8 224.8 287.85 276.8Q287.9 305.5 307.5 325.1L309.45 325.5Q313 329.5 317.85 331.5Q326.2 335.05 334.7 331.75L348.95 312.25L350.15 313.35L351.8 295.9L337.45 297.75L336.95 289L339.1 287.4Q346.9 282.1 356.45 282.5Q358.8 320.35 350.5 356.95Q349.15 357.95 348.4 355.05Q346.1 346.15 346.4 336.75L344.85 338.3Q326.05 356.9 307.35 339.35Q291.7 324.6 285.4 304.15Q278.85 283 282.35 260.9Q285.7 239.8 286.35 218.5Q287 198.4 291.2 178.7Q295.35 159.25 302.1 140.65Q309.65 119.85 323.6 102.85Q338.4 84.85 359.55 94.8L361.35 95.7M253.95,88.25Q260.45 100.85 261.1 117.7Q263.4 177.05 261.5 236.25Q260.15 280.15 242.75 320.15Q229.4 350.75 199.4 361.15Q185.1 366.1 175.25 353.35Q169.7 346.1 166.4 337.6Q154.45 307.1 155.85 273.4Q158.25 214.1 161.6 155Q163.75 117.9 163.95 82.5L164.45 82.5Q170.5 110.9 168.65 141.8Q165.2 200.9 161.35 260.15Q158.9 297.55 173.05 330.15Q176.3 337.6 182.35 343.1Q184.35 344.9 185.7 347.2Q189.2 349.25 192.95 349.7Q226.15 341.05 239.15 307.6Q255.6 265.35 256.3 219.25Q257.15 160.5 250.55 102.4Q249.8 95.8 252.7 89.7Q253.1 88.85 253.95 88.25M136.45,94.25L120.8 94.6Q97.35 94.95 74.7 90.4L71.15 173.3L112.45 171.25L113.2 172.5L113.8 173.75L114.2 175L114.4 176.25L114.4 177.6L114.25 178.9L113.85 180.25L113.25 181.65L113.05 182.1L70.55 182.95L58.6 357.85L56.65 357.8Q55.7 328 56.6 297.6Q59.8 191.55 71.1 86.95Q71.45 83.65 73.5 81.45L135.95 81.5Q137.3 82.05 137.65 83.7L138.3 88.25L138.3 89.75L137.6 92.1L136.45 94.25" />
</g>
</svg>
