<?xml version="1.0" encoding="utf-8"?>
<svg version="1.1" id="Layer_1"
xmlns="http://www.w3.org/2000/svg"
xmlns:xlink="http://www.w3.org/1999/xlink"


xml:space="preserve">
q-9.7 35.05 -16.3 72.55q-10.2 58.3 -21.65 116.4q-2.9 14.75 -8.75 28.65q-2.1 5 -2.9 9.55q-11.2 -49.15 -19.7 -98.45q-10.45 21.7 -15.7 47.15q-5.15 24.95 -11.8 49.25q-6.4 -54.15 -10.95 -108.5q-4.9 -59.2 -10.35 -117.65q-3.3 26.8 -0.6 56.5q5.2 58.85 8.1 117.95q0.85 17.2 7.8 28.95q1.1 -3.8 1.7 -7.65q3.1 -4.85 4.2 -10.4q-1.15 18.3 2.7 38.3q4.75 24.9 9.95 49.75q3.3 15.8 9.45 28.2q2.3 -2.65 2.6 -5.95q12.15 -34.75 18.3 -71.1q9.9 -58.2 20.8 -116.25q2.75 -14.55 6.45 -28.75q4.35 -16.45 0.35 -29.45q-14.3 20.05 -20.8 44.2q-11.05 40.85 -15.35 83.25q-6 59.35 -9.3 119.25q-3.25 59.25 2.45 117.75q2.2 23 17.4 39.15q12.4 13.2 30.35 9.35q6.3 -1.35 11.35 -5.05q24.75 -18.15 37.6 -46.4q9.15 -20.05 4.8 -39.05q-1.1 0.5 -2.1 1.2q-1.6 1.15 -2.35 2.85q0.05 1.9 -0.55 4.15q-5.1 14.8 -13.05 28q-20.45 34.1 -56.35 16.7q-13.55 -15.3 -15.3 -36.75q-4.75 -59.3 -1.45 -119.2q22.5 -4.2 46.4 -4q3.2 -6.3 -0.85 -11.9q-23.4 -0.95 -45.4 6.15q2.65 -37 6.3 -73.8q4.85 -49.15 25.9 -93q13.95 -29.1 40.15 -12.9q4.05 3.8 0.2 0.15q0.7 1.2 1.8 1.8q0.7 0.4 1.55 0.4q3.65 -4.8 0.75 -10.15q-9.9 -9.4 -23.5 -9.75q-3.05 0.8 -6.5 2.25q-5.7 2.35 -10.5 6q-18.35 -0.25 -36.1 3.55q-7 21.55 -7.15 47.25q-0.3 59.35 -2.35 118.5q-2.1 59.7 -4.9 119.25q-2.8 59.8 -9.05 119.1q-1.75 16.55 2.95 29.85q2.2 -0.85 2.4 -3.5q4.7 -59.2 8.2 -118.55q3.5 -59.45 4.9 -119.15q24.5 0.15 49.35 -3.05q3.2 -6.3 -0.9 -11.9q-25 1.45 -48.85 6.8q1.05 -37.95 2.45 -75.85q0.55 -14.95 2 -29.8q1.6 -16.7 0.6 -32.6q32.8 0.4 66.3 1.2q0.4 0.4 0.9 0.4q0.5 -2.15 0.35 -4.45q-2.85 36.2 2.55 71.9q4.4 29.05 33.1 26.2q18.9 -11.65 21.55 -33.55q7.2 -59.25 2.95 -117.9q-4.35 4.35 -4 12.25q2.1 20.1 -0.2 40.35q-2.3 20.45 -1.85 41.1q0.65 27.9 -19.45 44.25q-13.7 4.1 -23.25 -6q-2.05 -4 -2.65 -8.35q-8.55 -58.35 0.9 -117.6q-0.5 -2.9 -2.75 -2.75q-3.5 5.6 -4 12.65q-1.45 59.35 -6.85 118.45q-2.8 30.65 -0.7 59.25q38.7 1.2 76.75 -1q2.7 -6.5 -0.2 -12.75q-36 2.2 -72.2 6.15q1.4 -6.3 1.75 -13.35q0.6 -13.35 1.5 -26.95q3.95 -59.2 5.55 -118.55q1.6 -60.2 2.65 -118.5q-5 3.95 -5.3 11.9q-1.95 50.05 -3.15 100.6<g id="907" transform="matrix(1, 0, 0, 1, -28.3, 0)">
<path style="fill:#000000;fill-opacity:1" d="M436.6,96.95Q432.9 111.15 430.15 125.7Q419.25 183.75 409.35 241.95Q403.2 278.3 391.05 313.05Q390.75 316.35 388.45 319Q382.3 306.6 379 290.8Q373.8 265.95 369.05 241.05Q365.2 221.05 366.35 202.75L346.65 303.1Q345.55 308.65 342.45 313.5L342.4 313.35Q341.8 317.2 340.7 321Q333.75 309.25 332.9 292.05Q330 232.95 324.8 174.1L319.6 115.75Q316.9 86.05 320.2 59.25Q325.65 117.7 330.55 176.9Q335.1 231.25 341.5 285.4L341.7 284.65Q348.35 260.35 353.5 235.4Q358.75 209.95 369.2 188.25L367.65 196.2Q376.15 245.5 387.35 294.65Q388.15 290.1 390.25 285.1Q396.1 271.2 399 256.45Q410.45 198.35 420.65 140.05Q427.25 102.55 436.95 67.5Q440.95 80.5 436.6 96.95M268.45,62.5Q271.9 61.05 274.95 60.25Q288.55 60.6 298.45 70L299.2 70.75L301.95 75.6Q304.85 80.95 301.2 85.75Q300.35 85.75 299.65 85.35Q298.55 84.75 297.85 83.55L297.45 83L294.6 81.1Q298.45 84.75 294.4 80.95Q268.2 64.75 254.25 93.85Q233.2 137.7 228.35 186.85Q224.7 223.65 222.05 260.65Q244.05 253.55 267.45 254.5Q271.5 260.1 268.3 266.4L267.7 267.25Q243.8 267.05 221.3 271.25L219.2 304.75Q215.9 364.65 220.65 423.95Q222.4 445.4 235.95 460.7Q271.85 478.1 292.3 444Q300.25 430.8 305.35 416L310.7 399.95L310.1 400Q310.7 397.75 310.65 395.85L310.95 395.8L311.7 395.7L312 395Q312.75 393.3 314.35 392.15Q315.35 391.45 316.45 390.95Q320.8 409.95 311.65 430Q298.8 458.25 274.05 476.4Q269 480.1 262.7 481.45Q244.75 485.3 232.35 472.1Q217.15 455.95 214.95 432.95Q209.25 374.45 212.5 315.2Q215.8 255.3 221.8 195.95Q226.1 153.55 237.15 112.7Q243.65 88.55 257.95 68.5Q262.75 64.85 268.45 62.5M124.2,54.75L124.9 56.25L125.4 57.75L125.65 59.25Q125.8 61.55 125.3 63.7L124.45 66.75L122.45 67.35Q121.95 67.35 121.55 66.95L120.95 66.25Q87.45 65.45 54.65 65.05Q55.65 80.95 54.05 97.65Q52.6 112.5 52.05 127.45Q50.65 165.35 49.6 203.3Q73.45 197.95 98.45 196.5Q102.55 202.1 99.35 208.4L98.7 209.25Q73.85 212.45 49.35 212.3L48.5 246Q47.1 305.7 43.6 365.15Q40.1 424.5 35.4 483.7Q35.2 486.35 33 487.2Q28.3 473.9 30.05 457.35Q36.3 398.05 39.1 338.25Q41.9 278.7 44 219Q46.05 159.85 46.35 100.5Q46.5 74.8 53.5 53.25L53.9 56.55Q71.65 52.75 90 53L123.45 54.35L124.2 54.75M141.2,313.25Q143.45 313.1 143.95 316Q134.5 375.25 143.05 433.6Q143.65 437.95 145.7 441.95Q155.25 452.05 168.95 447.95Q189.05 431.6 188.4 403.7Q187.95 383.05 190.25 362.6Q192.55 342.35 190.45 322.25Q190.1 314.35 194.45 310Q198.7 368.65 191.5 427.9Q188.85 449.8 169.95 461.45Q141.25 464.3 136.85 435.25Q131.45 399.55 134.3 363.35L137.2 325.9Q137.7 318.85 141.2 313.25M114.15,206.65Q114.45 198.7 119.45 194.75Q118.4 253.05 116.8 313.25Q115.2 372.6 111.25 431.8Q110.35 445.4 109.75 458.75Q109.4 465.8 108 472.1Q144.2 468.15 180.2 465.95L181.5 466.95L182.45 467.7Q185.35 473.95 182.65 480.45L182.2 481.2Q144.15 483.4 105.45 482.2L105 481.55L103.45 484.95Q101.35 456.35 104.15 425.7Q109.55 366.6 111 307.25Q112.2 256.7 114.15 206.65" />
</g>
</svg>
