<?xml version="1.0" encoding="utf-8"?>
<svg version="1.1" id="Layer_1"
xmlns="http://www.w3.org/2000/svg"
xmlns:xlink="http://www.w3.org/1999/xlink"


xml:space="preserve">
q-0.9 22.5 -11.5 42.5q-9.35 17.55 -25.4 29.1q-14.85 10.65 -32.55 15.8q24.35 -6.65 43.15 10.65q15.1 14 23.25 33.2q7.85 18.5 7.05 38.45q-1.05 1.7 -1.2 3.75q-0.25 2.55 0 5.1q-4.15 27.35 -3.7 57.15q1 59.35 -0.75 118.5q-0.55 15 -2.65 29.75q-2.5 17.4 4.25 29.2q4.15 -20.35 4.45 -42q0.9 -59.75 2.55 -119.2q16.8 -2.6 30.6 -10.3q-1.35 11.15 2.45 23.2q5.4 17.05 9.75 34.45q14.4 57.5 35.6 112.9q1.35 2.7 4 1.5q1.5 -2 1.05 -4.35q-6.9 -32.55 -17.85 -65q-17.7 -52.25 -30.45 -105.45q16.45 -10.6 28.15 -29.1q28.3 -44.65 16.85 -95.1q-11.85 -52.1 -63 -64.7q-3.5 -0.85 -7.1 0.5q-0.9 32.25 -8.4 63.4q-6.2 25.8 -34.65 15.5q-5.35 -1.9 -8.1 -6.45q-11.85 -19.45 -9.05 -44.35q3.1 -27.5 1.55 -53.85q-6.1 18 -6.15 39.25q0 20.55 -1.25 41.15q-1.85 29.95 26.15 37.7q33.6 9.35 39.15 -24.15q5.85 -34.95 9.05 -70.35q1.2 -13.25 -5.45 -18.85q-2.55 10.15 -2.85 21q-4.3 58.45 -14.8 116.5q-3.95 21.65 -9.55 42.9q-5.4 20.5 -6.4 41q-8.9 -49.95 -19.8 -99.05q-0.75 0.1 -0.85 0.45q-7.7 23 -10.8 47.7q-3.2 25.6 -11.05 49.85q0.1 -47.15 0.75 -94.65q0.8 -59.65 -1.8 -118.5q-3.65 30.5 -3.5 63.25q0.2 59.45 -0.25 119.2q-0.1 15.05 -2.2 29.8q-2.4 17.35 4.7 29.7q2.3 -1.45 2.3 -4.25q11 -33.7 16.5 -68.75q3.95 -25.05 5 -49.25q6.7 46.05 12.15 94.1q1.8 16.35 9.1 28.4q3.9 -5.15 3.2 -11.75q11.8 -57.7 22.2 -116.05q10.45 -58.4 11.55 -116.3q-5.25 5.9 -5.95 15.65q-30.1 80.8 -24.15 172.1q1.4 21.35 1.45 43q0 15.85 7.95 29.5q27.8 1.85 40.5 -26.1q3.05 -6.75 0.5 -13.65q-14.7 18.05 -36.25 27q-6.95 -45.15 -3.2 -91.65q2 -3.3 1.9 -7.2q-0.1 -3.65 -2.25 -6.55q-4.85 -60.05 15.8 -114.8q10.95 1.85 17.9 11.3q4.25 -16.85 -11.15 -23.2q-3.7 -1.55 -7.7 -1.9q26.4 48.4 17.15 105.1q-3.6 22.05 -9.35 43.8q-8.95 33.8 -44.75 28.8q-1.55 -0.2 -2.45 -1.25q-13 -14.7 -15.4 -35.85q-6.9 -59.55 6.9 -117.2q6.7 -27.95 32.65 -37.15q5.45 -0.85 10.25 1.25q0.85 2.55 1.1 5.25q0.15 1.9 0.9 3.75q-16.85 3.75 -25.15 19.55q-15.8 30.05 -19.9 64q-7.25 59.9 8.4 117.85q6.65 24.8 33.9 19.25q8 -1.65 13.25 -7.8q19.25 -22.4 24.9 -52.25q5.3 -27.8 6.75 -56.3q2.9 -57.8 -30.65 -102.8q-1.1 -0.25 -2.15 -0.7q-4.3 -1.7 -9.35 -0.8q-14.85 -1.2 -28.05 3.85q-5.95 65.45 -8.9 131.3q-5.05 112.5 -5.1 223.2q0 4.65 2.1 3q3.3 -21.1 4.35 -42.9q5.05 -101.8 7.45 -203.7q1.15 -1.9 1.55 -3.8q3.5 -36.45 3.75 -72.9q0.1 -12.85 -1.8 -25.55q0.8 -1.2 1.1 -2.7q-0.75 54.75 -3 109.5q-0.6 14.95 -2.6 29.75q-4.15 30.6 -0.2 59.5q25.05 3.7 49.75 3.75q3.6 -6.8 0 -13.5q-24.25 -1.6 -46.5 -5.5q4.25 -38.55 5.95 -77.25q2.7 -60 0.55 -118.5q-3.85 4.7 -3.95 12.25q-13.8 32.1 -11.4 68.45q1.25 18.8 8.05 36.05q12.2 31.1 46.6 20.8q25.65 -7.7 18.75 -29.95q-16 24.6 -46.95 15.1q-8.2 -2.55 -11.1 -10.15q-7.85 -20.75 -8.5 -41.75q24.45 -0.3 50.55 1.3q4.4 -8.5 -2.1 -13.6q-25 -1.2 -48.85 1.95q1 -17.7 7.15 -35.55q1.7 -4.95 6.2 -7.1q23.2 -11.1 48 0.2q1.2 -1.15 1.6 -2.75q0.45 -1.85 0.4 -3.75q-0.05 -1.9 -0.6 -3.75q-18.05 -9 -38.45 -8.9q-13 3.35 -18.5 16.1<g id="921" transform="matrix(1, 0, 0, 1, -37.2, 0)">
<path style="fill:#000000;fill-opacity:1" d="M493.2,119.25Q485.05 100.05 469.95 86.05Q451.15 68.75 426.8 75.4L427.15 86.85L423.2 247.15L430.8 245.1Q448.5 239.95 463.35 229.3Q479.4 217.75 488.75 200.2Q499.35 180.2 500.25 157.7Q501.05 137.75 493.2 119.25M439.95,60.5Q491.1 73.1 502.95 125.2Q514.4 175.65 486.1 220.3Q474.4 238.8 457.95 249.4Q470.7 302.6 488.4 354.85Q499.35 387.3 506.25 419.85Q506.7 422.2 505.2 424.2Q502.55 425.4 501.2 422.7Q480 367.3 465.6 309.8Q461.25 292.4 455.85 275.35Q452.05 263.3 453.4 252.15Q439.6 259.85 422.8 262.45L422.7 266Q421.05 325.45 420.15 385.2Q419.85 406.85 415.7 427.2Q408.95 415.4 411.45 398Q413.55 383.25 414.1 368.25L418.05 249Q419.8 189.85 418.8 130.5Q418.35 100.7 422.5 73.35Q422.25 70.8 422.5 68.25Q422.65 66.2 423.7 64.5L432.85 61Q436.45 59.65 439.95 60.5M343.7,65Q350.35 70.6 349.15 83.85Q345.95 119.25 340.1 154.2Q334.55 187.7 300.95 178.35Q272.95 170.6 274.8 140.65Q276.05 120.05 276.05 99.5Q276.1 78.25 282.2 60.25Q283.75 86.6 280.65 114.1Q277.85 139 289.7 158.45Q292.45 163 297.8 164.9Q326.25 175.2 332.45 149.4Q339.95 118.25 340.85 86Q341.15 75.15 343.7 65M350.45,180.5Q349.35 238.4 338.9 296.8Q328.5 355.15 316.7 412.85L316.65 413.2Q317.35 419.8 313.45 424.95Q306.15 412.9 304.35 396.55Q298.9 348.5 292.2 302.45Q291.15 326.65 287.2 351.7Q281.7 386.75 270.7 420.45L269.25 417.4L269.25 417.95Q269.25 420.75 266.95 422.2Q259.85 409.85 262.25 392.5Q264.35 377.75 264.45 362.7Q264.9 302.95 264.7 243.5Q264.55 210.75 268.2 180.25Q270.8 239.1 270 298.75Q269.35 346.25 269.25 393.4L269.75 391.75Q277.6 367.5 280.8 341.9Q283.9 317.2 291.6 294.2Q291.7 293.85 292.45 293.75L292.4 296.35L293.15 296.8L293.95 297.5Q304.85 346.6 313.75 396.55Q314.75 376.05 320.15 355.55Q325.75 334.3 329.7 312.65Q340.2 254.6 344.5 196.15Q345.2 186.4 350.45 180.5M379.65,181.15Q395.05 187.5 390.8 204.35L390.6 204.55Q383.65 195.1 372.7 193.25Q352.05 248 356.9 308.05L389.45 303Q391.6 305.9 391.7 309.55Q391.8 313.45 389.8 316.75L357.45 320.5L356.05 319.4Q352.3 365.9 359.25 411.05L362.7 415.2L365.2 416.45Q386.75 407.5 401.45 389.45Q404 396.35 400.95 403.1Q388.25 431.05 360.45 429.2L357.2 423.85Q349.25 410.2 349.25 394.35Q349.2 372.7 347.8 351.35Q341.85 260.05 371.95 179.25Q375.95 179.6 379.65 181.15M234.3,82.75Q234.05 80.05 233.2 77.5L231.6 75.85L230.65 74.55L230.2 74Q225.4 71.9 219.95 72.75Q194 81.95 187.3 109.9Q173.5 167.55 180.4 227.1Q182.8 248.25 195.8 262.95Q196.7 264 198.25 264.2Q234.05 269.2 243 235.4Q248.75 213.65 252.35 191.6Q261.6 134.9 235.2 86.5Q234.45 84.65 234.3 82.75M228.3,60.05Q229.35 60.5 230.45 60.75Q264 105.75 261.1 163.55Q259.65 192.05 254.35 219.85Q248.7 249.7 229.45 272.1Q224.2 278.25 216.2 279.9Q188.95 285.45 182.3 260.65Q166.65 202.7 173.9 142.8Q178 108.85 193.8 78.8Q202.1 63 218.95 59.25Q224 58.35 228.3 60.05M117.2,69.25L53.7 66.3Q55.6 79 55.5 91.85Q55.25 128.3 51.75 164.75L86.5 161L87.35 162.7L88.45 166L88.7 167.55L88.7 169.25L88.4 170.95Q88 172.85 86.85 174.75L51.1 177Q48.7 278.9 43.65 380.7Q42.6 402.5 39.3 423.6Q37.2 425.25 37.2 420.6Q37.25 309.9 42.3 197.4Q45.25 131.55 51.2 66.1L49.5 65.25L50 57.75Q63.2 52.7 78.05 53.9L117.2 56.5L117.85 58.4L118.5 61.75L118.6 63.75L118.45 65.6L118.3 66.55Q118 68.05 117.2 69.25M135.2,58Q137.35 116.5 134.65 176.5Q132.95 215.2 128.7 253.75Q150.95 257.65 175.2 259.25Q178.8 265.95 175.2 272.75Q150.5 272.7 125.45 269Q121.5 240.1 125.65 209.5Q127.65 194.7 128.25 179.75Q130.5 125 131.25 70.25Q131.35 62.7 135.2 58M116.95,279Q137.35 278.9 155.4 287.9L156.2 288.5L156.85 290Q157.4 291.85 157.45 293.75Q157.5 295.65 157.05 297.5Q156.65 299.1 155.45 300.25Q130.65 288.95 107.45 300.05Q102.95 302.2 101.25 307.15Q95.1 325 94.1 342.7Q117.95 339.55 142.95 340.75Q149.45 345.85 145.05 354.35L144.45 354.95Q118.35 353.35 93.9 353.65Q94.55 374.65 102.4 395.4Q105.3 403 113.5 405.55Q144.45 415.05 160.45 390.45Q167.35 412.7 141.7 420.4Q107.3 430.7 95.1 399.6Q88.3 382.35 87.05 363.55Q84.65 327.2 98.45 295.1Q103.95 282.35 116.95 279" />
</g>
</svg>
