<?xml version="1.0" encoding="utf-8"?>
<svg version="1.1" id="Layer_1"
xmlns="http://www.w3.org/2000/svg"
xmlns:xlink="http://www.w3.org/1999/xlink"


xml:space="preserve">
q-4.35 -24.95 -28.8 -13.95q-18.35 8.25 -28.2 26.55q-9.9 18.35 -14.75 38.4q-5.2 21.35 -5.8 42.75q-0.5 18.4 -0.1 37.45q0.4 20.6 1.7 41q1.45 23 19.5 35.05q11.35 7.65 24.75 -2q17.7 -12.7 29.85 -30.85q9.2 -13.7 10.35 -28.9q-2.35 -0.45 -4.1 1.25q-1.35 1.45 -2.15 3q-15.6 33.25 -48.95 43.7q-8.65 2.65 -11.6 -6.15q-5.6 -16.9 -8.95 -34.45q-5.25 -27.7 -2.85 -55.8q4.7 -5.15 2.6 -12.15q-0.8 -2.6 -2.6 -4.85q4.25 -56.15 47.8 -83.15q7.05 -4.3 15.45 -2.1q-25.05 0.95 -49.25 5.25q-0.7 1 -0.95 2.25q-0.35 2.2 -0.45 4.5q-8.65 57.05 -9.7 115.35q-1.15 59.7 -3.25 119.25q-1.05 29.75 -4.65 59q-2.1 16.65 4.7 28.7q3.85 -11.55 4.25 -24.75q0.75 -25.15 1.8 -50.25q3.8 -8.45 -1.3 -15.75q-31.05 -1.15 -60.1 7q1.25 -28.4 2.9 -56.75q0.9 -14.95 3.35 -29.7q2.15 -13.05 1.75 -25.35q35.15 -3.65 68.85 1.8q1.8 -3.15 1.8 -6.75q0 -3.6 -1.8 -6.75q-0.35 -0.4 -0.8 -0.5q2.1 20.2 5 40.8q7.25 50.95 16.35 101.6q10.45 58.15 15.65 117.15q1.25 14.65 1.3 29.2q0 13.85 7.9 20.75q0.9 -0.6 1.05 -1.35q4.25 -22.2 7.6 -44.7q8.55 -58.4 18.35 -116.65q7.3 -43.5 20.4 -85.6q9.15 -29.4 6.85 -58.15q-6.85 21.9 -13 45.65q-14.8 57.45 -25.25 116.1q-8.85 49.7 -17.05 99.5q-6.15 -58.95 -17.85 -116.95q-2.15 -10.85 -3 -21.8q-4.65 -59.55 -22.5 -115.35q-1.9 -0.2 -1.7 1.7q-2.4 44.4 -8.7 88.2q-3.35 23.45 1.5 44.45q1 -0.35 1.1 -0.9q8.6 -47.25 10.2 -95.85q0.7 -22.25 3 -44.1q6.25 -59.5 3.7 -117.85q-4 1.9 -4.3 7.4<g id="1073" transform="matrix(1, 0, 0, 1, -74.7, 0)">
<path style="fill:#000000;fill-opacity:1" d="M375.15,142.2Q366.75 140 359.7 144.3Q316.15 171.3 311.9 227.45L363.45 219.5Q365.25 221.75 366.05 224.35Q368.15 231.35 363.45 236.5L310.1 242.05Q307.7 270.15 312.95 297.85Q316.3 315.4 321.9 332.3Q324.85 341.1 333.5 338.45Q366.85 328 382.45 294.75L384.95 294Q385.75 292.45 387.1 291Q388.85 289.3 391.2 289.75Q390.05 304.95 380.85 318.65Q368.7 336.8 351 349.5Q337.6 359.15 326.25 351.5Q308.2 339.45 306.75 316.45Q305.45 296.05 305.05 275.45Q304.65 256.4 305.15 238Q305.75 216.6 310.95 195.25Q315.8 175.2 325.7 156.85Q335.55 138.55 353.9 130.3Q378.35 119.3 382.7 144.25L375.15 142.2M168.2,94.25Q170 97.4 170 101Q170 104.6 168.2 107.75Q134.5 102.3 99.35 105.95Q99.75 118.25 97.6 131.3Q95.15 146.05 94.25 161Q92.6 189.35 91.35 217.75Q120.4 209.6 151.45 210.75Q156.55 218.05 152.75 226.5L152.45 227.25L90.85 230Q89.8 255.1 89.05 280.25L85.75 399.45Q85.35 412.65 81.5 424.2Q74.7 412.15 76.8 395.5Q80.4 366.25 81.45 336.5Q83.55 276.95 84.7 217.25Q85.75 158.95 94.4 101.9L94.3 100.25Q94.4 97.95 94.75 95.75Q95 94.5 95.7 93.5Q119.9 89.2 144.95 88.25L167.4 93.75Q167.85 93.85 168.2 94.25M216.45,90.5Q234.3 146.3 238.95 205.85Q239.8 216.8 241.95 227.65Q253.65 285.65 259.8 344.6L260.9 356.25Q269.1 306.45 277.95 256.75Q288.4 198.1 303.2 140.65Q309.35 116.9 316.2 95Q318.5 123.75 309.35 153.15Q296.25 195.25 288.95 238.75Q279.15 297 270.6 355.4Q267.25 377.9 263 400.1Q262.85 400.85 261.95 401.45L261.7 400.9L260.95 401.7Q253.05 394.8 253.05 380.95Q253 366.4 251.75 351.75Q246.55 292.75 236.1 234.6Q227 183.95 219.75 133Q216.85 112.4 214.75 92.2Q214.55 90.3 216.45 90.5M197.45,113Q200 171.35 193.75 230.85Q191.45 252.7 190.75 274.95Q189.15 323.55 180.55 370.8Q180.45 371.35 179.45 371.7Q174.6 350.7 177.95 327.25Q184.25 283.45 186.65 239.05L193.15 120.4Q193.45 114.9 197.45 113" />
</g>
</svg>
