<?xml version="1.0" encoding="utf-8"?>
<svg version="1.1" id="Layer_1"
xmlns="http://www.w3.org/2000/svg"
xmlns:xlink="http://www.w3.org/1999/xlink"


xml:space="preserve">
q-6.35 19.85 -8.45 40.55q-2.15 21.6 6.75 41.4q9.9 22 35.85 11.9q9.7 -3.65 18.3 -9.3q2 -4.65 1.55 -9.75q-0.3 -3.6 -2.8 -6q-15.9 10.75 -35.05 13.25q-15.25 -18.3 -12.55 -42.65q3.15 -4.05 2.5 -9.25q-0.5 -4.15 -3.5 -7q5.35 -27.9 28.85 -39.35q9.45 -4.55 19.5 -0.5q5.1 -11.5 -6.7 -15.1q-5.5 -1.65 -11.3 -2.1q-22.2 5.6 -29.7 28.95q-26.65 1.35 -54.05 -2.65q-7.2 1.45 -14.85 3.4q-13.95 3.55 -27.6 4.35q-1.85 -0.25 -3.5 0.55q-1.1 1.3 -1.35 3q-0.75 4.55 0.7 8.95q-3.5 43.55 -3.4 88.05q-0.2 59.85 -3.55 119.1q-0.8 14.15 6.05 21.6q4.25 -30.6 3.1 -62.25q-2.2 -59.65 -1.75 -119.2q0.45 -52.65 1.75 -104.6q2.95 -7.45 -1.7 -13.45q-35.6 -2.4 -69.1 5.3q1.5 -54.1 -0.45 -106.75q10.95 2.35 22.25 -1.45q8.05 -2.75 16.45 -2.7q1.6 -4.8 0.05 -9.7q-0.45 -1.45 -1.7 -2.25q-0.3 38.9 -2.35 77.9q-0.9 16.55 4.05 29.85q4.45 -5.3 4.45 -13.25q0.15 -60.1 -0.95 -118.5q-5.05 10.05 -5.2 24q-12.85 19.55 -21.55 43.1q-12.2 33.1 -21.05 67q-0.85 -2.25 -2.6 -4.6q-35.65 -47.85 -61.55 -101q-2.8 0.55 -2.7 4q0.25 7.8 3.35 14.95q23.75 54.05 60.35 98.95q-13.5 53.35 -26.7 106.45q-4.35 17.55 -10.55 34.45q-6 16.35 1.75 28.15q3.3 -2.15 4.25 -6.3q6.5 -29.1 15.95 -57.25q-2.3 21.25 -4.35 42.9q-0.7 1 -0.9 2.25q-0.45 2.55 -0.35 5.25q0.1 2.75 2 4.5q-0.8 8.2 -2.2 16.15q-4.15 23.05 -0.6 44.55q4.45 -3.15 5.2 -9.55q3.2 -27.9 4.5 -55.6q9.2 0 16.95 -3.85q15.15 37.05 31.35 74.95q1.95 2 4 0q1.6 -2.75 1 -5.85q-3.85 -20.05 -12.9 -39q-8.35 -17.65 -18.75 -32.9q5.35 -3.7 9.9 -9.5q7.4 -9.45 8.3 -21.1q2.45 -33.45 -33.05 -38.1q-8.1 2.2 -10 10.35q-1.3 5.75 1.25 9.9q0.65 -0.05 1.05 -0.3q14.4 -0.55 26.05 8.1q11.55 20.7 -10.65 36.55q-8.15 5.8 -18.25 6.25q-3.35 27.9 -5.05 56.7q-1.75 29.3 -5.5 58.25q-2.1 16.45 3.55 29.95q2.25 -3.2 3.35 -6.95q2.55 -4.6 1.8 -9.75q-0.45 -3.2 -2.8 -5.25q-5.55 -3.15 -12 -2.55q-25.7 4.7 -51.6 8.5q0.95 -4.15 1.35 -8.4q5.4 -59.3 2.75 -117.85<g id="1069" transform="matrix(1, 0, 0, 1, -67.15, 0)">
<path style="fill:#000000;fill-opacity:1" d="M273.95,60.25L278.7 60.55Q284.5 61 290 62.65Q301.8 66.25 296.7 77.75L293.35 76.4Q283.3 72.35 273.85 76.9Q250.35 88.35 245 116.25L284.45 109.5Q287.45 112.35 287.95 116.5Q288.6 121.7 285.45 125.75L242.4 129.1Q239.7 153.45 254.95 171.75L260.4 171.25Q279.55 168.75 295.45 158Q297.95 160.4 298.25 164Q298.7 169.1 296.7 173.75Q288.1 179.4 278.4 183.05Q252.45 193.15 242.55 171.15Q233.65 151.35 235.8 129.75Q237.9 109.05 244.25 89.2Q251.75 65.85 273.95 60.25M177.45,55.75Q178.7 56.55 179.15 58Q180.7 62.9 179.1 67.7L178.4 69.2L177.7 70L115.7 69.85Q107.3 69.8 99.25 72.55Q87.95 76.35 77 74Q78.95 126.65 77.45 180.75L77.35 184.55Q110.85 176.85 146.45 179.25Q151.1 185.25 148.15 192.7L147.7 193.5L77.5 196L77.1 195.4Q75.8 247.35 75.35 300Q74.9 359.55 77.1 419.2Q78.25 450.85 74 481.45Q67.15 474 67.95 459.85Q71.3 400.6 71.5 340.75L71.55 221.5L71.4 161.5Q71.3 117 74.8 73.45L72.5 72.75L72.1 71.95Q70.65 67.55 71.4 63Q71.65 61.3 72.75 60L73.5 59.55Q75.15 58.75 77 59L78.35 59.7L79.5 60.75Q93.15 59.95 107.1 56.4Q114.75 54.45 121.95 53Q149.35 57 176 55.65L177.45 55.75M215.45,58.5Q216.55 116.9 216.4 177Q216.4 184.95 211.95 190.25Q207 176.95 207.9 160.4Q209.95 121.4 210.25 82.5Q210.4 68.55 215.45 58.5M306.15,190.8L306.7 191.5L269.6 302.85Q260.15 331 253.65 360.1L228.2 475.15Q227.25 479.3 223.95 481.45Q216.2 469.65 222.2 453.3Q228.4 436.4 232.75 418.85Q245.95 365.75 259.45 312.4Q222.85 267.5 199.1 213.45Q196 206.3 195.75 198.5Q195.65 195.05 198.45 194.5Q224.35 247.65 260 295.5Q261.75 297.85 262.6 300.1Q271.45 266.2 283.65 233.1Q292.35 209.55 305.2 190L306.15 190.8M115.2,216.75Q112.65 212.6 113.95 206.85Q115.85 198.7 123.95 196.5Q159.45 201.15 157 234.6Q156.1 246.25 148.7 255.7Q144.15 261.5 138.8 265.2Q149.2 280.45 157.55 298.1Q166.6 317.05 170.45 337.1Q171.05 340.2 169.45 342.95Q167.4 344.95 165.45 342.95Q149.25 305.05 134.1 268Q126.35 271.85 117.15 271.85Q115.85 299.55 112.65 327.45Q111.9 333.85 107.45 337Q103.9 315.5 108.05 292.45Q109.45 284.5 110.25 276.3L110.7 271.45L109.45 271.25Q107.55 269.5 107.45 266.75Q107.35 264.05 107.8 261.5Q108 260.25 108.7 259.25L111.9 259.35Q113.95 237.7 116.25 216.45Q115.85 216.7 115.2 216.75M117.55,211.9L117.6 259.15Q127.7 258.7 135.85 252.9Q158.05 237.05 146.5 216.35Q134.85 207.7 120.45 208.25L117.55 211.9M120.45,343.45Q123.1 402 117.7 461.3Q117.3 465.55 116.35 469.7Q142.25 465.9 167.95 461.2Q174.4 460.6 179.95 463.75L180.2 463.95L185.7 463.4L188.45 462.95Q190.8 465 191.25 468.2Q192 473.35 189.45 477.95L116.3 481.5Q115.2 485.25 112.95 488.45Q107.3 474.95 109.4 458.5Q113.15 429.55 114.9 400.25Q116.6 371.45 119.95 343.55L120.45 343.45" />
</g>
</svg>
