<?xml version="1.0" encoding="utf-8"?>
<svg version="1.1" id="Layer_1"
xmlns="http://www.w3.org/2000/svg"
xmlns:xlink="http://www.w3.org/1999/xlink"


xml:space="preserve">
q17 -3.15 23.3 10.7q0.25 1.7 -1.2 1.45q-26.3 -9.45 -50.8 8.65q-36.75 27.05 -48.5 71.05q-11.3 42.25 -17.6 85.7q-0.8 5.5 -1.45 11.05q26.85 -0.05 54 -2.75q4.5 2.25 10.85 1.15q0.4 1.45 0.4 3q-4.3 1.15 -9 1.25q-1.45 0.4 -2.35 1.65q-27.5 5.05 -54.25 2.25q-5 48.8 0.05 98.15q5.6 55.25 52.75 82.4q2.35 1.35 5.1 1.45q48.65 2.05 83.45 -32.15q1.3 18.8 -18.05 31.5q-31.35 20.6 -68.2 14.05q-14.15 -2.5 -23.85 -13.6q-41.9 -47.75 -41.05 -112.15q0.55 -44.9 6 -88.65q6.95 -56.4 26.3 -109.5q12.45 -34.35 42 -55.95q14.75 -10.8 32.35 -15.4q-0.05 1.65 -1.1 2.95q-0.15 54.95 -1 111.1q32 -4.35 64.9 -5.35q3 4.55 1.05 9.75q-32.95 3.55 -65.75 1.15q-0.85 59.55 -0.55 119.2q0.15 35.6 -4.25 69.75q-7 -2.65 -5.7 -13.25q3.8 -29.65 3.95 -59.75q0.35 -59.5 1.55 -119.2q1.2 -59.5 0.9 -119.25q-0.25 -55.65 5.95 -108.3q-0.75 -2.2 -0.4 -4.5q0.35 -0.7 0.95 -1.2q1.65 0.45 2.75 1.75q1.65 0.05 3.25 0.7q1.8 2.25 1.75 5.25q4.5 58.9 4.15 119.25q-0.3 59.55 0.05 119.25q0.35 59.55 1.9 119.2q0.65 26.45 -4.85 51q-5.1 -12.45 -4.05 -29.35q1.8 -29.9 1.9 -59.9q0.15 -59.55 -0.5 -119.2q-0.7 -59.5 -0.6 -119.25q0.05 -41.15 1.65 -81q-40.05 2.55 -80.1 1q2.65 54.05 -1 108.45q-1.4 21.3 -2.3 42.75q5.15 3.4 2.55 10q-27.3 0.55 -55.95 -1.15q-1.35 34.4 -1.3 69.15q0.1 59.5 1.05 119.2q0.7 41.45 -6.25 81q-7.15 -11.75 -4.35 -29.2q4.65 -29.45 4.55 -59.8q-0.25 -59.7 0.1 -119.2q0.2 -30.85 1.25 -61.45q-1 -2.6 -0.15 -5.25q0.95 -25.6 2.5 -51.05q3.05 -50.2 4.4 -100.5q-0.95 -3.7 -0.1 -7.45q0.1 -0.45 0.35 -0.8q39.25 0 80.1 -3.8q3.1 4.85 0.95 10.45<g id="1074" transform="matrix(1, 0, 0, 1, -38.6, 0)">
<path style="fill:#000000;fill-opacity:1" d="M437.95,69.75Q454.95 66.6 461.25 80.45L461.7 81.25L461.65 82L461.7 83.45Q461.95 85.15 460.5 84.9L460.45 84.5Q434.15 75.05 409.65 93.15Q372.9 120.2 361.15 164.2Q349.85 206.45 343.55 249.9Q342.75 255.4 342.1 260.95L342.45 260.5Q369.3 260.45 396.45 257.75Q400.95 260 407.3 258.9L407.95 259.25Q408.35 260.7 408.35 262.25L408.15 263.7L407.7 265.25Q403.4 266.4 398.7 266.5Q397.25 266.9 396.35 268.15L395.95 268.5Q368.45 273.55 341.7 270.75L341.1 269.6Q336.1 318.4 341.15 367.75Q346.75 423 393.9 450.15Q396.25 451.5 399 451.6Q447.65 453.65 482.45 419.45Q483.75 438.25 464.4 450.95Q433.05 471.55 396.2 465Q382.05 462.5 372.35 451.4Q330.45 403.65 331.3 339.25Q331.85 294.35 337.3 250.6Q344.25 194.2 363.6 141.1Q376.05 106.75 405.6 85.15Q420.35 74.35 437.95 69.75M328.2,64.75L328.15 65.5L328.05 67Q328 68.65 326.95 69.95L326.45 70.5L250.45 63.75L249.2 62.4Q249.05 117.35 248.2 173.5L247.55 221.6Q279.55 217.25 312.45 216.25Q315.45 220.8 313.5 226L313.2 226.75Q280.25 230.3 247.45 227.9L246.5 292.75Q245.65 352.3 245.95 411.95Q246.1 447.55 241.7 481.7Q234.7 479.05 236 468.45Q239.8 438.8 239.95 408.7Q240.3 349.2 241.5 289.5Q242.7 230 242.4 170.25Q242.15 114.6 248.35 61.95L247.5 61.7L246.7 61.25Q245.95 59.05 246.3 56.75L246.4 56L246.6 55.3Q246.95 54.6 247.55 54.1L247.9 53.9L247.95 53.75Q249.6 54.2 250.7 55.5L250.95 55.75L323.2 58.8Q324.85 58.85 326.45 59.5Q328.25 61.75 328.2 64.75M185.2,81Q189.7 139.9 189.35 200.25Q189.05 259.8 189.4 319.5Q189.75 379.05 191.3 438.7Q191.95 465.15 186.45 489.7Q181.35 477.25 182.4 460.35Q184.2 430.45 184.3 400.45Q184.45 340.9 183.8 281.25Q183.1 221.75 183.2 162Q183.25 120.85 184.85 81L185.2 81M136.4,64.95L135.95 65.75Q95.9 68.3 55.85 66.75Q58.5 120.8 54.85 175.2Q53.45 196.5 52.55 217.95L105.95 215.75Q111.1 219.15 108.5 225.75L108.2 226.5Q80.9 227.05 52.25 225.35Q50.9 259.75 50.95 294.5Q51.05 354 52 413.7Q52.7 455.15 45.75 494.7Q38.6 482.95 41.4 465.5Q46.05 436.05 45.95 405.7Q45.7 346 46.05 286.5Q46.25 255.65 47.3 225.05L47 225Q46 222.4 46.85 219.75L47.5 218.25L47.55 218.25Q48.5 192.65 50.05 167.2Q53.1 117 54.45 66.7L49.75 66.5Q48.8 62.8 49.65 59.05Q49.75 58.6 50 58.25L54.7 58.3L54.7 57L55.25 56.75L55.35 58.3Q94.6 58.3 135.45 54.5Q138.55 59.35 136.4 64.95" />
</g>
</svg>
