<?xml version="1.0" encoding="utf-8"?>
<svg version="1.1" id="Layer_1"
xmlns="http://www.w3.org/2000/svg"
xmlns:xlink="http://www.w3.org/1999/xlink"


xml:space="preserve">
q-28.35 12.6 -33.05 44.45q-3.55 24.15 5.85 46q11.5 26.75 26.25 52.2q28.4 49.1 30.7 105.75q0.7 17.05 -10.7 28.95q-14.4 15.1 -32.85 25.6q-24.6 14.1 -49.95 10.75q-1.4 0.7 -2.75 0.25q-2.1 -0.7 -3.65 0.4q-1.2 2.45 -1.3 5.25q-0.15 3.1 1.85 4.55q19.75 14.2 43.7 1.65q26.2 -13.7 48.15 -32.85q4.2 -3.6 5.75 -8.75q11.95 -39.1 3.65 -80.05q-11.65 -57.75 -46.05 -106.2q-23.85 -33.6 -3.7 -68.95q13.75 -24.1 37.95 -13.35q0.35 -2.6 -0.15 -5.3q-0.3 -1.55 -1.05 -3q-5.95 -8.1 -16.55 -6.25q-47 48.45 -51.9 118.6q-2.85 40.65 -0.75 81.4q0.55 11.15 2.75 22.3q2.85 14.5 8.1 28.4q3.6 9.4 10.25 16.95q3.45 3.95 8.45 5.4q11.5 3.25 22.55 -1.45q20.15 -8.55 32.05 -26.1q7 -10.35 1.75 -19.85q-21.5 31.9 -55.4 27.75q-10.9 -1.55 -15.5 -11.7q-5.3 -11.65 -6.65 -24.5q-2.05 -19.1 -2.55 -38.35q-0.7 -25.65 2.1 -51.2q26.45 3.9 52.25 -2.9q5.5 -6.45 0.95 -14.1q-24.8 5.05 -50.4 5.25q5.5 -56.65 42.2 -95.45q4.25 -4.5 10.85 -3.4q6.4 -11.6 -5.15 -22.95q-0.45 33.05 4.7 66.75q8.85 58.2 20.3 115.95q5.05 25.25 8.35 50.7q7.55 58.25 16.15 116.05q1.1 1.5 2.6 1.5q1.15 1.85 3.25 1.75q7.05 -21.9 9.6 -46.15q6.2 -58.8 15.75 -117.05q9.85 -58.3 20.2 -116.55q1.3 -7.45 3.7 -14.4q4.35 -12.85 -0.1 -21.8q-6.7 12.4 -8.75 27.4q-5.8 42.35 -14.15 84.35q-11.5 58 -20.35 116.6q-7.4 48.9 -12.3 97.6q-1.75 -22.25 -4.3 -44.6q-3.3 -29.3 -9.2 -58.05q-11.9 -57.65 -21 -115.9q-9.1 -58.45 -18.7 -116.15q-0.5 0.1 -0.5 0.25q-7.45 1.3 -15.35 3.1q-23.05 5.35 -45.1 8.4q-1.2 2.9 -1.1 6q0 2.3 0.9 4.45q-4.1 59.25 -4.9 119.3q-0.85 59.05 -2.8 118.4q-0.6 17.4 5.7 29.05q3.9 -34.45 4.1 -70.5q0.1 -8.45 0.55 -16.9q33.55 -3 65.9 1.15q1.6 -2.8 1.9 -6q0.55 -5.3 -2.65 -9q-3.5 -1.25 -7.3 -1.6q-28.35 -2.45 -54.8 4.25q4.95 -54.45 1.9 -108.4q5.2 1.6 10.8 -0.25q39.1 -13.15 80.5 -8.95q2.15 -2.35 2.35 -5.75q0.15 -3.5 -1.15 -6.75q-0.35 -0.4 -0.75 -0.4q-3.5 47.4 -6.25 95.2q-3.45 58.9 -2.85 118.5q0.1 15 -1.85 29.7q-2.3 17.55 4.95 29.25q5.7 -31.55 4.5 -65.25q-1.6 -44.8 1.75 -89.1q4.5 -59.8 0.5 -118.6q-0.75 0.1 -0.75 0.3<g id="1079" transform="matrix(1, 0, 0, 1, -60.45, 0)">
<path style="fill:#000000;fill-opacity:1" d="M438.5,91L439.7 92L440 92.7Q440.75 94.15 441.05 95.7Q441.55 98.4 441.2 101Q417 90.25 403.25 114.35Q383.1 149.7 406.95 183.3Q441.35 231.75 453 289.5Q461.3 330.45 449.35 369.55Q447.8 374.7 443.6 378.3Q421.65 397.45 395.45 411.15Q371.5 423.7 351.75 409.5Q349.75 408.05 349.9 404.95Q350 402.15 351.2 399.7L351.8 399.1Q353.35 398 355.45 398.7Q356.8 399.15 358.2 398.45Q383.55 401.8 408.15 387.7Q426.6 377.2 441 362.1Q452.4 350.2 451.7 333.15Q449.4 276.5 421 227.4Q406.25 201.95 394.75 175.2Q385.35 153.35 388.9 129.2Q393.6 97.35 421.95 84.75Q432.55 82.9 438.5 91M360.3,113.3Q371.85 124.65 365.45 136.25L360.95 126.75L356.1 125.65Q349.5 124.55 345.25 129.05Q308.55 167.85 303.05 224.5Q328.65 224.3 353.45 219.25L354.4 220.65Q358.95 228.3 353.45 234.75Q327.65 241.55 301.2 237.65Q298.4 263.2 299.1 288.85Q299.6 308.1 301.65 327.2Q303 340.05 308.3 351.7Q312.9 361.85 323.8 363.4Q357.7 367.55 379.2 335.65Q384.45 345.15 377.45 355.5Q365.55 373.05 345.4 381.6Q334.35 386.3 322.85 383.05Q317.85 381.6 314.4 377.65Q307.75 370.1 304.15 360.7Q298.9 346.8 296.05 332.3Q293.85 321.15 293.3 310Q291.2 269.25 294.05 228.6Q298.95 158.45 345.95 110L358.45 111.5L360.3 113.3M200.2,71.25Q209.8 128.95 218.9 187.4Q228 245.65 239.9 303.3Q245.8 332.05 249.1 361.35Q251.65 383.7 253.4 405.95Q258.3 357.25 265.7 308.35Q274.55 249.75 286.05 191.75Q294.4 149.75 300.2 107.4Q302.25 92.4 308.95 80Q313.4 88.95 309.05 101.8Q306.65 108.75 305.35 116.2Q295 174.45 285.15 232.75L280.3 261.75Q270.75 320 264.55 378.8Q262 403.05 254.95 424.95Q252.85 425.05 251.7 423.2L251.8 422.45Q250.3 422.45 249.2 420.95Q240.6 363.15 233.05 304.9Q229.75 279.45 224.7 254.2Q213.25 196.45 204.4 138.25Q199.25 104.55 199.7 71.5Q199.7 71.35 200.2 71.25M167.2,69.75L167.65 70.5Q168.95 73.75 168.8 77.25Q168.6 80.65 166.45 83Q125.05 78.8 85.95 91.95Q80.35 93.8 75.15 92.2Q78.2 146.15 73.25 200.6L73.15 201.75Q99.6 195.05 127.95 197.5Q131.75 197.85 135.25 199.1L137.45 199.75Q140.65 203.45 140.1 208.75Q139.8 211.95 138.2 214.75Q105.85 210.6 72.3 213.6Q71.85 222.05 71.75 230.5L70.85 349.7Q70.65 385.75 66.75 420.2Q60.45 408.55 61.05 391.15Q63 331.8 63.85 272.75Q64.65 212.7 68.75 153.45L73.05 91.4L71.75 90.75L71.3 89.95Q70.4 87.8 70.4 85.5Q70.3 82.4 71.5 79.5Q93.55 76.45 116.6 71.1Q124.5 69.3 131.95 68L166.45 69.35Q166.85 69.35 167.2 69.75M183.45,104Q187.45 162.8 182.95 222.6Q179.6 266.9 181.2 311.7Q182.4 345.4 176.7 376.95Q169.45 365.25 171.75 347.7Q173.7 333 173.6 318Q173 258.4 176.45 199.5Q179.2 151.7 182.7 104.3Q182.7 104.1 183.45 104" />
</g>
</svg>
