<?xml version="1.0" encoding="utf-8"?>
<svg version="1.1" id="Layer_1"
xmlns="http://www.w3.org/2000/svg"
xmlns:xlink="http://www.w3.org/1999/xlink"


xml:space="preserve">
q-44.4 -1.1 -88.5 4.5q-9.45 82.8 -4.9 165.9q0.35 6.3 3.25 9.55q6.45 -73.4 4.4 -147.55q2.5 -5.35 -0.3 -10.5q-4.15 34.3 -5.6 69.65q-9.6 0.6 -17.95 5.4q1.6 -31.25 -4 -58.75q-2.8 56.1 -4.95 114.2q-0.4 11.15 -1.8 22.3q-2.1 16.9 4.25 29.45q1.95 -1.35 2.05 -3.75q1.6 -45.05 3.8 -90.1q8.85 -2.8 18.15 -3.9q-1.2 49 1.25 98.25q0.6 2.65 3 2q3.4 -17.35 2.65 -36q-0.7 -18.05 0.05 -35.9q2.5 -60 -0.2 -118.55q-13.55 -1.65 -24.25 2.05q-3.25 36 -5.3 72.95q-3.4 60.5 -3.15 120.3q3.45 0.6 4.15 -4.2q3.1 -20.9 3.55 -42.4q0.45 -21.1 1.75 -42.15q1.1 -2.15 1.45 -4.4q-12 0.3 -23.35 4.25q1.3 -1.25 1.55 -3.2q-2.7 48.25 -3.45 98.2q-0.45 30.15 -4.35 59.8q-2.2 16.85 4.3 29.45q4.8 -30.25 5.1 -62.25q0.15 -18.35 1.55 -36.6q3.35 -44.95 -2.65 -88.6<g id="1075" transform="matrix(1, 0, 0, 1, -138.55, 0)">
<path style="fill:#000000;fill-opacity:1" d="M399.65,194.2L354.55 198.35L355.45 226.25Q357.5 300.4 351.05 373.8Q348.15 370.55 347.8 364.25Q343.25 281.15 352.7 198.35L309.95 194.85L309.95 186.75Q354.05 181.15 398.45 182.25L399.35 183.7Q402.15 188.85 399.65 194.2M421.2,182.25Q423.9 240.8 421.4 300.8Q420.65 318.65 421.35 336.7Q422.1 355.35 418.7 372.7Q416.3 373.35 415.7 370.7Q413.25 321.45 414.45 272.45Q405.15 273.55 396.3 276.35Q394.1 321.4 392.5 366.45Q392.4 368.85 390.45 370.2Q384.1 357.65 386.2 340.75Q387.6 329.6 388 318.45Q390.15 260.35 392.95 204.25Q398.55 231.75 396.95 263L396.95 263.2Q405.3 258.4 414.9 257.8L415.1 252.2Q416.55 216.85 420.7 182.55L421.2 182.25M207.7,190.5L148.1 187.9L149.45 258.15Q160.8 254.2 172.8 253.9L188.85 254.7L189.9 256.5L190.4 257.95L190.7 259.45L190.8 261L190.7 262.6Q190.35 264.85 189.25 267L149.05 269.75L148.25 283.8Q146.95 304.85 146.5 325.95Q146.05 347.45 142.95 368.35Q142.25 373.15 138.8 372.55Q138.55 312.75 141.95 252.25Q144 215.3 147.25 179.3Q157.95 175.6 171.5 177.25L208.2 180L208.65 180.75L208.9 181.5L209.25 183.75L209.35 186L209.25 187.3Q209 189.25 207.7 190.5M270.45,182.5Q276.45 226.15 273.1 271.1Q271.7 289.35 271.55 307.7Q271.25 339.7 266.45 369.95Q259.95 357.35 262.15 340.5Q266.05 310.85 266.5 280.7Q267.25 230.75 269.95 182.5L270.45 182.5" />
</g>
</svg>
