<?xml version="1.0" encoding="utf-8"?>
<svg version="1.1" id="Layer_1"
xmlns="http://www.w3.org/2000/svg"
xmlns:xlink="http://www.w3.org/1999/xlink"


xml:space="preserve">
q-1.4 46 -2.1 93.2q-0.45 30.2 -4.65 59.75q-2.35 16.55 2.9 30q1.75 -0.25 2 -2q4.95 -33.7 6.15 -68.2q0.5 -14.15 0.6 -28.25q22.1 0.75 44 0.2q3.75 -7.2 -0.85 -13.4q-23.2 -3 -43.8 2.85q-0.25 -35 -3.3 -69.55q38.65 2.8 77.1 1.95q3.1 -5.9 0.45 -11.95q-0.75 -0.4 -1.5 -0.45q-1.8 6.6 -1.45 13.35q4.1 78.6 -3.5 156.5q-0.5 4.85 -0.25 9.6q0.05 1.35 0.4 2.7q0.6 2.6 1.7 5.1q1 2.25 2.35 4.45q5.8 -32.05 6.3 -64.7q0.3 -20.05 -0.2 -39.85q1.3 -1.75 1.95 -3.9q-0.05 -3.3 -2.1 -5.8q24.9 7.85 51 7.7q-12.6 16.55 -21.7 35.75q-8 16.8 -11.5 35.1q-4.1 21.6 -1.75 43.25q2.3 21.4 12.8 40q11.05 19.65 33.5 19.45q21.45 -1.2 36.65 -16.6q15.35 -15.45 20.95 -36.7q5.5 -20.95 4.8 -42.55q-0.7 -20.25 -5.15 -40.05q-5.05 -22.35 -22.1 -35.95q-18.15 -14.5 -39 -6.3q-4.15 1.55 -7.5 4.6q27.6 20.15 30.7 57.15q1.8 21.7 -4.6 42.55q-5.3 17.15 -16.5 31.25q-10.55 13.35 -27 16.25q-27.5 4.75 -38.6 -20.9q-14.75 -34.05 -5.85 -70.1q5.7 -23.25 18.9 -42.75q5.5 -8.05 13.65 -13.35q6.95 -4.45 14.8 -6.85<g id="930" transform="matrix(1, 0, 0, 1, -138.05, 0)">
<path style="fill:#000000;fill-opacity:1" d="M343.55,180.25L343.95 179.5L402.95 177L420.7 178.05Q421.45 178.1 422.2 178.5L422.5 179.2Q425.15 185.25 422.05 191.15L421.45 192Q383 192.85 344.35 190.05Q347.4 224.6 347.65 259.6Q368.25 253.75 391.45 256.75Q396.05 262.95 392.3 270.15L391.7 270.95Q369.8 271.5 347.7 270.75Q347.6 284.85 347.1 299Q345.9 333.5 340.95 367.2Q340.7 368.95 338.95 369.2Q333.7 355.75 336.05 339.2Q340.25 309.65 340.7 279.45Q341.4 232.25 342.8 186.25L342.9 182.95L342.95 180.5L343.45 180.5L343.45 180.55L343.55 180.25M206.8,187.2L204.7 197L197.15 197.15Q171.05 197.3 146.15 189.45L149 254.2L192.85 255.95Q194.9 258.45 194.95 261.75L194.95 262.95L194.85 264.15L194.7 265.35L194.45 266.55Q193.8 268.7 192.5 270.45L148.85 267.15Q149.35 286.95 149.05 307Q148.55 339.65 142.75 371.7Q141.4 369.5 140.4 367.25Q139.3 364.75 138.7 362.15Q138.35 360.8 138.3 359.45Q138.05 354.7 138.55 349.85Q146.15 271.95 142.05 193.35Q141.7 186.6 143.5 180L144.9 179.45L145.5 178.25L145.75 179.05L146 179.05L204.45 182.75L206.8 187.2M261.3,183.95Q282.15 175.75 300.3 190.25Q317.35 203.85 322.4 226.2Q326.85 246 327.55 266.25Q328.25 287.85 322.75 308.8Q317.15 330.05 301.8 345.5Q286.6 360.9 265.15 362.1Q242.7 362.3 231.65 342.65Q221.15 324.05 218.85 302.65Q216.5 281 220.6 259.4Q224.1 241.1 232.1 224.3Q241.2 205.1 253.8 188.55Q257.15 185.5 261.3 183.95M274.95,192.5Q267.1 194.9 260.15 199.35Q252 204.65 246.5 212.7Q233.3 232.2 227.6 255.45Q218.7 291.5 233.45 325.55Q244.55 351.2 272.05 346.45Q288.5 343.55 299.05 330.2Q310.25 316.1 315.55 298.95Q321.95 278.1 320.15 256.4Q317.05 219.4 289.45 199.25L286.95 194.75L274.95 192.5" />
</g>
</svg>
