<?xml version="1.0" encoding="utf-8"?>
<svg version="1.1" id="Layer_1"
xmlns="http://www.w3.org/2000/svg"
xmlns:xlink="http://www.w3.org/1999/xlink"


xml:space="preserve">
q-11.2 -34.8 -44.55 -47.4q-1.05 1 -1.75 2.25q-6.15 1.7 -11.4 5.25q-25.2 17 -35.65 46.35q-11.8 33.25 -15.9 68q-6.85 58.8 -7.45 118.4q-0.6 60.25 16.95 116.35q3.95 12.65 10.75 24q19 31.7 52.8 18.7q5.9 -2.25 10.35 -6.3q27.15 -24.55 42.5 -59.45q23.85 -54.3 32.4 -113.35q8.5 -59.1 -1.35 -117.8q-5 -29.75 -14.2 -58.25q-26.5 3.35 -34.2 28.75q-7.45 24.7 -9 50.95q-1.65 28.75 -4.3 57.6q-3.05 33.35 22 52.65q40.45 0.35 61.05 -35q6.85 -11.75 -1.8 -18.2q-3.1 3.85 -5.65 8.35q-17.35 30.9 -52.85 30.9q-1.55 -1.4 -3.5 -2.25q-10.35 -23.25 -7.35 -49.7q1.5 -13.55 2.35 -27.1q19.05 1.35 37.75 -1.45q2.75 -6.45 -1.2 -11.95q-18.85 1.3 -36.5 5.7q0.7 -30.5 20.3 -52.5q28.15 -12.2 54.5 3q2.3 -3.25 0.1 -6.5q-12.15 -18.25 -37.35 -14.5q2.15 29.95 5.2 60.15q3.05 29.8 11 56.6q11.55 -30.45 19.5 -63.25q6.75 34.45 22 65.25q12.95 -16.45 16.6 -39.1q3.4 -20.75 10.85 -39.95q8.65 -22.25 5.55 -43.45q-4.55 2.7 -7.5 8q-0.1 1.95 1.75 0.2q-12.8 48.2 -26.4 96.1q-12.7 -33.25 -22.75 -66.5q-12.75 28.4 -19.25 60q-4.6 -47.95 -15.15 -93.8q-1.8 -0.25 -1.7 1.5q-8.7 60.45 -35.2 115.45q-3.55 7.4 -6.8 14.9q-18.4 42.45 -64.4 42.85q-14.7 -10.8 -21.5 -26.95q-9.45 -22.35 -13.15 -46q-6.9 -43.75 -7.5 -88.25q-0.3 -22.3 0.2 -44.25q1.2 -58.9 20.1 -114.4q9.3 -27.4 28.6 -42.85q-0.25 0.25 -0.1 0.45q0.1 0.2 0.45 0.2q0.75 -1.3 1.95 -2.1q10.85 -4.15 22.45 -3.8q17.75 -0.65 33.8 6.35q3.25 1.45 5.4 4.15q24.85 31.1 32.85 70.8q11.9 58.95 3.35 118.7q9.25 -10.25 6.6 -23.95q-4.75 -24.85 -29.55 -17q-6.55 42.1 -2.55 84.5q11.75 -21.6 6.4 -47.25q2.55 26.45 17.35 48.55q1.65 -19.45 -8.65 -39.8q-2.75 -5.55 -5.15 -11.25q-28.15 -1 -54.95 5.75q-0.35 1.05 -0.3 2.25q-4.9 58.1 -3 116.85q1.95 60.3 -4.65 119.2q-6.55 58.9 -8.45 118.55q-0.25 8.25 -0.6 6.45q-0.8 3.1 -1.15 6.2q-1.6 14.55 5.9 22.4q0.6 -0.75 0.7 -1.55q2.65 -18.05 3.25 -36.65q1.95 -59.15 7.15 -117.9q4.25 -48.5 4.25 -97.5q21.25 5 43.6 3.4q1.05 -0.9 1.45 -2.2q1.7 -5.5 -0.95 -10.55q-1.75 -1.15 -3.8 -0.9q-0.95 -44.7 2 -89.2q0.85 -12.8 -0.55 -24.55q1.85 -4 1.2 -8.25q-0.35 -2.4 -1.65 -4.45q-0.35 -0.4 -0.8 -0.45q34 5.8 9.45 21.55q-3.5 2.25 -8 2.9q-4.75 59.2 -3.3 118.4q-1.05 39.7 -5.65 78.5q-1.75 7.3 1.6 12.45q0.3 1.35 1.3 2.2q37.1 3.55 75 1.75q1.8 -1.85 2.25 -4.5q-0.05 -1.9 -0.7 -3.75q-0.4 -1.35 -1.55 -2.25q-27.15 3.2 -55.05 -0.35q-5.7 -0.6 -11 1.25q5.1 -43.6 5.35 -88.2q0.3 -59.9 0.2 -118.45q-1.55 0.35 -1.7 2.3<g id="925" transform="matrix(1, 0, 0, 1, -34.25, 0)">
<path style="fill:#000000;fill-opacity:1" d="M353.2,168.15Q363.05 226.85 354.55 285.95Q346 345 322.15 399.3Q306.8 434.2 279.65 458.75Q275.2 462.8 269.3 465.05Q235.5 478.05 216.5 446.35Q209.7 435 205.75 422.35Q188.2 366.25 188.8 306Q189.4 246.4 196.25 187.6Q200.35 152.85 212.15 119.6Q222.6 90.25 247.8 73.25Q253.05 69.7 259.2 68L260.45 65.75Q261.15 64.5 262.2 63.5L294.45 62.5Q327.8 75.1 339 109.9Q348.2 138.4 353.2 168.15M445.3,182.25Q447.5 185.5 445.2 188.75Q418.85 173.55 390.7 185.75Q371.1 207.75 370.4 238.25L369.95 251.95Q387.6 247.55 406.45 246.25Q410.4 251.75 407.65 258.2L407.2 259Q388.5 261.8 369.45 260.45Q368.6 274 367.1 287.55Q364.1 314 374.45 337.25Q376.4 338.1 377.95 339.5L379.55 340.85L383.2 343.75Q418.7 343.75 436.05 312.85Q438.6 308.35 441.7 304.5Q450.35 310.95 443.5 322.7Q422.9 358.05 382.45 357.7Q357.4 338.4 360.45 305.05Q363.1 276.2 364.75 247.45Q366.3 221.2 373.75 196.5Q381.45 171.1 407.95 167.75Q433.15 164 445.3 182.25M353.45,363.7Q364 409.55 368.6 457.5L368.7 459.7Q375.2 428.1 387.95 399.7Q398 432.95 410.7 466.2Q424.3 418.3 437.1 370.1L436.45 370.2Q434.6 371.95 434.7 370L434.95 369.45Q437.9 364.15 442.45 361.45Q445.55 382.65 436.9 404.9Q429.45 424.1 426.05 444.85Q422.4 467.5 409.45 483.95Q394.2 453.15 387.45 418.7Q379.5 451.5 367.95 481.95Q360 455.15 356.95 425.35Q353.9 395.15 351.75 365.2Q351.65 363.45 353.45 363.7M344.5,161.55Q336.5 121.85 311.65 90.75Q309.5 88.05 306.25 86.6Q290.2 79.6 272.45 80.25Q260.85 79.9 250 84.05L248.2 84.75Q247 85.55 246.25 86.85L243.75 90.6L242.2 92.25Q241.85 92.25 241.75 92.05Q241.6 91.85 241.85 91.6L243.65 89.2L243.95 88.5Q224.65 103.95 215.35 131.35Q196.45 186.85 195.25 245.75Q194.75 267.7 195.05 290Q195.65 334.5 202.55 378.25Q206.25 401.9 215.7 424.25Q222.5 440.4 237.2 451.2L239.4 452.1L240.45 452.7L241.45 453.45Q287.45 453.05 305.85 410.6Q309.1 403.1 312.65 395.7Q339.15 340.7 347.85 280.25Q356.4 220.5 344.5 161.55M174.8,117.45Q185.1 137.8 183.45 157.25Q168.65 135.15 166.1 108.7L152.85 110.5Q158.2 136.15 146.45 157.75Q142.45 115.35 149 73.25L146.7 72.75L146.7 65.25Q171.5 57.4 176.25 82.25Q178.9 95.95 169.65 106.2Q172.05 111.9 174.8 117.45M129.2,70.25Q130.5 72.3 130.85 74.7Q131.5 78.95 129.65 82.95L129.2 83.75L58.3 78.75Q59.7 90.5 58.85 103.3Q55.9 147.8 56.85 192.5L57.05 204.55L96 203Q98.05 202.75 99.8 203.9L101.2 204.75Q103.85 209.8 102.15 215.3Q101.75 216.6 100.7 217.5Q78.35 219.1 57.1 214.1Q57.1 263.1 52.85 311.6Q47.65 370.35 45.7 429.5Q45.1 448.1 42.45 466.15Q42.35 466.95 41.75 467.7Q34.25 459.85 35.85 445.3Q36.2 442.2 37 439.1L37.5 439.45Q37.85 441.25 38.1 433Q40 373.35 46.55 314.45Q53.15 255.55 51.2 195.25Q49.3 136.5 54.2 78.4L52.75 78.25L52.35 76.7L52.15 75.25Q52.1 74.05 52.45 73L53 71.5Q79.8 64.75 107.95 65.75L128.4 69.8Q128.85 69.85 129.2 70.25M160.35,95Q184.9 79.25 150.9 73.45L152.35 97.9Q156.85 97.25 160.35 95M111.2,253.5Q111.3 312.05 111 371.95Q110.75 416.55 105.65 460.15L110.95 458.35Q116.25 456.5 121.95 457.1L121.95 456.95Q149.85 460.5 177 457.3L178.45 457.45Q179.6 458.35 180 459.7L180.25 460.45Q180.9 462.3 180.95 464.2L180.7 467.95Q180.25 470.6 178.45 472.45Q140.55 474.25 103.45 470.7Q102.45 469.85 102.15 468.5L102.05 467.7L102.05 465.9Q98.7 460.75 100.45 453.45Q105.05 414.65 106.1 374.95L106.2 374.2Q104.75 315 109.5 255.8Q109.65 253.85 111.2 253.5" />
</g>
</svg>
