<?xml version="1.0" encoding="utf-8"?>
<svg version="1.1" id="Layer_1"
xmlns="http://www.w3.org/2000/svg"
xmlns:xlink="http://www.w3.org/1999/xlink"


xml:space="preserve">
q-27.4 18.1 -34.1 56.65q-18.1 104.45 -17.85 211.4q0 11.25 3.4 21.9q3.1 9.55 10.65 16.15q4 3.55 8.65 5.9q40.25 -18 43.45 -60.3q0.4 -5 -1.95 -9.65q-9.4 28.25 -31.65 47.25q-8.85 7.55 -19.1 1.25q-10.75 -65.25 -1.05 -131.15q19.75 3.95 39.55 -0.05q4.65 -7.15 -0.25 -14.25q0.65 -69.35 29.05 -132.2q4.4 -15.2 -9.1 -27.7q1.7 24.85 7.95 50.7q13.9 58 21.15 117.25q7 57.15 4.85 115.5q-0.5 13.75 6.75 20.8q11.1 -45.6 20.05 -92.05q11.2 -58.4 19.65 -117.15q4.35 -30.15 15.7 -57.85q7.95 -19.4 1.6 -36.65q-3.4 2.35 -4.25 6.75q-6.95 3.9 -9.25 11.25q1.9 -1.25 3.25 -3.75q3.05 -1.65 4.25 -1q-7.7 22.7 -12.65 46.45q-9.15 43.95 -16.35 88.25q-9.35 57.5 -20.75 114.5q-1.25 -15.45 -1.85 -31.2q-2.25 -59.4 -11.45 -117.75q-9.25 -58.85 -27.7 -114.75q-1 -0.1 -0.95 0.7q-10.5 33 -9.3 70.1q1.95 59.5 7.25 118.45q2.8 30.6 -4.6 59.65q-9.5 37.35 -46.8 39.85q-9 -22.35 -9.75 -47.2q-1.85 -59.15 -1.25 -118.5q-1.4 -2.7 -3.5 -0.5q-1.3 30.7 -1.6 62.25q-0.2 15.05 -0.9 29.9q-2.25 47.15 15.7 87.8q5.5 0.5 10.5 -0.8q30.15 -8.05 40.1 -37.65q7.2 -21.35 7.4 -43.75q0.5 -59.6 -4.85 -118.45q-2.65 -29.7 2.15 -59.1q3.8 -22.85 0.2 -43.7q-0.5 0 -0.55 0.15q-4 4.95 -5.3 13.35q-9 58 -20.9 115.85q-11.9 57.75 -25.2 115.35q-3.4 14.65 -9.3 28.45q-7.3 17.1 0.7 29.2q4.3 -5.9 6.05 -13.3q13.95 -57.6 24.6 -115.75q5.4 -29.6 11.8 -58.95q16.1 -6.5 34 -5q6.7 43.5 16 86.45q6.35 29.25 9.45 59q2.4 22.95 9.05 43.05q1.9 -0.65 1.9 -2.75q0.35 -45.6 -10.4 -90.2q-13.8 -57.4 -22.3 -115.9q-2.15 -14.75 -4 -29.55q-4.7 -37.45 -17.95 -71.8q-16.75 -2.15 -29.8 6.55q5.05 -22.6 10.65 -45.05q5.1 -20.35 5.2 -40.5q7.45 39.2 13.95 79q-3.25 10.25 -3.35 22.95q-0.45 43.9 -4.05 87.6q-4.8 59 -6.15 118.65q-0.3 15 -2.05 29.8q-2 17.05 4.3 29.4q1.75 -1.4 2 -3.75q2.7 -26.05 2.85 -52.45q0.4 -59.65 5.5 -118.6q21.45 5.6 44.3 -1.05q2.35 -6.5 -1.4 -11.95q2.5 -42.2 1.1 -83.75q36.55 1.05 73.35 -2.25q3.2 -7.2 -1.2 -13.45q-37.2 1.4 -73.7 5.25q-1.15 3.15 -0.65 6.05<g id="929" transform="matrix(1, 0, 0, 1, -60.2, 0)">
<path style="fill:#000000;fill-opacity:1" d="M488.85,95.8Q502.35 108.3 497.95 123.5L487.45 108.25L471.95 111.25Q443.55 174.1 442.9 243.45L481.45 238.75Q486.35 245.85 481.7 253Q461.9 257 442.15 253.05Q432.45 318.95 443.2 384.2L446.7 386.5Q456.95 392.8 465.8 385.25Q488.05 366.25 497.45 338Q499.8 342.65 499.4 347.65Q496.2 389.95 455.95 407.95L452.7 406.25Q448.05 403.9 444.05 400.35Q436.5 393.75 433.4 384.2Q430 373.55 430 362.3Q429.75 255.35 447.85 150.9Q454.55 112.35 481.95 94.25L487.45 94.5L488.85 95.8M343.2,97Q361.65 152.9 370.9 211.75Q380.1 270.1 382.35 329.5Q382.95 345.25 384.2 360.7Q395.6 303.7 404.95 246.2Q412.15 201.9 421.3 157.95Q426.25 134.2 433.95 111.5Q432.75 110.85 429.7 112.5Q428.35 115 426.45 116.25Q428.75 108.9 435.7 105Q436.55 100.6 439.95 98.25Q446.3 115.5 438.35 134.9Q427 162.6 422.65 192.75Q414.2 251.5 403 309.9Q394.05 356.35 382.95 401.95Q375.7 394.9 376.2 381.15Q378.35 322.8 371.35 265.65Q364.1 206.4 350.2 148.4Q343.95 122.55 342.25 97.7Q342.2 96.9 343.2 97M322.45,97.25Q326.05 118.1 322.25 140.95Q317.45 170.35 320.1 200.05Q325.45 258.9 324.95 318.5Q324.75 340.9 317.55 362.25Q307.6 391.85 277.45 399.9Q272.45 401.2 266.95 400.7Q249 360.05 251.25 312.9Q251.95 298.05 252.15 283L253.6 164.5Q253.9 132.95 255.2 102.25Q257.3 100.05 258.7 102.75L257.45 219.75Q256.85 279.1 258.7 338.25Q259.45 363.1 268.45 385.45Q305.75 382.95 315.25 345.6Q322.65 316.55 319.85 285.95Q314.55 227 312.6 167.5Q311.4 130.4 321.9 97.4Q321.95 97.25 322.45 97.25M189.2,96.75Q202.45 131.1 207.15 168.55Q209 183.35 211.15 198.1Q219.65 256.6 233.45 314Q244.2 358.6 243.85 404.2Q243.85 406.3 241.95 406.95Q235.3 386.85 232.9 363.9Q229.8 334.15 223.45 304.9Q214.15 261.95 207.45 218.45L205.45 205.75Q187.55 204.25 171.45 210.75L170.9 209.95Q164.5 239.3 159.1 268.9Q148.45 327.05 134.5 384.65Q132.75 392.05 128.45 397.95Q120.45 385.85 127.75 368.75Q133.65 354.95 137.05 340.3Q150.35 282.7 162.25 224.95Q174.15 167.1 183.15 109.1Q184.45 100.7 188.45 95.75L188.6 97.1L189.2 96.75M189.3,112.95Q189.2 133.1 184.1 153.45Q178.5 175.9 173.45 198.5Q186.5 189.8 203.25 191.95Q196.75 152.15 189.3 112.95M78.45,102.5L78.75 101.75Q115.25 97.9 152.45 96.5Q156.85 102.75 153.65 109.95L153.2 110.75Q116.4 114.05 79.85 113Q81.25 154.55 78.75 196.75L121.45 192Q125.2 197.45 122.85 203.95L122.45 204.75Q99.6 211.4 78.15 205.8L76.85 222.15Q71.75 281.1 71.35 340.75Q71.2 367.15 68.5 393.2Q68.25 395.55 66.5 396.95Q60.2 384.6 62.2 367.55Q63.95 352.75 64.25 337.75Q65.6 278.1 70.4 219.1Q74 175.4 74.45 131.5Q74.55 118.8 77.8 108.55Q77.3 105.65 78.45 102.5" />
</g>
</svg>
