<?xml version="1.0" encoding="utf-8"?>
<svg version="1.1" id="Layer_1"
xmlns="http://www.w3.org/2000/svg"
xmlns:xlink="http://www.w3.org/1999/xlink"


xml:space="preserve">
q-8.05 -5.6 -17.7 -3.3q-25.4 5.95 -32 33.4q-1.45 6.05 -3.4 11q-0.6 13.05 3.9 25.4q6.3 17.3 25.15 20.3q27.45 4.15 35 -19.4q-6.8 5.2 -14.8 7.35q-15.95 4.05 -28.75 -5.5q-11.4 -8.55 -9.1 -23.35q14.45 1.5 28.2 -3.3q6.5 -2.25 12.45 -5.7q-15.75 -0.85 -31.4 4.95q-3.9 1.55 -7.9 2.75q4 -16.95 18.7 -25.85q13.15 -7.85 28.35 -3.85q-12.1 3.55 -19.3 14.15q-14.95 22.05 -10.6 49.6q3.5 21.95 17.45 38.6q27.15 32.4 36.75 73.4q9.05 38.75 11.55 78.85q2.9 46.3 -18 86.75q-2.25 4.3 -5.55 7.2q-27.8 24.35 -50.55 -4.1q0.75 -11.25 1.9 -22.45q1.1 -10.4 0.6 -20.3q-3.7 3.3 -4.85 8.95q-1 5.2 -2.35 10.1q-8.2 30.1 13.2 49.95q3.5 1.45 7 3.25q13.4 6.85 25.3 -1.8q29.9 -21.75 35.6 -59.85q5.45 -36.4 2.85 -73.65q-3.85 -56.2 -25.9 -108.5q-4.4 -10.35 -11.95 -18.35q-21.9 -23.15 -27.65 -53.7q-5.3 -28 18.85 -42.65q11.45 -6.9 23.4 -0.75q11.4 5.9 16.5 17.55q2.65 -10 -2.95 -19.8q-2.2 -3.8 -4.8 -7.2q-11 -6.75 -24.8 -4.35q-22.55 -8.75 -37 14.15q-11.2 17.8 -12.3 39q-1.25 24.7 22.2 30.9q18 4.8 27.35 -11.8q1.65 -2.95 -0.1 -5.55q-18.9 14.45 -35 2.65q-9.25 -6.75 -9.1 -18.35q0.3 -29.35 26.9 -39.85q7.7 -3.1 16.3 -3.15q-3.3 7.95 -2.95 18.2q1.2 36.65 2.8 73.35q2.6 59.3 2.2 119.3q-0.1 15 -1.8 29.85q-1.9 17.1 4.2 29.65q4.2 -5.5 1.5 -12.5q1.7 -12.55 1.75 -25.5q0.2 -60 -3 -119.25q-3.1 -57.2 -2.1 -113.4q2.1 -5.2 -0.9 -9.7q-43 3.35 -83.75 12.25q-0.7 3 0.2 6q4.75 -15.4 4.9 -31.55q0.25 -22.2 -8.95 -41.75q-8.9 -19.05 -28.1 -19.7q-0.7 28.9 -1.1 59.45q-1.1 82.15 -4.7 164q-1.3 29.85 4.55 59.25q3.75 -49.95 3.4 -100.1q-0.15 -26.1 0.3 -52.2q4.2 33.1 13.75 65q11.55 38.7 18.1 78.65q2.1 12.6 8.2 23.65q-0.3 -28.25 -7.95 -55.6q-15.9 -56.7 -29.45 -114.15q14.3 -14.45 20.3 -33.7q-3.8 34 -32.55 46.8q1.35 -55.4 0.45 -109.9q4.9 -1.15 10.05 -0.25q4.15 0.75 6.4 3.85q19.55 27.15 15.6 62.7q-4.6 33 -5.55 66.95q-0.55 20.15 2.85 39.9q8.1 -12.3 5.05 -28.75q-2 -10.6 -1.95 -21.5q0.2 18.25 -1.4 36.55q-1 11.05 3.7 19.35q1.85 -2.95 1.3 -6.3q-4.85 15.75 -4.55 34.85q-12.4 -1.45 -24.3 1.9q-5.25 1.65 -10.4 4.15q-26.8 53.6 -29.95 113.6q-3.1 59.5 -3.55 119.2q-0.4 58.9 1.2 117.7q0.6 21.8 0.65 43.5q0.1 33.95 26.45 51.5q19.3 12.35 40 0.3q12.05 -7 20.5 -17.95q12.1 -15.7 18 -34.55q8.6 -27.65 13.1 -56.1q9.3 -58.55 8.35 -118.9q-1 -59.9 -7.85 -118.45q-2.55 -21.8 -3.7 -43.65q-1.7 -33.5 -17.65 -62.15q-16.65 -16.45 -42.9 -10.85q-12.7 4.5 -19.05 17.2q9.95 -5.35 22.15 -1.7q22.05 -0.5 28.75 20.5q9.95 31.4 14 64.6q7.25 59.05 8.7 119.4q1.45 60.05 -4.15 119.1q-2.5 26.2 -7.35 52.2q-8.05 42.8 -43.2 67.15q-13.75 6.75 -28.05 3.15q-22.55 -5.65 -26.65 -27.6q-9.45 -50.35 -9.5 -102.55q0 -59.5 0.95 -119.2q0.5 -30.1 1.85 -59.95q1 -22.35 3.7 -44.5q6.1 -50.15 36.7 -89.8q-0.15 -2.85 -1.85 -5.3q-2.6 12.15 -4.35 24.45q-2.45 16.85 -2.65 34q-2.4 183.1 -3.2 366.35q-0.05 11.2 -1.2 22.4q1.35 -11.3 2.05 -22.65q1 -15.5 0.6 -30.95q-3.15 -122.85 0.5 -245.6q0 -5 -1.2 -9.65q-6.5 41.2 -4.5 84.25q23.7 -1.85 46.7 3.75q-21.55 -7.35 -45.75 -6.25q1.85 -20.8 1.8 -41.6q-3.3 30.95 9.2 56.4q2.55 -1.7 3.6 -4.55q10.95 -30.5 8.3 -64.4q-0.95 -11.7 -0.3 -23.2q0.75 -13.4 -5.1 -19.55q-2.75 24.75 -0.25 50.35q2.55 26.55 -7 50.15q-3.45 2.3 -6.5 0q-5.6 -12.6 -5.1 -27.05q1.4 -40.05 0.6 -78.7q-5.8 12.45 -4.6 29.3q1.1 16.05 -0.6 32q-13.8 17.9 -14.7 39.15q-0.1 2.75 1.55 3.3q8.2 23 17.45 41.7q-7.85 -47.8 -31.6 -90.6q-2.05 34.1 -0.35 66.75q24.35 -3.45 49.25 -5q2.2 -5 -0.2 -9.75q-23 -0.45 -45.75 2.5q1.45 -31.55 -0.05 -61.5q-3.05 3.1 -3.4 8.5q-1.2 -0.2 -1.4 0.85q-3.2 21.4 -5.15 43.3q-2.1 23.8 1.05 44.85q2.35 -14.1 3.75 -28.3q0.95 -0.15 1.95 -1.15q7.9 -8.85 16.15 -17.3q10.3 26.8 28.6 47.8q3.05 -2.95 0.95 -6.6q4.15 -4.15 8.55 -7.65q13.7 -10.95 7.2 -22.1q-19.4 22.5 -41.6 42.95q1.35 -22.85 0.1 -45.95<g id="936" transform="matrix(1, 0, 0, 1, -30.55, 0)">
<path style="fill:#000000;fill-opacity:1" d="M496.7,71.5Q481.5 67.5 468.35 75.35Q453.65 84.25 449.65 101.2Q453.65 100 457.55 98.45Q473.2 92.65 488.95 93.5L488.95 100.25Q483 103.7 476.5 105.95Q462.75 110.75 448.3 109.25Q446 124.05 457.4 132.6Q470.2 142.15 486.15 138.1Q494.15 135.95 500.95 130.75L506.8 129.8L506.9 130.65Q499.35 154.2 471.9 150.05Q453.05 147.05 446.75 129.75Q442.25 117.4 442.85 104.35Q444.8 99.4 446.25 93.35Q452.85 65.9 478.25 59.95Q487.9 57.65 495.95 63.25L496.7 71.5M517.75,168.6L519.45 169.5Q522.05 172.9 524.25 176.7Q529.85 186.5 527.2 196.5Q522.1 184.85 510.7 178.95Q498.75 172.8 487.3 179.7Q463.15 194.35 468.45 222.35Q474.2 252.9 496.1 276.05Q503.65 284.05 508.05 294.4Q530.1 346.7 533.95 402.9Q536.55 440.15 531.1 476.55Q525.4 514.65 495.5 536.4Q483.6 545.05 470.2 538.2Q466.7 536.4 463.2 534.95Q441.8 515.1 450 485Q451.35 480.1 452.35 474.9Q453.5 469.25 457.2 465.95Q457.7 475.85 456.6 486.25Q455.45 497.45 454.7 508.7Q477.45 537.15 505.25 512.8Q508.55 509.9 510.8 505.6Q531.7 465.15 528.8 418.85Q526.3 378.75 517.25 340Q507.65 299 480.5 266.6Q466.55 249.95 463.05 228Q458.7 200.45 473.65 178.4Q480.85 167.8 492.95 164.25Q506.75 161.85 517.75 168.6M417.45,68.5Q408.85 68.55 401.15 71.65Q374.55 82.15 374.25 111.5Q374.1 123.1 383.35 129.85Q399.45 141.65 418.35 127.2Q420.1 129.8 418.45 132.75Q409.1 149.35 391.1 144.55Q367.65 138.35 368.9 113.65Q370 92.45 381.2 74.65Q395.65 51.75 418.2 60.5L417.45 68.5M345.5,175.5L345.7 174.75Q386.45 165.85 429.45 162.5Q432.45 167 430.35 172.2L429.95 173L390.1 177.55Q389.1 233.75 392.2 290.95Q395.4 350.2 395.2 410.2Q395.15 423.15 393.45 435.7Q396.15 442.7 391.95 448.2Q385.85 435.65 387.75 418.55Q389.45 403.7 389.55 388.7Q389.95 328.7 387.35 269.4Q385.75 232.7 384.55 196.05Q384.2 185.8 387.5 177.85L345.7 181.5Q344.8 178.5 345.5 175.5M324.05,183.7Q337.6 241.15 353.5 297.85Q361.15 325.2 361.45 353.45Q355.35 342.4 353.25 329.8Q346.7 289.85 335.15 251.15Q325.6 219.25 321.4 186.15L311.65 190.15Q311.2 216.25 311.35 242.35Q311.7 292.5 307.95 342.45Q302.1 313.05 303.4 283.2Q307 201.35 308.1 119.2Q308.5 88.65 309.2 59.75L312.2 57Q331.4 57.65 340.3 76.7Q349.5 96.25 349.25 118.45Q349.1 134.6 344.35 150Q338.35 169.25 324.05 183.7M328.85,69.2Q326.6 66.1 322.45 65.35Q317.3 64.45 312.4 65.6Q313.3 120.1 311.95 175.5L311.9 178.7Q340.65 165.9 344.45 131.9Q348.4 96.35 328.85 69.2M420.5,282.9Q432.4 279.55 444.8 281L444.9 269.6Q444.6 250.5 449.45 234.75L450.2 281.35L453.6 281.7L453.9 282.05L454.3 282.75L454.75 284.45Q455.3 287.8 453.45 290.75L450 290.8L446.95 346.85Q442.25 338.55 443.25 327.5Q444.85 309.2 444.65 290.95L410.05 294.95Q410 305.85 412 316.45Q415.05 332.9 406.95 345.2Q403.55 325.45 404.1 305.3Q405.05 271.35 409.65 238.35L410.1 287.05Q415.25 284.55 420.5 282.9M189.95,53.5Q216.2 47.9 232.85 64.35L233.2 65L233.7 64.9L235 64.55L236.45 64.75Q252.4 93.4 254.1 126.9Q255.25 148.75 257.8 170.55Q264.65 229.1 265.65 289Q266.6 349.35 257.3 407.9Q252.8 436.35 244.2 464Q238.3 482.85 226.2 498.55Q217.75 509.5 205.7 516.5Q185 528.55 165.7 516.2Q139.35 498.65 139.25 464.7Q139.2 443 138.6 421.2Q137 362.4 137.4 303.5Q137.85 243.8 140.95 184.3Q144.1 124.3 170.9 70.7Q177.25 58 189.95 53.5M183.7,65Q153.1 104.65 147 154.8Q144.3 176.95 143.3 199.3Q141.95 229.15 141.45 259.25Q140.5 318.95 140.5 378.45Q140.55 430.65 150 481Q154.1 502.95 176.65 508.6Q190.95 512.2 204.7 505.45Q239.85 481.1 247.9 438.3Q252.75 412.3 255.25 386.1Q260.85 327.05 259.4 267Q257.95 206.65 250.7 147.6Q246.65 114.4 236.7 83Q230 62 207.95 62.5Q195.75 58.85 185.8 64.2L183.7 65M127.2,57.75L44.25 52.25L38.85 219.95L92.95 208.95L93.25 217L38.65 225.75Q35 348.5 38.15 471.35Q38.55 486.8 37.55 502.3Q36.85 513.65 35.5 524.95L34.15 523.4L32.95 521.6L32 519.65L31.25 517.4L30.8 515.15L30.55 512.55L30.55 509.75L30.75 506.75L31.45 499.35Q32.6 488.15 32.65 476.95Q33.45 293.7 35.85 110.6Q36.05 93.45 38.5 76.6Q40.25 64.3 42.85 52.15L40.5 51.25L41.6 43.35L126.45 47.25Q128.15 49.7 128.3 52.55L128.25 53.3L128.2 54.05L128.05 54.75L127.6 56.25L127.2 57.75M71.4,395.7L70.5 418.95Q94.7 417.85 116.25 425.2L114.2 432.45Q91.2 426.85 67.5 428.7Q65.5 385.65 72 344.45Q73.2 349.1 73.2 354.1Q73.25 374.9 71.4 395.7M269.85,257.8Q268.65 240.95 274.45 228.5Q275.25 267.15 273.85 307.2Q273.35 321.65 278.95 334.25Q282 336.55 285.45 334.25Q295 310.65 292.45 284.1Q289.95 258.5 292.7 233.75Q298.55 239.9 297.8 253.3Q297.15 264.8 298.1 276.5Q300.75 310.4 289.8 340.9Q288.75 343.75 286.2 345.45L278.45 346.2Q265.95 320.75 269.25 289.8Q270.95 273.85 269.85 257.8M319.45,351.45Q343.2 394.25 351.05 442.05Q341.8 423.35 333.6 400.35L298.4 400.85L281.6 436.6Q279.95 436.05 280.05 433.3Q280.95 412.05 294.75 394.15L319.45 351.45M314.95,390.45L329.9 391.2L319.2 365.7L303 392.05L314.95 390.45M273.2,456.2Q274.7 486.15 273.25 517.7L273.2 518.45Q295.95 515.5 318.95 515.95Q321.35 520.7 319.15 525.7L318.7 526.45Q293.8 528 269.45 531.45Q267.75 498.8 269.8 464.7Q270.15 459.3 273.2 456.2M357.35,494.65Q379.55 474.2 398.95 451.7Q405.45 462.85 391.75 473.8Q387.35 477.3 383.2 481.45L378 486.7L403.9 531.6Q406 535.25 402.95 538.2Q384.65 517.2 374.35 490.4Q366.1 498.85 358.2 507.7Q357.2 508.7 356.25 508.85Q354.85 523.05 352.5 537.15L351.95 537.7Q348.8 516.65 350.9 492.85Q352.85 470.95 356.05 449.55Q356.25 448.5 357.45 448.7Q358.7 471.8 357.35 494.65" />
</g>
</svg>
