<?xml version="1.0" encoding="utf-8"?>
<svg version="1.1" id="Layer_1"
xmlns="http://www.w3.org/2000/svg"
xmlns:xlink="http://www.w3.org/1999/xlink"


xml:space="preserve">
q-8.9 17.1 -6.55 41.3q2.05 21.25 1.4 42q-0.6 20.5 -2.15 41.35q-1.6 21.5 -3.8 43.05q-2.65 26.5 25.2 24.75q22.95 -1.35 38.25 -17.35q14.65 -15.3 15.85 -37.4q1.2 -22.1 -7.65 -42.05q-6.05 -13.6 -20.05 -18.5q9.5 -8.2 10.8 -21q1.15 -10.85 -1.85 -21.25q-2.35 -8.1 -7 -15.1q-8.2 -12.45 -22.35 -17.35q-9.85 -3.35 -20.1 -2.45q-15.75 21.7 -42.85 20.4q0 -33.85 -1.85 -67.3q36 1 46.5 34.4q2.2 7 -1.8 12.5q21.15 2.85 30.45 22.5q9.85 20.85 0.3 41.5q-9 19.4 -30.9 23.9q-15.7 3.45 -30.9 -2.15q11.65 1.45 22.7 -2.85q0.45 -3.65 -1.45 -6.75q-1.3 0.7 -1.35 2.2q-1.6 93.2 -2.65 186.85q0 0.35 0.3 0.7q9.25 -49.75 5.9 -101.2q1.45 -1.65 1.95 -3.85q-0.1 -1.8 -0.7 -3.45q-0.95 -2.7 -3.25 -4.6q-9.1 -0.45 -18.15 0.05q-9.05 0.7 -17.95 2.45q-11.4 7.75 -18.65 18.95q-6.2 6.1 -10.5 14.05q-29.35 54.15 -21.15 115.7q1.95 14.85 10.65 26.8q20.95 28.75 56.05 12.25q17.8 -8.4 29.65 -24.1q22.8 -30.15 23.9 -68.75q1.6 -53.35 -31.1 -94.45q-9.95 -5.8 -21.7 -5.45q-5.5 0.75 -10.35 4.05q20.5 20.7 26.95 49.8q3.8 17.2 2.8 34.55q-1.2 21.2 -12.35 39.2q-11.65 18.9 -31 29.55q-18.7 10.35 -38.85 2.95q-22.9 -8.3 -26.2 -35.65q-2.8 -23.05 1.7 -45.95q4.1 -20.6 13.5 -39.3q8.95 -17.75 22.8 -31.5q12.5 -12.4 28.85 -10.15q6.65 0.75 10.45 4q-16.85 19.85 -20.95 44.1q-1 6 1.7 11.55q-0.95 -26 -11.1 -51.15<g id="926" transform="matrix(1, 0, 0, 1, -137.5, 0)">
<path style="fill:#000000;fill-opacity:1" d="M364.05,183.25Q378.2 188.15 386.4 200.6Q391.05 207.6 393.4 215.7Q396.4 226.1 395.25 236.95Q393.95 249.75 384.45 257.95Q398.45 262.85 404.5 276.45Q413.35 296.4 412.15 318.5Q410.95 340.6 396.3 355.9Q381 371.9 358.05 373.25Q330.2 375 332.85 348.5Q335.05 326.95 336.65 305.45Q338.2 284.6 338.8 264.1Q339.45 243.35 337.4 222.1Q335.05 197.9 343.95 180.8Q354.2 179.9 364.05 183.25M389.3,224.45Q378.8 191.05 342.8 190.05Q344.65 223.5 344.65 257.35Q371.75 258.65 387.5 236.95Q391.5 231.45 389.3 224.45M367.25,267.7Q356.2 272 344.55 270.55L340.3 351.85Q355.5 357.45 371.2 354Q393.1 349.5 402.1 330.1Q411.65 309.45 401.8 288.6Q392.5 268.95 371.35 266.1L367.25 267.7M204.9,197.5L204.5 198.25L203.45 199.75L144.75 194.65L144.9 259.75Q153.8 258 162.85 257.3Q171.9 256.8 181 257.25Q183.3 259.15 184.25 261.85Q184.85 263.5 184.95 265.3L184.85 267.1L184.7 268.1Q184.2 270.3 182.75 271.95L144.75 271.3Q148.1 322.75 138.85 372.5L137.8 372.55Q137.5 372.2 137.5 371.85Q138.55 278.2 140.15 185Q140.2 183.5 141.5 182.8L143.65 182.15L144.55 182.9L204.2 187Q206.1 190.1 205.65 193.75L205.35 195.95L205.2 196.8L204.9 197.5M267.95,179Q279.7 178.65 289.65 184.45L291.2 185L291.9 184.65L293.45 183.5L293.95 183.35L296.45 183.5Q329.15 224.6 327.55 277.95Q326.45 316.55 303.65 346.7Q291.8 362.4 274 370.8Q238.9 387.3 217.95 358.55Q209.25 346.6 207.3 331.75Q199.1 270.2 228.45 216.05Q232.75 208.1 238.95 202Q246.2 190.8 257.6 183.05Q262.45 179.75 267.95 179M278.7,191.9Q262.35 189.65 249.85 202.05Q236 215.8 227.05 233.55Q217.65 252.25 213.55 272.85Q209.05 295.75 211.85 318.8Q215.15 346.15 238.05 354.45Q258.2 361.85 276.9 351.5Q296.25 340.85 307.9 321.95Q319.05 303.95 320.25 282.75Q321.25 265.4 317.45 248.2Q311 219.1 290.5 198.4L287.75 198.45L289.15 195.9Q285.35 192.65 278.7 191.9M270.6,243.8Q280.75 268.95 281.7 294.95L272.05 271.95L259 274.05L248.45 295.45Q245.75 289.9 246.75 283.9Q250.85 259.65 267.7 239.8L267.85 237.4L270.6 243.8M269.6,261.5L268.7 255.6L265.05 262.15L269.6 261.5" />
</g>
</svg>
