<?xml version="1.0" encoding="utf-8"?>
<svg version="1.1" id="Layer_1"
xmlns="http://www.w3.org/2000/svg"
xmlns:xlink="http://www.w3.org/1999/xlink"


xml:space="preserve">
q-2.5 15.55 -2.35 31.95q0.5 59.35 -2.6 118.45q-3.1 59.55 -5.2 119.3q-0.4 11.25 -2.15 22.2q-2.7 17.25 4.15 29.3q37.8 16.1 77.25 1.75q4.3 -8 -0.85 -14.95q-15.75 4.65 -32.2 3.65q-18.05 -1.1 -35.3 -0.3q2.65 -38.2 4.4 -76.65q2.8 -59.3 4.95 -118.55q2.2 -60.2 -1.9 -118.45q-0.6 -0.2 -0.7 0.3q-0.5 0 -0.7 0.25q-4.65 6.1 -5.95 14.25q-9.15 57.95 -16 116.3q-6.95 59.05 -19.05 117.3q-4.55 21.95 -12.4 42.75q-5.1 13.6 3.1 20.85q6.9 -16.65 10.6 -34.85q9 -44.25 15.7 -88.8q5.25 49.7 10.1 99.45q1.65 16.8 9 28.2q1.4 -1.15 1.25 -2.95q-3.1 -38.9 -7.7 -78.15q-7.45 -58.8 -12.5 -117q-0.55 1 -0.4 2.2q-20.8 -1.95 -44 1.6q-4.5 0.7 -7.7 3.9q-25.05 25 -33.35 61.05q-13.3 57.8 -13.45 117.95q-0.2 60.35 27.35 113.8q2.05 4.1 5.75 6.35q34.05 21.25 68.45 -1.9q33.7 -22.7 46.4 -60.45q19 -56.5 12.95 -116.7q-1.5 -15 -4.85 -29.55q-13.3 -57.65 -51.3 -102.3q11.8 0.15 21.25 6.1q6.4 11.95 13.6 23.35q11.55 18.3 18.25 38.7q15.85 48.25 13.35 100q-2.3 46.75 -30.85 83.4q-30.05 38.6 -77.75 33.6q-5.9 -0.6 -9.1 -5.2q-30.3 -44.05 -31.45 -98.1q-1.25 -60.15 12.45 -117.65q9.8 -41.45 51.95 -42.1q-34.1 -0.1 -67.7 6q-1.55 4.55 0.45 8.75q0.1 0.3 0.7 0.35q-13.75 117.6 -15.1 236.4q-0.35 31.3 -4.05 59.2q-1.65 -3.05 -1.5 4.05q0.05 2.7 0.6 5.4q0.55 2.55 1.8 4.9q1.25 2.4 3 4.45q7.25 -56.65 7.85 -114.1q0.45 -45.5 4.25 -90.8q3.1 -3.4 2.35 -8.25q33.7 2.35 66.15 -2.5q2.9 -5.75 -0.25 -11.15<g id="942" transform="matrix(1, 0, 0, 1, -51.1, 0)">
<path style="fill:#000000;fill-opacity:1" d="M421.2,86Q425.3 144.25 423.1 204.45Q420.95 263.7 418.15 323Q416.4 361.45 413.75 399.65Q431 398.85 449.05 399.95Q465.5 400.95 481.25 396.3L489.45 393.95Q494.6 400.9 490.3 408.9L489.7 409.7Q450.25 424.05 412.45 407.95L412.35 407.5Q405.5 395.45 408.2 378.2Q409.95 367.25 410.35 356Q412.45 296.25 415.55 236.7Q418.65 177.6 418.15 118.25Q418 101.85 420.5 86.3Q420.6 85.8 421.2 86M364.45,87.4L365.45 87.25Q370.5 145.45 377.95 204.25L385.3 263.4L385.45 263.5L385.45 264.25L385.45 264.85L392.25 321.85Q396.85 361.1 399.95 400Q400.1 401.8 398.7 402.95Q391.35 391.55 389.7 374.75Q384.85 325 379.6 275.3L339.75 273.8Q333.05 318.35 324.05 362.6Q320.35 380.8 313.45 397.45Q305.25 390.2 310.35 376.6Q318.2 355.8 322.75 333.85Q334.85 275.6 341.8 216.55Q348.65 158.2 357.8 100.25Q359.1 92.1 363.75 86Q363.95 85.75 364.45 85.75L364.45 87.4M362.95,260L378 260.6L362 127.5L341.4 262.55L346.75 261.25L352.1 260.4L357.55 260L362.95 260M257.45,81.5Q295.45 126.15 308.75 183.8Q312.1 198.35 313.6 213.35Q319.65 273.55 300.65 330.05Q287.95 367.8 254.25 390.5Q219.85 413.65 185.8 392.4Q182.1 390.15 180.05 386.05Q152.5 332.6 152.7 272.25Q152.85 212.1 166.15 154.3Q174.45 118.25 199.5 93.25Q202.7 90.05 207.2 89.35Q230.4 85.8 251.2 87.75Q251.05 86.55 251.6 85.55L253.2 82.5L254.05 81.85L254.9 81.4L254.95 81.25L257.45 81.5M228.95,99.75Q186.8 100.4 177 141.85L171.7 164.1Q158 221.6 159.25 281.75Q160.4 335.8 190.7 379.85Q193.9 384.45 199.8 385.05Q247.5 390.05 277.55 351.45Q306.1 314.8 308.4 268.05Q310.9 216.3 295.05 168.05Q288.35 147.65 276.8 129.35Q269.6 117.95 263.2 106Q253.75 100.05 241.95 99.9L228.95 99.75M139.65,90.7Q107.2 95.55 73.5 93.2L70 192.5L114.85 193.45L115.15 193.8L115.85 195.25L116.35 196.75L116.6 198.25L116.8 199.75Q117.55 204.6 114.45 208L68.95 202.45Q65.15 247.75 64.7 293.25Q64.1 350.7 56.85 407.35L56.65 407.5Q54.9 405.45 53.65 403.05Q52.4 400.7 51.85 398.15Q51.3 395.45 51.25 392.75Q51.1 385.65 52.75 388.7Q56.45 360.8 56.8 329.5Q58.15 210.7 71.9 93.1Q71.3 93.05 71.2 92.75Q69.2 88.55 70.75 84Q104.35 77.9 138.45 78L139.4 79.55Q142.55 84.95 139.65 90.7" />
</g>
</svg>
