<?xml version="1.0" encoding="utf-8"?>
<svg version="1.1" id="Layer_1"
xmlns="http://www.w3.org/2000/svg"
xmlns:xlink="http://www.w3.org/1999/xlink"


xml:space="preserve">
q-7.75 46.1 -7.05 96q0.9 60.15 -7.4 119.05q-3.3 23.15 -0.55 44.4q1.3 -0.45 1.6 -1.15q26.45 5.85 53.5 4.25q4.05 -7.4 -0.65 -14.2q-26.45 -0.5 -52.15 3.8q4.8 -21.45 6.75 -43.75q5.2 -58.9 4.7 -118.5q-0.25 -30.3 3.5 -59.8q2.1 -16.55 -3.05 -29.95q1.9 23.65 1.05 47.3q-2.1 59.95 -7.85 119.15q-1.45 15 -4.1 29.75q-2.7 14.55 5 21q4.05 -12.4 4.95 -26.1q2.6 -38.4 4.25 -76.95q6.85 -5.8 11.2 -15.6q8.85 -20.05 17.95 -39.95q2.15 38.55 13.55 76.65q8.45 28.25 13.55 57.3q3 17.1 13.05 26.65q3.15 -5.6 1.15 -11.85q-5.8 -18.2 -10.9 -36.4q-16 -57.05 -29 -114.45q14.95 -32.75 30.45 -65.1q2.3 -4.8 5.35 -8.8q9.4 -12.3 6.4 -24.3q-2.9 1.25 -5 3.75q-26.15 44.25 -44.7 92.35q-5.35 13.9 -14.55 25.7q-4.15 5.3 -6.7 10.8q1.75 -59.9 -1.2 -118.5q-5.55 21.4 -3.6 46q4.95 0 9.75 1.15q0.75 1.4 2.25 2.05q3.75 1.7 7.75 2.45q3.25 0.05 5.65 2.15q22.15 19.2 27.25 48.1q4.55 26 6.1 52.65q3.65 62.75 -35.6 110.65q-14.95 18.25 -38.2 21.15q-35.75 4.4 -44.7 -28.45q-15.6 -57.45 -6.1 -117.05q8.6 -53.25 59.25 -66.2q0.15 -0.15 0.25 -0.15q2.4 -1.55 2.8 -5q0.5 -4.5 -1.5 -8.55q-19.7 -5.95 -42.2 -4.45q-16.7 0.5 -31.75 8.2q-1.15 116.45 -8.3 232.85q-0.3 4.85 3.8 7.6q9.05 -77.4 9.3 -157.2q20.7 5.5 42.15 4.75q2.8 -2.95 2.5 -7.25q-0.2 -3.45 -2.1 -6.3q-21.4 -3.1 -42.35 0.9q-26.45 40.7 -32.15 89.55q-7 59.9 6.55 117.9q4.8 20.65 21.55 33.45q15.35 11.65 36.1 5.7q7 -2 13.05 -6.15q52.15 -35.5 58.15 -98.25q5.75 -60.25 -8.25 -117.85q-8.9 -36.55 -42.85 -47.65q-18.4 -1.4 -34.55 7.8q-8.85 5.05 -14.35 13.5<g id="941" transform="matrix(1, 0, 0, 1, -84.9, 0)">
<path style="fill:#000000;fill-opacity:1" d="M334.25,147.2Q330.5 176.7 330.75 207Q331.25 266.6 326.05 325.5Q324.1 347.8 319.3 369.25Q345 364.95 371.45 365.45Q376.15 372.25 372.1 379.65L371.45 380.45Q344.4 382.05 317.95 376.2L317.8 375.55Q317.5 376.25 316.2 376.7Q313.45 355.45 316.75 332.3Q325.05 273.4 324.15 213.25Q323.45 163.35 331.2 117.25Q336.35 130.65 334.25 147.2M403.2,118Q406.15 176.6 404.4 236.5L403.75 257.1Q406.3 251.6 410.45 246.3Q419.65 234.5 425 220.6Q443.55 172.5 469.7 128.25L470 126.75L470.2 126Q472.3 123.5 475.2 122.25Q478.2 134.25 468.8 146.55Q465.75 150.55 463.45 155.35Q447.95 187.7 433 220.45L433.45 220.5Q446.45 277.9 462.45 334.95Q467.55 353.15 473.35 371.35Q475.35 377.6 472.2 383.2Q462.15 373.65 459.15 356.55Q454.05 327.5 445.6 299.25Q434.2 261.15 432.05 222.6Q422.95 242.5 414.1 262.55Q409.75 272.35 402.9 278.15Q401.25 316.7 398.65 355.1Q397.75 368.8 393.7 381.2Q386 374.75 388.7 360.2Q391.35 345.45 392.8 330.45Q398.55 271.25 400.65 211.3Q401.5 187.65 399.6 164Q397.65 139.4 403.2 118M240.95,125.25Q190.3 138.2 181.7 191.45L176.85 221.7Q167.35 281.3 182.95 338.75Q191.9 371.6 227.65 367.2Q250.9 364.3 265.85 346.05Q305.1 298.15 301.45 235.4Q299.9 208.75 295.35 182.75Q290.25 153.85 268.1 134.65Q265.7 132.55 262.45 132.5L261.45 131.25L260.95 130.75Q256.95 130 253.2 128.3Q251.7 127.65 250.95 126.25Q246.15 125.1 241.2 125.1Q241.1 125.1 240.95 125.25M162.1,127.4L96.3 128.75L98.5 204.35Q119.45 200.35 140.85 203.45Q142.75 206.3 142.95 209.75Q143.25 214.05 140.45 217Q119 217.75 98.3 212.25Q98.05 292.05 89 369.45Q84.9 366.7 85.2 361.85Q92.35 245.45 93.5 129L92.5 120Q107.55 112.3 124.25 111.8Q146.75 110.3 166.45 116.25Q168.45 120.3 167.95 124.8Q167.55 128.25 165.15 129.8L162.1 127.4M216.15,121.55Q232.3 112.35 250.7 113.75L252.35 112.45L253.95 111.75Q287.9 122.85 296.8 159.4Q310.8 217 305.05 277.25Q299.05 340 246.9 375.5Q240.85 379.65 233.85 381.65Q213.1 387.6 197.75 375.95Q181 363.15 176.2 342.5Q162.65 284.5 169.65 224.6Q175.35 175.75 201.8 135.05Q207.3 126.6 216.15 121.55" />
</g>
</svg>
