<?xml version="1.0" encoding="utf-8"?>
<svg version="1.1" id="Layer_1"
xmlns="http://www.w3.org/2000/svg"
xmlns:xlink="http://www.w3.org/1999/xlink"


xml:space="preserve">
q-5.5 20.95 -5.3 45q0.45 59.25 -0.35 118.5q-0.85 59.8 -4 119.25q-3.2 59.7 -8.95 119.05q-1.35 14.2 4.85 21.9q3.55 -25.3 4.85 -51.7q1.35 -31.45 1.95 -62.95q12.1 -4.25 19.55 -14.5q14.7 56.3 20.95 114.3q1.45 13.15 8.1 19.4q0.5 -0.75 0.45 -1.45q-3.3 -54 -16.6 -107.3q-3.7 -14.8 -6.8 -29.55q-12 -56.5 -33.9 -109.35q16.85 -25.4 24.7 -54.45q11.55 -42.7 -1.9 -85.35q-10 -31.7 -43.2 -32.75q-1.1 39.95 -0.35 81q0.75 39.15 -20.65 71.05q-9.65 14.45 -18.75 -1.45q-8.95 -15.65 -8.15 -34.7q2.5 -59.85 7.8 -117.65q-4.55 12 -6.05 26.35q-6 58.35 -3.1 117.85q1.2 25 24.4 28.55q30.45 -34.9 29.55 -83q-0.55 -29.65 0.95 -59.2q0.9 -17.05 -5 -29.55q-0.6 0.35 -0.65 0.75q1.15 20.55 -2.2 40.8q-3.45 20.95 -14.35 39.15q-10.7 17.95 -28.05 29.45q22.85 0.6 34.85 21.55q9.6 16.85 10.7 36.5q-10.8 22.9 -13.65 48q-4.95 43.85 -6.45 88.45q-1.25 37.45 5.25 73.4q2.2 12.05 10.7 20.8q16.7 17.2 31.7 -3.8q13.1 -18.25 21.8 -39.05q23.5 -56.1 13 -116.15q-1.9 -10.95 -3.4 -21.9q-6.25 -45.9 -51.45 -55.75q-2.45 0.65 -4.55 2.9q2 5.5 7.55 8.15q5.95 2.85 8.8 8.75q26.2 54.3 14.85 113.75q-4.25 22.3 -11.5 44.4q-8.05 24.45 -27.65 39.3q-4.4 3.3 -8.65 0.65q-22.9 -14.35 -22.65 -43.55q0.5 -60 3.8 -119.3q1.75 -31.9 19.45 -56.65q8.7 -0.6 16 4.5q-4.75 2.7 -9.4 6.2q-36.85 27.75 -44.2 75.05q-8.45 54.2 -7.25 110.25q1.3 59.65 7.2 118.45q1.5 14.7 2.15 29.35q1.7 39.45 30 64.15q2.7 0.35 4.85 -0.75q26.9 -13.8 39.2 -43.05q23.35 -55.4 25.4 -115.7q2.1 -59.95 -3.85 -119.2q-3.75 -36.9 -11.95 -73.2q-6.8 -30.25 -27.95 -50.85q-2.85 -1.95 -6.8 -0.55q13.55 17.1 19.75 38.45q16.8 57.55 18.75 118.05q2 60.35 -5.05 119.25q-7.1 59.1 -47.95 101.2q-10.45 3.2 -18.8 -3.8q-4.1 -3.4 -6.25 -8.2q-14.75 -32.3 -17.75 -68.2q-4.95 -58.9 -7.55 -118.45q-2.65 -60.35 9.95 -118q9.2 -42 46.15 -60.8q-25.15 -7.1 -51.3 -3.75q-20.3 2.65 -39.25 -4.9q-1.65 -0.75 -3.4 -1.25q-0.4 70.75 -0.5 141.5q0 10.8 1.7 21.45q8.15 -67.75 6 -136.4q-1.9 -60.4 -0.75 -117.05q42.45 4.3 86.2 2.5q2.35 -2.8 1.9 -6.45q-0.25 -1.9 -0.85 -3.6q-28.45 -1.95 -57.35 0.45q1.85 -65.4 -3.8 -135.4q45.1 7 91.25 9.75q0.1 48.75 0.6 97.45q0.65 60 1.45 118.5q30.85 4.6 61 12q4.1 -8.95 1.75 -18.5q-2.55 1.55 -3.75 4.75q-28.2 -3.05 -56.25 -10q2.1 -44.1 1.4 -88.5q-1 -59.6 -4.4 -118.45q-1.8 0.35 -1.8 2.75<g id="939" transform="matrix(1, 0, 0, 1, -73.3, 0)">
<path style="fill:#000000;fill-opacity:1" d="M434.95,73Q468.15 74.05 478.15 105.75Q491.6 148.4 480.05 191.1Q472.2 220.15 455.35 245.55Q477.25 298.4 489.25 354.9Q492.35 369.65 496.05 384.45Q509.35 437.75 512.65 491.75Q512.7 492.45 512.2 493.2Q505.55 486.95 504.1 473.8Q497.85 415.8 483.15 359.5L454 247.5Q446.55 257.75 434.45 262L432.7 262Q432.1 293.5 430.75 324.95L425.3 443.5Q424 469.9 420.45 495.2Q414.25 487.5 415.6 473.3Q421.35 413.95 424.55 354.25Q427.7 294.8 428.55 235Q429.35 175.75 428.9 116.5Q428.7 92.45 434.2 71.5L434.5 73.3L434.95 73M371.95,77.5Q377.85 90 376.95 107.05Q375.45 136.6 376 166.25Q376.9 214.35 346.45 249.25Q323.25 245.7 322.05 220.7Q319.15 161.2 325.15 102.85Q326.65 88.5 331.2 76.5Q325.9 134.3 323.4 194.15Q322.6 213.2 331.55 228.85Q340.65 244.75 350.3 230.3Q371.7 198.4 370.95 159.25Q370.2 118.2 371.3 78.25Q371.35 77.85 371.95 77.5M470.1,101.4Q458.1 80.45 435.25 79.85L432.95 249.3L436.2 247.3Q453.55 235.8 464.25 217.85Q475.15 199.65 478.6 178.7Q481.95 158.45 480.8 137.9Q479.7 118.25 470.1 101.4M341.4,257.9Q343.5 255.65 345.95 255Q391.15 264.85 397.4 310.75Q398.9 321.7 400.8 332.65Q411.3 392.7 387.8 448.8Q379.1 469.6 366 487.85Q351 508.85 334.3 491.65Q325.8 482.9 323.6 470.85Q317.1 434.9 318.35 397.45Q319.85 352.85 324.8 309Q327.65 283.9 338.45 261L341.4 257.9M345.95,265.5Q328.25 290.25 326.5 322.15Q323.2 381.45 322.7 441.45Q322.45 470.65 345.35 485Q349.6 487.65 354 484.35Q373.6 469.5 381.65 445.05Q388.9 422.95 393.15 400.65Q404.5 341.2 378.3 286.9Q375.45 281 369.5 278.15Q363.95 275.5 361.95 270Q354.65 264.9 345.95 265.5M263.75,76.05L266.2 77Q287.35 97.6 294.15 127.85Q302.35 164.15 306.1 201.05Q312.05 260.3 309.95 320.25Q307.9 380.55 284.55 435.95Q272.25 465.2 245.35 479Q243.2 480.1 240.5 479.75L235.45 478.95Q207.15 454.25 205.45 414.8Q204.8 400.15 203.3 385.45Q197.4 326.65 196.1 267Q194.9 210.95 203.35 156.75Q210.7 109.45 247.55 81.7Q252.2 78.2 256.95 75.5Q260.9 74.1 263.75 76.05M256.7,87Q219.75 105.8 210.55 147.8Q197.95 205.45 200.6 265.8Q203.2 325.35 208.15 384.25Q211.15 420.15 225.9 452.45Q228.05 457.25 232.15 460.65Q240.5 467.65 250.95 464.45Q291.8 422.35 298.9 363.25Q305.95 304.35 303.95 244Q302 183.5 285.2 125.95Q279 104.6 265.45 87.5L256.7 87M182.4,83L181.2 86Q135.05 83.25 89.95 76.25Q95.6 146.25 93.75 211.65L122.1 210.35Q151 207.95 179.45 209.9L180.5 212.2Q181.1 213.9 181.35 215.8Q181.8 219.45 179.45 222.25Q135.7 224.05 93.25 219.75Q92.1 276.4 94 336.8Q96.15 405.45 88 473.2Q86.3 462.55 86.3 451.75Q86.4 381 86.8 310.25L87.8 74.25L87.5 66.35Q89.25 66.85 90.9 67.6Q109.85 75.15 130.15 72.5Q156.3 69.15 181.45 76.25L182.4 83M135.2,259.5Q138.6 318.35 139.6 377.95Q140.3 422.35 138.2 466.45Q166.25 473.4 194.45 476.45Q195.65 473.25 198.2 471.7Q200.55 481.25 196.45 490.2Q166.3 482.8 135.45 478.2Q134.65 419.7 134 359.7Q133.5 311 133.4 262.25Q133.4 259.85 135.2 259.5" />
</g>
</svg>
