<?xml version="1.0" encoding="utf-8"?>
<svg version="1.1" id="Layer_1"
xmlns="http://www.w3.org/2000/svg"
xmlns:xlink="http://www.w3.org/1999/xlink"


xml:space="preserve">
q-3.5 46.7 -4.75 94q-0.3 11.3 -1.75 22.35q-4.05 30.45 0.7 59.4q7.95 -9.1 5 -18.25q0.9 -22.6 2.4 -48.7q3.25 -54.9 0.2 -108.8q30.3 0.05 60.15 -4.7q2.25 -2.05 1.9 -5.3q-0.55 -5.4 -4.4 -8.95q-39.8 4.8 -80.5 7.75q-2.3 2.65 -1.95 6.5q0.15 2.05 1.2 3.75q-7.4 14.6 -3.15 30.6q0.55 2.15 1.8 0.65q5.35 -15.4 1.55 -31.25q-1 21 0.05 42q1.5 30.55 -24.8 22.95q-5.8 -1.65 -10.45 -5.65q-2.7 5.65 -1.8 11.7q0.8 5.35 5.25 8.8q18.8 14.75 26.7 -5.45q21 -53.7 9.6 -112q-3.65 18.3 -4.55 37.65q-0.75 -43.6 -34.9 -67.25q-8.3 -2.85 -17.5 -2.5q-4.05 0.4 -8.1 2.2q-24.55 20.85 -35 52.2q-19.35 58.15 1.3 114.85q8.25 22.65 33 18.6q55.95 -9.15 66.05 -63.75q5.05 -27.3 4.55 -55.4q-2.55 0.5 -2.95 3.5q-1.35 2.65 -1.2 6.35q2.05 59.2 -3.75 118.2q-1.75 17.45 4.5 29.2q3.05 -33.1 5.25 -66.6q1.15 -17.7 1.25 -35.25q3.65 -7 -0.55 -13.35q-20.8 0.3 -40.6 5.15q-0.4 -33.3 -4.65 -66.05q30.2 5.75 62.2 4.65q2.55 -2.9 2.3 -6.75q-0.3 -1.65 -1.2 -3q-0.35 -0.4 -0.75 -0.4q30.6 15.45 32.45 50.9q1.3 25.75 -4.7 50.65q-13.05 54.05 -70.25 53.7q-2.25 -0.05 -3.45 -1.3q-26.9 -26.95 -22.9 -67.1q2.95 -29.85 14.2 -57.45q11.35 -27.7 39.15 -34.4q7.55 -0.85 14 2<g id="937" transform="matrix(1, 0, 0, 1, -140.5, 0)">
<path style="fill:#000000;fill-opacity:1" d="M330.7,195.75Q329.65 194.05 329.5 192Q329.15 188.15 331.45 185.5Q372.15 182.55 411.95 177.75L418.45 178Q422.3 181.55 422.85 186.95Q423.2 190.2 420.95 192.25Q391.1 197 360.8 196.95Q363.85 250.85 360.6 305.75Q359.1 331.85 358.2 354.45Q361.15 363.6 353.2 372.7Q348.45 343.75 352.5 313.3Q353.95 302.25 354.25 290.95Q355.5 243.65 359 196.95L330.7 195.75M415.7,240.05Q414.45 241.55 413.9 239.4Q409.65 223.4 417.05 208.8L417.25 208.8Q421.05 224.65 415.7 240.05M416.45,246.25Q427.85 304.55 406.85 358.25Q398.95 378.45 380.15 363.7Q375.7 360.25 374.9 354.9Q374 348.85 376.7 343.2Q381.35 347.2 387.15 348.85Q413.45 356.45 411.95 325.9Q410.9 304.9 411.9 283.9Q412.8 264.55 416.45 246.25M325.8,301.65Q315.7 356.25 259.75 365.4Q235 369.45 226.75 346.8Q206.1 290.1 225.45 231.95Q235.9 200.6 260.45 179.75L262.85 178.95Q266.9 177.15 270.95 176.75Q280.15 176.4 288.45 179.25L289.7 179.75L290.7 179.4L291.5 179.2L295.45 179Q329.6 202.65 330.35 246.25Q330.85 274.35 325.8 301.65M212.2,181Q213.1 182.35 213.4 184L213.55 184.7L213.65 185.5L213.7 186.25L213.75 187Q214 190.85 211.45 193.75Q179.45 194.85 149.25 189.1Q153.5 221.85 153.9 255.15Q173.7 250.3 194.5 250Q198.7 256.35 195.05 263.35L194.5 264L153.95 265.3Q153.85 282.85 152.7 300.55Q150.5 334.05 147.45 367.15L146.75 368.7Q140.5 356.95 142.25 339.5Q148.05 280.5 146 221.3L144.85 191.25Q144.7 187.55 146.05 184.9L146 184.25L146 183.5L146 182.75L146.05 182Q146.45 179 149 178.5L211.45 180.6Q211.85 180.6 212.2 181M289.95,193.5L289.5 192.7L289.2 192L288.95 191.25Q282.5 188.4 274.95 189.25Q247.15 195.95 235.8 223.65Q224.55 251.25 221.6 281.1Q217.6 321.25 244.5 348.2Q245.7 349.45 247.95 349.5Q305.15 349.85 318.2 295.8Q324.2 270.9 322.9 245.15Q321.05 209.7 290.45 194.25L289.95 193.5" />
</g>
</svg>
