<?xml version="1.0" encoding="utf-8"?>
<svg version="1.1" id="Layer_1"
xmlns="http://www.w3.org/2000/svg"
xmlns:xlink="http://www.w3.org/1999/xlink"


xml:space="preserve">
q-3.1 0.95 -3.45 3.75q-2.15 59 -3.3 118.5q-1.15 59.55 -2.85 119.25q-1.65 57.05 -2.4 113.4q-1.4 1.65 -1.55 3.75q-0.25 4.15 2.05 7.5q8.5 4.25 18.35 1.8q9.9 -2.45 19.9 -2.65q35.85 -0.6 56.2 -28.95q12 -16.75 20.5 -35.15q25.7 -55.6 6.45 -114.65q-3.7 -11.45 -8.15 -22.45q-18.55 -45.8 -60.6 -66.4q13.5 -5.55 25.55 -15.55q51.5 -42.75 30.4 -105.3q-5.25 -15.55 -17.8 -26.25q-32.9 -27.95 -76.7 -30q-29.4 47.1 -85.4 46.4q0.85 -28.55 2.25 -57q2.75 -56.3 -1 -111.55q42.1 6.75 61 43.2q19.7 38.05 -2.95 74.45q15 25.3 23.8 53.4q13.7 44.1 -1.25 88q-12.05 23.55 -28.8 44.6q-7.35 9.2 -18.2 13.35q-31.05 11.8 -62.55 11.2q0.7 -54.55 1.8 -109.45q17.9 0.65 33.85 -4.65q30.7 15.05 48.4 44.9q-14.85 -49.8 -44.8 -92.15q-6.35 -22.8 -29.8 -23.75q-43.35 7.25 -62.4 46q-11.25 22.95 -17.7 47.75q-15 58 -17.3 118.2q-2.2 58.1 15.1 112.65q11 34.65 46.35 40.45q22.05 3.65 42.35 -5.25q31.45 -13.75 50.8 -42.8q26 -38.95 29.6 -84.85q4.7 -59.55 -12 -115.5q-0.6 65.35 -45.25 114.65q-35.75 39.4 -89.5 24.3q-3.75 -2.7 -6.85 -6q-28 -30.25 -32.55 -72.6q-6.35 -59.55 3.9 -118.5q6.4 -36.7 14.35 -73.1q12.75 -58.5 71.4 -71.5q9.85 -2.65 17.25 3.25q-0.95 2.9 0.55 5.1q25.2 35.85 42.9 76.65q24.35 56.05 23.8 117.75q-11.8 -11.7 -35.65 -8.9q-20.3 2.15 -40.7 0.05q-20.25 -2.15 -40.25 -6.4q-3.45 2.2 -2 6.25q-10.35 175.75 -12.2 351.85q-0.15 14.85 -1.1 29.55q-0.9 13.15 4.05 25.25q8.3 -98.7 6.7 -197.95q-0.5 -29.75 0.6 -59.4q1.9 -1.65 1.4 -4.85q5.15 -78 5.5 -156.2q68.5 14.2 138.55 18.35<g id="944" transform="matrix(1, 0, 0, 1, -49.55, 0)">
<path style="fill:#000000;fill-opacity:1" d="M389.3,63.9Q433.1 65.95 466 93.9Q478.55 104.6 483.8 120.15Q504.9 182.7 453.4 225.45Q441.35 235.45 427.85 241Q469.9 261.6 488.45 307.4Q492.9 318.4 496.6 329.85Q515.85 388.9 490.15 444.5Q481.65 462.9 469.65 479.65Q449.3 508 413.45 508.6Q403.45 508.8 393.55 511.25Q383.7 513.7 375.2 509.45Q372.9 506.1 373.15 501.95Q373.3 499.85 374.7 498.2L377.8 498.4Q378.55 442.05 380.2 385Q381.9 325.3 383.05 265.75Q384.2 206.25 386.35 147.25L389 69.35L379.45 67.5Q379.8 64.7 382.9 63.75L385.95 63.85L385.95 63.75L389.15 63.9L389.2 62.5L389.3 63.9M476.8,117.2Q457.9 80.75 415.8 74L389.7 69.5Q393.45 124.75 390.7 181.05Q389.3 209.5 388.45 238.05Q444.45 238.75 473.85 191.65Q496.5 155.25 476.8 117.2M422,243.15Q406.05 248.45 388.15 247.8L387.6 270.25L385.2 388.75Q384.1 443.65 383.4 498.2L383.4 498.6Q414.9 499.2 445.95 487.4Q456.8 483.25 464.15 474.05Q480.9 453 492.95 429.45Q507.9 385.55 494.2 341.45Q485.4 313.35 470.4 288.05Q452.7 258.2 422 243.15M360.75,326.65Q357.15 372.55 331.15 411.5Q311.8 440.55 280.35 454.3Q260.05 463.2 238 459.55Q202.65 453.75 191.65 419.1Q174.35 364.55 176.55 306.45Q178.85 246.25 193.85 188.25Q200.3 163.45 211.55 140.5Q230.6 101.75 273.95 94.5Q297.4 95.45 303.75 118.25L303.95 119Q333.9 161.35 348.75 211.15Q365.45 267.1 360.75 326.65M333.65,189Q315.95 148.2 290.75 112.35Q289.25 110.15 290.2 107.25Q282.8 101.35 272.95 104Q214.3 117 201.55 175.5Q193.6 211.9 187.2 248.6Q176.95 307.55 183.3 367.1Q187.85 409.45 215.85 439.7Q218.95 443 222.7 445.7Q276.45 460.8 312.2 421.4Q356.85 372.1 357.45 306.75Q358 245.05 333.65 189M207,73.25Q136.95 69.1 68.45 54.9Q68.1 133.1 62.95 211.1L149.5 216.95L149.95 217.3L150.8 218.35L151.1 219L151.35 219.55L151.5 220.25L151.65 221Q152.15 224.2 150.25 225.85L62.65 217.05L61.8 236.85Q60.7 266.5 61.2 296.25Q62.8 395.5 54.5 494.2Q49.55 482.1 50.45 468.95L52.7 435.3Q53.65 420.6 53.8 405.75Q55.65 229.65 66 53.9L63 52.5Q61.55 48.45 65 46.25L91.5 52Q111.5 56.25 131.75 58.4Q152.15 60.5 172.45 58.35Q196.3 55.55 208.1 67.25L207.45 72.8L207 73.25" />
</g>
</svg>
