<?xml version="1.0" encoding="utf-8"?>
<svg version="1.1" id="Layer_1"
xmlns="http://www.w3.org/2000/svg"
xmlns:xlink="http://www.w3.org/1999/xlink"


xml:space="preserve">
q-3.65 -10.75 -8.3 -20.85q-15.2 -32.65 -48.9 -37.85q-5.65 1.15 -11.35 3.6q-3.75 1.65 -5.8 4.75q-36.3 56.7 -6.6 116.75q16.7 33.8 28.25 70.3q9.05 28.6 18.4 56.95q17.8 54.15 25.1 110.7q5.5 42.35 -0.3 83.8q-6 42.95 -50.35 36.35q-14.25 -2.1 -27.1 -8.25q-11.8 -5.65 -14.4 -18.1q-2.8 -13.45 2.85 -26.1q5.35 -12 2.8 -23.05q-1.25 0.15 -1.6 0.75q-12.1 21.75 -11.4 47.5q0.6 19.15 16.7 28.9q21.5 13 47.75 14.15q8.3 0.35 14.4 -4.4q30.5 -23.75 30.4 -64.15q-0.1 -57.05 -10.7 -111.85q-5.4 -27.8 -14.35 -54.85q-3.75 -11.45 -10.15 -21.35q-33.05 -50.75 -7.45 -105.25q1.2 -2.6 3.05 -3.95q30.9 -22 53.3 9.65q8.5 15.55 13.15 29.6q2.85 -10.15 -0.55 -20.3q0.15 -1.15 -0.1 -2.25q-0.2 -1 -0.75 -1.9q12.85 10.75 27.8 17.95q0.8 -1.45 1 -3.05q-6.5 -6.75 -15.7 -8.55q-2.9 24 -2.1 49.15q0.55 16.6 0.25 33.55q-0.15 8.15 1.75 16q-6.3 -1.6 -10.5 2.8q-8.45 25.4 -4.5 51q5.95 18.8 17.65 34.15q-3.95 -18.25 -14.25 -34.9q7.85 -2.75 8.6 -11.05q0.25 -2.6 -0.15 -5.05q10.3 2.85 18.3 -3.4q3.75 -2.95 5.1 -7.6q5.8 -20.35 -8.25 -34.95q-22.45 32.55 -36.65 69.95q-5.5 61.85 -9.8 123.75q-0.4 6.15 0.2 12.2q0.5 5.2 3.1 9.55q8.45 -34.35 6.45 -70.3q4.3 45.55 22.4 83.4q-7.8 -43.45 -21.55 -85.8q9.9 -11.1 8.2 -25.7q-27 -0.55 -52.25 4q-0.7 1.8 -0.55 3.75q-0.4 2.55 -0.4 5.45q0 59.3 0.35 118.45q0.35 59.2 -2.65 118.5q0.65 1.65 2.25 2q4.75 -24.45 5.8 -51.45q1 -26.3 0.15 -52.6q-1.95 -59.3 -0.15 -119.15q0.35 -11.05 -1 -21.15q1.95 -3.95 0.95 -8.25q-5.75 -3.6 -12.45 -2.55q-14.55 28.05 8.3 57.45q7.6 9.75 10.7 22q-8.75 18.95 12.3 30.95q17.55 -34.5 -11.45 -64.55q-6.25 -6.45 -4.9 -15.7q0.55 -3.55 1.7 -6.95q5.2 -5.7 -1.6 -13.8q-1.4 -1.6 -2.5 -3.45q-12.25 -16.6 -27.65 -30.1q-1.25 -0.4 -2.25 -1.1q-13.4 -9.15 -29 -12.4q-1.85 -0.25 -3.75 1.05q-28.6 19.65 -38.6 54.05q-16.55 57.05 -24.2 116.2q-7.65 59.2 -5.15 119.2q1.25 30 4.55 59.4q5.45 48.85 38.9 84.55q10.3 9 22.3 14.7q2.2 1.05 3.9 0.35q28.7 -11.1 44.8 -39.2q10.25 -17.8 16.55 -37.05q18.65 -57.15 22.7 -117.3q3.95 -59.15 1.5 -118.5q-1.8 -43.25 -12.25 -84.7q-1.2 -0.55 -2.45 -0.75q-1.05 0.85 -1.15 2.25q-2.7 -6.95 -7.1 -12.9q23.55 7.45 19.4 31.45q-7.85 10.5 -21.25 8.2q0.15 -20.25 -0.45 -40.3q36.9 27.9 42.75 73.5q7.45 58.45 6.3 117.75q-1.2 59.55 -12.85 117.25q-12.9 63.95 -63.95 104.7q-21.1 -4.35 -35 -21.75q-9.05 -11.4 -14.55 -24.9q-18.1 -44.9 -20.45 -93.75q-2.85 -59.7 4.1 -118.6q6.9 -58.75 23.55 -115.4q9.5 -32.3 35.6 -51.55q17.95 1.15 32.5 12.25q-6.75 6.2 -15.9 6.55q0.6 -1.4 0.3 -2.9q-0.5 -1.9 -1.5 -3.25q-1.4 7 -1.6 13.85q-1.7 51.95 -1.65 103.9q0.25 164 -0.35 328q-0.05 14.9 -0.6 29.75q-0.35 6.1 0.2 12.25q1.2 -11.25 1.8 -22.65q1.85 -34.5 1.5 -69.15q-1.3 -140.55 -0.5 -281.1q-1.2 -0.6 -2.6 -0.55q-18.6 0.45 -37 3.9q0.5 -23.7 -1.5 -46.5q-2.65 1.65 -2.5 5.75q0.9 25.45 0 50.25q11.05 2.6 21.45 2.5q2.1 -5 -1 -9q-9.15 0.3 -16.45 -2.25q-10.6 3.25 -19.45 -2.75q-6.8 26.6 -3.5 56.25q2.15 -4 -0.1 -7.85q-0.35 -0.5 -0.35 -1.2q-10.5 25.9 -10.55 55.75q0 9.6 0.9 17.3q4.95 3 10.4 0.8q5.95 26.45 21.25 50.95q-6.45 -27.15 -19.25 -52.85q10.7 -10.25 10.3 -24.6q-0.2 -5.95 -3.9 -10.8q-4.4 -5.8 -10.65 -9.95q18.05 1.3 18.45 19.15q0.9 -3.6 -0.15 -7.25q-0.5 -1.9 -2.1 -3q-16.05 29.65 -11.2 62.4q2.05 14.1 10.7 25.35q9.8 -3.55 10.35 -12.85q0.05 -1.15 -0.4 -2.3q-2.85 1.3 -5 3.8q-16.75 2.65 -20.7 -12.9q-5.15 -20.2 -2.15 -40.95q1.8 -12.7 12.85 -18.2q6.65 -3.3 11.9 0.2q-3.4 27 0.4 51.95q2.9 -26.05 -0.3 -51.7q-0.6 -0.15 -0.65 0.3q2.05 27.1 -17 44.15q-8.6 -18.45 -6.3 -40.35q2.25 -20.95 2.55 -40.4q-1.5 1.55 -1.85 3.85q-4.3 27.9 -5.4 56.85q-1.1 28.45 24.25 33.8q7.75 -4.25 11.1 -12.15q17.55 -41.3 5.15 -84.6q-1.35 20.1 0.35 42.55q-22.35 23.1 -2.9 41.5q3.95 3.7 9.75 1.55q3.9 -1.35 5.1 -5.5q-23.4 19.9 -17.5 -11.2q1.05 -5.55 5.65 -8.2q6.35 -7.05 -5.45 -11.15q11.85 -20.6 14.2 -43.6q0.6 -5.95 -1.95 -11.4q-8.05 18.65 -9.55 39.5q-4.15 15.25 -9.3 30.15q-5 14.05 -2.45 28.7q1.4 -3.45 0.5 -7.1q-4.85 -19.7 -9.05 -39.35q-0.55 -2.45 -2.25 -4.25q-3.6 2.4 -3.85 7.45q-1.1 19.95 0.35 39.8q12.15 3.2 27.2 -0.35q2.6 -0.6 4.3 -2.65q2.05 -4.95 -1 -9q-13.1 4.35 -27.5 2.25q0.7 -18.85 0.5 -36.75q-4.4 2.1 -4.5 8q-0.3 21.05 0 42q14.3 1.75 27.2 -1.5q1.05 1.4 2.5 0.75q3.25 -4.95 -0.25 -9.5q-13.2 0.15 -26.45 0.75q3 -20.2 1.45 -39.75q-2.55 27.05 1 54<g id="954" transform="matrix(1, 0, 0, 1, -12.85, 0)">
<path style="fill:#000000;fill-opacity:1" d="M537.7,133.5Q533.05 119.45 524.55 103.9L514.7 85.75Q492.3 54.1 461.4 76.1Q459.55 77.45 458.35 80.05Q432.75 134.55 465.8 185.3Q472.2 195.2 475.95 206.65L512.65 318.25Q521.6 345.3 527 373.1Q537.6 427.9 537.7 484.95Q537.8 525.35 507.3 549.1Q501.2 553.85 492.9 553.5Q466.65 552.35 445.15 539.35Q429.05 529.6 428.45 510.45Q427.75 484.7 439.85 462.95Q440.2 462.35 441.45 462.2Q444 473.25 438.65 485.25Q433 497.9 435.8 511.35Q438.4 523.8 450.2 529.45Q463.05 535.6 477.3 537.7Q521.65 544.3 527.65 501.35Q533.45 459.9 527.95 417.55Q520.65 361 502.85 306.85Q493.5 278.5 484.45 249.9Q472.9 213.4 456.2 179.6Q426.5 119.55 462.8 62.85Q464.85 59.75 468.6 58.1Q474.3 55.65 479.95 54.5Q513.65 59.7 528.85 92.35Q533.5 102.45 537.15 113.2Q540.55 123.35 537.7 133.5M416.55,9.6L384.45 32.4L406.2 45.25L406.35 54.5L406.1 54.7Q391.15 47.5 378.3 36.75L347.95 57L347.95 50.25L373 32.1L354.45 12L355.55 3.7L378.7 27.9L414.95 0.75L415.95 1.55L416.7 2.4Q417.25 3.3 417.45 4.3Q417.7 5.4 417.55 6.55Q417.35 8.15 416.55 9.6M337.25,95.45Q335.9 100.1 332.15 103.05Q324.15 109.3 313.85 106.45L312.15 151.1L317.7 154.75Q318.1 157.2 317.85 159.8L317.75 161.25Q317 169.55 309.15 172.3Q319.45 188.95 323.4 207.2Q311.7 191.85 305.75 173.05L299.3 173.15L294.7 202Q290.75 176.4 299.2 151L300 153.4Q304.2 149 310.5 150.6Q308.6 142.75 308.75 134.6Q309.05 117.65 308.5 101.05Q307.7 75.9 310.6 51.9L310.95 51.5L312.35 51.75L313.2 50.25L313.3 51.95Q322.5 53.75 329 60.5Q343.05 75.1 337.25 95.45M373.85,175.95L359.4 201.25Q373.15 243.6 380.95 287.05L380.7 287.25Q362.6 249.4 358.3 203.85L347.2 232L345.15 226.95Q347.15 262.9 338.7 297.25Q336.1 292.9 335.6 287.7Q335 281.65 335.4 275.5Q339.7 213.6 345.2 151.75L345.3 220.25Q359.5 182.85 381.95 150.3L382.05 150.25Q383.75 164.85 373.85 175.95M436.95,292.2L449.95 292L450.8 292.85L451.65 294.25L451.9 295Q452.9 299.3 450.95 303.25L411.75 303.1Q413.1 313.2 412.75 324.25Q410.95 384.1 412.9 443.4Q413.75 469.7 412.75 496Q411.7 523 406.95 547.45Q405.35 547.1 404.7 545.45Q407.7 486.15 407.35 426.95Q407 367.8 407 308.5Q407 305.6 407.4 303.05L364.7 302.5L364.5 301.7L364.4 301L364.25 300.2L364.15 299.5Q364 297.55 364.7 295.75Q389.95 291.2 416.95 291.75L436.95 292.2M357.7,310.2Q364.5 318.3 359.3 324L351.95 313.6L341.7 314Q340.55 317.4 340 320.95Q338.65 330.2 344.9 336.65Q373.9 366.7 356.35 401.2L348.95 402.7L347.25 401.75Q326.2 389.75 334.95 370.8L335.95 377.2L346.25 389.9L354.95 389.95L359.95 383.95Q356.85 371.7 349.25 361.95Q326.4 332.55 340.95 304.5L342.75 304.2Q349.45 303.15 355.2 306.75Q356.3 308.6 357.7 310.2M260.95,63L261.15 61.75L261.3 60.25Q261.4 58.85 262.45 58L262.95 57.9Q264.2 58.1 265.4 58.65L266.2 59.25Q276.65 100.7 278.45 143.95Q280.9 203.3 276.95 262.45Q272.9 322.6 254.25 379.75Q247.95 399 237.7 416.8Q221.6 444.9 192.9 456Q191.2 456.7 189 455.65Q177 449.95 166.7 440.95Q133.25 405.25 127.8 356.4Q124.5 327 123.25 297Q120.75 237 128.4 177.8Q136.05 118.65 152.6 61.6Q162.6 27.2 191.2 7.55Q193.1 6.25 194.95 6.5Q210.55 9.75 223.95 18.9Q224.95 19.6 226.2 20Q241.6 33.5 253.85 50.1Q258.25 56.05 260.95 63M313.5,58.65Q314.1 78.7 313.95 98.95Q327.35 101.25 335.2 90.75Q339.35 66.75 315.8 59.3L313.5 58.65M223.45,30Q208.9 18.9 190.95 17.75Q164.85 37 155.35 69.3Q138.7 125.95 131.8 184.7Q124.85 243.6 127.7 303.3Q130.05 352.15 148.15 397.05Q153.65 410.55 162.7 421.95Q176.6 439.35 197.7 443.7Q248.75 402.95 261.65 339Q273.3 281.3 274.5 221.75Q275.65 162.45 268.2 104Q262.35 58.4 225.45 30.5L223.45 30M310.95,156L299.5 156.05L299.55 166.8Q308.7 166.45 315.45 160.25L310.95 156M93.25,17.75L21.15 12.65L20.75 168.15L33 165.55Q51.4 162.1 70 161.65Q71.4 161.6 72.6 162.2L73 170.75L20.8 174.55Q20 315.1 21.3 455.65Q21.65 490.3 19.8 524.8Q19.2 536.2 18 547.45L16.75 544.25L15.6 541L14.65 537.55L13.9 533.9L13.4 530.15Q12.85 524 13.2 517.9L14 503.05L14.65 488.1Q15.2 473.25 15.25 458.35Q15.85 294.35 15.6 130.35Q15.55 78.4 17.25 26.45Q17.45 19.6 18.85 12.6L16.05 11.75L16.25 8L43 6.5L93 8L93.35 8.5Q94.35 9.85 94.85 11.75L95.05 12.5Q95.35 14 94.75 15.4L94.5 16L94.15 16.6L93.25 17.75M91.75,143.75Q99.05 146.3 108.2 146Q111.3 150 109.2 155Q98.8 155.1 87.75 152.5Q88.65 127.7 87.75 102.25Q87.6 98.15 90.25 96.5Q92.25 119.3 91.75 143L91.75 143.75M99.85,247.4Q102.1 251.25 99.95 255.25L75.75 252.5Q72.45 222.85 79.25 196.25L79.75 243.5Q88.6 249.5 99.2 246.25L99.85 247.4M54.1,254.3L60.25 253.75Q66.5 257.9 70.9 263.7Q74.6 268.55 74.8 274.5Q75.2 288.85 64.5 299.1Q77.3 324.8 83.75 351.95Q68.45 327.45 62.5 301L60.85 301.7Q55.4 303.9 50.45 300.9L43.55 351.1Q42.65 343.4 42.65 333.8L42.7 309Q42.75 279.15 53.25 253.25Q53.25 253.95 53.6 254.45L54.1 254.3M71.55,278Q71.15 260.15 53.1 258.85L51.2 292.3L64.25 291.5L71.5 280.25L71.55 278M303.95,212.95Q292.9 218.45 291.1 231.15Q288.1 251.9 293.25 272.1Q297.2 287.65 313.95 285Q316.1 282.5 318.95 281.2L323.9 281.35Q324.35 282.5 324.3 283.65Q323.75 292.95 313.95 296.5L297.45 293Q288.8 281.75 286.75 267.65Q281.9 234.9 297.95 205.25L302.95 201.5L315.2 203.25Q316.8 204.35 317.3 206.25Q318.35 209.9 317.45 213.5L315.85 213.15Q310.6 209.65 303.95 212.95M292.2,351.2Q295.4 376.85 292.5 402.9L291.95 403.45Q288.15 378.5 291.55 351.5Q291.6 351.05 292.2 351.2M252.6,450L253.2 449.95Q265.6 493.25 248.05 534.55Q244.7 542.45 236.95 546.7Q211.6 541.35 212.7 512.9Q213.8 483.95 218.1 456.05Q218.45 453.75 219.95 452.2Q219.65 471.65 217.4 492.6Q215.1 514.5 223.7 532.95L226.2 533.7L228.7 535.95L235.95 536.7Q255 519.65 252.95 492.55Q251.25 470.1 252.6 450M296.25,452.8Q308.05 456.9 301.7 463.95L300.2 462.45L295.1 461.8Q290.5 464.45 289.45 470Q283.55 501.1 306.95 481.2L307.25 483L307.45 480.2L295.2 480.75L294.95 477.7L310.2 472.7L309.45 499.35L306.9 490Q305.7 494.15 301.8 495.5Q296 497.65 292.05 493.95Q272.6 475.55 294.95 452.45L296.25 452.8M298.65,434.95Q300.15 414.1 308.2 395.45L323.7 443.2L335.95 401.95Q338.5 407.4 337.9 413.35Q335.55 436.35 323.7 456.95L308.2 408.45L297.95 447.95L298.65 434.95M180.45,501.2Q184.65 520.85 189.5 540.55Q190.4 544.2 189 547.65L187.95 549.2L173.65 504.6L150.25 504.85L137.2 543.7Q134.65 529.05 139.65 515L147.55 492.4Q152.7 477.5 156.85 462.25L160.95 448.2L161.55 450.15L162.2 446.2L178.2 496.95Q179.9 498.75 180.45 501.2M321.7,537.45L321.7 538.2Q336.1 540.3 349.2 535.95Q352.25 540 350.2 544.95Q348.5 547 345.9 547.6Q330.85 551.15 318.7 547.95Q317.25 528.1 318.35 508.15Q318.6 503.1 322.2 500.7Q322.4 518.6 321.7 537.45M162.15,463.95L152.25 498.55L171.65 497.1L162.15 463.95M77.8,487.2L77.75 487.95Q91 487.35 104.2 487.2Q107.7 491.75 104.45 496.7Q103 497.35 101.95 495.95Q89.05 499.2 74.75 497.45Q74.45 476.5 74.75 455.45Q74.85 449.55 79.25 447.45Q80.8 467 77.8 487.2M361.5,473.55L364.2 448.7L364.5 502.35L361.65 481.4L345.55 481.3L342.95 502.2Q339.4 475.25 341.95 448.2L345.55 476.5L361.5 473.55" />
</g>
</svg>
