<?xml version="1.0" encoding="utf-8"?>
<svg version="1.1" id="Layer_1"
xmlns="http://www.w3.org/2000/svg"
xmlns:xlink="http://www.w3.org/1999/xlink"


xml:space="preserve">
q-1.2 -0.25 -1.15 0.65q3.3 35.8 11.15 71.45q6.4 29 12.15 57.95q5.8 29.35 13.35 56.4q1.75 -0.25 1.75 -1.95q14.75 -42.55 22.7 -86.85q5.2 -28.95 11.6 -57.45q5.05 -22.5 3.2 -43.9q-5.6 10 -7.7 22.55q-9.8 57.9 -22.65 115.7q-2.4 10.8 -7 21q-1.7 3.8 -2.65 7.4q-1.65 -26.05 -8.25 -51.75q-14.55 -56.45 -26.75 -113.65q0 -1.95 -1.25 -3.75q-20.4 1.25 -41.2 0.7q-1.75 2.8 -1.55 6.4q4 73.45 0.65 146.95q-0.4 8.55 -0.2 16.9q6.15 -5.6 6.45 -14.1q1.7 -45.8 1.65 -91.7q0.75 -0.5 1.3 -1.55q-0.4 -1.5 -1.25 -2.55q26.9 2.9 53.95 0.4q0.9 -0.65 1.15 -1.55q26.35 8.95 27.65 39q-2.45 29.2 -32 30.4q-19.5 0.8 -21.7 -18.05q-1.55 -13.2 -0.05 -26.25q2.5 -21.3 21.75 -26.1q2.25 0.25 4.35 1q-21.1 -16.2 -36.55 5.05q-13 18 -13.4 40.85q-0.45 23.6 16.85 37.05q18.45 14.35 34.85 -2.05q14.7 -14.75 16.2 -35.45q1.6 -21.95 -10.9 -40.55<g id="947" transform="matrix(1, 0, 0, 1, -145.7, 0)">
<path style="fill:#000000;fill-opacity:1" d="M345.45,181.5L346.2 182.25Q358.4 239.45 372.95 295.9Q379.55 321.6 381.2 347.65Q382.15 344.05 383.85 340.25Q388.45 330.05 390.85 319.25Q403.7 261.45 413.5 203.55Q415.6 191 421.2 181Q423.05 202.4 418 224.9Q411.6 253.4 406.4 282.35Q398.45 326.65 383.7 369.2L381.7 365.25Q381.7 366.95 379.95 367.2Q372.4 340.15 366.6 310.8Q360.85 281.85 354.45 252.85Q346.6 217.2 343.3 181.4Q343.25 180.5 344.45 180.75L345.45 181.5M214.2,184.5L214.15 186.75L214.1 187.45L213.95 188.25L213.75 189L213.6 189.7Q213.35 190.6 212.45 191.25L204.6 192.05Q177.55 194.55 150.65 191.65L155.3 251.6L199.9 252.7Q200.75 253.75 201.15 255.25L201.55 257.15L201.7 259L201.6 260.45L201.35 261.95L201 263.5L200.75 264.2Q200.2 265.25 199.45 265.75L155.6 265.15Q155.65 311.05 153.95 356.85Q153.65 365.35 147.5 370.95L146.8 360.3L146.35 349.35Q146.15 341 146.55 332.45Q149.9 258.95 145.9 185.5Q145.7 181.9 147.45 179.1L171.75 180.7Q192.55 181.25 212.95 180Q214.2 181.8 214.2 183.75L214.2 184.5M278.95,281.45Q259.7 286.25 257.2 307.55Q255.7 320.6 257.25 333.8Q259.45 352.65 278.95 351.85Q308.5 350.65 310.95 321.45Q309.65 291.4 283.3 282.45Q281.2 281.7 278.95 281.45M305,280.85Q317.5 299.45 315.9 321.4Q314.4 342.1 299.7 356.85Q283.3 373.25 264.85 358.9Q247.55 345.45 248 321.85Q248.4 299 261.4 281Q276.85 259.75 297.95 275.95L301.45 275.7L305 280.85" />
</g>
</svg>
