<?xml version="1.0" encoding="utf-8"?>
<svg version="1.1" id="Layer_1"
xmlns="http://www.w3.org/2000/svg"
xmlns:xlink="http://www.w3.org/1999/xlink"


xml:space="preserve">
q-3 22 -3.3 45.7q-0.7 59.6 -0.8 119.25q-0.15 59.5 -4.65 117.95q-1.3 5.85 -0.7 13q0.3 3.8 -0.35 7.25q-2.5 13.4 4.8 21.75q0.9 -0.6 1 -1.35q7.4 -49.8 6.45 -101.1q-0.8 -44.85 2.1 -89.2q1.95 -30.2 1.15 -60.15q16.05 56.25 23.85 114.5q1.8 13.35 9 20.5q1.4 -1.15 1.3 -2.95q0.9 -0.6 1 -1.35q4.15 -26.9 4.95 -54.65q1.7 -59.5 3.95 -119.15q2.25 -59.9 -0.4 -118.55q-0.75 0.1 -0.8 0.4q-4.5 17.75 -5 36.6q-3.3 -24.6 -9.55 -49.05q-14.7 -57.15 -31.65 -113.85q-17.15 -57.1 -27.55 -114.85q-0.2 -5.9 -0.8 -11.75q-4.45 9.85 -6.85 23.05q-10.6 57.15 -23.05 113.9q-12.75 58.25 -29.9 115.7q-4.3 14.5 -10.7 28.5q-7.85 17.2 0.5 29.3q10.5 -24.65 17.75 -50.75q16 -57.5 28.3 -115.3q17.35 5.4 35.8 5.25q2.2 13.85 4.55 27.7q9.9 58.2 14.2 117.3q1.25 16.7 8.7 28.95q2.6 -1.55 3.05 -4.7q1.2 -8.45 0 -16.8q-8.4 -58.45 -17.75 -116.75q-9.3 -58.35 -15.6 -117.15q-2.8 -26.15 -9.4 -51.05q-9.4 24.05 -16.5 51.35q-3.9 14.85 -5.35 29.5q-3.45 -16.3 -5.3 -32.9q-6.45 -59.05 -16.8 -116.8q-3.9 2.3 -3.25 8.25q1.7 14.7 2.5 29.4q0.9 16.7 8.35 28.45q8.35 -8.65 10.15 -24.6q1.55 -13.25 5.6 -25.85q6.8 -21.15 7.2 -42.1q10.6 47.15 25 94.1q1.2 1.7 3.25 2q3.05 -1.85 2.3 -5.6q3.3 -28.2 9.1 -55.9q6.3 -29.75 4.5 -58.8q-5.5 15.4 -8.65 33q-10.05 56.2 -16.5 113.3q-9.35 -36.4 -23.6 -71.55q-19.05 5.4 -38.75 2.65q-6.05 50.95 -5.15 104.15q1.6 95.85 -1.4 191.4q-0.05 1.9 0.3 3.75q11.15 -65.4 5.35 -135.6q-1.9 -22.95 -1.7 -46q1.8 -3.45 1.55 -7.4q-0.15 -2.3 -1.2 -4.55q-24.5 -3.8 -48.85 2.05q3.7 -52.5 2.8 -105.05q1.65 -2.8 1.55 -5.95q-0.25 -1.8 -1.75 -3.3q-3.75 48.05 -2.05 96.8q0.95 27.7 29.2 27.2q14.3 -7.55 22.5 -21.35q16.35 -27.65 13.75 -60.7q-0.75 -9.4 -0.15 -18.55q1.2 -17.45 -7.35 -27.6q-2.7 5.1 -3.75 10.35q0.65 -0.5 0.95 0.7q0.85 3.65 0.55 7.55q0.05 13.15 1 26.25q1.65 22.55 -8.35 42.05q-12.15 23.7 -37.15 18.15q-9.8 -25.85 -6.85 -55.55q2.8 -28.1 0.1 -54.65q-3.35 0.85 -3.65 4.95<g id="950" transform="matrix(1, 0, 0, 1, -54.9, 0)">
<path style="fill:#000000;fill-opacity:1" d="M363.45,96.25Q373.85 154 391 211.1Q407.95 267.8 422.65 324.95Q428.9 349.4 432.2 374L435.35 263.75L438.65 144.5Q439.15 125.65 443.65 107.9Q443.7 107.6 444.45 107.5Q447.1 166.15 444.85 226.05Q442.6 285.7 440.9 345.2Q440.1 372.95 435.95 399.85Q435.85 400.6 434.95 401.2L434.9 401.15L435.25 406.75Q435.35 408.55 433.95 409.7Q426.75 402.55 424.95 389.2Q417.15 330.95 401.1 274.7L368.65 160.55L366.65 152.9Q367.45 182.85 365.5 213.05Q362.6 257.4 363.4 302.25Q364.35 353.55 356.95 403.35Q356.85 404.1 355.95 404.7Q348.65 396.35 351.15 382.95Q351.8 379.5 351.5 375.7Q350.9 368.55 352.2 362.7L352.95 376.95L353.2 377.45Q357.7 319 357.85 259.5Q357.95 199.85 358.65 140.25Q358.95 116.55 361.95 94.55L362.45 94.5L362.65 96.25L363.45 96.25M204.65,153.55Q210.95 212.35 220.25 270.7Q229.6 329 238 387.45Q239.2 395.8 238 404.25Q237.55 407.4 234.95 408.95Q227.5 396.7 226.25 380Q221.95 320.9 212.05 262.7Q209.7 248.85 207.5 235Q189.05 235.15 171.7 229.75L170.5 235.15Q158.2 292.95 142.2 350.45Q134.95 376.55 124.45 401.2Q116.1 389.1 123.95 371.9Q130.35 357.9 134.65 343.4Q151.8 285.95 164.55 227.7Q177 170.95 187.6 113.8Q190 100.6 194.45 90.75Q195.05 96.6 195.25 102.5Q201.85 127.4 204.65 153.55M262.45,169.25Q276.7 204.4 286.05 240.8Q292.5 183.7 302.55 127.5Q305.7 109.9 311.2 94.5Q313 123.55 306.7 153.3Q300.9 181 297.6 209.2L291.25 262.95L292.25 267.65Q293 271.4 289.95 273.25Q287.9 272.95 286.7 271.25Q272.3 224.3 261.7 177.15Q261.3 198.1 254.5 219.25Q250.45 231.85 248.9 245.1Q247.1 261.05 238.75 269.7L237.45 274.5Q230 262.75 229.1 246.05Q228.3 231.35 226.6 216.65L213.2 99.75Q212.55 93.8 216.45 91.5Q226.8 149.25 233.25 208.3Q235.1 224.9 238.55 241.2L239.6 247.1Q241.05 232.45 244.95 217.6Q252.05 190.3 261.45 166.25L261.6 169.4L262.45 169.25M150.6,95.75L151 100.3Q151.1 103.45 149.45 106.25L66.8 104.45Q67.7 157 64 209.5Q88.35 203.65 112.85 207.45L113.8 209.3Q114.85 211.55 115 213.85Q115.25 217.8 113.45 221.25L63.65 222.1Q63.45 245.15 65.35 268.1Q71.15 338.3 60 403.7L58.45 400.55L57.1 397.25L56.05 393.8L55.25 390.05Q54.9 388.2 54.95 386.3Q57.95 290.75 56.35 194.9Q55.45 141.7 61.5 90.75L64.1 91.3L65.5 89.75L65.7 91.65L70.2 92.4Q89.9 95.15 108.95 89.75L148.85 92.45Q150.35 93.95 150.6 95.75M264.45,276.25Q267.15 302.8 264.35 330.9Q261.4 360.6 271.2 386.45Q296.2 392 308.35 368.3Q318.35 348.8 316.7 326.25Q315.75 313.15 315.7 300L315.4 299.7L315.45 297.95L315.7 298Q316 294.1 315.15 290.45Q314.85 289.25 314.2 289.75L314.1 290L312.95 287.35Q314 282.1 316.7 277Q325.25 287.15 324.05 304.6Q323.45 313.75 324.2 323.15Q326.8 356.2 310.45 383.85Q302.25 397.65 287.95 405.2Q259.7 405.7 258.75 378Q257.05 329.25 260.8 281.2Q261.1 277.1 264.45 276.25M205.2,220.35L193.6 131.7L174.15 218.4L205.2 220.35" />
</g>
</svg>
