<?xml version="1.0" encoding="utf-8"?>
<svg version="1.1" id="Layer_1"
xmlns="http://www.w3.org/2000/svg"
xmlns:xlink="http://www.w3.org/1999/xlink"


xml:space="preserve">
q-4.8 45.15 -8.2 90.65q-1.9 25.4 -3.15 50.95q-6.05 0.2 -12.3 -1.6q-19.1 1.75 -38.3 4.45q2.5 -59.95 4.15 -118.45q-5.05 10.4 -5.75 24.25q-2.65 52.5 -5.95 105q-0.45 1.45 -0.6 3q-0.25 2.25 0.05 4.5q-3.85 59.2 -7.05 118.6q-1 18.75 -3.9 37.2q-2.75 17.5 4.25 29.75q1.75 -0.9 1.9 -2.75q3.85 -44.05 6.8 -88.4q3.25 -48.9 5.5 -98q-0.9 19.6 -1.35 39.2q-1.45 59.85 -10.05 118.3q-2.5 16.75 3.7 29.9q0.9 -0.6 1 -1.35q8.5 -53.7 9.5 -108.6q0.7 -39.5 3.45 -78.65q1.25 -4 0.25 -8.1q1.15 -15.35 2.65 -30.65q5.75 -59.45 5 -117.75q-2.25 0.7 -2.6 3.75q45.85 1.65 90.65 -12.15q-7.15 67.4 -5.7 135.4q0.45 22.2 -0.95 44.4q-2.4 37.3 -7.05 74.4q-4.7 37.5 -4.9 75.35q-0.05 7.15 3.2 13.55q14.95 -85.65 16.2 -173.25q0.65 -44.6 1.65 -89.4q0.65 -27.8 0.1 -55.6q2.95 -6.3 -0.25 -12.45q-1.5 -9.1 -5 -17.65q-8.35 -20.65 -29.25 -28.3q-15.15 148 -32.85 296.85q-1.35 11.15 -1.75 22.35q0 3.65 0.3 7.3q17.85 -69.9 20.8 -145.25q0.95 -24.7 3.65 -49.3q14.6 1.15 25.45 -8.4q22.4 108.25 54.45 212.3q0.45 1.5 1.8 2.7q21.15 -23.5 28.7 -54.2q1.25 -5.15 1.9 -10.45q18.35 21.2 27.1 49.4q4.95 16.05 6.35 32.75q1.65 19.65 -3.25 38.8q-5.2 20.25 -16.35 38q-12.2 19.4 -34.3 14q-23.3 -5.65 -31.75 -28.7q-8.55 -23.3 -9.6 -48.25q-0.9 -20.3 2.25 -40.5q2.6 -16.8 10.7 -31.65q10.15 -18.55 29.4 -27.7q6.35 -3.1 12.85 0.35q-38.35 18.65 -45.6 62.25q-4.55 27.1 -5.6 54.9q-1.9 49.1 34.7 80.95q18 15.65 36.05 2.35q19.45 -14.35 26.35 -37.45q17.2 -57.7 1.4 -116.4q-9.85 -36.65 -47.3 -46.6q-13.9 24.25 -38.5 26.75q7.65 -54.75 6 -108.95q15.35 -7.75 24.15 5.9q32.8 50.75 2.4 103.75q-25.9 0.7 -50.7 8.25q0.35 0.55 0.85 0.7q-10.65 141.35 -19.45 283.1q-1.45 22.9 -2.6 45.65q-0.4 7.45 3.1 14.2q15.4 -86.2 15.3 -174.4q0 -21.85 1.15 -43.65q3.6 -5.05 0.8 -10.6q5.45 -57.6 5 -115.4q2.95 -5.1 0.35 -10.4<g id="949" transform="matrix(1, 0, 0, 1, -35.5, 0)">
<path style="fill:#000000;fill-opacity:1" d="M439.2,65.25Q439.95 123.55 434.2 183Q432.7 198.3 431.55 213.65Q432.55 217.75 431.3 221.75L430.9 222.85Q428.15 262 427.45 301.5Q426.45 356.4 417.95 410.1Q417.85 410.85 416.95 411.45Q410.75 398.3 413.25 381.55Q421.85 323.1 423.3 263.25Q423.75 243.65 424.65 224.05L374.15 224.3Q371.9 273.4 368.65 322.3Q365.7 366.65 361.85 410.7Q361.7 412.55 359.95 413.45Q352.95 401.2 355.7 383.7Q358.6 365.25 359.6 346.5Q362.8 287.1 366.65 227.9L367 222.45L366.9 222Q366.6 219.75 366.85 217.5Q367 215.95 367.45 214.5L367.5 214.5Q370.8 162 373.45 109.5Q374.15 95.65 379.2 85.25Q377.55 143.75 375.05 203.7L374.65 213.45Q393.85 210.75 412.95 209Q419.2 210.8 425.25 210.6Q426.5 185.05 428.4 159.65Q431.8 114.15 436.6 69Q436.95 65.95 439.2 65.25M370.65,71.95L334.7 78.5L335.4 103.7Q335.95 131.5 335.3 159.3Q334.3 204.1 333.65 248.7Q332.4 336.3 317.45 421.95Q314.2 415.55 314.25 408.4Q314.45 370.55 319.15 333.05Q323.8 295.95 326.2 258.65Q327.6 236.45 327.15 214.25Q325.7 146.25 332.85 78.85Q288.05 92.65 242.2 91L242.7 81.25L369.45 57.75L370.4 59.5Q373.6 65.65 370.65 71.95M185.45,144.05Q184.8 149.35 183.55 154.5Q176 185.2 154.85 208.7L206.2 405.45L208.95 398.2L207.2 427.45Q205.85 426.25 205.4 424.75Q173.35 320.7 150.95 212.45Q140.1 222 125.5 220.85Q122.8 245.45 121.85 270.15Q118.9 345.5 101.05 415.4L100.2 415.2L99.95 414.95Q99.65 411.3 99.65 407.65L99.65 400.3L99.85 392.95Q100.25 381.75 101.6 370.6Q119.3 221.75 134.45 73.75L133.45 64.75L149.95 57.5Q170.85 65.15 179.2 85.8Q182.7 94.35 184.2 103.45L185.35 111.05L186.2 118.6L186.4 122.3L186.5 129.65L186.4 133.3L186.2 136.9L185.85 140.45L185.45 144.05M267.6,139.5Q261.1 136.05 254.75 139.15Q235.5 148.3 225.35 166.85Q217.25 181.7 214.65 198.5Q211.5 218.7 212.4 239Q213.45 263.95 222 287.25Q230.45 310.3 253.75 315.95Q275.85 321.35 288.05 301.95Q299.2 284.2 304.4 263.95Q309.3 244.8 307.65 225.15Q306.25 208.45 301.3 192.4Q292.55 164.2 274.2 143L267.6 139.5M304.25,172.85Q320.05 231.55 302.85 289.25Q295.95 312.35 276.5 326.7Q258.45 340 240.45 324.35Q203.85 292.5 205.75 243.4Q206.8 215.6 211.35 188.5Q218.6 144.9 256.95 126.25Q294.4 136.2 304.25 172.85M163.15,77.75Q154.35 64.1 139 71.85L136.55 73Q138.2 127.2 130.55 181.95L127.05 208.25Q151.65 205.75 165.55 181.5Q195.95 128.5 163.15 77.75M106.9,73.7L61 79.7Q61.45 137.5 56 195.1L86.5 192L87.3 193.4Q90.1 198.95 86.5 204L55.45 205.15Q54.3 226.95 54.3 248.8Q54.4 337 39 423.2Q35.5 416.45 35.9 409Q37.05 386.25 38.5 363.35Q47.3 221.6 57.95 80.25L56.65 80.1Q56.15 79.95 55.8 79.4L55.75 70Q80.55 62.45 106.45 61.75L107.25 63.3Q109.85 68.6 106.9 73.7" />
</g>
</svg>
