<?xml version="1.0" encoding="utf-8"?>
<svg version="1.1" id="Layer_1"
xmlns="http://www.w3.org/2000/svg"
xmlns:xlink="http://www.w3.org/1999/xlink"


xml:space="preserve">
q-5.5 47.3 -2.85 95.2q3.3 59.6 1.05 119.2q-1.6 41.95 -16.45 81.2q-16.85 44.4 -66.15 40.75q-8.8 -3.55 -17.25 -8q-3.1 -4.55 -4.6 -9.9q-11.75 -42.75 -10.7 -88.3q1.35 -59.75 3.2 -119.25q1.9 -59.95 0.1 -118.5q-4.05 9 -4.1 21q-0.1 34.2 -1.15 68.25q-1.75 59.7 -3.05 119.25q-0.65 30.2 -0.95 59.95q-0.3 38.05 13.45 72.5q2.4 6.05 7.95 9.2q39.05 22.45 71.75 -8.8q5.95 -5.7 9.45 -12.8q22.95 -46.5 24.35 -99.05q1.55 -59.4 -0.05 -119.25q-0.85 -29.8 0.75 -59.95q1.25 -23.65 -3.65 -44.3q-1 0.75 -1.1 1.6q-2.6 -28.35 -30.6 -36q-44.55 17.95 -54.35 65.6q-10.4 50.55 -12.2 102.6q-2.05 59.45 6.65 117.15q4.65 30.85 28.5 47.75q26.8 19.05 48.8 -1.2q3.3 -3.05 5.9 -6.2q-2.2 15.5 4.35 25.45q4.55 -13.8 4.6 -29.25q0.05 -14.45 0.9 -29.15q1.75 -29.85 -3.75 -57.8q-13.15 4 -26.5 6.95q-1.4 3.95 0.5 7.5q13.2 1.8 24.25 -2.25q-0.75 19.5 -1.1 39q-4.5 10.45 -13.55 18.25q-19.15 16.45 -42.75 0.95q-4.65 -3.05 -7.1 -7.95q-23.15 -46.05 -22.05 -99q1.1 -54.2 3.9 -108q2.5 -48.1 36.75 -79.5q3.45 -2.7 7.15 -4.7q3.9 -2.15 8.25 -2.65q22.45 -2.5 30.85 20.1q0.45 0.35 0.95 0.3q-40.2 -2.2 -79.75 -6.95q-1.65 -0.4 -2.25 1q-0.5 1.05 -0.55 2.25q-0.15 2.75 1.25 5.15q-7.65 50 -7.4 101.6q0.25 59.8 -1.25 119.25q-1.4 -0.55 -2.1 -2.25q-1.9 9.3 5.25 17.75q0.85 -0.75 1.05 -1.65q3.65 -14.8 3.85 -30.6q27.95 4.2 57.1 2.4q3.6 -6.65 -0.65 -12.65q-29.2 -1.85 -57 2.4q0.3 -30.2 3.5 -59.9q1.25 -11.85 0.05 -22.8q39.35 10.95 80.65 11.2q0.2 -4.05 -2.6 -6.75<g id="976" transform="matrix(1, 0, 0, 1, -82.6, 0)">
<path style="fill:#000000;fill-opacity:1" d="M327.95,102Q332.85 122.65 331.6 146.3Q330 176.45 330.85 206.25Q332.45 266.1 330.9 325.5Q329.5 378.05 306.55 424.55Q303.05 431.65 297.1 437.35Q264.4 468.6 225.35 446.15Q219.8 443 217.4 436.95Q203.65 402.5 203.95 364.45Q204.25 334.7 204.9 304.5Q206.2 244.95 207.95 185.25Q209 151.2 209.1 117Q209.15 105 213.2 96Q215 154.55 213.1 214.5Q211.25 274 209.9 333.75Q208.85 379.3 220.6 422.05Q222.1 427.4 225.2 431.95Q233.65 436.4 242.45 439.95Q291.75 443.6 308.6 399.2Q323.45 359.95 325.05 318Q327.3 258.4 324 198.8Q321.35 150.9 326.85 103.6Q326.95 102.75 327.95 102M458.45,133L456.45 133.45Q455.95 133.5 455.5 133.15L454.7 132.5Q446.3 109.9 423.85 112.4Q419.5 112.9 415.6 115.05Q411.9 117.05 408.45 119.75Q374.2 151.15 371.7 199.25Q368.9 253.05 367.8 307.25Q366.7 360.2 389.85 406.25Q392.3 411.15 396.95 414.2Q420.55 429.7 439.7 413.25Q448.75 405.45 453.25 395L453.35 389.95Q453.7 370.45 454.45 350.95Q443.4 355 430.2 353.2Q428.3 349.65 429.7 345.7L429.95 344.95Q443.3 342 456.45 338Q461.95 365.95 460.2 395.8Q459.35 410.5 459.3 424.95Q459.25 440.4 454.7 454.2Q448.15 444.25 450.35 428.75L451.25 421.95Q448.65 425.1 445.35 428.15Q423.35 448.4 396.55 429.35Q372.7 412.45 368.05 381.6Q359.35 323.9 361.4 264.45Q363.2 212.4 373.6 161.85Q383.4 114.2 427.95 96.25Q455.95 103.9 458.55 132.25L458.45 133M181.45,94Q184.25 96.7 184.05 100.75L183.6 103.7L182.95 106L182.65 106.7L182.2 107.5Q140.9 107.25 101.55 96.3Q102.75 107.25 101.5 119.1Q98.3 148.8 98 179L97.45 229.65Q125.25 225.4 154.45 227.25Q158.7 233.25 155.1 239.9L154.45 240.75Q125.3 242.55 97.35 238.35L96.5 298.25L94.65 417.45Q94.45 433.25 90.8 448.05Q90.6 448.95 89.75 449.7Q82.6 441.25 84.5 431.95Q85.2 433.65 86.6 434.2L86.75 433.95L90 316.25Q91.5 256.8 91.25 197Q91 145.4 98.65 95.4Q97.25 93 97.4 90.25Q97.45 89.05 97.95 88Q98.55 86.6 100.2 87Q139.75 91.75 179.95 93.95L181.45 94" />
</g>
</svg>
