<?xml version="1.0" encoding="utf-8"?>
<svg version="1.1" id="Layer_1"
xmlns="http://www.w3.org/2000/svg"
xmlns:xlink="http://www.w3.org/1999/xlink"


xml:space="preserve">
q-2.1 0.2 -4.2 -0.6q-0.35 0.2 -0.6 0.8q-0.8 1.8 -2.9 2.95q2.75 -0.6 6 0.5q-28.85 0.25 -57.85 12.25q5.8 -58.6 5.45 -117.65q1.15 -3.05 -0.25 -6q-3.75 24.75 -5 52q-2.75 59.25 -8.5 117.9q-5.9 59.5 -15.3 118.15q-2.25 14.3 5.55 21.65q7.45 -32.15 9.75 -65.9q2.8 -41.95 6.6 -83.75q28.65 -9 58.7 -7.85q-5.3 58.75 -9.95 117.6q-0.3 -6.55 -2 -12.75q0.35 19.7 0.25 39.75q0.7 1.6 2.25 2.25q6 -2 6.6 -9.65q2.7 -34.45 6.05 -68.95q5.7 -58.75 10.85 -117.75q5.15 -59.5 3.25 -117.85q-5.05 24 -7.25 50.65q-19.2 -14.35 -38.05 1.7q-16.55 14.1 -18.7 35.8q-2 20.05 0.85 40.05q3.05 21.4 12.7 40.55q8.5 16.95 19.85 32.15q13.1 17.45 19.6 38.15q6.75 21.45 0.75 42.95q-5.75 20.6 -21.5 35.1q-16.6 15.25 -39.1 10.15q-11.9 -2.85 -21.5 -10.55q-6.15 16.95 10.05 27.7q14.4 9.55 31.55 10.6q7.75 0.05 14.65 -2.95q11.95 -5.2 20.7 -14.9q12.25 -13.5 18.75 -30.65q8.25 -21.8 5.6 -45.1q-5.65 -49.15 -36.2 -88.7q-19.35 -25.05 -22 -56.25q-2.9 -34.7 25.4 -47.7q17.75 -8.25 31.5 5.75q3.2 -8.2 -2.35 -15.35q-9.4 9.4 -3.75 21.75q1.1 0.3 0.35 -1.05q1.45 0.3 1.8 4.95q4.55 59.85 1.4 119.3q-3.25 61.45 -28.7 116.95q-11.25 10.05 -25.55 13.25q-30.25 6.75 -33.7 -21.15q-7.15 -58.8 -3.4 -118.25q3.7 -59 10.65 -117.65q1.95 -16.6 -4.2 -28.9q-2.9 19 -5.15 40.55q-6.2 59.1 -8.55 118.75q-2.35 58.55 3.65 116.1q2.1 20.15 20.35 26.9q12.05 4.45 23.8 0.1q34.5 -12.75 44.6 -47.75q16.9 -58.35 20.3 -118.95q2 -36.55 1.7 -73.45q-0.25 -30.7 -7.2 -58.5q-7.1 0.1 -13.5 2.6q-6.65 27.15 -9.25 55.3q-4.45 48.4 -6.05 96.95q-2.35 73.15 -8.35 145.9q-2.05 8.1 -0.55 16.2q1.15 3.1 3.15 5.65q7.1 -23.8 7.55 -48.75q1.05 -59.3 4 -118.45q30.55 4 61.25 -0.1q3 -4.65 1.85 -9.9q6.4 -49.4 9.25 -99q40.85 -0.55 81.4 4.75q-34.75 -4.55 -70.4 -3.9q-3.1 19.9 -3.6 41.2q-1.5 59.3 -5.9 117.7q-2.8 7.9 1.25 15.85q0.55 1.7 1.75 3.15q33.65 6.9 67.35 2.25q1.5 -1.55 2.05 -3.7q2 -7.6 -2.55 -13.55q-5 1 -7 -1q0.15 -1.9 -0.3 -3.75q-0.4 2.4 -0.4 4.9q-28.2 2.7 -57.15 3.85q3.25 -23.5 5.15 -48q4.55 -60 -1 -118.55<g id="974" transform="matrix(1, 0, 0, 1, -49.95, 0)">
<path style="fill:#000000;fill-opacity:1" d="M500.2,85Q502.1 143.35 496.95 202.85Q491.8 261.85 486.1 320.6Q482.75 355.1 480.05 389.55Q479.45 397.2 473.45 399.2Q471.9 398.55 471.2 396.95Q471.3 376.9 470.95 357.2Q472.65 363.4 472.95 369.95L472.95 370.95Q477.6 312.1 482.9 253.35L484.15 239.4Q454.1 238.25 425.45 247.25L425.3 247.05Q421.5 288.85 418.7 330.8Q416.4 364.55 408.95 396.7Q401.15 389.35 403.4 375.05Q412.8 316.4 418.7 256.9Q424.45 198.25 427.2 139Q428.45 111.75 432.2 87L433.2 87.75L433.95 88.5Q435.35 91.45 434.2 94.5L433.95 95.25Q434.3 154.3 428.5 212.9L426.6 232.75Q455.6 220.75 484.45 220.5Q481.2 219.4 478.45 220Q480.55 218.85 481.35 217.05Q481.6 216.45 481.95 216.25Q484.05 217.05 486.15 216.85L492.95 135.65Q495.15 109 500.2 85M399.6,98.65Q405.15 105.8 401.95 114Q388.2 100 370.45 108.25Q342.15 121.25 345.05 155.95Q347.7 187.15 367.05 212.2Q397.6 251.75 403.25 300.9Q405.9 324.2 397.65 346Q391.15 363.15 378.9 376.65Q370.15 386.35 358.2 391.55Q351.3 394.55 343.55 394.5Q326.4 393.45 312 383.9Q295.8 373.15 301.95 356.2L306.35 356.25L309.9 360L312.7 354.75L311.95 361.2Q321.55 368.9 333.45 371.75Q355.95 376.85 372.55 361.6Q388.3 347.1 394.05 326.5Q400.05 305 393.3 283.55Q386.8 262.85 373.7 245.4Q362.35 230.2 353.85 213.25Q344.2 194.1 341.15 172.7Q338.3 152.7 340.3 132.65Q342.45 110.95 359 96.85Q377.85 80.8 397.05 95.15L399.6 98.65M301.45,89Q308.4 116.8 308.65 147.5Q308.95 184.4 306.95 220.95Q303.55 281.55 286.65 339.9Q276.55 374.9 242.05 387.65Q230.3 392 218.25 387.55Q200 380.8 197.9 360.65Q191.9 303.1 194.25 244.55Q196.6 184.9 202.8 125.8Q205.05 104.25 207.95 85.25Q214.1 97.55 212.15 114.15Q205.2 172.8 201.5 231.8Q197.75 291.25 204.9 350.05Q208.35 377.95 238.6 371.2Q252.9 368 264.15 357.95L270.7 352.45Q296.15 296.95 299.4 235.5Q302.55 176.05 298 116.2Q297.65 111.55 296.2 111.25Q296.95 112.6 295.85 112.3L294.45 111.5Q288.8 99.15 298.2 89.75L301.45 89M161.4,82.05L163.4 89.5L160.45 96.75Q119.9 91.45 79.05 92Q76.2 141.6 69.8 191L138.45 187L139.6 188.85L140.4 190.65L140.95 192.45Q142.1 197.7 139.1 202.35L130.1 203.55Q99.4 207.65 68.85 203.65L67.55 227.75Q64.6 286.9 63.55 346.2Q63.1 371.15 56 394.95Q54 392.4 52.85 389.3L51.85 386.2L51.45 384.65Q49.95 376.55 52 368.45L52.5 378.95Q58.5 306.2 60.85 233.05Q62.45 184.5 66.9 136.1Q69.5 107.95 76.15 80.8L77 82.3L77.5 80.75Q83.9 78.25 91 78.15Q126.65 77.5 161.4 82.05M113.45,213Q119 271.55 114.45 331.55Q112.55 356.05 109.3 379.55Q138.25 378.4 166.45 375.7Q166.45 373.2 166.85 370.8L167.2 370.7Q167.65 372.55 167.5 374.45L167.45 375.2Q169.45 377.2 174.45 376.2Q179 382.15 177 389.75Q176.45 391.9 174.95 393.45Q141.25 398.1 107.6 391.2L107.45 392.2L106.6 391L106.45 390.95Q105.25 389.5 104.7 387.8Q100.65 379.85 103.45 371.95Q107.85 313.55 109.35 254.25Q109.85 232.95 112.95 213.05L113.45 213" />
</g>
</svg>
