<?xml version="1.0" encoding="utf-8"?>
<svg version="1.1" id="Layer_1"
xmlns="http://www.w3.org/2000/svg"
xmlns:xlink="http://www.w3.org/1999/xlink"


xml:space="preserve">
q8.8 41.85 -29.8 56.25q-26.75 3.75 -33.4 -19.95q-3.05 -10.85 -1.4 -22.05q3.55 -24.55 -3.7 -45.2q-2.05 20.4 -3.8 41.95q-1.7 21.85 6.6 41.35q10.55 24.65 37.85 16.9q36.25 -10.25 36.25 -49q0.05 -26.95 -5.9 -51.7q-6.5 13.5 -2.7 31.45q-3.75 23.95 -3.4 49.45q0.85 59.95 -4.9 119.05q-1.4 14.45 5.6 21.15q2.85 -35.4 4.65 -71.2q31.9 -5.3 63 -3.15q1.6 -1.5 2 -3.75q0.65 -4.15 -0.55 -8.2q-0.45 -1.45 -1.7 -2.25q-6 -1.35 -12.4 -0.9q-21.9 0.55 -42.95 5.65q0.5 -36.05 -1.65 -71.75q45.25 3.6 91.35 1.6q3.25 -5.35 0.8 -11.3q-37.2 -1.2 -72.1 5<g id="961" transform="matrix(1, 0, 0, 1, -156.25, 0)">
<path style="fill:#000000;fill-opacity:1" d="M382.45,262Q388.4 286.75 388.35 313.7Q388.35 352.45 352.1 362.7Q324.8 370.45 314.25 345.8Q305.95 326.3 307.65 304.45Q309.4 282.9 311.45 262.5Q318.7 283.15 315.15 307.7Q313.5 318.9 316.55 329.75Q323.2 353.45 349.95 349.7Q388.55 335.3 379.75 293.45Q375.95 275.5 382.45 262M166.85,182.5Q201.75 176.3 238.95 177.5L257.45 178.1L258.45 178.5L259.15 179.3L259.5 179.95Q261.95 185.9 258.7 191.25Q212.6 193.25 167.35 189.65Q169.5 225.35 169 261.4Q190.05 256.3 211.95 255.75Q218.35 255.3 224.35 256.65L231.45 257.75Q232.7 258.55 233.15 260Q234.35 264.05 233.7 268.2Q233.3 270.45 231.7 271.95Q200.6 269.8 168.7 275.1L167.9 296Q166.1 331.8 163.25 367.2Q156.25 360.5 157.65 346.05Q163.4 286.95 162.55 227Q162.2 201.5 165.95 177.55L166.5 177.5L166.85 182.5" />
</g>
</svg>
