<?xml version="1.0" encoding="utf-8"?>
<svg version="1.1" id="Layer_1"
xmlns="http://www.w3.org/2000/svg"
xmlns:xlink="http://www.w3.org/1999/xlink"


xml:space="preserve">
q-2.45 7.75 -4.15 15.65q-11.65 53.4 -25.85 105.55q-3.55 -21.8 -6.85 -43.7q-8.85 -59.15 -14.8 -116.55q-1.55 0.75 -2.5 1.95q-5.05 16.25 -7.2 35.05q-6.7 58.65 -19.1 116.4q-12.35 57.8 -20.1 116.35q-1.95 14.7 -6.55 28.7q-5.4 16.5 1.2 28.95q6.45 -16.55 8.5 -34.5q6.6 -58.65 18.65 -116.45q12.05 -57.85 22.25 -116q1.4 -7.9 2.2 -15.7q1.1 10.45 3.25 20.9q11.95 57.75 15.75 116.8q0.45 7 1.85 13.15q0.5 7 3.55 13.1q2.2 -2.6 2.05 -6q5.85 -24 11.35 -48.4q13 -57.5 26.65 -114.95q0.85 12 2.55 23.95q8.2 58.55 13.1 117.55q4.9 59 13.6 116.75q3.8 17.5 8 33.75q3.25 -0.75 3.1 -4.45q-1.8 -40.05 -8.4 -79.8q-9.75 -58.4 -14.25 -117.55q-4.25 -56.2 -15.2 -110.7q0 -4.55 -0.5 -8.95q-0.3 44 -1.45 88.5q-1.05 39.55 33.3 55.35q12.7 5.8 26.2 4.2q9.85 -1.2 16.4 -8.5q24.95 -27.85 30 -65.3q8.05 -60.2 -3.7 -118.75q-3.95 0.25 -3.8 4.4q0.5 10.75 1.75 21.95q6.75 60.3 -10 117.4q-3.5 12 -12.2 20.75q-26.1 26.25 -58.3 1.55q-3.1 -2.45 -4.25 -5.85q-10.7 -32.85 -9.3 -68.5q2.35 -60.15 3.85 -118.45q-8.25 33.7 -8.5 71.25q-6 13.45 -5.4 30.2q0.75 21.8 -0.4 43.7q-0.6 11 -1.05 22.05q-0.7 18.55 -3.85 36.85q-3.6 20.9 -1.15 41.65q0.6 5.2 2.8 10q10.65 -60.35 11.15 -121.75q0.25 -28.6 1.9 -57.2q22.65 6.65 45.9 3q2.95 -4.05 1.65 -9.15q-22.65 2.4 -44.95 -1.65q4.7 -7.35 -1.25 -13.5q-34 -1.05 -67.2 6.5<g id="964" transform="matrix(1, 0, 0, 1, -69.25, 0)">
<path style="fill:#000000;fill-opacity:1" d="M408.7,97.95Q419.65 152.45 423.9 208.65Q428.4 267.8 438.15 326.2Q444.75 365.95 446.55 406Q446.7 409.7 443.45 410.45Q439.25 394.2 435.45 376.7Q426.75 318.95 421.85 259.95Q416.95 200.95 408.75 142.4Q407.05 130.45 406.2 118.45L406.15 118.5Q392.5 175.95 379.5 233.45Q374 257.85 368.15 281.85L368.75 292.75Q368.9 296.15 366.7 298.75L364.85 295.2L364.45 296.75Q361.4 290.65 360.9 283.65Q359.5 277.5 359.05 270.5Q355.25 211.45 343.3 153.7Q341.15 143.25 340.05 132.8Q339.25 140.6 337.85 148.5Q327.65 206.65 315.6 264.5Q303.55 322.3 296.95 380.95Q294.9 398.9 288.45 415.45Q281.85 403 287.25 386.5Q291.85 372.5 293.8 357.8Q301.55 299.25 313.9 241.45Q326.3 183.7 333 125.05Q335.15 106.25 340.2 90L340.7 95.95Q341.65 94.75 343.2 94Q349.15 151.4 358 210.55Q361.3 232.45 364.85 254.25L365.45 258Q379.65 205.85 391.3 152.45L401.3 106.15Q403 98.25 405.45 90.5L407.55 89.15L408.2 89Q408.7 93.4 408.7 97.95M195.2,113.75Q193.7 172.05 191.35 232.2Q189.95 267.85 200.65 300.7Q201.8 304.1 204.9 306.55Q237.1 331.25 263.2 305Q271.9 296.25 275.4 284.25Q292.15 227.15 285.4 166.85Q284.15 155.65 283.65 144.9Q283.5 140.75 287.45 140.5Q299.2 199.05 291.15 259.25Q286.1 296.7 261.15 324.55Q254.6 331.85 244.75 333.05Q231.25 334.65 218.55 328.85Q184.2 313.05 185.25 273.5Q186.4 229 186.7 185Q186.95 147.45 195.2 113.75M155.45,87.75Q161.4 93.9 156.7 101.25L88.1 104.7L88.95 207.6Q111.25 211.65 133.9 209.25L134.15 209.55L134.75 210.85L135.1 212.1Q136.4 217.2 133.45 221.25Q110.2 224.9 87.55 218.25Q85.9 246.85 85.65 275.45Q85.15 336.85 74.5 397.2Q72.3 392.4 71.7 387.2Q69.25 366.45 72.85 345.55Q76 327.25 76.7 308.7L77.85 279.1L79.05 249.45L80.2 219.85L81.4 190.2Q81.85 179.15 82.45 168.15Q83.6 146.25 82.85 124.45Q82.25 107.7 88.25 94.25Q121.45 86.7 155.45 87.75" />
</g>
</svg>
