<?xml version="1.0" encoding="utf-8"?>
<svg version="1.1" id="Layer_1"
xmlns="http://www.w3.org/2000/svg"
xmlns:xlink="http://www.w3.org/1999/xlink"


xml:space="preserve">
q-5.4 -25.1 -10.55 -51q-11.55 -58.05 -31.1 -113.05q-2.25 0.05 -2.35 2.5q-0.55 11.75 2.9 22.95q17.5 56.6 29.55 114.8q2.3 11 2.85 22.05q0.8 14.65 7.35 24.65q18.3 -40.95 29.9 -85.1q7.55 -28.7 16.45 -56.6q7.05 -22.15 6.05 -43.2q-8.3 11.25 -11.8 26.7q-13.05 57.25 -32 113.35q-2.4 7.15 -6.25 13.65q-2.7 4.6 -4.3 9.1q-0.65 0.6 -1.3 0.6q-4.3 11.95 -4 24.55q1.95 75.75 -3.45 151.25q-0.45 5.95 3.15 10.85q18.8 4.25 38.05 4.6q0.9 -1.05 1.3 -2.5q16.05 5.15 32.8 6.35q17.3 1.25 34.3 -1.45q-5.3 20 -3 41.45q2.35 21.45 -13.95 35.75q-22.1 19.5 -33.2 -6.2q-8 -18.6 -4.35 -39.15q3.35 -19.1 -1.35 -37q-7.1 39.35 -2.75 78.95q2.4 21.85 22.1 25.3q14.55 2.4 24.75 -9.2q16.7 -19.05 19.55 -44.55q1.7 -15.45 -1.65 -30.7q-1.75 -7.85 -6.15 -14.65<g id="965" transform="matrix(1, 0, 0, 1, -139.6, 0)">
<path style="fill:#000000;fill-opacity:1" d="M371.4,334.95Q375.25 328.45 377.65 321.3Q396.6 265.2 409.65 207.95Q413.15 192.5 421.45 181.25Q422.45 202.3 415.4 224.45Q406.5 252.35 398.95 281.05Q387.35 325.2 369.05 366.15L368.25 368.9L367.7 369.7L367.55 369.5L366.95 370.7L365.75 366.95Q359.2 356.95 358.4 342.3Q357.85 331.25 355.55 320.25Q343.5 262.05 326 205.45Q322.55 194.25 323.1 182.5Q323.2 180.05 325.45 180Q345 235 356.55 293.05Q361.7 318.95 367.1 344.05Q368.7 339.55 371.4 334.95M215.2,196.25Q198.2 198.95 180.9 197.7Q164.15 196.5 148.1 191.35L150.15 267.35L193.85 271.2L194.7 273L195.15 274.55L195.4 276L195.45 276.7L195.35 278.1L195.15 279.4L194.8 280.7Q194.4 282.15 193.5 283.2L188 283.1Q168.75 282.75 149.95 278.5L144.5 369.95L143.2 368.4Q139.6 363.5 140.05 357.55Q145.45 282.05 143.5 206.3Q143.2 193.7 147.5 181.75L147.6 182.4Q148.25 182.4 148.9 181.8L174.6 184.05L215.2 185.75L215.2 196.25M297.1,283.85Q300.45 299.1 298.75 314.55Q295.9 340.05 279.2 359.1Q269 370.7 254.45 368.3Q234.75 364.85 232.35 343Q228 303.4 235.1 264.05Q239.8 281.95 236.45 301.05Q232.8 321.6 240.8 340.2Q251.9 365.9 274 346.4Q290.3 332.1 287.95 310.65Q285.65 289.2 290.95 269.2Q295.35 276 297.1 283.85" />
</g>
</svg>
