<?xml version="1.0" encoding="utf-8"?>
<svg version="1.1" id="Layer_1"
xmlns="http://www.w3.org/2000/svg"
xmlns:xlink="http://www.w3.org/1999/xlink"


xml:space="preserve">
q-2.4 3 -1.8 7.25q0.2 1.6 1.05 3q25.15 2.95 50 3.3q-2.6 8.45 -2.65 18.45q-0.2 59.35 -3.55 118.45q-0.4 7.45 -2 14.7q-3.15 14.1 4.45 21.8q4.85 -30.2 6.1 -61.45q2.3 -56.85 0.4 -111.9q1.75 -3.55 1.55 -7.5q-0.2 -3.2 -1.8 -6q-3.25 37.7 -4.9 75.8q-8.1 1.35 -15.65 3.85q-1.5 -24.15 -3.6 -48q-0.5 0.1 -0.55 0.3q-3.6 18.2 -3.15 37.45q1.35 60.05 1.95 118.45q2.3 1.8 3.2 -1q5.55 -17.2 5.1 -36.75q-0.7 -30.15 -2.3 -59.85q22.35 1.25 45.9 1.15q-0.8 30.1 -4.55 59.8q-1.85 14.35 5.2 21.95q5.15 -35.1 6.9 -71.9q2.75 -59.9 -1.15 -118.55q-8.9 -0.4 -17.65 -1.9q-1.45 1.85 -1.4 4.4q1.2 77.8 0.45 155.95q-0.1 9.55 3.15 18.5q2.95 -25.85 3.15 -51.95q0.15 -24 -0.95 -47.95q17.4 3 35.05 2.85q0.05 -3.2 -1.9 -5.55q-19.25 2.45 -38.65 1.7q5.8 19.6 13.2 38.9q-5.05 -1.5 -10.45 -1.3q-8.75 4.75 -12 14.45q-8.55 25.35 4.5 46.3q15.55 4.3 29.8 -2.45q6.95 -3.3 10.3 -7.2q5.75 9.75 12.65 16.65q3.65 -7.2 -0.2 -14.5q-24.15 -46.1 -45.55 -93.45q-3.1 -0.3 -2.25 2.6q-0.95 -24.9 24.45 -23.8q5.4 13.4 11.6 26.65q-14.1 11.15 -34.1 6.1q-1.75 -4.2 -1.95 -8.95<g id="985" transform="matrix(1, 0, 0, 1, -141.65, 0)">
<path style="fill:#000000;fill-opacity:1" d="M363.7,184.5L365.2 185Q366.8 187.8 367 191Q367.2 194.95 365.45 198.5L323.45 200.1Q325.35 255.15 323.05 312Q321.8 343.25 316.95 373.45Q309.35 365.75 312.5 351.65Q314.1 344.4 314.5 336.95Q317.85 277.85 318.05 218.5Q318.1 208.5 320.7 200.05Q295.85 199.7 270.7 196.75Q269.85 195.35 269.65 193.75Q269.05 189.5 271.45 186.5L355.95 183.5L363.7 184.5M414.2,182.75Q418.1 241.4 415.35 301.3Q413.6 338.1 408.45 373.2Q401.4 365.6 403.25 351.25Q407 321.55 407.8 291.45L408.35 273.75Q384.8 273.85 362.45 272.6Q364.05 302.3 364.75 332.45Q365.2 352 359.65 369.2Q358.75 372 356.45 370.2Q355.85 311.8 354.5 251.75Q354.05 232.5 357.65 214.3Q357.7 214.1 358.2 214Q360.3 237.85 361.8 262Q369.35 259.5 377.45 258.15L387.95 257.75L407.2 258.5L408.95 258.55Q410.6 220.45 413.85 182.75L414.2 182.75M202,183.75L202.85 184.55Q204.8 186.9 204.75 190.1L204.7 192L204.3 194.45L203.4 196.65L202.45 198L181.55 199.25Q163.9 199.4 146.5 196.4L149.5 257.65L189.25 256.85L190.3 258.2L191.15 259.7L191.55 261.3L191.65 264.2L191.05 267.95L190.5 269.75L149.95 269.05Q151.05 293 150.9 317Q150.7 343.1 147.75 368.95L145.3 362.7Q142.05 353.75 142.15 344.2Q142.9 266.05 141.7 188.25Q141.65 185.7 143.1 183.85L144.75 183.4L145.5 180.75L145.7 183.55Q154.45 185.05 163.35 185.45Q182.75 186.2 202 183.75M239.45,264.25Q260.85 311.6 285 357.7Q288.85 365 285.2 372.2Q278.3 365.3 272.55 355.55Q269.2 359.45 262.25 362.75Q248 369.5 232.45 365.2Q219.4 344.25 227.95 318.9Q231.2 309.2 239.95 304.45Q245.35 304.25 250.4 305.75Q243 286.45 237.2 266.85Q236.35 263.95 239.45 264.25M232.2,349.45Q252.2 354.5 266.3 343.35Q260.1 330.1 254.7 316.7Q229.3 315.6 230.25 340.5Q230.45 345.25 232.2 349.45" />
</g>
</svg>
