<?xml version="1.0" encoding="utf-8"?>
<svg version="1.1" id="Layer_1"
xmlns="http://www.w3.org/2000/svg"
xmlns:xlink="http://www.w3.org/1999/xlink"


xml:space="preserve">
q-8.35 17.35 -9.15 39.2q-2.3 59.65 -4.3 119.35q-1.95 59.8 -4.3 119.2q-1.1 27.85 -1.75 55.65q-6.3 -58.8 -17.05 -116.9q-10.3 -55.5 -22.55 -110q-3.3 3.15 -2.45 8.5q-2.7 13.6 -3.9 28.1q-4.95 59.3 -6.65 119.3q-1.7 59.55 0.15 119.2q1.8 59.3 -1.8 118.45q-1 16.55 4.05 29.8q3.95 -3.5 4 -9.5q0.7 -59.8 -0.65 -119.25q-1.3 -59.7 -0.4 -119.2q0.95 -59.85 6.7 -119.1q1.4 -14.3 1.85 -28.25q4.5 25.55 9.75 51.05q12.1 58.4 19.4 117.55q7.2 58.25 12.15 117q3.25 38.9 8.3 77.25q-0.1 15.5 4.4 28.2q1.9 2 4 0q1.25 -7.35 2 -14.8q-0.6 -0.5 -0.95 -1.5q-1.5 -49.4 0.1 -98.7q1.9 -59.55 3.3 -119.25q1.4 -59.35 5.3 -118.5q3.65 -25.9 -21.75 -32q-29.4 43.45 -24 102.2q1.45 15.95 9.5 29.3q4.4 7.3 12.5 10.25q9.55 -4.75 12.8 -14.7q13.7 -21.8 4.6 -60.1q-2.8 4.7 -6.05 8.9q-2.65 3.45 -7.05 2.8q-16.95 -39.05 -9.2 -83.75q2.95 -16.85 14.3 -29.7q16.55 1.25 21.8 19.05q-4.95 24.9 -9.2 50.1q-9.9 58.35 -17.55 117.1q0.1 1.4 1.15 2.3q-7.7 58.2 -18 115.5q0.35 -3.55 -0.55 -6.75q1.1 2.15 3.5 1.5q6.05 -12 8.25 -25.5q9.45 -58.4 16.85 -117.1q26.65 -0.05 52.7 1.15q6.05 59.2 11.2 117.9q1.15 13.2 8.15 20.6q0.65 -0.75 0.6 -1.45q-1.8 -40 -6.5 -80.4q-7.2 -58.75 -12.55 -117.85q-4.95 -54.55 -12.65 -108.1q-1.05 0.5 -1.8 1.35q-1.15 1.4 -1.6 3.55q5.7 58.9 12.25 117.65q-22.25 -0.1 -42.7 4.45q7.8 -58.55 18.1 -116.85q3.3 -18.8 5.4 -36.95q0.4 18.85 2.3 38.75q-33.85 0.15 -66.65 3.15q-0.85 1.35 -0.9 3q-0.05 1.5 0.4 2.95q-5.1 22.9 -4.15 48.6q2.3 59.45 2 119.2q-0.25 59.65 0.8 119.2q1.05 59.7 -3.15 118.5q-1.35 15.45 6.5 24.55q3.85 -12.45 4.55 -26.15q3 -59.25 1.95 -119.35q-1.05 -59.55 -1.1 -119.2q27.1 0.05 55.3 -1.25q3.6 -6.65 -0.65 -12.65q-28.15 -1.1 -55.3 3.85q-0.15 -48.9 -0.8 -97.6q45.4 5.65 92.25 2.25q1.4 -4.7 -1.15 -8.9q-4.7 31.2 -5.85 63.65q-2.05 59.5 -1.35 118.5q34.7 5.55 67.95 -4.5q3.65 -7.25 -1 -13.5q-25.75 5.5 -52.45 6.8q-5.9 0.25 -9.25 -3.3q-0.6 -24.95 0.75 -49.5q3.25 -59.9 1.75 -118.45q-0.5 0.1 -0.55 0.3<g id="986" transform="matrix(1, 0, 0, 1, -50.9, 0)">
<path style="fill:#000000;fill-opacity:1" d="M376.65,125.75Q372.75 184.9 371.35 244.25Q369.95 303.95 368.05 363.5Q366.45 412.8 367.95 462.2L369.05 452.7L369.45 460.45Q369.8 461.45 370.4 461.95Q369.65 469.4 368.4 476.75L369.8 496.5L369.45 497.95Q367.35 499.95 365.45 497.95L364.4 490.9Q359.9 478.2 360 462.7L360.05 459.75Q355 421.4 351.75 382.5Q346.8 323.75 339.6 265.5Q332.3 206.35 320.2 147.95Q314.95 122.45 310.45 96.9Q310 110.85 308.6 125.15Q302.85 184.4 301.9 244.25Q301 303.75 302.3 363.45Q303.65 422.9 302.95 482.7Q302.9 488.7 298.95 492.2Q293.9 478.95 294.9 462.4Q298.5 403.25 296.7 343.95Q294.85 284.3 296.55 224.75Q298.25 164.75 303.2 105.45Q304.4 90.95 307.1 77.35L306.75 75.25Q305.9 69.9 309.2 66.75L309.35 67.35L309.7 65.85L310.2 65.75L310.45 72.3Q322.7 126.8 333 182.3Q343.75 240.4 350.05 299.2L360.95 399.9Q361.6 372.1 362.7 344.25Q365.05 284.85 367 225.05Q369 165.35 371.3 105.7Q372.1 83.85 380.45 66.5L376.65 125.75M425.25,215.3Q420 197.5 403.45 196.25Q392.1 209.1 389.15 225.95Q381.4 270.65 398.35 309.7Q402.75 310.35 405.4 306.9Q408.65 302.7 411.45 298L414.85 304.85L415.7 279.5L402.15 274.9L402.5 265.2L419.85 267.7Q428.95 306 415.25 327.8L414.75 310.8Q411.5 320.75 401.95 325.5Q393.85 322.55 389.45 315.25Q381.4 301.9 379.95 285.95Q374.55 227.2 403.95 183.75Q429.35 189.85 425.7 215.75L425.25 215.3M237.2,62.6L237.2 61L237.4 62.35Q238.15 61.5 239.2 61L238.5 69.8Q246.2 123.35 251.15 177.9Q256.5 237 263.7 295.75L277.8 413.35Q282.5 453.75 284.3 493.75Q284.35 494.45 283.7 495.2Q276.7 487.8 275.55 474.6Q270.4 415.9 264.35 356.7L258.35 299.15Q232.3 297.95 205.65 298L198.55 353.35Q191.15 412.05 181.7 470.45Q179.5 483.95 173.45 495.95Q171.05 496.6 169.95 494.45L174.65 459.25L174.95 458.45Q175.85 461.65 175.5 465.2L175.45 465.95Q185.75 408.65 193.45 350.45L200.4 298L199.45 298Q198.4 297.1 198.3 295.7L198.3 292.75L198.45 291.25L201.35 290.5L208.85 233.35Q216.5 174.6 226.4 116.25Q230.65 91.05 235.6 66.15Q236.05 64 237.2 62.6M237.2,82.5Q235.1 100.65 231.8 119.45Q221.5 177.75 213.7 236.3L206.75 289.2Q227.2 284.65 249.45 284.75L257 286.35L251.75 238.9Q245.2 180.15 239.5 121.25Q237.6 101.35 237.2 82.5M150.2,56.85L153.95 56.75L154.8 57.6Q157.35 61.8 155.95 66.5L154.7 68.75Q107.85 72.15 62.45 66.5L63.35 117.5Q64 166.2 64.15 215.1Q91.3 210.15 119.45 211.25Q123.7 217.25 120.1 223.9L119.45 224.75Q91.25 226.05 64.15 226L64.15 236.75Q64.2 296.4 65.25 355.95Q66.3 416.05 63.3 475.3Q62.6 489 58.75 501.45Q50.9 492.35 52.25 476.9L52.9 466.9L55.05 463.45L55.7 470.2L56 470.95Q60.2 412.15 59.15 352.45Q58.1 292.9 58.35 233.25Q58.65 173.5 56.35 114.05Q55.4 88.35 60.5 65.45Q60.05 64 60.1 62.5Q60.15 60.85 61 59.5L61.95 59.45L62.25 58.25L62.3 59.4Q95.1 56.4 128.95 56.25L150.2 56.85M88.25,315.25Q89.75 373.8 86.5 433.7Q85.15 458.25 85.75 483.2Q89.1 486.75 95 486.5Q121.7 485.2 147.45 479.7Q152.1 485.95 148.45 493.2Q115.2 503.25 80.5 497.7Q79.8 438.7 81.85 379.2Q83 346.75 87.7 315.55Q87.75 315.35 88.25 315.25" />
</g>
</svg>
