<?xml version="1.0" encoding="utf-8"?>
<svg version="1.1" id="Layer_1"
xmlns="http://www.w3.org/2000/svg"
xmlns:xlink="http://www.w3.org/1999/xlink"


xml:space="preserve">
q-54.7 2.1 -109.5 6.25q-1.8 5.5 1.45 9.75q23.05 0.4 46.05 0.1q-3.05 59.2 -3.05 119.3q0 15.05 -2.5 29.7q-2.4 14.15 5.05 21.8q1.05 -0.85 1.2 -2.25q3.6 -29.55 4.3 -60q1.25 -55.35 -0.85 -109.2q5.75 -8.7 -1.6 -14.35q-5.3 13 -3.25 28.7q1.1 2.6 3.75 2q4.35 -15.4 -0.75 -29.9q-0.2 40.45 -1.8 80.25q-11.45 3.3 -19.5 -4.5q0.35 -2.05 1.65 -3.8q-1.6 -0.3 -2.45 1.4q-1.95 3.5 -1.3 7.45q3.7 22.5 28.55 18.05q8.75 -11.6 8.7 -27q-0.95 -28 -3.15 -54.65q-4.45 3.9 -4.45 11.45q-0.4 -0.35 -0.5 -1q-1.3 3.15 -1.3 7.5q-0.2 69.1 -3.55 137.95q-0.45 5.9 0.4 11.7q1.05 7.15 4.25 13.55q4.2 -18.4 4.95 -37.35q1.35 -33.85 2.05 -67.55q0.1 -1.75 -0.15 -3.45q-0.4 -3 -2.4 -5.4q-20.95 -2.35 -42.1 0.6q1 -0.35 1.55 -1.4q0.2 -2.2 -0.35 -4.35q-16.15 13.3 -19.7 34.25q-4.1 24.1 13.2 36.6q6.35 4.6 14.65 3.15q14.25 -2.85 24.75 -12.9q4.75 -7.25 -0.25 -14.25q-15.4 11.55 -34.15 8.4q-5.1 -7.55 -5.45 -16.45q-0.95 -24.3 20.15 -28.55q8.1 19.15 19.45 36.6<g id="991" transform="matrix(1, 0, 0, 1, -140.4, 0)">
<path style="fill:#000000;fill-opacity:1" d="M423.55,197.85L422.7 198.75L363.6 201Q365.7 254.85 364.45 310.2Q363.75 340.65 360.15 370.2Q360 371.6 358.95 372.45Q351.5 364.8 353.9 350.65Q356.4 336 356.4 320.95Q356.4 260.85 359.45 201.65L359.5 201.1Q336.5 201.4 313.45 201Q310.2 196.75 312 191.25L312.45 189.75Q367.25 185.6 421.95 183.5Q429.3 189.15 423.55 197.85M421.2,243.65L420.7 244.5Q418.05 245.1 416.95 242.5Q414.9 226.8 420.2 213.8L420.45 213.75Q425.55 228.25 421.2 243.65M418.45,260.25Q420.65 286.9 421.6 314.9L422.15 342.7Q422.2 358.1 413.45 369.7Q388.6 374.15 384.9 351.65Q384.25 347.7 386.2 344.2L391.7 343.95Q392.55 342.25 394.15 342.55L394.45 342.95Q393.15 344.7 392.8 346.75L392.7 347.45Q400.75 355.25 412.2 351.95Q413.8 312.15 414 271.7Q414 264.15 418.45 260.25M204,189.5Q204.55 191.65 204.35 193.85L204.15 195.15L203.85 196.45L203.4 197.7L203.05 198.35Q202.5 199.4 201.5 199.75L149.25 196.05L152.65 260L153 258.5L161.35 257.35Q182.5 254.4 203.45 256.75Q205.45 259.15 205.85 262.15Q206.1 263.85 206 265.6L205.9 266.6L205.65 267.55L205.25 268.45L203.7 270.95L154.5 271.2L152.5 267.55Q151.8 301.25 150.45 335.1Q149.7 354.05 145.5 372.45Q142.3 366.05 141.25 358.9Q140.4 353.1 140.85 347.2L141.25 343L142.05 335.6L142.65 328.2Q146 259.35 146.2 190.25Q146.2 185.9 147.5 182.75Q147.6 183.4 148 183.75L148.35 183.4L202.85 186.95L204 189.5M240.65,262.2L246.45 261.25L290.9 334.4L294.45 332.95L297.05 343.6L305.7 355.7Q310.7 362.7 305.95 369.95L288.7 352.95Q278.2 363 263.95 365.85Q255.65 367.3 249.3 362.7Q232 350.2 236.1 326.1Q239.65 305.15 255.8 291.85L239.2 269.4L240.65 262.2M261.65,305.45Q240.55 309.7 241.5 334Q241.85 342.9 246.95 350.45Q265.7 353.6 281.1 342.05Q269.75 324.6 261.65 305.45" />
</g>
</svg>
