<?xml version="1.0" encoding="utf-8"?>
<svg version="1.1" id="Layer_1"
xmlns="http://www.w3.org/2000/svg"
xmlns:xlink="http://www.w3.org/1999/xlink"


xml:space="preserve">
q3.25 -4.75 2.2 -10.4q-42.45 -4.95 -84.95 2.2q-5.4 9.9 -5.65 21.7q-0.25 14.9 0.1 29.85q0.45 20.35 -3.05 40.8q-3.05 17.65 4.85 33.35q-33.35 2.3 -66.35 7.15q-1.1 -0.2 -1.15 0.35q-0.2 1.15 -0.15 2.25q-3.6 30.55 -2.7 62.8q1.7 59.5 -0.85 118.45q0.7 2.8 3.25 1.5q5.1 -35.05 5.4 -71.25q21.75 0.9 43.5 -1q4.45 -8.5 -2 -13.6q-22.2 -1.75 -42.35 4.2q-0.4 -36.7 -2.4 -72.95q34.65 -0.05 69.95 -4q0.75 -1.45 1.15 -3.05q1.2 -5.1 -1.15 -9.7q-0.35 -0.4 -0.8 -0.5q-4.95 3.75 -1.8 10.5q9.95 10.15 11.7 25.65q-30.3 25.55 -10.3 58.9q2.5 4.15 8.4 3.4q13.5 -0.1 23.8 -8.85q2.6 -2.25 4.7 -5.15q8.55 -16.25 -4.95 -34.35q-12.85 -17.35 -22.8 -36.95q-12.9 9 -28.7 10.25q-11.1 -13.75 0.85 -29.4q2.8 -3.75 6.65 -6.6<g id="996" transform="matrix(1, 0, 0, 1, -141.95, 0)">
<path style="fill:#000000;fill-opacity:1" d="M324.45,370.45Q316.55 354.75 319.6 337.1Q323.1 316.65 322.65 296.3Q322.3 281.35 322.55 266.45L323.15 236.7L323.8 206.95Q324.05 195.15 329.45 185.25L328.4 354.25Q370.9 347.1 413.35 352.05L413.75 352.75L414.05 353.5L415.15 358.05Q416.2 363.7 412.95 368.45L326.3 366.3L324.45 370.45M217.4,176.75Q217.85 176.85 218.2 177.25Q220.55 181.85 219.35 186.95Q218.95 188.55 218.2 190Q182.9 193.95 148.25 194Q150.25 230.25 150.65 266.95Q170.8 261 193 262.75Q199.45 267.85 195 276.35L194.25 277.2Q172.5 279.1 150.75 278.2L150.65 300.2Q150.35 336.4 145.25 371.45Q142.7 372.75 142 369.95Q144.55 311 142.85 251.5Q141.95 219.25 145.55 188.7Q145.5 187.6 145.7 186.45L145.9 185.55L146.35 182.1Q146.4 181.55 147.5 181.75L147.6 183.4Q180.6 178.55 213.95 176.25L217.4 176.75M250.45,269L266.2 300.15Q276.15 319.75 289 337.1Q302.5 355.2 293.95 371.45L280.55 351.75Q278.45 354.65 275.85 356.9Q265.55 365.65 252.05 365.75Q246.15 366.5 243.65 362.35Q223.65 329 253.95 303.45L257.4 304.6Q255.65 289.1 245.7 278.95Q242.55 272.2 247.5 268.45L250.45 269M253.95,316.95Q250.1 319.8 247.3 323.55Q235.35 339.2 246.45 352.95Q262.25 351.7 275.15 342.7L265.3 324.95L260.2 317.95L253.95 316.95" />
</g>
</svg>
