<?xml version="1.0" encoding="utf-8"?>
<svg version="1.1" id="Layer_1"
xmlns="http://www.w3.org/2000/svg"
xmlns:xlink="http://www.w3.org/1999/xlink"


xml:space="preserve">
q-4 21.1 -4.65 43.4q-2 59.7 -5.35 119.25q-0.85 15 -3.3 29.75q-2.35 14.35 5.35 21.75q0.9 -0.75 1 -1.55q4.95 -46.05 7.55 -92.85q1.7 -30.6 2.75 -61.4q19.75 -3.8 40.3 -3.4q-4.65 51.8 -8.2 103.75q-1.05 15 -3.75 29.7q-3.05 16.9 3.35 30q8 -21.9 7.55 -47.75q-0.4 -24.7 1.8 -48.85q4.35 -8.3 -0.75 -15.6q5.05 -59.5 1.6 -117.8q-5.85 15.95 -5.9 36q-0.25 58.65 -5.5 116.6q-21.55 -0.45 -41.35 7.2q0.5 -29.95 2.35 -59.9q1.85 -30.6 -2.65 -59.35q-0.75 0.1 -0.8 0.35q-4.3 -57.9 -31.75 -109.85q-14.05 -26.55 -21.2 -55.4q-7.2 -28.95 9.95 -50.6q10.35 -4.15 21 -0.5q3.6 2.8 6.1 6.3q2.65 3.75 6.65 4.2q2.65 -4.65 0.9 -9.65q-3.6 -10.3 -13.15 -15.85q-5.2 -1.2 -10.55 -1.65q-0.35 0.45 -1.5 0.55q-6.6 0.65 -10.2 6.05q-20.85 31.65 -10.9 70.55q9.35 36.7 26.1 71.3q25.35 52.4 25.2 110.75q-0.05 32.2 -25.45 49.25q-11.25 2.45 -20.6 1.3q-4.3 4.75 -3.65 11.8q0.5 5.25 4.65 8.2q13.35 0.45 26.5 -1.25q27.1 -15.65 30.9 -46.85q2.9 -24 1.1 -48.25q-1.8 11.1 -2.4 22.25q-5.4 25.95 -10.4 52.15q-11.1 58.3 -18.4 117.2q-7.25 58.45 -19.55 116.05q-2.9 13.75 4.75 21q5.2 -16.3 8.05 -33.6q8.5 -52.35 15.35 -104.95q20.05 -2.25 39.4 -0.75q6.4 57.9 6.7 116.55q0.1 17.15 9 28.5q4.6 -5.4 3.65 -12.8q-5.45 -43.55 -8.6 -87.55q-1.6 -22.5 -3.9 -44.85q1.65 -4.35 1 -9q-0.4 -2.75 -2.45 -4.45q-3.35 -29.05 -7.85 -57.9q-6.6 -41.95 -10.8 -84q1.35 -14.65 0.8 -29.05q-1.95 1.6 -3.1 3.85q8.6 51.5 14.75 103.4q7.4 -58.25 19.85 -115.3q-8.75 0.5 -16.95 2.55q-1.8 3.85 -1.2 8.25q-4.05 44.05 -5.75 88.95q-2.25 59.65 -0.6 119.3q0.85 30.05 -1.65 59.85q-2 23.5 2.95 44.35q1 -0.35 1.05 -0.85q6.5 -41.85 4.7 -85.35q-2.45 -59.7 1 -119.25q23.35 -0.35 45.95 2q1.55 -1.1 2.05 -3q1.9 -6.6 -1.25 -12.65q-13.1 -3 -27.05 -1.55q1.9 -45.05 -0.05 -89.2q4.45 -5.6 2 -12.75q-0.9 -2 -2.75 -3q0.6 59.6 -0.2 119.2q-0.2 15.05 -2.5 29.7q-2.2 14.25 5.4 21.8q25.1 6.95 52.25 2.9q4.3 -8 -0.9 -14.95q3.85 -30.45 4.05 -62.15q0.45 -60.4 -3.35 -119.25q-5.35 9.3 -5.2 23.5<g id="992" transform="matrix(1, 0, 0, 1, -70.55, 0)">
<path style="fill:#000000;fill-opacity:1" d="M351.45,94.75Q355.95 123.5 354.1 154.1Q352.25 184.05 351.75 214L350.7 259.05Q370.5 251.4 392.05 251.85Q397.3 193.9 397.55 135.25Q397.6 115.2 403.45 99.25Q406.9 157.55 401.85 217.05L398.8 252.2L404.45 252.75Q409.55 260.05 405.2 268.35L404.45 269.25L397.35 268.75L391.3 335.35Q389.1 359.5 389.5 384.2Q389.95 410.05 381.95 431.95Q375.55 418.85 378.6 401.95Q381.3 387.25 382.35 372.25Q385.9 320.3 390.55 268.5Q370 268.1 350.25 271.9Q349.2 302.7 347.5 333.3Q344.9 380.1 339.95 426.15Q339.85 426.95 338.95 427.7Q331.25 420.3 333.6 405.95Q336.05 391.2 336.9 376.2Q340.25 316.65 342.25 256.95L346 138.5Q346.65 116.2 350.65 95.1Q350.7 94.85 351.45 94.75M325.85,373.35Q322.05 404.55 294.95 420.2Q281.8 421.9 268.45 421.45Q264.3 418.5 263.8 413.25Q263.15 406.2 267.45 401.45L267.95 401.35L269.45 401.5L270.45 401.55L271.2 401.2L271.25 401.15L274.6 401.25Q283.95 402.4 295.2 399.95Q320.6 382.9 320.65 350.7Q320.8 292.35 295.45 239.95Q278.7 205.35 269.35 168.65Q259.4 129.75 280.25 98.1Q283.85 92.7 290.45 92.05Q291.6 91.95 291.95 91.5Q297.3 91.95 302.5 93.15L305.45 93.75Q315 99.3 318.6 109.6Q320.35 114.6 317.7 119.25Q313.7 118.8 311.05 115.05Q308.55 111.55 304.95 108.75Q294.3 105.1 283.95 109.25Q266.8 130.9 274 159.85Q281.15 188.7 295.2 215.25Q322.65 267.2 326.95 325.1Q328.75 349.35 325.85 373.35M220.1,98.6Q221.25 96.35 223.2 94.75Q223.75 109.15 222.4 123.8Q226.6 165.85 233.2 207.8Q237.7 236.65 241.05 265.7L241.45 265.75Q243.5 267.45 243.9 270.2Q244.55 274.85 242.9 279.2L242.6 280Q244.9 302.35 246.5 324.85Q249.65 368.85 255.1 412.4Q256.05 419.8 251.45 425.2Q242.55 413.85 242.45 396.7Q242.15 338.05 235.75 280.15Q216.4 278.65 196.35 280.9Q189.5 333.5 181 385.85Q178.15 403.15 172.95 419.45Q165.3 412.2 168.2 398.45Q180.5 340.85 187.75 282.4Q195.05 223.5 206.15 165.2Q211.15 139 216.55 113.05Q217.15 101.9 218.95 90.8L219.45 90.75L220.1 98.6M217.95,152.35L217.85 152.75Q205.4 209.8 198 268.05L217.95 263.85L217.95 263.75L234.1 265.45Q227.95 213.55 219.35 162.05L217.95 152.35M115.95,85L149.7 86.85L152.45 87.25Q154.3 88.25 155.2 90.25L155.45 91Q157.9 98.15 153.45 103.75L83.1 101Q85.05 145.15 83.15 190.2L99.95 188Q113.9 186.55 127 189.55L128.45 189.75L129.25 190.6Q132.4 196.65 130.5 203.25Q130 205.15 128.45 206.25Q105.85 203.9 82.5 204.25L82.25 208Q78.8 267.55 81.25 327.25Q83.05 370.75 76.55 412.6Q76.5 413.1 75.5 413.45Q70.55 392.6 72.55 369.1Q75.05 339.3 74.2 309.25Q72.55 249.6 74.8 189.95Q76.5 145.05 80.55 101L80.5 101L79.85 99.45L79.45 98L79.3 97.25Q78.7 92.85 80.5 89Q88.7 86.95 97.45 86.45L115.95 85M105.45,220.75Q109.25 279.6 108.8 340Q108.6 371.7 104.75 402.15L155.45 398.95Q160.65 405.9 156.35 413.9L155.7 414.7Q128.55 418.75 103.45 411.8L102.95 414.95Q95.35 407.4 97.55 393.15Q99.85 378.5 100.05 363.45Q100.85 303.85 100.25 244.25Q100.1 230.05 105.45 220.75" />
</g>
</svg>
