<?xml version="1.0" encoding="utf-8"?>
<svg version="1.1" id="Layer_1"
xmlns="http://www.w3.org/2000/svg"
xmlns:xlink="http://www.w3.org/1999/xlink"


xml:space="preserve">
q8.55 -8.6 1 -17.95q-10.65 4.75 -6.1 17.35q-12.85 9 -26.25 19.25q-3.1 -10 -1.75 -21.55q3.8 -32.45 2.25 -63.65q-6.35 18.6 -6.95 40.95q-0.35 12.8 -2.4 25.3q-3.4 20.25 8.35 34.7q20.5 -2.3 32 -20.75q5.55 -8 2 -14.25q-2.85 47.05 -6.35 94.2q-2.25 29.65 -5.45 59.05q-1.85 16.8 4.05 29.4q3.05 -4.25 3.2 -9.75q0.95 -32.6 4 -65.15q1.35 -14.4 2.15 -28.75q25.65 0.5 50.35 -3.05q3.4 -8 -2.7 -12.2q-24.25 -1.35 -47.55 4.05q1.15 -31.2 -0.3 -62.25q35.95 0.9 72.35 -2.05q3.85 -5.4 1.2 -11.75q-27.95 1.35 -55.45 4.25<g id="997" transform="matrix(1, 0, 0, 1, -153.6, 0)">
<path style="fill:#000000;fill-opacity:1" d="M340.45,243.75L338.1 244.05L337.85 243.7Q333.3 231.1 343.95 226.35L343.95 226.25Q351.5 235.6 342.95 244.2L340.45 243.75M371.45,344.7Q359.95 363.15 339.45 365.45Q327.7 351 331.1 330.75Q333.15 318.25 333.5 305.45Q334.1 283.1 340.45 264.5Q342 295.7 338.2 328.15Q336.85 339.7 339.95 349.7L347.2 349.7Q360.6 339.45 373.45 330.45Q377 336.7 371.45 344.7M168.5,184.5Q196 181.6 223.95 180.25L241.45 180.85L242.2 181.25L242.65 182Q245.3 188.35 241.45 193.75Q205.05 196.7 169.1 195.8Q170.55 226.85 169.4 258.05Q192.7 252.65 216.95 254Q223.05 258.2 219.65 266.2L219.2 267Q194.5 270.55 168.85 270.05Q168.05 284.4 166.7 298.8Q163.65 331.35 162.7 363.95Q162.55 369.45 159.5 373.7Q153.6 361.1 155.45 344.3Q158.65 314.9 160.9 285.25Q164.4 238.1 167.25 191.05L167.5 187.15L167.85 181L168.25 181L168.5 184.5" />
</g>
</svg>
