<?xml version="1.0" encoding="utf-8"?>
<svg version="1.1" id="Layer_1"
xmlns="http://www.w3.org/2000/svg"
xmlns:xlink="http://www.w3.org/1999/xlink"


xml:space="preserve">
q-0.55 -1.65 -1.65 -3.05q-7.9 18.85 -11.15 40.2q-3.7 24.75 -5.15 49.25q-5.4 -36.45 -9.3 -73.1q-4.5 -41.55 -13.15 -81.45q-0.5 0 -0.65 0.25q-2.55 3.65 -1.75 7.5q-2 5.6 -3.15 12.3q-9.9 58.25 -14.3 117.25q-4.35 59.15 -11.7 117.75q-3.7 29.7 -9.25 58.9q-5.55 29.4 -4.95 58.75q1.25 0 1.45 -0.4q4.9 -12.35 6.95 -25.75q6.35 -40.5 10.6 -81.7q4.55 -44.25 7.5 -88.7q4 -59.35 15.6 -117.3q3.45 -17.1 4.5 -33.95q4.25 40.1 10.6 79.85q9.3 58 14.05 116.5q0.3 1.7 2 2q2.05 -3.05 2.85 -6.65q1.15 0 1.2 -0.3q11.35 -47 16.8 -95.65q5.75 -51.65 15.5 -102.3q4.7 54.65 11.15 109.1q6.1 51.4 10.7 103q5.3 59.25 14.2 117.9q2.5 16.45 10.7 28.45q1.75 -0.9 2.05 -2.75q1.65 -9.9 -0.65 -19.9q-13.2 -57.6 -18.8 -116.55q-5.6 -58.75 -13.65 -117.1q-4.05 -29.5 -5.35 -59.2q-1.25 -29.2 -7.9 -55.45q0.45 59.25 -0.5 118.5q-1 59.75 -4.3 119.2q-3.3 59.35 -5.8 118.5q0.6 2.65 3 2q2.5 -5.95 2.95 -12.7q3.9 -59.2 6.15 -118.55q2.25 -59.6 3.75 -119.2q1.55 -59.8 -1.1 -118.5q-4.25 3.6 -4.15 10.75q0.6 -3.1 -0.15 -6q-12.15 -4.95 -24.5 -2.8q-15.55 2.65 -30.85 6.45q-3.55 28.35 -3.7 57.05q-0.45 87.4 -5.25 176.25q-0.2 3.7 -0.9 7.35q-3.65 19.15 1.2 37.7q0.85 3.25 2.25 6.4q5.3 -56.95 5.75 -113.95q0.65 -42.75 1.6 -85.45q1.05 -1.85 1.25 -4.1q-0.15 -2.55 -1.4 -4.85q-21.15 -4.85 -42.2 0.55q12.65 0.5 24.6 -4q13.85 -4.6 28.4 -4.65q12.3 -0.05 24.15 3.45q1.5 -1.45 1.9 -3.5q-6.35 1.25 -11.8 4.35q-0.6 34.55 -6.7 68.4q-1.75 9.55 -0.2 19.15q0.8 5.05 2.9 9.7q7.9 -47.75 10 -95.95q1.05 22.95 7.55 45.1q7.3 24.85 15.9 49.3q1.7 4.75 3.85 9.25q1.4 -14 -2.7 -29.4q-8.5 -31.7 -17.8 -63.1q10.2 -6.8 16.8 -17.1q4.05 -6.3 6.45 -13.55q3.7 -10.95 3.85 -22.5q0.15 -10.8 -6.05 -19.65q-5.25 -7.55 -13.55 -11.6q-3.55 -1.65 -7.55 -0.75q5.45 -35.2 4.5 -70.5q25.25 -2.8 27 24.8q1.35 21.85 -14.85 36.4q-7.15 6.45 -16.65 9.3q-4.55 22.5 -5.5 47.9q-0.75 2.25 -0.15 4.35q0.3 1.75 2 2q0.75 -0.6 0.9 -1.35q22.75 -2.65 45.15 -7.1q2.55 -6.3 -1.05 -12.05q-20 1.2 -37.7 9.2q2.8 -18.6 4.15 -37.6q4.35 -59.65 1.35 -118.5<g id="1000" transform="matrix(1, 0, 0, 1, -65.65, 0)">
<path style="fill:#000000;fill-opacity:1" d="M379.65,80.5Q386.3 106.75 387.55 135.95Q388.85 165.65 392.9 195.15Q400.95 253.5 406.55 312.25Q412.15 371.2 425.35 428.8Q427.65 438.8 426 448.7Q425.7 450.55 423.95 451.45Q415.75 439.45 413.25 423Q404.35 364.35 399.05 305.1Q394.45 253.5 388.35 202.1Q381.9 147.65 377.2 93Q367.45 143.65 361.7 195.3Q356.25 243.95 344.9 290.95Q344.85 291.25 343.7 291.25L343.8 289.1Q343 292.7 340.95 295.75Q339.25 295.45 338.95 293.75Q334.2 235.25 324.9 177.25Q318.55 137.5 314.3 97.4Q313.25 114.25 309.8 131.35Q298.2 189.3 294.2 248.65Q291.25 293.1 286.7 337.35Q282.45 378.55 276.1 419.05Q274.05 432.45 269.15 444.8Q268.95 445.2 267.7 445.2Q267.1 415.85 272.65 386.45Q278.2 357.25 281.9 327.55Q289.25 268.95 293.6 209.8Q298 150.8 307.9 92.55Q309.05 85.85 311.05 80.25Q310.25 76.4 312.8 72.75Q312.95 72.5 313.45 72.5L313.75 73.85L314.45 72.5L314.65 77.9Q323.3 117.8 327.8 159.35Q331.7 196 337.1 232.45L344 280.2L344.2 281.75Q345.65 257.25 349.35 232.5L367.05 115.45Q370.3 94.1 378.2 75.25Q379.3 76.65 379.85 78.3L379.95 79L379.65 80.5M188.45,73.75Q191.1 132.45 189.55 192.25Q188.05 251.85 185.8 311.45Q183.55 370.8 179.65 430Q179.2 436.75 176.7 442.7Q174.3 443.35 173.7 440.7Q176.2 381.55 179.5 322.2Q182.8 262.75 183.8 203Q184.75 143.75 184.3 84.5Q184.2 77.35 188.45 73.75M164.45,80.25Q152.6 76.75 140.3 76.8Q125.75 76.85 111.9 81.45L108.25 82.65Q96.3 87.15 83.65 86.65L80.6 204.6L86.65 203.5Q107.7 198.1 128.85 202.95Q130.1 205.25 130.25 207.8L130.2 210.4Q130 212.65 128.95 214.5L80.4 213.05Q79.45 255.75 78.8 298.5L78.5 327Q78.05 384 72.75 440.95Q71.35 437.8 70.5 434.55Q65.65 416 69.3 396.85Q70 393.2 70.2 389.5Q75 300.65 75.45 213.25L70.75 212.75L70.75 205.25L76.15 205L76.4 174.3L76.55 143.5Q76.7 114.8 80.25 86.45L78.75 86.25L78.75 78.75L109.1 71.4Q124.4 67.6 139.95 64.95Q152.3 62.8 164.45 67.75L165.05 68.45L165.55 69.1L165.95 69.9L166.2 70.75Q166.95 73.65 166.35 76.75Q165.95 78.8 164.45 80.25M230.3,73.4Q238.6 77.45 243.85 85Q250.05 93.85 249.9 104.65Q249.75 116.2 246.05 127.15Q243.65 134.4 239.6 140.7Q233 151 222.8 157.8L226.55 170.55Q235.85 201.95 244.35 233.65Q248.45 249.05 247.05 263.05L246.8 263.25Q244.65 258.75 242.95 254Q234.35 229.55 227.05 204.7Q220.55 182.55 219.5 159.6L211.6 162.65L211.45 165.3Q209.35 213.5 201.45 261.25Q199.35 256.6 198.55 251.55Q197 241.95 198.75 232.4Q204.85 198.55 205.45 164L204.45 155L206.15 154.65L210.95 77Q216.4 73.9 222.75 72.65Q226.75 71.75 230.3 73.4M228.8,143.85Q245 129.3 243.65 107.45Q241.9 79.85 216.65 82.65Q217.6 117.95 212.15 153.15Q221.65 150.3 228.8 143.85M205.85,395.75Q204.5 414.75 201.7 433.35Q219.4 425.35 239.4 424.15L244.45 423.45Q248.05 429.2 245.5 435.5L245.2 436.2Q222.8 440.65 200.05 443.3L199.85 444.35Q199.7 445.1 198.95 445.7Q197.25 445.45 196.95 443.7L197.1 440.7Q196.5 438.6 197.25 436.35L201.7 325.15Q202.65 299.75 207.2 277.25Q210.2 336.1 205.85 395.75" />
</g>
</svg>
