<?xml version="1.0" encoding="utf-8"?>
<svg version="1.1" id="Layer_1"
xmlns="http://www.w3.org/2000/svg"
xmlns:xlink="http://www.w3.org/1999/xlink"


xml:space="preserve">
q-7.15 11.5 -7.55 26.5q-1.1 41.15 -2.8 82.45q-1.85 44.3 -4.2 88.6q-2.45 46.15 -9.25 91.05q0.8 -3.35 2.05 -6.65q-1.25 10.75 -3.75 20.85q0 -2.3 0.15 -4.55q-2.6 14.35 6.05 21.75q8.25 -42 11.4 -85.5q2.05 -28.2 3.6 -56.6q1.2 1.85 3 3.4q3.85 -5.8 6.35 -12.45q0.45 2.9 1.3 5.8q5.95 21.1 9.25 42.8q8.7 58.1 19.85 115.7q-1.35 -0.55 -2.5 -1.75q-0.55 1.85 0.65 5.2q3.4 9.65 9.1 14.8q4.75 -10.35 2.05 -21.95q-7.6 -32.45 -12.95 -65.3q-8.85 -54.25 -22.4 -106.9q13 -33.85 26.6 -67.4q5.65 -14 13.4 -26.95q10.35 -17.35 8.8 -35.2q-17.6 25.85 -29.6 56.35q-21.1 53.45 -43.9 106.4q1.25 -28.45 1.65 -57q0.85 -59.7 6.35 -117.75q-30.35 20.1 -41.35 56.55q-11.65 38.7 -14.35 79.35q-3.95 58.85 0.75 117.2q2.45 30.15 17.65 56.05q16.3 27.7 45.3 18.3q5.35 -6.6 11.2 -12.6q15.3 -15.65 7.8 -33.15q-1.65 -0.35 -3.25 -1.65q-0.65 2.25 0.3 4.3q0.6 1.3 0.4 2.4q-4.7 7.35 -10.45 14.1q-18.15 8.3 -31.7 -5.05q-4.85 -4.8 -7.35 -10.65q-15.65 -37 -16.7 -78q-1.5 -58.65 5.3 -116.35q5.35 -45.8 36.2 -79.4q19.3 -14.4 38.25 -3.25q1.5 -18.45 -19.4 -19.75q-3.35 1.2 -6.55 2.45q-17.95 5.2 -29.4 20.8q-25.75 35.05 -32.3 78.7q-8.8 58.4 -8.25 117.75q0.6 60.35 22.5 116.5q7.35 18.8 26.65 21.25q16.7 2.1 31.8 -5.9q31 -16.5 23.5 -44.65q-1.5 3.35 -4.05 6.85q-22.15 30 -58.95 26.15q-8.25 -5.7 -12.15 -15.1q-23.65 -56.55 -23.35 -118.35q0.05 -10.45 0.45 -20.85q30.95 3.25 61.25 -1.5q7.75 -9.55 -0.7 -16.7q-30.95 6.95 -63.95 5.8q2.25 -40 9.5 -79.3q6 -32.45 25.45 -59q0.5 -0.4 1.05 -0.7q21.15 -26.7 53.25 -11.75q-0.1 1.25 1.1 1.8q1.3 0.55 2.3 1.55q0.5 -2.6 0.25 -5.25q-0.35 -3.5 -1.95 -6.8q-4.45 -4.15 -10.1 -6.7q-2.5 -1.15 -4.65 -3.05q0.45 -2.45 0.05 -5.15q-0.35 -2.2 -1.95 -3.95q-4.1 16.4 -3.95 33.75q0.55 67.1 -1.6 134.3q-0.7 14.7 -2.05 29.1q-2.15 10.4 1.55 20.6q1.95 5.35 4.95 10.15q12.1 -45.6 9.8 -95.35q-2.65 -56.95 0.25 -113.95q31 7.15 61.65 -1.15q1.8 -2.05 2.55 -4.5q1.25 -4.05 -0.25 -8.05q-1.35 -3.7 -4.3 -6.2q6.4 -59.1 1.15 -117.85q1.45 -1.85 2.05 -4.1q2.1 59.25 -1.95 118.4q-2.1 30.35 -2.15 59.3q1.75 1.8 3.6 0.35q22.5 11.8 48.4 6.4q1.2 -0.7 1.8 -1.95q0.15 -4.45 -2.9 -7.5q-23.2 5.35 -45.3 -2.5q4.1 -28.5 5.4 -57.55q2.6 -60.1 -3.2 -118.5q-4.15 3 -3.9 9.75<g id="1031" transform="matrix(1, 0, 0, 1, -60.1, 0)">
<path style="fill:#000000;fill-opacity:1" d="M420.2,81L420.95 81.75Q415.45 139.8 414.6 199.5Q414.2 228.05 412.95 256.5Q435.75 203.55 456.85 150.1Q468.85 119.6 486.45 93.75Q488 111.6 477.65 128.95Q469.9 141.9 464.25 155.9Q450.65 189.45 437.65 223.3Q451.2 275.95 460.05 330.2Q465.4 363.05 473 395.5Q475.7 407.1 470.95 417.45Q465.25 412.3 461.85 402.65Q460.65 399.3 461.2 397.45Q462.35 398.65 463.7 399.2L463.7 398.95Q452.55 341.35 443.85 283.25Q440.55 261.55 434.6 240.45Q433.75 237.55 433.3 234.65L421.3 266.55Q418.8 273.2 414.95 279Q413.15 277.45 411.95 275.6Q410.4 304 408.35 332.2Q405.2 375.7 396.95 417.7Q388.3 410.3 390.9 395.95L394 377.9Q393.85 380.15 393.85 382.45L393.95 382.95Q396.45 372.85 397.7 362.1L397.45 362.2Q396.2 365.5 395.4 368.85Q402.2 323.95 404.65 277.8Q407 233.5 408.85 189.2Q410.55 147.9 411.65 106.75Q412.05 91.75 419.2 80.25L420.2 81M351,82.55L354.95 81Q375.85 82.3 374.35 100.75L374.2 101.5Q355.25 90.35 335.95 104.75Q305.1 138.35 299.75 184.15Q292.95 241.85 294.45 300.5Q295.5 341.5 311.15 378.5Q313.65 384.35 318.5 389.15Q332.05 402.5 350.2 394.2Q355.95 387.45 360.65 380.1L364.95 373.95Q365.15 372.85 364.55 371.55Q363.6 369.5 364.25 367.25L364.45 366.45L365.2 366.55Q366.8 367.85 368.45 368.2L369.3 367.6L371.45 366.7Q378.95 384.2 363.65 399.85Q357.8 405.85 352.45 412.45Q323.45 421.85 307.15 394.15Q291.95 368.25 289.5 338.1Q284.8 279.75 288.75 220.9Q291.45 180.25 303.1 141.55Q314.1 105.1 344.45 85Q347.65 83.75 351 82.55M259.45,72.5Q261.6 74.4 264.1 75.55Q269.75 78.1 274.2 82.25L274.5 82.95Q276.1 86.25 276.45 89.75Q276.7 92.4 276.2 95L275.85 94.85Q274.85 93.85 273.55 93.3Q272.35 92.75 272.45 91.5Q240.35 76.55 219.2 103.25L218 103.8Q217.45 104.1 216.95 104.5Q197.5 131.05 191.5 163.5Q184.25 202.8 182 242.8Q215 243.95 245.95 237Q254.4 244.15 246.65 253.7L245.95 254.5L243.5 254.3L242.7 254Q212.4 258.75 181.45 255.5L181.4 255.4Q181 265.8 180.95 276.25Q180.65 338.05 204.3 394.6Q208.2 404 216.45 409.7Q253.25 413.55 275.4 383.55Q277.95 380.05 279.45 376.7Q286.95 404.85 255.95 421.35Q240.85 429.35 224.15 427.25Q204.85 424.8 197.5 406Q175.6 349.85 175 289.5Q174.45 230.15 183.25 171.75Q189.8 128.1 215.55 93.05Q227 77.45 244.95 72.25L259.45 72.5M153.45,86.5L80.5 85.35Q85.75 144.1 79.35 203.2L142.45 196.75Q145.4 199.25 146.75 202.95Q148.25 206.95 147 211Q146.25 213.45 144.45 215.5L140.45 213.5Q109.8 221.8 78.8 214.65Q75.9 271.65 78.55 328.6Q80.85 378.35 68.75 423.95Q65.75 419.15 63.8 413.8Q60.1 403.6 62.25 393.2L65 403.45L68.15 374.8Q69.5 360.4 70.2 345.7L70.85 331.05L71.45 308.8L71.7 286.25L71.75 271.3L71.9 256.3L72.2 241.3Q74.35 174.1 73.8 107Q73.65 89.65 77.75 73.25L106.95 70.5L153.85 72Q155.45 73.75 155.8 75.95Q156.2 78.65 155.75 81.1L155.5 82.4Q154.9 84.65 153.45 86.5M106.45,238.5Q112.25 296.9 109.65 357Q108.35 386.05 104.25 414.55Q126.35 422.4 149.55 417.05L150.45 417.2Q153.5 420.25 153.35 424.7L152.95 428.5L152.25 430.75Q151.65 432 150.45 432.7Q124.55 438.1 102.05 426.3Q100.2 427.75 98.45 425.95Q98.5 397 100.6 366.65Q104.65 307.5 102.55 248.25Q102.3 241.5 106.45 238.5" />
</g>
</svg>
