<?xml version="1.0" encoding="utf-8"?>
<svg version="1.1" id="Layer_1"
xmlns="http://www.w3.org/2000/svg"
xmlns:xlink="http://www.w3.org/1999/xlink"


xml:space="preserve">
q-4.45 59.05 -5.95 118.55q-28 1.05 -56.3 5.45q0.8 -25.9 1.95 -51.75q2.75 -59.8 1.4 -118.55q-2.5 1.75 -2.75 5.45q-4.25 59.05 -5.65 118.55q-1.4 59.55 -3.5 119.2q-2.1 59.45 -6.35 118q-1.95 -12.3 1.3 -24q-7.45 24.35 1.5 47.25q1 -0.35 1.1 -0.9q6.35 -31.2 7.4 -63.55q1.85 -59.65 3.15 -119.25q-1.45 33.85 -3.75 67.6q-3.95 59 -7.5 118.1q0 -15.25 -2.15 -30q0.6 9.4 0.7 19.5q0.1 9.85 -1.3 19.25q-2.25 14.65 5.6 22.5q6.75 -18.9 7.4 -39.75q0.6 -20 1.7 -40.4q1.8 -1.3 2.4 -3.5q1.8 -6.85 -2.4 -12q2.4 -60 1.85 -118.5q-3 0.95 -3.3 4.95q-6.6 -18.15 -29.55 -17.25q-17.75 4.15 -25.9 19.8q-14.1 27.05 -21.4 56.8q-14 57.1 -17.25 116.55q-3.2 59.45 3.9 117.7q3.85 31.8 21.7 57.65q8.95 12.95 24 10.15q9.95 -1.8 19.25 -5.6q24.15 -9.8 32.4 -33.6q4.1 -11.75 -3.95 -17q-2.55 4.65 -5.45 8.95q-13.35 19.8 -37.7 28.85q-11.8 4.4 -19.8 -4.7q-25.35 -28.8 -27 -68.55q-2.5 -59.15 0.5 -118.6q2.95 -58.6 23.15 -113.25q4.25 -11.4 10.95 -21.3q21.15 -31.1 52.35 -9.35q1.1 -3.65 -0.2 -7.25q-14 2.3 -30.05 -0.35q-27.35 0.95 -54.5 4.75q-0.7 1 -0.95 2.25q-0.85 4.55 0.6 8.95q22.8 0.15 45.6 -0.2q-1.55 6.05 -1.95 13.15q-1.9 36.5 -2.65 73.55q-1.25 59.1 -4.2 118.4q-2.95 59.55 -7.6 119.2q-1.8 23.45 2.8 44.35q3.8 -1.35 4.3 -5.95q2.3 -21.9 3.1 -44.25q2.1 -59.15 4.9 -118.55q2.8 -59.55 3.35 -119.2q0.25 -30.3 3.6 -59.9q1.25 -11 -0.2 -20.9q3.25 -6.25 -0.1 -12.55q-10.15 18.55 -17.75 38.3q-7.7 20.15 -10.65 41.55q-2.75 19.8 -4.9 39.7q-2.15 19.95 -3.95 39.9q-0.45 0.05 -0.8 0.3q-0.25 0.2 -0.35 0.55q-0.95 47.55 5.45 94.6q1.9 14.2 7.75 27.35q3.5 6.25 8.2 11.8q8.8 10.35 23.5 4.4q7.05 -2.95 14.25 -5.45q5.65 -1.8 11 -4.05q9.25 -3.8 18.25 -8.15q14.5 -7.15 14.55 -22.05q0.05 -5.5 -3 -10.1q-21.55 17.05 -48.05 25.1q-8.45 2.5 -16.55 -0.95q-8.85 -3.7 -11.6 -13q-3.05 -14.2 -4.45 -28.85q-5.75 -60.2 -4.7 -120.85q25.75 2.35 51.25 -1.9q2.9 -5.05 1.7 -10.75q-0.6 -3 -2.45 -5.75q1.15 -56.7 18.4 -110.7q5.55 -17.45 15.5 -32.8q9.9 -15.25 23.45 -27.45q20.65 -5.7 36.15 7.15q1.6 1.35 3.6 1.6q2.45 -2.45 2.05 -6q-0.45 -3.95 -2.9 -7.25q-3.4 -4.6 -7.9 -8.5q-8.2 -3.1 -17 -4.1q-20.3 8.85 -31.35 29.15q-0.2 -1.65 -1.2 -2.9q-20.85 2.15 -40.55 9.5q-2.25 0.8 -4.4 1.75q-2.9 34.7 -4.95 70.25q-4.5 77.3 -7.95 154.9q-1.95 44.6 -4.85 89.45q-1.3 20.55 -1.3 41.4q0 5.6 0.35 11.2q11.6 -25.35 9.1 -58.05q-1.75 -22.75 -0.5 -45.65q3.8 -69.5 5.85 -139.25q4.75 -1.15 4.4 -7.05q-0.25 -3.6 -1.45 -7.05q-0.55 -1.5 -1.85 -2.35q0.3 -53.95 4.55 -107.65q0.5 -6.6 -0.25 -13.4q27.4 -8 56.05 -7.15q2.4 -3.25 2.25 -7.2<g id="1027" transform="matrix(1, 0, 0, 1, -48.95, 0)">
<path style="fill:#000000;fill-opacity:1" d="M508.45,67.25Q509 125.75 506.6 185.75L505 226.2L505.45 226.25Q509.65 231.4 507.85 238.25Q507.25 240.45 505.45 241.75L504.35 241.85L501.65 304.9L498.05 378.55Q496.95 398.95 496.35 418.95Q495.7 439.8 488.95 458.7Q481.1 450.85 483.35 436.2Q484.75 426.8 484.65 416.95Q484.55 406.85 483.95 397.45Q486.1 412.2 486.1 427.45L486.2 427.95Q489.75 368.85 493.7 309.85Q496 276.1 497.45 242.25L441.45 245.5L441.1 261Q439.8 320.6 437.95 380.25Q436.9 412.6 430.55 443.8Q430.45 444.35 429.45 444.7Q420.5 421.8 427.95 397.45Q424.7 409.15 426.65 421.45L426.95 421.95Q431.2 363.4 433.3 303.95Q435.4 244.3 436.8 184.75Q438.2 125.25 442.45 66.2Q442.7 62.5 445.2 60.75Q446.55 119.5 443.8 179.3Q442.65 205.15 441.85 231.05Q470.15 226.65 498.15 225.6L499.2 190.75Q500.7 131.25 505.15 72.2Q505.45 68.2 508.45 67.25M409.7,88.25Q378.5 66.5 357.35 97.6Q350.65 107.5 346.4 118.9Q326.2 173.55 323.25 232.15Q320.25 291.6 322.75 350.75Q324.4 390.5 349.75 419.3Q357.75 428.4 369.55 424Q393.9 414.95 407.25 395.15Q410.15 390.85 412.7 386.2Q420.75 391.45 416.65 403.2Q408.4 427 384.25 436.8Q374.95 440.6 365 442.4Q349.95 445.2 341 432.25Q323.15 406.4 319.3 374.6Q312.2 316.35 315.4 256.9Q318.65 197.45 332.65 140.35Q339.95 110.6 354.05 83.55Q362.2 67.9 379.95 63.75Q402.9 62.85 409.5 81Q410.8 84.6 409.7 88.25M330.45,56.75L331.2 57.6Q334.55 63.9 331.3 70.15L330.2 71.75L295.5 72.7Q296.95 82.6 295.7 93.6Q292.35 123.2 292.1 153.5Q291.55 213.15 288.75 272.7Q285.95 332.1 283.85 391.25Q283.05 413.6 280.75 435.5Q280.25 440.1 276.45 441.45Q271.85 420.55 273.65 397.1Q278.3 337.45 281.25 277.9Q284.2 218.6 285.45 159.5Q286.2 122.45 288.1 85.95Q288.5 78.85 290.05 72.8Q267.25 73.15 244.45 73L244.1 72.2Q242.65 67.8 243.5 63.25Q243.75 62 244.45 61Q271.6 57.2 298.95 56.25Q315 58.9 329 56.6L330.45 56.75M200.95,59.25L209.45 58.9Q218.25 59.9 226.45 63Q230.95 66.9 234.35 71.5Q236.8 74.8 237.25 78.75Q237.65 82.3 235.2 84.75Q233.2 84.5 231.6 83.15Q216.1 70.3 195.45 76Q181.9 88.2 172 103.45Q162.05 118.8 156.5 136.25Q139.25 190.25 138.1 246.95L188.45 240Q190.3 242.75 190.9 245.75Q192.1 251.45 189.2 256.5Q163.7 260.75 137.95 258.4Q136.9 319.05 142.65 379.25Q144.05 393.9 147.1 408.1L148.15 412.25Q150.9 421.55 159.75 425.25Q167.85 428.7 176.3 426.2Q202.8 418.15 224.35 401.1L225.2 391.7L225.85 400.7L232.45 394.7Q235.5 399.3 235.45 404.8Q235.4 419.7 220.9 426.85Q211.9 431.2 202.65 435Q197.3 437.25 191.65 439.05Q184.45 441.55 177.4 444.5Q162.7 450.45 153.9 440.1Q149.2 434.55 145.7 428.3L143.1 423.1Q137.25 409.95 135.35 395.75Q128.95 348.7 129.9 301.15L131.2 248.7Q131.3 248.35 131.55 248.15Q131.9 247.9 132.35 247.85Q134.15 227.9 136.3 207.95Q138.45 188.05 141.2 168.25Q144.15 146.85 151.85 126.7Q159.45 106.95 169.6 88.4Q180.65 68.1 200.95 59.25M127.7,66Q99.05 65.15 71.65 73.15Q72.4 79.95 71.9 86.55Q67.65 140.25 67.35 194.2L108.3 195.9Q109.6 196.75 110.15 198.25Q111.35 201.7 111.6 205.3Q111.95 211.2 107.2 212.35L105.45 211.25L66.95 207.5Q64.9 277.25 61.1 346.75Q59.85 369.65 61.6 392.4Q64.1 425.1 52.5 450.45L50.6 439.9L49.85 434.55L49.3 428.95Q48.95 423.35 48.95 417.75Q48.95 396.9 50.25 376.35Q53.15 331.5 55.1 286.9Q58.55 209.3 63.05 132Q65.1 96.45 68 61.75Q70.15 60.8 72.4 60Q92.1 52.65 112.95 50.5L128.1 52.2L128.5 52.75Q129.5 54 129.7 55.65L129.95 58.8Q130.1 62.75 127.7 66" />
</g>
</svg>
