<?xml version="1.0" encoding="utf-8"?>
<svg version="1.1" id="Layer_1"
xmlns="http://www.w3.org/2000/svg"
xmlns:xlink="http://www.w3.org/1999/xlink"


xml:space="preserve">
q-19.3 16.9 -39.45 3.35q-10.85 -7.35 -10.8 -21.15q0.05 -14.2 1.3 -21.7q-12.3 -3.05 -24.5 0.15q-1.35 -35.75 30.45 -44.5q10.65 -2.9 20.3 2.9q-9.15 -24.65 -32.3 -9.8q-18.35 11.8 -22.3 33.4q-3.7 20.3 -2 40.9q1.55 18.55 7.35 36.25q24.9 19.15 47.75 -2q-0.65 2.55 -0.65 5.25q0 1.55 0.65 3q-4.3 38.4 -4.4 77.8q-0.2 59.75 1.2 119.25q1.35 59.95 -0.45 119.2q-0.9 30.15 -3.45 59.95q-2.55 30.55 1.3 59.3q6.6 -11.8 6.6 -28.5q0.15 -59.5 1.55 -119.25q1.3 -56.65 0.35 -112.95q8.6 -0.2 15.4 -4.65q8.05 54.5 17.75 109.05q10.25 58 17.15 116.5q2.7 23.25 10.95 43.05q1.7 -0.3 1.65 -1.95q-2.9 -53.35 -13.2 -106.75q-11.15 -57.85 -19.65 -116.15q-3.55 -24.45 -10.3 -47.25q32.25 -32.55 29.5 -80.35q-1.7 -29.7 -7.3 -58.7q-7.1 -36.95 -44.5 -38.5q2.6 1.75 3.9 4.15q23.7 44.1 18.05 94.65q-4.75 42.65 -43.75 55.7q-1 -56.45 0.75 -112.3q0.75 -25.25 -0.25 -49.25q11.65 0.6 21.3 7.05q-7.65 6.6 -9.9 16.95q-5.95 27.25 -9.55 55.15q-4 30.85 10.95 54.9q5.95 -4.25 10.5 -10.1q10.75 -13.95 4 -24.9q-4.3 13.2 -14.6 22.45q-0.4 -0.1 -0.8 -0.5q-7.4 -15.5 -6 -33.8q2.6 -5.15 -0.6 -9.7q-13.25 -2.6 -23.55 3.9q1 -23 15.7 -37.2q0.85 2.55 2.55 4.1q0.95 -1.15 1.15 -2.75q0.85 -7.25 -3.9 -12.75q-11.45 25.7 -17.8 53.25q-8.45 -29.65 -23.95 -53.4q3.95 25.15 16.85 47.05q2.8 4.8 6.15 9.6q-13.25 35.55 -12.25 73.25q12.4 -43.95 23.3 -88.35q2.5 -10.3 6.1 -20.3q3.75 -9 2.1 -18.75q-4.05 19.85 -6.25 39.9q-6.45 58.7 -15.25 116.95q-4.65 30.75 -9 61.55q-0.85 3.3 -0.2 6.7q-7.95 58.7 -19.1 116.9q-1.8 9.55 -2.65 11.2q-2.95 11.8 4.2 17.3q12.8 -56.75 20.65 -114.75q6.3 -46.45 13.05 -92.8q26.05 3.75 52.55 -0.9q2.95 30.8 4.45 61.8q2.85 58.6 7.05 116.9q-0.6 0.15 -0.6 0.25q0.2 4.15 0 8.2q-0.95 16.85 6.6 27.55q0.65 -0.75 0.65 -1.5q0.55 -45.5 -2.2 -91.55q-3.55 -59.3 -9.4 -118.3q1.55 -2.4 1.65 -5.5q0.1 -3.65 -1.7 -6.75q-0.35 -0.4 -0.8 -0.45q-5.05 -49.65 -10.7 -99.15q-6.7 -59 -17.8 -116.85q-1.4 1.75 -2.35 3.8q-11.55 -2.35 -23.45 -2.3q-49.05 0.95 -96.65 8.9q-7 21.4 -6.25 46.5q1.3 46.2 -0.55 92q-0.85 3.8 0.5 7.5q-3.75 59.35 -1.95 119.2q1.8 59.75 -2.2 119.15q-1.15 16.8 3.65 30.05q4.85 -3.65 4.9 -11.25q0.3 -40.75 -0.95 -81.75q-1.8 -59.25 -0.2 -119.2q1 -37.25 2.3 -74.3q5.25 -2.55 11.5 -1.7q23.1 3.2 46.15 -1.75q4.2 -7.15 -0.55 -13.35q-11.1 0.55 -21.7 3.45q-16.4 -3.15 -30.25 2.65q2.1 -54.35 1.75 -107.15q26.6 1 54.65 -1.05q33.3 -2.4 65.45 0.75q2.55 -2.35 2.55 -6q0.05 -3.45 -1.15 -6.7q-0.35 -0.4 -0.8 -0.45q-3.9 31.15 -3.9 63.7q-0.1 59.75 -3.35 118.45q0.65 1.65 2.25 2q0.75 -0.6 0.9 -1.35q5.1 -31.6 5.9 -64.35q1.55 -59.8 -1.3 -118.5q-4.4 51 -6.5 102.65q-2.4 59.35 -4.45 118.5q0.25 1.3 1.05 1.8q34.95 -1.75 70.7 -1.75q2.75 -3.35 2.25 -8q-0.35 -0.35 -0.75 -0.4q-8.35 2.15 -17.15 3.2q-9 1.1 -17.15 4.1q5.4 -48.25 7.65 -97.5q2.7 -59.8 0.2 -118.5q-0.75 0.1 -0.8 0.3<g id="1047" transform="matrix(1, 0, 0, 1, -45.7, 0)">
<path style="fill:#000000;fill-opacity:1" d="M496.45,166.25Q473.6 187.4 448.7 168.25Q442.9 150.55 441.35 132Q439.65 111.4 443.35 91.1Q447.3 69.5 465.65 57.7Q488.8 42.85 497.95 67.5Q488.3 61.7 477.65 64.6Q445.85 73.35 447.2 109.1Q459.4 105.9 471.7 108.95L471.95 116.75L446.5 117Q445.25 124.5 445.2 138.7Q445.15 152.5 456 159.85Q476.15 173.4 495.45 156.5L496.45 166.25M380.9,48.65L380.95 48.5Q418.35 50.05 425.45 87Q431.05 116 432.75 145.7Q435.5 193.5 403.25 226.05L402.45 226.85Q409.2 249.65 412.75 274.1Q421.25 332.4 432.4 390.25Q442.7 443.65 445.6 497Q445.65 498.65 443.95 498.95Q435.7 479.15 433 455.9Q426.1 397.4 415.85 339.4Q406.15 284.85 398.1 230.35Q391.3 234.8 382.7 235Q383.65 291.3 382.35 347.95Q380.95 407.7 380.8 467.2Q380.8 483.9 374.2 495.7Q370.35 466.95 372.9 436.4Q375.45 406.6 376.35 376.45Q378.15 317.2 376.8 257.25Q375.4 197.75 375.6 138Q375.7 98.6 380 60.2L377.7 60.25L377.45 59.5Q376.8 58.05 376.8 56.5Q376.8 53.8 377.45 51.25L378.05 50.6L379.75 49.35L380.9 48.65M382.95,60.25Q383.95 84.25 383.2 109.5Q381.45 165.35 382.45 221.8Q421.45 208.75 426.2 166.1Q431.85 115.55 408.15 71.45Q406.85 69.05 404.25 67.3Q394.6 60.85 382.95 60.25M357.2,367.95Q361.95 373.45 361.1 380.7Q360.9 382.3 359.95 383.45Q358.25 381.9 357.4 379.35L355.95 376.45Q341.25 390.65 340.25 413.65L339.9 421.6Q350.2 415.1 363.45 417.7Q366.65 422.25 364.05 427.4L363.45 428.2L340.45 429.2L339.6 427.55L338.2 448.15Q336.8 466.45 344.2 481.95Q344.6 482.35 345 482.45L347.95 482.7Q358.25 473.45 362.55 460.25L362.95 459.45Q369.7 470.4 358.95 484.35Q354.4 490.2 348.45 494.45L344.45 494.45Q329.5 470.4 333.5 439.55Q337.1 411.65 343.05 384.4Q345.3 374.05 352.95 367.45L354.95 367.6L357.2 367.95M331.45,365.8Q333.1 375.55 329.35 384.55Q325.75 394.55 323.25 404.85Q312.35 449.25 299.95 493.2Q298.95 455.5 312.2 419.95Q308.85 415.15 306.05 410.35Q293.15 388.45 289.2 363.3Q304.7 387.05 313.15 416.7Q319.5 389.15 330.95 363.45L331.45 365.8M242.45,45.25Q253.55 103.1 260.25 162.1Q265.9 211.6 270.95 261.25L271.4 261.3Q271.85 261.35 272.2 261.75Q274 264.85 273.9 268.5Q273.8 271.6 272.25 274L272.75 279.35Q278.6 338.35 282.15 397.65Q284.9 443.7 284.35 489.2Q284.35 489.95 283.7 490.7Q276.15 480 277.1 463.15Q277.3 459.1 277.1 454.95Q277.1 454.85 277.7 454.7Q273.5 396.4 270.65 337.8Q269.15 306.8 266.2 276Q239.7 280.65 213.65 276.9Q206.9 323.25 200.6 369.7Q192.75 427.7 179.95 484.45Q172.8 478.95 175.75 467.15L179.45 451.45Q180.3 449.8 182.1 440.25Q193.25 382.05 201.2 323.35L207.8 275.95L206.7 275.75L206.5 274.95Q205.85 271.55 206.7 268.25L208.95 267.9Q213.3 237.1 217.95 206.35Q226.75 148.1 233.2 89.4Q235.4 69.35 239.45 49.5L240.1 49.05Q241.05 47 242.45 45.25M180.2,43.75L180.85 45.3Q182.05 48.55 182 52Q182 55.65 179.45 58Q147.3 54.85 114 57.25Q85.95 59.3 59.35 58.3Q59.7 111.1 57.6 165.45L56.95 183.35Q70.8 177.55 87.2 180.7L92.75 180.45Q103.35 177.55 114.45 177Q119.2 183.2 115 190.35L114.2 191.25Q91.15 196.2 68.05 193Q61.8 192.15 56.55 194.7Q55.25 231.75 54.25 269Q52.65 328.95 54.45 388.2Q55.7 429.2 55.4 469.95Q55.35 477.55 50.5 481.2Q45.7 467.95 46.85 451.15Q50.85 391.75 49.05 332Q47.25 272.15 51 212.8L52.05 194.35L51.75 194.25Q50.4 190.55 51.25 186.75L51.5 186L52.45 185.5Q54.3 139.7 53 93.5Q52.25 68.4 59.25 47L59.3 49.9Q106.9 41.95 155.95 41Q167.85 40.95 179.4 43.3Q179.85 43.35 180.2 43.75M301.45,176.25Q304.3 234.95 302.75 294.75Q301.95 327.5 296.85 359.1Q296.7 359.85 295.95 360.45Q294.35 360.1 293.7 358.45Q296.95 299.75 297.05 240Q297.05 207.45 300.95 176.3L301.45 176.25M91.5,259.25Q94 317.95 91.3 377.75Q89.05 427 83.65 475.25Q91.8 472.25 100.8 471.15Q109.6 470.1 117.95 467.95L152.45 470.3Q152.85 470.35 153.2 470.7L153.65 471.5L154.35 473.75L154.7 475.95Q155.2 480.6 152.45 483.95Q116.7 483.95 81.75 485.7L81.35 484.95L80.8 482.7L80.8 482.5Q80 482 79.75 480.7Q81.8 421.55 84.2 362.2Q86.3 310.55 90.7 259.55Q90.75 259.35 91.5 259.25M264.65,260.8L241.15 76.05L215.1 266.85L264.65 260.8" />
</g>
</svg>
