<?xml version="1.0" encoding="utf-8"?>
<svg version="1.1" id="Layer_1"
xmlns="http://www.w3.org/2000/svg"
xmlns:xlink="http://www.w3.org/1999/xlink"


xml:space="preserve">
q-4.85 -25.35 -30.75 -22.3q-20.8 2.25 -32.6 19.8q-10.7 15.85 -16.1 34.1q-6.25 21.15 -7.85 42.95q-1.6 21.55 -0.2 42.95q1.55 23.05 17.55 35.3q17.2 13.25 38.3 8.2q10.9 -2.7 19.8 -9.5q13.1 -21.15 9.55 -48.85q-12.75 1.25 -21.75 9.5q-17.55 17.75 -42.25 16.2q-23.05 -1.65 -27.6 -25.85q-3.2 -17 -2.3 -34.45q0.95 -18.3 4.9 -36.3q4.5 -20.4 14.1 -38.25q6.8 -12.6 20.1 -19.15q17.55 -8.75 34.35 0.95q4.5 2.7 8.15 6.6q-20.1 -2 -38.65 3.45q-3.35 3.1 -3.5 9q-1.55 59.4 -2.75 119.2q-0.25 15 -1.95 29.85q-1.9 16.7 3.45 29.4q0.9 -0.95 1 -2.25q2.2 -33.1 3.35 -66.7q19.4 0.1 39.25 -3.5q0.95 -0.8 1.35 -2q1.65 -5.05 -0.6 -9.75q-18.95 1.7 -37.1 7.25q0.35 -31.5 -0.3 -62.55q26.7 -1.6 52.35 2.05q2.5 -4.65 1.1 -9.8q-0.35 -1.2 -1.1 -2.2q-0.35 -0.4 -0.75 -0.45q-6.2 11.9 -9.9 25.8q-15.3 57.05 -33.85 112.65q-3.5 10.6 -9.45 20.1q-10.2 16.25 -3 28.4q4.35 -5.75 7 -12.8q16.05 -43.2 29.5 -87.25q14.85 -1.85 29.45 -2.7q2.8 17.25 6.25 34.55q4.3 21.7 6.15 43.65q1.45 16.55 9.85 28.8q1.95 -0.9 1.8 -2.9q-2.85 -34.2 -10.1 -68.45q-6.15 -29.1 -9.8 -58.55q-3.25 -26.25 -11.25 -49.65q0.3 -6.5 -2.65 -11.65q2.05 -1.75 2.5 -4.3q0.8 -5.05 -1.45 -9.8q-1.85 -3.9 -5.05 -6.4q-22.15 1.45 -29.35 25.4q-6.5 21.7 -0.75 43.4q7.7 29.2 29.15 8.1q5.9 -5.75 3.7 -13.9q-11 9.55 -25 9.25q-4.5 -4.7 -10.75 -2.55q0.85 -14.7 12.6 -22.7q6.15 -4.2 13.65 -4.5<g id="1048" transform="matrix(1, 0, 0, 1, -139.15, 0)">
<path style="fill:#000000;fill-opacity:1" d="M407.3,200.4Q390.5 190.7 372.95 199.45Q359.65 206 352.85 218.6Q343.25 236.45 338.75 256.85Q334.8 274.85 333.85 293.15Q332.95 310.6 336.15 327.6Q340.7 351.8 363.75 353.45Q388.45 355 406 337.25L409.2 323.7L391.8 325.25L391.7 320.45Q400.7 312.2 413.45 310.95L414.6 322.3Q418.15 350 405.05 371.15L403.6 358.5Q394.7 365.3 383.8 368Q362.7 373.05 345.5 359.8Q329.5 347.55 327.95 324.5Q326.55 303.1 328.15 281.55Q329.75 259.75 336 238.6Q341.4 220.35 352.1 204.5Q363.9 186.95 384.7 184.7Q410.6 181.65 415.45 207Q411.8 203.1 407.3 200.4M205.2,184Q205.95 185 206.3 186.2Q207.7 191.35 205.2 196L204.4 196.55L201.95 197.25Q176.3 193.6 149.6 195.2Q150.25 226.25 149.9 257.75Q168.05 252.2 187 250.5L189.4 250.95L190.25 251.5Q192.5 256.2 190.85 261.25Q190.45 262.45 189.5 263.25Q169.65 266.85 150.25 266.75L149.75 265.8L148.85 300Q147.7 333.6 145.5 366.7Q145.4 368 144.5 368.95Q139.15 356.25 141.05 339.55Q142.75 324.7 143 309.7Q144.2 249.9 145.75 190.5Q145.9 184.6 149.25 181.5L149.35 184.95Q167.9 179.5 188 181.5L204.45 183.55Q204.85 183.6 205.2 184M255.6,193.4Q263.6 216.8 266.85 243.05Q270.5 272.5 276.65 301.6Q283.9 335.85 286.75 370.05Q286.9 372.05 284.95 372.95Q276.55 360.7 275.1 344.15Q273.25 322.2 268.95 300.5Q265.5 283.2 262.7 265.95Q248.1 266.8 233.25 268.65Q219.8 312.7 203.75 355.9Q201.1 362.95 196.75 368.7Q189.55 356.55 199.75 340.3Q205.7 330.8 209.2 320.2Q227.75 264.6 243.05 207.55Q246.75 193.65 252.95 181.75Q255.9 186.9 255.6 193.4M293.8,197.75Q282.05 205.75 281.2 220.45L292.2 216.7Q298.45 214.55 302.95 219.25L302.7 225.25L280.65 233L285.2 254Q299.2 254.3 310.2 244.75Q312.4 252.9 306.5 258.65Q285.05 279.75 277.35 250.55Q271.6 228.85 278.1 207.15Q285.3 183.2 307.45 181.75Q310.65 184.25 312.5 188.15Q314.75 192.9 313.95 197.95Q313.5 200.5 311.45 202.25L307.45 193.25Q299.95 193.55 293.8 197.75M253.65,202.8L236.75 257.15L260.7 253.4L253.65 202.8" />
</g>
</svg>
