<?xml version="1.0" encoding="utf-8"?>
<svg version="1.1" id="Layer_1"
xmlns="http://www.w3.org/2000/svg"
xmlns:xlink="http://www.w3.org/1999/xlink"


xml:space="preserve">
q13.1 3.7 18.5 14.3q1.15 -27.15 -27.75 -27.5q-29 1.7 -30.35 28.3q-0.75 15.85 3.3 31q11.9 44.4 24.8 88.4q16.2 55.2 21.3 112.3q3.15 44.85 -31.7 69.1q-6.35 2.7 -12.15 -0.8q-22.35 -13.45 -20.1 -39.2q-0.3 -0.8 -0.8 -1.45q-8.35 22.2 5.95 42.85q17.7 25.55 40.9 5.8q5.6 -4.75 8.9 -11.25q16.05 -31.75 15.25 -68.4q-1 -44.8 -10.45 -88.05q-12.7 -58.25 -35.25 -113.35q-4 -9.9 -6.55 -20.15q-6.4 -26.3 17.85 -33.65q9.15 -2.75 17.9 -0.3q-16.65 47.95 -14.6 99.5q2.4 59.7 3.2 119.25q0.75 59.6 1.85 118.45q0.15 7.95 4.95 13.95q8.85 11.15 20.5 2.45q30.45 -22.7 27.35 -59.65q-6.2 12 -10.75 24.95q-8.55 24.4 -32.75 22.8q-0.6 -0.75 -0.85 -1.6q-6.25 -22.7 -5.35 -47.95q2.05 -59 -1.7 -117.55q16.5 -3.3 32.9 -5.35q3.05 -6.3 -1.6 -10.9q-16.55 1.55 -32.55 6q-3.05 -54.45 -0.05 -108.3q1.9 -34.3 20.85 -60.7q16.45 -3.6 29.75 3.75q-3.1 -17.9 -23.7 -16.05q-4.7 1.25 -8.95 4.05q-5.6 6.15 -8.25 13.75q-20.6 -9.4 -40.85 -1.15q-21.7 8.9 -26.55 31.75q-4.85 22.75 8.8 41.05q13.75 18.35 36.45 16.5q24.15 -2.2 23.15 -23.4q-19.9 17.8 -43.4 7.4q-12.5 -5.55 -17.25 -18.3q-5.55 -15.05 1.35 -29.7q9.15 -19.55 33.8 -19.2q12.3 0.2 24.5 2.55q-34.05 44.25 -44 97.8q7.55 37 25.95 69.8q7.35 -5.3 3.45 -12.75q0.75 22.1 -1.15 44.05q-2.65 30.85 0.9 59.2q3.8 -12 4.5 -25.95q3 -59.55 -1.25 -118.55q-3.75 19.15 -3 41.25q0.8 59.55 -1.8 119.25q-0.65 14.95 -2.55 29.7q-2.25 17.25 3.9 29.25q3.55 -44.55 4.65 -90q1.35 -55.1 0.1 -108.7q2.1 -4.95 -0.95 -8.95q-40.45 -1.95 -79.25 6.5q-0.25 0.35 -0.35 0.75q-0.85 3 0.1 6q-1.8 9.6 -1.65 20.35q-5.5 14.5 -8.15 31.05q-8.1 50.7 -18.05 101.05q-11.5 58 -24.95 115.4q-6.8 29.05 -15.75 57.8q-5.3 16.95 0.3 28.75q5.25 -11.6 8 -24.5q37.25 5.1 73 8.8q4.4 27.6 6.4 55.2q2.25 31.1 11.7 57.6q0.65 -0.75 0.65 -1.5q0.55 -24.8 -3.1 -49.65q-8.5 -58.65 -19.9 -116.65q-11.4 -57.95 -20 -116.6q-3.65 -24.8 -8.05 -48.35q-6.85 21.2 -4.35 45.05q1.15 10.75 1.85 21.45q2.65 -4.7 0.9 -9.7q11.15 54.2 20.2 108.6q8.65 -42.95 18.7 -85.65q10.95 -46.7 16.5 -93.35q2.2 44.3 11.5 89.55q0.8 -3.65 -1.05 -6.75q-0.15 7.1 -0.15 16.3q-0.05 122 -3.05 244.2q-1.9 76.5 -4.95 152.95q-0.2 5.55 -0.8 11.1q3 -25.75 3.6 -51.7q2.95 -130.55 4.7 -261.05q0.95 -70.4 0.5 -140.6q-10.05 -5.85 -23.85 -5.75q-16 0.15 -30.6 5.95q-21.35 -7.5 -30.75 15q-8.55 20.45 -6 42.65q1.9 16.2 10.3 30.2q7.15 3.15 14.55 -0.2q4.25 -1.9 6.65 -5.8q4.8 -20.75 1.65 -41.65q-3.4 4.25 -8.6 6.1q-4.8 1.8 -10.05 0.65q-17.7 -26.55 -1.45 -56.95q8.1 -15.15 25.7 -12.8q0.25 18.55 -2.75 36.55q-4.05 24.15 0.25 46.45q7.6 -45.55 3.7 -92.2q-1.85 3.9 -1.75 9.75q-15.85 14.55 -19.7 37.45q-3.25 19.4 0.9 38.6q5.05 23.25 26.05 17.3q13.95 -3.85 11.55 -16.35q-10.9 7.4 -25.05 9.75q-11.35 -18.05 -9.45 -40q16.2 -3.95 32.75 -1.75q-1.15 1.15 -2.7 1.7q-5.15 2 -10.8 1.55q-1.25 -17.6 15.55 -28.55q6.15 -4.05 13.7 -2.7q-7.3 -4.1 -15.45 -3.05q-4.55 1 -2.75 6.4q-3.95 37.5 -6.55 75.05q-0.7 9.75 1.35 17.8q7.3 25.95 25.6 45.5q1.05 1.1 2.5 1.85q13.15 -11.15 14.9 -28.4q0.6 -6.05 -2.3 -11.5q-2.5 -4.55 -7 -7.2q12.65 -0.6 20 9.9q0.2 9.2 1.65 16.75q-5.7 22.2 -0.7 43.5q0.25 1.15 1.05 2.2q4.2 -27.75 5.55 -54.95q1 -20.1 0.85 -40.45q-6.6 19.65 -6.25 40.4q-7.25 17.65 -6.6 38.05<g id="1044" transform="matrix(1, 0, 0, 1, -37.8, 0)">
<path style="fill:#000000;fill-opacity:1" d="M495.05,160.5Q470.8 167.85 477.2 194.15Q479.75 204.4 483.75 214.3Q506.3 269.4 519 327.65Q528.45 370.9 529.45 415.7Q530.25 452.35 514.2 484.1Q510.9 490.6 505.3 495.35Q482.1 515.1 464.4 489.55Q450.1 468.9 458.45 446.7L459.1 447.3Q459.6 447.95 459.9 448.75L460.2 449.45Q457.95 475.2 480.3 488.65Q486.1 492.15 492.45 489.45Q527.3 465.2 524.15 420.35L523 406.25Q517.9 349.15 501.7 293.95Q488.8 249.95 476.9 205.55Q472.85 190.4 473.6 174.55Q474.95 147.95 503.95 146.25Q532.85 146.6 531.7 173.75L531.45 174.5Q526.05 163.9 512.95 160.2Q504.2 157.75 495.05 160.5M437.95,50.5L439 49.8Q443.25 47 447.95 45.75Q468.55 43.9 471.65 61.8L471.45 62.5Q458.15 55.15 441.7 58.75Q422.75 85.15 420.85 119.45Q417.85 173.3 420.9 227.75Q436.9 223.3 453.45 221.75Q458.1 226.35 455.05 232.65L454.45 233.5Q438.05 235.55 421.55 238.85Q425.3 297.4 423.25 356.4Q422.35 381.65 428.6 404.35Q428.85 405.2 429.45 405.95Q453.65 407.55 462.2 383.15Q466.75 370.2 472.95 358.2Q476.05 395.15 445.6 417.85Q433.95 426.55 425.1 415.4Q420.3 409.4 420.15 401.45Q419.05 342.6 418.3 283Q417.5 223.45 415.1 163.75Q413.05 112.2 429.7 64.25Q432.35 56.65 437.95 50.5M340.95,58.75Q328.75 56.4 316.45 56.2Q291.8 55.85 282.65 75.4Q275.75 90.05 281.3 105.1Q286.05 117.85 298.55 123.4Q322.05 133.8 341.95 116Q342.95 137.2 318.8 139.4Q296.1 141.25 282.35 122.9Q268.7 104.6 273.55 81.85Q278.4 59 300.1 50.1Q320.35 41.85 340.95 51.25L340.95 58.75M394.15,139.75Q398.05 147.2 390.7 152.5L364.4 204.85L387.95 280L387.55 280.35Q369.15 247.55 361.6 210.55L349.2 235.95L348.95 235.8Q358.9 182.25 392.95 138L394.15 139.75M345.2,136.75Q349.45 195.75 346.45 255.3Q345.75 269.25 341.95 281.25Q338.4 252.9 341.05 222.05Q342.95 200.1 342.2 178Q341.45 155.9 345.2 136.75M387.8,308.9L334.7 311.25Q333.75 308.25 334.6 305.25Q334.7 304.85 334.95 304.5Q373.75 296.05 414.2 298Q417.25 302 415.15 306.95L414.7 307.75L390.45 308.75Q391.7 362.35 390.35 417.45Q389.25 462.9 385.7 507.45Q379.55 495.45 381.8 478.2Q383.7 463.45 384.35 448.5Q386.95 388.8 386.15 329.25Q386 318.5 387.8 308.9M201.9,61.6L204.2 56L203.05 67.7Q207.45 91.25 211.1 116.05Q219.7 174.7 231.1 232.65Q242.5 290.65 251 349.3Q254.65 374.15 254.1 398.95Q254.1 399.7 253.45 400.45Q244 373.95 241.75 342.85Q239.75 315.25 235.35 287.65Q199.6 283.95 162.35 278.85L142.7 372.7Q139.95 385.6 134.7 397.2Q129.1 385.4 134.4 368.45Q143.35 339.7 150.15 310.65Q163.6 253.25 175.1 195.25Q185.05 144.9 193.15 94.2Q195.8 77.65 201.3 63.15L201.2 58L201.9 61.6M168.9,187.7L130.7 190Q130 179.3 128.85 168.55Q126.35 144.7 133.2 123.5L133.95 177.5L169.2 176.5L169.8 178Q171.55 183 168.9 187.7M201.85,78.5Q196.3 125.15 185.35 171.85Q175.3 214.55 166.65 257.5L163.95 271L170.95 270.1L170.95 270L233.55 276.65Q224.5 222.25 213.35 168.05Q204.05 122.8 201.85 78.5M118.45,62.5L50.3 56.35Q50.75 126.55 49.8 196.95Q48.05 327.45 45.1 458Q44.5 483.95 41.5 509.7L40.4 506.55L39.4 503.15L38.7 499.75L37.9 492.4L37.8 488.5L37.95 484.5L38.3 480.3Q38.9 474.75 39.1 469.2Q42.15 392.75 44.05 316.25Q47.05 194.05 47.1 72.05Q47.1 62.85 47.25 55.75L44.75 54.5L45.9 46.65L118.95 52Q120.8 55.1 120 58.75L119.9 59.5L119.75 60.25L119.6 60.95L119.3 61.5L118.45 62.5M51.9,180.7Q66.5 174.9 82.5 174.75Q96.3 174.65 106.35 180.5L105.7 188.75L51.5 189.25L51.9 180.7M304.7,421.95Q287.1 419.6 279 434.75Q262.75 465.15 280.45 491.7Q285.7 492.85 290.5 491.05Q295.7 489.2 299.1 484.95L301.2 471.95L283.95 472.95L284.45 466.2L303.2 462.95Q306.35 483.85 301.55 504.6L298.9 495.7Q296.5 499.6 292.25 501.5Q284.85 504.85 277.7 501.7Q269.3 487.7 267.4 471.5Q264.85 449.3 273.4 428.85Q282.8 406.35 304.15 413.85L304.7 421.95M241.2,411.7Q245.1 458.35 237.5 503.9L236.95 504.45Q232.65 482.15 236.7 458Q239.7 440 239.45 421.45Q239.35 415.6 241.2 411.7M198.15,411.7L198.7 418.2Q191.15 416.85 185 420.9Q168.2 431.85 169.45 449.45Q175.1 449.9 180.25 447.9Q181.8 447.35 182.95 446.2L201.6 447.95L201.7 457.2Q185.15 455 168.95 458.95L168.25 456.2Q166.35 478.15 177.7 496.2Q191.85 493.85 202.75 486.45Q205.15 498.95 191.2 502.8Q170.2 508.75 165.15 485.5Q161 466.3 164.25 446.9Q168.1 424 183.95 409.45L198.15 411.7M121.45,416.2Q124.35 421.65 123.75 427.7Q122 444.95 108.85 456.1L134.5 503.7Q133.05 502.95 132 501.85Q113.7 482.3 106.4 456.35L99.8 456.25L98.45 454.5L91.4 505.2Q89.35 497.15 90.05 487.4Q92.65 449.85 96.6 412.35L96.25 412.35Q94.45 406.95 99 405.95Q107.15 404.9 114.45 409Q118.95 411.65 121.45 416.2M119.45,421.95Q112.1 411.45 99.45 412.05L99.8 446.1L108.2 446.7L112.95 442.2L119.45 421.95M324.6,450.5Q323.95 430.1 331.2 412.45L332.4 457.05L358.2 453.1Q357.85 432.35 364.45 412.7Q364.6 433.05 363.6 453.15Q362.25 480.35 358.05 508.1Q357.25 507.05 357 505.9Q352 484.6 357.7 462.4L332.05 465L327.35 506.45Q325.9 498.9 325.7 489.7L324.6 450.5" />
</g>
</svg>
