<?xml version="1.0" encoding="utf-8"?>
<svg version="1.1" id="Layer_1"
xmlns="http://www.w3.org/2000/svg"
xmlns:xlink="http://www.w3.org/1999/xlink"


xml:space="preserve">
q-0.35 20.05 -2.85 40.6q-2 16.7 -2.65 33.7q-0.75 18.8 -1.25 37.7q-0.4 14.75 -2.25 29.4q-2.6 20.85 2.9 41.05q2.5 -3.3 1.9 -7.5q-19.55 -3.95 -38.9 2.95q29.1 7.85 58.75 2.75q2.35 -4 0.85 -8.25q-20.75 0.85 -41.5 -1.2q-2.7 0.2 -5 1.1q-0.6 0.25 -1.1 0.8q-6.65 -34.65 -16.75 -68.6q-16.8 -56.65 -37.9 -111.55q-0.5 0.1 -0.5 0.25q-0.05 22.45 8.3 44.8q5.65 15.15 10.85 30.55q-11.8 -0.5 -23.25 1.55q4.8 -17.8 10.05 -35.35q6.65 -22.25 5.45 -43.2q-4.15 4.2 -5.8 10.9q-8.3 34.75 -17.45 69.3q-2.95 10.7 -7.65 20.4q-10.25 21.3 -10.75 43.45q5 -2.15 7.75 -9.25q14.55 -38 24.65 -78.2q20.8 2.75 42.55 0.25q11.15 34.7 19.75 70.4q3.9 16.1 11.35 27.05q1.65 -1.9 1.15 -4.3q-28.5 1 -56.5 -6.1q-2.25 0.45 -4.4 1.5q-0.9 1.35 -1 3q-2.6 18.05 -2.75 36.95q-0.45 59.7 -7.9 118.3q-2.2 17.05 3.5 29.15q4.65 -34.1 6.75 -68.9q24.2 -0.5 48.25 -3.45q3.2 -7.1 -2.5 -10.75q-23.4 -0.3 -45.7 5.4q1.15 -36.6 0.15 -72.95q30.25 7.6 61 6.55q1.3 -2.05 1.4 -4.45q-0.35 -0.4 -0.7 -0.4<g id="1038" transform="matrix(1, 0, 0, 1, -135.05, 0)">
<path style="fill:#000000;fill-opacity:1" d="M361.6,183.7Q363.9 182.8 366.6 182.6L379.7 183.55Q400.45 185.6 421.2 184.75L422.05 187Q423.55 191.25 421.2 195.25Q391.55 200.35 362.45 192.5L362.55 261.75L366.05 260.45Q385.4 253.55 404.95 257.5L405.6 259L406.1 260.4L406.35 261.75Q406.95 265.95 404.45 269.25L362.3 271.95L355.45 370.2L354.4 366.95Q348.9 346.75 351.5 325.9Q353.35 311.25 353.75 296.5Q354.25 277.6 355 258.8Q355.65 241.8 357.65 225.1Q360.15 204.55 360.5 184.5Q361 183.95 361.6 183.7M333.7,369.2Q326.25 358.25 322.35 342.15Q313.75 306.45 302.6 271.75Q280.85 274.25 260.05 271.5L257.1 283Q247 323.2 232.45 361.2Q229.7 368.3 224.7 370.45Q225.2 348.3 235.45 327Q240.15 317.3 243.1 306.6L254.3 265.65L254.7 263.25L254.95 263.2Q264.1 228.65 272.4 193.9Q274.05 187.2 278.2 183Q279.4 203.95 272.75 226.2Q267.5 243.75 262.7 261.55Q274.15 259.5 285.95 260L298.85 260.35Q293.65 244.95 288 229.8Q279.65 207.45 279.7 185Q279.7 184.85 280.2 184.75Q301.3 239.65 318.1 296.3Q328.2 330.25 334.85 364.9Q335.35 367.3 333.7 369.2M211.2,184.25L212.15 187.2L212.35 189.5Q212.25 191.9 210.95 193.95L210.45 194.75Q179.7 195.8 149.45 188.2Q150.45 224.55 149.3 261.15Q171.6 255.45 195 255.75Q200.7 259.4 197.5 266.5L197.25 267.25Q173.2 270.2 149 270.7L147.5 300.3Q145.4 335.1 140.75 369.2Q135.05 357.1 137.25 340.05Q144.7 281.45 145.15 221.75Q145.3 202.85 147.9 184.8L147.9 184.25L148 182.75Q148.1 181.1 149 179.75L149.55 179.35Q151.7 178.3 153.95 177.85L154 177.75Q182 184.85 210.5 183.85Q210.85 183.85 211.2 184.25" />
</g>
</svg>
