<?xml version="1.0" encoding="utf-8"?>
<svg version="1.1" id="Layer_1"
xmlns="http://www.w3.org/2000/svg"
xmlns:xlink="http://www.w3.org/1999/xlink"


xml:space="preserve">
q-1.15 1.85 -0.9 4.15q-4.85 33 -4.25 68.75q0.9 59.35 -1.9 118.45q-2.9 59.65 -7.65 119.2q-0.6 7.45 -2.1 14.75q-3.55 16.95 2.1 29.55q0.9 -0.75 1 -1.6q0.15 2.5 1.3 4.7q30.35 -15.65 57.8 -36.7q20.35 -15.55 30.5 -38.9q23.75 -54.45 26.45 -114.05q2.75 -60.95 -19.95 -116q-21.2 -51.45 -78.3 -49.55q-0.4 0.1 -0.8 0.5q5.15 59.95 -9.8 118q-4.8 18.8 -15.65 34.85q-31.25 46.35 -83.8 69.2q6.8 -51.65 9.8 -104.25q3.4 -59 4 -118.55q0.5 -55.6 -1.45 -110q18.05 -2.4 34.65 2.65q13.25 4 22.5 14.2q35.35 39.1 39.95 93.3q2.1 -20.3 -19.25 -21.15q-53.35 41.85 -54.75 114q-0.65 34.25 3.95 68.55q1.55 11.5 8.15 20.9q3.5 4.05 8.3 6.45q5.7 2.75 11.95 2.7q28.25 -0.2 47.55 -20.6q9.85 -10.4 4.7 -23.65q-4.4 0.5 -5.35 4.75q-30 34.85 -63.9 11.75q-8.85 -6.05 -9.9 -17.75q-2.25 -24.7 2.95 -48.9q1.15 -5.3 1.25 -10.6q24.1 2.45 47.75 -2.25q3.2 -7.1 -1 -13.5q1.85 -51 39.65 -83.8q8.95 -7.75 19.85 -1.3q3.1 1.85 6.15 3.85q-1.85 19.75 -4.5 39.75q-1.65 12.55 -0.45 25.15q-4.15 -12.6 -11.6 -23.8q-9.15 -13.7 -15.85 -28.95q-9.25 -21.1 -16.55 -40.7q-2.3 2 -2.75 5.2q-3.85 27 -2.7 51.75q1.1 -0.15 1.35 -1.25q5.65 -26.1 9.95 -52.2q2.75 -16.85 2.9 -34.05q3 13.45 7.5 26.4q3.95 11.3 8.95 22.4q10.55 23.15 26.55 39.55q4.05 -26.35 5.7 -52.9q1.65 -26.2 0.7 -52.45q-3.2 14.6 -4.65 30.5q-4.7 -24.65 -31.5 -22.8q-23.55 1.75 -32.95 23.9q-8.05 19.05 -12.35 39.65q-3.75 18.05 -6.45 36.1q-2.75 18.2 -3.75 36.55q-0.85 14.85 -1.45 29.7q-0.55 14.8 -0.75 29.6q0.05 20.35 1.8 40.8q1.65 19.45 4.5 38.6q3.3 22.4 19.4 36.85q12 10.75 28.8 1.7q19.5 -10.65 31.55 -29.25q4.5 -6.95 0.5 -13.6q-18.7 22.35 -47.15 31.45q-4.6 1.6 -9.75 1.75q-24.5 -78.4 -15.75 -161.45q2.45 -3.8 1.65 -8.45q-0.4 -2.55 -2.05 -4.65q-24.5 -1.4 -47.25 6.9q-4 -62 18.2 -120.45q5.55 -14.6 16.55 -25.95q16.7 -3.6 33.75 -2q-3.25 3.5 -3.1 8.55q2.9 99.25 -7.05 197.55q-0.35 3.55 0.5 7.15q6.05 -31 6.85 -63.7q1.9 -74.85 4.15 -149.6q2.85 -1.6 3.8 -5.15q-0.2 -2.8 -1.6 -5.3q-18.1 -4.1 -36.85 -0.45q3.65 -58.15 1.35 -116.2q3 -2 4.05 -5.4q29.8 6.85 6.7 34.05q-4.1 4.8 -9.75 7.35q-3.15 -1.65 -6.35 -2.8q-15.5 11.6 -14.35 34.55q1 20.3 -1 40.45q-1.85 18.7 -0.7 37.15q3.55 34.8 18.6 66.4q-3.5 -36.3 -19.1 -71.45q12.85 -9.65 16.3 -25.35q1.15 -5.3 0.6 -10.55q-0.45 -4.75 -2.85 -8.8q-3.75 -6.3 -10.35 -9.8q-4.65 3.4 -4.8 10q-0.95 37 -3.15 74.15q-1 16.5 4.45 27.55q3.05 -27.65 3.85 -56.25q0.8 -28.6 -0.35 -55.45<g id="1060" transform="matrix(1, 0, 0, 1, -44.25, 0)">
<path style="fill:#000000;fill-opacity:1" d="M381.5,72.75L385.95 72Q443.05 70.1 464.25 121.55Q486.95 176.6 484.2 237.55Q481.5 297.15 457.75 351.6Q447.6 374.95 427.25 390.5Q399.8 411.55 369.45 427.2L368.7 426.35Q367.55 424.15 367.4 421.65L366.45 428.35Q366.35 429.2 365.45 429.95Q359.8 417.35 363.35 400.4Q364.85 393.1 365.45 385.65Q370.2 326.1 373.1 266.45Q375.9 207.35 375 148Q374.4 112.25 379.25 79.25L379.1 78.5Q378.85 76.2 380 74.35L380.2 73L380.25 73.95L380.7 73.25Q381.1 72.85 381.5 72.75M437.75,99.1Q428.5 88.9 415.25 84.9Q398.65 79.85 380.6 82.25Q382.55 136.65 382.05 192.25Q381.45 251.8 378.05 310.8Q375.05 363.4 368.25 415.05L368.45 414.45Q421 391.6 452.25 345.25Q463.1 329.2 467.9 310.4Q482.85 252.35 477.7 192.4Q473.1 138.2 437.75 99.1M326.05,97.15Q315.15 90.7 306.2 98.45Q268.4 131.25 266.55 182.25L313.45 176.25Q317.65 182.65 314.45 189.75Q290.8 194.45 266.7 192L266.15 190.35L266.1 191.75Q266 197.05 264.85 202.35Q259.65 226.55 261.9 251.25Q262.95 262.95 271.8 269Q305.7 292.1 335.7 257.25L336.1 255Q337.05 250.75 341.45 250.25Q346.6 263.5 336.75 273.9Q317.45 294.3 289.2 294.5Q282.95 294.55 277.25 291.8Q272.45 289.4 268.95 285.35L267.3 283.2Q260.7 273.8 259.15 262.3Q254.55 228 255.2 193.75Q256.6 121.6 309.95 79.75L312.95 79.85Q334.3 80.7 332.2 101Q329.15 99 326.05 97.15M337.2,311.5Q338.15 337.75 336.5 363.95Q334.85 390.5 330.8 416.85L328.7 412.2L328.25 422.55Q312.25 406.15 301.7 383Q296.7 371.9 292.75 360.6Q288.25 347.65 285.25 334.2Q285.1 351.4 282.35 368.25Q278.05 394.35 272.4 420.45Q272.15 421.55 271.05 421.7Q269.9 396.95 273.75 369.95L280.85 318.65Q281.3 315.45 283.6 313.45Q290.9 333.05 300.15 354.15Q306.85 369.4 316 383.1Q323.45 394.3 327.6 406.9Q326.4 394.3 328.05 381.75Q330.7 361.75 332.55 342Q334 326.1 337.2 311.5M251.7,84.75Q234.65 83.15 217.95 86.75Q206.95 98.1 201.4 112.7Q179.2 171.15 183.2 233.15Q205.95 224.85 230.45 226.25Q232.1 228.35 232.5 230.9Q233.3 235.55 230.85 239.35L187.95 242.25L182.75 238Q174 321.05 198.5 399.45L204.95 403.95Q210.1 403.8 214.7 402.2Q243.15 393.1 261.85 370.75Q265.85 377.4 261.35 384.35Q249.3 402.95 229.8 413.6Q213 422.65 201 411.9Q184.9 397.45 181.6 375.05Q178.75 355.9 177.1 336.45Q175.35 316 175.3 295.65L175.5 265.95Q175.7 251.15 176.25 236.35Q176.85 221.5 177.7 206.65Q178.7 188.3 181.45 170.1Q184.15 152.05 187.9 134Q192.2 113.4 200.25 94.35Q209.65 72.2 233.2 70.45Q260 68.6 264.7 93.25L261.55 93.05L251.7 84.75M125.5,70L125.5 71.05L125.45 72L125.25 72.85Q124.2 76.25 121.2 78.25L60.95 67.25L61.55 81.05Q63.85 139.1 60.2 197.25L71.1 194.8Q89.85 191.15 107.95 195.25Q109.35 197.75 109.55 200.55L109.55 201.4L109.5 202.2L109.4 203L109.25 203.85Q108.3 207.4 105.45 209L103.7 206.25L59.75 207.15Q57.5 281.9 55.6 356.75Q54.8 389.45 48.75 420.45L47.4 418.3L46.25 415.95L45.1 412.2Q44.25 408.6 44.6 405.05Q54.55 306.75 51.65 207.5Q51.5 202.45 54.75 198.95L59.3 66.65L57.5 65.3L59 57L123.85 64.45L125.5 70M129.6,93.6L129.4 130.9Q135.05 128.35 139.15 123.55Q162.25 96.35 132.45 89.5L129.6 93.6M152.65,91.85Q155.05 95.9 155.5 100.65Q156.05 105.9 154.9 111.2Q151.45 126.9 138.6 136.55Q154.2 171.7 157.7 208L155.75 203.95Q140.7 172.35 137.15 137.55L128.85 141.55L120.95 205.75L119.9 191.4Q118.75 172.95 120.6 154.25Q122.6 134.1 121.6 113.8Q120.45 90.85 135.95 79.25Q139.15 80.4 142.3 82.05Q148.9 85.55 152.65 91.85M126.55,364.45Q125.75 393.05 122.7 420.7Q117.25 409.65 118.25 393.15Q120.45 356 121.4 319Q121.55 312.4 126.2 309Q127.35 335.85 126.55 364.45" />
</g>
</svg>
