<?xml version="1.0" encoding="utf-8"?>
<svg version="1.1" id="Layer_1"
xmlns="http://www.w3.org/2000/svg"
xmlns:xlink="http://www.w3.org/1999/xlink"


xml:space="preserve">
q-5.2 51.1 -3.75 103.4q0.85 30.45 -5.25 59.65q-3 14.2 4.25 21.85q8 -31.85 8.15 -66q22.3 0.15 43.05 -7.8q8.8 -3.4 13.65 -11.05q10.8 -17.05 6.3 -37.6q-8.8 -39.9 -51.15 -40.75q-3.8 0.85 -8.25 2.2q-0.75 0.1 -0.75 0.3q2.4 13.25 -9.15 19.8q-23 13 -50.1 13.8q-0.4 -35.55 -1.95 -70.55q25.05 -5.4 45.05 10.2q13.15 10.2 16.15 26.75q-1.7 2.6 -1.9 5.75q-5.75 84.6 -7.9 169.45q-0.1 3.7 0.6 7.4q4.65 -24.4 4.75 -49.25q0.1 -26.55 2.95 -52.9q2 -2.8 2.15 -6.1q0.05 -1.65 -0.3 -3.25q-0.4 -1.7 -1.15 -3.2q25.95 4.9 52.15 1.75q-40.85 26.05 -48.3 76q-2.9 19.55 -3.45 39.8q-0.95 35.25 23.3 57.8q4.5 4.2 10.6 4.65q39.9 2.9 62.65 -28.95q0.4 -1.6 1.25 -3q3.8 -6.35 1.95 -13.6q-0.85 -3.3 -3.95 -3.9q-1.15 0.45 -1.8 1.45q-0.65 1.1 -0.9 2.35q-7.2 12.5 -20 19.9q-20.45 11.85 -42.45 5.35q-8.6 -2.5 -11.9 -10.65q-12.45 -30.55 -9 -61.2q2.35 -6.5 -1.4 -11.95q-23.8 0.55 -45.5 8.75q3.15 -15.3 10.3 -30.65q7.7 -16.65 22.85 -26.55q30.15 -19.75 57.1 3.2q-6.05 -30.05 -41.45 -26.05q-4.15 0.95 -8.05 3.4<g id="1053" transform="matrix(1, 0, 0, 1, -136.4, 0)">
<path style="fill:#000000;fill-opacity:1" d="M342.45,182.25L342.7 186.9L343.2 186.25L343.95 185.5L344.45 185L348.7 184.2Q353.15 182.85 356.95 182Q399.3 182.85 408.1 222.75Q412.6 243.3 401.8 260.35Q396.95 268 388.15 271.4Q367.4 279.35 345.1 279.2L345.1 301.45Q344.95 335.6 336.95 367.45Q329.7 359.8 332.7 345.6Q338.8 316.4 337.95 285.95Q336.5 233.65 341.7 182.55Q341.7 182.35 342.45 182.25M388.1,205.4Q368.1 189.8 343.05 195.2Q344.6 230.2 345 265.75Q372.1 264.95 395.1 251.95Q406.65 245.4 404.25 232.15Q401.25 215.6 388.1 205.4M200.2,192Q174 195.15 148.05 190.25L148.3 258.3L187.5 255.75L188.45 257.45Q189.2 258.95 189.6 260.65Q189.95 262.25 189.9 263.9Q189.75 267.2 187.75 270L147.7 270.05Q144.85 296.4 144.75 322.95Q144.65 347.8 140 372.2L137.9 365.35L137.1 361.8Q136.4 358.1 136.5 354.4Q138.65 269.55 144.4 184.95Q144.6 181.8 146.3 179.2L200.2 180.75L200.2 192M267.95,180Q303.35 176 309.4 206.05L309.2 206.75Q282.25 183.8 252.1 203.55Q236.95 213.45 229.25 230.1Q222.1 245.45 218.95 260.75Q240.65 252.55 264.45 252Q268.2 257.45 265.85 263.95L265.45 264.75L217.1 272.35Q213.65 303 226.1 333.55Q229.4 341.7 238 344.2Q260 350.7 280.45 338.85Q293.25 331.45 300.45 318.95L300.7 318.2L300.95 317.45L301.25 316Q301.5 314.75 302.15 313.65Q302.8 312.65 303.95 312.2Q307.05 312.8 307.9 316.1Q309.75 323.35 305.95 329.7Q305.1 331.1 304.7 332.7Q281.95 364.55 242.05 361.65Q235.95 361.2 231.45 357Q207.2 334.45 208.15 299.2Q208.7 278.95 211.6 259.4Q219.05 209.45 259.9 183.4Q263.8 180.95 267.95 180" />
</g>
</svg>
