<?xml version="1.0" encoding="utf-8"?>
<svg version="1.1" id="Layer_1"
xmlns="http://www.w3.org/2000/svg"
xmlns:xlink="http://www.w3.org/1999/xlink"


xml:space="preserve">
q-12.05 19.35 -22.25 40.8q-19.1 40.15 -33.55 82q-5 14.55 -14.5 26.6q-1.5 1.85 -2.65 3.7q0.55 -16.55 1.95 -33q5.05 -59.35 2 -118.6q-3.45 29.1 -5.2 60.15q-2.55 44.2 -2.85 88.6q-1.2 4.65 -0.2 9q-1.45 49.1 -7.65 97.25q-2.3 17.5 5.55 29.2q6.4 -57.6 6.1 -117.7q11.15 -17.7 18.65 -37.55q3.85 -10.2 7.95 -20.3q4.5 51.7 13.75 103.05q5.3 29.2 8.45 58.65q1.8 17.35 11.35 28.1q1.2 -1.2 0.95 -2.9q-6.25 -40.1 -13.2 -81.15q-9.4 -55.7 -19.45 -110.4q17.3 -42.25 38.65 -83q7.4 -14.2 6.3 -27.5q-0.6 -0.45 -1.4 -0.8q-2.2 8.2 -2.5 17.35q-5.95 25.65 -11.7 52.4q-3.2 14.65 -8.8 28.45q-6.35 15.7 -2.5 30q6.25 -5.95 8.35 -15.55q9.75 -45.05 20.3 -89.8q2.5 59.8 11.95 118.55q1.2 7.5 0.75 14.9q-0.8 13.2 5.25 20.8q4.65 -26.6 -0.8 -54.05q-10.95 -55.25 -13.7 -112.05q1.55 -4.15 -1 -7.5q2.45 -4.1 -0.1 -6.5q9.25 -38.15 14.1 -75.95q2.55 41.85 4.5 83.9q-11.8 2.15 -22.4 7.9q-15.8 21.35 -40.35 22.35q-11.75 1 -21.95 -5q-5.9 -3.45 -10.15 -8.85q-1.8 -2.35 -3.35 -4.95q-1.65 -2.8 -2.8 -5.65q-1.25 -3.1 -2.2 -6.3q-1.05 -3.45 -1.65 -7.1q-6.3 -43 -2.15 -86.15q37.45 -0.4 74.3 -7.2q-35.7 -6.9 -73 9.25q-1.8 -61.55 26.2 -113.8q9.5 -17.65 28.6 -22.5q10.25 -2.7 19.9 2.15q2.95 -16.35 -9.45 -25.9q-1.3 -1 -3.05 -1.35q-44.1 2.35 -55.7 46.6q-18.8 71.9 -21.2 146.45q-1.15 36.85 3.85 73.4q0.95 6.85 3.55 13.3q2.65 6.5 6.3 12q3.85 5.75 8.55 10.55q5 5.05 10.95 9.1q3.3 2.25 6.9 3.95q7.5 3.5 15.8 2.3q13.65 -1.8 24.75 -10.3q13.55 -10.35 14.55 -26.85q0.1 -1.45 -0.85 -1.8q-1.9 36.3 -5.75 72.65q-3.35 31.9 -5.95 63.85q-3.2 6.4 1.1 11.7q-3.4 70 -15.95 138.9q-0.75 4 -0.7 8.1q0.6 7.35 4 13.8q11.9 -76.25 16 -153.15q0.3 -5.5 0.9 -11q8.25 4.8 15.95 -0.65q3.55 -2.45 6.7 -5.3q15.9 74.6 33.8 148.9q1.4 5.75 3.9 11.05q2.1 4.1 4.95 5.2q-6.65 -49.05 -20.9 -97.15q22.05 -22.25 28.4 -52.9q1.85 -9.1 2.05 -18.5q0.15 -6 -0.3 -11.95q-2.55 -34.6 -26.2 -60.25q14.35 7.65 21.6 23.2q13.5 29 3.65 57.5q-8.8 25.5 -25.7 45.1q-1.45 -0.1 -1.2 1.4q-8.25 1.55 -15.95 -0.5q1.55 -12.45 3.45 -24.8q8.6 -55.05 5.55 -109.9q7.45 -1.9 14.5 1.85q-19.4 3.8 -39.25 3.4q-4.25 81.55 -2.8 163.1q-0.4 1.7 -0.55 3.45q-0.1 1.55 0.25 3.05q0.3 1.5 1.1 2.85q4.9 -29.25 3.6 -59.3q-2.55 -58.45 -0.1 -116.7q30.95 4.45 61.75 -0.85q1.6 -6.9 -4.65 -7.85q-27.7 -4.85 -56.85 0.4q-0.85 -53.05 4.2 -105.55q3.2 -4.1 -1.4 -6.75q-12.3 -7.1 -26.6 -7.45<g id="1067" transform="matrix(1, 0, 0, 1, -60.1, 0)">
<path style="fill:#000000;fill-opacity:1" d="M495.9,114Q474.55 154.75 457.25 197Q467.3 251.7 476.7 307.4Q483.65 348.45 489.9 388.55Q490.15 390.25 488.95 391.45Q479.4 380.7 477.6 363.35Q474.45 333.9 469.15 304.7Q459.9 253.35 455.4 201.65Q451.3 211.75 447.45 221.95Q439.95 241.8 428.8 259.5L428.8 266.5Q429.1 326.6 422.7 384.2Q414.85 372.5 417.15 355Q423.35 306.85 424.8 257.75Q423.8 253.4 425 248.75L425.15 236.75Q425.45 192.35 428 148.15Q429.75 117.1 433.2 88Q436.25 147.25 431.2 206.6Q429.8 223.05 429.25 239.6Q430.4 237.75 431.9 235.9Q441.4 223.85 446.4 209.3Q460.85 167.45 479.95 127.3Q490.15 105.85 502.2 86.5Q503.3 99.8 495.9 114M381.95,93.05Q384.5 95.45 382.05 99.55L381.7 100.25L386.75 212.25L397.2 211.5Q399.75 214.85 398.2 219L397.95 219.75L387.2 222.85Q389.95 279.65 400.9 334.9Q406.35 362.35 401.7 388.95Q395.65 381.35 396.45 368.15Q396.9 360.75 395.7 353.25Q386.25 294.5 383.75 234.7L383.3 223.95L358.1 230.4Q347.55 275.15 337.8 320.2Q335.7 329.8 329.45 335.75Q325.6 321.45 331.95 305.75Q337.55 291.95 340.75 277.3L365.75 161.5Q371.5 134.75 377.45 109.1Q377.75 99.95 379.95 91.75Q380.75 92.1 381.35 92.55L382.2 89L381.95 93.05M360.4,220.75Q371 215 382.8 212.85Q380.85 170.8 378.3 128.95Q373.45 166.75 364.2 204.9L360.4 220.75M331.75,361Q330.75 377.5 317.2 387.85Q306.1 396.35 292.45 398.15Q284.15 399.35 276.65 395.85Q273.05 394.15 269.75 391.9Q263.8 387.85 258.8 382.8Q254.1 378 250.25 372.25Q246.6 366.75 243.95 360.25Q241.35 353.8 240.4 346.95Q235.4 310.4 236.55 273.55Q238.95 199 257.75 127.1Q269.35 82.85 313.45 80.5L314.95 82Q316.7 82.35 318 83.35Q330.4 92.9 327.45 109.25L323.45 97.75L320.5 96.25Q310.85 91.4 300.6 94.1Q281.5 98.95 272 116.6Q244 168.85 245.8 230.4Q283.1 214.25 318.8 221.15L319.2 230.5Q282.35 237.3 244.9 237.7L244.25 244.4Q240.1 287.55 246.4 330.55L248.45 343.7Q249.05 347.35 250.1 350.8Q251.05 354 252.3 357.1Q253.45 359.95 255.1 362.75Q256.65 365.35 258.45 367.7Q262.7 373.1 268.6 376.55Q278.8 382.55 290.55 381.55Q315.1 380.55 330.9 359.2Q331.85 359.55 331.75 361M180.3,78.3L186.95 75.25L201.35 78.2Q225 103.85 227.55 138.45Q228 144.4 227.85 150.4Q227.65 159.8 225.8 168.9Q219.45 199.55 197.4 221.8L220.15 298.65Q234.4 346.75 241.05 395.8Q238.2 394.7 236.1 390.6L232.8 383.95Q230.3 378.65 228.9 372.9Q211 298.6 195.1 224L193 225.85Q189.85 228.7 186.3 231.15Q178.6 236.6 170.35 231.8Q169.75 237.3 169.45 242.8Q165.35 319.7 153.45 395.95Q150.05 389.5 149.45 382.15L149.25 376.55Q149.2 372.45 149.95 368.45Q162.5 299.55 165.9 229.55L163.8 227.7Q159.5 222.4 162.7 216L165.75 215.8L166.25 216.25Q168.85 184.3 172.2 152.4Q176.05 116.05 177.95 79.75L179.7 78.65L180.25 77.75L180.3 78.3M180.75,85.3Q183.8 140.15 175.2 195.2Q173.3 207.55 171.75 220Q179.45 222.05 187.7 220.5L193.4 214.55L193 212.4Q192.75 210.9 194.2 211L194.8 212.95Q211.7 193.35 220.5 167.85Q230.35 139.35 216.85 110.35Q209.6 94.8 195.25 87.15Q188.2 83.4 180.75 85.3M118.35,77.35L126.2 77.05Q140.5 77.4 152.8 84.5Q157.4 87.15 154.2 91.25L75.5 91.5L74.9 100.5Q69.85 153 70.7 206.05Q99.85 200.8 127.55 205.65Q133.8 206.6 132.2 213.5Q101.4 218.8 70.45 214.35Q68 272.6 70.55 331.05Q71.85 361.1 66.95 390.35L63.45 390.7L61.55 388.05Q60.75 386.7 60.45 385.2Q60.1 383.7 60.2 382.15Q60.35 380.4 60.75 378.7L62.95 376.7Q61.5 295.15 65.75 213.6L63.5 212.5L63.95 206.5L66 206.35L70.4 90.3L69.85 90.1L69.45 89.5L69.45 81.25L73.7 81.4Q93.55 81.8 112.95 78L118.35 77.35" />
</g>
</svg>
