<?xml version="1.0" encoding="utf-8"?>
<svg version="1.1" id="Layer_1"
xmlns="http://www.w3.org/2000/svg"
xmlns:xlink="http://www.w3.org/1999/xlink"


xml:space="preserve">
q-0.5 1.1 -0.85 2.3q-17.4 57.95 -18.65 119.2q-1.15 58.85 -1.25 117.75q0 18.35 -1.7 36.55q-2.45 26.05 16.45 40.4q26.55 3.9 43.8 -19.9q10.3 -14.2 0.7 -24.35q-16.2 25 -41.9 16.1q-1.65 -1.35 -1.85 -3.5q-4.7 -48.6 -4.7 -98.2q0 -20.85 0.7 -41.55q18.05 -0.45 36.1 -3.95q3.8 -8.3 -2.55 -13q1.35 -32.85 4.4 -65.3q2.55 -27.55 24.6 -41.05q19.2 -3.5 25.25 12.25q2.55 -24.25 -22.4 -25.5q-9.45 4.5 -16.5 12q-5.9 36.3 -15.95 71.55q-16.35 57.6 -32.1 115.15q-4.05 14.75 -10.05 28.65q-9.55 22.15 -6.6 43.35q41.65 -5.3 82.75 -5.75q3.9 -8.45 -1.2 -15.75q8.1 -26.35 15.55 -53.3q15.55 -57.2 29.35 -114.55q1.75 -7.4 4.6 -14.25q6.2 -15 4.25 -29.1q-38.6 1.4 -77.75 6.5q-0.7 3 0.2 6q9.9 3.45 21.2 1.7q26.35 -4.05 48.05 -0.45q-18.35 7.15 -25.7 25.8q-11.25 28.65 -15.55 59.15q-8.35 58.95 -10.2 119.05q-1.85 59.35 5.6 117.1q3.65 28.05 32 29.65q17.65 1 28.4 -13.25q4.35 -5.85 9.25 -11q16.35 -17.3 9.2 -36.3q-3.65 3.9 -6.15 8.8q-10.25 20.2 -28.35 33.95q-14 0.9 -27.75 -1.75q-0.75 -0.6 -1.25 -1.4q-13.1 -20.9 -14.25 -47q-2 -44.55 -1 -89.3q0.2 -8.85 0.55 -17.6q22.9 -4.3 45 -7.75q2.35 -6.5 -1.4 -11.95q-23.45 0.85 -44.25 9.8q2.15 -44.7 8.3 -88.5q4.95 -35.4 28.45 -61.3q9.1 -3.1 17.9 0.55q8.15 3.35 13.4 8.45q1.15 -8.15 -3.15 -15.2q-2.05 -3.35 -5.1 -5.8q-9.3 -3.35 -19.55 -2.15q-7.05 -20.5 -25.85 -30.75q-11 -5.9 -22.55 -2.1q-0.4 1.4 -0.5 2.85q-0.05 1.3 0.45 2.6q0.7 1.7 1.65 3.4q-8.15 83.9 -20.85 167q-1.65 10.6 0 21.35q13.15 -44.05 16.9 -95.45q3.25 -44.1 8.45 -88q3.6 2.65 8.35 2.4q7.4 -0.8 13.6 -5.2q13.55 81.7 31.55 162.65q3.95 17.65 9.9 34.7q3.9 -23.3 -1.4 -47.4q-16.9 -76.7 -35.6 -153.15q17.55 -13.55 28.95 -32.7q18.1 -30.5 15.5 -65.65q-0.55 -7.25 -2.2 -14.45q-0.7 20.15 -8.65 38.55q-8.8 20.5 -26.4 33.8q-13.65 10.25 -29.65 12.95q7.55 -73.4 14.2 -147.7q21.4 4.2 33.15 25.35q10.75 19.35 9.95 41.6q-4.55 3.85 -4.55 11.25q0.15 20.35 -1.15 40.6q-2.85 44.35 -8.7 88.15q-2.2 16.75 2.65 29.5q5 -25.25 6.25 -51.8q-32.55 -12 -66.8 -7.35q-1.6 122.3 -9.4 244.65q-3.1 49 -0.4 97.6q0.25 4.15 2.2 6.35q7.55 -99.3 10.35 -199.9q22.95 3.95 46.35 3.45q2.55 -4.2 0.95 -9q-22.7 -3.5 -45.6 -1.55q4.7 -69.55 -1.05 -138.95q5.2 3.2 9.65 4.8q-5.15 -25.05 -28.9 -15.5q-15.85 6.45 -19.55 23.35q-4 18.2 -6.75 36.6q-2.75 18.65 -4.1 37.3q-1.5 20.95 -0.4 42.05q1.2 22.6 15.9 38.6q10.45 11.3 25.25 4.3q22.8 -10.95 19.8 -34.95q-13.05 31.3 -38.55 15.2q-9.5 -6 -10.8 -17.4q-3.1 -27.6 -0.7 -55.35q21.15 5.75 41.3 -2.4q2.5 -4.2 0.65 -8.65q-0.75 -1.9 -2.35 -3.05q-0.95 -46.9 31.3 -71q5.4 -4 11.9 0.1<g id="1061" transform="matrix(1, 0, 0, 1, -47.6, 0)">
<path style="fill:#000000;fill-opacity:1" d="M512.95,86.75L516.95 84.75Q541.9 86 539.35 110.25L539.2 111Q533.15 95.25 513.95 98.75Q491.9 112.25 489.35 139.8L485.95 176.75Q482.9 209.2 481.55 242.05L514.95 235.25Q521.3 239.95 517.5 248.25L517.2 249Q499.15 252.5 481.1 252.95Q480.4 273.65 480.4 294.5Q480.4 344.1 485.1 392.7Q485.3 394.85 486.95 396.2Q512.65 405.1 528.85 380.1L534.95 370.7Q544.55 380.85 534.25 395.05Q517 418.85 490.45 414.95Q471.55 400.6 474 374.55Q475.7 356.35 475.7 338Q475.8 279.1 476.95 220.25Q478.2 159 495.6 101.05Q495.95 99.85 496.45 98.75Q503.5 91.25 512.95 86.75M416.9,95.2Q405.6 96.95 395.7 93.5Q394.8 90.5 395.5 87.5L395.7 86.75Q434.85 81.65 473.45 80.25Q475.4 94.35 469.2 109.35Q466.35 116.2 464.6 123.6Q450.8 180.95 435.25 238.15L404 352.4Q396.55 379.35 388.45 405.7L462.45 400.95Q467.55 408.25 463.65 416.7L463.2 417.45Q422.1 417.9 380.45 423.2Q377.5 402 387.05 379.85Q393.05 365.95 397.1 351.2Q412.85 293.65 429.2 236.05L449 166.3Q459.05 131.05 464.95 94.75Q443.25 91.15 416.9 95.2M360.5,80.65L362.45 81.25Q365.5 83.7 367.55 87.05Q371.85 94.1 370.7 102.25Q365.45 97.15 357.3 93.8Q348.5 90.15 339.4 93.25L332.95 95Q309.45 120.9 304.5 156.3Q298.35 200.1 296.2 244.8Q317 235.85 340.45 235Q344.2 240.45 341.85 246.95L341.45 247.75Q319.35 251.2 296.45 255.5L295.75 254.4Q295.4 263.15 295.2 272Q294.2 316.75 296.2 361.3Q297.35 387.4 310.45 408.3Q310.95 409.1 311.7 409.7Q325.45 412.35 339.45 411.45Q357.55 397.7 367.8 377.5Q370.3 372.6 373.95 368.7Q381.1 387.7 364.75 405Q359.85 410.15 355.5 416Q344.75 430.25 327.1 429.25Q298.75 427.65 295.1 399.6Q287.65 341.85 289.5 282.5Q291.35 222.4 299.7 163.45Q304 132.95 315.25 104.3Q322.6 85.65 340.95 78.5Q351.2 77.3 360.5 80.65M215.9,138.55Q218.5 173.7 200.4 204.2Q189 223.35 171.45 236.9Q190.15 313.35 207.05 390.05Q212.35 414.15 208.45 437.45Q202.5 420.4 198.55 402.75Q180.55 321.8 167 240.1L164.75 241.7Q158.55 246.1 151.15 246.9Q146.4 247.15 142.8 244.5Q137.6 288.4 134.35 332.5Q130.6 383.9 117.45 427.95Q115.8 417.2 117.45 406.6Q130.15 323.5 138.3 239.6Q137.35 237.9 136.65 236.2Q136.15 234.9 136.2 233.6Q136.3 232.15 136.7 230.75L139.45 229.3L155.7 75.25L157 74.15L158.2 68.5L159.95 72.7Q171.5 68.9 182.5 74.8Q201.3 85.05 208.35 105.55L210.8 113.1L211.9 116.75L212.85 120.45L213.7 124.1Q215.35 131.3 215.9 138.55M200.75,107.6Q189 86.45 167.6 82.25L159.5 83.1Q152.85 157.4 145.3 230.8L146 234.5Q162 231.8 175.65 221.55Q193.25 208.25 202.05 187.75Q210 169.35 210.7 149.2Q211.5 126.95 200.75 107.6M239.7,193.45Q238.45 220 233.45 245.25Q228.6 232.5 230.8 215.75Q236.65 171.95 239.5 127.6Q240.8 107.35 240.65 87Q240.65 79.6 245.2 75.75L239.7 193.45M133.2,84.5L62.2 77.95Q67.95 147.35 63.25 216.9Q86.15 214.95 108.85 218.45L109.1 218.85L109.9 220.3L110.15 221Q111.75 225.8 109.2 230Q85.8 230.5 62.85 226.55Q60.05 327.15 52.5 426.45Q50.55 424.25 50.3 420.1Q47.6 371.5 50.7 322.5Q58.5 200.15 60.1 77.85L58.55 77L59.05 69.2L59.25 69.1L61.25 68L66.05 67.85Q100.3 63.2 132.85 75.2L133.2 84.5M250.15,254.35Q217.9 278.45 218.85 325.35L257.75 318.8Q259.35 319.95 260.1 321.85Q261.95 326.3 259.45 330.5Q239.3 338.65 218.15 332.9Q215.75 360.65 218.85 388.25Q220.15 399.65 229.65 405.65Q255.15 421.75 268.2 390.45L272.45 388.2L272.95 391Q275.95 415 253.15 425.95Q238.35 432.95 227.9 421.65Q213.2 405.65 212 383.05Q210.9 361.95 212.4 341Q213.75 322.35 216.5 303.7Q219.25 285.3 223.25 267.1Q226.95 250.2 242.8 243.75Q266.55 234.2 271.7 259.25Q267.25 257.65 262.05 254.45Q255.55 250.35 250.15 254.35" />
</g>
</svg>
