<?xml version="1.0" encoding="utf-8"?>
<svg version="1.1" id="Layer_1"
xmlns="http://www.w3.org/2000/svg"
xmlns:xlink="http://www.w3.org/1999/xlink"


xml:space="preserve">
q-11.05 52 -20.45 105.1q-3.2 18 -8.05 35.5q-6.35 22.85 -3.2 44q6.5 -5 8.05 -14.75q9.3 -58.3 21.45 -116.1q1.7 -8.05 2.75 -16q1.75 19.55 6.7 39.2q3.4 13.35 4.05 27q0.6 13.25 7.25 20.15q1.9 -0.65 2.4 -2.75q9.2 -40.75 20.25 -81.35q1.9 -7.05 3.1 -14q5.6 50.95 12.7 101.8q2.05 14.7 3.25 29.45q1.3 16.2 7.8 28.35q3.05 -3.9 2.55 -9q-3.15 -29.8 -7.2 -59.45q-7.95 -58.1 -17.3 -115.1q-12.35 35 -20.2 73.45q-2.6 12.75 -6.85 25q-1.2 3.5 -1.9 6.85q-0.1 -7 -0.7 -13.95q-1.8 0.1 -1.9 2.25q-0.55 1.55 -0.65 3.25q-0.05 1.7 0.4 3.3q0.7 2.75 3.25 1.5q5 -35.65 6.85 -71.9q0.8 -16 1.05 -31.9q3.25 -4.45 2 -10.25q-0.3 -1.2 -1.05 -2.2q-0.35 -0.4 -0.75 -0.4q0 -30.8 -2.1 -61.35q32.25 -0.1 64.8 -0.75q3.55 -3.75 2.35 -9.05q-0.35 -1.55 -1.1 -2.95q-16.6 7.85 -26.65 23.2q-32.35 49.4 -25.6 107.65q2.45 20.95 11.5 40.3q10.45 22.25 34.9 15.8q18.35 -4.8 34.3 -15.3q18.2 -11.95 10.75 -29.3q-20.05 21.35 -48.85 29.55q-15.5 4.45 -23.45 -8.3q-12.2 -19.45 -13.6 -43.15q-0.7 -12.15 0.65 -23.75q11.45 0.5 22.85 0.1q-2.6 9.25 -4.1 18.8q5.75 -3.35 7.85 -12.5q0.75 -3.35 1.9 -6.55q4.45 13.15 12.5 25.15q1.2 -1.2 0.75 -2.75q11.15 -1.4 22.25 -3.65q4.7 -7.85 -0.6 -14.9q-4.25 0 -8.15 1.1q-7.15 2 -14.65 2.5q-0.6 -0.2 -0.6 0.25q-5.3 9.6 -9.2 19.6q-13.35 1.4 -26.2 3.6q5.45 -26 21.55 -49.25q5.3 -7.7 12.85 -13.15q29.8 -21.5 54.65 5.25q0.8 -1.85 0.65 -3.75q-0.35 -4.75 -2.5 -8.95q-0.75 -1.45 -1.15 -3.05q-14.8 -14.05 -35.5 -13.5q1.7 -5.3 2.4 -10.5q0.4 5.15 1.25 10.2<g id="1054" transform="matrix(1, 0, 0, 1, -141, 0)">
<path style="fill:#000000;fill-opacity:1" d="M347.15,193.95L363.25 286.3Q363.95 282.95 365.15 279.45Q369.4 267.2 372 254.45Q379.85 216 392.2 181L392.5 186.9Q401.85 243.9 409.8 302Q413.85 331.65 417 361.45Q417.5 366.55 414.45 370.45Q407.95 358.3 406.65 342.1Q405.45 327.35 403.4 312.65Q396.3 261.8 390.7 210.85Q389.5 217.8 387.6 224.85Q376.55 265.45 367.35 306.2Q366.85 308.3 364.95 308.95L364.5 307.75L363.45 309.2Q356.8 302.3 356.2 289.05Q355.55 275.4 352.15 262.05Q347.2 242.4 345.45 222.85Q344.4 230.8 342.7 238.85Q330.55 296.65 321.25 354.95Q319.7 364.7 313.2 369.7Q310.05 348.55 316.4 325.7Q321.25 308.2 324.45 290.2Q333.85 237.1 344.9 185.1L344.95 184.25L345.1 184.25L345.95 180.1L346.45 180Q347.05 186.95 347.15 193.95M215.45,179.05L216.2 179.5Q216.95 180.9 217.3 182.45Q218.5 187.75 214.95 191.5Q182.4 192.15 150.15 192.25Q152.25 222.8 152.25 253.6L200.45 255.35Q200.85 255.35 201.2 255.75Q201.95 256.75 202.25 257.95L202.45 258.75Q203.7 264.55 200.45 269L152.15 266.65Q151.9 282.55 151.1 298.55Q149.25 334.8 144.25 370.45Q141.7 371.7 141 368.95L145.05 250.45L147.1 189.55Q146.65 187.95 146.7 186.25Q146.8 184.55 147.35 183L147.35 182.25Q147.45 180.1 149.25 180L149.45 182.3L203.95 177.75L215.45 179.05M267.95,180Q288.65 179.45 303.45 193.5L304.2 194.25Q304.6 195.85 305.35 197.3Q307.5 201.5 307.85 206.25Q308 208.15 307.2 210Q282.35 183.25 252.55 204.75Q245 210.2 239.7 217.9Q223.6 241.15 218.15 267.15Q231 264.95 244.35 263.55Q248.25 253.55 253.55 243.95L253.6 240.5Q253.6 240.05 254.2 240.25L260.65 262.15L264.65 261.85Q272.15 261.35 279.3 259.35Q283.2 258.25 287.45 258.25Q292.75 265.3 288.05 273.15L287.45 273.7Q276.35 275.95 265.2 277.35L272.2 300.45Q272.65 302 271.45 303.2Q263.4 291.2 258.95 278.05L244.7 279.15Q243.55 282.35 242.8 285.7Q240.7 294.85 234.95 298.2Q236.45 288.65 239.05 279.4Q227.65 279.8 216.2 279.3Q214.85 290.9 215.55 303.05Q216.95 326.75 229.15 346.2Q237.1 358.95 252.6 354.5Q281.4 346.3 301.45 324.95Q308.9 342.3 290.7 354.25Q274.75 364.75 256.4 369.55Q231.95 376 221.5 353.75Q212.45 334.4 210 313.45Q203.25 255.2 235.6 205.8Q245.65 190.45 262.25 182.6L267.95 180M255.05,262.55Q254.2 257.5 253.8 252.35Q253.1 257.55 251.4 262.85L255.05 262.55" />
</g>
</svg>
