<?xml version="1.0" encoding="utf-8"?>
<svg version="1.1" id="Layer_1"
xmlns="http://www.w3.org/2000/svg"
xmlns:xlink="http://www.w3.org/1999/xlink"


xml:space="preserve">
q-9.35 0.65 -18.65 2.4q-1.05 1.7 -1.15 3.75q-0.2 3.4 1.65 6q-2.05 59.3 -5.85 118.55q-3.85 59.35 -10.75 118.25q-2 16.9 4.25 29.45q4.75 -21.2 6.2 -44.1q17.3 -1.95 29.95 -10.6q6.15 35.5 16.8 71.05q17 56.85 33.05 111.85q4.25 -3.8 2.9 -10.15q-7.3 -35.1 -17.4 -69.95q-15.4 -52.8 -32.15 -105.15q13.75 -10.95 21.3 -30.7q2.25 -5.9 3.6 -11.85q11.2 -49.2 -18 -91.15q-7.6 -4 -16 -5.75q-15.8 31.05 -48.75 35.8q3.55 -53.65 2.2 -107.05q34.3 -7.3 45.05 25.8q6.1 18.65 6.8 38.2q0.6 15.35 -6.8 29.8q-6.85 -41.95 -14.75 -83.7q-5.15 -27.15 -8.7 -52.55q-15.55 48.4 -25.7 99.45q-11.65 58.75 -32.35 115.05q-3.95 10.8 -9.5 20.75q-7.1 12.85 0.4 21.5q7.1 -12.6 12 -26.65q13.6 -38.95 23.6 -78.85q18.15 1.6 34.55 -0.85q9.45 43.55 15.1 87.55q4.05 31 15.15 57.5q1.15 -0.85 1.4 -2.25q1.95 -12.05 -0.8 -24.3q-8.7 -38.6 -16.8 -77.45q-4.55 -21.85 -7.95 -43.95q0.85 -4.4 -1.35 -8.45q-19.05 4.9 -34.05 18.4q-28.25 25.4 -37.9 61.7q-15.25 57.55 -13.25 117.85q0.95 29.85 3.4 59.4q3.75 45.7 44.4 66.75q26.4 13.7 53.4 -1.25q15.4 -8.55 28.55 -19.95q15.1 -13.15 9.95 -28.95q-12.95 11.7 -27.15 22.9q-42.2 33.3 -81.8 -0.7q-4.05 -3.4 -6.1 -7.95q-20.25 -44.55 -20.15 -94.45q0.05 -20.05 2 -39.75q30.6 0.65 61.25 -1.4q2.45 -4.7 0.25 -9.7q-0.6 -0.4 -1.25 -0.45q-1.05 0.8 -2.95 1.05q-23.4 3.2 -46 4.9q3.65 -31.7 12.2 -62.5q15.55 -56 70.5 -72.2q2.35 1.8 4.2 4.15q0.25 0.4 0.75 0.65q1.25 -4.9 -0.15 -9.7q-2.05 -6.9 -7.1 -12.05q-9.95 -2.65 -19.8 1.05q-1.75 101.55 -3.05 204.5q-0.55 44.4 -0.3 88.9q0.15 22 0.65 43.25q0 1.1 0.7 2.2q3.9 -6 0.4 -12.05q38.7 6.3 76.5 7.25q-1.45 -18.3 -26.6 -15.65q-17.25 2.15 -34.25 -2.4<g id="1065" transform="matrix(1, 0, 0, 1, -59.45, 0)">
<path style="fill:#000000;fill-opacity:1" d="M435.95,88.25L437.2 89Q466.4 130.95 455.2 180.15Q453.85 186.1 451.6 192Q444.05 211.75 430.3 222.7Q447.05 275.05 462.45 327.85Q472.55 362.7 479.85 397.8Q481.2 404.15 476.95 407.95Q460.9 352.95 443.9 296.1Q433.25 260.55 427.1 225.05Q414.45 233.7 397.15 235.65L391.65 320.1Q390.2 343 385.45 364.2Q379.2 351.65 381.2 334.75Q388.1 275.85 391.95 216.5Q395.75 157.25 397.8 97.95L397.95 95.4L397.45 95.5Q395.6 92.9 395.8 89.5Q395.9 87.45 396.95 85.75L400.3 85.1L401.2 83L401.3 84.9Q410.6 83.15 419.95 82.5Q428.35 84.25 435.95 88.25M453.45,158.55Q452.75 139 446.65 120.35Q435.9 87.25 401.6 94.55Q402.95 147.95 399.4 201.6L397.9 224.15Q430.85 219.4 446.65 188.35Q454.05 173.9 453.45 158.55M340.2,225Q342.4 229.05 341.55 233.45L345.3 257.5Q348.7 279.6 353.25 301.45Q361.35 340.3 370.05 378.9Q372.8 391.15 370.85 403.2Q370.6 404.6 369.45 405.45Q358.35 378.95 354.3 347.95Q348.65 303.95 339.2 260.4L334.45 237.35Q318.05 239.8 299.9 238.2L283.3 237.7Q273.3 277.6 259.7 316.55Q254.8 330.6 247.7 343.2Q240.2 334.55 247.3 321.7Q252.85 311.75 256.8 300.95Q277.5 244.65 289.15 185.9Q299.3 134.85 314.85 86.45L315.4 85.65L315.95 83.5L316.2 85.25L316.7 86.75L316.95 87.5L316.7 88.7Q320.25 114.1 325.4 141.25Q333.3 183 340.15 224.95L340.2 225M328.4,203.25L313.4 102.65L285.75 227.65L331.9 223.75L328.4 203.25M252.3,94.3Q253.7 99.1 252.45 104Q251.95 103.75 251.7 103.35L249.95 100.4L249.2 98.25Q247.35 95.9 245 94.1L239.7 90L237.55 89.55L235 88.45L234.7 88.25Q179.75 104.45 164.2 160.45Q155.65 191.25 152 222.95Q174.6 221.25 198 218.05Q199.9 217.8 200.95 217L221.7 218.05Q222.35 218.1 222.95 218.5L223.4 219.25Q225.6 224.25 223.15 228.95L222.7 229.75Q192.05 231.8 161.45 231.15L151.25 230Q149.3 249.7 149.25 269.75Q149.15 319.65 169.4 364.2Q171.45 368.75 175.5 372.15Q215.1 406.15 257.3 372.85Q271.5 361.65 284.45 349.95Q289.6 365.75 274.5 378.9Q261.35 390.3 245.95 398.85Q218.95 413.8 192.55 400.1Q151.9 379.05 148.15 333.35Q145.7 303.8 144.75 273.95Q142.75 213.65 158 156.1Q167.65 119.8 195.9 94.4Q210.9 80.9 229.95 76L235.45 76.25L241.15 79.8L245.2 82.25Q250.25 87.4 252.3 94.3M117.1,71.35Q142.25 68.7 143.7 87L143.35 87.6Q105.55 86.65 66.85 80.35L67.45 212.75L119.85 216.2Q123.35 222.25 119.45 228.25L67.25 223.2L64.7 412.95L63.65 412.05L62.65 411L61.05 408.85Q60.35 407.75 60.35 406.65Q59.85 385.4 59.7 363.4Q59.45 318.9 60 274.5Q61.3 171.55 63.05 70Q72.9 66.3 82.85 68.95Q99.85 73.5 117.1 71.35" />
</g>
</svg>
