<?xml version="1.0" encoding="utf-8"?>
<svg version="1.1" id="Layer_1"
xmlns="http://www.w3.org/2000/svg"
xmlns:xlink="http://www.w3.org/1999/xlink"


xml:space="preserve">
q0.7 -14.4 -6.05 -21.05q-1.5 47.95 0.85 96.7q1.3 26.5 -5.65 51.4q-7.15 25.45 -35.45 20.45q-6.8 -1.2 -8.95 -7.45q-7.3 -21.2 -5.5 -44.5q4.6 -59.75 4.2 -118.35q-5.45 18.1 -6.3 39.4q-2.35 59 -1.85 118.55q0.3 31.8 33.9 29.5q24.25 -8.6 27.45 -34.25q6.2 -49.9 3.45 -100.45q-0.85 -15.05 -0.1 -29.95q30.1 3.95 61 -0.7q1.4 -1.15 1.9 -2.95q1.7 -6.4 -2.15 -11.3q-18.85 -2.5 -28.8 7.6q2.45 -27.7 3.4 -55.95q1 -29.8 3.75 -59.15q2.85 -30.55 -1.35 -59.35q-4.5 32.2 -6.4 67.45q-3.15 59 -3.85 117.75q0.75 2.8 3.25 1.5q-43.1 4.3 -86.45 1.25q-7.45 61.3 -9.25 123.15q-0.45 11.05 4.6 20.8q7.15 -55.25 7.25 -111q0.05 -28.1 0.85 -56.15q3 -4.95 0.4 -10.4q0.75 -29.45 -0.7 -58.8q-5.45 20.8 -5.95 43.15q-0.4 16.25 -1.3 32.55q-0.85 18.5 -1.25 36.95q-0.2 9.2 3.35 6.85q4.55 -18.15 5.7 -36.95q1.3 -21.25 1.9 -42.3q8.1 -41.35 10.9 -87.6q1.3 -22.05 1.85 -44.35<g id="1104" transform="matrix(1, 0, 0, 1, -139.75, 0)">
<path style="fill:#000000;fill-opacity:1" d="M334.85,233Q337.6 283.55 331.4 333.45Q328.2 359.1 303.95 367.7Q270.35 370 270.05 338.2Q269.55 278.65 271.9 219.65Q272.75 198.35 278.2 180.25Q278.6 238.85 274 298.6Q272.2 321.9 279.5 343.1Q281.65 349.35 288.45 350.55Q316.75 355.55 323.9 330.1Q330.85 305.2 329.55 278.7Q327.2 229.95 328.7 182Q335.45 188.65 334.75 203.05Q334 217.95 334.85 233M355.2,367.45Q352.7 368.75 351.95 365.95Q352.65 307.2 355.8 248.2Q357.7 212.95 362.2 180.75Q366.4 209.55 363.55 240.1Q360.8 269.45 359.8 299.25Q358.85 327.5 356.4 355.2Q366.35 345.1 385.2 347.6L398 348.05L412.95 347.45L416.45 347.7Q420.3 352.6 418.6 359Q418.1 360.8 416.7 361.95Q385.8 366.6 355.7 362.65L355.2 367.45M226.9,196.7L185.85 200.3Q185.05 228.35 185 256.45Q184.9 312.2 177.75 367.45Q172.7 357.7 173.15 346.65L174 323.4Q175.8 261.55 183.25 200.25L139.75 195.75L140 186Q183.35 189.05 226.45 184.75L227.3 186.3Q229.9 191.75 226.9 196.7M251.05,287.15Q248.25 333.4 240.15 374.75L241.9 290.35L217.8 289.35Q217.2 310.4 215.9 331.65Q214.75 350.45 210.2 368.6Q206.65 370.95 206.85 361.75Q207.25 343.3 208.1 324.8L210.2 283.45Q211.1 267.15 211.5 250.9Q212 228.55 217.45 207.75L218.05 278.5L241.9 277.95L252.2 184Q253.65 213.35 252.9 242.8Q252.35 265.1 251.05 287.15" />
</g>
</svg>
