<?xml version="1.0" encoding="utf-8"?>
<svg version="1.1" id="Layer_1"
xmlns="http://www.w3.org/2000/svg"
xmlns:xlink="http://www.w3.org/1999/xlink"


xml:space="preserve">
q2.5 44.8 3.4 89.95q0.6 32.1 -18.45 57.15q-10.85 14.3 -27.95 5.8q-4.55 -2.3 -5.6 -6.85q-7 -30.7 -3.75 -63.55q1.25 -12.55 2.75 -25.15q4.35 -37.4 0.05 -73.65q-3.3 23.9 -4.65 49.8q-2.3 44 -6.65 87.55q-2.55 25.3 12.3 43.75q3.35 4.15 8.5 4.9q29.4 4.15 39.65 -24.4q12.2 -33.75 10.35 -70.7q-1.5 -29.55 0.4 -59.05q1.1 -17.85 -7.15 -29.1q-3.6 6.1 -3.2 13.55q-3.15 18.1 -5.15 36.65q-2 18.8 -2.55 37.6q-1.25 44.1 -9.7 86.65q-3.3 16.7 1.65 28.55q5.65 -20.6 7.1 -42q4.05 -57.9 11.15 -114.7q1.9 21.5 6.2 42.6q11.8 57.6 20.3 115.6q1.6 1.95 4 0.75q5.1 -6.75 6.15 -15.45q6.95 -58.05 8.8 -117q0.5 -14.7 2.85 -29.1q2.65 -16.1 -2.3 -29.4q-1 0.75 -1.25 1.7q-6.15 24.15 -6.55 50.05q-0.85 58.05 -8.2 114.95q-1.75 -6.55 -2.7 -13.25q-2.8 -19.85 -6.9 -39.45q-12.15 -57.8 -19.9 -115.75q-1.75 -0.25 -3 1q-20.6 -0.2 -40.45 4.45q-3.35 64.95 -8.5 129.9q-1.85 23.2 5.3 45.05q8.45 -48.95 7.9 -98.8q-0.45 -38 -1.95 -76.1q2.3 -1.55 2.95 -4.2q0.05 -2.65 -0.3 -5.25q-0.3 -2.35 -2.1 -3.75q-2.05 12.25 -1.85 24.7q-0.05 -29.7 -1.1 -58.95q-4.7 23 -5.15 48.75q-0.6 36.85 -3.85 73.4q-1.5 16.5 3.75 29.8q4.85 -15.4 5.4 -33.45q0.75 -23.85 0.9 -47.4q-0.05 7.45 -1.45 14.7q-3.5 17.4 3.15 29.25q6.35 -34.3 6.05 -70.45q3.8 -7.2 -0.85 -13.4q-1.2 -46.35 -5.1 -91.8q-1.1 0 -1.3 1.05<g id="1094" transform="matrix(1, 0, 0, 1, -139.35, 0)">
<path style="fill:#000000;fill-opacity:1" d="M334.95,183.5Q343.2 194.75 342.1 212.6Q340.2 242.1 341.7 271.65Q343.55 308.6 331.35 342.35Q321.1 370.9 291.7 366.75Q286.55 366 283.2 361.85Q268.35 343.4 270.9 318.1Q275.25 274.55 277.55 230.55Q278.9 204.65 282.2 180.75Q286.5 217 282.15 254.4Q280.65 267 279.4 279.55Q276.15 312.4 283.15 343.1Q284.2 347.65 288.75 349.95Q305.85 358.45 316.7 344.15Q335.75 319.1 335.15 287Q334.25 241.85 331.75 197.05Q331.35 189.6 334.95 183.5M370.45,180Q378.2 237.95 390.35 295.75Q394.45 315.35 397.25 335.2Q398.2 341.9 399.95 348.45Q407.3 291.55 408.15 233.5Q408.55 207.6 414.7 183.45Q414.95 182.5 415.95 181.75Q420.9 195.05 418.25 211.15Q415.9 225.55 415.4 240.25Q413.55 299.2 406.6 357.25Q405.55 365.95 400.45 372.7Q398.05 373.9 396.45 371.95Q387.95 313.95 376.15 256.35Q371.85 235.25 369.95 213.75Q362.85 270.55 358.8 328.45Q357.35 349.85 351.7 370.45Q346.75 358.6 350.05 341.9Q358.5 299.35 359.75 255.25Q360.3 236.45 362.3 217.65Q364.3 199.1 367.45 181Q368.7 179.75 370.45 180M181.3,178.5L218.45 179.75Q220.25 181.15 220.55 183.5Q220.9 186.1 220.85 188.75L220.65 190.55Q220 193.2 217.7 194.75L181.9 193.3Q183.4 231.4 183.85 269.4Q184.4 319.25 175.95 368.2Q168.8 346.35 170.65 323.15Q175.8 258.2 179.15 193.25L139.35 191.95L140 182.85Q159.85 178.2 180.45 178.4L180.75 176.55L181.3 178.5M248.2,180Q252.1 225.45 253.3 271.8L254.45 271.75Q259.1 277.95 255.3 285.15L254.7 286L253.6 286.1L253.75 298.5Q254.05 334.65 247.7 368.95Q241.05 357.1 244.55 339.7Q245.95 332.45 246 325L245.95 286.55L206.25 285.35Q206.1 308.9 205.35 332.75Q204.8 350.8 199.95 366.2Q194.7 352.9 196.2 336.4Q199.45 299.85 200.05 263Q200.5 237.25 205.2 214.25Q206.25 243.5 206.3 273.2L245.9 271.9L245.05 205.75Q244.85 193.3 246.9 181.05Q247.1 180 248.2 180" />
</g>
</svg>
