<?xml version="1.0" encoding="utf-8"?>
<svg version="1.1" id="Layer_1"
xmlns="http://www.w3.org/2000/svg"
xmlns:xlink="http://www.w3.org/1999/xlink"


xml:space="preserve">
q-9.8 58.15 -17.6 117.25q-1.95 14.65 -5.5 28.9q-3.9 15.55 -1.5 29.35q8.85 -21.95 11.8 -46.15q7.2 -58.85 18.45 -115.55q1.85 33.85 5.25 67.45q1.15 11.3 0.75 22.45q-0.45 12.8 5.5 20.1q18.95 -52.45 28.5 -107q3.9 25.5 9.25 50.7q9.15 43.2 10.8 87.35q0.5 13.55 7.7 20.65q2.35 -37.95 -6.2 -76.45q-12.85 -58.05 -18.3 -116.25q-1 -0.2 -1.2 0.6q-13.15 55.5 -28.8 111.15q-4.75 -26.95 -5.1 -54.5q-0.35 -28.35 -7.4 -54q-5.05 5.85 -6.4 13.95q-36.5 0.65 -72.5 5.75q-0.7 4 1.7 6.75q19.25 -0.05 38.3 -0.55q-2.65 27.35 -3.8 55.5q-2.55 60 -2.25 118.5q3.45 0.9 3.7 -3.05q2.25 -32.15 3.9 -64.4q2.85 -53.7 0.7 -106.6q1.4 -1.25 1.8 -2.95q1.15 -4.75 -1.3 -9.05q-0.35 -0.4 -0.8 -0.5q-0.3 7.65 0.05 15.1q2.9 60 -6.25 118.4q-3.25 20.85 -23.6 21.35q-6.75 0.15 -7.45 -6.15q-5.7 -51.85 -2.15 -104.9q2 -30.4 -2.65 -59.25q-3.55 10.2 -3.55 23.25q0.1 59.05 -2.35 118.45q-1.05 24.95 11.9 44.25q9.35 2.35 15.2 -4.55q22.2 -26.2 22.45 -62.8q0.35 -44.25 2.6 -88.45q0.85 -16.4 -4.5 -30.05q-4.35 5.85 -4.7 14.2q0.6 -39.9 -1.1 -79.2q-3.9 20.85 -4.4 44.25q-1.35 59.6 -4.1 118.45q0.65 1.65 2.25 2q0.75 -0.6 0.9 -1.35q4.3 -21.95 5.3 -44.8q15.6 6 32.85 4.25q0.15 15.1 -2.35 29.75q-2.3 13.6 4.1 22.2q4.1 -39.15 3.75 -79.4q-0.55 -60.3 -2.35 -118.5q-5.75 12.2 -5.5 28q-16.8 1.55 -32.5 -2.8<g id="1090" transform="matrix(1, 0, 0, 1, -138.05, 0)">
<path style="fill:#000000;fill-opacity:1" d="M350.95,181Q358 206.65 358.35 235Q358.7 262.55 363.45 289.5Q379.1 233.85 392.25 178.35Q392.45 177.55 393.45 177.75Q398.9 235.95 411.75 294Q420.3 332.5 417.95 370.45Q410.75 363.35 410.25 349.8Q408.6 305.65 399.45 262.45Q394.1 237.25 390.2 211.75Q380.65 266.3 361.7 318.75Q355.75 311.45 356.2 298.65Q356.6 287.5 355.45 276.2Q352.05 242.6 350.2 208.75Q338.95 265.45 331.75 324.3Q328.8 348.5 319.95 370.45Q317.55 356.65 321.45 341.1Q325 326.85 326.95 312.2Q334.75 253.1 344.55 194.95Q345.9 186.85 350.95 181M216.4,176.75Q216.85 176.85 217.2 177.25Q219.65 181.55 218.5 186.3Q218.1 188 216.7 189.25L181 190.65Q183.15 243.55 180.3 297.25Q178.65 329.5 176.4 361.65Q176.15 365.6 172.7 364.7Q172.4 306.2 174.95 246.2Q176.1 218.05 178.75 190.7Q159.7 191.2 140.45 191.25Q138.05 188.5 138.75 184.5L139.45 181.5Q175.45 176.4 211.95 175.75L216.4 176.75M313.95,180Q319.3 193.65 318.45 210.05Q316.2 254.25 315.85 298.5Q315.6 335.1 293.4 361.3Q287.55 368.2 278.2 365.85L273.2 364.7Q260.25 345.4 261.3 320.45Q263.75 261.05 263.65 202Q263.65 188.95 267.2 178.75Q271.85 207.6 269.85 238Q266.3 291.05 272 342.9Q272.7 349.2 279.45 349.05Q299.8 348.55 303.05 327.7Q312.2 269.3 309.3 209.3Q308.95 201.85 309.25 194.2Q309.6 185.85 313.95 180M235.8,286.75L234.7 207Q234.45 191.2 240.2 179Q242 237.2 242.55 297.5Q242.9 337.75 238.8 376.9L237.95 378.2Q231.55 369.6 233.85 356Q236.35 341.35 236.2 326.25L235.95 299.8Q218.7 301.55 203.1 295.55L202.15 323.3Q201.15 346.15 196.85 368.1Q196.7 368.85 195.95 369.45Q194.35 369.1 193.7 367.45Q196.45 308.6 197.8 249Q198.3 225.6 202.2 204.75Q203.9 244.05 203.3 283.95Q219 288.3 235.8 286.75" />
</g>
</svg>
