<?xml version="1.0" encoding="utf-8"?>
<svg version="1.1" id="Layer_1"
xmlns="http://www.w3.org/2000/svg"
xmlns:xlink="http://www.w3.org/1999/xlink"


xml:space="preserve">
q-0.75 1.85 -0.95 3.8q-1.4 4.35 -1.25 9.7q1.65 59.6 -1.15 119.2q-0.7 15 -3.1 29.75q-2.2 13.55 4.2 21.75q5 -32.6 6.2 -66.7q17.3 4.05 33.85 -0.4q2.8 -6.85 -1.2 -12.75q-16.5 3.15 -32.95 3.25q0.35 -40.9 -2.5 -81.05q28.85 4.9 56.7 -1.65q1.55 -2 1.8 -4.5q0.5 -4.95 -3.05 -8.25q-24.95 7.15 -50.65 5.35q-2.4 38.1 2.05 76.55q3.45 30.45 -6.05 59.3q-12.7 38.45 -52.9 36.75q-3.25 -0.1 -4.4 -2.65q-10.5 -22.45 -8.45 -49.6q4.35 -58.85 5.8 -117.6q-0.45 -1.4 -1.75 -2.25q-2.35 1.15 -2.5 4.45q-3 54.25 -5.05 108.8q-0.45 10.85 -2 21.5q-4.45 30.3 12.8 51.95q14.85 4.4 28.55 -2.4q40.45 -20.2 42.5 -67.1q2.65 -59.95 -7.05 -117.7q-1.2 -0.25 -1.3 0.75q-35 1.2 -69.45 1.5q-1.3 3.75 0.15 7.5q17.2 2.15 34.65 2.7q-3.1 15.1 -2.8 32.05q1.15 59.8 -2.75 119.15q-0.9 13.55 4.9 21.55q4.25 -30.5 4.65 -62.25q0.7 -55.8 -1.75 -110.4q15.95 0.4 32.05 -0.55q3.4 -5.6 -0.05 -11.1q-0.3 7.45 -2 14.65q-4.1 17.2 2.55 30.1q7 -24.7 7.7 -52q15 7.85 32.9 3.85q-0.05 15.1 -2.55 29.8q-2.4 14.3 4.65 21.95q5 -34.85 4.8 -72q-0.35 -60.4 -7.05 -118.45q-2.6 8.55 -2.15 19.5q1.55 35.95 2.05 72.05q-15.6 2.7 -31.9 1.4q0.4 -38.05 -0.1 -75.35q-3.85 1.85 -4.1 7.15<g id="1092" transform="matrix(1, 0, 0, 1, -139.3, 0)">
<path style="fill:#000000;fill-opacity:1" d="M362.3,184.1Q388 185.9 412.95 178.75L418.45 179Q422 182.3 421.5 187.25Q421.25 189.75 419.7 191.75Q391.85 198.3 363 193.4Q365.85 233.55 365.5 274.45Q381.95 274.35 398.45 271.2Q402.45 277.1 399.65 283.95L399.2 284.7Q382.65 289.15 365.35 285.1L364.9 301.5Q363.7 335.6 358.7 368.2Q352.3 360 354.5 346.45Q356.9 331.7 357.6 316.7Q360.4 257.1 358.75 197.5Q358.6 192.15 360 187.8Q360.2 185.85 360.95 184L361.6 184.05L362.2 183L362.3 184.1M335.45,181.75Q345.15 239.5 342.5 299.45Q340.45 346.35 300 366.55Q286.3 373.35 271.45 368.95Q254.2 347.3 258.65 317Q260.2 306.35 260.65 295.5Q262.7 240.95 265.7 186.7Q265.85 183.4 268.2 182.25Q269.5 183.1 269.95 184.5L270.2 185.25Q268.75 244 264.4 302.85Q262.35 330 272.85 352.45Q274 355 277.25 355.1Q317.45 356.8 330.15 318.35Q339.65 289.5 336.2 259.05Q331.75 220.6 334.15 182.5Q334.25 181.5 335.45 181.75M210.5,195.35L209.7 196.25Q193.6 197.2 177.65 196.8Q180.1 251.4 179.4 307.2Q179 338.95 174.75 369.45Q168.95 361.45 169.85 347.9Q173.75 288.55 172.6 228.75Q172.3 211.8 175.4 196.7Q157.95 196.15 140.75 194Q139.3 190.25 140.6 186.5L141 185.75Q175.45 185.45 210.45 184.25Q213.9 189.75 210.5 195.35M202.45,198.75Q202.95 236.05 202.55 274.1L203.2 274.7Q219.5 276 235.1 273.3Q234.6 237.2 233.05 201.25Q232.6 190.3 235.2 181.75Q241.9 239.8 242.25 300.2Q242.45 337.35 237.45 372.2Q230.4 364.55 232.8 350.25Q235.3 335.55 235.35 320.45L235.3 287.15Q217.4 291.15 202.4 283.3L201.7 317.2Q201 344.5 194 369.2Q187.35 356.3 191.45 339.1Q193.15 331.9 193.45 324.45L198.35 205.9Q198.6 200.6 202.45 198.75" />
</g>
</svg>
