<?xml version="1.0" encoding="utf-8"?>
<svg version="1.1" id="Layer_1"
xmlns="http://www.w3.org/2000/svg"
xmlns:xlink="http://www.w3.org/1999/xlink"


xml:space="preserve">
q-19.2 3.95 -33.95 17.65q-14.5 13.4 -17.15 33.25q-6.9 51.6 -8.5 104.05q14.9 -2.6 29.1 -7.2q-0.1 1.25 -0.7 2.3q-2.55 2.45 -7.5 2q-16.85 5.25 -33.35 4.4q-1.1 60.05 2 119.3q1 19.25 7.95 36.65q3.75 2.4 7.9 3.8q21.3 -7.65 28.3 -31.2q1.85 -6.2 6.7 -8.05q0.35 -0.35 0.75 -0.35q-0.75 21.1 -13.7 38.1q-7.15 9.4 -17.05 14.9q-28.1 -4 -29.65 -33.15q-3.05 -56.95 -2.2 -114.8q0.85 -59.95 4.2 -119.35q2 -35.95 21.65 -65.25q10.15 -15.25 28 -18.65q4.85 -0.4 9.15 1.65q-1.55 59 -0.6 118.5q0.25 14.85 0.1 30q-0.45 59.55 -1.6 119.2q-0.8 43.15 -8.15 83.75q-4.4 -13.6 -2.65 -29.9q6.35 -59.1 7.55 -119.05q1.2 -59.7 -0.15 -119.25q-0.9 -40.95 1 -81.8q0.15 -3.05 2.5 -3.7q-1.7 0.1 -2.65 -1.55q-1.05 -1.75 -2.85 -2.95q-31.6 10.8 -39.2 44.9q-6.5 29 -9.8 58.3q-6.7 58.35 -5.85 117.5q0.55 41.1 4.05 81.85q1.35 15.4 13.1 23.1q3.9 2.55 8.7 3.05q17.1 -6.55 24 -24.9q1.3 -3.5 4.25 -2.35q1.35 -0.65 1.55 -2.45q0.4 -3.1 2.45 -4.8q-1.75 19.1 -12.8 35.4q-5.1 7.6 -12.95 12.35q-29.2 2.05 -32.85 -27.3q-6.95 -55.4 -6.2 -111.9q0.8 -59.9 8.8 -118.6q5.7 -42.25 27.4 -77.8q3.65 -5.95 8.75 -10.45q5.35 -4.8 11.6 -7.65q14.6 1.55 10.85 15.45q-8.4 58 -7.15 118.5q0.3 14.95 0.1 29.85q7.05 -0.25 13.5 2.55q1 2.55 0.5 5.25q-0.65 23.1 -2.55 46.05q-4.85 59.35 -8.5 118.5q-1.2 19.15 -4.9 37.4q-5.5 -11.95 -3.85 -29.15q5.75 -59.5 11 -119.05q2.35 -26.7 3.45 -53.55q-1.25 29.7 -3.05 59.35q-3.65 59.3 -6.65 118.6q-0.65 12.15 -5.3 22.15q-4.1 -13.55 -2.35 -29.85q6.45 -59.3 9.65 -119.15q3.15 -59.25 4.75 -118.45q1.35 -49.1 5.45 -97.45q0.7 -8.15 4.75 -12.8q-4.05 58.15 -5.4 118.5q-0.55 25.1 -1.5 50.25q31.35 -0.35 61.45 -6.25q0.85 -26.3 0.5 -52.75q-0.6 -45.1 5.9 -88.65q0.95 -6.6 5.05 -10.6q37.85 5.45 48.1 43.55q16.4 60.75 -16.45 113.15q-5.45 8.65 -14.5 14.1q11.15 51.6 28.85 101.5q8.5 24.05 19.1 47.65q10.5 23.4 10.4 47.65q0 0.75 -0.65 1.5q-10.35 -26.65 -20.6 -56.35q-19 -55.3 -34.6 -111.5q-4.15 -14.85 -5 -28.8q-5.05 3.4 -9.8 7.2q-5.3 1.35 -10.65 0.8q-2.3 27.1 -5.15 54.1q-6.2 58.9 -11.2 117.9q-0.8 9.35 -4.5 17.15q-5.9 -8.85 -3 -22.3q1.55 -7.25 2.45 -14.7q7.45 -59.2 13.3 -118.55q-1.3 -1.25 -1.5 -3.25q-0.45 -3.85 1.05 -7.55q3.55 -58.8 6.15 -117.85q0.3 -5.95 3.35 -9.45q-0.25 55.3 -3.7 111.55q-1.55 25.4 -3.55 50.7q10.05 -1.85 19.2 -7q7.4 -4.25 14.15 -10.7q20.5 -19.65 23.05 -48.5q2 -22.75 -2.35 -45.05q-5.25 -26.5 -25.35 -44.05q-10.25 -5.05 -21.45 -6.6q0.25 0 0.5 0.4q1.45 2.4 1.55 5.25q0.1 3.65 -2.05 6.5q-31.05 0.5 -61.95 1.3q1.35 53.7 -1.35 108.25q-2.9 59.5 -4.75 119.2q-1.85 59.45 -5.55 118.55q-1.7 27.45 -4.6 54.6q-0.3 2.75 -2.75 3.05q-1.5 -28.8 1.05 -59.25q4.9 -59.35 6.9 -119.2q1.8 -53.65 5.7 -106.6q-36.8 0.9 -73.35 2.15q-0.65 -3.95 0.85 -7.45q64.2 -5.25 128.95 -6.5<g id="1260" transform="matrix(1, 0, 0, 1, -20.5, 0)">
<path style="fill:#000000;fill-opacity:1" d="M516.1,136.9L516.95 137.5L517.2 138.25L517.4 139L517.6 139.65L518.45 141.5Q499.25 145.45 484.5 159.15Q470 172.55 467.35 192.4Q460.45 244 458.85 296.45Q473.75 293.85 487.95 289.25L500.2 290.1L500.95 290.5L501.55 292.75L501.65 294.95Q501.55 296.2 500.95 297.25Q498.4 299.7 493.45 299.25L492.9 299.9L491.95 300.75Q475.1 306 458.6 305.15L458.5 310.25Q457.4 370.3 460.5 429.55Q461.5 448.8 468.45 466.2Q472.2 468.6 476.35 470L479.2 471.2Q500.5 463.55 507.5 440Q509.35 433.8 514.2 431.95Q514.55 431.6 514.95 431.6L515.4 432L515.65 432.75L515.7 433.45Q514.95 454.55 502 471.55Q494.85 480.95 484.95 486.45Q456.85 482.45 455.3 453.3Q452.25 396.35 453.1 338.5Q453.95 278.55 457.3 219.15Q459.3 183.2 478.95 153.9Q489.1 138.65 506.95 135.25Q511.8 134.85 516.1 136.9M351.65,125.05L352.2 125.75Q350.65 184.75 351.6 244.25Q351.85 259.1 351.7 274.25Q351.25 333.8 350.1 393.45Q349.3 436.6 341.95 477.2Q337.55 463.6 339.3 447.3Q345.65 388.2 346.85 328.25Q348.05 268.55 346.7 209Q345.8 168.05 347.7 127.2Q347.85 124.15 350.2 123.5L351.65 125.05M447.45,141.5Q445.75 141.6 444.8 139.95Q443.75 138.2 441.95 137Q410.35 147.8 402.75 181.9Q396.25 210.9 392.95 240.2Q386.25 298.55 387.1 357.7Q387.65 398.8 391.15 439.55Q392.5 454.95 404.25 462.65Q408.15 465.2 412.95 465.7Q430.05 459.15 436.95 440.8Q438.25 437.3 441.2 438.45Q442.55 437.8 442.75 436Q443.15 432.9 445.2 431.2Q443.45 450.3 432.4 466.6Q427.3 474.2 419.45 478.95Q390.25 481 386.6 451.65Q379.65 396.25 380.4 339.75Q381.2 279.85 389.2 221.15Q394.9 178.9 416.6 143.35Q420.25 137.4 425.35 132.9Q430.7 128.1 436.95 125.25Q451.55 126.8 447.8 140.7L447.45 141.5M203.9,119.25L203.95 120Q195.55 178 196.8 238.5Q197.1 253.45 196.9 268.35Q203.95 268.1 210.4 270.9L211.2 271.5L211.5 272.2Q212.5 274.75 212 277.45L211.2 280.5L196.65 281Q196 304.1 194.1 327.05Q189.25 386.4 185.6 445.55Q184.4 464.7 180.7 482.95Q175.2 471 176.85 453.8Q182.6 394.3 187.85 334.75Q190.2 308.05 191.3 281.2L129.95 284.1Q128.7 313.8 126.9 343.45Q123.25 402.75 120.25 462.05Q119.6 474.2 114.95 484.2Q110.85 470.65 112.6 454.35Q119.05 395.05 122.25 335.2Q125.4 275.95 127 216.75Q128.35 167.65 132.45 119.3Q133.15 111.15 137.2 106.5Q133.15 164.65 131.8 225Q131.25 250.1 130.3 275.25Q161.65 274.9 191.75 269Q192.6 242.7 192.25 216.25Q191.65 171.15 198.15 127.6Q199.1 121 203.2 117L203.9 119.25M246.2,116.95L246.95 116.25Q284.8 121.7 295.05 159.8Q311.45 220.55 278.6 272.95Q273.15 281.6 264.1 287.05L260.75 289.15Q271.9 340.75 289.6 390.65Q298.1 414.7 308.7 438.3Q319.2 461.7 319.1 485.95Q319.1 486.7 318.45 487.45Q308.1 460.8 297.85 431.1Q278.85 375.8 263.25 319.6Q259.1 304.75 258.25 290.8Q253.2 294.2 248.45 298Q243.15 299.35 237.8 298.8Q235.5 325.9 232.65 352.9Q226.45 411.8 221.45 470.8Q220.65 480.15 216.95 487.95Q211.05 479.1 213.95 465.65Q215.5 458.4 216.4 450.95Q223.85 391.75 229.7 332.4L232.9 297.5Q231.6 296.25 231.4 294.25Q230.95 290.4 232.45 286.7L232.7 286L233.85 285.9L236.7 244.05Q240.25 185.25 242.85 126.2Q243.15 120.25 246.2 116.75L246.2 116.95M246.2,123Q245.95 178.3 242.5 234.55Q240.95 259.95 238.95 285.25Q249 283.4 258.15 278.25L258.2 276.75L258.45 278.05Q265.85 273.8 272.6 267.35Q293.1 247.7 295.65 218.85Q297.65 196.1 293.3 173.8Q288.05 147.3 267.95 129.75Q257.7 124.7 246.5 123.15L246.2 123M158.45,67.6Q158.7 67.6 158.95 68Q160.4 70.4 160.5 73.25Q160.6 76.9 158.45 79.75Q127.4 80.25 96.5 81.05Q97.85 134.75 95.15 189.3Q92.25 248.8 90.4 308.5Q88.55 367.95 84.85 427.05Q83.15 454.5 80.25 481.65Q79.95 484.4 77.5 484.7Q76 455.9 78.55 425.45Q83.45 366.1 85.45 306.25L89.4 187.7Q91.2 134.05 95.1 81.1Q58.3 82 21.75 83.25L21.15 80.95Q20.5 77 22 73.5Q86.2 68.25 150.95 67L158.45 67.6" />
</g>
</svg>
