<?xml version="1.0" encoding="utf-8"?>
<svg version="1.1" id="Layer_1"
xmlns="http://www.w3.org/2000/svg"
xmlns:xlink="http://www.w3.org/1999/xlink"


xml:space="preserve">
q21.05 -8.2 36.8 12.15q12.9 16.65 11.25 38.15q-1.65 21.9 -18.4 35.95q-4.6 3.9 -9.9 6.65q24.65 50.25 32.4 102.7q-26.15 -45.6 -35.25 -101.3q-1.15 44 -9.65 87.2q-4 -46.65 -1.05 -95.2q2.85 -47.45 11.6 -92.15q0 -0.1 0.2 -0.1q-14.1 -21.25 -35.15 -12.1q21.5 -6.05 32.1 -25.35q11.15 -20.4 -2.05 -40.25q-2.45 -3.35 -1.35 -7.55q0.7 -1.65 2.25 -2.75q42.65 -4.55 85.95 -3.75q3.15 4.95 0.7 10.45q1.9 55 -0.7 110.95q-1.2 25.85 -1.55 51.65q-0.1 9 -2.55 17.25q-6 -11.95 -4 -29.2q1.75 -14.8 1.9 -29.8q0.8 -59.85 3 -119.25q-3.4 40.9 -5.45 82.1q-11.5 0.45 -22.75 3q0.2 -36.5 -2.4 -72.85q-4.8 11.5 -4.2 27q1.6 43.45 -2.4 86.1q-2.85 30.55 0.6 59.35q0.9 -0.35 1 -0.85q4.55 -26.1 6.05 -53.1q0.95 -17.3 1.25 -34.5q11.2 0.85 22.2 -0.25q-1.3 29.6 -4.6 59.15q-1.85 16.35 3.15 30.15q1 -0.35 1.1 -0.85q5.1 -35.2 6.85 -71.1q2.9 -60.1 3.05 -118.5q-3.05 0.65 -3.4 4.5q0.55 58.75 -3.1 117.7q-1.9 30.55 -2.4 61.25q0.75 5.95 -3.25 9.75q-5.05 -12.6 -4 -29.3q3.7 -59.2 5.75 -118.5q0.8 -23.55 4 -44.4<g id="1263" transform="matrix(1, 0, 0, 1, -139.05, 0)">
<path style="fill:#000000;fill-opacity:1" d="M349.2,181Q370.25 172.8 386 193.15Q398.9 209.8 397.25 231.3Q395.6 253.2 378.85 267.25Q374.25 271.15 368.95 273.9Q393.6 324.15 401.35 376.6Q375.2 331 366.1 275.3L348.1 281.25Q346.95 325.25 338.45 368.45Q334.45 321.8 337.4 273.25Q340.25 225.8 349 181.1Q349 181 349.2 181M384.55,202.6Q370.45 181.35 349.4 190.5L348.55 269.9L354.5 268.2Q376 262.15 386.6 242.85Q397.75 222.45 384.55 202.6M181.8,192.25L141.5 194Q139.05 190.65 140.15 186.45L140.25 185.75Q140.95 184.1 142.5 183Q185.15 178.45 228.45 179.25Q231.6 184.2 229.15 189.7L228.7 190.5L185.55 192.1Q187.45 247.1 184.85 303.05Q183.65 328.9 183.3 354.7Q183.2 363.7 180.75 371.95Q174.75 360 176.75 342.75Q178.5 327.95 178.65 312.95Q179.45 253.1 181.65 193.7L181.8 192.25M256.45,180.75Q256.3 239.15 253.4 299.25Q251.65 335.15 246.55 370.35Q246.45 370.85 245.45 371.2Q240.45 357.4 242.3 341.05Q245.6 311.5 246.9 281.9L246.95 281.25Q235.95 282.35 224.75 281.5Q224.45 298.7 223.5 316Q222 343 217.45 369.1Q217.35 369.6 216.45 369.95Q213 341.15 215.85 310.6Q219.85 267.95 218.25 224.5Q217.65 209 222.45 197.5Q225.05 233.85 224.85 270.35Q236.1 267.8 247.6 267.35Q249.65 226.15 253.05 185.25Q253.4 181.4 256.45 180.75M307,180.7L307.95 181.5Q308.5 240.25 304.85 299.2Q302.95 329.75 302.45 360.45L303.4 361.75L303.7 362.45Q304.45 368.4 300.45 372.2Q295.4 359.6 296.45 342.9Q300.15 283.7 302.2 224.4Q303 200.85 306.2 180L307 180.7M253.85,372.05L253.7 373.45L253.05 372.05L253.85 372.05" />
</g>
</svg>
