<?xml version="1.0" encoding="utf-8"?>
<svg version="1.1" id="Layer_1"
xmlns="http://www.w3.org/2000/svg"
xmlns:xlink="http://www.w3.org/1999/xlink"


xml:space="preserve">
q-3.95 35.8 -5.05 72.9q-0.45 2.1 -0.4 4.35q0.05 1 0.25 1.9q-0.3 12.95 -0.25 26.05q0.1 30.15 -3.45 59.8q-1.65 13.6 4.65 22.2q0.75 -0.6 0.85 -1.3q2.4 1.2 5.1 1.85q34.95 7.95 49.7 -20.65q7.05 -13.6 8.25 -28.8q3 -38.7 -23.65 -63.6q12.15 -11.45 12.85 -31.85q1.15 -33.7 -30.3 -41.95q-8.6 -0.4 -16.5 3.5q-11.7 8.5 -26.15 9.75q21.75 -5.3 34.3 12.6q14.55 20.65 -7 36.15q18.55 10.85 25.05 31.75q6.55 21.1 -3.5 40.9q-10 19.7 -32.85 20.75q-8.2 0.25 -15.95 -1.9q6.85 0.5 13.35 -1.7q5.5 -1.9 10.55 -4.6q-0.55 -51.95 -20.1 -99.7q-0.55 -0.35 -1.3 -0.35q-7.3 -4.35 -16.05 -2.95q-15.85 5.25 -22.4 21.1q-13.85 33.6 -14.45 70.35q-0.5 30.2 3.65 59.5q2.45 17.1 16.2 27.75q26.7 20.7 44.3 -6.95q19.15 -30 18.8 -66.3q-1.75 1.65 -1.95 4.2q-0.2 3.25 1.2 6.05q18.35 1.15 36.7 0.95q-3.05 27.2 -3.15 56.55q-0.15 59.5 -1.55 118.45q0.55 2.65 3 2q4.75 -31.9 5.1 -65.25q0.65 -56.55 -2.2 -111.75q1.2 -2.15 1.35 -4.5q0.2 -3.25 -1.35 -6q-0.35 -0.4 -0.8 -0.5q2.5 1.05 3.6 3q19.3 33.4 22.9 73.3q3.85 42.85 -20.75 76.6q-10.8 7.6 -23.85 3.8q-10.65 -3.05 -14.4 -13.3q-11 -30.25 -11.65 -63.25q-0.85 -42.75 22.4 -76.45q6.65 -4.95 15.2 -3.9q2.45 0.1 4.75 1.05q0.6 -42 -0.7 -83.5q-4.3 39.65 -6 80.85q-20.35 -0.3 -39 6.2q-6.65 40.55 -6.35 83.95q0.2 22.35 -2.9 44.1q-2.35 16.8 3.5 29.4q4.65 -18.65 5 -39q-0.85 30.1 -4.2 59.8q-2 17.4 4.45 29.2q5.05 -35.25 6.3 -71.95q1.95 -4.6 0.15 -8.9<g id="1106" transform="matrix(1, 0, 0, 1, -139.35, 0)">
<path style="fill:#000000;fill-opacity:1" d="M360.45,183.5Q368.35 179.6 376.95 180Q408.4 188.25 407.25 221.95Q406.55 242.35 394.4 253.8L396.45 254.5Q423.1 279.4 420.1 318.1Q418.9 333.3 411.85 346.9Q397.1 375.5 362.15 367.55Q359.45 366.9 357.05 365.7L356.8 367.9Q356.7 368.6 355.95 369.2Q349.65 360.6 351.3 347Q354.85 317.35 354.75 287.2Q354.7 274.1 355 261.15Q354.8 260.25 354.75 259.25Q354.7 257 355.15 254.9Q356.25 217.8 360.2 182L360.3 184.05L360.45 183.5M394.95,205.55Q382.4 187.65 360.65 192.95L361.8 251.45Q376.25 250.2 387.95 241.7Q409.5 226.2 394.95 205.55M375.1,264.65Q368.6 266.85 361.75 266.35L358.4 351.55Q366.15 353.7 374.35 353.45Q397.2 352.4 407.2 332.7Q417.25 312.9 410.7 291.8Q404.2 270.9 385.65 260.05Q380.6 262.75 375.1 264.65M324.25,353.5Q306.65 381.15 279.95 360.45Q266.2 349.8 263.75 332.7Q259.6 303.4 260.1 273.2Q260.7 236.45 274.55 202.85Q281.1 187 296.95 181.75Q305.7 180.35 313 184.7L314.45 185.5L314.95 185.55L315.7 185.25L316.5 184.75L316.95 184.5Q317.7 184.5 318.25 184.85L321.45 186.75L322.95 187.5Q342.5 235.25 343.05 287.2Q343.4 323.5 324.25 353.5M220.4,178.25Q220.85 178.35 221.2 178.75Q222.75 181.5 222.55 184.75Q222.4 187.1 221.2 189.25L178.65 191.7Q181.5 246.9 180.85 303.45Q180.5 336.8 175.75 368.7Q173.3 369.35 172.75 366.7Q174.15 307.75 174.3 248.25Q174.4 218.9 177.45 191.7Q159.1 191.9 140.75 190.75Q139.35 187.95 139.55 184.7Q139.75 182.15 141.5 180.5L215.95 177.75L220.4 178.25M304.95,194.25Q296.4 193.2 289.75 198.15L287.95 199Q264.7 232.7 265.55 275.45Q266.2 308.45 277.2 338.7Q280.95 348.95 291.6 352Q304.65 355.8 315.45 348.2Q340.05 314.45 336.2 271.6Q332.6 231.7 313.3 198.3Q312.2 196.35 309.7 195.3Q307.4 194.35 304.95 194.25M249.75,271.65L249 297.75Q247.75 334.45 242.7 369.7Q236.25 357.9 238.25 340.5Q241.6 310.8 242.45 280.7L242.65 274.1L204.15 277.45L203.45 330.7Q203.1 351.05 198.45 369.7Q192.6 357.1 194.95 340.3Q198.05 318.55 197.85 296.2Q197.55 252.8 204.2 212.25L204.2 266.3Q222.85 259.8 243.2 260.1Q244.9 218.9 249.2 179.25Q250.5 220.75 249.9 262.75Q251.7 267.05 249.75 271.65" />
</g>
</svg>
