<?xml version="1.0" encoding="utf-8"?>
<svg version="1.1" id="Layer_1"
xmlns="http://www.w3.org/2000/svg"
xmlns:xlink="http://www.w3.org/1999/xlink"


xml:space="preserve">
q-5.25 0.05 -11 -1.75q-5.15 1.95 -9.5 6q-22 20.7 -27.75 51.1q-11.1 58.95 0.2 117.75q0.75 3.9 3.35 6.65q18.8 19.75 40.65 2.2q19.75 -15.85 24.7 -41.4q8.35 -43.65 3.95 -88.2q-3.05 -31.05 -23.1 -52.35q5.75 -12.2 15.8 -21.3q14.6 -4.2 27.75 3.5q-2.85 -26.65 -29.05 -14.05q-16.5 8.05 -20.4 26.9q-3.5 16.8 -6.15 33.7q-2.65 17.05 -2.55 34.5q0.1 21.05 -0.9 42.05q-1.1 23.05 16.95 37.25q19.15 15 37.5 -2.65q8.95 -31 2.7 -63q-15.4 20.7 -36.2 3.45q-13.75 -11.45 -12.75 -31.6q1.1 -22 1.6 -44.05q0.3 -14.65 2.25 -29.2q1.4 -10.2 5.8 -19.5q-12.4 20 -35.05 13.85q-15.8 -4.1 -17.5 -24.65q-1.8 -21.5 -0.75 -43.35q1.05 -21.25 4.9 -42.05q4.05 -22.15 19.95 -38.25q5.8 -5.8 12.45 -10.25q23.45 8.6 27.65 36.35q6.3 41.2 -3.4 81.95q-3.2 13.45 -8.25 26.4q-33.7 2 -65.7 1q-1.75 4.4 -0.5 8.95q1.35 0.75 2.75 0.8q-1.1 6.6 -1.2 14.2q-0.75 59.15 -2.75 118.5q-0.25 7.45 -1.75 14.65q-3.4 16.45 2.5 30.05q2.4 -1.2 2.7 -4.25q2.9 -31.25 4.2 -62.95q2.25 -55.1 0.6 -110.15q22.65 0.4 44.95 0.4q2.25 -5.1 0.4 -10.5q-0.35 -0.4 -0.75 -0.4q-3.15 43.75 -5.75 87.75q0.2 -35 -0.95 -69.55q-0.75 0.1 -0.75 0.3q-5.95 53.1 -6.55 107.15q-0.2 15 -2 29.8q-2.15 17.4 4.55 29.2q1.4 -1.15 1.6 -3q2.35 -22.25 3.1 -44.95q0.65 -19.15 0.9 -38.15q-1.2 22.15 -4.1 44.1q-2.25 16.85 3.9 29.4q0.65 -0.75 0.75 -1.55q4.95 -38.65 7.25 -77.85q3.55 -59.55 2.75 -117.8q-2.8 1.45 -3.05 5.25<g id="1120" transform="matrix(1, 0, 0, 1, -139, 0)">
<path style="fill:#000000;fill-opacity:1" d="M328.45,181.25Q348.5 202.55 351.55 233.6Q355.95 278.15 347.6 321.8Q342.65 347.35 322.9 363.2Q301.05 380.75 282.25 361Q279.65 358.25 278.9 354.35Q267.6 295.55 278.7 236.6Q284.45 206.2 306.45 185.5Q310.8 181.45 315.95 179.5Q321.7 181.3 326.95 181.25L328.45 181.25M368.6,239.55Q366.65 254.1 366.35 268.75Q365.85 290.8 364.75 312.8Q363.75 332.95 377.5 344.4Q398.3 361.65 413.7 340.95L415.15 324.2L405.3 321.55L406.45 312.45L419.45 310.7Q425.7 342.7 416.75 373.7L414.6 358.7L413.35 359.95Q395 377.6 375.85 362.6Q357.8 348.4 358.9 325.35Q359.9 304.35 359.8 283.3Q359.7 265.85 362.35 248.8Q365 231.9 368.5 215.1Q372.4 196.25 388.9 188.2Q415.1 175.6 417.95 202.25Q404.8 194.55 390.2 198.75Q380.15 207.85 374.4 220.05Q370 229.35 368.6 239.55M340.45,311.05Q350.15 270.3 343.85 229.1Q339.65 201.35 316.2 192.75Q309.55 197.2 303.75 203Q287.85 219.1 283.8 241.25Q279.95 262.05 278.9 283.3Q277.85 305.15 279.65 326.65Q281.35 347.2 297.15 351.3Q319.8 357.45 332.2 337.45Q337.25 324.5 340.45 311.05M229.45,179.1Q229.85 179.1 230.2 179.5L230.5 180.2L230.85 181Q232.7 186.4 230.45 191.5Q208.15 191.5 185.5 191.1Q187.15 246.15 184.9 301.25Q183.6 332.95 180.7 364.2Q180.4 367.25 178 368.45Q172.1 354.85 175.5 338.4Q177 331.2 177.25 323.75Q179.25 264.4 180 205.25Q180.1 197.65 181.2 191.05L143.5 190.05Q142.1 190 140.75 189.25L140.5 188.5L140.25 187.7Q139 183.15 140.75 178.75Q172.75 179.75 206.45 177.75L229.45 179.1M265.2,178.25Q266 236.5 262.45 296.05Q260.15 335.25 255.2 373.9Q255.1 374.7 254.45 375.45Q248.3 362.9 250.55 346.05Q253.45 324.1 254.65 301.95L255.6 285.1L223.3 282.85Q223.05 301.85 222.4 321Q221.65 343.7 219.3 365.95Q219.1 367.8 217.7 368.95Q211 357.15 213.15 339.75Q214.95 324.95 215.15 309.95Q215.75 255.9 221.7 202.8Q221.7 202.6 222.45 202.5Q223.6 237.05 223.4 272.05L231 270.85L240.95 270.2L250.3 270.55L256.4 271.25Q259 227.25 262.15 183.5Q262.4 179.7 265.2 178.25" />
</g>
</svg>
