<?xml version="1.0" encoding="utf-8"?>
<svg version="1.1" id="Layer_1"
xmlns="http://www.w3.org/2000/svg"
xmlns:xlink="http://www.w3.org/1999/xlink"


xml:space="preserve">
q-11.6 9.95 -14.45 25.1q-9.25 49.9 -12.5 101.1q-1.7 27.15 11.45 48.8q7.5 2.35 13.35 -2.1q7.45 -5.6 13 -12.8q11.95 -15.35 3.15 -28.1q-1.75 1.1 -3.4 2.35q-0.6 1.5 -0.8 3q0.4 -0.05 0.8 -0.3q-4.65 15.9 -21.75 14q-1.95 -10.45 -2.25 -21q-0.55 -22.65 -0.05 -45.35q12.05 1.3 24.05 -1.4q3.75 -7.2 -0.85 -13.4q-12.35 0.9 -23.55 4.85q1.3 -33.4 17.8 -60.7q3.35 -0.15 6.75 0q0.25 0 0.5 0.25q2.75 3.1 3 7.5q0.15 3.75 2.75 5.75q2.9 -2.35 3 -6.5q0.25 -12.25 -8.5 -20.25q-0.6 -15.7 -14.2 -23.95q-0.75 -0.4 -1.55 -0.45q-9.3 0.1 -14.55 7.5q-22.25 31.3 -16.4 71.15q4.4 30.2 17.1 58.1q24.75 54.45 32.9 113.25q6.55 47.05 -28.8 78.95q-12.5 7.95 -26 2.5q-2.4 2.9 -2.7 6.75q-1 12.75 10.05 17q11.2 4.35 20.5 -2.3q37.95 -27.1 38.2 -73.9q0.25 -58.05 -19.3 -112.6q-3.7 -10.4 -8.85 -20.2q-23.75 -44.95 -21.6 -94.5q1.4 -33 34.45 -31.95q6.35 3.2 7.65 9.95q1.25 6.7 5.1 10.3q2.9 -4.25 2.7 -9.8q-9.75 -1.8 -20.55 -2q-13 2.25 -21.25 13.25q-30.45 40.5 -34.55 92.15q-4.65 59.05 -3.2 119.35q0.75 29.95 4 59.4q2.5 23.1 14.15 42.8q16.6 28.2 43.1 7.8q5.6 -4.3 9.9 -9.65q31.7 -39.3 39.55 -89.45q9.3 -59.05 1.8 -118.7q-2.8 -22.25 -6.05 -44.4q-5.65 -38.25 -23.95 -70.3q2 0.75 2.7 2.55q19.8 52.15 25.8 108.3q6.4 59.8 -6.4 118.3q-8.6 39.2 -36.95 66.7q-9.1 8.9 -20.9 11.05q-14.1 2.6 -19.2 -10.75q-17.15 -44.65 -17.85 -93.9q-0.45 -29.8 -0.55 -59.25q-0.2 -60.35 20.7 -116.3q11.75 -31.45 45.15 -31.95q2.65 0.05 4.1 2.1q-11.85 33.65 -11.65 73.1q0.05 14.6 -1.45 29.2q0.8 -69.2 -8.05 -134.5q-1.35 75.1 1.6 151.3q0.1 2.7 -0.2 5.45q-0.15 1.7 -0.15 3.45q0.3 4.1 2.35 7.65q-2.2 43.75 11.5 83.95q18.9 -93.15 22.6 -188.95q-18.95 -2.8 -38.5 -4.55q-21.85 -1.25 -43.2 5.4q-20.9 6.35 -42.75 9.4q-0.2 0.7 -0.25 1.45q0.25 1.2 1.05 1.9q7 0.5 14.2 -1.25q21 -4.75 42.2 -8.75q-4.2 34.5 -4.1 69.2q0.35 104.35 -1.05 208.7q-0.2 13.05 -3.55 25.85q-3.75 14.25 5.1 25.15q2.4 -4.55 2.6 -9.75q3.2 -81.9 4.35 -163.8q0.2 -34.7 -2.1 -69.2q17.6 -1.55 35.4 -0.2q-6.25 14.45 -7.1 32.95q-2.55 59.15 -3.75 118.55q-2.55 1.45 -6 1.45q-14.45 -0.1 -26.45 5.25q3.65 -59.4 6.2 -117.85q-3.8 2.5 -4.35 7.7q-6.15 58.85 -8.55 118.6q-2.4 59.5 -7.25 118.45q-1.25 14.95 -3.7 29.7q-3 18.05 5.85 29.25q3.1 -8.45 0.7 -17.2q4.45 -54.1 7.25 -108.7q0.8 -16 1.75 -32.05q22.05 6.05 45.95 1.9q-1.4 49.95 -4.6 99.6q-0.95 14.9 -2.8 29.8q-2 16.8 4.2 29.95q0.9 -0.6 0.95 -1.3q4.6 -45.4 6.05 -91.4q1.85 -59.55 4.45 -119.2q2.6 -60 3.05 -118.55q-0.5 -8.9 -4.75 -17.1q-1.95 -3.8 -4.85 -7.3q-3.9 -4.75 -8.8 -8.35q-9.4 -3.4 -18.8 -1.3q-1.4 0.2 -2.6 1.35q-1.45 77.15 -14.45 152.8q-1.1 5.3 0.2 10.35q0.5 1.95 1.55 3.5q11.6 -44.1 12.3 -89.75q6.5 0.15 11.1 -4.4q6.55 51.55 30.85 96.9q0.15 -50.35 -27.2 -99.95q20.05 -18.3 20.5 -45.5q12 34.65 -18.55 56.85q-3.1 -0.25 -5.65 0.6q1.2 -35.2 0.25 -70q10.45 1.05 20.4 5.9q2.3 3.05 3.55 6.65<g id="1115" transform="matrix(1, 0, 0, 1, -38.4, 0)">
<path style="fill:#000000;fill-opacity:1" d="M522.45,64.75Q531.2 72.75 530.95 85Q530.85 89.15 527.95 91.5Q525.35 89.5 525.2 85.75Q524.95 81.35 522.2 78.25Q521.95 78 521.7 78Q518.3 77.85 514.95 78Q498.45 105.3 497.15 138.7L496.9 145.6Q508.1 141.65 520.45 140.75Q525.05 146.95 521.3 154.15L520.7 155Q508.7 157.7 496.65 156.4Q496.15 179.1 496.7 201.75Q497 212.3 498.95 222.75Q516.05 224.65 520.7 208.75Q520.3 209 519.9 209.05L519.3 209.15L519.45 208L520.8 206.35L521.55 205.15L522.85 204.55L523.7 204L523.85 203.2Q524.05 201.7 524.65 200.2L524.95 199.5L525.55 198.85Q527.2 197.6 528.95 196.5Q537.75 209.25 525.8 224.6Q520.25 231.8 512.8 237.4Q506.95 241.85 499.45 239.5Q486.3 217.85 488 190.7Q491.25 139.5 500.5 89.6Q503.35 74.45 514.95 64.5L522.45 64.75M491.45,95.75Q487.6 92.15 486.35 85.45Q485.05 78.7 478.7 75.5Q445.65 74.45 444.25 107.45Q442.1 157 465.85 201.95Q471 211.75 474.7 222.15Q494.25 276.7 494 334.75Q493.75 381.55 455.8 408.65Q446.5 415.3 435.3 410.95Q424.25 406.7 425.25 393.95Q425.55 390.1 427.95 387.2L428.2 384.25L428.35 383.55L430.45 385.95L430.85 386.15L431.95 389.35L433.2 392.45Q446.7 397.9 459.2 389.95Q494.55 358.05 488 311Q479.85 252.2 455.1 197.75Q442.4 169.85 438 139.65Q432.15 99.8 454.4 68.5Q459.65 61.1 468.95 61L478.4 61.55Q479.2 61.6 479.95 62Q493.55 70.25 494.15 85.95Q494.35 91.5 491.45 95.75M340.45,71.5Q358.75 103.55 364.4 141.8Q367.65 163.95 370.45 186.2Q377.95 245.85 368.65 304.9Q360.8 355.05 329.1 394.35Q324.8 399.7 319.2 404Q292.7 424.4 276.1 396.2Q264.45 376.5 261.95 353.4Q258.7 323.95 257.95 294Q256.5 233.7 261.15 174.65Q265.25 123 295.7 82.5Q303.95 71.5 316.95 69.25Q327.75 69.45 337.5 71.25L340.45 71.5M334.95,85L333.6 87.55L333.5 87.8L332.85 86.35L333.2 85.5L333.05 84.85Q331.6 82.8 328.95 82.75Q295.55 83.25 283.8 114.7Q262.9 170.65 263.1 231Q263.2 260.45 263.65 290.25Q264.35 339.5 281.5 384.15Q286.6 397.5 300.7 394.9Q312.5 392.75 321.6 383.85Q349.95 356.35 358.55 317.15Q371.35 258.65 364.95 198.85Q358.95 142.7 339.15 90.55Q338.45 88.75 336.45 88L336 87.2L335.25 85.75L334.95 85M436.2,222.25L438.95 215.8L439.05 215.75Q435.35 311.55 416.45 404.7Q402.75 364.5 404.95 320.75L390.45 402.2L388.85 400.25L387.45 398.2Q385.4 394.65 385.1 390.55L384.9 384.4Q384.9 382.65 385.05 380.95Q385.35 378.2 385.25 375.5Q382.3 299.3 383.65 224.2Q392.5 289.5 391.7 358.7L406.7 278.95L416.2 366.95L417.95 352.45L421.2 323.3Q422.7 308.7 422.65 294.1Q422.45 254.65 434.3 221L436.2 222.25M164.9,81.25L143.35 78.9Q125.55 77.55 107.95 79.1Q110.25 113.6 110.05 148.3L109.15 234.65Q108 316.55 104.8 398.45Q104.6 403.65 102.2 408.2Q93.35 397.3 97.1 383.05Q100.45 370.25 100.65 357.2Q102.05 252.85 101.7 148.5Q101.6 113.8 105.8 79.3L96.35 80.9Q75.15 84.9 54.15 89.65Q46.95 91.4 39.95 90.9Q39.15 90.2 38.9 89L38.6 87.15L38.4 85.25L38.5 83.75Q38.55 83 38.75 82.3L39.75 79.25Q61.6 76.2 82.5 69.85Q103.85 63.2 125.7 64.45Q145.25 66.2 164.2 69L164.9 81.25M196.4,193.05Q193.8 252.7 191.95 312.25Q190.5 358.25 185.9 403.65Q185.85 404.35 184.95 404.95Q178.75 391.8 180.75 375Q182.6 360.1 183.55 345.2Q186.75 295.55 188.15 245.6Q164.25 249.75 142.2 243.7Q141.25 259.75 140.45 275.75Q137.65 330.35 133.2 384.45Q135.6 393.2 132.5 401.65L131.95 402.45Q123.1 391.25 126.1 373.2Q128.55 358.45 129.8 343.5Q134.65 284.55 137.05 225.05Q139.45 165.3 145.6 106.45Q146.15 101.25 149.95 98.75Q147.4 157.2 143.75 216.6L142.5 237.95Q154.5 232.6 168.95 232.7Q172.4 232.7 174.95 231.25L188.45 232.55L188.6 226Q189.8 166.6 192.35 107.45Q193.2 88.95 199.45 74.5Q199 133.05 196.4 193.05M250,261.75Q249.55 288.95 229.5 307.25Q256.85 356.85 256.7 407.2Q232.4 361.85 225.85 310.3Q221.25 314.85 214.75 314.7Q214.05 360.35 202.45 404.45L199.4 400.25Q198.35 398.7 197.85 396.75Q196.55 391.7 197.65 386.4L198.3 382.9Q211.3 307.25 212.75 230.1L210 229.25L210.05 222.55Q211.25 221.4 212.65 221.2Q222.05 219.1 231.45 222.5Q236.35 226.1 240.25 230.85Q243.15 234.35 245.1 238.15Q249.35 246.35 249.85 255.25L250 261.75M235.95,236.25Q226 231.4 215.55 230.35Q216.5 265.15 215.3 300.35Q217.85 299.5 220.95 299.75Q251.5 277.55 239.5 242.9Q238.25 239.3 235.95 236.25" />
</g>
</svg>
