<?xml version="1.0" encoding="utf-8"?>
<svg version="1.1" id="Layer_1"
xmlns="http://www.w3.org/2000/svg"
xmlns:xlink="http://www.w3.org/1999/xlink"


xml:space="preserve">
q3.05 21.7 -1.95 44.65q-3.2 14.6 -5 29.55q-7 59.25 -13.5 118.55q-3.2 29.25 -13.05 55.95q-7.35 -12.35 -8.15 -29.4q-2.8 -59.3 -6.9 -118.6q-0.45 -6.55 -2.45 -12.45q-8.2 58.5 -11.6 117.75q-2.05 36.25 -12.3 69.95q-7.15 -42.9 -5.95 -88.45q0.75 -28.3 -0.85 -56.35q-1.9 19.15 -5.35 38q-6.6 35.9 -38.35 52.6q-27.6 -7.15 -31.45 -37.8q-7.4 -59.2 8 -116.8q6.6 -24.7 30.45 -31.65q3.25 -0.55 6.1 0.75q15.85 15.05 23.35 33.9q-2.95 -44.05 -0.35 -86.9q4.35 58.65 9.4 117.7q5 59.15 4.3 119.3q7.25 -58.3 12.85 -117.1q3.45 -36.4 9.15 -72.1q8.45 6.35 9.35 20.85q3.6 59.3 7.55 118.65q0.75 11 2.35 21.95q10.95 -58.25 16.2 -117.45q4.75 -53.9 16.2 -106.3q0.1 -0.6 1.1 -0.95q36.8 2.25 44.1 38.35q6.9 34.25 -10.7 65.9q-9.45 17.1 -22.85 30.85q18.35 52.4 37.75 105.3q7.9 21.65 14.3 43.5q2.35 7.95 -2.1 14.05q-11.4 -25.9 -22.05 -55.35q-18.8 -51.85 -31.05 -104.4q-5.6 5.4 -11.9 10.3q-2.8 40.5 -5.3 80.9q-2.3 37.2 -10.4 71.65q-2.1 0.1 -3.25 -1.75q4.6 -59.15 8.2 -118.4q1.65 -27.15 5.3 -53q-1.2 -0.85 -1.35 -2.2q-0.35 -2.7 0.8 -5.2q0.8 -1.7 2.15 -2.25q-0.3 50.7 -3.95 101.9q33.4 -23.5 45.55 -64.85q10.95 -37.25 -22.95 -57.2q-7.95 -4.7 -16.95 -3.95q-3.2 -0.7 -8.15 -4.7q-5.55 27.95 -6.75 56.8q12.7 -3.9 25.25 -8.55q2.4 3.45 0.9 7.45q-11.25 9.25 -26.05 12.5q0.25 34.35 4.3 68.25q10.25 -11 19.85 -22.45q1 16.9 -12.1 31.35q-3.8 4.2 -8.4 7.65q-12.65 -12.25 -11.1 -31.65q0.6 -7.25 0.6 -14.85q0.05 -22.9 0.85 -45.65q-6.1 -2.6 -3.1 -9.85q1.2 -27.65 3.55 -55.15q1 -11.85 10.15 -17.55q16.8 2.6 15.65 19q34.3 11.1 32.55 48.95q-1.65 36.85 -27.65 62.95q11.95 51.05 25.15 103q4.45 17.6 8.15 35.45q7.45 35.6 17.2 70.85q1.55 5.45 -1.15 10.25q-7.3 -6.15 -9.7 -19.2q-3.4 -18.45 -7.4 -36.65q-5.85 -27 -14.4 -53.4q-6.1 -18.8 -6 -36.5q-5.95 58.6 -8.8 117.7q-1.95 40.7 -12.45 77.2q-3.15 -21.45 1.2 -44.55q2.75 -14.75 3.9 -29.75q4.4 -58.9 10.1 -117.6q-1.75 1.25 -3.85 1.35q-1.05 -0.9 -1.3 -2.25q-0.35 -1.85 -0.15 -3.75q4.15 -49.6 4.8 -99.8q0.05 -1.75 0.75 -2.75q-0.1 -1.6 0.55 -3q2.8 48.75 -0.9 97.8q16.3 -14.95 23.2 -37.55q10.4 -34.1 -18.85 -53.95q-3.15 -2.1 -6.95 -2.6q-34.9 11.6 -37.4 50.1q-1.85 27.95 -1.85 56.4q0 29.95 18.4 51.5q4.85 5.65 11.9 2.05q23.75 -12.3 30.95 -38.6q13.75 -50.35 -4.05 -97.8q-4.05 -10.85 -11.75 -19.5q-1.8 -2 -3.9 -3.3q-1.05 -0.6 -2.3 -0.85q2.6 1.45 4.2 3.85q0.95 3.7 0.05 7.5q-1.45 0.05 -2.75 -1.15q1.9 54.35 0.6 110.05q-1.35 59.75 -3.55 119.25q-1.65 44.1 -7.1 86.95q-5.5 -12.5 -3.6 -29.4q2.5 -22.3 3.75 -44.8q3.3 -59.5 3.85 -119.25q0.55 -59.5 1.7 -118.5q0.05 -2.15 0.4 -4.1q-0.8 0.05 -1.65 -0.55q-1 -3.75 -0.55 -7.55q0.15 -1.25 1.05 -2.2q-0.85 54.7 -6.95 108.65q-0.1 0.7 -1 1.3q-5.7 -13.4 -3.85 -29.95q3.3 -29.85 3.95 -59.75q-18.75 2.4 -37.55 0.2q-1.75 42.1 -3.9 84.1q-1.55 30.6 -6 59.95q-5.4 -12.5 -3.85 -29.4q5.45 -59.3 7.8 -119.05q2.35 -59.2 2.65 -118.5q0.05 -16.55 5.1 -30q1.7 58.5 -0.5 118.5q0.2 -40.8 7.45 -79.4<g id="1119" transform="matrix(1, 0, 0, 1, -19, 0)">
<path style="fill:#000000;fill-opacity:1" d="M394.45,119.75Q397.5 141.45 392.5 164.4Q389.3 179 387.5 193.95Q380.5 253.2 374 312.5Q370.8 341.75 360.95 368.45Q353.6 356.1 352.8 339.05Q350 279.75 345.9 220.45Q345.45 213.9 343.45 208Q335.25 266.5 331.85 325.75Q329.8 362 319.55 395.7L318.45 395.95Q311.3 353.05 312.5 307.5Q313.25 279.2 311.65 251.15Q309.75 270.3 306.3 289.15Q299.7 325.05 267.95 341.75Q240.35 334.6 236.5 303.95Q229.1 244.75 244.5 187.15Q251.1 162.45 274.95 155.5Q278.2 154.95 281.05 156.25L283.2 157Q299.05 172.05 306.55 190.9Q303.6 146.85 306.2 104Q310.55 162.65 315.6 221.7Q320.6 280.85 319.9 341L319.7 372.2Q326.95 313.9 332.55 255.1Q336 218.7 341.7 183Q350.15 189.35 351.05 203.85Q354.65 263.15 358.6 322.5Q359.35 333.5 360.95 344.45Q371.9 286.2 377.15 227Q381.9 173.1 393.35 120.7Q393.45 120.1 394.45 119.75M457.2,108.25L457.25 115.25L457.95 115.25Q494.75 117.5 502.05 153.6Q508.95 187.85 491.35 219.5Q481.9 236.6 468.5 250.35Q486.85 302.75 506.25 355.65Q514.15 377.3 520.55 399.15Q522.9 407.1 518.45 413.2Q507.05 387.3 496.4 357.85Q477.6 306 465.35 253.45Q459.75 258.85 453.45 263.75L452.4 264.2L450.65 264.4Q447.85 304.9 445.35 345.3Q443.05 382.5 434.95 416.95Q432.85 417.05 431.7 415.2L441.1 296.65Q445.7 237.5 449.3 178.25Q450.95 151.1 454.6 125.25L454.45 125.25Q453.25 124.4 453.1 123.05Q452.75 120.35 453.9 117.85Q454.7 116.15 456.05 115.6L457.2 108.25M457.2,124.9Q456.9 175.6 453.25 226.8L451.55 250.9Q484.95 227.4 497.1 186.05Q508.05 148.8 474.15 128.85Q466.2 124.15 457.2 124.9M429.6,175.25L429.45 176Q426.25 175.3 421.3 171.3L416.7 168L413.75 168.45L412.2 169L411.45 169.75L409.95 171.25Q404.4 199.2 403.2 228.05Q415.9 224.15 428.45 219.5Q430.85 222.95 429.35 226.95L428.95 227.75Q417.7 237 402.9 240.25L402.9 246.25Q403.15 280.6 407.2 314.5L407.75 315.15L409.45 316.75L409.95 317.25L410.2 317.35L414.7 317.25Q424.95 306.25 434.55 294.8L435.95 293.25Q436.95 310.15 423.85 324.6Q420.05 328.8 415.45 332.25L409.45 332Q396.8 319.75 398.35 300.35Q398.95 293.1 398.95 285.5Q399 262.6 399.8 239.85Q393.7 237.25 396.7 230L400.25 228.95Q401.45 201.3 403.8 173.8Q404.8 161.95 413.95 156.25Q430.75 158.85 429.6 175.25M183.95,95.9L183.95 95.75Q218.25 106.85 216.5 144.7Q214.85 181.55 188.85 207.65Q200.8 258.7 214 310.65Q218.45 328.25 222.15 346.1Q229.6 381.7 239.35 416.95Q240.9 422.4 238.2 427.2Q230.9 421.05 228.5 408Q225.1 389.55 221.1 371.35L205.55 300Q199.7 273 191.15 246.6Q185.05 227.8 185.15 210.1L181.55 212.35L180.7 221.05Q174.75 279.65 171.9 338.75Q169.95 379.45 159.45 415.95Q156.3 394.5 160.65 371.4Q163.4 356.65 164.55 341.65Q168.95 282.75 174.65 224.05L175.35 216.6L175.3 216.65Q173.55 217.9 171.45 218Q170.4 217.1 170.15 215.75Q169.8 213.9 170 212L170.2 209.75L176.3 206.05Q180.45 156.45 181.1 106.25Q181.15 104.5 181.85 103.5L179.95 103L179.6 101.45L179.4 100Q179.3 98.4 179.95 97L183.95 95.9M183.3,103.8Q186.1 152.55 182.4 201.6L185.9 198.65L186.2 196.25L186.6 198Q202.9 183.05 209.8 160.45Q220.2 126.35 190.95 106.5Q187.8 104.4 184 103.9L183.3 103.8M277.95,166.5Q243.05 178.1 240.55 216.6Q238.7 244.55 238.7 273Q238.7 302.95 257.1 324.5Q261.95 330.15 269 326.55Q292.75 314.25 299.95 287.95Q313.7 237.6 295.9 190.15Q291.85 179.3 284.15 170.65Q282.35 168.65 280.25 167.35Q279.2 166.75 277.95 166.5M130.5,92.9Q133.1 94.35 134.7 96.75L134.95 97.5Q135.9 101.2 135 105L133.95 107.25L133.2 107.65Q131.75 107.7 130.45 106.5L74.55 108.45Q76.45 162.8 75.15 218.5Q73.8 278.25 71.6 337.75Q69.95 381.85 64.5 424.7Q59 412.2 60.9 395.3Q63.4 373 64.65 350.5Q67.95 291 68.5 231.25Q69.05 171.75 70.2 112.75Q70.25 110.6 70.6 108.65L21.9 112.05Q21.1 112.1 20.25 111.5L20 110.75Q19 107 19.45 103.2Q19.6 101.95 20.5 101L66.1 96.2L99.95 92L129.45 92.25L130.5 92.9M145.45,132.75L144.55 251.25L143.9 311.25Q143.05 365.95 136.95 419.9Q136.85 420.6 135.95 421.2Q130.25 407.8 132.1 391.25Q135.4 361.4 136.05 331.5L136.95 278.45Q118.2 280.85 99.4 278.65Q97.65 320.75 95.5 362.75Q93.95 393.35 89.5 422.7Q84.1 410.2 85.65 393.3Q91.1 334 93.45 274.25Q95.8 215.05 96.1 155.75Q96.15 139.2 101.2 125.75Q102.9 184.25 100.7 244.25L99.85 267.7L135.95 266.75L137.1 267.6L137.5 212.25Q137.7 171.45 144.95 132.85L145.45 132.75" />
</g>
</svg>
