<?xml version="1.0" encoding="utf-8"?>
<svg version="1.1" id="Layer_1"
xmlns="http://www.w3.org/2000/svg"
xmlns:xlink="http://www.w3.org/1999/xlink"


xml:space="preserve">
q-3.7 57.3 -5.15 115.1q-0.35 15 -2.65 29.8q-2.6 16.85 3.75 29.45q1.15 -0.85 1.35 -2.25q4.35 -31.9 5.65 -64.4q2.15 -54.55 1 -107.7q25.4 -0.15 51.25 0.4q2.2 -3 2.15 -6.75q-0.4 -1.55 -1.15 -3q-31.2 -0.75 -62.75 -1.1q-5 -0.55 -10.1 0.85q-2 0.55 -3.65 1.85q-1.15 2.5 -1 5.25q-8.15 11.5 -1.15 21.8q1.7 44.6 -11.15 86.15q-2.35 0.85 -4.65 0.65q-10.85 -0.9 -16.85 -11.65q-7.05 18.65 11.25 30q16.15 0.05 19.3 -16q11.4 -58.35 8.7 -116.95q-7.25 11.65 -6.6 27.8q-6.9 -32.3 -39.2 -32.9q-19.05 11.3 -23.7 33.9q-8.55 41.75 -10.2 85q-1.2 31.2 11.45 58.2q3.6 7.6 11.8 9.5q32.15 7.4 43.7 -22.7q21.55 -56.25 9.4 -115.55q-4.9 22.95 -25.8 32.05q-8.9 3.9 -18.3 1.05q-12.6 -3.8 -14.35 -16.8q-8 -59.5 4.85 -117.75q5.25 -23.9 29.4 -24.5q2.05 0.05 4.05 0.6q0.3 0.1 0.55 0.35q10.65 18.15 16.45 39.35q11.45 42 2.25 85.35q-0.15 -2.8 -1.15 -5.25q-18.5 -0.4 -36.4 -0.4q-2.1 20.1 -3.25 40.1q-2.1 35.6 -6.8 70.8q-4.15 31.05 5.35 59.4q1.75 -1.45 1.9 -3.7q3.55 -48.6 5 -97.3q1.05 -34.7 -0.95 -69.3q-3.4 2.15 -9 1.7q-4.15 -0.3 -7.6 1.4q0.25 -30.3 0.1 -60.1q-6.4 42.8 -5.5 87.65q0.45 22.75 -3.75 44.75q-3.25 16.8 2.75 29.5q5.55 -21 6 -43.5q15.1 1.55 29.85 0.85q-1.45 29.85 -6.2 58.95q-2.75 16.85 3.8 29.45q6.3 -33.3 8.1 -68.15q3.05 -59.35 1.9 -117.8q-4.25 9.4 -4.65 22.5q-0.8 28.8 -2.1 57.5<g id="1117" transform="matrix(1, 0, 0, 1, -139.6, 0)">
<path style="fill:#000000;fill-opacity:1" d="M340.15,192.9L339.7 191.5L339.55 190.7L339.45 189.25Q339.3 186.5 340.45 184Q342.1 182.7 344.1 182.15L347.85 181.1Q352.95 179.7 357.95 180.25Q389.5 180.6 420.7 181.35L422.2 181.75Q422.95 183.2 423.35 184.75L423.55 185.45L423.85 187.75Q423.9 191.5 421.7 194.5Q395.85 193.95 370.45 194.1Q371.6 247.25 369.45 301.8Q368.15 334.3 363.8 366.2Q363.6 367.6 362.45 368.45Q356.1 355.85 358.7 339Q361 324.2 361.35 309.2Q362.8 251.4 366.5 194.1L340.95 194.5L340.15 192.9M417.55,217.75L415.2 221.25L413.8 229.85Q406.8 219.55 414.95 208.05L417.55 217.75M415.45,238.25Q418.15 296.85 406.75 355.2Q403.6 371.25 387.45 371.2Q369.15 359.85 376.2 341.2Q382.2 351.95 393.05 352.85Q395.35 353.05 397.7 352.2Q410.55 310.65 408.85 266.05Q408.2 249.9 415.45 238.25M338.4,228.35Q350.55 287.65 329 343.9Q317.45 374 285.3 366.6Q277.1 364.7 273.5 357.1Q260.85 330.1 262.05 298.9Q263.7 255.65 272.25 213.9Q276.9 191.3 295.95 180Q328.25 180.6 335.15 212.9L338.4 228.35M329.9,232.35Q324.1 211.15 313.45 193Q313.2 192.75 312.9 192.65L312 192.35Q310 191.8 307.95 191.75Q283.8 192.35 278.55 216.25Q265.7 274.5 273.7 334Q275.45 347 288.05 350.8Q297.45 353.65 306.35 349.75Q327.25 340.65 332.15 317.7Q341.35 274.35 329.9 232.35M220.7,196.25L179.7 196.65Q181.7 231.25 180.65 265.95Q179.2 314.65 175.65 363.25Q175.5 365.5 173.75 366.95Q164.25 338.6 168.4 307.55Q173.1 272.35 175.2 236.75Q176.35 216.75 178.45 196.65L141.5 196L140.1 193.7L139.85 192.95L139.6 190.75L139.6 188.9L140 187.05L141.05 184.45L148.95 183.15Q166.85 183.15 185.35 183.55L221.2 184.25Q222.2 186.7 222.35 189.5L222.35 191.4L222.1 193.15L221.9 194L221.6 194.8L220.7 196.25M245.8,207Q246.2 193.9 250.45 184.5Q251.6 242.95 248.55 302.3Q246.75 337.15 240.45 370.45Q233.9 357.85 236.65 341Q241.4 311.9 242.85 282.05L243.1 277.05Q228.35 277.75 213.25 276.2L212.45 325.2Q212 347.7 206.45 368.7Q200.45 356 203.7 339.2Q207.9 317.2 207.45 294.45Q206.55 249.6 212.95 206.8L213.45 206.75Q213.6 236.55 213.35 266.85Q216.8 265.15 220.95 265.45Q226.55 265.9 229.95 263.75L243.7 264.5Q245 235.8 245.8 207" />
</g>
</svg>
