<?xml version="1.0" encoding="utf-8"?>
<svg version="1.1" id="Layer_1"
xmlns="http://www.w3.org/2000/svg"
xmlns:xlink="http://www.w3.org/1999/xlink"


xml:space="preserve">
q-6.4 14.8 -7.15 33.7q-0.7 17.85 -2.05 35.9q-4.35 59.3 -5.2 118.65q-0.65 48.1 4.5 94.75q-10.15 -34.55 -19.75 -70.8q-15.6 -57.1 -36.35 -111.6q-1.45 -0.25 -1.7 1.05q-0.85 4.15 -0.8 8.35q-4.05 13.4 -3.5 29.35q1.95 59.2 0.3 118.5q-1.65 59.15 -4.3 118.45q-3.15 10.1 -0.9 20.95q-5.4 16.1 2.75 26q5.9 -20.15 6.95 -41.9q2.4 -59.25 1.65 -118.55q13.45 37.2 24.15 75.05q16.1 56.85 29.9 114.25q13.6 56.55 32.25 111.85q1.6 1.9 3.75 1.25q1.75 -6.85 0.9 -13.45q5.35 -12.05 1 -23.45q-2.2 -43.8 -2.9 -87.7q-0.1 -6.55 0.2 -12.7q2.8 -59.15 6.2 -118.5q1.75 -30.2 0.25 -59.3q-11.7 43.6 -14.6 89.9q-0.95 14.4 -3.75 28.4q-3.15 -29.9 -8.65 -59.45q0.35 -5.75 0.3 -11.45q-5.45 5.45 -7.2 13.95q-5.15 25.55 -12.7 50.15q-3.7 -59.35 -10.95 -117.8q-4.25 3.7 -3.65 11.3q3.9 47.25 6.85 94.5q1.9 30.45 7.55 59.15q5.35 -7.5 4.3 -18.2q2.2 -6.75 3.4 -14.1q2.15 -13.25 5.85 -26.05q2.45 -8.6 4.15 -17.15q4.15 22.85 5.35 46.1q0.8 15.4 7.7 26.65q1.55 -0.65 1.45 -2.2q6.65 -25 8.3 -51.6q1.6 -26.35 5.1 -52.45q3 -22.55 2.6 -43.65q-7.45 -7.9 -18.05 -6.4q-6.1 135.3 -25.15 269.45q-2 14.1 -1.45 28.45q0.35 8.85 2.9 15.8q18.65 -80.35 19.75 -164.4q4.7 91.95 29.45 172.85q-4.8 -89.15 -23.9 -177.25q28.8 -28.15 30.7 -69.7q0.8 -17.15 -2.7 -34q-2.8 -13.6 -8.2 -26.55q-3.15 -7.55 -8.05 -13.7q-5.7 1.5 -10.55 4.95q-11.15 24.6 -16.15 51.5q-4.85 26 -6.55 52.6q-1.9 30.1 6.8 58.3q5.35 17.5 22.1 7.35q10.9 -6.65 16.6 -17.75q17.8 -34.75 17.85 -74.25q0.1 -44.75 -21.65 -81.75q3.45 0.05 5.75 2.4q0.35 2.25 1.15 4.25q22.4 58 2.55 117.05q-7.7 22.95 -30.2 25.2q-9.5 -15.25 -9.35 -34.5q0.35 -58.4 21.35 -111q0.9 22.35 -8.3 42.7q-8.7 19.3 -24.65 32.65q-3.45 1.85 -6.9 3.65q6 -66.7 5.15 -133.7q6.65 0.1 12.6 3.2q7.6 4 11.7 11.55q9.55 18.85 10.4 39.95q-43.2 -1.75 -85.05 8.05q-8.45 1.95 -16.65 4.7q-2.25 4.5 -0.55 9.15q24.6 -5.05 49.65 -6.1q-8.9 130.75 -12.2 262.05q-0.45 17.15 0.45 34.4q0.25 4.6 3.85 7q9.3 -144.75 10.1 -290q3.55 -6 0.4 -12.35q-0.95 59.55 -4.8 118.55q-3.9 59.25 -6.75 118.45q-0.45 9.15 -0.85 11.7q-3.45 10.7 3.5 21.25q0.85 -0.6 0.9 -1.3q3.9 -55.25 7 -110.95q19.15 5.2 38.85 1.95q-0.65 15.05 -3.35 29.65q-2.8 14.8 5.9 21.25q4.6 -56.65 5.5 -113.95q1 -59.75 6.15 -118.6q2.3 -30.3 1.2 -59.35q-9.3 29.6 -10.15 63.75q-1.2 45.35 -2.85 90.75q-19.95 -0.2 -38.9 2.2q1.3 -30.5 0.85 -59.2q-5.35 8.15 -5.55 20q-12.05 21.55 -16.3 46.65q-2.5 14.6 -6.45 28.95q-3.8 13.65 3.75 25.4q3.05 39.45 10.2 77.8q0.3 1.75 1.55 3.15q0.7 0.85 1.7 1.5q3.4 -12.4 1.95 -26.05q-1.6 -33.15 -8.8 -62.75<g id="1130" transform="matrix(1, 0, 0, 1, -18.5, 0)">
<path style="fill:#000000;fill-opacity:1" d="M486.2,145.55Q482.8 204.9 480 264.05Q479.7 270.2 479.8 276.75Q480.5 320.65 482.7 364.45Q487.05 375.85 481.7 387.9Q482.55 394.5 480.8 401.35L479.95 402.95Q477.8 403.6 476.2 401.7Q457.55 346.4 443.95 289.85Q430.15 232.45 414.05 175.6Q403.35 137.75 389.9 100.55L391.45 196Q392.2 255.3 389.8 314.55L387.9 356.55Q386.85 378.3 380.95 398.45Q372.8 388.55 378.2 372.45Q375.95 361.6 379.1 351.5L379.45 350.95Q382.1 291.65 383.75 232.5Q385.4 173.2 383.45 114Q382.9 98.05 386.95 84.65Q386.9 80.45 387.75 76.3Q388 75 389.45 75.25Q410.2 129.75 425.8 186.85L456.45 300.65Q466.05 336.9 476.2 371.45L476.55 369.25Q471.4 322.6 472.05 274.5Q472.9 215.15 477.25 155.85Q478.6 137.8 479.3 119.95Q480.05 101.05 486.45 86.25Q487.95 115.35 486.2 145.55M366.45,240.75Q366.85 261.85 363.85 284.4Q360.35 310.5 358.75 336.85Q357.1 363.45 350.45 388.45L350 387.6L350.4 393.75Q350.5 395.3 348.95 395.95Q342.05 384.7 341.25 369.3Q340.05 346.05 335.9 323.2Q334.2 331.75 331.75 340.35Q328.05 353.15 325.9 366.4Q324.7 373.75 322.5 380.5Q323.55 391.2 318.2 398.7Q312.55 370 310.65 339.55Q307.7 292.3 303.8 245.05Q303.2 237.45 307.45 233.75Q314.7 292.2 318.4 351.55L318.65 354.65L319.3 352.35Q326.85 327.75 332 302.2Q333.75 293.7 339.2 288.25Q339.25 293.95 338.9 299.7Q344.4 329.25 347.55 359.15Q350.35 345.15 351.3 330.75Q354.2 284.45 365.9 240.85L366.45 240.75M264.15,95.05Q269.55 108 272.35 121.6Q275.85 138.45 275.05 155.6Q273.15 197.15 244.35 225.3Q263.45 313.4 268.25 402.55Q243.5 321.65 238.8 229.7L229.05 234.9Q227.95 318.95 209.3 399.3L209.1 399.45Q206.55 392.5 206.2 383.65Q205.65 369.3 207.65 355.2Q226.7 221.05 232.8 85.75L232.75 76.45L234.7 75.3L235.2 72.75L235.25 75.2L238.05 74.95Q248.65 73.45 256.1 81.35Q261 87.5 264.15 95.05M194,70.2L196.45 70.75Q218.2 107.75 218.1 152.5Q218.05 192 200.25 226.75Q194.55 237.85 183.65 244.5Q166.9 254.65 161.55 237.15Q152.85 208.95 154.75 178.85Q156.45 152.25 161.3 126.25Q166.3 99.35 177.45 74.75Q182.3 71.3 188 69.8L188.95 69.25L194 70.2M183.9,85.8L181.95 86.5Q160.95 139.1 160.6 197.5Q160.45 216.75 169.95 232Q192.45 229.75 200.15 206.8Q220 147.75 197.6 89.75Q196.8 87.75 196.45 85.5Q194.15 83.15 190.7 83.1L189.2 83.25L183.9 85.8M259.75,100.45Q255.65 92.9 248.05 88.9Q242.1 85.8 235.45 85.7Q236.3 152.7 230.3 219.4Q233.75 217.6 237.2 215.75Q253.15 202.4 261.85 183.1Q271.05 162.75 270.15 140.4Q269.3 119.3 259.75 100.45M123.1,83.65L73.75 88.05L73.8 101.35Q73 246.6 63.7 391.35L63.25 391.6Q59.65 389.2 59.4 384.6Q58.5 367.35 58.95 350.2Q62.25 218.9 71.15 88.15Q46.1 89.2 21.5 94.25L20.2 91.4Q18.5 86.75 20.75 82.25Q28.95 79.5 37.4 77.55Q79.25 67.75 122.45 69.5L123.5 71.3Q126.65 77.65 123.1 83.65M99.45,104.5Q99.9 133.2 98.6 163.7L95.55 231.95Q114.5 229.55 134.45 229.75Q136.1 184.35 137.3 139Q138.15 104.85 147.45 75.25Q148.55 104.3 146.25 134.6L143.85 164.4Q138.7 223.25 137.7 283Q136.8 340.3 132.2 396.95Q123.5 390.5 126.3 375.7Q129 361.1 129.65 346.05L133.4 257.5L133.9 244.5Q114.2 247.75 95.05 242.55L92.9 282.2Q89.8 337.9 85.9 393.15Q85.85 393.85 85 394.45Q78.05 383.9 81.5 373.2Q81.9 370.65 82.35 361.5Q85.2 302.3 89.1 243.05Q92.95 184.05 93.9 124.5Q94.1 112.65 99.45 104.5M288.45,236L296.15 290Q303.35 319.6 304.95 352.75L305.6 361.25Q307.05 374.9 303.65 387.3Q302.65 386.65 301.95 385.8Q300.7 384.4 300.4 382.65Q293.25 344.3 290.2 304.85L276.75 304.8L269.45 335.5Q261.9 323.75 265.7 310.1Q269.65 295.75 272.15 281.15Q276.4 256.05 288.45 234.5L288.45 236M285.85,266.6L279.95 292.05L288.6 290.55L285.85 266.6" />
</g>
</svg>
