<?xml version="1.0" encoding="utf-8"?>
<svg version="1.1" id="Layer_1"
xmlns="http://www.w3.org/2000/svg"
xmlns:xlink="http://www.w3.org/1999/xlink"


xml:space="preserve">
q6.05 3.5 13.85 2.95q-3 73.65 -0.7 145.9q0.05 1.65 0.65 3.35q2.4 -1 2.5 -3.55q7.05 -147.15 10.75 -294.65q0.15 -5.2 -0.25 -10.3q0.15 -2.1 -0.25 -4.15q-0.4 -2.05 -1.25 -3.95q-3.9 -1.5 -8.1 -2.35q-10.05 -2.1 -19.75 1.1q0.95 59.5 -1.3 118.5q-12.1 1.2 -24.5 -1.05q3.95 -59.5 5.5 -117.65q-8.1 17.7 -8.15 39.75q-0.15 59.6 -4.35 118.55q-4.2 59.3 -10.05 118.3q-1 10.5 5.55 13.6q5.55 -26.35 6.2 -54q1.05 -45 3.55 -89.85q4.8 0.35 9.65 1.45q14.65 3.35 27 -0.45q-2.45 45.65 -6.95 91q-3.05 30.7 0.55 59.35q1.4 -0.5 1.5 -1.15q5.5 -38.8 7.55 -78.55q3 -59.25 4.65 -118.5q1.65 -59.95 0.3 -118.5q-5.25 8.45 -5.05 19.75q-11.05 33.4 -42.65 48.15q-4.9 2.3 -10.15 2.35q-53.05 0.5 -65.5 -49.9q-14.35 -58.15 -4.95 -117.55q4.2 -26.6 17.05 -50.05q19.3 -35.15 57.9 -42q20.5 1.55 34.35 16.45q7.35 8 11.6 17.95q23.65 55.35 15.85 115.45q-3.9 30.2 -13.5 59.15q-12.3 -35.75 -47.35 -46.3q-0.7 0.45 -1.1 1.25q-15.3 -2 -30.8 7.25q-21.45 12.8 -34 34.2q-13.9 23.65 -18.4 50.8q-9.7 58.7 -2.2 118.1q4.65 36.9 32.6 60.6q23.75 20.1 53.05 11.45q13.9 -4.15 22.8 -15.6q36.65 -47.25 42.5 -107.5q5.8 -60.25 -13.7 -117q-9.7 44.3 -10.65 92.5q-1.05 0.1 -2.25 0.9q-1.25 0.9 -2.75 1.4q-8.5 -3.35 -17.5 -4.25q3.65 -59.6 4.3 -117.75q-0.6 -0.2 -0.7 0.3q-6.45 25.65 -7.25 52.95q-0.5 2.65 -0.15 5.3q-2.3 59.15 -4.1 117.7q0.75 2.8 3.25 1.5q1.8 -27.3 2.8 -54.8q1.95 -52.25 5 -104.2q9.15 1 18.75 -1.1q4.05 -0.9 7.65 0.75q10.2 4.7 18.75 2.05q-0.95 29.7 -4 59.05q-1.75 17.1 4.2 28.4q1.15 -0.85 1.35 -2.25q3.75 -29.65 4.35 -60q1.15 -59.25 3 -118.45q1.85 -59.2 6.55 -117q19.6 0.85 38.9 -1.05q-4.9 40.5 -6.05 83.25q-1.6 59.3 -4.7 118.45q-1.55 29.45 -2.65 59.2q-0.5 13.55 5.3 21.55q3.45 -27.45 3.8 -56.25q0.8 -59.25 4.05 -118.4q3 -54.6 1.9 -107.95q13.65 -1.45 27.2 -4.25q16.05 -3.35 28.5 -0.1q5.6 1.25 6.45 -5.25q0.75 -5.55 -3.2 -9q-55.65 11.05 -113.45 8.5q-3 4.2 -1.15 9.45<g id="1129" transform="matrix(1, 0, 0, 1, -32.5, 0)">
<path style="fill:#000000;fill-opacity:1" d="M381.95,102L383.05 106.15Q392.75 102.95 402.8 105.05Q407 105.9 410.9 107.4L411.2 107.9Q412.05 109.8 412.45 111.85Q412.85 113.9 412.7 116L412.15 118.3L411.2 120.5L384.95 121.2Q385.35 126.3 385.2 131.5Q381.5 279 374.45 426.15Q374.35 428.7 371.95 429.7Q371.35 428 371.3 426.35Q369 354.1 372 280.45L378.55 121.65L349.3 124.7Q341.5 125.25 335.45 121.75L335.7 114.25L380.85 106.75L381.95 102M450.2,109Q451.55 167.55 449.9 227.5Q448.25 286.75 445.25 346Q443.2 385.75 437.7 424.55Q437.6 425.2 436.2 425.7Q432.6 397.05 435.65 366.35Q440.15 321 442.6 275.35Q430.25 279.15 415.6 275.8Q410.75 274.7 405.95 274.35Q403.45 319.2 402.4 364.2Q401.75 391.85 396.2 418.2Q389.65 415.1 390.65 404.6Q396.5 345.6 400.7 286.3Q404.9 227.35 405.05 167.75Q405.1 145.7 413.2 128Q411.65 186.15 407.7 245.65L406.6 263.1L409 262.45L418.7 261.75Q431.1 264 443.2 262.8L443.85 247.25Q446.1 188.25 445.15 128.75Q444.95 117.45 450.2 109M346.75,289.6Q354.55 229.5 330.9 174.15Q326.65 164.2 319.3 156.2Q305.45 141.3 284.95 139.75Q246.35 146.6 227.05 181.75Q214.2 205.2 210 231.8Q200.6 291.2 214.95 349.35Q227.4 399.75 280.45 399.25Q285.7 399.2 290.6 396.9Q322.2 382.15 333.25 348.75Q342.85 319.8 346.75 289.6M355,289.55Q349.15 349.8 312.5 397.05Q303.6 408.5 289.7 412.65Q260.4 421.3 236.65 401.2Q208.7 377.5 204.05 340.6Q196.55 281.2 206.25 222.5Q210.75 195.35 224.65 171.7Q237.2 150.3 258.65 137.5Q274.15 128.25 289.45 130.25L290.05 128.8Q290.45 128 291.15 127.55L293.95 126.25Q329 136.8 341.3 172.55Q360.8 229.3 355 289.55M188.2,120.75L188.95 121.5Q184.25 179.3 182.4 238.5Q180.55 297.7 179.4 356.95Q178.8 387.3 175.05 416.95Q174.85 418.35 173.7 419.2Q167.75 407.9 169.5 390.8Q172.55 361.45 173.5 331.75L175.15 273.15Q166.6 275.8 156.4 271.1Q152.8 269.45 148.75 270.35Q139.15 272.45 130 271.45Q126.95 323.4 125 375.65Q124 403.15 122.2 430.45Q119.7 431.75 118.95 428.95Q120.75 370.4 123.05 311.25L124.7 268.5Q124.35 265.85 124.85 263.2L124.9 263L127.25 192Q128.05 164.7 134.5 139.05Q134.6 138.55 135.2 138.75Q134.55 196.9 130.9 256.5L130.7 260.05L151.95 257.75Q160.95 258.65 169.45 262L170.45 262.5Q171.95 262 173.2 261.1Q174.4 260.3 175.45 260.2L176.55 212.5Q177.5 164.3 187.2 120L188.2 120.75M34.75,131.75L34.35 130.95Q32.5 125.7 35.5 121.5Q93.3 124.05 148.95 113L159.45 113.25Q163.4 116.7 162.65 122.25Q161.8 128.75 156.2 127.5Q143.75 124.25 127.7 127.6Q114.15 130.4 100.5 131.85Q101.6 185.2 98.6 239.8Q95.35 298.95 94.55 358.2Q94.2 387 90.75 414.45Q84.95 406.45 85.45 392.9Q86.55 363.15 88.1 333.7Q91.2 274.55 92.8 215.25Q93.95 172.5 98.85 132Q79.55 133.9 59.95 133.05L35.5 132.1L34.75 131.75" />
</g>
</svg>
