<?xml version="1.0" encoding="utf-8"?>
<svg version="1.1" id="Layer_1"
xmlns="http://www.w3.org/2000/svg"
xmlns:xlink="http://www.w3.org/1999/xlink"


xml:space="preserve">
q-6.05 20.8 -8.85 44.2q-5.25 43.9 -14.95 86.75q-6.65 29.55 -6.7 58.75q1.25 0 1.65 -0.55q4.15 -6.55 5.6 -14.25q10.95 -58.05 20.1 -116.2q1.75 -10.9 2.6 -21.7q0.4 5.5 1.15 11.1q1.9 16 6.85 28.3q6.95 -15.25 9.35 -33.25q2.3 -17.4 7.85 -34.25q5.7 -17.45 7.6 -34.75q1.55 25.15 3.4 50.6q4.35 58.9 13.55 116.9q0.6 2.65 3 2q3.25 -16.8 -0.05 -34.55q-3.25 -17.55 -4.3 -35.3q-3.4 -56.4 -14.85 -110.75q0.25 -6.2 -0.05 -12.35q-3.5 2.9 -5.1 8.75q-14.25 51.9 -21.35 104.75q-3.15 -53.9 -12.55 -106.75q-0.75 -0.2 -1.05 0.15q-5.2 80.75 -4.45 161.15q0 2.5 1.1 4.95q7.75 -85.1 4.65 -170.5q4.3 -5.95 -0.15 -11.5q-16.55 12.6 -23.55 32.2q-6.9 19.45 -3.5 39.95q4.15 25 29.4 26.45q24.95 0.95 34.25 -21.05q8.1 -19.15 6.9 -40.15q-1.45 -24.85 -21.9 -34.1q-10.35 -4.7 -21.6 -3.3q19.25 10.15 22.45 33.6q3.35 24.7 -20.75 33.45q-17.05 6.2 -33.4 -2.6q-12.7 -27.55 5 -52.9q5 -7.2 12 -12.35q-0.15 -11.05 -1 -21.9q-11.1 41.65 -6.85 85.45q-6.55 54.15 -7.3 108.7q-0.45 11.25 4.3 21.3q8.25 -46.1 4.95 -93.35q15.75 -3.15 31.6 -1.1q0.05 39.5 -1.95 78.75q-0.4 8 3.6 14.95q5.85 -47.4 4.1 -95.3q1.9 -18.5 2.3 -38.1q0.4 -18.7 0.1 -37.4<g id="1126" transform="matrix(1, 0, 0, 1, -134.5, 0)">
<path style="fill:#000000;fill-opacity:1" d="M353.45,185.5Q362.85 238.35 366 292.25Q373.1 239.4 387.35 187.5Q388.95 181.65 392.45 178.75Q392.75 184.9 392.5 191.1Q403.95 245.45 407.35 301.85Q408.4 319.6 411.65 337.15Q414.95 354.9 411.7 371.7Q409.3 372.35 408.7 369.7Q399.5 311.7 395.15 252.8Q393.3 227.35 391.75 202.2Q389.85 219.5 384.15 236.95Q378.6 253.8 376.3 271.2Q373.9 289.2 366.95 304.45L366.05 304.15L365.45 304.7Q360.5 292.4 358.6 276.4L352.8 229.85Q352.05 224.25 351.65 218.75Q350.8 229.55 349.05 240.45Q339.9 298.6 328.95 356.65Q327.5 364.35 323.35 370.9Q322.95 371.45 321.7 371.45Q321.75 342.25 328.4 312.7Q338.1 269.85 343.35 225.95Q346.15 202.55 352.2 181.75L352.4 185.65Q352.7 185.3 353.45 185.5M203.45,195.25L170.4 197.95Q173.5 283.35 165.75 368.45L163.5 364.05Q162.4 361.6 162.4 359.1Q161.65 278.7 166.85 197.95L134.75 196L134.5 187L202.7 183.1L203.3 183.75Q207.75 189.3 203.45 195.25M291.55,275Q312 284.25 313.45 309.1Q314.65 330.1 306.55 349.25Q297.25 371.25 272.3 370.3Q247.05 368.85 242.9 343.85Q239.5 323.35 246.4 303.9Q253.4 284.3 269.95 271.7Q281.2 270.3 291.55 275M269.7,284.7Q262.7 289.85 257.7 297.05Q240 322.4 252.7 349.95Q269.05 358.75 286.1 352.55Q310.2 343.8 306.85 319.1Q303.65 295.65 284.4 285.5L269.7 284.7M236.1,236.3Q235.7 255.9 233.8 274.4Q235.55 322.3 229.7 369.7Q225.7 362.75 226.1 354.75Q228.1 315.5 228.05 276Q212.2 273.95 196.45 277.1Q199.75 324.35 191.5 370.45Q186.75 360.4 187.2 349.15L187.95 322.45Q188.7 267.9 195.25 213.75L196.35 263.7L228.35 262.45Q224.1 218.65 235.2 177Q236.05 187.85 236.2 198.9Q236.5 217.6 236.1 236.3" />
</g>
</svg>
