<?xml version="1.0" encoding="utf-8"?>
<svg version="1.1" id="Layer_1"
xmlns="http://www.w3.org/2000/svg"
xmlns:xlink="http://www.w3.org/1999/xlink"


xml:space="preserve">
q-1.9 -2.3 -4.1 -4.15q-8.05 -6.85 -18.3 -9.8q-10.95 -0.05 -21.8 2q17.15 11.7 18.9 35.3q1.5 20.4 -5.25 39.75q-7.55 21.65 -27.9 32.35q-12.5 6.45 -26.6 6.6q-11.35 53.3 -11.25 108.75q-5.95 0 -6.75 6.6q-0.3 2.65 0.55 5.25q-3.1 80.35 -20.25 158.25q-1.75 8.05 -0.65 16.2q0.85 6.35 4.75 11.4q18.3 -91.75 22.8 -185.35q19.9 80.95 46.5 160.25q9.6 28.5 19.6 56.95q2.4 6.7 6.4 12.5q3.8 -16.25 -0.55 -31.9q-29.45 -86.6 -57.3 -173.45q-4.35 -13.55 -8.1 -27.25q19.85 -4.95 30.6 -22.55q7.65 -12.45 11.95 -26.5q6.8 -22.2 5.45 -45.35q-0.65 -11.6 -6.6 -21.65q-1.45 -2.45 -3.3 -4.7q-12.15 3 -24.7 8.9q-19.35 9.1 -25.75 29.35q-12.45 39.3 -21.7 79.4q-13.5 58.25 -6.6 118.1q5 43.75 43.9 62.15q17.35 8.25 35.65 2.15q23.55 -7.85 39.5 -27.05q27.15 -32.75 37.6 -73.6q14.75 -57.95 7.05 -117.55q-3.95 -30.4 -18.85 -56.95q-17.2 -30.75 -51.6 -31.15q-3.55 -4.3 -8.05 -7.65q15.95 -1.05 27.9 11.35q6.85 7.1 10.9 15.9q23.6 51.1 20.4 108.05q-2.15 37.45 -18.25 71.3q-13.5 28.5 -34 52.65q-22.35 26.3 -55.7 16.8q-42.4 -12.05 -47.45 -56.4q-3.1 -27.5 0.15 -55.25q6.85 -58.4 20.4 -115.9q3.65 -15.45 14.9 -26.5q30.75 -30.3 69 -13.75q-58.85 2.15 -116.9 15.45q-3.05 4.85 -0.75 10.25q-7 46.1 -7.35 93.1q-0.25 29.7 -2.5 59.2q-3.4 44.05 -5.55 88.3q-0.75 15 -1 30q0 0.45 0.3 0.9q11.45 -115.3 15.85 -231.15q0.8 -20.35 0.3 -40.7q3 -5.35 -1.05 -9.6q0.45 39.9 -4.35 79.5q-1.95 16.25 -2.95 32.55q3.3 -38.05 5.85 -76.3q2.05 -30.5 -3.35 -59.3q-0.75 0.1 -0.9 0.5q-2.35 5.55 -2.2 11.75q1.7 60.25 -6.55 119.15q-0.85 3.15 0.45 6q-5.95 51.15 -3.65 103.2q0.65 14.95 -1.2 29.75q-1.7 13.6 4.6 21.7q5.15 -16.35 4 -34.55q-2.85 -44.75 1.45 -89.05q12.95 -1.35 26.15 0.85q6.5 1.1 10.5 0q-1.35 36.05 1.95 72.2q1.4 14.95 0.35 29.85q-1.55 22.5 -0.8 44.35q1.3 2.05 3.5 0.75q6.9 -25.25 4 -52.3q-5.95 -55.35 -0.3 -111.05q6 -59.5 2.05 -118.6q-1.85 4.3 -2.35 8.9<g id="1137" transform="matrix(1, 0, 0, 1, -19.45, 0)">
<path style="fill:#000000;fill-opacity:1" d="M508.2,129.95Q514.15 140 514.8 151.6Q516.15 174.75 509.35 196.95Q505.05 211 497.4 223.45Q486.65 241.05 466.8 246Q470.55 259.7 474.9 273.25Q502.75 360.1 532.2 446.7L534.15 444.8Q538.5 460.45 534.7 476.7Q530.7 470.9 528.3 464.2Q518.3 435.75 508.7 407.25Q482.1 327.95 462.2 247L448.75 248.1Q444.25 341.7 425.95 433.45Q422.05 428.4 421.2 422.05Q420.1 413.9 421.85 405.85Q439 327.95 442.1 247.6L426.45 243Q425.6 240.4 425.9 237.75Q426.7 231.15 432.65 231.15L434.45 235L442.95 236.25Q442.85 180.8 454.2 127.5L449.75 236.4Q463.85 236.25 476.35 229.8Q496.7 219.1 504.25 197.45Q511 178.1 509.5 157.7Q507.75 134.1 490.6 122.4L446.95 114.1L456.15 112.65Q467 110.6 477.95 110.65L482.5 111.3Q492.75 114.25 500.8 121.1Q503 122.95 504.9 125.25Q506.75 127.5 508.2 129.95M334.5,141L334.7 139.5L335.05 138L335.7 136.5L336.5 136.2L348.95 135.5Q383.35 135.9 400.55 166.65Q415.45 193.2 419.4 223.6Q427.1 283.2 412.35 341.15Q401.9 382 374.75 414.75Q358.8 433.95 335.25 441.8Q316.95 447.9 299.6 439.65Q260.7 421.25 255.7 377.5Q248.8 317.65 262.3 259.4Q271.55 219.3 284 180Q290.4 159.75 309.75 150.65Q322.3 144.75 334.45 141.75L334.5 141M365.45,159.25Q327.2 142.7 296.45 173Q285.2 184.05 281.55 199.5Q268 257 261.15 315.4Q257.9 343.15 261 370.65Q266.05 415 308.45 427.05Q341.8 436.55 364.15 410.25Q384.65 386.1 398.15 357.6Q414.25 323.75 416.4 286.3Q419.6 229.35 396 178.25Q391.95 169.45 385.1 162.35Q373.15 149.95 357.2 151Q361.7 154.35 365.25 158.65L365.45 159.25M225.3,116.65L121.35 130.6Q121.85 150.95 121.05 171.3Q116.65 287.15 105.2 402.45L102.8 402.5Q102.5 402.05 102.5 401.6Q102.75 386.6 103.5 371.6Q105.65 327.35 109.05 283.3Q111.3 253.8 111.55 224.1Q111.9 177.1 118.9 131L21.75 150.75Q19.45 145.35 22.5 140.5L59.9 132.35L106.8 121.95Q164.85 108.65 223.7 106.5L224.25 107.05Q228.3 111.3 225.3 116.65M224.8,153.35L225.2 153.25Q229.15 212.35 223.15 271.85Q217.5 327.55 223.45 382.9Q226.35 409.95 219.45 435.2Q217.25 436.5 215.95 434.45Q215.2 412.6 216.75 390.1Q217.8 375.2 216.4 360.25Q213.1 324.1 214.45 288.05Q210.45 289.15 203.95 288.05Q190.75 285.85 177.8 287.2L155.05 288.6L152.15 319.6Q147.85 363.9 150.7 408.65Q151.85 426.85 146.7 443.2Q140.4 435.1 142.1 421.5Q143.95 406.7 143.3 391.75Q141 339.7 146.95 288.55L145.95 288.5Q144.65 285.65 145.5 282.5L145.7 281.75L147.9 280.9L148.8 273.9Q157.05 215 155.35 154.75Q155.2 148.55 157.55 143Q157.7 142.6 158.45 142.5Q163.85 171.3 161.8 201.8Q159.25 240.05 155.95 278.1L215.15 274.3Q216.15 258 218.1 241.75Q222.9 202.15 222.45 162.25Q222.95 157.65 224.8 153.35" />
</g>
</svg>
