<?xml version="1.0" encoding="utf-8"?>
<svg version="1.1" id="Layer_1"
xmlns="http://www.w3.org/2000/svg"
xmlns:xlink="http://www.w3.org/1999/xlink"


xml:space="preserve">
q-2.75 21.4 -1.85 43.4q1.2 28.95 0.7 57.7q-1.05 60.05 -5.65 119.25q-1.15 15.2 -4 29.7q-2.7 14 5 22.25q6 -44.9 7.65 -90.65q0.35 0.8 1.05 1.4q10.5 -3.55 18.5 -9.3q15.2 3.5 21.5 17.9q8.6 19.85 11.1 41.9q3.8 33.25 -19.05 58.15q-16 17.45 -37.65 18.95q-2.85 3.6 -2.85 8.25q0 4.7 2.85 8.25q2.2 1.05 4.55 1.45q3.7 0.7 6.8 -0.8q60.25 -28.95 54.9 -94.35q-1.1 -13.65 -1.9 -27.1q-1.8 -30.7 -26.85 -42.35q11.55 -13.15 14.8 -33.7q4.25 -26.9 -6.15 -52q-12.5 -30.15 -43.5 -33.1q-0.8 -0.15 -0.9 0.35q-0.25 0 -0.5 0.15q-1.95 2 -1.85 5q0.05 1.9 0.5 3.7q-9.25 -3.3 -19.65 -2.55q-9.9 1.05 -15.4 9.85q-9.15 14.6 -15.65 30.75q-20.8 51.55 6.55 98.75q12.55 21.55 36 21.9q55.05 -41.15 38.5 -108.6q-3.7 -15.1 -10 -29.2q-7.7 -17.1 -23.2 -19.1q35.25 30.6 24.2 77.35q-5.3 22.4 -22.4 37.15q-11.1 9.6 -26 9q-52.1 -47.4 -15.7 -111.85q4.85 -8.6 10.95 -16.4q1.45 44.5 -41.15 56.95q1.7 -53.35 -1.65 -105.75q31.55 6.4 40.5 39.9q2 7.5 2.25 15.1q-0.25 2.25 0.1 4.5q0.25 1.95 1.75 3q-5.55 36.35 -6.2 74.4q-1.05 59.65 -7.9 118.45q-1.75 15 -5.2 29.6q-5.7 24 1.35 44.4q6.95 -20.15 9.1 -43.15q3.55 -38.2 5.95 -76.6q0.75 1.35 2.2 2.3q12.75 -2.2 23.05 -9.65q12.95 53.25 27.6 106.05q4.5 16.2 13.85 27.05q4.15 -9.4 -0.5 -18.65q2.4 -5.3 6 -9.75q-3.85 3.35 -7 6.75q-1.55 -3.15 -2.45 -6.5q-15.35 -54.15 -34.9 -106.7q5.95 -5.05 11.05 -12.05q9.1 -12.45 13 -27.3q8.8 -33.7 -0.3 -67.55q-10.5 -39.1 -48.9 -43.35q-0.65 1.85 -0.85 3.75q19.3 8.25 28.5 28.3q8.75 19.05 7.95 40.1q-0.8 21.8 -14.1 38.85q-13.65 17.55 -35.1 24.2q-13.95 0.95 -27.55 -1.4q-5.85 0.75 -11.95 3q0.75 -23 -1.45 -44.3q-4.45 4.75 -4.65 13q-1.45 59.15 -1.85 118.5q-0.25 37.45 -4.75 74.05q-2.9 23.5 1.25 44.4q7.4 -11.55 7.2 -28q-0.2 -14.4 0.1 -28.45q0.8 -37.9 1.9 -75.6q20.65 -3.6 42.05 -2.9q-0.45 22.85 -4.9 44.7q-3.55 17.5 4.05 30q6.75 -19.95 7.05 -42.95q0.65 -59.7 2.55 -119.25q1.9 -59.95 -0.1 -118.5q-3.95 3 -4.35 9.4q-2.6 38.3 -2.85 77.35q-6.5 1.4 -12.95 1.1q-46.95 -2.25 -88.55 16.45q-1.6 5.15 1 9.75q1.95 1.6 4.05 0.65q12.8 -5.6 26.8 -6.45q-2.9 43.4 -1.8 87.05q1.45 59.65 1.1 119.25q-0.1 15.1 -2.95 29.7q-3.6 18.15 6 29q3.8 -18.45 3.7 -38.2q-0.45 -59.7 0.15 -119.25q0.3 -30.2 0.05 -60q-0.15 -24.55 -2.25 -47.9q27.8 -2.8 55.05 -7.6q6 -9 -1.45 -15.2q-6.65 1.3 -13.95 2.95<g id="1124" transform="matrix(1, 0, 0, 1, -30.4, 0)">
<path style="fill:#000000;fill-opacity:1" d="M401.7,109.75L401.1 108.2Q400.65 106.4 400.6 104.5Q400.5 101.5 402.45 99.5Q402.7 99.35 402.95 99.35L404.35 99.25L404.55 98.1Q404.65 97.6 405.45 97.75L405.6 99.25Q436.6 102.2 449.1 132.35Q459.5 157.45 455.25 184.35Q452 204.9 440.45 218.05Q465.5 229.7 467.3 260.4Q468.1 273.85 469.2 287.5Q474.55 352.9 414.3 381.85Q411.2 383.35 407.5 382.65Q405.15 382.25 402.95 381.2Q400.1 377.65 400.1 372.95Q400.1 368.3 402.95 364.7L406.95 363.45Q428.6 361.95 444.6 344.5Q467.45 319.6 463.65 286.35Q461.15 264.3 452.55 244.45Q446.25 230.05 431.05 226.55Q423.05 232.3 412.55 235.85L408.45 236Q407.75 235.4 407.4 234.6L405.45 290.5Q403.8 336.25 397.8 381.15L396.95 382.2Q389.25 373.95 391.95 359.95Q394.8 345.45 395.95 330.25Q400.55 271.05 401.6 211Q402.1 182.25 400.9 153.3Q400 131.3 402.75 109.9L401.7 109.75M341.95,163.5Q357.45 165.5 365.15 182.6Q371.45 196.7 375.15 211.8Q391.7 279.25 336.65 320.4L333.45 322.5Q310 322.15 297.45 300.6Q270.1 253.4 290.9 201.85Q297.4 185.7 306.55 171.1Q312.05 162.3 321.95 161.25Q332.35 160.5 341.6 163.8L341.95 163.5M343.9,184L339.45 174.8L314.95 176.25Q308.85 184.05 304 192.65Q267.6 257.1 319.7 304.5Q334.6 305.1 345.7 295.5Q362.8 280.75 368.1 258.35Q379.15 211.6 343.9 181L343.9 184M446.85,150.45Q437.9 116.95 406.35 110.55Q409.7 162.95 408 216.3L407.8 222.95L407.95 222.5Q450.55 210.05 449.1 165.55Q448.85 157.95 446.85 150.45M213.45,92.75L217 91.8L217.45 91.75Q255.85 96 266.35 135.1Q275.45 168.95 266.65 202.65Q262.75 217.5 253.65 229.95Q248.55 236.95 242.6 242Q262.15 294.55 277.5 348.7Q278.4 352.05 279.95 355.2Q283.1 351.8 286.95 348.45Q283.35 352.9 280.95 358.2Q285.6 367.45 281.45 376.85L280.7 377.7Q271.35 366.85 266.85 350.65Q252.2 297.85 239.25 244.6Q228.95 252.05 216.2 254.25Q214.75 253.3 214 251.95Q211.6 290.35 208.05 328.55Q205.9 351.55 198.95 371.7Q191.9 351.3 197.6 327.3Q201.05 312.7 202.8 297.7Q209.65 238.9 210.7 179.25Q211.35 141.2 216.9 104.85L214.45 104Q212.95 102.95 212.7 101Q212.35 98.75 212.6 96.5Q212.8 94.6 213.45 92.75M219.35,105.55L215.2 238.5Q236.65 231.85 250.3 214.3Q263.6 197.25 264.4 175.45Q265.2 154.4 256.45 135.35Q247.25 115.3 227.95 107.05L219.35 105.55M177.1,101.9Q177.5 95.5 181.45 92.5Q183.45 151.05 181.55 211Q179.65 270.55 179 330.25Q178.7 353.25 171.95 373.2Q164.35 360.7 167.9 343.2Q172.35 321.35 172.8 298.5L173.7 240.75Q152.3 240.05 131.65 243.65Q130.55 281.35 129.75 319.25Q129.45 333.3 129.65 347.7Q129.85 364.15 122.45 375.7Q118.3 354.8 121.2 331.3Q125.7 294.7 125.95 257.25Q126.35 197.9 127.8 138.75Q128 130.5 132.45 125.75Q134.65 147.05 133.9 170.05L132.95 199.95L132.05 229.35L134 228.5Q140.1 226.25 145.95 225.5Q159.55 227.85 173.5 226.9L173.85 226.95L174.25 179.25Q174.5 140.2 177.1 101.9M147.95,87.25Q155.4 93.45 149.4 102.45L148.7 103.25Q121.45 108.05 93.65 110.85Q95.75 134.2 95.9 158.75Q96.15 188.55 95.85 218.75Q95.25 278.3 95.7 338Q95.8 357.75 92 376.2Q82.4 365.35 86 347.2Q88.85 332.6 88.95 317.5Q89.3 257.9 87.85 198.25Q86.75 154.6 89.65 111.2L63.85 113.2Q49.85 114.05 37.05 119.65Q34.95 120.6 33 119Q30.4 114.4 32 109.25L32.5 107.75Q74.1 89.05 121.05 91.3Q127.5 91.6 134 90.2Q141.3 88.55 147.95 87.25" />
</g>
</svg>
