<?xml version="1.0" encoding="utf-8"?>
<svg version="1.1" id="Layer_1"
xmlns="http://www.w3.org/2000/svg"
xmlns:xlink="http://www.w3.org/1999/xlink"


xml:space="preserve">
q-1.8 0.1 -1.95 2.25q-0.4 1.35 -0.45 2.8q-2.45 30.45 -3 61.55q-0.9 51.8 -1.25 103.1q-2 2.2 -2.4 5.25q-0.85 6.2 2.9 10.5q11.95 3.2 24.55 2.8q30.2 -1.05 36.45 -29.6q3.95 -17.9 1.3 -35.85q-3.2 -22.05 -19.55 -33.3q17 -19.15 14 -47.4q-4.25 -39.3 -44.25 -43.35q-7.5 34.45 -41.25 42.1q0.5 -41.7 -0.85 -82.45q23.5 -0.35 37.35 18.2q7.45 9.9 4.75 22.15q-2.1 33.05 -7.25 65q-0.8 5.1 -5.2 8q-9.15 6.15 -20.3 4.75q2.6 -34.55 0.5 -69q-9.7 31.25 -8 64.5q0.55 10.8 7.05 19.7q3.9 5.3 8.95 9.3q31.3 -0.4 37 -33.55q1.5 -8.75 0.45 -17.8q4.4 -21.45 -3.5 -40.05q23.85 15.15 23.15 47.2q-0.2 9.8 -7.7 15.85q-18.9 15.3 -44 11.4q2.2 -27.15 2.95 -55.25q9.9 0.4 18.2 -5.05q-18.5 -2.25 -37.35 -2.9q-21.3 -1 -42.35 -0.8q-3.35 0.65 -5.75 2.95q-3.8 22.45 -3.65 45.35q0.5 67.05 0.05 133.95q0 1.2 1.1 1.8q2.8 -0.45 3 -3.8q2.6 -38.8 2.95 -77.55q0.4 -49.8 -1.7 -99.7q-10.65 -2.6 -22.45 -0.7q1.85 -28.1 1 -54.75q-1.65 0.1 -1.85 1.75q-8.2 58.55 -9.6 118.45q-0.45 17.3 5.95 29q0.9 -41.25 3.75 -83.1q19.7 -2.2 39.6 -2.75q-1.3 42.3 -3.35 84.35q0.6 2.65 3 2q6.35 -36.7 7.35 -75q1.65 -59.7 -0.85 -118.45q-4.25 35.3 -5.2 73<g id="1142" transform="matrix(1, 0, 0, 1, -138.55, 0)">
<path style="fill:#000000;fill-opacity:1" d="M353.3,184.85L356.95 184.25Q396.95 188.3 401.2 227.6Q404.2 255.85 387.2 275Q403.55 286.25 406.75 308.3Q409.4 326.25 405.45 344.15Q399.2 372.7 369 373.75Q356.4 374.15 344.45 370.95Q340.7 366.65 341.55 360.45Q341.95 357.4 343.95 355.2L346.55 355.85Q346.9 304.55 347.8 252.75Q348.35 221.65 350.8 191.2L350.7 189.25Q350.75 187.8 351.15 186.45L351.25 185.25Q351.4 183.1 353.2 183L353.3 184.85M391,213.45Q377.15 194.9 353.65 195.25Q355 236 354.5 277.7Q388.25 270.05 395.75 235.6Q398.45 223.35 391 213.45M325.4,275.55Q333.3 294.15 328.9 315.6Q329.95 324.65 328.45 333.4Q322.75 366.55 291.45 366.95Q286.4 362.95 282.5 357.65Q276 348.75 275.45 337.95Q273.75 304.7 283.45 273.45Q285.55 307.9 282.95 342.45L291.95 352.2Q303.1 353.6 312.25 347.45Q316.65 344.55 317.45 339.45Q322.6 307.5 324.7 274.45L325.4 275.55M372.45,287.5Q364.15 292.95 354.25 292.55L354.05 301.45Q353.3 329.55 351.1 356.7Q376.2 360.6 395.1 345.3Q402.6 339.25 402.8 329.45Q403.5 297.4 379.65 282.25L372.45 287.5M224.2,195.5L181.5 194.45Q183.6 244.35 183.2 294.15Q182.85 332.9 180.25 371.7Q180.05 375.05 177.25 375.5Q176.15 374.9 176.15 373.7Q176.6 306.8 176.1 239.75Q175.95 216.85 179.75 194.4L138.55 191.7L138.75 185.75Q141.15 183.45 144.5 182.8Q165.55 182.6 186.85 183.6Q205.7 184.25 224.2 186.5L224.2 195.5M253,251.25Q253.95 213.55 258.2 178.25Q260.7 237 259.05 296.7Q258.05 335 251.7 371.7Q249.3 372.35 248.7 369.7Q250.75 327.65 252.05 285.35Q232.15 285.9 212.45 288.1Q209.6 329.95 208.7 371.2Q202.3 359.5 202.75 342.2Q204.15 282.3 212.35 223.75Q212.55 222.1 214.2 222Q215.05 248.65 213.2 276.75L229.95 272.7Q241.75 270.8 252.4 273.4L253 251.25" />
</g>
</svg>
