<?xml version="1.0" encoding="utf-8"?>
<svg version="1.1" id="Layer_1"
xmlns="http://www.w3.org/2000/svg"
xmlns:xlink="http://www.w3.org/1999/xlink"


xml:space="preserve">
q-32.2 4.35 -64 10.15q-3.7 5.8 -1.7 12.75q0.55 1.9 2.2 3q-3.15 36.8 -4.65 74q-2.4 59.55 -3.45 119.25q-0.75 44.5 -4.55 88.45q-2.7 30.85 -0.75 57.75q0.35 -4.65 4.5 -2.25q4.25 -26.3 5.35 -53.95q2.4 -59.55 3.75 -119.25q1.35 -59.4 3.85 -118.5q0.65 -14.85 1.8 -29.85q0.7 -8.55 -0.25 -16.35q2.9 -6.15 1.05 -12.75q-0.55 -1.9 -2.05 -3q-7.85 -4.55 -17 -3.25q-4.5 0.55 -8.3 3.45q-20.45 15.6 -16.45 43.05q5.3 36.25 20.25 70.3q24 54.8 24.4 114.2q0.2 28.7 -7.5 55.85q-5.1 17.85 -21.95 25.55q-42.2 19.35 -72.95 -16.95q0.2 -4.9 -3.7 -7.6q-0.9 -0.65 -2.3 -0.65q-3.05 4.3 -2.9 9.75q0.4 19 17.5 30.95q36.85 25.8 72.8 0.95q10.6 -7.25 15.35 -19.25q15.75 -39.55 14.25 -83.4q-1.95 -58.15 -24.8 -111.8q-14.65 -34.45 -20.8 -70.6q-1.55 -9.05 2.85 -16.85q9.8 -17.4 30 -7.7q0.3 2.35 2.15 3.4q3.55 -6.8 1.55 -14.35q-1.05 -3.9 -3.05 -7.4q3.65 31.9 3.9 64.4q0.4 46.75 -16.75 88.5q-9.4 2.85 -19.25 1.25q-1.1 -1.15 -1.55 -2.5q-6.85 -22.45 -3.85 -47.2q7.25 -59.25 5.9 -117.55q-5.1 19.7 -6.55 41.05q-4.05 59.05 -5.25 118.6q-0.6 31.15 31.8 24.25q14.55 -16.5 17.3 -38.8q5.05 -40.45 5.8 -81.95q0.6 -30.75 -4.6 -59.25q-1.9 -0.2 -3.5 0.75q-1.45 1.8 -2.75 3.75q-0.4 2.45 -0.15 4.6q-0.9 2.55 -0.9 5.25q-4.55 37.5 -5.25 76q-0.7 40.7 -2.4 81.35q-2.15 3.75 -2.1 8.25q0.05 4.25 2.8 7.2q-3.15 59.75 -9.9 117.7q-0.25 -2.35 -0.95 -4.5q-3.15 13.1 1.25 27q1.1 1.85 3.25 1.75q0.9 -0.6 1 -1.35q9.1 -54.7 11.55 -110.8q4.8 -2.4 9.05 -5.5q-0.3 16.95 2.75 33.75q10.7 57.85 18.5 116.2q2.25 16.7 11.15 28.25q2.6 -1.95 2.2 -5.15q-4.3 -34.45 -10.2 -69.1q-9.25 -54.4 -19.55 -107.9q7.6 -7 13 -16.75q30.05 -54.2 19 -114.65q-6.25 -34.25 -39.95 -39.15q-0.75 0.1 -0.75 0.35q-0.95 21.15 -7.25 41.25q-6.15 19.75 -20.9 34.45q-6.5 6.45 -14.4 11.1q4.8 -74.95 3.1 -150q22.65 3.15 32.35 25.05q8 18.1 7.1 38.15q0.05 59.45 -2.55 118.55q-23.45 2.25 -44.9 -4.9q3.1 -60 0.8 -118.55q-4.85 21.85 -5.45 46.5q-0.6 24.85 -1.65 49.55q-2.55 59.75 -6.2 119.15q-1.8 29.7 -6.25 59q-3.6 23.45 0.8 44.5q1.65 -0.35 1.8 -1.05q8.05 -39.65 10.15 -80.65q25.85 6.55 53.25 5.2q-2.2 41.25 -5.15 82.35q-1.05 14.95 -3.2 29.8q-3.35 23.35 1.9 44.5q1 -0.35 1.1 -0.9q8.8 -55.45 10.15 -112.3q1.35 -59.35 4.4 -118.55q3.05 -59.85 1.35 -118.45q-6.25 17.4 -6.25 39q-3.75 7.05 1.25 13.5q29.65 -3.9 59.6 -10.15q-6.55 120 -14.85 240.2q-1.05 14.8 -3.15 29.65q-3 20.25 3 38.4q16.7 -110.4 20 -222.3q0.55 -20 0.45 -40.1q3.7 -7.95 0 -15.75q-1.3 58.9 -4.6 117.7q-5 5.95 -2 13.5q2.6 4.1 6.5 3.75q7.25 -42.25 6.35 -86.25q-0.35 -14.6 1.45 -29q3.8 -30.4 1.2 -59.45q-8.45 17.55 -8.9 39.75<g id="1149" transform="matrix(1, 0, 0, 1, -26.5, 0)">
<path style="fill:#000000;fill-opacity:1" d="M514.95,71.6L517.45 71.75Q518.95 72.85 519.5 74.75Q521.35 81.35 518.45 87.5L481.45 91.55Q482.4 99.35 481.7 107.9Q480.55 122.9 479.9 137.75Q477.4 196.85 476.05 256.25Q474.7 315.95 472.3 375.5Q471.2 403.15 466.95 429.45Q462.8 427.05 462.45 431.7Q460.5 404.8 463.2 373.95Q467 330 467.75 285.5Q468.8 225.8 471.2 166.25Q472.7 129.05 475.85 92.25L436.45 98Q434.8 96.9 434.25 95Q432.25 88.05 435.95 82.25Q467.75 76.45 499.95 72.1L502.95 71.5L514.95 71.6M411.2,93.25Q413.2 96.75 414.25 100.65Q416.25 108.2 412.7 115L411.65 114.9Q409.8 113.85 409.5 111.5L408.7 107.75Q388.5 98.05 378.7 115.45Q374.3 123.25 375.85 132.3Q382 168.45 396.65 202.9Q419.5 256.55 421.45 314.7Q422.95 358.55 407.2 398.1Q402.45 410.1 391.85 417.35Q355.9 442.2 319.05 416.4Q301.95 404.45 301.55 385.45Q301.4 380 304.45 375.7Q305.85 375.7 306.75 376.35Q310.65 379.05 310.45 383.95L310.45 384.7Q341.2 421 383.4 401.65Q400.25 393.95 405.35 376.1Q413.05 348.95 412.85 320.25Q412.45 260.85 388.45 206.05Q373.5 172 368.2 135.75Q364.2 108.3 384.65 92.7Q388.45 89.8 392.95 89.25Q402.1 87.95 409.95 92.5L411.2 93.25M340.2,92.75Q341.5 90.8 342.95 89Q344.55 88.05 346.45 88.25Q351.65 116.75 351.05 147.5Q350.3 189 345.25 229.45Q342.5 251.75 327.95 268.25Q295.55 275.15 296.15 244Q297.35 184.45 301.4 125.4Q302.85 104.05 307.95 84.35L308.45 84.25Q309.8 142.55 302.55 201.8Q299.55 226.55 306.4 249Q306.85 250.35 307.95 251.5Q317.8 253.1 327.2 250.25Q344.35 208.5 343.95 161.75Q343.7 129.25 340.05 97.35Q339.8 95.2 340.2 92.75M243.45,81.75L243.5 81.75L243.7 80.1Q243.7 79.85 244.45 79.75L244.5 81.45L246.95 80.65L246.95 80.5Q280.65 85.4 286.9 119.65Q297.95 180.1 267.9 234.3Q262.5 244.05 254.9 251.05Q265.2 304.55 274.45 358.95Q280.35 393.6 284.65 428.05Q285.05 431.25 282.45 433.2Q273.55 421.65 271.3 404.95Q263.5 346.6 252.8 288.75Q249.75 271.95 250.05 255Q245.8 258.1 241 260.5L238.5 316.8Q236.05 372.9 226.95 427.6Q226.85 428.35 225.95 428.95Q223.8 429.05 222.7 427.2Q218.3 413.3 221.45 400.2L221.65 397.25L221.95 396.45Q222.65 398.6 222.9 400.95L223.2 401.7Q229.95 343.75 233.1 284L234.15 262.95Q231.4 260 231.35 255.75Q231.3 251.25 233.45 247.5L234.85 246.85Q236.55 206.2 237.25 165.5Q237.95 127 242.5 89.5L242.3 87.75Q242.3 85.05 243.2 82.5L243.45 81.75M277.25,118.15Q267.55 96.25 244.9 93.1Q246.6 168.15 241.8 243.1Q249.7 238.45 256.2 232Q270.95 217.3 277.1 197.55Q283.4 177.45 284.35 156.3Q285.25 136.25 277.25 118.15M190.45,79.75Q192.15 138.35 189.1 198.2Q186.05 257.4 184.7 316.75Q183.35 373.6 174.55 429.05Q174.45 429.6 173.45 429.95Q168.2 408.8 171.55 385.45Q173.7 370.6 174.75 355.65Q177.7 314.55 179.9 273.3Q152.5 274.65 126.65 268.1L123.35 267.55L119.4 345.25Q117.3 386.25 109.25 425.9Q109.1 426.6 107.45 426.95Q103.05 405.9 106.65 382.45Q111.1 353.15 112.9 323.45Q116.55 264.05 119.1 204.3Q120.15 179.6 120.75 154.75Q121.35 130.1 126.2 108.25Q128.5 166.8 125.4 226.8L124.1 252.35Q145.55 259.5 169 257.25L180.45 256.75L180.75 257.05L181.65 237.3Q184.25 178.2 184.2 118.75Q184.2 97.15 190.45 79.75M152.45,75.5Q156.15 83.3 152.45 91.25L94.75 97.55L94.95 124.2Q95.05 144.3 94.5 164.3L93.3 204.55Q90 316.45 73.3 426.85L73.1 427Q67.1 408.85 70.1 388.6L73.1 367.95Q75.2 353.1 76.25 338.3Q84.55 218.1 91.1 98.1Q61.15 104.35 31.5 108.25Q26.5 101.8 30.25 94.75L144.45 73.75L147 70.5L152.45 75.5M212.45,254.75Q215.05 283.8 211.25 314.2Q209.45 328.6 209.8 343.2Q210.7 387.2 203.45 429.45Q199.55 429.8 196.95 425.7Q193.95 418.15 198.95 412.2Q202.25 353.4 203.55 294.5Q204 272.3 212.45 254.75" />
</g>
</svg>
