<?xml version="1.0" encoding="utf-8"?>
<svg version="1.1" id="Layer_1"
xmlns="http://www.w3.org/2000/svg"
xmlns:xlink="http://www.w3.org/1999/xlink"


xml:space="preserve">
q3.85 20.1 0.95 40.3q-3.2 22.5 -21.2 36.15q-12.45 9.45 -28.05 10.4q9.5 -2.1 19 -0.3q9.3 1.5 16.8 7.25q11.85 17.7 15.85 38.7q-3.4 10.7 -5.9 21.9q-12.85 57.65 -21.6 116.05q-4.15 -53.95 -11.5 -106.25q0 -4.9 -0.5 -9.6q-4.65 5.15 -3.85 13.15q-8.35 43 -12.75 86.85q-5.85 58.95 -16.05 117.15q-3.8 21.7 -10.1 42.8q-6.6 22.2 -4.75 44q1.25 0 1.35 -0.35q14.85 -47.8 22.25 -97.85q8.55 -58.3 14.9 -117q2.95 -27.05 7.8 -53.7q1.4 13.6 2.3 27.25q3.85 58.95 10.4 116.95q4.75 -0.45 4.55 -6.8q0.65 -0.75 0.7 -1.6q5.7 -58.8 17.95 -116.45q3.05 -14.5 8.4 -28.25q2.1 50.2 6.95 100.6q5.7 59.05 13.65 117.75q2.05 15.05 2.85 30.05q1.25 23.35 8.65 43.15q0.9 -0.6 0.9 -1.25q1.75 -36.65 -4.45 -73.55q-9.8 -58.1 -14.5 -116.95q-4.8 -59.3 -13.7 -116.95q-0.8 -0.1 -0.9 0.45q-3.65 1.2 -7.15 2.95q-0.8 2.15 -0.8 4.5q0 2 0.8 3.85q-3.65 28.05 -1.7 57.45q2.65 40.7 2.85 81.6q0.1 18.4 -0.35 36.9q-1.4 59.9 -6.7 119.1q-0.95 10.5 5.65 13.6q5.35 -40.15 6 -81.75q0.55 -39.55 0.2 -79.3q42.6 -2.65 51.5 -45.3q6.95 -33.15 2.05 -66.8q-6.45 -44.4 -50 -49.05q-63.55 6.65 -122.2 32.1q-2.7 5.7 1 10.5q4.85 0.05 9.5 -1.75q29.6 -11.55 59.9 -18.75q-1.55 14.05 -1.75 29.75q-0.8 59.45 0.1 119.25q0.95 59.7 -2.4 119.15q-0.95 16.55 4.1 29.8q4.1 -3.85 4.05 -10.25q-0.5 -59.45 -1.65 -119.2q-1.1 -59.7 2.3 -119.25q1.45 -25.6 -1.95 -49.9q31.05 -7.2 62.75 -9.85q2.35 -6.5 -1.4 -11.95q0.5 59.6 -3.05 118.55q-3.55 59.45 0.55 117.8q1.65 23.05 19.05 37.75q11.95 10.1 21.45 -2q35.6 -45.2 40.5 -103.3q5 -59.15 0.7 -118.6q-2.15 -29.5 -0.85 -59.15q0.75 -16.9 -5.5 -29.3q-3.5 3.6 -2.75 9q-2.5 2.7 -3.25 6q0.85 0.45 1.85 -1.7q3.75 59.1 2.1 118.6q-1.8 65.25 -38.6 117.7q-11.8 5.3 -17.6 -6.1q-14.65 -28.85 -14.7 -63q-0.15 -59.25 2.25 -118.5q2.45 -59.85 5.6 -117.7q-8.75 19.6 -8.6 43.75q0.85 46.55 1.05 93.1q-25.2 -0.15 -50.7 -3.15q3.95 -59.55 4.65 -117.8q-7.2 12.8 -7.6 30q-1.3 59.35 -5.1 118.5q-3.8 59.25 -9.35 118.3q-1.35 14.75 6.8 21.15q3.25 -53.55 6.85 -107.2q25.4 7.05 51.35 4.85q0 59.85 -4.7 118.7q-3.45 11.05 2.25 24q5.8 -22.9 6.45 -48.5q1.6 -59.3 2 -119.2q0.35 -60.35 -3.2 -119.25q-4.1 11 -3.85 25<g id="1143" transform="matrix(1, 0, 0, 1, -24.8, 0)">
<path style="fill:#000000;fill-opacity:1" d="M492.7,143.5Q485.2 137.75 475.9 136.25Q466.4 134.45 456.9 136.55L460.25 269.05Q475.85 268.1 488.3 258.65Q506.3 245 509.5 222.5Q512.4 202.3 508.55 182.2Q504.55 161.2 492.7 143.5M401.2,133.25Q410.1 190.9 414.9 250.2Q419.6 309.05 429.4 367.15Q435.6 404.05 433.85 440.7Q433.85 441.35 432.95 441.95Q425.55 422.15 424.3 398.8Q423.5 383.8 421.45 368.75Q413.5 310.05 407.8 251Q402.95 200.6 400.85 150.4L399.5 154.45Q394.15 168.2 391.1 182.7Q378.85 240.35 373.15 299.15Q373.1 300 372.45 300.75L371.05 296.85L371.25 302.45Q371.45 308.8 366.7 309.25Q360.15 251.25 356.3 192.3Q355.4 178.65 354 165.05Q349.15 191.7 346.2 218.75Q339.85 277.45 331.3 335.75Q323.9 385.8 309.05 433.6Q308.95 433.95 307.7 433.95Q305.85 412.15 312.45 389.95Q318.75 368.85 322.55 347.15Q332.75 288.95 338.6 230Q343 186.15 351.35 143.15Q350.55 135.15 355.2 130L355.4 131.25L355.55 131.15L356.2 131Q356.7 135.7 356.7 140.6Q364.05 192.9 368.2 246.85L369.95 272.95Q378.7 214.55 391.55 156.9Q394.05 145.7 397.45 135L399.25 133.5L399.95 133L400.3 133.7Q400.4 133.15 401.2 133.25M463.95,122Q507.5 126.65 513.95 171.05Q518.85 204.7 511.9 237.85Q503 280.5 460.4 283.15Q460.75 322.9 460.2 362.45Q459.55 404.05 454.2 444.2Q447.6 441.1 448.55 430.6Q453.85 371.4 455.25 311.5Q455.7 293 455.6 274.6L455.45 274.25L455.6 273.9Q455.4 233 452.75 192.3Q450.8 162.9 454.45 134.85Q453.65 133 453.65 131Q453.65 128.65 454.45 126.5L455.8 125.65L455.95 124.8L456.45 124.75L456.5 125.25L456.75 125.1Q460.25 123.35 463.9 122.15L463.95 122M163.85,126.95L163.45 127.75Q131.75 130.4 100.7 137.6Q104.1 161.9 102.65 187.5Q99.25 247.05 100.35 306.75Q101.5 366.5 102 425.95Q102.05 432.35 97.95 436.2Q92.9 422.95 93.85 406.4Q97.2 346.95 96.25 287.25Q95.35 227.45 96.15 168Q96.35 152.3 97.9 138.25Q67.6 145.45 38 157Q33.35 158.8 28.5 158.75Q24.8 153.95 27.5 148.25Q86.15 122.8 149.7 116.15L162.45 115Q166.2 120.45 163.85 126.95M238.2,119.5Q235.05 177.35 232.6 237.2Q230.2 296.45 230.35 355.7Q230.4 389.85 245.05 418.7Q250.85 430.1 262.65 424.8L265.2 423.45Q302 371 303.8 305.75Q305.45 246.25 301.7 187.15L298.45 138.75Q297.45 140.9 296.6 140.45L296.45 140Q297.2 136.7 299.7 134Q298.95 128.6 302.45 125Q308.7 137.4 307.95 154.3Q306.65 183.95 308.8 213.45Q313.1 272.9 308.1 332.05Q303.2 390.15 267.6 435.35Q258.1 447.45 246.15 437.35Q228.75 422.65 227.1 399.6Q223 341.25 226.55 281.8Q230.1 222.85 229.6 163.25Q229.45 139.1 238.2 119.5M190.2,148.25Q193.75 207.15 193.4 267.5Q193 327.4 191.4 386.7Q190.75 412.3 184.95 435.2Q179.25 422.25 182.7 411.2Q187.4 352.35 187.4 292.5L187.4 277.65Q161.45 279.85 136.05 272.8Q132.45 326.45 129.2 380L126.2 431.7Q118.05 425.3 119.4 410.55Q124.95 351.5 128.75 292.25Q132.55 233.1 133.85 173.75Q134.25 156.55 141.45 143.75Q140.75 202 136.8 261.55L136.7 263.2Q162.2 266.2 187.4 266.35Q187.2 219.8 186.35 173.25Q186.1 159.25 190.2 148.25" />
</g>
</svg>
