<?xml version="1.0" encoding="utf-8"?>
<svg version="1.1" id="Layer_1"
xmlns="http://www.w3.org/2000/svg"
xmlns:xlink="http://www.w3.org/1999/xlink"


xml:space="preserve">
q-5.7 49.05 -7.35 100.75q-0.95 29.9 -6.75 58.9q-3.45 17.4 3.6 29.3q6.65 -34.4 9 -70.4q11.95 1.9 22.7 -2.3q4.9 19.95 12.05 40q8.8 24.65 19.15 46.65q2.35 -2 1.75 -5.1q-8.75 -43.35 -28.45 -83.65q5.9 -3.15 11.45 -8.25q9 -9.9 12 -23.45q10.8 -49.1 -36.25 -64.75q-6.95 -0.45 -13.5 2.5q22.55 -2.85 36.95 15.3q15.2 19 3.5 39.3q-11.55 20.1 -34.9 20.7q-41.6 -1.9 -82.25 6.3q6.55 -24.15 6.6 -54.2q0 -27.4 1.35 -55q1.65 -33.9 0.3 -67.75q2.75 -5.25 -0.05 -10.4q-5.3 32.8 -6.1 67.45q-17 -0.7 -33 4.4q0.15 -30.7 -1.9 -61.25q-3.3 1.15 -3.3 5.5q0.2 59.7 -5.85 118.35q-1.85 17.6 5.4 29.1q2.1 -16.6 3.4 -34.4q1.65 -22.3 2.1 -44.5q16.3 -3.65 32.95 -5.15q-0.8 41.25 -1.2 82.3q0.3 1.7 2 2q0.9 -0.6 1 -1.35q4.4 -33.4 4.9 -68.15q0.45 -2.15 0.05 -3.85q0.5 -48.65 0.3 -96.4q4.35 -0.8 7 -4.1q14.7 -18.55 19 -42.6q3.95 -21.95 -7.05 -40.45q1 33.55 -10.7 63.85q-1.5 3.95 -4.3 7.4q-13.9 -17.15 -8.95 -40.4q3.4 -16.05 1.15 -32.35q-21.5 51.5 9.8 85.65q4.2 4.5 11 3.5<g id="1155" transform="matrix(1, 0, 0, 1, -137.75, 0)">
<path style="fill:#000000;fill-opacity:1" d="M360.45,187.5Q367 184.55 373.95 185Q421 200.65 410.2 249.75Q407.2 263.3 398.2 273.2Q392.65 278.3 386.75 281.45Q406.45 321.75 415.2 365.1Q415.8 368.2 413.45 370.2Q403.1 348.2 394.3 323.55Q387.15 303.5 382.25 283.55Q371.5 287.75 359.55 285.85L358.7 299.55Q356.35 335.55 349.7 369.95Q342.65 358.05 346.1 340.65Q351.9 311.65 352.85 281.75Q354.5 230.05 360.2 181L360.45 187.5M401.2,251.15Q412.9 230.85 397.7 211.85Q383.3 193.7 360.75 196.55L360.2 271.95L366.3 271.85Q389.65 271.25 401.2 251.15M221.35,191.4L183.05 193.6Q184.4 227.45 182.75 261.35Q181.4 288.95 181.4 316.35Q181.35 346.4 174.8 370.55L178.85 193.8L137.75 195.75L138.2 185.8Q178.85 177.6 220.45 179.5L221.3 181Q224.1 186.15 221.35 191.4M257.45,182.75Q257.65 230.5 257.15 279.15Q257.55 280.85 257.1 283L256.85 301.2Q256.35 335.95 251.95 369.35Q251.85 370.1 250.95 370.7Q249.25 370.4 248.95 368.7Q249.35 327.65 250.15 286.4Q233.5 287.9 217.2 291.55Q216.75 313.75 215.1 336.05Q213.8 353.85 211.7 370.45Q204.45 358.95 206.3 341.35Q212.35 282.7 212.15 223Q212.15 218.65 215.45 217.5Q217.5 248.05 217.35 278.75Q233.35 273.65 250.35 274.35L250.85 250.25Q251.65 215.6 256.95 182.8L257.45 182.75M293,361.6Q261.7 327.45 283.2 275.95Q285.45 292.25 282.05 308.3Q277.1 331.55 291 348.7L307.95 349.2Q310.75 345.75 312.25 341.8Q323.95 311.5 322.95 277.95Q333.95 296.45 330 318.4Q325.7 342.45 311 361Q308.35 364.3 304 365.1Q297.2 366.1 293 361.6" />
</g>
</svg>
