<?xml version="1.0" encoding="utf-8"?>
<svg version="1.1" id="Layer_1"
xmlns="http://www.w3.org/2000/svg"
xmlns:xlink="http://www.w3.org/1999/xlink"


xml:space="preserve">
q-5.75 20.95 -5.5 42.75q0.3 29.9 -0.9 59.75q-1.2 29.85 -3.45 59.45q-0.4 5.25 -0.5 10.55q-0.35 19.95 5.8 40.85q5.55 18.8 12 37.2q7.2 20.55 13 41.7q5.75 21.05 9.85 42.55q2.95 15.25 12.6 27.4q4.15 -34.95 4.9 -70.4q1.2 -59.2 2.65 -118.45q1.55 -26.1 2.35 -52.5q1.9 -59.8 -1.65 -118.5q-3.75 32.4 -4.25 67.5q-0.9 59.55 -3 118.45q0.3 1.7 2 2q4 -7.35 4.55 -16.95q-0.95 -4.15 -2.25 -8.15q-4.9 12.1 -2.8 25.45q3.85 24.1 -7.2 45.8q-9.6 6.15 -20.75 3.6q-14.6 -3.3 -12.7 -19.4q3.55 -29.85 1.45 -59.95q-7.75 25.5 -9.65 52.45q-1.5 21.35 12.3 37.3q9.85 11.25 23.7 3.2q21.8 -12.8 20.85 -38.2q1.7 -21.3 -2.95 -42.1q-11 -0.55 -22.3 -0.5q-1.6 4.4 -0.7 8.95q-2.5 33.1 -1.1 66.85q0.9 22.15 -0.35 44.15q-1.8 30.7 0 59.3q1 -0.5 1.1 -1.15q6.3 -29.2 6.3 -59.85q-0.05 -55.1 -3.75 -109.25q20 0.5 40.05 -1.2q2.5 -4.6 1.5 -9.75q-13.7 1.25 -26.75 5q-2.55 1 -2.85 4.45q-3.65 49.65 -2.35 99.75q0.2 7.5 -1.15 14.75q-3.15 16.75 3.6 29.5q4.15 -14.15 4.15 -30q17.05 -2.55 33.8 -2.85q-0.6 28.45 -2.85 56.85q-1.3 16.55 3.65 29.85q3.6 -3.6 3.85 -9.45q1.4 -33.6 2.3 -67.55q1.65 -60 1.1 -118.45q-7.75 43.95 -7.85 91.45<g id="1148" transform="matrix(1, 0, 0, 1, -141.4, 0)">
<path style="fill:#000000;fill-opacity:1" d="M421.2,182.75Q419.75 242 418.55 301.2Q417.8 336.65 413.65 371.6L411.95 371L410.45 373.45Q400.8 361.3 397.85 346.05Q393.75 324.55 388 303.5Q382.2 282.35 375 261.8Q368.55 243.4 363 224.6Q356.85 203.7 357.2 183.75L409.1 353Q409.2 347.7 409.6 342.45Q411.85 312.85 413.05 283Q414.25 253.15 413.95 223.25Q413.7 201.45 419.45 180.5L421.2 182.75M349.95,370.7Q348.25 370.4 347.95 368.7Q350.05 309.8 350.95 250.25Q351.45 215.15 355.2 182.75Q358.75 241.45 356.85 301.25Q356.05 327.65 354.5 353.75Q353.95 363.35 349.95 370.7M328.65,328.2Q329.6 353.6 307.8 366.4Q293.95 374.45 284.1 363.2Q270.3 347.25 271.8 325.9Q273.7 298.95 281.45 273.45Q283.55 303.55 280 333.4Q278.1 349.5 292.7 352.8Q303.85 355.35 313.45 349.2Q324.5 327.5 320.65 303.4Q318.55 290.05 323.45 277.95Q324.75 281.95 325.7 286.1Q330.35 306.9 328.65 328.2M223.65,186.55L224.45 188L224.7 188.75Q225.7 193.9 223.2 198.5Q203.15 200.2 183.15 199.7Q186.85 253.85 186.9 308.95Q186.9 339.6 180.6 368.8Q180.5 369.45 179.5 369.95Q177.7 341.35 179.5 310.65Q180.75 288.65 179.85 266.5Q178.45 232.75 180.95 199.65L156.45 198.05L144.5 197L143.15 195.35L142.5 194L142.3 193.2Q141.4 188.65 143 184.25L143.75 183.5L144.5 183.05L144.95 182.9L145 182.75Q156.3 182.7 167.3 183.25L222.45 185L223.65 186.55M252.35,273.4L252.35 270.2Q252.45 222.7 260.2 178.75Q260.75 237.2 259.1 297.2Q258.2 331.15 256.8 364.75Q256.55 370.6 252.95 374.2Q248 360.9 249.3 344.35Q251.55 315.95 252.15 287.5Q235.4 287.8 218.35 290.35L218.6 342.2Q218.6 358.05 214.45 372.2Q207.7 359.45 210.85 342.7Q212.2 335.45 212 327.95Q210.7 277.85 214.35 228.2Q214.65 224.75 217.2 223.75L218.2 277.95Q231.25 274.2 244.95 272.95L252.35 273.4" />
</g>
</svg>
