<?xml version="1.0" encoding="utf-8"?>
<svg version="1.1" id="Layer_1"
xmlns="http://www.w3.org/2000/svg"
xmlns:xlink="http://www.w3.org/1999/xlink"


xml:space="preserve">
q-3 2.9 -1.75 7.4q-5.15 30.35 -6.45 60.7q-1.25 29.45 -4 59.3q-0.95 10.25 -0.55 20.55q-4.5 6.75 -0.35 14.1q5.35 9.3 16.55 6.25q5.85 -1.55 10.35 -5.9q18.9 -18.5 21.25 -45.5q2.4 -27.65 -12.6 -50.9q8.8 -9.95 9.95 -23.4q1.05 -11.8 -2.95 -22.8q-1.9 -5.15 -5.55 -9.3q-8.95 -10.15 -22.1 -13.55q-4.4 10.65 -5.85 23.35q-6.5 58.3 -15 116.55q-7 47.7 -18.65 94.6q0.1 -31.55 -2.35 -63.55q-2.3 -29.65 -3 -59.2q-1.3 -52.9 -7.9 -104.5q1.2 -10.15 0.1 -19.75q-9.85 18.25 -11.85 41.1q-5.15 58.65 -11.45 117.25q-6.35 58.75 -14.6 117.1q-8.3 58.85 -17.5 117.55q-1.2 7.45 -3.5 14.5q-5.75 17.15 1.9 28.95q5.85 -11.75 7.7 -25.35q7.65 -58.5 13.85 -117.25q6.25 -58.9 13.1 -117.7q1.5 -12.95 4.15 -25.55q0.1 27.7 1.4 56.1q2.75 59.35 6.35 118.45q1.85 29.75 0.1 59.15q-0.45 7.15 0.35 13.65q-0.3 9.1 3.5 16.65q1.75 -0.25 1.85 -2q7.55 -31.55 13.6 -63.85q10.75 -57.8 18.7 -116.2q3.95 -28.95 9.2 -57.6q4.4 54.15 6.9 108.7q2.7 59.55 8.35 118.5q5.7 59 7.45 118.45q0.9 30.3 5.85 58.5q6.55 -12.35 5.3 -29.35q-4.35 -59.2 -8.4 -118.35q-4.6 -59.2 -7.95 -118.4q-3.05 -54.35 -9.75 -107.95q0.35 -7.6 0.1 -15q-0.65 -0.2 -0.7 0.3q-0.15 15 1.6 29.8q6.65 57.45 -16.95 108.7q-3.65 7.9 -10.5 13.2q-10.6 8.2 -19.4 -1.3q-14.4 -15.5 -12.2 -38.8q5.5 -59 8.5 -118.4q3.05 -60.15 2.8 -118.45q-7.1 29.7 -7.3 62.5q-0.35 60.05 -6.75 119.15q-4.8 44.3 -0.6 88.5q2.55 26.45 29.45 28.2q1.95 0.1 3.2 -1.1q38.35 -38 36.65 -93.75q-1.8 -59.25 -0.95 -118.5q0.4 -29.75 3.2 -59.15q1.4 -15 -6.65 -21.1q-2.7 5.65 -3 12q31.95 15.2 12.65 44.4q-9.35 3.2 -19 3.4q2.25 -25.8 0.6 -50.45q24.4 16.75 16.75 48.5q-4.35 18.05 -20.05 27.1q-7.1 4.05 -15.2 3.3q9.85 -34.1 10.05 -75.05q0.25 39 18.65 75.25q-3.25 -43.3 -21.1 -87.75q14.3 -13.15 18.45 -32.05q2.3 -18.7 -10.35 -32.3q-5.9 -6.35 -13.5 -9.95q16.85 14.55 11.9 34.8q-5.7 23.3 -26.7 32.85q-36.4 1.5 -72.85 7.7q-42.8 7.35 -86.1 10.3q-2.35 6.2 1.2 11.25q12 -0.2 23.65 -2.5q-1.85 12.5 -0.9 26.6q3 44.4 3.9 89.15q1.2 59.35 0.6 119.25q-0.2 15 -1.85 29.85q-2.2 20.05 3.85 36.65q4.5 -4.5 4.5 -11.75q0.05 -59.55 0.45 -119.25q0.4 -59.65 -0.2 -119.2q-0.3 -30.1 0 -60q0.5 -56.45 -6.45 -110.9q39.2 -6.3 78.95 -8.35q2.85 -6.65 -1.45 -11.95q-3.45 1.85 -3.5 6.25q-0.45 26.7 -1.5 53.3q-2.35 59.7 -5.2 119.2q-0.9 18.8 -1.55 37.65q-22.2 -1 -43.85 -3.45q0.65 -31.9 1.9 -63.7q2.4 -59.9 -0.3 -118.5q-4.45 52.8 -5.75 106.5q-1.45 59.65 -2.1 119.25q-0.7 59.9 -3.55 119.25q-0.75 14.95 -2.5 29.8q-1.95 16.55 4 29.9q0.9 -0.6 1.05 -1.35q4.1 -22.7 4.8 -46.4q1.85 -59.3 2.1 -119.2q26.45 4.6 52 4.65q-1.05 32.85 -1.35 65.65q-0.55 59.6 -5.95 118.35q-1.3 14.15 6.3 21.65q4.6 -38 4.5 -77.25q-0.15 -60.05 2.75 -119.2q2.9 -59.55 4.25 -119.25q1.4 -59.1 4 -117.75q-0.55 -1.75 -2 -3q-5 20.15 -3.25 40.85q1.7 20.2 8.4 39.5q8.7 24.9 33.8 22.65q21.65 -1.5 37.45 -16.15q16.95 -15.7 4.65 -30.6q-6.4 11.15 -16.55 19.05q-8.95 7 -19.5 11.05q-8.7 3.25 -16.1 -1.8q-26.6 -18.2 -26.35 -51.6q2.15 -1.65 2.7 -4.2q0.6 -2.5 0.15 -5q-0.75 -2.1 -2.15 -3.7q2.7 -19.1 13.8 -34.9q17.65 -2.55 34.6 2.75q9 2.85 17.9 6.5q2.45 -4.85 -0.65 -8.5q-6.3 -7.5 -14.95 -11.9q-10.9 -5.45 -23.1 -4.45q-7.3 0.55 -14.55 0.35q-14.55 14.95 -19.55 35.25<g id="1144" transform="matrix(1, 0, 0, 1, -18.95, 0)">
<path style="fill:#000000;fill-opacity:1" d="M505.3,197.95Q518.45 201.35 527.4 211.5Q531.05 215.65 532.95 220.8Q536.95 231.8 535.9 243.6Q534.75 257.05 525.95 267Q540.95 290.25 538.55 317.9Q536.2 344.9 517.3 363.4Q512.8 367.75 506.95 369.3Q495.75 372.35 490.4 363.05Q486.25 355.7 490.75 348.95Q490.35 338.65 491.3 328.4Q494.05 298.55 495.3 269.1Q496.6 238.75 501.75 208.4L498.7 207L498.25 205.55Q497 201.05 500 198.15L502.95 197.25L505.3 197.95M457.2,64L457.85 64.4L460.45 59.5Q460.7 66.9 460.35 74.5Q467.05 128.1 470.1 182.45Q473.45 241.65 478.05 300.85L482.35 360.25Q486.4 419.4 490.75 478.6Q492 495.6 485.45 507.95Q480.5 479.75 479.6 449.45Q477.85 390 472.15 331Q466.5 272.05 463.8 212.5Q461.3 157.95 456.9 103.8Q451.65 132.45 447.7 161.4Q439.75 219.8 429 277.6Q422.95 309.9 415.4 341.45L414.8 350.95Q414.7 352.7 412.95 352.95L412.75 352.4L412.45 353.45Q408.65 345.9 408.95 336.8Q408.15 330.3 408.6 323.15Q410.35 293.75 408.5 264Q404.9 204.9 402.15 145.55Q400.85 117.15 400.75 89.45Q398.1 102.05 396.6 115Q389.75 173.8 383.5 232.7Q377.3 291.45 369.65 349.95L354.15 466.85Q352.3 480.45 346.45 492.2Q338.8 480.4 344.55 463.25Q346.85 456.2 348.05 448.75Q357.25 390.05 365.55 331.2Q373.8 272.85 380.15 214.1Q386.45 155.5 391.6 96.85Q393.6 74 403.45 55.75Q404.55 65.35 403.35 75.5Q409.95 127.1 411.25 180Q411.95 209.55 414.25 239.2Q416.7 271.2 416.6 302.75Q428.25 255.85 435.25 208.15Q443.75 149.9 450.25 91.6Q451.7 78.9 456.1 68.25L456.5 64.3Q456.55 63.8 457.2 64M357.45,54.5Q365.5 60.6 364.1 75.6Q361.3 105 360.9 134.75Q360.05 194 361.85 253.25Q363.55 309 325.2 347Q323.95 348.2 322 348.1Q295.1 346.35 292.55 319.9Q288.35 275.7 293.15 231.4Q299.55 172.3 299.9 112.25Q300.1 79.45 307.2 49.75Q307.45 108.05 304.4 168.2Q301.4 227.6 295.9 286.6Q293.7 309.9 308.1 325.4Q316.9 334.9 327.5 326.7Q334.35 321.4 338 313.5Q361.6 262.25 354.95 204.8Q353.2 190 353.35 175L354.45 66.5Q354.75 60.15 357.45 54.5M504.05,209.45Q505.7 234.1 503.45 259.9Q513.1 259.7 522.45 256.5Q541.75 227.3 509.8 212.1L504.05 209.45M502.25,273.85L497.45 351.7Q505.55 352.45 512.65 348.4Q528.35 339.35 532.7 321.3Q540.35 289.55 515.95 272.8L502.25 273.85M261.9,48.2Q269.5 51.8 275.4 58.15Q288.05 71.75 285.75 90.45L285.45 92.45L285.15 94.45L284.6 97.35L284.05 100.2Q279.9 119.1 265.6 132.25Q283.45 176.7 286.7 220L285.2 217.75L283.75 215.35L282.4 212.85L281.1 210.2Q262.7 173.95 262.45 134.95L251.8 141.5Q251.6 182.45 241.75 216.55L249.45 52L259.95 47.25L261.9 48.2M252.95,61.5L252.4 129.4Q273.4 119.85 279.1 96.55Q284.05 76.3 267.2 61.75L260.2 59L252.95 61.5M181.95,45.8L183.45 46Q187.75 51.3 184.9 57.95L184.2 59.5Q144.45 61.55 105.25 67.85Q112.2 122.3 111.7 178.75Q111.4 208.65 111.7 238.75Q112.3 298.3 111.9 357.95Q111.5 417.65 111.45 477.2Q111.45 484.45 106.95 488.95Q100.9 472.35 103.1 452.3Q104.75 437.45 104.95 422.45L106.3 303.25Q106.9 243.35 105.7 184Q104.8 139.25 101.8 94.85Q100.85 80.75 102.7 68.25L80.65 72.2Q69 74.5 57 74.7L22.5 76.5Q18.95 71.45 21.3 65.25L22 63.75Q65.3 60.8 108.1 53.45Q144.55 47.25 180.95 45.75L181.95 45.8M225.2,55.25L225.45 56Q222.85 114.65 221.45 173.75Q220.1 233.45 217.2 293Q214.3 352.15 214.45 412.2Q214.55 451.45 209.95 489.45Q202.35 481.95 203.65 467.8Q209.05 409.05 209.6 349.45Q209.9 316.65 210.95 283.8Q185.4 283.75 158.95 279.15L150.35 277.3L149.9 320Q149.65 379.9 147.8 439.2Q147.1 462.9 143 485.6Q142.85 486.35 141.95 486.95Q136 473.6 137.95 457.05Q139.7 442.2 140.45 427.25Q143.3 367.9 144 308Q144.65 248.4 146.1 188.75Q147.4 135.05 151.85 82.25L152.2 82.25Q154.9 140.85 152.5 200.75Q151.25 232.55 150.6 264.45Q172.25 266.9 194.45 267.9L211.45 268.65Q212.1 249.8 213 231Q215.85 171.5 218.2 111.8Q219.25 85.2 219.7 58.5Q219.75 54.1 223.2 52.25Q224.65 53.5 225.2 55.25M269.45,351.7Q276.7 351.9 284 351.35Q296.2 350.35 307.1 355.8Q315.75 360.2 322.05 367.7Q325.15 371.35 322.7 376.2Q313.8 372.55 304.8 369.7Q287.85 364.4 270.2 366.95L266.95 371.55Q255.85 387.35 253.15 406.45L312.45 400.2Q313.85 401.8 314.6 403.9L315.3 406.5Q315.75 409 315.15 411.5Q314.6 414.05 312.45 415.7L252.45 419.9Q252.2 453.3 278.8 471.5Q286.2 476.55 294.9 473.3Q305.45 469.25 314.4 462.25Q324.55 454.35 330.95 443.2Q343.25 458.1 326.3 473.8Q310.5 488.45 288.85 489.95Q263.75 492.2 255.05 467.3Q248.35 448 246.65 427.8Q244.9 407.1 249.9 386.95Q254.9 366.65 269.45 351.7" />
</g>
</svg>
