<?xml version="1.0" encoding="utf-8"?>
<svg version="1.1" id="Layer_1"
xmlns="http://www.w3.org/2000/svg"
xmlns:xlink="http://www.w3.org/1999/xlink"


xml:space="preserve">
q39.95 -2.1 80.4 0.35q-33.2 50.2 -55 106.25q-3.25 8.45 -8.35 15.7q-6.85 9.7 -8.05 19.5q-0.45 1.4 -0.65 2.85q0.1 0.75 0.45 1.3q0.35 2.6 1.05 5.2q44.4 -3.75 89.05 3.75q2.2 -2.55 2.4 -6q-0.5 -2.75 -2.5 -4.5q-19.95 0.5 -40 -3.8q-20.5 -2.75 -39.25 2.2q7.8 -13.9 13.7 -29.5q20.8 -55.45 55.2 -103.6q9.05 -12.65 9.7 -25.6q2.7 -3 2.25 -7.25q-0.2 -1.25 -0.85 -2.3q-23 -3.15 -46.7 -3q-13.35 1.15 -26.9 3.65q-1.4 1.3 -1.6 3.5q-0.15 1.5 -0.05 3q-35.85 0.8 -70.45 7.5q-0.4 3.1 0.7 6q15.5 0.75 30.85 0.15q-2.3 25.4 -2.65 51.6q-0.75 59.45 -2.2 118.45q0.6 1.65 2.25 2q3.15 -2.55 3.5 -7.2q1.8 -26.4 2.65 -53.25q1.75 -56.4 0.5 -111.8q19.5 -1.05 38.8 -4.2q1 -4.3 -0.9 -8.2q-4.2 59.1 -7.45 117.8q0.25 1.75 2 2q0.75 -0.6 0.85 -1.35q3.6 -19.15 6.15 -38.7q2.35 -18.1 3.55 -36.15q20.2 2.55 39.15 0q-0.4 20.65 -1.2 41.25q-0.3 7.45 -1.9 14.6q-3 13.5 3.35 22.6q6 -30.8 6.55 -64q1.05 -59.65 -3.3 -118.45q-3.75 11.65 -3.5 26q0.55 32.4 0.2 64.75q-16.95 -2.85 -32.65 0.45q1.55 -34.4 -0.85 -68.65q-3.1 18.45 -4.5 38.1q-16.7 13.75 -15.55 35.45q1.05 20.15 19.15 21.25q10.95 0.95 18.55 -6.9q1.2 9.9 9.25 14.3q5.7 -22.5 -8.85 -45.35q-15.85 -24.95 -28.15 -52.15q-5 9.85 1.2 23.1q1.85 0.8 3.45 0.9q5.6 13.15 11.65 26.05q-3.4 1.7 -6.35 4.8q-8.7 1.95 -16.75 -0.75q-2.7 -3.2 -2.9 -7.25q-0.85 -15.1 10.9 -23.75<g id="1169" transform="matrix(1, 0, 0, 1, -138.65, 0)">
<path style="fill:#000000;fill-opacity:1" d="M332.35,192.95L331.95 191.5L331.8 190Q331.7 188.5 331.85 187Q332.05 184.8 333.45 183.5L345.05 182.15Q358.6 179.65 371.95 178.5Q395.65 178.35 418.65 181.5L420.2 182L420.55 182.7Q421.2 183.75 421.4 185L421.7 187.25Q422.15 191.5 419.45 194.5L418.8 194.45Q418.15 207.4 409.1 220.05Q374.7 268.2 353.9 323.65Q348 339.25 340.2 353.15Q358.95 348.2 379.45 350.95Q399.5 355.25 419.45 354.75L420.45 354.95Q422.45 356.7 422.95 359.45L423.1 360.95L423.1 364.7Q422.9 368.15 420.7 370.7Q376.05 363.2 331.65 366.95L328.45 371.45Q327.75 368.85 327.4 366.25Q327.05 365.7 326.95 364.95L326.75 362.7L326.7 361.2L326.75 360.5Q326.95 359.05 327.4 357.65Q328.6 347.85 335.45 338.15Q340.55 330.9 343.8 322.45Q365.6 266.4 398.8 216.2L413.1 194.1Q372.65 191.65 332.7 193.75L332.35 192.95M212.4,181.95L213.2 182.5Q215.1 186.4 214.1 190.7L213.45 193Q194.15 196.15 174.65 197.2Q175.9 252.6 174.15 309Q173.3 335.85 171.5 362.25Q171.15 366.9 168 369.45Q166.35 369.1 165.75 367.45Q167.2 308.45 167.95 249Q168.3 222.8 170.6 197.4Q155.25 198 139.75 197.25Q138.65 194.35 139.05 191.25L139.5 189Q174.1 182.3 209.95 181.5L212.4 181.95M201.95,208.8L202.45 208.75Q204.85 243 203.3 277.4Q219 274.1 235.95 276.95L241.9 277.25Q242.25 244.9 241.7 212.5Q241.45 198.15 245.2 186.5Q249.55 245.3 248.5 304.95Q247.95 338.15 241.95 368.95Q235.6 359.85 238.6 346.35Q240.2 339.2 240.5 331.75Q241.3 311.15 241.7 290.5Q222.75 293.05 202.55 290.5Q201.35 308.55 199 326.65Q196.45 346.2 192.85 365.35Q192.75 366.1 192 366.7Q190.25 366.45 190 364.7Q193.25 306 197.45 246.9Q198.85 227.25 201.95 208.8M268.65,300.05Q262.45 286.8 267.45 276.95Q279.75 304.15 295.6 329.1Q310.15 351.95 304.45 374.45Q296.4 370.05 295.2 360.15Q287.6 368 276.65 367.05Q258.55 365.95 257.5 345.8Q256.35 324.1 273.05 310.35L268.65 300.05M264.05,346.2Q264.25 350.25 266.95 353.45Q275 356.15 283.7 354.2Q286.65 351.1 290.05 349.4Q284 336.5 278.4 323.35Q276.8 323.25 274.95 322.45Q263.2 331.1 264.05 346.2" />
</g>
</svg>
