<?xml version="1.0" encoding="utf-8"?>
<svg version="1.1" id="Layer_1"
xmlns="http://www.w3.org/2000/svg"
xmlns:xlink="http://www.w3.org/1999/xlink"


xml:space="preserve">
q-1.65 15.7 1.2 32.15q3.9 22.9 11.15 43.05q3.7 -6 5.6 -13.2q15.1 -56.95 28.2 -114.3q2.5 -10.9 6.75 -21.05q9.2 -21.85 6.45 -43.4q-7.65 14.95 -12.2 33.15q-14.25 57.15 -30.1 113.9q-2.35 8.5 -5.7 16.55q-5 -23.75 -8.85 -47.7q-9.4 -58.45 -23.95 -115.15q-0.8 -0.15 -0.85 0.3q-3.15 -7.4 -6.7 -14.5q-19.3 -38.3 -41.55 -74.2q-2 -0.45 -2.75 1.3q-1.7 4 -0.5 8.15q7.95 11.45 14.25 24.05q-23.1 12.75 -23.55 39.2q-0.2 9.95 2.9 18.95q7.35 21.35 29.4 13.5q15.75 -5.6 16.9 -17.35q4.75 7 10.35 13.15q4.1 -5.55 1.25 -12.25q-1.85 -2.35 -4.25 -1.25q-4.35 8.2 2.5 14.25q17.8 0.45 35.8 0q-3.35 13.05 -3.8 28.5q-1.65 59.5 -4.15 119.15q-0.75 16.9 5.15 29.3q3.8 -32 4.5 -66q1.1 -56.25 0.6 -111.05q3.6 -6.65 -0.65 -12.65q-1.75 39.25 -2.75 78.8q-17.75 1.25 -34.75 5.85q0.75 -34.7 -1 -69.05q-3.65 6.05 -4 14.9q-2.3 59.25 -6.75 118.45q-1.3 17.25 6 29.35q0.65 -0.75 0.7 -1.5q1.05 -20.9 2.65 -42.65q1.4 -19 2.05 -37.85q17.6 0.2 34.85 -2.6q-0.25 15 -2.15 29.75q-2.3 17.4 4.65 29.25q4.75 -34.5 5.55 -70.5q0.55 -2.8 -0.2 -5.2q0.65 -47.2 -0.3 -93.55q-4.3 3.6 -4.65 10.65q-8 7.65 -19 8.6q-27.3 2 -13.9 -28.5q3.9 -8.85 12.4 -14.05<g id="1163" transform="matrix(1, 0, 0, 1, -135.65, 0)">
<path style="fill:#000000;fill-opacity:1" d="M335.45,181.25Q350 237.95 359.4 296.4Q363.25 320.35 368.25 344.1L368.45 343.6Q371.8 335.55 374.15 327.05Q390 270.3 404.25 213.15Q408.8 194.95 416.45 180Q419.2 201.55 410 223.4Q405.75 233.55 403.25 244.45Q390.15 301.8 375.05 358.75Q373.15 365.95 369.45 371.95L368.55 370.4L366.95 372.95Q359.7 352.8 355.8 329.9L335.8 213.7Q332.95 197.25 334.6 181.55Q334.65 181.1 335.45 181.25M325.45,369.45Q319.85 363.3 315.1 356.3Q313.95 368.05 298.2 373.65Q276.15 381.5 268.8 360.15Q265.7 351.15 265.9 341.2Q266.35 314.75 289.45 302Q283.15 289.4 275.2 277.95Q274 273.8 275.7 269.8Q276.45 268.05 278.45 268.5Q300.7 304.4 320 342.7Q323.55 349.8 326.7 357.2Q329.55 363.9 325.45 369.45M221.1,192.9L220.45 193.75L180.6 196.15Q181.1 250.95 180 307.2Q179.3 341.2 175.5 373.2Q169.6 360.8 170.35 343.9Q172.85 284.25 174.5 224.75Q174.95 209.3 178.3 196.25Q160.3 196.7 142.5 196.25Q135.65 190.2 140 182Q142.4 180.9 144.25 183.25L220.45 180.25Q224.7 186.25 221.1 192.9M250.45,181.25Q251.4 227.6 250.75 274.8Q251.5 277.2 250.95 280L250.65 281.35L250.25 299.7Q249.45 335.7 244.7 370.2Q237.75 358.35 240.05 340.95Q241.95 326.2 242.2 311.2L242.7 285.6Q225.45 288.4 207.85 288.2Q207.2 307.05 205.8 326.05Q204.2 347.8 203.15 368.7Q203.1 369.45 202.45 370.2Q195.15 358.1 196.45 340.85Q200.9 281.65 203.2 222.4Q203.55 213.55 207.2 207.5Q208.95 241.85 208.2 276.55Q225.2 271.95 242.95 270.7L243.05 270.7Q244.05 231.15 245.8 191.9Q246.15 184.85 250.45 181.25M289.7,314.7Q281.2 319.9 277.3 328.75Q263.9 359.25 291.2 357.25Q302.2 356.3 310.2 348.65L295.8 315.95L289.7 314.7" />
</g>
</svg>
