<?xml version="1.0" encoding="utf-8"?>
<svg version="1.1" id="Layer_1"
xmlns="http://www.w3.org/2000/svg"
xmlns:xlink="http://www.w3.org/1999/xlink"


xml:space="preserve">
q-27.85 1.7 -56 1.5q-1.05 1.7 -1.1 3.7q-0.1 2 0.6 3.8q18.65 2.3 37.4 3q-3.85 48.95 -5 98.45q-0.3 14.95 -1.65 29.9q-2.05 23.2 0.75 44.35q6.25 -5.3 6.55 -15.25q0.65 -23.35 1.7 -47.15q2.35 -55.6 -0.5 -110.25q17.95 0.6 36 -0.3q1.2 -1.7 1.5 -3.75q0.6 -3.55 -0.95 -6.8q-0.35 -0.4 -0.75 -0.4q0.85 36.65 -0.05 73.3q-10.15 -0.1 -20.15 2.15q0.5 -30.85 -1.35 -61.4q-5.4 55 -7.6 111.45q-0.45 11.25 -2.65 22.15q-3.3 16.6 2.25 30.05q7.7 -15.05 8.25 -33.5q-0.5 0.4 -0.6 0.85q-0.45 2.15 -1.4 4.15q0 -8.75 0.75 -17.4q1.95 -22.95 2.65 -45.8q-0.75 15.05 -3.7 29.65q-3.4 16.9 3.25 29.6q1.15 -0.85 1.4 -2.25q5.15 -34.9 6.75 -70.45q3.25 -4.25 2 -9.7q-0.35 -1.65 -1.25 -3q-0.35 -0.4 -0.75 -0.4q0.5 -44.15 -3.3 -87.3q-3.7 5.3 -3.5 13.5q-10.4 -26.35 -25 -51.35q-15.1 -25.95 -30.85 -49.85q-0.95 0.05 -1.6 1.2q-2.2 3.75 -0.9 8.05q7.3 13.2 14.4 26.7q-26.1 23.6 -15.9 59.7q0.7 2.45 2.8 3.25q22.15 8.55 41.9 -6.95q6.25 10.35 14.55 16.25q2 -3.45 0.6 -7q-2.15 5.45 1 9.75q17.1 0.45 34.15 -0.2q-3.3 53.75 -3.95 108.4q-0.35 30.45 1.8 59.25q0.85 -0.35 0.95 -0.9q4.75 -24.85 4.9 -51.6q0.3 -58.25 -1.75 -115.25q18.95 -0.8 37.85 -2.95q3.1 -5.9 -0.65 -11.15q-4.5 25.4 -3 52.4q1.1 19.45 1.1 38.9q0.45 -33.75 -0.25 -66.9q-4.95 18.6 -5.8 39.95q-2.45 59.05 -0.7 117.75q0.6 2.65 3 2q3.3 -9.9 2.7 -21q-0.6 -10.6 -0.2 -20.9q0.75 -20.25 1.1 -40.3q19.65 1.05 38.6 -2.1q-0.75 30.3 -4.7 59.85q-2.2 16.55 2.85 29.9q2.05 -0.55 2.3 -2.75q4.3 -37.8 4.95 -76.5q2.65 -6.35 -1.1 -10.3q0 -46.85 -2.95 -92.95q-14.8 9.8 -33.3 8.1q-2.2 -3.4 -2.45 -7.5q-1.05 -20.9 14.45 -34.5q2.25 0.55 4.1 0.05q8.7 16.75 17.2 33.85<g id="1165" transform="matrix(1, 0, 0, 1, -137.35, 0)">
<path style="fill:#000000;fill-opacity:1" d="M395.45,190.1Q395.85 190.1 396.2 190.5L396.5 191.2Q398.05 194.45 397.45 198Q397.15 200.05 395.95 201.75Q377.9 202.65 359.95 202.05Q362.8 256.7 360.45 312.3Q359.4 336.1 358.75 359.45Q358.45 369.4 352.2 374.7Q349.4 353.55 351.45 330.35Q352.8 315.4 353.1 300.45Q354.25 250.95 358.1 202Q339.35 201.3 320.7 199L320.45 198.25Q319.75 196.45 319.85 194.45Q319.9 192.45 320.95 190.75Q349.1 190.95 376.95 189.25L395.45 190.1M416.2,181.25Q420 224.4 419.5 268.55L420.45 268.6Q420.85 268.6 421.2 269Q422.1 270.35 422.45 272Q423.7 277.45 420.45 281.7L419.25 281.65L418.6 299.75Q417 335.3 411.85 370.2Q411.6 371.6 410.45 372.45Q403.8 359.75 407.2 342.85Q410.15 328.25 410.9 313.2L412.3 281.2L387.6 280.25Q386.9 303.1 384.95 326.05Q384.2 334.7 384.2 343.45Q385.15 341.45 385.6 339.3Q385.7 338.85 386.2 338.45Q385.65 356.9 377.95 371.95Q372.4 358.5 375.7 341.9Q377.9 331 378.35 319.75Q380.55 263.3 385.95 208.3L386.45 208.25Q388.3 238.8 387.8 269.65Q397.8 267.4 407.95 267.5L412.65 268.05Q413.55 231.4 412.7 194.75Q412.5 186.55 416.2 181.25M329.2,368.7Q320.9 362.8 314.65 352.45Q294.9 367.95 272.75 359.4Q270.65 358.6 269.95 356.15Q259.75 320.05 285.85 296.45Q278.75 282.95 271.45 269.75Q270.15 265.45 272.35 261.7Q273 260.55 273.95 260.5Q289.7 284.4 304.8 310.35Q319.4 335.35 329.8 361.7Q331.2 365.25 329.2 368.7M215.1,197.15L214.45 198Q195.55 200.15 176.6 200.95Q178.65 257.95 178.35 316.2Q178.2 342.95 173.45 367.8Q173.35 368.35 172.5 368.7Q170.35 339.9 170.7 309.45Q171.35 254.8 174.65 201.05Q157.6 201.7 140.5 201.25Q137.35 196.95 139.5 191.5L214.45 186Q218.2 191.25 215.1 197.15M248.45,179.25Q251.4 225.35 251.4 272.2Q255.15 276.15 252.5 282.5L252.2 283.2L251.4 283.4L251.2 297.7Q250.55 336.4 246.25 374.2Q246 376.4 243.95 376.95Q238.9 363.6 241.1 347.05Q245.05 317.5 245.8 287.2L245.9 284.4Q226.95 287.55 207.3 286.5Q206.95 306.55 206.2 326.8Q205.8 337.1 206.4 347.7Q207 358.8 203.7 368.7Q201.3 369.35 200.7 366.7Q198.95 308 201.4 248.95Q202.25 227.6 207.2 209Q207.9 242.15 207.45 275.9L246.05 270.6Q246.05 251.15 244.95 231.7Q243.45 204.7 247.95 179.3L248.45 179.25M291.3,306.75Q289.45 307.25 287.2 306.7Q271.7 320.3 272.75 341.2Q273 345.3 275.2 348.7Q293.7 350.4 308.5 340.6Q300 323.5 291.3 306.75" />
</g>
</svg>
