<?xml version="1.0" encoding="utf-8"?>
<svg version="1.1" id="Layer_1"
xmlns="http://www.w3.org/2000/svg"
xmlns:xlink="http://www.w3.org/1999/xlink"


xml:space="preserve">
q-17.8 15 -21 38q-3.1 22.1 15.05 31.1q13.8 6.8 28.3 0.05q5.3 -2.5 9.15 -6.85q5.45 -17.85 -6.65 -36.65q-12.1 -18.7 -22 -38.8q-9.9 -20.05 -20.85 -39.75q3.9 18.85 14.35 36.85q0.85 -20.25 15 -33.75q-19.6 18.15 -38.2 0.95q0.9 -4.6 -1.7 -8.4q-3.5 81.1 -1.4 162.1q0.15 5.2 1.85 10.35q7.35 -32.35 6.65 -68.75q-1 -51.8 -2.85 -103.5q0.15 -9.3 -2.85 -18q-3.35 13 -3.65 26.5q-0.7 33.3 0.1 66.8q-3.8 2.85 -3.7 7.55q1.55 68.25 4.5 136.3q0.3 7.35 3.15 13.9q3.9 -9.5 3.8 -20.7q-0.3 -26.25 -1.8 -52.65q2.45 26.2 -1.55 52.1q-2.4 15.3 2.15 30.25q4.2 -5.8 4.15 -12.85q-0.3 -41.75 2.1 -82.5q0.15 -2.3 -1.45 -4.05q0.15 -20.8 0.45 -41.7<g id="1159" transform="matrix(1, 0, 0, 1, -144.9, 0)">
<path style="fill:#000000;fill-opacity:1" d="M346.8,293.6Q336.35 275.6 332.45 256.75L335.45 255.75Q346.4 275.45 356.3 295.5Q366.2 315.6 378.3 334.3Q390.4 353.1 384.95 370.95L374.45 355.75Q370.6 360.1 365.3 362.6Q350.8 369.35 337 362.55Q318.85 353.55 321.95 331.45Q325.15 308.45 342.95 293.45L346.8 293.6M330,343.05Q348.6 360.25 368.2 342.1L352.1 306.05L342.7 306.95Q328.55 320.45 327.7 340.7L330 343.05M237.55,197.15L237.1 198.4L236.2 200.5L190.8 199.95Q192.65 251.65 193.65 303.45Q194.35 339.85 187 372.2Q185.3 367.05 185.15 361.85Q183.05 280.85 186.55 199.75L144.9 195.7L146.05 184.85L190.25 185.2L236.1 187.45Q238.7 191.25 237.8 195.85L237.55 197.15M280.35,241.7L281.25 276.55Q282.85 278.3 282.7 280.6Q280.3 321.35 280.6 363.1Q280.65 370.15 276.45 375.95L275.3 372.7Q270.75 357.75 273.15 342.45Q277.15 316.55 274.7 290.35L237.9 295.5Q239.4 321.9 239.7 348.15Q239.8 359.35 235.9 368.85L235.4 369Q232.55 362.45 232.25 355.1Q229.3 287.05 227.75 218.8Q227.65 214.1 231.45 211.25L237.3 282.65L274.4 275.3Q273.6 241.8 274.3 208.5Q274.6 195 277.95 182Q280.95 190.7 280.8 200Q280.5 220.9 280.35 241.7" />
</g>
</svg>
