<?xml version="1.0" encoding="utf-8"?>
<svg version="1.1" id="Layer_1"
xmlns="http://www.w3.org/2000/svg"
xmlns:xlink="http://www.w3.org/1999/xlink"


xml:space="preserve">
q-33.9 -3.4 -67.3 0.55q-4.05 12.95 -4.45 38.3q-0.35 21.45 -0.05 42.95q0.25 16.7 -0.5 33.45q-0.7 16.7 -3.5 33.15q-3.8 22.4 4.7 40.9q7.65 -45.45 7.1 -92.2q20.5 2 40.6 -2.35q3.5 -6.85 -0.15 -13.4q-19.8 -0.05 -40.35 4.35q3.5 -4.3 2 -9.9q3.1 -4.3 2.9 -9.75q-0.15 -4.7 -2.05 -9.15q-13.4 -43.8 -41 -79.35q1.3 18.75 14.9 35.2q-30.25 20.55 -20 55.95q2.45 5.55 5.85 10.5q22.9 3.5 42.75 -8.3q-6.35 34 -3.6 69.1q1.75 22.25 -0.85 44.35q-3.6 30.5 4.95 59.25q6.75 -72.3 2.95 -144.95q-0.75 -13.85 -1.05 -27.75q2.85 -5.2 -0.05 -10.4q0.3 -15.55 1.05 -31.05q1.45 -30.65 -2.9 -59.25q-3.4 11.8 -3.65 27.25q-0.5 31.65 0.15 63.4q-15.65 1.1 -30.95 3.85q0.75 -30.3 -1 -59.25q-1.1 -0.05 -1.25 1.05q-6 50.35 -6.5 102.65q-0.3 30.45 2 59.25q7.3 -5.7 3.5 -15.25q1.65 -34 2.7 -68.35q15.6 0.55 31.65 -0.8q0.95 30.15 -3.7 59.8q-2.25 14.2 5.2 21.7q4.05 -21.55 3.45 -44.25q-0.55 -21.7 -0.35 -43.35q3.8 -7.35 -0.6 -14.1q4.5 13.05 10.8 24.4q-14.65 8.85 -35.05 4.95q-5.6 -7.9 -3.25 -17.25q5.55 -21.6 23.65 -22.4<g id="1164" transform="matrix(1, 0, 0, 1, -139.5, 0)">
<path style="fill:#000000;fill-opacity:1" d="M421.45,194L355.35 191.35L357.95 266.15Q378.5 261.75 398.3 261.8Q401.95 268.35 398.45 275.2Q378.35 279.55 357.85 277.55Q358.4 324.3 350.75 369.75Q342.25 351.25 346.05 328.85Q348.85 312.4 349.55 295.7Q350.3 278.95 350.05 262.25Q349.75 240.75 350.1 219.3Q350.5 193.95 354.55 181Q387.95 177.05 421.85 180.45L422.15 180.8L422.6 181.5L423.1 182.8L423.45 184.1Q424.95 189.7 421.45 194M329.8,365.35L328.7 373.7L320.2 362.65Q300.35 374.45 277.45 370.95Q274.05 366 271.6 360.45L270.95 358.65Q260.7 323.25 290.95 302.7L292.35 302.7Q278.75 286.25 277.45 267.5L279.95 265.5Q307.55 301.05 320.95 344.85L326.95 337.95Q328.85 342.4 329 347.1Q329.2 352.55 326.1 356.85L329.8 365.35M217.35,195.4L178.4 198Q178.7 211.9 179.45 225.75Q183.25 298.4 176.5 370.7Q167.95 341.95 171.55 311.45Q174.15 289.35 172.4 267.1Q169.65 232 176 198L139.85 195.3L139.5 186.5L216.45 183.5L217.3 185Q220.2 190.2 217.35 195.4M249.45,270Q253.85 276.75 250.05 284.1L249.45 284.7L248.05 284.85Q247.85 306.5 248.4 328.2Q249 350.9 244.95 372.45Q237.5 364.95 239.75 350.75Q244.4 321.1 243.45 290.95L243.3 285.3Q227.25 286.65 211.65 286.1Q210.6 320.45 208.95 354.45Q212.75 364 205.45 369.7Q203.15 340.9 203.45 310.45Q203.95 258.15 209.95 207.8Q210.1 206.7 211.2 206.75Q212.95 235.7 212.2 266L212 274.25Q227.3 271.5 242.95 270.4Q242.3 238.65 242.8 207Q243.05 191.55 246.45 179.75Q250.8 208.35 249.35 239Q248.6 254.5 248.3 270.05L249.45 270M298.35,316.3Q280.25 317.1 274.7 338.7Q272.35 348.05 277.95 355.95Q298.35 359.85 313 351Q306.7 339.65 302.2 326.6L298.35 316.3" />
</g>
</svg>
