<?xml version="1.0" encoding="utf-8"?>
<svg version="1.1" id="Layer_1"
xmlns="http://www.w3.org/2000/svg"
xmlns:xlink="http://www.w3.org/1999/xlink"


xml:space="preserve">
q-3.6 50.95 -5.15 102.75q-1.75 59.65 -4.65 119.25q-0.7 15 -2.75 29.75q-2.45 17.5 4.85 29.95q1.75 -0.9 1.9 -2.75q2.1 -21.55 2.65 -43.5q1.45 -59.25 4.65 -118.45q3.25 -60 0.05 -118.5q-1.45 -0.1 -1.55 1.5q17.5 -17.5 38.7 -2.4q9.45 6.7 12.4 18.05q5.95 -21 -14.4 -31.85q-31.65 -17 -43.4 17.45q-10.85 31.9 7.2 61.9q24.9 41.3 40.3 86.6q11.2 33.1 7.1 67.55q-1.15 9.65 -5.25 18.6q-2.25 5 -5.2 9.45q-5.5 8.35 -13 15.2q-9.75 8.8 -21.1 15.55q-24.95 14.85 -53.75 17.9q-7.3 0.45 -10 -5.5q-2.6 18.95 21.95 17.05q48.5 -4.55 76.35 -43.7q24.55 -34.55 21.65 -77.6q-3.05 -44.5 -28.2 -81.45q-29.85 -43.9 -30.15 -93.25q-0.05 -6.05 3.8 -11.15q-6.65 57.95 -10 116.5q-3.25 58.9 -2.7 118.5q0.05 7.5 -1.3 14.75q-3.25 17.45 3.1 29.25q6.55 -24.05 5.65 -50.3q-1.9 -54.55 1.4 -108.5q28.05 -3.35 57.7 -2.65q-0.15 10 -0.15 20.05q-0.15 59.6 -5.8 118.3q-1.65 17.25 5.3 29.4q5.65 -44.4 5.2 -90.75q-0.4 -42.35 1.6 -84.45q0.8 -2.55 0.25 -5.4q0.75 -14.65 1.8 -29.25q4.25 -59.55 1.9 -117.85q-5.4 28.95 -7.05 60.7q-2.2 41.8 -2.85 83.9q-29.9 -3.35 -56.5 6.1q4.25 -59.4 5.75 -117.6q-2.05 1.9 -2.45 5.5q-19.8 -1.35 -39.75 -1q-19 0.35 -37.85 -0.45q-18.75 -0.8 -36.9 -5q-6.75 -1.7 -13.6 1.55q24.6 4.4 50.5 4.45q22.7 0.05 45.45 0.4q-4.8 38.95 -6.3 78.1q-1.7 44.7 -2 89.55q-0.15 22.3 -3.2 44.3q-7.35 53.1 1.55 103.9q1.4 -0.6 1.75 -2.2q0.8 -3.7 1.05 -7q5.9 -144.35 6.6 -288.6<g id="1188" transform="matrix(1, 0, 0, 1, -65.5, 0)">
<path style="fill:#000000;fill-opacity:1" d="M327.2,144Q330.4 202.5 327.15 262.5Q323.95 321.7 322.5 380.95Q321.95 402.9 319.85 424.45Q319.7 426.3 317.95 427.2Q310.65 414.75 313.1 397.25Q315.15 382.5 315.85 367.5Q318.75 307.9 320.5 248.25Q322.05 196.45 325.65 145.5Q325.75 143.9 327.2 144M367.3,175Q367.6 224.35 397.45 268.25Q422.6 305.2 425.65 349.7Q428.55 392.75 404 427.3Q376.15 466.45 327.65 471Q303.1 472.9 305.7 453.95L310.15 451.3L310.7 452.35Q313.4 458.3 320.7 457.85Q349.5 454.8 374.45 439.95Q385.8 433.2 395.55 424.4Q403.05 417.55 408.55 409.2Q411.5 404.75 413.75 399.75Q417.85 390.8 419 381.15Q423.1 346.7 411.9 313.6Q396.5 268.3 371.6 227Q353.55 197 364.4 165.1Q376.15 130.65 407.8 147.65Q428.15 158.5 422.2 179.5Q419.25 168.15 409.8 161.45Q388.6 146.35 371.1 163.85Q367.25 168.95 367.3 175M220.2,185Q218.7 243.2 214.45 302.6Q241.05 293.15 270.95 296.5L272.3 294.85Q272.95 252.75 275.15 210.95Q276.8 179.2 282.2 150.25Q284.55 208.55 280.3 268.1Q279.25 282.7 278.5 297.35Q279.05 300.2 278.25 302.75Q276.25 344.85 276.65 387.2Q277.1 433.55 271.45 477.95Q264.5 465.8 266.15 448.55Q271.8 389.85 271.95 330.25Q271.95 320.2 272.1 310.2L271.45 310.75Q241.8 310.05 213.75 313.4Q210.45 367.35 212.35 421.9Q213.25 448.15 206.7 472.2Q200.35 460.4 203.6 442.95Q204.95 435.7 204.9 428.2Q204.35 368.6 207.6 309.7L207.65 308.95L207.75 307Q211.1 248.45 217.75 190.5Q218.15 186.9 220.2 185M252.2,147.5L162.3 144.35Q161.6 288.6 155.7 432.95L154.75 451Q154.5 454.3 153.7 458Q153.35 459.6 151.95 460.2Q143.05 409.4 150.4 356.3Q153.45 334.3 153.6 312Q153.9 267.15 155.6 222.45Q157.1 183.3 161.9 144.35Q139.15 144 116.45 143.95Q90.55 143.9 65.95 139.5L65.5 130.5L68.5 128.8Q75.35 125.55 82.1 127.25Q100.25 131.45 119 132.25Q137.85 133.05 156.85 132.7Q176.8 132.35 196.6 133.7L252.2 138.5L252.2 147.5" />
</g>
</svg>
