<?xml version="1.0" encoding="utf-8"?>
<svg version="1.1" id="Layer_1"
xmlns="http://www.w3.org/2000/svg"
xmlns:xlink="http://www.w3.org/1999/xlink"


xml:space="preserve">
q-39.65 5.65 -79 3.25q-1.8 3.6 -0.5 7.5q20.95 3.9 42.4 4.55q-2.45 56.6 -6.75 113.1q-2.35 30.55 1.1 59.3q0.9 -0.35 0.95 -0.85q4.05 -29.85 5.7 -60.6q3.1 -55.9 1.35 -110.85q25.2 0.55 51 -3.4q3.55 -5.25 1.05 -11.05q-5.45 7.65 0.05 14.55q5.7 -8.2 -0.25 -14.45q9.7 -45.1 4.7 -91.15q-3.7 19.2 -2.95 40.7q0.8 22.35 -6.55 42q-6.7 2.3 -11.25 -3q-0.05 -1.8 -1.25 -3q-2.45 0.25 -3.3 2.85q-6.4 19.7 16.55 19.9q3.15 -3.3 4.05 -7.55q-37.2 1.1 -74.45 -1.35q-0.25 0 -0.5 0.15q-0.5 0.25 -1 0.55q-1.45 3.1 -0.95 6.7q-6.25 41.9 -6.3 86.8q-0.05 29.7 -4.05 59.05q-2.25 16.5 3.5 29.95q6.6 -31.8 7.7 -66.5q1.7 -55.3 0.75 -109.25q1.75 -3.9 1.2 -8.25q-0.35 -0.4 -0.75 -0.4q-7.9 6.05 -5.2 16.1q2.35 2.1 5 1.25q6.95 -9.55 -0.6 -16.6q-0.45 30.1 -4.2 59.85q-1.75 13.6 4.5 22.15q0.75 -0.6 0.85 -1.3q3.7 -33.45 5.15 -67.4q1.45 -4.15 0.15 -8q0.85 -42.65 -0.8 -84.65q-4.5 40.15 -5.95 81.9q-15.7 1.4 -30.9 5.1q-0.2 -28.35 -2.15 -56.5q-3.3 4.6 -3.15 12q1.15 59.7 -6.1 118.3q-2.05 16.55 3 29.9q5.35 -19.55 6.7 -41.7q1.6 -25.8 1.7 -51.5q15.15 0.2 30.5 -2.2q-0.2 11.3 -2.45 22.2q-6.6 31.8 4.45 60.3q25.55 -0.35 21 -23.25q-8.15 8.7 -19.5 8.75q-3.85 -11.25 -1.85 -23.4q5.4 -33.35 2.1 -65.8q-3.55 9.3 -3.75 21.2<g id="1189" transform="matrix(1, 0, 0, 1, -141.05, 0)">
<path style="fill:#000000;fill-opacity:1" d="M410.2,184.5L410.5 185.2Q413 191 409.45 196.25Q383.65 200.2 358.45 199.65Q360.2 254.6 357.1 310.5Q355.45 341.25 351.4 371.1Q351.35 371.6 350.45 371.95Q347 343.2 349.35 312.65Q353.65 256.15 356.1 199.55Q334.65 198.9 313.7 195L313.45 194.25Q312.15 190.35 313.95 186.75Q353.3 189.15 392.95 183.5L409.45 184.1L410.2 184.5M405.95,240.5Q411.9 246.75 406.2 254.95L405.95 255.25Q400.45 248.35 405.9 240.7L405.95 240.5M397.45,368.2Q374.5 368 380.9 348.3Q381.75 345.7 384.2 345.45Q385.4 346.65 385.45 348.45L385.45 349.2Q390 354.5 396.7 352.2Q404.05 332.55 403.25 310.2Q402.5 288.7 406.2 269.5Q411.2 315.55 401.5 360.65Q400.6 364.9 397.45 368.2M225.2,183.5L225.85 185L226.05 185.7L226.2 186.5L226.4 187.25Q226.95 191.6 225.2 195.5L185.45 195.45Q186.4 249.4 184.7 304.7Q183.6 339.4 177 371.2Q171.25 357.75 173.5 341.25Q177.5 311.9 177.55 282.2Q177.6 237.3 183.85 195.4L143.5 194.75L142.3 193.15L142 192.5L141.75 191.75L141.55 190.95Q141.05 187.35 142.5 184.25L144.5 182.8Q145 182.5 145.5 182.25Q145.75 182.1 146 182.1L149.95 181.85L150 181.75Q187.25 184.2 224.45 183.1Q224.85 183.1 225.2 183.5M290.95,235.25Q298.5 242.3 291.55 251.85L290.7 252.75Q288.05 253.6 285.7 251.5Q283 241.45 290.9 235.4L290.95 235.25M245.85,278.55Q230.5 280.95 215.35 280.75Q215.25 306.45 213.65 332.25Q212.3 354.4 206.95 373.95Q201.9 360.6 203.95 344.05Q211.2 285.45 210.05 225.75Q209.9 218.35 213.2 213.75Q215.15 241.9 215.35 270.25Q230.55 266.55 246.25 265.15Q247.7 223.4 252.2 183.25Q253.85 225.25 253 267.9Q254.3 271.75 252.85 275.9L251.95 301.75Q250.5 335.7 246.8 369.15Q246.7 369.85 245.95 370.45Q239.7 361.9 241.45 348.3Q245.2 318.55 245.65 288.45L245.85 278.55M287.2,267Q290.5 299.45 285.1 332.8Q283.1 344.95 286.95 356.2Q298.3 356.15 306.45 347.45Q311 370.35 285.45 370.7Q274.4 342.2 281 310.4Q283.25 299.5 283.45 288.2Q283.65 276.3 287.2 267" />
</g>
</svg>
