<?xml version="1.0" encoding="utf-8"?>
<svg version="1.1" id="Layer_1"
xmlns="http://www.w3.org/2000/svg"
xmlns:xlink="http://www.w3.org/1999/xlink"


xml:space="preserve">
q-30.6 24.35 -39.15 62.75q-12.15 54.7 2.75 108.85q2.35 8.45 11 11.95q7.8 3.15 16 3.15q6.3 0 12.1 -2.65q6.45 -2.9 11.7 -7.6q3.2 -2.9 6.05 -6.4q-0.3 3.75 0.15 7.35q0.8 6.4 4.3 9.95q6.85 -28.1 1.6 -56.65q-16.25 17.7 -40.4 14.6q-18.75 -34.3 -16 -73.95q2.8 -40.35 26.45 -72.9q4.2 -5.8 9.05 -11.1q-0.35 -16.4 -18.35 -19.05q-6.5 -1.1 -13 0.1q-19.9 -3.25 -40.05 -0.6q-4.45 55.15 -7.35 110.45q-1.9 36.85 2.65 70.15q5.9 -30.3 6.7 -61.3q1.6 -59.55 -0.25 -119.35q-4.1 28.4 -3.8 57.1q0.15 14.25 -0.3 28.5q-13.85 -2.55 -27.7 -0.2q-4.7 12.25 -5.25 25.4q-1.95 44.3 -6.65 88.65q-2.85 26.7 0.65 52.9q0.7 5.15 2.7 6.15q6.6 -45.55 7.85 -91.95q-0.85 31.85 -5.45 63.25q-0.9 6.15 -0.8 12.15q0.2 9.15 4.15 17.5q3.2 -3.95 3.55 -8.9q1.25 -19.7 0.7 -39.8q-0.5 -16.9 -1.75 -33.8q-21.35 -12.35 -35.8 8.15q-12.9 18.2 -14 40.7q-1.05 21.75 9.1 40.45q11.55 21.3 34.45 7.95q13.8 -8 9.15 -23.5q-25.9 18.5 -35.8 -5.25q-5.1 -12.3 -4.4 -25.8q2.6 -3.55 1.85 -8.05q-0.4 -2.4 -1.85 -4.45q7.65 -35.95 44.2 -31.1<g id="1210" transform="matrix(1, 0, 0, 1, -139.55, 0)">
<path style="fill:#000000;fill-opacity:1" d="M397.95,181.15Q415.95 183.8 416.3 200.2L411.2 195.5L384.95 193.25L380.95 195.25Q376.1 200.55 371.9 206.35Q348.25 238.9 345.45 279.25Q342.7 318.9 361.45 353.2Q385.6 356.3 401.85 338.6L404.95 330.2L407.2 333.3L407.95 324.7L392.7 323.7L392.7 316.2L411.45 311.95Q416.7 340.5 409.85 368.6Q406.35 365.05 405.55 358.65Q405.1 355.05 405.4 351.3Q402.55 354.8 399.35 357.7Q394.1 362.4 387.65 365.3Q381.85 367.95 375.55 367.95Q367.35 367.95 359.55 364.8Q350.9 361.3 348.55 352.85Q333.65 298.7 345.8 244Q354.35 205.6 384.95 181.25Q391.45 180.05 397.95 181.15M220.95,188L181.75 189.55Q183.6 249.35 182 308.9Q181.2 339.9 175.3 370.2Q170.75 336.9 172.65 300.05Q175.55 244.75 180 189.6L139.55 189.7L140.25 183L181.15 177.65Q201.3 175 221.2 178.25L221.85 180.5L222.25 183.5L222 185.8L221.75 186.6L220.95 188M253.75,237.75Q254.3 257.85 253.05 277.55L252.35 288.85L247 363.8Q246.65 368.75 243.45 372.7Q239.5 364.35 239.3 355.2Q239.2 349.2 240.1 343.05Q244.7 311.65 245.55 279.8L214.5 277.4Q213.25 323.8 206.65 369.35Q204.65 368.35 203.95 363.2Q200.45 337 203.3 310.3Q208 265.95 209.95 221.65Q210.5 208.5 215.2 196.25L214.85 267.85L218.4 266.9Q232.25 264.55 246.1 267.1Q246.55 252.85 246.4 238.6Q246.1 209.9 250.2 181.5L252 203.95Q253.25 220.85 253.75 237.75M315.7,278.7Q279.15 273.85 271.5 309.8L310.45 306.7Q311.9 308.75 312.3 311.15Q313.05 315.65 310.45 319.2L270.5 319.15Q269.8 332.65 274.9 344.95Q284.8 368.7 310.7 350.2L314.95 344.35L317.85 344.95Q322.5 360.45 308.7 368.45Q285.8 381.8 274.25 360.5Q264.1 341.8 265.15 320.05Q266.25 297.55 279.15 279.35Q293.6 258.85 314.95 271.2L315.7 278.7" />
</g>
</svg>
