<?xml version="1.0" encoding="utf-8"?>
<svg version="1.1" id="Layer_1"
xmlns="http://www.w3.org/2000/svg"
xmlns:xlink="http://www.w3.org/1999/xlink"


xml:space="preserve">
q-5.2 25.65 -5.9 53.15q-1.5 59.35 -6.7 118.4q-5.3 59.75 -4.9 118.55q1.9 2 4 0q2.65 -26.1 4.3 -53.2q3.6 -59.3 7.65 -118.45q3.25 -47.75 2.6 -94.85q0.75 7.3 2.45 14.7q12.9 57.25 24.25 114.8q11.4 57.9 22.15 115.9q1.65 8.95 4.45 16.75q1.35 6.1 4.4 11.1q4.85 -8.9 2 -19.5q4.75 -46.5 10.05 -93.35q6.65 -58.65 9.8 -117.8q1.65 -30.5 0.5 -59.3q-2.15 0.3 -2.5 2.4q-4.55 26.6 -5.7 54.05q-1.3 29.25 -4.2 58.4q-5.95 58.85 -11.6 117.85q-2.7 -10.15 -5.05 -21.25q-12.35 -57.8 -23.25 -115.7q-10.8 -57.65 -24.25 -114.65q-38.3 23.95 -33.6 78.3q2.5 29.25 -1.2 58.65q-8.35 66.55 -1.75 132.05q0.7 7.15 3.05 13.95q30.7 15.3 53.65 -19.3q12.4 -18.6 7.35 -40.2q-0.05 -0.05 -0.2 0.15q-12.6 27.15 -37.35 43.8q-23.95 -2.35 -21.6 -33.1q3.75 -49.75 8.25 -99.75q3.8 -6.55 0 -13.5q-18.75 -3.2 -37.75 2.15q-3.5 -57.45 15.5 -110.4q26.55 -11.4 36.5 14.5q6.65 -25.55 -19.8 -30.2q-5.6 54.45 -7.65 109.5q-0.65 17.15 -1.15 34.3q-4 -0.7 -8.05 0.05q-19.75 -0.1 -38.5 2.8q2.4 -29.35 4.35 -59.1q1.45 -22.85 0.8 -44.35q-7.3 14.8 -7.4 33.75q-0.25 40.95 -3.2 81.45q-0.65 2.85 0.1 5.6q-1.15 14.7 -2.7 29.35q-4.6 44.2 -9.75 88.2q-1.2 10.5 5.35 13.6q4.9 -15.5 5.65 -32.15q2.2 -48.65 5.85 -97.1q28.85 4.8 58.65 1.65q-1 34.4 -1.45 68.85q-0.2 15 -1.95 29.85q-2 16.55 4 29.9q6.35 -24.45 5.8 -52.25q-0.8 -40.4 0.5 -80.7q0.8 -3.05 0.2 -6.1q0.55 -16.2 1.45 -32.35q3.3 -59.7 2.3 -117.8q-1.45 -0.1 -1.6 1.5q-4.6 3.45 -5.85 10.35q-10.45 57.65 -24.15 114.7q-13.85 57.8 -29.35 115.65q-3.95 14.65 -9.45 28.65q-5.5 13.95 2.8 21.6q4.05 -8.05 6.35 -16.95q13.75 -52.95 27.1 -105.7q25.05 0.6 50 -0.25q5.8 45.1 12.6 90.05q1.15 7.5 1.35 14.85q0.5 17 9.6 28.5q2.45 -2.35 2.45 -6q0 -9.2 -1.6 -18.2q-10.4 -58.2 -18.95 -116.7q-3.2 -21.8 -5.5 -43.7q-6.25 -58.85 -14.4 -116.85q-2.7 5.35 -3.45 11.85q-18.45 1.4 -37.05 -0.7q13.9 -55.65 24.75 -111.85q2.75 -14.3 3.9 -28.05q-0.15 4 0.4 8.35q-1.95 5.5 -2.4 12.7q-3.7 59.1 -4.85 118.6q-1.1 59.6 -7.05 118.35q-1.7 16.5 3.2 29.85q4.3 -6.1 4.7 -14.7q2.95 -59.1 3.9 -118.5q0.25 -16.9 1.55 -33.65q4.5 -56.9 3.4 -112.9q3.75 -7.2 -0.9 -13.4q-2.25 6.1 1.3 11.25<g id="1220" transform="matrix(1, 0, 0, 1, -24.95, 0)">
<path style="fill:#000000;fill-opacity:1" d="M342.85,120L343.2 120L344.2 120.75L344.95 121.5Q358.4 178.5 369.2 236.15Q380.1 294.05 392.45 351.85Q394.8 362.95 397.5 373.1L399.2 356.7Q404.85 297.7 410.8 238.85Q413.7 209.7 415 180.45Q416.15 153 420.7 126.4Q421.05 124.3 423.2 124Q424.35 152.8 422.7 183.3Q419.55 242.45 412.9 301.1Q407.6 347.95 402.85 394.45L403.45 396.7Q406.3 407.3 401.45 416.2L400.8 414.95L400.7 415.7Q397.65 410.7 396.3 404.6Q393.5 396.8 391.85 387.85Q381.1 329.85 369.7 271.95Q358.35 214.4 345.45 157.15Q343.75 149.75 343 142.45Q343.65 189.55 340.4 237.3Q336.35 296.45 332.75 355.75Q331.1 382.85 328.45 408.95Q326.35 410.95 324.45 408.95Q324.05 350.15 329.35 290.4Q334.55 231.35 336.05 172Q336.75 144.5 341.95 118.85L342.45 118.75L342.6 123.25L342.85 120M469.65,129.3Q496.1 133.95 489.45 159.5Q479.5 133.6 452.95 145Q433.95 197.95 437.45 255.4Q456.45 250.05 475.2 253.25Q479 260.2 475.2 266.75L436.6 268.1Q432.1 318.1 428.35 367.85Q426 398.6 449.95 400.95Q474.7 384.3 487.3 357.15L486.4 353.3Q486.55 353.1 486.6 353.15L488.05 354.2L491.45 351.95Q496.5 373.55 484.1 392.15Q461.15 426.75 430.45 411.45Q428.1 404.65 427.4 397.5Q420.8 332 429.15 265.45Q432.85 236.05 430.35 206.8Q425.65 152.45 463.95 128.5L469.65 129.3M194.2,119Q195.2 177.1 191.9 236.8Q191 252.95 190.45 269.15Q191.05 272.2 190.25 275.25Q188.95 315.55 189.75 355.95Q190.3 383.75 183.95 408.2Q177.95 394.85 179.95 378.3Q181.7 363.45 181.9 348.45Q182.35 314 183.35 279.6Q153.55 282.75 124.7 277.95Q121.05 326.4 118.85 375.05Q118.1 391.7 113.2 407.2Q106.65 404.1 107.85 393.6Q113 349.6 117.6 305.4Q119.15 290.75 120.3 276.05Q119.55 273.3 120.2 270.45L120.45 269L120.85 268.95Q123.8 228.45 124.05 187.5Q124.15 168.55 131.45 153.75Q132.1 175.25 130.65 198.1Q128.7 227.85 126.3 257.2L125.45 268.2Q144.2 265.3 163.95 265.4L175.75 264.35Q179.8 263.6 183.8 264.3Q184.3 247.15 184.95 230Q187 174.95 192.6 120.5Q192.75 118.9 194.2 119M277.45,116.5Q285.6 174.5 291.85 233.35Q294.15 255.25 297.35 277.05Q305.9 335.55 316.3 393.75Q317.9 402.75 317.9 411.95Q317.9 415.6 315.45 417.95Q306.35 406.45 305.85 389.45Q305.65 382.1 304.5 374.6Q297.7 329.65 291.9 284.55Q266.95 285.4 241.9 284.8Q228.55 337.55 214.8 390.5Q212.5 399.4 208.45 407.45Q200.15 399.8 205.65 385.85Q211.15 371.85 215.1 357.2Q230.6 299.35 244.45 241.55Q258.15 184.5 268.6 126.85Q269.85 119.95 274.45 116.5L274 128.35Q274.75 121.85 277.45 116.5M273.75,132.2Q272.6 145.95 269.85 160.25Q259 216.45 245.1 272.1L245.65 271.95L252.95 270.25Q271.55 272.35 290 270.95L290.15 270.95L288.45 257.35L274.15 140.55Q273.6 136.2 273.75 132.2M27.2,127.25L27.5 126.5L155.45 114.75Q160.1 120.95 156.35 128.15L155.7 129L98.55 132.7Q99.65 188.7 95.15 245.6Q93.85 262.35 93.6 279.25Q92.65 338.65 89.7 397.75Q89.3 406.35 85 412.45Q80.1 399.1 81.8 382.6Q87.75 323.85 88.85 264.25Q90 204.75 93.7 145.65Q94.15 138.45 96.1 132.95L50.75 137.65L28.5 138.5Q24.95 133.35 27.2 127.25" />
</g>
</svg>
