<?xml version="1.0" encoding="utf-8"?>
<svg version="1.1" id="Layer_1"
xmlns="http://www.w3.org/2000/svg"
xmlns:xlink="http://www.w3.org/1999/xlink"


xml:space="preserve">
q-4.9 58.65 -8.85 117.8q-0.9 13.1 -2.65 26q-3.2 23.1 0 44.45q6.8 -6.2 4.25 -16q1.35 -3.6 1.65 -7.45q0.75 -0.1 1.15 -0.55q3.9 -4.65 6.6 -10.2q1.9 14.1 5.15 28.25q3.65 15.8 11.4 27.4q1.6 -1.5 1.25 -3.6q-8.55 -53.2 -24.9 -105.25q13.7 -29.3 26.95 -59.15q6.2 -13.95 4.45 -27.2q-1 -0.1 -1.6 0.8q-5.65 8.95 -9.45 18.95q-13.4 35.3 -33.1 67.25q-5.25 8.5 -7.85 17.35q3.6 -52.9 3 -104.85q-2.05 1.05 -2.25 3.95q-7.85 -41.5 -17.15 -82.5q-1 1.15 -1.65 2.5q-10.6 28.7 -18.85 59.95q-4.05 15.3 -8.45 30.45q-5.6 19.25 -11.85 38.3q-9.3 28.35 -11.5 57.5q0.3 1.75 2 2q10.9 -29.65 19.1 -61.9q3.8 -15 7.9 -30.05q17.4 0.85 35.15 -0.85q2.55 17.55 4.7 35.2q3.7 30.45 13.65 56.85q1.25 -0.8 1.15 -2.2q-1.95 -34.7 -8 -69.2q1.4 -2 1.2 -4.45q-0.25 -3.2 -1.7 -6q-0.35 -0.4 -0.8 -0.5q-21.15 -1.5 -41.85 0.1q-4.3 0.65 -8.25 1.9q-3.05 20.5 -4.55 41.25q-2.4 32.45 -5.85 64.65q-3.5 32.25 2.25 63.2q0.3 1.65 1 3.25q2.2 -6.95 2.75 -14.25q2.9 -40.35 5.15 -80.55q2.15 -38.8 0.15 -77.55q2.55 -10.5 3.7 -21.2q7.95 -25.75 14.3 -51.85q-14.2 2.65 -28.5 3.35q-0.3 -35.55 -2.45 -70.8q-3.65 6.4 -3.6 15.75q0.35 59.65 -3.55 119.15q-1.05 16.3 2.9 29.8q5.65 -21.95 6.3 -46.25q14.7 3.6 27.8 -1.55q-1.1 16.55 3.95 29.8q2.45 -1.2 2.6 -4.25q3.6 -59.7 0.85 -118.55q-3.65 18.9 -4.6 40.45<g id="1229" transform="matrix(1, 0, 0, 1, -141.55, 0)">
<path style="fill:#000000;fill-opacity:1" d="M373.2,178.75Q373.8 230.7 370.2 283.6Q372.8 274.75 378.05 266.25Q397.75 234.3 411.15 199Q414.95 189 420.6 180.05Q421.2 179.15 422.2 179.25Q423.95 192.5 417.75 206.45Q404.5 236.3 390.8 265.6Q407.15 317.65 415.7 370.85Q416.05 372.95 414.45 374.45Q406.7 362.85 403.05 347.05L392.5 301.3Q389.25 287.15 387.35 273.05L376.1 296.65Q373.4 302.2 369.5 306.85Q369.1 307.3 368.35 307.4L365.35 347.5Q365.05 351.35 363.7 354.95Q366.25 364.75 359.45 370.95Q356.25 349.6 359.45 326.5Q361.2 313.6 362.1 300.5Q366.05 241.35 370.95 182.7Q371.15 179.8 373.2 178.75M335.2,266.75Q336.65 269.55 336.9 272.75Q337.1 275.2 335.7 277.2L334.75 277.35L338.6 298.8Q344.65 333.3 346.6 368Q346.7 369.4 345.45 370.2Q335.5 343.8 331.8 313.35Q329.65 295.7 327.1 278.15Q309.35 279.85 291.95 279Q287.85 294.05 284.05 309.05Q275.85 341.3 264.95 370.95Q263.25 370.7 262.95 368.95Q265.15 339.8 274.45 311.45Q280.7 292.4 286.3 273.15L286.7 271.2L286.9 271.15Q291.3 256 295.35 240.7Q303.6 209.45 314.2 180.75L313.8 186Q314.45 184.65 315.45 183.5Q324.75 224.5 332.6 266L334.4 266.25Q334.85 266.35 335.2 266.75M224.95,196L185.55 196.35Q187.55 235.1 185.4 273.9Q183.15 314.1 180.25 354.45Q179.7 361.75 177.5 368.7Q176.8 367.1 176.5 365.45Q170.75 334.5 174.25 302.25Q177.7 270.05 180.1 237.6Q181.6 216.85 184.65 196.35L141.55 192.95L141.75 186.25Q145.7 185 150 184.35Q170.7 182.75 191.85 184.25L225.2 186.25L224.95 196M294.75,268.75L325.2 265.5L312.75 195.7Q311.6 206.4 309.05 216.9Q302.7 243 294.75 268.75M251.6,221.95Q252.55 200.4 256.2 181.5Q258.95 240.35 255.35 300.05L253.25 335.3L251.55 365.95Q251.4 369 248.95 370.2Q243.9 356.95 245 340.4L248.5 284.25Q235.4 289.4 220.7 285.8L220.25 322.95Q219.6 347.25 213.95 369.2Q210 355.7 211.05 339.4Q214.95 279.9 214.6 220.25Q214.55 210.9 218.2 204.5Q220.35 239.75 220.65 275.3Q234.95 274.6 249.15 271.95L251.6 221.95" />
</g>
</svg>
