<?xml version="1.0" encoding="utf-8"?>
<svg version="1.1" id="Layer_1"
xmlns="http://www.w3.org/2000/svg"
xmlns:xlink="http://www.w3.org/1999/xlink"


xml:space="preserve">
q-8.25 25.35 0.35 52.1q9.2 28.45 18.8 56.65q8.7 25.65 -5.1 45.6q-9.3 3.05 -18.65 0.95q-1.4 -0.3 -1.85 -1.45q-6.2 -16.45 -14 -30.5q-2.8 1.9 -2.65 5.25q0.35 8.5 2.65 16.95q3.4 12.25 12 20.85q7.55 7.5 17.65 2.7q24.1 -11.6 18.25 -40.3q-10.5 -51.3 -25.45 -102.1q-7.05 -24 16.55 -27.3q4.25 2.3 7.2 6.15q1.85 2.45 4.55 3.1q1.25 -4.7 -1.45 -8.9q-1.15 -1.8 -1.8 -3.85q-6.4 -7.3 -16.3 -5.7q-7.45 2.75 -10.05 10.6q-5.55 37.7 -7.75 76.9q-3.35 59.7 -5.4 118.5q5.95 -4.5 6.5 -15q2.85 -27.95 4 -56.2q-1.55 30.15 -1.55 59.35q6.9 -5.15 7.7 -17.1q1.9 -27.9 2.9 -56.3q2.05 -59.6 2.9 -117.8q-4 5.35 -4.6 13.4q-2.65 36.05 -4.75 72.25q-10.3 -0.5 -19.75 2.5q-3.85 42.55 -5.25 85.85q0.55 -34.5 -0.25 -68.5q-3.35 7.35 -3.6 17.25q-1.55 59.35 -5.95 118.4q-1.25 16.7 3.85 29.3q3.35 -22.5 4.4 -46.4q0.95 -21.5 1.4 -42.8q13.9 2.95 28 1.25q-0.65 29.7 -3.7 59.1q-1.75 16.85 3.9 29.4q4.95 -33.55 6 -68.25q2.8 -3.95 0.5 -8.2q-0.35 -0.35 -0.75 -0.4q0.55 -43.45 -0.95 -86.2q-37 -3.8 -72.7 5.5q-5.9 66.25 -7.5 132.9q-0.35 15.2 0.85 30.55q0.55 6.9 3.35 13.25q8.5 -88.05 4.5 -176.75q2.3 -4.15 0.1 -8.4q-4.45 13.2 -9.55 34.1q-3.75 15.3 -7.15 30.55q-4.7 21.25 -9.85 42.35q-4.35 17.95 -9.8 35.65q-3 8.6 1.75 13.05q12.2 -32.9 20.6 -67.1q5.75 40.25 8.05 80.7q0.25 4.15 1.55 8.1q1.45 4.35 3.95 6.05q1.75 -16.9 0.3 -34.35q-1 -12.3 -2.7 -24.5q7.85 -37.35 13.15 -74.3q0.75 35.85 4.55 71.7q-9.25 -0.1 -17.7 2.6<g id="1226" transform="matrix(1, 0, 0, 1, -139.75, 0)">
<path style="fill:#000000;fill-opacity:1" d="M353.95,186Q363.85 184.4 370.25 191.7L370.95 192.5Q371.6 194.55 372.75 196.35Q375.45 200.55 374.2 205.25Q371.5 204.6 369.65 202.15Q366.7 198.3 362.45 196Q338.85 199.3 345.9 223.3Q360.85 274.1 371.35 325.4Q377.2 354.1 353.1 365.7Q343 370.5 335.45 363Q326.85 354.4 323.45 342.15Q321.15 333.7 320.8 325.2Q320.65 321.85 323.45 319.95Q331.25 334 337.45 350.45Q337.9 351.6 339.3 351.9Q348.65 354 357.95 350.95Q371.75 331 363.05 305.35Q353.45 277.15 344.25 248.7Q335.65 221.95 343.9 196.6Q346.5 188.75 353.95 186M389.95,185.5L390.2 186.25L386.2 270Q395.65 267 405.95 267.5L408.85 267.65Q410.95 231.45 413.6 195.4Q414.2 187.35 418.2 182Q417.35 240.2 415.3 299.8Q414.3 328.2 412.4 356.1Q411.6 368.05 404.7 373.2Q404.7 344 406.25 313.85L408.05 281.05L385.75 280.35L384.7 304.75Q383.55 333 380.7 360.95L382.2 364.45Q381.65 374.95 375.7 379.45Q377.75 320.65 381.1 260.95Q383.3 221.75 388.85 184.05L389.2 184L389.95 185.5M237.2,183.75Q238.7 226.5 238.15 269.95L239.45 270.05Q239.85 270.1 240.2 270.45L240.7 271.25Q243 275.5 240.2 279.45L238 279.95L237.45 302.2Q236.4 336.9 231.45 370.45Q225.8 357.9 227.55 341.05Q230.6 311.65 231.25 281.95L231.3 281Q217.2 282.7 203.3 279.75Q202.85 301.05 201.9 322.55Q200.85 346.45 197.5 368.95Q192.4 356.35 193.65 339.65Q198.05 280.6 199.6 221.25Q199.85 211.35 203.2 204Q204 238 203.45 272.5L228.95 269.5L231.6 269.6Q233 226.3 236.85 183.75L237.2 183.75M213.05,190.4L176.25 192.95Q180.25 281.65 171.75 369.7Q168.95 363.35 168.4 356.45Q167.2 341.1 167.55 325.9Q169.15 259.25 175.05 193L139.75 193.75L139.75 186.25Q175.45 176.95 212.45 180.75L213.15 182Q215.35 186.25 213.05 190.4M294.2,180.5L302.65 269.75L304.2 270.45L303.85 279.5L308.8 316.2Q310.5 328.4 311.5 340.7Q312.95 358.15 311.2 375.05Q308.7 373.35 307.25 369Q305.95 365.05 305.7 360.9Q303.4 320.45 297.65 280.2L276.6 281.85L271.05 305.35Q262.65 339.55 250.45 372.45L248 372.25Q243.25 367.8 246.25 359.2L256.7 327.1Q262.15 309.4 266.5 291.45Q271.65 270.35 276.35 249.1Q279.75 233.85 283.5 218.55Q288.6 197.65 293.05 184.45L294.2 180.5M296.45,269.3Q292.65 233.45 291.9 197.6Q286.6 234.55 278.75 271.9Q287.2 269.2 296.45 269.3" />
</g>
</svg>
