<?xml version="1.0" encoding="utf-8"?>
<svg version="1.1" id="Layer_1"
xmlns="http://www.w3.org/2000/svg"
xmlns:xlink="http://www.w3.org/1999/xlink"


xml:space="preserve">
q-2.9 -0.6 -5.5 0q-1.05 -0.1 -1.55 0.5q-0.85 0.3 -1.7 0.75q-0.75 1 -0.9 2.25q-0.25 1.9 0.15 3.75q-5.25 44.5 -7.1 89.8q-2.45 59.5 -8.15 118.6q-2.9 29.7 -9.1 58.75q-3.6 16.9 2.2 29.65q8.55 -34.45 11.35 -70.4q9.9 -3.75 18.6 -10.75q14.65 58.8 38 111.35q1.95 -1.35 2 -3.75q0.35 -11.95 -4.45 -23.55q-5.65 -13.6 -9.65 -27.9q-14.95 -53.35 -34.4 -104.75q45.3 -39.4 34 -100.35q-7 -37.75 -44 -47.15q14.2 17 14.05 39.5q-0.1 21.95 -11 40.75q-10.45 18.05 -27.45 29.95q-8.05 5.65 -16.75 10.45q20.7 3.35 34.05 19.25q-2.9 59.1 -6.8 117.8q-4 59.7 -14.1 118.25q-2.8 16.5 2.65 29.9q6.9 -31.25 9.85 -64.95q5.15 -58.9 8.45 -117.8q3.35 -59.95 4.95 -118.45q-4.1 16.55 -5 35.25q0.35 -2.6 -0.15 -5.1q-0.3 -1.65 -1.65 -2.15q-19.65 4.4 -40.1 2.2q-20.8 -1.9 -41.7 -0.05q-20.8 1.9 -41.1 7.1q21.4 2.75 44.1 -2.85q8.8 -2.25 17.95 -0.35q-5.05 60.85 -6.4 122.1q-1.35 59.5 -8 118.6q-3 26.5 0.2 52.65q0.4 3.3 1.25 6.6q11.9 -92 13.45 -185.3q0.75 -43.05 0.6 -86q22.7 5.1 45.75 0.75q7.55 -1.4 14.9 -3.95q1.05 -1.3 1.25 -3q-1.1 52.7 -4 105.15q-22.9 2.4 -42.8 10.95q3.65 -59.9 2.75 -118.5q-3.4 4 -3.65 10.45q-2.5 59.4 -8.8 118.4q-3.25 30.65 0.5 59.1q3.35 -17.75 4.75 -37.2q21.65 -1.8 43.65 -7.1q-3.55 59.5 -10.6 118.35q-2 16.8 3.85 29.35q4.45 -35.9 6.85 -72.75q3.8 -59.75 2.2 -118.5q-4.7 20.3 -5.2 43.5q-3.7 -1.35 -7.7 -2.1q-6.2 1.95 -11.55 5.85q-27.55 20.25 -33.4 54.7q-9.85 58.25 -13.5 117.9q-4.25 49.5 22.1 88.65q0.85 0.45 1.6 1.05q6.6 2.05 12.7 -0.5q7.55 -3.2 13.9 -8.45q20.3 -16.6 16.4 -37.8q-4.7 3.1 -7.85 8.5q-12.45 21.4 -34.4 22.75q-2.1 -2.95 -3.55 -6.15q-17.25 -37.8 -13.75 -81.35q1.55 -19.35 3.25 -38.65q22.5 -2.4 44.55 5.2q5.8 -3.45 6.3 -10q0.6 -7.45 -4.55 -8.25q-0.5 1.95 -2.2 3q-11.45 -1.8 -22.55 -5.85q-10.25 -1.9 -18.55 2.8q2.95 -32.8 6.25 -65.45q4.4 -43.3 39.3 -65.85q5.7 -2.4 11.25 0.75q1.5 2.15 2.5 4.6q1.55 3.8 4.5 5.9q1.65 -2.85 1 -6.05q-1.7 -8 -6.25 -14.95<g id="1227" transform="matrix(1, 0, 0, 1, -51.35, 0)">
<path style="fill:#000000;fill-opacity:1" d="M368.95,125.75Q405.95 135.15 412.95 172.9Q424.25 233.85 378.95 273.25Q398.4 324.65 413.35 378Q417.35 392.3 423 405.9Q427.8 417.5 427.45 429.45Q427.4 431.85 425.45 433.2Q402.1 380.65 387.45 321.85L375.95 275.75L375.05 276.5Q366.35 283.5 356.45 287.25L355.4 286.2L349.8 361.3Q347 397.25 338.45 431.7Q332.65 418.95 336.25 402.05Q342.45 373 345.35 343.3Q351.05 284.2 353.5 224.7Q355.35 179.4 360.6 134.9L359.7 134.5L359.45 133Q359.05 131.15 359.3 129.25Q359.45 128 360.2 127Q361.05 126.55 361.9 126.25Q362.4 125.65 363.45 125.75L363.45 125.85Q366.05 125.25 368.95 125.85L368.95 125.75M363.25,135.6L356.15 275.5Q364.85 270.7 372.9 265.05Q389.9 253.15 400.35 235.1Q411.25 216.3 411.35 194.35Q411.5 171.85 397.3 154.85Q383.95 138.95 363.25 135.6M329.2,122Q327.6 180.5 324.25 240.45Q320.95 299.35 315.8 358.25Q312.85 391.95 305.95 423.2Q300.5 409.8 303.3 393.3Q313.4 334.75 317.4 275.05Q321.3 216.35 324.2 157.25Q325.1 138.55 329.2 122M174.95,120Q167.6 122.55 160.05 123.95Q137 128.3 114.3 123.2L114.5 151.65Q114.65 194.6 113.9 237.65Q112.35 330.95 100.45 422.95Q99.6 419.65 99.2 416.35Q96 390.2 99 363.7Q105.65 304.6 107 245.1Q108.35 183.85 113.4 123Q104.25 121.1 95.45 123.35Q72.75 128.95 51.35 126.2L51.5 119Q71.8 113.8 92.6 111.9Q113.5 110.05 134.3 111.95Q154.75 114.15 174.4 109.75Q175.75 110.25 176.05 111.9Q176.55 114.4 176.2 117Q176 118.7 174.95 120M207.2,115Q208.8 173.75 205 233.5L197.3 351.95Q194.9 388.8 190.45 424.7Q184.6 412.15 186.6 395.35Q193.65 336.5 197.2 277L197.2 276.8Q175.2 282.1 153.55 283.9L146.7 387.5Q145.3 406.95 141.95 424.7Q138.2 396.25 141.45 365.6Q147.75 306.6 150.25 247.2L153.55 160.95Q153.8 154.5 157.2 150.5Q158.1 209.1 154.45 269L154.15 274.45Q174.05 265.9 196.95 263.5L198 263.65Q200.9 211.2 202 158.5Q202.5 135.3 207.2 115M284.95,124.25Q289.5 131.2 291.2 139.2Q291.85 142.4 290.2 145.25Q287.25 143.15 285.7 139.35Q284.7 136.9 283.2 134.75Q277.65 131.6 271.95 134Q237.05 156.55 232.65 199.85Q229.35 232.5 226.4 265.3Q234.7 260.6 244.95 262.5Q256.05 266.55 267.5 268.35L268.95 268.25Q270.65 267.2 271.15 265.25L271.7 263.75Q276.85 264.55 276.25 272Q275.75 278.55 269.95 282Q247.9 274.4 225.4 276.8Q223.7 296.1 222.15 315.45Q218.65 359 235.9 396.8Q237.35 400 239.45 402.95L242.4 404.3L242.95 404.7L243.2 404.95Q265.15 403.6 277.6 382.2Q280.75 376.8 285.45 373.7Q289.35 394.9 269.05 411.5Q262.7 416.75 255.15 419.95Q249.05 422.5 242.45 420.45Q241.7 419.85 240.85 419.4L238.5 418.35L237.45 417.7Q211.1 378.55 215.35 329.05L217.5 299.95Q221.15 240.3 231 182.05Q236.85 147.6 264.4 127.35Q269.75 123.45 275.95 121.5Q279.95 122.25 283.65 123.6L284.95 124.25" />
</g>
</svg>
