<?xml version="1.0" encoding="utf-8"?>
<svg version="1.1" id="Layer_1"
xmlns="http://www.w3.org/2000/svg"
xmlns:xlink="http://www.w3.org/1999/xlink"


xml:space="preserve">
q-18.05 49.8 -37.55 100.3q-21.25 55 -30.7 112.2q0.9 -0.65 1.15 -1.45q7.65 -25.8 15.9 -51.9q17.65 -56.35 37.05 -112.4q4.85 -14.05 11.15 -27.45q5.8 -12.45 0.75 -21.3q9.75 34.55 31.35 63.7q2.45 -1.75 1.3 -4.5q-12.95 -31.75 -32.3 -60q-0.55 0.2 -0.35 0.8q13.65 3.95 16.65 2.7q-11.4 -24.05 -34.45 -11.7q-17.3 9.2 -21.05 28.9q-3.95 20.7 -6.4 41.75q-2.5 21.2 0.65 42.3q3.35 22.25 21.2 35.2q18.65 13.6 35.9 -5.25q12 -13.05 14 -30.5q-16.15 29.4 -42.55 24.3q-19.35 -3.8 -22.5 -23.4q-2.25 -13.8 -2.15 -27.8q22.7 3.05 44.95 -3.1q1.55 -5.2 -2.5 -9q-21.95 -3.1 -43 2.7q-4.2 -45.85 30.95 -66q4.65 -2.65 10.3 -1.1q-22 -6.4 -40.15 8.95q-15.55 13.1 -24.3 31.7q-8.7 18.65 -13.8 38.6q-5.2 20.25 -5.9 41.1q-0.7 20.25 6.5 39.1q7.1 18.55 21.1 32.95q14.45 14.85 36.45 8.1q21.45 -6.6 33.95 -24.25q4.25 -6 3.15 -13.5q-27.4 20.8 -59.55 21.65q-6.05 0.15 -11.4 -3.8q-15.45 -11.3 -20.75 -29.5q-5.8 -19.85 -3.55 -40.6q0.05 -1.45 -0.45 -2.6q-26.45 -4.45 -52.85 -1.1q6.75 -38.8 31.85 -68.6q11.95 -14.2 30.6 -14.6q8.65 -0.2 17 2.1q1.4 0.3 1.8 -1.2q0.85 -3.35 -0.3 -6.55q-1.3 -3.55 -3.6 -6.5q-59.75 0.95 -119.6 5.85q30.55 0.15 63.25 -1.2q-14.95 168.55 -24 337.8q-0.3 5.55 0.55 11.1q19.7 -162 23.05 -328.75q1.35 -6.35 -2.3 -11.85q-5.45 34.25 -6.3 70.2q-1.25 55.4 -1.95 111.15q-29.15 3.3 -56.5 -5.55q2.3 -60.2 6.25 -117.75q-7.75 19.45 -8.6 42.7q-1.45 40.8 -3.8 81.65q-4.05 59.25 -9.9 118.4q-1.6 16.3 2.4 29.9q0.75 -0.6 0.85 -1.3q5.05 -35.65 8.05 -71.8q4.25 -52 6.55 -104.4q26.75 12.15 56.75 6.8q-0.8 58.85 -7 116.95q-3.3 30.85 0.8 59q4.9 -34.15 6.5 -70.2q2.1 -60.1 2.15 -118.45q-0.6 -0.2 -0.7 0.3q-4.4 2.6 -3.4 10.4q-10.6 32.7 -29.7 61q-1.5 2.25 -2.2 4.9q-1.75 6.75 0.75 13.1q17.8 3.55 35.55 -0.25q8.25 44.3 22.95 84.15q0.55 -37.65 -11.35 -74.9q-6.55 -20.65 -11.35 -41.9q-5.3 -23.55 -5 -47.05<g id="1213" transform="matrix(1, 0, 0, 1, -41.65, 0)">
<path style="fill:#000000;fill-opacity:1" d="M414.2,93.3Q407.9 106.7 403.05 120.75Q383.65 176.8 366 233.15Q357.75 259.25 350.1 285.05Q349.85 285.85 348.95 286.5L347.3 285.15L346.7 284.5Q356.15 227.3 377.4 172.3Q396.9 121.8 414.95 72Q420 80.85 414.2 93.3M347.95,69.5Q367.3 97.75 380.25 129.5Q381.4 132.25 378.95 134Q357.35 104.85 347.6 70.3Q347.4 69.7 347.95 69.5M378.4,287.15Q343.25 307.3 347.45 353.15Q368.5 347.35 390.45 350.45Q394.5 354.25 392.95 359.45Q370.7 365.6 348 362.55Q347.9 376.55 350.15 390.35Q353.3 409.95 372.65 413.75Q399.05 418.85 415.2 389.45Q413.2 406.9 401.2 419.95Q383.95 438.8 365.3 425.2Q347.45 412.25 344.1 390Q340.95 368.9 343.45 347.7Q345.9 326.65 349.85 305.95Q353.6 286.25 370.9 277.05Q393.95 264.7 405.35 288.75Q402.35 290 388.7 286.05Q383.05 284.5 378.4 287.15M311.45,70.5Q313.75 73.45 315.05 77Q316.2 80.2 315.35 83.55Q314.95 85.05 313.55 84.75L310.45 81.25Q302.1 78.95 293.45 79.15Q274.8 79.55 262.85 93.75Q237.75 123.55 231 162.35Q257.4 159 283.85 163.45L285 166.05Q285.5 167.2 285.45 168.65L285 172.35L284.2 175L229.7 171.1L228.95 178.75Q226.7 199.5 232.5 219.35Q237.8 237.55 253.25 248.85Q258.6 252.8 264.65 252.65Q296.8 251.8 324.2 231Q325.3 238.5 321.05 244.5Q308.55 262.15 287.1 268.75Q265.1 275.5 250.65 260.65Q236.65 246.25 229.55 227.7Q222.35 208.85 223.05 188.6Q223.75 167.75 228.95 147.5Q234.05 127.55 242.75 108.9Q251.5 90.3 267.05 77.2Q285.2 61.85 307.2 68.25L311.45 70.5M174.3,77.2L106.1 78.45L105.55 105.7Q102.2 272.45 82.5 434.45L81.45 427.35Q80.6 421.8 80.9 416.25Q89.95 247 104.9 78.45Q72.2 79.8 41.65 79.65L41.75 72.25L52.05 71.1Q111.9 66.2 171.65 65.25L172 65.35Q175.65 70.85 174.3 77.2M207.2,65Q207.15 123.35 205.05 183.45L200.85 302.65L198.45 362Q196.85 398.05 191.95 432.2Q187.85 404.05 191.15 373.2Q197.35 315.1 198.15 256.25Q168.15 261.6 141.4 249.45Q139.1 301.85 134.85 353.85Q131.85 390 126.8 425.65Q126.7 426.35 125.95 426.95Q121.95 413.35 123.55 397.05Q129.4 337.9 133.45 278.65L135.55 245.55L135.5 243.75L135.8 241.85Q138.15 201 139.6 160.2Q140.45 136.95 148.2 117.5Q144.25 175.05 141.95 235.25L141.75 241.1Q169.1 249.95 198.25 246.65Q198.95 190.9 200.2 135.5Q201.05 99.55 206.5 65.3Q206.6 64.8 207.2 65M292.2,273Q291.9 296.5 297.2 320.05Q302 341.3 308.55 361.95Q320.45 399.2 319.9 436.85Q305.2 397 296.95 352.7Q279.2 356.5 261.4 352.95L222.45 431.2L221.8 429.65Q219.3 423.3 221.05 416.55Q221.75 413.9 223.25 411.65Q242.35 383.35 252.95 350.65L253.2 344.7L255.55 344.55L285.6 283.6Q284.6 275.8 289 273.2L290.6 275.55L292.2 273M295.05,342.9L286.5 289.9L265.4 343.85L295.05 342.9" />
</g>
</svg>
