<?xml version="1.0" encoding="utf-8"?>
<svg version="1.1" id="Layer_1"
xmlns="http://www.w3.org/2000/svg"
xmlns:xlink="http://www.w3.org/1999/xlink"


xml:space="preserve">
q-2.2 33.55 -3.35 67.55q-2 59.7 0.7 118.5q5.7 -1.65 4.9 -9.7q-1.75 -17.1 -1.8 -34.55q-0.05 -24.8 0.75 -49.55q8.7 1.2 17.1 -0.3q-1.1 33.05 -3.55 66.05q-1.2 16.55 3.85 29.8q0.9 -0.6 0.95 -1.3q3.7 -36.6 4.7 -74.2q1.5 -5.2 -1.15 -9.2q0.85 -42.7 1.05 -84.3q-7 20.5 -7 45q0.05 19.05 -0.4 38.05q1.2 -28.5 3.55 -57.05q1.35 -15.85 -1.15 -30.05q-3.75 1.95 -4.1 7.4q-22.6 35.95 1.9 72.45q14.9 22.1 19.8 48.05q5.35 28.2 -15.25 45.3q-10.45 3.95 -21 3q-3.05 -3.05 -5.5 -6.7q-5.9 -8.65 -11.75 -15.8q-2.4 2 -2.2 5.25q1.25 21.9 19.95 35.25q12.45 -0.15 23.05 -6.95q6.45 -4.05 9.85 -10.6q10.65 -20.7 8.65 -45q-2.45 -30.35 -19.85 -55.05q-16.4 -23.25 -10.45 -49.65q2.75 -12.15 14.6 -9.1q15.15 3.95 17.15 19.65q6.9 -28.3 -21.6 -34.2q-5 0.6 -7.7 4.9q-5.05 66.2 -9.35 132.75q-1 7.75 0.6 15.3q1.15 5.25 3.7 9.6q8.4 -43.2 8.15 -87.5q-9 45.5 -1 89.55q0 -0.1 0.5 -0.3q6.2 -17.55 6.65 -36.35q0.2 -9.5 0.7 -18.95q0.9 -17.85 2.25 -35.55q3.7 -6.75 -0.1 -13.4q-0.85 0.4 -1.75 0.75q-39 -0.5 -77.7 1q-2.45 6 0.2 12q16.45 0.45 32.95 0.55q-0.75 2.7 -0.8 5.95q-0.8 59.45 -2.45 119.2q-0.4 14.9 -2.1 29.8q-1.5 13.65 4.65 21.7q0.6 -0.75 0.7 -1.55q3.6 -31.55 4.55 -63.7q1.65 -56.45 -0.25 -111.35q3.65 -7.05 -0.6 -13.4q-10.65 -0.5 -15.9 8.1q-8.5 13.85 -11.6 30.3q-11.1 58.35 -3.35 117.9q1 7.6 3.95 14.5q11.6 27.4 39.8 11q25.2 -14.7 19.1 -39.7q-3.7 0.85 -5 4.7q-16 22.3 -42.5 19.5q-1.85 -1.85 -2.65 -4.1q-10.85 -31.15 -8.95 -65.75q2.05 -2.25 2.6 -5.2q1.1 -6.05 -2.85 -10.5q-15.35 0.45 -30.05 4.85q3.1 -32.6 11.8 -64.1q3.65 -4 8.8 -5.55q26.65 -8.15 34.95 14.3q4.85 -26.5 -22.95 -29.9q-2.4 1.55 -6.5 1.35<g id="1244" transform="matrix(1, 0, 0, 1, -136.85, 0)">
<path style="fill:#000000;fill-opacity:1" d="M401.45,181.75Q403.95 195.95 402.6 211.8Q400.25 240.35 399.05 268.85L416.05 266.05Q416.5 247.05 416.45 228Q416.45 203.5 423.45 183Q423.25 224.6 422.4 267.3Q425.05 271.3 423.55 276.5L422.2 279.45L422.15 279.5L421.6 301.45Q420.6 339.05 416.9 375.65Q416.85 376.35 415.95 376.95Q410.9 363.7 412.1 347.15Q414.55 314.15 415.65 281.1Q407.25 282.6 398.55 281.4Q397.75 306.15 397.8 330.95Q397.85 348.4 399.6 365.5Q400.4 373.55 394.7 375.2Q392 316.4 394 256.7Q395.15 222.7 397.35 189.15Q397.7 183.7 401.45 181.75M366.95,178.5Q395.45 184.4 388.55 212.7L388.2 213.5Q386.2 197.8 371.05 193.85Q359.2 190.8 356.45 202.95Q350.5 229.35 366.9 252.6Q384.3 277.3 386.75 307.65Q388.75 331.95 378.1 352.65Q374.7 359.2 368.25 363.25Q357.65 370.05 345.2 370.2Q326.5 356.85 325.25 334.95Q325.05 331.7 327.45 329.7Q333.3 336.85 339.2 345.5Q341.65 349.15 344.7 352.2Q355.25 353.15 365.7 349.2Q386.3 332.1 380.95 303.9Q376.05 277.95 361.15 255.85Q336.65 219.35 359.25 183.4Q361.95 179.1 366.95 178.5M241.45,180.75L242.45 267.8L242.85 267.95L243.1 268.3Q246.9 274.95 243.2 281.7L241 282.2Q239.65 299.9 238.75 317.75Q238.25 327.2 238.05 336.7Q237.6 355.5 231.4 373.05Q230.9 373.25 230.9 373.35Q222.9 329.3 231.9 283.8L207.85 285.7Q208.1 330 199.7 373.2Q197.15 368.85 196 363.6Q194.4 356.05 195.4 348.3L196.55 336.65Q200.85 270.1 205.9 203.9L208.05 273.6L232.95 267.65L239.7 181.5Q240.6 181.15 241.45 180.75M218.05,196.4L217.45 197L176.75 197.35Q178.65 252.25 177 308.7Q176.05 340.85 172.45 372.4Q172.35 373.2 171.75 373.95Q165.6 365.9 167.1 352.25Q168.8 337.35 169.2 322.45Q170.85 262.7 171.65 203.25Q171.7 200 172.45 197.3Q155.95 197.2 139.5 196.75Q136.85 190.75 139.3 184.75L139.75 184Q178.45 182.5 217.45 183Q221.7 189.35 218.05 196.4M292.95,180Q320.75 183.4 315.9 209.9L315.45 210.25Q307.15 187.8 280.5 195.95Q275.35 197.5 271.7 201.5Q263 233 259.9 265.6Q274.6 261.2 289.95 260.75L296.45 261Q300.4 265.45 299.3 271.5Q298.75 274.45 296.7 276.7L258.85 280.1Q256.95 314.7 267.8 345.85Q268.6 348.1 270.45 349.95Q296.95 352.75 312.95 330.45L313.45 328.15Q314.75 324.3 318.45 323.45Q324.55 348.45 299.35 363.15Q271.15 379.55 259.55 352.15Q256.6 345.25 255.6 337.65Q247.85 278.1 258.95 219.75Q262.05 203.3 270.55 189.45Q275.8 180.85 286.45 181.35Q290.55 181.55 292.95 180" />
</g>
</svg>
