<?xml version="1.0" encoding="utf-8"?>
<svg version="1.1" id="Layer_1"
xmlns="http://www.w3.org/2000/svg"
xmlns:xlink="http://www.w3.org/1999/xlink"


xml:space="preserve">
q-1.5 -2.4 -3.8 -4q-21.75 2.3 -33.8 22.9q-9.95 17.1 -12.55 36.6q-2.55 19.15 -4.1 38.45q-1.8 22.85 11.65 39.8q7.9 9.85 20.8 10.75q19.05 -8.2 26.45 -25.85q0.65 -1.6 -0.7 -3.4q-18 0.55 -23.4 -17.95q-5.1 -17.6 -2.6 -36.1q-18 -10.3 -38.45 1.4q4.85 -30.25 21.45 -55.9q13.6 -7.85 28.75 -4.25q1.35 -4.15 -0.95 -7.95q-12.9 17.25 -16.25 38.85q-7 45 5.7 88.15q17 57.65 32.75 114.55q15.75 56.85 23.4 115.25q6.1 46.75 -14.1 87.15q-9.75 3.5 -17.75 -0.75q-2.8 -5 -3.9 -10.55q-2.1 -10.95 -6.35 -16.45q-2.95 8.95 -1 18.1q3 14.25 12.5 23.9q4.6 -2.1 6.45 -6.85q17.6 -46 12 -95.95q-6.5 -58.35 -21.95 -114.65q-7.95 -28.85 -18.85 -56.4q-22.65 -56.95 -24.4 -116.85q-1.05 -37.75 22.75 -65.25q13.2 -6.1 24 1.25q0.4 -0.4 0.4 -0.8q1.3 -15.2 -16.15 -13.95q-9.95 2.8 -16.5 11.5q-18.95 6.65 -22.9 26.1q-7.9 38.9 -10.55 79.35q-3.85 59.2 -5.65 118.5q-0.6 18.35 -2 36.65q-2.35 29.55 18.6 48.1q9.7 2.45 18.4 -1.35q30.2 -13.2 30.35 -46.4q-2.95 4.6 -5.55 10.35q-10.6 23.5 -35.5 24.35q-10.05 0.3 -13.5 -9.2q-8.55 -23.8 -7.4 -50.55q18.75 0.75 38.6 -2.55q2.1 -4.95 -0.95 -8.95q-19.3 0.35 -37.8 5.15q2.15 -49.35 13.35 -95.9q12.45 -15.55 29.25 -10.25q-0.05 -1.25 -0.7 -2.25q-4.8 -4.15 -11.2 -3.8q0.7 20.55 4.4 40.95q2.5 13.65 7.7 21.85q-2.5 -20.05 -3.15 -40.3q-0.25 -7.55 -2.7 -14.5q-1.2 -3.5 -3.35 -6.45q5.35 -9.85 8.95 -20.6q3.15 -9.45 5.05 -19.2q1 -5 1.5 -10.2q-8.6 34.05 -21.95 65.85q-8 -39.25 -25.3 -74.95q13.35 45.05 25.85 89.35q19 -38.15 26.25 -79.45q-0.65 -2.35 -3 -1.5q-0.6 0.6 -0.8 1.35q-5.65 -5.75 -13.85 -4.65q-6.3 2.2 -10.45 7.6q-23.55 30.65 -27.5 69.8q-5.9 59.25 -8.75 119.3q-2.8 59.05 -4.4 118.5q-1.55 57 1.3 113.3q1.5 30.6 29.8 35.95q3.6 -0.6 6.9 -2.2q2.4 -1.15 4.1 -3.3q9.1 -4.3 16.2 -11.25q21.15 -20.65 20.8 -48.25q-10.5 23.25 -28.8 40.15q-9.9 9.2 -22.2 9.4q-3.85 0.1 -6.35 -2.1q-16.4 -14.3 -16.35 -37.95q0.05 -59.8 1.35 -119.25q1.3 -59.2 3.8 -118.5q2.35 -46.4 22.3 -87.3q9.8 -20.2 28.45 -10.85q0.2 1.1 0.85 2.1q1 -1.2 1.1 -2.75q0.1 -1.9 0.35 -3.75q-1.25 59.15 -4.45 118.4q-2.05 38.1 -3.95 76.3q-15.95 0.2 -31.9 -2.2q-5.95 3.55 -16.05 1.4q-4.2 -0.9 -7.65 0.1q3.55 -54.65 5.8 -109.7q2.5 -59.85 2.15 -118.55q-5.4 27.05 -5.8 57q-0.85 59.3 -4.6 118.4q-3.25 59.6 -5.2 119.25q-0.5 15.05 -2.55 29.8q-2.3 16.7 3.4 29.45q5.65 -57.8 7.45 -117q1.85 -58.7 5.7 -117.15q-2.85 59.25 -4.55 118.5q-0.85 29.95 -4 59.8q-1.45 13.6 4.45 21.7q6.55 -55.2 7.45 -111.75q0.95 -59.15 4.65 -118.4q3.75 -59 5.2 -118.55q-5.6 13.5 -5.95 30.25q-4.3 3.55 -1.5 8.85q29.7 2.4 59.55 1.8q-6.1 102.35 -5.1 204.9q-7.05 113.3 -9.6 225.7q-0.05 2.2 1 4.45q8 -87.6 11.5 -175.5q5.15 -130 3.25 -259.8q3.6 -5.1 0.8 -10.95q18.5 -1.1 37 -4q2 -5.35 -2.3 -7.75q-17.8 0.85 -35.25 4.25q-0.8 3.55 0.55 6.8q-2.05 8.4 -2.15 18.25q-0.3 2.5 0.65 4.5q-1.35 22.15 -4.3 44.05q-2.15 16.1 2 29.45q2.35 -5.2 2.85 -11.2q2.7 -30.35 3.75 -60.55q5.45 0.1 9.95 -1.2q5.55 39 22.2 74.7q2 -1.05 1.45 -3.3q-8.65 -36.65 -21.25 -72.25q8.5 -3.45 13.25 -12.7q16.4 -32.05 -15.45 -47.25q-7.1 0.05 -12.75 4.25q-0.5 1.1 -0.6 2.25q-0.15 1.7 0.85 3q16.1 15.55 -0.75 34.2q-8.8 1.8 -17.1 4.15q0.5 -21.45 0.2 -42.85q10.05 -2.85 17.65 4.5q6.3 -52.65 1.7 -105.65q-3.45 25.2 -4.1 53.25q-0.6 27.9 1.85 52.95<g id="1241" transform="matrix(1, 0, 0, 1, -10.7, 0)">
<path style="fill:#000000;fill-opacity:1" d="M500.7,67Q485.55 63.4 471.95 71.25Q455.35 96.9 450.5 127.15Q470.95 115.45 488.95 125.75L489.2 131.75L449.45 135.45Q446.95 153.95 452.05 171.55Q457.45 190.05 475.45 189.5L501.2 172.75Q502.55 174.55 501.9 176.15Q494.5 193.8 475.45 202Q462.55 201.1 454.65 191.25Q441.2 174.3 443 151.45Q444.55 132.15 447.1 113Q449.7 93.5 459.65 76.4Q471.7 55.8 493.45 53.5L495.95 55.05Q498.25 56.65 499.75 59.05Q502.05 62.85 500.7 67M434.95,51Q452.4 49.75 451.1 64.95Q451.1 65.35 450.7 65.75Q439.9 58.4 426.7 64.5Q402.9 92 403.95 129.75Q405.7 189.65 428.35 246.6Q439.25 274.15 447.2 303Q462.65 359.3 469.15 417.65Q474.75 467.6 457.15 513.6Q455.3 518.35 450.7 520.45L433.45 520.7Q423.95 511.05 420.95 496.8Q419 487.65 421.95 478.7Q426.2 484.2 428.3 495.15Q429.4 500.7 432.2 505.7Q440.2 509.95 449.95 506.45Q470.15 466.05 464.05 419.3Q456.4 360.9 440.65 304.05Q424.9 247.15 407.9 189.5Q395.2 146.35 402.2 101.35Q405.55 79.75 418.45 62.5Q425 53.8 434.95 51M395.15,205.3L395.7 206Q396.35 207 396.4 208.25L396.15 211.95L395.95 212.75Q379.15 207.45 366.7 223Q355.5 269.55 353.35 318.9L352.4 341.15Q370.9 336.35 390.2 336Q393.25 340 391.15 344.95L390.7 345.7Q370.85 349 352.1 348.25L348.25 437.4Q347.1 464.15 355.65 487.95Q359.1 497.45 369.15 497.15Q394.05 496.3 404.65 472.8Q407.25 467.05 410.2 462.45Q410.05 495.65 379.85 508.85Q371.15 512.65 361.45 510.2Q340.5 491.65 342.85 462.1Q344.25 443.8 344.85 425.45Q346.65 366.15 350.5 306.95Q353.15 266.5 361.05 227.6Q365 208.15 383.95 201.5Q390.35 201.15 395.15 205.3M332.45,228.95Q330.55 238.7 327.4 248.15Q323.8 258.9 318.45 268.75L305.2 205L279.45 259L278.7 251.5L306.2 192.75L319.95 252.75L333.95 195.5Q336.1 198.45 337.3 201.95Q339.75 208.9 340 216.45Q340.65 236.7 343.15 256.75L346.05 281.55Q340.85 273.35 338.35 259.7Q334.65 239.3 333.95 218.75Q333.45 223.95 332.45 228.95M341.45,292.75Q343.8 291.9 344.45 294.25Q337.2 335.55 318.2 373.7Q305.7 329.4 292.35 284.35L293.2 284.25Q310.5 319.95 318.5 359.2L318.7 359.95Q332.05 328.15 340.65 294.1Q340.85 293.35 341.45 292.75M315,60.5L315.8 62.65L316.45 65L316.4 65.75Q316.15 67.6 316.05 69.5Q315.95 71.05 314.95 72.25L314.35 71.65Q313.7 70.65 313.5 69.55L312.95 68Q294.3 58.65 284.5 78.85Q264.55 119.75 262.2 166.15L259.4 225.45Q256.9 284.75 255.6 343.95Q254.3 403.4 254.25 463.2Q254.2 486.85 270.6 501.15Q273.1 503.35 276.95 503.25Q289.25 503.05 299.15 493.85Q317.45 476.95 327.95 453.7Q328.3 481.3 307.15 501.95Q300.05 508.9 290.95 513.2Q289.25 515.35 286.85 516.5Q283.55 518.1 279.95 518.7Q251.65 513.35 250.15 482.75Q247.3 426.45 248.85 369.45Q250.45 310 253.25 250.95Q256.1 190.9 262 131.65Q265.95 92.5 289.5 61.85Q293.65 56.45 299.95 54.25Q308.15 53.15 313.8 58.9L314.7 59.75L315 60.5M200.2,46.25L197 164.75Q195.55 224.3 191.8 283.3Q188.1 342.55 187.15 401.7Q186.25 458.25 179.7 513.45Q173.8 505.35 175.25 491.75Q178.4 461.9 179.25 431.95Q180.95 372.7 183.8 313.45L185.4 280.55L129.6 280.55Q125.75 339 123.9 397.7Q122.1 456.9 116.45 514.7Q110.75 501.95 113.05 485.25Q115.1 470.5 115.6 455.45Q117.55 395.8 120.8 336.2L124.2 276.75L124.25 276L127.8 217.65Q131.55 158.55 132.4 99.25Q132.8 69.3 138.2 42.25Q138.55 100.95 136.05 160.8Q133.8 215.85 130.25 270.5Q133.7 269.5 137.9 270.4Q148 272.55 153.95 269Q169.9 271.4 185.85 271.2Q187.75 233 189.8 194.9Q193 135.65 194.25 76.5Q194.6 59.75 200.2 46.25M120.25,42.3Q123.05 48.15 119.45 53.25L75.9 55.25Q77.8 185.05 72.65 315.05L71.95 329.9L71.25 344.7Q67.75 432.6 59.75 520.2Q58.7 517.95 58.75 515.75Q61.3 403.35 68.35 290.05L68.95 275.15L69 260.2Q68 157.65 74.1 55.3Q44.25 55.9 14.55 53.5L14 53.1L13.5 52.6Q10.7 47.3 15 43.75L18.25 45.25L119.45 40.75L120.25 42.3M258.4,271.95L258.7 270.5Q276.15 267.1 293.95 266.25Q298.25 268.65 296.25 274L295.95 274.75Q277.45 277.65 258.95 278.75Q257.6 275.5 258.4 271.95M200.6,386.7Q200.7 385.55 201.2 384.45Q206.85 380.25 213.95 380.2Q245.8 395.4 229.4 427.45Q224.65 436.7 216.15 440.15Q228.75 475.75 237.4 512.4Q237.95 514.65 235.95 515.7Q219.3 480 213.75 441Q209.25 442.3 203.8 442.2Q202.75 472.4 200.05 502.75Q199.55 508.75 197.2 513.95Q193.05 500.6 195.2 484.5Q198.15 462.6 199.5 440.45Q198.55 438.45 198.85 435.95L199.45 432.95L199.95 432.8L200.6 407.45Q200.7 397.6 202.75 389.2L201.45 389.7Q200.45 388.4 200.6 386.7M204.3,388.75Q204.6 410.15 204.1 431.6Q212.4 429.25 221.2 427.45Q238.05 408.8 221.95 393.25Q214.35 385.9 204.3 388.75M211.95,374.2Q209.5 349.15 210.1 321.25Q210.75 293.2 214.2 268Q218.8 321 212.5 373.65L211.95 374.2" />
</g>
</svg>
