<?xml version="1.0" encoding="utf-8"?>
<svg version="1.1" id="Layer_1"
xmlns="http://www.w3.org/2000/svg"
xmlns:xlink="http://www.w3.org/1999/xlink"


xml:space="preserve">
q-16 -24.2 -41.4 -5.1q-4.75 3.55 -8.35 8.6q-14.4 28.4 -19.45 59.55q21.65 -3.85 43.7 -5.3q7.4 5.65 2.4 15.15q-2.6 29.7 4.45 58.2q2.5 10.05 12.7 12.9q29.55 8.3 51.95 -11.75q0.2 -1.15 0.7 -2.25q0.5 -0.35 1.05 -0.65q1.2 -0.7 2.55 -1.05q11.7 25.1 -15.95 39.1q-30.2 15.25 -54.05 -6.65q-8.65 -7.95 -9.95 -19.9q-6.55 -59.6 9.4 -117.45q9.6 -34.9 41.05 -47.55q27.25 1.45 26.05 26.95q-2.7 46.15 -5.9 92.25q25.75 0.8 50.85 -3.6q5.15 6.95 0.9 14.95q-26.45 6.85 -54.25 0.5q-5.85 -13.35 -3.95 -29.9q6.75 -58.85 7.4 -118.3q0.3 -25.2 7.05 -46.5q3.1 13.8 2.25 30.05q2.55 5.55 -0.2 11.2q1.9 54.3 2.05 110q0.05 36.95 -6.9 72q-6.75 -11.8 -4.25 -29.2q6.3 -43.9 4.6 -89q-1.2 -32.65 2.45 -63.65q-21.6 1.45 -43.05 4.15q-2.2 -4.3 -0.45 -8.95q35.4 -9.3 72.2 -9.75q0.75 0.05 1.5 0.45q4.4 43.65 0.4 88.6q-2.15 23.8 -3.25 47.9q-1.4 30 -5.8 59.2q-0.25 1.9 -2.35 1.75q-4.55 -13.7 -3 -30.1q3.1 -32.9 5.35 -65.85q-15.9 -0.55 -31.35 3.2q-0.75 15.4 -1.9 30.95q-1.5 20.55 -2.5 41.1q-0.15 9.6 -2.95 18.7q-6.8 -7.45 -5.7 -21.6q4.45 -59.05 6.35 -118.4q0.75 -22.25 6.85 -40.45q1 37.2 -0.35 74.9q2.8 -4.3 9.85 -5.4q11.35 -1.25 22 0.7q1.15 -24.8 4.9 -48.65q0 -0.25 0.75 -0.35<g id="1248" transform="matrix(1, 0, 0, 1, -138.7, 0)">
<path style="fill:#000000;fill-opacity:1" d="M350.45,203Q334.45 178.8 309.05 197.9Q304.3 201.45 300.7 206.5Q286.3 234.9 281.25 266.05Q302.9 262.2 324.95 260.75Q332.35 266.4 327.35 275.9L326.7 276.7L279.45 280.15L279.35 281.35Q276.75 311.05 283.8 339.55Q286.3 349.6 296.5 352.45Q326.05 360.75 348.45 340.7L348.4 340L348.2 338.45L347.9 337L347.45 335.45L347.6 334.75L348 333.2Q348.2 332.05 348.7 330.95L349.45 329.45Q349.95 329.1 350.5 328.8Q351.7 328.1 353.05 327.75L354.45 327.7Q366.15 352.8 338.5 366.8Q308.3 382.05 284.45 360.15Q275.8 352.2 274.5 340.25Q267.95 280.65 283.9 222.8Q293.5 187.9 324.95 175.25Q352.2 176.7 351 202.2L350.45 203M376.35,266.45Q373.65 312.6 370.45 358.7L370.6 359.55Q396.35 360.35 421.45 355.95Q426.6 362.9 422.35 370.9L421.7 371.7Q395.25 378.55 367.45 372.2L367.3 371.8L366.95 371.95Q361.1 358.6 363 342.05Q369.75 283.2 370.4 223.75Q370.7 198.55 377.45 177.25Q380.55 191.05 379.7 207.3L376.35 266.45M228.2,176.75L228.5 177.45Q231.05 183 228.3 188.65L227.7 189.5L186.6 191.2Q188.5 245.5 188.65 301.2Q188.7 338.15 181.75 373.2Q175 361.4 177.5 344Q183.8 300.1 182.1 255Q180.9 222.35 184.55 191.35Q162.95 192.8 141.5 195.5L140.9 194.65Q138.7 190.35 140.45 185.7L140.75 185Q176.15 175.7 212.95 175.25L226.7 176.3Q227.45 176.35 228.2 176.75M265.45,177Q269.85 220.65 265.85 265.6Q263.7 289.4 262.6 313.5Q261.2 343.5 256.8 372.7Q256.55 374.6 254.45 374.45Q249.9 360.75 251.45 344.35Q254.55 311.45 256.8 278.5Q240.9 277.95 225.45 281.7L224.6 280.9Q223.85 296.3 222.7 311.85Q221.2 332.4 220.2 352.95L221.15 354.25L221.45 354.95Q221.3 364.55 218.5 373.65L217.95 374.45Q211.15 367 212.25 352.85Q216.7 293.8 218.6 234.45Q219.35 212.2 225.45 194Q226.45 231.2 225.1 268.9Q227.9 264.6 234.95 263.5Q246.3 262.25 256.95 264.2L257.75 264.35L259.8 226Q260.95 201.2 264.7 177.35Q264.7 177.1 265.45 177" />
</g>
</svg>
