<?xml version="1.0" encoding="utf-8"?>
<svg version="1.1" id="Layer_1"
xmlns="http://www.w3.org/2000/svg"
xmlns:xlink="http://www.w3.org/1999/xlink"


xml:space="preserve">
q-2.95 1.75 -4.65 4.35q-20.15 30.6 -25.7 67.25q-8.85 58.55 -7.9 118.7q0.45 59.1 2 118.45q0.85 31.75 24.95 50.3q6.65 5.1 14.2 2.3q32.85 -12.05 35.25 -46.35q-1.3 -0.95 -3.25 0.8q-3.75 6.9 -8.1 13.5q-13.5 20.4 -35.9 12.85q-5.35 -1.8 -7.6 -6.95q-16.95 -38.9 -13.95 -83.45q2.15 -32.75 -0.45 -65.8q-0.75 -9.3 -1.15 -18.6q24.25 3.55 48.15 -4q1.25 -3.8 -0.5 -7.5q-0.35 -0.4 -0.8 -0.55q-22.4 4.9 -45.25 5.85q-1.55 -45.4 3.85 -90.85q3.45 -28.9 9.25 -57.35q4.85 -23.55 22.15 -38.65q10.9 -2.05 20 3.25q1.3 1.2 3.25 1q2.75 -6.05 -2.45 -10.6q-3.2 -2.85 -7.05 -4.65q-0.9 -1.5 -2.7 -2.35q-13.2 3.25 -20.25 15.6q-26.55 46.35 -32.1 99.5q-6.25 59.3 0 118.6q3.1 29.15 1.75 58.45q-2.3 49.5 27.35 87.05q12.7 4.6 25.35 -0.8q34.4 -14.6 33.9 -48.7q-1 0.15 -1.25 0.65q-16.8 34.65 -55 34.85q-2.25 -2.25 -3.95 -4.85q-1.2 -1.75 -3.3 -2.65q-9.35 -14.35 -11.6 -31q-3.35 -24.8 -5.9 -49.8q-4.4 -43.5 -5 -87.2q24.85 4.5 50.5 -0.45q0.95 -1.2 1.3 -2.75q0.5 -2.25 -0.2 -4.5q-0.35 -0.4 -0.8 -0.5q-7.05 -1.25 -14.2 -1.5q-16.15 2.8 -33 1.25q-0.1 -11.2 0.1 -22.4q1.05 -58.4 20.85 -113.05q4.7 -13 13.9 -23.1q18.1 -19.8 29 -1.1q2.3 -2.05 2.3 -5.5q-0.1 -10.4 -9.55 -15.25q-0.4 74.9 -6.5 155.4q-0.45 5.7 0.25 11.45q0.4 3.55 1.1 7.1q6 -42.35 6.7 -85.15q3.6 54.05 25.9 103.35q-4.85 -45.1 -21.25 -93.4q-1.8 -5.4 -2.95 -11q20.65 -16.5 25.1 -42.55q1.1 -6.25 0.95 -12.35q-1.3 -8.35 -6.2 -15.5q-7.45 -10.9 -20.2 -14.3q26.6 18.25 16.45 48.4q-8.8 26.1 -32.9 33q1.1 -43.4 0 -86.1q9.15 -0.3 16.45 4.7q1.45 -1.25 1.7 -3.25q0.4 -3 -0.45 -5.6q-18.8 -5.25 -38.7 -0.85q-20.05 4.3 -40.65 4.85q-44.05 2.25 -87.6 9.35q42.25 -5.65 85.55 -6.25q-12.75 160.3 -13.95 321q-0.25 31.9 -3.45 63.75q-1.15 11.4 3.1 21.8q7 -61.7 4.7 -124q-1.8 -48.15 1.45 -96.4q3.45 -50.5 7.85 -101q2.2 -25.2 2.8 -50.6q0.45 -18.8 0.1 -37.8q-2.3 51.05 -1.9 102.5q3.55 -59.6 4.25 -117.75q-0.45 -0.15 -0.5 0.25q-8.1 55.35 -10.45 112.2q-2.5 59.35 -5.7 118.6q-3.2 59.05 -5.05 118.4q-0.5 16.8 4.95 29.25q3.75 -10.85 3.5 -23.25q-1.2 -59.75 2.15 -119.15q28.2 3.95 57.45 0.45q0.95 59.7 -0.8 119.2q-0.9 30.15 -4.2 59.85q-1.85 16.9 4 29.4q6.85 -45.5 6.4 -93q-0.95 -43.3 -0.3 -86.8q0.55 -2.15 0.05 -4.15q1.7 -60.05 2.6 -118.5q-5.1 19.35 -6.05 41.2<g id="1231" transform="matrix(1, 0, 0, 1, -24.5, 0)">
<path style="fill:#000000;fill-opacity:1" d="M351.95,95.35L358.45 95.75L359.45 96.5L360.5 97.15Q362.3 98 363.2 99.5Q367.05 101.3 370.25 104.15Q375.45 108.7 372.7 114.75L371.95 115Q370 115.2 368.7 114L364.95 110.5Q355.85 105.2 344.95 107.25Q327.65 122.35 322.8 145.9Q317 174.35 313.55 203.25Q308.15 248.7 309.7 294.1Q332.55 293.15 354.95 288.25L357.4 288.95Q357.85 289.1 358.2 289.5Q359.95 293.2 358.7 297L358.2 298.5Q334.3 306.05 310.05 302.5Q310.45 311.8 311.2 321.1Q313.8 354.15 311.65 386.9Q308.65 431.45 325.6 470.35Q327.85 475.5 333.2 477.3Q355.6 484.85 369.1 464.45Q373.45 457.85 377.2 450.95L377.75 450.25L378.45 449.5Q380.4 447.75 381.7 448.7Q379.3 483 346.45 495.05Q338.9 497.85 332.25 492.75Q308.15 474.2 307.3 442.45Q305.75 383.1 305.3 324L304.85 287.25Q303.9 227.1 312.75 168.55Q318.3 131.9 338.45 101.3Q340.15 98.7 343.1 96.95L345.95 95.25L351.95 95.35M459,115Q459 118.45 456.7 120.5Q445.8 101.8 427.7 121.6Q418.5 131.7 413.8 144.7Q394 199.35 392.95 257.75Q392.75 268.95 392.85 280.15L393.95 279.75L395.95 279.25Q412.8 280.8 428.95 278Q436.1 278.25 443.15 279.5Q443.6 279.6 443.95 280L444.55 281.5Q445.25 283.75 444.75 286Q444.4 287.55 443.45 288.75Q417.8 293.7 392.95 289.2Q393.55 332.9 397.95 376.4Q400.5 401.4 403.85 426.2Q406.1 442.85 415.45 457.2Q417.55 458.1 418.75 459.85Q420.45 462.45 422.7 464.7Q460.9 464.5 477.7 429.85Q477.95 429.35 478.95 429.2Q479.45 463.3 445.05 477.9Q432.4 483.3 419.7 478.7Q390.05 441.15 392.35 391.65Q393.7 362.35 390.6 333.2Q384.35 273.9 390.6 214.6Q396.15 161.45 422.7 115.1Q429.75 102.75 442.95 99.5L449.45 99.75Q458.9 104.6 459 115M252.95,87.5L260.05 89.05Q272.8 92.45 280.25 103.35Q285.15 110.5 286.45 118.85L287.5 127L287.8 131.2Q287.95 137.3 286.85 143.55Q282.4 169.6 261.75 186.1Q262.9 191.7 264.7 197.1Q281.1 245.4 285.95 290.5Q263.65 241.2 260.05 187.15L248.15 189.6Q247.45 232.4 241.45 274.75L239.95 268.15Q239.25 264.6 238.85 261.05Q238.15 255.3 238.6 249.6Q244.7 169.1 245.1 94.2L244.55 89.65L247.95 88.65L248.2 87.25L248.25 88.55L252.95 87.5M248.4,94.15Q249.5 136.85 248.4 180.25Q272.5 173.35 281.3 147.25Q291.45 117.1 264.85 98.85Q257.55 93.85 248.4 94.15M189.45,89.5L114.6 95.4Q114.95 114.4 114.5 133.2Q113.9 158.6 111.7 183.8Q107.3 234.3 103.85 284.8Q100.6 333.05 102.4 381.2Q104.7 443.5 97.7 505.2L96.35 502.15Q92.1 491.75 93.25 480.35Q96.45 448.5 96.7 416.6Q97.9 255.9 110.65 95.6Q67.35 96.2 25.1 101.85L24.5 92.5Q68.05 85.4 112.1 83.15L114.2 78.5L114.35 83.05Q134.95 82.5 155 78.2Q174.9 73.8 193.7 79.05L194.95 79.75L195.35 80.55L196.1 82.45Q196.95 85.05 196.55 88.05Q196.3 90.05 194.85 91.3L189.45 89.5M215.2,110.25Q214.3 168.7 212.6 228.75L212 257Q212.5 259 211.95 261.15Q211.3 304.65 212.25 347.95L212.85 385.45Q213.3 432.95 206.45 478.45Q200.6 465.95 202.45 449.05Q205.75 419.35 206.65 389.2Q208.4 329.7 207.45 270L207.4 264.65Q178.15 268.15 149.95 264.2L145.1 348.3Q141.75 407.7 142.95 467.45Q143.2 479.85 139.45 490.7Q134 478.25 134.5 461.45Q136.35 402.1 139.55 343.05Q142.75 283.8 145.25 224.45Q147.6 167.6 155.7 112.25Q155.75 111.85 156.2 112Q155.5 170.15 151.95 229.75L150.3 258.15L207.25 253.95Q206.85 202.5 209.15 151.45Q210.1 129.6 215.2 110.25" />
</g>
</svg>
