<?xml version="1.0" encoding="utf-8"?>
<svg version="1.1" id="Layer_1"
xmlns="http://www.w3.org/2000/svg"
xmlns:xlink="http://www.w3.org/1999/xlink"


xml:space="preserve">
q-7.55 -37.95 -41.95 -14.4q-22.9 15.75 -30.45 43.55q-12.7 46.8 -5.9 95.35q1.55 11 5.25 21.3q2.5 6.85 8.1 11.45q4.85 4 11.05 5.3q14.6 3.15 28.95 -1.45q9.4 -3.15 16.6 -9.7q-0.25 9.05 5.4 16.15q11.4 -28.7 0.75 -57q-1.7 2.5 -1.2 5.7q0.35 2.2 1.55 3.95q-17.05 30.5 -50.85 18.85q-16.75 -5.9 -18.8 -24.95q-4.7 -44.25 8.3 -86.45q5.7 -18.45 18.65 -32.4q7.3 -7.85 17.65 -10.9q17.3 -2.75 29.65 10.95q-2.15 -25.4 -28.55 -20.5q-21.25 3.85 -31.65 22.55q-10.25 18.3 -13.75 39.15q-3.6 21.3 -5.15 42.95q-1.5 20.6 0.95 41.15q2.9 24.65 22.9 34.05q20.6 9.65 40.5 -3.55q16.45 -10.9 10.75 -29.6q-15.35 19.1 -38.6 20.6q-13.6 1.1 -19.2 -9.9q-10.35 -20.25 -11.3 -43.25q-0.45 -10.65 0.4 -21.05q2.3 -3.5 2 -7.65q-0.2 -3.15 -2 -5.8q-17.85 -3.95 -36.2 -0.05q2.05 -40.3 32.65 -62.1q13.4 -9.5 30.05 -5.6q-7.95 88.35 -4.1 176.65q1.05 -1.8 1.45 -3.65q0.55 -2.75 -0.25 -5.4q0.65 -19.8 -0.1 -39.8q21.5 6.1 37.3 -4.5q3.85 -2.55 1.05 -7.45q-3.4 20.3 -4.05 41.9q-1.45 44.4 -6.5 88.3q-1.95 16.9 4.05 29.45q4.9 -19.5 6.35 -41.15q1.65 -24.65 2.05 -49.2q13.4 2 26.85 0.3q-0.85 29.95 -5.7 58.95q-2.95 17.45 3.8 29.3q3.7 -6.5 3.95 -14.2q1.95 -59.3 6.95 -118.45q2.55 -30.35 0.6 -59.3q-5.7 10.95 -6.4 24.9q-1.6 31.1 -2.65 62.3q-11.65 0.4 -23 3q0.15 -29.6 -1.5 -59<g id="1246" transform="matrix(1, 0, 0, 1, -139.95, 0)">
<path style="fill:#000000;fill-opacity:1" d="M417.55,205.3Q405.2 191.6 387.9 194.35Q377.55 197.4 370.25 205.25Q357.3 219.2 351.6 237.65Q338.6 279.85 343.3 324.1Q345.35 343.15 362.1 349.05Q395.9 360.7 412.95 330.2L395.8 329.85Q394.6 328.1 394.25 325.9Q393.75 322.7 395.45 320.2L415.45 315.7Q426.1 344 414.7 372.7Q409.05 365.6 409.3 356.55Q402.1 363.1 392.7 366.25Q378.35 370.85 363.75 367.7Q357.55 366.4 352.7 362.4Q347.1 357.8 344.6 350.95Q340.9 340.65 339.35 329.65Q332.55 281.1 345.25 234.3Q352.8 206.5 375.7 190.75Q410.1 167.2 417.65 205.15L417.55 205.3M324.2,197.5Q307.55 193.6 294.15 203.1Q263.55 224.9 261.5 265.2Q279.85 261.3 297.7 265.25Q299.5 267.9 299.7 271.05Q300 275.2 297.7 278.7L259.75 278.6Q258.9 289 259.35 299.65Q260.3 322.65 270.65 342.9Q276.25 353.9 289.85 352.8Q313.1 351.3 328.45 332.2Q334.15 350.9 317.7 361.8Q297.8 375 277.2 365.35Q257.2 355.95 254.3 331.3Q251.85 310.75 253.35 290.15Q254.9 268.5 258.5 247.2Q262 226.35 272.25 208.05Q282.65 189.35 303.9 185.5Q330.3 180.6 332.45 206L324.2 197.5M216.05,193.65Q200.25 204.25 178.75 198.15Q179.5 218.15 178.85 237.95L174.75 362.7Q175.55 365.35 175 368.1Q174.6 369.95 173.55 371.75L173.1 372.45L172.55 373.05L170.5 374.7Q166.65 286.4 174.6 198.05L139.95 196.9L140 186L178.3 186.5L216.65 185.7L217.1 186.2Q219.9 191.1 216.05 193.65M208.45,209.5Q210.1 238.9 209.95 268.5Q221.3 265.9 232.95 265.5L237.15 266.2Q238.2 235 239.8 203.9Q240.5 189.95 246.2 179Q248.15 207.95 245.6 238.3Q240.6 297.45 238.65 356.75Q238.4 364.45 234.7 370.95Q227.95 359.1 230.9 341.65Q235.75 312.65 236.6 282.7L236.7 279.15Q223.25 280.85 209.85 278.85Q209.45 303.4 207.8 328.05Q206.35 349.7 201.45 369.2Q195.45 356.65 197.4 339.75Q202.45 295.85 203.9 251.45Q204.55 229.85 207.95 209.55L208.45 209.5" />
</g>
</svg>
