<?xml version="1.0" encoding="utf-8"?>
<svg version="1.1" id="Layer_1"
xmlns="http://www.w3.org/2000/svg"
xmlns:xlink="http://www.w3.org/1999/xlink"


xml:space="preserve">
q8.15 7.75 11.75 18.85q0.95 2.95 -0.5 5.9q-6.3 -6.6 -15.05 -12.6q-1.45 -1.05 -3.7 -0.9q-28 28.4 -22 70.25q5.3 37.15 21.5 71.35q25.25 53.3 28.5 111.8q2.9 53.3 -12.1 103.55q-6.5 21.65 -25.2 32.85q-2.8 1.65 -6.05 -0.3q-10.3 -6.35 -17.75 -16.5q-20.1 -27.5 -5.65 -53.8q0.5 0.4 0.65 1.2q-4.5 24.1 12.7 44q3.9 4.55 8.3 8.5q31.55 -40.45 30.35 -93.75q-0.65 -28.55 -5.8 -56.05q-9.55 -50.75 -30.75 -97.9q-26.4 -58.75 -3.05 -117.95q2.65 -6.8 6.25 -13.05q3.25 -3.65 7.45 -6.45q4.45 0.55 7.05 -1.2q23.35 5.55 28.95 30.9q4.4 20.1 3.25 40.8q-1.35 22.9 -12.3 43.55q-7.15 13.5 -20.7 20.65q-1.65 0.85 -3.3 1.2q0.5 53.2 -1.1 106.4q-1.75 59.45 -4.65 118.55q-1.05 21.4 -7.4 41.15q-6.9 -12 -2.65 -29.45q1.7 -7.1 2.35 -14.5q4.85 -59.25 6.7 -119.25q1.6 -51.65 0.55 -103.4q-1.4 -0.75 -1.9 -2.2q-0.95 -2.7 0.15 -5.35q-1.55 -55.4 3.2 -108.6q-0.85 -1.35 -1 -3q-0.25 -3.45 0.65 -6.7q0.65 -0.4 1.2 -0.3q1.55 55.4 2.3 111.9q18.6 -7.1 26.3 -28.05q4.15 -11.3 5.2 -23.2q1.55 -17.15 -1.8 -33.9q-3.65 -18.45 -19 -27.65q-4.15 -2.5 -8.65 -0.25q-2.25 1.1 -4.35 1.15q1.75 3.1 1.6 6.7q-21.3 -9.1 -34.3 10.05q-12.7 18.65 -15.7 40.5q13.3 -6.8 28.75 -8.55q2.35 0.8 5.05 0.6q0.95 1.7 0.75 3.75q-0.1 1.2 -0.75 2.25q-17.15 7.3 -35.15 13.2q-0.25 24.75 17 41.65q9.9 9.7 23.7 5.05q14.6 -4.9 28 -11.7q0.45 19.8 -24.35 24.45q-32.2 6.05 -41.9 -25.1q-7.4 -23.8 -7.3 -49.1q-4 -1.75 -3 -6.5q2.45 -25 13.25 -47.65q7.1 -14.9 22.3 -20.45q6.25 2.05 9.4 7.55q7.3 5.1 8.1 14.2q0.2 2.3 -0.1 4.55q-2.2 -0.05 -3.9 -2.2q-2.35 -0.2 -4.75 -0.05q-20.15 23.25 -24.3 49.7q18.05 -14.6 42.55 -15.2q3.05 4 0.95 8.95q-23.15 5.2 -44.05 15.65q-0.7 16.8 4.8 34.8q2.65 8.6 10.7 13.7q3.5 2.2 6.8 4.85q7.5 -5.65 13.8 -12.5q0.2 -0.25 0.7 -0.25q2.4 13.35 -10.5 22.5q-1.35 0.95 -2.5 2.25q-21.8 -1.35 -30.5 -22.95q-10 -24.85 -5.75 -52.15q5.85 -37.95 31.75 -63.15q15.35 0.45 28.5 8.75q31.35 41.85 18.55 93.35q-4.45 17.8 -14.9 32.6q-7.6 10.75 -17.4 18.65q19.25 51.55 37 103.8q19.1 56.2 39.05 112.05q6.3 17.5 2.7 34q-7.4 -10.95 -11.55 -26.3q-11.3 -42.05 -24.05 -84.1q-17.35 -57.2 -40.75 -111.6q-5.65 -13 -5.85 -25.2q-5.85 4.2 -12.35 7.55q-3.5 59.3 -4.2 118.5q-0.45 35.85 -7.75 68.75q-1.7 -0.25 -2 -2q3.4 -58.55 6.05 -117.7q2.45 -55.5 6.3 -110.85q-0.9 -2.05 -0.85 -4.35q0 -2.35 0.8 -4.5q3.8 -57.2 0.45 -114.8q-0.95 -16.75 3.25 -30.7q-0.75 -2.15 -0.6 -4.5q0.1 -2.6 2.05 -3.6q-4.7 -40.45 -41.45 -48.6q-2.2 55 -3.3 110.9q38.5 -19.7 45.05 -63.4q2.35 -15.5 0.55 -31.05q-0.4 59.6 0.55 119.25q1 59.95 -0.55 119.2q-0.4 14.8 -4.05 28.35q-0.55 2 -2.35 0.9q1.05 -58.55 0.9 -118.45q-0.1 -41.75 0.45 -83.2q-1 59.4 -3.45 118.55q-0.6 14.8 -5.5 27.4q-4.4 -28.25 -1.2 -59.15q3.75 -36.8 4.55 -74.05q1.3 -59.65 2.2 -119.25q0.15 -7.8 3.8 -12.75q1.45 58.4 0.05 118.5q20.15 -6.85 44.05 -5.1q1.2 -60 -2.45 -119.2q-1.05 -16.3 4 -29.3q3.3 58.35 2.9 118.5q0.4 0 0.75 0.4q2.15 3.85 2.4 8.2q0.25 5.05 -2.4 9.05q-2 -2.05 -1.95 -5.05q-23.35 1.9 -47.9 5.35q4 55.3 0.25 111.25q-2 30 -1.55 59.9q0.9 59.85 -1.1 119.25q-1.4 40.8 -4.15 80.95q3.1 7.7 -0.5 15q-8.15 -11.7 -5.6 -29.15q4.35 -29.5 5.2 -59.85q1.7 -59.35 0.6 -119.2q-1.1 -59.9 2.35 -119.35q1.45 -25.05 0.3 -50.1q-0.2 -4.45 0.6 -8.2q-17.95 2.8 -35.05 2.75q-1.25 -4.55 0.5 -9q45.8 -2 90.2 -12.75<g id="1242" transform="matrix(1, 0, 0, 1, -15, 0)">
<path style="fill:#000000;fill-opacity:1" d="M514.45,71.8L516.45 72.25Q524.6 80 528.2 91.1Q529.15 94.05 527.7 97Q521.4 90.4 512.65 84.4Q511.2 83.35 508.95 83.5Q480.95 111.9 486.95 153.75Q492.25 190.9 508.45 225.1Q533.7 278.4 536.95 336.9Q539.85 390.2 524.85 440.45Q518.35 462.1 499.65 473.3Q496.85 474.95 493.6 473Q483.3 466.65 475.85 456.5Q455.75 429 470.2 402.7L470.95 402.8Q471.45 403.2 471.6 404L471.7 404.7Q467.2 428.8 484.4 448.7Q488.3 453.25 492.7 457.2L501.45 457.95Q533 417.5 531.8 364.2Q531.15 335.65 526 308.15Q516.45 257.4 495.25 210.25Q468.85 151.5 492.2 92.3Q494.85 85.5 498.45 79.25Q501.7 75.6 505.9 72.8L508.95 71L514.45 71.8M427.9,74.95Q432.35 75.5 434.95 73.75Q458.3 79.3 463.9 104.65Q468.3 124.75 467.15 145.45Q465.8 168.35 454.85 189Q447.7 202.5 434.15 209.65Q432.5 210.5 430.85 210.85Q431.35 264.05 429.75 317.25Q428 376.7 425.1 435.8Q424.05 457.2 417.7 476.95Q410.8 464.95 415.05 447.5Q416.75 440.4 417.4 433Q422.25 373.75 424.1 313.75Q425.7 262.1 424.65 210.35L423.2 209.75Q421.8 209 421.3 207.55Q420.35 204.85 421.45 202.2L421.7 201.5L422.5 200.75L423.45 200L424.4 199.8L424.25 194.5Q422.7 139.1 427.45 85.9L426.7 85.75Q425.85 84.4 425.7 82.75Q425.45 79.3 426.35 76.05L426.7 75.25Q427.35 74.85 427.9 74.95M428.4,85.95Q429.95 141.35 430.7 197.85Q449.3 190.75 457 169.8Q461.15 158.5 462.2 146.6Q463.75 129.45 460.4 112.7Q456.75 94.25 441.4 85.05Q437.25 82.55 432.75 84.8Q430.5 85.9 428.4 85.95M334.85,179.3Q336.6 182.4 336.45 186Q315.15 176.9 302.15 196.05Q289.45 214.7 286.45 236.55Q299.75 229.75 315.2 228Q317.55 228.8 320.25 228.6L320.7 229Q321.65 230.7 321.45 232.75Q321.35 233.95 320.7 235Q303.55 242.3 285.55 248.2L285.5 251.5L285.5 268Q285.25 292.75 302.5 309.65Q312.4 319.35 326.2 314.7Q340.8 309.8 354.2 303Q354.65 322.8 329.85 327.45Q297.65 333.5 287.95 302.35Q280.55 278.55 280.65 253.25L280.7 249.75L279.95 250Q275.95 248.25 276.95 243.5L277.2 242L281.4 239.35Q283.85 214.35 294.65 191.7Q301.75 176.8 316.95 171.25L320.95 171.35L325.45 171.75Q331.7 173.8 334.85 179.3M391.45,178.25Q398.75 183.35 399.55 192.45Q399.75 194.75 399.45 197Q397.25 196.95 395.55 194.8L392.95 191L390.7 190.55Q388.35 190.35 385.95 190.5Q365.8 213.75 361.65 240.2Q379.7 225.6 404.2 225Q407.25 229 405.15 233.95L404.7 234.75Q381.55 239.95 360.65 250.4Q359.95 267.2 365.45 285.2Q368.1 293.8 376.15 298.9Q379.65 301.1 382.95 303.75L384.5 304.15L389.95 304.25Q397.45 298.6 403.75 291.75Q403.95 291.5 404.45 291.5Q406.85 304.85 393.95 314Q392.6 314.95 391.45 316.25Q369.65 314.9 360.95 293.3Q350.95 268.45 355.2 241.15Q361.05 203.2 386.95 178L391.45 178.25M204.95,68Q220.3 68.45 233.45 76.75L234.7 77.5Q266.05 119.35 253.25 170.85Q248.8 188.65 238.35 203.45Q230.75 214.2 220.95 222.1Q240.2 273.65 257.95 325.9Q277.05 382.1 297 437.95Q303.3 455.45 299.7 471.95Q292.3 461 288.15 445.65Q276.85 403.6 264.1 361.55Q246.75 304.35 223.35 249.95Q217.7 236.95 217.5 224.75Q211.65 228.95 205.15 232.3L202.9 277.45Q199.4 336.75 198.7 395.95Q198.25 431.8 190.95 464.7Q189.25 464.45 188.95 462.7Q192.35 404.15 195 345Q197.45 289.5 201.3 234.15L197.45 235.75L196.5 234.1Q195.6 232.05 195.65 229.75Q195.65 227.4 196.45 225.25L202.05 222.85Q205.85 165.65 202.5 108.05Q201.55 91.3 205.75 77.35L203.7 77L203.45 76.25Q202.7 74.1 202.85 71.75Q202.95 69.15 204.9 68.15L204.95 68M251.15,126.7Q246.45 86.25 209.7 78.1Q207.5 133.1 206.4 189L205.55 221.15Q244.05 201.45 250.6 157.75Q252.95 142.25 251.15 126.7M171.1,191Q170.7 250.6 171.65 310.25Q172.65 370.2 171.1 429.45Q170.7 444.25 167.05 457.8Q166.5 459.8 164.7 458.7Q165.75 400.15 165.6 340.25Q165.5 298.5 166.05 257.05L107.85 260.15L106.9 314Q105.9 373.4 103.45 432.55Q102.85 447.35 97.95 459.95Q93.55 431.7 96.75 400.8Q100.5 364 101.3 326.75Q102.6 267.1 103.5 207.5L105.4 89Q105.55 81.2 109.2 76.25Q110.65 134.65 109.25 194.75L108.05 251.2Q128.2 244.35 152.1 246.1L166.2 246.75L166.65 221Q167.85 161 164.2 101.8Q163.15 85.5 168.2 72.5Q171.5 130.85 171.1 191M116.45,60.6Q116.85 60.6 117.2 61Q119.35 64.85 119.6 69.2Q119.85 74.25 117.2 78.25L116.65 78.05Q114.65 76 114.7 73Q91.35 74.9 66.8 78.35Q70.8 133.65 67.05 189.6Q65.05 219.6 65.5 249.5Q66.4 309.35 64.4 368.75Q63 409.55 60.25 449.7Q63.35 457.4 59.75 464.7Q51.6 453 54.15 435.55Q58.5 406.05 59.35 375.7Q61.05 316.35 59.95 256.5Q58.85 196.6 62.3 137.15Q63.75 112.1 62.6 87.05Q62.4 82.6 63.2 78.85L51.8 80.5Q33.85 83.3 16.75 83.25L16.25 81.75Q15 77.2 16.75 72.75Q62.55 70.75 106.95 60L116.45 60.6" />
</g>
</svg>
