<?xml version="1.0" encoding="utf-8"?>
<svg version="1.1" id="Layer_1"
xmlns="http://www.w3.org/2000/svg"
xmlns:xlink="http://www.w3.org/1999/xlink"


xml:space="preserve">
q-28.85 40.8 -32.65 92.35q-2.3 30.7 -3.1 61.9q-5.45 -51.85 -24.4 -100.25q-23.25 -59.4 -87.45 -71.1q-0.25 0.1 -0.45 0.3q-2 1.6 -2 4.45q0.05 2.7 0.95 5.25q-0.55 0.1 -0.6 0.8q-3.95 43.7 -5.1 88.45q-1.55 59.4 -2.35 119.25q-0.75 59.7 -3.55 119.15q-0.9 19.9 -0.1 38.95q-6.55 9.2 -2.6 20.85q1 -0.35 1.2 -1q4.15 -5.25 9.4 -9.55q27.6 -22.6 57.75 -42.5q22.4 -14.75 33.3 -38.75q22 -48.5 21.1 -102.3q5.1 18.45 22.85 29.9q11.95 4.7 22.5 -2.45q17.8 -12.05 13 -30.8q-1.95 2.2 -3.3 4.85q-7.65 15 -24.45 17.4q-6.25 -1.7 -11.5 -5.5q-4.55 -3.25 -6.4 -8.15q-10.8 -28.3 -9.25 -60.95q17.65 7.6 36.35 4.9q0.2 -3.25 -1.35 -6q-0.4 -0.4 -0.7 -0.35q-18.2 2.15 -34.75 -2.55q4.05 -38.4 16.3 -74.6q9.6 -28.45 37.15 -20.25q1.2 2.6 3.85 4.05q0.5 -0.4 0.5 -0.8q0.95 -21.4 -23.5 -19.2q-4.5 1.3 -7.4 5.35q37.4 33.95 48.75 83.85q4.3 18.9 7.6 37.95q10.5 59.85 -6 117.8q-7.15 24.95 -26.4 42.5q-25.8 23.5 -55 43q-1.35 0.85 -2.55 1.8q0.2 -59.85 2.6 -119.3q2.45 -59.75 1.6 -118.25q11.55 4.5 23.7 8.1q13.05 3.85 22.7 12.6q1.2 47.85 0.15 98.25q-0.65 30.6 -15.4 57.8q-13.1 24 -40.95 18.6q-9.2 -1.8 -14.8 -9.55q-15.6 -21.8 -16.35 -49.35q-1.55 -59.25 -1.4 -118.5q-0.95 -0.25 -1.05 0.75q-4.4 60.15 8.45 118.35q6.7 30.35 37 33.45q5.55 0.55 10.35 -1.9q33.05 -16.85 39.7 -55.55q5.95 -34.65 5.15 -70.7q-0.75 -30.3 -4.75 -59.25q-0.95 -2.65 -3.5 -1.25q-7.6 58.15 -6.55 117.75q1.05 59.65 -2.35 119.2q-3.4 59.2 -8.2 117.75q0.9 2.55 3.25 0.75q0.5 -0.75 0.6 -1.55q6.45 -58.4 8.8 -117.65q1.75 -44.6 1.3 -89.25q-0.45 -44.65 2.7 -89.15q2.2 -30.35 2.1 -59.35q-1.45 -0.1 -1.65 1.5q0.5 9.95 2.3 20.3q-7.15 50.25 -9.15 101.45q-2.35 59.4 -3.1 119.25q1.75 1.1 1.95 -0.85q5.7 -57.5 5.3 -116.1q-0.45 -59.85 3.05 -119.15q2 9.15 4.95 18.6q17.75 56.65 30.25 114.65q6.3 28.6 12.25 57.15q3.35 16.05 11.1 27.1q3.8 -8.7 1.1 -18.3q-16.15 -56.4 -28.6 -114.35q-12.4 -57.7 -27.45 -114.75q-13.1 -49.8 -27.95 -98.55q-5 5.2 -3.85 13q-4.85 6.35 -4 14.1q0.2 2 0.85 3.95q15.8 -15.9 1.25 -34q-20.5 24.75 -24.55 58.75q-2.65 22.1 -0.95 44.35q1.05 13.35 4.65 26q5.4 18.9 19.35 32.35q4.95 4.75 11.7 -3.2q14.05 -16.6 17.8 -38.15q4.6 -26.6 -1.25 -53.15q-4.55 -20.65 -16 -38.25q-6.65 -10.35 -11.75 -19.6q2.25 -1.1 1.65 -5.75q-0.35 -2.75 -1.4 -5.4q-1.05 -2.7 -2.7 -5.05q-0.55 5.35 2.25 9.55q13.8 20.35 20.4 44.1q13 46.85 -15.3 85.8q-14.8 -17.9 -17.95 -42.2q-6.75 -51.5 14.7 -100.25q0.9 -0.3 0.65 1.75q1.1 35.55 6.5 74.9q4.05 29.6 6.55 59.4q1.35 16.3 8.2 28.4q1.85 -5.3 2.75 -10.95q9.3 -57.9 11.45 -116.45q0.6 44.65 10.3 87.9q3.25 14.5 3.7 29.15q0.5 13.65 7.75 20.15q2.1 -11.8 3.5 -23.9q6.9 -58.9 15.55 -117.55q2.55 -17.1 -4.3 -28.5q-2.4 8.55 -3.25 17.9q-5.4 58.65 -13.75 116.8q-12.9 -51.95 -13.2 -105.95q-0.05 -17.45 -9.3 -27.75q-3.3 8.4 -3.25 18.5q0.15 59.1 -10 116.2q-2.3 -8 -3.5 -16.25q-8.6 -58.4 -14.75 -117.2q-0.9 -1.15 -1.4 -2.55<g id="1276" transform="matrix(1, 0, 0, 1, -39.75, 0)">
<path style="fill:#000000;fill-opacity:1" d="M509.95,70.25Q534.4 68.05 533.45 89.45Q533.45 89.85 532.95 90.25L531.65 90.1Q529 88.65 527.8 86.05L527.2 85.25Q499.65 77.05 490.05 105.5Q477.8 141.7 473.75 180.1Q490.3 184.8 508.5 182.65Q508.8 182.6 509.2 183Q510.75 185.75 510.55 189L510 191.95L509.2 194.25Q490.5 196.95 472.85 189.35L472.05 201.65Q470.5 234.3 481.3 262.6Q483.15 267.5 487.7 270.75Q492.95 274.55 499.2 276.25Q516 273.85 523.65 258.85Q525 256.2 526.95 254Q531.75 272.75 513.95 284.8Q503.4 291.95 491.45 287.25Q473.7 275.8 468.6 257.35Q469.5 311.15 447.5 359.65Q436.6 383.65 414.2 398.4Q384.05 418.3 356.45 440.9Q351.2 445.2 347.05 450.45L345.65 454.95Q345.45 455.6 344.45 455.95L344.3 454.2L343.45 455.45L340.45 456.45Q336.5 444.8 343.05 435.6Q342.25 416.55 343.15 396.65Q345.95 337.2 346.7 277.5Q347.5 217.65 349.05 158.25Q350.2 113.5 354.15 69.8Q354.2 69.1 354.75 69L353.45 68.5Q352.55 65.95 352.5 63.25Q352.5 60.4 354.5 58.8Q354.7 58.6 354.95 58.5Q419.15 70.2 442.4 129.6Q461.35 178 466.8 229.85Q467.6 198.65 469.9 167.95Q473.7 116.4 502.55 75.6Q505.45 71.55 509.95 70.25M378.9,77.3Q366.75 73.7 355.2 69.2Q356.05 127.7 353.6 187.45Q351.2 246.9 351 306.75L350.35 425.95L350.3 428.45Q351.5 427.5 352.85 426.65L370.55 415Q399.75 395.5 425.55 372Q444.8 354.45 451.95 329.5Q468.45 271.55 457.95 211.7Q454.65 192.65 450.35 173.75Q439 123.85 401.6 89.9Q391.95 81.15 378.9 77.3M289.45,82.5Q293.45 111.45 294.2 141.75Q295 177.8 289.05 212.45Q282.4 251.15 249.35 268Q244.55 270.45 239 269.9Q208.7 266.8 202 236.45Q189.15 178.25 193.55 118.1L196.15 79.25Q196.25 78.25 197.2 78.5Q197.05 137.75 198.6 197Q199.35 224.55 214.95 246.35Q220.55 254.1 229.75 255.9Q257.6 261.3 270.7 237.3Q285.45 210.1 286.1 179.5Q287.15 129.1 285.95 81.25Q288.5 79.85 289.45 82.5M161.2,83Q161.3 112 159.1 142.35Q155.95 186.85 156.4 231.5Q156.85 276.15 155.1 320.75Q152.75 380 146.3 438.4Q146.2 439.2 145.7 439.95Q143.35 441.75 142.45 439.2Q147.25 380.65 150.65 321.45Q154.05 261.9 153 202.25Q151.95 142.65 159.55 84.5Q159.75 82.9 161.2 83M55.8,93.5Q70.65 142.25 83.75 192.05Q98.8 249.1 111.2 306.8Q123.65 364.75 139.8 421.15Q142.5 430.75 138.7 439.45Q130.95 428.4 127.6 412.35Q121.65 383.8 115.35 355.2L90.3 240.4Q77.8 182.4 60.05 125.75Q57.1 116.3 55.1 107.15L50.05 201.35Q46.55 260.65 47 320.5Q47.4 379.1 41.7 436.6Q41.5 438.55 39.75 437.45L41.3 319.75Q42.05 259.9 44.4 200.5Q46.4 149.3 53.55 99.05Q51.75 88.7 51.25 78.75L54.8 90.3L55.85 83.55L56.25 83.5L55.8 93.5M312.2,275.5Q326.75 293.6 310.95 309.5Q310.3 307.55 310.1 305.55Q309.25 297.8 314.1 291.45L313.1 288.85L309.95 292.8L305.45 291L305.1 288.25Q303.95 280.45 308.95 275.25L312.2 275.5M194.95,277.75Q196.6 280.1 197.65 282.8Q198.7 285.45 199.05 288.2Q199.65 292.85 197.4 293.95L197.45 290.5L192.1 286.05Q197.2 295.3 203.85 305.65Q215.3 323.25 219.85 343.9Q225.7 370.45 221.1 397.05Q217.35 418.6 203.3 435.2Q196.55 443.15 191.6 438.4Q177.65 424.95 172.25 406.05Q168.65 393.4 167.6 380.05Q165.9 357.8 168.55 335.7Q172.6 301.7 193.1 276.95L194.95 277.75M188.95,288.5Q167.5 337.25 174.25 388.75Q177.4 413.05 192.2 430.95L196.95 429.7Q225.25 390.75 212.25 343.9Q205.65 320.15 191.85 299.8Q189.05 295.6 189.6 290.25Q189.85 288.2 188.95 288.5M217.6,281.8L217.95 282.5Q224.1 341.3 232.7 399.7Q233.9 407.95 236.2 415.95Q246.35 358.85 246.2 299.75Q246.15 289.65 249.45 281.25Q258.7 291.55 258.75 309Q259.05 363 271.95 414.95Q280.3 356.8 285.7 298.15Q286.55 288.8 288.95 280.25Q295.8 291.65 293.25 308.75Q284.6 367.4 277.7 426.3Q276.3 438.4 274.2 450.2Q266.95 443.7 266.45 430.05Q266 415.4 262.75 400.9Q253.05 357.65 252.45 313Q250.3 371.55 241 429.45Q240.1 435.1 238.25 440.4L237.45 441.95Q230.6 429.85 229.25 413.55Q226.75 383.75 222.7 354.15Q217.3 314.8 216.2 279.25Q216.7 280.65 217.6 281.8" />
</g>
</svg>
