<?xml version="1.0" encoding="utf-8"?>
<svg version="1.1" id="Layer_1"
xmlns="http://www.w3.org/2000/svg"
xmlns:xlink="http://www.w3.org/1999/xlink"


xml:space="preserve">
q-0.15 -2.35 -1.05 -4.5q-13 -2.85 -26.7 -2.95q-21.9 1.3 -43 6.5q-0.4 1.45 -0.45 3q-0.1 1.15 0.3 2.25q0.4 45.15 -1.2 90q-1.1 29.9 -6.1 58.9q-3 17.45 3.45 29.3q7.65 -34.65 8.85 -71.2q1.75 -54 0.1 -106.8q17.35 0.7 34.8 0.3q1.75 -3.15 1.5 -6.75q-6.3 33.05 -6.8 67.4q-19.85 0.4 -38.85 5.6q0.2 -31.6 -0.9 -62.8q-5.2 30.9 -5.45 64.45q-0.25 29.7 -3.4 59.1q-2.5 23.15 1.1 44.4q8.9 -7.15 4.5 -18q2.1 -15.65 2.75 -31.5q0.95 -22.35 1.25 -44.5q-1.4 30.65 1.8 59.3q1.15 -0.35 1.25 -0.9q6.05 -34.05 6.1 -69.6q0 -60.2 1.65 -118.45q-1.75 0.35 -2.1 2.35q-5.9 18.45 -7.7 37.9q-4.85 51.7 -8.3 103.85q-2 -12.9 -4.8 -25.8q-12.65 -58.1 -31.25 -113.5q-3.5 5.8 -4.3 14.15q-5.75 58.95 -6.75 118.55q-0.25 15 -1.55 29.9q-1.45 16.95 3.85 29.35q3.8 -6.25 3.55 -14.25q-2 -59.75 4.2 -118.35q1.85 -17.8 1.9 -35.05q3.4 10.8 6.15 21.8q14.25 57.4 22.3 116.1q2.25 16.75 10.4 27.25q1 -0.85 0.95 -2.2q2.6 -3.5 2.6 -8.05q-0.15 -59.6 7.15 -118.35q3.7 -29.8 2.75 -58.6q-0.75 0.1 -0.85 0.45q-2.35 16.8 -2.55 34.4q-0.5 45.15 -7.4 89.45q-3.35 21.6 -19.3 35.35q-11.75 10.1 -25.45 5.05q-2 -0.7 -2.3 -2.4q-9 -51.05 -3 -103.9q3.35 -29.9 -0.3 -58.55q-4 12.3 -4.95 26.15q-4.1 59.15 -4 119.3q0.05 15.95 7.6 29.35q3.2 5.7 9.2 5.95q36.35 1.7 44.4 -35.5q12.5 -57.6 15.1 -117q0.7 -16.85 -6.35 -28.75q-0.6 0.3 -0.7 1.1<g id="1273" transform="matrix(1, 0, 0, 1, -132.2, 0)">
<path style="fill:#000000;fill-opacity:1" d="M378.45,193.25Q361 193.65 343.65 192.95Q345.3 245.75 343.55 299.75Q342.35 336.3 334.7 370.95Q328.25 359.1 331.25 341.65Q336.25 312.65 337.35 282.75Q338.95 237.9 338.55 192.75L306.7 190.25L306.45 189.5Q306.05 188.4 306.15 187.25Q306.2 185.7 306.6 184.25L306.95 183.5Q328.05 178.3 349.95 177Q363.65 177.1 376.65 179.95L378.2 180.5L378.9 182Q379.8 184.15 379.95 186.5Q380.2 190.1 378.45 193.25M423.2,180.75Q421.55 239 421.55 299.2Q421.5 334.75 415.45 368.8Q415.35 369.35 414.2 369.7Q411 341.05 412.4 310.4L413.5 283.15L371.95 285.45Q371.65 307.6 370.7 329.95Q370.05 345.8 367.95 361.45Q372.35 372.3 363.45 379.45Q359.85 358.2 362.35 335.05Q365.5 305.65 365.75 275.95Q366 242.4 371.2 211.5Q372.3 242.7 372.1 274.3Q391.1 269.1 410.95 268.7L413.95 269L414.3 250.5Q414.8 216.15 421.1 183.1Q421.45 181.1 423.2 180.75M199.45,180.5Q200.4 209.3 196.7 239.1Q189.4 297.85 189.55 357.45Q189.55 362 186.95 365.5L186.95 366.25Q187 367.6 186 368.45Q177.85 357.95 175.6 341.2Q167.55 282.5 153.3 225.1Q150.55 214.1 147.15 203.3Q147.1 220.55 145.25 238.35Q139.05 296.95 141.05 356.7Q141.3 364.7 137.5 370.95Q132.2 358.55 133.65 341.6Q134.95 326.7 135.2 311.7Q136.2 252.1 141.95 193.15Q142.75 184.8 146.25 179L146.55 183.4Q165.15 238.8 177.8 296.9Q180.6 309.8 182.6 322.7Q186.05 270.55 190.9 218.85Q192.7 199.4 198.6 180.95Q198.7 180.6 199.45 180.5M288.95,180.75Q296 192.65 295.3 209.5Q292.7 268.9 280.2 326.5Q272.15 363.7 235.8 362Q229.8 361.75 226.6 356.05Q219.05 342.65 219 326.7Q218.9 266.55 223 207.4Q223.95 193.55 227.95 181.25Q231.6 209.9 228.25 239.8Q222.25 292.65 231.25 343.7Q231.55 345.4 233.55 346.1Q247.25 351.15 259 341.05Q274.95 327.3 278.3 305.7Q285.2 261.4 285.7 216.25Q285.9 198.65 288.25 181.85Q288.35 181.05 288.95 180.75" />
</g>
</svg>
