<?xml version="1.0" encoding="utf-8"?>
<svg version="1.1" id="Layer_1"
xmlns="http://www.w3.org/2000/svg"
xmlns:xlink="http://www.w3.org/1999/xlink"


xml:space="preserve">
q1 -24.4 -23.75 -25.5q-48.8 28.3 -55.45 86.35q-5.4 46.9 11.8 89.55q3.15 7.8 11.7 10.4q7.5 2.45 15.45 3q5.7 0.45 11.35 -1.05q5.2 -1.5 9.45 -4.85q15.2 -11.8 14.6 -30.7q-0.15 -4.9 -4.4 -8q-4.15 18.7 -21.1 25.75q-18.7 7.95 -34.9 -5.5q-16 -49.2 -0.2 -98.5q9.5 -29.55 33.7 -48.45q18.4 -8.35 31.15 7.2q-0.75 1.05 -1 2.45q-0.3 1.5 -0.15 3.2q0.15 1.25 0.65 2.45q-5.25 23.9 -0.45 47.05q0.55 2.65 1.95 5.2q7.7 -26.3 4 -54.2q-5.8 41.4 -5.9 84.45q-0.1 21.7 -1.65 43.35q-2.05 28.25 11.6 51.4q1.85 3.1 5 4.15q37.1 12.4 57.45 -21q5.65 -9.25 6.75 -20.1q6.2 -59.3 2.8 -119.15q-0.8 -14.15 -7.3 -20.9q-1.8 47 1.75 95.25q1.6 22.65 -5.75 43.6q-11.7 33 -48.35 29.65q-6.3 -0.6 -9.1 -6.4q-10.25 -21.15 -8.55 -45.95q4.1 -59.85 1.75 -118.4q-1 -0.25 -0.9 0.7q2.15 18.35 7.55 37.15q16.4 56.7 27.65 114.4q1.4 7.15 1.95 14.35q0.75 10.6 5.7 16.5q0.95 5.35 3.25 10.1q8.7 -36.6 11.75 -74.85q4.75 -59.55 4.25 -117.85q-5.95 20.9 -6.2 45.75q-0.1 14.8 -1.15 29.35q-3 42.3 -10.65 83.65q-3.05 -19.85 -7.45 -39.55q-12.7 -57.1 -32.25 -112.2q-1.55 -2.1 -2.7 -4.5q-0.6 59.2 -7.4 117.55q-3.45 30 -2.8 59.4q2 1.3 2.45 -0.8q6.65 -32.55 9.4 -65.85q4.95 -59.7 1.65 -118.55q-3.25 2.75 -3.3 8.25<g id="1282" transform="matrix(1, 0, 0, 1, -139.1, 0)">
<path style="fill:#000000;fill-opacity:1" d="M415.1,204.95Q402.35 189.4 383.95 197.75Q359.75 216.65 350.25 246.2Q334.45 295.5 350.45 344.7Q366.65 358.15 385.35 350.2Q402.3 343.15 406.45 324.45Q410.7 327.55 410.85 332.45Q411.45 351.35 396.25 363.15Q392 366.5 386.8 368Q381.15 369.5 375.45 369.05Q367.5 368.5 360 366.05Q351.45 363.45 348.3 355.65Q331.1 313 336.5 266.1Q343.15 208.05 391.95 179.75Q416.7 180.85 415.7 205.25L415.1 204.95M392.95,302.45L417.9 303.75L419.7 315Q423.4 342.9 415.7 369.2Q414.3 366.65 413.75 364Q408.95 340.85 414.2 316.95L392.45 313.2L391.25 311.95Q390.75 310.75 390.6 309.5Q390.45 307.8 390.75 306.3Q391 304.9 391.75 303.85L392.95 302.45M245.45,180.25Q247.8 238.8 243.7 298.65Q242 323.45 252.25 344.6Q255.05 350.4 261.35 351Q298 354.35 309.7 321.35Q317.05 300.4 315.45 277.75Q311.9 229.5 313.7 182.5Q320.2 189.25 321 203.4Q324.4 263.25 318.2 322.55Q317.1 333.4 311.45 342.65Q291.1 376.05 254 363.65Q250.85 362.6 249 359.5Q235.35 336.35 237.4 308.1Q238.95 286.45 239.05 264.75Q239.15 221.7 244.95 180.3L245.45 180.25M157.95,184.75L158.5 185.5L158.7 187L158.75 187.75Q178.3 242.85 191 299.95Q195.4 319.65 198.45 339.5Q206.1 298.15 209.1 255.85Q210.15 241.3 210.25 226.5Q210.5 201.65 216.45 180.75Q216.95 239.05 212.2 298.6Q209.15 336.85 200.45 373.45Q198.15 368.7 197.2 363.35Q192.25 357.45 191.5 346.85Q190.95 339.65 189.55 332.5Q178.3 274.8 161.9 218.1Q156.5 199.3 154.35 180.95Q154.25 180 155.25 180.25Q156.4 182.65 157.95 184.75M153.25,180Q156.55 238.85 151.6 298.55Q148.85 331.85 142.2 364.4Q141.75 366.5 139.75 365.2Q139.1 335.8 142.55 305.8Q149.35 247.45 149.95 188.25Q150 182.75 153.25 180" />
</g>
</svg>
