<?xml version="1.0" encoding="utf-8"?>
<svg version="1.1" id="Layer_1"
xmlns="http://www.w3.org/2000/svg"
xmlns:xlink="http://www.w3.org/1999/xlink"


xml:space="preserve">
q-5.95 2.8 -9.2 8.6q-10.45 18.65 -12.8 40.25q-4.2 38.8 13.25 73.65q10.9 58.15 19 116.75q7.9 57.05 4.45 114.7q-2.7 45.25 -48.55 48.6q-15.75 1.15 -21.6 -14.65q-4.25 -11.45 -4 -23.65q0.35 -16.5 -7.45 -26.75q-0.8 0.2 -1.5 0.5q0.4 26.45 8.55 51.9q6.3 19.5 25.5 20.85q24.5 1.65 39.75 -16.5q20.6 -24.45 20.1 -57.5q-0.85 -59.1 -8.6 -117q-7.65 -57.6 -19.35 -114.55q-5.6 -27.35 -14.15 -53.85q-5.4 -16.65 -4.05 -34.2q1.65 -21.35 14.25 -36.6q11.9 -4.05 22.3 2.25q14 8.55 21.2 21q1.75 -7.55 -1.95 -15.15q-4.9 -10.15 -14.05 -17.1q-10.25 -6.3 -22.65 -4.75q-0.5 4.4 1.3 8.25q10.1 -1.85 20.35 -1.85q-1.2 20.85 -1 42.6q0.5 59.75 -2.45 119.15q-0.7 13.7 5.85 21.1q3.95 -36.7 3.55 -75.5q-0.55 -53.85 -2.4 -107.3q1.4 -1.2 1.9 -2.95q1.8 -6.65 -2.4 -11.3q-17.1 -1.35 -33.25 3.25q-1.05 1.7 -1.3 3.75q-1 -0.2 -1.1 0.55q-4.9 41.45 -0.2 83.9q6.45 58.9 8.5 118.55q2.05 60 -5.75 118.45q-2.05 15.3 -4.65 30.35q-6.75 38.85 -30.3 69.4q-4.5 1.85 -8 -0.5q-7.4 -32.1 -6 -66q2.45 -59.35 3.3 -118.45q0.85 -59.45 -2.05 -118.5q-5.15 26.65 -3.65 54.8q3.1 58.4 5.8 116.95q2.7 59.9 -1.3 119.3q-4 59.45 -1.3 118.5q1.15 24.8 23.95 26.15q10.05 -7.8 14.95 -19.15q24.4 -55.85 29.35 -116.3q4.8 -59.35 1.4 -119.25q-1.7 -29.6 -4.85 -59.05q-6.1 -56.3 -3.85 -112.7q3.85 -4.35 7.75 -6.75q-4.6 1.15 -8.5 4.75q0.35 -5.3 -3 -9q-16.3 4 -24 19.35q-14.7 29.25 -18.1 61.95q-6.1 58.8 -5.9 118.7q0.2 59.8 1.85 119.2q1.3 44.7 16.4 86.1q2.5 6.8 8.45 10.75q19.75 12.85 33.6 -9q29.85 -47.25 37.6 -103.2q8.05 -58.65 6.15 -118.65q-1.85 -59.35 -14.9 -116.9q-2.5 -11.05 -3.7 -21.95q-3 -28 -23.45 -44.35q-0.6 -0.4 -1.25 -0.7q-4.45 -2.25 -9.5 -2.3q10.55 9.05 14.1 22.6q8.7 32.8 14.75 66q10.75 58.85 9.85 119.15q-0.9 60.55 -16.75 118.45q-4.15 15.35 -8.9 30.5q-9.05 28.95 -37.8 35.5q-19.7 -17 -22.4 -43.8q-6 -58.7 -6.75 -118.65q-0.8 -59.85 2.65 -119.3q1.9 -43.15 26.5 -77.15q1 -0.25 1.8 -0.8q6 -4.15 13.2 -4.95q-1.05 59.65 0.45 119.25q1.5 59.45 0.3 119.2q-0.55 26.6 -3.8 52.7q-3.1 -20 -5.1 -40.1q-5.95 -59.1 -18.35 -117.1q-12.25 -57.65 -26.5 -114.85q-14.15 -57.15 -32.25 -112.55q-1.1 0 -1.4 1.1q-1.95 7.1 -1.55 14.2q3.3 59.65 0.8 119.25q-2.45 59.7 -6.05 119.1q-3.6 59.4 -4.05 119.3q-0.05 11.3 -0.95 22.4q-1.35 17.65 5.7 29.1q2.7 -3.2 2.6 -7.5q-1.6 -59.7 2.4 -119.15q3.95 -59.2 4.35 -119.3q0.2 -30 2.2 -59.9q3.1 -47.4 -1.2 -93.75q4.95 27.15 12.2 54.2q15.65 58.1 29.25 116.55q13.25 57 19.6 115q6.35 57.85 17.1 113.85q1.5 -1.6 2.6 -3.4q2.25 -0.85 2.5 -3.5q5.3 -58.8 5.95 -118.5q0.7 -59.9 -1.2 -119.25q-0.95 -30.05 -0.8 -59.95q0.35 -60.4 1.05 -118.5q-5.6 8.45 -5.7 21q-16.4 22.45 -26.85 48.2q-8.7 21.55 -23.4 39.5q-2.4 2.9 -4.6 5.95q-9.55 15.5 -7.4 36.45q1.85 18.3 0.15 36.75q-5.2 55.95 -9.5 112.1q-0.85 11.3 4.5 16.75q9.75 -6.45 6.9 -24.3q-7.35 -45.6 16.65 -83.2q9.6 35.45 18.8 71.15q4.4 17.1 13.35 32.4q-5.85 -42.75 -19.05 -85.2q-4.6 -14.7 -10.8 -28.7q7.05 -10.75 6.8 -23.7<g id="1278" transform="matrix(1, 0, 0, 1, -20.9, 0)">
<path style="fill:#000000;fill-opacity:1" d="M509.6,64.25L511.45 65Q520.6 71.95 525.5 82.1Q529.2 89.7 527.45 97.25Q520.25 84.8 506.25 76.25Q495.85 69.95 483.95 74Q471.35 89.25 469.7 110.6Q468.35 128.15 473.75 144.8Q482.3 171.3 487.9 198.65Q499.6 255.6 507.25 313.2Q515 371.1 515.85 430.2Q516.35 463.25 495.75 487.7Q480.5 505.85 456 504.2Q436.8 502.85 430.5 483.35Q422.35 457.9 421.95 431.45L421.65 431.4L421.45 428.45Q422.15 428.15 422.95 427.95L423.05 427.25L423.45 425.7L423.8 425.05L424.95 423.45Q432.75 433.7 432.4 450.2Q432.15 462.4 436.4 473.85Q442.25 489.65 458 488.5Q503.85 485.15 506.55 439.9Q510 382.25 502.1 325.2Q494 266.6 483.1 208.45L478.2 182Q460.75 147.15 464.95 108.35Q467.3 86.75 477.75 68.1Q481 62.3 486.95 59.5Q499.35 57.95 509.6 64.25M410.7,66.5Q426.85 61.9 443.95 63.25L446.45 63.6L448.95 63.75Q453.15 68.4 451.35 75.05Q450.85 76.8 449.45 78L434.6 76.7Q436.45 130.15 437 184Q437.4 222.8 433.45 259.5Q426.9 252.1 427.6 238.4Q430.55 179 430.05 119.25Q429.85 97.5 431.05 76.65Q420.8 76.65 410.7 78.5Q408.9 74.65 409.4 70.25Q409.65 68.2 410.7 66.5M398.45,71L398.7 71.5Q402.6 67.9 407.2 66.75Q403.3 69.15 399.45 73.5Q397.2 129.9 403.3 186.2Q406.45 215.65 408.15 245.25Q411.55 305.15 406.75 364.5Q401.8 424.95 377.4 480.8Q372.5 492.15 362.45 499.95Q339.65 498.6 338.5 473.8Q335.8 414.75 339.8 355.3Q343.8 295.9 341.1 236Q338.4 177.45 335.3 119.05Q333.8 90.9 338.95 64.25L344.7 176.75Q347.6 235.8 346.75 295.25Q345.9 354.35 343.45 413.7Q342.05 447.6 349.45 479.7L353.95 482.7Q357.45 485.05 361.95 483.2Q385.5 452.65 392.25 413.8Q394.85 398.75 396.9 383.45Q404.7 325 402.65 265Q400.6 205.35 394.15 146.45Q389.45 104 394.35 62.55Q394.45 61.8 395.45 62Q398.8 65.7 398.45 71M281.45,68.3Q282.1 68.6 282.7 69L283.65 69L285.45 68.25L285.95 68Q306.4 84.35 309.4 112.35Q310.6 123.25 313.1 134.3Q326.15 191.85 328 251.2Q329.9 311.2 321.85 369.85Q314.1 425.8 284.25 473.05Q270.4 494.9 250.65 482.05Q244.7 478.1 242.2 471.3Q227.1 429.9 225.8 385.2Q224.15 325.8 223.95 266Q223.75 206.1 229.85 147.3Q233.25 114.6 247.95 85.35Q255.65 70 271.95 66Q277 66.05 281.45 68.3M261.75,82.95Q260.95 83.5 259.95 83.75Q235.35 117.75 233.45 160.9L231.95 190.95Q228.5 250.4 229.3 310.25Q230.05 370.2 236.05 428.9Q238.75 455.7 258.45 472.7Q287.2 466.15 296.25 437.2Q301 422.05 305.15 406.7Q321 348.8 321.9 288.25Q322.8 227.95 312.05 169.1Q306 135.9 297.3 103.1Q293.75 89.55 283.2 80.5L279.65 79.3L274.95 78Q267.75 78.8 261.75 82.95M205.45,64.75Q204.75 122.85 204.4 183.25Q204.25 213.15 205.2 243.2Q207.1 302.55 206.4 362.45Q205.75 422.15 200.45 480.95Q200.2 483.6 197.95 484.45L196.8 481.3Q195.7 483.1 194.2 484.7Q183.45 428.7 177.1 370.85Q170.75 312.85 157.5 255.85Q143.9 197.4 128.25 139.3Q121 112.25 116.05 85.1Q120.35 131.45 117.25 178.85Q115.25 208.75 115.05 238.75Q114.65 298.85 110.7 358.05Q106.7 417.5 108.3 477.2Q108.4 481.5 105.7 484.7Q98.65 473.25 100 455.6Q100.9 444.5 100.95 433.2Q101.4 373.3 105 313.9Q108.6 254.5 111.05 194.8Q113.55 135.2 110.25 75.55Q109.85 68.45 111.8 61.35Q112.1 60.25 113.2 60.25L113.55 62.8Q131.65 118.2 145.8 175.35Q160.05 232.55 172.3 290.2Q184.7 348.2 190.65 407.3Q192.65 427.4 195.75 447.4Q199 421.3 199.55 394.7Q200.75 334.95 199.25 275.5Q197.75 215.9 198.8 156.25L199.75 85.75Q199.85 73.2 205.45 64.75M84.65,91.1L53.9 148.6Q60.1 162.6 64.7 177.3Q77.9 219.75 83.75 262.5L81.95 259.6Q73 244.3 68.6 227.2Q59.4 191.5 49.8 156.05Q25.8 193.65 33.15 239.25Q36 257.1 26.25 263.55Q20.9 258.1 21.75 246.8Q26.05 190.65 31.25 134.7Q32.95 116.25 31.1 97.95Q28.95 77 38.5 61.5L36.4 157.65Q38.6 154.6 41 151.7Q55.7 133.75 64.4 112.2Q74.85 86.45 91.25 64L91.45 67.4Q91.7 80.35 84.65 91.1" />
</g>
</svg>
