<?xml version="1.0" encoding="utf-8"?>
<svg version="1.1" id="Layer_1"
xmlns="http://www.w3.org/2000/svg"
xmlns:xlink="http://www.w3.org/1999/xlink"


xml:space="preserve">
q0 11.5 -26.7 97.2q14.7 58.1 41.15 184.35q28.1 134.4 28.1 147.3q0 4.15 -2.25 7.5q-5.35 -7.55 -8.1 -20.9q-2.35 -15.2 -3.65 -21.85q-5.65 -28.25 -8.25 -42.75q-4.65 -26.15 -7.9 -43.15q-3.85 -20.1 -21.2 -99.5q-9.3 -42.5 -12.85 -60q-17.8 55.6 -27.25 78.65q-0.4 31.55 -3.35 54.95q-2.25 17.75 -6.55 54.4q-3.95 33 -7.45 55.1q-2.35 -1.3 -3.5 -4q-0.75 -1.8 -0.75 -3.1q0 -1.95 6.5 -57q6.9 -58.7 8.25 -77.4q0 -7.5 -1.5 -20.05q-1.5 -12.55 -1.5 -22.3q0 -9.4 0.2 -11.65q0.65 -7.4 3.3 -11.1q2.9 16.5 3.75 39.6q0.5 12.9 0.5 39.9q3.6 -10.85 9.75 -28.1q16.7 -46.85 20.1 -60.05q16.8 -64.85 32 -103.5q1.75 3.15 1.75 6.75q0.5 -0.45 1.45 -0.6q0.65 0.95 2.15 0.95q0.8 -1 2.45 -2.15q1.1 1.9 1.8 13.45q-2.5 96.65 -2.5 124q-1.15 38.45 -4.5 70.55q-10.6 102.45 -38.75 102.45q-19.4 -3.6 -23.15 -11.9q-1.3 -2.85 -1.2 -7.5q-1.35 -16.5 -2 -27.75q-0.65 -11.7 -1.35 -33.55q0 -21.7 0.2 -27.3q0.55 -16.15 2.8 -28.2q0.8 -15.55 1.1 -45.85q0 -35 -1.85 -76.55q-1.9 -35.25 -1.9 -38.45q0.35 -9.05 1 -14.35q0.35 -8.35 0.75 -12.55q0.6 -7.3 2.5 -10.45q2.5 2.5 2.5 6q0 4.75 -2.75 27.35q0 33.9 4.5 74.65q0 10.85 -1 16.1q-2.3 10.65 -2.8 24.8q-0.2 5 -0.2 24.35q0.05 2.85 -1.1 12.05q-1 7.85 -0.3 12.5q2.2 14.4 22.9 21.2q19.75 -3.35 29.7 -31.95q5.1 -14.65 7.3 -36.55q1.25 -12.75 3.85 -34.1q-1.7 -16.65 0 -30q2 -33.35 2 -52.6q0 -5.25 -0.6 -10.4q-1.15 -10.1 -4.15 -13.1q-1.85 -1.35 -2.25 -3.2q0.1 -1.15 1.45 -1.5q2.45 -26.3 1.25 -57.6q-0.65 -16.25 7.15 -30.05q6.95 -12.15 17.65 -18.15q10.4 -5.85 17.95 -2.45q8.25 3.75 8.25 17.15q-0.25 0.35 -1.8 0.35q-1 0 -2.2 -1.8q-4.35 -5.75 -12.45 -5.75q-18.5 0 -24.2 24.15q-1.9 8.2 -2.5 20.05q-0.35 6.45 -0.55 16.3q-0.7 12.5 -1.1 30.4q0 1.45 4.05 0.9q13 -1.65 13 6.75q0 1.55 -1.2 2.5q-3.25 2.45 -18 2.45q-12 0 -18.5 -1.65q-1.8 12.65 -2.5 27.2q-0.5 10.8 -0.5 26.8q0.7 5.6 2.1 10.25q4.35 14.7 14 14.7q15.85 0 24.6 -26.9q3 -9.25 4.6 -20.1q1.3 -8.65 1.05 -12.5q1 -2 2 -2.75q3.3 1.15 4.5 5.15q0.75 2.5 0.75 6.85q0 2 -2 10.6q-2.6 11.3 -6.25 20.95q-11.4 29.7 -27.5 29.7q-16.8 0 -22.45 -22.3q-1.8 -7 -2.2 -15.4q0 -37.15 3 -59.65q-2.3 -4.45 -5.1 -8.25q-5.6 -7.5 -12.15 -7.5q-24.3 0 -30.9 31.45q-2.15 10.15 -2.45 24.25q-0.2 7.35 -0.15 16.55q-0.55 7.85 -0.9 18.25q18.4 0 18.4 -0.25q2 3.6 2 6.75q0 3.65 -2.5 6.5q-0.4 17.65 -0.45 41q0 18.65 2.6 33.55q3.8 21.75 11.9 23.05q10.05 1.75 27.5 -12.05q6.1 -4.8 11.2 -10.05q4.55 -4.7 4.55 -5.65q0 -0.75 -1.3 -3.6q4.25 2.1 4.25 10.25q-3.2 10.25 -9.5 20.3q-12.6 19.95 -28.25 19.95q-9.7 -6.4 -15.25 -34.65q-4 -20.45 -4 -36.6q0 -41.1 3.25 -89.85q1.5 -13.15 5.7 -22.15q6.65 -14.4 15.75 -19.7q7.7 -4.5 16.05 -2.1q7.2 2.1 12.45 8.3q5 5.9 5 11.35q0 4.75 -1.75 7.9q0 7.55 -3 33.35q-2.45 21.1 -0.75 35.3q0 58.4 -5.9 129.5q-4.7 56.8 -12.65 115.5q1.8 8.7 1.8 14.5q-1.15 3.2 -2.6 4.4q-9.05 -22.8 -13.6 -57.7q-4.1 -39.15 -7.4 -58.55q-3.45 -20.45 -12.25 -57.9q-9.75 -41.35 -13 -58.35q-4.6 -24.1 -28.4 -132.5q-11.5 -52.45 -16.6 -77.35q-0.55 4.65 -0.95 12.85q-3.6 48.15 -8.6 145.65q-5.6 86.55 -16.4 145.35q-2.15 -1.4 -3.5 -6.15q-1 -3.3 -1 -4.7q0.4 2.25 1 9.75q7.25 -58.2 12.75 -139.75q0.7 -4.9 1.2 -13.85q0.6 -10 1.05 -13.9q-0.15 -9.7 0 -14.55q0.1 -2.9 0.5 -5q0.1 -4.15 2 -5.45q1.75 3.5 1.75 9.75q25.9 109 43.7 191.35q23.75 110 40.1 204.5q-0.4 2 -0.4 3.45q0 4.35 3.3 16.8q1.75 -22.15 1.75 -38.55q12.75 -73.75 12.75 -164.75q0 -10.5 1 -15.75q-1.55 -21.2 0.25 -42q0 -12.75 1.25 -21q0.7 -6.6 3.45 -8.2q1.6 1.3 2.45 4.9q0.55 2.5 0.55 4.45<g id="1283" transform="matrix(1, 0, 0, 1, -29, 0)">
<path style="fill:#000000;fill-opacity:1" d="M440.25,51.25Q440.25 62.75 413.55 148.45L406.5 170.95Q421.2 229.05 447.65 355.3Q475.75 489.7 475.75 502.6Q475.75 506.75 473.5 510.1Q468.15 502.55 465.4 489.2Q463.05 474 461.75 467.35Q456.1 439.1 453.5 424.6L445.9 381.5Q441.25 355.35 438 338.35Q434.15 318.25 416.8 238.85Q407.5 196.35 403.95 178.85Q386.15 234.45 376.7 257.5L376.75 286.75L376.85 342.4Q376.45 373.95 373.5 397.35Q371.25 415.1 366.95 451.75Q363 484.75 359.5 506.85Q357.15 505.55 356 502.85Q355.25 501.05 355.25 499.75L355.9 490L356.5 480.25Q356.5 478.3 363 423.25Q369.9 364.55 371.25 345.85L371.25 222.1L371.5 221.35L371.5 151.75L373 125.4L373.75 107.85Q373.75 100.35 372.25 87.8Q370.75 75.25 370.75 65.5Q370.75 56.1 370.95 53.85Q371.6 46.45 374.25 42.75Q377.15 59.25 378 82.35Q378.5 95.25 378.5 122.25L377.9 136.2L376.5 156.75L376.65 236.15Q380.25 225.3 386.4 208.05Q403.1 161.2 406.5 148Q423.3 83.15 438.5 44.5Q440.25 47.65 440.25 51.25M340.8,48.6Q341.3 48.15 342.25 48L343.1 49.3Q343.75 50.25 345.25 50.25L346.05 49.65Q346.85 48.65 348.5 47.5Q349.6 49.4 350.3 60.95L350.75 74.1L348.25 178.35Q345.75 275 345.75 302.35L345.25 334.6Q344.1 373.05 340.75 405.15Q330.15 507.6 302 507.6L294.5 507.35Q275.1 503.75 271.35 495.45Q270.05 492.6 270.15 487.95L270.25 480.35Q268.9 463.85 268.25 452.6Q267.6 440.9 266.9 419.05L266.25 397.1Q266.25 375.4 266.45 369.8Q267 353.65 269.25 341.6L269.25 283.85Q270.05 268.3 270.35 238L270.5 208.85Q270.5 173.85 268.65 132.3Q266.75 97.05 266.75 93.85L267 83.85Q267.35 74.8 268 69.5Q268.35 61.15 268.75 56.95Q269.35 49.65 271.25 46.5Q273.75 49 273.75 52.5Q273.75 57.25 271 79.85Q271 113.75 275.5 154.5L275.5 259.35L275.75 272.5Q275.75 283.35 274.75 288.6L274.75 347.85Q272.45 358.5 271.95 372.65Q271.75 377.65 271.75 397L272.55 416.3L273.75 446.1Q273.8 448.95 272.65 458.15Q271.65 466 272.35 470.65Q274.55 485.05 295.25 491.85Q315 488.5 324.95 459.9Q330.05 445.25 332.25 423.35Q333.5 410.6 336.1 389.25L340.25 355.1L340.25 249.35Q338.55 232.7 340.25 219.35L340.25 176.6L343.25 125.1Q345.25 91.75 345.25 72.5Q345.25 67.25 344.65 62.1Q343.5 52 340.5 49L340.8 48.6M484.5,357.65Q482.65 356.3 482.25 354.45L482.25 352L482.1 348.6Q482.2 347.45 483.55 347.1L486.5 346.95Q488.95 320.65 487.75 289.35Q487.1 273.1 494.9 259.3Q501.85 247.15 512.55 241.15Q522.95 235.3 530.5 238.7Q538.75 242.45 538.75 255.85L538.45 258.5L537.75 260.35L537.8 260.75Q537.55 261.1 536 261.1Q535 261.1 533.8 259.3L531.2 255.35Q526.85 249.6 518.75 249.6Q500.25 249.6 494.55 273.75Q492.65 281.95 492.05 293.8Q491.7 300.25 491.5 310.1Q490.8 322.6 490.4 340.5L490.25 346.9L501.35 346.85L501.5 347.6Q501.5 349.05 505.55 348.5L514.5 347.1Q527.5 345.45 527.5 353.85L527.7 356.65Q527.7 358.2 526.5 359.15Q523.25 361.6 508.5 361.6Q496.5 361.6 490 359.95L489.75 370.85L489.75 411.35Q487.95 424 487.25 438.55Q486.75 449.35 486.75 465.35L487.15 470.15Q487.85 475.75 489.25 480.4Q493.6 495.1 503.25 495.1Q519.1 495.1 527.85 468.2Q530.85 458.95 532.45 448.1Q533.75 439.45 533.5 435.6L534.25 435.6L534.5 439.35L534.5 439.6Q535.5 437.6 536.5 436.85Q539.8 438 541 442Q541.75 444.5 541.75 448.85Q541.75 450.85 539.75 459.45Q537.15 470.75 533.5 480.4Q522.1 510.1 506 510.1Q489.2 510.1 483.55 487.8Q481.75 480.8 481.35 472.4L481.25 465.25Q481.25 428.1 484.25 405.6L484.25 365.1L485.25 358.15L484.5 357.65M243.25,73.75Q240.95 69.3 238.15 65.5Q232.55 58 226 58Q201.7 58 195.1 89.45Q192.95 99.6 192.65 113.7Q192.45 121.05 192.5 130.25Q191.95 138.1 191.6 148.5Q210 148.5 210 148.25L227.5 148.5Q229.5 152.1 229.5 155.25Q229.5 158.9 227 161.75L191.2 161.5Q190.8 179.15 190.75 202.5Q190.75 221.15 193.35 236.05Q197.15 257.8 205.25 259.1Q215.3 260.85 232.75 247.05Q238.85 242.25 243.95 237Q248.5 232.3 248.5 231.35Q248.5 230.6 247.2 227.75L245.5 223.85Q249.75 225.95 249.75 234.1Q246.55 244.35 240.25 254.4Q227.65 274.35 212 274.35L204.5 274.1Q194.8 267.7 189.25 239.45Q185.25 219 185.25 202.85Q185.25 161.75 188.5 113L190.05 90.15Q191.55 77 195.75 68Q202.4 53.6 211.5 48.3Q219.2 43.8 227.55 46.2Q234.75 48.3 240 54.5Q245 60.4 245 65.85Q245 70.6 243.25 73.75M175.25,56.85Q175.25 64.4 172.25 90.2Q169.8 111.3 171.5 125.5L171.75 248.35Q171.75 306.75 165.85 377.85Q161.15 434.65 153.2 493.35Q155 502.05 155 507.85L154.1 511.2Q152.95 514.4 151.5 515.6Q142.45 492.8 137.9 457.9Q133.8 418.75 130.5 399.35Q127.05 378.9 118.25 341.45Q108.5 300.1 105.25 283.1Q100.65 259 76.85 150.6Q65.35 98.15 60.25 73.25L60.25 147.5Q59.7 152.15 59.3 160.35L58.5 173.75L58.5 223.85Q54.9 272 49.9 369.5Q44.3 456.05 33.5 514.85Q31.35 513.45 30 508.7Q29 505.4 29 504L29.8 496.95L31 487.85Q31.4 490.1 32 497.6L32.25 497.6Q39.5 439.4 45 357.85L53.5 217.85L53.5 170Q54.2 165.1 54.7 156.15Q55.3 146.15 55.75 142.25L55.75 70.25Q55.6 60.55 55.75 55.7Q55.85 52.8 56.25 50.7Q56.35 46.55 58.25 45.25L58.45 46.05L59.25 45.5Q61 49 61 55.25L60.95 56.5Q86.85 165.5 104.65 247.85Q128.4 357.85 144.75 452.35L144.9 452.45L145 453.1L145.25 452.65L145.5 451.6L146.25 451.6L145.65 454.9Q145.25 456.9 145.25 458.35Q145.25 462.7 148.55 475.15L149.75 457.15Q151.5 435 151.5 418.6L152.25 418.6L152.5 431.35L152.5 431.6Q165.25 357.85 165.25 266.85Q165.25 256.35 166.25 251.1L166.25 182.85L166.5 182.1L166.5 129.75Q164.95 108.55 166.75 87.75Q166.75 75 168 66.75L168.8 55.7Q169.5 49.1 172.25 47.5Q173.85 48.8 174.7 52.4Q175.25 54.9 175.25 56.85" />
</g>
</svg>
