<?xml version="1.0" encoding="utf-8"?>
<svg version="1.1" id="Layer_1"
xmlns="http://www.w3.org/2000/svg"
xmlns:xlink="http://www.w3.org/1999/xlink"


xml:space="preserve">
q-9.4 58.95 -22.4 117.25q-3.35 15.05 -8.35 29.55q-5.45 15.85 -3.85 30.45q10.3 -16.65 14.8 -37.5q12.75 -59.3 24.7 -118.7q4.15 41.65 3.95 83.7q-0.05 16.3 6.8 26.75q17.75 -57.55 35 -115.45q-0.35 17.65 3.4 34.65q12.9 58.75 16.35 118.3q-2.3 0.6 -4 0q2.2 3.05 5.5 2.5q0.05 2.75 2.35 4.25q5.15 -4 4.35 -12.05q-5.95 -58.75 -17.5 -116.75q-2.95 -14.95 -2.6 -30.15q0.4 -17.7 -7.75 -29q-19.55 56.7 -33.75 115.2q-1.45 -58.4 -9.75 -114.7q-6.05 4.05 -7.4 12.45q-6.55 20.15 -8 42.5q-3.8 58.8 -12.7 116.8q-6.25 -32.2 -11.5 -64.5q-4.85 -29.65 -7.35 -59.6q-1.3 -16.1 -6.9 -28.35q-4.3 4.25 -4.8 10.4q-4.65 58.8 -12.55 117.2q-3.05 22.35 -9.9 43.75q-3.25 10.15 3 13.85q6.2 -13.45 8.25 -28.45q9.95 58.2 16.75 116.9q1.85 16.35 9.25 28.3q6.55 -14.3 8.45 -30.55q6.85 -58.8 14.2 -117.7q2.85 -22.8 -1.7 -43.7q-0.5 0 -0.5 0.15q1.1 57.1 -1.1 113.95q-0.6 15.2 -5.6 29.5q-10.4 29.6 -42.05 27q-2.1 -1.95 -2.95 -4.1q-9.75 -24.15 -6.75 -51.9q6.4 -59.35 4.45 -117.7q-3.45 12.55 -5.05 27.55q-6.1 57.9 -6.35 117.15q-0.05 15.5 5.4 29.35q10.65 27 38.45 10.55q7.9 -4.65 12.05 -12.65q19.75 -38.2 17.6 -82.5q-1.5 -29.55 -0.4 -59.15q0.6 -16.95 -6.45 -29.3q-1.3 0.8 -1.25 2.25<g id="1270" transform="matrix(1, 0, 0, 1, -136, 0)">
<path style="fill:#000000;fill-opacity:1" d="M345.45,179.75Q353.75 236.05 355.2 294.45L355.2 295.45Q369.4 236.95 388.95 180.25Q397.1 191.55 396.7 209.25Q396.35 224.45 399.3 239.4Q410.85 297.4 416.8 356.15Q417.6 364.2 412.45 368.2Q410.15 366.7 410.1 363.95L409.95 363.7Q406.65 364.25 404.45 361.2Q406.15 361.8 408.45 361.2Q405 301.65 392.1 242.9Q388.35 225.9 388.7 208.25Q371.45 266.15 353.7 323.7Q346.85 313.25 346.9 296.95Q347.1 254.9 342.95 213.25Q331 272.65 318.25 331.95Q313.75 352.8 303.45 369.45Q301.85 354.85 307.3 339Q312.3 324.5 315.65 309.45Q328.65 251.15 338.05 192.2Q339.4 183.8 345.45 179.75M213.45,179Q218 199.9 215.15 222.7Q207.8 281.6 200.95 340.4Q199.05 356.65 192.5 370.95Q185.1 359 183.25 342.65Q176.45 283.95 166.5 225.75L150.5 342.75Q148.45 357.75 142.25 371.2Q136 367.5 139.25 357.35Q146.1 335.95 149.15 313.6Q157.05 255.2 161.7 196.4Q162.2 190.25 166.5 186Q172.1 198.25 173.4 214.35Q175.9 244.3 180.75 273.95Q186 306.25 192.25 338.45Q201.15 280.45 204.95 221.65Q206.4 199.3 212.95 179.15Q212.95 179 213.45 179M293.45,181Q300.5 193.35 299.9 210.3Q298.8 239.9 300.3 269.45Q302.45 313.75 282.7 351.95Q278.55 359.95 270.65 364.6Q242.85 381.05 232.2 354.05Q226.75 340.2 226.8 324.7Q227.05 265.45 233.15 207.55Q234.75 192.55 238.2 180Q240.15 238.35 233.75 297.7Q230.75 325.45 240.5 349.6Q241.35 351.75 243.45 353.7Q275.1 356.3 285.5 326.7Q290.5 312.4 291.1 297.2Q293.3 240.35 292.2 183.25Q292.15 181.8 293.45 181" />
</g>
</svg>
