<?xml version="1.0" encoding="utf-8"?>
<svg version="1.1" id="Layer_1"
xmlns="http://www.w3.org/2000/svg"
xmlns:xlink="http://www.w3.org/1999/xlink"


xml:space="preserve">
q-0.5 5.1 -1.15 37.2q0 51.35 -6.45 126.45q-7.1 83.4 -16.05 112.05q0.15 -0.65 1 -0.9q7.15 0.25 7.6 -0.05q0.6 1.35 0.6 4.05q-0.05 1.25 -1.45 1.3q-15.05 0.75 -17.75 1.95q-0.8 0.35 -1.35 1.25q-0.55 0.95 -1.65 1.55q-1.75 -1.5 -2.65 -4q-0.6 -1.65 -0.6 -2.6q0 -4.95 7.5 -52.9q7.8 -50.05 8.5 -60.75q2.35 -33.85 5.45 -56.5q-1 -3.75 -1 -11.6q0 -26.4 3.25 -44.65q0.5 -2.75 0.5 -8.1q0.15 -11.1 3.55 -12.9q1.25 3 1.25 10.5q-21.2 0 -33 39.9q-3.8 12.75 -6.65 29.9q-2.1 14.3 -2.1 41.15q0 5.25 -0.95 24.45q0.35 0.8 0.35 2.45q0 1.7 -0.5 2.75q-3.45 57.45 -3.25 61.25q-0.65 11.75 -1.35 32.65q0 13.7 4.1 29.45q5.25 20.1 14.15 26.4q28.2 -11.75 38.05 -32.5q2.75 -5.75 6.2 -17.55q3.3 -11.35 6 -16.7q0.55 1.8 0.55 3.3q0 2.8 -2.5 13.05q-3.4 13.9 -8.5 25.6q-15.8 36.2 -40.75 36.2q-19.2 0 -26.8 -34.7q-2.35 -10.9 -3.25 -23.9q0.5 -35.9 0.5 -73.4q0 -12.4 5.75 -84.35q0.55 -17.3 6 -40.65q3.2 -12.25 5.8 -20.25q3.7 -11.05 8.2 -20.25q2.65 -5.55 6.75 -10.45q5.05 -6.05 10.5 -8.8q10.05 -5.05 20.5 2.15q4.05 2.75 6.7 6.5q2.55 3.55 2.55 6.1q0.3 -0.1 0.3 -1.6q0 -1.9 -9.7 -5.35q-9 -3.25 -11.55 -3.25q0 7.55 -11.85 104.4q-12.9 105.25 -15.15 132.1q-4.45 53.55 -13.1 117.35q-6.85 50.8 -17.9 118.15q-4.25 -9.65 -5.95 -24.15q-1.4 -16.65 -2.8 -25.35q-2.85 -15.3 -4 -24.7q-2.1 -16.85 -4.6 -49.8q-2.6 -34.55 -4.4 -49.95q-1.3 11.3 -5.3 50.95q-3.2 31.7 -5.75 51.15q-7.8 59.05 -22.2 102.15q-0.7 -0.35 -1.3 -1.35q-0.5 -0.95 -0.7 -2.15q-5.7 -60.7 -8.35 -94.8q-2.15 -28.25 -12.15 -109.9q-9.35 -76.3 -9.35 -78.6q0.5 -0.45 1.1 -0.6q13.35 76.25 23.7 188.95q4.95 57.35 8.85 94.45q3.85 -16.15 12.95 -71.8q10.8 -66 10.8 -86.2q4.6 -33.75 8.25 -39.75q5.25 32.45 13 99.05q7.75 66.6 13.25 100.45q16.8 -144.55 25 -222.75q6.75 -74.25 10.45 -111.3q6.5 -65.3 15.3 -111.3q-0.8 -1.2 -0.05 -4.95q0.95 -4.5 4.3 -5.55q2 3.6 2 7.1q3.75 5.65 3.75 10.5q-2.3 -7.3 -4.6 -10.5q-6.25 -8.75 -18.15 -8.75q-26.6 0 -42.45 42.25q-5.15 13.75 -8.4 30.05q-2.4 11.9 -2.4 15.7q7.7 1.4 16.8 1.55q1.75 0 2.15 0.5q0.3 0.5 0.3 2.7q0 2.85 -1.25 3.8q-1.9 1.45 -8.25 1.45q-4.35 -0.8 -4.55 -1.2q-1.6 17.3 -1.6 22q0.8 17.55 3.8 31.9q9.4 45.25 37.25 45.25q21.25 0 29.85 -20.8q2.8 -6.85 4.5 -16.7q1.5 4.5 1.5 8.65q0 1.6 -1.95 9.1q-2.55 9.9 -6 18.25q-10.85 26 -25.8 26q-34.85 0 -45.75 -51q-3.45 -16.1 -4.05 -35.8q0 -24.7 2.15 -43.5q2.75 -24.25 9.35 -43q6.05 -17.6 7.75 -21.15q5.45 -11.75 15.5 -21.6q19.05 -18.9 35.8 -10.75q6.3 3.1 10.45 9.25q0 24.6 -5.75 101.25q1.1 17.6 1.15 27.35q0 15.85 -2.15 28.15q-2.1 24.75 -5.8 95.65q-2.1 40.15 -4.6 69.45q1.65 16.6 1.65 29.8q0 4.5 -2.25 7.85q-4.25 -5.1 -5.15 -22.3q0 -7.45 -14 -72.35q-27.7 -127.2 -38.25 -188.1q0 4.95 -2.3 54.8q0 20.15 -7.85 105.45q-7.45 80.65 -8.9 87.05q-2.5 -0.45 -3.25 -3.5q-0.25 -1 -0.25 -3.35q0 -8 4.5 -50.05q4.15 -43.15 5.25 -97.5q3 -51.05 6.25 -136.35q-2 -14.65 -2 -21.5q-0.15 -2.75 0.05 -5.25q0.15 -4.6 3.2 -5.75q0.65 1.45 1.1 3.25q1.1 1.35 0.85 2.45q0.35 3.1 0.3 6.95q-0.05 4.15 0.15 7.25q3.6 23.25 16.3 91.2q17.9 95.65 28 141.4q3.35 15.15 13.1 54.25q10.4 41.65 15.5 64.25q8.2 36.15 12.75 64.95q1.15 -22.5 3.15 -53q3.35 -51.35 6.25 -86.45q0.75 -13.15 -0.7 -22.55q2.5 -33.4 4.95 -56.1q0.75 1.05 1.3 7.95q3.3 -8.9 5.85 -14.8q1.35 -4.6 3.9 -7.15q7.05 -7.05 34.7 -10.2q18.75 -2.15 34.45 22.6q8.4 13.25 14.55 31.9q5.25 32.15 5.25 60q0 15.3 -2.7 35q-3.15 22.75 -8.75 41.55q-14.7 49.2 -39.05 49.2q-28.05 0 -44.9 -19.15q-13.5 -15.4 -19.3 -42.35q-4.15 -19.3 -4 -42.7q0 -9.75 4.25 -30.9q3.65 -18.1 7 -29.1q2 -6.5 5.15 -15.2q-3.75 9.3 -5.1 14.55q-4.3 18.2 -4.3 29.25q0.15 21 3.65 38.05q11.15 54 52.2 54q33 0 46.3 -55.95q4.15 -17.55 5.85 -38.6q0 -10.25 -1.6 -25.95q-1.35 -14.25 -15.2 -32.45q-5 -5.85 -5.85 -7.6q-32.7 -1.15 -41.6 6.15q-2.85 2.3 -4.85 7.05q-2.3 5.35 -4.05 7.3<g id="1284" transform="matrix(1, 0, 0, 1, -6.5, 0)">
<path style="fill:#000000;fill-opacity:1" d="M496.5,43.75L496 53.5L494.75 67L494.75 129.25L495 130L495 180.1Q494.5 185.2 493.85 217.3L493.25 255.85Q493.25 307.2 486.8 382.3Q479.7 465.7 470.75 494.35L470.75 494.85L471.4 494.1Q471.55 493.45 472.4 493.2L489.25 494.1L505.4 494.8L509.75 495.1L518.65 494.1L527.5 493.1L536.4 493.4Q543.55 493.65 544 493.35L546.9 497.55Q547.5 498.9 547.5 501.6L547.7 506.35Q547.65 507.6 546.25 507.65L526.25 506.6L519.15 507.6L512 508.6L499.2 507.8L487.75 506.6Q472.7 507.35 470 508.55Q469.2 508.9 468.65 509.8Q468.1 510.75 467 511.35Q465.25 509.85 464.35 507.35Q463.75 505.7 463.75 504.75Q463.75 499.8 471.25 451.85Q479.05 401.8 479.75 391.1L483.3 334.35Q485.65 300.5 488.75 277.85L488.75 232.85Q487.75 229.1 487.75 221.25Q487.75 194.85 491 176.6L491 129.5L491.25 128.75L491.25 63.5Q491.75 60.75 491.75 55.4L491.7 46.15Q491.85 35.05 495.25 33.25Q496.5 36.25 496.5 43.75M448,42Q426.8 42 415 81.9Q411.2 94.65 408.35 111.8L405.5 130.75L396.35 178.7Q394.25 193 394.25 219.85Q394.25 225.1 393.3 244.3L393.8 244.3L422 243.35L432 242.85L432 242.35L443.25 242.6L444.4 244.3Q444.75 245.1 444.75 246.75Q444.75 248.45 444.25 249.5L443 251.35L437.3 251.65L431 252.35L426.3 252.65L421 253.35L410 253.35L401.15 251.85L392.95 250.7L390.75 289.1Q387.3 346.55 387.5 350.35L387.5 390.85Q386.85 402.6 386.15 423.5L385.5 444.5Q385.5 458.2 389.6 473.95Q394.85 494.05 403.75 500.35L411 500.35Q439.2 488.6 449.05 467.85Q451.8 462.1 455.25 450.3Q458.55 438.95 461.25 433.6L462.2 436.7Q462.75 438.5 462.75 440Q462.75 442.8 460.25 453.05Q456.85 466.95 451.75 478.65Q435.95 514.85 411 514.85Q391.8 514.85 384.2 480.15Q381.85 469.25 380.95 456.25L380.5 445.25L381 410.25Q381.5 374.35 381.5 336.85Q381.5 324.45 387.25 252.5L393.25 174.85Q393.8 157.55 399.25 134.2L409.75 94Q412.95 81.75 415.55 73.75Q419.25 62.7 423.75 53.5Q426.4 47.95 430.5 43.05Q435.55 37 441 34.25Q451.05 29.2 461.5 36.4Q465.55 39.15 468.2 42.9Q470.75 46.45 470.75 49L470.55 51.15L470 51.75L469 52.25L468.95 52.2Q469.25 52.1 469.25 50.6Q469.25 48.7 459.55 45.25Q450.55 42 448 42M391.5,40.6Q391.5 48.15 379.65 145Q366.75 250.25 364.5 277.1Q360.05 330.65 351.4 394.45Q344.55 445.25 333.5 512.6Q329.25 502.95 327.55 488.45Q326.15 471.8 324.75 463.1L320.25 438.3Q317.4 423 316.25 413.6Q314.15 396.75 311.65 363.8Q309.05 329.25 307.25 313.85Q305.95 325.15 301.95 364.8Q298.75 396.5 296.2 415.95Q288.4 475 274 518.1Q273.3 517.75 272.7 516.75Q272.2 515.8 272 514.6L272 417.1L263.35 322.15Q257.65 261.45 255 227.35Q252.85 199.1 242.85 117.45Q233.5 41.15 233.5 38.85L233.55 36.8L233.75 35.5L234.15 35.1Q234.65 34.65 235.25 34.5Q248.6 110.75 258.95 223.45L267.15 317.9Q272.1 375.25 276 412.35L276 487.6Q279.85 471.45 288.95 415.8Q299.75 349.8 299.75 329.6Q304.35 295.85 308 289.85Q313.25 322.3 321 388.9Q328.75 455.5 334.25 489.35L334.5 489.35Q351.3 344.8 359.5 266.6Q366.25 192.35 369.95 155.3Q376.45 90 385.25 44Q384.45 42.8 385.2 39.05Q386.15 34.55 389.5 33.5Q391.5 37.1 391.5 40.6M216.25,43.25Q220 48.9 220 53.75L219.7 56.4L219.25 58.25L218.75 58.5Q216.45 51.2 214.15 48Q207.9 39.25 196 39.25Q169.4 39.25 153.55 81.5Q148.4 95.25 145.15 111.55Q142.75 123.45 142.75 127.25L141.1 144.25L145 144L177.25 144.25Q184.95 145.65 194.05 145.8Q195.8 145.8 196.2 146.3Q196.5 146.8 196.5 149Q196.5 151.85 195.25 152.8Q193.35 154.25 187 154.25L180.8 153.45Q176.45 152.65 176.25 152.25L145 152L140.35 151.6Q138.75 168.9 138.75 173.6L138.95 189.7Q139.75 207.25 142.75 221.6Q152.15 266.85 180 266.85Q201.25 266.85 209.85 246.05Q212.65 239.2 214.35 229.35L216.25 216.85L217.25 216.6Q218.75 221.1 218.75 225.25Q218.75 226.85 216.8 234.35Q214.25 244.25 210.8 252.6Q199.95 278.6 185 278.6Q150.15 278.6 139.25 227.6Q135.8 211.5 135.2 191.8L135.25 174Q135.25 149.3 137.4 130.5Q140.15 106.25 146.75 87.5Q152.8 69.9 154.5 66.35Q159.95 54.6 170 44.75Q189.05 25.85 205.8 34Q212.1 37.1 216.25 43.25M137.8,38.45L138.25 47.75Q138.25 72.35 132.5 149L132.5 196.1Q133.6 213.7 133.65 223.45Q133.65 239.3 131.5 251.6L131.5 324.35Q129.4 349.1 125.7 420Q123.6 460.15 121.1 489.45Q122.75 506.05 122.75 519.25Q122.75 523.75 120.5 527.1Q116.25 522 115.35 504.8L115.25 486.1Q115.25 478.65 101.25 413.75L70.5 273.1Q42.8 145.9 32.25 85L32.25 129L32.5 141.35Q32.5 146.3 30.2 196.15L26.5 269.85L26.5 324.6L26.75 334.35Q26.75 354.5 18.9 439.8Q11.45 520.45 10 526.85Q7.5 526.4 6.75 523.35Q6.5 522.35 6.5 520Q6.5 512 11 469.95L16.25 421.35Q20.4 378.2 21.5 323.85L21.5 264.6Q24.5 213.55 27.75 128.25L27.75 56.6Q25.75 41.95 25.75 35.1Q25.6 32.35 25.8 29.85L26.05 28.25Q26.2 23.65 29.25 22.5Q29.9 23.95 30.35 25.75Q31.45 27.1 31.2 28.2L31 29.05Q31.35 32.15 31.3 36Q31.25 40.15 31.45 43.25Q35.05 66.5 47.75 134.45Q65.65 230.1 75.75 275.85Q79.1 291 88.85 330.1Q99.25 371.75 104.35 394.35Q112.55 430.5 117.1 459.3Q118.25 436.8 120.25 406.3Q123.6 354.95 126.5 319.85L126.5 245.6L128.2 223.9Q128.95 210.75 127.5 201.35L127.5 145.25L131.55 86.6Q134.05 53.2 136.5 30.5Q137.25 31.55 137.8 38.45M145.15,328.65Q148.45 319.75 151 313.85L153.65 305.45Q155 300.85 157.55 298.3Q164.6 291.25 192.25 288.1Q211 285.95 226.7 310.7Q235.1 323.95 241.25 342.6Q246.5 374.75 246.5 402.6Q246.5 417.9 243.8 437.6Q240.65 460.35 235.05 479.15Q220.35 528.35 196 528.35Q167.95 528.35 151.1 509.2Q137.6 493.8 131.8 466.85Q127.65 447.55 127.8 424.15L128.75 403.85Q128.75 394.1 133 372.95Q136.65 354.85 140 343.85Q142 337.35 145.15 328.65M155.5,317.85L150.1 331.8Q146.35 341.1 145 346.35L137.55 374.5Q133.25 392.7 133.25 403.75L132.65 423.05Q132.8 444.05 136.3 461.1Q147.45 515.1 188.5 515.1Q221.5 515.1 234.8 459.15Q238.95 441.6 240.65 420.55L241.5 402.85Q241.5 392.6 239.9 376.9L237 349.6Q235.65 335.35 221.8 317.15L211.85 304.95Q206.85 299.1 206 297.35Q173.3 296.2 164.4 303.5Q161.55 305.8 159.55 310.55Q157.25 315.9 155.5 317.85" />
</g>
</svg>
