<?xml version="1.0" encoding="utf-8"?>
<svg version="1.1" id="Layer_1"
xmlns="http://www.w3.org/2000/svg"
xmlns:xlink="http://www.w3.org/1999/xlink"


xml:space="preserve">
q-2.75 0.6 -5.35 2.35q-9.2 11.9 -12.4 26.4q-11.1 50.4 -13.3 102.55q-0.9 21.35 11.2 37.5q3.55 4.75 8.9 2.3q25.9 -11.8 42.55 -34.8q1.8 -4.7 1.85 -9.75q0.15 -6.1 -4.6 -7.25q-12.65 23.3 -36.45 36.4q-6.9 3.8 -9.65 -2.35q-9.4 -21.25 -7.35 -46.55q3.35 -41.2 5.6 -82.55q24.7 -0.95 48.6 -6.65q1.8 -2.3 2.2 -5.25q0.7 -4.75 -1.7 -9q-0.35 -0.4 -0.8 -0.45q-20.45 5.95 -42.1 7.8q0.65 -14.7 0.45 -29.25q-0.5 -38.1 22.65 -65.5q18.95 -0.7 25.5 17q2.15 -25.15 -22.8 -29.7q-6 49.25 -6.95 100.45q-1.05 59.65 -9.05 118.3q-1.85 13.75 -1.9 27.2q-10.05 -58.2 -19.5 -116.55q-9.5 -58.4 -24.65 -115.4q-3.8 6.95 -4.2 16.65q-2.5 59.9 -10.75 119.05q-2.4 17.4 4.35 29.2q4 -22.3 6.25 -45.65q5.75 -58.95 8.45 -118.5q2.15 -47.1 1.45 -93.3q11.95 57.75 21.9 115.85q5 29.35 8.75 58.8q3.75 29.95 10.8 57.25q1.65 -1.95 2.55 -4.25q0.85 -0.35 0.9 -0.85q2.9 -19.65 5.15 -40.3q6.4 -58.85 8.75 -118.5q2.3 -59.8 0.9 -118.55q3.55 -15.55 -13.7 -16.25q-6.35 1.9 -10.05 7.45q-21 31.1 -14.05 69.8q10.4 58 31.25 113.85q15.45 41.5 -7.8 77.9q-1.3 2 -3.05 2.25q-17.7 2.25 -32.55 -9.05q-2.35 3.7 -2.15 8.3q0.1 3.6 1.9 6.7q10.8 7.45 22.75 12.75q5.35 2.4 9.45 -1.75q22.2 -22.6 21.75 -54.5q-0.55 -36.95 -13.4 -72.25q-20.4 -56.1 -23.3 -115.2q-1.4 -28.6 25 -34.25q2.5 1.5 4.55 3.45q1.65 1.6 3.2 1.55q-4.85 58.75 -9.35 117.65q-4.6 59.25 -10.2 118.5q-1.65 13.65 4.65 21.7q4.4 -21.85 5.95 -44.95q4 -59.25 9.3 -118.4q5.3 -59.45 3.25 -117.85q-1.1 0 -1.2 1.05q-0.15 36.2 -2.6 72.1q-4 59.25 -7.7 118.4q-6.1 -23.95 -11.2 -48.05q-12.65 -57.9 -32.65 -113.55q-0.6 -0.2 -0.6 0.25q-0.5 0.25 -0.5 0.5q-2.05 39.6 -8.35 79.6q-9.3 58.3 -12.65 117.6q-1.7 29.9 -8.9 58.85q-4.2 17.1 2.2 28.65q7.5 -24.25 9.95 -50.2q5.65 -58.95 13.85 -117.65q16.55 56.55 30.4 113.95q13.7 56.65 21.95 114.35q-3 14.95 6.5 24.75q0.75 -5.05 1.1 -10.1q3.65 -12.4 3.9 -25.9q1.1 -59.45 5.4 -118.45q4.4 -59.7 3.6 -118.5q-3.8 2.9 -3.85 9.25<g id="1439" transform="matrix(1, 0, 0, 1, -74.35, 0)">
<path style="fill:#000000;fill-opacity:1" d="M404.75,139.7L404.45 140.5Q397.9 122.8 378.95 123.5Q355.8 150.9 356.3 189Q356.5 203.55 355.85 218.25L354.85 240.05Q376.5 238.2 396.95 232.25L402.4 232.8Q402.85 232.85 403.2 233.25Q405.6 237.5 404.9 242.25Q404.5 245.2 402.7 247.5Q378.8 253.2 354.1 254.15Q351.85 295.5 348.5 336.7Q346.45 362 355.85 383.25Q358.6 389.4 365.5 385.6Q389.3 372.5 401.95 349.2Q406.7 350.35 406.55 356.45Q406.5 361.5 404.7 366.2Q388.05 389.2 362.15 401Q356.8 403.45 353.25 398.7Q341.15 382.55 342.05 361.2L347 243.45Q349.2 191.3 360.3 140.9Q363.5 126.4 372.7 114.5L376.6 112.35Q379.2 110.6 381.95 110Q406.9 114.55 404.75 139.7M334.2,115.75Q335.6 174.5 333.3 234.3Q330.95 293.95 324.55 352.8Q322.3 373.45 319.4 393.1Q319.35 393.6 318.5 393.95Q317.6 396.25 315.95 398.2Q308.9 370.9 305.15 340.95Q301.4 311.5 296.4 282.15Q286.45 224.05 274.5 166.3L267.85 134.5Q268.55 180.7 266.4 227.8Q263.7 287.35 257.95 346.3Q255.7 369.65 251.7 391.95Q244.95 380.15 247.35 362.75Q255.6 303.6 258.1 243.7L263 125.9Q263.4 116.2 267.2 109.25L267.25 111.05L268.45 109.75Q283.6 166.75 293.1 225.15Q302.55 283.5 312.6 341.7L315.95 361.75Q316 348.3 317.85 334.55Q325.85 275.9 326.9 216.25Q327.85 165.05 333.85 115.8L334.2 115.75M457.45,136Q455.9 136.05 454.25 134.45Q452.2 132.5 449.7 131Q423.3 136.65 424.7 165.25Q427.6 224.35 448 280.45Q460.85 315.75 461.4 352.7Q461.85 384.6 439.65 407.2Q435.55 411.35 430.2 408.95Q418.25 403.65 407.45 396.2Q405.65 393.1 405.55 389.5Q405.35 384.9 407.7 381.2Q422.55 392.5 440.25 390.25Q442 390 443.3 388Q466.55 351.6 451.1 310.1Q430.25 254.25 419.85 196.25Q412.9 157.55 433.9 126.45Q437.6 120.9 443.95 119Q461.2 119.7 457.65 135.25L457.45 136M229.2,109Q231.25 167.4 225.95 226.85Q220.65 286 216.65 345.25Q215.1 368.35 210.7 390.2Q204.4 382.15 206.05 368.5L208.45 346.2Q214.05 286.95 218.65 227.7Q223.15 168.8 228 110.05Q228.1 109 229.2 109M187.45,115.5Q188.25 174.3 183.85 234Q179.55 293 178.45 352.45Q178.2 365.95 174.55 378.35Q174.2 383.4 173.45 388.45Q163.95 378.65 166.95 363.7Q158.7 306 145 249.35Q131.15 191.95 114.6 135.4L113.45 131.1L113 134.95Q104.8 193.65 99.15 252.6L90.7 341Q88.25 366.95 80.75 391.2Q74.35 379.65 78.55 362.55Q85.75 333.6 87.45 303.7Q90.8 244.4 100.1 186.1Q106.4 146.1 108.45 106.5Q108.45 106.25 108.95 106L110.6 109.6L110.6 106Q110.6 105.55 111.2 105.75Q131.2 161.4 143.85 219.3L159.5 292.1Q164.6 316.2 170.7 340.15L171.15 341.85L173.3 315.25Q177 256.1 181 196.85Q183.45 160.95 183.6 124.75Q183.65 118.4 187.45 115.5" />
</g>
</svg>
