<?xml version="1.0" encoding="utf-8"?>
<svg version="1.1" id="Layer_1"
xmlns="http://www.w3.org/2000/svg"
xmlns:xlink="http://www.w3.org/1999/xlink"


xml:space="preserve">
q-5.75 20.5 -23.25 32.05q-13.05 8.55 -28.75 9.75q15.2 3.3 28.9 -3.45q9.95 -5 15.8 -14.4q8.85 -14.15 12.85 -30.2q8.9 -35.5 -4.35 -69.4q-10.55 -26.85 -37.75 -36.7q-9.6 -3.5 -15.45 0.9q24.65 4.1 40.45 24.1q13.65 17.35 15.65 39.3q1.65 18.4 -3.35 36.4q-24.3 -20.4 -45.3 7.9q-13.65 18.45 -16.75 41.3q-3 22.3 -3.55 44.75q-0.55 20.55 12.95 36.2q4 4.6 8.9 8.6q38.9 2.1 45.5 -32.75q-23.75 31.95 -52.85 11.5q-4.5 -3.25 -5.6 -9.3q-4.35 -23.25 -2.85 -41.55q25.3 6.75 52.8 2.1q2.85 -4.05 0.45 -8.4q0.1 -45.9 43.75 -59.5q7.45 -2.2 14.85 0.7q-0.15 41.45 -2 82.45q-1.4 30.65 0.8 59.05q3.7 -15.55 3.95 -32.75q0.95 -60.4 -0.7 -118.5q-2 3.9 -2.05 9.75q-17.95 -0.4 -34.75 -6q0.05 4.1 1.3 8.15q7.35 -37.55 3.85 -76.3q-16.15 -6.1 -35.55 -0.45q17.15 8.8 36.55 6.8q-2.5 55.5 -4.05 111.45q-18.25 -1 -33.95 5.95q1.65 -54.2 0.45 -108.15q2.55 -6.1 0.3 -11.95q-7 19.45 -5.95 42.25q1.85 40.35 0.7 80.6q-0.45 2.05 0.15 4.05q-0.6 17.25 -1.7 34.5q-3.9 59.55 -1.45 118.45q7.35 -5.65 7 -18q-0.95 -2.45 -2.75 0.75q-0.45 -5.35 -0.35 -12.25q0.9 -59.8 3.05 -119.25q20.5 -2.6 41.45 -2.8q-1.55 58.6 -2.7 117.75q-0.3 17 5.15 29q3 -16.7 2.75 -34.5q-0.95 -59.85 0.6 -119.25q1.55 -59.9 1.15 -118.45q-2.45 1.3 -2.6 4.7q-2.95 117.6 -4.6 235.1q-0.15 11.1 1.2 22.05q9.2 -121.1 5.15 -243.25q0.25 -1.85 -0.75 -3.4q-22.15 -33.05 -46.8 4.2q-13.85 20.95 -17.95 46.15q-8.75 53.35 -5 107.7q1.85 26.5 2.95 53q0.35 9.05 1.75 18.05q1.1 4.05 2.9 7.9q0.95 2.1 2.5 4q10.15 12.25 26.2 13.15q23.15 -14.2 21.75 -42q-10.2 34.3 -37.7 20.65q-3.6 -1.75 -5 -6.65q-16.75 -58.75 -14.45 -120.55q1 -26 5.15 -51.5q2.75 -16.85 8.1 -32.95q2.85 -8.7 8.45 -15.05q2.35 -2.75 5.45 -4.8q11.5 -7.8 23.7 -3.75q-6 33.7 -6.9 70.5q-1.4 59.3 -0.25 119.25q1.15 59.55 2.95 119.2q1.8 59.7 -3.35 119.1q-1.4 16.75 3.8 29.4q5.85 -49.4 5.45 -100.5q-0.45 -59.95 -2.5 -119.25q-2 -59.55 -0.85 -119.2q1.15 -59.9 1.65 -118.5q-7.9 47 -6.7 97.5q1.4 59.7 1.4 119.25q0 59.8 0.4 119.2q0.25 29.9 -2.4 59.9q-2.7 30.75 2.05 59.1q5.7 -47.8 4.95 -98q-0.9 -59.45 -1.05 -119.2q-0.4 -60.35 1.85 -118.5q-14.15 27.15 -23.85 56.95q-10.95 33.7 -27.3 65.5q-8.05 15.65 -15.35 31.6q4.7 -74.45 6.3 -148.6q0.1 -5.2 -1.9 -10.4q-8.1 124.25 -10.95 248.55q5.8 -25.75 4.4 -52.4q-2.95 -55.65 26.25 -104.05q6.35 69.55 20.85 138.75q2.25 10.85 7.15 21q-6.1 -68.95 -22.2 -137.85q-3.25 -14 -5.9 -28.1q-1.15 11.5 -1.05 23.95q0.55 59.65 -2.45 119.25q-3 59.55 -3.5 119.25q-0.55 59.9 -2.25 119.2q-0.6 22.7 -3.9 44.75q-2.45 16.3 0.65 30.25q0.9 -0.35 0.95 -0.85q8.15 -53.65 7.9 -108.65q-0.3 -59.85 1.6 -119.2q1.3 -47.45 0.45 -94.75q2.75 20.2 7 41.35q11.4 57.2 23.95 114.55q12.6 57.55 23.35 115.4q5.45 29.15 12.6 58.15q14.2 57.5 24.2 114.25q2 -1.05 1.8 -3.45q-4.2 -58.85 -19.8 -115.6q-7.9 -28.75 -13.3 -57.95q-10.65 -57.9 -23.65 -115.5q-12.95 -57.7 -24.2 -115.45q-5 -25.8 -12.3 -50.1q-0.5 3.15 -0.85 6.35q-0.4 48.55 0.65 96.9q0.05 3 1.05 5.95q4.85 -58.1 -0.55 -115.9<g id="1437" transform="matrix(1, 0, 0, 1, -29.4, 0)">
<path style="fill:#000000;fill-opacity:1" d="M496.8,139.8Q494.8 117.85 481.15 100.5Q465.35 80.5 440.7 76.4L440.95 73Q446.8 68.6 456.4 72.1Q483.6 81.95 494.15 108.8Q507.4 142.7 498.5 178.2Q494.5 194.25 485.65 208.4Q479.8 217.8 469.85 222.8Q456.15 229.55 440.95 226.25L441.45 218Q457.15 216.8 470.2 208.25Q487.7 196.7 493.45 176.2Q498.45 158.2 496.8 139.8M410.45,83.75Q403.05 80.85 395.6 83.05Q351.95 96.65 351.85 142.55L404.2 139.25L404.9 140.35Q407.3 144.7 404.45 148.75Q376.95 153.4 351.65 146.65Q350.15 164.95 354.5 188.2Q355.6 194.25 360.1 197.5Q389.2 217.95 412.95 186Q406.35 220.85 367.45 218.75Q362.55 214.75 358.55 210.15Q345.05 194.5 345.6 173.95Q346.15 151.5 349.15 129.2Q352.25 106.35 365.9 87.9Q386.9 59.6 411.2 80L410.45 83.75M440.2,71.75Q441.85 129.85 440.9 190.25Q440.65 207.45 436.95 223Q434.75 194.6 436.15 163.95Q438 122.95 438.15 81.5Q438.2 75.65 440.2 71.75M334.7,76.25Q315.3 78.25 298.15 69.45L297.8 136.05Q317.2 130.4 333.35 136.5L332.7 140.75L297.8 141.45Q301.3 180.2 293.95 217.75L292.35 212.95Q291.1 208.9 291.05 204.8L291.15 198.75L297.25 63.55L297.45 63.5Q314.25 69.1 332.2 69.5L334.7 76.25M431.2,241.5Q431.6 300.05 430.05 359.95Q428.5 419.35 429.45 479.2Q429.7 497 426.7 513.7Q421.25 501.7 421.55 484.7Q422.7 425.55 424.25 366.95Q403.3 367.15 382.8 369.75L382.65 373.2Q380.5 432.65 379.6 492.45Q379.5 499.35 379.95 504.7Q381.75 501.5 382.7 503.95Q383.05 516.3 375.7 521.95Q373.25 463.05 377.15 403.5Q378.25 386.25 378.85 369Q378.25 367 378.7 364.95L378.95 364.85Q380.1 324.6 378.25 284.25Q377.2 261.45 384.2 242Q386.45 247.85 383.9 253.95L383.45 254.75Q384.65 308.7 383 362.9Q398.7 355.95 416.95 356.95L424.15 357.55L424.55 357.65Q426.1 301.7 428.6 246.2Q428.75 242.8 431.2 241.5M470.95,236.75L513.6 239.2L514.4 240.25Q515.4 241.8 515.15 243.65L514.6 245.6L513.45 248.25L487.35 246.6L488.1 274.7Q492.15 396.85 482.95 517.95L481 503.7Q479.65 492.75 479.8 481.65Q481.45 364.15 484.4 246.55L444.7 248L445.2 242.75L470.95 236.75M346.45,246Q334.25 241.95 322.75 249.75Q319.65 251.8 317.3 254.55L311.75 261.15Q306.15 267.5 303.3 276.2Q297.95 292.3 295.2 309.15Q291.05 334.65 290.05 360.65Q287.75 422.45 304.5 481.2Q305.9 486.1 309.5 487.85Q337 501.5 347.2 467.2Q348.6 495 325.45 509.2Q309.4 508.3 299.25 496.05Q297.7 494.15 296.75 492.05Q294.95 488.2 293.85 484.15L293.05 480.55Q291.65 471.55 291.3 462.5Q290.2 436 288.35 409.5Q284.6 355.15 293.35 301.8Q297.45 276.6 311.3 255.65Q335.95 218.4 358.1 251.45L353.45 251L348.7 246.25L346.45 246M271.55,181.75Q270.4 241.4 272.4 300.95Q274.45 360.25 274.9 420.2Q275.3 471.3 269.45 520.7Q264.25 508.05 265.65 491.3Q270.8 431.9 269 372.2Q267.2 312.55 266.05 253Q264.9 193.05 266.3 133.75Q267.2 96.95 273.2 63.25Q272.7 121.85 271.55 181.75M233.35,183L233.85 302.25Q234 362 234.9 421.45Q235.65 471.65 229.95 519.45Q225.2 491.1 227.9 460.35Q230.55 430.35 230.3 400.45Q229.9 341.05 229.9 281.25Q229.9 221.7 228.5 162Q227.3 111.5 235.2 64.5Q232.95 122.65 233.35 183M96.15,87.45L61.65 169.05Q64.3 183.15 67.55 197.15Q83.65 266.05 89.75 335L88.25 332Q83.35 321.85 81.1 311Q66.6 241.8 60.25 172.25Q31.05 220.65 34 276.3Q35.4 302.95 29.6 328.7L29.4 328.7L30.05 299.55Q32.9 175.25 41 51Q43 56.2 42.9 61.4Q41.3 135.55 36.6 210L37.7 207.3Q45 191.35 53.05 175.7Q69.4 143.9 80.35 110.2Q90.05 80.4 104.2 53.25L96.15 87.45M132.2,57.75L133.35 61.35Q133.7 58.15 134.2 55L134.5 65.15Q141.8 89.45 146.8 115.25Q158.05 173 171 230.7Q184 288.3 194.65 346.2Q200.05 375.4 207.95 404.15Q223.55 460.9 227.75 519.75Q227.95 522.15 225.95 523.2Q215.95 466.45 201.75 408.95Q194.6 379.95 189.15 350.8Q178.4 292.95 165.8 235.4Q153.25 178.05 141.85 120.85Q137.6 99.7 134.85 79.5Q135.7 126.8 134.4 174.25L130.9 292.75Q129 352.1 129.3 411.95Q129.55 466.95 121.4 520.6Q121.35 521.1 120.45 521.45Q117.35 507.5 119.8 491.2Q123.1 469.15 123.7 446.45Q125.4 387.15 125.95 327.25Q126.45 267.55 129.45 208Q132.45 148.4 131.9 88.75Q131.8 76.3 132.95 64.8L132.2 57.75M323.05,405L350.2 398.7Q355.6 456.5 350.75 514.6L349.65 512.05Q348.65 509.1 348.6 506.1Q347.55 457.75 347.95 409.2L323.45 411.7L323.05 405" />
</g>
</svg>
