<?xml version="1.0" encoding="utf-8"?>
<svg version="1.1" id="Layer_1"
xmlns="http://www.w3.org/2000/svg"
xmlns:xlink="http://www.w3.org/1999/xlink"


xml:space="preserve">
q-4.3 16.8 -4.25 36.6q0.15 59.85 -5.6 119.15q-1.65 17 4.55 29.3q5.5 -35.4 7.25 -72.65q20.35 -0.4 40.75 0.85q4.7 -8.9 -3.05 -13.6q-20.35 -3.3 -38.05 2.8q0.55 -35.65 -1 -70.95q36.3 6.05 71.75 8.25q0.9 -1.4 1.2 -3.05q-0.3 -1.65 -1.2 -3q-0.35 -0.4 -0.8 -0.45q-28.9 -4.2 -57.95 -6.55q-5.8 -0.5 -11.55 0.25q-1.3 0.15 -2.45 0.75q-0.65 0.25 -1.2 0.7q-1.4 59.25 -8.85 117.85q-1.5 11.6 -3.5 23.05q-4.35 -20.75 -11.1 -41.25q-18.45 -55.85 -33.45 -112.4q-0.65 -0.2 -0.7 0.3q-0.75 4.75 -0.75 9.55q-0.5 0.1 -0.55 0.25q-3.05 53.85 -2.25 108.7q0.45 30.15 -2.9 59.8q-1.5 13.45 4.2 21.7q5.75 -34.85 5.45 -71.25q-0.45 -51.8 -3 -102.5q0.5 5 1.85 10.1q14.95 56.65 32.3 112.95q4.4 14.25 6.3 28.7q1 7.5 4 12.7q1 4.25 2.85 8.05q0.9 -1.35 0.7 -2.9q3.15 -12.8 3.7 -26.4q0.75 -18.35 3.55 -36.5q9.1 -59.15 4.7 -118q-3.85 5.3 -4.05 13.5q-38.2 5.35 -49.45 41.45q-17.85 57.55 -5.15 116.6q2.6 12.05 11.9 19.6q23.2 18.9 46.15 1.25q19 -14.65 27.35 -37.05q21.7 -58.1 -0.25 -116.15q-6.2 -16.4 -19.55 -24.95q-0.85 0.5 -1.8 0.8q-3.3 -1.75 -7.1 -1.35q14.1 17.45 20.4 38.9q5.95 20.1 4.8 41q-1.2 22.05 -10 42.3q-8.35 19.4 -25.8 30.1q-19.55 11.95 -35.75 -3.2q-15.65 -14.65 -16.45 -38.05q-0.7 -21.65 0.8 -43.4q1.3 -19.3 10.2 -36.25q10.8 -20.5 31.4 -28.75q9.15 -3.65 18.65 -3.3<g id="1290" transform="matrix(1, 0, 0, 1, -139.05, 0)">
<path style="fill:#000000;fill-opacity:1" d="M343.6,186.2L343.55 184L343.85 182.5L344.2 181.75Q344.75 181.3 345.4 181.05L345.45 180.75L345.45 181Q346.6 180.4 347.9 180.25Q353.65 179.5 359.45 180Q388.5 182.35 417.4 186.55Q417.85 186.6 418.2 187Q419.1 188.35 419.4 190L419.7 193L419.4 195.95Q419.1 197.6 418.2 199Q382.75 196.8 346.45 190.75L345.9 190.1Q347.45 225.4 346.9 261.05Q364.6 254.95 384.95 258.25Q392.7 262.95 388 271.85L387.45 272.45Q367.05 271.2 346.7 271.6L345.7 299.3Q343.95 336.55 338.45 371.95Q332.25 359.65 333.9 342.65Q339.65 283.35 339.5 223.5Q339.45 203.7 343.75 186.9L343.6 186.2M209.2,181Q213.6 239.85 204.5 299Q201.7 317.15 200.95 335.5Q200.4 349.1 197.25 361.9L197.9 367.05Q198.1 368.6 197.2 369.95L195.45 368.45L194.5 371.45Q192.65 367.65 191.65 363.4Q188.65 358.2 187.65 350.7Q185.75 336.25 181.35 322Q164 265.7 149.05 209.05Q147.7 203.95 147.2 198.95Q149.75 249.65 150.2 301.45Q150.5 337.85 144.75 372.7Q139.05 364.45 140.55 351Q143.9 321.35 143.45 291.2Q142.65 236.35 145.7 182.5Q145.75 182.35 146.25 182.25L146.8 191.6Q146.8 186.8 147.55 182.05Q147.6 181.55 148.25 181.75Q163.25 238.3 181.7 294.15Q188.45 314.65 192.8 335.4Q194.8 323.95 196.3 312.35Q203.75 253.75 205.15 194.5Q205.35 186.3 209.2 181M294.05,181.85L294.95 182.25L296.15 182.05Q297.1 181.75 297.95 181.25Q311.3 189.8 317.5 206.2Q339.45 264.25 317.75 322.35Q309.4 344.75 290.4 359.4Q267.45 377.05 244.25 358.15Q234.95 350.6 232.35 338.55Q219.65 279.5 237.5 221.95Q248.75 185.85 286.95 180.5Q290.75 180.1 294.05 181.85M293.45,191.85Q283.95 191.5 274.8 195.15Q254.2 203.4 243.4 223.9Q234.5 240.85 233.2 260.15Q231.7 281.9 232.4 303.55Q233.2 326.95 248.85 341.6Q265.05 356.75 284.6 344.8Q302.05 334.1 310.4 314.7Q319.2 294.45 320.4 272.4Q321.55 251.5 315.6 231.4Q309.3 209.95 295.2 192.5L293.45 191.85" />
</g>
</svg>
