<?xml version="1.0" encoding="utf-8"?>
<svg version="1.1" id="Layer_1"
xmlns="http://www.w3.org/2000/svg"
xmlns:xlink="http://www.w3.org/1999/xlink"


xml:space="preserve">
q-3.4 21.75 -4.1 46q-1.8 59.35 -6.15 118.4q-1 13.55 4.75 21.55q25.75 17.75 54.5 3.4q8.65 -4.3 12.25 -12.85q11.9 -28.5 5.6 -59.6q-4.95 -24.2 -24.7 -32.6q13.45 -12.95 11.25 -36.6q-3.4 -36.4 -40.65 -42.3q-7.8 0 -13.6 4.4q11.25 0.9 21.5 5q34.1 13.65 22.95 46.15q-15.8 23.6 -45.4 19.05q0.45 -35.45 -1 -70.7q24.05 12.05 29.85 39.3q3.2 15.25 -4.35 28.05q-14.6 24.9 -44.9 22.45q-10 -1 -19.3 -4.95q15.8 0.45 29.95 -6.55q-24.7 48.1 -25.25 102.75q-0.25 29.45 8.8 56.65q2.45 7.3 9.6 10.65q23.45 10.95 42.75 -9q28.85 -29.8 30.5 -73q1.95 -52.2 -20.05 -98.25q-0.6 0.2 -1.15 0.5q-10.15 -5.3 -22.05 -4.4q-6.55 1.15 -12.2 5.3q-4.9 3.6 -7.65 8.9q3.6 0.75 7 2.4q20.85 44.9 15.7 93.7q-2.45 23.45 -16.05 42.7q-16.85 23.85 -44.9 22.55q-2.95 -2.5 -4.65 -5.7q-16.45 -31.25 -11.6 -68.4q1.6 -12.45 2.6 -24.8q3.15 -37.2 29.65 -61.3q0.9 -0.4 1.8 -0.65q5.85 -1.65 11.95 -1.6q2.3 22.8 9.75 45.95q18.05 55.9 29.7 113.45q3.15 15.65 10.1 27.4q3.15 -3.4 3.55 -8.25q5.5 -59.15 2.85 -117.9q-3.3 7.15 -3.65 16.65q-2.25 59.05 -6.85 117.85q-1 13.2 -3.85 25.8q-5.2 -24.2 -11.35 -48.1q-14.65 -56.95 -35.25 -112.2q-1.45 -0.35 -1.35 0.65q-4.1 59.05 -6.7 118.55q-1.3 30.9 3.05 59q4.25 -17.45 3.3 -37.25q-0.85 -18.85 0.5 -37.4q4.45 -59.45 4.45 -117.8q-4 6.1 -4.6 14.9q-14.75 18 -19 42.1q-1.4 8.1 -0.25 16.1<g id="1286" transform="matrix(1, 0, 0, 1, -134.65, 0)">
<path style="fill:#000000;fill-opacity:1" d="M340.35,186Q346.15 181.6 353.95 181.6L353.95 181.5Q391.2 187.4 394.6 223.8Q396.8 247.45 383.35 260.4Q403.1 268.8 408.05 293Q414.35 324.1 402.45 352.6Q398.85 361.15 390.2 365.45Q361.45 379.8 335.7 362.05L335.5 361.9L334.7 368.45Q328.95 360.45 329.95 346.9Q334.3 287.85 336.1 228.5Q336.8 204.25 340.2 182.5L340.35 186M340.55,190.6Q342 225.85 341.55 261.3Q371.15 265.85 386.95 242.25Q398.1 209.75 364 196.1Q353.75 192 342.5 191.1L340.55 190.6M372.4,267.8Q358.25 274.8 342.45 274.35L336.75 351.15Q346.05 355.1 356.05 356.1Q386.35 358.55 400.95 333.65Q408.5 320.85 405.3 305.6Q399.5 278.35 375.45 266.3L372.4 267.8M261.75,184.55Q267.4 180.4 273.95 179.25Q285.85 178.35 296 183.65L297.2 184.25L298.15 183.9Q298.7 183.6 299.3 183.4L300.45 183.25Q322.45 229.3 320.5 281.5Q318.85 324.7 290 354.5Q270.7 374.45 247.25 363.5Q240.1 360.15 237.65 352.85Q228.6 325.65 228.85 296.2Q229.4 241.55 254.1 193.45Q256.85 188.15 261.75 184.55M269,192.35Q268.1 192.6 267.2 193Q240.7 217.1 237.55 254.3Q236.55 266.65 234.95 279.1Q230.1 316.25 246.55 347.5Q248.25 350.7 251.2 353.2Q279.25 354.5 296.1 330.65Q309.7 311.4 312.15 287.95Q317.3 239.15 296.45 194.25Q293.05 192.6 289.45 191.85L280.95 190.75Q274.85 190.7 269 192.35M149.25,181.5Q169.85 236.75 184.5 293.7Q190.65 317.6 195.85 341.8Q198.7 329.2 199.7 316Q204.3 257.2 206.55 198.15Q206.9 188.65 210.2 181.5Q212.85 240.25 207.35 299.4L201.9 359.3Q201.5 364.15 198.35 367.55L197.45 368.95Q190.5 357.2 187.35 341.55Q175.7 284 157.65 228.1Q150.2 204.95 147.9 182.15Q147.8 181.15 149.25 181.5M147.25,180.5Q147.25 238.85 142.8 298.3Q141.45 316.85 142.3 335.7Q143.25 355.5 139 372.95Q134.65 344.85 135.95 313.95Q138.55 254.45 142.65 195.4Q143.25 186.6 147.25 180.5M265.95,269.6L255.95 294.2Q254.8 286.2 256.2 278.1Q260.45 254 275.2 236L282.2 261.05L284.2 263.5L283.45 266.45L286.35 297.5L277.3 268.65L265.95 269.6M275.8,259.25L274.65 243.65L269.6 259.3L275.8 259.25" />
</g>
</svg>
