<?xml version="1.0" encoding="utf-8"?>
<svg version="1.1" id="Layer_1"
xmlns="http://www.w3.org/2000/svg"
xmlns:xlink="http://www.w3.org/1999/xlink"


xml:space="preserve">
q1.2 3.2 5.15 12.1q3.8 8.65 5.9 14.4q6.9 19.2 6.9 38.95q0 9.5 -1.15 16.5q-1.05 6.45 -3.25 11.75q-6.05 14.6 -12 21.35q-4 4.5 -17.8 12.6q-13.15 7.65 -22.75 11.5q3.55 -10.7 7.6 -48.5q3.55 -32.75 3.7 -44.3q0.05 -3.35 0.9 -14.7q0.7 -11.4 0.2 -20.85q-0.4 -7.8 0.9 -22.25q9.95 4.05 16.1 11.45q5.35 6.45 8.45 16.25q-2.75 -6.05 -7.35 -9.75q-7.85 -6.3 -11.05 -8.25q-3.05 -1.85 -5.5 -1.85q-2.2 0 -2.2 2.9q0 54.6 -5.7 105.5q-0.3 2.4 -1.4 3.3q-0.95 0.8 -0.95 2q0 1.95 0.55 2.7q0.7 0.9 2.7 0.9q4.55 0 14.5 -4.95q6.45 -3.2 10.7 -6q14.85 -9.45 21.95 -19.7q9.1 -13.05 12 -27q1.5 -7.3 1.5 -19.5q0 -24.6 -4.65 -40.25q-1.95 -6.55 -5.6 -15.05q0 -1.8 -0.85 -3.05q-1.65 -2.5 -7.6 -2.5q-6.45 0 -10.95 8.05q-2.3 4.1 -5.35 13.85q-0.8 2.6 -0.75 5.4q0.1 2.75 -0.85 4.7q-1.15 2.4 -0.9 2.8q0.55 0.9 0.55 1.5q0 5.6 -0.85 13.65q0 7.75 5.4 10.9q3.15 1.85 7.5 1.85q5.95 0 12.45 -4.7q5.8 -4.2 5.8 -6.55q0 -0.5 -1.6 -1.95q-3.7 4.15 -8.65 6.35q-4.75 2.15 -10 2.15q-3.8 0 -6.3 -2.7q-2.8 -3 -2.8 -8.35q9.75 0 12.35 -0.95q1.4 -0.5 1.4 -2.3q-0.2 -2.45 -1.4 -2.45q4.35 -29.35 13.6 -34.2q2.9 -1.55 6.4 -0.6q-0.95 -1.75 -5.4 -4.45q-4.75 -2.9 -7.5 -2.9q-12 0 -18.5 15.2q-4.6 10.7 -6 27.45q-3.35 37.75 -3.35 60.8q0 15.8 1 21.85q1.7 10.45 7.85 17.2q9.3 0 17.8 -17.35q10.55 -21.5 17.25 -65.7q2.55 13.85 7.85 35.65q3.75 15.4 3.75 20.05q0 9.25 -6.05 14.2q-6.25 5.15 -18.55 5.15q-0.35 0.75 -0.35 2.4q0 2.95 6.45 2.95q13.85 0 19.6 -7.9q4.45 -6.1 4.45 -17.7q0 -2.55 -1.95 -12.95q-2.2 -11.95 -4.8 -21.4q-5.4 -19.6 -5.4 -22.5q0 -3.9 2.15 -6.05q1.5 -1.5 2.75 -1.5q3.95 0 4.7 3q0.4 1.5 -0.05 3.1q0.65 -0.4 0.65 -2.15q0 -5.35 -2.45 -7.6q-1.6 -1.5 -4 -1.5q-1.95 1.2 -2.8 2.35q1.2 -4 2.05 -15.6q0.65 -9.15 0.65 -14.4q0 -6.85 -0.75 -12.25q-0.65 -4.95 -3.15 -17.1q-3.15 -14.85 -5.55 -19.25q5.7 15.25 5.7 35.25q0 14.35 -2.6 32.6q-2.7 19.1 -7.35 36.15q-11.35 41.4 -26.8 47.25q-4.05 -4.65 -5.65 -15q-1.1 -7.1 -1.1 -17.65q0 -35.15 2.7 -55q0.85 -7.4 0.85 -16.55q0 -9.35 0.55 -15.15q0.7 -7.75 2.45 -11.6q2 -4.5 3.1 -6.55q1.95 -3.6 4.15 -6.05q9.7 -0.65 16.05 16.2q0.05 1.35 -0.55 1.35q-0.5 0 -0.25 -0.4q0.2 -0.45 -0.3 -0.45q-9.75 136.4 -9.75 149.3q0.3 5.75 1.25 11.75q1.9 -13.25 2.75 -35q2.1 -29.3 2.9 -69.35q0.8 2.85 5.4 26.05q2.8 15.05 3.6 22.45q1.25 11.95 5.75 37.5q5.3 30.2 10.35 49.75q0.45 -6.5 0.15 -8.7q2.2 -34.55 2.2 -41.95q0 -2.05 -0.4 -3.5q-1.8 16.95 -1.7 36.35q-1.25 31.1 -1.25 44.4q-3.2 -21.25 -10.65 -62.05q-11.5 -63.25 -21.3 -103.25q1.05 0 2.05 1.55q0 -5.6 -4.35 -7.8q-4.6 -2.35 -8.8 2.45q-0.85 1.4 -1.7 3.85q-2.6 7.85 -3.8 24.05q0 1.9 -2 17q-2 15.1 -2 25.3q0 6.3 2.1 7.7q1.1 0.75 6.25 0.75q2.1 0 5.7 -4.75q3.75 -4.9 3.75 -8.35q-1.3 1.4 -1.45 3.3q-0.65 1.2 -3.15 2.8q-3.55 2.35 -7.4 2.35q-1.5 0 -1.95 -1.65q-0.15 -0.55 -0.15 -2.1q0 -6.05 1.9 -23.95q5.25 -0.1 8.65 -1.05q4 -1.15 4 -3.15q0 -1.85 -3.7 -1.85q0.05 -19.8 3.8 -29.65q3.3 -8.55 8.9 -8.55q-0.35 0.45 -0.35 1.1<g id="1294" transform="matrix(1, 0, 0, 1, -6.3, 0)">
<path style="fill:#000000;fill-opacity:1" d="M172.4,70.9Q166.25 63.5 156.3 59.45Q155 73.9 155.4 81.7Q155.9 91.15 155.2 102.55L154.05 118.8Q153.2 130.15 153.15 133.5Q153 145.05 149.45 177.8Q145.4 215.6 141.85 226.3Q151.45 222.45 164.6 214.8Q178.4 206.7 182.4 202.2Q188.35 195.45 194.4 180.85Q196.6 175.55 197.65 169.1Q198.8 162.1 198.8 152.6Q198.8 132.85 191.9 113.65Q189.8 107.9 186 99.25Q182.05 90.35 180.85 87.15Q177.75 77.35 172.4 70.9M183.1,84.45L190.8 101.55Q194.45 110.05 196.4 116.6Q201.05 132.25 201.05 156.85Q201.05 169.05 199.55 176.35Q196.65 190.3 187.55 203.35Q180.45 213.6 165.6 223.05Q161.35 225.85 154.9 229.05Q144.95 234 140.4 234Q138.4 234 137.7 233.1Q137.15 232.35 137.15 230.4Q137.15 229.2 138.1 228.4Q139.2 227.5 139.5 225.1L141.9 208.1L148.15 163.3Q153.85 112.4 153.85 57.8L152.4 56Q152.4 53.1 154.6 53.1Q157.05 53.1 160.1 54.95Q163.3 56.9 171.15 63.2Q175.75 66.9 178.5 72.95L183.1 84.45M229.1,61.75L225.35 60.4Q221.85 59.45 218.95 61Q209.7 65.85 205.35 95.2L224.9 94.05Q226.1 94.05 226.3 96.5Q226.3 98.3 224.9 98.8Q222.3 99.75 212.55 99.75L204.05 99.6L203.8 119Q203.8 124.35 206.6 127.35Q209.1 130.05 212.9 130.05Q218.15 130.05 222.9 127.9Q227.85 125.7 231.55 121.55Q233.15 123 233.15 123.5Q233.15 125.85 227.35 130.05Q220.85 134.75 214.9 134.75Q210.55 134.75 207.4 132.9Q202 129.75 202 122L202.85 113.2Q203.7 105.15 203.7 99.55Q203.7 98.95 203.15 98.05Q202.9 97.65 204.05 95.25Q205 93.3 204.9 90.55L204.6 87.3L204.4 83.45Q204.35 80.65 205.15 78.05Q208.2 68.3 210.5 64.2Q215 56.15 221.45 56.15Q227.4 56.15 229.05 58.65Q229.9 59.9 229.9 61.7L229.1 61.75M105.75,78.8Q108.25 90.95 108.9 95.9Q109.65 101.3 109.65 108.15Q109.65 113.4 109 122.55Q108.15 134.15 106.95 138.15Q107.8 137 109.75 135.8L111.6 134.8Q114 134.8 115.6 136.3Q118.05 138.55 118.05 143.9Q118.05 145.65 117.4 146.05L116.7 145.75L116.45 145.55L116.25 145.35L116.2 144.65Q116.65 143.05 116.25 141.55Q115.5 138.55 111.55 138.55Q110.3 138.55 108.8 140.05Q106.65 142.2 106.65 146.1Q106.65 149 112.05 168.6Q114.65 178.05 116.85 190Q118.8 200.4 118.8 202.95Q118.8 214.55 114.35 220.65Q108.6 228.55 94.75 228.55Q88.3 228.55 88.3 225.6Q88.3 223.95 88.65 223.2L89.4 222.3L90.8 222.85L92.45 223.25Q104.75 223.25 111 218.1Q117.05 213.15 117.05 203.9Q117.05 199.25 113.3 183.85Q108 162.05 105.45 148.2Q98.75 192.4 88.2 213.9Q79.7 231.25 70.4 231.25L64.65 231.05Q58.5 224.3 56.8 213.85Q55.8 207.8 55.8 192Q55.8 168.95 59.15 131.2L62.8 94.85Q64.2 78.1 68.8 67.4Q75.3 52.2 87.3 52.2Q90.05 52.2 94.8 55.1Q99.25 57.8 100.2 59.55Q102.6 63.95 105.75 78.8M85.4,57.05L79.05 62.1L73.65 67.6Q71.45 70.05 69.5 73.65Q68.4 75.7 66.4 80.2Q64.65 84.05 63.95 91.8Q63.4 97.6 63.4 106.95Q63.4 116.1 62.55 123.5L60.75 136.85Q58.05 156.7 58.05 191.85Q58.05 202.4 59.15 209.5Q60.75 219.85 64.8 224.5L70.4 224.5Q85.85 218.65 97.2 177.25Q101.85 160.2 104.55 141.1Q107.15 122.85 107.15 108.5Q107.15 88.5 101.45 73.25Q95.1 56.4 85.4 57.05M17.05,50.3Q26.85 90.3 38.35 153.55Q45.8 194.35 49 215.6L49 213.75L48.8 189.15Q48.8 175.85 50.05 144.75L51.25 112.15Q51.15 92.75 52.95 75.8L56.05 52.55L56.4 53.4Q56.8 54.85 56.8 56.9Q56.8 64.3 54.6 98.85L51.05 153.5L51.05 217.55Q51.35 219.75 50.9 226.25L50.9 226.55L50.4 226.55L50 225.95L49.65 226.95L48.9 227.5Q43.85 207.95 38.55 177.75Q34.05 152.2 32.8 140.25Q32 132.85 29.2 117.8L22.45 83.05Q17.85 59.85 17.05 57L16.9 57Q16.1 97.05 14 126.35L11.5 158.3L10.5 189.3Q9.65 211.05 7.75 224.3Q6.8 218.3 6.5 212.55L6.3 201.85Q6.3 188.95 16.05 52.55Q16.55 52.55 16.35 53Q16.1 53.4 16.6 53.4Q17.2 53.4 17.15 52.05L17.05 50.3M129.5,144.8Q125.75 154.65 125.7 174.45L131.6 173.35L134.6 173Q138.3 173 138.3 174.85Q138.3 176.85 134.3 178Q130.9 178.95 125.65 179.05L123.7 197.3Q121.8 215.2 121.8 221.25Q121.8 222.8 121.95 223.35Q122.4 225 123.9 225Q127.75 225 131.3 222.65Q133.8 221.05 134.45 219.85L134.65 217.55Q134.8 215.65 136.1 214.25L137.45 215.65L137.85 216.7Q137.85 220.15 134.1 225.05Q130.5 229.8 128.4 229.8Q123.25 229.8 122.15 229.05Q120.05 227.65 120.05 221.35Q120.05 211.15 122.05 196.05Q124.05 180.95 124.05 179.05L122.65 176.65L123.45 175.95L124.45 174.95L124.8 171.65L125.1 165.15Q126.3 148.95 128.9 141.1Q129.75 138.65 130.6 137.25L131.4 136.25Q135.6 131.45 140.2 133.8Q144.55 136 144.55 141.6L144.4 142.55L143.9 143.25L140.45 137.8Q139.45 136.25 138.4 136.25Q132.8 136.25 129.5 144.8M323.55,245.05L323.7 246.65L323.45 247.8L322.6 247.65L322.55 246.75Q322.55 246.1 322.9 245.65L323.55 245.05" />
</g>
</svg>
