<?xml version="1.0" encoding="utf-8"?>
<svg version="1.1" id="Layer_1"
xmlns="http://www.w3.org/2000/svg"
xmlns:xlink="http://www.w3.org/1999/xlink"


xml:space="preserve">
q-20.45 0.25 -40.25 5.85q-20.8 5.85 -42.15 8.7q-21.8 3.2 -43.65 0.25q-12.9 -1.55 -25.2 -4.05q37.25 16.3 77.6 5.35q4 55.1 2.2 111.45q-2.2 70.6 -6.2 141.05q-1.6 27.95 -8 55.35q-1.9 8.05 -5.25 15.7q-4 9.25 2.15 17.3q20.2 -58.85 20.8 -123.05q0.2 -26.25 -4.9 -52.05q41.5 -19.85 78.65 1.5q0.75 2 0.6 3.9q-0.45 1.2 -1.45 2.1q1.5 0.5 2.9 -0.55q1.4 -1.15 2 -2.75q0.7 -1.85 0.6 -3.95q-3.8 -24.6 -29 -24.3q-0.7 59.6 -7.8 118.4q-7.1 58.75 -9.7 118.5q-0.75 17.35 6.25 29.05q0.6 -0.75 0.65 -1.5q1.25 -20.35 1.9 -41.25q1.85 -59.1 8.8 -117.7q7.05 -59.2 3.15 -118.5q-3.2 5.4 -3.25 13q-2.7 8.9 -2.85 19.95q-0.65 58.95 -6.2 117.3q-5.95 2.05 -12.4 3.45q-0.35 1.45 -0.4 3q-0.1 2.05 0.8 3.75q5.7 1.55 11.2 0.55q-5.3 53.45 -12.3 106.6q-2 15 -5.3 29.65q-3.8 17 2.15 29.65q9.3 -38.65 13.6 -79.3q4.7 -44.3 8.5 -88.85q2.1 -1 4.2 -2.4q46.4 -31.2 53.45 -88.25q1.2 -9.8 -1.85 -18.8q-11.9 -35.2 -50.9 -44.85q-3.75 -1.35 -5.5 1q2.3 18 -3.45 35.6q-13.4 40.6 -48.15 55.75q4.7 -59.3 1.3 -118.25q14.65 5.6 28.8 13.7q17.7 10.15 20.2 29.65q2.35 1.55 5.5 1.65q-4.9 59.4 -7.5 118.6q0.3 1.75 2 2q5.7 -37.05 8.65 -76.3q3.25 -42.45 6.85 -84.9q20.5 -3.8 43 -6.5q1.6 -2.2 1.2 -5q-0.4 -0.4 -0.65 -0.35q-5.65 1.45 -8.85 -1.65q-17.05 0.35 -33 4.25q5.35 -59.7 2.85 -118.6q-4.65 35.95 -7.05 74.15q-2.15 34.15 -4.7 68.25q-0.7 1.8 -0.55 3.75q0.9 23.85 5.95 48.45q11.95 58.05 30.05 114.5q0.3 1.75 2 2q2.1 -0.9 1.65 -3.3q-4.4 -23.6 -10.35 -47.75q-14.25 -57.55 -29.3 -113.9q30.1 -25.6 57.8 -0.3q0.8 2.3 1.1 4.6q0.65 4.8 2.65 3.4q0.15 -12.15 -10.35 -19.35q-24.15 -16.6 -47.4 2.3q-35.05 28.6 -45.5 73.7q-13.35 57.9 -18.35 117.2q-3.95 47.3 21.3 85.6q16.45 24.9 43.9 13.7q27.6 -11.3 46.05 -34.55q16.15 -20.35 24 -45.05q17.95 -56.65 22 -115.85q2.05 -30.2 -5.15 -58.85q-8.7 -34.5 -38.75 -50.85q-3.05 0.3 -3.45 3.75q-0.45 3.2 0.95 6q20.45 19.55 23.95 46.9q6.55 51.05 -3.7 101.25q-6.2 30.3 -18.9 58.35q-20.7 45.75 -65.65 66.9q-14.05 6.55 -25.55 -2.85q-30.15 -24.65 -29.9 -63.9q0.15 -27 2.9 -53.35q6.45 -61 31.05 -117.25q7.3 -16.65 21.3 -28.55q3.2 58.5 8.95 116.4q5.8 58.4 18 115.3q2.4 1.2 3 -1.5q12.55 -57.2 22.25 -115.5q9.65 -58.05 19.65 -116.1q1.3 -7.55 4 -14.6q11.1 -29.2 7.85 -58.25q-8.1 25.75 -14.1 54.65q-11.95 57.7 -21.6 115.85q-9.55 57.75 -19.55 114.95q-1.75 -10.1 -3.15 -20.25q-7.95 -58 -14.2 -116.25q-6.15 -57.35 -6.1 -115.45q0 -17 -6.75 -28.25q-9.35 53.2 -16.5 107.15q-7.7 58.15 -16.4 116.1q-4.5 29.65 -2.1 57.7q2.9 -10.9 4.25 -22.95q6.5 -58.3 14.7 -116.3q8.15 -57.65 16.8 -114.7q-0.15 21.15 1 42<g id="1309" transform="matrix(1, 0, 0, 1, -40.6, 0)">
<path style="fill:#000000;fill-opacity:1" d="M516.25,98.75Q516.35 100.85 515.65 102.7Q515.05 104.3 513.65 105.45Q512.25 106.5 510.75 106L509.95 103.25L510.35 102.65Q511.35 101.75 511.8 100.55L512.3 98.15Q512.45 96.25 511.7 94.25Q474.55 72.9 433.05 92.75Q438.15 118.55 437.95 144.8L436.5 311.15Q435.9 375.35 415.7 434.2Q409.55 426.15 413.55 416.9Q416.9 409.25 418.8 401.2Q425.2 373.8 426.8 345.85Q430.8 275.4 433 204.8Q434.8 148.45 430.8 93.35L413.1 98.1Q372.75 109.05 335.5 92.75L336 85.2Q348.3 87.7 361.2 89.25Q383.05 92.2 404.85 89Q426.2 86.15 447 80.3Q466.8 74.7 487.25 74.45Q512.45 74.15 516.25 98.75M523.2,123.75Q527.1 183.05 520.05 242.25Q513.1 300.85 511.25 359.95Q510.6 380.85 509.35 401.2Q509.3 401.95 508.7 402.7Q501.7 391 502.45 373.65Q505.05 313.9 512.15 255.15Q519.25 196.35 519.95 136.75Q520 129.15 523.2 123.75M342.45,118.75Q381.45 128.4 393.35 163.6Q396.4 172.6 395.2 182.4Q388.15 239.45 341.75 270.65Q339.65 272.05 337.55 273.05Q333.75 317.6 329.05 361.9Q324.75 402.55 315.45 441.2Q309.5 428.55 313.3 411.55Q316.6 396.9 318.6 381.9Q325.6 328.75 330.9 275.3Q325.4 276.3 319.7 274.75Q318.8 273.05 318.9 271Q318.95 269.45 319.3 268L319.7 266.5Q326.15 265.1 332.1 263.05Q337.65 204.7 338.3 145.75Q338.45 134.7 341.15 125.8L336.95 124.25L336.75 122.75L336.75 121.25L336.95 119.75Q338.7 117.4 342.45 118.75M370.05,139.5Q355.9 131.4 341.25 125.8Q344.65 184.75 339.95 244.05L338.65 260.5Q373.4 245.35 386.8 204.75Q392.55 187.15 390.25 169.15Q387.75 149.65 370.05 139.5M452.55,281.45L452.4 280.75Q452.25 278.8 452.95 277L459.45 274.9Q462 240.8 464.15 206.65Q466.55 168.45 471.2 132.5Q473.7 191.4 468.35 251.1L466.45 273Q482.4 269.1 499.45 268.75Q502.65 271.85 508.3 270.4Q508.55 270.35 508.95 270.75L509.45 272.25L509.65 273Q510.05 275.8 508.45 278Q485.95 280.7 465.45 284.5Q461.85 326.95 458.6 369.4Q455.65 408.65 449.95 445.7Q448.25 445.45 447.95 443.7Q450.55 384.5 455.45 325.1L458.7 284.65L458.45 284.65Q455.3 284.55 452.95 283L452.55 281.45M389.25,377.65Q395.2 401.8 399.6 425.4Q400.05 427.8 397.95 428.7Q396.25 428.45 395.95 426.7Q377.85 370.25 365.9 312.2Q360.85 287.6 359.95 263.75Q375 320.1 389.25 377.65M184.1,186.1Q159.5 242.35 153.05 303.35Q150.3 329.7 150.15 356.7Q149.9 395.95 180.05 420.6Q191.55 430 205.6 423.45Q250.55 402.3 271.25 356.55Q283.95 328.5 290.15 298.2Q300.4 248 293.85 196.95Q290.35 169.6 269.9 150.05L263.45 143.75L260.45 143L257.9 140.8L255.95 139.25Q254.55 136.45 255 133.25Q255.4 129.8 258.45 129.5Q288.5 145.85 297.2 180.35Q304.4 209 302.35 239.2Q298.3 298.4 280.35 355.05Q272.5 379.75 256.35 400.1Q237.9 423.35 210.3 434.65Q182.85 445.85 166.4 420.95Q141.15 382.65 145.1 335.35Q150.1 276.05 163.45 218.15Q173.9 173.05 208.95 144.45Q232.2 125.55 256.35 142.15Q266.85 149.35 266.7 161.5L267.1 162.95L267.2 163.75L266.95 165.25Q264.95 166.65 264.3 161.85Q264 159.55 263.2 157.25Q235.5 131.95 205.4 157.55Q191.4 169.45 184.1 186.1M78.75,147.25Q70.1 204.3 61.95 261.95Q53.75 319.95 47.25 378.25Q45.9 390.3 43 401.2Q40.6 373.15 45.1 343.5Q53.8 285.55 61.5 227.4Q68.65 173.45 78 120.25Q84.75 131.5 84.75 148.5Q84.7 206.6 90.85 263.95Q97.1 322.2 105.05 380.2Q106.45 390.35 108.2 400.45Q118.2 343.25 127.75 285.5Q137.4 227.35 149.35 169.65Q155.35 140.75 163.45 115Q166.7 144.05 155.6 173.25Q152.9 180.3 151.6 187.85Q141.6 245.9 131.95 303.95Q122.25 362.25 109.7 419.45Q109.1 422.15 106.7 420.95Q94.5 364.05 88.7 305.65Q82.95 247.75 79.75 189.25Q78.6 168.4 78.75 147.25" />
</g>
</svg>
