<?xml version="1.0" encoding="utf-8"?>
<svg version="1.1" id="Layer_1"
xmlns="http://www.w3.org/2000/svg"
xmlns:xlink="http://www.w3.org/1999/xlink"


xml:space="preserve">
q-4.25 49.6 -5.05 99.9q-1 59.8 -4.7 119.25q-1.4 22.7 -6.55 44.6q-4.05 17.4 3.3 30.1q1.6 -0.45 1.9 -2q6.4 -33.95 8.25 -68.95q3.1 -59.1 4.7 -118.5q1.25 -47.8 0.95 -94.55q14.55 52.2 27.2 105.05q13.75 57.45 25.6 115.15q2.9 14.2 4.5 28.55q1.1 9.8 3.95 18.7q1.6 4.9 3.7 9.55q-0.4 6.25 4.75 8.25q2.45 -1.85 2.1 -5.15q3.1 -12.3 3.55 -25.35q2.2 -59.35 5.5 -118.6q2.45 -44.4 6.65 -88.3q2.25 -23 0.25 -44.35q-8.5 24.25 -9.35 52q-1.75 59.3 -5.95 118.45q-2.7 37.8 -5.75 75.25q-2.6 -13.4 -5.75 -26.7q-13.65 -57.45 -27.8 -114.75q-13.7 -55.3 -31.05 -109.2q-0.95 -0.2 -1.2 0.4q-3.65 5.5 -1.3 13.65q-2.55 -27.5 -25.25 -24.45q-5 0.8 -5.05 6.25q-0.25 20.85 -3.6 41.6q-2.85 17.55 -4.95 35.6q-1.8 15.4 -6.45 30.1q-6.15 19.65 3.35 31.9q10.1 -36.1 12.5 -74.45q1.45 44.8 19.8 83.95q-1.3 -43 -17.3 -85.8q17.45 -15.35 15.3 -38.9q-6.2 58.95 -10 118.55q-0.3 4.25 -1.1 8.35q-0.5 0.5 -0.6 1.1q-3.9 -19.05 -8.4 -38q-13.7 -57.45 -24.65 -115.6q-10.85 -57.65 -22.65 -114.25q-3 3.2 -2.3 8.85q-4.6 19.15 -6.35 40.35q-4.7 59 -10.8 117.8q-1.05 10.2 -3.65 10.7q-1.4 0.6 -0.85 3.35q1.55 7.3 7 10q4.35 -8.4 5.25 -18.45q5.4 -58.8 9.7 -117.8q4.35 -59 11.2 -117.6q1.35 -11.45 1.95 -22.75q7.85 46.9 17.05 93.65q11.35 57.9 24.7 115.35q5 21.65 7.35 43.8q1.75 16.75 10.75 28.3q3.1 -2.5 2.4 -6.6q6.3 -57.75 9.8 -116.15q3.55 -59.35 9.3 -118.4q2.95 -30.3 2.6 -59.35q-5 5.85 -5.95 15.15q-17 40.4 -19.1 84.45q-2.9 59.5 -0.5 119.35q1.45 35.8 19.2 66.25q4.7 8.05 14.2 9.4q49.65 7 72.05 -37.05q19.85 -39 26.6 -82.35q9.2 -58.9 1.65 -118q-5.55 -43.95 -36.3 -74.25q-19.4 -6.45 -41.1 -5q-23.65 12.2 -34.3 37.7q13.05 -15.5 33.55 -16.75q12.1 -0.55 20.15 5.95q1.55 0.6 2.45 1.75q3.45 4.55 5.1 9.95q0.65 2.15 2.2 4q0.05 -2.4 -0.65 -4.65q-1.3 -4.05 -3.95 -7.45q12.75 12.95 20.8 31.55q12 27.8 12.95 58.4q2.7 84.15 -37.55 157.8q-9.2 16.85 -27.2 23.65q-10.25 3.8 -21.45 4.05q-6.65 0.65 -12.4 -2.55q-7.7 -4.5 -12.95 -11.6q-4.75 -6.4 -7.6 -13.75q-2.95 -7.6 -3.9 -15.9q-4.95 -44.75 -4.2 -89.8q0.9 -52.3 14.45 -102.55q4.45 -21.2 18.2 -37.4q11.6 -1.95 15.1 10.3q8.45 29.65 -18.45 40.05q2.25 -25.2 3.35 -50.35<g id="1310" transform="matrix(1, 0, 0, 1, -49.95, 0)">
<path style="fill:#000000;fill-opacity:1" d="M374.2,109L374.25 109.15Q374.5 108.55 375.45 108.75L375.55 113.05Q392.9 166.95 406.6 222.25Q420.75 279.55 434.4 337Q437.55 350.3 440.15 363.7Q443.2 326.25 445.9 288.45Q450.1 229.3 451.85 170Q452.7 142.25 461.2 118Q463.2 139.35 460.95 162.35Q456.75 206.25 454.3 250.65Q451 309.9 448.8 369.25Q448.35 382.3 445.25 394.6L447.55 412.8Q447.9 416.1 445.45 417.95Q440.3 415.95 440.7 409.7Q438.6 405.05 437 400.15Q434.15 391.25 433.05 381.45Q431.45 367.1 428.55 352.9Q416.7 295.2 402.95 237.75Q390.3 184.9 375.75 132.7Q376.05 179.45 374.8 227.25Q373.2 286.65 370.1 345.75Q368.25 380.75 361.85 414.7Q361.55 416.25 359.95 416.7Q352.6 404 356.65 386.6Q361.8 364.7 363.2 342Q366.9 282.55 367.9 222.75Q368.7 172.45 372.95 122.85L372.9 122.65Q370.55 114.5 374.2 109M331.4,329.4Q347.4 372.2 348.7 415.2Q330.35 376.05 328.9 331.25L317.25 337.05Q314.85 375.4 304.75 411.5Q295.25 399.25 301.4 379.6Q306.05 364.9 307.85 349.5Q309.95 331.45 312.8 313.9Q316.15 293.15 316.4 272.3Q316.45 266.85 321.45 266.05Q344.15 263 346.7 290.5Q348.85 314.05 331.4 329.4M168.45,103.5Q168.8 132.55 165.85 162.85Q160.1 221.9 156.55 281.25Q153.05 339.65 146.75 397.4L147.85 404.35Q148.55 408.45 145.45 410.95Q136.45 399.4 134.7 382.65Q132.35 360.5 127.35 338.85Q114 281.4 102.65 223.5Q93.45 176.75 85.6 129.85Q85 141.15 83.65 152.6Q76.8 211.2 72.45 270.2Q68.15 329.2 62.75 388Q61.85 398.05 57.5 406.45Q52.05 403.75 50.5 396.45Q49.95 393.7 51.35 393.1L51.5 393.45Q54.1 392.95 55.15 382.75Q61.25 323.95 65.95 264.95L75.45 147.15Q77.2 125.95 81.8 106.8Q81.1 101.15 84.1 97.95L85.5 93.25L85.75 97.85Q97.55 154.45 108.4 212.1Q119.35 270.25 133.05 327.7Q137.55 346.65 141.45 365.7L142.6 361.8Q142.7 361.2 143.2 360.7L143.35 364.15Q144.15 360.05 144.45 355.8L152.5 237.2Q156.3 177.6 162.5 118.65Q163.45 109.35 168.45 103.5M226.95,102.75Q248.65 101.3 268.05 107.75L270.45 108.25Q301.2 138.55 306.75 182.5Q314.3 241.6 305.1 300.5Q298.35 343.85 278.5 382.85Q256.1 426.9 206.45 419.9Q196.95 418.55 192.25 410.5Q174.5 380.05 173.05 344.25Q170.65 284.4 173.55 224.9Q175.65 180.85 192.65 140.45Q203.3 114.95 226.95 102.75M192.05,168.45Q178.5 218.7 177.6 271Q176.85 316.05 181.8 360.8Q182.75 369.1 185.7 376.7Q188.55 384.05 193.3 390.45Q198.55 397.55 206.25 402.05Q212 405.25 218.65 404.6Q229.85 404.35 240.1 400.55Q258.1 393.75 267.3 376.9Q307.55 303.25 304.85 219.1Q303.9 188.5 291.9 160.7Q283.85 142.1 271.1 129.15Q273.75 132.55 275.05 136.6Q275.75 138.85 275.7 141.25L275.2 141.2Q273.65 139.35 273 137.2Q271.35 131.8 267.9 127.25Q267 126.1 265.45 125.5L263.95 120.25Q255.9 113.75 243.8 114.3Q223.3 115.55 210.25 131.05Q196.5 147.25 192.05 168.45M318.6,323.05Q345.5 312.65 337.05 283Q333.55 270.75 321.95 272.7Q320.85 297.85 318.6 323.05" />
</g>
</svg>
