<?xml version="1.0" encoding="utf-8"?>
<svg version="1.1" id="Layer_1"
xmlns="http://www.w3.org/2000/svg"
xmlns:xlink="http://www.w3.org/1999/xlink"


xml:space="preserve">
q-1.65 0 -1.6 1.5q-13.75 44.3 -20.35 91.15q-4 28.5 -11.65 56.3q-1.65 -18.4 -4.15 -36.55q0.2 -11.65 -0.95 -23.15q-7.2 22.9 -10.9 49.4q-8.2 58.4 -14.65 117.1q-4.85 44.45 -16.9 86.55q-4.75 16.6 1.45 29.65q1 -0.35 1.2 -0.95q14.9 -52.1 20.35 -106.3q5.9 -58.75 16.75 -116.65q2.05 14.3 3.45 28.7q5.75 59.45 15.75 116.9q4.65 -2.7 4.35 -9.05q6.2 -18.05 9 -38.2q5.95 -43.7 15.6 -86.7q3.95 -17.4 5.95 -34.55q1.1 22.35 4 44.9q7.45 58.55 13 117.6q2.75 29.7 4.9 59.45q1.2 16.5 8.7 28.85q0.85 -0.6 1 -1.35q2.85 -18.4 -0.25 -37.6q-9.4 -58.35 -14.75 -117.45q-5.2 -57.6 -14.95 -113.95q17.15 11.7 23.35 32.9q5.55 19.15 3.1 38.95q-2.7 21.85 -17.2 38.3q-9.6 10.95 -23.2 16q0.3 -8.8 -1.4 -17.5q-3.7 -7.1 -10.25 -12.1q-5.3 -4.05 -11.65 -6.15q-3.45 -1.15 -6.9 -2.15q-2.3 5.65 0.9 10.15q2.2 87.7 -7.9 174.85q-9.7 52.85 -7.85 104.2q0.1 3 2.25 4.1q15.6 -63.1 16.2 -129q13.6 74.35 36.05 144.65q-13.05 -63 -32.9 -126.55q28 -32.2 24.25 -76.1q-0.9 -10.4 -2.55 -20.75q-0.8 -3.55 -2.1 -6.9q-1.2 -3.2 -2.75 -6.25q-29.7 15.25 -39.15 48.25q-16.5 57.6 -6.9 117.05q5.2 32.25 28.2 54.85q3.95 3.85 8.85 5.75q32.65 12.7 57 -12.9q25.45 -26.8 32.3 -63.2q11.4 -60.65 -13.85 -116.4q-17.1 -37.7 -58.7 -36.85q-3.8 1.45 -7.75 3.45q5.9 -12.05 16.85 -19.75q16.7 -11.9 34.95 -9.2q27.45 12.75 39.55 41.35q8.9 21.1 9.95 44.2q1.05 22 -3.85 43.35q-4.05 17.45 -12.4 33q-9.95 18.45 -28 28.5q-22.7 12.7 -41.9 -1.7q-15.4 -11.5 -23.3 -29.1q-15.05 -33.45 -10.2 -70.6q2.8 -21.55 7.7 -42.65q2.95 -12.6 8.55 -24.05q-5.2 14.1 -6.5 31.9q-4.2 59.25 -9.35 118.5q-5.1 58.65 -7.4 117.8q-1.4 0.6 -1.65 2.15q-2.1 12.4 4.75 20q2.1 -0.5 2.25 -2.75q4.5 -59.2 7.95 -118.5q0.85 -15 3.4 -29.65q1.1 -6.55 1.8 -13q1.4 8.95 3.7 17.95q14.75 57.2 25.9 115.05q5.3 30.15 14.05 57.25q5.2 -5.05 4.15 -13.3q-0.85 -7.2 -1.25 -14.25q2.15 -4.85 1.5 -10.8q4.1 -1.8 0.5 -2.25q1.4 -33.2 6 -66.25q8.1 -58.6 14.8 -117.55q3.45 -29.9 0.2 -58.65q-0.75 0.1 -0.75 0.35q-6.1 40.85 -10.55 82.3q-6.3 59.1 -13.65 117.95q-1.85 14.9 -4.65 29.55q-13.3 -57.7 -25.7 -115.3q-12.55 -58.1 -22.85 -115.9<g id="1306" transform="matrix(1, 0, 0, 1, -47.15, 0)">
<path style="fill:#000000;fill-opacity:1" d="M489.2,121.5L489 126.1Q498.75 182.45 503.95 240.05Q509.3 299.15 518.7 357.5Q521.8 376.7 518.95 395.1Q518.8 395.85 517.95 396.45Q510.45 384.1 509.25 367.6Q507.1 337.85 504.35 308.15Q498.8 249.1 491.35 190.55Q488.45 168 487.35 145.65Q485.35 162.8 481.4 180.2Q471.75 223.2 465.8 266.9Q463 287.05 456.8 305.1L456.8 305.7Q457.1 312.05 452.45 314.75Q442.45 257.3 436.7 197.85Q435.3 183.45 433.25 169.15L432.75 171.8Q421.9 229.7 416 288.45Q410.55 342.65 395.65 394.75Q395.45 395.35 394.45 395.7Q388.25 382.65 393 366.05Q405.05 323.95 409.9 279.5Q416.35 220.8 424.55 162.4Q428.25 135.9 435.45 113Q436.6 124.5 436.4 136.15L450.55 238.75Q453.05 256.9 454.7 275.3Q462.35 247.5 466.35 219Q472.95 172.15 486.7 127.85L486.65 124.5Q486.6 123 488.25 123L488.65 121.65L489.2 121.5M326.25,136.35L322.5 245.35Q336.1 240.3 345.7 229.35Q360.2 212.9 362.9 191.05Q365.35 171.25 359.8 152.1Q353.6 130.9 336.45 119.2L324.85 118.85Q326.55 127.55 326.25 136.35M362.5,132.15Q363.8 135.5 364.6 139.05L366.6 149.7Q368.25 160.05 369.15 170.45Q372.9 214.35 344.9 246.55Q364.75 310.1 377.8 373.1L380.95 366.45L376.3 395.35L376.1 395.5Q353.65 325.2 340.05 250.85L321.8 262.05Q321.2 327.95 305.6 391.05Q303.45 389.95 303.35 386.95Q301.5 335.6 311.2 282.75L311.45 294.25Q321.55 207.1 319.35 119.4Q316.15 114.9 318.45 109.25L330.95 105.5Q334.4 106.5 337.85 107.65Q344.2 109.75 349.5 113.8Q356.05 118.8 359.75 125.9Q361.3 128.95 362.5 132.15M218.95,129.5Q260.55 128.65 277.65 166.35Q302.9 222.1 291.5 282.75Q284.65 319.15 259.2 345.95Q234.85 371.55 202.2 358.85Q197.3 356.95 193.35 353.1Q170.35 330.5 165.15 298.25Q155.55 238.8 172.05 181.2Q181.5 148.2 211.2 132.95Q215.15 130.95 218.95 129.5M174.85,196.5Q169.95 217.6 167.15 239.15Q162.3 276.3 177.35 309.75Q185.25 327.35 200.65 338.85Q219.85 353.25 242.55 340.55Q260.6 330.5 270.55 312.05Q278.9 296.5 282.95 279.05Q287.85 257.7 286.8 235.7Q285.75 212.6 276.85 191.5Q264.75 162.9 237.3 150.15L235.2 143.5Q216.95 140.8 200.25 152.7Q189.3 160.4 183.4 172.45Q177.8 183.9 174.85 196.5M75.5,95Q85.8 152.8 98.35 210.9Q110.75 268.5 124.05 326.2L125.6 332.7L125.85 331.15Q128.65 316.5 130.5 301.6Q137.85 242.75 144.15 183.65Q148.6 142.2 154.7 101.35Q154.7 101.1 155.45 101Q158.7 129.75 155.25 159.65Q148.55 218.6 140.45 277.2Q135.85 310.25 134.45 343.45Q138.05 343.9 133.95 345.7Q134.6 351.65 132.45 356.5L132.85 360.65Q133.25 367.7 134.1 374.9Q135.15 383.15 129.95 388.2Q121.2 361.1 115.9 330.95L105.15 272.8Q94 214.95 79.25 157.75Q76.95 148.75 75.55 139.8Q74.85 146.25 73.75 152.8Q71.2 167.45 70.35 182.45Q66.9 241.75 62.4 300.95L56.25 381.2Q56.1 383.45 54 383.95Q47.15 376.35 49.25 363.95Q49.5 362.4 50.9 361.8L51.25 361.45Q53.55 302.3 58.65 243.65Q63.8 184.4 68 125.15Q69.3 107.35 74.5 93.25L74.75 95L75.5 95" />
</g>
</svg>
