<?xml version="1.0" encoding="utf-8"?>
<svg version="1.1" id="Layer_1"
xmlns="http://www.w3.org/2000/svg"
xmlns:xlink="http://www.w3.org/1999/xlink"


xml:space="preserve">
q-4.05 8.65 -3.95 20.25q0.55 59.5 -2.5 118.5q-3.1 59.5 -7.3 117.7q-1.9 -14.1 0.65 -27.7q-2.75 13.55 -2.3 27.65q0.6 12.65 4 24q4.05 -20.95 4.85 -42.7q1.9 -50.9 4.7 -101.7q6.6 3.95 13.7 0.45q17.85 -7.65 30.1 -22.2q8.75 -10.4 12.5 -23.3q5.6 -19.35 1.9 -39.5q-8.65 -47.25 -56.5 -53q-2.1 1.05 -2.6 3.75q15.75 15.9 16.25 38.3q0.45 20.85 -15.95 35.05q-15.05 13.1 -34.95 15.95q3.35 -53.45 -0.85 -106.65q20.55 2.3 35.5 17.35q-5.25 27.3 -7.25 55.35q-4.25 59.15 -6.75 118.55q-1.75 36.05 24.45 59.3q26.8 -2.05 40.1 -26.65q7.85 -14.5 11.75 -30.65q12.15 -50.3 10.3 -103.2q3.9 -2.4 9 -3q0 -6.55 -4.75 -6.75q-3.25 5.05 -3.3 11.25q-0.25 17.35 0.7 34.55q2.95 53.55 -14.7 102.65q-10.7 29.85 -40.05 34.4q-4.9 -4.35 -8.5 -9.6q-8.9 -12.9 -9.2 -29.1q-1.05 -59.4 4.8 -118.5q5.9 -59.4 5.15 -117.75q-0.75 0.1 -0.8 0.35q-13.4 63.15 -15.05 128.1q-0.9 36.6 -1.55 73.4q-0.25 15.55 -0.1 30.8q0.05 2.6 -0.35 5q-0.25 0.85 -1 0.85q-7.5 61.6 -11.75 123.7q-3.05 44.2 -5.55 88.45q-1.65 29.4 -4.65 58.55q-0.05 0.3 -0.6 0.2q-1.6 6.75 1.8 12.75q9.8 -82.6 12.1 -166.15q0.6 -22.9 4.8 -45.9q2.45 -13.55 3.25 -27.45q0.75 -13.75 0.25 -27.35q15.55 80.5 44.1 157.8q11.8 32.05 19.3 65.4q1.8 9.35 7.35 17.05q6.3 -112.7 11.7 -225.65q0.7 -14.9 4.2 -29.6q3 -9.9 -1.1 -19.3<g id="1323" transform="matrix(1, 0, 0, 1, -69.9, 0)">
<path style="fill:#000000;fill-opacity:1" d="M339.95,106.25Q387.8 112 396.45 159.25Q400.15 179.4 394.55 198.75Q390.8 211.65 382.05 222.05Q369.8 236.6 351.95 244.25Q344.85 247.75 338.25 243.8Q335.45 294.6 333.55 345.5Q332.75 367.25 328.7 388.2L325.2 388.95Q321.8 377.6 321.2 364.95Q320.75 350.85 323.5 337.3L323.95 336.5Q321.4 350.1 323.3 364.2L323.45 364.95Q327.65 306.75 330.75 247.25Q333.8 188.25 333.25 128.75Q333.15 117.15 337.2 108.5L337.35 110Q337.85 107.3 339.95 106.25M338.3,121.25Q342.5 174.45 339.15 227.9Q359.05 225.05 374.1 211.95Q390.5 197.75 390.05 176.9Q389.55 154.5 373.8 138.6Q358.85 123.55 338.3 121.25M230.45,102.75Q231.2 161.1 225.3 220.5Q219.45 279.6 220.5 339Q220.8 355.2 229.7 368.1Q233.3 373.35 238.2 377.7Q267.55 373.15 278.25 343.3Q295.9 294.2 292.95 240.65L288.1 152.3Q287.15 135.1 287.4 117.75Q287.45 111.55 290.7 106.5Q295.45 106.7 295.45 113.25L304.45 114.25Q299.35 114.85 295.45 117.25L299.6 234.95Q301.45 287.85 289.3 338.15Q285.4 354.3 277.55 368.8Q264.25 393.4 237.45 395.45Q211.25 372.2 213 336.15L215.65 277Q218.15 217.6 222.4 158.45Q224.4 130.4 229.65 103.1Q229.7 102.85 230.45 102.75M196.15,124.35Q192.65 139.05 191.95 153.95Q186.55 266.9 180.25 379.6L179.05 380.45L175.95 392.7Q170.4 385 168.6 375.65L167.15 367.2L166.95 365.55L166.75 363.65L161.15 337.45Q153.65 304.1 141.85 272.05Q113.3 194.75 97.75 114.25L98.15 123.35Q98.65 136.95 97.9 150.7Q97.1 164.6 94.65 178.15Q90.45 201.15 89.85 224.05Q87.55 307.6 77.75 390.2L74.25 390.95L73.3 389.45Q69.9 383.45 71.5 376.7L70.25 369.2L71.55 371.4Q72.1 371.5 72.15 371.2Q75.15 342.05 76.8 312.65Q79.3 268.4 82.35 224.2Q86.6 162.1 94.1 100.5L96.45 99.25L97 104.6L96.95 95.9L99.45 97.25L174.7 356.8L174.95 344.45Q175.7 344.45 175.95 343.6L176.4 342.15L176.9 340.05Q177.3 337.65 177.25 335.05Q177.1 319.8 177.35 304.25Q178 267.45 178.9 230.85Q180.55 165.9 193.95 102.75L195.05 105.05Q199.15 114.45 196.15 124.35" />
</g>
</svg>
