<?xml version="1.0" encoding="utf-8"?>
<svg version="1.1" id="Layer_1"
xmlns="http://www.w3.org/2000/svg"
xmlns:xlink="http://www.w3.org/1999/xlink"


xml:space="preserve">
q1.2 -3.5 1.1 -7.2q-0.1 -2.7 -1.55 -4.65q-19.4 2.35 -38 -2.5q-1.8 -0.4 -3.5 -1q-3.2 10.25 -3.5 22.5q-2.3 87.7 -5.65 175.55q-0.8 20.3 -4 40.6q0.15 5.7 3.35 10.4q11.65 -19.05 9.75 -48.9q-2.85 -43.85 -0.35 -87.85q1.35 -2.15 1.9 -4.55q0.95 -3.9 -0.55 -7.75q17.45 4.9 36.05 3.85q-16.6 1.35 -32.75 5.25q-0.65 1.85 -0.95 3.75q-0.5 4 1.2 7.5q-4.1 47.25 -5.6 94.95q-1.8 59.65 -6.25 119.1q-1.25 16.8 4.1 29.85q2.05 -0.6 2.2 -2.75q3.9 -44.45 5.9 -89.2q22.75 -3.6 13.35 -22.05q-9.9 3.1 -20.3 5.25q-3 0.65 -5.3 1.6q0.55 -16.75 -0.9 -32.55q16.55 0.75 32.65 -1.5q1.05 -1.35 1.35 -2.95q1.2 -5.95 -1.6 -11.3q-0.35 -0.4 -0.8 -0.5q-4.2 27.7 -5.75 56.7q-0.55 10.25 -0.7 20.25q-0.8 59.45 -1.2 118.5q-0.2 29.2 5.15 57.5q4.15 22.25 27.35 19.85q27.75 -2.85 38.3 -28.2q20.45 -49.25 22.1 -102.9q1.85 -59.35 -1.75 -118.5q3.2 -2.1 2 -4q1 -10.45 -5.5 -14.85q-0.6 0.75 -0.65 1.5q-1.8 45.1 -0.3 90.75q1.95 60.9 -11.9 119.3q-10.1 42.65 -53.9 39.9q-10.2 -6.6 -10.85 -18.7q-3.25 -59 -1.25 -118.5q2.05 -60.1 0.35 -118.5q-8.75 53.25 -9.55 107.95q-0.8 57.25 -7.6 113.75q-13.55 -57.55 -33.6 -113.35q-19.45 -53.95 -36.95 -107.65q-2.4 2.8 -2.7 7.45q-3.95 58.85 -4.65 118.6q-0.65 59.3 -3.8 118.2q-1.9 9.75 0.2 19.45q1.1 2.7 3.75 2q5.45 -15.6 5.55 -33q0.3 -59.05 1.2 -118.45q0.45 -30.2 2.9 -59.9q0.9 -11.1 1 -22q16.55 50.55 34.2 100.45q19.5 55.2 29 112.45q2.8 16.9 12.15 27.2q1.6 -1.5 1.8 -3.75q0.65 -8.95 -0.4 -17.95q4 -30.3 5.8 -61.05q3.45 -59.15 4.95 -118.45q0.35 -15.05 2.55 -29.8q2.85 -19.5 -0.2 -36.95q-1.75 -0.2 -2.05 1.55<g id="1326" transform="matrix(1, 0, 0, 1, -101.1, 0)">
<path style="fill:#000000;fill-opacity:1" d="M387.95,145.1Q369.35 146.15 351.9 141.25L351.2 234.3L379.45 225.75L381.25 229.55Q382.75 233.4 381.8 237.3Q381.25 239.7 379.9 241.85L350.4 249.05Q347.9 293.05 350.75 336.9Q352.65 366.75 341 385.8L339.45 383.65Q336.25 378.95 336.1 373.25L336.05 371.65L336.15 370.1L336.3 368.4L336.8 364.9Q340 344.6 340.8 324.3Q344.15 236.45 346.45 148.75Q346.75 136.5 349.95 126.25Q351.65 126.85 353.45 127.25Q372.05 132.1 391.45 129.75L392.5 131.1Q393.95 133.05 394.05 135.75Q394.15 139.45 392.95 142.95L392.2 144.75L387.95 145.1M448.2,128.25Q451 133.6 449.8 139.55Q449.5 141.15 448.45 142.5Q432.35 144.75 415.8 144Q417.25 159.8 416.7 176.55L414.85 229.35Q417.15 228.4 420.15 227.75Q430.55 225.6 440.45 222.5Q449.85 240.95 427.1 244.55L414.2 246.2L412.05 295.75Q410.05 340.5 406.15 384.95Q406 387.1 403.95 387.7Q398.6 374.65 399.85 357.85Q404.3 298.4 406.1 238.75Q407.6 191.05 411.7 143.8L411.45 143.75Q409.75 140.25 410.25 136.25Q410.55 134.35 411.2 132.5Q427.35 128.6 443.95 127.25L447.4 127.75Q447.85 127.85 448.2 128.25M238.45,120.25Q240.15 178.65 238.1 238.75Q236.1 298.25 239.35 357.25Q240 369.35 250.2 375.95Q294 378.7 304.1 336.05Q317.95 277.65 316 216.75Q314.5 171.1 316.3 126Q316.35 125.25 316.95 124.5Q323.45 128.9 322.45 139.35L323.45 139.5Q324.65 141.4 321.45 143.5Q325.05 202.65 323.2 262Q321.55 315.65 301.1 364.9Q290.55 390.25 262.8 393.1Q239.6 395.5 235.45 373.25Q230.1 344.95 230.3 315.75Q230.7 256.7 231.5 197.25Q231.65 187.25 232.2 177Q233.75 148 237.95 120.3L238.45 120.25M207.45,124.75Q210.5 142.2 207.65 161.7Q205.45 176.45 205.1 191.5Q203.6 250.8 200.15 309.95Q198.35 340.7 194.35 371Q195.4 380 194.75 388.95Q194.55 391.2 192.95 392.7Q183.6 382.4 180.8 365.5Q171.3 308.25 151.8 253.05Q134.15 203.15 117.6 152.6Q117.5 163.5 116.6 174.6Q114.15 204.3 113.7 234.5Q112.8 293.9 112.5 352.95Q112.4 370.35 106.95 385.95Q104.3 386.65 103.2 383.95Q101.1 374.25 103 364.5L103.2 363.7L102.5 362.2L102.2 361.45Q105.35 302.55 106 243.25Q106.7 183.5 110.65 124.65Q110.95 120 113.35 117.2L114.45 115L114.7 115.8L115.45 115.25L116 119.75Q133.5 173.45 152.95 227.4Q173 283.2 186.55 340.75L188.25 348Q195.05 291.5 195.85 234.25Q196.65 179.55 205.4 126.3Q205.7 124.55 207.45 124.75" />
</g>
</svg>
