<?xml version="1.0" encoding="utf-8"?>
<svg version="1.1" id="Layer_1"
xmlns="http://www.w3.org/2000/svg"
xmlns:xlink="http://www.w3.org/1999/xlink"


xml:space="preserve">
q-5.5 3.35 -9.7 8.2q-20.2 23.4 -21.2 55.8q-0.95 32.95 -3.6 65.85q-2.7 34.1 23 52.6q12.45 2.15 23.9 -3.15q32.8 -15.2 24.6 -46.6q-3.5 9.35 -10.15 17.5q-15.55 19.1 -39.6 14.3q-6.45 -1.3 -7.8 -7.45q-10.4 -48.45 -3.95 -98.7q2.1 -16.45 11.3 -29.9q17.7 -25.85 48.45 -16.2q3.5 3.85 5.3 8.5q1.6 4.1 4.95 5.75q1.8 -29.8 -28.8 -30.45q-8.15 1.8 -16 4.4q-5.3 26.75 -1.55 52.75q10.4 -13.2 8.05 -36.7q-14.3 -5.4 -27.5 0.75q-5.6 36.25 -7.3 74.15q-1.95 44.05 -7.9 87.45q-2.75 -12 -7.25 -23.8q-7.8 -20.55 -12 -42.05q-4.4 -22.4 -15.7 -40.7q-0.5 0.1 -0.55 0.25q-3.35 4.1 -1.35 10.2q-1.45 40.55 0.05 82q1.1 30 -3.45 59.75q-2.6 17.15 3.1 29.25q5.7 -33.15 5.85 -67.5q0.15 -47.95 -2.7 -95q8.7 26.2 18.05 52.6q9.8 27.7 17.55 56.25q7.4 27.35 18.6 51.55q0.95 3 2.35 5.85q6.5 -36.35 9 -74.1q4 -59.5 3 -117.85q6.6 34.55 -6.65 66.1q-9.55 9.9 -23.15 14.55q-17 5.8 -18 -10.9q-2.3 -37.55 -3.35 -74.15q-7.7 38.45 -3.8 80q0.6 6.3 4.4 10.9q16.2 19.65 38.4 0.6q18.3 -18.35 20.2 -44.95q1.8 -24.5 -6.95 -44.3q-1.4 0.75 -1.1 2.15<g id="1336" transform="matrix(1, 0, 0, 1, -139.05, 0)">
<path style="fill:#000000;fill-opacity:1" d="M386.95,181.6L387.95 181.25Q418.55 181.9 416.75 211.7L416.45 212.5Q413.1 210.85 411.5 206.75Q409.7 202.1 406.2 198.25Q375.45 188.6 357.75 214.45Q348.55 227.9 346.45 244.35Q340 294.6 350.4 343.05Q351.75 349.2 358.2 350.5Q382.25 355.3 397.8 336.2Q404.45 328.05 407.95 318.7Q416.15 350.1 383.35 365.3Q371.9 370.6 359.45 368.45Q333.75 349.95 336.45 315.85Q339.1 282.95 340.05 250Q341.05 217.6 361.25 194.2Q365.45 189.35 370.95 186Q378.8 183.4 386.95 181.6M388.55,313.75L389.45 306.2Q402.65 300.05 416.95 305.45L419.95 333.75Q422.3 357.25 411.9 370.45Q408.15 344.45 413.45 317.7L389.8 316.15L388.55 313.75M216.45,180.75Q217.45 239.1 213.45 298.6Q210.95 336.35 204.45 372.7Q203.05 369.85 202.1 366.85Q190.9 342.65 183.5 315.3Q175.75 286.75 165.95 259.05Q156.6 232.65 147.9 206.45Q150.75 253.5 150.6 301.45Q150.45 335.8 144.75 368.95Q139.05 356.85 141.65 339.7Q146.2 309.95 145.1 279.95Q143.6 238.5 145.05 197.95L144.25 195.45Q142.25 189.35 145.6 185.25L145.7 183.25Q145.75 183.1 146.25 183L146.4 184.75Q157.7 203.05 162.1 225.45Q166.3 246.95 174.1 267.5L193.5 318.6Q198 330.4 200.75 342.4Q206.7 299 208.65 254.95Q210.35 217.05 215.95 180.8L216.45 180.75M295.45,271.2Q304.2 291 302.4 315.5Q300.5 342.1 282.2 360.45Q260 379.5 243.8 359.85Q240 355.25 239.4 348.95Q235.5 307.4 243.2 268.95Q244.25 305.55 246.55 343.1Q247.55 359.8 264.55 354Q278.15 349.35 287.7 339.45Q300.95 307.9 294.35 273.35Q294.05 271.95 295.45 271.2" />
</g>
</svg>
