<?xml version="1.0" encoding="utf-8"?>
<svg version="1.1" id="Layer_1"
xmlns="http://www.w3.org/2000/svg"
xmlns:xlink="http://www.w3.org/1999/xlink"


xml:space="preserve">
q-0.4 1.45 -0.3 3q0.05 1.15 0.55 2.25q-6.25 51.25 -6.1 105.35q0.15 59.95 -3.65 119.2q-1.95 30 -5.8 59.75q-1.85 14.45 5.7 22q5.55 -37 7.15 -75.7q1.45 -34.7 2.5 -69.6q18.35 3.4 32.1 -9.4q24.85 -23.15 27.7 -57.15q2.45 -28.9 -4.95 -56.8q-9.3 -35.15 -41.3 -48.5q4.95 20.05 2.3 40.8q-2.8 21.55 -15.1 39.35q-12.5 18.05 -35.5 17.95q22.5 -2 39.4 12.95q16.85 14.85 22.25 36.9q-25.25 2.35 -50.2 2.1q15.3 -56.45 33.5 -111.4q4 -11.95 5.5 -23.75q6 42.3 8.05 85.1q1.15 24.05 3.15 47.95q0.95 16.9 8.95 28.6q1.55 -0.65 1.5 -2.25q-0.9 -36.5 -6.4 -73.4q-8.7 -58.45 -12 -117.8q-3.35 -59.35 -14.6 -117q-0.55 0.5 -0.95 1.1q-5.45 6.8 -8.4 16.75q-16.8 56.55 -32.15 114.55q-15.2 57.25 -31.9 114.2q-4.15 14.1 -10.65 27.45q-8.95 18.45 -5.15 36q12.3 -16 17.85 -37.9q13.2 -52.25 27.25 -104.3q27.5 3.6 54.75 -0.05q2.6 27.9 6.3 55.7q3.95 29.5 5.65 59.2q-5.1 43.15 -6.4 87q-1 29 -4.8 57.65q-1.7 -6 -4.05 -11.95q-7.7 -19.55 -14.2 -39.65q-18.05 -55.95 -38.55 -111.8q-20.5 -55.9 -33.35 -112.95q-0.75 2 -1.25 4.15q-3.35 5.1 -3.7 12.55q-2.15 47.8 -4.7 95.35q-3.1 59.45 -8.55 118.35q-2.7 29.55 -6.2 59.1q-2.1 17.5 4.95 29.2q5.95 -38.65 8.65 -78.65q4 -59 7.45 -118.45q2.8 -48.15 2.6 -95.3q9.85 40.6 23.3 80.85q8.05 24 17.9 47.75q22.85 54.95 37.95 111.9q2.8 10.65 4.2 21.65q2.1 16.2 10.15 27.75q0.75 -0.6 0.85 -1.3q0.4 -4.35 0.45 -8.7q2.35 -2.85 2.6 -6.7q3.45 -59.2 5.2 -118.5q0.75 -26.1 2 -51.7q2.95 -59.95 2.95 -118.55q-1.9 -0.2 -2.15 1.75<g id="1341" transform="matrix(1, 0, 0, 1, -81.7, 0)">
<path style="fill:#000000;fill-opacity:1" d="M382.95,109.75L406.45 108.75Q438.45 122.1 447.75 157.25Q455.15 185.15 452.7 214.05Q449.85 248.05 425 271.2Q411.25 284 392.9 280.6L381.1 278.65Q380.05 313.55 378.6 348.25Q377 386.95 371.45 423.95Q363.9 416.4 365.75 401.95Q369.6 372.2 371.55 342.2Q375.35 282.95 375.2 223Q375.05 168.9 381.3 117.65L379.95 117Q379.45 115.9 379.4 114.75Q379.3 113.2 379.7 111.75L379.95 111L382.95 109.75M421.8,130.95Q404.9 116 382.4 118L381.5 264.8L395.75 265.95Q418.75 266.05 431.25 248Q443.55 230.2 446.35 208.65Q449 187.9 444.05 167.85Q438.65 145.8 421.8 130.95M324.65,215.3Q322.6 172.5 316.6 130.2Q315.1 142 311.1 153.95Q292.9 208.9 277.6 265.35Q302.55 265.6 327.8 263.25Q325.8 239.35 324.65 215.3M335.35,333.15Q331.65 305.35 329.05 277.45Q301.8 281.1 274.3 277.5Q260.25 329.55 247.05 381.8Q241.5 403.7 229.2 419.7Q225.4 402.15 234.35 383.7Q240.85 370.35 245 356.25Q261.7 299.3 276.9 242.05Q292.25 184.05 309.05 127.5Q312 117.55 317.45 110.75L317.5 111.6Q317.9 111 318.45 110.5Q329.7 168.15 333.05 227.5Q336.35 286.85 345.05 345.3Q350.55 382.2 351.45 418.7Q351.5 420.3 349.95 420.95Q341.95 409.25 341 392.35Q339.3 362.65 335.35 333.15M215.45,113.75Q215.45 172.35 212.5 232.3Q211.25 257.9 210.5 284Q208.75 343.3 205.3 402.5Q205.05 406.35 202.7 409.2L202.25 408.45Q202.2 412.8 201.8 417.15Q201.7 417.85 200.95 418.45Q192.9 406.9 190.8 390.7Q189.4 379.7 186.6 369.05Q171.5 312.1 148.65 257.15Q138.8 233.4 130.75 209.4Q117.3 169.15 107.45 128.55Q107.65 175.7 104.85 223.85Q101.4 283.3 97.4 342.3Q94.7 382.3 88.75 420.95Q81.7 409.25 83.8 391.75Q87.3 362.2 90 332.65Q95.45 273.75 98.55 214.3Q101.1 166.75 103.25 118.95Q103.6 111.5 106.95 106.4Q107.45 104.25 108.2 102.25Q121.05 159.3 141.55 215.2Q162.05 271.05 180.1 327Q186.6 347.1 194.3 366.65Q196.65 372.6 198.35 378.6Q202.15 349.95 203.15 320.95L206.9 202.5Q208.2 158.65 213.3 115.5Q213.55 113.55 215.45 113.75" />
</g>
</svg>
