<?xml version="1.0" encoding="utf-8"?>
<svg version="1.1" id="Layer_1"
xmlns="http://www.w3.org/2000/svg"
xmlns:xlink="http://www.w3.org/1999/xlink"


xml:space="preserve">
q-10.35 53.65 -15.5 108.65q-2.8 29.85 -9.65 58.85q-3.15 13.3 3.2 21.15q8.75 -35.3 12.8 -71.9q4.45 -41 7.4 -81.45q0.5 4 1.35 8.1q7.1 34.05 11.35 68.45q1.9 15.15 8.05 26.8q1.5 -1.1 1.95 -3q0.65 -3.15 0.8 -6.25q6.65 -20.6 10.35 -42.6q2.65 -15.85 7.35 -31.1q6.2 -20.15 7.8 -40q-0.25 16.2 4.7 32.55q17.2 56.5 21.45 115.25q0.95 13.35 7.1 20.65q2.55 -33.05 -4.15 -66.9q-11.5 -58.05 -27.35 -114.55q-0.75 0.1 -0.75 0.35q-8.15 22.7 -14.2 47.85q-6 25.1 -12.7 49.85q-1.6 5.95 -2.5 11.7q-11.05 -51.9 -18.6 -103.9q-0.5 -0.65 -1.15 -0.75q-6.7 70.45 -6.4 142.3q0 3.7 -0.4 7.45q-0.2 2.05 -0.25 4.15q-0.1 3.95 0.1 7.9q0.4 9.25 4.25 17.4q8 -78.5 7.5 -158.85q18.5 82.3 53.95 157.6q12.7 -90.75 8.25 -182.7q-10.35 85.4 -11.3 171.25q-20.2 -31.1 -37.45 -70.25q-3.15 14 4.95 31.15q-19.65 24.75 -4.6 53.3q1.7 3.15 3.75 6.15q15.2 3.7 28.55 -3.95q6.25 -11.3 1 -24.5q-1.75 -4.3 -4.25 -7.2q-5.65 2.35 -11.85 2.5q-0.5 -9.75 3.05 -19.2<g id="1342" transform="matrix(1, 0, 0, 1, -137.05, 0)">
<path style="fill:#000000;fill-opacity:1" d="M342.2,187.25Q349.75 239.25 360.8 291.15Q361.7 285.4 363.3 279.45Q370 254.7 376 229.6Q382.05 204.45 390.2 181.75L390.2 191.85L390.7 187.35Q390.7 187.1 391.45 187Q407.3 243.5 418.8 301.55Q425.5 335.4 422.95 368.45Q416.8 361.15 415.85 347.8Q411.6 289.05 394.4 232.55Q389.45 216.2 389.7 200Q388.1 219.85 381.9 240Q377.2 255.25 374.55 271.1Q370.85 293.1 364.2 313.7Q364.05 316.8 363.4 319.95Q362.95 321.85 361.45 322.95L361.2 322.5L360.95 323.2L360.65 321.45Q354.5 309.8 352.6 294.65Q348.35 260.25 341.25 226.2Q340.4 222.1 339.9 218.1Q336.95 258.55 332.5 299.55Q328.45 336.15 319.7 371.45Q313.35 363.6 316.5 350.3Q323.35 321.3 326.15 291.45Q331.3 236.45 341.65 182.8L342.2 182.5L341.85 188.5L342.2 187.25M147.7,185.85L201.9 353.75Q202.85 267.9 213.2 182.5Q217.65 274.45 204.95 365.2L204.55 364.6L204.45 365.2L202.95 368.45Q167.5 293.15 149 210.85Q149.5 291.2 141.5 369.7Q137.65 361.55 137.25 352.3Q137.05 348.35 137.15 344.4Q137.2 342.3 137.4 340.25L138.15 332.85Q138.55 329.1 138.55 325.4Q138.25 253.55 144.95 183.1L146.35 183Q147 183.1 147.5 183.75L147.7 185.85M291.7,341.5Q294.2 344.4 295.95 348.7Q301.2 361.9 294.95 373.2L288.15 362.45L286.75 363.25Q273.4 370.9 258.2 367.2Q256.15 364.2 254.45 361.05Q239.4 332.5 259.05 307.75L257.4 303.85Q249.3 286.7 252.45 272.7Q269.7 311.85 289.9 342.95L291.7 341.5M258.7,321.7L256.75 326.5Q253.2 335.95 253.7 345.7L257.2 351.7L260.3 352.55L269.4 353.35Q275.6 353.2 281.25 350.85L262.2 317.95L258.7 321.7" />
</g>
</svg>
