<?xml version="1.0" encoding="utf-8"?>
<svg version="1.1" id="Layer_1"
xmlns="http://www.w3.org/2000/svg"
xmlns:xlink="http://www.w3.org/1999/xlink"


xml:space="preserve">
q-2.15 50 -1.5 100.7q-19.6 0 -38.4 6.2q2.35 -59.95 -0.55 -118.5q-4.5 19.5 -5.15 42.5q-1.7 59.6 -4 119.2q-2.25 59.8 -3.6 118.5q1.55 2 3.75 0.75q2.75 -22.4 7.1 -44.65q0.5 -6.4 2.4 -12.25q-1.95 7.35 -3.65 14.8q21.1 -0.4 43.65 -3.7q0.45 54.6 -3.4 107.55q-0.3 -5.2 -1.55 -10.05q0.7 3.25 -0.3 6.65q1 6.2 -0.2 12.6q-3.55 19.05 3.3 34.5q2.05 -0.6 2.35 -2.8q5.7 -43.05 7.5 -86.9q2.5 -59.4 -0.15 -119.25q-0.7 -14.95 1 -29.85q2.6 -23.15 -1.2 -44.4q-5.6 6.75 -6.05 17.65q-13.8 43.35 -20.8 90.8q-8.6 58.35 -21.2 115.95q-5.5 18.9 -10.95 41.8q-3.7 15.5 3.95 25.9q2.05 -1.2 2.7 -3.7q3.1 -11.8 5.45 -23.7q9.75 -49.2 18.7 -98.6q19.85 -3.85 40.85 -4.2q8.95 57.95 16 116.2q1.1 2.7 3.75 2q0.4 -0.35 0.4 -0.75q2.05 -26.95 -1.15 -54.7q-9.15 -52.4 -18.05 -105.9q-9.75 -58.35 -20.7 -116.1q2.6 -16.25 16 -25.95q3.7 -2.7 7.5 -5.25q11.7 6.6 16.95 18.8q7.3 -22.65 -14.3 -35.3q-4.6 -2.65 -10.2 -3.45q-36.9 20.3 -31.05 63.85q6.05 44.8 27.45 85.15q18.55 35 18.85 74.75q0.1 10.75 -3.85 20.75q-4.1 10.35 -12.3 17.8q-5.15 4.7 -11.7 6.7q-7.55 2.25 -13.45 -3.2q-6.45 -5.9 -4.3 -13.55q-10.05 26.25 18 37.85q3.15 1.3 6.5 2.1q32.3 -20.9 34.5 -62.1q2.25 -41.25 -14.55 -79.25q-14.4 -32.45 -27.75 -65.5q-7.15 -17.65 -4.2 -36.4q9.4 43.8 16.9 88.05q-18.75 -0.9 -35.7 5.55q6.5 -36.35 13.95 -72.45q2.3 -11.15 3.6 -22.1q-3.45 25.05 -4 50.95q-0.85 30.1 -4.7 59.8q-3.1 23.35 2.45 44.4q1 -0.35 1.1 -0.85q6.8 -47.75 7.95 -96.6q0.7 -29.55 2.35 -59.2q2.05 -36.7 1.45 -73.1q1.3 5.25 3.1 10.55q19.05 56.8 29.35 115.9q10.15 57.9 20.7 114.05q1.75 0.2 1.85 -1.5q0.5 -11.45 0.2 -23q2.2 0.05 2.6 -2.25q5.7 -34.75 6.25 -70.45q0.9 -59.5 0.85 -119.25q0 -30.65 -1.75 -59.25q-1.75 -0.2 -1.9 1.55q-5.8 57 -4.25 115.45q1.4 52.55 -4 103.05q-1.25 -1.1 -0.85 2.05q-10.5 -55.8 -24.5 -111.3q-14.05 -55.4 -28.2 -109.6q9.85 11.3 16.35 25q4.4 -28.3 -19.5 -46.05q-7.2 -5.3 -15.75 -7.7q-36.5 21.1 -48.8 64.75q-10.15 36.15 -11.25 73.95q-1.65 57.4 20.35 109.6q8.25 19.65 28.15 26.1q12.75 4 25.6 1.35q8.5 -1.65 15.8 -6.25q8.15 -5.15 14.75 -12.3q4.15 -4.45 7.2 -9.85q-8.15 23.05 3.7 38.8q6.85 -44.35 2.15 -88.85q-2 1.4 -2.3 3.65q-0.55 4.2 -0.3 8.5q-9.75 22.1 -35.25 31q-16.25 5.7 -30.75 -4.5q-28.25 -19.8 -32.6 -55.3q-5.9 -48.2 2.55 -95.85q4.6 -25.8 16.4 -49.25q11.3 -24.3 33.4 -20.15q6.9 1.4 12 7.25<g id="1352" transform="matrix(1, 0, 0, 1, -55.25, 0)">
<path style="fill:#000000;fill-opacity:1" d="M521.45,112Q525.25 133.25 522.65 156.4Q520.95 171.3 521.65 186.25Q524.3 246.1 521.8 305.5Q520 349.35 514.3 392.4Q514 394.6 511.95 395.2Q505.1 379.75 508.65 360.7Q509.85 354.3 508.85 348.1Q509.85 344.7 509.15 341.45L509.15 341.15Q510.4 346 510.7 351.2Q514.55 298.25 514.1 243.65L513.7 244Q491.15 247.3 470.05 247.7L466.2 342.7Q467.9 335.25 469.85 327.9L469.85 328.25Q467.95 334.1 467.45 340.5L468.55 341.8Q464.2 364.05 461.45 386.45Q459.25 387.7 457.7 385.7Q459.05 327 461.3 267.2Q463.6 207.6 465.3 148Q465.95 125 470.45 105.5Q473.35 164.05 471 224L470.55 235.7Q489.35 229.5 508.95 229.5L513.45 229.75L513.9 230.35Q513.25 179.65 515.4 129.65Q515.85 118.75 521.45 112M336.45,109.5Q347.4 167.25 357.15 225.6Q366.05 279.1 375.2 331.5Q378.4 359.25 376.35 386.2Q376.35 386.6 375.95 386.95Q373.3 387.65 372.2 384.95Q365.15 326.7 356.2 268.75L354.15 255.75Q333.15 256.1 313.3 259.95Q304.35 309.35 294.6 358.55Q292.25 370.45 289.15 382.25Q288.5 384.75 286.45 385.95Q278.8 375.55 282.5 360.05Q287.95 337.15 293.45 318.25Q306.05 260.65 314.65 202.3Q321.65 154.85 335.45 111.5L335.5 112.55L336.45 109.5M399.65,186.35Q413 219.4 427.4 251.85Q444.2 289.85 441.95 331.1Q439.75 372.3 407.45 393.2Q404.1 392.4 400.95 391.1Q372.9 379.5 382.95 353.25L385.75 353.25L388.6 356Q386.45 363.65 392.9 369.55Q398.8 375 406.35 372.75Q412.9 370.75 418.05 366.05Q426.25 358.6 430.35 348.25Q434.3 338.25 434.2 327.5Q433.9 287.75 415.35 252.75Q393.95 212.4 387.9 167.6Q382.05 124.05 418.95 103.75Q424.55 104.55 429.15 107.2Q450.75 119.85 443.45 142.5L442.05 139.05Q436.8 126.85 425.1 120.25L418.95 118.75Q415.15 121.3 411.45 124Q398.05 133.7 395.45 149.95Q392.5 168.7 399.65 186.35M333.95,148.15Q332.65 159.1 330.35 170.25Q322.9 206.35 316.4 242.7L315.9 245.65Q332.85 239.2 351.6 240.1Q344.1 195.85 334.7 152.05L333.95 148.15M205.45,101.75L205.6 102.3L206.45 102.25L206.75 106.6Q220.9 160.8 234.95 216.2Q248.95 271.7 259.45 327.5Q259.05 324.35 260.3 325.45L260.45 326L261.3 332.55Q266.7 282.05 265.3 229.5Q263.75 171.05 269.55 114.05Q269.7 112.3 271.45 112.5Q273.2 141.1 273.2 171.75Q273.25 231.5 272.35 291Q271.8 326.7 266.1 361.45Q265.7 363.75 263.5 363.7Q263.8 375.25 263.3 386.7Q263.2 388.4 261.45 388.2Q250.9 332.05 240.75 274.15Q230.45 215.05 211.4 158.25Q209.6 152.95 208.3 147.7Q208.9 184.1 206.85 220.8Q205.2 250.45 204.5 280Q203.35 328.85 196.55 376.6Q196.45 377.1 195.45 377.45Q189.9 356.4 193 333.05Q196.85 303.35 197.7 273.25L200.55 154.75Q201.1 128.85 204.55 103.8L204.85 102.9L204.95 101.8L205.45 101.75M123.85,118.25Q101.75 114.1 90.45 138.4L85.05 148.85Q73.25 172.3 68.65 198.1Q60.2 245.75 66.1 293.95Q70.45 329.45 98.7 349.25Q113.2 359.45 129.45 353.75Q154.95 344.85 164.7 322.75L163.3 324.15L164.45 319.5Q164.2 315.2 164.75 311Q165.05 308.75 167.05 307.35L143.45 304.5L144.2 294.75L176.45 290.75Q181.15 335.25 174.3 379.6Q162.45 363.85 170.6 340.8L168.75 344.1Q165.7 349.5 161.55 353.95Q154.95 361.1 146.8 366.25Q139.5 370.85 131 372.5Q118.15 375.15 105.4 371.15Q85.5 364.7 77.25 345.05Q55.25 292.85 56.9 235.45Q58 197.65 68.15 161.5Q80.45 117.85 116.95 96.75Q125.5 99.15 132.7 104.45Q156.6 122.2 152.2 150.5Q145.7 136.8 135.85 125.5Q130.75 119.65 123.85 118.25M170.75,306.95L171.95 309.95L171.95 306.75L170.75 306.95" />
</g>
</svg>
