<?xml version="1.0" encoding="utf-8"?>
<svg version="1.1" id="Layer_1"
xmlns="http://www.w3.org/2000/svg"
xmlns:xlink="http://www.w3.org/1999/xlink"


xml:space="preserve">
q4.2 17.9 12.55 35.4q-24.8 16.45 -19.65 47.1q4.15 24.7 30.3 17.8q14 -3.7 17.45 -11.95q6.7 11.7 14.4 20.55q5.4 -15.25 -6.95 -29.3q-11.85 -13.5 -18.8 -29.9q-11.65 -27.55 -27.25 -52.25q-2.3 0.05 -1.7 2.55q-4.85 6.75 -13.05 8.2q-29.4 5.1 -20.3 -22.25q4.35 -13.15 18.1 -15.05q-7.85 40.35 -8.55 83.2q-0.5 33.25 -5.7 65.75q-3.75 23.1 -0.35 44.45q1.1 -0.35 1.25 -1q9.25 -36.4 10.75 -74.7q1.95 -48.8 2.75 -96.55q1.4 9 5.55 18q11.25 24.4 23.3 48.6q27.45 55.2 58.85 104.65q1.85 -2.55 2.3 -5.5q2.75 -5.45 0.95 -11.75q4.6 -56.4 6.9 -113.2q1.25 -30.5 -0.65 -59.25q-3.35 3.15 -3.7 8.9q-3.65 58.9 -5.85 118.55q-0.55 15.05 -2.9 29.85q-0.55 3.4 -0.7 6.6q-1.7 -3.25 -3.75 -6.4q-15.85 -23.9 -29.25 -49.55q-27.7 -52.9 -50.55 -107.2<g id="1339" transform="matrix(1, 0, 0, 1, -147.85, 0)">
<path style="fill:#000000;fill-opacity:1" d="M328.45,262.5Q344.05 287.2 355.7 314.75Q362.65 331.15 374.5 344.65Q386.85 358.7 381.45 373.95Q373.75 365.1 367.05 353.4Q363.6 361.65 349.6 365.35Q323.45 372.25 319.3 347.55Q314.15 316.9 338.95 300.45L339.3 300.45Q330.95 282.95 326.75 265.05Q326.15 262.55 328.45 262.5M346,313.75Q332.25 315.65 327.9 328.8Q318.8 356.15 348.2 351.05Q356.4 349.6 361.25 342.85L346 313.75M166.5,180.75Q189.35 235.05 217.05 287.95Q230.45 313.6 246.3 337.5Q248.35 340.65 250.05 343.9Q250.2 340.7 250.75 337.3Q253.1 322.5 253.65 307.45Q255.85 247.8 259.5 188.9Q259.85 183.15 263.2 180Q265.1 208.75 263.85 239.25Q261.55 296.05 256.95 352.45Q258.75 358.75 256 364.2Q255.55 367.15 253.7 369.7Q222.3 320.25 194.85 265.05Q182.8 240.85 171.55 216.45Q167.4 207.45 166 198.45Q165.2 246.2 163.25 295Q161.75 333.3 152.5 369.7Q152.35 370.35 151.25 370.7Q147.85 349.35 151.6 326.25Q156.8 293.75 157.3 260.5Q158 217.65 165.85 177.3L166.25 177.25L166.2 180.8L166.5 180.75" />
</g>
</svg>
