<?xml version="1.0" encoding="utf-8"?>
<svg version="1.1" id="Layer_1"
xmlns="http://www.w3.org/2000/svg"
xmlns:xlink="http://www.w3.org/1999/xlink"


xml:space="preserve">
q-11.35 -1.75 -23.25 -2.35q-21.85 -0.9 -43.3 -0.9q-3.8 0.8 -6.3 3.55q-2.95 28.1 -4.25 56.4q-0.55 11.4 -1.5 22.75q-2.8 32.4 0.1 64.35q0.4 4.5 2.4 6.6q1.45 -2.7 1.75 -6.2q4.8 -66.65 2.6 -133.45q1.55 -1.45 1.85 -3.5q-14.1 10.2 -16.85 28.4q-7.75 50.9 -7.75 103.6q0 59.75 -3.7 119.2q-0.9 14.2 -2.5 28.35q-2.9 26.2 12.05 45.15q4.2 -3.05 7.55 -7q8.85 -10.45 15.05 -22.8q-2.6 17.05 4.1 29.5q14.6 0.3 24.55 -11.3q29.25 -34.2 34.1 -79.85q4.65 -43.95 5.8 -88.6q1.55 -60.4 -10.5 -118.3q-6.65 -31.95 -38.2 -34.4q-0.55 0.15 -1.05 0.55q-0.65 1.85 -0.9 3.75q-0.25 2.3 0.1 4.45q-6.55 50.6 -8 102.3q-0.85 26.05 -3.8 51.75q-1.05 -4.5 -4.3 -8.3q-1.7 2 -2.5 4.5q-0.45 1.5 -0.5 3q-1.2 1.45 -1.85 3.05q-5.4 17.05 -18.75 28.5q-4.4 -39.4 -1.1 -79.5q2.15 -26.55 3.2 -53.3q11.95 2 23.65 -0.2q4.3 -8 -0.85 -14.95q-11.7 0.2 -22.95 2.3q0.7 -26.05 0.35 -52.25q-0.2 -15.05 -1 -29.95q-1.95 -36.65 17.85 -64.55q1.8 0.95 2.35 2.85q2.2 7.9 7.65 11.9q1.85 -1.3 1.55 -3.75q-1.65 -13.1 -10.05 -23.25q1.25 16 -0.15 32.25q-16.05 -3.6 -30.05 3.85q-9.55 41.65 -8.9 86.85q0.15 8.45 -0.2 16.95q-0.5 13.05 4.35 25.15q12.5 -4.7 26.25 -3q-4.95 31.8 -1.35 63.7q11.3 -11.35 9.6 -31.05q-1.25 -14.6 -0.25 -29.45q3 -44.1 2.65 -88.2q-10.85 15.5 -9.1 38.25q-32.15 29.4 -6.95 64.5q12.9 17.85 10.45 40.5q-1.4 12.6 -12.35 18.35q-10.5 5.55 -22.4 2.65q-8.6 7.7 -0.95 20.5q45.4 3.05 45.95 -45.4q0.2 -19.15 -11.3 -34.25q-11.1 -14.5 -13.65 -32.55q3.6 -14.1 16.25 -18.25q5.25 2.7 6.7 8.8q3.25 -16.15 -11.5 -22.75q-0.15 -2.15 -0.95 -4.15q0.9 -59.85 -6.1 -118.7q-6.95 -58.7 -14.55 -116.8q-0.8 -0.15 -0.95 0.4q-7.25 25.75 -10.1 52.7q-6.2 58.15 -12.9 116.3q-6.7 58.75 -15.15 117.25q-8.5 59.1 -19.8 117.8q-5.65 29.35 -15.15 57.65q-4.7 14 3.8 20.85q11.85 -35.8 18.3 -73.25q10 -58.05 18.7 -116.25q21 -0.75 42.7 1.55q1.75 37.95 2.9 76q1.8 58.7 6.85 117q0.65 7.55 0.1 14.9q-1 14.15 7.4 20.85q1.2 -1.25 1.2 -3q-1.2 -41.45 -3.8 -83.3q-0.8 -12.9 -1.05 -25.8q1.15 -2.6 0.9 -5.8q-19.35 11 -19.95 35.75q-0.7 31.6 -3.35 62.9q-2.55 29.85 5.15 58.3q1.5 5.75 7 6q13.35 0.7 23.4 -10.6q12.25 -13.8 4.25 -26.6q-4.1 4.5 -7.55 9.9q-8.75 13.7 -21.95 10.6q-1.35 -1.6 -1.45 -3.75q-2.3 -52.1 0.5 -105q1.1 -21.25 19.7 -22.5q1.95 1.2 2.95 3.2q0.85 1.8 2.55 2.05q1.6 -1.9 1.8 -4.5q0.65 -8.45 -5.55 -14.25q-2 -0.25 -3.7 -1.1q-1.65 -0.8 -3.8 -0.4q-7.25 26.55 -20.5 51q1.05 -35.15 -0.3 -69.9q-6 35.9 -6.95 73.4q-0.75 29.95 -6.75 59q-3.45 16.7 1.85 30q8.25 -20.55 10.05 -44.6q6.05 -11.35 11.45 -22.95q3.6 46.85 18.05 90.85q5.9 -5.05 3.85 -13.3q9.55 -23.55 9.75 -47.65q-6.65 6.5 -9.45 16.65q1.75 -17.4 0.95 -33.9q29.05 4.7 34.4 34.4q9.05 50.05 8.6 101.8q-0.5 60.55 -14.4 118.55q-8.35 34.8 -38.6 45.45q-0.15 -1.55 -0.75 -3q3.3 -59.1 3.65 -118.6q0.3 -59.7 5.15 -118.55q0.95 -11.2 2.05 -22.25q3.3 22.3 6.1 44.7q6.4 51.4 6.9 103.65q0.2 18.35 1.1 36.65q-13.85 -2.2 -28.1 -2.35q-6.45 0.1 -12.3 2.4q4.2 -32 7.75 -64.05q6.55 -58.95 14.35 -117.55q1.65 -12.35 2.6 -24.55q-3.95 51.75 -5.1 104.25q-1.35 59.45 -5.4 118.45q-4 59.25 -9.6 118.4q-2.7 28.4 -4.6 57.05q-9.35 -58.4 -17.65 -116.9q-8.3 -58.35 -20.1 -116.05q-3 -14.75 -5.55 -29.65q-9.35 -54.4 -24.8 -106.65q-0.75 0.1 -0.75 0.35q-1.4 -0.05 -1.2 1.05q-4.95 47.7 -2.85 96.55q2.6 59.3 -0.15 118.45q-2.8 59.75 -6.9 119.3q-4.15 59.9 -12.7 119q-2.05 14.15 5.1 21.7q3.2 -5.8 3.8 -12.6q5.15 -58.75 9.55 -117.85q4.45 -59.05 7.3 -118.5q2.85 -59.5 1.1 -119.25q-1.35 -47.05 -1.95 -93.05q5.05 28.9 12 57.3q14.25 58.1 22.25 117.1q7.85 58.2 16.7 116.25q8.75 57.45 11.25 115.75q0.6 14 8.75 20.2q1.85 -3.1 1.8 -6.75q-0.1 -9.9 -0.85 -19.35q2.05 -42 5.75 -83.8q5.25 -59.15 9.1 -118.45q3.85 -58.95 6.1 -118.4q2.25 -59.9 -0.65 -118.55q-2.7 -26.35 -28.5 -28.7q-34.9 9.55 -41.8 46.85q-5.35 28.85 -6.65 58.55q-2.65 58.95 -2.65 118.6q-3.9 41.65 26.2 68q13.85 12.1 30.9 7.6q10.4 -2.75 17.15 -10.2q0.85 9.2 5.85 16.2q2.2 -15.75 2.4 -31.4q2.45 -8.75 -0.4 -16.2q-0.75 -12.2 -2.7 -24.35q-13.75 3.05 -27.7 4.5q-4.15 5.7 -0.25 11.25q-1.1 2.95 -0.8 6.35q-3.15 6.8 -8.5 11.8q-20.7 19.45 -43.4 -0.6q-8.05 -7.1 -10.65 -17.05q-10.25 -39.15 -7.9 -80.65q2.35 -42.05 2.5 -83.9q0.15 -41.6 20.45 -76.5q7.15 -7.05 16.1 -10.1q14.1 -4.85 22.45 6.15q6.95 9.2 10.4 18.45q2.6 -4.75 2.05 -10.55q-6.6 53 -6.65 107.65q0 14.95 -1.8 29.8q-1.95 16.5 2.85 29.95q0.85 -0.6 1 -1.4q5 -23.4 5.4 -47.85q13.4 -22.75 28.1 -44.95q10.95 37.8 20.8 76.6q4.05 16.05 12.3 27.1q2 -2.2 1.45 -5.1q-10.4 -53.15 -31.9 -102.55q11.5 -17.2 23.75 -34.05q9.25 -12.7 6.45 -25.55q-2.6 2.9 -5 6.1q0.35 -44.5 -0.25 -88.1q-0.85 -0.15 -0.9 0.35<g id="1347" transform="matrix(1, 0, 0, 1, -16.7, 0)">
<path style="fill:#000000;fill-opacity:1" d="M453.1,61.05L453.5 62.5L453.65 64L453.7 64.75L453.55 66.65L453.3 68.5Q453 70.55 451.45 72L407.65 68.95Q409.85 135.75 405.05 202.4L404.15 212.75Q403.85 216.25 402.4 218.95Q400.4 216.85 400 212.35Q397.1 180.4 399.9 148Q400.85 136.65 401.4 125.25Q402.7 96.95 405.65 68.85L346.45 66L345.45 57Q347.95 54.25 351.75 53.45Q373.2 53.45 395.05 54.35L428.95 56.4Q440.85 57 452.2 58.75L453.1 61.05M476.45,209.25Q484.85 219.4 486.5 232.5Q486.8 234.95 484.95 236.25Q479.5 232.25 477.3 224.35Q476.75 222.45 474.95 221.5L474.95 221.35L471.7 221.5Q451.9 249.4 453.85 286.05Q454.65 300.95 454.85 316Q455.2 342.2 454.5 368.25Q465.75 366.15 477.45 365.95Q482.6 372.9 478.3 380.9L477.7 381.7Q466 383.9 454.05 381.9Q453 408.65 450.85 435.2Q447.55 475.3 451.95 514.7L452.9 515.55L455.2 517.45L455.2 517.6L459.95 517.45Q473.3 506 478.7 488.95L478.1 488.5Q478.75 486.9 479.95 485.45Q480 483.95 480.45 482.45Q481.25 479.95 482.95 477.95Q486.2 481.75 487.25 486.25Q490.2 460.55 491.05 434.5L494.65 315.25Q496.1 263.55 502.65 212.95Q502.3 210.8 502.55 208.5Q502.8 206.6 503.45 204.75Q503.95 204.35 504.5 204.2L506.95 203.6L506.95 203.5Q538.5 205.95 545.15 237.9Q557.2 295.8 555.65 356.2Q554.5 400.85 549.85 444.8Q545 490.45 515.75 524.65Q505.8 536.25 491.2 535.95L489.65 534.1L488.45 537.2Q481.75 524.75 484.35 507.7L485.3 501.2L484.05 503.9Q477.85 516.25 469 526.7Q465.65 530.65 461.45 533.7L453.2 533.7Q438.25 514.75 441.15 488.55Q442.75 474.4 443.65 460.2Q447.35 400.75 447.35 341Q447.35 288.3 455.1 237.4Q457.85 219.2 471.95 209L476.45 209.25M436.2,209Q436.55 253.1 433.55 297.2Q432.55 312.05 433.8 326.65Q435.5 346.35 424.2 357.7Q420.6 325.8 425.55 294L422.5 293.85Q408.75 292.15 396.25 296.85L391.45 353.45Q386.6 341.35 387.1 328.3Q387.45 319.8 387.3 311.35Q386.65 266.15 396.2 224.5L396.9 283.35Q410.9 275.9 426.95 279.5Q428.35 263.25 427.1 247.25Q425.35 224.5 436.2 209M370.95,205.5Q385.7 212.1 382.45 228.25L379.7 230.75L378.4 226.3Q376.95 220.2 371.7 217.5Q359.05 221.65 355.45 235.75Q358 253.8 369.1 268.3Q380.6 283.4 380.4 302.55Q379.85 351 334.45 347.95Q326.8 335.15 335.4 327.45L337.7 330.75Q349.6 333.65 360.1 328.1Q371.05 322.35 372.45 309.75Q374.9 287.1 362 269.25Q336.8 234.15 368.95 204.75L370.95 205.5M324.85,307.75Q325.1 320.65 325.9 333.55L333.35 451.9Q335.95 493.75 337.15 535.2Q337.15 536.95 335.95 538.2Q327.55 531.5 328.55 517.35Q329.1 510 328.45 502.45Q323.4 444.15 321.6 385.45Q320.45 347.4 318.7 309.45Q297 307.15 276 307.9L270.2 348.7Q261.5 406.9 251.5 464.95Q245.05 502.4 233.2 538.2Q224.7 531.35 229.4 517.35Q238.9 489.05 244.55 459.7Q255.85 401 264.35 341.9Q272.8 283.4 279.5 224.65Q286.2 166.5 292.4 108.35Q295.25 81.4 302.5 55.65Q302.65 55.1 303.45 55.25L303.5 57.55L304.2 53.75Q311.8 111.85 318.75 170.55Q325.75 229.4 324.85 289.25L324.8 297.8Q325.6 299.8 325.75 301.95Q326 305.15 324.85 307.75M368.75,371.35Q370.45 372.2 372.45 372.45Q378.65 378.25 378 386.7Q377.8 389.3 376.2 391.2Q374.5 390.95 373.65 389.15Q372.65 387.15 370.7 385.95Q352.1 387.2 351 408.45Q348.2 461.35 350.5 513.45Q350.6 515.6 351.95 517.2Q365.15 520.3 373.9 506.6Q377.35 501.2 381.45 496.7Q389.45 509.5 377.2 523.3Q367.15 534.6 353.8 533.9Q348.3 533.65 346.8 527.9Q339.1 499.45 341.65 469.6Q344.3 438.3 345 406.7Q345.6 381.95 364.95 370.95Q367.1 370.55 368.75 371.35M438.45,373.45Q438.25 397.55 428.7 421.1L420.75 439.65L440.8 521.15Q442.85 529.4 436.95 534.45Q422.5 490.45 418.9 443.6Q413.5 455.2 407.45 466.55L406 489.1Q404.2 513.15 395.95 533.7Q390.65 520.4 394.1 503.7Q400.1 474.65 400.85 444.7Q401.8 407.2 407.8 371.3L408.2 371.2Q409.55 405.95 408.5 441.1Q421.75 416.65 429 390.1Q431.8 379.95 438.45 373.45M503.2,272.4Q498.35 331.25 498.05 390.95Q497.7 450.45 494.4 509.55L494.35 510.3L494.95 511.2L495.35 512Q495.95 513.45 496.1 515L496.2 516.45Q526.45 505.8 534.8 471Q548.7 413 549.2 352.45Q549.65 300.7 540.6 250.65Q535.25 220.95 506.2 216.25Q507 232.75 505.25 250.15Q504.15 261.2 503.2 272.4M302.35,89.35Q301.4 101.55 299.75 113.9Q291.95 172.5 285.4 231.45Q281.85 263.5 277.65 295.5Q283.5 293.2 289.95 293.1L289.95 293Q304.2 293.15 318.05 295.35L317.35 281.9Q316.45 263.6 316.25 245.25Q315.75 193 309.35 141.6Q306.55 119.2 303.25 96.9L302.35 89.35M236.2,53.25Q239.1 111.9 236.85 171.8Q234.6 231.25 230.75 290.2Q226.9 349.5 221.65 408.65Q217.95 450.45 215.9 492.45L217.15 506.6Q217.9 516.05 218 525.95Q218.05 529.6 216.2 532.7Q208.05 526.5 207.45 512.5Q204.95 454.2 196.2 396.75Q187.35 338.7 179.5 280.5Q171.5 221.5 157.25 163.4Q150.3 135 145.25 106.1L139.75 74.2Q140.35 120.2 141.7 167.25Q143.45 227 140.6 286.5Q137.75 345.95 133.3 405Q128.9 464.1 123.75 522.85Q123.15 529.65 119.95 535.45Q112.8 527.9 114.85 513.75Q123.4 454.65 127.55 394.75Q131.65 335.2 134.45 275.45Q137.2 216.3 134.6 157Q132.5 108.15 137.45 60.45L136 51.8Q135.8 50.7 137.2 50.75L138.15 53.85L138.7 49.1Q138.7 48.85 139.45 48.75L139.55 58.55Q155 110.8 164.35 165.2Q166.9 180.1 169.9 194.85Q181.7 252.55 190 310.9Q198.3 369.4 207.65 427.8L211.15 451.4Q213.05 422.75 215.75 394.35Q221.35 335.2 225.35 275.95Q229.4 216.95 230.75 157.5Q231.9 105 235.85 53.25L236.2 53.25M98.45,84.5Q95 75.25 88.05 66.05Q79.7 55.05 65.6 59.9Q56.65 62.95 49.5 70Q29.2 104.9 29.05 146.5Q28.9 188.35 26.55 230.4Q24.2 271.9 34.45 311.05Q37.05 321 45.1 328.1Q67.8 348.15 88.5 328.7Q93.85 323.7 97 316.9L97.05 316.2L96.6 314.25Q96.3 310.85 97.4 307.9L97.2 300L72.5 301.25Q68.6 295.7 72.75 290Q86.7 288.55 100.45 285.5Q102.4 297.65 103.15 309.85Q106 317.3 103.55 326.05Q103.35 341.7 101.15 357.45L100.7 358.2Q95.7 351.2 94.85 342Q88.1 349.45 77.7 352.2Q60.65 356.7 46.8 344.6Q16.7 318.25 20.6 276.6L20.9 269.25Q20.9 209.6 23.55 150.65Q24.85 120.95 30.2 92.1Q37.1 54.8 72 45.25Q97.8 47.6 100.5 73.95Q101.05 79.75 98.45 84.5M33.5,364.7Q34.1 408.3 33.75 452.8Q36.15 449.6 38.75 446.7L59 417.15L59.1 417L94.5 365.7Q97.3 378.55 88.05 391.25Q75.8 408.1 64.3 425.3Q85.8 474.7 96.2 527.85Q96.75 530.75 94.75 532.95Q86.5 521.9 82.45 505.85Q72.6 467.05 61.65 429.25Q46.95 451.45 33.55 474.2L33.4 483.2Q33 507.65 28 531.05Q27.85 531.85 27 532.45Q22.2 519 24.15 502.5Q25.95 487.65 25.95 472.7Q26 418.05 32.6 365.05Q32.65 364.55 33.5 364.7" />
</g>
</svg>
