<?xml version="1.0" encoding="utf-8"?>
<svg version="1.1" id="Layer_1"
xmlns="http://www.w3.org/2000/svg"
xmlns:xlink="http://www.w3.org/1999/xlink"


xml:space="preserve">
q-6.35 -0.25 -12.5 0.9q-1.9 2.05 -1.85 5.05q-3.15 27 -2.7 57q0.9 59.8 -0.95 119.25q-1.85 60 -8.7 119.1q-1.2 10.5 5.35 13.6q3.15 -8.55 3.9 -17.9q2.15 -26.45 3.3 -53.25q2.35 -53.9 3.75 -108.1q2.85 -3.55 2.5 -8.3q-0.3 -4.35 -3.75 -6.7q-9.95 0.8 -19.5 3.95q1.3 -55.65 -3.55 -109.9q0.25 1.05 0.8 1.95q19.95 3.6 40.75 3q2.3 -2.55 2.4 -6q-0.3 -1.65 -1.2 -3q-20.85 -2.4 -41.3 0.4q-2 114.3 -10.85 228.8q-2.95 37.75 1.9 73.6q0.25 2 1.7 3.8q9.65 -93.25 10.15 -187.3q3.6 -4.95 1.6 -11q-15.15 -5.15 -31.1 -2.05q2.7 -49 -0.5 -97.9q2.75 -5.65 -0.1 -11.2q3.4 59.55 -0.7 118.5q-4.05 59.15 -7.5 118.4q-0.85 14.9 -2.4 29.8q-1.75 17.45 4.7 29.2q4.65 -34.6 5.25 -70.5q1 -59.5 5.5 -118.5q4.6 -59.55 -1 -118.45q-4.3 3.95 -3.85 11.55q-0.8 59.8 -3.1 119.25q-2.25 59.65 -5.55 119.15q-0.8 14.7 -0.5 28.95q-1.5 -7.8 -3.7 -15.55q-7 -24.7 -12 -49.65q-11.65 -58.1 -33.25 -114.15q-5.35 -13.8 -8.1 -28.35q-6.75 -35.25 -21.7 -66.85q-1.25 1.6 -2.15 3.55q-1.8 1.55 -1.6 4.4q-0.95 3.55 -1.1 7.8q-1.15 37.6 -5.35 74.8q-6.55 58.6 -9.1 117.95q-1.3 29.6 -4.1 59.05q-2.15 23.2 1.2 44.4q1.1 -0.35 1.3 -1q6.35 -21.95 6.45 -45.5q0.2 -44.35 4.25 -88.35q5.35 -58.8 9.5 -117.85q1.25 -17.9 1.25 -35.15q12.7 44.8 26.95 89.9q9.15 29.05 17.15 58.6q7.6 28.05 14.7 56.15q7.2 28.5 11.15 57.7q2.2 16.5 10.5 27.5q1.45 -0.7 1.4 -2.25q4.75 -31.05 5.35 -63.15q1.05 -59.6 3.55 -119.15q2.55 -59.75 -0.45 -118.55q-2.55 1.8 -2.6 6<g id="1362" transform="matrix(1, 0, 0, 1, -88.9, 0)">
<path style="fill:#000000;fill-opacity:1" d="M397.45,109.6L398.2 110Q399.1 111.35 399.4 113L399.55 113.7L399.85 116.75Q399.75 120.2 397.45 122.75Q376.65 123.35 356.7 119.75Q356.15 118.85 355.9 117.8Q360.75 172.05 359.45 227.7Q369 224.55 378.95 223.75L388.45 224Q391.9 226.35 392.2 230.7Q392.55 235.45 389.7 239L359.15 239.95Q357.75 294.15 355.4 348.05Q354.25 374.85 352.1 401.3Q351.35 410.65 348.2 419.2Q341.65 416.1 342.85 405.6Q349.7 346.5 351.55 286.5Q353.4 227.05 352.5 167.25Q352.05 137.25 355.2 110.25L355.6 114.55Q355.55 111.55 357.45 109.5Q363.6 108.35 369.95 108.6L369.95 108.5L397.45 109.6M325.2,122L284.25 121.5Q287.45 170.4 284.75 219.4Q300.7 216.3 315.85 221.45L316.1 221.8L317.05 224Q319.05 230.05 315.45 235L284.1 231.15Q283.6 325.2 273.95 418.45Q272.5 416.65 272.25 414.65Q267.4 378.8 270.35 341.05Q279.2 226.55 281.2 112.25L282.65 111.15L283.2 106.5L283.55 110.85Q304 108.05 324.85 110.45L325.1 110.8Q327.95 116.35 325.2 122M240.45,107.75Q246.05 166.65 241.45 226.2Q236.95 285.2 235.95 344.7Q235.35 380.6 230.7 415.2Q224.25 403.45 226 386Q227.55 371.1 228.4 356.2Q231.85 296.95 235.9 237.8Q240 178.85 236.6 119.3Q236.15 111.7 240.45 107.75M205.2,108.25Q208.2 167.05 205.65 226.8Q203.15 286.35 202.1 345.95Q201.5 378.05 196.75 409.1L196.85 413.45Q196.9 415 195.45 415.7Q187.15 404.7 184.95 388.2Q181 359 173.8 330.5Q166.7 302.4 159.1 274.35Q151.1 244.8 141.95 215.75Q127.7 170.65 115 125.85Q115 143.1 113.75 161Q109.6 220.05 104.25 278.85Q100.2 322.85 100 367.2Q99.9 390.75 93.55 412.7Q93.35 413.35 92.25 413.7Q88.9 392.5 91.05 369.3Q93.85 339.85 95.15 310.25Q97.7 250.9 104.25 192.3Q108.45 155.1 109.6 117.5Q109.75 113.25 110.7 109.7Q110.5 106.85 112.3 105.3Q113.2 103.35 114.45 101.75L114.7 107.05Q129.65 138.65 136.4 173.9Q139.15 188.45 144.5 202.25Q166.1 258.3 177.75 316.4Q182.75 341.35 189.75 366.05Q191.95 373.8 193.45 381.6Q193.15 367.35 193.95 352.65Q197.25 293.15 199.5 233.5Q201.8 174.05 202.6 114.25Q202.65 110.05 205.2 108.25" />
</g>
</svg>
