<?xml version="1.0" encoding="utf-8"?>
<svg version="1.1" id="Layer_1"
xmlns="http://www.w3.org/2000/svg"
xmlns:xlink="http://www.w3.org/1999/xlink"


xml:space="preserve">
q1.3 69.7 13.6 138.35q2.4 13.35 6.95 26q2.2 6.05 6.35 8.35q-1.3 -43.1 -10.25 -86.55q-7.5 -36.2 -12.2 -72.7q-2 -15.55 -3.3 -30.75q-11.2 18.65 -14.6 42.65q-6 -54.9 -19.05 -108.45q-4.3 18.7 1.1 39.7q5.15 20.15 6.8 40.9q1.6 20.35 9.55 39.05q14.25 -38.4 20.95 -83.8q-9.6 52.8 -17.3 107.95q-4.1 29.55 -12.05 58.15q-4.45 16.05 1.1 29.35q5.45 -8.3 7.1 -19q4.6 -29.7 9.85 -59.25q10.35 -58.7 11.3 -117.2q-0.75 0.4 -1.35 1.05q-0.7 1.45 -0.1 2.7q-2.05 9 -2.3 19.3q-1.5 59.35 -5.25 118.5q-0.5 7.45 -2.1 14.6q-3.7 16.9 2.05 29.6q1.75 -1.85 2.1 -4.5q4.8 -33 6.65 -66.65q2.95 -52.85 1.5 -104.65q5.6 13.8 10.05 28.45q16.35 55.25 30.65 109.55q2.25 -0.85 1.95 -3.4q-6.55 -51.4 -21.45 -101.4q-4.35 -14.45 -8.3 -28.95q-8.25 -30.1 -24.8 -53.9q-3.45 7.1 1.5 11.8q7.4 -7.8 1.3 -14.4q-1.55 0.7 -3.25 2q2.5 -30.4 0 -59.35q-5.1 13.5 -5.4 30q-1.15 59.1 -4.45 118.45q-0.3 5.6 -1.65 10.9q-4.15 16.45 1.25 30.1q0.9 -0.6 1 -1.35q8.95 -54.3 8.55 -110.1q-0.05 -9.45 0.7 -18.65q-2.65 22.5 5.6 41.4q16.45 -9.5 13.75 -26.25q-8.2 9.55 -19.5 11.5q1.65 -37.4 -1.55 -73.5q-4 9.95 -3.95 22.75q0.05 12.3 -1.4 24.6<g id="1360" transform="matrix(1, 0, 0, 1, -147.75, 0)">
<path style="fill:#000000;fill-opacity:1" d="M385.55,219Q378.85 264.4 364.6 302.8L363.9 299.9Q355.95 281.2 354.35 260.85Q352.7 240.1 347.55 219.95Q342.15 198.95 346.45 180.25Q359.5 233.8 365.5 288.7L374.85 224.15Q378.25 200.15 389.45 181.5Q390.75 196.7 392.75 212.25Q397.45 248.75 404.95 284.95Q413.9 328.4 415.2 371.5Q411.05 369.2 408.85 363.15Q404.3 350.5 401.9 337.15Q389.6 268.5 388.3 198.8L385.55 219M331.9,298.2Q326.65 327.75 322.05 357.45Q320.4 368.15 314.95 376.45Q309.4 363.15 313.85 347.1Q321.8 318.5 325.9 288.95Q333.6 233.8 343.2 181Q342.25 239.5 331.9 298.2M163.35,181.8Q179.9 205.6 188.15 235.7Q192.1 250.2 196.45 264.65Q211.35 314.65 217.9 366.05Q218.2 368.6 215.95 369.45Q201.65 315.15 185.3 259.9L173.8 221.35Q169.35 206.7 163.75 192.9Q165.2 244.7 162.25 297.55Q160.4 331.2 155.6 364.2Q155.25 366.85 153.5 368.7Q147.75 356 151.45 339.1Q153.05 331.95 153.55 324.5Q157.3 265.35 158.8 206Q159.05 195.7 161.1 186.7L160.65 185.7Q160.05 184.45 160.75 183Q161.35 182.35 162.1 181.95L162.4 181.8L163.25 179L163.35 181.8M271.7,246.5Q273.4 245.2 274.95 244.5Q281.05 251.1 273.65 258.9L272.95 259Q268 254.3 271.45 247.2L271.7 246.5M229.5,259Q229.9 314.8 220.95 369.1Q220.85 369.85 219.95 370.45Q214.55 356.8 218.7 340.35Q220.05 335.05 220.35 329.45Q223.65 270.1 224.8 211Q225.1 194.5 230.2 181Q232.7 209.95 230.2 240.35Q229.45 249.55 229.5 259M269.25,302.7Q269.2 289.9 273.2 279.95Q276.4 316.05 274.75 353.45L274.7 354.2Q286 352.25 294.2 342.7Q296.9 359.45 280.45 368.95L273.45 368.7Q265.2 349.8 267.85 327.3Q269.3 315 269.25 302.7" />
</g>
</svg>
