<?xml version="1.0" encoding="utf-8"?>
<svg version="1.1" id="Layer_1"
xmlns="http://www.w3.org/2000/svg"
xmlns:xlink="http://www.w3.org/1999/xlink"


xml:space="preserve">
q-7.25 58.1 -9 117.45q-1.8 59.1 -3.25 118.45q-0.35 14.65 -2.9 28.8q-8 -32 -16.75 -63.95q-15.05 -54.5 -28.85 -108.5q-5.45 7.15 -5.7 18.25q-1.25 59.75 -8.15 118.65q-6.85 58.35 -8.45 117.55q-0.4 15.05 -2.9 29.8q-2.3 13.7 4.5 21.7q6.75 -33.95 6.55 -69.7q-0.25 -59.95 7.3 -118.6q5.9 -45.8 6.8 -90.95q11.05 42.8 20.7 86.2q12.75 57.45 28.65 114.35q3.95 14.2 6.05 28.8q2.3 16.1 10.4 27.5q4.05 -5.5 2.25 -12.65q6.05 -52.45 7.05 -106q1.05 -59.25 3.8 -118.5q1.4 -30.55 0.5 -59.25q-0.8 -0.15 -0.85 0.3q-0.25 20.6 -1.7 41.15q-3.75 51.55 -5.15 103.6q-1.2 44.55 -6.8 88.3q-1.85 14.15 5.15 21.65q5.75 -28.1 5.75 -57.75q-0.05 -59.65 4.65 -118.6q4.75 -59.8 4.1 -118.35q-5.8 18.1 -6 40q-3.15 39.9 -4.7 80.25q-2.25 59.2 -3.7 118.55q-0.75 30.2 -4.65 59.75q-2.3 17.4 4.35 29.2q42.75 6.9 86.25 1q4.3 -8 -0.85 -14.95q-18.75 -3.15 -34.85 1.65q2.95 -22.05 3.05 -44.95q0.35 -59.65 4.1 -118.55q3.85 -59.95 2.75 -118.4q-2.5 1.35 -2.8 4.7<g id="1374" transform="matrix(1, 0, 0, 1, -83.95, 0)">
<path style="fill:#000000;fill-opacity:1" d="M196.45,114.25Q197.35 142.95 195.95 173.5Q193.2 232.75 192.15 292Q191.15 345.55 185.1 398L185.7 400.55Q187.5 407.7 183.45 413.2Q175.35 401.8 173.05 385.7Q170.95 371.1 167 356.9Q151.1 300 138.35 242.55Q128.7 199.15 117.65 156.35L111.4 131.45Q110.5 176.6 104.6 222.4Q97.05 281.05 97.3 341Q97.5 376.75 90.75 410.7Q83.95 402.7 86.25 389Q88.75 374.25 89.15 359.2Q90.75 300 97.6 241.65Q104.5 182.75 105.75 123Q106 111.9 111.45 104.75L111.55 113.15Q125.35 167.15 140.4 221.65Q149.15 253.6 157.15 285.6L180.45 379.25Q183 365.1 183.35 350.45Q184.8 291.1 186.6 232Q188.35 172.65 195.6 114.55Q195.65 114.1 196.45 114.25M237.45,118.75Q238.1 177.3 233.35 237.1Q228.65 296.05 228.7 355.7Q228.7 385.35 222.95 413.45Q215.95 405.95 217.8 391.8Q223.4 348.05 224.6 303.5Q226 251.45 229.75 199.9Q231.2 179.35 231.45 158.75Q231.65 136.85 237.45 118.75M273.2,120.75Q274.3 179.2 270.45 239.15Q266.7 298.05 266.35 357.7Q266.25 380.6 263.3 402.65Q279.4 397.85 298.15 401L307 401.5L348.45 398.95Q353.6 405.9 349.3 413.9L348.7 414.7Q305.2 420.6 262.45 413.7L261.8 412.65L261.7 413.2Q255.05 401.4 257.35 384Q261.25 354.45 262 324.25Q263.45 264.9 265.7 205.7Q267.25 165.35 270.4 125.45Q270.7 122.1 273.2 120.75" />
</g>
</svg>
