<?xml version="1.0" encoding="utf-8"?>
<svg version="1.1" id="Layer_1"
xmlns="http://www.w3.org/2000/svg"
xmlns:xlink="http://www.w3.org/1999/xlink"


xml:space="preserve">
q-46.1 3.2 -91.5 3.5q-1 2.9 -0.6 5.95q0.1 1.15 0.6 2.2q27.7 2.85 55.4 3.05q-3.25 59.55 -5.05 119.3q-1.8 59.45 -8.15 118.3q-1.9 17.5 5.1 29.15q0.65 -0.75 0.9 -1.6q2.4 -8.3 2.95 -17.05q3.9 -59.05 5.75 -118.55q1.8 -59.3 5.6 -118.4q3.6 -55.85 1.85 -110.8q2.95 -5.4 0.95 -11.25q-0.45 -1.45 -1.7 -2.25q-4.7 15.1 -4.75 34q-0.15 58.9 -3.35 117.7q-3.25 59.2 -7.95 118.4q-4.75 59.45 -8.45 118.6q1 2.7 3.75 2q5.4 -17.25 6.65 -35.9q4 -59.1 7.2 -118.45q2.35 -44 0.75 -87.6q4.5 16.95 9.7 33.65q15.6 50.05 25.2 101.25q10.7 57.6 26.5 114.35q5.95 21.5 10.3 43.25q6 29.85 17.15 56.35q5.15 -5.8 4.15 -13.45q1.95 -2.5 2.1 -6.5q2 -59.35 3.35 -118.5q1.4 -59.65 3.6 -119.2q2.2 -59.95 1.3 -118.55q-5.55 14.75 -6.25 33.2q-2.55 59.3 -2.55 119.35q0 59.85 -4.4 119.15q-1.45 19.2 -0.95 37.65q-16.7 -57.15 -27.3 -115.35q-7.9 -43.6 -21.25 -85.7q-17.95 -56.7 -30.35 -114.25q-0.75 0 -0.75 0.15q-0.6 59.15 -0.95 118.5q-0.35 60 -3.75 119.3q-1.7 30.1 -5.1 59.8q-1.9 17 4.5 29.35q4.4 -9.15 4.65 -20.25q1.25 -59.2 3.35 -118.5q2.1 -59.45 3.6 -119.2q1.55 -60 0.4 -118.5q-6.4 22.65 -6.7 49.5q-3.3 19.65 -4.1 40.3q-2.35 59.45 -9.4 118.45q-2.1 17.35 4.55 29.15q3.1 -5 3.3 -11.25q1.05 -32.35 3.1 -64.55q4.85 -5.25 9.25 -10.85q6.3 24.95 10.8 50.6q5.35 30.65 18.45 56.5q2.6 -1.65 2 -4.8q-10.7 -54.25 -28.25 -106.2q4.9 -6.7 9.25 -13.9q8.55 -14.25 17.75 -27.55q11.7 -17 9.75 -34.55q-24.25 43.05 -55.45 82.75q1.2 -16 2.65 -31.95q2.75 -30.5 -0.8 -59.15q-0.75 0.1 -0.8 0.35<g id="1365" transform="matrix(1, 0, 0, 1, -78.1, 0)">
<path style="fill:#000000;fill-opacity:1" d="M433.2,95.55L441.45 96Q442.7 96.8 443.15 98.25Q445.15 104.1 442.2 109.5L396.75 111.3Q398.5 166.25 394.9 222.1Q391.1 281.2 389.3 340.5Q387.45 400 383.55 459.05Q383 467.8 380.6 476.1Q380.35 476.95 379.7 477.7Q372.7 466.05 374.6 448.55Q380.95 389.7 382.75 330.25Q384.55 270.5 387.8 210.95L392.85 111.3Q365.15 111.1 337.45 108.25L336.45 106.65Q335.95 105.6 335.85 104.45Q335.45 101.4 336.45 98.5Q381.85 98.2 427.95 95L433.2 95.55M177.7,93.9Q177.7 93.75 178.45 93.75Q190.85 151.3 208.8 208Q222.15 250.1 230.05 293.7Q240.65 351.9 257.35 409.05L266.9 442.05Q266.4 423.6 267.85 404.4Q272.25 345.1 272.25 285.25Q272.25 225.2 274.8 165.9L276.2 131.45Q276.9 113 282.45 98.25Q283.35 156.85 281.15 216.8Q278.95 276.35 277.55 336Q276.2 395.15 274.2 454.5Q274.05 458.5 272.1 461Q273.1 468.65 267.95 474.45Q256.8 447.95 250.8 418.1Q246.45 396.35 240.5 374.85Q224.7 318.1 214 260.5Q204.4 209.3 188.8 159.25Q183.6 142.55 179.1 125.6L178.15 121.45Q179.75 165.05 177.4 209.05Q174.2 268.4 170.2 327.5L162.35 445.3Q161.1 463.95 155.7 481.2Q152.95 481.9 151.95 479.2Q155.65 420.05 160.4 360.6Q165.1 301.4 168.35 242.2Q171.55 183.4 171.7 124.5Q171.75 105.6 176.45 90.5L177 98.4L177.7 93.9M316.45,98.5Q317.6 157 316.05 217Q314.55 276.75 312.45 336.2Q310.35 395.5 309.1 454.7Q308.85 465.8 304.45 474.95Q298.05 462.6 299.95 445.6Q303.35 415.9 305.05 385.8Q308.45 326.5 308.8 266.5Q309.15 207.15 309.75 148Q310.05 121.15 316.45 98.5M94.5,86Q98.05 114.65 95.3 145.15Q93.85 161.1 92.65 177.1L95 173.75Q126.2 134.05 150.45 91Q152.4 108.55 140.7 125.55Q131.5 138.85 122.95 153.1Q118.6 160.3 113.7 167Q131.25 218.95 141.95 273.2Q142.55 276.35 139.95 278Q126.85 252.15 121.5 221.5Q117 195.85 110.7 170.9Q106.3 176.5 101.45 181.75L92 199.75L91.15 198.45Q89.1 230.65 88.05 263Q87.85 269.25 84.75 274.25Q78.1 262.45 80.2 245.1Q87.25 186.1 89.6 126.65Q90.4 106 93.7 86.35Q93.75 86.1 94.5 86" />
</g>
</svg>
