<?xml version="1.0" encoding="utf-8"?>
<svg version="1.1" id="Layer_1"
xmlns="http://www.w3.org/2000/svg"
xmlns:xlink="http://www.w3.org/1999/xlink"


xml:space="preserve">
q-24.8 21.7 -9.3 53.2q20.15 40.9 27.4 86.15q1.05 6.55 -2.45 11.7q-11.85 17.45 -36.15 9.85q-6.85 -5.1 -10.05 -13q-6.35 -15.95 -9.7 -32q-5.5 5.85 -4.55 15.85q2.65 27.75 23.55 45.65q13.85 2.95 27.6 -0.15q8.05 -1.85 11.05 -9.45q11.65 -29.05 1.25 -60.15q-11.5 -34.45 -25 -68.6q-11.1 -28.15 19.6 -31.6q2.9 2 4.6 4.85q1.6 2.65 3.9 3.15q0.45 -17 -16.55 -17.5q-2.85 0.7 -5.25 2.8q-0.6 30 -4.5 59.75q-2.15 16.9 4.2 29.5q5.4 -35.4 6.5 -72.75q17.9 -2.65 36.2 -1.05q0 38.5 -0.7 77.05q-3.35 4.45 -1.25 9.75q2.15 3.6 5.5 3.5q3.75 -37.3 2.9 -75.75q1.3 -1 1.85 -2.7q1.75 -6.05 -2.1 -10.5q-0.35 -45.6 1.55 -90.15q-8.05 29.5 -7.75 62.5q-9.35 -0.8 -18.35 1.85q-2.7 0.85 -5 2.5q0.5 -44.25 -1.4 -87.85q-3.2 4.25 -3.4 11.25q-3.3 3.55 -3.4 9.75q-0.8 59.45 -4.6 118.45q-0.95 15 -3.3 29.8q-2.65 16.65 2.55 29.45q6.55 -30.95 7.3 -63.75q1.25 -52.45 3.2 -104.95q0.8 3.55 2.15 7.1q21.2 55.25 35.3 113.4q3.45 14.15 4.75 28.6q1.2 13.2 9 19.35q4.5 -30.85 7.55 -62.55q5.85 -59.55 5.1 -117.85q-5.3 18.2 -6.7 39.15q-3.7 54.35 -10.15 108.45q-4.35 -14.2 -7.65 -28.55q-13.45 -58.65 -38 -110.95q-3.9 8.15 -0.4 15.2q4.2 -7.45 0.65 -14.9q-0.6 -0.2 -0.85 0.3q-4.85 25.15 -7.25 50.75q-2.3 24.35 6.9 44.35q4.15 2.1 9 1.25q9.75 -11.05 5.75 -23q-4.25 4.25 -8.75 9.75q-5.2 2.95 -10.25 0.25q-0.3 -40.55 0.5 -80.25q-1 -0.2 -1.15 0.65<g id="1370" transform="matrix(1, 0, 0, 1, -134.3, 0)">
<path style="fill:#000000;fill-opacity:1" d="M335.95,184.75Q352.95 185.25 352.5 202.25L352.45 203Q350.15 202.5 348.55 199.85Q346.85 197 343.95 195Q313.25 198.45 324.35 226.6Q337.85 260.75 349.35 295.2Q359.75 326.3 348.1 355.35Q345.1 362.95 337.05 364.8Q323.3 367.9 309.45 364.95Q288.55 347.05 285.9 319.3Q284.95 309.3 290.45 303.45Q293.8 319.5 300.15 335.45Q303.35 343.35 310.2 348.45Q334.5 356.05 346.35 338.6Q349.85 333.45 348.8 326.9Q341.55 281.65 321.4 240.75Q305.9 209.25 330.7 187.55Q333.1 185.45 335.95 184.75M372.2,180.75Q374.1 224.35 373.6 268.6Q375.9 266.95 378.6 266.1Q387.6 263.45 396.95 264.25L409.65 264.8L409.45 237.5Q409.15 204.5 417.2 175Q415.3 219.55 415.65 265.15L419.45 265.5L420.2 266.25Q424.05 270.7 422.3 276.75Q421.75 278.45 420.45 279.45L415.85 278.8L416.1 292.7Q416.95 331.15 413.2 368.45Q409.85 368.55 407.7 364.95Q405.6 359.65 408.95 355.2Q409.65 316.65 409.65 278.15Q391.35 276.55 373.45 279.2L372.95 299.2Q371.85 336.55 366.45 371.95Q360.1 359.35 362.25 342.45Q366.15 312.7 366.75 282.7L368.8 192Q369 185 372.2 180.75M149.7,183.6L150 183Q174.55 235.3 188 293.95Q191.3 308.3 195.65 322.5L197.35 328.6Q203.8 274.5 207.5 220.15Q208.9 199.2 214.2 181Q214.95 239.3 209.1 298.85Q206.05 330.55 201.55 361.4L201.2 369.95Q193.4 363.8 192.2 350.6Q190.9 336.15 187.45 322Q173.35 263.85 152.15 208.6Q150.8 205.05 150 201.5Q148.05 254 146.8 306.45Q146.05 339.25 139.5 370.2Q134.3 357.4 136.95 340.75Q139.3 325.95 140.25 310.95Q144.05 251.95 144.85 192.5Q144.95 186.3 148.25 182.75L149.5 184.85L149.7 183.6M261.2,244.75Q264.75 252.2 260.55 259.65L259.95 260.25Q256.45 253.2 260.35 245.05Q260.6 244.55 261.2 244.75M260.45,272.45Q259.65 312.15 259.95 352.7L260.2 353.45Q265.25 356.15 270.45 353.2Q274.95 347.7 279.2 343.45Q283.2 355.4 273.45 366.45L267.95 369.45Q263.1 370.3 258.95 368.2Q249.75 348.2 252.05 323.85Q254.45 298.25 259.3 273.1Q259.45 272.25 260.45 272.45" />
</g>
</svg>
