<?xml version="1.0" encoding="utf-8"?>
<svg version="1.1" id="Layer_1"
xmlns="http://www.w3.org/2000/svg"
xmlns:xlink="http://www.w3.org/1999/xlink"


xml:space="preserve">
q-40.4 4.15 -81 1.5q-6.05 52.05 -6.5 104.5q-0.15 14.9 -3.25 29.5q-4.05 19.25 3.25 37.05q11.6 -57.1 8.95 -115.6q-1.25 -27.7 -1.2 -55.4q20.8 2.45 37.5 -5.2q0.2 -10 1.05 -19.9q2.5 -30.35 0.25 -59.35q-5.85 12.75 -6.2 29.5q-18.7 1.1 -35.75 7.65q-0.25 -29.45 -1.95 -58.65q-4.95 38.55 -5.4 79.7q-0.25 29.65 -3.65 59.05q-1.55 13.65 4.55 21.7q3.75 -19.7 4.6 -40.35q1.05 -24.35 1.1 -48.6q-0.4 7.5 -1.95 14.65q-3.8 17.5 3.7 29.35q7.75 -49.3 7.45 -100.55q2.75 -6.45 -1.2 -11.95q-0.75 0.1 -0.8 0.3q-4.4 41.6 -5.9 83.95q-1.3 37 -6.25 73.25q-2.35 17.35 4.2 29.2q5.25 -33.5 6.7 -68.2q2.45 -57.75 2.1 -114.5q12.6 44.3 28.05 88.6q7.35 21.15 13.4 42.55q8.15 28.7 19.7 54.3q0.65 -1.2 0.45 -2.85q5.05 -34.1 8.3 -69.15q5.55 -59.25 3.7 -117.8q-4.5 37.5 -8.45 77.15q-4.8 48 -5.8 95.5q-1.95 -10.25 -4.85 -20.5q-5.7 -20.2 -12.8 -40q-19.95 -56.05 -41.8 -110.4q-1.55 0.3 -2 1.45q-7.45 6.25 -4.8 15.7q1.4 3.9 4.75 5.35q8.3 -10.7 0.5 -20.95q3.35 0.1 0.5 4.15q-3.05 -1.8 -0.15 -3.95q0.75 -39.95 0.45 -78.75q-4.95 16.2 -5.9 35.55q-0.9 18.35 -3.05 36.55q-2.35 19.55 14.45 23.65q2 -1.65 4.5 -2.25q15.35 -12.3 11.75 -29q-7.1 8.45 -16.25 15.75q-0.25 -0.35 -0.2 -0.75<g id="1363" transform="matrix(1, 0, 0, 1, -133.2, 0)">
<path style="fill:#000000;fill-opacity:1" d="M373.7,195Q357 202.65 336.2 200.2Q336.15 227.9 337.4 255.6Q340.05 314.1 328.45 371.2Q321.15 353.4 325.2 334.15Q328.3 319.55 328.45 304.65Q328.9 252.2 334.95 200.15L291.7 194.25L291.45 186Q332.05 188.65 372.45 184.5L373.7 195M414.45,262.25Q418.4 267.75 415.65 274.2L415.2 274.95L414.15 275.15Q414.45 326.4 406.7 375.7Q399.2 363.85 403 346.35Q404.55 339.2 404.95 331.7L407.4 276.2L372.2 281.45Q372.15 305.7 371.1 330.05Q370.25 350.7 366.5 370.4L365.7 371.95Q359.6 363.9 361.15 350.25Q364.55 320.85 364.8 291.2Q365.25 250.05 370.2 211.5Q371.9 240.7 372.15 270.15Q389.2 263.6 407.9 262.5L409.25 212.5Q409.6 195.75 415.45 183Q417.7 212 415.2 242.35Q414.35 252.25 414.15 262.25L414.45 262.25M150.5,181.5Q172.35 235.85 192.3 291.9Q199.4 311.7 205.1 331.9Q208 342.15 209.95 352.4Q210.95 304.9 215.75 256.9Q219.7 217.25 224.2 179.75Q226.05 238.3 220.5 297.55Q217.25 332.6 212.2 366.7L212.2 366.8Q212.4 368.45 211.75 369.65L211 374.55L209.7 374.7L209.7 370.95Q198.15 345.35 190 316.65Q183.95 295.25 176.6 274.1Q161.15 229.8 148.55 185.5Q148.9 242.25 146.45 300Q145 334.7 139.75 368.2Q133.2 356.35 135.55 339Q140.5 302.75 141.8 265.75Q143.3 223.4 147.7 181.8Q147.75 181.6 148.5 181.5L148.5 182.95Q148.95 181.8 150.5 181.5M272.2,242.75Q280 253 271.7 263.7L269.95 265.25Q266.6 263.8 265.2 259.9L264.2 259Q261.55 249.55 269 243.3L269.95 242.5L272.2 242.75M269.85,255.95L270.45 256Q273.3 251.95 269.95 251.85L269.7 252Q266.8 254.15 269.85 255.95M269.2,355.2L274.95 355.95Q284.1 348.65 291.2 340.2Q294.8 356.9 279.45 369.2Q276.95 369.8 274.95 371.45Q258.15 367.35 260.5 347.8Q262.65 329.6 263.55 311.25Q264.5 291.9 269.45 275.7Q269.75 314.5 269 354.45Q268.95 354.85 269.2 355.2" />
</g>
</svg>
