<?xml version="1.0" encoding="utf-8"?>
<svg version="1.1" id="Layer_1"
xmlns="http://www.w3.org/2000/svg"
xmlns:xlink="http://www.w3.org/1999/xlink"


xml:space="preserve">
q0.1 2.35 1.8 3.75q19.1 0.45 38.15 -0.25q-5.1 30 -4.35 62.75q1.05 44.8 -3 89.05q-1.3 14.15 5.7 21.65q3.95 -32.1 4.5 -65.25q0.85 -55.05 -0.7 -108.25q23.55 -1 46.95 -3.7q2.15 -2.55 2.15 -6q0 -3.25 -1.65 -6q-0.35 -0.4 -0.8 -0.5q-4.05 -1.2 -8.45 -0.75q-39.85 2.6 -79.5 7.5q-0.95 2.9 -0.8 6q4.35 -14.5 0.75 -29.25q-7.75 13.25 -1.55 27.6q-0.7 36.45 -2.15 72.75q-5 3.3 -11 2.5q-4.5 -4.35 -9 -3.25q-2.6 7.3 0.65 14.2q4.1 1.9 7.75 4.5q5.6 0.9 10.75 -1.25q9.9 -19.95 8.2 -43.7q-1.75 -24.15 -3.85 -47.15q-3.05 0.6 -3.1 4.25q1.3 28.3 14.4 54.5q26.4 52.7 47.85 107.2q5.75 14.55 12.3 25.55q1.3 -1.05 1.5 -2.65q1.15 -0.35 1.25 -0.9q4.85 -32.6 7.5 -65.75q4.75 -59.7 1.25 -118.55q-5.9 17.1 -5.75 37.5q0.2 44.4 -5 88.3q-2.35 19.5 -1.35 38.35q-2.2 -8.85 -6.55 -17.35q-26.05 -53.05 -44.85 -108.65q-2.45 0 -2.35 2.45q-4.8 58.65 -3.9 118.45q0.35 22.7 -2.85 44.8q-2.4 16.5 2.6 29.95q2 -0.55 2.3 -2.7q5.45 -35.75 5.35 -72.8q-0.25 -60.05 -2.15 -118.45q-1.25 -0.3 -1.35 0.75q-12.5 4.55 -18.15 17.75q-8 18.55 -8.1 38.9q-0.15 22.15 16.7 35.85q18.8 15.25 37.4 -1.8q13.1 -11.95 3.95 -26.2q-26 27.15 -40.2 -1.85q-4.15 -8.5 -4.95 -18.2q2.55 -4.2 1.6 -9q-0.55 -2.75 -2.25 -4.9q-18.55 -0.2 -36.45 4.9q4.05 -15.6 14.95 -27.9q15.7 -3.1 29.3 6.6q-1.55 -27.15 -27.2 -17.75<g id="1387" transform="matrix(1, 0, 0, 1, -142, 0)">
<path style="fill:#000000;fill-opacity:1" d="M335.45,188.5Q375.1 183.6 414.95 181Q419.35 180.55 423.4 181.75Q423.85 181.85 424.2 182.25Q425.85 185 425.85 188.25Q425.85 191.7 423.7 194.25Q400.3 196.95 376.75 197.95Q378.3 251.15 377.45 306.2Q376.9 339.35 372.95 371.45Q365.95 363.95 367.25 349.8Q371.3 305.55 370.25 260.75Q369.5 228 374.6 198Q355.55 198.7 336.45 198.25Q334.75 196.85 334.65 194.5Q334.5 191.4 335.45 188.5M418.9,248.35Q412.7 234 420.45 220.75Q424.05 235.5 419.7 250L418.9 248.35M421.45,274.95Q423.55 297.95 425.3 322.1Q427 345.85 417.1 365.8L414.95 369.45Q409.8 371.6 404.2 370.7Q400.55 368.1 396.45 366.2Q393.2 359.3 395.8 352L396.2 351.2Q400.7 350.1 405.2 354.45Q411.2 355.25 416.2 351.95Q417.65 315.65 418.35 279.2Q418.4 275.55 421.45 274.95M155.5,179.5Q174.3 235.1 200.35 288.15L220.55 328.3Q224.9 336.8 227.1 345.65Q226.1 326.8 228.45 307.3Q233.65 263.4 233.45 219Q233.3 198.6 239.2 181.5Q242.7 240.35 237.95 300.05Q235.3 333.2 230.45 365.8Q230.35 366.35 229.2 366.7L229.2 366.55Q229 368.15 227.7 369.2Q221.15 358.2 215.4 343.65Q193.95 289.15 167.55 236.45Q154.45 210.25 153.15 181.95Q153.05 179.5 155.5 179.5M152.5,177.5Q154.4 235.9 154.65 295.95Q154.75 333 149.3 368.75Q149 370.9 147 371.45Q142 358 144.4 341.5Q147.6 319.4 147.25 296.7Q146.35 236.9 151.15 178.25Q151.25 177.2 152.5 177.5M312.35,290.95L312.25 291.3Q298.65 281.6 282.95 284.7Q272.05 297 268 312.6Q285.9 307.5 304.45 307.7Q306.15 309.85 306.7 312.6Q307.65 317.4 305.1 321.6L267.05 324.9Q267.85 334.6 272 343.1Q286.2 372.1 312.2 344.95L316.95 337.7Q326.1 351.95 313 363.9Q294.4 380.95 275.6 365.7Q258.75 352 258.9 329.85Q259 309.5 267 290.95Q272.65 277.75 285.15 273.2Q310.8 263.8 312.35 290.95" />
</g>
</svg>
