<?xml version="1.0" encoding="utf-8"?>
<svg version="1.1" id="Layer_1"
xmlns="http://www.w3.org/2000/svg"
xmlns:xlink="http://www.w3.org/1999/xlink"


xml:space="preserve">
q-0.25 0.05 -0.45 0.25q-1.25 -0.3 -1.3 0.75q-2.95 40.65 -5.6 81.65q-3.85 59.1 -6.65 118.55q-0.75 15.05 -3.2 29.8q-2.2 13.35 -1.7 26q-0.15 3.2 1.45 5.95q1.15 -0.35 1.3 -1q36.15 14.45 68.3 -6.3q3.35 -4.65 7.25 -8.7q0.6 -3.1 1.75 -6.1q7.6 -20.2 9.4 -42.5q4.15 -52.3 -40.4 -73.1q33.85 -36.1 20.7 -86.25q-9.95 -38 -46.55 -47.1q27.5 1.3 41.85 28.45q10.3 19.55 7.85 41.7q-2.35 21.1 -17.3 35.95q-4.7 4.6 -9.9 8.65q5.8 -59.55 3.1 -119.45q27.1 2.55 38.9 27.35q7.4 15.65 6.8 33.35q-0.85 26.65 -16.75 47.05q-8 10.3 -20.75 11.35q-23.45 1.9 -44.8 0.25q1.55 -10.1 2 -20.45q2 -47.8 5.65 -95.25q16.35 3.1 28.95 -3.65q5.45 -22.85 1.7 -43.85q-3.95 1.9 -5 7q-5.15 36.25 -11.5 72.4q-10.25 58.1 -17.25 116.05q-4.95 -22.6 -9.1 -45.35q-10.6 -58.3 -17.85 -117.1q-3.6 -29.15 -4.35 -58.5q-0.45 -17.2 -7.7 -28.25q-11.95 50.2 -20.5 102q-9.55 58.05 -18.45 116.25q-2.25 14.7 -6.95 28.75q-4.35 12.9 -0.05 21.45q1.4 -1.05 1.85 -2.95q13.75 -57.5 22.4 -116.3q8.6 -58.5 21.7 -115.45q4.1 47.85 11.2 95.2q8.85 58.7 18.35 117.25q2.7 16.65 11.2 28q4.2 -5.55 4.95 -12.55q4.7 -44.45 12.15 -88.55q9.85 -58.05 18.15 -116.35q1.05 -7.4 2.8 -14.65q33.5 -4.95 46.25 24.75q1.75 -2.75 1.1 -5.95q-6.6 -33.55 -43.35 -33.8q-15.6 8.05 -24.7 23.85q-28 48.85 -31 106.6q-2.35 4.85 -0.2 9.65q-1.45 37.15 -2 74.7q-0.5 33.4 22.85 54.45q16.9 11.2 37.05 4.35q38.65 -13.1 47.2 -51.15q2.7 -12 -4.5 -16.9q-3.25 3.05 -2.75 8q1.55 14.45 -9.4 25.8q-30.45 31.55 -69.35 13.65q-15.35 -19.6 -14.9 -44.95q0.6 -33.35 2.9 -66.3q32.55 6.75 66.5 0.8q2.8 -7.05 -1.45 -12.7q-32.6 3.45 -64.65 1.35q0.6 -8.1 1.35 -16.1q3.5 -38.35 18.8 -73.5q5.15 -5.5 10.05 -11.8q6.15 -7.9 13.95 -14.45<g id="1376" transform="matrix(1, 0, 0, 1, -72.7, 0)">
<path style="fill:#000000;fill-opacity:1" d="M351.95,117.5Q388.55 126.6 398.5 164.6Q411.65 214.75 377.8 250.85L377.7 251Q422.25 271.8 418.1 324.1Q416.3 346.4 408.7 366.6Q407.55 369.6 406.95 372.7Q403.05 376.75 399.7 381.4L395.45 386.95Q363.3 407.7 327.15 393.25L326.5 395.7Q326.35 396.35 325.2 396.7L324.35 392.1L323.45 391.7Q321.85 388.95 322 385.75L322.45 378.2L323 378.25Q322.5 365.6 324.7 352.25Q327.15 337.5 327.9 322.45Q330.7 263 334.55 203.9Q337.2 162.9 340.15 122.25Q340.2 121.2 341.45 121.5L341.55 122.65L341.55 122.55L341.95 121.75L342.5 121.3Q342.7 121.1 342.95 121.05L344.95 120.5L345.7 119.75L346.45 119L350.95 117.75L351.95 117.5M344.95,131.25L341.9 130.15Q344.6 190.05 338.8 249.6L369.2 244.5Q374.4 240.45 379.1 235.85Q394.05 221 396.4 199.9Q398.85 177.75 388.55 158.2Q374.2 131.05 346.7 129.75L344.95 131.25M337.7,263.25Q334.05 310.7 332.05 358.5Q331.6 368.85 330.05 378.95Q351.4 380.6 374.85 378.7Q387.6 377.65 395.6 367.35Q411.5 346.95 412.35 320.3Q412.95 302.6 405.55 286.95Q393.75 262.15 366.65 259.6Q354.05 266.35 337.7 263.25M198.95,172.75Q190.65 231.05 180.8 289.1Q173.35 333.2 168.65 377.65Q167.9 384.65 163.7 390.2Q155.2 378.85 152.5 362.2Q143 303.65 134.15 244.95Q127.05 197.6 122.95 149.75Q109.85 206.7 101.25 265.2Q92.6 324 78.85 381.5Q78.4 383.4 77 384.45Q72.7 375.9 77.05 363Q81.75 348.95 84 334.25Q92.9 276.05 102.45 218Q111 166.2 122.95 116Q130.2 127.05 130.65 144.25Q131.4 173.6 135 202.75Q142.25 261.55 152.85 319.85Q157 342.6 161.95 365.2Q168.95 307.25 179.2 249.15Q185.55 213 190.7 176.75L198.45 121.25Q199.5 116.15 203.45 114.25Q207.2 135.25 201.75 158.1Q200 165.35 198.95 172.75M243,146.7Q238.1 153 232.95 158.5Q217.65 193.65 214.15 232Q213.4 240 212.8 248.1Q244.85 250.2 277.45 246.75Q281.7 252.4 278.9 259.45L278.45 260.25Q244.5 266.2 211.95 259.45Q209.65 292.4 209.05 325.75Q208.6 351.1 223.95 370.7Q262.85 388.6 293.3 357.05Q304.25 345.7 302.7 331.25Q302.2 326.3 305.45 323.25Q312.65 328.15 309.95 340.15Q301.4 378.2 262.75 391.3Q242.6 398.15 225.7 386.95Q202.35 365.9 202.85 332.5Q203.4 294.95 204.85 257.8L204.7 257.75Q202.55 252.95 204.9 248.1L205.25 247.7Q208.25 189.95 236.25 141.1Q245.35 125.3 260.95 117.25Q297.7 117.5 304.3 151.05Q304.95 154.25 303.2 157Q290.45 127.3 256.95 132.25Q249.15 138.8 243 146.7" />
</g>
</svg>
