<?xml version="1.0" encoding="utf-8"?>
<svg version="1.1" id="Layer_1"
xmlns="http://www.w3.org/2000/svg"
xmlns:xlink="http://www.w3.org/1999/xlink"


xml:space="preserve">
q-20.3 5.05 -26.6 27.4q-6.05 21.4 -3.1 43.25q3.3 24.1 23.9 31.6q12.1 4.35 23.35 -3.6q14.05 -9.85 4.7 -23.7q-11.75 17.35 -32.25 12.55q-10.15 -16 -7.4 -29.2q2.45 -3.95 1.75 -8.7q-0.4 -2.55 -1.9 -4.45q-18 -0.95 -35.75 5.05q4.05 -16.05 14.1 -29.3q15.4 -5.25 29.45 2.95q-0.05 -20.1 -20.55 -19.9q-2.85 34.5 -3.95 70.5q-0.95 29.65 -3.8 59.1q-3 30.3 -2.35 59.35q6.65 -2.15 7.25 -11.15q3.85 -59.1 6.65 -118.55q1.45 -30.7 -3.4 -59.25q10 19.1 18.85 38.85q8.8 19.75 15 40.4q6.8 22.65 20.15 37.4q8.25 -79.55 9.9 -159.6q0.35 -18.45 -2.15 -36.85q-11.9 78.8 -12.6 159.6q-0.1 9.75 0.25 19.65q-33.45 -90.45 -81.35 -175q-1.6 19.95 10.25 40q10.25 17.35 19.65 35.3<g id="1375" transform="matrix(1, 0, 0, 1, -161.1, 0)">
<path style="fill:#000000;fill-opacity:1" d="M348.95,269.2Q369.45 269 369.5 289.1L367.65 288.15Q353.6 279.95 338.2 285.2Q328.15 298.45 324.1 314.5Q341.85 308.5 359.85 309.45Q361.35 311.35 361.75 313.9Q362.45 318.65 360 322.6L322.8 325.75Q320.05 338.95 330.2 354.95L335.95 356.75Q356.45 361.55 368.2 344.2Q377.55 358.05 363.5 367.9Q352.25 375.85 340.15 371.5Q319.55 364 316.25 339.9Q313.3 318.05 319.35 296.65Q325.65 274.3 345.95 269.25L348.95 269.2M172.25,181Q177.1 209.55 175.65 240.25Q172.85 299.7 169 358.8Q168.4 367.8 161.75 369.95Q161.1 340.9 164.1 310.6Q166.95 281.15 167.9 251.5Q169 215.5 171.85 181L172.25 181M186.75,223.25Q174.9 203.2 176.5 183.25Q224.4 267.8 257.85 358.25Q257.5 348.35 257.6 338.6Q258.3 257.8 270.2 179Q272.7 197.4 272.35 215.85Q270.7 295.9 262.45 375.45L260.95 372.35L260.4 375.2Q247.05 360.45 240.25 337.8Q234.05 317.15 225.25 297.4Q216.4 277.65 206.4 258.55Q197 240.6 186.75 223.25" />
</g>
</svg>
