<?xml version="1.0" encoding="utf-8"?>
<svg version="1.1" id="Layer_1"
xmlns="http://www.w3.org/2000/svg"
xmlns:xlink="http://www.w3.org/1999/xlink"


xml:space="preserve">
q-9.3 31.35 -15.85 65q-11.55 59.7 -24.65 119.1q-13.1 59.65 -21.7 118.65q6.75 -9.4 9.2 -22.35q11.3 -59.95 23.8 -119.75q12.3 -59.05 25.25 -117.85q0.55 11.3 0.3 22.5q-1.2 59.85 0.4 119.25q0.75 29.95 -1.45 59.85q-1.05 14.35 6.5 21.85q12.5 -48.8 23.05 -99.15q12.4 -59.5 21.45 -117.05q4.35 59.05 10.65 117.8q6.4 59.5 9.55 119.25q0.7 13.8 7.8 21.4q3.25 -12.15 3.5 -24.75q-0.5 -2.6 -1.2 0.45q-4.25 -34.8 -7.9 -73q-5.7 -59.65 -12.05 -119.2q-3.2 -29.85 -2.15 -59.95q0.55 -16.9 -5.65 -29.3q-12.05 54.5 -21.7 110.8q-10.15 59.5 -23.55 117.95q1.2 -26.15 -0.2 -52.5q-3.2 -59.6 -0.85 -119.25q1.15 -30.6 -1.7 -59.25q-5.25 -32.4 -47.3 -33.65q-23.05 -0.65 -36.65 19.75q-20.2 30.25 -29 65.55q-6.95 28.05 -9.35 56.85q-3.2 38 -2.4 76.25q0.4 18.7 2.1 37.55q0.9 9.7 4.55 18.75q1.7 4.25 3.9 8.25q2.2 3.9 4.95 7.55q8.65 11.45 21.35 18.2q13.35 7.1 27.95 2.15q21.1 -7.15 34.4 -25.9q13.75 -19.45 18.75 -42.55q2.1 -9.65 -2.75 -18.25q-8.75 48.9 -53.45 65q-14.85 5.25 -28.4 -3.75q-14.75 -9.8 -17.75 -28.3q-3.3 -20.25 -5.4 -40.95q-2.1 -20.8 -1.15 -41.7q4.2 -7.15 -0.6 -13.85q-30.15 -1.65 -59.15 5.85q-0.4 -83.05 58.35 -132.65q3.85 -3.2 9.75 -3.65q23.45 -1 43.05 11.95q-4.45 21.2 -7.85 42.75q-9.25 58.4 -16.8 117.05q-7.45 57.8 -16.85 115.15q-10.35 -53.05 -26.95 -104.5q-18.55 -57.5 -28.15 -116.85q-2.35 -14.65 -2.3 -29.35q0.05 -16.4 -5.35 -28.5q-3.5 13.1 -5.15 27.65q-6.6 58.6 -14.2 117.1q-7.6 58.6 -17.4 116.9q-1.25 7.5 -3.65 14.5q-4.35 12.8 0.95 22.05q4.55 -10.1 6.6 -21.65q10.35 -58.2 18 -117q7.65 -58.35 14.35 -114.3q5.7 36.15 14 71.65q13.75 59.15 30.15 117.65q6.05 21.4 9.15 43.4q2.3 16.5 10.2 28.25q12.9 -57.35 19.95 -116.1q7.05 -58.7 16.7 -117q2.45 -14.65 6.15 -28.9q6 -22.95 1.35 -43.85q-1.65 0.8 -2.6 2.05q-1.25 0.95 0.15 3.6<g id="1378" transform="matrix(1, 0, 0, 1, -52.7, 0)">
<path style="fill:#000000;fill-opacity:1" d="M396.45,98.5Q399.3 127.15 398.15 157.75Q395.8 217.4 399 277Q400.4 303.35 399.2 329.5Q412.6 271.05 422.75 211.55Q432.4 155.25 444.45 100.75Q450.65 113.15 450.1 130.05Q449.05 160.15 452.25 190Q458.6 249.55 464.3 309.2Q467.95 347.4 472.2 382.2Q472.9 379.15 473.4 381.75L473.45 382.45Q473.2 395.05 469.95 407.2Q462.85 399.6 462.15 385.8Q459 326.05 452.6 266.55Q446.3 207.8 441.95 148.75Q432.9 206.3 420.5 265.8Q409.95 316.15 397.45 364.95Q389.9 357.45 390.95 343.1Q393.15 313.2 392.4 283.25Q390.8 223.85 392 164Q392.25 152.8 391.7 141.5Q378.75 200.3 366.45 259.35Q353.95 319.15 342.65 379.1Q340.2 392.05 333.45 401.45Q342.05 342.45 355.15 282.8Q368.25 223.4 379.8 163.7Q386.35 130.05 395.65 98.7L396.45 98.5M326.45,117.25Q306.85 104.3 283.4 105.3Q277.5 105.75 273.65 108.95Q214.9 158.55 215.3 241.6Q244.3 234.1 274.45 235.75Q279.25 242.45 275.05 249.6L214.05 253.9L213.3 268.05Q212.35 288.95 214.45 309.75Q216.55 330.45 219.85 350.7Q222.85 369.2 237.6 379Q251.15 388 266 382.75Q310.7 366.65 319.45 317.75L322.45 314.75Q327.3 323.35 325.2 333Q320.2 356.1 306.45 375.55Q293.15 394.3 272.05 401.45Q257.45 406.4 244.1 399.3Q231.4 392.55 222.75 381.1Q220 377.45 217.8 373.55Q215.6 369.55 213.9 365.3Q210.25 356.25 209.35 346.55Q207.65 327.7 207.25 309Q206.45 270.75 209.65 232.75Q212.05 203.95 219 175.9Q227.8 140.6 248 110.35Q261.6 89.95 284.65 90.6Q326.7 91.85 331.95 124.25L326.45 117.25M201.55,94.65L201.95 95Q202.9 93.75 204.55 92.95L205.45 92.75Q210.1 113.65 204.1 136.6Q200.4 150.85 197.95 165.5Q188.3 223.8 181.25 282.5Q174.2 341.25 161.3 398.6L160.45 400.2Q152.55 388.45 150.25 371.95Q147.15 349.95 141.1 328.55Q124.7 270.05 110.95 210.9Q102.65 175.4 96.95 139.25Q90.25 195.2 82.6 253.55Q74.95 312.35 64.6 370.55Q62.55 382.1 58 392.2Q52.7 382.95 57.05 370.15Q59.45 363.15 60.7 355.65Q70.5 297.35 78.1 238.75Q85.7 180.25 92.3 121.65Q93.95 107.1 97.45 94Q102.85 106.1 102.8 122.5Q102.75 137.2 105.1 151.85Q114.7 211.2 133.25 268.7Q149.85 320.15 160.2 373.2Q169.6 315.85 177.05 258.05Q184.6 199.4 193.85 141Q197.25 119.45 201.7 98.25Q200.3 95.6 201.55 94.65" />
</g>
</svg>
