<?xml version="1.0" encoding="utf-8"?>
<svg version="1.1" id="Layer_1"
xmlns="http://www.w3.org/2000/svg"
xmlns:xlink="http://www.w3.org/1999/xlink"


xml:space="preserve">
q-2.9 45.6 -4.3 91.5q-0.9 29.65 -4.1 59.1q-1.75 16.55 2.6 29.9q9.5 -14.9 5 -29q25.1 1.35 45.55 -12.85q21.8 -15.05 20.7 -41.2q-1.7 -42.7 -45.95 -47.55q-8.85 1.1 -17.2 3.6q-0.35 1.65 -0.25 3.5q-5.85 22.1 -28.85 27.65q-14 3.35 -28.3 4.25q21.75 -5.65 41.3 5.05q21.1 11.45 14.7 35.5q-8.25 51.15 -8.55 104.1q-0.15 30 -6 59q-6.35 -25.85 -16.65 -51.1q-22.15 -54.3 -38.5 -110.1q-4.65 3.5 -4.7 10.5q-0.4 59.25 -2.6 118.45q-0.55 15.05 -3.45 29.75q-3.2 16.15 0 30.25q1.7 0.1 2.75 -1.5q4.55 -7 5.2 -15.6q2 -26.4 2.95 -53.3q1.8 -50.8 0.45 -100.65q0.75 3.4 2.1 6.95q20.3 56 38 112.75q3.55 11.35 8.65 20.1q1.15 5.75 4 10.6q5.45 -21.7 6.6 -44.95q2.15 -44.25 4.6 -88.45q1.65 -30.25 0.55 -59.3q-0.75 0.1 -0.75 0.35q-17 39.4 0.1 78.55q5.6 12.95 19.6 14.75q9.8 1.2 19 -2.35q11 -4.35 15.35 -15q3.35 -8.3 -0.65 -16.7q-17.6 14.45 -40.8 10.95q-10.3 -15.25 -11.3 -33.8q21.2 1.9 41.25 -5.25q2.75 -5.25 0.15 -10.35q-1.05 -2.05 -2.9 -3.4q14.5 -18.35 36.95 -8.3q4.25 1.95 7.65 5.35q-5.55 -30.95 -34.9 -18.95q-9.6 4 -14 14.2<g id="1377" transform="matrix(1, 0, 0, 1, -138.3, 0)">
<path style="fill:#000000;fill-opacity:1" d="M343.75,190.75Q343.65 188.9 344 187.25L344.45 180.5L346.55 179.15L347.2 179L347.25 184.65Q355.6 182.15 364.45 181.05L365.95 180.5Q410.2 185.35 411.9 228.05Q413 254.2 391.2 269.25Q370.75 283.45 345.65 282.1L345 297.45L342.95 342.45Q347.45 356.55 337.95 371.45Q333.6 358.1 335.35 341.55Q338.55 312.1 339.45 282.45Q340.85 236.55 343.75 190.95L343.75 190.75M388.55,200.9Q369 190.2 347.25 195.85L346.1 268.3Q360.4 267.4 374.4 264.05Q397.4 258.5 403.25 236.4Q409.65 212.35 388.55 200.9M226.45,182.5Q227.55 211.55 225.9 241.8Q223.45 286 221.3 330.25Q220.15 353.5 214.7 375.2Q211.85 370.35 210.7 364.6Q205.6 355.85 202.05 344.5Q184.35 287.75 164.05 231.75L154.95 207.1Q153.6 203.55 152.85 200.15Q154.2 250 152.4 300.8Q151.45 327.7 149.45 354.1Q148.8 362.7 144.25 369.7Q143.2 371.3 141.5 371.2Q138.3 357.1 141.5 340.95Q144.4 326.25 144.95 311.2Q147.15 252 147.55 192.75Q147.6 185.75 152.25 182.25L152.4 186.05L153.25 182.5L155.2 184L156 184.75Q172.35 240.55 194.5 294.85Q204.8 320.1 211.15 345.95Q217 316.95 217.15 286.95Q217.45 234 225.7 182.85Q225.7 182.6 226.45 182.5M273.55,268.25Q302.9 256.25 308.45 287.2Q305.05 283.8 300.8 281.85Q278.35 271.8 263.85 290.15L257.35 313.55L295.95 307.2Q297.8 308.55 298.85 310.6Q301.45 315.7 298.7 320.95Q278.65 328.1 257.45 326.2L256.65 324.9Q257.65 343.45 267.95 358.7Q291.15 362.2 308.75 347.75L312.95 341.7Q316.95 350.1 313.6 358.4Q309.25 369.05 298.25 373.4Q289.05 376.95 279.25 375.75Q265.25 373.95 259.65 361Q242.55 321.85 259.55 282.45Q263.95 272.25 273.55 268.25" />
</g>
</svg>
