<?xml version="1.0" encoding="utf-8"?>
<svg version="1.1" id="Layer_1"
xmlns="http://www.w3.org/2000/svg"
xmlns:xlink="http://www.w3.org/1999/xlink"


xml:space="preserve">
q-3.15 10.2 -3.35 22.75q-1.05 59.8 -4.35 119.25q-0.55 9.35 -1.95 18.5q-2.7 17.35 4.15 29.2q4.75 -35 6.2 -71.2q7.65 -0.3 14.85 -2.15q0.4 3.1 1.7 6.5q11.5 30.05 21.6 60.6q5.2 15.8 15.1 25.55q1.9 -2.65 0.9 -5.55q-15 -45.15 -32.4 -90q24.7 -12.25 27.95 -42.45q4.8 -44.8 -40.95 -56.7q-6.5 -0.1 -12.3 2.6q-2.4 1.15 -3.65 2.65q0.75 -39.5 -0.85 -78.5q18.85 -6.5 35.4 6q26.7 20.2 10.95 51.35q-17.45 22.25 -45.5 21.15q-6.15 6.25 -6.1 17.25q0.2 59.05 -2.3 118.5q-0.6 15 -3.35 29.65q-3.05 16.55 2.25 30.05q2.75 -1.5 3.2 -4.9q4.85 -36.1 5.55 -72.85q1 -52 0.85 -102.3q1.95 15.6 7.6 30.65q20.6 55.15 37.1 111.9q3.15 10.7 4.95 21.3q1.75 10.5 7.75 14.75q7.45 -37.15 10.9 -75.65q5.45 -59.65 1.6 -118.55q-5.8 51.75 -8.8 105.9q-1.65 28.8 -6.85 57.15q-9.2 -26.05 -17.55 -52.35q-17.8 -56.05 -37.5 -111.45q-12.75 32.35 -1.9 65.3q7.05 21.55 30.15 14.3q25.75 -8.15 18.05 -29.85q-8.7 9.35 -21 14.2q-13.7 5.4 -20.4 -5.15q-8.05 -12.7 -6.15 -27.05q18.5 -3 37.5 -3.25q3.65 -6.65 -0.65 -12.7q-17.6 -1.05 -33.95 3.6q3.1 -7.75 8 -14.4q12.95 -17.7 34.7 -5.2q1.05 -0.85 1.45 -2.2q0.65 -2.25 0.1 -4.55q-11.4 -11.05 -27.7 -9.55q-12.45 6.7 -17.8 20.2<g id="1389" transform="matrix(1, 0, 0, 1, -137.7, 0)">
<path style="fill:#000000;fill-opacity:1" d="M347.15,184.35Q352.95 181.65 359.45 181.75Q405.2 193.65 400.4 238.45Q397.15 268.65 372.45 280.9Q389.85 325.75 404.85 370.9Q405.85 373.8 403.95 376.45Q394.05 366.7 388.85 350.9Q378.75 320.35 367.25 290.3Q365.95 286.9 365.55 283.8L359.2 285.75Q352 287.6 344.35 287.9L343.9 299.75Q342.45 335.95 337.7 370.95Q330.85 359.1 333.55 341.75Q334.95 332.6 335.5 323.25Q338.8 263.8 339.85 204Q340.05 191.45 343.2 181.25L343.5 187Q344.75 185.5 347.15 184.35M390.2,252.75Q405.95 221.6 379.25 201.4Q362.7 188.9 343.85 195.4Q345.45 234.4 344.7 273.9Q372.75 275 390.2 252.75M153.5,179.25Q173.2 234.65 191 290.7Q199.35 317 208.55 343.05Q213.75 314.7 215.4 285.9Q218.4 231.75 224.2 180Q228.05 238.9 222.6 298.55Q219.15 337.05 211.7 374.2L210 370.75Q204 366.5 202.25 356Q200.45 345.4 197.3 334.7Q180.8 277.95 160.2 222.8Q154.55 207.75 152.6 192.15Q152.75 242.45 151.75 294.45Q151.05 331.2 146.2 367.3Q145.75 370.7 143 372.2Q137.7 358.7 140.75 342.15Q143.5 327.5 144.1 312.5Q146.6 253.05 146.4 194Q146.35 183 152.5 176.75L152.55 179.35L153.5 179.25M278.95,267Q295.25 265.5 306.65 276.55L307.2 277.2L307.45 278L307.75 279.45Q308.3 281.75 307.65 284Q307.25 285.35 306.2 286.2Q284.45 273.7 271.5 291.4Q266.6 298.05 263.5 305.8Q279.85 301.15 297.45 302.2Q301.75 308.25 298.1 314.9L297.45 315.7Q278.45 315.95 259.95 318.95L259.9 318.95Q258 333.3 266.05 346Q272.75 356.55 286.45 351.15Q298.75 346.3 307.45 336.95Q315.15 358.65 289.4 366.8Q266.3 374.05 259.25 352.5Q248.4 319.55 261.15 287.2Q266.5 273.7 278.95 267" />
</g>
</svg>
