<?xml version="1.0" encoding="utf-8"?>
<svg version="1.1" id="Layer_1"
xmlns="http://www.w3.org/2000/svg"
xmlns:xlink="http://www.w3.org/1999/xlink"


xml:space="preserve">
q-36.15 87.75 -35.25 184.8q0.25 29.55 -1.55 58.9q-3 49.9 1 99.75q0.75 9.5 3.65 18.6q1.7 5.35 4.05 10.6q38.9 -16.3 42.3 -53.6q0.15 -1.4 -0.3 -2.8q-13.1 22.45 -36.8 37.5q-22.3 -68.75 -11.8 -141.5q2.6 -17.8 3.9 -35.8q17.25 3.95 34.9 2.3q1.9 -4.05 1 -8.65q-0.45 -2.3 -2.15 -4.05q-5.85 -87.35 25.3 -166.9q18.8 -0.3 30.5 14.5q-1.15 -25.65 -26.75 -27q-3.2 -0.5 -6 1.25q-3.25 8 -2.2 18.85q5.75 58.55 13.1 116.9q3.7 29.6 8.55 59q4.9 29.7 7.15 59.65q1.05 13.85 8.95 20.1q3.05 -18.8 -1.25 -38.45q5.8 -39.65 10.45 -80.3q3.35 -29.25 8.7 -58.2q10.75 -58.15 16.7 -117.15q1.45 -14.6 4.7 -28.95q6.7 -29.6 6.15 -58.9q-9.65 31 -14.15 65.3q-7.75 58.55 -17.4 116.75q-9.7 58.4 -15.85 117.25q-1.3 12.3 -3.45 24.35q-9.3 -46.95 -14.6 -94.6q-6.6 -58.85 -12.7 -117.85q-6 -58.5 -12.35 -116.95q-1.8 2.65 -2.55 6.3q-8.15 40.7 -15.6 81.45q-10.55 57.85 -20.75 115.65q-10.4 58.9 -28.25 116.1q-4.45 14.35 -9.3 28.55q-5.6 16.55 0.75 29q12.8 -44.95 24.1 -90.95q12.45 -50.5 21.5 -101.7q2.95 -1.4 6.05 -1.55q23.7 -0.95 46.85 -3.7q4.95 35.1 9.35 70.25q7.3 57.8 15 115.45q-0.45 0.65 -0.65 -0.75q-1.8 0.1 -0.75 4.85q2.5 11.35 9 17.4q1.2 -19.8 -1.95 -39.95q-9.1 -58.25 -16.65 -116.75q3.75 -5.3 2 -11.2q-9.6 35.45 -10.75 73.4q-1.8 59.05 -2.9 118.5q-1.05 59.8 -7.1 119.05q-0.55 5.5 -0.8 10.9q-14.4 -49.1 -24.15 -99.9q-11.25 -58.35 -28.55 -114.9q-4.7 5.85 -3.45 14.3q-0.2 2.15 -0.25 4.45q-1.2 51.55 -2.9 102.7q-1.95 59.4 -5.35 118.55q-3.35 59.5 -8.75 118.55q-1 11.15 -2.55 22.2q-2.25 16.55 3.75 29.95q2.2 -0.9 2.4 -3.5q1.7 -25.45 3.75 -50.9q4.75 -59.15 7.6 -118.6q2.85 -59.25 5.1 -118.5q1.75 -45.1 1.1 -89.5q11.7 42.35 19.5 85.5q4 21.75 9.85 43q7.85 28.75 12 58.45q2.35 17.15 10.65 28q1.05 -0.85 1 -2.25q-0.7 -21.05 -4.5 -41.8q4.05 -58.95 4.15 -118.5q0.1 -60 5.75 -119.15q2.2 -22.9 2.3 -44.35q-1.2 -0.25 -1.5 0.85q7.75 54.3 16 108.75q-2.25 0.2 -4.45 -0.05q-24.65 -2.6 -46.1 6.25q9.7 -58.25 23.5 -115.8q3.8 -15.8 5.65 -31.3q-11.45 26.45 -25.15 52.25q-4.85 9.2 -10.9 17.25q-3.35 4.45 -5.75 8.9q1.5 -30.45 -0.05 -59.3q-6.05 23.7 -6.7 50.5q-1.35 59.2 -3.3 118.5q-5.3 5.55 -2.5 13.25q2 3.2 5.75 3q2.6 -2.75 2.7 -6.75q0.75 -38.5 2.25 -76.95q-0.1 3 0.75 6.4q6.2 25 9.45 50.65q3.9 30.75 15.5 56.8q4.85 -9.2 1.25 -19.5q-9.15 -49.7 -21.95 -98.15q5.25 -9.85 10.7 -19.55q9.55 -17.15 8.6 -33.9q-0.35 0 -0.55 0.2<g id="1397" transform="matrix(1, 0, 0, 1, -47.95, 0)">
<path style="fill:#000000;fill-opacity:1" d="M462.45,89Q488.05 90.35 489.2 116Q477.5 101.2 458.7 101.5L456.65 106.05Q425.5 185.6 431.35 272.95L464.3 274.05Q466 275.8 466.45 278.1Q467.35 282.7 465.45 286.75Q447.8 288.4 430.55 284.45Q429.25 302.45 426.65 320.25Q416.15 393 438.45 461.75L443.7 461.7Q467.4 446.65 480.5 424.2L477.85 419.75L482.2 423.7L485.95 423.2Q486.4 424.6 486.25 426Q482.85 463.3 443.95 479.6L437.45 479.45L435.45 476.3L433.5 473L431.7 469.7L429.95 466.3L428.35 462.9Q426 457.65 424.3 452.3Q421.4 443.2 420.65 433.7Q416.65 383.85 419.65 333.95Q421.45 304.6 421.2 275.05Q420.3 178 456.45 90.25Q459.25 88.5 462.45 89M342.15,84.8L342.7 85.5Q349.05 143.95 355.05 202.45Q361.15 261.45 367.75 320.3Q373.05 367.95 382.35 414.9Q384.5 402.85 385.8 390.55Q391.95 331.7 401.65 273.3Q411.3 215.1 419.05 156.55Q423.55 122.25 433.2 91.25Q433.75 120.55 427.05 150.15Q423.8 164.5 422.35 179.1Q416.4 238.1 405.65 296.25Q400.3 325.2 396.95 354.45Q392.3 395.1 386.5 434.75L386.95 437Q391.25 456.65 388.2 475.45Q380.3 469.2 379.25 455.35Q377 425.4 372.1 395.7Q367.25 366.3 363.55 336.7Q356.2 278.35 350.45 219.8L339 102.85Q337.95 92 341.2 84L342.15 84.8M336.2,256.75L336.95 257.5Q338.7 263.4 334.95 268.7L341.9 320.25Q349.45 378.75 358.55 437Q361.7 457.15 360.5 476.95L359.95 478.45Q353.45 472.4 350.95 461.05Q349.9 456.3 351.7 456.2Q351.9 457.6 352.35 456.95L352.7 455.7Q345 398.05 337.7 340.25Q333.3 305.1 328.35 270Q305.2 272.75 281.5 273.7Q278.4 273.85 275.45 275.25L274.05 275.55Q265 326.75 252.55 377.25Q241.25 423.25 228.45 468.2Q222.1 455.75 227.7 439.2Q232.55 425 237 410.65Q254.85 353.45 265.25 294.55Q275.45 236.75 286 178.9Q293.45 138.15 301.6 97.45Q302.35 93.8 304.15 91.15L304.95 86.35L305.45 86.25L306.65 87.05L307.45 87.75L325.3 203.4L333.15 256.25L335.2 256L336.2 256.75M232.45,87.5Q232.35 108.95 230.15 131.85Q224.5 191 224.4 251Q224.3 310.55 220.25 369.5L215.45 436.4Q219.25 457.15 219.95 478.2Q220 479.6 218.95 480.45Q210.65 469.6 208.3 452.45Q204.15 422.75 196.3 394Q190.45 372.75 186.45 351L165.15 234.45Q157.35 191.3 145.65 148.95L133.9 105.95Q134.55 150.35 132.8 195.45Q130.55 254.7 127.7 313.95Q124.85 373.4 120.1 432.55Q118.05 458 116.35 483.45Q116.15 486.05 113.95 486.95Q107.95 473.55 110.2 457Q111.75 445.95 112.75 434.8Q118.15 375.75 121.5 316.25Q124.9 257.1 126.85 197.7Q128.55 146.55 129.75 95Q129.8 92.7 130 90.55Q128.75 82.1 133.45 76.25Q150.75 132.8 162 191.15L184.4 307.45Q194.15 358.25 208.55 407.35L209.4 410.2Q209.65 404.8 210.2 399.3Q216.25 340.05 217.3 280.25Q218.4 220.8 220.2 161.75Q221.35 123.8 230.95 88.35Q231.25 87.25 232.45 87.5M299.9,146Q286.1 203.55 276.4 261.8L276.05 263.95Q297.5 255.1 322.15 257.7Q324.35 257.95 326.6 257.75L321.55 223.45Q313.3 169 305.55 114.7Q303.7 130.2 299.9 146M107.65,73.45Q107.85 73.25 108.2 73.25Q109.15 90 99.6 107.15Q94.15 116.85 88.9 126.7L76.85 149.3Q89.65 197.75 98.8 247.45L98.95 248.25L100.7 249.5Q104.3 259.8 99.45 269Q87.85 242.95 83.95 212.2Q80.7 186.55 74.5 161.55Q73.65 158.15 73.75 155.15L61.45 178.55Q59.95 217 59.2 255.5Q59.1 259.5 56.5 262.25Q52.75 262.45 50.75 259.25Q47.95 251.55 53.25 246Q55.2 186.7 56.55 127.5Q57.2 100.7 63.25 77Q64.8 105.85 63.3 136.3L62.4 155.4Q64.8 150.95 68.15 146.5Q74.2 138.45 79.05 129.25Q92.75 103.45 104.2 77L107.65 73.45" />
</g>
</svg>
