<?xml version="1.0" encoding="utf-8"?>
<svg version="1.1" id="Layer_1"
xmlns="http://www.w3.org/2000/svg"
xmlns:xlink="http://www.w3.org/1999/xlink"


xml:space="preserve">
q-4.15 -0.4 -7.65 0.95q-0.9 0.45 -1.7 1q-0.15 1.5 0 2.95q-1.2 5.45 -1.4 11.55q-2.15 59.45 -5.75 118.6q-3.65 59.7 -12.45 118.25q-2.1 14.1 5.05 21.65q4.35 -22 6.1 -44.95q5.45 -4.6 10.25 -9.5q13 57.5 27.8 114.55q1.8 7.1 2.9 14.35q2.5 16.6 11.75 27.25q1.75 -1.85 1.4 -4.35q-4.3 -29.7 -11.8 -59.05q-13.2 -51.6 -27.75 -102.7q27.35 -31.25 30.15 -74.65q2.45 -37.7 -32.25 -49.95q-40.25 20.95 -43.15 71.65q-2.55 44.5 -3.05 88.85q-0.45 37.5 -2.4 74.9q-0.25 4.8 0.1 9.45q0.9 12.15 4.95 23.65q27.95 -0.05 40.75 -26.05q5.45 -11.1 4.75 -23.7q-11.05 29.45 -40.9 35.05q-5.7 -63 -1.55 -126.5q3.2 -5.85 -0.1 -11.95q-16.05 -0.05 -31.05 8.2q-4 -59.05 27.55 -103.45q5.2 -7.3 14.35 -9.45q3.4 -13.1 -9.5 -16.35q7.2 21.35 0.1 42.65q-6.5 19.65 -22.3 33.15q-7.35 6.3 -13.3 13.9q24.25 0.9 31.6 22.75q-22.75 57.7 -21.2 120.95q1.2 48.15 -1.95 96.3q-0.4 5.95 0.3 11.9q0.35 1.8 0.85 3.6q3.75 10.8 10.5 20.1q33.45 1.65 44.2 -31.2q2.8 -8.45 0.3 -17.05q-10.95 28.15 -39.4 32.75q-14.9 -60.6 -5.8 -125.3q1.95 -3.9 1 -8.15q-0.85 -3.7 -3.85 -5.95q-7.15 -65.7 25 -119.9q14.3 -1.4 25.65 8.15q-0.45 -26.5 -26.85 -19.95q-11.2 2.8 -15.85 14.5q-0.5 0.1 -0.6 0.4q-4.75 11.8 1.35 20.35q3.05 -10.25 -1.25 -20.15q-3.4 0.9 -3.55 5.2q-1.9 59.5 -5.4 118.6q-3.55 59.15 -5.15 118.4q-0.45 15.15 -3.35 29.75q-3.45 16.9 2.45 29.5q2.05 -2.15 2.4 -5.25q5.9 -58.8 6.85 -118.45q0.9 -59.55 6.85 -118.4q1.8 -17.8 1.15 -35.05q5.95 37.4 13.7 74.55q6.05 28.7 13.9 57q15.95 57.6 24.9 116.15q2.55 16.55 10.45 27.95q5.5 -25.55 7.05 -53.45q3.45 -59.55 1.8 -118.6q-5 41.5 -6.75 85.5q-2.35 59.55 -6.4 118.55q-1.9 27.85 -5.75 55.35q-5 -17.6 -9.4 -35.3q-14.4 -57.5 -26.6 -115.25q-12.25 -57.85 -23.85 -115.35q-1.95 1.8 -2.75 4.3<g id="1407" transform="matrix(1, 0, 0, 1, -73.6, 0)">
<path style="fill:#000000;fill-opacity:1" d="M377.45,125Q412.15 137.25 409.7 174.95Q406.9 218.35 379.55 249.6Q394.1 300.7 407.3 352.3Q414.8 381.65 419.1 411.35Q419.45 413.85 417.7 415.7Q408.45 405.05 405.95 388.45Q404.85 381.2 403.05 374.1Q388.25 317.05 375.25 259.55L374.45 255.15Q369.65 260.05 364.2 264.65L357.05 358.5Q355.3 381.45 350.95 403.45Q343.8 395.9 345.9 381.8Q354.7 323.25 358.35 263.55Q361.95 204.4 364.1 144.95Q364.3 138.85 365.5 133.4L365.35 132.2Q365.2 130.75 365.35 129.25L365.7 127.75Q366.5 127.2 367.4 126.75L369.2 122.25L369.3 125.9Q372.8 124.55 376.95 124.95L377.45 125M337.3,138.95L329.7 134Q320.55 136.15 315.35 143.45Q283.8 187.85 287.8 246.9Q302.8 238.65 318.85 238.7L319.1 239.05Q322.4 245.15 319.2 251L287.15 258.7Q283 322.2 288.7 385.2Q318.55 379.6 329.6 350.15L332.7 351.95Q333.4 364.55 327.95 375.65Q315.15 401.65 287.2 401.7L285.9 399.05L284.6 396.3L283.45 393.55L282.4 390.75Q278.35 379.25 277.45 367.1Q277.1 362.45 277.35 357.65Q279.3 320.25 279.75 282.75Q280.25 238.4 282.8 193.9Q285.7 143.2 325.95 122.25L327.8 122.6Q340.7 125.85 337.3 138.95M369.4,134.65L365.5 247.1Q371.45 239.5 378.8 233.2Q394.6 219.7 401.1 200.05Q408.2 178.75 401 157.4Q393.65 135.55 369.4 134.65M234.85,119.3Q261.25 112.75 261.7 139.25L260.1 137.8Q248.75 128.25 234.45 129.65L230.95 131.25Q198.8 185.45 205.95 251.15L236.95 240Q239.95 242.25 240.8 245.95Q241.75 250.2 239.8 254.1L205.4 260.9Q196.3 325.6 211.2 386.2L216.05 385.95Q244.5 381.35 255.45 353.2Q257.95 361.8 255.15 370.25Q244.4 403.1 210.95 401.45Q204.2 392.15 200.45 381.35L198.2 374.1Q197.7 372.3 197.35 370.5L196.65 366.75L196.15 362.95Q195.45 357 195.85 351.05Q199 302.9 197.8 254.75Q196.25 191.5 219 133.8Q223.65 122.1 234.85 119.3M280.45,132.65L279.95 133.25Q273.85 124.7 278.6 112.9Q278.7 112.6 279.2 112.5Q283.5 122.4 280.45 132.65M97.45,107.75Q109.05 165.25 121.3 223.1Q133.5 280.85 147.9 338.35Q152.3 356.05 157.3 373.65Q161.15 346.15 163.05 318.3Q167.1 259.3 169.45 199.75Q171.2 155.75 176.2 114.25Q177.85 173.3 174.4 232.85L167.55 351.25Q166 379.15 160.5 404.7L159.7 410.7Q151.8 399.3 149.25 382.75Q140.3 324.2 124.35 266.6Q116.5 238.3 110.45 209.6Q102.7 172.45 96.75 135.05Q97.4 152.3 95.6 170.1Q89.65 228.95 88.75 288.5Q87.8 348.15 81.9 406.95Q81.55 410.05 79.5 412.2Q73.6 399.6 77.05 382.7Q79.95 368.1 80.4 352.95Q82 293.7 85.55 234.55Q89.05 175.45 90.95 115.95Q91.1 111.65 94.5 110.75L94.7 112.05Q95.5 109.55 97.45 107.75" />
</g>
</svg>
