<?xml version="1.0" encoding="utf-8"?>
<svg version="1.1" id="Layer_1"
xmlns="http://www.w3.org/2000/svg"
xmlns:xlink="http://www.w3.org/1999/xlink"


xml:space="preserve">
q-2.35 59.3 -5.8 118.45q-1.8 30.9 1.9 59.05q5.4 -7.4 5 -17q-0.8 -0.9 -1.15 -1.85q0.2 -21.35 1.3 -42.6q5.95 -8.15 9.1 -17.7q1.6 13.2 4.7 26.45q5.45 22.8 16.75 41.45q5.4 -9.25 -1.1 -15.15q15.05 -24.35 29.4 -49.3q7.85 -13.75 6.9 -26.45q-18.05 31.15 -38 63.25q-4.4 3.85 -7.55 9.1q-9.05 14.9 -18.55 29.6q2.4 -51.95 1.35 -102.85q-3.15 3.5 -3.35 9.2q-4 9.35 -6.75 20.7q-13.7 57.4 -25.6 115.15q-3.05 14.8 -8.8 28.5q-6.85 16.35 -0.6 29.1q13.15 -37.9 20.65 -77.9q1.25 -6.6 2.65 -13.1q15.05 -0.45 29.75 -3.05q8.3 44.85 17.7 89.55q1.1 2.2 3.25 2.25q2.55 -16.55 -2.9 -34.2q-5 -16.25 -7.8 -33.05q0.7 -1.8 1 -3.75q0.55 -3.5 -1.75 -5.95q-0.6 -0.25 -1.25 -0.35q-6.95 -39.35 -14.6 -78.55q-2.45 26.05 -2.55 53.85q3.05 0.8 3.4 -3.05q3.15 -33.35 3.8 -67.45q0.85 -46.95 -1.3 -93.1q5.65 15.05 11.6 29.95q22.1 55.15 41.2 110.95q5.15 14.95 12 26.7q6.5 -6.8 4.6 -17.4q4.4 -59.95 2.15 -118.5q-4.2 35.45 -5.9 73.3q-1.3 29.65 -4.6 59q-1.85 16.7 -1.45 32.95q-2.25 -7.65 -5.6 -15.05q-9.15 -20.05 -17.45 -40.95q-21.9 -55.2 -40.7 -110.75q-6.9 3.95 -3.45 13.35<g id="1409" transform="matrix(1, 0, 0, 1, -140.6, 0)">
<path style="fill:#000000;fill-opacity:1" d="M350.2,182.5Q351.25 233.4 348.85 285.35L349.85 283.7Q359.35 269 368.4 254.1Q371.55 248.85 375.95 245Q395.9 212.9 413.95 181.75Q414.9 194.45 407.05 208.2Q392.7 233.15 377.65 257.5L405.25 354.7L405.45 355.45Q411.95 361.35 406.55 370.6L405.95 371.2Q394.65 352.55 389.2 329.75L379.5 288.55Q376.4 275.3 374.8 262.1L357.45 289.45Q354.3 299 348.35 307.15L347.95 307.45L347.75 307.1Q346.65 328.35 346.45 349.7Q346.8 350.65 347.6 351.55L347.95 352.2Q348.35 361.8 342.95 369.2Q339.25 341.05 341.05 310.15Q344.5 251 346.85 191.7Q347.05 186 350.2 182.5M288.95,187Q296.6 226.2 303.55 265.55L305.95 265.65Q306.6 265.75 307.2 266Q309.5 268.45 308.95 271.95Q308.65 273.9 307.95 275.7L305.4 276.25L309.75 301.95Q312.55 318.75 317.55 335Q323 352.65 320.45 369.2Q318.3 369.15 317.2 366.95Q307.8 322.25 299.5 277.4Q284.8 280 269.75 280.45Q268.35 286.95 267.1 293.55Q259.6 333.55 246.45 371.45Q240.2 358.7 247.05 342.35Q252.8 328.65 255.85 313.85Q267.75 256.1 281.45 198.7Q284.2 187.35 288.2 178L288.6 186.6L288.95 187M144.05,191.85Q140.6 182.45 147.5 178.5Q166.3 234.05 188.2 289.25Q196.5 310.15 205.65 330.2Q209 337.6 211.25 345.25Q210.85 329 212.7 312.3Q216 282.95 217.3 253.3Q219 215.45 223.2 180Q225.45 238.55 221.05 298.5L217.45 350.95L218.6 352.8L218.95 353.45Q220.85 364.05 214.35 370.85L213.45 371.95Q206.6 360.2 201.45 345.25Q182.35 289.45 160.25 234.3Q154.3 219.4 148.65 204.35Q150.8 250.5 149.95 297.45Q149.3 331.55 146.15 364.9Q145.8 368.75 142.75 367.95L142.9 249.5Q143 221.7 145.45 195.65L144.05 191.85M294.9,252.4L287.7 205.6L271.85 271.2L297.4 266.1L294.9 252.4" />
</g>
</svg>
