<?xml version="1.0" encoding="utf-8"?>
<svg version="1.1" id="Layer_1"
xmlns="http://www.w3.org/2000/svg"
xmlns:xlink="http://www.w3.org/1999/xlink"


xml:space="preserve">
q-1.25 2.8 -0.95 5.95q0.15 1.6 1 3q17.9 2.2 35.85 2.7q-1.7 8.4 -1.4 18.05q0.5 18.2 -0.35 36.05q-2.1 44.45 -7.75 88.25q-2.2 16.9 3.4 29.4q5.05 -16.3 6.05 -34.45q2.3 -51.8 3.1 -102.75q2.2 -3.9 1.5 -8.3q-0.3 -2 -1.5 -3.7q-13.25 -0.3 -26.5 -0.15q-15.5 2.95 -30.7 6.25q0.65 -29.8 -0.2 -59.35q-5.4 6.15 -5.3 16.5q0.45 59.7 -4.05 119.15q-1.25 16.9 4.6 29.3q5.55 -4.75 4.2 -12q-3.2 -17.05 -2 -34.6q1.75 -24.95 2.5 -49.7q15.5 2.45 30.9 -1.6q-0.2 22.5 -2.65 44.8q-1.45 13.7 4.55 21.7q5.45 -20.8 5.05 -44.25q-0.5 -28.2 -0.5 -56.5q1 -3.3 0 -6.4q0.05 -28.1 0.5 -56.3q0.25 -16.75 -3.8 -29.5q-2.65 2.7 -2.65 7.25q0.55 59.6 -5.5 118.4q-1.25 11.9 -3.2 23.7q-4.75 -23.8 -14 -46.7q-22.3 -54.9 -41.7 -110.4q-0.55 -1.4 -1.5 -2.55q-6.8 43.6 -6.45 89.2q0.25 30 -1.9 59.85q-1.7 23.15 1 44.35q1 -0.5 1.1 -1.15q6.9 -32.65 5.8 -67.35q-1.85 -56.85 2.6 -112.25q5.35 33.7 19.8 66.3q23.65 53.25 34.9 110.45q0.5 2 2.25 2.4q1 -1.55 0.8 -3.6q5.65 -31.85 7.95 -64.65q2 -30.4 -3.55 -59.3q-0.8 -0.15 -1 0.4q-2.6 6.6 -2.55 13.85q-5.2 22.05 -11.3 45.2q-1.95 7.3 -5.25 14.1q-7.9 16.05 -8.45 33.65q-0.15 5.45 2 10.55q17.8 -46 28.6 -94.1q18.3 2.8 36.55 -0.55q6.9 49.15 21.3 95.75q4.95 -43.4 -11.9 -85.7q-2.75 -6.9 -4.1 -14.3q4.1 -5.5 0.4 -11.9q-12.1 34.95 -17.9 73.85q-1.3 8.7 -3.35 17.35<g id="1399" transform="matrix(1, 0, 0, 1, -136.8, 0)">
<path style="fill:#000000;fill-opacity:1" d="M357.45,184.85Q370.7 184.7 383.95 185L396.4 185.55L397.2 186Q398.4 187.7 398.7 189.7Q399.4 194.1 397.2 198L357.3 199.55Q356.5 250.5 354.2 302.3L352.5 336.75Q351.5 354.9 346.45 371.2Q340.85 358.7 343.05 341.8Q348.7 298 350.8 253.55Q351.65 235.7 351.15 217.5Q350.85 207.85 352.55 199.45Q334.6 198.95 316.7 196.75Q315.85 195.35 315.7 193.75Q315.4 190.6 316.65 187.8L317.45 186.5L357.3 184.85L357.45 184.5L357.45 184.85M422.95,180Q427 192.75 426.75 209.5Q426.3 237.7 426.25 265.8Q427.25 268.9 426.25 272.2Q426.25 300.5 426.75 328.7Q427.15 352.15 421.7 372.95Q415.7 364.95 417.15 351.25Q419.6 328.95 419.8 306.45L420.05 277.05Q404.65 281.1 389.15 278.65Q388.4 303.4 386.65 328.35Q385.45 345.9 388.65 362.95Q390 370.2 384.45 374.95Q378.6 362.55 379.85 345.65Q384.35 286.2 383.9 226.5Q383.8 216.15 389.2 210Q390.05 239.55 389.4 269.35Q404.6 266.05 420.1 263.1L420.3 187.25Q420.3 182.7 422.95 180M216.45,180.9Q216.65 180.35 217.45 180.5Q223 209.4 221 239.8L217.05 299Q214.75 331.8 209.1 363.65L209.15 364.25Q209.35 366.3 208.35 367.85L207.45 372.45L205.95 369.1Q204.2 368.7 203.7 366.7Q192.45 309.5 168.8 256.25Q154.35 223.65 149 189.95Q144.55 245.35 146.4 302.2Q147.5 336.9 140.6 369.55Q140.5 370.2 139.5 370.7Q136.8 349.5 138.5 326.35Q140.65 296.5 140.4 266.5Q140.05 220.9 146.85 177.3L147.25 177.25Q148.2 178.4 148.75 179.8L149.5 179.75Q168.9 235.25 191.2 290.15Q200.45 313.05 205.2 336.85Q207.15 325.05 208.4 313.15Q214.45 254.35 213.9 194.75Q213.85 187.5 216.45 180.9M259.3,253.35Q265.1 214.45 277.2 179.5L300.55 265.25L304.85 265.95L305.1 266.3Q308.8 272.7 304.7 278.2Q306.05 285.6 308.8 292.5Q325.65 334.8 320.7 378.2L319.4 375.3Q305 328.7 298.1 279.55Q279.85 282.9 261.55 280.1Q250.75 328.2 232.95 374.2Q230.8 369.1 230.95 363.65Q231.5 346.05 239.4 330Q242.7 323.2 244.65 315.9Q250.75 292.75 255.95 270.7Q258 262.05 259.3 253.35M263.75,269.9L294.7 265.9L278.45 203.2L263.75 269.9" />
</g>
</svg>
