<?xml version="1.0" encoding="utf-8"?>
<svg version="1.1" id="Layer_1"
xmlns="http://www.w3.org/2000/svg"
xmlns:xlink="http://www.w3.org/1999/xlink"


xml:space="preserve">
q-11.5 1.75 -22.95 4.15q-8.6 1.8 -16.5 0.15q-0.15 -1.6 0.5 -3q18.55 -3 37.45 -8.4q11.95 -3.4 23.8 -4.35q24 -0.25 47.55 3q2.1 0.95 3.55 2.5q-26.9 -1.9 -53.65 0.2q2.55 55.95 1.3 112.55q-1.4 59.4 -0.05 119.2q0.65 26.95 -4.35 52.5q-4.45 -12.85 -2.7 -29.45q1.6 -14.9 1.5 -29.8q-0.35 -59.9 1.55 -119.25q1.35 -43.15 -0.05 -86.2q-0.35 -10.35 1.1 -19.45q0.6 58.35 0.6 118.5q0.1 1.65 -0.7 3q0.2 44.9 1.05 90q0.6 31.9 -4.5 62.25q-6.1 -12.65 -4.15 -29.45q3.4 -29.65 3.3 -59.75q-27.95 3.6 -55.55 2.3q-0.25 46.7 -2.55 93.6q1.45 10.1 -2.75 19.5q-5.85 -12.05 -2.6 -29.25q1.35 -7.25 1.7 -14.7q2.7 -59.8 2.9 -119.25q0.15 -59.15 -0.25 -118.5q-0.05 -7.2 2.75 -12.25q2.25 59.4 2.65 119.25q19.45 -5.35 40.05 -4.95q0.1 -35.2 -0.7 -70.5q-0.25 -12 4.35 -21q0.4 0 0.75 0.4q0.55 1.8 0.3 3.7q3.45 15.95 8.2 31.55q5.3 17.4 0.4 32.4q-1.6 -0.35 -2.25 -2q-8.95 -58 -22.35 -115.8q-32.05 7.65 -65.8 7.85q-5.5 30.4 -9.35 61.05q-3.15 24.95 -12.75 47.9q-4.8 -12.9 2 -29.1q4.25 -10.1 5.7 -21.05q7.7 -58.35 21.2 -115.9q10.15 -43.1 19.9 -86.3q3.45 -15.35 10.95 -27.35q-5.45 23.8 -9.9 47.75q30.85 -5.2 62.2 -9.35q-12.1 -52.75 -22.35 -105.6q-5.05 -26.15 -2.65 -50.5q8.45 58.1 20.5 115.95q4.35 4.6 5 11.3q-13.55 -11.6 -31.75 -7.25q-33.15 25.7 -39.3 68.55q-6.05 42.35 -6.5 85.5q1.9 2.7 0.9 5.95q-33.15 12.85 -69.1 12.6q0 11.8 0.4 23.65q1.9 54.65 28.7 101.25q2.45 4.3 7.25 6.25q18.7 7.5 33.7 -5.65q16.05 -14.1 28.55 -30.65q1 0.15 1.85 -0.8q-10 38 -47.75 52.05q-8.7 3.25 -16.15 -1.5q-22.8 -14.5 -28.9 -42.25q-3.35 -15.15 -6.05 -30.55q-6.2 -36.05 -7.15 -72.65q-0.3 -19.7 0.95 -39.55q2.75 -45.05 17.7 -87q10.15 -28.65 36.25 -39.9q-0.75 59.5 7.9 117.7q8.7 58.25 14.25 117q1.25 12.95 1.7 26q12.95 -57.8 20.6 -116.6q7.65 -58.8 21.1 -116.6q5.95 -25.55 9.05 -51.25q5.2 11.5 0.85 28q-15.35 58.1 -22.45 117.95q-7.05 59 -18.9 117.2q-4.85 23.9 -10.25 47.05q-6.15 -27.25 -7.65 -57.65q-0.7 -15.05 -2.4 -30.1q-6.55 -58.65 -13.95 -117.1q-5.55 -44.1 -5.2 -89.1q-10.85 57.4 -17.25 116.1q-6.4 58.45 -12.45 117.1q-2.15 21 -5.8 40.75q1.9 -56 9.4 -115.5q7.35 -58.4 14.2 -116.9q3.85 -32.6 10.9 -62.8q6.6 12.2 6.35 28.75<g id="1417" transform="matrix(1, 0, 0, 1, -33.5, 0)">
<path style="fill:#000000;fill-opacity:1" d="M366.85,121.3L342.15 124.2Q330.65 125.95 319.2 128.35Q310.6 130.15 302.7 128.5L302.5 127.75L302.25 125.5L302.2 124.75Q302.05 123.15 302.7 121.75Q321.25 118.75 340.15 113.35Q352.1 109.95 363.95 109Q387.95 108.75 411.5 112L418.2 112.75L419.05 113.35Q421.15 114.3 422.6 115.85L422.95 116.5L423.2 117.25L423.15 118L422.9 119.5L422.65 120.2L422.2 121Q395.3 119.1 368.55 121.2Q371.1 177.15 369.85 233.75Q368.45 293.15 369.8 352.95Q370.45 379.9 365.45 405.45Q361 392.6 362.75 376Q364.35 361.1 364.25 346.2Q363.9 286.3 365.8 226.95Q367.15 183.8 365.75 140.75Q365.4 130.4 366.85 121.3M468.2,128.5Q468.8 186.85 468.8 247L468.85 268.3L476.2 268.6L476.7 269L477.05 269.75L477.4 272Q477.5 273.65 476.7 275L468.9 276.2Q469.1 321.1 469.95 366.2Q470.55 398.1 465.45 428.45Q459.35 415.8 461.3 399Q464.7 369.35 464.6 339.25L464.45 276.8Q436.5 280.4 408.9 279.1Q408.65 325.8 406.35 372.7L404.45 409.45Q405.9 419.55 401.7 428.95Q395.85 416.9 399.1 399.7Q400.45 392.45 400.8 385Q403.5 325.2 403.7 265.75Q403.85 206.6 403.45 147.25Q403.4 140.05 406.2 135Q408.45 194.4 408.85 254.25L408.9 272.45Q428.35 267.1 448.95 267.5L464.45 268.1L464.55 220Q464.65 184.8 463.85 149.5Q463.6 137.5 468.2 128.5M330.2,274.85Q330.6 274.85 330.95 275.25Q331.5 277.05 331.25 278.95L330.7 281.25L318.65 284.6L330.35 339.5Q333.8 355.45 338.55 371.05Q343.85 388.45 338.95 403.45Q337.35 403.1 336.7 401.45Q327.75 343.45 314.35 285.65Q282.3 293.3 248.55 293.5Q243.05 323.9 239.2 354.55Q236.05 379.5 226.45 402.45Q221.65 389.55 228.45 373.35Q232.7 363.25 234.15 352.3Q241.85 293.95 255.35 236.4Q265.5 193.3 275.25 150.1Q278.7 134.75 286.2 122.75L259.9 237.95Q254.45 261.75 250 285.7Q280.85 280.5 312.2 276.35Q300.1 223.6 289.85 170.75Q284.8 144.6 287.2 120.25L288 121.7L288.45 122.5Q296.9 180.6 308.95 238.45L316.75 275.75L326.2 274.5L330.2 274.85M223.95,121.9L226.2 122.25L232.2 128.2Q236.55 132.8 237.2 139.5Q223.65 127.9 205.45 132.25Q172.3 157.95 166.15 200.8Q160.1 243.15 159.65 286.3L228.2 274.25Q230.1 276.95 229.1 280.2L228.7 281Q195.55 293.85 159.6 293.6Q159.6 305.4 160 317.25Q161.9 371.9 188.7 418.5Q191.15 422.8 195.95 424.75Q214.65 432.25 229.65 419.1Q245.7 405 258.2 388.45L259 388.9Q260 389.05 260.85 388.1L261.2 388.45Q251.2 426.45 213.45 440.5Q204.75 443.75 197.3 439Q174.5 424.5 168.4 396.75Q165.05 381.6 162.35 366.2Q156.15 330.15 155.2 293.55L154.45 293.5L151.45 291.25L155.05 287.45Q154.75 267.75 156 247.9Q158.75 202.85 173.7 160.9Q183.85 132.25 209.95 121L223.95 121.9M74.35,142.25Q73.6 201.75 82.25 259.95Q90.95 318.2 96.5 376.95Q97.75 389.9 98.2 402.95Q111.15 345.15 118.8 286.35Q126.45 227.55 139.9 169.75Q145.85 144.2 148.95 118.5Q154.15 130 149.8 146.5Q134.45 204.6 127.35 264.45Q120.3 323.45 108.45 381.65Q103.6 405.55 98.2 428.7Q92.05 401.45 90.55 371.05Q89.85 356 88.15 340.95Q81.6 282.3 74.2 223.85Q68.65 179.75 69 134.75Q58.15 192.15 51.75 250.85Q45.35 309.3 39.3 367.95Q37.15 388.95 33.5 408.7Q35.4 352.7 42.9 293.2Q50.25 234.8 57.1 176.3Q60.95 143.7 68 113.5Q74.6 125.7 74.35 142.25" />
</g>
</svg>
