<?xml version="1.0" encoding="utf-8"?>
<svg version="1.1" id="Layer_1"
xmlns="http://www.w3.org/2000/svg"
xmlns:xlink="http://www.w3.org/1999/xlink"


xml:space="preserve">
q-4.3 34.2 -5.3 69.55q-1.05 37.1 -3.55 74.15q-1.15 16.9 4.7 29.3q6.15 -10.2 3.5 -17.5q-0.25 -22 0.85 -47.45q2.3 -54.6 1.8 -107.95q27.9 1.3 55.85 0.95q1.4 -1.25 1.85 -2.95q1.5 -5.55 -2.1 -10.55q-3.65 -1.25 -7.45 -1.45q-41.6 -0.15 -83.5 1.75q-1.4 1.3 -1.7 3.5q-0.5 3.6 0.95 6.75q-0.8 -0.15 -1.1 0.4q-7.05 14.15 -1.4 27.1q6.5 -13.5 1.8 -26.85q-8.7 2.9 -15.75 -2.5q-2.7 -5.8 -8.25 -7.5q-4.45 7.55 -0.05 15.35q8.5 14.9 24.1 9.95q3.2 -1 4.65 -3.85q10.25 -20.15 8.6 -44.95q-1.85 -27.45 -2.8 -53.95q-2.8 1 -2.95 4.75q-7.3 56.3 -7.45 113.9q-0.05 22.5 -1.6 44.9q-1.5 -5.8 -3.9 -11.55q-8.05 -19.6 -14.75 -39.75q-19.05 -57 -36.35 -112.85q-0.5 0.95 -0.85 2q-0.8 3.65 -0.65 7.7q-4.9 59.1 -2.5 117.85q2 1.3 2.15 -0.8q2.1 -25.35 3.2 -51.7q0.55 -13.45 1.95 -26.8q4.8 -45.7 3.65 -91.05q18.6 55.3 35.5 110.9q8.8 28.9 20.25 54.95q1.4 -1.15 1.55 -3q1.05 3.1 2.55 5.9q1.15 -0.85 1.25 -2.25q1.7 -60.05 1.3 -118.45q-0.75 0.1 -0.75 0.3q-18.45 -16.05 -38.1 -2.35q-15.15 10.6 -22.1 28.4q-6.85 17.45 -11.15 35.7q-5.1 21.4 -5.55 43.45q-0.45 20.9 3.35 41.35q4.25 22.85 24.3 32.95q19.5 9.85 38.3 -4.35q16.55 -12.4 20.5 -30.85q0.8 -3.8 -2.65 -6.5q-14.7 23.35 -41.5 28.05q-12 2.3 -23.25 -2.3q-16.65 -34.85 -12.1 -73.25q25.7 -5.95 52.1 -4.95q1.75 -2.65 1.9 -6q0.15 -3.9 -2 -7.45q-25.25 -3.85 -49.35 4.35q7.7 -36.1 28.95 -66.05q16.4 -7.8 31.8 0.75q10 5.5 13.95 16.5q3.1 -8.15 -0.2 -16.4q-2.4 -6.1 -6.95 -10.7<g id="1423" transform="matrix(1, 0, 0, 1, -133.35, 0)">
<path style="fill:#000000;fill-opacity:1" d="M327.7,192.75Q326.25 189.6 326.75 186Q327.05 183.8 328.45 182.5Q370.35 180.6 411.95 180.75Q415.75 180.95 419.4 182.2L420.2 182.75Q423.8 187.75 422.3 193.3Q421.85 195 420.45 196.25Q392.5 196.6 364.6 195.3Q365.1 248.65 362.8 303.25Q361.7 328.7 361.95 350.7Q364.6 358 358.45 368.2Q352.6 355.8 353.75 338.9Q356.25 301.85 357.3 264.75Q358.3 229.4 362.6 195.2L327.7 192.75M417.65,232.6L416.95 233.25Q411.3 220.3 418.35 206.15Q418.65 205.6 419.45 205.75Q424.15 219.1 417.65 232.6M416.45,260.75Q417.4 287.25 419.25 314.7Q420.9 339.5 410.65 359.65Q409.2 362.5 406 363.5Q390.4 368.45 381.9 353.55Q377.5 345.75 381.95 338.2Q387.5 339.9 390.2 345.7Q397.25 351.1 405.95 348.2L410.7 344.2L413.5 265.5Q413.65 261.75 416.45 260.75M211.45,179.5Q211.85 237.9 210.15 297.95L207.95 365.45Q207.85 366.85 206.7 367.7Q205.2 364.9 204.15 361.8L204 367.45Q203.85 369.3 202.45 370.45Q191 344.4 182.2 315.5Q165.3 259.9 146.7 204.6Q147.85 249.95 143.05 295.65Q141.65 309 141.1 322.45Q140 348.8 137.9 374.15Q137.75 376.25 135.75 374.95Q133.35 316.2 138.25 257.1L143.8 191.25Q143.65 187.2 144.45 183.55L144.95 177.75L145.5 177.75L145.65 179.75Q146 178.7 146.5 177.75Q163.8 233.6 182.85 290.6Q189.55 310.75 197.6 330.35Q200 336.1 201.5 341.9L201.65 338.6Q203.2 316.2 203.25 293.7Q203.4 236.1 210.7 179.8Q210.7 179.6 211.45 179.5M314,193.1Q317.3 201.35 314.2 209.5Q310.25 198.5 300.25 193Q284.85 184.45 268.45 192.25Q247.2 222.2 239.5 258.3Q263.6 250.1 288.85 253.95L289.1 254.3Q291.25 257.85 291.1 261.75Q290.95 265.1 289.2 267.75Q262.8 266.75 237.1 272.7Q232.55 311.1 249.2 345.95Q260.45 350.55 272.45 348.25Q299.25 343.55 313.95 320.2Q317.4 322.9 316.6 326.7Q312.65 345.15 296.1 357.55Q277.3 371.75 257.8 361.9Q237.75 351.8 233.5 328.95Q229.7 308.5 230.15 287.6Q230.6 265.55 235.7 244.15Q240 225.9 246.85 208.45Q253.8 190.65 268.95 180.05Q288.6 166.35 307.05 182.4Q311.6 187 314 193.1" />
</g>
</svg>
