<?xml version="1.0" encoding="utf-8"?>
<svg version="1.1" id="Layer_1"
xmlns="http://www.w3.org/2000/svg"
xmlns:xlink="http://www.w3.org/1999/xlink"


xml:space="preserve">
q8.55 -14.05 4.8 -26.1q-19.45 35.25 -43 69.7q-8.55 12.55 -18.15 24.1q-8.35 10.1 -11.5 21q1.25 -41.7 3.9 -83.25q1.05 -15.9 -2 -30.05q-5.8 22.4 -6.4 48q-1 44.2 -4.65 88.3q-2.6 31.05 2.8 59.15q5.15 -22.05 5.55 -47q4.05 -3.35 6.8 -7.75q8.3 29.95 22 54.8q4.25 -7.4 1.15 -15.8q-18.7 -51.6 -33.85 -103.55q-4.6 -9.7 -14.55 -13.85q-7.05 -1.65 -14.55 -0.9q-27.6 5.7 -39.55 30.3q-7.4 15.3 -11.45 31.75q-14.7 59.55 7.65 115q2.8 7 9.85 9.15q26.5 7.95 48.7 -12.2q16.45 -14.9 6.3 -32.05q-11.45 26.4 -42.5 32.6q-5.7 1.15 -9.75 -2.65q-20.9 -19.4 -19.7 -49.7q0.45 -11.95 1.5 -23.8q24.85 -2.15 50.45 -0.95q4.05 -7.4 -0.65 -14.15q-25.25 -2.75 -49.1 2.25q1.15 -10.35 2.7 -20.55q4.2 -27.75 27.6 -42.15q31.2 -19.2 49.55 7.2q3.1 -6.75 -0.2 -13.9q-7.75 52.65 -9 107.15q-0.65 27.05 -3.9 53.7q-14.45 -52.95 -33.6 -104.3q-10.6 -28.5 -25.85 -52.95q-3.2 0.6 -3.45 4.45q-3.2 49.75 -4.55 99.75q-0.8 30.05 -5.35 59q-2.7 16.85 3.35 29.5q5.7 -28.45 5.55 -58.5q-0.1 -23 2.15 -45.65q3.85 -38.3 2.8 -75.75q1.75 7 4.8 13.95q24.2 55.2 38.8 113.05q6.85 27.2 17.6 50.85q3.3 -4.05 2.4 -9.7q4.3 -31.6 5.3 -64.5q0.9 -29.5 2.95 -59.1q2.1 -30.25 -0.15 -59.35<g id="1427" transform="matrix(1, 0, 0, 1, -128.45, 0)">
<path style="fill:#000000;fill-opacity:1" d="M409.55,224.65L391 255.1Q406.15 307.05 424.85 358.65Q427.95 367.05 423.7 374.45Q410 349.6 401.7 319.65L386.1 263.75L385.95 263.25L363.5 299.35Q360.75 303.75 356.7 307.1L355.85 307.55L355.5 324.45Q355.1 349.4 349.95 371.45Q344.55 343.35 347.15 312.3Q350.8 268.2 351.8 224Q352.4 198.4 358.2 176Q361.25 190.15 360.2 206.05Q357.55 247.6 356.3 289.3Q359.45 278.4 367.8 268.3Q377.4 256.75 385.95 244.2Q409.5 209.75 428.95 174.5Q432.7 186.55 424.15 200.6L409.55 224.65M327.2,210.25Q308.85 183.85 277.65 203.05Q254.25 217.45 250.05 245.2Q248.5 255.4 247.35 265.75Q271.2 260.75 296.45 263.5Q301.15 270.25 297.1 277.65L296.45 278.45Q270.85 277.25 246 279.4Q244.95 291.25 244.5 303.2Q243.3 333.5 264.2 352.9Q268.25 356.7 273.95 355.55Q305 349.35 316.45 322.95Q326.6 340.1 310.15 355Q287.95 375.15 261.45 367.2Q254.4 365.05 251.6 358.05Q229.25 302.6 243.95 243.05Q248 226.6 255.4 211.3Q267.35 186.7 294.95 181Q302.45 180.25 309.5 181.9L312.45 182.5Q322.4 186.65 327 196.35Q330.3 203.5 327.2 210.25M217.45,177.5Q219.7 206.6 217.6 236.85Q215.55 266.45 214.65 295.95Q213.65 328.85 209.35 360.45L209.85 363.5Q210.75 369.15 207.45 373.2L206.2 370.4Q195.45 346.75 188.6 319.55Q174 261.7 149.8 206.5Q146.75 199.55 145 192.55Q146.05 230 142.2 268.3Q139.95 290.95 140.05 313.95Q140.2 344 134.5 372.45Q128.45 359.8 131.15 342.95Q135.7 314 136.5 283.95Q137.85 233.95 141.05 184.2Q141.3 180.35 144.5 179.75L144.6 181.15Q159.85 205.6 170.45 234.1Q189.6 285.45 204.05 338.4Q207.3 311.75 207.95 284.7Q209.2 230.2 216.95 177.55L217.45 177.5" />
</g>
</svg>
