<?xml version="1.0" encoding="utf-8"?>
<svg version="1.1" id="Layer_1"
xmlns="http://www.w3.org/2000/svg"
xmlns:xlink="http://www.w3.org/1999/xlink"


xml:space="preserve">
q-6.35 132.55 -5.5 265.5q0.1 11.55 -1.3 23.1q-1.35 11.2 3.25 21.15q8.7 -53.5 6.3 -107.85q-3.25 -72.75 -2.05 -145.75q2.4 -4.6 -0.1 -9.1q-38.85 7.45 -78.45 4.75q-12.95 -0.8 -25.8 -3q23.55 11.7 53.05 9.65q-2.7 3.7 -3.7 9.5q-1.05 0.25 -1.3 1.4q-4.15 21.8 -10.95 42.8q-5.15 16 -0.65 29.5q9.65 -25.7 14.1 -53.45q24.05 5.7 48.75 5.7q5.75 36.3 11.15 72.6q4.65 31.1 14.25 58.3q0.65 -0.75 0.6 -1.45q-2.7 -44.15 -12.3 -87.95q-12.6 -57.45 -21.05 -115.95q-8.4 -58.4 -10.5 -117.85q6.45 54.4 14.9 108.5q-23 -0.8 -45.75 -3.65q2.35 -14.55 5.6 -28.85q12.75 -56.6 18.45 -113.05q-2.55 35.15 1.9 72.1q-27.3 4.1 -39.15 30.3q-21.9 48.45 -24.4 101.85q-2.85 59.75 4.6 117.9q3.95 30.55 23.35 54.3q22.8 27.9 55.05 6.7q17.85 -11.75 16.55 -30.35q-20.25 21.75 -48.05 14.95q-18.95 -8.65 -25.9 -30.25q-13.8 -42.65 -14.75 -88.45q28.75 3.95 59.5 4q1.95 -1.85 1.8 -4.5q-11 0.1 -21.95 -0.45q-5.7 -0.85 -10.3 0.25q0.7 -46.6 9.7 -91.75q7 -34.95 31.5 -59.8q19.15 -7.95 40 -4.25q6.6 6.15 11.15 13.9q2.25 -8.45 -4.35 -16.85q-3.55 -4.5 -7.9 -7.9q-9.95 33.45 -18.05 69.9q-12.85 58 -22.7 116.45q-9.6 57.2 -19.75 114.1q-3.2 -58.25 -7.15 -116.3q-3.9 -57.5 -3.4 -115.45q0.3 -30.2 -5.7 -57q-7.3 57 -18.7 113.4q-11.55 57.35 -19.65 115.3q-4.05 28.9 -9.85 57.4q-4.65 22.9 -2 43.1q6.65 -31 11.05 -62.95q8 -58.3 18.5 -116.1q10.4 -57.3 20.2 -114.65q1.6 12.55 1.6 25.5q-0.05 58.35 3.9 116.2q3.9 57.8 6.6 115.55q0.35 7.65 0.05 14.9q-0.55 13.25 5.55 20.8q2.6 -20.2 5.7 -40.55q8.9 -58.5 19.65 -116.35q10.75 -57.95 26.65 -114.95q8.15 -29.35 7.75 -58.1<g id="1419" transform="matrix(1, 0, 0, 1, -42.6, 0)">
<path style="fill:#000000;fill-opacity:1" d="M419.55,94.8Q390.05 96.85 366.5 85.15L367.2 81Q380.05 83.2 393 84Q432.6 86.7 471.45 79.25L472.2 80.55Q474.7 85.05 472.3 89.65L435.25 93.9L434.7 150.1Q433.5 223.1 436.75 295.85Q439.15 350.2 430.45 403.7Q425.85 393.75 427.2 382.55Q428.6 371 428.5 359.45Q427.65 226.5 434 93.95L419.55 94.8M343.2,73.25Q345.3 132.7 353.7 191.1Q362.15 249.6 374.75 307.05Q384.35 350.85 387.05 395Q387.1 395.7 386.45 396.45Q376.85 369.25 372.2 338.15Q366.8 301.85 361.05 265.55L360.95 265.75Q336.25 265.75 312.2 260.05L300.05 335.25Q295.6 363 285.95 388.7Q281.45 375.2 286.6 359.2Q293.4 338.2 297.55 316.4L308.3 259.1L307.95 259L307.75 257.5L307.7 256.75L307.75 256L307.95 255.25Q308.2 254.1 309.25 253.85L318.95 200.25L339.45 83.6Q340.45 77.8 343.15 74.1L343.2 73.25M342.95,76.8Q337.25 133.25 324.5 189.85Q321.25 204.15 318.9 218.7L313.2 253.7Q335.95 256.55 358.95 257.35L359.75 257.4Q351.3 203.3 344.85 148.9Q340.4 111.95 342.95 76.8M254.2,76.5Q258.55 79.9 262.1 84.4Q268.7 92.8 266.45 101.25L265.9 100.65Q261.35 92.9 254.75 86.75L253.95 86Q233.1 82.3 213.95 90.25Q189.45 115.1 182.45 150.05Q173.45 195.2 172.75 241.8Q177.35 240.7 183.05 241.55L185.2 241.35L186 241.15L189.95 240.75L210 241.55Q220.95 242.1 231.95 242L233.1 243.55L233.65 245L233.95 246.5L234 247.25Q234.15 249.9 232.2 251.75Q201.45 251.7 172.7 247.75L172.8 260.5Q173.75 306.3 187.55 348.95Q194.5 370.55 213.45 379.2Q241.25 386 261.5 364.25L268.95 355.95Q270.25 374.55 252.4 386.3Q220.15 407.5 197.35 379.6Q177.95 355.85 174 325.3Q166.55 267.15 169.4 207.4Q171.9 154 193.8 105.55Q205.65 79.35 232.95 75.25L251.45 76.15L254.2 76.5M164.7,126.6Q148.8 183.6 138.05 241.55Q127.3 299.4 118.4 357.9Q115.3 378.25 112.7 398.45Q106.6 390.9 107.15 377.65Q107.45 370.4 107.1 362.75Q104.4 305 100.5 247.2Q96.55 189.35 96.6 131Q96.6 118.05 95 105.5Q85.2 162.85 74.8 220.15Q64.3 277.95 56.3 336.25Q51.9 368.2 45.25 399.2Q42.6 379 47.25 356.1Q53.05 327.6 57.1 298.7Q65.2 240.75 76.75 183.4Q88.15 127 95.45 70Q101.45 96.8 101.15 127Q100.65 184.95 104.55 242.45Q108.5 300.5 111.7 358.75L111.95 368.95Q122.1 312.05 131.7 254.85Q141.55 196.4 154.4 138.4Q162.5 101.95 172.45 68.5Q172.85 97.25 164.7 126.6" />
</g>
</svg>
