<?xml version="1.0" encoding="utf-8"?>
<svg version="1.1" id="Layer_1"
xmlns="http://www.w3.org/2000/svg"
xmlns:xlink="http://www.w3.org/1999/xlink"


xml:space="preserve">
q-0.6 0.45 -1.1 1q-0.65 1.4 -0.65 3q0 1.05 0.3 2q-3.65 16.55 -4.15 34.75q-1.15 41.35 -3.4 82.6q-1.45 4.2 -0.15 8.35q-3 44.4 -9.15 88.2q-2.3 16.5 2.5 29.95q6.7 -19.45 7.65 -41.7q2.15 -50.25 5.7 -100.45q16.55 -4.05 26.9 -20.6q2.9 -4.55 6.5 -8.25q26.25 -26.5 19.7 -61.15q-1.4 -7.2 -3.4 -14q-8.45 -28.45 -35.05 -35.55q-2.2 0.65 -3.95 1.9q-16.55 6.85 -22.9 23.9q-6.4 17.1 -11.35 34.6q-5 17.45 -8.35 35.35q-3.6 19.1 -5.5 38.8q-1.75 18.55 -1.8 36.95q-0.1 18.35 1.35 36.7q1.6 20.4 4.5 40.5q3.8 26 25.8 26.6q8.15 0.4 15.05 -4.85q17.45 -13.35 26.65 -33.3q5.05 -11.05 2.45 -23q-14.3 41.9 -54.75 47.95q-23.15 -61.4 -13.95 -126.65q23.3 0.3 45.95 -4.8q-22.15 -2.7 -44.3 3.35q0.85 -60 36.05 -103.45q12.55 -15.45 30.05 -6.35q4.7 2.4 8.55 6q-9.6 -24.35 -33.8 -14.5q-16.55 34.65 -44.05 62.2q4.15 -55.25 3.9 -109.5q22.95 18.8 28.35 48.6q0.65 3.65 -0.8 6.7q29.85 -9.6 41.8 14.7q1.9 -9.65 -3.95 -17.5q-1.9 -2.65 -3.05 -5.75q-13.5 -8.75 -30.45 -7.1q-14.05 7.3 -20.85 22.55q-14.3 32.05 -21.4 66.45q-11.85 57.85 -14.5 117.45q-1.65 37.1 12.6 70.3q2.1 4.95 7 5.9q26.8 5.25 46.55 -16.45q14 -15.4 13.85 -33.45q-6.05 2.3 -10.25 9.1q-17.25 27.65 -48.5 28.1q-10.55 -9.3 -11.5 -24q-0.75 -12.15 -1.2 -24.05q-1.4 -39.75 2.5 -79q0.45 1 1.2 1.85q28.25 1.35 52.75 -11.5q0.4 -1.1 0.3 -2.25q-0.15 -1.25 -0.8 -2.25q-1.95 -1.8 -4.3 -2.95q1.7 -15.05 4.15 -30q7.45 -45.2 31.3 -83.85q2.15 -3.55 5.85 -4.75q-7.1 21.5 -7.9 45.95q-1.5 44.25 -5.8 88.35q-5.7 58.9 -7.2 118.65q-0.2 8.45 -1.15 16.85q-7.65 -44.2 -14.85 -88.45q-5.95 -36.6 -12.25 -73.15q-10.05 -58 -26.1 -114.45q-0.6 -0.2 -0.55 0.2q-0.75 -1.95 -2.05 -3.8q-4.25 29.65 -6.05 61.95q-3.3 59.35 -7.65 118.6q-4.35 59.25 -10.15 118.25q-1.35 13.6 4.35 21.65q5 -30.55 5.95 -62.25q1.75 -59.5 7.3 -118.5q5.55 -59.05 7.8 -118.5q0.35 -8.3 0.7 -6.95q3.5 22.3 7.75 45.35q10.75 57.9 19.25 116.15q2.35 16 7.55 28.4q1.7 -2.35 2.4 -5.1q3.35 -3.35 3.15 -8.15q-2.4 -59.35 3.35 -118.5q5.65 -58.95 8.75 -118.45q1.6 -30.5 2.1 -59.25<g id="1413" transform="matrix(1, 0, 0, 1, -61, 0)">
<path style="fill:#000000;fill-opacity:1" d="M403.45,121.5Q405.2 120.25 407.4 119.6L412.95 117.75Q439.55 124.85 448 153.3Q450 160.1 451.4 167.3Q457.95 201.95 431.7 228.45Q428.1 232.15 425.2 236.7Q414.85 253.25 398.3 257.3Q394.75 307.5 392.6 357.75Q391.65 380 384.95 399.45Q380.15 386 382.45 369.5Q388.6 325.7 391.6 281.3L393.3 254.1Q392 249.95 393.45 245.75L393.8 245.35Q396.05 204.1 397.2 162.75Q397.7 144.55 401.35 128Q401.05 127.05 401.05 126Q401.05 124.4 401.7 123Q402.2 122.45 402.8 122L402.9 121.6L403.45 121.5M362.85,135.25L362.2 139.75Q358.35 136.15 353.65 133.75Q336.15 124.65 323.6 140.1Q288.4 183.55 287.55 243.55Q309.7 237.5 331.85 240.2L332.2 249.5Q309.55 254.6 286.25 254.3Q277.05 319.55 300.2 380.95Q340.65 374.9 354.95 333Q357.55 344.95 352.5 356Q343.3 375.95 325.85 389.3Q318.95 394.55 310.8 394.15Q288.8 393.55 285 367.55Q282.1 347.45 280.5 327.05Q279.05 308.7 279.15 290.35Q279.2 271.95 280.95 253.4Q282.85 233.7 286.45 214.6Q289.8 196.7 294.8 179.25Q299.75 161.75 306.15 144.65Q312.5 127.6 329.05 120.75Q353.25 110.9 362.85 135.25M447.8,177.1Q442.4 147.3 419.45 128.5L403.5 129.7Q403.75 183.95 399.6 239.2L399.1 246.1L402.95 246Q430.45 218.45 447 183.8Q448.45 180.75 447.8 177.1M228.55,126.55Q204.7 165.2 197.25 210.4Q194.8 225.35 193.1 240.4L240.45 230.5Q242.8 231.65 244.75 233.45L245.7 234.25Q246.35 235.25 246.5 236.5Q246.6 237.65 246.2 238.75Q221.7 251.6 193.45 250.25Q192.7 249.4 192.25 248.4Q188.35 287.65 189.75 327.4Q190.2 339.3 190.95 351.45Q191.9 366.15 202.45 375.45Q233.7 375 250.95 347.35Q255.15 340.55 261.2 338.25Q261.35 356.3 247.35 371.7Q227.6 393.4 200.8 388.15Q195.9 387.2 193.8 382.25Q179.55 349.05 181.2 311.95Q183.85 252.35 195.7 194.5Q202.8 160.1 217.1 128.05Q223.9 112.8 237.95 105.5Q254.9 103.85 268.4 112.6L269.2 113.25Q270.35 116.35 272.25 119Q278.1 126.85 276.2 136.5Q264.25 112.2 234.4 121.8Q230.7 123 228.55 126.55M163.1,163.75Q160 223.25 154.35 282.2Q148.6 341.35 151 400.7Q151.2 405.5 147.85 408.85Q147.15 411.6 145.45 413.95Q140.25 401.55 137.9 385.55Q129.4 327.3 118.65 269.4L97.1 153.2Q92.85 130.15 89.35 107.85L88.85 111.15L88.45 111.25Q88.1 109.9 87.75 118.2Q85.5 177.65 79.95 236.7Q74.4 295.7 72.65 355.2Q71.7 386.9 66.7 417.45Q61 409.4 62.35 395.8Q68.15 336.8 72.5 277.55Q76.85 218.3 80.15 158.95Q81.95 126.65 86.2 97Q87.5 98.85 88.25 100.8L87.65 96.95Q87.6 96.55 88.2 96.75L89.2 97.5L89.95 98.25Q106 154.7 116.05 212.7Q122.35 249.25 128.3 285.85Q135.5 330.1 143.15 374.3Q144.1 365.9 144.3 357.45Q145.8 297.7 151.5 238.8Q155.8 194.7 157.3 150.45Q158.1 126 165.2 104.5Q164.7 133.25 163.1 163.75" />
</g>
</svg>
