<?xml version="1.0" encoding="utf-8"?>
<svg version="1.1" id="Layer_1"
xmlns="http://www.w3.org/2000/svg"
xmlns:xlink="http://www.w3.org/1999/xlink"


xml:space="preserve">
q-27.75 14.5 -36.85 45.45q-14.3 48.6 -14.9 99.75q-0.25 22.15 10.1 40.8q2.8 5 8.8 5.6q36.45 3.45 50.75 -27.1q-0.6 14.35 -0.9 28.45q1.3 2.05 3.5 0.75q5.15 -17.2 6 -35.9q0.85 -19.75 -5.5 -34.85q-3.15 1.65 -6 3.25q-1.05 4.3 0.65 8.2q1.5 1.9 3.75 1q9.25 -5.7 17.75 -0.75q-1.25 -1.7 -3.05 -3.15q-2.7 2.85 -2.75 6.75q-3.8 9.65 -11.8 16.45q-18.65 16 -40.2 6.3q-2.4 -5.05 -3 -10.6q-3.7 -36.05 -0.3 -72.05q4.15 -44.35 37.8 -72q3.85 -3.2 7.45 -0.6q10.5 7.65 15.3 18.55q1.2 -3.7 0.8 -7.45q-1.35 -13.95 -9.3 -25.55q-4.1 -2.2 -8.8 -1.95q-46.5 -0.2 -90.95 7.5q-2.7 5.7 1 10.5q-4.7 40.9 -5.55 83.15q-0.55 29.75 -3.95 59.1q-1.9 16.5 3.5 29.9q6.05 -29.6 7 -62q1.65 -55.65 0.65 -110.25q3.4 -6.25 -0.45 -11.95q-3.05 10.85 -2.2 22.55q2.9 39.1 0.7 77.8q-1.7 30.3 -24.75 49.1q-22.7 18.55 -50.4 5.45q-5.35 -2.5 -6.1 -7.95q-6.1 -44.05 -0.9 -89q1.9 -16.6 -2.35 -29q-7.05 53.55 -7.5 108.7q-0.15 16.8 11.5 28.3q13.75 13.55 34.4 8.65q39 -9.35 48.8 -48.75q8.25 -33.2 7.4 -68.15q-0.75 -30.7 -6.35 -59.25q-1.75 -0.2 -2.25 1.55q-19.05 37.55 -3.65 78.6q1.65 4.45 6.35 5.05q23.25 3 32.15 -20.9q14.45 -38.7 -9.4 -70.25q-2.8 0.95 -6.45 1.05q-7.25 0.25 -10.5 6.7q6.5 -0.2 12.75 0q21.75 36.1 -10.75 62.95q-8.05 3.1 -14.5 -2q-4.1 -8.5 -5.85 -17.7q-5.7 -29.75 13.35 -50.5q2.45 -1.35 2.35 0.45q-0.2 4.1 2.65 6.8<g id="1462" transform="matrix(1, 0, 0, 1, -138.8, 0)">
<path style="fill:#000000;fill-opacity:1" d="M401.75,180.45L403.2 181.25Q411.15 192.85 412.5 206.8Q412.9 210.55 411.7 214.25Q406.9 203.35 396.4 195.7Q392.8 193.1 388.95 196.3Q355.3 223.95 351.15 268.3Q347.75 304.3 351.45 340.35Q352.05 345.9 354.45 350.95Q376 360.65 394.65 344.65Q402.65 337.85 406.45 328.2L406.2 322.95Q406.25 319.05 408.95 316.2Q410.75 317.65 412 319.35L412.15 316.7L412.2 315.2Q403.7 310.25 394.45 315.95Q392.2 316.85 390.7 314.95Q389 311.05 390.05 306.75L390.45 305.2Q393.3 303.6 396.45 301.95L413.95 301.45Q420.3 316.55 419.45 336.3Q418.6 355 413.45 372.2Q411.25 373.5 409.95 371.45Q410.25 357.35 410.85 343Q396.55 373.55 360.1 370.1Q354.1 369.5 351.3 364.5Q340.95 345.85 341.2 323.7Q341.8 272.55 356.1 223.95Q365.2 193 392.95 178.5Q397.65 178.25 401.75 180.45M232.9,190.7L232.45 191.25L187.65 193.95Q188.65 248.55 187 304.2Q186.05 336.6 180 366.2Q174.6 352.8 176.5 336.3Q179.9 306.95 180.45 277.2Q181.3 234.95 186 194.05L142.5 196.75Q138.8 191.95 141.5 186.25Q185.95 178.55 232.45 178.75Q236.3 184.45 232.9 190.7M321.45,194Q327.05 222.55 327.8 253.25Q328.65 288.2 320.4 321.4Q310.6 360.8 271.6 370.15Q250.95 375.05 237.2 361.5Q225.55 350 225.7 333.2Q226.15 278.05 233.2 224.5Q237.45 236.9 235.55 253.5Q230.35 298.45 236.45 342.5Q237.2 347.95 242.55 350.45Q270.25 363.55 292.95 345Q316 326.2 317.7 295.9Q319.9 257.2 317 218.1Q316.15 206.4 319.2 195.55Q319.7 193.8 321.45 194M275.5,221.3Q279.15 221.2 281.95 220.25L290.45 220.5Q314.3 252.05 299.85 290.75Q290.95 314.65 267.7 311.65Q263 311.05 261.35 306.6Q245.95 265.55 265 228Q268.25 221.55 275.5 221.3M274.8,229.7Q274.9 227.9 272.45 229.25Q253.4 250 259.1 279.75Q260.85 288.95 264.95 297.45Q271.4 302.55 279.45 299.45Q311.95 272.6 290.2 236.5Q283.95 236.3 277.45 236.5Q274.6 233.8 274.8 229.7" />
</g>
</svg>
