<?xml version="1.0" encoding="utf-8"?>
<svg version="1.1" id="Layer_1"
xmlns="http://www.w3.org/2000/svg"
xmlns:xlink="http://www.w3.org/1999/xlink"


xml:space="preserve">
q-5.35 40.75 -4.25 82.55q1.6 59.35 -1.5 118.5q-3.15 59.75 -9.85 119.05q-1.9 17 4.5 29.4q1.75 -1.4 2.2 -3.75q2.25 -11.45 3.05 -23.15q4 -59 6.1 -118.55q1.6 -44.6 1.6 -89.25q0 -56.75 0.7 -111.75q4.15 1.2 8.75 0.45q6.3 -1 11.8 2.35q30.85 18.8 41.6 54.35q8.45 28 -0.05 55.6q-13.65 44.25 -61 44.25q-1.65 4.3 -1.5 9q0.15 3.65 2.75 6q13.65 2.95 25.35 -2.2q16.85 -7.45 26.65 -22.9q33.7 -53.3 8.3 -112.2q-14.9 -34.55 -48.8 -45.95q-7.4 0.8 -15 2.5q-0.9 0.95 -1 2.2q-23.95 8.7 -28.8 33.65q-3.45 17.8 -5.5 35.9q-5.1 45.2 7.1 87.85q1.25 4.4 5.1 6.25q25.4 12.05 38.85 -12.75q11.2 -20.65 12.9 -44.35q2.05 -28.65 0.2 -57.2q-2.2 -33.1 -23.6 -56.1q-0.8 -0.15 -1.5 0.25q-1.55 0.9 -3 2q-0.75 1 -0.95 2.25q-0.15 1.25 -0.8 2.25q20.85 53.55 8.7 110.45q-5.9 27.75 -33.7 28.4q-3 0.1 -4.3 -2.25q-15.15 -27.95 -11.6 -61.7q1.3 -12.35 0.75 -24.55q-1.7 -36.3 27.65 -54.1q1.15 0.85 2.25 1.25q1.25 0.45 1.75 1.5q-5.2 -20.75 -22.75 -27.05q-6 -3.3 -13.2 -2.1q-5.55 1.55 -11.95 2.4q-8.95 1.3 -13.4 8.35q-26.6 42.05 -30.6 92.65q-4.65 58.8 -3.95 118.6q0.35 29.6 0.35 59.2q-0.1 39 29.3 61.25q6.45 2.4 13.1 0.05q39.25 -13.9 50.3 -52.65q16.4 -57.2 18.25 -117.05q1.85 -59.7 -12.75 -116.85q-6.65 38.75 -7.45 78.6q-0.25 13.5 -1.85 26.85q-2.75 22.85 6.35 43.25q7.45 16.7 24.65 5.5q2.95 -1.95 4.7 -4.55q22.45 -33.15 23.7 -74.05q0.75 -25.9 2.85 -51.6q1.15 -13.95 -5.65 -21.6q-3.55 10.55 -2.4 22.45q5.6 58.65 -18.85 111q-10.95 9.65 -24 4.75q-6.05 -10.35 -5.3 -22.5q3.8 -59.95 4.05 -118.45q-0.75 0.1 -0.8 0.35q-4.65 36.9 -31.85 61.8q-26.3 24.1 -49.4 0.55q-4.25 -4.35 -5.45 -9.9q-10.85 -49.8 -10.35 -101.65q0.6 -59.85 7.05 -118.6q4.4 -39.85 26.05 -71.9q11.25 -3.6 23 -4.9q5.15 -0.85 9.25 1.5q1.7 3.15 3.85 6.35q24.6 37 30.9 82.55q8.15 58.95 -0.15 117.75q-2.6 18.55 -4.9 37.05q-1.85 20 -1.4 40.35q0.45 20.1 2.35 39.9q2.8 29.05 28.15 15.75q20.95 -11 22.45 -34.4q0.3 -4.8 -0.55 -9.25q-12.9 20.3 -31.75 34.75q-14.55 -19.2 -9.1 -47q1.05 -5.5 1.1 -11.15q2.3 -3.85 1.85 -8.2q-0.4 -3.8 -2.85 -6.75q-20.5 3.8 -38.9 13.8q-6.95 -39.1 19.9 -62.5q8.85 -7.7 21 -7.55q1.7 -1.9 1.7 -4.9q0 -4.05 -2.65 -6.8q-20.5 5.8 -27.15 26.85q-5.65 17.95 -7.35 36.75q-83.65 7.25 -166.95 8.25q-0.85 3.8 0.5 7.5q43.9 3.6 87.75 2.8q-4.45 17.8 -6.25 37.6q-5.5 59.1 -8.55 118.6q-3.05 59.05 -7.85 117.75q-1.25 14.95 -3.75 29.7q-2.85 16.9 3.35 29.5q7.9 -50.7 9.9 -103.45q2.3 -59.4 7.55 -118.45q4.95 -56.2 7.05 -111.25q38.95 -0.8 77.75 -5.05q3.75 -7.2 -0.9 -13.4q21.45 -10.25 35.5 11.2q11.85 18.2 7.75 39.7q-3.9 20.65 -16.25 37.6q-12.95 17.8 -33.4 24.85q-6.3 2.15 -13 2.35q10.6 -63.25 14.6 -127.15q-16.15 62.65 -20.7 127.1q-13.25 97.9 -22.05 200.2q15.5 -93.7 24.35 -188.55q9.7 0.6 17.8 -5.1q19.1 102.35 60.95 195.05q4 -9.45 0.4 -19.15q-29.55 -87.85 -56.2 -177.15q28.55 -16 40.55 -46.15q6.5 -16.25 7.15 -33.5q0.8 -21.8 -11.8 -39.5q-10.6 -14.9 -28.65 -17.8q-16.25 6 -10.45 17.7<g id="1449" transform="matrix(1, 0, 0, 1, -38.4, 0)">
<path style="fill:#000000;fill-opacity:1" d="M438.95,83.95Q439.05 82.7 439.95 81.75Q447.55 80.05 454.95 79.25Q488.85 90.65 503.75 125.2Q529.15 184.1 495.45 237.4Q485.65 252.85 468.8 260.3Q457.1 265.45 443.45 262.5Q440.85 260.15 440.7 256.5Q440.55 251.8 442.2 247.5Q489.55 247.5 503.2 203.25Q511.7 175.65 503.25 147.65Q492.5 112.1 461.65 93.3Q456.15 89.95 449.85 90.95Q445.25 91.7 441.1 90.5Q440.4 145.5 440.4 202.25Q440.4 246.9 438.8 291.5Q436.7 351.05 432.7 410.05Q431.9 421.75 429.65 433.2Q429.2 435.55 427.45 436.95Q421.05 424.55 422.95 407.55Q429.65 348.25 432.8 288.5Q435.9 229.35 434.3 170Q433.2 128.2 438.55 87.45L438.95 86L438.95 83.95M388,93.75Q388.2 92.5 388.95 91.5Q390.4 90.4 391.95 89.5Q392.65 89.1 393.45 89.25Q414.85 112.25 417.05 145.35Q418.9 173.9 416.85 202.55Q415.15 226.25 403.95 246.9Q390.5 271.7 365.1 259.65Q361.25 257.8 360 253.4Q347.8 210.75 352.9 165.55Q354.95 147.45 358.4 129.65Q363.25 104.7 387.2 96Q387.85 95 388 93.75M396.7,109.5Q395.6 109.1 394.45 108.25L385.95 107.25Q356.6 125.05 358.3 161.35Q358.85 173.55 357.55 185.9Q354 219.65 369.15 247.6Q370.45 249.95 373.45 249.85Q401.25 249.2 407.15 221.45Q419.3 164.55 398.45 111Q397.95 109.95 396.7 109.5M334.3,151.9Q348.9 209.05 347.05 268.75Q345.2 328.6 328.8 385.8Q317.75 424.55 278.5 438.45Q271.85 440.8 265.4 438.4L262.45 437.45L261.5 436.7L260.75 435.95L259.7 434.7Q230.3 412.45 230.4 373.45Q230.4 343.85 230.05 314.25Q229.35 254.45 234 195.65Q238 145.05 264.6 103Q269.05 95.95 278 94.65Q284.4 93.8 289.95 92.25Q297.15 91.05 303.15 94.35L303.95 95Q321.5 101.3 326.7 122.05L334.3 151.9M361.45,274.75Q361.2 333.25 357.4 393.2Q356.65 405.35 362.7 415.7Q375.75 420.6 386.7 410.95Q411.15 358.6 405.55 299.95Q404.4 288.05 407.95 277.5Q414.75 285.15 413.6 299.1Q411.5 324.8 410.75 350.7Q409.5 391.6 387.05 424.75Q385.3 427.35 382.35 429.3Q365.15 440.5 357.7 423.8Q348.6 403.4 351.35 380.55Q352.95 367.2 353.2 353.7Q354 313.85 360.65 275.1Q360.7 274.85 361.45 274.75M336.8,311.9Q345.1 253.1 336.95 194.15Q330.65 148.6 306.05 111.6Q303.9 108.4 302.2 105.25Q298.1 102.9 292.95 103.75Q281.2 105.05 269.95 108.65L267.95 109.25Q246.3 141.3 241.9 181.15Q235.45 239.9 234.85 299.75Q234.35 351.6 245.2 401.4Q246.4 406.95 250.65 411.3Q273.75 434.85 300.05 410.75Q327.25 385.85 331.9 348.95Q334.2 330.45 336.8 311.9M453.8,298.85Q460.45 277.8 480.95 272L493.7 272.7L494.65 273.75Q497.3 276.5 497.3 280.55Q497.3 283.55 495.6 285.45L492.45 284.75Q480.3 284.6 471.45 292.3Q444.6 315.7 451.55 354.8Q469.95 344.8 490.45 341Q492.9 343.95 493.3 347.75Q493.75 352.1 491.45 355.95L452.45 366.2L451.35 364.3Q451.3 369.95 450.25 375.45Q444.8 403.25 459.35 422.45L465.7 422.7Q484.55 408.25 497.45 387.95Q498.3 392.4 498 397.2Q496.5 420.6 475.55 431.6Q450.2 444.9 447.4 415.85Q445.5 396.05 445.05 375.95Q444.6 355.6 446.45 335.6Q448.15 316.8 453.8 298.85M207.35,98.15L206.7 99Q167.9 103.25 128.95 104.05Q126.85 159.1 121.9 215.3Q116.65 274.35 114.35 333.75Q112.35 386.5 104.45 437.2Q98.25 424.6 101.1 407.7Q103.6 392.95 104.85 378Q109.65 319.3 112.7 260.25Q115.75 200.75 121.25 141.65Q123.05 121.85 127.5 104.05Q83.65 104.85 39.75 101.25Q38.4 97.55 39.25 93.75L39.5 93Q122.8 92 206.45 84.75Q211.1 90.95 207.35 98.15M174.95,108Q193 110.9 203.6 125.8Q216.2 143.5 215.4 165.3Q214.75 182.55 208.25 198.8Q196.25 228.95 167.7 244.95Q194.35 334.25 223.9 422.1L225.2 422.95Q228.8 432.65 224.8 442.1Q182.95 349.4 163.85 247.05Q155.75 252.75 146.05 252.15Q137.2 347 121.7 440.7L119.45 440.3Q128.25 338 141.5 240.1Q146.05 175.65 162.2 113Q158.2 176.9 147.6 240.15Q154.3 239.95 160.6 237.8Q181.05 230.75 194 212.95Q206.35 196 210.25 175.35Q214.35 153.85 202.5 135.65Q188.45 114.2 167 124.45L164.5 125.7Q158.7 114 174.95 108" />
</g>
</svg>
