<?xml version="1.0" encoding="utf-8"?>
<svg version="1.1" id="Layer_1"
xmlns="http://www.w3.org/2000/svg"
xmlns:xlink="http://www.w3.org/1999/xlink"


xml:space="preserve">
q-26.7 45.3 -50.45 92q-8.25 16.15 -18.3 31.05q-1.55 2.3 -2.6 4.5q2.2 -59.9 -1.4 -118.5q-5.55 9.15 -5.2 21.75q1.8 59.55 -1.1 118.5q-3 59.9 -9.3 119.15q-0.8 7.45 -2.3 14.75q-3.45 16.8 3.65 30.05q1 -0.6 1.15 -1.4q5.8 -32.5 8.15 -65.8q2.45 -35.05 4.25 -70.3q0.95 1.95 2.45 3.8q11 -18 20.75 -37.5q0.35 7.7 2.9 15.8q13.25 41.75 24.1 83.9q3.2 13.45 12.05 19.05q4.95 -10.05 0.8 -20.65q-4.05 -10.35 -7.2 -20.95q-15.35 -52.25 -29.2 -104.5q23.45 -45.85 50 -90.2q9.6 -16.1 8.6 -32.75q-3.25 1.55 -5.15 4.9q-38.75 2.9 -47.35 41.85q-8.7 39.45 -10.7 80.1q-2.65 53.35 19.8 100.3q3.95 8.25 11.4 13.15q12.95 8.6 24.25 -2.75q25.3 -25.4 40.8 -57.45q26.5 -54.85 15.75 -115.05q-2.75 -15.35 -8.15 -30.1q-10 -27.2 -36.05 -35.05q-4.85 -1.05 -8.5 1.9q24.95 19.15 33.5 51.35q7.3 39.95 -7.55 77.5q-11.55 29.25 -27.9 56q-10.05 16.4 -27.4 22.35q-3.65 1.25 -5.85 -0.7q-29.15 -25.7 -30.4 -66.15q-1.45 -44.65 2.45 -88.65q4.1 -46.55 48.65 -57.6q2.65 5.35 9.55 4.55q2.75 -0.3 4.95 1.35q-33.3 2 -66.25 5.95q-47 5.65 -93.65 9.95q-1.7 4 -0.35 8.15q32.6 2.1 65.65 -1.85q-2.65 13.25 -3.7 28.1q-4.05 59.15 -6.4 118.6q-2.35 59.65 -10.4 118.3q-2.3 16.8 3.6 29.9q3.6 -2.3 3.9 -7.2q3.35 -51.3 6.35 -102.85q2.1 -36.7 5.65 -73.25q5.5 -56.3 2.7 -111.75q54.5 -4.75 108.9 -5.15q3.15 -6.2 0.6 -12.7q-0.6 -0.4 -1.25 -0.45q-20 41.4 -25.8 87.7q-7.65 60.7 14.4 116.95q5.05 13 17.25 19.7q21.05 11.65 41.65 -1.15q33.6 -20.9 46.4 -59.7q19.15 -57.9 3.55 -116.75q-9.6 -37.15 -45.1 -44.85q-15.7 2.75 -29.7 11.55q-9.75 6.15 -14.8 16.55q6.05 17.9 10.65 35.85q15.3 59.8 -12.15 115.2q-14.4 28.9 -45.4 37.35q-29.7 8.05 -40.5 -19.4q-22.05 -55.95 -10.4 -115.8q2.85 -14.65 4.9 -29.4q7.45 -53.6 61.35 -63.5q2.6 -0.55 0.5 1.4q-1.25 1.1 -1 2.85q0 0.35 0.15 0.45q21.7 11.75 29.55 34.95<g id="1463" transform="matrix(1, 0, 0, 1, -34, 0)">
<path style="fill:#000000;fill-opacity:1" d="M525.05,108.4Q526.95 105.05 530.2 103.5Q531.2 120.15 521.6 136.25Q495.05 180.6 471.6 226.45Q485.45 278.7 500.8 330.95L513.05 372.35Q516.2 382.95 520.25 393.3Q524.4 403.9 519.45 413.95Q510.6 408.35 507.4 394.9L492.95 337.2Q482.1 295.05 468.85 253.3Q466.3 245.2 465.95 237.5L464.7 240Q454.95 259.5 443.95 277.5Q442.45 275.65 441.5 273.7Q439.7 308.95 437.25 344Q434.9 377.3 429.1 409.8Q428.95 410.6 427.95 411.2Q420.85 397.95 424.3 381.15Q425.8 373.85 426.6 366.4Q432.9 307.15 435.9 247.25Q438.8 188.3 437 128.75Q436.65 116.15 442.2 107Q445.8 165.6 443.6 225.5L442.4 255.6Q443.45 253.4 445 251.1Q455.05 236.2 463.3 220.05Q487.05 173.35 513.75 128.05L525.05 108.4M360.45,155.5L361.05 154L361.45 153.25Q365.1 150.3 369.95 151.35L369.95 151.25Q396 159.1 406 186.3Q411.4 201.05 414.15 216.4Q424.9 276.6 398.4 331.45Q382.9 363.5 357.6 388.9Q346.3 400.25 333.35 391.65Q325.9 386.75 321.95 378.5Q299.5 331.55 302.15 278.2Q304.15 237.55 312.85 198.1Q321.45 159.15 360.2 156.25L360.45 155.5M370,169.3Q363.1 170.1 360.45 164.75Q315.9 175.8 311.8 222.35Q307.9 266.35 309.35 311Q310.6 351.45 339.75 377.15Q341.95 379.1 345.6 377.85Q362.95 371.9 373 355.5Q389.35 328.75 400.9 299.5Q415.75 261.95 408.45 222Q399.9 189.8 374.95 170.65Q372.75 169 370 169.3M256.2,96.75L257.05 98.3Q259.6 104.8 256.45 111Q202.05 111.4 147.55 116.15Q150.35 171.6 144.85 227.9Q141.3 264.45 139.2 301.15Q136.2 352.7 132.85 404Q132.55 408.9 128.95 411.2Q123.05 398.1 125.35 381.3Q133.4 322.65 135.75 263Q138.1 203.55 142.15 144.4Q143.2 129.55 145.85 116.3L101.4 120.9Q68.35 124.85 35.75 122.75L35.35 121.95Q34 117.8 35.7 113.8L36.5 112.5Q83.15 108.2 130.15 102.55Q163.1 98.6 196.4 96.6L240.95 95L254.95 96.3Q255.6 96.35 256.2 96.75M212.25,155.8Q226.25 147 241.95 144.25Q277.45 151.95 287.05 189.1L294.9 219.1Q310.5 277.95 291.35 335.85Q278.55 374.65 244.95 395.55Q224.35 408.35 203.3 396.7Q191.1 390 186.05 377Q164 320.75 171.65 260.05Q177.45 213.75 197.45 172.35Q202.5 161.95 212.25 155.8M248.95,160L247.95 160.15L246.6 159.95Q246.45 159.85 246.45 159.5Q246.2 157.75 247.45 156.65Q249.55 154.7 246.95 155.25Q193.05 165.15 185.6 218.75Q183.55 233.5 180.7 248.15Q169.05 308 191.1 363.95Q201.9 391.4 231.6 383.35Q262.6 374.9 277 346Q304.45 290.6 289.15 230.8Q284.55 212.85 278.5 194.95Q270.65 171.75 248.95 160" />
</g>
</svg>
