<?xml version="1.0" encoding="utf-8"?>
<svg version="1.1" id="Layer_1"
xmlns="http://www.w3.org/2000/svg"
xmlns:xlink="http://www.w3.org/1999/xlink"


xml:space="preserve">
q-12.5 49.2 -11.25 100.65q0.55 23.1 -1.35 46.25q-4.65 70.6 -13.65 140.85q-0.5 4.05 -0.5 8.2q0 3.8 0.55 7.6q0.55 3.55 1.7 7q1.05 3.3 2.45 6.55q11.6 -55.7 12.35 -114.45q0.3 -25.95 1.75 -51.9q32.5 7.1 65.45 3.25q-9.1 76.8 -11.1 153.45q-0.15 5.3 2.05 10.4q13.45 -41 12.1 -87.1q-1.15 -39.05 3.8 -77.55q1.4 -26.2 5.25 -52.3q1.6 -10.95 2.3 -22.05q-0.05 -15.65 -2.65 -29.5q-33 2.55 -65.9 -1.25q2.15 -15.1 -0.85 -30.1q-20.3 6.15 -26.5 27.3q-6.15 21 -3.3 42.5q2.7 20.25 11.55 38.65q8.25 17.1 18.65 32.75q11.6 17.5 18.5 37.25q6.8 19.4 8.55 40q1.8 21.55 -3.2 42.5q-5.35 22.25 -24.4 35q-19.5 13.05 -39.65 3.4q-19.2 -9.35 -32.05 -27.1q-6.55 22.9 14.2 39.5q10.75 8.5 24.45 8.7q12.9 0.2 25.1 -4.05q8.3 -2.95 15.4 -8.2q5.05 -3.8 9.15 -8.75q4.2 -5.05 7.1 -10.85q3.25 -6.35 5.25 -13.1q7.85 -26.65 6.5 -54.4q-2.5 -52.1 -32.65 -94.8q-16.3 -23.1 -24.4 -49.9q-4.4 -14.6 -2.65 -29.65q3.45 -29.75 31.8 -33.75q10.3 -1.25 18.5 5.5q1.9 -1.5 3.75 -3.6q3.1 -3.5 2.55 -8.15q-5 -24.55 -30.3 -16.85q-71.8 4.55 -142.2 15.25q-1.55 0.7 -2.25 2.25q-1.35 5.15 1.75 9q-1.85 8.85 -2.2 18.95q-2.15 59.65 -3.05 119.35q-0.9 59.4 -3 118.45q-0.55 15 -3 29.75q-2.45 14.55 5.25 21q4.35 -16.85 4.8 -35.25q1.55 -59.25 0.3 -119.2q-0.45 -22.65 1.7 -44.9q5.3 -54.55 2.3 -108.45q4.05 -7.35 -0.65 -14.15q-5.55 10 -6.65 23.65q-3.2 39.05 -5.85 78.2q-3.9 58.6 1.65 116.75q2.2 23.1 14.6 42.9q11.35 18.2 32.65 12.1q23.15 -6.6 35.4 -28.05q30.9 -54.35 32.45 -117.55q1.45 -60.15 -10 -117.75q-2.15 0.2 -2.05 2.15q3.15 52.7 4.35 105.85q1.5 64.55 -31.45 119.15q-17.2 28.6 -49.1 19.8q-19 -21.3 -21.4 -49.65q-3.7 -43.8 -1.6 -87.5q2.75 -59.2 8 -117.8<g id="1460" transform="matrix(1, 0, 0, 1, -16.4, 0)">
<path style="fill:#000000;fill-opacity:1" d="M406.95,95.65L398.2 208.8Q431.1 212.6 464.1 210.05L476.75 70.3Q479.35 84.15 479.4 99.8L479.4 114.6L479.15 129.3L478.45 144.05Q477.75 155.15 476.15 166.1Q472.3 192.2 470.9 218.4L470.5 220.6L469.85 223.3Q464.9 261.8 466.05 300.85Q467.4 346.95 453.95 387.95Q451.75 382.85 451.9 377.55Q453.9 300.9 463 224.1Q430.05 227.95 397.55 220.85Q396.1 246.8 395.8 272.75Q395.05 331.5 383.45 387.2Q382.05 383.95 381 380.65Q379.85 377.2 379.3 373.65Q378.75 369.85 378.75 366.05Q378.75 361.9 379.25 357.85Q388.25 287.6 392.9 217L393 215.5L393.2 212.45Q395.1 189.3 394.55 166.2Q393.3 114.75 405.8 65.55L406.1 65.55Q409.1 80.55 406.95 95.65M362.1,79.35Q362.65 84 359.55 87.5Q357.7 89.6 355.8 91.1L357.7 81Q349.5 74.25 339.2 75.5Q310.85 79.5 307.4 109.25Q305.65 124.3 310.05 138.9Q318.15 165.7 334.45 188.8Q364.6 231.5 367.1 283.6Q368.45 311.35 360.6 338Q358.6 344.75 355.35 351.1Q352.45 356.9 348.25 361.95Q344.15 366.9 339.1 370.7Q332 375.95 323.7 378.9Q311.5 383.15 298.6 382.95Q284.9 382.75 274.15 374.25Q253.4 357.65 259.95 334.75Q272.8 352.5 292 361.85Q312.15 371.5 331.65 358.45Q350.7 345.7 356.05 323.45Q361.05 302.5 359.25 280.95Q357.5 260.35 350.7 240.95Q343.8 221.2 332.2 203.7Q321.8 188.05 313.55 170.95Q304.7 152.55 302 132.3Q299.15 110.8 305.3 89.8Q311.5 68.65 331.8 62.5Q357.1 54.8 362.1 79.35M163.1,69.65L162.45 70.5L98.85 75.4Q101.85 129.3 96.55 183.85Q94.4 206.1 94.85 228.75Q96.1 288.7 94.55 347.95Q94.1 366.35 89.75 383.2Q82.05 376.75 84.5 362.2Q86.95 347.45 87.5 332.45Q89.6 273.4 90.5 214Q91.4 154.3 93.55 94.65Q93.9 84.55 95.75 75.7L19.5 82.75Q16.4 78.9 17.75 73.75L18 73Q18.7 71.45 20.25 70.75Q90.65 60.05 162.45 55.5Q167.15 62.3 163.1 69.65M169.2,100Q163.95 158.6 161.2 217.8Q159.1 261.5 162.8 305.3Q165.2 333.65 184.2 354.95Q216.1 363.75 233.3 335.15Q266.25 280.55 264.75 216Q263.55 162.85 260.4 110.15Q260.3 108.2 262.45 108Q273.9 165.6 272.45 225.75Q270.9 288.95 240 343.3Q227.75 364.75 204.6 371.35Q183.3 377.45 171.95 359.25Q159.55 339.45 157.35 316.35Q151.8 258.2 155.7 199.6Q158.35 160.45 161.55 121.4Q162.65 107.75 168.2 97.75L168.95 99.25L169.2 100" />
</g>
</svg>
