<?xml version="1.0" encoding="utf-8"?>
<svg version="1.1" id="Layer_1"
xmlns="http://www.w3.org/2000/svg"
xmlns:xlink="http://www.w3.org/1999/xlink"


xml:space="preserve">
q6.55 20.7 2.25 42.05q-4.3 21.35 -19 37.6q-6.4 7.1 -14.1 12.8q-4.9 -74.75 -3.95 -149.55q25.5 7.45 41.8 28.35q10.05 12.85 15 28.3q-9.8 59.05 -17.45 118.45q-7.65 59.7 -22.35 117.95q-3.95 -38.3 -5.7 -77q-2.7 -59.35 -6.85 -118.45q-2.05 -29.4 0 -59.15q2.15 -30.55 -2.45 -59.35q-1.1 0.5 -1.2 1.15q-9.7 58.1 -17.6 116.95q0.4 -59.1 -17.15 -114.65q-1.9 -6 -6.15 -10.15q-19.6 -19.05 -48.65 -13.9q-4.75 0.4 -9.6 2.2q-22.7 14.25 -34.05 39.35q-8.75 19.4 -15.05 39.7q-17.95 57.55 -14.05 117.4q2.45 37.7 19.05 71.45q13.3 27.05 42.7 34.2q7.3 1.75 14 -0.55q36.35 -12.3 50.45 -48.5q6.8 -17.5 11.55 -35.4q-4.5 30.85 -2.4 58.45q5.35 -32.4 9 -65.25q6.65 -59.4 14.55 -118.55q7.9 -59.35 17.2 -118.4q1.7 59.35 4.5 118.5q2.85 59.9 7.3 119.35q0.95 13.1 5.8 21.35q10.05 -34.75 16.5 -70.5q10.65 -59.05 18.5 -118.45q7.9 -59.35 18.5 -118.25q-0.2 35.75 1.95 71.2q2.25 36.8 3.95 73.6q2.75 59.5 9 118.45q1.55 15 1.25 29.95q-0.5 23.85 6.6 44q0.9 -0.6 1.05 -1.4q2.5 -12.45 1.35 -25.45q-5.1 -59.2 -9.8 -118.4q-2.35 -29.5 -5.15 -59.05q-5.6 -58.75 -3.75 -118.65q0.95 -30.65 -4.2 -59.25q-6.2 44.75 -2.8 91.45q2.1 29.1 2 58.3q-0.65 1.45 -0.9 2.95q-0.25 1.85 -0.15 3.8q0.15 2.75 2.05 4.5q3.95 1.45 7.75 2.35q-2.55 59.5 -3.85 119.3q-0.65 30.1 -6.3 59.05q-3.4 17.35 4.2 29.2q5.65 -18.35 6 -38.25q1.1 -59.3 4.75 -118.4q2.05 -33.15 1.75 -66.4q11.3 1.3 20.85 -3.2q44.9 30.15 51.8 84.9q0.8 6.4 2.45 12.45q12.6 45.15 -6.6 86.8q-3.4 7.3 -8.85 13.1q-23.7 25.25 -60.4 24.25q-0.3 -0.3 -0.7 -0.3q-2 3.05 -1.5 6.75q0.55 3.95 2 7.5q14.3 1.55 28.9 -1.6q14.45 -3.1 25.15 -12.95q31.4 -28.9 33.95 -72.45q0.85 -14.85 -0.6 -29.4q-4.95 -50 -26.9 -94.3q-13.4 -14.95 -29.5 -26.2q3.65 -2.55 7 -6.05q45.95 -48.25 21.4 -108.5q-17.2 -42.35 -61 -51.65q0 1.15 0.5 2.25q-14.2 -0.8 -28.5 -0.6q-109 1.05 -217.2 5q-0.4 1.45 -0.25 3q5.85 2.25 12.75 2.15q-0.9 5.45 -0.65 11.85q1.4 36.45 1.5 72.7q0.15 59.55 0.6 119.25q0.15 15.15 -2.5 29.8q-2.55 14.15 4.1 21.95q3.25 -12.5 3.2 -26.25q-0.35 -59.65 -1.1 -119.25q-0.75 -54.85 -2.25 -109.35q0.95 -2.55 0.4 -5.2q27.95 -5.7 48.25 9.75q1.2 8.5 3.8 16.8q17.7 56.45 15.3 116.7q-0.65 15.25 -2.2 30.2q-5.55 53.8 -39.5 94.5q-7.2 8.7 -18.1 11.4q-39 9.6 -59.9 -24.6q-10.7 -17.5 -14.6 -37.75q-5.25 -27.5 -3.35 -55.65q4.05 -59.1 23.95 -115.1q12.55 -35.4 46.35 -46.25<g id="1450" transform="matrix(1, 0, 0, 1, -19.05, 0)">
<path style="fill:#000000;fill-opacity:1" d="M497.8,101.75Q481.5 80.85 456 73.4Q455.05 148.2 459.95 222.95L481.95 222.5Q489.65 216.8 496.05 209.7Q510.75 193.45 515.05 172.1Q519.35 150.75 512.8 130.05Q507.85 114.6 497.8 101.75M406.45,71.75Q411.6 100.35 410.65 131Q408.8 190.9 414.4 249.65Q417.2 279.2 419.55 308.7Q424.25 367.9 429.35 427.1Q430.5 440.1 428 452.55Q427.85 453.35 426.95 453.95Q419.85 433.8 420.35 409.95Q420.65 395 419.1 380Q412.85 321.05 410.1 261.55Q408.4 224.75 406.15 187.95Q404 152.5 404.2 116.75Q393.6 175.65 385.7 235Q377.85 294.4 367.2 353.45Q360.75 389.2 350.7 423.95Q345.85 415.7 344.9 402.6Q340.45 343.15 337.6 283.25Q334.8 224.1 333.1 164.75L332.2 135.75Q322.9 194.8 315 254.15Q307.1 313.3 300.45 372.7Q296.8 405.55 291.45 437.95Q289.35 410.35 293.85 379.5L299.05 342.65Q294.3 360.55 287.5 378.05Q273.4 414.25 237.05 426.55Q230.35 428.85 223.05 427.1Q193.65 419.95 180.35 392.9Q163.75 359.15 161.3 321.45Q157.4 261.6 175.35 204.05Q181.65 183.75 190.4 164.35Q201.75 139.25 224.45 125L228.35 123.95Q233.2 122.15 237.95 121.75Q267 116.6 286.6 135.65Q290.85 139.8 292.75 145.8Q310.3 201.35 309.9 260.45L317.65 202.1Q325.55 143.25 335.25 85.15Q335.35 84.5 336.45 84Q341.05 112.8 338.9 143.35Q336.85 173.1 338.9 202.5Q343.05 261.6 345.75 320.95Q347.5 359.65 351.45 397.95Q366.15 339.7 373.8 280Q381.45 220.6 391.25 161.55L405.95 71.8L406.45 71.75M450.95,72Q450.45 70.9 450.45 69.75L450.45 68.25L450.55 67.5L450.95 66L453.9 64.9L453.95 64.75Q497.75 74.05 514.95 116.4Q539.5 176.65 493.55 224.9Q490.2 228.4 486.55 230.95Q502.65 242.2 516.05 257.15L516.95 258Q538.9 302.3 543.85 352.3Q545.3 366.85 544.45 381.7Q541.9 425.25 510.5 454.15Q499.8 464 485.35 467.1Q470.75 470.25 456.45 468.7Q455 465.15 454.45 461.2Q453.95 457.5 455.95 454.45L457.45 454.2Q457.85 454.2 458.15 454.5L459.45 455.7Q496.15 456.7 519.85 431.45Q525.3 425.65 528.7 418.35Q547.9 376.7 535.3 331.55Q533.65 325.5 532.85 319.1Q525.95 264.35 481.05 234.2Q471.5 238.7 460.2 237.4Q460.5 270.65 458.45 303.8Q454.8 362.9 453.7 422.2Q453.35 442.1 447.7 460.45Q440.1 448.6 443.5 431.25Q449.15 402.3 449.8 372.2Q451.1 312.4 453.65 252.9L454.2 236.35Q450.4 235.45 446.45 234Q444.55 232.25 444.4 229.5Q444.3 227.55 444.55 225.7Q444.8 224.2 445.45 222.75L454.35 222.9Q454.45 193.7 452.35 164.6Q448.95 117.9 455.15 73.15L450.95 72M266.2,75.25L266.45 76L266.9 77.5L267.05 78.25Q267.6 80.9 266.65 83.45L265.95 85L137.8 87.4Q139.3 141.9 140.05 196.75Q140.8 256.35 141.15 316L141.7 435.95Q141.75 449.7 138.5 462.2Q131.85 454.4 134.4 440.25Q137.05 425.6 136.9 410.45L135.85 291.25Q135.4 231.55 135.25 172Q135.15 135.75 133.75 99.3Q133.5 92.9 134.4 87.45L32.5 88.9Q25.6 89 19.75 86.75L19.55 86L19.45 85.25L19.3 84.5L19.2 83.75Q19.05 82.2 19.45 80.75L19.75 79.25Q127.95 75.3 236.95 74.25Q251.25 74.05 265.45 74.85L266.2 75.25M190.1,179Q170.2 235 166.15 294.1Q164.25 322.25 169.5 349.75Q173.4 370 184.1 387.5Q205 421.7 244 412.1Q254.9 409.4 262.1 400.7Q296.05 360 301.6 306.2Q303.15 291.25 303.8 276Q306.2 215.75 288.5 159.3Q285.9 151 284.7 142.5Q264.4 127.05 236.45 132.75Q202.65 143.6 190.1 179" />
</g>
</svg>
