<?xml version="1.0" encoding="utf-8"?>
<svg version="1.1" id="Layer_1"
xmlns="http://www.w3.org/2000/svg"
xmlns:xlink="http://www.w3.org/1999/xlink"


xml:space="preserve">
q45.7 1.1 91.25 -6q0.45 0.05 0.8 0.45q1.8 3.1 1.6 6.75q-0.2 3 -2.1 5.25q-25.6 4.95 -51.2 5.45q1.7 54.2 -1.9 109.35q-2.2 33.45 -6.15 65.9q-6.85 -12.15 -5.05 -29.4q6.2 -58.95 7.25 -118.3q0.2 -14.65 3.25 -27.5q-21.65 0.2 -43.2 -2.75q-1 -2.2 -1.15 -4.5q-0.15 -2.85 1.15 -5.25q4.8 15.35 0.5 31.4q-6.65 -14.45 -1 -31.85q0.2 -0.55 1 -0.4q9.05 6.3 18 0.25q5.85 -20.05 3.45 -42.05q-2.5 -22.5 2.8 -40.9q4.45 37.85 3.75 76.45q-0.2 10.55 -7.05 18.6q-3.45 4 -8.2 6.9q-7.05 -0.4 -13.75 -3q-10.5 -8.4 -4.25 -20.25q3.45 0.25 5.25 4q2.05 5.25 -0.95 9.75q2.3 53.75 -0.2 108.75q-1.5 33.3 -4.95 65.85q-0.4 3.5 -3.1 1.85q0.3 -58.8 2.1 -118.45q0.9 -30 4.35 -58q-24.25 0.35 -48.2 -1.25q-0.7 -3 0.25 -5.95q7.15 -3.65 16.25 -3.45q16.4 0.3 32 -2.3q21.7 0.1 43.45 0.6q2.9 59.05 3.9 118.45q0.6 35.95 -5.4 68.75q-1.7 -0.25 -2 -2q-0.65 -59.25 -0.6 -118.45q0 -34.1 3.6 -66.7<g id="1621" transform="matrix(1, 0, 0, 1, -138.8, 0)">
<path style="fill:#000000;fill-opacity:1" d="M329.7,184.25Q375.4 185.35 420.95 178.25L426.4 178.8Q426.85 178.85 427.2 179.25Q429 182.35 428.8 186Q428.6 189 426.7 191.25Q401.1 196.2 375.5 196.7Q377.2 250.9 373.6 306.05Q371.4 339.5 367.45 371.95Q360.6 359.8 362.4 342.55Q368.6 283.6 369.65 224.25Q369.85 209.6 372.9 196.75Q351.25 196.95 329.7 194Q328.7 191.8 328.55 189.5Q328.4 186.65 329.7 184.25M419.45,216Q424.25 231.35 419.95 247.4L419.45 248.25Q412.8 233.8 418.45 216.4Q418.65 215.85 419.45 216M396.2,350.45Q405.25 356.75 414.2 350.7Q420.05 330.65 417.65 308.65Q415.15 286.15 420.45 267.75Q424.9 305.6 424.2 344.2Q424 354.75 417.15 362.8Q413.7 366.8 408.95 369.7Q401.9 369.3 395.2 366.7Q384.7 358.3 390.95 346.45Q394.4 346.7 396.2 350.45M232.2,181L232.65 181.75Q234.7 187 231.7 191.5L189.75 193.75Q192.05 247.5 189.55 302.5Q188.05 335.8 184.6 368.35Q184.2 371.85 181.5 370.2Q181.8 311.4 183.6 251.75Q184.5 221.75 187.95 193.75Q163.7 194.1 139.75 192.5L139.5 191.7Q138.8 188.7 139.75 185.75Q146.9 182.1 156 182.3Q172.4 182.6 188 180Q209.7 180.1 231.45 180.6L232.2 181M282.45,182.5Q285.35 241.55 286.35 300.95Q286.95 336.9 280.95 369.7Q279.25 369.45 278.95 367.7Q278.3 308.45 278.35 249.25Q278.35 215.15 281.95 182.55L282.45 182.5" />
</g>
</svg>
