<?xml version="1.0" encoding="utf-8"?>
<svg version="1.1" id="Layer_1"
xmlns="http://www.w3.org/2000/svg"
xmlns:xlink="http://www.w3.org/1999/xlink"


xml:space="preserve">
q1.45 -1.9 1.85 -4.25q-0.45 -1.7 -1.3 -2.9q-28.6 -1.8 -56.9 -6.35q-9.1 -1.25 -15.5 5.65q-14.9 0.55 -29.9 3q-0.4 -37.15 -2.85 -74q-3.6 47.95 -4.2 98.2q-0.35 30.05 -3.55 59.85q-1.8 16.8 4 29.4q5.35 -33.25 6.25 -68.25q0.45 -17.6 0.4 -35.1q16.05 2.3 31.6 -0.1q4.25 -7.85 -2.4 -12.15q-45.25 -0.75 -89.45 6.25q-0.55 1.8 -0.65 3.75q-0.1 2.3 0.9 4.5q25.15 0.9 50.35 -0.05q-3.8 28.8 -4.55 59.8q-1.4 59.75 -1.8 118.45q2 1.3 2.35 -0.8q5.3 -32.85 6 -67.45q1.2 -55.55 -0.55 -110.05q0.9 -1.4 1.2 -3q0.7 -3.95 -1.2 -7.5q-0.35 -0.4 -0.8 -0.5q-6.8 82.4 -8.15 166.95q-2 10.5 3.05 19.6q9.6 -78.05 5 -159.1<g id="1614" transform="matrix(1, 0, 0, 1, -138.75, 0)">
<path style="fill:#000000;fill-opacity:1" d="M350.45,184.5Q356.85 177.6 365.95 178.85Q394.25 183.4 422.85 185.2Q423.7 186.4 424.15 188.1L424.5 190L424.55 190.8L424.5 191.55L424.3 193Q423.9 195.35 422.45 197.25L351.45 194.25L350.45 184.5M383.35,265.4L382.7 266.25Q367.15 268.65 351.1 266.35Q351.15 283.85 350.7 301.45Q349.8 336.45 344.45 369.7Q338.65 357.1 340.45 340.3Q343.65 310.5 344 280.45Q344.6 230.2 348.2 182.25Q350.65 219.1 351.05 256.25Q366.05 253.8 380.95 253.25Q387.6 257.55 383.35 265.4M232.4,179.25Q232.85 179.35 233.2 179.75Q235.1 183.3 234.4 187.25Q234.1 188.85 233.2 190.25L191.55 193.15Q193.3 247.65 192.1 303.2Q191.4 337.8 186.1 370.65Q185.75 372.75 183.75 371.45Q184.15 312.75 185.55 253Q186.3 222 190.1 193.2Q164.9 194.15 139.75 193.25Q138.75 191.05 138.85 188.75Q138.95 186.8 139.5 185Q183.7 178 228.95 178.75L232.4 179.25M284,196.55L284.7 211.35Q289.3 292.4 279.7 370.45L278.35 368.3Q273.3 359.2 275.3 348.7Q276.65 264.15 283.45 181.75L284 196.55" />
</g>
</svg>
