<?xml version="1.0" encoding="utf-8"?>
<svg version="1.1" id="Layer_1"
xmlns="http://www.w3.org/2000/svg"
xmlns:xlink="http://www.w3.org/1999/xlink"


xml:space="preserve">
q-19.6 11.6 -30.8 32.25q-19.55 35.9 -22.6 76.7q-4.45 58.85 2 117.1q2.7 24.45 20.85 39.75q2.15 1.85 4.7 1.5q48.6 -6.9 64.25 -53.75q4.55 -13.55 -4.05 -18.8q-3.55 15.1 -12.6 28.1q-17.65 25.5 -47.95 27.3q-1.95 0.1 -3.2 -1.3q-17.35 -19.95 -18.05 -47.35q-1.5 -59.25 2.45 -118.5q28 -0.5 55.45 -4.5q1.6 -2.8 1.75 -6q0.2 -4.05 -1.75 -7.5q-0.35 -0.4 -0.8 -0.45q-23.8 1.85 -47.3 6.6q3.1 -43.15 7.25 -86.15q4.75 -49.45 44.05 -79.45q5 0 9.25 1.8q18.1 7.6 24 25.45q3.2 -5.35 1.7 -11.5q-4.4 -17.7 -19.45 -27.5q-1.5 -0.25 -2.8 -0.95q-5.35 -2.8 -11.7 -1.3q-9.35 -19.65 -26.95 -32.5q-15.05 -11.15 -31.2 -7.05q-8.4 12.55 -7.45 30.1q1.9 35.6 0.15 71.2q-6.7 137.8 -19.8 274.95q-1.2 12.4 1.2 21.85q4.4 -9.9 5.65 -21.05q9.25 -83.65 13.95 -167.9q9.6 -1.2 18.75 -4.6q17.65 -6.65 31.6 -19.5q19.15 -17.7 25.05 -43q2.2 -9.4 2.25 -19.05q0.7 -21.6 -1.7 -43.25q-2.4 -21.25 -11.5 -40.2q-15.05 46.05 -64.25 51.85q2.3 -36.55 3.9 -73.2q2.35 -55.15 1.3 -109.1q17.6 -1.6 30.7 10.85q25.95 24.55 31.8 60.45q4.85 29.65 -4.5 58.1q-63.9 7.35 -128.45 11.5q-1.2 2.9 -1.15 6q0 3.2 2.15 5.25q31.2 3.25 61.95 -1.95q-1.65 21.45 -1.75 43.65q-0.4 59.5 -3.5 118.5q-1.55 30.05 -5.7 59.75q-1.95 14.15 5.2 21.7q4.55 -22.7 5.55 -46.45q2.45 -59.1 6 -118.45q3.5 -58.9 5.15 -118.55q1.15 -40.1 -2.25 -78.95q35.85 -4.4 70.05 0.45q1.95 -4.25 1.45 -9q-0.3 -2.8 -1.7 -5.25q-0.35 -0.4 -0.8 -0.5q-8.55 -2.65 -17.45 -4.5q-7.5 12.4 -13.6 27.2q-15.7 38.15 -30.55 76.85q-13 -34.7 -26.9 -68.35q-3.15 0.6 -2.2 4.35q13.55 52.9 34.05 102.25q-7.75 20.75 -17.95 40.5q-8 15.55 -0.75 27.8q12.05 -27.15 22.25 -55.35q20.15 -55.7 44.45 -109.25q9.6 -21.1 9.05 -41.65q-2.65 25.5 -6.55 50.9q-0.75 2.95 -0.85 6q-0.1 3.6 1.35 6.75q-3 17.85 -6.65 35.65q-4.65 22.75 -1.3 43.75q1.6 -0.05 2 -1.65q4.7 -19.9 8.6 -40.05q3.65 -18.9 5.8 -37.85q5.1 -0.55 10.15 -2.3q-1 21.3 10.95 42.8q8.4 15.05 9.7 32q0.9 12.1 7.35 17.15q3.4 -12.75 -1.25 -25.85q-12.2 -34.1 -23.4 -68.2q2.5 -1.95 4.4 -4.55q13.3 -18.1 12.7 -41.6q-0.55 -23.7 -20.7 -32.75q-19.65 0.35 -17 18q1.35 0.95 2.95 1.4q0.7 0.2 1.3 0.6q25.1 -4.45 26.15 23.65q0.95 24.9 -22.95 31.4q-1.75 0.85 -3.3 2.7q-3 42.95 -5.15 86.3q-1.45 29.75 -4.95 59.05q-2.05 17.05 3.85 29.35q6.2 -27.05 6.5 -56.25q0.55 -59.7 4.5 -118.2q-0.35 -1.25 -1.2 -2.25<g id="1611" transform="matrix(1, 0, 0, 1, -37.3, 0)">
<path style="fill:#000000;fill-opacity:1" d="M418.65,87.55Q419.95 88.25 421.45 88.5Q436.5 98.3 440.9 116Q442.4 122.15 439.2 127.5Q433.3 109.65 415.2 102.05Q410.95 100.25 405.95 100.25Q366.65 130.25 361.9 179.7Q357.75 222.7 354.65 265.85Q378.15 261.1 401.95 259.25L408.4 259.8Q408.85 259.85 409.2 260.25Q411.15 263.7 410.95 267.75Q410.8 270.95 409.2 273.75Q381.75 277.75 353.75 278.25L353.1 287.7Q349.15 346.95 350.65 406.2Q351.35 433.6 368.7 453.55Q369.95 454.95 371.9 454.85Q402.2 453.05 419.85 427.55Q428.9 414.55 432.45 399.45Q441.05 404.7 436.5 418.25Q420.85 465.1 372.25 472Q369.7 472.35 367.55 470.5Q349.4 455.2 346.7 430.75Q340.25 372.5 344.7 313.65L353.55 195.2Q356.6 154.4 376.15 118.5Q387.35 97.85 406.95 86.25Q413.3 84.75 418.65 87.55M340.1,160.5Q342.5 182.15 341.8 203.75Q341.75 213.4 339.55 222.8Q333.65 248.1 314.5 265.8Q300.55 278.65 282.9 285.3Q273.75 288.7 264.15 289.9Q259.45 374.15 250.2 457.8Q248.95 468.95 244.55 478.85Q242.15 469.4 243.35 457Q256.45 319.85 263.15 182.05Q264.9 146.45 263 110.85Q262.05 93.3 270.45 80.75Q286.6 76.65 301.65 87.8Q319.25 100.65 328.6 120.3Q337.7 139.25 340.1 160.5M333.95,163.3Q328.1 127.4 302.15 102.85Q289.05 90.4 271.45 92L270.4 90.95Q271.45 144.9 269.1 200.05Q267.5 236.7 265.2 273.25Q314.4 267.45 329.45 221.4Q338.8 192.95 333.95 163.3M184.4,83.75Q184.85 83.85 185.2 84.25Q186.6 86.7 186.9 89.5Q187.4 94.25 185.45 98.5Q151.25 93.65 115.4 98.05Q118.8 136.9 117.65 177Q116 236.65 112.5 295.55Q108.95 354.9 106.5 414Q105.5 437.75 100.95 460.45Q93.8 452.9 95.75 438.75Q99.9 409.05 101.45 379L107.65 260.5Q110.75 201.5 111.15 142Q111.25 119.8 112.9 98.35L101.45 100.05Q70.7 105.25 39.5 102Q37.35 99.95 37.35 96.75Q37.3 93.65 38.5 90.75Q103.05 86.6 166.95 79.25Q175.85 81.1 184.4 83.75M233.15,136.65Q208.85 190.2 188.7 245.9Q178.5 274.1 166.45 301.25Q159.2 289 167.2 273.45Q177.4 253.7 185.15 232.95L193.3 211.35Q172.8 162 159.25 109.1Q158.3 105.35 161.45 104.75Q175.35 138.4 188.35 173.1L198.05 199.05Q212.9 160.35 228.6 122.2Q234.7 107.4 242.2 95Q242.75 115.55 233.15 136.65M135.9,312.65Q134.3 312.2 132.95 311.25Q130.3 293.6 149.95 293.25Q170.1 302.3 170.65 326Q171.25 349.5 157.95 367.6Q156.05 370.2 153.55 372.15Q164.75 406.25 176.95 440.35Q181.6 453.45 178.2 466.2Q171.75 461.15 170.85 449.05Q169.55 432.1 161.15 417.05Q149.2 395.55 150.2 374.25L147 375.6Q141.95 377.35 136.85 377.9Q134.7 396.85 131.05 415.75Q127.15 435.9 122.45 455.8Q122.05 457.4 120.45 457.45Q117.1 436.45 121.75 413.7Q125.4 395.9 128.4 378.05L122.45 377.2Q121 374.05 121.1 370.45Q121.2 367.4 121.95 364.45L130.65 364.15Q134.55 338.75 137.2 313.25Q136.6 312.85 135.9 312.65M142.75,361.5Q166.65 355 165.7 330.1Q164.65 302 139.55 306.45L138.3 362.75L142.75 361.5M215.4,295.75L215.45 296.5Q211.5 355 210.95 414.7Q210.65 443.9 204.45 470.95Q198.55 458.65 200.6 441.6Q204.1 412.3 205.55 382.55Q207.7 339.2 210.7 296.25Q212.25 294.4 214 293.55L214.2 293.5Q215.05 294.5 215.4 295.75" />
</g>
</svg>
