<?xml version="1.0" encoding="utf-8"?>
<svg version="1.1" id="Layer_1"
xmlns="http://www.w3.org/2000/svg"
xmlns:xlink="http://www.w3.org/1999/xlink"


xml:space="preserve">
q-49.4 0.6 -98 -5.85q-0.9 0.35 -1.5 1.6q-1.15 2.45 -1 5.15q-0.05 2.3 0.75 4.5q29.45 4.8 59.1 6.9q-1.95 8.85 -2.2 18.85q-1.5 59.25 -3.35 118.5q-1.85 59.85 -6.15 119.2q-1.1 15.05 -4.3 29.65q-3 13.9 4.65 22.35q5.6 -9.9 6.3 -22.4q3.1 -58.95 4.75 -118.55q0.85 -30 2.75 -59.9q3.45 -54.25 1 -107.45q0.45 -1.8 0.4 -3.7q-0.4 -2.75 -2.45 -4.45q-26 29.4 0.1 65.65q17 23.6 14.6 51.05q-0.3 3.5 -3.65 5.05q-6.85 3.05 -14.3 1.75q-7.5 10.95 3.75 20.25q35.45 -3.6 23.95 -43.3q-9.35 -32.2 -23.6 -62.5q-3.1 -6.65 -0.05 -13.45q5.7 -12.8 17.45 -2.25q4.6 -15.8 -11.95 -17.85q-2.85 8.35 -3.6 17.35q0.2 -9.3 -0.15 -18.6q-10.1 42 -16.1 84.75q-2.9 20.4 -4.6 40.7q-0.75 8.8 2.7 17.05q0.35 30.3 10.2 58.2q6.05 -28.45 -3.55 -57.4q1.85 -2 1.95 -4.85q3.9 -21.6 4.9 -43.35q0.15 8.3 1.9 17.1q2.7 13.5 4.55 27.25q2.25 -20.45 -18.8 -20.9q-25.2 -0.5 -31.55 29q-7 32.35 -10.7 65.4q-2.75 24.65 1.8 48.95q2.35 12.5 8.95 23.4q32.3 2.55 42.9 -26.85q2.25 -6.25 0.1 -12.65q-15.45 22.2 -42.5 22.75q-16.3 -35.05 -6.9 -73.55q17.15 2.9 34.15 -2.9q3.05 -5.25 0.8 -10.95q15.3 -12.85 33.7 -1.3q-56.2 2.65 -108.5 14q-0.55 2.2 -0.75 4.5q-0.3 3.5 1.05 6.7q5.65 3.9 13 1.55q6.75 -2.15 13.55 -3.3q26.4 -4.6 52.7 -7.05q-3.75 48.95 -5.6 98.5q-2.3 59.6 -0.3 119.3q1.05 30.3 -4 59.7q-2.45 14.4 5.35 22q6.55 -33.75 5.45 -69.7q-1.8 -59.6 1 -119.2q2.65 -55.8 -0.05 -110.8q36.25 -3.35 72.35 -2.75q1 -1.75 1.4 -3.8q1.1 -5.45 -1.4 -10.35q-4.95 -2.85 -10.8 -2.2q-12.65 2.75 -23.6 10.5q-20.35 14.4 -27.1 38.1q-11.65 41 -15.9 83.45q-5.9 59.05 3.35 117.4q4.35 27.55 22.5 46q41.5 16.65 69.25 -19q19.85 -25.55 28.2 -56.6q15.6 -57.85 7.3 -118.1q-3 -22 -7.45 -43.85q-8 -39.35 -42.05 -56.4q45.65 27.1 48.15 95.95q1.2 32.6 -3.5 65q-2 13.9 -5.95 27.35q-3.9 13.3 -9.85 25.9q-6.45 13.8 -14.75 26.4q-5.35 8.25 -13.25 14.35q-6.45 4.95 -14.3 7.55q-22.4 7.4 -40.05 -6.95q-13.75 -11.25 -16.7 -29.8q-10.65 -66.3 -1.9 -133.2q2.95 -22.65 7.8 -44.8q1.6 -7.2 4.6 -13.9q5.75 -12.85 16 -22.5q5.7 -4.75 11.95 -8.3q6.85 -3.7 14.15 -6.45<g id="1473" transform="matrix(1, 0, 0, 1, -52.95, 0)">
<path style="fill:#000000;fill-opacity:1" d="M448.45,88.75Q450.5 90.45 450.9 93.2L451.2 96.25Q451.25 98.15 450.8 99.95L449.95 103L449.7 103.75L409.75 102.4Q412.2 155.6 408.75 209.85Q406.85 239.75 406 269.75Q404.35 329.35 401.25 388.3Q400.55 400.8 394.95 410.7Q387.3 402.25 390.3 388.35Q393.5 373.75 394.6 358.7Q398.9 299.35 400.75 239.5Q402.6 180.25 404.1 121Q404.35 111 406.3 102.15Q376.65 100.05 347.2 95.25Q346.4 93.05 346.45 90.75L346.45 89.25Q346.3 86.55 347.45 84.1Q348.05 82.85 348.95 82.5Q397.55 88.95 446.95 88.35L448.45 88.75M378.2,124.75Q366.45 114.2 360.75 127Q357.7 133.8 360.8 140.45Q375.05 170.75 384.4 202.95Q395.9 242.65 360.45 246.25Q349.2 236.95 356.7 226L360.7 230.25Q368.15 231.55 375 228.5Q378.35 226.95 378.65 223.45Q381.05 196 364.05 172.4Q337.95 136.15 363.95 106.75L366.25 106.9Q382.8 108.95 378.2 124.75M341.4,184.15Q341.3 187 339.45 189L337.9 188.85Q347.5 217.8 341.45 246.25Q331.6 218.35 331.25 188.05L316.7 186.05L305.45 247.25Q302 239 302.75 230.2Q304.45 209.9 307.35 189.5Q313.35 146.75 323.45 104.75Q323.8 114.05 323.6 123.35Q324.35 114.35 327.2 106L336.15 176.9L339.85 177.45L340.1 177.8L340.95 179.65L341.2 180.55L341.35 181.5L341.4 182.85L341.4 184.15M325.2,148.85Q323.45 140.05 323.3 131.75Q322.3 153.5 318.4 175.1L329.75 176.1Q327.9 162.35 325.2 148.85M472.5,265.6Q454.1 254.05 438.8 266.9L424.05 317.9L455.45 312.5L457 315.8Q459.25 321.5 456.2 326.75Q439.2 332.55 422.05 329.65Q412.65 368.15 428.95 403.2Q456 402.65 471.45 380.45Q473.6 386.85 471.35 393.1Q460.75 422.5 428.45 419.95L423.9 412.6Q417.3 401.7 414.95 389.2Q410.4 364.9 413.15 340.25Q416.85 307.2 423.85 274.85Q430.2 245.35 455.4 245.85Q476.45 246.3 474.2 266.75L472.5 265.6M202.45,76.5L207.45 76.75L208.2 77.6Q210.7 82.5 209.6 87.95Q209.2 90 208.2 91.75Q172.1 91.15 135.85 94.5Q138.55 149.5 135.9 205.3Q133.1 264.9 134.9 324.5Q136 360.45 129.45 394.2Q121.65 386.6 124.1 372.2Q129.15 342.8 128.1 312.5Q126.1 252.8 128.4 193.2Q130.25 143.65 134 94.7Q107.7 97.15 81.3 101.75Q74.5 102.9 67.75 105.05Q60.4 107.4 54.75 103.5L54.3 102.7Q52.95 99.5 53.25 96Q53.45 93.7 54 91.5Q106.3 80.15 162.5 77.5L181.95 75.75L202.45 76.5M242.2,102.25L242.85 102.05L244.45 100.75Q278.5 117.8 286.5 157.15Q290.95 179 293.95 201Q302.25 261.25 286.65 319.1Q278.3 350.15 258.45 375.7Q230.7 411.35 189.2 394.7Q171.05 376.25 166.7 348.7Q157.45 290.35 163.35 231.3Q167.6 188.85 179.25 147.85Q186 124.15 206.35 109.75Q217.3 102 229.95 99.25Q235.8 98.6 240.75 101.45L242.2 102.25M242.2,113.25L228.95 111.25Q221.65 114 214.8 117.7Q208.55 121.25 202.85 126L198.7 129.8Q188.45 139.45 182.7 152.3Q179.7 159 178.1 166.2Q173.25 188.35 170.3 211Q161.55 277.9 172.2 344.2Q175.15 362.75 188.9 374Q206.55 388.35 228.95 380.95Q236.8 378.35 243.25 373.4Q251.15 367.3 256.5 359.05Q264.8 346.45 271.25 332.65Q277.2 320.05 281.1 306.75Q285.05 293.3 287.05 279.4Q291.75 247 290.55 214.4Q288.05 145.55 242.4 118.45L242.2 113.25" />
</g>
</svg>
