<?xml version="1.0" encoding="utf-8"?>
<svg version="1.1" id="Layer_1"
xmlns="http://www.w3.org/2000/svg"
xmlns:xlink="http://www.w3.org/1999/xlink"


xml:space="preserve">
q-0.5 2.35 -0.35 5.15q1.1 24.15 0.1 48q-1.9 44.4 -6.45 88.25q-1.75 16.9 4.45 29.4q4.75 -29.7 5.95 -60.7q2.25 -55.65 1.25 -109.95q28.45 0.65 57.05 -0.8q3.75 -7.2 -0.85 -13.4q-46.3 -0.5 -92.5 2.75q-1.85 5 0.15 9.75q-6.5 14.65 -3.2 30.65q0.2 1.1 1.35 1.3q4.5 -11.8 5.55 -25.25q0.15 -2.3 -1.15 -4.45q0.2 42.5 -4.9 84q-7.8 4.55 -14.75 0.3q-8.4 -5.15 -13 -10.8q-2.35 4.15 -1.6 8.95q4.4 26.65 31.35 17.8q3.15 -3 4.05 -7.2q5.2 -23.75 4.85 -48.8q-0.45 -28.55 -1.9 -55.45q-4.15 3.85 -4.1 11.2q-1 2.9 -0.8 6q0.2 2.55 1.8 4.5q0.75 28.1 -1.45 55.8q-4.6 58.5 -2.9 117.85q0.25 1.75 2 2q4.65 -11.55 4.4 -26q-0.35 -21.25 1.5 -42.6q4.6 -54 0.3 -107.25q1.6 -2.8 1.7 -6q0.1 -3.65 -1.7 -6.75q-0.35 -0.4 -0.75 -0.45q-5.05 7.5 -8.8 15.8q-24.75 55.45 -10 114.35q9.4 37.3 47.55 37.05q28.25 -13.1 38.3 -41.65q20.55 -58.55 -6.55 -115.05q-8.6 -18 -25.25 -26.25q-15.2 2.1 -29 10.75q-1.55 1.1 -3.15 2.5q0.3 2.4 2.05 3.8q29.5 24.15 35.05 63.5q7.15 50.3 -30.05 82.5q-9.95 8.65 -23.15 5q-28.6 -7.95 -32.95 -38.1q-7.95 -55 20.55 -101.2q2.85 -1.15 4 -3.75q0.9 -0.25 1.6 -0.75q9.55 -6.65 20.15 -11.5q2.8 -1.25 2.45 0.7<g id="1477" transform="matrix(1, 0, 0, 1, -137.5, 0)">
<path style="fill:#000000;fill-opacity:1" d="M326.7,196Q324.7 191.25 326.55 186.25L326.95 185.5Q373.15 182.25 419.45 182.75Q424.05 188.95 420.3 196.15L419.7 197Q391.1 198.45 362.65 197.8Q363.65 252.1 361.4 307.75Q360.2 338.75 355.45 368.45Q349.25 355.95 351 339.05Q355.55 295.2 357.45 250.8Q358.45 226.95 357.35 202.8Q357.2 200 357.7 197.65L326.7 196M417.35,214.05Q418.65 216.2 418.5 218.5Q417.45 231.95 412.95 243.75Q411.8 243.55 411.6 242.45Q408.3 226.45 414.8 211.8L417.35 214.05M415.45,256.25Q416.9 283.15 417.35 311.7Q417.7 336.75 412.5 360.5Q411.6 364.7 408.45 367.7Q381.5 376.55 377.1 349.9Q376.35 345.1 378.7 340.95Q383.3 346.6 391.7 351.75Q398.65 356 406.45 351.45Q411.55 309.95 411.35 267.45Q411.3 260.1 415.45 256.25M232.45,175.8Q232.85 175.85 233.2 176.25Q235 179.35 234.9 183Q234.8 186.2 233.2 189L188.2 191.85Q192.5 245.1 187.9 299.1Q186.05 320.45 186.4 341.7Q186.65 356.15 182 367.7Q180.25 367.45 180 365.7Q178.3 306.35 182.9 247.85Q185.1 220.15 184.35 192.05L139.5 194Q137.9 192.05 137.7 189.5Q137.5 186.4 138.5 183.5L225.95 175.25L232.45 175.8M252.85,195L255.95 192.5Q269.75 183.85 284.95 181.75Q301.6 190 310.2 208Q337.3 264.5 316.75 323.05Q306.7 351.6 278.45 364.7Q240.3 364.95 230.9 327.65Q216.15 268.75 240.9 213.3Q244.65 205 249.7 197.5Q251.3 196.1 252.85 195M279.25,191.8L278.95 192Q268.35 196.85 258.8 203.5Q258.1 204 257.2 204.25Q256.05 206.85 253.2 208Q224.7 254.2 232.65 309.2Q237 339.35 265.6 347.3Q278.8 350.95 288.75 342.3Q325.95 310.1 318.8 259.8Q313.25 220.45 283.75 196.3Q282 194.9 281.7 192.5Q282.05 190.55 279.25 191.8" />
</g>
</svg>
