<?xml version="1.0" encoding="utf-8"?>
<svg version="1.1" id="Layer_1"
xmlns="http://www.w3.org/2000/svg"
xmlns:xlink="http://www.w3.org/1999/xlink"


xml:space="preserve">
q0.1 -43.45 36.25 -65.45q6.05 -3.7 12.7 -0.85q-0.35 -5.3 -2.8 -9.7q-3.05 -5.45 -8.2 -9.05q-5.4 -1.45 -11.25 -0.95q-26.55 10.15 -35.4 36.95q-18.9 57.15 -3.4 114.25q4.85 17.75 22.85 14.4q34.5 -6.45 33.2 -38.6q-16.15 25.75 -46 23.5q-11.7 -24 -11.5 -50.25q1.35 -2.6 0.4 -5.3q-0.35 -0.4 -0.8 -0.5q-9.9 -2.5 -20.2 -2.25q-7.35 -0.1 -14.55 2.65q-0.7 16.5 5.15 28.55q15.3 -48.35 21.25 -98.95q8.4 40.3 13.2 81.2q1.85 15.85 11.05 26.25q11.05 -25 15.55 -52.75q4.4 -27.15 10.65 -53.85q5.3 -22.75 0.3 -43.85q-5.35 6.35 -6.55 16.5q-7.15 58.2 -20.95 115.2q-4.8 -28 -8.65 -56.15q-4.2 -30.2 -16.35 -55.55q-0.6 0.35 -0.7 0.85q-2.4 -41.55 -1.85 -83.45q0.25 -15.8 -5.65 -26.75q-0.8 41.45 0.3 83.95q0.4 14.4 -0.2 28.45q-7.15 -54.75 -53.1 -83.05q-9.05 -15.2 -27.45 -14.8q-30.65 7.35 -51.2 31.5q-11.9 14.05 -18 31.35q-19 54.05 -19.45 111.9q-0.75 51.2 22.35 95.65q2.65 5.1 6.8 8.75q31.95 27.9 72.05 8.3q13.05 -11.25 22.75 -25.65q23.45 -34.85 35.85 -75.1q17.8 -57.75 10 -117.4q-12.5 59.05 -46.7 108.1q-12.75 18.2 -34.5 22.8q-31.75 6.65 -50.3 -16.6q-10.85 -13.6 -14.9 -30.3q-5.45 -22.2 -7.65 -45.2q-5.8 -59.65 5.85 -118.15q12.6 -63.55 74.1 -85.2q10.7 -1.3 19.5 3.25q-0.3 2.25 -0.3 4.5q0 2.65 1.75 3.65q39.4 22.7 51.05 66.8q11.3 42.85 2.1 86.35q-14.1 1.5 -28.55 4.2q-14.95 2.75 -30 3.5q-58.45 2.75 -112.9 20.55q-2.15 5.15 0.25 10.35q11.8 -3.2 23.95 -5.4q16.05 -2.95 32.25 -5.05q-4.45 59.55 -8 119.25q-3.5 58.9 -2.9 118.45q0.25 22.4 -3.85 43.95q-3.3 17.65 3.35 29.3q1 -0.75 1.15 -1.6q6.2 -40.9 6.1 -83.1q-0.15 -59.75 3.4 -119.15q3.25 -54.7 4.65 -108.5q48.95 -5.6 97.45 -9.6q2.9 -6.25 0.2 -12.75q-0.35 -0.4 -0.75 -0.4q-11.75 -0.5 -23.5 -0.6<g id="1465" transform="matrix(1, 0, 0, 1, -35.35, 0)">
<path style="fill:#000000;fill-opacity:1" d="M359.4,190.65Q366.6 187.9 373.95 188Q384.25 187.75 394.15 190.25Q394.6 190.35 394.95 190.75L395.35 191.5L396.1 193.7Q397.05 196.4 395.7 199L357.7 201.25Q357.5 227.5 369.2 251.5Q399.05 253.75 415.2 228Q416.5 260.15 382 266.6Q364 269.95 359.15 252.2Q343.65 195.1 362.55 137.95Q371.4 111.15 397.95 101Q403.8 100.5 409.2 101.95L411.45 102.5Q416.6 106.1 419.65 111.55Q422.1 115.95 422.45 121.25L407 114.7Q400.35 111.85 394.3 115.55Q358.15 137.55 358.05 181L357.95 191.3L359.4 190.65M340.5,366.2Q339.4 323.7 340.2 282.25Q346.1 293.2 345.85 309Q345.3 350.9 347.7 392.45L364.25 302.1Q364.35 301.6 364.95 301.25Q377.1 326.6 381.3 356.8Q385.15 384.95 389.95 412.95Q403.75 355.95 410.9 297.75Q412.1 287.6 417.45 281.25Q422.45 302.35 417.15 325.1Q410.9 351.8 406.5 378.95Q402 406.7 390.95 431.7Q381.75 421.3 379.9 405.45Q375.1 364.55 366.7 324.25Q360.75 374.85 345.45 423.2Q339.6 411.15 340.3 394.65Q340.9 380.6 340.5 366.2M324.8,321.7Q312.4 361.95 288.95 396.8Q279.25 411.2 266.2 422.45Q226.1 442.05 194.15 414.15Q190 410.5 187.35 405.4Q164.25 360.95 165 309.75L165.3 280.5Q165.75 222.65 184.75 168.6Q190.85 151.3 202.75 137.25Q223.3 113.1 253.95 105.75Q272.35 105.35 281.4 120.55L281.7 121.25Q327.65 149.55 334.8 204.3Q342.6 263.95 324.8 321.7M324.45,196.95Q312.8 152.85 273.4 130.15Q271.65 129.15 271.65 126.5Q271.65 124.25 271.95 122Q263.15 117.45 252.45 118.75Q190.95 140.4 178.35 203.95Q166.7 262.45 172.5 322.1Q174.7 345.1 180.15 367.3Q184.2 384 195.05 397.6Q213.6 420.85 245.35 414.2Q267.1 409.6 279.85 391.4Q314.05 342.35 326.55 283.3Q335.75 239.8 324.45 196.95M232.45,86.35Q232.85 86.35 233.2 86.75L233.65 87.5Q236.35 94 233.45 100.25Q184.95 104.25 136 109.85Q134.6 163.65 131.35 218.35Q127.8 277.75 127.95 337.5Q128.05 379.7 121.85 420.6Q121.7 421.45 120.7 422.2Q114.05 410.55 117.35 392.9Q121.45 371.35 121.2 348.95Q120.6 289.4 124.1 230.5Q127.65 170.8 132.1 111.25L132.2 110.3L94.7 114.8Q78.5 116.9 62.45 119.85Q50.3 122.05 38.5 125.25L37.75 124.35Q35.35 119.15 37.5 114Q91.95 96.2 150.4 93.45Q165.45 92.7 180.4 89.95Q194.85 87.25 208.95 85.75Q220.7 85.85 232.45 86.35" />
</g>
</svg>
