<?xml version="1.0" encoding="utf-8"?>
<svg version="1.1" id="Layer_1"
xmlns="http://www.w3.org/2000/svg"
xmlns:xlink="http://www.w3.org/1999/xlink"


xml:space="preserve">
q7.6 5.95 8.6 16.25q7.15 -22.75 -15.25 -29.75q-40.9 53.55 -35.6 124.65q2.2 29.35 -1.6 58.75q-8.8 67.65 15.9 126.35q2.55 6 9.3 8.2q36.05 -13.5 37.55 -49.55q0.2 -4.4 -2.55 -7.95q-4.85 29.5 -38.3 37.7q-23.9 -67.1 -8.2 -140.35q15.65 4 31.05 -1.75q6.15 -7.9 0.4 -16.1q-6.05 -64.5 18.35 -122.3q2.8 -6.6 6.95 -12.4q-2.6 1.1 -4.65 2.95q-0.55 1.8 -0.6 3.75q-3.75 11.7 -4.5 25.55q-3.15 58.45 -5.55 117.1q-2.45 59.95 -12.4 118.6q-2.55 14.95 -7.1 29.25q-5.6 17.45 2.35 29.6q0.65 -0.75 0.8 -1.6q12.45 -57.55 17.7 -116.2q5.5 -0.5 10.4 -2.3q9.15 57.9 25.95 114.45q3.3 11 4.35 22.05q1.65 16.95 9.65 28.35q1.4 -0.7 1.4 -2.25q-0.45 -31.35 -10.25 -62.5q-16.2 -51.7 -25.3 -104.3q8.65 -5.05 15.05 -14.9q34.35 -52.6 21.75 -112.7q-6.4 -30.65 -35.15 -37.05q-3.8 0.8 -7.85 2.55q10.45 17.95 9.4 38.75q-1.1 20.9 -6.1 41.25q-5.4 21.85 -22.35 36.25q-9.85 8.35 -21.85 12.6q6.45 -71.1 5.5 -142.05q22.55 -8.75 35.4 13.2q-3.5 -60.65 -36.15 -111.95q-33.6 -52.8 -93.25 -68.95q-3.35 -0.6 -4.05 2.65q-0.5 2.25 -0.5 4.6q-0.05 2.3 0.55 4.5q-19.25 2.85 -37 11.7q-11.9 5.95 -19.8 16.4q-23 30.55 -26.9 68.75q-6.1 59.9 7.7 117.75q5.5 23.1 20.15 41.8q33.5 42.8 88.25 38.75q63.35 -4.7 88.75 -60.1q14.25 -31 12.25 -65.9q-5.55 57.9 -59.95 80.25q-35.65 14.65 -71.4 1.2q-60.55 -22.8 -69 -86.85q-7.9 -59.8 6.35 -117.9q5.05 -20.5 20.9 -34.05q32.55 -27.85 76.95 -23.2q5.7 1.5 10.95 4.95q51.35 33.7 73.45 90.3q15.95 40.9 11.75 85.3q-58.9 2.65 -116.4 10.1q-4.15 7.1 0.75 13.5q-3.65 40.65 -6 82.3q-3.3 59.2 -5.2 118.55q-1 29.7 -3.6 59.1q-2.05 23.2 0.75 44.35q1.25 -0.35 1.4 -0.95q6.55 -36.1 6.6 -74.05q0.15 -59.65 5.35 -118.5q4.9 -55.8 2.3 -110.9q3.3 -7.75 -1.2 -14.2<g id="1479" transform="matrix(1, 0, 0, 1, -51.6, 0)">
<path style="fill:#000000;fill-opacity:1" d="M498.95,139Q494.8 144.8 492 151.4Q467.6 209.2 473.65 273.7L504.45 267.25Q510.2 275.45 504.05 283.35Q488.65 289.1 473 285.1Q457.3 358.35 481.2 425.45Q514.65 417.25 519.5 387.75L522.95 385.95Q525.7 389.5 525.5 393.9Q524 429.95 487.95 443.45Q481.2 441.25 478.65 435.25Q453.95 376.55 462.75 308.9Q466.55 279.5 464.35 250.15Q459.05 179.05 499.95 125.5Q522.35 132.5 515.2 155.25L515.05 155.5Q514.05 145.2 506.45 139.25L498.95 139M424.95,115.5Q453.7 121.9 460.1 152.55Q472.7 212.65 438.35 265.25Q431.95 275.1 423.3 280.15Q432.4 332.75 448.6 384.45Q458.4 415.6 458.85 446.95Q458.85 448.5 457.45 449.2Q449.45 437.8 447.8 420.85Q446.75 409.8 443.45 398.8Q426.65 342.25 417.5 284.35L417.3 282.95Q412.4 284.75 406.9 285.25L403.2 328.15Q397.95 386.8 385.5 444.35Q385.35 445.2 384.7 445.95Q376.75 433.8 382.35 416.35Q386.9 402.05 389.45 387.1Q399.4 328.45 401.85 268.5Q404.25 209.85 407.4 151.4Q408.15 137.55 411.9 125.85L411.85 124.75Q411.9 122.8 412.45 121Q414.5 119.15 417.1 118.05Q421.15 116.3 424.95 115.5M413.45,130Q414.4 200.95 407.95 272.05Q419.95 267.8 429.8 259.45Q446.75 245.05 452.15 223.2Q457.15 202.85 458.25 181.95Q459.3 161.15 448.85 143.2Q436 121.25 413.45 130M373.6,366.05Q348.2 421.45 284.85 426.15Q230.1 430.2 196.6 387.4Q181.95 368.7 176.45 345.6Q162.65 287.75 168.75 227.85Q172.65 189.65 195.65 159.1Q203.55 148.65 215.45 142.7Q233.2 133.85 252.45 131Q251.85 128.8 251.9 126.5Q251.9 124.15 252.4 121.9Q253.1 118.65 256.45 119.25Q316.1 135.4 349.7 188.2Q382.35 239.5 385.85 300.15Q387.85 335.05 373.6 366.05M364.35,238.75Q342.25 182.15 290.9 148.45Q285.65 145 279.95 143.5Q235.55 138.85 203 166.7Q187.15 180.25 182.1 200.75Q167.85 258.85 175.75 318.65Q184.2 382.7 244.75 405.5Q280.5 418.95 316.15 404.3Q370.55 381.95 376.1 324.05Q380.3 279.65 364.35 238.75M222.65,123.95L222.2 124.75L143.85 132.3Q146.45 187.4 141.55 243.2Q136.35 302.05 136.2 361.7Q136.15 399.65 129.6 435.75Q129.45 436.35 128.2 436.7Q125.4 415.55 127.45 392.35Q130.05 362.95 131.05 333.25Q132.95 273.9 136.25 214.7Q138.6 173.05 142.25 132.4L56.5 138Q51.6 131.6 55.75 124.5Q113.25 117.05 172.15 114.4L195.9 112.35L221.45 109.75Q225.95 116.2 222.65 123.95" />
</g>
</svg>
