<?xml version="1.0" encoding="utf-8"?>
<svg version="1.1" id="Layer_1"
xmlns="http://www.w3.org/2000/svg"
xmlns:xlink="http://www.w3.org/1999/xlink"


xml:space="preserve">
q2.55 6.2 3.5 16.4q2.85 26.3 2.85 66.2q-0.75 18.05 -4.6 37.6q-4.3 21.6 -10.85 36.3q-1.9 4.35 -5.65 9.35q-4.35 5.75 -8.5 8.65q-5.1 3.65 -16.3 8.05q-13.65 5.4 -22.45 5.45q-1 -0.85 -1.25 -2.2q0 -2.3 0.65 -10.45q1.05 -13.45 3.6 -41.45q-0.5 -1.85 -0.5 -4.95q-0.05 -4.75 0.55 -8.2q0 -1.9 1 -2.8q21.05 2.45 29.3 9.8q3.85 3.4 5.85 8.8q-0.3 1.4 -0.2 3.95q-1.85 24.8 -3.8 43.35q-0.5 1.3 -0.5 2.95q4.95 -0.95 14 -3.9q13.95 -4.6 19.75 -8.4q5.15 -3.4 8.85 -8.7q1.85 -2.7 4.8 -8.55q3.5 -6.95 6.3 -17.1q3.5 -14.95 4.3 -34.3q0.2 -5.7 0.2 -33.95q0 -18.55 -0.45 -31.65q-0.6 -17.4 -2.15 -31.65q-1.9 -17.45 -4.25 -31.5q-2.85 -17.05 -22.55 -23.3q-9.5 -3.05 -26.7 -3.65q0.5 0.25 -0.75 0.25q-0.7 0 -4.1 -5.35q-3.35 -5.35 -5.9 -5.35q-16.8 16.2 -21.35 39.75q-1.45 7.55 -2.35 20.3q-1.1 14.9 -1.8 19.95q3.15 -1.65 9.8 -3.25q10.6 -2.55 15.9 -2.7q1.35 0.6 1.35 3q0 1.9 -0.35 2.35q-5.2 -0.55 -10.75 1q-3.55 0.65 -4.75 1.95q-0.65 8.85 -1.55 24.3q-2 34.05 -2 43.9q0 6.45 1.05 12.95q1.8 11.5 5.95 11.5q14.5 0 19.6 -10.55q2.05 -4.25 2.65 -13.45q0.45 0.45 0.45 1.2q0 10.75 -5.75 19.4q-5.95 9 -14 9q-9.6 0 -12.5 -14.75q-0.9 -4.65 -1.05 -10.3q0 -17.6 2 -47.35q0 -0.85 0.95 -1.65q0.9 -10.05 1.8 -17.15q1.65 -13.2 4.2 -22.65q1.05 -3.85 4 -10.2q4.05 -8.6 8.45 -13.65q13.1 -15 23.55 8.15q0.7 1.65 14.65 22.8q12.1 18.45 12.1 23.5q0 1.8 -0.9 2.45q-2.55 -4.45 -14.3 -21.75q-3 3.4 -7.7 9.9q-5.2 7.25 -8.1 9.85q0 -3.6 6.35 -11.85q3.8 -4.95 6.75 -7.9q0.05 -1.4 0.75 -2.05q4.25 -3.5 9.4 -11.2q4.7 -7 8.55 -9.9q0.3 -0.5 0.65 -0.5q-7.55 -11 -8.7 -17.5q0 7.45 -2.5 18.65q-1.05 3.7 -1 10.7q0.1 7.1 -0.85 10.75q1.25 1.25 1.25 2.8q-0.55 1.2 -2.45 1.2q-0.25 -1.25 -0.25 -3q0 -6.05 1 -16.4q0.4 -6.6 2.25 -9.55q-0.35 12.1 -1.9 22.75q-0.9 10.75 -3.55 31.6q-2.8 22.1 -3.7 32.15q-1.95 20.7 -8.85 39.55q-8.6 23.45 -19.3 23.45q-6.1 -6.6 -8 -18.9q-1 -6.55 -1 -20q0 -9.4 0.3 -16.4q0.55 -7.85 0.95 -27.2q0.3 -17.65 1.2 -27.1q1.05 -14.9 1 -24.1q3.9 -19.2 9.9 -31.85q8.65 -18.2 18.1 -12.85q5.35 -2.35 8.25 4q1.6 3.55 3.75 11.5q3.5 9.25 4.4 21.45q0 1.3 -0.85 2.55q-0.05 10.15 -1.4 26.65q-0.55 4.15 -1.45 6.75q-1.05 -0.6 -1.7 -1.9q-0.5 -1.05 -0.5 -1.75q0 -3.05 4.85 -55.4q5.55 -59.4 6.75 -75.2q0.55 -8.25 0.6 -21.75q-1.15 0 -1.45 -1.25q0.3 -0.8 1.3 -1.5q17.05 -0.25 26.7 -0.75q0 -0.15 0.6 -0.2q0.85 1.3 0.85 2.7q-0.35 12.75 -1.75 21q-0.45 7.75 -0.8 27q-0.35 17.2 -1.1 27q0.65 10.15 -0.05 20.3q-0.95 13.05 -0.95 18.45q0 23.9 7.15 31.3q17.85 -12.65 22.25 -30.25q1.4 -5.65 2.15 -15.15q0.85 -11.25 1.5 -15.1q2.2 -12.85 3.95 -30.35q1.55 -12.45 1.9 -22.2q0 -31.35 -3.75 -50.7q-7.15 -36.55 -25.65 -18.15q-10.8 16.7 -12.3 42.4q0 0.95 -0.4 2.15q0.45 0.3 -0.8 0.3q-3.7 -0.9 -6.7 -0.9q-0.25 -1.25 -0.25 -2.9q0 -7.25 1.75 -19q2.1 -14.05 2.5 -19.8q0.35 0.5 0.35 1.3q0 5 -3.75 34.9q2.35 -0.65 4.75 -0.65q15.45 0 19.15 1.5q1.35 0.55 1.4 1.4q0.75 -1.15 1.25 -1.3q0.75 1.5 0.75 3.2q0 7.2 -7.1 25.55q-1.8 -3.6 -2.2 -10.25q-0.55 -8 -1.15 -10.25q-0.95 -3.55 -1.35 -10.35q0 -0.65 3.1 -10.25q3.3 -10.35 3.8 -12.7q3.45 -15.85 6 -22.25q1.5 13.25 1.7 23.75q5.2 -14 5.2 -21.35q0 -0.4 0.65 -1.45q0.65 0.5 0.9 1.8q1.2 6.15 2.45 10.2q4.75 -9.6 9.2 -25.3q4.5 -17.35 6.7 -24.75q0.85 1.2 0.85 3.65q0 10.1 -5.6 26.95q-4.4 13.25 -10.4 25.65q0.75 0.3 -0.5 0.3q-2.55 0 -4.6 -12.85q-1.75 -11 -1.75 -19.9q-1.35 6.75 -4.3 15.2q-1.85 -7.95 -4.45 -28.9q-2.3 -18.7 -2.3 -21.6q0 -1.35 0.4 -2.55q2.2 8.05 3.5 22.7q1.55 16.9 2.75 23.05q3.35 -10.85 3.9 -18.9<g id="1474" transform="matrix(1, 0, 0, 1, -1.5, 0)">
<path style="fill:#000000;fill-opacity:1" d="M231.75,38.75L234.55 47.3Q237.1 53.5 238.05 63.7L239.3 80.3Q242.15 106.6 242.15 146.5L242 181.9Q241.25 199.95 237.4 219.5Q233.1 241.1 226.55 255.8Q224.65 260.15 220.9 265.15Q216.55 270.9 212.4 273.8Q207.3 277.45 196.1 281.85Q182.45 287.25 173.65 287.3L171.4 291Q170.4 290.15 170.15 288.8L170.05 286.75Q170.05 284.45 170.7 276.3L169.9 275L169.9 274.6L169.7 272.75L170.75 275.3Q171.8 261.85 174.35 233.85L179.65 176L179.65 97.55L180.45 86.1L181.3 74.75L181.3 49.25Q180.8 47.4 180.8 44.3L180.4 31Q180.35 26.25 180.95 22.8L180.9 21.85Q180.9 19.95 181.9 19.05L181.95 19.05L182.15 18.5L182.8 19.1L195.15 20L195.3 19.8L195.4 19.75L196.5 20.1L196.6 20.15Q217.65 22.6 225.9 29.95Q229.75 33.35 231.75 38.75M183.55,41.75Q183.25 43.15 183.35 45.7L183.55 48.85L183.5 71.6L182.15 99.8L182.15 178.25L178.7 226.8Q176.85 251.6 174.9 270.15Q174.4 271.45 174.4 273.1L174.5 273.65L174.3 275.3L174.3 279L175 278.95L176.7 277.25L177.8 277.5L177.4 278.55Q182.35 277.6 191.4 274.65Q205.35 270.05 211.15 266.25Q216.3 262.85 220 257.55Q221.85 254.85 224.8 249Q228.3 242.05 231.1 231.9L235.15 214.8Q238.65 199.85 239.45 180.5Q239.65 174.8 239.65 146.55Q239.65 128 239.2 114.9Q238.6 97.5 237.05 83.25Q235.15 65.8 232.8 51.75Q229.95 34.7 210.25 28.45Q200.75 25.4 183.55 24.8L183.55 41.75M173.15,115.25Q173.65 115.5 172.4 115.5Q171.7 115.5 168.3 110.15Q164.95 104.8 162.4 104.8L156.8 105Q140 121.2 135.45 144.75Q134 152.3 133.1 165.05Q132 179.95 131.3 185L130.85 190.45Q134 188.8 140.65 187.2Q151.25 184.65 156.55 184.5Q157.9 185.1 157.9 187.5Q157.9 189.4 157.55 189.85L155.9 190Q150.7 189.45 145.15 191L136.15 193.5Q132.6 194.15 131.4 195.45L130.45 196.4Q129.8 205.25 128.9 220.7Q126.9 254.75 126.9 264.6Q126.9 271.05 127.95 277.55Q129.75 289.05 133.9 289.05Q148.4 289.05 153.5 278.5Q155.55 274.25 156.15 265.05L156.9 264.3L157.7 265.15Q158.15 265.6 158.15 266.35Q158.15 277.1 152.4 285.75Q146.45 294.75 138.4 294.75Q128.8 294.75 125.9 280Q125 275.35 124.85 269.7L124.9 264.75Q124.9 247.15 126.9 217.4L128.5 195.9L128.05 195.05L127.9 193.35Q127.9 192.5 128.85 191.7Q129.75 181.65 130.65 174.55L133.2 152.2Q134.85 139 137.4 129.55Q138.45 125.7 141.4 119.35Q145.45 110.75 149.85 105.7Q162.95 90.7 173.4 113.85L173.15 115.25M133.05,20.05Q133.75 21.7 147.7 42.85Q159.8 61.3 159.8 66.35Q159.8 68.15 158.9 68.8Q156.35 64.35 144.6 47.05L144.4 47.05L142.05 46.75L117.65 46.5L115.1 46.3Q112.1 49.7 107.4 56.2Q102.2 63.45 99.3 66.05L99.05 63.6Q99.05 60 105.4 51.75Q109.2 46.8 112.15 43.85Q112.2 42.45 112.9 41.8L114.25 41.9L114.4 41.75Q118.65 38.25 123.8 30.55Q128.5 23.55 132.35 20.65L132.4 20.55Q132.7 20.05 133.05 20.05M141,41.75Q133.45 30.75 132.3 24.25L125.85 33.15L118.65 42.25L141.5 42.5L141 41.75M91.65,67.85Q91.65 75.3 89.15 86.5L89.15 122.05Q88.1 125.75 88.15 132.75Q88.25 139.85 87.3 143.5L87.3 150.55L93.4 149.55L95.9 149.55L108.9 150L110.7 150.25L113.4 150.5L115.05 150.05L116.05 149.55Q117.3 150.8 117.3 152.35L117.05 154.05Q116.5 155.25 114.6 155.25L111.15 154.95L108.4 154.5L95.9 154.3L85.3 155.55Q85.05 154.3 85.05 152.55Q85.05 146.5 86.05 136.15L87.65 119.55L87.65 84.75L88.3 74.3Q88.7 67.7 90.55 64.75L91.3 66.25L91.65 67.85M84.15,82.7L84.3 101.1L84.2 123.25Q83.85 135.35 82.3 146L82.3 165.8Q81.4 176.55 78.75 197.4Q75.95 219.5 75.05 229.55Q73.1 250.25 66.2 269.1Q57.6 292.55 46.9 292.55L41.15 292.5Q35.05 285.9 33.15 273.6Q32.15 267.05 32.15 253.6Q32.15 244.2 32.45 237.2L33.15 217.05L33.15 191.55Q33.7 183.7 34.1 164.35Q34.4 146.7 35.3 137.25L35.3 115.05L36.9 90.85Q37.95 75.95 37.9 66.75Q41.8 47.55 47.8 34.9Q56.45 16.7 65.9 22.05Q71.25 19.7 74.15 26.05Q75.75 29.6 77.9 37.55Q81.4 46.8 82.3 59L84.15 82.7M58.4,18.5Q58.4 19.8 57.55 21.05L33.65 22.6L26.65 22.95Q26.6 33.1 25.25 49.6L23.05 75.55L23.05 95.8L22.55 98.05L22.55 121.75L22.1 127L21.65 132.55L21.65 160.3L16.75 220.15L11.3 280.05L11.55 279.5L12.05 279.3L11.2 285.75Q10.65 289.9 9.75 292.5Q8.7 291.9 8.05 290.6Q7.55 289.55 7.55 288.85Q7.55 285.8 12.4 233.45Q17.95 174.05 19.15 158.25L19.15 130.5L19.75 125.15L20.3 119.55L20.3 96.3L20.8 94.05L20.8 73.5L23.45 44.85Q24 36.6 24.05 23.1L3 23.75Q1.85 23.75 1.55 22.5L1.5 21L1.7 19.25Q2 18.45 3 17.75Q20.05 17.5 29.7 17L52.9 16Q52.9 15.85 53.5 15.8L57.55 15.8Q58.4 17.1 58.4 18.5M39.3,96.05Q38.95 108.8 37.55 117.05L37.55 139.55Q37.1 147.3 36.75 166.55Q36.4 183.75 35.65 193.55L35.65 215Q36.3 225.15 35.6 235.3Q34.65 248.35 34.65 253.75Q34.65 277.65 41.8 285.05L46.9 285.05Q64.75 272.4 69.15 254.8Q70.55 249.15 71.3 239.65Q72.15 228.4 72.8 224.55Q75 211.7 76.75 194.2L79.55 163.8L79.55 144Q81.1 131.55 81.45 121.8L81.55 101.15Q81.55 69.8 77.8 50.45Q70.65 13.9 52.15 32.3Q41.35 49 39.85 74.7L39.3 96.05M124.95,140.95L124.8 142.35Q124.8 143.3 124.4 144.5Q124.85 144.8 123.6 144.8L120.35 143.9Q116.65 143 113.65 143L101.7 143.65L98.4 144.3L95.3 144.25Q95.05 143 95.05 141.35Q95.05 134.1 96.8 122.35Q98.9 108.3 99.3 102.55L100.05 102.5L100.7 103.05Q101.05 103.55 101.05 104.35Q101.05 109.35 97.3 139.25L97.3 139.5L99.65 138.7Q102 138.05 104.4 138.05Q119.85 138.05 123.55 139.55Q124.9 140.1 124.95 140.95M111.8,185.35Q112.55 184.2 113.05 184.05Q113.8 185.55 113.8 187.25Q113.8 194.45 106.7 212.8L97.9 235Q96.1 231.4 95.7 224.75Q95.15 216.75 94.55 214.5Q93.6 210.95 93.2 204.15L92.4 193.8L87.15 210.75L81.55 227.8L80.35 226.75L80.15 226Q80.15 225.35 83.25 215.75Q86.55 205.4 87.05 203.05Q90.5 187.2 93.05 180.8L96.2 204Q97.7 217.25 97.9 227.75L98.05 227.8L105.95 208.15Q111.15 194.15 111.15 186.8Q111.15 186.4 111.8 185.35M93.9,244.5L94.4 244Q95.05 244.5 95.3 245.8L95.3 265.75L97.2 275.35Q98.4 281.5 99.65 285.55Q104.4 275.95 108.85 260.25Q113.35 242.9 115.55 235.5Q116.4 236.7 116.4 239.15Q116.4 249.25 110.8 266.1Q106.4 279.35 100.4 291.75Q101.15 292.05 99.9 292.05Q97.35 292.05 95.3 279.2Q93.55 268.2 93.55 259.3L93.4 259.05Q92.05 265.8 89.1 274.25L83.4 289.3Q81.55 281.35 78.95 260.4Q76.65 241.7 76.65 238.8Q76.65 237.45 77.05 236.25L77.55 236.05Q79.75 244.1 81.05 258.75Q82.6 275.65 83.8 281.8L89.75 263.65Q93.1 252.8 93.65 244.75L93.9 244.5" />
</g>
</svg>
