<?xml version="1.0" encoding="utf-8"?>
<svg version="1.1" id="Layer_1"
xmlns="http://www.w3.org/2000/svg"
xmlns:xlink="http://www.w3.org/1999/xlink"


xml:space="preserve">
q-2.3 41.45 -2.5 83.3q-0.25 60.1 -7.65 119q-3.8 30.75 0.45 59.45q53.65 4.35 107 4.5q6.25 -8.55 0 -17q-52.1 0.2 -102.25 -4.75q4 -59.4 5.05 -119.2q0.5 -30.4 -0.75 -59.25q-3.95 2.75 -4.3 8.95q-1.45 59 -5.15 117.7q-1.95 30.65 1.75 59.3q6.75 -0.25 13.1 1.2q30.4 7.2 60.9 7.8q6.25 -8.6 0 -17q-36.25 -1.9 -70 -9.25q0.25 -28.65 1.35 -57.05q2.3 -60.3 2.4 -118.45q-4.15 6.5 -4.35 15.75q-4.55 -30.45 -23.3 -55q-20.4 -26.85 -50.75 -42.2q-3.85 -1.3 -8.05 -1.35q-12.65 1.6 -25.15 5.75q-10.75 3.55 -19.65 10.7q-28.75 23.05 -32.8 59.9q-6.65 60.65 12.65 117.2q7.9 23 26.85 37.75q26.15 20.35 56.8 5.9q61.35 -28.95 66.95 -95.75q1.8 -21.2 -1.35 -42.25q-19.9 -4 -40.2 -1.8q-22.05 0.1 -43.85 3.1q-12.85 1.85 -25.35 4.75q-3.5 62.15 -2.15 124.25q1.35 63.85 -3.7 127.35q-0.75 9.5 2.6 18.35q8.55 -33.55 7.7 -68.55q-2.4 -102.45 -3.35 -204.85q1.75 -1.8 1.8 -4.5q28.7 -1.85 52.55 15.5q49.05 35.65 49.45 98.25q-2.2 19.45 -10 37.6q-16.3 38.15 -55.5 53.95q-26.4 10.6 -47.6 -6.2q-30.65 -24.4 -36.15 -64.55q-3.95 -28.85 -4.1 -58.55q-0.3 -47.65 38.6 -72.5q-1.9 2.6 -1.55 5q6.25 -8 16 -10.2<g id="1482" transform="matrix(1, 0, 0, 1, -37.75, 0)">
<path style="fill:#000000;fill-opacity:1" d="M369.45,120.25Q370.7 149.1 370.2 179.5Q369.15 239.3 365.15 298.7L360.2 373.7Q410.35 378.65 462.45 378.45Q468.7 386.9 462.45 395.45Q409.1 395.3 355.45 390.95Q351.2 362.25 355 331.5Q362.4 272.6 362.65 212.5Q362.85 170.65 365.15 129.2Q365.5 123 369.45 120.25M438.2,129.75Q438.1 187.9 435.8 248.2Q434.7 276.6 434.45 305.25Q468.2 312.6 504.45 314.5Q510.7 322.9 504.45 331.5Q473.95 330.9 443.55 323.7Q437.2 322.25 430.45 322.5Q426.75 293.85 428.7 263.2Q432.4 204.5 433.85 145.5Q434.05 136.25 438.2 129.75M337.6,278.7Q332 345.5 270.65 374.45Q240 388.9 213.85 368.55Q194.9 353.8 187 330.8Q167.7 274.25 174.35 213.6Q178.4 176.75 207.15 153.7Q216.05 146.55 226.8 143Q239.3 138.85 251.95 137.25Q256.15 137.3 260 138.6L262.2 139.25Q292.55 154.6 312.95 181.45Q331.7 206 336.25 236.45Q339.4 257.5 337.6 278.7M184.7,125.25L118.3 125.05Q119.25 227.45 121.65 329.9Q122.5 364.9 113.95 398.45L112.6 395.1Q109.25 386.25 110 376.75Q115.05 313.25 113.7 249.4Q112.35 187.3 115.85 125.15L37.85 129.9L37.75 121Q50.25 118.1 63.1 116.25Q84.9 113.25 106.95 113.15L145 111.45Q165.3 109.25 185.2 113.25L185.55 114.05L186.35 117.4L186.5 120.75Q186.45 123.45 184.7 125.25M213.45,164.95L212.95 165.5Q212.6 163.1 214.5 160.5L216.7 158.25Q177.8 183.1 178.1 230.75Q178.25 260.45 182.2 289.3Q187.7 329.45 218.35 353.85Q239.55 370.65 265.95 360.05Q305.15 344.25 321.45 306.1Q329.25 287.95 331.45 268.5Q331.05 205.9 282 170.25Q258.15 152.9 229.45 154.75Q219.7 156.95 213.45 164.95" />
</g>
</svg>
