<?xml version="1.0" encoding="utf-8"?>
<svg version="1.1" id="Layer_1"
xmlns="http://www.w3.org/2000/svg"
xmlns:xlink="http://www.w3.org/1999/xlink"


xml:space="preserve">
q-3.65 19.2 -4.25 40.4q-1.75 59.5 -7.8 118.25q-1.4 13.65 4.7 21.7q0.65 -0.75 0.7 -1.55q3.35 -35.05 6.15 -70.45q4.3 -54.75 2.95 -108.3q1.55 -3.2 1.15 -6.75q-6.35 1.95 -13 2.2q-1.35 0.35 -2.6 1q-0.9 2.5 -0.75 5.25q16.85 -0.2 33.6 0.1q-15.45 2.8 -30.8 6.75q-0.1 -28.5 -0.95 -56.5q-6.2 39.6 -5.7 81.95q0.25 22.3 -3 44q-2.6 17.4 4.2 29.25q4.45 -17.65 4.85 -36.75q0.6 -25.9 0.65 -51.45q0.35 15.05 -2.15 29.7q-2.85 16.95 3.3 29.55q8.1 -37.05 6.45 -76.55q-2.5 -59.55 -6.45 -118.4q-4.75 6.65 -4.45 17.3q-19.7 0.1 -39.65 -0.4q-21.9 -0.55 -43.5 -0.2q-2.55 22.75 -2.65 46q-0.15 48 -3.85 95.9q-1.25 16.35 4.2 29.5q1.5 -1.25 1.7 -3.3q3.55 -36.55 4.3 -73.5q1 -47.25 -1.7 -94.55q0.95 -0.75 1.5 -2.1q19.5 14.05 10.45 37.9q-8.05 21.3 -31.3 21.55q-24.15 0.25 -27.8 -24.85q-3.35 -23.3 15.85 -35.85q14.6 -9.45 31.7 -4.75q-5.65 -0.85 -11.55 0.05q-17.45 10.75 -23.5 31.5q-6.05 20.65 -0.25 41.4q6.75 24.05 32.85 21.95q23.85 -2.05 32.1 -24.6q7.5 -20.55 2.2 -41.75q-3.05 -12.25 -10.9 -22q-10.05 -4.6 -20.95 -6.55<g id="1489" transform="matrix(1, 0, 0, 1, -138.5, 0)">
<path style="fill:#000000;fill-opacity:1" d="M324.45,191.25L323.6 190.4L323.2 189.75L323 188.95L322.75 187.5L322.7 186.75Q322.55 184 323.45 181.5Q324.7 180.85 326.05 180.5L328.95 180.05Q335.6 179.8 341.95 177.85L341.95 177.75L382.2 179.25L393.45 179.75L394.9 181.25L395.4 182L395.9 183.5L396.35 185.75Q396.75 189.3 395.2 192.5L360.5 191.4Q361.85 244.95 357.55 299.7Q354.75 335.1 351.4 370.15Q351.35 370.95 350.7 371.7Q344.6 363.65 346 350Q352.05 291.25 353.8 231.75Q354.4 210.55 358.05 191.35Q341.3 191.05 324.45 191.25M421.45,180.25Q425.4 239.1 427.9 298.65Q429.55 338.15 421.45 375.2Q415.3 362.6 418.15 345.65Q420.65 331 420.3 315.95L419.4 278.65L383.2 281.75Q383.15 307.3 382.55 333.2Q382.15 352.3 377.7 369.95Q370.9 358.1 373.5 340.7Q376.75 319 376.5 296.7Q376 254.35 382.2 214.75Q383.05 242.75 383.15 271.25Q398.5 267.3 413.95 264.5L419 265.1L417 197.55Q416.7 186.9 421.45 180.25M223.7,197.25L182.9 198.55Q185.6 245.85 184.6 293.1Q183.85 330.05 180.3 366.6Q180.1 368.65 178.6 369.9Q173.15 356.75 174.4 340.4Q178.1 292.5 178.25 244.5Q178.35 221.25 180.9 198.5L139.5 195.25L138.5 185.5L141.05 184.65Q162.65 184.3 184.55 184.85Q204.5 185.35 224.2 185.25L225.15 187.55L225.4 188.25L225.7 189.85L225.8 191.3L225.75 192.8L225.45 194.3L225.2 195.15Q224.65 196.5 223.7 197.25M297.95,284.7Q280.85 280 266.25 289.45Q247.05 302 250.4 325.3Q254.05 350.4 278.2 350.15Q301.45 349.9 309.5 328.6Q318.55 304.75 299.05 290.7L297.95 284.7M304.45,277.45Q312.3 287.2 315.35 299.45Q320.65 320.65 313.15 341.2Q304.9 363.75 281.05 365.8Q254.95 367.9 248.2 343.85Q242.4 323.1 248.45 302.45Q254.5 281.7 271.95 270.95Q277.85 270.05 283.5 270.9Q294.4 272.85 304.45 277.45" />
</g>
</svg>
