<?xml version="1.0" encoding="utf-8"?>
<svg version="1.1" id="Layer_1"
xmlns="http://www.w3.org/2000/svg"
xmlns:xlink="http://www.w3.org/1999/xlink"


xml:space="preserve">
q-5.95 -0.7 -6.2 -1.4q-1.25 1.6 -1.6 4.95q-0.2 39.45 -1 49q-0.7 8.6 -0.7 32.6q0 17.15 1.15 48.75q0 5 -0.75 11.8q-3.65 0 -3.65 4.25q0 3.55 2.1 4.8q2.2 1.35 8.25 1.35q10.9 0 22.05 -9.4q12.35 -10.4 20.65 -29.15q3.05 -6.9 3.75 -16.45q0.45 -11.8 1.3 -19.6q0.65 -6.6 0.65 -15q-2.2 -12.75 -6 -22.15q-5.25 -13.05 -13.15 -18.45q-5.15 -3.55 -8.1 -4.35q10.6 1.15 19.6 4.6q10.1 3.9 12.3 8.7q5.8 12.55 6 13.35q0.55 1.95 2.7 13.3q2.55 11.05 3.35 18.05q0.55 4.75 1.2 17.7q0.7 12.25 0.7 18.75q-0.9 13 -2.4 22.1q-3.5 21.1 -9.75 35.25q-6.3 14.1 -16.15 21.5q-9.55 7.15 -21 7.15q-0.25 0.75 -0.25 -0.25q0 -1.85 0.7 -2.8q0.65 -0.95 0.65 -2.15q-0.1 -0.25 -0.4 0.15q2.05 -13.45 2.75 -21.35q0.8 -9.05 0.8 -20.6q-1.05 -15.5 -2.05 -36.15q-2.1 -41.25 -2.1 -67.35q0 -15.75 0.3 -24.3q0.75 -20.25 1.6 -59.3q1.4 3.25 2.6 3.25q-0.3 -0.7 -2.25 -1.85q-2.9 -1.7 -6.6 -1.7q-4.45 0 -10.35 20.5q-6.05 21.15 -7.6 43.8q-1.1 11.7 -1.1 27.75q0 19.35 5.6 29.1q4.95 8.6 13.4 8.6q6.15 0 10.5 -3.75q5.05 -4.45 5.05 -12.4q0 -3.35 -1.9 -3.35q-1.9 0 -1.9 2.65q0 0.5 0.5 1.2q0 3.3 -3.45 5.9q-4.55 3.4 -13.3 3.4q-7.75 0 -10.95 -14.55q-2.15 -9.65 -2.15 -25q0 -3.8 0.5 -11.85q0.7 -11.4 2 -21.05q7.35 -0.25 9.95 -0.05q2.15 -0.9 2.15 -2.15q0 -1.9 -1.85 -2.7q-1.5 -0.6 -4.7 -0.6q2.45 -29.3 5.05 -42.85q5.45 -28 15.05 -28q1.25 0 2.7 3.25q11.35 0 20.35 42.25q2.9 13.65 5.15 29.65q1.7 12.4 1.7 14.75q0 45.4 -11.6 70.8q-11.3 24.75 -30.9 24.75q-4.6 0 -8.15 -3.85q-4.5 -4.95 -8.35 -16.95q-2.95 -6.35 -3.75 -10.9q-1.2 -6.95 -0.5 -30.75q0 -9.5 1.45 -25.85q2.05 -24 6.05 -40.9q5.95 -25.45 14.6 -34.55q-5.35 0 -10.9 5.4q-6.7 6.5 -10.8 18.75q-6 19.55 -8.8 35.4q-5.1 28.9 -5.1 65.7q0 31.75 6.2 49.55q6.8 19.65 20.4 19.65q9.85 0 19.55 -11.65q8.2 -9.85 13.8 -24.45q3.95 -10.25 6.35 -33.5q1.95 -18.8 1.95 -33.4q0 -8.05 -2.1 -22.3q-2.35 -16.3 -6.15 -30.55q-10.35 -38.6 -24.4 -38.6q0 -1.45 -1 -3q-2.15 0.1 -2.75 0.85q-0.6 0.7 -0.6 3q0 0.7 0.3 1.8q0.4 1.4 0.9 1.4q-2.35 26.85 -2.95 38.4q-0.7 12.7 -1.45 43.25q-0.7 30.05 -0.55 44.7q-3.45 41.3 -3.45 46.95q0 1.25 0.9 2.35q2.9 -19.7 4.05 -34.2q1.5 -24.65 1.05 -37.1q-0.5 -13.3 1.2 -44.5q0.1 -4.95 1.15 -10.45q-0.15 -21.55 0.1 -25.85q1.2 -12.1 2.25 -19.85q15.55 -0.65 27.15 -0.5q2.75 -0.15 3.4 -0.9q0.5 -0.6 0.5 -3q4.05 0 6.9 4.45q2.05 3.25 2.05 4.8q0 4.35 -4.5 6.95q-2.65 1.6 -9.55 4.5q0 -4.25 -3.35 -8.8q-2.85 -3.9 -4.25 -3.9q-0.15 2.4 -4.5 26.75q1.4 -3.45 2.6 -8.5q1.05 -7.05 2.35 -11.9q0.5 -1.8 2.35 -2.1q1.5 -1.45 1.5 -2.95q0 -1.55 -1.25 -5.85q-1.55 -5.45 -6.65 -20.85q3.4 -1.5 6.25 -5.5q3 -4.3 3 -8.4q-0.75 0.55 -0.75 1.8q0 2.7 3.65 16.25q0 0.6 -5.4 12q-5.45 12.2 -5.45 16.7q7.2 -16.6 11.5 -28.15q0.45 -1.2 0.5 -2.5q0 -0.75 2.2 -6.05q0.4 -1.9 -0.35 -2.85q-5.1 7.4 -7.4 14.2q-0.8 2 -2 6.15q-1.9 6.8 -2.95 13.95q-2.05 15.05 -2.05 17.25q2.45 -1.1 3.45 -4q-0.7 0.25 -1.45 1q-0.7 1 -0.8 0.75q1.1 -6.75 1.65 -12.55q0.4 -4.1 0.95 -6.45q0.55 -2.15 -0.65 -3.5q0 1.2 0.85 2.1q1.6 0 6.95 1.65q1.3 0 1.3 -2q0 -3.15 -7.7 -5.05q-7.3 -1.8 -14.3 -0.95q2.45 -9.25 4.45 -31.5q1.85 -23.7 2.75 -31.2q0.5 -3.4 -0.8 -7q-2.3 4.3 -3.4 12.05q-0.7 4.85 -1.1 13.65q-0.95 3.35 -4.65 11.45q-4.3 9.35 -8.35 16.1q-1.2 -1 -2.35 -10.85q-1.65 -13.9 -5.85 -27.55q2.1 8.1 2.9 13.4q1.55 7.85 2.35 10.2q0 4.75 1.4 12.55q1.6 8.95 3.6 12.25q1.5 -1.5 5.05 -6.6q4.35 -6.25 10 -15.5q7 -11.3 8 -13.6q1.9 -4.3 -0.3 -6.85q-6.65 12.35 -11.05 19.65q-6.05 10.05 -11.2 16.35q-1.9 -2.5 -3.3 -12.5q-1.25 -10.6 -1.8 -13q-2.1 6.85 -2.5 8.9q-2.05 9.5 -4.2 16q-4.2 12.75 -9.85 20.05q8.45 -2.15 12.15 -6.9q2.6 -3.3 2.6 -7.25q0 -6.25 -2.9 -9.25q-2.05 -2.15 -4.85 -2.15q-1.15 0 -3.4 1.55q-2.55 1.75 -3.7 3.7q0.2 1.75 1.55 1.8q-1.1 2.45 -2.95 10q-1.95 6.55 -4.5 7.4q-1.8 5.85 -1.8 6.85q1.95 4.35 9.95 28.8q0.15 5.3 0.95 11.65q0.8 6.6 1.9 11q1.25 -1.65 1.25 -2.75q0 -1.15 -0.65 -1.8q-0.75 -0.7 -2.05 -0.5q-0.5 1.2 -2.45 7.8q0 2.45 -2.7 4.7q-2.75 2.3 -8.65 4.75q0.95 -3.75 0.6 -4.8q1.8 0 4.05 2.4q2.2 2.4 2.2 4.4q0 1.05 -1.75 2.1q-0.95 0.55 -3.65 1.7q2.2 -8.65 2.35 -8.65<g id="1492" transform="matrix(1, 0, 0, 1, -3.8, 0)">
<path style="fill:#000000;fill-opacity:1" d="M211.25,44.4Q219.15 49.8 224.4 62.85Q228.2 72.25 230.4 85L234.65 109.05L235.5 121L236.85 148.45L237.15 166.55Q237.15 174.95 236.5 181.55L233.15 211.65Q232.3 219.45 231.85 231.25Q231.15 240.8 228.1 247.7Q219.8 266.45 207.45 276.85Q196.3 286.25 185.4 286.25Q179.35 286.25 177.15 284.9Q175.05 283.65 175.05 280.1Q175.05 275.85 178.7 275.85L182.3 245.35Q183.05 238.55 183.05 233.55L181.8 206.3L180.3 176.85Q179.15 145.25 179.15 128.1Q179.15 104.1 179.85 95.5Q180.65 85.95 180.85 46.5L180.95 42.75Q181.3 39.4 182.55 37.8Q182.8 38.5 188.75 39.2L193.5 39.25L203.15 40.05Q206.1 40.85 211.25 44.4M183.55,44.4Q182.7 83.45 181.95 103.7Q181.65 112.25 181.65 128Q181.65 154.1 183.75 195.35Q184.75 216 185.8 231.5Q185.8 243.05 185 252.1Q184.3 260 182.25 273.45Q182.55 273.05 182.65 273.3Q182.65 274.5 182 275.45Q181.3 276.4 181.3 278.25Q181.3 279.25 181.55 278.5L184.6 278.55Q196.05 278.55 205.6 271.4Q215.45 264 221.75 249.9Q228 235.75 231.5 214.65Q233 205.55 233.9 192.55L234.65 167.65Q234.65 161.15 233.95 148.9L232.4 120.65Q231.75 107.7 231.2 102.95Q230.4 95.95 227.85 84.9Q225.7 73.55 225.15 71.6Q224.95 70.8 219.15 58.25Q216.95 53.45 206.85 49.55Q197.85 46.1 187.25 44.95L187.25 44.4L183.55 44.4M163.9,133.05Q154.3 133.05 148.85 161.05Q146.25 174.6 143.8 203.9L161.25 203Q164.45 203 165.95 203.6Q167.8 204.4 167.8 206.3Q167.8 207.55 165.65 208.45Q163.05 208.25 155.7 208.5L148.1 208.8L143.3 208.35Q142 218 141.3 229.4Q140.8 237.45 140.8 241.25Q140.8 256.6 142.95 266.25Q146.15 280.8 153.9 280.8Q162.65 280.8 167.2 277.4Q170.65 274.8 170.65 271.5L170.15 270.35Q169.65 269.65 169.65 269.15Q169.65 266.5 171.55 266.5Q173.45 266.5 173.45 269.85Q173.45 277.8 168.4 282.25Q164.05 286 157.9 286Q149.45 286 144.5 277.4Q138.9 267.65 138.9 248.3Q138.9 232.25 140 220.55L142.45 193.3Q144 170.65 150.05 149.5Q155.95 129 160.4 129Q164.1 129 167 130.7Q168.95 131.85 169.25 132.55L170.65 138.8L170.4 139.45L169.85 139.5L169.2 139.55Q168 139.55 166.6 136.3Q165.15 133.05 163.9 133.05M271.65,160.6L271.55 161.55L271.2 161.55L271.15 160.35L271.25 159.7L271.3 159.8L271.65 160.6M86.15,46.55L87.4 46.35L88.6 46.35L87.9 46.75L86.15 46.55M82,48.05L78 50.95Q69.35 60.05 63.4 85.5Q59.4 102.4 57.35 126.4Q55.9 142.75 55.9 152.25L56.25 158.05L56.55 164.8Q55.85 188.6 57.05 195.55Q57.85 200.1 60.8 206.45Q64.65 218.45 69.15 223.4Q72.7 227.25 77.3 227.25Q96.9 227.25 108.2 202.5Q119.8 177.1 119.8 131.7Q119.8 129.35 118.1 116.95Q115.85 100.95 112.95 87.3Q103.95 45.05 92.6 45.05L89.95 45L86.4 45.35L82 48.05M113.8,77.7Q117.6 91.95 119.95 108.25Q122.05 122.5 122.05 130.55Q122.05 145.15 120.1 163.95Q117.7 187.2 113.75 197.45Q108.15 212.05 99.95 221.9Q90.25 233.55 80.4 233.55Q66.8 233.55 60 213.9Q53.8 196.1 53.8 164.35Q53.8 127.55 58.9 98.65Q61.7 82.8 67.7 63.25Q71.8 51 78.5 44.5Q84.05 39.1 89.4 39.1Q103.45 39.1 113.8 77.7M62.05,44.3Q61.4 45.05 58.65 45.2Q47.05 45.05 31.5 45.7L30.6 53.05Q29.55 60.8 28.35 72.9L27.25 82.2Q27 86.5 27.15 108.05Q26.1 113.55 26 118.5L26.15 124.3Q24.45 155.5 24.95 168.8Q25.4 181.25 23.9 205.9L21.7 241.3Q20.55 255.8 17.65 275.5L16.45 274.2Q15.55 273.1 15.55 271.85Q15.55 266.2 19 224.9L21.9 192.15L22.75 182.6L22.6 172.75Q22.45 158.1 23.15 128.05Q23.9 97.5 24.6 84.8Q25.2 73.25 27.55 46.4L15.35 47.5L5 47.8Q4.5 47.8 4.1 46.4Q3.8 45.3 3.8 44.6Q3.8 42.3 4.4 41.6Q5 40.85 7.15 40.75L24.95 40.15L38.4 38.9L54.9 38.25L61.55 38.3Q62.55 39.85 62.55 41.3Q62.55 43.7 62.05 44.3M38.2,88.3L36.1 101.05Q43 98.15 45.65 96.55Q50.15 93.95 50.15 89.6Q50.15 88.05 48.1 84.8Q45.25 80.35 41.2 80.35L38.75 80.6L38.2 88.3M48.65,98.4Q45.8 102.4 42.4 103.9Q47.5 119.3 49.05 124.75Q50.3 129.05 50.3 130.6Q50.3 132.1 48.8 133.55L48.6 132.35L44.65 118.35L40.65 104.65L37.3 105.1Q35.45 105.4 34.95 107.2Q33.65 112.05 32.6 119.1Q31.4 124.15 30 127.6L28.3 130.75L28.05 129.5L32.4 104.25Q36.75 79.9 36.9 77.5L44.05 77.3Q45.45 77.3 48.3 81.2Q51.65 85.75 51.65 90Q51.65 94.1 48.65 98.4M144.55,129.8Q145.3 130.75 144.9 132.65L143.35 137.65L139.85 147L136.7 154.7Q134.5 160 134.5 160.75L134.55 163.55Q134.5 164.85 134.05 166.05L133.15 164.1Q128.85 175.65 121.65 192.25L121.1 191.1L121.05 189.35Q121.05 184.85 126.5 172.65Q131.9 161.25 131.9 160.65L128.3 147.55Q124.65 134 124.65 131.3Q124.65 130.05 125.4 129.5L125.85 130.3L133.4 155.95L137.15 144Q139.45 137.2 144.55 129.8M117.9,194.7Q119.1 196.05 118.55 198.2L115.9 207.55Q115.35 209.9 114.95 214Q114.4 219.8 113.3 226.55Q113.4 226.8 114.1 225.8Q114.85 225.05 115.55 224.8L115.25 225.7L114.25 230.25Q113.25 233.15 110.8 234.25L110.55 231.6Q110.55 229.4 112.6 214.35Q113.65 207.2 115.55 200.4Q116.75 196.25 117.55 194.25L117.9 194.7M125.15,206.35Q126.25 198.6 128.55 194.3Q129.85 197.9 129.35 201.3L127.5 212.6Q126.6 220.1 124.75 243.8Q122.75 266.05 120.3 275.3Q127.3 274.45 134.6 276.25Q142.3 278.15 142.3 281.3Q142.3 283.3 141 283.3L134.35 281.7Q129 280.05 127.4 280.05L119.4 281L118.4 280.25Q117.55 279.35 117.55 278.15L122.05 244.4L123.1 233.65L124.05 220Q124.45 211.2 125.15 206.35M90.3,245Q90.85 247.4 92.1 258Q93.5 268 95.4 270.5Q100.55 264.2 106.6 254.15Q111 246.85 117.65 234.5Q119.85 237.05 117.95 241.35Q116.95 243.65 109.95 254.95Q104.3 264.2 99.95 270.45Q96.4 275.55 94.9 277.05Q92.9 273.75 91.3 264.8Q89.9 257 89.9 252.25L83.3 265.2L76.4 278.3Q75.6 275.95 74.05 268.1L71.95 256.75Q71.15 251.45 69.05 243.35L67.15 236.05L67.4 234.4L67.8 231.55L68.7 233.15Q72.9 246.8 74.55 260.7Q75.7 270.55 76.9 271.55Q80.95 264.8 85.25 255.45Q88.95 247.35 89.9 244L90.3 245M58.05,223.05L58.55 225.15L58.8 227.25L57.8 242.15L58.2 253.9Q59.5 253.7 60.25 254.4Q60.9 255.05 60.9 256.2L60.65 257.35L59.8 258.25L58.55 258.1L59.1 262L59.35 265.9L60.9 278.25Q60.9 279.35 59.65 281Q58.55 276.6 57.75 270Q56.95 263.65 56.8 258.35L49.7 261.05L44.9 272.05L38.9 282.3Q30.9 257.85 28.95 253.5L23.5 271.05L20.4 279.8L19.5 278.4L19.05 277.5Q19.05 276.5 20.85 270.65L27.35 249.95L26.15 247.3Q28.7 246.45 30.65 239.9Q32.5 232.35 33.6 229.9L32.35 231.05Q31 231 30.8 229.25Q31.95 227.3 34.5 225.55Q36.75 224 37.9 224Q40.7 224 42.75 226.15Q45.65 229.15 45.65 235.4Q45.65 239.35 43.05 242.65Q39.35 247.4 30.9 249.55L39.05 275.8Q44.7 268.5 48.9 255.75Q51.05 249.25 53.1 239.75Q53.5 237.7 55.6 230.85Q57.55 224.25 58.05 223.05M41.95,230.4Q39.7 228 37.9 228L36.35 228.25L35.5 228.45Q35.85 229.5 34.9 233.25L31.6 244.7L32.8 244.25Q38.7 241.8 41.45 239.5Q44.15 237.25 44.15 234.8Q44.15 232.8 41.95 230.4M53.7,247.2L51.25 256.75Q53.95 255.6 54.9 255.05Q56.65 254 56.65 252.95L56.45 246.55L56.05 238.55Q55.9 238.55 53.7 247.2" />
</g>
</svg>
