<?xml version="1.0" encoding="utf-8"?>
<svg version="1.1" id="Layer_1"
xmlns="http://www.w3.org/2000/svg"
xmlns:xlink="http://www.w3.org/1999/xlink"


xml:space="preserve">
q-8.1 28.15 -7.2 60q1.65 59.45 -5.15 117.75q-6.9 59.45 -12.65 119.15q-1.6 16.9 4.25 29.3q4.75 -46.35 7.5 -92.95q12.65 2.4 25.9 -2.35q-3 59.5 -7.3 119.2q-1 14.15 5.85 21.6q3 -21.95 4.3 -44.9q3.25 -59.1 4.9 -118.55q1.7 -60 -0.95 -118.5q-5.15 9.8 -4.9 22.75q0.95 50 -1.05 99.8q-13.35 1.95 -25.65 6.75q2.8 -59.4 2.3 -118.45q0.75 -1.4 0.15 -2.9q-6.9 57.5 -11.4 115.45q-1.55 2.75 -1.5 6q0.05 2.45 1.25 4.5q-4.35 52.85 -10 105.65q-1.6 15.05 -5.45 29.55q-4.5 17 1.55 29.45q1.75 -1.2 2.25 -3.3q6.45 -28.05 9.05 -56.8q4.65 -51.85 8.1 -103.85q5.9 -2 11.15 -4.6q-0.55 13.4 3.45 27.85q15.85 56.85 29.5 114.1q3.75 15.85 10.15 27.1q1.75 -1.45 1.65 -3.7q-1.5 -27.9 -9.85 -55.15q-17 -55.6 -32.85 -111.25q23.45 -12.8 32.6 -39.5q7.7 -22.65 8.4 -46.35q1.2 -39.65 -38.7 -44.25q-4.15 -0.15 -8.5 1q-0.5 1.8 -0.25 3.65q-9.7 11.45 -14.2 25.65q-15.45 48.8 -0.7 98.35q6.15 20.7 26.2 16q10.7 -2.5 20.25 -7.9q20.7 -11.75 19.7 -30.6q-19.75 16.2 -43 26.1q-4 1.7 -7.25 -0.7q-13.85 -10.15 -17.1 -28.35q-7.2 -40.9 11.55 -77.05q11.45 -21.95 29.8 -10.25q-0.35 -15.05 -15.35 -15.75q-3.95 2.35 -8.1 4.1q-6.2 20.9 -22.4 35.55q-10.5 9.4 -23.75 14.2q24.45 0.1 33.15 22.2q8.3 20.95 1.85 42.8q-5.5 -23.2 -20.2 -41.55q-24.35 -30.3 -60.8 -39.75q-1.45 -0.2 -2.2 1q-1.1 1.75 -1.35 3.75q-32.95 6.85 -49.5 35.75q-20.4 35.7 -24.45 76.8q-5.85 59.75 4.9 118.2q6.1 33.15 31.75 53.6q27.4 21.9 55.75 2.9q52 -34.9 66.25 -94.75q13.95 -58.65 0.05 -117.45q-11.1 -0.5 -22.25 -0.6q-12.45 3.45 -25.75 5.75q-15.85 2.7 -31.85 3.6q-45.25 2.7 -88.85 7.9q-1.15 3.75 0 7.5q19.4 0.5 40.25 -0.7q-2.85 25.1 -2.45 52.3q0.8 59.3 -1.65 118.45q-2.4 59.55 -6.75 119.15q-1.2 16.7 3.95 29.35q4.7 -41.85 6.7 -84.7q2.75 -59.5 2.85 -119.25q2.1 -3.95 0.65 -8.2q-0.35 -0.4 -0.75 -0.4q20.45 34.9 23.4 75.55q4.5 61.55 -29.9 112.2q-9.95 14.65 -21.9 27.85q-25.1 27.7 -59.55 14.8q-13.35 -4.95 -20.95 -16.8q-20.7 -32.25 -23.75 -70.9q-4.8 -60 8.65 -118q12.05 -51.85 63.5 -64.05q27.05 2.95 47.1 22.35q7.95 7.7 13.4 17<g id="1495" transform="matrix(1, 0, 0, 1, -40.35, 0)">
<path style="fill:#000000;fill-opacity:1" d="M500.05,120.65L499.45 121.5Q499.95 180.55 497.15 239.95L496.3 256.75Q508.6 251.95 521.95 250L522.25 250.05Q524.25 200.25 523.3 150.25Q523.05 137.3 528.2 127.5Q530.85 186 529.15 246Q527.5 305.45 524.25 364.55Q522.95 387.5 519.95 409.45Q513.1 402 514.1 387.85Q518.4 328.15 521.4 268.65L521.7 262.6Q508.45 267.35 495.8 264.95Q493.05 311.55 488.3 357.9L479.45 443.95Q473.6 431.55 475.2 414.65Q480.95 354.95 487.85 295.5Q494.65 237.2 493 177.75Q492.1 145.9 500.2 117.75Q500.8 119.25 500.05 120.65M373.9,117.2Q373.65 115.35 374.15 113.55L374.45 113Q378.8 111.85 382.95 112Q422.85 116.6 421.65 156.25Q420.95 179.95 413.25 202.6Q404.1 229.3 380.65 242.1Q396.5 297.75 413.5 353.35Q421.85 380.6 423.35 408.5Q423.45 410.75 421.7 412.2Q415.3 400.95 411.55 385.1Q397.9 327.85 382.05 271Q378.05 256.55 378.6 243.15Q373.35 245.75 367.45 247.75L367.35 247.75Q363.9 299.75 359.25 351.6Q356.65 380.35 350.2 408.4Q349.7 410.5 347.95 411.7Q341.9 399.25 346.4 382.25Q350.25 367.75 351.85 352.7Q357.5 299.9 361.85 247.05L361.7 247Q360.5 244.95 360.45 242.5Q360.4 239.25 361.95 236.5L362.7 236.3L362.85 234.15Q367.35 176.2 374.25 118.7L373.9 117.2M445.05,175.4L446.95 174.25Q461.95 174.95 462.3 190L462.2 190.75Q443.85 179.05 432.4 201Q413.65 237.15 420.85 278.05Q424.1 296.25 437.95 306.4Q441.2 308.8 445.2 307.1Q468.45 297.2 488.2 281Q489.2 299.85 468.5 311.6Q458.95 317 448.25 319.5Q428.2 324.2 422.05 303.5Q407.3 253.95 422.75 205.15Q427.25 190.95 436.95 179.5Q441.1 177.75 445.05 175.4M412.5,141.8Q403.8 119.7 379.35 119.6L368.2 234.35Q381.45 229.55 391.95 220.15Q408.15 205.5 414.35 184.6Q420.8 162.75 412.5 141.8M336.4,318.75Q322.15 378.6 270.15 413.5Q241.8 432.5 214.4 410.6Q188.75 390.15 182.65 357Q171.9 298.55 177.75 238.8Q181.8 197.7 202.2 162Q218.75 133.1 251.7 126.25L251.8 125.5L251.9 124.75Q252.15 122.75 253.25 121Q254 119.8 255.45 120Q291.9 129.45 316.25 159.75Q330.95 178.1 336.45 201.3Q350.35 260.1 336.4 318.75M210.95,96.75L211.35 97.55Q212.8 101.8 210.7 105.75L135.95 114.85L136 230.5Q135.9 290.25 133.15 349.75Q131.15 392.6 126.45 434.45Q121.3 421.8 122.5 405.1Q126.85 345.5 129.25 285.95Q131.7 226.8 130.9 167.5Q130.5 140.3 133.35 115.2L109.85 118.05L82 120.55Q61.15 121.75 41.75 121.25L41.5 120.5Q40.35 116.75 41.5 113Q85.1 107.8 130.35 105.1Q146.35 104.2 162.2 101.5Q175.5 99.2 187.95 95.75Q199.1 95.85 210.2 96.35Q210.6 96.35 210.95 96.75M301.05,157.6Q281 138.2 253.95 135.25Q202.5 147.45 190.45 199.3Q177 257.3 181.8 317.3Q184.85 355.95 205.55 388.2Q213.15 400.05 226.5 405Q260.95 417.9 286.05 390.2Q298 377 307.95 362.35Q342.35 311.7 337.85 250.15Q334.9 209.5 314.45 174.6Q309 165.3 301.05 157.6" />
</g>
</svg>
