<?xml version="1.0" encoding="utf-8"?>
<svg version="1.1" id="Layer_1"
xmlns="http://www.w3.org/2000/svg"
xmlns:xlink="http://www.w3.org/1999/xlink"


xml:space="preserve">
q-1 59.35 -4.25 118.5q-1.7 30 -4.7 59.8q-1.7 16.8 4.2 29.9q0.9 -0.6 1.05 -1.4q4.5 -20.05 5.3 -41.05q1.9 -52.25 4.65 -104.55q27.05 -3.05 53.75 0.6q-6 58.8 -11.15 117.7q-3.2 -2.55 -4.5 -5.25q1.9 13.35 8.5 21.5q5.95 -19.85 7 -41.2q2.75 -55.7 8.1 -111q1.85 -4.3 0.9 -9q5.65 -58.25 4.5 -115.5q-5.95 10.45 -6.2 25q-0.85 43.1 -4.25 85.85q-10.2 -1.7 -21.05 -2.1q-17 0.3 -33.35 4.55q3.25 -60 -0.45 -118.55q-5.9 34.1 -6.5 71.25q4.55 -16.35 3 -33.2q-3.4 -37.2 -20.3 -70.6q-12.25 -24.2 -26.55 -47.15q-12.15 -19.45 -13.8 -42.6q-1.65 -23.5 17 -38.25q23.25 -4.3 40.5 11.75q-4.3 -23.4 -28.15 -25q-21.75 -1.35 -29.55 20.75q-7.35 20.85 -3.35 42.7q3.85 21.15 11.95 40.85q8.35 20.45 21.2 38.35q12.25 17.1 18.05 37.3q5.65 19.65 6.6 39.95q1.1 23.4 -15 38.45q-15.85 14.9 -38 14.35q-21.3 -0.5 -38.65 -12.85q-1.75 -1.25 -3.35 -2.7q-5.95 23.05 24.6 31.85q24.05 7.05 47.55 -1.6q11.05 -4.15 17.9 -13.7q9.1 -12.85 13.25 -27.85q-22.05 3.85 -44.15 6.1q-55.4 5.6 -108.3 22.2q-1.65 5.4 0.65 10.45q4.55 2.85 9.95 1.35q17.7 -5 35.8 -8.05q-0.3 1.95 -0.35 4.15q-1 59.5 -5.15 118.55q-4.2 59.2 -9.65 118.3q-1.6 17.4 4.9 29.85q4.85 -5.1 4.65 -12.75q-1.05 -45.65 3.05 -90.75q2.7 -29.5 4.9 -59.1q4.1 -55 2.25 -109q40 -6.5 79.9 -12.35q5 -9.5 -2.4 -15.15q-0.45 0.25 -0.85 0.65q-15.55 3.65 -21.9 17.95q-12.25 27.75 -15.45 57.9q-4.8 45.5 15.95 85.8q20.1 39.05 61.6 19.4q23.85 -11.3 32.4 -35.9q20.2 -58.15 -3.35 -115.2q-17.15 -41.55 -63.5 -35.95q26.2 -3.1 46.9 13.85q17.9 14.65 22.55 37.65q4.25 21.15 1.85 42.6q-2.05 18.5 -10.7 34.85q-10.25 19.55 -30.9 27.45q-25.3 9.8 -43.25 -9.25q-14.8 -15.65 -18.35 -36.85q-4.2 -25.25 -3 -50.85q0.8 -17.75 8.3 -34.1q7.5 -16.3 21.8 -27.1<g id="1496" transform="matrix(1, 0, 0, 1, -41.2, 0)">
<path style="fill:#000000;fill-opacity:1" d="M386.2,113Q389.9 171.55 386.65 231.55L386.6 233.05Q402.95 228.8 419.95 228.5Q430.8 228.9 441 230.6Q444.4 187.85 445.25 144.75Q445.5 130.2 451.45 119.75Q452.6 177 446.95 235.25Q447.9 239.95 446.05 244.25Q440.7 299.55 437.95 355.25Q436.9 376.6 430.95 396.45Q424.35 388.3 422.45 374.95Q423.75 377.65 426.95 380.2Q432.1 321.3 438.1 262.5L439.7 246.05Q413 242.4 385.95 245.45Q383.2 297.75 381.3 350Q380.5 371 376 391.05Q375.85 391.85 374.95 392.45Q369.05 379.35 370.75 362.55Q373.75 332.75 375.45 302.75Q378.7 243.6 379.7 184.25Q380.3 147.1 386.2 113M334.1,379.65Q327.25 389.2 316.2 393.35Q292.7 402 268.65 394.95Q238.1 386.15 244.05 363.1L246 362.55L246.5 362L247.85 361.25L253.45 362.2L248.95 363.9Q250.55 365.35 252.3 366.6Q269.65 378.95 290.95 379.45Q313.1 380 328.95 365.1Q345.05 350.05 343.95 326.65Q343 306.35 337.35 286.7Q331.55 266.5 319.3 249.4Q306.45 231.5 298.1 211.05Q290 191.35 286.15 170.2Q282.15 148.35 289.5 127.5Q297.3 105.4 319.05 106.75Q342.9 108.35 347.2 131.75Q329.95 115.7 306.7 120Q288.05 134.75 289.7 158.25Q291.35 181.4 303.5 200.85Q317.8 223.8 330.05 248Q346.95 281.4 350.35 318.6Q351.9 335.45 347.35 351.8Q343.2 366.8 334.1 379.65M210.95,94.75Q218.35 100.4 213.35 109.9L212.7 110.75Q172.8 116.6 132.8 123.1Q134.65 177.1 130.55 232.1Q128.35 261.7 125.65 291.2Q121.55 336.3 122.6 381.95Q122.8 389.6 117.95 394.7Q111.45 382.25 113.05 364.85Q118.5 305.75 122.7 246.55Q126.85 187.5 127.85 128Q127.9 125.8 128.2 123.85L89.25 130.3Q71.15 133.35 53.45 138.35Q48.05 139.85 43.5 137Q41.2 131.95 42.85 126.55L43.5 125Q96.4 108.4 151.8 102.8Q173.9 100.55 195.95 96.7L210.95 94.75M194.95,151.5Q241.3 145.9 258.45 187.45Q282 244.5 261.8 302.65Q253.25 327.25 229.4 338.55Q187.9 358.2 167.8 319.15Q147.05 278.85 151.85 233.35Q155.05 203.2 167.3 175.45Q173.65 161.15 189.2 157.5L189.45 156.75L189.7 156L189.95 155.25Q190.35 154.85 190.8 154.6L193.9 152.45L194.95 151.5M189.95,168.5L187.45 168.5Q173.15 179.3 165.65 195.6Q158.15 211.95 157.35 229.7Q156.15 255.3 160.35 280.55Q163.9 301.75 178.7 317.4Q196.65 336.45 221.95 326.65Q242.6 318.75 252.85 299.2Q261.5 282.85 263.55 264.35Q265.95 242.9 261.7 221.75Q257.05 198.75 239.15 184.1Q218.45 167.15 192.25 170.25L189.95 168.5" />
</g>
</svg>
