<?xml version="1.0" encoding="utf-8"?>
<svg version="1.1" id="Layer_1"
xmlns="http://www.w3.org/2000/svg"
xmlns:xlink="http://www.w3.org/1999/xlink"


xml:space="preserve">
q1.75 21 -0.15 41.9q-2.1 22.6 -18.75 37.7q-16.4 14.75 -38.6 15.1q21.5 -9.95 41.25 1.85q17.45 10.45 22.6 31.75q4.8 20.1 6.55 40.75q-5.35 16.4 -4.9 36q1.45 59.2 1.4 118.5q0 59.85 -4.1 119.2q-4.1 59.45 -7.4 119.2q-0.55 10.45 6 13.55q3.8 -24.65 4.5 -50.25q1.65 -59.3 4.9 -118.5q1.25 -23.1 1.9 -46.3q0.4 1.15 1.1 2.2q11.4 1.55 22.85 -0.5q36.35 -6.55 44.2 -41.9q13.05 -58.55 -1.85 -116.9q-10.95 -42.8 -56.7 -39.95q-0.75 0.9 -1.2 1.9q1.3 -17.15 -6 -29.35q-3.6 13.6 -2.1 29.3q4.15 42.85 6.3 86.1q3 59.65 -3.9 118.65q-6.85 58.95 -25.85 115.65q-8.7 26 -32.65 38.3q-20.3 10.45 -35.25 -4.55q-8.35 -8.35 -12.25 -19.35q-15.2 -43.15 -13.1 -90.15q2.65 -59.55 2.9 -119.2q0.25 -59.55 6.4 -118.45q2.45 -23 1.5 -44.3q-5.5 7.25 -6.35 18.1q-4.65 58.45 -6.6 117.15q-2 59.3 -2.2 118.5q-0.1 18.35 -1.5 36.6q-4.15 53.55 17.55 100.45q14.55 31.35 47.45 20.95q14.65 -4.65 22.2 -17.5q28.2 -48.2 37.65 -104.1q9.95 -58.95 9.35 -119.4q-0.55 -59.35 -3.7 -118.5q-0.4 -7.5 0.15 -14.9q-8.4 19.1 -11.65 39.7q-3.45 21.75 -10.75 42.4q-0.8 2.25 -1.45 4.55q-1.85 -43.3 -13.05 -85.05q-0.6 -2.3 -0.85 -4.6q-7.55 9.9 -8.85 22.4q-6.95 66.35 -16.45 132.35q-4.35 30.1 -5.35 59.75q3.85 57.7 1.6 115.6q-1.15 29.7 4.15 59q5.3 -11.75 4.65 -24.55q-4.7 -91.1 -5.25 -182.4q-14.25 -0.85 -27.8 -0.2q-14.35 1 -28.4 4.3q-0.55 3 -0.85 6.2q-0.55 29.75 -3.7 59.05q-9.25 86.15 -2.95 171.6q0.25 3.25 1.45 6.5q6.15 -12.9 3.75 -28q-2 -12.65 -1.5 -25.7q3.5 -72.25 6.05 -144.5q1.75 -50.65 2.85 -101.55q0.75 -34.55 -0.2 -68.95q-4.85 32.6 -6.05 67.05q-0.5 2.2 -0.4 4.5q0.05 0.85 0.25 1.7q-0.65 59.7 -3.2 118.5q0.3 1.7 2 2q5.95 -43.35 6.75 -87.7q7.15 0.5 14.65 -1.2q15.5 56.95 25.3 114.65q2.85 16.75 12.15 27.35q1.4 -1.15 1.15 -2.9q-2.85 -19.25 -7.4 -39q-12 -52.35 -25 -104.75q17.1 -16.8 19.6 -42.15q3.4 -34.15 -28.3 -45.75q-11.7 0.95 -18.5 10.65q-0.35 1.85 -0.05 3.75q0.25 1.65 1.1 3.05q5.7 -3.85 12.2 -2.85q25.35 3.45 25.25 28.6q-0.15 27.65 -23.6 36.3q-7.55 2.7 -15.8 3.85<g id="1503" transform="matrix(1, 0, 0, 1, -38.75, 0)">
<path style="fill:#000000;fill-opacity:1" d="M510.3,129.35Q505.15 108.05 487.7 97.6Q467.95 85.8 446.45 95.75L447.95 264L459.35 264.8Q481.55 264.45 497.95 249.7Q514.6 234.6 516.7 212Q518.6 191.1 516.85 170.1Q515.1 149.45 510.3 129.35M445.25,85.15Q445.7 84.15 446.45 83.25L446.95 83L457.45 79.2L457.95 79Q503.7 76.15 514.65 118.95Q529.55 177.3 516.5 235.85Q508.65 271.2 472.3 277.75Q460.85 279.8 449.45 278.25L448.6 277.35Q447.9 276.3 447.5 275.15Q446.85 298.35 445.6 321.45Q442.35 380.65 440.7 439.95Q440 465.55 436.2 490.2Q429.65 487.1 430.2 476.65Q433.5 416.9 437.6 357.45Q441.7 298.1 441.7 238.25Q441.75 178.95 440.3 119.75Q439.85 100.15 445.2 83.75L445.25 85.15M365.3,132Q368.45 191.15 369 250.5Q369.6 310.95 359.65 369.9Q350.2 425.8 322 474Q314.45 486.85 299.8 491.5Q266.9 501.9 252.35 470.55Q230.65 423.65 234.8 370.1Q236.2 351.85 236.3 333.5Q236.5 274.3 238.5 215Q240.45 156.3 245.1 97.85Q245.95 87 251.45 79.75Q252.4 101.05 249.95 124.05Q243.8 182.95 243.55 242.5Q243.3 302.15 240.65 361.7Q238.55 408.7 253.75 451.85Q257.65 462.85 266 471.2Q280.95 486.2 301.25 475.75Q325.2 463.45 333.9 437.45Q352.9 380.75 359.75 321.8Q366.65 262.8 363.65 203.15Q361.5 159.9 357.35 117.05Q355.85 101.35 359.45 87.75Q366.75 99.95 365.45 117.1Q364.9 124.5 365.3 132M419.35,290.5Q419.9 381.8 424.6 472.9Q425.25 485.7 419.95 497.45Q414.65 468.15 415.8 438.45Q418.05 380.55 414.2 322.85L397.45 387.45L395.65 383.15L394.25 387.25L382.2 289.85L353.2 489.45L350.8 489.5Q351.8 459.85 356.15 429.75Q365.65 363.75 372.6 297.4Q373.9 284.9 381.45 275Q381.7 277.3 382.3 279.6Q393.5 321.35 395.35 364.65Q396 362.35 396.8 360.1Q404.1 339.45 407.55 317.7Q410.8 297.1 419.2 278L419.35 290.5M189.85,72.85L215.45 73.05L215.95 73.25L215.95 80.75L127.45 82.75Q128.4 117.15 127.65 151.7Q126.55 202.6 124.8 253.25Q122.25 325.5 118.75 397.75L117.7 423.75Q117.2 436.8 119.2 449.45Q121.6 464.55 115.45 477.45Q114.25 474.2 114 470.95Q107.7 385.5 116.95 299.35Q120.1 270.05 120.65 240.3L122.7 121.05L123.3 91.25L123.4 89.05Q123.7 85.85 124.25 82.85L38.75 83.95L38.75 78Q52.8 74.7 67.15 73.7L110.9 71.6Q124.45 70.95 138.7 71.8L164.25 72.75L189.85 72.85M150.45,285.75Q149.6 284.35 149.35 282.7Q149.05 280.8 149.4 278.95L149.45 278.25Q156.25 268.55 167.95 267.6L167.95 267.5Q199.65 279.1 196.25 313.25Q193.75 338.6 176.65 355.4L174.45 357.3Q187.45 409.7 199.45 462.05Q204 481.8 206.85 501.05Q207.1 502.8 205.7 503.95Q196.4 493.35 193.55 476.6Q183.75 418.9 168.25 361.95L167.95 360.7L165.75 361.3Q158.25 363 151.1 362.5L150.55 399.7Q149.75 444.05 143.8 487.4L142.95 488.7Q141.25 488.4 140.95 486.7Q143.5 427.9 144.15 368.2L144.35 358.95Q144.15 358.1 144.1 357.25Q144 354.95 144.5 352.75Q145.7 318.3 150.55 285.7L150.45 285.75M151.25,285.15L151.2 349.75Q159.45 348.6 167 345.9Q190.45 337.25 190.6 309.6Q190.7 284.45 165.35 281Q158.85 280 153.15 283.85L151.25 285.15" />
</g>
</svg>
