<?xml version="1.0" encoding="utf-8"?>
<svg version="1.1" id="Layer_1"
xmlns="http://www.w3.org/2000/svg"
xmlns:xlink="http://www.w3.org/1999/xlink"


xml:space="preserve">
q-21.2 6.85 -27.2 29.4q-5.75 21.4 2.4 42.2q7.8 19.7 19.2 37.65q11.5 18.15 18.05 38.15q6.75 20.75 -2.2 40.65q-11.4 25.3 -31.3 13.85q-3.1 -1.8 -5.95 -3.9q-6.15 10.25 0.45 21.9q6.35 11.15 18.8 14.7q19.8 -11.6 28 -32.85q6.3 -16.3 4.05 -33.65q-1.65 -12.7 -5.8 -24.75q-4.8 -13.95 -13.1 -26.2q-19.8 -29.4 -25.65 -64.15q-2.7 -15.9 10.7 -24.2q8 -5.05 17.8 -5.9q3.5 -14.5 -8.5 -22.55q-5.5 -3.75 -12.25 -4.7q-9.25 47.25 -12.35 95.85q-15.55 -0.2 -30.6 2.2q2.9 -56.8 0.05 -112.4q-6.2 45.1 -7.4 93.25q-1.45 59.6 -7.5 118.35q-1.45 14.15 5.65 21.6q4.9 -27.8 6.1 -56.95q1 -25.6 2.4 -51.3q15.35 1.55 30.25 0.65q-3.05 45.85 -6.5 91.6q-0.75 -2.3 -1.9 -4.45q-0.25 0.4 -0.2 0.75q0.2 1.55 0.7 3q-1.05 12.25 4.5 21.5q0.9 -0.6 1.05 -1.35q6.7 -34.6 8.7 -70.3q3.3 -59.35 8.85 -118.4q2.15 -23 0.9 -44.4q-1.45 -0.25 -1.7 1.05q-4.7 -39.35 -10.8 -78.55q-9 -58.35 -18.95 -116.2q-17.25 45.3 -26.65 95.2q-1.6 8.55 -3.95 16.8q-6.25 -59 -19.15 -116.25q-3.1 7.85 -3.2 17.05q-0.1 -7.45 -0.8 -14.8q-0.75 0.1 -0.8 0.35q-5.85 33.9 -13.1 68.05q-12.4 58.15 -24.35 116.45q-1.55 7.5 -4.45 14.35q-6 14.1 4.2 21.25q1.4 -1.15 1.8 -2.95q12.15 -57.8 23.9 -115.5q4.25 -21.05 4.2 -41.5q0.2 6 1.6 12.6q9.4 42.9 12.4 86.75q1.1 16.1 6.7 28.95q0.5 2.2 1.25 4.4q2.2 -0.95 2.6 -3.55q9.05 -58.2 25.1 -115.2q5.15 27.65 9.25 55.55q8.55 58.35 13.5 117.25q1.4 17 9.4 28.65q6.6 -12.15 0.5 -26.7q-5.15 25.55 -4.1 53.35q1.1 28.85 -1.8 57.1q-4.55 44.6 -39.1 71.9q-3.5 -3.75 -5.25 -8.55q-4.15 -10.9 -4.9 -22.85q-3.8 -58.9 3.5 -117.65q2.05 -16.5 -3.85 -28.7q-8.1 49.4 -7.2 101.25q0.3 18.05 -0.7 35.85q-1.9 32.9 16.65 57.85q3 2.05 6.25 1q32.15 -22.95 39.9 -61.85q11.1 -56 8.45 -114.1q-0.9 -2.85 0.85 -5.55q1.6 -10.25 -3.35 -18q-0.9 -0.15 -1 0.4q-2.3 6.1 0.2 12q29.05 -3.05 58.15 -7.35q-4 31.15 -5.8 63.05q-3.35 58.7 -4.6 117.8q-3.95 4.8 -0.25 6.75q0.15 3.45 1.15 6.75q1.05 2.65 3.75 2q4.45 -13.05 4.45 -27.75q-0.2 -59.4 4.2 -118.5q1.95 -26.2 -0.35 -51.25q26.05 -4 52.15 -9q5.25 -8.65 -0.6 -16.4q-56.55 9.8 -112.7 21<g id="1514" transform="matrix(1, 0, 0, 1, -36, 0)">
<path style="fill:#000000;fill-opacity:1" d="M391.2,135.45Q403.2 143.5 399.7 158L385.95 145.5Q376.15 146.35 368.15 151.4Q354.75 159.7 357.45 175.6Q363.3 210.35 383.1 239.75Q391.4 252 396.2 265.95Q400.35 278 402 290.7Q404.25 308.05 397.95 324.35Q389.75 345.6 369.95 357.2L364.45 355.85Q352 352.3 345.65 341.15Q339.05 329.5 345.2 319.25L350.2 321.25L351.95 328.75Q354.8 330.85 357.9 332.65Q377.8 344.1 389.2 318.8Q398.15 298.9 391.4 278.15Q384.85 258.15 373.35 240Q361.95 222.05 354.15 202.35Q346 181.55 351.75 160.15Q357.75 137.6 378.95 130.75Q385.7 131.7 391.2 135.45M473.45,133.25Q474.7 154.65 472.55 177.65Q467 236.7 463.7 296.05Q461.7 331.75 455 366.35Q454.85 367.1 453.95 367.7Q448.4 358.45 449.45 346.2Q448.95 344.75 448.75 343.2Q448.7 342.85 448.95 342.45Q450.1 344.6 450.85 346.9L451.2 347.45Q454.65 301.7 457.7 255.85Q442.8 256.75 427.45 255.2Q426.05 280.9 425.05 306.5Q423.85 335.65 418.95 363.45Q411.85 356 413.3 341.85Q419.35 283.1 420.8 223.5Q422 175.35 428.2 130.25Q431.05 185.85 428.15 242.65Q443.2 240.25 458.75 240.45L459.4 230.15Q462.5 181.55 471.75 134.3Q472 133 473.45 133.25M331.45,325.5Q337.55 340.05 330.95 352.2Q322.95 340.55 321.55 323.55Q316.6 264.65 308.05 206.3Q303.95 178.4 298.8 150.75L297.65 155.25Q281.6 212.25 272.55 270.45Q272.15 273.05 269.95 274Q269.2 271.8 268.7 269.6L266.95 273.75Q261.35 260.9 260.25 244.8Q257.25 200.95 247.85 158.05Q246.45 151.45 246.25 145.45Q246.3 165.9 242.05 186.95Q230.3 244.65 218.15 302.45L208.75 345.75Q208.35 347.55 206.95 348.7Q196.75 341.55 202.75 327.45Q205.65 320.6 207.2 313.1Q219.15 254.8 231.55 196.65Q238.8 162.5 244.65 128.6Q244.7 128.35 245.45 128.25Q246.15 135.6 246.25 143.05Q246.35 133.85 249.45 126Q262.35 183.25 268.6 242.25L268.65 242.6L269.85 237.75Q272.2 229.5 273.8 220.95Q283.2 171.05 300.45 125.75L300.75 129.35L301.45 128.25Q311.4 186.1 320.4 244.45Q326.5 283.65 331.2 323L332.85 320.2L333.3 322.4L331.45 325.5M202.45,145Q207.4 152.75 205.8 163L205.7 163.75L206.65 164.2Q204.9 166.9 205.8 169.75Q208.45 227.85 197.35 283.85Q189.6 322.75 157.45 345.7Q154.2 346.75 151.2 344.7Q132.65 319.75 134.55 286.85Q135.55 269.05 135.25 251Q134.35 199.15 142.45 149.75Q148.35 161.95 146.3 178.45Q139 237.2 142.8 296.1Q143.55 308.05 147.7 318.95Q149.45 323.75 152.95 327.5L156.45 327.75Q191 300.45 195.55 255.85Q198.45 227.6 197.35 198.75Q196.3 170.95 201.45 145.4Q201.55 144.85 202.45 145M38.75,139.5Q94.9 128.3 151.45 118.5Q157.3 126.25 152.05 134.9L151.45 135.5Q125.35 140.5 99.3 144.5Q101.6 169.55 99.65 195.75Q95.25 254.85 95.45 314.25Q95.45 328.95 91 342Q88.3 342.65 87.25 340Q86.25 336.7 86.1 333.25L86 332.5Q82.3 330.55 86.25 325.75Q87.5 266.65 90.85 207.95Q92.65 176.05 96.65 144.9Q67.55 149.2 38.5 152.25Q36 146.35 38.3 140.25L38.75 139.5" />
</g>
</svg>
