<?xml version="1.0" encoding="utf-8"?>
<svg version="1.1" id="Layer_1"
xmlns="http://www.w3.org/2000/svg"
xmlns:xlink="http://www.w3.org/1999/xlink"


xml:space="preserve">
q1.85 -14.3 2.45 -28.7q-19.05 59.5 -27.6 123.7q-0.75 5.55 -2.1 10.9q-3 8 -5.3 16.3q-5.05 18.1 5.5 41.3q8.35 18.4 13.7 38.1q3.6 14.15 6.05 28.55q3.6 21.6 13.05 40.45q2.45 4.95 4.6 6.35q13.3 -31 19.55 -72.2q5 -32.75 11.3 -65.25q-48.05 4.35 -95.45 4q-0.8 3.05 0.15 6q23.6 3.9 47.65 4q-3.15 56 -1.1 112.5q1.1 30.6 3.7 58.95q5.3 -26.9 3.95 -56.05q23.3 0.05 47.05 -3.5q2.85 -5.45 -0.5 -10.45q-1.05 12.65 -1.95 25.45q-2.05 29 4.75 56.05q3.85 15.2 19.75 13.15q36.8 -4.7 45.3 -39.9q3.9 -16.05 3.15 -32.75q-0.65 -14.75 -7.3 -23.7q-3.4 16.7 -0.5 34.6q1.75 10.65 -2.8 20.15q-15 31.35 -49.2 26.5q-1.35 -1.55 -2.15 -3.35q-8.05 -18.35 -6.05 -39.5q2.1 -22.1 -0.05 -42.65q-2.6 1.85 -2.95 5.95<g id="1505" transform="matrix(1, 0, 0, 1, -138.8, 0)">
<path style="fill:#000000;fill-opacity:1" d="M415.25,230.1Q408.95 262.6 403.95 295.35Q397.7 336.55 384.4 367.55Q382.25 366.15 379.8 361.2Q370.35 342.35 366.75 320.75Q364.3 306.35 360.7 292.2L353.4 264.65Q348.05 244.95 339.7 226.55Q329.15 203.35 334.2 185.25L383.1 341.1Q385.4 332.8 388.4 324.8L389.55 321.25L391.5 314.1Q392.85 308.75 393.6 303.2Q402.15 239 421.2 179.5Q420.6 193.9 418.75 208.2L417.75 215.5L415.25 230.1M235.95,192.95L235.45 193.75Q211.7 197.3 188.4 197.25L193.95 312.65Q195.3 341.8 190 368.7Q187.4 340.35 186.3 309.75Q184.25 253.25 187.4 197.25Q163.35 197.15 139.75 193.25Q138.8 190.3 139.6 187.25L140 186.5Q187.4 186.85 235.45 182.5Q238.8 187.5 235.95 192.95M249.2,268.7Q251.35 289.25 249.25 311.35Q247.25 332.5 255.3 350.85Q256.1 352.65 257.45 354.2Q291.65 359.05 306.65 327.7Q311.2 318.2 309.45 307.55Q306.55 289.65 309.95 272.95Q316.6 281.9 317.25 296.65Q318 313.35 314.1 329.4Q305.6 364.6 268.8 369.3Q252.9 371.35 249.05 356.15Q242.25 329.1 244.3 300.1Q245.2 287.3 246.25 274.65Q246.6 270.55 249.2 268.7" />
</g>
</svg>
