<?xml version="1.0" encoding="utf-8"?>
<svg version="1.1" id="Layer_1"
xmlns="http://www.w3.org/2000/svg"
xmlns:xlink="http://www.w3.org/1999/xlink"


xml:space="preserve">
q0 -1.4 -1.9 -4.6q-2.05 -3.55 -5.1 -6.8q-8.2 -8.9 -16.65 -8.9q-6.8 0 -13.85 8.45q-8.5 10.3 -8.5 25.75q0 4.3 3.3 14.55q5.2 15.45 13 35.9q6.1 16 6.85 19.3q6.6 27.95 10.95 56.1q3.4 22.35 3.4 29.55q0 12.85 -3.65 31.05q-4 20.05 -9.85 32.25q-6.35 13.25 -16.45 19.25q-9.35 5.5 -23.15 5.5q-6.85 0 -12 -12q-1.6 -3.85 -2.85 -8.4q-0.9 -3.4 -0.9 -4.05q1.85 -5.45 2.6 -6.35q0.65 -0.85 3.35 -1.25q2.85 -1.95 4.75 -5.7q2.85 -5.65 2.85 -14.45q0 -3.2 -0.7 -10.6q-0.75 -7.45 -1.15 -8.4q-0.85 0.85 -0.85 2.35q0 2.15 0.65 6.3q0.65 4.1 0.65 7.9q0 10.8 -4.9 15.75q-3.7 3.7 -9.8 3.7q-6.85 0 -6.85 -10.9q0 -15.45 3.5 -23.6q-2.65 3.3 -4.15 15.8q-0.75 6.25 -1 12q0 4.8 1.9 8.2q2.75 4.95 8.9 4.55q-1.3 3.25 -2.8 3.25q-1.35 1.55 -1.35 4.7q0 15.95 8.3 24.7q7 7.35 17 7.35q28.1 0 41.25 -43.6q4.4 -14.55 6.6 -32.35q1.45 -12.05 1.45 -19.7q0 -13.3 -4.1 -40.1q-4.4 -28.5 -10.3 -50.6q-2.45 -9.15 -19.7 -53.75q-15.5 -40.05 -15.5 -45.6q0 -15.55 8.9 -23.1q6.35 -5.45 14.7 -5.45q5.2 0 10.3 4.75q5.2 4.85 8.2 12.75q1.65 -1.75 1.65 -2.95q-0.1 -1.45 -1.6 -2.8q-2.9 -2.7 -9.6 -2.7q-16.05 0 -16.05 22.65q0 9.05 4.1 14.5q3.85 5.2 9.75 5.2q5.75 0 9.7 -4.55q1.35 -1.2 2.2 -6.8q0 -2.1 -0.55 -2.5q-0.65 -0.5 -4.05 -0.5q-3.95 0 -6.05 0.95q-1.75 0.75 -1.75 1.95q0 1.4 0.8 2.55q0.9 -0.6 1.75 -1.25q-8.45 5.1 -11.75 5.1q-3.85 0 -7.35 -3.5q-4.25 -4.25 -4.25 -11.15q0 -8.3 3.6 -13.15q3.75 -5 10.5 -5q0 1.65 -3.15 7.8q-3.05 6 -4.4 7.35q-1.85 3.15 -8.35 5.65q-5.95 2.3 -12.4 2.85q2.3 -15.7 2.7 -20.4q0.7 -7.7 0 -15.15q8.05 0 13.8 6.15q4.35 4.6 4.35 6.9q-7.35 -6.45 -17.35 -6.45q-3.85 0 -4.45 3.95q-0.45 2.7 -1.4 12.85q-0.35 2 -1.2 10.65q-0.25 3.2 -0.9 3.65q-0.6 0.4 -0.6 1.1q0.9 1.45 1.15 1.45q12.15 0 20.95 -6.9q10.45 -8.1 10.45 -22.5q0 -5.35 -6.4 -10.95q-1.85 -2 -3.45 -2.7q-4.05 -0.2 -5.35 -1.45q-0.1 0.85 -0.85 1.35q-0.3 0.3 -0.3 1.35q0.45 3.25 -0.55 3.25q-0.65 0 -0.8 0.65q0.4 0.6 0.4 1.1q0.2 -0.4 0.7 -0.4q11.65 0 16.95 -2.5q4.8 -2.25 4.8 -6.7q0 -5.35 -0.75 -6.9q-1.2 -2.55 -6.05 -3.95q2.3 -2.55 2.6 -3.85q0.3 -1.4 -0.3 -7.55q-0.25 -0.8 -1.8 -2.5q2.75 0.3 4.25 1.9q1.35 1.45 1.35 3.3q0 3.75 -6.9 5.05q-8.9 1 -13.05 2.05q0.85 1.6 2.35 1.75q0.5 -5 0.7 -11.85q8.5 0.3 11.05 1.3q2.9 1.15 2.9 4.55q0 2.6 -2.1 3.95q-2.2 1.4 -7.5 2.05q-3.8 8.05 -3.8 10.4q6.25 -6.2 12.5 -20.45q0.25 4.45 3.05 36.6q8.55 -13.35 10.3 -18.8q1.4 -7 4.7 -16.15q1.2 3.85 4.65 18.15q3.75 13.5 7.6 18.55q0.75 -1.2 0.75 -2.55q0 -1.55 -2.85 -9.85q-5.05 -14.8 -10.05 -31.55q-1.1 2.7 -5.5 17.5q-4.65 14.2 -8.1 17.75q-0.65 -13.2 -1.25 -19.9q-1.05 -11.75 -3.15 -16.9q0 9.7 -3.15 66.15q-0.25 16 -1.15 24.6q-2.25 22.1 -11.85 22.1q-7.55 0 -11.15 -22.2q-2.9 -18.15 -3.2 -52.05q-1.6 -36.8 -1.6 -58q0 -7.25 1.25 -21.95q1.25 -14.7 1.25 -21.75q-1.95 15.85 -2.45 26.1q-0.3 6 -0.3 21.25q0 26.4 1.8 68.9q1 21.65 2.8 30.2q3.45 16.7 12.05 16.7q8.35 0 12.15 -19q3.7 -18.5 3.6 -58q0.45 -12.85 0.5 -58.9q0 -4.8 -1.2 -7.5q-0.55 1.85 -1.25 6.85q-0.35 2.4 -2.25 3.45q-0.65 0 -0.8 0.8q-0.65 5.8 -0.35 21.4q0 7.8 -1.3 46.15q-1.35 38.3 -1.35 47.95q0.75 17.35 0.75 32.4q0 43.5 -2 64.8q-2 21.3 -2 36.75q0 5.5 0.65 8.2q1.5 -1.7 3.4 -11.55q0 -6.9 1.95 -31.4q1.95 -24.45 1.95 -64.85q0 -16.2 -0.75 -34.55q0 -10.65 0.5 -22.9q0 -38.15 -0.85 -54.5q7.45 -0.8 17.7 -0.45q6.55 -0.15 6.55 -3.85q0 -2.05 -1.55 -2.05q-1.4 22.45 -1.4 63.85q0.1 5.15 1 3q1.4 -10.25 2.25 -25.45q0.5 7.5 6.25 42.1q0 -2.65 -2.65 -20.6q-2.65 -18 -2.65 -19.2q0 -0.15 3.5 -2.15q4.4 -2.45 7.8 -8q1.05 -1.65 1.95 -5.95q0.9 -4.15 0.9 -7q0 -10.25 -5.7 -14.4q-5.05 -3.7 -16.05 -3.6q10.95 1.05 15.1 5.65q2.9 3.15 2.9 8.8q0 7.95 -6.65 13.5q-1.85 1.5 -12.45 7.5q1.3 -27 1.1 -35.45q-1 15.65 -5.25 48.95q-3.9 30.85 -3.9 32.7q0 0.7 0.35 1.65q3.3 -5.9 4.95 -20.9q0.95 -6.8 2.15 -21.1q1.55 -32.85 2.45 -48.25q0.25 2.15 0.95 3.75q1.65 -3.25 1.6 -5q-0.35 -6.4 -0.35 -22.95q-0.65 2 -0.95 13.75q-0.3 12.55 0.45 19.7q-0.1 6.8 -0.5 9.05q-0.4 7 -0.5 39.7q-0.65 -1.75 -0.4 -0.05q-4.15 -30.8 -16.85 -87.6q-13.35 -57.3 -16.5 -72.7q-1.5 5.05 -3.2 35.6q0 -2.1 -2.7 -4.5q-2.65 -2.45 -5 -2.45q-4.2 0 -8.35 9.7q-4.3 10.15 -4.3 21.65q0 6.1 2.7 9.35q2.75 3.35 8.15 3.35q0.2 1.6 0.75 2.45q3.4 -8.65 3.4 -9.2q-0.6 -1 -0.5 -2.4q0.25 -2.45 -0.2 -4.3q-0.35 -1.35 -1.1 -2.25q-1 -1.15 -2.35 -1.15q-1.95 0 -3 0.95q-0.7 0.7 -0.7 1.35q0 4.95 -0.95 6.2q-1.65 2.25 -8.1 2.25q-2.7 0 -4.6 -1.95q-2.1 -2.15 -2.1 -5.75q0 -4.2 1.55 -11.4q2.15 -9.85 5.6 -13.6q3.55 -3.9 6.6 -1.55q1.1 1.2 1.8 1.2q0.7 0 0.8 -0.3q-3.15 6.3 -6.25 20.9q-0.2 3.8 -1.5 14q-1.15 9 -1.15 14.4q0 14.15 4.9 21.95q4.95 7.8 13.85 7.8q8.75 0 13.8 -11.85q5.1 -11.85 5.1 -32.15q0 -6.45 -1.6 -11q-2.2 -6.45 -2.8 -9.9q-1.7 -10.25 -5.35 -15.1q-4.05 -5.4 -11.4 -5.4q-4.4 0 -7.6 6.35q0 14.6 6.95 20q3.5 2.75 7.05 2.55q9.05 0 13.85 -9.8q4.55 -9.2 4.55 -25.4q0 -3.5 -3.5 -15.55q-3.65 -12.45 -5.8 -15.1q-2.55 -3.8 -3.7 -5.05q-1.85 -2.1 -4.9 -2.1q-5.05 0 -9.5 13.4q-5 15.1 -5 37.05q-4.6 1.95 -5 2.4q-7.1 7.55 -9.3 14.3q-0.95 2.95 -0.95 7.2q0 7.9 2.15 11.05q4.4 6.5 18.7 6.5q5.05 0 9.05 -4q3.45 -3.4 3.45 -6.1q0 -1.3 -0.65 -2.7q-0.85 1.65 -2.35 2.7q-4.1 2.85 -15.4 2.85q-3.4 0 -6.85 -2.25q-4.5 -2.95 -4.5 -7.95q0.75 -1.05 0.75 -2.25q0 -0.95 -0.75 -2.25q3.75 -7.95 6.5 -11.3q4.55 -5.55 10.2 -5.55q0 -1.15 -0.65 -1.85q-1.3 -1.15 -5.25 -0.6q-0.6 0.05 -5.1 2<g id="1511" transform="matrix(1, 0, 0, 1, 0.85, 1.45)">
<path style="fill:#000000;fill-opacity:1" d="M232.65,21.8Q229.65 13.9 224.45 9.05Q219.35 4.3 214.15 4.3Q205.8 4.3 199.45 9.75Q190.55 17.3 190.55 32.85Q190.55 38.4 206.05 78.45Q223.3 123.05 225.75 132.2Q231.65 154.3 236.05 182.8Q240.15 209.6 240.15 222.9Q240.15 230.55 238.7 242.6Q236.5 260.4 232.1 274.95Q218.95 318.55 190.85 318.55Q180.85 318.55 173.85 311.2Q165.55 302.45 165.55 286.5Q165.55 283.35 166.9 281.8L168.4 283.05Q169.9 283.05 171.2 279.8Q165.05 280.2 162.3 275.25Q160.4 271.85 160.4 267.05Q160.65 261.3 161.4 255.05Q162.9 242.55 165.55 239.25L165.8 240.5Q162.3 248.65 162.3 264.1Q162.3 275 169.15 275Q175.25 275 178.95 271.3Q183.85 266.35 183.85 255.55Q183.85 251.75 183.2 247.65Q182.55 243.5 182.55 241.35Q182.55 239.85 183.4 239L183.7 239.35Q184.1 240.3 184.85 247.75Q185.55 255.15 185.55 258.35Q185.55 267.15 182.7 272.8Q180.8 276.55 177.95 278.5L174.75 279.2Q172.05 279.6 171.4 280.45Q170.65 281.35 168.8 286.8Q168.8 287.45 169.7 290.85Q170.95 295.4 172.55 299.25Q177.7 311.25 184.55 311.25Q198.35 311.25 207.7 305.75Q217.8 299.75 224.15 286.5Q230 274.3 234 254.25Q237.65 236.05 237.65 223.2Q237.65 216 234.25 193.65Q229.9 165.5 223.3 137.55Q222.55 134.25 216.45 118.25Q208.65 97.8 203.45 82.35L191.6 47.3Q188.3 37.05 188.3 32.75Q188.3 17.3 196.8 7Q203.85 -1.45 210.65 -1.45Q219.1 -1.45 227.3 7.45Q230.35 10.7 232.4 14.25Q234.3 17.45 234.3 18.85Q234.3 20.05 232.65 21.8M168.75,46.6L163.3 45.7L157.4 45.25Q150.65 45.25 146.9 50.25Q143.3 55.1 143.3 63.4Q143.3 70.3 147.55 74.55Q151.05 78.05 154.9 78.05Q158.2 78.05 166.65 72.95L166.65 70.55L158.8 70.55Q157.95 71.2 157.05 71.8Q156.25 70.65 156.25 69.25Q156.25 68.05 158 67.3Q160.1 66.35 164.05 66.35Q167.45 66.35 168.1 66.85Q168.65 67.25 168.65 69.35L168 75.75Q167.15 81.35 165.8 82.55L165.55 79.9L165.9 77.3L165.1 78.25Q161.15 82.8 155.4 82.8Q149.5 82.8 145.65 77.6Q141.55 72.15 141.55 63.1Q141.55 40.45 157.6 40.45Q164.3 40.45 167.2 43.15Q168.7 44.5 168.8 45.95L168.75 46.6M174.2,127.45Q168.45 121.3 160.4 121.3L152.95 122.45Q153.65 129.9 152.95 137.6Q152.55 142.3 150.25 158Q156.7 157.45 162.65 155.15Q169.15 152.65 171 149.5Q172.35 148.15 175.4 142.15Q178.55 136 178.55 134.35Q178.55 132.05 174.2 127.45M180.3,133.85Q180.3 148.25 169.85 156.35Q161.05 163.25 148.9 163.25Q148.65 163.25 147.75 161.8L146.9 160Q146.9 159.3 147.5 158.9Q148.15 158.45 148.4 155.25L149.5 143.9Q150.35 135.25 150.7 133.25Q151.65 123.1 152.1 120.4Q152.7 116.45 156.55 116.45Q166.55 116.45 173.9 122.9Q180.3 128.5 180.3 133.85M134.15,8.05Q134.75 14.2 134.45 15.6Q134.15 16.9 131.85 19.45Q136.7 20.85 137.9 23.4Q138.65 24.95 138.65 30.3Q138.65 34.75 133.85 37Q128.55 39.5 116.9 39.5Q116.4 39.5 116.2 39.9L115.45 40.25L114.9 40.2L115 40.15L114.9 38.9L115.85 21.55Q115.85 21.05 115.45 20.45L115.05 19.3L115.1 17.9Q115.25 17.25 115.9 17.25Q116.9 17.25 116.45 14L117.2 5.75L115.8 4Q115.8 2.95 116.1 2.65L117.05 2.1Q117.8 1.6 117.9 0.75Q119.2 2 123.25 2.2L128.9 2.85Q130.5 3.55 132.35 5.55Q133.9 7.25 134.15 8.05M126.85,21.35L121.2 21.65L118.15 21.65L117.2 35.35Q121.35 34.3 130.25 33.3Q137.15 32 137.15 28.25Q137.15 26.4 135.8 24.95Q134.3 23.35 131.55 23.05L129.2 23.1Q127.7 22.95 126.85 21.35M131.05,15.5Q133.15 14.15 133.15 11.55Q133.15 8.15 130.25 7Q127.7 6 119.2 5.7Q119 12.55 118.5 17.55L123.55 17.55Q128.85 16.9 131.05 15.5M113.05,94.4Q113.65 101.1 114.3 114.3Q117.75 110.75 122.4 96.55Q126.8 81.75 127.9 79.05Q132.9 95.8 137.95 110.6Q140.8 118.9 140.8 120.45Q140.8 121.8 140.05 123Q136.2 117.95 132.45 104.45Q129 90.15 127.8 86.3Q124.5 95.45 123.1 102.45Q121.35 107.9 112.8 121.25L112.7 120.4Q109.9 88.25 109.65 83.8L102.55 101.85Q96.3 116.1 90.05 122.3L89.95 122L89.9 121Q89.9 118.65 93.7 110.6L109.9 77.5Q112 82.65 113.05 94.4M64.9,9.3L63.4 10.55L63.15 10.3Q65.05 9.25 65.4 6.85Q66.1 1.85 66.65 0L67.1 0.4Q68.3 3.1 68.3 7.9L67.75 28.65L66.9 47.5L66.7 47.5L64.3 90.75Q64.25 136.8 63.8 149.65L63.15 162Q63.25 201.5 59.55 220Q55.75 239 47.4 239Q38.8 239 35.35 222.3Q33.55 213.75 32.55 192.1L29.6 129.5Q27.8 87 27.8 60.6Q27.8 45.35 28.1 39.35Q28.6 29.1 30.55 13.25L31.4 12.5L32.2 14.25L32.55 15.4Q32.55 22.45 31.3 37.15Q30.05 51.85 30.05 59.1Q30.05 80.3 31.65 117.1L33.2 157.75Q33.5 191.65 36.4 209.8Q40 232 47.55 232Q57.15 232 59.4 209.9Q60.3 201.3 60.55 185.3L60.9 154.2L61.35 132L61.9 83Q65.05 26.55 65.05 16.85L64.9 9.3M37.4,6.5Q37.4 10.2 30.85 10.35Q20.6 10 13.15 10.8L14.2 32.95Q15.05 49.3 15.05 87.45L14.85 91.4L14.45 99.8L13.15 136.95Q12.65 149.2 12.65 159.85L13.4 177Q14.15 195.35 14.15 211.55Q14.15 251.95 12.2 276.4Q10.25 300.9 10.25 307.8L10.75 315.4L11 315.25L11.65 313.8L12.15 311.8L12.65 312.25Q10.75 322.1 9.25 323.8L9.05 323.6L8.4 320.95Q7.75 318.25 7.75 312.75Q7.75 297.3 9.75 276Q11.75 254.7 11.75 211.2Q11.75 196.15 11 178.8L10.25 160Q10.25 150.35 11.6 112.05Q12.9 73.7 12.9 65.9L12.75 55.05L12.25 43.3L11.75 32.1Q11.45 16.5 12.1 10.7L6.7 10.05L-0.5 9.3L-0.85 6.85L-0.8 5.3Q-0.65 4.5 0 4.5L10.7 5.3L35.85 4.45Q37.4 4.45 37.4 6.5M68.9,118.8Q79.9 118.7 84.95 122.4Q90.65 126.55 90.65 136.8Q90.65 139.65 89.75 143.8Q88.85 148.1 87.8 149.75Q84.4 155.3 80 157.75Q76.5 159.75 76.5 159.9Q76.5 161.1 79.15 179.1Q81.8 197.05 81.8 199.7L81.55 201.4L81.05 202.75Q75.3 168.15 74.8 160.65L71.85 161.8L69.9 162.3L69.3 175.3Q68.45 190.5 67.05 200.75Q66.15 202.9 66.05 197.75Q66.05 156.35 67.45 133.9L68.9 118.8M70.05,158Q80.65 152 82.5 150.5Q89.15 144.95 89.15 137Q89.15 131.35 86.25 128.2Q82.1 123.6 71.15 122.55Q71.35 131 70.05 158M88.55,157.75Q91.7 173.15 105.05 230.45Q117.75 287.25 121.9 318.05L122.05 316.95L121.65 314.5Q121.4 312.8 122.05 314.55Q122.15 281.85 122.55 274.85Q122.95 272.6 123.05 265.8L123.05 192Q122.3 184.85 122.6 172.3Q122.9 160.55 123.55 158.55L124.75 197.1L124.8 228.3L123.8 301.95Q123.8 318.5 124.15 324.9Q124.2 326.65 122.55 329.9L122.35 329.6Q121.65 328 121.4 325.85L103.4 235.45L88.8 166.95L86.65 201.4Q85.75 216.8 84.2 249.65L83 266.4Q81.8 280.7 80.85 287.5L79.85 302.15Q78.2 317.15 74.9 323.05L74.25 321.8Q73.9 320.85 73.9 320.15Q73.9 318.3 77.8 287.45Q82.05 254.15 83.05 238.5L85.35 193.35Q87.05 162.8 88.55 157.75M150.55,246.55Q149.85 246.55 148.75 245.35L146.65 243.25Q143.6 240.9 140.05 244.8Q136.6 248.55 134.45 258.4Q132.9 265.6 132.9 269.8Q132.9 273.4 135 275.55Q136.9 277.5 139.6 277.5Q146.05 277.5 147.7 275.25Q148.65 274 148.65 269.05L148.5 267.65L148.3 266.75L143.9 267.5L143 267.15L142.8 265.6Q142.8 264.95 143.5 264.25Q144.55 263.3 146.5 263.3Q147.85 263.3 148.85 264.45Q149.6 265.35 149.95 266.7Q150.4 268.55 150.15 271Q150.05 272.4 150.65 273.4L151.3 274.85Q151.3 275.4 147.9 284.05Q147.35 283.2 147.15 281.6L141.9 282.3Q136.5 282.3 133.75 278.95Q131.05 275.7 131.05 269.6Q131.05 258.1 135.35 247.95Q139.5 238.25 143.7 238.25Q146.05 238.25 148.7 240.7Q151.4 243.1 151.4 245.2L151.35 246.25Q151.25 246.55 150.55 246.55M35.15,237.5Q42.5 237.5 46.55 242.9Q50.2 247.75 51.9 258Q52.5 261.45 54.7 267.9Q56.3 272.45 56.3 278.9Q56.3 299.2 51.2 311.05Q46.15 322.9 37.4 322.9Q28.5 322.9 23.55 315.1Q18.65 307.3 18.65 293.15Q18.65 287.75 19.8 278.75Q21.1 268.55 21.3 264.75Q24.4 250.15 27.55 243.85Q30.75 237.5 35.15 237.5M21.15,293.25Q21.15 307.85 28.1 313.25Q31.6 316 35.15 315.8Q44.2 315.8 49 306Q53.55 296.8 53.55 280.6Q53.55 277.1 50.05 265.05Q46.4 252.6 44.25 249.95Q41.7 246.15 40.55 244.9Q38.7 242.8 35.65 242.8Q30.6 242.8 26.15 256.2Q21.15 271.3 21.15 293.25M209.9,239.55Q213.85 239 215.15 240.15L216.65 242.2L219.65 244.8Q220.3 245.5 220.3 246.65L220.15 247.45L219.8 247.5L216.2 245.85L212.9 244.7L209.4 243.8Q203.75 243.8 199.2 249.35Q196.45 252.7 192.7 260.65L202.45 260.05L205.4 259.55L215.05 259.75Q215.8 261.05 215.8 262Q215.8 263.2 215.05 264.25L200.15 265.1L197.7 265.3L191.35 265.1L191.3 267.6Q191.3 272.6 195.8 275.55Q199.25 277.8 202.65 277.8Q213.95 277.8 218.05 274.95Q219.55 273.9 220.4 272.25L221.65 269.55L222.25 270.2Q222.9 271.6 222.9 272.9Q222.9 275.6 219.45 279Q215.45 283 210.4 283Q196.1 283 191.7 276.5Q189.55 273.35 189.55 265.45Q189.55 261.2 190.5 258.25Q192.7 251.5 199.8 243.95Q200.2 243.5 204.8 241.55Q209.3 239.6 209.9 239.55" />
</g>
</svg>
