<?xml version="1.0" encoding="utf-8"?>
<svg version="1.1" id="Layer_1"
xmlns="http://www.w3.org/2000/svg"
xmlns:xlink="http://www.w3.org/1999/xlink"


xml:space="preserve">
q7.1 5.05 11.75 13.6q0.75 -1.2 0.75 -2.4q0 -1.45 -1.2 -4.55q-1.65 -4.1 -4.3 -7.6q-7.85 -10.2 -21.15 -10.2q-12.55 0 -18.2 8.45q-4.15 6.25 -4.15 16.1q0 14.9 9.15 35.3q3.95 7.9 5.1 11.2q2.6 7 5.15 16.3q3.05 11.1 4.8 18.75q2.65 14.05 3.5 20.95q0.85 6.7 0.85 13.2q-1.1 5 -4.15 11.6q-6.1 13.2 -15.9 17.45q-8.05 3.5 -27.05 3.5q-3.95 0 -6 -1.9q-2.5 -2.3 -5.05 -9.4q-3.6 -10.15 -3.6 -12.1q0 -1.25 -1.75 -3q-0.15 -0.1 -0.15 0.5q-0.75 2.1 -0.75 2.35q0 9.25 5.7 19.2q6.75 11.8 16.15 11.8q29.6 0 40.55 -21.95q8.2 -16.4 8.2 -53.6q0 -18.7 -3.15 -36.55q-3.1 -17.75 -10.2 -39.7q-8.3 -25.7 -13.45 -38q-4.05 -10.6 -4.05 -14.7q0 -7.2 3.9 -12.05q5.3 -6.55 16.65 -6.55q6.8 0 13.7 4.9q0.8 -0.9 -0.3 -3.25q-12.3 5.2 -13 5.2q-0.5 0 -7.1 -5.4q-6.6 -5.45 -9.4 -5.45q-0.3 -0.45 -0.3 0.5q0 1.2 2.9 3.8q-2.95 1.25 -12.65 5.8q-11.9 5.5 -11.9 5.9q0 1.25 0.65 1.9q0.55 0.65 1.5 0.65q1.55 0 8.3 -3.05q0 -0.45 -3.5 -3.25q5.55 -2.65 6.25 -3.45q-5.35 0.7 -9.3 1.75q-1.75 0.5 -1.75 2.65q0.4 1.2 1.1 1.2q-2.75 14.9 -4.65 27.9q-1.6 10.95 -1.6 13.35q0.3 1.2 0.8 1.2q1.2 -5.15 3.95 -22.45q2.8 -0.5 4.4 -1.3q0.4 -3.95 -0.4 -3.95q-2.75 -2.25 -10.3 -4.15q-0.9 1.2 -1.1 4.45q-2.3 23.7 -4 38.05q6.45 -36.25 6.55 -74.05q13.25 0 19.55 -7.2q5.3 -6 5.3 -16.3q0 -8.05 -2.8 -14.8q-2.65 -6.4 -7 -9.9q9 7.3 9 19.15q0 8.8 -7.25 13.55q-4.9 3.2 -18.5 6.95q0.6 -29.05 0.1 -45.25q8.75 -0.75 16.65 5.6q-1.2 1.15 -1.75 3.8q-0.55 2.55 -0.25 5.7q0.1 1.35 -4.05 21.95q-4.9 24.05 -6.65 37.85q-0.3 -0.6 -0.6 0.8q0 0.5 0.45 1.6q0 11.95 -3.15 44.7q-3.3 34.4 -6 46.65q-4.95 22.5 -10.85 43.45q-4.55 16.25 -4.55 16.6q14.3 -40.95 19.2 -74.5q3.35 -22.85 6.2 -79.3q3.85 -0.55 28.4 -0.75q1.5 13.95 8.7 48.95q6.05 29.55 5.85 40.3q0 2.6 2.65 25.95q3.15 27.85 5.95 43.2q0.75 -1.2 1.2 -4.05q0 -7.65 -1.9 -18.9q-2.85 -17.15 -3.4 -21.65q-0.4 -3.35 -1.85 -20.85q-3.4 -16.7 -7.05 -37.6q-2.6 -14.85 -2.1 -19.75q-12.6 -123.95 -12.6 -142.95q0 -0.95 -0.35 -1.6q0.45 12.55 3.75 51.65q4 47.45 8.3 81.9q6 -50.65 8.3 -66.3q2 -13.4 9.3 -53.25q3.35 0 6.7 1.45q4.15 1.8 4.15 4.65q0 5 -6.25 8.35q3.5 -11.65 4.5 -14.5q0.25 -1.1 3.35 -1.1q-1.2 5.85 -2.4 7.1q-1.5 1.55 -1.45 2.1q0.75 0 1.5 -1.65q0.3 -2.75 0.7 -3.85q0.7 -1.95 3.65 -1.75q3.6 10.45 6.65 17.45q-3.15 -11.65 -9 -25.9q7.25 -4.5 10 -8.85q1.9 -3 1.9 -6.75q0 -5.05 -3 -7.8q-3.85 -3.45 -12.75 -3.45q-2 0 -2.7 3.2q-1.5 6.95 -2.15 8.7q0 -2.6 -1.45 -3.45q-1.35 -0.75 -4.65 -0.4q-2.25 0.2 -2.9 0.9q-0.5 0.55 -0.5 2.35q0 1.55 0.85 2.9q-2.1 14.45 -2.7 21.5q-0.65 7.1 -0.65 11.45q0.05 21.55 -0.55 31.2q-0.55 10.1 -3.15 35.45q-3 28.85 -6.1 52.85q2.5 -4.75 5.8 -27.3q3.35 -23.05 5.25 -49.4q1.7 -24.4 2.55 -49.6q0.6 -18.2 0.6 -30.9q-0.05 -2.35 0.65 -18.75q0.25 -28.3 0.65 -33.3q0.55 -7.25 2.85 -29.6q26.45 -3.95 31.35 -3.9q-2.5 -3.9 -4 -4.9q-1.6 2.55 -2.8 3.35q-0.75 0.95 -0.75 2.45q0 1.85 2.2 9q1.1 -0.65 6.25 -6.65q5.35 -6.2 9.75 -12q1.35 -2.45 -0.15 -4.65q-4.4 6.95 -8.8 12.95q-8.7 11.8 -12.2 11.8q5.15 0 6.95 4.15q1 2.3 1 6.85q0 6.85 -2.8 10.95q-3.8 5.5 -13.65 8.2q1.1 -6.05 2.1 -14.8q1.3 -10.75 1.05 -15.1q0.5 4.3 -0.45 13.05q-0.85 7.85 -1.95 11.95q-1.85 6.85 -4.6 22.95q-2.65 15.2 -2.65 17.7q1 -1 2.8 -10.5q0.35 -2.15 2.1 -3.35q0.85 -0.55 3.5 -1.5q0.65 8.95 2.15 11.05q0.85 -1.45 0.85 -3.15q0 -2.35 -1.75 -14.25q7.9 -4.9 10.2 -9.05q2.3 -4.15 2.3 -13.35q0 -6.7 -0.8 -9q-1.1 -3.25 -5.45 -6.4q-1.2 1.1 -1.75 3.95q-0.35 1.95 -0.6 6.35q-0.6 16.1 -1.65 29.75q-0.85 10.8 -0.85 14.7q2 -1.65 5.6 -12q0.05 5.7 0.4 11.05q-0.35 2.1 -0.35 3.1q0 1.45 0.65 3.5q0.8 -3.1 1.5 -20.5q0.55 -14.4 0.55 -22.2q0 -1.4 -0.6 -5.4q0 -6.25 -0.55 -10.75q-5.8 8.4 -14.05 27.6q-7.15 16.65 -8.85 23.35q1.8 -1.7 5.15 -8.4q3.45 -7 6.25 -14.85q1.55 -4.25 4.85 -11.9q3.55 -8.1 5.15 -10.8q-3.8 45.05 -4.9 53.9q-5.6 43.6 -5.6 45.65q0.3 1.2 0.8 1.2q0.65 -2.15 1.85 -10.4q1.25 -8.75 2.35 -19.65q1.15 -13.55 2.3 -22.05q0.2 -1.55 2.55 -3.75q3.9 20.85 4.75 24.8q0 -10.2 -5.5 -34.25q0 -1.75 8.25 -12.65q-3.85 3.4 -16.15 19.45q-11.1 14.55 -17.2 23.6q0.85 -10.4 -0.35 -17.5q0 -3.85 -2.4 -5.7q-2.1 -1.6 -5.8 -1.6q-10.9 0 -16.05 14.15q-3.65 10 -3.65 23.25q0 8.3 4.35 12.1q3.95 3.5 11.8 3.5q2.7 0 5.6 -3.85q2.55 -3.35 4.3 -8.2q-0.05 -1.35 -0.6 -2.25q-1.05 5.2 -4.65 7.55q-3.6 2.4 -10.6 2.4q-5.75 0 -7.2 -7.05q-0.45 -2.25 -0.45 -11.55q0 -14.15 7.05 -20.65q4.9 -4.45 11.6 -4.45q1.95 0.65 2.75 1.9q1 0.95 1.45 -0.25q0.25 -1.85 -1.35 -3.2q-2 -1.65 -6.3 -1.65q-0.8 0 -2.25 2.85q-1.35 2.65 -1.35 3.5q0 2.3 3.35 4.6q-2.35 -2.9 -3.05 -5.15q0 5.95 7.45 5.95q4.4 0 7.05 -2.3q2.4 -2.05 2.4 -4.95q0 -2.8 -3.7 -5.3q-4.5 -2.55 -6.05 -3.95q-0.1 -0.8 0.35 -1.25q0.9 -0.85 4.9 -1.25q-0.95 2.8 -1.75 10.25q-0.6 5.05 -0.85 9.45q-1.4 9.45 -1.4 12.3q0 1.25 0.55 2.35q1.7 -1.7 2.1 -8.15q0.95 -14.4 1.8 -21.5q1.4 9.6 1.4 17q0 1.8 0.5 3.15q3.55 -16.85 5.5 -32q1.6 -12.5 1.15 -14.6q-4.85 16.2 -6.55 32.25q-2.85 -29.15 -3.25 -30.45q-0.6 0.45 -1.1 1.25q-0.35 0.65 -0.35 0.95q0 1.15 0.25 1.4q0.35 0.45 1.9 0.35q-0.55 2.25 -0.85 2.25q-0.6 0 -0.6 1.3q0 1.75 -0.9 6.75q-0.95 4.95 -0.95 6.15q0.9 -2.9 1.45 -5.9q0.75 -1.2 0.75 -2.25q0 -2.85 -2 -6.25q-2.15 -3.55 -5.15 -5.2q1.9 -1.5 3.8 -4.55q1.7 -2.7 1.7 -3.6q0 -1.55 -0.5 -2.7q-0.9 -2.1 -3.6 -3.7q0 1.15 -2.7 2.85q-3.1 1.95 -6.9 2.45q0.05 -4.05 -0.25 -6.55q3.6 -0.45 5.35 0.75q0 -0.95 -1.3 -1.95q-2.25 -1.65 -7.35 -1.65q-0.9 1.45 -1.05 2.25q0 4.05 3 5.85q2.6 1.55 7.8 1.55q2.95 0 6.6 -2q3 -1.65 3.6 -2.65q-3.85 1.75 -5.25 1.95q-1.6 0 -2.9 -1q-2 -1.55 -2 -5q0 -1.95 1.05 -4.6q0.45 -1.1 3.05 -4.3q1.05 1.15 2.85 1.15q-1.7 1.8 -2.95 2.05q-1.3 -0.65 -4.1 -5.1q1.1 -0.25 1.1 -1.4q-12.95 0 -16.7 0.2q0.5 -1.8 4.2 -2.85q3.55 -1 12.6 -2q-2.15 -1.5 -5.3 -2.25q-9.9 0 -9.9 13.2q0 7.8 15.85 7.8q2.45 0 5.35 -1.55q2.8 -1.5 3.7 -3<g id="1530" transform="matrix(1, 0, 0, 1, 1.6, 1.75)">
<path style="fill:#000000;fill-opacity:1" d="M211.1,32.55Q199.75 32.55 194.45 39.1Q190.55 43.95 190.55 51.15Q190.55 55.25 194.6 65.85L204.35 91L211.35 107.95Q216.5 120.25 224.8 145.95Q231.9 167.9 235 185.65Q238.15 203.5 238.15 222.2Q238.15 259.4 229.95 275.8Q219 297.75 189.4 297.75Q180 297.75 173.25 285.95Q167.55 276 167.55 266.75L167.65 263.3Q167.65 263.05 168.4 260.95L169.15 258.3Q169.15 257.7 169.3 257.8L169.9 258Q171.65 259.75 171.65 261L170.55 266.65Q170.55 268.6 174.15 278.75Q176.7 285.85 179.2 288.15Q181.25 290.05 185.2 290.05Q204.2 290.05 212.25 286.55Q222.05 282.3 228.15 269.1Q231.2 262.5 232.3 257.5L233 251.8L234.7 232.6L235.65 219.7Q235.65 213.2 234.8 206.5Q233.95 199.6 231.3 185.55L228.4 171.45Q226.65 163.8 223.6 152.7Q221.05 143.4 218.45 136.4L209.7 112.1Q208.55 108.8 204.6 100.9L197.45 86.15Q188.3 65.75 188.3 50.85Q188.3 41 192.45 34.75Q198.1 26.3 210.65 26.3Q223.95 26.3 231.8 36.5Q234.45 40 236.1 44.1Q237.3 47.2 237.3 48.65Q237.3 49.85 236.55 51.05Q231.9 42.5 224.8 37.45Q217.9 32.55 211.1 32.55M190.1,4.95L177.6 10.2L168.95 13.55L181.3 23.85Q184.8 26.65 184.8 27.1L184.45 28.1L183.65 29.75L164.55 15.55L146.85 24Q140.1 27.05 138.55 27.05Q137.6 27.05 137.05 26.4Q136.4 25.75 136.4 24.5Q136.4 24.1 148.3 18.6Q158 14.05 160.95 12.8L151.05 4.35Q148.15 1.75 148.15 0.55Q148.15 -0.4 148.45 0.05L149 0Q151.8 0 158.4 5.45Q165 10.85 165.5 10.85Q166.2 10.85 178.5 5.65L196.05 -1.75Q197.15 0.6 196.35 1.5Q195.65 2.3 190.1 4.95M171.05,28.25Q171.85 28.25 171.45 32.2Q169.85 33 167.05 33.5L162.75 34.2L155.7 35.45L155.4 38.2L152.5 57.85Q149.75 75.15 148.55 80.3Q148.05 80.3 147.75 79.1L147.55 77.1Q147.55 74.7 149.15 63.75Q151.05 50.75 153.8 35.85L143.4 37.8Q142.7 37.8 142.3 36.6L142.05 35.3Q142.05 33.15 143.8 32.65L155.05 30.6Q159 29.55 164.35 28.85L171.05 28.25M191.5,89.45Q194.3 96.2 194.3 104.25Q194.3 114.55 189 120.55Q182.7 127.75 169.45 127.75L166.6 127.45Q166.5 165.25 160.05 201.5L159.25 199.65L158.9 198.25Q160.6 183.9 162.9 160.2L164.85 127.45L165.4 121.05L165.45 78Q165.65 74.75 166.55 73.55L174.2 75.4Q181.75 77.3 184.5 79.55Q188.85 83.05 191.5 89.45M166.9,78.5Q167.4 94.7 166.8 123.75Q180.4 120 185.3 116.8Q192.55 112.05 192.55 103.25Q192.55 91.4 183.55 84.1Q175.65 77.75 166.9 78.5M87.8,6.15L87.2 13.55Q87.2 32.55 99.8 156.5L101.1 158.5L101 160.05Q100.5 164.95 103.1 179.8Q106.75 200.7 110.15 217.4L113.6 235.05L115.25 253.65Q116.7 271.15 117.1 274.5Q117.65 279 120.5 296.15Q122.4 307.4 122.4 315.05L122.1 318.35Q121.65 321.2 120.9 322.4Q118.1 307.05 114.95 279.2Q112.3 255.85 112.3 253.25Q112.5 242.5 106.45 212.95Q99.25 177.95 97.75 164Q73.2 164.2 69.35 164.75L68.3 165.1L65.8 165.25L63.8 165.1Q60.95 221.55 57.6 244.4Q52.7 277.95 38.4 318.9L37.2 316.8L36.65 315.4Q36.65 315.05 41.2 298.8Q47.1 277.85 52.05 255.35Q54.75 243.1 58.05 208.7Q61.2 175.95 61.2 164L60.75 162.45Q60.3 161.35 60.3 160.85L60.55 158.85Q60.85 157.45 61.15 158.05L61.8 158.15L73.35 71.1Q75.1 57.3 80 33.25Q84.15 12.65 84.05 11.3Q83.75 8.15 84.3 5.6Q84.85 2.95 86.05 1.8L87.45 4.55Q87.8 5.2 87.8 6.15M81.85,39.1Q74.55 78.95 72.55 92.35Q70.25 108 64.25 158.65L64.2 158.7L64.85 158.75L69 158.15L96.9 156.75Q92.6 122.3 88.6 74.85Q85.3 35.75 84.85 23.2L81.85 39.1M111.45,53.35L110.9 57.45Q109.9 60.3 106.4 71.95L119.4 66.7Q125.65 63.35 125.65 58.35Q125.65 55.5 121.5 53.7Q118.15 52.25 114.8 52.25Q111.7 52.25 111.45 53.35M108.85,51.25Q109.55 48.05 111.55 48.05Q120.45 48.05 124.3 51.5Q127.3 54.25 127.3 59.3Q127.3 63.05 125.4 66.05Q122.65 70.4 115.4 74.9Q121.25 89.15 124.4 100.8L124.05 102.55L123.4 104Q120.35 97 116.75 86.55L113.2 75.8L110.4 76.6L107.5 76.95Q104.55 76.75 103.85 78.7Q103.45 79.8 103.15 82.55L98.95 95.7L97.15 101.6Q96.4 103.25 95.65 103.25L95.55 100.25L102.1 76.7L101.75 75.2Q101.7 74.65 103.2 73.1Q104.4 71.85 105.6 66L106.7 59.95Q107.35 58.2 108.85 51.25M67.4,8.3Q62.5 8.25 36.05 12.2L33.45 39.3Q31.15 61.65 30.6 68.9Q30.2 73.9 29.95 102.2L28.35 124.9L27.5 143.85Q26.8 160.25 26.85 162.6Q26.85 175.3 26.25 193.5Q25.4 218.7 23.7 243.1Q21.8 269.45 18.45 292.5Q15.15 315.05 12.65 319.8L12.2 319.05L11.8 318.3L11.65 318.2L11.55 316.4L13.9 298.2Q17 274.2 20 245.35Q22.6 220 23.15 209.9L24.1 181.7L26.1 122.15L27.1 104.25Q27.7 94.6 27.65 73.05Q27.65 68.7 28.3 61.6L29.55 49.1L30.7 34.1Q31.3 27.05 33.4 12.6L20.2 13.95L7.4 14.8L-0.75 14.75Q-1.6 13.4 -1.6 11.85Q-1.6 10.05 -1.1 9.5Q-0.45 8.8 1.8 8.6L22.8 7.25L41.05 5.45L61.45 2.65Q64.75 2.3 66.1 3.05Q67.55 3.9 67.55 6.5L67.4 8.3M58.05,45.8Q61.55 45.8 70.25 34Q74.65 28 79.05 21.05Q80.55 23.25 79.2 25.7L74.15 32.6Q69.75 38.4 64.4 44.6Q59.25 50.6 58.15 51.25L52.05 42.75L46.4 50.8L46.05 50L41.85 36.25Q39.65 29.1 39.65 27.25Q39.65 25.75 40.4 24.8L44.7 36.05L46.8 44.3Q48 43.5 49.6 40.95L51.65 37.25Q53.15 38.25 55.65 42.15L58.05 45.8M37.2,167.3Q36.2 176.05 35.1 182.1Q44.95 179.4 48.75 173.9Q51.55 169.8 51.55 162.95Q51.55 158.4 50.55 156.1Q48.75 151.95 43.6 151.95L38.3 152.2L38.25 152.2Q38.5 156.55 37.2 167.3M35.65,151.25Q36.2 148.4 37.4 147.3L47.05 147.3Q51.4 150.45 52.5 153.7Q53.3 156 53.3 162.7Q53.3 171.9 51 176.05Q48.7 180.2 40.8 185.1L44.65 211.1Q46.4 223 46.4 225.35Q46.4 227.05 45.55 228.5L44.9 227.95Q43.4 225.85 42.75 216.9L42.3 206.75L40.9 196.95L39.2 185.8Q36.55 186.75 35.7 187.3Q33.95 188.5 33.6 190.65L31.5 202.2L28.95 216.5Q27.15 226 26.15 227L25.65 225.2L25.4 223.25Q25.4 220.75 28.05 205.55Q30.8 189.45 32.65 182.6Q33.75 178.5 34.6 170.65Q35.55 161.9 35.05 157.6Q35.3 153.2 35.65 151.25M128.4,141.35Q125.1 149 123.55 153.25Q120.75 161.1 117.3 168.1Q113.95 174.8 112.15 176.5L111.65 174Q113.35 167.3 120.5 150.65Q128.75 131.45 134.55 123.05L134.75 124.1Q135.3 128.6 135.3 134.85L134.65 152.1L133.8 168.05L140.45 147.05L147.4 125.3L148.35 130.4Q148.95 134.4 148.95 135.8Q148.95 143.6 148.4 158Q147.7 175.4 146.9 178.5L146.45 177.55Q145.8 175.5 145.8 174.05Q145.8 173.05 146.15 170.95L146.3 160.1L146.3 149.55Q145.95 144.2 145.9 138.5L145.8 139.1L141.75 152.05L136.9 167.3Q133.3 177.65 131.3 179.3L131.15 178.5L131.05 175Q131.05 171.1 131.9 160.3Q132.95 146.65 133.55 130.55Q131.95 133.25 128.4 141.35M151.9,216.05L149.25 242.6L150.2 241.3Q156.3 232.25 167.4 217.7Q179.7 201.65 183.55 198.25L183.95 198.85L184.3 200.6L181.15 205.25L175.6 212.9L165.1 226.5Q156.85 237.4 156.85 239.15L162.4 263.2Q167.9 287.25 167.9 297.45L167.4 299.85L166.55 302Q165.7 298.05 161.8 277.2L155.25 241.25L151.1 245.45Q148.75 247.65 148.55 249.2Q147.4 257.7 146.25 271.25Q145.15 282.15 143.9 290.9Q142.7 299.15 142.05 301.3Q141.55 301.3 141.25 300.1L141.05 298.1Q141.05 296.05 146.65 252.45Q147.75 243.6 151.55 198.55Q152.75 205.65 151.9 216.05M143.55,206.8Q143.1 208 142.1 207.05L141 205.65Q140.2 204.4 138.25 203.75L136.4 203.3Q129.7 203.3 124.8 207.75Q117.75 214.25 117.75 228.4Q117.75 237.7 118.2 239.95Q119.65 247 125.4 247Q132.4 247 136 244.6Q139.6 242.25 140.65 237.05L141.2 237.5Q141.75 238.4 141.8 239.75Q140.05 244.6 137.5 247.95Q134.6 251.8 131.9 251.8Q124.05 251.8 120.1 248.3Q115.75 244.5 115.75 236.2Q115.75 222.95 119.4 212.95Q124.55 198.8 135.45 198.8Q139.15 198.8 141.25 200.4Q143.65 202.25 143.65 206.1L143.65 206.8L143.55 206.8M137.45,257.85L137.05 258.55L133.55 255.8Q129.55 256.2 128.65 257.05Q128.2 257.5 128.3 258.3Q129.85 259.7 134.35 262.25Q138.05 264.75 138.05 267.55Q138.05 270.45 135.65 272.5Q133 274.8 128.6 274.8Q121.15 274.8 121.15 268.85L121.6 267.2L122.4 265L122.85 265.85Q123.55 268.1 125.9 271L132.05 270.8L134.3 269L136.15 267.25L129.65 263.2Q126.3 260.9 126.3 258.6Q126.3 257.75 127.65 255.1Q129.1 252.25 129.9 252.25Q134.2 252.25 136.2 253.9Q137.8 255.25 137.55 257.1L137.45 257.85M129,278.1Q129.4 279.4 132.25 308.55Q133.95 292.5 138.8 276.3Q139.25 278.4 137.65 290.9Q135.7 306.05 132.15 322.9Q131.65 321.55 131.65 319.75Q131.65 312.35 130.25 302.75L128.25 289.95L127.95 292.15Q127.1 299.25 126.15 313.65Q125.75 320.1 124.05 321.8L123.7 321.5Q123.15 320.4 123.15 319.15Q123.15 316.3 124.55 306.85L125.95 297Q126.2 292.6 126.8 287.55Q127.6 280.1 128.55 277.3L129 278.1M31.05,294.05Q33.75 295.65 34.65 297.75Q35.15 298.9 35.15 300.45Q35.15 301.35 33.45 304.05Q31.55 307.1 29.65 308.6Q32.65 310.25 34.8 313.8Q36.8 317.2 36.8 320.05Q36.8 321.1 36.05 322.3L24.95 310.05L21.3 309.65Q20.75 312.65 19.85 315.55L17.4 323.15L16.65 322.1L16.55 320.5Q16.55 319.3 17.5 314.35Q18.4 309.35 18.4 307.6L18.3 305.55Q18.3 304.25 18.9 304.25Q19.2 304.25 19.75 302L20.45 299.3Q18.9 299.4 18.55 298.95Q18.3 298.7 18.3 297.55Q18.3 297.25 18.65 296.6Q19.15 295.8 19.75 295.35L25.65 294.55L31.05 294.05M31.9,299.05Q30.15 297.85 26.55 298.3L21.5 299.2Q21.8 301.7 21.75 305.75L23.45 305.75Q27.25 305.25 30.35 303.3Q33.05 301.6 33.05 300.45L31.9 299.05M161.05,304.5Q159.25 304.5 158.2 303.35L153.65 303.5Q151.05 306.7 150.6 307.8Q149.55 310.45 149.55 312.4Q149.55 315.85 151.55 317.4Q152.85 318.4 154.45 318.4L157.5 318.25L160.65 318Q162.05 317.8 165.9 316.05L169.05 316.4L169.1 316.4L169.15 317.1L169.1 317.65Q168.5 318.65 165.5 320.3Q161.85 322.3 158.9 322.3Q153.7 322.3 151.1 320.75Q148.1 318.95 148.1 314.9L148.25 311.2L148.55 307.35Q148.7 306.55 149.6 305.1L151.55 302.25L153.4 299.75Q158.5 299.75 160.75 301.4Q162.05 302.4 162.05 303.35L161.9 304.3L161.7 304.45L161.05 304.5M204.45,316.25Q203.55 317.75 200.75 319.25Q197.85 320.8 195.4 320.8Q179.55 320.8 179.55 313Q179.55 299.8 189.45 299.8L193.35 300.3Q196.5 301.05 198.65 302.55Q189.6 303.55 186.05 304.55Q182.35 305.6 181.85 307.4L183.25 307.25Q187 307.05 199.95 307.05L200.15 309.25Q200.15 310.4 199.05 310.65L187.65 311.15L181.05 311.2Q183.85 315.65 185.15 316.3L192.3 316.9L199.95 316.7Q201.2 316.45 202.9 314.65L204.45 316.25" />
</g>
</svg>
