<?xml version="1.0" encoding="utf-8"?>
<svg version="1.1" id="Layer_1"
xmlns="http://www.w3.org/2000/svg"
xmlns:xlink="http://www.w3.org/1999/xlink"


xml:space="preserve">
q-5.75 -24.25 -11.85 -48.4q-2.85 -11.1 -4.8 -22.2q-5.3 -30 -19.85 -55.95q-14 27.2 -20.25 58q-4.75 23.45 -12.45 46q-19.15 55.95 -35.35 113.4q-4.1 14.5 -10.1 28.1q-6.9 15.6 -0.85 28.95q18.35 -47.35 32.4 -97.65q35.85 0.85 71.8 -1.9q6.05 28.9 9.95 58.05q4 29.7 14.25 55.25q1.4 -1.15 1.25 -2.95q-3.6 -39.85 -12 -79.5q-5.8 -27.4 -12.15 -54.7q2.8 -6.45 -1.1 -12.3q-36.7 -1.1 -75 -0.1q-48.75 1.25 -96.2 -4.15q-0.05 2.05 1.05 3.75q12.8 6.15 28 6.4q-6.3 58.35 -7.6 117.5q-1.3 59.55 -7.1 118.4q-1.7 16.95 5.15 29.3q3.65 -6 3.6 -13.5q-0.55 -45.6 0.95 -91.55q1.75 -52 6.8 -103.3q2.85 -28.95 0.85 -56.85q40.5 0.1 79.55 -3q-0.2 -2 -1.2 -3.75q3.4 8.75 5.85 17.85q10.65 39.8 19.75 79.9q-32.95 1.1 -65.35 4.75q12.3 -42.3 23.15 -85.05q1.8 -7.2 5.5 -13.5q2.05 -3.5 3.1 -6.75q1.5 7.65 4.4 15.2<g id="1519" transform="matrix(1, 0, 0, 1, -52.65, 0)">
<path style="fill:#000000;fill-opacity:1" d="M330.45,268Q334.35 273.85 331.55 280.3Q337.9 307.6 343.7 335Q352.1 374.65 355.7 414.5Q355.85 416.3 354.45 417.45Q344.2 391.9 340.2 362.2Q336.3 333.05 330.25 304.15L325.6 282.4Q289.65 285.15 253.8 284.3L244.35 317.55Q230.3 367.85 211.95 415.2Q205.9 401.85 212.8 386.25Q218.8 372.65 222.9 358.15Q239.1 300.7 258.25 244.75Q265.95 222.2 270.7 198.75Q276.95 167.95 290.95 140.75L291.45 141.6L292.2 141.5Q306.75 167.45 312.05 197.45Q314 208.55 316.85 219.65Q322.95 243.8 328.7 268.05L330.45 268M227.4,137.5L227.45 138.25L227.4 139.75L227.25 141.25L227.15 142L226.9 142.7L226.5 143.5L226.2 144.25Q187.15 147.35 146.65 147.25Q148.65 175.15 145.8 204.1Q140.75 255.4 139 307.4Q137.5 353.35 138.05 398.95Q138.1 406.45 134.45 412.45Q127.6 400.1 129.3 383.15Q135.1 324.3 136.4 264.75Q137.7 205.6 144 147.25L125.95 147L81.75 146.15Q66.55 145.9 53.75 139.75Q52.65 138.05 52.7 136L52.75 135.25L52.8 133.75L53 132.25L53.25 131.5L53.55 130.75L54.05 130.1L55 129.5Q102.45 134.9 151.2 133.65Q189.5 132.65 226.2 133.75Q227.2 135.5 227.4 137.5M292.4,155.3Q291.35 158.55 289.3 162.05Q285.6 168.35 283.8 175.55Q272.95 218.3 260.65 260.6L257.05 273Q289.45 269.35 322.4 268.25Q313.3 228.15 302.65 188.35Q300.2 179.25 296.8 170.5Q293.9 162.95 292.4 155.3" />
</g>
</svg>
