<?xml version="1.0" encoding="utf-8"?>
<svg version="1.1" id="Layer_1"
xmlns="http://www.w3.org/2000/svg"
xmlns:xlink="http://www.w3.org/1999/xlink"


xml:space="preserve">
q6.55 8.1 13.25 13.2q1.25 -13.5 -10.05 -24q-18.2 -16.9 -42.1 -20.6q-3.3 0.65 -6.4 2.65q-2.45 1.65 -5.25 2.85q-31.2 39.5 -15.35 88.25q9.95 30.2 21.05 60.2q8.6 23.45 19.45 46.1q20.5 42.85 28.3 89.7q7.45 44.65 5.3 90.6q-1.7 37.25 -21.8 68.65q-4.05 6.3 -9.8 10.9q-31 24.9 -68.35 6.65q-17.4 -8.55 -18.15 -29.05q-0.55 -16.35 -3.85 -30.4q-2.5 4.6 -2.05 10.65q1.2 16.35 3.4 32.5q2.25 16.1 15 25.55q7.15 5.3 15.7 8q24.25 7.6 46.75 -2.9q8.7 -4.1 14.75 -11.35q34.2 -41.25 34.25 -95.3q0.05 -46.7 -8.45 -91.7q-4.25 -22.45 -11.75 -44.15q-11.95 -34.65 -25.6 -68.2q-18.85 -46.2 -36.2 -92.8q-9.25 -24.95 -13.6 -50.6q-6.05 -35.55 18.55 -62.25q7.9 -5.85 17.95 -4.7q9.4 3.7 18 9.45q7.6 5.05 13.15 12q-12.25 48.5 -27.8 95.3q-0.8 -3.7 -0.75 -7.55q0.4 -48.3 -0.85 -95.35q-5.7 9.95 -10 21.35q-4.25 11.25 -8.25 22.65q-7.65 21.7 -15.15 43.35q-4.45 12.75 -1.65 23.5q11.4 -49.45 32.85 -94.75q-1 4.5 -1.15 9.2q-1.3 48.4 2.4 95.4q5.3 -7.25 8.1 -17.15q13.35 -47.5 27.55 -94.75q1.45 46.4 8.65 91.9q2.05 13 7.05 23.05q2.8 -4.2 1.9 -9.35q-7.7 -47.45 -11.95 -95.2q-4.25 7 -6.65 16.6q7.7 -77.3 7.35 -150.3q-8.8 79.95 -10.85 161.1q3.35 -3.6 1.75 -8.4q-11.75 9.5 -15.9 24.3q-4.85 17.15 3.15 32.8q7.85 15.35 19.5 6q4.95 -9.9 3 -21.3q1.05 4.9 -2 9.1q-1.55 2.1 -3.9 3.3q-9.85 -0.2 -12.55 -10.05q-4.85 -17.6 4.95 -32.8q2.5 -3.9 5.75 -7.3q2.2 -0.55 1.75 -3.6q-0.45 -3.05 -2.15 -5.65q-1.95 -3 -4.75 -5.1q3.55 -48.45 4 -96.1q-4.5 32 -6.65 66.05q-3.05 48 -7.1 95.95q-2.05 24.85 -0.7 48.4q4.65 -6.7 -1.4 -10.4q-0.3 -4.05 0 -8q-4.4 22.5 -5.45 47.05q-2.05 48.2 -3.05 96.65q-1 48.35 -1.5 96.6q-0.5 48.1 0.55 96q0.2 1.4 1.6 1.65q3.9 -21.35 2.8 -45.05q-2.3 -48.4 -0.95 -96.6q1.3 -48.4 2.85 -96.6q1.6 -48.55 2.8 -96.65q1.2 -48.1 2 -96.6q0.85 -48.2 4.4 -96q-0.45 -1.65 -1.35 -3.1q-49.6 0.85 -97.85 10q-1.9 4 -0.15 7.9q27.75 -4.35 56.2 -6.7q-2.1 13.1 -2.3 28.1q-0.65 48.2 -0.8 96.6q-0.05 48.55 1.65 96.65q1.8 48.25 1.2 96.6q-0.2 13.55 4.1 23.85q2.5 -27.2 1.35 -55.7q-1.85 -48.25 -3 -96.6q-1.2 -48.45 -3.05 -96.65q-1.85 -48.5 -2.35 -97.2q-0.45 -48.75 -0.4 -97.2q0 -46.8 0.85 -92.35q2.2 -4.6 -0.7 -8.5q-3.05 -3.75 -7.1 -6.25q-10.45 -2.55 -20.6 0.8q-6.2 27.6 -3.4 56q7.45 -27.9 8.8 -56.8q6.65 35.55 24.5 63.8q20.9 -15.95 17.15 -41.35q-0.6 -4.2 -3.35 -7.5q6.45 16.8 -6.15 32q-8.5 10.2 -21.1 14.05q12.25 -2.85 22.7 2.8q-4.4 47.05 -13.55 93.25q-1.85 -14.5 -3.3 -29.15q-3.6 -35.7 -11.1 -70.7q-10.2 -47.4 -22.7 -93.8q-1.9 -3.8 -4.65 -3.85q7.6 26.45 14.05 54.35q5.55 23.95 9.95 48.05q8.6 46.6 12.45 93.95q1.05 13.05 5.3 23.2q2.6 -5.7 3.75 -12.15q8.45 -46.5 14.2 -93.45q0.95 8.7 2.35 17.25q7.9 47.95 22.5 93.2q3.8 -5.8 5 -13.15q7.9 -47.35 16.25 -94.65q8.4 -47.35 15.65 -94.9q0.95 -6.15 3.2 -11.85q4.15 -10.55 -0.95 -17.8q-7.85 24.9 -11.75 52.25q-5.1 35.65 -10.95 71.2q-7.7 46.65 -16.45 93q-3 -11.15 -5.7 -22.45q-11.2 -46.6 -18.35 -93.5q-4.5 4.15 -5.2 11.7q-4.3 8.95 -13.5 12.25q3 -10.45 -0.75 -20.6q-6.1 15 0.3 27.4q1.2 14.75 11.7 25.1q15 -11.9 3.5 -24.05q-3.35 -3.55 -7.85 -4.6q-3.05 4.05 -1.4 8.9q-0.6 1.5 -0.9 3.05q-8.1 -43.55 -23.8 -84.4q-3 5 -3.7 12q-1.95 20.15 -4.95 40.2q-3.6 23.9 -1.95 46.05q1.25 -1.6 1.45 -3.6q4.55 -41.55 10 -82.6q13.35 45.05 22.95 91.1q4.3 -5.25 5.3 -13.25q2.75 -21.5 6.8 -42.8q4.5 -23.65 3.4 -46.65q-0.6 0.1 -0.85 0.45<g id="1547" transform="matrix(1, 0, 0, 1, -1.3, 0)">
<path style="fill:#000000;fill-opacity:1" d="M496.2,25.95Q487.6 20.2 478.2 16.5Q468.15 15.35 460.25 21.2Q435.65 47.9 441.7 83.45Q446.05 109.1 455.3 134.05Q472.65 180.65 491.5 226.85Q505.15 260.4 517.1 295.05Q524.6 316.75 528.85 339.2Q537.35 384.2 537.3 430.9Q537.25 484.95 503.05 526.2Q497 533.45 488.3 537.55Q465.8 548.05 441.55 540.45Q433 537.75 425.85 532.45Q413.1 523 410.85 506.9Q408.65 490.75 407.45 474.4Q407 468.35 409.5 463.75Q412.8 477.8 413.35 494.15Q414.1 514.65 431.5 523.2Q468.85 541.45 499.85 516.55Q505.6 511.95 509.65 505.65Q529.75 474.25 531.45 437Q533.6 391.05 526.15 346.4Q518.35 299.55 497.85 256.7Q487 234.05 478.4 210.6Q467.3 180.6 457.35 150.4L441.75 102.65Q425.9 53.9 457.1 14.4L458.8 12.05Q461.6 10.85 464.05 9.2Q467.15 7.2 470.45 6.55Q494.35 10.25 512.55 27.15Q523.85 37.65 522.6 51.15Q515.9 46.05 509.35 37.95Q503.8 31 496.2 25.95M355.05,50.75Q359.3 98.5 367 145.95L371.65 173.5Q372.55 178.65 369.75 182.85Q364.75 172.8 362.7 159.8Q355.5 114.3 354.05 67.9Q339.85 115.15 326.5 162.65Q323.7 172.55 318.4 179.8Q314.7 132.8 316 84.4Q316.15 79.7 317.15 75.2Q295.7 120.5 284.3 169.95L283.95 170.6Q281.15 159.85 285.6 147.1Q293.1 125.45 300.75 103.75Q304.75 92.35 309 81.1Q313.3 69.7 319 59.75Q320.25 106.8 319.85 155.1Q319.8 158.95 320.6 162.65Q336.15 115.85 348.4 67.35Q350.8 57.75 355.05 50.75M326.75,332.45L283.5 330.4Q285.55 249.25 294.35 169.3Q294.7 242.3 287 319.6L327.95 322.65L328.5 324.05Q330.1 328.85 326.75 332.45M331.2,377.1Q334 379.2 335.95 382.2Q337.65 384.8 338.1 387.85Q338.55 390.9 336.35 391.45L332.05 385.65L325.1 385.05Q321.85 388.45 319.35 392.35Q309.55 407.55 314.4 425.15Q317.1 435 326.95 435.2Q329.3 434 330.85 431.9Q333.9 427.7 332.85 422.8L323.5 420.5L323.3 416.3L335.6 417.05L336.45 422.05Q338.4 433.45 333.45 443.35L332.05 440Q320.4 449.35 312.55 434Q304.55 418.35 309.4 401.2Q313.55 386.4 325.3 376.9L331.2 377.1M375.45,371L408.9 372.8Q414.95 376.5 410.3 383.2L372.2 381.4Q370.85 357.85 372.9 333Q376.95 285.05 380 237.05Q382.15 203 386.65 171Q386.2 218.65 382.65 267.1L375.45 363Q375.15 366.95 375.45 371M249.4,11.45L249.5 12.05Q245.95 59.85 245.1 108.05Q244.3 156.55 243.1 204.65Q241.9 252.75 240.3 301.3Q238.75 349.5 237.45 397.9Q236.1 446.1 238.4 494.5Q239.5 518.2 235.6 539.55Q234.2 539.3 234 537.9Q232.95 490 233.45 441.9Q233.95 393.65 234.95 345.3L237.25 248.7L239.55 152.05Q240.55 103.6 242.6 55.4Q243.65 30.85 248.05 8.35Q248.95 9.8 249.4 11.45M102.2,12.8L101.7 13.45L59.85 15.9Q59 61.45 59 108.25Q58.95 156.7 59.4 205.45Q59.9 254.15 61.75 302.65Q63.6 350.85 64.8 399.3Q65.95 447.65 67.8 495.9Q68.95 524.4 66.45 551.6Q62.15 541.3 62.35 527.75Q62.95 479.4 61.15 431.15L57.6 333.9Q55.9 285.8 55.95 237.25L56.15 140.65Q56.3 92.25 56.95 44.05Q57.15 29.05 59.25 15.95Q30.8 18.3 3.05 22.65Q1.3 18.75 3.2 14.75L3.65 14.3Q51.9 5.15 101.5 4.3Q104.4 8.2 102.2 12.8M160.85,119.15Q164.6 144.55 143.7 160.5L166.5 225.4Q148.65 197.15 142 161.6L127.85 167Q126.5 195.9 119.05 223.8Q116.25 195.4 122.45 167.8L119.45 167.35L119.05 163.05L123.3 162.25L130.25 111.5L129.4 112.1L128.4 112.4L128.05 112.1L128.85 106.55L129.8 106.2Q139.95 102.85 150.4 105.4Q154.45 107.9 157.5 111.65Q160.25 114.95 160.85 119.15M154.1,114.15Q143.65 108.5 131.4 111.35L128.45 160.8Q141.05 156.95 149.55 146.75Q162.15 131.55 155.7 114.75L154.1 114.15M139.8,366.1Q146.95 413 158.15 459.6Q160.85 470.9 163.85 482.05Q172.6 435.7 180.3 389.05Q186.15 353.5 191.25 317.85Q195.15 290.5 203 265.6Q208.1 272.85 203.95 283.4Q201.7 289.1 200.75 295.25Q193.5 342.8 185.1 390.15Q176.75 437.45 168.85 484.8Q167.65 492.15 163.85 497.95Q149.25 452.7 141.35 404.75Q139.95 396.2 139 387.5Q133.25 434.45 124.8 480.95Q123.65 487.4 121.05 493.1Q116.8 482.95 115.75 469.9Q111.9 422.55 103.3 375.95Q98.9 351.85 93.35 327.9Q86.9 300 79.3 273.55Q82.05 273.6 83.95 277.4Q96.45 323.8 106.65 371.2Q114.15 406.2 117.75 441.9Q119.2 456.55 121.05 471.05Q130.2 424.85 134.6 377.8Q135.3 370.25 139.8 366.1M267.95,332.85L266.8 332.05L263.55 331.55L264.95 327.25Q269.45 328.3 272.8 331.85Q284.3 344 269.3 355.9L282.65 382.9L281.55 384.75L280.85 384.95L279.45 382.2Q268.95 371.85 267.75 357.1L261.75 360.4L257.85 387.3Q251.45 374.9 257.55 359.9L256.2 359.15L256.8 354.25L258.25 354.05L262.55 332.05Q266.3 342.2 263.3 352.65Q272.5 349.35 276.8 340.4L267.95 332.85M311.85,443.15Q312.95 466.15 308.45 489.8Q304.4 511.1 301.65 532.6Q300.65 540.6 296.35 545.85Q286.75 499.8 273.4 454.75L273.35 454.15Q267.9 495.2 263.35 536.75Q263.15 538.75 261.9 540.35Q260.25 518.2 263.85 494.3Q266.85 474.25 268.8 454.1Q269.5 447.1 272.5 442.1Q288.2 482.95 296.3 526.5L296.55 527.1L308.7 455.55Q309 454 309.6 452.5Q307.95 447.65 311 443.6Q311.25 443.25 311.85 443.15" />
</g>
</svg>
