<?xml version="1.0" encoding="utf-8"?>
<svg version="1.1" id="Layer_1"
xmlns="http://www.w3.org/2000/svg"
xmlns:xlink="http://www.w3.org/1999/xlink"


xml:space="preserve">
q3.65 -6.05 0.4 -12.35q-32.1 -0.6 -63.25 7q-8.3 88.1 -6.05 176.85q1.9 74.8 -5.35 149.05q-3.65 37.5 -0.9 75q0.5 7.2 1.55 14.4q14.45 -45.2 11.8 -98.7q-1.45 -29.55 -1 -59.25q1.95 -125.75 3 -251.5q-14.55 21.2 -22.65 46.15q-6.6 -28.9 -20.05 -54.1q-3.95 19.15 7.45 37.55q6 9.65 11.2 19.65q-14.7 24.5 -14.5 49.65q-32.2 45.65 -3.75 99.95q15.2 29 8.05 59.25q-3.45 14.65 -16.75 18.85q-6.3 1.9 -12.3 -1.05q-3 -11.35 -10.55 -18.8q0.65 25.25 23.8 28.8q15.6 2.45 24.3 -11.55q7.5 -12 7.5 -26.45q0 -13.6 -2.25 -27.2q-4.8 -29.3 -16.75 -56.4q-12.8 -29 6.2 -54.55q16.7 -0.3 23.5 15q5.15 -26.6 -22.4 -28.4q-8.05 15.55 -24.55 17.1q0.7 -15.05 0.8 -30.05q15.3 -3.9 24 9.2q-1.85 4.95 0.2 9.7q11.6 1.9 24.7 0.45q-2.9 22.9 -2.65 47.8q0.65 59.6 0.4 119.25q-0.2 59.8 -2.4 119.25q-2.15 59.7 -1.6 119.2q1.15 2.25 3.5 2.25q4.35 -28.05 4 -57.75q-0.65 -59.7 0.9 -119.2q1.55 -59.45 2 -119.25q0.4 -56.7 -2.7 -111.65q3.1 -5.85 -0.65 -11.15q-4.95 -25.2 -18.1 -47.45q12.2 -7.95 13.8 -22.4q1.7 -15.3 -12.85 -22.7q-6.15 -1.3 -11.7 1.35q-0.7 0.25 -1.25 0.75q-0.55 0.4 -1.05 0.9q-2.05 19.85 -3.15 38.35q-1.15 19.8 -5.1 40.1q-2.15 11.1 2.75 21.05q1.3 43.25 -0.75 86.3q-2.8 59.7 -1.3 119.15q0.9 37.1 -4.9 73.25q-2.35 14.45 5.3 22q7.35 -35.5 6.2 -73.5q-1.8 -59.45 1.05 -119.15q1.15 -24.35 1.35 -48.45q-1.15 -6.55 0 -13.25q-0.1 -28.6 -1.6 -56.85q-0.75 0 -1.15 0.35q-4.4 3.9 -4.2 10.15q-15.3 58.1 -26.8 116.9q-4.8 -18.45 -7.65 -37.25q-3.2 -20.8 -11.35 -36.25q-8.1 34.3 -17.75 67.75q-5.45 -34.85 -7.1 -70.3q-1.45 -30.45 -8.9 -58.45q-1.55 16.1 -0.2 34.85q4.15 59.4 13.45 116.9q15.75 -31.95 21.5 -66.5q5 36.2 18 68.75q13.15 -43.35 22.7 -88.95q2.2 -10.55 6.05 -20.4q8.75 -22.6 6.75 -44.15q-6 6.75 -8.7 17.1q-7.6 21.7 -4.05 46.2q0.9 6.05 1.3 12.25q-10.75 -3.9 -23.7 -1.45q3.8 10.25 11.45 17.95q2.95 3 6.8 5.05q10.55 -20.9 9.1 -43.45q-5.45 17.55 -4.35 36<g id="1545" transform="matrix(1, 0, 0, 1, -28.7, 0)">
<path style="fill:#000000;fill-opacity:1" d="M352.25,78Q351.2 203.75 349.25 329.5Q348.8 359.2 350.25 388.75Q352.9 442.25 338.45 487.45Q337.4 480.25 336.9 473.05Q334.15 435.55 337.8 398.05Q345.05 323.8 343.15 249Q340.9 160.25 349.2 72.15L316.45 73.75L316.2 62.5Q347.35 54.9 379.45 55.5L380.5 57.3Q383.75 63.6 380.1 69.65L352.15 72L352.25 78M253.3,76.5L213.65 168.65Q213.45 143.5 228.15 119Q222.95 109 216.95 99.35Q205.55 80.95 209.5 61.8Q222.95 87 229.55 115.9Q237.65 90.95 252.2 69.75L253.3 76.5M307.2,86Q300.4 70.7 283.7 71Q264.7 96.55 277.5 125.55Q289.45 152.65 294.25 181.95Q296.5 195.55 296.5 209.15Q296.5 223.6 289 235.6Q280.3 249.6 264.7 247.15Q241.55 243.6 240.9 218.35L245.15 214.45Q252.7 221.9 255.7 233.25L258.2 234.5Q264.2 237.45 270.5 235.55Q283.8 231.35 287.25 216.7Q294.4 186.45 279.2 157.45Q250.75 103.15 282.95 57.5L284.8 57.6Q312.35 59.4 307.2 86M169.15,88.25L169.2 86.75L169.2 85.25Q160.5 72.15 145.2 76.05Q145.1 91.05 144.4 106.1Q160.9 104.55 168.95 89L169.15 88.25M163.1,62.15L162.45 63L103.65 67.6Q106.75 122.55 106.35 179.25Q105.9 239.05 104.35 298.5Q102.8 358 103.45 417.7Q103.8 447.4 99.45 475.45Q97.1 475.45 95.95 473.2Q95.4 413.7 97.55 354Q99.75 294.55 99.95 234.75Q100.2 175.1 99.55 115.5Q99.3 90.6 102.2 67.7L55.45 72.45Q42.35 73.9 30.75 72Q28.7 67.25 30.55 62.3L31 61.5L162.45 51Q166.2 56.3 163.1 62.15M178.2,167.25L153.45 114.4L144 114L138.7 169.75Q133.8 159.8 135.95 148.7Q139.9 128.4 141.05 108.6Q142.15 90.1 144.2 70.25Q144.7 69.75 145.25 69.35Q145.8 68.85 146.5 68.6Q152.05 65.95 158.2 67.25Q172.75 74.65 171.05 89.95Q169.45 104.4 157.25 112.35L160.95 118.5Q174.1 140.75 179.05 165.95L178.2 167.25M230.3,168.1Q230.7 167.75 231.45 167.75Q232.95 196 233.05 224.6Q231.9 231.3 233.05 237.85Q232.85 261.95 231.7 286.3Q228.85 346 230.65 405.45Q231.8 443.45 224.45 478.95Q216.8 471.4 219.15 456.95Q224.95 420.8 224.05 383.7Q222.55 324.25 225.35 264.55Q227.4 221.5 226.1 178.25Q225.9 172 230.3 168.1M207.45,172.25Q209.45 193.8 200.7 216.4Q196.85 226.25 194.65 236.8Q185.1 282.4 171.95 325.75Q158.95 293.2 153.95 257Q148.2 291.55 132.45 323.5Q123.15 266 119 206.6Q117.65 187.85 119.2 171.75Q126.65 199.75 128.1 230.2Q129.75 265.65 135.2 300.5Q144.85 267.05 152.95 232.75Q161.1 248.2 164.3 269Q167.15 287.8 171.95 306.25Q183.45 247.45 198.75 189.35Q201.45 179 207.45 172.25M248.65,318.5L246.95 361.95Q259.9 359.5 270.65 363.4L269.95 371.95L244.45 374.7Q244.05 368.5 243.15 362.45Q239.6 337.95 247.2 316.25L248.65 318.5M243.6,421.45Q242.5 403 247.95 385.45L265.7 408.2L277.3 378Q278.75 400.55 268.2 421.45Q264.35 419.4 261.4 416.4Q253.75 408.7 249.95 398.45L243.8 421.45L243.6 421.45" />
</g>
</svg>
