<?xml version="1.0" encoding="utf-8"?>
<svg version="1.1" id="Layer_1"
xmlns="http://www.w3.org/2000/svg"
xmlns:xlink="http://www.w3.org/1999/xlink"


xml:space="preserve">
q4.1 1.55 4.1 5.4q0 4.25 -3.25 4.25q-28.5 12.9 -44.8 63.25q-3.45 10.6 -6 22q11.15 -2.15 14.3 -3.6q3.95 -0.85 33.75 -3.15q3.25 3.25 3.25 5.5q-0.65 2.2 -3.05 3.4q-13.8 0.7 -29.7 3.3q-4.2 0 -6.1 -1.65q-2.9 18.35 -2.9 32.05q0 21.85 8.55 38.65q9.65 18.95 25.2 18.95q19.25 0 38.65 -15.7q8.3 -6.65 13.35 -14.05q5.15 -7.5 5.25 -13.25q0.5 3 0.5 5.65q0 20.2 -22.75 37.1q-8.6 6.4 -18.15 10.5q-8.75 3.75 -13.6 3.75q-29.2 0 -39.25 -35.25q-3.15 -11.1 -4 -24.45q0 -41 12.35 -78.25q16.55 -49.9 50.15 -69.6q21.6 0.55 28.4 3.1q-3.75 -2.75 -9 -5q-6.95 -3 -12.25 -3q-32.25 0 -47.7 66.8q-7.75 33.5 -9.05 68.45q0.15 11.05 2.2 20q6.4 28.25 29 28.25q7.25 0 16 -3.25q8.95 -3.3 16.3 -8.85q17.8 -13.45 14.7 -29.65q1.2 2.2 2.55 8.25q-0.8 -1.2 -1.1 -2.25q-0.4 -1.2 -0.4 -3q0 -1.8 0.4 -3q0.3 -1.05 1.1 -2.25q16.15 0 32.45 -1.8q3.55 0.8 3.85 6.65q0.2 4.2 -0.25 20.8q0 14.3 -1.6 31.15q-2.2 23.55 -2.9 35.95q-1.55 -1.25 -2.05 -6.4q0 -3.25 1.35 -15.95q-3.85 5.75 -8.8 11q-15.7 16.7 -30.3 16.7q-33 0 -42 -34.95q-2.85 -11.1 -2.95 -24.8q0 -45.75 13.25 -85.35q4.05 -12.2 8.15 -21.25q5.3 -11.7 12.1 -21.5q3.2 -4.7 10.7 -11.05q8.55 -7.25 13.3 -7.95q14.15 -2.05 22.15 4.9q7 6.1 4.85 13.6q0.7 13.8 0.7 32.6q0 1.95 -0.6 7.5q3.5 -2 10.75 -4.05q12.5 -3.6 30.9 -6.1q18.05 -2.5 30.85 -2.5q0.35 -15.65 1.15 -35q2.4 -56.1 7.35 -79.1q1.75 4.4 1.75 10.9q-0.9 8.65 -0.9 9.9q5.25 0.7 5.25 2.65q0 3.45 -0.7 4.55q-1 1.55 -4.55 2.6q1 5.25 1 17.25q0 10 -4.45 54.7q-4.3 43.55 -5.55 48.8q-3 -2.55 -3 -7.1q0 -4.4 1.1 -16.55q3.5 -44.15 3.5 -90.7q-9.95 1.75 -40.55 5.9q-1.6 0.15 -3.35 1.35q-1.7 1.15 -2.9 1.15q-1.4 22.6 -2.45 67.95q-1.65 41.75 -7.25 69.8q-1.6 -1.35 -2.45 -4.65q-0.55 -2.25 -0.55 -3.95q3 -28.75 3 -38.7q0 -26.25 2.25 -66.75q1.65 -13 1.3 -31.35q-0.8 -20.5 -0.8 -30.9q-0.95 -3.5 -1.15 -7.4q-0.45 -7.7 3.15 -9.85q2.35 14.15 3.3 33.05q1.95 -3.6 3.55 -5.7q4.9 -6.45 13.55 -8.95q20.95 -5.95 33.7 -2q5.05 1.5 7.8 4.35q2.5 2.55 2.5 5.3q0 0.35 -1.55 0.35q-2 0 -3.45 -0.8q-4.25 -2.5 -13.45 -2.5q-44.15 0 -60.25 72.3q-8.15 36.45 -7.5 76.45q0.5 15 3.05 27.35q8.1 39.2 34 39.2q17.8 0 23.15 -0.5q8.65 -0.75 13.95 -3.85q5.2 -3 11.7 -10.9q-2.5 16.4 -12.2 29.95q-13.9 19.4 -36.3 19.4q-40.9 0 -53.45 -35.25q-4.5 -12.6 -5.65 -30.65q-0.4 -6.4 -0.4 -27.45q0 -22.45 2.75 -45q2.3 -19.1 7.5 -45.4q4.05 -21.2 19.5 -45q0 19.35 -5.45 92.95q-6.4 87.15 -12.55 114.3q-4.7 -8.75 -8.75 -24.4q-4.1 -17.5 -6.25 -25.1q-5.25 -16.85 -7.45 -24.9q-9.35 -32.85 -30.25 -100.5q-2.3 32.05 -4.4 97q-2.7 58.55 -10.1 97.85q-0.5 -3 -0.5 -4.85q0 -8.35 2.4 -26q2.35 -17.7 2.35 -26.9q0.75 -6.55 0.65 -25.8q-0.15 -16.2 2.1 -25.8q0.75 -9.95 1.3 -25.75q1.4 -31.95 5.45 -50.75q16 42.55 32.35 98.95q5.45 -19.85 6.85 -49.05q0.8 -32.85 2.15 -49.55q0.75 -9.2 1.2 -25q1.35 -31.35 6.5 -46.5q2 3.45 2 8.6q3.45 36.4 4 51.9q0 30.65 -0.9 50.7q-1 22.55 -4.1 54.65q-1.9 16.5 -2.05 26.25q-0.25 7.75 -1.1 13.35q-0.55 3.75 -0.15 12.75q-0.15 8.25 -3.6 13q-2.25 -1.95 -2.8 -5.9q-0.2 -1.35 -0.2 -6.85q0 -18.85 2.05 -40.75q6.5 -58.4 6.5 -115.9q0 -19.7 -1.3 -34.25q-1.45 -15.9 -1.7 -44.9q0 -127.6 2.5 -146q2.9 18.4 3.05 41.65q0.1 13.05 -1.05 41.6q0 3.5 -5.7 52.55q-2.25 19.95 -4.75 61.1q-3.15 36.95 -10.5 61.9q-4.35 -10.8 -6.4 -28.65q-1.8 -20.5 -3.1 -30.6q-2.45 -18.1 -3.2 -29.8q-1.95 17.15 -3.75 28.65q-5.3 33.15 -15.3 56.4q-2.25 -0.35 -2.65 -1.75q-0.75 -2.25 -1 -3.75q-3.75 -31.35 -3.75 -71.25q0.5 -0.45 1.1 -0.6q1.65 16.65 3.05 47.45q1.5 33.95 2.7 48.4q5.4 -12 8.1 -33.2q1.2 -10.25 2.6 -16.9q1.2 -22.75 2.3 -33.95q1.85 -19.55 7.45 -33.05q2 20.75 7.85 64.45q5.8 43.35 7.9 65.3q4.9 -36.2 13.75 -126.55q8.5 -86.5 8.5 -95.8q0 -0.3 1.9 -3.2q2.05 -3.15 3.1 -3.8q2 3 2 7.1q0.35 1.05 0.35 2.8q0 3.15 -1.75 4.9q-0.05 15.15 0.25 20.65q2.15 9.65 2.1 22.5q3.15 23.8 3.8 46.6q0.2 7.6 0.2 44.9q0 36.95 -0.2 45.15q-0.45 20.85 -2.8 49.35q-1.45 11.75 -2.3 28.45q-2 33.95 -8.55 56.4q-2.25 -2.55 -2.25 -6.5q0 -7.3 4.7 -56.15q2.35 -29.25 2.8 -47.55q0.2 -7.45 0.2 -42.45q0 -42.15 -4 -87.75q1.25 -4.5 1.25 -14.65q-0.7 -12.75 -0.7 -26.15q0.05 -19 2.1 -30.3q-3.9 1.85 -18 5.5q-0.5 -3 -0.5 -4.9q0 -2.85 0.6 -3.85q0.65 -1.2 2.95 -1.95q9.15 -1.9 20.2 -5.05q3 3.3 3 5.75q0 3.9 -3 6.75q1.35 17 1.35 25.4q0 16.15 -2 51.75q0 6.25 -2.5 10.6q-2.25 -1.05 -2.8 -3.1q-0.2 -0.65 -0.2 -3q0 -28.65 4.5 -63.4q-0.75 -9 -0.75 -28.5q-21.65 0 -25.95 -2.5q-1.4 -0.85 -1 -1.95q0.45 -1.1 3.25 -1.7q5.15 -1.2 35.5 -3.25q1.4 -0.7 23 -2.5<g id="1549" transform="matrix(1, 0, 0, 1, -9.25, 0)">
<path style="fill:#000000;fill-opacity:1" d="M518.4,27.6Q522.5 29.15 522.5 33Q522.5 37.25 519.25 37.25L513.4 36.25L507.5 35.25L489.75 36Q461.25 48.9 444.95 99.25Q441.5 109.85 438.95 121.25Q450.1 119.1 453.25 117.65Q457.2 116.8 487 114.5L487 114L505.5 114.25Q508.75 117.5 508.75 119.75L508.55 122.35Q507.9 124.55 505.5 125.75L496.05 126.2L486 127Q472.2 127.7 456.3 130.3L443 132.75Q438.8 132.75 436.9 131.1L435.4 139.95Q432.5 158.3 432.5 172Q432.5 193.85 441.05 210.65Q450.7 229.6 466.25 229.6Q485.5 229.6 504.9 213.9Q513.2 207.25 518.25 199.85Q523.4 192.35 523.5 186.6L525 186.6Q525.5 189.6 525.5 192.25Q525.5 212.45 502.75 229.35Q494.15 235.75 484.6 239.85Q475.85 243.6 471 243.6Q441.8 243.6 431.75 208.35Q428.6 197.25 427.75 183.9L427.5 172.35Q427.5 131.35 439.85 94.1Q456.4 44.2 490 24.5Q511.6 25.05 518.4 27.6M400.55,35.15L399.5 35.75Q395.75 33 390.5 30.75Q383.55 27.75 378.25 27.75Q346 27.75 330.55 94.55Q322.8 128.05 321.5 163L321.3 173.35Q321.45 184.4 323.5 193.35Q329.9 221.6 352.5 221.6Q359.75 221.6 368.5 218.35Q377.45 215.05 384.8 209.5Q402.6 196.05 399.5 179.85L400 179.1Q401.2 181.3 402.55 187.35L402.75 185.85L402.75 151L383.3 152.55L364 153.5L356.5 153.25Q355.7 152.05 355.4 151Q355 149.8 355 148Q355 146.2 355.4 145Q355.7 143.95 356.5 142.75Q372.65 142.75 388.95 140.95L403.65 140.05Q407.2 140.85 407.5 146.7Q407.7 150.9 407.25 167.5Q407.25 181.8 405.65 198.65Q403.45 222.2 402.75 234.6L402.05 235.05L401 235.85Q399.45 234.6 398.95 229.45L398.75 224.1Q398.75 220.85 400.1 208.15Q396.25 213.9 391.3 219.15Q375.6 235.85 361 235.85Q328 235.85 319 200.9Q316.15 189.8 316.05 176.1L316.5 163.35Q316.5 117.6 329.75 78Q333.8 65.8 337.9 56.75Q343.2 45.05 350 35.25Q353.2 30.55 360.7 24.2Q369.25 16.95 374 16.25Q388.15 14.2 396.15 21.15Q403.15 27.25 401 34.75L400.55 35.15M437.55,284.4Q438.25 298.2 438.25 317Q438.25 318.95 437.65 324.5L436.25 334.6L436.25 374.25Q439.75 372.25 447 370.2Q459.5 366.6 477.9 364.1Q495.95 361.6 508.75 361.6L512.75 361.7Q513.1 346.05 513.9 326.7Q516.3 270.6 521.25 247.6Q523 252 523 258.5L522.15 268.45Q521.25 277.1 521.25 278.35L519.5 330.1L518.9 342.5L517.5 360.85L517.5 362.1Q522.75 362.8 522.75 364.75Q522.75 368.2 522.05 369.3Q521.05 370.85 517.5 371.9L517.5 403.6Q518.5 408.85 518.5 420.85Q518.5 430.85 514.05 475.55Q509.75 519.1 508.5 524.35Q505.5 521.8 505.5 517.25Q505.5 512.85 506.6 500.7L509 473.3Q512.5 429.15 512.5 382.6L512.55 372.95Q502.6 374.7 472 378.85L457.1 380.05L442.75 381.1Q441.15 381.25 439.4 382.45Q437.7 383.6 436.5 383.6L436.2 383.6Q434.8 406.2 433.75 451.55Q432.1 493.3 426.5 521.35Q424.9 520 424.05 516.7Q423.5 514.45 423.5 512.75L426.5 483.55Q429.5 454.8 429.5 444.85Q429.5 418.6 431.75 378.1L431.75 330.85Q433.4 317.85 433.05 299.5Q432.25 279 432.25 268.6Q431.3 265.1 431.1 261.2Q430.65 253.5 434.25 251.35Q436.6 265.5 437.55 284.4M336.4,273.25Q338.35 269.65 339.95 267.55Q344.85 261.1 353.5 258.6Q374.45 252.65 387.2 256.6Q392.25 258.1 395 260.95Q397.5 263.5 397.5 266.25L397.25 269.6L397.4 270Q397.4 270.35 395.85 270.35Q393.85 270.35 392.4 269.55L389.7 267.85Q385.45 265.35 376.25 265.35Q332.1 265.35 316 337.65Q307.85 374.1 308.5 414.1L308.45 427.3Q308.95 442.3 311.5 454.65Q319.6 493.85 345.5 493.85Q363.3 493.85 368.65 493.35Q377.3 492.6 382.6 489.5Q387.8 486.5 394.3 478.6L410.75 457.1L411.25 457.1L411.5 458.25Q409 474.65 399.3 488.2Q385.4 507.6 363 507.6Q322.1 507.6 309.55 472.35Q305.05 459.75 303.9 441.7Q303.5 435.3 303.5 414.25Q303.5 391.8 306.25 369.25Q308.55 350.15 313.75 323.85Q317.8 302.65 333.25 278.85L336.4 273.25M302.25,25.6Q302.25 44.95 296.8 118.55Q290.4 205.7 284.25 232.85Q279.55 224.1 275.5 208.45Q271.4 190.95 269.25 183.35L261.7 158.15Q256.45 141.3 254.25 133.25Q244.9 100.4 224 32.75L223.75 32.75Q221.45 64.8 219.35 129.75Q216.65 188.3 209.25 227.6L207.75 227.6Q207.25 224.6 207.25 222.75Q207.25 214.4 209.65 196.75Q212 179.05 212 169.85Q212.75 163.3 212.65 144.05Q212.5 127.85 214.75 118.25Q215.5 108.3 216.05 92.5L217.05 66Q218.45 34.05 222.5 15.25Q238.5 57.8 254.85 114.2L282.25 213.1L282.75 213.35Q288.2 193.5 289.6 164.3Q290.4 131.45 291.75 114.75Q292.5 105.55 292.95 89.75L293.75 63.5Q295.1 32.15 300.25 17Q302.25 20.45 302.25 25.6M193.25,97.25L193.25 222.35Q196.7 258.75 197.25 274.25L197.5 317.25Q197.5 347.9 196.6 367.95Q195.6 390.5 192.5 422.6L189.55 448.85Q187.65 465.35 187.5 475.1L187.35 488Q187.1 495.75 186.25 501.35Q185.7 505.1 186.1 514.1Q185.95 522.35 182.5 527.1Q180.25 525.15 179.7 521.2Q179.5 519.85 179.5 514.35Q179.5 495.5 181.55 473.6L186 432.65Q192.5 374.25 192.5 316.75Q192.5 297.05 191.2 282.5Q189.75 266.6 189.5 237.6L188.75 160Q188.75 32.4 191.25 14Q194.15 32.4 194.3 55.65Q194.4 68.7 193.25 97.25M169.5,129.85Q169.5 133.35 163.8 182.4L155.5 253.85Q153.25 273.8 150.75 314.95Q147.6 351.9 140.25 376.85Q135.9 366.05 133.85 348.2Q132.05 327.7 130.75 317.6L126.7 288.15Q124.25 270.05 123.5 258.35L123.25 258.35L120.05 286.3Q118.1 303.45 116.3 314.95Q111 348.1 101 371.35Q98.75 371 98.35 369.6L98 367.35L98 292.35Q97.25 290.1 97 288.6L97 226.35Q93.25 195 93.25 155.1L93.75 127.5L94.15 127.1Q94.65 126.65 95.25 126.5Q96.9 143.15 98.3 173.95Q99.8 207.9 101 222.35L101 284.6L102 288.35L102 356.6Q107.4 344.6 110.1 323.4L112.15 306Q113.35 295.75 114.75 289.1Q115.95 266.35 117.05 255.15Q118.9 235.6 124.5 222.1Q126.5 242.85 132.35 286.55Q138.15 329.9 140.25 351.85L140.25 352.1Q145.15 315.9 154 225.55Q162.5 139.05 162.5 129.75Q162.5 129.45 164.4 126.55Q166.45 123.4 167.5 122.75Q169.5 125.75 169.5 129.85M140.25,13.25L141.4 15.3Q141.75 16.35 141.75 18.1Q141.75 21.25 140 23L131.8 23.3L123 24L94.3 24.3L77.65 24.6L77.75 37.6Q77.7 52.75 78 58.25L78 101Q80.15 110.65 80.1 123.5L79.25 146L79.25 190.1Q82.4 213.9 83.05 236.7Q83.25 244.3 83.25 281.6Q83.25 318.55 83.05 326.75Q82.6 347.6 80.25 376.1L80.25 415.85Q78.8 427.6 77.95 444.3L76.55 472.45Q74.55 506.4 68 528.85Q65.75 526.3 65.75 522.35Q65.75 515.05 70.45 466.2L75.75 410.6L75.75 371.6Q78.1 342.35 78.55 324.05Q78.75 316.6 78.75 281.6Q78.75 239.45 74.75 193.85L74.75 142.25Q76 137.75 76 127.6L74 81.1Q73.3 68.35 73.3 54.95Q73.35 35.95 75.4 24.65L65 25L32 25.5Q28.1 27.35 14 31L9.75 30.75Q9.25 27.75 9.25 25.85Q9.25 23 9.85 22Q10.5 20.8 12.8 20.05Q21.95 18.15 33 15L66 14L122.25 13.5L123 13L140.25 13.25M319,246.6L319 246.1Q322 249.4 322 251.85Q322 255.75 319 258.6L314.8 258.9L310 259.6L293.5 260.6L286 261.6L265.75 261.95L266.9 274.7Q268.25 291.7 268.25 300.1L267.5 432.1Q267.5 448.25 265.5 483.85L263.5 516.5Q263.5 522.75 261 527.1Q258.75 526.05 258.2 524Q258 523.35 258 521Q258 492.35 262.5 457.6L262.5 400.6Q261.75 391.6 261.75 372.1L264 284L263 272.55L262.05 262L256 262.1L248.9 262.85L242 263.6L234.2 264.1L230.5 264.6Q208.85 264.6 204.55 262.1Q203.15 261.25 203.55 260.15L204.25 258.75L204.25 256.05Q204.7 254.95 207.5 254.35Q212.65 253.15 243 251.1L257 250.1L287 249.6Q288.4 248.9 310 247.1L319 246.6" />
</g>
</svg>
