<?xml version="1.0" encoding="utf-8"?>
<svg version="1.1" id="Layer_1"
xmlns="http://www.w3.org/2000/svg"
xmlns:xlink="http://www.w3.org/1999/xlink"


xml:space="preserve">
q24.75 -55.2 15.35 -115.5q-4.7 -30.15 -18.8 -57.05q-25.05 -47.75 -79.7 -47.25q-4.45 4.8 -4.5 13.5q-0.35 59.65 -6.3 118.55q-5.95 58.7 -9.1 117.7q-0.4 7.45 -2.25 14.6q-4.6 17.25 3.15 29.6q6.45 -28.2 7.2 -58.5q1.5 -59.2 8.1 -117.75q5.7 -50.15 4.4 -99.95q11.05 0.55 21.5 3.3q28.8 7.5 44 32.25q31.95 52.1 25.05 113.5q-3.5 31.25 -19.75 57.95q-30.8 50.6 -89.3 61.4q-0.45 -0.2 -0.85 0q-0.85 1 -1 2.25q-0.15 2.2 0.05 4.5q33 -4.75 60.25 -25.45q24.7 -18.7 37.25 -46.7q-2.15 59.1 -4.8 118.45q-2.65 59.3 -8.05 118.45q-1.6 17.65 5.3 29.1q1.4 -1.15 1.5 -3q0.95 -17.2 2.25 -34.4q4.4 -59.1 7.1 -118.55q2.7 -57.7 1.05 -114.3q42.35 -4.4 84.6 -6.7q2.5 -4.85 0.3 -9.8q-10.75 -0.5 -21.5 -0.6q-50.75 3.55 -101.9 9.6q-29.45 3.5 -57.55 11.4q-2.05 5.25 0.25 10.35q27.85 -6 56.6 -9.6q-0.6 1.7 -0.65 3.9q-8.95 58.4 -9.85 117.25q1.35 2.6 4 2q2.2 -2.55 2.3 -6q1.3 -43.1 7.3 -85.5q8.35 -58.75 9.15 -116.95q-6.8 14.2 -7.5 32.45q-1.1 28.6 -5.4 56.75<g id="1546" transform="matrix(1, 0, 0, 1, -72.45, 0)">
<path style="fill:#000000;fill-opacity:1" d="M339.7,391.25Q312.45 411.95 279.45 416.7L278.7 416L277.7 415.2L277.25 413.7L276.95 412.2L276.75 410.7Q276.55 408.4 276.7 406.2Q276.85 404.95 277.7 403.95L278.55 403.4Q278.95 403.2 279.4 403.4L280.2 403.95L280.95 404.7Q339.45 393.9 370.25 343.3Q386.5 316.6 390 285.35Q396.9 223.95 364.95 171.85Q349.75 147.1 320.95 139.6Q310.5 136.85 299.45 136.3L294.15 135.5Q295.45 185.3 289.75 235.45Q283.15 294 281.65 353.2Q280.9 383.5 274.45 411.7Q266.7 399.35 271.3 382.1Q273.15 374.95 273.55 367.5Q276.7 308.5 282.65 249.8Q288.6 190.9 288.95 131.25Q289 122.55 293.45 117.75L293.8 124.75Q348.45 124.25 373.5 172Q387.6 198.9 392.3 229.05Q401.7 289.35 376.95 344.55Q364.4 372.55 339.7 391.25M167.9,131.3L132.1 135.4Q103.35 139 75.5 145L74.75 144.1Q72.45 139 74.5 133.75Q102.6 125.85 132.05 122.35Q183.2 116.3 233.95 112.75Q244.7 112.85 255.45 113.35L256.2 113.75L256.5 114.45Q258.7 119.4 256.2 124.25Q213.95 126.55 171.6 130.95Q173.25 187.55 170.55 245.25Q167.85 304.7 163.45 363.8Q162.15 381 161.2 398.2Q161.1 400.05 159.7 401.2Q152.8 389.75 154.4 372.1Q159.8 312.95 162.45 253.65Q165.1 194.3 167.25 135.2Q167.3 133 167.9 131.3M231.95,201.95Q232.65 183.7 239.45 169.5Q238.65 227.7 230.3 286.45Q224.3 328.85 223 371.95Q222.9 375.4 220.7 377.95Q218.05 378.55 216.7 375.95Q217.6 317.1 226.55 258.7Q230.85 230.55 231.95 201.95" />
</g>
</svg>
