<?xml version="1.0" encoding="utf-8"?>
<svg version="1.1" id="Layer_1"
xmlns="http://www.w3.org/2000/svg"
xmlns:xlink="http://www.w3.org/1999/xlink"


xml:space="preserve">
q-0.55 0.1 -1.05 0.5q-0.35 0.75 -0.55 1.55q-0.55 2.15 -0.35 4.45q-4.75 26.25 -4.5 54.25q0.45 59.4 -3.1 118.45q-3.6 59.75 -9.35 119.2q-2 16.8 4.2 29.45q7.2 2.2 14.45 0.3q33.05 5.65 59.8 -12.35q10.1 -6.8 17.05 -16.85q25.15 -36.3 31.1 -80.7q7.95 -59 -3.15 -117.7q-11.45 -60.6 -58.15 -99.85q-20.45 -17.2 -46.25 -20.8q-0.65 -0.2 -0.75 0.3q-14.9 -27.85 -45.5 -11.85q-14.25 7.4 -19.25 23.65q-13.25 43.2 -18.95 88.25q-4.65 36.95 -7.05 74.1q-0.25 7.35 -0.35 14.75q0.1 10.9 0.8 22q1.2 18.25 3.25 36.45q1.7 14.8 6.45 28.95q4.1 12.25 13.15 21.4q15.05 15.2 34.55 5.35q19.2 -9.8 32.35 -26.65q9.5 -12.1 6.55 -26q-18.5 35.65 -54.9 39.3q-21.15 1.85 -25.8 -19.65q-3.3 -15.1 -6.25 -30.5q-2.3 -12.25 -3.35 -24.7q-0.5 -6.3 -0.75 -12.6q-0.3 -6.35 -0.25 -12.7q0.1 -9.3 0.55 -18.55q26.85 5.3 54.3 4.85q3.95 -4.95 0.4 -10.55q-3.5 -87.4 36.7 -160.95q21.7 -8.1 41.75 3.5q32.55 16.25 56.55 43.65q29.2 39.15 34.25 88.45q6.05 59.35 -7.45 116.5q-9.2 39.1 -42.5 61.35q-4.65 3.1 -9.85 4q-31.65 5.45 -62.1 6.8q4.75 -48.65 8.35 -98.05q4.35 -59 5.35 -118.55q1.8 0.6 3.95 0.65q6.25 0.25 11.45 2.85q-3.7 6.25 -5.65 14.9q-13.2 57.65 -26.15 115.65q-3.25 14.55 -7.8 28.6q-5.3 16.45 -0.15 29.1q4.1 -6.7 5.6 -14.85q5.7 -30.65 12.55 -61q13.35 3.1 27.9 0.45q4 30.75 8.3 61.35q2.2 15.85 7.15 29.05q4.05 -19.95 -2.45 -41.5q-6.1 -20.15 -8.15 -41.4q0.4 -1.55 0.15 -3.15q-4.85 -48.35 -10.05 -96.4q-0.65 -0.2 -1.1 -1q-11.05 28.25 -15.75 59.35q-2.7 17.95 -3 36.1q15.15 -44.4 20.25 -90.85q19.05 71 49.25 137.85q5.15 -38.15 4.75 -80.6q-0.25 -29.55 0.5 -59.1q-62.7 -5.25 -125.3 0.95q-10.75 153.4 -17.5 306.9q-0.9 21 -0.25 41.8q0.2 5.4 1.35 10.7q7.65 -77.05 8.9 -156.3q0.8 -51.85 2.15 -103.75q0.6 -22.2 2.45 -44.3q2.55 -30.9 4.1 -61.65q-0.25 1.1 -0.35 2.25q-0.15 1.5 0 3q-7.7 39.95 -10.85 82.35q-2.15 29.15 -5.05 58.15q-1.45 2.75 -1.3 5.9q0.05 2.05 1.1 3.75q2.45 1.5 4.9 1.9q-7.65 58.85 -15.85 117.4q-2.25 15.95 1.65 29.15q0.75 -0.6 0.85 -1.3q7.95 -58.35 14.65 -116.95q1.8 -0.45 3.65 -1.5q7.2 -4.15 13.55 -9q-0.25 3.9 0.75 8.35q8.75 39.7 16.45 79.55q11.6 60 33.7 115.05q0.75 -0.6 0.75 -1.25q-0.6 -23.65 -9.45 -46.8q-9.05 -23.55 -14.1 -47.9q-11.4 -55.3 -24.6 -109.75q27.75 -22.8 38.4 -59.5q8.15 -28.05 -3.05 -55.45q-11.25 -27.65 -38.95 -34.3q-1.35 23.75 -13.95 45.1q-14.8 25.15 -40.35 32.95q6.05 -55.6 9.2 -109.95q25.4 4.1 36.05 28.55q6.8 15.6 5.85 32.55<g id="1564" transform="matrix(1, 0, 0, 1, -39.4, 0)">
<path style="fill:#000000;fill-opacity:1" d="M411.2,89.25L411.2 90.1L412.95 89.85L412.95 89.75Q438.75 93.35 459.2 110.55Q505.9 149.8 517.35 210.4Q528.45 269.1 520.5 328.1Q514.55 372.5 489.4 408.8Q482.45 418.85 472.35 425.65Q445.6 443.65 412.55 438L408.9 438.25Q401.65 440.15 394.45 437.95L393.95 437.6L393.45 442.45Q387.25 429.8 389.25 413L391.65 390.65Q397.4 331.2 401 271.45Q404.55 212.4 404.1 153Q403.85 125 408.6 98.75L408.2 97.5L408.05 96.75Q407.85 94.45 408.4 92.3Q408.6 91.5 408.95 90.75Q409.45 90.35 410 90.25L410.3 90.2L410.45 89.55Q410.55 89.05 411.2 89.25M324.2,111.25Q304.15 99.65 282.45 107.75Q242.25 181.3 245.75 268.7L299.85 270.95Q303.4 276.55 299.45 281.5Q272 281.95 245.15 276.65L243.25 313.15Q242.8 322.4 242.7 331.7Q242.65 338.05 242.95 344.4Q243.2 350.7 243.7 357Q244.75 369.45 247.05 381.7Q250 397.1 253.3 412.2Q257.95 433.7 279.1 431.85Q315.5 428.2 334 392.55Q336.95 406.45 327.45 418.55Q314.3 435.4 295.1 445.2Q275.6 455.05 260.55 439.85Q251.5 430.7 247.4 418.45Q242.65 404.3 240.95 389.5Q238.9 371.3 237.7 353.05Q237 341.95 236.9 331.05L236.9 316.3Q237 308.9 237.25 301.55L238.05 286.7Q240.45 249.55 245.1 212.6Q250.8 167.55 264.05 124.35Q269.05 108.1 283.3 100.7Q313.9 84.7 328.8 112.55L325 112.45L324.2 111.25M414.95,100.75Q412.8 100.7 411 100.1L409 207.75Q408 267.3 403.65 326.3Q400.05 375.7 395.3 424.35Q425.75 423 457.4 417.55Q462.6 416.65 467.25 413.55Q500.55 391.3 509.75 352.2Q523.25 295.05 517.2 235.7Q512.15 186.4 482.95 147.25Q458.95 119.85 426.4 103.6Q421.2 101 414.95 100.75M364.8,104.25Q370 152.3 374.85 200.65L374.95 200.75L375.2 201.5L375.55 203Q375.8 204.6 375.4 206.15L376.35 216.1Q378.4 237.35 384.5 257.5Q391 279.05 386.95 299Q382 285.8 379.8 269.95Q375.5 239.35 371.5 208.6Q356.95 211.25 343.6 208.15Q336.75 238.5 331.05 269.15Q329.55 277.3 325.45 284Q320.3 271.35 325.6 254.9Q330.15 240.85 333.4 226.3Q346.35 168.3 359.55 110.65Q361.5 102 365.2 95.75L364.8 104.25M370.35,199.45L362.75 123.6L345.25 200.75L370.35 199.45M376.7,367.85Q377.1 410.3 371.95 448.45Q341.75 381.6 322.7 310.6Q317.6 357.05 302.45 401.45Q302.75 383.3 305.45 365.35Q310.15 334.25 321.2 306Q321.65 306.8 322.3 307L323.2 307L366.5 414.75L377.2 308.75Q376.45 338.3 376.7 367.85M180.2,86.75L114.05 87.2Q112.5 117.95 109.95 148.85Q108.1 170.95 107.5 193.15Q106.15 245.05 105.35 296.9Q104.1 376.15 96.45 453.2L94.8 446.65Q93.65 441.35 93.45 435.95Q92.8 415.15 93.7 394.15Q100.45 240.65 111.2 87.25L39.4 87.95L40.5 79.5L54.3 78.4Q116.9 72.2 179.6 77.45L180.2 86.75M187.95,92Q215.65 98.65 226.9 126.3Q238.1 153.7 229.95 181.75Q219.3 218.45 191.55 241.25Q204.75 295.7 216.15 351Q221.2 375.35 230.25 398.9Q239.1 422.05 239.7 445.7Q239.7 446.35 238.95 446.95Q216.85 391.9 205.25 331.9Q197.55 292.05 188.8 252.35Q187.8 247.9 188.05 244Q181.7 248.85 174.5 253Q172.65 254.05 170.85 254.5L162.45 328.7Q155.75 387.3 147.8 445.65Q147.7 446.35 146.95 446.95Q143.05 433.75 145.3 417.8Q153.5 359.25 161.15 300.4L166.6 254.65Q164.15 254.25 161.7 252.75Q160.65 251.05 160.6 249Q160.45 245.85 161.9 243.1L162.45 242.5L167.95 241.4Q170.85 212.4 173 183.25Q176.15 140.85 183.85 100.9L182.7 100.75L182.35 98.5Q182.2 97 182.35 95.5Q182.45 94.35 182.7 93.25L187.95 92.1L187.95 92M220.85,129.6Q210.2 105.15 184.8 101.05Q181.65 155.4 175.6 211L172.4 240.2Q197.95 232.4 212.75 207.25Q225.35 185.9 226.7 162.15Q227.65 145.2 220.85 129.6" />
</g>
</svg>
