<?xml version="1.0" encoding="utf-8"?>
<svg version="1.1" id="Layer_1"
xmlns="http://www.w3.org/2000/svg"
xmlns:xlink="http://www.w3.org/1999/xlink"


xml:space="preserve">
q-3.55 3.2 -1.05 8.3q-4.05 70.65 -6.15 141.4q-0.15 5.75 0.75 11.4q0.9 5.4 2.7 10.4q8.4 -25.8 7.25 -56.05q-0.6 -16.45 -0.65 -32.85q4.25 -5.55 0.45 -11.95q-19.35 -0.7 -38.35 5.05q36.2 3.45 72.6 2.5q4.7 -6.2 0.4 -13.05q-37.9 -3.55 -73.7 1.5q-42.25 4.7 -85.2 6q-0.9 1.35 -1.1 2.95q-0.75 5 2.85 8.3q1.1 29.4 0.85 59.2q-0.4 59.55 -2.8 118.45q0.7 2.8 3.25 1.5q3.7 -19.1 3.85 -39q0.3 -44.4 1.7 -88.45q0.85 -26.55 -2.3 -51.85q1.2 -1.7 1.5 -3.75q0.8 -4.75 -1.5 -9q-0.35 -0.4 -0.8 -0.5q-17.35 41.75 -5.65 86q1.25 4.65 5.3 6.9q13.8 7.6 30.2 1q21.25 -8.55 13.15 -26.9q-16.45 15.2 -40 14.5q-9.5 -16.5 -8.4 -35.7q19.85 -2.9 40.4 -4.8q3.65 -7 -0.6 -13.4q-20.2 -0.6 -38.6 6.05q1.35 -5.9 4.05 -11.2q13.5 -26.65 41.45 -10.9q2.55 -21.45 -23.8 -18.2q-6.55 1.35 -12.75 5.1<g id="1560" transform="matrix(1, 0, 0, 1, -136.9, 0)">
<path style="fill:#000000;fill-opacity:1" d="M349.15,180.2Q384.95 175.15 422.85 178.7Q427.15 185.55 422.45 191.75Q386.05 192.7 349.85 189.25L351.5 256Q370.5 250.25 389.85 250.95L390.15 251.3Q393.95 257.7 389.7 263.25L351.55 266.9L351.55 282.55Q351.6 298.95 352.2 315.4Q353.35 345.65 344.95 371.45Q343.15 366.45 342.25 361.05Q341.35 355.4 341.5 349.65L342 330.45Q344.1 259.7 348.15 189.05L347.85 188.9Q345.35 183.8 348.9 180.6L349.15 180.2M232.4,178.75Q232.85 178.85 233.2 179.25Q235.5 183.5 234.7 188.25Q234.4 190.3 233.2 192L190.5 193.15Q193.65 218.45 192.8 245Q191.4 289.05 191.1 333.45Q190.95 353.35 187.25 372.45Q184.7 373.75 184 370.95Q186.4 312.05 186.8 252.5Q187.05 222.7 185.95 193.3L140.5 194.5Q136.9 191.2 137.65 186.2Q137.85 184.6 138.75 183.25Q181.7 181.95 223.95 177.25L232.4 178.75M266.2,268.6Q272.4 264.85 278.95 263.5Q305.3 260.25 302.75 281.7L302.45 282.45Q274.5 266.7 261 293.35Q258.3 298.65 256.95 304.55L256.85 305Q275.25 298.35 295.45 298.95Q299.7 305.35 296.05 312.35L295.45 312.95Q274.9 314.85 255.05 317.75Q253.95 336.95 263.45 353.45Q287 354.15 303.45 338.95Q311.55 357.3 290.3 365.85Q273.9 372.45 260.1 364.85Q256.05 362.6 254.8 357.95Q243.1 313.7 260.45 271.95L266.2 268.6" />
</g>
</svg>
