<?xml version="1.0" encoding="utf-8"?>
<svg version="1.1" id="Layer_1"
xmlns="http://www.w3.org/2000/svg"
xmlns:xlink="http://www.w3.org/1999/xlink"


xml:space="preserve">
q-32.8 1.8 -64.6 8.75q0.2 -11.1 0.55 -22.25q1 -30.2 2.5 -59.3q-0.25 0 -0.3 0.1q-3.2 9.45 -4.2 19.45q-5.8 59.2 -2.95 119.3q0.35 7.6 -0.05 14.9q-1.15 19.4 1.95 36.85q6.1 -5.25 5.75 -15.05q-1.55 -43 -1 -86.2q-0.1 35.1 0.3 70.3q0.15 15 -1.2 29.8q-1.8 19.55 1.45 36.9q6 -21.7 4.9 -45.05q-2.1 -45.7 -1.4 -91.6q4.1 -7.35 -0.6 -14.15q1 -30.4 -1.15 -59.3q-6.15 17.05 -6.4 38.25q1.95 -0.65 1.9 -3q-0.3 -20.5 -24.65 -21.25q-13.9 0.55 -22.8 10.8q-21.3 24.4 -31 55.6q-17.8 57 -20.2 116.5q-2.1 52.2 14.35 100.95q10.1 30.05 40.85 15.3q43.05 -20.65 51.05 -65.15q-0.4 -0.15 -0.9 0q-0.25 1.4 -1.45 1.75q-0.35 0.1 -0.7 0.3q-19.1 34.55 -57.4 49.05q-18.15 6.85 -23.75 -10.6q-18.35 -57.35 -12.05 -118.05q5.9 -57.1 27.25 -110.65q7.95 -19.9 26.3 -28.85q22.3 -10.85 35.4 7.1q-1.8 -0.2 -1.9 1.55q-3.35 59.2 -6.3 118.6q-3 58.8 -6.45 117.2q-2.6 -9.9 -4.5 -19.95q-5.6 -29.85 -10.6 -59.75q-9.9 -59.35 -19.5 -118.75q-4.75 -29.3 -4 -59.25q0.25 -10.2 -5.4 -13.5q-2.05 7.15 -2.8 14.85q-5.8 59 -8.4 118.65q-2.55 59.15 -6.2 118.4q-0.9 14.95 -3.5 29.75q-2.3 13.45 2.9 21.8q3.4 -8.85 4.25 -18.65q5.15 -59 6.55 -118.55q1.35 -59.1 7.95 -117q7 51.2 15.85 102.1q10.3 59.1 18.65 118.5q2.45 17.35 10.75 28.85q8.2 -55.75 9.25 -113.2q1.15 -59.7 6.5 -118.6q2.65 -29.5 4.9 -59.05q1.25 -16.55 -4.9 -30.1q-8.7 58.5 2.15 116.2q2.9 15.25 12.15 27.55q24.1 32.05 58.8 7.6q24.15 -17.05 25.1 -43.65q-7.65 7.4 -18.05 9q-36.15 5.6 -44.9 -30.65q-8.3 -34.65 -6.55 -70.35q33.7 -8.3 67.9 -0.05q0.65 -3.75 -2.05 -6.25q-0.9 -0.85 -1.55 -1.95q-0.75 -0.4 -1.5 -0.65q-14.65 -5.2 -30.25 -4.85q-20.5 -1.3 -37.05 7.65q3.9 -42.35 20.2 -81.7q13.75 -33.1 48.45 -31.9q7.95 3.25 12.35 10.45q2.6 4.25 3.15 9.05q-0.3 1.9 1.75 2.35q2.8 -4.25 1.6 -9.7q-5.7 -26.05 -32.6 -26.3q-13.7 2.8 -22.6 13.9q-28.55 35.75 -35.35 81.4q-46.75 1.7 -92.15 14.8q16.65 2.35 34.15 -2.15q6.6 -1.8 13.5 -2.4q-0.15 7.55 -1.5 14.85q-3.15 17.4 -1.2 34.65q0.75 6.9 3.8 9.6q7.75 -97.9 8.45 -196.3q0.25 -33.3 -1.35 -66.7q2.25 -5.2 -1.7 -9q-2.45 15.3 -3.45 31.35q-3.05 51.2 -5.5 102.55q-0.85 2.9 -0.75 6q0.1 2.4 1.35 4.5q-2.8 59.45 -8.3 118.45q-1.05 11.2 -3.2 22.2q-3.45 17.75 4.65 29.3q7.5 -57.4 9.6 -116.25q1 -28.35 3.1 -56.55q7.85 0.4 14.95 -2.15q1.9 6 5.15 12.2q28 53.2 42.45 110.9q7.4 29.55 22.95 53.35q4.5 -4.5 1.95 -10.55q-9.35 -22.5 -16.3 -45.85q-5.1 -16.95 -11.75 -33.4q-18.25 -45.15 -38.1 -89.65q3.55 -2.05 6.9 -4.95q50.4 -43.6 38 -105.85q-7.8 -39 -46.7 -43.2q-9 -0.6 -16.25 3.9q-0.35 2.65 0.35 5.15q0.15 0.75 0.6 1.4q16.95 13.8 19.5 35.6q2.45 21.25 -6.55 40.55q-8.85 18.9 -25 32.1q-8 6.5 -17.3 10.5q7.35 -66.05 3.8 -132.5q21.95 -5.1 39.55 9.2<g id="1568" transform="matrix(1, 0, 0, 1, -14.5, 0)">
<path style="fill:#000000;fill-opacity:1" d="M517.05,159.25Q517.3 138.05 523.45 121Q525.6 149.9 524.6 180.3L524.25 192.7L529.45 192.5Q534.15 199.3 530.05 206.65L529.45 207.5L523.95 207.8Q523.25 253.7 525.35 299.4Q526.45 322.75 520.45 344.45L517.2 345.2Q513.95 327.85 515.75 308.3Q517.1 293.5 516.95 278.5Q516.55 243.3 516.65 208.2L451.95 212.5Q451.4 255.7 452.95 298.7Q453.3 308.5 447.2 313.75Q444.1 296.3 445.25 276.9Q445.65 269.6 445.3 262Q442.45 201.9 448.25 142.7Q449.25 132.7 452.45 123.25L454.9 120.35Q454.95 120.25 455.2 120.25Q453.7 149.35 452.7 179.55Q452.35 190.7 452.15 201.8Q483.95 194.85 516.75 193.05L517.05 159.25M449.05,86.15Q430.7 95.1 422.75 115Q401.4 168.55 395.5 225.65Q389.2 286.35 407.55 343.7Q413.15 361.15 431.3 354.3Q469.6 339.8 488.7 305.25L489.5 304.55Q489.85 304.35 490.2 304.25Q491.4 303.9 491.65 302.5L492.2 301Q492.7 300.85 493.1 301L493.65 301.5L493.9 302.25L493.95 303Q485.95 347.5 442.9 368.15Q412.15 382.9 402.05 352.85Q385.6 304.1 387.7 251.9Q390.1 192.4 407.9 135.4Q417.6 104.2 438.9 79.8Q447.8 69.55 461.7 69Q486.05 69.75 486.35 90.25Q486.4 92.6 484.45 93.25Q471.35 75.3 449.05 86.15M382.35,94.35Q380.1 123.9 377.45 153.4Q372.1 212.3 370.95 272Q369.9 329.45 361.7 385.2Q353.4 373.7 350.95 356.35Q342.6 296.95 332.3 237.85Q323.45 186.95 316.45 135.75Q309.85 193.65 308.5 252.75Q307.1 312.3 301.95 371.3Q301.1 381.1 297.7 389.95Q292.5 381.6 294.8 368.15Q297.4 353.35 298.3 338.4Q301.95 279.15 304.5 220Q307.1 160.35 312.9 101.35Q313.65 93.65 315.7 86.5Q321.35 89.8 321.1 100Q320.35 129.95 325.1 159.25Q334.7 218.65 344.6 278Q349.6 307.9 355.2 337.75Q357.1 347.8 359.7 357.7Q363.15 299.3 366.15 240.5Q369.1 181.1 372.45 121.9L375.55 65.8Q375.65 64.05 377.45 64.25Q383.6 77.8 382.35 94.35M225.35,112.4Q234.25 101.3 247.95 98.5Q274.85 98.75 280.55 124.8Q281.75 130.25 278.95 134.5L277.95 134.1Q275.9 133.65 276.2 131.75Q275.65 126.95 273.05 122.7Q268.65 115.5 260.7 112.25Q226 111.05 212.25 144.15Q195.95 183.5 192.05 225.85L191.9 227.9Q208.45 218.95 228.95 220.25Q244.55 219.9 259.2 225.1Q259.95 225.35 260.7 225.75Q261.35 226.85 262.25 227.7Q264.95 230.2 264.3 233.95L263.7 236.25L262.95 236.5L262 236.2L261.2 235.75L260.4 236.3L259.2 236.5Q225 228.25 191.3 236.55Q189.55 272.25 197.85 306.9Q206.6 343.15 242.75 337.55Q253.15 335.95 260.8 328.55L288.2 301.5Q287.25 328.1 263.1 345.15Q228.4 369.6 204.3 337.55Q195.05 325.25 192.15 310Q181.3 252.3 190 193.8Q196.8 148.15 225.35 112.4M108.85,60.7L65.1 69.4Q66.7 102.8 66.45 136.1L66.15 176.3Q65.45 274.7 57.7 372.6Q54.65 369.9 53.9 363Q51.95 345.75 55.1 328.35Q56.45 321.05 56.6 313.5L62.4 69.7Q55.5 70.3 48.9 72.1Q31.4 76.6 14.75 74.25L14.5 66Q59.9 52.9 106.65 51.2L107.15 51.7Q111.1 55.5 108.85 60.7M105.75,71.4Q105.05 68.9 105.4 66.25L105.7 64.75Q112.95 60.25 121.95 60.85L121.95 60.75Q160.85 64.95 168.65 103.95Q181.05 166.2 130.65 209.8Q127.3 212.7 123.75 214.75Q143.6 259.25 161.85 304.4Q168.5 320.85 173.6 337.8Q180.55 361.15 189.9 383.65Q192.45 389.7 187.95 394.2Q172.4 370.4 165 340.85Q150.55 283.15 122.55 229.95Q119.3 223.75 117.4 217.75Q110.3 220.3 102.45 219.9Q100.35 248.1 99.35 276.45Q97.25 335.3 89.75 392.7Q81.65 381.15 85.1 363.4Q87.25 352.4 88.3 341.2Q93.8 282.2 96.6 222.75L96.8 219.25L95.45 219Q94.2 216.9 94.1 214.5Q94 211.4 94.85 208.5L95.45 207L97.4 206.7Q99.85 155.35 102.9 104.15Q103.9 88.1 106.35 72.8Q105.9 72.15 105.75 71.4M107.35,73Q110.9 139.45 103.55 205.5L114.85 202.05L115.2 195.75L117.55 200.95Q126.85 196.95 134.85 190.45Q151 177.25 159.85 158.35Q168.85 139.05 166.4 117.8Q163.85 96 146.9 82.2Q129.3 67.9 107.35 73" />
</g>
</svg>
