<?xml version="1.0" encoding="utf-8"?>
<svg version="1.1" id="Layer_1"
xmlns="http://www.w3.org/2000/svg"
xmlns:xlink="http://www.w3.org/1999/xlink"


xml:space="preserve">
q-4.45 -3.1 -9.4 -5.1q-8.7 -3.7 -18.05 -4.7q-4.25 2.55 -2.4 7.45q-9.3 79.95 -10.6 161q-15.8 93.3 -7.9 183.8q16.25 106.25 44 208.65q0.4 1.4 1.65 2.6q-6 -55 -17.1 -109.7q-6.7 -32.85 -14.1 -65.8q-4.45 -19.7 -10.1 -39.05q22.8 -21.45 32.3 -51.75q3.8 -12 5.6 -24.4q1 -7.1 1.1 -14.35q0.15 -9.2 -0.45 -18.35q-1.6 -24.05 -15.2 -43.5q-2.4 -3.45 -5.3 -6.5q-6.3 49.9 -49.1 72.4q3.8 -43.95 6.15 -88.25q1.5 -28.1 0.25 -54.85q11.65 1.85 20 10.7q23.9 25.3 23.75 61.05q-1.4 7.05 -2.35 14.2q-27.35 16.7 -27.95 52.35q-0.45 27.35 -2.65 54.95q-2.75 34.65 8.25 67.1q2.1 6.2 5.2 11.9q3.15 5.95 6.9 11.3q26.6 -8.1 27.1 -33.3q0.1 -3.9 -2.1 -7.2q-5.7 15.05 -21.35 17.4q-23.6 -35.95 -17.85 -80.05q17.2 1.45 34.2 -3.5q1.7 -2.7 1.7 -6q0 -3.55 -2.05 -6.25q-17.1 -0.4 -33.75 4.9q-3.8 -47.05 24.8 -75.9q4 -3.95 10.6 -1.85q2.7 5.5 7.9 8.85q0.4 0.2 1.05 0q0.6 -20.8 -19.75 -24.35q-8.8 26.6 -13.7 55.1q-10.1 58.35 -22.6 116.35q-12.4 57.85 -23.25 116.1q-2.75 14.6 -6.5 28.85q-4.35 16.65 2.35 28.9q4.95 -7.65 6.4 -16.95q9.35 -58.25 20.3 -116.25q17.7 -0.65 35.3 -1.05q2.15 59.15 2.3 118.45q0.1 31.15 6.85 59q4.25 -3.8 3.75 -10.25q-4.65 -59 -5.7 -118.45q-1.05 -59.35 -4.3 -118.5q-3 -53.8 -9.15 -106.55q-20.2 -2.2 -40.5 3.65q-16.85 5 -33.5 10.9q-3.45 18 -3.15 36.35q0.8 51.7 -2 103.25q-4.4 81.85 -5 163.7q-0.1 15.1 -3.1 29.75q-1.45 7 -1.05 14.25q0.45 8 4.15 15q5.75 -18.65 5.25 -38.25q-0.95 -39.35 1.05 -78.5q3.75 -73.6 5.95 -147.1q1.45 -49.3 -0.5 -98.7q14.2 -0.75 27.9 2.8q7.65 1.85 15.65 2q1 -0.8 1.35 -1.95q-16.85 11.3 -26.45 28.95q-11.3 20.85 -12.35 44.65q-0.9 20 0.25 39.9q1.1 19 10.2 35.2q12.35 21.8 33.55 7.45q19.45 -13.25 20.05 -36.9q-11.3 16.5 -28.5 27.05q-6.25 3.9 -12.8 1.35q-2.6 -1 -4 -3.5q-6.7 -12.25 -10.85 -25.5q-13.45 -43.15 9.05 -81.35q8.6 -14.55 21.6 -25.3q1.85 -0.65 2.2 -3.6q0.8 -7.35 -3.05 -13.5q-2.15 -3.45 -5.35 -5.95q0.05 -1.85 -0.35 -3.6q-0.2 -1 -0.75 -1.85q-20.1 -5.5 -40.35 0.2<g id="1587" transform="matrix(1, 0, 0, 1, -52.8, 0)">
<path style="fill:#000000;fill-opacity:1" d="M327.2,95.65Q330.1 98.7 332.5 102.15Q346.1 121.6 347.7 145.65Q348.3 154.8 348.15 164Q348.05 171.25 347.05 178.35Q345.25 190.75 341.45 202.75Q331.95 233.05 309.15 254.5Q314.8 273.85 319.25 293.55Q326.65 326.5 333.35 359.35Q344.45 414.05 350.45 469.05Q349.2 467.85 348.8 466.45Q321.05 364.05 304.8 257.8L290.8 265.3L277.7 449.2Q269.8 358.7 285.6 265.4L284.95 253.25L287.2 252.25Q288.5 171.2 297.8 91.25L293.2 91L292.55 89.45Q290.7 84.55 294.95 82Q304.3 83 313 86.7Q317.95 88.7 322.4 91.8L324.1 92.95L325.75 94.25L327.2 95.65M343.45,163.25Q343.6 127.5 319.7 102.2Q311.35 93.35 299.7 91.5Q300.95 118.25 299.45 146.35Q297.1 190.65 293.3 234.6L292 249.85Q334.8 227.35 341.1 177.45Q342.05 170.3 343.45 163.25M395.6,274.25Q394.95 274.45 394.55 274.25Q389.35 270.9 386.65 265.4L384.5 264.85Q377.9 262.75 373.9 266.7Q345.3 295.55 349.1 342.6Q365.75 337.3 382.85 337.7Q384.9 340.4 384.9 343.95Q384.9 347.25 383.2 349.95Q366.2 354.9 349 353.45L348.6 354.65Q342.85 398.75 366.45 434.7L370.85 434.1Q386.5 431.75 392.2 416.7L392.15 414.9L394.2 414.45L396.95 411.7Q399.15 415 399.05 418.9Q398.55 444.1 371.95 452.2L365.2 450.7L362.7 447.1Q358.95 441.75 355.8 435.8Q352.7 430.1 350.6 423.9Q339.6 391.45 342.35 356.8Q344.55 329.2 345 301.85Q345.6 266.2 372.95 249.5L375.85 249.9Q396.2 253.45 395.6 274.25M245.55,98.2Q251.7 150.95 254.7 204.75Q257.95 263.9 259 323.25Q260.05 382.7 264.7 441.7Q265.2 448.15 260.95 451.95Q254.2 424.1 254.1 392.95Q253.95 333.65 251.8 274.5L251.1 257.1Q233.5 257.5 215.8 258.15L206.15 310Q195.2 368 185.85 426.25Q184.4 435.55 179.45 443.2Q172.75 430.95 177.1 414.3Q180.85 400.05 183.6 385.45Q194.45 327.2 206.85 269.35Q219.35 211.35 229.45 153Q234.35 124.5 243.15 97.9L243.85 87L244.2 87L244.9 92.7L244.95 92.5L245.55 98.2M172.85,78.2L173.1 78.55L173.75 80L174.3 83L174.3 86L173.8 88.3Q173.45 89.45 172.45 90.25L157 91.2Q149 91.05 141.35 89.2Q127.65 85.65 113.45 86.4Q115.4 135.8 113.95 185.1Q111.75 258.6 108 332.2Q106 371.35 106.95 410.7Q107.45 430.3 101.7 448.95Q98 441.95 97.55 433.95Q97.15 426.7 98.6 419.7Q101.6 405.05 101.7 389.95Q102.3 308.1 106.7 226.25Q109.5 174.7 108.7 123Q108.4 104.65 111.85 86.65L52.8 100.2L53 89.5Q69.65 83.6 86.5 78.6Q106.8 72.75 127 74.95L169.95 77.5L172.85 78.2M181.45,90.5Q184.65 93 186.8 96.45Q190.65 102.6 189.85 109.95Q189.5 112.9 187.65 113.55L186.2 108.5L180.7 102.25L175.7 102.25Q162.7 113 154.1 127.55Q131.6 165.75 145.05 208.9Q149.2 222.15 155.9 234.4Q157.3 236.9 159.9 237.9Q166.45 240.45 172.7 236.55Q189.9 226 201.2 209.5Q200.6 233.15 181.15 246.4Q159.95 260.75 147.6 238.95Q138.5 222.75 137.4 203.75Q136.25 183.85 137.15 163.85Q138.2 140.05 149.5 119.2Q159.1 101.55 175.95 90.25L181.45 90.5M190.45,180.75L141.95 181.75L141.7 174.25L149.8 171.65Q170.05 165.95 190.15 171.45L190.5 171.75Q191.05 172.6 191.25 173.6Q191.65 175.35 191.6 177.2L191.2 179.05L190.45 180.75M250.65,246.6L242.65 124.8L218 246.05L250.65 246.6" />
</g>
</svg>
