<?xml version="1.0" encoding="utf-8"?>
<svg version="1.1" id="Layer_1"
xmlns="http://www.w3.org/2000/svg"
xmlns:xlink="http://www.w3.org/1999/xlink"


xml:space="preserve">
q-6.75 18.25 -12.7 36.95q-14.7 46.4 -27.8 93.25q-2.5 -17.3 -11.6 -33.5q-28.95 -51.55 -54.8 -104.4q-5.05 10 2.7 23q7.05 11.85 13.15 24.2q25.05 50.45 47.65 101.1q-7.95 29.05 -16.5 57.65q-10.6 35.3 -21.9 70.25q-6.2 19.25 -0.65 35.5q10.85 -29.6 18.85 -61.75q14.3 -57.4 31.5 -114.55q17.1 -56.9 35.9 -113.15q5.05 -15.1 3.25 -29q-2.9 0.5 -4.1 3.7q-4.9 -26.8 -10.2 -53.55q-11.45 -58 -20.7 -115.6q-0.35 0.2 -0.6 0.5q-1.8 2 -1.65 5.55q-3.65 13.25 -5.45 28.65q-2.8 22.85 -6.15 45.6q-0.5 1.05 -0.55 2.25q-0.2 1.55 0.15 3q0.1 0.95 0.65 1.6q-4.7 30.65 -10.3 61.15q-5.4 29.2 -14.05 57.7q-4.3 14.15 3.9 20.75q5.05 -13 7.5 -26.9q10.05 -55.75 17.35 -111.85q23.9 1.1 47.6 0.85q9.5 58.05 17.35 116.35q2.15 16.1 8.25 28.3q2.55 -2.35 2.2 -5.95q-4.25 -44.35 -11.6 -88.6q-4.7 -28.1 -9.75 -56.15q2.95 -7.45 -1.7 -13.45q-74.9 8.5 -150.45 11.25q-1.85 4.95 0.2 9.7q39.3 1.6 78.2 -0.4q-3.25 12.6 -4.9 27.5q-6.35 58.65 -11.1 117.8q-4.7 58.95 -12 117.6q-2.15 17.1 3.55 29.45q0.85 -0.75 1.05 -1.6q5.8 -29.35 7.45 -59.85q1.65 -29.85 4 -59.45q4.7 -59 12.75 -117.4q3.8 -27.35 1.25 -54.15q36.05 -1.95 71.7 -7q-10.25 52.75 -17.75 106.3q-8.3 58.85 -19.25 117.35q-3.35 17.95 -9.35 35.3q-6 17.35 2.15 28.7q3.2 -5.5 4.35 -11.9q10.15 -58.25 20.7 -116.45q6.05 1.2 12.5 -1.45q1.7 19.65 8 38.95q18.45 56.25 34.2 112.5q4.55 16.15 13.1 27.05q3.7 -9.5 0.2 -19.45q-11.55 -27.25 -19.65 -55.8q-14.95 -52.6 -32.55 -104.45q44.4 -24 42.55 -76.7q-1.45 -41.4 -44.85 -44.5q-2.7 1 -5.05 2.7q-1.1 0 -1.3 1.05q27.15 14.35 18.6 43.85q-12.6 43.35 -57.95 55.85q5.5 -33.9 10.1 -67.9q2.2 -16.15 2.25 -31.6q12.5 -7.85 27 -0.2<g id="1573" transform="matrix(1, 0, 0, 1, -38.7, 0)">
<path style="fill:#000000;fill-opacity:1" d="M463.45,90.5Q465.25 104.4 460.2 119.5Q441.4 175.75 424.3 232.65Q407.1 289.8 392.8 347.2Q384.8 379.35 373.95 408.95Q368.4 392.7 374.6 373.45Q385.9 338.5 396.5 303.2Q405.05 274.6 413 245.55L415.95 234.8Q393.35 184.15 368.3 133.7Q362.2 121.35 355.15 109.5Q347.4 96.5 352.45 86.5Q378.3 139.35 407.25 190.9Q416.35 207.1 418.85 224.4Q431.95 177.55 446.65 131.15Q452.6 112.45 459.35 94.2Q460.55 91 463.45 90.5M338.45,256.75L339.15 258.95L339.35 261.25L339.3 262.5Q344.35 290.55 349.05 318.65Q356.4 362.9 360.65 407.25Q361 410.85 358.45 413.2Q352.35 401 350.2 384.9Q342.35 326.6 332.85 268.55L332.65 267.3Q308.95 267.55 285.05 266.45Q277.75 322.55 267.7 378.3Q265.25 392.2 260.2 405.2Q252 398.6 256.3 384.45Q264.95 355.95 270.35 326.75Q275.95 296.25 280.65 265.6Q280.1 264.95 280 264L279.9 263.25Q279.55 261.8 279.75 260.25L279.9 258.75Q279.95 257.55 280.45 256.5L282.15 255.3Q285.5 232.55 288.3 209.7L298.85 122.3Q300.65 106.9 304.3 93.65Q304.15 90.1 305.95 88.1L306.45 86.5L306.6 87.5Q306.85 87.2 307.2 87Q316.45 144.6 327.9 202.6Q333.2 229.35 338.1 256.15L338.45 256.75M330.55,254.55L307.1 125.7L287.6 254.1L289.95 253L327.2 255.25L330.55 254.55M192.7,101.5Q157.05 106.55 121 108.5Q123.55 135.3 119.75 162.65Q111.7 221.05 107 280.05Q104.65 309.65 103 339.5Q101.35 370 95.55 399.35Q95.35 400.2 94.5 400.95Q88.8 388.6 90.95 371.5Q98.25 312.85 102.95 253.9Q107.7 194.75 114.05 136.1Q115.7 121.2 118.95 108.6Q80.05 110.6 40.75 109Q38.7 104.25 40.55 99.3L41 98.5Q116.55 95.75 191.45 87.25Q196.1 93.25 193.15 100.7L192.7 101.5M173.2,112L173.25 113.25L173.95 112L175.4 111.15Q177.75 109.45 180.45 108.45L180.95 108.25Q224.35 111.35 225.8 152.75Q227.65 205.45 183.25 229.45Q200.85 281.3 215.8 333.9Q223.9 362.45 235.45 389.7Q238.95 399.65 235.25 409.15L234.7 409.95Q226.15 399.05 221.6 382.9Q205.85 326.65 187.4 270.4Q181.1 251.1 179.4 231.45L171.5 234.95Q165.05 237.6 159 236.4L152.75 272.35Q142.2 330.55 132.05 388.8Q130.9 395.2 127.7 400.7Q119.55 389.35 125.55 372Q131.55 354.65 134.9 336.7Q145.85 278.2 154.15 219.35Q161.65 165.8 171.9 113.05Q172.1 112 173.2 112M173.45,124Q173.4 139.45 171.2 155.6Q166.6 189.6 161.1 223.5Q206.45 211 219.05 167.65Q227.6 138.15 200.45 123.8Q185.95 116.15 173.45 124" />
</g>
</svg>
