<?xml version="1.0" encoding="utf-8"?>
<svg version="1.1" id="Layer_1"
xmlns="http://www.w3.org/2000/svg"
xmlns:xlink="http://www.w3.org/1999/xlink"


xml:space="preserve">
q-14.35 -14.75 -29.75 -28.4q-13.15 -11.65 -30.7 -13.45q-8.15 62.45 -7.7 125.75q0.65 96.4 -11.35 192.05q-2.5 -0.25 -2.9 3.45q-0.4 3.8 0.1 7.5q0.2 1.3 1 2.4q0.55 -0.45 0.7 -1.4q17.8 9.95 36.7 5.05q29.55 -7.65 45.1 -34.9q33.75 -59.35 36.6 -128.5q0.95 -22.65 -4.05 -44.9q-2.2 -9.7 -5.15 -19.3q-7.35 -20.05 -22.2 -35.35q-16.8 20.45 -20.5 47.8q-3.85 28.05 -5 56.4q-1.75 44.35 -5.55 88.3q-3.3 38 4.75 74.75q4.35 19.7 23 22.1q7.9 -4.5 13.45 -11.55q14.4 -18.35 19.8 -39.95q-0.25 -0.75 -0.75 -1q-2.6 0.7 -4.05 3.1q-11.55 18.85 -26.95 34.4q-15.6 -12.15 -14.8 -32.7q1.8 -46.95 2.4 -94.2q1.05 -1.75 1.15 -3.8q0.2 -6.3 -4.65 -10.45q-19.7 5.5 -39.75 10.55q0.35 -52.55 16.95 -101.8q1.15 -3.4 3.45 -5.8q15.55 -16.4 30.5 1.85q-1.55 -17.7 -20.35 -22q-4.7 2.15 -8.2 6.35q15.4 13.55 27.85 30.25q12.1 16.3 19.65 35.15q7 17.6 10.25 36.3q3.6 20.55 3.35 41.6q-0.25 20.35 -3.6 40.45q-3.4 20.25 -10.45 39.4q-7.25 19.6 -18.1 37.6q-10.8 17.95 -28.35 29.55q-17.75 11.75 -40 3.6q-4.1 -1.55 -8.4 -2.45q7.3 -55.75 9.05 -112q2.65 -85.4 3.45 -170.8q12.2 0.6 23.05 6.25q6.45 3.4 11.3 8.85q-15.3 3.2 -31 7q-70.3 17.1 -140.2 31.5q-0.65 2.2 -0.55 4.5q0.1 1.5 0.55 3q20.15 -1.15 41.8 -4.85q-5.35 38.45 -7.45 77.75q-3.15 59.25 -2.85 119.3q0.3 59.9 -7.95 118.5q-2.35 16.75 3.1 29.2q6.55 -55.65 8.05 -112.45q1.6 -59.9 4.5 -119.2q2.8 -57.3 4.1 -113.4q43.9 -8.9 87.35 -20.4q1.35 -1.6 1.85 -3.75q0.75 -3.6 -0.85 -6.75q-2.85 -2.9 -6.7 -3.3q-2.5 0.65 -4.2 2.85q-16.85 22.1 -21.45 50.2q-9.65 58.65 -16.2 117.85q-6.5 58.35 -1.5 117q1.25 15.25 8.5 28.55q8.6 15.8 21.55 4.1q26.05 -23.55 31.3 -56.1q-0.45 0.2 -0.85 0.55q-1.9 0.95 -2.9 2.7q-12.1 21.1 -28.35 39.05q-2.6 -1.75 -3.6 -4.6q-13.65 -40.5 -9.8 -84.45q25.2 0.9 45.4 -10.75q0.65 -1.05 0.75 -2.25q0.2 -2.35 -0.75 -4.5q-2.05 0.05 -3.75 -0.85q-20.2 2.5 -39.9 7.35q4.4 -48.85 26.45 -91.35q5.3 -2.15 11 -1.25q2.95 1.45 5.25 3.75q1.6 3.65 2.45 7.6q0.35 1.7 1.55 2.65q1.55 -3.35 1.4 -7.25q-0.45 -12.1 -10.9 -18.75q-12 36.2 -16.2 75.7q-6.35 58.85 -13.45 117.65q-4.6 38.05 -7.3 76.1q-4.75 -46.15 -7.6 -92.65q-3.65 -59.25 -9.45 -117.8q-3.8 14.35 -2.25 31.1q5.3 58.55 8.55 117.65q1.65 29.65 5.7 59q2.05 14.95 0.65 30.1q-1.3 13.95 5.85 21.6q2.35 -9.2 1.7 -19.25q2 -9.6 2.95 -20.05q5.3 -58.85 10.9 -117.95q5.6 -59.1 15.75 -117.4q3.9 -22.35 4.2 -43.8q0.65 -59.85 -2.75 -119.2q-3.45 -59.4 -7.75 -118.5q-3.5 35.2 -0.35 72.35q5 59.3 4.5 119.15q-0.5 59.4 -0.05 118.45q0.1 13.35 5.4 21.5q1.15 -2.1 1.45 -4.8q6.3 -58.7 19.15 -116.5q12.9 -58.05 17.95 -116.1q-3.8 31.2 -9.9 62.15q-11.5 58.35 -23.55 116.35q-1.05 5 -1.85 9.95<g id="1600" transform="matrix(1, 0, 0, 1, -40.1, 0)">
<path style="fill:#000000;fill-opacity:1" d="M513.6,186.7L517.1 197.05L523.7 217.75Q526.65 227.35 528.85 237.05Q533.85 259.3 532.9 281.95Q530.05 351.1 496.3 410.45Q480.75 437.7 451.2 445.35Q432.3 450.25 414.5 440.3Q414.35 441.25 413.8 441.7L413.05 441.55L410.3 438.7L407.9 437.4Q407.1 436.3 406.9 435Q406.4 431.3 406.8 427.5Q407.2 423.8 409.7 424.05Q421.7 328.4 421.05 232Q420.6 168.7 428.75 106.25L429.5 111.25L430.95 109.5Q448.5 111.3 461.65 122.95Q477.05 136.6 491.4 151.35Q506.25 166.65 513.6 186.7M376.95,132.5Q395.75 136.8 397.3 154.5L397.2 155.25Q382.25 137 366.7 153.4Q364.4 155.8 363.25 159.2Q346.65 208.45 346.3 261L346.2 275.8Q366.25 270.75 385.95 265.25L390.45 265.5Q395.3 269.65 395.1 275.95Q395 278 393.95 279.75L346.05 286.05Q345.45 333.3 343.65 380.25Q342.85 400.8 358.45 412.95L365.45 412.95Q380.85 397.4 392.4 378.55Q393.85 376.15 396.45 375.45L396.95 375.55L397.95 375.7Q398.45 375.95 398.7 376.7Q393.3 398.3 378.9 416.65Q373.35 423.7 365.45 428.2Q346.8 425.8 342.45 406.1Q334.4 369.35 337.7 331.35Q341.5 287.4 343.25 243.05Q344.4 214.7 348.25 186.65Q351.95 159.3 368.75 138.85Q372.25 134.65 376.95 132.5M452.75,124.75Q441.9 119.1 429.7 118.5L429.3 116L429.15 142.9Q428.35 228.3 425.7 313.7Q423.95 369.95 416.65 425.7Q420.95 426.6 425.05 428.15Q447.3 436.3 465.05 424.55Q482.6 412.95 493.4 395Q504.25 377 511.5 357.4Q518.55 338.25 521.95 318Q525.3 297.9 525.55 277.55Q525.8 256.5 522.2 235.95Q518.95 217.25 511.95 199.65Q504.4 180.8 492.3 164.5Q479.85 147.8 464.45 134.25L464.05 133.6Q459.2 128.15 452.75 124.75M218.65,75.05L219.2 75.75Q220.8 78.9 220.05 82.5Q219.55 84.65 218.2 86.25L216.5 85.4L214.45 84.25Q171 95.75 127.1 104.65Q125.8 160.75 123 218.05Q120.1 277.35 118.5 337.25Q117 394.05 110.45 449.7Q105 437.25 107.35 420.5Q115.6 361.9 115.3 302Q115 241.95 118.15 182.7Q120.25 143.4 125.6 104.95L82.55 112.9Q60.9 116.6 40.75 117.75Q40.3 116.25 40.2 114.75Q40.1 112.45 40.75 110.25Q110.65 95.85 180.95 78.75Q196.65 74.95 211.95 71.75Q215.8 72.15 218.65 75.05M310.95,124.45L312.45 124.75Q322.9 131.4 323.35 143.5Q323.5 147.4 321.95 150.75Q320.75 149.8 320.4 148.1Q319.55 144.15 317.95 140.5L317.2 139.75Q314.9 137.45 311.95 136Q306.25 135.1 300.95 137.25Q278.9 179.75 274.5 228.6L270.55 272.6Q290.25 267.75 310.45 265.25Q312.15 266.15 314.2 266.1L314.95 266.5Q315.9 268.65 315.7 271Q315.6 272.2 314.95 273.25Q294.75 284.9 269.55 284L264.05 345.65Q260.2 389.6 273.85 430.1Q274.85 432.95 277.45 434.7L284.95 434.4L286.45 433.95Q302.7 416 314.8 394.9Q315.8 393.15 317.7 392.2L317.95 391.45L318.2 390.7L318.45 389.95Q318.85 389.6 319.3 389.4L321.6 389.2L321.95 388.7Q316.7 421.25 290.65 444.8Q277.7 456.5 269.1 440.7Q261.85 427.4 260.6 412.15Q255.6 353.5 262.1 295.15Q268.65 235.95 278.3 177.3Q282.9 149.2 299.75 127.1Q301.45 124.9 303.95 124.25L310.95 124.45M250,181.05Q239.85 239.35 234.25 298.45Q228.65 357.55 223.35 416.4Q222.4 426.85 220.4 436.45Q221.05 446.5 218.7 455.7Q211.55 448.05 212.85 434.1Q214.25 418.95 212.2 404Q208.15 374.65 206.5 345Q203.25 285.9 197.95 227.35Q196.4 210.6 200.2 196.25Q206 254.8 209.65 314.05Q212.5 360.55 217.25 406.7Q219.95 368.65 224.55 330.6Q231.65 271.8 238 212.95Q242.2 173.45 254.2 137.25Q253.9 158.7 250 181.05M160.4,393.95Q161.2 389 162.25 384Q174.3 326 185.8 267.65Q191.9 236.7 195.7 205.5L198.15 201.6L198.45 201.5Q193.4 259.55 180.5 317.6Q167.65 375.4 161.35 434.1Q161.05 436.8 159.9 438.9L159.7 458.45Q154.4 450.3 154.3 436.95Q153.85 377.9 154.35 318.5Q154.85 258.65 149.85 199.35Q146.7 162.2 150.2 127Q154.5 186.1 157.95 245.5Q161.35 304.85 160.7 364.7L160.4 393.95" />
</g>
</svg>
