<?xml version="1.0" encoding="utf-8"?>
<svg version="1.1" id="Layer_1"
xmlns="http://www.w3.org/2000/svg"
xmlns:xlink="http://www.w3.org/1999/xlink"


xml:space="preserve">
q-3.2 2 -3.5 6.65q-2 29.05 -3.75 58.5q-0.55 8.85 -0.95 17.75q-0.95 2.55 -0.85 5.3q0.05 1.6 0.4 3.1q-2.2 45.8 -2.6 91.65q0.75 2.75 3.25 1.5q3.75 -33.05 5.9 -66.65q13.95 1.85 28.6 0q8.25 -1.05 14.6 -6.2q28.7 -23.2 14.5 -59.15q-12.75 -32.4 -48.1 -31.7q-4.45 0.55 -8.65 3.1q21.3 -5.25 39.05 8.1q18 13.55 14.8 36.3q-3.15 22.1 -27.25 26.45q-13.5 2.15 -27.2 1.1q-0.7 1.85 -0.9 3.75q-0.25 2.65 0.2 5.2q-4.3 26.95 -4.3 55.05q0.05 59.5 -2.2 118.45q0.55 2.65 3 2q1 -0.85 1.15 -2.25q5.4 -58.85 5.35 -118.45q0 -28.3 -0.65 -54.9q21.5 -0.55 42.85 -0.6q1.05 -0.75 1.5 -2.05q1.6 -4.45 -0.05 -8.95q-13.8 15.05 -20.3 34.45q-6.3 18.75 -8.3 38.55q-2 20.3 0.25 40.65q2.25 20.55 11.75 38.8q10.7 20.7 33.75 19q22.3 -1.15 39.15 -16.15q13.25 -11.75 4.8 -26.9q-18 26.05 -49.45 27.1q-13.25 1 -20.45 -10.6q-8.7 -14 -12.55 -29.95q-2.45 -10.15 -2.6 -20.5q-0.1 -6.85 0.7 -13.8q2.45 -5.8 0.2 -11.35q4.8 -43.3 40.85 -65.85q20.4 -12.8 39.35 2.1q0.05 -24.4 -26.5 -26.25q-22.75 -1.4 -38.6 15.8<g id="1593" transform="matrix(1, 0, 0, 1, -140.1, 0)">
<path style="fill:#000000;fill-opacity:1" d="M360.3,183.35Q364.5 180.8 368.95 180.25Q404.3 179.55 417.05 211.95Q431.25 247.9 402.55 271.1Q396.2 276.25 387.95 277.3Q373.3 279.15 359.35 277.3L358.1 299.8Q355.95 333.4 352.2 366.45Q349.7 367.7 348.95 364.95Q349.35 319.1 351.55 273.3Q351.2 271.8 351.15 270.2Q351.05 267.45 352 264.9Q352.4 256 352.95 247.15Q354.7 217.7 356.7 188.65Q357 184 360.2 182L360.25 183.4L360.3 183.35M387.1,264Q411.2 259.65 414.35 237.55Q417.55 214.8 399.55 201.25Q381.8 187.9 360.5 193.15L359.9 265.1Q373.6 266.15 387.1 264M225.45,181.5L227.1 183.1L227.9 184.5Q229.55 189 227.95 193.45Q227.5 194.75 226.45 195.5Q205.1 195.55 183.6 196.1Q184.25 222.7 184.25 251Q184.3 310.6 178.9 369.45Q178.75 370.85 177.75 371.7Q175.3 372.35 174.75 369.7Q177 310.75 176.95 251.25Q176.95 223.15 181.25 196.2L141.5 197.75L140.75 196.2L140.55 195.45Q140.1 192.9 140.35 190.25Q140.55 188.35 141.25 186.5L200.95 181.25L221.95 181.35L225.45 181.5M297.7,182Q324.25 183.85 324.2 208.25L317.7 202.6Q298.75 187.7 278.35 200.5Q242.3 223.05 237.5 266.35L286.85 261.7L287.65 263.35Q289.9 268.9 287.45 274.7L235.85 278.45Q235.05 285.4 235.15 292.25Q235.3 302.6 237.75 312.75Q241.6 328.7 250.3 342.7Q257.5 354.3 270.75 353.3Q302.2 352.25 320.2 326.2Q328.65 341.35 315.4 353.1Q298.55 368.1 276.25 369.25Q253.2 370.95 242.5 350.25Q233 332 230.75 311.45Q228.5 291.1 230.5 270.8Q232.5 251 238.8 232.25Q245.3 212.85 259.1 197.8Q274.95 180.6 297.7 182" />
</g>
</svg>
