<?xml version="1.0" encoding="utf-8"?>
<svg version="1.1" id="Layer_1"
xmlns="http://www.w3.org/2000/svg"
xmlns:xlink="http://www.w3.org/1999/xlink"


xml:space="preserve">
q-10.85 18.1 -17.25 38.7q-6.35 20.35 -14.9 39.8q-5.9 13.45 -0.1 26.75q-7.4 -52.35 -33.85 -104.35q3.05 16.1 8.9 31.7q-8.75 -0.1 -16.8 2.95q5.1 -16 13.2 -30.55q-16.55 1.9 -26.05 14.85q-17.75 24.25 -23.2 53.8q-7.95 43.35 -10.45 87.65q-0.55 10.05 -0.8 20.15q-1.5 60.2 8.45 118.45q4.7 27.35 28 42.25q16.3 10.4 37.15 9.95q25.1 -0.55 43.3 -17.45q16.85 -15.6 23.3 -37.6q3.95 -13.5 -3.6 -21.1q-0.1 0.35 0.1 0.5q1.05 0.95 2.3 1.7q-2 16.55 -12.8 29.9q-24.55 30.35 -65.6 22.05q-5.1 -1.05 -9.55 -3.1q-31.05 -14.25 -34.55 -48.25q-6 -58 -3.55 -117.2q29.05 1.45 57.3 -5.35q2.75 -6.45 -1.2 -11.95q2.95 -54 15.95 -105.95q6.5 -25.95 32 -31.7q32.25 -7.3 61.15 2.95q0.95 -2.65 -0.45 -5.3q-1.25 -2.35 -3.05 -4.45q-20.5 -5.7 -42 -6.45q0.3 -30.7 -32 -31.5q-24.85 7.55 -43.75 26.25q-12.15 20.7 -18.15 44.05q-11.1 43.2 -14.5 87.85q-4.5 59.15 -4.7 119.35q-0.25 59.95 6.2 118.6q2.5 22.95 13.65 42.5q17.65 30.9 52.85 18.15q12.05 -4.35 20 -14.2q16.3 -20.2 25.2 -45.55q6.55 -18.65 0.2 -35.05q-1.75 0.55 -2.55 2.25q-0.55 1.2 -1.35 0.15q-0.8 0.6 0 3.1q-2.8 12.75 -6.9 24.9q-4.45 13 -11.55 24.6q-17.8 29.05 -52.1 22.2q-14.35 -2.85 -19.35 -16.3q-14.05 -37.85 -16 -78.85q-2.5 -52.65 -1 -105.45q29.25 -3.75 58.15 -4.05q2.35 -6.5 -1.4 -11.95q-29.55 -2.75 -56.75 4.85q2.3 -58.95 10.5 -116.9q2.1 -14.8 4.6 -29.55q6.05 -36.15 36.15 -55.95q34.1 -22.5 53.7 7.95q2.9 -7.45 -1.7 -13.45q-48.15 0.85 -94.2 6.95q-2.15 5.35 1.05 9.75q51.9 -0.15 103.6 -1.55q-2.1 10.1 -2.75 21.5q-3.3 59.25 -7.35 118.55q-4.05 59.15 -7.55 118.45q-3.45 59.25 -5.35 118.55q-0.75 22.3 -3.9 44.05q-1.95 13.65 4.5 21.65q1.6 -1.5 1.8 -3.75q3.95 -48.05 6.25 -96.65q3 -59.3 7.45 -118.5q3.95 -53.05 4.35 -105.4q-3.75 25.7 -5.45 51.8q-0.85 13.55 -4 26.75q-3.95 16.3 2.4 29.7q7 -36.05 7.8 -72.75q1.9 39.15 15.85 73.35q-3.05 -33 -11.35 -65.35q12.95 -7.5 15.75 -22.3q0.95 -5.1 -1.05 -9.8q-3.05 -7.05 -9.1 -11.9q7.8 -4.75 16.65 -2.2q10.05 18.1 -13 27.5q1.2 59.1 7.45 117.75q10 -34.5 13.5 -68.2q2.85 35.55 14 68.25q5.5 -7.1 6.65 -17.4q2.9 -26.5 9.1 -52.15q5.45 -22.5 2.75 -43.2q-12.85 44.85 -18.5 92.75q-6.95 -28.75 -8.9 -58.05q-0.75 -11.65 -5.6 -18.45q-5.5 36.15 -11.7 71.95q-1.45 -47.8 -8.65 -93.75q-0.95 -0.15 -0.95 0.75<g id="1591" transform="matrix(1, 0, 0, 1, -16.3, 0)">
<path style="fill:#000000;fill-opacity:1" d="M377.85,63.4Q404.3 115.4 411.7 167.75L388.45 116.65L357.5 117.05L342.7 163.5Q336.9 150.2 342.8 136.75Q351.35 117.3 357.7 96.95Q364.1 76.35 374.95 58.25L377.85 63.4M373.35,78.15Q365.25 92.7 360.15 108.7Q368.2 105.65 376.95 105.75L384.1 106Q378.25 90.4 375.2 74.3L373.35 78.15M380.95,173Q402.45 173.75 422.95 179.45L425.2 180L426.65 181.5L427.95 183Q429.75 185.1 431 187.45Q432.4 190.1 431.45 192.75Q402.55 182.5 370.3 189.8Q344.8 195.55 338.3 221.5Q325.3 273.45 322.35 327.45L378.45 318.25Q382.4 323.75 379.65 330.2L379.2 331Q350.95 337.8 321.9 336.35Q319.45 395.55 325.45 453.55Q328.95 487.55 360 501.8Q364.45 503.85 369.55 504.9Q410.6 513.2 435.15 482.85Q445.95 469.5 447.95 452.95Q446.7 452.2 445.65 451.25Q445.45 451.1 445.55 450.75L445.95 449.95L446.95 450.45L447.45 450.6L448.45 450.45L449.15 449.7L449.45 449.2L449.8 448.55L450.95 446.95Q458.5 454.55 454.55 468.05Q448.1 490.05 431.25 505.65Q413.05 522.55 387.95 523.1Q367.1 523.55 350.8 513.15Q327.5 498.25 322.8 470.9Q312.85 412.65 314.35 352.45Q314.6 342.35 315.15 332.3L315.25 330.35Q317.75 286.05 325.7 242.7Q331.15 213.15 348.9 188.9Q358.4 175.95 374.95 174.05L380.95 173M295.7,87.5Q276.1 57.05 242 79.55Q211.9 99.35 205.85 135.5Q203.35 150.25 201.25 165.05Q193.05 223 190.75 281.95L190.7 283.85Q217.9 276.25 247.45 279Q251.2 284.45 248.85 290.95L248.45 291.75Q219.55 292.05 190.3 295.8Q188.8 348.6 191.3 401.25Q193.25 442.25 207.3 480.1Q212.3 493.55 226.65 496.4Q260.95 503.25 278.75 474.2Q285.85 462.6 290.3 449.6Q294.4 437.45 297.2 424.7L297.05 424.05L296.2 421.8Q295.4 419.3 296.2 418.7L297.05 419.6Q297.85 420.65 298.4 419.45Q299.2 417.75 300.95 417.2Q307.3 433.6 300.75 452.25Q291.85 477.6 275.55 497.8Q267.6 507.65 255.55 512Q220.35 524.75 202.7 493.85Q191.55 474.3 189.05 451.35Q182.6 392.7 182.85 332.75Q183.05 272.55 187.55 213.4Q190.95 168.75 202.05 125.55Q208.05 102.2 220.2 81.5Q239.1 62.8 263.95 55.25Q296.25 56.05 295.95 86.75L295.7 87.5M214.7,60.5L126.4 63.85Q126 116.2 122.05 169.25Q117.6 228.45 114.6 287.75L108.75 406.3Q106.45 454.9 102.5 502.95Q102.3 505.2 100.7 506.7Q94.25 498.7 96.2 485.05Q99.35 463.3 100.1 441Q102 381.7 105.45 322.45Q108.95 263.15 113 204Q117.05 144.7 120.35 85.45Q121 74.05 123.1 63.95Q71.4 65.35 19.5 65.5Q16.3 61.1 18.45 55.75L18.75 55Q64.8 48.9 112.95 48.05L213.45 46.25Q218.05 52.25 215.15 59.7L214.7 60.5M156.05,269.4Q158.05 274.1 157.1 279.2Q154.3 294 141.35 301.5L143.7 310.65Q152 343 155.05 376L154.85 376.2Q140.9 342 139 302.85L133.75 303.6Q132.95 340.3 125.95 376.35Q119.6 362.95 123.55 346.65Q126.7 333.45 127.55 319.9Q129.25 293.8 133 268.1L131.7 269L131.2 264.5L138.45 258L146.95 257.5Q153 262.35 156.05 269.4M136.95,293.25Q160 283.85 149.95 265.75Q141.1 263.2 133.3 267.95L133.9 294.1L136.95 293.25M116.2,386.7Q123.4 432.65 124.85 480.45L124.95 481.2Q131.15 445.4 136.65 409.25L136.95 408.45Q141.8 415.25 142.55 426.9Q144.5 456.2 151.45 484.95Q157.1 437.05 169.95 392.2Q172.65 412.9 167.2 435.4Q161 461.05 158.1 487.55Q156.95 497.85 151.45 504.95Q140.3 472.25 137.45 436.7Q133.95 470.4 123.95 504.9L122.7 505.2Q116.45 446.55 115.25 387.45Q115.25 386.55 116.2 386.7" />
</g>
</svg>
