<?xml version="1.0" encoding="utf-8"?>
<svg version="1.1" id="Layer_1"
xmlns="http://www.w3.org/2000/svg"
xmlns:xlink="http://www.w3.org/1999/xlink"


xml:space="preserve">
q-0.7 2.35 -1.25 4.75q-0.9 3.3 -0.25 6.75q-2.15 12.15 -2.3 25.75q-0.15 20 -1.05 40.4q-2.65 59.6 -2.15 118.55q7 -5.55 6.5 -18q-0.3 -1.2 -1.3 -2q20.35 2.05 41 -1.8q2.2 -6.35 -1.9 -11.25q0.85 -34.95 0.1 -69.5q29.1 -3.25 58.35 -5q0.75 1.7 2.45 1.2q1.65 -2.8 1.75 -6q0.2 -5.8 -4.5 -9q-27.15 2.05 -52.6 9.1q-0.2 -1.6 -1.4 -2.55q22.75 3.45 46.2 -0.55q-4.95 25.5 -5.45 51.45q-1.3 64 0.15 127.45q2.75 1.05 3.6 -3.25q0.4 -2.2 0.95 -4.35q0.9 -3.45 1.15 -6.95q0.15 -2.5 -1.35 -4.2q1.1 -1.55 1.6 -3.15q6.1 2.85 8.95 9.15q1.25 -13.6 -14.2 -22.55q-6.7 -3.95 -14.25 -4.75q-6.95 -0.65 -14.05 0.15q-21.3 4.8 -32.2 24.3q-8.75 15.7 -14.55 32.7q-6.05 17.7 -7.9 36.55q-2.05 21.3 1 42.45q3.05 21.3 15.1 38.5q13.25 19.05 36.55 11.55q21.05 -6.85 36.9 -21.85q10.3 -9.7 5.1 -23.25q-16.55 24.25 -45.2 30.6q-9.25 2.2 -18.75 0.8q-6.25 -1.05 -10.5 -5.65q-6.7 -7.2 -9.75 -16.6q-8 -24.9 -5.2 -51.1q1.35 -2.3 1.6 -5q0.3 -2.95 -0.8 -5.75q-0.7 -1.65 -2.05 -2.85q-29 -1.5 -57.9 6.35q6.65 -41.25 38.2 -67.3q7.45 -6.2 17.35 -6.85q13.15 -0.5 25.05 4.95<g id="1596" transform="matrix(1, 0, 0, 1, -137.75, 0)">
<path style="fill:#000000;fill-opacity:1" d="M355.35,183.1Q380.8 176.05 407.95 174L414.45 174.25Q419.15 177.45 418.95 183.25Q418.85 186.45 417.2 189.25L416.4 189.7Q414.7 190.2 413.95 188.5Q384.7 190.25 355.6 193.5Q356.35 228.05 355.5 263L392.95 258.75L395.45 259Q399.55 263.9 397.35 270.25L396.2 272.45Q375.55 276.3 355.2 274.25L354.3 297.25L351.7 355.7Q352.7 356.5 353 357.7L353.2 358.45Q353.7 370.9 346.7 376.45Q346.2 317.5 348.85 257.9Q349.75 237.5 349.9 217.5Q350.05 203.9 352.2 191.75L351.95 190.75Q351.3 187.3 352.2 184L353.95 183.5Q354.5 181.1 355.2 178.75L355.35 183.1M225.45,191L185.95 191.15L183 351.35Q184.5 353.05 184.35 355.55Q184.1 359.05 183.2 362.5Q182.65 364.65 182.25 366.85Q181.4 371.15 178.65 370.1Q177.2 306.65 178.5 242.65Q179 216.7 183.95 191.2Q160.5 195.2 137.75 191.75L137.75 184.25L187 178L225.85 179.45Q227.05 180.4 227.25 182L227.4 183.25L227.5 185.65L227.4 186.75L227.05 187.85Q226.55 189.45 225.45 191M283.85,192.8Q273.95 193.45 266.5 199.65Q234.95 225.7 228.3 266.95Q257.2 259.1 286.2 260.6Q287.55 261.8 288.25 263.45Q289.35 266.25 289.05 269.2Q288.8 271.9 287.45 274.2L226.55 279.75Q223.75 305.95 231.75 330.85Q234.8 340.25 241.5 347.45Q245.75 352.05 252 353.1Q261.5 354.5 270.75 352.3Q299.4 345.95 315.95 321.7Q321.15 335.25 310.85 344.95Q295 359.95 273.95 366.8Q250.65 374.3 237.4 355.25Q225.35 338.05 222.3 316.75Q219.25 295.6 221.3 274.3Q223.15 255.45 229.2 237.75Q235 220.75 243.75 205.05Q254.65 185.55 275.95 180.75Q283.05 179.95 290 180.6Q297.55 181.4 304.25 185.35Q319.7 194.3 318.45 207.9L317.85 206.9Q315 200.6 308.9 197.75Q297 192.3 283.85 192.8" />
</g>
</svg>
