<?xml version="1.0" encoding="utf-8"?>
<svg version="1.1" id="Layer_1"
xmlns="http://www.w3.org/2000/svg"
xmlns:xlink="http://www.w3.org/1999/xlink"


xml:space="preserve">
q-12.05 -6.2 -26.4 -4.75q-5.9 1.45 -10.35 6.1q-2.15 2.25 -3.55 4.5q-23.25 38 -17.5 84.6q5.55 44.7 26.1 85.05q13.75 27.1 24.55 55.05q21.15 54.95 20.65 114.15q-0.3 41.75 -7.2 82.35q-7.1 41.55 -50.7 41.15q-3.8 -7.2 -4.95 -15q-2.25 -14.8 -9.25 -24.3q-4.25 10.9 -1.35 22.8q6.4 26.35 21.85 48.45q47.9 0.7 58.4 -44.9q5.55 -23.95 7.15 -48.7q3.8 -58.3 -6.25 -115.35q-10.1 -57.3 -37.45 -108.75q-14.5 -27.25 -23 -56.85q-11.95 -41.5 1.5 -82.2q3.35 -10.15 13.3 -14.05q31.95 -12.5 46.15 17.9q5.25 11.2 8.95 21.2q2.3 -9.3 -0.4 -19.35q-5.35 -19.75 -20.35 -33.15q-10.8 -7.95 -23.75 -5.1q-22.75 17.25 -3.3 34.55q13.7 12.05 30.05 2.2q1.65 -2.05 1 -4.5q-0.35 -1.35 -1.65 -2.05q-1.45 -0.85 -3.1 -1.25q-16.8 8.95 -31.9 -2.15q11.9 1.2 22.9 -3.05q13.9 -6.25 28 -0.75q-15.8 10.45 -26.8 25.2q-3.2 4.3 -3.95 9.55q22.3 3.8 45 3.5q1.35 -1.65 1.45 -3.8q16.45 -15.15 34.75 -27.75q-23 -5 -29.05 20.35q-6.5 27.35 18.85 30.2q6.2 0.65 10.8 -3.7q10.85 -0.6 18.05 -9q7.25 -13.35 22.75 -11.5q2 -27.05 -25.65 -29.2q-23 7.1 -28.7 30.75q-12.55 51.8 -14.8 105.45q-2.45 59.5 1.4 118.6q2.15 33.2 29.75 47.4q20.7 10.7 32.3 -6.35q13.05 -19.25 6.05 -38.6q-3.55 3.45 -5.45 8.1q-0.45 1.15 1.2 3.15q-1.55 5.9 -5.8 10.1q-13.35 13.2 -31.1 0.5q-17.95 -12.8 -19.6 -36.05q-3.25 -45.9 -2.7 -91.9q21.45 -2.15 43.55 -1.9q2.6 -6.05 -0.95 -11.2q-22.95 -1.9 -42.9 5q1.7 -47 14.4 -91.25q8.3 -28.95 38.25 -21.7q3.7 4.05 5.3 9.3q1.45 4.85 5.2 5.45q0.4 -0.4 0.4 -0.8q0.45 -1.3 0.3 -2.6q-0.15 -1.2 -1.1 -1.95q-13.55 4.1 -26.1 11.5q-1.65 0.9 -3.15 2q-3.85 21.75 -0.6 43.6q4.85 -22.25 4.05 -44.65q2 -1.8 2.8 -4.25q-4.1 -4.05 -10.1 -4.35q-6.5 17.2 -5.05 39.95q12.55 1 20.8 -10.75q12.8 -18.2 -1.25 -31.9q-6.4 1.05 -12.3 3.6q-5.55 17.85 -5.05 37.6q0.15 7 1.4 11.5q6.35 1.05 12.35 -1q-0.6 -2.15 -2.7 -2.7q1.6 -15.25 0 -27.65q-4.95 13.2 -6.25 28.35q-1.3 15.7 3 26.9q-4.85 16.45 -14.55 30.55q-11.7 -16.75 -17.55 -34.95q-6.75 21.4 -15.15 43.1q-1.05 2.6 0.8 4.7q4.2 20.5 18.8 33q12.15 -18.05 15.85 -39.15q3.25 36.95 9.45 72.7q15.2 -33.8 27.75 -67.95q4.25 34.9 14.5 68.2q2.25 2.05 4 -0.25q-11.55 -41.95 -16.5 -85.45q-16.55 35.4 -28.25 73.95q-3.25 -37.5 -9.6 -74.2q-2.55 1 -3.6 4.05q-7.65 22.45 -10.95 43.65q14.85 -35.55 25.75 -72.45q-1.4 5.25 -6.5 7.15q-2.4 0.85 -5.05 0.6q-12.1 24.85 -6.25 48.4q3.9 12.4 13.2 19.6q-1.55 -12 -9.2 -21.8q14 -18.15 -4.25 -28.65q-8.15 2.65 -14.5 8.95q-29.7 29.6 -35.15 72.15q-6.75 59.2 -7 119.4q-0.25 59.6 -1.55 118.45q-1.25 56.05 8.75 110.6q7.75 42.25 41.1 66.4q10.45 3.3 18.8 -1.75q15.65 -9.4 22.55 -26.3q13.25 -32.55 10.75 -67.35q-1.25 1 -1 3.8q-5.3 21.75 -11.95 42.95q-7.95 25.4 -34.5 23.55q-8.4 -0.6 -14.35 -7.1q-22.95 -25.25 -29.05 -59.75q-10.35 -58.75 -8.55 -118.6q1.15 -39.15 2.45 -78.25q24 -0.3 48.95 -3.5q2.6 -6.05 -0.95 -11.2q-24.55 2.05 -48.2 7.7q2.05 -58.85 8.9 -117.05q4.05 -34.25 25.3 -60.85q5.6 -7 14.15 -9.5q27.1 -7.85 39.25 16.35q2.95 -7.8 -1.4 -15.7q-4.65 -8.45 -13.1 -13.05q-3.25 -0.75 -6.15 -2.6q5.25 -16.5 3.25 -33.45q9.25 -0.85 16.75 4.35q1.5 22 -18.8 28.9q0.85 -6.35 -2.35 -5.75q-1.05 -11.6 -1 -23q0 -7.6 -4.5 -11.35q-3.85 6.55 -4.5 14.15q-2.7 32.7 -0.55 65.2q0.25 3.9 1.65 7.5q4.25 -19.55 6.8 -39.35q-25.4 -0.4 -50.5 -3.1q-49.45 3.1 -98.45 8.25q-0.65 2.2 -0.55 4.5q-5.2 40.2 -5.7 83.2q-0.55 59.75 0.75 119.25q1.25 59.4 0.75 119.2q-0.25 29.75 -2.95 59.1q-1.4 14.7 6.8 21.15q1.75 -8.45 1.75 -17.2q0.05 -59.5 -0.4 -119.25q-0.1 -15.2 0.25 -30q1.35 -57.85 -0.25 -114.7q37.1 -0.65 74.05 0.7q1.85 -3.55 1.1 -7.5q-4.4 17.15 -2.3 37.1q-1.75 -15.35 -17.8 -26.6q9.8 -8.75 4.85 -19.65q-4 -8.65 -13.65 -7.75q-3.95 0.65 -6.9 3.5q-1.25 10.35 -11.95 13.15q-11.2 51.25 -16.25 105.55q-0.6 3.25 1.05 5.75q-5.25 47.8 -13.4 94.7q0.3 1.7 2 2q10.55 -25.7 13.55 -54.45q2.25 -21.6 4.75 -43.1q4.35 27.1 7.75 54.35q3.8 30.45 11.7 58.05q2.9 -1.85 2.5 -5.7q-5.55 -54.4 -16.05 -108.05q4.2 -7.75 -1.9 -12.2q-10 -49.95 -14.65 -100.5q-17.9 14.95 -13.4 38.25q14.6 4.9 20.4 -8.4q1.4 -3.15 1.6 -6.6q-7.55 6.1 -17.3 5.85q1.45 -0.45 1.85 -1.75q1 -3.25 -1 -6.05q-1.2 -1.65 -3.2 -2.45q2.1 1.1 4.35 1q12.6 0 23.75 3.25q3.1 -5.35 -1 -9.5q2.2 -16.85 0.7 -33q-2.45 2.5 -2.9 6.9q-1.85 17.6 -0.6 35.35<g id="1601" transform="matrix(1, 0, 0, 1, -9.85, 0)">
<path style="fill:#000000;fill-opacity:1" d="M503.45,56.75Q518.45 70.15 523.8 89.9Q526.5 99.95 524.2 109.25Q520.5 99.25 515.25 88.05Q501.05 57.65 469.1 70.15Q459.15 74.05 455.8 84.2Q442.35 124.9 454.3 166.4Q462.8 196 477.3 223.25Q504.65 274.7 514.75 332Q524.8 389.05 521 447.35Q519.4 472.1 513.85 496.05Q503.35 541.65 455.45 540.95Q440 518.85 433.6 492.5Q430.7 480.6 434.95 469.7Q441.95 479.2 444.2 494Q445.35 501.8 449.15 509L456.95 524.2Q500.55 524.6 507.65 483.05Q514.55 442.45 514.85 400.7Q515.35 341.5 494.2 286.55Q483.4 258.6 469.65 231.5Q449.1 191.15 443.55 146.45Q437.8 99.85 461.05 61.85Q462.45 59.6 464.6 57.35Q469.05 52.7 474.95 51.25Q489.3 49.8 501.35 56L503.45 56.75M472.45,14.25Q458.35 8.75 444.45 15L439.55 23.35L461.75 20.55L461.95 27.25Q450.95 31.5 439.05 30.3Q454.15 41.4 470.95 32.45Q472.6 32.85 474.05 33.7Q475.35 34.4 475.7 35.75Q476.35 38.2 474.7 40.25Q458.35 50.1 444.65 38.05Q425.2 20.75 447.95 3.5L448.95 3.4Q461.9 0.55 472.7 8.5L472.45 14.25M406.95,9.25Q388.65 21.85 372.2 37L406.95 40.5L407.6 42L408.1 43.55L408.15 44.2Q408.05 46.35 406.7 48Q384 48.3 361.7 44.5Q362.45 39.25 365.65 34.95Q376.65 20.2 392.45 9.75L366.8 7.35L366.95 3.75L406.2 1L406.95 9.25M430.45,98.25Q414.95 96.4 407.7 109.75L422.7 104.95L423.2 108Q416 116.4 405.15 117L405.7 130.25L409.95 133.25L430.65 133.5L430.7 138.75Q426.1 143.1 419.9 142.45Q394.55 139.6 401.05 112.25Q407.1 86.9 430.1 91.9L430.45 98.25M337.2,33.75Q333.45 33.15 332 28.3Q330.4 23.05 326.7 19Q296.75 11.75 288.45 40.7Q275.75 84.95 274.05 131.95L273.55 149.75Q293.5 142.85 316.45 144.75Q320 149.9 317.4 155.95L316.95 156.75Q294.85 156.5 273.4 158.65Q272.85 204.65 276.1 250.55Q277.75 273.8 295.7 286.6Q313.45 299.3 326.8 286.1Q331.05 281.9 332.6 276L333.7 272.25Q332.05 270.25 332.5 269.1Q334.4 264.45 337.95 261Q344.95 280.35 331.9 299.6Q320.3 316.65 299.6 305.95Q272 291.75 269.85 258.55Q266 199.45 268.45 139.95Q270.7 86.3 283.25 34.5Q288.95 10.85 311.95 3.75Q339.6 5.9 337.6 32.95Q337.6 33.35 337.2 33.75M351.45,92.75L341.25 95.1Q342.05 117.5 337.2 139.75Q333.95 117.9 337.8 96.15L323.45 102.5L322.7 96.5Q324.2 95.4 325.85 94.5Q338.4 87.1 351.95 83L353.45 83.95Q354.4 84.7 354.55 85.9Q354.7 87.2 354.25 88.5Q353.45 90.95 351.45 92.75M330.3,80.25Q322.05 92 309.5 91L309.25 85.75Q307.8 63 314.3 45.8L318.95 44Q324.95 44.3 329.05 48.35Q343.1 62.05 330.3 80.25M383.95,110.5L382.95 113.5L378.6 114.95Q372.6 117 366.25 115.95L363.55 136.6Q362.3 132.1 362.15 125.1Q361.65 105.35 367.2 87.5L366.65 111.35Q372.55 108.8 378.95 107.75L381.25 107.8Q383.35 108.35 383.95 110.5M384.7,115.85Q386 100.7 390.95 87.5Q392.55 99.9 390.95 115.15L387.7 142.75Q383.4 131.55 384.7 115.85M426.35,231.85Q422.65 252.95 410.5 271Q395.9 258.5 391.7 238L376.95 274Q375.1 271.9 376.15 269.3Q384.55 247.6 391.3 226.2Q397.15 244.4 408.85 261.15L408.9 261.3Q418.6 247.2 423.45 230.75L426.35 231.85M366.7,284.75Q355.8 321.65 340.95 357.2Q344.25 336 351.9 313.55L364.6 276.3Q365.65 273.25 368.2 272.25Q374.55 308.95 377.8 346.45L377.95 346.7Q389.65 308.15 406.2 272.75Q411.15 316.25 422.7 358.2Q420.95 360.5 418.7 358.45Q408.45 325.15 404.2 290.25Q391.65 324.4 376.45 358.2Q370.25 322.45 367 285.5L366.7 284.75M363.95,357.95Q382.2 368.45 368.2 386.6Q375.85 396.4 377.4 408.4Q368.1 401.2 364.2 388.8L358.45 388.7L355.8 386.35L351.95 408.35Q346.1 384.8 358.2 359.95L357.1 378.6L359.65 380.45Q362.3 380.7 364.7 379.85Q369.8 377.95 371.2 372.7L367.3 364.9L361.45 366.2L359.9 369.15L358.95 362.45L363.95 357.95M255.3,10.9Q258.2 12.75 261.45 13.5Q269.9 18.1 274.55 26.55Q278.9 34.45 275.95 42.25Q263.8 18.05 236.7 25.9Q228.15 28.4 222.55 35.4Q201.3 62 197.25 96.25Q190.4 154.45 188.35 213.3L187.25 246.45Q210.9 240.8 235.45 238.75Q239 243.9 236.4 249.95L235.95 250.75Q211 253.95 187 254.25Q185.7 293.35 184.55 332.5Q182.75 392.35 193.1 451.1Q199.2 485.6 222.15 510.85Q228.1 517.35 236.5 517.95Q263.05 519.8 271 494.4Q277.65 473.2 282.95 451.45L283.55 451L286.2 450.35L286.45 450.2L286.45 449.45L286.2 443.5Q285.95 440.7 287.2 439.7Q289.7 474.5 276.45 507.05Q269.55 523.95 253.9 533.35Q245.55 538.4 235.1 535.1L229.2 533.7Q195.85 509.55 188.1 467.3Q178.1 412.75 179.35 356.7Q180.65 297.85 180.9 238.25Q181.15 178.05 187.9 118.85L191.3 91.1Q196.75 48.55 226.45 18.95Q232.8 12.65 240.95 10L254.45 10.25L255.3 10.9M313.15,83.15Q333.45 76.25 331.95 54.25Q324.45 49.05 315.2 49.9Q317.2 66.85 311.95 83.35L313.15 83.15M189.15,48.4L177.2 93.25L172.65 68.15L164.7 95.75L163.8 93.6Q162.4 90 162.15 86.1Q160 53.6 162.7 20.9Q163.35 13.3 167.2 6.75L165.45 76.5L172.2 42.4Q176.7 46.15 176.7 53.75Q176.65 65.15 177.7 76.75L193.6 3.3Q196.8 2.7 195.95 9.05Q193.4 28.85 189.15 48.4M160.2,6.25L160.9 7.75L161.4 9.25L161.55 10Q162.3 13.95 160.45 17.5Q123.5 16.15 86.4 16.8Q88 73.65 86.65 131.5Q86.3 146.3 86.4 161.5Q86.85 221.25 86.8 280.75L86.7 399.95L86.5 519.2Q86.5 527.95 84.75 536.4L84.25 537.95Q76.05 531.5 77.45 516.8Q80.15 487.45 80.4 457.7Q80.9 397.9 79.65 338.5Q78.35 279 78.9 219.25L80.05 100Q80.55 57 85.75 16.8L17.9 19.65L10.75 19.25L10.3 17.75L10 16.25L9.95 15.5Q9.85 13.2 10.5 11Q59.5 5.85 108.95 2.75Q134.05 5.45 159.45 5.85L160.2 6.25M119.2,178Q122.15 175.15 126.1 174.5Q135.75 173.6 139.75 182.25Q144.7 193.15 134.9 201.9Q150.95 213.15 152.7 228.5L130.95 206.25L130.75 204.8L123.45 206.5L120.05 204.25L115.3 232.5Q113.2 212.55 117.6 195.4L119.45 182.5L119.2 178M120.7,196.8L123.95 199L126.85 198.25Q137.55 195.45 138.8 185.1L135.15 181.35L121.2 182L120.7 196.8M316.25,325.25Q320.9 375.8 330.9 425.75L331.95 425.45Q338.05 429.9 333.85 437.65L333.45 438.2L333.4 438.2Q343.9 491.85 349.45 546.25Q349.85 550.1 346.95 551.95Q339.05 524.35 335.25 493.9Q331.85 466.65 327.5 439.55L303.25 444.15Q300.75 465.65 298.5 487.25Q295.5 516 284.95 541.7Q283.25 541.4 282.95 539.7Q291.1 492.8 296.35 445Q294.7 442.5 295.3 439.25L295.7 437.7L297.2 437.1L298.6 422.65Q303.65 368.35 314.85 317.1L315.2 313L315.35 314.85L316.2 311L316.25 325.25M539.6,504.4Q537.35 504.5 535.25 503.4L531.95 500.85L529.7 500.95L524.15 507.05L530.95 505.7Q532.95 506.5 534.15 508.15Q536.15 510.95 535.15 514.2Q534.75 515.5 533.3 515.95L530.95 514.45L525.7 514.45L523.95 515.7L520.25 514.7L519.45 525.45L522.4 525.55Q532.15 525.8 539.7 519.7Q539.5 523.15 538.1 526.3Q532.3 539.6 517.7 534.7L516.55 529.7Q512.05 506.4 529.95 491.45L540.45 497.45L540.7 504.2L539.6 504.4M362.3,457.85Q362.75 453.45 365.2 450.95Q366.7 467.1 364.5 483.95L364.45 484.7L384.45 486.95Q388.55 491.1 385.45 496.45Q374.3 493.2 361.7 493.2Q360.45 475.45 362.3 457.85M314.55,354.7L304.4 434.15L325.5 427.2L314.55 354.7" />
</g>
</svg>
