<?xml version="1.0" encoding="utf-8"?>
<svg version="1.1" id="Layer_1"
xmlns="http://www.w3.org/2000/svg"
xmlns:xlink="http://www.w3.org/1999/xlink"


xml:space="preserve">
q-3.6 3.85 -2.05 8.65q-3.85 18.45 -4 39.6q-0.15 18.15 -0.85 36.2q-0.3 0.95 -0.3 2q-1.85 38.4 -6.4 76.5q-2 16.9 3.65 29.35q5.4 2.75 11.45 3.55q40.15 5.4 56.4 -30.75q5.35 -11.9 6.25 -24.9q2.3 -32.2 -22.25 -47.85q15.75 -15.85 15.25 -41.5q-0.75 -42.8 -44 -50q-9.25 0.35 -15.4 6.8q22.9 6.55 23.9 30.95q0.9 21.15 -13.3 36.85q-15.3 16.9 -38.5 13.95q-3.85 -0.7 -7.8 -1.95q15.1 6 29.55 -1.6q-11.45 3.8 -22.95 0.3q22.8 -6.5 40.6 8.6q18.45 15.75 10.05 37.85q-8 21.1 -29.3 28.45q-31.15 -1.45 -59.45 7.5q-0.7 1.8 -0.8 3.75q-0.15 1.9 0.05 3.75q0.1 1.25 1 2.2q22 -3.35 44.1 -4.2q-4.75 29 -4.2 59.7q0.85 45.05 -4.55 89.1q-2 16.5 3.15 29.85q0.85 -0.6 0.95 -1.35q4.6 -33.05 5.4 -66.65q1.3 -56.2 1.2 -110.75q21.05 -0.75 42.15 0.8q2.6 -3.8 1.7 -8.3q-0.25 -1.5 -0.9 -3q-19.5 8.2 -32.3 25.05q-11.8 15.5 -16.5 34.65q-3.5 14.25 -5.35 28.8q-2.2 32.45 7.1 63.75q3.15 10.5 12.25 16.9q17.4 12 38.85 11.4q5.9 -0.15 11.8 -1.65q13.3 -3.5 24.3 -11.8q16.75 -12.55 14.6 -31.65q-0.4 -3.6 -2.6 -6.65q-4.35 11.7 -13.4 20.05q-11.45 10.6 -26.55 14.9q-27.35 7.85 -49.3 -10.45q-9.2 -21.25 -11.55 -44.25q-1.1 -10.55 -0.95 -21.15q1.15 -1.8 1.6 -3.85q0.5 -2.4 0.1 -4.95q-0.4 -2.8 -2.05 -4.95q-30.95 1.1 -60.4 9.9q1.5 -21.25 12.6 -39.45q10.2 -16.8 27.05 -26.4q28.2 -16.1 56.25 1.55q2.15 1.35 3 3.5q-7.25 -12.95 -20.85 -18.9q-13.85 -6.1 -29.15 -4.35<g id="1592" transform="matrix(1, 0, 0, 1, -140.55, 0)">
<path style="fill:#000000;fill-opacity:1" d="M352.45,180.75L352.55 181.05Q358.7 174.6 367.95 174.25Q411.2 181.45 411.95 224.25Q412.45 249.9 396.7 265.75Q421.25 281.4 418.95 313.6Q418.05 326.6 412.7 338.5Q396.45 374.65 356.3 369.25Q350.25 368.45 344.85 365.7L342.45 377.2Q336.8 364.75 338.8 347.85Q343.35 309.75 345.2 271.35L345.15 267.7Q345.15 266.65 345.45 265.7Q346.15 247.65 346.3 229.5Q346.45 208.35 350.3 189.9Q348.75 185.1 352.35 181.25L352.45 180.75M381.4,277Q366.95 284.6 351.85 278.6L347.45 348.35L350.95 348.95L352.75 352.45Q356.7 353.7 360.55 354.4Q383.75 357.35 399.05 340.45Q413.25 324.75 412.35 303.6Q411.35 279.2 388.45 272.65L383.3 275.9L381.4 277M404.75,236.55Q413.15 214.45 394.7 198.7Q376.9 183.6 354.1 190.1L352.5 265.3Q364 268.8 375.45 265Q396.75 257.65 404.75 236.55M231.5,179.95Q232.15 181.45 232.4 182.95Q233.3 187.45 230.7 191.25Q209.6 189.7 188.55 190.45Q188.65 245 187.35 301.2Q186.55 334.8 181.95 367.85Q181.85 368.6 181 369.2Q175.85 355.85 177.85 339.35Q183.25 295.3 182.4 250.25Q181.85 219.55 186.6 190.55Q164.5 191.4 142.5 194.75L141.75 193.95Q140.85 193 140.75 191.75Q140.55 189.9 140.7 188Q140.8 186.05 141.5 184.25Q169.8 175.3 200.95 176.75L230.45 178.8L231.2 179.25L231.5 179.95M300.1,181.1Q313.7 187.05 320.95 200L319.95 203.1Q319.1 200.95 316.95 199.6Q288.9 181.95 260.7 198.05Q243.85 207.65 233.65 224.45Q222.55 242.65 221.05 263.9Q250.5 255.1 281.45 254Q283.1 256.15 283.5 258.95Q283.9 261.5 283.4 263.9Q282.95 265.95 281.8 267.75L220.45 274.3Q220.3 284.9 221.4 295.45Q223.75 318.45 232.95 339.7Q254.9 358 282.25 350.15Q297.35 345.85 308.8 335.25Q317.85 326.9 322.2 315.2Q324.4 318.25 324.8 321.85Q326.95 340.95 310.2 353.5Q299.2 361.8 285.9 365.3Q280 366.8 274.1 366.95Q252.65 367.55 235.25 355.55Q226.15 349.15 223 338.65Q213.7 307.35 215.9 274.9L214.45 266L216.8 265.25Q218.65 250.7 222.15 236.45Q226.85 217.3 238.65 201.8Q251.45 184.95 270.95 176.75Q286.25 175 300.1 181.1" />
</g>
</svg>
