<?xml version="1.0" encoding="utf-8"?>
<svg version="1.1" id="Layer_1"
xmlns="http://www.w3.org/2000/svg"
xmlns:xlink="http://www.w3.org/1999/xlink"


xml:space="preserve">
q1.25 38.6 11.95 76.95q8.05 28.7 14.75 57.7q6.9 29.7 16.5 55.85q1.25 -1.25 1.65 -2.85q9.95 -45.75 17.75 -92.25q4.9 -29.4 12.75 -58.15q6.15 -22.45 4.5 -43.8q-11.4 30.55 -17.35 64.5q-9.6 54.9 -20.75 109.65q-4.1 -27.85 -12 -55.25q-16.45 -57.05 -29.65 -113.65q-1.25 -0.3 -1.2 0.7q-45.45 2.95 -89.95 12.5q-8.2 40.45 -6.1 82.3q1.55 31.5 -1.55 63q-1.75 17.55 2.1 34.35q0.8 3.4 2.15 6.65q8.55 -50.6 6.85 -102q-1.4 -42.35 -1.35 -84.55q2.7 -4.9 0.2 -9.7q-16.35 14.3 -22.2 35.75q-5.65 20.85 -7.25 42.4q-1.65 22.05 2.45 43.55q4.05 21.4 20.55 35.75q17.9 15.6 40.15 9.6q23.35 -6.35 28.95 -28.65q1.35 -5.4 -2.55 -9.85q-14.95 30.9 -48.05 22.4q-23.75 -6.1 -30.9 -29.9q-6 -19.85 -5.9 -40.85q4.3 -5.55 0.65 -12.4q-25.25 -3.6 -49.75 3.25q1.6 -43.9 41.7 -61.4q20.65 -8.9 39.65 4.7q0.25 -23.05 -25.55 -28.45q-21.05 -4.2 -36.8 9.6<g id="1595" transform="matrix(1, 0, 0, 1, -140.5, 0)">
<path style="fill:#000000;fill-opacity:1" d="M346.45,182.25Q359.65 238.85 376.1 295.9Q384 323.3 388.1 351.15Q399.25 296.4 408.85 241.5Q414.8 207.55 426.2 177Q427.85 198.35 421.7 220.8Q413.85 249.55 408.95 278.95Q401.15 325.45 391.2 371.2L390.1 370.6Q389.7 372.2 388.45 373.45Q378.85 347.3 371.95 317.6Q365.25 288.6 357.2 259.9Q346.5 221.55 345.25 182.95Q345.2 181.95 346.45 182.25M231.1,183.15L188.5 188.65Q188.45 230.85 189.85 273.2Q191.55 324.6 183 375.2Q181.65 371.95 180.85 368.55Q177 351.75 178.75 334.2Q181.85 302.7 180.3 271.2Q178.2 229.35 186.4 188.9L140.55 193.2L140.5 184.5Q185 174.95 230.45 172L231.3 173.45Q233.8 178.25 231.1 183.15M299.65,184.8Q325.45 190.2 325.2 213.25L320.45 207.25Q301.45 193.65 280.8 202.55Q240.7 220.05 239.1 263.95Q263.6 257.1 288.85 260.7L289.1 261.05Q292.75 267.9 288.45 273.45L238.1 274.6Q238 295.6 244 315.45Q251.15 339.25 274.9 345.35Q308 353.85 322.95 322.95Q326.85 327.4 325.5 332.8Q319.9 355.1 296.55 361.45Q274.3 367.45 256.4 351.85Q239.9 337.5 235.85 316.1Q231.75 294.6 233.4 272.55Q235 251 240.65 230.15Q246.5 208.7 262.85 194.4Q278.6 180.6 299.65 184.8" />
</g>
</svg>
