<?xml version="1.0" encoding="utf-8"?>
<svg version="1.1" id="Layer_1"
xmlns="http://www.w3.org/2000/svg"
xmlns:xlink="http://www.w3.org/1999/xlink"


xml:space="preserve">
q-3.3 57.8 -3.8 116.25q-0.25 31.15 -1.4 62.15q-15 0.2 -30.25 -1.55q-3.3 -0.2 -6.35 0.75q1.9 -25.45 4.6 -50.7q6.4 -59.5 2.25 -118.45q-0.8 -0.15 -0.85 0.3q-3.85 47.9 -6.35 96.4q-1.85 29.75 -6.8 58.9q-2.85 16.6 2.95 30q3.35 -2.95 3.8 -8q5.45 -59.05 7.3 -118.45q0.9 -28.35 2.75 -56.5q24.25 4.8 49 3.95q-1 21 -2.4 41.9q-4.05 59.7 -13.7 118.35q-1.15 0.4 -0.9 1.8q-2.65 13.95 3.5 24.5q5.65 -11.75 7.35 -26.5q6.75 -58.6 10.5 -117.9q3.75 -59 5.1 -118.55q1.4 -59.85 -1.7 -118.5q-1.45 -0.1 -1.55 1.5q-40.55 -0.25 -82.75 -5.55q-3.95 4.1 -1.8 10.2q24.45 8.2 52.7 5.25q-6.6 173.55 -18.35 346.7q-0.5 7.05 3.05 13.3q14.4 -138.55 19.45 -278q1 -27.3 0.05 -54.45q3.65 -4.7 1.7 -10.55q-34.1 51.3 -30.05 117.45q1.65 26.8 1.5 53.75q0 4.5 0.95 9q1.25 5.9 3.45 11.25q2.75 5.2 6.2 10q22.85 5.6 34.8 -15.55q1.55 -2.8 1.95 -5.95q0.5 -4.35 -0.75 -8.45q-12.05 18.25 -33.45 17.45q-12.25 -42.45 -6.2 -86.9q4.5 -7.3 -0.35 -14.6q-7 -52.8 30.5 -74.1q4.35 -2.45 9.7 0.6q4.65 -9.55 -5 -16.35q-6.15 -2.9 -12.8 -0.05q-22.2 36.45 -27 80.05q-1.5 13.65 -2.35 27.25q-1.9 29.5 -1.2 59.2q0.35 14.7 0.85 29.4q0.45 14.6 1.2 29.25q0.45 10.6 2.5 21.15q1.9 9.8 8.05 17.65q15.3 19.45 34 3.15q17.9 -15.65 12.75 -38.3q-0.35 0.1 -0.35 0.15q0.05 0.65 0.45 1.25q-4.8 16.5 -20.1 21.4q-3.4 -0.35 -6.7 -1.45q-2.6 -0.95 -4.1 -3.45q-0.75 -1.2 -1 -2.5q-1.55 -8.05 -2.65 -16.15q-1.95 -14.8 -3.55 -29.55q-2.4 -22.3 -3.5 -44.65q-1.35 -27.5 -0.7 -54.95q19.95 4.1 40.15 0.85q3.9 -6.4 -0.35 -12.3q-5 -75.95 28.25 -140.5q2.7 -5.25 6.75 -9.65q14.8 -3.6 24.85 5.9q2.8 -14.85 -14.25 -18.95q-4.5 -1.2 -9.15 -0.6q-2.85 -0.2 -4.85 1.75q15.15 -1.45 21 11.8q2 -25.7 -26.4 -23.7q-35.1 25.2 -44.45 69.15q-12.5 58.6 -14.7 118.8q-2.2 59 -0.6 117.75q0.85 31.45 18.2 56.95q13.7 20.1 34.35 7.7q7.55 -4.55 14.2 -10.2q20.05 -16.9 13 -37.45q-12.55 19.15 -31.1 33.3q-5.65 4.35 -11.85 2.1q-25.7 -9.4 -27.95 -38.35q-4.55 -59.4 -2.95 -119.25q20.65 2.1 39.85 -5.6q3.25 -7 -1.2 -12.7q-18.9 5.3 -38.6 7.2q2.45 -48.9 10.85 -96.75q7.8 -44.05 41.25 -71.7q-66.55 10.15 -132.95 18.5q-0.85 3.85 0.5 7.5q1.1 0.6 2.25 0.6q33.15 -0.65 66.1 -3.55q-6.8 55.65 -8.4 112.2q-1.75 59.55 -5.2 118.55q-3.5 59.5 -11.5 118.2q-2.4 17.35 4.5 29.45q4.8 -15.2 5.8 -32.15q3.6 -59.2 6.85 -118.55q3.25 -59.2 5 -118.5q0.85 -29.85 4.95 -59.05q3.6 -25.7 1.9 -50.5q30.3 -2.9 60.45 -7.7q3.9 -7.75 -0.75 -14.85<g id="1597" transform="matrix(1, 0, 0, 1, -29.4, 0)">
<path style="fill:#000000;fill-opacity:1" d="M416.2,67.75Q419.3 126.4 417.9 186.25Q416.55 245.8 412.8 304.8Q409.05 364.1 402.3 422.7Q400.6 437.45 394.95 449.2Q388.8 438.65 391.45 424.7Q391.2 423.3 392.35 422.9L392.7 422.45Q402.35 363.8 406.4 304.1Q407.8 283.2 408.8 262.2Q384.05 263.05 359.8 258.25Q357.95 286.4 357.05 314.75Q355.2 374.15 349.75 433.2Q349.3 438.25 345.95 441.2Q340.15 427.8 343 411.2Q347.95 382.05 349.8 352.3L356.9 233.85L360.25 174.45Q362.75 125.95 366.6 78.05Q366.65 77.6 367.45 77.75Q371.6 136.7 365.2 196.2Q362.5 221.45 360.6 246.9Q363.65 245.95 366.95 246.15L370.95 246.1L370.95 246Q386.2 247.75 401.2 247.55L409.45 247.65Q410.6 216.65 410.85 185.5Q411.35 127.05 414.65 69.25Q414.75 67.65 416.2 67.75M354.45,69.75L327.15 68.2L328.3 95.4Q329.25 122.55 328.25 149.85Q323.2 289.3 308.8 427.85L308.6 428Q305.05 421.75 305.55 414.7Q317.3 241.55 323.9 68Q295.65 70.95 271.2 62.75Q269.05 56.65 273 52.55Q315.2 57.85 355.75 58.1L356.15 59.2Q358.1 65.05 354.45 69.75M469.65,253.05L470.95 253.9Q480.6 260.7 475.95 270.25Q470.6 267.2 466.25 269.65Q428.75 290.95 435.75 343.75L460.45 340.5Q465.3 347.8 460.8 355.1L435.3 356Q429.25 400.45 441.5 442.9Q462.9 443.7 474.95 425.45L476.45 430Q477.7 434.1 477.2 438.45Q476.8 441.6 475.25 444.4Q463.3 465.55 440.45 459.95Q437 455.15 434.25 449.95L431.8 444.7Q429.6 439.35 428.35 433.45Q427.4 428.95 427.4 424.45Q427.55 397.5 425.9 370.7Q421.85 304.55 455.95 253.25L456.85 253Q463.5 250.15 469.65 253.05M261.8,80.85Q263.8 78.9 266.65 79.1Q271.3 78.5 275.8 79.7Q292.85 83.8 290.05 98.65Q280 89.15 265.2 92.75L262.45 95.7Q258.4 100.1 255.7 105.35Q222.45 169.9 227.45 245.85L264.95 243.25L266.85 245.45Q271.1 251.35 267.2 257.75Q247 261 227.05 256.9Q226.4 284.35 227.75 311.85Q228.85 334.2 231.25 356.5Q232.85 371.25 234.8 386.05Q235.9 394.15 237.45 402.2Q237.7 403.5 238.45 404.7Q239.95 407.2 242.55 408.15Q245.85 409.25 249.25 409.6L256.1 409.1Q271.4 404.2 276.2 387.7Q275.8 387.1 275.75 386.45Q275.75 386.4 276.1 386.3L281.45 381.7Q286.6 404.35 268.7 420Q250 436.3 234.7 416.85Q228.55 409 226.65 399.2Q224.6 388.65 224.15 378.05L222.8 348.95Q222.05 334.3 221.6 319.7Q221.1 305 220.75 290.3Q220.05 260.6 221.95 231.1Q222.8 217.5 224.3 203.85L228.45 166.55Q233.25 122.95 255.45 86.5L261.8 80.85M188.95,82.75Q155.5 110.4 147.7 154.45Q139.3 202.3 136.85 251.2Q156.55 249.3 175.45 244Q179.9 249.7 176.65 256.7L176.2 257.5Q157 265.2 136.35 263.1L136.1 270.25Q134.5 330.1 139.05 389.5Q141.3 418.45 167 427.85Q173.2 430.1 178.85 425.75Q197.4 411.6 209.95 392.45Q217 413 196.95 429.9Q190.3 435.55 182.75 440.1Q162.1 452.5 148.4 432.4Q131.05 406.9 130.2 375.45Q128.6 316.7 130.8 257.7Q133 197.5 145.5 138.9Q154.85 94.95 189.95 69.75Q218.35 67.75 216.35 93.45L215.95 94Q210.1 80.75 194.95 82.2L188.95 82.75M164.2,65.35L163.45 66.25Q133.3 71.05 103 73.95Q104.7 98.75 101.1 124.45Q97 153.65 96.15 183.5Q94.4 242.8 91.15 302Q87.9 361.35 84.3 420.55Q83.3 437.5 78.5 452.7Q71.6 440.6 74 423.25Q82 364.55 85.5 305.05Q88.95 246.05 90.7 186.5Q92.3 129.95 99.1 74.3Q66.15 77.2 33 77.85Q31.85 77.85 30.75 77.25Q29.4 73.6 30.25 69.75L30.5 69Q96.9 60.65 163.45 50.5Q168.1 57.6 164.2 65.35" />
</g>
</svg>
